<svg width="340" height="227" viewBox="0 0 340 227" fill="none" xmlns="http://www.w3.org/2000/svg">
<path d="M286.085 26.3819C280.994 27.8166 275.822 28.9788 270.581 29.7597C246.799 33.3054 191.982 40.8963 165.412 39.8067C130.923 38.3948 21.6195 0.626521 13.3643 22.3413C5.10454 44.0562 7.53441 203.156 23.5643 206.461C39.5941 209.766 96.4331 183.802 129.953 182.858C163.472 181.913 243.626 207.405 276.66 208.822C309.695 210.238 312.61 205.045 320.38 177.192C328.154 149.339 336.41 57.7488 334.954 36.5061C333.717 18.446 298.434 22.8998 286.085 26.3819Z" fill="#39B4EF"/>
<path opacity="0.7" d="M286.085 26.3819C280.994 27.8166 275.822 28.9788 270.581 29.7597C246.799 33.3054 191.982 40.8963 165.412 39.8067C130.923 38.3948 21.6195 0.626521 13.3643 22.3413C5.10454 44.0562 7.53441 203.156 23.5643 206.461C39.5941 209.766 96.4331 183.802 129.953 182.858C163.472 181.913 243.626 207.405 276.66 208.822C309.695 210.238 312.61 205.045 320.38 177.192C328.154 149.339 336.41 57.7488 334.954 36.5061C333.717 18.446 298.434 22.8998 286.085 26.3819Z" fill="white"/>
<path opacity="0.15" d="M13.0378 99.3352C18.6274 100.67 25.6904 99.6621 27.8573 99.2989C27.8437 102.309 27.9208 105.473 28.2154 108.765C28.6234 113.35 29.2808 118.149 30.6 123.007C30.6136 123.061 30.6362 123.116 30.6544 123.17C29.8293 121.872 27.3949 118.312 27.1773 118.058C24.1082 114.503 16.0888 109.446 11.2517 111.502C7.76557 112.982 6.74557 117.164 8.49544 120.351C10.2816 123.606 14.561 125.218 18.029 125.722C21.9413 126.294 30.1738 123.901 30.8266 123.71C32.1277 128.328 33.8322 132.954 35.8178 137.544C36.9512 140.168 38.1706 142.778 39.4309 145.38C38.6784 144.277 37.9984 143.301 37.8896 143.173C34.8205 139.619 26.801 134.561 21.964 136.618C18.4778 138.098 17.4578 142.279 19.2077 145.466C20.9938 148.721 25.2733 150.333 28.7413 150.837C32.2592 151.35 39.3221 149.452 41.1808 148.926C41.6749 149.92 42.1554 150.914 42.6496 151.904C45.0341 156.657 47.4322 161.392 49.6445 166.105C50.4242 167.767 51.1314 169.433 51.8477 171.094C51.1813 170.118 50.6101 169.297 50.5104 169.183C47.4413 165.628 39.4218 160.571 34.5848 162.627C31.0986 164.107 30.0786 168.289 31.8285 171.476C33.6146 174.731 37.8941 176.343 41.3621 176.847C44.7213 177.337 51.2538 175.644 53.4661 175.031C54.1461 176.756 54.8306 178.481 55.4109 180.184C55.7826 181.355 56.2178 182.458 56.5261 183.652C56.8525 184.832 57.1789 185.999 57.5008 187.152C58.0402 189.4 58.6069 191.72 59.0784 193.926C59.4184 195.456 59.713 196.927 60.0122 198.403C59.2552 196.741 57.7048 193.518 57.5461 193.263C55.0482 189.286 47.8901 183.066 42.7946 184.365C39.1272 185.3 37.4861 189.277 38.7328 192.691C40.0066 196.182 43.9914 198.421 47.3416 199.447C51.0317 200.577 59.2008 199.542 60.2208 199.406C60.7104 201.853 61.1637 204.232 61.5536 206.488C61.88 208.341 62.1746 210.12 62.4466 211.823H65.7333C65.3978 209.948 65.0306 207.977 64.6181 205.916C64.133 203.433 63.5618 200.786 62.9498 198.076C63.5618 197.831 67.048 196.419 70.1352 194.693C72.8234 197.613 79.7186 201.027 80.6117 201.458C79.6733 203.769 78.7394 206.007 77.8237 208.105C77.2661 209.394 76.7176 210.624 76.1781 211.827H79.6552C79.9997 211.01 80.3442 210.175 80.6933 209.317C81.6544 206.974 82.6381 204.454 83.6218 201.853C84.6101 202.062 92.6976 203.705 96.4693 202.852C99.8874 202.08 104.026 200.141 105.559 196.755C107.059 193.44 105.717 189.354 102.127 188.147C97.1448 186.471 89.5424 192.137 86.7544 195.919C86.5912 196.142 85.077 198.761 84.1477 200.432C84.5466 199.37 84.941 198.339 85.3354 197.24C86.1288 195.07 86.8586 192.882 87.652 190.53C87.9965 189.382 88.341 188.219 88.6901 187.048C89.0618 185.895 89.3112 184.624 89.6285 183.402C90.304 180.556 90.8525 177.632 91.3421 174.681C93.2416 175.376 100.023 177.736 103.532 177.487C107.027 177.242 111.416 175.952 113.438 172.842C115.419 169.796 114.711 165.551 111.348 163.812C106.678 161.402 98.3053 165.846 94.9778 169.16C94.7693 169.369 92.6522 172.016 91.5144 173.492C91.7954 171.712 92.081 169.941 92.3032 168.134C92.9514 162.918 93.441 157.615 93.9578 152.326C94.1165 150.705 94.2888 149.094 94.461 147.482C95.132 147.736 103.133 150.719 107.068 150.442C110.563 150.197 114.952 148.907 116.974 145.798C118.955 142.751 118.247 138.506 114.884 136.768C110.214 134.357 101.841 138.801 98.5138 142.116C98.2645 142.365 95.2181 146.179 94.4928 147.187C94.869 143.632 95.2725 140.091 95.8165 136.618C96.56 131.823 97.5528 127.165 98.8448 122.721C99.1576 122.839 107.49 125.99 111.52 125.708C115.015 125.463 119.403 124.174 121.425 121.064C123.406 118.017 122.699 113.772 119.335 112.034C114.666 109.623 106.293 114.067 102.966 117.382C102.748 117.6 100.427 120.501 99.3525 121.908C99.2074 121.831 99.2346 121.845 99.085 121.772C100.531 117.028 102.526 112.615 104.598 108.574C105.794 106.231 107.068 104.061 108.351 101.977C109.843 102.722 116.702 106.059 120.355 106.204C123.86 106.345 128.357 105.546 130.71 102.677C133.012 99.8664 132.777 95.567 129.622 93.4741C125.242 90.5639 116.434 94.0643 112.767 96.9926C112.631 97.1015 111.706 98.0141 110.713 99.0174C110.722 98.7995 110.727 98.5452 110.731 98.2547C110.876 98.0277 111.026 97.7916 111.171 97.5737C113.37 94.2595 115.586 91.3584 117.572 88.8069C118.714 87.3632 119.771 86.0829 120.777 84.8935C122.622 84.8617 130.057 84.6347 133.312 83.1047C136.485 81.611 140.112 78.828 140.878 75.196C141.63 71.6367 139.441 67.932 135.678 67.528C130.451 66.965 124.245 74.1337 122.337 78.4285C122.173 78.8008 120.256 84.898 120.355 84.898C120.355 84.898 120.446 84.898 120.469 84.898C119.481 86.0239 118.433 87.2406 117.314 88.5936C115.283 91.0951 113.007 93.9371 110.745 97.1969C110.704 92.1348 109.806 81.6247 103.138 80.9891C94.3341 80.1492 91.8181 90.228 97.2672 95.685C101.089 99.5123 106.143 100.034 108.823 100.007C107.136 102.531 105.436 105.242 103.854 108.184C101.669 112.229 99.5746 116.601 98.0016 121.381C97.9834 121.436 97.9698 121.495 97.9562 121.549C97.9834 120.006 97.9154 115.693 97.8701 115.366C97.2672 110.703 93.364 102.055 88.2005 101.097C84.4786 100.407 81.3234 103.33 81.0288 106.953C80.725 110.658 83.4088 114.363 86.02 116.701C88.9666 119.338 97.1493 121.89 97.8021 122.094C96.3424 126.661 95.2181 131.465 94.3432 136.391C93.84 139.205 93.4229 142.057 93.0421 144.921C93.024 143.587 92.9968 142.397 92.9741 142.229C92.3712 137.567 88.468 128.918 83.3045 127.96C79.5826 127.27 76.4274 130.194 76.1328 133.817C75.829 137.521 78.5128 141.226 81.124 143.564C83.776 145.938 90.7074 148.254 92.5525 148.844C92.4165 149.943 92.2714 151.041 92.14 152.144C91.5098 157.425 90.9024 162.7 90.1498 167.853C89.8869 169.669 89.5605 171.449 89.2386 173.228C89.2205 172.043 89.1933 171.045 89.1752 170.895C88.5722 166.232 84.6736 157.583 79.501 156.625C75.7792 155.935 72.624 158.859 72.3293 162.482C72.0256 166.182 74.7093 169.891 77.3205 172.229C79.8501 174.495 86.233 176.692 88.4181 177.401C88.0328 179.217 87.652 181.032 87.1986 182.771C86.8632 183.952 86.6184 185.114 86.2149 186.281C85.8386 187.448 85.4669 188.596 85.0997 189.74C84.3109 191.915 83.5085 194.162 82.6834 196.26C82.1213 197.726 81.5592 199.111 80.997 200.509C81.2826 198.702 81.7632 195.156 81.7722 194.857C81.8448 191.733 80.7386 186.658 78.5354 183.094C78.549 182.635 78.5218 182.172 78.4493 181.718C77.8736 178.127 74.5053 175.457 70.8469 176.433C65.7696 177.786 62.5464 186.717 62.3061 191.406C62.2925 191.683 62.4738 194.702 62.6189 196.609C62.365 195.501 62.1293 194.426 61.8528 193.291C61.3224 191.043 60.724 188.814 60.0893 186.412C59.7448 185.264 59.3912 184.106 59.0376 182.935C58.7112 181.763 58.217 180.574 57.809 179.375C56.8026 176.624 55.6512 173.887 54.4317 171.153C56.3992 170.681 63.3533 168.906 66.1458 166.759C68.9248 164.62 71.876 161.125 71.8488 157.411C71.8216 153.774 68.8976 150.624 65.1304 151.032C59.908 151.6 55.3701 159.935 54.4226 164.539C54.3637 164.825 54.0554 168.207 53.9194 170.064C53.1714 168.425 52.437 166.791 51.6256 165.156C49.2909 160.448 46.7794 155.754 44.2952 151.059C43.5336 149.62 42.7946 148.181 42.0421 146.742C42.7448 146.583 51.0589 144.649 54.1869 142.247C56.9658 140.109 59.917 136.613 59.8898 132.899C59.8626 129.263 56.9386 126.112 53.1714 126.521C47.9445 127.088 43.4112 135.424 42.4637 140.027C42.3912 140.372 41.956 145.239 41.9016 146.479C40.256 143.305 38.6466 140.132 37.1869 136.935C35.165 132.527 33.4242 128.092 32.0552 123.67C32.3816 123.597 41.0674 121.618 44.2725 119.157C47.0514 117.018 50.0026 113.523 49.9754 109.809C49.9482 106.172 47.0242 103.022 43.257 103.435C38.0301 104.002 33.4968 112.338 32.5493 116.941C32.4858 117.245 32.1504 120.95 32.028 122.716C31.8648 122.734 31.892 122.73 31.7288 122.748C30.3189 117.99 29.5528 113.209 29.0541 108.692C28.7594 106.077 28.628 103.562 28.5509 101.115C30.2056 100.915 37.7626 99.9072 40.8906 98.0095C43.8872 96.1935 47.2056 93.0428 47.5864 89.3472C47.9581 85.7288 45.3968 82.2784 41.6114 82.2693C36.3573 82.2603 30.9354 90.0464 29.4893 94.5183C29.4122 94.7634 28.8818 97.3194 28.5237 99.1899C28.5056 98.0822 28.4693 96.9426 28.4738 95.8848C28.4829 91.9032 28.7322 88.2621 28.9816 85.0342C29.1357 83.2 29.317 81.5475 29.4984 79.9993C31.0216 78.9506 37.0962 74.6558 38.9685 71.5822C40.7909 68.5858 42.2869 64.2592 40.9224 60.8042C39.5896 57.4219 35.7226 55.5424 32.3634 57.2812C27.6941 59.6965 26.4656 69.1079 27.2408 73.7432C27.3088 74.1427 29.0722 80.2899 29.1493 80.2354C29.1493 80.2354 29.2218 80.1855 29.24 80.1719C29.036 81.6564 28.832 83.25 28.6461 84.9933C28.3242 88.2213 27.9933 91.8669 27.9026 95.8621C27.8845 96.593 27.8754 97.3512 27.8618 98.1049C25.8581 95.0131 19.5386 86.3417 12.7114 88.185C4.4517 90.4141 6.36024 97.7417 13.0378 99.3352Z" fill="#002E47"/>
<path opacity="0.15" d="M318.312 118.916C313.698 120.015 307.863 119.189 306.072 118.884C306.086 121.368 306.023 123.983 305.778 126.702C305.442 130.489 304.898 134.452 303.806 138.465C303.792 138.511 303.774 138.556 303.76 138.602C304.445 137.526 306.453 134.588 306.63 134.379C309.164 131.447 315.787 127.265 319.786 128.963C322.664 130.189 323.508 133.639 322.062 136.273C320.584 138.96 317.052 140.291 314.187 140.708C310.955 141.18 304.159 139.205 303.615 139.047C302.541 142.86 301.131 146.683 299.49 150.474C298.556 152.644 297.545 154.796 296.507 156.943C297.128 156.035 297.69 155.223 297.781 155.118C300.315 152.181 306.938 148.004 310.937 149.702C313.815 150.928 314.659 154.378 313.212 157.011C311.735 159.699 308.203 161.029 305.338 161.447C302.432 161.869 296.602 160.303 295.066 159.867C294.658 160.689 294.259 161.51 293.851 162.328C291.883 166.255 289.898 170.164 288.075 174.055C287.431 175.426 286.847 176.801 286.257 178.177C286.81 177.369 287.282 176.692 287.363 176.597C289.898 173.66 296.521 169.483 300.519 171.181C303.398 172.406 304.241 175.857 302.795 178.49C301.317 181.178 297.786 182.508 294.92 182.926C292.146 183.33 286.751 181.931 284.924 181.423C284.362 182.848 283.8 184.274 283.32 185.681C283.016 186.648 282.653 187.561 282.399 188.546C282.127 189.518 281.86 190.485 281.592 191.438C281.148 193.295 280.677 195.211 280.287 197.031C280.006 198.298 279.766 199.51 279.516 200.727C280.142 199.356 281.42 196.691 281.556 196.482C283.619 193.195 289.53 188.06 293.737 189.132C296.766 189.904 298.121 193.186 297.092 196.01C296.04 198.893 292.749 200.741 289.979 201.59C286.933 202.525 280.183 201.671 279.339 201.558C278.936 203.578 278.56 205.544 278.238 207.41C277.97 208.94 277.726 210.411 277.503 211.814H274.792C275.069 210.266 275.373 208.64 275.713 206.933C276.116 204.881 276.588 202.697 277.091 200.459C276.583 200.259 273.704 199.093 271.157 197.663C268.935 200.073 263.242 202.893 262.507 203.251C263.282 205.158 264.053 207.006 264.81 208.74C265.272 209.802 265.726 210.819 266.17 211.814H263.3C263.019 211.137 262.734 210.447 262.444 209.743C261.65 207.809 260.839 205.726 260.027 203.583C259.211 203.755 252.529 205.113 249.419 204.409C246.595 203.769 243.177 202.171 241.912 199.374C240.675 196.636 241.781 193.263 244.746 192.264C248.862 190.88 255.14 195.56 257.439 198.684C257.575 198.87 258.826 201.031 259.592 202.411C259.266 201.531 258.935 200.682 258.613 199.774C257.956 197.98 257.353 196.173 256.7 194.23C256.414 193.281 256.129 192.323 255.843 191.352C255.535 190.399 255.331 189.35 255.068 188.342C254.51 185.99 254.057 183.579 253.654 181.137C252.085 181.709 246.486 183.661 243.585 183.457C240.697 183.253 237.075 182.19 235.402 179.621C233.766 177.101 234.351 173.6 237.13 172.161C240.987 170.168 247.901 173.841 250.648 176.579C250.82 176.751 252.57 178.935 253.508 180.156C253.277 178.69 253.042 177.223 252.856 175.73C252.321 171.421 251.913 167.04 251.491 162.673C251.36 161.333 251.215 160.003 251.079 158.668C250.521 158.877 243.916 161.342 240.666 161.111C237.778 160.907 234.156 159.844 232.483 157.275C230.846 154.755 231.431 151.255 234.21 149.815C238.068 147.822 244.981 151.495 247.728 154.233C247.937 154.437 250.448 157.588 251.051 158.423C250.743 155.486 250.408 152.562 249.959 149.697C249.347 145.739 248.526 141.889 247.456 138.22C247.198 138.32 240.316 140.922 236.989 140.686C234.101 140.481 230.479 139.419 228.806 136.849C227.17 134.329 227.755 130.829 230.534 129.39C234.391 127.397 241.305 131.07 244.052 133.807C244.233 133.989 246.151 136.386 247.035 137.548C247.157 137.485 247.135 137.498 247.257 137.435C246.065 133.517 244.415 129.871 242.706 126.534C241.717 124.6 240.666 122.807 239.605 121.086C238.372 121.704 232.71 124.455 229.69 124.578C226.798 124.691 223.081 124.037 221.136 121.663C219.232 119.338 219.427 115.793 222.034 114.063C225.651 111.657 232.927 114.549 235.955 116.969C236.069 117.059 236.83 117.813 237.651 118.639C237.646 118.458 237.637 118.249 237.637 118.008C237.515 117.822 237.397 117.627 237.275 117.445C235.457 114.708 233.63 112.311 231.989 110.204C231.046 109.014 230.171 107.952 229.341 106.971C227.818 106.944 221.675 106.758 218.992 105.496C216.371 104.266 213.375 101.964 212.74 98.9629C212.119 96.021 213.928 92.9656 217.033 92.6296C221.349 92.1665 226.476 98.0867 228.054 101.632C228.19 101.941 229.772 106.976 229.69 106.976C229.69 106.976 229.618 106.976 229.6 106.976C230.416 107.907 231.282 108.91 232.206 110.027C233.884 112.093 235.76 114.44 237.633 117.132C237.669 112.951 238.408 104.27 243.916 103.744C251.187 103.049 253.264 111.375 248.762 115.883C245.602 119.048 241.432 119.475 239.219 119.452C240.616 121.536 242.016 123.779 243.322 126.207C245.126 129.549 246.858 133.158 248.155 137.108C248.168 137.153 248.177 137.199 248.195 137.244C248.173 135.973 248.232 132.409 248.263 132.137C248.762 128.287 251.985 121.141 256.251 120.351C259.325 119.783 261.931 122.194 262.176 125.19C262.426 128.25 260.213 131.31 258.055 133.24C255.621 135.419 248.862 137.526 248.322 137.694C249.528 141.466 250.458 145.434 251.178 149.502C251.591 151.827 251.94 154.183 252.253 156.548C252.271 155.445 252.294 154.464 252.307 154.324C252.806 150.474 256.029 143.332 260.295 142.542C263.368 141.975 265.975 144.386 266.22 147.382C266.469 150.442 264.257 153.502 262.099 155.431C259.91 157.393 254.184 159.304 252.661 159.79C252.774 160.698 252.896 161.606 253.001 162.514C253.522 166.877 254.021 171.231 254.642 175.489C254.859 176.987 255.131 178.458 255.394 179.929C255.408 178.949 255.431 178.127 255.449 178C255.947 174.15 259.171 167.008 263.436 166.218C266.51 165.651 269.117 168.062 269.362 171.058C269.611 174.114 267.399 177.178 265.236 179.108C263.146 180.978 257.879 182.794 256.07 183.38C256.387 184.878 256.7 186.381 257.076 187.815C257.353 188.791 257.552 189.749 257.888 190.716C258.196 191.679 258.504 192.632 258.808 193.572C259.461 195.365 260.123 197.222 260.803 198.956C261.265 200.169 261.732 201.313 262.194 202.466C261.959 200.977 261.56 198.048 261.555 197.799C261.496 195.22 262.412 191.03 264.23 188.083C264.221 187.702 264.239 187.32 264.302 186.944C264.778 183.979 267.562 181.773 270.581 182.581C274.774 183.697 277.435 191.07 277.635 194.948C277.648 195.175 277.499 197.672 277.376 199.242C277.59 198.33 277.78 197.44 278.011 196.5C278.451 194.643 278.945 192.8 279.466 190.816C279.752 189.867 280.042 188.909 280.337 187.942C280.604 186.975 281.012 185.99 281.348 185.005C282.177 182.735 283.129 180.474 284.136 178.213C282.513 177.823 276.769 176.356 274.462 174.586C272.163 172.82 269.729 169.932 269.751 166.863C269.774 163.858 272.19 161.261 275.3 161.597C279.616 162.064 283.36 168.952 284.145 172.752C284.195 172.988 284.448 175.78 284.562 177.314C285.178 175.961 285.786 174.608 286.457 173.265C288.383 169.374 290.46 165.497 292.509 161.619C293.139 160.43 293.751 159.24 294.367 158.051C293.787 157.919 286.924 156.321 284.34 154.337C282.041 152.571 279.607 149.684 279.63 146.615C279.652 143.609 282.068 141.008 285.178 141.348C289.494 141.816 293.239 148.703 294.023 152.503C294.082 152.789 294.444 156.807 294.485 157.833C295.845 155.213 297.174 152.589 298.379 149.952C300.048 146.311 301.485 142.647 302.618 138.997C302.351 138.938 295.174 137.303 292.527 135.269C290.228 133.503 287.794 130.616 287.817 127.547C287.839 124.541 290.256 121.944 293.366 122.28C297.681 122.748 301.426 129.635 302.21 133.435C302.26 133.685 302.541 136.745 302.641 138.202C302.777 138.216 302.75 138.216 302.886 138.229C304.051 134.302 304.681 130.348 305.093 126.621C305.334 124.464 305.447 122.385 305.51 120.36C304.141 120.192 297.903 119.361 295.319 117.795C292.844 116.292 290.106 113.691 289.789 110.64C289.48 107.652 291.598 104.801 294.726 104.797C299.064 104.788 303.543 111.221 304.74 114.912C304.803 115.112 305.238 117.227 305.538 118.771C305.551 117.858 305.583 116.914 305.578 116.038C305.574 112.751 305.365 109.741 305.161 107.076C305.034 105.564 304.885 104.198 304.735 102.917C303.479 102.05 298.461 98.5044 296.915 95.9665C295.41 93.4922 294.177 89.9192 295.301 87.0636C296.403 84.2669 299.594 82.7188 302.373 84.1534C306.227 86.151 307.242 93.9235 306.607 97.7507C306.553 98.0821 305.098 103.158 305.03 103.112C305.03 103.112 304.966 103.072 304.953 103.063C305.12 104.288 305.288 105.605 305.442 107.044C305.705 109.709 305.982 112.724 306.059 116.024C306.072 116.628 306.082 117.255 306.091 117.877C307.745 115.325 312.963 108.161 318.603 109.682C325.407 111.552 323.834 117.604 318.312 118.916Z" fill="#002E47"/>
<g opacity="0.3">
<path d="M308.135 23.7896V63.1832H260.467V23.7896H276.443V25.3832C276.443 26.3456 277.227 27.1265 278.183 27.1265C279.14 27.1265 279.924 26.3411 279.924 25.3832V23.7896H288.674V25.3832C288.674 26.3456 289.458 27.1265 290.414 27.1265C291.375 27.1265 292.151 26.3411 292.151 25.3832V23.7896H308.135Z" stroke="#002E47" stroke-miterlimit="10" stroke-linecap="round" stroke-linejoin="round"/>
<path d="M269.334 34.8763H263.346V40.8736H269.334V34.8763Z" stroke="#002E47" stroke-miterlimit="10" stroke-linecap="round" stroke-linejoin="round"/>
<path d="M278.315 34.8763H272.326V40.8736H278.315V34.8763Z" stroke="#002E47" stroke-miterlimit="10" stroke-linecap="round" stroke-linejoin="round"/>
<path d="M287.295 34.8763H281.307V40.8736H287.295V34.8763Z" stroke="#002E47" stroke-miterlimit="10" stroke-linecap="round" stroke-linejoin="round"/>
<path d="M296.276 34.8763H290.287V40.8736H296.276V34.8763Z" stroke="#002E47" stroke-miterlimit="10" stroke-linecap="round" stroke-linejoin="round"/>
<path d="M305.256 34.8763H299.268V40.8736H305.256V34.8763Z" stroke="#002E47" stroke-miterlimit="10" stroke-linecap="round" stroke-linejoin="round"/>
<path d="M269.334 44.1197H263.346V50.117H269.334V44.1197Z" stroke="#002E47" stroke-miterlimit="10" stroke-linecap="round" stroke-linejoin="round"/>
<path d="M278.315 44.1197H272.326V50.117H278.315V44.1197Z" stroke="#002E47" stroke-miterlimit="10" stroke-linecap="round" stroke-linejoin="round"/>
<path d="M287.295 44.1197H281.307V50.117H287.295V44.1197Z" stroke="#002E47" stroke-miterlimit="10" stroke-linecap="round" stroke-linejoin="round"/>
<path d="M296.276 44.1197H290.287V50.117H296.276V44.1197Z" stroke="#002E47" stroke-miterlimit="10" stroke-linecap="round" stroke-linejoin="round"/>
<path d="M305.256 44.1197H299.268V50.117H305.256V44.1197Z" stroke="#002E47" stroke-miterlimit="10" stroke-linecap="round" stroke-linejoin="round"/>
<path d="M269.334 53.3632H263.346V59.3605H269.334V53.3632Z" stroke="#002E47" stroke-miterlimit="10" stroke-linecap="round" stroke-linejoin="round"/>
<path d="M278.315 53.3632H272.326V59.3605H278.315V53.3632Z" stroke="#002E47" stroke-miterlimit="10" stroke-linecap="round" stroke-linejoin="round"/>
<path d="M287.295 53.3632H281.307V59.3605H287.295V53.3632Z" stroke="#002E47" stroke-miterlimit="10" stroke-linecap="round" stroke-linejoin="round"/>
<path d="M296.276 53.3632H290.287V59.3605H296.276V53.3632Z" stroke="#002E47" stroke-miterlimit="10" stroke-linecap="round" stroke-linejoin="round"/>
<path d="M305.256 53.3632H299.268V59.3605H305.256V53.3632Z" stroke="#002E47" stroke-miterlimit="10" stroke-linecap="round" stroke-linejoin="round"/>
<path d="M279.929 19.3858V25.3831C279.929 26.3456 279.144 27.1265 278.188 27.1265C277.231 27.1265 276.447 26.3411 276.447 25.3831V19.3858C276.447 18.4233 277.231 17.647 278.188 17.647C279.144 17.647 279.929 18.4233 279.929 19.3858Z" fill="#002E47" stroke="#002E47" stroke-miterlimit="10" stroke-linecap="round" stroke-linejoin="round"/>
<path d="M292.151 19.3858V25.3831C292.151 26.3456 291.375 27.1265 290.414 27.1265C289.453 27.1265 288.674 26.3411 288.674 25.3831V19.3858C288.674 18.4233 289.458 17.647 290.414 17.647C291.375 17.647 292.151 18.4233 292.151 19.3858Z" fill="#002E47" stroke="#002E47" stroke-miterlimit="10" stroke-linecap="round" stroke-linejoin="round"/>
</g>
<g opacity="0.3">
<path d="M182.462 192.905H175.857V208.223H182.462V192.905Z" stroke="#002E47" stroke-miterlimit="10" stroke-linecap="round" stroke-linejoin="round"/>
<path d="M191.302 185.073H184.697V208.223H191.302V185.073Z" stroke="#002E47" stroke-miterlimit="10" stroke-linecap="round" stroke-linejoin="round"/>
<path d="M200.138 175.203H193.532V208.223H200.138V175.203Z" stroke="#002E47" stroke-miterlimit="10" stroke-linecap="round" stroke-linejoin="round"/>
<path d="M208.978 168.393H202.373V208.223H208.978V168.393Z" stroke="#002E47" stroke-miterlimit="10" stroke-linecap="round" stroke-linejoin="round"/>
</g>
<g opacity="0.3">
<path d="M104.881 45.1439C110.386 33.0217 105.036 18.7255 92.932 13.2124C80.8277 7.69934 66.5525 13.057 61.0475 25.1792C55.5425 37.3013 60.8923 51.5975 72.9966 57.1106C85.101 62.6237 99.3762 57.266 104.881 45.1439Z" stroke="#002E47" stroke-miterlimit="10"/>
<path d="M96.5963 48.8171C104.126 41.2767 104.126 29.0512 96.5963 21.5108C89.067 13.9704 76.8595 13.9704 69.3302 21.5108C61.8008 29.0512 61.8008 41.2767 69.3302 48.8171C76.8595 56.3575 89.067 56.3575 96.5963 48.8171Z" stroke="#002E47" stroke-miterlimit="10"/>
<path d="M91.6919 43.9054C96.5126 39.0776 96.5126 31.2502 91.6919 26.4225C86.8712 21.5947 79.0553 21.5947 74.2346 26.4225C69.4139 31.2503 69.4139 39.0776 74.2346 43.9054C79.0553 48.7332 86.8712 48.7332 91.6919 43.9054Z" stroke="#002E47" stroke-miterlimit="10"/>
<path d="M87.8965 40.1045C90.6211 37.3759 90.6211 32.952 87.8965 30.2234C85.1719 27.4948 80.7545 27.4948 78.0299 30.2234C75.3053 32.952 75.3053 37.3759 78.0299 40.1045C80.7545 42.8331 85.1719 42.8331 87.8965 40.1045Z" stroke="#002E47" stroke-miterlimit="10"/>
<path d="M85.9112 35.1622C85.9112 33.5324 84.592 32.2112 82.9645 32.2112C81.337 32.2112 80.0178 33.5324 80.0178 35.1622C80.0178 36.7921 81.337 38.1132 82.9645 38.1132C84.592 38.1132 85.9112 36.7921 85.9112 35.1622Z" stroke="#002E47" stroke-miterlimit="10"/>
</g>
<path d="M82.3843 35.748H50.0027V34.5767H82.3843C82.7061 34.5767 82.9691 34.84 82.9691 35.1623C82.9646 35.4847 82.7061 35.748 82.3843 35.748Z" fill="#B2B2B2"/>
<path d="M47.124 31.0037L47.3053 31.2125L50.6917 34.5766H40.5643L36.9421 31.0037H47.124Z" fill="#B2B2B2"/>
<path d="M36.9421 39.1847L40.5643 35.7389H50.6917C49.3725 36.7286 48.1757 37.8999 47.0968 39.1847H36.9421Z" fill="#B2B2B2"/>
<path d="M320.13 211.827H332.919" stroke="#002E47" stroke-miterlimit="10" stroke-linecap="round" stroke-linejoin="round"/>
<path d="M108.718 211.827H314.935" stroke="#002E47" stroke-miterlimit="10" stroke-linecap="round" stroke-linejoin="round"/>
<path d="M10.0096 211.827H105.522" stroke="#002E47" stroke-miterlimit="10" stroke-linecap="round" stroke-linejoin="round"/>
<path d="M224.894 182.585L225.973 190.757C225.973 190.757 227.292 200.854 227.592 203.197C227.891 205.539 227.773 211.727 227.773 211.727H223.153L223.094 203.015L223.212 188.115L224.894 182.585Z" fill="#B3C7EB" stroke="#002E47" stroke-miterlimit="10" stroke-linecap="round" stroke-linejoin="round"/>
<path d="M227.796 209.212C227.791 210.642 227.773 211.727 227.773 211.727H223.153L223.126 208.068L227.796 209.212Z" fill="white" stroke="#002E47" stroke-miterlimit="10" stroke-linecap="round" stroke-linejoin="round"/>
<path d="M227.787 210.77C227.782 211.169 227.777 211.464 227.773 211.618C227.773 211.623 227.773 211.628 227.773 211.628C227.773 211.646 227.773 211.668 227.773 211.682C227.773 211.682 227.773 211.682 227.773 211.687C227.773 211.718 227.773 211.732 227.773 211.732H223.153L223.149 210.77H227.787Z" fill="white" stroke="#002E47" stroke-miterlimit="10" stroke-linecap="round" stroke-linejoin="round"/>
<path d="M218.053 207.283C218.053 207.283 216.313 209.026 215.474 209.385C214.635 209.743 213.316 209.866 213.135 210.288C212.953 210.71 213.076 211.909 213.076 211.909H224.536C224.536 211.909 224.835 210.888 224.717 210.166C224.6 209.444 224.418 209.085 224.418 209.085C224.418 209.085 218.774 207.224 218.053 207.283Z" fill="white" stroke="#002E47" stroke-miterlimit="10" stroke-linecap="round" stroke-linejoin="round"/>
<path d="M224.536 211.909H213.076C213.076 211.909 213.026 211.414 213.04 210.947H224.722C224.668 211.46 224.536 211.909 224.536 211.909Z" fill="white" stroke="#002E47" stroke-miterlimit="10" stroke-linecap="round" stroke-linejoin="round"/>
<path d="M227.836 170.99C227.836 170.99 227.777 174.654 227.238 175.675C226.698 176.697 225.619 178.44 225.619 178.44C225.619 178.44 224.241 189.795 224.482 190.88C224.722 191.96 225.502 194.784 225.443 196.768C225.384 198.752 224.364 207.101 224.364 207.101C224.364 207.101 224.663 207.641 224.604 207.823C224.545 208.005 224.423 209.085 224.423 209.085C224.423 209.085 222.564 208.786 221.245 208.422C219.926 208.064 218.067 207.283 218.067 207.283C218.067 207.283 217.827 206.561 218.008 206.143C218.189 205.721 218.67 204.522 218.67 204.522C218.67 204.522 218.489 197.431 218.489 196.232C218.489 195.029 217.527 189.804 217.527 188.723C217.527 187.643 216.39 177.605 216.566 176.465C216.748 175.326 216.866 173.582 216.866 173.582L216.566 170.877L227.836 170.99Z" fill="#B3C7EB" stroke="#002E47" stroke-miterlimit="10" stroke-linecap="round" stroke-linejoin="round"/>
<path d="M221.567 179.957C221.612 183.262 221.68 189.268 221.594 190.217" stroke="#002E47" stroke-miterlimit="10" stroke-linecap="round" stroke-linejoin="round"/>
<path d="M221.535 177.777C221.535 177.777 221.539 178.181 221.553 178.849" stroke="#002E47" stroke-miterlimit="10" stroke-linecap="round" stroke-linejoin="round"/>
<path d="M221.716 191.538C221.716 191.538 222.074 193.94 222.197 196.886C222.319 199.833 221.775 206.08 221.775 206.08C221.775 206.08 222.015 206.679 222.015 206.92C222.015 207.16 221.657 207.941 221.657 207.941" stroke="#002E47" stroke-miterlimit="10" stroke-linecap="round" stroke-linejoin="round"/>
<path d="M226.227 150.851C226.227 150.851 228.888 155.032 229.301 156.684C229.713 158.337 228.199 166.654 228.199 166.654C228.199 166.654 228.797 170.468 228.612 170.836C228.43 171.203 228.063 171.48 228.063 171.48H216.503C216.503 171.48 216 170.609 215.954 170.15C215.909 169.692 215.818 169.183 216.045 168.402C216.276 167.621 216.825 158.659 217.373 157.007C217.922 155.354 220.311 152.322 220.311 152.322L226.227 150.851Z" fill="#39B4EF" stroke="#002E47" stroke-miterlimit="10" stroke-linecap="round" stroke-linejoin="round"/>
<path d="M218.235 144.753C218.312 144.195 219.205 143.718 219.504 143.287C219.817 142.837 219.626 142.447 219.867 141.961C220.583 140.522 221.118 139.174 222.8 138.797C224.885 138.329 228.149 139.396 229.119 141.226C229.831 142.561 229.849 144.331 229.35 145.739C229.101 146.447 228.707 147.119 228.14 147.623C227.972 147.772 226.118 148.64 226.132 148.512L225.95 149.983L220.764 151.314L220.533 149.016C220.533 149.016 219.617 149.016 219.019 148.88C218.421 148.744 218.239 148.512 218.375 148.009C218.511 147.505 218.924 145.711 218.924 145.711C218.724 145.548 218.412 145.334 218.294 145.107C218.235 144.98 218.217 144.862 218.235 144.753Z" fill="white" stroke="#002E47" stroke-miterlimit="10" stroke-linecap="round" stroke-linejoin="round"/>
<path d="M220.284 143.128C220.193 143.41 220.238 143.677 220.393 143.727C220.547 143.777 220.742 143.591 220.837 143.31C220.928 143.028 220.882 142.76 220.728 142.71C220.574 142.66 220.379 142.847 220.284 143.128Z" fill="#002E47"/>
<path d="M221.521 142.415C221.521 142.415 221.345 141.612 220.452 141.698" stroke="#002E47" stroke-miterlimit="10" stroke-linecap="round" stroke-linejoin="round"/>
<path d="M219.155 146.569C219.155 146.569 219.735 146.706 220.27 146.165" stroke="#002E47" stroke-miterlimit="10" stroke-linecap="round" stroke-linejoin="round"/>
<path d="M226.032 146.778C226.485 146.102 226.259 144.821 225.506 144.517C224.754 144.218 223.852 145.344 223.625 145.271C223.398 145.194 224.151 143.913 224.151 143.913C224.151 143.913 223.249 143.387 223.022 142.71C222.795 142.034 224.377 141.353 224.826 141.28C225.28 141.203 222.795 138.797 222.795 138.797C224.881 138.329 228.145 139.396 229.115 141.226C229.826 142.561 229.845 144.331 229.346 145.739C229.097 146.447 228.702 147.119 228.136 147.623C227.99 147.75 226.594 148.417 226.222 148.512C226.164 148.512 226.132 148.512 226.132 148.512L224.826 147.614C224.831 147.604 225.583 147.455 226.032 146.778Z" fill="#002E47" stroke="#002E47" stroke-miterlimit="10" stroke-linecap="round" stroke-linejoin="round"/>
<path d="M219.93 152.98L218.149 155.454L217.555 168.538L216.553 170.867L215.279 166.654L217.922 154.987L219.735 151.917L219.93 152.98Z" fill="#002E47" stroke="#002E47" stroke-miterlimit="10" stroke-linecap="round" stroke-linejoin="round"/>
<path d="M226.136 149.425L219.758 151.541L219.989 154.11L226.64 151.032L226.136 149.425Z" fill="#39B4EF" stroke="#002E47" stroke-miterlimit="10" stroke-linecap="round" stroke-linejoin="round"/>
<path d="M220.538 149.012L221.775 148.921L220.769 150.437L220.538 149.012Z" fill="#002E47" stroke="#002E47" stroke-miterlimit="10" stroke-linecap="round" stroke-linejoin="round"/>
<path d="M203.334 154.342L209.526 149.793L212.509 161.787L211.593 162.795L203.334 154.342Z" fill="#DEDEDE" stroke="#002E47" stroke-miterlimit="10" stroke-linecap="round" stroke-linejoin="round"/>
<path d="M206.04 148.095L211.911 162.064L217.555 168.543L214.114 171.39L208.973 163.485C208.973 163.485 202.413 155.214 202.228 154.664C202.051 154.11 206.04 148.095 206.04 148.095Z" fill="white" stroke="#002E47" stroke-miterlimit="10" stroke-linecap="round" stroke-linejoin="round"/>
<path d="M216.861 162.668L213.475 161.388C213.475 161.388 212.496 159.958 212.346 159.654C212.196 159.354 210.542 158.75 210.315 158.523C210.088 158.296 209.336 157.47 209.263 157.847C209.191 158.224 209.037 158.6 209.413 158.827C209.789 159.054 210.542 160.03 210.542 160.03C210.542 160.03 208.737 159.881 208.588 160.33C208.438 160.784 208.887 161.688 208.887 161.688C208.887 161.688 209.49 161.765 209.712 161.987C209.939 162.214 210.388 163.19 210.913 163.417C211.439 163.644 213.321 163.717 213.321 163.717L215.429 165.374L216.861 162.668Z" fill="white" stroke="#002E47" stroke-miterlimit="10" stroke-linecap="round" stroke-linejoin="round"/>
<path d="M214.662 161.742L213.674 161.37C213.674 161.37 212.686 163.785 212.777 163.817C212.867 163.849 213.797 164.126 213.797 164.126L214.662 161.742Z" fill="#39B4EF" stroke="#002E47" stroke-miterlimit="10" stroke-linecap="round" stroke-linejoin="round"/>
<path d="M227.719 156.53C227.841 156.957 227.891 157.347 227.882 157.606C227.836 158.478 225.402 168.77 225.221 169.415C225.039 170.059 223.525 170.427 223.063 170.286C222.605 170.15 213.72 164.707 213.624 164.48C213.534 164.248 214.218 161.678 214.676 161.542C215.134 161.406 220.86 163.808 220.86 163.808C220.86 163.808 221.118 157.347 221.512 156.221" fill="#39B4EF"/>
<path d="M227.719 156.53C227.841 156.957 227.891 157.347 227.882 157.606C227.836 158.478 225.402 168.77 225.221 169.415C225.039 170.059 223.525 170.427 223.063 170.286C222.605 170.15 213.72 164.707 213.624 164.48C213.534 164.248 214.218 161.678 214.676 161.542C215.134 161.406 220.86 163.808 220.86 163.808C220.86 163.808 221.118 157.347 221.512 156.221" stroke="#002E47" stroke-miterlimit="10" stroke-linecap="round" stroke-linejoin="round"/>
<path d="M221.136 163.899L223.199 165.002" stroke="#002E47" stroke-miterlimit="10" stroke-linecap="round" stroke-linejoin="round"/>
<path d="M223.244 164.312L221.87 163.989" stroke="#002E47" stroke-miterlimit="10" stroke-linecap="round" stroke-linejoin="round"/>
<path d="M131.235 65.0582L133.148 73.6207L139.101 72.068L139.627 73.8023L130.945 79.105L129.064 74.8328L131.235 65.0582Z" fill="white" stroke="#002E47" stroke-miterlimit="10" stroke-linecap="round" stroke-linejoin="round"/>
<path d="M122.559 62.1844L116.656 64.9719L118.143 78.6056L127.917 78.7735L130.651 72.4947L131.235 65.0582L126.825 62.8699L122.559 62.1844Z" fill="white" stroke="#002E47" stroke-miterlimit="10" stroke-linecap="round" stroke-linejoin="round"/>
<path d="M120.922 63.1151L122.137 68.2771L128.402 68.6811L127.999 63.7235L126.829 62.8699C126.825 62.8699 121.829 61.5987 120.922 63.1151Z" fill="white" stroke="#002E47" stroke-miterlimit="10" stroke-linecap="round" stroke-linejoin="round"/>
<path d="M127.745 52.1283C129.055 52.3053 130.27 52.9545 130.773 54.0532C131.594 55.8374 130.909 57.6171 131.186 58.0303C131.458 58.4434 131.87 59.5375 131.87 59.5375L130.773 60.2231C130.773 60.2231 129.617 62.375 129.209 62.652C128.796 62.9244 127.214 62.1435 127.214 62.1435L126.117 64.2001L122.559 61.1856L124.064 58.3072C124.064 58.3072 122.695 55.7012 123.379 54.0578C124.023 52.5142 125.972 51.8922 127.745 52.1283Z" fill="white" stroke="#002E47" stroke-miterlimit="10" stroke-linecap="round" stroke-linejoin="round"/>
<path d="M130.564 57.9758C130.564 58.2799 130.447 58.5296 130.302 58.5296C130.156 58.5296 130.039 58.2799 130.039 57.9758C130.039 57.6716 130.156 57.4219 130.302 57.4219C130.447 57.4219 130.564 57.6716 130.564 57.9758Z" fill="#002E47"/>
<path d="M129.925 60.7406C129.925 60.7406 129.517 60.6816 129.227 60.273Z" fill="white"/>
<path d="M129.925 60.7406C129.925 60.7406 129.517 60.6816 129.227 60.273" stroke="#002E47" stroke-miterlimit="10" stroke-linecap="round" stroke-linejoin="round"/>
<path d="M129.866 56.7228C129.866 56.7228 130.506 56.3732 130.796 56.8408Z" fill="white"/>
<path d="M129.866 56.7228C129.866 56.7228 130.506 56.3732 130.796 56.8408" stroke="#002E47" stroke-miterlimit="10" stroke-linecap="round" stroke-linejoin="round"/>
<path d="M118.143 78.6056C118.143 78.6056 115.382 81.493 114.879 87.0182C114.376 92.5479 113.623 102.976 113.623 102.976L110.99 119.565L114.254 119.693L119.526 103.48L123.039 90.7864L127.178 103.603L129.916 119.842L133.053 119.466L132.827 99.5849L132.323 96.357C131.657 92.0758 130.487 87.8854 128.842 83.8765L128.688 83.4997L127.921 78.7736L118.143 78.6056Z" fill="#002E47" stroke="#002E47" stroke-miterlimit="10" stroke-linecap="round" stroke-linejoin="round"/>
<path d="M131.113 54.135C131.113 54.135 131.448 55.4833 129.44 56.8635C127.432 58.2437 127.432 58.2437 127.432 58.2437C127.432 58.2437 127.183 67.6687 126.929 68.1726C126.679 68.6766 120.655 63.274 121.031 62.139C121.407 61.0085 121.892 58.0394 121.892 57.1586C121.892 56.2778 122.037 53.8444 123.542 52.3371C125.047 50.8298 131.571 51.2067 131.952 52.4642C132.323 53.7218 131.113 54.135 131.113 54.135Z" fill="#002E47" stroke="#002E47" stroke-miterlimit="10" stroke-linecap="round" stroke-linejoin="round"/>
<path d="M116.656 64.9719L109.861 76.3401L108.156 86.6459L109.979 86.7866L113.374 76.9711L117.341 72.1179C117.341 72.1133 117.554 66.8015 116.656 64.9719Z" fill="white" stroke="#002E47" stroke-miterlimit="10" stroke-linecap="round" stroke-linejoin="round"/>
<path d="M111.706 89.0657C111.706 89.0657 110.962 88.0715 110.876 87.9489C110.795 87.8263 109.983 86.7866 109.983 86.7866C109.983 86.7866 108.396 86.1647 108.161 86.6459C107.925 87.1271 107.567 90.6002 107.526 90.8863C107.485 91.1768 107.816 91.3856 107.816 91.3856L108.106 89.9783C108.106 89.9783 108.229 91.4265 108.229 91.8442C108.229 92.2573 108.641 92.1756 108.641 92.1756L108.764 90.0191C108.764 90.0191 109.176 91.7579 109.262 92.1756C109.348 92.5933 109.761 92.3845 109.761 92.2573C109.761 92.1348 109.843 89.8103 109.843 89.8103C109.843 89.8103 110.214 91.2177 110.296 91.5491C110.378 91.8805 110.754 91.4174 110.754 91.4174L110.686 89.1701C110.686 89.1701 110.881 89.27 111.416 89.4789C111.951 89.6832 111.706 89.0657 111.706 89.0657Z" fill="white" stroke="#002E47" stroke-miterlimit="10" stroke-linecap="round" stroke-linejoin="round"/>
<path d="M110.681 89.1701L110.255 87.9443" stroke="#002E47" stroke-miterlimit="10" stroke-linecap="round" stroke-linejoin="round"/>
<path d="M139.101 72.068L139.808 70.0113L141.027 68.9717C141.027 68.9717 141.086 67.991 141.454 67.932C141.821 67.873 141.943 68.0546 141.88 68.6039C141.816 69.1533 141.454 69.7072 141.454 69.7072C141.454 69.7072 142.247 69.1578 142.433 69.462C142.614 69.7662 142.555 72.522 142.374 72.8897C142.192 73.2574 139.627 73.8068 139.627 73.8068L139.101 72.068Z" fill="white" stroke="#002E47" stroke-miterlimit="10" stroke-linecap="round" stroke-linejoin="round"/>
<path d="M141.458 69.7072L140.787 70.3791C140.787 70.3791 140.542 72.8852 140.787 72.8852C141.032 72.8852 142.374 72.8852 142.374 72.8852" fill="white"/>
<path d="M141.458 69.7072L140.787 70.3791C140.787 70.3791 140.542 72.8852 140.787 72.8852C141.032 72.8852 142.374 72.8852 142.374 72.8852" stroke="#002E47" stroke-miterlimit="10" stroke-linecap="round" stroke-linejoin="round"/>
<path d="M110.994 119.57L110.11 122.121C110.11 122.121 109.503 123.134 109.403 123.942C109.303 124.75 112.436 124.346 112.939 124.346C113.442 124.346 113.95 124.246 114.254 123.942C114.557 123.638 114.258 119.693 114.258 119.693L110.994 119.57Z" fill="white" stroke="#002E47" stroke-miterlimit="10" stroke-linecap="round" stroke-linejoin="round"/>
<path d="M133.053 119.534L134.159 121.772C134.159 121.772 136.684 122.784 136.789 123.393C136.888 124.001 136.789 124.305 136.181 124.405C135.574 124.505 129.109 124.405 129.109 124.405C129.109 124.405 129.109 122.889 129.109 122.38C129.109 121.876 129.921 119.911 129.921 119.911L133.053 119.534Z" fill="white" stroke="#002E47" stroke-miterlimit="10" stroke-linecap="round" stroke-linejoin="round"/>
<path d="M145.892 182.313L144.527 183.679L90.1 140.913L91.46 139.551L145.892 182.313Z" fill="white" stroke="#002E47" stroke-miterlimit="10" stroke-linecap="round" stroke-linejoin="round"/>
<path d="M90.1 182.313L91.46 183.679L145.892 140.913L144.527 139.551L90.1 182.313Z" fill="white" stroke="#002E47" stroke-miterlimit="10" stroke-linecap="round" stroke-linejoin="round"/>
<path d="M147.043 126.947H145.116V211.9H147.043V126.947Z" fill="white" stroke="#002E47" stroke-miterlimit="10" stroke-linecap="round" stroke-linejoin="round"/>
<path d="M92.2351 126.947H90.3085V211.9H92.2351V126.947Z" fill="white" stroke="#002E47" stroke-miterlimit="10" stroke-linecap="round" stroke-linejoin="round"/>
<path d="M91.191 138.947V140.877H145.088V138.947H91.191Z" fill="white" stroke="#002E47" stroke-miterlimit="10" stroke-linecap="round" stroke-linejoin="round"/>
<path d="M91.1892 182.529V184.458H145.086V182.529H91.1892Z" fill="white" stroke="#002E47" stroke-miterlimit="10" stroke-linecap="round" stroke-linejoin="round"/>
<path d="M137.433 182.313L136.068 183.679L81.6408 140.913L83.0053 139.551L137.433 182.313Z" fill="white" stroke="#002E47" stroke-miterlimit="10" stroke-linecap="round" stroke-linejoin="round"/>
<path d="M81.6408 182.313L83.0053 183.679L137.433 140.913L136.068 139.551L81.6408 182.313Z" fill="white" stroke="#002E47" stroke-miterlimit="10" stroke-linecap="round" stroke-linejoin="round"/>
<path d="M82.7336 138.945V140.874H136.63V138.945H82.7336Z" fill="white" stroke="#002E47" stroke-miterlimit="10" stroke-linecap="round" stroke-linejoin="round"/>
<path d="M82.7318 182.526V184.455H136.629V182.526H82.7318Z" fill="white" stroke="#002E47" stroke-miterlimit="10" stroke-linecap="round" stroke-linejoin="round"/>
<path d="M82.8693 126.947H80.9426V211.9H82.8693V126.947Z" fill="white" stroke="#002E47" stroke-miterlimit="10" stroke-linecap="round" stroke-linejoin="round"/>
<path d="M138.507 126.947H136.58V211.9H138.507V126.947Z" fill="white" stroke="#002E47" stroke-miterlimit="10" stroke-linecap="round" stroke-linejoin="round"/>
<path d="M150.307 124.537H77.6288V128.223H150.307V124.537Z" fill="#002E47" stroke="#002E47" stroke-miterlimit="10" stroke-linecap="round" stroke-linejoin="round"/>
<path d="M140.629 100.189V4.03149" stroke="#002E47" stroke-miterlimit="10" stroke-linecap="round" stroke-linejoin="round"/>
<path d="M197.214 61.5578V4.03149" stroke="#002E47" stroke-miterlimit="10" stroke-linecap="round" stroke-linejoin="round"/>
<path d="M179.488 146.392C179.484 145.943 179.516 145.502 179.493 145.053C179.257 140.086 178.024 135.401 175.993 131.183L187.68 120.9L176.963 108.679H174.162L173.917 111.353L173.921 111.357L165.789 118.512C161.604 115.221 156.686 112.86 151.336 111.684L150.616 96.5386H147.814L135.084 111.861C129.676 113.187 124.789 115.743 120.677 119.189L108.487 110.367H105.686L106.08 112.202L106.855 112.633L98.9764 123.552L110.876 132.159C108.741 136.949 107.621 142.27 107.794 147.85L93.015 151.977L96.9092 165.969L94.5745 167.644H97.3761L111.955 163.572C114.43 168.239 117.867 172.298 122.033 175.448L115.854 190.031L127.799 195.107L128.008 196.387H130.809L136.893 182.031C139.627 182.553 142.451 182.803 145.352 182.667C147.682 182.558 149.94 182.208 152.125 181.677L158.295 193.086L157.008 195.883H159.809L174.089 188.138L166.618 174.327C170.549 171.035 173.781 166.949 176.011 162.296L188.8 164.584L188.968 165.115H191.769L194.625 149.103L179.488 146.392ZM144.4 162.7C135.61 163.118 128.144 156.321 127.727 147.518C127.31 138.715 134.096 131.238 142.886 130.82C151.676 130.402 159.143 137.199 159.56 146.002C159.977 154.805 153.19 162.282 144.4 162.7Z" fill="#002E47" stroke="#002E47" stroke-miterlimit="10" stroke-linecap="round" stroke-linejoin="round"/>
<path d="M173.214 162.291L188.972 165.111L191.828 149.098L176.691 146.388C176.687 145.938 176.718 145.498 176.696 145.048C176.46 140.082 175.227 135.396 173.196 131.179L184.883 120.9L174.166 108.679L162.992 118.508C158.807 115.216 153.889 112.855 148.539 111.679L147.818 96.5341L131.594 97.3059L132.287 111.857C126.879 113.182 121.992 115.738 117.88 119.184L105.69 110.363L96.1792 123.547L108.079 132.155C105.944 136.945 104.824 142.265 104.997 147.845L90.2179 151.972L94.579 167.64L109.158 163.567C111.633 168.234 115.07 172.293 119.236 175.444L113.057 190.026L128.008 196.378L134.092 182.022C136.825 182.544 139.649 182.794 142.551 182.658C144.881 182.549 147.138 182.199 149.324 181.668L157.007 195.874L171.287 188.129L163.817 174.318C167.751 171.031 170.979 166.949 173.214 162.291ZM124.925 147.518C124.508 138.715 131.294 131.238 140.085 130.82C148.875 130.402 156.341 137.199 156.758 146.002C157.175 154.805 150.389 162.282 141.599 162.7C132.809 163.118 125.342 156.321 124.925 147.518Z" fill="#39B4EF" stroke="#002E47" stroke-miterlimit="10" stroke-linecap="round" stroke-linejoin="round"/>
<path d="M226 93.7737C227.832 90.0236 228.815 86.0829 229.029 82.1604L241.767 79.3319L238.821 66.007H236.019L236.146 66.6018L226.639 68.7129C224.894 64.5996 222.229 60.8723 218.77 57.8441L224.355 46.4169L212.115 40.4196H209.313L211.575 41.5274L206.752 51.3973C202.241 50.1806 197.617 50.0853 193.202 50.9524L187.798 39.5343H184.996L185.545 40.6012L175.485 45.3727L180.758 56.5184C177.258 59.1789 174.284 62.6338 172.158 66.8061L159.628 63.8596H156.826L156.813 64.8766L159.297 65.2579L156.509 77.1437L168.871 80.0538C168.808 84.4848 169.696 88.8614 171.487 92.8657L161.06 101.083L167.792 109.646L166.686 111.807H169.488L179.756 103.716C181.555 105.205 183.532 106.536 185.722 107.607C187.481 108.47 189.28 109.128 191.103 109.623L191.017 123.175L204.644 123.261L204.725 110.086C208.946 109.26 212.967 107.562 216.489 105.042L225.23 112.115L224.137 113.495H226.939L235.502 102.881L225.465 94.7589C225.633 94.4274 225.833 94.1142 226 93.7737ZM210.959 86.4053C207.713 93.0473 199.707 95.794 193.075 92.5433C186.442 89.2927 183.7 81.2751 186.946 74.633C190.191 67.991 198.197 65.2443 204.83 68.495C211.462 71.7456 214.205 79.7632 210.959 86.4053Z" fill="#002E47" stroke="#002E47" stroke-miterlimit="10" stroke-linecap="round" stroke-linejoin="round"/>
<path d="M213.679 105.042L224.123 113.495L232.687 102.881L222.65 94.7589C222.827 94.4275 223.026 94.1142 223.194 93.7737C225.026 90.0237 226.009 86.0829 226.222 82.1604L238.961 79.332L236.014 66.0071L223.833 68.7084C222.088 64.5951 219.422 60.8678 215.963 57.8396L221.549 46.4124L209.309 40.4151L203.946 51.3928C199.435 50.1761 194.811 50.0807 190.395 50.9479L184.992 39.5298L172.679 45.3728L177.951 56.5185C174.452 59.1789 171.478 62.6338 169.352 66.8061L156.822 63.8596L153.703 77.1437L166.065 80.0538C166.002 84.4849 166.89 88.8614 168.681 92.8657L158.254 101.083L166.682 111.807L176.95 103.716C178.749 105.205 180.726 106.536 182.915 107.607C184.674 108.47 186.474 109.128 188.297 109.623L188.21 123.175L201.838 123.261L201.919 110.086C206.135 109.255 210.161 107.562 213.679 105.042ZM184.144 74.6331C187.39 67.991 195.396 65.2443 202.028 68.495C208.66 71.7456 211.403 79.7633 208.157 86.4053C204.911 93.0473 196.905 95.794 190.273 92.5434C183.641 89.2927 180.898 81.2751 184.144 74.6331Z" fill="#39B4EF" stroke="#002E47" stroke-miterlimit="10" stroke-linecap="round" stroke-linejoin="round"/>
<path d="M254.125 119.729C254.125 119.729 250.498 122.348 250.267 122.407C250.031 122.466 248.39 122.775 248.214 123.129C248.041 123.483 247.869 124.015 248.046 124.369C248.227 124.723 259.629 124.278 259.629 124.278C259.629 124.278 259.86 123.688 259.737 122.925C259.615 122.162 259.601 120.687 259.601 120.687L254.125 119.729Z" fill="white" stroke="#002E47" stroke-miterlimit="10" stroke-linecap="round" stroke-linejoin="round"/>
<path d="M259.76 123.629L248.005 123.72C247.955 123.951 247.955 124.183 248.046 124.369C248.227 124.723 259.629 124.278 259.629 124.278C259.629 124.278 259.728 124.019 259.76 123.629Z" fill="white" stroke="#002E47" stroke-miterlimit="10" stroke-linecap="round" stroke-linejoin="round"/>
<path d="M282.694 119.034L282.005 121.041L279.376 123.356C279.376 123.356 279.204 124.006 279.498 124.119C279.793 124.233 284.848 124.078 284.848 124.078C284.848 124.078 285.668 123.661 285.958 123.361C286.248 123.066 288.751 119.393 288.687 118.984C288.624 118.571 287.087 117.291 287.087 117.291L282.694 119.034Z" fill="white" stroke="#002E47" stroke-miterlimit="10" stroke-linecap="round" stroke-linejoin="round"/>
<path d="M285.963 123.365C286.253 123.07 288.755 119.397 288.692 118.989C288.669 118.844 288.46 118.589 288.202 118.322C287.309 119.842 285.582 122.743 285.192 122.961C284.766 123.202 280.858 123.356 279.362 123.406C279.33 123.556 279.249 124.028 279.498 124.124C279.793 124.237 284.847 124.083 284.847 124.083C284.847 124.083 285.668 123.665 285.963 123.365Z" fill="white" stroke="#002E47" stroke-miterlimit="10" stroke-linecap="round" stroke-linejoin="round"/>
<path d="M263.595 90.0963C263.595 90.0963 263.137 91.5718 263.137 91.8079C263.137 92.044 263.205 92.8067 263.205 92.8067C263.205 92.8067 255.635 101.932 255.168 102.817C254.705 103.703 254.529 118.898 254.529 118.898C254.529 118.898 253.826 119.08 253.826 119.316C253.826 119.552 253.713 120.024 253.713 120.024C253.713 120.024 255.19 120.896 256.074 121.182C256.958 121.468 259.311 121.863 259.311 121.863C259.311 121.863 259.601 121.273 259.597 120.682C259.592 120.092 259.406 119.034 259.406 118.857C259.406 118.68 261.714 105.65 261.714 105.65L269.117 97.3512C269.117 97.3512 272.363 106.513 273.015 107.035C273.668 107.562 281.801 118.154 281.801 118.154C281.801 118.154 281.216 118.512 281.511 118.685C281.806 118.857 282.404 119.856 282.404 119.856C282.404 119.856 284.752 119.484 285.691 118.889C286.629 118.294 287.091 117.286 287.091 117.286C287.091 117.286 286.375 116.056 286.081 115.706C285.786 115.357 285.369 114.771 285.369 114.771L278.514 102.931C278.514 102.931 276.823 89.6378 276.343 88.4029C275.862 87.168 274.203 85.2385 274.203 85.2385L263.595 90.0963Z" fill="#B3C7EB" stroke="#002E47" stroke-miterlimit="10" stroke-linecap="round" stroke-linejoin="round"/>
<path d="M263.255 91.2767L274.969 86.0648L274.199 85.2476L263.536 89.6287L263.255 91.2767Z" fill="#002E47" stroke="#002E47" stroke-miterlimit="10" stroke-linecap="round" stroke-linejoin="round"/>
<path d="M265.835 90.6683L266.134 91.6081C266.134 91.6081 265.549 91.9668 265.667 92.2573C265.785 92.5524 266.555 93.2516 266.555 93.2516" stroke="#002E47" stroke-miterlimit="10" stroke-linecap="round" stroke-linejoin="round"/>
<path d="M266.773 90.2507L267.254 91.3085C267.254 91.3085 266.669 91.7852 266.968 92.1938C267.267 92.6024 267.68 93.011 267.68 93.011" stroke="#002E47" stroke-miterlimit="10" stroke-linecap="round" stroke-linejoin="round"/>
<path d="M267.04 94.768L266.628 94.2549" stroke="#002E47" stroke-miterlimit="10" stroke-linecap="round" stroke-linejoin="round"/>
<path d="M269.121 97.3558L267.82 95.7396" stroke="#002E47" stroke-miterlimit="10" stroke-linecap="round" stroke-linejoin="round"/>
<path d="M282.309 111.852L283.297 113.554" stroke="#002E47" stroke-miterlimit="10" stroke-linecap="round" stroke-linejoin="round"/>
<path d="M274.906 92.5388L277.218 102.708L277.046 103.535C277.046 103.535 277.753 103.648 277.753 103.825C277.753 104.002 277.753 104.002 277.753 104.002L281.647 110.717" stroke="#002E47" stroke-miterlimit="10" stroke-linecap="round" stroke-linejoin="round"/>
<path d="M258.178 115.647L257.82 118.462" stroke="#002E47" stroke-miterlimit="10" stroke-linecap="round" stroke-linejoin="round"/>
<path d="M267.118 96.9608L259.833 105.437C259.833 105.437 258.654 105.328 258.835 105.623C259.012 105.918 259.37 106.327 259.37 106.327L258.3 114.699" stroke="#002E47" stroke-miterlimit="10" stroke-linecap="round" stroke-linejoin="round"/>
<path d="M255.535 75.532C255.535 75.532 256.165 81.3296 256.668 81.9515C257.171 82.5735 261.999 87.168 261.999 87.168C261.999 87.168 262.979 90.0418 263.024 90.2507C263.069 90.4595 262.775 90.8182 263.482 90.6865C264.189 90.5548 273.954 86.033 274.285 85.697C274.616 85.3611 274.779 84.7754 274.774 84.4849C274.774 84.1943 274.475 83.7766 274.307 83.5723C274.14 83.3635 273.342 82.8278 273.342 82.8278C273.342 82.8278 268.741 75.1415 267.734 74.1927C266.728 73.2393 263.033 70.0567 261.365 69.7344C259.697 69.4121 257.489 69.5119 257.489 69.5119L255.535 75.532Z" fill="white" stroke="#002E47" stroke-miterlimit="10" stroke-linecap="round" stroke-linejoin="round"/>
<path d="M242.053 68.9263C242.053 68.9263 241.151 67.5916 240.91 67.4009C240.67 67.2102 237.959 65.6848 237.959 65.6848C237.959 65.6848 237.057 65.8754 237.723 66.3521C238.39 66.8288 239.532 68.3043 239.532 68.3043C239.532 68.3043 238.58 68.0183 238.249 68.0183C237.918 68.0183 237.773 68.781 238.154 68.8764C238.535 68.9717 239.011 69.1624 239.011 69.1624C239.011 69.1624 239.772 70.4018 240.153 70.5925C240.534 70.7832 241.246 70.8286 241.246 70.8286L256.564 77.1664L257.371 72.7808L242.053 68.9263Z" fill="white" stroke="#002E47" stroke-miterlimit="10" stroke-linecap="round" stroke-linejoin="round"/>
<path d="M253.391 67.4099C253.391 67.4099 252.547 66.2613 251.219 65.2216C249.891 64.1774 245.466 65.662 244.832 69.4574C244.832 69.4574 244.265 71.2553 245.172 72.245C246.078 73.2347 247.488 74.0928 247.488 74.0928C247.488 74.0928 249.002 75.8361 249.17 75.7499C249.338 75.6636 249.914 74.7829 249.914 74.7829C249.914 74.7829 252.339 76.0995 252.588 75.8906C252.837 75.6818 253.658 74.17 253.658 74.17L255 75.0371L256.75 69.6799L254.619 69.2395L253.391 67.4099Z" fill="white" stroke="#002E47" stroke-miterlimit="10" stroke-linecap="round" stroke-linejoin="round"/>
<path d="M256.405 69.2668L254.497 75.6228L256.256 76.9031L257.987 69.294L256.405 69.2668Z" fill="white" stroke="#002E47" stroke-miterlimit="10" stroke-linecap="round" stroke-linejoin="round"/>
<path d="M256.092 80.1174L255.748 91.7443L256.641 93.4831L257.833 91.3993L256.541 79.4182L256.092 80.1174Z" fill="#39B4EF" stroke="#002E47" stroke-miterlimit="10" stroke-linecap="round" stroke-linejoin="round"/>
<path d="M260.544 71.7683C259.968 71.6049 259.411 71.5368 258.921 71.5822C257.049 71.7638 254.411 75.9588 254.247 76.0405C254.08 76.1267 250.566 79.4909 250.566 79.4909L240.86 78.1062L238.154 74.7874C238.154 74.7874 237.193 74.3788 236.898 74.1291C236.604 73.8794 236.518 73.2983 236.146 73.5934C235.774 73.8885 235.566 74.2653 235.697 74.5559C235.824 74.8465 236.327 75.3005 236.327 75.3005L236.581 75.6727C236.581 75.6727 233.616 75.5048 233.39 75.7C233.163 75.8952 233.099 76.2493 233.263 76.3447C233.376 76.4128 235.103 76.6534 235.715 76.7896C235.733 76.8213 232.605 76.8804 232.555 77.0529C232.492 77.2799 232.46 77.5387 232.587 77.6022C232.714 77.6658 235.393 78.1198 235.393 78.1198C235.393 78.1198 233.394 78.4104 233.263 78.5375C233.136 78.6646 233.199 78.8916 233.326 78.9915C233.453 79.0868 235.81 78.9915 235.81 78.9915C235.81 78.9915 234.133 79.3456 234.264 79.5408C234.391 79.736 234.459 79.7996 234.586 79.8314C234.713 79.8631 239.455 80.5396 239.455 80.5396L239.46 80.4987L240.063 80.6486C240.063 80.6486 251.487 84.4894 251.949 84.5666C252.407 84.6483 253.323 84.4304 253.613 84.3033C253.903 84.1762 258.831 79.9222 258.831 79.9222L258.88 79.6906" fill="white"/>
<path d="M260.544 71.7683C259.968 71.6049 259.411 71.5368 258.921 71.5822C257.049 71.7638 254.411 75.9588 254.247 76.0405C254.08 76.1267 250.566 79.4909 250.566 79.4909L240.86 78.1062L238.154 74.7874C238.154 74.7874 237.193 74.3788 236.898 74.1291C236.604 73.8794 236.518 73.2983 236.146 73.5934C235.774 73.8885 235.566 74.2653 235.697 74.5559C235.824 74.8465 236.327 75.3005 236.327 75.3005L236.581 75.6727C236.581 75.6727 233.616 75.5048 233.39 75.7C233.163 75.8952 233.099 76.2493 233.263 76.3447C233.376 76.4128 235.103 76.6534 235.715 76.7896C235.733 76.8213 232.605 76.8804 232.555 77.0529C232.492 77.2799 232.46 77.5387 232.587 77.6022C232.714 77.6658 235.393 78.1198 235.393 78.1198C235.393 78.1198 233.394 78.4104 233.263 78.5375C233.136 78.6646 233.199 78.8916 233.326 78.9915C233.453 79.0868 235.81 78.9915 235.81 78.9915C235.81 78.9915 234.133 79.3456 234.264 79.5408C234.391 79.736 234.459 79.7996 234.586 79.8314C234.713 79.8631 239.455 80.5396 239.455 80.5396L239.46 80.4987L240.063 80.6486C240.063 80.6486 251.487 84.4894 251.949 84.5666C252.407 84.6483 253.323 84.4304 253.613 84.3033C253.903 84.1762 258.831 79.9222 258.831 79.9222L258.88 79.6906" stroke="#002E47" stroke-miterlimit="10" stroke-linecap="round" stroke-linejoin="round"/>
<path d="M259.207 79.332L262.049 77.3889" stroke="#002E47" stroke-miterlimit="10" stroke-linecap="round" stroke-linejoin="round"/>
<path d="M259.565 79.4682L262.349 78.3604" stroke="#002E47" stroke-miterlimit="10" stroke-linecap="round" stroke-linejoin="round"/>
<path d="M247.574 70.1158C247.574 70.1158 247.842 71.446 248.209 71.4505C248.576 71.4596 249.75 70.7922 249.75 70.7922L250.684 71.1509C250.684 71.1509 251.174 70.883 250.643 70.37C250.109 69.857 249.8 69.8979 249.855 69.4711C249.909 69.0443 250.961 67.5779 251.65 68.4269C252.339 69.2759 252.547 70.5607 252.547 70.5607L254.615 69.2395C254.615 69.2395 252.983 65.9526 252.23 65.3624C251.478 64.7722 249.515 64.5407 248.123 65.1309C246.731 65.7211 245.426 66.1932 244.773 68.1045C244.115 70.0159 244.066 71.7502 244.492 71.8047C244.918 71.8591 245.611 69.4166 245.793 69.1851C245.97 68.949 247.574 70.1158 247.574 70.1158Z" fill="#002E47" stroke="#002E47" stroke-miterlimit="10" stroke-linecap="round" stroke-linejoin="round"/>
<path d="M248.545 72.9306C248.767 73.1076 248.88 73.3391 248.789 73.4526C248.703 73.5661 248.449 73.5117 248.227 73.3391C248.005 73.1621 247.892 72.9306 247.982 72.8171C248.069 72.7036 248.322 72.758 248.545 72.9306Z" fill="#002E47"/>
<path d="M247.089 73.0032C247.089 73.0032 246.885 72.1906 247.651 72.0453" stroke="#002E47" stroke-miterlimit="10" stroke-linecap="round" stroke-linejoin="round"/>
<path d="M250.893 74.5831C250.893 74.5831 251.577 74.1836 251.124 73.4572" stroke="#002E47" stroke-miterlimit="10" stroke-linecap="round" stroke-linejoin="round"/>
<path d="M250.122 79.0232L253.187 84.8844L255.286 83.6313L251.917 78.2832L250.122 79.0232Z" fill="white" stroke="#002E47" stroke-miterlimit="10" stroke-linecap="round" stroke-linejoin="round"/>
<path d="M260.662 83.645C260.662 83.645 264.733 85.5835 269.348 85.5336" stroke="#002E47" stroke-miterlimit="10" stroke-linecap="round" stroke-linejoin="round"/>
<path d="M263.636 86.0285C263.636 86.0285 267.358 87.1726 269.244 86.478" stroke="#002E47" stroke-miterlimit="10" stroke-linecap="round" stroke-linejoin="round"/>
<path d="M305.524 182.313L304.164 183.679L249.732 140.913L251.097 139.551L305.524 182.313Z" fill="white" stroke="#002E47" stroke-miterlimit="10" stroke-linecap="round" stroke-linejoin="round"/>
<path d="M249.732 182.313L251.097 183.679L305.524 140.913L304.164 139.551L249.732 182.313Z" fill="white" stroke="#002E47" stroke-miterlimit="10" stroke-linecap="round" stroke-linejoin="round"/>
<path d="M306.68 126.947H304.753V211.9H306.68V126.947Z" fill="white" stroke="#002E47" stroke-miterlimit="10" stroke-linecap="round" stroke-linejoin="round"/>
<path d="M251.872 126.947H249.945V211.9H251.872V126.947Z" fill="white" stroke="#002E47" stroke-miterlimit="10" stroke-linecap="round" stroke-linejoin="round"/>
<path d="M250.827 138.946V140.876H304.724V138.946H250.827Z" fill="white" stroke="#002E47" stroke-miterlimit="10" stroke-linecap="round" stroke-linejoin="round"/>
<path d="M250.825 182.528V184.457H304.722V182.528H250.825Z" fill="white" stroke="#002E47" stroke-miterlimit="10" stroke-linecap="round" stroke-linejoin="round"/>
<path d="M297.069 182.313L295.705 183.679L241.277 140.913L242.642 139.551L297.069 182.313Z" fill="white" stroke="#002E47" stroke-miterlimit="10" stroke-linecap="round" stroke-linejoin="round"/>
<path d="M241.277 182.313L242.642 183.679L297.069 140.913L295.705 139.551L241.277 182.313Z" fill="white" stroke="#002E47" stroke-miterlimit="10" stroke-linecap="round" stroke-linejoin="round"/>
<path d="M242.369 138.948V140.878H296.266V138.948H242.369Z" fill="white" stroke="#002E47" stroke-miterlimit="10" stroke-linecap="round" stroke-linejoin="round"/>
<path d="M242.368 182.53V184.459H296.264V182.53H242.368Z" fill="white" stroke="#002E47" stroke-miterlimit="10" stroke-linecap="round" stroke-linejoin="round"/>
<path d="M242.506 126.947H240.579V211.9H242.506V126.947Z" fill="white" stroke="#002E47" stroke-miterlimit="10" stroke-linecap="round" stroke-linejoin="round"/>
<path d="M298.139 126.947H296.212V211.9H298.139V126.947Z" fill="white" stroke="#002E47" stroke-miterlimit="10" stroke-linecap="round" stroke-linejoin="round"/>
<path d="M309.944 124.537H237.266V128.223H309.944V124.537Z" fill="#002E47" stroke="#002E47" stroke-miterlimit="10" stroke-linecap="round" stroke-linejoin="round"/>
<path d="M75.9832 157.52L85.2584 161.42L95.0187 159.654L95.2045 161.324L85.5349 165.043L74.9632 160.398L75.9832 157.52Z" fill="white" stroke="#002E47" stroke-miterlimit="10" stroke-linecap="round" stroke-linejoin="round"/>
<path d="M84.057 147.586C84.057 147.586 85.9746 148.417 85.816 149.452C85.6618 150.487 84.7824 150.751 84.3653 151.318C83.9528 151.89 84.0026 151.577 84.0026 151.577L83.64 148.363C83.64 148.363 83.5901 147.119 84.057 147.586Z" fill="#002E47" stroke="#002E47" stroke-miterlimit="10" stroke-linecap="round" stroke-linejoin="round"/>
<path d="M76.237 145.198C76.237 145.198 75.3031 144.004 73.3901 144.109C71.4725 144.213 70.6429 145.353 70.6429 146.701C70.6429 148.049 70.8514 147.636 67.9999 148.463C65.153 149.293 65.153 150.383 65.0986 150.95C65.0487 151.523 64.3733 151.523 63.4938 152.508C62.6143 153.493 62.5599 156.53 65.7695 157.67C68.9791 158.809 71.6402 156.966 72.2114 154.582C72.7826 152.194 72.1978 151.572 72.9186 150.901C73.6439 150.224 72.9186 149.189 73.2314 147.945C73.5442 146.701 75.2533 146.183 75.8199 146.079C76.3911 145.979 76.3413 145.666 76.237 145.198Z" fill="#002E47" stroke="#002E47" stroke-miterlimit="10" stroke-linecap="round" stroke-linejoin="round"/>
<path d="M74.4645 153.493C74.4645 153.493 68.8295 156.625 67.4469 158.469C66.0642 160.312 65.4069 167.576 65.4069 167.576L72.2114 171.934C72.2114 171.934 76.8127 167.226 77.1935 165.842C77.5789 164.457 76.6994 156.707 76.6994 156.707L74.4645 153.493Z" fill="white" stroke="#002E47" stroke-miterlimit="10" stroke-linecap="round" stroke-linejoin="round"/>
<path d="M82.8104 146.687C79.696 144.05 75.0992 145.888 74.7365 147.645C74.3738 149.402 74.4781 150.91 74.4781 150.91L74.741 153.23L74.4645 153.493L73.2994 154.042L76.2914 159.763L78.0458 155.572C78.0458 155.572 80.1856 156.816 80.5301 156.816C80.8746 156.816 82.8104 154.378 82.8104 154.378C82.8104 154.378 83.4133 154.805 83.6082 154.76C83.7986 154.714 83.8349 152.267 83.8349 152.267C83.8349 152.267 84.388 150.601 84.4424 149.18C84.4968 147.754 82.8104 146.687 82.8104 146.687Z" fill="white" stroke="#002E47" stroke-miterlimit="10" stroke-linecap="round" stroke-linejoin="round"/>
<path d="M82.1802 152.054C82.1213 152.349 82.1893 152.612 82.3389 152.644C82.4885 152.676 82.6562 152.458 82.7151 152.163C82.7741 151.868 82.7061 151.604 82.5565 151.572C82.4069 151.541 82.2391 151.759 82.1802 152.054Z" fill="#002E47"/>
<path d="M83.4088 151.114C83.4088 151.114 83.0144 150.315 82.2981 150.723" stroke="#002E47" stroke-miterlimit="10" stroke-linecap="round" stroke-linejoin="round"/>
<path d="M81.4141 155.005C81.4141 155.005 80.589 155.155 80.4575 154.251" stroke="#002E47" stroke-miterlimit="10" stroke-linecap="round" stroke-linejoin="round"/>
<path d="M84.5738 148.676C84.5738 148.676 85.7117 147.691 83.2274 146.134C80.7432 144.576 77.6333 144.318 75.8743 145.512C74.1154 146.706 73.8525 148.676 74.2152 150.074C74.5778 151.473 74.1653 152.408 74.8906 152.875C75.616 153.343 77.6378 152.358 77.8962 151.423C78.1546 150.487 78.209 150.024 78.9842 150.124C79.7594 150.229 80.0269 151.423 80.0269 151.423C80.0269 151.423 81.8312 149.915 82.9192 149.711C84.0026 149.507 84.5738 148.676 84.5738 148.676Z" fill="#002E47" stroke="#002E47" stroke-miterlimit="10" stroke-linecap="round" stroke-linejoin="round"/>
<path d="M65.4069 167.576C65.4069 167.576 58.625 172.856 57.9904 176.039C57.3557 179.217 54.74 194.08 54.74 194.08C54.74 194.08 49.5493 207.024 49.5493 207.387C49.5493 207.75 51.7253 208.204 51.7253 208.204C51.7253 208.204 59.5317 196.832 59.8037 196.464C60.0757 196.101 64.8946 183.915 64.8946 183.915L69.5821 194.307L73.2314 208.64L75.5888 208.186L75.829 191.851L71.1914 174.722L72.2114 171.939L65.4069 167.576Z" fill="#002E47" stroke="#002E47" stroke-miterlimit="10" stroke-linecap="round" stroke-linejoin="round"/>
<path d="M52.5912 207.315C52.5912 207.315 53.516 209.857 53.7336 210.075C53.9512 210.293 55.2568 211.31 55.1842 211.673C55.1117 212.036 51.7026 211.891 50.9048 211.818C50.1069 211.746 48.3661 209.784 48.1485 209.203C47.9309 208.622 49.2365 206.733 49.8893 206.298C50.5466 205.862 52.5912 207.315 52.5912 207.315Z" fill="white" stroke="#002E47" stroke-miterlimit="10" stroke-linecap="round" stroke-linejoin="round"/>
<path d="M75.684 207.387L77.5562 209.085C77.5562 209.085 80.7704 210.334 80.7704 210.606C80.7704 210.878 80.1357 211.351 78.2272 211.623C76.3232 211.895 73.4989 211.541 72.7736 211.269C72.0482 210.997 73.2269 208.636 73.2269 208.636L75.684 207.387Z" fill="white" stroke="#002E47" stroke-miterlimit="10" stroke-linecap="round" stroke-linejoin="round"/>
<path d="M70.321 161.179C70.5522 162.187 70.7744 161.987 71.6402 162.55C73.3765 163.672 84.0616 167.167 84.0616 167.167L95.0549 162.596L97.24 162.146C97.24 162.146 97.7432 162.26 97.9698 162.314C98.192 162.369 98.532 162.26 98.7541 162.092C98.9762 161.924 97.8021 161.42 97.8021 161.42C97.8021 161.42 99.2029 161.474 99.6517 161.365C100.101 161.256 100.155 160.802 99.9328 160.802C99.7106 160.802 97.861 160.58 97.861 160.58C97.861 160.58 100.214 159.908 100.327 159.74C100.441 159.572 100.105 159.177 99.765 159.177C99.425 159.177 97.2989 159.513 97.2989 159.513L97.9698 159.009C97.9698 159.009 99.3162 158.619 99.7061 158.278C100.096 157.942 99.6517 157.715 99.6517 157.715L98.3053 157.883L96.2336 158.668L96.4557 158.105C96.4557 158.105 97.0178 157.656 97.0722 157.098C97.1266 156.535 96.5101 157.098 96.5101 157.098L94.6605 158.836L94.1573 160.63L84.3245 163.326L74.3466 157.325L74.0112 157.211" fill="white"/>
<path d="M70.321 161.179C70.5522 162.187 70.7744 161.987 71.6402 162.55C73.3765 163.672 84.0616 167.167 84.0616 167.167L95.0549 162.596L97.24 162.146C97.24 162.146 97.7432 162.26 97.9698 162.314C98.192 162.369 98.532 162.26 98.7541 162.092C98.9762 161.924 97.8021 161.42 97.8021 161.42C97.8021 161.42 99.2029 161.474 99.6517 161.365C100.101 161.256 100.155 160.802 99.9328 160.802C99.7106 160.802 97.861 160.58 97.861 160.58C97.861 160.58 100.214 159.908 100.327 159.74C100.441 159.572 100.105 159.177 99.765 159.177C99.425 159.177 97.2989 159.513 97.2989 159.513L97.9698 159.009C97.9698 159.009 99.3162 158.619 99.7061 158.278C100.096 157.942 99.6517 157.715 99.6517 157.715L98.3053 157.883L96.2336 158.668L96.4557 158.105C96.4557 158.105 97.0178 157.656 97.0722 157.098C97.1266 156.535 96.5101 157.098 96.5101 157.098L94.6605 158.836L94.1573 160.63L84.3245 163.326L74.3466 157.325L74.0112 157.211" stroke="#002E47" stroke-miterlimit="10" stroke-linecap="round" stroke-linejoin="round"/>
<path d="M69.5867 162.482L73.1136 164.67L77.2344 158.914C77.2344 158.914 73.6168 156.48 73.2224 156.426C72.8325 156.371 71.4861 156.09 70.7019 157.325" fill="white"/>
<path d="M69.5867 162.482L73.1136 164.67L77.2344 158.914C77.2344 158.914 73.6168 156.48 73.2224 156.426C72.8325 156.371 71.4861 156.09 70.7019 157.325" stroke="#002E47" stroke-miterlimit="10" stroke-linecap="round" stroke-linejoin="round"/>
</svg>
