<svg width="235" height="232" viewBox="0 0 235 232" fill="none" xmlns="http://www.w3.org/2000/svg">
<g clip-path="url(#clip0_344_5255)">
<path d="M189.002 11.6876C165.649 13.6831 103.946 19.4058 69.365 16.9326C26.1293 13.8423 23.3237 9.58758 16.923 23.1181C10.5173 36.6487 22.127 72.9955 22.9264 92.7116C23.7259 112.428 29.7343 155.731 25.3298 181.638C20.9253 207.54 18.1247 214.89 20.1258 222.623C22.127 230.356 27.7332 231.515 34.5361 231.515C41.344 231.515 93.786 225.718 122.209 225.33C150.633 224.942 196.272 233.451 208.284 230.356C220.295 227.261 220.693 222.623 216.69 200.971C212.688 179.319 207.082 101.992 207.082 80.7287C207.082 67.1384 211.084 44.3868 211.084 26.6015C211.084 17.6243 209.083 9.97573 189.002 11.6876Z" fill="#39B4EF"/>
<path opacity="0.7" d="M189.002 11.6876C165.649 13.6831 103.946 19.4058 69.365 16.9326C26.1293 13.8423 23.3237 9.58758 16.923 23.1181C10.5173 36.6487 22.127 72.9955 22.9264 92.7116C23.7259 112.428 29.7343 155.731 25.3298 181.638C20.9253 207.54 18.1247 214.89 20.1258 222.623C22.127 230.356 27.7332 231.515 34.5361 231.515C41.344 231.515 93.786 225.718 122.209 225.33C150.633 224.942 196.272 233.451 208.284 230.356C220.295 227.261 220.693 222.623 216.69 200.971C212.688 179.319 207.082 101.992 207.082 80.7287C207.082 67.1384 211.084 44.3868 211.084 26.6015C211.084 17.6243 209.083 9.97573 189.002 11.6876Z" fill="white"/>
<g opacity="0.3">
<path d="M29.7442 39.6593V38.3456C28.4383 38.3207 27.47 37.8977 26.8394 37.0717C26.2038 36.2456 25.8562 35.1807 25.7966 33.8769L27.6934 33.3643C27.7332 33.9117 27.8176 34.4342 27.9517 34.9418C28.0857 35.4494 28.3042 35.8624 28.6071 36.1859C28.91 36.5093 29.3371 36.6686 29.8783 36.6686C30.4345 36.6686 30.8566 36.5143 31.1396 36.2008C31.4226 35.8923 31.5666 35.4444 31.5666 34.8572C31.5666 34.1605 31.4077 33.5982 31.0899 33.1752C30.7721 32.7522 30.3749 32.3243 29.8932 31.8913L27.3111 29.6072C26.9834 29.3037 26.7053 28.9852 26.4868 28.6567C26.2633 28.3283 26.0995 27.9601 25.9952 27.562C25.886 27.1639 25.8363 26.711 25.8363 26.2034C25.8363 25.0987 26.1442 24.2428 26.7649 23.6257C27.3856 23.0086 28.2248 22.6852 29.2924 22.6454V21.3714H29.9578V22.6454C30.4891 22.6852 30.9559 22.7947 31.3531 22.9788C31.7504 23.1629 32.088 23.4217 32.3611 23.7501C32.6342 24.0785 32.8478 24.4816 33.0067 24.9594C33.1656 25.4371 33.2698 25.9894 33.3195 26.6264L31.4971 27.1191C31.4574 26.6115 31.3829 26.1387 31.2687 25.7008C31.1545 25.2629 30.9559 24.9096 30.6728 24.6458C30.3898 24.3771 29.9776 24.2676 29.4463 24.3025C28.915 24.3423 28.4979 24.4916 28.2049 24.7603C27.907 25.029 27.758 25.4371 27.758 25.9994C27.758 26.4672 27.8374 26.8503 27.9963 27.1489C28.1552 27.4475 28.4085 27.761 28.766 28.0894L31.368 30.3736C31.7454 30.7169 32.1029 31.1001 32.4406 31.5231C32.7782 31.9461 33.0464 32.4188 33.255 32.9413C33.4635 33.4638 33.5678 34.0461 33.5678 34.693C33.5678 35.3897 33.4337 36.0018 33.1705 36.5292C32.9024 37.0567 32.5349 37.4698 32.0582 37.7733C31.5815 38.0769 31.0303 38.261 30.3947 38.3257V39.6593H29.7442Z" stroke="#002E47"/>
<path d="M29.6747 43.8544C37.0245 43.8544 42.9826 37.8834 42.9826 30.5179C42.9826 23.1523 37.0245 17.1814 29.6747 17.1814C22.325 17.1814 16.3668 23.1523 16.3668 30.5179C16.3668 37.8834 22.325 43.8544 29.6747 43.8544Z" stroke="#002E47"/>
<path d="M29.6747 42.4311C36.2401 42.4311 41.5624 37.0974 41.5624 30.5179C41.5624 23.9384 36.2401 18.6046 29.6747 18.6046C23.1093 18.6046 17.787 23.9384 17.787 30.5179C17.787 37.0974 23.1093 42.4311 29.6747 42.4311Z" stroke="#002E47"/>
</g>
<g opacity="0.3">
<path d="M206.953 108.183V107.218C205.994 107.198 205.284 106.884 204.818 106.282C204.351 105.675 204.098 104.894 204.048 103.933L205.443 103.555C205.473 103.958 205.533 104.341 205.632 104.714C205.731 105.088 205.89 105.391 206.114 105.63C206.337 105.869 206.65 105.988 207.047 105.988C207.454 105.988 207.767 105.874 207.976 105.645C208.184 105.416 208.289 105.088 208.289 104.66C208.289 104.147 208.174 103.734 207.941 103.421C207.708 103.107 207.415 102.794 207.062 102.475L205.165 100.798C204.922 100.574 204.718 100.34 204.559 100.096C204.396 99.8526 204.276 99.5839 204.197 99.2903C204.117 98.9967 204.078 98.6633 204.078 98.2901C204.078 97.4789 204.306 96.8469 204.763 96.3941C205.22 95.9412 205.841 95.7024 206.62 95.6725V94.737H207.107V95.6725C207.499 95.7024 207.842 95.782 208.135 95.9164C208.428 96.0507 208.676 96.2398 208.875 96.4837C209.073 96.7275 209.232 97.0211 209.351 97.3744C209.465 97.7228 209.545 98.1308 209.58 98.5986L208.239 98.9619C208.209 98.5886 208.154 98.2403 208.07 97.9218C207.986 97.5983 207.842 97.3396 207.628 97.1455C207.42 96.9514 207.117 96.8668 206.729 96.8917C206.337 96.9216 206.034 97.0311 205.816 97.2251C205.597 97.4192 205.488 97.7228 205.488 98.1358C205.488 98.4792 205.548 98.7628 205.662 98.9818C205.776 99.2007 205.965 99.4296 206.228 99.6735L208.14 101.35C208.418 101.604 208.681 101.883 208.929 102.196C209.177 102.51 209.376 102.858 209.53 103.236C209.684 103.62 209.758 104.048 209.758 104.525C209.758 105.038 209.659 105.491 209.465 105.874C209.272 106.262 208.999 106.566 208.651 106.79C208.303 107.014 207.896 107.148 207.43 107.198V108.178H206.953V108.183Z" stroke="#002E47"/>
<path d="M206.903 111.268C212.309 111.268 216.69 106.877 216.69 101.46C216.69 96.043 212.309 91.6517 206.903 91.6517C201.498 91.6517 197.116 96.043 197.116 101.46C197.116 106.877 201.498 111.268 206.903 111.268Z" stroke="#002E47"/>
<path d="M206.903 110.218C211.73 110.218 215.643 106.297 215.643 101.46C215.643 96.6229 211.73 92.7017 206.903 92.7017C202.076 92.7017 198.164 96.6229 198.164 101.46C198.164 106.297 202.076 110.218 206.903 110.218Z" stroke="#002E47"/>
</g>
<g opacity="0.3">
<path d="M89.8682 24.2677V23.3023C88.9098 23.2823 88.1997 22.9688 87.7329 22.3667C87.2662 21.7596 87.0129 20.9783 86.9633 20.0179L88.3586 19.6397C88.3884 20.0428 88.448 20.426 88.5473 20.7992C88.6466 21.1724 88.8055 21.476 89.029 21.7148C89.2524 21.9537 89.5652 22.0731 89.9625 22.0731C90.3697 22.0731 90.6825 21.9587 90.8911 21.7297C91.0996 21.5008 91.2039 21.1724 91.2039 20.7444C91.2039 20.2319 91.0897 19.8188 90.8563 19.5053C90.6229 19.1918 90.33 18.8783 89.9774 18.5598L88.0805 16.8828C87.8372 16.6589 87.6336 16.425 87.4747 16.1812C87.3109 15.9373 87.1917 15.6686 87.1122 15.375C87.0328 15.0814 86.993 14.748 86.993 14.3748C86.993 13.5636 87.2215 12.9316 87.6783 12.4788C88.1351 12.026 88.7558 11.7871 89.5355 11.7572V10.8217H90.0221V11.7572C90.4144 11.7871 90.757 11.8667 91.05 12.0011C91.3429 12.1354 91.5912 12.3245 91.7899 12.5684C91.9885 12.8122 92.1474 13.1058 92.2666 13.4591C92.3808 13.8075 92.4602 14.2155 92.495 14.6833L91.1543 15.0466C91.1245 14.6734 91.0698 14.325 90.9854 14.0065C90.901 13.6831 90.757 13.4243 90.5435 13.2302C90.3349 13.0362 90.032 12.9516 89.6447 12.9764C89.2524 13.0063 88.9495 13.1158 88.731 13.3148C88.5125 13.5089 88.4033 13.8125 88.4033 14.2255C88.4033 14.5689 88.4629 14.8525 88.5771 15.0715C88.6913 15.2904 88.88 15.5193 89.1432 15.7632L91.0549 17.4402C91.333 17.694 91.5962 17.9726 91.8445 18.2861C92.0928 18.5997 92.2914 18.948 92.4453 19.3262C92.5992 19.7094 92.6737 20.1373 92.6737 20.6151C92.6737 21.1276 92.5744 21.5805 92.3808 21.9636C92.1871 22.3518 91.914 22.6553 91.5664 22.8793C91.2188 23.1032 90.8116 23.2376 90.3449 23.2873V24.2677H89.8682Z" stroke="#002E47"/>
<path d="M89.8235 27.353C95.2288 27.353 99.6107 22.9616 99.6107 17.5447C99.6107 12.1277 95.2288 7.7364 89.8235 7.7364C84.4181 7.7364 80.0362 12.1277 80.0362 17.5447C80.0362 22.9616 84.4181 27.353 89.8235 27.353Z" stroke="#002E47"/>
<path d="M91.9037 26.0494C96.5919 24.8987 99.4616 20.1571 98.3133 15.4589C97.165 10.7607 92.4336 7.88483 87.7455 9.03557C83.0573 10.1863 80.1876 14.9278 81.3359 19.6261C82.4842 24.3243 87.2155 27.2001 91.9037 26.0494Z" stroke="#002E47"/>
</g>
<g opacity="0.3">
<path d="M28.7313 93.7417V92.7763C27.7729 92.7564 27.0628 92.4429 26.596 91.8408C26.1293 91.2337 25.876 90.4524 25.8264 89.492L27.2217 89.1138C27.2515 89.5168 27.3111 89.9 27.4104 90.2732C27.5097 90.6465 27.6686 90.95 27.8921 91.1889C28.1155 91.4277 28.4283 91.5472 28.8256 91.5472C29.2328 91.5472 29.5456 91.4327 29.7542 91.2038C29.9627 90.9749 30.067 90.6465 30.067 90.2185C30.067 89.7059 29.9528 89.2929 29.7194 88.9794C29.486 88.6659 29.1931 88.3524 28.8405 88.0339L26.9436 86.3569C26.7003 86.133 26.4967 85.8991 26.3378 85.6552C26.1739 85.4114 26.0548 85.1427 25.9753 84.8491C25.8959 84.5555 25.8562 84.2221 25.8562 83.8488C25.8562 83.0377 26.0846 82.4057 26.5414 81.9529C26.9982 81.5 27.614 81.2612 28.3986 81.2313V80.2958H28.8852V81.2313C29.2775 81.2612 29.6201 81.3408 29.9131 81.4751C30.206 81.6095 30.4543 81.7986 30.653 82.0425C30.8516 82.2863 31.0105 82.5799 31.1297 82.9332C31.2439 83.2815 31.3233 83.6896 31.3581 84.1574L30.0174 84.5206C29.9876 84.1474 29.9329 83.7991 29.8485 83.4806C29.7641 83.1571 29.6201 82.8984 29.4066 82.7043C29.198 82.5102 28.8951 82.4256 28.5078 82.4505C28.1155 82.4804 27.8126 82.5898 27.5941 82.7889C27.3756 82.983 27.2664 83.2865 27.2664 83.6996C27.2664 84.0429 27.326 84.3266 27.4402 84.5455C27.5544 84.7645 27.7431 84.9934 28.0063 85.2372L29.918 86.9142C30.1961 87.168 30.4593 87.4467 30.7076 87.7602C30.9559 88.0737 31.1545 88.4221 31.3084 88.8003C31.4624 89.1834 31.5368 89.6114 31.5368 90.0891C31.5368 90.6017 31.4375 91.0545 31.2439 91.4377C31.0502 91.8258 30.7771 92.1294 30.4295 92.3533C30.0819 92.5773 29.6747 92.7116 29.208 92.7614V93.7417H28.7313Z" stroke="#002E47"/>
<path d="M28.6816 96.827C34.087 96.827 38.4689 92.4357 38.4689 87.0187C38.4689 81.6018 34.087 77.2105 28.6816 77.2105C23.2763 77.2105 18.8943 81.6018 18.8943 87.0187C18.8943 92.4357 23.2763 96.827 28.6816 96.827Z" stroke="#002E47"/>
<path d="M28.6816 95.777C33.5083 95.777 37.4211 91.8558 37.4211 87.0187C37.4211 82.1817 33.5083 78.2605 28.6816 78.2605C23.8549 78.2605 19.9421 82.1817 19.9421 87.0187C19.9421 91.8558 23.8549 95.777 28.6816 95.777Z" stroke="#002E47"/>
</g>
<g opacity="0.3">
<path d="M160.753 222.185V220.757C159.332 220.727 158.275 220.264 157.589 219.368C156.899 218.468 156.522 217.308 156.452 215.885L158.523 215.323C158.563 215.915 158.657 216.492 158.801 217.044C158.945 217.597 159.183 218.05 159.516 218.403C159.849 218.756 160.311 218.93 160.902 218.93C161.507 218.93 161.969 218.761 162.277 218.423C162.585 218.084 162.744 217.597 162.744 216.96C162.744 216.198 162.57 215.586 162.227 215.124C161.885 214.661 161.448 214.193 160.926 213.725L158.111 211.237C157.753 210.904 157.45 210.56 157.212 210.202C156.969 209.844 156.79 209.446 156.676 209.008C156.557 208.575 156.502 208.077 156.502 207.525C156.502 206.32 156.84 205.385 157.515 204.713C158.19 204.041 159.109 203.688 160.266 203.643V202.255H160.991V203.643C161.572 203.683 162.078 203.807 162.51 204.006C162.942 204.206 163.31 204.489 163.608 204.847C163.906 205.206 164.139 205.644 164.313 206.166C164.487 206.684 164.601 207.291 164.656 207.983L162.669 208.52C162.63 207.968 162.545 207.45 162.421 206.977C162.297 206.5 162.078 206.116 161.771 205.828C161.458 205.539 161.016 205.415 160.435 205.455C159.854 205.494 159.402 205.664 159.079 205.952C158.756 206.241 158.593 206.694 158.593 207.301C158.593 207.813 158.677 208.231 158.851 208.555C159.025 208.878 159.303 209.222 159.69 209.58L162.525 212.068C162.937 212.441 163.33 212.859 163.692 213.322C164.06 213.785 164.353 214.302 164.581 214.865C164.81 215.432 164.924 216.069 164.924 216.771C164.924 217.532 164.78 218.199 164.492 218.771C164.204 219.343 163.797 219.796 163.28 220.13C162.764 220.463 162.158 220.662 161.468 220.732V222.185H160.753Z" stroke="#002E47"/>
<path d="M164.069 226.362C171.86 224.494 176.665 216.65 174.801 208.842C172.937 201.034 165.109 196.219 157.318 198.087C149.527 199.955 144.722 207.799 146.586 215.607C148.45 223.415 156.278 228.23 164.069 226.362Z" stroke="#002E47"/>
<path d="M160.678 225.201C167.83 225.201 173.628 219.39 173.628 212.222C173.628 205.055 167.83 199.244 160.678 199.244C153.526 199.244 147.728 205.055 147.728 212.222C147.728 219.39 153.526 225.201 160.678 225.201Z" stroke="#002E47"/>
</g>
<g opacity="0.3">
<path d="M60.7794 212.337V211.371C59.821 211.351 59.111 211.038 58.6442 210.436C58.1774 209.829 57.9242 209.047 57.8745 208.087L59.2699 207.709C59.2996 208.112 59.3592 208.495 59.4586 208.868C59.5579 209.242 59.7168 209.545 59.9402 209.784C60.1637 210.023 60.4765 210.142 60.8738 210.142C61.2809 210.142 61.5938 210.028 61.8023 209.799C62.0109 209.57 62.1152 209.242 62.1152 208.814C62.1152 208.301 62.001 207.888 61.7676 207.574C61.5342 207.261 61.2412 206.947 60.8887 206.629L58.9918 204.952C58.7485 204.728 58.5449 204.494 58.386 204.25C58.2221 204.006 58.1029 203.738 58.0235 203.444C57.944 203.151 57.9043 202.817 57.9043 202.444C57.9043 201.633 58.1327 201.001 58.5896 200.548C59.0464 200.095 59.6621 199.856 60.4467 199.826V198.891H60.9333V199.826C61.3256 199.856 61.6683 199.936 61.9612 200.07C62.2542 200.205 62.5025 200.394 62.7011 200.638C62.8997 200.881 63.0586 201.175 63.1778 201.528C63.292 201.877 63.3715 202.285 63.4062 202.752L62.0655 203.116C62.0357 202.742 61.9811 202.394 61.8967 202.076C61.8123 201.752 61.6683 201.493 61.4547 201.299C61.2462 201.105 60.9433 201.021 60.556 201.046C60.1637 201.075 59.8608 201.185 59.6423 201.379C59.4238 201.573 59.3145 201.877 59.3145 202.29C59.3145 202.633 59.3741 202.917 59.4883 203.136C59.6026 203.355 59.7912 203.583 60.0544 203.827L61.9662 205.504C62.2443 205.758 62.5074 206.037 62.7557 206.35C63.004 206.664 63.2026 207.012 63.3566 207.39C63.5105 207.774 63.585 208.201 63.585 208.679C63.585 209.192 63.4857 209.645 63.292 210.028C63.0984 210.416 62.8253 210.72 62.4777 210.943C62.1301 211.167 61.7229 211.302 61.2561 211.351V212.332H60.7794V212.337Z" stroke="#002E47"/>
<path d="M69.8003 209.316C71.844 204.301 69.4441 198.575 64.4398 196.527C59.4355 194.479 53.7219 196.884 51.6782 201.899C49.6344 206.914 52.0344 212.64 57.0387 214.688C62.0429 216.736 67.7565 214.331 69.8003 209.316Z" stroke="#002E47"/>
<path d="M62.8269 214.119C67.5117 212.955 70.3677 208.205 69.2059 203.51C68.0441 198.816 63.3045 195.954 58.6197 197.118C53.9349 198.282 51.079 203.032 52.2407 207.727C53.4025 212.422 58.1421 215.284 62.8269 214.119Z" stroke="#002E47"/>
</g>
<g opacity="0.3">
<path d="M203.815 33.1603V32.1949C202.856 32.175 202.146 31.8615 201.679 31.2593C201.213 30.6522 200.959 29.871 200.91 28.9105L202.305 28.5323C202.335 28.9354 202.394 29.3186 202.494 29.6918C202.593 30.065 202.752 30.3686 202.975 30.6075C203.199 30.8463 203.512 30.9657 203.909 30.9657C204.316 30.9657 204.629 30.8513 204.837 30.6224C205.046 30.3935 205.15 30.065 205.15 29.6371C205.15 29.1245 205.036 28.7115 204.803 28.398C204.569 28.0845 204.276 27.771 203.924 27.4525L202.027 25.7755C201.784 25.5515 201.58 25.3176 201.421 25.0738C201.257 24.83 201.138 24.5613 201.059 24.2677C200.979 23.9741 200.939 23.6406 200.939 23.2674C200.939 22.4563 201.168 21.8243 201.625 21.3714C202.082 20.9186 202.702 20.6797 203.482 20.6499V19.7143H203.969V20.6499C204.361 20.6797 204.703 20.7594 204.996 20.8937C205.289 21.0281 205.538 21.2172 205.736 21.461C205.935 21.7049 206.094 21.9985 206.213 22.3518C206.327 22.7001 206.407 23.1082 206.441 23.5759L205.101 23.9392C205.071 23.566 205.016 23.2177 204.932 22.8992C204.847 22.5757 204.703 22.3169 204.49 22.1229C204.281 21.9288 203.978 21.8442 203.591 21.8691C203.199 21.8989 202.896 22.0084 202.677 22.2025C202.459 22.3966 202.35 22.7001 202.35 23.1132C202.35 23.4565 202.409 23.7402 202.523 23.9591C202.638 24.1781 202.826 24.407 203.09 24.6508L205.001 26.3278C205.279 26.5816 205.543 26.8603 205.791 27.1738C206.039 27.4873 206.238 27.8357 206.392 28.2139C206.546 28.597 206.62 29.025 206.62 29.5027C206.62 30.0153 206.521 30.4681 206.327 30.8513C206.134 31.2394 205.86 31.543 205.513 31.7669C205.165 31.9909 204.758 32.1252 204.291 32.175V33.1553H203.815V33.1603Z" stroke="#002E47"/>
<path d="M203.77 36.2456C209.175 36.2456 213.557 31.8543 213.557 26.4373C213.557 21.0204 209.175 16.629 203.77 16.629C198.365 16.629 193.983 21.0204 193.983 26.4373C193.983 31.8543 198.365 36.2456 203.77 36.2456Z" stroke="#002E47"/>
<path d="M211.86 29.7408C213.687 25.2636 211.547 20.1495 207.079 18.3182C202.612 16.4869 197.509 18.6318 195.681 23.109C193.854 27.5862 195.994 32.7002 200.462 34.5315C204.929 36.3628 210.033 34.2179 211.86 29.7408Z" stroke="#002E47"/>
</g>
<path d="M122.423 5.83545C122.095 5.80062 121.762 5.76578 121.435 5.73592" stroke="#002E47" stroke-width="2" stroke-linejoin="round"/>
<path d="M119.448 5.57171C117.591 5.44232 115.714 5.37763 113.822 5.37763C69.9063 5.37763 34.3027 41.0577 34.3027 85.068C34.3027 129.078 69.9063 164.758 113.822 164.758C157.738 164.758 193.342 129.078 193.342 85.068C193.342 63.7794 185.01 44.4366 171.439 30.1447" stroke="#002E47" stroke-width="2" stroke-linejoin="round" stroke-dasharray="4.01 4.01"/>
<path d="M170.748 29.4231C170.515 29.1842 170.287 28.9503 170.053 28.7165" stroke="#002E47" stroke-width="2" stroke-linejoin="round"/>
<path d="M105.669 58.3901L111.796 59.6591L113.882 61.8337L116.603 62.2517L117.467 64.8394L116.837 66.5911L114.979 67.442L110.431 66.6955L110.307 66.1382L112.457 64.6354L110.972 61.8934L106.905 61.3361L104.74 59.4749L105.669 58.3901Z" fill="#39B4EF"/>
<path d="M155.027 115.03L150.171 114.209L144.311 113.463L139.996 114.423L135.775 114.483L131.54 116.449L129.067 117.145L127.537 117.484L124.985 119.808L122.448 121.544L118.162 120.012L118.272 115.891L115.689 115.443L112.904 116.06L112.209 114.896L111.93 112.323L110.649 111.144L108.762 111.855L108.514 113.373L106.18 114.04L103.534 111.995L101.955 108.835L103.176 104.466L107.273 103.849L108.604 104.575L110.272 104.202L112.079 102.48L114.011 102.634L117.477 106.401L118.421 106.043L117.432 102.898L116.226 101.41L115.918 98.6981L120.576 95.3192L120.129 90.0045L121.956 87.6955L123.053 84.0827L124.384 83.4955L127.12 80.6889L127.011 79.5394L124.816 80.1763L124.151 79.1512L122.621 79.4896L120.377 80.5744L121.087 78.5142L125.651 76.0361L126.485 74.5332L129.112 77.1707L130.641 78.146L132.468 77.1557L131.232 75.5285L127.845 74.0854L123.669 71.0647L119.662 69.4673L116.196 69.6515L114.155 68.3477L111.806 68.283L111.652 68.905L112.268 73.0105L113.132 74.2794L112.869 79.0218L109.592 77.4095L109.577 75.3643L106.344 74.6178L104.75 73.3638L104.676 69.7211L108.062 65.8944L107.6 62.4856L106.101 62.9683L104.849 61.9283L103.971 59.9278L102.968 60.0074L102.903 62.3612L101.433 62.9832L99.6554 58.2558L98.3892 57.8079L96.254 57.4048L94.2727 59.0171L97.6443 61.0475L98.7269 63.2967L92.8823 60.6444L88.5672 57.6536L87.4549 53.9513L83.5866 53.6427L81.2031 56.0761C81.2031 56.0761 79.9965 57.2207 79.3609 57.6586C78.7253 58.0915 76.1431 58.9624 76.1431 58.9624L76.1133 61.4555L72.9403 62.3065L73.561 63.7794L78.8991 63.4709L82.1913 65.8098L83.2738 70.6915L82.7027 75.3543L84.0037 79.8977L81.6202 87.601L83.0404 97.9716L85.5928 103.55L88.3934 107.611L90.5435 107.427L89.3517 105.351L87.867 103.923L86.4915 101.007L87.6833 100.45L90.7471 105.038L93.1306 109.193L93.935 112.821L97.2918 115.438L102.799 117.872L110.471 118.215L113.162 119.813L115.327 121.674L118.172 122.649L121.42 122.803L124.449 121.982C124.449 121.982 124.618 123.41 124.772 124.107C124.926 124.804 123.5 127.61 123.5 127.61L122.587 130.74L124.379 133.562L127.721 134.134L133.024 137.638L135.16 138.041L135.622 140.131L136.078 141.051C146.759 136.797 155.712 129.666 162.222 120.783L162.068 119.758L164.313 112.084L162.227 111.233L155.027 115.03Z" fill="#39B4EF"/>
<path d="M157.296 56.7081L155.176 54.3991L152.549 51.7617L151.065 47.701L153.662 47.5617L153.493 46.1335L151.651 46.3972L153.026 45.3572L154.481 44.0086L154.173 42.6152L152.008 40.7541L150.985 37.833C137.31 27.0544 119.096 22.2771 100.783 26.3527C92.4602 28.2039 84.9273 31.7072 78.4472 36.4397L82.1615 38.0022L80.7711 40.9482L78.2485 42.0927L78.8047 45.9195L77.7818 46.5863L76.7291 48.4325L77.4243 50.9107L79.8524 50.6619L79.4055 53.2496L81.7742 52.7221L84.6691 46.661L84.5946 44.3371L88.4281 43.1925L89.0339 41.3015L92.9766 39.9828L92.8674 37.5195L95.7574 36.7283C95.7574 36.7283 97.5996 35.1458 98.0167 35.0563C98.4338 34.9617 100.539 35.2255 100.539 35.2255L102.997 36.4347L105.922 35.7828L108.087 33.6928L111.349 33.2598C111.349 33.2598 112.308 33.633 113.003 33.4788C113.698 33.3245 115.57 31.8814 115.57 31.8814L120.163 33.4937L122.11 34.3795L122.572 36.4695L124.722 36.2854L125.139 34.8771L127.135 35.3101L127.244 36.4546L123.317 38.4999L126.361 41.0427L131.992 42.7198L134.698 45.0437L137.821 44.6406L138.209 43.093L139.261 42.5655L135.026 40.5799L132.736 40.7989L134.42 39.8385L132.225 37.838L134.559 37.1712L137.99 38.1615L139.43 41.3562L141.362 42.8292L143.512 46.5963L147.067 48.1489L148.085 52.752L151.75 54.1304L151.948 55.6979L151.934 57.6039L153.324 59.9278L153.88 61.1221L156.338 61.0126L156.924 58.3951L157.296 56.7081Z" fill="#39B4EF"/>
<path d="M155.991 42.252L156.169 43.0532L155.966 45.4418L156.815 47.3029L158.468 47.5219L159.054 50.1742L157.227 49.8508L158.478 57.4745L157.49 60.9131L159.471 64.5707L161.651 65.8396L163.32 73.3737L166.428 78.8278L169.368 82.8586L172.755 82.983L173.251 79.9474L173.623 79.4896C173.39 77.0313 173.003 74.5581 172.457 72.0799C169.85 60.311 163.97 50.1195 155.991 42.252Z" fill="#39B4EF"/>
<path d="M123.644 48.537L113.559 46.5316L109.552 47.5716L109.165 50.438L107.094 48.9998L104.184 50.3783L104.929 55.0411L107.834 56.3001L109.055 53.2446L111.608 54.8719L116.757 57.6785L118.49 61.5401L123.128 65.337L128.759 63.0579L128.158 60.9977L126.38 58.9027L124.866 53.384L125.73 50.7067L123.644 48.537Z" fill="#39B4EF"/>
<path d="M131.838 49.9304L129.628 49.8359L128.158 51.7766L130.03 55.6034L131.838 55.2003V49.9304Z" fill="#39B4EF"/>
<path d="M145.374 49.7015L140.081 48.2434L138.74 46.7854L137.717 47.4522L139.311 50.025L140.95 53.4636L143.224 53.8368L143.517 53.1849L141.799 51.3735L145.727 51.9657L145.374 49.7015Z" fill="#39B4EF"/>
<path d="M115.888 109.104L115.451 109.785L119.905 110.114L122.011 111.691L124.717 111.383L125.353 109.631L122.026 109.785L115.888 109.104Z" fill="#39B4EF"/>
<path d="M128.863 108.999L126.122 110.487L126.788 111.507L130.408 110.701L130.855 109.432L129.633 109.85L128.863 108.999Z" fill="#39B4EF"/>
<path d="M156.265 127.604C179.706 104.112 179.706 66.0257 156.265 42.5345C132.824 19.0433 94.819 19.0433 71.3782 42.5345C47.9374 66.0257 47.9374 104.112 71.3782 127.604C94.819 151.095 132.824 151.095 156.265 127.604Z" stroke="#002E47" stroke-width="2" stroke-miterlimit="10" stroke-linecap="round" stroke-linejoin="round"/>
<path d="M113.822 145.221C134.602 145.221 151.447 118.29 151.447 85.068C151.447 51.8462 134.602 24.9146 113.822 24.9146C93.0429 24.9146 76.1978 51.8462 76.1978 85.068C76.1978 118.29 93.0429 145.221 113.822 145.221Z" stroke="#002E47" stroke-miterlimit="10" stroke-linecap="round" stroke-linejoin="round"/>
<path d="M113.822 145.221C121.389 145.221 127.523 118.29 127.523 85.068C127.523 51.8462 121.389 24.9146 113.822 24.9146C106.256 24.9146 100.122 51.8462 100.122 85.068C100.122 118.29 106.256 145.221 113.822 145.221Z" stroke="#002E47" stroke-miterlimit="10" stroke-linecap="round" stroke-linejoin="round"/>
<path d="M80.8903 35.1508H147.067" stroke="#002E47" stroke-miterlimit="10" stroke-linecap="round" stroke-linejoin="round"/>
<path d="M58.6889 61.3859H168.792" stroke="#002E47" stroke-miterlimit="10" stroke-linecap="round" stroke-linejoin="round"/>
<path d="M80.8903 134.926H147.067" stroke="#002E47" stroke-miterlimit="10" stroke-linecap="round" stroke-linejoin="round"/>
<path d="M58.7634 108.691H169.219" stroke="#002E47" stroke-miterlimit="10" stroke-linecap="round" stroke-linejoin="round"/>
<path d="M173.847 85.068H53.8027" stroke="#002E47" stroke-miterlimit="10" stroke-linecap="round" stroke-linejoin="round"/>
<path d="M143.81 156.587C143.81 156.587 133.695 153.089 127.239 149.068C120.784 145.047 116.424 143.475 114.155 143.823C111.886 144.172 106.831 144.172 103.166 144.873C99.5015 145.575 97.2371 146.272 96.537 148.018C95.8368 149.765 98.8063 154.662 102.466 155.712C106.131 156.762 113.455 161.653 113.455 161.653C113.455 161.653 81.5308 192.248 82.7524 195.393C83.9739 198.538 97.9274 211.302 99.8491 211.476C101.766 211.65 130.552 202.738 132.295 202.384C134.037 202.031 139.097 200.638 143.283 197.841C147.469 195.044 149.565 192.77 149.565 192.77L164.045 186.475L147.648 154.836L143.81 156.587Z" fill="white" stroke="#002E47" stroke-miterlimit="10" stroke-linecap="round" stroke-linejoin="round"/>
<path d="M129.121 185.997C129.121 185.997 136.485 192.581 137.28 195.373C138.074 198.164 137.081 200.956 137.081 200.956L132.299 202.389L129.121 185.997Z" fill="#002E47" stroke="#002E47" stroke-miterlimit="10" stroke-linecap="round" stroke-linejoin="round"/>
<path d="M152.008 165.654L158.771 188.391L164.045 186.48L152.008 165.654Z" fill="#002E47" stroke="#002E47" stroke-miterlimit="10" stroke-linecap="round" stroke-linejoin="round"/>
<path d="M102.466 155.717C102.466 155.717 115.377 157.991 117.815 159.036C120.258 160.086 133.516 174.243 138.223 178.612C142.931 182.982 145.374 189.799 145.548 194.168C145.722 198.538 143.979 204.305 141.709 205.181C139.44 206.057 137.871 204.833 137.176 203.081C136.476 201.334 136.128 198.01 136.128 198.01L133.337 192.243C133.337 192.243 133.685 195.741 132.99 199.06C132.29 202.379 131.073 209.376 128.282 211.123C125.492 212.869 122.175 211.824 121.827 210.948C121.479 210.073 121.127 208.5 121.127 208.5C121.127 208.5 120.253 211.645 117.636 212.521C115.019 213.397 111.354 212.347 111.354 212.347C111.354 212.347 108.39 215.845 105.947 215.143C103.504 214.442 101.061 211.824 101.061 211.824C101.061 211.824 92.8624 206.753 85.3593 201.508C77.8563 196.263 64.4292 179.832 64.4292 179.832L57.9739 175.811L77.6874 148.192L86.0595 153.437L102.466 155.717Z" fill="white" stroke="#002E47" stroke-miterlimit="10" stroke-linecap="round" stroke-linejoin="round"/>
<path d="M80.1603 155.881L66.6091 182.011L64.4391 179.837L80.1603 155.881Z" fill="#002E47" stroke="#002E47" stroke-miterlimit="10" stroke-linecap="round" stroke-linejoin="round"/>
<path d="M106.304 144.699C106.304 144.699 98.9701 144.505 97.2322 145.221C94.2677 146.446 94.0939 150.467 94.0939 151.163C94.0939 151.865 91.9984 157.458 91.6508 159.553C91.3032 161.653 93.7463 162.698 99.3277 160.777C104.909 158.857 106.478 156.408 106.478 151.163" fill="white"/>
<path d="M106.304 144.699C106.304 144.699 98.9701 144.505 97.2322 145.221C94.2677 146.446 94.0939 150.467 94.0939 151.163C94.0939 151.865 91.9984 157.458 91.6508 159.553C91.3032 161.653 93.7463 162.698 99.3277 160.777C104.909 158.857 106.478 156.408 106.478 151.163" stroke="#002E47" stroke-miterlimit="10" stroke-linecap="round" stroke-linejoin="round"/>
<path d="M92.1771 158.339C92.1771 158.339 93.0511 157.289 94.4464 157.463C95.8418 157.637 98.6325 157.289 98.8062 155.189C98.98 153.089 98.2849 152.044 96.8895 152.044C95.4942 152.044 94.2726 152.92 94.2726 152.92L92.1771 158.339Z" stroke="#002E47" stroke-miterlimit="10" stroke-linecap="round" stroke-linejoin="round"/>
<path d="M124.101 178.299C124.916 179.712 125.725 181.912 127.239 183.683C132.781 190.162 133.347 192.247 133.347 192.247" stroke="#002E47" stroke-miterlimit="10" stroke-linecap="round" stroke-linejoin="round"/>
<path d="M122.527 172.671L122.875 176.169C122.875 176.169 123.108 176.582 123.505 177.274" stroke="#002E47" stroke-miterlimit="10" stroke-linecap="round" stroke-linejoin="round"/>
<path d="M113.107 182.111L113.281 186.306C113.281 186.306 120.432 200.289 121.479 201.862C122.527 203.434 121.827 207.629 121.132 208.505" stroke="#002E47" stroke-miterlimit="10" stroke-linecap="round" stroke-linejoin="round"/>
<path d="M105.331 198.946C106.27 200.513 107.288 202.086 108.226 203.265C111.017 206.763 111.364 212.357 111.364 212.357" stroke="#002E47" stroke-miterlimit="10" stroke-linecap="round" stroke-linejoin="round"/>
<path d="M101.945 190.501V192.775C101.945 192.775 102.992 194.87 104.398 197.343" stroke="#002E47" stroke-miterlimit="10" stroke-linecap="round" stroke-linejoin="round"/>
<path d="M73.7596 192.556C73.7596 192.556 69.5537 191.377 68.3768 189.859C67.2 188.341 66.6935 183.534 66.6091 182.016C66.5246 180.498 65.601 178.981 67.4483 178.304C69.3004 177.627 71.7386 179.652 72.6671 181.678C73.5907 183.703 73.6752 186.485 73.6752 186.908C73.6752 187.331 75.1053 189.605 75.1053 189.605C75.1053 189.605 76.451 192.218 73.7596 192.556Z" fill="white" stroke="#002E47" stroke-miterlimit="10" stroke-linecap="round" stroke-linejoin="round"/>
<path d="M67.0957 185.226C67.0957 185.226 68.5953 186.729 69.6778 186.644C70.7603 186.56 70.0105 182.892 70.0105 182.892C70.0105 182.892 68.8436 182.643 67.9299 181.807C67.0162 180.971 66.5147 180.389 66.5147 180.389L67.0957 185.226Z" fill="white" stroke="#002E47" stroke-miterlimit="10" stroke-linecap="round" stroke-linejoin="round"/>
<path d="M81.5854 200.817C81.5854 200.817 77.1263 201.742 76.0339 200.224C74.9414 198.707 72.7516 192.636 72.836 190.526C72.9204 188.416 78.472 183.275 81.2478 181.165C84.0236 179.055 85.7913 178.384 87.4747 179.394C89.158 180.404 90.5037 181.673 89.9972 183.439C89.4907 185.211 85.4537 192.8 84.7783 194.148C84.103 195.497 83.4327 200.22 83.4327 200.22L81.5854 200.817Z" fill="white" stroke="#002E47" stroke-miterlimit="10" stroke-linecap="round" stroke-linejoin="round"/>
<path d="M79.9021 182.603C79.9021 182.603 78.0499 184.375 78.9785 185.724C79.9021 187.072 82.2608 188.336 83.2688 188.003C84.2768 187.664 87.5591 184.206 88.15 183.111C88.7409 182.016 85.121 179.399 85.121 179.399C85.121 179.399 82.2608 180.16 79.9021 182.603Z" fill="white" stroke="#002E47" stroke-miterlimit="10" stroke-linecap="round" stroke-linejoin="round"/>
<path d="M88.875 207.306C88.875 207.306 84.0037 208.321 82.807 206.659C81.6103 205.002 79.2218 198.368 79.3162 196.064C79.4105 193.76 85.4736 188.142 88.5076 185.838C91.5416 183.534 93.4732 182.798 95.3105 183.902C97.1478 185.007 98.6176 186.39 98.0664 188.326C97.5152 190.262 93.1008 198.552 92.3659 200.025C91.631 201.498 90.896 206.659 90.896 206.659L88.875 207.306Z" fill="white" stroke="#002E47" stroke-miterlimit="10" stroke-linecap="round" stroke-linejoin="round"/>
<path d="M87.0378 187.411C87.0378 187.411 85.0167 189.346 86.0248 190.819C87.0378 192.292 89.61 193.676 90.7123 193.307C91.8147 192.939 95.3999 189.162 96.0454 187.963C96.691 186.764 92.7383 183.912 92.7383 183.912C92.7383 183.912 89.61 184.738 87.0378 187.411Z" fill="white" stroke="#002E47" stroke-miterlimit="10" stroke-linecap="round" stroke-linejoin="round"/>
<path d="M98.3494 210.242C98.3494 210.242 97.0633 206.38 97.0633 206.032C97.0633 205.679 99.3972 200.065 99.1638 197.607C98.9304 195.149 96.9442 192.342 95.663 193.044C94.3769 193.745 92.0431 195.736 89.9426 198.891C87.8421 202.051 87.142 204.504 87.8421 205.679C88.5423 206.848 92.7432 211.292 94.4961 211.998C96.249 212.7 99.849 211.481 99.849 211.481L98.3494 210.242Z" fill="white" stroke="#002E47" stroke-miterlimit="10" stroke-linecap="round" stroke-linejoin="round"/>
<path d="M90.176 199.946C90.176 199.946 91.6954 200.881 92.7432 200.881C93.7959 200.881 96.4773 198.423 96.3631 195.97C96.244 193.511 94.7294 194.099 94.7294 194.099C94.7294 194.099 90.6427 197.139 90.176 199.946Z" fill="white" stroke="#002E47" stroke-miterlimit="10" stroke-linecap="round" stroke-linejoin="round"/>
<path d="M146.263 153.711L164.268 192.775L175.073 188.102L156.219 149.252L146.263 153.711Z" fill="white" stroke="#002E47" stroke-miterlimit="10" stroke-linecap="round" stroke-linejoin="round"/>
<path d="M233.509 102.361L152.619 149.889L179.364 204.658L233.509 177.587V102.361Z" fill="#002E47" stroke="#002E47" stroke-miterlimit="10" stroke-linecap="round" stroke-linejoin="round"/>
<path d="M83.3532 150.74L58.7783 188.953L49.4578 184.28L75.299 145.858L83.3532 150.74Z" fill="white" stroke="#002E47" stroke-miterlimit="10" stroke-linecap="round" stroke-linejoin="round"/>
<path d="M1.92676 97.0758V178.384L41.9051 203.215L79.1126 146.072L1.92676 97.0758Z" fill="#39B4EF" stroke="#002E47" stroke-miterlimit="10" stroke-linecap="round" stroke-linejoin="round"/>
</g>
<defs>
<clipPath id="clip0_344_5255">
<rect width="234" height="232" fill="white" transform="translate(0.5)"/>
</clipPath>
</defs>
</svg>
