<svg width="247" height="227" viewBox="0 0 247 227" fill="none" xmlns="http://www.w3.org/2000/svg">
<g clip-path="url(#clip0_344_779)">
<path d="M239.432 134.026C231.779 154.57 216.141 176.807 194.129 183.393C160.877 193.344 156.905 220.203 97.3469 217.712C88.0618 217.327 79.4784 216.014 71.5918 213.93C67.3547 212.809 63.3152 211.455 59.4836 209.892C24.6928 195.767 6.54358 164.683 5.03591 132.156C3.04474 89.38 32.829 68.9873 52.1844 57.0507C71.5398 45.1142 94.8671 -1.14709 153.437 0.837996C162.369 1.1454 171.275 2.36979 179.91 4.71438C199.619 10.06 219.65 21.882 231.29 39.1642C232.164 40.4615 232.996 41.7901 233.796 43.1447C249.377 69.6386 249.871 106.016 239.432 134.026Z" fill="#39B4EF"/>
<path opacity="0.7" d="M239.432 134.026C231.779 154.57 216.141 176.807 194.129 183.393C160.877 193.344 156.905 220.203 97.3469 217.712C88.0618 217.327 79.4784 216.014 71.5918 213.93C67.3547 212.809 63.3152 211.455 59.4836 209.892C24.6928 195.767 6.54358 164.683 5.03591 132.156C3.04474 89.38 32.829 68.9873 52.1844 57.0507C71.5398 45.1142 94.8671 -1.14709 153.437 0.837996C162.369 1.1454 171.275 2.36979 179.91 4.71438C199.619 10.06 219.65 21.882 231.29 39.1642C232.164 40.4615 232.996 41.7901 233.796 43.1447C249.377 69.6386 249.871 106.016 239.432 134.026Z" fill="white"/>
<path d="M124.839 152.606C118.797 138.851 119.686 116.322 122.489 114.451C125.572 112.388 130.459 122.949 135.34 119.86C140.222 116.77 143.565 110.07 139.453 99.5086C135.34 88.9475 129.944 95.9031 126.086 98.477C122.229 101.051 119.146 98.7323 119.915 89.4633C120.482 82.6276 123.149 70.0502 124.506 63.9178C125.119 64.1835 125.733 64.4492 126.341 64.7358C114.259 59.0671 100.898 57.2644 95.2414 59.0671C89.5903 60.8698 90.6144 61.3856 93.4426 68.0807C99.3381 82.0492 77.0038 86.8478 70.5572 76.0784C66.6996 69.6386 72.3664 66.0227 70.8276 61.3856C69.2835 56.7485 40.7573 62.1567 37.1597 64.22C37.1597 64.22 44.1002 85.0816 43.0708 92.553C42.0414 100.024 38.4438 103.369 33.0474 97.9612C27.651 92.553 20.7105 97.4453 20.4557 106.459C20.201 115.473 21.7399 122.689 27.9109 120.625C34.082 118.562 38.9637 111.096 41.0173 120.625C43.076 130.155 39.4732 142.519 37.4196 151.277C37.4196 151.277 53.6141 158.233 61.0641 157.717C68.5193 157.201 73.1462 156.946 70.8327 152.309C68.5193 147.672 64.6617 144.582 67.4899 139.429C70.3181 134.276 81.6256 134.792 87.5367 136.079C93.4478 137.366 96.016 141.748 94.2172 146.64C92.4184 151.532 89.3355 156.43 94.9867 157.456C100.316 158.425 113.869 156.195 127.246 151.835C126.44 152.105 125.639 152.356 124.839 152.606Z" stroke="#002E47" stroke-miterlimit="10"/>
<path d="M129.684 151.027C128.894 151.303 128.098 151.569 127.303 151.824C128.098 151.564 128.894 151.298 129.684 151.027Z" stroke="#002E47" stroke-miterlimit="10"/>
<path d="M223.497 95.6426C218.616 95.6426 218.356 99.5086 213.219 98.7323C208.078 97.9612 207.563 86.1132 212.964 65.2464C212.964 65.2464 207.053 69.6229 193.687 69.8834C180.321 70.1387 174.924 68.5965 178.267 63.6989C181.61 58.8066 184.178 54.9406 181.35 51.0799C178.522 47.2139 164.901 47.7297 160.534 51.0799C156.167 54.43 159.25 58.2908 162.333 62.6725C165.416 67.0491 161.818 69.6281 156.676 69.8834C151.535 70.1387 138.428 70.3992 126.346 64.7305C125.738 64.444 125.124 64.1783 124.511 63.9126C123.149 70.0502 120.487 82.6223 119.92 89.4581C119.151 98.7323 122.234 101.051 126.091 98.4717C129.949 95.8979 135.345 88.9423 139.458 99.5034C143.57 110.064 140.227 116.76 135.345 119.854C130.464 122.944 125.577 112.383 122.494 114.446C119.692 116.322 118.797 138.846 124.844 152.6C126.461 152.105 128.083 151.579 129.689 151.022C143.825 146.129 157.961 143.811 160.534 147.156C163.102 150.506 162.078 149.99 158.735 155.143C155.392 160.296 155.652 164.672 161.303 167.251C166.96 169.825 180.836 169.315 182.12 163.386C183.404 157.462 176.209 154.111 179.551 148.448C182.894 142.779 212.45 151.022 212.45 151.022C212.45 151.022 205.769 128.352 208.337 120.886C210.906 113.415 212.965 115.217 217.077 118.052C221.189 120.886 226.586 120.625 228.644 112.383C230.693 104.146 228.379 95.6426 223.497 95.6426Z" stroke="#002E47" stroke-miterlimit="10"/>
<path d="M208.207 41.031C214.75 37.9362 217.551 30.1115 214.463 23.5541C211.375 16.9967 203.567 14.1898 197.024 17.2847C190.481 20.3795 187.68 28.2042 190.768 34.7616C193.857 41.319 201.664 44.1259 208.207 41.031Z" fill="#39B4EF" stroke="#002E47" stroke-miterlimit="10"/>
<path d="M203.728 39.8967C209.647 39.288 213.952 33.9863 213.345 28.0551C212.737 22.1239 207.447 17.8092 201.529 18.418C195.61 19.0267 191.305 24.3284 191.913 30.2596C192.52 36.1908 197.81 40.5055 203.728 39.8967Z" fill="white" stroke="#002E47" stroke-miterlimit="10"/>
<path d="M205.99 36.2504C209.902 34.385 211.565 29.6942 209.703 25.7733C207.842 21.8523 203.162 20.1859 199.249 22.0513C195.337 23.9167 193.674 28.6075 195.535 32.5284C197.397 36.4494 202.077 38.1158 205.99 36.2504Z" fill="#39B4EF" stroke="#002E47" stroke-miterlimit="10"/>
<path d="M207.573 29.1502C207.573 26.4097 205.359 24.1849 202.619 24.1849C199.884 24.1849 197.664 26.4045 197.664 29.1502C197.664 31.8908 199.879 34.1156 202.619 34.1156C205.359 34.1156 207.573 31.896 207.573 29.1502Z" fill="white" stroke="#002E47" stroke-miterlimit="10"/>
<path d="M204.917 29.1502C204.917 27.8789 203.892 26.8525 202.624 26.8525C201.355 26.8525 200.331 27.8789 200.331 29.1502C200.331 30.4215 201.355 31.4479 202.624 31.4479C203.887 31.4479 204.917 30.4215 204.917 29.1502Z" fill="#39B4EF" stroke="#002E47" stroke-miterlimit="10"/>
<path d="M203.57 25.55L202.619 29.1502L206.014 29.8953L203.57 25.55Z" fill="#002E47" stroke="#002E47" stroke-miterlimit="10"/>
<path d="M205.015 27.5559L219.921 19.4176" stroke="#002E47" stroke-width="2" stroke-miterlimit="10"/>
<path d="M215.138 22.0956L215.356 18.1932L222.364 14.1813V18.636L215.138 22.0956Z" fill="#002E47" stroke="#002E47" stroke-miterlimit="10"/>
<path d="M225.369 20.7566L222.302 18.4902L215.106 22.278L218.574 24.2891L225.369 20.7566Z" fill="#002E47" stroke="#002E47" stroke-miterlimit="10"/>
<path d="M133.942 29.9473H128.732V42.3788H133.942V29.9473Z" fill="#39B4EF" stroke="#002E47" stroke-miterlimit="10"/>
<path d="M141.62 26.1804H136.411V42.3788H141.62V26.1804Z" fill="#39B4EF" stroke="#002E47" stroke-miterlimit="10"/>
<path d="M149.299 29.9473H144.09V42.3788H149.299V29.9473Z" fill="#39B4EF" stroke="#002E47" stroke-miterlimit="10"/>
<path d="M156.983 25.3624H151.774V42.3789H156.983V25.3624Z" fill="#39B4EF" stroke="#002E47" stroke-miterlimit="10"/>
<path d="M164.662 19.1362H159.453V42.3788H164.662V19.1362Z" fill="#39B4EF" stroke="#002E47" stroke-miterlimit="10"/>
<path d="M157.747 9.28892L159.78 10.159L145.956 23.4554L139.354 19.8448L128.894 26.2168V28.1394L139.395 21.7413L146.227 25.477L160.913 11.3469L161.698 13.4154L164.605 6.65778L157.747 9.28892Z" fill="#002E47" stroke="#002E47" stroke-miterlimit="10" stroke-linecap="round" stroke-linejoin="round"/>
<path d="M97.0919 41.8544C104.136 40.1975 108.506 33.1317 106.852 26.0726C105.199 19.0134 98.1485 14.634 91.1047 16.2909C84.0609 17.9479 79.691 25.0137 81.3443 32.0728C82.9976 39.132 90.0481 43.5114 97.0919 41.8544Z" fill="white" stroke="#002E47" stroke-miterlimit="10"/>
<path d="M96.6938 40.4529C102.964 39.0181 106.886 32.7609 105.455 26.4771C104.023 20.1932 97.7794 16.2623 91.5092 17.6971C85.239 19.1319 81.3167 25.3891 82.7483 31.6729C84.18 37.9568 90.4236 41.8877 96.6938 40.4529Z" fill="#39B4EF" stroke="#002E47" stroke-miterlimit="10"/>
<path d="M95.7 39.5543C101.434 38.6639 105.363 33.2834 104.474 27.5366C103.586 21.7898 98.2171 17.8528 92.4828 18.7432C86.7485 19.6335 82.8201 25.014 83.7085 30.7608C84.5969 36.5077 89.9657 40.4446 95.7 39.5543Z" fill="white" stroke="#002E47" stroke-miterlimit="10"/>
<path d="M93.9417 38.1586V36.4861C92.7096 36.4392 91.7893 36.0432 91.1811 35.2982C90.5728 34.5531 90.2401 33.4486 90.1933 31.9741L92.7251 31.5416C92.7511 32.1408 92.8135 32.641 92.9123 33.0422C93.0163 33.4434 93.167 33.7456 93.3698 33.9435C93.5726 34.1415 93.8377 34.2405 94.16 34.2405C94.5292 34.2405 94.7839 34.1207 94.9243 33.881C95.0594 33.6413 95.1322 33.3652 95.1322 33.0526C95.1322 32.443 94.9919 31.9272 94.7111 31.5156C94.4304 31.104 94.0457 30.6872 93.5518 30.2651L92.0285 28.9522C91.6802 28.6291 91.3682 28.3009 91.0979 27.9622C90.8224 27.6288 90.604 27.2432 90.4428 26.8108C90.2817 26.3783 90.1985 25.8677 90.1985 25.2842C90.1985 24.1588 90.5208 23.2783 91.1603 22.6478C91.7997 22.0174 92.6576 21.6631 93.7337 21.5798V19.9802H94.5967V21.5798C95.2414 21.6162 95.7717 21.7621 96.1824 22.0226C96.5931 22.2779 96.9102 22.6062 97.1234 22.9917C97.3365 23.3825 97.4925 23.8045 97.5913 24.2682C97.6849 24.7319 97.7472 25.1748 97.7732 25.6072L95.205 25.9824C95.1946 25.5395 95.1582 25.1487 95.0958 24.8049C95.0334 24.461 94.9295 24.1953 94.7735 24.0025C94.6175 23.8097 94.3784 23.7211 94.0561 23.7316C93.7233 23.742 93.4686 23.8774 93.2918 24.1275C93.1203 24.3776 93.0319 24.659 93.0319 24.9716C93.0319 25.5239 93.1619 25.9667 93.427 26.3002C93.6921 26.6336 93.9885 26.9619 94.3264 27.2693L95.8133 28.5614C96.2084 28.9209 96.5723 29.3117 96.9102 29.7285C97.243 30.1505 97.5133 30.6142 97.7161 31.1196C97.9188 31.6302 98.0228 32.2138 98.0228 32.8702C98.0228 33.5059 97.8928 34.0842 97.6381 34.6052C97.3781 35.1262 97.009 35.5483 96.5255 35.8713C96.042 36.1943 95.4701 36.3871 94.8099 36.4444V38.1325H93.9417V38.1586Z" fill="#002E47"/>
<path d="M51.6437 18.9122H27.3182V41.8318H51.6437V18.9122Z" fill="white" stroke="#002E47" stroke-miterlimit="10"/>
<path d="M51.6437 18.9122H27.3182V24.8049H51.6437V18.9122Z" fill="#39B4EF" stroke="#002E47" stroke-miterlimit="10" stroke-linecap="round" stroke-linejoin="round"/>
<path d="M32.2052 28.0769H29.2938V30.9946H32.2052V28.0769Z" fill="#39B4EF" stroke="#002E47" stroke-miterlimit="10" stroke-linecap="round" stroke-linejoin="round"/>
<path d="M36.5722 28.0769H33.6609V30.9946H36.5722V28.0769Z" fill="#39B4EF" stroke="#002E47" stroke-miterlimit="10" stroke-linecap="round" stroke-linejoin="round"/>
<path d="M40.9341 28.0769H38.0227V30.9946H40.9341V28.0769Z" fill="#39B4EF" stroke="#002E47" stroke-miterlimit="10" stroke-linecap="round" stroke-linejoin="round"/>
<path d="M45.3011 28.0769H42.3898V30.9946H45.3011V28.0769Z" fill="#39B4EF" stroke="#002E47" stroke-miterlimit="10" stroke-linecap="round" stroke-linejoin="round"/>
<path d="M49.6682 28.0769H46.7568V30.9946H49.6682V28.0769Z" fill="#39B4EF" stroke="#002E47" stroke-miterlimit="10" stroke-linecap="round" stroke-linejoin="round"/>
<path d="M32.2052 32.6619H29.2938V35.5796H32.2052V32.6619Z" fill="#39B4EF" stroke="#002E47" stroke-miterlimit="10" stroke-linecap="round" stroke-linejoin="round"/>
<path d="M36.5722 32.6619H33.6609V35.5796H36.5722V32.6619Z" fill="#39B4EF" stroke="#002E47" stroke-miterlimit="10" stroke-linecap="round" stroke-linejoin="round"/>
<path d="M40.9341 32.6619H38.0227V35.5796H40.9341V32.6619Z" fill="#39B4EF" stroke="#002E47" stroke-miterlimit="10" stroke-linecap="round" stroke-linejoin="round"/>
<path d="M45.3011 32.6619H42.3898V35.5796H45.3011V32.6619Z" fill="#39B4EF" stroke="#002E47" stroke-miterlimit="10" stroke-linecap="round" stroke-linejoin="round"/>
<path d="M49.6682 32.6619H46.7568V35.5796H49.6682V32.6619Z" fill="#39B4EF" stroke="#002E47" stroke-miterlimit="10" stroke-linecap="round" stroke-linejoin="round"/>
<path d="M32.2052 37.2468H29.2938V40.1645H32.2052V37.2468Z" fill="#39B4EF" stroke="#002E47" stroke-miterlimit="10" stroke-linecap="round" stroke-linejoin="round"/>
<path d="M36.5722 37.2468H33.6609V40.1645H36.5722V37.2468Z" fill="#39B4EF" stroke="#002E47" stroke-miterlimit="10" stroke-linecap="round" stroke-linejoin="round"/>
<path d="M40.9341 37.2468H38.0227V40.1645H40.9341V37.2468Z" fill="#39B4EF" stroke="#002E47" stroke-miterlimit="10" stroke-linecap="round" stroke-linejoin="round"/>
<path d="M45.3011 37.2468H42.3898V40.1645H45.3011V37.2468Z" fill="#39B4EF" stroke="#002E47" stroke-miterlimit="10" stroke-linecap="round" stroke-linejoin="round"/>
<path d="M49.6682 37.2468H46.7568V40.1645H49.6682V37.2468Z" fill="#39B4EF" stroke="#002E47" stroke-miterlimit="10" stroke-linecap="round" stroke-linejoin="round"/>
<path d="M32.7251 15.1608H30.6455V20.7878H32.7251V15.1608Z" fill="#002E47"/>
<path d="M37.9239 15.1608H35.8444V20.7878H37.9239V15.1608Z" fill="#002E47"/>
<path d="M43.1176 15.1608H41.038V20.7878H43.1176V15.1608Z" fill="#002E47"/>
<path d="M48.3165 15.1608H46.2369V20.7878H48.3165V15.1608Z" fill="#002E47"/>
<path d="M6.16406 190.119C7.29222 190.614 10.0528 190.551 10.058 190.551C10.084 190.551 9.46534 188.738 9.41335 188.629C8.81029 187.358 6.8919 185.263 5.33225 185.472C4.20929 185.623 3.58543 186.748 3.84017 187.811C4.09492 188.895 5.20227 189.702 6.16406 190.119Z" fill="#39B4EF"/>
<path d="M7.11546 198.137C8.2852 198.309 10.7495 197.59 10.947 197.533C11.3369 198.914 11.8464 200.3 12.4391 201.675C12.777 202.462 13.1461 203.243 13.5205 204.02C13.2969 203.692 13.0942 203.395 13.0578 203.358C12.1376 202.295 9.74089 200.779 8.2904 201.394C7.24543 201.837 6.9439 203.087 7.46378 204.046C7.99927 205.02 9.27819 205.505 10.318 205.656C11.3733 205.812 13.4841 205.239 14.0403 205.083C14.1859 205.38 14.3315 205.677 14.4823 205.974C15.1945 207.396 15.9119 208.813 16.5774 210.225C16.8113 210.72 17.0245 211.22 17.2376 211.72C17.0401 211.429 16.8685 211.184 16.8373 211.147C15.9171 210.084 13.5205 208.568 12.07 209.183C11.025 209.626 10.7235 210.876 11.2434 211.835C11.7788 212.809 13.0578 213.294 14.0975 213.445C15.1009 213.591 17.0557 213.086 17.7211 212.903C17.9239 213.419 18.1319 213.935 18.3034 214.445C18.4126 214.794 18.5478 215.128 18.6361 215.482C18.7349 215.837 18.8337 216.186 18.9273 216.529C19.0884 217.202 19.26 217.895 19.4004 218.556C19.5044 219.015 19.5875 219.452 19.6811 219.895C19.4524 219.395 18.9897 218.431 18.9429 218.353C18.1942 217.16 16.0523 215.3 14.529 215.691C13.4321 215.972 12.9382 217.16 13.3125 218.186C13.692 219.234 14.8878 219.9 15.8911 220.208C16.9933 220.547 19.442 220.239 19.7487 220.197C19.8943 220.932 20.0294 221.641 20.149 222.318C20.409 223.808 20.6065 225.147 20.7573 226.278H21.7867C21.6047 225.105 21.3707 223.714 21.0588 222.151C20.9132 221.406 20.7417 220.614 20.5597 219.801C20.7417 219.729 21.7867 219.307 22.7121 218.785C23.5179 219.661 25.5818 220.682 25.847 220.812C25.5662 221.505 25.2855 222.172 25.01 222.803C24.4381 224.116 23.8974 225.283 23.4191 226.278H24.5317C24.9424 225.361 25.3947 224.319 25.8678 223.167C26.1537 222.464 26.45 221.708 26.7464 220.932C27.0427 220.995 29.4654 221.484 30.5935 221.229C31.6177 221 32.855 220.416 33.3125 219.405C33.7596 218.416 33.3593 217.191 32.2832 216.826C30.7911 216.326 28.5192 218.02 27.6822 219.155C27.6302 219.223 27.1779 220.005 26.9023 220.505C27.0219 220.187 27.1415 219.88 27.2559 219.551C27.495 218.9 27.7134 218.244 27.9473 217.54C28.0513 217.196 28.1553 216.847 28.2592 216.498C28.3684 216.154 28.4464 215.774 28.54 215.404C28.7427 214.55 28.9091 213.674 29.0547 212.794C29.6213 213.002 31.6541 213.711 32.7043 213.633C33.7492 213.56 35.0646 213.174 35.6676 212.241C36.2603 211.33 36.0471 210.058 35.0438 209.537C33.6453 208.813 31.1394 210.147 30.1464 211.142C30.084 211.205 29.4498 211.997 29.1119 212.439C29.195 211.908 29.2834 211.377 29.3458 210.835C29.5382 209.272 29.6889 207.683 29.8397 206.099C29.8865 205.614 29.9385 205.13 29.9905 204.645C30.1932 204.723 32.5847 205.614 33.7648 205.531C34.8098 205.458 36.1251 205.072 36.7282 204.14C37.3209 203.228 37.1077 201.957 36.1043 201.436C34.7058 200.711 32.2 202.045 31.207 203.035C31.1342 203.108 30.2192 204.254 30.0009 204.556C30.1152 203.494 30.2348 202.431 30.396 201.394C30.6195 199.961 30.9159 198.565 31.3006 197.231C31.3942 197.267 33.8896 198.21 35.0957 198.127C36.1407 198.054 37.456 197.669 38.0591 196.736C38.6518 195.824 38.4386 194.553 37.4352 194.032C36.0367 193.308 33.5309 194.641 32.5379 195.637C32.4599 195.715 31.4825 196.944 31.3162 197.179C31.337 197.101 31.3526 197.017 31.3786 196.939C31.8101 195.522 32.4079 194.204 33.0214 193C33.3801 192.297 33.7596 191.651 34.1444 191.026C34.5915 191.25 36.645 192.25 37.7368 192.292C38.7869 192.333 40.1335 192.094 40.8353 191.234C41.5267 190.39 41.454 189.103 40.5078 188.478C39.1977 187.608 36.5618 188.655 35.4649 189.53C35.4077 189.577 34.8514 190.129 34.4563 190.536C34.6331 190.254 34.815 189.963 34.9866 189.702C35.6468 188.707 36.3071 187.842 36.8998 187.076C37.2429 186.644 37.56 186.258 37.8563 185.904C38.4074 185.894 40.6325 185.826 41.6047 185.367C42.5561 184.919 43.6375 184.086 43.8714 182.997C44.095 181.929 43.4399 180.824 42.317 180.699C40.7521 180.532 38.8961 182.679 38.3242 183.966C38.2775 184.075 37.7004 185.904 37.7316 185.904C37.7316 185.904 37.7576 185.904 37.7628 185.904C37.4664 186.243 37.1545 186.607 36.8166 187.009C36.2031 187.764 35.5221 188.618 34.841 189.603C34.1548 190.583 33.4425 191.666 32.7875 192.875C32.1324 194.089 31.5085 195.397 31.0354 196.83C31.0302 196.845 31.025 196.861 31.0198 196.882C31.0302 196.418 31.0094 195.126 30.9938 195.027C30.8119 193.631 29.6473 191.041 28.0981 190.755C26.9855 190.546 26.0393 191.422 25.9509 192.51C25.8626 193.62 26.6632 194.73 27.443 195.428C28.3268 196.22 30.7755 196.981 30.9679 197.043C30.5311 198.408 30.1932 199.852 29.9333 201.326C29.7825 202.17 29.6577 203.025 29.5434 203.879C29.5382 203.478 29.5278 203.124 29.5226 203.072C29.3406 201.675 28.1761 199.086 26.6268 198.799C25.5142 198.591 24.568 199.466 24.4797 200.555C24.3913 201.665 25.1919 202.775 25.9717 203.473C26.7672 204.181 28.8415 204.879 29.3926 205.051C29.351 205.38 29.3094 205.708 29.2678 206.041C29.0807 207.625 28.8987 209.204 28.6752 210.746C28.5972 211.288 28.4984 211.825 28.3996 212.356C28.3944 212.002 28.384 211.705 28.3788 211.658C28.1969 210.262 27.0323 207.672 25.483 207.386C24.3705 207.177 23.4243 208.053 23.3359 209.141C23.2475 210.251 24.0482 211.361 24.828 212.059C25.587 212.736 27.495 213.393 28.1501 213.607C28.0357 214.148 27.9213 214.695 27.7861 215.217C27.6874 215.571 27.6146 215.92 27.4898 216.269C27.3754 216.618 27.2663 216.962 27.1571 217.306C26.9231 217.957 26.6788 218.629 26.4344 219.26C26.2681 219.697 26.0965 220.114 25.9302 220.531C26.0133 219.989 26.1589 218.926 26.1641 218.838C26.1849 217.905 25.8522 216.384 25.1971 215.315C25.2023 215.18 25.1919 215.039 25.1711 214.904C24.9996 213.831 23.991 213.028 22.894 213.32C21.3759 213.726 20.409 216.399 20.3362 217.806C20.331 217.889 20.3882 218.796 20.4298 219.364C20.3518 219.03 20.2842 218.707 20.201 218.369C20.0398 217.697 19.8631 217.03 19.6707 216.311C19.5667 215.967 19.4628 215.618 19.3536 215.269C19.2548 214.92 19.1092 214.56 18.9845 214.206C18.6829 213.383 18.3398 212.559 17.9759 211.741C18.5634 211.601 20.6481 211.069 21.4799 210.423C22.3117 209.782 23.1955 208.735 23.1852 207.625C23.1748 206.536 22.3013 205.593 21.1732 205.713C19.6083 205.885 18.2514 208.381 17.9707 209.756C17.9551 209.845 17.8615 210.856 17.8199 211.413C17.5964 210.923 17.378 210.434 17.1337 209.944C16.437 208.532 15.6832 207.125 14.9398 205.724C14.711 205.291 14.4875 204.864 14.2639 204.431C14.4719 204.385 16.9621 203.806 17.8979 203.087C18.7297 202.446 19.6135 201.399 19.6031 200.289C19.5927 199.2 18.7193 198.257 17.5912 198.382C16.0263 198.554 14.6694 201.05 14.3887 202.425C14.3679 202.53 14.2379 203.983 14.2223 204.358C13.7284 203.41 13.2501 202.457 12.8082 201.498C12.2051 200.18 11.6801 198.851 11.2746 197.523C11.3733 197.502 13.9728 196.908 14.9294 196.173C15.7612 195.532 16.645 194.485 16.6346 193.375C16.6294 192.286 15.7508 191.343 14.6226 191.463C13.0578 191.635 11.7009 194.131 11.4201 195.506C11.3993 195.616 11.259 197.184 11.2538 197.465C11.2278 197.387 11.1966 197.309 11.1706 197.231C10.7495 195.809 10.5207 194.381 10.3751 193.037C10.2868 192.255 10.2452 191.5 10.2244 190.765C10.7183 190.703 12.9798 190.4 13.9156 189.832C14.815 189.285 15.8028 188.342 15.9171 187.238C16.0263 186.154 15.2621 185.122 14.1287 185.117C12.5535 185.112 10.9314 187.446 10.4999 188.785C10.4739 188.858 10.318 189.624 10.214 190.187C10.2088 189.853 10.1984 189.515 10.1984 189.197C10.1984 188.004 10.2764 186.915 10.3492 185.946C10.3959 185.399 10.4479 184.904 10.5051 184.44C10.9626 184.127 12.777 182.84 13.3385 181.918C13.8844 181.022 14.3315 179.725 13.9208 178.688C13.5205 177.672 12.3663 177.109 11.3577 177.63C9.95924 178.354 9.59532 181.173 9.82407 182.559C9.84486 182.679 10.3699 184.518 10.3959 184.502C10.3959 184.502 10.4167 184.487 10.4219 184.482C10.3596 184.924 10.3024 185.404 10.2452 185.925C10.1516 186.889 10.0476 187.983 10.0216 189.181C9.99043 190.374 9.99043 191.677 10.1152 193.047C10.2348 194.417 10.4323 195.855 10.8274 197.314C10.8326 197.33 10.8378 197.346 10.843 197.361C10.5935 196.97 9.86566 195.908 9.80327 195.829C8.88307 194.767 6.4864 193.25 5.03591 193.865C3.99094 194.308 3.68941 195.558 4.20929 196.517C4.79677 197.502 6.07569 197.981 7.11546 198.137Z" fill="#39B4EF"/>
<path d="M34.0872 190.729C34.1132 190.744 34.5915 188.889 34.6071 188.77C34.7994 187.373 34.3575 184.57 32.9382 183.882C31.9192 183.387 30.7755 183.981 30.4064 185.008C30.0268 186.055 30.5103 187.337 31.077 188.217C31.7477 189.254 34.082 190.729 34.0872 190.729Z" fill="#39B4EF"/>
<path d="M198.059 190.119C199.187 190.614 201.948 190.551 201.953 190.551C201.979 190.551 201.361 188.738 201.309 188.629C200.706 187.358 198.787 185.263 197.228 185.472C196.105 185.623 195.481 186.748 195.735 187.811C195.99 188.895 197.098 189.702 198.059 190.119Z" fill="#39B4EF"/>
<path d="M199.011 198.137C200.18 198.309 202.645 197.59 202.842 197.533C203.232 198.914 203.742 200.3 204.334 201.675C204.672 202.462 205.041 203.243 205.416 204.02C205.192 203.692 204.989 203.395 204.953 203.358C204.033 202.295 201.636 200.779 200.186 201.394C199.141 201.837 198.839 203.087 199.359 204.046C199.895 205.02 201.173 205.505 202.213 205.656C203.269 205.812 205.379 205.239 205.936 205.083C206.081 205.38 206.227 205.677 206.378 205.974C207.09 207.396 207.807 208.813 208.473 210.225C208.707 210.72 208.92 211.22 209.133 211.72C208.935 211.429 208.764 211.184 208.733 211.147C207.812 210.084 205.416 208.568 203.965 209.183C202.92 209.626 202.619 210.876 203.139 211.835C203.674 212.809 204.953 213.294 205.993 213.445C206.996 213.591 208.951 213.086 209.616 212.903C209.819 213.419 210.022 213.935 210.199 214.445C210.308 214.794 210.443 215.128 210.531 215.482C210.63 215.837 210.729 216.186 210.823 216.529C210.984 217.202 211.155 217.895 211.296 218.556C211.4 219.015 211.483 219.452 211.576 219.895C211.348 219.395 210.885 218.431 210.838 218.353C210.09 217.16 207.948 215.3 206.424 215.691C205.327 215.972 204.833 217.16 205.208 218.186C205.587 219.234 206.783 219.9 207.786 220.208C208.889 220.547 211.337 220.239 211.644 220.197C211.79 220.932 211.925 221.641 212.044 222.318C212.304 223.808 212.507 225.147 212.653 226.278H213.682C213.5 225.105 213.266 223.714 212.954 222.151C212.809 221.406 212.637 220.614 212.455 219.801C212.637 219.729 213.682 219.307 214.607 218.785C215.413 219.661 217.477 220.682 217.742 220.812C217.461 221.505 217.181 222.172 216.905 222.803C216.333 224.116 215.793 225.283 215.314 226.278H216.427C216.838 225.361 217.29 224.319 217.763 223.167C218.049 222.464 218.345 221.708 218.642 220.932C218.938 220.995 221.361 221.484 222.489 221.229C223.513 221 224.75 220.416 225.208 219.405C225.655 218.416 225.255 217.191 224.178 216.826C222.686 216.326 220.414 218.02 219.577 219.155C219.525 219.223 219.073 220.005 218.798 220.505C218.917 220.187 219.037 219.88 219.151 219.551C219.39 218.9 219.609 218.244 219.843 217.54C219.947 217.196 220.051 216.847 220.155 216.498C220.264 216.154 220.342 215.774 220.435 215.404C220.638 214.55 220.804 213.674 220.95 212.794C221.517 213.002 223.549 213.711 224.6 213.633C225.645 213.56 226.96 213.174 227.563 212.241C228.156 211.33 227.942 210.058 226.939 209.537C225.541 208.813 223.035 210.147 222.042 211.142C221.979 211.205 221.345 211.997 221.007 212.439C221.09 211.908 221.179 211.377 221.241 210.835C221.433 209.272 221.584 207.683 221.735 206.099C221.782 205.614 221.834 205.13 221.886 204.645C222.088 204.723 224.48 205.614 225.66 205.531C226.705 205.458 228.02 205.072 228.623 204.14C229.216 203.228 229.003 201.957 228 201.436C226.601 200.711 224.095 202.045 223.102 203.035C223.029 203.108 222.114 204.254 221.896 204.556C222.01 203.494 222.13 202.431 222.291 201.394C222.515 199.961 222.811 198.565 223.196 197.231C223.289 197.267 225.785 198.21 226.991 198.127C228.036 198.054 229.351 197.669 229.954 196.736C230.547 195.824 230.334 194.553 229.33 194.032C227.932 193.308 225.426 194.641 224.433 195.637C224.355 195.715 223.378 196.944 223.211 197.179C223.232 197.101 223.248 197.017 223.274 196.939C223.705 195.522 224.303 194.204 224.917 193C225.275 192.297 225.655 191.651 226.04 191.026C226.487 191.25 228.54 192.25 229.632 192.292C230.682 192.333 232.029 192.094 232.731 191.234C233.422 190.39 233.349 189.103 232.403 188.478C231.093 187.608 228.457 188.655 227.36 189.53C227.303 189.577 226.747 190.129 226.352 190.536C226.528 190.254 226.71 189.963 226.882 189.702C227.542 188.707 228.202 187.842 228.795 187.076C229.138 186.644 229.455 186.258 229.752 185.904C230.303 185.894 232.528 185.826 233.5 185.367C234.451 184.919 235.533 184.086 235.767 182.997C235.99 181.929 235.335 180.824 234.212 180.699C232.647 180.532 230.791 182.679 230.22 183.966C230.173 184.075 229.596 185.904 229.627 185.904C229.627 185.904 229.653 185.904 229.658 185.904C229.362 186.243 229.05 186.607 228.712 187.009C228.098 187.764 227.417 188.618 226.736 189.603C226.05 190.583 225.338 191.666 224.683 192.875C224.028 194.089 223.404 195.397 222.931 196.83C222.925 196.845 222.92 196.861 222.915 196.882C222.925 196.418 222.905 195.126 222.889 195.027C222.707 193.631 221.543 191.041 219.993 190.755C218.881 190.546 217.935 191.422 217.846 192.51C217.758 193.62 218.558 194.73 219.338 195.428C220.222 196.22 222.671 196.981 222.863 197.043C222.426 198.408 222.088 199.852 221.829 201.326C221.678 202.17 221.553 203.025 221.439 203.879C221.433 203.478 221.423 203.124 221.418 203.072C221.236 201.675 220.071 199.086 218.522 198.799C217.41 198.591 216.463 199.466 216.375 200.555C216.287 201.665 217.087 202.775 217.867 203.473C218.662 204.181 220.737 204.879 221.288 205.051C221.246 205.38 221.205 205.708 221.163 206.041C220.976 207.625 220.794 209.204 220.57 210.746C220.492 211.288 220.394 211.825 220.295 212.356C220.29 212.002 220.279 211.705 220.274 211.658C220.092 210.262 218.928 207.672 217.378 207.386C216.266 207.177 215.32 208.053 215.231 209.141C215.143 210.251 215.943 211.361 216.723 212.059C217.482 212.736 219.39 213.393 220.045 213.607C219.931 214.148 219.817 214.695 219.681 215.217C219.583 215.571 219.51 215.92 219.385 216.269C219.271 216.618 219.162 216.962 219.052 217.306C218.818 217.957 218.574 218.629 218.33 219.26C218.163 219.697 217.992 220.114 217.825 220.531C217.909 219.989 218.054 218.926 218.059 218.838C218.08 217.905 217.747 216.384 217.092 215.315C217.098 215.18 217.087 215.039 217.066 214.904C216.895 213.831 215.886 213.028 214.789 213.32C213.271 213.726 212.304 216.399 212.231 217.806C212.226 217.889 212.283 218.796 212.325 219.364C212.247 219.03 212.179 218.707 212.096 218.369C211.935 217.697 211.758 217.03 211.566 216.311C211.462 215.967 211.358 215.618 211.249 215.269C211.15 214.92 211.005 214.56 210.88 214.206C210.578 213.383 210.235 212.559 209.871 211.741C210.459 211.601 212.543 211.069 213.375 210.423C214.207 209.782 215.091 208.735 215.08 207.625C215.07 206.536 214.197 205.593 213.068 205.713C211.504 205.885 210.147 208.381 209.866 209.756C209.85 209.845 209.757 210.856 209.715 211.413C209.492 210.923 209.273 210.434 209.029 209.944C208.332 208.532 207.578 207.125 206.835 205.724C206.606 205.291 206.383 204.864 206.159 204.431C206.367 204.385 208.857 203.806 209.793 203.087C210.625 202.446 211.509 201.399 211.498 200.289C211.493 199.2 210.615 198.257 209.486 198.382C207.922 198.554 206.565 201.05 206.284 202.425C206.263 202.53 206.133 203.983 206.118 204.358C205.624 203.41 205.145 202.457 204.703 201.498C204.1 200.18 203.575 198.851 203.17 197.523C203.269 197.502 205.868 196.908 206.825 196.173C207.656 195.532 208.54 194.485 208.53 193.375C208.525 192.286 207.646 191.343 206.518 191.463C204.953 191.635 203.596 194.131 203.315 195.506C203.295 195.616 203.154 197.184 203.149 197.465C203.123 197.387 203.092 197.309 203.066 197.231C202.645 195.809 202.416 194.381 202.27 193.037C202.182 192.255 202.14 191.5 202.12 190.765C202.614 190.703 204.875 190.4 205.811 189.832C206.71 189.285 207.698 188.342 207.812 187.238C207.922 186.154 207.157 185.122 206.024 185.117C204.449 185.112 202.827 187.446 202.395 188.785C202.369 188.858 202.213 189.624 202.109 190.187C202.104 189.853 202.094 189.515 202.094 189.197C202.094 188.004 202.172 186.915 202.244 185.946C202.291 185.399 202.343 184.904 202.4 184.44C202.858 184.127 204.672 182.84 205.234 181.918C205.78 181.022 206.227 179.725 205.821 178.688C205.421 177.672 204.267 177.109 203.258 177.63C201.86 178.354 201.496 181.173 201.725 182.559C201.745 182.679 202.27 184.518 202.296 184.502C202.296 184.502 202.317 184.487 202.322 184.482C202.26 184.924 202.203 185.404 202.146 185.925C202.052 186.889 201.948 187.983 201.922 189.181C201.891 190.374 201.891 191.677 202.016 193.047C202.135 194.417 202.333 195.855 202.728 197.314C202.733 197.33 202.738 197.346 202.744 197.361C202.494 196.97 201.766 195.908 201.704 195.829C200.784 194.767 198.387 193.25 196.936 193.865C195.891 194.308 195.59 195.558 196.11 196.517C196.692 197.502 197.971 197.981 199.011 198.137Z" fill="#39B4EF"/>
<path d="M225.982 190.729C226.008 190.744 226.487 188.889 226.502 188.77C226.695 187.373 226.253 184.57 224.833 183.882C223.815 183.387 222.671 183.981 222.302 185.008C221.922 186.055 222.406 187.337 222.972 188.217C223.643 189.254 225.977 190.729 225.982 190.729Z" fill="#39B4EF"/>
<path d="M176.219 81.6689C176.219 81.6689 176.38 75.7866 179.765 74.1193C183.149 72.4469 183.341 77.9593 183.341 77.9593C183.341 77.9593 191.088 73.0304 192.767 76.7661C194.446 80.5018 192.101 82.3098 192.101 82.3098C192.101 82.3098 198.98 82.0701 199.453 85.8475C199.926 89.6249 196.38 91.4745 196.38 91.4745C196.38 91.4745 200.633 94.9497 199.141 96.5544C197.649 98.1592 194.384 98.2738 194.384 98.2738C194.384 98.2738 196.235 102.004 193.011 103.322C189.788 104.641 186.086 102.187 186.086 102.187C186.086 102.187 186.663 103.89 184.236 103.458C181.813 103.025 179.364 101.905 177.862 98.3363C176.349 94.7621 174.41 84.6752 176.219 81.6689Z" fill="#002E47" stroke="#002E47" stroke-miterlimit="10" stroke-linecap="round" stroke-linejoin="round"/>
<path d="M140.487 195.277C140.487 195.277 138.558 202.655 138.584 203.473C138.61 204.296 137.95 206.146 138.512 206.672C139.078 207.198 141.6 208.938 141.875 209.022C142.151 209.105 142.962 208.803 143.227 208.61C143.492 208.417 143.658 207.953 143.648 207.683C143.638 207.406 142.868 206.25 142.769 205.979C142.671 205.708 144.189 202.186 144.766 200.43C145.343 198.674 145.691 195.647 145.691 195.647L140.487 195.277Z" fill="#BDBDBD" stroke="#002E47" stroke-miterlimit="10"/>
<path d="M142.577 200.414C142.577 200.414 141.48 203.009 141.407 203.468C141.335 203.926 139.827 205.166 140.045 206.166C140.264 207.162 142.442 206.906 143.523 203.942" fill="#BDBDBD"/>
<path d="M142.577 200.414C142.577 200.414 141.48 203.009 141.407 203.468C141.335 203.926 139.827 205.166 140.045 206.166C140.264 207.162 142.442 206.906 143.523 203.942" stroke="#002E47" stroke-miterlimit="10"/>
<path d="M147.49 155.2C147.49 155.2 146.57 170.247 146.221 171.576C145.873 172.905 141.693 185.039 140.773 188.759C139.853 192.479 139.572 195.783 139.572 195.783L145.187 196.965L148.332 183.096C148.332 183.096 152.45 170.477 151.628 164.542C150.807 158.603 147.49 155.2 147.49 155.2Z" fill="#39B4EF" stroke="#002E47" stroke-miterlimit="10"/>
<path d="M176.713 226.283C176.775 223.011 176.916 218.598 177.207 216.071C177.711 211.705 179.588 209.006 181.501 203.54C183.414 198.075 183.56 190.953 183.56 190.953L149.299 192.151C149.299 192.151 145.343 206.911 142.962 217.796C142.161 221.443 141.87 224.209 141.828 226.283" fill="#39B4EF"/>
<path d="M176.713 226.283C176.775 223.011 176.916 218.598 177.207 216.071C177.711 211.705 179.588 209.006 181.501 203.54C183.414 198.075 183.56 190.953 183.56 190.953L149.299 192.151C149.299 192.151 145.343 206.911 142.962 217.796C142.161 221.443 141.87 224.209 141.828 226.283" stroke="#002E47" stroke-miterlimit="10"/>
<path d="M153.833 197.71L182.338 198.518L182.941 196.304L153.833 197.71Z" fill="#002E47" stroke="#002E47" stroke-miterlimit="10" stroke-linecap="round" stroke-linejoin="round"/>
<path d="M152.393 225.762C152.393 225.762 151.831 207.896 151.815 198.205Z" fill="white"/>
<path d="M152.393 225.762C152.393 225.762 151.831 207.896 151.815 198.205" stroke="#002E47" stroke-miterlimit="10"/>
<path d="M174.243 117.406L178.402 120.209C178.402 120.209 183.315 124.622 184.542 128.253C185.769 131.88 184.875 153.564 183.653 160.577C182.432 167.59 185.483 176.291 186.57 181.21C187.656 186.128 188.156 195.282 188.156 195.282C188.156 195.282 188.925 196.356 175.574 196.825C162.224 197.293 152.912 197.981 151.821 198.205C150.729 198.429 149.814 198.461 149.814 198.461L149.284 193.709L147.953 197.606L145.187 196.97C145.187 196.97 146.903 188.473 147.339 185.154C147.771 181.835 150.495 170.55 150.531 166.329C150.568 162.109 147.033 155.258 146.341 151.063C145.65 146.869 147.043 139.664 150.516 134.219C153.989 128.774 156.297 126.68 163.061 121.12C169.814 115.556 174.243 117.406 174.243 117.406Z" fill="#39B4EF" stroke="#002E47" stroke-miterlimit="10"/>
<path d="M163.409 180.897L177.357 182.476L176.572 178.818L167.87 178.068" stroke="#002E47" stroke-miterlimit="10"/>
<path d="M158.532 177.865L157.825 180.261L161.324 180.657" stroke="#002E47" stroke-miterlimit="10"/>
<path d="M163.768 153.913C163.04 153.215 162.395 152.522 161.969 151.928" stroke="#002E47" stroke-miterlimit="10"/>
<path d="M168.618 158.019C168.618 158.019 167.147 156.904 165.535 155.518" stroke="#002E47" stroke-miterlimit="10"/>
<path d="M174.243 117.406C174.243 117.406 169.819 115.556 163.055 121.115C156.292 126.675 153.983 128.769 150.511 134.214C148.363 137.585 147.007 141.628 146.455 145.212C146.539 145.619 146.627 146.03 146.726 146.452C148.66 154.643 150.812 158.603 150.812 158.603C150.812 158.603 154.555 139.94 161.069 132.374C167.578 124.809 178.408 120.209 178.408 120.209L174.243 117.406Z" fill="#39B4EF" stroke="#002E47" stroke-miterlimit="10"/>
<path d="M157.987 81.002C157.987 81.002 153.105 85.5714 152.741 89.1716C152.377 92.7719 151.997 95.8771 151.389 97.039C150.781 98.2009 147.714 98.9616 148.753 100.717C149.788 102.473 150.765 102.442 150.765 102.442C150.765 102.442 152.335 110.21 153.51 111.31C154.685 112.409 158.891 111.773 158.891 111.773L160.186 121.193C160.186 121.193 151.462 128.951 149.762 139.763C148.062 150.568 150.006 156.743 150.006 156.743C150.006 156.743 151.145 139.716 155.075 133.333C159.006 126.956 168.135 120.917 169.481 119.828C170.828 118.739 174.238 117.411 174.238 117.411C174.238 117.411 172.616 113.743 172.398 112.117C172.179 110.497 172.257 108.048 172.559 107.386C172.86 106.725 178.319 104.74 180.378 98.477C182.437 92.2144 179.416 84.8211 176.219 81.6741C173.022 78.522 162.073 76.9485 157.987 81.002Z" fill="#BDBDBD" stroke="#002E47" stroke-miterlimit="10"/>
<path d="M180.383 98.4718C182.442 92.2091 179.421 84.8159 176.224 81.6689C173.027 78.522 162.078 76.9485 157.992 81.002C157.992 81.002 157.732 81.2469 157.326 81.6637C158.168 81.4397 159.843 81.1427 162.073 81.5074C165.343 82.044 165.27 84.6543 164.381 87.1292C163.492 89.604 164.158 90.0677 165.826 91.313C167.495 92.5582 165.79 94.8976 166.96 95.8354C168.13 96.7732 169.091 91.6881 171.66 95.3457C174.228 99.0032 172.497 100.697 170.906 101.728C169.315 102.76 168.026 103.135 168.026 103.135C168.026 103.135 170.438 105.964 172.808 107.131C173.937 106.271 178.532 104.099 180.383 98.4718Z" fill="#002E47" stroke="#002E47" stroke-miterlimit="10" stroke-linecap="round" stroke-linejoin="round"/>
<path d="M153.412 103.812C153.412 103.812 156.817 103.531 158.387 102.009" stroke="#002E47" stroke-miterlimit="10"/>
<path d="M155.574 95.752C155.6 96.5596 155.299 97.2265 154.893 97.2421C154.488 97.2578 154.139 96.6117 154.113 95.8041C154.087 94.9965 154.389 94.3296 154.794 94.314C155.195 94.2984 155.543 94.9444 155.574 95.752Z" fill="#002E47"/>
<path d="M154.108 92.454C154.108 92.454 155.205 90.9743 156.775 92.7197" stroke="#002E47" stroke-miterlimit="10"/>
<path d="M158.891 111.768L162.951 110.236L160.123 115.327L158.891 111.768Z" fill="#002E47" stroke="#002E47" stroke-miterlimit="10"/>
<path d="M147.199 186.55L141.875 209.022L146.653 210.137L149.284 193.704L147.199 186.55Z" fill="white" stroke="#002E47" stroke-miterlimit="10"/>
<path d="M151.904 132.75C150.942 134.881 150.162 137.236 149.762 139.757C148.062 150.563 150.006 156.737 150.006 156.737C150.006 156.737 151.129 139.94 154.997 133.463C153.781 133.318 152.751 133.057 151.904 132.75Z" fill="white" stroke="#002E47" stroke-miterlimit="10"/>
<path d="M168.353 139.763L167.989 158.832L134.69 164.334L135.423 173.321C135.423 173.321 153.905 173.686 162.504 172.957C171.103 172.227 178.605 171.675 179.702 170.758C180.799 169.841 183.918 152.116 185.197 139.648C186.476 127.18 183.918 122.96 178.792 123.694" fill="#39B4EF"/>
<path d="M168.353 139.763L167.989 158.832L134.69 164.334L135.423 173.321C135.423 173.321 153.905 173.686 162.504 172.957C171.103 172.227 178.605 171.675 179.702 170.758C180.799 169.841 183.918 152.116 185.197 139.648C186.476 127.18 183.918 122.96 178.792 123.694" stroke="#002E47" stroke-miterlimit="10"/>
<path d="M114.768 163.526L112.107 171.633L114.727 173.05C114.727 173.05 118.028 175.614 119.837 177C121.646 178.386 123.029 178.386 123.991 177.958C124.948 177.531 129.315 171.342 129.845 170.169C130.375 168.997 127.823 165.475 125.265 163.98C122.707 162.484 120.581 162.484 119.089 162.911C117.602 163.344 114.768 163.526 114.768 163.526Z" fill="white" stroke="#002E47" stroke-miterlimit="10"/>
<path d="M134.69 164.334L130.485 163.969C130.485 163.969 127.558 163.234 126.461 163.234C125.364 163.234 123.898 164.334 123.165 164.886C122.431 165.438 114.384 174.238 114.384 174.238C114.384 174.238 115.117 175.708 116.214 175.338C117.311 174.973 119.323 174.056 119.323 174.056C119.323 174.056 117.129 176.255 118.226 177.354C119.323 178.453 121.153 178.453 121.153 178.453L122.431 177.719C122.431 177.719 123.346 178.453 124.261 178.636C125.176 178.818 126.643 178.453 127.921 177.719C129.2 176.984 132.444 173.16 132.444 173.16L135.257 172.071L134.69 164.334Z" fill="#BDBDBD" stroke="#002E47" stroke-miterlimit="10"/>
<path d="M116.219 163.875C116.219 163.875 121.542 160.78 123.887 161.635C126.232 162.489 129.315 167.715 128.467 168.466C127.615 169.211 126.232 168.893 125.488 168.148C124.745 167.403 123.466 166.652 123.466 166.652C123.466 166.652 121.335 167.934 118.886 167.934" fill="white"/>
<path d="M116.219 163.875C116.219 163.875 121.542 160.78 123.887 161.635C126.232 162.489 129.315 167.715 128.467 168.466C127.615 169.211 126.232 168.893 125.488 168.148C124.745 167.403 123.466 166.652 123.466 166.652C123.466 166.652 121.335 167.934 118.886 167.934" stroke="#002E47" stroke-miterlimit="10"/>
<path d="M132.096 175.989L130.407 175.082C129.835 174.775 129.622 174.066 129.923 173.493C130.23 172.92 130.937 172.707 131.509 173.009L133.198 173.915C133.77 174.223 133.983 174.931 133.682 175.504C133.375 176.078 132.663 176.291 132.096 175.989Z" fill="white" stroke="#002E47" stroke-miterlimit="10"/>
<path d="M130.604 177.802L128.914 176.896C128.343 176.588 128.129 175.88 128.431 175.306C128.738 174.733 129.445 174.52 130.017 174.822L131.706 175.729C132.278 176.036 132.491 176.744 132.19 177.318C131.883 177.891 131.176 178.11 130.604 177.802Z" fill="white" stroke="#002E47" stroke-miterlimit="10"/>
<path d="M128.899 179.402L127.209 178.495C126.637 178.188 126.424 177.479 126.726 176.906C127.032 176.333 127.74 176.119 128.311 176.421L130.001 177.328C130.573 177.635 130.786 178.344 130.485 178.917C130.183 179.49 129.471 179.709 128.899 179.402Z" fill="white" stroke="#002E47" stroke-miterlimit="10"/>
<path d="M125.312 179.48L124.87 179.24C124.298 178.933 124.085 178.224 124.386 177.651C124.693 177.078 125.4 176.864 125.972 177.167L126.414 177.406C126.986 177.714 127.199 178.422 126.897 178.995C126.591 179.574 125.884 179.787 125.312 179.48Z" fill="white" stroke="#002E47" stroke-miterlimit="10"/>
<path d="M114.768 163.526L92.4236 154.059L93.2503 168.888L111.701 173.129L114.768 163.526Z" fill="#002E47" stroke="#002E47" stroke-miterlimit="10" stroke-linecap="round" stroke-linejoin="round"/>
<path d="M111.701 173.129L114.768 163.526L111.644 162.14L111.587 162.458L108.722 172.404L111.701 173.129Z" fill="white" stroke="#002E47" stroke-miterlimit="10"/>
<path d="M79.8892 104.193L85.6183 106.86C85.6183 106.86 88.0202 113.68 87.2196 113.878C86.419 114.076 80.4143 109.267 80.4143 109.267L79.8892 104.193Z" fill="white" stroke="#002E47" stroke-miterlimit="10" stroke-linecap="round" stroke-linejoin="round"/>
<path d="M83.1905 102.828L83.5908 100.53C83.5908 100.53 88.8936 100.895 91.0147 100.884C93.1359 100.874 94.9867 100.592 94.9711 98.3363C94.9555 96.0803 93.7182 88.3849 93.7182 88.3849C93.7182 88.3849 96.0992 87.8378 97.0194 86.7697C97.9396 85.7016 96.6087 84.3834 95.4026 82.7943C94.2017 81.2104 93.1307 79.4911 92.9851 77.631C92.8395 75.771 89.6214 69.6855 89.6214 69.6855C89.6214 69.6855 90.1465 68.7529 88.4101 66.773C86.6737 64.7931 77.7992 64.4493 72.1169 67.2732C66.4397 70.0971 65.14 74.2236 65.166 78.7356C65.192 83.2476 67.7498 89.6093 67.7498 89.6093C67.7498 89.6093 66.0706 96.5232 65.9406 96.9244C65.8107 97.3256 64.3082 100.264 64.3082 100.264C64.3082 100.264 71.4098 105.235 74.0093 107.459C76.6087 109.689 82.4574 113.503 82.4938 111.445C82.5302 109.382 82.7642 104.719 82.7642 104.719L83.1905 102.828Z" fill="white" stroke="#002E47" stroke-miterlimit="10" stroke-linecap="round" stroke-linejoin="round"/>
<path d="M91.0252 81.2782C91.0615 82.0493 90.8796 82.6797 90.6248 82.6901C90.3701 82.7006 90.1361 82.0858 90.0997 81.3199C90.0634 80.5488 90.2453 79.9183 90.5001 79.9079C90.7548 79.8975 90.9888 80.5071 91.0252 81.2782Z" fill="#002E47"/>
<path d="M87.2975 78.7304C87.2975 78.7304 88.4777 76.7297 91.5346 77.9072" stroke="#002E47" stroke-width="2" stroke-miterlimit="10" stroke-linecap="round" stroke-linejoin="round"/>
<path d="M94.9711 98.3363C94.9555 96.0803 93.7182 88.3849 93.7182 88.3849C93.7182 88.3849 92.2573 87.5981 89.4759 88.2806C86.6997 88.9632 85.9302 93.4804 85.4052 94.0171C84.8801 94.5537 81.4124 91.3859 80.0763 89.2706C78.7402 87.1552 77.7888 83.4404 77.6433 81.3198C77.4977 79.1941 82.525 78.1051 83.31 76.1044C84.0951 74.1089 80.3675 72.004 81.688 70.6702C83.0033 69.3364 85.6599 69.847 86.9856 70.1075C88.3113 70.3628 89.6318 69.6907 89.6318 69.6907C89.6318 69.6907 90.1569 68.7581 88.4205 66.7782C86.6841 64.7983 77.8096 64.4544 72.1273 67.2784C66.4501 70.1023 65.1504 74.2288 65.1764 78.7408C65.1972 82.3983 66.8816 87.2647 67.5211 88.984C68.0306 89.1664 68.8624 89.4321 69.2159 89.3383C69.7462 89.2028 70.1309 87.6085 70.3856 86.0142C70.6404 84.4199 74.472 82.539 74.472 82.539C74.472 82.539 75.1634 87.3168 75.1686 88.2442C75.1738 89.1716 74.6747 93.8243 77.2066 96.0647C79.7384 98.3051 83.596 100.54 83.596 100.54C83.596 100.54 88.8988 100.905 91.0199 100.895C93.1411 100.884 94.9867 100.592 94.9711 98.3363Z" fill="#002E47" stroke="#002E47" stroke-miterlimit="10" stroke-linecap="round" stroke-linejoin="round"/>
<path d="M75.2882 85.8423C75.2882 85.8423 74.1912 79.4754 72.3352 79.7516C70.4844 80.0277 69.4395 82.4244 70.3857 85.4724C71.3318 88.5203 73.1826 88.2442 74.2432 87.9733" fill="white"/>
<path d="M75.2882 85.8423C75.2882 85.8423 74.1912 79.4754 72.3352 79.7516C70.4844 80.0277 69.4395 82.4244 70.3857 85.4724C71.3318 88.5203 73.1826 88.2442 74.2432 87.9733" stroke="#002E47" stroke-miterlimit="10" stroke-linecap="round" stroke-linejoin="round"/>
<path d="M88.3009 90.6721C88.3009 90.6721 89.3667 91.9955 92.1533 91.9747" stroke="white" stroke-miterlimit="10" stroke-linecap="round" stroke-linejoin="round"/>
<path d="M58.5322 226.283H86.6009C86.6997 224.803 87.7862 219.114 87.7862 215.383C87.7862 211.069 90.7444 183.278 90.7444 183.278L54.2328 182.799L55.4285 199.81L58.5322 226.283Z" fill="#002E47" stroke="#002E47" stroke-miterlimit="10" stroke-linecap="round" stroke-linejoin="round"/>
<path d="M62.2078 101.238C62.2078 101.238 55.8028 109.46 54.004 114.071C52.2052 118.682 50.8015 119.484 51.2018 125.299C51.6021 131.114 54.4043 154.377 54.4043 154.377L48.8 184.659C48.8 184.659 57.8044 188.269 69.4135 188.269C81.0225 188.269 86.0238 187.269 86.8245 186.868C87.6251 186.467 94.6279 184.664 94.6279 184.664C94.6279 184.664 94.6279 150.37 92.4288 138.538C90.2297 126.706 87.4275 117.682 86.4241 115.478C85.426 113.274 82.2235 106.053 82.2235 106.053L62.2078 101.238Z" fill="#002E47" stroke="#002E47" stroke-miterlimit="10" stroke-linecap="round" stroke-linejoin="round"/>
<path d="M86.4241 115.478C85.426 113.274 82.2235 106.053 82.2235 106.053L62.213 101.238C62.213 101.238 60.8613 102.979 59.2237 105.302C63.5855 107.845 74.3836 114.113 75.023 114.274C75.8236 114.472 79.8268 114.071 79.8268 114.071L78.028 116.275C78.028 116.275 82.8317 120.084 84.433 121.688C85.2752 122.532 87.7187 124.762 89.8502 126.685C88.3893 120.933 87.048 116.864 86.4241 115.478Z" fill="#002E47" stroke="#002E47" stroke-miterlimit="10" stroke-linecap="round" stroke-linejoin="round"/>
<path d="M77.2169 110.466L84.0223 115.879L89.6266 125.909L86.0238 111.268L78.6206 107.058L77.2169 110.466Z" fill="white" stroke="#002E47" stroke-miterlimit="10" stroke-linecap="round" stroke-linejoin="round"/>
<path d="M63.6115 97.4297L84.563 106.891V114.311L60.6066 102.041L63.6115 97.4297Z" fill="white" stroke="#002E47" stroke-miterlimit="10" stroke-linecap="round" stroke-linejoin="round"/>
<path d="M91.3163 173.327H55.1114V202.686H91.3163V173.327Z" fill="#39B4EF" stroke="#002E47" stroke-miterlimit="10"/>
<path d="M75.4337 187.321C75.4337 187.321 78.1267 190.838 79.1769 191.192C80.2323 191.547 80.8146 192.365 81.2825 193.068C81.7504 193.771 82.3378 199.049 82.6862 199.404C83.0397 199.758 83.0397 200.576 81.7504 199.992C80.461 199.404 79.6448 197.413 79.6448 197.413L80.1127 202.108C80.1127 202.108 81.1681 202.342 80.3467 202.931C79.5252 203.52 78.8234 204.338 78.1215 203.989C77.4197 203.634 76.3643 202.696 76.3643 202.696C76.3643 202.696 75.075 203.165 73.7909 202.931C72.5016 202.696 72.7355 203.165 71.5658 202.342C70.396 201.519 70.396 202.462 69.8086 200.935C69.2211 199.409 67.8174 194.131 67.5834 192.61C67.3495 191.083 67.1156 188.973 67.1156 188.973L75.4337 187.321Z" fill="white" stroke="#002E47" stroke-miterlimit="10" stroke-linecap="round" stroke-linejoin="round"/>
<path d="M75.9068 185.091L76.7231 188.728L66.658 190.135L66.1902 186.498L75.9068 185.091Z" fill="white" stroke="#002E47" stroke-miterlimit="10" stroke-linecap="round" stroke-linejoin="round"/>
<path d="M63.0085 108.46C63.0085 108.46 56.0056 110.664 55.8028 113.873C55.6053 117.083 53.2814 156.003 54.2848 158.613C55.2829 161.218 65.1348 187.618 65.1348 187.618L76.5411 186.217C76.5411 186.217 70.6924 155.607 70.4948 155.002C70.2973 154.403 74.4148 120.292 74.4148 120.292" fill="#002E47"/>
<path d="M63.0085 108.46C63.0085 108.46 56.0056 110.664 55.8028 113.873C55.6053 117.083 53.2814 156.003 54.2848 158.613C55.2829 161.218 65.1348 187.618 65.1348 187.618L76.5411 186.217C76.5411 186.217 70.6924 155.607 70.4948 155.002C70.2973 154.403 74.4148 120.292 74.4148 120.292" stroke="#002E47" stroke-miterlimit="10" stroke-linecap="round" stroke-linejoin="round"/>
<path d="M73.0735 130.087L70.4948 155.002L72.9539 170.482" stroke="#878787" stroke-miterlimit="10" stroke-linecap="round" stroke-linejoin="round"/>
<path d="M73.4686 126.273L73.3334 127.597" stroke="#878787" stroke-miterlimit="10" stroke-linecap="round" stroke-linejoin="round"/>
<path d="M55.0022 122.418L54.2328 145.812" stroke="#878787" stroke-miterlimit="10" stroke-linecap="round" stroke-linejoin="round"/>
<path d="M81.1629 166.397L88.8572 166.116L89.5487 168.887L76.8011 169.711" stroke="#878787" stroke-miterlimit="10" stroke-linecap="round" stroke-linejoin="round"/>
<path d="M74.7527 166.626L78.8494 166.48" stroke="#878787" stroke-miterlimit="10" stroke-linecap="round" stroke-linejoin="round"/>
<path d="M60.9029 105.969L75.0178 114.274L79.8216 114.076L78.0176 116.28L87.3183 123.705" stroke="#878787" stroke-miterlimit="10" stroke-linecap="round" stroke-linejoin="round"/>
<path d="M0.575287 226.283H237.898" stroke="#002E47" stroke-miterlimit="10"/>
<path d="M67.6458 11.5658V46.7815" stroke="#002E47" stroke-miterlimit="10"/>
<path d="M121.62 11.5658V46.7815" stroke="#002E47" stroke-miterlimit="10"/>
<path d="M175.595 11.5658V46.7815" stroke="#002E47" stroke-miterlimit="10"/>
</g>
<defs>
<clipPath id="clip0_344_779">
<rect width="247" height="227" fill="white"/>
</clipPath>
</defs>
</svg>
