<svg width="321" height="221" viewBox="0 0 321 221" fill="none" xmlns="http://www.w3.org/2000/svg">
<g clip-path="url(#clip0_344_3198)">
<path d="M226.796 38.6607C176.185 59.6652 129.818 8.48428 79.06 18.102C53.7094 22.9062 31.9118 40.6336 17.9024 61.9369C2.90471 84.7435 -4.64353 114.498 5.20589 140.89C7.94942 148.236 12.02 155.027 17.06 161.003C45.7565 195.035 106.764 213.668 148.542 196.363C148.735 196.282 148.928 196.201 149.121 196.121C195.446 176.378 229.272 200.721 269.314 189.268C314.491 176.349 325.277 112.957 309.093 74.5092C304.589 63.8149 296.801 54.3394 287.677 47.3253C270.237 33.9088 247.22 30.1812 226.796 38.6607Z" fill="#39B4EF"/>
<path opacity="0.7" d="M226.796 38.6607C176.185 59.6652 129.818 8.48428 79.06 18.102C53.7094 22.9062 31.9118 40.6336 17.9024 61.9369C2.90471 84.7435 -4.64353 114.498 5.20589 140.89C7.94942 148.236 12.02 155.027 17.06 161.003C45.7565 195.035 106.764 213.668 148.542 196.363C148.735 196.282 148.928 196.201 149.121 196.121C195.446 176.378 229.272 200.721 269.314 189.268C314.491 176.349 325.277 112.957 309.093 74.5092C304.589 63.8149 296.801 54.3394 287.677 47.3253C270.237 33.9088 247.22 30.1812 226.796 38.6607Z" fill="white"/>
<path d="M156.086 220.64C226.246 220.64 283.121 218.652 283.121 216.201C283.121 213.749 226.246 211.762 156.086 211.762C85.9262 211.762 29.0506 213.749 29.0506 216.201C29.0506 218.652 85.9262 220.64 156.086 220.64Z" fill="#39B4EF"/>
<path d="M285.596 125.695C278.222 128.45 271.201 123.385 268.589 120.744C268.486 120.649 268.392 120.549 268.298 120.454C273.827 151.892 282.66 189.638 282.66 189.638C282.66 189.638 246.058 182.951 229.738 178.597C229.813 179.157 229.982 179.778 230.274 180.485C232.971 186.859 237.865 195.632 227.371 204.449C216.876 213.265 199.775 206.976 195.982 195.281C193.54 187.75 198.839 180.879 201.554 178.351C203.644 176.411 205.935 173.627 204.556 171.45C187.841 167.362 180.048 167.509 159.418 169.169C160.924 165.219 163.573 158.442 166.876 150.749C172.105 138.552 172.764 126.359 168.509 117.457C164.255 108.56 160.331 126.686 146.919 123.058C133.512 119.435 131.549 99.3267 136.782 90.757C142.011 82.1873 150.519 83.1785 158.368 87.461C166.218 91.7482 167.526 88.7794 167.526 88.7794C167.526 88.7794 167.526 82.1873 164.905 63.7296C163.192 51.622 160.072 41.217 158.124 35.488C160.02 35.7441 168.924 36.3749 170.702 36.5172C217.46 40.2353 269.559 38.2956 269.559 38.2956C269.559 38.2956 261.606 62.3542 264.128 90.8329C265.027 92.2129 266.646 93.1425 269.564 91.7482C275.775 88.7841 284.279 83.5057 293.441 93.7258C302.604 103.936 297.041 121.408 285.596 125.695Z" stroke="#002E47" stroke-miterlimit="10"/>
<path d="M166.876 150.745C163.573 158.437 160.924 165.214 159.418 169.165C149.22 169.985 138.768 171.944 128.279 175.463C87.0694 189.306 40.2976 177.772 40.2976 177.772C40.2976 177.772 49.7706 153.775 51.7612 117.818C50.1894 116.689 48.4388 118.804 46.5094 120.749C43.8882 123.39 36.8718 128.455 29.5023 125.7C18.0576 121.408 12.5 103.936 21.6576 93.7164C30.8106 83.4963 39.3188 88.7747 45.5353 91.7387C49.5918 93.6737 51.14 91.1175 51.7235 89.1067C50.02 51.9255 44.2224 41.6391 44.2224 41.6391C44.2224 41.6391 64.3588 38.381 89.4553 36.1141C91.4271 35.4359 93.9729 33.7618 91.8224 29.7259C88.5753 23.6224 82.9282 15.323 92.5988 5.59142C102.269 -4.13069 119.855 0.597573 124.674 11.9084C127.775 19.1929 123.102 26.5105 120.618 29.2707C118.971 31.1108 117.168 32.8086 117.709 34.2455C132.124 33.7002 146.396 33.8899 158.128 35.4786C160.076 41.2075 163.196 51.6078 164.909 63.7201C167.531 82.1779 167.531 88.7699 167.531 88.7699C167.531 88.7699 166.222 91.734 158.373 87.4515C150.524 83.1691 142.02 82.1826 136.787 90.7476C131.554 99.322 133.516 119.425 146.924 123.049C160.335 126.677 164.26 108.551 168.514 117.448C172.764 126.354 172.109 138.547 166.876 150.745Z" stroke="#002E47" stroke-miterlimit="10"/>
<path d="M27.4317 213.621C27.5211 213.644 27.6153 213.587 27.6435 213.497C30.0058 205.862 28.2129 197.392 22.9611 191.397C22.8953 191.321 22.7823 191.317 22.707 191.383C22.6317 191.45 22.627 191.563 22.6929 191.639C27.86 197.539 29.6247 205.876 27.3 213.393C27.2717 213.488 27.3235 213.592 27.4176 213.621C27.4223 213.616 27.427 213.621 27.4317 213.621Z" fill="#002E47"/>
<path d="M25.2906 206.104C27.4976 205.938 28.3447 209.443 28.2647 209.485C28.2318 209.865 28.1847 210.249 28.1329 210.633C28.0294 210.13 27.1306 209.248 25.5918 208.594C24.0906 207.887 23.1823 206.18 25.2906 206.104Z" fill="#002E47"/>
<path d="M31.6859 205.924C33.86 205.843 32.8812 208.693 31.1871 209.139C29.5447 209.632 28.4388 210.201 28.1659 210.633C28.2459 210.254 28.3165 209.874 28.3777 209.495C28.453 209.537 29.6341 206.08 31.6859 205.924Z" fill="#002E47"/>
<path d="M24.9235 202.813C27.0741 202.281 28.4906 205.549 28.42 205.606C28.4482 205.981 28.4718 206.36 28.4812 206.739C28.2929 206.27 27.2576 205.563 25.6341 205.189C24.0388 204.762 22.8576 203.249 24.9235 202.813Z" fill="#002E47"/>
<path d="M31.1965 201.556C33.3235 201.11 32.8341 204.06 31.2388 204.776C29.7 205.535 28.7117 206.275 28.5141 206.735C28.5282 206.355 28.5329 205.976 28.5282 205.596C28.6082 205.63 29.1965 202.058 31.1965 201.556Z" fill="#002E47"/>
<path d="M24.02 199.645C26.0529 198.762 27.987 201.731 27.9259 201.793C28.02 202.158 28.1 202.523 28.1753 202.893C27.9118 202.466 26.7776 201.949 25.1118 201.859C23.4647 201.712 22.0529 200.422 24.02 199.645Z" fill="#002E47"/>
<path d="M29.9965 197.349C32.02 196.552 32.0247 199.535 30.5706 200.508C29.1776 201.508 28.3259 202.405 28.2082 202.888C28.1612 202.514 28.1 202.144 28.0341 201.769C28.1141 201.793 28.1094 198.184 29.9965 197.349Z" fill="#002E47"/>
<path d="M22.5988 196.671C24.4576 195.457 26.8576 198.07 26.8059 198.136C26.9565 198.478 27.0976 198.824 27.2341 199.175C26.9047 198.8 25.7 198.483 24.0435 198.672C22.4012 198.81 20.7918 197.771 22.5988 196.671Z" fill="#002E47"/>
<path d="M28.1094 193.399C29.9729 192.27 30.4765 195.225 29.2012 196.424C27.9965 197.648 27.3 198.672 27.2623 199.17C27.1541 198.81 27.0365 198.454 26.9047 198.099C26.9988 198.103 26.3918 194.542 28.1094 193.399Z" fill="#002E47"/>
<path d="M20.6882 193.958C22.3165 192.45 25.14 194.636 25.0977 194.712C25.3047 195.025 25.5024 195.348 25.6953 195.67C25.3047 195.357 24.0671 195.244 22.4624 195.708C20.8624 196.111 19.093 195.348 20.6882 193.958Z" fill="#002E47"/>
<path d="M25.5682 189.79C27.2153 188.362 28.2223 191.208 27.1682 192.611C26.1847 194.025 25.6718 195.153 25.7188 195.651C25.5494 195.315 25.3753 194.983 25.1871 194.651C25.2812 194.646 24.0718 191.217 25.5682 189.79Z" fill="#002E47"/>
<path d="M23.9259 192.858C23.9824 192.863 22.8435 189.813 21.5824 188.557C20.3777 187.286 19.1494 187.897 18.9706 188.642C18.7777 189.387 19.6529 190.235 20.5188 190.781C21.4129 191.25 23.9447 192.806 23.9259 192.858Z" fill="#002E47"/>
<path d="M23.8976 192.977C23.9023 192.977 23.9071 192.977 23.9118 192.981C23.9635 192.986 24.0106 192.958 24.0341 192.91C24.0341 192.905 24.0388 192.905 24.0388 192.901C24.0482 192.868 24.0576 192.844 24.0341 192.806C23.9212 192.213 22.7494 189.553 21.6671 188.476C21.0741 187.85 20.3776 187.589 19.7518 187.755C19.3 187.878 18.9518 188.215 18.8529 188.618C18.5941 189.628 20.0106 190.61 20.4529 190.89C21.3282 191.345 23.6341 192.763 23.8271 192.934C23.8459 192.948 23.8694 192.967 23.8976 192.977ZM20.4482 187.978C20.7494 188.049 21.1071 188.229 21.4929 188.637C22.4859 189.628 23.3988 191.725 23.7 192.54C23.4882 192.398 23.1494 192.194 22.627 191.872C21.9494 191.459 21.0506 190.923 20.5706 190.672C19.7423 190.15 18.9094 189.349 19.0835 188.67C19.1588 188.353 19.4459 188.082 19.8129 187.983C19.9588 187.945 20.18 187.916 20.4482 187.978Z" fill="#002E47"/>
<path d="M30.2788 214.564C30.3682 214.631 30.5 214.621 30.5753 214.531C36.8624 207.266 38.9659 197.05 36.0718 187.869C36.0341 187.755 35.9118 187.689 35.7988 187.727C35.6859 187.765 35.62 187.888 35.6577 188.002C38.5094 197.036 36.4388 207.09 30.2506 214.242C30.1706 214.332 30.18 214.474 30.2694 214.55C30.2741 214.56 30.2741 214.56 30.2788 214.564Z" fill="#002E47"/>
<path d="M31.5447 205.226C34.0576 206.128 33.3047 210.401 33.1918 210.41C32.9706 210.813 32.7353 211.211 32.4906 211.61C32.6176 211.003 32.0576 209.59 30.6741 208.119C29.3612 206.611 29.1823 204.283 31.5447 205.226Z" fill="#002E47"/>
<path d="M38.6788 208.167C41.1117 209.139 38.66 211.809 36.5753 211.468C34.5235 211.202 33.0317 211.292 32.5235 211.634C32.7917 211.254 33.0553 210.87 33.3047 210.481C33.3706 210.562 36.34 207.327 38.6788 208.167Z" fill="#002E47"/>
<path d="M32.7259 201.423C35.3518 201.888 35.3376 206.189 35.2341 206.213C35.0835 206.644 34.9282 207.071 34.7541 207.493C34.7729 206.882 33.9729 205.601 32.3635 204.392C30.8059 203.135 30.2365 200.887 32.7259 201.423Z" fill="#002E47"/>
<path d="M40.2506 203.107C42.8106 203.657 40.8482 206.668 38.7447 206.678C36.6835 206.758 35.2341 207.09 34.7917 207.503C34.9894 207.09 35.1776 206.673 35.3565 206.256C35.4317 206.331 37.7988 202.684 40.2506 203.107Z" fill="#002E47"/>
<path d="M33.2576 197.487C35.9212 197.506 36.6223 201.731 36.5282 201.769C36.4529 202.215 36.3682 202.661 36.2741 203.102C36.1894 202.5 35.187 201.376 33.3988 200.465C31.6482 199.493 30.7117 197.382 33.2576 197.487Z" fill="#002E47"/>
<path d="M40.9517 197.88C43.5682 197.989 42.1282 201.285 40.0623 201.646C38.0435 202.068 36.6741 202.637 36.307 203.111C36.4341 202.675 36.547 202.239 36.6552 201.793C36.7352 201.855 38.467 197.876 40.9517 197.88Z" fill="#002E47"/>
<path d="M33.1259 193.513C35.7565 193.086 37.1494 197.141 37.06 197.188C37.06 197.638 37.0506 198.094 37.027 198.544C36.8435 197.97 35.6718 197.031 33.7518 196.429C31.8741 195.77 30.6035 193.835 33.1259 193.513Z" fill="#002E47"/>
<path d="M40.7776 192.597C43.3753 192.265 42.5047 195.765 40.5235 196.467C38.6035 197.226 37.3471 198.013 37.0647 198.544C37.1165 198.094 37.1588 197.643 37.1871 197.188C37.2812 197.245 38.3306 193.019 40.7776 192.597Z" fill="#002E47"/>
<path d="M32.3259 189.581C34.8529 188.713 36.9094 192.512 36.8247 192.569C36.9 193.015 36.9659 193.465 37.0223 193.916C36.7447 193.38 35.4317 192.645 33.4411 192.374C31.4788 192.042 29.8929 190.335 32.3259 189.581Z" fill="#002E47"/>
<path d="M39.7141 187.38C42.2223 186.612 41.9588 190.245 40.1188 191.274C38.3541 192.351 37.2435 193.347 37.0553 193.916C37.0317 193.46 36.9988 193.005 36.9517 192.555C37.0553 192.592 37.3753 188.215 39.7141 187.38Z" fill="#002E47"/>
<path d="M36.4247 189.956C36.4859 189.989 36.6977 186.067 35.9118 184.065C35.1965 182.078 33.5494 182.145 32.9894 182.88C32.42 183.61 32.9706 184.971 33.6624 185.996C34.4294 186.949 36.4718 189.908 36.4247 189.956Z" fill="#002E47"/>
<path d="M36.34 190.069C36.3447 190.074 36.3494 190.079 36.3541 190.079C36.4059 190.107 36.4765 190.103 36.5235 190.06C36.5282 190.055 36.5282 190.055 36.5329 190.05C36.5612 190.022 36.58 189.998 36.5706 189.941C36.7306 189.235 36.7212 185.725 36.0482 184.009C35.6953 183.032 35.0553 182.396 34.2835 182.278C33.7282 182.192 33.1776 182.391 32.8765 182.79C32.1047 183.776 33.1918 185.555 33.5447 186.076C34.2882 187.011 36.1471 189.7 36.2835 189.984C36.2882 190.017 36.3118 190.05 36.34 190.069ZM34.9424 182.875C35.2388 183.098 35.5494 183.477 35.7753 184.113C36.3965 185.692 36.3871 188.452 36.3306 189.496C36.1659 189.24 35.8929 188.841 35.4694 188.229C34.9188 187.437 34.1894 186.413 33.78 185.901C33.1212 184.919 32.5894 183.629 33.1071 182.965C33.3471 182.652 33.7894 182.496 34.2412 182.567C34.4247 182.595 34.6788 182.676 34.9424 182.875Z" fill="#002E47"/>
<path d="M291.629 215.1C291.564 215.115 291.498 215.081 291.474 215.015C289.7 209.566 290.895 203.477 294.594 199.123C294.641 199.066 294.721 199.061 294.778 199.109C294.834 199.156 294.839 199.237 294.792 199.294C291.149 203.581 289.978 209.575 291.724 214.934C291.747 215.001 291.709 215.077 291.639 215.1C291.634 215.1 291.634 215.1 291.629 215.1Z" fill="#002E47"/>
<path d="M293.084 209.689C291.498 209.594 290.928 212.113 290.989 212.146C291.018 212.421 291.055 212.691 291.098 212.966C291.168 212.606 291.799 211.961 292.895 211.477C293.964 210.955 294.594 209.722 293.084 209.689Z" fill="#002E47"/>
<path d="M288.495 209.632C286.938 209.599 287.667 211.634 288.886 211.932C290.072 212.269 290.867 212.663 291.069 212.971C291.008 212.701 290.952 212.43 290.905 212.155C290.858 212.184 289.973 209.722 288.495 209.632Z" fill="#002E47"/>
<path d="M293.309 207.327C291.761 206.972 290.782 209.329 290.834 209.367C290.815 209.637 290.806 209.907 290.801 210.182C290.933 209.846 291.662 209.324 292.825 209.039C293.968 208.712 294.796 207.617 293.309 207.327Z" fill="#002E47"/>
<path d="M288.801 206.493C287.272 206.194 287.658 208.304 288.806 208.802C289.916 209.329 290.636 209.846 290.782 210.178C290.768 209.907 290.759 209.632 290.759 209.362C290.702 209.386 290.241 206.834 288.801 206.493Z" fill="#002E47"/>
<path d="M293.926 205.046C292.462 204.434 291.107 206.588 291.149 206.63C291.088 206.891 291.032 207.157 290.985 207.422C291.168 207.114 291.978 206.73 293.168 206.649C294.345 206.521 295.342 205.582 293.926 205.046Z" fill="#002E47"/>
<path d="M289.615 203.467C288.156 202.917 288.185 205.056 289.239 205.739C290.246 206.441 290.867 207.071 290.961 207.418C290.994 207.147 291.032 206.882 291.074 206.616C291.013 206.63 290.98 204.046 289.615 203.467Z" fill="#002E47"/>
<path d="M294.909 202.898C293.563 202.049 291.869 203.946 291.907 203.993C291.803 204.24 291.705 204.491 291.611 204.743C291.846 204.472 292.702 204.231 293.893 204.349C295.074 204.43 296.218 203.666 294.909 202.898Z" fill="#002E47"/>
<path d="M290.923 200.612C289.578 199.825 289.248 201.945 290.171 202.794C291.046 203.657 291.559 204.382 291.587 204.738C291.662 204.477 291.742 204.221 291.832 203.965C291.775 203.974 292.171 201.414 290.923 200.612Z" fill="#002E47"/>
<path d="M296.251 200.93C295.065 199.867 293.065 201.466 293.098 201.518C292.952 201.746 292.815 201.978 292.679 202.21C292.956 201.978 293.841 201.888 294.994 202.201C296.152 202.481 297.413 201.911 296.251 200.93Z" fill="#002E47"/>
<path d="M292.707 197.999C291.512 196.994 290.82 199.042 291.592 200.038C292.312 201.039 292.693 201.845 292.665 202.201C292.782 201.959 292.905 201.717 293.036 201.48C292.966 201.475 293.799 199.004 292.707 197.999Z" fill="#002E47"/>
<path d="M293.916 200.18C293.874 200.185 294.66 197.985 295.549 197.074C296.396 196.149 297.286 196.576 297.422 197.107C297.568 197.639 296.952 198.26 296.335 198.658C295.705 199 293.907 200.143 293.916 200.18Z" fill="#002E47"/>
<path d="M293.94 200.261C293.935 200.261 293.931 200.261 293.931 200.261C293.893 200.266 293.86 200.247 293.841 200.214C293.841 200.214 293.841 200.209 293.836 200.204C293.827 200.18 293.822 200.162 293.841 200.138C293.916 199.711 294.726 197.79 295.493 197.008C295.912 196.552 296.411 196.358 296.858 196.472C297.182 196.552 297.436 196.794 297.512 197.079C297.709 197.8 296.702 198.521 296.392 198.725C295.771 199.061 294.133 200.105 293.992 200.228C293.978 200.247 293.959 200.256 293.94 200.261ZM296.359 196.643C296.142 196.695 295.888 196.832 295.615 197.126C294.914 197.847 294.283 199.36 294.076 199.948C294.227 199.844 294.467 199.692 294.839 199.455C295.319 199.151 295.959 198.758 296.298 198.573C296.886 198.189 297.474 197.605 297.342 197.122C297.286 196.894 297.079 196.704 296.815 196.638C296.707 196.614 296.552 196.595 296.359 196.643Z" fill="#002E47"/>
<path d="M289.596 215.807C289.531 215.859 289.441 215.85 289.385 215.788C284.801 210.652 283.182 203.353 285.159 196.737C285.182 196.652 285.272 196.605 285.352 196.633C285.436 196.657 285.484 196.747 285.455 196.828C283.507 203.334 285.102 210.519 289.615 215.575C289.672 215.641 289.667 215.741 289.606 215.797C289.606 215.802 289.601 215.807 289.596 215.807Z" fill="#002E47"/>
<path d="M288.589 209.13C286.796 209.803 287.385 212.857 287.465 212.862C287.629 213.151 287.799 213.431 287.978 213.716C287.879 213.284 288.269 212.264 289.243 211.193C290.171 210.097 290.274 208.423 288.589 209.13Z" fill="#002E47"/>
<path d="M283.507 211.311C281.771 212.037 283.559 213.919 285.051 213.654C286.519 213.441 287.587 213.493 287.959 213.73C287.761 213.464 287.568 213.189 287.385 212.914C287.338 212.976 285.178 210.69 283.507 211.311Z" fill="#002E47"/>
<path d="M287.705 206.412C285.827 206.777 285.884 209.855 285.959 209.874C286.072 210.182 286.189 210.486 286.316 210.789C286.298 210.353 286.853 209.424 287.996 208.542C289.098 207.621 289.484 206.004 287.705 206.412Z" fill="#002E47"/>
<path d="M282.331 207.707C280.5 208.129 281.94 210.268 283.451 210.254C284.928 210.287 285.973 210.51 286.293 210.804C286.147 210.51 286.006 210.216 285.874 209.917C285.818 209.964 284.081 207.375 282.331 207.707Z" fill="#002E47"/>
<path d="M287.281 203.6C285.371 203.642 284.914 206.678 284.985 206.706C285.041 207.024 285.107 207.342 285.182 207.659C285.239 207.228 285.945 206.412 287.215 205.734C288.453 205.023 289.102 203.495 287.281 203.6Z" fill="#002E47"/>
<path d="M281.771 203.965C279.898 204.074 280.961 206.417 282.448 206.654C283.898 206.934 284.891 207.327 285.154 207.664C285.06 207.351 284.971 207.038 284.891 206.725C284.834 206.773 283.55 203.937 281.771 203.965Z" fill="#002E47"/>
<path d="M287.333 200.75C285.441 200.475 284.486 203.396 284.552 203.429C284.556 203.752 284.571 204.079 284.589 204.401C284.716 203.989 285.545 203.301 286.914 202.851C288.255 202.353 289.145 200.954 287.333 200.75Z" fill="#002E47"/>
<path d="M281.836 200.18C279.973 199.972 280.632 202.471 282.062 202.95C283.446 203.472 284.359 204.022 284.566 204.401C284.524 204.079 284.491 203.756 284.462 203.434C284.392 203.472 283.596 200.456 281.836 200.18Z" fill="#002E47"/>
<path d="M287.865 197.923C286.044 197.33 284.613 200.071 284.674 200.114C284.622 200.437 284.585 200.759 284.547 201.082C284.74 200.693 285.672 200.152 287.098 199.939C288.495 199.678 289.615 198.435 287.865 197.923Z" fill="#002E47"/>
<path d="M282.542 196.429C280.735 195.908 280.966 198.506 282.293 199.222C283.568 199.977 284.378 200.674 284.519 201.082C284.528 200.754 284.552 200.432 284.58 200.105C284.505 200.133 284.227 197.003 282.542 196.429Z" fill="#002E47"/>
<path d="M284.928 198.236C284.886 198.26 284.688 195.452 285.234 194.006C285.724 192.574 286.909 192.607 287.314 193.124C287.733 193.641 287.347 194.622 286.867 195.367C286.326 196.059 284.895 198.203 284.928 198.236Z" fill="#002E47"/>
<path d="M284.989 198.317C284.985 198.321 284.98 198.321 284.98 198.326C284.942 198.35 284.891 198.345 284.858 198.317C284.858 198.317 284.853 198.312 284.853 198.307C284.834 198.288 284.815 198.269 284.825 198.231C284.702 197.724 284.669 195.21 285.135 193.973C285.375 193.266 285.832 192.806 286.382 192.711C286.778 192.645 287.178 192.782 287.394 193.062C287.959 193.759 287.196 195.049 286.952 195.424C286.429 196.102 285.126 198.051 285.032 198.255C285.027 198.279 285.013 198.302 284.989 198.317ZM285.912 193.143C285.7 193.309 285.484 193.579 285.328 194.039C284.9 195.177 284.938 197.155 284.989 197.904C285.107 197.719 285.295 197.43 285.592 196.989C285.978 196.415 286.491 195.675 286.778 195.3C287.239 194.589 287.606 193.66 287.229 193.19C287.055 192.967 286.735 192.858 286.415 192.915C286.284 192.939 286.1 193 285.912 193.143Z" fill="#002E47"/>
<path d="M159.408 102.608L157.182 102.457L156.956 108.812L159.408 108.66V102.608Z" fill="white" stroke="#002E47" stroke-miterlimit="10" stroke-linecap="round" stroke-linejoin="round"/>
<path d="M174.387 101.636L159.408 102.609L159.432 110.092L175.145 113.132L174.387 101.636Z" fill="#002E47" stroke="#002E47" stroke-miterlimit="10" stroke-linecap="round" stroke-linejoin="round"/>
<path d="M157.182 102.457C157.182 102.457 151.027 99.8389 150.213 99.8389C149.399 99.8389 146.952 103.125 146.284 104.249C145.615 105.369 146.062 106.042 146.655 106.715C147.248 107.389 149.399 108.285 150.881 108.133C152.364 107.982 157.036 107.46 157.036 107.46L157.182 102.457Z" fill="white" stroke="#002E47" stroke-miterlimit="10" stroke-linecap="round" stroke-linejoin="round"/>
<path d="M101.658 207.294C101.658 207.294 100.166 207.199 100.072 207.669C99.9776 208.138 100.443 212.843 100.909 213.218C101.375 213.592 102.307 213.877 104.547 213.972C106.787 214.066 109.959 213.597 109.959 213.597L109.587 208.238L101.658 207.294Z" fill="#828282" stroke="#002E47" stroke-miterlimit="10"/>
<path d="M99.9164 160.135C99.9164 160.135 99.9164 167.87 98.8811 172.257C97.8459 176.648 99.5635 185.953 100.811 191.179C102.053 196.405 101.846 200.797 101.846 200.797C101.846 200.797 99.5635 203.932 99.9776 205.397C100.392 206.863 100.745 207.441 102.401 207.859C104.062 208.276 104.269 207.484 106.613 209.158C109.526 211.24 113.248 212.084 114.288 210.832C115.323 209.58 113.874 208.949 113.046 208.323C112.218 207.697 110.349 204.771 108.895 202.68C107.441 200.588 108.274 193.275 108.274 187.001C108.274 180.727 111.324 162.435 111.324 162.435L99.9164 160.135Z" fill="white" stroke="#002E47" stroke-miterlimit="10"/>
<path d="M108.006 161.6C108.006 161.6 105.516 172.261 106.345 177.07C107.173 181.879 107.648 195.153 107.441 200.588C107.338 203.306 106.194 204.999 105.846 206.113C105.403 207.527 105.691 209.096 106.716 210.154C107.262 210.714 107.94 211.145 108.745 211.145C111.027 211.145 111.385 211.036 114.495 212.497C117.606 213.957 120.923 213.962 122.585 213.123C124.246 212.288 123.62 211.657 121.756 210.823C119.888 209.988 118.429 207.441 115.582 205.355C114.006 204.202 114.006 199.436 114.006 199.436C114.006 199.436 117.756 172.669 118.585 167.652C119.413 162.634 119.206 158.873 119.206 158.873L108.006 161.6Z" fill="white" stroke="#002E47" stroke-miterlimit="10"/>
<path d="M105.672 208.423L105.86 214.256C105.86 214.256 106.048 214.541 109.592 214.726C113.14 214.915 112.764 214.536 117.62 215.385C122.472 216.229 123.78 214.351 123.874 214.066C123.968 213.782 123.78 212.279 123.78 212.279C123.78 212.279 121.912 213.312 117.62 212.748C113.328 212.184 111.832 211.15 109.968 209.926C108.095 208.703 105.672 208.423 105.672 208.423Z" fill="#828282" stroke="#002E47" stroke-miterlimit="10"/>
<path d="M115.582 205.359L114.072 211.714C114.072 211.714 116.029 212.748 117.62 212.748L119.206 208.798C119.201 208.798 117.747 206.251 115.582 205.359Z" fill="#39B4EF" stroke="#002E47" stroke-miterlimit="10"/>
<path d="M126.886 97.3111C126.886 97.3111 126.806 96.4196 127.371 95.362C127.935 94.3091 127.451 93.3322 126.566 94.0625C125.681 94.7929 125.276 96.3342 125.276 96.3342L126.886 97.3111Z" fill="white" stroke="#002E47" stroke-miterlimit="10"/>
<path d="M127.159 84.8076L110.381 82.6497L106.486 113.408L123.264 115.566L127.159 84.8076Z" fill="white" stroke="#002E47" stroke-miterlimit="10"/>
<path d="M100.161 106.303C100.161 106.303 96.0059 113.578 93.2718 122.176C90.5376 130.774 91.3047 162.302 91.4129 162.634C91.5212 162.966 93.4929 164.066 97.6482 164.066C101.804 164.066 104.759 163.848 104.759 163.848C104.759 163.848 107.493 165.28 110.448 165.171C113.404 165.062 116.684 163.739 116.684 163.739C116.684 163.739 117.121 164.18 119.201 163.739C121.281 163.298 123.14 162.307 123.14 162.307L125.107 161.207C125.107 161.207 123.578 146.766 122.265 141.582C120.952 136.399 119.968 113.692 119.747 112.7C119.531 111.709 119.964 114.683 119.531 111.709C119.093 108.731 118.156 106.398 118.156 106.398L100.161 106.303Z" fill="#39B4EF" stroke="#002E47" stroke-miterlimit="10"/>
<path d="M98.0012 136.024C98.2694 136.622 98.5517 137.195 98.8529 137.722" stroke="#002E47" stroke-miterlimit="10"/>
<path d="M94.9141 125.263C94.9141 125.263 95.78 130.423 97.5118 134.843" stroke="#002E47" stroke-miterlimit="10"/>
<path d="M96.4482 135.958C96.4482 135.958 97.6529 138.163 99.4035 141.027" stroke="#002E47" stroke-miterlimit="10"/>
<path d="M104.98 158.731V148.966" stroke="#002E47" stroke-miterlimit="10"/>
<path d="M104.98 162.966V161.05" stroke="#002E47" stroke-miterlimit="10"/>
<path d="M108.369 114.346C108.27 115.181 108.19 115.978 108.152 116.67" stroke="#002E47" stroke-miterlimit="10"/>
<path d="M109.681 106.194C109.681 106.194 109.022 109.561 108.561 112.857" stroke="#002E47" stroke-miterlimit="10"/>
<path d="M104.872 106.526L103.446 112.146" stroke="#002E47" stroke-miterlimit="10"/>
<path d="M122.044 145.661C122.044 145.661 122.811 155.691 122.481 158.888" stroke="#002E47" stroke-miterlimit="10"/>
<path d="M111.286 71.5215C111.286 71.5215 116.124 74.4476 116.124 77.7816C116.124 81.1155 114.674 82.2537 114.914 82.7375C115.154 83.226 117.253 81.5993 117.333 82.8181C117.413 84.0369 116.688 86.7212 114.754 87.1243C112.82 87.5321 110.317 86.3939 108.542 81.5187C106.768 76.6434 110.237 71.5215 111.286 71.5215Z" fill="#002E47" stroke="#002E47" stroke-miterlimit="10"/>
<path d="M102.895 73.8643C102.895 73.8643 98.0435 74.3954 95.7518 80.7978C93.46 87.1954 99.2812 101.062 99.7188 102.039C100.161 103.016 100.161 106.308 100.161 106.308L118.152 106.398C118.152 106.398 117.625 95.5517 116.829 91.0226C116.034 86.4935 114.448 80.8025 111.804 77.6014C109.159 74.4002 107.662 72.7972 102.895 73.8643Z" fill="#39B4EF" stroke="#002E47" stroke-miterlimit="10"/>
<path d="M99.9871 103.197C100.161 104.529 100.161 106.308 100.161 106.308L118.152 106.398C118.152 106.398 118.072 104.8 117.931 102.575H99.9824V103.197H99.9871Z" fill="#002E47" stroke="#002E47" stroke-miterlimit="10"/>
<path d="M126.241 99.7487C126.241 99.7487 127.126 97.5577 126.886 97.3158C126.646 97.074 125.032 95.7745 124.632 95.7745C124.227 95.7745 121.248 96.0164 121.248 96.4243C121.248 96.8321 122.053 96.9934 122.053 96.9934C122.053 96.9934 121.328 97.4818 121.408 97.8849C121.488 98.2928 122.9 98.6485 122.9 98.6485L126.241 99.7487Z" fill="white" stroke="#002E47" stroke-miterlimit="10"/>
<path d="M122.618 96.8226C122.618 96.8226 123.987 96.742 124.227 96.8226C124.467 96.9033 126.241 98.2833 126.241 98.2833" stroke="#002E47" stroke-miterlimit="10"/>
<path d="M100.947 85.1893L114.001 105.445C114.001 105.445 116.006 106.417 117.338 107.014C118.674 107.612 122.604 107.313 126.236 107.014C129.869 106.715 144.124 104.472 144.124 104.472C144.124 104.472 145.013 105.819 145.902 106.64C146.792 107.46 148.425 108.508 148.942 108.584C149.46 108.66 150.872 108.133 150.872 108.133C150.872 108.133 151.686 108.731 152.354 108.655C153.022 108.579 153.319 108.432 153.394 108.133C153.469 107.835 153.173 105.516 152.947 104.847C152.726 104.174 150.942 102.381 150.942 102.381C150.942 102.381 148.345 100.138 147.902 100.062C147.455 99.9859 141.822 100.285 141.822 100.285L122.9 98.6438C122.9 98.6438 123.493 98.345 122.307 97.7474C121.121 97.1499 119.935 97.074 119.935 97.074C119.935 97.074 109.554 75.7707 107.846 74.2769C106.142 72.783 102.655 73.3805 100.429 75.472C98.2035 77.5634 98.4247 80.1054 98.4247 80.1054" fill="#39B4EF"/>
<path d="M100.947 85.1893L114.001 105.445C114.001 105.445 116.006 106.417 117.338 107.014C118.674 107.612 122.604 107.313 126.236 107.014C129.869 106.715 144.124 104.472 144.124 104.472C144.124 104.472 145.013 105.819 145.902 106.64C146.792 107.46 148.425 108.508 148.942 108.584C149.46 108.66 150.872 108.133 150.872 108.133C150.872 108.133 151.686 108.731 152.354 108.655C153.022 108.579 153.319 108.432 153.394 108.133C153.469 107.835 153.173 105.516 152.947 104.847C152.726 104.174 150.942 102.381 150.942 102.381C150.942 102.381 148.345 100.138 147.902 100.062C147.455 99.9859 141.822 100.285 141.822 100.285L122.9 98.6438C122.9 98.6438 123.493 98.345 122.307 97.7474C121.121 97.1499 119.935 97.074 119.935 97.074C119.935 97.074 109.554 75.7707 107.846 74.2769C106.142 72.783 102.655 73.3805 100.429 75.472C98.2035 77.5634 98.4247 80.1054 98.4247 80.1054" stroke="#002E47" stroke-miterlimit="10" stroke-linecap="round" stroke-linejoin="round"/>
<path d="M153.399 108.138C153.474 107.839 153.178 105.52 152.952 104.852C152.731 104.178 150.947 102.386 150.947 102.386C150.947 102.386 148.349 100.142 147.907 100.066C147.46 99.9906 141.827 100.289 141.827 100.289L126.886 98.933L125.502 107.076C125.747 107.057 125.992 107.038 126.232 107.014C129.865 106.715 144.119 104.472 144.119 104.472C144.119 104.472 145.008 105.819 145.898 106.64C146.787 107.46 148.42 108.508 148.938 108.584C149.455 108.66 150.867 108.133 150.867 108.133C150.867 108.133 151.681 108.731 152.349 108.655C153.027 108.584 153.324 108.437 153.399 108.138Z" fill="white" stroke="#002E47" stroke-miterlimit="10" stroke-linecap="round" stroke-linejoin="round"/>
<path d="M121.342 98.9426C121.342 98.9426 117.634 101.262 116.891 103.054" stroke="#002E47" stroke-miterlimit="10" stroke-linecap="round" stroke-linejoin="round"/>
<path d="M120.156 98.4968C120.156 98.4968 115.931 99.9906 115.041 101.039" stroke="#002E47" stroke-miterlimit="10" stroke-linecap="round" stroke-linejoin="round"/>
<path d="M112.575 69.8142L110.316 74.7749L107.088 68.9226L108.058 67.7844L112.575 69.8142Z" fill="white" stroke="#002E47" stroke-miterlimit="10"/>
<path d="M114.914 51.935C114.914 51.935 116.364 54.4533 116.608 56.1606C116.848 57.8678 116.688 59.8976 116.688 59.8976C116.688 59.8976 118.787 62.7431 118.787 63.4735C118.787 64.2038 117.093 64.9342 117.093 64.9342C117.093 64.9342 116.608 68.5906 116.528 69.4063C116.448 70.2173 115.724 71.1136 114.914 71.1136C114.109 71.1136 109.027 69.4869 108.302 69.2451C107.578 69.0032 105.319 62.9044 107.013 58.5982C108.707 54.292 114.914 51.935 114.914 51.935Z" fill="white" stroke="#002E47" stroke-miterlimit="10"/>
<path d="M114.994 59.7364C114.994 60.2296 114.778 60.6327 114.509 60.6327C114.241 60.6327 114.025 60.2344 114.025 59.7364C114.025 59.2432 114.241 58.8401 114.509 58.8401C114.778 58.8448 114.994 59.2432 114.994 59.7364Z" fill="#002E47"/>
<path d="M113.625 57.9485C113.625 57.9485 114.834 57.2987 115.639 58.0291" stroke="#002E47" stroke-miterlimit="10"/>
<path d="M115.879 66.0771C115.879 66.0771 114.909 66.2384 114.105 65.0195" stroke="#002E47" stroke-miterlimit="10"/>
<path d="M117.093 49.3361C117.093 49.3361 115.239 51.8544 112.255 56.815C109.272 61.7709 109.027 69.9802 109.027 69.9802C109.027 69.9802 111.526 73.2335 112.171 76.1549C112.815 79.0763 111.366 80.3805 111.366 80.3805C111.366 80.3805 110.053 75.8941 107.846 74.2769C105.639 72.6597 103.38 72.5411 102.9 73.8595C102.415 75.1779 104.914 78.1041 103.785 80.5417C102.655 82.9793 98.3024 85.2557 98.6224 87.94C98.9471 90.6242 100.961 92.7346 100.316 95.988C99.6718 99.2366 96.2835 100.541 94.5894 99.4026C92.8953 98.2644 93.54 97.2874 93.7 97.0456C93.86 96.8037 94.5894 95.8267 93.46 94.6885C92.3306 93.5503 89.0224 91.1127 89.8318 88.9169C90.6365 86.7212 93.7047 86.1521 92.7353 83.3919C91.7659 80.6271 87.8976 76.7287 89.5071 73.6366C91.1212 70.5493 94.5094 70.222 93.7 66.2383C92.8953 62.2547 92.1659 61.8515 93.0553 58.0291C93.9447 54.2114 98.1377 49.3314 99.9918 47.9513C101.846 46.5712 107.333 45.3524 108.622 45.433C109.912 45.5137 113.06 46.8131 114.105 47.1403C115.149 47.4676 117.653 47.8707 117.093 49.3361Z" fill="#002E47" stroke="#002E47" stroke-miterlimit="10"/>
<path d="M144.453 103.263C144.453 103.263 142.754 105.236 143.018 105.696C143.276 106.156 144.194 106.483 144.194 106.483C144.194 106.483 145.173 104.904 145.305 103.984C145.432 103.069 145.041 103.002 144.453 103.263Z" fill="white" stroke="#002E47" stroke-miterlimit="10" stroke-linecap="round" stroke-linejoin="round"/>
<path d="M146.279 104.249C146.279 104.249 144.194 105.961 144.194 106.488C144.194 107.014 144.519 107.474 144.914 107.275C145.305 107.076 146.613 105.895 146.74 105.037C146.872 104.183 146.731 104.249 146.279 104.249Z" fill="white" stroke="#002E47" stroke-miterlimit="10" stroke-linecap="round" stroke-linejoin="round"/>
<path d="M146.749 105.587C146.749 105.587 145.229 107.005 145.305 107.379C145.38 107.754 145.898 108.015 146.194 108.015C146.491 108.015 147.488 107.01 147.747 106.26C148.011 105.511 147.601 104.989 146.749 105.587Z" fill="white" stroke="#002E47" stroke-miterlimit="10" stroke-linecap="round" stroke-linejoin="round"/>
<path d="M147.676 106.554C147.676 106.554 146.604 108.271 146.712 108.456C146.825 108.641 147.38 109.163 147.639 108.793C147.898 108.418 148.749 107.413 148.674 106.739C148.604 106.071 148.086 106.108 147.676 106.554Z" fill="white" stroke="#002E47" stroke-miterlimit="10" stroke-linecap="round" stroke-linejoin="round"/>
<path d="M183.917 73.9923C183.917 73.9923 180.034 77.3358 179.653 78.3839C179.272 79.4319 179.272 80.6745 179.272 80.6745C179.272 80.6745 174.157 86.5931 173.775 89.3627C173.394 92.1323 174.815 97.0029 174.815 97.0029L186.279 74.4713L183.917 73.9923Z" fill="#002E47" stroke="#002E47" stroke-miterlimit="10" stroke-linecap="round" stroke-linejoin="round"/>
<path d="M211.427 211.956L211.389 214.342C211.389 214.342 207.389 215.048 204.189 214.745L204.091 213.033L211.427 211.956Z" fill="#002E47" stroke="#002E47" stroke-miterlimit="10" stroke-linecap="round" stroke-linejoin="round"/>
<path d="M196.058 202.025C196.058 202.025 195.714 204.373 195.192 205.17C194.665 205.962 193.959 207.057 191.724 207.982C189.488 208.907 183.818 210.851 184.081 211.909C184.345 212.966 184.867 213.497 185.394 213.63C185.921 213.763 190.076 214.436 193.493 214.436C196.909 214.436 201.182 214.598 202.495 214.071C203.808 213.54 205.121 213.014 206.566 213.014C208.011 213.014 210.9 212.748 211.427 211.956C211.954 211.164 211.164 207.455 210.768 206.398C210.373 205.34 209.841 203.709 209.841 203.709L196.058 202.025Z" fill="#002E47" stroke="#002E47" stroke-miterlimit="10" stroke-linecap="round" stroke-linejoin="round"/>
<path d="M201.22 135.721C201.22 135.721 201.681 164.863 201.832 167.486C201.987 170.108 205.196 183.985 207.644 190.767C210.091 197.553 210.279 204.899 210.279 204.899C210.279 204.899 205.502 205.876 204.429 206.033C203.356 206.189 199.074 205.108 199.074 205.108C199.074 205.108 195.86 179.048 195.86 163.474C195.86 147.899 196.933 136.489 196.933 136.489L201.22 135.721Z" fill="#002E47" stroke="#002E47" stroke-miterlimit="10" stroke-linecap="round" stroke-linejoin="round"/>
<path d="M204.025 213.668L203.987 216.054C203.987 216.054 199.987 216.76 196.787 216.457L196.688 214.745L204.025 213.668Z" fill="#002E47" stroke="#002E47" stroke-miterlimit="10" stroke-linecap="round" stroke-linejoin="round"/>
<path d="M188.66 203.737C188.66 203.737 188.316 206.085 187.794 206.882C187.267 207.674 186.561 208.769 184.326 209.694C182.091 210.619 176.42 212.563 176.684 213.621C176.947 214.678 177.469 215.209 177.996 215.342C178.524 215.475 182.679 216.148 186.095 216.148C189.512 216.148 193.785 216.31 195.098 215.783C196.411 215.252 197.724 214.726 199.168 214.726C200.613 214.726 203.502 214.46 204.029 213.668C204.556 212.876 203.766 209.167 203.371 208.11C202.975 207.052 202.444 205.421 202.444 205.421L188.66 203.737Z" fill="#002E47" stroke="#002E47" stroke-miterlimit="10" stroke-linecap="round" stroke-linejoin="round"/>
<path d="M179.493 135.104C179.493 135.104 181.634 155.611 182.707 160.391C183.78 165.171 186.989 180.437 186.989 180.437C186.989 180.437 188.98 196.012 188.98 196.628C188.98 197.245 188.98 199.094 188.98 199.094C188.98 199.094 187.352 200.811 187.352 201.579C187.352 202.353 188.095 205.871 188.095 205.871C188.095 205.871 190.975 206.725 194.801 207.185C198.599 207.645 203.074 207.318 203.074 207.318C203.074 207.318 203.206 197.752 202.138 188.808C201.065 179.864 198.316 165.788 198.316 161.316C198.316 156.844 199.084 147.591 199.234 146.974C199.389 146.358 199.846 136.645 199.846 136.645L179.493 135.104Z" fill="#002E47" stroke="#002E47" stroke-miterlimit="10" stroke-linecap="round" stroke-linejoin="round"/>
<path d="M179.879 45.9737C179.879 45.9737 177.196 50.9248 177.196 52.0204C177.196 53.1111 177.662 53.7371 177.507 54.0501C177.352 54.3631 174.952 57.7161 174.796 58.5745C174.641 59.4329 176.345 60.5236 176.575 60.756C176.806 60.9884 177.041 65.1238 177.347 66.2952C177.658 67.4666 178.665 68.4009 179.512 68.4009C180.364 68.4009 181.446 68.0879 181.446 68.0879L185.7 70.9713L197.385 64.0283L197.229 61.5338C197.229 61.5338 200.834 55.4681 201.069 54.2968C201.3 53.1254 201.465 47.8896 200.302 45.9405C199.14 43.9913 193.799 41.5395 190.938 40.6811C188.076 39.8227 182.735 42.0754 181.578 42.8579C180.415 43.6356 178.947 44.5746 179.178 45.12C179.413 45.6607 179.879 45.9737 179.879 45.9737Z" fill="white" stroke="#002E47" stroke-miterlimit="10" stroke-linecap="round" stroke-linejoin="round"/>
<path d="M200.307 45.9405C199.145 43.9913 193.804 41.5395 190.942 40.6811C188.081 39.8227 182.74 42.0754 181.582 42.8579C180.42 43.6356 178.952 44.5746 179.182 45.12C179.413 45.6654 179.879 45.9784 179.879 45.9784C179.879 45.9784 180.575 46.1349 181.116 45.6654C181.658 45.1959 181.502 44.6505 184.829 44.0293C188.156 43.4032 188.956 45.5516 187.794 46.7183C186.632 47.8896 184.467 49.3693 184.853 50.6166C185.239 51.8639 188.721 53.4241 188.721 53.4241C188.721 53.4241 188.411 54.8279 188.721 55.1409C189.032 55.4539 189.573 55.5298 189.573 55.5298C189.573 55.5298 191.893 52.8787 192.98 53.4241C194.062 53.9695 195.455 56.5447 195.3 57.792C195.145 59.0392 193.286 61.3014 193.286 61.3014L191.968 61.6144C191.968 61.6144 194.368 63.1747 197.229 61.5385C197.229 61.5385 200.834 55.4729 201.069 54.3015C201.309 53.1254 201.469 47.8896 200.307 45.9405Z" fill="#002E47" stroke="#002E47" stroke-miterlimit="10" stroke-linecap="round" stroke-linejoin="round"/>
<path d="M179.982 54.8232C179.982 55.3401 179.794 55.7575 179.559 55.7575C179.324 55.7575 179.135 55.3401 179.135 54.8232C179.135 54.3063 179.324 53.8889 179.559 53.8889C179.789 53.8889 179.982 54.3063 179.982 54.8232Z" fill="#002E47"/>
<path d="M178.279 52.7981C178.279 52.7981 179.902 51.7074 180.989 52.7981" stroke="#002E47" stroke-miterlimit="10" stroke-linecap="round" stroke-linejoin="round"/>
<path d="M178.279 61.3773C178.279 61.3773 179.827 61.5338 180.989 60.5995" stroke="#002E47" stroke-miterlimit="10" stroke-linecap="round" stroke-linejoin="round"/>
<path d="M178.82 56.2269C178.82 56.2269 179.516 57.6307 180.524 57.6307" stroke="#002E47" stroke-miterlimit="10" stroke-linecap="round" stroke-linejoin="round"/>
<path d="M181.451 68.0832L184.081 66.76L183.926 69.5676L181.451 68.0832Z" fill="#002E47" stroke="#002E47" stroke-miterlimit="10" stroke-linecap="round" stroke-linejoin="round"/>
<path d="M197.394 63.0941L184.161 71.5926L183.385 77.0512L199.173 65.1191L197.394 63.0941Z" fill="white" stroke="#002E47" stroke-miterlimit="10" stroke-linecap="round" stroke-linejoin="round"/>
<path d="M199.173 65.1191C199.173 65.1191 184.237 74.3243 181.681 79.1569C179.126 83.9942 174.095 90.3871 173.94 94.366C173.785 98.345 173.94 129.773 173.865 132.111C173.789 134.45 181.451 139.211 189.653 139.989C197.855 140.767 205.902 137.105 206.679 136.636C207.451 136.166 208.999 134.763 208.999 134.763C208.999 134.763 206.679 120.492 206.679 118.619C206.679 116.746 206.058 112.534 206.058 112.534L207.761 98.5726C207.761 98.5726 207.065 80.793 206.138 76.6576C205.211 72.5221 201.032 65.3467 201.032 65.3467C201.032 65.3467 200.255 64.4978 199.173 65.1191Z" fill="#002E47" stroke="#002E47" stroke-miterlimit="10" stroke-linecap="round" stroke-linejoin="round"/>
<path d="M174.411 92.175C174.307 92.4833 174.218 92.782 174.147 93.0761L175.258 91.4067C175.258 91.4067 181.912 84.8573 183.695 82.5146C185.474 80.1765 189.112 77.2124 189.112 77.2124L189.653 74.9503L190.425 76.1976C190.425 76.1976 193.677 72.2992 195.997 70.8148C198.316 69.3352 201.258 67.6943 201.258 67.6943" stroke="#A1A1A1" stroke-miterlimit="10" stroke-linecap="round" stroke-linejoin="round"/>
<path d="M205.867 110.805L177.558 100.49L170.082 121.327L198.392 131.642L205.867 110.805Z" fill="#39B4EF" stroke="#002E47" stroke-miterlimit="10" stroke-linecap="round" stroke-linejoin="round"/>
<path d="M190.124 117.263C190.124 117.263 187.832 118.463 187.465 118.558C187.098 118.648 182.147 118.003 181.691 118.188C181.234 118.373 179.855 119.202 179.126 119.387C178.397 119.572 178.669 120.772 179.582 121.052C180.5 121.327 182.792 120.682 182.792 120.682L183.432 121.422C183.432 121.422 181.507 126.871 181.964 127.336C182.42 127.796 182.787 128.261 183.248 128.076C183.705 127.891 184.533 127.616 184.533 127.616C184.533 127.616 186.641 128.446 187.098 128.631C187.554 128.816 189.117 128.906 189.484 128.721C189.851 128.536 190.218 128.076 190.585 127.521C190.952 126.966 192.509 122.442 192.509 122.442L193.149 120.777L190.124 117.263Z" fill="white" stroke="#002E47" stroke-miterlimit="10" stroke-linecap="round" stroke-linejoin="round"/>
<path d="M194.062 75.6854C194.062 75.6854 192.044 76.4252 191.404 81.3195C190.764 86.2137 192.321 90.0978 193.239 91.4826C194.157 92.8674 201.719 103.367 201.719 103.367C201.719 103.367 200.801 104.197 200.895 104.662C200.985 105.122 200.985 105.122 200.985 105.122L188.839 116.978L193.517 121.782C193.517 121.782 208.453 114.56 211.992 111.591C214.825 109.215 216.302 104.292 216.208 103.272C216.119 102.258 206.354 81.0397 204.886 78.3602C203.418 75.6806 201.771 74.016 200.486 73.6461" fill="#002E47"/>
<path d="M194.062 75.6854C194.062 75.6854 192.044 76.4252 191.404 81.3195C190.764 86.2137 192.321 90.0978 193.239 91.4826C194.157 92.8674 201.719 103.367 201.719 103.367C201.719 103.367 200.801 104.197 200.895 104.662C200.985 105.122 200.985 105.122 200.985 105.122L188.839 116.978L193.517 121.782C193.517 121.782 208.453 114.56 211.992 111.591C214.825 109.215 216.302 104.292 216.208 103.272C216.119 102.258 206.354 81.0397 204.886 78.3602C203.418 75.6806 201.771 74.016 200.486 73.6461" stroke="#002E47" stroke-miterlimit="10" stroke-linecap="round" stroke-linejoin="round"/>
<path d="M201.813 104.757C201.813 104.757 209.055 102.907 209.328 103.832" stroke="#002E47" stroke-miterlimit="10" stroke-linecap="round" stroke-linejoin="round"/>
<path d="M210.613 103.097C210.613 103.097 208.411 102.082 206.58 102.452" stroke="#A1A1A1" stroke-miterlimit="10" stroke-linecap="round" stroke-linejoin="round"/>
<path d="M191.404 81.3242C191.404 81.3242 191.818 85.9339 192.637 88.0633C193.455 90.1927 201.78 102.362 201.78 102.362C201.78 102.362 200.373 102.125 200.608 102.955C200.844 103.78 200.891 104.671 200.891 104.671L199.319 106.028" stroke="#A1A1A1" stroke-miterlimit="10" stroke-linecap="round" stroke-linejoin="round"/>
<path d="M155.253 102.006C155.253 102.006 151.766 100.062 150.655 99.2413C149.545 98.4209 148.284 98.8666 148.058 99.0184C147.836 99.1702 146.354 101.56 146.128 102.006C145.907 102.457 146.575 102.755 147.168 102.68C147.761 102.604 149.766 101.262 149.766 101.262L152.288 103.282" fill="white"/>
<path d="M155.253 102.006C155.253 102.006 151.766 100.062 150.655 99.2413C149.545 98.4209 148.284 98.8666 148.058 99.0184C147.836 99.1702 146.354 101.56 146.128 102.006C145.907 102.457 146.575 102.755 147.168 102.68C147.761 102.604 149.766 101.262 149.766 101.262L152.288 103.282" stroke="#002E47" stroke-miterlimit="10" stroke-linecap="round" stroke-linejoin="round"/>
<path d="M319.799 155.075V149.981L313.375 148.957C313.055 147.747 312.58 146.605 311.968 145.547L315.794 140.235L312.222 136.636L306.956 140.491C305.907 139.875 304.773 139.396 303.573 139.073L302.556 132.6H297.502L296.486 139.073C295.286 139.396 294.152 139.875 293.102 140.491L287.836 136.636L284.265 140.235L288.091 145.542C287.479 146.6 287.004 147.743 286.684 148.952L280.26 149.976V155.07L286.684 156.094C287.004 157.304 287.479 158.447 288.091 159.504L284.265 164.811L287.836 168.41L293.102 164.555C294.152 165.171 295.286 165.65 296.486 165.973L297.502 172.446H302.556L303.573 165.973C304.773 165.65 305.907 165.171 306.956 164.555L312.222 168.41L315.794 164.811L311.968 159.504C312.58 158.447 313.055 157.304 313.375 156.094L319.799 155.075ZM300.02 160.396C295.709 160.396 292.213 156.872 292.213 152.528C292.213 148.184 295.709 144.66 300.02 144.66C304.331 144.66 307.827 148.184 307.827 152.528C307.827 156.872 304.335 160.396 300.02 160.396Z" stroke="#002E47" stroke-miterlimit="10"/>
<path d="M252.425 68.695V64.3508L246.942 63.4735C246.669 62.4396 246.265 61.4627 245.742 60.5616L249.003 56.0325L245.954 52.9594L241.46 56.2459C240.566 55.7195 239.596 55.3117 238.571 55.0366L237.7 49.5116H233.389L232.519 55.0366C231.493 55.3117 230.524 55.7195 229.629 56.2459L225.135 52.9594L222.086 56.0325L225.347 60.5616C224.825 61.4627 224.42 62.4396 224.147 63.4735L218.665 64.3508V68.695L224.147 69.5723C224.42 70.6062 224.825 71.5831 225.347 72.4842L222.086 77.0133L225.135 80.0864L229.629 76.7999C230.524 77.3263 231.493 77.7342 232.519 78.0092L233.389 83.5342H237.7L238.571 78.0092C239.596 77.7342 240.566 77.3263 241.46 76.7999L245.954 80.0864L249.003 77.0133L245.742 72.4842C246.265 71.5831 246.669 70.6062 246.942 69.5723L252.425 68.695ZM235.549 73.2335C231.869 73.2335 228.886 70.2268 228.886 66.5182C228.886 62.8095 231.869 59.8028 235.549 59.8028C239.229 59.8028 242.213 62.8095 242.213 66.5182C242.213 70.2315 239.229 73.2335 235.549 73.2335Z" stroke="#002E47" stroke-miterlimit="10"/>
<path d="M75.9588 165.831V162.62L71.907 161.975C71.7047 161.211 71.4035 160.491 71.0223 159.822L73.4317 156.478L71.1776 154.207L67.86 156.635C67.1965 156.246 66.4812 155.942 65.7235 155.743L65.0835 151.66H61.8976L61.2576 155.743C60.5 155.947 59.7847 156.251 59.1212 156.635L55.8035 154.207L53.5494 156.478L55.9588 159.822C55.5729 160.491 55.2718 161.211 55.0741 161.975L51.0223 162.62V165.831L55.0741 166.476C55.2765 167.239 55.5776 167.96 55.9588 168.629L53.5494 171.972L55.8035 174.244L59.1212 171.816C59.7847 172.204 60.5 172.508 61.2576 172.707L61.8976 176.79H65.0835L65.7235 172.707C66.4812 172.503 67.1965 172.2 67.86 171.816L71.1776 174.244L73.4317 171.972L71.0223 168.629C71.4082 167.96 71.7094 167.239 71.907 166.476L75.9588 165.831ZM63.4882 169.184C60.7682 169.184 58.5659 166.964 58.5659 164.223C58.5659 161.482 60.7682 159.262 63.4882 159.262C66.2082 159.262 68.4106 161.482 68.4106 164.223C68.4106 166.964 66.2082 169.184 63.4882 169.184Z" stroke="#002E47" stroke-miterlimit="10"/>
<path d="M42.6788 37.9162V33.1974L36.7259 32.2442C36.4294 31.1249 35.9871 30.0626 35.4223 29.0857L38.9659 24.1725L35.6529 20.8337L30.7776 24.4048C29.8035 23.8357 28.7541 23.3899 27.6435 23.0912L26.6976 17.0919H22.0153L21.0694 23.0912C19.9588 23.3899 18.9047 23.8357 17.9353 24.4048L13.06 20.8337L9.74705 24.1725L13.2906 29.0857C12.7259 30.0674 12.2835 31.1249 11.9871 32.2442L6.03882 33.1974V37.9162L11.9918 38.8694C12.2882 39.9887 12.7306 41.051 13.2953 42.0279L9.75176 46.9411L13.0647 50.2799L17.94 46.7088C18.9141 47.2779 19.9635 47.7237 21.0741 48.0224L22.02 54.0217H26.7023L27.6482 48.0224C28.7588 47.7237 29.8129 47.2779 30.7823 46.7088L35.6576 50.2799L38.9706 46.9411L35.4271 42.0279C35.9918 41.0462 36.4341 39.9887 36.7306 38.8694L42.6788 37.9162ZM24.3588 42.8436C20.3635 42.8436 17.1259 39.5808 17.1259 35.5544C17.1259 31.5281 20.3635 28.2652 24.3588 28.2652C28.3541 28.2652 31.5918 31.5281 31.5918 35.5544C31.5918 39.5808 28.3541 42.8436 24.3588 42.8436Z" stroke="#002E47" stroke-miterlimit="10"/>
</g>
<defs>
<clipPath id="clip0_344_3198">
<rect width="320" height="221" fill="white" transform="translate(0.5)"/>
</clipPath>
</defs>
</svg>
