<svg width="227" height="225" viewBox="0 0 227 225" fill="none" xmlns="http://www.w3.org/2000/svg">
<g clip-path="url(#clip0_344_4262)">
<path d="M149.211 205.94C166.629 202.113 182.432 192.734 190.926 178.195C204.579 154.822 191.414 143.622 197.265 122.685C200.532 110.988 210.509 105.588 217.199 96.3416C245.831 56.7736 200.913 -4.99344 155.233 1.09806C149.172 1.90636 143.389 3.78591 138.181 6.9753C132.262 10.6029 126.771 16.0663 119.511 16.709C111.665 17.4053 103.746 13.2908 96.8561 10.0965C79.5069 2.05244 55.9601 -2.18872 37.4503 4.72569C23.6119 9.89201 17.6679 22.26 16.8536 36.3031C16.0344 50.351 21.9296 65.6212 19.2868 79.3477C16.5854 93.3811 5.83843 104.809 2.36176 118.838C-2.34858 137.848 4.35121 157.987 19.5355 170.413C36.5434 184.335 58.1104 180.342 77.6393 187.519C88.8544 191.639 96.6269 201.051 108.432 204.649C121.554 208.652 135.846 208.876 149.211 205.94Z" fill="#39B4EF"/>
<path opacity="0.7" d="M149.211 205.94C166.629 202.113 182.432 192.734 190.926 178.195C204.579 154.822 191.414 143.622 197.265 122.685C200.532 110.988 210.509 105.588 217.199 96.3416C245.831 56.7736 200.913 -4.99344 155.233 1.09806C149.172 1.90636 143.389 3.78591 138.181 6.9753C132.262 10.6029 126.771 16.0663 119.511 16.709C111.665 17.4053 103.746 13.2908 96.8561 10.0965C79.5069 2.05244 55.9601 -2.18872 37.4503 4.72569C23.6119 9.89201 17.6679 22.26 16.8536 36.3031C16.0344 50.351 21.9296 65.6212 19.2868 79.3477C16.5854 93.3811 5.83843 104.809 2.36176 118.838C-2.34858 137.848 4.35121 157.987 19.5355 170.413C36.5434 184.335 58.1104 180.342 77.6393 187.519C88.8544 191.639 96.6269 201.051 108.432 204.649C121.554 208.652 135.846 208.876 149.211 205.94Z" fill="white"/>
<path d="M113.152 224.94C150.181 224.94 180.199 222.978 180.199 220.557C180.199 218.137 150.181 216.175 113.152 216.175C76.1233 216.175 46.1054 218.137 46.1054 220.557C46.1054 222.978 76.1233 224.94 113.152 224.94Z" fill="#002E47"/>
<path d="M46.593 190.119C47.5292 190.528 49.8113 190.475 49.8161 190.475C49.8405 190.475 49.3237 188.98 49.2798 188.892C48.7775 187.845 47.1928 186.117 45.9006 186.287C44.9693 186.414 44.4524 187.344 44.6621 188.216C44.8766 189.107 45.7933 189.769 46.593 190.119Z" fill="#002E47"/>
<path d="M47.3781 196.727C48.3484 196.868 50.3866 196.279 50.5476 196.23C50.8694 197.37 51.2936 198.514 51.7861 199.649C52.0689 200.296 52.3712 200.944 52.6833 201.587C52.498 201.314 52.3273 201.071 52.303 201.041C51.5423 200.165 49.5577 198.913 48.3582 199.42C47.4951 199.785 47.2415 200.817 47.6755 201.606C48.1192 202.41 49.1774 202.809 50.0356 202.935C50.9084 203.062 52.654 202.595 53.1173 202.463C53.2392 202.707 53.3562 202.955 53.483 203.198C54.073 204.372 54.6679 205.541 55.214 206.709C55.409 207.118 55.5846 207.532 55.7601 207.941C55.5943 207.698 55.4529 207.498 55.4285 207.469C54.6679 206.592 52.6833 205.341 51.4838 205.847C50.6207 206.212 50.3671 207.245 50.8011 208.034C51.2448 208.837 52.303 209.236 53.1612 209.363C53.995 209.485 55.609 209.066 56.16 208.915C56.3306 209.343 56.4964 209.767 56.6427 210.186C56.7354 210.473 56.8426 210.746 56.9206 211.043C57.0035 211.335 57.0816 211.622 57.1644 211.91C57.2961 212.465 57.4375 213.039 57.5545 213.585C57.6374 213.964 57.7106 214.325 57.7837 214.69C57.5984 214.281 57.2132 213.482 57.1742 213.419C56.5549 212.435 54.78 210.902 53.522 211.223C52.615 211.457 52.2054 212.435 52.5175 213.283C52.8345 214.145 53.8194 214.7 54.6484 214.953C55.5651 215.23 57.5887 214.977 57.8374 214.943C57.9593 215.547 58.0714 216.136 58.1689 216.691C58.3884 217.918 58.5493 219.024 58.676 219.954H59.5294C59.3831 218.99 59.188 217.84 58.9296 216.55C58.8077 215.936 58.6663 215.284 58.5151 214.612C58.6663 214.554 59.5294 214.203 60.2949 213.775C60.963 214.495 62.6696 215.338 62.889 215.445C62.655 216.014 62.4258 216.569 62.1966 217.086C61.7236 218.171 61.275 219.131 60.8801 219.954H61.8016C62.143 219.199 62.5184 218.342 62.9085 217.388C63.1475 216.808 63.3913 216.185 63.6351 215.542C63.8789 215.596 65.883 216 66.8192 215.79C67.6676 215.601 68.6916 215.118 69.0719 214.286C69.4425 213.468 69.1109 212.46 68.2235 212.158C66.9898 211.744 65.1077 213.142 64.4152 214.076C64.3762 214.13 64.0008 214.778 63.7716 215.191C63.8691 214.929 63.9666 214.675 64.0642 214.403C64.2592 213.867 64.4396 213.327 64.6395 212.747C64.7224 212.465 64.8102 212.177 64.898 211.885C64.9906 211.598 65.0491 211.286 65.132 210.984C65.2978 210.278 65.4344 209.558 65.5563 208.832C66.0244 209.003 67.7066 209.587 68.5746 209.524C69.4425 209.465 70.525 209.144 71.0273 208.374C71.5198 207.62 71.3442 206.573 70.5104 206.144C69.3548 205.55 67.2775 206.646 66.4535 207.464C66.3998 207.513 65.8781 208.17 65.5953 208.535C65.6635 208.097 65.7367 207.659 65.7903 207.211C65.9512 205.92 66.0731 204.61 66.1999 203.306C66.2389 202.906 66.2828 202.507 66.3267 202.108C66.4925 202.171 68.4771 202.906 69.4474 202.838C70.3153 202.78 71.3978 202.458 71.9001 201.689C72.3926 200.934 72.217 199.887 71.3832 199.459C70.2276 198.865 68.1504 199.96 67.3263 200.778C67.2629 200.842 66.512 201.781 66.3316 202.03C66.4242 201.153 66.5266 200.277 66.6583 199.42C66.8435 198.237 67.0874 197.083 67.4092 195.987C67.4872 196.016 69.5498 196.795 70.5494 196.722C71.4174 196.664 72.5047 196.342 73.0021 195.573C73.4946 194.818 73.319 193.771 72.4852 193.343C71.3296 192.749 69.2524 193.844 68.4283 194.663C68.3649 194.726 67.5506 195.739 67.4189 195.933C67.4384 195.87 67.4531 195.797 67.4726 195.734C67.8285 194.565 68.321 193.479 68.833 192.486C69.1305 191.906 69.4425 191.371 69.7644 190.855C70.1349 191.04 71.8318 191.863 72.7388 191.897C73.6067 191.931 74.7234 191.736 75.3036 191.025C75.8741 190.329 75.8156 189.267 75.0354 188.751C73.9529 188.031 71.7684 188.897 70.8566 189.618C70.8078 189.657 70.3495 190.115 70.0179 190.451C70.1642 190.222 70.3105 189.978 70.4568 189.764C71.0029 188.946 71.549 188.23 72.0415 187.597C72.3243 187.242 72.5876 186.925 72.8363 186.628C73.2947 186.618 75.1378 186.565 75.9424 186.185C76.7275 185.815 77.6295 185.128 77.8197 184.232C78.005 183.351 77.4637 182.441 76.5324 182.338C75.2402 182.197 73.6994 183.97 73.2264 185.031C73.1874 185.124 72.7095 186.628 72.7339 186.628C72.7339 186.628 72.7583 186.628 72.7632 186.628C72.5194 186.906 72.2609 187.208 71.983 187.539C71.4759 188.162 70.9102 188.868 70.3446 189.676C69.779 190.485 69.1841 191.381 68.6477 192.379C68.1065 193.377 67.5896 194.458 67.1995 195.641C67.1946 195.656 67.1946 195.67 67.1898 195.68C67.1946 195.3 67.18 194.234 67.1703 194.151C67.0191 193.002 66.0536 190.864 64.7761 190.626C63.8545 190.455 63.0743 191.176 63.0012 192.072C62.928 192.987 63.5912 193.903 64.2397 194.482C64.9711 195.135 66.9996 195.763 67.1605 195.817C66.7997 196.946 66.5217 198.129 66.3023 199.347C66.1804 200.043 66.0731 200.749 65.9805 201.455C65.9756 201.124 65.9707 200.832 65.9658 200.788C65.8147 199.639 64.8492 197.501 63.5717 197.263C62.6501 197.092 61.8699 197.813 61.7968 198.709C61.7236 199.624 62.3868 200.54 63.0353 201.119C63.6936 201.704 65.41 202.278 65.8683 202.424C65.8342 202.697 65.8001 202.97 65.7659 203.237C65.6099 204.542 65.4587 205.842 65.2734 207.118C65.2101 207.566 65.1272 208.004 65.0491 208.448C65.0443 208.155 65.0394 207.907 65.0345 207.873C64.8834 206.724 63.9179 204.586 62.6403 204.348C61.7188 204.177 60.9386 204.898 60.8605 205.794C60.7874 206.709 61.4506 207.625 62.0991 208.199C62.7281 208.759 64.308 209.3 64.8492 209.475C64.7566 209.923 64.6591 210.371 64.5469 210.804C64.464 211.096 64.4055 211.384 64.3031 211.671C64.2105 211.958 64.1178 212.246 64.0252 212.528C63.8301 213.064 63.6302 213.619 63.4254 214.14C63.284 214.5 63.1475 214.846 63.006 215.191C63.0743 214.744 63.1962 213.872 63.1962 213.794C63.2157 213.025 62.9378 211.768 62.3917 210.887C62.3965 210.775 62.3868 210.658 62.3721 210.546C62.2307 209.66 61.3969 208.998 60.49 209.241C59.2319 209.577 58.4322 211.783 58.3737 212.942C58.3689 213.01 58.4127 213.755 58.4518 214.227C58.3884 213.955 58.3298 213.687 58.2616 213.409C58.1299 212.854 57.9836 212.304 57.8227 211.71C57.735 211.428 57.6521 211.14 57.5643 210.848C57.4814 210.561 57.3595 210.264 57.262 209.972C57.0133 209.29 56.7256 208.618 56.4233 207.941C56.9109 207.824 58.6322 207.386 59.3246 206.855C60.0121 206.329 60.7435 205.463 60.7386 204.547C60.7338 203.646 60.0072 202.872 59.0759 202.97C57.7837 203.111 56.6573 205.17 56.4233 206.305C56.4087 206.378 56.3306 207.211 56.2965 207.668C56.1112 207.264 55.9308 206.86 55.726 206.456C55.1457 205.292 54.5265 204.133 53.9121 202.974C53.7219 202.619 53.5415 202.263 53.3562 201.908C53.5317 201.869 55.5895 201.392 56.3648 200.798C57.0523 200.272 57.7837 199.405 57.7788 198.49C57.774 197.589 57.0474 196.815 56.1161 196.917C54.8239 197.058 53.6975 199.118 53.4635 200.252C53.444 200.34 53.3367 201.538 53.3269 201.845C52.9173 201.061 52.5224 200.277 52.1567 199.488C51.6544 198.397 51.2253 197.302 50.884 196.211C50.9669 196.191 53.1173 195.705 53.9121 195.096C54.5996 194.57 55.331 193.703 55.3262 192.788C55.3213 191.887 54.5947 191.113 53.6634 191.215C52.3712 191.356 51.2448 193.416 51.0108 194.551C50.9913 194.638 50.8743 195.933 50.8743 196.167C50.8548 196.104 50.8255 196.036 50.806 195.972C50.4598 194.799 50.2696 193.625 50.1477 192.51C50.0746 191.863 50.0404 191.244 50.0209 190.64C50.4305 190.592 52.303 190.343 53.0783 189.871C53.8194 189.423 54.6435 188.644 54.7361 187.729C54.8288 186.833 54.1949 185.981 53.2538 185.981C51.9519 185.976 50.6109 187.904 50.2501 189.004C50.2306 189.063 50.099 189.696 50.0112 190.158C50.0063 189.886 49.9966 189.603 49.9966 189.34C49.9966 188.357 50.0599 187.456 50.1233 186.662C50.1623 186.209 50.2062 185.8 50.2501 185.421C50.6256 185.163 52.1323 184.101 52.5955 183.341C53.049 182.601 53.4196 181.535 53.0783 180.678C52.7467 179.84 51.791 179.378 50.9571 179.806C49.8015 180.405 49.4943 182.728 49.6894 183.872C49.704 183.97 50.1428 185.489 50.1623 185.474C50.1623 185.474 50.1818 185.46 50.1867 185.46C50.138 185.825 50.0843 186.219 50.0404 186.653C49.9624 187.451 49.8795 188.352 49.8551 189.335C49.8308 190.324 49.8308 191.395 49.9332 192.525C50.0356 193.655 50.1965 194.843 50.5232 196.041C50.528 196.055 50.5329 196.07 50.5378 196.079C50.333 195.758 49.7284 194.877 49.6747 194.818C48.9141 193.942 46.9295 192.69 45.7299 193.197C44.8669 193.562 44.6133 194.594 45.0473 195.383C45.4618 196.206 46.5199 196.6 47.3781 196.727Z" fill="#002E47"/>
<path d="M69.7058 190.621C69.7253 190.636 70.1203 189.107 70.1349 189.004C70.2958 187.855 69.9301 185.537 68.755 184.973C67.9114 184.564 66.9655 185.055 66.6583 185.898C66.3462 186.76 66.7411 187.816 67.2141 188.547C67.77 189.404 69.7058 190.616 69.7058 190.621Z" fill="#002E47"/>
<path d="M160.065 194.083C160.875 194.439 162.854 194.39 162.859 194.39C162.879 194.39 162.435 193.095 162.396 193.017C161.962 192.106 160.587 190.611 159.465 190.762C158.661 190.869 158.212 191.678 158.393 192.432C158.583 193.207 159.378 193.781 160.065 194.083Z" fill="#002E47"/>
<path d="M160.753 199.814C161.591 199.936 163.362 199.425 163.503 199.381C163.781 200.369 164.147 201.363 164.576 202.346C164.819 202.906 165.083 203.466 165.351 204.026C165.19 203.792 165.044 203.578 165.019 203.554C164.361 202.794 162.635 201.708 161.596 202.151C160.845 202.468 160.631 203.364 161.006 204.046C161.392 204.742 162.308 205.088 163.054 205.195C163.81 205.307 165.327 204.898 165.726 204.786C165.834 205 165.936 205.214 166.043 205.424C166.555 206.441 167.072 207.454 167.545 208.467C167.711 208.822 167.867 209.178 168.018 209.533C167.877 209.324 167.75 209.149 167.731 209.124C167.072 208.365 165.346 207.279 164.307 207.722C163.557 208.038 163.342 208.934 163.717 209.616C164.103 210.312 165.019 210.658 165.765 210.765C166.487 210.872 167.891 210.507 168.364 210.376C168.511 210.746 168.657 211.116 168.784 211.481C168.862 211.734 168.959 211.968 169.023 212.226C169.091 212.479 169.164 212.728 169.232 212.976C169.349 213.458 169.471 213.955 169.574 214.427C169.647 214.753 169.71 215.07 169.774 215.386C169.613 215.031 169.276 214.339 169.242 214.286C168.706 213.434 167.17 212.104 166.073 212.382C165.283 212.582 164.932 213.434 165.2 214.164C165.473 214.909 166.331 215.391 167.048 215.61C167.843 215.854 169.598 215.63 169.813 215.601C169.92 216.126 170.017 216.633 170.1 217.12C170.29 218.186 170.432 219.14 170.539 219.949H171.28C171.154 219.111 170.983 218.113 170.759 216.998C170.656 216.467 170.529 215.898 170.398 215.318C170.529 215.265 171.28 214.963 171.943 214.593C172.519 215.216 174.001 215.946 174.191 216.044C173.991 216.54 173.792 217.017 173.592 217.465C173.182 218.405 172.792 219.243 172.451 219.949H173.25C173.548 219.296 173.87 218.551 174.206 217.724C174.411 217.222 174.625 216.681 174.835 216.126C175.05 216.17 176.785 216.521 177.595 216.341C178.331 216.175 179.219 215.761 179.545 215.036C179.867 214.325 179.579 213.448 178.809 213.19C177.741 212.83 176.108 214.047 175.508 214.856C175.474 214.904 175.147 215.464 174.947 215.82C175.03 215.591 175.118 215.372 175.201 215.138C175.371 214.675 175.527 214.203 175.698 213.701C175.771 213.453 175.844 213.205 175.922 212.956C176 212.708 176.054 212.435 176.122 212.177C176.269 211.569 176.386 210.941 176.488 210.308C176.898 210.454 178.351 210.96 179.107 210.906C179.857 210.853 180.799 210.58 181.232 209.913C181.657 209.261 181.506 208.35 180.784 207.98C179.779 207.464 177.98 208.418 177.268 209.124C177.224 209.168 176.766 209.738 176.522 210.05C176.581 209.67 176.644 209.29 176.693 208.9C176.834 207.78 176.937 206.646 177.049 205.516C177.083 205.17 177.122 204.825 177.156 204.479C177.302 204.533 179.019 205.17 179.862 205.112C180.613 205.058 181.554 204.786 181.988 204.119C182.413 203.466 182.261 202.556 181.54 202.186C180.535 201.669 178.736 202.619 178.024 203.33C177.97 203.383 177.317 204.201 177.161 204.416C177.244 203.656 177.327 202.897 177.444 202.151C177.605 201.124 177.814 200.126 178.092 199.176C178.161 199.201 179.95 199.878 180.813 199.814C181.564 199.761 182.505 199.488 182.939 198.821C183.363 198.168 183.212 197.258 182.491 196.888C181.486 196.372 179.687 197.326 178.975 198.032C178.921 198.086 178.214 198.967 178.102 199.137C178.117 199.079 178.131 199.021 178.146 198.962C178.458 197.949 178.882 197.01 179.326 196.143C179.584 195.641 179.857 195.174 180.13 194.731C180.452 194.891 181.925 195.602 182.71 195.636C183.461 195.666 184.431 195.495 184.933 194.882C185.431 194.278 185.377 193.358 184.699 192.91C183.758 192.286 181.866 193.036 181.076 193.664C181.033 193.698 180.638 194.093 180.35 194.385C180.477 194.185 180.603 193.976 180.73 193.786C181.203 193.075 181.681 192.457 182.105 191.906C182.349 191.6 182.578 191.322 182.793 191.069C183.188 191.064 184.787 191.015 185.484 190.684C186.167 190.363 186.947 189.769 187.108 188.99C187.269 188.225 186.801 187.436 185.992 187.349C184.87 187.227 183.534 188.766 183.124 189.686C183.09 189.764 182.676 191.074 182.7 191.074C182.7 191.074 182.72 191.074 182.725 191.074C182.51 191.312 182.286 191.575 182.047 191.868C181.608 192.408 181.115 193.017 180.628 193.723C180.135 194.424 179.623 195.198 179.155 196.065C178.687 196.932 178.239 197.867 177.897 198.894C177.892 198.904 177.892 198.918 177.887 198.928C177.892 198.597 177.878 197.672 177.868 197.604C177.736 196.605 176.902 194.75 175.791 194.546C174.991 194.4 174.313 195.023 174.25 195.802C174.186 196.596 174.762 197.389 175.323 197.891C175.957 198.456 177.712 199.001 177.853 199.045C177.541 200.024 177.297 201.051 177.112 202.108C177.005 202.711 176.912 203.32 176.834 203.934C176.829 203.646 176.824 203.393 176.82 203.359C176.688 202.361 175.854 200.506 174.742 200.301C173.943 200.155 173.265 200.778 173.202 201.557C173.138 202.351 173.714 203.145 174.274 203.646C174.845 204.153 176.332 204.649 176.727 204.776C176.698 205.01 176.668 205.248 176.639 205.482C176.503 206.612 176.376 207.741 176.21 208.847C176.152 209.236 176.083 209.616 176.015 209.996C176.01 209.743 176.005 209.528 176 209.494C175.869 208.496 175.035 206.641 173.923 206.436C173.124 206.29 172.446 206.914 172.382 207.693C172.319 208.486 172.894 209.28 173.455 209.782C173.996 210.269 175.371 210.736 175.839 210.887C175.757 211.277 175.674 211.666 175.576 212.036C175.503 212.289 175.454 212.538 175.367 212.786C175.284 213.034 175.206 213.283 175.128 213.526C174.957 213.994 174.786 214.471 174.611 214.924C174.489 215.235 174.367 215.532 174.25 215.834C174.313 215.45 174.416 214.69 174.416 214.622C174.43 213.955 174.191 212.864 173.718 212.099C173.723 212.002 173.714 211.905 173.699 211.802C173.577 211.033 172.85 210.463 172.065 210.673C170.973 210.965 170.281 212.874 170.232 213.882C170.227 213.94 170.266 214.588 170.3 214.997C170.247 214.758 170.193 214.529 170.134 214.286C170.022 213.804 169.891 213.327 169.754 212.81C169.681 212.562 169.603 212.314 169.53 212.065C169.462 211.817 169.354 211.559 169.266 211.306C169.052 210.717 168.803 210.132 168.54 209.543C168.964 209.441 170.456 209.061 171.056 208.603C171.656 208.146 172.285 207.396 172.28 206.602C172.275 205.823 171.646 205.146 170.837 205.234C169.715 205.355 168.74 207.143 168.535 208.126C168.52 208.189 168.457 208.91 168.428 209.309C168.267 208.959 168.111 208.608 167.935 208.258C167.433 207.25 166.897 206.242 166.36 205.239C166.195 204.932 166.038 204.62 165.878 204.313C166.029 204.279 167.813 203.865 168.486 203.349C169.081 202.892 169.715 202.142 169.71 201.348C169.705 200.569 169.076 199.892 168.267 199.985C167.145 200.106 166.17 201.893 165.965 202.877C165.951 202.95 165.858 203.992 165.843 204.26C165.492 203.578 165.146 202.901 164.829 202.215C164.395 201.27 164.02 200.321 163.727 199.371C163.795 199.357 165.663 198.933 166.351 198.402C166.95 197.944 167.579 197.195 167.574 196.401C167.57 195.622 166.941 194.95 166.131 195.037C165.01 195.159 164.034 196.946 163.83 197.93C163.815 198.008 163.713 199.128 163.708 199.332C163.688 199.274 163.664 199.22 163.649 199.162C163.347 198.144 163.186 197.126 163.079 196.162C163.015 195.602 162.986 195.062 162.971 194.541C163.327 194.497 164.951 194.283 165.624 193.874C166.268 193.484 166.98 192.807 167.062 192.018C167.14 191.244 166.589 190.504 165.78 190.504C164.649 190.504 163.488 192.169 163.176 193.129C163.162 193.182 163.045 193.728 162.971 194.132C162.967 193.893 162.962 193.65 162.962 193.426C162.962 192.574 163.015 191.794 163.069 191.103C163.103 190.709 163.142 190.358 163.181 190.027C163.508 189.803 164.815 188.883 165.214 188.225C165.605 187.583 165.926 186.657 165.634 185.917C165.346 185.192 164.517 184.788 163.795 185.163C162.791 185.679 162.528 187.695 162.693 188.688C162.708 188.776 163.088 190.09 163.103 190.08C163.103 190.08 163.118 190.071 163.123 190.066C163.079 190.382 163.035 190.723 162.996 191.098C162.928 191.79 162.854 192.569 162.835 193.426C162.811 194.283 162.811 195.213 162.903 196.191C162.991 197.175 163.132 198.202 163.415 199.24C163.42 199.249 163.425 199.264 163.425 199.274C163.249 198.996 162.723 198.232 162.679 198.178C162.021 197.419 160.299 196.333 159.256 196.776C158.505 197.092 158.29 197.988 158.666 198.67C159.085 199.361 160.007 199.707 160.753 199.814Z" fill="#002E47"/>
<path d="M180.111 194.516C180.131 194.526 180.472 193.202 180.482 193.114C180.618 192.116 180.301 190.11 179.287 189.618C178.556 189.262 177.736 189.691 177.468 190.421C177.195 191.171 177.541 192.087 177.951 192.72C178.429 193.465 180.106 194.516 180.111 194.516Z" fill="#002E47"/>
<path d="M137.869 199.04C138.464 199.298 139.912 199.264 139.912 199.264C139.927 199.264 139.6 198.314 139.571 198.261C139.254 197.594 138.245 196.498 137.43 196.61C136.84 196.688 136.514 197.277 136.645 197.832C136.782 198.397 137.367 198.816 137.869 199.04Z" fill="#002E47"/>
<path d="M138.371 203.232C138.986 203.32 140.283 202.945 140.385 202.916C140.59 203.641 140.858 204.367 141.17 205.083C141.346 205.497 141.541 205.906 141.736 206.31C141.619 206.139 141.512 205.984 141.492 205.964C141.009 205.409 139.746 204.615 138.991 204.937C138.445 205.17 138.284 205.823 138.557 206.324C138.84 206.836 139.512 207.089 140.054 207.167C140.605 207.25 141.716 206.948 142.009 206.87C142.087 207.026 142.16 207.181 142.238 207.337C142.614 208.082 142.989 208.822 143.335 209.563C143.457 209.821 143.569 210.084 143.681 210.347C143.574 210.196 143.486 210.064 143.472 210.045C142.989 209.49 141.731 208.696 140.97 209.017C140.424 209.251 140.263 209.903 140.536 210.405C140.819 210.916 141.492 211.169 142.033 211.247C142.56 211.325 143.589 211.057 143.935 210.96C144.042 211.233 144.15 211.501 144.242 211.768C144.301 211.953 144.369 212.124 144.418 212.314C144.471 212.499 144.52 212.684 144.569 212.864C144.652 213.215 144.744 213.58 144.818 213.925C144.871 214.164 144.915 214.398 144.964 214.627C144.847 214.364 144.603 213.862 144.574 213.823C144.184 213.2 143.057 212.226 142.253 212.431C141.677 212.577 141.419 213.2 141.614 213.736C141.814 214.281 142.443 214.632 142.97 214.792C143.55 214.967 144.832 214.807 144.993 214.787C145.071 215.172 145.139 215.542 145.203 215.898C145.339 216.677 145.447 217.378 145.525 217.967H146.066C145.973 217.353 145.846 216.623 145.686 215.805C145.608 215.415 145.52 215.002 145.422 214.578C145.52 214.539 146.066 214.32 146.554 214.047C146.978 214.505 148.06 215.041 148.202 215.109C148.055 215.469 147.909 215.82 147.763 216.151C147.465 216.837 147.178 217.451 146.929 217.967H147.514C147.729 217.49 147.968 216.944 148.216 216.341C148.367 215.975 148.523 215.576 148.675 215.172C148.831 215.206 150.103 215.464 150.693 215.328C151.23 215.206 151.883 214.904 152.122 214.373C152.356 213.852 152.146 213.215 151.581 213.025C150.796 212.762 149.601 213.648 149.162 214.242C149.138 214.276 148.899 214.69 148.753 214.948C148.816 214.782 148.879 214.622 148.938 214.446C149.065 214.106 149.177 213.765 149.304 213.395C149.357 213.215 149.411 213.034 149.469 212.849C149.528 212.669 149.567 212.47 149.616 212.28C149.723 211.832 149.811 211.374 149.884 210.911C150.181 211.018 151.249 211.389 151.8 211.35C152.351 211.311 153.039 211.111 153.356 210.619C153.668 210.142 153.556 209.475 153.029 209.202C152.293 208.822 150.976 209.524 150.454 210.04C150.42 210.074 150.089 210.488 149.908 210.717C149.952 210.439 149.996 210.162 150.03 209.879C150.133 209.061 150.211 208.228 150.289 207.401C150.313 207.147 150.342 206.894 150.367 206.641C150.474 206.68 151.732 207.147 152.346 207.104C152.897 207.065 153.585 206.865 153.902 206.373C154.214 205.896 154.102 205.229 153.575 204.956C152.839 204.576 151.522 205.273 151.001 205.794C150.962 205.833 150.484 206.432 150.367 206.587C150.425 206.032 150.489 205.477 150.576 204.932C150.693 204.182 150.849 203.452 151.054 202.755C151.103 202.775 152.415 203.267 153.049 203.223C153.6 203.184 154.287 202.984 154.604 202.492C154.916 202.015 154.804 201.348 154.277 201.075C153.541 200.696 152.229 201.397 151.703 201.913C151.664 201.952 151.147 202.599 151.064 202.721C151.079 202.682 151.083 202.634 151.098 202.595C151.322 201.854 151.639 201.163 151.961 200.535C152.151 200.17 152.351 199.829 152.551 199.503C152.785 199.619 153.863 200.14 154.438 200.165C154.989 200.189 155.696 200.063 156.067 199.61C156.428 199.167 156.394 198.495 155.896 198.168C155.209 197.711 153.824 198.261 153.248 198.719C153.219 198.743 152.927 199.035 152.717 199.245C152.81 199.098 152.902 198.947 152.995 198.806C153.341 198.285 153.687 197.832 153.999 197.433C154.18 197.209 154.346 197.005 154.502 196.82C154.789 196.815 155.96 196.781 156.472 196.537C156.969 196.303 157.539 195.865 157.661 195.296C157.778 194.736 157.437 194.156 156.842 194.093C156.023 194.005 155.043 195.13 154.745 195.802C154.721 195.86 154.419 196.815 154.433 196.815C154.433 196.815 154.448 196.815 154.453 196.815C154.297 196.99 154.131 197.18 153.955 197.394C153.634 197.789 153.273 198.237 152.917 198.753C152.556 199.264 152.181 199.834 151.839 200.467C151.498 201.1 151.166 201.786 150.918 202.536C150.913 202.546 150.913 202.556 150.908 202.561C150.913 202.317 150.903 201.645 150.893 201.592C150.801 200.861 150.186 199.503 149.372 199.357C148.787 199.249 148.289 199.707 148.246 200.277C148.197 200.856 148.621 201.441 149.031 201.806C149.494 202.22 150.781 202.619 150.884 202.653C150.654 203.369 150.479 204.124 150.342 204.893C150.264 205.336 150.196 205.779 150.137 206.232C150.133 206.023 150.133 205.838 150.128 205.808C150.035 205.078 149.421 203.724 148.606 203.573C148.021 203.466 147.524 203.924 147.48 204.494C147.431 205.073 147.855 205.657 148.265 206.023C148.684 206.393 149.772 206.758 150.059 206.85C150.04 207.021 150.016 207.196 149.996 207.367C149.899 208.194 149.801 209.022 149.684 209.83C149.645 210.113 149.591 210.395 149.543 210.673C149.538 210.488 149.538 210.332 149.533 210.308C149.44 209.577 148.826 208.219 148.011 208.073C147.426 207.965 146.929 208.423 146.885 208.993C146.836 209.572 147.261 210.157 147.67 210.522C148.07 210.877 149.07 211.223 149.416 211.33C149.357 211.613 149.294 211.9 149.226 212.173C149.172 212.358 149.133 212.538 149.07 212.723C149.011 212.903 148.953 213.088 148.894 213.263C148.772 213.604 148.645 213.955 148.514 214.286C148.426 214.515 148.338 214.734 148.25 214.953C148.294 214.67 148.372 214.115 148.372 214.067C148.382 213.58 148.211 212.781 147.865 212.221C147.865 212.148 147.865 212.075 147.851 212.007C147.758 211.442 147.231 211.023 146.656 211.179C145.856 211.393 145.349 212.791 145.315 213.526C145.315 213.57 145.339 214.042 145.364 214.339C145.325 214.164 145.286 213.999 145.242 213.818C145.159 213.468 145.066 213.117 144.964 212.742C144.91 212.562 144.857 212.382 144.798 212.197C144.744 212.012 144.671 211.827 144.603 211.637C144.447 211.204 144.267 210.775 144.072 210.347C144.379 210.273 145.476 209.996 145.915 209.66C146.354 209.324 146.817 208.779 146.812 208.194C146.807 207.625 146.349 207.133 145.754 207.196C144.935 207.284 144.218 208.594 144.072 209.314C144.062 209.358 144.013 209.889 143.994 210.181C143.877 209.923 143.76 209.67 143.633 209.412C143.267 208.671 142.872 207.936 142.482 207.201C142.36 206.977 142.248 206.748 142.126 206.524C142.238 206.5 143.545 206.198 144.037 205.818C144.476 205.482 144.94 204.937 144.935 204.352C144.93 203.783 144.471 203.291 143.877 203.354C143.057 203.442 142.341 204.752 142.194 205.472C142.185 205.526 142.116 206.29 142.107 206.485C141.848 205.989 141.594 205.492 141.365 204.99C141.048 204.299 140.775 203.603 140.561 202.911C140.614 202.901 141.98 202.59 142.482 202.205C142.921 201.869 143.384 201.324 143.379 200.739C143.374 200.17 142.916 199.678 142.321 199.741C141.502 199.829 140.785 201.139 140.639 201.859C140.629 201.918 140.551 202.736 140.551 202.887C140.536 202.848 140.522 202.804 140.507 202.765C140.288 202.02 140.166 201.275 140.088 200.569C140.044 200.16 140.02 199.766 140.01 199.381C140.268 199.347 141.458 199.191 141.95 198.894C142.423 198.607 142.945 198.115 143.004 197.535C143.062 196.971 142.658 196.425 142.063 196.425C141.239 196.425 140.385 197.643 140.156 198.344C140.141 198.383 140.059 198.782 140.005 199.074C140 198.899 139.995 198.724 139.995 198.558C139.995 197.935 140.034 197.365 140.073 196.859C140.098 196.571 140.127 196.313 140.156 196.07C140.395 195.904 141.351 195.232 141.643 194.75C141.931 194.283 142.165 193.601 141.95 193.061C141.741 192.53 141.131 192.238 140.605 192.51C139.868 192.89 139.678 194.365 139.8 195.091C139.81 195.154 140.088 196.118 140.102 196.109C140.102 196.109 140.112 196.099 140.117 196.099C140.083 196.333 140.054 196.581 140.024 196.854C139.976 197.36 139.922 197.93 139.907 198.558C139.893 199.186 139.893 199.863 139.956 200.579C140.02 201.299 140.122 202.049 140.332 202.809C140.332 202.819 140.336 202.828 140.341 202.833C140.21 202.629 139.829 202.074 139.795 202.03C139.312 201.475 138.054 200.681 137.294 201.002C136.748 201.236 136.587 201.889 136.86 202.39C137.152 202.901 137.825 203.155 138.371 203.232Z" fill="#002E47"/>
<path d="M152.537 199.357C152.551 199.366 152.8 198.392 152.81 198.329C152.912 197.599 152.678 196.128 151.937 195.773C151.4 195.515 150.801 195.826 150.606 196.362C150.406 196.907 150.659 197.579 150.957 198.042C151.308 198.582 152.537 199.357 152.537 199.357Z" fill="#002E47"/>
<path d="M179.423 29.0673C178.346 33.328 180.945 37.6665 185.211 38.7426C187.659 39.3562 190.127 38.7621 191.994 37.3451L195.081 40.2959C194.929 40.9289 195.095 41.6252 195.598 42.1122L202.297 48.6955C203.053 49.4307 204.262 49.4113 204.999 48.6565C205.242 48.4082 205.403 48.1112 205.481 47.7946C205.642 47.1568 205.467 46.4507 204.96 45.9589L198.26 39.3708C197.753 38.879 197.036 38.7329 196.402 38.913L193.364 36.0109C194.071 35.1393 194.608 34.1168 194.895 32.9628C195.973 28.7021 193.374 24.3636 189.107 23.2875C184.846 22.2162 180.501 24.8067 179.423 29.0673ZM193.511 32.6122C192.628 36.1083 189.064 38.2362 185.562 37.3549C182.061 36.4735 179.931 32.9141 180.813 29.4179C181.696 25.9217 185.26 23.7939 188.761 24.6752C192.262 25.5566 194.393 29.116 193.511 32.6122Z" stroke="#002E47" stroke-miterlimit="10"/>
<path d="M31.9842 125.562C28.7659 126.327 26.7667 129.565 27.5323 132.779C27.9711 134.624 29.2243 136.06 30.8237 136.81L29.9264 139.893C29.4486 140.009 29.0439 140.365 28.8927 140.866L26.8204 147.62C26.5912 148.38 27.0252 149.178 27.7858 149.407C28.0345 149.48 28.2929 149.485 28.527 149.427C29.0097 149.31 29.4193 148.949 29.5705 148.443L31.6428 141.689C31.794 141.178 31.6477 140.652 31.3015 140.292L32.1841 137.258C33.0082 137.424 33.881 137.429 34.7538 137.219C37.972 136.455 39.9713 133.217 39.2057 130.003C38.445 126.794 35.2024 124.798 31.9842 125.562ZM34.51 136.177C31.8671 136.805 29.2097 135.169 28.5806 132.53C27.9516 129.891 29.59 127.237 32.2329 126.609C34.8757 125.981 37.5332 127.617 38.1622 130.256C38.7864 132.895 37.148 135.549 34.51 136.177Z" stroke="#002E47" stroke-miterlimit="10"/>
<path d="M194.535 80.6868H180.389C178.477 80.6868 176.927 82.2352 176.927 84.144V91.9592C176.927 93.868 178.477 95.4164 180.389 95.4164H190.239L189.727 100.276L194.34 95.4164H194.535C196.446 95.4164 197.997 93.868 197.997 91.9592V84.144C197.997 82.2352 196.446 80.6868 194.535 80.6868Z" stroke="#002E47" stroke-miterlimit="10"/>
<path d="M32.9887 99.1901H42.5702C43.8673 99.1901 44.9157 100.237 44.9157 101.532V106.825C44.9157 108.12 43.8673 109.167 42.5702 109.167H35.8997L36.2459 112.459L33.1203 109.167H32.9887C31.6916 109.167 30.6432 108.12 30.6432 106.825V101.532C30.6432 100.237 31.6916 99.1901 32.9887 99.1901Z" stroke="#002E47" stroke-miterlimit="10"/>
<path d="M103.814 9.96505H113.396C114.693 9.96505 115.741 11.012 115.741 12.3072V17.6001C115.741 18.8953 114.693 19.9422 113.396 19.9422H106.725L107.072 23.2339L103.946 19.9422H103.814C102.517 19.9422 101.469 18.8953 101.469 17.6001V12.3072C101.469 11.012 102.517 9.96505 103.814 9.96505Z" stroke="#002E47" stroke-miterlimit="10"/>
<path d="M90.7951 20.7116L114.239 86.1355L164.585 21.7488" stroke="#002E47" stroke-miterlimit="10"/>
<path d="M184.582 63.4105L114.24 86.1355L161.479 139.167" stroke="#002E47" stroke-miterlimit="10"/>
<path d="M60.1048 137.102L114.239 86.1355L40.4492 73.7432" stroke="#002E47" stroke-miterlimit="10"/>
<path d="M190.595 66.9084C192.421 63.425 191.073 59.1231 187.585 57.3C184.096 55.4769 179.788 56.8229 177.963 60.3063C176.137 63.7898 177.485 68.0916 180.973 69.9147C184.462 71.7378 188.769 70.3919 190.595 66.9084Z" fill="#002E47" stroke="#002E47" stroke-width="0.5" stroke-miterlimit="10"/>
<path d="M186.645 63.1281H181.998C181.091 63.1281 180.355 63.8633 180.355 64.769V68.6596C181.442 69.502 182.798 70.0084 184.28 70.0084C185.797 70.0084 187.186 69.4776 188.288 68.6012V64.769C188.288 63.8633 187.552 63.1281 186.645 63.1281Z" fill="#39B4EF" stroke="#002E47" stroke-miterlimit="10"/>
<path d="M184.241 62.4123C185.548 62.4123 186.606 61.3556 186.606 60.0507C186.606 58.7457 185.548 57.6891 184.241 57.6891C182.934 57.6891 181.876 58.7457 181.876 60.0507C181.876 61.3556 182.934 62.4123 184.241 62.4123Z" fill="#39B4EF" stroke="#002E47" stroke-miterlimit="10"/>
<path d="M168.776 139.4C170.296 135.774 168.584 131.603 164.953 130.085C161.321 128.567 157.145 130.276 155.625 133.903C154.104 137.529 155.816 141.7 159.448 143.218C163.08 144.736 167.256 143.027 168.776 139.4Z" fill="#002E47" stroke="#002E47" stroke-width="0.5" stroke-miterlimit="10"/>
<path d="M164.576 136.168H159.929C159.022 136.168 158.285 136.903 158.285 137.809V141.699C159.373 142.541 160.728 143.048 162.211 143.048C163.727 143.048 165.117 142.517 166.219 141.641V137.809C166.219 136.898 165.483 136.168 164.576 136.168Z" fill="#39B4EF" stroke="#002E47" stroke-miterlimit="10"/>
<path d="M162.172 135.447C163.479 135.447 164.537 134.39 164.537 133.085C164.537 131.78 163.479 130.724 162.172 130.724C160.865 130.724 159.807 131.78 159.807 133.085C159.807 134.39 160.865 135.447 162.172 135.447Z" fill="#39B4EF" stroke="#002E47" stroke-miterlimit="10"/>
<path d="M90.4879 25.3131C93.2832 25.3131 95.5493 23.0502 95.5493 20.2588C95.5493 17.4673 93.2832 15.2044 90.4879 15.2044C87.6926 15.2044 85.4265 17.4673 85.4265 20.2588C85.4265 23.0502 87.6926 25.3131 90.4879 25.3131Z" fill="#002E47" stroke="#002E47" stroke-width="0.5" stroke-miterlimit="10"/>
<path d="M92.1653 19.9179H88.869C88.2254 19.9179 87.7036 20.4389 87.7036 21.0817V23.8426C88.4741 24.4415 89.4395 24.8018 90.4928 24.8018C91.5704 24.8018 92.5554 24.4269 93.3356 23.8036V21.0817C93.3307 20.4389 92.8089 19.9179 92.1653 19.9179Z" fill="#39B4EF" stroke="#002E47" stroke-miterlimit="10"/>
<path d="M90.4587 19.4066C91.3851 19.4066 92.136 18.6568 92.136 17.7316C92.136 16.8064 91.3851 16.0565 90.4587 16.0565C89.5322 16.0565 88.7813 16.8064 88.7813 17.7316C88.7813 18.6568 89.5322 19.4066 90.4587 19.4066Z" fill="#39B4EF" stroke="#002E47" stroke-miterlimit="10"/>
<path d="M64.0021 138.217C65.0786 135.641 63.8599 132.681 61.2801 131.606C58.7003 130.531 55.7363 131.748 54.6598 134.324C53.5833 136.901 54.802 139.861 57.3818 140.936C59.9616 142.011 62.9257 140.794 64.0021 138.217Z" fill="#002E47" stroke="#002E47" stroke-width="0.5" stroke-miterlimit="10"/>
<path d="M61.0069 135.934H57.7106C57.067 135.934 56.5452 136.455 56.5452 137.098V139.859C57.3157 140.457 58.2811 140.818 59.3344 140.818C60.412 140.818 61.397 140.443 62.1771 139.82V137.098C62.1723 136.455 61.6505 135.934 61.0069 135.934Z" fill="#39B4EF" stroke="#002E47" stroke-miterlimit="10"/>
<path d="M59.3002 135.423C60.2267 135.423 60.9776 134.673 60.9776 133.748C60.9776 132.822 60.2267 132.073 59.3002 132.073C58.3738 132.073 57.6228 132.822 57.6228 133.748C57.6228 134.673 58.3738 135.423 59.3002 135.423Z" fill="#39B4EF" stroke="#002E47" stroke-miterlimit="10"/>
<path d="M169.219 21.7334C170.237 19.1337 168.952 16.2019 166.349 15.185C163.746 14.1681 160.81 15.4511 159.791 18.0508C158.773 20.6505 160.058 23.5823 162.661 24.5992C165.264 25.6161 168.2 24.333 169.219 21.7334Z" fill="#002E47" stroke="#002E47" stroke-width="0.5" stroke-miterlimit="10"/>
<path d="M166.18 19.5478H162.884C162.24 19.5478 161.718 20.0689 161.718 20.7116V23.4725C162.489 24.0714 163.454 24.4317 164.507 24.4317C165.585 24.4317 166.57 24.0568 167.35 23.4335V20.7116C167.345 20.0689 166.824 19.5478 166.18 19.5478Z" fill="#39B4EF" stroke="#002E47" stroke-miterlimit="10"/>
<path d="M164.473 19.0366C165.4 19.0366 166.151 18.2867 166.151 17.3615C166.151 16.4364 165.4 15.6865 164.473 15.6865C163.547 15.6865 162.796 16.4364 162.796 17.3615C162.796 18.2867 163.547 19.0366 164.473 19.0366Z" fill="#39B4EF" stroke="#002E47" stroke-miterlimit="10"/>
<path d="M48.3391 76.1227C50.3232 71.4276 48.1203 66.0153 43.4187 64.034C38.717 62.0526 33.2971 64.2525 31.313 68.9475C29.3289 73.6426 31.5318 79.0549 36.2334 81.0362C40.9351 83.0176 46.3549 80.8177 48.3391 76.1227Z" fill="#002E47" stroke="#002E47" stroke-width="0.5" stroke-miterlimit="10"/>
<path d="M42.8921 71.9123H36.8701C35.6949 71.9123 34.7392 72.8618 34.7392 74.0402V79.0848C36.1435 80.1755 37.9087 80.8329 39.825 80.8329C41.7901 80.8329 43.5942 80.1463 45.0181 79.0069V74.0402C45.0181 72.8618 44.0672 71.9123 42.8921 71.9123Z" fill="#39B4EF" stroke="#002E47" stroke-miterlimit="10"/>
<path d="M39.7762 70.9774C41.4682 70.9774 42.8384 69.6091 42.8384 67.9195C42.8384 66.2298 41.4682 64.8615 39.7762 64.8615C38.0842 64.8615 36.714 66.2298 36.714 67.9195C36.714 69.6091 38.0842 70.9774 39.7762 70.9774Z" fill="#39B4EF" stroke="#002E47" stroke-miterlimit="10"/>
<path d="M69.8863 35.8356C69.8863 35.8064 69.8814 35.7772 69.8765 35.748C69.6327 33.177 67.8237 30.9858 65.371 30.158C64.0203 29.7003 62.7379 29.7393 61.5774 30.0655C61.8407 29.1598 61.9528 28.1908 61.8602 27.1829C61.4945 23.3508 58.247 20.3123 54.3948 20.2198C50.1624 20.1175 46.6955 23.4335 46.5297 27.5968C46.4175 27.5919 46.3054 27.5822 46.1932 27.5822C41.9461 27.5822 38.5036 31.0199 38.5036 35.2611C38.5036 35.9671 38.6011 36.6488 38.7766 37.2964C39.2837 39.1322 40.9904 40.3836 42.897 40.3836H65.6099C68.0772 40.3836 70.0862 38.2946 69.8863 35.8356Z" stroke="#002E47" stroke-miterlimit="10"/>
<path d="M186.518 113.779C186.518 113.764 186.513 113.749 186.513 113.73C186.382 112.342 185.406 111.159 184.085 110.711C183.358 110.463 182.666 110.487 182.037 110.657C182.178 110.17 182.242 109.645 182.188 109.099C181.988 107.035 180.238 105.394 178.156 105.345C175.874 105.291 174.001 107.078 173.913 109.323C173.855 109.318 173.792 109.313 173.733 109.313C171.441 109.313 169.583 111.169 169.583 113.457C169.583 113.837 169.637 114.207 169.73 114.553C170.003 115.541 170.924 116.218 171.953 116.218H184.212C185.538 116.228 186.625 115.103 186.518 113.779Z" stroke="#002E47" stroke-miterlimit="10"/>
<path d="M78.7267 151.301C78.7267 151.287 78.7218 151.272 78.7218 151.253C78.5902 149.865 77.6149 148.682 76.2935 148.234C75.567 147.985 74.8746 148.01 74.2455 148.18C74.387 147.693 74.4503 147.167 74.3967 146.622C74.1968 144.557 72.4463 142.916 70.3642 142.868C68.0821 142.814 66.2097 144.601 66.1219 146.846C66.0634 146.841 66 146.836 65.9415 146.836C63.6497 146.836 61.7919 148.691 61.7919 150.98C61.7919 151.36 61.8456 151.73 61.9382 152.076C62.2113 153.064 63.1329 153.741 64.1617 153.741H76.4203C77.7515 153.756 78.834 152.631 78.7267 151.301Z" stroke="#002E47" stroke-miterlimit="10"/>
<path d="M148.499 24.4658C148.499 24.4512 148.494 24.4366 148.494 24.4171C148.363 23.0294 147.387 21.8461 146.066 21.3982C145.339 21.1498 144.647 21.1742 144.018 21.3446C144.159 20.8577 144.223 20.3318 144.169 19.7864C143.969 17.7218 142.219 16.0809 140.137 16.0322C137.855 15.9786 135.982 17.7657 135.894 20.0104C135.836 20.0056 135.772 20.0007 135.714 20.0007C133.422 20.0007 131.564 21.8559 131.564 24.1445C131.564 24.5243 131.618 24.8943 131.711 25.24C131.984 26.2285 132.905 26.9054 133.934 26.9054H146.193C147.524 26.92 148.611 25.7952 148.499 24.4658Z" stroke="#002E47" stroke-miterlimit="10"/>
<path d="M151.374 122.223C172.067 101.558 172.067 68.0549 151.374 47.3906C130.68 26.7263 97.13 26.7263 76.4368 47.3906C55.7436 68.0549 55.7436 101.558 76.4368 122.223C97.13 142.887 130.68 142.887 151.374 122.223Z" fill="white" stroke="#002E47" stroke-miterlimit="10"/>
<path d="M112.001 60.3136L117.033 62.573L118.418 64.8323L120.681 65.7137L120.934 68.0996L120.052 69.4825L118.292 69.8574L114.517 68.348V67.8464L116.653 66.9651L115.897 64.3259L112.504 63.0696L110.992 61.0586L112.001 60.3136ZM143.691 118.331L139.668 116.7L134.763 114.942H130.862L127.215 114.188L123.192 115.069L120.93 115.196H119.545L116.902 116.7L114.386 117.703L110.992 115.57L111.875 112.055L109.739 111.173H107.223L106.847 110.044L107.101 107.784L106.218 106.528L104.458 106.781L103.956 108.038L101.82 108.164L99.9329 105.905L99.1771 102.891L101.064 99.3752L104.712 99.6284L105.716 100.51H107.228L109.115 99.38L110.748 99.8816L113.011 103.777L113.893 103.65L113.64 100.763L112.884 99.2583L113.137 96.8723L117.789 94.8613L118.418 90.216L120.432 88.5848L122.066 85.6973L123.324 85.4441L126.215 83.5597L126.342 82.5566L124.328 82.6832L123.953 81.6801H122.568L120.432 82.1817L121.437 80.5504L125.84 79.2942L126.844 78.1645L128.605 80.9254L129.736 82.055L131.496 81.5535L130.74 79.9223L128.097 78.0379L125.079 74.6488L121.934 72.5161L118.916 72.0146L117.409 70.5099L115.395 70.0084L115.142 70.5099L114.888 74.1522L115.39 75.4085L114.259 79.4256L111.743 77.4146L112.118 75.6568L109.476 74.4005L108.344 73.0176L108.973 69.8769L112.621 67.2378L112.874 64.2237L111.489 64.3503L110.607 63.2206L110.231 61.3362L109.349 61.2096L108.846 63.2206L107.462 63.4738L106.833 59.0768L105.828 58.4487L104.068 57.6939L102.054 58.697L104.57 61.083L105.072 63.2157L100.547 59.8267L97.4022 56.4377L97.1487 53.0486L93.8768 52.0455L91.3607 53.6768C91.3607 53.6768 90.1027 54.4315 89.4737 54.6798C88.8446 54.933 86.4553 55.1814 86.4553 55.1814L85.9531 57.3141L83.0616 57.4407L83.3151 58.8236L87.9669 59.5784L90.3562 62.2175V66.6145L88.9714 70.5099L89.225 74.6537L85.7044 80.8085L84.9486 89.9774L86.0799 95.2509L87.7134 99.268L89.6004 99.5212L88.9714 97.5102L87.9669 96.0007L87.3379 93.2398L88.4692 92.9866L90.2295 97.5053L91.4875 101.523V104.79L93.8768 107.677L98.1532 110.818L104.692 112.576L106.706 114.46L108.213 116.471L110.475 117.854L113.24 118.609L116.005 118.482C116.005 118.482 115.878 119.739 115.878 120.367C115.878 120.995 114.118 123.128 114.118 123.128L112.733 125.64L113.737 128.401L116.502 129.531L120.403 133.548L122.163 134.303V136.187L122.383 137.064C132.388 135.452 141.458 131.045 148.758 124.666L148.821 123.756L152.215 117.601L150.581 116.471L143.691 118.331ZM156.774 68.7229L155.389 66.3369L153.629 63.5761L153.127 59.8072L155.389 60.1821L155.516 58.9259L153.882 58.7993L155.267 58.1711L156.774 57.2898V56.0335L155.267 54.0225L154.945 51.32C145.227 39.4584 130.457 31.8818 113.913 31.8818C106.394 31.8818 99.2405 33.4497 92.7602 36.269L95.6615 38.319L93.8914 40.593L91.5021 41.0945L91.2486 44.4835L90.2441 44.8585L88.986 46.2413L89.1128 48.5007L91.2486 48.7539L90.366 50.8867H92.5017L96.1491 46.2413L96.5245 44.2303L100.045 43.9771L100.928 42.4725L104.575 42.0976L104.95 39.9648L107.593 39.8382C107.593 39.8382 109.48 38.8351 109.856 38.8351C110.231 38.8351 111.992 39.4633 111.992 39.4633L113.879 40.9679H116.522L118.784 39.585L121.676 39.8382C121.676 39.8382 122.431 40.3397 123.06 40.3397C123.689 40.3397 125.576 39.4584 125.576 39.4584L129.224 41.7178L130.731 42.8474V44.7319L132.618 44.9851L133.247 43.8554L134.88 44.6101L134.753 45.6132L130.979 46.6163L133.115 49.3772L137.64 51.8897L139.527 54.4023L142.292 54.6555L142.921 53.3992L143.925 53.146L140.653 50.6335L138.64 50.3802L140.273 49.8787L138.766 47.746L140.902 47.6194L143.667 49.124L144.296 52.1381L145.681 53.7693L146.812 57.4115L149.577 59.4225V63.5663L152.468 65.4507L152.341 66.8336L151.966 68.4648L152.722 70.7242L152.975 71.8539L155.111 72.2288L156.116 70.096L156.774 68.7229ZM158.407 56.0725V56.7931L157.778 58.8041L158.154 60.562L159.539 61.0635V63.4495L158.032 62.8213L157.656 69.6043L156.15 72.3651L157.154 75.8808L158.788 77.3854V84.1683L160.421 89.4418L162.181 93.459L165.073 94.2137L166.078 91.7011L166.487 91.3798C166.755 89.2227 166.897 87.0266 166.897 84.8013C166.897 74.2155 163.776 64.3503 158.407 56.0725ZM129.355 55.2885L121.056 51.6463L117.409 51.7729L116.526 54.1588L115.015 52.5276L112.25 53.1557L111.996 57.2995L114.259 58.9307L115.892 56.5448L117.78 58.4292L121.68 61.8182L122.436 65.4605L125.708 69.6043L130.989 68.7229L130.862 66.8385L129.731 64.7057L129.477 59.6806L130.735 57.5479L129.355 55.2885ZM136.148 58.0494L134.261 57.5479L132.627 58.9307L133.51 62.573H135.143L136.148 58.0494ZM147.846 60.4354L143.569 58.176L142.687 56.6714L141.682 57.0463L142.565 59.5589L143.321 62.8262L145.208 63.5809L145.583 63.0794L144.452 61.195L147.724 62.4512L147.846 60.4354ZM111.124 105.773L110.621 106.275L114.396 107.405L115.902 109.162L118.292 109.416L119.174 108.033L116.283 107.531L111.124 105.773ZM122.314 108.159L119.671 108.914L120.047 109.917H123.319L123.948 108.914L122.817 109.041L122.314 108.159Z" fill="#39B4EF" stroke="#002E47" stroke-miterlimit="10"/>
<path d="M151.449 150.435C151.449 150.435 151.332 152.636 151.912 154.491C152.493 156.346 153.073 158.079 153.653 158.776C154.233 159.472 155.16 158.313 154.35 156.921C153.536 155.533 154.004 154.023 154.467 154.023C154.931 154.023 158.641 156.341 159.222 157.149C159.802 157.963 161.543 160.047 161.543 158.654C161.543 157.266 158.875 154.369 158.412 153.556C157.949 152.743 155.394 149.271 155.394 149.271L151.449 150.435Z" fill="white" stroke="#002E47" stroke-miterlimit="10" stroke-linejoin="round"/>
<path d="M153.073 146.15L155.394 149.276L150.986 151.71L148.899 149.159L153.073 146.15Z" fill="#39B4EF" stroke="#002E47" stroke-miterlimit="10" stroke-linejoin="round"/>
<path d="M128.483 211.019C128.483 211.019 126.742 214.841 126.045 215.883C125.347 216.925 124.767 217.388 123.606 217.621C122.446 217.855 120.476 218.084 120.476 219.009C120.476 219.934 120.939 220.63 120.939 220.63C120.939 220.63 126.391 221.789 128.249 221.327C130.106 220.864 131.959 218.313 131.959 218.313L133.12 219.009L136.484 215.766C136.484 215.766 136.367 214.607 135.324 212.523C134.28 210.439 133.7 208.934 133.7 208.934C133.7 208.934 131.15 211.019 128.483 211.019Z" fill="#B3C7EB" stroke="#002E47" stroke-miterlimit="10" stroke-linejoin="round"/>
<path d="M135.772 213.482C134.549 214.627 131.735 217.363 130.965 218.055C130.004 218.916 127.995 220.64 126.459 220.64C125.357 220.64 122.28 220.197 120.632 219.944C120.769 220.363 120.944 220.63 120.944 220.63C120.944 220.63 126.396 221.789 128.253 221.327C130.111 220.864 131.964 218.313 131.964 218.313L133.125 219.009L136.489 215.766C136.489 215.766 136.406 214.958 135.772 213.482Z" stroke="#002E47" stroke-miterlimit="10" stroke-linejoin="round"/>
<path d="M119.437 195.612C119.437 195.612 121.641 200.248 123.845 203.023C126.049 205.803 128.487 212.061 128.487 212.061C128.487 212.061 130.457 212.757 131.852 211.715C133.242 210.673 133.71 208.934 133.71 208.934C133.71 208.934 130.926 200.364 129.882 196.654C128.839 192.949 126.288 184.841 125.128 182.869C123.967 180.902 122.227 178.701 122.227 178.701C122.227 178.701 120.949 186.346 120.369 189.243C119.784 192.135 119.437 195.612 119.437 195.612Z" fill="#002E47" stroke="#002E47" stroke-miterlimit="10" stroke-linejoin="round"/>
<path d="M109.11 142.327L109.227 149.738C109.227 149.738 107.257 163.406 108.881 170.355C110.504 177.303 113.055 184.948 113.055 184.948C113.055 184.948 111.777 197.691 111.314 200.817C110.851 203.943 108.876 209.855 108.876 209.855C108.876 209.855 112.24 211.593 112.821 211.593C113.401 211.593 113.981 211.593 113.981 211.593C113.981 211.593 117.463 202.21 118.155 200.822C118.852 199.434 121.285 196.766 122.1 190.976C122.914 185.187 123.143 179.164 123.143 179.164C123.143 179.164 128.941 171.752 130.336 169.435C131.725 167.117 133.929 162.369 133.929 162.369C133.929 162.369 136.479 155.767 136.133 149.397C135.787 143.028 133.812 139.785 133.812 139.785C133.812 139.785 122.446 142.449 117.107 142.449C111.782 142.444 109.11 142.327 109.11 142.327Z" fill="#002E47" stroke="#002E47" stroke-miterlimit="10" stroke-linejoin="round"/>
<path d="M112.07 100.724C112.07 100.724 114.317 102.969 113.981 103.758C113.645 104.546 107.793 104.882 106.56 106.343C105.321 107.804 100.035 126.336 100.035 126.336C100.035 126.336 93.7354 124.54 93.1746 124.092C92.6139 123.644 91.9361 123.98 91.5996 125.329C91.2632 126.677 87.8889 129.711 88.3375 130.495C88.7861 131.279 94.9739 134.312 98.0117 135.101C101.05 135.885 103.634 136.114 103.634 136.114L103.185 141.84C103.185 141.84 108.92 145.098 120.057 143.637C131.194 142.176 135.802 139.82 135.802 139.82L134.451 128.25C134.451 128.25 141.76 141.952 142.999 144.314C144.237 146.671 145.812 150.152 147.158 150.605C148.509 151.053 153.346 147.907 153.458 146.564C153.57 145.215 149.411 138.7 146.149 133.085C142.887 127.471 138.386 111.631 137.713 108.262C137.04 104.892 135.241 102.082 133.325 101.635C131.413 101.187 126.24 101.187 123.987 100.734C121.739 100.286 118.589 96.5802 117.126 91.8618L112.07 100.724Z" fill="#39B4EF" stroke="#002E47" stroke-miterlimit="10"/>
<path d="M108.027 111.178C108.598 109.971 109.032 109.148 109.032 109.148" stroke="#002E47" stroke-miterlimit="10"/>
<path d="M103.634 136.104C103.634 136.104 104.985 121.613 105.545 118.132C105.789 116.637 106.462 114.772 107.154 113.126" stroke="#002E47" stroke-miterlimit="10"/>
<path d="M130.74 114.967C130.57 114.168 130.418 113.384 130.292 112.634" stroke="#002E47" stroke-miterlimit="10"/>
<path d="M134.456 128.245C134.456 128.245 132.588 122.723 131.242 117.143" stroke="#002E47" stroke-miterlimit="10"/>
<path d="M110.943 104.722C111.48 105.881 113.22 108.223 118.482 108.135C124.689 108.033 127.42 103.753 128.419 101.148C126.727 101.04 125.04 100.928 123.992 100.719C121.744 100.271 118.594 96.5656 117.131 91.8472L112.07 100.719C112.07 100.719 114.317 102.964 113.981 103.753C113.825 104.123 112.469 104.395 110.943 104.722Z" fill="white" stroke="#002E47" stroke-miterlimit="10"/>
<path d="M116.278 95.0512L114.742 96.0397L112.07 100.729C112.07 100.729 113.23 101.888 113.757 102.832C116.278 99.8231 116.278 95.0512 116.278 95.0512Z" fill="#002E47" stroke="#002E47" stroke-miterlimit="10" stroke-linejoin="round"/>
<path d="M99.026 90.0553C99.026 90.0553 101.162 93.7608 101.727 95.4456C102.288 97.1304 104.087 99.2632 106.116 100.164C108.139 101.065 109.154 101.849 110.953 101.961C113.537 102.121 115.454 98.4792 116.463 95.6696C117.477 92.86 117.477 92.4121 117.477 92.4121C117.477 92.4121 119.052 90.0553 119.052 87.5817C119.052 85.113 116.239 82.3034 113.089 80.8426C109.939 79.3818 107.803 77.2491 104.541 80.1706C101.274 83.0922 99.026 90.0553 99.026 90.0553Z" fill="white" stroke="#002E47" stroke-miterlimit="10"/>
<path d="M104.648 93.6489C104.648 93.6489 105.097 94.8857 105.097 95.6696C105.097 96.4536 106.111 96.7944 107.008 95.1096" stroke="#002E47" stroke-miterlimit="10"/>
<path d="M107.232 97.3544C107.232 97.3544 110.046 97.8024 110.607 94.4328" stroke="#002E47" stroke-miterlimit="10"/>
<path d="M107.808 89.7534C108.071 90.2014 108.076 90.6835 107.827 90.8344C107.574 90.9805 107.154 90.737 106.896 90.289C106.633 89.8411 106.628 89.359 106.877 89.2081C107.13 89.062 107.545 89.3054 107.808 89.7534Z" fill="#002E47"/>
<path d="M103.268 91.9982C103.532 92.4461 103.536 92.9282 103.283 93.0791C103.029 93.2252 102.61 92.9818 102.351 92.5338C102.088 92.0858 102.083 91.6037 102.332 91.4528C102.59 91.3067 103.01 91.5502 103.268 91.9982Z" fill="#002E47"/>
<path d="M104.585 88.2537C104.585 88.2537 105.058 86.491 108.237 86.7247" stroke="#002E47" stroke-miterlimit="10"/>
<path d="M102.225 90.0212C102.225 90.0212 100.46 90.0212 100.577 91.4333" stroke="#002E47" stroke-miterlimit="10"/>
<path d="M107.12 81.9674C107.12 81.9674 105.657 83.6522 103.97 85.337C102.283 87.0217 99.4697 89.4905 99.4697 92.524C99.4697 95.5576 99.5818 95.8936 99.5818 95.8936C99.5818 95.8936 94.7447 93.4249 93.3941 90.0553C92.0434 86.6858 95.0812 78.9338 98.7919 75.4523C102.503 71.9707 106.891 71.2988 111.728 71.6348C116.565 71.9707 121.402 76.8011 122.641 81.6314C123.88 86.4618 121.402 91.7401 120.617 92.6409C119.832 93.5417 117.355 93.6537 117.355 93.6537C117.355 93.6537 118.257 90.9561 117.692 88.3754C117.131 85.7898 115.556 86.3546 115.332 87.4746C115.107 88.5994 114.995 89.0474 114.995 89.0474C114.995 89.0474 112.747 87.4746 110.382 85.7898C108.022 84.1002 107.12 81.9674 107.12 81.9674Z" fill="#002E47" stroke="#002E47" stroke-miterlimit="10" stroke-linejoin="round"/>
<path d="M85.7532 127.344L88.7861 122.85L90.249 124.311L85.7532 127.344Z" fill="#39B4EF" stroke="#002E47" stroke-miterlimit="10" stroke-linejoin="round"/>
<path d="M96.4758 120.722L89.4103 120.751L82.6763 107.799L89.7418 107.77L96.4758 120.722Z" fill="#002E47" stroke="#002E47" stroke-miterlimit="10" stroke-linejoin="round"/>
<path d="M83.8369 114.09C83.8369 114.09 85.6361 115.775 85.7483 116.559C85.8604 117.343 86.7625 120.376 87.2111 121.837C87.6597 123.298 89.3469 124.871 89.3469 124.871L90.8097 123.41L90.2489 120.941C90.2489 120.941 91.2632 120.04 91.9361 119.592C92.609 119.145 93.3989 117.908 92.9503 117.908C92.5017 117.908 91.9361 118.02 91.9361 118.02C91.9361 118.02 92.9503 116.447 92.2725 116.335C91.5996 116.223 90.9219 116.223 90.9219 116.223C90.9219 116.223 92.0482 114.874 91.1462 114.762C90.2441 114.65 87.099 116.335 87.099 116.335L85.7483 114.314C85.7532 114.314 84.8511 113.754 83.8369 114.09Z" fill="white" stroke="#002E47" stroke-miterlimit="10" stroke-linejoin="round"/>
<path d="M84.2123 113.35C83.7832 113.72 83.9636 114.421 84.5195 114.533C84.9827 114.626 85.4899 114.626 85.7532 114.314C86.3139 113.642 88.5667 111.845 88.5667 110.945C88.5667 110.044 87.5525 111.057 87.1039 111.281C86.7869 111.441 85.1729 112.517 84.2123 113.35Z" fill="white" stroke="#002E47" stroke-miterlimit="10" stroke-linejoin="round"/>
<path d="M90.9267 116.223C90.9267 116.223 87.5525 117.908 86.9917 118.58" stroke="#002E47" stroke-miterlimit="10" stroke-linejoin="round"/>
<path d="M91.9361 118.025C91.9361 118.025 89.2347 119.261 88.3375 120.269" stroke="#002E47" stroke-miterlimit="10" stroke-linejoin="round"/>
<path d="M92.1604 123.975L90.5854 122.626L85.7483 127.344L89.0104 129.813C89.0153 129.818 92.0482 126.896 92.1604 123.975Z" fill="#39B4EF" stroke="#002E47" stroke-miterlimit="10" stroke-linejoin="round"/>
<path d="M123.265 150.089C123.265 150.089 118.043 162.369 116.887 167.463C115.727 172.561 113.523 182.29 113.523 182.869" stroke="#B3C7EB" stroke-miterlimit="10" stroke-linejoin="round"/>
<path d="M115.722 153.561L118.74 157.037" stroke="#B3C7EB" stroke-miterlimit="10" stroke-linejoin="round"/>
<path d="M108.881 209.514C108.881 209.514 108.183 211.019 104.819 211.715C101.454 212.411 98.3238 211.135 97.7435 211.252C97.1633 211.369 96.583 212.411 96.583 213.336C96.583 214.261 100.645 216.813 102.269 217.621C103.892 218.434 106.33 218.663 106.33 218.663H106.911L106.794 219.822C106.794 219.822 108.534 220.519 109.695 220.747C110.855 220.981 112.362 220.747 112.362 220.747C112.362 220.747 112.942 218.43 112.942 216.229C112.942 214.028 113.986 211.593 113.986 211.593L108.881 209.514Z" fill="#B3C7EB" stroke="#002E47" stroke-miterlimit="10" stroke-linejoin="round"/>
<path d="M112.713 218.936C110.426 218.639 106.213 217.972 103.649 217.003C100.942 215.98 97.9044 213.901 96.6171 212.971C96.5976 213.093 96.5879 213.215 96.5879 213.336C96.5879 214.261 100.65 216.813 102.273 217.621C103.897 218.434 106.335 218.663 106.335 218.663H106.916L106.798 219.822C106.798 219.822 108.539 220.519 109.7 220.747C110.86 220.981 112.367 220.747 112.367 220.747C112.367 220.747 112.547 219.993 112.713 218.936Z" stroke="#002E47" stroke-miterlimit="10" stroke-linejoin="round"/>
</g>
<defs>
<clipPath id="clip0_344_4262">
<rect width="226" height="225" fill="white" transform="translate(0.5)"/>
</clipPath>
</defs>
</svg>
