<svg width="374" height="228" viewBox="0 0 374 228" fill="none" xmlns="http://www.w3.org/2000/svg">
<path d="M328.931 196.723C348.54 182.298 361.336 160.403 364.21 137.351C366.021 122.817 367 104.562 363.842 88.9408C353.429 37.4117 310.983 9.46651 278.325 3.50594C245.666 -2.45464 210.138 8.47308 182.354 25.8581C154.569 43.2431 157.384 40.2628 113.839 33.8055C70.2944 27.3482 31.897 46.2234 16.1123 80.9934C0.32265 115.763 34.4382 135.468 36.4026 153.678C38.367 171.892 27.824 204.178 96.07 212.126C164.316 220.073 189.495 181.33 222.601 192.257C249.237 201.049 287.475 227.211 328.931 196.723Z" fill="#39B4EF"/>
<path opacity="0.7" d="M328.931 196.723C348.54 182.298 361.336 160.403 364.21 137.351C366.021 122.817 367 104.562 363.842 88.9408C353.429 37.4117 310.983 9.46651 278.325 3.50594C245.666 -2.45464 210.138 8.47308 182.354 25.8581C154.569 43.2431 157.384 40.2628 113.839 33.8055C70.2944 27.3482 31.897 46.2234 16.1123 80.9934C0.32265 115.763 34.4382 135.468 36.4026 153.678C38.367 171.892 27.824 204.178 96.07 212.126C164.316 220.073 189.495 181.33 222.601 192.257C249.237 201.049 287.475 227.211 328.931 196.723Z" fill="white"/>
<g opacity="0.1">
<path d="M132.904 192.68C133.386 193.291 133.849 193.911 134.301 194.542C134.525 194.86 134.744 195.178 134.963 195.491C135.187 195.799 135.405 196.102 135.624 196.405C136.494 197.612 137.295 198.874 138.066 200.066C138.847 201.233 139.573 202.39 140.239 203.518C140.408 203.801 140.567 204.079 140.732 204.352C140.896 204.621 141.055 204.879 141.214 205.137C141.527 205.664 141.826 206.165 142.114 206.647C142.681 207.626 143.188 208.54 143.631 209.364C144.073 210.179 144.466 210.859 144.77 211.45C145.391 212.618 145.71 213.313 145.71 213.313C145.71 213.313 145.421 213.139 144.909 212.831C144.402 212.513 143.661 212.091 142.795 211.505C141.93 210.909 140.921 210.199 139.831 209.419C139.558 209.22 139.279 209.031 139.006 208.818C138.732 208.599 138.454 208.376 138.17 208.152C137.613 207.7 137.042 207.233 136.465 206.761C135.301 205.842 134.192 204.76 133.113 203.731C132.576 203.205 132.044 202.713 131.551 202.177C131.059 201.635 130.591 201.109 130.149 200.592C128.349 198.571 127.09 196.569 126.578 195.258C126.056 193.951 125.598 192.302 125.151 190.698C124.932 189.888 124.718 189.088 124.534 188.289C124.36 187.474 124.201 186.684 124.057 185.944C123.778 184.454 123.544 183.192 123.43 182.234C123.316 181.29 123.246 180.719 123.246 180.719C123.246 180.719 123.748 181.022 124.599 181.528C125.469 182 126.668 182.696 128.035 183.515C128.736 183.893 129.477 184.31 130.233 184.757C130.611 184.98 130.994 185.209 131.382 185.442C131.775 185.661 132.173 185.885 132.576 186.108C133.376 186.555 134.152 187.062 134.938 187.529C135.729 187.986 136.494 188.462 137.216 188.959C137.927 189.476 138.588 190.027 139.165 190.708C139.742 191.378 140.249 192.143 140.697 192.963C141.632 194.522 142.338 196.316 142.895 198.024C143.462 199.693 143.885 201.248 144.153 202.41C144.427 203.568 144.546 204.313 144.546 204.313C144.675 205.684 144.819 207.054 144.998 208.396C141.905 204.298 138.797 200.493 136.594 197.527C136.037 196.797 135.525 196.142 135.067 195.565C134.63 194.969 134.242 194.448 133.923 194.016C133.277 193.146 132.904 192.68 132.904 192.68Z" fill="#002E47"/>
<path d="M120.005 217.694C120.93 217.913 121.84 218.106 122.73 218.265C123.178 218.345 123.615 218.419 124.053 218.489C124.491 218.548 124.933 218.583 125.366 218.623C127.101 218.767 128.733 218.846 130.284 218.792C131.846 218.712 133.303 218.563 134.641 218.37C134.974 218.32 135.302 218.265 135.62 218.216C135.944 218.146 136.262 218.082 136.57 218.012C137.187 217.873 137.774 217.729 138.331 217.58C139.445 217.282 140.429 216.969 141.28 216.671C142.135 216.363 142.871 216.03 143.458 215.767C144.637 215.225 145.263 214.858 145.263 214.858C145.263 214.858 144.93 214.818 144.338 214.744C143.746 214.664 142.886 214.59 141.847 214.431C140.802 214.267 139.574 214.068 138.231 213.854C137.893 213.8 137.545 213.755 137.197 213.691C136.849 213.621 136.496 213.551 136.138 213.477C135.412 213.338 134.671 213.194 133.92 213.045C132.393 212.787 130.866 212.394 129.329 212.061C128.569 211.887 127.793 211.748 127.057 211.565C126.316 211.386 125.59 211.212 124.893 211.043C122.059 210.442 119.667 209.836 118.16 209.866C116.648 209.906 114.947 209.851 113.147 209.851C112.257 209.841 111.337 209.846 110.451 209.821C109.566 209.781 108.696 209.747 107.88 209.712C106.239 209.627 104.732 209.578 103.688 209.478C102.634 209.384 101.992 209.329 101.992 209.329C101.992 209.329 102.534 209.98 103.499 211.033C104.489 212.046 105.886 213.482 107.577 215.071C111.003 218.166 115.668 221.817 120.159 224.057C121.258 224.663 122.432 225.006 123.576 225.254C124.724 225.492 125.868 225.597 126.977 225.597C129.225 225.517 131.324 225.026 133.099 224.4C134.889 223.734 136.366 222.915 137.386 222.284C138.405 221.648 138.982 221.191 138.982 221.191C139.962 220.277 140.927 219.348 141.882 218.38L140.912 218.578L139.947 218.722C139.3 218.817 138.649 218.896 137.998 218.966C136.7 219.1 135.377 219.239 134.119 219.229C132.85 219.244 131.607 219.229 130.414 219.194C129.215 219.169 128.106 219.02 127.057 218.916C126.007 218.802 125.038 218.678 124.172 218.553C123.322 218.399 122.576 218.25 121.954 218.121C120.721 217.868 120.005 217.694 120.005 217.694Z" fill="#002E47"/>
<path d="M113.561 177.753C114.7 180.545 115.69 183.257 116.496 185.865C117.351 188.403 117.987 190.886 118.569 192.928C119.121 195.009 119.509 196.797 119.798 197.994C120.071 199.216 120.191 199.932 120.191 199.932C120.191 199.932 119.977 199.693 119.589 199.271C119.211 198.839 118.644 198.263 118.017 197.473C117.396 196.693 116.66 195.769 115.854 194.766C115.451 194.274 115.063 193.723 114.665 193.156C114.273 192.59 113.87 192.014 113.462 191.423C110.234 186.679 107.479 181.027 107.246 178.31C107.176 177.634 107.101 176.919 107.057 176.159C107.022 175.389 107.002 174.594 106.992 173.804C106.972 172.21 106.967 170.655 107.071 169.21C107.156 167.784 107.255 166.547 107.335 165.673C107.405 164.804 107.489 164.258 107.489 164.258C107.489 164.258 107.584 164.362 107.763 164.551C107.947 164.734 108.22 165.003 108.558 165.34C108.892 165.683 109.289 166.09 109.742 166.557C110.185 167.024 110.672 167.556 111.229 168.087C111.776 168.629 112.348 169.215 112.93 169.836C113.074 169.99 113.218 170.149 113.367 170.308C113.522 170.457 113.676 170.611 113.83 170.765C114.133 171.077 114.447 171.39 114.755 171.708C115.953 173.02 117.237 174.286 118.306 175.598C118.44 175.761 118.564 175.93 118.689 176.104C118.818 176.268 118.937 176.442 119.052 176.616C119.28 176.968 119.484 177.336 119.668 177.724C120.036 178.493 120.31 179.333 120.529 180.192C121.006 181.866 121.225 183.684 121.319 185.378C121.434 187.047 121.444 188.557 121.404 189.679C121.369 190.797 121.305 191.497 121.305 191.497C121.096 192.754 120.887 194.046 120.723 195.302C117.301 186.893 113.561 177.753 113.561 177.753Z" fill="#002E47"/>
<path d="M98.7374 156.315C99.4734 162.34 99.6525 168.033 99.6127 172.394C99.6226 174.545 99.5331 176.377 99.4734 177.634C99.4287 178.886 99.359 179.601 99.359 179.601C99.359 179.601 99.2098 179.308 98.9463 178.791C98.6728 178.28 98.3246 177.515 97.9168 176.571C97.509 175.632 97.0217 174.54 96.5244 173.328C96.0619 172.091 95.5745 170.76 95.0921 169.394C94.6296 168.018 94.2318 166.562 93.8389 165.172C93.635 164.481 93.4758 163.776 93.3366 163.08C93.1924 162.39 93.0581 161.719 92.9388 161.074C92.8244 160.423 92.705 159.812 92.6354 159.211C92.5707 158.61 92.521 158.044 92.4862 157.517C92.4215 156.464 92.4315 155.58 92.531 154.914C92.7348 153.583 93.1029 152.028 93.4709 150.514C93.824 149.003 94.3163 147.469 94.7539 146.132C95.2065 144.791 95.5795 143.659 95.9276 142.829C96.2608 142.015 96.4647 141.518 96.4647 141.518C96.4647 141.518 96.7283 142.03 97.1758 142.894C97.6582 143.743 98.3147 144.94 99.0209 146.336C100.558 149.083 102.388 152.57 103.875 155.669C105.277 158.794 104.884 162.668 104.238 165.966C103.885 167.625 103.512 169.076 103.193 170.134C102.88 171.192 102.636 171.842 102.636 171.842C102.109 172.985 101.592 174.147 101.09 175.319C100.856 172.836 100.478 170.476 100.229 168.201C100.085 167.099 99.9409 166.021 99.8066 164.998C99.6922 163.97 99.5779 163.011 99.4635 162.132C99.2098 160.393 99.0905 158.898 98.9562 157.89C98.8269 156.891 98.7374 156.315 98.7374 156.315Z" fill="#002E47"/>
<path d="M96.5537 197.279C97.3295 197.726 98.0954 198.143 98.8513 198.531C99.6122 198.913 100.393 199.231 101.144 199.539C102.661 200.135 104.083 200.677 105.515 201.014C106.928 201.372 108.265 201.64 109.504 201.839C110.762 202.018 111.946 202.092 113.005 202.137C114.074 202.177 115.024 202.182 115.864 202.137C116.715 202.082 117.446 202.003 118.038 201.923C119.221 201.764 119.873 201.611 119.873 201.611C119.873 201.611 118.714 201.089 116.909 200.279C115.148 199.38 112.662 198.248 110.12 196.837C109.474 196.499 108.817 196.152 108.156 195.809C107.51 195.441 106.863 195.074 106.221 194.706C104.928 193.981 103.63 193.295 102.467 192.6C101.288 191.925 100.164 191.324 99.1696 190.837C98.2048 190.325 97.3594 189.943 96.688 189.744C95.3503 189.352 93.7539 188.934 92.1774 188.428C90.591 187.936 88.92 187.454 87.4629 186.952C84.5536 185.949 82.2461 185.115 82.2461 185.115C82.2461 185.115 82.624 185.815 83.2556 186.997C83.9121 188.169 84.7973 189.853 86.0107 191.666C86.6025 192.585 87.249 193.559 87.9353 194.562C88.6465 195.541 89.4074 196.529 90.1882 197.523C90.586 198.014 90.9839 198.511 91.3817 199.003C91.7945 199.485 92.2222 199.947 92.6449 200.408C93.4953 201.327 94.3556 202.216 95.206 203.036C96.0813 203.831 97.0312 204.477 97.9959 205.003C98.9707 205.52 99.9404 205.957 100.965 206.21C102.994 206.747 104.968 206.9 106.714 206.801C110.245 206.563 112.736 205.54 112.736 205.54C113.825 204.998 114.929 204.402 116.014 203.806C114.785 203.717 113.587 203.503 112.388 203.265C111.195 203.021 109.986 202.773 108.842 202.445C107.708 202.112 106.599 201.755 105.545 201.392C105.018 201.208 104.496 201.034 104.003 200.841C103.516 200.637 103.044 200.438 102.591 200.25C100.786 199.46 99.2193 198.769 98.1998 198.178C97.1555 197.632 96.5537 197.279 96.5537 197.279Z" fill="#002E47"/>
<path d="M76.8654 168.892C78.1335 170.223 79.4067 171.43 80.6599 172.508C81.9529 173.561 83.2409 174.475 84.4643 175.285C84.7727 175.483 85.076 175.677 85.3794 175.871C85.6927 176.05 86.001 176.218 86.3044 176.392C86.9161 176.725 87.5079 177.033 88.0848 177.316C89.2435 177.877 90.2928 178.374 91.3322 178.727C93.3712 179.457 95.0372 179.874 96.1959 180.118C97.3845 180.331 98.0509 180.381 98.0509 180.381C98.0509 180.381 97.8072 180.167 97.3696 179.79C96.922 179.422 96.3352 178.841 95.5892 178.156C94.8532 177.46 93.9431 176.661 93.0032 175.742C92.0533 174.808 91.0288 173.799 89.9745 172.761C88.9352 171.683 87.8659 170.576 86.8166 169.493C85.7573 168.4 84.7776 167.288 83.793 166.284C82.7983 165.291 81.943 164.327 81.1323 163.542C80.3267 162.758 79.6056 162.127 79.0088 161.734C76.7013 160.12 73.4737 158.019 70.9623 156.116C69.6842 155.183 68.5305 154.338 67.7547 153.702C66.959 153.067 66.4766 152.684 66.4766 152.684C66.4766 152.684 66.6307 153.484 66.8943 154.83C67.1927 156.166 67.685 158.024 68.2818 160.185C68.5852 161.262 68.983 162.38 69.3809 163.552C69.7936 164.715 70.1965 165.941 70.7186 167.119C71.2209 168.306 71.7481 169.503 72.2951 170.665C72.8372 171.832 73.4737 172.92 74.0755 173.973C75.269 176.089 76.9798 177.659 78.7303 178.841C79.168 179.139 79.6155 179.407 80.0581 179.656C80.5107 179.894 80.9782 180.108 81.4307 180.301C82.3408 180.684 83.236 180.987 84.0864 181.215C84.9368 181.444 85.7325 181.608 86.4585 181.722C87.1995 181.821 87.861 181.876 88.413 181.901C89.517 181.956 90.1884 181.901 90.1884 181.901C91.3919 181.712 92.5854 181.508 93.769 181.285C92.655 180.778 91.5361 180.222 90.437 179.631C89.3181 179.055 88.3085 178.369 87.2841 177.714C86.2795 177.038 85.265 176.387 84.3848 175.682C83.4896 174.987 82.6442 174.301 81.8684 173.65C81.4805 173.323 81.1075 173.005 80.7494 172.702C80.4112 172.384 80.088 172.081 79.7846 171.798C79.1779 171.222 78.6557 170.705 78.2231 170.278C77.3528 169.413 76.8654 168.892 76.8654 168.892Z" fill="#002E47"/>
<path d="M90.3292 132.08C89.4986 138.071 88.2255 143.584 87.0718 147.767C86.5396 149.833 86.0025 151.562 85.6097 152.764C85.2516 153.951 85.0029 154.621 85.0029 154.621C85.0029 154.621 84.9333 154.298 84.809 153.722C84.6747 153.151 84.5504 152.302 84.3863 151.278C84.2321 150.25 84.0232 149.063 83.874 147.747C83.7398 146.421 83.6055 144.995 83.4861 143.54C83.4115 142.069 83.3817 140.564 83.3568 139.109C83.3419 137.654 83.4513 136.213 83.5408 134.902C83.6154 133.595 83.8193 132.378 84.0232 131.355C84.2321 130.327 84.4658 129.483 84.7294 128.877C85.8732 126.428 87.5492 123.423 89.1356 121.143C89.9164 120 90.5629 119.032 91.1149 118.341C91.647 117.661 91.9703 117.253 91.9703 117.253C91.9703 117.253 92.0996 117.825 92.2935 118.788C92.5322 119.747 92.8555 121.088 93.1738 122.638C93.9347 125.727 94.8 129.612 95.4266 133.019C95.6703 134.743 95.5161 136.461 95.0337 138.165C94.9144 138.592 94.7801 139.015 94.6259 139.432C94.4917 139.844 94.3425 140.256 94.1833 140.659C93.865 141.468 93.507 142.248 93.139 142.988C92.771 143.728 92.3831 144.424 92.03 145.045C91.6868 145.666 91.3586 146.217 91.0751 146.674C90.5032 147.593 90.1054 148.149 90.1054 148.149C89.3097 149.093 88.5239 150.052 87.7431 151.03C88.131 148.576 88.3847 146.192 88.7179 143.942C88.877 142.819 88.9665 141.761 89.1306 140.738C89.2798 139.72 89.4141 138.761 89.5285 137.887C89.5832 137.45 89.6329 137.033 89.6826 136.635C89.7423 136.238 89.802 135.855 89.8567 135.503C89.9611 134.797 90.0507 134.182 90.1253 133.67C90.2695 132.657 90.3292 132.08 90.3292 132.08Z" fill="#002E47"/>
<path d="M66.0981 137.554C66.9684 139.223 67.8984 140.768 68.8234 142.184C69.7782 143.594 70.8027 144.856 71.7724 146.003C72.7322 147.161 73.7716 148.154 74.7314 149.048C75.7062 149.937 76.6013 150.722 77.4915 151.378C79.2719 152.689 80.7738 153.588 81.8281 154.164C82.3502 154.452 82.7978 154.646 83.0863 154.78C83.3847 154.909 83.5388 154.974 83.5388 154.974C83.5388 154.974 83.3548 154.696 83.0316 154.204C82.7083 153.712 82.2856 152.982 81.7386 152.098C81.465 151.656 81.1667 151.169 80.8484 150.658C80.5251 150.141 80.1869 149.595 79.8637 149.003C79.1873 147.821 78.4563 146.545 77.7004 145.228C76.9892 143.887 76.2482 142.497 75.4973 141.136C74.7762 139.765 74.0998 138.399 73.4136 137.137C72.7074 135.88 72.1504 134.693 71.5636 133.695C70.9916 132.696 70.4546 131.872 69.9821 131.311C69.082 130.178 68.0028 128.872 66.8888 127.511L66.0484 126.487C65.7798 126.14 65.5113 125.797 65.2477 125.454C64.7156 124.764 64.1984 124.088 63.706 123.448C62.7164 122.156 61.8312 120.994 61.2493 120.144C60.6476 119.29 60.2845 118.773 60.2845 118.773C60.2845 118.773 60.2298 119.588 60.1304 120.964C60.0657 122.34 60.0607 124.282 60.0806 126.542C60.0806 127.675 60.19 128.872 60.2696 130.123C60.3193 130.749 60.3691 131.385 60.4188 132.026C60.4685 132.672 60.5332 133.322 60.6326 133.968C60.8117 135.264 61.0156 136.576 61.2493 137.862C61.309 138.185 61.3687 138.503 61.4234 138.821C61.498 139.134 61.5726 139.452 61.6422 139.76C61.7914 140.381 61.9505 140.991 62.1097 141.592C62.4429 142.785 62.8556 143.907 63.4325 144.92C64.0044 145.934 64.6559 146.858 65.3521 147.692C66.7148 149.371 68.3957 150.633 69.9025 151.591C70.6634 152.068 71.3895 152.466 72.0609 152.788C72.7322 153.111 73.3688 153.355 73.886 153.548C74.9353 153.926 75.5918 154.08 75.5918 154.08C76.8003 154.259 77.9988 154.418 79.1923 154.557C78.2474 153.737 77.3075 152.868 76.3974 151.974C75.4824 151.08 74.6767 150.121 73.8562 149.182C72.2001 147.305 70.8574 145.363 69.6787 143.644C69.077 142.79 68.5896 141.965 68.157 141.23C67.7193 140.495 67.3464 139.839 67.038 139.293C66.7347 138.741 66.496 138.309 66.3318 138.011C66.1727 137.718 66.0981 137.554 66.0981 137.554Z" fill="#002E47"/>
<path d="M88.5417 106.326C86.1646 111.81 83.5338 116.697 81.3357 120.358C80.2863 122.176 79.3365 123.671 78.6452 124.709C77.9888 125.742 77.5859 126.309 77.5859 126.309C77.5859 126.309 77.6009 125.976 77.6307 125.385C77.6456 124.799 77.76 123.939 77.8595 122.911C77.9788 121.878 78.0783 120.676 78.2822 119.365C78.496 118.053 78.7397 116.643 79.0033 115.212C79.3116 113.781 79.6747 112.326 80.0377 110.925C80.2068 110.225 80.4306 109.54 80.6494 108.874C80.8682 108.208 81.087 107.563 81.3058 106.952C81.5296 106.336 81.7335 105.755 81.9673 105.208C82.2109 104.662 82.4496 104.16 82.6884 103.698C83.1608 102.774 83.6084 102.034 84.0212 101.537C84.424 101.036 84.9064 100.514 85.4186 99.9827C85.9259 99.4513 86.458 98.9148 87 98.3883C87.5371 97.8618 88.0842 97.3402 88.6213 96.8485C89.1832 96.3567 89.7353 95.8898 90.2574 95.4626C91.3018 94.5983 92.2218 93.8781 92.8783 93.3715C93.2015 93.1181 93.4949 92.9244 93.6789 92.7903C93.8679 92.6562 93.9724 92.5817 93.9724 92.5817C93.9724 92.5817 93.9624 92.7307 93.9475 92.9989C93.9226 93.2672 93.9177 93.6645 93.9077 94.1612C93.8928 95.1547 93.8132 96.5405 93.7386 98.135C93.7237 98.9347 93.6988 99.784 93.6591 100.663C93.6342 101.1 93.6093 101.547 93.5845 101.999C93.5745 102.451 93.5596 102.908 93.5496 103.365C93.5198 104.284 93.4651 105.203 93.3855 106.112C93.3358 107.021 93.291 107.92 93.1965 108.785C92.9728 110.508 92.3959 112.103 91.4808 113.588C91.257 113.96 91.0134 114.323 90.7597 114.676C90.526 115.028 90.2773 115.376 90.0187 115.714C89.5065 116.389 88.9595 117.03 88.4124 117.626C87.8654 118.222 87.3183 118.768 86.8111 119.26C86.3237 119.747 85.8662 120.174 85.4733 120.532C84.6875 121.242 84.1654 121.649 84.1654 121.649C83.1608 122.31 82.1562 122.991 81.1517 123.691C81.6539 122.573 82.1264 121.461 82.569 120.378L82.8972 119.568C83.0166 119.3 83.131 119.032 83.2503 118.764C83.4741 118.237 83.7029 117.71 83.9217 117.194C84.3643 116.166 84.7273 115.182 85.1451 114.253C85.5578 113.324 85.9308 112.45 86.269 111.646C86.9105 110.036 87.562 108.715 87.94 107.786C88.3328 106.857 88.5417 106.326 88.5417 106.326Z" fill="#002E47"/>
<path d="M63.8766 104.13C64.2844 106.003 64.7618 107.766 65.284 109.41C65.8459 111.054 66.4875 112.584 67.124 113.985C67.7407 115.391 68.4867 116.662 69.1729 117.815C69.8791 118.967 70.5356 119.995 71.2169 120.899C72.5895 122.702 73.7979 124.024 74.6633 124.898C75.086 125.335 75.4639 125.658 75.7076 125.871C75.9612 126.085 76.0905 126.194 76.0905 126.194C76.0905 126.194 75.9861 125.871 75.8021 125.3C75.638 124.724 75.3993 123.895 75.1059 122.881C74.9567 122.37 74.7975 121.818 74.6235 121.227C74.534 120.929 74.4444 120.626 74.3549 120.308C74.2754 119.99 74.1908 119.668 74.1063 119.335C73.7631 117.994 73.3901 116.543 73.0072 115.048C72.679 113.543 72.3259 111.983 71.9579 110.444C71.6147 108.904 71.3363 107.389 71.0031 105.968C70.6599 104.548 70.4112 103.231 70.1228 102.099C69.8393 100.966 69.541 100.013 69.2376 99.3271C68.6408 97.9412 67.9545 96.3468 67.2583 94.7374C66.9102 93.9179 66.5272 93.0784 66.199 92.2638C65.8708 91.4393 65.5525 90.6346 65.2541 89.8746C64.6524 88.3149 64.1203 86.939 63.7373 85.9555C63.3842 84.9571 63.1704 84.3511 63.1704 84.3511C63.1704 84.3511 63.1008 84.5399 62.9764 84.8926C62.8521 85.2452 62.6631 85.7519 62.4742 86.4075C62.0813 87.7089 61.5342 89.5567 60.9673 91.7273C59.9578 96.0835 58.9383 101.786 59.0029 106.788C59.0029 107.414 59.0328 108.025 59.0974 108.626C59.1571 109.227 59.2565 109.818 59.4057 110.389C59.6892 111.536 60.0721 112.629 60.5247 113.642C61.395 115.674 62.683 117.403 63.8766 118.783C65.0801 120.164 66.2637 121.202 67.1887 121.888C68.0988 122.573 68.6905 122.921 68.6905 122.921C69.8045 123.462 70.9185 123.979 72.0275 124.481C71.3313 123.403 70.6549 122.285 70.0134 121.143C69.3719 120 68.8397 118.838 68.2977 117.681C67.1936 115.371 66.4129 113.091 65.7315 111.079C65.5625 110.578 65.3983 110.091 65.2591 109.624C65.1298 109.157 65.0104 108.71 64.8961 108.293C64.6723 107.453 64.4833 106.708 64.3341 106.087C64.0307 104.856 63.8766 104.13 63.8766 104.13Z" fill="#002E47"/>
<path d="M93.5144 81.0281C89.8393 85.578 85.9801 89.4623 82.9764 92.3184C81.4994 93.744 80.1467 94.8765 79.2614 95.6663C78.3663 96.4561 77.8242 96.8733 77.8242 96.8733C77.8242 96.8733 77.9287 96.5604 78.1127 96.0041C78.2071 95.7259 78.3215 95.3881 78.4508 95.0007C78.595 94.6133 78.7691 94.1811 78.9581 93.6993C79.341 92.7555 79.7936 91.6429 80.2859 90.4259C80.8081 89.2289 81.4347 87.9573 82.0613 86.6609C82.7028 85.3744 83.4488 84.0928 84.15 82.856C84.8761 81.6242 85.6668 80.4718 86.3879 79.4237C87.119 78.3757 87.8948 77.4716 88.5612 76.7216C88.8993 76.3491 89.2226 76.0163 89.526 75.7331C89.8442 75.455 90.1376 75.2315 90.4062 75.0576C91.4953 74.3672 92.7286 73.6072 94.0614 72.9366C95.3942 72.2661 96.7221 71.6303 97.9355 71.1236C99.1688 70.622 100.243 70.2196 101.014 69.9415C101.775 69.6583 102.257 69.5143 102.257 69.5143C102.257 69.5143 102.212 69.6534 102.128 69.9067C102.048 70.165 101.939 70.5375 101.795 71.0094C101.511 71.9482 101.059 73.2396 100.616 74.7596C100.392 75.5196 100.099 76.2994 99.8651 77.1438C99.6164 77.9833 99.3479 78.8426 99.0544 79.6969C98.7809 80.5612 98.5223 81.4454 98.219 82.2947C97.9057 83.1392 97.6321 83.9935 97.3288 84.7982C96.0805 87.9772 93.1663 90.2074 90.441 91.8515C89.7497 92.2539 89.1032 92.6214 88.5065 92.9393C87.9097 93.2572 87.3527 93.5304 86.8852 93.749C85.9453 94.191 85.3286 94.4195 85.3286 94.4195C84.1898 94.7424 83.046 95.0901 81.8972 95.4527C84.9756 91.772 87.7356 88.0914 89.9387 85.4389C90.2023 85.1061 90.4559 84.7833 90.6996 84.4803C90.9483 84.1823 91.187 83.8942 91.4108 83.6259C91.8434 83.0945 92.2264 82.6226 92.5397 82.2401C93.1514 81.4652 93.5144 81.0281 93.5144 81.0281Z" fill="#002E47"/>
<path d="M70.4093 71.4167C70.3298 72.3654 70.3198 73.3092 70.3248 74.2281C70.3298 75.147 70.3546 76.0411 70.3944 76.9104C70.4839 78.6538 70.7276 80.3178 70.9713 81.8576C71.0906 82.6275 71.2448 83.3726 71.4189 84.0928C71.5879 84.8131 71.767 85.4985 71.946 86.1592C72.13 86.8148 72.314 87.4457 72.503 88.0367C72.7019 88.6328 72.9207 89.204 73.1296 89.7405C73.9701 91.8913 74.7608 93.5205 75.3775 94.6232C76.014 95.7309 76.4218 96.307 76.4218 96.307C76.4218 96.307 76.4069 95.9693 76.382 95.3633C76.3422 94.7573 76.3373 93.888 76.3323 92.83C76.3174 91.7621 76.3025 90.5005 76.2826 89.1196C76.3074 87.7288 76.3323 86.2237 76.3572 84.679C76.4168 83.1143 76.4765 81.5099 76.5312 79.9403C76.6207 78.3657 76.7103 76.816 76.76 75.3507C76.939 72.4598 76.9788 69.9216 76.7998 68.4463C76.3472 65.466 75.7703 61.4725 75.4023 58.1345C75.2382 56.4557 75.094 54.9754 74.9896 53.9125C74.9349 53.3711 74.905 52.9439 74.8851 52.6508C74.8652 52.3528 74.8553 52.1938 74.8553 52.1938C74.8553 52.1938 74.3729 52.8247 73.6568 53.9622C72.9406 55.0996 71.8764 56.6742 70.837 58.6263C68.6439 62.4609 66.3214 67.6963 65.0384 72.4846C64.725 73.6817 64.5311 74.8788 64.4963 76.061C64.4714 77.2481 64.5609 78.4104 64.73 79.5181C64.8146 80.0744 64.919 80.6158 65.0433 81.1424C65.1826 81.6738 65.3367 82.1904 65.5009 82.6921C65.8341 83.6905 66.217 84.6194 66.6148 85.4638C67.3906 87.1476 68.3306 88.5186 69.0119 89.4524C69.7031 90.3862 70.1756 90.9028 70.1756 90.9028C71.1006 91.7621 72.0256 92.5966 72.9605 93.4162C71.3741 88.4341 70.5734 82.9057 70.3894 78.6488C70.3099 77.5759 70.3148 76.6024 70.3099 75.7232C70.3049 74.844 70.3148 74.0741 70.3248 73.4334C70.3347 72.7926 70.3496 72.2859 70.3795 71.9482C70.3944 71.6005 70.4093 71.4167 70.4093 71.4167Z" fill="#002E47"/>
<path d="M104.826 58.3134C100.111 61.542 95.4018 64.0703 91.7814 65.8932C90.8812 66.3452 90.0159 66.7327 89.2848 67.0853C88.5488 67.438 87.9023 67.736 87.3603 67.9745C86.2811 68.4513 85.6445 68.6848 85.6445 68.6848C85.6445 68.6848 86.3905 67.6268 87.5542 65.9826C88.1609 65.178 88.9019 64.259 89.6976 63.2606C90.0905 62.759 90.5281 62.2523 90.9807 61.7457C91.4332 61.239 91.9007 60.7224 92.3732 60.1959C92.8357 59.6694 93.3429 59.1628 93.8502 58.666C94.3574 58.1743 94.8647 57.6776 95.367 57.1908C96.3765 56.2272 97.4408 55.3728 98.4055 54.583C99.3803 53.8032 100.36 53.1724 101.195 52.6608C101.618 52.4074 102.006 52.1839 102.379 52.0101C102.752 51.8412 103.095 51.712 103.399 51.6276C105.811 50.9223 109.063 50.3957 111.654 50.1573C112.967 50.048 114.106 49.9835 114.911 49.9487C115.314 49.9288 115.647 49.9288 115.871 49.9288C116.1 49.9288 116.224 49.9288 116.224 49.9288C116.224 49.9288 115.896 50.3957 115.384 51.2203C114.877 52.0498 114.091 53.1376 113.275 54.4738C112.862 55.1344 112.385 55.8099 111.927 56.5351C111.475 57.2653 110.993 58.0104 110.485 58.7455C109.988 59.4856 109.515 60.2605 109.003 60.9807C108.481 61.696 107.999 62.4311 107.496 63.1067C106.467 64.4379 105.164 65.4263 103.657 66.1416C102.175 66.8718 100.589 67.3883 99.057 67.736C97.5651 68.1036 96.1826 68.3321 95.1531 68.4612C94.1287 68.5904 93.4822 68.6252 93.4822 68.6252C92.2936 68.5805 91.1398 68.5805 89.9562 68.5854C93.8203 65.9727 97.4507 63.3103 100.251 61.4476C100.589 61.2092 100.917 60.9807 101.225 60.7622C101.544 60.5536 101.842 60.3499 102.125 60.1611C102.682 59.7836 103.17 59.4508 103.573 59.1777C103.965 58.9045 104.274 58.6859 104.488 58.5369C104.711 58.3928 104.826 58.3134 104.826 58.3134Z" fill="#002E47"/>
<path d="M85.1709 41.9913C84.8476 42.8755 84.594 43.7795 84.3553 44.6587C84.1166 45.5428 83.9077 46.4071 83.7187 47.2515C83.3607 48.9602 83.1468 50.6242 82.9777 52.174C82.7142 55.3231 82.744 58.0849 82.9976 60.4095C83.112 61.5668 83.2562 62.595 83.4054 63.4891C83.5795 64.3981 83.7536 65.168 83.9077 65.7939C84.216 67.0456 84.4498 67.7161 84.4498 67.7161C84.4498 67.7161 84.7631 66.3998 85.2505 64.3435C85.524 63.3153 85.8423 62.1082 86.1954 60.782C86.5484 59.4508 86.996 58.0352 87.4187 56.5401C87.8564 55.0549 88.3636 53.5598 88.8212 52.0448C89.3085 50.5547 89.8058 49.0993 90.2335 47.7135C91.1535 44.9915 91.8597 42.5774 92.0686 41.1072C92.4117 38.112 92.8892 34.0985 93.4014 30.7954C93.6749 29.1314 93.9136 27.6661 94.0877 26.618C94.2866 25.5699 94.406 24.9341 94.406 24.9341C94.406 24.9341 94.2518 25.0534 93.9733 25.2719C93.6898 25.4905 93.287 25.8133 92.7947 26.2504C92.3023 26.6875 91.7105 27.2091 91.0441 27.8002C90.7109 28.1032 90.3628 28.4211 89.9948 28.7539C89.6367 29.0966 89.2687 29.4691 88.8908 29.8466C85.7925 32.8418 82.2169 37.1483 79.7303 41.3456C79.1186 42.4036 78.6163 43.4815 78.2781 44.614C77.94 45.7465 77.7212 46.8839 77.5919 48.0016C77.4526 49.1092 77.4576 50.2318 77.5123 51.2898C77.567 52.3528 77.6913 53.3611 77.8505 54.29C78.1737 56.1576 78.7058 57.757 79.1087 58.8548C79.5214 59.9624 79.8447 60.5982 79.8447 60.5982C80.4962 61.696 81.1874 62.7937 81.8837 63.8716C81.635 58.5965 82.3163 53.0333 83.2562 48.9006C83.4651 47.8476 83.7138 46.9088 83.9425 46.0693C84.1713 45.2299 84.3802 44.4898 84.5542 43.8788C84.7283 43.2679 84.8775 42.7861 84.9919 42.4682C85.1112 42.1652 85.1709 41.9913 85.1709 41.9913Z" fill="#002E47"/>
<path d="M121.616 39.93C116.25 41.6238 111.068 42.6172 107.109 43.253C106.125 43.4119 105.21 43.5361 104.399 43.6354C103.603 43.7497 102.907 43.8391 102.325 43.9037C101.166 44.0328 100.5 44.0626 100.5 44.0626C100.5 44.0626 101.485 43.253 103.031 42.0509C103.827 41.4847 104.767 40.8191 105.791 40.0889C106.826 39.3836 107.985 38.6832 109.153 37.963C110.342 37.2626 111.595 36.6119 112.803 35.9811C114.042 35.39 115.265 34.8585 116.394 34.3966C117.553 33.9744 118.632 33.6316 119.572 33.3882C120.507 33.1399 121.342 33.0604 121.964 33.0703C123.217 33.1051 124.644 33.1995 126.107 33.4131C127.559 33.6118 128.991 33.8353 130.289 34.1333C131.577 34.4164 132.681 34.6797 133.477 34.8982C134.272 35.1317 134.75 35.2757 134.75 35.2757C134.75 35.2757 134.322 35.6433 133.601 36.2592C133.248 36.5722 132.82 36.9497 132.333 37.3768C131.851 37.7991 131.294 38.2411 130.732 38.7676C128.404 40.7495 125.574 43.3672 122.934 45.3541C122.282 45.8607 121.551 46.2184 120.8 46.5065C120.059 46.8045 119.269 47.0032 118.458 47.1224C117.637 47.2366 116.827 47.3062 116.016 47.331C115.206 47.3509 114.4 47.3211 113.624 47.2615C112.072 47.1423 110.705 46.9585 109.685 46.7647C108.671 46.581 108.039 46.4121 108.039 46.4121C106.91 46.0097 105.791 45.6422 104.658 45.2895C109.044 43.9633 113.236 42.5327 116.394 41.5691C119.492 40.5906 121.616 39.93 121.616 39.93Z" fill="#002E47"/>
<path d="M106.918 18.308C102.711 24.4524 100.851 30.7606 100.105 35.3056C99.9207 36.453 99.7914 37.4812 99.7019 38.3902C99.6173 39.2991 99.5974 40.1038 99.5775 40.7495C99.5527 42.046 99.6024 42.7662 99.6024 42.7662C99.6024 42.7662 100.244 41.5989 101.249 39.776C101.776 38.872 102.392 37.804 103.069 36.6417C103.78 35.4844 104.546 34.2327 105.336 32.9462C106.162 31.6646 107.012 30.3484 107.843 29.0619C108.708 27.8002 109.534 26.5237 110.31 25.3315C111.105 24.1692 111.821 23.0616 112.408 22.0632C113 21.0797 113.487 20.2402 113.761 19.5448C114.034 18.8444 114.333 18.0894 114.636 17.3046C114.954 16.5198 115.288 15.7102 115.621 14.8906C115.959 14.0561 116.302 13.2216 116.635 12.4021C116.978 11.5825 117.327 10.8026 117.66 10.0476C118.326 8.55253 118.913 7.17663 119.371 6.24281C119.823 5.29408 120.102 4.7179 120.102 4.7179C120.102 4.7179 119.395 4.99109 118.217 5.4878C117.063 6.03419 115.412 6.77926 113.562 7.77766C109.847 9.74465 105.317 12.7746 101.865 16.038C101.01 16.8626 100.269 17.7715 99.6372 18.7252C99.0305 19.7087 98.5282 20.7369 98.1204 21.7751C97.9165 22.2916 97.7375 22.8132 97.5784 23.3298C97.4242 23.8513 97.2999 24.3828 97.1904 24.8994C96.9716 25.9375 96.8324 26.9409 96.7478 27.8846C96.5638 29.7573 96.6732 31.466 96.7727 32.6432C96.8871 33.8303 97.0263 34.5406 97.0263 34.5406C97.3745 35.7973 97.7325 37.0441 98.1304 38.3008C99.2543 33.1598 101.363 28.0635 103.307 24.3629C104.277 22.5152 105.192 21.0101 105.834 19.9372C106.5 18.8892 106.918 18.308 106.918 18.308Z" fill="#002E47"/>
<path d="M121.139 22.838C105.14 33.577 91.9865 49.6755 84.0991 68.1682C76.1819 86.7701 73.3821 108.074 76.2118 128.156C76.9876 133.645 78.012 138.543 79.3448 143.132C79.4045 143.341 79.4592 143.55 79.5189 143.763C79.6283 144.17 79.7377 144.578 79.867 144.98L80.4439 146.778C80.5682 147.151 80.6826 147.523 80.8019 147.891C81.0655 148.72 81.3341 149.58 81.6623 150.414L82.9603 153.936L84.4273 157.438C86.6304 162.435 88.8882 166.811 91.3449 170.839C93.9956 175.155 96.88 179.253 99.9285 183.028C103.057 186.823 106.448 190.439 110.014 193.782C113.5 196.986 117.325 200.046 121.393 202.887C125.192 205.495 129.26 207.879 133.83 210.174C137.923 212.166 142.255 213.914 147.079 215.509L147.521 213.924C142.757 212.344 138.485 210.626 134.457 208.664C129.951 206.404 125.943 204.054 122.203 201.491C118.195 198.69 114.425 195.67 110.994 192.521C107.483 189.232 104.141 185.666 101.057 181.926C98.0587 178.21 95.214 174.167 92.6031 169.915C90.1862 165.956 87.9583 161.64 85.7949 156.732L84.3478 153.28L83.0548 149.778C82.7415 148.984 82.4829 148.154 82.2292 147.349C82.1099 146.972 81.9905 146.599 81.8662 146.222L81.2943 144.429C81.1749 144.056 81.0705 143.674 80.971 143.296C80.9113 143.078 80.8517 142.854 80.792 142.636C79.4841 138.12 78.4745 133.302 77.7087 127.903C74.9187 108.139 77.6788 87.1675 85.4717 68.8586C93.2347 50.654 106.185 34.8088 121.935 24.2387L121.139 22.838Z" fill="#002E47"/>
<path d="M143.382 11.7116C135.361 14.6422 127.637 18.5663 120.551 23.5831C120.914 22.5797 121.436 21.1293 122.217 19.5945C122.983 18.0447 123.937 16.2814 125.116 14.6571C127.414 11.3192 130.567 8.39854 133.715 7.52929C134.824 7.2561 136.181 6.95807 137.698 6.66501C138.464 6.55076 139.27 6.42658 140.105 6.3024C140.941 6.18319 141.801 6.04908 142.696 5.97954C143.586 5.90007 144.491 5.82059 145.416 5.74112C146.331 5.65668 147.271 5.65171 148.201 5.607C150.056 5.50766 151.931 5.5623 153.707 5.5921C154.592 5.59707 155.472 5.68151 156.312 5.72622C157.158 5.78582 157.964 5.82556 158.739 5.90007C160.291 6.07392 161.678 6.21796 162.847 6.38188C165.165 6.76435 166.622 7.00277 166.622 7.00277C166.622 7.00277 165.194 7.66837 162.952 8.66676C161.848 9.20322 160.535 9.83901 159.078 10.5394C158.366 10.9119 157.62 11.2994 156.845 11.7017C156.462 11.9004 156.069 12.0991 155.676 12.3027C155.283 12.5113 154.885 12.7398 154.487 12.9584C153.692 13.3905 152.876 13.8326 152.055 14.2796C151.245 14.7465 150.429 15.2135 149.609 15.6903C148.788 16.1373 147.982 16.6341 147.177 17.1059C146.376 17.5878 145.571 18.005 144.8 18.4868C144.024 18.9537 143.263 19.3958 142.512 19.8081C141.766 20.2203 141.055 20.6624 140.349 21.03C138.936 21.7602 137.653 22.4506 136.465 22.9026C135.749 23.1659 135.028 23.4192 134.301 23.6328C133.57 23.8464 132.834 24.0103 132.093 24.1444C130.636 24.4573 129.164 24.6262 127.772 24.7255C126.399 24.8547 125.091 24.8795 123.947 24.8398C122.819 24.8298 121.859 24.7603 121.158 24.6361C127.966 19.3263 135.48 15.0396 143.382 11.7116Z" fill="#002E47"/>
</g>
<g opacity="0.1">
<path d="M233.67 192.372C232.561 193.395 231.527 194.522 230.523 195.585C229.513 196.633 228.558 197.711 227.658 198.779C225.828 200.801 224.227 202.887 222.849 204.576C222.168 205.44 221.551 206.255 221.014 206.99C220.472 207.72 220.009 208.346 219.631 208.853C218.875 209.896 218.473 210.526 218.473 210.526C218.473 210.526 218.776 210.402 219.313 210.179C219.85 209.945 220.626 209.657 221.551 209.205C222.466 208.753 223.54 208.217 224.714 207.631C225.878 207.04 227.101 206.28 228.349 205.549C228.658 205.361 228.971 205.177 229.284 204.988L230.204 204.367C230.811 203.945 231.418 203.523 232.019 203.111C233.218 202.301 234.317 201.352 235.327 200.498C235.829 200.066 236.306 199.648 236.744 199.231C237.177 198.794 237.569 198.377 237.927 197.979C238.639 197.18 239.186 196.464 239.524 195.854C240.852 193.35 242.289 189.972 243.219 187.151C243.453 186.456 243.671 185.805 243.865 185.214C244.039 184.608 244.194 184.066 244.323 183.619C244.567 182.72 244.711 182.179 244.711 182.179C244.711 182.179 244.169 182.383 243.279 182.75C242.388 183.128 241.09 183.555 239.658 184.161C236.724 185.244 233.079 186.679 229.961 188.055C229.573 188.239 229.21 188.462 228.857 188.706C228.498 188.929 228.155 189.188 227.827 189.466C227.171 190.027 226.579 190.693 226.027 191.418C224.918 192.824 223.983 194.438 223.217 196.022C222.446 197.582 221.83 199.018 221.417 200.115C220.999 201.203 220.785 201.908 220.785 201.908C220.482 203.22 220.159 204.546 219.81 205.828C223.361 202.291 226.897 199.072 229.438 196.509C230.075 195.878 230.672 195.347 231.184 194.82C231.691 194.309 232.139 193.862 232.507 193.489C233.243 192.769 233.67 192.372 233.67 192.372Z" fill="#002E47"/>
<path d="M242.97 218.767C241.1 218.891 239.329 218.956 237.624 218.841C235.918 218.717 234.307 218.514 232.81 218.25C229.781 217.6 227.22 216.8 225.116 215.831C224.072 215.369 223.152 214.912 222.356 214.49C221.565 214.068 220.889 213.626 220.352 213.278C219.273 212.568 218.711 212.111 218.711 212.111C218.711 212.111 219.039 212.121 219.626 212.141C220.213 212.151 221.063 212.215 222.093 212.21C223.132 212.21 224.355 212.21 225.693 212.21C227.041 212.215 228.488 212.116 230.01 212.086C230.388 212.076 230.771 212.066 231.154 212.056C231.537 212.032 231.92 212.007 232.302 211.977C233.073 211.932 233.849 211.883 234.615 211.838C236.162 211.783 237.654 211.609 239.071 211.53C239.782 211.49 240.468 211.455 241.115 211.421C241.756 211.371 242.373 211.336 242.94 211.316C244.084 211.277 245.059 211.311 245.79 211.435C248.674 211.873 252.588 212.548 255.82 212.886C256.636 212.98 257.407 213.07 258.098 213.154C258.789 213.214 259.411 213.263 259.923 213.308C260.968 213.388 261.599 213.437 261.599 213.437C261.599 213.437 260.977 213.974 259.903 214.848C258.834 215.732 257.248 216.845 255.403 218.146C251.663 220.62 246.65 223.486 241.975 224.941C241.393 225.135 240.816 225.294 240.235 225.408C239.648 225.502 239.066 225.562 238.489 225.587C237.335 225.637 236.206 225.557 235.127 225.383C232.954 224.986 230.965 224.156 229.319 223.277C227.668 222.373 226.33 221.33 225.415 220.56C224.5 219.785 223.997 219.244 223.997 219.244C223.157 218.196 222.341 217.158 221.531 216.06C226.379 217.838 231.785 218.737 235.913 218.866C236.947 218.911 237.917 218.971 238.768 218.951C239.618 218.936 240.369 218.911 240.986 218.881C242.244 218.827 242.97 218.767 242.97 218.767Z" fill="#002E47"/>
<path d="M254.565 180.828C253.794 182.065 253.103 183.341 252.451 184.603C251.775 185.825 251.158 187.052 250.596 188.264C250.025 189.466 249.468 190.588 248.985 191.706C248.498 192.838 248.045 193.887 247.633 194.835C246.807 196.753 246.195 198.446 245.763 199.589C245.33 200.731 245.121 201.407 245.121 201.407C245.121 201.407 245.365 201.213 245.797 200.865C246.011 200.692 246.275 200.478 246.573 200.23C246.867 199.966 247.195 199.668 247.558 199.34C248.279 198.685 249.129 197.915 250.035 197.061C250.92 196.162 251.865 195.183 252.81 194.175C253.754 193.156 254.66 192.029 255.54 190.961C255.759 190.688 255.972 190.419 256.186 190.151C256.39 189.868 256.589 189.59 256.788 189.317C257.181 188.765 257.559 188.224 257.912 187.697C258.265 187.171 258.603 186.669 258.897 186.168C259.185 185.661 259.449 185.174 259.677 184.717C260.14 183.803 260.473 183.009 260.637 182.368C261.264 179.745 261.826 176.318 262.04 173.501C262.159 172.101 262.258 170.909 262.273 170.01C262.293 169.125 262.308 168.594 262.308 168.594C262.308 168.594 261.861 168.927 261.135 169.503C260.384 170.054 259.324 170.824 258.146 171.758C255.709 173.526 252.715 175.831 250.194 177.947C248.98 179.075 248.05 180.45 247.394 182.08C247.071 182.899 246.772 183.704 246.528 184.533C246.285 185.363 246.086 186.202 245.922 187.017C245.603 188.661 245.385 190.121 245.27 191.214C245.151 192.302 245.121 192.997 245.121 192.997C245.156 194.259 245.181 195.531 245.186 196.807C246.339 194.681 247.578 192.744 248.662 190.817C249.214 189.893 249.751 188.994 250.263 188.14C250.756 187.27 251.228 186.461 251.666 185.726C252.556 184.28 253.242 183.004 253.749 182.154C254.267 181.305 254.565 180.828 254.565 180.828Z" fill="#002E47"/>
<path d="M271.957 162.271C270.381 168.008 269.461 173.566 268.904 177.828C268.61 179.934 268.406 181.692 268.307 182.944C268.262 183.575 268.227 184.067 268.203 184.399C268.183 184.732 268.168 184.906 268.168 184.906C268.168 184.906 268.362 184.658 268.675 184.176C268.983 183.699 269.431 183.009 269.978 182.174C270.246 181.757 270.535 181.3 270.843 180.813C271.147 180.326 271.445 179.78 271.763 179.224C272.077 178.667 272.4 178.086 272.733 177.485C272.897 177.187 273.061 176.884 273.23 176.581C273.384 176.268 273.544 175.945 273.703 175.627C274.319 174.336 274.971 173.044 275.513 171.723C276.05 170.392 276.547 169.096 276.975 167.884C277.731 165.385 278.268 163.294 278.203 161.923C278.164 160.572 278.084 159.042 277.92 157.492C277.736 155.928 277.507 154.373 277.278 153.012C277.05 151.646 276.761 150.429 276.572 149.585C276.373 148.74 276.254 148.229 276.254 148.229C276.254 148.229 275.906 148.676 275.344 149.441C275.065 149.823 274.732 150.285 274.354 150.807C273.956 151.313 273.524 151.884 273.066 152.5C272.186 153.757 271.082 155.093 270.072 156.544C269.56 157.264 269.003 157.959 268.506 158.689C268.014 159.42 267.521 160.145 267.054 160.84C266.591 161.541 266.243 162.31 265.994 163.13C265.741 163.95 265.532 164.769 265.418 165.638C265.298 166.503 265.244 167.392 265.239 168.276C265.214 169.14 265.229 170 265.273 170.824C265.363 172.468 265.572 173.988 265.736 175.071C265.895 176.149 266.039 176.819 266.039 176.819C266.392 178.017 266.73 179.224 267.059 180.441C268.317 175.791 269.535 171.192 270.485 167.869C270.913 166.16 271.291 164.769 271.564 163.811C271.709 163.334 271.793 162.936 271.863 162.678C271.917 162.41 271.957 162.271 271.957 162.271Z" fill="#002E47"/>
<path d="M268.512 202.564C267.692 202.872 266.886 203.15 266.09 203.399C265.299 203.652 264.524 203.88 263.738 204.039C262.181 204.382 260.694 204.63 259.287 204.789C256.422 205.013 253.941 204.993 251.827 204.69C249.734 204.422 248.102 204.069 246.954 203.702C245.815 203.359 245.203 203.106 245.203 203.106C245.203 203.106 245.502 203.026 246.034 202.882C246.561 202.728 247.347 202.564 248.267 202.261C249.202 201.978 250.301 201.645 251.504 201.278C252.713 200.91 253.996 200.433 255.353 199.991C256.721 199.569 258.064 199.003 259.436 198.531C260.814 198.064 262.127 197.527 263.375 197.07C265.901 196.191 268.02 195.362 269.397 195.223C270.78 195.084 272.327 194.855 273.963 194.656C274.783 194.552 275.609 194.448 276.419 194.344C277.225 194.214 278.006 194.09 278.747 193.971C280.239 193.728 281.586 193.504 282.546 193.33C283.496 193.136 284.073 193.017 284.073 193.017C284.073 193.017 283.964 193.176 283.76 193.474C283.551 193.767 283.262 194.204 282.86 194.716C282.059 195.744 280.935 197.205 279.547 198.819C278.841 199.609 278.07 200.443 277.265 201.302C276.857 201.725 276.454 202.172 276.017 202.589C275.574 203.001 275.131 203.418 274.684 203.841C273.779 204.665 272.864 205.51 271.914 206.27C270.954 207.02 269.994 207.735 269.049 208.396C268.114 209.066 267.1 209.533 266.08 209.886C265.061 210.238 264.036 210.467 263.032 210.596C260.993 210.81 259.023 210.601 257.347 210.253C255.662 209.891 254.214 209.31 253.22 208.867C252.22 208.415 251.643 208.068 251.643 208.068C250.644 207.347 249.674 206.647 248.689 205.887C253.454 206.145 258.501 205.5 262.236 204.521C263.176 204.293 264.051 204.069 264.817 203.846C265.573 203.607 266.239 203.384 266.786 203.195C267.876 202.808 268.512 202.564 268.512 202.564Z" fill="#002E47"/>
<path d="M291.525 178.081C290.162 179.219 288.71 180.142 287.333 180.982C286.636 181.394 285.97 181.797 285.279 182.134C284.587 182.472 283.911 182.785 283.25 183.073C280.634 184.255 278.142 184.891 276.098 185.323C274.034 185.73 272.314 185.83 271.155 185.879C270.573 185.899 270.121 185.894 269.812 185.889C269.504 185.884 269.34 185.87 269.34 185.87C269.34 185.87 269.603 185.701 270.066 185.388C270.533 185.075 271.21 184.628 272.03 184.086C272.443 183.813 272.896 183.515 273.378 183.197C273.85 182.864 274.348 182.507 274.87 182.134C275.909 181.384 277.093 180.609 278.227 179.715C278.809 179.278 279.4 178.836 279.992 178.394C280.594 177.957 281.191 177.515 281.763 177.048C282.911 176.129 284.085 175.255 285.159 174.425C287.273 172.731 289.202 171.375 290.421 170.76C291.659 170.158 293.171 169.518 294.658 168.798C296.17 168.057 297.702 167.307 299.069 166.642C300.432 165.936 301.63 165.276 302.506 164.804C303.381 164.327 303.908 164.039 303.908 164.039C303.908 164.039 303.634 164.784 303.177 166.041C302.933 166.667 302.645 167.422 302.317 168.271C301.959 169.105 301.541 170.029 301.088 171.023C300.859 171.515 300.621 172.026 300.372 172.553C300.128 173.079 299.865 173.611 299.576 174.137C299.009 175.2 298.403 176.288 297.771 177.386C297.463 177.937 297.13 178.473 296.781 179C296.438 179.527 296.09 180.053 295.737 180.57C295.026 181.598 294.335 182.621 293.564 183.515C292.057 185.333 290.267 186.664 288.352 187.484C287.407 187.906 286.457 188.234 285.532 188.472C284.607 188.716 283.672 188.835 282.817 188.924C281.091 189.088 279.589 189.019 278.52 188.904C277.436 188.775 276.785 188.611 276.785 188.611C275.631 188.229 274.492 187.832 273.368 187.419C278.073 186.262 282.623 183.952 286.02 181.926C287.676 180.878 289.068 179.924 290.038 179.238C290.993 178.523 291.525 178.081 291.525 178.081Z" fill="#002E47"/>
<path d="M283.54 140.008C283.53 140.753 283.565 141.508 283.56 142.238C283.56 142.963 283.57 143.689 283.6 144.404C283.63 145.119 283.664 145.829 283.714 146.53C283.744 147.22 283.774 147.896 283.818 148.566C283.898 149.898 284.057 151.214 284.152 152.421C284.256 153.633 284.385 154.78 284.52 155.843C284.659 156.916 284.783 157.88 284.898 158.729C285.012 159.583 285.131 160.329 285.231 160.944C285.435 162.176 285.594 162.877 285.594 162.877C285.594 162.877 286.007 161.64 286.653 159.718C286.986 158.769 287.29 157.602 287.628 156.345C287.792 155.719 287.961 155.063 288.14 154.393C288.314 153.722 288.438 153.012 288.588 152.307C289.199 149.495 289.597 146.485 289.771 143.897C289.831 142.591 289.851 141.389 289.811 140.361C289.776 139.332 289.617 138.448 289.443 137.812C289.259 137.172 289.045 136.491 288.816 135.791C288.697 135.443 288.578 135.09 288.458 134.728C288.329 134.37 288.185 134.008 288.041 133.645C287.469 132.2 286.857 130.784 286.3 129.547C285.082 127.044 284.087 125.27 284.087 125.27C284.087 125.27 283.863 125.802 283.515 126.701C283.346 127.153 283.142 127.694 282.913 128.305C282.685 128.916 282.391 129.587 282.113 130.312C281.034 133.238 279.477 136.824 278.477 140.082C278.204 140.887 278.06 141.727 278.02 142.581C277.995 143.008 278.015 143.445 278.025 143.872C278.035 144.3 278.065 144.732 278.114 145.159C278.303 146.878 278.816 148.641 279.283 150.181C279.775 151.73 280.342 153.121 280.785 154.12C281.014 154.621 281.198 155.019 281.322 155.297C281.456 155.57 281.526 155.719 281.526 155.719C282.162 156.762 282.784 157.82 283.401 158.898C283.445 154.274 283.49 149.47 283.525 145.805C283.505 144.036 283.54 142.606 283.55 141.597C283.53 140.584 283.54 140.008 283.54 140.008Z" fill="#002E47"/>
<path d="M306.363 149.366C305.831 150.111 305.304 150.826 304.762 151.507C304.195 152.177 303.628 152.813 303.066 153.419C302.499 154.025 301.937 154.601 301.38 155.143C300.828 155.689 300.231 156.176 299.669 156.653C298.53 157.592 297.446 158.431 296.382 159.136C295.303 159.837 294.278 160.428 293.343 160.935C292.408 161.441 291.548 161.853 290.752 162.171C289.966 162.494 289.285 162.743 288.728 162.931C287.609 163.309 286.973 163.453 286.973 163.453C286.973 163.453 287.818 162.474 289.131 160.949C289.3 160.761 289.474 160.557 289.653 160.353C289.827 160.14 290.006 159.916 290.19 159.688C290.563 159.226 290.956 158.739 291.369 158.232C291.787 157.721 292.224 157.189 292.672 156.638C293.1 156.072 293.542 155.495 293.99 154.904C297.625 150.23 301.41 144.578 303.459 142.645C305.612 140.783 308.407 138.25 310.724 136.069C312.957 133.878 314.718 132.1 314.718 132.1C314.718 132.1 314.643 132.9 314.519 134.246C314.38 135.592 314.191 137.505 313.783 139.675C313.106 144.061 311.605 149.525 309.715 153.981C309.212 155.078 308.606 156.082 307.934 156.981C307.596 157.433 307.243 157.855 306.875 158.257C306.497 158.655 306.094 159.017 305.696 159.365C304.886 160.055 304.05 160.646 303.215 161.153C302.797 161.406 302.384 161.64 301.972 161.848C301.549 162.052 301.131 162.236 300.723 162.405C299.092 163.07 297.625 163.443 296.566 163.652C296.034 163.756 295.606 163.815 295.313 163.855C295.014 163.89 294.845 163.9 294.845 163.9C293.637 163.87 292.438 163.82 291.245 163.756C293.383 162.514 295.332 160.959 297.217 159.415C298.127 158.625 298.978 157.81 299.793 157.02C300.609 156.231 301.385 155.461 302.041 154.706C303.374 153.201 304.513 151.889 305.234 150.916C305.955 149.947 306.363 149.366 306.363 149.366Z" fill="#002E47"/>
<path d="M288.964 115.187C289.148 115.907 289.367 116.623 289.561 117.323C289.745 118.023 289.944 118.709 290.148 119.389C290.356 120.07 290.575 120.735 290.804 121.396C291.023 122.057 291.232 122.697 291.436 123.318C291.858 124.575 292.321 125.782 292.753 126.915C293.161 128.042 293.574 129.105 293.972 130.084C294.797 132.051 295.444 133.645 295.961 134.768C296.468 135.885 296.797 136.511 296.797 136.511C296.797 136.511 296.886 135.2 297.02 133.158C297.09 132.145 297.07 130.928 297.085 129.627C297.085 128.976 297.085 128.295 297.085 127.6C297.05 126.905 297.01 126.184 296.976 125.459C296.896 124.014 296.807 122.548 296.598 121.113C296.508 120.398 296.409 119.692 296.309 119.012C296.254 118.669 296.205 118.336 296.155 118.003C296.095 117.671 296.021 117.348 295.956 117.03C295.678 115.758 295.389 114.601 295.086 113.622C294.792 112.644 294.409 111.844 294.076 111.288C293.733 110.732 293.355 110.136 292.952 109.535C292.55 108.933 292.137 108.318 291.664 107.712C290.739 106.495 289.789 105.312 288.929 104.289C288.059 103.266 287.223 102.402 286.651 101.796C286.07 101.195 285.716 100.832 285.716 100.832C285.716 100.832 285.637 101.413 285.537 102.387C285.493 102.874 285.433 103.455 285.368 104.115C285.279 104.776 285.189 105.506 285.105 106.296C284.816 109.445 284.249 113.364 284.125 116.796C284.065 117.651 284.145 118.495 284.324 119.33C284.413 119.747 284.528 120.159 284.667 120.572C284.791 120.979 284.926 121.381 285.085 121.779C285.398 122.573 285.781 123.353 286.199 124.103C286.622 124.853 287.074 125.573 287.497 126.239C289.232 128.911 291.077 130.878 291.077 130.878C291.953 131.688 292.818 132.517 293.683 133.362C293.539 132.786 293.39 132.205 293.241 131.623C293.087 131.047 292.932 130.471 292.778 129.895C292.475 128.752 292.201 127.64 291.948 126.572C291.659 125.494 291.381 124.461 291.137 123.487C290.888 122.514 290.685 121.605 290.436 120.755C289.964 119.066 289.645 117.681 289.377 116.707C289.103 115.743 288.964 115.187 288.964 115.187Z" fill="#002E47"/>
<path d="M313.286 117.253C312.967 118.128 312.639 118.977 312.301 119.797C311.933 120.611 311.545 121.396 311.162 122.146C310.381 123.651 309.61 125.042 308.735 126.284C307.885 127.535 307.034 128.663 306.219 129.671C305.358 130.67 304.523 131.549 303.747 132.319C302.961 133.084 302.265 133.749 301.584 134.291C300.907 134.837 300.316 135.279 299.823 135.627C298.839 136.327 298.262 136.655 298.262 136.655C298.262 136.655 298.829 135.463 299.714 133.605C300.147 132.667 300.614 131.544 301.161 130.312C301.425 129.696 301.733 129.055 301.997 128.385C302.265 127.714 302.544 127.024 302.822 126.323C305.11 120.735 307.298 114.154 308.765 111.68C309.158 111.064 309.586 110.404 310.028 109.713C310.252 109.366 310.486 109.013 310.719 108.655C310.943 108.293 311.167 107.93 311.391 107.563C312.311 106.062 313.236 104.543 314.066 103.182C315.663 100.41 316.886 98.1796 316.886 98.1796C316.886 98.1796 317.02 98.9644 317.244 100.296C317.349 100.966 317.468 101.771 317.607 102.68C317.722 103.594 317.816 104.617 317.915 105.72C318.388 110.121 318.353 115.823 317.692 120.671C317.493 121.878 317.165 123.025 316.747 124.098C316.324 125.171 315.832 126.169 315.215 127.074C314.002 128.887 312.619 130.372 311.227 131.504C308.427 133.769 305.95 134.718 305.95 134.718C304.801 135.061 303.618 135.369 302.459 135.667C302.882 135.205 303.314 134.733 303.722 134.246C304.115 133.759 304.508 133.258 304.886 132.756C305.647 131.748 306.398 130.719 307.084 129.686C307.74 128.648 308.367 127.61 308.949 126.607C309.237 126.1 309.516 125.603 309.789 125.121C310.043 124.635 310.277 124.158 310.506 123.696C310.958 122.772 311.366 121.908 311.724 121.128C312.082 120.353 312.385 119.663 312.599 119.086C313.042 117.934 313.286 117.253 313.286 117.253Z" fill="#002E47"/>
<path d="M287.84 89.6659C288.541 90.9425 289.337 92.1644 290.048 93.3516C290.774 94.5337 291.58 95.6613 292.286 96.7441C293.007 97.827 293.758 98.8502 294.459 99.8088C295.141 100.772 295.812 101.672 296.444 102.491C297.09 103.316 297.667 104.061 298.179 104.711C298.696 105.367 299.159 105.933 299.547 106.39C300.323 107.314 300.8 107.816 300.8 107.816C300.8 107.816 300.546 106.529 300.149 104.528C299.965 103.534 299.646 102.372 299.318 101.115C299.149 100.489 298.975 99.8386 298.796 99.1681C298.587 98.5075 298.368 97.8319 298.149 97.1465C297.926 96.4709 297.697 95.7805 297.468 95.095C297.214 94.4145 296.946 93.744 296.682 93.0784C296.419 92.4177 296.15 91.767 295.882 91.1412C295.598 90.5153 295.3 89.9193 295.011 89.3431C293.897 87.0433 292.674 85.2601 291.764 84.3859C289.884 82.6424 287.243 80.6406 285.01 79.23C284.458 78.8723 283.946 78.5445 283.474 78.2564C282.991 77.9782 282.559 77.7349 282.201 77.5262C281.485 77.1289 281.047 76.8904 281.047 76.8904C281.047 76.8904 281.4 79.1604 281.882 82.2897C282.325 85.4091 282.892 89.3133 283.588 92.6611C283.787 93.4956 284.041 94.2903 284.429 95.0354C284.802 95.7855 285.304 96.4858 285.786 97.1614C286.289 97.8369 286.85 98.4677 287.447 99.0638C288.044 99.6598 288.661 100.216 289.238 100.733C290.416 101.761 291.575 102.605 292.44 103.196C293.311 103.788 293.853 104.12 293.853 104.12C294.902 104.637 295.946 105.168 296.996 105.72C294.763 101.786 292.435 97.6928 290.665 94.5735C290.247 93.8334 289.859 93.1529 289.516 92.5469C289.188 91.9459 288.855 91.4293 288.611 91.0021C288.109 90.1577 287.84 89.6659 287.84 89.6659Z" fill="#002E47"/>
<path d="M311.74 84.3561C311.407 88.1112 310.621 91.4939 309.651 94.3996C309.149 95.855 308.617 97.1912 308.085 98.4081C307.513 99.6251 306.941 100.718 306.389 101.691C305.32 103.634 304.211 105.084 303.46 106.053C302.699 107.021 302.227 107.513 302.227 107.513C302.227 107.513 302.46 106.197 302.828 104.145C303.037 103.112 303.171 101.895 303.39 100.549C303.485 99.8784 303.614 99.1731 303.699 98.4479C303.788 97.7227 303.878 96.9726 303.972 96.2176C304.062 95.4576 304.176 94.6828 304.261 93.9079C304.34 93.1281 304.42 92.3482 304.499 91.5783C304.584 90.7985 304.668 90.0286 304.753 89.2785C304.823 88.5235 304.892 87.7884 304.957 87.0781C305.031 86.3628 305.111 85.6773 305.191 85.0217C305.27 84.366 305.325 83.7551 305.404 83.1789C305.559 82.0315 305.743 81.0629 305.966 80.3575C306.404 78.927 306.906 77.2779 307.418 75.6089C307.687 74.7596 307.936 73.9002 308.164 73.0608C308.403 72.2114 308.632 71.3769 308.851 70.5921C309.303 69.0026 309.637 67.592 309.885 66.5687C310.134 65.5405 310.283 64.9196 310.283 64.9196C310.283 64.9196 310.621 65.6349 311.188 66.8419C311.77 68.0489 312.446 69.8073 313.237 71.8587C314.729 75.9815 316.305 81.4404 316.808 86.3231C316.972 87.535 316.912 88.7421 316.783 89.8944C316.639 91.0518 316.42 92.1595 316.072 93.2075C315.361 95.3136 314.406 97.1564 313.356 98.6565C312.302 100.162 311.243 101.329 310.447 102.119C309.651 102.908 309.114 103.326 309.114 103.326C308.075 104.001 307.036 104.652 305.996 105.288C306.285 104.716 306.568 104.135 306.847 103.544C307.12 102.953 307.349 102.362 307.593 101.761C308.065 100.564 308.523 99.3519 308.915 98.1548C309.646 95.7656 310.298 93.4211 310.676 91.3746C310.885 90.3514 311.059 89.3977 311.208 88.5434C311.342 87.694 311.432 86.944 311.506 86.3231C311.675 85.0813 311.74 84.3561 311.74 84.3561Z" fill="#002E47"/>
<path d="M280.233 65.5306C284.316 69.5341 288.518 72.8273 291.805 75.2265C293.402 76.4335 294.794 77.3872 295.789 78.0329C296.763 78.6886 297.33 79.0313 297.33 79.0313C297.33 79.0313 297.196 78.7382 296.957 78.2167C296.724 77.6951 296.326 76.965 295.868 76.0709C295.401 75.1818 294.874 74.1337 294.202 73.0409C293.536 71.9432 292.874 70.7461 292.064 69.5838C291.268 68.4165 290.487 67.2194 289.607 66.1267C288.742 65.024 287.921 63.956 287.046 63.047C286.186 62.1331 285.405 61.2986 284.639 60.6678C283.878 60.032 283.202 59.5502 282.645 59.272C281.551 58.7008 280.183 58.1643 278.835 57.6527C277.498 57.1312 276.085 56.704 274.837 56.3513C274.215 56.1824 273.633 56.0235 273.111 55.8745C272.579 55.7404 272.097 55.641 271.699 55.5516C270.908 55.3877 270.426 55.2884 270.426 55.2884C270.426 55.2884 271.351 57.3696 272.624 60.2406C273.862 63.1116 275.379 66.7128 276.941 69.703C277.667 71.223 278.9 72.3704 280.193 73.3638C280.854 73.8555 281.566 74.2877 282.292 74.6801C283.008 75.0725 283.714 75.4301 284.42 75.743C285.818 76.3689 287.18 76.816 288.13 77.1339C289.09 77.4468 289.712 77.5958 289.712 77.5958C290.855 77.7696 292.009 77.9634 293.163 78.177C290.005 75.0775 286.728 71.8538 284.226 69.4C281.859 67.1002 280.233 65.5306 280.233 65.5306Z" fill="#002E47"/>
<path d="M301.82 53.1873C301.98 54.1161 302.109 55.0251 302.218 55.9142C302.333 56.8033 302.372 57.6974 302.422 58.5567C302.462 59.4161 302.487 60.2555 302.492 61.0701C302.497 61.8847 302.442 62.6944 302.397 63.4643C302.233 66.5489 301.696 69.2609 301.159 71.4514C300.582 73.6568 299.936 75.3705 299.468 76.5279C299.239 77.104 299.02 77.5511 298.876 77.8491C298.722 78.1471 298.643 78.3061 298.643 78.3061C298.643 78.3061 298.623 77.9733 298.583 77.3772C298.528 76.7862 298.449 75.9318 298.349 74.8937C298.304 74.3672 298.25 73.7959 298.2 73.1899C298.145 72.579 298.051 71.9432 297.976 71.2677C297.812 69.9216 297.663 68.4314 297.429 66.9313C297.215 65.4164 297.011 63.8418 296.743 62.3169C296.623 61.542 296.504 60.782 296.39 60.0369C296.285 59.2819 296.136 58.5667 296.027 57.8564C295.594 55.0152 295.196 52.5962 295.266 51.1011C295.375 48.1406 295.549 44.1471 295.544 40.8588C295.549 40.0343 295.559 39.2445 295.554 38.5441C295.539 37.8388 295.529 37.2129 295.514 36.6914C295.49 35.6334 295.475 34.9926 295.475 34.9926C295.475 34.9926 295.982 35.5787 296.832 36.5622C297.041 36.8106 297.275 37.0887 297.524 37.3868C297.762 37.6947 298.021 38.0275 298.294 38.3802C298.836 39.0905 299.438 39.8852 300.075 40.7545C302.566 44.2563 305.441 49.0248 307.211 53.5449C308.962 58.0948 308.305 62.9427 307.052 66.4545C306.435 68.2178 305.734 69.6533 305.162 70.6567C304.58 71.665 304.168 72.2263 304.168 72.2263C303.352 73.185 302.527 74.1238 301.696 75.0476C302.785 69.9414 302.86 64.4627 302.621 60.2605C302.477 58.1743 302.323 56.3811 302.119 55.1542C301.945 53.9025 301.82 53.1873 301.82 53.1873Z" fill="#002E47"/>
<path d="M266.726 44.5693C271.674 47.2168 276.558 49.1291 280.327 50.4504C282.172 51.1309 283.759 51.6226 284.878 51.9455C285.972 52.2882 286.608 52.4422 286.608 52.4422C286.608 52.4422 286.404 52.1988 286.036 51.7716C285.683 51.3345 285.116 50.7534 284.445 50.0381C283.117 48.5976 281.222 46.7399 279.134 44.9468C277.04 43.1536 274.742 41.43 272.644 40.1584C271.584 39.5326 270.625 38.9663 269.724 38.5839C268.829 38.1964 268.058 37.9332 267.452 37.8289C266.253 37.6053 264.801 37.4911 263.374 37.3917C261.956 37.2825 260.484 37.2924 259.196 37.3123C258.555 37.3321 257.953 37.347 257.411 37.3619C256.864 37.3917 256.377 37.4315 255.969 37.4663C255.163 37.5408 254.676 37.5855 254.676 37.5855C254.676 37.5855 256.093 39.324 258.043 41.7181C259.962 44.1222 262.344 47.1472 264.607 49.5712C265.701 50.8179 267.178 51.563 268.675 52.1342C269.436 52.4074 270.232 52.616 271.032 52.775C271.818 52.9439 272.594 53.073 273.35 53.1624C274.857 53.3412 276.279 53.371 277.269 53.3909C278.273 53.4009 278.91 53.3561 278.91 53.3561C280.059 53.1773 281.212 53.0184 282.381 52.8694C278.353 50.7583 274.424 48.6572 271.54 47.1075C268.69 45.6024 266.726 44.5693 266.726 44.5693Z" fill="#002E47"/>
<path d="M284.368 26.2703C287.481 33.0107 288.312 39.4631 288.356 43.9981C288.351 46.2978 288.182 48.1307 288.028 49.3775C287.854 50.6391 287.685 51.3395 287.685 51.3395C287.685 51.3395 287.581 51.0266 287.387 50.4653C287.198 49.904 286.889 49.1192 286.531 48.1456C286.173 47.1721 285.76 46.0097 285.243 44.7729C284.736 43.5311 284.224 42.1453 283.612 40.7694C283.015 39.3836 282.423 37.9282 281.782 36.5424C281.16 35.1416 280.559 33.7409 279.967 32.4693C278.838 29.8715 277.848 27.6611 277.54 26.2057C276.903 23.3298 276.073 19.4405 275.252 16.2764C275.053 15.4867 274.869 14.7217 274.685 14.0512C274.496 13.3806 274.327 12.7796 274.188 12.2779C273.9 11.2646 273.73 10.6536 273.73 10.6536C273.73 10.6536 274.362 11.0659 275.426 11.7613C275.69 11.9401 275.983 12.1338 276.297 12.3474C276.605 12.5709 276.933 12.8143 277.281 13.0726C277.978 13.5942 278.758 14.1803 279.584 14.826C282.851 17.4487 286.805 21.1691 289.635 24.9739C290.341 25.9226 290.898 26.9608 291.355 28.0039C291.584 28.5304 291.783 29.0619 291.957 29.5933C292.121 30.1348 292.255 30.6811 292.365 31.2275C292.589 32.3153 292.723 33.3882 292.787 34.4214C292.852 35.4496 292.807 36.4728 292.743 37.4067C292.598 39.2892 292.3 40.8688 291.997 42.0112C291.698 43.1487 291.445 43.8192 291.445 43.8192C290.903 44.9865 290.356 46.1339 289.794 47.2714C289.535 42.041 288.207 36.7659 286.924 32.8021C286.258 30.8451 285.656 29.1662 285.159 28.0535C284.671 26.921 284.368 26.2703 284.368 26.2703Z" fill="#002E47"/>
<path d="M216.845 212.464L216.621 210.849C221.176 210.099 225.697 209.046 230.053 207.725C234.445 206.314 238.786 204.596 242.944 202.619C246.972 200.657 251.05 198.302 255.058 195.62L257.953 193.593C258.549 193.151 259.156 192.685 259.763 192.213C260.091 191.954 260.424 191.701 260.758 191.448C261.508 190.891 262.235 190.275 262.936 189.679L263.96 188.815C264.691 188.199 265.452 187.558 266.148 186.888C269.49 183.903 272.718 180.52 276.045 176.531C277.343 175.016 278.566 173.387 279.75 171.813L280.491 170.829L283.062 167.099L284.504 164.799C289.587 156.673 293.605 147.677 296.445 138.056C301.975 119.28 302.338 98.3932 297.464 79.2399C294.978 69.4845 291.278 60.33 286.473 52.025C281.58 43.5311 275.657 35.8718 268.869 29.2556L269.873 28.0436C276.771 34.7592 282.783 42.5377 287.752 51.1607C292.635 59.5949 296.39 68.8983 298.916 78.8078C303.869 98.2591 303.501 119.479 297.882 138.553C294.997 148.323 290.919 157.462 285.752 165.713L284.29 168.042L281.679 171.832L280.923 172.841C279.725 174.44 278.482 176.089 277.159 177.634C273.787 181.672 270.505 185.105 267.128 188.125C266.417 188.81 265.636 189.466 264.885 190.102L263.866 190.966C263.145 191.577 262.399 192.213 261.618 192.789C261.295 193.032 260.966 193.29 260.638 193.544C260.026 194.021 259.41 194.498 258.788 194.955L255.864 197.001C251.786 199.728 247.648 202.117 243.555 204.114C239.333 206.121 234.932 207.869 230.471 209.3C226.04 210.641 221.46 211.704 216.845 212.464Z" fill="#002E47"/>
<path d="M250.036 13.0925C253.696 15.2681 257.242 17.6722 260.639 20.2948C264.031 22.9274 267.253 25.8183 270.317 28.8781C270.222 28.3515 270.113 27.7108 269.944 27.0104C269.774 26.315 269.571 25.5352 269.322 24.7057C269.073 23.8811 268.8 22.9821 268.457 22.088C268.108 21.1989 267.721 20.2849 267.293 19.3709C267.079 18.914 266.855 18.457 266.617 18.005C266.373 17.5679 266.114 17.1308 265.851 16.7036C265.319 15.8492 264.752 15.0247 264.15 14.2598C263.533 13.5196 262.877 12.8491 262.2 12.2679C261.524 11.6868 260.823 11.1851 260.082 10.8573C259.047 10.3903 257.799 9.80919 256.357 9.26778C255.636 9.00948 254.875 8.73629 254.084 8.4482C253.691 8.30912 253.289 8.16507 252.881 8.03096C252.468 7.90678 252.045 7.77763 251.623 7.65345C250.777 7.4051 249.907 7.15177 249.032 6.89348C248.146 6.66499 247.246 6.45637 246.351 6.24279C244.571 5.78581 242.736 5.50268 241.015 5.17485C239.269 4.91159 237.603 4.6831 236.082 4.51919C234.55 4.39004 233.182 4.25593 232.019 4.19632C229.706 4.12181 228.254 4.07214 228.254 4.07214C228.254 4.07214 229.527 4.99603 231.541 6.39677C232.526 7.12694 233.694 7.99619 234.992 8.95981C235.624 9.45653 236.285 9.97311 236.972 10.5145C237.653 11.051 238.359 11.5775 239.06 12.1736C241.905 14.4435 244.834 17.0563 247.579 19.3759C248.922 20.5978 250.27 21.6558 251.488 22.694C252.105 23.1956 252.707 23.6626 253.299 24.0748C253.87 24.5169 254.427 24.9093 254.965 25.2471C257.556 26.8465 260.45 27.9343 263.12 28.6446C264.458 28.9923 265.692 29.3003 266.81 29.4741C267.929 29.648 268.864 29.7622 269.561 29.7821C266.656 26.6031 263.583 23.5781 260.321 20.7915C257.038 18.0199 253.607 15.4469 250.036 13.0925Z" fill="#002E47"/>
</g>
<path d="M254.305 111.437C255.698 104.766 268.782 100.037 264.326 86.6907C262.948 82.563 260.313 79.0164 256.812 76.4435C254.206 74.5261 250.834 73.9052 248.302 71.8936C245.319 69.5292 245.542 65.8684 244.414 62.5106C242.951 58.1594 238.888 56.4855 234.557 56.7885C229.464 57.1461 224.297 58.4972 219.488 60.1959C219.488 60.1959 236.959 38.574 223.248 21.4572C214.107 10.0477 204.808 9.81421 191.301 12.5412C177.794 15.2681 173.238 23.151 173.238 28.0039C173.238 32.8568 176.138 34.5555 176.138 34.5555C176.138 34.5555 181.583 31.6398 188.565 32.2458C195.548 32.8518 204.653 57.2604 204.35 59.5353C204.271 60.1363 204.435 61.0751 204.818 62.153C204.41 62.3864 204.116 62.5305 203.977 62.5603C202.376 62.8981 213.65 85.583 215.321 98.0952C216.992 110.607 215.878 139.526 218.663 141.473C221.448 143.42 232.582 148.979 243.439 144.255C254.295 139.526 255.409 133.133 255.688 127.014C255.976 120.889 252.913 118.108 254.305 111.437Z" fill="#002E47" stroke="#002E47" stroke-miterlimit="10"/>
<path d="M227.986 32.2756C227.986 32.2756 230.334 35.698 229.07 44.3508C227.807 53.0035 219.492 60.191 219.492 60.191" stroke="#002E47" stroke-miterlimit="10"/>
<path d="M238.457 56.9723C238.457 56.9723 244.594 57.1511 245.673 61.1198C246.757 65.0836 244.256 67.3486 248.304 71.8936C250.204 74.0294 253.426 76.2547 256.306 78.0131C261.781 81.356 265.461 87.093 265.844 93.4907C265.978 95.7656 265.69 97.9661 264.621 99.6897C260.831 105.819 253.431 107.98 254.336 113.93C255.236 119.876 261.015 130.873 257.042 136.64C253.073 142.407 245.673 146.013 240.62 143.848" stroke="#002E47" stroke-miterlimit="10"/>
<path d="M211.66 33.5919L217.986 30.3136L219.393 33.125L213.301 36.1649L211.66 33.5919Z" fill="#39B4EF" stroke="#002E47" stroke-miterlimit="10"/>
<path d="M229.862 191.304C229.862 191.304 237.426 207.546 240.071 220.009L241.205 226.809H141.758C141.758 226.809 145.503 206.319 149.322 194.706L229.862 191.304Z" fill="#002E47" stroke="#002E47" stroke-miterlimit="10"/>
<path d="M219.245 77.417L240.664 88.0517C240.664 88.0517 241.494 95.5322 237.959 111.323C234.423 127.113 213.053 156.072 213.053 156.072C213.053 156.072 225.953 175.811 230.529 186.202C235.104 196.594 236.143 198.044 236.143 198.044C236.143 198.044 234.686 201.784 212.844 207.392C191.002 213 174.775 211.753 174.775 211.753L169.364 195.963L161.875 211.133C161.875 211.133 158.339 212.171 151.267 210.512C144.195 208.848 142.738 208.018 142.738 208.018L159.587 143.604C159.587 143.604 155.634 84.3859 157.717 83.1392C159.796 81.8924 180.912 80.6506 180.912 80.6506L219.245 77.417Z" fill="#39B4EF" stroke="#002E47" stroke-miterlimit="10"/>
<path d="M172.303 138.324C172.303 138.324 168.235 145.204 168.548 147.702C168.862 150.201 169.802 168.961 169.802 168.961" stroke="#002E47" stroke-miterlimit="10" stroke-linecap="round" stroke-linejoin="round"/>
<path d="M173.864 147.702C173.864 148.566 173.162 149.267 172.297 149.267C171.432 149.267 170.73 148.566 170.73 147.702C170.73 146.838 171.432 146.137 172.297 146.137C173.167 146.137 173.864 146.838 173.864 147.702Z" stroke="#002E47" stroke-miterlimit="10" stroke-linecap="round" stroke-linejoin="round"/>
<path d="M174.805 162.708C174.805 163.572 174.104 164.272 173.238 164.272C172.373 164.272 171.672 163.572 171.672 162.708C171.672 161.844 172.373 161.143 173.238 161.143C174.104 161.143 174.805 161.844 174.805 162.708Z" stroke="#002E47" stroke-miterlimit="10" stroke-linecap="round" stroke-linejoin="round"/>
<path d="M193.809 121.336L216.392 102.958L212.547 94.5835L219.186 94.2308L223.379 80.2731" stroke="#002E47" stroke-miterlimit="10"/>
<path d="M178.66 133.665L190.019 124.416" stroke="#002E47" stroke-miterlimit="10"/>
<path d="M177.261 82.7169L172.367 90.3961L175.162 93.8831L168.871 100.514L173.063 133.317" stroke="#002E47" stroke-miterlimit="10"/>
<path d="M180.91 80.6506L176.906 130.873L219.242 77.417L192.979 80.2731L180.91 80.6506Z" fill="white" stroke="#002E47" stroke-miterlimit="10"/>
<path d="M188.728 65.4114C188.728 65.4114 191.592 68.8735 190.832 73.0608C190.071 77.2481 186.823 78.7433 186.057 79.5082C185.296 80.2682 180.91 80.6506 180.91 80.6506C180.91 80.6506 182.019 102.193 187.738 102.953C193.462 103.713 205.487 93.1331 208.7 89.6908C213.593 84.4555 219.243 77.4071 219.243 77.4071C219.243 77.4071 212.221 70.3587 210.659 65.5952C208.794 59.9029 208.561 53.4059 208.561 53.4059L188.728 65.4114Z" fill="white" stroke="#002E47" stroke-miterlimit="10"/>
<path d="M201.593 66.837L189.116 65.9479C189.867 67.0705 191.418 69.8471 190.832 73.0658C190.071 77.2581 186.823 78.7482 186.057 79.5131C185.296 80.2731 180.91 80.6556 180.91 80.6556L183.193 91.6131L201.593 66.837Z" fill="#002E47" stroke="#002E47" stroke-miterlimit="10"/>
<path d="M180.814 25.1776C177.383 27.3383 175.995 30.9096 176.204 35.7178C176.602 45.0908 176.264 41.8572 178.671 48.2748C179.108 49.4371 173.419 50.8676 184.191 67.6317C187.165 72.2611 190.621 73.0261 193.416 72.2263C196.211 71.4266 199.97 68.4265 205.361 65.0389C210.752 61.6463 211.951 55.0649 211.951 55.0649C211.951 55.0649 219.142 51.4736 218.943 45.6919C218.744 39.9051 213.95 38.3107 212.155 39.3091C210.359 40.3075 210.359 40.3075 210.359 40.3075C210.359 40.3075 206.605 42.1652 203.213 39.175C201.87 37.9928 200.572 37.0391 199.707 35.4397C197.946 32.1961 197.578 27.6164 194.58 25.1925C191.834 22.9771 187.871 22.689 184.564 23.5881C183.112 23.9855 181.863 24.512 180.814 25.1776Z" fill="white" stroke="#002E47" stroke-miterlimit="10" stroke-linecap="round" stroke-linejoin="round"/>
<path d="M191.738 45.4038C191.738 45.4038 192.768 45.7118 194.205 44.9915" stroke="#002E47" stroke-miterlimit="10" stroke-linecap="round" stroke-linejoin="round"/>
<path d="M184.008 46.7549C184.192 48.1208 183.804 49.303 183.152 49.3875C182.501 49.4719 181.82 48.4338 181.636 47.0678C181.452 45.6969 181.84 44.5197 182.491 44.4352C183.142 44.3508 183.824 45.3839 184.008 46.7549Z" fill="#002E47" stroke="#002E47" stroke-miterlimit="10"/>
<path d="M181.437 16.7483C181.437 16.7483 177.603 15.7798 173.147 17.1855C168.691 18.5912 166.572 25.0832 167.512 29.7672C168.452 34.4512 171.973 40.9731 171.973 40.9731L182.148 38.9465L181.909 30.562L183.74 38.2859L192.88 35.7079L194.099 27.5121L195.924 35.852L201.827 37.1136C201.827 37.1136 202.538 27.0452 199.723 21.8943C196.913 16.7484 185.659 13.2366 181.437 16.7483Z" fill="#002E47" stroke="#002E47" stroke-miterlimit="10"/>
<path d="M191.016 44.6836C191.016 44.6836 191.727 43.0047 193.95 42.4483C196.173 41.892 198.256 44.2514 198.256 44.2514" stroke="#002E47" stroke-miterlimit="10" stroke-linecap="round" stroke-linejoin="round"/>
<path d="M186.588 47.6887L186.001 52.7105C185.871 53.8132 186.767 54.7619 187.876 54.7073L189.417 54.6278" stroke="#002E47" stroke-miterlimit="10" stroke-linecap="round" stroke-linejoin="round"/>
<path d="M186.391 58.4575C186.391 58.4575 192.184 59.8532 194.581 54.4688" stroke="#002E47" stroke-miterlimit="10" stroke-linecap="round" stroke-linejoin="round"/>
<path d="M189.652 38.8919C189.652 38.8919 191.477 35.2907 196.873 38.107" stroke="#002E47" stroke-width="2" stroke-miterlimit="10" stroke-linecap="round" stroke-linejoin="round"/>
<path d="M183.171 40.5012C183.171 40.5012 178.968 38.6038 177.75 42.9401" stroke="#002E47" stroke-width="2" stroke-miterlimit="10" stroke-linecap="round" stroke-linejoin="round"/>
<path d="M113.398 128.981C113.398 128.981 126.254 154.666 129.283 156.931C132.306 159.196 149.061 152.868 149.061 152.868L113.398 128.981Z" fill="white" stroke="#002E47" stroke-miterlimit="10"/>
<path d="M199.276 174.525C191.821 175.305 171.113 176.904 166.199 171.326C160.177 164.486 157.402 149.912 157.402 149.912L145.163 154.244C145.163 154.244 152.195 167.307 151.832 176.412C151.534 183.838 134.441 195.62 128.16 199.703C126.822 200.572 126.265 202.241 126.797 203.746C127.434 205.544 129.413 206.483 131.214 205.847L200.782 181.215C202.583 180.58 203.523 178.603 202.886 176.805C202.349 175.305 200.862 174.361 199.276 174.525Z" fill="white" stroke="#002E47" stroke-miterlimit="10"/>
<path d="M192.749 176.839C186.264 177.276 168.217 177.937 163.671 172.225C158.101 165.226 155.023 150.757 155.023 150.757L152.312 151.716C152.312 151.716 155.386 166.18 160.961 173.184C165.506 178.896 180.431 179.343 186.915 178.906C188.298 178.811 189.641 179.81 190.173 181.31C190.809 183.108 190.073 185.01 188.527 185.557L194.36 183.49C195.907 182.944 196.643 181.042 196.006 179.243C195.474 177.738 194.131 176.745 192.749 176.839Z" fill="#002E47" stroke="#002E47" stroke-miterlimit="10"/>
<path d="M155.379 163.612C157.229 162.956 158.895 161.913 160.402 160.552C158.373 154.989 157.403 149.912 157.403 149.912L145.164 154.244C145.164 154.244 147.611 158.794 149.545 164.392C151.574 164.506 153.529 164.268 155.379 163.612Z" fill="#002E47" stroke="#002E47" stroke-miterlimit="10"/>
<path d="M119.399 142.293C112.974 144.568 104.161 146.028 94.9512 142.516C77.5453 135.875 69.6729 114.174 69.3446 113.25L69.1905 112.823C68.6186 111.204 69.464 109.43 71.0852 108.854L105.365 96.7193L107.747 103.435L77.4657 114.154C80.1711 119.956 86.8102 131.782 97.4974 135.855C111.502 141.2 125.188 131.519 125.322 131.42L129.514 137.187C129.186 137.425 125.297 140.202 119.399 142.293Z" fill="white" stroke="#002E47" stroke-miterlimit="10"/>
<path d="M170.616 124.158C177.041 121.883 184.809 117.472 189.747 108.948C199.082 92.84 191.513 71.0293 191.185 70.1103L191.031 69.6832C190.459 68.0639 188.678 67.2195 187.057 67.7907L152.777 79.9254L155.159 86.641L185.441 75.9169C186.997 82.1259 189.295 95.4875 183.566 105.377C176.057 118.336 159.327 119.429 159.158 119.434L159.536 126.552C159.944 126.537 164.718 126.249 170.616 124.158Z" fill="white" stroke="#002E47" stroke-miterlimit="10"/>
<path d="M159.164 119.439L159.542 126.557C159.945 126.537 164.714 126.249 170.617 124.158C170.99 124.024 171.373 123.885 171.751 123.736C171.93 121.173 172.015 118.52 172.005 115.813C165.47 119.027 159.268 119.434 159.164 119.439Z" fill="#002E47" stroke="#002E47" stroke-miterlimit="10"/>
<path d="M155.167 86.646L167.744 82.1954C167.167 79.8708 166.531 77.571 165.84 75.306L152.785 79.9304L155.167 86.646Z" fill="#002E47" stroke="#002E47" stroke-miterlimit="10"/>
<path d="M153.125 157.274C171.894 150.628 172.824 105.005 160.774 71.0541L92.8164 95.115C104.866 129.065 134.362 163.92 153.125 157.274Z" fill="white" stroke="#002E47" stroke-miterlimit="10"/>
<path d="M162.331 75.7679C161.838 74.1784 161.326 72.5989 160.774 71.0541L92.8164 95.1149C93.3634 96.6597 93.9602 98.2095 94.5819 99.7543L162.331 75.7679Z" fill="#002E47" stroke="#002E47" stroke-miterlimit="10"/>
<path d="M149.529 75.0377C159.918 104.309 159.481 143.048 144.949 153.648C146.362 153.578 147.739 153.34 149.057 152.873C167.139 146.47 168.522 103.857 157.317 72.2859L149.529 75.0377Z" fill="#002E47" stroke="#002E47" stroke-miterlimit="10"/>
<path d="M160.412 73.0261L94.3493 96.4163C92.6933 97.0025 90.8682 96.1382 90.2813 94.4791C89.6945 92.8251 90.5598 91.0022 92.2209 90.416L158.284 67.0257C159.94 66.4396 161.765 67.3039 162.352 68.9629C162.939 70.622 162.068 72.4399 160.412 73.0261Z" fill="white" stroke="#002E47" stroke-miterlimit="10"/>
<path d="M154.5 183.128C154.5 183.128 144.275 186.053 142.683 188.979C141.092 191.905 140.411 193.579 139.277 195.248C138.143 196.922 137.685 197.965 140.187 198.59C142.688 199.216 144.732 195.456 145.637 195.039C146.548 194.622 142.231 202.564 143.136 203.607C144.046 204.65 146.771 204.233 147.453 203.816C148.134 203.399 151.317 201.307 151.317 201.307C151.317 201.307 157.449 201.933 161.313 199.216C165.177 196.499 166.082 191.482 167.902 189.605C169.717 187.722 174.715 185.214 174.715 185.214L170.627 176.228L154.5 183.128Z" fill="white" stroke="#002E47" stroke-miterlimit="10"/>
<path d="M168.501 176.069L164.965 178.533L170.177 189.709L176.269 186.163L168.501 176.069Z" fill="white" stroke="#002E47" stroke-miterlimit="10"/>
<path d="M216.736 109.589L205.363 139.367L167.91 176.233L176.926 189.794L223.38 159.141C223.38 159.141 243.183 106.4 246.088 101.562C248.992 96.7293 243.044 89.9193 240.662 88.0517C238.28 86.184 230.86 83.6061 230.86 83.6061" fill="#39B4EF"/>
<path d="M216.736 109.589L205.363 139.367L167.91 176.233L176.926 189.794L223.38 159.141C223.38 159.141 243.183 106.4 246.088 101.562C248.992 96.7293 243.044 89.9193 240.662 88.0517C238.28 86.184 230.86 83.6061 230.86 83.6061" stroke="#002E47" stroke-miterlimit="10"/>
<path d="M224.514 107.528C222.296 109.246 220.59 110.732 220.188 111.437" stroke="#002E47" stroke-miterlimit="10" stroke-linecap="round" stroke-linejoin="round"/>
<path d="M242.095 101.438C242.095 101.438 240.842 97.6879 238.027 98.6267C236.516 99.1284 231.841 102.158 227.648 105.193" stroke="#002E47" stroke-miterlimit="10" stroke-linecap="round" stroke-linejoin="round"/>
<path d="M229.263 97.375C229.263 97.375 223.639 100.167 220.188 104.875" stroke="#002E47" stroke-miterlimit="10" stroke-linecap="round" stroke-linejoin="round"/>
<path d="M96.1407 113.603C94.9422 113.945 94.3156 115.267 94.8378 116.389C95.1909 117.149 95.6683 117.914 96.2651 118.312C97.7272 119.285 102.611 117.1 103.098 114.914C103.585 112.728 101.387 111.76 100.413 112.242C99.8457 112.52 97.767 113.141 96.1407 113.603Z" fill="white" stroke="#002E47" stroke-miterlimit="10"/>
<path d="M104.774 125.578C103.908 125.827 103.456 126.78 103.834 127.595C104.092 128.146 104.435 128.698 104.868 128.986C105.927 129.691 109.463 128.107 109.816 126.527C110.169 124.943 108.578 124.242 107.872 124.595C107.454 124.799 105.947 125.246 104.774 125.578Z" fill="white" stroke="#002E47" stroke-miterlimit="10"/>
<path d="M101.594 122.772C100.52 123.08 99.9533 124.267 100.426 125.275C100.744 125.961 101.172 126.646 101.709 126.999C103.027 127.873 107.413 125.906 107.851 123.944C108.288 121.982 106.314 121.108 105.439 121.545C104.926 121.798 103.057 122.355 101.594 122.772Z" fill="white" stroke="#002E47" stroke-miterlimit="10"/>
<path d="M98.129 118.475C96.9305 118.818 96.3039 120.139 96.8261 121.262C97.1792 122.022 97.6566 122.787 98.2534 123.184C99.7155 124.158 104.599 121.972 105.086 119.787C105.574 117.601 103.376 116.633 102.401 117.114C101.834 117.398 99.7552 118.014 98.129 118.475Z" fill="white" stroke="#002E47" stroke-miterlimit="10"/>
<path d="M156.729 75.1533C161.974 73.9408 165.241 68.7111 164.028 63.4725C162.814 58.2339 157.578 54.97 152.333 56.1825C147.088 57.395 143.82 62.6246 145.034 67.8633C146.248 73.1019 151.484 76.3658 156.729 75.1533Z" fill="white" stroke="#002E47" stroke-miterlimit="10"/>
<path d="M110.985 155.619C116.224 154.383 119.469 149.14 118.232 143.907C116.995 138.674 111.745 135.434 106.506 136.67C101.267 137.905 98.0224 143.149 99.2595 148.381C100.497 153.614 105.746 156.854 110.985 155.619Z" fill="white" stroke="#002E47" stroke-miterlimit="10"/>
<path d="M243.56 3.84864C240.119 0.411375 234.544 0.411375 231.107 3.84864L228.377 6.5756L225.647 3.84864C222.206 0.411375 216.631 0.411375 213.194 3.84864C209.753 7.2859 209.753 12.8541 213.194 16.2864L228.377 30.7159L243.56 16.2864C247.002 12.8541 247.002 7.28093 243.56 3.84864Z" fill="#39B4EF" stroke="#002E47" stroke-miterlimit="10"/>
<path d="M254.363 34.7194C252.378 32.7375 249.166 32.7375 247.186 34.7194L245.615 36.289L244.043 34.7194C242.059 32.7375 238.846 32.7375 236.867 34.7194C234.883 36.7013 234.883 39.9101 236.867 41.887L245.62 50.202L254.372 41.887C256.347 39.9051 256.347 36.6963 254.363 34.7194Z" fill="#39B4EF" stroke="#002E47" stroke-miterlimit="10"/>
<path d="M161.324 25.9077C159.713 24.2983 157.097 24.2983 155.486 25.9077L154.208 27.1843L152.93 25.9077C151.318 24.2983 148.703 24.2983 147.091 25.9077C145.48 27.5171 145.48 30.1298 147.091 31.7391L154.208 38.5044L161.324 31.7391C162.941 30.1298 162.941 27.5171 161.324 25.9077Z" fill="#39B4EF" stroke="#002E47" stroke-miterlimit="10"/>
<path d="M132.518 120.517L131.723 147.826L135.706 144.116L140.749 149.152L139.157 124.227L144.2 123.433L152.431 138.548L153.759 132.185L163.844 135.1L145.274 114.412L132.518 120.517Z" fill="#39B4EF" stroke="#002E47" stroke-miterlimit="10"/>
<path d="M152.634 110.101L155.494 106.619L151.525 104.493L152.828 100.186L148.342 99.7443L147.9 95.264L143.588 96.5653L141.46 92.6016L137.973 95.4577L134.492 92.6016L132.364 96.5653L128.052 95.264L127.609 99.7443L123.124 100.186L124.427 104.493L120.453 106.619L123.313 110.101L120.453 113.578L124.427 115.704L123.124 120.01L127.609 120.452L128.052 124.933L132.364 123.631L134.492 127.6L137.973 124.744L141.46 127.6L143.588 123.631L147.9 124.933L148.342 120.452L152.828 120.01L151.525 115.704L155.494 113.578L152.634 110.101Z" fill="#39B4EF" stroke="#002E47" stroke-miterlimit="10"/>
<path d="M149.194 114.641C151.707 108.45 148.72 101.397 142.523 98.8869C136.325 96.3766 129.263 99.3598 126.75 105.55C124.237 111.74 127.223 118.793 133.421 121.304C139.619 123.814 146.68 120.831 149.194 114.641Z" fill="white" stroke="#002E47" stroke-miterlimit="10"/>
<path d="M146.539 115.341L136.384 118.908L135.449 116.255L138.657 115.128L135.832 107.096L132.624 108.223L131.754 105.745C132.246 105.571 132.704 105.377 133.131 105.163C133.559 104.95 133.902 104.716 134.151 104.468C134.444 104.175 134.633 103.857 134.713 103.524C134.792 103.191 134.778 102.814 134.658 102.397L138.04 101.21L142.466 113.796L145.604 112.694L146.539 115.341Z" fill="#002E47"/>
</svg>
