<svg width="305" height="226" viewBox="0 0 305 226" fill="none" xmlns="http://www.w3.org/2000/svg">
<g clip-path="url(#clip0_222_23369)">
<path d="M244.713 216.644C261.427 184.57 296.85 111.135 281.717 87.1883C266.993 63.8817 244.925 78.5214 217.402 64.2695C189.879 50.0226 205.315 2.2209 156.921 1.536C109.396 0.861174 103.138 79.4329 84.4537 87.1934C65.7699 94.9539 21.5682 63.6198 12.047 108.763C4.63707 143.884 42.1512 195.472 59.1783 216.649H244.713V216.644Z" fill="#39B4EF"/>
<path opacity="0.7" d="M244.713 216.644C261.427 184.57 296.85 111.135 281.717 87.1883C266.993 63.8817 244.925 78.5214 217.402 64.2695C189.879 50.0226 205.315 2.2209 156.921 1.536C109.396 0.861174 103.138 79.4329 84.4537 87.1934C65.7699 94.9539 21.5682 63.6198 12.047 108.763C4.63707 143.884 42.1512 195.472 59.1783 216.649H244.713V216.644Z" fill="white"/>
<path d="M277.146 216.644H19.0831C15.7848 218.119 13.0673 219.963 15.4716 221.438C20.2549 224.379 52.0513 219.479 44.8384 231.243C37.6255 243.007 116.937 228.629 125.458 228.957C133.979 229.284 140.207 235.881 153.315 235.881C166.422 235.881 167.493 227.436 175.974 227.436C184.449 227.436 244.668 237.674 270.277 227.436C281.576 222.914 281.152 219.288 277.146 216.644Z" fill="#E2EDFF"/>
<path opacity="0.6" d="M277.146 216.644H19.0831C15.7848 218.119 13.0673 219.963 15.4716 221.438C20.2549 224.379 52.0513 219.479 44.8384 231.243C37.6255 243.007 116.937 228.629 125.458 228.957C133.979 229.284 140.207 235.881 153.315 235.881C166.422 235.881 167.493 227.436 175.974 227.436C184.449 227.436 244.668 237.674 270.277 227.436C281.576 222.914 281.152 219.288 277.146 216.644Z" fill="white"/>
<path d="M12.0625 216.644H279.015" stroke="#002E47" stroke-width="0.75" stroke-miterlimit="10" stroke-linecap="round" stroke-linejoin="round"/>
<path d="M191.305 34.6023C196.007 34.6023 202.584 34.6023 207.2 34.6023" stroke="#002E47" stroke-width="0.75" stroke-miterlimit="10" stroke-linecap="round" stroke-linejoin="round"/>
<path d="M188.41 34.6023C188.845 34.6023 189.324 34.6023 189.829 34.6023" stroke="#002E47" stroke-width="0.75" stroke-miterlimit="10" stroke-linecap="round" stroke-linejoin="round"/>
<path d="M186.152 10.6461C179.52 10.6461 174.141 16.0094 174.141 22.6217C174.141 29.2339 179.52 34.5973 186.152 34.5973" stroke="#002E47" stroke-width="0.75" stroke-miterlimit="10" stroke-linecap="round" stroke-linejoin="round"/>
<path d="M200.793 0.463257C194.661 0.463257 189.61 5.05105 188.883 10.9684" stroke="#002E47" stroke-width="0.75" stroke-miterlimit="10" stroke-linecap="round" stroke-linejoin="round"/>
<path d="M212.104 34.6023C217.973 34.6023 222.726 29.8584 222.726 24.0116C222.726 18.3814 218.317 13.7936 212.761 13.4511C212.791 13.1187 212.811 12.7813 212.811 12.4439C212.811 6.83885 208.952 2.13523 203.734 0.825867" stroke="#002E47" stroke-width="0.75" stroke-miterlimit="10" stroke-linecap="round" stroke-linejoin="round"/>
<path d="M233.007 49.6197C233.275 49.237 233.512 48.8341 233.709 48.411L235.28 48.4362C235.513 47.8319 235.689 47.1974 235.79 46.5377L234.416 45.7772C234.437 45.5456 234.447 45.3139 234.447 45.0772C234.447 44.8405 234.437 44.6089 234.416 44.3772L235.79 43.6168C235.689 42.9571 235.513 42.3225 235.28 41.7182L233.709 41.7434C233.512 41.3153 233.275 40.9124 233.007 40.5347L233.815 39.1901C233.401 38.6815 232.931 38.2131 232.421 37.8002L231.073 38.606C230.689 38.339 230.285 38.1024 229.86 37.9059L229.886 36.3398C229.28 36.1081 228.643 35.9318 227.981 35.8311L227.219 37.2009" stroke="#002E47" stroke-width="0.75" stroke-miterlimit="10" stroke-linecap="round" stroke-linejoin="round"/>
<path d="M219.61 48.97C219.736 49.1916 219.873 49.4082 220.019 49.6197L219.211 50.9643C219.625 51.4729 220.095 51.9413 220.605 52.3542L221.954 51.5485C222.338 51.8154 222.742 52.0521 223.166 52.2485L223.141 53.8147C223.747 54.0463 224.383 54.2226 225.045 54.3233L225.808 52.9535C226.04 52.9737 226.272 52.9837 226.51 52.9837C226.747 52.9837 226.979 52.9737 227.212 52.9535L227.975 54.3233C228.636 54.2226 229.273 54.0463 229.879 53.8147L229.853 52.2485C230.283 52.0521 230.687 51.8154 231.066 51.5485L232.414 52.3542C232.925 51.9413 233.394 51.4729 233.808 50.9643" stroke="#002E47" stroke-width="0.75" stroke-miterlimit="10" stroke-linecap="round" stroke-linejoin="round"/>
<path d="M218.369 41.7232L217.752 41.7132C217.52 42.3175 217.343 42.952 217.242 43.6117L218.616 44.3722C218.596 44.6038 218.586 44.8355 218.586 45.0722C218.586 45.3089 218.596 45.5405 218.616 45.7722L217.242 46.5326C217.343 47.1923 217.52 47.8269 217.752 48.4312L219.323 48.406" stroke="#002E47" stroke-width="0.75" stroke-miterlimit="10" stroke-linecap="round" stroke-linejoin="round"/>
<path d="M225.812 37.1959L225.049 35.8261C224.387 35.9318 223.751 36.1031 223.145 36.3347L223.17 37.9009C222.74 38.0973 222.336 38.334 221.958 38.6009L220.609 37.7952C220.099 38.2081 219.629 38.6765 219.215 39.1851L220.023 40.5297C219.755 40.9124 219.518 41.3153 219.321 41.7383" stroke="#002E47" stroke-width="0.75" stroke-miterlimit="10" stroke-linecap="round" stroke-linejoin="round"/>
<path d="M225.484 50.0679C223.155 49.5945 221.402 47.5398 221.402 45.0722C221.402 42.257 223.69 39.9757 226.514 39.9757" stroke="#002E47" stroke-width="0.75" stroke-miterlimit="10" stroke-linecap="round" stroke-linejoin="round"/>
<path d="M231.486 46.2708C230.945 48.5118 228.925 50.1737 226.516 50.1737" stroke="#002E47" stroke-width="0.75" stroke-miterlimit="10" stroke-linecap="round" stroke-linejoin="round"/>
<path d="M231.608 45.5204C231.598 45.6412 231.583 45.7621 231.562 45.8779" stroke="#002E47" stroke-width="0.75" stroke-miterlimit="10" stroke-linecap="round" stroke-linejoin="round"/>
<path d="M228.383 40.3283C230.282 41.0736 231.631 42.9168 231.631 45.0772" stroke="#002E47" stroke-width="0.75" stroke-miterlimit="10" stroke-linecap="round" stroke-linejoin="round"/>
<path d="M240.274 34.1541C240.42 33.9426 240.552 33.721 240.663 33.4843L241.532 33.4994C241.663 33.162 241.759 32.8145 241.814 32.4469L241.052 32.0238C241.062 31.8979 241.072 31.767 241.072 31.6361C241.072 31.5051 241.067 31.3792 241.052 31.2483L241.814 30.8253C241.759 30.4627 241.663 30.1102 241.532 29.7728L240.663 29.7879C240.552 29.5512 240.42 29.3296 240.274 29.1181L240.718 28.3778C240.491 28.0958 240.228 27.8389 239.946 27.6073L239.203 28.0504C238.991 27.9044 238.769 27.7735 238.531 27.6627L238.546 26.7965C238.208 26.6655 237.859 26.5699 237.491 26.5145L237.066 27.2699" stroke="#002E47" stroke-width="0.75" stroke-miterlimit="10" stroke-linecap="round" stroke-linejoin="round"/>
<path d="M232.866 33.7965C232.936 33.9174 233.012 34.0383 233.093 34.1541L232.648 34.8944C232.876 35.1764 233.138 35.4332 233.421 35.6649L234.164 35.2217C234.376 35.3678 234.598 35.4987 234.836 35.6095L234.82 36.4757C235.159 36.6066 235.507 36.7023 235.876 36.7577L236.3 36.0023C236.427 36.0124 236.558 36.0225 236.689 36.0225C236.821 36.0225 236.947 36.0174 237.078 36.0023L237.503 36.7577C237.866 36.7023 238.22 36.6066 238.558 36.4757L238.543 35.6095C238.78 35.4987 239.003 35.3678 239.215 35.2217L239.957 35.6649C240.24 35.4383 240.498 35.1764 240.73 34.8944" stroke="#002E47" stroke-width="0.75" stroke-miterlimit="10" stroke-linecap="round" stroke-linejoin="round"/>
<path d="M232.177 29.7879L231.834 29.7828C231.702 30.1202 231.606 30.4677 231.551 30.8354L232.313 31.2584C232.303 31.3843 232.293 31.5152 232.293 31.6462C232.293 31.7771 232.298 31.903 232.313 32.0339L231.551 32.457C231.606 32.8195 231.702 33.1721 231.834 33.5095L232.702 33.4944" stroke="#002E47" stroke-width="0.75" stroke-miterlimit="10" stroke-linecap="round" stroke-linejoin="round"/>
<path d="M236.293 27.2799L235.868 26.5245C235.505 26.5799 235.151 26.6756 234.813 26.8066L234.828 27.6727C234.59 27.7835 234.368 27.9145 234.156 28.0605L233.413 27.6173C233.131 27.844 232.873 28.1058 232.641 28.3879L233.085 29.1281C232.939 29.3397 232.807 29.5612 232.696 29.7979" stroke="#002E47" stroke-width="0.75" stroke-miterlimit="10" stroke-linecap="round" stroke-linejoin="round"/>
<path d="M99.8594 34.144C103.309 34.144 108.128 34.144 111.507 34.144" stroke="#002E47" stroke-width="0.75" stroke-miterlimit="10" stroke-linecap="round" stroke-linejoin="round"/>
<path d="M97.7383 34.144C98.0565 34.144 98.405 34.144 98.7788 34.144" stroke="#002E47" stroke-width="0.75" stroke-miterlimit="10" stroke-linecap="round" stroke-linejoin="round"/>
<path d="M96.0813 16.5886C91.2172 16.5886 87.2773 20.5166 87.2773 25.3663C87.2773 30.216 91.2172 34.1441 96.0813 34.1441" stroke="#002E47" stroke-width="0.75" stroke-miterlimit="10" stroke-linecap="round" stroke-linejoin="round"/>
<path d="M106.819 9.12518C102.324 9.12518 98.6213 12.4842 98.0859 16.8252" stroke="#002E47" stroke-width="0.75" stroke-miterlimit="10" stroke-linecap="round" stroke-linejoin="round"/>
<path d="M115.102 34.144C119.4 34.144 122.886 30.6692 122.886 26.3835C122.886 22.259 119.653 18.895 115.582 18.6432C115.602 18.4015 115.617 18.1547 115.617 17.9029C115.617 13.7935 112.788 10.3489 108.965 9.38702" stroke="#002E47" stroke-width="0.75" stroke-miterlimit="10" stroke-linecap="round" stroke-linejoin="round"/>
<path d="M85.5239 49.9118C85.8119 49.5089 86.0594 49.0758 86.2715 48.6225L87.9434 48.6477C88.1909 48.0031 88.3778 47.3283 88.4889 46.6233L87.0241 45.8125C87.0443 45.5657 87.0595 45.3189 87.0595 45.0671C87.0595 44.8153 87.0443 44.5686 87.0241 44.3218L88.4889 43.511C88.3778 42.811 88.1959 42.1311 87.9434 41.4865L86.2715 41.5117C86.0594 41.0585 85.8068 40.6304 85.5239 40.2225L86.3826 38.7923C85.9432 38.2484 85.4431 37.7498 84.8976 37.3117L83.4631 38.1678C83.059 37.8808 82.6246 37.634 82.17 37.4225L82.1953 35.7556C81.5488 35.5088 80.8719 35.3225 80.1648 35.2117L79.3516 36.6721" stroke="#002E47" stroke-width="0.75" stroke-miterlimit="10" stroke-linecap="round" stroke-linejoin="round"/>
<path d="M71.2669 49.2218C71.4033 49.4585 71.5498 49.6902 71.7063 49.9118L70.8477 51.342C71.2871 51.8859 71.7872 52.3844 72.3327 52.8226L73.7672 51.9665C74.1712 52.2535 74.6056 52.5003 75.0602 52.7118L75.035 54.3787C75.6815 54.6255 76.3583 54.8118 77.0655 54.9226L77.8787 53.4621C78.1262 53.4823 78.3737 53.4974 78.6263 53.4974C78.8788 53.4974 79.1263 53.4823 79.3738 53.4621L80.187 54.9226C80.8891 54.8118 81.571 54.6305 82.2176 54.3787L82.1923 52.7118C82.6469 52.5003 83.0762 52.2485 83.4854 51.9665L84.9199 52.8226C85.4654 52.3844 85.9654 51.8859 86.4049 51.342" stroke="#002E47" stroke-width="0.75" stroke-miterlimit="10" stroke-linecap="round" stroke-linejoin="round"/>
<path d="M69.9482 41.5117L69.2916 41.5016C69.0441 42.1463 68.8572 42.8211 68.7461 43.5261L70.2109 44.3369C70.1907 44.5837 70.1755 44.8304 70.1755 45.0822C70.1755 45.334 70.1907 45.5808 70.2109 45.8276L68.7461 46.6384C68.8572 47.3384 69.0391 48.0182 69.2916 48.6628L70.9635 48.6377" stroke="#002E47" stroke-width="0.75" stroke-miterlimit="10" stroke-linecap="round" stroke-linejoin="round"/>
<path d="M77.867 36.6923L77.0538 35.2318C76.3517 35.3426 75.6748 35.5239 75.0233 35.7757L75.0485 37.4426C74.5939 37.6541 74.1646 37.9059 73.7554 38.1879L72.3209 37.3318C71.7754 37.77 71.2754 38.2685 70.8359 38.8124L71.6946 40.2426C71.4067 40.6455 71.1592 41.0786 70.9471 41.5319" stroke="#002E47" stroke-width="0.75" stroke-miterlimit="10" stroke-linecap="round" stroke-linejoin="round"/>
<path d="M77.5197 50.3902C75.0396 49.8866 73.1758 47.6959 73.1758 45.0722C73.1758 42.0758 75.6104 39.6484 78.6158 39.6484" stroke="#002E47" stroke-width="0.75" stroke-miterlimit="10" stroke-linecap="round" stroke-linejoin="round"/>
<path d="M83.9068 46.3463C83.331 48.7283 81.1792 50.501 78.6133 50.501" stroke="#002E47" stroke-width="0.75" stroke-miterlimit="10" stroke-linecap="round" stroke-linejoin="round"/>
<path d="M84.0416 45.5506C84.0315 45.6815 84.0163 45.8074 83.9961 45.9333" stroke="#002E47" stroke-width="0.75" stroke-miterlimit="10" stroke-linecap="round" stroke-linejoin="round"/>
<path d="M80.6016 40.0211C82.627 40.8117 84.0565 42.7758 84.0565 45.0722" stroke="#002E47" stroke-width="0.75" stroke-miterlimit="10" stroke-linecap="round" stroke-linejoin="round"/>
<path d="M64.7099 44.6089C64.9221 44.3067 65.114 43.9794 65.2706 43.642L66.5233 43.6621C66.7101 43.1786 66.8516 42.67 66.9324 42.1412L65.8313 41.5319C65.8464 41.3455 65.8565 41.1592 65.8565 40.9729C65.8565 40.7865 65.8464 40.6002 65.8313 40.4139L66.9324 39.8045C66.8516 39.2757 66.7101 38.7671 66.5233 38.2836L65.2706 38.3038C65.114 37.9613 64.9221 37.639 64.7099 37.3369L65.3565 36.2642C65.0231 35.8563 64.6493 35.4836 64.2402 35.1513L63.1643 35.7959C62.8613 35.5843 62.5329 35.393 62.1945 35.2369L62.2147 33.9879C61.7298 33.8016 61.2197 33.6606 60.6893 33.58L60.0781 34.6779" stroke="#002E47" stroke-width="0.75" stroke-miterlimit="10" stroke-linecap="round" stroke-linejoin="round"/>
<path d="M53.9979 44.0901C54.0989 44.2664 54.21 44.4427 54.3262 44.6089L53.6797 45.6815C54.0131 46.0894 54.3868 46.4621 54.796 46.7945L55.8718 46.1499C56.1749 46.3614 56.5032 46.5528 56.8416 46.7089L56.8214 47.9578C57.3063 48.1441 57.8165 48.2851 58.3468 48.3657L58.958 47.2679C59.1449 47.283 59.3318 47.293 59.5187 47.293C59.7056 47.293 59.8925 47.283 60.0794 47.2679L60.6905 48.3657C61.2209 48.2851 61.7311 48.1441 62.216 47.9578L62.1958 46.7089C62.5392 46.5528 62.8625 46.3614 63.1656 46.1499L64.2414 46.7945C64.6506 46.4621 65.0243 46.0894 65.3577 45.6815" stroke="#002E47" stroke-width="0.75" stroke-miterlimit="10" stroke-linecap="round" stroke-linejoin="round"/>
<path d="M53.0018 38.2937L52.5068 38.2836C52.3199 38.7671 52.1785 39.2757 52.0977 39.8045L53.1988 40.4139C53.1836 40.6002 53.1735 40.7865 53.1735 40.9729C53.1735 41.1592 53.1836 41.3455 53.1988 41.5319L52.0977 42.1412C52.1785 42.67 52.3199 43.1786 52.5068 43.6621L53.7594 43.6419" stroke="#002E47" stroke-width="0.75" stroke-miterlimit="10" stroke-linecap="round" stroke-linejoin="round"/>
<path d="M58.958 34.6728L58.3468 33.575C57.8165 33.6556 57.3114 33.7966 56.8214 33.9829L56.8416 35.2318C56.4982 35.3879 56.1749 35.5793 55.8718 35.7908L54.796 35.1462C54.3868 35.4786 54.0131 35.8513 53.6797 36.2592L54.3262 37.3318C54.1141 37.634 53.9221 37.9613 53.7656 38.2988" stroke="#002E47" stroke-width="0.75" stroke-miterlimit="10" stroke-linecap="round" stroke-linejoin="round"/>
<path d="M58.958 43.7024C57.6851 43.4405 56.7305 42.3225 56.7305 40.9779C56.7305 39.4419 57.9781 38.198 59.5186 38.198" stroke="#002E47" stroke-width="0.75" stroke-miterlimit="10" stroke-linecap="round" stroke-linejoin="round"/>
<path d="M62.2319 41.6276C61.939 42.8513 60.8328 43.7578 59.5195 43.7578" stroke="#002E47" stroke-width="0.75" stroke-miterlimit="10" stroke-linecap="round" stroke-linejoin="round"/>
<path d="M60.5391 38.3844C61.5745 38.7923 62.312 39.7995 62.312 40.9779" stroke="#002E47" stroke-width="0.75" stroke-miterlimit="10" stroke-linecap="round" stroke-linejoin="round"/>
<path d="M152.468 197.754C152.468 197.754 135.916 188.216 138.123 185.557C140.331 182.903 147.917 190.326 147.917 190.326C147.917 190.326 133.295 172.035 135.916 170.177C138.538 168.318 145.983 180.42 145.983 180.42C145.983 180.42 137.017 160.251 140.467 159.677C143.917 159.102 149.433 177.121 149.433 177.121C149.433 177.121 147.089 164.33 149.433 164.058C151.776 163.781 153.433 184.318 153.433 184.318C153.433 184.318 153.317 174.654 155.373 174.719C157.434 174.785 158.262 196.379 152.468 197.754Z" fill="#39B4EF"/>
<path opacity="0.4" d="M152.468 197.754C152.468 197.754 135.916 188.216 138.123 185.557C140.331 182.903 147.917 190.326 147.917 190.326C147.917 190.326 133.295 172.035 135.916 170.177C138.538 168.318 145.983 180.42 145.983 180.42C145.983 180.42 137.017 160.251 140.467 159.677C143.917 159.102 149.433 177.121 149.433 177.121C149.433 177.121 147.089 164.33 149.433 164.058C151.776 163.781 153.433 184.318 153.433 184.318C153.433 184.318 153.317 174.654 155.373 174.719C157.434 174.785 158.262 196.379 152.468 197.754Z" fill="white"/>
<path d="M155.06 196.948C155.06 196.948 168.167 189.394 166.42 187.289C164.672 185.184 158.661 191.066 158.661 191.066C158.661 191.066 170.243 176.582 168.167 175.112C166.091 173.641 160.192 183.225 160.192 183.225C160.192 183.225 167.293 167.251 164.561 166.797C161.828 166.344 157.459 180.611 157.459 180.611C157.459 180.611 159.318 170.484 157.459 170.262C155.6 170.046 154.292 186.312 154.292 186.312C154.292 186.312 154.383 178.657 152.751 178.708C151.13 178.763 150.473 195.86 155.06 196.948Z" fill="#39B4EF"/>
<path opacity="0.2" d="M155.06 196.948C155.06 196.948 168.167 189.394 166.42 187.289C164.672 185.184 158.661 191.066 158.661 191.066C158.661 191.066 170.243 176.582 168.167 175.112C166.091 173.641 160.192 183.225 160.192 183.225C160.192 183.225 167.293 167.251 164.561 166.797C161.828 166.344 157.459 180.611 157.459 180.611C157.459 180.611 159.318 170.484 157.459 170.262C155.6 170.046 154.292 186.312 154.292 186.312C154.292 186.312 154.383 178.657 152.751 178.708C151.13 178.763 150.473 195.86 155.06 196.948Z" fill="#002E47"/>
<path d="M140.93 194.38V195.392C140.93 196.283 141.526 197.024 142.334 197.27L143.829 213.129C144.026 215.219 145.784 216.815 147.89 216.815H158.972C161.078 216.815 162.836 215.219 163.033 213.129L164.528 197.27C165.341 197.024 165.932 196.283 165.932 195.392V194.38H140.93Z" fill="#002E47"/>
<path d="M142.582 199.934C143.082 200.005 143.602 199.854 143.986 199.476L145.289 198.167C145.931 197.532 146.961 197.532 147.603 198.167L148.906 199.476C149.547 200.111 150.583 200.111 151.219 199.476L152.533 198.167C153.169 197.532 154.204 197.532 154.841 198.167L156.154 199.476C156.791 200.111 157.826 200.111 158.463 199.476L159.776 198.167C160.412 197.532 161.448 197.532 162.089 198.167L163.392 199.476C163.65 199.733 163.958 199.879 164.281 199.929" stroke="#E2EDFF" stroke-width="0.75" stroke-linecap="round" stroke-linejoin="round"/>
<path d="M196.807 154.721H100.62C97.8976 154.721 95.6953 152.52 95.6953 149.811V53.9104C95.6953 51.196 97.9026 49.0003 100.62 49.0003H196.807C199.53 49.0003 201.732 51.201 201.732 53.9104V149.811C201.737 152.52 199.53 154.721 196.807 154.721Z" fill="#002E47"/>
<mask id="mask0_222_23369" style="mask-type:luminance" maskUnits="userSpaceOnUse" x="95" y="49" width="107" height="106">
<path d="M196.807 154.721H100.62C97.8976 154.721 95.6953 152.52 95.6953 149.811V53.9104C95.6953 51.196 97.9026 49.0003 100.62 49.0003H196.807C199.53 49.0003 201.732 51.201 201.732 53.9104V149.811C201.737 152.52 199.53 154.721 196.807 154.721Z" fill="white"/>
</mask>
<g mask="url(#mask0_222_23369)">
<path opacity="0.8" d="M196.807 154.721H100.62C97.8976 154.721 95.6953 152.52 95.6953 149.811V53.9104C95.6953 51.196 97.9026 49.0003 100.62 49.0003H196.807C199.53 49.0003 201.732 51.201 201.732 53.9104V149.811C201.737 152.52 199.53 154.721 196.807 154.721Z" fill="white"/>
</g>
<path d="M196.807 154.721H100.62C97.8976 154.721 95.6953 152.52 95.6953 149.811V53.9104C95.6953 51.196 97.9026 49.0003 100.62 49.0003H196.807C199.53 49.0003 201.732 51.201 201.732 53.9104V149.811C201.737 152.52 199.53 154.721 196.807 154.721Z" stroke="#002E47" stroke-width="0.75" stroke-miterlimit="10" stroke-linecap="round" stroke-linejoin="round"/>
<path d="M194.156 152.077H103.272C100.55 152.077 98.3477 149.876 98.3477 147.167V66.6112C98.3477 63.8968 100.555 61.7011 103.272 61.7011H194.156C196.878 61.7011 199.081 63.9018 199.081 66.6112V147.167C199.086 149.876 196.878 152.077 194.156 152.077Z" fill="#002E47"/>
<path d="M194.156 152.077H103.272C100.55 152.077 98.3477 149.876 98.3477 147.167V66.6112C98.3477 63.8968 100.555 61.7011 103.272 61.7011H194.156C196.878 61.7011 199.081 63.9018 199.081 66.6112V147.167C199.086 149.876 196.878 152.077 194.156 152.077Z" stroke="#002E47" stroke-width="0.75" stroke-miterlimit="10" stroke-linecap="round" stroke-linejoin="round"/>
<path d="M194.298 58.8558H198.031C198.611 58.8558 199.086 58.3874 199.086 57.8032V54.0816C199.086 53.5025 198.617 53.0291 198.031 53.0291H194.298C193.717 53.0291 193.242 53.4975 193.242 54.0816V57.8032C193.242 58.3824 193.717 58.8558 194.298 58.8558Z" fill="#39B4EF"/>
<mask id="mask1_222_23369" style="mask-type:luminance" maskUnits="userSpaceOnUse" x="193" y="53" width="7" height="6">
<path d="M194.298 58.8558H198.031C198.611 58.8558 199.086 58.3874 199.086 57.8032V54.0816C199.086 53.5025 198.617 53.0291 198.031 53.0291H194.298C193.717 53.0291 193.242 53.4975 193.242 54.0816V57.8032C193.242 58.3824 193.717 58.8558 194.298 58.8558Z" fill="white"/>
</mask>
<g mask="url(#mask1_222_23369)">
<path opacity="0.3" d="M194.298 58.8558H198.031C198.611 58.8558 199.086 58.3874 199.086 57.8032V54.0816C199.086 53.5025 198.617 53.0291 198.031 53.0291H194.298C193.717 53.0291 193.242 53.4975 193.242 54.0816V57.8032C193.242 58.3824 193.717 58.8558 194.298 58.8558Z" fill="#002E47"/>
</g>
<path d="M194.298 58.8558H198.031C198.611 58.8558 199.086 58.3874 199.086 57.8032V54.0816C199.086 53.5025 198.617 53.0291 198.031 53.0291H194.298C193.717 53.0291 193.242 53.4975 193.242 54.0816V57.8032C193.242 58.3824 193.717 58.8558 194.298 58.8558Z" stroke="#002E47" stroke-width="0.75" stroke-miterlimit="10" stroke-linecap="round" stroke-linejoin="round"/>
<path d="M187.099 58.8558H190.831C191.412 58.8558 191.887 58.3874 191.887 57.8032V54.0816C191.887 53.5025 191.417 53.0291 190.831 53.0291H187.099C186.518 53.0291 186.043 53.4975 186.043 54.0816V57.8032C186.048 58.3824 186.518 58.8558 187.099 58.8558Z" fill="#39B4EF" stroke="#002E47" stroke-width="0.75" stroke-miterlimit="10" stroke-linecap="round" stroke-linejoin="round"/>
<path d="M179.899 58.8558H183.632C184.213 58.8558 184.688 58.3874 184.688 57.8032V54.0816C184.688 53.5025 184.218 53.0291 183.632 53.0291H179.899C179.319 53.0291 178.844 53.4975 178.844 54.0816V57.8032C178.849 58.3824 179.319 58.8558 179.899 58.8558Z" fill="#39B4EF"/>
<mask id="mask2_222_23369" style="mask-type:luminance" maskUnits="userSpaceOnUse" x="178" y="53" width="7" height="6">
<path d="M179.899 58.8558H183.632C184.213 58.8558 184.688 58.3874 184.688 57.8032V54.0816C184.688 53.5025 184.218 53.0291 183.632 53.0291H179.899C179.319 53.0291 178.844 53.4975 178.844 54.0816V57.8032C178.849 58.3824 179.319 58.8558 179.899 58.8558Z" fill="white"/>
</mask>
<g mask="url(#mask2_222_23369)">
<path opacity="0.7" d="M179.899 58.8558H183.632C184.213 58.8558 184.688 58.3874 184.688 57.8032V54.0816C184.688 53.5025 184.218 53.0291 183.632 53.0291H179.899C179.319 53.0291 178.844 53.4975 178.844 54.0816V57.8032C178.849 58.3824 179.319 58.8558 179.899 58.8558Z" fill="white"/>
</g>
<path d="M179.899 58.8558H183.632C184.213 58.8558 184.688 58.3874 184.688 57.8032V54.0816C184.688 53.5025 184.218 53.0291 183.632 53.0291H179.899C179.319 53.0291 178.844 53.4975 178.844 54.0816V57.8032C178.849 58.3824 179.319 58.8558 179.899 58.8558Z" stroke="#002E47" stroke-width="0.75" stroke-miterlimit="10" stroke-linecap="round" stroke-linejoin="round"/>
<path d="M229.909 184.952C229.909 184.952 230.753 190.487 230.551 192.325C229.879 198.504 226.707 204.633 225.363 216.639H276.975C276.975 216.639 277.445 194.742 275.414 184.947H229.909V184.952Z" fill="#E2EDFF" stroke="#002E47" stroke-miterlimit="10" stroke-linecap="round" stroke-linejoin="round"/>
<path d="M229.613 188.1C229.613 188.1 228.345 166.566 225.85 145.838C224.355 133.404 221.849 121.081 221.273 111.875C220.526 99.8337 235.27 103.178 248.11 102.644C260.949 102.11 273.42 100.448 274.314 111.643C275.203 122.838 276.431 187.39 276.431 187.39C276.431 187.39 252.1 193.896 229.613 188.1Z" fill="#39B4EF"/>
<mask id="mask3_222_23369" style="mask-type:luminance" maskUnits="userSpaceOnUse" x="221" y="102" width="56" height="89">
<path d="M229.613 188.1C229.613 188.1 228.345 166.566 225.85 145.838C224.355 133.404 221.849 121.081 221.273 111.875C220.526 99.8337 235.27 103.178 248.11 102.644C260.949 102.11 273.42 100.448 274.314 111.643C275.203 122.838 276.431 187.39 276.431 187.39C276.431 187.39 252.1 193.896 229.613 188.1Z" fill="white"/>
</mask>
<g mask="url(#mask3_222_23369)">
<g opacity="0.2">
<path d="M225.678 118.945C222.667 126.001 217.672 132.195 211.409 136.647L212.611 139.397C211.217 140.565 208.661 139.492 208.53 137.684L207.08 145.102L202.453 144.956C204.716 147.248 208.691 146.9 211.358 145.092C214.025 143.284 215.712 140.399 217.374 137.644C219.036 134.889 220.884 132.059 223.708 130.508C227.102 146.407 230.502 162.3 233.896 178.199C234.446 180.762 235.027 183.416 236.573 185.536C239.78 189.943 245.978 190.739 251.433 190.693C259.52 190.618 267.596 189.52 275.405 187.43L274.804 128.917L290.362 148.21C287.831 151.7 285.295 155.189 282.765 158.674C285.962 153.87 291.518 150.712 297.297 150.42C296.362 149.469 294.902 149.066 293.614 149.403L298.423 147.867L294.665 147.54C295.362 146.412 296.064 145.284 296.761 144.151C296.271 145.117 294.938 145.389 293.907 145.037C292.877 144.684 292.084 143.874 291.336 143.088C287.907 139.507 284.442 135.876 281.992 131.571C279.542 127.265 278.173 122.143 279.269 117.314L277.522 121.665L274.85 114.232C275.385 116.584 274.557 119.192 272.754 120.799C272.041 121.438 271.162 121.957 270.789 122.848C270.622 123.241 270.612 123.689 270.693 124.112C277.401 159.883 255.59 160.074 247.943 158.11C241.094 156.348 234.815 147.736 234.553 140.776C234.522 139.9 235.482 139.331 236.25 139.754C249.135 146.85 260.187 148.663 256.353 145.727C249.534 144.271 231.36 136.843 228.33 120.658C228.102 119.439 226.895 118.653 225.678 118.945Z" fill="#002E47"/>
</g>
</g>
<path d="M229.613 188.1C229.613 188.1 228.345 166.566 225.85 145.838C224.355 133.404 221.849 121.081 221.273 111.875C220.526 99.8337 235.27 103.178 248.11 102.644C260.949 102.11 273.42 100.448 274.314 111.643C275.203 122.838 276.431 187.39 276.431 187.39C276.431 187.39 252.1 193.896 229.613 188.1Z" stroke="#002E47" stroke-width="0.75" stroke-miterlimit="10" stroke-linecap="round" stroke-linejoin="round"/>
<path d="M250.599 216.644C250.599 216.644 249.538 214.065 248.927 213.25C245.77 209.07 246.164 205.504 245.007 201.601C244.654 200.408 242.234 197.457 242.234 197.457" stroke="#002E47" stroke-width="0.75" stroke-miterlimit="10" stroke-linecap="round" stroke-linejoin="round"/>
<path d="M282.03 163.187L278.277 167.628L279.434 175.414L285.152 169.416L282.03 163.187Z" fill="white" stroke="#002E47" stroke-width="0.75" stroke-miterlimit="10" stroke-linecap="round" stroke-linejoin="round"/>
<path d="M278.964 167.951C278.807 167.195 278.721 165.267 277.989 165.015C276.645 164.551 274.059 166.989 273.241 168.147C272.857 168.691 272.029 169.859 272.039 170.529C272.044 170.872 272.342 171.682 272.68 171.733C273.266 171.823 273.938 170.469 274.392 170.086C274.963 169.608 277.095 168.545 277.095 168.545C277.095 168.545 275.504 170.846 274.857 171.38C273.892 172.171 269.867 174.402 272.423 175.731C272.423 175.731 271.438 177.172 272.978 177.554C274.524 177.937 276.979 175.807 276.979 175.807C276.979 175.807 276.539 176.497 275.413 177.494C274.438 178.365 272.988 178.174 273.332 178.788C273.862 179.74 275.175 179.831 276.575 179.357C277.974 178.889 278.918 178.345 279.918 176.693C281.176 174.608 279.413 170.106 278.964 167.951Z" fill="white" stroke="#002E47" stroke-width="0.75" stroke-miterlimit="10" stroke-linecap="round" stroke-linejoin="round"/>
<path d="M273.473 175.414C273.473 175.414 275.569 174.362 276.65 173.556C277.731 172.75 278.281 171.642 278.281 171.642" stroke="#002E47" stroke-width="0.75" stroke-miterlimit="10" stroke-linecap="round" stroke-linejoin="round"/>
<path d="M262.191 102.276C262.191 102.276 274.698 103.016 274.627 106.849C274.627 106.849 280.89 109.508 281.224 112.509C281.557 115.511 307.974 143.728 303.393 151.921C299.397 159.072 283.259 172.377 283.259 172.377C283.259 172.377 281.719 168.923 279.976 164.889C279.976 164.889 287.058 149.494 290.29 147.912L273.299 126.394" fill="#39B4EF"/>
<mask id="mask4_222_23369" style="mask-type:luminance" maskUnits="userSpaceOnUse" x="262" y="102" width="42" height="71">
<path d="M262.191 102.276C262.191 102.276 274.698 103.016 274.627 106.849C274.627 106.849 280.89 109.508 281.224 112.509C281.557 115.511 307.974 143.728 303.393 151.921C299.397 159.072 283.259 172.377 283.259 172.377C283.259 172.377 281.719 168.923 279.976 164.889C279.976 164.889 287.058 149.494 290.29 147.912L273.299 126.394" fill="white"/>
</mask>
<g mask="url(#mask4_222_23369)">
<g opacity="0.2">
<path d="M225.928 118.86C222.917 125.915 217.922 132.109 211.659 136.561C212.058 137.478 212.462 138.394 212.861 139.311C211.467 140.479 208.911 139.407 208.78 137.599C208.295 140.071 207.815 142.544 207.33 145.017C205.789 144.966 204.244 144.921 202.703 144.871C204.966 147.162 208.941 146.815 211.608 145.007C214.275 143.199 215.962 140.313 217.624 137.558C219.286 134.804 221.134 131.974 223.958 130.422C227.352 146.321 230.752 162.215 234.146 178.113C234.696 180.677 235.277 183.331 236.823 185.451C240.03 189.857 246.228 190.653 251.683 190.608C259.77 190.532 267.846 189.434 275.655 187.344C275.453 167.84 275.251 148.335 275.054 128.831C280.242 135.262 285.424 141.693 290.612 148.124C288.081 151.614 285.545 155.104 283.015 158.589C286.212 153.784 291.768 150.627 297.547 150.335C296.612 149.383 295.152 148.98 293.864 149.318C295.466 148.804 297.067 148.295 298.673 147.782C297.42 147.671 296.168 147.565 294.915 147.454C295.612 146.326 296.314 145.198 297.011 144.065C296.521 145.032 295.188 145.304 294.157 144.951C293.127 144.599 292.334 143.788 291.586 143.002C288.157 139.422 284.692 135.791 282.242 131.485C279.792 127.179 278.423 122.058 279.519 117.228C278.939 118.678 278.353 120.129 277.772 121.579C276.883 119.101 275.989 116.624 275.1 114.146C275.635 116.498 274.807 119.107 273.004 120.713C272.317 121.327 271.483 121.831 271.084 122.657C270.549 123.77 270.978 125.079 271.332 126.263C273.549 133.645 272.498 142.116 267.857 148.275C263.215 154.434 254.855 157.833 247.375 155.91C239.889 153.986 234.065 146.407 234.868 138.742C242.854 141.653 251.274 143.385 259.765 143.858C252.633 142.338 245.455 140.283 239.444 136.163C233.434 132.049 228.691 125.548 228.261 118.291L225.928 118.86Z" fill="#002E47"/>
</g>
</g>
<path d="M262.191 102.276C262.191 102.276 274.698 103.016 274.627 106.849C274.627 106.849 280.89 109.508 281.224 112.509C281.557 115.511 307.974 143.728 303.393 151.921C299.397 159.072 283.259 172.377 283.259 172.377C283.259 172.377 281.719 168.923 279.976 164.889C279.976 164.889 287.058 149.494 290.29 147.912L273.299 126.394" stroke="#002E47" stroke-width="0.75" stroke-miterlimit="10" stroke-linecap="round" stroke-linejoin="round"/>
<path d="M298.862 147.318C296.079 145.364 292.129 147.419 292.129 146.135C292.129 144.851 296.882 144.735 296.483 143.41" stroke="#002E47" stroke-width="0.75" stroke-miterlimit="10" stroke-linecap="round" stroke-linejoin="round"/>
<path d="M277.051 120.718C277.748 118.83 278.354 116.296 278.369 113.169" stroke="#002E47" stroke-width="0.75" stroke-miterlimit="10" stroke-linecap="round" stroke-linejoin="round"/>
<path d="M275.02 111.517C275.166 114.443 275.318 118.603 275.181 121.781C275.151 122.526 276.166 122.773 276.479 122.093" stroke="#002E47" stroke-width="0.75" stroke-miterlimit="10" stroke-linecap="round" stroke-linejoin="round"/>
<path d="M274.801 107.937C274.801 107.937 274.846 108.561 274.907 109.583" stroke="#002E47" stroke-width="0.75" stroke-miterlimit="10" stroke-linecap="round" stroke-linejoin="round"/>
<path d="M217.732 116.327C217.732 116.327 216.99 121.509 217.732 125.21" stroke="#002E47" stroke-width="0.75" stroke-miterlimit="10" stroke-linecap="round" stroke-linejoin="round"/>
<path d="M195.882 111.145L193.018 102.926C193.018 102.926 192.129 97.3006 191.386 96.1877C190.644 95.0798 188.714 93.5236 188.714 93.5236C188.714 93.5236 187.325 91.5999 186.35 90.784C185.375 89.9682 179.658 87.007 179.213 87.2286C178.769 87.4502 178.061 88.7848 181.774 90.8546C181.774 90.8546 179.733 90.7085 178.097 91.3733C176.465 92.038 175.349 92.2243 176.056 92.9294C176.763 93.6344 177.354 93.9668 179.991 93.2618C179.991 93.2618 181.845 93.4833 183.33 93.3726L184.148 94.3344C184.148 94.3344 182.885 93.7805 182.143 94.9639C181.4 96.1474 180.547 97.628 180.915 98.4791C180.915 98.4791 178.056 96.9985 177.279 98.2222C176.501 99.446 178.91 100.554 179.875 101.294C180.84 102.034 183.178 104.034 183.178 104.034C183.178 104.034 184.85 107.77 188.34 109.14C188.34 109.14 189.694 110.696 189.305 112.137L195.882 111.145Z" fill="white" stroke="#002E47" stroke-width="0.75" stroke-miterlimit="10" stroke-linecap="round" stroke-linejoin="round"/>
<path d="M183.586 91.8617L184.808 92.8589L186.182 95.2308L187.112 98.338" stroke="#002E47" stroke-width="0.75" stroke-miterlimit="10" stroke-linecap="round" stroke-linejoin="round"/>
<path d="M187.897 98.338C187.897 98.338 185.952 100.67 184.568 101.002C184.568 101.002 183.108 100.373 182.815 100.116C182.568 99.8992 182.194 99.4812 181.441 98.8819" stroke="#002E47" stroke-width="0.75" stroke-miterlimit="10" stroke-linecap="round" stroke-linejoin="round"/>
<path d="M185.737 98.1517L185.56 97.5222C185.56 97.5222 184.591 97.7438 183.808 97.5222L183.363 98.1517C183.363 98.1517 184.363 97.9704 185.737 98.1517Z" stroke="#002E47" stroke-width="0.75" stroke-miterlimit="10" stroke-linecap="round" stroke-linejoin="round"/>
<path d="M183.773 95.5229C183.773 95.5229 184.107 96.1423 184.031 97.1143" stroke="#002E47" stroke-width="0.75" stroke-miterlimit="10" stroke-linecap="round" stroke-linejoin="round"/>
<path d="M182.621 97.5222C182.621 97.5222 184.116 98.6704 183.909 100.705" stroke="#002E47" stroke-width="0.75" stroke-miterlimit="10" stroke-linecap="round" stroke-linejoin="round"/>
<path d="M184.926 94.9337L185.739 95.8201V96.8222" stroke="#002E47" stroke-width="0.75" stroke-miterlimit="10" stroke-linecap="round" stroke-linejoin="round"/>
<path d="M226.686 103.591C226.686 103.591 221.953 103.389 218.933 111.88C218.933 111.88 215.367 113.955 208.109 129.748C208.109 129.748 206.861 128.081 204.179 123.513C201.835 119.524 198.264 114.373 195.309 106.834C195.309 106.834 192.935 109.75 187.844 109.583C187.844 109.583 198.875 146.724 206.593 146.724C215.109 146.724 224.484 126.983 224.484 126.983" fill="#39B4EF"/>
<mask id="mask5_222_23369" style="mask-type:luminance" maskUnits="userSpaceOnUse" x="187" y="103" width="40" height="44">
<path d="M226.686 103.591C226.686 103.591 221.953 103.389 218.933 111.88C218.933 111.88 215.367 113.955 208.109 129.748C208.109 129.748 206.861 128.081 204.179 123.513C201.835 119.524 198.264 114.373 195.309 106.834C195.309 106.834 192.935 109.75 187.844 109.583C187.844 109.583 198.875 146.724 206.593 146.724C215.109 146.724 224.484 126.983 224.484 126.983" fill="white"/>
</mask>
<g mask="url(#mask5_222_23369)">
<g opacity="0.2">
<path d="M225.932 118.86C222.921 125.915 217.926 132.109 211.663 136.561C212.062 137.478 212.466 138.394 212.865 139.311C211.471 140.479 208.915 139.407 208.783 137.599C208.299 140.071 207.819 142.544 207.334 145.017C205.793 144.966 204.248 144.921 202.707 144.871C204.97 147.162 208.945 146.815 211.612 145.007C214.279 143.199 215.966 140.313 217.628 137.558C219.29 134.804 221.138 131.973 223.962 130.422C227.356 146.321 230.755 162.215 234.15 178.113C234.7 180.677 235.281 183.331 236.827 185.451C240.034 189.857 246.232 190.653 251.687 190.608C259.774 190.532 267.85 189.434 275.659 187.344C275.457 167.84 275.255 148.335 275.058 128.831C280.246 135.262 285.428 141.693 290.615 148.124C288.085 151.614 285.549 155.104 283.019 158.589C286.216 153.784 291.772 150.627 297.551 150.335C296.616 149.383 295.156 148.98 293.868 149.317C295.469 148.804 297.071 148.295 298.677 147.781C297.424 147.671 296.172 147.565 294.919 147.454C295.616 146.326 296.318 145.198 297.015 144.065C296.525 145.032 295.192 145.304 294.161 144.951C293.131 144.599 292.338 143.788 291.59 143.002C288.161 139.422 284.696 135.791 282.246 131.485C279.796 127.179 278.427 122.058 279.523 117.228C278.942 118.678 278.357 120.129 277.776 121.579C276.887 119.101 275.993 116.624 275.104 114.146C275.639 116.498 274.811 119.106 273.007 120.713C272.321 121.327 271.487 121.831 271.088 122.657C270.553 123.77 270.982 125.079 271.336 126.263C273.553 133.645 272.502 142.116 267.86 148.275C263.219 154.434 254.859 157.833 247.378 155.91C239.893 153.986 234.069 146.407 234.872 138.742C242.858 141.653 251.278 143.385 259.769 143.858C252.637 142.338 245.459 140.283 239.448 136.163C233.438 132.049 228.695 125.548 228.265 118.291L225.932 118.86Z" fill="#002E47"/>
</g>
</g>
<path d="M226.686 103.591C226.686 103.591 221.953 103.389 218.933 111.88C218.933 111.88 215.367 113.955 208.109 129.748C208.109 129.748 206.861 128.081 204.179 123.513C201.835 119.524 198.264 114.373 195.309 106.834C195.309 106.834 192.935 109.75 187.844 109.583C187.844 109.583 198.875 146.724 206.593 146.724C215.109 146.724 224.484 126.983 224.484 126.983" stroke="#002E47" stroke-width="0.75" stroke-miterlimit="10" stroke-linecap="round" stroke-linejoin="round"/>
<path d="M221.395 113.748C221.344 113.149 221.304 112.524 221.273 111.88" stroke="#002E47" stroke-width="0.75" stroke-miterlimit="10" stroke-linecap="round" stroke-linejoin="round"/>
<path d="M222.22 124.999C223.599 124.848 222.396 122.022 221.664 116.327" stroke="#002E47" stroke-width="0.75" stroke-miterlimit="10" stroke-linecap="round" stroke-linejoin="round"/>
<path d="M218.672 114.448C218.672 114.448 219.824 121.156 221.147 123.876" stroke="#002E47" stroke-width="0.75" stroke-miterlimit="10" stroke-linecap="round" stroke-linejoin="round"/>
<path d="M250.441 89.0516C250.441 89.0516 251.734 101.878 254.608 103.424C254.608 103.424 254.148 108.324 245.764 108.324C237.379 108.324 237.379 101.415 237.379 101.415L250.441 89.0516Z" fill="white"/>
<mask id="mask6_222_23369" style="mask-type:luminance" maskUnits="userSpaceOnUse" x="237" y="89" width="18" height="20">
<path d="M250.441 89.0516C250.441 89.0516 251.734 101.878 254.608 103.424C254.608 103.424 254.148 108.324 245.764 108.324C237.379 108.324 237.379 101.415 237.379 101.415L250.441 89.0516Z" fill="white"/>
</mask>
<g mask="url(#mask6_222_23369)">
<path d="M232.329 75.1774C232.329 75.1774 230.97 83.2552 231.193 84.9322C231.415 86.6092 231.001 88.3667 231.344 91.1063C231.688 93.8409 233.779 101.465 238.769 102.634C241.37 103.243 247.012 100.715 249.346 95.5279C249.503 95.1754 250.442 91.1919 250.442 91.1919C250.442 91.1919 252.755 92.7531 253.498 90.23C254.24 87.707 255.493 85.4005 253.887 83.8948C252.21 82.3235 250.109 85.6523 249.811 86.861C249.508 88.0696 248.326 86.6998 248.326 86.6998C248.326 86.6998 247.583 81.1451 245.846 79.6695C244.108 78.194 247.351 75.3386 245.704 73.4048C244.053 71.4659 236.723 71.899 232.329 75.1774Z" fill="#002E47" stroke="#002E47" stroke-width="0.75" stroke-miterlimit="10" stroke-linecap="round" stroke-linejoin="round"/>
</g>
<path d="M250.441 89.0516C250.441 89.0516 251.734 101.878 254.608 103.424C254.608 103.424 254.148 108.324 245.764 108.324C237.379 108.324 237.379 101.415 237.379 101.415L250.441 89.0516Z" stroke="#002E47" stroke-width="0.75" stroke-miterlimit="10" stroke-linecap="round" stroke-linejoin="round"/>
<path d="M230.39 75.3084C230.39 75.3084 222.763 74.5731 224.435 68.4343C226.107 62.2954 232.481 61.6306 232.481 61.6306C232.481 61.6306 231.193 66.0321 238.76 65.1659C246.321 64.2997 254.489 63.5644 254.822 71.1688C254.822 71.1688 257.767 78.4458 252.812 85.5164C247.862 92.5869 243.311 86.861 243.311 86.861L239.361 78.4408L232.082 76.9048L230.39 75.3084Z" fill="#002E47"/>
<mask id="mask7_222_23369" style="mask-type:luminance" maskUnits="userSpaceOnUse" x="224" y="61" width="32" height="29">
<path d="M230.39 75.3084C230.39 75.3084 222.763 74.5731 224.435 68.4343C226.107 62.2954 232.481 61.6306 232.481 61.6306C232.481 61.6306 231.193 66.0321 238.76 65.1659C246.321 64.2997 254.489 63.5644 254.822 71.1688C254.822 71.1688 257.767 78.4458 252.812 85.5164C247.862 92.5869 243.311 86.861 243.311 86.861L239.361 78.4408L232.082 76.9048L230.39 75.3084Z" fill="white"/>
</mask>
<g mask="url(#mask7_222_23369)">
<path d="M241.372 71.194C241.372 71.194 250.404 72.2364 254.818 71.1688C259.233 70.1012 260.44 82.0466 260.44 82.0466L259.369 89.3186L247.322 91.3884L241.766 86.4531L239.488 79.5789L241.372 71.194Z" fill="#E2EDFF" stroke="#002E47" stroke-width="0.75" stroke-miterlimit="10"/>
</g>
<path d="M230.39 75.3084C230.39 75.3084 222.763 74.5731 224.435 68.4343C226.107 62.2954 232.481 61.6306 232.481 61.6306C232.481 61.6306 231.193 66.0321 238.76 65.1659C246.321 64.2997 254.489 63.5644 254.822 71.1688C254.822 71.1688 257.767 78.4458 252.812 85.5164C247.862 92.5869 243.311 86.861 243.311 86.861L239.361 78.4408L232.082 76.9048L230.39 75.3084Z" stroke="#002E47" stroke-width="0.75" stroke-miterlimit="10"/>
<path d="M229.297 74.3163C229.297 74.3163 227.534 82.4495 227.761 84.1264C227.983 85.8034 227.463 87.5761 227.802 90.3157C228.14 93.0553 229.327 103.309 235.257 102.518C241.096 101.742 249.127 96.9783 249.844 92.2495C249.9 91.8668 250.248 90.7438 250.248 90.7438C250.248 90.7438 252.688 91.4992 253.612 88.9509C254.532 86.4078 256.037 84.066 254.203 82.5905C252.289 81.0494 249.769 84.4336 249.39 85.6524C249.011 86.8711 247.662 85.5214 247.662 85.5214C247.662 85.5214 246.92 79.9667 244.93 78.5264C242.934 77.0861 246.778 74.1552 244.899 72.2465C243.02 70.3379 234.479 70.9372 229.297 74.3163Z" fill="white" stroke="#002E47" stroke-width="0.75" stroke-miterlimit="10" stroke-linecap="round" stroke-linejoin="round"/>
<path d="M232.343 84.0005C232.343 85.4962 229.514 88.1099 229.848 89.4445C230.029 90.1797 231.939 90.5322 232.328 91.1769C232.479 91.4236 232.479 91.7912 232.479 91.7912" fill="white"/>
<path d="M232.343 84.0005C232.343 85.4962 229.514 88.1099 229.848 89.4445C230.029 90.1797 231.939 90.5322 232.328 91.1769C232.479 91.4236 232.479 91.7912 232.479 91.7912" stroke="#002E47" stroke-width="0.75" stroke-miterlimit="10" stroke-linecap="round" stroke-linejoin="round"/>
<path d="M229.638 84.8869C229.597 85.4711 229.33 85.9243 229.037 85.9042C228.749 85.884 228.547 85.3955 228.587 84.8113C228.628 84.2272 228.895 83.7739 229.188 83.7941C229.476 83.8142 229.678 84.3027 229.638 84.8869Z" fill="#002E47"/>
<path d="M236.231 83.93C236.186 84.5394 235.908 85.0128 235.605 84.9926C235.302 84.9725 235.09 84.4588 235.135 83.8494C235.181 83.2401 235.458 82.7667 235.761 82.7868C236.059 82.807 236.272 83.3207 236.231 83.93Z" fill="#002E47"/>
<path d="M233.246 81.2358C233.246 81.2358 235.767 79.2063 239.115 81.3667" stroke="#002E47" stroke-width="0.75" stroke-miterlimit="10" stroke-linecap="round" stroke-linejoin="round"/>
<path d="M240.422 93.0553C240.422 93.0553 234.856 97.9704 232.477 93.6948L240.422 93.0553Z" fill="white"/>
<path d="M240.422 93.0553C240.422 93.0553 234.856 97.9704 232.477 93.6948" stroke="#002E47" stroke-width="0.75" stroke-miterlimit="10" stroke-linecap="round" stroke-linejoin="round"/>
<path d="M226.5 82.661C226.5 82.661 228.177 80.3746 231.011 82.0617" stroke="#002E47" stroke-width="0.75" stroke-miterlimit="10" stroke-linecap="round" stroke-linejoin="round"/>
<path d="M231.149 73.2033C231.149 73.2033 222.916 73.7372 227.038 78.8638C227.043 78.8638 226.952 75.1724 231.149 73.2033Z" fill="#002E47"/>
<path d="M231.149 84.8516C231.149 86.2516 230.149 87.3898 228.916 87.3898C227.684 87.3898 226.684 86.2567 226.684 84.8516C226.684 83.4516 227.684 82.8523 228.916 82.8523C230.149 82.8473 231.149 83.4466 231.149 84.8516Z" stroke="#002E47" stroke-width="0.75" stroke-miterlimit="10" stroke-linecap="round" stroke-linejoin="round"/>
<path d="M238.983 83.8897C238.983 85.2897 237.735 86.4279 236.194 86.4279C234.654 86.4279 233.406 85.2948 233.406 83.8897C233.406 82.4847 234.654 81.8854 236.194 81.8854C237.73 81.8904 238.983 82.4897 238.983 83.8897Z" stroke="#002E47" stroke-width="0.75" stroke-miterlimit="10" stroke-linecap="round" stroke-linejoin="round"/>
<path d="M230.98 83.8898C230.98 83.2804 233.4 82.9682 233.4 83.5725" stroke="#002E47" stroke-width="0.75" stroke-miterlimit="10" stroke-linecap="round" stroke-linejoin="round"/>
<path d="M238.809 82.9027L250.446 83.8897" stroke="#002E47" stroke-width="0.75" stroke-miterlimit="10" stroke-linecap="round" stroke-linejoin="round"/>
<path d="M232.145 150.853C237.009 159.45 249.343 177.504 267.568 178.536" stroke="#002E47" stroke-width="0.75" stroke-miterlimit="10" stroke-linecap="round" stroke-linejoin="round"/>
<path d="M229.816 146.371C229.816 146.371 230.17 147.162 230.867 148.502" stroke="#002E47" stroke-width="0.75" stroke-miterlimit="10" stroke-linecap="round" stroke-linejoin="round"/>
<path d="M256.613 102.276C255.81 102.296 254.992 102.327 254.163 102.367C253.714 106.104 249.335 107.191 245.284 107.191C241.334 107.191 239.091 106.159 238.778 102.634C237.949 102.619 237.131 102.609 236.328 102.609C236.651 107.599 239.95 109.568 245.284 109.568C250.729 109.558 256.28 107.509 256.613 102.276Z" fill="#39B4EF" stroke="#002E47" stroke-miterlimit="10"/>
<path d="M207.709 139.276C207.709 139.276 207.482 133.056 208.376 132.759C209.265 132.462 209.265 136.163 211.644 136.017" stroke="#002E47" stroke-width="0.75" stroke-miterlimit="10" stroke-linecap="round" stroke-linejoin="round"/>
<path d="M178.592 97.6582L119.263 95.6337C118.03 95.5934 117.065 94.561 117.111 93.3322L117.273 88.6488C117.313 87.42 118.348 86.4581 119.581 86.5034L178.91 88.5279C180.143 88.5682 181.108 89.6006 181.062 90.8294L180.901 95.5128C180.855 96.7416 179.82 97.7035 178.592 97.6582Z" fill="white" stroke="#002E47" stroke-width="0.75" stroke-miterlimit="10" stroke-linecap="round" stroke-linejoin="round"/>
<path d="M114.081 89.6308H112.637" stroke="#002E47" stroke-width="0.75" stroke-miterlimit="10" stroke-linecap="round" stroke-linejoin="round"/>
<path d="M190.391 137.302L188.699 130.004L185.37 117.571L181.865 113.824L177.223 110.324C177.223 110.324 172.091 108.163 171.919 109.276C171.748 110.389 172.692 110.732 172.692 110.732C172.692 110.732 171.232 110.218 170.889 111.119C170.546 112.021 172.909 112.66 174.238 113.819C175.571 114.977 176.39 115.969 176.39 115.969C176.39 115.969 174.526 118.281 174.768 119.54L174.925 120.114C174.925 120.114 171.207 118.099 170.854 119.726C170.5 121.353 173.046 121.685 174.5 123.256C175.955 124.827 177.314 125.825 177.314 125.825C177.314 125.825 178.753 129.45 181.865 130.735L182.057 138.702C182.057 138.707 186.825 139.669 190.391 137.302Z" fill="white" stroke="#002E47" stroke-width="0.75" stroke-miterlimit="10" stroke-linecap="round" stroke-linejoin="round"/>
<path d="M173.078 111.16C173.078 111.16 175.417 112.746 176.568 113.214C176.568 113.214 178.74 115.491 179.523 116.301C180.301 117.112 181.372 119.222 181.372 119.222" fill="white"/>
<path d="M173.078 111.16C173.078 111.16 175.417 112.746 176.568 113.214C176.568 113.214 178.74 115.491 179.523 116.301C180.301 117.112 181.372 119.222 181.372 119.222" stroke="#002E47" stroke-width="0.75" stroke-miterlimit="10" stroke-linecap="round" stroke-linejoin="round"/>
<path d="M176.902 116.473C176.902 116.473 177.933 118.2 178.62 119.006C179.307 119.812 179.231 120.285 178.756 120.839" stroke="#002E47" stroke-width="0.75" stroke-miterlimit="10" stroke-linecap="round" stroke-linejoin="round"/>
<path d="M175.789 120.617C175.789 120.617 176.431 121.065 176.905 121.614C177.38 122.168 178.592 122.556 179.294 122.063C179.997 121.569 181.891 120.23 181.633 119.726" stroke="#002E47" stroke-width="0.75" stroke-miterlimit="10" stroke-linecap="round" stroke-linejoin="round"/>
<path d="M177.224 118.205C177.224 118.205 177.219 118.96 176.734 119.222C176.249 119.489 177.456 118.93 177.946 119.394" stroke="#002E47" stroke-width="0.75" stroke-miterlimit="10" stroke-linecap="round" stroke-linejoin="round"/>
<path d="M222.687 158.825C222.687 158.825 218.474 156.161 212.474 158.327C212.474 158.327 206.175 158.538 196.937 160.074C196.937 160.074 197.618 158.277 195.179 158.684C195.179 158.684 194.27 139.945 191.173 133.625C191.173 133.625 190.805 135.433 180.005 135.881C180.005 135.881 179.238 169.386 183.188 174.301C187.138 179.211 220.257 175.399 220.257 175.399C220.257 175.399 226.157 164.561 222.687 158.825Z" fill="#002E47"/>
<mask id="mask8_222_23369" style="mask-type:luminance" maskUnits="userSpaceOnUse" x="179" y="133" width="45" height="44">
<path d="M222.687 158.825C222.687 158.825 218.474 156.161 212.474 158.327C212.474 158.327 206.175 158.538 196.937 160.074C196.937 160.074 197.618 158.277 195.179 158.684C195.179 158.684 194.27 139.945 191.173 133.625C191.173 133.625 190.805 135.433 180.005 135.881C180.005 135.881 179.238 169.386 183.188 174.301C187.138 179.211 220.257 175.399 220.257 175.399C220.257 175.399 226.157 164.561 222.687 158.825Z" fill="white"/>
</mask>
<g mask="url(#mask8_222_23369)">
<path opacity="0.2" d="M179.941 167.613C179.941 167.613 184.82 175.157 193.245 174.296C201.671 173.435 220.844 165.548 221.536 172.654C222.223 179.765 213.071 178.426 213.071 178.426L190.685 181.865C190.685 181.865 188.336 185.909 181.184 179.765C174.031 173.621 174.031 173.621 174.031 173.621L179.941 167.613Z" fill="#002E47"/>
</g>
<path d="M222.687 158.825C222.687 158.825 218.474 156.161 212.474 158.327C212.474 158.327 206.175 158.538 196.937 160.074C196.937 160.074 197.618 158.277 195.179 158.684C195.179 158.684 194.27 139.945 191.173 133.625C191.173 133.625 190.805 135.433 180.005 135.881C180.005 135.881 179.238 169.386 183.188 174.301C187.138 179.211 220.257 175.399 220.257 175.399C220.257 175.399 226.157 164.561 222.687 158.825Z" stroke="#002E47" stroke-width="0.75" stroke-miterlimit="10" stroke-linecap="round" stroke-linejoin="round"/>
<path d="M187.695 165.518C187.695 165.518 194.282 158.533 195.403 160.069C196.525 161.605 193.62 161.746 191.918 168.449" stroke="#E2EDFF" stroke-width="0.75" stroke-linecap="round" stroke-linejoin="round"/>
<path d="M220.061 216.649C220.061 216.649 221.041 197.653 220.061 183.124C219.081 168.595 211.514 163.428 220.061 159.097C228.607 154.766 256.767 155.884 265.596 160.215C274.42 164.546 268.819 184.519 269.238 193.322C269.657 202.125 271.198 216.649 271.198 216.649H220.061Z" fill="#002E47"/>
<mask id="mask9_222_23369" style="mask-type:luminance" maskUnits="userSpaceOnUse" x="216" y="156" width="56" height="61">
<path d="M220.061 216.649C220.061 216.649 221.041 197.653 220.061 183.124C219.081 168.595 211.514 163.428 220.061 159.097C228.607 154.766 256.767 155.884 265.596 160.215C274.42 164.546 268.819 184.519 269.238 193.322C269.657 202.125 271.198 216.649 271.198 216.649H220.061Z" fill="white"/>
</mask>
<g mask="url(#mask9_222_23369)">
<path opacity="0.2" d="M241.588 187.546C241.588 187.546 235.734 183.497 232.526 188.523C229.319 193.549 246.694 218.628 249.685 218.754C252.675 218.88 266.994 218.754 266.994 218.754L274.707 201.803C274.707 201.803 271.353 166.173 265.004 165.518C258.655 164.864 254.357 178.516 253.422 186.498C252.488 194.48 253.357 197.698 253.357 197.698L241.588 187.546Z" fill="#002E47"/>
</g>
<path d="M220.061 216.649C220.061 216.649 221.041 197.653 220.061 183.124C219.081 168.595 211.514 163.428 220.061 159.097C228.607 154.766 256.767 155.884 265.596 160.215C274.42 164.546 268.819 184.519 269.238 193.322C269.657 202.125 271.198 216.649 271.198 216.649H220.061V216.649Z" stroke="#002E47" stroke-width="0.75" stroke-miterlimit="10" stroke-linecap="round" stroke-linejoin="round"/>
<path d="M237.429 198.675C237.429 199.214 236.989 199.652 236.449 199.652C235.908 199.652 235.469 199.214 235.469 198.675C235.469 198.136 235.908 197.698 236.449 197.698C236.989 197.698 237.429 198.136 237.429 198.675Z" fill="#E2EDFF"/>
<path d="M237.429 209.81C237.429 210.349 236.989 210.787 236.449 210.787C235.908 210.787 235.469 210.349 235.469 209.81C235.469 209.271 235.908 208.833 236.449 208.833C236.989 208.833 237.429 209.271 237.429 209.81Z" fill="#E2EDFF"/>
<path d="M238.037 174.296C239.729 174.296 240.931 177.741 242.537 177.715C244.143 177.69 248.215 166.556 249.993 163.428C251.766 160.301 250.962 156.448 248.295 155.738C245.628 155.028 229.995 155.738 229.995 155.738C229.995 155.738 228.041 158.533 229.536 161.882C231.031 165.236 231.592 176.225 233.738 176.597C235.89 176.975 235.89 174.296 238.037 174.296Z" fill="#E2EDFF" stroke="#002E47" stroke-miterlimit="10" stroke-linecap="round" stroke-linejoin="round"/>
<path d="M183.794 141.285C183.608 141.794 183.047 142.056 182.537 141.869C182.027 141.683 181.764 141.124 181.951 140.615C182.138 140.107 182.698 139.845 183.209 140.031C183.714 140.217 183.976 140.781 183.794 141.285Z" fill="#E2EDFF"/>
<path d="M183.794 145.651C183.608 146.16 183.047 146.422 182.537 146.235C182.027 146.049 181.764 145.49 181.951 144.981C182.138 144.473 182.698 144.211 183.209 144.397C183.714 144.584 183.976 145.143 183.794 145.651Z" fill="#E2EDFF"/>
<path d="M229.543 159.188C229.543 159.188 235.988 173.682 238.605 173.249C241.221 172.82 243.09 166.868 245.701 163.912C248.318 160.956 248.575 158.337 248.399 156.715L247.661 149.317L241.777 148.668L233.372 154.812L229.543 159.188Z" fill="white"/>
<mask id="mask10_222_23369" style="mask-type:luminance" maskUnits="userSpaceOnUse" x="229" y="148" width="20" height="26">
<path d="M229.543 159.188C229.543 159.188 235.988 173.682 238.605 173.249C241.221 172.82 243.09 166.868 245.701 163.912C248.318 160.956 248.575 158.337 248.399 156.715L247.661 149.317L241.777 148.668L233.372 154.812L229.543 159.188Z" fill="white"/>
</mask>
<g mask="url(#mask10_222_23369)">
<path d="M222.948 135.529C222.948 135.529 222.301 144.04 222.766 145.712C223.23 147.384 222.948 149.262 223.68 151.997C224.412 154.731 227.064 164.984 232.974 163.358C238.798 161.751 247.319 155.144 246.824 150.264L246.556 149.297C246.556 149.297 249.142 149.72 249.718 147.006C250.294 144.292 251.496 141.703 249.425 140.459C247.258 139.16 245.177 142.957 244.965 144.246C244.753 145.535 243.192 144.357 243.192 144.357C243.192 144.357 241.657 138.812 239.429 137.629C237.202 136.445 240.692 132.925 238.515 131.253C236.338 129.566 227.741 131.369 222.948 135.529Z" fill="#002E47" stroke="#002E47" stroke-width="0.75" stroke-miterlimit="10" stroke-linecap="round" stroke-linejoin="round"/>
</g>
<path d="M229.543 159.188C229.543 159.188 235.988 173.682 238.605 173.249C241.221 172.82 243.09 166.868 245.701 163.912C248.318 160.956 248.575 158.337 248.399 156.715L247.661 149.317L241.777 148.668L233.372 154.812L229.543 159.188Z" stroke="#002E47" stroke-width="0.75" stroke-miterlimit="10" stroke-linecap="round" stroke-linejoin="round"/>
<path d="M226.61 130.599C226.61 130.599 223.655 138.792 223.655 140.565C223.655 142.338 222.867 144.105 222.842 146.991C222.817 149.876 222.63 160.679 228.888 160.679C235.055 160.679 245.233 156.489 246.077 151.553V150.531C246.077 150.531 248.506 151.649 249.814 149.136C251.123 146.623 253.007 144.402 251.31 142.62C249.537 140.756 246.45 143.924 245.89 145.133C245.329 146.341 244.117 144.76 244.117 144.76C244.117 144.76 244.117 138.893 242.248 137.125C240.379 135.358 244.768 132.84 243.086 130.609C241.399 128.363 232.459 127.804 226.61 130.599Z" fill="white" stroke="#002E47" stroke-width="0.75" stroke-miterlimit="10" stroke-linecap="round" stroke-linejoin="round"/>
<path d="M249.903 144.694C249.903 144.694 253.454 139.729 251.024 133.862C251.024 133.862 249.064 123.991 237.013 122.964C237.013 122.964 240.094 120.637 238.134 119.706C235.164 118.296 229.941 123.06 229.941 123.06C229.941 123.06 232.391 119.368 231.199 119.303C230.007 119.237 221.627 128.65 226.612 131.999C231.598 135.348 238.993 132.462 238.993 132.462L242.619 144.694L243.18 146.246L248.443 146.618L249.903 144.694Z" fill="#002E47" stroke="#002E47" stroke-width="0.75" stroke-miterlimit="10" stroke-linecap="round" stroke-linejoin="round"/>
<path d="M243.105 126.968C246.475 128.917 248.636 132.467 247.757 140.283" stroke="#E2EDFF" stroke-width="0.75" stroke-linecap="round" stroke-linejoin="round"/>
<path d="M233.188 126.258C235.38 126.041 238.622 124.973 241.587 126.222" stroke="#E2EDFF" stroke-width="0.75" stroke-linecap="round" stroke-linejoin="round"/>
<path d="M236.261 121.101C236.261 121.101 229.548 124.359 231.084 125.85" stroke="#E2EDFF" stroke-width="0.75" stroke-linecap="round" stroke-linejoin="round"/>
<path d="M227.156 127.154C228.697 128.363 230.566 127.063 233.834 127.154" stroke="#E2EDFF" stroke-width="0.75" stroke-linecap="round" stroke-linejoin="round"/>
<path d="M229.072 122.123C229.072 122.123 227.42 123.951 226.91 125.477" stroke="#E2EDFF" stroke-width="0.75" stroke-linecap="round" stroke-linejoin="round"/>
<path d="M226.61 130.599C226.61 130.599 223.655 138.792 223.655 140.565C223.655 142.338 222.867 144.105 222.842 146.991C222.817 149.876 222.63 160.679 228.888 160.679C235.055 160.679 245.233 156.489 246.077 151.553V150.531C246.077 150.531 248.506 151.649 249.814 149.136C251.123 146.623 253.007 144.402 251.31 142.62C249.537 140.756 246.45 143.924 245.89 145.133C245.329 146.341 244.117 144.76 244.117 144.76C244.117 144.76 244.117 138.893 242.248 137.125C240.379 135.358 244.768 132.84 243.086 130.609C241.399 128.363 232.459 127.804 226.61 130.599Z" fill="white" stroke="#002E47" stroke-width="0.75" stroke-miterlimit="10" stroke-linecap="round" stroke-linejoin="round"/>
<path d="M229.543 141.215C229.543 141.215 226.113 144.533 226.275 145.963C226.366 146.749 228.29 147.384 228.609 148.104C228.73 148.381 228.609 149.312 228.609 149.312" fill="white"/>
<path d="M229.543 141.215C229.543 141.215 226.113 144.533 226.275 145.963C226.366 146.749 228.29 147.384 228.609 148.104C228.73 148.381 228.609 149.312 228.609 149.312" stroke="#002E47" stroke-width="0.75" stroke-miterlimit="10" stroke-linecap="round" stroke-linejoin="round"/>
<path d="M227.004 141.476C226.787 142.136 226.252 142.554 225.812 142.408C225.373 142.262 225.196 141.612 225.413 140.953C225.63 140.293 226.166 139.875 226.605 140.021C227.045 140.167 227.221 140.817 227.004 141.476Z" fill="#002E47"/>
<path d="M235.469 141.476C235.252 142.136 234.716 142.554 234.277 142.408C233.838 142.262 233.661 141.612 233.878 140.953C234.095 140.293 234.631 139.875 235.07 140.021C235.509 140.167 235.691 140.817 235.469 141.476Z" fill="#002E47"/>
<path d="M232.527 138.692C232.527 138.692 235.422 136.934 238.599 139.633L232.527 138.692Z" fill="white"/>
<path d="M232.527 138.692C232.527 138.692 235.422 136.934 238.599 139.633" stroke="#002E47" stroke-width="0.75" stroke-miterlimit="10" stroke-linecap="round" stroke-linejoin="round"/>
<path d="M226.613 150.063C226.613 150.063 231.134 151.644 235.569 150.526C235.564 150.526 228.629 155.184 226.613 150.063Z" fill="white" stroke="#002E47" stroke-width="0.75" stroke-miterlimit="10" stroke-linecap="round" stroke-linejoin="round"/>
<path d="M224.777 139.165C224.777 139.165 226.833 137.025 229.54 139.165H224.777Z" fill="white"/>
<path d="M224.777 139.165C224.777 139.165 226.833 137.025 229.54 139.165" stroke="#002E47" stroke-width="0.75" stroke-miterlimit="10" stroke-linecap="round" stroke-linejoin="round"/>
<path d="M242.559 161.479C241.691 164.048 240.377 167.507 238.988 169.648L242.559 161.479Z" fill="white"/>
<path d="M242.559 161.479C241.691 164.048 240.377 167.507 238.988 169.648" stroke="#002E47" stroke-width="0.75" stroke-miterlimit="10" stroke-linecap="round" stroke-linejoin="round"/>
<path d="M243.615 158.115C243.615 158.115 243.418 158.815 243.074 159.898L243.615 158.115Z" fill="white"/>
<path d="M243.615 158.115C243.615 158.115 243.418 158.815 243.074 159.898" stroke="#002E47" stroke-width="0.75" stroke-miterlimit="10" stroke-linecap="round" stroke-linejoin="round"/>
<path d="M241.02 180.103L238.1 176.587C238.1 176.587 234.574 171.446 233.201 167.422C231.827 163.393 231.655 161.253 229.503 161.253C227.351 161.253 219.795 160.739 220.053 163.307C220.053 163.307 219.436 164.848 220.048 166.218C220.048 166.218 220.224 168.016 221.255 169.472C222.285 170.927 222.886 170.65 222.886 170.65C222.886 170.65 223.573 171.783 224.26 171.783C224.26 171.783 224.861 174.865 229.503 177.524L232.766 181.039L236.206 187.38L242.626 182.283L241.02 180.103Z" fill="white" stroke="#002E47" stroke-width="0.75" stroke-miterlimit="10" stroke-linecap="round" stroke-linejoin="round"/>
<path d="M230.361 164.743C230.361 164.743 229.073 165.322 227.977 165.579C226.881 165.836 223.143 166.415 222.885 167.507C222.628 168.6 224.108 171.365 224.885 171.491C225.658 171.622 228.431 171.491 228.558 170.912C228.558 170.912 228.689 171.682 228.558 172.453C228.426 173.223 227.85 174.447 228.815 176.436" fill="white"/>
<path d="M230.361 164.743C230.361 164.743 229.073 165.322 227.977 165.579C226.881 165.836 223.143 166.415 222.885 167.507C222.628 168.6 224.108 171.365 224.885 171.491C225.658 171.622 228.431 171.491 228.558 170.912C228.558 170.912 228.689 171.682 228.558 172.453C228.426 173.223 227.85 174.447 228.815 176.436" stroke="#002E47" stroke-width="0.75" stroke-miterlimit="10" stroke-linecap="round" stroke-linejoin="round"/>
<path d="M220.043 166.223C220.043 166.223 220.563 165.387 221.533 165.196C222.498 165.005 226.367 164.038 226.978 163.589" fill="white"/>
<path d="M220.043 166.223C220.043 166.223 220.563 165.387 221.533 165.196C222.498 165.005 226.367 164.038 226.978 163.589" stroke="#002E47" stroke-width="0.75" stroke-miterlimit="10" stroke-linecap="round" stroke-linejoin="round"/>
<path d="M220.051 163.307C220.051 163.307 220.758 162.945 221.531 162.814C222.304 162.683 226.269 161.56 227.607 161.706" fill="white"/>
<path d="M220.051 163.307C220.051 163.307 220.758 162.945 221.531 162.814C222.304 162.683 226.269 161.56 227.607 161.706" stroke="#002E47" stroke-width="0.75" stroke-miterlimit="10" stroke-linecap="round" stroke-linejoin="round"/>
<path d="M228.042 170C228.042 170 227.107 169.26 226.607 169.477C226.107 169.693 225.936 170.247 225.289 170.59" fill="white"/>
<path d="M228.042 170C228.042 170 227.107 169.26 226.607 169.477C226.107 169.693 225.936 170.247 225.289 170.59" stroke="#002E47" stroke-width="0.75" stroke-miterlimit="10" stroke-linecap="round" stroke-linejoin="round"/>
<path d="M226.609 169.477C226.609 169.477 228.13 169.049 228.817 168.364L226.609 169.477Z" fill="white"/>
<path d="M226.609 169.477C226.609 169.477 228.13 169.049 228.817 168.364" stroke="#002E47" stroke-width="0.75" stroke-miterlimit="10" stroke-linecap="round" stroke-linejoin="round"/>
<path d="M267.415 161.051C262.612 158.428 256.065 168.036 255.924 179.629C255.783 191.222 255.646 193.317 255.646 193.317L241.215 177.811C241.215 177.811 240.235 181.86 233.371 185.073C233.371 185.073 236.452 194.153 242.337 202.951C248.221 211.749 253.964 219.575 257.606 219.575C261.248 219.575 268.021 211.049 270.496 199.879C275.825 175.857 277.391 166.5 267.415 161.051Z" fill="#002E47" stroke="#002E47" stroke-width="0.75" stroke-miterlimit="10" stroke-linecap="round" stroke-linejoin="round"/>
<path d="M258.329 195.367C258.067 195.15 258.294 194.727 258.622 194.838C260.749 195.558 264.568 197.502 267.002 202.543" stroke="#E2EDFF" stroke-width="0.75" stroke-linecap="round" stroke-linejoin="round"/>
<path d="M263.776 204.492C263.776 204.492 262.922 200.045 259.578 196.525" stroke="#E2EDFF" stroke-width="0.75" stroke-linecap="round" stroke-linejoin="round"/>
<path d="M268.359 195.764C268.723 196.117 269.087 196.5 269.45 196.928" stroke="#E2EDFF" stroke-width="0.75" stroke-linecap="round" stroke-linejoin="round"/>
<path d="M258.215 192.899C258.215 192.899 262.513 191.071 267.271 194.818" stroke="#E2EDFF" stroke-width="0.75" stroke-linecap="round" stroke-linejoin="round"/>
<path d="M256.952 180.752C256.816 181.467 256.705 182.213 256.629 182.978" stroke="#E2EDFF" stroke-width="0.75" stroke-linecap="round" stroke-linejoin="round"/>
<path d="M263.834 167.613C263.834 167.613 259.627 171.395 257.586 178.179" stroke="#E2EDFF" stroke-width="0.75" stroke-linecap="round" stroke-linejoin="round"/>
<path d="M238.413 188.523C238.413 189.062 237.973 189.5 237.433 189.5C236.893 189.5 236.453 189.062 236.453 188.523C236.453 187.984 236.893 187.546 237.433 187.546C237.973 187.546 238.413 187.984 238.413 188.523Z" fill="#E2EDFF"/>
<path d="M240.378 192.456C240.378 192.995 239.938 193.433 239.398 193.433C238.857 193.433 238.418 192.995 238.418 192.456C238.418 191.917 238.857 191.479 239.398 191.479C239.938 191.474 240.378 191.912 240.378 192.456Z" fill="#E2EDFF"/>
<path d="M253.358 190.859L241.215 177.811" stroke="#E2EDFF" stroke-width="0.75" stroke-linecap="round" stroke-linejoin="round"/>
<path d="M260.978 163.534C258.205 166.938 256.003 172.951 255.922 179.629C255.781 191.222 255.645 193.317 255.645 193.317" stroke="#E2EDFF" stroke-width="0.75" stroke-linecap="round" stroke-linejoin="round"/>
<path d="M264.135 160.961C263.483 161.238 262.832 161.671 262.195 162.245" stroke="#E2EDFF" stroke-width="0.75" stroke-linecap="round" stroke-linejoin="round"/>
<path d="M263.102 215.747C265.511 212.852 267.951 208.506 269.557 203.389" stroke="#E2EDFF" stroke-width="0.75" stroke-linecap="round" stroke-linejoin="round"/>
<path d="M233.371 185.078C233.371 185.078 236.452 194.158 242.337 202.956C245.741 208.047 249.1 212.811 252.03 215.924" stroke="#E2EDFF" stroke-width="0.75" stroke-linecap="round" stroke-linejoin="round"/>
<path d="M240.921 217.112H218.277V219.162H240.734C241.204 219.162 241.583 218.784 241.583 218.316V217.777C241.588 217.409 241.29 217.112 240.921 217.112Z" fill="#CBF2D6" stroke="#002E47" stroke-miterlimit="10" stroke-linecap="round" stroke-linejoin="round"/>
<path d="M207.371 183.21H210.215C211.109 183.21 211.897 183.799 212.149 184.655L221.458 216.588C221.832 217.873 220.867 219.157 219.524 219.157H217.059L207.371 183.21Z" fill="#002E47" stroke="#002E47" stroke-width="0.75" stroke-miterlimit="10" stroke-linecap="round" stroke-linejoin="round"/>
<path d="M177.262 219.157H218.544C219.883 219.157 220.852 217.873 220.479 216.588L211.17 184.655C210.922 183.799 210.134 183.21 209.235 183.21H167.953C166.614 183.21 165.645 184.494 166.018 185.778L175.327 217.711C175.58 218.568 176.368 219.157 177.262 219.157Z" fill="#39B4EF" stroke="#002E47" stroke-width="0.75" stroke-miterlimit="10" stroke-linecap="round" stroke-linejoin="round"/>
<path d="M171.828 119.56H112.463C111.231 119.56 110.23 118.563 110.23 117.334V112.645C110.23 111.417 111.231 110.419 112.463 110.419H171.828C173.06 110.419 174.061 111.417 174.061 112.645V117.339C174.061 118.568 173.06 119.56 171.828 119.56Z" fill="#39B4EF"/>
<mask id="mask11_222_23369" style="mask-type:luminance" maskUnits="userSpaceOnUse" x="110" y="110" width="65" height="10">
<path d="M171.828 119.56H112.463C111.231 119.56 110.23 118.563 110.23 117.334V112.645C110.23 111.417 111.231 110.419 112.463 110.419H171.828C173.06 110.419 174.061 111.417 174.061 112.645V117.339C174.061 118.568 173.06 119.56 171.828 119.56Z" fill="white"/>
</mask>
<g mask="url(#mask11_222_23369)">
<path opacity="0.5" d="M171.828 119.56H112.463C111.231 119.56 110.23 118.563 110.23 117.334V112.645C110.23 111.417 111.231 110.419 112.463 110.419H171.828C173.06 110.419 174.061 111.417 174.061 112.645V117.339C174.061 118.568 173.06 119.56 171.828 119.56Z" fill="white"/>
</g>
<path d="M171.828 119.56H112.463C111.231 119.56 110.23 118.563 110.23 117.334V112.645C110.23 111.417 111.231 110.419 112.463 110.419H171.828C173.06 110.419 174.061 111.417 174.061 112.645V117.339C174.061 118.568 173.06 119.56 171.828 119.56Z" stroke="#002E47" stroke-width="0.75" stroke-miterlimit="10" stroke-linecap="round" stroke-linejoin="round"/>
<path d="M169.13 76.8444L110.442 85.748C109.225 85.9344 108.088 85.0984 107.901 83.8847L107.194 79.2516C107.007 78.0379 107.846 76.9048 109.063 76.7185L167.751 67.8148C168.968 67.6285 170.105 68.4645 170.292 69.6782L170.999 74.3113C171.186 75.5249 170.347 76.658 169.13 76.8444Z" fill="#39B4EF" stroke="#002E47" stroke-width="0.75" stroke-miterlimit="10" stroke-linecap="round" stroke-linejoin="round"/>
<path d="M22.4681 109.83C22.4681 109.83 17.2858 112.383 16.1089 117.52C16.1089 117.52 14.639 116.055 14.048 122.36C14.048 122.36 0.955723 146.563 0.809242 156.972C0.662762 167.387 25.3775 184.252 25.3775 184.252C25.3775 184.252 28.0243 180.732 27.4384 177.504C27.4384 177.504 17.8767 159.465 13.0227 157.264C13.0227 157.264 18.4677 144.065 22.1449 141.572C25.817 139.079 22.4681 109.83 22.4681 109.83Z" fill="#002E47"/>
<mask id="mask12_222_23369" style="mask-type:luminance" maskUnits="userSpaceOnUse" x="0" y="109" width="28" height="76">
<path d="M22.4681 109.83C22.4681 109.83 17.2858 112.383 16.1089 117.52C16.1089 117.52 14.639 116.055 14.048 122.36C14.048 122.36 0.955723 146.563 0.809242 156.972C0.662762 167.387 25.3775 184.252 25.3775 184.252C25.3775 184.252 28.0243 180.732 27.4384 177.504C27.4384 177.504 17.8767 159.465 13.0227 157.264C13.0227 157.264 18.4677 144.065 22.1449 141.572C25.817 139.079 22.4681 109.83 22.4681 109.83Z" fill="white"/>
</mask>
<g mask="url(#mask12_222_23369)">
<path opacity="0.2" d="M21.946 146.094C21.946 146.094 16.1878 129.591 14.1623 133.243C12.1368 136.894 6.90396 155.618 9.89418 158.362C12.8844 161.107 8.0253 161.258 10.268 164.909C12.5106 168.555 27.0829 182.213 28.573 181.81C30.0681 181.407 23.1633 158.362 23.1633 158.362L21.946 146.094Z" fill="#002E47"/>
</g>
<path d="M22.4681 109.83C22.4681 109.83 17.2858 112.383 16.1089 117.52C16.1089 117.52 14.639 116.055 14.048 122.36C14.048 122.36 0.955723 146.563 0.809242 156.972C0.662762 167.387 25.3775 184.252 25.3775 184.252C25.3775 184.252 28.0243 180.732 27.4384 177.504C27.4384 177.504 17.8767 159.465 13.0227 157.264C13.0227 157.264 18.4677 144.065 22.1449 141.572C25.817 139.079 22.4681 109.83 22.4681 109.83Z" stroke="#002E47" stroke-width="0.75" stroke-miterlimit="10" stroke-linecap="round" stroke-linejoin="round"/>
<path d="M15.6602 123.327C15.6602 123.327 16.1501 130.891 17.9079 135.191" stroke="#E2EDFF" stroke-width="0.75" stroke-linecap="round" stroke-linejoin="round"/>
<path d="M12.0464 158.755C12.0464 158.755 9.28849 161.706 5.46484 161.303" stroke="#E2EDFF" stroke-width="0.75" stroke-linecap="round" stroke-linejoin="round"/>
<path d="M22.8828 172.085L23.1657 181.024" stroke="#E2EDFF" stroke-width="0.75" stroke-linecap="round" stroke-linejoin="round"/>
<path d="M67.0078 187.772C67.0078 187.772 73.1852 207.091 74.3621 216.644H24.0486C24.0486 216.644 23.6041 193.977 25.5185 186.745L67.0078 187.772Z" fill="#39B4EF" stroke="#002E47" stroke-width="0.75" stroke-miterlimit="10" stroke-linecap="round" stroke-linejoin="round"/>
<path d="M45.8477 211.532C46.9791 212.56 49.1813 216.644 49.1813 216.644" stroke="#002E47" stroke-width="0.75" stroke-miterlimit="10" stroke-linecap="round" stroke-linejoin="round"/>
<path d="M35.2305 198.479C35.2305 198.479 39.2006 204.673 43.7819 209.498" stroke="#002E47" stroke-width="0.75" stroke-miterlimit="10" stroke-linecap="round" stroke-linejoin="round"/>
<path d="M48.9099 71.6069C48.9099 71.6069 52.7335 68.1824 51.8496 66.0321C50.6979 63.227 47.733 67.4019 47.733 67.4019C47.733 67.4019 48.9099 63.1011 46.3944 62.0234C43.7022 60.8702 41.4545 65.9364 41.4545 65.9364C41.4545 65.9364 40.7575 61.5903 36.9439 62.5119C33.7062 63.2925 36.353 66.9134 33.7062 68.0868C31.0595 69.2601 22.3313 72.2918 23.9981 78.1588C23.9981 78.1588 21.6443 73.5609 20.7604 75.4192C19.8765 77.2775 22.9172 79.8206 24.0941 80.1127C24.0941 80.1127 22.2302 84.0257 23.7001 85.0984C25.1699 86.1761 24.877 82.2631 24.877 82.2631C24.877 82.2631 25.8367 93.0401 36.2519 98.6905C46.6672 104.341 46.3894 85.5869 46.3894 85.5869L49.0008 77.1767L48.9099 71.6069Z" fill="#002E47" stroke="#002E47" stroke-width="0.75" stroke-miterlimit="10" stroke-linecap="round" stroke-linejoin="round"/>
<path d="M35.6419 70.8263C31.2576 72.1961 24.6609 73.858 27.5198 82.5602" stroke="#E2EDFF" stroke-width="0.75" stroke-linecap="round" stroke-linejoin="round"/>
<path d="M37.5367 64.2745C37.5367 64.2745 39.1732 67.6738 37.4609 69.6932" stroke="#E2EDFF" stroke-width="0.75" stroke-linecap="round" stroke-linejoin="round"/>
<path d="M32.5312 87.9387C32.7636 88.4927 33.0263 89.0668 33.3192 89.666" stroke="#E2EDFF" stroke-width="0.75" stroke-linecap="round" stroke-linejoin="round"/>
<path d="M44.1714 67.8047C43.439 68.9882 42.2621 70.212 40.378 71.1184C35.8422 73.294 28.6748 75.7969 31.6852 85.6272" stroke="#E2EDFF" stroke-width="0.75" stroke-linecap="round" stroke-linejoin="round"/>
<path d="M45.3791 63.8817C45.3791 63.8817 45.3943 64.7076 45.0508 65.8508" stroke="#E2EDFF" stroke-width="0.75" stroke-linecap="round" stroke-linejoin="round"/>
<path d="M37.4909 75.812C35.1624 77.5897 38.5264 79.9566 39.8902 82.948" stroke="#E2EDFF" stroke-width="0.75" stroke-linecap="round" stroke-linejoin="round"/>
<path d="M50.4827 67.0141C50.4827 67.0141 46.1691 72.881 39.8906 74.7393" stroke="#E2EDFF" stroke-width="0.75" stroke-linecap="round" stroke-linejoin="round"/>
<path d="M24.4957 188.064C24.4957 188.064 24.2027 177.504 22.7328 161.077C21.263 144.649 13.0247 111.794 24.4957 108.863C35.9716 105.927 58.863 104.084 66.5709 111.502C75.1021 119.716 68.6317 165.478 68.3387 173.4C68.0458 181.321 69.5156 190.411 69.5156 190.411C69.5156 190.411 39.0578 197.013 24.4957 188.064Z" fill="#002E47"/>
<mask id="mask13_222_23369" style="mask-type:luminance" maskUnits="userSpaceOnUse" x="18" y="106" width="53" height="87">
<path d="M24.4957 188.064C24.4957 188.064 24.2027 177.504 22.7328 161.077C21.263 144.649 13.0247 111.794 24.4957 108.863C35.9716 105.927 58.863 104.084 66.5709 111.502C75.1021 119.716 68.6317 165.478 68.3387 173.4C68.0458 181.321 69.5156 190.411 69.5156 190.411C69.5156 190.411 39.0578 197.013 24.4957 188.064Z" fill="white"/>
</mask>
<g mask="url(#mask13_222_23369)">
<path opacity="0.2" d="M20.2228 156.146C20.2228 156.146 15.8082 127.522 30.9715 125.88C46.1347 124.233 66.1166 124.928 68.2179 137.553C70.3191 150.184 74.9509 180.41 74.9509 180.41L78.0876 194.072L53.489 198.726L20.6067 195.211L20.2228 156.146Z" fill="#002E47"/>
</g>
<path d="M24.4957 188.064C24.4957 188.064 24.2027 177.504 22.7328 161.077C21.263 144.649 13.0247 111.794 24.4957 108.863C35.9716 105.927 58.863 104.084 66.5709 111.502C75.1021 119.716 68.6317 165.478 68.3387 173.4C68.0458 181.321 69.5156 190.411 69.5156 190.411C69.5156 190.411 39.0578 197.013 24.4957 188.064Z" stroke="#002E47" stroke-width="0.75" stroke-miterlimit="10" stroke-linecap="round" stroke-linejoin="round"/>
<path d="M48.4198 104.462V101.138C48.4198 101.138 54.1173 102.019 54.8952 100.549C55.6731 99.0834 54.4002 93.02 54.4002 93.02C54.4002 93.02 57.148 93.1157 57.148 91.8466C57.148 90.5775 53.9103 85.1991 53.9103 85.1991C53.9103 85.1991 54.3042 80.8983 53.9103 79.5286C53.5163 78.1588 49.4956 70.4335 49.4956 70.4335C49.4956 70.4335 43.6112 73.6566 43.8082 75.4192C44.0052 77.1818 45.672 78.8437 44.2981 80.3091C42.9242 81.7746 41.0604 85.7329 41.6514 87.6164L40.7674 88.2308C40.7674 88.2308 40.2775 84.7106 38.3177 84.1264C36.3579 83.5422 34.787 87.4502 36.1609 90.1898C37.5348 92.9294 39.1006 92.4409 39.1006 92.4409C39.1006 92.4409 38.3177 97.1344 36.2569 98.7006L35.6406 103.591L48.4198 104.462Z" fill="white" stroke="#002E47" stroke-width="0.75" stroke-miterlimit="10" stroke-linecap="round" stroke-linejoin="round"/>
<path d="M52.1989 85.2948C52.5504 85.2948 52.8354 84.7694 52.8354 84.1214C52.8354 83.4733 52.5504 82.948 52.1989 82.948C51.8474 82.948 51.5625 83.4733 51.5625 84.1214C51.5625 84.7694 51.8474 85.2948 52.1989 85.2948Z" fill="#002E47"/>
<path d="M47.8359 92.1437C47.8359 92.1437 48.2956 93.4128 51.9879 93.6092" stroke="#002E47" stroke-width="0.75" stroke-miterlimit="10" stroke-linecap="round" stroke-linejoin="round"/>
<path d="M52.1973 80.8027C52.1973 80.8027 50.1869 80.5055 49.5 82.5552" stroke="#002E47" stroke-width="0.75" stroke-miterlimit="10" stroke-linecap="round" stroke-linejoin="round"/>
<path d="M31.7482 109.085C31.7482 109.085 27.8235 103.782 31.7482 103.193C35.6729 102.609 51.7554 101.239 54.3062 103.193C56.8569 105.147 50.3815 104.563 49.9926 107.886C49.5986 111.21 31.7482 109.085 31.7482 109.085Z" fill="#002E47" stroke="#002E47" stroke-width="0.75" stroke-miterlimit="10" stroke-linecap="round" stroke-linejoin="round"/>
<path d="M55.9571 85.0883C55.9571 86.9718 55.4065 88.5027 54.7246 88.5027C54.0428 88.5027 53.4922 86.9718 53.4922 85.0883C53.4922 83.2048 54.0428 81.6739 54.7246 81.6739C55.4065 81.6739 55.9571 83.2048 55.9571 85.0883Z" stroke="#002E47" stroke-width="0.75" stroke-miterlimit="10" stroke-linecap="round" stroke-linejoin="round"/>
<path d="M55.6831 82.948L42.1261 83.9351C41.1512 84.0056 40.2319 84.3681 39.4844 84.9523" stroke="#002E47" stroke-miterlimit="10" stroke-linecap="round" stroke-linejoin="round"/>
<path d="M96.5898 95.9308L99.7922 88.82C99.7922 88.82 101.661 81.1098 103.141 79.4278C104.621 77.7458 107.025 74.7191 107.788 75.5602C108.344 76.1645 107.652 78.2292 106.434 79.8156C105.111 81.5379 106.187 83.1545 106.672 83.8343C107.157 84.5142 110.036 85.9394 112.294 86.2314C114.546 86.5235 119.042 83.6832 120.582 84.6804C122.123 85.6775 118.976 86.7753 118.976 86.7753C118.976 86.7753 121.406 86.453 121.916 87.8128C122.219 88.6185 119.719 88.6034 118.506 88.7243C117.289 88.8502 114.814 89.2077 114.814 89.2077C114.814 89.2077 119.254 89.7718 119.193 90.9804C119.138 92.189 115.87 91.0559 113.38 91.1516C113.38 91.1516 116.946 92.0682 116.744 93.2315C116.547 94.3948 114.662 93.1711 111.672 92.6574L104.767 91.7862L102.59 99.8135L96.5898 95.9308Z" fill="white" stroke="#002E47" stroke-width="0.75" stroke-miterlimit="10" stroke-linecap="round" stroke-linejoin="round"/>
<path d="M117.172 87.1933C117.172 87.1933 115.076 88.6236 111.984 87.853C111.984 87.853 112.277 88.8048 111.984 89.2077C111.691 89.6106 111.727 90.4164 110.989 90.93C110.252 91.4437 109.812 91.6653 109.812 91.6653" stroke="#002E47" stroke-width="0.75" stroke-miterlimit="10" stroke-linecap="round" stroke-linejoin="round"/>
<path d="M55.957 107.055C55.957 107.055 66.8218 107.101 70.9586 110.475C70.9586 110.475 70.9788 108.717 74.2166 110.475C74.2166 110.475 84.0712 109.301 88.6322 110.475C88.6322 110.475 94.2238 96.6862 97.608 93.02C97.608 93.02 102.462 93.3121 103.785 95.5128C104.417 96.5603 102.927 102.311 101.543 108.168C100.012 114.635 98.4767 121.232 97.1685 121.771C94.6682 122.798 68.3371 125.145 68.3371 125.145L55.9621 118.694V107.055H55.957Z" fill="#002E47"/>
<mask id="mask14_222_23369" style="mask-type:luminance" maskUnits="userSpaceOnUse" x="55" y="93" width="49" height="33">
<path d="M55.957 107.055C55.957 107.055 66.8218 107.101 70.9586 110.475C70.9586 110.475 70.9788 108.717 74.2166 110.475C74.2166 110.475 84.0712 109.301 88.6322 110.475C88.6322 110.475 94.2238 96.6862 97.608 93.02C97.608 93.02 102.462 93.3121 103.785 95.5128C104.417 96.5603 102.927 102.311 101.543 108.168C100.012 114.635 98.4767 121.232 97.1685 121.771C94.6682 122.798 68.3371 125.145 68.3371 125.145L55.9621 118.694V107.055H55.957Z" fill="white"/>
</mask>
<g mask="url(#mask14_222_23369)">
<path opacity="0.2" d="M70.9599 126.328C70.9599 126.328 68.5001 117.56 72.45 118.381C76.3999 119.202 92.0884 120.804 94.9827 118.326C97.882 115.848 99.7256 94.8329 103.473 95.8401C107.221 96.8473 104.62 115.234 104.62 115.234C104.62 115.234 106.964 120.32 99.6196 124.228C92.2753 128.141 92.2753 128.141 92.2753 128.141L79.2941 129.259L70.9599 126.328Z" fill="#002E47"/>
</g>
<path d="M55.957 107.055C55.957 107.055 66.8218 107.101 70.9586 110.475C70.9586 110.475 70.9788 108.717 74.2166 110.475C74.2166 110.475 84.0712 109.301 88.6322 110.475C88.6322 110.475 94.2238 96.6862 97.608 93.02C97.608 93.02 102.462 93.3121 103.785 95.5128C104.417 96.5603 102.927 102.311 101.543 108.168C100.012 114.635 98.4767 121.232 97.1685 121.771C94.6682 122.798 68.3371 125.145 68.3371 125.145L55.9621 118.694V107.055H55.957Z" stroke="#002E47" stroke-width="0.75" stroke-miterlimit="10" stroke-linecap="round" stroke-linejoin="round"/>
<path d="M89.957 111.064C89.957 111.064 92.1643 111.502 94.8111 115.022" stroke="#E2EDFF" stroke-width="0.75" stroke-linecap="round" stroke-linejoin="round"/>
<path d="M72.1562 113.043C72.1562 113.043 73.4746 118.114 72.1562 123.236" stroke="#E2EDFF" stroke-width="0.75" stroke-linecap="round" stroke-linejoin="round"/>
<path d="M62.8906 109.085C62.8906 109.085 69.9419 112.801 70.447 123.241" stroke="#E2EDFF" stroke-width="0.75" stroke-linecap="round" stroke-linejoin="round"/>
<path d="M63.3359 176.764C63.8158 176.154 64.2098 175.495 64.5078 174.769" stroke="#E2EDFF" stroke-width="0.75" stroke-linecap="round" stroke-linejoin="round"/>
<path d="M29.5898 182.394C29.5898 182.394 52.9156 185.456 61.7701 178.33" stroke="#E2EDFF" stroke-width="0.75" stroke-linecap="round" stroke-linejoin="round"/>
<path d="M58.0682 135.343C58.0682 135.343 46.3953 138.702 46.8599 147.358C47.3246 156.02 49.5673 155.522 44.6173 158.377C39.6673 161.233 44.3395 166.636 42.9353 169.054C41.5361 171.476 32.6615 178.179 36.4901 181.623C40.3188 185.068 59.5633 178.179 66.2863 181.623C73.0092 185.068 78.3179 177.761 80.1059 175.862C81.894 173.969 76.6561 171.285 76.843 167.467C77.0298 163.65 80.3938 142.554 76.0954 139.739C71.802 136.929 61.7807 133.802 58.0682 135.343Z" fill="#002E47" stroke="#002E47" stroke-width="0.75" stroke-miterlimit="10" stroke-linecap="round" stroke-linejoin="round"/>
<path d="M99.6172 149.318L101.759 141.567C101.759 141.567 102.597 136.259 103.299 135.212C104.001 134.164 105.82 132.699 105.82 132.699C105.82 132.699 107.133 130.881 108.052 130.115C108.972 129.345 114.366 126.555 114.785 126.761C115.205 126.973 115.871 128.227 112.371 130.186C112.371 130.186 114.296 130.045 115.841 130.674C117.382 131.304 118.432 131.475 117.766 132.14C117.099 132.804 116.538 133.117 114.053 132.452C114.053 132.452 112.3 132.663 110.901 132.558L110.128 133.464C110.128 133.464 111.32 132.94 112.017 134.058C112.72 135.176 113.523 136.571 113.174 137.377C113.174 137.377 115.871 135.982 116.609 137.13C117.346 138.284 115.068 139.331 114.159 140.031C113.25 140.731 111.043 142.615 111.043 142.615C111.043 142.615 109.467 146.14 106.173 147.434C106.173 147.434 105.456 148.9 105.825 150.264L99.6172 149.318Z" fill="white" stroke="#002E47" stroke-width="0.75" stroke-miterlimit="10" stroke-linecap="round" stroke-linejoin="round"/>
<path d="M110.653 131.122L109.496 132.064L108.203 134.3L107.324 137.231" stroke="#002E47" stroke-width="0.75" stroke-miterlimit="10" stroke-linecap="round" stroke-linejoin="round"/>
<path d="M106.594 137.231C106.594 137.231 108.432 139.432 109.736 139.744C109.736 139.744 111.109 139.15 111.392 138.908C111.625 138.707 111.978 138.314 112.685 137.745" stroke="#002E47" stroke-width="0.75" stroke-miterlimit="10" stroke-linecap="round" stroke-linejoin="round"/>
<path d="M108.625 137.06L108.792 136.466C108.792 136.466 109.711 136.677 110.443 136.466L110.863 137.06C110.868 137.06 109.923 136.884 108.625 137.06Z" stroke="#002E47" stroke-width="0.75" stroke-miterlimit="10" stroke-linecap="round" stroke-linejoin="round"/>
<path d="M110.479 134.577C110.479 134.577 110.166 135.161 110.232 136.078" stroke="#002E47" stroke-width="0.75" stroke-miterlimit="10" stroke-linecap="round" stroke-linejoin="round"/>
<path d="M111.567 136.466C111.567 136.466 110.158 137.548 110.355 139.472" stroke="#002E47" stroke-width="0.75" stroke-miterlimit="10" stroke-linecap="round" stroke-linejoin="round"/>
<path d="M109.398 134.018L108.625 134.859V135.801" stroke="#002E47" stroke-width="0.75" stroke-miterlimit="10" stroke-linecap="round" stroke-linejoin="round"/>
<path d="M72.8126 173.526C72.8126 173.526 90.4307 173.974 92.9612 175.832C92.9612 175.832 91.3752 173.289 94.2189 174.12C94.2189 174.12 94.4159 152.561 98.2396 152.264L99.5124 147.359C99.6084 146.991 100.033 146.815 100.356 147.016C101.412 147.666 103.604 148.844 105.634 148.869C105.942 148.874 106.185 149.126 106.185 149.433V153.638C106.185 153.638 108.145 154.127 108.049 156.962C107.953 159.797 106.16 185.234 102.922 187.989C99.6842 190.739 76.9343 189.374 76.9343 189.374C76.9343 189.374 71.3428 183.985 72.8126 173.526Z" fill="#39B4EF"/>
<mask id="mask15_222_23369" style="mask-type:luminance" maskUnits="userSpaceOnUse" x="72" y="146" width="37" height="44">
<path d="M72.8126 173.526C72.8126 173.526 90.4307 173.974 92.9612 175.832C92.9612 175.832 91.3752 173.289 94.2189 174.12C94.2189 174.12 94.4159 152.561 98.2396 152.264L99.5124 147.359C99.6084 146.991 100.033 146.815 100.356 147.016C101.412 147.666 103.604 148.844 105.634 148.869C105.942 148.874 106.185 149.126 106.185 149.433V153.638C106.185 153.638 108.145 154.127 108.049 156.962C107.953 159.797 106.16 185.234 102.922 187.989C99.6842 190.739 76.9343 189.374 76.9343 189.374C76.9343 189.374 71.3428 183.985 72.8126 173.526Z" fill="white"/>
</mask>
<g mask="url(#mask15_222_23369)">
<path opacity="0.2" d="M78.3 179.196C78.3 179.196 83.7097 187.727 92.256 186.916C100.802 186.111 98.292 182.898 99.6154 181.639C100.939 180.38 105.167 182.248 107.328 166.369C109.49 150.491 113.986 177.529 113.986 177.529L112.688 190.718L104.621 196.585L97.0394 198.061L79.29 199.506L73.9258 184.429L78.3 179.196Z" fill="#002E47"/>
</g>
<path d="M72.8126 173.526C72.8126 173.526 90.4307 173.974 92.9612 175.832C92.9612 175.832 91.3752 173.289 94.2189 174.12C94.2189 174.12 94.4159 152.561 98.2396 152.264L99.5124 147.359C99.6084 146.991 100.033 146.815 100.356 147.016C101.412 147.666 103.604 148.844 105.634 148.869C105.942 148.874 106.185 149.126 106.185 149.433V153.638C106.185 153.638 108.145 154.127 108.049 156.962C107.953 159.797 106.16 185.234 102.922 187.989C99.6842 190.739 76.9343 189.374 76.9343 189.374C76.9343 189.374 71.3428 183.985 72.8126 173.526Z" stroke="#002E47" stroke-width="0.75" stroke-miterlimit="10" stroke-linecap="round" stroke-linejoin="round"/>
<path d="M94.9766 178.219C94.9766 178.219 96.2494 179.196 97.0374 182.228" stroke="#002E47" stroke-width="0.75" stroke-miterlimit="10" stroke-linecap="round" stroke-linejoin="round"/>
<path d="M96.0078 175.872C96.0078 175.872 98.6091 177.046 100.175 179.196" stroke="#002E47" stroke-width="0.75" stroke-miterlimit="10" stroke-linecap="round" stroke-linejoin="round"/>
<path d="M99.6172 152.948C99.6172 152.948 101.284 154.122 104.618 154.515" stroke="#002E47" stroke-width="0.75" stroke-miterlimit="10" stroke-linecap="round" stroke-linejoin="round"/>
<path d="M40.8866 216.644C40.8866 216.644 27.2487 187.959 37.7095 178.833C48.1702 169.708 70.2129 172.131 73.9507 173.244C77.6885 174.362 81.4212 185.164 81.6081 190.935C81.795 196.711 85.4671 196.631 80.2393 216.639H40.8866V216.644Z" fill="#39B4EF"/>
<mask id="mask16_222_23369" style="mask-type:luminance" maskUnits="userSpaceOnUse" x="33" y="172" width="51" height="45">
<path d="M40.8866 216.644C40.8866 216.644 27.2487 187.959 37.7095 178.833C48.1702 169.708 70.2129 172.131 73.9507 173.244C77.6885 174.362 81.4212 185.164 81.6081 190.935C81.795 196.711 85.4671 196.631 80.2393 216.639H40.8866V216.644Z" fill="white"/>
</mask>
<g mask="url(#mask16_222_23369)">
<path opacity="0.2" d="M45.3231 195.306C45.3231 195.306 52.3794 187.606 52.8441 190.139C53.3088 192.677 44.621 207.342 53.5866 211.255C62.5522 215.168 68.9114 210.837 73.9271 211.255C78.9428 211.673 81.135 214.695 86.2769 215.002C91.4138 215.309 90.3127 222.571 90.3127 222.571L76.0031 225.643H46.303L35.5442 222.989L32.5742 217.762V206.028L45.3231 195.306Z" fill="#002E47"/>
</g>
<path d="M40.8866 216.644C40.8866 216.644 27.2487 187.959 37.7095 178.833C48.1702 169.708 70.2129 172.131 73.9507 173.244C77.6885 174.362 81.4212 185.164 81.6081 190.935C81.795 196.711 85.4671 196.631 80.2393 216.639H40.8866V216.644Z" stroke="#002E47" stroke-width="0.75" stroke-miterlimit="10" stroke-linecap="round" stroke-linejoin="round"/>
<path d="M54.3359 198.111L62.65 195.397C62.65 195.397 66.1049 189.913 67.8828 188.518C69.6558 187.123 70.7771 186.654 72.5551 187.495L75.5453 187.077C75.5453 187.077 76.808 185.481 78.2526 185.818C79.6972 186.156 84.9756 187.772 84.4149 188.89C83.8542 190.008 79.3689 187.959 78.7173 188.518C78.7173 188.518 80.1872 191.147 80.1872 192.753C80.1872 194.36 80.6064 196.802 79.6972 196.802C78.788 196.802 78.0152 195.79 78.0859 194.48C78.0859 194.48 77.8081 197.361 76.8939 197.225C75.9847 197.084 75.3533 196.319 75.4948 195.13C75.4948 195.13 73.3935 201.626 68.0697 201.556L58.397 205.469C58.397 205.469 56.4372 205.006 54.3359 198.111Z" fill="white" stroke="#002E47" stroke-width="0.75" stroke-miterlimit="10" stroke-linecap="round" stroke-linejoin="round"/>
<path d="M69.9531 195.135C69.9531 195.135 71.2159 192.622 70.8623 191.434L72.6857 190.734C72.6857 190.734 73.4586 191.781 74.0192 191.504L73.7414 192.934C73.7414 192.934 72.3423 194.647 73.11 195.624C73.8828 196.601 74.9991 194.365 75.6305 193.74C76.2619 193.111 76.4033 190.341 75.9083 189.454C75.4184 188.568 73.6101 188.664 73.0797 188.08" stroke="#002E47" stroke-width="0.75" stroke-miterlimit="10" stroke-linecap="round" stroke-linejoin="round"/>
<path d="M75.7227 187.495C75.7227 187.495 77.3087 187.309 77.7784 188.08C78.2431 188.85 78.7129 190.663 78.6169 191.595C78.526 192.526 78.1977 193.921 78.1977 193.921" stroke="#002E47" stroke-width="0.75" stroke-miterlimit="10" stroke-linecap="round" stroke-linejoin="round"/>
<path d="M75.7227 194.485L76.0055 192.934" stroke="#002E47" stroke-width="0.75" stroke-miterlimit="10" stroke-linecap="round" stroke-linejoin="round"/>
<path d="M77.1758 187.636C77.1758 187.636 78.0799 187.244 78.7113 188.523" stroke="#002E47" stroke-width="0.75" stroke-miterlimit="10" stroke-linecap="round" stroke-linejoin="round"/>
<path d="M73.8762 192.204L73.0781 192.526L73.4772 193.292L73.7348 192.934L73.8762 192.204Z" stroke="#002E47" stroke-width="0.75" stroke-miterlimit="10" stroke-linecap="round" stroke-linejoin="round"/>
<path d="M65.1719 199.139C65.1719 199.139 65.5456 200.07 67.2276 201.002" stroke="#002E47" stroke-width="0.75" stroke-miterlimit="10" stroke-linecap="round" stroke-linejoin="round"/>
<path d="M58.1644 162.26L55.457 170.177C55.457 170.177 61.2506 176.321 66.2915 176.789L68.3473 179.196L70.59 176.507L70.0293 173.062L69.1252 171.607L68.3473 171.355L69.9333 167.009L64.8621 160.12H59.9373L58.1644 162.26Z" fill="white"/>
<mask id="mask17_222_23369" style="mask-type:luminance" maskUnits="userSpaceOnUse" x="55" y="160" width="16" height="20">
<path d="M58.1644 162.26L55.457 170.177C55.457 170.177 61.2506 176.321 66.2915 176.789L68.3473 179.196L70.59 176.507L70.0293 173.062L69.1252 171.607L68.3473 171.355L69.9333 167.009L64.8621 160.12H59.9373L58.1644 162.26Z" fill="white"/>
</mask>
<g mask="url(#mask17_222_23369)">
<path d="M69.9312 167.009L64.86 160.12H59.9352L59.3594 160.82C59.6978 162.391 60.4201 165.065 61.6172 166.641C62.8951 168.318 66.4915 170.232 68.4108 171.179L69.9312 167.009Z" fill="#002E47" stroke="#002E47" stroke-width="0.75" stroke-miterlimit="10" stroke-linecap="round" stroke-linejoin="round"/>
</g>
<path d="M58.1644 162.26L55.457 170.177C55.457 170.177 61.2506 176.321 66.2915 176.789L68.3473 179.196L70.59 176.507L70.0293 173.062L69.1252 171.607L68.3473 171.355L69.9333 167.009L64.8621 160.12H59.9373L58.1644 162.26Z" stroke="#002E47" stroke-width="0.75" stroke-miterlimit="10" stroke-linecap="round" stroke-linejoin="round"/>
<path d="M59.5615 158.377C59.5615 158.377 60.496 164.118 63.0164 165.982C65.5369 167.845 74.5985 171.274 76.2805 169.653C77.9625 168.031 79.6445 162.814 80.0182 160.115C80.392 157.415 79.4576 152.969 79.6445 150.254C79.8314 147.54 80.0182 142.977 76.2805 141.582C72.5427 140.187 58.9049 146.925 58.9049 146.925L58.0664 152.102L59.5615 158.377Z" fill="white" stroke="#002E47" stroke-width="0.75" stroke-miterlimit="10" stroke-linecap="round" stroke-linejoin="round"/>
<path d="M77.1718 150.259C77.1718 150.259 76.6111 152.53 77.1718 153.366C77.5506 153.936 78.5406 155.3 79.1417 156.126C79.4044 156.489 79.3185 156.987 78.9548 157.244C78.2376 157.753 77.1667 158.569 76.9243 159.092C76.8485 159.248 76.9243 159.792 76.9243 159.792" stroke="#002E47" stroke-width="0.75" stroke-miterlimit="10" stroke-linecap="round" stroke-linejoin="round"/>
<path d="M76.9752 161.202C76.9752 161.202 74.4648 163.212 71.9141 160.638" stroke="#002E47" stroke-width="0.75" stroke-miterlimit="10" stroke-linecap="round" stroke-linejoin="round"/>
<path d="M69.9336 151.13C69.9336 151.13 71.0448 148.688 74.9493 149.942" stroke="#002E47" stroke-width="0.75" stroke-miterlimit="10" stroke-linecap="round" stroke-linejoin="round"/>
<path d="M77.3203 149.584C77.3203 149.584 78.2144 148.668 79.265 149.584" stroke="#002E47" stroke-width="0.75" stroke-miterlimit="10" stroke-linecap="round" stroke-linejoin="round"/>
<path d="M73.9097 152.047C74.0663 152.626 73.9602 153.155 73.6723 153.236C73.3844 153.311 73.0258 152.908 72.8692 152.329C72.7126 151.75 72.8187 151.221 73.1066 151.141C73.3945 151.065 73.7531 151.468 73.9097 152.047Z" fill="#002E47"/>
<path d="M79.2213 151.458C79.3324 151.987 79.2112 152.455 78.9485 152.51C78.6859 152.566 78.3828 152.183 78.2717 151.659C78.1605 151.13 78.2818 150.662 78.5444 150.607C78.802 150.546 79.1051 150.929 79.2213 151.458Z" fill="#002E47"/>
<path d="M72.5654 134.91C72.5654 134.91 77.3234 132.19 84.4757 138.5C90.936 144.201 83.0362 140.933 83.0362 140.933C83.0362 140.933 86.3194 147.051 82.819 148.305C79.2681 149.579 81.2329 145.868 73.3836 144.095C73.3836 144.095 76.884 146.925 74.4848 148.577C71.4036 150.697 69.368 147.076 66.9385 147.912C66.9385 147.912 65.6303 155.084 63.0138 156.292C63.0138 156.292 60.4681 165.906 57.1193 165.292C53.7704 164.677 57.8769 163.373 56.008 157.506C54.1391 151.639 50.1236 146.1 53.2047 139.744C56.2959 133.394 67.3577 132.704 72.5654 134.91Z" fill="#002E47" stroke="#002E47" stroke-width="0.75" stroke-miterlimit="10" stroke-linecap="round" stroke-linejoin="round"/>
<path d="M42.7493 177.247C40.1126 177.287 37.7235 178.259 36.587 179.957C32.4249 186.151 27.2476 197.648 23.8836 205.288C20.5196 212.922 22.2016 217.581 23.8836 218.14C25.5656 218.699 31.541 220.562 43.123 214.972C54.7051 209.382 53.5838 208.269 53.5838 208.269L60.2259 205.212C60.4885 205.091 60.5188 204.734 60.2865 204.567C59.2308 203.812 57.0993 201.677 56.9528 196.711C56.9427 196.449 56.68 196.268 56.4376 196.369L50.2198 198.867C50.2198 198.867 49.2853 197.839 43.8706 199.889C43.8706 199.889 49.2904 195.976 51.7149 193C52.8564 191.595 53.215 188.956 52.8211 186.277" fill="#39B4EF"/>
<path d="M42.7493 177.247C40.1126 177.287 37.7235 178.259 36.587 179.957C32.4249 186.151 27.2476 197.648 23.8836 205.288C20.5196 212.922 22.2016 217.581 23.8836 218.14C25.5656 218.699 31.541 220.562 43.123 214.972C54.7051 209.382 53.5838 208.269 53.5838 208.269L60.2259 205.212C60.4885 205.091 60.5188 204.734 60.2865 204.567C59.2308 203.812 57.0993 201.677 56.9528 196.711C56.9427 196.449 56.6801 196.268 56.4376 196.369L50.2198 198.867C50.2198 198.867 49.2853 197.839 43.8706 199.889C43.8706 199.889 49.2904 195.976 51.7149 193C52.8564 191.595 53.215 188.956 52.8211 186.277" stroke="#002E47" stroke-width="0.75" stroke-miterlimit="10" stroke-linecap="round" stroke-linejoin="round"/>
<path d="M32.5703 203.701C34.3634 202.221 41.9097 201.465 42.0057 200.347C42.0966 199.229 35.6565 201.929 35.7474 200.347" stroke="#002E47" stroke-width="0.75" stroke-miterlimit="10" stroke-linecap="round" stroke-linejoin="round"/>
<path d="M47.7031 188.895C47.7031 188.895 49.5771 191.867 49.572 193.554C49.567 195.236 51.8147 190.854 51.8147 188.895" stroke="#002E47" stroke-width="0.75" stroke-miterlimit="10" stroke-linecap="round" stroke-linejoin="round"/>
<path d="M50.5982 200.07C50.5982 200.07 50.4113 202.306 52.4671 206.033" stroke="#002E47" stroke-width="0.75" stroke-miterlimit="10" stroke-linecap="round" stroke-linejoin="round"/>
<path d="M49.4688 173.148C49.4688 173.148 51.3881 167.482 53.6308 168.318C55.8735 169.149 66.7989 173.873 68.3395 179.196C68.3395 179.196 66.0968 176.25 64.137 179.196C62.1772 182.142 60.2982 179.523 49.4688 173.148Z" fill="#39B4EF" stroke="#002E47" stroke-width="0.75" stroke-miterlimit="10" stroke-linecap="round" stroke-linejoin="round"/>
<path d="M69.1216 171.607C69.3792 172.669 69.9601 175.963 68.3438 179.196C68.3438 179.196 70.0258 177.046 71.9856 178.511C73.9454 179.977 71.9856 173.853 71.0764 172.695C70.748 172.277 69.3338 171.471 69.3338 171.471C69.2277 171.395 69.0913 171.486 69.1216 171.607Z" fill="#39B4EF" stroke="#002E47" stroke-width="0.75" stroke-miterlimit="10" stroke-linecap="round" stroke-linejoin="round"/>
<path d="M68.3424 171.355C68.3424 171.355 67.7565 173.208 68.3424 174.316" stroke="#002E47" stroke-width="0.75" stroke-miterlimit="10" stroke-linecap="round" stroke-linejoin="round"/>
<path d="M61.1149 217.112H83.7587V219.162H61.3018C60.832 219.162 60.4532 218.784 60.4532 218.316V217.777C60.4481 217.409 60.7461 217.112 61.1149 217.112Z" fill="#E2EDFF" stroke="#002E47" stroke-miterlimit="10" stroke-linecap="round" stroke-linejoin="round"/>
<path d="M94.6646 183.21H91.8208C90.9268 183.21 90.1388 183.799 89.8863 184.655L80.5772 216.588C80.2034 217.873 81.1682 219.157 82.5118 219.157H84.9767L94.6646 183.21Z" fill="#002E47" stroke="#002E47" stroke-width="0.75" stroke-miterlimit="10" stroke-linecap="round" stroke-linejoin="round"/>
<path d="M130.94 219.157H83.4959C82.1573 219.157 81.1875 217.873 81.5613 216.588L90.8704 184.655C91.1179 183.799 91.9058 183.21 92.8049 183.21H140.249C141.588 183.21 142.558 184.494 142.184 185.778L132.875 217.711C132.622 218.568 131.834 219.157 130.94 219.157Z" fill="#E2EDFF" stroke="#002E47" stroke-miterlimit="10" stroke-linecap="round" stroke-linejoin="round"/>
<path d="M59.3615 160.815C59.3615 160.815 55.5479 166.752 57.7906 172.1C60.0333 177.449 58.0684 180.218 55.457 178.214C52.8355 176.205 51.6283 174.009 39.8594 175.867L47.7036 168.233L53.0275 161.117L58.0128 158.775L59.3615 160.815Z" fill="#002E47" stroke="#002E47" stroke-width="0.75" stroke-miterlimit="10" stroke-linecap="round" stroke-linejoin="round"/>
<path d="M82.5664 144.1C82.925 144.775 83.0766 145.394 83.0361 145.878" stroke="#E2EDFF" stroke-width="0.75" stroke-linecap="round" stroke-linejoin="round"/>
<path d="M67.2227 137.966C74.2941 137.851 78.7441 139.976 81.0625 142.187" stroke="#E2EDFF" stroke-width="0.75" stroke-linecap="round" stroke-linejoin="round"/>
<path d="M47.3711 168.369C47.6843 167.261 47.8459 165.921 47.6994 164.32C47.1388 158.035 52.1847 160.165 53.3061 152.188C54.3213 144.966 55.5285 139.321 64.2315 138.178" stroke="#E2EDFF" stroke-width="0.75" stroke-linecap="round" stroke-linejoin="round"/>
<path d="M44.1992 172.836C44.1992 172.836 45.2044 172.282 46.1489 170.957" stroke="#E2EDFF" stroke-width="0.75" stroke-linecap="round" stroke-linejoin="round"/>
<path d="M54.2031 172.564C54.4153 173.143 54.6729 173.727 54.9911 174.316" stroke="#E2EDFF" stroke-width="0.75" stroke-linecap="round" stroke-linejoin="round"/>
<path d="M60.4405 143.138C57.0007 146.155 60.0313 152.077 58.3998 155.738C56.8896 159.123 52.8437 164.073 53.5761 169.98" stroke="#E2EDFF" stroke-width="0.75" stroke-linecap="round" stroke-linejoin="round"/>
<path d="M73.3943 146.512C73.3943 146.512 68.6564 139.668 62.3477 142.04" stroke="#E2EDFF" stroke-width="0.75" stroke-linecap="round" stroke-linejoin="round"/>
<path d="M174.918 136.843H115.553C114.32 136.843 113.32 135.846 113.32 134.617V129.929C113.32 128.7 114.32 127.703 115.553 127.703H174.918C176.15 127.703 177.15 128.7 177.15 129.929V134.617C177.15 135.846 176.15 136.843 174.918 136.843Z" fill="white"/>
<mask id="mask18_222_23369" style="mask-type:luminance" maskUnits="userSpaceOnUse" x="113" y="127" width="65" height="10">
<path d="M174.918 136.843H115.553C114.32 136.843 113.32 135.846 113.32 134.617V129.929C113.32 128.7 114.32 127.703 115.553 127.703H174.918C176.15 127.703 177.15 128.7 177.15 129.929V134.617C177.15 135.846 176.15 136.843 174.918 136.843Z" fill="white"/>
</mask>
<g mask="url(#mask18_222_23369)">
<path opacity="0.3" d="M174.918 136.843H115.553C114.32 136.843 113.32 135.846 113.32 134.617V129.929C113.32 128.7 114.32 127.703 115.553 127.703H174.918C176.15 127.703 177.15 128.7 177.15 129.929V134.617C177.15 135.846 176.15 136.843 174.918 136.843Z" fill="#002E47"/>
</g>
<path d="M174.918 136.843H115.553C114.32 136.843 113.32 135.846 113.32 134.617V129.929C113.32 128.7 114.32 127.703 115.553 127.703H174.918C176.15 127.703 177.15 128.7 177.15 129.929V134.617C177.15 135.846 176.15 136.843 174.918 136.843Z" stroke="#002E47" stroke-width="0.75" stroke-miterlimit="10" stroke-linecap="round" stroke-linejoin="round"/>
</g>
<defs>
<clipPath id="clip0_222_23369">
<rect width="305" height="226" fill="white"/>
</clipPath>
</defs>
</svg>
