<svg width="576" height="358" viewBox="0 0 576 358" fill="none" xmlns="http://www.w3.org/2000/svg">
<g clip-path="url(#clip0_266_55989)">
<path d="M534.775 117.975C525.047 97.1379 512.048 77.8389 497.196 61.4509C494.29 58.2445 491.288 55.125 488.173 52.1272C452.665 17.8652 402.121 -1.79869 353.144 4.44024C319.723 8.69801 288.548 24.417 261.889 44.9933C244.852 58.1402 228.755 73.6854 208.239 80.185C182.214 88.4312 154.145 80.6543 126.85 80.5239C84.6337 80.3328 41.8861 100.596 18.7243 135.849C-2.24487 167.756 -5.61212 210.464 10.0756 245.265C25.7633 280.065 60.0188 305.847 97.8417 311.321C121.656 314.771 145.958 310.643 169.946 312.564C204.967 315.37 237.5 330.82 270.946 341.56C331.835 361.111 400.372 364.613 458.277 337.485C505.923 315.162 544.651 268.908 551.864 216.06C556.414 182.606 548.923 148.292 534.775 117.975Z" fill="#39B4EF"/>
<path opacity="0.7" d="M534.775 117.975C525.047 97.1379 512.048 77.8389 497.196 61.4509C494.29 58.2445 491.288 55.125 488.173 52.1272C452.665 17.8652 402.121 -1.79869 353.144 4.44024C319.723 8.69801 288.548 24.417 261.889 44.9933C244.852 58.1402 228.755 73.6854 208.239 80.185C182.214 88.4312 154.145 80.6543 126.85 80.5239C84.6337 80.3328 41.8861 100.596 18.7243 135.849C-2.24487 167.756 -5.61212 210.464 10.0756 245.265C25.7633 280.065 60.0188 305.847 97.8417 311.321C121.656 314.771 145.958 310.643 169.946 312.564C204.967 315.37 237.5 330.82 270.946 341.56C331.835 361.111 400.372 364.613 458.277 337.485C505.923 315.162 544.651 268.908 551.864 216.06C556.414 182.606 548.923 148.292 534.775 117.975Z" fill="white"/>
<path d="M395.892 341.968H576" stroke="#002E47" stroke-miterlimit="10"/>
<path d="M52.2056 341.968H388.061" stroke="#002E47" stroke-miterlimit="10"/>
<path d="M36.9355 341.968H44.3748" stroke="#002E47" stroke-miterlimit="10"/>
<path d="M525.77 188.567L537.881 304.509" stroke="#002E47" stroke-width="2" stroke-miterlimit="10"/>
<path d="M535.932 282.316L530.433 276.529" stroke="#002E47" stroke-width="2" stroke-miterlimit="10"/>
<path d="M532.104 278.258C532.104 278.258 532.26 275.695 529.92 273.609C528.51 272.349 521.089 269.239 520.384 271.845C519.618 274.687 527.214 280.257 532.104 278.258Z" fill="#39B4EF" stroke="#002E47" stroke-miterlimit="10"/>
<path d="M532.104 278.258L525.039 273.87" stroke="#002E47" stroke-width="0.5" stroke-miterlimit="10"/>
<path d="M537.307 295.506L531.817 289.711" stroke="#002E47" stroke-width="2" stroke-miterlimit="10"/>
<path d="M533.479 291.449C533.479 291.449 533.635 288.885 531.295 286.8C529.885 285.54 522.463 282.429 521.759 285.036C521.002 287.869 528.589 293.438 533.479 291.449Z" fill="#39B4EF" stroke="#002E47" stroke-miterlimit="10"/>
<path d="M533.479 291.449L526.422 287.052" stroke="#002E47" stroke-width="0.5" stroke-miterlimit="10"/>
<path d="M532.565 250.148L527.075 244.352" stroke="#002E47" stroke-width="2" stroke-miterlimit="10"/>
<path d="M528.746 246.09C528.746 246.09 528.902 243.527 526.562 241.441C525.152 240.182 517.73 237.071 517.025 239.678C516.26 242.51 523.856 248.08 528.746 246.09Z" fill="#39B4EF" stroke="#002E47" stroke-miterlimit="10"/>
<path d="M528.745 246.09L521.68 241.693" stroke="#002E47" stroke-width="0.5" stroke-miterlimit="10"/>
<path d="M533.948 263.33L528.449 257.534" stroke="#002E47" stroke-width="2" stroke-miterlimit="10"/>
<path d="M530.12 259.272C530.12 259.272 530.277 256.709 527.936 254.623C526.527 253.363 519.105 250.252 518.4 252.859C517.634 255.692 525.23 261.27 530.12 259.272Z" fill="#39B4EF" stroke="#002E47" stroke-miterlimit="10"/>
<path d="M530.12 259.272L523.055 254.875" stroke="#002E47" stroke-width="0.5" stroke-miterlimit="10"/>
<path d="M530.329 228.729L524.839 222.933" stroke="#002E47" stroke-width="2" stroke-miterlimit="10"/>
<path d="M526.501 224.671C526.501 224.671 526.657 222.108 524.317 220.022C522.907 218.762 515.485 215.652 514.781 218.258C514.024 221.091 521.611 226.661 526.501 224.671Z" fill="#39B4EF" stroke="#002E47" stroke-miterlimit="10"/>
<path d="M526.501 224.671L519.444 220.274" stroke="#002E47" stroke-width="0.5" stroke-miterlimit="10"/>
<path d="M528.084 207.214L522.585 201.418" stroke="#002E47" stroke-width="2" stroke-miterlimit="10"/>
<path d="M524.256 203.156C524.256 203.156 524.412 200.593 522.072 198.508C520.662 197.248 513.24 194.137 512.536 196.744C511.77 199.576 519.366 205.155 524.256 203.156Z" fill="#39B4EF" stroke="#002E47" stroke-miterlimit="10"/>
<path d="M524.256 203.156L517.19 198.76" stroke="#002E47" stroke-width="0.5" stroke-miterlimit="10"/>
<path d="M535.001 274.522L539.178 267.718" stroke="#002E47" stroke-width="2" stroke-miterlimit="10"/>
<path d="M537.908 269.76C537.908 269.76 537.22 267.283 539.082 264.755C540.205 263.234 546.817 258.655 548.044 261.062C549.384 263.686 543.102 270.707 537.908 269.76Z" fill="#39B4EF" stroke="#002E47" stroke-miterlimit="10"/>
<path d="M537.908 269.76L544.268 263.686" stroke="#002E47" stroke-width="0.5" stroke-miterlimit="10"/>
<path d="M531.382 239.817L535.558 233.022" stroke="#002E47" stroke-width="2" stroke-miterlimit="10"/>
<path d="M534.279 235.063C534.279 235.063 533.592 232.587 535.454 230.058C536.576 228.538 543.189 223.959 544.416 226.365C545.756 228.99 539.482 236.002 534.279 235.063Z" fill="#39B4EF" stroke="#002E47" stroke-miterlimit="10"/>
<path d="M534.279 235.063L540.64 228.99" stroke="#002E47" stroke-width="0.5" stroke-miterlimit="10"/>
<path d="M529.79 224.575L533.966 217.772" stroke="#002E47" stroke-width="2" stroke-miterlimit="10"/>
<path d="M532.687 219.814C532.687 219.814 532 217.337 533.862 214.809C534.984 213.288 541.597 208.709 542.824 211.116C544.163 213.74 537.89 220.761 532.687 219.814Z" fill="#39B4EF" stroke="#002E47" stroke-miterlimit="10"/>
<path d="M532.687 219.814L539.047 213.74" stroke="#002E47" stroke-width="0.5" stroke-miterlimit="10"/>
<path d="M527.449 202.218L531.625 195.414" stroke="#002E47" stroke-width="2" stroke-miterlimit="10"/>
<path d="M530.355 197.456C530.355 197.456 529.668 194.98 531.53 192.451C532.652 190.93 539.265 186.351 540.492 188.758C541.831 191.382 535.549 198.403 530.355 197.456Z" fill="#39B4EF" stroke="#002E47" stroke-miterlimit="10"/>
<path d="M530.355 197.456L536.715 191.391" stroke="#002E47" stroke-width="0.5" stroke-miterlimit="10"/>
<path d="M525.665 187.924C525.665 187.924 524.978 185.447 526.84 182.919C527.962 181.398 534.575 176.819 535.802 179.226C537.141 181.85 530.859 188.871 525.665 187.924Z" fill="#39B4EF" stroke="#002E47" stroke-miterlimit="10"/>
<path d="M525.665 187.924L532.025 181.859" stroke="#002E47" stroke-width="0.5" stroke-miterlimit="10"/>
<path d="M526.031 188.185C526.031 188.185 523.49 188.602 521.176 186.49C519.775 185.222 515.912 178.166 518.435 177.201C521.184 176.15 527.519 183.127 526.031 188.185Z" fill="#39B4EF" stroke="#002E47" stroke-miterlimit="10"/>
<path d="M526.03 188.185L520.653 181.233" stroke="#002E47" stroke-width="0.5" stroke-miterlimit="10"/>
<path d="M557.719 204.538L545.677 320.48" stroke="#002E47" stroke-width="2" stroke-miterlimit="10"/>
<path d="M548.34 298.365L544.155 291.57" stroke="#002E47" stroke-width="2" stroke-miterlimit="10"/>
<path d="M545.434 293.612C545.434 293.612 546.112 291.136 544.25 288.607C543.128 287.086 536.515 282.507 535.289 284.923C533.949 287.538 540.231 294.559 545.434 293.612Z" fill="#39B4EF" stroke="#002E47" stroke-miterlimit="10"/>
<path d="M545.434 293.612L539.43 287.86" stroke="#002E47" stroke-width="0.5" stroke-miterlimit="10"/>
<path d="M551.681 266.189L547.496 259.394" stroke="#002E47" stroke-width="2" stroke-miterlimit="10"/>
<path d="M548.775 261.436C548.775 261.436 549.454 258.959 547.592 256.431C546.469 254.91 539.856 250.331 538.63 252.746C537.298 255.362 543.58 262.383 548.775 261.436Z" fill="#39B4EF" stroke="#002E47" stroke-miterlimit="10"/>
<path d="M548.775 261.436L542.771 255.683" stroke="#002E47" stroke-width="0.5" stroke-miterlimit="10"/>
<path d="M550.306 279.379L546.13 272.575" stroke="#002E47" stroke-width="2" stroke-miterlimit="10"/>
<path d="M547.409 274.617C547.409 274.617 548.088 272.141 546.226 269.612C545.103 268.092 538.49 263.512 537.264 265.928C535.924 268.552 542.206 275.564 547.409 274.617Z" fill="#39B4EF" stroke="#002E47" stroke-miterlimit="10"/>
<path d="M547.409 274.617L541.396 268.865" stroke="#002E47" stroke-width="0.5" stroke-miterlimit="10"/>
<path d="M553.908 244.769L549.723 237.974" stroke="#002E47" stroke-width="2" stroke-miterlimit="10"/>
<path d="M551.002 240.016C551.002 240.016 551.681 237.54 549.819 235.011C548.696 233.491 542.084 228.911 540.857 231.327C539.517 233.943 545.799 240.964 551.002 240.016Z" fill="#39B4EF" stroke="#002E47" stroke-miterlimit="10"/>
<path d="M551.002 240.016L544.999 234.255" stroke="#002E47" stroke-width="0.5" stroke-miterlimit="10"/>
<path d="M556.145 223.255L551.959 216.46" stroke="#002E47" stroke-width="2" stroke-miterlimit="10"/>
<path d="M553.239 218.502C553.239 218.502 553.917 216.025 552.055 213.497C550.933 211.976 544.32 207.397 543.093 209.812C541.753 212.428 548.035 219.449 553.239 218.502Z" fill="#39B4EF" stroke="#002E47" stroke-miterlimit="10"/>
<path d="M553.238 218.502L547.226 212.749" stroke="#002E47" stroke-width="0.5" stroke-miterlimit="10"/>
<path d="M549.044 290.545L554.535 284.749" stroke="#002E47" stroke-width="2" stroke-miterlimit="10"/>
<path d="M552.864 286.487C552.864 286.487 552.707 283.924 555.048 281.829C556.457 280.569 563.871 277.45 564.584 280.057C565.35 282.898 557.754 288.477 552.864 286.487Z" fill="#39B4EF" stroke="#002E47" stroke-miterlimit="10"/>
<path d="M552.864 286.487L560.338 281.847" stroke="#002E47" stroke-width="0.5" stroke-miterlimit="10"/>
<path d="M552.647 255.84L558.137 250.044" stroke="#002E47" stroke-width="2" stroke-miterlimit="10"/>
<path d="M556.467 251.782C556.467 251.782 556.31 249.218 558.65 247.124C560.06 245.864 567.473 242.745 568.187 245.352C568.952 248.193 561.365 253.772 556.467 251.782Z" fill="#39B4EF" stroke="#002E47" stroke-miterlimit="10"/>
<path d="M556.467 251.782L563.941 247.15" stroke="#002E47" stroke-width="0.5" stroke-miterlimit="10"/>
<path d="M554.23 240.599L559.721 234.794" stroke="#002E47" stroke-width="2" stroke-miterlimit="10"/>
<path d="M558.05 236.532C558.05 236.532 557.893 233.969 560.234 231.875C561.644 230.615 569.057 227.495 569.77 230.102C570.536 232.952 562.949 238.531 558.05 236.532Z" fill="#39B4EF" stroke="#002E47" stroke-miterlimit="10"/>
<path d="M558.05 236.532L565.533 231.901" stroke="#002E47" stroke-width="0.5" stroke-miterlimit="10"/>
<path d="M556.553 218.241L562.043 212.445" stroke="#002E47" stroke-width="2" stroke-miterlimit="10"/>
<path d="M560.373 214.183C560.373 214.183 560.216 211.62 562.557 209.526C563.966 208.266 571.379 205.146 572.093 207.753C572.859 210.594 565.271 216.173 560.373 214.183Z" fill="#39B4EF" stroke="#002E47" stroke-miterlimit="10"/>
<path d="M560.373 214.183L567.856 209.543" stroke="#002E47" stroke-width="0.5" stroke-miterlimit="10"/>
<path d="M557.754 203.886C557.754 203.886 557.597 201.323 559.938 199.229C561.348 197.969 568.761 194.849 569.474 197.456C570.24 200.298 562.644 205.876 557.754 203.886Z" fill="#39B4EF" stroke="#002E47" stroke-miterlimit="10"/>
<path d="M557.754 203.886L565.228 199.255" stroke="#002E47" stroke-width="0.5" stroke-miterlimit="10"/>
<path d="M558.059 204.216C558.059 204.216 555.492 204.103 553.656 201.557C552.551 200.028 550.219 192.329 552.89 191.904C555.796 191.443 560.556 199.568 558.059 204.216Z" fill="#39B4EF" stroke="#002E47" stroke-miterlimit="10"/>
<path d="M558.058 204.216L554.23 196.309" stroke="#002E47" stroke-width="0.5" stroke-miterlimit="10"/>
<path d="M543.911 157.329V303.944" stroke="#002E47" stroke-width="2" stroke-miterlimit="10"/>
<path d="M544.033 281.899L539.169 275.564" stroke="#002E47" stroke-width="2" stroke-miterlimit="10"/>
<path d="M540.648 277.467C540.648 277.467 541.074 274.939 538.96 272.61C537.69 271.211 530.633 267.344 529.659 269.864C528.606 272.61 535.575 278.945 540.648 277.467Z" fill="#39B4EF" stroke="#002E47" stroke-miterlimit="10"/>
<path d="M540.648 277.467L534.079 272.358" stroke="#002E47" stroke-width="0.5" stroke-miterlimit="10"/>
<path d="M544.033 254.345L539.169 248.011" stroke="#002E47" stroke-width="2" stroke-miterlimit="10"/>
<path d="M540.648 249.914C540.648 249.914 541.074 247.385 538.96 245.056C537.69 243.657 530.633 239.79 529.659 242.31C528.606 245.056 535.575 251.391 540.648 249.914Z" fill="#39B4EF" stroke="#002E47" stroke-miterlimit="10"/>
<path d="M540.648 249.914L534.079 244.804" stroke="#002E47" stroke-width="0.5" stroke-miterlimit="10"/>
<path d="M544.033 221.995L539.169 215.66" stroke="#002E47" stroke-width="2" stroke-miterlimit="10"/>
<path d="M540.648 217.563C540.648 217.563 541.074 215.035 538.96 212.706C537.69 211.307 530.633 207.44 529.659 209.96C528.606 212.706 535.575 219.04 540.648 217.563Z" fill="#39B4EF" stroke="#002E47" stroke-miterlimit="10"/>
<path d="M540.648 217.563L534.079 212.454" stroke="#002E47" stroke-width="0.5" stroke-miterlimit="10"/>
<path d="M544.033 200.463L539.169 194.128" stroke="#002E47" stroke-width="2" stroke-miterlimit="10"/>
<path d="M540.648 196.031C540.648 196.031 541.074 193.502 538.96 191.174C537.69 189.775 530.633 185.908 529.659 188.428C528.606 191.174 535.575 197.508 540.648 196.031Z" fill="#39B4EF" stroke="#002E47" stroke-miterlimit="10"/>
<path d="M540.648 196.031L534.079 190.922" stroke="#002E47" stroke-width="0.5" stroke-miterlimit="10"/>
<path d="M544.033 178.835L539.169 172.5" stroke="#002E47" stroke-width="2" stroke-miterlimit="10"/>
<path d="M540.648 174.395C540.648 174.395 541.074 171.866 538.96 169.537C537.69 168.138 530.633 164.272 529.659 166.792C528.606 169.546 535.575 175.872 540.648 174.395Z" fill="#39B4EF" stroke="#002E47" stroke-miterlimit="10"/>
<path d="M540.648 174.395L534.079 169.294" stroke="#002E47" stroke-width="0.5" stroke-miterlimit="10"/>
<path d="M543.928 290.31L548.783 283.976" stroke="#002E47" stroke-width="2" stroke-miterlimit="10"/>
<path d="M547.304 285.879C547.304 285.879 546.878 283.35 548.992 281.021C550.263 279.622 557.319 275.756 558.294 278.275C559.355 281.021 552.377 287.356 547.304 285.879Z" fill="#39B4EF" stroke="#002E47" stroke-miterlimit="10"/>
<path d="M547.304 285.879L554.265 280.5" stroke="#002E47" stroke-width="0.5" stroke-miterlimit="10"/>
<path d="M543.928 246.49L548.783 240.155" stroke="#002E47" stroke-width="2" stroke-miterlimit="10"/>
<path d="M547.304 242.058C547.304 242.058 546.878 239.53 548.992 237.201C550.263 235.802 557.319 231.935 558.294 234.455C559.355 237.201 552.377 243.536 547.304 242.058Z" fill="#39B4EF" stroke="#002E47" stroke-miterlimit="10"/>
<path d="M547.304 242.058L554.265 236.68" stroke="#002E47" stroke-width="0.5" stroke-miterlimit="10"/>
<path d="M543.928 224.862L548.783 218.528" stroke="#002E47" stroke-width="2" stroke-miterlimit="10"/>
<path d="M547.304 220.431C547.304 220.431 546.878 217.902 548.992 215.573C550.263 214.174 557.319 210.308 558.294 212.828C559.355 215.573 552.377 221.908 547.304 220.431Z" fill="#39B4EF" stroke="#002E47" stroke-miterlimit="10"/>
<path d="M547.304 220.431L554.265 215.052" stroke="#002E47" stroke-width="0.5" stroke-miterlimit="10"/>
<path d="M543.928 196.274L548.783 189.94" stroke="#002E47" stroke-width="2" stroke-miterlimit="10"/>
<path d="M547.304 191.843C547.304 191.843 546.878 189.314 548.992 186.985C550.263 185.587 557.319 181.72 558.294 184.24C559.355 186.985 552.377 193.32 547.304 191.843Z" fill="#39B4EF" stroke="#002E47" stroke-miterlimit="10"/>
<path d="M547.304 191.843L554.265 186.464" stroke="#002E47" stroke-width="0.5" stroke-miterlimit="10"/>
<path d="M543.929 173.795L548.784 167.469" stroke="#002E47" stroke-width="2" stroke-miterlimit="10"/>
<path d="M547.305 169.364C547.305 169.364 546.878 166.835 548.993 164.506C550.263 163.107 557.319 159.24 558.294 161.76C559.356 164.515 552.377 170.841 547.305 169.364Z" fill="#39B4EF" stroke="#002E47" stroke-miterlimit="10"/>
<path d="M547.305 169.364L554.265 163.985" stroke="#002E47" stroke-width="0.5" stroke-miterlimit="10"/>
<path d="M543.633 159.397C543.633 159.397 543.207 156.868 545.321 154.54C546.591 153.141 553.648 149.274 554.622 151.794C555.684 154.54 548.705 160.874 543.633 159.397Z" fill="#39B4EF" stroke="#002E47" stroke-miterlimit="10"/>
<path d="M543.633 159.397L550.594 154.018" stroke="#002E47" stroke-width="0.5" stroke-miterlimit="10"/>
<path d="M543.972 159.692C543.972 159.692 541.405 159.849 539.317 157.503C538.055 156.095 534.949 148.683 537.559 147.979C540.405 147.223 545.973 154.818 543.972 159.692Z" fill="#39B4EF" stroke="#002E47" stroke-miterlimit="10"/>
<path d="M543.972 159.692L539.343 152.22" stroke="#002E47" stroke-width="0.5" stroke-miterlimit="10"/>
<path d="M549.958 341.968H534.41L532.461 302.753H551.899L549.958 341.968Z" fill="#002E47" stroke="#002E47" stroke-miterlimit="10"/>
<path d="M220.864 35.2613H212.615V39.1975H220.864V35.2613Z" stroke="#002E47" stroke-miterlimit="10"/>
<path d="M230.548 35.2613H222.299V39.1975H230.548V35.2613Z" stroke="#002E47" stroke-miterlimit="10"/>
<path d="M240.232 35.2613H231.983V39.1975H240.232V35.2613Z" stroke="#002E47" stroke-miterlimit="10"/>
<path d="M249.916 35.2613H241.667V39.1975H249.916V35.2613Z" stroke="#002E47" stroke-miterlimit="10"/>
<path d="M259.591 35.2613H251.343V39.1975H259.591V35.2613Z" stroke="#002E47" stroke-miterlimit="10"/>
<path d="M269.275 35.2613H261.027V39.1975H269.275V35.2613Z" stroke="#002E47" stroke-miterlimit="10"/>
<path d="M278.96 35.2613H270.711V39.1975H278.96V35.2613Z" stroke="#002E47" stroke-miterlimit="10"/>
<path d="M288.635 35.2613H280.387V39.1975H288.635V35.2613Z" stroke="#002E47" stroke-miterlimit="10"/>
<path d="M220.864 41.7087H212.615V45.645H220.864V41.7087Z" stroke="#002E47" stroke-miterlimit="10"/>
<path d="M230.548 41.7087H222.299V45.645H230.548V41.7087Z" stroke="#002E47" stroke-miterlimit="10"/>
<path d="M240.232 41.7087H231.983V45.645H240.232V41.7087Z" stroke="#002E47" stroke-miterlimit="10"/>
<path d="M249.916 41.7087H241.667V45.645H249.916V41.7087Z" stroke="#002E47" stroke-miterlimit="10"/>
<path d="M259.591 41.7087H251.343V45.645H259.591V41.7087Z" stroke="#002E47" stroke-miterlimit="10"/>
<path d="M269.275 41.7087H261.027V45.645H269.275V41.7087Z" stroke="#002E47" stroke-miterlimit="10"/>
<path d="M278.96 41.7087H270.711V45.645H278.96V41.7087Z" stroke="#002E47" stroke-miterlimit="10"/>
<path d="M288.635 41.7087H280.387V45.645H288.635V41.7087Z" stroke="#002E47" stroke-miterlimit="10"/>
<path d="M220.864 48.1562H212.615V52.0925H220.864V48.1562Z" stroke="#002E47" stroke-miterlimit="10"/>
<path d="M230.548 48.1562H222.299V52.0925H230.548V48.1562Z" stroke="#002E47" stroke-miterlimit="10"/>
<path d="M240.232 48.1562H231.983V52.0925H240.232V48.1562Z" stroke="#002E47" stroke-miterlimit="10"/>
<path d="M249.916 48.1562H241.667V52.0925H249.916V48.1562Z" stroke="#002E47" stroke-miterlimit="10"/>
<path d="M259.591 48.1562H251.343V52.0925H259.591V48.1562Z" stroke="#002E47" stroke-miterlimit="10"/>
<path d="M269.275 48.1562H261.027V52.0925H269.275V48.1562Z" stroke="#002E47" stroke-miterlimit="10"/>
<path d="M278.96 48.1562H270.711V52.0925H278.96V48.1562Z" stroke="#002E47" stroke-miterlimit="10"/>
<path d="M288.635 48.1562H280.387V52.0925H288.635V48.1562Z" stroke="#002E47" stroke-miterlimit="10"/>
<path d="M220.864 54.6037H212.615V58.54H220.864V54.6037Z" stroke="#002E47" stroke-miterlimit="10"/>
<path d="M230.548 54.6037H222.299V58.54H230.548V54.6037Z" stroke="#002E47" stroke-miterlimit="10"/>
<path d="M258.878 54.6037H231.983V58.54H258.878V54.6037Z" stroke="#002E47" stroke-miterlimit="10"/>
<path d="M269.275 54.6037H261.027V58.54H269.275V54.6037Z" stroke="#002E47" stroke-miterlimit="10"/>
<path d="M278.96 54.6037H270.711V58.54H278.96V54.6037Z" stroke="#002E47" stroke-miterlimit="10"/>
<path d="M288.635 54.6037H280.387V58.54H288.635V54.6037Z" stroke="#002E47" stroke-miterlimit="10"/>
<path d="M297.945 102.091C297.945 102.091 320.341 70.7832 354.536 52.8919" stroke="#002E47" stroke-miterlimit="10"/>
<path d="M330.921 68.3415L332.548 43.5335" stroke="#002E47" stroke-miterlimit="10"/>
<path d="M322.786 75.5363L346.47 77.6912" stroke="#002E47" stroke-miterlimit="10"/>
<path d="M331.4 55.6551C331.4 55.6551 325.753 52.7007 326.014 43.5596C326.284 34.4271 332.47 28.5097 332.47 28.5097C332.47 28.5097 337.047 34.6878 337.586 43.0208C338.126 51.3539 331.4 55.6551 331.4 55.6551Z" stroke="#002E47" stroke-miterlimit="10"/>
<path d="M312.562 73.9287C312.562 73.9287 306.915 70.9744 307.176 61.8332C307.446 52.7007 313.632 46.7833 313.632 46.7833C313.632 46.7833 318.209 52.9614 318.748 61.2945C319.288 69.6275 312.562 73.9287 312.562 73.9287Z" stroke="#002E47" stroke-miterlimit="10"/>
<path d="M336.237 76.6137C336.237 76.6137 339.735 72.0432 346.461 72.0432C353.187 72.0432 359.912 81.1756 359.912 81.1756C359.912 81.1756 353.456 83.8606 345.382 83.3219C337.316 82.7918 336.237 76.6137 336.237 76.6137Z" stroke="#002E47" stroke-miterlimit="10"/>
<path d="M344.312 59.4176C344.312 59.4176 341.624 51.0845 350.229 47.5914C358.834 44.0983 365.838 47.322 365.838 47.322C365.838 47.322 365.838 56.1938 358.033 59.6869C350.229 63.1801 344.312 59.4176 344.312 59.4176Z" stroke="#002E47" stroke-miterlimit="10"/>
<path d="M313.371 84.1387L312.832 63.4494" stroke="#002E47" stroke-miterlimit="10"/>
<path d="M501.076 46.8528H459.425V73.0598H483.022L482.247 85.025L491.505 73.0598H501.076V46.8528Z" stroke="#002E47" stroke-miterlimit="10"/>
<path d="M523.394 77.0482H494.803V95.0438H510.995L510.464 103.255L516.825 95.0438H523.394V77.0482Z" stroke="#002E47" stroke-miterlimit="10"/>
<path d="M473.964 59.9563C473.964 61.2163 472.946 62.2329 471.684 62.2329C470.423 62.2329 469.405 61.2163 469.405 59.9563C469.405 58.6964 470.423 57.6797 471.684 57.6797C472.937 57.671 473.964 58.6964 473.964 59.9563Z" stroke="#002E47" stroke-miterlimit="10"/>
<path d="M483.657 59.9563C483.657 61.2163 482.639 62.2329 481.377 62.2329C480.116 62.2329 479.098 61.2163 479.098 59.9563C479.098 58.6964 480.116 57.6797 481.377 57.6797C482.639 57.671 483.657 58.6964 483.657 59.9563Z" stroke="#002E47" stroke-miterlimit="10"/>
<path d="M493.359 59.9563C493.359 61.2163 492.341 62.2329 491.079 62.2329C489.817 62.2329 488.799 61.2163 488.799 59.9563C488.799 58.6964 489.817 57.6797 491.079 57.6797C492.341 57.6797 493.359 58.6964 493.359 59.9563Z" stroke="#002E47" stroke-miterlimit="10"/>
<path d="M43.1387 123.319H74.6708V143.157H56.8078L57.3908 152.211L50.3865 143.157H43.1387V123.319Z" stroke="#002E47" stroke-miterlimit="10"/>
<path d="M26.2417 146.172H47.8896V159.797H35.63L36.0302 166.018L31.2186 159.797H26.2417V146.172Z" stroke="#002E47" stroke-miterlimit="10"/>
<path d="M65.3955 134.963C66.3518 134.963 67.127 134.188 67.127 133.233C67.127 132.278 66.3518 131.504 65.3955 131.504C64.4393 131.504 63.6641 132.278 63.6641 133.233C63.6641 134.188 64.4393 134.963 65.3955 134.963Z" stroke="#002E47" stroke-miterlimit="10"/>
<path d="M58.0523 134.963C59.0085 134.963 59.7838 134.188 59.7838 133.233C59.7838 132.278 59.0085 131.504 58.0523 131.504C57.096 131.504 56.3208 132.278 56.3208 133.233C56.3208 134.188 57.096 134.963 58.0523 134.963Z" stroke="#002E47" stroke-miterlimit="10"/>
<path d="M50.7085 134.963C51.6648 134.963 52.44 134.188 52.44 133.233C52.44 132.278 51.6648 131.504 50.7085 131.504C49.7523 131.504 48.9771 132.278 48.9771 133.233C48.9771 134.188 49.7523 134.963 50.7085 134.963Z" stroke="#002E47" stroke-miterlimit="10"/>
<path d="M82.3276 64.6485C82.2057 64.2749 82.1361 63.8665 82.1361 63.3017C82.1361 58.5139 85.8949 58.0794 85.8949 52.6312C85.8949 51.0671 85.2685 50.4763 84.1721 50.4763C83.0758 50.4763 82.4494 51.0671 82.4494 52.6312V55.0121H79.1865V52.8571C79.1865 49.3553 80.9093 47.3481 84.2591 47.3481C87.609 47.3481 89.3318 49.3467 89.3318 52.8571C89.3318 58.5486 85.2598 59.4263 85.2598 63.432C85.2598 63.8404 85.2946 64.2488 85.3816 64.6485H82.3276ZM85.486 66.1866V69.5059H82.1622V66.1866H85.486Z" stroke="#002E47" stroke-miterlimit="10"/>
<path d="M195.805 297.783C195.683 297.409 195.614 297.001 195.614 296.436C195.614 291.648 199.372 291.214 199.372 285.766C199.372 284.202 198.746 283.611 197.65 283.611C196.553 283.611 195.927 284.202 195.927 285.766V288.147H192.664V285.992C192.664 282.49 194.387 280.483 197.737 280.483C201.087 280.483 202.809 282.481 202.809 285.992C202.809 291.683 198.737 292.561 198.737 296.566C198.737 296.975 198.772 297.383 198.859 297.783H195.805ZM198.972 299.321V302.64H195.648V299.321H198.972Z" stroke="#002E47" stroke-miterlimit="10"/>
<path d="M159.496 202.183H210.501V238.053H159.496V341.708H119.985V90.6296H224.501V126.499H159.496V202.183Z" fill="#39B4EF" stroke="#002E47" stroke-miterlimit="10"/>
<path d="M220.15 100.344V122.154H155.146V206.528H186.469" stroke="#002E47" stroke-miterlimit="10"/>
<path d="M124.336 133.529V94.9743H220.15V98.4848" stroke="#002E47" stroke-miterlimit="10"/>
<path d="M124.336 318.455V138.377" stroke="#002E47" stroke-miterlimit="10"/>
<path d="M155.146 259.55V337.363H124.336V323.677" stroke="#002E47" stroke-miterlimit="10"/>
<path d="M155.146 246.499V253.954" stroke="#002E47" stroke-miterlimit="10"/>
<path d="M191.698 206.528H206.142V233.708H155.146V243.145" stroke="#002E47" stroke-miterlimit="10"/>
<path d="M366.734 341.708H326.867L320.045 296.158H271.555L264.734 341.708H228.459L268.684 90.6296H326.51L366.734 341.708ZM276.584 262.079H314.659L295.622 135.11L276.584 262.079Z" fill="#39B4EF" stroke="#002E47" stroke-miterlimit="10"/>
<path d="M237.439 313.146L258.216 183.44M327.345 315.561L323.787 291.805H267.805L260.983 337.354H233.558L236.647 318.099M357.198 309.67L361.635 337.363H330.617L327.902 319.263M334.289 166.713L356.45 305.013M259.226 177.14L272.39 94.9743H322.795L333.036 158.902M315.651 238.722L299.981 131.661H291.376L271.529 266.423H319.697L316.573 245.082" stroke="#002E47" stroke-miterlimit="10"/>
<path d="M381.465 150.89C381.465 110.719 402.652 87.7621 441.44 87.7621C480.229 87.7621 501.416 110.719 501.416 150.89V281.447C501.416 295.437 498.901 307.272 493.872 316.595C495.664 321.262 498.544 321.974 505.009 321.974H508.602V357.131H503.217C485.615 357.131 474.486 350.675 469.1 339.918C461.2 342.785 451.864 344.584 441.449 344.584C402.66 344.584 381.474 321.627 381.474 281.456V150.89H381.465ZM420.967 283.958C420.967 301.893 428.867 308.705 441.44 308.705C454.013 308.705 461.913 301.893 461.913 283.958V148.379C461.913 130.444 454.013 123.632 441.44 123.632C428.867 123.632 420.967 130.444 420.967 148.379V283.958Z" fill="#39B4EF" stroke="#002E47" stroke-miterlimit="10"/>
<path d="M483.161 348.485C478.671 346.026 475.269 342.516 472.99 337.971L471.258 334.504L467.613 335.825C459.573 338.744 450.768 340.23 441.44 340.23C423.456 340.23 409.543 335.138 400.076 325.094C398.667 323.599 397.362 322 396.152 320.297M494.168 304.309C493.089 308.028 491.714 311.443 490.052 314.545L489.104 316.3L489.817 318.159C492.602 325.398 498.188 326.267 504.252 326.319V352.786H503.217C497.5 352.786 492.489 352.074 488.199 350.658M497.074 164.845V281.447C497.074 287.964 496.508 293.96 495.386 299.391M386.19 142.036C387.486 127.333 392.141 115.646 400.076 107.235C409.543 97.1901 423.464 92.0981 441.44 92.0981C459.416 92.0981 473.338 97.1901 482.804 107.235C492.271 117.271 497.065 131.956 497.065 150.881V159.249M392.576 314.345C388.086 305.473 385.815 294.464 385.815 281.456V150.89C385.815 149.682 385.833 148.483 385.876 147.31M416.617 281.916V283.958C416.617 308.002 430.112 313.05 441.44 313.05C452.76 313.05 466.264 308.002 466.264 283.958V163.359M416.617 185.726V277.068M466.264 157.39V148.379C466.264 124.335 452.769 119.287 441.44 119.287C430.12 119.287 416.617 124.335 416.617 148.379V179.017" stroke="#002E47" stroke-miterlimit="10"/>
<path d="M450.29 162.508C450.29 162.508 456.963 163.837 460.974 167.078C464.977 170.319 467.648 178.122 465.742 183.075C463.837 188.028 463.323 187.707 465.612 190.565C467.9 193.424 465.995 198.377 465.995 198.377L451.308 193.807C451.308 193.807 451.438 188.411 452.204 183.266C452.969 178.122 452.587 168.599 450.298 165.931V162.508H450.29Z" fill="#002E47" stroke="#002E47" stroke-miterlimit="10" stroke-linecap="round" stroke-linejoin="round"/>
<path d="M429.564 285.044L432.044 298.374C432.044 298.374 431.469 306.75 433.566 314.562C435.663 322.374 437.186 339.891 437.186 339.891C437.186 339.891 433.941 342.559 430.512 344.844C427.075 347.13 424.979 349.224 429.747 349.224C434.515 349.224 436.995 347.894 439.857 346.747C442.72 345.6 445.008 345.036 445.008 343.506C445.008 341.986 443.485 335.695 443.485 335.695C443.485 335.695 444.06 313.406 444.06 306.168C444.06 298.93 442.728 293.786 442.728 293.786V286.548L429.564 285.044Z" fill="white" stroke="#002E47" stroke-miterlimit="10" stroke-linecap="round" stroke-linejoin="round"/>
<path d="M439.857 346.765C442.72 345.618 445.008 345.053 445.008 343.524C445.008 343.08 444.877 342.22 444.695 341.238C443.346 341.907 441.806 342.707 440.814 343.332C438.717 344.662 435.855 346 434.14 346C432.992 346 431.417 345.322 430.503 344.87C427.075 347.156 424.996 349.241 429.755 349.241C434.523 349.241 437.003 347.903 439.857 346.765Z" fill="#002E47" stroke="#002E47" stroke-miterlimit="10" stroke-linecap="round" stroke-linejoin="round"/>
<path d="M440.623 289.241L441.197 298.191C441.197 298.191 440.048 309.044 441.197 316.474C442.345 323.903 442.345 337.997 442.345 340.282C442.345 342.568 440.631 345.044 437.577 347.712C437.577 347.712 435.098 350.571 436.246 352.282C437.395 353.994 445.591 350.762 445.782 348.85C445.974 346.947 447.879 342.759 447.879 341.421C447.879 340.091 447.879 336.659 447.879 335.33C447.879 334 453.221 316.091 452.647 309.618C452.073 303.144 452.073 293.621 452.073 293.621L452.264 286.956C452.256 286.956 443.868 289.624 440.623 289.241Z" fill="white" stroke="#002E47" stroke-miterlimit="10" stroke-linecap="round" stroke-linejoin="round"/>
<path d="M443.294 348.668C440.501 349.98 438.978 347.477 438.613 346.756C438.282 347.069 437.934 347.39 437.568 347.712C437.568 347.712 435.089 350.571 436.237 352.282C437.386 353.994 445.582 350.762 445.773 348.85C445.965 346.947 447.87 342.759 447.87 341.421V341.412C446.983 343.958 445.373 347.686 443.294 348.668Z" fill="#002E47" stroke="#002E47" stroke-miterlimit="10" stroke-linecap="round" stroke-linejoin="round"/>
<path d="M428.415 230.38C428.415 230.38 421.167 246.377 420.593 254.953C420.019 263.521 425.17 286.191 425.17 286.191C425.17 286.191 434.514 290.571 442.337 290.189C450.159 289.806 455.875 287.521 455.875 287.521C455.875 287.521 462.74 267.518 460.643 255.709C458.546 243.901 453.395 231.709 453.395 231.709L428.981 228.659L428.415 230.38Z" fill="#002E47" stroke="#002E47" stroke-miterlimit="10" stroke-linecap="round" stroke-linejoin="round"/>
<path d="M439.674 190.001C439.674 190.001 442.92 188.098 445.4 188.098C447.879 188.098 449.211 188.098 449.211 188.098C449.211 188.098 450.925 194.954 450.925 195.718C450.925 196.483 443.677 231.527 443.677 231.527L429.947 230.197C429.947 230.197 429.947 208.101 431.852 201.436C433.758 194.762 439.674 190.001 439.674 190.001Z" fill="white" stroke="#002E47" stroke-miterlimit="10" stroke-linecap="round" stroke-linejoin="round"/>
<path d="M428.929 162.699C428.929 162.699 427.598 170.702 429.312 176.219C431.026 181.746 435.794 187.646 437.708 187.837C439.614 188.028 441.711 186.69 441.711 186.69L441.006 189.227L439.483 198.177L446.348 198.751C446.348 198.751 449.211 188.654 449.211 188.08C449.211 187.507 449.15 186.117 449.15 186.117L448.384 178.496C448.384 178.496 450.672 174.69 451.247 173.161C451.821 171.631 450.481 169.164 450.481 169.164C450.481 169.164 451.856 160.935 447.236 156.781C441.51 151.637 431.6 156.208 429.12 158.684C426.641 161.178 428.929 162.699 428.929 162.699Z" fill="white" stroke="#002E47" stroke-miterlimit="10" stroke-linecap="round" stroke-linejoin="round"/>
<path d="M441.711 186.699L444.33 185.934L440.571 192.547L441.711 186.699Z" fill="#002E47" stroke="#002E47" stroke-miterlimit="10" stroke-linecap="round" stroke-linejoin="round"/>
<path d="M447.244 156.799C441.145 151.655 431.609 156.225 429.129 158.702C426.649 161.178 428.938 162.699 428.938 162.699C428.938 162.699 430.269 161.369 433.706 162.699C437.143 164.028 439.805 170.893 442.285 171.649C444.765 172.413 447.053 172.796 447.053 172.796C447.053 172.796 447.053 169.937 448.384 169.555C449.715 169.172 450.481 169.172 450.481 169.172C450.481 169.172 451.986 160.796 447.244 156.799Z" fill="#002E47" stroke="#002E47" stroke-miterlimit="10" stroke-linecap="round" stroke-linejoin="round"/>
<path d="M433.314 171.275L434.845 173.56L434.08 179.652L436.559 180.034" stroke="#002E47" stroke-miterlimit="10" stroke-linecap="round" stroke-linejoin="round"/>
<path d="M435.794 182.128C435.794 182.128 437.508 182.51 438.657 181.172" stroke="#002E47" stroke-miterlimit="10" stroke-linecap="round" stroke-linejoin="round"/>
<path d="M430.46 172.413L431.035 175.081C431.035 175.081 432.94 175.272 433.897 174.699" stroke="#002E47" stroke-miterlimit="10" stroke-linecap="round" stroke-linejoin="round"/>
<path d="M438.274 171.275L438.657 174.134C438.657 174.134 441.328 174.899 442.276 174.325" stroke="#002E47" stroke-miterlimit="10" stroke-linecap="round" stroke-linejoin="round"/>
<path d="M429.695 170.511C429.695 170.511 431.217 169.746 432.749 170.128" stroke="#002E47" stroke-miterlimit="10" stroke-linecap="round" stroke-linejoin="round"/>
<path d="M436.751 169.372C436.751 169.372 437.517 168.608 439.614 168.99" stroke="#002E47" stroke-miterlimit="10" stroke-linecap="round" stroke-linejoin="round"/>
<path d="M441.005 189.245C441.005 189.245 432.618 193.242 430.703 193.624C428.798 194.006 425.361 195.527 425.553 196.865C425.744 198.195 424.787 218.771 425.361 220.1C425.935 221.43 425.361 232.1 424.978 233.43C424.595 234.759 418.496 252.095 418.496 252.095C418.496 252.095 419.827 253.615 422.69 252.477C425.553 251.33 429.555 239.147 430.321 234.386C431.086 229.624 436.237 208.674 437.568 203.912C438.9 199.151 441.005 189.245 441.005 189.245Z" fill="white" stroke="#002E47" stroke-miterlimit="10" stroke-linecap="round" stroke-linejoin="round"/>
<path d="M449.21 188.098C449.21 188.098 445.399 202.765 443.485 208.665C441.58 214.574 439.674 217.998 440.048 222.568C440.423 227.139 439.857 250.183 443.294 253.424C446.731 256.665 451.116 258.759 455.501 258.759C459.886 258.759 464.463 257.43 464.463 257.43C464.463 257.43 459.121 228.286 459.121 227.53C459.121 226.765 467.508 199.915 467.326 197.621C467.134 195.336 449.21 188.098 449.21 188.098Z" fill="white" stroke="#002E47" stroke-miterlimit="10" stroke-linecap="round" stroke-linejoin="round"/>
<path d="M433.566 206.189C433.566 210.334 434.01 214.253 434.341 216.625C435.689 211.098 436.986 205.972 437.569 203.904C438.9 199.142 441.006 189.236 441.006 189.236C441.006 189.236 438.909 190.235 436.568 191.287C435.533 194.519 433.566 201.279 433.566 206.189Z" fill="#39B4EF" stroke="#002E47" stroke-miterlimit="10" stroke-linecap="round" stroke-linejoin="round"/>
<path d="M449.21 188.098C449.21 188.098 445.399 202.765 443.485 208.665C442.467 211.828 441.449 214.279 440.779 216.581C442.224 215.478 445.138 212.958 447.879 208.856C451.012 204.164 452.987 193.581 453.587 189.931C451.064 188.845 449.21 188.098 449.21 188.098Z" fill="#39B4EF" stroke="#002E47" stroke-miterlimit="10" stroke-linecap="round" stroke-linejoin="round"/>
<path d="M415.068 228.859L413.163 234.386L411.257 227.339C411.249 227.339 413.728 226.765 415.068 228.859Z" fill="#002E47" stroke="#002E47" stroke-miterlimit="10" stroke-linecap="round" stroke-linejoin="round"/>
<path d="M401.503 207.301L412.371 226.348L426.484 227.113L417.139 207.301H401.503Z" fill="#002E47" stroke="#002E47" stroke-miterlimit="10" stroke-linecap="round" stroke-linejoin="round"/>
<path d="M411.248 227.339C411.248 227.339 405.906 219.527 405.149 217.624C404.383 215.721 404 213.818 404 212.671C404 211.524 404.383 211.15 404.958 212.48C405.532 213.809 406.672 216.668 406.672 216.668L407.629 210.951C407.629 210.951 408.203 209.995 408.777 211.142C409.352 212.289 408.777 216.668 408.777 216.668L410.3 210.003C410.3 210.003 411.066 208.674 411.631 209.621C412.205 210.577 411.248 215.904 411.248 215.904L412.962 211.906C412.962 211.906 413.92 211.906 414.111 212.862C414.302 213.818 412.78 218.953 412.78 218.953L415.259 216.477C415.259 216.477 416.217 216.095 415.834 217.242C415.451 218.389 413.354 221.239 413.354 221.239C413.354 221.239 414.502 224.098 414.502 224.671C414.502 225.245 413.737 226.765 413.737 226.765L415.068 228.859L414.302 230.38L411.248 227.339Z" fill="white" stroke="#002E47" stroke-miterlimit="10" stroke-linecap="round" stroke-linejoin="round"/>
<path d="M424.987 233.43C425.17 232.796 425.387 230.085 425.518 227.252L414.885 228.095L413.171 234.377L424.526 234.855C424.761 234.134 424.926 233.621 424.987 233.43Z" fill="white" stroke="#002E47" stroke-miterlimit="10" stroke-linecap="round" stroke-linejoin="round"/>
<path d="M441.197 221.812C441.197 221.812 435.028 216.964 433.784 215.895C432.104 214.461 429.181 214.948 429.181 214.948C429.181 214.948 424.604 217.998 423.838 218.754C423.073 219.51 423.073 220.274 423.838 220.083C424.604 219.892 427.841 217.798 427.841 217.798L428.032 220.657L432.035 221.804L433.183 220.657C433.183 220.657 434.14 221.421 435.089 221.612C436.046 221.804 436.994 221.421 436.994 221.421L440.614 224.662L441.197 221.812Z" fill="white" stroke="#002E47" stroke-miterlimit="10" stroke-linecap="round" stroke-linejoin="round"/>
<path d="M460.843 194.189C460.843 194.189 468.282 195.71 469.231 198.186C470.188 200.662 469.422 239.33 468.657 240.468C467.891 241.615 438.525 226.756 438.525 226.756L441.005 221.039L457.981 225.61L456.832 206.945" fill="white"/>
<path d="M460.843 194.189C460.843 194.189 468.282 195.71 469.231 198.186C470.188 200.662 469.422 239.33 468.657 240.468C467.891 241.615 438.525 226.756 438.525 226.756L441.005 221.039L457.981 225.61L456.832 206.945" stroke="#002E47" stroke-miterlimit="10" stroke-linecap="round" stroke-linejoin="round"/>
<path d="M429.224 220.848C429.224 220.848 429.468 216.295 429.624 215.738" stroke="#002E47" stroke-miterlimit="10" stroke-linecap="round" stroke-linejoin="round"/>
<path d="M430.747 221.091C430.747 221.091 431.147 216.859 431.304 216.138" stroke="#002E47" stroke-miterlimit="10" stroke-linecap="round" stroke-linejoin="round"/>
<path d="M433.183 220.665L433.148 219.57L432.183 219.414" stroke="#002E47" stroke-miterlimit="10" stroke-linecap="round" stroke-linejoin="round"/>
<path d="M269.972 343.393C269.972 343.393 268.823 347.078 269.719 348.85C270.607 350.631 272.521 351.005 275.184 350.753C277.855 350.501 288.157 348.216 289.549 347.955C290.95 347.703 292.603 347.069 292.603 347.069C292.603 347.069 286.878 345.166 282.301 344.401C277.724 343.637 270.859 342.368 270.859 342.368L269.972 343.393Z" fill="white" stroke="#002E47" stroke-miterlimit="10" stroke-linecap="round" stroke-linejoin="round"/>
<path d="M270.868 342.377L269.981 343.393C269.981 343.393 268.832 347.078 269.728 348.85C270.398 350.188 271.634 350.736 273.348 350.814C272.687 350.188 271.938 349.232 271.512 347.833C270.685 345.131 272.251 342.985 272.495 342.672C271.494 342.49 270.868 342.377 270.868 342.377Z" fill="white" stroke="#002E47" stroke-miterlimit="10" stroke-linecap="round" stroke-linejoin="round"/>
<path d="M279.256 314.058L274.679 328.283L259.801 327.136C259.801 327.136 268.832 335.642 275.436 339.579C282.049 343.515 294.004 347.199 301.504 345.418C309.004 343.637 327.189 326.875 327.189 326.875L311.293 327.127L307.986 313.667L279.256 314.058Z" fill="#002E47" stroke="#002E47" stroke-miterlimit="10" stroke-linecap="round" stroke-linejoin="round"/>
<path d="M292.603 244.665C292.603 244.665 283.258 246.377 282.11 249.236C280.961 252.095 281.918 258.759 282.684 263.139C283.449 267.518 285.355 268.092 282.11 271.333C278.864 274.574 281.918 277.997 284.972 279.709C288.026 281.421 292.22 279.136 293.177 277.233" fill="#002E47"/>
<path d="M292.603 244.665C292.603 244.665 283.258 246.377 282.11 249.236C280.961 252.095 281.918 258.759 282.684 263.139C283.449 267.518 285.355 268.092 282.11 271.333C278.864 274.574 281.918 277.997 284.972 279.709C288.026 281.421 292.22 279.136 293.177 277.233" stroke="#002E47" stroke-miterlimit="10" stroke-linecap="round" stroke-linejoin="round"/>
<path d="M268.197 298.565C268.197 298.565 263.237 312.277 263.751 313.424C264.255 314.571 276.846 328.031 277.228 328.031C277.611 328.031 279.647 329.299 280.282 329.299C280.918 329.299 281.048 329.299 281.431 329.169C281.814 329.039 283.589 328.917 283.589 328.917L284.99 330.185L289.566 329.682C289.566 329.682 286.643 325.745 285.372 325.241C284.102 324.737 278.629 324.094 278.629 324.094L271.634 311.139L275.192 303.014L268.197 298.565Z" fill="white" stroke="#002E47" stroke-miterlimit="10" stroke-linecap="round" stroke-linejoin="round"/>
<path d="M284.981 280.413C284.981 280.413 274.94 281.178 273.922 281.43C272.904 281.682 272.399 282.064 272.017 282.698C271.634 283.333 265.021 297.809 265.021 297.809L275.828 304.283L277.228 300.729L279.264 314.058H308.125L308.891 301.102L311.684 305.039L323.378 296.662C323.378 296.662 312.058 280.787 308.882 280.404C305.706 280.031 284.981 280.413 284.981 280.413Z" fill="white" stroke="#002E47" stroke-miterlimit="10" stroke-linecap="round" stroke-linejoin="round"/>
<path d="M289.044 273.931C289.044 273.931 288.409 277.102 288.026 278.249C287.643 279.396 284.972 280.404 284.972 280.404C284.972 280.404 287.261 286.626 293.36 288.025C297.832 289.05 301.112 284.853 301.756 283.958C302.391 283.072 303.027 279.892 303.027 279.892C303.027 279.892 300.234 277.476 300.103 276.972C299.973 276.468 299.72 274.374 299.72 274.374C299.72 274.374 292.864 275.712 289.044 273.931Z" fill="white" stroke="#002E47" stroke-miterlimit="10" stroke-linecap="round" stroke-linejoin="round"/>
<path d="M291.846 251.521L284.407 261.618C284.407 261.618 281.353 257.43 281.353 261.427C281.353 265.424 283.067 266.38 283.641 266.571C284.215 266.762 284.972 266.953 284.972 266.953C284.972 266.953 286.121 271.333 289.166 274.383C292.22 277.433 295.265 277.997 297.936 276.477C300.608 274.956 302.513 270.194 302.513 270.194C302.513 270.194 304.419 263.912 304.036 260.862C303.67 257.803 294.891 250.383 291.846 251.521Z" fill="white" stroke="#002E47" stroke-miterlimit="10" stroke-linecap="round" stroke-linejoin="round"/>
<path d="M291.124 264.685C291.219 265.294 290.95 265.841 290.532 265.911C290.114 265.971 289.697 265.528 289.601 264.92C289.505 264.312 289.775 263.764 290.193 263.695C290.619 263.625 291.037 264.068 291.124 264.685Z" fill="#002E47"/>
<path d="M296.866 264.685C296.771 265.294 297.04 265.841 297.458 265.911C297.876 265.971 298.293 265.528 298.389 264.92C298.485 264.312 298.215 263.764 297.797 263.695C297.38 263.625 296.962 264.068 296.866 264.685Z" fill="#002E47"/>
<path d="M292.951 270.333C292.951 270.333 293.194 271.315 294.308 271.072C295.422 270.829 295.535 269.969 295.535 269.969" stroke="#002E47" stroke-miterlimit="10" stroke-linecap="round" stroke-linejoin="round"/>
<path d="M291.968 272.176C291.968 272.176 294.674 273.401 296.397 271.932" stroke="#002E47" stroke-miterlimit="10" stroke-linecap="round" stroke-linejoin="round"/>
<path d="M288.157 262.835C288.157 262.835 288.653 261.236 291.724 261.853" stroke="#002E47" stroke-miterlimit="10" stroke-linecap="round" stroke-linejoin="round"/>
<path d="M295.535 261.974C295.535 261.974 296.762 261.357 297.876 261.974" stroke="#002E47" stroke-miterlimit="10" stroke-linecap="round" stroke-linejoin="round"/>
<path d="M291.655 250.756C291.655 250.756 301.191 267.709 301.765 270.186C302.339 272.662 298.711 275.712 300.616 277.997C302.522 280.283 305.385 283.142 305.385 283.142C305.385 283.142 300.999 284.853 302.522 286.191C304.045 287.521 311.867 285.427 314.155 283.142C316.443 280.856 313.198 277.424 312.441 275.33C311.675 273.236 314.346 268.474 313.59 262.183C312.824 255.9 304.628 245.803 299.859 244.092C295.091 242.38 291.28 244.474 289.749 246.377" fill="#002E47"/>
<path d="M291.655 250.756C291.655 250.756 301.191 267.709 301.765 270.186C302.339 272.662 298.711 275.712 300.616 277.997C302.522 280.283 305.385 283.142 305.385 283.142C305.385 283.142 300.999 284.853 302.522 286.191C304.045 287.521 311.867 285.427 314.155 283.142C316.443 280.856 313.198 277.424 312.441 275.33C311.675 273.236 314.346 268.474 313.59 262.183C312.824 255.9 304.628 245.803 299.859 244.092C295.091 242.38 291.28 244.474 289.749 246.377" stroke="#002E47" stroke-miterlimit="10" stroke-linecap="round" stroke-linejoin="round"/>
<path d="M290.367 275.86C290.367 275.86 289.009 277.824 290.001 278.441C290.985 279.058 292.09 279.796 292.09 279.796C292.09 279.796 291.724 283.237 292.455 284.341C293.195 285.444 296.396 286.921 296.396 286.921C296.396 286.921 302.183 294.42 306.246 298.6C310.309 302.779 318.305 311.017 320.28 311.017C322.247 311.017 324.962 306.837 324.709 303.518C324.466 300.199 314.738 295.897 312.893 294.42C311.049 292.943 299.72 285.696 299.72 285.696C299.72 285.696 299.224 279.918 299.355 278.693C299.477 277.467 299.233 275.252 299.72 274.391C300.216 273.531 298.737 274.026 297.997 275.252C297.258 276.477 297.258 277.215 297.258 277.215L290.367 275.86Z" fill="white" stroke="#002E47" stroke-miterlimit="10" stroke-linecap="round" stroke-linejoin="round"/>
<path d="M313.076 311.269H274.044V334.765H313.076V311.269Z" fill="#B3C7EB" stroke="#002E47" stroke-miterlimit="10" stroke-linecap="round" stroke-linejoin="round"/>
<path d="M293.882 341.742C293.882 341.742 312.702 334 317.784 330.064C322.874 326.128 328.085 324.225 331.131 325.111C334.185 325.997 335.96 331.845 334.568 335.651C333.167 339.457 322.23 341.238 317.531 342.889C312.824 344.54 298.459 346.956 298.459 346.956L291.846 343.272L293.882 341.742Z" fill="#002E47" stroke="#002E47" stroke-miterlimit="10" stroke-linecap="round" stroke-linejoin="round"/>
<path d="M295.152 341.994C295.152 341.994 300.112 343.141 304.558 344.41C309.004 345.679 309.77 345.809 309.77 345.809C309.77 345.809 320.455 343.654 322.108 343.272C323.761 342.889 327.198 344.288 327.572 346.704C327.955 349.12 327.067 350.64 325.788 351.274C324.518 351.909 322.351 351.909 320.829 351.909C319.306 351.909 310.788 351.144 309.509 351.022C308.238 350.892 293.995 348.233 293.995 348.233L295.152 341.994Z" fill="white" stroke="#002E47" stroke-miterlimit="10" stroke-linecap="round" stroke-linejoin="round"/>
<path d="M309.431 351.005C309.457 351.005 309.492 351.014 309.518 351.014C310.788 351.144 319.306 351.9 320.838 351.9C322.369 351.9 324.527 351.9 325.797 351.266C327.067 350.631 327.955 349.111 327.581 346.695C327.198 344.28 323.77 342.889 322.117 343.263C320.463 343.645 309.779 345.8 309.779 345.8C309.779 345.8 310.823 349.067 309.431 351.005Z" fill="white" stroke="#002E47" stroke-miterlimit="10" stroke-linecap="round" stroke-linejoin="round"/>
<path d="M293.882 341.742C293.882 341.742 285.616 339.205 277.229 333.87C268.841 328.535 257.773 324.346 256.251 324.216C254.728 324.086 250.786 327.77 251.804 332.088C252.822 336.407 261.341 341.23 262.994 341.864C264.647 342.498 287.409 348.598 291.985 348.598L293.882 341.742Z" fill="#002E47" stroke="#002E47" stroke-miterlimit="10" stroke-linecap="round" stroke-linejoin="round"/>
<path d="M290.828 340.343C290.828 340.343 288.792 347.199 288.67 347.712C288.539 348.216 288.287 348.859 289.305 349.232C290.323 349.615 292.481 349.867 293.247 349.867C294.012 349.867 294.517 348.085 294.769 347.451C295.022 346.817 295.918 343.133 295.918 341.994C295.918 340.847 293.76 340.474 292.994 340.213C292.229 339.961 290.828 340.343 290.828 340.343Z" fill="#B3C7EB" stroke="#002E47" stroke-miterlimit="10" stroke-linecap="round" stroke-linejoin="round"/>
<path d="M207.838 83.235C207.838 83.235 208.282 83.6782 210.196 83.8259C212.11 83.9736 214.173 84.5645 216.383 83.9736C218.593 83.3827 219.924 83.0873 219.184 84.1213C218.445 85.1553 213.285 87.9446 212.554 88.24C211.815 88.5355 209.457 88.6832 208.874 89.2741C208.282 89.865 207.838 91.4812 206.368 91.6289C204.897 91.7766 202.096 86.4761 202.096 86.4761L206.664 82.6528L207.838 83.235Z" fill="#B3C7EB" stroke="#002E47" stroke-miterlimit="10" stroke-linecap="round" stroke-linejoin="round"/>
<path d="M162.002 76.3183C162.002 76.3183 174.235 65.8651 181.901 61.3032C189.566 56.7413 191.185 55.4118 192.22 55.7072C193.256 56.0027 209.613 82.4964 209.613 82.4964L201.069 89.4131L190.158 68.2199C190.158 68.2199 174.679 83.0873 170.703 85.7375C166.727 88.3878 158.765 80.7325 158.321 79.5594C157.878 78.3777 162.002 76.3183 162.002 76.3183Z" fill="#002E47" stroke="#002E47" stroke-miterlimit="10" stroke-linecap="round" stroke-linejoin="round"/>
<path d="M183.754 92.3675L204.723 92.4631L199.712 87.988L180.987 87.458L183.754 92.3675Z" fill="white" stroke="#002E47" stroke-miterlimit="10" stroke-linecap="round" stroke-linejoin="round"/>
<path d="M204.723 92.4631L217.209 76.1966L209.822 73.92L199.711 87.988L204.723 92.4631Z" fill="white" stroke="#002E47" stroke-miterlimit="10" stroke-linecap="round" stroke-linejoin="round"/>
<path d="M171.138 53.0657L177.916 69.4016L188.531 83.8259C188.531 83.8259 192.359 83.9736 193.099 84.1213C193.838 84.269 195.901 84.4168 196.788 85.4421C197.675 86.4761 198.406 89.1264 198.406 89.1264L197.519 89.2741L195.753 87.3624L192.507 86.6238C192.507 86.6238 188.679 86.3284 187.791 85.8852C186.904 85.4421 182.632 82.2097 182.632 82.2097L168.484 64.5443L166.274 58.3662L171.138 53.0657Z" fill="#B3C7EB" stroke="#002E47" stroke-miterlimit="10" stroke-linecap="round" stroke-linejoin="round"/>
<path d="M187.791 81.9577L184.555 84.5645L168.432 67.8201L166.77 59.0961L172.321 53.7956L178.012 67.4117L187.791 81.9577Z" fill="#39B4EF" stroke="#002E47" stroke-miterlimit="10" stroke-linecap="round" stroke-linejoin="round"/>
<path d="M164.508 134.902C164.508 134.902 158.757 143.73 158.609 144.912C158.461 146.094 159.053 147.119 160.227 147.562C161.41 148.005 163.768 148.883 165.239 149.621C166.709 150.36 169.955 152.124 172.313 152.124C174.671 152.124 175.262 151.385 174.523 150.655C173.783 149.917 169.363 146.094 168.919 145.207C168.476 144.321 167.301 141.088 167.301 140.645C167.301 140.202 168.624 136.083 168.624 136.083L164.508 134.902Z" fill="#B3C7EB" stroke="#002E47" stroke-miterlimit="10" stroke-linecap="round" stroke-linejoin="round"/>
<path d="M142.99 73.8158C142.99 73.8158 138.971 78.6731 139.745 85.2944C140.633 92.8019 146.819 94.7136 152.422 96.3298C158.026 97.946 179.247 103.542 179.247 103.542C179.247 103.542 173.2 109.868 170.99 115.168C168.78 120.469 162.881 135.779 162.881 135.779L173.644 140.784L187.496 112.527C187.496 112.527 190.889 106.488 191.472 103.403C192.064 100.31 191.176 98.3979 190.88 97.9547C190.584 97.5115 172.313 85.1466 168.919 82.9396C165.526 80.7325 162.733 79.6984 162.733 79.6984L142.99 73.8158Z" fill="#002E47" stroke="#002E47" stroke-miterlimit="10" stroke-linecap="round" stroke-linejoin="round"/>
<path d="M170.555 44.8195C170.555 44.8195 168.197 36.8688 164.508 35.8434C160.827 34.8094 156.547 38.4937 153.162 42.4647C149.769 46.4357 150.36 55.8636 150.36 58.5052C150.36 61.1554 142.843 72.7817 142.103 75.2843C142.103 75.2843 145.201 77.4914 151.239 78.8208C157.286 80.1416 163.472 79.8549 163.472 79.8549C163.472 79.8549 164.656 71.461 164.943 68.8194C165.239 66.1692 167.301 62.3459 168.919 61.3118C170.538 60.2778 172.165 57.3408 172.313 53.8043C172.469 50.2677 170.555 44.8195 170.555 44.8195Z" fill="#39B4EF" stroke="#002E47" stroke-miterlimit="10" stroke-linecap="round" stroke-linejoin="round"/>
<path d="M182.641 83.6782L186.182 85.2944C186.182 85.2944 193.552 85.7375 194.143 85.7375C194.735 85.7375 196.058 90.004 196.058 90.004C196.058 90.004 195.614 90.4471 195.022 89.8563C194.43 89.2654 193.839 88.5355 193.839 88.5355C193.839 88.5355 190.158 88.8309 188.679 88.8309C187.209 88.8309 184.555 87.067 184.555 87.067L181.014 85.5985L182.641 83.6782Z" fill="#B3C7EB" stroke="#002E47" stroke-miterlimit="10" stroke-linecap="round" stroke-linejoin="round"/>
<path d="M156.25 45.9926C156.25 45.9926 160.818 61.7463 162.437 65.7173C164.055 69.6883 168.188 74.5457 169.659 76.466C171.129 78.3777 182.188 86.9193 182.188 86.9193L184.546 84.5645L172.8 66.9947C172.8 66.9947 166.857 43.4987 167.005 42.7601C167.153 42.0216 165.239 39.9622 163.907 39.6667" fill="#39B4EF"/>
<path d="M156.25 45.9926C156.25 45.9926 160.818 61.7463 162.437 65.7173C164.055 69.6883 168.188 74.5457 169.659 76.466C171.129 78.3777 182.188 86.9193 182.188 86.9193L184.546 84.5645L172.8 66.9947C172.8 66.9947 166.857 43.4987 167.005 42.7601C167.153 42.0216 165.239 39.9622 163.907 39.6667" stroke="#002E47" stroke-miterlimit="10" stroke-linecap="round" stroke-linejoin="round"/>
<path d="M191.481 20.2374C191.481 20.2374 191.924 25.5379 191.185 27.3018C190.445 29.0658 187.061 30.0998 187.061 31.5683C187.061 33.0368 187.208 34.514 186.469 35.1049C185.729 35.6957 184.407 35.1049 184.407 35.1049C184.407 35.1049 184.111 36.2866 182.936 37.1642C181.753 38.0505 181.962 38.0245 181.962 38.0245C181.962 38.0245 180.283 39.6667 178.368 39.6667C176.454 39.6667 174.975 37.0165 174.54 36.7211C174.096 36.4256 172.895 37.2598 171.738 38.0418C170.216 39.0846 169.084 44.6631 169.084 44.6631C169.084 44.6631 164.812 36.5647 164.369 36.4169C163.925 36.2692 161.228 36.0867 161.228 36.0867C161.228 36.0867 165.552 33.9144 166.144 32.1505C166.735 30.3866 166.144 27.5886 166.144 26.9977C166.144 26.4068 166.439 20.3765 168.945 17.2831C171.451 14.1897 182.066 13.312 186.043 13.0166C190.01 12.7299 191.481 20.2374 191.481 20.2374Z" fill="#B3C7EB" stroke="#002E47" stroke-miterlimit="10" stroke-linecap="round" stroke-linejoin="round"/>
<path d="M191.481 20.2374C191.481 20.2374 190.01 19.3511 189.714 21.8536C189.419 24.3562 189.862 24.5039 188.096 24.6516C186.33 24.7993 185.59 25.2425 185.59 26.2678C185.59 27.3018 184.268 27.7363 183.232 27.7363C182.197 27.7363 181.318 26.2678 180.726 27.7363C180.135 29.2048 178.073 29.9434 176.75 29.9434C175.428 29.9434 175.28 30.8297 172.922 31.2642C170.564 31.7073 170.12 29.2048 170.12 29.2048C170.12 29.2048 167.17 29.7957 166.292 29.7957C165.404 29.7957 165.552 26.1201 165.552 26.1201C165.552 26.1201 163.046 26.5633 162.159 26.4155C161.271 26.2678 160.54 24.2084 160.54 23.4699C160.54 22.7313 158.922 21.5582 158.922 20.5242C158.922 19.4901 158.922 18.7602 158.922 18.7602C158.922 18.7602 158.478 16.2577 158.774 15.6668C159.07 15.076 160.984 13.9029 160.984 13.1643C160.984 12.4257 160.392 9.04558 161.428 7.71612C162.463 6.39534 163.49 5.06588 164.525 5.06588C165.561 5.06588 165.848 3.15423 167.475 2.85879C169.093 2.56335 169.685 2.56335 170.868 2.56335C172.052 2.56335 172.783 1.09485 174.114 0.799417C175.436 0.50398 178.682 1.09485 179.273 1.39029C179.865 1.68573 180.309 1.68573 181.483 1.24257C182.667 0.799419 185.025 1.39029 185.903 2.2766C186.791 3.16291 188.409 3.7451 189.149 3.7451C189.889 3.7451 190.619 3.30194 191.655 5.21359C192.69 7.12524 194.456 7.42068 195.483 8.30699C196.519 9.1933 196.667 10.3664 196.519 11.4004C196.371 12.4344 197.11 13.312 197.702 14.4938C198.294 15.6755 198.146 16.8486 197.554 17.5872C196.962 18.3258 197.406 19.7943 197.554 20.3851C197.702 20.976 196.084 22.1491 194.752 22.5922C193.395 23.0354 192.072 23.774 191.481 20.2374Z" fill="#002E47" stroke="#002E47" stroke-miterlimit="10" stroke-linecap="round" stroke-linejoin="round"/>
<path d="M186.652 30.4995C186.338 31.073 185.877 31.4293 185.616 31.2902C185.364 31.1512 185.407 30.569 185.721 29.9955C186.034 29.422 186.495 29.0658 186.756 29.2048C187.008 29.3438 186.965 29.926 186.652 30.4995Z" fill="#002E47"/>
<path d="M185.921 27.3453C185.921 27.3453 187.504 26.5546 188.427 28.9267" stroke="#002E47" stroke-miterlimit="10" stroke-linecap="round" stroke-linejoin="round"/>
<path d="M71.3042 198.29C71.3042 198.29 73.9579 202.461 74.7236 203.73C75.4893 204.998 75.3588 207.796 75.3588 207.796L78.4128 210.846L74.8541 213.636C74.8541 213.636 71.0431 211.098 70.2775 210.716C69.5118 210.334 68.2414 210.082 67.8586 210.082C67.4758 210.082 63.9171 205.641 63.9171 205.641L61.7593 204.242L63.0296 200.689L68.6243 202.339L71.3042 198.29Z" fill="#E2EDFF" stroke="#002E47" stroke-miterlimit="10" stroke-linecap="round" stroke-linejoin="round"/>
<path d="M58.3223 198.838L70.9125 210.838L75.4892 206.841L64.2389 196.17L58.3223 198.838Z" fill="#002E47" stroke="#002E47" stroke-miterlimit="10" stroke-linecap="round" stroke-linejoin="round"/>
<path d="M69.5115 197.795C69.0678 197.804 68.6937 198.117 68.6066 198.551C68.3456 199.941 67.9193 202.8 68.7546 203.043C69.8683 203.365 70.3468 202.722 70.5034 201.931C70.6601 201.14 71.6172 198.916 71.2952 198.282C71.0516 197.786 70.4077 197.778 69.5115 197.795Z" fill="#E2EDFF" stroke="#002E47" stroke-miterlimit="10" stroke-linecap="round" stroke-linejoin="round"/>
<path d="M60.9933 200.558C60.9933 200.558 59.2792 203.799 60.6105 204.746C61.9417 205.702 61.9417 203.791 62.3245 202.652C62.7074 201.505 62.7074 199.985 60.9933 200.558Z" fill="#E2EDFF" stroke="#002E47" stroke-miterlimit="10" stroke-linecap="round" stroke-linejoin="round"/>
<path d="M64.2388 203.791C64.2388 203.791 62.7161 206.841 63.2817 207.788C63.856 208.744 64.6129 207.788 64.9958 206.832C65.3786 205.876 65.5526 205.685 65.57 204.929C65.6048 203.269 64.2388 203.791 64.2388 203.791Z" fill="#E2EDFF" stroke="#002E47" stroke-miterlimit="10" stroke-linecap="round" stroke-linejoin="round"/>
<path d="M65.8223 205.155C65.8223 205.155 64.2996 208.205 64.8652 209.152C65.4395 210.108 66.1964 209.152 66.5793 208.196C66.9621 207.24 67.1361 207.049 67.1535 206.293C67.197 204.625 65.8223 205.155 65.8223 205.155Z" fill="#E2EDFF" stroke="#002E47" stroke-miterlimit="10" stroke-linecap="round" stroke-linejoin="round"/>
<path d="M67.6324 206.658C67.6324 206.658 66.1097 209.708 66.6753 210.655C67.2495 211.611 68.0065 210.655 68.3893 209.699C68.7722 208.744 68.9462 208.552 68.9636 207.796C69.0071 206.137 67.6324 206.658 67.6324 206.658Z" fill="#E2EDFF" stroke="#002E47" stroke-miterlimit="10" stroke-linecap="round" stroke-linejoin="round"/>
<path d="M78.1604 209.065L72.6875 214.652L87.1832 226.461L88.5841 216.686L78.1604 209.065Z" fill="#39B4EF" stroke="#002E47" stroke-miterlimit="10" stroke-linecap="round" stroke-linejoin="round"/>
<path d="M85.2167 233.23C85.2167 233.23 82.4672 243.344 82.6412 244.882C82.8153 246.42 82.8153 247.628 82.8153 247.628C82.8153 247.628 75.0975 257.056 71.1473 265.45C67.1971 273.844 66.8578 278.64 68.0585 279.501C69.2592 280.361 85.5647 287.556 87.2788 287.895C88.9929 288.233 88.9929 288.233 88.9929 288.233L102.888 293.03L104.263 294.568L107.012 293.708C108.213 293.021 108.901 288.399 109.24 286.513C109.579 284.627 110.441 283.767 109.579 283.602C108.718 283.428 107.178 283.602 107.178 283.602C107.178 283.602 107.691 282.577 106.838 282.577C105.977 282.577 104.437 282.577 104.437 282.577C104.437 282.577 93.1084 277.954 91.229 276.92C89.3409 275.895 84.538 273.323 84.538 273.323L95.6926 265.268C95.6926 265.268 109.249 257.386 111.137 254.128C113.025 250.869 114.052 244.7 114.052 242.137C114.052 239.573 95.3446 230.823 92.0904 230.823C88.8363 230.823 85.382 231.518 85.2167 233.23Z" fill="#002E47" stroke="#002E47" stroke-miterlimit="10" stroke-linecap="round" stroke-linejoin="round"/>
<path d="M109.579 283.611C109.579 283.611 119.185 283.95 120.56 284.636C121.935 285.323 121.935 287.721 121.935 289.433C121.935 291.144 120.56 295.089 120.908 296.975C121.247 298.86 121.317 301.102 121.595 303.831C122.109 308.975 120.612 309.505 119.707 309.314C116.444 308.627 116.105 304.691 114.556 300.92C113.016 297.149 112.155 295.098 112.155 295.098L107.004 293.725C107.004 293.716 108.039 286.183 109.579 283.611Z" fill="white" stroke="#002E47" stroke-miterlimit="10" stroke-linecap="round" stroke-linejoin="round"/>
<path d="M120.56 284.636C120.203 284.454 119.281 284.306 118.115 284.167C118.567 285.879 119.185 288.824 119.185 292.17C119.185 297.479 120.212 303.648 119.698 307.593C119.611 308.228 119.524 308.766 119.437 309.236C119.524 309.262 119.603 309.288 119.698 309.314C120.603 309.505 122.1 308.975 121.586 303.831C121.317 301.102 121.247 298.86 120.899 296.975C120.56 295.089 121.926 291.153 121.926 289.433C121.934 287.721 121.934 285.323 120.56 284.636Z" fill="white" stroke="#002E47" stroke-miterlimit="10" stroke-linecap="round" stroke-linejoin="round"/>
<path d="M87.3136 247.602C87.3136 247.602 89.4105 260.558 88.6449 268.17C87.8792 275.79 88.4534 292.743 89.2191 297.505C89.9848 302.267 89.4105 316.552 89.4105 319.028C89.4105 321.505 89.2191 322.643 89.2191 322.643C89.2191 322.643 87.1222 322.452 87.3136 323.599C87.505 324.746 87.505 325.884 87.505 325.884C87.505 325.884 89.2191 327.405 92.0817 327.978C94.9443 328.552 97.9983 329.125 98.5639 328.361C99.1382 327.596 98.9467 325.12 98.9467 325.12C98.9467 325.12 99.9038 324.355 99.9038 322.834C99.9038 321.314 99.9038 320.549 99.9038 320.549C99.9038 320.549 102.575 309.505 102.384 302.831C102.192 296.167 100.861 292.352 101.235 290.64C101.618 288.929 110.197 262.835 110.197 262.835C110.197 262.835 112.868 257.117 113.442 253.502C114.017 249.887 112.485 246.073 111.346 244.552C110.197 243.032 92.656 238.27 92.656 238.27" fill="#002E47"/>
<path d="M87.3136 247.602C87.3136 247.602 89.4105 260.558 88.6449 268.17C87.8792 275.79 88.4534 292.743 89.2191 297.505C89.9848 302.267 89.4105 316.552 89.4105 319.028C89.4105 321.505 89.2191 322.643 89.2191 322.643C89.2191 322.643 87.1222 322.452 87.3136 323.599C87.505 324.746 87.505 325.884 87.505 325.884C87.505 325.884 89.2191 327.405 92.0817 327.978C94.9443 328.552 97.9983 329.125 98.5639 328.361C99.1382 327.596 98.9467 325.12 98.9467 325.12C98.9467 325.12 99.9038 324.355 99.9038 322.834C99.9038 321.314 99.9038 320.549 99.9038 320.549C99.9038 320.549 102.575 309.505 102.384 302.832C102.192 296.167 100.861 292.352 101.235 290.64C101.618 288.929 110.197 262.835 110.197 262.835C110.197 262.835 112.868 257.117 113.442 253.502C114.017 249.887 112.485 246.073 111.346 244.552C110.197 243.032 92.656 238.27 92.656 238.27" stroke="#002E47" stroke-miterlimit="10" stroke-linecap="round" stroke-linejoin="round"/>
<path d="M92.1514 188.315C92.1514 188.315 87.479 198.073 87.479 204.147C87.479 210.229 85.6344 220.544 85.6344 223.376C85.6344 226.2 83.0851 230.441 84.2162 232.848C85.3473 235.255 91.8643 235.255 92.4298 235.255C92.9954 235.255 96.6759 235.394 97.3806 235.116C98.0854 234.829 99.3644 211.507 99.3644 206.137C99.3644 200.767 99.6516 187.055 99.5037 185.352C99.3557 183.649 93.8481 185.204 92.1514 188.315Z" fill="white" stroke="#002E47" stroke-miterlimit="10" stroke-linecap="round" stroke-linejoin="round"/>
<path d="M99.904 178.652C99.904 178.652 94.3702 187.029 93.039 199.794C91.7077 212.558 88.0795 235.22 90.7506 237.696C93.4218 240.173 100.095 241.885 103.149 243.414C106.203 244.935 111.163 247.411 112.877 248.367C114.591 249.323 117.454 248.176 117.454 248.176C117.454 248.176 119.742 227.982 118.976 219.032C118.211 210.082 117.071 195.032 113.443 187.794C109.823 180.555 100.852 177.697 99.904 178.652Z" fill="#39B4EF" stroke="#002E47" stroke-miterlimit="10" stroke-linecap="round" stroke-linejoin="round"/>
<path d="M100.287 243.414L97.9985 245.89L101.81 251.034L104.098 246.646L100.287 243.414Z" fill="#E2EDFF" stroke="#002E47" stroke-miterlimit="10" stroke-linecap="round" stroke-linejoin="round"/>
<path d="M100.287 191.6C100.287 191.6 97.0416 199.985 98.7644 206.841C100.478 213.696 105.055 227.982 105.055 227.982L99.3299 243.414L105.055 248.558C105.055 248.558 117.071 228.746 117.071 226.079C117.071 223.411 114.4 196.17 113.26 192.555C112.112 188.941 110.206 185.508 107.343 185.508" fill="#39B4EF"/>
<path d="M100.287 191.6C100.287 191.6 97.0416 199.985 98.7644 206.841C100.478 213.696 105.055 227.982 105.055 227.982L99.3299 243.414L105.055 248.558C105.055 248.558 117.071 228.746 117.071 226.079C117.071 223.411 114.4 196.17 113.26 192.555C112.112 188.941 110.206 185.508 107.343 185.508" stroke="#002E47" stroke-miterlimit="10" stroke-linecap="round" stroke-linejoin="round"/>
<path d="M88.2709 326.458C88.2709 326.458 86.9397 327.031 86.9397 327.978C86.9397 328.934 85.7911 334.07 85.7911 334.07C85.7911 334.07 76.4464 337.311 74.7323 337.684C73.0182 338.067 72.444 341.117 73.0182 342.064C73.5925 343.02 79.8832 343.776 85.417 343.967C90.9508 344.158 97.433 344.158 98.0072 343.202C98.5815 342.246 98.3901 332.914 98.3901 332.914L98.5815 328.343C98.5641 328.361 93.4131 327.978 88.2709 326.458Z" fill="white" stroke="#002E47" stroke-miterlimit="10" stroke-linecap="round" stroke-linejoin="round"/>
<path d="M72.8354 341.542C72.8703 341.751 72.9225 341.933 73.0095 342.072C73.5837 343.028 79.8745 343.784 85.4083 343.975C90.942 344.167 97.4242 344.167 97.9985 343.211C98.0942 343.054 98.1638 342.672 98.2247 342.142C90.0284 343.55 78.2213 342.272 72.8354 341.542Z" fill="white" stroke="#002E47" stroke-miterlimit="10" stroke-linecap="round" stroke-linejoin="round"/>
<path d="M72.6263 155.226C72.6263 155.226 68.6239 158.841 69.0068 163.985C69.3896 169.129 70.1553 171.032 70.7208 171.605C71.2951 172.179 73.0092 173.126 73.0092 173.126C73.0092 173.126 72.6263 178.653 73.7749 179.035C74.9234 179.417 77.0203 179.226 77.0203 179.226C77.0203 179.226 80.0743 184.752 81.7884 184.944C83.5025 185.135 86.9393 181.702 86.9393 181.702L92.6645 186.847L99.1467 176.941L95.5271 172.944C95.5271 172.944 97.2412 162.273 94.7615 156.564C92.273 150.838 77.3944 147.988 72.6263 155.226Z" fill="#E2EDFF" stroke="#002E47" stroke-miterlimit="10" stroke-linecap="round" stroke-linejoin="round"/>
<path d="M86.9307 181.702L89.5931 179.009L89.1755 182.954L86.9307 181.702Z" fill="#002E47" stroke="#002E47" stroke-miterlimit="10" stroke-linecap="round" stroke-linejoin="round"/>
<path d="M89.6016 172.17C89.6016 172.17 93.0037 172.422 95.6052 172.309C95.9272 169.954 96.8756 161.439 94.7526 156.547C92.2728 150.829 77.3943 147.979 72.6262 155.217C72.6262 155.217 70.5205 157.129 69.5112 160.135C69.781 160.587 70.1638 160.831 70.7207 160.361C72.0519 159.214 76.063 158.841 76.4459 160.935C76.8287 163.029 76.4459 164.932 78.7342 164.367C81.0225 163.794 82.3538 164.558 82.3538 164.558C82.3538 164.558 83.8764 167.226 84.8335 166.652C85.7906 166.079 85.0249 164.941 86.1648 163.603C87.3133 162.273 91.6985 164.367 91.89 167.217C92.0814 170.067 89.6016 172.17 89.6016 172.17Z" fill="#002E47" stroke="#002E47" stroke-miterlimit="10" stroke-linecap="round" stroke-linejoin="round"/>
<path d="M76.5245 171.492C76.9422 171.996 77.0466 172.596 76.7595 172.839C76.4723 173.083 75.8981 172.865 75.4804 172.361C75.0628 171.857 74.9584 171.258 75.2455 171.015C75.5326 170.771 76.1069 170.988 76.5245 171.492Z" fill="#002E47"/>
<path d="M73.688 170.815C73.688 170.815 73.2268 169.051 75.4543 169.051" stroke="#002E47" stroke-miterlimit="10" stroke-linecap="round" stroke-linejoin="round"/>
<path d="M98.6595 175.168L90.4546 187.602L94.1351 192.408L102.34 177.853L98.6595 175.168Z" fill="white" stroke="#002E47" stroke-miterlimit="10" stroke-linecap="round" stroke-linejoin="round"/>
</g>
<defs>
<clipPath id="clip0_266_55989">
<rect width="576" height="358" fill="white"/>
</clipPath>
</defs>
</svg>
