<svg width="471" height="423" viewBox="0 0 471 423" fill="none" xmlns="http://www.w3.org/2000/svg">
<g clip-path="url(#clip0_266_56665)">
<path d="M436.543 206.005C431.808 246.131 413.48 292.789 376.872 314.216C321.57 346.603 326.197 396.424 218.252 418.078C201.426 421.458 185.45 422.881 170.394 422.595C162.297 422.447 154.458 421.794 146.905 420.677C78.2966 410.656 32.1292 362.989 15.1946 305.44C-7.09824 229.764 37.4083 180.21 66.9079 150.363C96.4076 120.506 118.018 27.4851 223.966 5.36655C240.12 1.99639 256.639 0.2866 273.158 0.69181C310.854 1.62083 351.969 13.9946 380.421 39.8193C382.556 41.7564 384.632 43.7726 386.659 45.848C426.203 86.4185 443.009 151.302 436.543 206.005Z" fill="#39B4EF"/>
<path opacity="0.7" d="M436.543 206.005C431.808 246.131 413.48 292.789 376.872 314.216C321.57 346.603 326.197 396.424 218.252 418.078C201.426 421.458 185.45 422.881 170.394 422.595C162.297 422.447 154.458 421.794 146.905 420.677C78.2966 410.656 32.1292 362.989 15.1946 305.44C-7.09824 229.764 37.4083 180.21 66.9079 150.363C96.4076 120.506 118.018 27.4851 223.966 5.36655C240.12 1.99639 256.639 0.2866 273.158 0.69181C310.854 1.62083 351.969 13.9946 380.421 39.8193C382.556 41.7564 384.632 43.7726 386.659 45.848C426.203 86.4185 443.009 151.302 436.543 206.005Z" fill="white"/>
<path d="M405.333 379.119V267.587" stroke="#002E47" stroke-miterlimit="10" stroke-linecap="round" stroke-linejoin="round"/>
<path d="M396.288 379.119V323.812" stroke="#002E47" stroke-miterlimit="10" stroke-linecap="round" stroke-linejoin="round"/>
<path d="M408.161 285.871C408.161 285.871 399.046 284.823 395.339 277.609C391.632 270.394 391.246 251.784 405.442 231.207C419.639 210.63 427.083 210.363 429.554 227.194C432.026 244.026 431.67 268.467 425.867 277.727C420.044 286.988 408.161 285.871 408.161 285.871Z" fill="white" stroke="#002E47" stroke-miterlimit="10" stroke-linecap="round" stroke-linejoin="round"/>
<path d="M411.394 247.02C413.075 241.288 415.081 236.129 417.415 232.64" stroke="#002E47" stroke-miterlimit="10" stroke-linecap="round" stroke-linejoin="round"/>
<path d="M404.365 284.586C404.365 284.586 406.243 266.589 410.316 250.904" stroke="#002E47" stroke-miterlimit="10" stroke-linecap="round" stroke-linejoin="round"/>
<path d="M413.588 322.073C413.588 322.073 407.736 317.537 408.21 311.014C408.675 304.491 416.198 291.494 434.606 283.252C453.014 275.009 458.253 277.935 452.905 290.575C447.566 303.206 437.087 319.918 429.198 323.872C421.319 327.815 413.588 322.073 413.588 322.073Z" fill="white" stroke="#002E47" stroke-miterlimit="10" stroke-linecap="round" stroke-linejoin="round"/>
<path d="M432.085 296.634C435.644 293.382 439.183 290.664 442.258 289.241" stroke="#002E47" stroke-miterlimit="10" stroke-linecap="round" stroke-linejoin="round"/>
<path d="M429.722 298.867C420.341 307.98 411.512 319.592 411.512 319.592C411.512 319.592 406.797 325.927 405.393 338.538" stroke="#002E47" stroke-miterlimit="10" stroke-linecap="round" stroke-linejoin="round"/>
<path d="M410.237 359.787C410.237 359.787 406.846 357.158 407.123 353.383C407.39 349.607 411.75 342.076 422.417 337.293C433.083 332.519 436.118 334.209 433.024 341.533C429.93 348.856 423.86 358.532 419.293 360.825C414.715 363.118 410.237 359.787 410.237 359.787Z" fill="white" stroke="#002E47" stroke-miterlimit="10" stroke-linecap="round" stroke-linejoin="round"/>
<path d="M420.953 345.051C423.019 343.174 425.066 341.592 426.845 340.762" stroke="#002E47" stroke-miterlimit="10" stroke-linecap="round" stroke-linejoin="round"/>
<path d="M419.589 346.346C414.152 351.624 409.041 358.354 409.041 358.354C409.041 358.354 406.312 362.031 405.501 369.334" stroke="#002E47" stroke-miterlimit="10" stroke-linecap="round" stroke-linejoin="round"/>
<path d="M397.069 306.991C397.069 306.991 402.921 302.455 402.447 295.932C401.982 289.409 394.459 276.413 376.051 268.17C357.644 259.928 352.404 262.853 357.753 275.494C363.091 288.124 373.57 304.837 381.459 308.79C389.338 312.733 397.069 306.991 397.069 306.991Z" fill="white" stroke="#002E47" stroke-miterlimit="10" stroke-linecap="round" stroke-linejoin="round"/>
<path d="M378.573 281.552C375.014 278.3 371.474 275.582 368.4 274.159" stroke="#002E47" stroke-miterlimit="10" stroke-linecap="round" stroke-linejoin="round"/>
<path d="M380.935 283.786C390.317 292.898 399.145 304.511 399.145 304.511C399.145 304.511 403.861 310.846 405.264 323.457" stroke="#002E47" stroke-miterlimit="10" stroke-linecap="round" stroke-linejoin="round"/>
<path d="M394.192 357.366C394.192 357.366 400.114 357.554 403.08 353.986C406.045 350.418 407.825 340.466 400.41 328.25C393.006 316.044 388.261 315.293 385.295 324.119C382.329 332.944 380.55 346.099 383.515 351.545C386.491 356.99 394.192 357.366 394.192 357.366Z" fill="white" stroke="#002E47" stroke-miterlimit="10" stroke-linecap="round" stroke-linejoin="round"/>
<path d="M395.122 348.293C395.211 349.509 395.27 350.724 395.3 351.92" stroke="#002E47" stroke-miterlimit="10" stroke-linecap="round" stroke-linejoin="round"/>
<path d="M390.574 323.585C390.574 323.585 393.678 334.101 394.864 345.457" stroke="#002E47" stroke-miterlimit="10" stroke-linecap="round" stroke-linejoin="round"/>
<path d="M11.7544 285.327H148.586V6.12756" stroke="#002E47" stroke-miterlimit="10" stroke-linecap="round" stroke-linejoin="round"/>
<path d="M293.79 285.327H156.959V6.12756" stroke="#002E47" stroke-miterlimit="10" stroke-linecap="round" stroke-linejoin="round"/>
<path d="M212.805 285.327H349.636V6.12756" stroke="#002E47" stroke-miterlimit="10" stroke-linecap="round" stroke-linejoin="round"/>
<path d="M321.718 71.6827L273.89 124.518" stroke="#002E47" stroke-miterlimit="10" stroke-linecap="round" stroke-linejoin="round"/>
<path d="M295.184 112.56L281.917 127.216" stroke="#002E47" stroke-miterlimit="10" stroke-linecap="round" stroke-linejoin="round"/>
<path d="M189.771 57.8068L163.939 86.3395" stroke="#002E47" stroke-miterlimit="10" stroke-linecap="round" stroke-linejoin="round"/>
<path d="M196.75 50.8589L214.209 31.5768" stroke="#002E47" stroke-miterlimit="10" stroke-linecap="round" stroke-linejoin="round"/>
<path d="M143 227.481L126.244 245.992" stroke="#002E47" stroke-miterlimit="10" stroke-linecap="round" stroke-linejoin="round"/>
<path d="M137.415 202.803L106.343 237.127" stroke="#002E47" stroke-miterlimit="10" stroke-linecap="round" stroke-linejoin="round"/>
<path d="M452.61 94.7979C462.767 69.407 450.411 40.5923 425.013 30.4387C399.615 20.285 370.792 32.6373 360.636 58.0283C350.479 83.4193 362.835 112.234 388.233 122.388C413.631 132.541 442.454 120.189 452.61 94.7979Z" stroke="#002E47" stroke-miterlimit="10" stroke-linecap="round" stroke-linejoin="round"/>
<path d="M406.609 119.616C430.485 119.616 449.84 100.266 449.84 76.397C449.84 52.5277 430.485 33.1779 406.609 33.1779C382.733 33.1779 363.378 52.5277 363.378 76.397C363.378 100.266 382.733 119.616 406.609 119.616Z" stroke="#002E47" stroke-miterlimit="10" stroke-linecap="round" stroke-linejoin="round"/>
<path d="M406.609 79.352C408.242 79.352 409.565 78.029 409.565 76.397C409.565 74.7649 408.242 73.4419 406.609 73.4419C404.977 73.4419 403.653 74.7649 403.653 76.397C403.653 78.029 404.977 79.352 406.609 79.352Z" stroke="#002E47" stroke-miterlimit="10" stroke-linecap="round" stroke-linejoin="round"/>
<path d="M406.609 79.3521V93.8704" stroke="#002E47" stroke-miterlimit="10" stroke-linecap="round" stroke-linejoin="round"/>
<path d="M403.653 76.397H368.4" stroke="#002E47" stroke-miterlimit="10" stroke-linecap="round" stroke-linejoin="round"/>
<path d="M181.674 195.904L165.382 170.633C172.322 159.426 176.345 146.222 176.345 132.069C176.345 91.5578 143.494 58.7258 102.982 58.7258C62.4593 58.7258 29.6182 91.5676 29.6182 132.069C29.6182 172.57 62.4692 205.412 102.982 205.412C124.395 205.412 143.662 196.23 157.078 181.603L181.674 195.904Z" fill="#002E47" stroke="#002E47" stroke-miterlimit="10" stroke-linecap="round" stroke-linejoin="round"/>
<path d="M183.226 189.708L166.934 164.436C173.874 153.229 177.898 140.025 177.898 125.872C177.898 85.361 145.047 52.5291 104.534 52.5291C64.0214 52.5291 31.1704 85.3708 31.1704 125.872C31.1704 166.383 64.0214 199.215 104.534 199.215C125.947 199.215 145.215 190.034 158.63 175.407L183.226 189.708Z" fill="white" stroke="#002E47" stroke-miterlimit="10" stroke-linecap="round" stroke-linejoin="round"/>
<path d="M53.0282 136.427V129.578L64.2883 112.283C65.1385 111.008 65.9392 109.772 66.7004 108.567C67.4518 107.371 68.0746 106.145 68.559 104.91C69.0434 103.674 69.2807 102.38 69.2807 101.026C69.2807 99.6718 69.0138 98.6637 68.47 98.0114C67.9263 97.3492 67.1947 97.0231 66.2655 97.0231C65.2176 97.0231 64.4069 97.3097 63.8236 97.8928C63.2404 98.4759 62.8449 99.2468 62.6373 100.215C62.4198 101.184 62.321 102.271 62.321 103.467V105.789H52.9194V103.289C52.9194 100.502 53.3643 98.0213 54.254 95.8272C55.1438 93.643 56.5575 91.9234 58.4951 90.6583C60.4328 89.4031 62.9636 88.7706 66.0974 88.7706C70.3187 88.7706 73.502 89.8677 75.6472 92.0518C77.7925 94.236 78.87 97.2899 78.87 101.194C78.87 103.091 78.5735 104.851 77.9704 106.471C77.3674 108.092 76.5765 109.674 75.5879 111.205C74.5993 112.737 73.5415 114.329 72.4244 115.999L63.8335 128.827H77.5948V136.427H53.0282Z" fill="#002E47" stroke="#002E47" stroke-miterlimit="10" stroke-linecap="round" stroke-linejoin="round"/>
<path d="M95.4685 136.427V125.862H81.0054V118.727L93.2541 89.4131H104.514V118.667H108.864V125.862H104.514V136.427H95.4685ZM88.3803 118.667H95.4685V99.1085L88.3803 118.667Z" fill="#002E47" stroke="#002E47" stroke-miterlimit="10" stroke-linecap="round" stroke-linejoin="round"/>
<path d="M112.482 136.427L126.886 89.4131H131.997L117.544 136.427H112.482Z" fill="#002E47" stroke="#002E47" stroke-miterlimit="10" stroke-linecap="round" stroke-linejoin="round"/>
<path d="M138.255 136.427L148.477 96.7859H135.645V89.4131H157.938V96.0842L147.716 136.427H138.255Z" fill="#002E47" stroke="#002E47" stroke-miterlimit="10" stroke-linecap="round" stroke-linejoin="round"/>
<path d="M62.1627 166.512C60.838 166.512 59.7407 166.235 58.8707 165.682C58.0008 165.128 57.3384 164.357 56.9034 163.369C56.4586 162.381 56.1916 161.224 56.0928 159.9L58.1095 159.297C58.2084 160.295 58.3863 161.204 58.6532 162.015C58.9103 162.825 59.3255 163.468 59.889 163.932C60.4525 164.407 61.2236 164.634 62.2023 164.634C63.2799 164.634 64.1301 164.357 64.7232 163.794C65.3263 163.23 65.6228 162.341 65.6228 161.115C65.6228 160.058 65.3559 159.129 64.8221 158.338C64.2882 157.548 63.5666 156.717 62.6472 155.858L58.3468 151.746C57.5856 151.005 57.0221 150.244 56.6662 149.443C56.3103 148.653 56.1224 147.783 56.1224 146.844C56.1224 145.164 56.6266 143.869 57.6251 142.97C58.6236 142.071 59.9582 141.616 61.619 141.616C62.4791 141.616 63.2601 141.725 63.9521 141.942C64.6441 142.16 65.2373 142.515 65.7217 143.009C66.216 143.504 66.6015 144.136 66.8783 144.917C67.1552 145.698 67.3529 146.647 67.4517 147.773L65.4943 148.287C65.4152 147.269 65.2472 146.39 65 145.658C64.7529 144.927 64.3574 144.373 63.8236 143.988C63.2897 143.612 62.5582 143.415 61.619 143.415C60.6205 143.415 59.8 143.672 59.1574 144.195C58.5148 144.719 58.1985 145.53 58.1985 146.627C58.1985 147.289 58.327 147.892 58.5741 148.425C58.8213 148.969 59.2662 149.542 59.9087 150.165L64.2091 154.217C65.1681 155.116 65.9985 156.124 66.7004 157.222C67.4023 158.328 67.7483 159.564 67.7483 160.947C67.7483 162.173 67.511 163.191 67.0464 164.011C66.5719 164.832 65.9194 165.444 65.0791 165.859C64.2289 166.304 63.2601 166.512 62.1627 166.512Z" fill="#002E47" stroke="#002E47" stroke-miterlimit="10" stroke-linecap="round" stroke-linejoin="round"/>
<path d="M70.7832 166.215V141.883H79.5916V143.652H73.0965V152.784H78.3855V154.464H73.0965V164.496H79.6509V166.205H70.7832V166.215Z" fill="#002E47" stroke="#002E47" stroke-miterlimit="10" stroke-linecap="round" stroke-linejoin="round"/>
<path d="M82.7749 166.215V141.883H88.2715C89.7939 141.883 90.9901 142.13 91.8601 142.614C92.73 143.108 93.3529 143.82 93.7384 144.749C94.1141 145.678 94.3118 146.785 94.3118 148.07C94.3118 148.969 94.2129 149.819 94.0152 150.62C93.8175 151.42 93.4715 152.102 92.997 152.665C92.5126 153.229 91.8304 153.594 90.9506 153.772L94.6776 166.205H92.4532L88.8745 154.247H85.0586V166.205H82.7749V166.215ZM85.0586 152.576H88.1529C89.1711 152.576 89.962 152.408 90.5255 152.062C91.089 151.726 91.4844 151.222 91.7316 150.56C91.9787 149.898 92.0875 149.068 92.0875 148.07C92.0875 146.567 91.8304 145.451 91.3065 144.709C90.7825 143.968 89.7544 143.602 88.2122 143.602H85.0586V152.576Z" fill="#002E47" stroke="#002E47" stroke-miterlimit="10" stroke-linecap="round" stroke-linejoin="round"/>
<path d="M98.2168 166.215V141.883H100.5V166.215H98.2168Z" fill="#002E47" stroke="#002E47" stroke-miterlimit="10" stroke-linecap="round" stroke-linejoin="round"/>
<path d="M109.121 166.215L103.407 141.883H105.601L110.198 162.035L114.528 141.883H116.693L111.197 166.215H109.121Z" fill="#002E47" stroke="#002E47" stroke-miterlimit="10" stroke-linecap="round" stroke-linejoin="round"/>
<path d="M119.581 166.215V141.883H121.864V166.215H119.581Z" fill="#002E47" stroke="#002E47" stroke-miterlimit="10" stroke-linecap="round" stroke-linejoin="round"/>
<path d="M131.839 166.512C130.198 166.512 128.933 166.176 128.043 165.494C127.153 164.812 126.53 163.893 126.194 162.746C125.858 161.59 125.68 160.315 125.68 158.912V149.236C125.68 147.734 125.858 146.409 126.204 145.273C126.55 144.126 127.183 143.237 128.082 142.594C128.982 141.952 130.238 141.636 131.839 141.636C133.302 141.636 134.449 141.912 135.279 142.476C136.11 143.039 136.703 143.83 137.069 144.868C137.425 145.895 137.613 147.121 137.613 148.544V150.017H135.447V148.603C135.447 147.546 135.359 146.627 135.19 145.866C135.022 145.105 134.676 144.512 134.152 144.097C133.628 143.672 132.857 143.464 131.839 143.464C130.762 143.464 129.941 143.691 129.387 144.136C128.834 144.591 128.468 145.223 128.28 146.044C128.092 146.864 127.993 147.813 127.993 148.9V159.267C127.993 160.473 128.112 161.471 128.339 162.272C128.567 163.072 128.962 163.675 129.526 164.071C130.089 164.476 130.86 164.673 131.839 164.673C132.857 164.673 133.628 164.456 134.152 164.011C134.676 163.567 135.022 162.954 135.19 162.163C135.359 161.372 135.447 160.443 135.447 159.386V157.795H137.613V159.238C137.613 160.661 137.444 161.926 137.118 163.023C136.792 164.12 136.209 164.98 135.378 165.593C134.538 166.205 133.362 166.512 131.839 166.512Z" fill="#002E47" stroke="#002E47" stroke-miterlimit="10" stroke-linecap="round" stroke-linejoin="round"/>
<path d="M141.151 166.215V141.883H149.96V143.652H143.465V152.784H148.754V154.464H143.465V164.496H150.019V166.205H141.151V166.215Z" fill="#002E47" stroke="#002E47" stroke-miterlimit="10" stroke-linecap="round" stroke-linejoin="round"/>
<path d="M314.057 277.885H367.016C367.016 277.885 338.386 348.362 343.754 379.84H290.074C290.084 379.84 300.098 299.352 314.057 277.885Z" fill="#002E47" stroke="#002E47" stroke-miterlimit="10" stroke-linecap="round" stroke-linejoin="round"/>
<path d="M268.235 176.721C268.235 176.721 268.769 186.258 286.524 191.832C304.29 197.397 322.312 191.832 332.385 199.788C342.459 207.744 342.192 219.93 338.752 226.028C335.302 232.126 329.736 238.224 346.176 245.38C362.617 252.535 352.8 273.477 345.909 281.157C339.019 288.846 327.087 292.552 313.829 289.903C300.572 287.255 284.933 255.184 267.969 238.224C251.004 221.265 248.928 189.955 259.753 180.981C270.569 171.987 268.235 176.721 268.235 176.721Z" fill="#002E47" stroke="#002E47" stroke-miterlimit="10" stroke-linecap="round" stroke-linejoin="round"/>
<path d="M265.507 142.417C265.507 142.417 272.823 139.224 274.701 145.421C276.579 151.608 277.143 168.488 277.143 168.488L273.198 167.549C273.198 167.549 274.137 148.416 269.817 145.421C265.507 142.417 262.126 149.177 262.126 149.177L265.507 142.417Z" fill="#B3C7EB" stroke="#002E47" stroke-miterlimit="10" stroke-linecap="round" stroke-linejoin="round"/>
<path d="M183.384 348.263L208.376 334.901C208.376 334.901 206.646 308.681 206.893 307.693C207.14 306.705 213.398 255.401 213.398 255.401L196.246 306.211L183.384 348.263Z" fill="#002E47" stroke="#002E47" stroke-miterlimit="10" stroke-linecap="round" stroke-linejoin="round"/>
<path d="M293.87 229.052C293.87 229.052 318.545 242.503 321.906 243.907C325.268 245.31 323.31 262.408 323.31 273.616C323.31 284.823 306.484 379.563 306.484 379.563H182C182 379.563 203.028 347.334 203.591 338.924C204.155 330.513 200.507 323.793 199.943 315.659C199.38 307.525 211.441 257.921 213.398 255.391C215.366 252.871 223.769 246.417 223.769 246.417L253.486 220.345L267.227 217.262L293.87 229.052Z" fill="#39B4EF" stroke="#002E47" stroke-miterlimit="10" stroke-linecap="round" stroke-linejoin="round"/>
<path d="M211.382 348.036L207.229 356.585" stroke="#002E47" stroke-miterlimit="10" stroke-linecap="round" stroke-linejoin="round"/>
<path d="M215.366 323.516C215.366 323.516 209.197 327.716 212.281 329.96C215.366 332.203 216.769 336.967 216.769 336.967L212.825 344.666" stroke="#002E47" stroke-miterlimit="10" stroke-linecap="round" stroke-linejoin="round"/>
<path d="M244.42 343.905C246.091 344.033 247.851 344.122 249.69 344.182" stroke="#002E47" stroke-miterlimit="10" stroke-linecap="round" stroke-linejoin="round"/>
<path d="M217.876 336.967C217.876 336.967 224.589 341.454 239.21 343.371" stroke="#002E47" stroke-miterlimit="10" stroke-linecap="round" stroke-linejoin="round"/>
<path d="M201.15 157.795C201.15 157.795 197.393 159.297 197.393 164.169C197.393 169.042 201.338 178.609 201.338 178.609L203.592 177.858C203.592 177.858 199.459 167.915 200.023 164.357C200.586 160.789 203.967 159.86 203.967 159.86L203.216 157.419L201.15 157.795Z" fill="#B3C7EB" stroke="#002E47" stroke-miterlimit="10" stroke-linecap="round" stroke-linejoin="round"/>
<path d="M210.808 182.908C211.767 187.84 210.106 192.307 207.101 192.89C204.096 193.473 200.893 189.945 199.944 185.013C198.985 180.081 200.645 175.614 203.651 175.031C206.646 174.448 209.859 177.976 210.808 182.908Z" fill="white" stroke="#002E47" stroke-miterlimit="10" stroke-linecap="round" stroke-linejoin="round"/>
<path d="M219.933 181.317C221.801 187.622 219.617 193.829 215.049 195.193C210.482 196.547 205.262 192.534 203.384 186.229C201.515 179.923 203.7 173.717 208.268 172.353C212.845 170.999 218.065 175.011 219.933 181.317Z" fill="#002E47" stroke="#002E47" stroke-miterlimit="10" stroke-linecap="round" stroke-linejoin="round"/>
<path d="M236.867 215.69L241.306 230.12L226.705 248.503L224.283 262.705C224.283 262.705 221.861 303.236 223.245 309.472C224.629 315.708 224.629 317.438 224.629 317.438C224.629 317.438 254.771 282.451 269.669 260.975C284.567 239.499 288.037 226.335 288.037 226.335L273.485 218.369L266.555 186.15L236.867 215.69Z" fill="white" stroke="#002E47" stroke-miterlimit="10" stroke-linecap="round" stroke-linejoin="round"/>
<path d="M259.882 201.726L241.306 230.12L236.126 213.407L259.882 201.726Z" fill="#002E47" stroke="#002E47" stroke-miterlimit="10" stroke-linecap="round" stroke-linejoin="round"/>
<path d="M224.421 261.904L224.283 262.715C224.283 262.715 221.861 303.246 223.245 309.482C224.629 315.718 224.629 317.448 224.629 317.448C224.629 317.448 254.771 282.461 269.669 260.985C270.835 259.305 271.923 257.674 272.961 256.093C254.306 262.468 235.286 262.576 224.421 261.904Z" fill="white" stroke="#002E47" stroke-miterlimit="10" stroke-linecap="round" stroke-linejoin="round"/>
<path d="M217.105 127.226C217.105 127.226 203.225 135.666 201.723 148.416C200.22 161.165 205.479 174.863 207.536 180.299C209.602 185.735 216.73 206.934 220.476 211.055C224.233 215.186 236.422 221.373 238.489 222.5C240.555 223.627 244.301 223.251 247.495 220.998C250.688 218.744 263.816 202.803 265.882 199.057C267.949 195.301 268.324 187.049 268.324 187.049C268.324 187.049 267.949 170.544 267.197 159.851C266.446 149.157 267.009 138.849 258.191 129.845C249.373 120.842 225.736 120.654 217.105 127.226Z" fill="white" stroke="#002E47" stroke-miterlimit="10" stroke-linecap="round" stroke-linejoin="round"/>
<path d="M267.197 159.86C266.446 149.167 267.01 138.859 258.191 129.855C249.373 120.852 225.736 120.664 217.105 127.226C217.105 127.226 203.225 135.666 201.723 148.416C200.853 155.828 202.257 163.537 203.996 169.783C207.19 167.846 217.965 161.214 230.056 152.735C244.499 142.604 249.195 126.851 249.195 126.851C249.195 126.851 250.886 125.912 250.51 127.977C250.134 130.043 244.509 142.229 242.443 144.107C240.377 145.984 240.377 145.984 240.377 145.984C240.377 145.984 242.067 145.609 249.759 154.8C257.45 163.992 261.77 167.737 264.014 168.864C264.716 169.21 266.1 169.457 267.741 169.595C267.583 166.215 267.405 162.815 267.197 159.86Z" fill="#002E47" stroke="#002E47" stroke-miterlimit="10" stroke-linecap="round" stroke-linejoin="round"/>
<path d="M244.094 179.745C244.341 181.119 243.827 182.364 242.967 182.513C242.097 182.661 241.197 181.673 240.96 180.299C240.713 178.925 241.227 177.68 242.087 177.531C242.947 177.373 243.847 178.372 244.094 179.745Z" fill="#002E47" stroke="#002E47" stroke-miterlimit="10" stroke-linecap="round" stroke-linejoin="round"/>
<path d="M223.076 182.74C223.323 184.114 222.809 185.359 221.949 185.507C221.079 185.655 220.18 184.667 219.942 183.293C219.695 181.92 220.209 180.674 221.069 180.526C221.939 180.378 222.839 181.366 223.076 182.74Z" fill="#002E47" stroke="#002E47" stroke-miterlimit="10" stroke-linecap="round" stroke-linejoin="round"/>
<path d="M235.483 171.295C235.483 171.295 241.672 166.423 247.307 170.356" stroke="#002E47" stroke-miterlimit="10" stroke-linecap="round" stroke-linejoin="round"/>
<path d="M222.918 173.924C222.918 173.924 215.603 170.356 210.531 176.741" stroke="#002E47" stroke-miterlimit="10" stroke-linecap="round" stroke-linejoin="round"/>
<path d="M224.233 174.112C224.233 174.112 229.295 176.553 229.67 181.238" stroke="#002E47" stroke-miterlimit="10" stroke-linecap="round" stroke-linejoin="round"/>
<path d="M229.858 194.185C229.858 194.185 231.924 195.687 235.483 194.56" stroke="#002E47" stroke-miterlimit="10" stroke-linecap="round" stroke-linejoin="round"/>
<path d="M228.355 202.062C228.355 202.062 233.981 202.062 240.555 199.245C247.119 196.428 249.749 192.495 249.749 192.495" stroke="#002E47" stroke-miterlimit="10" stroke-linecap="round" stroke-linejoin="round"/>
<path d="M231.548 201.874C231.548 201.874 233.615 203.939 236.986 203.939C240.367 203.939 243.362 197.94 243.362 197.94C243.362 197.94 234.732 201.686 231.548 201.874Z" stroke="#002E47" stroke-miterlimit="10" stroke-linecap="round" stroke-linejoin="round"/>
<path d="M270.568 187.988C275.335 187.988 279.199 182.656 279.199 176.079C279.199 169.501 275.335 164.169 270.568 164.169C265.802 164.169 261.938 169.501 261.938 176.079C261.938 182.656 265.802 187.988 270.568 187.988Z" fill="#002E47" stroke="#002E47" stroke-miterlimit="10" stroke-linecap="round" stroke-linejoin="round"/>
<path d="M274.227 183.115C277.284 183.115 279.763 179.045 279.763 174.023C279.763 169.001 277.284 164.93 274.227 164.93C271.169 164.93 268.69 169.001 268.69 174.023C268.69 179.045 271.169 183.115 274.227 183.115Z" fill="white" stroke="#002E47" stroke-miterlimit="10" stroke-linecap="round" stroke-linejoin="round"/>
<path d="M207.101 188.788C207.101 188.788 207.15 208.268 212.222 209.958C217.284 211.648 231.173 208.268 231.173 208.268" stroke="#002E47" stroke-width="2" stroke-miterlimit="10" stroke-linecap="round" stroke-linejoin="round"/>
<path d="M238.301 208.179C238.301 209.682 236.452 210.897 234.168 210.897C231.885 210.897 230.036 209.682 230.036 208.179C230.036 206.677 231.885 205.461 234.168 205.461C236.452 205.461 238.301 206.677 238.301 208.179Z" fill="#002E47" stroke="#002E47" stroke-miterlimit="10" stroke-linecap="round" stroke-linejoin="round"/>
<path d="M239.477 231.019C239.477 231.019 233.585 241.387 229.384 272.222C225.182 303.058 227.98 309.225 227.98 309.225L222.088 312.872C222.088 312.872 209.75 311.468 213.962 282.323C218.163 253.167 220.407 248.404 220.407 248.404L239.477 231.019Z" fill="#39B4EF" stroke="#002E47" stroke-miterlimit="10" stroke-linecap="round" stroke-linejoin="round"/>
<path d="M277.044 220.365C277.044 220.365 263.589 252.318 249.571 272.222C235.552 292.127 216.482 320.709 216.482 320.709C216.482 320.709 226.576 315.945 247.88 299.964C269.184 283.983 290.775 247.267 293.019 243.62C295.264 239.973 298.625 231.563 298.625 231.563L277.044 220.365Z" fill="#39B4EF" stroke="#002E47" stroke-miterlimit="10" stroke-linecap="round" stroke-linejoin="round"/>
<path d="M160.578 362.357C160.578 362.357 156.564 364.936 150.257 367.516C143.949 370.095 143.366 369.631 145.383 371.815C147.4 373.999 157.997 370.095 160.864 368.949C163.731 367.802 169.178 366.083 169.178 366.083C169.178 366.083 175.772 369.809 179.786 370.955C183.8 372.102 188.673 370.382 188.673 370.382C188.673 370.382 188.96 365.796 185.52 363.217C182.079 360.637 174.625 354.618 172.045 354.905C169.465 355.192 160.578 362.357 160.578 362.357Z" fill="white" stroke="#002E47" stroke-miterlimit="10" stroke-linecap="round" stroke-linejoin="round"/>
<path d="M158.857 355.478C158.857 355.478 155.417 354.618 153.124 356.338C150.83 358.058 148.25 363.503 147.963 364.936C147.676 366.369 148.25 367.229 150.543 365.223C152.837 363.217 156.851 360.351 156.851 360.351L160.291 359.204L158.857 355.478Z" fill="white" stroke="#002E47" stroke-miterlimit="10" stroke-linecap="round" stroke-linejoin="round"/>
<path d="M167.745 352.899C167.745 352.899 160.864 350.606 159.431 352.612C157.997 354.618 153.123 366.083 154.557 366.943C155.99 367.802 157.997 366.083 160.577 362.357C163.158 358.631 164.591 356.625 164.591 356.625L168.031 356.051L167.745 352.899Z" fill="white" stroke="#002E47" stroke-miterlimit="10" stroke-linecap="round" stroke-linejoin="round"/>
<path d="M180.033 355.468C180.033 355.468 171.057 348.461 168.823 350.141C166.578 351.821 159.293 362.752 158.452 364.996C157.612 367.239 161.537 366.112 164.621 363.316C167.705 360.509 171.353 357.425 171.353 357.425L178.363 361.072L180.033 355.468Z" fill="white" stroke="#002E47" stroke-miterlimit="10" stroke-linecap="round" stroke-linejoin="round"/>
<path d="M212.281 360.795C212.281 360.795 200.507 360.232 195.742 358.552C190.977 356.872 181.447 353.225 178.639 353.502C175.832 353.778 165.185 364.156 162.94 366.399C160.696 368.643 160.924 369.246 163.168 369.522C165.412 369.799 170.79 366.113 173.321 364.156C175.842 362.189 178.362 361.072 178.362 361.072C178.362 361.072 182.287 366.676 185.095 369.196C187.902 371.716 194.625 373.683 197.156 373.396C199.677 373.12 201.921 372.556 201.921 372.556L211.451 372.28L212.281 360.795Z" fill="white" stroke="#002E47" stroke-miterlimit="10" stroke-linecap="round" stroke-linejoin="round"/>
<path d="M294.146 279.783C294.146 279.783 283.776 291.84 284.33 296.041C284.893 300.241 285.17 304.451 285.17 304.451L277.597 350.141C277.597 350.141 271.152 347.058 271.152 349.578C271.152 352.098 271.152 352.098 271.152 352.098L210.59 358.265L210.027 379.563L306.474 379.84C306.474 379.84 311.239 374.513 311.803 372.556C312.366 370.589 323.013 336.68 325.821 301.081C328.629 265.482 327.225 249.511 325.821 246.704C324.417 243.897 307.878 238.58 307.878 238.58" fill="#39B4EF"/>
<path d="M294.146 279.783C294.146 279.783 283.776 291.84 284.33 296.041C284.893 300.241 285.17 304.451 285.17 304.451L277.597 350.141C277.597 350.141 271.152 347.058 271.152 349.578C271.152 352.098 271.152 352.098 271.152 352.098L210.59 358.265L210.027 379.563L306.474 379.84C306.474 379.84 311.239 374.513 311.803 372.556C312.366 370.589 323.013 336.68 325.821 301.081C328.629 265.482 327.225 249.511 325.821 246.704C324.417 243.897 307.878 238.58 307.878 238.58" stroke="#002E47" stroke-miterlimit="10" stroke-linecap="round" stroke-linejoin="round"/>
<path d="M279.852 349.865C279.852 349.865 288.828 355.755 294.147 357.148L279.852 349.865Z" fill="white"/>
<path d="M279.852 349.865C279.852 349.865 288.828 355.755 294.147 357.148" stroke="#002E47" stroke-miterlimit="10" stroke-linecap="round" stroke-linejoin="round"/>
<path d="M195.752 293.007L202.672 270.839C202.672 270.839 207.061 266.668 209.978 261.657C212.904 256.646 212.904 247.257 212.479 245.587C212.064 243.917 218.539 236.406 220.417 233.688C222.296 230.97 223.343 226.177 220.832 222.628C218.331 219.08 217.076 224.921 215.405 227.639C213.734 230.357 207.892 233.065 207.892 233.065L201.624 238.076C201.624 238.076 191.392 247.05 190.769 248.305C190.146 249.56 188.891 253.523 188.891 253.523L189.721 265.63L184.294 286.711L195.752 293.007Z" fill="white" stroke="#002E47" stroke-miterlimit="10" stroke-linecap="round" stroke-linejoin="round"/>
<path d="M197.452 230.762C197.452 230.762 202.464 222.826 203.927 220.326C205.391 217.825 207.684 207.804 209.147 208.426C210.61 209.049 212.073 212.389 211.648 216.778C211.233 221.166 206.013 231.177 206.013 231.177L197.452 230.762Z" stroke="#002E47" stroke-miterlimit="10" stroke-linecap="round" stroke-linejoin="round"/>
<path d="M185.342 280.445L189.731 265.62L187.853 241.822L193.695 230.545L209.77 228.46C209.77 228.46 219.587 233.678 220.417 233.678C221.248 233.678 220.417 235.971 218.539 236.396C216.66 236.811 213.111 235.773 213.111 235.773L219.172 239.736C219.172 239.736 218.756 241.614 217.293 242.029C215.83 242.444 212.904 242.444 212.904 242.444C212.904 242.444 218.124 245.785 216.868 246.407C215.613 247.03 214.149 247.238 212.904 247.238C211.648 247.238 208.94 247.238 208.94 247.238L205.806 246.823L201.001 248.7C201.001 248.7 204.343 257.259 204.135 261.43C203.927 265.601 198.708 268.318 198.708 268.318" fill="white"/>
<path d="M185.342 280.445L189.731 265.62L187.853 241.822L193.695 230.545L209.77 228.46C209.77 228.46 219.587 233.678 220.417 233.678C221.248 233.678 220.417 235.971 218.539 236.396C216.66 236.811 213.111 235.773 213.111 235.773L219.172 239.736C219.172 239.736 218.756 241.614 217.293 242.029C215.83 242.444 212.904 242.444 212.904 242.444C212.904 242.444 218.124 245.785 216.868 246.407C215.613 247.03 214.149 247.238 212.904 247.238C211.648 247.238 208.94 247.238 208.94 247.238L205.806 246.823L201.001 248.7C201.001 248.7 204.343 257.259 204.135 261.43C203.927 265.601 198.708 268.318 198.708 268.318" stroke="#002E47" stroke-miterlimit="10" stroke-linecap="round" stroke-linejoin="round"/>
<path d="M213.111 235.773C213.111 235.773 209.77 233.055 207.892 233.055C206.013 233.055 194.526 235.141 194.526 235.141" stroke="#002E47" stroke-miterlimit="10" stroke-linecap="round" stroke-linejoin="round"/>
<path d="M212.904 242.454C212.904 242.454 207.477 239.529 205.806 239.529C204.135 239.529 190.977 242.869 190.977 242.869" stroke="#002E47" stroke-miterlimit="10" stroke-linecap="round" stroke-linejoin="round"/>
<path d="M185.609 275.79L202.563 287.205C202.563 287.205 195.02 327.736 194.269 331.195C193.527 334.654 188.08 343.806 185.362 346.534C182.643 349.252 179.42 348.758 171.996 346.781C164.571 344.804 158.136 338.864 158.383 331.195C158.64 323.526 185.609 275.79 185.609 275.79Z" fill="#39B4EF" stroke="#002E47" stroke-miterlimit="10" stroke-linecap="round" stroke-linejoin="round"/>
<path d="M97.9794 373.999H93.0562V375.511H97.9794V373.999Z" fill="white" stroke="#002E47" stroke-miterlimit="10" stroke-linecap="round" stroke-linejoin="round"/>
<path d="M104.801 373.999H99.8779V375.511H104.801V373.999Z" fill="white" stroke="#002E47" stroke-miterlimit="10" stroke-linecap="round" stroke-linejoin="round"/>
<path d="M111.622 373.999H106.699V375.511H111.622V373.999Z" fill="white" stroke="#002E47" stroke-miterlimit="10" stroke-linecap="round" stroke-linejoin="round"/>
<path d="M118.453 373.999H113.53V375.511H118.453V373.999Z" fill="white" stroke="#002E47" stroke-miterlimit="10" stroke-linecap="round" stroke-linejoin="round"/>
<path d="M125.275 373.999H120.352V375.511H125.275V373.999Z" fill="white" stroke="#002E47" stroke-miterlimit="10" stroke-linecap="round" stroke-linejoin="round"/>
<path d="M132.096 373.999H127.173V375.511H132.096V373.999Z" fill="white" stroke="#002E47" stroke-miterlimit="10" stroke-linecap="round" stroke-linejoin="round"/>
<path d="M138.917 373.999H133.994V375.511H138.917V373.999Z" fill="white" stroke="#002E47" stroke-miterlimit="10" stroke-linecap="round" stroke-linejoin="round"/>
<path d="M145.739 373.999H140.815V375.511H145.739V373.999Z" fill="white" stroke="#002E47" stroke-miterlimit="10" stroke-linecap="round" stroke-linejoin="round"/>
<path d="M152.56 373.999H147.637V375.511H152.56V373.999Z" fill="white" stroke="#002E47" stroke-miterlimit="10" stroke-linecap="round" stroke-linejoin="round"/>
<path d="M159.381 373.999H154.458V375.511H159.381V373.999Z" fill="white" stroke="#002E47" stroke-miterlimit="10" stroke-linecap="round" stroke-linejoin="round"/>
<path d="M166.212 373.999H161.289V375.511H166.212V373.999Z" fill="white" stroke="#002E47" stroke-miterlimit="10" stroke-linecap="round" stroke-linejoin="round"/>
<path d="M173.034 373.999H168.11V375.511H173.034V373.999Z" fill="white" stroke="#002E47" stroke-miterlimit="10" stroke-linecap="round" stroke-linejoin="round"/>
<path d="M179.855 373.999H174.932V375.511H179.855V373.999Z" fill="white" stroke="#002E47" stroke-miterlimit="10" stroke-linecap="round" stroke-linejoin="round"/>
<path d="M186.676 373.999H181.753V375.511H186.676V373.999Z" fill="white" stroke="#002E47" stroke-miterlimit="10" stroke-linecap="round" stroke-linejoin="round"/>
<path d="M193.497 373.999H188.574V375.511H193.497V373.999Z" fill="white" stroke="#002E47" stroke-miterlimit="10" stroke-linecap="round" stroke-linejoin="round"/>
<path d="M200.319 373.999H195.396V375.511H200.319V373.999Z" fill="white" stroke="#002E47" stroke-miterlimit="10" stroke-linecap="round" stroke-linejoin="round"/>
<path d="M212.212 375.195H90.229V379.484H212.212V375.195Z" fill="white" stroke="#002E47" stroke-miterlimit="10" stroke-linecap="round" stroke-linejoin="round"/>
<path d="M212.202 375.195H165.441V379.484H212.202V375.195Z" fill="white" stroke="#002E47" stroke-miterlimit="10" stroke-linecap="round" stroke-linejoin="round"/>
<path d="M128.29 337.629H32.3862L13.1284 235.674H109.032L128.29 337.629Z" fill="#002E47" stroke="white" stroke-miterlimit="10" stroke-linecap="round" stroke-linejoin="round"/>
<path d="M125.373 335.05H32.3367L14.0576 238.254H107.084L125.373 335.05Z" fill="#002E47" stroke="white" stroke-miterlimit="10" stroke-linecap="round" stroke-linejoin="round"/>
<path d="M107.46 327.341H38.288L24.6948 255.381H93.8668L107.46 327.341Z" fill="#002E47" stroke="white" stroke-miterlimit="10" stroke-linecap="round" stroke-linejoin="round"/>
<path d="M24.6949 255.381L14.0576 238.254" stroke="#002E47" stroke-miterlimit="10" stroke-linecap="round" stroke-linejoin="round"/>
<path d="M93.8672 255.381L107.085 238.254" stroke="white" stroke-miterlimit="10" stroke-linecap="round" stroke-linejoin="round"/>
<path d="M107.46 327.341L125.373 335.05" stroke="white" stroke-miterlimit="10" stroke-linecap="round" stroke-linejoin="round"/>
<path d="M38.2883 327.341L32.3369 335.05" stroke="#002E47" stroke-miterlimit="10" stroke-linecap="round" stroke-linejoin="round"/>
<path d="M66.4138 305.785H50.6655L60.6899 296.851H76.4382L66.4138 305.785Z" fill="#002E47" stroke="white" stroke-miterlimit="10" stroke-linecap="round" stroke-linejoin="round"/>
<path d="M118.661 374.118H61.0454V379.84H118.661V374.118Z" fill="#002E47" stroke="white" stroke-miterlimit="10" stroke-linecap="round" stroke-linejoin="round"/>
<path d="M85.7409 379.84H69.9926L50.6655 357.89H66.4138L85.7409 379.84Z" fill="#002E47" stroke="white" stroke-miterlimit="10" stroke-linecap="round" stroke-linejoin="round"/>
<path d="M66.4138 306.151H50.6655V357.662H66.4138V306.151Z" fill="#002E47" stroke="white" stroke-miterlimit="10" stroke-linecap="round" stroke-linejoin="round"/>
<path d="M296.984 370.046C296.984 370.046 299.791 375.936 306.801 379.573L296.984 370.046Z" fill="white"/>
<path d="M296.984 370.046C296.984 370.046 299.791 375.936 306.801 379.573" stroke="#002E47" stroke-miterlimit="10" stroke-linecap="round" stroke-linejoin="round"/>
<path d="M1.04785 379.84H452.055" stroke="#002E47" stroke-miterlimit="10" stroke-linecap="round" stroke-linejoin="round"/>
</g>
<defs>
<clipPath id="clip0_266_56665">
<rect width="471" height="423" fill="white"/>
</clipPath>
</defs>
</svg>
