<svg width="16" height="16" viewBox="0 0 16 16" fill="none" xmlns="http://www.w3.org/2000/svg">
<g clip-path="url(#clip0_457_68)">
<path d="M2.75033 0.966064C1.51696 0.966064 0.503936 1.98642 0.503936 3.21979V5.46621C0.503936 6.69964 1.51693 7.71847 2.75036 7.71847H4.99679C6.23019 7.71847 7.25051 6.69961 7.25051 5.46621V3.21979C7.25048 1.98642 6.23016 0.966064 4.99676 0.966064L2.75033 0.966064ZM10.9965 0.966064C9.76307 0.966064 8.75004 1.98642 8.75004 3.21979V5.46621C8.75004 6.69964 9.76304 7.71847 10.9965 7.71847H13.2502C14.4836 7.71847 15.4966 6.69961 15.4966 5.46621V3.21979C15.4966 1.98639 14.4836 0.966064 13.2502 0.966064L10.9965 0.966064ZM2.75033 9.21949C1.51693 9.21949 0.503906 10.2325 0.503906 11.4659V13.7138C0.503906 14.9472 1.5169 15.9661 2.75033 15.9661H4.99676C6.23016 15.9661 7.25048 14.9472 7.25048 13.7138V11.4659C7.25048 10.2325 6.23016 9.21949 4.99676 9.21949H2.75033ZM10.9965 9.21949C9.76307 9.21949 8.75004 10.2325 8.75004 11.4659V13.7138C8.75004 14.9472 9.76304 15.9661 10.9965 15.9661H13.2502C14.4836 15.9661 15.4966 14.9472 15.4966 13.7138V11.4659C15.4966 10.2325 14.4836 9.21949 13.2502 9.21949H10.9965Z" fill="#39B4EF"/>
</g>
<defs>
<clipPath id="clip0_457_68">
<rect width="15" height="15" fill="white" transform="translate(0.5 0.966064)"/>
</clipPath>
</defs>
</svg>
