<svg width="18" height="18" viewBox="0 0 18 18" fill="none" xmlns="http://www.w3.org/2000/svg">
<g clip-path="url(#clip0_457_59)">
<path d="M9 0.483032C5.48525 0.483032 2.625 3.36312 2.625 6.90407C2.625 11.9354 8.40075 17.1303 8.64654 17.3484C8.74783 17.4384 8.87392 17.483 9 17.483C9.12608 17.483 9.25217 17.4384 9.35346 17.3492C9.59925 17.1303 15.375 11.9354 15.375 6.90407C15.375 3.36312 12.5147 0.483032 9 0.483032ZM9 10.3997C7.04712 10.3997 5.45833 8.81091 5.45833 6.85803C5.45833 4.90516 7.04712 3.31637 9 3.31637C10.9529 3.31637 12.5417 4.90516 12.5417 6.85803C12.5417 8.81091 10.9529 10.3997 9 10.3997Z" fill="#707E95"/>
</g>
<defs>
<clipPath id="clip0_457_59">
<rect width="17" height="17" fill="white" transform="translate(0.5 0.483032)"/>
</clipPath>
</defs>
</svg>
