<svg width="20" height="17" viewBox="0 0 20 17" fill="none" xmlns="http://www.w3.org/2000/svg">
<g clip-path="url(#clip0_457_89)">
<path d="M18.5876 4.33102H16.361C16.1855 4.33102 16.043 4.18852 16.043 4.01294V1.78638L18.5876 4.33102Z" fill="#39B4EF"/>
<path d="M15.7238 5.28535C15.3726 5.28535 15.0876 5.00035 15.0876 4.64919V1.46838H8.40792C8.23234 1.46838 8.08984 1.61088 8.08984 1.78646V15.1458C8.08984 15.3214 8.23234 15.4639 8.40792 15.4639H18.5865C18.7621 15.4639 18.9046 15.3214 18.9046 15.1458V5.28535H15.7238ZM10.1892 4.01303H12.9883C13.0939 4.01303 13.1791 4.09827 13.1791 4.20387V5.0945C13.1791 5.2001 13.0939 5.28535 12.9883 5.28535H10.1892C10.0836 5.28535 9.99833 5.2001 9.99833 5.0945V4.20387C9.99833 4.09827 10.0836 4.01303 10.1892 4.01303ZM16.8052 12.9193H14.0061C13.9005 12.9193 13.8153 12.834 13.8153 12.7284V11.8378C13.8153 11.7322 13.9005 11.647 14.0061 11.647H16.8052C16.9108 11.647 16.9961 11.7322 16.9961 11.8378V12.7284C16.9961 12.834 16.9108 12.9193 16.8052 12.9193ZM16.8052 10.3746H10.1892C10.0836 10.3746 9.99833 10.2894 9.99833 10.1838V9.29316C9.99833 9.18756 10.0836 9.10231 10.1892 9.10231H16.8052C16.9108 9.10231 16.9961 9.18756 16.9961 9.29316V10.1838C16.9961 10.2894 16.9108 10.3746 16.8052 10.3746ZM16.8052 7.82999H10.1892C10.0836 7.82999 9.99833 7.74474 9.99833 7.63914V6.74852C9.99833 6.64291 10.0836 6.55767 10.1892 6.55767H16.8052C16.9108 6.55767 16.9961 6.64291 16.9961 6.74852V7.63914C16.9961 7.74474 16.9108 7.82999 16.8052 7.82999Z" fill="#39B4EF"/>
<path d="M2.68415 10.0565C1.80561 10.0565 1.09375 9.34467 1.09375 8.46613C1.09375 7.5876 1.80561 6.87573 2.68415 6.87573C3.33622 6.87573 3.89477 7.26888 4.14032 7.82997H7.13728V9.10229H4.14032C3.89477 9.66339 3.33622 10.0565 2.68415 10.0565Z" fill="#39B4EF"/>
<path d="M3.32087 16.4181C2.44233 16.4181 1.73047 15.7062 1.73047 14.8277C1.73047 13.8251 2.65926 13.042 3.68412 13.2831L4.72042 11.9013C4.84066 11.741 5.02896 11.6469 5.22935 11.6469H7.13784V12.9192H5.54743L4.69943 14.049C5.31269 15.1317 4.51558 16.4181 3.32087 16.4181Z" fill="#39B4EF"/>
<path d="M3.32087 0.514038C4.52067 0.514038 5.31015 1.80417 4.70007 2.8831L5.54743 4.01292H7.13784V5.28524H5.22935C5.02896 5.28524 4.84066 5.19109 4.72042 5.03078L3.68475 3.64904C2.65863 3.89014 1.73047 3.10639 1.73047 2.10444C1.73047 1.2259 2.44233 0.514038 3.32087 0.514038Z" fill="#39B4EF"/>
</g>
<defs>
<clipPath id="clip0_457_89">
<rect width="19" height="16.2857" fill="white" transform="translate(0.5 0.323242)"/>
</clipPath>
</defs>
</svg>
