<svg width="18" height="17" viewBox="0 0 18 17" fill="none" xmlns="http://www.w3.org/2000/svg">
<g clip-path="url(#clip0_475_20408)">
<path d="M9.36896 2.31018C9.38438 2.3481 9.40704 2.38264 9.43569 2.41187L10.7545 3.73064C10.814 3.79009 10.8946 3.82355 10.9787 3.82368C11.0628 3.82382 11.1436 3.79061 11.2032 3.73135C11.2629 3.67208 11.2967 3.59158 11.2972 3.50747C11.2976 3.42336 11.2647 3.34249 11.2057 3.28258L10.4272 2.50403H15.2701C15.4487 2.50411 15.62 2.57512 15.7463 2.70144C15.8727 2.82776 15.9437 2.99907 15.9437 3.17771V6.38089C15.945 6.46432 15.9791 6.54389 16.0385 6.60243C16.098 6.66097 16.1781 6.69378 16.2615 6.69378C16.345 6.69378 16.425 6.66097 16.4845 6.60243C16.544 6.54389 16.578 6.46432 16.5793 6.38089V3.17771C16.5787 2.83066 16.4406 2.49799 16.1952 2.25259C15.9498 2.00719 15.6171 1.86906 15.2701 1.86847H10.4272L11.2057 1.0931C11.2636 1.03287 11.2956 0.952332 11.2947 0.868793C11.2939 0.785255 11.2603 0.705373 11.2013 0.6463C11.1422 0.587226 11.0623 0.553672 10.9788 0.552842C10.8952 0.552011 10.8147 0.583971 10.7545 0.641859L9.45158 1.94792C9.40148 1.99195 9.36653 2.05066 9.35169 2.11569C9.33686 2.18072 9.3429 2.24878 9.36896 2.31018Z" fill="#39B4EF"/>
<path d="M4.69922 5.6246V10.1942L8.49982 8.00156C8.54824 7.97347 8.58841 7.93314 8.6163 7.8846C8.64419 7.83607 8.65882 7.78105 8.65871 7.72508V3.33661C8.30818 3.54447 5.13674 5.36967 4.69922 5.6246Z" fill="#39B4EF"/>
<path d="M4.37819 5.07485C4.82801 4.81621 7.96892 2.99673 8.3345 2.78686L4.53707 0.591032C4.48834 0.564441 4.4337 0.550507 4.37819 0.550507C4.32267 0.550507 4.26803 0.564441 4.2193 0.591032L0.421875 2.78686C0.770402 2.98445 3.94361 4.82605 4.37819 5.07485Z" fill="#39B4EF"/>
<path d="M4.06105 5.6246C3.60679 5.36062 0.470561 3.55333 0.101563 3.33661V7.72509C0.101454 7.78107 0.11608 7.83609 0.14397 7.88462C0.17186 7.93315 0.212033 7.97349 0.260451 8.00158L4.06105 10.1942V5.6246Z" fill="#39B4EF"/>
<path d="M17.2614 9.76086L13.9375 11.6802V16.2498L17.7381 14.0572C17.7865 14.0291 17.8267 13.9888 17.8546 13.9402C17.8825 13.8917 17.8971 13.8367 17.897 13.7807V9.39224L17.2614 9.76086Z" fill="#39B4EF"/>
<path d="M17.5767 8.84247L13.7793 6.64664C13.7305 6.62005 13.6759 6.60611 13.6204 6.60611C13.5649 6.60611 13.5102 6.62005 13.4615 6.64664L9.66406 8.84247L10.2964 9.20791L13.6204 11.1305C14.0702 10.8718 17.2111 9.05234 17.5767 8.84247Z" fill="#39B4EF"/>
<path d="M9.34375 9.39221V13.7807C9.34365 13.8367 9.35827 13.8917 9.38616 13.9402C9.41405 13.9887 9.45422 14.0291 9.50264 14.0572L13.3032 16.2498V11.6802C12.849 11.4162 9.71276 9.60894 9.34375 9.39221Z" fill="#39B4EF"/>
<path d="M8.63221 14.5573C8.6168 14.5193 8.59413 14.4848 8.56548 14.4556L7.24671 13.1368C7.21729 13.1072 7.18232 13.0836 7.1438 13.0675C7.10528 13.0514 7.06397 13.043 7.02221 13.0429C6.98046 13.0427 6.93908 13.0508 6.90045 13.0667C6.86182 13.0825 6.82669 13.1058 6.79706 13.1352C6.76743 13.1646 6.74388 13.1996 6.72777 13.2381C6.71165 13.2767 6.70328 13.318 6.70314 13.3597C6.70299 13.4015 6.71107 13.4429 6.72691 13.4815C6.74275 13.5201 6.76605 13.5552 6.79547 13.5849L7.57402 14.3634H2.73111C2.55247 14.3633 2.38116 14.2923 2.25484 14.166C2.12852 14.0397 2.05752 13.8684 2.05743 13.6897V10.4866C2.05613 10.4031 2.02208 10.3236 1.96263 10.265C1.90317 10.2065 1.82308 10.1737 1.73964 10.1737C1.65621 10.1737 1.57612 10.2065 1.51666 10.265C1.45721 10.3236 1.42317 10.4031 1.42188 10.4866V13.6898C1.42246 14.0368 1.56058 14.3695 1.80598 14.6149C2.05139 14.8603 2.38406 14.9984 2.73111 14.999H7.57402L6.79547 15.7744C6.75189 15.8193 6.72242 15.876 6.71071 15.9375C6.69899 15.9989 6.70554 16.0625 6.72954 16.1203C6.75354 16.1781 6.79394 16.2276 6.84576 16.2627C6.89757 16.2978 6.95853 16.3169 7.02111 16.3178C7.10541 16.3174 7.18628 16.2844 7.24671 16.2256L8.54959 14.9195C8.5997 14.8755 8.63466 14.8168 8.6495 14.7518C8.66433 14.6867 8.65828 14.6187 8.63221 14.5573Z" fill="#39B4EF"/>
</g>
<defs>
<clipPath id="clip0_475_20408">
<rect width="18" height="15.8961" fill="white" transform="translate(0 0.4841)"/>
</clipPath>
</defs>
</svg>
