<svg width="16" height="16" viewBox="0 0 16 16" fill="none" xmlns="http://www.w3.org/2000/svg">
<g clip-path="url(#clip0_457_22)">
<path d="M15.4609 6.23701C15.3627 5.93327 15.0933 5.71755 14.7746 5.68882L10.4452 5.29571L8.7332 1.28869C8.60697 0.995023 8.31949 0.804932 8.00008 0.804932C7.68066 0.804932 7.39318 0.995023 7.26695 1.28937L5.55498 5.29571L1.22489 5.68882C0.906732 5.71824 0.638017 5.93327 0.539252 6.23701C0.440487 6.54074 0.531699 6.87389 0.772375 7.08389L4.0449 9.95392L3.07991 14.2047C3.00929 14.5173 3.1306 14.8403 3.38993 15.0278C3.52933 15.1285 3.69241 15.1798 3.85687 15.1798C3.99866 15.1798 4.13931 15.1415 4.26554 15.066L8.00008 12.834L11.7332 15.066C12.0064 15.2304 12.3508 15.2154 12.6095 15.0278C12.869 14.8398 12.9902 14.5166 12.9196 14.2047L11.9546 9.95392L15.2271 7.08447C15.4678 6.87389 15.5597 6.54132 15.4609 6.23701Z" fill="#FFB618"/>
</g>
<defs>
<clipPath id="clip0_457_22">
<rect width="15" height="15" fill="white" transform="translate(0.5 0.483032)"/>
</clipPath>
</defs>
</svg>
