<svg width="54" height="53" viewBox="0 0 54 53" fill="none" xmlns="http://www.w3.org/2000/svg">
<g clip-path="url(#clip0_349_4234)">
<path d="M18.9004 12.4448C18.7482 12.9134 18.8981 13.4156 19.2821 13.7244L22.7017 16.473L21.5508 20.7066C21.4216 21.182 21.5956 21.6764 21.9944 21.9664C22.3934 22.2559 22.9171 22.2686 23.3294 21.9988L27.0001 19.5959L30.671 21.9989C30.8689 22.1284 31.0924 22.1928 31.3155 22.1928C31.5573 22.1928 31.7986 22.1171 32.0057 21.9664C32.4048 21.6767 32.5789 21.182 32.4494 20.7066L31.2984 16.4731L34.7178 13.7246C35.1022 13.4159 35.2521 12.9136 35.0997 12.4448C34.9474 11.9758 34.5309 11.6575 34.0387 11.6337L29.6565 11.4201L28.0993 7.31855C27.9244 6.85781 27.4929 6.55999 27 6.55999C26.5072 6.55999 26.0756 6.8577 25.9009 7.31845L24.3435 11.4202L19.9617 11.6337C19.4693 11.6575 19.0527 11.9758 18.9004 12.4448ZM24.7383 13.059C25.2054 13.0362 25.6144 12.739 25.7801 12.302L26.9999 9.0894L28.2197 12.3023C28.3858 12.7393 28.7949 13.0362 29.2615 13.059L32.6938 13.2264L30.0152 15.3792C29.6507 15.6723 29.4946 16.1531 29.6173 16.604L30.5188 19.92L27.6436 18.0378C27.448 17.9099 27.2239 17.8459 26.9998 17.8459C26.7757 17.8459 26.5514 17.91 26.3557 18.0379L23.4807 19.92L24.3822 16.6042C24.505 16.153 24.3488 15.6721 23.9842 15.3792L21.3057 13.2265L24.7383 13.059ZM26.1718 3.86714V0.828125C26.1718 0.370793 26.5426 0 26.9999 0C27.4573 0 27.828 0.370793 27.828 0.828125V3.86714C27.828 4.32447 27.4573 4.69526 26.9999 4.69526C26.5426 4.69526 26.1718 4.32447 26.1718 3.86714ZM31.215 8.77357C30.909 8.43373 30.9364 7.91004 31.2763 7.60405L34.6628 4.55469C35.0027 4.24859 35.5263 4.27602 35.8324 4.61597C36.1384 4.95581 36.111 5.4795 35.7711 5.78549L32.3845 8.83485C32.2262 8.97739 32.0281 9.04758 31.8306 9.04758C31.6042 9.04758 31.3785 8.95524 31.215 8.77357ZM18.1674 4.61597C18.4734 4.27602 18.997 4.24859 19.3371 4.55469L22.7237 7.60405C23.0635 7.91004 23.091 8.43373 22.785 8.77357C22.6214 8.95514 22.3958 9.04758 22.1693 9.04758C21.9719 9.04758 21.7737 8.97739 21.6153 8.83485L18.2287 5.78549C17.8888 5.4795 17.8615 4.95581 18.1674 4.61597ZM37.6241 13.7244L41.0438 16.473L39.8928 20.7066C39.7636 21.182 39.9376 21.6764 40.3365 21.9664C40.7351 22.2559 41.2589 22.2685 41.6714 21.9988L45.3422 19.5959L49.013 21.9989C49.211 22.1284 49.4344 22.1928 49.6575 22.1928C49.8993 22.1928 50.1406 22.1171 50.3478 21.9664C50.7466 21.6769 50.9207 21.1824 50.7914 20.7066L49.6404 16.4731L53.0599 13.7246C53.4441 13.416 53.594 12.9137 53.4416 12.4448C53.2894 11.9758 52.8728 11.6575 52.3807 11.6337L47.9986 11.4201L46.4414 7.31855C46.2666 6.85781 45.835 6.55999 45.3422 6.55999C44.8492 6.55999 44.4177 6.8577 44.2428 7.31845L42.6856 11.4201L38.3038 11.6336C37.8113 11.6574 37.3947 11.9758 37.2425 12.4448C37.0901 12.9136 37.24 13.4159 37.6241 13.7244ZM43.0802 13.059C43.5474 13.0362 43.9565 12.739 44.1223 12.3019L45.3421 9.08929L46.5617 12.3018C46.7276 12.739 47.1367 13.0362 47.6037 13.0589L51.0359 13.2263L48.3577 15.3789C47.993 15.6719 47.8367 16.1528 47.9594 16.6039L48.861 19.9199L45.9857 18.0377C45.7901 17.9098 45.566 17.8458 45.3419 17.8458C45.1176 17.8458 44.8934 17.9099 44.6979 18.0378L41.8228 19.9199L42.7244 16.6041C42.847 16.1531 42.6909 15.6723 42.3263 15.3791L39.6479 13.2263L43.0802 13.059ZM0.939861 13.7244L4.3595 16.473L3.20851 20.7066C3.07932 21.182 3.25333 21.6764 3.65218 21.9664C4.05113 22.2559 4.57481 22.2686 4.98711 21.9988L8.65788 19.5959L12.3288 21.9989C12.5267 22.1284 12.7502 22.1928 12.9732 22.1928C13.2151 22.1928 13.4563 22.1171 13.6635 21.9664C14.0623 21.6769 14.2364 21.1824 14.1072 20.7066L12.9562 16.4731L16.3756 13.7246C16.7596 13.4162 16.9096 12.914 16.7574 12.4442C16.6048 11.9756 16.1882 11.6574 15.6964 11.6336L11.3143 11.4199L9.75712 7.31855C9.58228 6.85781 9.15072 6.55999 8.65788 6.55999C8.16494 6.55999 7.73339 6.8577 7.55855 7.31845L6.00136 11.4201L1.61954 11.6336C1.12712 11.6574 0.710574 11.9758 0.558406 12.4442C0.40572 12.9133 0.555507 13.4158 0.939861 13.7244ZM6.39596 13.059C6.86313 13.0362 7.27222 12.739 7.43806 12.3019L8.65778 9.08929L9.8774 12.3018C10.0433 12.739 10.4524 13.0362 10.9194 13.0589L14.3517 13.2263L11.6734 15.3789C11.3087 15.6719 11.1524 16.1528 11.2752 16.6039L12.1767 19.9199L9.30144 18.0377C9.10579 17.9098 8.88168 17.8458 8.65757 17.8458C8.43336 17.8458 8.20914 17.9099 8.0136 18.0378L5.13856 19.9199L6.04008 16.6041C6.16274 16.1531 6.00664 15.6723 5.64206 15.3791L2.96359 13.2263L6.39596 13.059ZM53.3696 43.9872C52.7869 42.1055 51.5935 40.4159 50.009 39.2294C49.2504 38.6614 48.4243 38.219 47.5529 37.9058C48.7611 36.9576 49.5395 35.4856 49.5395 33.8342C49.5395 30.9807 47.218 28.6592 44.3646 28.6592C41.511 28.6592 39.1895 30.9807 39.1895 33.8342C39.1895 35.4836 39.9661 36.9541 41.1718 37.9025C39.5558 38.4792 38.1242 39.4927 37.0279 40.8582C36.5155 40.1414 35.9244 39.4756 35.2599 38.8747C33.9211 37.6638 32.3498 36.7747 30.6576 36.2491C32.4521 35.0595 33.6384 33.0226 33.6384 30.7131C33.6384 27.0528 30.6603 24.0748 27 24.0748C23.3397 24.0748 20.3617 27.0528 20.3617 30.7131C20.3617 33.0226 21.5479 35.0595 23.3423 36.2491C21.65 36.7745 20.0788 37.6638 18.7399 38.8747C18.0754 39.4756 17.4844 40.1414 16.972 40.8581C15.8758 39.4925 14.4442 38.479 12.8281 37.9021C14.0338 36.9538 14.8104 35.4833 14.8104 33.8339C14.8104 30.9804 12.4889 28.6589 9.63548 28.6589C6.78197 28.6589 4.46043 30.9804 4.46043 33.8339C4.46043 35.4852 5.23886 36.9573 6.44689 37.9055C5.5755 38.2187 4.74944 38.6611 3.99078 39.2291C2.40626 40.4155 1.21283 42.1052 0.630142 43.9868C0.360898 44.8559 0.510064 45.738 1.05011 46.4706C1.59004 47.2031 2.38856 47.6064 3.29846 47.6064H14.7466V49.101C14.7466 51.251 16.4957 53.0001 18.6457 53.0001H35.3541C37.5041 53.0001 39.2533 51.251 39.2534 49.101V47.6068H50.7014C51.6114 47.6068 52.4099 47.2034 52.9497 46.4711C53.4897 45.7384 53.6388 44.8562 53.3696 43.9872ZM44.3646 30.3155C46.3048 30.3155 47.8833 31.894 47.8833 33.8342C47.8833 35.7745 46.3048 37.353 44.3646 37.353C42.4243 37.353 40.8458 35.7745 40.8458 33.8342C40.8458 31.894 42.4243 30.3155 44.3646 30.3155ZM22.0179 30.7131C22.0179 27.966 24.2529 25.7311 27 25.7311C29.7471 25.7311 31.9821 27.966 31.9821 30.7131C31.9821 33.4594 29.7486 35.6936 27.0027 35.6951C27.0018 35.6951 27.0007 35.6951 26.9999 35.6951C26.9991 35.6951 26.9982 35.6951 26.9972 35.6951C24.2514 35.6935 22.0179 33.4593 22.0179 30.7131ZM9.63548 30.3151C11.5757 30.3151 13.1542 31.8936 13.1542 33.8338C13.1542 35.7741 11.5757 37.3526 9.63548 37.3526C7.69519 37.3526 6.11668 35.7741 6.11668 33.8338C6.11668 31.8936 7.69519 30.3151 9.63548 30.3151ZM14.8541 45.9501H3.29857C2.91742 45.9501 2.60957 45.7946 2.38339 45.4878C2.1571 45.1809 2.09965 44.8408 2.21238 44.4767C3.22518 41.2062 6.20839 39.0088 9.63548 39.0088C12.2278 39.0088 14.5893 40.2614 16.0418 42.3817C15.4676 43.4972 15.0654 44.6995 14.8541 45.9501ZM37.5971 49.1009C37.597 50.3376 36.5908 51.3438 35.3541 51.3438H18.6457C17.409 51.3438 16.4028 50.3376 16.4028 49.1009V46.8232C17.0024 41.4209 21.5492 37.3527 26.9972 37.3513C26.9982 37.3513 26.9991 37.3514 27 37.3514C27.001 37.3514 27.0019 37.3513 27.0027 37.3513C32.4506 37.3528 36.9974 41.4209 37.5971 46.8232V49.1009ZM51.6166 45.4883C51.3904 45.795 51.0826 45.9505 50.7014 45.9505H39.1459C38.9345 44.6998 38.5324 43.4975 37.9583 42.3819C39.4108 40.2617 41.7722 39.0092 44.3645 39.0092C47.7915 39.0092 50.7748 41.2067 51.7876 44.4772C51.9003 44.8411 51.8427 45.1813 51.6166 45.4883Z" fill="#39B4EF"/>
</g>
<defs>
<clipPath id="clip0_349_4234">
<rect width="53" height="53" fill="white" transform="translate(0.5)"/>
</clipPath>
</defs>
</svg>
