<svg width="54" height="53" viewBox="0 0 54 53" fill="none" xmlns="http://www.w3.org/2000/svg">
<g clip-path="url(#clip0_349_611)">
<path d="M27 14.9063C28.4741 14.9063 29.9151 14.4691 31.1407 13.6502C32.3664 12.8312 33.3217 11.6672 33.8858 10.3053C34.4499 8.94343 34.5975 7.44486 34.3099 5.9991C34.0223 4.55333 33.3125 3.22531 32.2702 2.18297C31.2278 1.14063 29.8998 0.430794 28.454 0.143213C27.0083 -0.144367 25.5097 0.00322933 24.1478 0.567339C22.7859 1.13145 21.6219 2.08673 20.803 3.31239C19.984 4.53805 19.5469 5.97904 19.5469 7.45313C19.5491 9.42915 20.335 11.3236 21.7323 12.7209C23.1295 14.1181 25.024 14.9041 27 14.9063ZM27 1.65625C28.1465 1.65625 29.2673 1.99623 30.2206 2.6332C31.1739 3.27017 31.9169 4.17552 32.3556 5.23476C32.7944 6.294 32.9092 7.45956 32.6855 8.58404C32.4618 9.70853 31.9097 10.7414 31.099 11.5521C30.2883 12.3628 29.2554 12.9149 28.1309 13.1386C27.0064 13.3623 25.8409 13.2475 24.7816 12.8087C23.7224 12.37 22.817 11.627 22.1801 10.6737C21.5431 9.72041 21.2031 8.59964 21.2031 7.45313C21.2049 5.91624 21.8162 4.4428 22.9029 3.35606C23.9897 2.26931 25.4631 1.65801 27 1.65625Z" fill="#39B4EF"/>
<path d="M25.4481 9.97068C25.6034 10.1259 25.814 10.2131 26.0336 10.2131C26.2532 10.2131 26.4638 10.1259 26.6191 9.97068L30.4839 6.10665C30.563 6.03026 30.6261 5.93888 30.6695 5.83784C30.7129 5.73681 30.7358 5.62814 30.7367 5.51818C30.7377 5.40822 30.7167 5.29918 30.6751 5.1974C30.6334 5.09563 30.572 5.00317 30.4942 4.92541C30.4164 4.84766 30.324 4.78617 30.2222 4.74453C30.1204 4.70289 30.0114 4.68194 29.9014 4.68289C29.7915 4.68385 29.6828 4.70669 29.5818 4.75009C29.4807 4.7935 29.3894 4.85658 29.313 4.93568L26.0336 8.21423L24.6871 6.86769C24.5309 6.71684 24.3217 6.63337 24.1046 6.63526C23.8874 6.63715 23.6797 6.72424 23.5262 6.87778C23.3726 7.03132 23.2855 7.23903 23.2837 7.45616C23.2818 7.67329 23.3652 7.88248 23.5161 8.03866L25.4481 9.97068Z" fill="#39B4EF"/>
<path d="M50.3233 17.5223C50.3045 17.415 50.2648 17.3126 50.2063 17.2208C50.1479 17.1289 50.0719 17.0495 49.9828 16.9871C49.8937 16.9246 49.7931 16.8803 49.6868 16.8568C49.5806 16.8332 49.4707 16.8309 49.3635 16.8498L45.2875 17.5678C45.1802 17.5866 45.0777 17.6264 44.9858 17.6849C44.8939 17.7433 44.8144 17.8194 44.752 17.9086C44.6895 17.9978 44.6453 18.0985 44.6218 18.2049C44.5983 18.3112 44.596 18.4212 44.615 18.5284L44.7923 19.5313L42.4735 19.9362L33.1281 18.5069C31.7596 18.3008 30.3606 18.4782 29.0869 19.0195L27 19.9089L24.9189 19.022C23.6432 18.4783 22.241 18.3014 20.8702 18.511L11.5207 19.9395L9.20855 19.5321L9.38494 18.5284C9.40401 18.4212 9.40173 18.3112 9.37823 18.2049C9.35474 18.0985 9.31049 17.9978 9.24803 17.9086C9.18556 17.8194 9.10611 17.7433 9.01422 17.6849C8.92232 17.6264 8.8198 17.5866 8.71251 17.5678L4.64062 16.8498C4.53337 16.8308 4.42343 16.833 4.31707 16.8565C4.21071 16.88 4.11003 16.9243 4.02079 16.9867C3.93156 17.0492 3.85553 17.1287 3.79705 17.2205C3.73857 17.3124 3.69879 17.415 3.67999 17.5223L0.512413 35.4619C0.493352 35.5692 0.495633 35.6791 0.519128 35.7855C0.542623 35.8918 0.586869 35.9925 0.649332 36.0818C0.711796 36.171 0.791249 36.247 0.883142 36.3055C0.975035 36.364 1.07756 36.4038 1.18485 36.4226L5.26171 37.1405C5.36889 37.1595 5.47876 37.1571 5.58502 37.1336C5.69128 37.11 5.79186 37.0657 5.881 37.0033C5.97015 36.9408 6.0461 36.8614 6.10453 36.7696C6.16296 36.6778 6.20271 36.5753 6.22151 36.4681L6.29687 36.0234L6.9809 36.1443C7.61137 37.533 8.5286 38.7725 9.67231 39.7814C9.62847 40.5292 9.84135 41.2695 10.2757 41.8797C10.71 42.4899 11.3398 42.9335 12.0606 43.137C11.6732 43.7804 11.5173 44.537 11.6189 45.2812C11.7205 46.0254 12.0734 46.7125 12.619 47.2286C13.1647 47.7447 13.8704 48.0588 14.6191 48.1187C15.3678 48.1787 16.1145 47.981 16.7354 47.5584C16.8177 48.1082 17.0387 48.6281 17.3774 49.0691C17.7162 49.51 18.1616 49.8574 18.6717 50.0787C19.1818 50.3 19.7398 50.3877 20.2932 50.3338C20.8466 50.2798 21.3772 50.0859 21.835 49.7703C21.9125 50.2775 22.108 50.7594 22.4058 51.1772C22.7036 51.5949 23.0954 51.9369 23.5496 52.1756C24.0038 52.4142 24.5077 52.5429 25.0207 52.5512C25.5337 52.5594 26.0415 52.4471 26.5031 52.2232V52.2281L26.8344 52.4484C27.1971 52.6886 27.6037 52.855 28.0308 52.938C28.4578 53.021 28.8971 53.0191 29.3234 52.9324C29.7498 52.8456 30.1548 52.6758 30.5155 52.4324C30.8762 52.1891 31.1854 51.8771 31.4255 51.5143C31.788 50.9623 31.9735 50.3129 31.9571 49.6527C32.2258 49.7258 32.5027 49.7642 32.7811 49.767C33.2187 49.7683 33.6522 49.6828 34.0565 49.5153C34.4608 49.3479 34.8279 49.1018 35.1364 48.7915C35.4449 48.4811 35.6887 48.1126 35.8537 47.7073C36.0188 47.302 36.1017 46.868 36.0978 46.4304C36.3614 46.4998 36.6326 46.5359 36.9052 46.5381C37.3422 46.5381 37.7749 46.4516 38.1784 46.2837C38.5819 46.1157 38.9481 45.8696 39.256 45.5594C39.5639 45.2493 39.8074 44.8813 39.9725 44.4766C40.1375 44.0719 40.2209 43.6386 40.2177 43.2016C40.7225 43.3331 41.2514 43.3425 41.7606 43.229C42.2698 43.1155 42.7447 42.8823 43.1458 42.5487C43.5469 42.2152 43.8628 41.7909 44.0674 41.3109C44.2719 40.831 44.3591 40.3092 44.3219 39.7889C45.4667 38.7783 46.384 37.5364 47.0133 36.1451L47.7031 36.0275L47.781 36.4681C47.7998 36.5754 47.8395 36.6779 47.898 36.7698C47.9565 36.8617 48.0325 36.9412 48.1218 37.0036C48.211 37.0661 48.3117 37.1103 48.418 37.1338C48.5244 37.1573 48.6343 37.1596 48.7416 37.1405L52.8176 36.4226C52.9249 36.4038 53.0274 36.364 53.1193 36.3055C53.2112 36.247 53.2907 36.171 53.3531 36.0818C53.4156 35.9925 53.4599 35.8918 53.4833 35.7855C53.5068 35.6791 53.5091 35.5692 53.4901 35.4619L50.3233 17.5223ZM4.73419 35.3667L2.28791 34.9344L5.16316 18.6203L7.61027 19.0518L4.73419 35.3667ZM11.7045 41.017C11.4223 40.6806 11.2852 40.2459 11.3234 39.8084C11.3616 39.3709 11.572 38.9666 11.9082 38.6842L15.0808 36.0234C15.4173 35.7409 15.8522 35.6037 16.2898 35.6419C16.7275 35.6801 17.132 35.8906 17.4144 36.2271C17.6969 36.5636 17.8341 36.9985 17.7959 37.4361C17.7577 37.8738 17.5472 38.2783 17.2107 38.5608L14.0382 41.2232C13.8714 41.3629 13.6788 41.4684 13.4712 41.5337C13.2637 41.599 13.0453 41.6227 12.8286 41.6035C12.6119 41.5844 12.4011 41.5227 12.2082 41.4221C12.0153 41.3215 11.8442 41.1838 11.7045 41.017ZM15.9627 46.0926C15.7961 46.2324 15.6035 46.3381 15.396 46.4035C15.1885 46.4689 14.9702 46.4929 14.7534 46.4739C14.5367 46.4549 14.3258 46.3935 14.1328 46.293C13.9398 46.1926 13.7685 46.0551 13.6287 45.8884C13.4888 45.7218 13.3832 45.5292 13.3177 45.3217C13.2523 45.1142 13.2284 44.8959 13.2473 44.6791C13.2663 44.4624 13.3278 44.2515 13.4282 44.0585C13.5287 43.8655 13.6661 43.6942 13.8328 43.5544L17.6422 40.3603C17.9805 40.0955 18.4084 39.9725 18.8356 40.0173C19.2628 40.0621 19.656 40.2711 19.932 40.6002C20.2081 40.9293 20.3454 41.3528 20.3152 41.7813C20.2849 42.2098 20.0893 42.6098 19.7696 42.8968L15.9627 46.0926ZM21.0599 48.302C20.8932 48.4418 20.7006 48.5474 20.4932 48.6128C20.2857 48.6782 20.0674 48.702 19.8507 48.6831C19.634 48.6641 19.4231 48.6026 19.2302 48.5021C19.0373 48.4016 18.866 48.2641 18.7262 48.0975C18.5864 47.9308 18.4808 47.7382 18.4154 47.5308C18.35 47.3233 18.3262 47.105 18.3452 46.8883C18.3641 46.6716 18.4256 46.4607 18.5261 46.2678C18.6266 46.0749 18.7641 45.9036 18.9307 45.7638L21.4689 43.6347C21.8061 43.358 22.2388 43.2254 22.6731 43.2657C23.1074 43.3061 23.5082 43.5161 23.7886 43.8503C24.0689 44.1844 24.2062 44.6156 24.1705 45.0503C24.1348 45.485 23.9291 45.8881 23.5981 46.1721L21.0599 48.302ZM26.1561 50.5156C25.8191 50.794 25.3857 50.9278 24.9503 50.888C24.515 50.8481 24.1131 50.6378 23.8322 50.3028C23.5514 49.9678 23.4143 49.5354 23.451 49.0998C23.4876 48.6642 23.695 48.2607 24.0279 47.9774L26.5652 45.8483C26.7318 45.7084 26.9243 45.6027 27.1318 45.5372C27.3392 45.4718 27.5575 45.4478 27.7743 45.4667C27.991 45.4857 28.2018 45.5471 28.3948 45.6475C28.5877 45.7479 28.759 45.8854 28.8989 46.052C29.0387 46.2186 29.1443 46.4112 29.2097 46.6187C29.2751 46.8262 29.299 47.0445 29.28 47.2612C29.261 47.4779 29.1995 47.6887 29.099 47.8817C28.9985 48.0746 28.861 48.2459 28.6943 48.3856L26.1561 50.5156ZM30.0425 50.6034C29.8231 50.938 29.4888 51.1807 29.1027 51.286C28.7167 51.3912 28.3055 51.3517 27.9465 51.1748L29.7593 49.6543C29.9308 49.511 30.0873 49.3506 30.2264 49.1757C30.3048 49.4114 30.3289 49.6617 30.2971 49.9081C30.2653 50.1544 30.1782 50.3904 30.0425 50.5984V50.6034ZM42.4139 40.9093C42.2938 41.0908 42.1392 41.2467 41.9589 41.3684C41.7786 41.4901 41.576 41.575 41.3629 41.6184C41.1497 41.6618 40.9301 41.6627 40.7165 41.6212C40.503 41.5797 40.2997 41.4965 40.1183 41.3764L33.2109 36.8076C33.1204 36.742 33.0175 36.6954 32.9084 36.6706C32.7994 36.6459 32.6865 36.6434 32.5764 36.6635C32.4664 36.6835 32.3616 36.7257 32.2683 36.7873C32.175 36.849 32.0952 36.9289 32.0337 37.0223C31.9721 37.1156 31.9301 37.2205 31.9101 37.3305C31.8902 37.4405 31.8927 37.5535 31.9176 37.6625C31.9425 37.7715 31.9892 37.8744 32.0549 37.9648C32.1207 38.0553 32.204 38.1316 32.3 38.1889L37.8269 41.8468C38.193 42.0896 38.4477 42.4679 38.5349 42.8985C38.6221 43.329 38.5347 43.7766 38.2919 44.1427C38.0491 44.5089 37.6708 44.7636 37.2402 44.8508C36.8096 44.938 36.362 44.8505 35.9959 44.6077L30.4698 40.9507C30.3777 40.8891 30.2741 40.8468 30.1651 40.8265C29.977 40.7911 29.7825 40.8219 29.6146 40.9136C29.4466 41.0054 29.3157 41.1525 29.244 41.3299C29.1722 41.5073 29.1642 41.7041 29.2211 41.8868C29.2781 42.0695 29.3966 42.2268 29.5564 42.3321L33.697 45.0756C34.0609 45.3193 34.3135 45.6971 34.3995 46.1265C34.4856 46.5559 34.398 47.0019 34.1561 47.367C33.9141 47.732 33.5374 47.9863 33.1084 48.0743C32.6794 48.1623 32.233 48.0769 31.8669 47.8366L30.9228 47.2122C30.9456 46.6046 30.7993 46.0026 30.5001 45.4732C30.2009 44.9439 29.7606 44.508 29.2283 44.2142C28.6959 43.9204 28.0925 43.7802 27.4851 43.8091C26.8778 43.8381 26.2904 44.0352 25.7884 44.3783C25.7242 43.9478 25.5745 43.5344 25.3481 43.1626C25.1217 42.7908 24.8231 42.4681 24.4701 42.2134C24.117 41.9588 23.7166 41.7773 23.2923 41.6798C22.8681 41.5823 22.4286 41.5706 21.9998 41.6455C22.0143 40.8617 21.7446 40.0991 21.2406 39.4986C20.7366 38.8981 20.0323 38.5002 19.2579 38.3786C19.5002 37.6948 19.5107 36.9503 19.2877 36.26C19.0647 35.5697 18.6206 34.972 18.024 34.5593C17.4275 34.1466 16.7116 33.9417 15.987 33.9765C15.2624 34.0112 14.5694 34.2835 14.015 34.7514L10.8424 37.4138C10.6206 37.6048 10.4257 37.8249 10.2628 38.068C9.43397 37.2136 8.78069 36.205 8.33985 35.0992C8.28764 34.9677 8.20261 34.8518 8.09286 34.7625C7.98312 34.6732 7.85233 34.6135 7.71296 34.5891L6.58588 34.3903L8.91871 21.161L11.365 21.5925C11.4541 21.6078 11.5451 21.6078 11.6341 21.5925L21.1203 20.1482C22.1858 19.9848 23.2758 20.1225 24.2672 20.5457L24.8833 20.8083L21.5766 22.2161C20.8337 22.5338 20.2002 23.0624 19.7547 23.7365L16.6385 28.4345C16.278 28.9862 16.15 29.6581 16.2824 30.3038C16.4149 30.9495 16.7971 31.5167 17.3457 31.8819C18.262 32.4857 19.3802 32.7015 20.4553 32.4822C21.5305 32.2628 22.4748 31.6262 23.0813 30.7118L24.5032 28.5703L27.5267 27.9517C27.8526 28.9564 28.4061 29.8722 29.1442 30.6278C29.8822 31.3834 30.7848 31.9582 31.7816 32.3076C32.1349 32.4336 32.4973 32.5324 32.8656 32.6032L41.946 38.6154C42.3121 38.8577 42.567 39.2354 42.6547 39.6655C42.7424 40.0957 42.6558 40.543 42.4139 40.9093ZM46.2854 34.5907C46.1454 34.6151 46.0141 34.6751 45.904 34.7648C45.794 34.8546 45.7088 34.9712 45.6568 35.1033C45.2158 36.2142 44.5601 37.2273 43.7273 38.0846C43.4941 37.7491 43.2 37.4603 42.8602 37.2333L35.8212 32.5767C36.7359 32.3939 37.6072 32.0381 38.3884 31.5283L39.6894 30.6754C39.873 30.5546 40.0011 30.3658 40.0455 30.1505C40.0899 29.9353 40.047 29.7112 39.9262 29.5276C39.8054 29.344 39.6166 29.2159 39.4014 29.1714C39.1861 29.127 38.962 29.1699 38.7784 29.2907L37.4816 30.1437C36.7315 30.6363 35.877 30.9475 34.9859 31.0526C34.0947 31.1577 33.1913 31.0538 32.3472 30.7491C31.5704 30.4784 30.8687 30.028 30.2992 29.4345C29.7297 28.8409 29.3086 28.1212 29.0703 27.3339C29.019 27.1683 28.9759 26.9919 28.9395 26.8171C28.8946 26.6028 28.7667 26.415 28.5838 26.2947C28.4008 26.1744 28.1776 26.1315 27.9631 26.1753L23.8382 27.02C23.6236 27.0639 23.4351 27.1911 23.314 27.3736L21.7083 29.7992C21.3442 30.3474 20.7778 30.7292 20.133 30.8609C19.4881 30.9927 18.8174 30.8637 18.2674 30.5023C18.0839 30.38 17.9559 30.1904 17.9113 29.9745C17.8667 29.7585 17.9089 29.5337 18.0289 29.3487L21.1435 24.6516C21.4106 24.2482 21.7896 23.9316 22.2341 23.7406L29.7378 20.5441C30.7297 20.123 31.819 19.9851 32.8846 20.1458L42.3667 21.595C42.4553 21.6086 42.5455 21.6086 42.6342 21.595L45.0854 21.166L47.4133 34.3953L46.2854 34.5907ZM49.2666 35.365L46.3905 19.051L48.8377 18.6195L51.7129 34.9336L49.2666 35.365Z" fill="#39B4EF"/>
</g>
<defs>
<clipPath id="clip0_349_611">
<rect width="53" height="53" fill="white" transform="translate(0.5)"/>
</clipPath>
</defs>
</svg>
