<svg width="54" height="53" viewBox="0 0 54 53" fill="none" xmlns="http://www.w3.org/2000/svg">
<path fill-rule="evenodd" clip-rule="evenodd" d="M24.3914 21.8417C24.0208 21.8417 23.7186 21.5405 23.7186 21.1689C23.7186 20.7983 24.0208 20.4971 24.3914 20.4971C24.762 20.4971 25.0643 20.7983 25.0643 21.1689C25.0643 21.5405 24.763 21.8417 24.3914 21.8417ZM19.1753 26.5693C18.8047 26.5693 18.5024 26.267 18.5024 25.8964C18.5024 25.5259 18.8036 25.2236 19.1753 25.2236C19.5458 25.2236 19.8481 25.5259 19.8481 25.8964C19.8471 26.267 19.5458 26.5693 19.1753 26.5693ZM29.6086 23.6326C29.9792 23.6326 30.2814 23.9338 30.2814 24.3044C30.2814 24.676 29.9802 24.9772 29.6086 24.9772C29.238 24.9772 28.9357 24.676 28.9357 24.3044C28.9357 23.9338 29.238 23.6326 29.6086 23.6326ZM34.8258 18.7342C35.1964 18.7342 35.4986 19.0354 35.4986 19.4071C35.4986 19.7776 35.1964 20.0789 34.8258 20.0789C34.4552 20.0789 34.1529 19.7776 34.1529 19.4071C34.1529 19.0354 34.4542 18.7342 34.8258 18.7342ZM27.6936 24.3044C27.6936 25.3613 28.5527 26.2194 29.6086 26.2194C30.6645 26.2194 31.5236 25.3613 31.5236 24.3044C31.5236 24.0249 31.4615 23.7589 31.3528 23.5197L33.9314 21.0985C34.1985 21.2403 34.5028 21.3211 34.8258 21.3211C35.8816 21.3211 36.7408 20.4629 36.7408 19.4071C36.7408 18.3512 35.8816 17.492 34.8258 17.492C33.7699 17.492 32.9107 18.3512 32.9107 19.4071C32.9107 19.6865 32.9729 19.9526 33.0815 20.1927L30.503 22.6129C30.2359 22.4711 29.9316 22.3904 29.6086 22.3904C29.1397 22.3904 28.7111 22.5601 28.3778 22.8407L26.264 21.5695C26.292 21.4411 26.3064 21.3066 26.3064 21.1689C26.3064 20.113 25.4473 19.2549 24.3914 19.2549C23.3355 19.2549 22.4764 20.113 22.4764 21.1689C22.4764 21.438 22.5323 21.6927 22.6327 21.9246L20.0986 24.2205C19.8243 24.0684 19.5096 23.9814 19.1742 23.9814C18.1184 23.9814 17.2592 24.8406 17.2592 25.8964C17.2592 26.9523 18.1184 27.8115 19.1742 27.8115C20.2301 27.8115 21.0893 26.9523 21.0893 25.8964C21.0893 25.6283 21.0334 25.3727 20.9329 25.1408L23.466 22.8448C23.7403 22.997 24.055 23.0839 24.3904 23.0839C24.8593 23.0839 25.2879 22.9142 25.6212 22.6336L27.735 23.9048C27.7091 24.0342 27.6936 24.1677 27.6936 24.3044ZM35.834 34.2657H33.8155V24.6998H35.834V34.2657ZM36.4562 23.4576C36.7988 23.4576 37.0772 23.735 37.0772 24.0787V34.8868C37.0772 35.2294 36.7988 35.5079 36.4562 35.5079H33.1954C32.8517 35.5079 32.5743 35.2294 32.5743 34.8868V24.0787C32.5743 23.735 32.8528 23.4576 33.1954 23.4576H36.4562ZM30.6179 34.2657H28.5993V28.8353H30.6179V34.2657ZM31.239 27.5931C31.5816 27.5931 31.8601 27.8715 31.8601 28.2142V34.8868C31.8601 35.2294 31.5816 35.5079 31.239 35.5079H27.9782C27.6356 35.5079 27.3571 35.2294 27.3571 34.8868V28.2142C27.3571 27.8715 27.6356 27.5931 27.9782 27.5931H31.239ZM25.4007 34.2657H23.3821V26.5351H25.4007V34.2657ZM26.0218 25.293C26.3654 25.293 26.6429 25.5714 26.6429 25.914V34.8868C26.6429 35.2294 26.3644 35.5079 26.0218 35.5079H22.761C22.4184 35.5079 22.1399 35.2294 22.1399 34.8868V25.914C22.1399 25.5714 22.4184 25.293 22.761 25.293H26.0218ZM20.1835 34.2657H18.1649V30.1716H20.1835V34.2657ZM20.8046 28.9295H17.5438C17.2012 28.9295 16.9228 29.2079 16.9228 29.5506V34.8868C16.9228 35.2294 17.2012 35.5079 17.5438 35.5079H20.8046C21.1472 35.5079 21.4257 35.2294 21.4257 34.8868V29.5506C21.4257 29.2079 21.1483 28.9295 20.8046 28.9295ZM49.8966 48.6937C49.4432 47.6482 48.5727 46.8325 47.5096 46.4412C48.0799 45.9143 48.437 45.1597 48.437 44.3243C48.437 42.7333 47.1421 41.4383 45.551 41.4383C43.96 41.4383 42.665 42.7333 42.665 44.3243C42.665 45.1597 43.0232 45.9143 43.5925 46.4412C42.5284 46.8325 41.6588 47.6482 41.2055 48.6947C40.3473 47.6751 39.8794 46.3988 39.8794 45.051C39.8794 43.5365 40.4695 42.1122 41.5408 41.0408C43.7519 38.8297 47.3501 38.8297 49.5612 41.0408C51.6543 43.1339 51.7651 46.4681 49.8966 48.6937ZM45.551 45.9681C46.4578 45.9681 47.1949 45.2301 47.1949 44.3243C47.1949 43.4175 46.4578 42.6805 45.551 42.6805C44.6442 42.6805 43.9072 43.4175 43.9072 44.3243C43.9072 45.2301 44.6442 45.9681 45.551 45.9681ZM42.1971 49.6253C44.1857 51.0849 46.9174 51.0849 48.9049 49.6253C48.583 48.3531 47.4267 47.4298 46.0862 47.4298H45.0159C43.6753 47.4298 42.5191 48.3521 42.1971 49.6253ZM15.9714 37.5285C22.053 43.61 31.948 43.61 38.0286 37.5285C44.1101 31.447 44.1101 21.5529 38.0286 15.4714C35.0825 12.5253 31.1665 10.9032 27 10.9032C22.8345 10.9032 18.9175 12.5253 15.9714 15.4714C9.8899 21.5529 9.8899 31.447 15.9714 37.5285ZM12.7946 48.6947C12.3412 47.6482 11.4716 46.8325 10.4075 46.4412C10.9779 45.9143 11.335 45.1597 11.335 44.3243C11.335 42.7333 10.04 41.4383 8.44897 41.4383C6.85793 41.4383 5.56295 42.7333 5.56295 44.3243C5.56295 45.1597 5.92111 45.9143 6.49045 46.4412C5.42734 46.8325 4.55678 47.6482 4.10338 48.6937C2.23492 46.4681 2.34568 43.1339 4.43877 41.0408C6.64986 38.8297 10.2481 38.8297 12.4592 41.0408C13.5305 42.1122 14.1206 43.5365 14.1206 45.051C14.1206 46.3988 13.6517 47.6751 12.7946 48.6947ZM8.44897 45.9681C7.5432 45.9681 6.80514 45.2301 6.80514 44.3243C6.80514 43.4175 7.5432 42.6805 8.44897 42.6805C9.35576 42.6805 10.0928 43.4175 10.0928 44.3243C10.0928 45.2301 9.35473 45.9681 8.44897 45.9681ZM5.09506 49.6253C7.08256 51.0849 9.81537 51.0849 11.8029 49.6253C11.4809 48.3531 10.3247 47.4298 8.98414 47.4298H7.91379C6.57326 47.4298 5.41699 48.3531 5.09506 49.6253ZM5.09506 12.5233C5.41699 11.25 6.57326 10.3277 7.91379 10.3277H8.98414C10.3247 10.3277 11.4809 11.25 11.8029 12.5233C10.836 13.2355 9.67252 13.6205 8.44897 13.6205C7.22541 13.6205 6.06189 13.2355 5.09506 12.5233ZM8.44897 8.86606C7.5432 8.86606 6.80514 8.12799 6.80514 7.22223C6.80514 6.31543 7.5432 5.5784 8.44897 5.5784C9.35576 5.5784 10.0928 6.31543 10.0928 7.22223C10.0928 8.12799 9.35473 8.86606 8.44897 8.86606ZM2.77734 7.94891C2.77734 6.43344 3.36738 5.0101 4.43877 3.93872C5.51016 2.86733 6.9335 2.27729 8.44897 2.27729C9.9634 2.27729 11.3878 2.86733 12.4592 3.93872C13.5305 5.0101 14.1206 6.43344 14.1206 7.94891C14.1206 9.29668 13.6527 10.572 12.7946 11.5916C12.3412 10.5461 11.4716 9.73041 10.4075 9.33913C10.9768 8.8112 11.335 8.0576 11.335 7.22223C11.335 5.63016 10.04 4.33622 8.44897 4.33622C6.85793 4.33622 5.56295 5.63016 5.56295 7.22223C5.56295 8.0576 5.92111 8.8112 6.49045 9.33913C5.42631 9.73041 4.55678 10.5461 4.10338 11.5916C3.24523 10.572 2.77734 9.29668 2.77734 7.94891ZM41.5408 3.93872C42.6122 2.86733 44.0366 2.27729 45.551 2.27729C47.0655 2.27729 48.4898 2.86733 49.5612 3.93872C50.6326 5.0101 51.2227 6.43344 51.2227 7.94891C51.2227 9.29668 50.7548 10.572 49.8966 11.5916C49.4432 10.5461 48.5737 9.73041 47.5096 9.33913C48.0799 8.8112 48.437 8.0576 48.437 7.22223C48.437 5.63016 47.1421 4.33622 45.551 4.33622C43.96 4.33622 42.665 5.63016 42.665 7.22223C42.665 8.0576 43.0221 8.8112 43.5925 9.33913C42.5284 9.73041 41.6588 10.5461 41.2055 11.5916C40.3473 10.572 39.8794 9.29668 39.8794 7.94891C39.8794 6.43344 40.4695 5.0101 41.5408 3.93872ZM45.551 8.86606C46.4578 8.86606 47.1949 8.12799 47.1949 7.22223C47.1949 6.31543 46.4578 5.5784 45.551 5.5784C44.6442 5.5784 43.9072 6.31543 43.9072 7.22223C43.9072 8.12799 44.6442 8.86606 45.551 8.86606ZM42.1971 12.5233C42.5191 11.25 43.6753 10.3277 45.0159 10.3277H46.0862C47.4267 10.3277 48.584 11.25 48.9049 12.5233C47.9381 13.2355 46.7746 13.6205 45.551 13.6205C44.3275 13.6205 43.164 13.2355 42.1971 12.5233ZM41.1226 39.7437L39.337 37.9591C45.3274 31.5153 45.3274 21.4846 39.337 15.0408L41.1216 13.2562C42.3628 14.2955 43.9124 14.8627 45.551 14.8627C47.3978 14.8627 49.1337 14.1433 50.4401 12.8369C51.7454 11.5316 52.4648 9.79563 52.4648 7.94891C52.4648 6.10219 51.7454 4.36624 50.4401 3.05987C47.7445 0.364321 43.3586 0.364321 40.663 3.05987C39.3577 4.36624 38.6383 6.10219 38.6383 7.94891C38.6383 9.58653 39.2045 11.1372 40.2438 12.3783L38.4592 14.163C35.3351 11.2552 31.2907 9.66106 27 9.66106C22.7103 9.66106 18.6649 11.2552 15.5408 14.163L13.7562 12.3783C14.7955 11.1372 15.3617 9.58653 15.3617 7.94891C15.3617 6.10219 14.6423 4.36624 13.337 3.05987C10.6414 0.364321 6.25547 0.364321 3.55992 3.05987C2.25459 4.36624 1.53516 6.10219 1.53516 7.94891C1.53516 9.79563 2.25459 11.5316 3.55992 12.8369C4.86629 14.1433 6.60225 14.8627 8.44897 14.8627C10.0866 14.8627 11.6372 14.2955 12.8784 13.2562L14.663 15.0408C11.7563 18.1649 10.1611 22.2092 10.1611 26.4999C10.1611 30.7907 11.7563 34.835 14.663 37.9591L12.8784 39.7437C10.1653 37.4767 6.10848 37.6155 3.56096 40.163C0.86541 42.8585 0.86541 47.2445 3.56096 49.94C4.90873 51.2878 6.67885 51.9617 8.45 51.9617C10.2201 51.9617 11.9913 51.2878 13.339 49.94C15.8866 47.3925 16.0253 43.3357 13.7572 40.6226L15.5429 38.8369C18.667 41.7447 22.7113 43.3388 27.0021 43.3388C31.2928 43.3388 35.3371 41.7447 38.4613 38.8369L40.2459 40.6226C37.9789 43.3357 38.1165 47.3925 40.6641 49.94C42.0118 51.2878 43.783 51.9617 45.5531 51.9617C47.3232 51.9617 49.0933 51.2878 50.4421 49.94C53.1377 47.2445 53.1377 42.8585 50.4421 40.163C47.8926 37.6155 43.8358 37.4767 41.1226 39.7437Z" fill="#39B4EF"/>
</svg>
