<svg width="33" height="33" viewBox="0 0 33 33" fill="none" xmlns="http://www.w3.org/2000/svg">
<g clip-path="url(#clip0_8_19895)">
<path d="M16.2648 15.5265C18.4487 15.5265 20.3395 14.7615 21.8849 13.2521C23.4297 11.7429 24.2132 9.89633 24.2132 7.76302C24.2132 5.63045 23.43 3.78364 21.8846 2.27397C20.3392 0.765039 18.4484 0 16.2648 0C14.0807 0 12.1902 0.765039 10.6451 2.27421C9.09998 3.78339 8.31647 5.63021 8.31647 7.76302C8.31647 9.89633 9.09998 11.7431 10.6451 13.2523C12.1907 14.7612 14.0815 15.5265 16.2648 15.5265ZM12.0127 3.60978C13.1983 2.45177 14.5891 1.88887 16.2648 1.88887C17.9404 1.88887 19.3314 2.45177 20.5172 3.60978C21.7028 4.76803 22.2794 6.12671 22.2794 7.76302C22.2794 9.39983 21.7028 10.7583 20.5172 11.9165C19.3314 13.0748 17.9404 13.6377 16.2648 13.6377C14.5896 13.6377 13.1988 13.0745 12.0127 11.9165C10.8269 10.7585 10.2503 9.39983 10.2503 7.76302C10.2503 6.12671 10.8269 4.76803 12.0127 3.60978Z" fill="#39B4EF"/>
<path d="M30.1724 24.7852C30.1278 24.1572 30.0377 23.472 29.905 22.7486C29.771 22.0197 29.5986 21.3306 29.3921 20.7008C29.1786 20.0499 28.8888 19.4071 28.5301 18.7911C28.1582 18.1517 27.7211 17.5949 27.2307 17.1368C26.7178 16.6575 26.0899 16.2722 25.3638 15.9911C24.6402 15.7115 23.8383 15.5698 22.9806 15.5698C22.6437 15.5698 22.3179 15.7048 21.6887 16.1049C21.3015 16.3516 20.8486 16.6368 20.343 16.9524C19.9107 17.2214 19.3251 17.4734 18.6018 17.7017C17.8961 17.9247 17.1795 18.0378 16.4721 18.0378C15.7651 18.0378 15.0485 17.9247 14.3423 17.7017C13.6198 17.4737 13.0339 17.2216 12.6023 16.9526C12.1016 16.64 11.6484 16.3548 11.2554 16.1047C10.6267 15.7046 10.3009 15.5696 9.96405 15.5696C9.10602 15.5696 8.30438 15.7115 7.58105 15.9913C6.85545 16.2719 6.22728 16.6573 5.71392 17.137C5.22347 17.5954 4.7864 18.1519 4.41479 18.7911C4.05652 19.4071 3.76648 20.0496 3.55298 20.7011C3.34678 21.3309 3.17432 22.0197 3.04037 22.7486C2.90744 23.4711 2.81756 24.1564 2.773 24.786C2.72919 25.4015 2.70703 26.0421 2.70703 26.6893C2.70703 28.3719 3.25463 29.734 4.33447 30.7386C5.40097 31.7298 6.81189 32.2325 8.52821 32.2325H24.4179C26.1337 32.2325 27.5446 31.7298 28.6114 30.7386C29.6915 29.7347 30.2391 28.3721 30.2391 26.6891C30.2388 26.0396 30.2164 25.399 30.1724 24.7852ZM27.278 29.37C26.5733 30.0252 25.6377 30.3436 24.4177 30.3436H8.52821C7.30788 30.3436 6.3723 30.0252 5.66785 29.3703C4.97674 28.7277 4.64088 27.8505 4.64088 26.6893C4.64088 26.0854 4.66127 25.489 4.70206 24.9165C4.74184 24.3549 4.82316 23.7379 4.94376 23.0823C5.06284 22.4348 5.21441 21.8271 5.39468 21.277C5.56764 20.7495 5.80355 20.2272 6.09611 19.7241C6.37532 19.2445 6.69658 18.8331 7.05107 18.5016C7.38265 18.1915 7.80059 17.9377 8.29305 17.7474C8.7485 17.5713 9.26035 17.4749 9.81601 17.4604C9.88374 17.4956 10.0043 17.5627 10.1997 17.6871C10.5973 17.9402 11.0555 18.2289 11.562 18.5449C12.133 18.9005 12.8687 19.2217 13.7477 19.4988C14.6462 19.7826 15.5627 19.9267 16.4723 19.9267C17.382 19.9267 18.2986 19.7826 19.1967 19.499C20.0764 19.2214 20.8118 18.9005 21.3836 18.5444C21.902 18.2208 22.3474 17.9404 22.7449 17.6871C22.9403 17.563 23.0609 17.4956 23.1286 17.4604C23.6845 17.4749 24.1964 17.5713 24.6521 17.7474C25.1443 17.9377 25.5622 18.1918 25.8938 18.5016C26.2483 18.8329 26.5695 19.2443 26.8488 19.7243C27.1416 20.2272 27.3777 20.7498 27.5504 21.2768C27.731 21.8276 27.8828 22.435 28.0016 23.082C28.122 23.7389 28.2035 24.3561 28.2433 24.9168V24.9173C28.2843 25.4875 28.305 26.0836 28.3052 26.6893C28.305 27.8508 27.9691 28.7277 27.278 29.37Z" fill="#39B4EF"/>
</g>
<defs>
<clipPath id="clip0_8_19895">
<rect width="33" height="32.2325" fill="white"/>
</clipPath>
</defs>
</svg>
