<svg width="524" height="371" viewBox="0 0 524 371" fill="none" xmlns="http://www.w3.org/2000/svg">
<g clip-path="url(#clip0_260_34301)">
<path d="M442.704 54.5537C435.48 47.5772 427.192 41.3679 417.64 35.766C388.048 18.4167 354.984 6.30182 320.816 2.33811C317.52 1.95452 314.208 1.65085 310.896 1.4191C233.968 -3.84721 182.104 41.7675 150.056 85.6161C118 129.473 71.9678 102.574 24.7598 166.305C-22.4402 230.036 3.19983 294.942 72.5438 328.274C141.896 361.606 231.056 341.14 288.168 327.107C345.28 313.074 401.224 361.606 455.424 292.608C496.112 240.816 496.072 162.861 473.704 103.493C466.24 83.6982 456.368 67.7474 442.704 54.5537Z" fill="#39B4EF"/>
<path opacity="0.7" d="M442.704 54.5537C435.48 47.5772 427.192 41.3679 417.64 35.766C388.048 18.4167 354.984 6.30182 320.816 2.33811C317.52 1.95452 314.208 1.65085 310.896 1.4191C233.968 -3.84721 182.104 41.7675 150.056 85.6161C118 129.473 71.9678 102.574 24.7598 166.305C-22.4402 230.036 3.19983 294.942 72.5438 328.274C141.896 361.606 231.056 341.14 288.168 327.107C345.28 313.074 401.224 361.606 455.424 292.608C496.112 240.816 496.072 162.861 473.704 103.493C466.24 83.6982 456.368 67.7474 442.704 54.5537Z" fill="#F3F8FF"/>
<path opacity="0.3" d="M465.352 85.4243C465.352 85.4243 458.576 52.34 435.992 54.6016C425.72 55.6325 418.856 60.7709 412.904 68.7543C405.264 78.9992 402.528 73.0457 391.592 76.41C381.808 79.4148 383.312 87.6858 377.288 89.1882C371.264 90.6906 366.752 83.9219 358.472 85.4323C350.192 86.9346 345.68 95.2057 345.68 95.2057H496.216C496.216 95.2057 495.464 86.1835 485.68 83.1787C475.888 80.166 471.376 87.6858 465.352 85.4243Z" stroke="#002E47" stroke-miterlimit="10"/>
<path opacity="0.3" d="M109.727 83.2345C109.727 83.2345 105.455 62.3531 91.199 63.7756C84.719 64.4229 80.383 67.6674 76.623 72.7099C71.799 79.1749 70.079 75.419 63.175 77.5367C56.999 79.4386 57.951 84.657 54.151 85.6C50.351 86.5509 47.503 82.2756 42.279 83.2265C37.055 84.1775 34.207 89.3959 34.207 89.3959H129.199C129.199 89.3959 128.727 83.698 122.551 81.8041C116.375 79.9101 113.527 84.657 109.727 83.2345Z" stroke="#002E47" stroke-miterlimit="10"/>
<path opacity="0.3" d="M350.383 295.605C350.383 295.605 346.631 277.265 334.111 278.52C328.415 279.087 324.615 281.94 321.311 286.367C317.079 292.049 315.559 288.749 309.495 290.61C304.071 292.281 304.903 296.86 301.567 297.699C298.231 298.53 295.727 294.782 291.135 295.613C286.543 296.444 284.039 301.031 284.039 301.031H367.479C367.479 301.031 367.063 296.029 361.639 294.366C356.223 292.688 353.719 296.86 350.383 295.605Z" stroke="#002E47" stroke-miterlimit="10"/>
<path opacity="0.3" d="M151.145 263.376C151.145 263.376 147.393 245.036 134.873 246.29C129.177 246.858 125.377 249.711 122.073 254.138C117.841 259.82 116.321 256.519 110.257 258.381C104.833 260.051 105.665 264.63 102.329 265.47C98.9928 266.301 96.4888 262.553 91.8968 263.384C87.3048 264.215 84.8008 268.802 84.8008 268.802H168.241C168.241 268.802 167.825 263.799 162.401 262.137C156.985 260.459 154.481 264.63 151.145 263.376Z" stroke="#002E47" stroke-miterlimit="10"/>
<path d="M429.967 109.59L446.415 121.761L331.271 191.749L310.559 230.699L178.351 279.382L40.7031 370.1H121.639L208.207 304.947L339.799 256.863L362.951 214.261L473.831 138.191L496.983 155.844L523.183 91.9371V84.6011L429.967 109.59Z" fill="#002E47" stroke="#002E47" stroke-miterlimit="10" stroke-linecap="round" stroke-linejoin="round"/>
<path d="M429.967 102.246L446.415 114.417L331.271 184.405L310.559 223.355L178.351 272.038L32.5508 370.1H113.447L208.207 297.603L339.799 249.527L362.951 206.925L473.831 130.847L496.983 148.5L523.183 84.6011L429.967 102.246Z" fill="#F3F8FF" stroke="#002E47" stroke-miterlimit="10" stroke-linecap="round" stroke-linejoin="round"/>
<path d="M331.621 241.791L334.317 244.045" stroke="#002E47" stroke-miterlimit="10" stroke-linecap="round" stroke-linejoin="round"/>
<path d="M315.43 228.222L328.27 238.986" stroke="#002E47" stroke-miterlimit="10" stroke-linecap="round" stroke-linejoin="round"/>
<path d="M336.145 186.235L344.681 192.317" stroke="#002E47" stroke-miterlimit="10" stroke-linecap="round" stroke-linejoin="round"/>
<path d="M203.945 295.165L179.473 277.992" stroke="#002E47" stroke-miterlimit="10" stroke-linecap="round" stroke-linejoin="round"/>
<path d="M429.969 109.59V102.246L446.417 114.417L441.001 117.773L429.969 109.59Z" fill="#F3F8FF" stroke="#002E47" stroke-miterlimit="10" stroke-linecap="round" stroke-linejoin="round"/>
<path d="M496.984 155.844V148.5L473.832 130.847V138.191L496.984 155.844Z" fill="#F3F8FF" stroke="#002E47" stroke-miterlimit="10"/>
<path d="M218.065 145.319L213.289 154.334C213.289 154.334 214.441 155.86 214.897 155.612C215.345 155.365 217.697 151.281 217.697 151.281L215.809 158.257C215.809 158.257 216.561 159.464 217.041 158.937C217.513 158.409 219.233 153.415 219.665 153.311C220.105 153.207 221.113 151.433 221.113 151.433L219.337 157.131C219.337 157.131 218.681 159.784 219.841 159.6C221.001 159.416 221.081 156.851 221.081 156.851L223.553 153.063L222.633 157.123C222.633 157.123 224.249 158.257 224.481 157.282C224.705 156.3 225.601 152.528 225.601 152.528C225.601 152.528 229.585 147.733 230.057 147.197C230.529 146.67 232.889 140.868 232.889 140.868L229.321 135.85L218.065 145.319Z" fill="#F3F8FF" stroke="#002E47" stroke-miterlimit="10" stroke-linecap="round" stroke-linejoin="round"/>
<path d="M228.649 136.944L219.145 139.414C219.145 139.414 216.257 146.446 215.433 147.661C214.617 148.875 215.593 149.099 217.073 148.516C218.553 147.932 221.129 144.576 221.129 144.576C221.129 144.576 225.641 145.247 227.137 142.81" fill="#F3F8FF"/>
<path d="M228.649 136.944L219.145 139.414C219.145 139.414 216.257 146.446 215.433 147.661C214.617 148.875 215.593 149.099 217.073 148.516C218.553 147.932 221.129 144.576 221.129 144.576C221.129 144.576 225.641 145.247 227.137 142.81" stroke="#002E47" stroke-miterlimit="10" stroke-linecap="round" stroke-linejoin="round"/>
<path d="M220.066 148.628L224.154 150.977" stroke="#002E47" stroke-miterlimit="10" stroke-linecap="round" stroke-linejoin="round"/>
<path d="M286.985 58.9968L306.753 109.39L308.497 114.848C308.497 114.848 289.465 122.792 285.513 123.423C281.561 124.054 280.057 124.582 280.057 124.582L260.137 74.7078L266.897 63.9594L283.073 57.1987L286.985 58.9968Z" fill="#F3F8FF" stroke="#002E47" stroke-miterlimit="10" stroke-linecap="round" stroke-linejoin="round"/>
<path d="M287.098 85.4482L296.402 114.705" stroke="#002E47" stroke-miterlimit="10" stroke-linecap="round" stroke-linejoin="round"/>
<path d="M281.896 226.248C281.896 226.248 281.272 231.85 280.656 234.063C280.04 236.277 278.104 242.334 278.392 243.917C278.68 245.499 280.224 252.276 281.168 252.787C282.112 253.291 283.52 253.41 284.288 252.771C285.048 252.132 288.96 244.54 289.328 241.887C289.696 239.234 289.448 230.579 289.512 229.876C289.576 229.165 281.896 226.248 281.896 226.248Z" fill="#002E47" stroke="#002E47" stroke-miterlimit="10" stroke-linecap="round" stroke-linejoin="round"/>
<path d="M365.298 176.797C365.298 176.797 371.698 179.746 372.546 179.826C373.394 179.906 380.69 180.665 380.69 180.665C380.69 180.665 386.738 179.482 387.69 179.994C388.634 180.497 388.306 182.735 388.306 182.735C388.306 182.735 376.138 189.192 374.402 189.608C372.666 190.023 370.61 189.28 369.442 189.608C368.282 189.935 368.282 189.935 368.282 189.935L369.266 191.717L361.994 195.625C361.994 195.625 358.77 191.957 358.666 189.823C358.562 187.69 358.458 184.006 358.458 184.006L357.41 179.674L365.298 176.797Z" fill="#002E47" stroke="#002E47" stroke-miterlimit="10" stroke-linecap="round" stroke-linejoin="round"/>
<path d="M285.312 57.814C285.312 57.814 298.952 92.4806 301.488 97.8188C304.032 103.157 306.352 109.598 308.336 111.268C310.32 112.938 303.224 93.5914 302.552 89.7875C301.88 85.9836 301.984 78.8713 301.984 78.8713L361.752 58.3814L359.512 50.9495L309.616 56.919C309.616 56.919 299.456 55.8002 297.328 55.8642C295.2 55.9441 285.312 57.814 285.312 57.814Z" fill="#39B4EF" stroke="#002E47" stroke-miterlimit="10" stroke-linecap="round" stroke-linejoin="round"/>
<path d="M289.849 56.991C287.393 57.4225 285.305 57.8141 285.305 57.8141C285.305 57.8141 294.825 82.0199 299.441 93.0959C299.097 88.1812 298.321 80.5575 296.633 74.1804C294.681 66.7724 291.497 60.1555 289.849 56.991Z" fill="#39B4EF" stroke="#002E47" stroke-miterlimit="10" stroke-linecap="round" stroke-linejoin="round"/>
<path d="M303.816 63.4238L301.984 78.8791L306.752 64.175" stroke="#002E47" stroke-miterlimit="10" stroke-linecap="round" stroke-linejoin="round"/>
<path d="M359.52 50.9573L363.192 50.3979L364.64 56.8949L361.76 58.3973L359.52 50.9573Z" fill="#F3F8FF" stroke="#002E47" stroke-miterlimit="10" stroke-linecap="round" stroke-linejoin="round"/>
<path d="M376.359 48.5281C376.359 48.5281 379.439 49.0395 379.375 49.7827C379.311 50.5259 378.215 54.5536 378.215 54.5536C378.215 54.5536 375.655 55.2089 373.711 54.5456C371.767 53.8823 371.143 52.4518 371.631 51.1173C372.119 49.7907 376.359 48.5281 376.359 48.5281Z" fill="#F3F8FF" stroke="#002E47" stroke-miterlimit="10" stroke-linecap="round" stroke-linejoin="round"/>
<path d="M374.109 49.9585L376.653 50.9255L376.381 54.0261" stroke="#002E47" stroke-miterlimit="10" stroke-linecap="round" stroke-linejoin="round"/>
<path d="M373.176 50.6299L374.68 52.0044C374.68 52.0044 374.864 52.7716 374.712 53.1312" stroke="#002E47" stroke-miterlimit="10" stroke-linecap="round" stroke-linejoin="round"/>
<path d="M363.191 50.398L372.759 48.2164C372.759 48.2164 381.967 44.3805 382.295 44.908C382.623 45.4354 382.695 46.0667 382.159 46.5222C381.623 46.9777 374.911 49.3991 374.111 49.9585C373.311 50.5179 372.823 51.8445 373.391 52.5237C373.959 53.203 374.999 54.162 376.391 54.0261C377.775 53.8982 381.191 53.4347 381.271 53.9462C381.351 54.4496 381.671 55.1049 380.511 55.5045C379.351 55.9041 377.487 55.7442 376.599 55.92C375.711 56.0959 372.119 57.1587 370.751 57.0468C369.383 56.927 367.079 56.1118 367.079 56.1118L364.639 56.903L363.191 50.398Z" fill="#F3F8FF" stroke="#002E47" stroke-miterlimit="10" stroke-linecap="round" stroke-linejoin="round"/>
<path d="M305.61 109.494C305.61 109.494 315.61 128.913 316.394 128.929C317.178 128.945 326.226 122.129 326.474 121.817C326.714 121.505 314.41 114.481 310.938 110.869C307.466 107.257 304.402 103.253 304.402 103.253L305.61 109.494Z" fill="#39B4EF" stroke="#002E47" stroke-miterlimit="10" stroke-linecap="round" stroke-linejoin="round"/>
<path d="M308.497 114.848L313.297 123.207C313.297 123.207 338.385 120.322 346.881 119.755C355.377 119.188 358.377 120.091 358.377 120.091L366.833 176.773L353.329 182.751L340.729 140.309C340.729 140.309 312.633 147.965 308.537 148.42C304.441 148.884 302.433 149.523 302.433 149.523C302.433 149.523 294.697 201.898 294.097 208.827C293.505 215.747 293.553 228.406 293.553 228.406L289.665 232.13C289.665 232.13 281.281 227.678 280.849 226.999C280.417 226.312 276.193 162.045 276.193 162.045L274.609 136.929L280.049 124.582L308.497 114.848Z" fill="#39B4EF" stroke="#002E47" stroke-miterlimit="10" stroke-linecap="round" stroke-linejoin="round"/>
<path d="M283.161 126.3L309.681 117.182L308.497 114.848L282.785 123.575L283.161 126.3Z" fill="#002E47" stroke="#002E47" stroke-miterlimit="10" stroke-linecap="round" stroke-linejoin="round"/>
<path d="M294.305 119.619L295.545 122.584L301.489 120.482L300.369 117.637L294.305 119.619Z" fill="#F3F8FF" stroke="#002E47" stroke-miterlimit="10" stroke-linecap="round" stroke-linejoin="round"/>
<path d="M288.681 174.496L288.625 171.275" stroke="#002E47" stroke-miterlimit="10" stroke-linecap="round" stroke-linejoin="round"/>
<path d="M289.674 232.13L288.738 177.884" stroke="#002E47" stroke-miterlimit="10" stroke-linecap="round" stroke-linejoin="round"/>
<path d="M302.441 149.523C302.441 149.523 303.985 138.727 307.201 132.342" stroke="#002E47" stroke-miterlimit="10" stroke-linecap="round" stroke-linejoin="round"/>
<path d="M308.77 127.347C308.77 127.347 304.122 134.939 303.41 136.593" stroke="#002E47" stroke-miterlimit="10" stroke-linecap="round" stroke-linejoin="round"/>
<path d="M349.25 137.632L351.562 136.905" stroke="#002E47" stroke-miterlimit="10" stroke-linecap="round" stroke-linejoin="round"/>
<path d="M340.738 140.317L346.866 138.383" stroke="#002E47" stroke-miterlimit="10" stroke-linecap="round" stroke-linejoin="round"/>
<path d="M279.199 77.3049L285.991 81.5963L288.127 71.6311L280.463 69.2656L279.199 77.3049Z" fill="#002E47" stroke="#002E47" stroke-miterlimit="10" stroke-linecap="round" stroke-linejoin="round"/>
<path d="M282.257 73.2213L276.465 85.9276L268.777 65.4058L285.313 57.814L294.417 75.0274L282.257 73.2213Z" fill="#F3F8FF" stroke="#002E47" stroke-miterlimit="10" stroke-linecap="round" stroke-linejoin="round"/>
<path d="M231.05 133.66L227.914 136.936L232.906 142.538L234.522 140.005L231.05 133.66Z" stroke="#002E47" stroke-miterlimit="10" stroke-linecap="round" stroke-linejoin="round"/>
<path d="M266.898 63.9593L248.034 78.7832L246.13 117.637L230.098 134.411L234.778 141.531L257.954 123.223L261.098 101.095L265.49 113.721L260.41 144.584C260.41 144.584 265.802 146.758 271.13 148.076C276.45 149.387 283.25 148.54 283.25 148.54L284.426 111.484L269.53 63.3359L266.898 63.9593Z" fill="#39B4EF" stroke="#002E47" stroke-miterlimit="10" stroke-linecap="round" stroke-linejoin="round"/>
<path d="M267.651 119.659L281.267 120.97V126.204L267.387 124.11" fill="#39B4EF"/>
<path d="M267.651 119.659L281.267 120.97V126.204L267.387 124.11" stroke="#002E47" stroke-miterlimit="10" stroke-linecap="round" stroke-linejoin="round"/>
<path d="M269.529 63.3281L266.897 63.9594L263.441 66.6685C264.289 69.873 266.289 76.7137 269.609 84.0497C272.497 90.4428 277.985 97.8508 281.633 102.438L269.529 63.3281Z" fill="#39B4EF" stroke="#002E47" stroke-miterlimit="10" stroke-linecap="round" stroke-linejoin="round"/>
<path d="M285.993 81.5962L272.729 92.7521L248.113 89.4996L236.457 98.6498L233.945 104.579L243.969 106.154L253.425 95.9567C253.425 95.9567 272.441 99.4409 273.473 99.0973C274.505 98.7536 284.705 84.9126 284.705 84.9126L285.993 81.5962Z" fill="#002E47" stroke="#002E47" stroke-miterlimit="10" stroke-linecap="round" stroke-linejoin="round"/>
<path d="M258.065 38.4509C258.065 38.4509 254.641 39.4259 253.073 37.3881C251.505 35.3503 250.457 32.7211 251.849 33.1527C253.241 33.5922 255.201 34.8708 255.201 34.8708C255.201 34.8708 254.657 30.06 255.793 29.8442C256.921 29.6205 257.377 31.7222 257.377 31.7222C257.377 31.7222 262.289 28.1741 267.745 27.5268C273.201 26.8795 281.361 29.9641 282.529 31.1708C283.697 32.3775 282.921 43.2697 282.697 44.0449C282.473 44.8201 281.993 46.682 281.153 47.2494C280.313 47.8088 278.337 48.592 277.297 47.7129C276.257 46.8339 276.369 45.5712 274.489 45.2516C272.609 44.9319 268.009 44.852 267.697 42.9261C267.385 40.9922 269.433 37.516 267.529 37.516C265.625 37.508 260.873 39.1702 259.593 39.2181C258.313 39.2661 258.065 38.4509 258.065 38.4509Z" fill="#002E47" stroke="#002E47" stroke-miterlimit="10" stroke-linecap="round" stroke-linejoin="round"/>
<path d="M258.067 38.451L258.035 48.1285L260.043 50.6777L259.259 59.8199L263.259 59.5242C263.259 59.5242 265.923 67.3717 266.699 67.5955C267.475 67.8192 270.835 65.7255 270.835 65.7255C270.835 65.7255 281.755 73.6449 282.267 73.2134C282.779 72.7818 284.899 59.1566 285.259 58.7091C285.619 58.2615 283.683 51.1173 283.683 51.1173C283.683 51.1173 285.227 47.9127 284.803 45.4993C284.371 43.078 283.603 42.8542 283.603 42.8542C283.603 42.8542 281.939 41.9192 281.379 42.8222C280.827 43.7253 279.147 46.6022 279.147 46.6022L276.707 43.5335C276.707 43.5335 269.763 42.9421 269.851 41.9911C269.931 41.0482 271.459 36.2533 271.019 35.7419C270.579 35.2384 262.283 35.638 258.067 38.451Z" fill="#F3F8FF" stroke="#002E47" stroke-miterlimit="10" stroke-linecap="round" stroke-linejoin="round"/>
<path d="M267.463 49.9344C267.783 50.7336 267.727 51.5087 267.327 51.6765C266.927 51.8364 266.343 51.3169 266.015 50.5178C265.695 49.7187 265.751 48.9435 266.151 48.7757C266.551 48.6238 267.135 49.1353 267.463 49.9344Z" fill="#002E47"/>
<path d="M261.746 49.0155C261.746 49.0155 264.074 53.9142 265.474 54.2978C266.882 54.6814 270.874 53.8423 271.386 52.4518C271.898 51.0613 270.49 46.1067 270.49 46.1067L261.746 49.0155Z" stroke="#002E47" stroke-miterlimit="10" stroke-linecap="round" stroke-linejoin="round"/>
<path d="M270.488 46.1148L281.368 42.8303" stroke="#002E47" stroke-miterlimit="10" stroke-linecap="round" stroke-linejoin="round"/>
<path d="M261.744 49.0156L254.84 51.8206C254.84 51.8206 256.4 54.9532 259.048 54.5297" stroke="#002E47" stroke-miterlimit="10" stroke-linecap="round" stroke-linejoin="round"/>
<path d="M267.984 58.5572C267.984 58.5572 271.816 58.1017 272.632 54.6494" stroke="#002E47" stroke-miterlimit="10" stroke-linecap="round" stroke-linejoin="round"/>
<path d="M270.824 65.7335C270.824 65.7335 276.592 61.7698 277.296 61.1785C278 60.5871 278.712 58.4294 278.712 58.4294C278.712 58.4294 277.888 65.0143 277.376 66.4048C276.864 67.7953 276.216 69.3057 276.216 69.3057L270.824 65.7335Z" fill="#002E47" stroke="#002E47" stroke-miterlimit="10" stroke-linecap="round" stroke-linejoin="round"/>
<path d="M283.672 51.1252C283.672 51.1252 282.784 53.5626 281.336 53.6985" stroke="#002E47" stroke-miterlimit="10" stroke-linecap="round" stroke-linejoin="round"/>
<path d="M263.891 46.8498C263.891 46.8498 265.267 44.4843 268.347 45.1396" stroke="#002E47" stroke-miterlimit="10" stroke-linecap="round" stroke-linejoin="round"/>
<path d="M196.633 161.454L198.425 156.811L202.113 153.335C202.113 153.335 203.393 151.009 204.169 151.481C204.945 151.952 204.489 152.456 204.145 153.375C203.793 154.294 202.017 156.036 202.017 156.036C202.017 156.036 209.201 151.241 209.617 151.137C210.033 151.041 211.185 151.816 210.577 152.576C209.969 153.335 205.089 156.571 205.089 156.571L212.977 153.055C212.977 153.055 213.609 155.141 212.761 155.604C211.905 156.076 207.449 159.073 207.449 159.073C207.449 159.073 210.913 158.154 211.905 157.698C212.889 157.243 213.305 158.769 212.585 159.248C211.865 159.728 207.433 162.461 207.433 162.461C207.433 162.461 211.721 161.478 211.537 161.997C211.353 162.525 211.457 162.94 210.209 163.236C208.961 163.532 204.025 165.817 204.025 165.817L197.217 167.807L196.633 161.454Z" fill="#F3F8FF" stroke="#002E47" stroke-miterlimit="10" stroke-linecap="round" stroke-linejoin="round"/>
<path d="M194.145 163.084L196.633 161.454L199.609 167.911L196.065 170.125L194.145 163.084Z" fill="#F3F8FF" stroke="#002E47" stroke-miterlimit="10" stroke-linecap="round" stroke-linejoin="round"/>
<path d="M100.809 222.332C100.809 222.332 101.513 230.819 101.441 231.666C101.369 232.513 105.033 236.397 105.985 237.052C106.929 237.708 110.305 236.709 110.305 236.709C110.305 236.709 114.017 231.746 113.713 230.292C113.409 228.837 112.465 228.19 112.465 228.19L107.889 223.899L106.401 222.101L100.809 222.332Z" fill="#F3F8FF" stroke="#002E47" stroke-miterlimit="10" stroke-linecap="round" stroke-linejoin="round"/>
<path d="M107.263 232.026L105.367 234.152C105.367 234.152 106.247 235.51 107.127 235.302C107.999 235.095 107.999 235.095 107.999 235.095" stroke="#002E47" stroke-miterlimit="10" stroke-linecap="round" stroke-linejoin="round"/>
<path d="M106.399 222.101C106.399 222.101 111.175 226.368 112.151 226.736C113.119 227.103 113.575 228.43 113.399 228.837C113.223 229.253 109.511 232.505 108.599 233.137C107.687 233.776 106.871 233.273 107.263 232.026C107.655 230.771 108.535 228.853 108.535 228.853C108.535 228.853 106.663 228.981 106.223 227.511" fill="#F3F8FF"/>
<path d="M106.399 222.101C106.399 222.101 111.175 226.368 112.151 226.736C113.119 227.103 113.575 228.43 113.399 228.837C113.223 229.253 109.511 232.505 108.599 233.137C107.687 233.776 106.871 233.273 107.263 232.026C107.655 230.771 108.535 228.853 108.535 228.853C108.535 228.853 106.663 228.981 106.223 227.511" stroke="#002E47" stroke-miterlimit="10" stroke-linecap="round" stroke-linejoin="round"/>
<path d="M100.426 218.448L100.81 222.332C100.81 222.332 102.842 223.651 104.282 223.483C105.722 223.323 107.538 222.188 107.538 222.188L108.706 219.511L100.426 218.448Z" fill="#F3F8FF" stroke="#002E47" stroke-miterlimit="10" stroke-linecap="round" stroke-linejoin="round"/>
<path d="M180.963 276.833C180.963 276.833 178.267 286.487 178.243 288.493C178.211 290.499 178.843 294.846 178.843 294.846C178.843 294.846 179.635 295.629 181.667 295.373C183.699 295.118 185.323 294.542 185.787 294.151C186.251 293.759 186.195 291.034 186.195 291.034C186.195 291.034 188.179 291.346 189.587 291.61C190.995 291.873 195.611 289.979 197.403 289.124C199.195 288.277 202.547 285.984 202.995 284.162C203.435 282.34 202.219 281.516 201.651 281.468C201.083 281.421 194.059 281.389 192.499 281.117C190.947 280.837 188.307 278.176 188.195 277.737C188.099 277.297 180.963 276.833 180.963 276.833Z" fill="#002E47" stroke="#002E47" stroke-miterlimit="10" stroke-linecap="round" stroke-linejoin="round"/>
<path d="M143.098 315.288L143.434 319.755C143.434 319.755 146.666 323.902 147.626 324.414C148.586 324.925 150.738 324.965 150.906 326.268C151.082 327.57 151.458 328.178 150.41 328.665C149.362 329.153 145.218 330.655 143.642 330.663C142.066 330.671 139.162 329.416 139.162 329.416L138.73 331.103C138.73 331.103 137.682 331.59 135.818 331.566C133.954 331.55 132.426 330.991 132.426 330.991C132.426 330.991 131.738 327.347 132.05 325.373C132.362 323.391 133.666 318.205 133.666 318.205L134.778 313.57L143.098 315.288Z" fill="#002E47" stroke="#002E47" stroke-miterlimit="10" stroke-linecap="round" stroke-linejoin="round"/>
<path d="M126.242 224.082L129.882 231.674L140.026 268.378L133.938 314.401C133.938 314.401 136.218 316.167 138.058 316.327C139.898 316.486 144.506 316.167 144.506 316.167L155.25 267.547L157.05 231.578L185.114 232.697L179.482 278C179.482 278 182.978 278.871 184.258 278.983C185.538 279.095 190.17 278.344 190.17 278.344C190.17 278.344 203.338 221.837 203.73 220.59C204.122 219.335 204.018 218.904 203.65 218.153C203.282 217.41 171.074 209.658 171.074 209.658C171.074 209.658 133.338 224.69 126.242 224.082Z" fill="#39B4EF" stroke="#002E47" stroke-miterlimit="10" stroke-linecap="round" stroke-linejoin="round"/>
<path d="M157.041 231.57L140.945 230.508L156.329 241.815L157.041 231.57Z" fill="#002E47" stroke="#002E47" stroke-miterlimit="10" stroke-linecap="round" stroke-linejoin="round"/>
<path d="M126.29 149.563C126.29 149.563 116.73 155.285 116.058 157.243C115.386 159.201 102.226 191.286 102.106 192.62C101.994 193.955 99.5938 219.919 99.5938 219.919C99.5938 219.919 101.706 220.774 103.706 220.942C105.706 221.11 108.698 219.527 108.698 219.527L114.554 192.349L125.058 179.491L128.114 190.822L120.778 225.417C120.778 225.417 133.066 228.981 145.97 225.393C158.874 221.797 173.53 209.466 173.53 209.466C173.53 209.466 166.002 195.401 163.898 192.541C161.794 189.68 160.034 186.675 160.034 186.675L160.218 180.649C160.218 180.649 171.29 192.501 172.498 192.101C173.706 191.701 197.394 170.077 197.394 170.077L194.13 163.084L172.57 173.649C172.57 173.649 161.746 149.068 159.474 148.204C157.194 147.341 152.21 146.742 152.21 146.742C152.21 146.742 136.754 143.082 126.29 149.563Z" fill="#39B4EF" stroke="#002E47" stroke-miterlimit="10" stroke-linecap="round" stroke-linejoin="round"/>
<path d="M142.002 107.305C142.002 107.305 143.202 108.583 144.45 110.925C145.69 113.258 146.002 115.776 147.89 116.726C149.778 117.677 152.418 117.51 152.338 118.421C152.258 119.332 150.778 121.298 150.778 121.298C150.778 121.298 152.962 129.481 152.45 130.879C151.938 132.278 145.506 135.394 145.506 135.394L145.53 142.738L136.018 143.498C136.018 143.498 133.21 136.441 132.098 131.103C130.978 125.765 136.234 122.68 136.114 116.375C136.002 110.078 137.082 106.625 138.418 106.354C139.754 106.058 142.002 107.305 142.002 107.305Z" fill="#F3F8FF" stroke="#002E47" stroke-miterlimit="10" stroke-linecap="round" stroke-linejoin="round"/>
<path d="M146.091 116.894C146.411 117.701 146.371 118.469 146.003 118.612C145.635 118.756 145.075 118.229 144.755 117.422C144.435 116.615 144.475 115.847 144.843 115.704C145.211 115.56 145.771 116.087 146.091 116.894Z" fill="#002E47"/>
<path d="M143.444 115.024C143.444 115.024 143.316 113.442 144.86 113.834" stroke="#002E47" stroke-miterlimit="10" stroke-linecap="round" stroke-linejoin="round"/>
<path d="M151.536 124.63C151.536 124.63 150.656 125.733 148.992 125.197" stroke="#002E47" stroke-miterlimit="10" stroke-linecap="round" stroke-linejoin="round"/>
<path d="M140.697 110.333C140.697 110.333 142.793 114.968 141.729 118.157C140.665 121.345 138.873 123.943 138.873 123.943C138.873 123.943 136.769 127.035 137.121 129.033C137.473 131.031 139.585 138.551 140.201 138.99C140.817 139.438 140.817 139.438 140.817 139.438L142.137 140.86C142.137 140.86 135.209 145.12 127.657 146.039C120.097 146.966 115.145 145.096 114.145 144.488C113.145 143.881 112.289 143.154 112.289 143.154C112.289 143.154 116.137 136.537 116.209 129.601C116.281 122.664 114.153 118.413 116.249 112.307C118.345 106.194 133.961 103.077 133.961 103.077C133.961 103.077 134.681 100.784 137.681 101.039C140.673 101.295 143.681 107.584 143.681 107.584L140.697 110.333Z" fill="#002E47" stroke="#002E47" stroke-miterlimit="10" stroke-linecap="round" stroke-linejoin="round"/>
<path d="M139.859 126.252C139.859 126.252 137.523 122.904 136.243 125.549C134.963 128.194 139.059 132.469 141.139 131.207" fill="#F3F8FF"/>
<path d="M139.859 126.252C139.859 126.252 137.523 122.904 136.243 125.549C134.963 128.194 139.059 132.469 141.139 131.207" stroke="#002E47" stroke-miterlimit="10" stroke-linecap="round" stroke-linejoin="round"/>
<path d="M136.688 141.899C136.688 141.899 144.304 141.212 145.64 141.324C146.976 141.436 150.152 143.553 150.152 143.553L149.936 146.055C149.936 146.055 142.552 144.081 138.448 144.904C134.344 145.727 128.48 147.573 128.48 147.573L129.656 143.649C129.648 143.641 133.656 141.971 136.688 141.899Z" fill="#F3F8FF" stroke="#002E47" stroke-miterlimit="10" stroke-linecap="round" stroke-linejoin="round"/>
<path d="M126.289 149.563L127.665 146.039C127.665 146.039 137.705 143.594 141.617 143.154C145.529 142.714 149.769 144.017 151.537 145.008C153.297 145.999 153.841 147.549 153.841 147.549C153.841 147.549 145.937 145.695 138.977 146.614C132.009 147.533 126.289 149.563 126.289 149.563Z" fill="#39B4EF" stroke="#002E47" stroke-miterlimit="10" stroke-linecap="round" stroke-linejoin="round"/>
<path d="M160.234 180.649L150.17 170.732C150.17 170.732 147.914 167.687 149.186 162.597" stroke="#002E47" stroke-miterlimit="10" stroke-linecap="round" stroke-linejoin="round"/>
<path d="M125.065 179.483L119.145 164.387" stroke="#002E47" stroke-miterlimit="10" stroke-linecap="round" stroke-linejoin="round"/>
</g>
<defs>
<clipPath id="clip0_260_34301">
<rect width="524" height="370" fill="white" transform="translate(0 0.5)"/>
</clipPath>
</defs>
</svg>
