<svg width="256" height="263" viewBox="0 0 256 263" fill="none" xmlns="http://www.w3.org/2000/svg">
<g clip-path="url(#clip0_261_34753)">
<path opacity="0.7" d="M19.9828 81.7412C19.9828 81.7412 3.48772 124.355 26.6685 167.277C49.8433 210.204 97.5952 232.864 135.81 252.25C174.024 271.636 213.706 262.195 232.562 230.443C251.418 198.691 225.551 176.026 225.521 130.748C225.492 85.4705 232.296 73.4836 207.795 35.2324C183.295 -3.01891 123.154 -11.4896 77.6921 16.8822C32.2299 45.2539 19.9828 81.7412 19.9828 81.7412Z" fill="white"/>
<path d="M19.1472 39.2102C21.141 36.8247 23.3124 34.6049 25.6494 32.5805C42.4936 17.9832 66.5677 15.2011 87.37 21.7479C108.178 28.2948 125.975 43.1466 140.393 60.455C146.978 68.3633 153.238 77.0767 162.054 81.9129C173.419 88.152 186.583 86.8438 198.872 88.6788C243.553 95.35 258.114 158.048 227.585 190.67C215.55 203.533 198.754 210.785 182.826 216.224C160.77 223.766 137.696 228.708 114.55 227.785C91.405 226.862 68.1178 219.794 49.4809 205.108C25.0695 185.876 10.3908 154.988 4.28497 123.242C1.19066 107.177 0.09611 90.4664 3.16084 74.3952C5.62801 61.485 10.9588 48.9832 19.1472 39.2102Z" fill="#39B4EF"/>
<path opacity="0.7" d="M198.872 88.6788C186.583 86.8438 173.419 88.1519 162.054 81.9129C153.238 77.0767 146.984 68.3633 140.393 60.455C125.981 43.1466 108.178 28.2948 87.37 21.7479C66.5618 15.2011 42.4936 17.9832 25.6494 32.5805C23.3124 34.6049 21.1469 36.8247 19.1472 39.2102C10.9588 48.9832 5.62801 61.485 3.16084 74.4071C0.09611 90.4783 1.19066 107.189 4.28497 123.254C10.3967 154.994 25.0695 185.887 49.4809 205.12C68.1178 219.806 91.405 226.873 114.55 227.797C137.696 228.72 160.77 223.778 182.826 216.236C198.748 210.79 215.55 203.539 227.585 190.682C258.114 158.048 243.553 95.3559 198.872 88.6788Z" fill="white"/>
<path d="M1.33984 244.673H254.79" stroke="#002E47" stroke-miterlimit="10" stroke-linecap="round" stroke-linejoin="round"/>
<path d="M128.621 53.7424V55.8142" stroke="#39B4EF" stroke-width="3" stroke-linejoin="round"/>
<path d="M128.621 60.3662V67.1913" stroke="#39B4EF" stroke-width="3" stroke-linejoin="round" stroke-dasharray="7.68 7.68"/>
<path d="M128.622 69.4644V71.5362H126.551" stroke="#39B4EF" stroke-width="3" stroke-linejoin="round"/>
<path d="M122.368 71.5361H57.5469" stroke="#39B4EF" stroke-width="3" stroke-linejoin="round" stroke-dasharray="7.07 7.07"/>
<path d="M55.4575 71.5361H53.3867V73.6079" stroke="#39B4EF" stroke-width="3" stroke-linejoin="round"/>
<path d="M53.3867 77.0057V82.1023" stroke="#39B4EF" stroke-width="3" stroke-linejoin="round" stroke-dasharray="5.74 5.74"/>
<path d="M53.3867 83.8011V85.8729" stroke="#39B4EF" stroke-width="3" stroke-linejoin="round"/>
<path d="M63.9023 63.5804H72.3096" stroke="#002E47" stroke-miterlimit="10" stroke-linecap="round" stroke-linejoin="round"/>
<path d="M65.7527 43.3656C63.1909 44.585 61.4218 47.1955 61.4218 50.2203C61.4218 51.0845 61.5698 51.9073 61.836 52.6828C61.6999 52.671 61.5579 52.6591 61.4218 52.6591C58.4044 52.6591 55.9609 55.1038 55.9609 58.1227C55.9609 61.1416 58.4044 63.5864 61.4218 63.5864" stroke="#002E47" stroke-miterlimit="10" stroke-linecap="round" stroke-linejoin="round"/>
<path d="M82.314 36.9845C81.2786 36.6589 80.1722 36.4814 79.0244 36.4814C74.6995 36.4814 70.9603 38.9971 69.1853 42.6435C69.1261 42.6435 69.067 42.6316 69.0078 42.6316" stroke="#002E47" stroke-miterlimit="10" stroke-linecap="round" stroke-linejoin="round"/>
<path d="M91.2117 45.8873C90.7502 45.8873 90.3005 45.9228 89.8568 45.9879C89.484 43.1289 88.0108 40.619 85.875 38.8965" stroke="#002E47" stroke-miterlimit="10" stroke-linecap="round" stroke-linejoin="round"/>
<path d="M77.5859 63.5805H91.2116C96.0986 63.5805 100.057 59.6204 100.057 54.7309" stroke="#002E47" stroke-miterlimit="10" stroke-linecap="round" stroke-linejoin="round"/>
<path d="M169.918 64.0718H175.621" stroke="#002E47" stroke-miterlimit="10" stroke-linecap="round" stroke-linejoin="round"/>
<path d="M171.173 50.3565C169.44 51.1852 168.239 52.9551 168.239 55.0091C168.239 55.5952 168.339 56.1516 168.523 56.6784C168.428 56.6725 168.334 56.6666 168.239 56.6666C166.192 56.6666 164.535 58.324 164.535 60.3721C164.535 62.4203 166.192 64.0777 168.239 64.0777" stroke="#002E47" stroke-miterlimit="10" stroke-linecap="round" stroke-linejoin="round"/>
<path d="M182.409 46.0235C181.705 45.7985 180.954 45.6801 180.179 45.6801C177.244 45.6801 174.706 47.3849 173.505 49.8593C173.464 49.8593 173.428 49.8533 173.387 49.8533" stroke="#002E47" stroke-miterlimit="10" stroke-linecap="round" stroke-linejoin="round"/>
<path d="M188.451 52.0672C188.137 52.0672 187.83 52.0909 187.534 52.1382C187.279 50.2026 186.28 48.4978 184.836 47.3257" stroke="#002E47" stroke-miterlimit="10" stroke-linecap="round" stroke-linejoin="round"/>
<path d="M179.203 64.0718H188.451C191.764 64.0718 194.45 61.3844 194.45 58.0695" stroke="#002E47" stroke-miterlimit="10" stroke-linecap="round" stroke-linejoin="round"/>
<path d="M148.448 24.8083C147.727 24.8083 147.017 24.8616 146.319 24.9681C145.218 16.5389 138.018 10.0275 129.291 10.0275C122.493 10.0275 116.618 13.9757 113.837 19.7057C113.742 19.7057 113.654 19.6939 113.559 19.6939C106.98 19.6939 101.643 25.0332 101.643 31.6156C101.643 32.9712 101.88 34.2675 102.294 35.481C102.075 35.4632 101.862 35.4455 101.643 35.4455C96.9042 35.4455 93.0703 39.2872 93.0703 44.0227C93.0703 48.7582 96.9101 52.5999 101.643 52.5999H148.448C156.122 52.5999 162.34 46.3786 162.34 38.7011C162.34 31.0237 156.122 24.8083 148.448 24.8083Z" fill="white" stroke="#002E47" stroke-miterlimit="10"/>
<path d="M128.695 38.8965V28.946" stroke="#002E47" stroke-miterlimit="10" stroke-linecap="round" stroke-linejoin="round"/>
<path d="M134.214 32.3319L128.694 26.8091L123.18 32.3319" stroke="#002E47" stroke-miterlimit="10" stroke-linecap="round" stroke-linejoin="round"/>
<path d="M128.695 41.1222V43.3657" stroke="#002E47" stroke-miterlimit="10" stroke-linecap="round" stroke-linejoin="round"/>
<path d="M128.695 45.988V47.7046" stroke="#002E47" stroke-miterlimit="10" stroke-linecap="round" stroke-linejoin="round"/>
<path d="M110.959 244.673H99.2383C96.357 244.673 94.3868 242.341 94.8483 239.464L99.3862 211.004C99.8477 208.127 102.552 205.794 105.439 205.794H141.387" stroke="#002E47" stroke-miterlimit="10" stroke-linecap="round" stroke-linejoin="round"/>
<path d="M104.41 197.898H114.941C115.598 197.898 116.184 198.3 116.427 198.91L117.681 202.136H139.986C142.282 202.136 144.234 203.622 144.932 205.682L146.18 205.789C149.062 205.789 151.032 208.121 150.57 210.998L146.033 239.458C145.577 242.335 142.867 244.667 139.98 244.667H117.752" stroke="#002E47" stroke-miterlimit="10" stroke-linecap="round" stroke-linejoin="round"/>
<path d="M94.0195 219.801V211.863V207.364C94.0195 204.605 96.1613 202.374 98.8651 202.179L100.131 198.917C100.368 198.307 100.96 197.905 101.616 197.905" stroke="#002E47" stroke-miterlimit="10" stroke-linecap="round" stroke-linejoin="round"/>
<path d="M99.2379 244.673C96.3565 244.673 94.0195 242.335 94.0195 239.452V227.903" stroke="#002E47" stroke-miterlimit="10" stroke-linecap="round" stroke-linejoin="round"/>
<path d="M210.828 244.673C209.373 244.673 208.195 243.495 208.195 242.039V225.849C208.195 224.458 209.278 223.334 210.639 223.233L211.278 221.587C211.396 221.28 211.692 221.078 212.023 221.078H218.744C219.076 221.078 219.372 221.28 219.49 221.587L220.123 223.215H231.376C232.536 223.215 233.518 223.967 233.873 225.003" fill="#39B4EF"/>
<mask id="mask0_261_34753" style="mask-type:luminance" maskUnits="userSpaceOnUse" x="208" y="221" width="26" height="24">
<path d="M210.828 244.673C209.373 244.673 208.195 243.495 208.195 242.039V225.849C208.195 224.458 209.278 223.334 210.639 223.233L211.278 221.587C211.396 221.28 211.692 221.078 212.023 221.078H218.744C219.076 221.078 219.372 221.28 219.49 221.587L220.123 223.215H231.376C232.536 223.215 233.518 223.967 233.873 225.003" fill="white"/>
</mask>
<g mask="url(#mask0_261_34753)">
<path opacity="0.3" d="M210.828 244.673C209.373 244.673 208.195 243.495 208.195 242.039V225.849C208.195 224.458 209.278 223.334 210.639 223.233L211.278 221.587C211.396 221.28 211.692 221.078 212.023 221.078H218.744C219.076 221.078 219.372 221.28 219.49 221.587L220.123 223.215H231.376C232.536 223.215 233.518 223.967 233.873 225.003" fill="black" fill-opacity="0.7"/>
</g>
<path d="M210.828 244.673C209.373 244.673 208.195 243.495 208.195 242.039V225.849C208.195 224.458 209.278 223.334 210.639 223.233L211.278 221.587C211.396 221.28 211.692 221.078 212.023 221.078H218.744C219.076 221.078 219.372 221.28 219.49 221.587L220.123 223.215H231.376C232.536 223.215 233.518 223.967 233.873 225.003" stroke="#002E47" stroke-miterlimit="10" stroke-linecap="round" stroke-linejoin="round"/>
<path d="M210.828 244.673H231.382C232.837 244.673 234.204 243.495 234.435 242.045L236.725 227.684C236.955 226.234 235.961 225.056 234.512 225.056H213.958C212.503 225.056 211.136 226.234 210.905 227.684L208.615 242.045C208.385 243.501 209.373 244.673 210.828 244.673Z" fill="#39B4EF" stroke="#002E47" stroke-miterlimit="10" stroke-linecap="round" stroke-linejoin="round"/>
<path d="M91.0742 244.673C89.6188 244.673 88.4414 243.495 88.4414 242.039V225.849C88.4414 224.458 89.5241 223.334 90.8849 223.233L91.5239 221.587C91.6422 221.28 91.938 221.078 92.2694 221.078H98.9905C99.3218 221.078 99.6176 221.28 99.736 221.587L100.369 223.215H111.622C112.782 223.215 113.764 223.967 114.119 225.003" fill="#39B4EF"/>
<mask id="mask1_261_34753" style="mask-type:luminance" maskUnits="userSpaceOnUse" x="88" y="221" width="27" height="24">
<path d="M91.0742 244.673C89.6188 244.673 88.4414 243.495 88.4414 242.039V225.849C88.4414 224.458 89.5241 223.334 90.8849 223.233L91.5239 221.587C91.6422 221.28 91.938 221.078 92.2694 221.078H98.9905C99.3218 221.078 99.6176 221.28 99.736 221.587L100.369 223.215H111.622C112.782 223.215 113.764 223.967 114.119 225.003" fill="white"/>
</mask>
<g mask="url(#mask1_261_34753)">
<path opacity="0.3" d="M91.0742 244.673C89.6188 244.673 88.4414 243.495 88.4414 242.039V225.849C88.4414 224.458 89.5241 223.334 90.8849 223.233L91.5239 221.587C91.6422 221.28 91.938 221.078 92.2694 221.078H98.9905C99.3218 221.078 99.6176 221.28 99.736 221.587L100.369 223.215H111.622C112.782 223.215 113.764 223.967 114.119 225.003" fill="black" fill-opacity="0.7"/>
</g>
<path d="M91.0742 244.673C89.6188 244.673 88.4414 243.495 88.4414 242.039V225.849C88.4414 224.458 89.5241 223.334 90.8849 223.233L91.5239 221.587C91.6422 221.28 91.938 221.078 92.2694 221.078H98.9905C99.3218 221.078 99.6176 221.28 99.736 221.587L100.369 223.215H111.622C112.782 223.215 113.764 223.967 114.119 225.003" stroke="#002E47" stroke-miterlimit="10" stroke-linecap="round" stroke-linejoin="round"/>
<path d="M91.0757 244.673H111.63C113.085 244.673 114.452 243.495 114.682 242.045L116.972 227.684C117.203 226.234 116.209 225.056 114.759 225.056H94.2055C92.7501 225.056 91.3834 226.234 91.1526 227.684L88.863 242.045C88.6263 243.501 89.6203 244.673 91.0757 244.673Z" fill="#39B4EF" stroke="#002E47" stroke-miterlimit="10" stroke-linecap="round" stroke-linejoin="round"/>
<path d="M163.408 236.309C163.408 236.309 164.337 242.009 163.408 244.673H144.546C144.546 244.673 143.748 242.678 144.546 241.418C145.345 240.157 151.321 239.44 153.179 237.742C155.036 236.043 157.03 233.119 157.03 233.119L163.408 236.309Z" fill="#39B4EF" stroke="#002E47" stroke-miterlimit="10" stroke-linecap="round" stroke-linejoin="round"/>
<path d="M144.199 243.673H163.658L163.824 244.673H144.199V243.673Z" fill="white" stroke="#002E47" stroke-miterlimit="10" stroke-linecap="round" stroke-linejoin="round"/>
<path d="M158.878 235.616C158.878 235.616 157.103 236.049 156.902 236.114C156.701 236.179 154.973 238.837 153.251 239.304C151.524 239.772 149.796 239.677 150.062 240.524" stroke="#002E47" stroke-miterlimit="10" stroke-linecap="round" stroke-linejoin="round"/>
<path d="M154.949 235.616L156.973 237.108" stroke="#002E47" stroke-miterlimit="10" stroke-linecap="round" stroke-linejoin="round"/>
<path d="M154.012 236.919L155.958 238.351" stroke="#002E47" stroke-miterlimit="10" stroke-linecap="round" stroke-linejoin="round"/>
<path d="M152.766 238.067L154.458 239.701" stroke="#002E47" stroke-miterlimit="10" stroke-linecap="round" stroke-linejoin="round"/>
<path d="M151.059 238.896L151.786 240.518" stroke="#002E47" stroke-miterlimit="10" stroke-linecap="round" stroke-linejoin="round"/>
<path d="M163.716 238.896C163.716 238.896 160.621 238.517 157.237 239.707C153.853 240.891 152.682 241.932 152.77 242.24C152.859 242.554 153.255 243.477 153.255 243.477H154.953C154.953 243.477 154.338 242.394 154.462 242.24C154.587 242.086 160.373 239.825 163.722 240.228V238.896H163.716Z" fill="#002E47"/>
<path d="M195.377 244.673C195.377 244.673 196.105 241.897 195.253 240.867C193.726 239.02 195.436 237.469 193.91 236.83L193.271 237.576C193.147 236.818 193.502 234.521 190.662 234.219C187.23 233.858 187.165 236.356 186.976 237.179L187.035 236.031C185.573 236.031 186.331 237.493 184.112 239.884C182.42 241.707 182.414 244.052 182.509 244.673H195.377Z" fill="#39B4EF" stroke="#002E47" stroke-miterlimit="10" stroke-linecap="round" stroke-linejoin="round"/>
<path d="M207.813 139.071C209.399 139.994 213.487 148.708 211.102 165.998C208.718 183.289 201.571 217.106 200.37 222.28C199.175 227.454 194.974 239.89 194.974 239.89C194.974 239.89 193.371 234.492 185.662 237.38C185.378 237.487 185.082 237.232 185.141 236.936L186.833 228.122C186.833 228.122 186.951 221.676 187.508 220.06C189.596 213.969 190.643 190.457 191.33 187.178C192.016 183.898 190.667 174.457 190.667 174.457C190.667 174.457 181.017 197.566 180.704 199.834C180.39 202.101 174.503 211.536 174.503 211.536L173.486 220.202C173.486 220.202 165.652 233.628 164.274 237.635L154.949 235.611L155.21 228.975L157.724 228.117L162.114 213.028C162.114 213.028 163.771 206.351 167.22 197.626C169.297 192.375 175.184 172.06 175.184 172.06C177.012 170.071 178.733 159.072 178.733 159.072L181.562 145.197L207.813 139.071Z" fill="#002E47"/>
<path d="M168.655 102.406L149.486 116.849L137.15 97.3803L132.535 97.9782C132.535 97.9782 141.718 123.094 146.8 125.592C151.882 128.09 171.04 114.209 171.04 114.209" fill="white"/>
<path d="M168.655 102.406L149.486 116.849L137.15 97.3803L132.535 97.9782C132.535 97.9782 141.718 123.094 146.8 125.592C151.882 128.09 171.04 114.209 171.04 114.209" stroke="#002E47" stroke-miterlimit="10" stroke-linecap="round" stroke-linejoin="round"/>
<path d="M172.868 99.5172C172.868 99.5172 167.319 101.453 163.597 104.679C159.876 107.905 153.941 112.723 153.941 112.723C153.941 112.723 157.302 120.726 161.165 124.03L169.431 120.715L172.868 99.5172Z" fill="#39B4EF"/>
<mask id="mask2_261_34753" style="mask-type:luminance" maskUnits="userSpaceOnUse" x="153" y="99" width="20" height="26">
<path d="M172.868 99.5172C172.868 99.5172 167.319 101.453 163.597 104.679C159.876 107.905 153.941 112.723 153.941 112.723C153.941 112.723 157.302 120.726 161.165 124.03L169.431 120.715L172.868 99.5172Z" fill="white"/>
</mask>
<g mask="url(#mask2_261_34753)">
<path opacity="0.4" d="M161.114 123.989L164.143 121.296C162.049 120.591 161.8 116.317 162.972 117.549C164.143 118.78 166.131 119.188 166.131 119.188C164.611 114.974 165.226 110.954 165.226 110.954C165.226 110.954 166.238 113.778 166.818 116.619C167.202 118.513 168.616 119.786 169.196 120.461L172.876 99.524C172.876 99.524 167.326 101.46 163.605 104.686C159.883 107.912 153.949 112.73 153.949 112.73C153.949 112.73 157.274 120.656 161.114 123.989Z" fill="white"/>
</g>
<path d="M172.868 99.5172C172.868 99.5172 167.319 101.453 163.597 104.679C159.876 107.905 153.941 112.723 153.941 112.723C153.941 112.723 157.302 120.726 161.165 124.03L169.431 120.715L172.868 99.5172Z" stroke="#002E47" stroke-miterlimit="10" stroke-linecap="round" stroke-linejoin="round"/>
<path d="M169.433 120.715C172.658 128.611 177.699 138.485 177.699 138.485L179.929 149.489C179.929 149.489 188.307 155.876 197.915 153.2C209.18 150.057 211.003 142.936 211.003 142.936L206.713 134.323C205.246 126.048 203.329 106.473 196.732 102.003C190.135 97.5342 178.811 97.1554 174.243 98.9667C170.179 100.577 167.931 101.802 166.824 103.288" fill="#39B4EF"/>
<mask id="mask3_261_34753" style="mask-type:luminance" maskUnits="userSpaceOnUse" x="166" y="97" width="46" height="57">
<path d="M169.433 120.715C172.658 128.611 177.699 138.485 177.699 138.485L179.929 149.489C179.929 149.489 188.307 155.876 197.915 153.2C209.18 150.057 211.003 142.936 211.003 142.936L206.713 134.323C205.246 126.048 203.329 106.473 196.732 102.003C190.135 97.5342 178.811 97.1554 174.243 98.9667C170.179 100.577 167.931 101.802 166.824 103.288" fill="white"/>
</mask>
<g mask="url(#mask3_261_34753)">
<path opacity="0.4" d="M204.542 145.588C194.383 148.868 195.507 146.524 197.827 142.427C199.927 138.722 198.442 134.395 198.472 133.229C198.016 134.128 196.288 136.756 194.147 137.786C191.39 139.112 192.36 139.545 194.78 134.939C197.2 130.334 197.821 125.101 197.821 125.101C195.111 122.408 192.975 115.837 192.975 115.837L201.868 110.397C200.56 106.591 198.898 103.478 196.72 102.01C190.123 97.5403 178.799 97.1615 174.232 98.9728C170.167 100.583 167.919 101.808 166.812 103.294L169.428 120.727C172.652 128.623 177.693 138.497 177.693 138.497L179.923 149.501C179.923 149.501 188.301 155.888 197.909 153.212C209.174 150.069 210.997 142.948 210.997 142.948L210.831 142.623C208.973 143.789 206.867 144.842 204.542 145.588Z" fill="white"/>
</g>
<path d="M169.433 120.715C172.658 128.611 177.699 138.485 177.699 138.485L179.929 149.489C179.929 149.489 188.307 155.876 197.915 153.2C209.18 150.057 211.003 142.936 211.003 142.936L206.713 134.323C205.246 126.048 203.329 106.473 196.732 102.003C190.135 97.5342 178.811 97.1554 174.243 98.9667C170.179 100.577 167.931 101.802 166.824 103.288" stroke="#002E47" stroke-miterlimit="10" stroke-linecap="round" stroke-linejoin="round"/>
<path d="M184.922 100.488C184.922 100.488 182.449 105.081 178.053 104.655C174.396 104.294 174.503 101.346 174.503 101.346C174.503 101.346 175.295 100.743 175.603 99.6711C175.698 99.3515 175.745 98.9845 175.716 98.5879C175.656 97.6763 175.195 96.5634 173.929 95.2908C173.911 95.273 173.887 95.2493 173.87 95.2316C173.597 94.9593 173.379 94.6811 173.225 94.4028C171.207 90.8334 178.248 86.8319 183.561 89.7857C183.561 89.7857 179.443 92.9644 184.922 100.488Z" fill="white" stroke="#002E47" stroke-miterlimit="10" stroke-linecap="round" stroke-linejoin="round"/>
<path d="M177.16 94.2548C177.16 94.2548 177.059 97.0192 175.716 98.5879C175.657 97.6763 175.196 96.5634 173.93 95.2907C174.64 94.5094 175.711 94.0122 177.16 94.2548Z" fill="#002E47"/>
<path d="M184.397 86.3702C186.391 77.8285 182.261 74.1229 179.557 73.0042C175.226 71.2106 169.594 74.0282 168.316 78.7756C167.038 83.523 168.191 84.6003 168.132 86.5419C168.091 87.9033 167.251 88.5722 168.174 91.9937C168.783 94.2489 169.801 97.8657 173.652 97.2146C174.422 97.0843 175.664 96.7825 177.06 96.1076" fill="white"/>
<path d="M184.397 86.3702C186.391 77.8285 182.261 74.1229 179.557 73.0042C175.226 71.2106 169.594 74.0282 168.316 78.7756C167.038 83.523 168.191 84.6003 168.132 86.5419C168.091 87.9033 167.251 88.5722 168.174 91.9937C168.783 94.2489 169.801 97.8657 173.652 97.2146C174.422 97.0843 175.664 96.7825 177.06 96.1076" stroke="#002E47" stroke-miterlimit="10" stroke-linecap="round" stroke-linejoin="round"/>
<path d="M173.152 83.594C173.152 83.594 174.756 82.9961 175.608 84.8785" stroke="#002E47" stroke-miterlimit="10" stroke-linecap="round" stroke-linejoin="round"/>
<path d="M167.703 82.5995C167.703 82.5995 169.378 82.2384 170.087 83.4519" stroke="#002E47" stroke-miterlimit="10" stroke-linecap="round" stroke-linejoin="round"/>
<path d="M170.52 85.873C170.52 85.873 168.875 88.7261 168.899 89.1168C168.982 90.3362 170.532 89.7857 170.532 89.7857" stroke="#002E47" stroke-miterlimit="10" stroke-linecap="round" stroke-linejoin="round"/>
<path d="M173.469 86.2636C173.469 86.6602 173.646 86.9799 173.865 86.9799C174.084 86.9799 174.262 86.6602 174.262 86.2636C174.262 85.867 174.084 85.5474 173.865 85.5474C173.646 85.5474 173.469 85.867 173.469 86.2636Z" fill="#002E47" stroke="#002E47" stroke-miterlimit="10" stroke-linecap="round" stroke-linejoin="round"/>
<path d="M168.898 85.873C168.898 86.2696 169.076 86.5892 169.295 86.5892C169.514 86.5892 169.691 86.2696 169.691 85.873C169.691 85.4764 169.514 85.1567 169.295 85.1567C169.076 85.1508 168.898 85.4764 168.898 85.873Z" fill="#002E47" stroke="#002E47" stroke-miterlimit="10" stroke-linecap="round" stroke-linejoin="round"/>
<path d="M173.468 90.9577C173.468 90.9577 171.723 91.9285 170.09 91.5023" stroke="#002E47" stroke-miterlimit="10" stroke-linecap="round" stroke-linejoin="round"/>
<path d="M173.152 91.2833C173.152 91.2833 172.963 92.5442 171.78 92.6685C170.596 92.7928 170.531 91.6089 170.531 91.6089" stroke="#002E47" stroke-miterlimit="10" stroke-linecap="round" stroke-linejoin="round"/>
<path d="M184.407 75.4666C184.407 75.4666 184.147 70.885 175.609 71.0507C167.072 71.2165 164.581 77.8166 168.9 79.6043C173.225 81.392 175.905 80.6106 175.905 80.6106C175.905 80.6106 174.307 80.1371 172.87 78.527C172.87 78.527 175.858 80.2791 178.396 80.7823C178.396 80.7823 177.419 82.0609 178.396 84.1859C179.372 86.3169 178.893 87.2285 178.893 87.2285C178.893 87.2285 182.803 88.3414 182.147 92.5323C182.147 92.5323 185.744 92.4672 187.199 84.1859C188.655 75.9047 184.407 75.4666 184.407 75.4666Z" fill="#002E47"/>
<path d="M179.555 87.8678C179.555 87.8678 181.123 84.9495 182.755 85.6599C184.394 86.3702 183.252 89.8626 181.833 90.9992C180.407 92.1357 179.555 90.9992 179.555 90.9992" fill="white"/>
<path d="M179.555 87.8678C179.555 87.8678 181.123 84.9495 182.755 85.6599C184.394 86.3702 183.252 89.8626 181.833 90.9992C180.407 92.1357 179.555 90.9992 179.555 90.9992" stroke="#002E47" stroke-miterlimit="10" stroke-linecap="round" stroke-linejoin="round"/>
<path d="M165.227 110.948C166.179 114.783 166.676 117.808 169.433 120.715" stroke="#002E47" stroke-miterlimit="10" stroke-linecap="round" stroke-linejoin="round"/>
<path d="M164.629 107.893C164.706 108.491 164.812 109.083 164.937 109.675" stroke="#002E47" stroke-miterlimit="10" stroke-linecap="round" stroke-linejoin="round"/>
<path d="M197.832 118.311C197.832 118.311 209.251 130.659 212.055 130.198C214.866 129.736 216.321 125.178 215.706 123.917C215.09 122.662 204.802 110.693 204.802 110.693L197.832 118.311Z" fill="white" stroke="#002E47" stroke-miterlimit="10" stroke-linecap="round" stroke-linejoin="round"/>
<path d="M193.581 106.703C192.469 110.581 192.002 114.754 193.859 117.998C194.788 120.78 200.184 123.438 202.042 125.752C207.858 124.331 210.319 116.944 210.319 116.944C210.319 116.944 206.953 112.167 203.592 107.159C200.226 102.145 193.481 100.263 193.481 100.263" fill="#39B4EF"/>
<mask id="mask4_261_34753" style="mask-type:luminance" maskUnits="userSpaceOnUse" x="192" y="100" width="19" height="26">
<path d="M193.581 106.703C192.469 110.581 192.002 114.754 193.859 117.998C194.788 120.78 200.184 123.438 202.042 125.752C207.858 124.331 210.319 116.944 210.319 116.944C210.319 116.944 206.953 112.167 203.592 107.159C200.226 102.145 193.481 100.263 193.481 100.263" fill="white"/>
</mask>
<g mask="url(#mask4_261_34753)">
<path opacity="0.4" d="M193.581 106.703C192.469 110.581 192.002 114.754 193.859 117.998C194.788 120.78 200.184 123.438 202.042 125.752C207.858 124.331 210.319 116.944 210.319 116.944C210.319 116.944 206.953 112.167 203.592 107.159C200.226 102.145 193.481 100.263 193.481 100.263" fill="white"/>
</g>
<path d="M193.581 106.703C192.469 110.581 192.002 114.754 193.859 117.998C194.788 120.78 200.184 123.438 202.042 125.752C207.858 124.331 210.319 116.944 210.319 116.944C210.319 116.944 206.953 112.167 203.592 107.159C200.226 102.145 193.481 100.263 193.481 100.263" stroke="#002E47" stroke-miterlimit="10" stroke-linecap="round" stroke-linejoin="round"/>
<path d="M137.294 97.5993C137.294 97.5993 135.4 93.1479 134.211 91.7628C133.075 90.4368 131.833 89.3891 131.513 89.3477C130.691 89.247 128.017 90.7387 128.017 90.7387C128.017 90.7387 128.011 91.5734 129.466 91.455C129.466 91.455 127.372 92.7573 127.271 93.7872C127.171 94.8113 128.472 96.2616 128.727 96.8298C128.981 97.3981 129.478 97.0725 129.478 97.0725C129.478 97.0725 131.738 100.151 133.921 100.364" fill="white"/>
<path d="M137.294 97.5993C137.294 97.5993 135.4 93.1479 134.211 91.7628C133.075 90.4368 131.833 89.3891 131.513 89.3477C130.691 89.247 128.017 90.7387 128.017 90.7387C128.017 90.7387 128.011 91.5734 129.466 91.455C129.466 91.455 127.372 92.7573 127.271 93.7872C127.171 94.8113 128.472 96.2616 128.727 96.8298C128.981 97.3981 129.478 97.0725 129.478 97.0725C129.478 97.0725 131.738 100.151 133.921 100.364" stroke="#002E47" stroke-miterlimit="10" stroke-linecap="round" stroke-linejoin="round"/>
<path d="M129.473 97.0607C129.473 97.0607 129.727 96.818 129.768 96.226C129.768 96.226 130.674 96.232 130.721 95.4328C130.721 95.4328 132.052 95.5157 131.496 93.8228" stroke="#002E47" stroke-miterlimit="10" stroke-linecap="round" stroke-linejoin="round"/>
<path d="M130.719 95.4269C130.719 95.4269 129.21 93.805 129.121 93.1775" stroke="#002E47" stroke-miterlimit="10" stroke-linecap="round" stroke-linejoin="round"/>
<path d="M129.767 96.2201C129.767 96.2201 128.11 94.7402 128.199 94.0654" stroke="#002E47" stroke-miterlimit="10" stroke-linecap="round" stroke-linejoin="round"/>
<path d="M131.272 90.4487C131.272 90.4487 130.645 91.2715 129.621 91.3129" stroke="#002E47" stroke-miterlimit="10" stroke-linecap="round" stroke-linejoin="round"/>
<path d="M130.902 90.8157C130.902 90.8157 131.334 91.1412 131.671 91.5615" stroke="#002E47" stroke-miterlimit="10" stroke-linecap="round" stroke-linejoin="round"/>
<path d="M194.152 105.478C194.513 104.868 194.992 104.33 195.59 103.939" stroke="#002E47" stroke-miterlimit="10" stroke-linecap="round" stroke-linejoin="round"/>
<path d="M182.484 243.673H195.66L195.376 244.673H182.496L182.484 243.673Z" fill="white" stroke="#002E47" stroke-miterlimit="10" stroke-linecap="round" stroke-linejoin="round"/>
<path d="M186.715 239.772C186.715 239.772 191.04 238.339 193.128 240.133" stroke="#002E47" stroke-miterlimit="10" stroke-linecap="round" stroke-linejoin="round"/>
<path d="M186.715 238.825C186.715 238.825 190.519 237.623 193.128 239.227" stroke="#002E47" stroke-miterlimit="10" stroke-linecap="round" stroke-linejoin="round"/>
<path d="M186.938 237.895C186.938 237.895 190.517 236.546 193.126 238.393" stroke="#002E47" stroke-miterlimit="10" stroke-linecap="round" stroke-linejoin="round"/>
<path d="M184.1 239.89L184.526 240.311C184.644 240.429 184.668 240.612 184.573 240.754C184.266 241.234 183.632 242.394 183.692 243.673H183.059C183.059 243.673 183.278 241.974 183.97 240.766L183.644 240.441L184.1 239.89Z" fill="#002E47"/>
<path d="M199.166 132.121C198.421 133.163 188.292 145.399 183.559 144.736" stroke="#002E47" stroke-miterlimit="10" stroke-linecap="round" stroke-linejoin="round"/>
<path d="M172.871 121.662C172.871 121.662 178.527 130.387 187.503 130.209" stroke="#002E47" stroke-miterlimit="10" stroke-linecap="round" stroke-linejoin="round"/>
<g opacity="0.2">
<path d="M187.5 164.791C188.015 164.909 197.96 168.538 199.954 172.166" stroke="white" stroke-miterlimit="10" stroke-linecap="round" stroke-linejoin="round"/>
<path d="M189.918 170.059C189.421 170.763 185.197 183.993 183.386 187.622C181.576 191.25 175.494 207.529 174.085 208.464C174.085 208.464 172.216 217.947 171.044 219.468C169.873 220.99 163.82 233.118 163.82 233.118" stroke="white" stroke-miterlimit="10" stroke-linecap="round" stroke-linejoin="round"/>
<path d="M157.035 233.118L164.378 234.693" stroke="white" stroke-miterlimit="10" stroke-linecap="round" stroke-linejoin="round"/>
<path d="M186.938 233.906C186.938 233.906 192.813 233.379 194.806 235.616" stroke="white" stroke-miterlimit="10" stroke-linecap="round" stroke-linejoin="round"/>
<path d="M193.73 171.58C194.222 174.392 201.593 189.96 203.351 188.208" stroke="white" stroke-miterlimit="10" stroke-linecap="round" stroke-linejoin="round"/>
<path d="M190.872 172.989C190.872 172.989 190.008 169.124 190.825 167.372C191.138 166.703 184.506 169.011 182.281 168.484" stroke="white" stroke-miterlimit="10" stroke-linecap="round" stroke-linejoin="round"/>
<path d="M189.919 153.852C189.919 153.852 191.079 157.178 191.363 158.232C191.647 159.286 189.251 163.382 189.919 164.205" stroke="white" stroke-miterlimit="10" stroke-linecap="round" stroke-linejoin="round"/>
<path d="M206.043 150.738C206.043 150.738 207.682 153.248 207.682 155.095C207.682 156.942 209.906 157.764 209.906 157.764" stroke="white" stroke-miterlimit="10" stroke-linecap="round" stroke-linejoin="round"/>
<path d="M209.532 147.997C209.532 147.997 211.538 155.539 209.899 164.791C208.26 174.043 205.568 192.89 204.515 197.691C203.462 202.491 201.006 213.265 201.006 214.786C201.006 216.307 198.539 224.973 198.539 224.973" stroke="white" stroke-miterlimit="10" stroke-linecap="round" stroke-linejoin="round"/>
<path d="M199.137 211.862C198.788 211.862 192.233 218.184 190.594 218.302" stroke="white" stroke-miterlimit="10" stroke-linecap="round" stroke-linejoin="round"/>
<path d="M170.459 207.996C170.11 208.115 164.608 210.808 164.371 209.985" stroke="white" stroke-miterlimit="10" stroke-linecap="round" stroke-linejoin="round"/>
</g>
<path d="M198.021 159.132C196.572 159.25 195.3 158.167 195.181 156.717L193.88 140.58C193.767 139.195 194.755 137.982 196.11 137.774L196.613 136.081C196.708 135.762 196.986 135.537 197.317 135.513L204.015 134.974C204.346 134.945 204.66 135.128 204.802 135.424L205.565 136.993L216.782 136.087C217.936 135.993 218.977 136.662 219.415 137.674" fill="#39B4EF"/>
<mask id="mask5_261_34753" style="mask-type:luminance" maskUnits="userSpaceOnUse" x="193" y="134" width="27" height="26">
<path d="M198.021 159.132C196.572 159.25 195.3 158.167 195.181 156.717L193.88 140.58C193.767 139.195 194.755 137.982 196.11 137.774L196.613 136.081C196.708 135.762 196.986 135.537 197.317 135.513L204.015 134.974C204.346 134.945 204.66 135.128 204.802 135.424L205.565 136.993L216.782 136.087C217.936 135.993 218.977 136.662 219.415 137.674" fill="white"/>
</mask>
<g mask="url(#mask5_261_34753)">
<path opacity="0.3" d="M198.021 159.132C196.572 159.25 195.3 158.167 195.181 156.717L193.88 140.58C193.767 139.195 194.755 137.982 196.11 137.774L196.613 136.081C196.708 135.762 196.986 135.537 197.317 135.513L204.015 134.974C204.346 134.945 204.66 135.128 204.802 135.424L205.565 136.993L216.782 136.087C217.936 135.993 218.977 136.662 219.415 137.674" fill="black" fill-opacity="0.7"/>
</g>
<path d="M198.021 159.132C196.572 159.25 195.3 158.167 195.181 156.717L193.88 140.58C193.767 139.195 194.755 137.982 196.11 137.774L196.613 136.081C196.708 135.762 196.986 135.537 197.317 135.513L204.015 134.974C204.346 134.945 204.66 135.128 204.802 135.424L205.565 136.993L216.782 136.087C217.936 135.993 218.977 136.662 219.415 137.674" stroke="#002E47" stroke-miterlimit="10" stroke-linecap="round" stroke-linejoin="round"/>
<path d="M198.022 159.132L218.51 157.48C219.96 157.362 221.226 156.083 221.344 154.615L222.474 140.118C222.587 138.65 221.504 137.561 220.055 137.68L199.566 139.331C198.116 139.45 196.85 140.728 196.732 142.196L195.602 156.693C195.489 158.155 196.572 159.244 198.022 159.132Z" fill="#39B4EF" stroke="#002E47" stroke-miterlimit="10" stroke-linecap="round" stroke-linejoin="round"/>
<path d="M213.87 121.555C215.988 123.591 217.083 125.184 216.923 131.802C216.769 138.42 215.574 147.991 214.787 154.461L209.16 155.32C209.16 155.32 210.042 145.138 209.16 138.431C208.202 131.121 208.959 127.019 209.841 126.492" fill="white"/>
<path d="M213.87 121.555C215.988 123.591 217.083 125.184 216.923 131.802C216.769 138.42 215.574 147.991 214.787 154.461L209.16 155.32C209.16 155.32 210.042 145.138 209.16 138.431C208.202 131.121 208.959 127.019 209.841 126.492" stroke="#002E47" stroke-miterlimit="10" stroke-linecap="round" stroke-linejoin="round"/>
<path d="M209.487 149.684C209.368 151.578 205.907 152.159 205.653 153.354C205.57 153.745 204.381 156.361 204.381 156.361C204.381 156.361 204.298 157.764 204.541 158.605C204.836 159.623 205.753 159.031 205.753 159.031L206.043 159.759C206.511 160.931 207.392 159.848 208.877 160.576C210.368 161.31 211.09 160.339 211.664 160.576C212.244 160.813 214.113 160.227 214.463 159.522C214.812 158.818 214.255 155.704 214.788 154.467C215.32 153.23 215.332 150.732 215.332 149.69" fill="white"/>
<path d="M209.487 149.684C209.368 151.578 205.907 152.159 205.653 153.354C205.57 153.745 204.381 156.361 204.381 156.361C204.381 156.361 204.298 157.764 204.541 158.605C204.836 159.623 205.753 159.031 205.753 159.031L206.043 159.759C206.511 160.931 207.392 159.848 208.877 160.576C210.368 161.31 211.09 160.339 211.664 160.576C212.244 160.813 214.113 160.227 214.463 159.522C214.812 158.818 214.255 155.704 214.788 154.467C215.32 153.23 215.332 150.732 215.332 149.69" stroke="#002E47" stroke-miterlimit="10" stroke-linecap="round" stroke-linejoin="round"/>
<path d="M205.746 159.031C205.746 159.031 205.77 157.125 206.977 156.361L205.746 159.031Z" fill="white"/>
<path d="M205.746 159.031C205.746 159.031 205.77 157.125 206.977 156.361" stroke="#002E47" stroke-miterlimit="10" stroke-linecap="round" stroke-linejoin="round"/>
<path d="M129.033 90.2415H76.4062V101.121H129.033V90.2415Z" fill="#002E47" stroke="#B3C7EB" stroke-miterlimit="10" stroke-linecap="round" stroke-linejoin="round"/>
<path d="M129.033 104.383H76.4062V115.263H129.033V104.383Z" fill="#002E47" stroke="#B3C7EB" stroke-miterlimit="10" stroke-linecap="round" stroke-linejoin="round"/>
<path d="M129.033 118.524H76.4062V129.404H129.033V118.524Z" fill="#002E47" stroke="#B3C7EB" stroke-miterlimit="10" stroke-linecap="round" stroke-linejoin="round"/>
<path d="M129.033 132.666H76.4062V143.546H129.033V132.666Z" fill="#002E47" stroke="#B3C7EB" stroke-miterlimit="10" stroke-linecap="round" stroke-linejoin="round"/>
<path d="M129.033 146.807H76.4062V157.687H129.033V146.807Z" fill="#002E47" stroke="#B3C7EB" stroke-miterlimit="10" stroke-linecap="round" stroke-linejoin="round"/>
<path d="M129.483 102.341H87.316C86.6652 102.341 86.1445 101.814 86.1445 101.169V90.1941C86.1445 89.543 86.6711 89.0221 87.316 89.0221H129.483C130.134 89.0221 130.654 89.5489 130.654 90.1941V101.169C130.654 101.814 130.128 102.341 129.483 102.341Z" fill="#002E47" stroke="#B3C7EB" stroke-miterlimit="10" stroke-linecap="round" stroke-linejoin="round"/>
<path d="M129.483 116.482H87.316C86.6652 116.482 86.1445 115.955 86.1445 115.31V104.336C86.1445 103.684 86.6711 103.164 87.316 103.164H129.483C130.134 103.164 130.654 103.69 130.654 104.336V115.31C130.654 115.955 130.128 116.482 129.483 116.482Z" fill="#002E47" stroke="#B3C7EB" stroke-miterlimit="10" stroke-linecap="round" stroke-linejoin="round"/>
<path d="M129.483 130.624H87.316C86.6652 130.624 86.1445 130.097 86.1445 129.452V118.477C86.1445 117.826 86.6711 117.305 87.316 117.305H129.483C130.134 117.305 130.654 117.832 130.654 118.477V129.452C130.654 130.097 130.128 130.624 129.483 130.624Z" fill="#002E47" stroke="#B3C7EB" stroke-miterlimit="10" stroke-linecap="round" stroke-linejoin="round"/>
<path d="M129.483 144.765H87.316C86.6652 144.765 86.1445 144.238 86.1445 143.593V132.619C86.1445 131.967 86.6711 131.447 87.316 131.447H129.483C130.134 131.447 130.654 131.973 130.654 132.619V143.593C130.654 144.238 130.128 144.765 129.483 144.765Z" fill="#002E47" stroke="#B3C7EB" stroke-miterlimit="10" stroke-linecap="round" stroke-linejoin="round"/>
<path d="M129.483 158.907H87.316C86.6652 158.907 86.1445 158.38 86.1445 157.735V146.76C86.1445 146.109 86.6711 145.588 87.316 145.588H129.483C130.134 145.588 130.654 146.115 130.654 146.76V157.735C130.654 158.386 130.128 158.907 129.483 158.907Z" fill="#002E47" stroke="#B3C7EB" stroke-miterlimit="10" stroke-linecap="round" stroke-linejoin="round"/>
<path d="M134.849 97.7651C134.849 97.7651 131.796 96.3977 131.908 94.2371C131.944 93.5327 131.494 92.6329 131.494 92.6329C131.494 92.6329 128.536 91.9344 128.95 90.7505L132.997 91.1353C132.997 91.1353 135.05 92.2541 135.931 94.6988" fill="white"/>
<path d="M134.849 97.7651C134.849 97.7651 131.796 96.3977 131.908 94.2371C131.944 93.5327 131.494 92.6329 131.494 92.6329C131.494 92.6329 128.536 91.9344 128.95 90.7505L132.997 91.1353C132.997 91.1353 135.05 92.2541 135.931 94.6988" stroke="#002E47" stroke-miterlimit="10" stroke-linecap="round" stroke-linejoin="round"/>
<path d="M82.3723 88.7557H20.3203V244.673H82.3723V88.7557Z" fill="#E2EDFF" stroke="#B3C7EB" stroke-miterlimit="10" stroke-linecap="round" stroke-linejoin="round"/>
<path d="M60.9241 102.341H18.7574C18.1066 102.341 17.5859 101.814 17.5859 101.169V90.1941C17.5859 89.543 18.1125 89.0221 18.7574 89.0221H60.9241C61.5749 89.0221 62.0956 89.5489 62.0956 90.1941V101.169C62.1015 101.814 61.5749 102.341 60.9241 102.341Z" fill="#002E47" stroke="#B3C7EB" stroke-miterlimit="10" stroke-linecap="round" stroke-linejoin="round"/>
<path d="M83.928 102.341H41.7613C41.1105 102.341 40.5898 101.814 40.5898 101.169V90.1941C40.5898 89.543 41.1164 89.0221 41.7613 89.0221H83.928C84.5788 89.0221 85.0995 89.5489 85.0995 90.1941V101.169C85.0995 101.814 84.5729 102.341 83.928 102.341Z" fill="#B3C7EB" stroke="#002E47" stroke-miterlimit="10" stroke-linecap="round" stroke-linejoin="round"/>
<path d="M41.7618 100.352L41.7677 91.0051C41.7677 90.5612 42.1286 90.2001 42.5723 90.2001L83.1179 90.2119C83.5617 90.2119 83.9226 90.573 83.9226 91.0229L83.9167 100.364C83.9167 100.808 83.5558 101.169 83.112 101.169H42.5664C42.1227 101.157 41.7559 100.796 41.7618 100.352Z" fill="#002E47"/>
<path d="M67.4018 100.666H45.1677C44.7358 100.666 44.3867 100.316 44.3867 99.8842V97.623C44.3867 97.1909 44.7358 96.8416 45.1677 96.8416H67.4018C67.8337 96.8416 68.1828 97.1909 68.1828 97.623V99.8842C68.1828 100.316 67.8337 100.666 67.4018 100.666Z" fill="#39B4EF" stroke="#002E47" stroke-miterlimit="10" stroke-linecap="round" stroke-linejoin="round"/>
<path d="M72.0659 96.451H49.8318C49.3999 96.451 49.0508 96.1017 49.0508 95.6696V93.4084C49.0508 92.9763 49.3999 92.627 49.8318 92.627H72.0659C72.4978 92.627 72.8468 92.9763 72.8468 93.4084V95.6696C72.8409 96.1017 72.4919 96.451 72.0659 96.451Z" fill="#39B4EF" stroke="#002E47" stroke-miterlimit="10" stroke-linecap="round" stroke-linejoin="round"/>
<path d="M60.9241 173.054H18.7574C18.1066 173.054 17.5859 172.527 17.5859 171.882V160.907C17.5859 160.256 18.1125 159.735 18.7574 159.735H60.9241C61.5749 159.735 62.0956 160.262 62.0956 160.907V171.882C62.1015 172.527 61.5749 173.054 60.9241 173.054Z" fill="#002E47" stroke="#B3C7EB" stroke-miterlimit="10" stroke-linecap="round" stroke-linejoin="round"/>
<path d="M83.928 173.054H41.7613C41.1105 173.054 40.5898 172.527 40.5898 171.882V160.907C40.5898 160.256 41.1164 159.735 41.7613 159.735H83.928C84.5788 159.735 85.0995 160.262 85.0995 160.907V171.882C85.0995 172.527 84.5729 173.054 83.928 173.054Z" fill="#002E47" stroke="#B3C7EB" stroke-miterlimit="10" stroke-linecap="round" stroke-linejoin="round"/>
<path d="M72.8409 165.335H46.418V167.448H72.8409V165.335Z" fill="#E2EDFF" stroke="#B3C7EB" stroke-miterlimit="10" stroke-linecap="round" stroke-linejoin="round"/>
<path d="M77.4777 166.395C77.4777 166.987 76.9985 167.466 76.4068 167.466C75.8152 167.466 75.3359 166.987 75.3359 166.395C75.3359 165.803 75.8152 165.323 76.4068 165.323C76.9985 165.323 77.4777 165.803 77.4777 166.395Z" fill="#39B4EF" stroke="#B3C7EB" stroke-miterlimit="10" stroke-linecap="round" stroke-linejoin="round"/>
<path d="M81.2902 166.395C81.2902 166.987 80.811 167.466 80.2193 167.466C79.6277 167.466 79.1484 166.987 79.1484 166.395C79.1484 165.803 79.6277 165.323 80.2193 165.323C80.811 165.323 81.2902 165.803 81.2902 166.395Z" fill="#E2EDFF" stroke="#B3C7EB" stroke-miterlimit="10" stroke-linecap="round" stroke-linejoin="round"/>
<path d="M62.8426 166.046H47.3828V166.75H62.8426V166.046Z" fill="#39B4EF"/>
<path d="M60.9241 187.196H18.7574C18.1066 187.196 17.5859 186.669 17.5859 186.024V175.049C17.5859 174.398 18.1125 173.877 18.7574 173.877H60.9241C61.5749 173.877 62.0956 174.404 62.0956 175.049V186.024C62.1015 186.669 61.5749 187.196 60.9241 187.196Z" fill="#002E47" stroke="#B3C7EB" stroke-miterlimit="10" stroke-linecap="round" stroke-linejoin="round"/>
<path d="M83.928 187.196H41.7613C41.1105 187.196 40.5898 186.669 40.5898 186.024V175.049C40.5898 174.398 41.1164 173.877 41.7613 173.877H83.928C84.5788 173.877 85.0995 174.404 85.0995 175.049V186.024C85.0995 186.669 84.5729 187.196 83.928 187.196Z" fill="#002E47" stroke="#B3C7EB" stroke-miterlimit="10" stroke-linecap="round" stroke-linejoin="round"/>
<path d="M72.8409 179.477H46.418V181.59H72.8409V179.477Z" fill="#E2EDFF" stroke="#B3C7EB" stroke-miterlimit="10" stroke-linecap="round" stroke-linejoin="round"/>
<path d="M76.4068 181.608C76.9982 181.608 77.4777 181.128 77.4777 180.536C77.4777 179.945 76.9982 179.465 76.4068 179.465C75.8154 179.465 75.3359 179.945 75.3359 180.536C75.3359 181.128 75.8154 181.608 76.4068 181.608Z" fill="#39B4EF" stroke="#B3C7EB" stroke-miterlimit="10" stroke-linecap="round" stroke-linejoin="round"/>
<path d="M81.2902 180.536C81.2902 181.128 80.811 181.608 80.2193 181.608C79.6277 181.608 79.1484 181.128 79.1484 180.536C79.1484 179.944 79.6277 179.465 80.2193 179.465C80.811 179.465 81.2902 179.944 81.2902 180.536Z" fill="#E2EDFF" stroke="#B3C7EB" stroke-miterlimit="10" stroke-linecap="round" stroke-linejoin="round"/>
<path d="M62.8426 180.187H47.3828V180.886H62.8426V180.187Z" fill="#39B4EF"/>
<path d="M60.9241 201.337H18.7574C18.1066 201.337 17.5859 200.81 17.5859 200.165V189.19C17.5859 188.539 18.1125 188.018 18.7574 188.018H60.9241C61.5749 188.018 62.0956 188.545 62.0956 189.19V200.165C62.1015 200.816 61.5749 201.337 60.9241 201.337Z" fill="#002E47" stroke="#B3C7EB" stroke-miterlimit="10" stroke-linecap="round" stroke-linejoin="round"/>
<path d="M83.928 201.337H41.7613C41.1105 201.337 40.5898 200.81 40.5898 200.165V189.19C40.5898 188.539 41.1164 188.018 41.7613 188.018H83.928C84.5788 188.018 85.0995 188.545 85.0995 189.19V200.165C85.0995 200.816 84.5729 201.337 83.928 201.337Z" fill="#002E47" stroke="#B3C7EB" stroke-miterlimit="10" stroke-linecap="round" stroke-linejoin="round"/>
<path d="M72.8409 193.618H46.418V195.731H72.8409V193.618Z" fill="#E2EDFF" stroke="#B3C7EB" stroke-miterlimit="10" stroke-linecap="round" stroke-linejoin="round"/>
<path d="M76.4068 195.749C76.9982 195.749 77.4777 195.269 77.4777 194.678C77.4777 194.086 76.9982 193.606 76.4068 193.606C75.8154 193.606 75.3359 194.086 75.3359 194.678C75.3359 195.269 75.8154 195.749 76.4068 195.749Z" fill="#39B4EF" stroke="#B3C7EB" stroke-miterlimit="10" stroke-linecap="round" stroke-linejoin="round"/>
<path d="M81.2902 194.678C81.2902 195.27 80.811 195.749 80.2193 195.749C79.6277 195.749 79.1484 195.27 79.1484 194.678C79.1484 194.086 79.6277 193.606 80.2193 193.606C80.811 193.612 81.2902 194.086 81.2902 194.678Z" fill="#E2EDFF" stroke="#B3C7EB" stroke-miterlimit="10" stroke-linecap="round" stroke-linejoin="round"/>
<path d="M62.8426 194.329H47.3828V195.027H62.8426V194.329Z" fill="#39B4EF"/>
<path d="M60.9241 215.479H18.7574C18.1066 215.479 17.5859 214.952 17.5859 214.307V203.332C17.5859 202.681 18.1125 202.16 18.7574 202.16H60.9241C61.5749 202.16 62.0956 202.687 62.0956 203.332V214.307C62.1015 214.958 61.5749 215.479 60.9241 215.479Z" fill="#002E47" stroke="#B3C7EB" stroke-miterlimit="10" stroke-linecap="round" stroke-linejoin="round"/>
<path d="M83.928 215.479H41.7613C41.1105 215.479 40.5898 214.952 40.5898 214.307V203.332C40.5898 202.681 41.1164 202.16 41.7613 202.16H83.928C84.5788 202.16 85.0995 202.687 85.0995 203.332V214.307C85.0995 214.958 84.5729 215.479 83.928 215.479Z" fill="#002E47" stroke="#B3C7EB" stroke-miterlimit="10" stroke-linecap="round" stroke-linejoin="round"/>
<path d="M72.8409 207.76H46.418V209.873H72.8409V207.76Z" fill="#E2EDFF" stroke="#B3C7EB" stroke-miterlimit="10" stroke-linecap="round" stroke-linejoin="round"/>
<path d="M77.4777 208.819C77.4777 209.411 76.9985 209.891 76.4068 209.891C75.8152 209.891 75.3359 209.411 75.3359 208.819C75.3359 208.227 75.8152 207.748 76.4068 207.748C76.9985 207.754 77.4777 208.233 77.4777 208.819Z" fill="#39B4EF" stroke="#B3C7EB" stroke-miterlimit="10" stroke-linecap="round" stroke-linejoin="round"/>
<path d="M81.2902 208.819C81.2902 209.411 80.811 209.891 80.2193 209.891C79.6277 209.891 79.1484 209.411 79.1484 208.819C79.1484 208.227 79.6277 207.748 80.2193 207.748C80.811 207.754 81.2902 208.233 81.2902 208.819Z" fill="#E2EDFF" stroke="#B3C7EB" stroke-miterlimit="10" stroke-linecap="round" stroke-linejoin="round"/>
<path d="M62.8426 208.47H47.3828V209.174H62.8426V208.47Z" fill="#39B4EF"/>
<path d="M60.9241 229.626H18.7574C18.1066 229.626 17.5859 229.099 17.5859 228.454V217.479C17.5859 216.828 18.1125 216.307 18.7574 216.307H60.9241C61.5749 216.307 62.0956 216.834 62.0956 217.479V228.454C62.1015 229.099 61.5749 229.626 60.9241 229.626Z" fill="#002E47" stroke="#B3C7EB" stroke-miterlimit="10" stroke-linecap="round" stroke-linejoin="round"/>
<path d="M83.928 229.626H41.7613C41.1105 229.626 40.5898 229.099 40.5898 228.454V217.479C40.5898 216.828 41.1164 216.307 41.7613 216.307H83.928C84.5788 216.307 85.0995 216.834 85.0995 217.479V228.454C85.0995 229.099 84.5729 229.626 83.928 229.626Z" fill="#002E47" stroke="#B3C7EB" stroke-miterlimit="10" stroke-linecap="round" stroke-linejoin="round"/>
<path d="M72.8409 221.907H46.418V224.02H72.8409V221.907Z" fill="#E2EDFF" stroke="#B3C7EB" stroke-miterlimit="10" stroke-linecap="round" stroke-linejoin="round"/>
<path d="M76.4068 224.032C76.9982 224.032 77.4777 223.552 77.4777 222.961C77.4777 222.369 76.9982 221.889 76.4068 221.889C75.8154 221.889 75.3359 222.369 75.3359 222.961C75.3359 223.552 75.8154 224.032 76.4068 224.032Z" fill="#39B4EF" stroke="#B3C7EB" stroke-miterlimit="10" stroke-linecap="round" stroke-linejoin="round"/>
<path d="M81.2902 222.961C81.2902 223.553 80.811 224.032 80.2193 224.032C79.6277 224.032 79.1484 223.553 79.1484 222.961C79.1484 222.369 79.6277 221.889 80.2193 221.889C80.811 221.895 81.2902 222.375 81.2902 222.961Z" fill="#E2EDFF" stroke="#B3C7EB" stroke-miterlimit="10" stroke-linecap="round" stroke-linejoin="round"/>
<path d="M62.8426 222.612H47.3828V223.31H62.8426V222.612Z" fill="#39B4EF"/>
<path d="M60.9241 243.767H18.7574C18.1066 243.767 17.5859 243.241 17.5859 242.595V231.621C17.5859 230.97 18.1125 230.449 18.7574 230.449H60.9241C61.5749 230.449 62.0956 230.976 62.0956 231.621V242.595C62.1015 243.241 61.5749 243.767 60.9241 243.767Z" fill="#002E47" stroke="#B3C7EB" stroke-miterlimit="10" stroke-linecap="round" stroke-linejoin="round"/>
<path d="M83.928 243.767H41.7613C41.1105 243.767 40.5898 243.241 40.5898 242.595V231.621C40.5898 230.97 41.1164 230.449 41.7613 230.449H83.928C84.5788 230.449 85.0995 230.976 85.0995 231.621V242.595C85.0995 243.241 84.5729 243.767 83.928 243.767Z" fill="#002E47" stroke="#B3C7EB" stroke-miterlimit="10" stroke-linecap="round" stroke-linejoin="round"/>
<path d="M72.8409 236.049H46.418V238.162H72.8409V236.049Z" fill="#E2EDFF" stroke="#B3C7EB" stroke-miterlimit="10" stroke-linecap="round" stroke-linejoin="round"/>
<path d="M76.4068 238.18C76.9982 238.18 77.4777 237.7 77.4777 237.108C77.4777 236.516 76.9982 236.037 76.4068 236.037C75.8154 236.037 75.3359 236.516 75.3359 237.108C75.3359 237.7 75.8154 238.18 76.4068 238.18Z" fill="#39B4EF" stroke="#B3C7EB" stroke-miterlimit="10" stroke-linecap="round" stroke-linejoin="round"/>
<path d="M81.2902 237.108C81.2902 237.7 80.811 238.18 80.2193 238.18C79.6277 238.18 79.1484 237.7 79.1484 237.108C79.1484 236.516 79.6277 236.037 80.2193 236.037C80.811 236.037 81.2902 236.516 81.2902 237.108Z" fill="#E2EDFF" stroke="#B3C7EB" stroke-miterlimit="10" stroke-linecap="round" stroke-linejoin="round"/>
<path d="M62.8426 236.753H47.3828V237.451H62.8426V236.753Z" fill="#39B4EF"/>
<path d="M60.9241 158.913H18.7574C18.1066 158.913 17.5859 158.386 17.5859 157.741V146.766C17.5859 146.115 18.1125 145.594 18.7574 145.594H60.9241C61.5749 145.594 62.0956 146.121 62.0956 146.766V157.741C62.1015 158.386 61.5749 158.913 60.9241 158.913Z" fill="#002E47" stroke="#B3C7EB" stroke-miterlimit="10" stroke-linecap="round" stroke-linejoin="round"/>
<path d="M83.928 158.913H41.7613C41.1105 158.913 40.5898 158.386 40.5898 157.741V146.766C40.5898 146.115 41.1164 145.594 41.7613 145.594H83.928C84.5788 145.594 85.0995 146.121 85.0995 146.766V157.741C85.0995 158.386 84.5729 158.913 83.928 158.913Z" fill="#B3C7EB" stroke="#002E47" stroke-miterlimit="10" stroke-linecap="round" stroke-linejoin="round"/>
<path d="M41.7618 156.918L41.7677 147.571C41.7677 147.127 42.1286 146.766 42.5723 146.766L83.1179 146.778C83.5617 146.778 83.9226 147.139 83.9226 147.589L83.9167 156.93C83.9167 157.374 83.5558 157.735 83.112 157.735H42.5664C42.1227 157.729 41.7559 157.368 41.7618 156.918Z" fill="#002E47"/>
<path d="M67.4018 157.237H45.1677C44.7358 157.237 44.3867 156.888 44.3867 156.456V154.195C44.3867 153.763 44.7358 153.414 45.1677 153.414H67.4018C67.8337 153.414 68.1828 153.763 68.1828 154.195V156.456C68.1828 156.888 67.8337 157.237 67.4018 157.237Z" fill="#39B4EF" stroke="#002E47" stroke-miterlimit="10" stroke-linecap="round" stroke-linejoin="round"/>
<path d="M80.5435 157.237H70.1364C69.7045 157.237 69.3555 156.888 69.3555 156.456V154.195C69.3555 153.763 69.7045 153.414 70.1364 153.414H80.5376C80.9695 153.414 81.3186 153.763 81.3186 154.195V156.456C81.3245 156.888 80.9695 157.237 80.5435 157.237Z" fill="#39B4EF" stroke="#002E47" stroke-miterlimit="10" stroke-linecap="round" stroke-linejoin="round"/>
<path d="M58.1314 153.378H47.7302C47.2983 153.378 46.9492 153.029 46.9492 152.597V150.335C46.9492 149.903 47.2983 149.554 47.7302 149.554H58.1314C58.5633 149.554 58.9123 149.903 58.9123 150.335V152.597C58.9123 153.029 58.5633 153.378 58.1314 153.378Z" fill="#39B4EF" stroke="#002E47" stroke-miterlimit="10" stroke-linecap="round" stroke-linejoin="round"/>
<path d="M60.9241 144.771H18.7574C18.1066 144.771 17.5859 144.244 17.5859 143.599V132.625C17.5859 131.973 18.1125 131.452 18.7574 131.452H60.9241C61.5749 131.452 62.0956 131.979 62.0956 132.625V143.599C62.1015 144.244 61.5749 144.771 60.9241 144.771Z" fill="#002E47" stroke="#B3C7EB" stroke-miterlimit="10" stroke-linecap="round" stroke-linejoin="round"/>
<path d="M83.928 144.771H41.7613C41.1105 144.771 40.5898 144.244 40.5898 143.599V132.625C40.5898 131.973 41.1164 131.452 41.7613 131.452H83.928C84.5788 131.452 85.0995 131.979 85.0995 132.625V143.599C85.0995 144.244 84.5729 144.771 83.928 144.771Z" fill="#B3C7EB" stroke="#002E47" stroke-miterlimit="10" stroke-linecap="round" stroke-linejoin="round"/>
<path d="M41.7618 142.776L41.7677 133.43C41.7677 132.986 42.1286 132.625 42.5723 132.625L83.1179 132.636C83.5617 132.636 83.9226 132.997 83.9226 133.447L83.9167 142.788C83.9167 143.232 83.5558 143.593 83.112 143.593H42.5664C42.1227 143.587 41.7559 143.226 41.7618 142.776Z" fill="#002E47"/>
<path d="M67.7623 143.09H57.3552C56.9233 143.09 56.5742 142.741 56.5742 142.309V140.047C56.5742 139.615 56.9233 139.266 57.3552 139.266H67.7563C68.1883 139.266 68.5373 139.615 68.5373 140.047V142.309C68.5432 142.741 68.1942 143.09 67.7623 143.09Z" fill="#39B4EF" stroke="#002E47" stroke-miterlimit="10" stroke-linecap="round" stroke-linejoin="round"/>
<path d="M80.5435 143.09H70.1364C69.7045 143.09 69.3555 142.741 69.3555 142.309V140.047C69.3555 139.615 69.7045 139.266 70.1364 139.266H80.5376C80.9695 139.266 81.3186 139.615 81.3186 140.047V142.309C81.3245 142.741 80.9695 143.09 80.5435 143.09Z" fill="#39B4EF" stroke="#002E47" stroke-miterlimit="10" stroke-linecap="round" stroke-linejoin="round"/>
<path d="M55.2095 143.09H44.8083C44.3764 143.09 44.0273 142.741 44.0273 142.309V140.047C44.0273 139.615 44.3764 139.266 44.8083 139.266H55.2095C55.6414 139.266 55.9904 139.615 55.9904 140.047V142.309C55.9904 142.741 55.6355 143.09 55.2095 143.09Z" fill="#39B4EF" stroke="#002E47" stroke-miterlimit="10" stroke-linecap="round" stroke-linejoin="round"/>
<path d="M64.5688 138.994H54.1677C53.7358 138.994 53.3867 138.645 53.3867 138.212V135.951C53.3867 135.519 53.7358 135.17 54.1677 135.17H64.5688C65.0008 135.17 65.3498 135.519 65.3498 135.951V138.212C65.3498 138.645 65.0008 138.994 64.5688 138.994Z" fill="#39B4EF" stroke="#002E47" stroke-miterlimit="10" stroke-linecap="round" stroke-linejoin="round"/>
<path d="M60.9241 130.63H18.7574C18.1066 130.63 17.5859 130.103 17.5859 129.458V118.483C17.5859 117.832 18.1125 117.311 18.7574 117.311H60.9241C61.5749 117.311 62.0956 117.838 62.0956 118.483V129.458C62.1015 130.103 61.5749 130.63 60.9241 130.63Z" fill="#002E47" stroke="#B3C7EB" stroke-miterlimit="10" stroke-linecap="round" stroke-linejoin="round"/>
<path d="M83.928 130.63H41.7613C41.1105 130.63 40.5898 130.103 40.5898 129.458V118.483C40.5898 117.832 41.1164 117.311 41.7613 117.311H83.928C84.5788 117.311 85.0995 117.838 85.0995 118.483V129.458C85.0995 130.103 84.5729 130.63 83.928 130.63Z" fill="#B3C7EB" stroke="#002E47" stroke-miterlimit="10" stroke-linecap="round" stroke-linejoin="round"/>
<path d="M41.7618 128.635L41.7677 119.288C41.7677 118.844 42.1286 118.483 42.5723 118.483L83.1179 118.495C83.5617 118.495 83.9226 118.856 83.9226 119.306L83.9167 128.647C83.9167 129.091 83.5558 129.452 83.112 129.452H42.5664C42.1227 129.446 41.7559 129.079 41.7618 128.635Z" fill="#002E47"/>
<path d="M75.0932 128.949H52.8591C52.4272 128.949 52.0781 128.599 52.0781 128.167V125.906C52.0781 125.474 52.4272 125.125 52.8591 125.125H75.0932C75.5251 125.125 75.8742 125.474 75.8742 125.906V128.167C75.8742 128.599 75.5251 128.949 75.0932 128.949Z" fill="#39B4EF" stroke="#002E47" stroke-miterlimit="10" stroke-linecap="round" stroke-linejoin="round"/>
<path d="M72.0659 124.734H49.8318C49.3999 124.734 49.0508 124.385 49.0508 123.953V124.059C49.0508 123.627 49.3999 123.278 49.8318 123.278H72.0659C72.4978 123.278 72.8468 123.627 72.8468 124.059V123.953C72.8409 124.385 72.4919 124.734 72.0659 124.734Z" fill="#39B4EF" stroke="#002E47" stroke-miterlimit="10" stroke-linecap="round" stroke-linejoin="round"/>
<path d="M60.9241 116.482H18.7574C18.1066 116.482 17.5859 115.955 17.5859 115.31V104.336C17.5859 103.684 18.1125 103.164 18.7574 103.164H60.9241C61.5749 103.164 62.0956 103.69 62.0956 104.336V115.31C62.1015 115.961 61.5749 116.482 60.9241 116.482Z" fill="#002E47" stroke="#B3C7EB" stroke-miterlimit="10" stroke-linecap="round" stroke-linejoin="round"/>
<path d="M83.928 116.482H41.7613C41.1105 116.482 40.5898 115.955 40.5898 115.31V104.336C40.5898 103.684 41.1164 103.164 41.7613 103.164H83.928C84.5788 103.164 85.0995 103.69 85.0995 104.336V115.31C85.0995 115.961 84.5729 116.482 83.928 116.482Z" fill="#B3C7EB" stroke="#002E47" stroke-miterlimit="10" stroke-linecap="round" stroke-linejoin="round"/>
<path d="M41.7618 114.493L41.7677 105.147C41.7677 104.703 42.1286 104.342 42.5723 104.342L83.1179 104.353C83.5617 104.353 83.9226 104.714 83.9226 105.164L83.9167 114.505C83.9167 114.949 83.5558 115.31 83.112 115.31H42.5664C42.1227 115.298 41.7559 114.937 41.7618 114.493Z" fill="#002E47"/>
<path d="M79.2338 114.807H56.9997C56.5678 114.807 56.2188 114.458 56.2188 114.026V111.764C56.2188 111.332 56.5678 110.983 56.9997 110.983H79.2338C79.6657 110.983 80.0148 111.332 80.0148 111.764V114.026C80.0148 114.458 79.6657 114.807 79.2338 114.807Z" fill="#39B4EF" stroke="#002E47" stroke-miterlimit="10" stroke-linecap="round" stroke-linejoin="round"/>
<path d="M72.065 110.592H61.6638C61.2319 110.592 60.8828 110.243 60.8828 109.811V107.55C60.8828 107.118 61.2319 106.768 61.6638 106.768H72.065C72.4969 106.768 72.8459 107.118 72.8459 107.55V109.811C72.84 110.243 72.4909 110.592 72.065 110.592Z" fill="#39B4EF" stroke="#002E47" stroke-miterlimit="10" stroke-linecap="round" stroke-linejoin="round"/>
<path d="M20.1172 97.4632V100.666" stroke="#B3C7EB" stroke-miterlimit="10" stroke-linecap="round" stroke-linejoin="round"/>
<path d="M21.1367 97.4632V100.666" stroke="#B3C7EB" stroke-miterlimit="10" stroke-linecap="round" stroke-linejoin="round"/>
<path d="M22.1484 97.4632V100.666" stroke="#B3C7EB" stroke-miterlimit="10" stroke-linecap="round" stroke-linejoin="round"/>
<path d="M23.1641 97.4632V100.666" stroke="#B3C7EB" stroke-miterlimit="10" stroke-linecap="round" stroke-linejoin="round"/>
<path d="M24.1758 97.4632V100.666" stroke="#B3C7EB" stroke-miterlimit="10" stroke-linecap="round" stroke-linejoin="round"/>
<path d="M20.1172 238.937V242.14" stroke="#B3C7EB" stroke-miterlimit="10" stroke-linecap="round" stroke-linejoin="round"/>
<path d="M21.1367 238.937V242.14" stroke="#B3C7EB" stroke-miterlimit="10" stroke-linecap="round" stroke-linejoin="round"/>
<path d="M22.1484 238.937V242.14" stroke="#B3C7EB" stroke-miterlimit="10" stroke-linecap="round" stroke-linejoin="round"/>
<path d="M23.1641 238.937V242.14" stroke="#B3C7EB" stroke-miterlimit="10" stroke-linecap="round" stroke-linejoin="round"/>
<path d="M24.1758 238.937V242.14" stroke="#B3C7EB" stroke-miterlimit="10" stroke-linecap="round" stroke-linejoin="round"/>
<path d="M20.1172 224.79V227.992" stroke="#B3C7EB" stroke-miterlimit="10" stroke-linecap="round" stroke-linejoin="round"/>
<path d="M21.1367 224.79V227.992" stroke="#B3C7EB" stroke-miterlimit="10" stroke-linecap="round" stroke-linejoin="round"/>
<path d="M22.1484 224.79V227.992" stroke="#B3C7EB" stroke-miterlimit="10" stroke-linecap="round" stroke-linejoin="round"/>
<path d="M23.1641 224.79V227.992" stroke="#B3C7EB" stroke-miterlimit="10" stroke-linecap="round" stroke-linejoin="round"/>
<path d="M24.1758 224.79V227.992" stroke="#B3C7EB" stroke-miterlimit="10" stroke-linecap="round" stroke-linejoin="round"/>
<path d="M20.1172 210.642V213.845" stroke="#B3C7EB" stroke-miterlimit="10" stroke-linecap="round" stroke-linejoin="round"/>
<path d="M21.1367 210.642V213.845" stroke="#B3C7EB" stroke-miterlimit="10" stroke-linecap="round" stroke-linejoin="round"/>
<path d="M22.1484 210.642V213.845" stroke="#B3C7EB" stroke-miterlimit="10" stroke-linecap="round" stroke-linejoin="round"/>
<path d="M23.1641 210.642V213.845" stroke="#B3C7EB" stroke-miterlimit="10" stroke-linecap="round" stroke-linejoin="round"/>
<path d="M24.1758 210.642V213.845" stroke="#B3C7EB" stroke-miterlimit="10" stroke-linecap="round" stroke-linejoin="round"/>
<path d="M20.1172 196.495V199.697" stroke="#B3C7EB" stroke-miterlimit="10" stroke-linecap="round" stroke-linejoin="round"/>
<path d="M21.1367 196.495V199.697" stroke="#B3C7EB" stroke-miterlimit="10" stroke-linecap="round" stroke-linejoin="round"/>
<path d="M22.1484 196.495V199.697" stroke="#B3C7EB" stroke-miterlimit="10" stroke-linecap="round" stroke-linejoin="round"/>
<path d="M23.1641 196.495V199.697" stroke="#B3C7EB" stroke-miterlimit="10" stroke-linecap="round" stroke-linejoin="round"/>
<path d="M24.1758 196.495V199.697" stroke="#B3C7EB" stroke-miterlimit="10" stroke-linecap="round" stroke-linejoin="round"/>
<path d="M20.1172 182.348V185.55" stroke="#B3C7EB" stroke-miterlimit="10" stroke-linecap="round" stroke-linejoin="round"/>
<path d="M21.1367 182.348V185.55" stroke="#B3C7EB" stroke-miterlimit="10" stroke-linecap="round" stroke-linejoin="round"/>
<path d="M22.1484 182.348V185.55" stroke="#B3C7EB" stroke-miterlimit="10" stroke-linecap="round" stroke-linejoin="round"/>
<path d="M23.1641 182.348V185.55" stroke="#B3C7EB" stroke-miterlimit="10" stroke-linecap="round" stroke-linejoin="round"/>
<path d="M24.1758 182.348V185.55" stroke="#B3C7EB" stroke-miterlimit="10" stroke-linecap="round" stroke-linejoin="round"/>
<path d="M20.1172 168.2V171.403" stroke="#B3C7EB" stroke-miterlimit="10" stroke-linecap="round" stroke-linejoin="round"/>
<path d="M21.1367 168.2V171.403" stroke="#B3C7EB" stroke-miterlimit="10" stroke-linecap="round" stroke-linejoin="round"/>
<path d="M22.1484 168.2V171.403" stroke="#B3C7EB" stroke-miterlimit="10" stroke-linecap="round" stroke-linejoin="round"/>
<path d="M23.1641 168.2V171.403" stroke="#B3C7EB" stroke-miterlimit="10" stroke-linecap="round" stroke-linejoin="round"/>
<path d="M24.1758 168.2V171.403" stroke="#B3C7EB" stroke-miterlimit="10" stroke-linecap="round" stroke-linejoin="round"/>
<path d="M20.1172 154.053V157.255" stroke="#B3C7EB" stroke-miterlimit="10" stroke-linecap="round" stroke-linejoin="round"/>
<path d="M21.1367 154.053V157.255" stroke="#B3C7EB" stroke-miterlimit="10" stroke-linecap="round" stroke-linejoin="round"/>
<path d="M22.1484 154.053V157.255" stroke="#B3C7EB" stroke-miterlimit="10" stroke-linecap="round" stroke-linejoin="round"/>
<path d="M23.1641 154.053V157.255" stroke="#B3C7EB" stroke-miterlimit="10" stroke-linecap="round" stroke-linejoin="round"/>
<path d="M24.1758 154.053V157.255" stroke="#B3C7EB" stroke-miterlimit="10" stroke-linecap="round" stroke-linejoin="round"/>
<path d="M20.1172 139.905V143.108" stroke="#B3C7EB" stroke-miterlimit="10" stroke-linecap="round" stroke-linejoin="round"/>
<path d="M21.1367 139.905V143.108" stroke="#B3C7EB" stroke-miterlimit="10" stroke-linecap="round" stroke-linejoin="round"/>
<path d="M22.1484 139.905V143.108" stroke="#B3C7EB" stroke-miterlimit="10" stroke-linecap="round" stroke-linejoin="round"/>
<path d="M23.1641 139.905V143.108" stroke="#B3C7EB" stroke-miterlimit="10" stroke-linecap="round" stroke-linejoin="round"/>
<path d="M24.1758 139.905V143.108" stroke="#B3C7EB" stroke-miterlimit="10" stroke-linecap="round" stroke-linejoin="round"/>
<path d="M20.1172 125.758V128.96" stroke="#B3C7EB" stroke-miterlimit="10" stroke-linecap="round" stroke-linejoin="round"/>
<path d="M21.1367 125.758V128.96" stroke="#B3C7EB" stroke-miterlimit="10" stroke-linecap="round" stroke-linejoin="round"/>
<path d="M22.1484 125.758V128.96" stroke="#B3C7EB" stroke-miterlimit="10" stroke-linecap="round" stroke-linejoin="round"/>
<path d="M23.1641 125.758V128.96" stroke="#B3C7EB" stroke-miterlimit="10" stroke-linecap="round" stroke-linejoin="round"/>
<path d="M24.1758 125.758V128.96" stroke="#B3C7EB" stroke-miterlimit="10" stroke-linecap="round" stroke-linejoin="round"/>
<path d="M20.1172 111.611V114.813" stroke="#B3C7EB" stroke-miterlimit="10" stroke-linecap="round" stroke-linejoin="round"/>
<path d="M21.1367 111.611V114.813" stroke="#B3C7EB" stroke-miterlimit="10" stroke-linecap="round" stroke-linejoin="round"/>
<path d="M22.1484 111.611V114.813" stroke="#B3C7EB" stroke-miterlimit="10" stroke-linecap="round" stroke-linejoin="round"/>
<path d="M23.1641 111.611V114.813" stroke="#B3C7EB" stroke-miterlimit="10" stroke-linecap="round" stroke-linejoin="round"/>
<path d="M24.1758 111.611V114.813" stroke="#B3C7EB" stroke-miterlimit="10" stroke-linecap="round" stroke-linejoin="round"/>
</g>
<defs>
<clipPath id="clip0_261_34753">
<rect width="255" height="262.822" fill="white" transform="translate(0.5)"/>
</clipPath>
</defs>
</svg>
