<svg width="554" height="510" viewBox="0 0 554 510" fill="none" xmlns="http://www.w3.org/2000/svg">
<path d="M537.025 301.116C519.861 347.272 484.786 397.232 435.415 412.028C360.833 434.386 351.925 494.728 218.341 489.133C197.515 488.267 178.263 485.317 160.574 480.635C151.071 478.118 142.01 475.075 133.417 471.563C55.3837 439.829 14.6765 369.992 11.2949 296.914C6.82892 200.81 73.6326 154.994 117.045 128.176C160.457 101.358 212.779 -2.57706 344.147 1.88281C364.18 2.57345 384.155 5.3243 403.523 10.5919C447.728 22.6019 492.657 49.1622 518.765 87.99C520.724 90.9048 522.589 93.8897 524.385 96.9332C559.332 156.457 560.44 238.186 537.025 301.116Z" fill="#39B4EF"/>
<path opacity="0.7" d="M537.025 301.116C519.861 347.272 484.786 397.232 435.415 412.028C360.833 434.386 351.925 494.728 218.341 489.133C197.515 488.267 178.263 485.317 160.574 480.635C151.071 478.118 142.01 475.075 133.417 471.563C55.3837 439.829 14.6765 369.992 11.2949 296.914C6.82892 200.81 73.6326 154.994 117.045 128.176C160.457 101.358 212.779 -2.57706 344.147 1.88281C364.18 2.57345 384.155 5.3243 403.523 10.5919C447.728 22.6019 492.657 49.1622 518.765 87.99C520.724 90.9048 522.589 93.8897 524.385 96.9332C559.332 156.457 560.44 238.186 537.025 301.116Z" fill="white"/>
<path d="M280.001 342.859C266.451 311.955 268.445 261.34 274.73 257.138C281.645 252.502 292.606 276.23 303.555 269.288C314.505 262.347 322.002 247.293 312.779 223.566C303.555 199.838 291.452 215.465 282.799 221.248C274.147 227.03 267.232 221.821 268.958 200.997C270.229 185.639 276.211 157.381 279.255 143.604C280.631 144.201 282.006 144.798 283.371 145.442C256.271 132.706 226.304 128.656 213.617 132.706C200.942 136.756 203.239 137.915 209.582 152.957C222.806 184.34 172.712 195.121 158.252 170.925C149.6 156.457 162.31 148.333 158.859 137.915C155.396 127.497 91.4138 139.647 83.3446 144.283C83.3446 144.283 98.9115 191.152 96.6027 207.938C94.2939 224.724 86.2248 232.24 74.1211 220.089C62.0174 207.938 46.4504 218.93 45.8791 239.181C45.3077 259.432 48.7592 275.644 62.6004 271.009C76.4415 266.373 87.3908 249.599 91.9968 271.009C96.6144 292.419 88.5336 320.196 83.9276 339.874C83.9276 339.874 120.25 355.501 136.96 354.342C153.681 353.183 164.059 352.609 158.87 342.191C153.681 331.773 145.029 324.832 151.373 313.255C157.716 301.678 183.078 302.837 196.336 305.728C209.594 308.619 215.354 318.464 211.32 329.455C207.285 340.447 200.371 351.451 213.046 353.757C224.998 355.934 255.397 350.924 285.4 341.126C283.592 341.735 281.797 342.297 280.001 342.859Z" stroke="#002E47" stroke-miterlimit="10"/>
<path d="M290.868 339.312C289.095 339.932 287.311 340.529 285.527 341.103C287.311 340.517 289.095 339.92 290.868 339.312Z" stroke="#002E47" stroke-miterlimit="10"/>
<path d="M501.283 214.88C490.334 214.88 489.751 223.566 478.23 221.821C466.698 220.089 465.544 193.47 477.659 146.589C477.659 146.589 464.401 156.422 434.421 157.007C404.442 157.58 392.338 154.116 399.836 143.112C407.334 132.121 413.094 123.435 406.751 114.761C400.407 106.075 369.857 107.234 360.062 114.761C350.267 122.288 357.181 130.962 364.096 140.806C371.011 150.639 362.942 156.433 351.409 157.007C339.877 157.58 310.481 158.166 283.381 145.43C282.017 144.786 280.641 144.189 279.265 143.592C276.21 157.381 270.24 185.627 268.969 200.985C267.243 221.821 274.158 227.03 282.81 221.236C291.462 215.454 303.566 199.826 312.79 223.554C322.013 247.281 314.515 262.323 303.566 269.276C292.617 276.218 281.656 252.49 274.741 257.126C268.456 261.34 266.45 311.944 280.012 342.847C283.638 341.735 287.276 340.552 290.879 339.3C322.584 328.308 354.29 323.099 360.062 330.614C365.822 338.141 363.525 336.982 356.027 348.559C348.529 360.136 349.112 369.969 361.787 375.763C374.474 381.546 405.596 380.399 408.477 367.078C411.357 353.768 395.218 346.241 402.716 333.517C410.214 320.782 476.505 339.3 476.505 339.3C476.505 339.3 461.521 288.368 467.281 271.594C473.041 254.808 477.659 258.858 486.882 265.226C496.106 271.594 508.21 271.009 512.827 252.49C517.422 233.984 512.233 214.88 501.283 214.88Z" stroke="#002E47" stroke-miterlimit="10"/>
<path d="M466.991 92.1841C481.667 85.2309 487.949 67.6512 481.023 52.9188C474.096 38.1864 456.584 31.8801 441.909 38.8333C427.233 45.7865 420.951 63.3662 427.877 78.0986C434.804 92.831 452.316 99.1373 466.991 92.1841Z" fill="#39B4EF" stroke="#002E47" stroke-miterlimit="10"/>
<path d="M456.945 89.6357C470.22 88.2681 479.876 76.3568 478.514 63.0312C477.151 49.7056 465.286 40.0118 452.012 41.3795C438.737 42.7471 429.081 54.6584 430.443 67.9839C431.806 81.3095 443.671 91.0034 456.945 89.6357Z" fill="white" stroke="#002E47" stroke-miterlimit="10"/>
<path d="M462.015 81.4435C470.791 77.2525 474.52 66.7138 470.345 57.9045C466.17 49.0953 455.672 45.3515 446.897 49.5424C438.122 53.7334 434.392 64.2721 438.567 73.0814C442.742 81.8906 453.24 85.6345 462.015 81.4435Z" fill="#39B4EF" stroke="#002E47" stroke-miterlimit="10"/>
<path d="M465.569 65.4916C465.569 59.3344 460.601 54.3361 454.456 54.3361C448.323 54.3361 443.344 59.3227 443.344 65.4916C443.344 71.6488 448.311 76.6472 454.456 76.6472C460.601 76.6472 465.569 71.6605 465.569 65.4916Z" fill="white" stroke="#002E47" stroke-miterlimit="10"/>
<path d="M459.609 65.4917C459.609 62.6355 457.312 60.3295 454.467 60.3295C451.621 60.3295 449.324 62.6355 449.324 65.4917C449.324 68.3479 451.621 70.6539 454.467 70.6539C457.3 70.6539 459.609 68.3479 459.609 65.4917Z" fill="#39B4EF" stroke="#002E47" stroke-miterlimit="10"/>
<path d="M456.591 57.403L454.457 65.4916L462.071 67.1655L456.591 57.403Z" fill="#002E47" stroke="#002E47" stroke-miterlimit="10"/>
<path d="M459.832 61.9097L493.263 43.6254" stroke="#002E47" stroke-width="2" stroke-miterlimit="10"/>
<path d="M482.535 49.6421L483.025 40.8745L498.743 31.8611V41.8695L482.535 49.6421Z" fill="#002E47" stroke="#002E47" stroke-miterlimit="10"/>
<path d="M505.483 46.6337L498.603 41.5417L482.465 50.0518L490.242 54.5702L505.483 46.6337Z" fill="#002E47" stroke="#002E47" stroke-miterlimit="10"/>
<path d="M300.418 67.2826H288.734V95.2124H300.418V67.2826Z" fill="#39B4EF" stroke="#002E47" stroke-miterlimit="10"/>
<path d="M317.641 58.8193H305.957V95.2124H317.641V58.8193Z" fill="#39B4EF" stroke="#002E47" stroke-miterlimit="10"/>
<path d="M334.864 67.2826H323.18V95.2124H334.864V67.2826Z" fill="#39B4EF" stroke="#002E47" stroke-miterlimit="10"/>
<path d="M352.098 56.9816H340.414V95.2124H352.098V56.9816Z" fill="#39B4EF" stroke="#002E47" stroke-miterlimit="10"/>
<path d="M369.321 42.9932H357.637V95.2123H369.321V42.9932Z" fill="#39B4EF" stroke="#002E47" stroke-miterlimit="10"/>
<path d="M353.814 20.8694L358.373 22.8242L327.368 52.6972L312.559 44.5852L289.098 58.9013V63.2207L312.652 48.8461L327.974 57.2391L360.915 25.4932L362.676 30.1403L369.194 14.958L353.814 20.8694Z" fill="#002E47" stroke="#002E47" stroke-miterlimit="10" stroke-linecap="round" stroke-linejoin="round"/>
<path d="M217.769 94.0342C233.568 90.3116 243.369 74.4369 239.661 58.5771C235.953 42.7173 220.139 32.8782 204.34 36.6008C188.542 40.3234 178.741 56.1981 182.449 72.0579C186.157 87.9177 201.971 97.7568 217.769 94.0342Z" fill="white" stroke="#002E47" stroke-miterlimit="10"/>
<path d="M216.878 90.8854C230.941 87.6618 239.739 73.6038 236.528 59.486C233.317 45.3681 219.313 36.5365 205.249 39.76C191.186 42.9836 182.388 57.0416 185.599 71.1595C188.811 85.2773 202.814 94.1089 216.878 90.8854Z" fill="#39B4EF" stroke="#002E47" stroke-miterlimit="10"/>
<path d="M214.648 88.8664C227.51 86.8661 236.321 74.7778 234.329 61.8664C232.336 48.955 220.294 40.1099 207.433 42.1103C194.571 44.1106 185.76 56.1989 187.752 69.1103C189.745 82.0216 201.787 90.8668 214.648 88.8664Z" fill="white" stroke="#002E47" stroke-miterlimit="10"/>
<path d="M210.704 85.7308V81.9732C207.941 81.8679 205.877 80.9783 204.512 79.3043C203.148 77.6304 202.402 75.1488 202.297 71.8361L207.976 70.8645C208.034 72.2107 208.174 73.3344 208.395 74.2358C208.629 75.1371 208.967 75.816 209.422 76.2609C209.876 76.7057 210.471 76.9281 211.194 76.9281C212.022 76.9281 212.593 76.6588 212.908 76.1204C213.211 75.5819 213.374 74.9615 213.374 74.2592C213.374 72.8896 213.06 71.7307 212.43 70.806C211.8 69.8812 210.937 68.9448 209.83 67.9966L206.413 65.0468C205.632 64.321 204.932 63.5836 204.326 62.8227C203.708 62.0735 203.218 61.2073 202.857 60.2357C202.495 59.2641 202.309 58.117 202.309 56.8059C202.309 54.2775 203.031 52.2992 204.466 50.8829C205.9 49.4665 207.824 48.6705 210.238 48.4832V44.8895H212.173V48.4832C213.619 48.5651 214.809 48.8929 215.73 49.4782C216.651 50.0517 217.362 50.7892 217.84 51.6554C218.319 52.5334 218.668 53.4815 218.89 54.5233C219.1 55.5651 219.24 56.5601 219.298 57.5317L213.538 58.3745C213.514 57.3795 213.433 56.5016 213.293 55.729C213.153 54.9564 212.92 54.3595 212.57 53.9263C212.22 53.4932 211.684 53.2942 210.961 53.3176C210.214 53.3411 209.643 53.6454 209.247 54.2073C208.862 54.7692 208.664 55.4013 208.664 56.1036C208.664 57.3444 208.955 58.3394 209.55 59.0886C210.144 59.8377 210.809 60.5752 211.567 61.2658L214.902 64.1688C215.788 64.9765 216.604 65.8545 217.362 66.7909C218.109 67.7391 218.715 68.7809 219.17 69.9164C219.625 71.0635 219.858 72.3746 219.858 73.8495C219.858 75.2776 219.566 76.5769 218.995 77.7475C218.412 78.918 217.584 79.8662 216.499 80.592C215.415 81.3177 214.132 81.7508 212.652 81.8796V85.6722H210.704V85.7308Z" fill="#002E47"/>
<path d="M115.833 42.4899H61.2734V93.9833H115.833V42.4899Z" fill="white" stroke="#002E47" stroke-miterlimit="10"/>
<path d="M115.833 42.4899H61.2734V55.729H115.833V42.4899Z" fill="#39B4EF" stroke="#002E47" stroke-miterlimit="10" stroke-linecap="round" stroke-linejoin="round"/>
<path d="M72.2331 63.0802H65.7031V69.6354H72.2331V63.0802Z" fill="#39B4EF" stroke="#002E47" stroke-miterlimit="10" stroke-linecap="round" stroke-linejoin="round"/>
<path d="M82.026 63.0802H75.4961V69.6354H82.026V63.0802Z" fill="#39B4EF" stroke="#002E47" stroke-miterlimit="10" stroke-linecap="round" stroke-linejoin="round"/>
<path d="M91.8112 63.0802H85.2812V69.6354H91.8112V63.0802Z" fill="#39B4EF" stroke="#002E47" stroke-miterlimit="10" stroke-linecap="round" stroke-linejoin="round"/>
<path d="M101.608 63.0802H95.0781V69.6354H101.608V63.0802Z" fill="#39B4EF" stroke="#002E47" stroke-miterlimit="10" stroke-linecap="round" stroke-linejoin="round"/>
<path d="M111.401 63.0802H104.871V69.6354H111.401V63.0802Z" fill="#39B4EF" stroke="#002E47" stroke-miterlimit="10" stroke-linecap="round" stroke-linejoin="round"/>
<path d="M72.2331 73.3812H65.7031V79.9364H72.2331V73.3812Z" fill="#39B4EF" stroke="#002E47" stroke-miterlimit="10" stroke-linecap="round" stroke-linejoin="round"/>
<path d="M82.026 73.3812H75.4961V79.9364H82.026V73.3812Z" fill="#39B4EF" stroke="#002E47" stroke-miterlimit="10" stroke-linecap="round" stroke-linejoin="round"/>
<path d="M91.8112 73.3812H85.2812V79.9364H91.8112V73.3812Z" fill="#39B4EF" stroke="#002E47" stroke-miterlimit="10" stroke-linecap="round" stroke-linejoin="round"/>
<path d="M101.608 73.3812H95.0781V79.9364H101.608V73.3812Z" fill="#39B4EF" stroke="#002E47" stroke-miterlimit="10" stroke-linecap="round" stroke-linejoin="round"/>
<path d="M111.401 73.3812H104.871V79.9364H111.401V73.3812Z" fill="#39B4EF" stroke="#002E47" stroke-miterlimit="10" stroke-linecap="round" stroke-linejoin="round"/>
<path d="M72.2331 83.6823H65.7031V90.2375H72.2331V83.6823Z" fill="#39B4EF" stroke="#002E47" stroke-miterlimit="10" stroke-linecap="round" stroke-linejoin="round"/>
<path d="M82.026 83.6823H75.4961V90.2375H82.026V83.6823Z" fill="#39B4EF" stroke="#002E47" stroke-miterlimit="10" stroke-linecap="round" stroke-linejoin="round"/>
<path d="M91.8112 83.6823H85.2812V90.2375H91.8112V83.6823Z" fill="#39B4EF" stroke="#002E47" stroke-miterlimit="10" stroke-linecap="round" stroke-linejoin="round"/>
<path d="M101.608 83.6823H95.0781V90.2375H101.608V83.6823Z" fill="#39B4EF" stroke="#002E47" stroke-miterlimit="10" stroke-linecap="round" stroke-linejoin="round"/>
<path d="M111.401 83.6823H104.871V90.2375H111.401V83.6823Z" fill="#39B4EF" stroke="#002E47" stroke-miterlimit="10" stroke-linecap="round" stroke-linejoin="round"/>
<path d="M73.3986 34.0618H68.7344V46.7039H73.3986V34.0618Z" fill="#002E47"/>
<path d="M85.0588 34.0618H80.3945V46.7039H85.0588V34.0618Z" fill="#002E47"/>
<path d="M96.7072 34.0618H92.043V46.7039H96.7072V34.0618Z" fill="#002E47"/>
<path d="M108.367 34.0618H103.703V46.7039H108.367V34.0618Z" fill="#002E47"/>
<path d="M13.8236 427.14C16.354 428.252 22.5458 428.111 22.5574 428.111C22.6157 428.111 21.2281 424.038 21.1115 423.792C19.7589 420.936 15.4561 416.23 11.9579 416.698C9.43925 417.038 8.03998 419.566 8.61135 421.954C9.18272 424.389 11.6664 426.203 13.8236 427.14Z" fill="#39B4EF"/>
<path d="M15.9564 445.155C18.58 445.541 24.1071 443.926 24.5502 443.797C25.4248 446.899 26.5675 450.013 27.8968 453.103C28.6548 454.871 29.4827 456.626 30.3222 458.371C29.8208 457.633 29.3661 456.966 29.2845 456.884C27.2205 454.496 21.845 451.09 18.5917 452.471C16.2479 453.466 15.5716 456.275 16.7376 458.429C17.9387 460.618 20.8072 461.707 23.1393 462.046C25.5064 462.397 30.2406 461.11 31.4883 460.759C31.8148 461.426 32.1413 462.093 32.4795 462.76C34.077 465.956 35.6861 469.14 37.1787 472.312C37.7034 473.424 38.1815 474.548 38.6596 475.672C38.2165 475.016 37.8317 474.466 37.7617 474.384C35.6978 471.996 30.3222 468.59 27.0689 469.971C24.7252 470.966 24.0488 473.775 25.2149 475.929C26.4159 478.118 29.2845 479.207 31.6166 479.546C33.8671 479.874 38.2515 478.739 39.744 478.329C40.1988 479.488 40.6652 480.647 41.05 481.794C41.2949 482.578 41.5981 483.327 41.7963 484.123C42.0178 484.919 42.2394 485.703 42.4493 486.476C42.8108 487.986 43.1956 489.543 43.5104 491.03C43.7436 492.06 43.9302 493.043 44.1401 494.038C43.627 492.914 42.5892 490.749 42.4843 490.573C40.8051 487.892 36.001 483.713 32.5844 484.591C30.124 485.223 29.0163 487.892 29.8558 490.198C30.707 492.551 33.389 494.05 35.6395 494.74C38.1115 495.501 43.6037 494.81 44.2917 494.717C44.6182 496.367 44.9213 497.959 45.1895 499.481C45.7726 502.829 46.2157 505.837 46.5538 508.377H48.8626C48.4545 505.744 47.9298 502.618 47.2301 499.106C46.9036 497.433 46.5188 495.653 46.1107 493.827C46.5188 493.663 48.8626 492.715 50.9382 491.545C52.7456 493.511 57.3749 495.805 57.9696 496.098C57.3399 497.655 56.7102 499.153 56.0922 500.57C54.8095 503.52 53.5968 506.142 52.5241 508.377H55.0194C55.9406 506.317 56.9551 503.976 58.0162 501.389C58.6575 499.809 59.3222 498.111 59.9868 496.367C60.6515 496.508 66.0853 497.608 68.6157 497.035C70.9128 496.519 73.6881 495.208 74.7142 492.938C75.717 490.713 74.8191 487.963 72.4054 487.143C69.0588 486.019 63.9631 489.824 62.0858 492.376C61.9691 492.528 60.9547 494.284 60.3367 495.407C60.6049 494.693 60.8731 494.003 61.1296 493.265C61.666 491.802 62.1557 490.327 62.6804 488.747C62.9137 487.974 63.1469 487.19 63.3801 486.406C63.625 485.633 63.7999 484.779 64.0098 483.948C64.4645 482.028 64.8377 480.061 65.1642 478.083C66.4352 478.551 70.9945 480.143 73.3499 479.968C75.6937 479.804 78.6438 478.938 79.9965 476.842C81.3258 474.794 80.8477 471.937 78.5972 470.767C75.4605 469.14 69.8401 472.137 67.6129 474.372C67.473 474.513 66.0504 476.292 65.2924 477.287C65.479 476.093 65.6772 474.899 65.8172 473.682C66.2486 470.17 66.5868 466.6 66.9249 463.041C67.0299 461.953 67.1465 460.864 67.2631 459.775C67.7178 459.951 73.0817 461.953 75.7287 461.765C78.0725 461.601 81.0226 460.735 82.3752 458.64C83.7045 456.591 83.2264 453.735 80.9759 452.565C77.8392 450.937 72.2188 453.934 69.9917 456.158C69.8284 456.322 67.7761 458.897 67.2864 459.576C67.5429 457.188 67.8111 454.8 68.1726 452.471C68.674 449.252 69.3387 446.115 70.2015 443.118C70.4114 443.2 76.0085 445.319 78.7138 445.131C81.0576 444.968 84.0077 444.101 85.3603 442.006C86.6897 439.958 86.2116 437.101 83.9611 435.931C80.8244 434.304 75.2039 437.3 72.9768 439.536C72.8019 439.712 70.6097 442.474 70.2365 443.001C70.2832 442.825 70.3182 442.638 70.3765 442.463C71.3443 439.279 72.6853 436.317 74.0612 433.613C74.8658 432.033 75.717 430.581 76.5799 429.177C77.5827 429.68 82.1887 431.927 84.6374 432.021C86.9928 432.115 90.0129 431.576 91.5871 429.645C93.138 427.748 92.9747 424.857 90.8525 423.452C87.914 421.498 82.0021 423.85 79.5417 425.817C79.4134 425.922 78.1657 427.163 77.2795 428.076C77.676 427.444 78.0841 426.789 78.4689 426.203C79.9498 423.967 81.4307 422.024 82.76 420.304C83.5296 419.332 84.2409 418.466 84.9056 417.67C86.1416 417.646 91.1323 417.494 93.3129 416.464C95.4468 415.457 97.8722 413.584 98.3969 411.138C98.8983 408.738 97.4291 406.257 94.9104 405.976C91.4005 405.601 87.2377 410.424 85.955 413.315C85.8501 413.561 84.5558 417.67 84.6257 417.67C84.6257 417.67 84.684 417.67 84.6957 417.67C84.031 418.431 83.3314 419.25 82.5735 420.151C81.1975 421.849 79.67 423.768 78.1424 425.981C76.6032 428.182 75.0057 430.616 73.5365 433.332C72.0672 436.059 70.668 438.998 69.6068 442.217C69.5952 442.252 69.5835 442.287 69.5719 442.334C69.5952 441.292 69.5485 438.389 69.5136 438.167C69.1054 435.029 66.4935 429.212 63.0186 428.568C60.5232 428.1 58.401 430.066 58.2028 432.513C58.0045 435.006 59.8003 437.499 61.5494 439.068C63.5317 440.847 69.0238 442.556 69.4553 442.697C68.4758 445.764 67.7178 449.006 67.1348 452.319C66.7966 454.215 66.5168 456.135 66.2603 458.055C66.2486 457.153 66.2253 456.357 66.2136 456.24C65.8055 453.103 63.1935 447.285 59.7187 446.641C57.2233 446.173 55.101 448.14 54.9028 450.586C54.7046 453.08 56.5003 455.573 58.2494 457.141C60.0335 458.733 64.6861 460.302 65.9221 460.688C65.8288 461.426 65.7355 462.163 65.6422 462.912C65.2225 466.471 64.8143 470.018 64.3129 473.483C64.138 474.7 63.9165 475.906 63.6949 477.1C63.6833 476.304 63.6599 475.637 63.6483 475.531C63.2402 472.394 60.6282 466.576 57.1533 465.932C54.6579 465.464 52.5357 467.431 52.3375 469.877C52.1393 472.371 53.935 474.864 55.6841 476.432C57.3865 477.954 61.666 479.429 63.1352 479.909C62.8787 481.126 62.6221 482.356 62.319 483.526C62.0974 484.322 61.9342 485.106 61.6543 485.891C61.3978 486.675 61.1529 487.448 60.908 488.22C60.3833 489.683 59.8353 491.193 59.2872 492.61C58.9141 493.593 58.5293 494.53 58.1561 495.466C58.3427 494.249 58.6692 491.861 58.6809 491.662C58.7275 489.566 57.9812 486.148 56.512 483.749C56.5236 483.444 56.5003 483.128 56.4537 482.824C56.0689 480.412 53.8067 478.61 51.3463 479.265C47.9414 480.178 45.7726 486.183 45.6093 489.344C45.5977 489.531 45.7259 491.568 45.8192 492.844C45.6443 492.095 45.4927 491.369 45.3061 490.608C44.9447 489.098 44.5482 487.6 44.1167 485.984C43.8835 485.212 43.6503 484.427 43.4055 483.643C43.1839 482.859 42.8574 482.051 42.5775 481.255C41.9012 479.406 41.1316 477.556 40.3154 475.718C41.633 475.402 46.3089 474.208 48.1746 472.757C50.0403 471.317 52.0226 468.964 51.9993 466.471C51.976 464.024 50.017 461.906 47.4867 462.175C43.9768 462.561 40.9334 468.168 40.3037 471.259C40.2687 471.458 40.0589 473.728 39.9656 474.981C39.4642 473.881 38.9744 472.78 38.4264 471.68C36.8639 468.508 35.1731 465.347 33.5056 462.198C32.9925 461.227 32.4911 460.267 31.9897 459.295C32.4561 459.19 38.0416 457.891 40.1405 456.275C42.0062 454.835 43.9885 452.483 43.9652 449.989C43.9418 447.543 41.9829 445.424 39.4525 445.705C35.9427 446.091 32.8992 451.698 32.2696 454.789C32.2229 455.023 31.9314 458.289 31.8964 459.131C30.7887 457.001 29.7159 454.859 28.7247 452.705C27.3721 449.743 26.1944 446.758 25.2849 443.774C25.5064 443.727 31.3367 442.392 33.4823 440.742C35.348 439.302 37.3303 436.949 37.307 434.456C37.2953 432.009 35.3246 429.891 32.7943 430.16C29.2845 430.546 26.241 436.153 25.6114 439.243C25.5647 439.489 25.2499 443.013 25.2382 443.645C25.1799 443.469 25.11 443.294 25.0517 443.118C24.1071 439.922 23.5941 436.715 23.2676 433.695C23.0693 431.939 22.9761 430.242 22.9294 428.591C24.0372 428.451 29.1095 427.772 31.2085 426.496C33.2257 425.267 35.4413 423.148 35.6978 420.666C35.9427 418.232 34.2285 415.914 31.6865 415.902C28.1534 415.891 24.5153 421.135 23.5474 424.143C23.4891 424.307 23.1393 426.028 22.9061 427.292C22.8944 426.543 22.8711 425.782 22.8711 425.068C22.8711 422.387 23.046 419.941 23.2093 417.763C23.3142 416.534 23.4308 415.422 23.5591 414.381C24.5852 413.678 28.6548 410.787 29.9141 408.715C31.1385 406.702 32.1413 403.787 31.2201 401.457C30.3222 399.175 27.7336 397.911 25.4714 399.081C22.3347 400.708 21.5185 407.041 22.0316 410.155C22.0782 410.424 23.2559 414.556 23.3142 414.521C23.3142 414.521 23.3609 414.486 23.3725 414.474C23.2326 415.469 23.1043 416.546 22.9761 417.717C22.7662 419.882 22.533 422.34 22.4747 425.033C22.4047 427.713 22.4047 430.64 22.6845 433.718C22.9527 436.797 23.3958 440.028 24.2821 443.305C24.2937 443.34 24.3054 443.376 24.317 443.411C23.7573 442.533 22.1248 440.145 21.9849 439.969C19.921 437.581 14.5454 434.175 11.2921 435.556C8.94834 436.551 8.27203 439.36 9.43809 441.514C10.7557 443.727 13.6242 444.804 15.9564 445.155Z" fill="#39B4EF"/>
<path d="M76.4531 428.509C76.5114 428.544 77.5842 424.377 77.6191 424.108C78.0506 420.971 77.0594 414.673 73.8761 413.128C71.5906 412.016 69.0253 413.35 68.1974 415.656C67.3461 418.009 68.4306 420.889 69.7016 422.867C71.2058 425.197 76.4414 428.509 76.4531 428.509Z" fill="#39B4EF"/>
<path d="M444.23 427.14C446.76 428.252 452.952 428.111 452.964 428.111C453.022 428.111 451.634 424.038 451.518 423.792C450.165 420.936 445.862 416.23 442.364 416.698C439.845 417.038 438.446 419.566 439.018 421.954C439.589 424.389 442.073 426.203 444.23 427.14Z" fill="#39B4EF"/>
<path d="M446.363 445.155C448.986 445.541 454.513 443.926 454.957 443.797C455.831 446.899 456.974 450.013 458.303 453.103C459.061 454.871 459.889 456.626 460.729 458.371C460.227 457.633 459.772 456.966 459.691 456.884C457.627 454.496 452.251 451.09 448.998 452.471C446.654 453.466 445.978 456.275 447.144 458.429C448.345 460.618 451.213 461.707 453.546 462.046C455.913 462.397 460.647 461.11 461.895 460.759C462.221 461.426 462.548 462.093 462.886 462.76C464.483 465.956 466.092 469.14 467.585 472.312C468.11 473.424 468.588 474.548 469.066 475.672C468.623 475.016 468.238 474.466 468.168 474.384C466.104 471.996 460.729 468.59 457.475 469.971C455.131 470.966 454.455 473.775 455.621 475.929C456.822 478.118 459.691 479.207 462.023 479.546C464.273 479.874 468.658 478.739 470.15 478.329C470.605 479.488 471.06 480.647 471.456 481.794C471.701 482.578 472.004 483.327 472.203 484.123C472.424 484.919 472.646 485.703 472.856 486.476C473.217 487.986 473.602 489.543 473.917 491.03C474.15 492.06 474.336 493.043 474.546 494.038C474.033 492.914 472.996 490.749 472.891 490.573C471.211 487.892 466.407 483.713 462.991 484.591C460.53 485.223 459.423 487.892 460.262 490.198C461.113 492.551 463.795 494.05 466.046 494.74C468.518 495.501 474.01 494.81 474.698 494.717C475.024 496.367 475.328 497.959 475.596 499.481C476.179 502.829 476.634 505.837 476.96 508.377H479.269C478.861 505.744 478.336 502.618 477.636 499.106C477.31 497.433 476.925 495.653 476.517 493.827C476.925 493.663 479.269 492.715 481.345 491.545C483.152 493.511 487.781 495.805 488.376 496.098C487.746 497.655 487.117 499.153 486.499 500.57C485.216 503.52 484.003 506.142 482.93 508.377H485.426C486.347 506.317 487.361 503.976 488.422 501.389C489.064 499.809 489.728 498.111 490.393 496.367C491.058 496.508 496.492 497.608 499.022 497.035C501.319 496.519 504.094 495.208 505.12 492.938C506.123 490.713 505.225 487.963 502.812 487.143C499.465 486.019 494.369 489.824 492.492 492.376C492.375 492.528 491.361 494.284 490.743 495.407C491.011 494.693 491.279 494.003 491.536 493.265C492.072 491.802 492.562 490.327 493.087 488.747C493.32 487.974 493.553 487.19 493.786 486.406C494.031 485.633 494.206 484.779 494.416 483.948C494.871 482.028 495.244 480.061 495.57 478.083C496.841 478.551 501.401 480.143 503.756 479.968C506.1 479.804 509.05 478.938 510.403 476.842C511.732 474.794 511.254 471.937 509.004 470.767C505.867 469.14 500.246 472.137 498.019 474.372C497.879 474.513 496.457 476.292 495.699 477.287C495.885 476.093 496.084 474.899 496.223 473.682C496.655 470.17 496.993 466.6 497.331 463.041C497.436 461.953 497.553 460.864 497.669 459.775C498.124 459.951 503.488 461.953 506.135 461.765C508.479 461.601 511.429 460.735 512.782 458.64C514.111 456.591 513.633 453.735 511.382 452.565C508.246 450.937 502.625 453.934 500.398 456.158C500.235 456.322 498.182 458.897 497.693 459.576C497.949 457.188 498.217 454.8 498.579 452.471C499.08 449.252 499.745 446.115 500.608 443.118C500.818 443.2 506.415 445.319 509.12 445.131C511.464 444.968 514.414 444.101 515.767 442.006C517.096 439.958 516.618 437.101 514.367 435.931C511.231 434.304 505.61 437.3 503.383 439.536C503.208 439.712 501.016 442.474 500.643 443.001C500.689 442.825 500.724 442.638 500.783 442.463C501.751 439.279 503.092 436.317 504.468 433.613C505.272 432.033 506.123 430.581 506.986 429.177C507.989 429.68 512.595 431.927 515.044 432.021C517.399 432.115 520.419 431.576 521.993 429.645C523.544 427.748 523.381 424.857 521.259 423.452C518.32 421.498 512.408 423.85 509.948 425.817C509.82 425.922 508.572 427.163 507.686 428.076C508.082 427.444 508.49 426.789 508.875 426.203C510.356 423.967 511.837 422.024 513.166 420.304C513.936 419.332 514.647 418.466 515.312 417.67C516.548 417.646 521.539 417.494 523.719 416.464C525.853 415.457 528.278 413.584 528.803 411.138C529.305 408.738 527.835 406.257 525.317 405.976C521.807 405.601 517.644 410.424 516.361 413.315C516.256 413.561 514.962 417.67 515.032 417.67C515.032 417.67 515.09 417.67 515.102 417.67C514.437 418.431 513.738 419.25 512.98 420.151C511.604 421.849 510.076 423.768 508.549 425.981C507.01 428.182 505.412 430.616 503.943 433.332C502.474 436.059 501.074 438.998 500.013 442.217C500.001 442.252 499.99 442.287 499.978 442.334C500.001 441.292 499.955 438.389 499.92 438.167C499.512 435.029 496.9 429.212 493.425 428.568C490.93 428.1 488.807 430.066 488.609 432.513C488.411 435.006 490.207 437.499 491.956 439.068C493.938 440.847 499.43 442.556 499.862 442.697C498.882 445.764 498.124 449.006 497.541 452.319C497.203 454.215 496.923 456.135 496.667 458.055C496.655 457.153 496.632 456.357 496.62 456.24C496.212 453.103 493.6 447.285 490.125 446.641C487.63 446.173 485.507 448.14 485.309 450.586C485.111 453.08 486.907 455.573 488.656 457.141C490.44 458.733 495.092 460.302 496.328 460.688C496.235 461.426 496.142 462.163 496.049 462.912C495.629 466.471 495.221 470.018 494.719 473.483C494.544 474.7 494.323 475.906 494.101 477.1C494.09 476.304 494.066 475.637 494.055 475.531C493.646 472.394 491.034 466.576 487.56 465.932C485.064 465.464 482.942 467.431 482.744 469.877C482.546 472.371 484.341 474.864 486.09 476.432C487.793 477.954 492.072 479.429 493.542 479.909C493.285 481.126 493.028 482.356 492.725 483.526C492.504 484.322 492.34 485.106 492.061 485.891C491.804 486.675 491.559 487.448 491.314 488.22C490.79 489.683 490.242 491.193 489.693 492.61C489.32 493.593 488.936 494.53 488.562 495.466C488.749 494.249 489.075 491.861 489.087 491.662C489.134 489.566 488.388 486.148 486.918 483.749C486.93 483.444 486.907 483.128 486.86 482.824C486.475 480.412 484.213 478.61 481.753 479.265C478.348 480.178 476.179 486.183 476.016 489.344C476.004 489.531 476.132 491.568 476.226 492.844C476.051 492.095 475.899 491.369 475.712 490.608C475.351 489.098 474.955 487.6 474.523 485.984C474.29 485.212 474.057 484.427 473.812 483.643C473.59 482.859 473.264 482.051 472.984 481.255C472.308 479.406 471.538 477.556 470.722 475.718C472.039 475.402 476.715 474.208 478.581 472.757C480.447 471.317 482.429 468.964 482.406 466.471C482.382 464.024 480.423 461.906 477.893 462.175C474.383 462.561 471.34 468.168 470.71 471.259C470.675 471.458 470.465 473.728 470.372 474.981C469.87 473.881 469.381 472.78 468.833 471.68C467.27 468.508 465.579 465.347 463.912 462.198C463.399 461.227 462.897 460.267 462.396 459.295C462.862 459.19 468.448 457.891 470.547 456.275C472.412 454.835 474.395 452.483 474.371 449.989C474.36 447.543 472.389 445.424 469.859 445.705C466.349 446.091 463.306 451.698 462.676 454.789C462.629 455.023 462.338 458.289 462.303 459.131C461.195 457.001 460.122 454.859 459.131 452.705C457.778 449.743 456.601 446.758 455.691 443.774C455.913 443.727 461.743 442.392 463.889 440.742C465.754 439.302 467.737 436.949 467.713 434.456C467.702 432.009 465.731 429.891 463.201 430.16C459.691 430.546 456.647 436.153 456.018 439.243C455.971 439.489 455.656 443.013 455.645 443.645C455.586 443.469 455.516 443.294 455.458 443.118C454.513 439.922 454 436.715 453.674 433.695C453.476 431.939 453.382 430.242 453.336 428.591C454.443 428.451 459.516 427.772 461.615 426.496C463.632 425.267 465.848 423.148 466.104 420.666C466.349 418.232 464.635 415.914 462.093 415.902C458.56 415.891 454.922 421.135 453.954 424.143C453.895 424.307 453.546 426.028 453.312 427.292C453.301 426.543 453.277 425.782 453.277 425.068C453.277 422.387 453.452 419.941 453.616 417.763C453.721 416.534 453.837 415.422 453.965 414.381C454.992 413.678 459.061 410.787 460.32 408.715C461.545 406.702 462.548 403.787 461.638 401.457C460.74 399.175 458.152 397.911 455.889 399.081C452.753 400.708 451.936 407.041 452.45 410.155C452.496 410.424 453.674 414.556 453.732 414.521C453.732 414.521 453.779 414.486 453.791 414.474C453.651 415.469 453.522 416.546 453.394 417.717C453.184 419.882 452.951 422.34 452.893 425.033C452.823 427.713 452.823 430.64 453.103 433.718C453.371 436.797 453.814 440.028 454.7 443.305C454.712 443.34 454.723 443.376 454.735 443.411C454.175 442.533 452.543 440.145 452.403 439.969C450.339 437.581 444.963 434.175 441.71 435.556C439.366 436.551 438.69 439.36 439.856 441.514C441.162 443.727 444.031 444.804 446.363 445.155Z" fill="#39B4EF"/>
<path d="M506.859 428.509C506.918 428.544 507.99 424.377 508.025 424.108C508.457 420.971 507.466 414.673 504.282 413.128C501.997 412.016 499.432 413.35 498.604 415.656C497.752 418.009 498.837 420.889 500.108 422.867C501.612 425.197 506.848 428.509 506.859 428.509Z" fill="#39B4EF"/>
<path d="M395.243 183.485C395.243 183.485 395.605 170.269 403.196 166.524C410.787 162.766 411.218 175.151 411.218 175.151C411.218 175.151 428.593 164.077 432.359 172.47C436.125 180.863 430.866 184.925 430.866 184.925C430.866 184.925 446.293 184.387 447.354 192.873C448.416 201.36 440.463 205.515 440.463 205.515C440.463 205.515 450.001 213.323 446.655 216.928C443.308 220.534 435.985 220.791 435.985 220.791C435.985 220.791 440.137 229.173 432.907 232.134C425.677 235.096 417.375 229.582 417.375 229.582C417.375 229.582 418.669 233.41 413.224 232.439C407.79 231.467 402.298 228.95 398.928 220.932C395.535 212.902 391.185 190.239 395.243 183.485Z" fill="#002E47" stroke="#002E47" stroke-miterlimit="10" stroke-linecap="round" stroke-linejoin="round"/>
<path d="M315.1 438.728C315.1 438.728 310.774 455.304 310.833 457.141C310.891 458.991 309.41 463.147 310.669 464.329C311.94 465.511 317.596 469.421 318.214 469.608C318.832 469.795 320.651 469.116 321.245 468.683C321.84 468.25 322.213 467.208 322.19 466.6C322.167 465.979 320.441 463.381 320.219 462.772C319.998 462.163 323.403 454.25 324.697 450.305C325.991 446.361 326.773 439.559 326.773 439.559L315.1 438.728Z" fill="#BDBDBD" stroke="#002E47" stroke-miterlimit="10"/>
<path d="M319.79 450.27C319.79 450.27 317.329 456.1 317.166 457.13C317.003 458.16 313.621 460.946 314.111 463.193C314.601 465.429 319.486 464.856 321.912 458.195" fill="#BDBDBD"/>
<path d="M319.79 450.27C319.79 450.27 317.329 456.1 317.166 457.13C317.003 458.16 313.621 460.946 314.111 463.193C314.601 465.429 319.486 464.856 321.912 458.195" stroke="#002E47" stroke-miterlimit="10"/>
<path d="M330.806 348.688C330.806 348.688 328.742 382.494 327.961 385.479C327.18 388.464 317.804 415.727 315.74 424.084C313.677 432.442 313.047 439.864 313.047 439.864L325.64 442.521L332.695 411.36C332.695 411.36 341.93 383.009 340.088 369.676C338.245 356.332 330.806 348.688 330.806 348.688Z" fill="#39B4EF" stroke="#002E47" stroke-miterlimit="10"/>
<path d="M396.352 508.389C396.492 501.038 396.807 491.123 397.46 485.446C398.591 475.636 402.8 469.573 407.092 457.294C411.383 445.014 411.709 429.013 411.709 429.013L334.866 431.705C334.866 431.705 325.992 464.867 320.651 489.32C318.856 497.514 318.203 503.73 318.109 508.389" fill="#39B4EF"/>
<path d="M396.352 508.389C396.492 501.038 396.807 491.123 397.46 485.446C398.591 475.636 402.8 469.573 407.092 457.294C411.383 445.014 411.709 429.013 411.709 429.013L334.866 431.705C334.866 431.705 325.992 464.867 320.651 489.32C318.856 497.514 318.203 503.73 318.109 508.389" stroke="#002E47" stroke-miterlimit="10"/>
<path d="M345.035 444.195L408.97 446.009L410.323 441.034L345.035 444.195Z" fill="#002E47" stroke="#002E47" stroke-miterlimit="10" stroke-linecap="round" stroke-linejoin="round"/>
<path d="M341.802 507.218C341.802 507.218 340.543 467.08 340.508 445.307L341.802 507.218Z" fill="white"/>
<path d="M341.802 507.218C341.802 507.218 340.543 467.08 340.508 445.307" stroke="#002E47" stroke-miterlimit="10"/>
<path d="M390.812 263.775L400.14 270.072C400.14 270.072 411.16 279.987 413.911 288.146C416.663 296.293 414.658 345.012 411.917 360.768C409.177 376.524 416.022 396.073 418.459 407.123C420.896 418.173 422.016 438.74 422.016 438.74C422.016 438.74 423.741 441.151 393.797 442.205C363.852 443.258 342.968 444.804 340.52 445.307C338.071 445.81 336.019 445.88 336.019 445.88L334.829 435.205L331.844 443.961L325.641 442.533C325.641 442.533 329.489 423.441 330.468 415.984C331.436 408.528 337.546 383.173 337.628 373.691C337.709 364.21 329.78 348.817 328.229 339.394C326.678 329.971 329.803 313.782 337.593 301.549C345.382 289.317 350.559 284.611 365.73 272.121C380.877 259.619 390.812 263.775 390.812 263.775Z" fill="#39B4EF" stroke="#002E47" stroke-miterlimit="10"/>
<path d="M366.512 406.421L397.797 409.967L396.036 401.75L376.517 400.064" stroke="#002E47" stroke-miterlimit="10"/>
<path d="M355.574 399.608L353.988 404.993L361.836 405.882" stroke="#002E47" stroke-miterlimit="10"/>
<path d="M367.316 345.797C365.683 344.228 364.237 342.671 363.281 341.337" stroke="#002E47" stroke-miterlimit="10"/>
<path d="M378.196 355.021C378.196 355.021 374.896 352.516 371.281 349.402" stroke="#002E47" stroke-miterlimit="10"/>
<path d="M390.814 263.775C390.814 263.775 380.891 259.619 365.721 272.109C350.55 284.599 345.373 289.305 337.584 301.537C332.768 309.111 329.724 318.195 328.488 326.248C328.675 327.161 328.873 328.086 329.095 329.034C333.432 347.435 338.26 356.332 338.26 356.332C338.26 356.332 346.656 314.402 361.266 297.405C375.865 280.409 400.154 270.072 400.154 270.072L390.814 263.775Z" fill="#39B4EF" stroke="#002E47" stroke-miterlimit="10"/>
<path d="M354.352 181.987C354.352 181.987 343.402 192.253 342.586 200.341C341.77 208.43 340.919 215.407 339.554 218.017C338.19 220.628 331.31 222.337 333.642 226.281C335.963 230.226 338.155 230.156 338.155 230.156C338.155 230.156 341.677 247.609 344.312 250.079C346.947 252.549 356.381 251.121 356.381 251.121L359.284 272.285C359.284 272.285 339.718 289.715 335.905 314.004C332.092 338.282 336.453 352.153 336.453 352.153C336.453 352.153 339.006 313.899 347.822 299.559C356.637 285.231 377.113 271.664 380.133 269.218C383.153 266.771 390.803 263.786 390.803 263.786C390.803 263.786 387.165 255.546 386.675 251.893C386.185 248.253 386.36 242.751 387.036 241.265C387.713 239.778 399.956 235.318 404.574 221.248C409.192 207.178 402.417 190.567 395.245 183.497C388.074 176.415 363.517 172.88 354.352 181.987Z" fill="#BDBDBD" stroke="#002E47" stroke-miterlimit="10"/>
<path d="M404.582 221.236C409.2 207.166 402.425 190.555 395.254 183.485C388.082 176.415 363.525 172.88 354.36 181.987C354.36 181.987 353.777 182.537 352.867 183.473C354.756 182.97 358.511 182.303 363.513 183.122C370.848 184.328 370.685 190.193 368.691 195.753C366.697 201.313 368.189 202.355 371.932 205.152C375.675 207.95 371.851 213.206 374.474 215.313C377.098 217.42 379.255 205.995 385.016 214.213C390.776 222.43 386.893 226.234 383.325 228.552C379.757 230.87 376.865 231.713 376.865 231.713C376.865 231.713 382.275 238.069 387.592 240.691C390.123 238.76 400.431 233.878 404.582 221.236Z" fill="#002E47" stroke="#002E47" stroke-miterlimit="10" stroke-linecap="round" stroke-linejoin="round"/>
<path d="M344.09 233.235C344.09 233.235 351.728 232.602 355.249 229.184" stroke="#002E47" stroke-miterlimit="10"/>
<path d="M348.94 215.126C348.999 216.94 348.322 218.439 347.413 218.474C346.503 218.509 345.722 217.057 345.664 215.243C345.605 213.428 346.282 211.93 347.191 211.895C348.089 211.86 348.87 213.311 348.94 215.126Z" fill="#002E47"/>
<path d="M345.652 207.716C345.652 207.716 348.113 204.392 351.634 208.313" stroke="#002E47" stroke-miterlimit="10"/>
<path d="M356.379 251.109L365.486 247.668L359.142 259.104L356.379 251.109Z" fill="#002E47" stroke="#002E47" stroke-miterlimit="10"/>
<path d="M330.155 419.121L318.215 469.608L328.931 472.113L334.831 435.193L330.155 419.121Z" fill="white" stroke="#002E47" stroke-miterlimit="10"/>
<path d="M340.707 298.248C338.55 303.036 336.801 308.327 335.903 313.992C332.09 338.27 336.451 352.141 336.451 352.141C336.451 352.141 338.97 314.402 347.645 299.852C344.917 299.524 342.608 298.939 340.707 298.248Z" fill="white" stroke="#002E47" stroke-miterlimit="10"/>
<path d="M377.6 314.004L376.784 356.847L302.098 369.208L303.742 389.4C303.742 389.4 345.195 390.22 364.482 388.581C383.769 386.942 400.595 385.701 403.055 383.641C405.516 381.581 412.512 341.758 415.38 313.746C418.249 285.735 412.512 276.253 401.015 277.904" fill="#39B4EF"/>
<path d="M377.6 314.004L376.784 356.847L302.098 369.208L303.742 389.4C303.742 389.4 345.195 390.22 364.482 388.581C383.769 386.942 400.595 385.701 403.055 383.641C405.516 381.581 412.512 341.758 415.38 313.746C418.249 285.735 412.512 276.253 401.015 277.904" stroke="#002E47" stroke-miterlimit="10"/>
<path d="M257.416 367.394L251.445 385.608L257.322 388.792C257.322 388.792 264.727 394.551 268.785 397.665C272.843 400.778 275.944 400.778 278.101 399.819C280.247 398.859 290.042 384.952 291.231 382.319C292.421 379.685 286.695 371.772 280.958 368.412C275.221 365.053 270.452 365.053 267.106 366.012C263.771 366.984 257.416 367.394 257.416 367.394Z" fill="white" stroke="#002E47" stroke-miterlimit="10"/>
<path d="M302.097 369.208L292.664 368.389C292.664 368.389 286.099 366.738 283.638 366.738C281.178 366.738 277.89 369.208 276.246 370.449C274.601 371.69 256.551 391.461 256.551 391.461C256.551 391.461 258.195 394.762 260.655 393.931C263.116 393.111 267.628 391.051 267.628 391.051C267.628 391.051 262.708 395.991 265.168 398.461C267.628 400.931 271.733 400.931 271.733 400.931L274.601 399.28C274.601 399.28 276.654 400.931 278.706 401.34C280.758 401.75 284.046 400.931 286.915 399.28C289.784 397.63 297.06 389.038 297.06 389.038L303.368 386.591L302.097 369.208Z" fill="#BDBDBD" stroke="#002E47" stroke-miterlimit="10"/>
<path d="M260.668 368.178C260.668 368.178 272.608 361.225 277.867 363.145C283.126 365.064 290.041 376.805 288.14 378.491C286.228 380.165 283.126 379.451 281.459 377.777C279.791 376.103 276.923 374.417 276.923 374.417C276.923 374.417 272.142 377.297 266.65 377.297" fill="white"/>
<path d="M260.668 368.178C260.668 368.178 272.608 361.225 277.867 363.145C283.126 365.064 290.041 376.805 288.14 378.491C286.228 380.165 283.126 379.451 281.459 377.777C279.791 376.103 276.923 374.417 276.923 374.417C276.923 374.417 272.142 377.297 266.65 377.297" stroke="#002E47" stroke-miterlimit="10"/>
<path d="M296.278 395.394L292.489 393.357C291.206 392.666 290.728 391.074 291.404 389.787C292.092 388.499 293.678 388.019 294.961 388.698L298.75 390.735C300.033 391.426 300.511 393.018 299.835 394.305C299.147 395.593 297.549 396.073 296.278 395.394Z" fill="white" stroke="#002E47" stroke-miterlimit="10"/>
<path d="M292.931 399.467L289.141 397.431C287.858 396.74 287.38 395.148 288.057 393.86C288.745 392.573 290.33 392.093 291.613 392.772L295.403 394.809C296.685 395.499 297.164 397.091 296.487 398.379C295.799 399.666 294.213 400.158 292.931 399.467Z" fill="white" stroke="#002E47" stroke-miterlimit="10"/>
<path d="M289.107 403.061L285.317 401.024C284.034 400.334 283.556 398.742 284.232 397.454C284.92 396.166 286.506 395.686 287.789 396.365L291.579 398.402C292.861 399.093 293.339 400.685 292.663 401.972C291.987 403.26 290.389 403.752 289.107 403.061Z" fill="white" stroke="#002E47" stroke-miterlimit="10"/>
<path d="M281.062 403.237L280.071 402.698C278.788 402.008 278.31 400.416 278.986 399.128C279.674 397.84 281.26 397.36 282.543 398.039L283.534 398.578C284.817 399.268 285.295 400.86 284.618 402.148C283.93 403.447 282.345 403.927 281.062 403.237Z" fill="white" stroke="#002E47" stroke-miterlimit="10"/>
<path d="M257.414 367.394L207.297 346.124L209.151 379.439L250.534 388.967L257.414 367.394Z" fill="#002E47" stroke="#002E47" stroke-miterlimit="10" stroke-linecap="round" stroke-linejoin="round"/>
<path d="M250.533 388.967L257.413 367.394L250.405 364.28L250.277 364.994L243.852 387.34L250.533 388.967Z" fill="white" stroke="#002E47" stroke-miterlimit="10"/>
<path d="M179.184 234.089L192.034 240.082C192.034 240.082 197.421 255.405 195.625 255.85C193.829 256.295 180.361 245.49 180.361 245.49L179.184 234.089Z" fill="white" stroke="#002E47" stroke-miterlimit="10" stroke-linecap="round" stroke-linejoin="round"/>
<path d="M186.59 231.022L187.487 225.86C187.487 225.86 199.381 226.679 204.139 226.656C208.896 226.632 213.048 226 213.013 220.932C212.978 215.863 210.202 198.574 210.202 198.574C210.202 198.574 215.543 197.345 217.607 194.945C219.671 192.545 216.686 189.584 213.98 186.014C211.287 182.455 208.885 178.592 208.558 174.413C208.232 170.234 201.014 156.562 201.014 156.562C201.014 156.562 202.192 154.467 198.297 150.019C194.402 145.57 174.498 144.798 161.753 151.142C149.019 157.487 146.104 166.758 146.162 176.895C146.221 187.032 151.958 201.325 151.958 201.325C151.958 201.325 148.191 216.858 147.9 217.76C147.608 218.661 144.238 225.263 144.238 225.263C144.238 225.263 160.167 236.43 165.997 241.428C171.827 246.439 184.945 255.007 185.027 250.383C185.109 245.748 185.633 235.271 185.633 235.271L186.59 231.022Z" fill="white" stroke="#002E47" stroke-miterlimit="10" stroke-linecap="round" stroke-linejoin="round"/>
<path d="M204.16 182.607C204.242 184.34 203.834 185.756 203.262 185.779C202.691 185.803 202.166 184.422 202.085 182.701C202.003 180.968 202.411 179.552 202.982 179.529C203.554 179.505 204.079 180.875 204.16 182.607Z" fill="#002E47"/>
<path d="M195.801 176.883C195.801 176.883 198.448 172.388 205.304 175.034" stroke="#002E47" stroke-width="2" stroke-miterlimit="10" stroke-linecap="round" stroke-linejoin="round"/>
<path d="M213.011 220.932C212.976 215.863 210.201 198.574 210.201 198.574C210.201 198.574 206.925 196.806 200.686 198.34C194.459 199.873 192.734 210.022 191.556 211.228C190.378 212.433 182.601 205.316 179.604 200.564C176.607 195.811 174.473 187.465 174.147 182.701C173.82 177.925 185.096 175.478 186.857 170.984C188.617 166.5 180.257 161.771 183.219 158.774C186.169 155.778 192.127 156.925 195.101 157.51C198.074 158.084 201.036 156.574 201.036 156.574C201.036 156.574 202.214 154.478 198.319 150.03C194.424 145.582 174.52 144.81 161.775 151.154C149.041 157.499 146.126 166.769 146.184 176.907C146.231 185.124 150.009 196.057 151.443 199.92C152.586 200.33 154.452 200.927 155.245 200.716C156.434 200.412 157.297 196.83 157.868 193.248C158.44 189.666 167.034 185.44 167.034 185.44C167.034 185.44 168.584 196.174 168.596 198.258C168.608 200.341 167.488 210.795 173.167 215.828C178.846 220.862 187.498 225.883 187.498 225.883C187.498 225.883 199.392 226.703 204.149 226.679C208.907 226.656 213.046 226 213.011 220.932Z" fill="#002E47" stroke="#002E47" stroke-miterlimit="10" stroke-linecap="round" stroke-linejoin="round"/>
<path d="M168.867 192.861C168.867 192.861 166.406 178.557 162.243 179.177C158.092 179.798 155.748 185.182 157.871 192.03C159.993 198.878 164.144 198.258 166.523 197.649" fill="white"/>
<path d="M168.867 192.861C168.867 192.861 166.406 178.557 162.243 179.177C158.092 179.798 155.748 185.182 157.871 192.03C159.993 198.878 164.144 198.258 166.523 197.649" stroke="#002E47" stroke-miterlimit="10" stroke-linecap="round" stroke-linejoin="round"/>
<path d="M198.051 203.713C198.051 203.713 200.441 206.686 206.691 206.639" stroke="white" stroke-miterlimit="10" stroke-linecap="round" stroke-linejoin="round"/>
<path d="M131.28 508.389H194.236C194.457 505.065 196.894 492.282 196.894 483.901C196.894 474.208 203.529 411.77 203.529 411.77L121.637 410.693L124.319 448.912L131.28 508.389Z" fill="#002E47" stroke="#002E47" stroke-miterlimit="10" stroke-linecap="round" stroke-linejoin="round"/>
<path d="M139.526 227.452C139.526 227.452 125.16 245.924 121.125 256.283C117.091 266.643 113.942 268.445 114.84 281.509C115.738 294.572 122.023 346.838 122.023 346.838L109.453 414.872C109.453 414.872 129.649 422.984 155.687 422.984C181.726 422.984 192.943 420.737 194.739 419.835C196.535 418.934 212.241 414.884 212.241 414.884C212.241 414.884 212.241 337.837 207.309 311.253C202.377 284.669 196.091 264.395 193.841 259.444C191.602 254.492 184.419 238.268 184.419 238.268L139.526 227.452Z" fill="#002E47" stroke="#002E47" stroke-miterlimit="10" stroke-linecap="round" stroke-linejoin="round"/>
<path d="M193.84 259.444C191.602 254.492 184.419 238.268 184.419 238.268L139.537 227.452C139.537 227.452 136.505 231.362 132.832 236.582C142.615 242.295 166.834 256.377 168.269 256.74C170.064 257.184 179.043 256.283 179.043 256.283L175.008 261.235C175.008 261.235 185.783 269.791 189.374 273.397C191.263 275.293 196.744 280.303 201.525 284.623C198.248 271.7 195.24 262.557 193.84 259.444Z" fill="#002E47" stroke="#002E47" stroke-miterlimit="10" stroke-linecap="round" stroke-linejoin="round"/>
<path d="M173.191 248.183L188.455 260.345L201.025 282.878L192.944 249.985L176.34 240.527L173.191 248.183Z" fill="white" stroke="#002E47" stroke-miterlimit="10" stroke-linecap="round" stroke-linejoin="round"/>
<path d="M142.673 218.895L189.666 240.153V256.822L135.934 229.255L142.673 218.895Z" fill="white" stroke="#002E47" stroke-miterlimit="10" stroke-linecap="round" stroke-linejoin="round"/>
<path d="M204.814 389.412H123.609V455.374H204.814V389.412Z" fill="#39B4EF" stroke="#002E47" stroke-miterlimit="10"/>
<path d="M169.192 420.854C169.192 420.854 175.232 428.755 177.588 429.551C179.955 430.347 181.261 432.185 182.31 433.765C183.36 435.345 184.677 447.203 185.459 447.999C186.252 448.795 186.252 450.633 183.36 449.322C180.468 447.999 178.637 443.528 178.637 443.528L179.687 454.075C179.687 454.075 182.054 454.601 180.211 455.924C178.369 457.247 176.795 459.085 175.221 458.3C173.646 457.504 171.279 455.397 171.279 455.397C171.279 455.397 168.388 456.451 165.507 455.924C162.616 455.397 163.14 456.451 160.517 454.601C157.893 452.752 157.893 454.871 156.575 451.441C155.258 448.011 152.109 436.153 151.585 432.735C151.06 429.305 150.535 424.564 150.535 424.564L169.192 420.854Z" fill="white" stroke="#002E47" stroke-miterlimit="10" stroke-linecap="round" stroke-linejoin="round"/>
<path d="M170.255 415.844L172.085 424.014L149.51 427.175L148.461 419.004L170.255 415.844Z" fill="white" stroke="#002E47" stroke-miterlimit="10" stroke-linecap="round" stroke-linejoin="round"/>
<path d="M141.323 243.676C141.323 243.676 125.616 248.628 125.162 255.838C124.719 263.049 119.506 350.491 121.757 356.355C123.996 362.208 146.092 421.521 146.092 421.521L171.676 418.372C171.676 418.372 158.558 349.601 158.115 348.243C157.671 346.897 166.907 270.26 166.907 270.26" fill="#002E47"/>
<path d="M141.323 243.676C141.323 243.676 125.616 248.628 125.162 255.838C124.719 263.049 119.506 350.491 121.757 356.355C123.996 362.208 146.092 421.521 146.092 421.521L171.676 418.372C171.676 418.372 158.558 349.601 158.115 348.243C157.671 346.897 166.907 270.26 166.907 270.26" stroke="#002E47" stroke-miterlimit="10" stroke-linecap="round" stroke-linejoin="round"/>
<path d="M163.897 292.266L158.113 348.243L163.629 383.021" stroke="#878787" stroke-miterlimit="10" stroke-linecap="round" stroke-linejoin="round"/>
<path d="M164.784 283.698L164.48 286.671" stroke="#878787" stroke-miterlimit="10" stroke-linecap="round" stroke-linejoin="round"/>
<path d="M123.366 275.036L121.641 327.594" stroke="#878787" stroke-miterlimit="10" stroke-linecap="round" stroke-linejoin="round"/>
<path d="M182.041 373.844L199.299 373.211L200.85 379.439L172.258 381.288" stroke="#878787" stroke-miterlimit="10" stroke-linecap="round" stroke-linejoin="round"/>
<path d="M167.664 374.359L176.853 374.031" stroke="#878787" stroke-miterlimit="10" stroke-linecap="round" stroke-linejoin="round"/>
<path d="M136.602 238.081L168.26 256.74L179.035 256.295L174.988 261.246L195.849 277.927" stroke="#878787" stroke-miterlimit="10" stroke-linecap="round" stroke-linejoin="round"/>
<path d="M1.28906 508.389H533.584" stroke="#002E47" stroke-miterlimit="10"/>
<path d="M151.723 25.9849V105.104" stroke="#002E47" stroke-miterlimit="10"/>
<path d="M272.781 25.9849V105.104" stroke="#002E47" stroke-miterlimit="10"/>
<path d="M393.844 25.9849V105.104" stroke="#002E47" stroke-miterlimit="10"/>
</svg>
