<svg width="266" height="266" viewBox="0 0 266 266" fill="none" xmlns="http://www.w3.org/2000/svg">
<path d="M114.695 4.83057C114.695 4.83057 158.947 -0.79799 194.176 31.255C229.4 63.308 239.651 113.896 249.041 154.674C258.431 195.452 240.162 230.856 205.646 241.278C171.13 251.7 155.734 221.855 112.838 211.193C69.9433 200.532 56.9891 204.166 26.5002 171.953C-3.99405 139.746 2.11863 80.7417 39.6832 44.3103C77.2477 7.87361 114.695 4.83057 114.695 4.83057Z" fill="#39B4EF"/>
<path opacity="0.75" d="M114.695 4.83057C114.695 4.83057 158.947 -0.79799 194.176 31.255C229.4 63.308 239.651 113.896 249.041 154.674C258.431 195.452 240.162 230.856 205.646 241.278C171.13 251.7 155.734 221.855 112.838 211.193C69.9433 200.532 56.9891 204.166 26.5002 171.953C-3.99405 139.746 2.11863 80.7417 39.6832 44.3103C77.2477 7.87361 114.695 4.83057 114.695 4.83057Z" fill="white"/>
<path d="M244.19 148.263L31.1875 139.129V23.0462L244.19 13.9117V148.263Z" fill="#002E47"/>
<path d="M238.935 141.938L35.1367 133.995V28.1799L238.935 20.2372V141.938Z" stroke="#39B4EF" stroke-miterlimit="10"/>
<path d="M101.335 40.1819L44.9479 41.8045C43.6126 41.8417 42.5273 40.6554 42.5273 39.1498C42.5273 37.6442 43.6073 36.3887 44.9479 36.3462L101.335 34.5001C102.787 34.4522 103.968 35.6865 103.968 37.2612C103.968 38.8306 102.787 40.1393 101.335 40.1819Z" fill="#B3C7EB"/>
<path d="M67.4675 38.3837C67.4675 36.8515 66.345 35.6492 64.9671 35.6918L44.9479 36.3461C43.6126 36.3887 42.5273 37.6442 42.5273 39.1498C42.5273 40.6553 43.6073 41.8417 44.9479 41.8045L64.9671 41.2299C66.3503 41.1873 67.4675 39.9159 67.4675 38.3837Z" fill="#39B4EF"/>
<path d="M101.335 51.2847L44.9479 52.4605C43.6126 52.4871 42.5273 51.2901 42.5273 49.7898C42.5273 48.2843 43.6073 47.0394 44.9479 47.0075L101.335 45.603C102.787 45.5657 103.968 46.8106 103.968 48.3853C103.968 49.9547 102.787 51.2528 101.335 51.2847Z" fill="#B3C7EB"/>
<path d="M81.5683 48.8961C81.5683 47.3479 80.4245 46.1243 79.0147 46.1563L44.9401 47.0074C43.6048 47.0394 42.5195 48.2896 42.5195 49.7898C42.5195 51.2954 43.5995 52.4924 44.9401 52.4604L79.0147 51.7476C80.4299 51.721 81.5683 50.4442 81.5683 48.8961Z" fill="#39B4EF"/>
<path d="M101.335 62.3822L44.9479 63.1217C43.6126 63.1376 42.5273 61.9353 42.5273 60.4298C42.5273 58.9242 43.6073 57.69 44.9479 57.6634L101.335 56.6951C102.787 56.6685 103.968 57.924 103.968 59.4988C103.968 61.0735 102.787 62.3662 101.335 62.3822Z" fill="#B3C7EB"/>
<path d="M91.5072 59.6903C91.5072 58.1315 90.3474 56.8867 88.9216 56.9133L44.9518 57.6687C43.6165 57.69 42.5312 58.9295 42.5312 60.4351C42.5312 61.9407 43.6112 63.143 44.9518 63.127L88.9216 62.5471C90.3474 62.5259 91.5072 61.2491 91.5072 59.6903Z" fill="#39B4EF"/>
<path d="M101.335 73.485L44.9479 73.7882C43.6126 73.7936 42.5273 72.5806 42.5273 71.0751C42.5273 69.5695 43.6073 68.3406 44.9479 68.3299L101.335 67.8032C102.787 67.7873 103.968 69.0535 103.968 70.6229C103.968 72.1976 102.787 73.4744 101.335 73.485Z" fill="#39B4EF"/>
<path d="M115.499 39.7723L107.774 39.9957C106.311 40.0383 105.125 38.7987 105.125 37.224C105.125 35.6493 106.311 34.3352 107.774 34.2873L115.499 34.032C116.983 33.9841 118.186 35.229 118.186 36.8197C118.186 38.4103 116.983 39.7297 115.499 39.7723Z" fill="#39B4EF"/>
<path d="M115.499 50.9868L107.774 51.1464C106.311 51.1783 105.125 49.9281 105.125 48.3534C105.125 46.7787 106.311 45.4753 107.774 45.4381L115.499 45.2465C116.983 45.2093 118.186 46.4648 118.186 48.0555C118.186 49.6409 116.983 50.9549 115.499 50.9868Z" fill="#39B4EF"/>
<path d="M115.499 62.196L107.774 62.2971C106.311 62.3184 105.125 61.0575 105.125 59.4828C105.125 57.9081 106.311 56.6153 107.774 56.5887L115.499 56.4557C116.983 56.4291 118.186 57.6953 118.186 59.286C118.186 60.8767 116.983 62.1801 115.499 62.196Z" fill="#39B4EF"/>
<path d="M115.499 73.4106L107.774 73.4532C106.311 73.4585 105.125 72.1923 105.125 70.6176C105.125 69.0429 106.311 67.7554 107.774 67.7448L115.499 67.6703C116.983 67.6544 118.186 68.9312 118.186 70.5218C118.186 72.1072 116.983 73.4 115.499 73.4106Z" fill="#39B4EF"/>
<path d="M45.3867 33.4839L54.4626 33.17" stroke="white" stroke-miterlimit="10"/>
<path d="M45.3867 44.6666L54.4626 44.4272" stroke="white" stroke-miterlimit="10"/>
<path d="M45.3867 55.28L54.4626 55.1097" stroke="white" stroke-miterlimit="10"/>
<path d="M45.3867 66.4627L54.4626 66.3669" stroke="white" stroke-miterlimit="10"/>
<path d="M213.281 33.7872L220.889 33.5531" stroke="white" stroke-miterlimit="10"/>
<path d="M208.859 40.3414L220.888 40.0222" stroke="white" stroke-miterlimit="10"/>
<path d="M213.281 46.6562L220.889 46.486" stroke="white" stroke-miterlimit="10"/>
<path d="M216.426 53.0349L220.889 52.9551" stroke="white" stroke-miterlimit="10"/>
<path d="M213.281 59.5307L220.889 59.4243" stroke="white" stroke-miterlimit="10"/>
<path d="M211.25 65.9838L220.89 65.8881" stroke="white" stroke-miterlimit="10"/>
<path d="M213.281 72.3997L220.889 72.3572" stroke="white" stroke-miterlimit="10"/>
<path d="M209.594 78.8423L220.888 78.8263" stroke="white" stroke-miterlimit="10"/>
<path d="M213.281 85.2688L220.889 85.2901" stroke="white" stroke-miterlimit="10"/>
<path d="M222.883 33.4893C223.649 33.468 224.42 33.4414 225.192 33.4202" stroke="white" stroke-miterlimit="10"/>
<path d="M222.883 39.9691C223.649 39.9478 224.42 39.9266 225.192 39.9053" stroke="white" stroke-miterlimit="10"/>
<path d="M222.883 46.4436C223.649 46.4276 224.42 46.4117 225.192 46.3904" stroke="white" stroke-miterlimit="10"/>
<path d="M222.945 52.9179C223.695 52.902 224.446 52.8913 225.196 52.8754" stroke="white" stroke-miterlimit="10"/>
<path d="M222.883 59.3924C223.649 59.3818 224.42 59.3711 225.192 59.3605" stroke="white" stroke-miterlimit="10"/>
<path d="M222.93 65.8721C223.68 65.8668 224.435 65.8562 225.191 65.8508" stroke="white" stroke-miterlimit="10"/>
<path d="M222.883 72.3466C223.649 72.3413 224.42 72.3359 225.192 72.3359" stroke="white" stroke-miterlimit="10"/>
<path d="M222.867 78.821C223.644 78.821 224.415 78.821 225.192 78.8157" stroke="white" stroke-miterlimit="10"/>
<path d="M222.883 85.2955C223.649 85.2955 224.42 85.3008 225.192 85.3008" stroke="white" stroke-miterlimit="10"/>
<path d="M227.445 33.351C228.759 33.3084 230.079 33.2712 231.398 33.2286" stroke="white" stroke-miterlimit="10"/>
<path d="M227.445 39.8468C228.759 39.8095 230.079 39.7776 231.398 39.7404" stroke="white" stroke-miterlimit="10"/>
<path d="M227.445 46.3424C228.759 46.3105 230.079 46.2839 231.398 46.252" stroke="white" stroke-miterlimit="10"/>
<path d="M227.547 52.8328C228.829 52.8116 230.111 52.785 231.399 52.7637" stroke="white" stroke-miterlimit="10"/>
<path d="M227.445 59.3286C228.759 59.3126 230.079 59.2914 231.398 59.2754" stroke="white" stroke-miterlimit="10"/>
<path d="M227.531 65.8243C228.819 65.8137 230.106 65.7977 231.399 65.7871" stroke="white" stroke-miterlimit="10"/>
<path d="M227.445 72.32C228.759 72.3147 230.079 72.304 231.398 72.2987" stroke="white" stroke-miterlimit="10"/>
<path d="M227.414 78.8157C228.739 78.8157 230.069 78.8104 231.399 78.8104" stroke="white" stroke-miterlimit="10"/>
<path d="M227.445 85.3114C228.759 85.3167 230.079 85.3167 231.398 85.322" stroke="white" stroke-miterlimit="10"/>
<path d="M126.133 80.1085L203.496 80.0553" stroke="#E2EDFF" stroke-miterlimit="10"/>
<path d="M126.133 75.1875L203.496 74.8683" stroke="#E2EDFF" stroke-miterlimit="10"/>
<path d="M126.133 70.2612L203.496 69.6813" stroke="#E2EDFF" stroke-miterlimit="10"/>
<path d="M203.765 90.2856V66.8776C203.765 66.8776 201.946 64.574 194.466 64.9996C187.055 65.4199 185.278 71.9688 177.458 75.7726C169.717 79.5392 165.999 73.4371 159.599 73.4744C153.252 73.5063 150.102 80.5712 145.522 83.2472C140.968 85.9072 136.919 82.9014 131.472 83.5558C126.067 84.2048 124.896 89.1524 124.896 89.1524L124.816 89.8121L203.765 90.2856Z" fill="#39B4EF"/>
<path d="M203.767 90.2856V77.4325C201.208 77.2942 195.893 77.7198 190.254 82.4173C184.652 87.0883 174.554 84.6411 171.602 83.5558C166.894 81.8321 161.504 81.747 156.126 85.1518C150.79 88.53 146.396 88.2214 141.421 88.2002C137.905 88.1842 133.83 89.2429 131.766 89.8547L203.767 90.2856Z" fill="#B3C7EB"/>
<path d="M144.585 126.754L130.822 126.323C129.535 126.281 128.492 125.148 128.492 123.786C128.492 122.424 129.535 121.349 130.822 121.386L144.585 121.769C145.899 121.807 146.963 122.956 146.963 124.334C146.969 125.706 145.899 126.791 144.585 126.754Z" fill="#B3C7EB"/>
<path d="M172.381 127.616L158.091 127.169C156.756 127.127 155.676 125.967 155.676 124.584C155.676 123.195 156.756 122.099 158.091 122.136L172.381 122.53C173.742 122.567 174.854 123.738 174.854 125.142C174.854 126.557 173.742 127.659 172.381 127.616Z" fill="#B3C7EB"/>
<path d="M200.619 128.499L185.787 128.036C184.398 127.994 183.281 126.813 183.281 125.398C183.281 123.983 184.404 122.871 185.787 122.908L200.619 123.318C202.034 123.355 203.183 124.552 203.183 125.983C203.183 127.414 202.034 128.542 200.619 128.499Z" fill="#B3C7EB"/>
<path d="M42.4297 113.401L118.729 115.205" stroke="#E2EDFF" stroke-miterlimit="10"/>
<path d="M42.4297 109.353L118.729 110.933" stroke="#E2EDFF" stroke-miterlimit="10"/>
<path d="M42.4297 105.299L118.729 106.655" stroke="#E2EDFF" stroke-miterlimit="10"/>
<path d="M42.4297 101.25L118.729 102.378" stroke="#E2EDFF" stroke-miterlimit="10"/>
<path d="M42.4297 97.2017L118.729 98.1061" stroke="#E2EDFF" stroke-miterlimit="10"/>
<path d="M42.4297 93.1532L118.729 93.8288" stroke="#E2EDFF" stroke-miterlimit="10"/>
<path d="M42.4297 89.1046L118.729 89.5515" stroke="#E2EDFF" stroke-miterlimit="10"/>
<path d="M42.4297 85.0562L118.729 85.2796" stroke="#E2EDFF" stroke-miterlimit="10"/>
<path d="M51.6339 117.998L44.3242 117.801V101.745L51.6339 101.857V117.998Z" fill="#B3C7EB"/>
<path d="M62.0034 118.274L54.582 118.077V97.3666L62.0034 97.457V118.274Z" fill="#39B4EF"/>
<path d="M72.5292 118.556L64.9961 118.354V93.9352L72.5292 94.0097V118.556Z" fill="#B3C7EB"/>
<path d="M83.2205 118.843L75.5703 118.641V83.8059L83.2205 83.8219V118.843Z" fill="#39B4EF"/>
<path d="M94.0719 119.136L86.3047 118.929V94.1373L94.0719 94.2065V119.136Z" fill="#B3C7EB"/>
<path d="M105.093 119.434L97.2031 119.221V102.027L105.093 102.144V119.434Z" fill="#39B4EF"/>
<path d="M116.295 119.732L108.277 119.519V108.996L116.295 109.15V119.732Z" fill="#B3C7EB"/>
<path d="M44.6719 121.854L50.6196 122.03" stroke="white" stroke-miterlimit="10" stroke-linecap="round" stroke-linejoin="round"/>
<path d="M55 122.163L61.0382 122.344" stroke="white" stroke-miterlimit="10" stroke-linecap="round" stroke-linejoin="round"/>
<path d="M65.4883 122.477L71.6222 122.658" stroke="white" stroke-miterlimit="10" stroke-linecap="round" stroke-linejoin="round"/>
<path d="M76.1367 122.791L82.3611 122.977" stroke="white" stroke-miterlimit="10" stroke-linecap="round" stroke-linejoin="round"/>
<path d="M86.9531 123.115L93.2733 123.302" stroke="white" stroke-miterlimit="10" stroke-linecap="round" stroke-linejoin="round"/>
<path d="M97.9336 123.445L104.355 123.637" stroke="white" stroke-miterlimit="10" stroke-linecap="round" stroke-linejoin="round"/>
<path d="M109.09 123.775L115.612 123.972" stroke="white" stroke-miterlimit="10" stroke-linecap="round" stroke-linejoin="round"/>
<path d="M209.809 96.3185V92.4988L220.188 92.5786V96.4196L209.809 96.3185Z" fill="#39B4EF"/>
<path d="M209.809 101.66V97.8453L223.119 97.989V101.841L209.809 101.66Z" fill="#B3C7EB"/>
<path d="M209.809 107.001V103.187L225.412 103.41V107.267L209.809 107.001Z" fill="#39B4EF"/>
<path d="M209.809 112.348V108.528L231.993 108.927V112.8L209.809 112.348Z" fill="#B3C7EB"/>
<path d="M209.809 117.689V113.875L225.412 114.204V118.061L209.809 117.689Z" fill="#39B4EF"/>
<path d="M209.809 123.03V119.216L220.512 119.482V123.323L209.809 123.03Z" fill="#B3C7EB"/>
<path d="M209.809 128.377V124.557L216.288 124.743V128.574L209.809 128.377Z" fill="#39B4EF"/>
<path d="M148.558 105.948C148.558 112.438 143.547 117.572 137.413 117.418C131.332 117.269 126.438 111.965 126.438 105.57C126.438 99.1754 131.332 94.0416 137.413 94.0948C143.547 94.1533 148.558 99.4626 148.558 105.948Z" fill="#B3C7EB"/>
<path d="M137.939 94.1332C137.764 94.1225 137.588 94.1012 137.413 94.1012C131.332 94.048 126.438 99.1818 126.438 105.576C126.438 111.971 131.332 117.27 137.413 117.424C137.588 117.429 137.764 117.413 137.939 117.408V94.1332Z" fill="#39B4EF"/>
<path d="M145.09 105.889C145.09 110.358 141.643 113.906 137.413 113.811C133.211 113.715 129.816 110.055 129.816 105.634C129.816 101.213 133.205 97.6645 137.413 97.7124C141.643 97.7603 145.09 101.42 145.09 105.889Z" fill="#002E47"/>
<path d="M176.068 106.416C176.068 113.023 170.87 118.253 164.502 118.099C158.192 117.939 153.117 112.539 153.117 106.028C153.117 99.5212 158.192 94.2863 164.502 94.3448C170.87 94.398 176.068 99.8032 176.068 106.416Z" fill="#39B4EF"/>
<path d="M172.472 106.352C172.472 110.906 168.897 114.518 164.508 114.417C160.145 114.321 156.629 110.587 156.629 106.086C156.629 101.58 160.145 97.9678 164.508 98.021C168.892 98.0688 172.472 101.798 172.472 106.352Z" fill="#002E47"/>
<path d="M204.625 106.895C204.625 113.63 199.225 118.955 192.618 118.79C186.069 118.625 180.797 113.119 180.797 106.49C180.797 99.8617 186.064 94.5311 192.618 94.5896C199.225 94.6534 204.625 100.16 204.625 106.895Z" fill="#B3C7EB"/>
<path d="M193.187 94.628C192.996 94.6173 192.809 94.5961 192.618 94.5961C186.069 94.5375 180.797 99.8682 180.797 106.497C180.797 113.126 186.064 118.632 192.618 118.797C192.809 118.802 192.996 118.786 193.187 118.781V94.628Z" fill="#39B4EF"/>
<path d="M200.892 106.836C200.892 111.475 197.179 115.151 192.62 115.05C188.092 114.949 184.438 111.145 184.438 106.554C184.438 101.963 188.087 98.2869 192.62 98.3348C197.179 98.388 200.892 102.192 200.892 106.836Z" fill="#002E47"/>
<path d="M135.051 106.304L140.105 106.395" stroke="white" stroke-miterlimit="10"/>
<path d="M162.16 106.772L167.406 106.863" stroke="white" stroke-miterlimit="10"/>
<path d="M189.789 107.251L195.231 107.347" stroke="white" stroke-miterlimit="10"/>
<path d="M162.396 44.3581L162.433 43.9537L162.316 44.0708L162.396 44.3581Z" fill="#B3C7EB"/>
<path d="M146.702 50.3217L146.973 50.3643L147.596 50.1728L146.702 49.8855L146.824 50.1781L146.457 50.2632L146.702 50.3217Z" fill="#B3C7EB"/>
<path d="M153.755 55.2693L152.382 54.7214L152.138 54.865L152.175 54.6575L151.733 54.3596L151.228 54.5724L151.393 54.3224L151.015 54.216L150.893 54.3862L151.132 53.9393L150.845 53.3009L150.52 53.019L149.791 52.9232L149.775 52.9285L149.254 52.4019L148.983 52.3753L149.031 52.1997L148.754 52.088L148.781 51.9709L148.621 51.9231L148.259 52.0773L147.663 51.9231L147.36 51.6411L147.307 51.7794L147.052 51.9497L147.115 52.2635L146.919 52.1891L147.004 51.9071L146.977 51.7581L147.025 51.7156L147.073 51.5826L146.53 51.8805L146.445 51.8699L146.02 52.5136L145.977 52.5242L145.86 52.3593L145.599 52.221L145.333 52.338L145.035 52.3327L144.732 51.9284L144.844 51.0399L144.636 50.875L143.892 50.9069H143.886L143.812 50.8591L143.918 50.3909L143.961 50.3643L144.179 49.6514L143.727 49.6301L143.312 50.2739L142.737 50.3696L142.53 50.2579L142.226 49.7685L142.237 48.6672L142.184 48.3906L142.232 48.1831L142.865 47.683L143.482 47.8267L143.562 47.7469L143.727 47.8745L143.647 47.6511L143.939 47.5181L144.014 47.5713L144.264 47.5341L144.44 47.6724L144.567 47.6937L144.743 47.6245L145.211 48.7151L145.349 48.7417L145.434 48.4863L145.174 47.4383L146.02 46.486L146.036 46.3424L146.083 46.2626L146.211 46.2679L146.259 46.1402L146.137 45.9221L146.131 45.8157L146.009 45.6401L146.083 45.5603L146.11 45.2784H146.174L146.206 45.7412L146.291 45.6774L146.328 45.305L146.461 45.2943L146.562 45.0283L146.94 44.8741H146.653L146.956 44.757L147.046 44.6666L147.206 44.6772L147.158 44.5123L147.302 44.1665L147.546 43.9271L147.78 43.9324L148.334 43.5228L148.344 43.6132L148.515 43.6877L148.132 43.8845L148.11 44.1239L148.355 44.0654L148.536 43.8845L148.967 43.7409L149.004 43.6292L149.254 43.5175L149.185 43.4323L149.18 43.2834L148.876 43.5919L148.547 43.5334L148.344 43.3472L148.318 43.1291L148.233 43.0599L148.217 42.9748L148.398 42.6929L147.589 42.8684L147.185 43.2781L147.653 42.6609L147.85 42.5918L147.988 42.4003L149.158 42.3045L150.015 41.7778L149.999 41.6874L149.946 41.6289L150.057 41.4959L149.956 41.3309L149.754 41.3629L149.744 41.1926L149.275 41.3788L149.228 41.2937L149.712 41.0649L148.802 40.4904L148.823 40.4319L148.972 40.3308L148.387 39.2615L148.217 39.4849L148.153 39.7349L148.089 39.8201L147.977 39.8413L147.791 39.969L147.483 39.703L147.387 39.3147L147.451 39.1338L147.025 39.0008L146.637 38.6497L146.45 38.7241L145.881 38.6497L145.801 38.8093L145.924 38.9529L145.823 39.1604L145.956 39.4689L145.764 39.9318L146.046 40.1818L146.089 40.65L145.823 40.9585L145.562 41.0756L145.716 41.7512L145.674 41.9321L145.7 42.0385L145.583 42.0279L145.482 42.1662L145.323 42.1023L144.998 41.6289L145.009 41.1288L144.908 41.0011L143.36 40.3946L143.083 40.4957L143.11 40.3893L142.891 39.9424L142.684 39.8892L142.801 39.1285L143.429 38.4528L142.87 38.2028L143.514 38.3092L143.562 38.123L143.838 38.1655L144.104 37.8463L143.636 37.6335L143.647 37.5165L144.019 37.7133L144.301 37.4739L144.195 37.3516L144.338 37.2771L144.455 37.3729L144.652 37.3409L144.551 37.192L144.583 37.1335L144.711 37.2558H144.87L145.147 37.0217L144.993 36.644L144.998 36.5536L145.184 36.4738L145.073 36.2557L144.429 36.0641L144.445 36.2663L144.503 36.3674L144.471 36.4631L144.354 36.5642L144.264 36.7823L144.179 36.6493L144.152 36.8143L144.221 36.9473L144.088 37.0537L143.86 36.7451L143.939 36.6493L143.934 36.5057L143.812 36.3621L143.642 36.3089L143.487 36.6387L143.423 36.3833L143.493 36.2078L143.306 36.128L143.168 36.1759L143.179 35.9897L143.285 35.9418L143.003 35.6971L143.014 35.5055L142.774 35.3247L142.726 35.2289L142.865 35.1119L142.907 34.9044L143.195 34.9257L143.461 34.4947L142.961 34.3405L142.578 34.4203L142.625 34.5479L142.508 34.5373L142.609 35.2661L142.492 35.3938L142.551 35.5215L142.397 35.5055L142.407 36.0854L142.78 36.2237L142.716 36.5057L142.806 36.4259L142.886 36.5429L142.578 36.7664V36.9739L142.476 37.059L142.375 36.8887L142.402 36.7238L142.189 36.66L142.327 36.6334L142.429 36.5429L142.641 36.5163L142.54 36.3355L142.391 36.3248L142.546 36.2876L142.226 36.1705L141.822 36.3887L142.125 36.6121L141.966 36.7291L141.955 36.8675L140.934 36.8143L140.769 36.7238L140.673 36.5536L140.37 36.5749L140.098 36.7185L140.178 36.8036L140.598 36.644L140.295 36.8355L140.269 37.2931L140.152 37.2399L140.13 37.0643L138.864 36.9685L139.072 36.7983L139.002 36.6387L137.805 36.3195L137.178 36.4472L137.188 36.3089L137.125 36.1439L136.874 36.4525L136.598 36.0375L136.486 36.0801L136.284 36.3461L135.523 36.7398L135.566 36.6227L136.209 36.2078L136.05 36.1865L135.427 36.4897L135.289 36.4153L135.039 36.6334L135.114 36.7557L131.991 36.1705L131.932 36.0641L131.618 36.0801L131.528 36.0003L131.294 36.0641L131.368 35.9684L131.225 35.8939L130.576 36.1812L130.618 36.2929L130.219 36.3408L130.006 36.5536L129.932 36.7823L129.469 36.9047L129.421 37.0377L129.921 37.5378H130.23L130.288 37.7187L130.485 37.7612L129.879 37.8942V37.7506L129.65 37.7665L129.549 37.8942L129.389 37.9155L129.145 38.0857L129.405 38.1975L129.373 38.3039L129.512 38.4528L130.065 38.4581L130.389 38.3145L130.336 38.4635L130.357 38.7454L130.134 38.772L130.038 38.9476L129.81 38.8891L129.735 39.1072L129.554 39.2668L129.464 39.4583L129.629 39.5807L129.618 39.7828L129.847 40.0275L130.06 39.985L130.15 39.8945L130.209 40.3467L130.772 40.368L130.847 40.2563L131.044 40.2723L130.985 40.7138L130.453 41.2352L130.171 41.2777L130.038 41.5118L131.778 40.2403L131.634 40.1605L132.278 39.453L132.39 39.5009L132.395 39.5807L132.204 39.6285L132.129 39.8254L132.14 39.9797L132.076 40.0754L132.15 40.1446L132.512 39.9052L132.778 39.8839L132.783 39.7775L132.704 39.6551L132.762 39.5487L133.14 39.6232L133.06 39.6977L133.081 39.7722L133.337 39.7137L133.379 39.7562L133.986 39.7988L134.151 39.9211L134.374 39.8307L134.337 39.9637L134.858 40.3521L134.965 40.2457L135.114 40.3308L135.13 40.1499L135.204 40.1659L135.215 40.4425L135.082 40.4159L134.954 40.4585L135.247 40.9266L135.257 40.5542L135.284 40.7032L135.396 40.6287L135.39 40.4265L135.502 40.5702L135.443 40.7191L135.342 40.7777L135.364 41.0011L135.438 40.9213L135.555 40.8894L135.709 41.0277L135.635 40.9266L135.64 40.8096L135.784 41.0171L135.688 41.1288L135.529 41.0437L135.555 41.4161L135.619 41.3416L135.72 41.3788L135.763 41.2618L135.858 41.299L135.943 41.2458L135.959 41.3948L136.039 41.4054V41.4267L136.119 41.5331L136.071 41.6235L136.103 41.7831L136.263 41.7672L136.305 41.8895L136.534 42.0651L136.577 42.4003L137.061 42.6184L137.13 42.7461L137.38 42.8259L137.539 43.0493L137.571 43.2727L137.513 43.4909L137.428 43.177L137.449 43.0865L136.906 42.6237L136.475 42.5386L137.061 43.0599L137.321 43.6717L137.348 45.6933L137.965 46.7201L138.348 46.8584L139.135 48.3001L138.987 48.3161L139.417 48.6459L139.471 48.9119L139.88 49.3961L139.971 49.3269L139.928 49.1567L139.774 49.0822L139.258 48.0501L139.279 47.9384L139.135 47.8692L138.971 47.3904L139.013 47.3479L139.3 47.4543L139.364 47.965L140.737 49.6887L140.726 49.8429L140.668 49.9174L140.817 50.1781L142.163 50.8857L142.875 50.9016L143.078 51.0772L143.28 51.274L143.908 51.4602L143.966 51.4283H144.019L144.067 51.5879L144.36 51.9177L144.344 52.0029L144.392 52.1891L144.498 52.1625L145.243 52.7051L145.386 52.6572L145.333 52.5402L145.434 52.4338L145.642 52.354L145.865 52.7849L145.892 53.5882L145.605 53.9659V53.9979L145.477 54.0777L145.227 54.7693L145.333 54.8757L145.424 54.8969L145.339 55.0299L145.323 55.0353L145.168 55.2268L145.238 55.5194L145.179 55.5779L146.169 57.4718L147.222 58.2698L146.45 64.1378L146.536 64.2814L146.621 63.8931L146.69 63.8133L146.738 63.8931L146.669 64.8028L146.573 64.8666L146.589 65.0103L146.466 64.9571L146.552 64.8134L146.45 64.6591L146.514 64.8294L146.307 64.973L146.317 65.0794L146.2 65.2071L146.44 65.2284L146.456 65.3401L146.397 65.4731L146.573 65.4891L146.578 65.5742L146.344 65.5529L146.222 65.6753L146.291 65.771L146.381 65.7019L146.461 65.7125L146.264 65.9359L146.349 66.0902L146.488 65.904L146.435 66.2179L146.323 66.3562L146.317 66.4839L146.514 66.452L146.552 66.5211L146.466 66.6222L146.578 66.6329L146.642 66.6063L146.764 66.6541L146.599 66.7339L146.546 66.8616L146.685 66.8084L146.972 66.8244L146.637 66.968L146.642 67.0531L147.025 66.9201L146.791 67.117L146.594 67.0904L146.615 67.234L146.897 67.3298L146.865 67.2606L147.248 66.8403L147.195 67.0691L147.366 67.0744L147.264 67.1702L147.275 67.3245L147.195 67.1489L147.158 67.2819L147.068 67.2447L146.924 67.4149L147.062 67.4468L147.158 67.6383L147.222 67.4734L147.355 67.6702L147.419 67.5958L147.616 67.7554L147.589 67.6117L148.169 67.5L147.584 67.0585L147.6 66.968L147.536 66.851L147.366 66.7659L147.387 66.7339L147.562 66.7605L147.44 66.3988L147.477 66.1966L148.046 65.505L148.078 65.2975L147.892 65.2443L147.765 64.9198L148.073 64.7177L148.302 64.0793L148.403 64.1484L148.477 63.9835L148.35 64.0207L148.249 63.9622L148.211 63.6005L148.509 63.6856L148.727 63.5579L148.738 63.2015L148.802 63.1163L149.286 63.0791L149.642 62.8769L149.813 62.595L149.462 61.9938L149.531 61.9779L149.845 62.0843L150.276 62.0364L150.855 60.9724L150.871 61.2384L151.302 60.584L151.419 59.7967L152.154 59.2593L152.632 59.1955L153.164 58.057L153.212 56.9664L153.244 56.9026L153.361 56.9451L153.957 56.0195L153.92 55.3917L153.755 55.2693Z" fill="#B3C7EB"/>
<path d="M146.492 49.8643L145.242 49.2312L144.582 49.5132L144.901 49.3376L145.795 49.726L145.885 49.8962L146.492 49.8643Z" fill="#B3C7EB"/>
<path d="M145.723 50.2952L146.106 50.3643L145.723 50.2952Z" fill="#B3C7EB"/>
<path d="M147.852 50.2686L148.16 50.2633L147.852 50.2686Z" fill="#B3C7EB"/>
<path d="M143.297 54.3224L143.415 54.542L143.297 54.3224Z" fill="#B3C7EB"/>
<path d="M156.406 35.5535L155.656 35.5375L155.741 35.1917L156.427 35.4311L156.491 35.1438L156.002 34.6597L156.278 34.6916L156.459 34.4629L156.007 34.4682L155.922 34.3299L155.996 34.149L156.411 34.2767L156.73 34.1809L156.48 33.9202L156.901 33.8617L156.949 33.7127L156.608 33.4787L156.938 33.4042L156.847 33.0158L156.512 32.9307L156.374 32.7658L157.145 32.7019L157.028 32.4785L156.714 32.4093L156.975 32.3402L156.443 32.271L156.56 31.8667L157.209 31.3347L157.082 31.1645L156.768 31.2921L157.023 31.1059L157.502 31.0102L157.151 30.9304L158.326 30.3771L157.677 30.1909L157.294 30.409L156.906 30.4463L156.736 30.3824L156.049 30.9197L156.363 30.4622L156.246 30.1537L155.4 30.5739L155.794 30.2813L154.374 30.4197L156.512 29.893L153.517 29.5153L153.198 29.7121L151.777 29.7759L151.964 29.9675L151.629 30.0898L152.107 30.4197L150.942 30.1005L151.171 30.3931L150.91 30.4143L150.565 30.2122L150.549 30.4835L150.394 30.6378L150.293 30.2015L148.953 30.5952L149.006 30.9197L148.649 30.8665L147.803 31.4251L148.261 31.489L148.107 31.888L146.809 32.3721L146.92 32.5264L148.027 32.7605L147.069 32.9307L147.404 33.0211L147.41 33.1914L147.628 33.3244L148.596 33.2073L149.501 33.5797L150.16 34.6544L150.064 34.9257L150.155 35.213L150.437 35.064L150.506 35.2768L150.862 35.463L150.788 35.5535L150.288 35.5269L150.793 35.7769L150.958 35.995L150.921 36.2983L150.682 36.3142L150.378 36.793L150.559 36.9739L150.416 37.1707L150.676 37.474L150.708 37.8411L151.15 38.6018L152.304 39.3041L152.442 39.1338L152.522 38.4582L152.836 38.0273L152.841 37.873L152.916 37.7719L152.879 37.6123L152.905 37.5272L153.347 37.1441L153.437 37.1388L153.48 37.2505L153.831 37.1548L154.48 36.4579L156.337 35.6652L156.406 35.5535Z" fill="#B3C7EB"/>
<path d="M150.726 35.9631L150.577 35.8088L150.21 35.745L150.184 35.9312L150.391 36.0642L150.726 35.9631Z" fill="#B3C7EB"/>
<path d="M143.161 33.9468L143.682 34.1117L143.815 34.0425L145.342 34.0585L145.507 33.7127L143.624 33.6116L143.682 33.4095L142.794 33.1328L142.32 33.2286L143.156 33.6169L143.161 33.9468Z" fill="#B3C7EB"/>
<path d="M145.473 38.9493L145.499 38.7083L145.473 38.9493Z" fill="#B3C7EB"/>
<path d="M141.269 36.1334L141.535 36.1121L140.912 35.6759L140.784 34.5906L140.423 34.697L140.657 34.9204L140.401 34.814L140.205 34.8193L140.327 35.3354L140.21 35.4524L140.072 35.0907L139.726 34.947L139.869 35.1226L139.657 35.1492L139.3 34.9417L139.178 35.1439L139.039 35.0853L139.071 34.8353L138.268 35.213L138.215 35.3673L138.374 35.6439L138.811 35.5641L138.327 35.7982L139.497 35.9951L138.481 36.2079L139.566 36.6867L140.391 36.3834L141.354 36.4685L141.231 36.2823L141.088 36.277L141.269 36.1334Z" fill="#B3C7EB"/>
<path d="M144.75 38.7614L145.064 38.5114L144.75 38.7614Z" fill="#B3C7EB"/>
<path d="M150.01 42.0173L149.919 41.9481L149.371 43.0387L150.1 43.0121L150.052 43.1664L150.212 43.0866L150.563 43.1664L150.467 42.8632L150.393 42.8153L150.403 42.6025L150.084 42.528L150.004 42.4056L149.861 42.4163L149.877 42.262L150.01 42.0173Z" fill="#B3C7EB"/>
<path d="M148.371 42.4641L148.887 42.6503L148.371 42.4641Z" fill="#B3C7EB"/>
<path d="M145.344 38.2188L144.493 37.5591L144.286 37.708L144.078 38.2932L144.312 38.2773L144.408 38.4475L144.722 38.24L145.344 38.2188Z" fill="#B3C7EB"/>
<path d="M141.027 34.0007L140.855 33.8989L141.027 34.0007Z" fill="#B3C7EB"/>
<path d="M146.301 36.8994L146.328 36.6121L146.083 36.5536L145.918 36.8887L146.301 36.8994Z" fill="#B3C7EB"/>
<path d="M141.821 35.5056L142.151 35.3939L142.395 34.8619L142.284 34.8406L142.257 34.9257L142.028 34.83L142.268 34.5959L142.135 34.399L141.47 34.697L141.672 34.8778L141.305 34.8512L141.821 35.5056Z" fill="#B3C7EB"/>
<path d="M137.435 35.8141L138.829 34.7607L138.6 34.532L137.738 34.3405L137.158 34.4628L137.243 34.6597L136.945 35.3087L137.435 35.8141Z" fill="#B3C7EB"/>
<path d="M143.584 32.8136L143.402 32.985L143.584 32.8136Z" fill="#B3C7EB"/>
<path d="M138.156 33.899L138.444 33.6755L138.156 33.899Z" fill="#B3C7EB"/>
<path d="M135.594 41.6289L135.876 42.0864L135.785 41.7619L135.594 41.6289Z" fill="#B3C7EB"/>
<path d="M142.965 32.7605L142.422 32.8935L142.965 32.7605Z" fill="#B3C7EB"/>
<path d="M147.046 35.346L146.764 35.3619L145.919 34.8565L145.716 35.0428L145.599 35.0002L145.291 35.1225L145.301 34.7608L145.168 34.5108L144.807 34.5214L144.408 34.7129L144.466 35.0268L144.365 35.2289L144.567 35.3832L144.253 35.2502L144.211 34.9789L144.312 34.6703L144.498 34.4735L143.764 34.7076L143.594 35.4524L143.987 35.5269L143.945 35.6226L143.668 35.6599L145.004 36.0269L145.195 35.9259L145.615 35.9791L145.589 35.8461L145.631 35.7397L146.232 36.2078L146.052 36.394L146.344 36.2876L146.796 36.6919V37.0643L147.105 37.0271L147.392 37.1814L147.121 37.341L146.647 37.1548L146.6 37.5165L145.913 37.6974L145.807 37.9688L146.679 37.9049L146.897 38.1177L147.004 38.389L148.031 38.7774L147.541 38.2241L148.329 38.2933L147.733 37.4474L147.786 37.208L148.047 37.3038L148.323 37.6017L148.712 37.4048L148.951 37.1229L147.669 36.277L147.924 36.2025L147.711 36.0855L147.818 35.9897L147.717 35.8088L147.584 35.8886L147.616 35.7184L147.195 35.5215L146.956 35.5854L146.887 35.5215L147.046 35.346Z" fill="#B3C7EB"/>
<path d="M145.27 34.4575L145.381 34.7235L145.663 34.8193L146.11 34.7182L145.642 34.4682L145.27 34.4575Z" fill="#B3C7EB"/>
<path d="M139.857 32.8031L139.74 32.7233L139.277 32.9095L139.522 33.0903L139.857 32.8031Z" fill="#B3C7EB"/>
<path d="M140.825 32.2977L141.07 32.4253L140.778 32.4892L141.852 32.6807L141.778 32.4466L141.357 32.1593L140.703 32.0742L140.825 32.2977Z" fill="#B3C7EB"/>
<path d="M139.18 32.8726L138.934 32.8243L139.18 32.8726Z" fill="#B3C7EB"/>
<path d="M140.887 33.0956L140.605 32.8456L140.887 33.0956Z" fill="#B3C7EB"/>
<path d="M138.752 33.5691L138.778 33.7128L138.619 33.8936L138.81 33.8883L138.48 34.0213L138.975 34.0532L139.119 33.9841L139.475 34L139.204 34.1809L139.193 34.3778L140.534 34.0532L140.598 33.6117L140.39 33.7074L140.05 33.2925L139.853 33.5319L139.869 33.6755L140.007 33.8298L138.949 33.4308L138.752 33.5691Z" fill="#B3C7EB"/>
<path d="M137.54 33.7819L137.822 33.6383L137.95 33.8032L138.338 33.3351L138.392 33.5266L138.711 33.3829V33.2233L138.828 33.1063L138.679 33.0159L138.567 33.101L138.322 33.085L137.477 33.6596L137.54 33.7819Z" fill="#B3C7EB"/>
<path d="M139.462 32.6381L139.994 32.5476L139.589 32.4465L139.238 32.6274L139.462 32.6381Z" fill="#B3C7EB"/>
<path d="M142.398 31.7922L142.579 32.0156H143.122L142.797 32.2071L143.494 32.5529L143.76 32.5317L144.138 32.1061L144.452 31.9677L144.09 31.7443L144.005 31.5475L142.797 31.0367L142.813 31.1325L142.531 31.3347L142.563 31.5687L142.398 31.7922Z" fill="#B3C7EB"/>
<path d="M142.302 32.7339L142.632 32.6541L142.648 32.4945L142.062 32.287L142.302 32.7339Z" fill="#B3C7EB"/>
<path d="M141.955 31.8195L141.703 31.723L141.955 31.8195Z" fill="#B3C7EB"/>
<path d="M142.785 33.7872L142.316 34.0107L142.875 34.149L142.785 33.7872Z" fill="#B3C7EB"/>
<path d="M141.61 33.2286L141.669 33.4734L141.451 33.4148L141.387 33.5691L141.27 33.5851L140.967 33.2712L140.945 33.5372L141.238 33.766L141.685 33.7394L141.642 34.0054L142.031 34.0107L142.185 33.8351L142.169 33.6223L141.956 33.3031L141.61 33.2286Z" fill="#B3C7EB"/>
<path d="M143.398 30.8186L143.504 30.8452L143.578 30.925L143.52 31.0686L143.69 31.1963L144.164 31.2016L144.222 31.3027L145.542 31.058V31.2389L144.93 31.4144L145.158 31.6911L144.259 31.4623L144.27 31.8028L144.978 32.2922L144.478 32.1965L143.999 32.4572L144.44 32.4518L144.403 32.5902L144.616 32.8668L144.366 32.8455L144.047 32.6646L144.015 33.0104L143.632 33.2392L145.738 33.2179L145.823 33.0264L145.212 32.9626L145.217 32.8349L145.706 32.803L145.738 32.5902L146.084 32.5529L146.457 32.1007L145.962 31.9943L146.382 31.856L146.616 31.6485L146.983 31.6645L148.35 30.7707L147.792 30.7548L148.803 30.4143L148.856 30.2015L148.35 30.0206L147.925 30.1004L147.999 29.9674L144.392 30.3877L144.089 30.6218L143.797 30.5845L143.653 30.7228L143.254 30.776L143.398 30.8186Z" fill="#B3C7EB"/>
<path d="M129.703 41.6778L129.95 41.5278L129.703 41.6778Z" fill="#B3C7EB"/>
<path d="M131.857 40.432L131.692 40.6501L131.559 40.7139L131.638 40.8735H131.734L131.974 40.666L131.904 40.5437L132.037 40.4692L132 40.3628L131.857 40.432Z" fill="#B3C7EB"/>
<path d="M129.423 39.8839L129.258 39.9531L129.513 40.0329L129.55 39.8892L129.423 39.8839Z" fill="#B3C7EB"/>
<path d="M161.268 44.8422L161.102 44.9118L161.268 44.8422Z" fill="#B3C7EB"/>
<path d="M165.565 45.8264L165.144 45.7892L165.027 45.8477L165.309 45.9222L165.565 45.8264Z" fill="#B3C7EB"/>
<path d="M167.003 45.8742L167.109 45.7359L167.104 45.6934L166.833 45.7944L166.742 45.9487L167.003 45.8742Z" fill="#B3C7EB"/>
<path d="M157.73 37.6868L158.028 37.3782L157.788 36.9686L157.661 36.9846L157.48 36.8888L157.458 37.0218L157.161 37.059L157.059 37.0271L156.937 37.1282L156.863 37.0856L156.772 37.1548L156.751 37.2559L156.623 37.3197L156.575 37.1495L156.288 36.942L156.315 37.0644L156.245 37.059L156.123 37.1176L156.027 37.2612L156.437 37.3038L156.4 37.4102L156.091 37.5432H156.363L156.485 37.6921L156.325 37.8677L156.565 37.8517L156.91 37.9954L157.73 37.6868Z" fill="#B3C7EB"/>
<path d="M158.842 41.6927L159.401 41.4693V40.932L159.545 40.8256L159.438 40.5862L158.986 40.6819L159.077 40.783L158.922 40.8735L158.72 40.8841L158.832 41.198L158.779 41.3789L158.656 41.5225L158.842 41.6927Z" fill="#B3C7EB"/>
<path d="M159.418 39.5807L159.289 39.7789L159.418 39.5807Z" fill="#B3C7EB"/>
<path d="M159.367 39.8733L159.5 39.9957L159.431 40.1606L159.532 40.2723L159.378 40.4107L159.511 40.3521L159.591 40.4798L159.697 40.3096L159.713 40.4585L159.644 40.6767L159.92 40.6394L160.048 40.9161L160.032 41.1129L159.841 41.1235L159.782 41.1608L159.724 41.2991L159.835 41.3789L159.654 41.5279L159.729 41.6183L160.038 41.6715L160.053 41.7247L159.846 41.7619L159.601 42.1077L159.745 42.012L159.883 42.0439L159.968 41.9428L160.256 41.8683L160.405 41.9056L160.883 41.7194L160.804 41.6768L160.82 41.5491L160.974 41.3363L160.681 41.2193V41.1023L160.224 40.3628L160.048 40.3362L160.261 39.8095L159.91 39.8042L159.846 39.735L159.99 39.5488L160.022 39.4211L159.936 39.5116L159.729 39.5222L159.479 39.9159L159.367 39.8733Z" fill="#B3C7EB"/>
<path d="M162.867 40.6607L163 40.4798L163.048 40.2457L162.984 40.2989L162.921 40.2457L162.793 40.3096L162.867 40.5064L162.814 40.5702L162.867 40.6607Z" fill="#B3C7EB"/>
<path d="M164.182 39.6233L164.055 39.9106L164.182 39.6233Z" fill="#B3C7EB"/>
<path d="M164.944 39.2562L164.82 39.2723L164.944 39.2562Z" fill="#B3C7EB"/>
<path d="M164.785 39.5448L164.983 39.3894L164.86 39.3519L164.785 39.5448Z" fill="#B3C7EB"/>
<path d="M164.09 31.0155H164.787L164.388 31.1804L165.064 31.3134L165.793 30.8612L165.128 30.7708L165.021 30.8346L164.915 30.6963L164.877 30.9091L164.729 30.8187L164.569 30.8133L164.361 30.6857L164.372 30.7814L164.234 30.7442L164.239 30.8665L164.095 30.7548L164.016 30.8399L164.111 30.9304L164.09 31.0155Z" fill="#B3C7EB"/>
<path d="M162.765 31.7549L162.898 31.856L162.648 31.5687L162.765 31.7549Z" fill="#B3C7EB"/>
<path d="M162.944 31.3613L162.833 31.5741L163.024 31.8082L163.295 31.8188L163.498 31.5475L163.514 31.6752L163.679 31.6539L163.753 31.723L163.226 31.9731L163.397 32.0476L163.78 32.0156L163.253 32.2072L163.444 32.3721L163.631 32.388L163.54 32.4732L163.694 32.5742L163.822 32.5264L164.274 31.6752L164.503 31.59L164.54 31.6379L164.567 31.8028L164.636 31.8773L164.604 32.0848L164.785 32.122L164.891 32.2284L165.296 31.9624L165.003 31.888L164.971 31.8028L164.822 31.7443L164.716 31.6273L164.679 31.5049L164.189 31.3347L164.115 31.1644L163.96 31.2496L164.008 31.0953L163.812 31.0208L163.71 30.925L163.636 31.1325L163.753 31.457L163.413 31.0846L163.338 31.2602L163.285 31.3028L163.141 31.1751L163.301 31.1006L163.194 31.0634L162.896 31.09L162.742 31.1698V31.3879L162.944 31.3613Z" fill="#B3C7EB"/>
<path d="M187.839 43.2568L187.674 43.3366L187.562 43.6026V43.7676L187.77 43.6931L187.653 43.5335L188.11 43.5814L188.525 43.3686L188.85 42.9802L188.467 43.1026L188.036 42.7621L187.908 42.8312L187.839 43.2568Z" fill="#B3C7EB"/>
<path d="M185.595 45.8955L185.516 46.0498L185.627 45.9859L185.734 46.47L185.952 46.0923L185.915 45.954L185.776 45.8423L185.595 45.8955Z" fill="#B3C7EB"/>
<path d="M186.883 45.0443L186.761 45.2678L186.112 45.3795L185.809 45.6402V45.7732L186.516 45.5604L186.601 45.7519L186.83 45.736L186.905 45.5817L186.958 45.5498L187.357 45.5338L187.474 45.4008L187.66 45.3635L187.761 44.7092L187.942 44.4645L187.846 43.8793L187.596 43.9644L187.463 44.5549L187.16 44.9326L187.032 44.8635L186.883 45.0443Z" fill="#B3C7EB"/>
<path d="M186.208 45.986L186.378 45.9062L186.511 45.7094L186.314 45.6881L186.128 45.752L186.102 46.0446L186.208 45.986Z" fill="#B3C7EB"/>
<path d="M183.731 48.6354L183.976 47.9491L183.625 48.2577L183.731 48.6354Z" fill="#B3C7EB"/>
<path d="M181.701 49.4652L181.802 49.2046L181.563 49.1886L181.371 49.4918L181.701 49.4652Z" fill="#B3C7EB"/>
<path d="M184.675 51.5294L184.446 51.7475L184.271 51.705L184.047 51.8593L183.973 52.088L184.292 51.9178L184.451 52.2955L184.659 52.4072L184.648 52.1253L184.861 52.0242L184.813 51.5401L184.675 51.5294Z" fill="#B3C7EB"/>
<path d="M183.551 49.9973L183.657 50.4601L184.269 50.7793L184.508 51.3432L184.663 51.1517L184.609 50.8857L184.253 50.5239L183.982 50.4761L183.881 50.2739L184.014 49.96L183.971 49.5291L183.684 49.5078L183.647 50.0185L183.551 49.9973Z" fill="#B3C7EB"/>
<path d="M183.664 50.657L183.852 50.8873L183.664 50.657Z" fill="#B3C7EB"/>
<path d="M183.303 51.4177L183.059 51.7848L183.41 51.4124L183.463 51.173L183.303 51.4177Z" fill="#B3C7EB"/>
<path d="M184.486 51.423L184.336 51.5301L184.486 51.423Z" fill="#B3C7EB"/>
<path d="M184.269 51.2368L183.977 50.9814L183.987 51.2794L184.094 51.2155L184.136 51.6305L184.349 51.274L184.269 51.2368Z" fill="#B3C7EB"/>
<path d="M189.863 54.615L189.623 54.7799L189.203 54.8065L189.522 54.9608L189.932 54.7267L189.99 54.5299L189.863 54.615Z" fill="#B3C7EB"/>
<path d="M190.123 54.59L190.059 54.365L190 54.3811L190.123 54.59Z" fill="#B3C7EB"/>
<path d="M189.043 54.9182L187.054 53.9234L186.559 54.3383L186.351 53.7957L185.899 53.7372L185.734 53.8808L185.835 53.9393L185.947 54.0883L186.261 54.0989L186.245 54.1681L185.958 54.2373L186.08 54.4288L187.149 54.7959L187.256 55.0459L187.251 55.2427L187.064 55.4236L187.522 55.3864L187.942 55.6417L188.293 55.3225L188.708 55.4183L189.144 55.8439L189.559 55.9184L189.528 55.7854L189.187 55.5353L189.001 55.0619L189.043 54.9182Z" fill="#B3C7EB"/>
<path d="M176.007 51.6359L175.922 52.1306L176.023 52.4551L176.321 52.1359L176.007 51.6359Z" fill="#B3C7EB"/>
<path d="M169.929 56.5037L169.86 56.5728L169.833 56.7271L169.62 56.9239L169.615 57.041L168.961 57.3921L168.785 59.0413L168.913 59.4509L169.253 59.5414L169.45 59.4563L170.025 57.3017L170.142 57.2751L169.929 56.5037Z" fill="#B3C7EB"/>
<path d="M170.762 51.1095L170.96 51.0613L170.762 51.1095Z" fill="#B3C7EB"/>
<path d="M188.78 63.276L188.445 63.1749L188.536 63.6112L188.796 63.9516L188.908 63.8612L188.951 63.7495L189.068 63.7761L189.116 63.1962L188.78 63.276Z" fill="#B3C7EB"/>
<path d="M185.57 56.2487L185.827 56.1791L185.57 56.2487Z" fill="#B3C7EB"/>
<path d="M186.801 61.9462L187.042 61.9087L186.801 61.9462Z" fill="#B3C7EB"/>
<path d="M190.206 59.935L190.148 59.4083L189.717 58.9295L189.648 58.7007L189.568 58.6316L189.456 58.6422L189.27 58.1687L188.812 57.8761L188.44 56.7909L188.286 56.7962L188.036 55.9609L187.908 56.1205L187.759 57.275L187.589 57.5357L186.652 56.9292L186.684 56.6366L186.812 56.5302L186.876 56.3865L186.833 56.2748L186.759 56.3653L186.684 56.2482L186.535 56.3227L185.971 56.0727L186.046 56.2163L185.743 56.3227L185.466 56.7536L185.477 56.9398L185.248 56.9771L184.913 56.6951L184.796 56.7696L184.737 56.8707L184.583 56.8813L184.551 56.9771L184.455 57.0515L184.418 57.2697L184.274 57.2537L184.306 57.4186L184.242 57.5357L184.168 57.3707L184.014 57.4612L184.003 57.7165L183.721 58.0357L182.524 58.5358L182.418 58.6954L182.396 58.5624L182.295 58.722L182.269 59.3232L182.38 59.6158L182.263 59.5041L182.322 59.6583L182.184 59.5413L182.721 60.9458L182.678 61.2384L182.567 61.4246L182.62 61.5682L182.763 61.7065L183.141 61.7491L185.753 60.8394L186.339 61.0628L186.349 61.1958L186.525 61.382L186.573 61.6267L187.099 61.1905L186.892 61.6799L187.073 61.6587L187.184 61.5895L187.158 61.8342L187.301 61.8236L187.573 62.4088L188.174 62.6535L188.424 62.4886L188.504 62.5258L188.541 62.5897L188.594 62.5471L188.791 62.728L189.068 62.4513L189.477 62.3662L190.206 59.935Z" fill="#B3C7EB"/>
<path d="M193.031 64.878L193.106 64.7762L193.031 64.878Z" fill="#B3C7EB"/>
<path d="M169.859 35.6279L170.221 35.5375L170.046 35.3992L169.859 35.6279Z" fill="#B3C7EB"/>
<path d="M170.63 34.5374L170.662 34.697L170.737 34.6225L171.136 34.8885L171.636 34.8725L171.375 34.6172L171.306 34.149L171.854 33.2925L173.87 32.1753L171.487 32.952L171.274 33.3883L171.109 33.4893L171.035 33.7713L170.726 33.9841L170.79 34.1331L170.434 34.415L170.63 34.5374Z" fill="#B3C7EB"/>
<path d="M178.239 29.9462L177.977 29.9944L178.239 29.9462Z" fill="#B3C7EB"/>
<path d="M188.283 33.3457L188.028 33.0797L187.703 33.2606L188.283 33.3457Z" fill="#B3C7EB"/>
<path d="M187.822 32.9307L187.629 33.0217L187.822 32.9307Z" fill="#B3C7EB"/>
<path d="M178.69 30.5739L178.562 30.7707L179.446 31.0686L179.669 30.6484L179.233 30.4249L178.69 30.5739Z" fill="#B3C7EB"/>
<path d="M179.582 31.457L180.774 31.1059L180.518 30.925L180.236 30.9995L180.258 30.8825L180.146 30.7441L179.938 30.8346L179.869 31.0155L179.72 31.1431L179.582 31.457Z" fill="#B3C7EB"/>
<path d="M187.222 32.6912L188.047 32.6114L188.031 32.3561L188.393 32.5902L188.531 32.3933L188.483 32.2071L188.052 32.1273L187.775 32.2178L187.398 32.0262L187.062 32.5529L187.222 32.6912Z" fill="#B3C7EB"/>
<path d="M188.211 40.4106L188.083 40.1499L187.961 42.5279L188.089 42.379L188.259 42.5386L188.089 42.0864L188.147 41.7299L188.381 41.698L188.445 41.6555L188.211 40.4106Z" fill="#B3C7EB"/>
<path d="M182.086 32.9999L181.969 33.1063L182.32 33.0318L182.086 32.9999Z" fill="#B3C7EB"/>
<path d="M189.307 32.654L189.78 32.537L188.966 32.3348L188.828 32.4891L189.307 32.654Z" fill="#B3C7EB"/>
<path d="M178.385 30.4037L178.338 30.4889L178.199 30.5687L178.375 30.6963L179.141 30.3293L179.194 30.1484L178.965 29.8239L178.465 30.1005L178.38 30.2548L178.385 30.4037Z" fill="#B3C7EB"/>
<path d="M197.187 36.1121L197.411 36.1599L197.363 36.1014L197.405 36.0801L197.517 36.0908L197.645 35.9046L196.985 35.5694L196.724 35.5747L196.815 35.6758L196.783 35.8195L196.655 35.7609L196.644 35.5375L196.57 35.4205L193.724 34.4841L193.66 34.6278L193.756 34.8033L193.708 35.0215L193.24 34.7821L193.479 34.6544L193.229 34.548L192.995 34.7608L191.899 34.7714L191.856 34.9789L191.803 34.7661L191.543 34.665L191.58 34.5214L191.255 34.2181L190.042 34.2873L189.989 34.1809L189.415 33.9894L189.393 33.9202L189.553 33.8298L188.914 33.734L188.797 33.9521L188.585 33.9415L188.739 33.8298L188.515 33.7606L188.627 33.6968L188.824 33.6915L187.787 33.5106L187.744 33.6117L187.388 33.8298H187.547L187.494 33.9468L187.558 34.0958H187.212L187.159 34.149V34.2394L186.696 34.0905L186.467 34.1809L186.058 34.0585L185.824 34.4629L185.701 34.4256L185.228 33.9202L185.446 33.9309L185.323 33.468L185.19 33.3669L184.855 33.3723L184.456 33.1701L184.265 33.3989L184.259 33.5638L183.281 33.5159L183.36 33.4095L182.328 33.4148L182.302 33.5319L182.27 33.3191L182.169 33.2978L181.967 33.335L181.743 33.2127L181.525 33.3616L181.642 33.3935L180.786 33.7234L180.833 33.5691L181.924 32.9413L182.014 32.819L182.254 32.7073L182.344 32.5689L182.259 32.4945L182.355 32.4519L182.286 32.2444L182.158 32.2231L182.116 32.0476L181.302 31.9997L181.174 32.0848L180.929 32.1167L181.073 31.9093L180.52 31.8614L180.759 31.7497L180.78 31.6645L180.413 31.5741L180.158 31.6433L179.807 32.0263L179.844 32.1167L179.44 32.2125L179.567 32.3189L178.998 32.3881L179.051 32.2657L178.865 32.3242L178.737 32.3083L178.423 32.4093L178.54 32.4945L177.381 32.8615L177.354 32.9147L177.28 32.9733L177.333 33.0477L177.168 33.0424L177.359 33.1807L177.21 33.1967L177.359 33.3403L177.338 33.4361L176.216 33.5797L176.152 33.9521L176.418 34.1011L176.53 34.3086L175.614 34.0053L175.492 34.1171L175.678 34.2128L175.306 34.3033L175.737 34.6278L175.71 34.6916L175.487 34.5693L175.157 34.548L175.189 34.1862L175.104 33.9149L175.003 34.2341L174.769 34.3777L174.689 34.5161L174.912 34.8087L174.806 35.3992L174.955 35.4258L175.184 35.3619L175.556 35.4949L175.625 35.6599L175.535 35.8248L175.758 35.9844L175.54 35.9737L175.45 35.8354L175.497 35.6758L175.279 35.4524L174.981 35.5535L175.024 35.8567L174.54 36.4472L173.987 36.4259L173.891 36.3355L174.215 36.394L174.652 35.9471L174.742 35.6173L174.588 35.4364L174.63 34.7767L174.471 34.532L174.614 33.9894L174.003 33.8989L173.428 34.7608L173.534 34.7874L173.433 35.2183L173.662 35.3087L173.747 35.4843L173.864 35.5481L173.742 35.7663L171.853 34.9949L171.906 35.1757L172.172 35.33L172.263 35.5056L172.204 35.6279L171.976 35.7556V35.6279L171.859 35.5322L171.561 35.7077L171.236 35.7184L171.055 35.8727L170.795 35.8567L170.933 35.5801L170.672 35.6758L170.635 35.7982L170.55 35.745L169.715 36.1227L169.672 36.3515L169.342 36.41L169.188 36.2504L169.183 36.1121L169.486 36.0376L169.369 35.8301L168.885 35.7397L168.975 35.9737L168.901 36.2185L169.034 36.4845L168.975 36.6547H168.89L168.831 36.5909L168.64 36.5536L168.161 36.8728L168.252 37.2293L167.821 37.1761L167.603 37.0324L167.486 37.1601L167.544 37.2825L167.73 37.3516L167.746 37.4846L167.603 37.5165L167.278 37.3623L167.134 37.0856L167.156 36.8037L166.634 36.3515L167.837 36.7132L168.395 36.4206L168.379 36.1653L166.698 35.4524L166.842 35.3992L166.714 35.346L166.517 35.3619L166.507 35.3513L166.278 35.3566L166.156 35.2502L166.251 35.2555L166.507 35.1438L166.406 35.0374L166.161 34.9363L165.964 35.0747L165.985 34.9523L165.905 34.8353L165.671 35.1332L165.677 34.9523L165.373 35.2396L165.405 35.1013L165.528 34.931L165.506 34.8459L165.4 34.947L165.262 34.931L165.23 35.0161L165.054 35.1066L164.99 35.3194L164.921 35.1811L165.065 34.9789L164.841 35.0427L164.852 35.1864L164.799 35.2343L164.655 35.2396L164.762 35.346L164.671 35.3353L164.57 35.2662L164.506 35.3087L164.549 35.4471L164.485 35.4045L164.379 35.3992L164.363 35.2768L164.23 35.2928L164.176 35.3566L164.161 35.4577L164.097 35.5109L163.9 35.5481L163.799 35.6971L163.921 35.6811L163.948 35.7556L163.932 35.8141L163.831 35.8301L163.746 35.7769L163.639 35.8354L163.682 35.6545L163.134 36.144L163.198 36.1493L163.756 35.9471L163.74 36.0642L163.687 36.1014L163.613 36.0642L163.203 36.6653L163.171 36.8249L163.022 36.8569L162.995 37.2027L162.745 37.2771L162.852 37.4101L162.623 37.5219L162.41 37.8304L162.304 37.74L162.283 37.8623L161.995 38.0219L162.096 38.1071L161.931 38.1124L161.745 38.2933L161.676 38.3199L161.591 38.4209L161.665 38.5273L161.607 38.921L161.708 38.9529L161.841 38.8891L161.873 38.9529L161.772 39.0434L161.697 39.0221L161.634 39.0859L161.618 39.2136L161.825 39.203L161.697 39.3626L161.9 39.5381L162.123 39.5967L162.479 39.2881L162.612 39.2509L162.66 39.0913L163.128 40.4L163.277 40.3947L163.405 40.1925L163.565 40.1712L163.676 40.0701L163.746 40.1021L163.852 39.8946L163.783 39.9105L163.809 39.453L164.203 38.9529L164.022 38.7295L163.889 38.6923L163.868 38.4475L164.214 37.7879L164.687 37.4048L164.666 37.1973L164.74 37.0165L164.863 36.8994L165.166 36.8728L165.32 36.942L165.389 37.1069L164.623 37.9528L164.634 38.6976L165.139 38.8838L165.905 38.6869L165.985 38.6497L166.108 38.788L166.273 38.8253L165.145 39.1019L165.028 39.2296L165.065 39.3679L165.177 39.4371L165.214 39.5222V39.5275L165.198 39.7403L165.044 39.8307L164.873 39.6126L164.687 39.7137L164.581 40.0967L164.586 40.1074L164.575 40.4053L164.607 40.4372L164.544 40.5596L164.325 40.5755L164.315 40.6287L164.208 40.6926L164.118 40.5596L163.347 40.8788L163.331 40.8522L163.219 40.783L163.235 40.6553L162.852 40.8575L162.543 40.666L162.458 40.5011L162.692 40.5117L162.623 40.3787L162.538 40.3681L162.591 40.2297L162.713 40.1553L162.623 40.0542L162.639 39.719L162.389 39.8786L162.4 39.9744L162.288 39.9159L162.192 40.0755L162.378 40.8894L162.299 40.9799L162.017 40.9905L162.011 41.0384L161.772 41.0756L161.692 41.2299L161.602 41.2405L161.516 41.2937L161.277 41.6768L161.075 41.7672L160.639 42.2673L160.399 42.1822L160.288 42.2673L160.314 42.4961L160.149 42.4907L160.032 42.4322L159.846 42.4588L159.729 42.5652L159.75 42.6982L160.171 42.8312L160.431 43.2781L160.314 43.9325L159.117 43.8527L158.958 43.9697L158.936 45.5604L159.335 45.5657L159.564 45.8104L159.607 45.7413L160.133 45.6349L160.633 45.1135L160.639 44.7943L161.181 44.3368L161.261 44.1559L161.25 44.1027L161.41 43.8846L161.761 43.9644L162.325 43.6186L163.639 44.8315L163.655 45.2359L163.863 44.922L163.777 44.7517L163.958 44.656L164.102 44.6613L163.017 43.5973L163.022 43.3792L163.107 43.2515L163.23 43.2302L163.299 43.3845L163.448 43.4537L163.618 43.7516L164.256 44.1665L164.304 44.6187L164.432 44.7996L164.442 44.8049L164.544 44.9858L164.852 45.1029L164.65 45.1295L164.788 45.4593L164.964 45.5497L164.932 45.3316L165.065 45.321L164.98 45.2359L165.049 45.1933L165.187 45.172L165.123 44.9965L164.964 45.0071L165.028 44.8901L164.873 44.6507L164.974 44.5868L165.129 44.6081L165.166 44.4432L165.283 44.4804L165.427 44.3953L165.666 44.523L165.847 44.3953L166.102 44.3581L165.959 44.2304L165.847 43.9059L166.038 43.6665V43.5547L166.235 43.2568V43.2462L166.491 42.8578L166.703 42.8153L166.725 42.9536L167.039 42.9961L166.783 43.1611L166.975 43.2568L166.985 43.4217L167.581 43.2355L167.39 43.1823L167.235 43.0068L168.071 42.6716L167.831 42.8365L167.906 42.9589L167.634 43.2355L168.491 43.8793L168.565 44.1027L168.523 44.1772L167.831 44.3368L167.145 44.0974L166.145 44.3527L166.049 44.523L165.645 44.5709L165.608 44.7305L165.687 44.789L165.666 45.2199L165.89 45.4114L165.985 45.4433L166.102 45.5763L166.507 45.4327L166.767 45.5976L166.964 45.5551L167.145 45.4221L167.294 45.4593L167.443 45.4114L167.235 46.2892L167.337 46.3371H167.331L167.235 46.2945L167.033 46.8212L165.331 46.6935L165.326 46.6829L164.778 46.4488L164.352 46.7042L164.379 46.9861L163.73 46.8585L163.416 46.5871L162.846 46.4701L162.543 46.236L162.692 46.0817L162.729 45.5976L162.703 45.5231L160.894 45.6402L160.229 46.0498L159.511 45.8796L159.303 46.3265L159.016 46.4914L158.766 46.8851V47.2149L157.383 49.3642L157.532 49.9547L157.393 50.7421L157.473 51.0879L157.447 51.2209L157.468 51.3219L159.112 53.0563L160.085 52.9286L160.229 52.9818L161.219 52.5509L161.501 52.6307L161.782 53.0297L162.261 52.9392L162.341 53.0563L162.49 53.0882L162.543 53.301L162.506 53.4925V53.4978L162.458 53.7851L162.426 53.833L162.501 53.9394L162.32 54.1681L163.166 55.7695L163.134 55.9982L163.251 56.4504L162.852 57.7911L164.059 61.6959L164.24 61.8396L165.522 61.547L166.645 60.2702L166.746 59.802L166.672 59.7222L167.214 59.2913L167.14 58.2645L168.268 57.1261L167.906 55.2321L170.305 51.2847L170.177 51.2155L168.869 51.4762L168.768 51.3539L168.667 51.306L168.778 51.2049L166.703 47.05L167.023 47.6086L167.14 47.3L168.8 51.0293L170.358 50.4495L170.545 50.226L171.071 50.0558L171.146 49.8855L171.358 49.843L171.486 49.6408L171.609 49.5663L171.672 49.2737L171.992 48.8907L171.976 48.7737L171.811 48.5502L171.486 48.4225L171.332 47.9225L171.103 48.2204L170.513 48.4917L170.47 48.4811L170.39 48.3427L170.369 48.0023L170.241 48.2151L170.225 48.2204L169.725 47.1351L169.741 47.0979L170.092 46.9968L170.401 47.5288L171.071 47.8373L171.38 47.7363L171.529 48.0182L173.38 48.1299L173.508 48.3959L173.885 48.6779L174.098 48.6885L173.827 48.8003L174.237 49.1673L174.503 48.8215L175.418 51.9869L175.779 51.6411L176.077 50.242L177.173 49.2205L177.232 48.9918L178.03 48.6034L178.567 49.6621L178.54 50.0132L178.62 50.1303L178.812 50.0983L178.977 49.8749L179.078 49.96L179.87 52.9924L180.434 53.3967L180.301 52.6679L179.482 51.6092L179.61 50.8112L179.775 50.7527L180.142 51.0081L180.195 51.2049L180.317 51.2262L180.328 51.3432L180.482 51.3539L180.589 51.4603L180.535 51.6518L180.631 51.7369L180.908 51.3805L181.296 51.2049L181.451 50.9123L181.403 50.4016L180.764 49.3057L181.147 48.8481L181.488 48.8109L181.584 49.0929L181.637 48.9971L182.291 48.5502L182.823 48.4811L183.483 47.832V47.5607L183.621 47.4862L183.993 46.7946L183.727 46.6829L183.935 46.5659L183.642 46.3105L183.924 46.3371L183.6 45.7359L183.424 45.6029L183.61 45.2784L184.063 45.039L183.951 44.9007L183.759 44.8156L183.499 45.0124L183.376 44.8422L183.174 44.7677L183.169 44.4964L183.978 44.0708L183.813 44.5443L183.951 44.5389L184.313 44.3049L184.408 44.2889L184.632 44.4059L184.515 44.6453L184.552 44.7783L184.653 44.8315L184.802 44.7943L184.85 44.8209L184.909 44.9379L184.855 45.6508L185.425 45.4114L185.504 45.3157L185.249 44.6347L185.073 44.4538L185.127 44.257L185.467 44.0123L185.536 43.7463L185.802 43.4643L185.967 43.3579L186.196 43.4962L187.467 42.0013L187.829 40.517L187.483 40.1765L187.313 40.1872L187.191 40.3521L187.079 40.3627L187.063 40.1446L186.941 40.3042L186.919 40.0808H186.696L186.707 39.9159L188.287 38.5061L189.633 38.405L189.92 38.5061L189.819 38.655L190.569 38.5007L190.489 38.4369L190.473 38.2507L191.016 37.6495L191.34 37.607L191.473 37.6655L191.617 37.6017L191.521 37.8091L191.633 37.8889L191.58 37.9794L192.149 37.6708L192.192 37.4527L192.532 37.3091L192.527 37.3623L191.112 38.9104L190.925 38.9583L190.675 39.7403L190.899 41.0863L191.207 40.7511L191.25 40.5223L191.383 40.4159L191.532 40.3787L191.516 40.1925L191.707 39.985L191.947 39.9318L191.91 39.7137L192.048 39.4424L192.202 39.4264L192.106 39.2828L192.144 38.9157L192.016 38.9263L191.995 38.6976L192.314 38.2135L192.49 38.1975L192.564 38.2347L192.766 38.0166L192.809 38.2081L192.995 38.0858L193.49 38.0273L193.639 38.1656L193.718 38.0326L195.07 37.2293L195.463 37.2452L195.458 37.0643L195.027 36.5004L194.857 36.4685L195.054 36.3993L195.16 36.5057L195.389 36.4845L195.655 36.3249L195.713 36.2078L195.676 36.0801L195.692 35.9737L195.767 35.8993L195.873 35.8886L195.846 36.0057L195.916 36.1546L196.437 36.261L196.581 36.4472L196.884 36.5802L197.113 36.5589L197.022 36.4419L197.118 36.4632L197.107 36.1333L197.187 36.1121Z" fill="#B3C7EB"/>
<path d="M174.439 33.7606L174.226 33.6702L174.141 33.8457L174.439 33.7606Z" fill="#B3C7EB"/>
<path d="M175.966 33.8138L175.816 33.8888L175.966 33.8138Z" fill="#B3C7EB"/>
<path d="M145.811 48.7577L145.742 48.8215L145.88 49.0503L145.811 48.7577Z" fill="#B3C7EB"/>
<path d="M148.865 52.0625L149.009 52.0357L148.999 51.9125L148.859 51.9607L148.865 52.0625Z" fill="#B3C7EB"/>
<path d="M181.254 54.3224L181.152 54.376L181.254 54.3224Z" fill="#B3C7EB"/>
<path d="M184.234 55.5301L184.298 55.4609L183.516 55.5727L183.835 55.6312L184.234 55.5301Z" fill="#B3C7EB"/>
<path d="M183.068 55.4716L182.887 55.4982L182.797 55.6205L183.079 55.6631L183.355 55.5673L183.068 55.4716Z" fill="#B3C7EB"/>
<path d="M184.53 55.7642L184.578 55.7056L185.009 55.4716L184.721 55.4822L184.376 55.6737L184.285 55.9238L184.53 55.7642Z" fill="#B3C7EB"/>
<path d="M185.152 54.333L185.674 54.4714L185.541 54.2479L185.152 54.333Z" fill="#B3C7EB"/>
<path d="M183.717 55.8865L183.355 55.7854L183.531 55.8758L183.717 55.8865Z" fill="#B3C7EB"/>
<path d="M184.754 54.3544L184.995 54.424L184.754 54.3544Z" fill="#B3C7EB"/>
<path d="M183.328 54.216L183.53 54.9236L183.626 54.7054L183.605 54.3064L183.732 54.3916L183.834 54.615L184.009 54.6363L183.919 54.0351L184.217 53.7851L183.812 53.9234L183.573 53.7159L184.562 53.3063L184.355 53.402L183.86 53.3488L183.621 53.4659L183.328 54.216Z" fill="#B3C7EB"/>
<path d="M185.184 53.3116L185.051 53.2318L185.152 53.7106L185.301 53.3701L185.184 53.3116Z" fill="#B3C7EB"/>
<path d="M179.082 53.4073L179.205 53.5788L179.082 53.4073Z" fill="#B3C7EB"/>
<path d="M179.367 53.9607L179.464 54.0786L179.367 53.9607Z" fill="#B3C7EB"/>
<path d="M182.447 55.5514L182.681 55.5567L182.485 55.4237L182.144 55.3705L182.336 55.2162L180.83 55.0566L180.734 55.1843L180.878 55.2162L180.984 55.3386L182.447 55.5514Z" fill="#B3C7EB"/>
<path d="M181.367 53.5404L181.825 54.349L181.979 54.4288L182.24 54.3916L182.49 54.5193L182.772 54.4607L183.038 53.6308L183.336 53.4393L183.086 52.7371L183.415 52.4923L183.282 52.37L183.107 52.3168L182.931 52.1519L182.628 52.5881L182.527 52.6413L182.389 52.62L182.218 52.9286L181.931 53.0297L181.803 53.3116L181.495 53.2318L181.367 53.5404Z" fill="#B3C7EB"/>
<path d="M180.804 54.6523L180.835 54.4235L180.915 54.3703L180.921 54.2373L180.761 54.0618L180.734 54.1628L180.809 54.2639L180.692 54.2267L178.75 52.4977L180.527 54.9768H180.734L180.804 54.6523Z" fill="#B3C7EB"/>
<path d="M163.416 45.188L163.187 45.1933L163.027 45.2837L163.442 45.5497L163.57 45.1986L163.416 45.188Z" fill="#B3C7EB"/>
<path d="M162.188 44.5336L162.336 45.0125L162.469 44.9167L162.501 44.5656L162.326 44.4911L162.188 44.5336Z" fill="#B3C7EB"/>
<path d="M141.158 41.9747C141.158 43.2249 140.195 44.2676 139.003 44.2942C137.817 44.3261 136.859 43.3366 136.859 42.0864C136.859 40.8362 137.817 39.7988 139.003 39.7669C140.19 39.7349 141.158 40.7191 141.158 41.9747Z" fill="#39B4EF"/>
<path d="M144.503 51.2688C144.503 51.8486 144.056 52.3274 143.503 52.3381C142.949 52.3487 142.508 51.8912 142.508 51.3113C142.508 50.7314 142.955 50.258 143.503 50.242C144.056 50.2314 144.503 50.6942 144.503 51.2688Z" fill="#39B4EF"/>
<path d="M168.811 50.5771C168.811 52.6785 167.162 54.4075 165.135 54.4448C163.114 54.482 161.48 52.8169 161.48 50.7261C161.48 48.6353 163.114 46.9063 165.135 46.8585C167.162 46.8159 168.811 48.4757 168.811 50.5771Z" fill="#39B4EF"/>
<path d="M176.018 36.3993C176.018 37.2984 175.31 38.0432 174.438 38.0698C173.566 38.0964 172.863 37.3888 172.863 36.4951C172.863 35.6013 173.571 34.8512 174.438 34.8246C175.31 34.798 176.018 35.5055 176.018 36.3993Z" fill="#39B4EF"/>
<path d="M179.869 45.8211C179.869 46.8479 179.055 47.6991 178.055 47.7203C177.055 47.7416 176.246 46.9277 176.246 45.9062C176.246 44.8848 177.055 44.0283 178.055 44.007C179.055 43.9804 179.869 44.7943 179.869 45.8211Z" fill="#39B4EF"/>
<path d="M187.405 35.032C187.405 35.9098 186.708 36.644 185.846 36.6653C184.99 36.6919 184.293 36.0003 184.293 35.1225C184.293 34.2447 184.99 33.5159 185.846 33.4893C186.708 33.468 187.405 34.1542 187.405 35.032Z" fill="#39B4EF"/>
<path d="M242.921 182.343L25.1094 167" stroke="#002E47" stroke-miterlimit="10"/>
<path d="M36.2852 167.655V143.145" stroke="#002E47" stroke-miterlimit="10"/>
<path d="M56.875 168.963V145.108" stroke="#002E47" stroke-miterlimit="10"/>
<path d="M80.7305 170.926V146.417" stroke="#002E47" stroke-miterlimit="10"/>
<path d="M107.203 172.884V147.066" stroke="#002E47" stroke-miterlimit="10"/>
<path d="M134.648 174.517V147.066" stroke="#002E47" stroke-miterlimit="10"/>
<path d="M162.098 175.826V149.684" stroke="#002E47" stroke-miterlimit="10"/>
<path d="M191.352 179.566V151.317" stroke="#002E47" stroke-miterlimit="10"/>
<path d="M224.512 180.726V153.604" stroke="#002E47" stroke-miterlimit="10"/>
<path d="M242.92 186.163L24.4062 169.947" stroke="#002E47" stroke-miterlimit="10"/>
<path d="M236.062 250.343L242.59 251.104" stroke="#002E47" stroke-miterlimit="10"/>
<path d="M23.4062 225.568L228.764 249.492" stroke="#002E47" stroke-miterlimit="10"/>
<path d="M180.929 254.812C188.73 254.812 195.054 252.849 195.054 250.428C195.054 248.007 188.73 246.045 180.929 246.045C173.128 246.045 166.805 248.007 166.805 250.428C166.805 252.849 173.128 254.812 180.929 254.812Z" fill="#39B4EF"/>
<path opacity="0.5" d="M180.929 254.812C188.73 254.812 195.054 252.849 195.054 250.428C195.054 248.007 188.73 246.045 180.929 246.045C173.128 246.045 166.805 248.007 166.805 250.428C166.805 252.849 173.128 254.812 180.929 254.812Z" fill="white"/>
<path d="M169.555 227.201C167.964 229.771 166.996 233.106 166.996 236.751C166.996 244.88 171.779 251.466 177.673 251.466C183.568 251.466 188.351 244.88 188.351 236.751C188.351 233.106 187.388 229.771 185.792 227.201H169.555Z" fill="white" stroke="#002E47" stroke-miterlimit="10" stroke-linecap="round" stroke-linejoin="round"/>
<path d="M185.94 227.574C186.015 228.888 182.392 229.968 177.849 229.984C173.305 229.999 169.56 228.946 169.486 227.632C169.411 226.318 173.034 225.238 177.577 225.222C182.12 225.211 185.866 226.26 185.94 227.574Z" fill="white" stroke="#002E47" stroke-miterlimit="10" stroke-linecap="round" stroke-linejoin="round"/>
<path d="M185.287 228.542C183.925 227.739 181.062 227.191 177.769 227.201C174.412 227.212 171.566 227.808 170.332 228.643C171.694 229.446 174.556 230 177.849 229.984C181.206 229.973 184.058 229.377 185.287 228.542Z" fill="#002E47" stroke="#002E47" stroke-miterlimit="10" stroke-linecap="round" stroke-linejoin="round"/>
<path d="M157.863 157.477C157.863 157.477 158.853 159.35 157.975 161.116C157.092 162.882 155.991 164.643 156.65 165.526C157.31 166.41 159.294 167.511 159.076 169.383C158.858 171.256 156.209 175.007 157.863 177.103C159.518 179.199 162.273 179.087 162.385 181.401C162.497 183.716 159.741 185.588 160.513 187.684C161.284 189.78 165.806 190.222 165.806 191.653C165.806 193.084 164.04 194.627 165.476 196.175C166.907 197.718 173.844 201.745 174.834 200.09C175.823 198.436 177.824 193.861 176.51 187.365C176.292 186.274 174.738 186.03 174.515 184.487C174.291 182.944 174.956 180.188 173.855 178.646C172.754 177.103 169.227 176.549 169.003 175.337C168.785 174.124 170.328 171.15 168.785 169.272C167.242 167.399 163.603 166.516 163.603 165.303C163.603 164.09 164.705 162.547 163.162 160.893C161.608 159.244 157.863 157.477 157.863 157.477Z" fill="#39B4EF"/>
<path d="M163.141 170.469C165.434 177.401 169.455 186.785 171.089 191.323C173.073 196.835 174.797 200.825 175.68 206.336C176.09 208.9 176.414 218.248 176.643 227.52" stroke="#002E47" stroke-miterlimit="10" stroke-linecap="round" stroke-linejoin="round"/>
<path d="M158.41 158.142C158.41 158.142 160.283 159.685 161.937 166.41C162.044 166.841 162.166 167.303 162.304 167.782" stroke="#002E47" stroke-miterlimit="10" stroke-linecap="round" stroke-linejoin="round"/>
<path d="M192.319 170.038C192.319 170.038 191.526 171.538 192.229 172.948C192.936 174.358 193.814 175.773 193.287 176.475C192.761 177.183 191.17 178.066 191.345 179.561C191.521 181.061 193.638 184.061 192.314 185.737C190.989 187.413 188.786 187.328 188.696 189.179C188.606 191.031 190.813 192.531 190.196 194.207C189.579 195.882 185.962 196.234 185.962 197.383C185.962 198.532 187.371 199.766 186.228 201C185.078 202.234 179.53 205.458 178.737 204.134C177.944 202.809 176.348 199.149 177.396 193.951C177.572 193.079 178.817 192.882 178.992 191.648C179.168 190.413 178.641 188.206 179.519 186.971C180.402 185.737 183.222 185.296 183.403 184.322C183.578 183.354 182.344 180.97 183.578 179.47C184.812 177.97 187.722 177.262 187.722 176.294C187.722 175.326 186.839 174.086 188.074 172.767C189.318 171.448 192.319 170.038 192.319 170.038Z" fill="#39B4EF"/>
<path d="M188.094 180.433C186.258 185.977 183.04 193.494 181.731 197.122C180.145 201.532 178.762 204.724 178.055 209.14C177.704 211.348 177.427 219.833 177.246 227.77" stroke="#002E47" stroke-miterlimit="10" stroke-linecap="round" stroke-linejoin="round"/>
<path d="M191.879 170.57C191.879 170.57 190.379 171.804 189.054 177.188C188.969 177.534 188.873 177.901 188.762 178.284" stroke="#002E47" stroke-miterlimit="10" stroke-linecap="round" stroke-linejoin="round"/>
<path d="M161.986 195.021C161.986 195.021 162.651 196.276 162.061 197.452C161.47 198.633 160.736 199.809 161.178 200.399C161.619 200.99 162.949 201.724 162.8 202.979C162.651 204.235 160.885 206.74 161.992 208.14C163.098 209.539 164.939 209.464 165.014 211.012C165.088 212.561 163.242 213.811 163.758 215.215C164.274 216.614 167.296 216.912 167.296 217.87C167.296 218.828 166.115 219.86 167.072 220.892C168.03 221.924 172.669 224.616 173.329 223.509C173.994 222.403 175.329 219.344 174.446 215.002C174.297 214.274 173.26 214.109 173.111 213.077C172.962 212.045 173.403 210.204 172.669 209.172C171.93 208.14 169.573 207.773 169.424 206.959C169.275 206.15 170.307 204.16 169.275 202.905C168.243 201.649 165.812 201.064 165.812 200.25C165.812 199.441 166.551 198.409 165.519 197.303C164.492 196.196 161.986 195.021 161.986 195.021Z" fill="#39B4EF"/>
<path d="M165.512 203.703C167.044 208.336 169.736 214.614 170.826 217.646C172.151 221.333 173.306 223.999 173.896 227.685" stroke="#002E47" stroke-miterlimit="10" stroke-linecap="round" stroke-linejoin="round"/>
<path d="M162.355 195.462C162.355 195.462 163.611 196.494 164.712 200.99C164.781 201.277 164.867 201.585 164.957 201.905" stroke="#002E47" stroke-miterlimit="10" stroke-linecap="round" stroke-linejoin="round"/>
<path d="M199.947 193.185C199.947 193.185 199.016 194.254 199.32 195.537C199.623 196.819 200.07 198.138 199.506 198.612C198.942 199.085 197.479 199.5 197.335 200.75C197.192 202.006 198.341 204.847 196.942 205.959C195.542 207.07 193.766 206.576 193.34 208.065C192.914 209.555 194.42 211.199 193.601 212.444C192.781 213.688 189.77 213.284 189.547 214.215C189.329 215.146 190.238 216.423 189.068 217.205C187.898 217.992 182.769 219.551 182.375 218.322C181.982 217.093 181.386 213.811 183.232 209.784C183.541 209.108 184.589 209.188 184.972 208.214C185.349 207.246 185.344 205.347 186.296 204.511C187.249 203.676 189.632 203.857 189.962 203.102C190.292 202.346 189.744 200.17 191.031 199.191C192.324 198.207 194.824 198.191 195.01 197.399C195.197 196.611 194.713 195.436 195.973 194.595C197.24 193.76 199.947 193.185 199.947 193.185Z" fill="#39B4EF"/>
<path d="M194.528 200.83C191.974 204.99 187.921 210.486 186.165 213.188C184.032 216.471 181.467 218.572 180.877 222.259C180.696 223.387 180.542 225.456 180.414 227.781" stroke="#002E47" stroke-miterlimit="10" stroke-linecap="round" stroke-linejoin="round"/>
<path d="M199.49 193.531C199.49 193.531 198.033 194.249 195.931 198.372C195.793 198.638 195.644 198.915 195.484 199.207" stroke="#002E47" stroke-miterlimit="10" stroke-linecap="round" stroke-linejoin="round"/>
<path d="M88.1577 261.212C100.289 261.212 110.124 258.29 110.124 254.684C110.124 251.079 100.289 248.157 88.1577 248.157C76.026 248.157 66.1914 251.079 66.1914 254.684C66.1914 258.29 76.026 261.212 88.1577 261.212Z" fill="#39B4EF"/>
<path opacity="0.5" d="M88.1577 261.212C100.289 261.212 110.124 258.29 110.124 254.684C110.124 251.079 100.289 248.157 88.1577 248.157C76.026 248.157 66.1914 251.079 66.1914 254.684C66.1914 258.29 76.026 261.212 88.1577 261.212Z" fill="white"/>
<path d="M64.8555 176.422C64.8555 176.422 65.7652 184.466 66.1535 188.62C66.5419 192.775 67.5793 204.58 67.4516 206.012C67.3239 207.437 66.0259 222.275 66.0259 227.983C66.0259 233.692 66.8026 241.741 66.8026 241.741C66.8026 241.741 65.5045 243.948 65.7652 245.114C66.0259 246.284 66.2865 247.449 66.2865 248.098C66.2865 248.747 66.5472 249.657 66.5472 249.657C66.5472 249.657 68.4943 250.955 69.6594 251.083C70.8298 251.21 73.1653 250.434 73.1653 250.045C73.1653 249.657 74.2027 245.763 74.2027 244.337C74.2027 242.911 74.2027 243.427 74.5911 241.48C74.9794 239.533 79.1343 212.63 79.6504 210.166C80.1717 207.703 80.9485 189.142 80.9485 189.142L81.8582 190.828C81.8582 190.828 84.066 210.683 83.933 212.89C83.8053 215.098 83.0233 223.53 83.4116 227.425C83.8 231.319 84.582 240.921 84.582 241.959C84.582 242.996 84.3213 245.332 84.3213 246.241C84.3213 247.151 83.5446 248.577 83.933 249.226C84.3213 249.875 84.7097 251.173 84.7097 251.173C84.7097 251.173 89.3807 251.95 90.6787 251.95C91.9768 251.95 93.0142 250.779 93.0142 250.779C93.0142 250.779 93.0142 249.742 93.0142 248.572C93.0142 247.401 93.2749 246.364 93.2749 245.199C93.2749 244.028 93.4026 241.565 93.4026 239.746C93.4026 237.926 93.7909 235.724 93.9239 234.553C94.0516 233.383 95.8711 219.758 96.1317 214.699C96.3924 209.64 97.5575 198.218 97.5575 196.398C97.5575 194.579 97.4298 177.581 97.4298 177.581L97.1691 174.469C97.1691 174.469 83.5446 176.289 77.0542 175.379C70.5638 174.469 65.2438 174.209 65.2438 174.209L64.8555 176.422Z" fill="#002E47" stroke="#002E47" stroke-miterlimit="10" stroke-linecap="round" stroke-linejoin="round"/>
<path d="M73.6705 247.981C73.6705 247.981 73.314 248.338 72.5958 248.556C71.883 248.768 71.452 248.912 70.8775 248.125C70.3029 247.337 69.1591 246.406 68.2334 246.837C67.3024 247.268 66.2331 247.912 66.015 248.412C65.8022 248.912 65.9458 254.131 65.9458 255.137C65.9458 256.137 67.877 256.568 69.8082 256.637C71.7393 256.706 73.2396 255.637 73.2396 255.637C73.2396 255.637 74.8834 255.78 75.458 255.062C76.0326 254.349 75.7453 252.7 75.3888 252.131C75.0324 251.556 74.7451 251.056 74.245 250.056C73.7396 249.056 73.6705 247.981 73.6705 247.981Z" fill="white" stroke="#002E47" stroke-miterlimit="10" stroke-linecap="round" stroke-linejoin="round"/>
<path d="M75.4589 255.062C75.6451 254.828 75.7408 254.493 75.7728 254.131C74.8311 254.562 73.7192 254.291 73.3149 254.349C72.8148 254.418 71.6711 255.206 69.0962 255.062C67.5853 254.977 66.5426 254.62 65.9414 254.344C65.9467 254.695 65.952 254.972 65.952 255.131C65.952 256.131 67.8832 256.562 69.8144 256.631C71.7455 256.701 73.2458 255.631 73.2458 255.631C73.2458 255.631 74.8843 255.775 75.4589 255.062Z" fill="#39B4EF" stroke="#002E47" stroke-miterlimit="10" stroke-linecap="round" stroke-linejoin="round"/>
<path d="M72.9531 255.637L73.2404 252.2" stroke="#002E47" stroke-miterlimit="10" stroke-linecap="round" stroke-linejoin="round"/>
<path d="M71.4752 248.657C71.2837 248.577 71.0922 248.412 70.8847 248.125C70.3102 247.337 69.1664 246.406 68.2407 246.837C67.464 247.194 66.5915 247.704 66.2031 248.151C66.5117 249.034 67.2618 250.593 68.7408 250.7C69.9484 250.785 70.8847 249.726 71.4752 248.657Z" fill="#39B4EF" stroke="#002E47" stroke-miterlimit="10" stroke-linecap="round" stroke-linejoin="round"/>
<path d="M93.1211 249.614C93.1211 249.614 92.0465 249.902 91.4773 249.545C90.9027 249.189 90.0462 247.045 88.115 247.257C86.1839 247.47 85.3273 249.258 84.8964 249.476C84.4655 249.689 84.3963 249.763 84.2527 249.976C84.1091 250.189 84.0399 255.988 84.1091 256.557C84.1782 257.126 88.2587 257.701 90.7591 257.413C93.2595 257.126 94.1213 256.057 94.3341 255.913C94.5469 255.77 95.4779 255.482 95.6215 254.195C95.7652 252.907 95.3343 251.476 94.6214 250.976C93.9085 250.476 93.3339 249.902 93.3339 249.902L93.1211 249.614Z" fill="white" stroke="#002E47" stroke-miterlimit="10" stroke-linecap="round" stroke-linejoin="round"/>
<path d="M90.333 255.764C87.7315 255.817 85.1726 255.275 84.0873 254.801C84.082 255.663 84.0926 256.365 84.1139 256.552C84.1831 257.126 88.2635 257.695 90.7639 257.408C93.2643 257.121 94.1261 256.051 94.3389 255.908C94.5517 255.764 95.4827 255.477 95.6264 254.189C95.6636 253.87 95.6636 253.54 95.6317 253.221C95.5306 253.439 95.4083 253.673 95.2699 253.902C94.839 254.62 93.7644 255.695 90.333 255.764Z" fill="#39B4EF" stroke="#002E47" stroke-miterlimit="10" stroke-linecap="round" stroke-linejoin="round"/>
<path d="M93.1415 253.322L92.7266 256.865" stroke="#002E47" stroke-miterlimit="10" stroke-linecap="round" stroke-linejoin="round"/>
<path d="M88.3338 251.476C89.6212 251.625 91.0044 250.609 91.7652 249.662C91.6641 249.636 91.5683 249.598 91.4832 249.545C90.9086 249.189 90.0521 247.045 88.121 247.257C86.1898 247.47 85.3333 249.258 84.9024 249.476C84.897 249.476 86.4718 251.263 88.3338 251.476Z" fill="#39B4EF" stroke="#002E47" stroke-miterlimit="10" stroke-linecap="round" stroke-linejoin="round"/>
<path d="M80.9496 189.142L77.832 187.583" stroke="#B3C7EB" stroke-miterlimit="10" stroke-linecap="round" stroke-linejoin="round"/>
<path d="M87.5353 115.917C87.5353 115.917 88.312 114.619 88.5727 116.306C88.8334 117.992 88.1844 119.812 87.2746 120.461C86.3649 121.11 85.9766 120.461 85.9766 119.812C85.9819 119.157 87.5353 115.917 87.5353 115.917Z" fill="white" stroke="#002E47" stroke-miterlimit="10" stroke-linecap="round" stroke-linejoin="round"/>
<path d="M72.3515 116.566C72.3515 116.566 70.9258 116.178 70.9258 117.737C70.9258 119.296 73.0006 121.498 73.9103 120.982C74.82 120.455 72.3515 116.566 72.3515 116.566Z" fill="white" stroke="#002E47" stroke-miterlimit="10" stroke-linecap="round" stroke-linejoin="round"/>
<path d="M79.8782 101.378C79.8782 101.378 77.8513 104.751 75.7233 105.66C72.9995 106.831 70.7917 110.331 70.9193 113.188C71.047 116.045 75.2019 125.387 75.851 125.648C76.5 125.908 84.6769 125.259 84.9375 124.871C85.1982 124.483 86.3633 120.588 87.4007 116.827C88.4381 113.066 88.4381 111.119 88.4381 111.119C88.4381 111.119 88.9595 109.693 88.9595 107.358C88.9595 105.022 87.273 103.203 87.273 103.203L85.7143 105.15L86.2356 100.739C86.2356 100.739 84.5492 100.479 83.1234 101.388C81.6977 102.298 80.6603 103.596 80.6603 103.596L79.8782 101.378Z" fill="#002E47" stroke="#002E47" stroke-miterlimit="10" stroke-linecap="round" stroke-linejoin="round"/>
<path d="M125.428 104.889C125.237 104.309 124.657 104.309 124.173 103.054C123.689 101.798 122.338 102.085 121.954 101.894C121.566 101.702 121.566 101.506 121.763 100.926C121.954 100.346 122.439 98.4147 121.571 98.4147C120.704 98.4147 120.029 100.442 119.832 100.926C119.64 101.41 118.092 103.437 118.092 103.437C118.092 103.437 117.321 103.628 116.837 103.628C116.353 103.628 115.773 104.597 115.677 105.075C115.618 105.379 116.087 106.357 116.443 107.049C116.672 107.895 117.028 108.741 117.028 108.741C117.028 108.741 117.512 109.416 118.959 109.225C120.406 109.033 123.114 110.965 123.497 110.672C123.886 110.385 124.753 108.645 125.141 107.677C125.524 106.725 125.62 105.469 125.428 104.889Z" fill="white" stroke="#002E47" stroke-miterlimit="10" stroke-linecap="round" stroke-linejoin="round"/>
<path d="M62.9692 185.599C62.9692 185.599 64.7248 188.275 64.8153 189.291C64.9057 190.307 64.9057 192.249 65.0015 192.892C65.0919 193.542 64.7248 193.999 64.262 193.999C63.7991 193.999 63.5225 193.536 63.5225 193.536C63.5225 193.536 63.6129 194.462 63.7991 195.106C63.9853 195.755 65.0015 196.308 64.9057 196.952C64.8153 197.601 63.7991 197.877 62.4106 197.877C61.0221 197.877 59.3623 197.138 58.5323 195.196C57.7024 193.254 56.8672 187.716 56.8672 186.7C56.8778 185.689 62.0489 184.859 62.9692 185.599Z" fill="white" stroke="#002E47" stroke-miterlimit="10" stroke-linecap="round" stroke-linejoin="round"/>
<path d="M61.0322 189.014C61.0322 189.014 61.3993 189.844 60.6652 191.137C59.9257 192.43 59.5586 193.355 59.5586 193.632C59.5586 193.909 60.0214 194.739 60.3885 195.478C60.7556 196.218 61.9579 196.127 62.0537 196.771C62.1441 197.42 61.8675 197.787 61.8675 197.787" stroke="#002E47" stroke-miterlimit="10" stroke-linecap="round" stroke-linejoin="round"/>
<path d="M62.1992 192.967C62.1992 192.967 62.3269 194.191 62.6993 195.111C63.0664 196.037 65.0082 196.59 64.2687 197.606" stroke="#002E47" stroke-miterlimit="10" stroke-linecap="round" stroke-linejoin="round"/>
<path d="M61.0312 193.355C61.0312 193.355 61.2174 194.558 61.4941 195.111C61.7707 195.664 63.6168 196.217 63.2497 197.696" stroke="#002E47" stroke-miterlimit="10" stroke-linecap="round" stroke-linejoin="round"/>
<path d="M63.5272 193.542C63.5272 193.542 63.341 192.063 63.2506 191.509C63.1602 190.956 63.1602 189.94 63.1602 189.94" stroke="#002E47" stroke-miterlimit="10" stroke-linecap="round" stroke-linejoin="round"/>
<path d="M93.8222 128.92C93.8222 128.92 90.71 126.196 85.5177 125.158C80.3254 124.121 73.4466 125.807 70.7228 127.621C67.999 129.441 67.7383 132.553 67.7383 132.553L93.8222 128.92Z" fill="white" stroke="#002E47" stroke-miterlimit="10" stroke-linecap="round" stroke-linejoin="round"/>
<path d="M115.237 113.087C115.237 113.087 114.976 112.05 115.237 111.528C115.498 111.007 115.625 109.454 116.014 109.065C116.402 108.677 119.259 107.118 121.334 108.028C123.408 108.938 124.446 112.832 124.84 113.736C125.228 114.646 124.063 116.721 123.541 116.981C123.02 117.242 122.504 115.423 121.983 114.907C121.467 114.385 117.051 112.311 115.237 113.087Z" fill="white" stroke="#002E47" stroke-miterlimit="10" stroke-linecap="round" stroke-linejoin="round"/>
<path d="M80.9757 128.664C80.4543 128.792 70.591 130.09 66.1807 131.388C61.7705 132.686 58.1369 134.373 58.0039 136.059C57.8762 137.745 54.2693 169.181 54.1416 171.001C54.0139 172.82 55.312 183.327 55.961 183.721C56.6101 184.109 59.5946 184.37 60.632 183.982C61.6694 183.593 62.3184 182.811 62.3184 182.811L62.7068 174.118C62.7068 174.118 62.9675 177.103 63.4835 177.231C64.0049 177.358 72.1764 179.827 83.3377 178.917C94.4991 178.007 99.1701 176.321 100.08 175.672C100.989 175.023 100.857 173.076 100.857 173.076C100.857 173.076 100.984 171.65 100.984 170.219C100.984 168.793 96.8027 140.081 96.8027 140.081C96.8027 140.081 113.933 135.41 115.231 133.851C116.529 132.292 122.759 115.295 122.759 113.997C122.759 112.699 119.902 110.752 117.827 110.624C115.752 110.496 110.688 120.748 109.523 121.525C108.352 122.302 97.1963 126.717 93.0414 127.494C88.8918 128.271 80.9757 128.664 80.9757 128.664Z" fill="#39B4EF" stroke="#002E47" stroke-miterlimit="10" stroke-linecap="round" stroke-linejoin="round"/>
<path d="M76.8633 137.458C76.8633 137.458 78.6242 144.358 83.7633 147.199" stroke="#002E47" stroke-miterlimit="10" stroke-linecap="round" stroke-linejoin="round"/>
<path d="M84.4609 150.263C84.8493 150.466 85.243 150.662 85.6526 150.849" stroke="#002E47" stroke-miterlimit="10" stroke-linecap="round" stroke-linejoin="round"/>
<path d="M76.8633 144.63C76.8633 144.63 79.0551 146.992 82.5716 149.183" stroke="#002E47" stroke-miterlimit="10" stroke-linecap="round" stroke-linejoin="round"/>
<path d="M97.4779 145.342L96.8076 140.081L90.4023 142.443L92.8761 143.459C91.6685 144.518 90.0885 146.023 91.0673 145.848C91.9451 145.688 93.5677 144.874 94.7594 144.231L97.4779 145.342Z" fill="#002E47" stroke="#002E47" stroke-miterlimit="10" stroke-linecap="round" stroke-linejoin="round"/>
<path d="M61.5355 170.352C61.5355 168.016 62.674 144.236 62.674 144.236L62.2856 142.549L59.4022 137.969L60.9343 146.859C59.7161 146.481 57.2635 145.832 58.1945 147.066C58.9819 148.119 60.28 149.221 61.0993 149.875L60.2268 167.458C60.1523 168.926 60.5141 170.384 61.2589 171.655L62.1526 173.177C61.8494 172.522 61.5355 171.559 61.5355 170.352Z" fill="#002E47" stroke="#002E47" stroke-miterlimit="10" stroke-linecap="round" stroke-linejoin="round"/>
<path d="M62.1523 173.171C62.4343 173.778 62.7056 174.113 62.7056 174.113L62.1523 173.171Z" fill="#002E47" stroke="#002E47" stroke-miterlimit="10" stroke-linecap="round" stroke-linejoin="round"/>
<path d="M100.341 172.427C80.4865 181.38 62.707 174.113 62.707 174.113C62.707 174.113 62.9677 177.098 63.4838 177.225C64.0051 177.353 72.1766 179.821 83.338 178.912C94.4993 178.002 99.1703 176.316 100.08 175.666C100.99 175.017 100.857 173.07 100.857 173.07C100.857 173.07 100.883 172.772 100.915 172.31L100.341 172.427Z" fill="white" stroke="#002E47" stroke-miterlimit="10" stroke-linecap="round" stroke-linejoin="round"/>
<path d="M54.5312 182.417C54.5312 182.417 57.5158 183.716 59.9842 182.939C62.4474 182.162 63.0964 181.38 63.4901 181.513C63.8785 181.641 63.8785 184.758 63.4901 185.668C63.1018 186.578 62.192 187.227 59.4682 187.487C56.7444 187.748 55.3133 186.45 55.0579 185.668C54.7919 184.886 54.5312 182.417 54.5312 182.417Z" fill="white" stroke="#002E47" stroke-miterlimit="10" stroke-linecap="round" stroke-linejoin="round"/>
<path d="M43.7946 253.663C54.4571 253.663 63.1008 250.981 63.1008 247.673C63.1008 244.364 54.4571 241.682 43.7946 241.682C33.132 241.682 24.4883 244.364 24.4883 247.673C24.4883 250.981 33.132 253.663 43.7946 253.663Z" fill="#39B4EF"/>
<path opacity="0.5" d="M43.7946 253.663C54.4571 253.663 63.1008 250.981 63.1008 247.673C63.1008 244.364 54.4571 241.682 43.7946 241.682C33.132 241.682 24.4883 244.364 24.4883 247.673C24.4883 250.981 33.132 253.663 43.7946 253.663Z" fill="white"/>
<path d="M46.8439 111.688C46.8439 111.688 48.4559 113.582 48.3601 114.343C48.2644 115.098 48.5517 116.332 48.9294 116.806C49.3071 117.279 50.3498 117.657 50.3498 118.514C50.3498 119.37 49.7806 120.126 49.7806 120.126C49.7806 120.126 50.1583 123.913 49.7806 124.86C49.4029 125.807 47.8867 125.807 47.0355 125.807C46.1843 125.807 45.7108 125.712 45.4235 125.712C45.1415 125.712 43.4338 124.195 42.1091 120.881C40.7845 117.567 42.3007 112.64 43.4338 111.975C44.5723 111.31 46.8439 111.688 46.8439 111.688Z" fill="white" stroke="#002E47" stroke-miterlimit="10" stroke-linecap="round" stroke-linejoin="round"/>
<path d="M46.1836 117.471L50.0672 115.29" stroke="#002E47" stroke-miterlimit="10" stroke-linecap="round" stroke-linejoin="round"/>
<path d="M48.3594 114.912C48.3594 114.912 50.4448 114.343 49.6841 117.375" stroke="#002E47" stroke-miterlimit="10" stroke-linecap="round" stroke-linejoin="round"/>
<path d="M42.6929 128.686L42.1077 135.735L34.6172 133.974V128.393C34.6172 128.388 39.8999 127.212 42.6929 128.686Z" fill="white" stroke="#002E47" stroke-miterlimit="10" stroke-linecap="round" stroke-linejoin="round"/>
<path d="M41.9223 108.528C41.9223 108.528 39.8741 109.113 37.6823 108.821C35.4904 108.528 30.6652 109.113 29.3511 112.327C28.0371 115.54 29.6437 118.466 29.4948 119.344C29.3511 120.221 27.0103 121.535 27.0103 122.849C27.0103 124.164 28.0318 125.334 27.5955 126.355C27.1593 127.377 26.4251 128.255 27.0103 129.276C27.5955 130.297 29.931 128.547 30.2236 129.569C30.5162 130.59 32.7081 131.909 33.7295 131.909C34.7509 131.909 35.9213 129.718 36.5065 130.595C37.0917 131.473 38.2621 132.351 39.4272 132.202C40.5976 132.058 41.1722 129.356 43.6673 130.446C46.1198 131.521 46.971 129.255 46.8805 127.233C46.7954 125.329 44.5397 122.701 44.9813 121.243C45.4175 119.78 46.2953 118.758 46.0027 117.152C45.7101 115.545 44.3961 114.96 45.1249 113.79C45.8538 112.619 46.8805 112.619 47.1731 111.161C47.4657 109.698 46.8805 107.799 44.6887 107.507C42.5075 107.214 41.9223 108.528 41.9223 108.528Z" fill="white" stroke="#002E47" stroke-miterlimit="10" stroke-linecap="round" stroke-linejoin="round"/>
<path d="M28.7414 183.169C28.7414 183.169 30.7949 194.915 29.7681 206.226C29.3532 210.764 27.1241 211.955 26.5389 217.972C25.9537 223.994 28.0072 236.183 26.9804 242.646C26.8421 243.53 25.8047 245.732 26.9804 246.908C28.1562 248.083 32.2685 247.349 33.4442 247.349C34.62 247.349 37.4076 246.908 37.7056 246.174C37.9982 245.439 35.9446 244.705 34.62 242.21C33.3006 239.715 32.2685 236.337 32.2685 232.959C32.2685 229.581 34.322 220.036 35.9393 212.253C37.5566 204.47 38.4344 200.209 38.4344 195.804C38.4344 191.399 38.4344 182.733 38.4344 181.998C38.4344 181.264 34.471 179.503 31.3854 180.089C28.3051 180.674 28.7414 183.169 28.7414 183.169Z" fill="white" stroke="#002E47" stroke-miterlimit="10" stroke-linecap="round" stroke-linejoin="round"/>
<path d="M34.6186 242.204C34.3952 241.778 34.1824 241.315 33.9749 240.842C33.5972 241.65 33.4589 242.624 32.7088 242.789C31.3894 243.082 26.9791 242.64 26.9791 242.64C26.8302 243.523 25.8034 245.726 26.9791 246.901C28.1548 248.077 32.2672 247.343 33.4429 247.343C34.6186 247.343 37.4063 246.901 37.7042 246.167C37.9968 245.433 35.938 244.699 34.6186 242.204Z" fill="#002E47" stroke="#002E47" stroke-miterlimit="10" stroke-linecap="round" stroke-linejoin="round"/>
<path d="M32.591 236.293C32.3889 235.203 32.2665 234.08 32.2665 232.952C32.2665 229.574 34.32 220.03 35.9373 212.247C37.5546 204.464 38.4324 200.202 38.4324 195.797C38.4324 191.392 38.4324 182.726 38.4324 181.992C38.4324 181.258 34.469 179.497 31.3834 180.082C28.2978 180.667 28.7393 183.168 28.7393 183.168C28.7393 183.168 30.7929 194.914 29.7661 206.225C29.3511 210.763 27.1221 211.954 26.5369 217.971C26.1113 222.344 27.0795 229.968 27.2444 236.293C28.5265 236.618 30.3885 236.82 32.591 236.293Z" fill="#39B4EF" stroke="#002E47" stroke-miterlimit="10" stroke-linecap="round" stroke-linejoin="round"/>
<path d="M26.8359 233.537C26.8359 233.537 29.0384 233.979 30.2141 233.979C31.3899 233.979 33.0018 233.394 33.0018 233.394L33.4434 237.214C33.4434 237.214 30.9483 237.948 29.331 237.948C27.7137 237.948 27.1285 237.655 27.1285 237.655C27.1285 237.655 26.8359 234.713 26.8359 233.537Z" fill="white" stroke="#002E47" stroke-miterlimit="10" stroke-linecap="round" stroke-linejoin="round"/>
<path d="M27.1308 172.299C27.1308 172.299 26.2477 178.172 27.1308 181.109C28.0139 184.045 30.36 188.158 30.9505 189.333C31.5411 190.509 32.2699 194.18 32.2699 194.914C32.2699 195.648 32.8551 204.315 31.9773 208.72C31.0942 213.125 30.0674 215.62 30.0674 219.881C30.0674 224.142 32.1209 240.038 32.1209 242.826C32.1209 245.614 31.0942 249.141 31.8283 249.875C32.5625 250.609 45.1922 249.114 46.3679 248.673C47.5436 248.231 47.5436 246.912 47.1021 246.321C46.6605 245.736 41.3724 244.002 40.4946 243.268C39.6115 242.533 39.0263 240.182 38.8773 239.155C38.7284 238.129 39.1699 222.376 39.7605 218.854C40.3457 215.327 42.6971 208.427 44.0218 204.607C45.3411 200.787 47.6926 187.28 47.6926 182.433C47.6926 177.587 47.251 173.767 47.251 173.767C47.251 173.767 33.5893 174.794 27.1308 172.299Z" fill="white" stroke="#002E47" stroke-miterlimit="10" stroke-linecap="round" stroke-linejoin="round"/>
<path d="M46.3646 248.673C47.5403 248.231 47.5403 246.912 47.0987 246.321C46.6572 245.736 41.3691 244.002 40.4913 243.268C40.3636 243.161 40.2412 243.018 40.1295 242.853L39.7571 245.177C39.7571 245.177 38.4378 246.353 36.5279 246.353C35.0596 246.353 32.8996 245.396 31.9793 244.959C31.7239 247.178 31.2079 249.407 31.8303 249.88C34.8095 252.147 45.1888 249.114 46.3646 248.673Z" fill="#002E47" stroke="#002E47" stroke-miterlimit="10" stroke-linecap="round" stroke-linejoin="round"/>
<path d="M38.8482 238.607C38.8057 235.798 39.2206 222.073 39.7526 218.854C40.3378 215.327 42.6893 208.427 44.014 204.607C45.3333 200.787 47.6848 187.28 47.6848 182.433C47.6848 177.587 47.2432 173.767 47.2432 173.767C47.2432 173.767 33.5868 174.794 27.123 172.299C27.123 172.299 26.2398 178.172 27.123 181.109C28.0061 184.045 30.3522 188.158 30.9427 189.333C31.5332 190.509 32.2621 194.18 32.2621 194.914C32.2621 195.648 32.8473 204.315 31.9695 208.72C31.0864 213.125 30.0596 215.62 30.0596 219.881C30.0596 222.897 31.0917 232.713 31.6928 238.043C33.1399 238.416 35.1987 238.863 36.816 238.863C37.5555 238.863 38.2418 238.756 38.8482 238.607Z" fill="#39B4EF" stroke="#002E47" stroke-miterlimit="10" stroke-linecap="round" stroke-linejoin="round"/>
<path d="M31.682 239.889C31.682 239.889 33.0013 240.475 34.7676 240.475C36.5338 240.475 39.1725 240.916 39.0289 240.033C38.8799 239.15 39.1778 236.213 39.1778 236.213C39.1778 236.213 35.9486 236.655 34.0387 236.362C32.1288 236.07 30.9531 235.921 30.9531 235.921C30.9531 235.921 31.2404 239.012 31.682 239.889Z" fill="white" stroke="#002E47" stroke-miterlimit="10" stroke-linecap="round" stroke-linejoin="round"/>
<path d="M43.7212 137.347C43.7212 137.347 41.6677 134.41 37.6989 133.383C33.7355 132.356 29.9158 138.23 28.889 141.459C27.8623 144.688 27.7133 153.354 26.245 157.759C24.7767 162.164 23.7499 170.974 24.3351 172.006C24.9203 173.033 37.55 176.268 41.9603 176.268C46.3652 176.268 51.0681 172.741 51.2117 170.98C51.3607 169.219 50.4776 157.467 49.7434 151.152C49.0093 144.837 43.7212 137.347 43.7212 137.347Z" fill="#002E47" stroke="#002E47" stroke-miterlimit="10" stroke-linecap="round" stroke-linejoin="round"/>
<path d="M41.7624 186.173C41.7624 186.173 41.7145 188.211 41.7624 189.408C41.8103 190.6 41.5656 191.845 41.3155 192.643C41.0655 193.441 40.4697 193.983 40.4218 193.441C40.3739 192.898 40.6186 191.898 40.6186 191.451C40.6186 191.004 40.4697 188.961 40.4697 188.961C40.4697 188.961 40.3207 190.004 40.0228 191.148C39.7249 192.291 38.879 193.483 38.48 193.584C38.081 193.685 37.8309 193.334 38.0331 192.786C38.2299 192.238 38.73 190.648 38.7779 190.296C38.8258 189.951 38.8258 188.855 38.8258 188.855C38.8258 188.855 37.8788 191.589 37.4851 192.19C37.0861 192.786 37.0383 193.084 36.6393 193.137C36.2403 193.185 36.2935 192.339 36.5382 191.696C36.7882 191.047 37.1872 188.961 37.1872 188.759C37.1872 188.562 36.7403 189.653 36.1924 190.254C35.6444 190.85 35.2454 191.35 35.0007 191.249C34.7507 191.148 35.1018 190.206 35.2986 189.754C35.4955 189.307 35.7987 188.413 35.7987 188.11C35.7987 187.812 35.7987 186.817 35.7987 186.817C35.7987 186.817 35.3518 185.822 37.4426 185.477C39.5227 185.131 41.3155 184.732 41.7624 186.173Z" fill="white" stroke="#002E47" stroke-miterlimit="10" stroke-linecap="round" stroke-linejoin="round"/>
<path d="M34.4744 184.785C34.4744 184.785 34.0062 186.104 35.1021 186.838C36.1981 187.573 40.1083 188.158 41.3585 186.987C42.6087 185.812 42.6087 184.636 42.6087 184.636L34.4744 184.785Z" fill="white" stroke="#002E47" stroke-miterlimit="10" stroke-linecap="round" stroke-linejoin="round"/>
<path d="M35.6453 139.107C35.6453 139.107 32.4161 144.395 32.4161 147.774C32.4161 151.152 30.6551 174.794 30.5062 177.731C30.3572 180.667 30.6551 183.019 32.4161 184.487C34.177 185.955 41.3749 185.955 43.2848 185.221C45.1947 184.487 46.9556 181.109 46.9556 178.757C46.9556 176.406 44.7531 159.079 44.3116 155.701C43.87 152.322 43.7264 143.363 42.4017 141.31C41.0823 139.256 40.6408 139.107 40.6408 139.107" fill="#002E47"/>
<path d="M35.6453 139.107C35.6453 139.107 32.4161 144.395 32.4161 147.774C32.4161 151.152 30.6551 174.794 30.5062 177.731C30.3572 180.667 30.6551 183.019 32.4161 184.487C34.177 185.955 41.3749 185.955 43.2848 185.221C45.1947 184.487 46.9556 181.109 46.9556 178.757C46.9556 176.406 44.7531 159.079 44.3116 155.701C43.87 152.322 43.7264 143.363 42.4017 141.31C41.0823 139.256 40.6408 139.107 40.6408 139.107" stroke="#002E47" stroke-miterlimit="10" stroke-linecap="round" stroke-linejoin="round"/>
<path d="M30.8203 172.416C30.8203 172.416 31.7247 151.95 32.4163 147.774C33.1079 143.603 34.8263 140.166 34.8263 140.166" stroke="#B3C7EB" stroke-miterlimit="10" stroke-linecap="round" stroke-linejoin="round"/>
<path d="M41.5039 140.358C41.5039 140.358 44.0415 145.236 44.1745 150.471C44.3075 155.706 46.0844 172.416 46.0844 172.416" stroke="#B3C7EB" stroke-miterlimit="10" stroke-linecap="round" stroke-linejoin="round"/>
<path d="M43.5781 145.422L44.0144 142.486" stroke="#B3C7EB" stroke-miterlimit="10" stroke-linecap="round" stroke-linejoin="round"/>
</svg>
