<svg width="443" height="438" viewBox="0 0 443 438" fill="none" xmlns="http://www.w3.org/2000/svg">
<g clip-path="url(#clip0_266_51050)">
<path opacity="0.7" d="M42.9572 136.563C42.9572 136.563 15.4499 207.667 54.1061 279.284C92.7525 350.912 172.384 388.72 236.11 421.067C299.837 453.414 366.01 437.66 397.454 384.681C428.898 331.701 385.762 293.882 385.713 218.334C385.664 142.786 397.01 122.785 356.154 58.9603C315.297 -4.86421 215.006 -18.9981 139.193 28.3419C63.3805 75.6819 42.9572 136.563 42.9572 136.563Z" fill="white"/>
<path d="M201.133 22.2183C323.515 11.3043 323.712 80.4228 378.855 144.82C433.998 209.218 445.798 238.404 425.01 312.639C404.222 386.864 334.18 445.058 247.525 412.089C160.869 379.12 111.231 410.785 56.5719 381.5C1.91244 352.225 -18.3826 295.66 21.6253 228.991C61.6333 162.322 50.2377 35.6706 201.133 22.2183Z" fill="#39B4EF"/>
<path opacity="0.7" d="M201.133 22.2183C323.515 11.3043 323.712 80.4228 378.855 144.82C433.998 209.218 445.798 238.404 425.01 312.639C404.222 386.864 334.18 445.058 247.525 412.089C160.869 379.12 111.231 410.785 56.5719 381.5C1.91244 352.225 -18.3826 295.66 21.6253 228.991C61.6333 162.322 50.2377 35.6706 201.133 22.2183Z" fill="white"/>
<path d="M235.233 56.738L215.106 60.9851C212.392 61.5579 209.729 59.8196 209.156 57.1035L204.914 36.9546C204.342 34.2384 206.078 31.5717 208.791 30.9988L228.919 26.7517C231.632 26.1789 234.296 27.9172 234.868 30.6334L239.11 50.7822C239.683 53.4984 237.946 56.1652 235.233 56.738Z" stroke="#002E47" stroke-miterlimit="10" stroke-linecap="round" stroke-linejoin="round"/>
<path d="M220.73 37.7546L223.296 49.9822" stroke="#002E47" stroke-miterlimit="10" stroke-linecap="round" stroke-linejoin="round"/>
<path d="M228.121 42.5745L215.906 45.1524" stroke="#002E47" stroke-miterlimit="10" stroke-linecap="round" stroke-linejoin="round"/>
<path d="M438.155 272.193L418.028 276.44C415.314 277.013 412.65 275.274 412.078 272.558L407.836 252.409C407.263 249.693 409 247.026 411.713 246.454L431.84 242.206C434.554 241.634 437.218 243.372 437.79 246.088L442.032 266.237C442.605 268.953 440.868 271.62 438.155 272.193Z" stroke="#002E47" stroke-miterlimit="10" stroke-linecap="round" stroke-linejoin="round"/>
<path d="M428.349 254.078L421.531 264.548" stroke="#002E47" stroke-miterlimit="10" stroke-linecap="round" stroke-linejoin="round"/>
<path d="M430.161 262.731L419.703 255.896" stroke="#002E47" stroke-miterlimit="10" stroke-linecap="round" stroke-linejoin="round"/>
<path d="M158.928 402.894L138.387 401.708C135.614 401.55 133.503 399.17 133.661 396.395L134.845 375.831C135.002 373.056 137.38 370.942 140.153 371.1L160.694 372.285C163.467 372.443 165.578 374.824 165.42 377.599L164.236 398.163C164.079 400.928 161.701 403.052 158.928 402.894Z" stroke="#002E47" stroke-miterlimit="10" stroke-linecap="round" stroke-linejoin="round"/>
<path d="M155.78 387.357L143.309 386.636" stroke="#002E47" stroke-miterlimit="10" stroke-linecap="round" stroke-linejoin="round"/>
<path d="M27.6858 259.145L8.16032 252.666C5.52601 251.797 4.0954 248.952 4.9735 246.315L11.4458 226.769C12.314 224.132 15.1555 222.7 17.7898 223.579L37.3153 230.058C39.9496 230.927 41.3802 233.772 40.5021 236.409L34.0298 255.955C33.1616 258.592 30.3201 260.024 27.6858 259.145Z" stroke="#002E47" stroke-miterlimit="10" stroke-linecap="round" stroke-linejoin="round"/>
<path d="M30.5481 237.436L14.9297 245.288" stroke="#002E47" stroke-miterlimit="10" stroke-linecap="round" stroke-linejoin="round"/>
<path d="M21.5881 234.206C22.1307 235.283 21.6966 236.596 20.6212 237.14C19.5458 237.683 18.2335 237.248 17.6909 236.172C17.1482 235.095 17.5824 233.781 18.6578 233.238C19.7332 232.695 21.0454 233.13 21.5881 234.206Z" stroke="#002E47" stroke-miterlimit="10" stroke-linecap="round" stroke-linejoin="round"/>
<path d="M27.7834 246.562C28.3261 247.639 27.8919 248.952 26.8165 249.496C25.7411 250.039 24.4289 249.604 23.8862 248.528C23.3436 247.451 23.7777 246.137 24.8531 245.594C25.9285 245.051 27.2408 245.486 27.7834 246.562Z" stroke="#002E47" stroke-miterlimit="10" stroke-linecap="round" stroke-linejoin="round"/>
<path d="M230.192 367.386C224.49 375.653 213.163 377.718 204.905 372.009C201.718 369.796 199.459 366.754 198.196 363.376C196.213 357.993 196.785 351.761 200.287 346.684C202.734 343.148 206.207 340.748 210.025 339.612C215.136 338.072 220.859 338.803 225.585 342.072C233.843 347.781 235.905 359.119 230.192 367.386Z" fill="#39B4EF"/>
<mask id="mask0_266_51050" style="mask-type:luminance" maskUnits="userSpaceOnUse" x="197" y="338" width="37" height="38">
<path d="M230.192 367.386C224.49 375.653 213.163 377.718 204.905 372.009C201.718 369.796 199.459 366.754 198.196 363.376C196.213 357.993 196.785 351.761 200.287 346.684C202.734 343.148 206.207 340.748 210.025 339.612C215.136 338.072 220.859 338.803 225.585 342.072C233.843 347.781 235.905 359.119 230.192 367.386Z" fill="white"/>
</mask>
<g mask="url(#mask0_266_51050)">
<path opacity="0.3" d="M227.824 365.747C223.019 372.7 213.498 374.438 206.542 369.628C199.587 364.818 197.86 355.287 202.665 348.324C207.47 341.371 216.991 339.632 223.947 344.442C230.893 349.252 232.629 358.784 227.824 365.747Z" fill="#002E47"/>
</g>
<mask id="mask1_266_51050" style="mask-type:luminance" maskUnits="userSpaceOnUse" x="197" y="338" width="37" height="38">
<path d="M230.192 367.386C224.49 375.653 213.163 377.718 204.905 372.009C201.718 369.796 199.459 366.754 198.196 363.376C196.213 357.993 196.785 351.761 200.287 346.684C202.734 343.148 206.207 340.748 210.025 339.612C215.136 338.072 220.859 338.803 225.585 342.072C233.843 347.781 235.905 359.119 230.192 367.386Z" fill="white"/>
</mask>
<g mask="url(#mask1_266_51050)">
<path d="M227.824 365.747C223.019 372.7 213.498 374.438 206.542 369.628C199.587 364.818 197.86 355.287 202.665 348.324C207.47 341.371 216.991 339.632 223.947 344.442C230.893 349.252 232.629 358.784 227.824 365.747Z" stroke="#002E47" stroke-miterlimit="10" stroke-linecap="round" stroke-linejoin="round"/>
</g>
<mask id="mask2_266_51050" style="mask-type:luminance" maskUnits="userSpaceOnUse" x="197" y="338" width="37" height="38">
<path d="M230.192 367.386C224.49 375.653 213.163 377.718 204.905 372.009C201.718 369.796 199.459 366.754 198.196 363.376C196.213 357.993 196.785 351.761 200.287 346.684C202.734 343.148 206.207 340.748 210.025 339.612C215.136 338.072 220.859 338.803 225.585 342.072C233.843 347.781 235.905 359.119 230.192 367.386Z" fill="white"/>
</mask>
<g mask="url(#mask2_266_51050)">
<path d="M219.163 349.391L219.893 348.324L221.728 349.598L220.998 350.665C222.369 352.097 222.33 353.885 220.998 355.82L220.682 356.275L218.561 354.803L218.966 354.211C219.676 353.193 219.528 352.522 218.818 352.028C218.107 351.534 217.426 351.643 216.726 352.66C216.025 353.677 215.937 354.675 216.617 356.927C217.436 359.672 217.298 361.233 216.164 362.863C214.822 364.799 213.125 365.47 211.309 364.69L210.589 365.737L208.754 364.463L209.474 363.416C208.083 361.974 208.132 360.166 209.474 358.221L210.155 357.243L212.276 358.714L211.497 359.84C210.786 360.858 210.984 361.539 211.704 362.033C212.414 362.527 213.125 362.468 213.825 361.45C214.526 360.433 214.634 359.416 213.934 357.183C213.095 354.457 213.253 352.877 214.388 351.247C215.71 349.331 217.357 348.65 219.163 349.391Z" fill="#39B4EF" stroke="#002E47" stroke-miterlimit="10" stroke-linecap="round" stroke-linejoin="round"/>
</g>
<mask id="mask3_266_51050" style="mask-type:luminance" maskUnits="userSpaceOnUse" x="197" y="338" width="37" height="38">
<path d="M230.192 367.386C224.49 375.653 213.163 377.718 204.905 372.009C201.718 369.796 199.459 366.754 198.196 363.376C196.213 357.993 196.785 351.761 200.287 346.684C202.734 343.148 206.207 340.748 210.025 339.612C215.136 338.072 220.859 338.803 225.585 342.072C233.843 347.781 235.905 359.119 230.192 367.386Z" fill="white"/>
</mask>
<g mask="url(#mask3_266_51050)">
<path opacity="0.2" d="M210.173 342.289C210.173 351.257 205.369 359.1 198.196 363.376C196.213 357.993 196.785 351.761 200.287 346.684C202.734 343.148 206.207 340.748 210.025 339.612C210.124 340.492 210.173 341.38 210.173 342.289Z" fill="#002E47"/>
</g>
<path d="M230.192 367.386C224.49 375.653 213.163 377.718 204.905 372.009C201.718 369.796 199.459 366.754 198.196 363.376C196.213 357.993 196.785 351.761 200.287 346.684C202.734 343.148 206.207 340.748 210.025 339.612C215.136 338.072 220.859 338.803 225.585 342.072C233.843 347.781 235.905 359.119 230.192 367.386Z" stroke="#002E47" stroke-miterlimit="10" stroke-linecap="round" stroke-linejoin="round"/>
<path d="M189.285 359.929C199.328 359.929 207.469 351.779 207.469 341.726C207.469 331.673 199.328 323.523 189.285 323.523C179.243 323.523 171.102 331.673 171.102 341.726C171.102 351.779 179.243 359.929 189.285 359.929Z" fill="#39B4EF" stroke="#002E47" stroke-miterlimit="10" stroke-linecap="round" stroke-linejoin="round"/>
<path opacity="0.3" d="M189.285 357.035C197.731 357.035 204.578 350.181 204.578 341.726C204.578 333.271 197.731 326.417 189.285 326.417C180.839 326.417 173.992 333.271 173.992 341.726C173.992 350.181 180.839 357.035 189.285 357.035Z" fill="#002E47"/>
<path d="M189.285 357.035C197.731 357.035 204.578 350.181 204.578 341.726C204.578 333.271 197.731 326.417 189.285 326.417C180.839 326.417 173.992 333.271 173.992 341.726C173.992 350.181 180.839 357.035 189.285 357.035Z" stroke="#002E47" stroke-miterlimit="10" stroke-linecap="round" stroke-linejoin="round"/>
<path d="M188.169 333.202V331.908H190.399V333.202C192.332 333.597 193.329 335.089 193.329 337.449V337.993H190.744V337.272C190.744 336.027 190.251 335.553 189.382 335.553C188.514 335.553 188.021 336.027 188.021 337.272C188.021 338.516 188.514 339.385 190.349 340.847C192.579 342.635 193.349 343.998 193.349 345.983C193.349 348.344 192.332 349.855 190.399 350.25V351.514H188.169V350.25C186.205 349.855 185.219 348.334 185.219 345.983V344.788H187.804V346.151C187.804 347.395 188.346 347.84 189.215 347.84C190.083 347.84 190.626 347.395 190.626 346.151C190.626 344.906 190.132 344.018 188.297 342.576C186.067 340.808 185.298 339.425 185.298 337.43C185.288 335.118 186.255 333.627 188.169 333.202Z" fill="#39B4EF" stroke="#002E47" stroke-miterlimit="10" stroke-linecap="round" stroke-linejoin="round"/>
<path d="M291.341 357.007C296.759 348.543 294.297 337.284 285.841 331.86C277.385 326.436 266.138 328.901 260.72 337.366C255.302 345.831 257.765 357.09 266.221 362.514C274.677 367.938 285.924 365.472 291.341 357.007Z" fill="#39B4EF" stroke="#002E47" stroke-miterlimit="10" stroke-linecap="round" stroke-linejoin="round"/>
<path opacity="0.3" d="M287.231 336.788C292.983 342.98 292.618 352.67 286.432 358.428C280.245 364.186 270.567 363.821 264.814 357.628C259.062 351.435 259.427 341.746 265.614 335.988C271.81 330.229 281.489 330.585 287.231 336.788Z" fill="#002E47"/>
<path d="M287.231 336.788C292.983 342.98 292.618 352.67 286.432 358.428C280.245 364.186 270.567 363.821 264.814 357.628C259.062 351.435 259.427 341.746 265.614 335.988C271.81 330.229 281.489 330.585 287.231 336.788Z" stroke="#002E47" stroke-miterlimit="10" stroke-linecap="round" stroke-linejoin="round"/>
<path d="M269.421 341.726L268.543 340.778L270.181 339.257L271.059 340.205C272.746 339.178 274.482 339.593 276.091 341.321L276.466 341.726L274.571 343.484L274.078 342.961C273.229 342.052 272.549 342.042 271.917 342.635C271.286 343.227 271.236 343.909 272.085 344.818C272.933 345.726 273.881 346.023 276.229 345.845C279.08 345.637 280.57 346.111 281.922 347.563C283.53 349.292 283.806 351.099 282.662 352.699L283.52 353.628L281.882 355.149L281.024 354.22C279.317 355.267 277.561 354.833 275.962 353.104L275.153 352.235L277.048 350.477L277.975 351.475C278.824 352.383 279.524 352.344 280.156 351.751C280.787 351.159 280.886 350.457 280.047 349.549C279.199 348.64 278.232 348.324 275.903 348.521C273.072 348.749 271.562 348.255 270.21 346.803C268.612 345.084 268.306 343.336 269.421 341.726Z" fill="#39B4EF" stroke="#002E47" stroke-miterlimit="10" stroke-linecap="round" stroke-linejoin="round"/>
<path opacity="0.2" d="M268.542 268.084C268.542 268.084 268.463 305.853 268.542 308.056C268.621 310.258 271.472 323.523 271.472 323.523L262.316 340.422L270.2 346.783L285.542 331.681C285.542 331.681 298.605 339.761 300.992 351.317C303.38 362.873 317.597 371.288 332.348 403.289C347.098 435.29 363.92 331.681 363.92 331.681L318.406 274.316L268.542 268.084Z" fill="#002E47"/>
<path d="M407.679 65.1729L393.738 201.356L385.164 285.131L265.347 272.845L242.033 270.454L227.105 268.923L240.336 139.635L249.62 48.9649L407.679 65.1729Z" fill="white"/>
<mask id="mask4_266_51050" style="mask-type:luminance" maskUnits="userSpaceOnUse" x="227" y="48" width="181" height="238">
<path d="M407.679 65.1729L393.738 201.356L385.164 285.131L265.347 272.845L242.033 270.454L227.105 268.923L240.336 139.635L249.62 48.9649L407.679 65.1729Z" fill="white"/>
</mask>
<g mask="url(#mask4_266_51050)">
<path d="M361.769 70.2595L293.544 63.2568C292.261 63.1284 291.117 64.0568 290.988 65.3408C290.86 66.6248 291.788 67.7705 293.07 67.8989L361.296 74.9016C362.578 75.03 363.723 74.1016 363.851 72.8176C363.989 71.5336 363.052 70.3879 361.769 70.2595Z" fill="#002E47"/>
</g>
<mask id="mask5_266_51050" style="mask-type:luminance" maskUnits="userSpaceOnUse" x="227" y="48" width="181" height="238">
<path d="M407.679 65.1729L393.738 201.356L385.164 285.131L265.347 272.845L242.033 270.454L227.105 268.923L240.336 139.635L249.62 48.9649L407.679 65.1729Z" fill="white"/>
</mask>
<g mask="url(#mask5_266_51050)">
<path d="M343.747 78.0524L309.629 74.5559C308.988 74.4868 308.416 74.9609 308.347 75.593C308.277 76.235 308.751 76.8079 309.382 76.877L343.5 80.3734C344.142 80.4426 344.714 79.9685 344.783 79.3364C344.852 78.6845 344.378 78.1116 343.747 78.0524Z" fill="#002E47"/>
</g>
<mask id="mask6_266_51050" style="mask-type:luminance" maskUnits="userSpaceOnUse" x="227" y="48" width="181" height="238">
<path d="M407.679 65.1729L393.738 201.356L385.164 285.131L265.347 272.845L242.033 270.454L227.105 268.923L240.336 139.635L249.62 48.9649L407.679 65.1729Z" fill="white"/>
</mask>
<g mask="url(#mask6_266_51050)">
<path d="M381.279 178.56L270.539 167.201C269.898 167.132 269.326 167.606 269.257 168.238C269.188 168.88 269.661 169.453 270.293 169.522L381.032 180.881C381.674 180.95 382.246 180.476 382.315 179.844C382.384 179.212 381.92 178.619 381.279 178.56Z" fill="#002E47"/>
<path d="M380.418 186.906L251.653 173.7C251.011 173.631 250.439 174.105 250.37 174.737C250.301 175.379 250.775 175.952 251.406 176.021L380.171 189.227C380.813 189.296 381.385 188.822 381.454 188.19C381.523 187.548 381.059 186.975 380.418 186.906Z" fill="#002E47"/>
<path d="M343.509 191.558L250.805 182.046C250.164 181.977 249.591 182.451 249.522 183.083C249.453 183.725 249.927 184.298 250.558 184.367L343.262 193.879C343.904 193.948 344.476 193.474 344.545 192.842C344.614 192.21 344.15 191.617 343.509 191.558Z" fill="#002E47"/>
</g>
<mask id="mask7_266_51050" style="mask-type:luminance" maskUnits="userSpaceOnUse" x="139" y="105" width="250" height="202">
<path d="M172.047 105.809L305.977 133.589L388.367 150.677L363.968 268.717L359.221 291.686L356.181 306.392L229.03 280.023L139.861 261.524L172.047 105.809Z" fill="white"/>
</mask>
<g mask="url(#mask7_266_51050)">
<path d="M249.333 191.042L245.57 227.839L375.388 241.16L379.15 204.364L249.333 191.042Z" fill="#E2EDFF" stroke="#002E47" stroke-miterlimit="10"/>
</g>
<mask id="mask8_266_51050" style="mask-type:luminance" maskUnits="userSpaceOnUse" x="227" y="48" width="181" height="238">
<path d="M407.679 65.1729L393.738 201.356L385.164 285.131L265.347 272.845L242.033 270.454L227.105 268.923L240.336 139.635L249.62 48.9649L407.679 65.1729Z" fill="white"/>
</mask>
<g mask="url(#mask8_266_51050)">
<path d="M308.874 148.462C321.136 138.235 322.795 119.993 312.579 107.718C302.363 95.443 284.14 93.7825 271.878 104.009C259.616 114.236 257.958 132.478 268.174 144.753C278.39 157.029 296.612 158.689 308.874 148.462Z" fill="#39B4EF"/>
<mask id="mask9_266_51050" style="mask-type:luminance" maskUnits="userSpaceOnUse" x="261" y="97" width="59" height="59">
<path d="M318.782 131.448C321.665 115.731 311.277 100.653 295.58 97.77C279.884 94.8865 264.822 105.289 261.939 121.006C259.056 136.722 269.443 151.8 285.14 154.683C300.837 157.567 315.898 147.164 318.782 131.448Z" fill="white"/>
</mask>
<g mask="url(#mask9_266_51050)">
<path opacity="0.5" d="M308.872 148.46C321.136 138.232 322.796 119.99 312.581 107.716C302.366 95.4419 284.144 93.7832 271.88 104.011C259.617 114.239 257.957 132.481 268.172 144.756C278.387 157.03 296.609 158.689 308.872 148.46Z" fill="white"/>
</g>
<path d="M308.874 148.462C321.136 138.235 322.795 119.993 312.579 107.718C302.363 95.443 284.14 93.7825 271.878 104.009C259.616 114.236 257.958 132.478 268.174 144.753C278.39 157.029 296.612 158.689 308.874 148.462Z" stroke="#002E47" stroke-width="1.00001" stroke-miterlimit="10"/>
<path d="M291.207 126.163L315.241 138.272C316.603 135.457 317.501 132.365 317.836 129.076C318.596 121.649 316.337 114.607 312.064 109.174L291.207 126.163Z" fill="white"/>
<path d="M291.367 124.859L311.494 108.463C308.525 104.937 304.687 102.142 300.257 100.443L296.626 110.419L291.367 124.859Z" fill="#39B4EF"/>
<path d="M293.644 98.8235L291.207 122.666L299.406 100.137C297.571 99.505 295.647 99.0605 293.644 98.8235Z" fill="#B3C7EB"/>
<path d="M289.955 125.945L292.737 98.7247C277.76 97.4308 264.451 108.404 262.912 123.427C262.408 128.326 263.227 133.047 265.053 137.254L289.955 125.945Z" fill="#B3C7EB"/>
<path d="M287.568 153.739C299.131 154.924 309.747 148.781 314.828 139.072L290.37 126.755L265.438 138.094C269.443 146.519 277.613 152.722 287.568 153.739Z" fill="#E2EDFF"/>
<path d="M336.288 111.999L332.992 111.663C332.657 111.624 332.41 111.328 332.44 110.982L332.775 107.683C332.815 107.347 333.111 107.1 333.456 107.13L336.752 107.466C337.087 107.505 337.334 107.802 337.304 108.147L336.969 111.446C336.929 111.782 336.633 112.029 336.288 111.999Z" fill="#39B4EF" stroke="#002E47" stroke-miterlimit="10"/>
<path d="M382.56 113.836L340.076 109.481C339.79 109.451 339.583 109.194 339.612 108.908C339.642 108.621 339.898 108.414 340.184 108.444L382.659 112.799C382.945 112.829 383.152 113.086 383.123 113.372C383.103 113.659 382.846 113.866 382.56 113.836Z" fill="#002E47"/>
<path d="M378.17 115.673L339.849 111.742C339.563 111.713 339.356 111.456 339.386 111.17C339.415 110.883 339.672 110.676 339.958 110.705L378.279 114.636C378.565 114.666 378.772 114.923 378.742 115.209C378.713 115.496 378.456 115.703 378.17 115.673Z" fill="#002E47"/>
<path d="M335.253 122.143L331.957 121.807C331.622 121.768 331.375 121.471 331.405 121.126L331.74 117.827C331.78 117.491 332.076 117.244 332.421 117.274L335.716 117.609C336.052 117.649 336.298 117.945 336.269 118.291L335.933 121.59C335.894 121.935 335.588 122.182 335.253 122.143Z" fill="#B3C7EB" stroke="#002E47" stroke-miterlimit="10" stroke-linecap="round" stroke-linejoin="round"/>
<path d="M381.527 123.98L339.052 119.624C338.766 119.595 338.559 119.338 338.589 119.051C338.618 118.765 338.875 118.558 339.161 118.587L381.636 122.943C381.922 122.973 382.129 123.229 382.099 123.516C382.07 123.802 381.813 124.01 381.527 123.98Z" fill="#002E47"/>
<path d="M377.127 125.827L338.806 121.896C338.52 121.866 338.313 121.61 338.343 121.323C338.372 121.037 338.629 120.829 338.915 120.859L377.236 124.79C377.522 124.819 377.729 125.076 377.699 125.363C377.68 125.639 377.423 125.857 377.127 125.827Z" fill="#002E47"/>
<path d="M334.217 132.286L330.922 131.951C330.587 131.911 330.34 131.615 330.37 131.269L330.705 127.97C330.745 127.634 331.041 127.387 331.386 127.417L334.681 127.753C335.017 127.792 335.263 128.089 335.234 128.434L334.898 131.733C334.859 132.079 334.553 132.326 334.217 132.286Z" fill="#B3C7EB" stroke="#002E47" stroke-miterlimit="10" stroke-linecap="round" stroke-linejoin="round"/>
<path d="M380.484 134.133L338.01 129.778C337.723 129.748 337.516 129.491 337.546 129.205C337.575 128.918 337.832 128.711 338.118 128.741L380.593 133.096C380.879 133.126 381.086 133.383 381.056 133.669C381.027 133.956 380.77 134.163 380.484 134.133Z" fill="#002E47"/>
<path d="M376.092 135.971L337.771 132.039C337.485 132.01 337.278 131.753 337.308 131.467C337.337 131.18 337.594 130.973 337.88 131.002L376.201 134.933C376.487 134.963 376.694 135.22 376.664 135.506C376.635 135.793 376.378 136 376.092 135.971Z" fill="#002E47"/>
<path d="M333.171 142.44L329.875 142.104C329.54 142.065 329.293 141.768 329.323 141.423L329.658 138.124C329.698 137.788 329.994 137.541 330.339 137.571L333.634 137.906C333.97 137.946 334.216 138.242 334.187 138.588L333.851 141.887C333.822 142.223 333.516 142.469 333.171 142.44Z" fill="#E2EDFF" stroke="#002E47" stroke-miterlimit="10"/>
<path d="M379.445 144.277L336.97 139.921C336.684 139.892 336.477 139.635 336.507 139.348C336.536 139.062 336.793 138.855 337.079 138.884L379.553 143.24C379.84 143.27 380.047 143.526 380.017 143.813C379.988 144.099 379.731 144.307 379.445 144.277Z" fill="#002E47"/>
<path d="M375.053 146.114L336.732 142.183C336.446 142.153 336.239 141.897 336.268 141.61C336.298 141.324 336.555 141.116 336.841 141.146L375.161 145.077C375.448 145.107 375.655 145.363 375.625 145.65C375.596 145.936 375.339 146.144 375.053 146.114Z" fill="#002E47"/>
<path d="M332.135 152.583L328.84 152.248C328.505 152.208 328.258 151.912 328.288 151.566L328.623 148.267C328.662 147.931 328.958 147.685 329.304 147.714L332.599 148.05C332.935 148.089 333.181 148.386 333.152 148.731L332.816 152.03C332.777 152.376 332.481 152.623 332.135 152.583Z" fill="white" stroke="#002E47" stroke-miterlimit="10" stroke-linecap="round" stroke-linejoin="round"/>
<path d="M378.41 154.421L335.935 150.065C335.649 150.035 335.442 149.778 335.472 149.492C335.501 149.206 335.758 148.998 336.044 149.028L378.518 153.383C378.804 153.413 379.012 153.67 378.982 153.956C378.952 154.243 378.696 154.45 378.41 154.421Z" fill="#002E47"/>
<path d="M374.018 156.258L335.697 152.327C335.411 152.297 335.204 152.04 335.233 151.754C335.263 151.467 335.519 151.26 335.806 151.29L374.126 155.221C374.412 155.25 374.62 155.507 374.59 155.793C374.56 156.08 374.304 156.287 374.018 156.258Z" fill="#002E47"/>
</g>
<mask id="mask10_266_51050" style="mask-type:luminance" maskUnits="userSpaceOnUse" x="227" y="48" width="181" height="238">
<path d="M407.679 65.1729L393.738 201.356L385.164 285.131L265.347 272.845L242.033 270.454L227.105 268.923L240.336 139.635L249.62 48.9649L407.679 65.1729Z" fill="white"/>
</mask>
<g mask="url(#mask10_266_51050)">
<path d="M359.517 228.732L361.941 228.981L363.363 215.097L360.939 214.848L359.517 228.732Z" fill="#B3C7EB" stroke="#002E47" stroke-miterlimit="10" stroke-linecap="round" stroke-linejoin="round"/>
<path d="M359.712 226.666L362.137 226.914L362.805 220.38L360.381 220.132L359.712 226.666Z" fill="#39B4EF" stroke="#002E47" stroke-miterlimit="10"/>
<path d="M365.318 225.813L367.742 226.062L369.163 212.178L366.738 211.929L365.318 225.813Z" fill="#B3C7EB" stroke="#002E47" stroke-miterlimit="10" stroke-linecap="round" stroke-linejoin="round"/>
<path d="M366.388 215.609L365.719 222.143L368.143 222.392L368.812 215.858L366.388 215.609Z" fill="#39B4EF" stroke="#002E47" stroke-miterlimit="10"/>
<path d="M370.505 229.029L372.93 229.278L374.35 215.394L371.926 215.146L370.505 229.029Z" fill="#B3C7EB" stroke="#002E47" stroke-miterlimit="10" stroke-linecap="round" stroke-linejoin="round"/>
<path d="M371.052 223.78L373.477 224.028L374.146 217.494L371.721 217.246L371.052 223.78Z" fill="#39B4EF" stroke="#002E47" stroke-miterlimit="10"/>
<path d="M354.337 225.425L356.762 225.674L358.184 211.791L355.759 211.542L354.337 225.425Z" fill="#B3C7EB" stroke="#002E47" stroke-miterlimit="10" stroke-linecap="round" stroke-linejoin="round"/>
<path d="M354.533 223.359L356.957 223.607L357.626 217.073L355.201 216.825L354.533 223.359Z" fill="#39B4EF" stroke="#002E47" stroke-miterlimit="10"/>
<path d="M348.443 228.997L350.867 229.246L352.288 215.362L349.863 215.113L348.443 228.997Z" fill="#B3C7EB" stroke="#002E47" stroke-miterlimit="10" stroke-linecap="round" stroke-linejoin="round"/>
<path d="M348.619 227.404L351.043 227.653L351.712 221.119L349.288 220.87L348.619 227.404Z" fill="#39B4EF" stroke="#002E47" stroke-miterlimit="10"/>
<path d="M343.349 224.855L345.773 225.104L347.194 211.22L344.77 210.972L343.349 224.855Z" fill="#B3C7EB" stroke="#002E47" stroke-miterlimit="10" stroke-linecap="round" stroke-linejoin="round"/>
<path d="M343.416 224.308L345.84 224.557L346.509 218.023L344.085 217.774L343.416 224.308Z" fill="#39B4EF" stroke="#002E47" stroke-miterlimit="10"/>
<path d="M337.162 231.522L339.586 231.771L341.008 217.888L338.584 217.639L337.162 231.522Z" fill="#B3C7EB" stroke="#002E47" stroke-miterlimit="10" stroke-linecap="round" stroke-linejoin="round"/>
<path d="M337.209 231.006L339.633 231.255L340.302 224.721L337.878 224.472L337.209 231.006Z" fill="#39B4EF" stroke="#002E47" stroke-miterlimit="10"/>
<path d="M332.576 222.245L335 222.493L336.421 208.61L333.996 208.361L332.576 222.245Z" fill="#B3C7EB" stroke="#002E47" stroke-miterlimit="10" stroke-linecap="round" stroke-linejoin="round"/>
<path d="M332.794 220.153L335.219 220.402L335.887 213.868L333.463 213.619L332.794 220.153Z" fill="#39B4EF" stroke="#002E47" stroke-miterlimit="10"/>
<path d="M327.212 220.853L329.637 221.102L331.059 207.219L328.634 206.97L327.212 220.853Z" fill="#B3C7EB" stroke="#002E47" stroke-miterlimit="10" stroke-linecap="round" stroke-linejoin="round"/>
<path d="M327.736 215.643L330.16 215.891L330.829 209.357L328.404 209.109L327.736 215.643Z" fill="#39B4EF" stroke="#002E47" stroke-miterlimit="10"/>
<path d="M320.849 229.032L323.273 229.28L324.694 215.397L322.27 215.148L320.849 229.032Z" fill="#B3C7EB" stroke="#002E47" stroke-miterlimit="10" stroke-linecap="round" stroke-linejoin="round"/>
<path d="M321.443 223.278L323.867 223.527L324.536 216.993L322.111 216.744L321.443 223.278Z" fill="#39B4EF" stroke="#002E47" stroke-miterlimit="10"/>
<path d="M316.013 222.366L318.438 222.615L319.858 208.731L317.434 208.482L316.013 222.366Z" fill="#B3C7EB" stroke="#002E47" stroke-miterlimit="10" stroke-linecap="round" stroke-linejoin="round"/>
<path d="M316.279 219.755L318.703 220.003L319.372 213.469L316.947 213.221L316.279 219.755Z" fill="#39B4EF" stroke="#002E47" stroke-miterlimit="10"/>
<path d="M310.193 225.407L312.617 225.656L314.039 211.773L311.615 211.524L310.193 225.407Z" fill="#B3C7EB" stroke="#002E47" stroke-miterlimit="10" stroke-linecap="round" stroke-linejoin="round"/>
<path d="M310.4 223.339L312.824 223.588L313.493 217.054L311.068 216.805L310.4 223.339Z" fill="#39B4EF" stroke="#002E47" stroke-miterlimit="10"/>
<path d="M304.095 231.082L306.52 231.331L307.942 217.448L305.517 217.199L304.095 231.082Z" fill="#B3C7EB" stroke="#002E47" stroke-miterlimit="10" stroke-linecap="round" stroke-linejoin="round"/>
<path d="M304.091 231.102L306.516 231.351L307.184 224.817L304.76 224.568L304.091 231.102Z" fill="#39B4EF" stroke="#002E47" stroke-miterlimit="10"/>
<path d="M299.533 221.753L301.957 222.001L303.378 208.118L300.953 207.869L299.533 221.753Z" fill="#B3C7EB" stroke="#002E47" stroke-miterlimit="10" stroke-linecap="round" stroke-linejoin="round"/>
<path d="M299.685 220.175L302.109 220.424L302.778 213.89L300.354 213.641L299.685 220.175Z" fill="#39B4EF" stroke="#002E47" stroke-miterlimit="10"/>
<path d="M294.709 215.068L297.133 215.317L298.555 201.434L296.13 201.185L294.709 215.068Z" fill="#B3C7EB" stroke="#002E47" stroke-miterlimit="10" stroke-linecap="round" stroke-linejoin="round"/>
<path d="M294.857 213.522L297.281 213.771L297.95 207.237L295.526 206.988L294.857 213.522Z" fill="#39B4EF" stroke="#002E47" stroke-miterlimit="10"/>
<path d="M288.474 221.878L290.898 222.127L292.319 208.243L289.895 207.995L288.474 221.878Z" fill="#B3C7EB" stroke="#002E47" stroke-miterlimit="10" stroke-linecap="round" stroke-linejoin="round"/>
<path d="M289.025 216.624L291.449 216.873L292.118 210.339L289.694 210.09L289.025 216.624Z" fill="#39B4EF" stroke="#002E47" stroke-miterlimit="10"/>
<path d="M282.212 229.162L284.637 229.411L286.057 215.527L283.633 215.279L282.212 229.162Z" fill="#B3C7EB" stroke="#002E47" stroke-miterlimit="10" stroke-linecap="round" stroke-linejoin="round"/>
<path d="M282.853 222.885L285.277 223.133L285.946 216.599L283.522 216.351L282.853 222.885Z" fill="#39B4EF" stroke="#002E47" stroke-miterlimit="10"/>
<path d="M277.556 220.754L279.98 221.002L281.401 207.119L278.977 206.87L277.556 220.754Z" fill="#B3C7EB" stroke="#002E47" stroke-miterlimit="10" stroke-linecap="round" stroke-linejoin="round"/>
<path d="M277.787 218.645L280.211 218.893L280.88 212.359L278.456 212.111L277.787 218.645Z" fill="#39B4EF" stroke="#002E47" stroke-miterlimit="10"/>
<path d="M272.353 217.869L274.777 218.118L276.199 204.234L273.775 203.985L272.353 217.869Z" fill="#B3C7EB" stroke="#002E47" stroke-miterlimit="10" stroke-linecap="round" stroke-linejoin="round"/>
<path d="M272.923 212.133L275.348 212.382L276.016 205.848L273.592 205.599L272.923 212.133Z" fill="#39B4EF" stroke="#002E47" stroke-miterlimit="10"/>
<path d="M266.443 221.636L268.867 221.885L270.289 208.002L267.865 207.753L266.443 221.636Z" fill="#B3C7EB" stroke="#002E47" stroke-miterlimit="10" stroke-linecap="round" stroke-linejoin="round"/>
<path d="M266.431 221.652L268.855 221.901L269.524 215.367L267.1 215.118L266.431 221.652Z" fill="#39B4EF" stroke="#002E47" stroke-miterlimit="10"/>
<path d="M261.412 216.762L263.836 217.011L265.257 203.128L262.832 202.879L261.412 216.762Z" fill="#B3C7EB" stroke="#002E47" stroke-miterlimit="10" stroke-linecap="round" stroke-linejoin="round"/>
<path d="M261.537 215.699L263.961 215.948L264.63 209.414L262.206 209.165L261.537 215.699Z" fill="#39B4EF" stroke="#002E47" stroke-miterlimit="10"/>
<path d="M255.759 218.075L258.184 218.323L259.604 204.44L257.18 204.191L255.759 218.075Z" fill="#B3C7EB" stroke="#002E47" stroke-miterlimit="10" stroke-linecap="round" stroke-linejoin="round"/>
<path d="M255.814 217.55L258.238 217.799L258.907 211.265L256.483 211.016L255.814 217.55Z" fill="#39B4EF" stroke="#002E47" stroke-miterlimit="10"/>
<path d="M250.486 215.729L252.91 215.977L254.331 202.094L251.906 201.845L250.486 215.729Z" fill="#B3C7EB" stroke="#002E47" stroke-miterlimit="10" stroke-linecap="round" stroke-linejoin="round"/>
<path d="M251.185 208.939L253.609 209.188L254.278 202.654L251.854 202.405L251.185 208.939Z" fill="#39B4EF" stroke="#002E47" stroke-miterlimit="10"/>
</g>
<mask id="mask11_266_51050" style="mask-type:luminance" maskUnits="userSpaceOnUse" x="227" y="48" width="181" height="238">
<path d="M407.679 65.1729L393.738 201.356L385.164 285.131L265.347 272.845L242.033 270.454L227.105 268.923L240.336 139.635L249.62 48.9649L407.679 65.1729Z" fill="white"/>
</mask>
<g mask="url(#mask11_266_51050)">
<path d="M374.392 245.792L263.653 234.433C263.011 234.364 262.439 234.838 262.37 235.47C262.301 236.112 262.774 236.685 263.406 236.754L374.146 248.113C374.787 248.182 375.359 247.708 375.428 247.076C375.497 246.424 375.034 245.851 374.392 245.792Z" fill="#002E47"/>
<path d="M373.543 254.138L244.778 240.932C244.136 240.863 243.564 241.337 243.495 241.969C243.426 242.611 243.9 243.184 244.531 243.253L373.296 256.459C373.938 256.528 374.51 256.054 374.579 255.422C374.648 254.77 374.184 254.197 373.543 254.138Z" fill="#002E47"/>
<path d="M318.596 256.933L243.918 249.268C243.277 249.199 242.705 249.673 242.636 250.306C242.567 250.948 243.04 251.52 243.672 251.589L318.35 259.254C318.991 259.323 319.563 258.849 319.632 258.217C319.701 257.575 319.238 257.002 318.596 256.933Z" fill="#002E47"/>
</g>
<mask id="mask12_266_51050" style="mask-type:luminance" maskUnits="userSpaceOnUse" x="227" y="48" width="181" height="238">
<path d="M407.679 65.1729L393.738 201.356L385.164 285.131L265.347 272.845L242.033 270.454L227.105 268.923L240.336 139.635L249.62 48.9649L407.679 65.1729Z" fill="white"/>
</mask>
<g mask="url(#mask12_266_51050)">
<path opacity="0.2" d="M386.604 182.392C382.786 182.086 381.464 188.18 381.464 188.18C381.464 188.18 375.426 180.259 376.383 161.631C376.383 161.631 373.433 153.374 365.53 158.361C357.637 163.349 349.438 180.93 351.392 200.081L336.03 149.028C330.722 150.154 319.938 157.295 322.779 191.775L306.016 174.036C306.016 174.036 301.478 172.574 298.913 176.594C296.347 180.624 297.571 209.405 299.692 220.171C301.823 230.947 296.406 252.567 296.406 252.567C296.406 252.567 290.625 228.073 280.167 221.87L240.336 139.635L227.105 268.923L242.033 270.454L266.008 258.77C265.87 264.173 265.742 269.141 265.347 272.845L385.164 285.131L393.738 201.356C390.827 190.916 388.045 182.501 386.604 182.392Z" fill="#002E47"/>
</g>
<path d="M407.679 65.1729L393.738 201.356L385.164 285.131L265.347 272.845L242.033 270.454L227.105 268.923L240.336 139.635L249.62 48.9649L407.679 65.1729Z" stroke="#002E47" stroke-miterlimit="10" stroke-linecap="round" stroke-linejoin="round"/>
<path d="M405.706 415.763L335.655 427.695C335.655 427.695 323.46 362.853 316.189 352.64C308.917 342.417 310.249 338.22 306.717 331.336C304.586 327.177 293.901 319.424 285.515 311.769H285.505C284.775 311.108 284.064 310.446 283.383 309.784C283.087 309.518 282.811 309.231 282.535 308.964C281.42 307.858 280.384 306.782 279.467 305.725C279.131 305.349 278.815 304.974 278.519 304.599C276.773 302.436 275.54 300.411 275.125 298.584C275.096 298.485 275.076 298.386 275.066 298.278C275.037 298.149 275.017 298.031 275.007 297.912C274.819 296.381 274.622 294.633 274.425 292.737C274.385 292.361 274.346 291.966 274.297 291.571C274.277 291.413 274.257 291.265 274.237 291.097C274.07 289.517 273.882 287.838 273.665 286.109C273.448 284.302 273.211 282.425 272.935 280.539C272.846 279.887 272.757 279.235 272.649 278.573C272.649 278.563 272.649 278.553 272.639 278.553C272.53 277.823 272.412 277.092 272.294 276.351C272.185 275.719 272.077 275.087 271.968 274.455C271.948 274.346 271.919 274.247 271.909 274.158C271.771 273.417 271.633 272.696 271.495 271.966C271.465 271.887 271.455 271.808 271.445 271.719C271.307 271.077 271.179 270.444 271.031 269.802C270.725 268.37 270.38 266.968 270.005 265.605C269.265 262.889 268.396 260.35 267.39 258.098C262.339 246.809 268.91 250.888 264.953 221.84C264.953 221.84 267.864 215.104 276.161 220.487C276.803 220.902 277.414 221.356 278.016 221.84H278.026C279.693 223.184 281.173 224.774 282.436 226.561C284.084 228.882 285.367 231.539 286.245 234.423C287.557 238.72 287.981 243.53 287.369 248.547C287.369 248.547 293.605 269.941 296.89 274.81C300.186 279.679 313.762 251.708 312.884 248.449C312.706 247.797 312.459 246.207 312.183 244.024C312.124 243.54 312.065 243.026 311.996 242.483C311.937 241.94 311.868 241.377 311.808 240.794C311.769 240.517 311.739 240.221 311.7 239.935C311.69 239.816 311.68 239.698 311.66 239.589C311.542 238.473 311.404 237.288 311.276 236.063C311.246 235.717 311.206 235.391 311.167 235.056C311.108 234.473 311.049 233.87 310.989 233.278C310.97 233.189 310.97 233.09 310.96 232.981C310.92 232.646 310.881 232.3 310.851 231.944C310.772 231.253 310.703 230.552 310.634 229.85C310.565 229.248 310.516 228.645 310.457 228.043C310.338 226.907 310.23 225.771 310.121 224.675C310.042 223.855 309.963 223.045 309.894 222.255C309.875 222.077 309.855 221.9 309.845 221.732C309.43 217.386 309.105 213.81 308.987 212.289C308.987 212.289 299.11 197.652 298.094 190.758C297.078 183.854 297.167 176.604 301.301 173.651C311.088 166.678 308.227 177.918 312.607 182.57C316.988 187.241 323.707 194.847 327.515 197.227C331.028 199.459 334.165 208.131 334.609 209.395C334.106 207.499 329.084 188.851 328.976 185.098C328.847 181.138 325.828 160.248 330.959 152.751C336.079 145.265 342.907 151.072 343.538 152.554C344.17 154.035 344.357 174.273 346.163 179.913C347.978 185.543 355.526 209.02 355.526 209.02C355.526 209.02 355.842 186.185 357.549 175.962C359.246 165.749 363.685 157.749 368.027 157.295C372.368 156.84 376.383 161.631 376.383 161.631C376.383 161.631 374.667 177.928 375.16 181.691C375.643 185.444 374.45 199.044 376.512 206.353C376.512 206.353 376.275 186.886 379.294 184.397C382.323 181.908 384.908 180.713 386.605 182.392C388.292 184.071 388.667 195.597 390.394 202.531C392.13 209.474 391.903 218.887 393.038 229.702C394.172 240.518 398.642 255.53 397.754 264.113C396.866 272.677 394.133 293.981 391.933 306.475C389.732 318.98 384.119 336.086 384.119 336.086C384.119 336.086 386.674 345.223 386.181 353.371C385.677 361.519 405.706 415.763 405.706 415.763Z" fill="white"/>
<path opacity="0.4" d="M346.164 179.913C347.506 184.081 351.985 198.027 354.225 204.99C354.225 204.99 344.428 212.2 344.674 218.887C344.931 225.574 342.879 239.095 338.488 238.71C334.098 238.335 334.492 210.205 333.052 205.484C333.94 207.509 334.522 209.168 334.64 209.494C334.315 208.279 329.085 188.93 328.977 185.098C328.947 184.199 328.77 182.402 328.562 180.081V180.031C328.562 180.031 338.291 170.708 345.444 176.416V176.426C345.661 177.849 345.898 179.044 346.164 179.913Z" fill="#39B4EF"/>
<path opacity="0.4" d="M375.26 187.953C370.702 192.279 363.825 199.933 362.957 207.311C362.957 207.311 365.502 227.905 364.417 236.893L355.527 209.03C355.527 209.03 355.843 186.195 357.55 175.972C357.599 175.695 357.649 175.409 357.698 175.123C362.059 172.89 368.038 170.895 375.546 170.757C375.201 175.162 374.925 179.883 375.161 181.691C375.309 182.915 375.299 185.187 375.26 187.953Z" fill="#39B4EF"/>
<path opacity="0.4" d="M379.295 184.397C379.276 184.417 379.266 184.427 379.256 184.427C379.147 184.506 378.881 184.713 378.496 185.039C378.743 184.585 378.999 184.15 379.276 183.755L379.295 184.397Z" fill="#39B4EF"/>
<path opacity="0.4" d="M381.617 241.357C381.617 241.357 375.756 219.351 375.658 201.632C375.618 195.074 376.368 189.098 378.489 185.059L378.499 185.049C378.746 184.594 379.002 184.16 379.279 183.765L379.298 184.407C380.551 183.38 381.716 182.57 382.791 182.096C381.143 184.664 379.249 189.691 381.439 197.859C384.883 210.65 381.883 226.285 381.617 241.357Z" fill="#39B4EF"/>
<path opacity="0.4" d="M300.781 283.294C300.781 283.294 302.359 304.263 285.518 311.779H285.508C284.778 311.118 284.077 310.456 283.387 309.794C283.091 309.518 282.814 309.241 282.538 308.974C281.423 307.868 280.387 306.791 279.47 305.735C279.134 305.349 278.818 304.974 278.522 304.609C276.776 302.446 275.543 300.421 275.128 298.594C275.099 298.495 275.079 298.386 275.069 298.287C275.04 298.159 275.02 298.041 275.01 297.922C274.823 296.391 274.625 294.643 274.428 292.747C274.388 292.371 274.349 291.976 274.3 291.581C274.28 291.423 274.26 291.265 274.25 291.107C274.073 289.527 273.885 287.848 273.678 286.119C273.461 284.312 273.224 282.435 272.948 280.549C272.849 279.897 272.761 279.235 272.662 278.583C272.662 278.573 272.662 278.563 272.652 278.563C272.543 277.832 272.425 277.092 272.307 276.361C272.198 275.729 272.09 275.097 271.981 274.455C271.961 274.356 271.942 274.257 271.922 274.158C271.784 273.427 271.646 272.696 271.498 271.966C271.478 271.887 271.458 271.798 271.448 271.719C271.32 271.077 271.182 270.435 271.044 269.802C270.718 268.37 270.383 266.968 270.008 265.605C276.668 259.185 292.039 263.215 284.6 248.35C284.6 248.35 288.349 235.628 278.019 221.83H278.029C285.093 227.539 288.714 237.554 287.373 248.547C287.373 248.547 293.608 269.931 296.894 274.81C300.189 279.679 313.765 251.708 312.877 248.449C312.709 247.807 312.463 246.207 312.186 244.024C312.127 243.54 312.068 243.026 311.999 242.483C311.93 241.94 311.871 241.377 311.802 240.794C311.762 240.517 311.732 240.231 311.703 239.945C311.693 239.826 311.683 239.708 311.663 239.599C311.545 238.473 311.417 237.298 311.279 236.063C311.249 235.727 311.21 235.391 311.17 235.056C311.111 234.473 311.052 233.88 310.993 233.278C310.983 233.189 310.973 233.09 310.963 232.981C310.933 232.646 310.884 232.3 310.854 231.934C310.775 231.243 310.716 230.542 310.637 229.841C310.578 229.238 310.519 228.636 310.46 228.033C310.351 226.897 310.233 225.761 310.134 224.665C310.055 223.845 309.976 223.025 309.897 222.255C309.878 222.077 309.868 221.9 309.848 221.722C310.124 223.016 315.127 246.858 317.978 252.409C320.908 258.138 308.467 288.233 300.781 283.294Z" fill="#39B4EF"/>
<path opacity="0.4" d="M391.936 306.475C389.736 318.98 384.132 336.086 384.132 336.086C384.132 336.086 386.687 345.223 386.184 353.371C386.046 355.564 387.408 361.095 389.44 368.009C388.848 366.487 382.563 350.171 382.662 344.482C382.78 338.506 381.083 336.857 377.758 329.518C374.443 322.17 369.362 322.99 369.362 322.99C369.362 322.99 367.408 341.301 362.811 329.271C358.223 317.231 357.335 303.246 368.908 254.651C368.908 254.651 370.654 260.745 369.194 278.85C367.724 296.964 372.056 302.436 372.056 302.436C372.056 302.436 381.409 287.018 387.437 266.523C387.437 266.523 385.947 287.65 384.605 297.28C383.274 306.9 389.351 286.129 393.594 273.289C397.58 261.249 397.728 256.666 396.208 248.093C397.333 254.138 398.182 259.896 397.747 264.104C396.869 272.677 394.136 293.981 391.936 306.475Z" fill="#39B4EF"/>
<path opacity="0.4" d="M312.777 347.208C316.191 352.64 324.548 359.821 329.53 379.683C334.513 399.545 331.375 421.285 331.375 421.285L312.777 347.208Z" fill="#39B4EF"/>
<path opacity="0.2" d="M286.249 234.423C286.249 234.423 268.775 243.283 267.394 258.098C262.342 246.809 268.913 250.888 264.957 221.84C264.957 221.84 267.868 215.104 276.165 220.487C276.806 220.902 277.418 221.356 278.02 221.84H278.03C279.697 223.184 281.177 224.774 282.44 226.561L286.249 234.423Z" fill="#002E47"/>
<path d="M335.657 427.694C335.657 427.694 323.472 362.853 316.191 352.64C308.919 342.427 310.251 338.22 306.719 331.335C303.187 324.451 276.203 307.7 275.009 297.912C273.815 288.134 272.444 269.388 267.392 258.098C262.341 246.799 268.912 250.888 264.945 221.84C264.945 221.84 267.876 215.114 276.163 220.487C284.451 225.87 288.822 236.636 287.371 248.557C287.371 248.557 293.607 269.941 296.892 274.81C300.188 279.689 313.754 251.708 312.876 248.439C311.998 245.169 309.393 217.356 308.989 212.289C308.989 212.289 299.112 197.642 298.096 190.758C297.08 183.863 297.169 176.604 301.303 173.661C311.09 166.688 308.229 177.927 312.61 182.589C316.99 187.251 323.709 194.856 327.518 197.247C331.326 199.637 334.661 209.563 334.661 209.563C334.661 209.563 329.096 189.078 328.978 185.118C328.859 181.157 325.83 160.268 330.961 152.781C336.091 145.294 342.919 151.102 343.54 152.573C344.172 154.055 344.369 174.293 346.175 179.923C347.98 185.562 355.528 209.04 355.528 209.04C355.528 209.04 355.854 186.204 357.551 175.982C359.257 165.759 363.697 157.759 368.029 157.314C372.37 156.86 376.385 161.65 376.385 161.65C376.385 161.65 374.669 177.947 375.152 181.71C375.636 185.473 374.452 199.064 376.514 206.373C376.514 206.373 376.267 186.906 379.296 184.417C382.325 181.928 384.91 180.732 386.597 182.412C388.294 184.091 388.659 195.617 390.396 202.551C392.122 209.484 391.905 218.907 393.04 229.722C394.174 240.537 398.644 255.55 397.756 264.123C396.868 272.696 394.125 293.991 391.925 306.495C389.725 318.999 384.121 336.106 384.121 336.106C384.121 336.106 386.676 345.242 386.173 353.391C385.67 361.539 405.698 415.783 405.698 415.783" stroke="#002E47" stroke-miterlimit="10" stroke-linecap="round" stroke-linejoin="round"/>
<path d="M355.52 209.02C357.562 213.82 362.604 234.088 364.409 236.893C366.215 239.698 368.257 240.547 368.257 240.547" stroke="#002E47" stroke-miterlimit="10" stroke-linecap="round" stroke-linejoin="round"/>
<path d="M376.514 206.353C376.514 206.353 376.08 210.502 378.32 223.747C380.56 236.982 381.655 242.621 382.908 245.574" stroke="#002E47" stroke-miterlimit="10" stroke-linecap="round" stroke-linejoin="round"/>
<path d="M334.66 209.544C337.403 217.613 338.942 230.473 340.501 234.344C342.06 238.216 343.451 239.016 343.451 239.016" stroke="#002E47" stroke-miterlimit="10" stroke-linecap="round" stroke-linejoin="round"/>
<path d="M339.09 228.902C339.09 228.902 341.961 231.036 342.879 233.693" stroke="#002E47" stroke-miterlimit="10" stroke-linecap="round" stroke-linejoin="round"/>
<path d="M296.902 274.81C296.902 274.81 298.402 285.507 305.101 284.657" stroke="#002E47" stroke-miterlimit="10" stroke-linecap="round" stroke-linejoin="round"/>
<path d="M312.877 248.439C312.877 248.439 314.613 261.15 311.762 266.553" stroke="#002E47" stroke-miterlimit="10" stroke-linecap="round" stroke-linejoin="round"/>
<path d="M366.389 248.557C366.389 248.557 370.888 251.313 367.879 259.402C364.87 267.491 359.641 300.125 359.641 300.125" stroke="#002E47" stroke-miterlimit="10" stroke-linecap="round" stroke-linejoin="round"/>
<path d="M385.977 257.091C387.861 264.4 388.029 264.587 384.97 273.566C381.902 282.544 376.969 304.53 376.969 304.53" stroke="#002E47" stroke-miterlimit="10" stroke-linecap="round" stroke-linejoin="round"/>
<path d="M384.129 336.086C384.129 336.086 381.189 330.14 383.616 325.251" stroke="#002E47" stroke-miterlimit="10" stroke-linecap="round" stroke-linejoin="round"/>
<path d="M316.191 352.64C316.191 352.64 323.631 363.1 326.867 374.804" stroke="#002E47" stroke-miterlimit="10" stroke-linecap="round" stroke-linejoin="round"/>
<path d="M370.926 169.295L372.939 167.31L373.846 167.043L373.787 168.031L371.932 170.391L370.926 169.295Z" fill="#B3C7EB" stroke="#002E47" stroke-miterlimit="10" stroke-linecap="round" stroke-linejoin="round"/>
<path d="M372.557 170.401L369.291 177.839L281.284 295.305L271.477 289.053L284.786 272.341L363.835 173.078L370.811 168.643C370.801 168.633 372.291 169.019 372.557 170.401Z" fill="#39B4EF"/>
<mask id="mask13_266_51050" style="mask-type:luminance" maskUnits="userSpaceOnUse" x="271" y="168" width="102" height="128">
<path d="M372.557 170.401L369.291 177.839L281.284 295.305L271.477 289.053L284.786 272.341L363.835 173.078L370.811 168.643C370.801 168.633 372.291 169.019 372.557 170.401Z" fill="white"/>
</mask>
<g mask="url(#mask13_266_51050)">
<path opacity="0.3" d="M372.557 170.401L369.291 177.839L281.284 295.305L271.477 289.053L284.786 272.341C290.903 271.709 291.92 275.324 291.92 275.324L367.742 176.258C367.002 173.592 363.835 173.078 363.835 173.078L370.811 168.643C370.801 168.633 372.291 169.019 372.557 170.401Z" fill="#002E47"/>
</g>
<path d="M372.557 170.401L369.291 177.839L281.284 295.305L271.477 289.053L284.786 272.341L363.835 173.078L370.811 168.643C370.801 168.633 372.291 169.019 372.557 170.401Z" stroke="#002E47" stroke-miterlimit="10" stroke-linecap="round" stroke-linejoin="round"/>
<path d="M309.983 260.518C309.983 260.518 300.166 280.035 290.714 293.843L283.966 295.591C283.966 295.591 268.476 310.999 259.024 318.693C259.024 318.693 256.597 317.281 254.406 314.812C254.406 314.812 267.824 289.013 282.673 272.687C282.673 272.687 284.834 273.348 287.547 275.274C289.155 276.42 290.971 278 292.628 280.153L309.174 259.313L309.983 260.518Z" fill="#39B4EF"/>
<mask id="mask14_266_51050" style="mask-type:luminance" maskUnits="userSpaceOnUse" x="254" y="259" width="56" height="60">
<path d="M309.983 260.518C309.983 260.518 300.166 280.035 290.714 293.843L283.966 295.591C283.966 295.591 268.476 310.999 259.024 318.693C259.024 318.693 256.597 317.281 254.406 314.812C254.406 314.812 267.824 289.013 282.673 272.687C282.673 272.687 284.834 273.348 287.547 275.274C289.155 276.42 290.971 278 292.628 280.153L309.174 259.313L309.983 260.518Z" fill="white"/>
</mask>
<g mask="url(#mask14_266_51050)">
<path opacity="0.3" d="M309.983 260.518C309.983 260.518 300.166 280.035 290.714 293.843L283.965 295.591C283.965 295.591 268.475 310.999 259.023 318.693L259.28 314.505C269.531 298.831 282.555 281.734 287.537 275.274C289.145 276.42 290.961 278 292.618 280.153L283.423 292.44L288.691 291.492L309.164 259.313L309.983 260.518Z" fill="#002E47"/>
</g>
<path d="M309.983 260.518C309.983 260.518 300.166 280.035 290.714 293.843L283.966 295.591C283.966 295.591 268.476 310.999 259.024 318.693C259.024 318.693 256.597 317.281 254.406 314.812C254.406 314.812 267.824 289.013 282.673 272.687C282.673 272.687 284.834 273.348 287.547 275.274C289.155 276.42 290.971 278 292.628 280.153L309.174 259.313L309.983 260.518Z" stroke="#002E47" stroke-miterlimit="10" stroke-linecap="round" stroke-linejoin="round"/>
<path d="M343.442 239.016L315.954 265.704L311.564 269.97C314.573 262.227 313.113 250.266 312.925 248.804C312.925 248.794 312.925 248.785 312.925 248.785C312.916 248.705 312.906 248.656 312.906 248.656C312.906 248.587 312.896 248.498 312.886 248.449C312.718 247.807 312.472 246.207 312.195 244.024C312.136 243.54 312.077 243.026 312.008 242.483C311.939 241.94 311.88 241.377 311.811 240.794C311.771 240.518 311.741 240.231 311.712 239.945C311.702 239.826 311.692 239.708 311.672 239.599C311.554 238.483 311.416 237.298 311.288 236.063C311.258 235.727 311.219 235.391 311.179 235.056C311.12 234.473 311.061 233.88 311.001 233.278C310.992 233.189 310.982 233.09 310.972 232.981C310.942 232.646 310.893 232.3 310.863 231.935C310.784 231.243 310.725 230.542 310.646 229.841C310.587 229.238 310.528 228.636 310.469 228.033C310.36 226.897 310.242 225.761 310.143 224.665C310.054 223.845 309.975 223.035 309.906 222.255C309.887 222.077 309.877 221.9 309.857 221.722C309.443 217.376 309.117 213.81 308.999 212.279C308.999 212.279 299.132 197.642 298.106 190.748C297.09 183.854 297.179 176.594 301.313 173.651C311.1 166.668 308.229 177.908 312.61 182.57C316.99 187.242 323.719 194.837 327.518 197.227C331.316 199.627 334.661 209.544 334.661 209.544C337.394 217.613 338.943 230.463 340.502 234.344C342.061 238.216 343.442 239.016 343.442 239.016Z" fill="white"/>
<path d="M339.09 228.902C339.09 228.902 341.961 231.036 342.879 233.693" stroke="#002E47" stroke-miterlimit="10" stroke-linecap="round" stroke-linejoin="round"/>
<path opacity="0.4" d="M312.608 182.57C316.969 187.231 323.668 194.787 327.476 197.207C326.944 196.94 319.929 193.513 316.012 197.326C311.937 201.296 308.987 212.289 308.987 212.289C308.987 212.289 299.121 197.652 298.094 190.757C297.078 183.863 297.167 176.604 301.301 173.661C311.088 166.678 308.227 177.918 312.608 182.57Z" fill="#39B4EF"/>
<path opacity="0.4" d="M315.953 265.704L311.562 269.97C314.572 262.227 313.111 250.266 312.924 248.804C312.924 248.794 312.924 248.784 312.924 248.784C312.924 248.646 312.904 248.538 312.884 248.449C312.717 247.807 312.47 246.207 312.194 244.024C312.135 243.54 312.075 243.026 312.006 242.483C311.937 241.94 311.878 241.377 311.809 240.794C311.77 240.517 311.74 240.231 311.71 239.945C311.7 239.826 311.691 239.708 311.671 239.599C311.552 238.473 311.424 237.298 311.286 236.063C311.256 235.727 311.217 235.391 311.178 235.056C311.118 234.473 311.059 233.88 311 233.278C310.99 233.189 310.98 233.09 310.97 232.981C310.941 232.646 310.891 232.3 310.862 231.934C310.783 231.243 310.724 230.542 310.645 229.841C310.586 229.238 310.526 228.636 310.467 228.033C310.359 226.897 310.24 225.761 310.142 224.665C310.063 223.845 309.984 223.025 309.905 222.255C309.885 222.077 309.875 221.9 309.855 221.722C310.132 223.016 315.134 246.858 317.985 252.409C319.051 254.523 318.045 259.945 315.953 265.704Z" fill="#39B4EF"/>
<path d="M343.442 239.016C343.442 239.016 342.051 238.216 340.492 234.344C338.933 230.473 337.384 217.613 334.651 209.544C334.651 209.544 331.306 199.617 327.508 197.227C323.699 194.837 316.99 187.232 312.6 182.57C308.219 177.908 311.08 166.668 301.293 173.641C297.159 176.584 297.08 183.844 298.086 190.738C299.102 197.632 308.979 212.27 308.979 212.27C309.383 217.346 311.988 245.16 312.866 248.419" stroke="#002E47" stroke-miterlimit="10" stroke-linecap="round" stroke-linejoin="round"/>
<path d="M312.877 248.439C312.877 248.439 314.613 261.15 311.762 266.553" stroke="#002E47" stroke-miterlimit="10" stroke-linecap="round" stroke-linejoin="round"/>
<path opacity="0.2" d="M144.126 263.995C144.126 263.995 150.372 293.023 136.845 314.15C123.318 335.267 112.909 340.906 108.223 347.208C103.536 353.509 85.2146 388.74 85.2146 388.74L63.8047 325.261L85.2146 246.73L144.126 263.995Z" fill="#002E47"/>
<path d="M270.316 241.801L137.555 297.734L123.871 303.502L98.08 242.157L38.1914 99.7025L184.637 38.0015L270.316 241.801Z" fill="white"/>
<mask id="mask15_266_51050" style="mask-type:luminance" maskUnits="userSpaceOnUse" x="38" y="38" width="233" height="266">
<path d="M270.316 241.801L137.555 297.734L123.871 303.502L98.08 242.157L38.1914 99.7025L184.637 38.0015L270.316 241.801Z" fill="white"/>
</mask>
<g mask="url(#mask15_266_51050)">
<path d="M146.801 64.521L83.5878 91.1491C82.4039 91.6529 81.8415 93.0159 82.3447 94.2011C82.8479 95.3863 84.2094 95.9493 85.3934 95.4456L148.607 68.8175C149.791 68.3137 150.353 66.9507 149.85 65.7655C149.357 64.5704 147.985 64.0173 146.801 64.521Z" fill="#002E47"/>
</g>
<mask id="mask16_266_51050" style="mask-type:luminance" maskUnits="userSpaceOnUse" x="38" y="38" width="233" height="266">
<path d="M270.316 241.801L137.555 297.734L123.871 303.502L98.08 242.157L38.1914 99.7025L184.637 38.0015L270.316 241.801Z" fill="white"/>
</mask>
<g mask="url(#mask16_266_51050)">
<path d="M134.714 80.0179L103.102 93.3319C102.51 93.5789 102.234 94.2702 102.481 94.8629C102.727 95.4555 103.418 95.732 104.01 95.4851L135.622 82.171C136.214 81.9241 136.49 81.2327 136.243 80.6401C135.987 80.0475 135.306 79.7611 134.714 80.0179Z" fill="#002E47"/>
</g>
<mask id="mask17_266_51050" style="mask-type:luminance" maskUnits="userSpaceOnUse" x="38" y="38" width="233" height="266">
<path d="M270.316 241.801L137.555 297.734L123.871 303.502L98.08 242.157L38.1914 99.7025L184.637 38.0015L270.316 241.801Z" fill="white"/>
</mask>
<g mask="url(#mask17_266_51050)">
<path d="M186.722 161.137C186.722 161.137 188.054 171.616 184.156 173.266C180.595 174.767 175.908 169.137 171.814 170.866C167.719 172.594 170.945 187.449 166.999 189.118C163.052 190.777 158.297 184.674 154.893 186.106C151.489 187.538 153.551 195.183 150.039 196.664C147.138 197.889 142.994 191.805 139.679 190.471C138.979 190.185 138.308 190.116 137.706 190.372C134.233 191.834 135.959 207.805 132.96 209.06C131.964 209.484 131.095 209.553 130.296 209.494C129.112 209.415 128.066 209.06 126.912 209.178C126.508 209.218 126.093 209.316 125.649 209.504C123.094 210.581 123.439 218.986 121.101 219.974C118.762 220.961 116.454 219.736 113.958 220.793C111.461 221.85 111.501 226.216 107.781 227.786L109.36 231.53L200.239 193.247" fill="#E2EDFF"/>
<path d="M186.722 161.137C186.722 161.137 188.054 171.616 184.156 173.266C180.595 174.767 175.908 169.137 171.814 170.866C167.719 172.594 170.945 187.449 166.999 189.118C163.052 190.777 158.297 184.673 154.893 186.106C151.489 187.538 153.551 195.183 150.039 196.664C147.138 197.889 142.994 191.805 139.679 190.471C138.979 190.185 138.308 190.116 137.706 190.372C134.233 191.834 135.959 207.805 132.96 209.06C131.964 209.484 131.095 209.553 130.296 209.494C129.112 209.415 128.066 209.06 126.912 209.178C126.508 209.218 126.093 209.316 125.649 209.504C123.094 210.581 123.439 218.986 121.101 219.974C118.762 220.961 116.454 219.736 113.958 220.793C111.461 221.85 111.501 226.216 107.781 227.786L109.36 231.53L200.239 193.247" stroke="#002E47" stroke-miterlimit="10"/>
<path d="M90.9375 187.755L109.338 231.52L204.489 191.439" stroke="#002E47" stroke-miterlimit="10" stroke-linecap="round" stroke-linejoin="round"/>
<path d="M194.031 178.53C194.031 178.53 193.587 177.977 192.906 177.325C191.732 176.189 189.868 174.747 188.447 175.34C187.056 175.923 186.937 178.234 186.967 180.693C186.996 183.696 187.263 186.916 185.753 187.558C184.471 188.101 183.326 187.281 182.142 186.402C180.791 185.395 179.409 184.288 177.742 184.99C174.94 186.175 175.788 189.829 174.802 192.96C174.299 194.56 173.312 196.022 171.112 196.95C168.685 197.968 166.228 196.97 163.919 195.39C160.012 192.723 156.5 188.397 154.221 189.355C150.6 190.876 154.595 200.684 150.698 202.324C148.528 203.242 144.029 196.378 139.658 190.481C136.205 185.809 132.83 181.75 130.749 182.619C126.052 184.594 133.787 208.032 130.374 209.474C130.344 209.484 130.305 209.504 130.265 209.514C128.844 210.077 127.799 209.721 126.881 209.198C125.648 208.497 124.651 207.509 123.29 208.082C120.774 209.139 122.254 218.324 119.481 219.499C116.709 220.665 115.051 218.976 111.934 220.29C109.299 221.396 107.73 227.796 107.73 227.796L109.309 231.539L200.188 193.257" fill="#B3C7EB"/>
<path d="M194.031 178.53C194.031 178.53 193.587 177.977 192.906 177.325C191.732 176.189 189.868 174.747 188.447 175.34C187.056 175.923 186.937 178.234 186.967 180.693C186.996 183.696 187.263 186.916 185.753 187.558C184.471 188.101 183.326 187.281 182.142 186.402C180.791 185.395 179.409 184.288 177.742 184.99C174.94 186.175 175.788 189.829 174.802 192.96C174.299 194.56 173.312 196.022 171.112 196.95C168.685 197.968 166.228 196.97 163.919 195.39C160.012 192.723 156.5 188.397 154.221 189.355C150.6 190.876 154.595 200.684 150.698 202.324C148.528 203.242 144.029 196.378 139.658 190.481C136.205 185.809 132.83 181.75 130.749 182.619C126.052 184.594 133.787 208.032 130.374 209.474C130.344 209.484 130.305 209.504 130.265 209.514C128.844 210.077 127.799 209.721 126.881 209.198C125.648 208.497 124.651 207.509 123.29 208.082C120.774 209.139 122.254 218.324 119.481 219.499C116.709 220.665 115.051 218.976 111.934 220.29C109.299 221.396 107.73 227.796 107.73 227.796L109.309 231.539L200.188 193.257" stroke="#002E47" stroke-miterlimit="10" stroke-linecap="round" stroke-linejoin="round"/>
<path d="M174.792 209.771L143.181 223.085C142.589 223.332 142.312 224.023 142.559 224.616C142.806 225.208 143.496 225.485 144.088 225.238L175.7 211.924C176.292 211.677 176.568 210.986 176.321 210.393C176.075 209.8 175.394 209.524 174.792 209.771Z" fill="#002E47"/>
<path d="M201.599 161.532L198.54 162.816C198.225 162.944 197.859 162.796 197.731 162.49L196.449 159.428C196.32 159.112 196.468 158.747 196.774 158.618L199.833 157.334C200.148 157.206 200.514 157.354 200.642 157.66L201.924 160.722C202.063 161.028 201.915 161.394 201.599 161.532Z" fill="#E2EDFF" stroke="#002E47" stroke-miterlimit="10"/>
<path d="M216.35 152.178L203.721 157.502C203.454 157.611 203.149 157.492 203.04 157.226C202.932 156.959 203.05 156.653 203.316 156.544L215.945 151.22C216.212 151.112 216.517 151.23 216.626 151.497C216.735 151.764 216.616 152.06 216.35 152.178Z" fill="#002E47"/>
<path d="M213.381 155.902L204.6 159.596C204.333 159.705 204.028 159.586 203.919 159.32C203.81 159.053 203.929 158.747 204.195 158.638L212.976 154.944C213.243 154.835 213.549 154.954 213.657 155.221C213.766 155.477 213.647 155.784 213.381 155.902Z" fill="#002E47"/>
<path d="M205.556 170.925L202.497 172.209C202.182 172.337 201.817 172.189 201.688 171.883L200.406 168.821C200.277 168.505 200.425 168.14 200.731 168.011L203.79 166.727C204.106 166.599 204.471 166.747 204.599 167.053L205.881 170.115C206.01 170.431 205.862 170.796 205.556 170.925Z" fill="#B3C7EB" stroke="#002E47" stroke-miterlimit="10" stroke-linecap="round" stroke-linejoin="round"/>
<path d="M220.295 161.581L207.666 166.905C207.4 167.014 207.094 166.895 206.985 166.628C206.877 166.362 206.995 166.056 207.262 165.947L219.891 160.623C220.157 160.515 220.463 160.633 220.571 160.9C220.69 161.157 220.561 161.463 220.295 161.581Z" fill="#002E47"/>
<path d="M217.326 165.295L208.545 168.989C208.279 169.098 207.973 168.979 207.864 168.712C207.756 168.446 207.874 168.14 208.141 168.031L216.922 164.337C217.188 164.228 217.494 164.347 217.602 164.614C217.721 164.88 217.592 165.186 217.326 165.295Z" fill="#002E47"/>
</g>
<mask id="mask18_266_51050" style="mask-type:luminance" maskUnits="userSpaceOnUse" x="38" y="38" width="233" height="266">
<path d="M270.316 241.801L137.555 297.734L123.871 303.502L98.08 242.157L38.1914 99.7025L184.637 38.0015L270.316 241.801Z" fill="white"/>
</mask>
<g mask="url(#mask18_266_51050)">
<path d="M236.909 200.338L134.309 243.56C133.717 243.807 133.441 244.498 133.688 245.09C133.935 245.683 134.625 245.96 135.217 245.713L237.817 202.491C238.409 202.245 238.685 201.553 238.439 200.961C238.182 200.368 237.501 200.081 236.909 200.338Z" fill="#002E47"/>
<path d="M240.164 208.072L120.86 258.335C120.268 258.582 119.992 259.274 120.239 259.866C120.485 260.459 121.176 260.736 121.768 260.489L241.071 210.225C241.663 209.978 241.94 209.287 241.693 208.694C241.437 208.102 240.756 207.815 240.164 208.072Z" fill="#002E47"/>
<path d="M243.41 215.805L124.106 266.069C123.514 266.316 123.238 267.007 123.485 267.6C123.731 268.193 124.422 268.469 125.014 268.222L244.318 217.959C244.91 217.712 245.186 217.02 244.939 216.428C244.692 215.835 244.002 215.549 243.41 215.805Z" fill="#002E47"/>
<path d="M246.664 223.539L127.36 273.803C126.768 274.05 126.492 274.741 126.739 275.334C126.985 275.926 127.676 276.203 128.268 275.956L247.571 225.692C248.163 225.445 248.44 224.754 248.193 224.161C247.937 223.569 247.256 223.282 246.664 223.539Z" fill="#002E47"/>
<path d="M199.799 252.38L130.606 281.526C130.014 281.773 129.738 282.465 129.985 283.057C130.231 283.65 130.922 283.926 131.514 283.68L200.707 254.533C201.298 254.286 201.575 253.595 201.328 253.002C201.072 252.409 200.391 252.133 199.799 252.38Z" fill="#002E47"/>
</g>
<mask id="mask19_266_51050" style="mask-type:luminance" maskUnits="userSpaceOnUse" x="38" y="38" width="233" height="266">
<path d="M270.316 241.801L137.555 297.734L123.871 303.502L98.08 242.157L38.1914 99.7025L184.637 38.0015L270.316 241.801Z" fill="white"/>
</mask>
<g mask="url(#mask19_266_51050)">
<path d="M161.698 101.609C161.698 101.609 163.03 112.088 159.133 113.738C155.571 115.239 150.885 109.609 146.79 111.338C142.696 113.066 145.922 127.921 141.975 129.59C138.029 131.249 133.273 125.145 129.87 126.578C126.466 128.01 128.528 135.654 125.015 137.136C122.115 138.361 117.971 132.277 114.656 130.943C113.955 130.657 113.284 130.588 112.682 130.844C109.209 132.306 110.936 148.277 107.937 149.531C106.94 149.956 106.072 150.025 105.273 149.966C104.089 149.887 103.043 149.531 101.889 149.65C101.484 149.69 101.07 149.788 100.626 149.976C98.0703 151.053 98.4157 159.458 96.0773 160.445C93.739 161.433 91.4303 160.208 88.9341 161.265C86.438 162.322 86.4774 166.688 82.7578 168.258L84.3364 172.001L175.215 133.719" fill="#E2EDFF"/>
<path d="M161.698 101.609C161.698 101.609 163.03 112.088 159.133 113.738C155.571 115.239 150.885 109.609 146.79 111.338C142.696 113.066 145.922 127.921 141.975 129.59C138.029 131.249 133.273 125.145 129.87 126.578C126.466 128.01 128.528 135.654 125.015 137.136C122.115 138.361 117.971 132.277 114.656 130.943C113.955 130.657 113.284 130.588 112.682 130.844C109.209 132.306 110.936 148.277 107.937 149.531C106.94 149.956 106.072 150.025 105.273 149.966C104.089 149.887 103.043 149.531 101.889 149.65C101.484 149.69 101.07 149.788 100.626 149.976C98.0703 151.053 98.4157 159.458 96.0773 160.445C93.739 161.433 91.4303 160.208 88.9341 161.265C86.438 162.322 86.4774 166.688 82.7578 168.258L84.3364 172.001L175.215 133.719" stroke="#002E47" stroke-miterlimit="10"/>
<path d="M167.567 115.585C167.567 115.585 168.396 120.661 166.393 121.511C164.725 122.212 163.699 121.234 161.943 121.175C161.243 121.145 160.424 121.264 159.398 121.698C157.789 122.37 157.405 124.543 157.118 126.884C156.763 129.758 156.586 132.869 154.484 133.758C153.014 134.38 151.426 134.015 149.788 133.442C147.183 132.533 144.43 131.091 141.786 132.207C140.504 132.751 139.606 134.143 138.905 135.872C137.258 139.951 136.745 145.857 134.959 146.608C132.423 147.675 127.776 143.309 125.527 144.257C123.277 145.205 124.195 149.127 122.369 149.897C120.544 150.667 119.498 148.396 116.282 149.749C113.065 151.102 114.634 155.863 110.096 157.769C105.557 159.675 103.574 156.169 99.1835 158.016C94.7929 159.863 95.5921 163.191 92.504 164.495C89.4158 165.799 88.1036 163.537 85.8935 164.465C83.7427 165.374 83.1606 168.9 83.1211 169.127L84.3347 172.011L175.213 133.728" fill="#39B4EF"/>
<path d="M167.567 115.585C167.567 115.585 168.396 120.661 166.393 121.511C164.725 122.212 163.699 121.234 161.943 121.175C161.243 121.145 160.424 121.264 159.398 121.698C157.789 122.37 157.405 124.543 157.118 126.884C156.763 129.758 156.586 132.869 154.484 133.758C153.014 134.38 151.426 134.015 149.788 133.442C147.183 132.533 144.43 131.091 141.786 132.207C140.504 132.751 139.606 134.143 138.905 135.872C137.258 139.951 136.745 145.857 134.959 146.608C132.423 147.675 127.776 143.309 125.527 144.257C123.277 145.205 124.195 149.127 122.369 149.897C120.544 150.667 119.498 148.396 116.282 149.749C113.065 151.102 114.634 155.863 110.096 157.769C105.557 159.675 103.574 156.169 99.1835 158.016C94.7929 159.863 95.5921 163.191 92.504 164.495C89.4158 165.799 88.1036 163.537 85.8935 164.465C83.7427 165.374 83.1606 168.9 83.1211 169.127L84.3347 172.011L175.213 133.728" stroke="#002E47" stroke-miterlimit="10"/>
<path d="M65.9141 128.237L84.3148 172.001L179.466 131.921" stroke="#002E47" stroke-miterlimit="10" stroke-linecap="round" stroke-linejoin="round"/>
<path d="M149.484 149.571L117.872 162.885C117.28 163.132 117.004 163.823 117.25 164.416C117.497 165.009 118.188 165.285 118.78 165.038L150.391 151.724C150.983 151.477 151.26 150.786 151.013 150.193C150.766 149.601 150.085 149.324 149.484 149.571Z" fill="#002E47"/>
<path d="M174.978 98.2111L171.919 99.4951C171.603 99.6235 171.238 99.4754 171.11 99.1692L169.828 96.1073C169.699 95.7913 169.847 95.4258 170.153 95.2974L173.212 94.0134C173.527 93.885 173.892 94.0332 174.021 94.3394L175.303 97.4012C175.441 97.7173 175.293 98.0728 174.978 98.2111Z" fill="#E2EDFF" stroke="#002E47" stroke-miterlimit="10"/>
<path d="M189.729 88.8577L177.1 94.1813C176.833 94.29 176.528 94.1715 176.419 93.9048C176.31 93.6381 176.429 93.3319 176.695 93.2233L189.324 87.8996C189.591 87.791 189.896 87.9095 190.005 88.1762C190.123 88.4429 189.995 88.7491 189.729 88.8577Z" fill="#002E47"/>
<path d="M186.76 92.5813L177.979 96.2752C177.712 96.3839 177.406 96.2654 177.298 95.9987C177.189 95.732 177.308 95.4258 177.574 95.3172L186.355 91.6232C186.622 91.5146 186.927 91.6331 187.036 91.8998C187.144 92.1566 187.026 92.4628 186.76 92.5813Z" fill="#002E47"/>
<path d="M178.935 107.614L175.876 108.898C175.56 109.026 175.195 108.878 175.067 108.572L173.785 105.51C173.656 105.194 173.804 104.829 174.11 104.7L177.169 103.416C177.484 103.288 177.849 103.436 177.978 103.742L179.26 106.804C179.389 107.11 179.241 107.476 178.935 107.614Z" fill="#39B4EF" stroke="#002E47" stroke-miterlimit="10"/>
<path d="M193.674 98.2605L181.045 103.584C180.779 103.693 180.473 103.574 180.364 103.308C180.256 103.041 180.374 102.735 180.641 102.626L193.269 97.3024C193.536 97.1938 193.842 97.3123 193.95 97.579C194.059 97.8457 193.94 98.142 193.674 98.2605Z" fill="#002E47"/>
<path d="M190.705 101.984L181.924 105.678C181.658 105.787 181.352 105.668 181.243 105.402C181.135 105.135 181.253 104.829 181.519 104.72L190.3 101.026C190.567 100.917 190.873 101.036 190.981 101.303C191.1 101.559 190.971 101.866 190.705 101.984Z" fill="#002E47"/>
</g>
<mask id="mask20_266_51050" style="mask-type:luminance" maskUnits="userSpaceOnUse" x="38" y="38" width="233" height="266">
<path d="M270.316 241.801L137.555 297.734L123.871 303.502L98.08 242.157L38.1914 99.7025L184.637 38.0015L270.316 241.801Z" fill="white"/>
</mask>
<g mask="url(#mask20_266_51050)">
<path opacity="0.2" d="M137.553 297.734L123.869 303.502L98.0781 242.157C99.6962 240.616 101.591 237.979 102.39 233.693C103.929 225.475 102.844 199.054 123.395 196.328C143.937 193.602 126.612 239.866 127.559 248.686C128.427 256.716 140.138 280.055 137.553 297.734Z" fill="#002E47"/>
</g>
<path d="M270.316 241.802L137.555 297.734L123.871 303.502L98.08 242.157L38.1914 99.7025L184.637 38.0015L270.316 241.802Z" stroke="#002E47" stroke-miterlimit="10" stroke-linecap="round" stroke-linejoin="round"/>
<path d="M129.288 252.034C131.587 244.152 140.585 218.838 139.411 207.647C139.303 206.64 139.086 205.731 138.78 204.921C135.623 196.565 122.717 197.375 117.755 204.299C112.308 211.914 107.869 225.623 107.484 233.959C107.277 238.572 105.303 242.799 103.577 245.673C103.567 245.693 103.567 245.703 103.557 245.713C102.166 248.024 100.942 249.427 100.942 249.427L71.4915 179.478C71.4915 179.478 66.7359 183.33 63.7859 188.091C62.5921 189.997 61.7041 192.071 61.5265 194.086C60.9247 200.971 53.1303 229.278 49.8843 241.229C49.8251 241.486 49.7461 241.723 49.6869 241.96C46.5692 253.437 54.7977 296.065 52.4495 308.451C50.0915 320.827 48.6312 320.56 48.2958 329.35C48.0491 335.77 38.8734 355.287 28.5927 375.327C22.7025 386.814 16.4374 398.459 11.2773 407.892L86.5771 404.761C87.8795 395.605 89.2213 385.935 90.4447 376.582C90.9479 372.73 91.7668 368.769 92.6942 365.016C92.6942 365.016 92.6942 365.016 92.6942 365.006C94.3518 358.29 96.3842 352.215 97.6077 348.66C99.5316 343.109 101.534 332.758 101.534 332.758C110.296 323.474 121.78 308.895 125.105 299.009C125.115 298.989 125.125 298.959 125.125 298.939C125.963 296.441 126.269 294.248 125.875 292.529C125.539 291.107 125.362 289.26 125.283 287.137C125.293 287.127 125.293 287.127 125.283 287.117C124.918 276.41 127.355 258.602 129.288 252.034Z" fill="white"/>
<path opacity="0.4" d="M103.566 245.703C101.228 250.394 98.4157 254.948 96.6201 260.212C94.8244 265.467 92.9005 266.217 87.622 270.326C82.3534 274.445 78.5055 267.659 78.5055 267.659C78.5055 267.659 85.481 260.41 83.1624 256.37C80.834 252.33 72.1713 242.285 72.6844 236.745C73.1876 231.204 67.4256 218.778 67.4256 218.778C67.4256 218.778 80.5774 211.055 78.0221 202.027C76.6309 197.079 69.7442 191.824 63.8047 188.081C66.7547 183.32 71.5103 179.468 71.5103 179.468L100.961 249.417C100.951 249.417 102.175 248.004 103.566 245.703Z" fill="#39B4EF"/>
<path opacity="0.4" d="M55.8129 288.608C55.9905 289.201 60.2725 303.354 56.6614 309.251C52.9615 315.276 49.3406 322.97 51.1066 330.97C52.5175 337.37 40.6779 360.482 28.6016 375.317C38.8823 355.277 48.0579 335.76 48.3046 329.34C48.6499 320.55 50.1003 320.817 52.4583 308.441C54.8065 296.055 46.5879 253.427 49.6958 241.95C49.755 241.713 49.8339 241.476 49.8931 241.219C52.1919 254.227 57.5493 280.134 59.0194 288.46C60.894 299.058 56.0102 289.023 55.8129 288.608Z" fill="#39B4EF"/>
<path opacity="0.4" d="M82.9258 374.014C91.6772 336.294 121.128 307.374 125.114 298.999C121.789 308.876 110.305 323.464 101.544 332.748C101.544 332.748 99.5407 343.089 97.6167 348.65C96.3834 352.205 94.3608 358.28 92.7033 364.996C92.7033 365.006 92.7033 365.006 92.7033 365.006C84.1492 375.09 82.9258 374.014 82.9258 374.014Z" fill="#39B4EF"/>
<path opacity="0.4" d="M129.29 252.034C127.356 258.602 124.909 276.41 125.294 287.107C123.745 280.391 120.765 271.857 120.272 259.975C119.433 239.826 130.839 247.056 126.863 237.13C122.886 227.213 111.55 239.925 117.134 218.917C121.209 203.578 132.822 203.716 138.781 204.911C139.087 205.721 139.304 206.63 139.413 207.637C140.596 218.828 131.598 244.142 129.29 252.034Z" fill="#39B4EF"/>
<path d="M22.7422 387.081C32.1843 369.806 41.3698 352.038 47.9802 332.876C48.7695 330.121 47.7138 326.535 48.513 323.78C57.4618 298.89 47.3093 272.983 48.9767 247.5C50.3778 237.456 53.5843 227.332 56.7909 217.218C58.3004 209.889 58.8727 201.701 61.28 194.333C63.7664 188.782 66.2231 182.323 71.5114 179.478C81.5751 202.57 91.6091 225.752 100.962 249.426C105.185 246.977 105.866 241.505 106.586 236.932C108.855 225.939 111.154 215.865 115.308 206.61C119.531 199.173 130.285 196.002 136.886 202.077C138.77 203.815 139.786 206.492 139.905 209.218C138.622 221.979 134.616 234.858 130.581 246.829C128.993 252.34 127.375 256.953 126.694 262.424C126.773 264.242 126.802 265.141 126.881 266.958C124.543 276.134 126.694 284.213 126.161 293.319C124.119 309.745 110.996 321.192 101.525 333.38C99.1865 342.556 96.8481 351.731 93.6021 360.947C89.6359 374.735 88.3927 388.404 87.041 401.689" stroke="#002E47" stroke-miterlimit="10" stroke-linecap="round" stroke-linejoin="round"/>
<path d="M100.962 249.417C100.962 249.417 97.864 255.372 96.6307 260.212C95.3974 265.052 89.1521 264.35 85.9258 267.363" stroke="#002E47" stroke-miterlimit="10" stroke-linecap="round" stroke-linejoin="round"/>
<path d="M77.4023 240.893C77.4023 240.893 85.8972 243.895 90.8403 247.757C95.7833 251.619 99.4437 252.567 99.4437 252.567" stroke="#002E47" stroke-miterlimit="10" stroke-linecap="round" stroke-linejoin="round"/>
<path d="M71.9844 219.806C71.9844 219.806 78.8415 221.732 83.9226 219.312C83.9226 219.312 84.2975 215.104 85.2151 212.013" stroke="#002E47" stroke-miterlimit="10" stroke-linecap="round" stroke-linejoin="round"/>
<path d="M85.5625 220.309C85.5625 220.309 85.6316 221.267 89.1341 221.307" stroke="#002E47" stroke-miterlimit="10" stroke-linecap="round" stroke-linejoin="round"/>
<path d="M101.544 332.748C101.544 332.748 94.8542 338.822 90.7695 349.766" stroke="#002E47" stroke-miterlimit="10" stroke-linecap="round" stroke-linejoin="round"/>
<path d="M49.3028 244.053C48.9969 249.97 55.9329 270.998 58.0443 281.437C60.1557 291.887 60.9352 299.275 60.9352 299.275" stroke="#002E47" stroke-miterlimit="10" stroke-linecap="round" stroke-linejoin="round"/>
</g>
<defs>
<clipPath id="clip0_266_51050">
<rect width="443" height="438" fill="white"/>
</clipPath>
</defs>
</svg>
