<svg width="451" height="452" viewBox="0 0 451 452" fill="none" xmlns="http://www.w3.org/2000/svg">
<g clip-path="url(#clip0_266_51410)">
<path d="M297.87 8.76828C297.87 8.76828 225.258 -17.0395 153.993 24.0474C82.7189 65.1442 46.7522 146.719 15.8765 212.057C-15.0091 277.405 2.76957 343.87 57.1738 374.179C111.578 404.487 148.573 359.808 224.899 357.632C301.224 355.457 321.748 366.365 385.087 323.262C448.425 280.159 459.865 178.355 409.913 103.028C359.951 27.7 297.87 8.76828 297.87 8.76828Z" fill="#39B4EF"/>
<path opacity="0.7" d="M297.87 8.76828C297.87 8.76828 225.258 -17.0395 153.993 24.0474C82.7189 65.1442 46.7522 146.719 15.8765 212.057C-15.0091 277.405 2.76957 343.87 57.1738 374.179C111.578 404.487 148.573 359.808 224.899 357.632C301.224 355.457 321.748 366.365 385.087 323.262C448.425 280.159 459.865 178.355 409.913 103.028C359.951 27.7 297.87 8.76828 297.87 8.76828Z" fill="white"/>
<path d="M427.825 382.811C423.822 382.232 416.235 377.292 416.235 377.282C416.155 377.233 421.017 373.271 421.346 373.051C425.23 370.566 434.184 368.041 438.167 371.324C441.032 373.69 440.832 377.901 438.297 380.406C435.701 382.981 431.229 383.3 427.825 382.811Z" fill="#39B4EF"/>
<path d="M353.363 344.499C353.273 344.499 355.129 338.521 355.299 338.152C357.166 333.94 363.245 326.894 368.376 327.433C372.07 327.823 374.226 331.445 373.497 334.938C372.748 338.501 369.195 341.235 366.09 342.712C362.427 344.439 353.363 344.499 353.363 344.499Z" fill="#39B4EF"/>
<path d="M345.908 444.357C344.141 446.552 342.534 448.618 341.096 450.514H337.462C339.289 448.169 341.425 445.514 343.831 442.65C345.229 440.973 346.756 439.217 348.343 437.421C347.984 436.982 345.928 434.467 344.31 431.882C341.066 432.97 334.438 432.68 333.579 432.64C333.33 434.776 333.11 436.852 332.93 438.818C332.521 443.259 332.262 447.201 332.092 450.524H329.137C329.377 447.131 329.726 443.099 330.255 438.548C330.495 436.383 330.804 434.067 331.134 431.702C330.295 431.453 323.497 429.327 321.001 427.122C318.735 425.116 316.41 421.932 316.659 418.739C316.899 415.615 319.614 413.09 322.828 413.669C327.29 414.477 330.684 421.912 331.223 425.924C331.253 426.163 331.313 428.768 331.323 430.415C331.463 429.447 331.593 428.509 331.753 427.511C332.052 425.545 332.411 423.589 332.791 421.483C333.01 420.475 333.23 419.447 333.45 418.419C333.649 417.391 333.989 416.333 334.258 415.276C334.927 412.84 335.726 410.415 336.584 407.98C334.857 407.711 328.758 406.683 326.202 405.036C323.657 403.4 320.882 400.605 320.642 397.412C320.412 394.288 322.708 391.374 325.973 391.464C330.505 391.583 334.987 398.42 336.135 402.302C336.205 402.541 336.714 405.425 336.953 407.012C337.482 405.555 338.002 404.098 338.58 402.641C340.258 398.43 342.084 394.228 343.891 390.027C344.45 388.739 344.979 387.452 345.518 386.164C344.909 386.075 337.622 385.007 334.757 383.161C332.212 381.524 329.437 378.729 329.197 375.536C328.967 372.412 331.263 369.498 334.528 369.588C339.06 369.708 343.542 376.544 344.69 380.426C344.78 380.715 345.498 384.867 345.628 385.925C346.816 383.081 347.984 380.246 349.012 377.402C350.44 373.48 351.628 369.548 352.486 365.656C352.197 365.616 344.59 364.528 341.665 362.642C339.12 361.005 336.344 358.211 336.105 355.017C335.875 351.894 338.171 348.98 341.435 349.07C345.967 349.189 350.45 356.025 351.598 359.908C351.677 360.167 352.226 363.321 352.446 364.828C352.586 364.828 352.566 364.828 352.706 364.838C353.584 360.656 353.904 356.494 354.013 352.582C354.083 350.317 354.023 348.151 353.914 346.046C352.476 345.986 345.908 345.656 343.083 344.249C340.377 342.902 337.303 340.427 336.714 337.283C336.135 334.2 338.101 331.056 341.356 330.787C345.878 330.407 351.078 336.715 352.646 340.447C352.726 340.647 353.364 342.812 353.804 344.389C353.744 343.441 353.694 342.453 353.614 341.545C353.325 338.132 352.855 335.018 352.416 332.264C352.157 330.697 351.887 329.29 351.618 327.982C350.24 327.194 344.71 323.93 342.883 321.425C341.106 318.98 339.519 315.368 340.447 312.314C341.356 309.31 344.55 307.434 347.565 308.691C351.747 310.438 353.464 318.432 353.125 322.463C353.095 322.813 352.007 328.212 351.937 328.172C351.937 328.172 351.867 328.132 351.857 328.122C352.137 329.379 352.426 330.737 352.706 332.224C353.205 334.968 353.744 338.082 354.113 341.505C354.482 344.928 354.792 348.65 354.752 352.602C354.722 356.564 354.492 360.736 353.704 364.997C353.694 365.047 353.684 365.097 353.674 365.147C354.293 363.969 356.14 360.746 356.309 360.516C358.695 357.253 365.244 352.343 369.546 353.77C372.651 354.798 373.818 358.311 372.541 361.175C371.233 364.099 367.669 365.776 364.724 366.454C361.4 367.223 354.153 365.746 353.574 365.626C352.786 369.678 351.638 373.77 350.25 377.851C349.461 380.187 348.593 382.512 347.694 384.837C348.263 383.839 348.783 382.951 348.862 382.831C351.248 379.568 357.797 374.658 362.099 376.085C365.204 377.113 366.372 380.626 365.094 383.49C363.786 386.414 360.222 388.091 357.278 388.769C354.283 389.458 348.084 388.33 346.447 388.001C346.087 388.889 345.748 389.777 345.389 390.665C343.672 394.917 341.945 399.148 340.367 403.35C339.808 404.827 339.319 406.314 338.82 407.791C339.329 406.902 339.758 406.164 339.838 406.054C342.234 402.791 348.773 397.881 353.075 399.308C356.18 400.336 357.347 403.849 356.07 406.713C354.762 409.637 351.198 411.314 348.253 411.992C345.398 412.651 339.669 411.653 337.712 411.284C337.253 412.81 336.784 414.347 336.404 415.844C336.165 416.872 335.865 417.85 335.686 418.898C335.486 419.936 335.286 420.954 335.097 421.972C334.787 423.938 334.468 425.974 334.218 427.9C334.038 429.237 333.889 430.515 333.729 431.812C334.258 430.335 335.366 427.451 335.486 427.221C336.724 424.836 339.669 421.463 342.813 419.687C342.993 419.337 343.202 418.998 343.452 418.679C345.379 416.204 349.032 415.595 351.398 417.85C354.672 420.984 353.404 429.058 351.638 432.7C351.538 432.92 350.14 435.115 349.242 436.493C349.891 435.764 350.519 435.046 351.198 434.307C352.536 432.83 353.913 431.393 355.391 429.846C356.13 429.127 356.878 428.389 357.627 427.66C358.356 426.912 359.224 426.213 360.033 425.485C361.929 423.828 363.946 422.241 366.002 420.685C364.714 419.507 360.192 415.276 358.965 412.501C357.747 409.737 356.968 405.865 358.535 403.07C360.063 400.336 363.586 399.178 366.262 401.044C369.975 403.649 369.945 411.823 368.747 415.685C368.678 415.924 367.5 418.609 366.831 420.066C368.079 419.138 369.316 418.21 370.604 417.311C374.328 414.727 378.171 412.222 381.994 409.717C383.162 408.948 384.33 408.17 385.488 407.391C385.029 406.982 379.538 402.062 378.171 398.949C376.953 396.184 376.174 392.312 377.742 389.518C379.269 386.783 382.793 385.626 385.468 387.492C389.181 390.096 389.152 398.27 387.954 402.132C387.864 402.422 386.177 406.274 385.698 407.232C388.263 405.525 390.799 403.789 393.224 401.982C396.578 399.497 399.743 396.873 402.608 394.098C402.388 393.909 396.648 388.809 395.241 385.616C394.023 382.851 393.244 378.979 394.812 376.185C396.339 373.45 399.863 372.292 402.538 374.159C406.251 376.763 406.221 384.937 405.024 388.799C404.944 389.049 403.666 391.993 403.017 393.37C403.137 393.45 403.117 393.44 403.227 393.52C406.271 390.516 408.837 387.222 411.083 384.019C412.391 382.173 413.539 380.326 414.607 378.51C413.439 377.672 408.148 373.77 406.561 371.035C405.053 368.42 403.846 364.658 405.093 361.714C406.311 358.83 409.685 357.283 412.55 358.86C416.523 361.035 417.392 369.169 416.633 373.141C416.593 373.36 415.924 375.506 415.425 377.073C415.894 376.245 416.404 375.396 416.833 374.598C418.48 371.594 419.798 368.74 420.956 366.195C421.594 364.748 422.153 363.42 422.653 362.183C421.934 360.756 419.129 354.988 418.989 351.894C418.849 348.87 419.518 344.988 421.984 342.942C424.399 340.946 428.103 341.126 429.92 343.84C432.445 347.602 429.471 355.217 426.965 358.401C426.745 358.68 422.862 362.582 422.822 362.502C422.822 362.502 422.782 362.432 422.782 362.413C422.323 363.62 421.814 364.907 421.225 366.305C420.127 368.869 418.859 371.764 417.272 374.817C415.695 377.871 413.888 381.155 411.682 384.428C409.476 387.721 406.98 391.065 403.965 394.188C403.935 394.228 403.896 394.258 403.856 394.288C405.024 393.649 408.338 391.973 408.607 391.873C412.401 390.466 420.566 389.977 423.371 393.539C425.388 396.104 424.429 399.687 421.784 401.364C419.079 403.08 415.176 402.511 412.351 401.453C409.156 400.256 403.925 395.036 403.506 394.617C400.611 397.561 397.397 400.346 393.993 402.98C392.046 404.487 390.04 405.954 388.014 407.391C389.042 406.873 389.96 406.413 390.09 406.364C393.883 404.956 402.049 404.467 404.854 408.03C406.87 410.595 405.912 414.178 403.267 415.854C400.561 417.571 396.658 417.002 393.823 415.944C390.948 414.866 386.396 410.505 385.208 409.328C384.42 409.876 383.641 410.425 382.863 410.964C379.089 413.559 375.306 416.134 371.682 418.778C370.404 419.707 369.177 420.675 367.949 421.633C368.857 421.174 369.636 420.794 369.756 420.744C373.549 419.337 381.715 418.848 384.52 422.411C386.536 424.976 385.578 428.559 382.932 430.235C380.227 431.952 376.324 431.383 373.499 430.325C370.754 429.297 366.521 425.305 365.104 423.918C363.876 424.936 362.638 425.954 361.49 427.002C360.722 427.73 359.933 428.379 359.204 429.157C358.465 429.916 357.737 430.654 357.008 431.393C355.67 432.87 354.273 434.377 353.005 435.854C352.117 436.872 351.278 437.85 350.44 438.848C351.697 437.91 354.213 436.123 354.443 435.994C357.986 434.028 365.982 432.311 369.286 435.405C371.672 437.64 371.263 441.323 368.897 443.379C366.481 445.484 362.538 445.514 359.584 444.896C356.319 444.217 350.569 440.035 349.861 439.516C348.473 441.203 347.135 442.81 345.908 444.357Z" fill="#39B4EF"/>
<path d="M302.044 382.811C298.041 382.232 290.454 377.292 290.454 377.282C290.374 377.233 295.236 373.271 295.565 373.051C299.448 370.566 308.403 368.041 312.386 371.324C315.25 373.69 315.051 377.901 312.515 380.406C309.92 382.981 305.448 383.3 302.044 382.811Z" fill="#39B4EF"/>
<path d="M227.581 344.499C227.491 344.499 229.348 338.521 229.518 338.152C231.385 333.94 237.464 326.894 242.595 327.433C246.288 327.823 248.445 331.445 247.716 334.938C246.967 338.501 243.413 341.235 240.309 342.712C236.645 344.439 227.581 344.499 227.581 344.499Z" fill="#39B4EF"/>
<path d="M220.126 444.357C218.359 446.552 216.752 448.618 215.315 450.514H211.681C213.508 448.169 215.644 445.514 218.05 442.65C219.448 440.973 220.975 439.217 222.562 437.421C222.203 436.982 220.146 434.467 218.529 431.882C215.285 432.97 208.657 432.68 207.798 432.64C207.548 434.776 207.329 436.852 207.149 438.818C206.74 443.259 206.48 447.201 206.311 450.524H203.356C203.595 447.131 203.945 443.099 204.474 438.548C204.713 436.383 205.023 434.067 205.352 431.702C204.514 431.453 197.716 429.327 195.22 427.122C192.954 425.116 190.628 421.932 190.878 418.739C191.117 415.615 193.833 413.09 197.047 413.669C201.509 414.477 204.903 421.912 205.442 425.924C205.472 426.163 205.532 428.768 205.542 430.415C205.682 429.447 205.812 428.509 205.971 427.511C206.271 425.545 206.63 423.589 207.009 421.483C207.229 420.475 207.449 419.447 207.668 418.419C207.868 417.391 208.207 416.333 208.477 415.276C209.146 412.84 209.944 410.415 210.803 407.98C209.076 407.711 202.977 406.683 200.421 405.036C197.876 403.4 195.1 400.605 194.861 397.412C194.631 394.288 196.927 391.374 200.191 391.464C204.723 391.583 209.206 398.42 210.354 402.302C210.423 402.541 210.933 405.425 211.172 407.012C211.701 405.555 212.22 404.098 212.799 402.641C214.476 398.43 216.303 394.228 218.11 390.027C218.669 388.739 219.198 387.452 219.737 386.164C219.118 386.075 211.841 385.007 208.976 383.161C206.43 381.524 203.655 378.729 203.416 375.536C203.186 372.412 205.482 369.498 208.746 369.588C213.278 369.708 217.761 376.544 218.908 380.426C218.998 380.715 219.717 384.867 219.847 385.925C221.035 383.081 222.203 380.246 223.231 377.402C224.658 373.48 225.846 369.548 226.705 365.656C226.415 365.616 218.809 364.528 215.884 362.642C213.338 361.005 210.563 358.211 210.324 355.017C210.094 351.894 212.39 348.98 215.654 349.07C220.186 349.189 224.668 356.025 225.816 359.908C225.896 360.167 226.445 363.321 226.665 364.828C226.805 364.828 226.785 364.828 226.924 364.838C227.803 360.656 228.122 356.494 228.232 352.582C228.302 350.317 228.242 348.151 228.132 346.046C226.695 345.986 220.126 345.656 217.301 344.249C214.596 342.902 211.521 340.427 210.933 337.283C210.354 334.2 212.32 331.056 215.574 330.787C220.096 330.407 225.297 336.715 226.864 340.447C226.944 340.647 227.583 342.812 228.022 344.389C227.963 343.441 227.913 342.453 227.833 341.545C227.543 338.132 227.074 335.018 226.635 332.264C226.375 330.697 226.106 329.29 225.836 327.982C224.459 327.194 218.928 323.93 217.102 321.425C215.325 318.98 213.738 315.368 214.666 312.314C215.574 309.31 218.769 307.434 221.783 308.691C225.966 310.438 227.683 318.432 227.344 322.463C227.314 322.813 226.226 328.212 226.156 328.172C226.156 328.172 226.086 328.132 226.076 328.122C226.355 329.379 226.645 330.737 226.924 332.224C227.424 334.968 227.963 338.082 228.332 341.505C228.701 344.928 229.011 348.65 228.971 352.602C228.941 356.564 228.711 360.736 227.923 364.997C227.913 365.047 227.903 365.097 227.893 365.147C228.512 363.969 230.358 360.746 230.528 360.516C232.914 357.253 239.462 352.343 243.765 353.77C246.869 354.798 248.037 358.311 246.759 361.175C245.452 364.099 241.888 365.776 238.943 366.454C235.619 367.223 228.372 365.746 227.793 365.626C227.004 369.678 225.856 373.77 224.469 377.851C223.68 380.187 222.812 382.512 221.913 384.837C222.482 383.839 223.001 382.951 223.081 382.831C225.477 379.568 232.015 374.658 236.318 376.085C239.422 377.113 240.59 380.626 239.313 383.49C238.005 386.414 234.441 388.091 231.496 388.769C228.502 389.458 222.303 388.33 220.665 388.001C220.306 388.889 219.967 389.777 219.607 390.665C217.89 394.917 216.163 399.148 214.586 403.35C214.027 404.827 213.538 406.314 213.039 407.791C213.548 406.902 213.977 406.164 214.057 406.054C216.453 402.791 222.991 397.881 227.294 399.308C230.398 400.336 231.566 403.849 230.288 406.713C228.981 409.637 225.417 411.314 222.472 411.992C219.617 412.651 213.887 411.653 211.931 411.284C211.472 412.81 211.002 414.347 210.623 415.844C210.383 416.872 210.084 417.85 209.904 418.898C209.705 419.936 209.505 420.954 209.315 421.972C209.006 423.938 208.686 425.974 208.437 427.9C208.257 429.237 208.108 430.515 207.948 431.812C208.477 430.335 209.585 427.451 209.705 427.221C210.943 424.836 213.887 421.463 217.032 419.687C217.211 419.337 217.421 418.998 217.671 418.679C219.597 416.204 223.251 415.595 225.617 417.85C228.891 420.984 227.623 429.058 225.856 432.7C225.756 432.92 224.359 435.115 223.46 436.493C224.109 435.764 224.738 435.046 225.417 434.307C226.755 432.83 228.132 431.393 229.61 429.846C230.348 429.127 231.097 428.389 231.846 427.66C232.574 426.912 233.443 426.213 234.252 425.485C236.148 423.828 238.165 422.241 240.221 420.685C238.933 419.507 234.411 415.276 233.183 412.501C231.966 409.737 231.187 405.865 232.754 403.07C234.281 400.336 237.805 399.178 240.481 401.044C244.194 403.649 244.164 411.823 242.966 415.685C242.896 415.924 241.718 418.609 241.05 420.066C242.297 419.138 243.535 418.21 244.823 417.311C248.546 414.727 252.39 412.222 256.213 409.717C257.381 408.948 258.549 408.17 259.707 407.391C259.248 406.982 253.757 402.062 252.39 398.949C251.172 396.184 250.393 392.312 251.96 389.518C253.488 386.783 257.011 385.626 259.687 387.492C263.4 390.096 263.37 398.27 262.172 402.132C262.083 402.422 260.395 406.274 259.916 407.232C262.482 405.525 265.017 403.789 267.443 401.982C270.797 399.497 273.962 396.873 276.827 394.098C276.607 393.909 270.867 388.809 269.46 385.616C268.242 382.851 267.463 378.979 269.03 376.185C270.558 373.45 274.081 372.292 276.757 374.159C280.47 376.763 280.44 384.937 279.242 388.799C279.162 389.049 277.885 391.993 277.236 393.37C277.356 393.45 277.336 393.44 277.445 393.52C280.49 390.516 283.056 387.222 285.302 384.019C286.609 382.173 287.757 380.326 288.825 378.51C287.657 377.672 282.367 373.77 280.78 371.035C279.272 368.42 278.064 364.658 279.312 361.714C280.53 358.83 283.904 357.283 286.769 358.86C290.742 361.035 291.611 369.169 290.852 373.141C290.812 373.36 290.143 375.506 289.644 377.073C290.113 376.245 290.622 375.396 291.052 374.598C292.699 371.594 294.016 368.74 295.174 366.195C295.813 364.748 296.372 363.42 296.871 362.183C296.153 360.756 293.347 354.988 293.208 351.894C293.068 348.87 293.737 344.988 296.202 342.942C298.618 340.946 302.322 341.126 304.138 343.84C306.664 347.602 303.689 355.217 301.184 358.401C300.964 358.68 297.081 362.582 297.041 362.502C297.041 362.502 297.001 362.432 297.001 362.413C296.542 363.62 296.033 364.907 295.444 366.305C294.346 368.869 293.078 371.764 291.491 374.817C289.914 377.871 288.107 381.155 285.901 384.428C283.694 387.721 281.199 391.065 278.184 394.188C278.154 394.228 278.114 394.258 278.074 394.288C279.242 393.649 282.556 391.973 282.826 391.873C286.619 390.466 294.785 389.977 297.59 393.539C299.606 396.104 298.648 399.687 296.003 401.364C293.298 403.08 289.394 402.511 286.569 401.453C283.375 400.256 278.144 395.036 277.725 394.617C274.83 397.561 271.616 400.346 268.212 402.98C266.265 404.487 264.259 405.954 262.232 407.391C263.26 406.873 264.179 406.413 264.309 406.364C268.102 404.956 276.268 404.467 279.073 408.03C281.089 410.595 280.131 414.178 277.485 415.854C274.78 417.571 270.877 417.002 268.042 415.944C265.167 414.866 260.615 410.505 259.427 409.328C258.639 409.876 257.86 410.425 257.081 410.964C253.308 413.559 249.525 416.134 245.901 418.778C244.623 419.707 243.395 420.675 242.168 421.633C243.076 421.174 243.855 420.794 243.974 420.744C247.768 419.337 255.933 418.848 258.738 422.411C260.755 424.976 259.797 428.559 257.151 430.235C254.446 431.952 250.543 431.383 247.718 430.325C244.973 429.297 240.74 425.305 239.323 423.918C238.095 424.936 236.857 425.954 235.709 427.002C234.94 427.73 234.152 428.379 233.423 429.157C232.684 429.916 231.956 430.654 231.227 431.393C229.889 432.87 228.492 434.377 227.224 435.854C226.335 436.872 225.497 437.85 224.658 438.848C225.916 437.91 228.432 436.123 228.661 435.994C232.205 434.028 240.201 432.311 243.505 435.405C245.891 437.64 245.482 441.323 243.116 443.379C240.7 445.484 236.757 445.514 233.802 444.896C230.538 444.217 224.788 440.035 224.079 439.516C222.692 441.203 221.354 442.81 220.126 444.357Z" fill="#39B4EF"/>
<path d="M22.5055 390.366C26.0592 389.857 32.7974 385.466 32.8074 385.456C32.8772 385.406 28.5648 381.893 28.2653 381.704C24.8214 379.498 16.8654 377.253 13.3216 380.167C10.7761 382.262 10.9558 386.005 13.2019 388.24C15.5078 390.516 19.4808 390.805 22.5055 390.366Z" fill="#39B4EF"/>
<path d="M88.6704 356.325C88.7502 356.325 87.0932 351.016 86.9534 350.686C85.2963 346.944 79.8958 340.687 75.3339 341.166C72.0496 341.515 70.133 344.728 70.7819 347.832C71.4407 350.996 74.6051 353.431 77.3703 354.738C80.6146 356.265 88.6604 356.325 88.6704 356.325Z" fill="#39B4EF"/>
<path d="M95.2879 445.045C96.8551 446.991 98.2826 448.828 99.5603 450.514H102.795C101.168 448.428 99.2808 446.073 97.1346 443.528C95.8868 442.041 94.5292 440.475 93.1217 438.888C93.4411 438.499 95.2679 436.263 96.7054 433.968C99.5903 434.926 105.48 434.676 106.239 434.636C106.458 436.533 106.658 438.379 106.818 440.125C107.187 444.067 107.417 447.57 107.556 450.524H110.182C109.972 447.51 109.663 443.928 109.193 439.886C108.974 437.96 108.704 435.904 108.405 433.798C109.143 433.569 115.183 431.692 117.409 429.726C119.415 427.95 121.492 425.116 121.272 422.281C121.053 419.507 118.647 417.262 115.792 417.78C111.829 418.499 108.804 425.106 108.335 428.668C108.305 428.878 108.255 431.193 108.245 432.66C108.115 431.802 108.005 430.964 107.866 430.086C107.596 428.339 107.287 426.603 106.947 424.726C106.758 423.828 106.558 422.92 106.358 422.002C106.179 421.094 105.879 420.146 105.64 419.208C105.041 417.052 104.332 414.886 103.573 412.731C105.101 412.491 110.531 411.573 112.797 410.116C115.053 408.659 117.529 406.174 117.738 403.34C117.948 400.565 115.902 397.981 113.007 398.06C108.984 398.17 104.991 404.238 103.983 407.691C103.923 407.91 103.473 410.465 103.254 411.872C102.785 410.575 102.325 409.278 101.806 407.99C100.319 404.248 98.6919 400.515 97.0847 396.783C96.5956 395.635 96.1164 394.498 95.6373 393.35C96.1863 393.27 102.655 392.322 105.2 390.675C107.456 389.218 109.932 386.733 110.142 383.899C110.351 381.125 108.305 378.54 105.41 378.62C101.387 378.73 97.3942 384.797 96.3859 388.25C96.3061 388.51 95.6672 392.192 95.5574 393.14C94.4993 390.615 93.4711 388.091 92.5527 385.566C91.2849 382.073 90.2268 378.58 89.4581 375.127C89.7077 375.087 96.4758 374.129 99.0712 372.452C101.327 370.995 103.803 368.51 104.013 365.676C104.222 362.902 102.176 360.317 99.2808 360.397C95.2479 360.506 91.2649 366.574 90.2567 370.027C90.1868 370.257 89.6977 373.061 89.4981 374.398C89.3683 374.398 89.3982 374.398 89.2685 374.408C88.4898 370.696 88.2003 366.993 88.1005 363.52C88.0406 361.504 88.0905 359.578 88.1904 357.712C89.4681 357.662 95.3078 357.363 97.8134 356.115C100.219 354.918 102.944 352.722 103.473 349.928C103.983 347.193 102.246 344.399 99.3507 344.159C95.3378 343.82 90.7059 349.419 89.3184 352.742C89.2385 352.922 88.6795 354.838 88.2902 356.245C88.3501 355.397 88.39 354.529 88.4599 353.72C88.7094 350.686 89.1287 347.922 89.528 345.477C89.7576 344.09 89.9972 342.842 90.2368 341.675C91.4646 340.976 96.376 338.072 97.9931 335.846C99.5703 333.671 100.988 330.467 100.159 327.743C99.3507 325.078 96.5157 323.401 93.8404 324.519C90.127 326.066 88.5996 333.172 88.8991 336.754C88.9291 337.064 89.8874 341.864 89.9573 341.824C89.9573 341.824 90.0172 341.794 90.0271 341.784C89.7776 342.902 89.518 344.11 89.2685 345.427C88.8193 347.872 88.3401 350.626 88.0207 353.67C87.6912 356.704 87.4217 360.017 87.4517 363.53C87.4716 367.053 87.6813 370.756 88.39 374.538C88.4 374.578 88.41 374.628 88.42 374.668C87.8709 373.62 86.2338 370.756 86.0841 370.546C83.9578 367.642 78.148 363.281 74.3248 364.548C71.5696 365.456 70.5314 368.58 71.6694 371.125C72.8274 373.72 76.0018 375.217 78.6172 375.815C81.572 376.494 88.0107 375.187 88.5198 375.077C89.2285 378.68 90.2368 382.312 91.4746 385.945C92.1733 388.021 92.942 390.087 93.7506 392.142C93.2415 391.254 92.7923 390.466 92.7124 390.366C90.5862 387.462 84.7764 383.101 80.9531 384.368C78.1979 385.276 77.1598 388.4 78.2978 390.945C79.4557 393.54 82.6301 395.037 85.2455 395.635C87.9009 396.244 93.4112 395.246 94.8686 394.957C95.188 395.745 95.4875 396.533 95.807 397.322C97.3343 401.094 98.8716 404.857 100.259 408.589C100.748 409.906 101.187 411.224 101.627 412.531C101.177 411.743 100.788 411.084 100.728 410.994C98.602 408.09 92.7923 403.729 88.969 404.996C86.2138 405.905 85.1757 409.028 86.3137 411.573C87.4716 414.168 90.646 415.665 93.2614 416.264C95.797 416.842 100.898 415.964 102.625 415.635C103.034 416.992 103.453 418.349 103.793 419.687C104.003 420.605 104.272 421.473 104.432 422.401C104.611 423.319 104.781 424.227 104.961 425.136C105.23 426.882 105.52 428.688 105.739 430.405C105.899 431.593 106.039 432.73 106.179 433.878C105.7 432.561 104.721 430.006 104.611 429.806C103.513 427.69 100.898 424.687 98.0929 423.11C97.9332 422.8 97.7436 422.501 97.5239 422.221C95.8169 420.026 92.5627 419.477 90.4664 421.483C87.5515 424.267 88.6795 431.443 90.2467 434.676C90.3366 434.866 91.5744 436.822 92.373 438.049C91.794 437.401 91.235 436.762 90.6361 436.103C89.4482 434.796 88.2303 433.519 86.9126 432.141C86.2538 431.503 85.5949 430.854 84.9261 430.195C84.2773 429.527 83.5086 428.918 82.7899 428.259C81.1028 426.782 79.316 425.375 77.4892 423.988C78.6372 422.95 82.6501 419.188 83.7382 416.713C84.8163 414.258 85.5151 410.815 84.1175 408.34C82.7599 405.914 79.6354 404.877 77.2496 406.543C73.9454 408.849 73.9754 416.114 75.0335 419.557C75.1034 419.776 76.1416 422.152 76.7305 423.449C75.6225 422.631 74.5244 421.802 73.3764 421.004C70.0723 418.709 66.6583 416.483 63.2543 414.258C62.2161 413.579 61.1879 412.88 60.1497 412.192C60.559 411.823 65.4304 407.461 66.6483 404.697C67.7264 402.242 68.4252 398.809 67.0376 396.324C65.68 393.899 62.5555 392.861 60.1697 394.528C56.8655 396.843 56.8954 404.098 57.9536 407.541C58.0334 407.801 59.5308 411.224 59.96 412.072C57.6841 410.555 55.428 409.018 53.2718 407.411C50.2871 405.206 47.482 402.871 44.9365 400.406C45.1262 400.236 50.2372 395.705 51.485 392.871C52.5631 390.416 53.2618 386.973 51.8643 384.498C50.5067 382.063 47.3822 381.035 44.9964 382.701C41.6922 385.017 41.7221 392.272 42.7803 395.715C42.8502 395.945 43.9882 398.549 44.5572 399.777C44.4573 399.847 44.4773 399.837 44.3675 399.907C41.6623 397.242 39.3863 394.308 37.3898 391.464C36.2318 389.817 35.2136 388.18 34.2553 386.564C35.2935 385.815 39.9952 382.352 41.4027 379.927C42.7503 377.602 43.8085 374.269 42.7004 371.644C41.6123 369.079 38.6176 367.712 36.0721 369.109C32.5383 371.045 31.7697 378.27 32.4485 381.803C32.4884 381.993 33.0774 383.909 33.5266 385.296C33.1073 384.558 32.6581 383.809 32.2688 383.101C30.8014 380.426 29.6334 377.891 28.6052 375.636C28.0362 374.348 27.5471 373.171 27.0979 372.073C27.7368 370.806 30.2324 365.686 30.3522 362.931C30.4719 360.247 29.883 356.794 27.6868 354.978C25.5406 353.201 22.2564 353.371 20.6393 355.776C18.3932 359.119 21.0385 365.886 23.2646 368.71C23.4543 368.949 26.9082 372.422 26.9382 372.362C26.9382 372.362 26.9681 372.303 26.9781 372.283C27.3874 373.35 27.8366 374.498 28.3557 375.736C29.3339 378.021 30.452 380.586 31.8595 383.3C33.267 386.015 34.8642 388.929 36.8208 391.843C38.7873 394.767 41.0034 397.741 43.6787 400.515C43.7087 400.545 43.7486 400.575 43.7785 400.605C42.7404 400.036 39.7955 398.549 39.556 398.46C36.1819 397.212 28.9247 396.773 26.439 399.947C24.6422 402.232 25.5007 405.406 27.8466 406.902C30.2523 408.429 33.7162 407.93 36.2318 406.982C39.0668 405.924 43.7186 401.274 44.088 400.905C46.6634 403.519 49.5184 405.994 52.5431 408.34C54.2701 409.687 56.0569 410.984 57.8637 412.262C56.9553 411.803 56.1368 411.393 56.017 411.354C52.6429 410.106 45.3857 409.677 42.9001 412.84C41.1032 415.126 41.9617 418.299 44.3076 419.796C46.7134 421.323 50.1773 420.824 52.6928 419.876C55.2483 418.918 59.2912 415.046 60.3494 413.998C61.0481 414.477 61.7369 414.976 62.4357 415.455C65.7898 417.761 69.1439 420.056 72.3682 422.401C73.5062 423.229 74.5943 424.078 75.6824 424.936C74.8738 424.527 74.185 424.188 74.0752 424.148C70.7011 422.9 63.4539 422.461 60.9583 425.635C59.1615 427.92 60.0199 431.094 62.3658 432.591C64.7716 434.117 68.2355 433.618 70.7511 432.67C73.1868 431.762 76.9501 428.209 78.2079 426.982C79.296 427.89 80.3941 428.788 81.4123 429.716C82.0911 430.365 82.7899 430.944 83.4387 431.632C84.0976 432.301 84.7464 432.96 85.3853 433.618C86.5732 434.926 87.811 436.273 88.939 437.58C89.7277 438.479 90.4664 439.357 91.215 440.235C90.097 439.397 87.8609 437.81 87.6613 437.7C84.5168 435.954 77.4093 434.427 74.4745 437.181C72.3582 439.167 72.7176 442.441 74.8139 444.267C76.9601 446.133 80.464 446.163 83.0893 445.614C85.9842 445.005 91.0952 441.303 91.7241 440.834C93.0119 442.241 94.1898 443.668 95.2879 445.045Z" fill="#39B4EF"/>
<path d="M323.105 412.89H138.52C134.287 412.89 130.863 409.457 130.863 405.236V43.0489C130.863 38.8174 134.297 35.3944 138.52 35.3944H323.105C327.337 35.3944 330.761 38.8274 330.761 43.0489V405.236C330.761 409.467 327.337 412.89 323.105 412.89Z" fill="#002E47" stroke="#002E47" stroke-miterlimit="10" stroke-linecap="round" stroke-linejoin="round"/>
<path d="M321.886 76.8405H139.746V371.444H321.886V76.8405Z" fill="white" stroke="#002E47" stroke-miterlimit="10" stroke-linecap="round" stroke-linejoin="round"/>
<path d="M250.612 56.2222H211.012C209.524 56.2222 208.316 55.0147 208.316 53.5277C208.316 52.0407 209.524 50.8331 211.012 50.8331H250.612C252.099 50.8331 253.307 52.0407 253.307 53.5277C253.307 55.0147 252.099 56.2222 250.612 56.2222Z" fill="white"/>
<path d="M241.61 388.081C241.61 382.113 236.778 377.282 230.809 377.282C224.849 377.282 220.008 382.113 220.008 388.081C220.008 394.049 224.839 398.879 230.809 398.879C236.778 398.879 241.61 394.039 241.61 388.081Z" fill="white" stroke="#002E47" stroke-width="0.7043" stroke-miterlimit="10" stroke-linecap="round" stroke-linejoin="round"/>
<path d="M236.287 382.602H225.336V393.55H236.287V382.602Z" fill="#002E47"/>
<path d="M335.405 259.73L334.227 268.712C334.227 268.712 329.355 302.075 332.729 319.32C336.103 336.565 342.482 354.179 342.851 358.301C343.231 362.422 340.975 378.54 343.6 391.663C346.226 404.787 351.097 430.644 351.097 430.644L346.974 440.395C346.974 440.395 338.349 446.013 337.221 447.889C336.093 449.766 337.97 450.514 337.97 450.514H364.963C364.963 450.514 366.091 448.269 366.091 444.137C366.091 440.015 366.091 420.525 366.091 417.9C366.091 415.276 367.588 370.666 369.085 362.802C370.583 354.928 372.08 295.328 372.08 295.328H373.577C373.577 295.328 380.705 354.558 382.572 360.926C384.448 367.303 392.324 394.657 394.57 400.286C396.816 405.904 399.442 425.405 400.949 430.275C402.447 435.145 403.944 440.774 404.323 443.768C404.703 446.762 406.2 450.514 406.2 450.514H426.464C426.464 450.514 426.844 447.141 425.336 444.896C423.839 442.65 414.086 432.9 412.589 425.774C411.091 418.649 414.835 385.665 414.465 374.049C414.086 362.432 410.712 360.925 410.712 350.806C410.712 340.686 414.465 309.949 414.465 295.328C414.465 280.708 412.519 267.235 408.805 259.541L403.595 254.471H339.108L335.405 259.73Z" fill="#E2EDFF" stroke="#002E47" stroke-miterlimit="10" stroke-linecap="round" stroke-linejoin="round"/>
<path d="M415.633 432.471L415.583 432.521C415.583 432.521 410.332 429.147 408.456 431.772C406.579 434.397 406.579 435.894 406.579 435.894H402.586C403.424 438.997 404.093 441.892 404.333 443.768C404.712 446.762 406.21 450.514 406.21 450.514H426.464C426.464 450.514 426.843 447.141 425.336 444.896C424.278 443.299 419.117 437.97 415.633 432.471Z" fill="#39B4EF" stroke="#002E47" stroke-miterlimit="10" stroke-linecap="round" stroke-linejoin="round"/>
<path d="M406.221 450.514H426.465C426.465 450.514 426.595 449.337 426.395 447.909H405.312C405.772 449.406 406.221 450.514 406.221 450.514Z" fill="white" stroke="#002E47" stroke-miterlimit="10" stroke-linecap="round" stroke-linejoin="round"/>
<path d="M366.099 444.137C366.099 442.979 366.099 440.624 366.099 437.76H358.972C358.972 437.76 359.351 434.766 355.977 432.511C352.603 430.265 349.229 435.505 349.229 435.505H349.039L346.973 440.375C346.973 440.375 338.348 445.993 337.22 447.87C336.092 449.746 337.969 450.494 337.969 450.494H364.961C364.971 450.514 366.099 448.269 366.099 444.137Z" fill="#39B4EF" stroke="#002E47" stroke-miterlimit="10" stroke-linecap="round" stroke-linejoin="round"/>
<path d="M337.211 447.909C336.113 449.766 337.969 450.514 337.969 450.514H364.962C364.962 450.514 365.411 449.616 365.74 447.909H337.211Z" fill="white" stroke="#002E47" stroke-miterlimit="10" stroke-linecap="round" stroke-linejoin="round"/>
<path d="M412.491 411.952C413.12 399.188 414.717 381.823 414.467 374.049C414.088 362.432 410.714 360.925 410.714 350.806C410.714 340.686 414.467 309.949 414.467 295.328C414.467 280.708 412.521 267.235 408.807 259.541L403.596 254.471H339.11L335.416 259.74L334.238 268.722C334.238 268.722 329.367 302.085 332.741 319.33C336.115 336.575 342.494 354.189 342.863 358.311C343.243 362.432 340.987 378.55 343.612 391.673C344.76 397.432 346.347 405.645 347.765 413.06C352.147 414.018 359.125 415.146 366.182 414.727C366.512 403.869 367.809 369.618 369.107 362.812C370.604 354.938 372.102 295.338 372.102 295.338H373.599C373.599 295.338 380.727 354.568 382.593 360.935C384.47 367.313 392.346 394.667 394.592 400.296C395.55 402.691 396.579 407.611 397.557 412.84C401.59 413.529 406.771 413.659 412.491 411.952Z" fill="white" stroke="#002E47" stroke-miterlimit="10" stroke-linecap="round" stroke-linejoin="round"/>
<path d="M378.098 291.955L398.342 275.838" stroke="#002E47" stroke-miterlimit="10" stroke-linecap="round" stroke-linejoin="round"/>
<path d="M348.473 277.335L358.974 285.957" stroke="#002E47" stroke-miterlimit="10" stroke-linecap="round" stroke-linejoin="round"/>
<path d="M392.486 95.6923C392.486 95.6923 383.871 90.6026 384.071 93.3471C384.27 96.0915 387.984 98.0475 387.984 98.0475C387.984 98.0475 375.656 96.2911 373.699 97.0695C371.742 97.8479 375.067 98.826 375.067 98.826C375.067 98.826 359.803 110.572 354.513 118.586C349.232 126.61 344.53 138.346 350.011 147.348C355.491 156.35 363.517 163.395 377.023 167.307C390.529 171.219 403.836 167.108 412.84 163.395C421.844 159.673 430.848 149.114 429.281 135.801C427.714 122.498 415.975 108.596 407.16 99.2052C398.356 89.8142 392.875 91.1814 392.875 92.5487C392.875 93.9259 392.486 95.6923 392.486 95.6923Z" fill="#002E47" stroke="#002E47" stroke-miterlimit="10" stroke-linecap="round" stroke-linejoin="round"/>
<path d="M371.402 151.28L369.386 166.329C369.386 166.329 355.101 171.03 349.81 173.175C344.53 175.331 342.174 178.066 341.195 180.421C340.217 182.766 326.202 215.31 325.613 218.434C325.024 221.568 326.002 222.935 330.315 224.891C334.617 226.847 346.566 219.611 346.566 219.611L348.133 225.09C348.133 225.09 340.307 238.393 338.929 242.705C337.562 247.006 335.406 259.73 335.406 259.73C335.406 259.73 350.279 267.165 373.768 266.576C397.257 265.988 408.806 259.531 408.806 259.531C408.806 259.531 406.261 246.806 403.526 239.371C400.781 231.937 398.435 229.002 398.435 226.068C398.435 223.134 407.05 207.865 407.05 207.865L425.247 216.438C425.247 216.438 420.945 201.598 419.777 191.618C418.599 181.638 416.563 180.022 412.65 176.499C408.737 172.976 391.507 167.886 390.918 167.497C390.329 167.108 391.697 150.671 391.697 150.671C391.697 150.671 376.883 154.613 371.402 151.28Z" fill="#E2EDFF" stroke="#002E47" stroke-miterlimit="10" stroke-linecap="round" stroke-linejoin="round"/>
<path d="M382.752 161.589C385.488 160.561 388.742 157.996 391.307 155.691C391.507 152.877 391.697 150.681 391.697 150.681C391.697 150.681 376.883 154.613 371.392 151.28L370.055 161.3C373.089 163.994 378.041 163.365 382.752 161.589Z" fill="#002E47" stroke="#002E47" stroke-miterlimit="10" stroke-linecap="round" stroke-linejoin="round"/>
<path d="M403.527 239.382C400.782 231.947 398.436 229.012 398.436 226.078C398.436 223.144 407.051 207.875 407.051 207.875L425.249 216.448C425.249 216.448 420.947 201.608 419.779 191.628C419.14 186.229 418.252 183.285 416.954 181.159C389.063 184.702 358.087 178.345 345.689 175.341C343.204 177.008 341.886 178.814 341.207 180.431C340.229 182.776 326.214 215.32 325.625 218.444C325.036 221.578 326.014 222.945 330.326 224.901C334.629 226.857 346.578 219.622 346.578 219.622L348.145 225.1C348.145 225.1 340.319 238.403 338.941 242.715C337.574 247.016 335.417 259.74 335.417 259.74C335.417 259.74 350.291 267.175 373.78 266.586C397.268 265.998 408.818 259.541 408.818 259.541C408.818 259.541 406.263 246.816 403.527 239.382Z" fill="#39B4EF" stroke="#002E47" stroke-miterlimit="10" stroke-linecap="round" stroke-linejoin="round"/>
<path d="M349.083 214.232C349.083 214.232 345.179 206.079 346.248 201.828C347.316 197.576 348.024 196.508 348.024 196.508" stroke="#002E47" stroke-miterlimit="10" stroke-linecap="round" stroke-linejoin="round"/>
<path d="M419.768 191.638C419.129 186.239 418.241 183.295 416.943 181.169C389.052 184.712 358.077 178.355 345.679 175.351C343.193 177.018 341.875 178.824 341.197 180.441C340.847 181.269 338.891 185.84 336.465 191.548C347.436 194.512 389.511 204.951 421.186 200.071C420.597 197.157 420.078 194.233 419.768 191.638Z" fill="#39B4EF" stroke="#002E47" stroke-miterlimit="10" stroke-linecap="round" stroke-linejoin="round"/>
<path d="M375.226 114.893L400.212 130.971L399.523 137.468C399.523 137.468 403.975 133.017 404.654 137.807C405.333 142.597 403.626 144.993 400.551 146.36C397.467 147.727 395.76 147.388 395.76 147.388C395.76 147.388 388.233 155.601 382.753 157.657C377.272 159.713 371.482 160.252 368.737 155.801C366.002 151.35 362.219 143.286 363.247 138.496C364.275 133.705 373.519 114.883 373.519 114.883H375.226V114.893Z" fill="#E2EDFF" stroke="#002E47" stroke-miterlimit="10" stroke-linecap="round" stroke-linejoin="round"/>
<path d="M377.681 130.093C377.681 130.093 377.681 132.248 376.503 133.416C375.325 134.594 372.59 136.16 372.59 137.328C372.59 138.496 375.135 140.851 377.481 140.651" stroke="#002E47" stroke-miterlimit="10" stroke-linecap="round" stroke-linejoin="round"/>
<path d="M373.367 143.206C373.367 143.206 376.891 145.951 381.193 143.007" stroke="#002E47" stroke-miterlimit="10" stroke-linecap="round" stroke-linejoin="round"/>
<path d="M382.773 133.027C382.773 133.027 387.076 131.46 389.432 134.783" stroke="#002E47" stroke-miterlimit="10" stroke-linecap="round" stroke-linejoin="round"/>
<path d="M369.457 131.071C369.457 131.071 372.981 129.504 374.738 131.46" stroke="#002E47" stroke-miterlimit="10" stroke-linecap="round" stroke-linejoin="round"/>
<path d="M371.613 124.414C371.613 124.414 373.37 121.869 377.094 122.847" stroke="#002E47" stroke-miterlimit="10" stroke-linecap="round" stroke-linejoin="round"/>
<path d="M384.73 124.803C384.73 124.803 390.211 125.003 391.389 130.083" stroke="#002E47" stroke-miterlimit="10" stroke-linecap="round" stroke-linejoin="round"/>
<path d="M334.629 211.987C334.629 211.987 328.559 214.332 326.603 218.055C324.646 221.777 325.036 230.38 332.672 232.535C340.309 234.691 396.68 223.334 396.68 223.334C396.68 223.334 399.814 228.034 401.182 229.402C402.549 230.769 406.073 233.513 406.273 234.681C406.472 235.849 406.862 243.294 408.429 243.683C409.996 244.072 409.407 240.16 409.407 240.16C409.407 240.16 411.953 236.437 411.953 234.681C411.953 232.925 412.342 227.246 411.953 225.879C411.563 224.512 402.36 216.488 400.403 215.899C398.447 215.31 348.335 213.943 343.643 213.155C338.931 212.376 336.186 211.787 334.629 211.987Z" fill="#E2EDFF" stroke="#002E47" stroke-miterlimit="10" stroke-linecap="round" stroke-linejoin="round"/>
<path d="M384.508 158.136L390.507 162.118C391.565 162.826 393.003 162.537 393.702 161.479L405.79 143.296C406.499 142.238 406.21 140.801 405.151 140.102L399.152 136.12C398.094 135.412 396.656 135.701 395.958 136.769L383.869 154.952C383.16 156 383.45 157.427 384.508 158.136Z" fill="#39B4EF" stroke="#002E47" stroke-miterlimit="10"/>
<path d="M402.497 158.455C402.497 158.455 403.735 155.282 404.963 152.986C406.2 150.691 406.2 149.633 405.312 149.633C404.433 149.633 402.138 150.691 401.429 153.336C400.72 155.98 401.079 159.154 401.079 159.154L402.497 158.455Z" fill="#E2EDFF" stroke="#002E47" stroke-miterlimit="10"/>
<path d="M391.914 170.621C391.914 170.621 401.967 160.571 402.316 159.693C402.616 158.934 402.266 147.368 402.166 144.134C402.146 143.645 401.797 143.236 401.318 143.156C400.719 143.046 400.15 143.476 400.1 144.084L399.311 153.356L397.006 141.679C396.906 141.19 396.486 140.841 395.987 140.841C395.398 140.841 394.919 141.34 394.949 141.929L395.598 154.942L392.703 143.835C392.553 143.256 391.954 142.907 391.375 143.066C390.866 143.206 390.527 143.695 390.587 144.224L391.895 156.18L389.429 158.296V154.064L386.474 149.094C386.254 148.715 385.775 148.575 385.386 148.775C384.987 148.974 384.817 149.454 384.997 149.863L386.963 154.244C386.963 154.244 383.08 170.112 382.91 170.641C382.731 171.17 383.619 173.994 384.148 175.052C384.677 176.11 408.306 226.168 409.713 228.114C411.121 230.05 420.644 233.054 424.876 228.464C429.109 223.883 427.701 219.302 425.406 214.013C423.13 208.694 391.914 170.621 391.914 170.621Z" fill="#E2EDFF" stroke="#002E47" stroke-miterlimit="10"/>
<path d="M227.813 176.07C250.968 176.07 269.739 157.304 269.739 134.154C269.739 111.005 250.968 92.2393 227.813 92.2393C204.658 92.2393 185.887 111.005 185.887 134.154C185.887 157.304 204.658 176.07 227.813 176.07Z" fill="#39B4EF"/>
<path d="M253.421 115.183H203.719L228.216 138.795L253.421 115.183Z" fill="#002E47"/>
<path d="M238.168 133.566L255.468 148.855V117.358L238.168 133.566Z" fill="#002E47"/>
<path d="M218.451 133.536L200.922 116.65V148.136L218.451 133.536Z" fill="#002E47"/>
<path d="M235.97 135.622L228.183 142.917L220.617 135.631L202.379 150.821H253.17L235.97 135.622Z" fill="#002E47"/>
<path d="M227.813 267.884C250.968 267.884 269.739 249.118 269.739 225.969C269.739 202.82 250.968 184.053 227.813 184.053C204.658 184.053 185.887 202.82 185.887 225.969C185.887 249.118 204.658 267.884 227.813 267.884Z" fill="#39B4EF"/>
<path d="M222.211 212.745C222.8 213.763 223.838 214.013 224.876 213.454C226.244 212.705 227.611 211.957 228.899 211.089C229.388 210.759 229.658 210.091 229.997 209.602C229.748 209.003 229.618 208.604 229.418 208.245C228.869 207.257 228.29 206.278 227.731 205.3C225.805 201.967 223.878 198.624 221.951 195.291C221.173 193.953 220.194 193.694 218.847 194.462C217.619 195.161 216.381 195.86 215.173 196.598C214.145 197.227 213.846 198.225 214.425 199.243C217 203.754 219.596 208.254 222.211 212.745Z" fill="#002E47"/>
<path d="M250.993 245.589C248.467 241.198 245.942 236.807 243.386 232.426C242.688 231.218 241.729 230.959 240.521 231.627C239.254 232.326 237.986 233.054 236.748 233.803C235.71 234.422 235.39 235.42 235.919 236.447L244.185 250.539C244.784 251.068 245.582 251.138 246.371 250.709C247.709 249.98 249.056 249.252 250.314 248.403C250.813 248.064 251.123 247.435 251.492 246.956C251.282 246.367 251.203 245.948 250.993 245.589Z" fill="#002E47"/>
<path d="M233.882 237.356C232.125 237.974 230.468 237.785 228.851 236.916C228.012 236.467 227.184 235.958 226.475 235.33C222.692 231.986 220.296 227.795 219.138 222.915C218.409 219.881 218.209 216.907 220.505 214.542L212 200.031C211.332 200.46 210.693 200.869 210.084 201.299C207.538 203.075 206.131 205.53 206.36 208.624C206.58 211.568 206.879 214.572 207.648 217.416C210.393 227.565 215.534 236.477 222.322 244.451C224.928 247.505 227.832 250.259 231.316 252.335C234.91 254.481 239.182 254.261 242.377 251.826L233.882 237.356Z" fill="#002E47"/>
<path d="M227.813 359.698C250.968 359.698 269.739 340.932 269.739 317.783C269.739 294.634 250.968 275.868 227.813 275.868C204.658 275.868 185.887 294.634 185.887 317.783C185.887 340.932 204.658 359.698 227.813 359.698Z" fill="#39B4EF"/>
<path d="M221.634 325.637H212.32V330.357C212.32 333.431 214.706 335.946 217.721 336.156L221.634 325.637Z" fill="#002E47"/>
<path d="M247.6 309.47H243.567V317.693C243.567 322.084 239.994 325.647 235.611 325.647H235.472L221.227 336.186H236.689L232.866 346.465L246.752 336.186H247.59C250.805 336.186 253.41 333.581 253.41 330.367V315.298C253.43 312.074 250.815 309.47 247.6 309.47Z" fill="#002E47"/>
<path d="M235.61 296.795H206.152C202.937 296.795 200.332 299.4 200.332 302.614V317.683C200.332 320.897 202.937 323.501 206.152 323.501H224.709L220.886 333.771L234.771 323.501H235.61C238.824 323.501 241.43 320.897 241.43 317.683V302.614C241.44 299.4 238.824 296.795 235.61 296.795Z" fill="#002E47"/>
<path d="M212.809 311.855C213.961 311.855 214.895 310.921 214.895 309.769C214.895 308.617 213.961 307.683 212.809 307.683C211.657 307.683 210.723 308.617 210.723 309.769C210.723 310.921 211.657 311.855 212.809 311.855Z" fill="#39B4EF"/>
<path d="M223.391 309.769C223.391 310.917 222.463 311.855 221.305 311.855C220.157 311.855 219.219 310.927 219.219 309.769C219.219 308.611 220.147 307.683 221.305 307.683C222.453 307.683 223.391 308.621 223.391 309.769Z" fill="#39B4EF"/>
<path d="M231.876 309.769C231.876 310.917 230.947 311.855 229.789 311.855C228.641 311.855 227.703 310.927 227.703 309.769C227.703 308.611 228.631 307.683 229.789 307.683C230.947 307.683 231.876 308.621 231.876 309.769Z" fill="#39B4EF"/>
<path d="M127.163 195.64L127.922 194.612L140.29 177.766C140.29 177.766 141.967 167.717 142.805 165.202C143.644 162.687 145.321 157.388 145.88 155.431C146.439 153.475 146.998 151.24 148.116 152.078C149.234 152.917 149.234 156.27 148.675 157.946C148.116 159.623 148.116 161.858 148.396 162.697C148.675 163.535 163.479 150.97 164.877 152.088C166.274 153.206 164.317 158.515 161.522 162.138C158.727 165.771 147.277 178.894 147.277 178.894C147.277 178.894 134.151 214.073 130.237 219.661C126.324 225.25 125.486 222.735 121.583 219.661C117.67 216.588 112.648 209.612 112.648 209.612L127.163 195.64Z" fill="white" stroke="#002E47" stroke-miterlimit="10" stroke-linecap="round" stroke-linejoin="round"/>
<path d="M147.555 172.188C147.555 172.188 148.952 167.158 150.35 166.04C151.747 164.922 157.048 161.569 157.048 161.569L160.682 150.402C160.682 150.402 161.8 149.563 161.52 152.078C161.241 154.593 160.682 160.172 159.843 162.687C159.005 165.202 155.371 169.663 155.371 169.663" fill="white"/>
<path d="M147.555 172.188C147.555 172.188 148.952 167.158 150.35 166.04C151.747 164.922 157.048 161.569 157.048 161.569L160.682 150.402C160.682 150.402 161.8 149.563 161.52 152.078C161.241 154.593 160.682 160.172 159.843 162.687C159.005 165.202 155.371 169.663 155.371 169.663" stroke="#002E47" stroke-miterlimit="10" stroke-linecap="round" stroke-linejoin="round"/>
<path d="M107.059 152.917L128.561 195.081L112.09 211.837L107.338 195.92L107.059 152.917Z" fill="#39B4EF" stroke="#002E47" stroke-miterlimit="10" stroke-linecap="round" stroke-linejoin="round"/>
<path d="M110.113 205.231L112.09 211.837L128.561 195.081L125.596 189.273L110.113 205.231Z" fill="#002E47" stroke="#002E47" stroke-miterlimit="10"/>
<path d="M55.4973 430.535L53.5108 438.449C53.5108 438.449 41.8014 444.936 40.903 445.834C40.0046 446.732 40.364 450.514 40.364 450.514H73.875C73.875 450.514 74.2343 446.732 73.1562 441.872C72.5273 439.057 72.2279 431.283 72.2279 431.283L55.4973 430.535Z" fill="#002E47" stroke="#002E47" stroke-miterlimit="10" stroke-linecap="round" stroke-linejoin="round"/>
<path d="M40.3551 450.514H73.8661C73.8661 450.514 73.9459 449.696 73.916 448.349H40.2952C40.2652 449.476 40.3551 450.514 40.3551 450.514Z" fill="white" stroke="#002E47" stroke-miterlimit="10" stroke-linecap="round" stroke-linejoin="round"/>
<path d="M41.6233 445.474C41.6233 445.474 44.3285 442.77 49.729 441.872C55.1295 440.974 60.0009 442.95 61.079 444.037C62.1571 445.115 62.8759 448.179 62.8759 448.179L40.2956 448.359C40.2956 448.349 39.0977 446.193 41.6233 445.474Z" fill="white" stroke="#002E47" stroke-miterlimit="10" stroke-linecap="round" stroke-linejoin="round"/>
<path d="M70.4413 436.912C70.4413 438.848 69.7526 440.425 68.914 440.425C68.0655 440.425 67.3867 438.848 67.3867 436.912C67.3867 434.976 68.0755 433.399 68.914 433.399C69.7625 433.409 70.4413 434.976 70.4413 436.912Z" fill="white" stroke="#002E47" stroke-miterlimit="10" stroke-linecap="round" stroke-linejoin="round"/>
<path d="M139.15 430.535L141.136 438.449C141.136 438.449 152.846 444.936 153.744 445.834C154.643 446.732 154.283 450.514 154.283 450.514H120.772C120.772 450.514 120.413 446.732 121.491 441.872C122.12 439.057 122.419 431.283 122.419 431.283L139.15 430.535Z" fill="#002E47" stroke="#002E47" stroke-miterlimit="10" stroke-linecap="round" stroke-linejoin="round"/>
<path d="M154.282 450.514H120.771C120.771 450.514 120.692 449.696 120.722 448.349H154.342C154.382 449.476 154.282 450.514 154.282 450.514Z" fill="white" stroke="#002E47" stroke-miterlimit="10" stroke-linecap="round" stroke-linejoin="round"/>
<path d="M153.026 445.474C153.026 445.474 150.321 442.77 144.92 441.872C139.52 440.974 134.648 442.95 133.57 444.037C132.492 445.115 131.773 448.179 131.773 448.179L154.354 448.359C154.354 448.349 155.552 446.193 153.026 445.474Z" fill="white" stroke="#002E47" stroke-miterlimit="10" stroke-linecap="round" stroke-linejoin="round"/>
<path d="M124.195 436.912C124.195 438.848 124.884 440.425 125.723 440.425C126.561 440.425 127.25 438.848 127.25 436.912C127.25 434.976 126.561 433.399 125.723 433.399C124.884 433.399 124.195 434.976 124.195 436.912Z" fill="white" stroke="#002E47" stroke-miterlimit="10" stroke-linecap="round" stroke-linejoin="round"/>
<path d="M55.1198 262.555L54.0117 280.019L55.4991 430.535L72.2197 431.283L88.9502 292.284L91.1863 291.536L122.421 431.283L139.152 430.535L131.705 336.884L120.465 256.507L55.1198 262.555Z" fill="white" stroke="#002E47" stroke-miterlimit="10" stroke-linecap="round" stroke-linejoin="round"/>
<path d="M90.418 267.295V280.039L93.9018 274.251L94.4808 265.559" stroke="#707E95" stroke-miterlimit="10" stroke-linecap="round" stroke-linejoin="round"/>
<path d="M66.5573 150.961C66.5573 150.961 28.8536 167.437 28.2946 169.114C27.7356 170.79 17.6833 212.396 19.3603 216.298C21.0374 220.21 26.0585 223.274 31.3692 221.328C36.6798 219.372 41.701 198.993 41.701 198.993C41.701 198.993 53.4304 234.731 53.4304 238.364C53.4304 241.996 54.5484 264.331 54.5484 264.331C54.5484 264.331 76.0506 267.405 93.9291 263.213C111.808 259.022 120.462 256.517 120.462 256.517L112.087 205.42C112.087 205.42 107.615 154.883 107.056 152.927C106.497 150.97 74.663 150.412 72.1474 150.691C69.6319 150.961 66.5573 150.961 66.5573 150.961Z" fill="#39B4EF" stroke="#002E47" stroke-miterlimit="10" stroke-linecap="round" stroke-linejoin="round"/>
<path d="M37.9589 210.949C36.5314 206.588 33.9958 202.476 31.3006 200.081C28.1861 197.317 24.0434 198.884 21.2083 200.6C19.711 208.354 18.7427 214.871 19.3616 216.298C21.0386 220.21 26.0598 223.274 31.3705 221.328C33.7662 220.44 36.1121 215.789 37.9589 210.949Z" fill="#002E47" stroke="#002E47" stroke-miterlimit="10"/>
<path d="M48.9978 221.927L112.606 208.564L112.087 205.41C112.087 205.41 111.997 204.372 111.837 202.606L47.2109 216.178C47.8099 218.085 48.4088 220.021 48.9978 221.927Z" fill="#002E47"/>
<path d="M120.463 256.507L114.184 218.244L51.7344 231.178C52.7526 234.781 53.4214 237.495 53.4214 238.364C53.4214 241.996 54.5394 264.331 54.5394 264.331C54.5394 264.331 76.0416 267.405 93.9201 263.213C111.809 259.022 120.463 256.507 120.463 256.507Z" fill="#002E47" stroke="#002E47" stroke-miterlimit="10"/>
<path d="M72.1454 150.681C69.6298 150.96 66.5552 150.96 66.5552 150.96C66.5552 150.96 59.4777 154.054 51.4219 157.687L84.0445 191.389C84.0445 191.389 91.0022 157.787 90.4232 154.883C90.1737 153.635 89.7145 152.178 89.2653 150.921C81.2594 150.611 73.3433 150.551 72.1454 150.681Z" fill="#002E47" stroke="#002E47" stroke-miterlimit="10"/>
<path d="M82.7603 141.19C82.7603 141.19 84.4373 155.711 85.2759 158.505C86.1144 161.3 80.5242 180.84 80.5242 180.84C80.5242 180.84 64.3227 164.363 62.3662 159.623C60.4096 154.873 55.9375 138.406 55.9375 138.406C55.9375 138.406 70.1924 145.661 82.7603 141.19Z" fill="white" stroke="#002E47" stroke-miterlimit="10" stroke-linecap="round" stroke-linejoin="round"/>
<path d="M55.9492 138.396C55.9492 138.396 56.9674 142.158 58.2452 146.599C58.924 146.979 59.7425 147.408 60.7408 147.907C65.8318 150.452 71.4819 151.859 77.7009 151.01C80.3662 150.651 82.1431 148.975 83.4508 146.819C83.0515 143.695 82.762 141.19 82.762 141.19C70.1941 145.661 55.9492 138.396 55.9492 138.396Z" fill="#002E47" stroke="#002E47" stroke-miterlimit="10" stroke-linecap="round" stroke-linejoin="round"/>
<path d="M75.584 104.544C75.584 104.544 79.8265 113.017 82.6515 116.7C85.4766 120.372 89.9986 128.566 88.0221 133.366C86.0456 138.156 84.7478 146.35 78.409 147.218C72.1899 148.066 66.5399 146.649 61.4488 144.114C56.3578 141.569 55.7988 140.721 55.7988 140.721C55.7988 140.721 51.5563 140.721 49.0107 138.745C46.4652 136.769 41.3742 130.552 42.7917 125.183C44.2092 119.814 47.5932 119.245 47.5932 119.245C47.5932 119.245 40.5257 116.42 45.0477 109.355C49.5698 102.289 59.1828 99.7441 63.7049 99.7441C68.2369 99.7441 75.584 104.544 75.584 104.544Z" fill="white" stroke="#002E47" stroke-miterlimit="10" stroke-linecap="round" stroke-linejoin="round"/>
<path d="M74.168 113.866C74.168 113.866 74.737 114.993 76.7135 116.41C78.69 117.828 81.515 116.979 80.6665 119.514C79.818 122.059 77.8415 122.907 76.1445 122.618" stroke="#002E47" stroke-miterlimit="10" stroke-linecap="round" stroke-linejoin="round"/>
<path d="M80.9537 125.742C80.9537 125.742 75.5831 128.845 71.9096 128.566C68.2361 128.286 66.5391 126.869 66.5391 126.869" stroke="#002E47" stroke-miterlimit="10" stroke-linecap="round" stroke-linejoin="round"/>
<path d="M69.0859 128.566C69.0859 128.566 71.0625 135.632 73.8875 133.366C76.7125 131.101 77.2815 127.428 77.2815 127.428C77.2815 127.428 73.039 129.125 69.0859 128.566Z" fill="#002E47" stroke="#002E47" stroke-miterlimit="10" stroke-linecap="round" stroke-linejoin="round"/>
<path d="M68.8073 116.321C69.4362 117.299 69.4561 118.406 68.8472 118.796C68.2483 119.175 67.25 118.696 66.6211 117.708C65.9922 116.73 65.9723 115.622 66.5812 115.233C67.1802 114.854 68.1784 115.333 68.8073 116.321Z" fill="#002E47"/>
<path d="M77.8307 112.049C78.4596 113.027 78.4796 114.135 77.8707 114.524C77.2717 114.903 76.2735 114.424 75.6446 113.436C75.0157 112.458 74.9957 111.351 75.6046 110.961C76.2036 110.582 77.2018 111.071 77.8307 112.049Z" fill="#002E47"/>
<path d="M62.875 115.472C62.875 115.472 63.6936 111.7 66.6484 111.211" stroke="#002E47" stroke-miterlimit="10" stroke-linecap="round" stroke-linejoin="round"/>
<path d="M72.5586 109.564C72.5586 109.564 74.1957 106.451 76.8211 107.758" stroke="#002E47" stroke-miterlimit="10" stroke-linecap="round" stroke-linejoin="round"/>
<path d="M48.4495 113.307C48.4495 113.307 66.8172 113.307 68.2347 110.203C69.6522 107.099 65.4097 104.834 65.4097 104.834C65.4097 104.834 81.2418 105.403 82.9388 100.592C84.6358 95.7822 77.2888 93.8062 75.0228 93.8062C72.7567 93.8062 71.6287 93.8062 71.6287 93.8062C71.6287 93.8062 70.7802 86.7405 62.5846 88.437C54.3891 90.1336 38.5569 100.872 36.5804 107.089C34.6039 113.307 30.0818 115.283 33.4759 122.628C36.8699 129.973 46.1935 135.911 46.1935 135.911C46.1935 135.911 44.776 130.542 47.611 130.262C50.436 129.983 55.2476 131.959 56.0861 131.959C56.9346 131.959 59.4801 129.694 58.0626 128.286C56.6451 126.869 55.2376 126.021 54.9581 125.183C54.6785 124.334 56.3756 121.51 55.2376 118.965C54.0996 116.41 48.4495 113.307 48.4495 113.307Z" fill="#002E47" stroke="#002E47" stroke-miterlimit="10" stroke-linecap="round" stroke-linejoin="round"/>
<path d="M64.1635 146.829L57.615 151.18C56.5569 151.889 55.1194 151.599 54.4207 150.531L41.5134 131.121C40.8046 130.063 41.0941 128.626 42.1522 127.927L48.7007 123.576C49.7589 122.867 51.1963 123.157 51.8951 124.215L64.8024 143.635C65.5111 144.693 65.2216 146.12 64.1635 146.829Z" fill="#39B4EF" stroke="#002E47" stroke-miterlimit="10"/>
<path d="M45.056 147.238C45.056 147.238 43.7483 143.885 42.4506 141.47C41.1429 139.055 41.1429 137.937 42.0813 137.937C43.0196 137.937 45.4354 139.055 46.1741 141.849C46.9228 144.643 46.5434 147.996 46.5434 147.996L45.056 147.238Z" fill="white" stroke="#002E47" stroke-miterlimit="10"/>
<path d="M56.2268 160.082C56.2268 160.082 45.6155 149.474 45.2462 148.545C44.9267 147.747 45.2961 135.532 45.4059 132.119C45.4258 131.6 45.7952 131.171 46.3043 131.081C46.9332 130.961 47.5321 131.42 47.582 132.059L48.4106 141.849L50.8463 129.514C50.9461 129.005 51.3953 128.636 51.9144 128.636C52.5433 128.636 53.0424 129.155 53.0025 129.783L52.3137 143.526L55.3783 131.799C55.538 131.191 56.1669 130.821 56.7759 130.991C57.3149 131.141 57.6643 131.66 57.6044 132.208L56.2168 144.833L58.8223 147.068V142.597L61.9368 137.348C62.1764 136.949 62.6755 136.799 63.0848 137.009C63.504 137.218 63.6837 137.727 63.494 138.156L61.4177 142.787C61.4177 142.787 65.5105 159.543 65.7002 160.102C65.8898 160.661 64.9515 163.635 64.3925 164.753C63.8334 165.87 38.8873 218.733 37.39 220.779C35.9026 222.825 25.8503 225.989 21.3782 221.148C16.906 216.308 18.4034 211.468 20.8191 205.889C23.2648 200.291 56.2268 160.082 56.2268 160.082Z" fill="white" stroke="#002E47" stroke-miterlimit="10"/>
<path d="M59.9492 273.333L74.0843 281.506" stroke="#707E95" stroke-miterlimit="10" stroke-linecap="round" stroke-linejoin="round"/>
<path d="M117.201 267.754L108.656 278.902" stroke="#707E95" stroke-miterlimit="10" stroke-linecap="round" stroke-linejoin="round"/>
<path d="M4.20703 450.514H450.422" stroke="#002E47" stroke-miterlimit="10" stroke-linecap="round" stroke-linejoin="round"/>
</g>
<defs>
<clipPath id="clip0_266_51410">
<rect width="451" height="452" fill="white"/>
</clipPath>
</defs>
</svg>
