<svg width="286" height="262" viewBox="0 0 286 262" fill="none" xmlns="http://www.w3.org/2000/svg">
<path d="M276.602 154.691C267.783 178.402 249.761 204.068 224.395 211.669C186.075 223.155 181.498 254.155 112.863 251.28C102.163 250.835 92.2717 249.32 83.1831 246.914C78.3004 245.621 73.6452 244.058 69.2297 242.254C29.1369 225.951 8.22182 190.074 6.48439 152.532C4.18977 103.161 38.5131 79.6241 60.8182 65.8471C83.1232 52.0701 110.006 -1.32397 177.502 0.967184C187.795 1.32198 198.058 2.73516 208.009 5.44125C230.721 11.6111 253.805 25.2558 267.219 45.2027C268.226 46.7 269.185 48.2335 270.107 49.797C288.063 80.3758 288.632 122.362 276.602 154.691Z" fill="#39B4EF"/>
<path opacity="0.7" d="M276.602 154.691C267.783 178.402 249.761 204.068 224.395 211.669C186.075 223.155 181.498 254.155 112.863 251.28C102.163 250.835 92.2717 249.32 83.1831 246.914C78.3004 245.621 73.6452 244.058 69.2297 242.254C29.1369 225.951 8.22182 190.074 6.48439 152.532C4.18977 103.161 38.5131 79.6241 60.8182 65.8471C83.1232 52.0701 110.006 -1.32397 177.502 0.967184C187.795 1.32198 198.058 2.73516 208.009 5.44125C230.721 11.6111 253.805 25.2558 267.219 45.2027C268.226 46.7 269.185 48.2335 270.107 49.797C288.063 80.3758 288.632 122.362 276.602 154.691Z" fill="white"/>
<path d="M144.543 176.135C137.582 160.26 138.606 134.257 141.835 132.098C145.388 129.717 151.02 141.906 156.645 138.34C162.271 134.774 166.123 127.041 161.384 114.851C156.645 102.662 150.427 110.69 145.981 113.661C141.536 116.631 137.983 113.955 138.87 103.257C139.523 95.3676 142.596 80.8509 144.16 73.773C144.867 74.0797 145.574 74.3864 146.275 74.7171C132.351 68.1744 116.954 66.0937 110.436 68.1744C103.923 70.2551 105.103 70.8504 108.363 78.5778C115.157 94.7001 89.4186 100.239 81.9896 87.8086C77.5442 80.3759 84.0745 76.2025 82.3011 70.8504C80.5218 65.4984 47.6483 71.7404 43.5024 74.1218C43.5024 74.1218 51.5006 98.1999 50.3144 106.823C49.1281 115.447 44.9822 119.307 38.7634 113.065C32.5446 106.823 24.5464 112.47 24.2528 122.873C23.9593 133.277 25.7327 141.606 32.8442 139.224C39.9557 136.843 45.5814 128.225 47.9479 139.224C50.3204 150.223 46.1685 164.493 43.802 174.602C43.802 174.602 62.4644 182.63 71.0498 182.034C79.6411 181.439 84.9732 181.144 82.3071 175.792C79.6411 170.44 75.1956 166.874 78.4548 160.927C81.714 154.98 94.7448 155.575 101.557 157.06C108.369 158.546 111.328 163.603 109.255 169.25C107.182 174.896 103.63 180.549 110.142 181.734C116.283 182.852 131.902 180.279 147.317 175.245C146.389 175.558 145.466 175.847 144.543 176.135Z" stroke="#002E47" stroke-miterlimit="10"/>
<path d="M150.127 174.313C149.216 174.632 148.299 174.939 147.383 175.233C148.299 174.933 149.216 174.626 150.127 174.313Z" stroke="#002E47" stroke-miterlimit="10"/>
<path d="M258.237 110.389C252.611 110.389 252.311 114.851 246.392 113.955C240.467 113.065 239.874 99.3906 246.099 75.3064C246.099 75.3064 239.287 80.3577 223.883 80.6584C208.48 80.9531 202.261 79.1731 206.114 73.5204C209.966 67.8737 212.926 63.4116 209.666 58.9556C206.407 54.4936 190.71 55.0889 185.678 58.9556C180.645 62.8223 184.198 67.2783 187.751 72.3357C191.303 77.3871 187.158 80.3638 181.232 80.6584C175.307 80.9531 160.203 81.2538 146.28 74.7111C145.579 74.3803 144.872 74.0736 144.165 73.7669C142.595 80.8509 139.528 95.3615 138.875 103.251C137.988 113.955 141.541 116.631 145.986 113.655C150.432 110.684 156.651 102.656 161.39 114.845C166.129 127.035 162.276 134.762 156.651 138.334C151.025 141.9 145.393 129.711 141.84 132.092C138.611 134.257 137.581 160.253 144.548 176.129C146.412 175.558 148.281 174.95 150.132 174.307C166.422 168.66 182.712 165.984 185.678 169.845C188.637 173.712 187.457 173.116 183.605 179.064C179.753 185.011 180.052 190.062 186.564 193.039C193.083 196.01 209.073 195.421 210.553 188.577C212.033 181.74 203.741 177.873 207.593 171.336C211.446 164.794 245.505 174.307 245.505 174.307C245.505 174.307 237.807 148.142 240.766 139.525C243.726 130.901 246.099 132.982 250.838 136.253C255.577 139.525 261.795 139.224 264.168 129.711C266.528 120.203 263.862 110.389 258.237 110.389Z" stroke="#002E47" stroke-miterlimit="10"/>
<path d="M240.618 47.3574C248.159 43.7853 251.386 34.7542 247.828 27.1858C244.269 19.6174 235.271 16.3777 227.731 19.9497C220.191 23.5218 216.963 32.5529 220.522 40.1213C224.081 47.6897 233.078 50.9294 240.618 47.3574Z" fill="#39B4EF" stroke="#002E47" stroke-miterlimit="10"/>
<path d="M235.458 46.0482C242.278 45.3456 247.24 39.2265 246.54 32.3808C245.84 25.5351 239.744 20.5551 232.923 21.2577C226.103 21.9603 221.142 28.0794 221.842 34.9251C222.542 41.7708 228.638 46.7508 235.458 46.0482Z" fill="white" stroke="#002E47" stroke-miterlimit="10"/>
<path d="M238.064 41.8396C242.573 39.6866 244.489 34.2726 242.344 29.7471C240.199 25.2215 234.805 23.2982 230.297 25.4512C225.788 27.6043 223.872 33.0183 226.017 37.5438C228.162 42.0693 233.556 43.9926 238.064 41.8396Z" fill="#39B4EF" stroke="#002E47" stroke-miterlimit="10"/>
<path d="M239.888 33.6447C239.888 30.4816 237.336 27.9138 234.178 27.9138C231.027 27.9138 228.469 30.4756 228.469 33.6447C228.469 36.8078 231.021 39.3756 234.178 39.3756C237.336 39.3756 239.888 36.8138 239.888 33.6447Z" fill="white" stroke="#002E47" stroke-miterlimit="10"/>
<path d="M236.827 33.6448C236.827 32.1775 235.647 30.9928 234.185 30.9928C232.723 30.9928 231.543 32.1775 231.543 33.6448C231.543 35.1121 232.723 36.2967 234.185 36.2967C235.641 36.2967 236.827 35.1121 236.827 33.6448Z" fill="#39B4EF" stroke="#002E47" stroke-miterlimit="10"/>
<path d="M235.276 29.4894L234.18 33.6447L238.092 34.5047L235.276 29.4894Z" fill="#002E47" stroke="#002E47" stroke-miterlimit="10"/>
<path d="M236.941 31.8046L254.118 22.4115" stroke="#002E47" stroke-width="2" stroke-miterlimit="10"/>
<path d="M248.605 25.5025L248.857 20.9983L256.933 16.3679V21.5095L248.605 25.5025Z" fill="#002E47" stroke="#002E47" stroke-miterlimit="10"/>
<path d="M260.397 23.9569L256.862 21.3411L248.57 25.7129L252.566 28.0341L260.397 23.9569Z" fill="#002E47" stroke="#002E47" stroke-miterlimit="10"/>
<path d="M155.034 34.5648H149.031V48.9131H155.034V34.5648Z" fill="#39B4EF" stroke="#002E47" stroke-miterlimit="10"/>
<path d="M163.882 30.217H157.879V48.9131H163.882V30.217Z" fill="#39B4EF" stroke="#002E47" stroke-miterlimit="10"/>
<path d="M172.734 34.5648H166.73V48.9131H172.734V34.5648Z" fill="#39B4EF" stroke="#002E47" stroke-miterlimit="10"/>
<path d="M181.589 29.2728H175.586V48.913H181.589V29.2728Z" fill="#39B4EF" stroke="#002E47" stroke-miterlimit="10"/>
<path d="M190.437 22.0867H184.434V48.913H190.437V22.0867Z" fill="#39B4EF" stroke="#002E47" stroke-miterlimit="10"/>
<path d="M182.47 10.7212L184.812 11.7254L168.882 27.0719L161.273 22.9046L149.219 30.2591V32.4781L161.321 25.0935L169.193 29.4052L186.118 13.0965L187.023 15.4839L190.372 7.68433L182.47 10.7212Z" fill="#002E47" stroke="#002E47" stroke-miterlimit="10" stroke-linecap="round" stroke-linejoin="round"/>
<path d="M112.57 48.3078C120.687 46.3954 125.723 38.2402 123.818 30.0926C121.912 21.945 113.788 16.8904 105.67 18.8028C97.553 20.7152 92.5172 28.8704 94.4225 37.018C96.3278 45.1656 104.453 50.2202 112.57 48.3078Z" fill="white" stroke="#002E47" stroke-miterlimit="10"/>
<path d="M112.113 46.6901C119.338 45.0341 123.859 37.8121 122.209 30.5594C120.559 23.3067 113.364 18.7697 106.138 20.4257C98.9123 22.0817 94.3922 29.3037 96.042 36.5564C97.6919 43.8091 104.887 48.3461 112.113 46.6901Z" fill="#39B4EF" stroke="#002E47" stroke-miterlimit="10"/>
<path d="M110.966 45.6529C117.574 44.6253 122.101 38.4152 121.077 31.7823C120.053 25.1494 113.866 20.6055 107.258 21.6331C100.65 22.6607 96.1229 28.8708 97.1467 35.5037C98.1705 42.1366 104.358 46.6806 110.966 45.6529Z" fill="white" stroke="#002E47" stroke-miterlimit="10"/>
<path d="M108.941 44.0421V42.1118C107.521 42.0576 106.46 41.6006 105.759 40.7407C105.058 39.8807 104.675 38.6059 104.621 36.904L107.539 36.4049C107.569 37.0965 107.641 37.6738 107.754 38.1368C107.874 38.5999 108.048 38.9486 108.282 39.1772C108.515 39.4057 108.821 39.5199 109.192 39.5199C109.618 39.5199 109.911 39.3816 110.073 39.105C110.229 38.8284 110.313 38.5097 110.313 38.1488C110.313 37.4453 110.151 36.8499 109.827 36.3749C109.504 35.8998 109.061 35.4187 108.491 34.9316L106.736 33.4162C106.335 33.0434 105.975 32.6645 105.664 32.2736C105.346 31.8888 105.094 31.4438 104.909 30.9446C104.723 30.4455 104.627 29.8562 104.627 29.1827C104.627 27.8838 104.999 26.8675 105.735 26.1398C106.472 25.4122 107.461 25.0033 108.701 24.9071V23.0609H109.696V24.9071C110.439 24.9492 111.05 25.1175 111.523 25.4182C111.996 25.7129 112.362 26.0917 112.607 26.5367C112.853 26.9877 113.033 27.4748 113.147 28.01C113.254 28.5452 113.326 29.0564 113.356 29.5555L110.397 29.9885C110.385 29.4773 110.343 29.0263 110.271 28.6294C110.199 28.2325 110.079 27.9259 109.899 27.7034C109.72 27.4809 109.444 27.3786 109.073 27.3907C108.689 27.4027 108.396 27.559 108.192 27.8477C107.994 28.1363 107.892 28.4611 107.892 28.8219C107.892 29.4593 108.042 29.9705 108.348 30.3553C108.653 30.7402 108.995 31.119 109.384 31.4738L111.098 32.9652C111.553 33.3801 111.972 33.8311 112.362 34.3122C112.745 34.7993 113.057 35.3345 113.29 35.9178C113.524 36.5072 113.644 37.1807 113.644 37.9384C113.644 38.672 113.494 39.3395 113.2 39.9409C112.901 40.5422 112.475 41.0293 111.918 41.4022C111.361 41.775 110.702 41.9975 109.941 42.0637V44.012H108.941V44.0421Z" fill="#002E47"/>
<path d="M60.1928 21.8281H32.1602V48.2816H60.1928V21.8281Z" fill="white" stroke="#002E47" stroke-miterlimit="10"/>
<path d="M60.1928 21.8281H32.1602V28.6294H60.1928V21.8281Z" fill="#39B4EF" stroke="#002E47" stroke-miterlimit="10" stroke-linecap="round" stroke-linejoin="round"/>
<path d="M37.7925 32.4059H34.4375V35.7735H37.7925V32.4059Z" fill="#39B4EF" stroke="#002E47" stroke-miterlimit="10" stroke-linecap="round" stroke-linejoin="round"/>
<path d="M42.8238 32.4059H39.4688V35.7735H42.8238V32.4059Z" fill="#39B4EF" stroke="#002E47" stroke-miterlimit="10" stroke-linecap="round" stroke-linejoin="round"/>
<path d="M47.8511 32.4059H44.4961V35.7735H47.8511V32.4059Z" fill="#39B4EF" stroke="#002E47" stroke-miterlimit="10" stroke-linecap="round" stroke-linejoin="round"/>
<path d="M52.8824 32.4059H49.5273V35.7735H52.8824V32.4059Z" fill="#39B4EF" stroke="#002E47" stroke-miterlimit="10" stroke-linecap="round" stroke-linejoin="round"/>
<path d="M57.9175 32.4059H54.5625V35.7735H57.9175V32.4059Z" fill="#39B4EF" stroke="#002E47" stroke-miterlimit="10" stroke-linecap="round" stroke-linejoin="round"/>
<path d="M37.7925 37.6978H34.4375V41.0653H37.7925V37.6978Z" fill="#39B4EF" stroke="#002E47" stroke-miterlimit="10" stroke-linecap="round" stroke-linejoin="round"/>
<path d="M42.8238 37.6978H39.4688V41.0653H42.8238V37.6978Z" fill="#39B4EF" stroke="#002E47" stroke-miterlimit="10" stroke-linecap="round" stroke-linejoin="round"/>
<path d="M47.8511 37.6978H44.4961V41.0653H47.8511V37.6978Z" fill="#39B4EF" stroke="#002E47" stroke-miterlimit="10" stroke-linecap="round" stroke-linejoin="round"/>
<path d="M52.8824 37.6978H49.5273V41.0653H52.8824V37.6978Z" fill="#39B4EF" stroke="#002E47" stroke-miterlimit="10" stroke-linecap="round" stroke-linejoin="round"/>
<path d="M57.9175 37.6978H54.5625V41.0653H57.9175V37.6978Z" fill="#39B4EF" stroke="#002E47" stroke-miterlimit="10" stroke-linecap="round" stroke-linejoin="round"/>
<path d="M37.7925 42.9897H34.4375V46.3573H37.7925V42.9897Z" fill="#39B4EF" stroke="#002E47" stroke-miterlimit="10" stroke-linecap="round" stroke-linejoin="round"/>
<path d="M42.8238 42.9897H39.4688V46.3573H42.8238V42.9897Z" fill="#39B4EF" stroke="#002E47" stroke-miterlimit="10" stroke-linecap="round" stroke-linejoin="round"/>
<path d="M47.8511 42.9897H44.4961V46.3573H47.8511V42.9897Z" fill="#39B4EF" stroke="#002E47" stroke-miterlimit="10" stroke-linecap="round" stroke-linejoin="round"/>
<path d="M52.8824 42.9897H49.5273V46.3573H52.8824V42.9897Z" fill="#39B4EF" stroke="#002E47" stroke-miterlimit="10" stroke-linecap="round" stroke-linejoin="round"/>
<path d="M57.9175 42.9897H54.5625V46.3573H57.9175V42.9897Z" fill="#39B4EF" stroke="#002E47" stroke-miterlimit="10" stroke-linecap="round" stroke-linejoin="round"/>
<path d="M38.3926 17.4984H35.9961V23.993H38.3926V17.4984Z" fill="#002E47"/>
<path d="M44.3847 17.4984H41.9883V23.993H44.3847V17.4984Z" fill="#002E47"/>
<path d="M50.3691 17.4984H47.9727V23.993H50.3691V17.4984Z" fill="#002E47"/>
<path d="M56.3613 17.4984H53.9648V23.993H56.3613V17.4984Z" fill="#002E47"/>
<path d="M7.78235 219.433C9.08243 220.004 12.2637 219.932 12.2697 219.932C12.2997 219.932 11.5867 217.839 11.5268 217.713C10.8318 216.245 8.62111 213.828 6.82376 214.068C5.52967 214.243 4.81073 215.542 5.1043 216.769C5.39787 218.019 6.67398 218.951 7.78235 219.433Z" fill="#39B4EF"/>
<path d="M8.87855 228.687C10.2266 228.886 13.0664 228.056 13.294 227.99C13.7434 229.583 14.3305 231.183 15.0135 232.771C15.4029 233.679 15.8283 234.581 16.2597 235.477C16.002 235.098 15.7684 234.755 15.7264 234.713C14.666 233.486 11.9041 231.736 10.2325 232.446C9.02833 232.957 8.68084 234.4 9.27995 235.507C9.89704 236.631 11.3709 237.19 12.5691 237.365C13.7853 237.545 16.2177 236.884 16.8588 236.703C17.0265 237.046 17.1943 237.389 17.368 237.732C18.1888 239.373 19.0156 241.009 19.7824 242.639C20.0521 243.21 20.2977 243.787 20.5433 244.365C20.3157 244.028 20.118 243.745 20.082 243.703C19.0216 242.476 16.2597 240.726 14.5881 241.436C13.3839 241.947 13.0364 243.39 13.6355 244.497C14.2526 245.621 15.7264 246.181 16.9247 246.355C18.081 246.523 20.3336 245.94 21.1005 245.73C21.3342 246.325 21.5738 246.92 21.7715 247.51C21.8973 247.913 22.0531 248.297 22.1549 248.706C22.2688 249.115 22.3826 249.518 22.4905 249.915C22.6762 250.691 22.8739 251.491 23.0356 252.254C23.1555 252.784 23.2513 253.289 23.3592 253.8C23.0956 253.222 22.5623 252.11 22.5084 252.02C21.6457 250.643 19.1773 248.496 17.4219 248.947C16.1578 249.272 15.5886 250.643 16.02 251.827C16.4574 253.036 17.8353 253.806 18.9916 254.161C20.2617 254.551 23.0836 254.197 23.4371 254.149C23.6048 254.996 23.7606 255.814 23.8984 256.596C24.1979 258.316 24.4256 259.861 24.5993 261.166H25.7856C25.5759 259.813 25.3063 258.208 24.9468 256.404C24.7791 255.544 24.5814 254.63 24.3717 253.692C24.5814 253.607 25.7856 253.12 26.852 252.519C27.7806 253.529 30.1591 254.708 30.4647 254.858C30.1412 255.658 29.8176 256.428 29.5001 257.155C28.8411 258.671 28.218 260.018 27.6668 261.166H28.9489C29.4222 260.108 29.9434 258.905 30.4886 257.576C30.8182 256.764 31.1597 255.892 31.5011 254.996C31.8426 255.069 34.6345 255.634 35.9346 255.339C37.1149 255.075 38.5408 254.401 39.068 253.235C39.5832 252.092 39.1219 250.679 37.8817 250.258C36.1623 249.681 33.5441 251.635 32.5796 252.946C32.5196 253.024 31.9984 253.926 31.6809 254.503C31.8187 254.137 31.9565 253.782 32.0883 253.403C32.3639 252.651 32.6155 251.894 32.8851 251.082C33.0049 250.685 33.1248 250.282 33.2446 249.879C33.3704 249.482 33.4603 249.043 33.5681 248.616C33.8018 247.63 33.9935 246.62 34.1612 245.603C34.8143 245.844 37.1568 246.662 38.367 246.572C39.5712 246.487 41.087 246.042 41.782 244.966C42.465 243.914 42.2193 242.446 41.063 241.845C39.4514 241.009 36.5637 242.549 35.4194 243.697C35.3475 243.769 34.6166 244.683 34.2271 245.194C34.323 244.581 34.4248 243.968 34.4967 243.342C34.7184 241.538 34.8921 239.704 35.0659 237.876C35.1198 237.317 35.1797 236.757 35.2396 236.198C35.4733 236.288 38.2292 237.317 39.5892 237.221C40.7934 237.136 42.3092 236.691 43.0042 235.615C43.6872 234.563 43.4415 233.095 42.2852 232.494C40.6736 231.658 37.7859 233.197 36.6416 234.34C36.5577 234.424 35.5032 235.747 35.2516 236.096C35.3834 234.869 35.5212 233.642 35.7069 232.446C35.9646 230.792 36.3061 229.18 36.7494 227.641C36.8572 227.683 39.733 228.772 41.1229 228.675C42.3272 228.591 43.8429 228.146 44.5379 227.07C45.2209 226.017 44.9753 224.55 43.819 223.949C42.2073 223.113 39.3196 224.652 38.1753 225.801C38.0854 225.891 36.9591 227.31 36.7674 227.581C36.7913 227.491 36.8093 227.394 36.8393 227.304C37.3365 225.669 38.0255 224.147 38.7325 222.758C39.1459 221.946 39.5832 221.2 40.0266 220.479C40.5418 220.737 42.9083 221.892 44.1665 221.94C45.3767 221.988 46.9284 221.712 47.7372 220.719C48.534 219.745 48.4501 218.26 47.3597 217.538C45.85 216.534 42.8124 217.743 41.5483 218.753C41.4824 218.807 40.8414 219.445 40.386 219.914C40.5897 219.589 40.7994 219.252 40.9971 218.951C41.758 217.803 42.5189 216.805 43.2019 215.921C43.5973 215.421 43.9628 214.976 44.3042 214.568C44.9393 214.556 47.5035 214.477 48.6239 213.948C49.7203 213.431 50.9664 212.469 51.236 211.212C51.4936 209.979 50.7387 208.704 49.4447 208.56C47.6413 208.368 45.5025 210.845 44.8435 212.331C44.7895 212.457 44.1245 214.568 44.1605 214.568C44.1605 214.568 44.1904 214.568 44.1964 214.568C43.8549 214.958 43.4954 215.379 43.106 215.842C42.3991 216.714 41.6142 217.701 40.8294 218.837C40.0385 219.968 39.2178 221.219 38.4629 222.614C37.708 224.015 36.989 225.524 36.4439 227.178C36.4379 227.196 36.4319 227.214 36.4259 227.238C36.4379 226.703 36.4139 225.212 36.3959 225.097C36.1862 223.486 34.8442 220.497 33.0588 220.166C31.7767 219.926 30.6864 220.936 30.5845 222.193C30.4827 223.474 31.4053 224.754 32.304 225.56C33.3225 226.474 36.1443 227.352 36.366 227.424C35.8627 229 35.4733 230.666 35.1737 232.368C35 233.342 34.8562 234.328 34.7244 235.314C34.7184 234.851 34.7064 234.442 34.7004 234.382C34.4907 232.771 33.1487 229.782 31.3634 229.451C30.0812 229.211 28.9909 230.221 28.889 231.478C28.7872 232.758 29.7098 234.039 30.6085 234.845C31.5251 235.663 33.9156 236.469 34.5506 236.667C34.5027 237.046 34.4548 237.425 34.4069 237.81C34.1912 239.638 33.9815 241.46 33.7239 243.24C33.634 243.865 33.5202 244.485 33.4063 245.098C33.4003 244.689 33.3884 244.347 33.3824 244.292C33.1727 242.681 31.8307 239.692 30.0453 239.361C28.7632 239.121 27.6728 240.131 27.5709 241.388C27.4691 242.669 28.3917 243.95 29.2904 244.755C30.1651 245.537 32.3639 246.295 33.1188 246.541C32.987 247.167 32.8552 247.798 32.6994 248.4C32.5855 248.809 32.5017 249.211 32.3579 249.614C32.2261 250.017 32.1003 250.414 31.9745 250.811C31.7048 251.563 31.4233 252.339 31.1417 253.066C30.95 253.571 30.7523 254.052 30.5605 254.533C30.6564 253.908 30.8241 252.681 30.8301 252.579C30.8541 251.503 30.4707 249.747 29.7158 248.514C29.7218 248.358 29.7098 248.195 29.6858 248.039C29.4881 246.8 28.3258 245.874 27.0617 246.211C25.3123 246.68 24.1979 249.765 24.1141 251.388C24.1081 251.485 24.174 252.531 24.2219 253.186C24.132 252.802 24.0541 252.429 23.9583 252.038C23.7726 251.262 23.5689 250.492 23.3472 249.662C23.2274 249.266 23.1075 248.863 22.9817 248.46C22.8679 248.057 22.7001 247.642 22.5564 247.233C22.2089 246.283 21.8135 245.333 21.3941 244.389C22.0711 244.226 24.4735 243.613 25.4321 242.867C26.3907 242.128 27.4092 240.919 27.3972 239.638C27.3852 238.381 26.3787 237.293 25.0786 237.431C23.2753 237.629 21.7116 240.51 21.3881 242.097C21.3701 242.2 21.2623 243.366 21.2143 244.01C20.9567 243.445 20.7051 242.879 20.4235 242.314C19.6207 240.684 18.752 239.061 17.8952 237.443C17.6316 236.944 17.374 236.451 17.1164 235.952C17.356 235.898 20.2258 235.23 21.3042 234.4C22.2628 233.661 23.2813 232.452 23.2693 231.171C23.2573 229.914 22.2508 228.826 20.9507 228.97C19.1474 229.168 17.5837 232.049 17.2602 233.636C17.2362 233.757 17.0864 235.434 17.0685 235.867C16.4993 234.773 15.9481 233.673 15.4389 232.566C14.7439 231.045 14.1388 229.511 13.6715 227.978C13.7853 227.954 16.7809 227.268 17.8833 226.42C18.8418 225.681 19.8603 224.472 19.8484 223.191C19.8424 221.934 18.8299 220.846 17.5298 220.984C15.7264 221.182 14.1627 224.063 13.8392 225.65C13.8153 225.777 13.6535 227.587 13.6475 227.912C13.6176 227.821 13.5816 227.731 13.5516 227.641C13.0664 225.999 12.8028 224.352 12.635 222.8C12.5332 221.898 12.4852 221.026 12.4613 220.178C13.0304 220.106 15.6366 219.757 16.715 219.102C17.7514 218.47 18.8898 217.382 19.0216 216.107C19.1474 214.856 18.2667 213.666 16.9606 213.66C15.1453 213.654 13.2761 216.348 12.7788 217.893C12.7488 217.977 12.5691 218.861 12.4493 219.511C12.4433 219.126 12.4313 218.735 12.4313 218.368C12.4313 216.991 12.5212 215.734 12.605 214.616C12.659 213.984 12.7189 213.413 12.7848 212.878C13.312 212.517 15.4029 211.032 16.05 209.967C16.679 208.933 17.1943 207.436 16.721 206.239C16.2597 205.066 14.9296 204.417 13.7673 205.018C12.1557 205.854 11.7363 209.107 11.9999 210.707C12.0239 210.845 12.629 212.968 12.659 212.95C12.659 212.95 12.6829 212.932 12.6889 212.926C12.617 213.437 12.5511 213.99 12.4852 214.592C12.3774 215.704 12.2576 216.967 12.2276 218.35C12.1917 219.727 12.1917 221.231 12.3354 222.812C12.4732 224.394 12.7009 226.053 13.1562 227.737C13.1622 227.755 13.1682 227.773 13.1742 227.791C12.8866 227.34 12.0479 226.114 11.976 226.023C10.9155 224.797 8.15362 223.047 6.48209 223.756C5.27786 224.267 4.93038 225.711 5.52949 226.817C6.20649 227.954 7.68032 228.507 8.87855 228.687Z" fill="#39B4EF"/>
<path d="M39.9598 220.136C39.9898 220.154 40.541 218.013 40.5589 217.875C40.7806 216.263 40.2714 213.028 38.6358 212.234C37.4615 211.663 36.1435 212.349 35.7181 213.533C35.2807 214.742 35.8379 216.221 36.491 217.238C37.2638 218.434 39.9538 220.136 39.9598 220.136Z" fill="#39B4EF"/>
<path d="M228.923 219.433C230.223 220.004 233.404 219.932 233.41 219.932C233.44 219.932 232.727 217.839 232.667 217.713C231.972 216.245 229.762 213.828 227.964 214.068C226.67 214.243 225.951 215.542 226.245 216.769C226.538 218.019 227.815 218.951 228.923 219.433Z" fill="#39B4EF"/>
<path d="M230.021 228.687C231.369 228.886 234.209 228.056 234.436 227.99C234.886 229.583 235.473 231.183 236.156 232.771C236.545 233.679 236.971 234.581 237.402 235.477C237.144 235.098 236.911 234.755 236.869 234.713C235.808 233.486 233.047 231.736 231.375 232.446C230.171 232.957 229.823 234.4 230.422 235.507C231.039 236.631 232.513 237.19 233.712 237.365C234.928 237.545 237.36 236.884 238.001 236.703C238.169 237.046 238.337 237.389 238.51 237.732C239.331 239.373 240.158 241.009 240.925 242.639C241.194 243.21 241.44 243.787 241.686 244.365C241.458 244.028 241.26 243.745 241.224 243.703C240.164 242.476 237.402 240.726 235.731 241.436C234.526 241.947 234.179 243.39 234.778 244.497C235.395 245.621 236.869 246.181 238.067 246.355C239.223 246.523 241.476 245.94 242.243 245.73C242.477 246.325 242.71 246.92 242.914 247.51C243.04 247.913 243.196 248.297 243.297 248.706C243.411 249.115 243.525 249.518 243.633 249.915C243.819 250.691 244.016 251.491 244.178 252.254C244.298 252.784 244.394 253.289 244.502 253.8C244.238 253.222 243.705 252.11 243.651 252.02C242.788 250.643 240.32 248.496 238.564 248.947C237.3 249.272 236.731 250.643 237.162 251.827C237.6 253.036 238.978 253.806 240.134 254.161C241.404 254.551 244.226 254.197 244.58 254.149C244.747 254.996 244.903 255.814 245.041 256.596C245.34 258.316 245.574 259.861 245.742 261.166H246.928C246.718 259.813 246.449 258.208 246.089 256.404C245.922 255.544 245.724 254.63 245.514 253.692C245.724 253.607 246.928 253.12 247.994 252.519C248.923 253.529 251.302 254.708 251.607 254.858C251.284 255.658 250.96 256.428 250.643 257.155C249.984 258.671 249.36 260.018 248.809 261.166H250.091C250.565 260.108 251.086 258.905 251.631 257.576C251.961 256.764 252.302 255.892 252.644 254.996C252.985 255.069 255.777 255.634 257.077 255.339C258.257 255.075 259.683 254.401 260.21 253.235C260.726 252.092 260.264 250.679 259.024 250.258C257.305 249.681 254.687 251.635 253.722 252.946C253.662 253.024 253.141 253.926 252.823 254.503C252.961 254.137 253.099 253.782 253.231 253.403C253.506 252.651 253.758 251.894 254.028 251.082C254.147 250.685 254.267 250.282 254.387 249.879C254.513 249.482 254.603 249.043 254.711 248.616C254.944 247.63 255.136 246.62 255.304 245.603C255.957 245.844 258.299 246.662 259.509 246.572C260.714 246.487 262.229 246.042 262.924 244.966C263.607 243.914 263.362 242.446 262.205 241.845C260.594 241.009 257.706 242.549 256.562 243.697C256.49 243.769 255.759 244.683 255.37 245.194C255.465 244.581 255.567 243.968 255.639 243.342C255.861 241.538 256.035 239.704 256.208 237.876C256.262 237.317 256.322 236.757 256.382 236.198C256.616 236.288 259.372 237.317 260.732 237.221C261.936 237.136 263.452 236.691 264.147 235.615C264.83 234.563 264.584 233.095 263.428 232.494C261.816 231.658 258.928 233.197 257.784 234.34C257.7 234.424 256.646 235.747 256.394 236.096C256.526 234.869 256.664 233.642 256.849 232.446C257.107 230.792 257.449 229.18 257.892 227.641C258 227.683 260.875 228.772 262.265 228.675C263.47 228.591 264.985 228.146 265.68 227.07C266.363 226.017 266.118 224.55 264.961 223.949C263.35 223.113 260.462 224.652 259.318 225.801C259.228 225.891 258.102 227.31 257.91 227.581C257.934 227.491 257.952 227.394 257.982 227.304C258.479 225.669 259.168 224.147 259.875 222.758C260.288 221.946 260.726 221.2 261.169 220.479C261.684 220.737 264.051 221.892 265.309 221.94C266.519 221.988 268.071 221.712 268.88 220.719C269.676 219.745 269.593 218.26 268.502 217.538C266.992 216.534 263.955 217.743 262.691 218.753C262.625 218.807 261.984 219.445 261.528 219.914C261.732 219.589 261.942 219.252 262.14 218.951C262.9 217.803 263.661 216.805 264.344 215.921C264.74 215.421 265.105 214.976 265.447 214.568C266.082 214.556 268.646 214.477 269.766 213.948C270.863 213.431 272.109 212.469 272.378 211.212C272.636 209.979 271.881 208.704 270.587 208.56C268.784 208.368 266.645 210.845 265.986 212.331C265.932 212.457 265.267 214.568 265.303 214.568C265.303 214.568 265.333 214.568 265.339 214.568C264.997 214.958 264.638 215.379 264.248 215.842C263.541 216.714 262.757 217.701 261.972 218.837C261.181 219.968 260.36 221.219 259.605 222.614C258.85 224.015 258.131 225.524 257.586 227.178C257.58 227.196 257.574 227.214 257.568 227.238C257.58 226.703 257.556 225.212 257.538 225.097C257.329 223.486 255.987 220.497 254.201 220.166C252.919 219.926 251.829 220.936 251.727 222.193C251.625 223.474 252.548 224.754 253.446 225.56C254.465 226.474 257.287 227.352 257.508 227.424C257.005 229 256.616 230.666 256.316 232.368C256.142 233.342 255.999 234.328 255.867 235.314C255.861 234.851 255.849 234.442 255.843 234.382C255.633 232.771 254.291 229.782 252.506 229.451C251.224 229.211 250.133 230.221 250.031 231.478C249.93 232.758 250.852 234.039 251.751 234.845C252.668 235.663 255.058 236.469 255.693 236.667C255.645 237.046 255.597 237.425 255.549 237.81C255.334 239.638 255.124 241.46 254.866 243.24C254.776 243.865 254.663 244.485 254.549 245.098C254.543 244.689 254.531 244.347 254.525 244.292C254.315 242.681 252.973 239.692 251.188 239.361C249.906 239.121 248.815 240.131 248.713 241.388C248.612 242.669 249.534 243.95 250.433 244.755C251.308 245.537 253.506 246.295 254.261 246.541C254.129 247.167 253.998 247.798 253.842 248.4C253.728 248.809 253.644 249.211 253.5 249.614C253.369 250.017 253.243 250.414 253.117 250.811C252.847 251.563 252.566 252.339 252.284 253.066C252.092 253.571 251.895 254.052 251.703 254.533C251.799 253.908 251.967 252.681 251.973 252.579C251.997 251.503 251.613 249.747 250.858 248.514C250.864 248.358 250.852 248.195 250.828 248.039C250.631 246.8 249.468 245.874 248.204 246.211C246.455 246.68 245.34 249.765 245.257 251.388C245.251 251.485 245.316 252.531 245.364 253.186C245.274 252.802 245.197 252.429 245.101 252.038C244.915 251.262 244.711 250.492 244.49 249.662C244.37 249.266 244.25 248.863 244.124 248.46C244.01 248.057 243.843 247.642 243.699 247.233C243.351 246.283 242.956 245.333 242.537 244.389C243.214 244.226 245.616 243.613 246.575 242.867C247.533 242.128 248.552 240.919 248.54 239.638C248.528 238.381 247.521 237.293 246.221 237.431C244.418 237.629 242.854 240.51 242.531 242.097C242.513 242.2 242.405 243.366 242.357 244.01C242.099 243.445 241.848 242.879 241.566 242.314C240.763 240.684 239.894 239.061 239.038 237.443C238.774 236.944 238.516 236.451 238.259 235.952C238.498 235.898 241.368 235.23 242.447 234.4C243.405 233.661 244.424 232.452 244.412 231.171C244.406 229.914 243.393 228.826 242.093 228.97C240.29 229.168 238.726 232.049 238.403 233.636C238.379 233.757 238.229 235.434 238.211 235.867C237.642 234.773 237.091 233.673 236.581 232.566C235.886 231.045 235.281 229.511 234.814 227.978C234.928 227.954 237.923 227.268 239.026 226.42C239.984 225.681 241.003 224.472 240.991 223.191C240.985 221.934 239.972 220.846 238.672 220.984C236.869 221.182 235.305 224.063 234.982 225.65C234.958 225.777 234.796 227.587 234.79 227.912C234.76 227.821 234.724 227.731 234.694 227.641C234.209 225.999 233.945 224.352 233.777 222.8C233.676 221.898 233.628 221.026 233.604 220.178C234.173 220.106 236.779 219.757 237.857 219.102C238.894 218.47 240.032 217.382 240.164 216.107C240.29 214.856 239.409 213.666 238.103 213.66C236.288 213.654 234.418 216.348 233.921 217.893C233.891 217.977 233.712 218.861 233.592 219.511C233.586 219.126 233.574 218.735 233.574 218.368C233.574 216.991 233.664 215.734 233.748 214.616C233.801 213.984 233.861 213.413 233.927 212.878C234.454 212.517 236.545 211.032 237.192 209.967C237.821 208.933 238.337 207.436 237.869 206.239C237.408 205.066 236.078 204.417 234.916 205.018C233.304 205.854 232.885 209.107 233.148 210.707C233.172 210.845 233.777 212.968 233.807 212.95C233.807 212.95 233.831 212.932 233.837 212.926C233.765 213.437 233.7 213.99 233.634 214.592C233.526 215.704 233.406 216.967 233.376 218.35C233.34 219.727 233.34 221.231 233.484 222.812C233.622 224.394 233.849 226.053 234.305 227.737C234.311 227.755 234.317 227.773 234.323 227.791C234.035 227.34 233.196 226.114 233.124 226.023C232.064 224.797 229.302 223.047 227.631 223.756C226.426 224.267 226.079 225.711 226.678 226.817C227.349 227.954 228.823 228.507 230.021 228.687Z" fill="#39B4EF"/>
<path d="M261.1 220.136C261.13 220.154 261.682 218.013 261.7 217.875C261.921 216.263 261.412 213.028 259.776 212.234C258.602 211.663 257.284 212.349 256.859 213.533C256.421 214.742 256.979 216.221 257.632 217.238C258.404 218.434 261.094 220.136 261.1 220.136Z" fill="#39B4EF"/>
<path d="M203.756 94.2611C203.756 94.2611 203.941 87.4718 207.841 85.5475C211.742 83.6172 211.963 89.9795 211.963 89.9795C211.963 89.9795 220.89 84.2907 222.825 88.6024C224.76 92.9141 222.058 95.0008 222.058 95.0008C222.058 95.0008 229.985 94.7241 230.53 99.084C231.075 103.444 226.989 105.579 226.989 105.579C226.989 105.579 231.89 109.59 230.171 111.442C228.451 113.294 224.689 113.426 224.689 113.426C224.689 113.426 226.821 117.732 223.107 119.253C219.392 120.775 215.127 117.942 215.127 117.942C215.127 117.942 215.792 119.909 212.994 119.41C210.202 118.911 207.38 117.618 205.649 113.498C203.905 109.373 201.671 97.7309 203.756 94.2611Z" fill="#002E47" stroke="#002E47" stroke-miterlimit="10" stroke-linecap="round" stroke-linejoin="round"/>
<path d="M162.577 225.386C162.577 225.386 160.355 233.901 160.385 234.845C160.414 235.795 159.654 237.93 160.301 238.538C160.954 239.145 163.859 241.153 164.177 241.25C164.494 241.346 165.429 240.997 165.735 240.775C166.04 240.552 166.232 240.017 166.22 239.704C166.208 239.385 165.321 238.05 165.207 237.738C165.094 237.425 166.843 233.36 167.508 231.333C168.173 229.307 168.574 225.813 168.574 225.813L162.577 225.386Z" fill="#BDBDBD" stroke="#002E47" stroke-miterlimit="10"/>
<path d="M164.986 231.315C164.986 231.315 163.721 234.31 163.638 234.839C163.554 235.368 161.816 236.8 162.068 237.954C162.319 239.103 164.83 238.808 166.076 235.386" fill="#BDBDBD"/>
<path d="M164.986 231.315C164.986 231.315 163.721 234.31 163.638 234.839C163.554 235.368 161.816 236.8 162.068 237.954C162.319 239.103 164.83 238.808 166.076 235.386" stroke="#002E47" stroke-miterlimit="10"/>
<path d="M170.648 179.13C170.648 179.13 169.588 196.497 169.186 198.031C168.785 199.564 163.968 213.569 162.907 217.863C161.847 222.157 161.523 225.969 161.523 225.969L167.994 227.334L171.619 211.326C171.619 211.326 176.364 196.762 175.417 189.912C174.47 183.057 170.648 179.13 170.648 179.13Z" fill="#39B4EF" stroke="#002E47" stroke-miterlimit="10"/>
<path d="M204.322 261.172C204.394 257.396 204.555 252.303 204.891 249.386C205.472 244.347 207.635 241.232 209.84 234.923C212.044 228.615 212.212 220.395 212.212 220.395L172.73 221.778C172.73 221.778 168.171 238.814 165.427 251.376C164.505 255.586 164.169 258.779 164.121 261.172" fill="#39B4EF"/>
<path d="M204.322 261.172C204.394 257.396 204.555 252.303 204.891 249.386C205.472 244.347 207.635 241.232 209.84 234.923C212.044 228.615 212.212 220.395 212.212 220.395L172.73 221.778C172.73 221.778 168.171 238.814 165.427 251.376C164.505 255.586 164.169 258.779 164.121 261.172" stroke="#002E47" stroke-miterlimit="10"/>
<path d="M177.953 228.194L210.803 229.126L211.498 226.571L177.953 228.194Z" fill="#002E47" stroke="#002E47" stroke-miterlimit="10" stroke-linecap="round" stroke-linejoin="round"/>
<path d="M176.294 260.571C176.294 260.571 175.647 239.951 175.629 228.766L176.294 260.571Z" fill="white"/>
<path d="M176.294 260.571C176.294 260.571 175.647 239.951 175.629 228.766" stroke="#002E47" stroke-miterlimit="10"/>
<path d="M201.477 135.508L206.27 138.743C206.27 138.743 211.931 143.837 213.345 148.028C214.759 152.213 213.729 177.242 212.321 185.336C210.913 193.43 214.43 203.473 215.682 209.149C216.934 214.826 217.509 225.392 217.509 225.392C217.509 225.392 218.396 226.631 203.01 227.172C187.625 227.713 176.895 228.507 175.637 228.766C174.379 229.024 173.324 229.06 173.324 229.06L172.713 223.576L171.179 228.074L167.992 227.34C167.992 227.34 169.969 217.532 170.473 213.702C170.97 209.871 174.109 196.846 174.151 191.975C174.193 187.104 170.119 179.196 169.322 174.355C168.525 169.514 170.131 161.198 174.133 154.914C178.135 148.629 180.795 146.212 188.59 139.796C196.372 133.373 201.477 135.508 201.477 135.508Z" fill="#39B4EF" stroke="#002E47" stroke-miterlimit="10"/>
<path d="M188.992 208.789L205.066 210.611L204.162 206.389L194.133 205.523" stroke="#002E47" stroke-miterlimit="10"/>
<path d="M183.373 205.289L182.559 208.055L186.591 208.512" stroke="#002E47" stroke-miterlimit="10"/>
<path d="M189.405 177.645C188.566 176.839 187.823 176.039 187.332 175.354" stroke="#002E47" stroke-miterlimit="10"/>
<path d="M194.994 182.383C194.994 182.383 193.299 181.096 191.441 179.497" stroke="#002E47" stroke-miterlimit="10"/>
<path d="M201.48 135.508C201.48 135.508 196.381 133.373 188.587 139.79C180.792 146.206 178.132 148.623 174.13 154.908C171.656 158.798 170.092 163.465 169.457 167.602C169.553 168.071 169.655 168.546 169.769 169.033C171.997 178.487 174.478 183.057 174.478 183.057C174.478 183.057 178.791 161.516 186.298 152.785C193.799 144.053 206.279 138.743 206.279 138.743L201.48 135.508Z" fill="#39B4EF" stroke="#002E47" stroke-miterlimit="10"/>
<path d="M182.742 93.4914C182.742 93.4914 177.116 98.7653 176.697 102.921C176.277 107.076 175.84 110.66 175.139 112.001C174.438 113.342 170.903 114.22 172.101 116.247C173.294 118.273 174.42 118.237 174.42 118.237C174.42 118.237 176.229 127.203 177.583 128.472C178.937 129.741 183.784 129.007 183.784 129.007L185.276 139.88C185.276 139.88 175.223 148.834 173.264 161.312C171.304 173.784 173.545 180.91 173.545 180.91C173.545 180.91 174.857 161.258 179.387 153.891C183.916 146.531 194.436 139.561 195.988 138.304C197.54 137.047 201.47 135.514 201.47 135.514C201.47 135.514 199.601 131.28 199.349 129.404C199.097 127.534 199.187 124.708 199.535 123.944C199.882 123.18 206.173 120.889 208.545 113.661C210.918 106.433 207.437 97.8993 203.753 94.2672C200.068 90.629 187.451 88.8129 182.742 93.4914Z" fill="#BDBDBD" stroke="#002E47" stroke-miterlimit="10"/>
<path d="M208.555 113.655C210.928 106.426 207.447 97.8933 203.762 94.2611C200.078 90.629 187.46 88.8129 182.751 93.4914C182.751 93.4914 182.452 93.774 181.984 94.2551C182.955 93.9965 184.884 93.6538 187.454 94.0747C191.223 94.6941 191.139 97.7069 190.114 100.563C189.09 103.42 189.857 103.955 191.78 105.392C193.703 106.829 191.738 109.529 193.086 110.612C194.434 111.694 195.542 105.825 198.502 110.047C201.462 114.268 199.467 116.223 197.633 117.413C195.8 118.604 194.314 119.037 194.314 119.037C194.314 119.037 197.094 122.302 199.826 123.649C201.126 122.657 206.422 120.149 208.555 113.655Z" fill="#002E47" stroke="#002E47" stroke-miterlimit="10" stroke-linecap="round" stroke-linejoin="round"/>
<path d="M177.473 119.818C177.473 119.818 181.397 119.494 183.206 117.738" stroke="#002E47" stroke-miterlimit="10"/>
<path d="M179.967 110.516C179.997 111.448 179.649 112.217 179.182 112.236C178.714 112.254 178.313 111.508 178.283 110.576C178.253 109.644 178.601 108.874 179.068 108.856C179.529 108.838 179.931 109.584 179.967 110.516Z" fill="#002E47"/>
<path d="M178.277 106.709C178.277 106.709 179.541 105.001 181.351 107.016" stroke="#002E47" stroke-miterlimit="10"/>
<path d="M183.785 129.001L188.464 127.233L185.205 133.108L183.785 129.001Z" fill="#002E47" stroke="#002E47" stroke-miterlimit="10"/>
<path d="M170.311 215.313L164.176 241.25L169.682 242.537L172.713 223.57L170.311 215.313Z" fill="white" stroke="#002E47" stroke-miterlimit="10"/>
<path d="M175.733 153.218C174.624 155.677 173.726 158.395 173.264 161.306C171.305 173.778 173.546 180.904 173.546 180.904C173.546 180.904 174.84 161.516 179.297 154.042C177.895 153.873 176.709 153.572 175.733 153.218Z" fill="white" stroke="#002E47" stroke-miterlimit="10"/>
<path d="M194.691 161.312L194.272 183.321L155.898 189.672L156.743 200.045C156.743 200.045 178.042 200.466 187.951 199.624C197.86 198.782 206.506 198.145 207.77 197.086C209.034 196.028 212.629 175.57 214.102 161.18C215.576 146.789 212.629 141.918 206.721 142.766" fill="#39B4EF"/>
<path d="M194.691 161.312L194.272 183.321L155.898 189.672L156.743 200.045C156.743 200.045 178.042 200.466 187.951 199.624C197.86 198.782 206.506 198.145 207.77 197.086C209.034 196.028 212.629 175.57 214.102 161.18C215.576 146.789 212.629 141.918 206.721 142.766" stroke="#002E47" stroke-miterlimit="10"/>
<path d="M132.939 188.74L129.871 198.097L132.891 199.732C132.891 199.732 136.695 202.691 138.78 204.29C140.865 205.89 142.459 205.89 143.567 205.397C144.669 204.904 149.702 197.76 150.313 196.407C150.924 195.054 147.982 190.989 145.035 189.263C142.087 187.537 139.637 187.537 137.917 188.03C136.204 188.529 132.939 188.74 132.939 188.74Z" fill="white" stroke="#002E47" stroke-miterlimit="10"/>
<path d="M155.898 189.672L151.051 189.251C151.051 189.251 147.678 188.403 146.414 188.403C145.149 188.403 143.46 189.672 142.615 190.309C141.77 190.946 132.496 201.103 132.496 201.103C132.496 201.103 133.341 202.799 134.605 202.372C135.869 201.951 138.188 200.893 138.188 200.893C138.188 200.893 135.659 203.431 136.924 204.699C138.188 205.968 140.297 205.968 140.297 205.968L141.77 205.12C141.77 205.12 142.825 205.968 143.879 206.179C144.934 206.389 146.623 205.968 148.097 205.12C149.571 204.272 153.309 199.858 153.309 199.858L156.551 198.602L155.898 189.672Z" fill="#BDBDBD" stroke="#002E47" stroke-miterlimit="10"/>
<path d="M134.609 189.142C134.609 189.142 140.744 185.57 143.446 186.557C146.148 187.543 149.701 193.574 148.725 194.44C147.742 195.3 146.148 194.933 145.292 194.073C144.435 193.214 142.961 192.348 142.961 192.348C142.961 192.348 140.505 193.827 137.683 193.827" fill="white"/>
<path d="M134.609 189.142C134.609 189.142 140.744 185.57 143.446 186.557C146.148 187.543 149.701 193.574 148.725 194.44C147.742 195.3 146.148 194.933 145.292 194.073C144.435 193.214 142.961 192.348 142.961 192.348C142.961 192.348 140.505 193.827 137.683 193.827" stroke="#002E47" stroke-miterlimit="10"/>
<path d="M152.904 203.124L150.957 202.077C150.298 201.723 150.052 200.905 150.4 200.243C150.753 199.582 151.568 199.335 152.227 199.684L154.174 200.73C154.833 201.085 155.079 201.903 154.731 202.565C154.378 203.226 153.557 203.473 152.904 203.124Z" fill="white" stroke="#002E47" stroke-miterlimit="10"/>
<path d="M151.185 205.217L149.238 204.17C148.579 203.815 148.333 202.998 148.681 202.336C149.034 201.675 149.849 201.428 150.508 201.777L152.455 202.823C153.114 203.178 153.36 203.996 153.013 204.657C152.659 205.319 151.844 205.571 151.185 205.217Z" fill="white" stroke="#002E47" stroke-miterlimit="10"/>
<path d="M149.22 207.063L147.273 206.016C146.614 205.662 146.369 204.844 146.716 204.182C147.07 203.521 147.884 203.274 148.543 203.623L150.491 204.669C151.15 205.024 151.395 205.842 151.048 206.503C150.7 207.165 149.879 207.417 149.22 207.063Z" fill="white" stroke="#002E47" stroke-miterlimit="10"/>
<path d="M145.087 207.153L144.578 206.876C143.919 206.522 143.673 205.704 144.021 205.042C144.374 204.381 145.189 204.134 145.848 204.483L146.357 204.76C147.016 205.114 147.262 205.932 146.915 206.594C146.561 207.261 145.746 207.508 145.087 207.153Z" fill="white" stroke="#002E47" stroke-miterlimit="10"/>
<path d="M132.941 188.74L107.191 177.813L108.144 194.927L129.407 199.822L132.941 188.74Z" fill="#002E47" stroke="#002E47" stroke-miterlimit="10" stroke-linecap="round" stroke-linejoin="round"/>
<path d="M129.406 199.822L132.94 188.739L129.34 187.14L129.274 187.507L125.973 198.987L129.406 199.822Z" fill="white" stroke="#002E47" stroke-miterlimit="10"/>
<path d="M92.7461 120.258L99.3483 123.336C99.3483 123.336 102.116 131.208 101.194 131.437C100.271 131.665 93.3512 126.115 93.3512 126.115L92.7461 120.258Z" fill="white" stroke="#002E47" stroke-miterlimit="10" stroke-linecap="round" stroke-linejoin="round"/>
<path d="M96.5489 118.682L97.0103 116.03C97.0103 116.03 103.121 116.451 105.566 116.439C108.01 116.427 110.143 116.102 110.125 113.498C110.107 110.894 108.681 102.013 108.681 102.013C108.681 102.013 111.425 101.381 112.485 100.148C113.546 98.9156 112.012 97.3941 110.622 95.56C109.238 93.7319 108.004 91.7474 107.836 89.6006C107.669 87.4538 103.96 80.43 103.96 80.43C103.96 80.43 104.565 79.3536 102.564 77.0684C100.563 74.7833 90.3361 74.3864 83.7878 77.6457C77.2454 80.9051 75.7476 85.6678 75.7776 90.8755C75.8076 96.0832 78.7552 103.426 78.7552 103.426C78.7552 103.426 76.8201 111.406 76.6703 111.869C76.5205 112.332 74.7891 115.723 74.7891 115.723C74.7891 115.723 82.973 121.46 85.9686 124.028C88.9641 126.602 95.7042 131.004 95.7461 128.628C95.7881 126.247 96.0577 120.865 96.0577 120.865L96.5489 118.682Z" fill="white" stroke="#002E47" stroke-miterlimit="10" stroke-linecap="round" stroke-linejoin="round"/>
<path d="M105.576 93.8101C105.618 94.7001 105.408 95.4277 105.114 95.4398C104.821 95.4518 104.551 94.7422 104.509 93.8582C104.467 92.9682 104.677 92.2406 104.971 92.2285C105.264 92.2165 105.534 92.9201 105.576 93.8101Z" fill="#002E47"/>
<path d="M101.281 90.8695C101.281 90.8695 102.641 88.5603 106.164 89.9193" stroke="#002E47" stroke-width="2" stroke-miterlimit="10" stroke-linecap="round" stroke-linejoin="round"/>
<path d="M110.125 113.498C110.107 110.894 108.681 102.012 108.681 102.012C108.681 102.012 106.997 101.104 103.792 101.892C100.593 102.68 99.7062 107.894 99.1011 108.513C98.496 109.132 94.4999 105.476 92.9601 103.035C91.4204 100.593 90.324 96.3056 90.1563 93.8581C89.9885 91.4046 95.782 90.1478 96.6866 87.8386C97.5913 85.5354 93.2957 83.106 94.8174 81.5665C96.3332 80.027 99.3946 80.6164 100.922 80.917C102.45 81.2117 103.972 80.436 103.972 80.436C103.972 80.436 104.577 79.3595 102.576 77.0744C100.575 74.7893 90.348 74.3924 83.7997 77.6517C77.2573 80.911 75.7595 85.6737 75.7895 90.8815C75.8135 95.1029 77.7546 100.72 78.4915 102.704C79.0786 102.915 80.0372 103.221 80.4446 103.113C81.0557 102.957 81.4991 101.116 81.7926 99.2763C82.0862 97.4362 86.5017 95.2653 86.5017 95.2653C86.5017 95.2653 87.2985 100.78 87.3045 101.85C87.3105 102.921 86.7353 108.291 89.653 110.876C92.5707 113.462 97.0162 116.042 97.0162 116.042C97.0162 116.042 103.127 116.463 105.572 116.451C108.016 116.439 110.143 116.102 110.125 113.498Z" fill="#002E47" stroke="#002E47" stroke-miterlimit="10" stroke-linecap="round" stroke-linejoin="round"/>
<path d="M87.4417 99.078C87.4417 99.078 86.1775 91.7294 84.0387 92.0482C81.9059 92.3669 80.7016 95.1331 81.792 98.651C82.8824 102.169 85.0153 101.85 86.2375 101.538" fill="white"/>
<path d="M87.4417 99.078C87.4417 99.078 86.1775 91.7294 84.0387 92.0482C81.9059 92.3669 80.7016 95.1331 81.792 98.651C82.8824 102.169 85.0153 101.85 86.2375 101.538" stroke="#002E47" stroke-miterlimit="10" stroke-linecap="round" stroke-linejoin="round"/>
<path d="M102.438 104.652C102.438 104.652 103.666 106.18 106.877 106.156" stroke="white" stroke-miterlimit="10" stroke-linecap="round" stroke-linejoin="round"/>
<path d="M68.1344 261.173H100.481C100.594 259.465 101.847 252.898 101.847 248.592C101.847 243.613 105.256 211.537 105.256 211.537L63.1797 210.984L64.5577 230.618L68.1344 261.173Z" fill="#002E47" stroke="#002E47" stroke-miterlimit="10" stroke-linecap="round" stroke-linejoin="round"/>
<path d="M72.3692 116.848C72.3692 116.848 64.9881 126.337 62.9151 131.659C60.8422 136.981 59.2246 137.907 59.6859 144.618C60.1472 151.329 63.3764 178.18 63.3764 178.18L56.918 213.13C56.918 213.13 67.2946 217.298 80.6729 217.298C94.0511 217.298 99.8146 216.143 100.737 215.68C101.66 215.217 109.73 213.136 109.73 213.136C109.73 213.136 109.73 173.555 107.196 159.899C104.661 146.242 101.432 135.827 100.276 133.283C99.1256 130.739 95.4351 122.404 95.4351 122.404L72.3692 116.848Z" fill="#002E47" stroke="#002E47" stroke-miterlimit="10" stroke-linecap="round" stroke-linejoin="round"/>
<path d="M100.275 133.283C99.1251 130.739 95.4345 122.404 95.4345 122.404L72.3746 116.848C72.3746 116.848 70.8169 118.856 68.9297 121.538C73.9563 124.473 86.3999 131.707 87.1368 131.894C88.0594 132.122 92.6726 131.659 92.6726 131.659L90.5997 134.203C90.5997 134.203 96.1355 138.599 97.9808 140.451C98.9514 141.425 101.767 143.999 104.224 146.218C102.54 139.579 100.994 134.882 100.275 133.283Z" fill="#002E47" stroke="#002E47" stroke-miterlimit="10" stroke-linecap="round" stroke-linejoin="round"/>
<path d="M89.6641 127.498L97.5065 133.746L103.965 145.322L99.8131 128.424L91.2817 123.565L89.6641 127.498Z" fill="white" stroke="#002E47" stroke-miterlimit="10" stroke-linecap="round" stroke-linejoin="round"/>
<path d="M73.9863 112.452L98.1307 123.373V131.936L70.5234 117.774L73.9863 112.452Z" fill="white" stroke="#002E47" stroke-miterlimit="10" stroke-linecap="round" stroke-linejoin="round"/>
<path d="M105.914 200.051H64.1914V233.937H105.914V200.051Z" fill="#39B4EF" stroke="#002E47" stroke-miterlimit="10"/>
<path d="M87.6093 216.203C87.6093 216.203 90.7127 220.262 91.9229 220.671C93.1391 221.08 93.8101 222.024 94.3493 222.836C94.8885 223.648 95.5655 229.74 95.9669 230.149C96.3743 230.558 96.3743 231.502 94.8885 230.828C93.4027 230.149 92.4621 227.851 92.4621 227.851L93.0013 233.27C93.0013 233.27 94.2175 233.54 93.2709 234.22C92.3243 234.899 91.5155 235.843 90.7067 235.441C89.8979 235.032 88.6817 233.949 88.6817 233.949C88.6817 233.949 87.1959 234.49 85.7161 234.22C84.2303 233.949 84.4999 234.49 83.1519 233.54C81.8039 232.59 81.8039 233.679 81.1269 231.917C80.4499 230.155 78.8322 224.063 78.5626 222.307C78.293 220.545 78.0234 218.11 78.0234 218.11L87.6093 216.203Z" fill="white" stroke="#002E47" stroke-miterlimit="10" stroke-linecap="round" stroke-linejoin="round"/>
<path d="M88.1545 213.63L89.0951 217.827L77.4962 219.451L76.957 215.253L88.1545 213.63Z" fill="white" stroke="#002E47" stroke-miterlimit="10" stroke-linecap="round" stroke-linejoin="round"/>
<path d="M73.2908 125.183C73.2908 125.183 65.2208 127.726 64.9871 131.431C64.7594 135.135 62.0814 180.056 63.2377 183.069C64.388 186.076 75.7412 216.546 75.7412 216.546L88.8858 214.928C88.8858 214.928 82.1458 179.599 81.9181 178.901C81.6904 178.21 86.4354 138.839 86.4354 138.839" fill="#002E47"/>
<path d="M73.2908 125.183C73.2908 125.183 65.2208 127.726 64.9871 131.431C64.7594 135.135 62.0814 180.056 63.2377 183.069C64.388 186.076 75.7412 216.546 75.7412 216.546L88.8858 214.928C88.8858 214.928 82.1458 179.599 81.9181 178.901C81.6904 178.21 86.4354 138.839 86.4354 138.839" stroke="#002E47" stroke-miterlimit="10" stroke-linecap="round" stroke-linejoin="round"/>
<path d="M84.8935 150.145L81.9219 178.901L84.7557 196.768" stroke="#878787" stroke-miterlimit="10" stroke-linecap="round" stroke-linejoin="round"/>
<path d="M85.3472 145.743L85.1914 147.27" stroke="#878787" stroke-miterlimit="10" stroke-linecap="round" stroke-linejoin="round"/>
<path d="M64.0664 141.293L63.1797 168.294" stroke="#878787" stroke-miterlimit="10" stroke-linecap="round" stroke-linejoin="round"/>
<path d="M94.2141 192.053L103.081 191.728L103.878 194.927L89.1875 195.878" stroke="#878787" stroke-miterlimit="10" stroke-linecap="round" stroke-linejoin="round"/>
<path d="M86.8281 192.318L91.5491 192.149" stroke="#878787" stroke-miterlimit="10" stroke-linecap="round" stroke-linejoin="round"/>
<path d="M70.8672 122.308L87.1332 131.894L92.669 131.665L90.5901 134.209L101.308 142.778" stroke="#878787" stroke-miterlimit="10" stroke-linecap="round" stroke-linejoin="round"/>
<path d="M1.34375 261.172H274.834" stroke="#002E47" stroke-miterlimit="10"/>
<path d="M78.6328 13.3491V53.9945" stroke="#002E47" stroke-miterlimit="10"/>
<path d="M140.832 13.3491V53.9945" stroke="#002E47" stroke-miterlimit="10"/>
<path d="M203.031 13.3491V53.9945" stroke="#002E47" stroke-miterlimit="10"/>
</svg>
