<svg width="508" height="523" viewBox="0 0 508 523" fill="none" xmlns="http://www.w3.org/2000/svg">
<path opacity="0.7" d="M38.8117 162.66C38.8117 162.66 5.95081 247.459 52.1305 332.871C98.2984 418.294 193.428 463.385 269.557 501.962C345.686 540.539 424.738 521.751 462.302 458.567C499.866 395.383 448.335 350.28 448.276 260.181C448.217 170.081 461.772 146.228 412.964 70.1103C364.156 -6.00744 244.345 -22.8636 153.778 33.5945C63.2098 90.0526 38.8117 162.66 38.8117 162.66Z" fill="white"/>
<path d="M37.1507 78.026C41.1228 73.2789 45.4485 68.8617 50.1042 64.8332C83.6604 35.7855 131.62 30.2492 173.061 43.2771C214.515 56.305 249.969 85.8592 278.692 120.302C291.811 136.039 304.281 153.378 321.843 163.002C344.485 175.417 370.71 172.814 395.191 176.465C484.203 189.741 513.209 314.507 452.391 379.422C428.417 405.019 394.955 419.448 363.225 430.274C319.285 445.28 273.318 455.116 227.209 453.279C181.1 451.441 134.708 437.376 97.5803 408.152C48.9491 369.881 19.7067 308.417 7.54294 245.245C1.37858 213.276 -0.801932 180.023 5.3035 148.042C10.2185 122.351 20.8382 97.4736 37.1507 78.026Z" fill="#39B4EF"/>
<path opacity="0.7" d="M395.191 176.465C370.71 172.814 344.485 175.417 321.843 163.002C304.281 153.378 291.823 136.039 278.692 120.302C249.98 85.8592 214.515 56.305 173.061 43.2771C131.608 30.2492 83.6604 35.7855 50.1042 64.8332C45.4485 68.8617 41.1346 73.2789 37.1507 78.026C20.8382 97.4736 10.2185 122.351 5.3035 148.066C-0.801932 180.046 1.37858 213.299 7.54294 245.268C19.7184 308.429 48.9491 369.905 97.5803 408.176C134.708 437.4 181.1 451.464 227.209 453.302C273.318 455.14 319.285 445.304 363.225 430.297C394.943 419.46 428.417 405.031 452.391 379.446C513.209 314.507 484.203 189.752 395.191 176.465Z" fill="white"/>
<path d="M1.67188 486.885H506.584" stroke="#002E47" stroke-miterlimit="10" stroke-linecap="round" stroke-linejoin="round"/>
<path d="M255.238 106.944V111.067" stroke="#39B4EF" stroke-width="3" stroke-linejoin="round"/>
<path d="M255.238 120.125V133.707" stroke="#39B4EF" stroke-width="3" stroke-linejoin="round" stroke-dasharray="7.68 7.68"/>
<path d="M255.239 138.23V142.353H251.113" stroke="#39B4EF" stroke-width="3" stroke-linejoin="round"/>
<path d="M242.778 142.353H113.645" stroke="#39B4EF" stroke-width="3" stroke-linejoin="round" stroke-dasharray="7.07 7.07"/>
<path d="M109.485 142.353H105.359V146.475" stroke="#39B4EF" stroke-width="3" stroke-linejoin="round"/>
<path d="M105.359 153.237V163.379" stroke="#39B4EF" stroke-width="3" stroke-linejoin="round" stroke-dasharray="5.74 5.74"/>
<path d="M105.359 166.759V170.882" stroke="#39B4EF" stroke-width="3" stroke-linejoin="round"/>
<path d="M126.305 126.521H143.053" stroke="#002E47" stroke-miterlimit="10" stroke-linecap="round" stroke-linejoin="round"/>
<path d="M129.995 86.295C124.891 88.7216 121.367 93.9162 121.367 99.9354C121.367 101.655 121.662 103.293 122.192 104.836C121.921 104.812 121.638 104.789 121.367 104.789C115.356 104.789 110.488 109.653 110.488 115.661C110.488 121.668 115.356 126.533 121.367 126.533" stroke="#002E47" stroke-miterlimit="10" stroke-linecap="round" stroke-linejoin="round"/>
<path d="M162.985 73.5969C160.922 72.9491 158.718 72.5957 156.431 72.5957C147.815 72.5957 140.366 77.6019 136.83 84.8579C136.712 84.8579 136.594 84.8344 136.477 84.8344" stroke="#002E47" stroke-miterlimit="10" stroke-linecap="round" stroke-linejoin="round"/>
<path d="M180.713 91.3129C179.794 91.3129 178.898 91.3836 178.014 91.5132C177.272 85.8238 174.337 80.8294 170.082 77.4016" stroke="#002E47" stroke-miterlimit="10" stroke-linecap="round" stroke-linejoin="round"/>
<path d="M153.566 126.521H180.711C190.447 126.521 198.332 118.641 198.332 108.911" stroke="#002E47" stroke-miterlimit="10" stroke-linecap="round" stroke-linejoin="round"/>
<path d="M337.508 127.499H348.87" stroke="#002E47" stroke-miterlimit="10" stroke-linecap="round" stroke-linejoin="round"/>
<path d="M340.006 100.206C336.552 101.856 334.16 105.378 334.16 109.465C334.16 110.631 334.36 111.738 334.725 112.787C334.537 112.775 334.348 112.763 334.16 112.763C330.081 112.763 326.781 116.061 326.781 120.137C326.781 124.213 330.081 127.511 334.16 127.511" stroke="#002E47" stroke-miterlimit="10" stroke-linecap="round" stroke-linejoin="round"/>
<path d="M362.389 91.584C360.986 91.1363 359.489 90.9008 357.945 90.9008C352.099 90.9008 347.042 94.2932 344.65 99.2169C344.567 99.2169 344.497 99.2052 344.414 99.2052" stroke="#002E47" stroke-miterlimit="10" stroke-linecap="round" stroke-linejoin="round"/>
<path d="M374.424 103.611C373.8 103.611 373.187 103.658 372.597 103.752C372.09 99.9002 370.099 96.5077 367.223 94.1754" stroke="#002E47" stroke-miterlimit="10" stroke-linecap="round" stroke-linejoin="round"/>
<path d="M356 127.499H374.422C381.023 127.499 386.374 122.151 386.374 115.555" stroke="#002E47" stroke-miterlimit="10" stroke-linecap="round" stroke-linejoin="round"/>
<path d="M294.736 49.367C293.298 49.367 291.884 49.473 290.493 49.685C288.301 32.9113 273.956 19.9541 256.571 19.9541C243.029 19.9541 231.324 27.8109 225.785 39.2132C225.596 39.2132 225.419 39.1897 225.231 39.1897C212.124 39.1897 201.493 49.8146 201.493 62.9131C201.493 65.6106 201.964 68.1902 202.789 70.605C202.353 70.5697 201.929 70.5343 201.493 70.5343C192.052 70.5343 184.414 78.1791 184.414 87.6025C184.414 97.0259 192.064 104.671 201.493 104.671H294.736C310.023 104.671 322.411 92.2906 322.411 77.0129C322.411 61.7352 310.023 49.367 294.736 49.367Z" fill="white" stroke="#002E47" stroke-miterlimit="10"/>
<path d="M255.379 77.4017V57.6007" stroke="#002E47" stroke-miterlimit="10" stroke-linecap="round" stroke-linejoin="round"/>
<path d="M266.376 64.3385L255.38 53.3484L244.395 64.3385" stroke="#002E47" stroke-miterlimit="10" stroke-linecap="round" stroke-linejoin="round"/>
<path d="M255.379 81.8307V86.295" stroke="#002E47" stroke-miterlimit="10" stroke-linecap="round" stroke-linejoin="round"/>
<path d="M255.379 91.5133V94.9293" stroke="#002E47" stroke-miterlimit="10" stroke-linecap="round" stroke-linejoin="round"/>
<path d="M220.053 486.885H196.703C190.963 486.885 187.038 482.244 187.958 476.519L196.998 419.884C197.917 414.159 203.304 409.518 209.056 409.518H280.671" stroke="#002E47" stroke-miterlimit="10" stroke-linecap="round" stroke-linejoin="round"/>
<path d="M207.004 393.805H227.984C229.292 393.805 230.459 394.606 230.942 395.819L233.441 402.239H277.876C282.45 402.239 286.339 405.195 287.73 409.295L290.217 409.507C295.957 409.507 299.882 414.148 298.962 419.872L289.922 476.507C289.015 482.232 283.616 486.873 277.865 486.873H233.583" stroke="#002E47" stroke-miterlimit="10" stroke-linecap="round" stroke-linejoin="round"/>
<path d="M186.309 437.39V421.594V412.641C186.309 407.152 190.575 402.711 195.962 402.323L198.484 395.832C198.956 394.619 200.134 393.818 201.443 393.818" stroke="#002E47" stroke-miterlimit="10" stroke-linecap="round" stroke-linejoin="round"/>
<path d="M196.704 486.885C190.964 486.885 186.309 482.232 186.309 476.495V453.514" stroke="#002E47" stroke-miterlimit="10" stroke-linecap="round" stroke-linejoin="round"/>
<path d="M419.011 486.885C416.111 486.885 413.766 484.541 413.766 481.643V449.427C413.766 446.659 415.923 444.421 418.633 444.22L419.906 440.946C420.142 440.333 420.731 439.933 421.392 439.933H434.781C435.441 439.933 436.03 440.333 436.266 440.946L437.527 444.185H459.945C462.255 444.185 464.212 445.681 464.919 447.742" fill="#39B4EF"/>
<mask id="mask0_266_40022" style="mask-type:luminance" maskUnits="userSpaceOnUse" x="413" y="439" width="52" height="48">
<path d="M419.011 486.885C416.111 486.885 413.766 484.541 413.766 481.643V449.427C413.766 446.659 415.923 444.421 418.633 444.22L419.906 440.946C420.142 440.333 420.731 439.933 421.392 439.933H434.781C435.441 439.933 436.03 440.333 436.266 440.946L437.527 444.185H459.945C462.255 444.185 464.212 445.681 464.919 447.742" fill="white"/>
</mask>
<g mask="url(#mask0_266_40022)">
<path opacity="0.3" d="M419.011 486.885C416.111 486.885 413.766 484.541 413.766 481.643V449.427C413.766 446.659 415.923 444.421 418.633 444.22L419.906 440.946C420.142 440.333 420.731 439.933 421.392 439.933H434.781C435.441 439.933 436.03 440.333 436.266 440.946L437.527 444.185H459.945C462.255 444.185 464.212 445.681 464.919 447.742" fill="black" fill-opacity="0.7"/>
</g>
<path d="M419.011 486.885C416.111 486.885 413.766 484.541 413.766 481.643V449.427C413.766 446.659 415.923 444.421 418.633 444.22L419.906 440.946C420.142 440.333 420.731 439.933 421.392 439.933H434.781C435.441 439.933 436.03 440.333 436.266 440.946L437.527 444.185H459.945C462.255 444.185 464.212 445.681 464.919 447.742" stroke="#002E47" stroke-miterlimit="10" stroke-linecap="round" stroke-linejoin="round"/>
<path d="M419.01 486.885H459.956C462.856 486.885 465.579 484.541 466.038 481.655L470.6 453.078C471.059 450.192 469.079 447.848 466.191 447.848H425.245C422.346 447.848 419.623 450.192 419.163 453.078L414.602 481.655C414.142 484.552 416.11 486.885 419.01 486.885Z" fill="#39B4EF" stroke="#002E47" stroke-miterlimit="10" stroke-linecap="round" stroke-linejoin="round"/>
<path d="M180.44 486.885C177.541 486.885 175.195 484.541 175.195 481.643V449.427C175.195 446.659 177.352 444.421 180.063 444.22L181.336 440.946C181.572 440.333 182.161 439.933 182.821 439.933H196.211C196.871 439.933 197.46 440.333 197.696 440.946L198.957 444.185H221.375C223.685 444.185 225.642 445.681 226.349 447.742" fill="#39B4EF"/>
<mask id="mask1_266_40022" style="mask-type:luminance" maskUnits="userSpaceOnUse" x="175" y="439" width="52" height="48">
<path d="M180.44 486.885C177.541 486.885 175.195 484.541 175.195 481.643V449.427C175.195 446.659 177.352 444.421 180.063 444.22L181.336 440.946C181.572 440.333 182.161 439.933 182.821 439.933H196.211C196.871 439.933 197.46 440.333 197.696 440.946L198.957 444.185H221.375C223.685 444.185 225.642 445.681 226.349 447.742" fill="white"/>
</mask>
<g mask="url(#mask1_266_40022)">
<path opacity="0.3" d="M180.44 486.885C177.541 486.885 175.195 484.541 175.195 481.643V449.427C175.195 446.659 177.352 444.421 180.063 444.22L181.336 440.946C181.572 440.333 182.161 439.933 182.821 439.933H196.211C196.871 439.933 197.46 440.333 197.696 440.946L198.957 444.185H221.375C223.685 444.185 225.642 445.681 226.349 447.742" fill="black" fill-opacity="0.7"/>
</g>
<path d="M180.44 486.885C177.541 486.885 175.195 484.541 175.195 481.643V449.427C175.195 446.659 177.352 444.421 180.063 444.22L181.336 440.946C181.572 440.333 182.161 439.933 182.821 439.933H196.211C196.871 439.933 197.46 440.333 197.696 440.946L198.957 444.185H221.375C223.685 444.185 225.642 445.681 226.349 447.742" stroke="#002E47" stroke-miterlimit="10" stroke-linecap="round" stroke-linejoin="round"/>
<path d="M180.439 486.885H221.385C224.284 486.885 227.007 484.541 227.467 481.655L232.028 453.078C232.488 450.192 230.508 447.848 227.62 447.848H186.674C183.774 447.848 181.051 450.192 180.592 453.078L176.03 481.655C175.559 484.552 177.539 486.885 180.439 486.885Z" fill="#39B4EF" stroke="#002E47" stroke-miterlimit="10" stroke-linecap="round" stroke-linejoin="round"/>
<path d="M324.541 470.241C324.541 470.241 326.391 481.584 324.541 486.885H286.965C286.965 486.885 285.374 482.915 286.965 480.406C288.556 477.897 300.461 476.472 304.162 473.091C307.863 469.711 311.835 463.892 311.835 463.892L324.541 470.241Z" fill="#39B4EF" stroke="#002E47" stroke-miterlimit="10" stroke-linecap="round" stroke-linejoin="round"/>
<path d="M286.27 484.894H325.035L325.365 486.885H286.27V484.894Z" fill="white" stroke="#002E47" stroke-miterlimit="10" stroke-linecap="round" stroke-linejoin="round"/>
<path d="M315.511 468.862C315.511 468.862 311.975 469.722 311.574 469.852C311.173 469.981 307.732 475.27 304.302 476.201C300.86 477.131 297.419 476.943 297.949 478.627" stroke="#002E47" stroke-miterlimit="10" stroke-linecap="round" stroke-linejoin="round"/>
<path d="M307.688 468.862L311.719 471.831" stroke="#002E47" stroke-miterlimit="10" stroke-linecap="round" stroke-linejoin="round"/>
<path d="M305.824 471.454L309.702 474.304" stroke="#002E47" stroke-miterlimit="10" stroke-linecap="round" stroke-linejoin="round"/>
<path d="M303.336 473.739L306.707 476.99" stroke="#002E47" stroke-miterlimit="10" stroke-linecap="round" stroke-linejoin="round"/>
<path d="M299.941 475.388L301.391 478.616" stroke="#002E47" stroke-miterlimit="10" stroke-linecap="round" stroke-linejoin="round"/>
<path d="M325.154 475.388C325.154 475.388 318.99 474.634 312.248 477.002C305.506 479.358 303.172 481.431 303.349 482.043C303.526 482.668 304.316 484.505 304.316 484.505H307.698C307.698 484.505 306.473 482.35 306.72 482.043C306.968 481.737 318.495 477.237 325.166 478.038V475.388H325.154Z" fill="#002E47"/>
<path d="M388.223 486.885C388.223 486.885 389.673 481.36 387.976 479.311C384.935 475.635 388.341 472.549 385.3 471.277L384.027 472.761C383.78 471.253 384.487 466.683 378.829 466.082C371.993 465.364 371.864 470.335 371.486 471.972L371.604 469.687C368.693 469.687 370.202 472.596 365.782 477.355C362.411 480.983 362.399 485.648 362.588 486.885H388.223Z" fill="#39B4EF" stroke="#002E47" stroke-miterlimit="10" stroke-linecap="round" stroke-linejoin="round"/>
<path d="M413 276.742C416.159 278.58 424.304 295.919 419.554 330.326C414.804 364.734 400.565 432.029 398.173 442.324C395.792 452.619 387.423 477.367 387.423 477.367C387.423 477.367 384.229 466.624 368.871 472.373C368.306 472.585 367.716 472.078 367.834 471.489L371.205 453.95C371.205 453.95 371.441 441.122 372.549 437.906C376.709 425.786 378.796 378.998 380.163 372.473C381.53 365.947 378.843 347.159 378.843 347.159C378.843 347.159 359.619 393.145 358.994 397.657C358.37 402.168 346.642 420.944 346.642 420.944L344.615 438.189C344.615 438.189 329.009 464.905 326.263 472.879L307.688 468.851L308.206 455.646L313.215 453.938L321.961 423.913C321.961 423.913 325.261 410.626 332.133 393.263C336.27 382.815 347.997 342.388 347.997 342.388C351.64 338.431 355.069 316.545 355.069 316.545L360.703 288.934L413 276.742Z" fill="#002E47"/>
<path d="M334.996 203.782L296.808 232.523L272.233 193.781L263.039 194.971C263.039 194.971 281.332 244.95 291.456 249.921C301.581 254.892 339.746 227.269 339.746 227.269" fill="white"/>
<path d="M334.996 203.782L296.808 232.523L272.233 193.781L263.039 194.971C263.039 194.971 281.332 244.95 291.456 249.921C301.581 254.892 339.746 227.269 339.746 227.269" stroke="#002E47" stroke-miterlimit="10" stroke-linecap="round" stroke-linejoin="round"/>
<path d="M343.389 198.033C343.389 198.033 332.333 201.885 324.919 208.305C317.506 214.724 305.684 224.313 305.684 224.313C305.684 224.313 312.378 240.238 320.075 246.811L336.541 240.215L343.389 198.033Z" fill="#39B4EF"/>
<mask id="mask2_266_40022" style="mask-type:luminance" maskUnits="userSpaceOnUse" x="305" y="198" width="39" height="49">
<path d="M343.389 198.033C343.389 198.033 332.333 201.885 324.919 208.305C317.506 214.724 305.684 224.313 305.684 224.313C305.684 224.313 312.378 240.238 320.075 246.811L336.541 240.215L343.389 198.033Z" fill="white"/>
</mask>
<g mask="url(#mask2_266_40022)">
<path opacity="0.4" d="M319.969 246.73L326.004 241.371C321.831 239.969 321.336 231.464 323.67 233.914C326.004 236.364 329.964 237.177 329.964 237.177C326.935 228.79 328.161 220.792 328.161 220.792C328.161 220.792 330.176 226.411 331.331 232.065C332.097 235.834 334.914 238.367 336.069 239.71L343.4 198.046C343.4 198.046 332.345 201.898 324.931 208.318C317.517 214.738 305.695 224.326 305.695 224.326C305.695 224.326 312.319 240.098 319.969 246.73Z" fill="white"/>
</g>
<path d="M343.389 198.033C343.389 198.033 332.333 201.885 324.919 208.305C317.506 214.724 305.684 224.313 305.684 224.313C305.684 224.313 312.378 240.238 320.075 246.811L336.541 240.215L343.389 198.033Z" stroke="#002E47" stroke-miterlimit="10" stroke-linecap="round" stroke-linejoin="round"/>
<path d="M336.542 240.215C342.965 255.928 353.007 275.576 353.007 275.576L357.451 297.474C357.451 297.474 374.141 310.184 393.282 304.859C415.724 298.605 419.354 284.434 419.354 284.434L410.809 267.295C407.886 250.828 404.067 211.874 390.925 202.981C377.783 194.087 355.223 193.333 346.124 196.938C338.027 200.142 333.548 202.58 331.344 205.537" fill="#39B4EF"/>
<mask id="mask3_266_40022" style="mask-type:luminance" maskUnits="userSpaceOnUse" x="331" y="194" width="89" height="113">
<path d="M336.542 240.215C342.965 255.928 353.007 275.576 353.007 275.576L357.451 297.474C357.451 297.474 374.141 310.184 393.282 304.859C415.724 298.605 419.354 284.434 419.354 284.434L410.809 267.295C407.886 250.828 404.067 211.874 390.925 202.981C377.783 194.087 355.223 193.333 346.124 196.938C338.027 200.142 333.548 202.58 331.344 205.537" fill="white"/>
</mask>
<g mask="url(#mask3_266_40022)">
<path opacity="0.4" d="M406.483 289.712C386.246 296.238 388.485 291.573 393.105 283.422C397.29 276.048 394.331 267.437 394.39 265.117C393.483 266.907 390.041 272.137 385.774 274.187C380.282 276.825 382.215 277.685 387.035 268.521C391.856 259.357 393.094 248.944 393.094 248.944C387.695 243.584 383.44 230.509 383.44 230.509L401.156 219.684C398.551 212.11 395.239 205.914 390.901 202.993C377.759 194.099 355.2 193.345 346.101 196.95C338.003 200.154 333.524 202.592 331.32 205.549L336.53 240.239C342.954 255.952 352.996 275.6 352.996 275.6L357.439 297.498C357.439 297.498 374.129 310.208 393.27 304.883C415.712 298.629 419.342 284.458 419.342 284.458L419.012 283.81C415.311 286.131 411.115 288.228 406.483 289.712Z" fill="white"/>
</g>
<path d="M336.542 240.215C342.965 255.928 353.007 275.576 353.007 275.576L357.451 297.474C357.451 297.474 374.141 310.184 393.282 304.859C415.724 298.605 419.354 284.434 419.354 284.434L410.809 267.295C407.886 250.828 404.067 211.874 390.925 202.981C377.783 194.087 355.223 193.333 346.124 196.938C338.027 200.142 333.548 202.58 331.344 205.537" stroke="#002E47" stroke-miterlimit="10" stroke-linecap="round" stroke-linejoin="round"/>
<path d="M367.397 199.965C367.397 199.965 362.47 209.106 353.713 208.258C346.429 207.539 346.641 201.673 346.641 201.673C346.641 201.673 348.22 200.472 348.833 198.34C349.022 197.703 349.116 196.973 349.057 196.184C348.939 194.37 348.02 192.155 345.498 189.623C345.462 189.588 345.415 189.54 345.38 189.505C344.838 188.963 344.402 188.41 344.095 187.856C340.076 180.753 354.102 172.79 364.686 178.668C364.686 178.668 356.483 184.994 367.397 199.965Z" fill="white" stroke="#002E47" stroke-miterlimit="10" stroke-linecap="round" stroke-linejoin="round"/>
<path d="M351.932 187.561C351.932 187.561 351.731 193.062 349.056 196.184C348.938 194.37 348.018 192.155 345.496 189.623C346.91 188.068 349.044 187.079 351.932 187.561Z" fill="#002E47"/>
<path d="M366.346 171.871C370.318 154.874 362.091 147.5 356.705 145.274C348.077 141.705 336.856 147.312 334.31 156.759C331.764 166.206 334.063 168.349 333.945 172.213C333.862 174.922 332.189 176.253 334.027 183.062C335.241 187.55 337.269 194.747 344.942 193.451C346.474 193.192 348.949 192.591 351.731 191.248" fill="white"/>
<path d="M366.346 171.871C370.318 154.874 362.091 147.5 356.705 145.274C348.077 141.705 336.856 147.312 334.31 156.759C331.764 166.206 334.063 168.349 333.945 172.213C333.862 174.922 332.189 176.253 334.027 183.062C335.241 187.55 337.269 194.747 344.942 193.451C346.474 193.192 348.949 192.591 351.731 191.248" stroke="#002E47" stroke-miterlimit="10" stroke-linecap="round" stroke-linejoin="round"/>
<path d="M343.953 166.347C343.953 166.347 347.147 165.157 348.845 168.903" stroke="#002E47" stroke-miterlimit="10" stroke-linecap="round" stroke-linejoin="round"/>
<path d="M333.098 164.368C333.098 164.368 336.433 163.65 337.848 166.064" stroke="#002E47" stroke-miterlimit="10" stroke-linecap="round" stroke-linejoin="round"/>
<path d="M338.707 170.882C338.707 170.882 335.43 176.56 335.477 177.337C335.642 179.764 338.73 178.668 338.73 178.668" stroke="#002E47" stroke-miterlimit="10" stroke-linecap="round" stroke-linejoin="round"/>
<path d="M344.578 171.659C344.578 172.449 344.932 173.085 345.368 173.085C345.804 173.085 346.158 172.449 346.158 171.659C346.158 170.87 345.804 170.234 345.368 170.234C344.932 170.234 344.578 170.87 344.578 171.659Z" fill="#002E47" stroke="#002E47" stroke-miterlimit="10" stroke-linecap="round" stroke-linejoin="round"/>
<path d="M335.48 170.882C335.48 171.671 335.834 172.307 336.27 172.307C336.706 172.307 337.06 171.671 337.06 170.882C337.06 170.093 336.706 169.457 336.27 169.457C335.834 169.445 335.48 170.093 335.48 170.882Z" fill="#002E47" stroke="#002E47" stroke-miterlimit="10" stroke-linecap="round" stroke-linejoin="round"/>
<path d="M344.578 181C344.578 181 341.101 182.932 337.848 182.084" stroke="#002E47" stroke-miterlimit="10" stroke-linecap="round" stroke-linejoin="round"/>
<path d="M343.952 181.648C343.952 181.648 343.575 184.157 341.217 184.405C338.86 184.652 338.73 182.296 338.73 182.296" stroke="#002E47" stroke-miterlimit="10" stroke-linecap="round" stroke-linejoin="round"/>
<path d="M366.371 150.174C366.371 150.174 365.852 141.057 348.844 141.387C331.836 141.716 326.874 154.85 335.479 158.408C344.095 161.965 349.434 160.41 349.434 160.41C349.434 160.41 346.251 159.468 343.387 156.264C343.387 156.264 349.34 159.751 354.396 160.752C354.396 160.752 352.451 163.296 354.396 167.525C356.341 171.765 355.386 173.579 355.386 173.579C355.386 173.579 363.177 175.794 361.869 184.134C361.869 184.134 369.035 184.004 371.934 167.525C374.834 151.046 366.371 150.174 366.371 150.174Z" fill="#002E47"/>
<path d="M356.707 174.852C356.707 174.852 359.83 169.044 363.084 170.458C366.348 171.871 364.074 178.821 361.245 181.083C358.404 183.344 356.707 181.083 356.707 181.083" fill="white"/>
<path d="M356.707 174.852C356.707 174.852 359.83 169.044 363.084 170.458C366.348 171.871 364.074 178.821 361.245 181.083C358.404 183.344 356.707 181.083 356.707 181.083" stroke="#002E47" stroke-miterlimit="10" stroke-linecap="round" stroke-linejoin="round"/>
<path d="M328.16 220.779C330.058 228.412 331.048 234.431 336.54 240.215" stroke="#002E47" stroke-miterlimit="10" stroke-linecap="round" stroke-linejoin="round"/>
<path d="M326.969 214.701C327.122 215.891 327.334 217.069 327.582 218.246" stroke="#002E47" stroke-miterlimit="10" stroke-linecap="round" stroke-linejoin="round"/>
<path d="M393.117 235.432C393.117 235.432 415.865 260.004 421.452 259.085C427.051 258.166 429.95 249.096 428.724 246.587C427.499 244.09 407.002 220.272 407.002 220.272L393.117 235.432Z" fill="white" stroke="#002E47" stroke-miterlimit="10" stroke-linecap="round" stroke-linejoin="round"/>
<path d="M384.655 212.333C382.439 220.049 381.508 228.353 385.209 234.808C387.059 240.344 397.809 245.633 401.51 250.239C413.096 247.412 417.999 232.711 417.999 232.711C417.999 232.711 411.293 223.206 404.598 213.24C397.891 203.263 384.455 199.517 384.455 199.517" fill="#39B4EF"/>
<mask id="mask4_266_40022" style="mask-type:luminance" maskUnits="userSpaceOnUse" x="382" y="199" width="36" height="52">
<path d="M384.655 212.333C382.439 220.049 381.508 228.353 385.209 234.808C387.059 240.344 397.809 245.633 401.51 250.239C413.096 247.412 417.999 232.711 417.999 232.711C417.999 232.711 411.293 223.206 404.598 213.24C397.891 203.263 384.455 199.517 384.455 199.517" fill="white"/>
</mask>
<g mask="url(#mask4_266_40022)">
<path opacity="0.4" d="M384.655 212.333C382.439 220.049 381.508 228.353 385.209 234.808C387.059 240.344 397.809 245.633 401.51 250.239C413.096 247.412 417.999 232.711 417.999 232.711C417.999 232.711 411.293 223.206 404.598 213.24C397.891 203.263 384.455 199.517 384.455 199.517" fill="white"/>
</g>
<path d="M384.655 212.333C382.439 220.049 381.508 228.353 385.209 234.808C387.059 240.344 397.809 245.633 401.51 250.239C413.096 247.412 417.999 232.711 417.999 232.711C417.999 232.711 411.293 223.206 404.598 213.24C397.891 203.263 384.455 199.517 384.455 199.517" stroke="#002E47" stroke-miterlimit="10" stroke-linecap="round" stroke-linejoin="round"/>
<path d="M272.516 194.217C272.516 194.217 268.745 185.359 266.376 182.602C264.113 179.964 261.637 177.879 261.001 177.796C259.363 177.596 254.035 180.565 254.035 180.565C254.035 180.565 254.023 182.225 256.923 181.99C256.923 181.99 252.75 184.581 252.55 186.631C252.35 188.669 254.943 191.555 255.45 192.685C255.956 193.816 256.946 193.168 256.946 193.168C256.946 193.168 261.449 199.294 265.798 199.718" fill="white"/>
<path d="M272.516 194.217C272.516 194.217 268.745 185.359 266.376 182.602C264.113 179.964 261.637 177.879 261.001 177.796C259.363 177.596 254.035 180.565 254.035 180.565C254.035 180.565 254.023 182.225 256.923 181.99C256.923 181.99 252.75 184.581 252.55 186.631C252.35 188.669 254.943 191.555 255.45 192.685C255.956 193.816 256.946 193.168 256.946 193.168C256.946 193.168 261.449 199.294 265.798 199.718" stroke="#002E47" stroke-miterlimit="10" stroke-linecap="round" stroke-linejoin="round"/>
<path d="M256.934 193.145C256.934 193.145 257.44 192.662 257.523 191.484C257.523 191.484 259.326 191.496 259.421 189.906C259.421 189.906 262.073 190.07 260.965 186.702" stroke="#002E47" stroke-miterlimit="10" stroke-linecap="round" stroke-linejoin="round"/>
<path d="M259.421 189.894C259.421 189.894 256.415 186.666 256.238 185.418" stroke="#002E47" stroke-miterlimit="10" stroke-linecap="round" stroke-linejoin="round"/>
<path d="M257.525 191.472C257.525 191.472 254.225 188.527 254.401 187.184" stroke="#002E47" stroke-miterlimit="10" stroke-linecap="round" stroke-linejoin="round"/>
<path d="M260.519 179.987C260.519 179.987 259.27 181.625 257.23 181.707" stroke="#002E47" stroke-miterlimit="10" stroke-linecap="round" stroke-linejoin="round"/>
<path d="M259.785 180.718C259.785 180.718 260.646 181.366 261.317 182.202" stroke="#002E47" stroke-miterlimit="10" stroke-linecap="round" stroke-linejoin="round"/>
<path d="M385.785 209.895C386.504 208.682 387.459 207.61 388.649 206.832" stroke="#002E47" stroke-miterlimit="10" stroke-linecap="round" stroke-linejoin="round"/>
<path d="M362.543 484.894H388.792L388.226 486.885H362.567L362.543 484.894Z" fill="white" stroke="#002E47" stroke-miterlimit="10" stroke-linecap="round" stroke-linejoin="round"/>
<path d="M370.969 477.131C370.969 477.131 379.585 474.281 383.745 477.85" stroke="#002E47" stroke-miterlimit="10" stroke-linecap="round" stroke-linejoin="round"/>
<path d="M370.969 475.247C370.969 475.247 378.547 472.856 383.745 476.048" stroke="#002E47" stroke-miterlimit="10" stroke-linecap="round" stroke-linejoin="round"/>
<path d="M371.418 473.397C371.418 473.397 378.549 470.712 383.747 474.387" stroke="#002E47" stroke-miterlimit="10" stroke-linecap="round" stroke-linejoin="round"/>
<path d="M365.758 477.367L366.607 478.203C366.842 478.439 366.89 478.804 366.701 479.087C366.088 480.041 364.827 482.35 364.945 484.894H363.684C363.684 484.894 364.12 481.513 365.499 479.11L364.85 478.463L365.758 477.367Z" fill="#002E47"/>
<path d="M395.78 262.913C394.295 264.987 374.117 289.334 364.688 288.015" stroke="#002E47" stroke-miterlimit="10" stroke-linecap="round" stroke-linejoin="round"/>
<path d="M343.391 242.099C343.391 242.099 354.659 259.462 372.539 259.109" stroke="#002E47" stroke-miterlimit="10" stroke-linecap="round" stroke-linejoin="round"/>
<g opacity="0.2">
<path d="M372.535 327.923C373.561 328.159 393.374 335.38 397.346 342.6" stroke="white" stroke-miterlimit="10" stroke-linecap="round" stroke-linejoin="round"/>
<path d="M377.358 338.407C376.368 339.809 367.952 366.135 364.345 373.356C360.739 380.577 348.622 412.97 345.817 414.831C345.817 414.831 342.092 433.701 339.759 436.728C337.425 439.756 325.367 463.892 325.367 463.892" stroke="white" stroke-miterlimit="10" stroke-linecap="round" stroke-linejoin="round"/>
<path d="M311.848 463.892L326.475 467.025" stroke="white" stroke-miterlimit="10" stroke-linecap="round" stroke-linejoin="round"/>
<path d="M371.418 465.458C371.418 465.458 383.122 464.41 387.094 468.862" stroke="white" stroke-miterlimit="10" stroke-linecap="round" stroke-linejoin="round"/>
<path d="M384.949 341.434C385.928 347.029 400.614 378.009 404.114 374.522" stroke="white" stroke-miterlimit="10" stroke-linecap="round" stroke-linejoin="round"/>
<path d="M379.255 344.238C379.255 344.238 377.534 336.546 379.16 333.059C379.785 331.728 366.572 336.322 362.141 335.274" stroke="white" stroke-miterlimit="10" stroke-linecap="round" stroke-linejoin="round"/>
<path d="M377.357 306.155C377.357 306.155 379.667 312.775 380.233 314.872C380.798 316.969 376.025 325.12 377.357 326.757" stroke="white" stroke-miterlimit="10" stroke-linecap="round" stroke-linejoin="round"/>
<path d="M409.477 299.959C409.477 299.959 412.741 304.954 412.741 308.629C412.741 312.304 417.173 313.941 417.173 313.941" stroke="white" stroke-miterlimit="10" stroke-linecap="round" stroke-linejoin="round"/>
<path d="M416.431 294.505C416.431 294.505 420.426 309.512 417.161 327.923C413.897 346.334 408.534 383.84 406.436 393.393C404.338 402.946 399.446 424.384 399.446 427.411C399.446 430.438 394.531 447.683 394.531 447.683" stroke="white" stroke-miterlimit="10" stroke-linecap="round" stroke-linejoin="round"/>
<path d="M395.719 421.592C395.024 421.592 381.964 434.172 378.699 434.408" stroke="white" stroke-miterlimit="10" stroke-linecap="round" stroke-linejoin="round"/>
<path d="M338.593 413.9C337.898 414.136 326.936 419.495 326.465 417.858" stroke="white" stroke-miterlimit="10" stroke-linecap="round" stroke-linejoin="round"/>
</g>
<path d="M393.494 316.662C390.607 316.898 388.073 314.742 387.837 311.856L385.244 279.746C385.02 276.99 386.988 274.575 389.687 274.163L390.689 270.794C390.878 270.158 391.432 269.71 392.092 269.663L405.434 268.591C406.094 268.532 406.719 268.897 407.002 269.486L408.522 272.608L430.87 270.806C433.168 270.617 435.242 271.948 436.115 273.962" fill="#39B4EF"/>
<mask id="mask5_266_40022" style="mask-type:luminance" maskUnits="userSpaceOnUse" x="385" y="268" width="52" height="49">
<path d="M393.494 316.662C390.607 316.898 388.073 314.742 387.837 311.856L385.244 279.746C385.02 276.99 386.988 274.575 389.687 274.163L390.689 270.794C390.878 270.158 391.432 269.71 392.092 269.663L405.434 268.591C406.094 268.532 406.719 268.897 407.002 269.486L408.522 272.608L430.87 270.806C433.168 270.617 435.242 271.948 436.115 273.962" fill="white"/>
</mask>
<g mask="url(#mask5_266_40022)">
<path opacity="0.3" d="M393.494 316.662C390.607 316.898 388.073 314.742 387.837 311.856L385.244 279.746C385.02 276.99 386.988 274.575 389.687 274.163L390.689 270.794C390.878 270.158 391.432 269.71 392.092 269.663L405.434 268.591C406.094 268.532 406.719 268.897 407.002 269.486L408.522 272.608L430.87 270.806C433.168 270.617 435.242 271.948 436.115 273.962" fill="black" fill-opacity="0.7"/>
</g>
<path d="M393.494 316.662C390.607 316.898 388.073 314.742 387.837 311.856L385.244 279.746C385.02 276.99 386.988 274.575 389.687 274.163L390.689 270.794C390.878 270.158 391.432 269.71 392.092 269.663L405.434 268.591C406.094 268.532 406.719 268.897 407.002 269.486L408.522 272.608L430.87 270.806C433.168 270.617 435.242 271.948 436.115 273.962" stroke="#002E47" stroke-miterlimit="10" stroke-linecap="round" stroke-linejoin="round"/>
<path d="M393.493 316.662L434.31 313.376C437.197 313.14 439.72 310.596 439.955 307.675L442.207 278.827C442.431 275.906 440.274 273.739 437.386 273.974L396.569 277.261C393.681 277.496 391.159 280.041 390.923 282.962L388.672 311.809C388.448 314.719 390.605 316.886 393.493 316.662Z" fill="#39B4EF" stroke="#002E47" stroke-miterlimit="10" stroke-linecap="round" stroke-linejoin="round"/>
<path d="M425.07 241.887C429.29 245.94 431.471 249.108 431.152 262.277C430.846 275.447 428.465 294.494 426.897 307.368L415.688 309.076C415.688 309.076 417.445 288.816 415.688 275.47C413.779 260.923 415.288 252.76 417.044 251.711" fill="white"/>
<path d="M425.07 241.887C429.29 245.94 431.471 249.108 431.152 262.277C430.846 275.447 428.465 294.494 426.897 307.368L415.688 309.076C415.688 309.076 417.445 288.816 415.688 275.47C413.779 260.923 415.288 252.76 417.044 251.711" stroke="#002E47" stroke-miterlimit="10" stroke-linecap="round" stroke-linejoin="round"/>
<path d="M416.336 297.863C416.1 301.632 409.205 302.786 408.698 305.166C408.533 305.943 406.164 311.15 406.164 311.15C406.164 311.15 405.999 313.941 406.482 315.614C407.071 317.64 408.898 316.462 408.898 316.462L409.476 317.911C410.407 320.243 412.163 318.088 415.122 319.536C418.092 320.997 419.53 319.065 420.673 319.536C421.828 320.008 425.553 318.841 426.248 317.44C426.944 316.038 425.836 309.842 426.896 307.38C427.957 304.918 427.981 299.947 427.981 297.874" fill="white"/>
<path d="M416.336 297.863C416.1 301.632 409.205 302.786 408.698 305.166C408.533 305.943 406.164 311.15 406.164 311.15C406.164 311.15 405.999 313.941 406.482 315.614C407.071 317.64 408.898 316.462 408.898 316.462L409.476 317.911C410.407 320.243 412.163 318.088 415.122 319.536C418.092 320.997 419.53 319.065 420.673 319.536C421.828 320.008 425.553 318.841 426.248 317.44C426.944 316.038 425.836 309.842 426.896 307.38C427.957 304.918 427.981 299.947 427.981 297.874" stroke="#002E47" stroke-miterlimit="10" stroke-linecap="round" stroke-linejoin="round"/>
<path d="M408.887 316.462C408.887 316.462 408.934 312.669 411.338 311.15L408.887 316.462Z" fill="white"/>
<path d="M408.887 316.462C408.887 316.462 408.934 312.669 411.338 311.15" stroke="#002E47" stroke-miterlimit="10" stroke-linecap="round" stroke-linejoin="round"/>
<path d="M256.064 179.575H151.223V201.225H256.064V179.575Z" fill="#002E47" stroke="#B3C7EB" stroke-miterlimit="10" stroke-linecap="round" stroke-linejoin="round"/>
<path d="M256.064 207.716H151.223V229.366H256.064V207.716Z" fill="#002E47" stroke="#B3C7EB" stroke-miterlimit="10" stroke-linecap="round" stroke-linejoin="round"/>
<path d="M256.064 235.856H151.223V257.507H256.064V235.856Z" fill="#002E47" stroke="#B3C7EB" stroke-miterlimit="10" stroke-linecap="round" stroke-linejoin="round"/>
<path d="M256.064 263.997H151.223V285.648H256.064V263.997Z" fill="#002E47" stroke="#B3C7EB" stroke-miterlimit="10" stroke-linecap="round" stroke-linejoin="round"/>
<path d="M256.064 292.138H151.223V313.788H256.064V292.138Z" fill="#002E47" stroke="#B3C7EB" stroke-miterlimit="10" stroke-linecap="round" stroke-linejoin="round"/>
<path d="M256.961 203.652H172.959C171.662 203.652 170.625 202.604 170.625 201.32V179.481C170.625 178.185 171.674 177.149 172.959 177.149H256.961C258.258 177.149 259.295 178.197 259.295 179.481V201.32C259.295 202.604 258.246 203.652 256.961 203.652Z" fill="#002E47" stroke="#B3C7EB" stroke-miterlimit="10" stroke-linecap="round" stroke-linejoin="round"/>
<path d="M256.961 231.793H172.959C171.662 231.793 170.625 230.744 170.625 229.46V207.622C170.625 206.326 171.674 205.289 172.959 205.289H256.961C258.258 205.289 259.295 206.338 259.295 207.622V229.46C259.295 230.744 258.246 231.793 256.961 231.793Z" fill="#002E47" stroke="#B3C7EB" stroke-miterlimit="10" stroke-linecap="round" stroke-linejoin="round"/>
<path d="M256.961 259.933H172.959C171.662 259.933 170.625 258.885 170.625 257.601V235.762C170.625 234.467 171.674 233.43 172.959 233.43H256.961C258.258 233.43 259.295 234.478 259.295 235.762V257.601C259.295 258.885 258.246 259.933 256.961 259.933Z" fill="#002E47" stroke="#B3C7EB" stroke-miterlimit="10" stroke-linecap="round" stroke-linejoin="round"/>
<path d="M256.961 288.074H172.959C171.662 288.074 170.625 287.026 170.625 285.742V263.903C170.625 262.607 171.674 261.571 172.959 261.571H256.961C258.258 261.571 259.295 262.619 259.295 263.903V285.742C259.295 287.026 258.246 288.074 256.961 288.074Z" fill="#002E47" stroke="#B3C7EB" stroke-miterlimit="10" stroke-linecap="round" stroke-linejoin="round"/>
<path d="M256.961 316.215H172.959C171.662 316.215 170.625 315.166 170.625 313.882V292.044C170.625 290.748 171.674 289.711 172.959 289.711H256.961C258.258 289.711 259.295 290.76 259.295 292.044V313.882C259.295 315.178 258.246 316.215 256.961 316.215Z" fill="#002E47" stroke="#B3C7EB" stroke-miterlimit="10" stroke-linecap="round" stroke-linejoin="round"/>
<path d="M267.647 194.547C267.647 194.547 261.565 191.826 261.789 187.526C261.86 186.124 260.964 184.334 260.964 184.334C260.964 184.334 255.071 182.944 255.896 180.588L263.958 181.354C263.958 181.354 268.048 183.58 269.804 188.445" fill="white"/>
<path d="M267.647 194.547C267.647 194.547 261.565 191.826 261.789 187.526C261.86 186.124 260.964 184.334 260.964 184.334C260.964 184.334 255.071 182.944 255.896 180.588L263.958 181.354C263.958 181.354 268.048 183.58 269.804 188.445" stroke="#002E47" stroke-miterlimit="10" stroke-linecap="round" stroke-linejoin="round"/>
<path d="M163.102 176.619H39.4844V486.885H163.102V176.619Z" fill="#E2EDFF" stroke="#B3C7EB" stroke-miterlimit="10" stroke-linecap="round" stroke-linejoin="round"/>
<path d="M120.375 203.652H36.3728C35.0763 203.652 34.0391 202.604 34.0391 201.32V179.481C34.0391 178.185 35.0881 177.149 36.3728 177.149H120.375C121.672 177.149 122.709 178.197 122.709 179.481V201.32C122.721 202.604 121.672 203.652 120.375 203.652Z" fill="#002E47" stroke="#B3C7EB" stroke-miterlimit="10" stroke-linecap="round" stroke-linejoin="round"/>
<path d="M166.2 203.652H82.197C80.9005 203.652 79.8633 202.604 79.8633 201.32V179.481C79.8633 178.185 80.9123 177.149 82.197 177.149H166.2C167.496 177.149 168.533 178.197 168.533 179.481V201.32C168.533 202.604 167.484 203.652 166.2 203.652Z" fill="#B3C7EB" stroke="#002E47" stroke-miterlimit="10" stroke-linecap="round" stroke-linejoin="round"/>
<path d="M82.1994 199.694L82.2111 181.095C82.2111 180.211 82.9301 179.493 83.8141 179.493L164.587 179.516C165.471 179.516 166.19 180.235 166.19 181.13L166.178 199.718C166.178 200.601 165.46 201.32 164.576 201.32H83.8023C82.9183 201.296 82.1876 200.578 82.1994 199.694Z" fill="#002E47"/>
<path d="M133.283 200.318H88.9894C88.129 200.318 87.4336 199.623 87.4336 198.764V194.264C87.4336 193.404 88.129 192.709 88.9894 192.709H133.283C134.144 192.709 134.839 193.404 134.839 194.264V198.764C134.839 199.623 134.144 200.318 133.283 200.318Z" fill="#39B4EF" stroke="#002E47" stroke-miterlimit="10" stroke-linecap="round" stroke-linejoin="round"/>
<path d="M142.568 191.932H98.2746C97.4142 191.932 96.7188 191.237 96.7188 190.377V185.877C96.7188 185.017 97.4142 184.322 98.2746 184.322H142.568C143.429 184.322 144.124 185.017 144.124 185.877V190.377C144.112 191.237 143.417 191.932 142.568 191.932Z" fill="#39B4EF" stroke="#002E47" stroke-miterlimit="10" stroke-linecap="round" stroke-linejoin="round"/>
<path d="M120.375 344.367H36.3728C35.0763 344.367 34.0391 343.319 34.0391 342.035V320.196C34.0391 318.9 35.0881 317.864 36.3728 317.864H120.375C121.672 317.864 122.709 318.912 122.709 320.196V342.035C122.721 343.319 121.672 344.367 120.375 344.367Z" fill="#002E47" stroke="#B3C7EB" stroke-miterlimit="10" stroke-linecap="round" stroke-linejoin="round"/>
<path d="M166.2 344.367H82.197C80.9005 344.367 79.8633 343.319 79.8633 342.035V320.196C79.8633 318.9 80.9123 317.864 82.197 317.864H166.2C167.496 317.864 168.533 318.912 168.533 320.196V342.035C168.533 343.319 167.484 344.367 166.2 344.367Z" fill="#002E47" stroke="#B3C7EB" stroke-miterlimit="10" stroke-linecap="round" stroke-linejoin="round"/>
<path d="M144.115 329.007H91.4766V333.212H144.115V329.007Z" fill="#E2EDFF" stroke="#B3C7EB" stroke-miterlimit="10" stroke-linecap="round" stroke-linejoin="round"/>
<path d="M153.353 331.116C153.353 332.293 152.398 333.248 151.219 333.248C150.041 333.248 149.086 332.293 149.086 331.116C149.086 329.938 150.041 328.984 151.219 328.984C152.398 328.984 153.353 329.938 153.353 331.116Z" fill="#39B4EF" stroke="#B3C7EB" stroke-miterlimit="10" stroke-linecap="round" stroke-linejoin="round"/>
<path d="M160.946 331.116C160.946 332.293 159.992 333.248 158.813 333.248C157.634 333.248 156.68 332.293 156.68 331.116C156.68 329.938 157.634 328.984 158.813 328.984C159.992 328.984 160.946 329.938 160.946 331.116Z" fill="#E2EDFF" stroke="#B3C7EB" stroke-miterlimit="10" stroke-linecap="round" stroke-linejoin="round"/>
<path d="M124.193 330.421H93.3945V331.822H124.193V330.421Z" fill="#39B4EF"/>
<path d="M120.375 372.508H36.3728C35.0763 372.508 34.0391 371.46 34.0391 370.176V348.337C34.0391 347.041 35.0881 346.005 36.3728 346.005H120.375C121.672 346.005 122.709 347.053 122.709 348.337V370.176C122.721 371.46 121.672 372.508 120.375 372.508Z" fill="#002E47" stroke="#B3C7EB" stroke-miterlimit="10" stroke-linecap="round" stroke-linejoin="round"/>
<path d="M166.2 372.508H82.197C80.9005 372.508 79.8633 371.46 79.8633 370.176V348.337C79.8633 347.041 80.9123 346.005 82.197 346.005H166.2C167.496 346.005 168.533 347.053 168.533 348.337V370.176C168.533 371.46 167.484 372.508 166.2 372.508Z" fill="#002E47" stroke="#B3C7EB" stroke-miterlimit="10" stroke-linecap="round" stroke-linejoin="round"/>
<path d="M144.115 357.148H91.4766V361.353H144.115V357.148Z" fill="#E2EDFF" stroke="#B3C7EB" stroke-miterlimit="10" stroke-linecap="round" stroke-linejoin="round"/>
<path d="M151.219 361.388C152.398 361.388 153.353 360.434 153.353 359.256C153.353 358.079 152.398 357.124 151.219 357.124C150.041 357.124 149.086 358.079 149.086 359.256C149.086 360.434 150.041 361.388 151.219 361.388Z" fill="#39B4EF" stroke="#B3C7EB" stroke-miterlimit="10" stroke-linecap="round" stroke-linejoin="round"/>
<path d="M160.946 359.256C160.946 360.434 159.992 361.388 158.813 361.388C157.634 361.388 156.68 360.434 156.68 359.256C156.68 358.078 157.634 357.124 158.813 357.124C159.992 357.124 160.946 358.078 160.946 359.256Z" fill="#E2EDFF" stroke="#B3C7EB" stroke-miterlimit="10" stroke-linecap="round" stroke-linejoin="round"/>
<path d="M124.193 358.561H93.3945V359.951H124.193V358.561Z" fill="#39B4EF"/>
<path d="M120.375 400.649H36.3728C35.0763 400.649 34.0391 399.6 34.0391 398.316V376.478C34.0391 375.182 35.0881 374.145 36.3728 374.145H120.375C121.672 374.145 122.709 375.194 122.709 376.478V398.316C122.721 399.612 121.672 400.649 120.375 400.649Z" fill="#002E47" stroke="#B3C7EB" stroke-miterlimit="10" stroke-linecap="round" stroke-linejoin="round"/>
<path d="M166.2 400.649H82.197C80.9005 400.649 79.8633 399.6 79.8633 398.316V376.478C79.8633 375.182 80.9123 374.145 82.197 374.145H166.2C167.496 374.145 168.533 375.194 168.533 376.478V398.316C168.533 399.612 167.484 400.649 166.2 400.649Z" fill="#002E47" stroke="#B3C7EB" stroke-miterlimit="10" stroke-linecap="round" stroke-linejoin="round"/>
<path d="M144.115 385.288H91.4766V389.494H144.115V385.288Z" fill="#E2EDFF" stroke="#B3C7EB" stroke-miterlimit="10" stroke-linecap="round" stroke-linejoin="round"/>
<path d="M151.219 389.529C152.398 389.529 153.353 388.574 153.353 387.397C153.353 386.219 152.398 385.265 151.219 385.265C150.041 385.265 149.086 386.219 149.086 387.397C149.086 388.574 150.041 389.529 151.219 389.529Z" fill="#39B4EF" stroke="#B3C7EB" stroke-miterlimit="10" stroke-linecap="round" stroke-linejoin="round"/>
<path d="M160.946 387.397C160.946 388.575 159.992 389.529 158.813 389.529C157.634 389.529 156.68 388.575 156.68 387.397C156.68 386.219 157.634 385.265 158.813 385.265C159.992 385.277 160.946 386.219 160.946 387.397Z" fill="#E2EDFF" stroke="#B3C7EB" stroke-miterlimit="10" stroke-linecap="round" stroke-linejoin="round"/>
<path d="M124.193 386.702H93.3945V388.092H124.193V386.702Z" fill="#39B4EF"/>
<path d="M120.375 428.789H36.3728C35.0763 428.789 34.0391 427.741 34.0391 426.457V404.618C34.0391 403.322 35.0881 402.286 36.3728 402.286H120.375C121.672 402.286 122.709 403.334 122.709 404.618V426.457C122.721 427.753 121.672 428.789 120.375 428.789Z" fill="#002E47" stroke="#B3C7EB" stroke-miterlimit="10" stroke-linecap="round" stroke-linejoin="round"/>
<path d="M166.2 428.789H82.197C80.9005 428.789 79.8633 427.741 79.8633 426.457V404.618C79.8633 403.322 80.9123 402.286 82.197 402.286H166.2C167.496 402.286 168.533 403.334 168.533 404.618V426.457C168.533 427.753 167.484 428.789 166.2 428.789Z" fill="#002E47" stroke="#B3C7EB" stroke-miterlimit="10" stroke-linecap="round" stroke-linejoin="round"/>
<path d="M144.115 413.429H91.4766V417.634H144.115V413.429Z" fill="#E2EDFF" stroke="#B3C7EB" stroke-miterlimit="10" stroke-linecap="round" stroke-linejoin="round"/>
<path d="M153.353 415.538C153.353 416.715 152.398 417.67 151.219 417.67C150.041 417.67 149.086 416.715 149.086 415.538C149.086 414.36 150.041 413.406 151.219 413.406C152.398 413.417 153.353 414.371 153.353 415.538Z" fill="#39B4EF" stroke="#B3C7EB" stroke-miterlimit="10" stroke-linecap="round" stroke-linejoin="round"/>
<path d="M160.946 415.538C160.946 416.715 159.992 417.67 158.813 417.67C157.634 417.67 156.68 416.715 156.68 415.538C156.68 414.36 157.634 413.406 158.813 413.406C159.992 413.417 160.946 414.371 160.946 415.538Z" fill="#E2EDFF" stroke="#B3C7EB" stroke-miterlimit="10" stroke-linecap="round" stroke-linejoin="round"/>
<path d="M124.193 414.843H93.3945V416.244H124.193V414.843Z" fill="#39B4EF"/>
<path d="M120.375 456.942H36.3728C35.0763 456.942 34.0391 455.893 34.0391 454.61V432.771C34.0391 431.475 35.0881 430.438 36.3728 430.438H120.375C121.672 430.438 122.709 431.487 122.709 432.771V454.61C122.721 455.893 121.672 456.942 120.375 456.942Z" fill="#002E47" stroke="#B3C7EB" stroke-miterlimit="10" stroke-linecap="round" stroke-linejoin="round"/>
<path d="M166.2 456.942H82.197C80.9005 456.942 79.8633 455.893 79.8633 454.61V432.771C79.8633 431.475 80.9123 430.438 82.197 430.438H166.2C167.496 430.438 168.533 431.487 168.533 432.771V454.61C168.533 455.893 167.484 456.942 166.2 456.942Z" fill="#002E47" stroke="#B3C7EB" stroke-miterlimit="10" stroke-linecap="round" stroke-linejoin="round"/>
<path d="M144.115 441.582H91.4766V445.787H144.115V441.582Z" fill="#E2EDFF" stroke="#B3C7EB" stroke-miterlimit="10" stroke-linecap="round" stroke-linejoin="round"/>
<path d="M151.219 445.81C152.398 445.81 153.353 444.856 153.353 443.678C153.353 442.501 152.398 441.546 151.219 441.546C150.041 441.546 149.086 442.501 149.086 443.678C149.086 444.856 150.041 445.81 151.219 445.81Z" fill="#39B4EF" stroke="#B3C7EB" stroke-miterlimit="10" stroke-linecap="round" stroke-linejoin="round"/>
<path d="M160.946 443.678C160.946 444.856 159.992 445.81 158.813 445.81C157.634 445.81 156.68 444.856 156.68 443.678C156.68 442.501 157.634 441.546 158.813 441.546C159.992 441.558 160.946 442.512 160.946 443.678Z" fill="#E2EDFF" stroke="#B3C7EB" stroke-miterlimit="10" stroke-linecap="round" stroke-linejoin="round"/>
<path d="M124.193 442.983H93.3945V444.373H124.193V442.983Z" fill="#39B4EF"/>
<path d="M120.375 485.082H36.3728C35.0763 485.082 34.0391 484.034 34.0391 482.75V460.911C34.0391 459.616 35.0881 458.579 36.3728 458.579H120.375C121.672 458.579 122.709 459.627 122.709 460.911V482.75C122.721 484.034 121.672 485.082 120.375 485.082Z" fill="#002E47" stroke="#B3C7EB" stroke-miterlimit="10" stroke-linecap="round" stroke-linejoin="round"/>
<path d="M166.2 485.082H82.197C80.9005 485.082 79.8633 484.034 79.8633 482.75V460.911C79.8633 459.616 80.9123 458.579 82.197 458.579H166.2C167.496 458.579 168.533 459.627 168.533 460.911V482.75C168.533 484.034 167.484 485.082 166.2 485.082Z" fill="#002E47" stroke="#B3C7EB" stroke-miterlimit="10" stroke-linecap="round" stroke-linejoin="round"/>
<path d="M144.115 469.722H91.4766V473.928H144.115V469.722Z" fill="#E2EDFF" stroke="#B3C7EB" stroke-miterlimit="10" stroke-linecap="round" stroke-linejoin="round"/>
<path d="M151.219 473.963C152.398 473.963 153.353 473.008 153.353 471.831C153.353 470.653 152.398 469.699 151.219 469.699C150.041 469.699 149.086 470.653 149.086 471.831C149.086 473.008 150.041 473.963 151.219 473.963Z" fill="#39B4EF" stroke="#B3C7EB" stroke-miterlimit="10" stroke-linecap="round" stroke-linejoin="round"/>
<path d="M160.946 471.831C160.946 473.009 159.992 473.963 158.813 473.963C157.634 473.963 156.68 473.009 156.68 471.831C156.68 470.653 157.634 469.699 158.813 469.699C159.992 469.699 160.946 470.653 160.946 471.831Z" fill="#E2EDFF" stroke="#B3C7EB" stroke-miterlimit="10" stroke-linecap="round" stroke-linejoin="round"/>
<path d="M124.193 471.124H93.3945V472.514H124.193V471.124Z" fill="#39B4EF"/>
<path d="M120.375 316.227H36.3728C35.0763 316.227 34.0391 315.178 34.0391 313.894V292.055C34.0391 290.76 35.0881 289.723 36.3728 289.723H120.375C121.672 289.723 122.709 290.772 122.709 292.055V313.894C122.721 315.178 121.672 316.227 120.375 316.227Z" fill="#002E47" stroke="#B3C7EB" stroke-miterlimit="10" stroke-linecap="round" stroke-linejoin="round"/>
<path d="M166.2 316.227H82.197C80.9005 316.227 79.8633 315.178 79.8633 313.894V292.055C79.8633 290.76 80.9123 289.723 82.197 289.723H166.2C167.496 289.723 168.533 290.772 168.533 292.055V313.894C168.533 315.178 167.484 316.227 166.2 316.227Z" fill="#B3C7EB" stroke="#002E47" stroke-miterlimit="10" stroke-linecap="round" stroke-linejoin="round"/>
<path d="M82.1994 312.257L82.2111 293.657C82.2111 292.774 82.9301 292.055 83.8141 292.055L164.587 292.079C165.471 292.079 166.19 292.797 166.19 293.693L166.178 312.28C166.178 313.164 165.46 313.882 164.576 313.882H83.8023C82.9183 313.871 82.1876 313.152 82.1994 312.257Z" fill="#002E47"/>
<path d="M133.283 312.893H88.9894C88.129 312.893 87.4336 312.198 87.4336 311.338V306.838C87.4336 305.979 88.129 305.284 88.9894 305.284H133.283C134.144 305.284 134.839 305.979 134.839 306.838V311.338C134.839 312.198 134.144 312.893 133.283 312.893Z" fill="#39B4EF" stroke="#002E47" stroke-miterlimit="10" stroke-linecap="round" stroke-linejoin="round"/>
<path d="M159.46 312.893H138.728C137.867 312.893 137.172 312.198 137.172 311.338V306.838C137.172 305.979 137.867 305.284 138.728 305.284H159.448C160.309 305.284 161.004 305.979 161.004 306.838V311.338C161.016 312.198 160.309 312.893 159.46 312.893Z" fill="#39B4EF" stroke="#002E47" stroke-miterlimit="10" stroke-linecap="round" stroke-linejoin="round"/>
<path d="M114.812 305.213H94.091C93.2306 305.213 92.5352 304.518 92.5352 303.658V299.158C92.5352 298.299 93.2306 297.604 94.091 297.604H114.812C115.672 297.604 116.368 298.299 116.368 299.158V303.658C116.368 304.518 115.672 305.213 114.812 305.213Z" fill="#39B4EF" stroke="#002E47" stroke-miterlimit="10" stroke-linecap="round" stroke-linejoin="round"/>
<path d="M120.375 288.086H36.3728C35.0763 288.086 34.0391 287.038 34.0391 285.754V263.915C34.0391 262.619 35.0881 261.583 36.3728 261.583H120.375C121.672 261.583 122.709 262.631 122.709 263.915V285.754C122.721 287.038 121.672 288.086 120.375 288.086Z" fill="#002E47" stroke="#B3C7EB" stroke-miterlimit="10" stroke-linecap="round" stroke-linejoin="round"/>
<path d="M166.2 288.086H82.197C80.9005 288.086 79.8633 287.038 79.8633 285.754V263.915C79.8633 262.619 80.9123 261.583 82.197 261.583H166.2C167.496 261.583 168.533 262.631 168.533 263.915V285.754C168.533 287.038 167.484 288.086 166.2 288.086Z" fill="#B3C7EB" stroke="#002E47" stroke-miterlimit="10" stroke-linecap="round" stroke-linejoin="round"/>
<path d="M82.1994 284.116L82.2111 265.517C82.2111 264.633 82.9301 263.915 83.8141 263.915L164.587 263.938C165.471 263.938 166.19 264.657 166.19 265.552L166.178 284.14C166.178 285.023 165.46 285.742 164.576 285.742H83.8023C82.9183 285.73 82.1876 285.011 82.1994 284.116Z" fill="#002E47"/>
<path d="M133.999 284.741H113.267C112.406 284.741 111.711 284.046 111.711 283.186V278.686C111.711 277.826 112.406 277.131 113.267 277.131H133.987C134.848 277.131 135.543 277.826 135.543 278.686V283.186C135.555 284.046 134.86 284.741 133.999 284.741Z" fill="#39B4EF" stroke="#002E47" stroke-miterlimit="10" stroke-linecap="round" stroke-linejoin="round"/>
<path d="M159.46 284.741H138.728C137.867 284.741 137.172 284.046 137.172 283.186V278.686C137.172 277.826 137.867 277.131 138.728 277.131H159.448C160.309 277.131 161.004 277.826 161.004 278.686V283.186C161.016 284.046 160.309 284.741 159.46 284.741Z" fill="#39B4EF" stroke="#002E47" stroke-miterlimit="10" stroke-linecap="round" stroke-linejoin="round"/>
<path d="M108.991 284.741H88.2707C87.4102 284.741 86.7148 284.046 86.7148 283.186V278.686C86.7148 277.826 87.4102 277.131 88.2707 277.131H108.991C109.852 277.131 110.547 277.826 110.547 278.686V283.186C110.547 284.046 109.84 284.741 108.991 284.741Z" fill="#39B4EF" stroke="#002E47" stroke-miterlimit="10" stroke-linecap="round" stroke-linejoin="round"/>
<path d="M127.636 276.589H106.915C106.055 276.589 105.359 275.894 105.359 275.034V270.535C105.359 269.675 106.055 268.98 106.915 268.98H127.636C128.496 268.98 129.192 269.675 129.192 270.535V275.034C129.192 275.894 128.496 276.589 127.636 276.589Z" fill="#39B4EF" stroke="#002E47" stroke-miterlimit="10" stroke-linecap="round" stroke-linejoin="round"/>
<path d="M120.375 259.945H36.3728C35.0763 259.945 34.0391 258.897 34.0391 257.613V235.774C34.0391 234.478 35.0881 233.442 36.3728 233.442H120.375C121.672 233.442 122.709 234.49 122.709 235.774V257.613C122.721 258.897 121.672 259.945 120.375 259.945Z" fill="#002E47" stroke="#B3C7EB" stroke-miterlimit="10" stroke-linecap="round" stroke-linejoin="round"/>
<path d="M166.2 259.945H82.197C80.9005 259.945 79.8633 258.897 79.8633 257.613V235.774C79.8633 234.478 80.9123 233.442 82.197 233.442H166.2C167.496 233.442 168.533 234.49 168.533 235.774V257.613C168.533 258.897 167.484 259.945 166.2 259.945Z" fill="#B3C7EB" stroke="#002E47" stroke-miterlimit="10" stroke-linecap="round" stroke-linejoin="round"/>
<path d="M82.1994 255.976L82.2111 237.376C82.2111 236.493 82.9301 235.774 83.8141 235.774L164.587 235.798C165.471 235.798 166.19 236.516 166.19 237.411L166.178 255.999C166.178 256.883 165.46 257.601 164.576 257.601H83.8023C82.9183 257.589 82.1876 256.859 82.1994 255.976Z" fill="#002E47"/>
<path d="M148.604 256.6H104.31C103.449 256.6 102.754 255.905 102.754 255.045V250.545C102.754 249.685 103.449 248.99 104.31 248.99H148.604C149.464 248.99 150.159 249.685 150.159 250.545V255.045C150.159 255.905 149.464 256.6 148.604 256.6Z" fill="#39B4EF" stroke="#002E47" stroke-miterlimit="10" stroke-linecap="round" stroke-linejoin="round"/>
<path d="M142.568 248.213H98.2746C97.4142 248.213 96.7188 247.518 96.7188 246.658V246.87C96.7188 246.01 97.4142 245.315 98.2746 245.315H142.568C143.429 245.315 144.124 246.01 144.124 246.87V246.658C144.112 247.518 143.417 248.213 142.568 248.213Z" fill="#39B4EF" stroke="#002E47" stroke-miterlimit="10" stroke-linecap="round" stroke-linejoin="round"/>
<path d="M120.375 231.793H36.3728C35.0763 231.793 34.0391 230.744 34.0391 229.46V207.622C34.0391 206.326 35.0881 205.289 36.3728 205.289H120.375C121.672 205.289 122.709 206.338 122.709 207.622V229.46C122.721 230.756 121.672 231.793 120.375 231.793Z" fill="#002E47" stroke="#B3C7EB" stroke-miterlimit="10" stroke-linecap="round" stroke-linejoin="round"/>
<path d="M166.2 231.793H82.197C80.9005 231.793 79.8633 230.744 79.8633 229.46V207.622C79.8633 206.326 80.9123 205.289 82.197 205.289H166.2C167.496 205.289 168.533 206.338 168.533 207.622V229.46C168.533 230.756 167.484 231.793 166.2 231.793Z" fill="#B3C7EB" stroke="#002E47" stroke-miterlimit="10" stroke-linecap="round" stroke-linejoin="round"/>
<path d="M82.1994 227.835L82.2111 209.235C82.2111 208.352 82.9301 207.633 83.8141 207.633L164.587 207.657C165.471 207.657 166.19 208.376 166.19 209.271L166.178 227.858C166.178 228.742 165.46 229.46 164.576 229.46H83.8023C82.9183 229.437 82.1876 228.718 82.1994 227.835Z" fill="#002E47"/>
<path d="M156.854 228.459H112.56C111.699 228.459 111.004 227.764 111.004 226.904V222.405C111.004 221.545 111.699 220.85 112.56 220.85H156.854C157.714 220.85 158.409 221.545 158.409 222.405V226.904C158.409 227.764 157.714 228.459 156.854 228.459Z" fill="#39B4EF" stroke="#002E47" stroke-miterlimit="10" stroke-linecap="round" stroke-linejoin="round"/>
<path d="M142.57 220.072H121.849C120.988 220.072 120.293 219.377 120.293 218.517V214.018C120.293 213.158 120.988 212.463 121.849 212.463H142.57C143.43 212.463 144.125 213.158 144.125 214.018V218.517C144.114 219.377 143.418 220.072 142.57 220.072Z" fill="#39B4EF" stroke="#002E47" stroke-miterlimit="10" stroke-linecap="round" stroke-linejoin="round"/>
<path d="M39.082 193.946V200.318" stroke="#B3C7EB" stroke-miterlimit="10" stroke-linecap="round" stroke-linejoin="round"/>
<path d="M41.1094 193.946V200.318" stroke="#B3C7EB" stroke-miterlimit="10" stroke-linecap="round" stroke-linejoin="round"/>
<path d="M43.125 193.946V200.318" stroke="#B3C7EB" stroke-miterlimit="10" stroke-linecap="round" stroke-linejoin="round"/>
<path d="M45.1523 193.946V200.318" stroke="#B3C7EB" stroke-miterlimit="10" stroke-linecap="round" stroke-linejoin="round"/>
<path d="M47.168 193.946V200.318" stroke="#B3C7EB" stroke-miterlimit="10" stroke-linecap="round" stroke-linejoin="round"/>
<path d="M39.082 475.471V481.843" stroke="#B3C7EB" stroke-miterlimit="10" stroke-linecap="round" stroke-linejoin="round"/>
<path d="M41.1094 475.471V481.843" stroke="#B3C7EB" stroke-miterlimit="10" stroke-linecap="round" stroke-linejoin="round"/>
<path d="M43.125 475.471V481.843" stroke="#B3C7EB" stroke-miterlimit="10" stroke-linecap="round" stroke-linejoin="round"/>
<path d="M45.1523 475.471V481.843" stroke="#B3C7EB" stroke-miterlimit="10" stroke-linecap="round" stroke-linejoin="round"/>
<path d="M47.168 475.471V481.843" stroke="#B3C7EB" stroke-miterlimit="10" stroke-linecap="round" stroke-linejoin="round"/>
<path d="M39.082 447.318V453.691" stroke="#B3C7EB" stroke-miterlimit="10" stroke-linecap="round" stroke-linejoin="round"/>
<path d="M41.1094 447.318V453.691" stroke="#B3C7EB" stroke-miterlimit="10" stroke-linecap="round" stroke-linejoin="round"/>
<path d="M43.125 447.318V453.691" stroke="#B3C7EB" stroke-miterlimit="10" stroke-linecap="round" stroke-linejoin="round"/>
<path d="M45.1523 447.318V453.691" stroke="#B3C7EB" stroke-miterlimit="10" stroke-linecap="round" stroke-linejoin="round"/>
<path d="M47.168 447.318V453.691" stroke="#B3C7EB" stroke-miterlimit="10" stroke-linecap="round" stroke-linejoin="round"/>
<path d="M39.082 419.166V425.538" stroke="#B3C7EB" stroke-miterlimit="10" stroke-linecap="round" stroke-linejoin="round"/>
<path d="M41.1094 419.166V425.538" stroke="#B3C7EB" stroke-miterlimit="10" stroke-linecap="round" stroke-linejoin="round"/>
<path d="M43.125 419.166V425.538" stroke="#B3C7EB" stroke-miterlimit="10" stroke-linecap="round" stroke-linejoin="round"/>
<path d="M45.1523 419.166V425.538" stroke="#B3C7EB" stroke-miterlimit="10" stroke-linecap="round" stroke-linejoin="round"/>
<path d="M47.168 419.166V425.538" stroke="#B3C7EB" stroke-miterlimit="10" stroke-linecap="round" stroke-linejoin="round"/>
<path d="M39.082 391.013V397.386" stroke="#B3C7EB" stroke-miterlimit="10" stroke-linecap="round" stroke-linejoin="round"/>
<path d="M41.1094 391.013V397.386" stroke="#B3C7EB" stroke-miterlimit="10" stroke-linecap="round" stroke-linejoin="round"/>
<path d="M43.125 391.013V397.386" stroke="#B3C7EB" stroke-miterlimit="10" stroke-linecap="round" stroke-linejoin="round"/>
<path d="M45.1523 391.013V397.386" stroke="#B3C7EB" stroke-miterlimit="10" stroke-linecap="round" stroke-linejoin="round"/>
<path d="M47.168 391.013V397.386" stroke="#B3C7EB" stroke-miterlimit="10" stroke-linecap="round" stroke-linejoin="round"/>
<path d="M39.082 362.861V369.233" stroke="#B3C7EB" stroke-miterlimit="10" stroke-linecap="round" stroke-linejoin="round"/>
<path d="M41.1094 362.861V369.233" stroke="#B3C7EB" stroke-miterlimit="10" stroke-linecap="round" stroke-linejoin="round"/>
<path d="M43.125 362.861V369.233" stroke="#B3C7EB" stroke-miterlimit="10" stroke-linecap="round" stroke-linejoin="round"/>
<path d="M45.1523 362.861V369.233" stroke="#B3C7EB" stroke-miterlimit="10" stroke-linecap="round" stroke-linejoin="round"/>
<path d="M47.168 362.861V369.233" stroke="#B3C7EB" stroke-miterlimit="10" stroke-linecap="round" stroke-linejoin="round"/>
<path d="M39.082 334.708V341.081" stroke="#B3C7EB" stroke-miterlimit="10" stroke-linecap="round" stroke-linejoin="round"/>
<path d="M41.1094 334.708V341.081" stroke="#B3C7EB" stroke-miterlimit="10" stroke-linecap="round" stroke-linejoin="round"/>
<path d="M43.125 334.708V341.081" stroke="#B3C7EB" stroke-miterlimit="10" stroke-linecap="round" stroke-linejoin="round"/>
<path d="M45.1523 334.708V341.081" stroke="#B3C7EB" stroke-miterlimit="10" stroke-linecap="round" stroke-linejoin="round"/>
<path d="M47.168 334.708V341.081" stroke="#B3C7EB" stroke-miterlimit="10" stroke-linecap="round" stroke-linejoin="round"/>
<path d="M39.082 306.556V312.928" stroke="#B3C7EB" stroke-miterlimit="10" stroke-linecap="round" stroke-linejoin="round"/>
<path d="M41.1094 306.556V312.928" stroke="#B3C7EB" stroke-miterlimit="10" stroke-linecap="round" stroke-linejoin="round"/>
<path d="M43.125 306.556V312.928" stroke="#B3C7EB" stroke-miterlimit="10" stroke-linecap="round" stroke-linejoin="round"/>
<path d="M45.1523 306.556V312.928" stroke="#B3C7EB" stroke-miterlimit="10" stroke-linecap="round" stroke-linejoin="round"/>
<path d="M47.168 306.556V312.928" stroke="#B3C7EB" stroke-miterlimit="10" stroke-linecap="round" stroke-linejoin="round"/>
<path d="M39.082 278.403V284.776" stroke="#B3C7EB" stroke-miterlimit="10" stroke-linecap="round" stroke-linejoin="round"/>
<path d="M41.1094 278.403V284.776" stroke="#B3C7EB" stroke-miterlimit="10" stroke-linecap="round" stroke-linejoin="round"/>
<path d="M43.125 278.403V284.776" stroke="#B3C7EB" stroke-miterlimit="10" stroke-linecap="round" stroke-linejoin="round"/>
<path d="M45.1523 278.403V284.776" stroke="#B3C7EB" stroke-miterlimit="10" stroke-linecap="round" stroke-linejoin="round"/>
<path d="M47.168 278.403V284.776" stroke="#B3C7EB" stroke-miterlimit="10" stroke-linecap="round" stroke-linejoin="round"/>
<path d="M39.082 250.251V256.623" stroke="#B3C7EB" stroke-miterlimit="10" stroke-linecap="round" stroke-linejoin="round"/>
<path d="M41.1094 250.251V256.623" stroke="#B3C7EB" stroke-miterlimit="10" stroke-linecap="round" stroke-linejoin="round"/>
<path d="M43.125 250.251V256.623" stroke="#B3C7EB" stroke-miterlimit="10" stroke-linecap="round" stroke-linejoin="round"/>
<path d="M45.1523 250.251V256.623" stroke="#B3C7EB" stroke-miterlimit="10" stroke-linecap="round" stroke-linejoin="round"/>
<path d="M47.168 250.251V256.623" stroke="#B3C7EB" stroke-miterlimit="10" stroke-linecap="round" stroke-linejoin="round"/>
<path d="M39.082 222.098V228.471" stroke="#B3C7EB" stroke-miterlimit="10" stroke-linecap="round" stroke-linejoin="round"/>
<path d="M41.1094 222.098V228.471" stroke="#B3C7EB" stroke-miterlimit="10" stroke-linecap="round" stroke-linejoin="round"/>
<path d="M43.125 222.098V228.471" stroke="#B3C7EB" stroke-miterlimit="10" stroke-linecap="round" stroke-linejoin="round"/>
<path d="M45.1523 222.098V228.471" stroke="#B3C7EB" stroke-miterlimit="10" stroke-linecap="round" stroke-linejoin="round"/>
<path d="M47.168 222.098V228.471" stroke="#B3C7EB" stroke-miterlimit="10" stroke-linecap="round" stroke-linejoin="round"/>
</svg>
