<svg width="431" height="393" viewBox="0 0 431 393" fill="none" xmlns="http://www.w3.org/2000/svg">
<path d="M396.489 136.431C382.547 106.41 361.694 79.6452 342.159 52.8803C313.462 13.5607 234.909 -12.9057 171.462 17.3416C108.015 47.5889 114.06 96.7407 94.4167 136.06C74.7828 175.38 18.1307 213.94 9.81808 254.019C-2.97607 315.735 6.69182 359.062 78.5505 384.831C133.079 404.387 192.117 367.447 245.48 358.365C280.872 352.341 319.607 356.945 353.625 342.735C395.441 325.269 409.59 271.82 412.906 230.565C414.406 211.887 413.34 192.973 409.464 174.629C406.627 161.224 402.127 148.561 396.489 136.431Z" fill="#39B4EF"/>
<path opacity="0.7" d="M396.489 136.431C382.547 106.41 361.694 79.6452 342.159 52.8803C313.462 13.5607 234.909 -12.9057 171.462 17.3416C108.015 47.5889 114.06 96.7407 94.4167 136.06C74.7828 175.38 18.1307 213.94 9.81808 254.019C-2.97607 315.735 6.69182 359.062 78.5505 384.831C133.079 404.387 192.117 367.447 245.48 358.365C280.872 352.341 319.607 356.945 353.625 342.735C395.441 325.269 409.59 271.82 412.906 230.565C414.406 211.887 413.34 192.973 409.464 174.629C406.627 161.224 402.127 148.561 396.489 136.431Z" fill="white"/>
<g opacity="0.2">
<path d="M381.038 38.6883H258.237C254.578 38.6883 251.605 35.7124 251.605 32.0491V28.6752C251.605 25.0119 254.578 22.036 258.237 22.036H381.038C384.697 22.036 387.67 25.0119 387.67 28.6752V32.0491C387.67 35.7215 384.697 38.6883 381.038 38.6883Z" stroke="#002E47" stroke-miterlimit="10" stroke-linejoin="round"/>
<path d="M366.691 25.8802V33.6682" stroke="#002E47" stroke-width="0.5" stroke-miterlimit="10" stroke-linejoin="round"/>
<path d="M360.643 25.9526L353.352 33.2521" stroke="#002E47" stroke-miterlimit="10" stroke-linejoin="round"/>
<path d="M353.352 25.9526L360.643 33.2521" stroke="#002E47" stroke-miterlimit="10" stroke-linejoin="round"/>
<path d="M379.43 33.4601C379.213 33.7315 378.806 33.7586 378.553 33.5325L375.562 30.8099L376.132 30.1224L379.339 32.5827C379.61 32.7908 379.656 33.1888 379.43 33.4601Z" fill="#002E47" stroke="#002E47" stroke-miterlimit="10" stroke-linejoin="round"/>
<path d="M371.749 27.0742C370.755 28.2772 370.927 30.0591 372.119 31.0541C373.321 32.0491 375.101 31.8772 376.095 30.6832C377.089 29.4802 376.917 27.6983 375.724 26.7033C374.523 25.6993 372.743 25.8712 371.749 27.0742ZM375.788 30.4119C374.938 31.443 373.411 31.5878 372.39 30.7285C371.36 29.8782 371.216 28.3496 372.074 27.3275C372.932 26.3053 374.45 26.1516 375.471 27.0109C376.492 27.8611 376.637 29.3898 375.788 30.4119Z" stroke="#002E47" stroke-miterlimit="10" stroke-linejoin="round"/>
</g>
<path d="M125.895 52.1476C124.73 53.5587 122.634 53.7215 121.269 52.5185L106.668 39.222C107.264 38.7064 107.834 38.1275 108.358 37.4944C108.882 36.8702 109.342 36.2099 109.731 35.5225L125.389 47.5255C126.835 48.6471 127.061 50.7456 125.895 52.1476Z" stroke="#B3C7EB" stroke-miterlimit="10" stroke-linejoin="round"/>
<path d="M106.335 16.627C108.096 18.0561 109.551 19.8742 110.473 21.9546C113.012 27.6441 111.485 34.8803 106.868 39.0501C102.25 43.22 94.8957 44.0069 89.5105 40.9044C83.8995 37.6753 80.8817 30.5205 82.5533 24.2521C84.0983 18.4813 89.3931 13.8772 95.3384 13.2441C99.2688 12.8189 103.281 14.1486 106.335 16.627ZM106.705 36.1285C102.232 41.5376 94.227 42.2883 88.8238 37.8109C83.4116 33.3335 82.6617 25.3104 87.1342 19.9014C91.6158 14.4923 99.6212 13.7416 105.024 18.2189C110.428 22.6963 111.177 30.7195 106.705 36.1285Z" stroke="#B3C7EB" stroke-miterlimit="10" stroke-linejoin="round"/>
<path d="M340.19 379.784C339.187 378.708 339.278 377.007 340.38 376.049L352.524 365.764C352.876 366.298 353.274 366.813 353.725 367.293C354.168 367.781 354.647 368.215 355.153 368.595L343.931 379.857C342.883 380.906 341.184 380.87 340.19 379.784Z" stroke="#B3C7EB" stroke-miterlimit="10" stroke-linejoin="round"/>
<path d="M370.587 367.872C369.259 369.129 367.66 370.097 365.907 370.621C361.1 372.06 355.489 370.079 352.643 365.945C349.797 361.811 349.941 355.86 352.986 351.871C356.149 347.728 362.175 346.055 367.009 348.054C371.455 349.89 374.572 354.611 374.454 359.432C374.364 362.616 372.882 365.683 370.587 367.872ZM354.983 366.117C351.134 361.974 351.378 355.489 355.516 351.645C359.654 347.782 366.133 348.026 369.982 352.169C373.831 356.321 373.587 362.797 369.449 366.651C365.31 370.504 358.832 370.26 354.983 366.117Z" stroke="#B3C7EB" stroke-miterlimit="10" stroke-linejoin="round"/>
<g opacity="0.2">
<path d="M67.5827 346.073L46.8555 366.831" stroke="#002E47" stroke-miterlimit="10" stroke-linejoin="round"/>
<path d="M46.8555 346.073L67.5827 366.831" stroke="#002E47" stroke-miterlimit="10" stroke-linejoin="round"/>
</g>
<g opacity="0.2">
<path d="M413.641 150.695L392.914 171.454" stroke="#002E47" stroke-miterlimit="10" stroke-linejoin="round"/>
<path d="M392.914 150.695L413.641 171.454" stroke="#002E47" stroke-miterlimit="10" stroke-linejoin="round"/>
</g>
<g opacity="0.2">
<path d="M35.0554 32.2029L14.3281 52.9617" stroke="#002E47" stroke-miterlimit="10" stroke-linejoin="round"/>
<path d="M14.3281 32.2029L35.0554 52.9617" stroke="#002E47" stroke-miterlimit="10" stroke-linejoin="round"/>
</g>
<path d="M53.8755 163.395C53.9298 163.395 53.1075 159.949 53.0353 159.732C52.1498 157.28 48.9964 153.065 46.087 153.165C43.9908 153.237 42.6264 155.2 42.8975 157.199C43.1776 159.243 45.075 160.926 46.7737 161.884C48.7615 162.997 53.8665 163.395 53.8755 163.395Z" fill="#002E47"/>
<path d="M58.7347 139.823C56.0241 140.9 54.8314 146.028 55.0031 148.633C55.0212 148.859 55.6537 152.351 55.6988 152.324C55.6988 152.324 55.744 152.297 55.7531 152.297C55.5543 153.102 55.3555 153.97 55.1567 154.929C54.8043 156.693 54.4158 158.691 54.1538 160.889C53.8737 163.087 53.6388 165.484 53.6117 168.035C53.5846 170.586 53.6839 173.272 54.1538 176.031C54.1628 176.058 54.1719 176.095 54.1719 176.122C53.7833 175.362 52.6358 173.254 52.5274 173.11C51.0275 170.975 46.8712 167.746 44.0883 168.614C42.0825 169.238 41.2873 171.491 42.0825 173.345C42.8957 175.244 45.1635 176.366 47.0519 176.836C49.1843 177.37 53.8556 176.502 54.2351 176.429C54.6959 179.052 55.3916 181.703 56.2319 184.344C56.7108 185.854 57.2439 187.365 57.7951 188.866C57.4427 188.215 57.1174 187.636 57.0632 187.564C55.5633 185.429 51.407 182.2 48.6241 183.068C46.6182 183.693 45.8231 185.945 46.6182 187.799C47.4224 189.699 49.6993 190.82 51.5877 191.291C53.5032 191.77 57.5059 191.11 58.5631 190.92C58.7799 191.499 58.9968 192.068 59.2136 192.647C60.2708 195.406 61.3369 198.147 62.2947 200.869C62.6381 201.828 62.9362 202.787 63.2344 203.746C62.9181 203.167 62.6471 202.688 62.6019 202.615C61.102 200.48 56.9457 197.251 54.1628 198.12C52.157 198.744 51.3618 200.996 52.157 202.85C52.9611 204.75 55.238 205.871 57.1264 206.342C58.9516 206.794 62.6561 206.224 63.912 206.007C64.1921 206.993 64.4722 207.988 64.7072 208.956C64.8517 209.625 65.0324 210.258 65.1318 210.937C65.2493 211.606 65.3668 212.266 65.4752 212.927C65.6469 214.202 65.8366 215.505 65.9721 216.753C66.0715 217.621 66.1619 218.444 66.2432 219.276C65.9179 218.318 65.2402 216.454 65.1589 216.301C64.3909 214.754 62.5296 212.547 60.5238 211.362C60.4153 211.136 60.2798 210.91 60.1262 210.711C58.9155 209.101 56.5662 208.657 55.0302 210.087C52.8888 212.067 53.6117 217.287 54.7049 219.647C54.7682 219.783 55.6356 221.221 56.2048 222.117C55.7892 221.637 55.4007 221.176 54.967 220.688C54.1267 219.72 53.2502 218.779 52.3196 217.766C51.8498 217.296 51.3799 216.816 50.901 216.328C50.4402 215.839 49.8891 215.378 49.3831 214.899C48.1814 213.813 46.9074 212.764 45.5972 211.742C46.4375 211 49.4012 208.323 50.2143 206.55C51.0275 204.777 51.5697 202.299 50.5938 200.48C49.6361 198.699 47.3863 197.912 45.6424 199.088C43.2209 200.725 43.1486 205.989 43.8805 208.495C43.9257 208.648 44.6485 210.394 45.0642 211.335C44.2781 210.729 43.492 210.114 42.6698 209.517C40.3025 207.807 37.8629 206.161 35.4234 204.497C34.6734 203.99 33.9415 203.474 33.2006 202.959C33.5078 202.697 37.0859 199.594 37.9985 197.604C38.8116 195.831 39.3538 193.353 38.3779 191.535C37.4202 189.753 35.1704 188.966 33.4356 190.142C31.0141 191.779 30.9418 197.043 31.6737 199.549C31.7279 199.739 32.7669 202.235 33.0651 202.859C31.4387 201.729 29.8214 200.589 28.2854 199.395C26.153 197.758 24.1472 196.03 22.3401 194.212C22.4846 194.095 26.2343 190.865 27.174 188.83C27.9872 187.057 28.5293 184.579 27.5535 182.761C26.5958 180.979 24.3459 180.192 22.6111 181.368C20.1896 183.005 20.1174 188.269 20.8492 190.775C20.9034 190.974 22.0329 193.66 22.2678 194.131C22.1594 194.022 22.0329 193.923 21.9335 193.814C20.018 191.851 18.4097 189.708 17.0092 187.627C16.1869 186.424 15.4731 185.221 14.8045 184.036C15.5635 183.512 19.015 181.051 20.0631 179.315C21.0661 177.641 21.8793 175.235 21.1113 173.327C20.3613 171.454 18.2109 170.423 16.3496 171.4C13.7655 172.757 13.1149 177.985 13.5667 180.554C13.5938 180.69 13.9913 182.082 14.2985 183.096C14.0004 182.553 13.6932 182.01 13.4221 181.486C12.3921 179.532 11.5789 177.677 10.8651 176.031C10.4675 175.091 10.1242 174.231 9.81697 173.426C10.2958 172.522 12.1662 168.831 12.2927 166.841C12.4101 164.897 12.0307 162.391 10.4675 161.043C8.94054 159.732 6.55519 159.804 5.35347 161.532C3.68192 163.929 5.51611 168.867 7.09731 170.939C7.23284 171.12 9.69048 173.679 9.71758 173.634C9.71758 173.634 9.74469 173.589 9.74469 173.58C10.0248 174.358 10.341 175.199 10.7024 176.104C11.3801 177.768 12.1571 179.649 13.151 181.63C14.1359 183.62 15.2563 185.746 16.6387 187.88C18.0211 190.024 19.5933 192.213 21.4907 194.248C21.5088 194.275 21.5359 194.294 21.563 194.312C20.8221 193.887 18.7078 192.774 18.5362 192.702C16.1056 191.752 10.8651 191.345 9.02186 193.615C7.69365 195.243 8.27191 197.559 9.9525 198.671C11.6692 199.802 14.1901 199.486 16.0243 198.834C18.0934 198.102 21.5178 194.791 21.7889 194.529C23.6231 196.455 25.6561 198.283 27.8155 200.028C29.0534 201.023 30.3274 201.991 31.6194 202.941C30.9689 202.597 30.3816 202.29 30.2912 202.253C27.8607 201.304 22.6202 200.897 20.7769 203.167C19.4487 204.795 20.027 207.111 21.7076 208.223C23.4243 209.354 25.9452 209.037 27.7794 208.386C29.6407 207.726 32.6133 204.967 33.3904 204.225C33.8873 204.587 34.3843 204.949 34.8812 205.311C37.2847 207.029 39.679 208.73 41.9921 210.466C42.8053 211.082 43.5823 211.715 44.3594 212.348C43.7811 212.04 43.2842 211.787 43.2119 211.76C40.7814 210.81 35.5408 210.403 33.6976 212.673C32.3694 214.302 32.9477 216.617 34.6282 217.73C36.345 218.86 38.8659 218.544 40.7 217.893C42.48 217.259 45.2449 214.736 46.1755 213.858C46.9526 214.528 47.7386 215.197 48.4615 215.885C48.9494 216.364 49.4463 216.789 49.9071 217.296C50.377 217.793 50.8378 218.282 51.2896 218.761C52.1389 219.729 53.0153 220.715 53.8195 221.673C54.3797 222.334 54.9037 222.985 55.4368 223.627C54.6327 223.003 53.0424 221.827 52.8979 221.746C50.639 220.443 45.5159 219.24 43.3565 221.203C41.7933 222.614 42.0192 224.993 43.5191 226.341C45.0461 227.725 47.585 227.788 49.4915 227.426C51.5968 227.028 55.3374 224.396 55.8073 224.07C56.6837 225.147 57.515 226.196 58.292 227.2C59.313 228.521 60.2437 229.76 61.093 230.918C61.6442 230.827 62.3308 230.701 63.1169 230.556C62.0869 229.208 60.9304 227.716 59.6383 226.124C58.7528 225.029 57.7951 223.881 56.7921 222.705C57.0271 222.424 58.3733 220.832 59.4485 219.177C61.5267 219.91 65.7914 219.801 66.3426 219.783C66.4781 221.158 66.5956 222.497 66.695 223.763C66.8576 225.952 66.966 227.951 67.0473 229.733C67.6437 229.597 68.2491 229.452 68.8815 229.299C68.7731 227.589 68.6195 225.69 68.4207 223.618C68.2852 222.216 68.1135 220.724 67.9328 219.195C68.4749 219.041 72.8661 217.748 74.5016 216.355C75.9834 215.089 77.5104 213.062 77.3929 211.009C77.2754 208.992 75.5587 207.337 73.4806 207.671C70.5983 208.142 68.3304 212.891 67.9418 215.468C67.9147 215.622 67.8515 217.296 67.8334 218.363C67.7521 217.739 67.6798 217.133 67.5895 216.491C67.4178 215.215 67.21 213.958 66.9931 212.592C66.8666 211.941 66.7311 211.281 66.6046 210.611C66.4871 209.951 66.2793 209.263 66.1257 208.576C65.7191 207.002 65.2402 205.428 64.7072 203.854C65.8185 203.701 69.758 203.104 71.4205 202.072C73.074 201.041 74.8901 199.277 75.0798 197.224C75.2605 195.216 73.8239 193.317 71.7187 193.335C68.8002 193.362 65.8366 197.713 65.0595 200.2C65.0144 200.354 64.6529 202.208 64.4813 203.221C64.156 202.28 63.8398 201.331 63.4874 200.39C62.4573 197.658 61.3279 194.927 60.2075 192.204C59.8642 191.372 59.5389 190.531 59.2046 189.699C59.6021 189.653 64.3006 189.038 66.1619 187.88C67.8153 186.849 69.6405 185.086 69.8212 183.032C70.0019 181.024 68.5653 179.125 66.46 179.143C63.5416 179.17 60.578 183.521 59.8009 186.008C59.7467 186.198 59.2317 188.857 59.1413 189.536C58.4095 187.691 57.6866 185.854 57.0632 184.009C56.1868 181.467 55.473 178.917 54.9579 176.402C55.1386 176.375 60.0539 175.769 61.9514 174.584C63.6048 173.553 65.43 171.789 65.6107 169.736C65.7914 167.728 64.3548 165.828 62.2495 165.846C59.3311 165.873 56.3675 170.224 55.5904 172.712C55.5272 172.911 54.9851 175.769 54.9218 176.294C54.8947 176.14 54.8405 175.995 54.8134 175.841C54.2984 173.146 54.1357 170.468 54.1086 167.963C54.0905 166.507 54.1538 165.105 54.2441 163.748C55.1658 163.73 59.3943 163.585 61.2285 162.708C62.9814 161.866 64.9873 160.311 65.4029 158.294C65.8095 156.313 64.5807 154.268 62.4935 154.06C59.5931 153.762 56.1687 157.769 55.1296 160.157C55.0754 160.283 54.6417 161.667 54.3435 162.68C54.3977 162.065 54.4339 161.432 54.4971 160.853C54.723 158.655 55.0573 156.656 55.3736 154.893C55.5633 153.888 55.7531 152.984 55.9338 152.143C56.8283 151.645 60.4244 149.61 61.6261 148.018C62.8007 146.462 63.8578 144.156 63.2976 142.175C62.7194 140.303 60.6864 139.045 58.7347 139.823Z" fill="#002E47"/>
<path d="M7.53173 186.587C9.80865 186.415 14.2812 183.928 14.2902 183.928C14.3354 183.901 11.7513 181.476 11.5706 181.341C9.48338 179.785 4.53197 178.003 2.15565 179.704C0.447956 180.925 0.393744 183.313 1.72195 184.832C3.07726 186.37 5.58911 186.723 7.53173 186.587Z" fill="#002E47"/>
<path d="M203.474 45.0652C203.51 45.1195 205.977 41.9175 206.103 41.6913C207.639 39.1496 209.103 33.3245 206.916 30.819C205.344 29.0099 202.634 29.218 201.061 30.8913C199.453 32.6009 199.327 35.4953 199.706 37.6843C200.149 40.2531 203.465 45.0652 203.474 45.0652Z" fill="#002E47"/>
<path d="M227.789 32.4562C224.888 30.828 219.503 33.4511 217.326 35.4682C217.136 35.6401 214.507 38.7155 214.57 38.7336C214.57 38.7336 214.624 38.7516 214.633 38.7607C213.775 39.1677 212.871 39.6109 211.887 40.1265C210.07 41.0763 208.037 42.1707 205.896 43.5094C203.755 44.8391 201.469 46.3496 199.201 48.1587C196.924 49.9677 194.62 51.9848 192.524 54.3728C192.497 54.3999 192.478 54.427 192.451 54.4542C192.849 53.5677 193.879 51.0441 193.942 50.8361C194.746 47.9778 194.629 41.9808 191.864 40.1356C189.867 38.8059 187.31 39.7195 186.235 41.7547C185.142 43.8351 185.783 46.6572 186.714 48.6652C187.771 50.9356 191.9 54.4542 192.225 54.7346C190.247 57.023 188.394 59.5376 186.669 62.1879C185.675 63.6984 184.726 65.2542 183.795 66.819C184.112 66.0411 184.392 65.3356 184.428 65.2361C185.232 62.3778 185.115 56.3808 182.35 54.5356C180.353 53.2059 177.796 54.1195 176.721 56.1547C175.627 58.2351 176.269 61.0572 177.209 63.0652C178.166 65.1004 181.618 68.1758 182.539 68.9808C182.187 69.5869 181.826 70.1839 181.482 70.7989C179.802 73.7115 178.139 76.6241 176.422 79.4371C175.817 80.4231 175.185 81.3819 174.561 82.3316C174.841 81.6351 175.076 81.0562 175.103 80.9567C175.907 78.0984 175.79 72.1014 173.025 70.2562C171.028 68.9266 168.471 69.8401 167.396 71.8753C166.303 73.9557 166.944 76.7778 167.884 78.7859C168.797 80.7306 171.959 83.5979 173.052 84.5567C172.375 85.5155 171.706 86.4743 171.01 87.3788C170.522 87.9849 170.089 88.6 169.565 89.1788C169.059 89.7668 168.553 90.3366 168.056 90.9155C167.053 91.9829 166.032 93.0864 165.029 94.1085C164.342 94.8231 163.664 95.4834 162.996 96.1618C163.61 95.1849 164.767 93.2402 164.848 93.0683C165.661 91.2683 166.285 88.0482 165.887 85.4251C166.014 85.1628 166.104 84.8824 166.176 84.602C166.737 82.3678 165.435 79.9798 163.068 79.6361C159.779 79.1567 155.686 83.5437 154.385 86.212C154.304 86.3658 153.662 88.1748 153.274 89.3145C153.4 88.609 153.527 87.9216 153.653 87.1979C153.906 85.7598 154.105 84.3125 154.331 82.7567C154.412 82.006 154.503 81.2371 154.584 80.4683C154.683 79.7085 154.692 78.8944 154.756 78.0984C154.855 76.2532 154.864 74.3718 154.837 72.4813C156.093 72.6984 160.583 73.3949 162.743 72.8431C164.893 72.2914 167.477 70.9979 168.381 68.8271C169.266 66.7105 168.345 64.1507 166.059 63.4451C162.878 62.4773 158.171 66.1949 156.481 68.6281C156.373 68.7818 155.361 70.6632 154.819 71.7125C154.792 70.5728 154.765 69.4421 154.701 68.2934C154.512 64.9738 154.222 61.618 153.942 58.2713C153.852 57.2492 153.78 56.2271 153.707 55.1959C154.159 55.2773 159.472 56.227 161.885 55.6029C164.035 55.0512 166.619 53.7577 167.523 51.5868C168.408 49.4703 167.486 46.9105 165.201 46.2049C162.02 45.2371 157.313 48.9547 155.623 51.3878C155.496 51.5687 154.033 54.2914 153.698 54.9969C153.527 52.7446 153.382 50.4924 153.328 48.2763C153.247 45.2099 153.337 42.1979 153.635 39.2853C153.843 39.3215 159.382 40.3346 161.857 39.7014C164.008 39.1496 166.592 37.8562 167.496 35.6853C168.381 33.5687 167.459 31.0089 165.173 30.3034C161.993 29.3356 157.285 33.0531 155.596 35.4863C155.46 35.6763 153.888 38.6069 153.644 39.1496C153.662 38.9778 153.662 38.7969 153.68 38.625C154.042 35.5225 154.783 32.5557 155.614 29.824C156.093 28.232 156.635 26.7396 157.204 25.2923C158.216 25.5908 162.86 26.8843 165.155 26.5587C167.351 26.2511 170.062 25.2381 171.2 23.1848C172.311 21.1768 171.679 18.5265 169.483 17.5858C166.429 16.2742 161.342 19.4491 159.391 21.6923C159.282 21.8099 158.343 23.1667 157.674 24.1707C157.936 23.5195 158.198 22.8501 158.469 22.235C159.463 19.9195 160.511 17.8662 161.46 16.0571C162.002 15.026 162.517 14.1124 163.005 13.2622C164.152 13.036 168.751 12.0501 170.604 10.7295C172.411 9.44508 174.353 7.30135 174.417 4.94959C174.48 2.6521 172.7 0.598833 170.315 0.770693C166.999 1.01491 163.954 6.17975 163.249 9.06518C163.186 9.31844 162.689 13.3255 162.752 13.3164C162.752 13.3164 162.806 13.3074 162.824 13.2983C162.336 14.1124 161.821 14.9898 161.279 15.9576C160.294 17.7576 159.192 19.7928 158.144 22.0903C157.096 24.3878 156.011 26.9114 155.117 29.6702C154.213 32.4381 153.409 35.3868 152.967 38.5436C152.958 38.5798 152.958 38.616 152.958 38.6522C152.804 37.6934 152.271 35.016 152.208 34.817C151.304 31.9858 147.898 27.0471 144.573 27.0381C142.178 27.029 140.543 29.2089 140.769 31.4974C141.004 33.831 143.091 35.8391 144.979 36.9969C147.112 38.2994 152.497 38.9597 152.921 39.014C152.533 42.017 152.379 45.1376 152.388 48.2944C152.397 50.1034 152.461 51.9215 152.542 53.7486C152.379 52.9255 152.226 52.1838 152.199 52.0843C151.295 49.2532 147.889 44.3145 144.564 44.3054C142.169 44.2964 140.543 46.4763 140.769 48.7647C141.004 51.0984 143.091 53.1064 144.979 54.2642C146.895 55.4401 151.476 56.0914 152.686 56.2451C152.723 56.9416 152.759 57.6471 152.804 58.3436C153.012 61.6994 153.229 65.0462 153.346 68.3386C153.391 69.4964 153.382 70.6452 153.391 71.7849C153.247 71.0522 153.12 70.4281 153.084 70.3376C152.18 67.5065 148.774 62.5678 145.449 62.5587C143.055 62.5497 141.428 64.7296 141.654 67.018C141.889 69.3517 143.976 71.3597 145.865 72.5175C147.699 73.6391 151.918 74.2813 153.355 74.4713C153.319 75.6472 153.292 76.814 153.201 77.9537C153.129 78.7225 153.111 79.4733 152.985 80.2512C152.885 81.02 152.786 81.7798 152.686 82.5306C152.442 83.9688 152.199 85.4613 151.918 86.8633C151.738 87.8401 151.539 88.7628 151.349 89.6944C151.322 88.5366 151.223 86.2753 151.187 86.0944C150.726 83.1638 148.105 77.7638 144.817 77.2482C142.449 76.8773 140.507 78.7859 140.389 81.0743C140.263 83.417 142.025 85.7145 143.723 87.1437C145.585 88.7175 150.599 90.1557 151.223 90.3276C150.897 91.8743 150.572 93.3668 150.238 94.7778C149.804 96.6231 149.379 98.3507 148.964 99.9336C149.443 100.359 150.039 100.874 150.735 101.462C151.196 99.5809 151.674 97.4914 152.153 95.203C152.488 93.6381 152.813 91.9557 153.129 90.2281C153.545 90.2371 155.921 90.2824 158.144 90.0472C158.984 92.408 162.147 96.1165 162.553 96.5869C161.433 97.6995 160.339 98.7668 159.282 99.7527C157.466 101.471 155.777 103 154.259 104.339C154.801 104.764 155.37 105.207 155.957 105.65C157.394 104.321 158.966 102.828 160.647 101.164C161.785 100.042 162.987 98.8211 164.198 97.5547C164.722 97.9165 169.013 100.892 171.417 101.336C173.594 101.734 176.486 101.643 178.212 100.051C179.901 98.4954 180.136 95.7909 178.356 94.1899C175.871 91.9738 170.043 93.3758 167.486 94.8864C167.333 94.9768 165.806 96.1256 164.848 96.8583C165.345 96.3427 165.833 95.8361 166.33 95.2934C167.333 94.2261 168.3 93.1407 169.348 91.9648C169.836 91.3859 170.324 90.7979 170.821 90.201C171.327 89.6221 171.778 88.9437 172.266 88.3195C173.369 86.8361 174.408 85.2713 175.429 83.6793C176.359 84.5567 179.72 87.614 181.826 88.3467C183.922 89.0703 186.786 89.414 188.738 88.1115C190.644 86.8361 191.286 84.1949 189.768 82.3406C187.654 79.7718 181.681 80.2783 178.916 81.3728C178.745 81.4452 176.856 82.4492 175.826 83.0281C176.432 82.0602 177.037 81.1014 177.615 80.1065C179.287 77.2301 180.886 74.2723 182.503 71.3326C183 70.4281 183.497 69.5326 183.994 68.6371C184.319 68.9537 188.232 72.6803 190.59 73.4944C192.686 74.218 195.55 74.5617 197.502 73.2592C199.409 71.9838 200.05 69.3426 198.532 67.4884C196.418 64.9195 190.445 65.426 187.681 66.5205C187.473 66.6019 184.753 68.0582 184.085 68.4653C185.187 66.4934 186.298 64.5396 187.482 62.6492C189.099 60.0441 190.834 57.5838 192.695 55.3225C192.849 55.4673 196.915 59.3748 199.327 60.216C201.424 60.9396 204.288 61.2833 206.239 59.9808C208.146 58.7054 208.787 56.0642 207.269 54.21C205.155 51.6411 199.183 52.1476 196.418 53.2421C196.201 53.3326 193.283 54.8974 192.768 55.223C192.876 55.0873 192.975 54.9336 193.093 54.8069C195.108 52.419 197.358 50.3567 199.553 48.5296C200.827 47.4622 202.11 46.5215 203.375 45.626C204.062 46.4311 207.215 50.0763 209.302 51.0713C211.308 52.021 214.118 52.6813 216.196 51.5959C218.238 50.5376 219.16 47.9778 217.85 45.9788C216.025 43.1929 210.034 43.0391 207.17 43.826C207.016 43.8713 205.48 44.4773 204.369 44.9386C204.947 44.5406 205.535 44.1245 206.095 43.7627C208.2 42.3788 210.206 41.2481 211.995 40.2622C213.016 39.7104 213.947 39.222 214.832 38.7878C215.916 39.231 220.289 40.9496 222.566 40.8682C224.78 40.7868 227.581 40.0723 228.927 38.1547C230.228 36.3275 229.876 33.632 227.789 32.4562Z" fill="#002E47"/>
<path d="M149.722 20.6612C151.502 22.5607 156.923 24.7315 156.923 24.7315C156.978 24.7587 157.276 20.7245 157.258 20.4622C157.131 17.4953 155.152 11.833 151.945 10.9466C149.641 10.3044 147.49 11.9777 147.102 14.239C146.713 16.5637 148.195 19.0511 149.722 20.6612Z" fill="#002E47"/>
<path d="M411.444 247.896C411.471 247.932 413.287 245.571 413.386 245.408C414.516 243.536 415.591 239.248 413.983 237.394C412.826 236.064 410.829 236.209 409.673 237.448C408.489 238.715 408.399 240.84 408.67 242.45C408.995 244.35 411.444 247.896 411.444 247.896Z" fill="#002E47"/>
<path d="M429.361 238.606C427.229 237.403 423.253 239.339 421.654 240.831C421.518 240.958 419.575 243.219 419.621 243.237C419.621 243.237 419.657 243.255 419.666 243.255C419.033 243.554 418.365 243.889 417.642 244.259C416.305 244.965 414.805 245.77 413.224 246.756C411.642 247.742 409.962 248.854 408.29 250.184C406.61 251.514 404.92 253.006 403.366 254.761C403.348 254.779 403.33 254.806 403.312 254.824C403.601 254.173 404.369 252.31 404.405 252.156C405.001 250.048 404.911 245.625 402.869 244.268C401.396 243.292 399.517 243.961 398.722 245.462C397.918 246.991 398.387 249.072 399.074 250.555C399.851 252.228 402.896 254.815 403.14 255.023C401.676 256.715 400.321 258.56 399.047 260.514C398.315 261.626 397.619 262.775 396.933 263.933C397.168 263.354 397.375 262.838 397.394 262.766C397.99 260.658 397.9 256.235 395.858 254.879C394.385 253.902 392.505 254.571 391.71 256.073C390.906 257.601 391.376 259.682 392.063 261.165C392.767 262.666 395.315 264.928 395.993 265.525C395.731 265.968 395.469 266.411 395.216 266.863C393.978 269.007 392.758 271.16 391.493 273.231C391.051 273.964 390.581 274.66 390.12 275.366C390.328 274.859 390.5 274.425 390.518 274.353C391.114 272.245 391.024 267.822 388.982 266.466C387.509 265.489 385.629 266.158 384.834 267.659C384.03 269.188 384.5 271.269 385.187 272.752C385.855 274.19 388.186 276.298 389 277.003C388.503 277.709 388.006 278.414 387.491 279.084C387.129 279.527 386.813 279.979 386.425 280.404C386.054 280.838 385.684 281.263 385.313 281.68C384.581 282.467 383.822 283.281 383.09 284.031C382.584 284.556 382.088 285.044 381.591 285.542C382.042 284.818 382.901 283.389 382.955 283.262C383.56 281.942 384.012 279.563 383.723 277.627C383.813 277.428 383.886 277.229 383.94 277.021C384.346 275.375 383.398 273.62 381.645 273.367C379.223 273.014 376.205 276.252 375.248 278.215C375.194 278.333 374.715 279.662 374.435 280.504C374.525 279.979 374.624 279.482 374.715 278.939C374.895 277.881 375.049 276.813 375.221 275.664C375.284 275.113 375.347 274.552 375.41 273.982C375.483 273.421 375.492 272.815 375.537 272.236C375.609 270.871 375.618 269.487 375.591 268.094C376.522 268.247 379.829 268.763 381.419 268.356C383 267.949 384.907 266.99 385.575 265.398C386.226 263.833 385.548 261.952 383.868 261.436C381.527 260.722 378.058 263.462 376.811 265.262C376.73 265.371 375.98 266.764 375.582 267.533C375.564 266.692 375.546 265.859 375.501 265.009C375.365 262.567 375.148 260.089 374.941 257.628C374.877 256.868 374.823 256.118 374.769 255.367C375.103 255.43 379.016 256.127 380.795 255.665C382.377 255.258 384.283 254.3 384.952 252.708C385.602 251.143 384.925 249.261 383.244 248.746C380.904 248.031 377.434 250.772 376.187 252.563C376.097 252.699 375.013 254.698 374.769 255.222C374.642 253.558 374.534 251.903 374.498 250.265C374.435 248.004 374.507 245.788 374.724 243.644C374.877 243.671 378.961 244.422 380.786 243.952C382.368 243.545 384.274 242.586 384.943 240.994C385.593 239.429 384.916 237.548 383.235 237.032C380.895 236.318 377.425 239.058 376.178 240.849C376.079 240.994 374.922 243.147 374.742 243.554C374.751 243.427 374.751 243.292 374.769 243.165C375.04 240.877 375.582 238.697 376.187 236.68C376.54 235.504 376.946 234.4 377.362 233.342C378.112 233.559 381.527 234.509 383.217 234.274C384.834 234.047 386.831 233.306 387.671 231.786C388.494 230.303 388.024 228.358 386.406 227.661C384.157 226.694 380.407 229.036 378.97 230.683C378.889 230.773 378.202 231.768 377.705 232.51C377.904 232.03 378.094 231.533 378.293 231.081C379.025 229.38 379.802 227.86 380.497 226.531C380.904 225.771 381.274 225.102 381.636 224.468C382.476 224.297 385.873 223.573 387.229 222.596C388.557 221.646 389.985 220.063 390.039 218.336C390.084 216.644 388.774 215.125 387.012 215.26C384.572 215.441 382.322 219.249 381.807 221.375C381.762 221.556 381.392 224.514 381.437 224.505C381.437 224.505 381.482 224.496 381.491 224.496C381.13 225.093 380.75 225.735 380.353 226.449C379.63 227.77 378.817 229.271 378.049 230.972C377.272 232.663 376.477 234.518 375.817 236.553C375.148 238.588 374.561 240.768 374.236 243.093C374.236 243.12 374.236 243.147 374.227 243.174C374.109 242.468 373.721 240.497 373.676 240.343C373.007 238.253 370.504 234.617 368.046 234.617C366.285 234.617 365.083 236.218 365.246 237.901C365.417 239.619 366.953 241.094 368.345 241.953C369.917 242.912 373.883 243.4 374.2 243.436C373.91 245.652 373.793 247.95 373.811 250.275C373.82 251.604 373.865 252.952 373.929 254.291C373.811 253.685 373.694 253.133 373.676 253.06C373.007 250.971 370.495 247.335 368.046 247.335C366.285 247.335 365.083 248.936 365.246 250.618C365.417 252.337 366.953 253.811 368.345 254.671C369.754 255.539 373.133 256.018 374.028 256.136C374.055 256.651 374.082 257.167 374.109 257.683C374.263 260.152 374.426 262.621 374.507 265.045C374.534 265.905 374.534 266.746 374.534 267.587C374.426 267.044 374.335 266.592 374.308 266.52C373.639 264.43 371.128 260.794 368.679 260.794C366.917 260.794 365.715 262.395 365.878 264.078C366.05 265.796 367.586 267.271 368.977 268.13C370.323 268.953 373.432 269.432 374.498 269.568C374.471 270.427 374.453 271.296 374.389 272.128C374.335 272.698 374.317 273.249 374.236 273.819C374.163 274.38 374.091 274.941 374.01 275.502C373.829 276.56 373.648 277.664 373.45 278.695C373.314 279.409 373.17 280.097 373.034 280.784C373.016 279.934 372.935 278.27 372.917 278.134C372.573 275.972 370.64 271.992 368.227 271.621C366.483 271.35 365.056 272.752 364.965 274.443C364.875 276.171 366.167 277.862 367.423 278.921C368.796 280.079 372.492 281.137 372.953 281.264C372.718 282.403 372.474 283.507 372.23 284.538C371.914 285.904 371.597 287.17 371.29 288.337C371.643 288.644 372.085 289.033 372.6 289.468C372.935 288.084 373.296 286.546 373.648 284.854C373.892 283.706 374.136 282.467 374.371 281.191C374.678 281.2 376.431 281.236 378.067 281.055C378.69 282.801 381.012 285.524 381.32 285.877C380.497 286.691 379.684 287.478 378.907 288.21C377.57 289.477 376.323 290.607 375.203 291.593C375.6 291.91 376.025 292.235 376.458 292.561C377.516 291.584 378.672 290.481 379.919 289.259C380.759 288.436 381.645 287.532 382.539 286.6C382.928 286.872 386.09 289.061 387.861 289.386C389.469 289.685 391.593 289.612 392.867 288.445C394.114 287.297 394.285 285.307 392.966 284.131C391.141 282.503 386.84 283.534 384.961 284.637C384.852 284.701 383.723 285.551 383.018 286.094C383.38 285.714 383.741 285.343 384.111 284.945C384.852 284.158 385.566 283.353 386.334 282.494C386.696 282.069 387.057 281.634 387.418 281.191C387.789 280.766 388.123 280.269 388.485 279.798C389.298 278.704 390.066 277.555 390.816 276.379C391.502 277.021 393.978 279.283 395.523 279.816C397.068 280.35 399.183 280.603 400.619 279.644C402.029 278.704 402.499 276.759 401.378 275.393C399.815 273.503 395.415 273.874 393.382 274.679C393.255 274.733 391.864 275.475 391.105 275.9C391.548 275.185 391.999 274.48 392.424 273.747C393.653 271.63 394.837 269.45 396.02 267.28C396.382 266.61 396.752 265.959 397.122 265.299C397.366 265.534 400.249 268.275 401.984 268.881C403.529 269.414 405.643 269.668 407.08 268.709C408.489 267.768 408.959 265.823 407.839 264.457C406.275 262.567 401.875 262.938 399.842 263.743C399.689 263.806 397.683 264.883 397.195 265.181C398.008 263.725 398.83 262.287 399.698 260.894C400.89 258.976 402.173 257.158 403.538 255.494C403.646 255.602 406.646 258.479 408.426 259.094C409.971 259.627 412.085 259.881 413.522 258.922C414.931 257.981 415.401 256.036 414.281 254.671C412.718 252.78 408.317 253.151 406.284 253.956C406.122 254.019 403.971 255.177 403.592 255.412C403.673 255.313 403.745 255.204 403.827 255.105C405.309 253.341 406.971 251.821 408.588 250.483C409.528 249.696 410.468 248.999 411.407 248.348C411.913 248.945 414.236 251.622 415.781 252.355C417.253 253.06 419.332 253.54 420.868 252.744C422.367 251.966 423.054 250.076 422.087 248.601C420.741 246.548 416.332 246.439 414.218 247.018C414.1 247.045 412.971 247.498 412.157 247.841C412.582 247.552 413.016 247.244 413.431 246.973C414.976 245.96 416.458 245.119 417.777 244.395C418.527 243.988 419.214 243.635 419.865 243.31C420.66 243.635 423.885 244.902 425.566 244.838C427.201 244.784 429.261 244.25 430.255 242.839C431.159 241.455 430.897 239.465 429.361 238.606Z" fill="#002E47"/>
<path d="M371.831 229.914C373.141 231.316 377.134 232.917 377.134 232.917C377.18 232.935 377.387 229.959 377.387 229.778C377.297 227.589 375.833 223.419 373.475 222.768C371.776 222.298 370.195 223.528 369.906 225.192C369.617 226.893 370.719 228.729 371.831 229.914Z" fill="#002E47"/>
<path d="M253.224 345.711C253.188 345.666 250.92 348.614 250.794 348.822C249.384 351.174 248.029 356.538 250.044 358.854C251.499 360.518 253.992 360.328 255.447 358.781C256.929 357.198 257.046 354.53 256.694 352.513C256.288 350.143 253.224 345.711 253.224 345.711Z" fill="#002E47"/>
<path d="M230.788 357.343C233.463 358.845 238.432 356.42 240.438 354.557C240.61 354.394 243.031 351.563 242.986 351.545C242.986 351.545 242.941 351.527 242.923 351.518C243.709 351.138 244.549 350.731 245.462 350.261C247.133 349.383 249.012 348.37 250.991 347.14C252.97 345.91 255.075 344.517 257.171 342.853C259.268 341.188 261.391 339.325 263.334 337.118C263.352 337.091 263.379 337.064 263.397 337.036C263.026 337.86 262.078 340.184 262.023 340.374C261.283 343.015 261.391 348.542 263.948 350.243C265.791 351.464 268.15 350.622 269.134 348.75C270.146 346.833 269.559 344.227 268.692 342.373C267.716 340.284 263.912 337.036 263.605 336.774C265.43 334.658 267.138 332.342 268.737 329.9C269.649 328.507 270.526 327.069 271.393 325.621C271.095 326.345 270.842 326.987 270.815 327.078C270.074 329.719 270.182 335.246 272.739 336.946C274.583 338.167 276.941 337.326 277.926 335.454C278.938 333.536 278.35 330.931 277.483 329.077C276.607 327.195 273.417 324.364 272.559 323.622C272.884 323.062 273.209 322.51 273.535 321.949C275.08 319.263 276.616 316.576 278.197 313.98C278.757 313.067 279.335 312.189 279.914 311.303C279.652 311.945 279.435 312.479 279.417 312.569C278.676 315.21 278.784 320.737 281.341 322.437C283.184 323.659 285.543 322.817 286.528 320.945C287.54 319.027 286.952 316.422 286.085 314.568C285.245 312.777 282.326 310.127 281.314 309.25C281.938 308.363 282.552 307.477 283.193 306.644C283.645 306.084 284.043 305.523 284.522 304.989C284.992 304.447 285.452 303.922 285.913 303.388C286.835 302.402 287.774 301.38 288.705 300.448C289.338 299.788 289.961 299.173 290.584 298.558C290.015 299.463 288.949 301.254 288.877 301.407C288.127 303.063 287.558 306.038 287.919 308.463C287.811 308.707 287.711 308.96 287.648 309.222C287.133 311.285 288.335 313.483 290.521 313.799C293.557 314.242 297.325 310.19 298.536 307.73C298.608 307.585 299.204 305.921 299.557 304.872C299.439 305.523 299.322 306.156 299.213 306.825C298.987 308.155 298.798 309.485 298.581 310.923C298.499 311.619 298.427 312.325 298.346 313.03C298.256 313.736 298.246 314.487 298.192 315.219C298.102 316.929 298.093 318.657 298.12 320.402C296.954 320.203 292.816 319.561 290.828 320.068C288.85 320.574 286.464 321.777 285.624 323.767C284.802 325.721 285.651 328.082 287.765 328.733C290.702 329.628 295.039 326.2 296.602 323.948C296.701 323.803 297.641 322.067 298.138 321.099C298.165 322.148 298.183 323.197 298.246 324.256C298.418 327.313 298.689 330.406 298.951 333.5C299.033 334.45 299.096 335.39 299.168 336.331C298.752 336.259 293.855 335.381 291.624 335.951C289.645 336.458 287.259 337.652 286.419 339.651C285.597 341.604 286.446 343.965 288.561 344.607C291.497 345.503 295.834 342.075 297.397 339.822C297.515 339.651 298.861 337.145 299.177 336.494C299.331 338.574 299.466 340.646 299.52 342.699C299.593 345.53 299.511 348.307 299.231 350.993C299.042 350.957 293.928 350.025 291.642 350.604C289.663 351.111 287.277 352.305 286.437 354.304C285.615 356.258 286.464 358.618 288.579 359.261C291.515 360.156 295.852 356.728 297.415 354.476C297.542 354.295 298.987 351.599 299.213 351.093C299.195 351.256 299.195 351.418 299.177 351.581C298.843 354.449 298.156 357.18 297.397 359.704C296.954 361.169 296.448 362.553 295.933 363.883C295.003 363.611 290.711 362.417 288.606 362.716C286.582 363.005 284.079 363.928 283.031 365.827C282.001 367.682 282.588 370.124 284.621 370.992C287.44 372.204 292.13 369.274 293.928 367.211C294.027 367.103 294.894 365.846 295.518 364.923C295.274 365.52 295.03 366.144 294.786 366.705C293.873 368.84 292.898 370.73 292.03 372.403C291.524 373.353 291.054 374.194 290.603 374.981C289.545 375.189 285.299 376.103 283.6 377.324C281.938 378.509 280.149 380.49 280.085 382.652C280.022 384.768 281.666 386.668 283.871 386.505C286.925 386.279 289.744 381.512 290.386 378.853C290.44 378.627 290.901 374.927 290.846 374.936C290.846 374.936 290.792 374.945 290.783 374.945C291.235 374.194 291.705 373.389 292.211 372.494C293.123 370.839 294.135 368.957 295.102 366.832C296.069 364.715 297.063 362.39 297.894 359.84C298.725 357.289 299.466 354.566 299.873 351.654C299.882 351.617 299.882 351.59 299.882 351.554C300.026 352.441 300.514 354.91 300.578 355.091C301.409 357.705 304.553 362.255 307.616 362.264C309.821 362.273 311.33 360.265 311.122 358.148C310.905 355.995 308.981 354.15 307.237 353.083C305.267 351.88 300.307 351.274 299.909 351.219C300.27 348.443 300.415 345.575 300.397 342.654C300.388 340.989 300.334 339.307 300.252 337.624C300.406 338.384 300.541 339.072 300.569 339.162C301.4 341.776 304.544 346.326 307.607 346.335C309.812 346.344 311.321 344.336 311.113 342.219C310.896 340.067 308.972 338.221 307.228 337.154C305.457 336.069 301.237 335.472 300.117 335.327C300.081 334.685 300.054 334.033 300.008 333.391C299.819 330.298 299.611 327.204 299.511 324.174C299.475 323.107 299.475 322.049 299.475 320.99C299.611 321.669 299.728 322.238 299.755 322.32C300.587 324.934 303.731 329.484 306.794 329.493C308.999 329.502 310.508 327.494 310.3 325.377C310.083 323.224 308.158 321.379 306.415 320.312C304.725 319.281 300.831 318.684 299.502 318.512C299.53 317.435 299.566 316.35 299.638 315.301C299.71 314.586 299.728 313.899 299.837 313.184C299.927 312.479 300.026 311.773 300.117 311.086C300.343 309.756 300.569 308.381 300.822 307.088C300.993 306.192 301.165 305.333 301.346 304.474C301.373 305.541 301.463 307.621 301.49 307.793C301.915 310.498 304.336 315.482 307.363 315.952C309.55 316.296 311.339 314.541 311.447 312.415C311.565 310.254 309.938 308.137 308.375 306.816C306.658 305.36 302.032 304.039 301.454 303.877C301.752 302.457 302.05 301.073 302.358 299.77C302.755 298.061 303.153 296.478 303.532 295.012C303.089 294.623 302.538 294.144 301.897 293.601C301.472 295.338 301.029 297.265 300.587 299.372C300.279 300.819 299.981 302.366 299.683 303.958C299.295 303.949 297.108 303.904 295.057 304.121C294.28 301.941 291.371 298.522 290.991 298.088C292.021 297.066 293.033 296.08 294.009 295.166C295.68 293.583 297.244 292.172 298.644 290.933C298.138 290.535 297.623 290.137 297.081 289.721C295.762 290.942 294.307 292.326 292.753 293.855C291.705 294.886 290.593 296.016 289.473 297.183C288.994 296.849 285.028 294.108 282.814 293.701C280.799 293.33 278.143 293.42 276.543 294.886C274.98 296.315 274.763 298.82 276.417 300.286C278.703 302.33 284.079 301.036 286.446 299.643C286.582 299.562 288 298.504 288.877 297.825C288.416 298.305 287.973 298.766 287.512 299.264C286.591 300.24 285.696 301.254 284.73 302.33C284.278 302.864 283.826 303.406 283.374 303.958C282.913 304.492 282.489 305.116 282.037 305.695C281.025 307.07 280.058 308.508 279.118 309.982C278.26 309.177 275.161 306.355 273.218 305.677C271.285 305.007 268.637 304.691 266.839 305.894C265.077 307.07 264.49 309.512 265.891 311.212C267.842 313.582 273.354 313.112 275.902 312.099C276.065 312.035 277.799 311.104 278.748 310.57C278.188 311.457 277.628 312.343 277.095 313.266C275.55 315.916 274.077 318.648 272.586 321.361C272.134 322.193 271.664 323.016 271.203 323.849C270.905 323.559 267.291 320.122 265.123 319.371C263.189 318.702 260.542 318.385 258.744 319.588C256.982 320.764 256.394 323.206 257.795 324.907C259.747 327.277 265.258 326.806 267.797 325.793C267.987 325.721 270.499 324.373 271.113 323.993C270.101 325.811 269.071 327.62 267.987 329.357C266.496 331.754 264.888 334.024 263.18 336.114C263.035 335.978 259.286 332.378 257.063 331.6C255.129 330.931 252.482 330.614 250.684 331.817C248.922 332.993 248.335 335.435 249.735 337.136C251.687 339.506 257.199 339.035 259.738 338.022C259.936 337.941 262.629 336.494 263.108 336.195C263.008 336.322 262.909 336.458 262.81 336.584C260.957 338.791 258.879 340.691 256.846 342.373C255.672 343.359 254.488 344.227 253.322 345.051C252.69 344.309 249.781 340.944 247.856 340.03C246.013 339.153 243.411 338.547 241.495 339.542C239.616 340.519 238.757 342.88 239.968 344.725C241.649 347.294 247.178 347.439 249.817 346.706C249.961 346.67 251.371 346.1 252.401 345.675C251.868 346.036 251.326 346.425 250.811 346.76C248.868 348.036 247.016 349.076 245.371 349.989C244.432 350.505 243.564 350.948 242.76 351.355C241.766 350.948 237.718 349.365 235.631 349.438C233.589 349.51 231.005 350.17 229.758 351.943C228.538 353.77 228.863 356.258 230.788 357.343Z" fill="#002E47"/>
<path d="M302.808 368.224C301.164 366.47 296.167 364.471 296.167 364.471C296.113 364.453 295.842 368.17 295.86 368.405C295.978 371.146 297.803 376.365 300.757 377.188C302.89 377.776 304.869 376.239 305.221 374.149C305.582 371.996 304.209 369.708 302.808 368.224Z" fill="#002E47"/>
<path d="M377.913 69.7497H53.8398V330.424H377.913V69.7497Z" fill="white" stroke="#002E47" stroke-miterlimit="10" stroke-linejoin="round"/>
<path d="M335.743 296.984H295.318C293.123 296.984 291.352 295.202 291.352 293.013V246.629" fill="white"/>
<path d="M335.743 296.984H295.318C293.123 296.984 291.352 295.202 291.352 293.013V246.629" stroke="#002E47" stroke-miterlimit="10" stroke-linejoin="round"/>
<path d="M361.223 200.942V293.004C361.223 295.202 359.443 296.975 357.247 296.975H339.719" fill="white"/>
<path d="M361.223 200.942V293.004C361.223 295.202 359.443 296.975 357.247 296.975H339.719" stroke="#002E47" stroke-miterlimit="10" stroke-linejoin="round"/>
<path d="M291.344 243.509V173.245C291.344 171.047 293.115 169.274 295.31 169.274H357.239C359.435 169.274 361.215 171.047 361.215 173.245V198.391" fill="white"/>
<path d="M291.344 243.509V173.245C291.344 171.047 293.115 169.274 295.31 169.274H357.239C359.435 169.274 361.215 171.047 361.215 173.245V198.391" stroke="#002E47" stroke-miterlimit="10" stroke-linejoin="round"/>
<path d="M361.222 173.245V194.71H291.352V173.245C291.352 171.047 293.123 169.274 295.318 169.274H357.247C359.433 169.274 361.222 171.047 361.222 173.245Z" fill="white" stroke="#002E47" stroke-miterlimit="10" stroke-linejoin="round"/>
<path d="M377.913 69.7497H53.8398V158.013H377.913V69.7497Z" fill="white" stroke="#002E47" stroke-miterlimit="10" stroke-linejoin="round"/>
<path d="M353.744 137.069C357.838 136.058 360.339 131.917 359.329 127.818C358.32 123.72 354.182 121.217 350.089 122.227C345.995 123.238 343.494 127.38 344.504 131.478C345.513 135.576 349.65 138.08 353.744 137.069Z" fill="#E2EDFF" stroke="#002E47" stroke-miterlimit="10" stroke-linejoin="round"/>
<path d="M328.958 126.463C329.522 126.463 329.979 126.006 329.979 125.441C329.979 124.877 329.522 124.419 328.958 124.419C328.395 124.419 327.938 124.877 327.938 125.441C327.938 126.006 328.395 126.463 328.958 126.463Z" fill="#002E47"/>
<path d="M333.972 125.441C333.972 124.88 333.511 124.419 332.951 124.419C332.39 124.419 331.93 124.88 331.93 125.441C331.93 126.002 332.39 126.463 332.951 126.463C333.511 126.463 333.972 126.002 333.972 125.441Z" fill="#002E47"/>
<path d="M337.976 125.441C337.976 124.88 337.515 124.419 336.955 124.419C336.394 124.419 335.934 124.88 335.934 125.441C335.934 126.002 336.394 126.463 336.955 126.463C337.515 126.463 337.976 126.002 337.976 125.441Z" fill="#002E47"/>
<path d="M329.972 129.602C329.972 129.041 329.511 128.58 328.951 128.58C328.39 128.58 327.93 129.041 327.93 129.602C327.93 130.163 328.39 130.624 328.951 130.624C329.52 130.624 329.972 130.163 329.972 129.602Z" fill="#002E47"/>
<path d="M333.976 129.602C333.976 129.041 333.515 128.58 332.955 128.58C332.394 128.58 331.934 129.041 331.934 129.602C331.934 130.163 332.394 130.624 332.955 130.624C333.515 130.624 333.976 130.163 333.976 129.602Z" fill="#002E47"/>
<path d="M337.976 129.602C337.976 129.041 337.515 128.58 336.955 128.58C336.394 128.58 335.934 129.041 335.934 129.602C335.934 130.163 336.394 130.624 336.955 130.624C337.515 130.624 337.976 130.163 337.976 129.602Z" fill="#002E47"/>
<path d="M329.972 133.763C329.972 133.202 329.511 132.741 328.951 132.741C328.39 132.741 327.93 133.202 327.93 133.763C327.93 134.324 328.39 134.785 328.951 134.785C329.52 134.785 329.972 134.324 329.972 133.763Z" fill="#002E47"/>
<path d="M333.976 133.763C333.976 133.202 333.515 132.741 332.955 132.741C332.394 132.741 331.934 133.202 331.934 133.763C331.934 134.324 332.394 134.785 332.955 134.785C333.515 134.785 333.976 134.324 333.976 133.763Z" fill="#002E47"/>
<path d="M337.976 133.763C337.976 133.202 337.515 132.741 336.955 132.741C336.394 132.741 335.934 133.202 335.934 133.763C335.934 134.324 336.394 134.785 336.955 134.785C337.515 134.785 337.976 134.324 337.976 133.763Z" fill="#002E47"/>
<path d="M280.945 132.686C279.454 137.336 275.099 140.701 269.958 140.701H164.84" fill="white"/>
<path d="M280.945 132.686C279.454 137.336 275.099 140.701 269.958 140.701H164.84" stroke="#002E47" stroke-miterlimit="10" stroke-linejoin="round"/>
<path d="M187.965 117.599H269.961C276.331 117.599 281.5 122.773 281.5 129.15" fill="white"/>
<path d="M187.965 117.599H269.961C276.331 117.599 281.5 122.773 281.5 129.15" stroke="#002E47" stroke-miterlimit="10" stroke-linejoin="round"/>
<path d="M159.059 140.691H104.331C97.9612 140.691 92.793 135.518 92.793 129.141C92.793 122.764 97.9612 117.59 104.331 117.59H183.96" fill="white"/>
<path d="M159.059 140.691H104.331C97.9612 140.691 92.793 135.518 92.793 129.141C92.793 122.764 97.9612 117.59 104.331 117.59H183.96" stroke="#002E47" stroke-miterlimit="10" stroke-linejoin="round"/>
<path d="M252.402 122.927V133.727" stroke="#002E47" stroke-width="0.5" stroke-miterlimit="10" stroke-linejoin="round"/>
<path d="M244.018 123.026L233.898 133.157" stroke="#002E47" stroke-miterlimit="10" stroke-linejoin="round"/>
<path d="M233.898 123.026L244.018 133.157" stroke="#002E47" stroke-miterlimit="10" stroke-linejoin="round"/>
<path d="M270.078 133.437C269.771 133.808 269.22 133.853 268.858 133.537L264.711 129.756L265.497 128.806L269.951 132.216C270.322 132.515 270.385 133.066 270.078 133.437Z" fill="#002E47" stroke="#002E47" stroke-miterlimit="10" stroke-linejoin="round"/>
<path d="M259.425 124.582C258.043 126.246 258.278 128.716 259.94 130.1C261.603 131.483 264.069 131.248 265.452 129.584C266.834 127.92 266.599 125.45 264.937 124.066C263.274 122.682 260.798 122.909 259.425 124.582ZM265.018 129.213C263.834 130.642 261.729 130.841 260.301 129.656C258.874 128.471 258.675 126.364 259.859 124.935C261.042 123.506 263.148 123.307 264.575 124.491C266.003 125.676 266.202 127.793 265.018 129.213Z" fill="#002E47" stroke="#002E47" stroke-miterlimit="10" stroke-linejoin="round"/>
<path d="M377.904 69.7497H368.02V330.424H377.904V69.7497Z" fill="#E2EDFF" stroke="#002E47" stroke-miterlimit="10" stroke-linejoin="round"/>
<path d="M377.904 121.724H368.02V147.295H377.904V121.724Z" fill="#B3C7EB" stroke="#002E47" stroke-miterlimit="10" stroke-linejoin="round"/>
<path d="M377.913 69.7497H53.8398V100.268H377.913V69.7497Z" fill="#39B4EF" stroke="#002E47" stroke-miterlimit="10" stroke-linejoin="round"/>
<path d="M377.913 69.7497H109.281V80.4773H377.913V69.7497Z" fill="#002E47" stroke="#002E47" stroke-miterlimit="10" stroke-linejoin="round"/>
<path d="M371.696 72.4452L366.031 78.1256" stroke="white" stroke-miterlimit="10" stroke-linejoin="round"/>
<path d="M366.031 72.4452L371.696 78.1256" stroke="white" stroke-miterlimit="10" stroke-linejoin="round"/>
<path d="M355.225 72.9246H351.051V77.1035H355.225V72.9246Z" fill="#002E47" stroke="white" stroke-miterlimit="10" stroke-linejoin="round"/>
<path d="M353.217 73.9286H349.043V78.1075H353.217V73.9286Z" fill="#002E47" stroke="white" stroke-miterlimit="10" stroke-linejoin="round"/>
<path d="M336.024 75.4934H328.805" stroke="white" stroke-miterlimit="10" stroke-linejoin="round"/>
<path d="M115 72.2462V78.7316" stroke="white" stroke-miterlimit="10" stroke-linejoin="round"/>
<path d="M118.244 75.4844H111.766" stroke="white" stroke-miterlimit="10" stroke-linejoin="round"/>
<path d="M94.9688 176.158H161.659" stroke="#002E47" stroke-miterlimit="10" stroke-linejoin="round"/>
<path d="M94.9688 181.992H179.658" stroke="#002E47" stroke-miterlimit="10" stroke-linejoin="round"/>
<path d="M94.9688 188.875H269.642" stroke="#002E47" stroke-miterlimit="10" stroke-linejoin="round"/>
<path d="M94.9688 195.234H269.642" stroke="#002E47" stroke-miterlimit="10" stroke-linejoin="round"/>
<path d="M94.9688 201.593H269.642" stroke="#002E47" stroke-miterlimit="10" stroke-linejoin="round"/>
<path d="M94.9688 216.436H161.659" stroke="#002E47" stroke-miterlimit="10" stroke-linejoin="round"/>
<path d="M94.9688 222.261H179.658" stroke="#002E47" stroke-miterlimit="10" stroke-linejoin="round"/>
<path d="M94.9688 229.154H269.642" stroke="#002E47" stroke-miterlimit="10" stroke-linejoin="round"/>
<path d="M94.9688 235.513H269.642" stroke="#002E47" stroke-miterlimit="10" stroke-linejoin="round"/>
<path d="M94.9688 241.872H269.642" stroke="#002E47" stroke-miterlimit="10" stroke-linejoin="round"/>
<path d="M94.9688 256.706H161.659" stroke="#002E47" stroke-miterlimit="10" stroke-linejoin="round"/>
<path d="M94.9688 262.54H179.658" stroke="#002E47" stroke-miterlimit="10" stroke-linejoin="round"/>
<path d="M94.9688 269.423H269.642" stroke="#002E47" stroke-miterlimit="10" stroke-linejoin="round"/>
<path d="M94.9688 275.782H269.642" stroke="#002E47" stroke-miterlimit="10" stroke-linejoin="round"/>
<path d="M94.9688 282.141H269.642" stroke="#002E47" stroke-miterlimit="10" stroke-linejoin="round"/>
<path d="M94.9688 296.975H161.659" stroke="#002E47" stroke-miterlimit="10" stroke-linejoin="round"/>
<path d="M94.9688 302.809H179.658" stroke="#002E47" stroke-miterlimit="10" stroke-linejoin="round"/>
<path d="M94.9688 309.693H269.642" stroke="#002E47" stroke-miterlimit="10" stroke-linejoin="round"/>
<path d="M94.9688 316.052H269.642" stroke="#002E47" stroke-miterlimit="10" stroke-linejoin="round"/>
<path d="M94.9688 322.41H269.642" stroke="#002E47" stroke-miterlimit="10" stroke-linejoin="round"/>
<path d="M295.926 202.19H327.333" stroke="#002E47" stroke-miterlimit="10" stroke-linejoin="round"/>
<path d="M295.926 206.414H327.333" stroke="#002E47" stroke-miterlimit="10" stroke-linejoin="round"/>
<path d="M295.926 210.647H357.222" stroke="#002E47" stroke-miterlimit="10" stroke-linejoin="round"/>
<path d="M295.926 214.881H357.222" stroke="#002E47" stroke-miterlimit="10" stroke-linejoin="round"/>
<path d="M295.926 219.114H357.222" stroke="#002E47" stroke-miterlimit="10" stroke-linejoin="round"/>
<path d="M295.926 223.347H357.222" stroke="#002E47" stroke-miterlimit="10" stroke-linejoin="round"/>
<path d="M295.926 227.58H357.222" stroke="#002E47" stroke-miterlimit="10" stroke-linejoin="round"/>
<path d="M295.926 231.813H357.222" stroke="#002E47" stroke-miterlimit="10" stroke-linejoin="round"/>
<path d="M295.926 236.046H357.222" stroke="#002E47" stroke-miterlimit="10" stroke-linejoin="round"/>
<path d="M295.926 240.28H357.222" stroke="#002E47" stroke-miterlimit="10" stroke-linejoin="round"/>
<path d="M295.926 250.256H327.333" stroke="#002E47" stroke-miterlimit="10" stroke-linejoin="round"/>
<path d="M295.926 254.481H327.333" stroke="#002E47" stroke-miterlimit="10" stroke-linejoin="round"/>
<path d="M295.926 258.714H357.222" stroke="#002E47" stroke-miterlimit="10" stroke-linejoin="round"/>
<path d="M295.926 262.947H357.222" stroke="#002E47" stroke-miterlimit="10" stroke-linejoin="round"/>
<path d="M295.926 267.18H357.222" stroke="#002E47" stroke-miterlimit="10" stroke-linejoin="round"/>
<path d="M295.926 271.413H357.222" stroke="#002E47" stroke-miterlimit="10" stroke-linejoin="round"/>
<path d="M295.926 275.646H357.222" stroke="#002E47" stroke-miterlimit="10" stroke-linejoin="round"/>
<path d="M295.926 279.88H357.222" stroke="#002E47" stroke-miterlimit="10" stroke-linejoin="round"/>
<path d="M295.926 284.113H357.222" stroke="#002E47" stroke-miterlimit="10" stroke-linejoin="round"/>
<path d="M295.926 288.346H357.222" stroke="#002E47" stroke-miterlimit="10" stroke-linejoin="round"/>
<path d="M385.215 391.471H396.545" stroke="#002E47" stroke-miterlimit="10" stroke-linejoin="round"/>
<path d="M90.6406 391.471H377.66" stroke="#002E47" stroke-miterlimit="10" stroke-linejoin="round"/>
<path d="M27.1953 391.471H83.0884" stroke="#002E47" stroke-miterlimit="10" stroke-linejoin="round"/>
<path d="M214.491 373.823C214.491 373.823 224.168 374.393 226.445 373.823C228.722 373.254 233.276 369.554 233.845 372.403C234.414 375.253 231.288 379.242 229.291 381.521C227.303 383.8 219.334 385.79 217.057 386.93C214.78 388.07 211.365 390.919 208.519 390.919C205.673 390.919 203.965 381.521 203.965 381.521C203.965 381.521 212.503 376.392 214.78 372.693" fill="white"/>
<path d="M214.491 373.823C214.491 373.823 224.168 374.393 226.445 373.823C228.722 373.254 233.276 369.554 233.845 372.403C234.414 375.253 231.288 379.242 229.291 381.521C227.303 383.8 219.334 385.79 217.057 386.93C214.78 388.07 211.365 390.919 208.519 390.919C205.673 390.919 203.965 381.521 203.965 381.521C203.965 381.521 212.503 376.392 214.78 372.693" stroke="#002E47" stroke-miterlimit="10" stroke-linejoin="round"/>
<path d="M233.329 371.544C227.528 382.254 218.005 384.072 218.005 384.072L205.906 388.106C206.611 389.68 207.487 390.91 208.517 390.91C211.364 390.91 214.779 388.061 217.056 386.921C219.333 385.781 227.302 383.791 229.29 381.512C231.278 379.233 234.413 375.244 233.844 372.394C233.753 371.978 233.573 371.716 233.329 371.544Z" fill="white" stroke="#002E47" stroke-miterlimit="10" stroke-linejoin="round"/>
<path d="M111.901 366.596C111.901 366.596 104.491 375.008 103.868 377.487C103.272 379.839 108.937 383.258 110.401 384.289C114.123 386.921 118.578 389.074 122.888 390.566C124.46 391.109 132.185 392.927 131.164 389.101C130.414 386.27 124.487 383.004 123.737 381.34C122.978 379.676 121.749 376.429 121.749 376.429L111.901 366.596Z" fill="white" stroke="#002E47" stroke-miterlimit="10" stroke-linejoin="round"/>
<path d="M110.392 384.289C114.114 386.921 118.569 389.074 122.879 390.566C124.243 391.037 130.242 392.466 131.137 390.331C128.39 390.177 123.222 389.318 116.572 385.51C110.202 381.865 106.145 378.807 104.022 377.044C103.958 377.206 103.895 377.351 103.868 377.478C103.272 379.839 108.928 383.258 110.392 384.289Z" fill="white" stroke="#002E47" stroke-miterlimit="10" stroke-linejoin="round"/>
<path d="M131.926 261.129L135.052 283.914L137.663 331.953C137.663 331.953 129.694 339.642 125.14 344.77C120.586 349.899 110.223 367.781 110.223 367.781C110.223 367.781 111.045 372.259 116.141 375.316C121.237 378.373 124.002 377.894 124.002 377.894L127.679 371.481L128.998 368.586C128.998 368.586 158.707 339.94 159.276 336.241C159.845 332.541 162.8 292.434 162.8 292.434L186.021 326.553C186.021 326.553 188.867 349.058 191.144 354.467C193.421 359.876 202.809 377.541 202.809 377.541L203.947 381.53C203.947 381.53 207.932 382.95 211.058 380.11C214.184 377.261 216.199 373.959 216.199 373.959L213.055 370.142L212.486 367.582C212.486 367.582 204.805 321.723 203.098 316.314C201.39 310.905 180.572 264.005 180.572 264.005L176.019 251.469C176.019 251.469 171.754 254.318 158.662 258.307C145.578 262.269 131.926 261.129 131.926 261.129Z" fill="#002E47" stroke="#002E47" stroke-miterlimit="10" stroke-linejoin="round"/>
<path d="M160.946 265.977C170.488 261.617 174.996 257.267 177.102 254.417L176.026 251.45C176.026 251.45 171.762 254.3 158.669 258.289C146.969 261.852 134.825 261.319 132.376 261.165C132.232 261.183 132.087 261.21 131.934 261.228L132.765 267.316C136.271 268.682 147.538 272.101 160.946 265.977Z" fill="#39B4EF" stroke="#002E47" stroke-miterlimit="10" stroke-linejoin="round"/>
<path d="M126.947 194.547L104.539 211.208L129.938 258.849C129.938 258.849 130.154 261.409 132.495 263.336C134.844 265.263 150.204 264.828 155.752 263.119C161.3 261.409 169.838 257.14 172.187 255.638C174.536 254.146 177.735 250.935 176.886 248.158C176.036 245.381 174.536 243.029 174.536 243.029L170.055 229.995C170.055 229.995 187.764 231.062 190.114 231.062C192.463 231.062 200.568 210.557 200.568 210.557C200.568 210.557 198.218 210.34 197.369 208.847C196.52 207.355 196.086 205.645 196.086 205.645C196.086 205.645 192.887 207.572 188.406 209.49C183.924 211.416 179.226 211.841 177.31 210.982C175.386 210.132 164.082 199.874 161.516 196.672C158.959 193.47 158.526 192.186 157.676 192.186C156.827 192.186 141.033 193.253 139.109 193.253C137.184 193.271 126.947 194.547 126.947 194.547Z" fill="#39B4EF" stroke="#002E47" stroke-miterlimit="10" stroke-linejoin="round"/>
<path d="M197.369 208.865C196.628 207.563 196.212 206.116 196.113 205.745L195.453 206.514C195.453 206.514 192.038 209.073 192.896 212.71C193.429 214.98 196.059 215.749 198.363 215.948C199.664 212.882 200.576 210.566 200.576 210.566C200.576 210.566 198.218 210.358 197.369 208.865Z" fill="#39B4EF" stroke="#002E47" stroke-miterlimit="10" stroke-linejoin="round"/>
<path d="M161.175 204.469L160.027 201.168" stroke="#002E47" stroke-miterlimit="10" stroke-linejoin="round"/>
<path d="M170.055 230.013L162.176 207.364" stroke="#002E47" stroke-miterlimit="10" stroke-linejoin="round"/>
<path d="M127.155 276.234C121.924 271.902 121.309 264.096 125.791 258.994L213.29 158.493L226.662 169.582L144.323 274.362C140.157 279.717 132.387 280.567 127.155 276.234Z" fill="#002E47" stroke="#002E47" stroke-miterlimit="10" stroke-linejoin="round"/>
<path d="M190.013 185.23L125.799 258.985C121.317 264.087 121.932 271.893 127.163 276.225C132.395 280.558 140.165 279.708 144.339 274.353L205.066 197.061L190.013 185.23Z" fill="white" stroke="#002E47" stroke-miterlimit="10" stroke-linejoin="round"/>
<path d="M286.277 83.8874C262.794 64.4221 227.998 67.6964 208.554 91.205C189.11 114.714 192.381 149.547 215.864 169.012C239.347 188.478 274.142 185.203 293.586 161.695C313.031 138.186 309.751 103.353 286.277 83.8874ZM220.942 162.87C200.847 146.218 198.046 116.405 214.689 96.2975C231.323 76.1809 261.104 73.3769 281.19 90.0382C301.285 106.69 304.086 136.504 287.442 156.611C270.808 176.719 241.036 179.523 220.942 162.87Z" fill="#002E47" stroke="#002E47" stroke-miterlimit="10" stroke-linejoin="round"/>
<path d="M200.567 210.575L208.672 197.758C208.672 197.758 211.663 191.987 212.512 190.92C213.361 189.852 216.777 188.568 214.003 188.568C211.229 188.568 210.371 190.277 210.371 190.277C210.371 190.277 210.362 187.048 210.362 185.764C210.362 184.479 210.371 181.305 208.663 181.522C206.955 181.739 207.57 184.208 207.244 186.677C207.1 187.754 205.889 192.629 205.889 192.629L204.055 185.438C203.874 184.724 203.188 184.208 202.465 184.317C202.121 184.371 201.841 184.534 201.841 184.932C201.841 185.999 202.907 190.703 202.907 190.703L202.248 194.285C202.248 194.285 201.371 188.631 200.034 187.13C199.447 186.469 198.435 187.691 198.869 188.758C199.293 189.825 199.492 195.831 199.492 195.831L199.275 198.391C199.275 198.391 197.784 195.831 196.926 194.547C196.077 193.262 194.794 193.905 195.435 195.831C196.077 197.758 197.568 200.96 197.568 200.96L196.077 205.663C196.086 205.654 193.736 212.918 200.567 210.575Z" fill="white" stroke="#002E47" stroke-miterlimit="10" stroke-linejoin="round"/>
<path d="M210.381 190.277L208.891 194.547" stroke="#002E47" stroke-miterlimit="10" stroke-linejoin="round"/>
<path d="M108.567 208.585C108.567 208.585 103.472 209.924 103.472 212.067C103.472 214.202 103.472 258.641 103.255 260.134C103.038 261.626 149.778 255.005 149.778 255.005L150.844 247.742L122.247 241.971L122.03 221.466" fill="#39B4EF"/>
<path d="M108.567 208.585C108.567 208.585 103.472 209.924 103.472 212.067C103.472 214.202 103.472 258.641 103.255 260.134C103.038 261.626 149.778 255.005 149.778 255.005L150.844 247.742L122.247 241.971L122.03 221.466" stroke="#002E47" stroke-miterlimit="10" stroke-linejoin="round"/>
<path d="M146.145 246.792L145.938 255.43C145.938 255.43 145.992 255.467 146.082 255.521C148.386 255.204 149.778 255.005 149.778 255.005L150.844 247.742L146.145 246.792Z" fill="#39B4EF" stroke="#002E47" stroke-miterlimit="10" stroke-linejoin="round"/>
<path d="M150.845 247.742C150.845 247.742 156.817 240.053 159.383 240.053C161.94 240.053 165.789 240.271 166.639 240.271C167.488 240.271 169.412 239.845 168.346 241.338C167.28 242.83 163.648 242.622 163.648 242.622L168.4 245.218C169.792 245.978 170.126 247.878 169.015 248.999C169.006 249.008 168.997 249.017 168.979 249.035C167.913 250.103 165.139 250.103 165.139 250.103C165.139 250.103 162.148 255.014 160.232 255.439C158.308 255.865 150.203 253.947 150.203 253.947L150.845 247.742Z" fill="white" stroke="#002E47" stroke-miterlimit="10" stroke-linejoin="round"/>
<path d="M145.839 208.567L146.39 194.565L140.941 192.747L141.845 198.382L145.839 208.567Z" fill="#39B4EF" stroke="#002E47" stroke-miterlimit="10" stroke-linejoin="round"/>
<path d="M146.392 194.565L150.385 202.751L146.211 202.38L146.392 194.565Z" fill="#39B4EF" stroke="#002E47" stroke-miterlimit="10" stroke-linejoin="round"/>
<path d="M148.927 183.846C147.111 184.389 142.747 194.936 142.747 194.936L145.837 208.567L140.94 201.665L139.594 195.017L128.038 190.214L128.218 182.571C128.218 182.571 126.881 181.874 125.209 180.653C123.466 179.378 121.36 177.533 120.05 175.299C117.502 170.939 113.879 164.218 119.508 156.946C124.947 149.927 130.549 149.511 136.639 149.158C136.865 149.149 137.082 149.131 137.308 149.122C137.308 149.122 144.392 153.491 144.572 155.67C144.753 157.85 145.666 160.944 147.662 162.219C149.659 163.495 152.379 162.029 152.379 164.761C152.379 167.493 150.192 169.311 150.192 169.311C150.192 169.311 152.009 177.677 152.912 180.4C153.834 183.114 150.744 183.295 148.927 183.846Z" fill="white" stroke="#002E47" stroke-miterlimit="10" stroke-linejoin="round"/>
<path d="M143.542 162.445C144.012 163.16 144.121 163.92 143.777 164.137C143.443 164.354 142.792 163.956 142.323 163.241C141.853 162.527 141.744 161.767 142.088 161.55C142.422 161.333 143.073 161.74 143.542 162.445Z" fill="#002E47"/>
<path d="M139.305 162.029C139.305 162.029 139.485 158.936 142.395 158.936" stroke="#002E47" stroke-miterlimit="10" stroke-linejoin="round"/>
<path d="M147.654 172.938C147.654 172.938 142.747 174.032 141.844 171.12" stroke="#002E47" stroke-miterlimit="10" stroke-linejoin="round"/>
<path d="M135.672 155.67C137.299 157.299 131.308 161.306 130.405 163.124C129.492 164.942 131.128 167.845 131.308 169.121C131.489 170.396 127.134 174.023 127.134 174.023L125.499 175.66L126.773 180.744C126.773 180.744 126.194 180.744 125.209 180.653C123.466 179.378 121.36 177.533 120.05 175.299C117.502 170.939 113.879 164.218 119.508 156.946C124.947 149.927 130.549 149.511 136.639 149.158C135.582 149.872 134.245 150.189 133.486 150.94C132.402 152.025 134.037 154.024 135.672 155.67Z" fill="#B3C7EB" stroke="#002E47" stroke-miterlimit="10" stroke-linejoin="round"/>
<path d="M129.319 174.756C129.319 174.756 126.6 170.577 123.329 172.938C120.058 175.299 126.058 180.753 127.142 181.666C128.226 182.571 131.678 179.125 131.678 179.125C131.678 179.125 133.494 182.037 137.126 182.58" fill="white"/>
<path d="M129.319 174.756C129.319 174.756 126.6 170.577 123.329 172.938C120.058 175.299 126.058 180.753 127.142 181.666C128.226 182.571 131.678 179.125 131.678 179.125C131.678 179.125 133.494 182.037 137.126 182.58" stroke="#002E47" stroke-miterlimit="10" stroke-linejoin="round"/>
<path d="M132.582 152.396C132.582 152.396 124.776 161.125 122.779 165.123C120.782 169.121 119.327 173.851 119.327 173.851C119.327 173.851 115.334 173.49 112.975 170.939C110.617 168.397 113.156 158.393 117.692 153.491C122.228 148.579 127.495 146.037 127.495 146.037C127.495 146.037 121.686 146.218 123.863 144.581C126.041 142.944 131.489 142.22 135.121 144.038C138.753 145.856 137.299 149.131 137.299 149.131L132.582 152.396Z" fill="#002E47" stroke="#002E47" stroke-miterlimit="10" stroke-linejoin="round"/>
<path d="M126.956 189.111L123.215 197.061L137.852 205.473L140.328 194.474L126.956 189.111Z" fill="#39B4EF" stroke="#002E47" stroke-miterlimit="10" stroke-linejoin="round"/>
</svg>
