<svg width="20" height="21" viewBox="0 0 20 21" fill="none" xmlns="http://www.w3.org/2000/svg">
<g clip-path="url(#clip0_741_58559)">
<mask id="path-1-inside-1_741_58559" fill="white">
<path d="M10 0.5C4.47254 0.5 0 4.97293 0 10.5C0 16.0275 4.47293 20.5 10 20.5C15.5275 20.5 20 16.0271 20 10.5C20 4.97254 15.527 0.5 10 0.5ZM10 18.9375C5.33621 18.9375 1.5625 15.1635 1.5625 10.5C1.5625 5.83621 5.33652 2.0625 10 2.0625C14.6638 2.0625 18.4375 5.83652 18.4375 10.5C18.4375 15.1638 14.6634 18.9375 10 18.9375Z"/>
</mask>
<path d="M10 0.5C4.47254 0.5 0 4.97293 0 10.5C0 16.0275 4.47293 20.5 10 20.5C15.5275 20.5 20 16.0271 20 10.5C20 4.97254 15.527 0.5 10 0.5ZM10 18.9375C5.33621 18.9375 1.5625 15.1635 1.5625 10.5C1.5625 5.83621 5.33652 2.0625 10 2.0625C14.6638 2.0625 18.4375 5.83652 18.4375 10.5C18.4375 15.1638 14.6634 18.9375 10 18.9375Z" fill="#39B4EF"/>
<path d="M10 -2.5C2.81561 -2.5 -3 3.31615 -3 10.5H3C3 6.62971 6.12947 3.5 10 3.5V-2.5ZM-3 10.5C-3 17.6844 2.81615 23.5 10 23.5V17.5C6.12971 17.5 3 14.3705 3 10.5H-3ZM10 23.5C17.1844 23.5 23 17.6838 23 10.5H17C17 14.3703 13.8705 17.5 10 17.5V23.5ZM23 10.5C23 3.3156 17.1838 -2.5 10 -2.5V3.5C13.8703 3.5 17 6.62948 17 10.5H23ZM10 15.9375C6.99314 15.9375 4.5625 13.5067 4.5625 10.5H-1.4375C-1.4375 16.8203 3.67928 21.9375 10 21.9375V15.9375ZM4.5625 10.5C4.5625 7.49314 6.99331 5.0625 10 5.0625V-0.9375C3.67974 -0.9375 -1.4375 4.17928 -1.4375 10.5H4.5625ZM10 5.0625C13.0069 5.0625 15.4375 7.49331 15.4375 10.5H21.4375C21.4375 4.17974 16.3207 -0.9375 10 -0.9375V5.0625ZM15.4375 10.5C15.4375 13.5069 13.0067 15.9375 10 15.9375V21.9375C16.3202 21.9375 21.4375 16.8207 21.4375 10.5H15.4375Z" fill="#39B4EF" mask="url(#path-1-inside-1_741_58559)"/>
<path d="M10 8.87231C9.56852 8.87231 9.21875 9.22208 9.21875 9.65356V14.6845C9.21875 15.116 9.56852 15.4658 10 15.4658C10.4315 15.4658 10.7812 15.116 10.7812 14.6845V9.65356C10.7812 9.22208 10.4315 8.87231 10 8.87231Z" fill="#39B4EF"/>
<path d="M10 7.91565C10.5825 7.91565 11.0547 7.44345 11.0547 6.86096C11.0547 6.27847 10.5825 5.80627 10 5.80627C9.41751 5.80627 8.94531 6.27847 8.94531 6.86096C8.94531 7.44345 9.41751 7.91565 10 7.91565Z" fill="#39B4EF"/>
</g>
<defs>
<clipPath id="clip0_741_58559">
<rect width="20" height="20" fill="white" transform="translate(0 0.5)"/>
</clipPath>
</defs>
</svg>
