<svg width="20" height="19" viewBox="0 0 20 19" fill="none" xmlns="http://www.w3.org/2000/svg">
<path d="M8.52289 1.46425L0.22874 15.8291C0.0789182 16.0885 2.77288e-05 16.3828 7.3004e-09 16.6824C-2.77142e-05 16.9819 0.0788082 17.2762 0.228582 17.5356C0.378355 17.7951 0.593789 18.0105 0.853223 18.1603C1.11266 18.3101 1.40695 18.3889 1.70652 18.3889H18.2935C18.5931 18.3889 18.8873 18.3101 19.1468 18.1603C19.4062 18.0105 19.6216 17.7951 19.7714 17.5356C19.9212 17.2762 20 16.9819 20 16.6824C20 16.3828 19.9211 16.0885 19.7713 15.8291L11.478 1.46425C11.3282 1.20489 11.1129 0.989518 10.8535 0.839778C10.5941 0.690038 10.2999 0.611206 10.0004 0.611206C9.70096 0.611206 9.40675 0.690038 9.14738 0.839778C8.88802 0.989518 8.67264 1.20489 8.52289 1.46425Z" fill="#FFB618"/>
<path d="M10.1092 5.89473H9.89282C9.36015 5.89473 8.92834 6.32654 8.92834 6.85921V11.4693C8.92834 12.0019 9.36015 12.4338 9.89282 12.4338H10.1092C10.6418 12.4338 11.0737 12.0019 11.0737 11.4693V6.85921C11.0737 6.32654 10.6418 5.89473 10.1092 5.89473Z" fill="#FFE4AA"/>
<path d="M10.001 16.09C10.5934 16.09 11.0737 15.6098 11.0737 15.0174C11.0737 14.4249 10.5934 13.9447 10.001 13.9447C9.40858 13.9447 8.92834 14.4249 8.92834 15.0174C8.92834 15.6098 9.40858 16.09 10.001 16.09Z" fill="#FFE4AA"/>
</svg>
