<svg width="578" height="398" viewBox="0 0 578 398" fill="none" xmlns="http://www.w3.org/2000/svg">
<g clip-path="url(#clip0_82_6107)">
<path d="M577.033 395.952C577.033 396.072 448.032 396.174 288.94 396.174C129.798 396.174 0.822266 396.072 0.822266 395.952C0.822266 395.832 129.798 395.729 288.94 395.729C448.04 395.729 577.033 395.832 577.033 395.952Z" fill="#263238"/>
<path d="M480.083 179.954C479.8 162.414 493.792 147.92 511.261 147.638C528.738 147.356 543.175 161.396 543.457 178.936C543.74 196.476 529.748 210.97 512.28 211.252C494.811 211.535 480.365 197.494 480.083 179.954ZM526.922 179.193C526.785 170.808 519.883 164.091 511.526 164.228C503.169 164.365 496.481 171.296 496.618 179.68C496.755 188.065 503.657 194.782 512.014 194.645C520.372 194.517 527.059 187.586 526.922 179.193Z" fill="#455A64"/>
<path d="M480.083 179.954C479.8 162.414 493.792 147.92 511.261 147.638L511.526 164.237C503.169 164.374 496.481 171.304 496.618 179.689C496.755 188.074 503.657 194.79 512.014 194.654L512.28 211.252C494.811 211.535 480.365 197.494 480.083 179.954Z" fill="#39B4EF"/>
<path d="M508.417 145.08C528.857 144.746 545.17 160.6 545.495 181.118L526.151 181.426C525.997 171.612 518.522 165.435 508.751 165.597L508.417 145.08Z" fill="#263238"/>
<path d="M237.185 60.8085C237.417 47.8588 227.099 37.1731 214.139 36.9412C201.179 36.7094 190.484 47.0192 190.252 59.9689C190.02 72.9186 200.338 83.6043 213.298 83.8361C226.259 84.068 236.953 73.7582 237.185 60.8085Z" fill="#39B4EF"/>
<g opacity="0.1">
<path d="M218.158 37.359C205.425 34.9205 193.129 43.2541 190.688 55.9684C190.688 55.9684 206.744 59.793 211.89 54.0262C217.037 48.2594 218.158 37.359 218.158 37.359Z" fill="white"/>
</g>
<path d="M230.96 63.3095C229.102 72.9779 219.751 79.3093 210.075 77.4612C200.399 75.6046 194.062 66.2613 195.912 56.593C197.77 46.9247 207.121 40.5932 216.797 42.4413C226.481 44.298 232.818 53.6412 230.96 63.3095Z" fill="#39B4EF"/>
<g opacity="0.2">
<path d="M230.96 63.3095C229.102 72.9779 219.751 79.3093 210.075 77.4612C200.399 75.6046 194.062 66.2613 195.912 56.593C197.77 46.9247 207.121 40.5932 216.797 42.4413C226.481 44.298 232.818 53.6412 230.96 63.3095Z" fill="black"/>
</g>
<path d="M231.32 64.1309C229.487 73.6709 220.265 79.9168 210.717 78.0858C201.17 76.2548 194.919 67.0399 196.751 57.4999C198.584 47.9599 207.806 41.714 217.354 43.545C226.893 45.376 233.152 54.5909 231.32 64.1309Z" fill="#39B4EF"/>
<g opacity="0.2">
<path d="M231.32 64.1309C229.487 73.6709 220.265 79.9168 210.717 78.0858C201.17 76.2548 194.919 67.0399 196.751 57.4999C198.584 47.9599 207.806 41.714 217.354 43.545C226.893 45.376 233.152 54.5909 231.32 64.1309Z" fill="white"/>
</g>
<path d="M215.007 59.4593L215.855 55.0444C215.863 55.0444 215.872 55.0444 215.88 55.0444C216.634 55.2839 217.388 55.6347 218.115 56.1053C218.706 56.5673 219.083 57.0123 219.083 57.0123L219.169 56.8839L220.153 55.4208L220.385 55.0871L219.759 54.1118L219.348 54.2059C218.475 53.5385 217.447 52.9481 216.326 52.6658L216.788 50.2359L216.146 49.4829L216.026 50.0904L214.99 49.8936L214.502 52.3663C211.017 52.0412 209.021 53.6754 208.593 55.9085C208.011 58.9545 210.469 60.2379 212.781 61.2988L211.941 65.6795C210.306 65.209 208.782 64.2592 207.883 63.1726L206.47 65.1918C207.42 66.3983 209.364 67.4934 211.488 68.041L211.137 69.872L210.28 69.7266L211.025 70.4709L212.823 70.8132L213.294 68.3576C216.805 68.6656 218.818 67.0571 219.246 64.8239C219.828 61.7865 217.328 60.5117 215.007 59.4593ZM213.294 58.655C212.096 58.039 211.248 57.3802 211.445 56.3278C211.633 55.3609 212.438 54.7021 214.039 54.762L213.294 58.655ZM213.757 65.979L214.502 62.1031C215.743 62.7277 216.608 63.4122 216.403 64.4902C216.223 65.4314 215.401 66.0474 213.757 65.979Z" fill="#39B4EF"/>
<g opacity="0.3">
<path d="M215.007 59.4593L215.855 55.0444C215.863 55.0444 215.872 55.0444 215.88 55.0444C216.634 55.2839 217.388 55.6347 218.115 56.1053C218.706 56.5673 219.083 57.0123 219.083 57.0123L219.169 56.8839L220.153 55.4208L220.385 55.0871L219.759 54.1118L219.348 54.2059C218.475 53.5385 217.447 52.9481 216.326 52.6658L216.788 50.2359L216.146 49.4829L216.026 50.0904L214.99 49.8936L214.502 52.3663C211.017 52.0412 209.021 53.6754 208.593 55.9085C208.011 58.9545 210.469 60.2379 212.781 61.2988L211.941 65.6795C210.306 65.209 208.782 64.2592 207.883 63.1726L206.47 65.1918C207.42 66.3983 209.364 67.4934 211.488 68.041L211.137 69.872L210.28 69.7266L211.025 70.4709L212.823 70.8132L213.294 68.3576C216.805 68.6656 218.818 67.0571 219.246 64.8239C219.828 61.7865 217.328 60.5117 215.007 59.4593ZM213.294 58.655C212.096 58.039 211.248 57.3802 211.445 56.3278C211.633 55.3609 212.438 54.7021 214.039 54.762L213.294 58.655ZM213.757 65.979L214.502 62.1031C215.743 62.7277 216.608 63.4122 216.403 64.4902C216.223 65.4314 215.401 66.0474 213.757 65.979Z" fill="black"/>
</g>
<path d="M212.669 67.6218L212.198 70.0773L210.4 69.7351L210.863 67.3052C208.739 66.7576 206.795 65.6624 205.845 64.456L207.258 62.4368C208.165 63.5149 209.681 64.4646 211.325 64.9437L212.164 60.563C209.844 59.5021 207.386 58.2187 207.977 55.1727C208.405 52.9396 210.4 51.2968 213.885 51.6305L214.356 49.1578L216.155 49.5L215.684 51.93C217.285 52.3321 218.843 53.1278 219.879 54.1203L218.552 56.1566C217.525 55.2583 216.369 54.6508 215.23 54.2914L214.382 58.7149C216.703 59.7759 219.203 61.0507 218.621 64.0881C218.193 66.3212 216.18 67.9298 212.669 67.6218ZM212.669 57.9106L213.414 54.0091C211.813 53.9492 211 54.6166 210.82 55.5748C210.623 56.6272 211.471 57.2946 212.669 57.9106ZM215.778 63.7459C215.983 62.6764 215.118 61.9833 213.877 61.3587L213.132 65.2346C214.776 65.3031 215.598 64.687 215.778 63.7459Z" fill="#39B4EF"/>
<path d="M192.033 67.425C192.024 67.425 191.998 67.3565 191.956 67.2282C191.913 67.0742 191.853 66.8859 191.776 66.6464C191.699 66.3983 191.604 66.0817 191.536 65.7138C191.459 65.3459 191.348 64.9352 191.279 64.4646C191.245 64.2336 191.202 63.9855 191.159 63.7373C191.116 63.4806 191.099 63.2154 191.074 62.9416C191.005 62.394 190.988 61.7951 190.962 61.1705C190.945 59.9213 191.005 58.5524 191.219 57.1235C191.442 55.7032 191.784 54.3684 192.17 53.1791C192.384 52.5888 192.572 52.0326 192.803 51.5278C192.915 51.2711 193.009 51.023 193.12 50.792C193.231 50.561 193.343 50.3385 193.454 50.1332C193.651 49.7054 193.882 49.346 194.062 49.0209C194.242 48.6958 194.422 48.422 194.567 48.2081C194.704 48.0027 194.816 47.8402 194.91 47.7033C194.987 47.592 195.03 47.5322 195.038 47.5322C195.047 47.5322 195.012 47.6006 194.935 47.7204C194.858 47.8573 194.747 48.0284 194.627 48.2423C194.49 48.4648 194.319 48.7386 194.148 49.0722C193.976 49.3974 193.754 49.7653 193.565 50.1931C193.463 50.407 193.36 50.6294 193.249 50.8605C193.137 51.0915 193.043 51.3396 192.94 51.5963C192.718 52.1011 192.529 52.6572 192.324 53.2476C191.947 54.4283 191.613 55.7545 191.39 57.1663C191.185 58.578 191.116 59.947 191.125 61.1876C191.151 61.8037 191.159 62.394 191.228 62.9416C191.253 63.2154 191.27 63.4806 191.305 63.7373C191.339 63.994 191.382 64.2336 191.416 64.4646C191.476 64.9266 191.57 65.3459 191.647 65.7138C191.716 66.0817 191.793 66.3897 191.861 66.6464C191.921 66.8859 191.973 67.0827 192.007 67.2367C192.024 67.3565 192.041 67.425 192.033 67.425Z" fill="white"/>
<path d="M209.116 57.2861C209.107 57.2946 208.893 57.0978 208.705 56.6871C208.517 56.2764 208.371 55.6262 208.534 54.9331C208.696 54.2401 209.107 53.7182 209.459 53.4358C209.81 53.1449 210.084 53.0594 210.092 53.0765C210.109 53.1021 209.861 53.2305 209.544 53.5299C209.227 53.8294 208.859 54.3342 208.714 54.9759C208.568 55.6262 208.679 56.2337 208.833 56.6444C208.97 57.0465 209.142 57.2689 209.116 57.2861Z" fill="white"/>
<path d="M214.314 51.331C214.262 51.3225 214.288 50.9888 214.365 50.5952C214.442 50.2016 214.545 49.8851 214.588 49.8936C214.639 49.9022 214.614 50.2359 214.536 50.6294C214.468 51.023 214.365 51.3396 214.314 51.331Z" fill="white"/>
<path d="M218.475 42.2958C218.475 42.3044 218.27 42.2616 217.919 42.1675C217.739 42.1162 217.525 42.0563 217.268 42.0049C217.011 41.9536 216.72 41.8766 216.395 41.8253C216.069 41.7654 215.718 41.7055 215.333 41.6627C214.947 41.6028 214.536 41.5857 214.108 41.5515C213.243 41.5087 212.284 41.5172 211.282 41.6114C210.289 41.714 209.347 41.8937 208.499 42.1076C208.08 42.2274 207.677 42.3301 207.318 42.4584C206.95 42.5696 206.616 42.7065 206.307 42.8263C205.999 42.9375 205.734 43.0659 205.494 43.1686C205.254 43.2712 205.049 43.3653 204.886 43.4509C204.552 43.6135 204.372 43.699 204.364 43.6905C204.355 43.6819 204.535 43.5707 204.852 43.391C205.014 43.2969 205.211 43.1857 205.451 43.083C205.691 42.9718 205.956 42.8349 206.265 42.7151C206.573 42.5867 206.907 42.4498 207.275 42.3301C207.643 42.1932 208.046 42.0819 208.465 41.9621C209.313 41.7397 210.263 41.5515 211.265 41.4488C212.276 41.3547 213.235 41.3547 214.117 41.3975C214.553 41.4317 214.973 41.4659 215.35 41.5258C215.735 41.5686 216.095 41.637 216.42 41.7055C216.746 41.7654 217.037 41.8424 217.294 41.9108C217.551 41.9707 217.765 42.0392 217.944 42.099C218.287 42.2188 218.475 42.2873 218.475 42.2958Z" fill="white"/>
<path d="M212.353 82.766C212.353 82.7745 212.199 82.7917 211.925 82.8002C211.642 82.8088 211.24 82.8088 210.743 82.7745C209.75 82.7232 208.371 82.5264 206.907 82.0901C205.443 81.6451 204.192 81.0548 203.327 80.55C202.899 80.3018 202.557 80.0794 202.334 79.9168C202.103 79.7543 201.983 79.6601 201.992 79.6516C202 79.643 202.137 79.72 202.368 79.8569C202.608 80.0024 202.951 80.2077 203.387 80.4387C204.261 80.9093 205.511 81.4826 206.958 81.9189C208.405 82.3553 209.767 82.5606 210.752 82.6462C211.248 82.689 211.642 82.7147 211.925 82.7232C212.199 82.7403 212.353 82.7489 212.353 82.766Z" fill="white"/>
<path d="M219.229 184.977C221.361 192.66 216.857 200.617 209.167 202.748C201.478 204.878 193.514 200.378 191.382 192.694C189.25 185.011 193.754 177.054 201.444 174.923C209.133 172.793 217.097 177.293 219.229 184.977Z" fill="#39B4EF"/>
<g opacity="0.1">
<path d="M201.444 174.923C193.754 177.054 189.25 185.011 191.382 192.694C191.382 192.694 201.289 190.418 202.548 185.832C203.807 181.238 201.444 174.923 201.444 174.923Z" fill="white"/>
</g>
<path d="M215.607 185.747C217.225 191.59 213.8 197.631 207.96 199.257C202.112 200.874 196.066 197.451 194.439 191.616C192.821 185.772 196.246 179.732 202.086 178.106C207.934 176.48 213.988 179.903 215.607 185.747Z" fill="#39B4EF"/>
<g opacity="0.2">
<path d="M215.607 185.747C217.225 191.59 213.8 197.631 207.96 199.257C202.112 200.874 196.066 197.451 194.439 191.616C192.821 185.772 196.246 179.732 202.086 178.106C207.934 176.48 213.988 179.903 215.607 185.747Z" fill="black"/>
</g>
<path d="M216.026 186.097C217.628 191.856 214.245 197.828 208.482 199.419C202.72 201.019 196.743 197.64 195.15 191.881C193.549 186.123 196.931 180.151 202.694 178.56C208.457 176.96 214.425 180.339 216.026 186.097Z" fill="#39B4EF"/>
<g opacity="0.2">
<path d="M216.026 186.097C217.628 191.856 214.245 197.828 208.482 199.419C202.72 201.019 196.743 197.64 195.15 191.881C193.549 186.123 196.931 180.151 202.694 178.56C208.457 176.96 214.425 180.339 216.026 186.097Z" fill="white"/>
</g>
<path d="M205.751 187.971L205.014 185.302C205.023 185.302 205.023 185.302 205.031 185.302C205.511 185.225 206.025 185.216 206.555 185.276C207.009 185.37 207.335 185.507 207.335 185.507L207.343 185.413L207.489 184.335L207.523 184.087L206.907 183.719L206.71 183.881C206.042 183.753 205.314 183.71 204.62 183.856L204.209 182.384L203.653 182.145L203.755 182.512L203.13 182.684L203.541 184.181C201.529 184.951 200.878 186.397 201.255 187.749C201.769 189.588 203.473 189.623 205.04 189.58L205.776 192.224C204.749 192.412 203.644 192.301 202.848 191.95L202.625 193.447C203.481 193.849 204.851 193.926 206.17 193.644L206.478 194.756L205.965 194.91L206.581 195.116L207.669 194.816L207.258 193.336C209.278 192.549 209.946 191.111 209.57 189.759C209.047 187.946 207.318 187.92 205.751 187.971ZM204.586 187.997C203.755 187.988 203.105 187.851 202.933 187.218C202.771 186.637 203.036 186.046 203.935 185.644L204.586 187.997ZM206.847 191.916L206.196 189.571C207.052 189.58 207.72 189.717 207.9 190.367C208.054 190.94 207.771 191.505 206.847 191.916Z" fill="#39B4EF"/>
<g opacity="0.3">
<path d="M205.751 187.971L205.014 185.302C205.023 185.302 205.023 185.302 205.031 185.302C205.511 185.225 206.025 185.216 206.555 185.276C207.009 185.37 207.335 185.507 207.335 185.507L207.343 185.413L207.489 184.335L207.523 184.087L206.907 183.719L206.71 183.881C206.042 183.753 205.314 183.71 204.62 183.856L204.209 182.384L203.653 182.145L203.755 182.512L203.13 182.684L203.541 184.181C201.529 184.951 200.878 186.397 201.255 187.749C201.769 189.588 203.473 189.623 205.04 189.58L205.776 192.224C204.749 192.412 203.644 192.301 202.848 191.95L202.625 193.447C203.481 193.849 204.851 193.926 206.17 193.644L206.478 194.756L205.965 194.91L206.581 195.116L207.669 194.816L207.258 193.336C209.278 192.549 209.946 191.111 209.57 189.759C209.047 187.946 207.318 187.92 205.751 187.971ZM204.586 187.997C203.755 187.988 203.105 187.851 202.933 187.218C202.771 186.637 203.036 186.046 203.935 185.644L204.586 187.997ZM206.847 191.916L206.196 189.571C207.052 189.58 207.72 189.717 207.9 190.367C208.054 190.94 207.771 191.505 206.847 191.916Z" fill="black"/>
</g>
<path d="M206.692 193.122L207.103 194.602L206.016 194.902L205.605 193.43C204.286 193.712 202.908 193.635 202.06 193.233L202.283 191.736C203.079 192.087 204.175 192.189 205.211 192.01L204.475 189.366C202.908 189.417 201.195 189.374 200.69 187.535C200.313 186.183 200.972 184.737 202.976 183.967L202.565 182.47L203.653 182.17L204.064 183.642C205.057 183.419 206.127 183.436 206.975 183.702L206.804 185.19C205.99 184.976 205.185 184.959 204.458 185.071L205.203 187.74C206.77 187.689 208.499 187.706 209.013 189.545C209.381 190.889 208.713 192.326 206.692 193.122ZM204.038 187.757L203.387 185.404C202.488 185.806 202.223 186.397 202.385 186.979C202.557 187.612 203.207 187.749 204.038 187.757ZM207.352 190.127C207.172 189.477 206.504 189.34 205.648 189.332L206.299 191.676C207.223 191.265 207.506 190.7 207.352 190.127Z" fill="#39B4EF"/>
<path d="M195.261 198.641C195.261 198.641 195.227 198.615 195.167 198.555C195.098 198.487 195.013 198.393 194.91 198.281C194.799 198.162 194.662 198.016 194.525 197.836C194.379 197.657 194.208 197.46 194.045 197.22C193.959 197.101 193.874 196.981 193.78 196.852C193.685 196.724 193.608 196.579 193.514 196.433C193.326 196.151 193.154 195.826 192.966 195.492C192.615 194.808 192.273 194.038 191.998 193.19C191.733 192.343 191.553 191.513 191.45 190.752C191.408 190.367 191.356 190.008 191.348 189.665C191.339 189.494 191.322 189.332 191.322 189.169C191.322 189.015 191.322 188.861 191.322 188.716C191.313 188.425 191.339 188.16 191.356 187.937C191.365 187.706 191.391 187.509 191.416 187.347C191.433 187.193 191.45 187.073 191.468 186.979C191.476 186.893 191.485 186.85 191.493 186.85C191.493 186.85 191.493 186.893 191.493 186.979C191.485 187.073 191.476 187.201 191.459 187.347C191.442 187.509 191.425 187.706 191.425 187.937C191.416 188.168 191.399 188.425 191.408 188.716C191.408 188.861 191.408 189.015 191.416 189.169C191.416 189.323 191.433 189.486 191.45 189.657C191.468 189.999 191.519 190.358 191.562 190.735C191.673 191.488 191.853 192.309 192.118 193.148C192.392 193.986 192.726 194.756 193.069 195.441C193.249 195.774 193.42 196.1 193.6 196.382C193.694 196.527 193.771 196.664 193.857 196.801C193.942 196.929 194.036 197.058 194.114 197.178C194.276 197.417 194.439 197.623 194.576 197.802C194.713 197.99 194.841 198.136 194.953 198.256C195.055 198.375 195.133 198.47 195.192 198.538C195.235 198.606 195.261 198.641 195.261 198.641Z" fill="white"/>
<path d="M201.906 188.382C201.906 188.391 201.735 188.339 201.512 188.159C201.298 187.988 201.041 187.663 200.938 187.244C200.835 186.816 200.921 186.414 201.032 186.166C201.144 185.909 201.272 185.781 201.281 185.789C201.298 185.798 201.195 185.935 201.101 186.192C201.007 186.44 200.947 186.825 201.041 187.218C201.135 187.612 201.366 187.92 201.563 188.108C201.76 188.296 201.914 188.365 201.906 188.382Z" fill="white"/>
<path d="M203.147 183.685C203.122 183.693 203.045 183.505 202.976 183.265C202.908 183.026 202.882 182.821 202.908 182.812C202.933 182.803 203.01 182.992 203.079 183.231C203.147 183.471 203.173 183.676 203.147 183.685Z" fill="white"/>
<path d="M202.968 177.559C202.968 177.567 202.848 177.593 202.625 177.636C202.514 177.653 202.377 177.687 202.223 177.73C202.069 177.772 201.889 177.807 201.692 177.867C201.495 177.926 201.281 177.986 201.058 178.072C200.836 178.149 200.596 178.243 200.347 178.346C199.859 178.56 199.328 178.825 198.806 179.15C198.284 179.475 197.813 179.834 197.41 180.177C197.213 180.356 197.016 180.519 196.854 180.69C196.683 180.853 196.528 181.015 196.4 181.169C196.263 181.315 196.152 181.46 196.04 181.58C195.938 181.7 195.852 181.811 195.783 181.905C195.646 182.085 195.569 182.179 195.561 182.179C195.552 182.179 195.621 182.068 195.749 181.879C195.809 181.785 195.895 181.674 195.997 181.546C196.1 181.417 196.203 181.272 196.349 181.118C196.486 180.964 196.631 180.793 196.802 180.63C196.965 180.459 197.162 180.288 197.359 180.1C197.77 179.749 198.241 179.381 198.763 179.056C199.294 178.731 199.825 178.465 200.322 178.252C200.57 178.149 200.81 178.055 201.041 177.986C201.264 177.909 201.486 177.849 201.683 177.798C201.88 177.738 202.06 177.704 202.223 177.67C202.377 177.636 202.522 177.61 202.634 177.601C202.839 177.567 202.968 177.559 202.968 177.559Z" fill="white"/>
<path d="M210.657 201.558C210.657 201.567 210.58 201.61 210.426 201.695C210.272 201.781 210.049 201.883 209.767 202.003C209.202 202.243 208.388 202.517 207.463 202.671C206.539 202.825 205.682 202.842 205.066 202.799C204.758 202.782 204.509 202.748 204.347 202.722C204.175 202.696 204.081 202.679 204.081 202.671C204.081 202.662 204.175 202.671 204.347 202.679C204.518 202.696 204.766 202.713 205.066 202.722C205.674 202.748 206.522 202.722 207.438 202.568C208.354 202.414 209.159 202.157 209.733 201.935C210.015 201.824 210.246 201.729 210.401 201.661C210.572 201.584 210.657 201.55 210.657 201.558Z" fill="white"/>
<path d="M351.021 165.092C352.468 170.303 349.411 175.693 344.197 177.139C338.982 178.585 333.587 175.531 332.14 170.32C330.693 165.109 333.75 159.719 338.965 158.273C344.179 156.827 349.583 159.882 351.021 165.092Z" fill="#39B4EF"/>
<g opacity="0.1">
<path d="M338.973 158.273C333.758 159.719 330.71 165.109 332.149 170.32C332.149 170.32 338.862 168.78 339.718 165.666C340.575 162.56 338.973 158.273 338.973 158.273Z" fill="white"/>
</g>
<path d="M348.572 165.606C349.668 169.567 347.348 173.666 343.383 174.761C339.418 175.856 335.317 173.537 334.221 169.576C333.125 165.614 335.445 161.516 339.41 160.421C343.366 159.334 347.468 161.653 348.572 165.606Z" fill="#39B4EF"/>
<g opacity="0.2">
<path d="M348.572 165.606C349.668 169.567 347.348 173.666 343.383 174.761C339.418 175.856 335.317 173.537 334.221 169.576C333.125 165.614 335.445 161.516 339.41 160.421C343.366 159.334 347.468 161.653 348.572 165.606Z" fill="black"/>
</g>
<path d="M343.992 174.815C347.856 173.579 349.985 169.446 348.748 165.585C347.51 161.724 343.374 159.597 339.51 160.833C335.646 162.07 333.517 166.202 334.755 170.063C335.992 173.924 340.128 176.052 343.992 174.815Z" fill="#39B4EF"/>
<g opacity="0.2">
<path d="M343.992 174.815C347.856 173.579 349.985 169.446 348.748 165.585C347.51 161.724 343.374 159.597 339.51 160.833C335.646 162.07 333.517 166.202 334.755 170.063C335.992 173.924 340.128 176.052 343.992 174.815Z" fill="white"/>
</g>
<path d="M341.893 167.12L341.388 165.315H341.396C341.722 165.263 342.073 165.255 342.432 165.298C342.74 165.366 342.963 165.46 342.963 165.46L342.972 165.4L343.074 164.673L343.1 164.502L342.681 164.254L342.544 164.365C342.09 164.28 341.602 164.245 341.131 164.348L340.857 163.355L340.48 163.193L340.548 163.441L340.12 163.561L340.403 164.57C339.041 165.092 338.596 166.076 338.853 166.992C339.195 168.241 340.36 168.267 341.422 168.232L341.918 170.029C341.216 170.158 340.471 170.081 339.932 169.841L339.778 170.859C340.36 171.133 341.285 171.184 342.184 170.996L342.389 171.749L342.038 171.852L342.458 171.989L343.194 171.783L342.912 170.782C344.282 170.252 344.736 169.276 344.479 168.361C344.128 167.103 342.955 167.086 341.893 167.12ZM341.105 167.137C340.54 167.129 340.103 167.035 339.983 166.607C339.872 166.213 340.052 165.811 340.66 165.537L341.105 167.137ZM342.629 169.79L342.192 168.207C342.775 168.207 343.229 168.309 343.348 168.746C343.451 169.131 343.254 169.516 342.629 169.79Z" fill="#39B4EF"/>
<g opacity="0.3">
<path d="M341.893 167.12L341.388 165.315H341.396C341.722 165.263 342.073 165.255 342.432 165.298C342.74 165.366 342.963 165.46 342.963 165.46L342.972 165.4L343.074 164.673L343.1 164.502L342.681 164.254L342.544 164.365C342.09 164.28 341.602 164.245 341.131 164.348L340.857 163.355L340.48 163.193L340.548 163.441L340.12 163.561L340.403 164.57C339.041 165.092 338.596 166.076 338.853 166.992C339.195 168.241 340.36 168.267 341.422 168.232L341.918 170.029C341.216 170.158 340.471 170.081 339.932 169.841L339.778 170.859C340.36 171.133 341.285 171.184 342.184 170.996L342.389 171.749L342.038 171.852L342.458 171.989L343.194 171.783L342.912 170.782C344.282 170.252 344.736 169.276 344.479 168.361C344.128 167.103 342.955 167.086 341.893 167.12ZM341.105 167.137C340.54 167.129 340.103 167.035 339.983 166.607C339.872 166.213 340.052 165.811 340.66 165.537L341.105 167.137ZM342.629 169.79L342.192 168.207C342.775 168.207 343.229 168.309 343.348 168.746C343.451 169.131 343.254 169.516 342.629 169.79Z" fill="black"/>
</g>
<path d="M342.527 170.611L342.809 171.612L342.073 171.817L341.799 170.825C340.908 171.013 339.975 170.962 339.392 170.688L339.547 169.67C340.086 169.909 340.831 169.978 341.533 169.858L341.037 168.061C339.975 168.096 338.819 168.07 338.468 166.821C338.211 165.905 338.656 164.921 340.018 164.399L339.735 163.39L340.471 163.184L340.745 164.177C341.422 164.031 342.15 164.04 342.715 164.22L342.595 165.229C342.038 165.084 341.499 165.067 341.011 165.144L341.516 166.958C342.578 166.923 343.751 166.94 344.102 168.181C344.35 169.097 343.897 170.072 342.527 170.611ZM340.728 166.975L340.283 165.375C339.675 165.649 339.495 166.051 339.607 166.444C339.726 166.881 340.163 166.966 340.728 166.975ZM342.972 168.583C342.852 168.147 342.398 168.044 341.816 168.044L342.253 169.627C342.886 169.353 343.083 168.968 342.972 168.583Z" fill="#39B4EF"/>
<path d="M334.777 174.359C334.777 174.359 334.752 174.341 334.717 174.299C334.675 174.247 334.615 174.187 334.546 174.11C334.469 174.033 334.383 173.931 334.281 173.811C334.187 173.691 334.067 173.554 333.955 173.392C333.895 173.315 333.835 173.229 333.776 173.144C333.716 173.058 333.656 172.955 333.596 172.861C333.467 172.664 333.347 172.451 333.227 172.22C332.988 171.758 332.757 171.227 332.568 170.662C332.388 170.089 332.268 169.524 332.191 169.011C332.166 168.754 332.131 168.506 332.123 168.275C332.114 168.155 332.106 168.044 332.106 167.942C332.106 167.83 332.106 167.728 332.106 167.634C332.097 167.437 332.123 167.257 332.131 167.103C332.14 166.949 332.157 166.812 332.166 166.701C332.183 166.598 332.191 166.513 332.2 166.453C332.208 166.393 332.217 166.367 332.217 166.367C332.217 166.367 332.217 166.401 332.217 166.453C332.208 166.521 332.208 166.598 332.2 166.701C332.191 166.812 332.174 166.94 332.174 167.103C332.166 167.257 332.157 167.437 332.166 167.634C332.166 167.728 332.166 167.83 332.174 167.942C332.174 168.044 332.191 168.155 332.191 168.275C332.2 168.506 332.234 168.746 332.268 169.002C332.345 169.516 332.465 170.072 332.645 170.637C332.834 171.201 333.056 171.723 333.287 172.185C333.407 172.416 333.527 172.63 333.647 172.827C333.707 172.921 333.767 173.024 333.827 173.109C333.887 173.195 333.947 173.281 333.998 173.358C334.109 173.52 334.221 173.657 334.315 173.785C334.409 173.914 334.495 174.016 334.563 174.093C334.632 174.17 334.683 174.239 334.726 174.29C334.76 174.333 334.777 174.35 334.777 174.359Z" fill="white"/>
<path d="M339.281 167.403C339.281 167.411 339.161 167.377 339.016 167.257C338.87 167.137 338.699 166.923 338.622 166.632C338.553 166.342 338.613 166.076 338.69 165.897C338.767 165.726 338.853 165.64 338.862 165.64C338.87 165.649 338.802 165.743 338.742 165.914C338.682 166.085 338.63 166.342 338.699 166.607C338.767 166.872 338.921 167.086 339.05 167.206C339.187 167.334 339.29 167.394 339.281 167.403Z" fill="white"/>
<path d="M340.129 164.211C340.112 164.22 340.061 164.091 340.009 163.929C339.966 163.766 339.941 163.629 339.966 163.621C339.992 163.612 340.035 163.741 340.086 163.903C340.12 164.074 340.146 164.203 340.129 164.211Z" fill="white"/>
<path d="M340.001 160.061C340.001 160.07 339.915 160.087 339.77 160.113C339.693 160.13 339.598 160.147 339.496 160.173C339.393 160.198 339.264 160.224 339.136 160.267C339.007 160.301 338.862 160.344 338.708 160.404C338.554 160.455 338.4 160.523 338.228 160.592C337.894 160.737 337.543 160.917 337.184 161.139C336.832 161.362 336.516 161.601 336.233 161.841C336.096 161.961 335.968 162.072 335.856 162.192C335.736 162.303 335.634 162.414 335.548 162.517C335.454 162.62 335.377 162.714 335.308 162.799C335.24 162.885 335.18 162.953 335.137 163.022C335.043 163.142 334.991 163.21 334.983 163.21C334.983 163.21 335.026 163.133 335.111 163.005C335.154 162.936 335.206 162.859 335.274 162.774C335.343 162.688 335.42 162.585 335.505 162.483C335.599 162.38 335.694 162.269 335.814 162.149C335.925 162.029 336.053 161.918 336.19 161.79C336.464 161.55 336.79 161.302 337.141 161.08C337.5 160.857 337.86 160.677 338.194 160.532C338.365 160.464 338.528 160.395 338.682 160.352C338.836 160.301 338.982 160.258 339.119 160.224C339.247 160.181 339.376 160.164 339.478 160.138C339.581 160.113 339.675 160.096 339.752 160.087C339.915 160.07 340.001 160.061 340.001 160.061Z" fill="white"/>
<path d="M345.215 176.326C345.215 176.335 345.164 176.361 345.061 176.421C344.959 176.48 344.804 176.549 344.616 176.634C344.231 176.797 343.683 176.977 343.058 177.088C342.432 177.191 341.85 177.199 341.431 177.174C341.225 177.156 341.054 177.139 340.943 177.122C340.831 177.105 340.763 177.088 340.763 177.088C340.763 177.079 340.831 177.088 340.943 177.097C341.054 177.105 341.225 177.122 341.431 177.122C341.842 177.139 342.415 177.122 343.04 177.02C343.666 176.917 344.205 176.737 344.59 176.592C344.787 176.515 344.941 176.455 345.044 176.403C345.155 176.352 345.215 176.326 345.215 176.326Z" fill="white"/>
<path d="M308.532 274.182H252.136V395.516H308.532V274.182Z" fill="#39B4EF"/>
<g opacity="0.3">
<path d="M308.532 274.182H291.046V395.516H308.532V274.182Z" fill="black"/>
</g>
<path d="M291.046 395.516C290.918 395.516 290.807 368.658 290.807 335.538C290.807 302.4 290.909 275.551 291.046 275.551C291.175 275.551 291.286 302.4 291.286 335.538C291.286 368.658 291.183 395.516 291.046 395.516Z" fill="#263238"/>
<path d="M239.703 231.41H183.307V395.516H239.703V231.41Z" fill="#39B4EF"/>
<g opacity="0.3">
<path d="M239.711 231.41H222.226V395.516H239.711V231.41Z" fill="black"/>
</g>
<path d="M222.226 395.516C222.097 395.516 221.986 359.186 221.986 314.387C221.986 269.57 222.097 233.258 222.226 233.258C222.354 233.258 222.465 269.579 222.465 314.387C222.465 359.195 222.354 395.516 222.226 395.516Z" fill="#263238"/>
<path d="M378.115 309.51H321.719V395.524H378.115V309.51Z" fill="#39B4EF"/>
<g opacity="0.3">
<path d="M378.115 309.51H360.629V395.524H378.115V309.51Z" fill="black"/>
</g>
<path d="M360.629 395.516C360.501 395.516 360.39 376.478 360.39 353C360.39 329.514 360.501 310.477 360.629 310.477C360.758 310.477 360.869 329.514 360.869 353C360.869 376.478 360.758 395.516 360.629 395.516Z" fill="#263238"/>
<path d="M446.182 348.586H389.786V395.516H446.182V348.586Z" fill="#39B4EF"/>
<g opacity="0.3">
<path d="M446.191 348.586H428.705V395.516H446.191V348.586Z" fill="black"/>
</g>
<path d="M428.705 395.516C428.576 395.516 428.465 385.128 428.465 372.311C428.465 359.495 428.576 349.107 428.705 349.107C428.833 349.107 428.944 359.495 428.944 372.311C428.944 385.128 428.833 395.516 428.705 395.516Z" fill="#263238"/>
<path d="M515.011 364.825H458.615V395.516H515.011V364.825Z" fill="#39B4EF"/>
<g opacity="0.3">
<path d="M515.011 364.825H497.525V395.516H515.011V364.825Z" fill="black"/>
</g>
<path d="M497.525 395.516C497.397 395.516 497.286 388.722 497.286 380.346C497.286 371.961 497.397 365.176 497.525 365.176C497.654 365.176 497.765 371.969 497.765 380.346C497.765 388.722 497.662 395.516 497.525 395.516Z" fill="#263238"/>
<path d="M170.882 177.456H114.487V395.481H170.882V177.456Z" fill="#39B4EF"/>
<g opacity="0.3">
<path d="M170.883 177.456H153.397V395.481H170.883V177.456Z" fill="black"/>
</g>
<path d="M153.397 396.371C153.269 396.371 153.157 347.91 153.157 288.154C153.157 228.373 153.269 179.92 153.397 179.92C153.525 179.92 153.637 228.364 153.637 288.154C153.637 347.918 153.525 396.371 153.397 396.371Z" fill="#263238"/>
<path d="M102.053 133.204H45.6577V396.371H102.053V133.204Z" fill="#39B4EF"/>
<g opacity="0.3">
<path d="M102.053 133.204H84.5679V396.371H102.053V133.204Z" fill="black"/>
</g>
<path d="M84.5679 396.371C84.4394 396.371 84.3281 338.121 84.3281 266.276C84.3281 194.414 84.4394 136.173 84.5679 136.173C84.6963 136.173 84.8076 194.414 84.8076 266.276C84.8076 338.121 84.7049 396.371 84.5679 396.371Z" fill="#263238"/>
<path d="M90.4133 109.863C106.807 98.7745 111.1 76.5064 100.002 60.1262C88.9039 43.746 66.6178 39.4566 50.2244 50.5455C33.831 61.6344 29.5381 83.9025 40.636 100.283C51.7338 116.663 74.0199 120.952 90.4133 109.863Z" fill="#39B4EF"/>
<path opacity="0.3" d="M90.4133 109.863C106.807 98.7745 111.1 76.5064 100.002 60.1262C88.9039 43.746 66.6178 39.4566 50.2244 50.5455C33.831 61.6344 29.5381 83.9025 40.636 100.283C51.7338 116.663 74.0199 120.952 90.4133 109.863Z" fill="black"/>
<path d="M90.4153 105.91C106.809 94.821 111.102 72.5529 100.004 56.1727C88.9058 39.7925 66.6197 35.5031 50.2263 46.592C33.8329 57.6809 29.5401 79.949 40.6379 96.3292C51.7358 112.709 74.0219 116.999 90.4153 105.91Z" fill="#39B4EF"/>
<path d="M70.3191 100.237C83.5798 100.237 94.3297 89.4963 94.3297 76.2463C94.3297 62.9963 83.5798 52.2551 70.3191 52.2551C57.0585 52.2551 46.3086 62.9963 46.3086 76.2463C46.3086 89.4963 57.0585 100.237 70.3191 100.237Z" fill="white"/>
<path d="M78.626 84.545C83.2139 79.9608 83.2139 72.5282 78.6259 67.9439C74.038 63.3596 66.5994 63.3596 62.0114 67.9439C57.4234 72.5282 57.4234 79.9608 62.0114 84.545C66.5994 89.1293 74.038 89.1293 78.626 84.545Z" fill="#39B4EF"/>
<path d="M99.1334 45.9151L98.1572 38.2745L105.95 29.9495L106.506 38.1975L99.1334 45.9151Z" fill="#455A64"/>
<path d="M115.84 39.8403L107.945 39.1986L100.033 46.8049L107.945 47.6519L115.84 39.8403Z" fill="#455A64"/>
<path opacity="0.3" d="M71.8862 76.0752L99.2963 55.1642C98.3629 53.7781 97.1812 52.3834 95.8625 50.9803L71.8862 74.21V76.0752Z" fill="black"/>
<path d="M107.217 36.1526C103.029 40.3964 98.8335 44.6402 94.6462 48.884C88.0014 55.6176 81.348 62.3513 74.7031 69.0763C73.1789 70.625 71.6461 72.1736 70.1219 73.7223C68.6662 75.1939 70.9354 77.4613 72.3911 75.9896C76.5784 71.7458 80.7742 67.502 84.9615 63.2582C91.6064 56.5246 98.2598 49.791 104.905 43.0659C106.429 41.5173 107.962 39.9686 109.486 38.42C110.942 36.9483 108.672 34.681 107.217 36.1526Z" fill="#263238"/>
<path d="M70.3188 31.3013C70.1989 31.3013 70.0962 24.4479 70.0962 15.9945C70.0962 7.54115 70.1989 0.687744 70.3188 0.687744C70.4387 0.687744 70.5415 7.54115 70.5415 15.9945C70.5415 24.4479 70.4387 31.3013 70.3188 31.3013Z" fill="#263238"/>
<path d="M93.4649 15.3272C93.5677 15.4042 91.1101 18.8351 87.9932 23.0019C84.8763 27.1687 82.2646 30.4799 82.1618 30.4115C82.0591 30.3345 84.5081 26.9035 87.6335 22.7367C90.759 18.5785 93.3622 15.2587 93.4649 15.3272Z" fill="#263238"/>
<path d="M46.8906 14.6255C47.0019 14.5657 49.1255 18.2105 51.6345 22.7624C54.152 27.3227 56.1043 31.0617 55.993 31.1216C55.8817 31.1815 53.7581 27.5366 51.2406 22.9763C48.7402 18.4244 46.7878 14.6854 46.8906 14.6255Z" fill="#263238"/>
<path d="M429.484 108.485L436.326 107.69C439.083 110.488 442.619 112.584 446.713 113.585C458.487 116.477 470.381 109.281 473.266 97.5166C476.161 85.7521 468.959 73.8762 457.185 70.9843C445.411 68.0923 433.526 75.288 430.631 87.0526C429.424 91.9638 429.981 96.892 431.89 101.187L431.882 101.179L429.484 108.485Z" fill="white"/>
<path d="M429.484 108.486C429.484 108.486 429.527 108.34 429.621 108.032C429.724 107.698 429.869 107.236 430.058 106.637C430.46 105.371 431.042 103.532 431.796 101.136L431.847 100.965L431.967 101.102L431.976 101.11L431.813 101.213C430.631 98.5862 429.587 94.8728 429.938 90.4665C430.092 88.2676 430.648 85.9317 431.633 83.6131C432.609 81.2944 434.056 78.9928 436 76.965C437.944 74.9372 440.376 73.1918 443.185 71.9768C445.985 70.7619 449.162 70.0859 452.433 70.1458C458.966 70.2057 465.877 73.5597 470.021 79.4634C472.119 82.4665 473.515 85.8975 473.926 89.397C474.371 92.8878 473.968 96.3872 472.89 99.5359C471.819 102.702 469.995 105.465 467.829 107.69C465.654 109.914 463.102 111.583 460.465 112.669C455.173 114.86 449.727 114.723 445.531 113.397C441.284 112.088 438.227 109.769 436.266 107.741L436.343 107.767C434.116 107.998 432.395 108.177 431.214 108.306C430.657 108.366 430.229 108.409 429.921 108.434C429.612 108.486 429.484 108.486 429.484 108.486C429.484 108.486 429.647 108.46 429.946 108.417C430.263 108.374 430.7 108.314 431.265 108.246C432.43 108.1 434.125 107.878 436.317 107.596L436.36 107.587L436.394 107.621C438.372 109.606 441.412 111.865 445.617 113.123C449.77 114.406 455.13 114.5 460.328 112.327C462.905 111.249 465.414 109.598 467.546 107.407C469.67 105.217 471.451 102.496 472.496 99.399C473.549 96.3017 473.943 92.8793 473.498 89.4568C473.095 86.0259 471.725 82.6633 469.67 79.72C465.611 73.9361 458.846 70.6421 452.433 70.5736C449.222 70.5052 446.105 71.164 443.356 72.3447C440.599 73.5255 438.192 75.2367 436.283 77.2217C434.365 79.2067 432.935 81.4655 431.95 83.7414C430.965 86.0173 430.4 88.3189 430.237 90.4836C429.861 94.83 430.854 98.5091 431.993 101.127L432.284 101.786L431.83 101.23L431.822 101.221L431.993 101.187C431.196 103.532 430.58 105.337 430.16 106.578C429.955 107.185 429.792 107.647 429.681 107.981C429.544 108.314 429.484 108.486 429.484 108.486Z" fill="#263238"/>
<path d="M441.146 93.1188L443.852 90.2269L449.418 94.8386L459.668 84.289L462.357 87.0012L449.196 100.246L441.146 93.1188Z" fill="#39B4EF"/>
<path d="M331.875 123.57C330.308 121.833 328.235 120.216 327.713 119.899C326.728 119.292 325.221 118.95 325.221 118.95C325.221 118.95 312.488 115.442 309.817 115.202C307.136 114.962 307.41 117.153 309.902 117.563C312.394 117.974 317.677 120.113 317.677 120.113C317.677 120.113 316.581 120.301 316.513 121.431C316.436 122.56 317.223 122.808 317.223 122.808C317.223 122.808 316.521 123.715 316.521 124.323C316.521 124.93 317.138 125.812 317.138 125.812C317.138 125.812 316.213 126.564 316.504 127.411C316.795 128.259 318.114 129.448 318.114 129.448C318.114 129.448 323.56 132.887 324.733 132.981C325.906 133.076 327.268 133.332 327.268 133.332L329.186 134.718L334.324 126.667C334.307 126.659 333.536 125.418 331.875 123.57Z" fill="#FFBF9D"/>
<path d="M317.669 120.062C317.66 120.105 318.148 120.233 318.765 120.361C319.381 120.49 319.886 120.558 319.895 120.515C319.903 120.473 319.415 120.344 318.799 120.216C318.182 120.096 317.677 120.019 317.669 120.062Z" fill="#FF9A6C"/>
<path d="M317.13 122.783C317.121 122.825 317.609 122.954 318.2 123.133C318.791 123.313 319.27 123.459 319.287 123.424C319.304 123.39 318.851 123.176 318.251 122.997C317.652 122.825 317.138 122.748 317.13 122.783Z" fill="#FF9A6C"/>
<path d="M316.821 125.367C316.804 125.401 317.335 125.598 317.969 125.863C318.611 126.128 319.116 126.359 319.142 126.325C319.167 126.291 318.688 126 318.037 125.734C317.395 125.469 316.838 125.332 316.821 125.367Z" fill="#FF9A6C"/>
<path d="M426.333 248.985C426.333 248.985 424.064 228.202 419.2 225.892C414.328 223.582 407.58 222.067 405.739 225.173C403.898 228.287 401.98 232.968 401.243 237.939C400.507 242.91 400.927 250.507 400.927 250.507L406.475 249.891C406.475 249.891 406.201 229.177 407.888 226.123C409.575 223.06 418.121 225.524 419.054 229.211C419.988 232.899 422.043 249.455 422.043 249.455L426.333 248.985Z" fill="#455A64"/>
<path d="M445.66 278.289C445.403 269.716 444.581 250.815 444.212 242.508C444.11 240.24 442.234 238.461 439.965 238.478L388.947 238.786C386.669 238.803 384.811 240.617 384.751 242.884L383.749 278.084C383.681 280.454 385.582 282.413 387.954 282.422L441.412 282.635C443.819 282.644 445.737 280.676 445.66 278.289Z" fill="#455A64"/>
<path d="M388.305 251.688C388.305 251.688 388.296 251.808 388.296 252.065C388.296 252.338 388.296 252.715 388.296 253.203C388.296 254.221 388.305 255.701 388.314 257.6C388.339 261.459 388.373 267.012 388.408 273.866C388.408 274.293 388.416 274.73 388.416 275.175C388.399 275.611 388.476 276.116 388.716 276.526C388.956 276.937 389.315 277.288 389.769 277.493C390.214 277.716 390.737 277.716 391.191 277.699C393.066 277.699 395.01 277.69 397.022 277.69C401.055 277.682 405.362 277.673 409.892 277.664C414.422 277.656 419.183 277.639 424.115 277.63C426.581 277.622 429.09 277.613 431.634 277.613C432.909 277.613 434.194 277.604 435.478 277.604H436.446C436.763 277.596 437.105 277.63 437.456 277.545C438.15 277.382 438.758 276.903 439.049 276.253C439.178 275.979 439.255 275.671 439.263 275.371C439.272 275.063 439.255 274.807 439.255 274.524C439.246 273.968 439.229 273.412 439.22 272.856C439.195 271.744 439.177 270.64 439.152 269.545C439.109 267.354 439.058 265.19 439.015 263.059C438.921 258.798 438.835 254.683 438.749 250.747V250.559L438.561 250.567C423.901 251.457 411.331 251.705 402.434 251.74C397.981 251.757 394.453 251.74 392.03 251.722C390.822 251.714 389.889 251.714 389.238 251.705C388.939 251.705 388.707 251.705 388.528 251.705C388.382 251.688 388.305 251.688 388.305 251.688C388.305 251.688 388.391 251.697 388.553 251.705C388.733 251.714 388.964 251.722 389.273 251.731C389.915 251.748 390.84 251.782 392.03 251.817C394.453 251.876 397.981 251.928 402.434 251.945C411.339 251.971 423.918 251.774 438.587 250.91L438.398 250.73C438.475 254.666 438.561 258.781 438.647 263.042C438.689 265.173 438.732 267.337 438.784 269.528C438.809 270.623 438.826 271.726 438.852 272.839C438.861 273.395 438.878 273.951 438.886 274.507C438.895 275.08 438.955 275.611 438.715 276.073C438.467 276.621 437.953 277.023 437.379 277.16C437.097 277.237 436.788 277.211 436.455 277.211H435.487C434.194 277.219 432.909 277.219 431.642 277.219C429.099 277.228 426.59 277.237 424.124 277.245C419.192 277.262 414.439 277.279 409.901 277.296C405.371 277.314 401.064 277.339 397.031 277.356C395.018 277.365 393.066 277.373 391.199 277.382C390.72 277.391 390.292 277.399 389.898 277.202C389.504 277.031 389.187 276.723 388.973 276.364C388.759 275.996 388.69 275.594 388.707 275.149C388.699 274.713 388.699 274.285 388.69 273.857C388.588 267.038 388.502 261.511 388.451 257.669C388.416 255.761 388.391 254.272 388.373 253.245C388.365 252.749 388.356 252.364 388.348 252.082C388.314 251.834 388.305 251.688 388.305 251.688Z" fill="#263238"/>
<path d="M402.964 274.31C402.964 274.285 402.648 274.302 402.074 274.191C401.509 274.062 400.652 273.763 399.865 272.967C399.068 272.189 398.486 270.862 398.623 269.262C398.614 267.662 398.606 265.84 398.606 263.829C398.597 262.82 398.597 261.767 398.589 260.672C398.52 259.585 398.777 258.465 399.496 257.558C400.19 256.651 401.312 256.026 402.528 255.949C403.769 255.915 405.079 255.923 406.407 255.906C411.733 255.864 417.59 255.812 423.738 255.761C425.211 255.744 426.65 256.548 427.377 257.789C427.763 258.396 427.96 259.098 427.985 259.808C427.994 260.544 428.003 261.271 428.011 261.99C428.028 263.436 428.037 264.865 428.054 266.251C428.062 266.944 428.071 267.637 428.08 268.321C428.071 268.997 428.131 269.69 428.045 270.315C427.883 271.59 427.103 272.71 426.059 273.335C425.545 273.652 424.963 273.848 424.38 273.925C423.807 273.985 423.182 273.96 422.591 273.977C420.227 274.002 418.018 274.037 416.006 274.062C411.998 274.122 408.744 274.174 406.467 274.208C405.362 274.233 404.489 274.251 403.872 274.268C403.59 274.276 403.367 274.285 403.196 274.293C403.041 274.293 402.964 274.302 402.964 274.31C402.964 274.319 403.041 274.319 403.196 274.328C403.367 274.328 403.59 274.336 403.872 274.336C404.489 274.336 405.362 274.345 406.467 274.345C408.744 274.336 411.998 274.328 416.006 274.319C418.018 274.31 420.227 274.293 422.599 274.285C423.199 274.268 423.781 274.302 424.423 274.242C425.057 274.165 425.682 273.951 426.239 273.617C427.36 272.95 428.208 271.735 428.396 270.358C428.482 269.656 428.431 268.997 428.439 268.313C428.431 267.628 428.431 266.944 428.422 266.242C428.414 264.847 428.396 263.427 428.388 261.981C428.379 261.254 428.371 260.527 428.362 259.782C428.328 259.021 428.114 258.242 427.703 257.583C426.906 256.231 425.348 255.359 423.738 255.376C417.59 255.436 411.741 255.496 406.407 255.547C405.071 255.564 403.786 255.564 402.502 255.607C401.192 255.701 399.993 256.377 399.248 257.352C398.477 258.319 398.212 259.568 398.298 260.664C398.315 261.759 398.323 262.82 398.34 263.821C398.366 265.831 398.392 267.654 398.417 269.254C398.426 269.656 398.426 270.041 398.46 270.417C398.52 270.794 398.597 271.153 398.726 271.478C398.974 272.129 399.359 272.659 399.762 273.061C400.592 273.866 401.483 274.148 402.065 274.251C402.648 274.353 402.964 274.31 402.964 274.31Z" fill="#263238"/>
<g opacity="0.3">
<path d="M437.688 277.356C422.574 281.942 406.116 281.985 390.977 277.468L437.688 277.356Z" fill="black"/>
</g>
<path d="M408.616 261.203L414.953 261.143C415.809 261.134 416.494 260.432 416.486 259.585V259.269C416.477 258.413 415.775 257.729 414.927 257.737L408.59 257.797C407.734 257.806 407.049 258.507 407.058 259.354V259.671C407.058 260.527 407.76 261.211 408.616 261.203Z" fill="#E0E0E0"/>
<path d="M409.045 217.25C409.045 217.25 407.323 218.782 406.724 219.834C406.125 220.886 405.054 225.472 405.054 225.472C405.054 225.472 405.902 226.243 407.426 223.821C408.95 221.4 409.396 220.185 409.396 220.185L409.045 217.25Z" fill="#FFBF9D"/>
<path d="M416.546 208.155L414.525 211.723L408.942 217.353L406.844 225.712C406.621 226.593 406.707 227.534 407.127 228.339C407.281 228.63 407.469 228.869 407.692 228.963C408.317 229.22 410.081 228.322 410.081 228.322C410.081 228.322 411.365 229.922 412.744 228.98C412.744 228.98 414.73 229.999 415.827 229.015C415.827 229.015 417.085 230.007 418.019 229.391C418.952 228.775 421.632 224.865 421.632 224.865L425.229 211.988L416.546 208.155Z" fill="#FFBF9D"/>
<path d="M429.698 137.687C429.698 137.687 433.243 139.972 433.432 144.678C433.577 148.186 436.215 171.989 435.983 178.397C435.752 184.806 424.843 215.111 424.843 215.111L412.795 211.483L423.216 177.593L422.188 156.322L429.698 137.687Z" fill="#EBEBEB"/>
<path d="M408.565 85.3413C407.974 84.1178 406.535 83.3563 405.182 83.5531C403.65 82.2612 401.175 82.2184 399.599 83.4676C398.435 82.7232 396.868 82.6462 395.626 83.2537C394.384 83.8697 393.511 85.1531 393.4 86.5221C392.021 86.2568 390.505 86.9499 389.82 88.1563C389.135 89.3712 389.315 91.0055 390.266 92.0407C388.741 92.4771 387.688 94.1455 387.971 95.6942C388.253 97.2428 389.829 98.4492 391.404 98.3209L407.82 89.0718C408.839 88.1563 409.155 86.5649 408.565 85.3413Z" fill="#263238"/>
<path d="M389.323 116.092C389.401 112.567 390.163 105.311 390.933 98.7572C391.755 91.707 397.904 86.4707 405.062 86.7189L405.773 86.7445C413.42 87.4547 417.093 94.291 416.168 101.846L414.01 125.675L399.205 139.013L395.977 129.585L396.491 124.785C396.491 124.785 389.161 123.399 389.323 116.092Z" fill="#FFBF9D"/>
<path d="M396.422 124.776C396.422 124.776 401.114 125.221 406.175 122.312C406.175 122.312 403.718 127.488 396.388 126.573L396.422 124.776Z" fill="#FF9A6C"/>
<path d="M392.843 105.106C392.8 105.653 393.245 106.141 393.819 106.192C394.393 106.244 394.898 105.842 394.941 105.286C394.983 104.738 394.538 104.25 393.964 104.199C393.382 104.148 392.886 104.558 392.843 105.106Z" fill="#263238"/>
<path d="M392.389 102.385C392.518 102.522 393.331 101.966 394.461 102.009C395.592 102.034 396.405 102.642 396.534 102.505C396.594 102.445 396.474 102.197 396.123 101.923C395.772 101.649 395.181 101.375 394.47 101.358C393.768 101.341 393.16 101.572 392.809 101.829C392.449 102.077 392.329 102.325 392.389 102.385Z" fill="#263238"/>
<path d="M403.059 105.653C403.016 106.201 403.461 106.689 404.035 106.74C404.608 106.791 405.114 106.389 405.156 105.842C405.199 105.294 404.754 104.806 404.18 104.755C403.607 104.695 403.101 105.106 403.059 105.653Z" fill="#263238"/>
<path d="M403.512 102.975C403.641 103.112 404.454 102.556 405.585 102.599C406.715 102.625 407.528 103.232 407.657 103.095C407.717 103.035 407.597 102.787 407.246 102.513C406.895 102.24 406.304 101.966 405.593 101.949C404.891 101.932 404.283 102.163 403.932 102.419C403.572 102.676 403.452 102.915 403.512 102.975Z" fill="#263238"/>
<path d="M399.111 111.155C399.119 111.095 398.417 110.95 397.287 110.761C396.996 110.719 396.73 110.659 396.688 110.462C396.628 110.257 396.756 109.949 396.91 109.623C397.21 108.939 397.518 108.22 397.844 107.467C399.137 104.404 400.087 101.88 399.967 101.829C399.839 101.778 398.691 104.225 397.39 107.288C397.073 108.041 396.782 108.768 396.491 109.452C396.371 109.777 396.165 110.137 396.302 110.573C396.371 110.787 396.576 110.95 396.765 111.009C396.944 111.069 397.107 111.078 397.253 111.095C398.392 111.189 399.102 111.223 399.111 111.155Z" fill="#263238"/>
<path d="M402.416 112.045C402.236 112.028 402.185 113.243 401.106 114.073C400.027 114.903 398.717 114.723 398.708 114.894C398.691 114.971 398.991 115.142 399.547 115.176C400.087 115.211 400.883 115.065 401.551 114.56C402.21 114.055 402.51 113.354 402.57 112.858C402.621 112.353 402.502 112.045 402.416 112.045Z" fill="#263238"/>
<path d="M403.375 98.569C403.478 98.877 404.608 98.7743 405.936 98.9797C407.263 99.1594 408.325 99.5786 408.505 99.3134C408.59 99.185 408.41 98.8941 407.991 98.5776C407.571 98.2695 406.895 97.9615 406.098 97.8503C405.302 97.7391 404.566 97.8332 404.078 98.0129C403.581 98.1925 403.333 98.4235 403.375 98.569Z" fill="#263238"/>
<path d="M392.92 99.1508C393.108 99.416 393.896 99.1765 394.838 99.1936C395.78 99.185 396.568 99.4246 396.756 99.1679C396.842 99.0396 396.722 98.7829 396.388 98.5262C396.054 98.2781 395.489 98.0556 394.846 98.0556C394.204 98.0556 393.63 98.2695 393.296 98.5177C392.954 98.7658 392.834 99.0225 392.92 99.1508Z" fill="#263238"/>
<path d="M391.756 95.4375C391.756 95.4375 393.862 90.9284 396.123 89.9445C398.863 88.7466 399.916 91.7156 402.511 91.091C405.105 90.4664 407.717 89.3199 410.269 91.3734C413.069 93.6236 411.664 95.0867 411.733 98.338C411.99 111.497 414.285 115.296 415.184 109.136C415.287 108.46 417.205 107.989 417.581 105.131C418.078 101.427 418.378 96.9262 417.633 94.2653C417.008 92.0236 415.783 90.4407 413.548 88.6696C410.02 85.8718 405.054 85.6493 401.671 85.8633C398.289 86.0772 391.653 89.6964 391.756 95.4375Z" fill="#263238"/>
<path d="M414.721 108.913C414.807 107.784 415.817 106.928 416.947 107.074C418.317 107.253 419.816 108.075 419.628 110.89C419.294 115.878 414.31 114.509 414.31 114.372C414.319 114.269 414.567 110.992 414.721 108.913Z" fill="#FFBF9D"/>
<path d="M415.535 112.567C415.56 112.55 415.62 112.635 415.766 112.712C415.903 112.789 416.151 112.849 416.417 112.772C416.965 112.618 417.461 111.805 417.547 110.907C417.59 110.453 417.521 110.017 417.384 109.649C417.256 109.273 417.033 109.007 416.768 108.939C416.502 108.862 416.305 109.007 416.237 109.144C416.16 109.281 416.185 109.384 416.16 109.384C416.143 109.392 416.057 109.29 416.108 109.093C416.134 108.999 416.203 108.879 416.331 108.793C416.459 108.708 416.639 108.665 416.828 108.699C417.213 108.751 417.538 109.127 417.692 109.529C417.864 109.94 417.949 110.428 417.907 110.941C417.804 111.942 417.222 112.849 416.485 113.012C416.125 113.08 415.834 112.952 415.689 112.823C415.535 112.686 415.518 112.575 415.535 112.567Z" fill="#FF9A6C"/>
<path d="M414.969 99.2364C414.301 99.6556 413.591 100.092 412.803 100.135C412.015 100.186 411.125 99.707 411.022 98.9283C410.97 98.5776 411.073 98.1754 410.851 97.9016C410.585 97.5679 410.071 97.6535 409.652 97.6877C408.179 97.7904 406.715 96.7123 406.398 95.292C406.004 95.8311 405.131 95.7797 404.582 95.3947C404.026 95.0182 403.683 94.4108 403.264 93.8974C402.836 93.384 402.236 92.9134 401.568 92.9819C401.192 93.0247 400.84 93.23 400.464 93.1872C399.804 93.1102 399.505 92.3316 399.428 91.6728C399.35 91.0226 399.299 90.2611 398.751 89.8846C398.246 89.5424 397.561 89.7049 396.953 89.7734C396.345 89.8418 395.557 89.6707 395.42 89.0803C395.352 88.7638 395.497 88.4472 395.677 88.182C396.508 86.9841 398.237 86.4964 399.573 87.0868C400.121 85.4526 401.722 84.2205 403.461 84.1007C405.19 83.9809 406.954 84.9734 407.734 86.5135C408.83 85.5895 410.397 85.2472 411.784 85.6066C413.171 85.9745 414.353 87.044 414.849 88.3787C416.083 88.1049 417.47 88.6183 418.206 89.6365C418.951 90.6546 419.011 92.1177 418.352 93.1958C419.242 93.7434 419.987 94.6589 419.962 95.6942C419.944 96.7294 418.891 97.722 417.898 97.4139C418.275 98.2353 417.906 99.3134 417.101 99.7326C416.297 100.152 415.192 99.8524 414.712 99.0824" fill="#263238"/>
<path d="M418.258 97.4139C418.275 97.4054 418.335 97.8332 417.907 98.3637C417.693 98.6118 417.342 98.8685 416.879 98.9284C416.425 98.9882 415.869 98.8599 415.458 98.4663L415.672 98.4407C415.406 98.8599 415.064 99.2877 414.619 99.6471C414.336 99.8781 414.019 100.075 413.677 100.178C413.343 100.297 412.966 100.297 412.658 100.237C412.024 100.143 411.476 99.784 411.236 99.3647C410.979 98.9455 410.911 98.569 410.868 98.3123C410.825 98.0556 410.825 97.9102 410.842 97.9102C410.868 97.9102 410.902 98.0471 410.979 98.2866C411.056 98.5262 411.159 98.8941 411.407 99.2535C411.861 99.9893 413.403 100.409 414.43 99.4246C414.841 99.0909 415.175 98.6888 415.432 98.2866L415.526 98.1412L415.646 98.261C415.98 98.5947 416.451 98.723 416.845 98.6888C417.247 98.6546 417.564 98.4578 417.77 98.2439C418.206 97.8075 418.215 97.3968 418.258 97.4139Z" fill="#455A64"/>
<path d="M404.12 112.832C404.035 112.832 404.026 112.301 403.615 111.857C403.221 111.395 402.69 111.318 402.699 111.232C402.699 111.198 402.844 111.164 403.067 111.206C403.29 111.249 403.589 111.403 403.829 111.668C404.06 111.934 404.18 112.25 404.189 112.473C404.214 112.704 404.155 112.841 404.12 112.832Z" fill="#FF9A6C"/>
<path d="M404.617 111.472C404.549 111.514 404.369 111.335 404.104 111.206C403.847 111.069 403.59 111.035 403.581 110.958C403.564 110.881 403.889 110.779 404.232 110.95C404.583 111.121 404.686 111.437 404.617 111.472Z" fill="#FF9A6C"/>
<path d="M395.395 83.382C395.369 83.3307 394.856 83.6558 394.445 84.4857C394.239 84.8964 394.051 85.4098 393.991 86.0258C393.922 86.6333 394.085 87.352 394.513 87.9424C394.95 88.5242 395.541 88.8921 396.089 89.1488C396.637 89.4055 397.15 89.5766 397.579 89.7049C398.435 89.9616 398.966 90.1071 398.991 90.0643C399.009 90.0215 398.503 89.7905 397.664 89.4654C397.253 89.3028 396.757 89.1146 396.243 88.8493C395.729 88.5926 395.198 88.2333 394.813 87.7285C394.436 87.2066 394.29 86.5991 394.333 86.0429C394.359 85.4868 394.522 84.982 394.684 84.5884C395.001 83.7841 395.421 83.4162 395.395 83.382Z" fill="#E0E0E0"/>
<path d="M392.201 86.6675C392.158 86.6675 392.124 86.9841 392.261 87.4718C392.389 87.9595 392.732 88.5927 393.306 89.1231C393.879 89.645 394.547 89.9359 395.044 90.0215C395.54 90.1156 395.857 90.0643 395.857 90.0215C395.857 89.9616 395.558 89.9274 395.112 89.7819C394.667 89.6365 394.076 89.3456 393.545 88.8579C393.023 88.3702 392.68 87.8141 392.492 87.3862C392.312 86.9584 392.252 86.659 392.201 86.6675Z" fill="#E0E0E0"/>
<path d="M386.926 134.522L379.682 192.369C379.331 195.184 381.883 200.301 384.631 200.994L421.264 204.981C423.481 205.366 425.288 203.654 425.554 201.421C426.47 193.575 427.095 177.088 428.234 166.35C429.484 154.509 431.753 139.458 429.005 137.319C423.225 132.836 414.978 128.746 414.978 128.746L414.362 123.373C414.362 123.373 398.024 125.255 395.249 127.668L393.956 132.87L386.926 134.522Z" fill="#EBEBEB"/>
<path d="M392.723 133.503L359.114 136.678L332.979 123.886L327.448 135.36L331.447 137.439C337.895 141.546 349.643 150.171 354.532 152.327C361.391 155.356 395.849 151.445 395.849 151.445L392.723 133.503Z" fill="#EBEBEB"/>
<path d="M383.201 152.857C383.201 152.806 384.015 152.866 385.419 152.541C386.797 152.215 388.818 151.42 390.625 149.597C392.423 147.801 393.939 144.943 394.136 141.563C394.213 139.895 393.888 138.098 393.057 136.481C392.646 135.677 392.098 134.907 391.267 134.547C390.445 134.188 389.452 134.137 388.493 134.205C380.624 134.787 373.491 135.488 368.327 135.925C365.784 136.147 363.712 136.318 362.213 136.447C361.528 136.498 360.972 136.541 360.552 136.575C360.175 136.601 359.97 136.609 359.97 136.592C359.97 136.575 360.167 136.541 360.543 136.481C360.963 136.43 361.52 136.361 362.196 136.267C363.686 136.104 365.758 135.873 368.293 135.6C373.448 135.078 380.564 134.333 388.459 133.752C389.461 133.683 390.48 133.726 391.439 134.128C392.406 134.547 393.023 135.437 393.434 136.267C394.299 137.97 394.624 139.835 394.53 141.572C394.307 145.063 392.706 147.989 390.831 149.811C388.938 151.659 386.849 152.421 385.436 152.703C384.717 152.849 384.152 152.883 383.766 152.883C383.398 152.891 383.201 152.874 383.201 152.857Z" fill="#263238"/>
<path d="M414.961 128.738C414.97 128.806 413.78 128.986 411.879 129.354C409.978 129.713 407.375 130.312 404.497 131.014C401.62 131.715 398.991 132.263 397.065 132.554C396.106 132.699 395.318 132.793 394.778 132.836C394.239 132.879 393.939 132.896 393.931 132.862C393.922 132.793 395.112 132.614 397.013 132.246C398.914 131.886 401.517 131.287 404.395 130.586C407.272 129.884 409.901 129.337 411.827 129.046C412.786 128.9 413.574 128.806 414.114 128.763C414.662 128.721 414.961 128.712 414.961 128.738Z" fill="#263238"/>
<path d="M430.041 143.317C430.058 143.317 430.041 143.54 430.006 143.959C429.964 144.421 429.904 145.02 429.827 145.781C429.655 147.407 429.424 149.683 429.142 152.464C428.585 158.111 427.9 165.922 427.429 174.564C427.189 178.885 427.018 183.009 426.907 186.756C426.855 188.63 426.812 190.41 426.77 192.078C426.727 193.747 426.735 195.304 426.641 196.724C426.538 198.144 426.35 199.436 426.016 200.523C425.691 201.618 425.237 202.508 424.757 203.15C424.286 203.808 423.79 204.202 423.456 204.45C423.096 204.673 422.908 204.784 422.899 204.775C422.848 204.715 423.721 204.356 424.612 203.056C425.057 202.414 425.477 201.533 425.768 200.463C426.067 199.385 426.239 198.119 426.316 196.707C426.393 195.295 426.367 193.747 426.393 192.07C426.419 190.401 426.436 188.613 426.487 186.739C426.581 182.983 426.735 178.859 426.975 174.53C427.446 165.879 428.182 158.059 428.825 152.421C429.142 149.597 429.433 147.321 429.655 145.747C429.767 144.994 429.852 144.395 429.921 143.942C429.981 143.531 430.024 143.309 430.041 143.317Z" fill="#263238"/>
<path d="M355.362 285.527L361.922 300.141C361.922 300.141 344.65 306.892 344.513 310.109L378.123 309.501L378.08 306.695L370.664 282.584L355.362 285.527Z" fill="#455A64"/>
<path d="M371.77 297.514C372.42 297.677 372.883 298.404 372.746 299.063C372.609 299.722 371.872 300.201 371.222 300.047C370.562 299.893 369.98 299.046 370.194 298.404C370.408 297.763 371.299 297.249 371.898 297.557" fill="#E0E0E0"/>
<path d="M378.123 309.501L378.08 306.695L345.807 308.381C345.807 308.381 344.325 309.057 344.514 310.109L378.123 309.501Z" fill="#263238"/>
<path d="M361.374 299.979C361.382 300.141 362.205 300.201 363.018 300.714C363.849 301.202 364.277 301.912 364.431 301.844C364.585 301.81 364.32 300.834 363.318 300.227C362.324 299.619 361.34 299.833 361.374 299.979Z" fill="#263238"/>
<path d="M357.881 301.502C357.846 301.664 358.566 301.929 359.131 302.614C359.722 303.281 359.876 304.026 360.038 304.017C360.193 304.043 360.287 303.076 359.567 302.237C358.848 301.399 357.881 301.348 357.881 301.502Z" fill="#263238"/>
<path d="M355.954 305.754C356.099 305.788 356.313 304.967 355.877 304.068C355.448 303.179 354.669 302.836 354.601 302.973C354.506 303.11 355.02 303.581 355.363 304.317C355.731 305.052 355.791 305.745 355.954 305.754Z" fill="#263238"/>
<path d="M360.149 296.171C360.218 296.317 360.971 296.077 361.896 296.128C362.83 296.154 363.557 296.453 363.635 296.308C363.729 296.188 363.009 295.589 361.913 295.555C360.834 295.512 360.072 296.043 360.149 296.171Z" fill="#263238"/>
<path d="M414.464 321.249L415.209 349.124L400.541 349.081L399.762 321.882L414.464 321.249Z" fill="#455A64"/>
<path d="M407.931 347.713C407.811 347.713 407.622 341.775 407.52 334.442C407.417 327.11 407.425 321.163 407.554 321.163C407.674 321.163 407.862 327.101 407.965 334.434C408.068 341.766 408.05 347.713 407.931 347.713Z" fill="#263238"/>
<path d="M400.292 340.389C400.267 340.372 400.387 340.149 400.652 339.79C400.918 339.422 401.337 338.917 401.928 338.361C402.519 337.805 403.29 337.206 404.257 336.718C405.216 336.222 406.389 335.871 407.657 335.854C410.191 335.803 412.349 336.992 413.428 338.207C413.985 338.806 414.336 339.371 414.541 339.773C414.738 340.184 414.815 340.423 414.79 340.432C414.713 340.474 414.336 339.525 413.205 338.43C412.118 337.326 410.063 336.256 407.657 336.299C405.259 336.342 403.307 337.591 402.133 338.601C400.935 339.627 400.352 340.44 400.292 340.389Z" fill="#263238"/>
<path d="M415.158 349.15L400.558 349.082L400.447 345.788L415.175 345.856L415.158 349.15Z" fill="#263238"/>
<path d="M415.629 203.184L385.213 200.523L384.708 203.86C376.958 210.063 352.811 224.891 340.343 237.032C340.343 237.032 335.736 243.449 337.577 249.096L357.067 293.254L376.916 288.685L364.808 251.209L402.057 233.832C409.301 231.154 415.826 222.024 417.367 216.788C418.669 212.296 415.826 208.925 415.629 203.184Z" fill="#263238"/>
<path d="M390.085 238.358L398.135 332.158L418.446 332.047C418.446 332.047 419.097 303.41 418.694 284.099C418.292 264.788 420.638 225.558 420.638 225.558L390.085 238.358Z" fill="#263238"/>
<path d="M415.629 203.184L425.391 204.262C425.391 204.262 426.358 223.744 425.648 226.217C424.937 228.69 419.671 238.469 419.671 238.469L390.796 246.871V224.899L415.629 203.184Z" fill="#263238"/>
<path d="M413.051 223.137C413.06 223.145 412.983 223.325 412.812 223.659C412.632 223.992 412.418 224.514 412.015 225.113C411.279 226.345 410.046 228.065 408.128 229.793C406.227 231.539 403.658 233.267 400.635 234.824C397.621 236.407 394.179 237.853 390.634 239.504C383.535 242.756 377.104 245.699 372.403 247.847C370.091 248.882 368.207 249.729 366.854 250.336C366.229 250.61 365.724 250.824 365.339 250.995C364.988 251.141 364.808 251.209 364.799 251.201C364.791 251.192 364.97 251.089 365.304 250.918C365.681 250.738 366.169 250.49 366.786 250.191C368.122 249.558 369.988 248.668 372.275 247.59C376.967 245.408 383.372 242.431 390.462 239.136C394.016 237.485 397.458 236.048 400.464 234.491C403.478 232.959 406.03 231.273 407.939 229.579C409.857 227.894 411.116 226.225 411.887 225.028C412.658 223.83 413.017 223.111 413.051 223.137Z" fill="#455A64"/>
<path d="M351.886 249.515C351.878 249.464 352.674 249.267 353.993 249.113C355.303 248.959 357.153 248.873 359.165 249.104C361.186 249.327 362.967 249.814 364.2 250.285C365.441 250.756 366.152 251.166 366.135 251.201C366.109 251.26 365.356 250.952 364.106 250.559C362.855 250.174 361.1 249.729 359.113 249.515C357.135 249.293 355.32 249.327 354.01 249.404C352.708 249.481 351.895 249.583 351.886 249.515Z" fill="#455A64"/>
<path d="M384.485 203.826L425.545 207.702L425.408 204.698L385.213 200.523L384.485 203.826Z" fill="#455A64"/>
<path d="M393.186 205.075C393.305 204.835 393.605 201.276 393.605 201.276L395.84 201.507L395.301 205.862L393.186 205.075Z" fill="#263238"/>
<path d="M414.712 207.368C414.832 207.128 415.132 203.569 415.132 203.569L417.367 203.8L416.827 208.155L414.712 207.368Z" fill="#263238"/>
<path d="M221 189.767C221 198.052 214.284 204.767 206 204.767C197.716 204.767 191 198.052 191 189.767C191 181.483 197.716 174.767 206 174.767C214.284 174.767 221 181.483 221 189.767Z" fill="white"/>
<path d="M205.987 185.649C207.197 185.649 208.177 184.673 208.177 183.469C208.177 182.265 207.197 181.289 205.987 181.289C204.777 181.289 203.797 182.265 203.797 183.469C203.797 184.673 204.777 185.649 205.987 185.649Z" fill="#39B4EF"/>
<path d="M205.987 191.947C207.197 191.947 208.177 190.971 208.177 189.767C208.177 188.563 207.197 187.587 205.987 187.587C204.777 187.587 203.797 188.563 203.797 189.767C203.797 190.971 204.777 191.947 205.987 191.947Z" fill="#39B4EF"/>
<path d="M205.987 198.246C207.197 198.246 208.177 197.27 208.177 196.066C208.177 194.861 207.197 193.885 205.987 193.885C204.777 193.885 203.797 194.861 203.797 196.066C203.797 197.27 204.777 198.246 205.987 198.246Z" fill="#39B4EF"/>
<path d="M200.147 191.947C201.356 191.947 202.337 190.971 202.337 189.767C202.337 188.563 201.356 187.587 200.147 187.587C198.937 187.587 197.956 188.563 197.956 189.767C197.956 190.971 198.937 191.947 200.147 191.947Z" fill="#39B4EF"/>
<path d="M212.314 191.947C213.524 191.947 214.504 190.971 214.504 189.767C214.504 188.563 213.524 187.587 212.314 187.587C211.105 187.587 210.124 188.563 210.124 189.767C210.124 190.971 211.105 191.947 212.314 191.947Z" fill="#39B4EF"/>
<path d="M206 205.267C214.56 205.267 221.5 198.328 221.5 189.767C221.5 181.207 214.56 174.267 206 174.267C197.44 174.267 190.5 181.207 190.5 189.767C190.5 198.328 197.44 205.267 206 205.267Z" stroke="#39B4EF"/>
<path d="M241 60.2673C241 76.0075 228.24 88.7673 212.5 88.7673C196.76 88.7673 184 76.0075 184 60.2673C184 44.5272 196.76 31.7673 212.5 31.7673C228.24 31.7673 241 44.5272 241 60.2673Z" fill="white"/>
<path d="M212.475 52.4432C214.774 52.4432 216.637 50.5886 216.637 48.3009C216.637 46.0132 214.774 44.1587 212.475 44.1587C210.177 44.1587 208.314 46.0132 208.314 48.3009C208.314 50.5886 210.177 52.4432 212.475 52.4432Z" fill="#39B4EF"/>
<path d="M212.475 64.4096C214.774 64.4096 216.637 62.5551 216.637 60.2674C216.637 57.9797 214.774 56.1252 212.475 56.1252C210.177 56.1252 208.314 57.9797 208.314 60.2674C208.314 62.5551 210.177 64.4096 212.475 64.4096Z" fill="#39B4EF"/>
<path d="M212.475 76.3761C214.774 76.3761 216.637 74.5215 216.637 72.2339C216.637 69.9462 214.774 68.0916 212.475 68.0916C210.177 68.0916 208.314 69.9462 208.314 72.2339C208.314 74.5215 210.177 76.3761 212.475 76.3761Z" fill="#39B4EF"/>
<path d="M201.379 64.4096C203.677 64.4096 205.54 62.5551 205.54 60.2674C205.54 57.9797 203.677 56.1252 201.379 56.1252C199.08 56.1252 197.217 57.9797 197.217 60.2674C197.217 62.5551 199.08 64.4096 201.379 64.4096Z" fill="#39B4EF"/>
<path d="M224.497 64.4096C226.795 64.4096 228.658 62.5551 228.658 60.2674C228.658 57.9797 226.795 56.1252 224.497 56.1252C222.199 56.1252 220.336 57.9797 220.336 60.2674C220.336 62.5551 222.199 64.4096 224.497 64.4096Z" fill="#39B4EF"/>
<path d="M212.5 89.2673C228.516 89.2673 241.5 76.2836 241.5 60.2673C241.5 44.2511 228.516 31.2673 212.5 31.2673C196.484 31.2673 183.5 44.2511 183.5 60.2673C183.5 76.2836 196.484 89.2673 212.5 89.2673Z" stroke="#39B4EF"/>
<path d="M353 167.767C353 173.29 348.523 177.767 343 177.767C337.477 177.767 333 173.29 333 167.767C333 162.244 337.477 157.767 343 157.767C348.523 157.767 353 162.244 353 167.767Z" fill="white"/>
<path d="M342.991 165.022C343.798 165.022 344.451 164.371 344.451 163.569C344.451 162.766 343.798 162.115 342.991 162.115C342.185 162.115 341.531 162.766 341.531 163.569C341.531 164.371 342.185 165.022 342.991 165.022Z" fill="#39B4EF"/>
<path d="M342.991 169.221C343.798 169.221 344.451 168.57 344.451 167.767C344.451 166.965 343.798 166.314 342.991 166.314C342.185 166.314 341.531 166.965 341.531 167.767C341.531 168.57 342.185 169.221 342.991 169.221Z" fill="#39B4EF"/>
<path d="M342.991 173.42C343.798 173.42 344.451 172.769 344.451 171.966C344.451 171.163 343.798 170.513 342.991 170.513C342.185 170.513 341.531 171.163 341.531 171.966C341.531 172.769 342.185 173.42 342.991 173.42Z" fill="#39B4EF"/>
<path d="M339.098 169.221C339.904 169.221 340.558 168.57 340.558 167.767C340.558 166.965 339.904 166.314 339.098 166.314C338.291 166.314 337.638 166.965 337.638 167.767C337.638 168.57 338.291 169.221 339.098 169.221Z" fill="#39B4EF"/>
<path d="M347.209 169.221C348.016 169.221 348.67 168.57 348.67 167.767C348.67 166.965 348.016 166.314 347.209 166.314C346.403 166.314 345.749 166.965 345.749 167.767C345.749 168.57 346.403 169.221 347.209 169.221Z" fill="#39B4EF"/>
</g>
<defs>
<clipPath id="clip0_82_6107">
<rect width="578" height="396.728" fill="white" transform="translate(0 0.63623)"/>
</clipPath>
</defs>
</svg>
