<svg width="636" height="413" viewBox="0 0 636 413" fill="none" xmlns="http://www.w3.org/2000/svg">
<g clip-path="url(#clip0_34_14976)">
<path d="M444 114.5C444 126.374 434.374 136 422.5 136C410.626 136 401 126.374 401 114.5C401 102.626 410.626 93 422.5 93C434.374 93 444 102.626 444 114.5Z" fill="white"/>
<path d="M422.481 108.598C424.215 108.598 425.621 107.199 425.621 105.473C425.621 103.747 424.215 102.348 422.481 102.348C420.748 102.348 419.342 103.747 419.342 105.473C419.342 107.199 420.748 108.598 422.481 108.598Z" fill="#39B4EF"/>
<path d="M422.481 117.625C424.215 117.625 425.621 116.226 425.621 114.5C425.621 112.774 424.215 111.375 422.481 111.375C420.748 111.375 419.342 112.774 419.342 114.5C419.342 116.226 420.748 117.625 422.481 117.625Z" fill="#39B4EF"/>
<path d="M422.481 126.652C424.215 126.652 425.621 125.253 425.621 123.527C425.621 121.802 424.215 120.403 422.481 120.403C420.748 120.403 419.342 121.802 419.342 123.527C419.342 125.253 420.748 126.652 422.481 126.652Z" fill="#39B4EF"/>
<path d="M414.11 117.625C415.844 117.625 417.249 116.226 417.249 114.5C417.249 112.774 415.844 111.375 414.11 111.375C412.376 111.375 410.971 112.774 410.971 114.5C410.971 116.226 412.376 117.625 414.11 117.625Z" fill="#39B4EF"/>
<path d="M431.55 117.625C433.284 117.625 434.689 116.226 434.689 114.5C434.689 112.774 433.284 111.375 431.55 111.375C429.817 111.375 428.411 112.774 428.411 114.5C428.411 116.226 429.817 117.625 431.55 117.625Z" fill="#39B4EF"/>
<path d="M361.195 358.456C361.195 358.456 434.187 164.444 482.341 187.743C530.494 211.045 406.674 306.08 387.087 363.285L361.195 358.456Z" fill="#C6D8F5"/>
<path d="M385.797 332.234C385.797 332.234 513.874 149.634 568.396 190.882C622.919 232.129 452.024 291.687 416.638 346.184L385.797 332.234Z" fill="#D2E1FB"/>
<path d="M402.985 340.202C426.786 302.089 464.619 269.812 492.167 249.446C522.031 227.369 546.555 214.15 546.801 214.021L546.04 212.378C545.794 212.512 521.159 225.782 491.199 247.932C463.531 268.389 425.522 300.825 401.57 339.178L402.985 340.202Z" fill="white"/>
<path d="M598.971 309.928C575.72 318.215 583.524 356.551 555.685 352.475C532.137 349.013 529.983 346.957 522.745 354.986C520.264 357.738 518.204 360.89 516.536 364.279C514.536 368.338 510.503 374.449 503.67 376.564C461.902 389.504 396.977 328.428 437.674 285.972C440.611 282.906 445.178 281.332 450.261 279.866C477.825 271.932 487.935 284.781 506.486 246.672C525.046 208.555 560.08 256.111 578.704 252.151C597.324 248.195 613.29 240.218 630.065 259.977C646.849 279.758 622.226 301.659 598.971 309.928Z" fill="#C6D8F5"/>
<g opacity="0.5">
<path d="M456.131 333.717L455.095 332.388C455.637 331.898 510.911 282.979 634.043 265.679L634.254 267.4C511.582 284.639 456.673 333.231 456.131 333.717Z" fill="white"/>
<path d="M527.845 273.566C509.999 259.663 505.893 247.468 505.725 246.956L507.247 246.384C507.286 246.505 511.401 258.614 528.791 272.164L527.845 273.566Z" fill="#68A1BF"/>
<path d="M532.511 291.85C527.076 283.697 526.268 271.136 530.176 255.535C533.101 243.852 537.685 234.421 537.732 234.331L539.155 235.139C538.975 235.505 521.322 272.095 533.823 290.844L532.511 291.85Z" fill="#68A1BF"/>
</g>
<path d="M505.85 176.037C508.594 171.763 511.058 171.72 513.096 173.234C515.134 174.747 515.968 177.246 513.225 181.52C508.228 189.308 502.13 190.327 502.13 190.327C502.13 190.327 500.784 183.937 505.85 176.037Z" fill="#D2E1FB"/>
<path d="M233.243 263.521C233.243 263.521 235.595 172.86 212.722 173.096C189.849 173.333 223.649 234.223 222.187 260.592L233.243 263.521Z" fill="#C6D8F5"/>
<path d="M232.916 270.681C232.916 270.681 203.842 148.538 167.979 157.035C132.115 165.532 207.244 234.912 214.481 270.715L232.916 270.681Z" fill="#D2E1FB"/>
<path d="M222.604 270.797C218.024 245.972 205.162 220.906 195.177 204.251C184.354 186.194 174.489 173.862 174.39 173.741L175.1 173.079C175.199 173.204 185.102 185.588 195.964 203.705C205.992 220.437 218.914 245.623 223.524 270.603L222.604 270.797Z" fill="white"/>
<path d="M168.624 294.362C154.36 292.779 165.416 297.269 148.284 296.224C144.65 303.654 124.409 295.815 118.088 284.695C110.029 270.526 110.033 273.781 85.6168 276.211C68.1021 277.944 67.3539 261.392 60.9509 248.887C60.8348 248.659 60.7144 248.431 60.5982 248.203C58.1127 243.563 54.7715 239.547 49.3876 237.345C43.6769 235.01 37.9104 231.708 32.9393 227.782C32.5265 227.459 32.118 227.128 31.7181 226.793C21.9007 218.622 15.6783 208.035 20.2494 198.08C20.3569 197.844 20.4688 197.607 20.5892 197.375C21.4277 195.737 22.5715 194.111 24.0379 192.524C39.3638 175.981 52.9998 183.589 69.0954 187.807C77.9926 190.133 91.822 178.944 104.916 174.214C105.101 174.145 105.29 174.081 105.479 174.012C115.864 170.404 125.733 171.058 132.248 185.984C132.248 185.988 132.248 185.988 132.248 185.988C132.382 186.289 132.515 186.59 132.644 186.887C147.239 219.779 156.553 209.256 180.097 217.229C184.474 218.717 188.4 220.278 190.856 223.073C213.741 249.119 194.567 280.562 168.624 294.362Z" fill="#D2E1FB"/>
<path d="M173.079 263.938L174.029 262.824C173.573 262.372 127.114 217.457 20.3697 197.332L20.1289 198.824C126.469 218.876 172.623 263.491 173.079 263.938Z" fill="white"/>
<path d="M112.682 208.555C128.735 197.164 132.747 186.702 132.91 186.259L131.603 185.696C131.564 185.799 127.548 196.188 111.908 207.287L112.682 208.555Z" fill="white"/>
<path d="M107.965 224.303C112.992 217.418 114.14 206.5 111.285 192.735C109.147 182.427 105.484 174.021 105.449 173.939L104.181 174.584C104.323 174.911 118.423 207.532 106.864 223.37L107.965 224.303Z" fill="white"/>
<path d="M312.865 412.673C485.514 412.673 625.473 394.53 625.473 372.148C625.473 349.767 485.514 331.623 312.865 331.623C140.217 331.623 0.257812 349.767 0.257812 372.148C0.257812 394.53 140.217 412.673 312.865 412.673Z" fill="#D2E1FB"/>
<path d="M168.486 64.0258C168.486 64.0258 377.768 144.569 442.658 198.992C520.643 264.394 311.059 258.872 307.482 280.201C303.899 301.53 522.397 340.499 522.397 340.499C512.313 372.152 364.958 387.328 253.239 364.575C210.155 355.799 153.018 329.404 157.125 282.368C163.838 205.532 305.422 229.682 300.945 202.028C296.469 174.373 157.761 81.2782 157.761 81.2782L168.486 64.0258Z" fill="#39B4EF"/>
<path d="M192.12 54.5525C175.899 42.8215 116.363 29.9811 115.464 36.9818C114.57 43.9826 145.291 109.857 153.379 107.815C161.472 105.772 166.134 74.041 166.134 74.041C166.134 74.041 200.884 60.891 192.12 54.5525Z" fill="#39B4EF"/>
<path d="M281.065 281.216C280.244 282.631 279.204 285.817 278.412 287.249C278.068 287.868 277.041 290.044 277.561 290.5C278.012 290.9 279.582 289.597 280.257 288.879C280.532 293.665 282.897 300.515 282.988 290.444C282.992 290.444 282.996 290.444 283.005 290.444C283.082 291.463 283.512 297.135 284.716 296.49C285.779 295.923 285.624 291.846 285.516 290.169C285.529 290.165 285.546 290.165 285.559 290.16C285.809 291.855 286.505 295.931 287.352 295.037C288.419 293.91 288.346 289.442 288.346 289.442C288.346 289.442 288.552 295.153 289.928 294.018C290.702 293.377 290.272 290.122 289.98 288.101C289.92 287.675 289.864 287.305 289.825 287.026C289.795 286.793 289.743 286.591 289.679 286.411C288.991 283.065 288.032 281.031 288.032 281.031C288.032 281.031 287.301 278.434 284.557 278.666C282.803 278.817 281.418 280.605 281.065 281.216Z" fill="#FF7955"/>
<path d="M278.993 281.904C269.076 274.891 279.728 253.17 275.608 238.184C274.654 234.709 274.241 233.402 273.415 231.467C272.753 229.91 274.542 226.883 277.002 225.632C279.311 224.458 284.845 225.232 285.284 226.019C291.962 238.016 294.121 257.707 290.792 282.846C290.788 282.846 283.25 284.914 278.993 281.904Z" fill="#B05638"/>
<path d="M264.26 372.871C264.26 372.871 264.346 376.487 266.617 377.511C268.892 378.53 275.48 379.45 273.016 381.776C271.605 383.109 264.944 382.249 263.065 382.249C261.186 382.249 259.423 383.131 258.025 381.776C256.49 380.288 258.025 372.871 258.025 372.871C258.025 372.871 259.646 373.782 261.104 373.739C263.211 373.679 264.26 372.871 264.26 372.871Z" fill="#131F2D"/>
<path d="M283.878 263.693C283.878 263.693 284.334 280.021 279.492 311.339C276 333.95 271.872 356.736 269.851 367.659C269.128 371.568 266.075 374.423 262.459 374.578L260.515 374.664C256.602 374.832 253.428 371.215 253.716 366.915L258.627 293.016L259.836 268.694L283.878 263.693Z" fill="#364154"/>
<path d="M242.725 372.871C242.725 372.871 242.811 376.487 245.082 377.511C247.357 378.53 253.944 379.45 251.48 381.776C250.07 383.109 243.409 382.249 241.53 382.249C239.651 382.249 237.887 383.131 236.49 381.776C234.955 380.288 236.49 372.871 236.49 372.871C236.49 372.871 238.111 373.782 239.569 373.739C241.676 373.679 242.725 372.871 242.725 372.871Z" fill="#131F2D"/>
<path d="M262.342 263.693C262.342 263.693 262.798 280.021 257.956 311.339C254.464 333.95 250.336 356.736 248.315 367.659C247.593 371.568 244.54 374.423 240.923 374.578L238.979 374.664C235.066 374.832 231.893 371.215 232.181 366.915L237.092 293.016L238.3 268.694L262.342 263.693Z" fill="#364154"/>
<path d="M235.918 281.586C235.965 283.555 247.029 284.338 260.713 283.878C274.396 283.418 285.331 281.38 285.284 279.41C285.237 277.441 274.228 276.284 260.545 276.744C246.857 277.204 235.87 279.617 235.918 281.586Z" fill="#131F2D"/>
<path d="M239.268 225.817C239.268 225.817 241.689 215.492 259.539 215.389C285.284 215.238 282.902 240.704 285.284 279.41C285.284 279.41 259.926 275.548 235.905 281.1C235.905 281.1 233.677 241.594 239.268 225.817Z" fill="#B05638"/>
<path d="M232.675 224.337L244.337 231.282C244.337 231.282 269.868 233.776 276.645 232.577C283.422 231.372 285.284 226.014 285.284 226.014C285.284 226.014 278.064 217.973 265.795 215.827C264.643 215.625 263.448 215.475 262.209 215.389C260.128 215.242 258.042 215.273 256.008 215.522C240.454 217.41 232.675 224.337 232.675 224.337Z" fill="#B05638"/>
<path d="M283.125 281.005C283.125 281.005 268.298 276.31 237.595 282.756L237.358 287.512L282.373 289.223L283.125 281.005Z" fill="#364154"/>
<path d="M230.444 281.1C231.519 268.376 240.257 235.075 241.271 233.252C242.093 231.785 240.622 228.56 238.309 227.025C236.137 225.584 233.329 223.744 232.675 224.337C223.499 232.667 215.599 263.108 218.089 279.973L230.444 281.1Z" fill="#B05638"/>
<path d="M253.742 215.84C255.591 218.291 258.907 217.943 261.504 216.709C263.59 215.715 263.293 215.737 263.005 215.376C262.3 214.481 261.715 214.266 261.676 213.238L261.624 211.893L261.62 211.725L261.556 209.966L261.44 206.934L261.139 198.962L258.829 206.973L258.438 208.336L257.092 213.019C256.649 214.537 253.755 215.836 253.742 215.84Z" fill="#FF7955"/>
<path d="M258.154 209.54C258.154 209.54 259.264 211.518 261.625 211.893L261.62 211.725L261.556 209.966C260.274 209.837 258.154 209.54 258.154 209.54Z" fill="#131F2D"/>
<path d="M273.265 263.009C273.265 263.009 272.521 270.371 267.662 274.353C267.662 274.353 264.639 272.224 262.454 268.746C261.384 267.12 260.524 265.189 260.244 263.013C260.128 262.037 260.106 260.235 260.149 257.905C260.218 256.026 260.334 253.798 260.45 251.368C260.661 247.111 260.962 242.278 261.173 237.724C261.289 235.221 261.384 232.792 261.427 230.611C261.521 225.98 261.405 222.351 260.868 221.074L263.194 220.295C263.194 220.295 264.196 223.073 265.568 227.305C266.079 228.93 266.66 230.758 267.266 232.714C268.195 235.845 269.197 239.324 270.104 242.828C270.595 244.755 271.081 246.707 271.476 248.612C272.336 252.542 272.99 256.296 273.196 259.453C273.312 260.756 273.338 261.934 273.265 263.009Z" fill="#39B4EF"/>
<path d="M218.093 279.973C218.02 281.814 220.742 283.465 224.169 283.659C227.601 283.852 230.439 282.515 230.512 280.674C230.585 278.834 227.863 277.183 224.436 276.989C221.004 276.796 218.166 278.133 218.093 279.973Z" fill="#131F2D"/>
<path d="M285.434 279.423L285.125 279.397C285.146 279.122 287.21 251.807 279.861 234.912L280.145 234.787C287.529 251.755 285.46 279.148 285.434 279.423Z" fill="#131F2D"/>
<path d="M235.617 254.847L235.316 254.778C237.273 246.178 241.332 240.055 241.375 239.994L241.633 240.166C241.59 240.227 237.561 246.303 235.617 254.847Z" fill="#131F2D"/>
<path d="M263.839 193.883C263.839 193.883 264.88 195.547 265.185 198.007C265.49 200.471 261.482 195.646 261.482 195.646L263.839 193.883Z" fill="#131F2D"/>
<path d="M262.579 209.81C266.062 208.577 267.617 203.992 266.05 199.571C264.484 195.15 260.391 192.566 256.908 193.8C253.424 195.034 251.87 199.618 253.436 204.039C255.003 208.46 259.096 211.044 262.579 209.81Z" fill="#FF7955"/>
<path d="M252.938 202.742L255.849 201.262C256.49 200.936 256.972 200.325 257.135 199.581C257.414 198.304 257.986 197.487 260.842 196.537C264.458 195.332 266.066 192.15 265.8 189.992C265.525 187.79 263.246 187.089 261.771 188.745C260.296 190.4 260.283 187.708 258.477 188.108C255.101 188.848 255.368 191.75 252.701 192.662C249.205 193.853 243.933 199.026 249.008 204.47L252.938 202.742Z" fill="#131F2D"/>
<path d="M260.382 200.841C260.407 200.807 260.416 200.759 260.407 200.716C260.39 200.639 260.317 200.592 260.244 200.613C260.201 200.626 259.199 200.798 259.079 202.058C259.07 202.135 259.122 202.208 259.195 202.221C259.268 202.23 259.319 202.17 259.345 202.097C259.595 201.344 260.278 200.906 260.313 200.897C260.339 200.884 260.364 200.867 260.382 200.841Z" fill="#080435"/>
<path d="M260.403 202.798C260.584 203.081 260.889 203.198 261.078 203.056C261.267 202.914 261.276 202.57 261.095 202.286C260.915 202.002 260.609 201.886 260.42 202.028C260.227 202.17 260.218 202.514 260.403 202.798Z" fill="#080435"/>
<path d="M264.566 198.485C264.591 198.463 264.604 198.429 264.6 198.386C264.591 198.313 264.536 198.244 264.471 198.235C264.432 198.231 263.559 198.007 263.319 199.044C263.301 199.108 263.34 199.19 263.4 199.224C263.46 199.259 263.512 199.228 263.542 199.173C263.839 198.618 264.467 198.497 264.501 198.502C264.523 198.506 264.544 198.497 264.566 198.485Z" fill="#080435"/>
<path d="M264.084 200.398C264.192 200.725 264.454 200.918 264.673 200.837C264.893 200.755 264.983 200.424 264.875 200.097C264.768 199.77 264.506 199.577 264.286 199.658C264.071 199.74 263.977 200.071 264.084 200.398Z" fill="#080435"/>
<path d="M249.003 204.47C249.003 204.47 252.671 208.53 255.746 207.769C255.746 207.769 252.147 204.978 256.456 200.819C256.46 200.815 251.575 201.783 249.003 204.47Z" fill="#131F2D"/>
<path d="M254.047 205.567C254.821 205.76 255.578 205.313 255.742 204.569C255.905 203.825 255.406 203.064 254.632 202.871C253.858 202.677 253.101 203.124 252.938 203.868C252.779 204.612 253.273 205.373 254.047 205.567Z" fill="#FF7955"/>
<path d="M264.75 189.562C264.097 189.562 263.791 189.067 263.723 188.766C263.701 188.684 263.753 188.598 263.839 188.577C263.92 188.555 264.006 188.607 264.028 188.689C264.045 188.762 264.23 189.385 265.004 189.222C265.09 189.205 265.172 189.256 265.189 189.342C265.206 189.428 265.155 189.51 265.069 189.527C264.948 189.549 264.845 189.562 264.75 189.562Z" fill="#39B4EF"/>
<path d="M261.5 195.07L261.444 194.997C261.478 194.971 264.88 192.322 264.351 190.155C264.196 189.527 263.968 189.166 263.654 189.046C263.168 188.861 262.549 189.286 262.003 189.66C261.917 189.721 261.835 189.777 261.753 189.828L261.702 189.751C261.784 189.699 261.865 189.639 261.951 189.583C262.515 189.196 263.16 188.757 263.689 188.96C264.037 189.093 264.282 189.476 264.445 190.133C264.669 191.058 264.235 192.206 263.177 193.453C262.381 194.391 261.508 195.066 261.5 195.07Z" fill="white"/>
<path d="M251.463 193.978L251.441 193.888C255.324 193.028 256.378 190.108 256.387 190.078L256.477 190.108C256.468 190.138 255.398 193.105 251.463 193.978Z" fill="white"/>
<path d="M228.173 281.246C229.3 282.39 231.058 285.19 232.164 286.359C232.645 286.867 234.15 288.686 233.755 289.27C233.411 289.778 231.587 288.948 230.762 288.44C231.622 293.145 230.947 300.417 228.491 290.698C228.487 290.698 228.483 290.702 228.478 290.702C228.642 291.709 229.562 297.312 228.246 297.019C227.085 296.761 226.272 292.775 225.984 291.124C225.971 291.124 225.954 291.128 225.941 291.128C226.1 292.835 226.388 296.968 225.356 296.336C224.058 295.536 223.077 291.193 223.077 291.193C223.077 291.193 224.221 296.77 222.626 296.052C221.723 295.643 221.374 292.379 221.181 290.341C221.142 289.915 221.108 289.541 221.078 289.258C221.052 289.025 221.056 288.815 221.078 288.621C220.957 285.194 221.405 282.971 221.405 282.971C221.405 282.971 221.499 280.257 224.208 279.733C225.924 279.397 227.683 280.747 228.173 281.246Z" fill="#FF7955"/>
<path d="M257.118 317.316L256.92 317.278C256.963 317.05 261.315 294.272 262.252 290.698C263.203 287.069 266.66 286.226 266.694 286.217L266.742 286.411C266.707 286.419 263.366 287.236 262.446 290.745C261.513 294.319 257.165 317.088 257.118 317.316Z" fill="#131F2D"/>
<path d="M261.431 230.611C261.526 225.98 261.41 222.351 260.872 221.074L263.198 220.295C263.198 220.295 264.2 223.073 265.572 227.305C264.175 228.384 262.687 229.558 261.431 230.611Z" fill="#016EB9"/>
<path d="M270.104 242.828C266.827 245.559 262.196 249.489 260.455 251.368C260.665 247.111 260.966 242.278 261.177 237.724L267.27 232.718C268.195 235.845 269.197 239.323 270.104 242.828Z" fill="#016EB9"/>
<path d="M273.196 259.453C270.242 261.955 265.546 265.937 262.454 268.741C261.384 267.116 260.524 265.185 260.244 263.009C260.128 262.033 260.106 260.231 260.149 257.9L271.476 248.612C272.336 252.542 272.99 256.301 273.196 259.453Z" fill="#016EB9"/>
<path d="M259.582 217.104C259.582 217.104 262.717 216.059 263.551 216.872C264.385 217.685 263.77 221.392 262.325 221.723C260.885 222.05 258.154 217.999 259.582 217.104Z" fill="#39B4EF"/>
<path d="M261.422 216.227C261.422 216.227 257.329 214.67 256.529 213.109C255.729 211.553 251.493 215.152 251.566 216.227C251.639 217.302 259.272 223.267 259.775 222.514C260.274 221.761 262.424 217.251 261.422 216.227Z" fill="#A0462D"/>
<path d="M261.422 216.227C261.422 216.227 262.033 214.593 261.74 213.703C261.74 213.703 261.547 212.925 262.17 212.976C262.794 213.028 266.187 215.582 266.488 216.36C266.789 217.139 266.836 220.794 265.74 221.061C264.643 221.327 261.994 217.405 261.684 217.018C261.37 216.631 261.422 216.227 261.422 216.227Z" fill="#A0462D"/>
<path d="M262.304 221.796C261.383 221.796 260.596 220.919 260.562 220.884L260.678 220.781C260.687 220.79 261.452 221.641 262.304 221.641C262.312 221.641 262.317 221.641 262.325 221.641C263.164 221.628 263.667 219.672 263.671 219.654L263.822 219.693C263.8 219.779 263.284 221.783 262.329 221.8C262.321 221.796 262.312 221.796 262.304 221.796Z" fill="#131F2D"/>
<path d="M263.383 205.92C263.383 206.388 263.62 206.767 263.917 206.767C264.209 206.767 264.45 206.388 264.45 205.92C264.45 205.451 264.213 205.072 263.917 205.072C263.62 205.068 263.383 205.451 263.383 205.92Z" fill="white"/>
<path d="M400.792 97.348C394.255 84.4001 368.983 67.9647 361.243 69.3107C359.578 69.5988 370.497 46.7303 374.182 49.0567C386.919 57.1153 405.853 74.8751 410.527 87.8102L400.792 97.348Z" fill="#657285"/>
<path d="M403.423 89.7237C406.545 85.8277 409.409 86.3652 410.527 87.8144C411.645 89.2635 410.278 92.4715 407.474 94.9742C404.67 97.4769 401.914 98.7971 400.796 97.3479C399.673 95.8988 401.041 92.6908 403.423 89.7237Z" fill="#131F2D"/>
<path d="M403.87 94.6217C403.849 96.23 404.477 99.425 404.485 101.038C404.489 101.734 404.653 104.086 405.294 104.181C405.853 104.267 406.541 102.345 406.769 101.386C409.224 105.187 414.367 109.569 409.749 101.205C409.753 101.201 409.757 101.201 409.761 101.197C410.299 101.997 413.296 106.447 413.989 105.265C414.603 104.224 412.578 100.943 411.705 99.6142C411.714 99.6056 411.727 99.5927 411.735 99.5841C412.729 100.848 415.201 103.841 415.485 102.642C415.842 101.136 413.7 97.4856 413.7 97.4856C413.7 97.4856 416.526 102.087 417.136 100.41C417.48 99.4637 415.61 97.0083 414.423 95.4946C414.173 95.1764 413.954 94.9012 413.795 94.6905C413.662 94.5142 413.524 94.3766 413.387 94.2648C411.258 91.8738 409.525 90.7128 409.525 90.7128C409.525 90.7128 407.71 88.9626 405.556 90.6311C404.184 91.7018 403.874 93.9251 403.87 94.6217Z" fill="#FF7955"/>
<path d="M346.187 186.672C346.187 186.672 347.611 190.52 345.646 192.696C343.68 194.872 337.136 199.035 340.696 200.291C342.739 201.009 349.383 196.876 351.361 195.965C353.339 195.053 355.562 195.126 356.465 193.023C357.458 190.71 352.741 183.653 352.741 183.653C352.741 183.653 351.417 185.395 349.864 186.061C347.632 187.016 346.187 186.672 346.187 186.672Z" fill="#131F2D"/>
<path d="M403.234 202.544C403.234 202.544 403.441 206.681 400.934 208.065C398.426 209.45 390.987 211.144 393.993 213.557C395.717 214.941 403.238 213.307 405.384 213.127C407.53 212.942 409.616 213.776 411.095 212.095C412.72 210.245 410.347 201.933 410.347 201.933C410.347 201.933 408.575 203.129 406.906 203.223C404.498 203.365 403.234 202.544 403.234 202.544Z" fill="#131F2D"/>
<path d="M355.88 107.191C355.88 107.191 347.448 102.353 359.806 130.614C368.729 151.014 387.715 187.36 397.179 199.895C399.48 202.944 402.877 205.171 406.928 204.225L409.104 203.718C413.481 202.694 416.195 198.304 414.918 194.309L382.718 102.538C382.718 102.538 380.705 99.9625 369.482 101.248C355.725 102.822 355.88 107.191 355.88 107.191Z" fill="#364154"/>
<path d="M344.235 109.096C344.235 109.096 327.357 122.573 322.984 140.139C318.013 160.092 339.78 186.693 344.975 188.749C348.363 190.086 351.06 188.757 354.9 181.576C357.196 177.28 346.024 152.812 349.524 144.392C353.76 134.209 374.487 125.785 374.487 125.785L372.479 99.5754C372.479 99.5754 357.222 103.14 344.235 109.096Z" fill="#364154"/>
<path d="M380.469 56.0661C380.469 56.0661 377.471 45.2382 358.542 45.9907C343.964 46.5713 335.802 48.6482 334.035 59.0547C333.407 62.7486 331.911 76.4534 339.729 112.915C339.729 112.915 365.452 124.934 389.46 111.805C389.46 111.805 385.797 92.3426 381.458 62.4261C381.088 59.8976 381.23 57.9668 380.469 56.0661Z" fill="#657285"/>
<path d="M354.259 50.6435C355.17 54.2127 361.956 79.7989 399.269 70.0804C401.583 69.4784 404.012 69.6246 406.244 70.5061L412.398 72.9358C413.176 73.2454 413.447 74.286 412.926 74.9827L409.233 79.9408C406.863 83.1229 403.556 85.3332 399.862 86.2234C392.122 88.0897 378.293 89.9388 366.609 83.5874C352.736 76.0448 350.935 57.9883 350.767 51.1466C350.741 50.0415 351.915 49.4008 352.724 50.0759C352.934 50.2479 354.19 50.3726 354.259 50.6435Z" fill="#39B4EF"/>
<path d="M357.957 43.3547L356.942 38.1902L356.646 36.6851L354.909 27.8439L353.851 36.3626L353.214 41.4755L353.012 43.0924C352.875 44.1889 352.229 44.3609 351.391 45.2425C351.051 45.5994 348.88 47.7581 351.021 49.0439C353.692 50.6478 359.071 49.1557 361.277 46.7261C361.269 46.7218 358.284 45.0232 357.957 43.3547Z" fill="#FF7955"/>
<path d="M357.217 39.5748C357.217 39.5748 355.463 41.3852 353.218 41.4755L353.515 39.3899L357.217 39.5748Z" fill="#131F2D"/>
<path d="M348.823 23.9822C348.823 23.9822 348.14 26.0119 348.419 28.6737C348.699 31.3312 351.713 25.1647 351.713 25.1647L348.823 23.9822Z" fill="#5C305D"/>
<path d="M348.062 29.3918C349.111 24.4079 353.072 21.1269 356.908 22.0643C360.748 23.0017 363.01 27.7965 361.96 32.7804C360.911 37.7643 356.951 41.0454 353.115 40.1079C349.279 39.1748 347.017 34.3758 348.062 29.3918Z" fill="#FF7955"/>
<path d="M362.369 30.1616L358.968 29.4349C358.219 29.2758 357.566 28.7683 357.217 28.0416C356.615 26.7859 355.82 26.0936 352.608 25.9044C348.535 25.6636 346.08 22.7954 345.839 20.4646C345.594 18.0866 347.804 16.7106 349.748 18.0264C351.692 19.3423 351.051 16.5257 353.033 16.4311C356.74 16.2548 357.166 19.3595 360.172 19.5616C364.115 19.8239 370.879 23.7371 366.901 30.8582L362.369 30.1616Z" fill="#131F2D"/>
<path d="M354.594 30.626C354.551 30.626 354.508 30.6045 354.478 30.5658C354.431 30.497 354.44 30.4024 354.504 30.3465C354.543 30.3164 355.334 29.5036 356.418 30.2131C356.486 30.2562 356.512 30.3508 356.469 30.4239C356.431 30.497 356.349 30.5056 356.271 30.4798C355.51 30.2175 354.715 30.5658 354.685 30.5916C354.659 30.6174 354.624 30.626 354.594 30.626Z" fill="#080435"/>
<path d="M349.387 29.4263C349.357 29.4048 349.348 29.3618 349.357 29.2973C349.378 29.1898 349.456 29.0779 349.537 29.0392C349.585 29.0177 350.698 28.3985 350.849 29.7875C350.857 29.8735 350.802 30.0025 350.72 30.0756C350.638 30.1487 350.582 30.1186 350.552 30.0498C350.264 29.3661 349.503 29.4091 349.464 29.4263C349.434 29.4435 349.408 29.4435 349.387 29.4263Z" fill="#080435"/>
<path d="M350.569 31.3915C350.582 31.7613 350.388 32.0709 350.135 32.0795C349.885 32.0881 349.675 31.7957 349.662 31.4216C349.649 31.0518 349.842 30.7422 350.096 30.7336C350.345 30.7293 350.556 31.0217 350.569 31.3915Z" fill="#080435"/>
<path d="M366.897 30.8583C366.897 30.8583 364.055 36.1346 360.653 36.2034C360.653 36.2034 363.732 32.273 358.219 29.1425C358.219 29.1468 363.56 28.777 366.897 30.8583Z" fill="#5C305D"/>
<path d="M361.892 33.4297C361.131 33.8512 360.227 33.5974 359.879 32.8664C359.531 32.1354 359.862 31.1979 360.623 30.7765C361.384 30.3551 362.287 30.6088 362.636 31.3398C362.988 32.0709 362.653 33.0083 361.892 33.4297Z" fill="#FF7955"/>
<path d="M350.367 17.7125C350.298 17.7125 350.225 17.7082 350.148 17.6953L350.174 17.4975C351.107 17.6222 351.253 16.8224 351.257 16.788L351.455 16.8224C351.455 16.831 351.296 17.7125 350.367 17.7125Z" fill="#131F2D"/>
<path d="M351.558 24.5627C351.545 24.5584 350.475 24.0983 349.417 23.3415C348.011 22.3352 347.271 21.2602 347.284 20.2281C347.292 19.4885 347.46 19.0155 347.796 18.7833C348.303 18.4306 349.073 18.7102 349.752 18.951C349.855 18.9897 349.954 19.0241 350.053 19.0585L350.019 19.1531C349.92 19.1187 349.821 19.0843 349.718 19.0456C349.06 18.8091 348.316 18.5425 347.851 18.865C347.546 19.08 347.391 19.5229 347.383 20.2281C347.357 22.6405 351.554 24.4466 351.597 24.4638L351.558 24.5627Z" fill="white"/>
<path d="M361.35 20.598C359.325 20.598 357.905 19.9314 357.054 19.3509C356.065 18.6758 355.605 17.9662 355.601 17.9576L355.687 17.9017C355.704 17.9275 357.518 20.6797 361.78 20.4862L361.784 20.5851C361.634 20.598 361.488 20.598 361.35 20.598Z" fill="white"/>
<path d="M349.886 35.4336C349.886 35.4336 350.161 37.2655 351.984 37.3816C353.954 37.5063 354.444 35.9152 354.444 35.9152C354.444 35.9152 351.799 36.285 349.886 35.4336Z" fill="white"/>
<path d="M356.362 32.2386C356.336 32.2386 356.314 32.2343 356.293 32.2171C355.454 31.7097 354.293 31.9935 354.28 31.9978C354.207 32.015 354.134 31.972 354.117 31.8989C354.1 31.8258 354.143 31.7527 354.216 31.7355C354.268 31.7226 355.497 31.4216 356.435 31.9892C356.499 32.0279 356.521 32.1096 356.482 32.1741C356.452 32.2128 356.405 32.2386 356.362 32.2386Z" fill="#131F2D"/>
<path d="M355.205 47.7194C355.205 47.7194 351.838 46.7648 350.986 47.6635C350.135 48.5623 350.939 52.4669 352.487 52.7464C354.031 53.0259 356.757 48.601 355.205 47.7194Z" fill="#39B4EF"/>
<path d="M352.47 52.828C351.468 52.828 350.845 50.7552 350.819 50.6692L350.978 50.6219C350.982 50.6434 351.593 52.6645 352.47 52.6645C352.474 52.6645 352.483 52.6645 352.487 52.6645C353.399 52.6387 354.19 51.6798 354.199 51.6712L354.328 51.7744C354.293 51.8174 353.485 52.8022 352.496 52.828C352.483 52.828 352.474 52.828 352.47 52.828Z" fill="#131F2D"/>
<path d="M353.575 105.471C353.902 106 354.564 106.146 355.054 105.798C355.549 105.45 355.682 104.736 355.355 104.202C355.029 103.674 354.44 103.377 353.945 103.729C353.253 104.224 353.248 104.938 353.575 105.471Z" fill="#131F2D"/>
<path d="M351.361 88.5024C351.593 89.0872 352.221 89.3581 352.763 89.1087C353.304 88.8593 353.558 88.1842 353.326 87.5994C353.094 87.0145 352.56 86.6103 352.019 86.8597C351.249 87.2123 351.129 87.9176 351.361 88.5024Z" fill="#131F2D"/>
<path d="M349.206 71.3403C349.438 71.9251 350.066 72.196 350.608 71.9466C351.15 71.6972 351.404 71.0221 351.171 70.4373C350.939 69.8524 350.406 69.4482 349.864 69.6976C349.099 70.0545 348.974 70.7555 349.206 71.3403Z" fill="#131F2D"/>
<path d="M349.885 45.952C339.973 45.9606 331.227 51.9293 328.526 49.2632C327.89 48.631 331.253 27.5815 331.253 27.5815L323.082 27.8654C323.082 27.8654 307.253 55.0641 315.437 64.0215C325.469 75.0042 340.197 68.3088 340.197 68.3088C340.197 68.3088 354.964 45.9477 349.885 45.952Z" fill="#657285"/>
<path d="M346.17 33.9114L326.101 29.9595C325.078 29.7574 324.403 28.7038 324.588 27.603L324.983 25.268C325.168 24.1671 326.149 23.4361 327.172 23.6382L347.241 27.5901C348.265 27.7922 348.94 28.8457 348.755 29.9466L348.359 32.2816C348.174 33.3868 347.194 34.1135 346.17 33.9114Z" fill="#131F2D"/>
<path d="M333.339 33.6706L313.97 29.8563C312.633 29.594 311.747 28.2136 311.992 26.773L312.878 21.5612C313.123 20.1206 314.405 19.166 315.742 19.4326L335.11 23.2469C336.448 23.5092 337.334 24.8896 337.088 26.3301L336.203 31.542C335.957 32.9825 334.676 33.9372 333.339 33.6706Z" fill="#364154"/>
<path d="M317.312 32.0194L286.595 25.9733C285.499 25.7583 284.772 24.6273 284.974 23.4448L286.514 14.3842C286.716 13.2017 287.765 12.4233 288.862 12.6384L319.578 18.6844C320.674 18.8994 321.401 20.0304 321.199 21.213L319.66 30.2735C319.462 31.4517 318.408 32.2344 317.312 32.0194Z" fill="#39B4EF"/>
<path d="M284.716 26.657L283.189 26.3559C282.351 26.1925 281.792 25.3239 281.947 24.4166L284.041 12.0965C284.196 11.1934 285 10.5914 285.843 10.7591L287.369 11.0601C288.208 11.2235 288.767 12.0922 288.612 12.9995L286.518 25.3196C286.363 26.2226 285.555 26.8247 284.716 26.657Z" fill="#131F2D"/>
<path d="M327.365 19.6562C327.365 19.6562 325.301 18.6758 324.48 20.7141C323.439 23.3071 324.45 27.6159 325.134 25.9818C325.736 24.5327 326.015 22.8814 326.015 22.8814C326.015 22.8814 325.198 28.0631 326.385 27.861C327.572 27.6589 328.273 23.4404 328.273 23.4404C328.273 23.4404 327.899 28.3986 328.961 27.818C330.027 27.2375 330.565 24.2833 330.565 24.2833C330.565 24.2833 330.036 28.2868 331.257 27.5815C332.478 26.8763 332.293 23.9005 332.478 22.6234C332.655 21.415 331.988 20.899 330.896 20.8001C330.896 20.8001 329.86 20.0175 329.129 20.1465C328.849 20.1938 328.625 19.8799 328.432 19.8197C328.066 19.7078 327.365 19.6562 327.365 19.6562Z" fill="#FF7955"/>
<path d="M361.07 133.014C361.002 133.014 360.933 132.971 360.903 132.902C358.219 126.46 352.315 125.708 352.255 125.699C352.156 125.686 352.087 125.6 352.096 125.501C352.109 125.402 352.195 125.334 352.298 125.342C352.358 125.351 358.469 126.129 361.234 132.764C361.273 132.855 361.23 132.962 361.135 133.001C361.118 133.01 361.092 133.014 361.07 133.014Z" fill="#131F2D"/>
<path d="M333.54 70.274C333.442 70.274 333.36 70.1923 333.36 70.0934C333.416 63.256 333.85 59.0762 333.854 59.0375C333.867 58.9386 333.949 58.8655 334.052 58.8784C334.151 58.887 334.224 58.9773 334.211 59.0762C334.207 59.1192 333.777 63.2818 333.721 70.0977C333.721 70.1923 333.639 70.274 333.54 70.274Z" fill="#131F2D"/>
<path d="M353.218 46.8808C353.218 46.8808 357.493 45.0317 358.275 43.3417C359.058 41.6517 363.702 45.2639 363.668 46.4034C363.633 47.5473 355.097 54.2986 354.538 53.5246C353.975 52.7548 352.199 48.0117 353.218 46.8808Z" fill="#364154"/>
<path d="M353.219 46.8808C353.219 46.8808 352.5 45.178 352.776 44.219C352.776 44.219 352.948 43.3805 352.29 43.4708C351.632 43.5568 348.14 46.425 347.856 47.2679C347.572 48.1064 347.671 51.9852 348.845 52.2131C350.019 52.4453 352.664 48.158 352.973 47.7323C353.292 47.3066 353.219 46.8808 353.219 46.8808Z" fill="#364154"/>
<path d="M210.125 212.834C211.458 210.826 204.535 204.01 204.535 204.01C203.843 203.662 195.294 216.051 182.896 214.258C178.48 213.617 171.415 206.823 170.809 205.73C170.727 205.584 162.105 210.904 162.105 210.904C163.206 212.882 164.049 220.407 169.273 224.023C180.084 231.497 196.477 229.424 210.125 212.834Z" fill="#FF7955"/>
<path d="M163.429 354.298C163.429 354.298 163.597 357.768 165.803 358.684C168.009 359.6 174.356 360.301 172.051 362.602C170.727 363.922 164.315 363.281 162.509 363.333C160.703 363.384 159.03 364.283 157.658 363.019C156.149 361.63 157.443 354.47 157.443 354.47C157.443 354.47 159.021 355.3 160.423 355.218C162.44 355.106 163.429 354.298 163.429 354.298Z" fill="#131F2D"/>
<path d="M179.332 258.111C179.332 258.111 180.463 264.596 176.571 294.8C173.759 316.607 170.348 338.594 168.667 349.138C168.065 352.909 165.205 355.739 161.735 355.988L159.869 356.121C156.119 356.392 152.984 353.008 153.152 348.871L156.089 277.789L156.665 254.404L179.332 258.111Z" fill="#364154"/>
<path d="M142.754 354.9C142.754 354.9 142.922 358.37 145.128 359.286C147.334 360.202 153.681 360.903 151.376 363.204C150.051 364.524 143.64 363.883 141.834 363.935C140.028 363.986 138.355 364.885 136.983 363.621C135.474 362.232 136.768 355.072 136.768 355.072C136.768 355.072 138.346 355.902 139.748 355.82C141.765 355.704 142.754 354.9 142.754 354.9Z" fill="#131F2D"/>
<path d="M158.961 249.536C158.961 249.536 159.791 265.198 155.895 295.402C153.083 317.209 149.673 339.196 147.991 349.74C147.389 353.511 144.53 356.341 141.059 356.59L139.193 356.723C135.443 356.994 132.308 353.61 132.476 349.473L135.413 278.391L135.989 255.006L158.961 249.536Z" fill="#364154"/>
<path d="M134.025 267.451C134.115 269.339 145.626 265.215 158.751 264.394C171.875 263.572 180.643 258.803 180.553 256.911C180.462 255.024 170.851 255.737 157.727 256.559C144.599 257.38 133.93 265.559 134.025 267.451Z" fill="#131F2D"/>
<path d="M128.778 214.412C128.778 214.412 129.479 204.212 146.353 200.936C170.684 196.205 172.344 220.725 180.549 256.916C180.549 256.916 155.917 257.715 134.046 267.245C134.05 267.24 125.919 230.332 128.778 214.412Z" fill="#016EB9"/>
<path d="M122.319 214.185L134.416 218.678C134.416 218.678 158.953 216.489 165.179 214.146C171.406 211.802 172.344 206.401 172.344 206.401C172.344 206.401 164.276 200.08 152.343 200.235C151.221 200.248 150.069 200.321 148.882 200.458C146.891 200.691 144.925 201.09 143.033 201.688C128.611 206.246 122.319 214.185 122.319 214.185Z" fill="#016EB9"/>
<path d="M143.67 199.134L144.224 194.464L144.388 193.105L145.338 185.111L146.852 192.598L147.759 197.091L148.047 198.515C148.241 199.482 148.826 199.581 149.634 200.299C149.961 200.592 152.038 202.342 150.215 203.649C147.948 205.279 143.068 204.376 140.943 202.385C140.956 202.385 143.489 200.643 143.67 199.134Z" fill="#FF7955"/>
<path d="M179.332 258.111C179.332 258.111 168.388 257.526 135.676 267.941L135.547 273.097L178.803 273.489L179.332 258.111Z" fill="#364154"/>
<path d="M122.134 214.503C121.429 216.102 123.265 218.657 126.232 220.209C129.199 221.761 132.175 221.718 132.88 220.119C133.586 218.519 131.749 215.965 128.782 214.412C125.811 212.86 122.835 212.903 122.134 214.503Z" fill="#131F2D"/>
<path d="M128.383 272.173C127.441 259.947 126.976 242.299 130.094 227.666C130.817 224.277 131.139 222.991 131.823 221.086C132.373 219.551 130.49 216.765 128.06 215.724C125.781 214.748 122.62 215.573 122.22 216.343C121.545 217.655 120.986 220.028 120.122 223.791C117.129 236.868 116.699 253.119 118.78 273.566L128.383 272.173Z" fill="#FF7955"/>
<path d="M148.886 180.191C148.886 180.191 149.901 181.778 150.219 184.139C150.537 186.5 146.637 181.916 146.637 181.916L148.886 180.191Z" fill="#131F2D"/>
<path d="M147.825 195.504C151.161 194.29 152.618 189.875 151.078 185.644C149.538 181.412 145.585 178.967 142.248 180.181C138.912 181.395 137.455 185.81 138.995 190.041C140.535 194.272 144.489 196.718 147.825 195.504Z" fill="#FF7955"/>
<path d="M138.505 188.826L141.287 187.373C141.898 187.055 142.358 186.457 142.504 185.743C142.758 184.513 143.3 183.722 146.031 182.776C149.492 181.576 151.006 178.501 150.722 176.433C150.434 174.322 148.237 173.677 146.839 175.285C145.441 176.893 145.403 174.309 143.67 174.713C140.436 175.466 140.72 178.248 138.17 179.155C134.824 180.342 129.815 185.369 134.743 190.538L138.505 188.826Z" fill="#131F2D"/>
<path d="M145.244 187.386C145.27 187.351 145.278 187.308 145.265 187.265C145.248 187.192 145.175 187.149 145.106 187.166C145.067 187.179 144.104 187.36 144.001 188.568C143.992 188.646 144.044 188.714 144.113 188.723C144.182 188.732 144.233 188.671 144.255 188.603C144.487 187.876 145.14 187.446 145.171 187.437C145.205 187.424 145.231 187.407 145.244 187.386Z" fill="#080435"/>
<path d="M145.286 189.261C145.463 189.531 145.755 189.639 145.936 189.497C146.116 189.359 146.121 189.028 145.944 188.757C145.768 188.487 145.476 188.379 145.295 188.521C145.11 188.659 145.11 188.99 145.286 189.261Z" fill="#080435"/>
<path d="M149.591 185.244C149.617 185.227 149.634 185.197 149.634 185.154C149.634 185.085 149.587 185.012 149.527 184.995C149.492 184.986 148.679 184.668 148.344 185.631C148.322 185.691 148.348 185.773 148.404 185.816C148.46 185.859 148.512 185.833 148.546 185.782C148.886 185.287 149.501 185.244 149.527 185.253C149.552 185.257 149.574 185.253 149.591 185.244Z" fill="#080435"/>
<path d="M148.942 187.012C149.011 187.334 149.243 187.553 149.458 187.497C149.677 187.446 149.797 187.141 149.729 186.818C149.66 186.495 149.428 186.276 149.213 186.332C148.993 186.384 148.873 186.689 148.942 187.012Z" fill="#080435"/>
<path d="M134.747 190.533C134.747 190.533 138.308 194.391 141.253 193.621C141.253 193.621 137.77 190.985 141.868 186.938C141.868 186.938 137.185 187.923 134.747 190.533Z" fill="#131F2D"/>
<path d="M139.602 191.527C140.346 191.703 141.073 191.269 141.219 190.551C141.365 189.833 140.883 189.11 140.135 188.929C139.391 188.753 138.665 189.188 138.518 189.906C138.372 190.624 138.854 191.351 139.602 191.527Z" fill="#FF7955"/>
<path d="M141.868 186.938C141.868 186.938 142.797 190.981 143.781 191.428C144.766 191.875 149.729 190.288 151.681 188.456C152.562 190.942 151.672 193.789 149.522 195.1C148.813 195.535 148.026 195.84 147.2 195.999C145.51 196.322 143.73 196.218 142.539 194.89C142.177 194.485 141.752 191.29 141.752 191.29C141.752 191.29 141.382 189.463 140.135 188.925C140.135 188.929 140.866 187.455 141.868 186.938Z" fill="#131F2D"/>
<path d="M145.94 175.207C145.355 175.207 145.11 174.666 145.106 174.661L145.269 174.588C145.282 174.614 145.579 175.263 146.353 174.932L146.426 175.096C146.241 175.173 146.082 175.207 145.94 175.207Z" fill="#131F2D"/>
<path d="M146.65 181.361L146.594 181.292C146.602 181.284 147.424 180.634 148.172 179.731C148.856 178.901 149.612 177.689 149.337 176.609C149.182 176.012 148.963 175.663 148.658 175.552C148.189 175.38 147.6 175.792 147.08 176.158C146.998 176.214 146.921 176.27 146.843 176.321L146.792 176.248C146.869 176.197 146.946 176.141 147.028 176.085C147.566 175.706 148.181 175.276 148.688 175.466C149.023 175.59 149.264 175.956 149.423 176.584C149.974 178.717 146.787 181.254 146.65 181.361Z" fill="white"/>
<path d="M137 180.428L136.979 180.342C140.698 179.469 141.683 176.657 141.692 176.627L141.778 176.657C141.765 176.682 140.767 179.542 137 180.428Z" fill="white"/>
<path d="M150.679 190.499C150.679 190.499 149.084 191.467 147.17 191.798C147.17 191.798 147.867 193.548 149.673 192.653C150.726 192.133 150.679 190.499 150.679 190.499Z" fill="white"/>
<path d="M123.898 268.169C123.347 268.896 123.446 269.975 124.121 270.569L129.819 275.531C130.494 276.125 133.496 277.823 134.046 277.096C134.597 276.37 132.748 273.914 132.154 273.226C130.782 271.644 128.667 267.907 127.269 266.35C126.658 265.679 124.448 267.442 123.898 268.169Z" fill="#FF7955"/>
<path d="M118.32 268.096C118.32 268.096 117.348 271.906 117.567 277.587C117.636 279.315 128.275 279.483 128.705 277.604C129.135 275.725 127.32 269.64 127.32 269.64L118.32 268.096Z" fill="#FF7955"/>
<path d="M126.224 272.22C126.224 272.22 128.881 270.354 129.81 273.824C131.324 279.462 129.978 292.891 127.05 278.369C126.994 278.081 128.267 287.223 126.37 286.699C124.474 286.174 123.683 278.008 123.683 278.008C123.683 278.008 124.285 286.729 122.642 285.611C120.999 284.489 119.989 278.817 119.989 278.817C119.989 278.817 121.132 286.093 119.094 285.052C117.701 284.342 117.624 278.283 117.503 276.181C117.387 274.194 118.544 273.467 120.333 273.489C120.333 273.489 122.126 272.392 123.291 272.723C123.738 272.848 124.147 272.371 124.469 272.31C125.08 272.19 126.224 272.22 126.224 272.22Z" fill="#FF7955"/>
<path d="M155.272 301.547L154.979 301.513C154.997 301.384 156.588 288.548 157.792 283.938C159.004 279.285 164.582 275.273 164.638 275.234L164.805 275.475C164.75 275.514 159.258 279.47 158.071 284.016C156.88 288.6 155.289 301.418 155.272 301.547Z" fill="#131F2D"/>
<path d="M204.707 209.093C205.571 209.196 206.358 208.513 206.453 207.579L207.209 199.732C207.304 198.798 206.99 195.165 206.126 195.062C205.261 194.958 204.358 197.968 204.148 198.88C203.662 200.979 201.907 204.931 201.46 207.038C201.262 207.958 203.838 208.99 204.707 209.093Z" fill="#FF7955"/>
<path d="M207.691 214.163C207.691 214.163 211.187 212.963 215.487 209.665C216.795 208.663 211.123 198.966 209.428 199.607C207.73 200.248 203.984 205.201 203.984 205.201L207.691 214.163Z" fill="#FF7955"/>
<path d="M206.59 204.78C206.59 204.78 203.687 203.4 205.885 200.669C209.45 196.227 220.639 190.116 210.933 200.682C210.74 200.893 217.164 194.752 217.788 196.752C218.411 198.751 212.486 203.916 212.486 203.916C212.486 203.916 218.949 198.618 218.97 200.708C218.992 202.802 215.13 206.805 215.13 206.805C215.13 206.805 220.17 201.809 220.471 204.217C220.677 205.859 216.003 209.235 214.434 210.491C212.946 211.678 211.754 211.033 210.796 209.407C210.796 209.407 208.964 208.388 208.585 207.154C208.439 206.681 207.846 206.573 207.622 206.315C207.192 205.834 206.59 204.78 206.59 204.78Z" fill="#FF7955"/>
<path d="M38.1602 376.405C38.1602 376.405 46.7176 329.013 48.0463 327.619C49.3708 326.23 51.422 327.465 50.6996 330.092C49.9771 332.72 40.0265 375.446 39.6093 376.405C39.2051 377.33 37.9194 377.73 38.1602 376.405Z" fill="#131F2D"/>
<path d="M92.9231 314.366C92.9876 305.916 73.5807 280.519 63.471 277.354C52.0238 273.768 37.3515 267.258 33.0427 279.027C28.7339 290.797 43.1697 327.048 43.1697 327.048C43.1697 327.048 43.9695 330.268 46.898 330.63C49.8221 330.991 85.8492 332.251 85.9051 330.63C85.9395 329.593 98.0145 316.091 92.9231 314.366Z" fill="#C6D8F5"/>
<path d="M87.4833 257.655C87.4833 257.655 100.926 280.24 118.858 285.546L115.65 293.33C115.65 293.33 92.9059 289.98 79.8892 266.329L87.4833 257.655Z" fill="#FF7955"/>
<path d="M101.39 370.824C101.39 370.824 101.291 374.479 103.532 375.644C105.772 376.81 112.373 378.13 109.771 380.327C108.279 381.591 101.605 380.327 99.7088 380.215C97.8124 380.104 95.9891 380.89 94.6474 379.441C93.1725 377.846 95.1033 370.458 95.1033 370.458C95.1033 370.458 96.6943 371.473 98.165 371.516C100.289 371.58 101.39 370.824 101.39 370.824Z" fill="#131F2D"/>
<path d="M124.719 370.802C124.719 370.802 124.62 374.457 126.86 375.623C129.101 376.788 135.701 378.108 133.1 380.305C131.608 381.57 124.934 380.305 123.037 380.194C121.141 380.082 119.318 380.869 117.976 379.42C116.501 377.824 118.432 370.437 118.432 370.437C118.432 370.437 120.023 371.451 121.494 371.494C123.618 371.555 124.719 370.802 124.719 370.802Z" fill="#131F2D"/>
<path d="M127.179 364.765C125.502 340.821 125.106 324.67 118.067 314.289C110.365 302.928 89.7153 294.895 81.7557 294.396C68.7733 293.579 62.6542 295.66 62.6542 295.66C52.9099 317.48 68.1756 320.374 79.4637 320.971C79.8378 320.993 80.2119 321.014 80.586 321.04C87.4233 321.505 99.58 323.375 104.177 330.686C107.819 336.478 110.348 344.61 111.414 365.577C111.621 369.602 114.755 372.724 118.497 372.613C118.501 372.613 127.781 373.374 127.179 364.765Z" fill="#016EB9"/>
<path d="M108.748 365.999C108.967 341.991 109.659 329.731 102.968 319.092C98.668 312.255 92.2005 307.099 83.7463 303.758C77.7131 301.375 70.6178 299.909 62.6538 299.41C49.6715 298.593 43.8361 296.903 43.8361 296.903C33.3264 324.833 71.7659 318.903 81.7725 330.802C86.1329 335.988 91.534 345.848 92.6004 366.82C92.8068 370.845 95.9417 373.967 99.6828 373.855C99.6871 373.855 108.666 374.776 108.748 365.999Z" fill="#016EB9"/>
<path d="M108.683 342.416C108.679 342.275 108.017 328.028 105.802 323.053C102.998 316.757 94.858 310.186 86.4468 307.426L86.4941 307.28C94.944 310.053 103.123 316.663 105.944 322.992C108.171 327.994 108.834 342.266 108.842 342.412L108.683 342.416Z" fill="#020202"/>
<path d="M53.047 252.555C53.047 252.555 58.5728 242.39 71.3057 245.511C84.0386 248.633 89.229 262.631 90.1406 296.258C90.1406 296.258 78.3537 295.794 47.3794 306.854C43.7113 308.165 38.3275 307.125 40.2153 300.395C43.7156 287.886 47.1042 262.94 53.047 252.555Z" fill="#39B4EF"/>
<path d="M41.7979 255.337L52.1398 258.176C52.1398 258.176 75.0427 265.469 81.4543 265.525C87.8659 265.581 90.5191 260.532 90.5191 260.532C90.5191 260.532 85.346 251.08 74.5095 246.625C73.4903 246.204 72.4239 245.83 71.3058 245.511C69.4267 244.978 67.5217 244.51 65.6124 244.484C43.991 244.217 41.7979 255.337 41.7979 255.337Z" fill="#39B4EF"/>
<path d="M41.798 255.337C41.8238 256.49 44.9458 257.419 48.7772 257.41C52.6044 257.402 55.692 256.464 55.6662 255.312C55.6404 254.159 52.5184 253.23 48.6869 253.239C44.8555 253.248 41.7722 254.185 41.798 255.337Z" fill="#131F2D"/>
<path d="M60.5772 244.643C61.9532 244.342 62.9423 243.318 63.3723 241.878L64.7226 237.371L65.1139 236.064L67.4145 228.371L67.5779 236.081L67.6768 240.708L67.7069 242.028C67.7284 243.103 67.7671 244.479 68.8249 244.879C68.8249 244.879 70.1709 247.361 68.5798 248.036C66.0814 249.102 60.5729 244.647 60.5772 244.643Z" fill="#FF7955"/>
<path d="M57.1968 229.175C57.1968 229.175 57.773 230.314 57.7601 233.002C57.7386 236.933 62.0001 237.315 62.7268 235.978C62.8171 235.814 61.0713 229.652 61.0713 229.652L59.6307 229.227L57.1968 229.175Z" fill="#131F2D"/>
<path d="M64.7052 237.246C64.7095 237.289 64.7181 237.332 64.7224 237.371C65.1094 239.822 67.6637 240.725 67.6637 240.725L67.6766 240.708L67.582 236.081C66.808 235.862 65.7114 235.668 65.1137 236.064C64.8041 236.27 64.6278 236.64 64.7052 237.246Z" fill="#131F2D"/>
<path d="M67.6483 237.887C71.2969 237.155 73.4723 232.663 72.5071 227.855C71.542 223.047 67.8018 219.743 64.1532 220.476C60.5046 221.208 58.3293 225.699 59.2944 230.507C60.2596 235.316 63.9998 238.62 67.6483 237.887Z" fill="#FF7955"/>
<path d="M66.791 221.835C66.6792 222.153 68.825 226.272 61.4802 229.579C54.1355 232.882 56.1781 221.589 61.7382 219.706C69.7667 216.988 72.4414 222.51 72.2006 224.853C71.9598 227.193 66.791 221.835 66.791 221.835Z" fill="#131F2D"/>
<path d="M55.3479 219.482C55.3479 219.482 58.6031 220.652 56.9605 223.142C55.3178 225.632 49.706 228.164 52.0969 230.843C54.4835 233.523 57.0465 237.775 54.3416 239.203C51.6325 240.631 49.7748 240.927 49.233 243.718C48.6912 246.509 43.1224 246.526 42.8042 243.486C42.486 240.45 37.3902 239.199 38.6115 235.956C39.8328 232.714 43.8965 229.007 44.1674 225.172C44.4383 221.323 52.7377 218.622 55.3479 219.482Z" fill="#131F2D"/>
<path d="M61.9615 227.919C61.9615 227.919 59.7512 232.37 61.7465 235.66C61.7465 235.66 59.4029 234.069 59.1621 233.29C58.9213 232.512 58.6719 229.506 58.6719 229.506L61.9615 227.919Z" fill="#131F2D"/>
<path d="M60.6327 232.142C61.5573 232.68 62.6022 232.456 62.9677 231.639C63.3333 230.822 62.8774 229.725 61.9529 229.188C61.0284 228.65 59.9834 228.874 59.6179 229.691C59.2524 230.508 59.7082 231.605 60.6327 232.142Z" fill="#FF7955"/>
<path d="M44.8556 245.993L44.7137 245.813C45.3114 245.335 45.621 244.884 45.6554 244.424C45.7113 243.714 45.1136 243.06 44.4772 242.368C43.8622 241.697 43.2258 241.005 43.1355 240.188C43.0194 239.147 44.1073 238.592 45.1566 238.055C45.9607 237.642 46.7907 237.216 46.9842 236.606C47.0745 236.318 47.0229 235.999 46.8294 235.638C46.5929 235.191 46.3391 234.8 46.094 234.421C44.9846 232.706 44.1073 231.355 45.9822 227.137C48.3645 221.783 51.207 220.721 53.929 220.368C54.2558 220.325 55.2922 220.502 55.4513 221.069C55.6104 221.637 54.8235 222.312 53.112 223.077C53.0948 223.09 50.3039 224.724 49.7449 228.625C49.4568 230.646 50.992 232.241 52.3465 233.652C53.6022 234.959 54.6858 236.085 53.6839 237.122C53.1378 237.685 52.4841 238.102 51.852 238.502C50.2566 239.513 48.7516 240.467 49.345 243.701L49.1171 243.744C48.4935 240.36 50.0631 239.362 51.7273 238.313C52.3465 237.922 52.9916 237.513 53.5162 236.967C54.3633 236.09 53.4001 235.084 52.1788 233.815C50.8587 232.439 49.2117 230.732 49.517 228.599C50.0889 224.578 52.9787 222.892 53.0088 222.875C55.1847 221.903 55.2879 221.336 55.232 221.138C55.1245 220.755 54.2773 220.562 53.9591 220.605C51.3059 220.944 48.5279 221.985 46.1929 227.236C44.3697 231.338 45.2125 232.645 46.2875 234.301C46.537 234.684 46.7907 235.079 47.0358 235.535C47.2594 235.956 47.3153 236.331 47.2078 236.679C46.9842 237.384 46.1112 237.831 45.2641 238.266C44.2363 238.79 43.2688 239.285 43.3677 240.171C43.4494 240.91 44.06 241.577 44.6492 242.222C45.32 242.953 45.9521 243.641 45.8876 244.449C45.8446 244.965 45.5092 245.473 44.8556 245.993Z" fill="white"/>
<path d="M60.7575 226.947L60.6758 226.698C63.4365 225.812 64.2406 222.97 64.2492 222.94L64.503 223.008C64.4944 223.039 63.6515 226.019 60.7575 226.947Z" fill="white"/>
<path d="M72.14 233.14C70.6263 233.273 69.2674 231.815 69.104 229.885C69.018 228.852 69.2889 227.846 69.8566 227.124C70.3038 226.548 70.9101 226.199 71.5551 226.143C73.0688 226.01 74.4277 227.468 74.5911 229.399C74.6771 230.431 74.4062 231.437 73.8428 232.159C73.4945 232.607 73.0516 232.916 72.57 233.058C72.4281 233.101 72.2862 233.127 72.14 233.14ZM69.9813 227.236C69.4437 227.924 69.1857 228.883 69.2674 229.872C69.4222 231.704 70.7037 233.092 72.1314 232.968C72.7334 232.912 73.301 232.589 73.7224 232.048C74.26 231.359 74.518 230.401 74.4363 229.411C74.2815 227.58 73 226.191 71.5723 226.315C71.439 226.328 71.3057 226.354 71.1767 226.388C70.7209 226.526 70.3081 226.814 69.9813 227.236Z" fill="#364154"/>
<path d="M65.6341 234.038C64.1204 234.172 62.7616 232.714 62.5982 230.783C62.5122 229.751 62.7831 228.745 63.3464 228.022C63.7936 227.446 64.4 227.098 65.045 227.042C66.5587 226.909 67.9175 228.366 68.0809 230.297C68.1669 231.329 67.896 232.336 67.3327 233.058C66.9844 233.505 66.5415 233.815 66.0598 233.957C65.9222 234 65.7803 234.026 65.6341 234.038ZM63.4711 228.134C62.9336 228.822 62.6756 229.781 62.7573 230.77C62.9121 232.602 64.1936 233.991 65.6212 233.866C66.2232 233.815 66.7909 233.488 67.2123 232.946C67.7498 232.258 68.0078 231.299 67.9261 230.31C67.7713 228.478 66.4899 227.089 65.0622 227.214C64.9289 227.227 64.7956 227.253 64.6666 227.287C64.2151 227.425 63.8022 227.717 63.4711 228.134Z" fill="#364154"/>
<path d="M69.9558 229.979C69.9816 229.971 70.0031 229.953 70.0117 229.923C70.0289 229.88 70.0074 229.829 69.9644 229.811C69.9214 229.794 68.928 229.416 67.5304 230.082C67.4917 230.104 67.4702 230.151 67.4874 230.198C67.5046 230.241 67.5519 230.263 67.5949 230.241C68.928 229.605 69.8956 229.971 69.9042 229.975C69.9214 229.983 69.9386 229.983 69.9558 229.979Z" fill="#364154"/>
<path d="M70.9015 233.699C70.9015 233.699 68.7041 234.408 66.2788 234.223C66.2788 234.223 66.6916 236.623 69.1298 236.073C70.5446 235.754 70.9015 233.699 70.9015 233.699Z" fill="#E9633E"/>
<path d="M70.9015 233.699C70.9015 233.699 70.4887 234.335 69.2374 234.697C67.986 235.058 66.2788 234.223 66.2788 234.223C66.2788 234.223 69.147 234.223 70.9015 233.699Z" fill="white"/>
<path d="M66.5583 229.089C66.597 229.063 66.6271 229.02 66.6314 228.964C66.64 228.874 66.5798 228.792 66.4981 228.784C66.4508 228.779 65.3198 228.521 64.7092 229.803C64.6705 229.885 64.6963 229.983 64.7737 230.026C64.8468 230.069 64.9242 230.026 64.9801 229.958C65.5305 229.27 66.425 229.102 66.468 229.11C66.4981 229.115 66.5282 229.106 66.5583 229.089Z" fill="#080435"/>
<path d="M65.8362 231.175C65.9222 231.557 66.1974 231.811 66.4554 231.746C66.7135 231.682 66.8511 231.316 66.7651 230.934C66.6791 230.551 66.4038 230.297 66.1458 230.362C65.8921 230.431 65.7502 230.792 65.8362 231.175Z" fill="#080435"/>
<path d="M72.0241 228.362C72.0714 228.354 72.1144 228.328 72.1359 228.28C72.1746 228.203 72.1488 228.1 72.0757 228.057C72.0327 228.031 71.0781 227.33 70.0589 228.268C69.9944 228.328 69.9858 228.431 70.0374 228.5C70.089 228.569 70.175 228.564 70.2524 228.521C71.005 228.108 71.8908 228.323 71.9252 228.345C71.9596 228.362 71.994 228.366 72.0241 228.362Z" fill="#080435"/>
<path d="M70.6177 229.996C70.5618 230.383 70.7295 230.732 70.9875 230.779C71.2498 230.822 71.5078 230.542 71.5637 230.155C71.6196 229.768 71.4519 229.42 71.1939 229.373C70.9316 229.33 70.6736 229.609 70.6177 229.996Z" fill="#080435"/>
<path d="M89.6159 382.395L89.1945 382.352C88.8677 382.318 88.6225 381.737 88.6483 381.054L91.9079 294.598L98.1002 291.296L90.5963 380.654C90.5361 381.677 90.1061 382.447 89.6159 382.395Z" fill="#131F2D"/>
<path d="M183.864 382.395L184.285 382.352C184.612 382.318 184.857 381.737 184.831 381.054L181.572 294.598L175.379 291.296L182.883 380.654C182.943 381.677 183.373 382.447 183.864 382.395Z" fill="#131F2D"/>
<path d="M134.209 306.527C165.285 306.527 190.477 303.017 190.477 298.688C190.477 294.358 165.285 290.848 134.209 290.848C103.133 290.848 77.9409 294.358 77.9409 298.688C77.9409 303.017 103.133 306.527 134.209 306.527Z" fill="#B8C1C9"/>
<path d="M190.473 295.071H77.9409V298.688H190.473V295.071Z" fill="#B8C1C9"/>
<path d="M134.209 302.91C165.285 302.91 190.477 299.401 190.477 295.071C190.477 290.742 165.285 287.232 134.209 287.232C103.133 287.232 77.9409 290.742 77.9409 295.071C77.9409 299.401 103.133 302.91 134.209 302.91Z" fill="#C6D8F5"/>
<path d="M174.497 300.752C174.399 300.752 174.308 300.679 174.295 300.575C174.278 300.464 174.356 300.356 174.472 300.343C179.185 299.668 182.947 298.894 185.656 298.038C185.764 298.004 185.88 298.064 185.915 298.172C185.949 298.279 185.889 298.395 185.781 298.43C183.051 299.294 179.266 300.072 174.528 300.752C174.515 300.748 174.506 300.752 174.497 300.752Z" fill="#131F2D"/>
<path d="M87.4831 299.647C87.4702 299.647 87.453 299.647 87.4401 299.642C87.2122 299.591 81.8799 298.421 79.79 297.303C79.6911 297.251 79.6524 297.122 79.704 297.024C79.7599 296.925 79.8846 296.886 79.9835 296.938C82.0261 298.026 87.4745 299.225 87.5261 299.238C87.6379 299.264 87.7067 299.371 87.6852 299.483C87.6637 299.582 87.5777 299.647 87.4831 299.647Z" fill="#131F2D"/>
<path d="M84.774 286.879C84.774 286.879 91.534 284.14 93.7744 285.129C96.0148 286.118 98.1778 289.206 96.6684 288.909C95.159 288.612 93.3271 287.658 93.3271 287.658C93.3271 287.658 97.15 289.89 96.2771 290.629C95.4042 291.365 92.0973 289.391 92.0973 289.391C92.0973 289.391 96.4491 292.44 95.4171 292.848C94.385 293.257 91.0953 290.917 91.0953 290.917C91.0953 290.917 95.0386 293.927 93.8303 294.37C92.6219 294.813 90.5879 291.859 89.715 292.599C88.842 293.334 86.6876 296.611 84.4902 294.25L84.774 286.879Z" fill="#FF7955"/>
<path d="M57.0292 287.249C64.6922 294.478 72.2261 295.88 84.4817 294.25L84.7742 286.879C75.8512 288.066 69.6116 282.94 64.4729 278.098C57.1668 271.205 55.021 260.528 54.4104 255.699C54.3545 255.238 54.0664 254.856 53.6622 254.697C52.3248 254.168 49.0008 253.303 43.9695 254.877C43.5223 255.019 43.2213 255.471 43.2428 255.974C43.6212 265.159 47.3796 278.146 57.0292 287.249Z" fill="#FF7955"/>
<g opacity="0.3">
<path d="M58.5427 284.652C58.4911 284.652 58.4438 284.652 58.3922 284.648C57.7127 284.592 56.9946 284.162 56.4743 283.499C55.5755 282.356 55.4852 280.838 56.2722 280.111C56.5861 279.823 56.9946 279.689 57.459 279.728C58.1384 279.784 58.8566 280.214 59.3769 280.876C60.2756 282.02 60.3659 283.538 59.579 284.265C59.2995 284.519 58.9426 284.652 58.5427 284.652ZM57.3085 280.154C57.0161 280.154 56.7624 280.248 56.5646 280.429C55.941 281.001 56.0528 282.257 56.814 283.224C57.2612 283.796 57.8632 284.162 58.4223 284.209C58.7577 284.239 59.0544 284.144 59.278 283.938C59.9015 283.366 59.7897 282.11 59.0286 281.143C58.5814 280.571 57.9793 280.205 57.416 280.158C57.3816 280.154 57.3472 280.154 57.3085 280.154Z" fill="#EC865C"/>
</g>
<path d="M97.8982 295.544H120.866C121.347 295.544 121.773 295.213 121.923 294.727L126.697 279.384C126.937 278.61 126.4 277.815 125.639 277.815H103.553C102.547 277.815 101.652 278.503 101.334 279.526L96.8404 293.979C96.5995 294.744 97.1371 295.544 97.8982 295.544Z" fill="#131F2D"/>
<path d="M99.343 295.544H122.31C122.792 295.544 123.218 295.213 123.368 294.727L128.142 279.384C128.382 278.61 127.845 277.815 127.084 277.815H104.998C103.992 277.815 103.097 278.503 102.779 279.526L98.2852 293.979C98.0401 294.744 98.5819 295.544 99.343 295.544Z" fill="#131F2D"/>
<path d="M115.434 286.174C115.434 285.594 114.811 285.353 114.265 285.353C113.719 285.353 112.828 285.994 112.837 286.811C112.841 287.692 113.482 287.808 114.028 287.808C114.57 287.804 115.434 286.914 115.434 286.174Z" fill="#DAEBE8"/>
<path d="M91.0007 293.373H122.319V295.54H90.2955C89.8913 295.54 89.5645 295.213 89.5645 294.809C89.5645 294.018 90.2052 293.373 91.0007 293.373Z" fill="#131F2D"/>
<path d="M100.977 285.568L100.827 285.529C100.874 285.34 101.971 280.915 102.706 279.483C103.454 278.03 104.374 277.746 104.413 277.733L104.456 277.879C104.447 277.883 103.557 278.163 102.843 279.552C102.117 280.971 100.99 285.521 100.977 285.568Z" fill="#366F90"/>
<path d="M97.5801 293.45V293.295C98.3283 293.295 98.5175 292.96 98.5175 292.956L100.302 287.215L100.448 287.262L98.6594 293.016C98.6465 293.046 98.4358 293.45 97.5801 293.45Z" fill="#366F90"/>
<g opacity="0.4">
<path d="M480.977 11.3311C480.977 11.3311 474.888 -1.28141 459.476 0.301062C444.065 1.87924 445.901 14.5218 438.56 13.335C431.224 12.1481 420.947 13.335 418.745 21.2344C416.543 29.1339 406.636 24.7907 406.27 31.5033C405.905 38.2202 417.644 42.9591 431.22 37.0334C444.796 31.1077 451.401 41.6346 470.481 39.7296C489.561 37.8246 491.926 35.4509 503.218 36.6378C514.51 37.8246 514.244 29.4994 509.105 23.9694C503.971 18.4436 483.179 18.9682 480.977 11.3311Z" fill="#D2E1FB"/>
</g>
<path d="M66.8721 83.7164C66.8721 83.7164 70.5703 76.0577 79.9275 77.0167C89.2847 77.9756 88.171 85.6515 92.626 84.9333C97.081 84.2152 103.321 84.9334 104.658 89.7324C105.995 94.5314 112.011 91.8911 112.231 95.9677C112.454 100.044 105.325 102.925 97.081 99.3261C88.8375 95.7269 84.8297 102.121 73.245 100.964C61.6602 99.8077 60.224 98.3672 53.3695 99.0853C46.5106 99.8034 46.674 94.7507 49.796 91.3922C52.9093 88.0338 65.5347 88.3563 66.8721 83.7164Z" fill="#D2E1FB"/>
<path d="M532.924 56.6251C532.924 56.6251 529.35 49.2245 520.303 50.149C511.255 51.0779 512.334 58.4957 508.026 57.8034C503.717 57.1068 497.688 57.8034 496.394 62.439C495.099 67.0746 489.285 64.5246 489.07 68.4679C488.855 72.4112 495.749 75.1934 503.717 71.7145C511.685 68.2357 515.564 74.4151 526.762 73.297C537.964 72.179 539.348 70.7857 545.979 71.4823C552.61 72.179 552.451 67.2896 549.437 64.043C546.422 60.7963 534.214 61.1059 532.924 56.6251Z" fill="#D2E1FB"/>
<path d="M228.225 8.79828C228.225 8.79828 224.32 0.709596 214.438 1.72444C204.556 2.73929 205.73 10.8452 201.026 10.084C196.321 9.3229 189.733 10.084 188.319 15.1497C186.908 20.2153 180.553 17.4288 180.32 21.7376C180.084 26.0421 187.613 29.0823 196.321 25.2853C205.029 21.4882 209.261 28.2352 221.499 27.0139C233.733 25.7927 235.251 24.2704 242.493 25.0315C249.734 25.7927 249.562 20.4518 246.268 16.9042C242.97 13.3565 229.635 13.6962 228.225 8.79828Z" fill="#D2E1FB"/>
<path d="M589 337C589 369.033 563.033 395 531 395C498.967 395 473 369.033 473 337C473 304.967 498.967 279 531 279C563.033 279 589 304.967 589 337Z" fill="white"/>
<path d="M557.68 328.037C557.68 312.672 547.311 303.36 532.748 303.36C515.854 303.36 504.32 317.91 504.32 338.164C504.32 357.487 515.505 370.64 533.097 370.64C548.709 370.64 554.301 363.423 554.301 355.508V349.688H553.719C550.806 352.598 546.029 354.693 536.942 354.693C529.369 354.693 523.777 350.968 523.777 344.217H531C548.826 344.217 557.68 341.074 557.68 328.037ZM539.738 326.291C539.738 329.434 537.874 331.296 528.67 331.296H523.311C523.544 323.73 527.155 318.841 532.165 318.841C537.291 318.841 539.738 321.402 539.738 326.291Z" fill="#39B4EF"/>
</g>
<defs>
<clipPath id="clip0_34_14976">
<rect width="636" height="412.819" fill="white"/>
</clipPath>
</defs>
</svg>
