<svg width="441" height="441" viewBox="0 0 441 441" fill="none" xmlns="http://www.w3.org/2000/svg">
<path d="M399.598 358.868C398.028 361.435 396.405 363.948 394.712 366.4C372.176 399.07 335.503 420.882 300.17 430.275C284.691 434.394 268.859 436.352 253.098 436.546C149.736 437.772 114.112 347.922 81.434 324.153C48.7735 300.365 -1.26236 259.899 7.29304 177.864C13.7846 115.489 49.4085 56.6156 112.339 31.0376C119.272 28.2152 126.539 25.7897 134.133 23.8228C148.263 20.1625 163.531 18.0281 179.927 17.6929C227.026 16.7315 264.916 29.5646 301.502 60.3376C310.004 67.4906 318.445 75.5345 329.69 76.6811C337.867 77.519 345.716 74.6436 337.364 66.1588C327.556 56.1834 339.666 37.388 364.865 51.3236C406.963 74.5995 423.271 122.88 430.274 171.725C438.882 231.675 432.029 305.772 399.598 358.868Z" fill="#39B4EF"/>
<path opacity="0.7" d="M399.598 358.868C398.028 361.435 396.405 363.948 394.712 366.4C372.176 399.07 335.503 420.882 300.17 430.275C284.691 434.394 268.859 436.352 253.098 436.546C149.736 437.772 114.112 347.922 81.434 324.153C48.7735 300.365 -1.26236 259.899 7.29304 177.864C13.7846 115.489 49.4085 56.6156 112.339 31.0376C119.272 28.2152 126.539 25.7897 134.133 23.8228C148.263 20.1625 163.531 18.0281 179.927 17.6929C227.026 16.7315 264.916 29.5646 301.502 60.3376C310.004 67.4906 318.445 75.5345 329.69 76.6811C337.867 77.519 345.716 74.6436 337.364 66.1588C327.556 56.1834 339.666 37.388 364.865 51.3236C406.963 74.5995 423.271 122.88 430.274 171.725C438.882 231.675 432.029 305.772 399.598 358.868Z" fill="white"/>
<path d="M433.302 386.783H1.76562" stroke="#002E47" stroke-miterlimit="10" stroke-linejoin="round"/>
<path d="M365.367 179.381C365.367 179.381 365.367 202.71 365.87 205.206C366.373 207.702 367.837 208.725 367.837 208.725L369.733 352.712L373.852 352.959L371.356 248.115L370.421 208.725C370.421 208.725 372.106 208.822 372.229 204.703C372.353 200.584 374.602 183.994 374.602 183.994L372.979 183.491C372.979 183.491 370.483 204.077 369.989 204.695C369.486 205.321 368.119 203.451 367.872 201.449C367.625 199.456 367.872 179.249 367.872 179.249L365.367 179.381Z" fill="#B3C7EB" stroke="#002E47" stroke-miterlimit="10" stroke-linecap="round" stroke-linejoin="round"/>
<path d="M370.412 208.725C370.589 208.655 370.792 208.584 371.003 208.496C371.506 208.134 372.15 207.191 372.22 204.703C372.344 200.584 374.593 183.994 374.593 183.994L372.97 183.491C372.97 183.491 370.474 204.077 369.98 204.695C369.477 205.321 368.11 203.451 367.863 201.449C367.616 199.456 367.863 179.249 367.863 179.249L365.367 179.372C365.367 179.372 365.367 202.701 365.87 205.197C366.373 207.693 367.837 208.717 367.837 208.717C367.837 208.717 368.445 209.484 370.412 208.725Z" fill="#002E47" stroke="#002E47" stroke-miterlimit="10" stroke-linecap="round" stroke-linejoin="round"/>
<path d="M369.618 178.984C369.618 178.984 374.355 172.369 381.966 169.256C389.578 166.134 403.293 164.14 403.796 164.14C404.299 164.14 390.945 168.383 386.835 170.253C382.716 172.122 377.354 174.989 375.731 176.735C374.108 178.482 366.496 190.706 366.496 190.706C366.496 190.706 366.752 185.723 369.618 178.984Z" fill="#002E47" stroke="#002E47" stroke-miterlimit="10" stroke-linecap="round" stroke-linejoin="round"/>
<path d="M356.617 157.455C356.617 157.455 351.881 150.84 344.269 147.726C336.657 144.604 322.942 142.611 322.44 142.611C321.937 142.611 335.29 146.853 339.4 148.723C343.519 150.593 348.882 153.459 350.505 155.206C352.128 156.952 359.739 169.176 359.739 169.176C359.739 169.176 359.484 164.193 356.617 157.455Z" fill="#39B4EF" stroke="#002E47" stroke-miterlimit="10" stroke-linecap="round" stroke-linejoin="round"/>
<path d="M367.095 176.047C367.095 176.047 354.121 156.837 350.505 155.214C346.888 153.591 344.022 152.092 339.153 153.345C334.285 154.588 324.186 160.083 322.316 161.08C320.446 162.076 317.95 163.823 316.953 164.325C315.957 164.828 329.804 156.59 337.539 155.594C345.274 154.597 346.641 158.337 355.003 164.828C363.355 171.302 367.095 176.047 367.095 176.047Z" fill="#39B4EF" stroke="#002E47" stroke-miterlimit="10" stroke-linecap="round" stroke-linejoin="round"/>
<path d="M367.097 176.047C367.097 176.047 358.489 162.323 352.624 160.833C346.759 159.333 339.773 162.579 337.409 163.955C335.037 165.331 331.544 173.057 330.794 176.056C330.045 179.046 329.551 181.295 329.551 181.295C329.551 181.295 337.039 169.071 340.029 167.201C343.019 165.331 347.641 162.464 349.008 162.209C350.384 161.953 364.099 170.305 367.097 176.047Z" fill="#39B4EF" stroke="#002E47" stroke-miterlimit="10" stroke-linecap="round" stroke-linejoin="round"/>
<path d="M363.604 168.938C363.604 168.938 346.89 157.71 338.158 157.834C329.427 157.957 318.578 161.203 315.703 161.697C312.836 162.2 309.961 193.819 309.961 193.819C309.961 193.819 322.309 165.19 326.428 165.313C330.547 165.437 344.015 161.574 348.504 163.064C353.003 164.572 363.604 168.938 363.604 168.938Z" fill="#39B4EF" stroke="#002E47" stroke-miterlimit="10" stroke-linecap="round" stroke-linejoin="round"/>
<path d="M366.849 180.413C366.849 180.413 361.486 170.305 356.997 168.065C352.507 165.816 348.018 169.811 340.909 172.554C333.8 175.297 328.438 177.167 328.438 177.167C328.438 177.167 340.159 177.794 344.657 176.171C349.147 174.548 356.256 171.434 357.879 171.681C359.484 171.928 366.849 180.413 366.849 180.413Z" fill="#39B4EF" stroke="#002E47" stroke-miterlimit="10" stroke-linecap="round" stroke-linejoin="round"/>
<path d="M370.732 183.747C370.732 183.747 365.996 158.178 365.996 148.82C365.996 139.462 366.12 135.475 366.12 135.475C366.12 135.475 369.242 147.7 369.612 149.199C369.983 150.699 369.983 153.195 369.983 153.195C369.983 153.195 372.232 139.973 375.098 136.728C377.965 133.482 381.581 131.859 381.581 131.859C381.581 131.859 378.335 137.971 377.718 139.718C377.092 141.464 380.337 137.345 383.83 136.348C387.323 135.352 395.931 133.482 395.931 133.482C395.931 133.482 384.456 138.095 383.08 139.594C381.705 141.094 378.344 146.58 378.088 147.206C377.841 147.832 373.722 154.941 372.602 159.06C371.482 163.179 370.732 183.747 370.732 183.747Z" fill="#002E47" stroke="#002E47" stroke-miterlimit="10" stroke-linecap="round" stroke-linejoin="round"/>
<path d="M373.596 152.683L383.325 146.2C383.325 146.2 395.302 144.331 397.296 144.957C399.289 145.583 402.032 147.453 402.032 147.453C402.032 147.453 394.297 146.703 390.928 148.326C387.559 149.949 380.203 152.815 375.837 158.681C371.471 164.546 369.848 171.029 369.354 173.154C368.851 175.271 367.855 179.267 367.855 179.267C367.855 179.267 365.606 168.418 366.479 164.052C367.361 159.668 373.596 152.683 373.596 152.683Z" fill="#39B4EF" stroke="#002E47" stroke-miterlimit="10" stroke-linecap="round" stroke-linejoin="round"/>
<path d="M361.371 145.698C361.371 145.698 367.113 153.433 367.986 155.929C368.859 158.425 370.235 149.693 376.347 144.33C382.46 138.968 402.172 135.722 402.172 135.722C402.172 135.722 378.226 147.32 374.601 151.942C370.985 156.555 367.492 164.414 367.492 164.793C367.492 165.163 367.492 169.406 367.492 169.406L361.371 145.698Z" fill="#39B4EF" stroke="#002E47" stroke-miterlimit="10" stroke-linecap="round" stroke-linejoin="round"/>
<path d="M365.499 161.926C365.499 161.926 357.517 148.202 353.398 143.466C349.279 138.73 335.688 128.119 335.688 128.119C335.688 128.119 341.297 135.105 348.538 144.957C355.771 154.809 367.245 169.282 367.245 169.282L365.499 161.926Z" fill="#002E47" stroke="#002E47" stroke-miterlimit="10" stroke-linecap="round" stroke-linejoin="round"/>
<path d="M364.373 188.739C364.373 188.739 351.399 178.138 344.537 180.757C337.675 183.377 329.817 191.738 329.817 191.738L328.07 201.219C328.07 201.219 337.305 187.875 341.292 186.005C345.287 184.135 350.896 183.385 353.64 184.012C356.383 184.638 364.488 191.5 364.867 192.373C365.247 193.229 364.373 188.739 364.373 188.739Z" fill="#39B4EF" stroke="#002E47" stroke-miterlimit="10" stroke-linecap="round" stroke-linejoin="round"/>
<path d="M361.004 157.305C361.004 157.305 358.508 155.056 356.885 146.077C355.262 137.098 357.132 128.984 357.132 128.984C357.132 128.984 358.005 134.346 359.999 140.582C361.992 146.818 361.992 149.067 364.991 158.293C367.981 167.527 368.36 184.118 368.236 184.488C368.113 184.867 361.004 157.305 361.004 157.305Z" fill="#39B4EF" stroke="#002E47" stroke-miterlimit="10" stroke-linecap="round" stroke-linejoin="round"/>
<path d="M381.454 159.924C381.454 159.924 385.317 154.932 390.309 153.442C395.302 151.942 400.417 152.066 400.417 152.066C400.417 152.066 392.929 149.949 387.946 150.945C382.954 151.942 379.09 157.807 377.344 163.293C375.598 168.78 375.598 181.63 375.598 181.63C375.598 181.63 378.341 164.784 381.454 159.924Z" fill="#002E47" stroke="#002E47" stroke-miterlimit="10" stroke-linecap="round" stroke-linejoin="round"/>
<path d="M362.697 164.758C362.697 164.758 362.97 159.501 358.79 153.442C354.618 147.382 346.133 144.013 340.206 141.455C334.279 138.897 330.777 137.821 330.777 137.821C330.777 137.821 344.113 148.326 347.615 149.808C351.116 151.289 353.674 153.309 356.1 156.14C358.525 158.972 362.829 169.335 362.829 170.014C362.829 170.685 362.697 164.758 362.697 164.758Z" fill="#39B4EF" stroke="#002E47" stroke-miterlimit="10" stroke-linecap="round" stroke-linejoin="round"/>
<path d="M377.716 172.272C377.716 172.272 382.452 165.657 390.064 162.544C397.676 159.421 411.391 157.428 411.894 157.428C412.396 157.428 399.043 161.671 394.933 163.54C390.814 165.41 385.451 168.277 383.828 170.023C382.205 171.769 374.594 183.994 374.594 183.994C374.594 183.994 374.85 179.002 377.716 172.272Z" fill="#39B4EF" stroke="#002E47" stroke-miterlimit="10" stroke-linecap="round" stroke-linejoin="round"/>
<path d="M367.238 190.856C367.238 190.856 380.212 171.646 383.829 170.023C387.445 168.4 390.311 166.901 395.18 168.153C400.049 169.397 410.148 174.892 412.017 175.888C413.887 176.885 416.383 178.631 417.38 179.134C418.377 179.637 404.529 171.399 396.794 170.402C389.059 169.406 387.692 173.145 379.33 179.637C370.978 186.12 367.238 190.856 367.238 190.856Z" fill="#39B4EF" stroke="#002E47" stroke-miterlimit="10" stroke-linecap="round" stroke-linejoin="round"/>
<path d="M367.238 190.856C367.238 190.856 375.847 177.132 381.712 175.641C387.577 174.142 394.563 177.388 396.926 178.764C399.299 180.14 402.792 187.866 403.541 190.865C404.291 193.855 404.785 196.104 404.785 196.104C404.785 196.104 397.297 183.879 394.307 182.009C391.317 180.14 386.695 177.273 385.328 177.017C383.952 176.762 370.228 185.114 367.238 190.856Z" fill="#002E47" stroke="#002E47" stroke-miterlimit="10" stroke-linecap="round" stroke-linejoin="round"/>
<path d="M370.73 183.747C370.73 183.747 387.444 172.519 396.176 172.643C404.908 172.766 415.757 176.012 418.632 176.506C421.498 177.009 424.374 176.259 424.374 176.259C424.374 176.259 412.026 179.999 407.907 180.122C403.788 180.246 390.32 176.382 385.83 177.873C381.332 179.381 370.73 183.747 370.73 183.747Z" fill="#39B4EF" stroke="#002E47" stroke-miterlimit="10" stroke-linecap="round" stroke-linejoin="round"/>
<path d="M375.219 178.755C375.219 178.755 372.352 170.023 375.342 163.664C378.332 157.305 382.204 148.573 382.204 148.573C382.204 148.573 383.58 159.677 381.207 167.157C378.835 174.636 375.219 178.755 375.219 178.755Z" fill="#39B4EF" stroke="#002E47" stroke-miterlimit="10" stroke-linecap="round" stroke-linejoin="round"/>
<path d="M367.989 185.114C367.989 185.114 367.989 174.266 360.501 169.15C353.013 164.034 344.66 162.411 341.662 164.034C338.672 165.657 329.684 170.649 327.064 174.01C324.445 177.379 322.328 179.999 322.328 179.999C322.328 179.999 335.549 171.267 339.668 168.277C343.787 165.287 345.78 164.537 347.28 164.908C348.779 165.278 357.388 169.273 360.748 171.893C364.126 174.513 367.989 185.114 367.989 185.114Z" fill="#39B4EF" stroke="#002E47" stroke-miterlimit="10" stroke-linecap="round" stroke-linejoin="round"/>
<path d="M368.233 186.86C368.11 186.49 368.48 183.615 363.365 183.244C358.249 182.874 354.386 185.114 353.513 186.984C352.639 188.854 353.513 193.846 353.636 194.34C353.76 194.843 354.386 187.725 360.375 186.358C366.363 184.991 368.233 186.86 368.233 186.86Z" fill="#002E47" stroke="#002E47" stroke-miterlimit="10" stroke-linecap="round" stroke-linejoin="round"/>
<path d="M366.24 191.482C366.24 191.482 364.617 187.989 361.371 184.25C358.125 180.51 351.14 177.017 347.771 179.134C344.401 181.251 340.538 190.115 339.286 192.602C338.042 195.098 335.167 202.71 334.92 203.08C334.673 203.451 342.276 196.342 345.522 192.1C348.767 187.857 351.008 181.992 352.877 181.498C354.747 180.995 358.619 184.744 358.619 184.744L367.854 198.088L366.24 191.482Z" fill="#39B4EF" stroke="#002E47" stroke-miterlimit="10" stroke-linecap="round" stroke-linejoin="round"/>
<path d="M366.743 182.371C366.743 182.371 365.12 174.883 359.511 172.89C353.901 170.896 347.163 170.147 344.543 171.646C341.923 173.145 330.449 183.747 330.449 183.747L328.949 187.61C328.949 187.61 345.787 175.262 349.659 174.01C353.522 172.766 353.522 172.766 357.641 175.253C361.751 177.758 366.743 182.371 366.743 182.371Z" fill="#39B4EF" stroke="#002E47" stroke-miterlimit="10" stroke-linecap="round" stroke-linejoin="round"/>
<path d="M365.737 182.371C365.737 182.371 349.393 172.519 345.901 171.267C342.408 170.023 334.549 173.137 332.3 176.003C330.051 178.87 322.192 194.463 321.822 195.583C321.452 196.704 327.061 183.482 335.546 179.619C344.031 175.756 349.517 176.497 354.509 177C359.501 177.502 365.737 185.855 365.737 185.855V182.371Z" fill="#39B4EF" stroke="#002E47" stroke-miterlimit="10" stroke-linecap="round" stroke-linejoin="round"/>
<path d="M367.484 195.222C367.484 195.222 372.847 185.114 377.336 182.874C381.826 180.625 386.315 184.62 393.424 187.363C400.533 190.106 405.895 191.976 405.895 191.976C405.895 191.976 394.174 192.602 389.675 190.979C385.186 189.357 378.077 186.243 376.454 186.49C374.849 186.737 367.484 195.222 367.484 195.222Z" fill="#39B4EF" stroke="#002E47" stroke-miterlimit="10" stroke-linecap="round" stroke-linejoin="round"/>
<path d="M367.986 185.114C367.986 185.114 370.729 177.256 372.352 167.024C373.975 156.793 371.232 138.456 368.612 132.97C365.993 127.484 358.258 118.497 358.258 118.497C358.258 118.497 371.982 130.474 374.972 141.702C377.962 152.93 378.464 158.919 377.221 165.031C375.968 171.143 367.986 185.114 367.986 185.114Z" fill="#39B4EF" stroke="#002E47" stroke-miterlimit="10" stroke-linecap="round" stroke-linejoin="round"/>
<path d="M364.715 169.335C364.715 169.335 363.506 164.758 362.157 163.814C360.807 162.87 358.117 163.946 358.117 163.946C358.117 163.946 362.827 168.118 362.827 170.005C362.827 171.893 367.616 183.244 367.616 183.244L364.715 169.335Z" fill="#39B4EF" stroke="#002E47" stroke-miterlimit="10" stroke-linecap="round" stroke-linejoin="round"/>
<path d="M362.158 163.814C362.158 163.814 360.138 165.225 358.559 166.654C356.98 168.083 349.474 175.518 349.025 175.968C348.575 176.418 352.932 166.504 353.902 164.634C354.881 162.755 356.601 161.406 357.13 161.477C357.659 161.547 362.299 162.623 362.158 163.814Z" fill="#39B4EF" stroke="#002E47" stroke-miterlimit="10" stroke-linecap="round" stroke-linejoin="round"/>
<path d="M390.636 214.749C390.636 214.749 390.636 235.194 390.195 237.373C389.754 239.56 388.466 240.46 388.466 240.46L386.799 370.634L383.192 370.855L385.379 274.972L386.199 240.46C386.199 240.46 384.718 240.548 384.612 236.941C384.506 233.333 382.539 218.798 382.539 218.798L383.959 218.357C383.959 218.357 386.146 236.394 386.579 236.941C387.02 237.487 388.219 235.847 388.44 234.1C388.66 232.354 388.44 214.644 388.44 214.644L390.636 214.749Z" fill="#B3C7EB" stroke="#002E47" stroke-miterlimit="10" stroke-linecap="round" stroke-linejoin="round"/>
<path d="M386.219 240.46C386.06 240.398 385.884 240.336 385.699 240.266C385.258 239.948 384.693 239.119 384.631 236.941C384.525 233.333 382.559 218.798 382.559 218.798L383.979 218.357C383.979 218.357 386.166 236.394 386.598 236.941C387.039 237.487 388.239 235.847 388.459 234.1C388.68 232.354 388.459 214.644 388.459 214.644L390.647 214.749C390.647 214.749 390.647 235.194 390.206 237.373C389.765 239.56 388.477 240.46 388.477 240.46C388.477 240.46 387.948 241.13 386.219 240.46Z" fill="#002E47" stroke="#002E47" stroke-miterlimit="10" stroke-linecap="round" stroke-linejoin="round"/>
<path d="M386.914 214.405C386.914 214.405 382.76 208.611 376.092 205.876C369.424 203.142 357.402 201.396 356.961 201.396C356.52 201.396 368.216 205.109 371.823 206.75C375.43 208.39 380.132 210.904 381.552 212.43C382.972 213.964 389.639 224.672 389.639 224.672C389.639 224.672 389.428 220.306 386.914 214.405Z" fill="#002E47" stroke="#002E47" stroke-miterlimit="10" stroke-linecap="round" stroke-linejoin="round"/>
<path d="M398.311 195.539C398.311 195.539 402.466 189.745 409.133 187.01C415.801 184.276 427.823 182.53 428.264 182.53C428.705 182.53 417.01 186.243 413.402 187.884C409.795 189.524 405.094 192.038 403.674 193.564C402.254 195.098 395.586 205.806 395.586 205.806C395.586 205.806 395.798 201.44 398.311 195.539Z" fill="#39B4EF" stroke="#002E47" stroke-miterlimit="10" stroke-linecap="round" stroke-linejoin="round"/>
<path d="M389.129 211.821C389.129 211.821 400.498 194.984 403.664 193.564C406.831 192.144 409.344 190.829 413.613 191.923C417.873 193.017 426.729 197.824 428.369 198.697C430.01 199.57 432.197 201.105 433.07 201.537C433.943 201.978 421.807 194.763 415.033 193.881C408.259 193.008 407.051 196.289 399.731 201.969C392.401 207.676 389.129 211.821 389.129 211.821Z" fill="#39B4EF" stroke="#002E47" stroke-miterlimit="10" stroke-linecap="round" stroke-linejoin="round"/>
<path d="M389.129 211.821C389.129 211.821 396.67 199.799 401.812 198.485C406.954 197.171 413.066 200.02 415.148 201.219C417.229 202.419 420.281 209.202 420.943 211.821C421.595 214.441 422.036 216.416 422.036 216.416C422.036 216.416 415.474 205.7 412.855 204.068C410.235 202.428 406.187 199.914 404.987 199.694C403.77 199.473 391.748 206.794 389.129 211.821Z" fill="#39B4EF" stroke="#002E47" stroke-miterlimit="10" stroke-linecap="round" stroke-linejoin="round"/>
<path d="M392.188 205.594C392.188 205.594 406.838 195.76 414.484 195.866C422.14 195.972 431.648 198.82 434.162 199.253C436.676 199.685 439.189 199.032 439.189 199.032C439.189 199.032 428.367 202.313 424.76 202.419C421.152 202.525 409.351 199.138 405.409 200.452C401.475 201.766 392.188 205.594 392.188 205.594Z" fill="#39B4EF" stroke="#002E47" stroke-miterlimit="10" stroke-linecap="round" stroke-linejoin="round"/>
<path d="M389.34 215.649C389.34 215.649 394.041 206.794 397.975 204.827C401.908 202.86 405.842 206.362 412.078 208.761C418.305 211.169 423.006 212.809 423.006 212.809C423.006 212.809 412.73 213.356 408.797 211.936C404.863 210.516 398.627 207.782 397.207 208.002C395.796 208.214 389.34 215.649 389.34 215.649Z" fill="#39B4EF" stroke="#002E47" stroke-miterlimit="10" stroke-linecap="round" stroke-linejoin="round"/>
<path d="M385.935 218.577C385.935 218.577 390.089 196.166 390.089 187.972C390.089 179.778 389.983 176.276 389.983 176.276C389.983 176.276 387.249 186.993 386.923 188.298C386.596 189.612 386.596 191.8 386.596 191.8C386.596 191.8 384.629 180.21 382.116 177.37C379.602 174.53 376.436 173.11 376.436 173.11C376.436 173.11 379.276 178.464 379.823 179.999C380.369 181.524 377.529 177.926 374.469 177.044C371.408 176.162 363.867 174.53 363.867 174.53C363.867 174.53 373.922 178.579 375.122 179.884C376.321 181.198 379.276 186.005 379.496 186.552C379.717 187.099 383.324 193.326 384.303 196.933C385.282 200.54 385.935 218.577 385.935 218.577Z" fill="#002E47" stroke="#002E47" stroke-miterlimit="10" stroke-linecap="round" stroke-linejoin="round"/>
<path d="M383.421 191.359L374.892 185.679C374.892 185.679 364.397 184.038 362.65 184.585C360.904 185.132 358.496 186.772 358.496 186.772C358.496 186.772 365.27 186.12 368.225 187.54C371.179 188.96 377.627 191.473 381.455 196.615C385.282 201.749 386.702 207.438 387.135 209.299C387.576 211.16 388.449 214.652 388.449 214.652C388.449 214.652 390.416 205.144 389.648 201.317C388.881 197.489 383.421 191.359 383.421 191.359Z" fill="#39B4EF" stroke="#002E47" stroke-miterlimit="10" stroke-linecap="round" stroke-linejoin="round"/>
<path d="M394.137 185.238C394.137 185.238 389.11 192.011 388.342 194.199C387.575 196.386 386.375 188.73 381.022 184.029C375.668 179.328 358.398 176.488 358.398 176.488C358.398 176.488 379.381 186.658 382.556 190.697C385.723 194.746 388.783 201.625 388.783 201.951C388.783 202.278 388.783 206 388.783 206L394.137 185.238Z" fill="#39B4EF" stroke="#002E47" stroke-miterlimit="10" stroke-linecap="round" stroke-linejoin="round"/>
<path d="M390.522 199.455C390.522 199.455 397.516 187.434 401.124 183.28C404.731 179.125 416.647 169.838 416.647 169.838C416.647 169.838 411.725 175.959 405.392 184.594C399.051 193.229 388.996 205.912 388.996 205.912L390.522 199.455Z" fill="#002E47" stroke="#002E47" stroke-miterlimit="10" stroke-linecap="round" stroke-linejoin="round"/>
<path d="M391.51 222.943C391.51 222.943 402.879 213.656 408.894 215.949C414.909 218.242 421.789 225.571 421.789 225.571L423.324 233.88C423.324 233.88 415.236 222.185 411.734 220.544C408.233 218.904 403.32 218.251 400.912 218.798C398.504 219.345 391.404 225.36 391.078 226.118C390.751 226.886 391.51 222.943 391.51 222.943Z" fill="#39B4EF" stroke="#002E47" stroke-miterlimit="10" stroke-linecap="round" stroke-linejoin="round"/>
<path d="M394.466 195.398C394.466 195.398 396.654 193.431 398.074 185.564C399.494 177.697 397.853 170.588 397.853 170.588C397.853 170.588 397.086 175.289 395.339 180.757C393.593 186.226 393.593 188.192 390.965 196.28C388.345 204.368 388.01 218.904 388.125 219.239C388.239 219.556 394.466 195.398 394.466 195.398Z" fill="#39B4EF" stroke="#002E47" stroke-miterlimit="10" stroke-linecap="round" stroke-linejoin="round"/>
<path d="M376.543 197.7C376.543 197.7 373.156 193.326 368.781 192.02C364.406 190.706 359.926 190.821 359.926 190.821C359.926 190.821 366.488 188.96 370.854 189.833C375.228 190.706 378.615 195.848 380.141 200.655C381.676 205.462 381.676 216.725 381.676 216.725C381.676 216.725 379.268 201.96 376.543 197.7Z" fill="#002E47" stroke="#002E47" stroke-miterlimit="10" stroke-linecap="round" stroke-linejoin="round"/>
<path d="M392.983 201.934C392.983 201.934 392.745 197.33 396.405 192.02C400.065 186.711 407.501 183.756 412.687 181.516C417.882 179.275 420.951 178.332 420.951 178.332C420.951 178.332 409.265 187.54 406.195 188.836C403.126 190.133 400.886 191.906 398.76 194.384C396.634 196.862 392.859 205.947 392.859 206.538C392.859 207.129 392.983 201.934 392.983 201.934Z" fill="#39B4EF" stroke="#002E47" stroke-miterlimit="10" stroke-linecap="round" stroke-linejoin="round"/>
<path d="M379.813 208.522C379.813 208.522 375.658 202.728 368.99 199.994C362.322 197.259 350.301 195.513 349.86 195.513C349.419 195.513 361.114 199.226 364.721 200.867C368.329 202.507 373.03 205.021 374.45 206.547C375.87 208.081 382.538 218.789 382.538 218.789C382.538 218.789 382.326 214.423 379.813 208.522Z" fill="#39B4EF" stroke="#002E47" stroke-miterlimit="10" stroke-linecap="round" stroke-linejoin="round"/>
<path d="M388.998 224.804C388.998 224.804 377.629 207.967 374.462 206.547C371.296 205.127 368.782 203.813 364.513 204.906C360.253 206 351.398 210.807 349.757 211.68C348.117 212.553 345.93 214.088 345.056 214.52C344.183 214.961 356.32 207.746 363.093 206.864C369.867 205.991 371.075 209.272 378.396 214.952C385.725 220.65 388.998 224.804 388.998 224.804Z" fill="#39B4EF" stroke="#002E47" stroke-miterlimit="10" stroke-linecap="round" stroke-linejoin="round"/>
<path d="M388.997 224.804C388.997 224.804 381.456 212.782 376.314 211.468C371.181 210.154 365.06 213.003 362.978 214.203C360.906 215.402 357.845 222.185 357.184 224.804C356.531 227.424 356.09 229.399 356.09 229.399C356.09 229.399 362.652 218.683 365.271 217.051C367.891 215.411 371.939 212.897 373.139 212.677C374.356 212.456 386.378 219.777 388.997 224.804Z" fill="#002E47" stroke="#002E47" stroke-miterlimit="10" stroke-linecap="round" stroke-linejoin="round"/>
<path d="M385.935 218.577C385.935 218.577 371.285 208.743 363.638 208.849C355.983 208.955 346.475 211.803 343.961 212.236C341.447 212.677 338.934 212.015 338.934 212.015C338.934 212.015 349.756 215.296 353.363 215.402C356.971 215.508 368.772 212.121 372.714 213.435C376.648 214.749 385.935 218.577 385.935 218.577Z" fill="#39B4EF" stroke="#002E47" stroke-miterlimit="10" stroke-linecap="round" stroke-linejoin="round"/>
<path d="M382.001 214.203C382.001 214.203 384.515 206.547 381.896 200.973C379.276 195.398 375.88 187.743 375.88 187.743C375.88 187.743 374.681 197.471 376.754 204.033C378.835 210.595 382.001 214.203 382.001 214.203Z" fill="#39B4EF" stroke="#002E47" stroke-miterlimit="10" stroke-linecap="round" stroke-linejoin="round"/>
<path d="M388.344 219.777C388.344 219.777 388.344 210.269 394.906 205.788C401.468 201.308 408.789 199.888 411.408 201.308C414.028 202.728 421.904 207.102 424.197 210.048C426.49 213.003 428.351 215.296 428.351 215.296C428.351 215.296 416.762 207.64 413.154 205.021C409.547 202.401 407.801 201.74 406.486 202.066C405.172 202.393 397.631 205.894 394.685 208.187C391.731 210.489 388.344 219.777 388.344 219.777Z" fill="#39B4EF" stroke="#002E47" stroke-miterlimit="10" stroke-linecap="round" stroke-linejoin="round"/>
<path d="M388.121 221.311C388.227 220.985 387.901 218.471 392.381 218.145C396.862 217.819 400.249 219.786 401.016 221.426C401.783 223.067 401.016 227.441 400.91 227.874C400.804 228.315 400.257 222.079 395.01 220.879C389.762 219.671 388.121 221.311 388.121 221.311Z" fill="#002E47" stroke="#002E47" stroke-miterlimit="10" stroke-linecap="round" stroke-linejoin="round"/>
<path d="M389.876 225.351C389.876 225.351 391.296 222.29 394.136 219.009C396.976 215.728 403.097 212.668 406.052 214.529C409.007 216.39 412.393 224.151 413.487 226.33C414.581 228.517 417.095 235.185 417.315 235.512C417.536 235.838 410.868 229.611 408.028 225.889C405.188 222.176 403.221 217.034 401.58 216.602C399.94 216.161 396.553 219.442 396.553 219.442L388.465 231.137L389.876 225.351Z" fill="#39B4EF" stroke="#002E47" stroke-miterlimit="10" stroke-linecap="round" stroke-linejoin="round"/>
<path d="M389.438 217.369C389.438 217.369 390.858 210.807 395.779 209.06C400.701 207.314 406.601 206.653 408.894 207.967C411.188 209.281 421.242 218.568 421.242 218.568L422.557 221.955C422.557 221.955 407.801 211.133 404.414 210.04C401.027 208.946 401.027 208.946 397.42 211.133C393.812 213.329 389.438 217.369 389.438 217.369Z" fill="#39B4EF" stroke="#002E47" stroke-miterlimit="10" stroke-linecap="round" stroke-linejoin="round"/>
<path d="M390.309 217.369C390.309 217.369 404.632 208.734 407.693 207.64C410.753 206.547 417.642 209.281 419.609 211.795C421.575 214.308 428.464 227.971 428.79 228.958C429.117 229.946 424.195 218.357 416.769 214.97C409.333 211.583 404.526 212.236 400.152 212.677C395.777 213.118 390.317 220.438 390.317 220.438V217.369H390.309Z" fill="#39B4EF" stroke="#002E47" stroke-miterlimit="10" stroke-linecap="round" stroke-linejoin="round"/>
<path d="M388.783 228.632C388.783 228.632 384.082 219.777 380.148 217.81C376.215 215.843 372.281 219.345 366.045 221.744C359.818 224.152 355.117 225.792 355.117 225.792C355.117 225.792 365.392 226.339 369.326 224.919C373.26 223.499 379.496 220.765 380.916 220.985C382.327 221.197 388.783 228.632 388.783 228.632Z" fill="#39B4EF" stroke="#002E47" stroke-miterlimit="10" stroke-linecap="round" stroke-linejoin="round"/>
<path d="M388.342 219.777C388.342 219.777 385.934 212.888 384.514 203.927C383.094 194.966 385.501 178.896 387.795 174.089C390.088 169.282 396.87 161.406 396.87 161.406C396.87 161.406 384.849 171.902 382.22 181.736C379.601 191.57 379.16 196.818 380.254 202.181C381.347 207.535 388.342 219.777 388.342 219.777Z" fill="#39B4EF" stroke="#002E47" stroke-miterlimit="10" stroke-linecap="round" stroke-linejoin="round"/>
<path d="M391.209 205.947C391.209 205.947 392.268 201.934 393.449 201.105C394.631 200.276 396.986 201.22 396.986 201.22C396.986 201.22 392.858 204.88 392.858 206.529C392.858 208.178 388.66 218.127 388.66 218.127L391.209 205.947Z" fill="#39B4EF" stroke="#002E47" stroke-miterlimit="10" stroke-linecap="round" stroke-linejoin="round"/>
<path d="M393.448 201.105C393.448 201.105 395.221 202.34 396.597 203.592C397.982 204.845 404.561 211.354 404.949 211.751C405.337 212.148 401.527 203.46 400.672 201.819C399.816 200.179 398.299 198.988 397.84 199.059C397.391 199.12 393.325 200.064 393.448 201.105Z" fill="#39B4EF" stroke="#002E47" stroke-miterlimit="10" stroke-linecap="round" stroke-linejoin="round"/>
<path d="M390.107 258.99C390.107 258.99 400.171 255.321 406.301 253.275C412.422 251.238 417.052 256.265 417.052 256.265C417.052 256.265 409.432 257.35 406.715 257.491C403.99 257.623 399.915 257.764 397.463 258.717C395.011 259.67 402.358 259.537 404.81 261.98C407.262 264.432 412.431 270.686 413.242 272.591C414.062 274.496 404.942 263.612 398.548 261.98C392.153 260.349 387.117 263.753 387.117 263.753L390.107 258.99Z" fill="#002E47" stroke="#002E47" stroke-miterlimit="10" stroke-linecap="round" stroke-linejoin="round"/>
<path d="M380.175 273.949C380.175 273.949 381.127 278.439 380.175 290.954C379.222 303.47 378.27 353.664 378.27 353.664L381.533 354.07C381.533 354.07 383.165 286.597 383.165 284.286C383.165 281.975 383.297 273.676 383.297 273.676L380.175 273.949Z" fill="#B3C7EB" stroke="#002E47" stroke-miterlimit="10" stroke-linecap="round" stroke-linejoin="round"/>
<path d="M382.759 260.754C382.503 260.199 378.675 252.049 376.638 250.691C374.6 249.332 369.423 247.427 367.112 247.427C364.801 247.427 358.812 248.106 358.812 248.106C358.812 248.106 369.423 250.558 372.422 252.869C375.412 255.18 380.589 260.49 380.721 261.442C380.854 262.395 381.947 264.573 381.947 264.573C381.947 264.573 384.258 264.018 382.759 260.754Z" fill="#39B4EF" stroke="#002E47" stroke-miterlimit="10" stroke-linecap="round" stroke-linejoin="round"/>
<path d="M379.762 266.064C379.762 266.064 371.594 265.111 368.604 267.29C365.614 269.469 360.305 275.59 360.305 278.853C360.305 282.116 360.578 289.605 360.578 288.917C360.578 288.237 362.077 277.627 365.473 274.364C368.878 271.1 370.368 269.195 374.858 268.648C379.347 268.101 379.347 268.101 379.347 268.101L383.969 270.553L379.762 266.064Z" fill="#002E47" stroke="#002E47" stroke-miterlimit="10" stroke-linecap="round" stroke-linejoin="round"/>
<path d="M386.015 264.088C386.015 264.088 387.646 262.73 393.494 261.91C399.342 261.09 400.973 260.552 404.651 261.231C408.32 261.91 412.272 263.409 412.272 263.409C412.272 263.409 400.568 263.136 399.483 263.136C398.398 263.136 406.556 268.445 408.056 270.077C409.555 271.709 410.913 275.113 410.913 275.113C410.913 275.113 399.209 266.681 397.172 265.729C395.134 264.776 394.314 264.229 394.314 264.229C394.314 264.229 391.051 263.683 389.692 264.097C388.334 264.503 387.241 264.917 386.835 265.05C386.429 265.182 384.93 265.597 384.93 265.597L386.015 264.088Z" fill="#39B4EF" stroke="#002E47" stroke-miterlimit="10" stroke-linecap="round" stroke-linejoin="round"/>
<path d="M384.262 259.67C384.262 259.67 384.941 251.776 388.751 248.239C392.561 244.702 405.624 237.902 405.624 237.902L413.65 233.959C413.65 233.959 411.339 239.128 406.435 241.174C401.54 243.211 399.908 241.721 397.589 244.164C395.278 246.616 391.6 251.643 390.921 253.963C390.242 256.274 385.752 262.668 385.479 264.168C385.205 265.649 384.262 259.67 384.262 259.67Z" fill="#39B4EF" stroke="#002E47" stroke-miterlimit="10" stroke-linecap="round" stroke-linejoin="round"/>
<path d="M384.799 261.848C384.799 261.848 385.619 249.606 384.252 246.475C382.894 243.344 378.678 236.138 377.725 234.506C376.773 232.874 375.547 231.516 375.547 231.516C375.547 231.516 378.951 242.268 379.904 247.842C380.857 253.416 380.989 255.189 381.262 257.5C381.536 259.811 381.809 261.857 381.809 261.857H384.799V261.848Z" fill="#39B4EF" stroke="#002E47" stroke-miterlimit="10" stroke-linecap="round" stroke-linejoin="round"/>
<path d="M383.033 266.337C383.033 266.337 384.806 261.442 387.522 257.085C390.248 252.728 394.19 251.776 394.869 251.776C395.549 251.776 397.859 251.776 397.859 251.776C397.859 251.776 392.55 254.36 391.871 256.812C391.191 259.264 389.692 264.291 388.607 265.385C387.522 266.47 384.797 272.185 384.118 273.552C383.439 274.91 381.666 275.59 381.666 275.59C381.666 275.59 379.223 271.912 383.033 266.337Z" fill="#39B4EF" stroke="#002E47" stroke-miterlimit="10" stroke-linecap="round" stroke-linejoin="round"/>
<path d="M385.205 266.743L381.668 275.59L382.753 276.542C382.753 276.542 384.385 274.637 385.611 272.873C386.836 271.1 387.789 269.742 387.789 268.931C387.789 268.119 385.205 266.743 385.205 266.743Z" fill="#39B4EF" stroke="#002E47" stroke-miterlimit="10" stroke-linecap="round" stroke-linejoin="round"/>
<path d="M383.801 274.205C383.801 274.205 378.633 262.915 377.001 260.463C375.369 258.011 373.596 255.974 370.06 255.021C366.523 254.069 360.534 252.296 355.233 253.249C349.924 254.201 340.812 255.427 340.812 255.427C340.812 255.427 347.339 258.417 355.233 257.879C363.127 257.332 370.06 257.747 370.06 257.747C370.06 257.747 371.691 258.426 372.917 262.368C374.143 266.311 376.728 269.848 378.359 271.347C379.991 272.847 382.716 276.516 382.716 276.516L383.801 274.205Z" fill="#39B4EF" stroke="#002E47" stroke-miterlimit="10" stroke-linecap="round" stroke-linejoin="round"/>
<path d="M384.796 261.848C384.796 261.848 379.081 259.537 377.723 261.575C376.364 263.612 374.186 274.231 374.186 274.231C374.186 274.231 373.101 279.806 372.828 280.352C372.554 280.899 380.042 275.184 381.806 270.289C383.57 265.385 384.796 261.848 384.796 261.848Z" fill="#39B4EF" stroke="#002E47" stroke-miterlimit="10" stroke-linecap="round" stroke-linejoin="round"/>
<path d="M390.24 265.385C390.24 265.385 385.204 265.517 385.204 266.743C385.204 267.969 385.883 270.148 385.609 272.864C385.336 275.59 385.062 278.033 385.062 278.033C385.062 278.033 390.504 275.722 390.778 272.591C391.06 269.46 390.24 265.385 390.24 265.385Z" fill="#39B4EF" stroke="#002E47" stroke-miterlimit="10" stroke-linecap="round" stroke-linejoin="round"/>
<path d="M392.667 265.367C392.667 265.367 397.836 268.904 399.609 272.167C401.381 275.431 402.74 282.231 402.74 282.231C402.74 282.231 399.203 275.431 396.477 271.753C393.752 268.084 389.677 265.085 388.857 266.038C388.037 266.99 390.762 264.556 392.667 265.367Z" fill="#002E47" stroke="#002E47" stroke-miterlimit="10" stroke-linecap="round" stroke-linejoin="round"/>
<path d="M390.507 389.579H362.46L356.453 351.256H396.514L390.507 389.579Z" fill="#002E47" stroke="#002E47" stroke-miterlimit="10" stroke-linecap="round" stroke-linejoin="round"/>
<path d="M393.596 391.608H358.501L356.746 388.124H395.351L393.596 391.608Z" fill="#002E47" stroke="#002E47" stroke-miterlimit="10" stroke-linecap="round" stroke-linejoin="round"/>
<path d="M256.926 386.872C256.926 382.832 260.207 379.551 264.246 379.551C268.286 379.551 271.567 382.832 271.567 386.872C271.567 390.911 268.286 394.192 264.246 394.192C260.207 394.192 256.926 390.911 256.926 386.872Z" fill="#002E47" stroke="#002E47" stroke-miterlimit="10" stroke-linecap="round" stroke-linejoin="round"/>
<path d="M260.586 386.872C260.586 384.852 262.226 383.211 264.246 383.211C266.266 383.211 267.907 384.852 267.907 386.872C267.907 388.891 266.266 390.532 264.246 390.532C262.226 390.532 260.586 388.891 260.586 386.872Z" fill="white" stroke="#002E47" stroke-miterlimit="10" stroke-linecap="round" stroke-linejoin="round"/>
<path d="M178.543 386.872C178.543 382.832 181.824 379.551 185.864 379.551C189.903 379.551 193.184 382.832 193.184 386.872C193.184 390.911 189.903 394.192 185.864 394.192C181.815 394.192 178.543 390.911 178.543 386.872Z" fill="#002E47" stroke="#002E47" stroke-miterlimit="10" stroke-linecap="round" stroke-linejoin="round"/>
<path d="M182.195 386.872C182.195 384.852 183.836 383.211 185.856 383.211C187.875 383.211 189.516 384.852 189.516 386.872C189.516 388.891 187.875 390.532 185.856 390.532C183.836 390.532 182.195 388.891 182.195 386.872Z" fill="white" stroke="#002E47" stroke-miterlimit="10" stroke-linecap="round" stroke-linejoin="round"/>
<path d="M152.922 386.872C152.922 382.832 156.203 379.551 160.242 379.551C164.282 379.551 167.563 382.832 167.563 386.872C167.563 390.911 164.282 394.192 160.242 394.192C156.203 394.192 152.922 390.911 152.922 386.872Z" fill="#002E47" stroke="#002E47" stroke-miterlimit="10" stroke-linecap="round" stroke-linejoin="round"/>
<path d="M156.582 386.872C156.582 384.852 158.223 383.211 160.242 383.211C162.262 383.211 163.903 384.852 163.903 386.872C163.903 388.891 162.262 390.532 160.242 390.532C158.223 390.532 156.582 388.891 156.582 386.872Z" fill="white" stroke="#002E47" stroke-miterlimit="10" stroke-linecap="round" stroke-linejoin="round"/>
<path d="M197.204 378.501H212.683V299.289C212.683 299.271 212.666 299.254 212.648 299.254H197.231C197.213 299.254 197.195 299.271 197.195 299.289V378.501H197.204Z" fill="#002E47" stroke="#002E47" stroke-miterlimit="10" stroke-linecap="round" stroke-linejoin="round"/>
<path d="M193.079 378.505H216.805V322.542H193.079V378.505Z" fill="#002E47" stroke="#002E47" stroke-miterlimit="10" stroke-linecap="round" stroke-linejoin="round"/>
<path d="M220.781 285.989H240.618C240.635 285.989 240.653 285.971 240.653 285.953V243.344H220.746V285.953C220.746 285.971 220.764 285.989 220.781 285.989Z" fill="#002E47" stroke="#002E47" stroke-miterlimit="10" stroke-linecap="round" stroke-linejoin="round"/>
<path d="M191.507 243.37H268.999C276.637 243.37 282.767 237.082 282.582 229.444L280.712 153.786C280.527 146.412 274.503 140.538 267.129 140.538H203.14C196.437 140.538 190.731 145.433 189.707 152.057L178.074 227.715C176.813 235.944 183.181 243.37 191.507 243.37Z" fill="#002E47" stroke="#002E47" stroke-miterlimit="10" stroke-linecap="round" stroke-linejoin="round"/>
<path d="M216.828 302.023L250.829 324.417" stroke="#002E47" stroke-miterlimit="10" stroke-linecap="round" stroke-linejoin="round"/>
<path d="M252.12 321.022L257.914 324.929C259.908 326.269 260.164 329.101 258.452 330.785L258.047 331.182C256.662 332.54 254.475 332.629 252.984 331.403L247.666 327.01C245.981 325.626 245.84 323.094 247.357 321.524C248.609 320.219 250.62 320.016 252.12 321.022Z" fill="#002E47" stroke="#002E47" stroke-miterlimit="10" stroke-linecap="round" stroke-linejoin="round"/>
<path d="M141.913 305.895H267.968C274.689 305.895 280.131 300.453 280.131 293.732C280.131 287.012 274.689 281.57 267.968 281.57H141.913C135.192 281.57 129.75 287.012 129.75 293.732C129.75 300.445 135.201 305.895 141.913 305.895Z" fill="#002E47" stroke="#002E47" stroke-miterlimit="10" stroke-linecap="round" stroke-linejoin="round"/>
<path d="M129.836 292.251C130.568 286.05 136.178 281.561 142.423 281.561H207.743C213.988 281.561 219.598 286.041 220.33 292.251C221.194 299.624 215.461 305.886 208.255 305.886H141.911C134.705 305.895 128.972 299.633 129.836 292.251Z" fill="#002E47" stroke="#002E47" stroke-miterlimit="10" stroke-linecap="round" stroke-linejoin="round"/>
<path d="M150.574 382.929H271.611C271.611 379.269 268.648 376.305 264.987 376.305H157.207C153.538 376.305 150.574 379.269 150.574 382.929Z" fill="#002E47" stroke="#002E47" stroke-miterlimit="10" stroke-linecap="round" stroke-linejoin="round"/>
<path d="M172.121 382.929H211.511V376.305H178.745C175.085 376.305 172.121 379.269 172.121 382.929Z" fill="#002E47" stroke="#002E47" stroke-miterlimit="10" stroke-linecap="round" stroke-linejoin="round"/>
<path d="M224.09 370.793C224.09 370.793 223.076 376.217 223.076 378.925C223.076 381.633 221.048 393.152 221.718 395.524C222.397 397.897 229.506 409.416 238.661 408.736C247.807 408.057 252.209 400.604 251.194 396.882C250.18 393.152 244.421 383.335 243.062 380.283C241.704 377.231 241.034 368.429 241.034 368.429L224.09 370.793Z" fill="#002E47" stroke="#002E47" stroke-miterlimit="10"/>
<path d="M147.26 374.815C147.26 374.815 142.4 381.174 139.41 383.414C136.42 385.654 124.081 393.134 121.461 394.633C118.842 396.133 119.962 399.872 121.832 401.363C123.701 402.862 151.379 401.363 151.379 401.363C151.379 401.363 157.358 400.613 159.978 398.743C162.598 396.874 165.958 394.254 165.958 394.254C165.958 394.254 172.317 393.884 173.437 393.504C174.557 393.134 175.678 389.394 175.678 384.526C175.678 379.666 173.437 375.926 173.437 375.926L147.26 374.815Z" fill="#002E47" stroke="#002E47" stroke-miterlimit="10"/>
<path d="M166.812 256.794C166.812 256.794 148.952 251.652 134.549 258.505C120.154 265.358 119.563 269.698 119.219 272.441C118.875 275.184 137.821 285.124 145.018 285.812C152.215 286.5 191.835 282.416 192.858 282.416C193.881 282.416 215.825 282.072 215.825 282.072C215.825 282.072 221.646 294.509 225.421 295.532C229.196 296.564 253.195 300.577 257.305 296.467C261.416 292.357 257.649 274.276 254.906 268.11C252.163 261.936 244.622 253.028 244.622 253.028L235.026 244.455H180.518L166.812 256.794Z" fill="#002E47" stroke="#002E47" stroke-miterlimit="10"/>
<path d="M221.134 154.623C221.134 154.623 213.381 158.425 206.828 167.157C200.274 175.888 194.083 190.459 193.721 199.191C193.359 207.931 184.98 251.617 184.98 251.617H231.577C231.577 251.617 230.677 227.812 234.126 206.476C237.574 185.141 252.33 166.063 252.33 166.063L221.134 154.623Z" fill="white" stroke="#002E47" stroke-miterlimit="10"/>
<path d="M248.748 160.921C248.748 160.921 272.712 167.712 272.712 170.341C272.712 172.969 271.468 185.582 271.468 185.582L275.481 217.307L255.671 217.854L247.813 245.761L256.395 269.266C257.912 270.642 251.367 262.721 241.648 264.15C235.685 265.032 225.895 271.674 221.485 269.566C212.55 265.288 213.521 232.037 213.662 229.549C213.803 227.053 221.864 205.665 224.634 199.57C227.403 193.476 242.503 158.01 242.503 158.01L248.748 160.921Z" fill="#39B4EF" stroke="#002E47" stroke-miterlimit="10"/>
<path d="M242.098 245.663C240.475 244.914 238.605 244.217 237.441 244.288C235.024 244.446 220.895 249.403 220.895 249.403" stroke="#002E47" stroke-miterlimit="10"/>
<path d="M245.266 247.304C245.266 247.304 244.605 246.916 243.652 246.422" stroke="#002E47" stroke-miterlimit="10"/>
<path d="M221.134 154.623C221.134 154.623 202.85 181.066 201.986 188.042C201.112 195.019 194.727 230.158 193.245 237.637C186.286 272.882 175.578 273.843 172.747 275.59C169.916 277.336 153.511 256.786 153.511 256.786C153.511 256.786 146.384 256.327 148.351 254.801C150.309 253.275 160.778 248.539 161.652 247.445C162.525 246.351 176.249 214.106 176.69 213.232C177.122 212.359 181.267 207.57 181.047 194.278C180.826 180.986 181.047 161.38 181.7 158.76C182.352 156.149 185.836 156.361 188.456 156.361C191.066 156.361 211.555 156.361 211.555 156.361C211.555 156.361 218.955 151.783 221.134 154.623Z" fill="#39B4EF" stroke="#002E47" stroke-miterlimit="10"/>
<path d="M175.41 244.587C178.656 243.238 182.184 241.456 185.386 239.181" stroke="#002E47" stroke-miterlimit="10"/>
<path d="M164.023 248.204C164.023 248.204 168.407 247.33 173.937 245.17" stroke="#002E47" stroke-miterlimit="10"/>
<path d="M190.688 217.334C190.899 219.971 191.226 221.567 191.437 222.202" stroke="#002E47" stroke-miterlimit="10"/>
<path d="M196.202 169.811C195.011 174.574 192.753 184.479 191.439 196.077C190.539 203.998 190.381 209.987 190.522 214.255" stroke="#002E47" stroke-miterlimit="10"/>
<path d="M209.402 158.081L200.511 161.044L204.216 163.452L196.992 166.795" stroke="#002E47" stroke-miterlimit="10"/>
<path d="M231.455 193.193C228.58 197.471 225.44 202.975 223.87 208.487C220.536 220.165 216.082 226.242 216.082 226.242" stroke="#002E47" stroke-miterlimit="10"/>
<path d="M237.574 185.141C237.574 185.141 235.678 187.275 233.234 190.635" stroke="#002E47" stroke-miterlimit="10"/>
<path d="M266.045 174.045C264.704 175.977 263.267 178.296 262.226 180.687C259.633 186.614 259.633 186.614 259.633 186.614" stroke="#002E47" stroke-miterlimit="10"/>
<path d="M269.819 169.203C269.819 169.203 269.158 169.935 268.188 171.161" stroke="#002E47" stroke-miterlimit="10"/>
<path d="M262.41 183.659C262.41 183.659 267.041 177.547 270.569 179.399" stroke="#002E47" stroke-miterlimit="10"/>
<path d="M261.484 187.363C261.484 187.363 265.586 186.181 268.523 185.881" stroke="#002E47" stroke-miterlimit="10"/>
<path d="M219.125 117.826C218.675 119.282 219.672 120.561 219.804 120.966C219.936 121.372 219.672 132.706 219.672 134.214C219.672 135.713 219.539 150.055 218.851 154.288C218.172 158.522 219.125 166.028 226.093 168.488C233.06 170.949 239.199 170.949 243.979 168.356C248.76 165.763 250.947 158.663 250.947 153.741C250.947 148.829 252.72 137.768 253.54 132.988C254.361 128.208 254.907 123.154 253.267 118.1C251.626 113.046 245.073 111.273 245.073 111.273C245.073 111.273 241.519 108.68 236.2 108.266C230.864 107.86 220.756 112.508 219.125 117.826Z" fill="#002E47" stroke="#002E47" stroke-miterlimit="10"/>
<path d="M224.034 122.333C224.034 122.333 222.535 125.747 222.94 127.387C223.346 129.028 224.166 129.434 222.808 130.942C221.441 132.441 221.035 133.949 221.035 134.629C221.035 135.308 221.167 147.056 221.855 149.102C222.535 151.148 223.769 150.469 224.448 149.781C225.128 149.102 228.276 145.689 235.235 145.689C242.203 145.689 247.116 151.969 248.068 151.836C249.021 151.704 249.709 150.61 249.841 149.79C249.974 148.97 252.575 136.269 251.614 133.129C250.662 129.989 250.662 127.943 250.662 127.943C250.662 127.943 249.982 123.304 247.248 121.522C244.514 119.749 242.194 119.202 236.188 121.654C230.182 124.115 225.26 124.247 224.034 122.333Z" fill="white" stroke="#002E47" stroke-miterlimit="10"/>
<path d="M232.775 142.408C232.775 142.408 231.822 143.228 232.775 143.775C233.727 144.322 236.188 145.415 237.141 145.001C238.093 144.595 239.328 144.181 239.602 143.634C239.875 143.087 239.328 142.134 239.328 142.134" stroke="#002E47" stroke-miterlimit="10"/>
<path d="M239.746 132.309C239.746 132.309 243.98 131.63 245.62 130.809C247.261 129.989 248.354 132.177 248.354 132.177" stroke="#002E47" stroke-miterlimit="10"/>
<path d="M233.869 132.441C233.869 132.441 227.721 130.942 227.042 130.942C226.363 130.942 224.996 133.129 224.996 133.129" stroke="#002E47" stroke-miterlimit="10"/>
<path d="M244.515 135.652C244.515 136.516 243.933 137.222 243.218 137.222C242.504 137.222 241.922 136.516 241.922 135.652C241.922 134.787 242.504 134.082 243.218 134.082C243.942 134.082 244.515 134.787 244.515 135.652Z" fill="#002E47"/>
<path d="M230.933 135.034C230.933 135.899 230.351 136.604 229.636 136.604C228.922 136.604 228.34 135.899 228.34 135.034C228.34 134.17 228.922 133.464 229.636 133.464C230.351 133.464 230.933 134.17 230.933 135.034Z" fill="#002E47"/>
<path d="M219.67 134.214C219.67 134.214 217.624 133.808 217.209 135.713C216.803 137.627 219.529 145.548 219.529 145.548L219.67 134.214Z" fill="white" stroke="#002E47" stroke-miterlimit="10"/>
<path d="M252.851 136.948C252.851 136.948 254.624 134.902 255.039 137.495C255.445 140.088 251.758 145.548 251.758 145.548L252.851 136.948Z" fill="white" stroke="#002E47" stroke-miterlimit="10"/>
<path d="M126.319 262.995C126.319 262.995 117.72 266.364 115.1 276.833C113.636 282.681 112.86 288.052 114.73 292.162C116.6 296.273 144.277 366.586 144.277 366.586L143.527 372.945L144.277 377.055L160.356 377.425L173.444 375.926C173.444 375.926 172.695 363.957 170.825 360.597C168.955 357.228 164.466 349.378 164.466 349.378L151.377 280.194" fill="#002E47"/>
<path d="M126.319 262.995C126.319 262.995 117.72 266.364 115.1 276.833C113.636 282.681 112.86 288.052 114.73 292.162C116.6 296.273 144.277 366.586 144.277 366.586L143.527 372.945L144.277 377.055L160.356 377.425L173.444 375.926C173.444 375.926 172.695 363.957 170.825 360.597C168.955 357.228 164.466 349.378 164.466 349.378L151.377 280.194" stroke="#002E47" stroke-miterlimit="10"/>
<path d="M222.81 271.224C222.81 271.224 216.08 283.563 217.2 286.932C218.32 290.302 221.31 357.616 221.31 357.616C221.31 357.616 219.44 373.324 220.56 373.695C221.681 374.065 230.28 377.434 231.409 377.064C232.529 376.693 243.748 372.954 244.868 371.454C245.988 369.955 245.988 367.344 245.988 364.345C245.988 361.355 245.618 357.616 245.618 357.616C245.618 357.616 258.336 294.041 258.707 289.922C259.077 285.812 257.208 279.074 252.348 274.593" fill="#002E47"/>
<path d="M222.81 271.224C222.81 271.224 216.08 283.563 217.2 286.932C218.32 290.302 221.31 357.616 221.31 357.616C221.31 357.616 219.44 373.324 220.56 373.695C221.681 374.065 230.28 377.434 231.409 377.064C232.529 376.693 243.748 372.954 244.868 371.454C245.988 369.955 245.988 367.344 245.988 364.345C245.988 361.355 245.618 357.616 245.618 357.616C245.618 357.616 258.336 294.041 258.707 289.922C259.077 285.812 257.208 279.074 252.348 274.593" stroke="#002E47" stroke-miterlimit="10"/>
<path d="M129.441 368.411H136.444V406.037L134.31 411.285L129.441 368.411Z" fill="white" stroke="#002E47" stroke-miterlimit="10" stroke-linejoin="round"/>
<path d="M358.851 368.411H351.848V406.037L353.991 411.285L358.851 368.411Z" fill="white" stroke="#002E47" stroke-miterlimit="10" stroke-linejoin="round"/>
<path d="M134.303 368.411H127.309V411.285H134.303V368.411Z" fill="white" stroke="#002E47" stroke-miterlimit="10" stroke-linejoin="round"/>
<path d="M27.4648 368.411H34.4591V406.037L32.3247 411.285L27.4648 368.411Z" fill="white" stroke="#002E47" stroke-miterlimit="10" stroke-linejoin="round"/>
<path d="M32.3146 368.411H25.3203V411.285H32.3146V368.411Z" fill="white" stroke="#002E47" stroke-miterlimit="10" stroke-linejoin="round"/>
<path d="M145.51 360.191L138.895 368.411V399.202L145.51 378.325V360.191Z" fill="white" stroke="#002E47" stroke-miterlimit="10" stroke-linejoin="round"/>
<path d="M23.6719 255.992V399.202H138.896V368.411H353.954V411.33H360.949V255.992H23.6719Z" fill="#002E47" stroke="#002E47" stroke-miterlimit="10" stroke-linejoin="round"/>
<path d="M12.4805 248.997L46.5962 236.129H340.584L367.477 248.997H12.4805Z" fill="white" stroke="#002E47" stroke-miterlimit="10" stroke-linejoin="round"/>
<path d="M367.477 248.997H12.4805V255.568H367.477V248.997Z" fill="#E2EDFF" stroke="#002E47" stroke-miterlimit="10" stroke-linejoin="round"/>
<path d="M172.114 181.419C171.682 182.512 155.338 203.204 155.338 203.204L119.82 226.515L121.117 227.247C122.175 227.971 123.622 229.258 124.398 231.313C125.703 234.797 121.196 239.34 121.196 239.34L127.194 242.674L166.452 221.514L180.617 203.433L181.049 194.278L181.701 158.76C181.701 158.76 172.546 180.334 172.114 181.419Z" fill="#39B4EF" stroke="#002E47" stroke-miterlimit="10"/>
<path d="M117.031 227.344C117.031 227.344 123.196 224.178 124.855 223.349C126.522 222.52 128.682 223.517 130.852 227.68C133.013 231.843 131.355 235.503 130.349 236.676C129.353 237.84 125.357 239.675 125.357 239.675C125.357 239.675 119.36 231.181 119.192 230.678C119.025 230.176 117.031 227.344 117.031 227.344Z" fill="white" stroke="#002E47" stroke-miterlimit="10"/>
<path d="M155.852 204.598C155.852 204.598 157.519 208.858 161.593 211.451" stroke="#002E47" stroke-miterlimit="10"/>
<path d="M169.195 189.956C169.195 189.956 178.095 186.622 180.688 184.4" stroke="#002E47" stroke-miterlimit="10"/>
<path d="M174.617 199.597C175.817 199.552 177.043 199.438 178.269 199.217" stroke="#002E47" stroke-miterlimit="10"/>
<path d="M161.785 197.55C161.785 197.55 165.948 199.156 171.364 199.535" stroke="#002E47" stroke-miterlimit="10"/>
<path d="M119.82 226.524L105.541 231.013C105.541 231.013 94.0481 233.016 92.7163 233.677C91.3844 234.347 80.3947 238.343 79.7244 238.51C79.0541 238.678 78.3926 240.345 79.892 240.671C81.3914 241.006 90.2202 242.338 95.3799 241.668C100.54 240.998 108.539 241.165 108.539 241.165C108.539 241.165 97.382 242.832 96.0502 243.494C94.7184 244.164 96.553 245.99 100.884 245.99C105.214 245.99 109.377 244.155 111.706 244.155C114.034 244.155 120.535 243.326 122.36 240.989C124.195 238.66 124.689 235.829 125.192 233.827C125.694 231.843 121.275 226.533 119.82 226.524Z" fill="white" stroke="#002E47" stroke-miterlimit="10"/>
<path d="M87.8564 241.58C87.8564 241.58 86.2159 240.133 87.7594 239.745C89.3029 239.357 91.8166 239.357 92.972 238.969C94.1274 238.581 99.7281 236.552 101.078 236.358C102.427 236.164 104.262 235.873 104.262 235.873" stroke="#002E47" stroke-miterlimit="10" stroke-linejoin="round"/>
<path d="M84.3799 240.909C84.3799 240.909 82.6424 238.881 84.2829 238.299C85.9234 237.717 91.1361 236.755 91.7182 236.367C92.3003 235.979 97.6099 233.853 99.8238 233.668" stroke="#002E47" stroke-miterlimit="10" stroke-linejoin="round"/>
<path d="M254.273 181.754L250.039 171.373L248.946 157.852L240.073 151.845C240.073 151.845 233.793 151.845 233.105 152.251C232.426 152.657 227.504 153.203 227.919 154.438C228.325 155.664 232.699 155.391 233.246 155.258C233.793 155.126 228.325 160.771 228.192 161.318C228.06 161.865 226.561 166.045 226.834 166.46C227.107 166.866 228.748 167.554 229.427 167.139C230.106 166.733 232.161 162.085 232.161 162.085L235.442 162.359C235.442 162.359 236.809 175.606 238.309 176.7C239.808 177.794 240.77 178.614 240.77 178.614L243.089 185.987L254.273 181.754Z" fill="white" stroke="#002E47" stroke-miterlimit="10"/>
<path d="M233.246 155.258L235.16 153.891L241.299 154.712" stroke="#002E47" stroke-miterlimit="10"/>
<path d="M226.824 166.451C226.824 166.451 231.331 159.21 231.605 158.804C231.878 158.398 238.026 158.257 238.026 158.257" stroke="#002E47" stroke-miterlimit="10"/>
<path d="M239.528 156.079L233.38 156.352C233.38 156.352 232.675 156.22 231.078 158.063" stroke="#002E47" stroke-miterlimit="10"/>
<path d="M255.03 179.046L239.516 184.867L242.982 194.146L258.223 187.354L255.03 179.046Z" fill="white" stroke="#002E47" stroke-miterlimit="10"/>
<path d="M258.082 184.867L241.324 192.902C241.324 192.902 248.248 231.137 252.129 233.906C256.01 236.676 264.177 239.313 265.429 238.475C266.673 237.646 274.293 228.226 275.546 224.76C276.789 221.294 276.243 215.755 273.605 211.601C270.968 207.446 258.082 184.867 258.082 184.867Z" fill="#39B4EF" stroke="#002E47" stroke-miterlimit="10"/>
<path d="M139.339 20.2595H69.7227V74.4672H139.339V20.2595Z" stroke="#002E47" stroke-miterlimit="10" stroke-linejoin="round"/>
<path d="M133.122 25.0929H75.9336V69.6251H133.122V25.0929Z" stroke="#002E47" stroke-miterlimit="10" stroke-linejoin="round"/>
<path d="M84.6445 47.1782H125.993" stroke="#002E47" stroke-miterlimit="10" stroke-linejoin="round"/>
<path d="M93.6055 55.4425H117.031" stroke="#002E47" stroke-miterlimit="10" stroke-linejoin="round"/>
<path d="M93.6055 38.905H117.031" stroke="#002E47" stroke-miterlimit="10" stroke-linejoin="round"/>
<path d="M251.593 20.2595H181.977V74.4672H251.593V20.2595Z" stroke="#002E47" stroke-miterlimit="10" stroke-linejoin="round"/>
<path d="M245.384 25.0929H188.195V69.6251H245.384V25.0929Z" stroke="#002E47" stroke-miterlimit="10" stroke-linejoin="round"/>
<path d="M196.91 47.1782H238.249" stroke="#002E47" stroke-miterlimit="10" stroke-linejoin="round"/>
<path d="M205.871 55.4425H229.297" stroke="#002E47" stroke-miterlimit="10" stroke-linejoin="round"/>
<path d="M205.871 38.905H229.297" stroke="#002E47" stroke-miterlimit="10" stroke-linejoin="round"/>
<path d="M124.405 86.0656H80.4023V120.331H124.405V86.0656Z" stroke="#002E47" stroke-miterlimit="10" stroke-linejoin="round"/>
<path d="M120.472 89.1261H84.3281V117.271H120.472V89.1261Z" stroke="#002E47" stroke-miterlimit="10" stroke-linejoin="round"/>
<path d="M89.8398 103.079H115.974" stroke="#002E47" stroke-miterlimit="10" stroke-linejoin="round"/>
<path d="M95.5039 108.31H110.313" stroke="#002E47" stroke-miterlimit="10" stroke-linejoin="round"/>
<path d="M95.5039 97.8579H110.313" stroke="#002E47" stroke-miterlimit="10" stroke-linejoin="round"/>
<path d="M366.03 20.2595H296.414V110.488H366.03V20.2595Z" stroke="#002E47" stroke-miterlimit="10" stroke-linejoin="round"/>
<path d="M359.822 25.0929H302.633V105.646H359.822V25.0929Z" stroke="#002E47" stroke-miterlimit="10" stroke-linejoin="round"/>
<path d="M311.348 47.1782H352.687" stroke="#002E47" stroke-miterlimit="10" stroke-linejoin="round"/>
<path d="M320.297 55.4425H343.732" stroke="#002E47" stroke-miterlimit="10" stroke-linejoin="round"/>
<path d="M320.297 38.905H343.732" stroke="#002E47" stroke-miterlimit="10" stroke-linejoin="round"/>
<path d="M311.348 78.8684H352.687" stroke="#002E47" stroke-miterlimit="10" stroke-linejoin="round"/>
<path d="M320.297 87.1416H343.732" stroke="#002E47" stroke-miterlimit="10" stroke-linejoin="round"/>
<path d="M320.297 70.6041H343.732" stroke="#002E47" stroke-miterlimit="10" stroke-linejoin="round"/>
<path d="M321.629 226.683H319.062V208.011L320.297 204.792L321.629 208.011V226.683Z" fill="white" stroke="#002E47" stroke-miterlimit="10" stroke-linejoin="round"/>
<path d="M326.516 228.897H323.949V210.225L325.193 207.005L326.516 210.225V228.897Z" fill="white" stroke="#002E47" stroke-miterlimit="10" stroke-linejoin="round"/>
<path d="M325.203 226.665L322.848 225.642L330.256 208.505L332.673 206.044L332.62 209.519L325.203 226.665Z" fill="white" stroke="#002E47" stroke-miterlimit="10" stroke-linejoin="round"/>
<path d="M329.442 225.933L327.113 224.848L334.981 207.905L337.459 205.515L337.309 208.99L329.442 225.933Z" fill="white" stroke="#002E47" stroke-miterlimit="10" stroke-linejoin="round"/>
<path d="M326.648 224.037L324.381 225.254L315.579 208.778L315.164 205.356L317.854 207.57L326.648 224.037Z" fill="white" stroke="#002E47" stroke-miterlimit="10" stroke-linejoin="round"/>
<path d="M336.094 214.979H316.602V242.056H336.094V214.979Z" fill="white" stroke="#002E47" stroke-miterlimit="10" stroke-linejoin="round"/>
<path d="M311.61 232.425H249.605V244.72H311.61V232.425Z" fill="#002E47" stroke="#002E47" stroke-miterlimit="10" stroke-linejoin="round"/>
<path d="M270.008 242.92V234.788H272.125C272.469 234.788 272.804 234.815 273.112 234.868C273.421 234.921 273.703 235.027 273.942 235.177C274.18 235.326 274.374 235.538 274.506 235.82C274.647 236.103 274.709 236.464 274.709 236.923C274.709 237.249 274.665 237.523 274.568 237.752C274.471 237.972 274.33 238.158 274.153 238.29C273.977 238.422 273.765 238.51 273.518 238.563C273.836 238.608 274.1 238.705 274.312 238.872C274.524 239.04 274.691 239.251 274.797 239.534C274.912 239.807 274.965 240.142 274.965 240.53C274.965 240.954 274.912 241.315 274.797 241.615C274.682 241.924 274.524 242.171 274.321 242.365C274.109 242.559 273.853 242.7 273.553 242.797C273.245 242.894 272.901 242.938 272.504 242.938H270.008V242.92ZM271.807 238.034H272.16C272.433 238.034 272.645 237.99 272.786 237.911C272.927 237.831 273.024 237.708 273.068 237.54C273.121 237.382 273.148 237.187 273.148 236.958C273.148 236.746 273.112 236.561 273.033 236.42C272.954 236.279 272.839 236.164 272.689 236.094C272.539 236.023 272.345 235.979 272.125 235.979H271.816V238.034H271.807ZM271.807 241.659H272.186C272.583 241.659 272.857 241.562 273.007 241.359C273.157 241.156 273.236 240.865 273.236 240.477C273.236 240.169 273.201 239.922 273.139 239.745C273.068 239.569 272.962 239.437 272.804 239.348C272.654 239.269 272.442 239.225 272.178 239.225H271.807V241.659Z" fill="#39B4EF"/>
<path d="M278.244 243.035C277.635 243.035 277.15 242.929 276.797 242.718C276.445 242.506 276.189 242.197 276.03 241.791C275.88 241.386 275.801 240.909 275.801 240.354V237.329C275.801 236.764 275.88 236.288 276.03 235.891C276.18 235.494 276.436 235.194 276.797 234.982C277.15 234.771 277.635 234.665 278.244 234.665C278.861 234.665 279.346 234.771 279.708 234.982C280.07 235.194 280.325 235.494 280.475 235.891C280.625 236.288 280.705 236.764 280.705 237.329V240.354C280.705 240.909 280.625 241.386 280.475 241.791C280.317 242.197 280.061 242.497 279.708 242.718C279.346 242.929 278.861 243.035 278.244 243.035ZM278.244 241.765C278.429 241.765 278.57 241.721 278.658 241.624C278.747 241.527 278.8 241.412 278.826 241.262C278.852 241.112 278.87 240.962 278.87 240.812V236.896C278.87 236.738 278.852 236.588 278.826 236.438C278.8 236.297 278.738 236.173 278.658 236.085C278.57 235.988 278.438 235.944 278.244 235.944C278.068 235.944 277.935 235.988 277.856 236.085C277.768 236.182 277.715 236.297 277.688 236.438C277.662 236.579 277.644 236.738 277.644 236.896V240.812C277.644 240.962 277.653 241.121 277.679 241.262C277.706 241.412 277.759 241.527 277.838 241.624C277.918 241.712 278.05 241.765 278.244 241.765Z" fill="#39B4EF"/>
<path d="M283.952 243.035C283.44 243.035 283.017 242.947 282.673 242.762C282.329 242.585 282.073 242.303 281.897 241.924C281.72 241.544 281.623 241.059 281.605 240.451L283.14 240.221C283.149 240.565 283.175 240.848 283.237 241.068C283.29 241.28 283.378 241.439 283.475 241.527C283.581 241.624 283.705 241.668 283.855 241.668C284.04 241.668 284.163 241.606 284.225 241.474C284.278 241.35 284.313 241.209 284.313 241.068C284.313 240.733 284.234 240.451 284.075 240.221C283.916 239.992 283.696 239.754 283.422 239.525L282.717 238.916C282.408 238.652 282.152 238.36 281.941 238.025C281.729 237.69 281.623 237.284 281.623 236.799C281.623 236.111 281.826 235.582 282.232 235.221C282.637 234.859 283.193 234.674 283.899 234.674C284.331 234.674 284.684 234.744 284.948 234.894C285.213 235.044 285.416 235.238 285.548 235.468C285.689 235.706 285.777 235.953 285.83 236.217C285.883 236.482 285.91 236.738 285.918 236.976L284.375 237.17C284.366 236.932 284.357 236.72 284.331 236.544C284.304 236.367 284.26 236.226 284.19 236.129C284.119 236.032 284.005 235.988 283.846 235.988C283.678 235.988 283.555 236.058 283.475 236.2C283.396 236.341 283.361 236.482 283.361 236.623C283.361 236.923 283.431 237.17 283.572 237.364C283.713 237.558 283.907 237.752 284.137 237.964L284.807 238.555C285.16 238.854 285.46 239.198 285.707 239.578C285.954 239.957 286.077 240.433 286.077 240.989C286.077 241.368 285.989 241.721 285.813 242.03C285.636 242.338 285.389 242.585 285.072 242.77C284.763 242.947 284.393 243.035 283.952 243.035Z" fill="#39B4EF"/>
<path d="M288.952 243.035C288.44 243.035 288.017 242.947 287.673 242.762C287.329 242.585 287.073 242.303 286.897 241.924C286.72 241.544 286.623 241.059 286.605 240.451L288.14 240.221C288.149 240.565 288.175 240.848 288.237 241.068C288.29 241.28 288.378 241.439 288.475 241.527C288.581 241.624 288.705 241.668 288.855 241.668C289.04 241.668 289.163 241.606 289.225 241.474C289.278 241.35 289.313 241.209 289.313 241.068C289.313 240.733 289.234 240.451 289.075 240.221C288.916 239.992 288.696 239.754 288.422 239.525L287.717 238.916C287.408 238.652 287.152 238.36 286.941 238.025C286.729 237.69 286.623 237.284 286.623 236.799C286.623 236.111 286.826 235.582 287.232 235.221C287.637 234.859 288.193 234.674 288.899 234.674C289.331 234.674 289.684 234.744 289.948 234.894C290.213 235.044 290.416 235.238 290.548 235.468C290.689 235.706 290.777 235.953 290.83 236.217C290.883 236.482 290.91 236.738 290.918 236.976L289.375 237.17C289.366 236.932 289.357 236.72 289.331 236.544C289.304 236.367 289.26 236.226 289.19 236.129C289.119 236.032 289.004 235.988 288.846 235.988C288.678 235.988 288.555 236.058 288.475 236.2C288.396 236.341 288.361 236.482 288.361 236.623C288.361 236.923 288.431 237.17 288.572 237.364C288.713 237.558 288.907 237.752 289.137 237.964L289.807 238.555C290.16 238.854 290.46 239.198 290.707 239.578C290.954 239.957 291.077 240.433 291.077 240.989C291.077 241.368 290.989 241.721 290.813 242.03C290.636 242.338 290.389 242.585 290.072 242.77C289.763 242.947 289.393 243.035 288.952 243.035Z" fill="#39B4EF"/>
<path d="M79.4935 245.972L90.6155 244.243H70.5765L58.793 245.972H79.4935Z" fill="#002E47" stroke="#002E47" stroke-miterlimit="10" stroke-linejoin="round"/>
<path d="M134.194 147.153H22.4883V223.331H134.194V147.153Z" fill="white" stroke="#002E47" stroke-miterlimit="10" stroke-linejoin="round"/>
<path d="M132.713 147.153H21.0078V223.331H132.713V147.153Z" fill="#E2EDFF" stroke="#002E47" stroke-miterlimit="10" stroke-linejoin="round"/>
<path d="M121.351 154.897H32.375V215.57H121.351V154.897Z" fill="#E2EDFF" stroke="#002E47" stroke-miterlimit="10" stroke-linejoin="round"/>
<path d="M79.4935 245.972H58.793L62.3651 194.216H83.0656L79.4935 245.972Z" fill="#002E47" stroke="#002E47" stroke-miterlimit="10" stroke-linejoin="round"/>
<path d="M121.352 154.897L132.712 147.153" stroke="#002E47" stroke-miterlimit="10" stroke-linejoin="round"/>
<path d="M121.352 215.578L132.712 223.322" stroke="#002E47" stroke-miterlimit="10" stroke-linejoin="round"/>
<path d="M32.3768 215.578L21.0078 223.322" stroke="#002E47" stroke-miterlimit="10" stroke-linejoin="round"/>
<path d="M32.3768 154.897L21.0078 147.153" stroke="#002E47" stroke-miterlimit="10" stroke-linejoin="round"/>
<path d="M212.789 245.849H128.32L144.972 237.884H220.269L212.789 245.849Z" fill="white" stroke="#002E47" stroke-miterlimit="10" stroke-linejoin="round"/>
<path d="M146.383 239.692H215.611" stroke="#002E47" stroke-miterlimit="10" stroke-linejoin="round"/>
<path d="M140.836 241.342H214.562" stroke="#002E47" stroke-miterlimit="10" stroke-linejoin="round"/>
<path d="M137.688 243.141H212.613" stroke="#002E47" stroke-miterlimit="10" stroke-linejoin="round"/>
<path d="M210.813 239.842L207.973 243.141" stroke="#002E47" stroke-miterlimit="10" stroke-linejoin="round"/>
<path d="M205.424 239.542L202.125 243.291" stroke="#002E47" stroke-miterlimit="10" stroke-linejoin="round"/>
<path d="M199.279 239.542L195.98 243.291" stroke="#002E47" stroke-miterlimit="10" stroke-linejoin="round"/>
<path d="M193.139 239.542L189.84 243.291" stroke="#002E47" stroke-miterlimit="10" stroke-linejoin="round"/>
<path d="M186.99 239.542L183.691 243.291" stroke="#002E47" stroke-miterlimit="10" stroke-linejoin="round"/>
<path d="M180.845 239.542L177.555 243.291" stroke="#002E47" stroke-miterlimit="10" stroke-linejoin="round"/>
<path d="M174.705 239.542L171.406 243.291" stroke="#002E47" stroke-miterlimit="10" stroke-linejoin="round"/>
<path d="M169.394 239.542L165.258 243.291" stroke="#002E47" stroke-miterlimit="10" stroke-linejoin="round"/>
<path d="M163.169 239.542L159.121 243.291" stroke="#002E47" stroke-miterlimit="10" stroke-linejoin="round"/>
<path d="M157.321 239.542L152.973 243.291" stroke="#002E47" stroke-miterlimit="10" stroke-linejoin="round"/>
<path d="M152.071 239.542L146.832 243.291" stroke="#002E47" stroke-miterlimit="10" stroke-linejoin="round"/>
<path d="M54.9052 234.118C53.0883 232.425 50.4511 232.019 47.9903 232.142C42.7689 232.407 39.8936 236.323 39.3732 238.413C38.8528 240.504 40.6786 240.504 43.8097 241.024C46.9408 241.544 54.2525 241.024 56.0871 239.719C57.5777 238.652 56.5281 236.155 55.6902 235.009C55.4521 234.683 55.1875 234.383 54.9052 234.118Z" fill="#002E47" stroke="#002E47" stroke-miterlimit="10" stroke-linejoin="round"/>
<path d="M43.8091 241.015C43.8091 241.015 30.9231 243.405 26.2661 246.828C26.2661 246.828 22.2266 248.689 22.2266 249.932V312.819C22.2266 314.962 23.9641 316.7 26.1074 316.7C28.2506 316.7 29.9882 314.962 29.9882 312.819V257.385" stroke="#002E47" stroke-miterlimit="10" stroke-linejoin="round"/>
</svg>
