<svg width="256" height="264" viewBox="0 0 256 264" fill="none" xmlns="http://www.w3.org/2000/svg">
<g clip-path="url(#clip0_266_45755)">
<path opacity="0.7" d="M19.9828 82.3302C19.9828 82.3302 3.48772 124.944 26.6685 167.866C49.8433 210.793 97.5952 233.453 135.81 252.839C174.024 272.225 213.706 262.784 232.562 231.032C251.418 199.28 225.551 176.615 225.521 131.337C225.492 86.0595 232.296 74.0726 207.795 35.8214C183.295 -2.42989 123.154 -10.9006 77.6921 17.4712C32.2299 45.843 19.9828 82.3302 19.9828 82.3302Z" fill="white"/>
<path d="M19.1472 39.7992C21.141 37.4137 23.3124 35.1939 25.6494 33.1694C42.4936 18.5722 66.5677 15.79 87.37 22.3369C108.178 28.8838 125.975 43.7356 140.393 61.044C146.978 68.9523 153.238 77.6657 162.054 82.5019C173.419 88.7409 186.583 87.4327 198.872 89.2677C243.553 95.9389 258.114 158.637 227.585 191.259C215.55 204.122 198.754 211.373 182.826 216.813C160.77 224.355 137.696 229.297 114.55 228.374C91.405 227.451 68.1178 220.383 49.4809 205.697C25.0695 186.465 10.3908 155.577 4.28497 123.831C1.19066 107.766 0.09611 91.0554 3.16084 74.9842C5.62801 62.0739 10.9588 49.5721 19.1472 39.7992Z" fill="#39B4EF"/>
<path opacity="0.7" d="M198.872 89.2677C186.583 87.4327 173.419 88.7409 162.054 82.5018C153.238 77.6657 146.984 68.9523 140.393 61.044C125.981 43.7356 108.178 28.8838 87.37 22.3369C66.5618 15.79 42.4936 18.5722 25.6494 33.1694C23.3124 35.1939 21.1469 37.4137 19.1472 39.7992C10.9588 49.5721 5.62801 62.0739 3.16084 74.996C0.09611 91.0672 1.19066 107.778 4.28497 123.843C10.3967 155.583 25.0695 186.476 49.4809 205.709C68.1178 220.395 91.405 227.462 114.55 228.386C137.696 229.309 160.77 224.367 182.826 216.825C198.748 211.379 215.55 204.128 227.585 191.271C258.114 158.637 243.553 95.9448 198.872 89.2677Z" fill="white"/>
<path d="M1.33984 245.262H254.79" stroke="#002E47" stroke-miterlimit="10" stroke-linecap="round" stroke-linejoin="round"/>
<path d="M128.621 54.3314V56.4032" stroke="#39B4EF" stroke-width="3" stroke-linejoin="round"/>
<path d="M128.621 60.9552V67.7803" stroke="#39B4EF" stroke-width="3" stroke-linejoin="round" stroke-dasharray="7.68 7.68"/>
<path d="M128.622 70.0533V72.1251H126.551" stroke="#39B4EF" stroke-width="3" stroke-linejoin="round"/>
<path d="M122.368 72.1252H57.5469" stroke="#39B4EF" stroke-width="3" stroke-linejoin="round" stroke-dasharray="7.07 7.07"/>
<path d="M55.4575 72.1252H53.3867V74.197" stroke="#39B4EF" stroke-width="3" stroke-linejoin="round"/>
<path d="M53.3867 77.5947V82.6913" stroke="#39B4EF" stroke-width="3" stroke-linejoin="round" stroke-dasharray="5.74 5.74"/>
<path d="M53.3867 84.3903V86.4621" stroke="#39B4EF" stroke-width="3" stroke-linejoin="round"/>
<path d="M63.9023 64.1694H72.3096" stroke="#002E47" stroke-miterlimit="10" stroke-linecap="round" stroke-linejoin="round"/>
<path d="M65.7527 43.9546C63.1909 45.174 61.4218 47.7844 61.4218 50.8093C61.4218 51.6735 61.5698 52.4963 61.836 53.2718C61.6999 53.2599 61.5579 53.2481 61.4218 53.2481C58.4044 53.2481 55.9609 55.6928 55.9609 58.7117C55.9609 61.7306 58.4044 64.1753 61.4218 64.1753" stroke="#002E47" stroke-miterlimit="10" stroke-linecap="round" stroke-linejoin="round"/>
<path d="M82.314 37.5735C81.2786 37.2479 80.1722 37.0703 79.0244 37.0703C74.6995 37.0703 70.9603 39.5861 69.1853 43.2324C69.1261 43.2324 69.067 43.2206 69.0078 43.2206" stroke="#002E47" stroke-miterlimit="10" stroke-linecap="round" stroke-linejoin="round"/>
<path d="M91.2117 46.4763C90.7502 46.4763 90.3005 46.5118 89.8568 46.5769C89.484 43.7179 88.0108 41.208 85.875 39.4855" stroke="#002E47" stroke-miterlimit="10" stroke-linecap="round" stroke-linejoin="round"/>
<path d="M77.5859 64.1694H91.2116C96.0986 64.1694 100.057 60.2093 100.057 55.3198" stroke="#002E47" stroke-miterlimit="10" stroke-linecap="round" stroke-linejoin="round"/>
<path d="M169.918 64.6606H175.621" stroke="#002E47" stroke-miterlimit="10" stroke-linecap="round" stroke-linejoin="round"/>
<path d="M171.173 50.9454C169.44 51.7742 168.239 53.5441 168.239 55.5981C168.239 56.1841 168.339 56.7405 168.523 57.2674C168.428 57.2615 168.334 57.2555 168.239 57.2555C166.192 57.2555 164.535 58.913 164.535 60.9611C164.535 63.0092 166.192 64.6666 168.239 64.6666" stroke="#002E47" stroke-miterlimit="10" stroke-linecap="round" stroke-linejoin="round"/>
<path d="M182.409 46.6124C181.705 46.3874 180.954 46.269 180.179 46.269C177.244 46.269 174.706 47.9738 173.505 50.4482C173.464 50.4482 173.428 50.4422 173.387 50.4422" stroke="#002E47" stroke-miterlimit="10" stroke-linecap="round" stroke-linejoin="round"/>
<path d="M188.451 52.6561C188.137 52.6561 187.83 52.6798 187.534 52.7272C187.279 50.7915 186.28 49.0867 184.836 47.9147" stroke="#002E47" stroke-miterlimit="10" stroke-linecap="round" stroke-linejoin="round"/>
<path d="M179.203 64.6606H188.451C191.764 64.6606 194.45 61.9732 194.45 58.6583" stroke="#002E47" stroke-miterlimit="10" stroke-linecap="round" stroke-linejoin="round"/>
<path d="M148.448 25.3972C147.727 25.3972 147.017 25.4505 146.319 25.5571C145.218 17.1278 138.018 10.6165 129.291 10.6165C122.493 10.6165 116.618 14.5647 113.837 20.2947C113.742 20.2947 113.654 20.2829 113.559 20.2829C106.98 20.2829 101.643 25.6222 101.643 32.2046C101.643 33.5601 101.88 34.8565 102.294 36.0699C102.075 36.0522 101.862 36.0344 101.643 36.0344C96.9042 36.0344 93.0703 39.8761 93.0703 44.6117C93.0703 49.3472 96.9101 53.1889 101.643 53.1889H148.448C156.122 53.1889 162.34 46.9676 162.34 39.2901C162.34 31.6126 156.122 25.3972 148.448 25.3972Z" fill="white" stroke="#002E47" stroke-miterlimit="10"/>
<path d="M128.695 39.4854V29.5349" stroke="#002E47" stroke-miterlimit="10" stroke-linecap="round" stroke-linejoin="round"/>
<path d="M134.214 32.9208L128.694 27.3979L123.18 32.9208" stroke="#002E47" stroke-miterlimit="10" stroke-linecap="round" stroke-linejoin="round"/>
<path d="M128.695 41.7111V43.9545" stroke="#002E47" stroke-miterlimit="10" stroke-linecap="round" stroke-linejoin="round"/>
<path d="M128.695 46.5769V48.2935" stroke="#002E47" stroke-miterlimit="10" stroke-linecap="round" stroke-linejoin="round"/>
<path d="M110.959 245.262H99.2383C96.357 245.262 94.3868 242.93 94.8483 240.053L99.3862 211.593C99.8477 208.716 102.552 206.383 105.439 206.383H141.387" stroke="#002E47" stroke-miterlimit="10" stroke-linecap="round" stroke-linejoin="round"/>
<path d="M104.41 198.487H114.941C115.598 198.487 116.184 198.889 116.427 199.499L117.681 202.725H139.986C142.282 202.725 144.234 204.211 144.932 206.271L146.18 206.378C149.062 206.378 151.032 208.71 150.57 211.587L146.033 240.047C145.577 242.924 142.867 245.256 139.98 245.256H117.752" stroke="#002E47" stroke-miterlimit="10" stroke-linecap="round" stroke-linejoin="round"/>
<path d="M94.0195 220.39V212.452V207.953C94.0195 205.194 96.1613 202.963 98.8651 202.767L100.131 199.506C100.368 198.896 100.96 198.494 101.616 198.494" stroke="#002E47" stroke-miterlimit="10" stroke-linecap="round" stroke-linejoin="round"/>
<path d="M99.2379 245.262C96.3565 245.262 94.0195 242.924 94.0195 240.041V228.492" stroke="#002E47" stroke-miterlimit="10" stroke-linecap="round" stroke-linejoin="round"/>
<path d="M210.828 245.262C209.373 245.262 208.195 244.084 208.195 242.628V226.438C208.195 225.047 209.278 223.923 210.639 223.822L211.278 222.176C211.396 221.869 211.692 221.667 212.023 221.667H218.744C219.076 221.667 219.372 221.869 219.49 222.176L220.123 223.804H231.376C232.536 223.804 233.518 224.556 233.873 225.592" fill="#39B4EF"/>
<mask id="mask0_266_45755" style="mask-type:luminance" maskUnits="userSpaceOnUse" x="208" y="221" width="26" height="25">
<path d="M210.828 245.262C209.373 245.262 208.195 244.084 208.195 242.628V226.438C208.195 225.047 209.278 223.923 210.639 223.822L211.278 222.176C211.396 221.869 211.692 221.667 212.023 221.667H218.744C219.076 221.667 219.372 221.869 219.49 222.176L220.123 223.804H231.376C232.536 223.804 233.518 224.556 233.873 225.592" fill="white"/>
</mask>
<g mask="url(#mask0_266_45755)">
<path opacity="0.3" d="M210.828 245.262C209.373 245.262 208.195 244.084 208.195 242.628V226.438C208.195 225.047 209.278 223.923 210.639 223.822L211.278 222.176C211.396 221.869 211.692 221.667 212.023 221.667H218.744C219.076 221.667 219.372 221.869 219.49 222.176L220.123 223.804H231.376C232.536 223.804 233.518 224.556 233.873 225.592" fill="black" fill-opacity="0.7"/>
</g>
<path d="M210.828 245.262C209.373 245.262 208.195 244.084 208.195 242.628V226.438C208.195 225.047 209.278 223.923 210.639 223.822L211.278 222.176C211.396 221.869 211.692 221.667 212.023 221.667H218.744C219.076 221.667 219.372 221.869 219.49 222.176L220.123 223.804H231.376C232.536 223.804 233.518 224.556 233.873 225.592" stroke="#002E47" stroke-miterlimit="10" stroke-linecap="round" stroke-linejoin="round"/>
<path d="M210.828 245.262H231.382C232.837 245.262 234.204 244.084 234.435 242.634L236.725 228.273C236.955 226.823 235.961 225.645 234.512 225.645H213.958C212.503 225.645 211.136 226.823 210.905 228.273L208.615 242.634C208.385 244.09 209.373 245.262 210.828 245.262Z" fill="#39B4EF" stroke="#002E47" stroke-miterlimit="10" stroke-linecap="round" stroke-linejoin="round"/>
<path d="M91.0742 245.262C89.6188 245.262 88.4414 244.084 88.4414 242.628V226.438C88.4414 225.047 89.5241 223.923 90.8849 223.822L91.5239 222.176C91.6422 221.869 91.938 221.667 92.2694 221.667H98.9905C99.3218 221.667 99.6176 221.869 99.736 222.176L100.369 223.804H111.622C112.782 223.804 113.764 224.556 114.119 225.592" fill="#39B4EF"/>
<mask id="mask1_266_45755" style="mask-type:luminance" maskUnits="userSpaceOnUse" x="88" y="221" width="27" height="25">
<path d="M91.0742 245.262C89.6188 245.262 88.4414 244.084 88.4414 242.628V226.438C88.4414 225.047 89.5241 223.923 90.8849 223.822L91.5239 222.176C91.6422 221.869 91.938 221.667 92.2694 221.667H98.9905C99.3218 221.667 99.6176 221.869 99.736 222.176L100.369 223.804H111.622C112.782 223.804 113.764 224.556 114.119 225.592" fill="white"/>
</mask>
<g mask="url(#mask1_266_45755)">
<path opacity="0.3" d="M91.0742 245.262C89.6188 245.262 88.4414 244.084 88.4414 242.628V226.438C88.4414 225.047 89.5241 223.923 90.8849 223.822L91.5239 222.176C91.6422 221.869 91.938 221.667 92.2694 221.667H98.9905C99.3218 221.667 99.6176 221.869 99.736 222.176L100.369 223.804H111.622C112.782 223.804 113.764 224.556 114.119 225.592" fill="black" fill-opacity="0.7"/>
</g>
<path d="M91.0742 245.262C89.6188 245.262 88.4414 244.084 88.4414 242.628V226.438C88.4414 225.047 89.5241 223.923 90.8849 223.822L91.5239 222.176C91.6422 221.869 91.938 221.667 92.2694 221.667H98.9905C99.3218 221.667 99.6176 221.869 99.736 222.176L100.369 223.804H111.622C112.782 223.804 113.764 224.556 114.119 225.592" stroke="#002E47" stroke-miterlimit="10" stroke-linecap="round" stroke-linejoin="round"/>
<path d="M91.0757 245.262H111.63C113.085 245.262 114.452 244.084 114.682 242.634L116.972 228.273C117.203 226.823 116.209 225.645 114.759 225.645H94.2055C92.7501 225.645 91.3834 226.823 91.1526 228.273L88.863 242.634C88.6263 244.09 89.6203 245.262 91.0757 245.262Z" fill="#39B4EF" stroke="#002E47" stroke-miterlimit="10" stroke-linecap="round" stroke-linejoin="round"/>
<path d="M163.408 236.898C163.408 236.898 164.337 242.598 163.408 245.262H144.546C144.546 245.262 143.748 243.267 144.546 242.007C145.345 240.746 151.321 240.029 153.179 238.331C155.036 236.632 157.03 233.708 157.03 233.708L163.408 236.898Z" fill="#39B4EF" stroke="#002E47" stroke-miterlimit="10" stroke-linecap="round" stroke-linejoin="round"/>
<path d="M144.199 244.262H163.658L163.824 245.262H144.199V244.262Z" fill="white" stroke="#002E47" stroke-miterlimit="10" stroke-linecap="round" stroke-linejoin="round"/>
<path d="M158.878 236.205C158.878 236.205 157.103 236.638 156.902 236.703C156.701 236.768 154.973 239.426 153.251 239.893C151.524 240.361 149.796 240.266 150.062 241.113" stroke="#002E47" stroke-miterlimit="10" stroke-linecap="round" stroke-linejoin="round"/>
<path d="M154.949 236.205L156.973 237.697" stroke="#002E47" stroke-miterlimit="10" stroke-linecap="round" stroke-linejoin="round"/>
<path d="M154.012 237.508L155.958 238.94" stroke="#002E47" stroke-miterlimit="10" stroke-linecap="round" stroke-linejoin="round"/>
<path d="M152.766 238.656L154.458 240.29" stroke="#002E47" stroke-miterlimit="10" stroke-linecap="round" stroke-linejoin="round"/>
<path d="M151.059 239.485L151.786 241.107" stroke="#002E47" stroke-miterlimit="10" stroke-linecap="round" stroke-linejoin="round"/>
<path d="M163.716 239.485C163.716 239.485 160.621 239.106 157.237 240.296C153.853 241.48 152.682 242.522 152.77 242.829C152.859 243.143 153.255 244.066 153.255 244.066H154.953C154.953 244.066 154.338 242.983 154.462 242.829C154.587 242.675 160.373 240.414 163.722 240.817V239.485H163.716Z" fill="#002E47"/>
<path d="M195.377 245.262C195.377 245.262 196.105 242.486 195.253 241.456C193.726 239.609 195.436 238.058 193.91 237.419L193.271 238.165C193.147 237.407 193.502 235.11 190.662 234.808C187.23 234.447 187.165 236.945 186.976 237.768L187.035 236.62C185.573 236.62 186.331 238.082 184.112 240.473C182.42 242.296 182.414 244.641 182.509 245.262H195.377Z" fill="#39B4EF" stroke="#002E47" stroke-miterlimit="10" stroke-linecap="round" stroke-linejoin="round"/>
<path d="M207.813 139.66C209.399 140.583 213.487 149.297 211.102 166.587C208.718 183.878 201.571 217.695 200.37 222.869C199.175 228.043 194.974 240.479 194.974 240.479C194.974 240.479 193.371 235.081 185.662 237.969C185.378 238.076 185.082 237.821 185.141 237.525L186.833 228.711C186.833 228.711 186.951 222.265 187.508 220.649C189.596 214.558 190.643 191.046 191.33 187.767C192.016 184.488 190.667 175.046 190.667 175.046C190.667 175.046 181.017 198.155 180.704 200.423C180.39 202.69 174.503 212.125 174.503 212.125L173.486 220.791C173.486 220.791 165.652 234.217 164.274 238.224L154.949 236.2L155.21 229.564L157.724 228.706L162.114 213.617C162.114 213.617 163.771 206.94 167.22 198.215C169.297 192.964 175.184 172.649 175.184 172.649C177.012 170.66 178.733 159.661 178.733 159.661L181.562 145.786L207.813 139.66Z" fill="#002E47"/>
<path d="M168.655 102.995L149.486 117.438L137.15 97.9694L132.535 98.5672C132.535 98.5672 141.718 123.683 146.8 126.181C151.882 128.679 171.04 114.798 171.04 114.798" fill="white"/>
<path d="M168.655 102.995L149.486 117.438L137.15 97.9694L132.535 98.5672C132.535 98.5672 141.718 123.683 146.8 126.181C151.882 128.679 171.04 114.798 171.04 114.798" stroke="#002E47" stroke-miterlimit="10" stroke-linecap="round" stroke-linejoin="round"/>
<path d="M172.868 100.106C172.868 100.106 167.319 102.042 163.597 105.268C159.876 108.494 153.941 113.312 153.941 113.312C153.941 113.312 157.302 121.315 161.165 124.619L169.431 121.304L172.868 100.106Z" fill="#39B4EF"/>
<mask id="mask2_266_45755" style="mask-type:luminance" maskUnits="userSpaceOnUse" x="153" y="100" width="20" height="25">
<path d="M172.868 100.106C172.868 100.106 167.319 102.042 163.597 105.268C159.876 108.494 153.941 113.312 153.941 113.312C153.941 113.312 157.302 121.315 161.165 124.619L169.431 121.304L172.868 100.106Z" fill="white"/>
</mask>
<g mask="url(#mask2_266_45755)">
<path opacity="0.4" d="M161.114 124.578L164.143 121.885C162.049 121.18 161.8 116.906 162.972 118.138C164.143 119.369 166.131 119.777 166.131 119.777C164.611 115.563 165.226 111.543 165.226 111.543C165.226 111.543 166.238 114.367 166.818 117.208C167.202 119.102 168.616 120.375 169.196 121.05L172.876 100.113C172.876 100.113 167.326 102.049 163.605 105.275C159.883 108.501 153.949 113.319 153.949 113.319C153.949 113.319 157.274 121.245 161.114 124.578Z" fill="white"/>
</g>
<path d="M172.868 100.106C172.868 100.106 167.319 102.042 163.597 105.268C159.876 108.494 153.941 113.312 153.941 113.312C153.941 113.312 157.302 121.315 161.165 124.619L169.431 121.304L172.868 100.106Z" stroke="#002E47" stroke-miterlimit="10" stroke-linecap="round" stroke-linejoin="round"/>
<path d="M169.433 121.304C172.658 129.2 177.699 139.074 177.699 139.074L179.929 150.078C179.929 150.078 188.307 156.465 197.915 153.789C209.18 150.646 211.003 143.525 211.003 143.525L206.713 134.912C205.246 126.637 203.329 107.062 196.732 102.592C190.135 98.1233 178.811 97.7444 174.243 99.5558C170.179 101.166 167.931 102.391 166.824 103.877" fill="#39B4EF"/>
<mask id="mask3_266_45755" style="mask-type:luminance" maskUnits="userSpaceOnUse" x="166" y="98" width="46" height="57">
<path d="M169.433 121.304C172.658 129.2 177.699 139.074 177.699 139.074L179.929 150.078C179.929 150.078 188.307 156.465 197.915 153.789C209.18 150.646 211.003 143.525 211.003 143.525L206.713 134.912C205.246 126.637 203.329 107.062 196.732 102.592C190.135 98.1233 178.811 97.7444 174.243 99.5558C170.179 101.166 167.931 102.391 166.824 103.877" fill="white"/>
</mask>
<g mask="url(#mask3_266_45755)">
<path opacity="0.4" d="M204.542 146.177C194.383 149.457 195.507 147.113 197.827 143.016C199.927 139.311 198.442 134.984 198.472 133.818C198.016 134.717 196.288 137.346 194.147 138.375C191.39 139.701 192.36 140.134 194.78 135.528C197.2 130.923 197.821 125.69 197.821 125.69C195.111 122.997 192.975 116.426 192.975 116.426L201.868 110.986C200.56 107.18 198.898 104.067 196.72 102.599C190.123 98.1294 178.799 97.7505 174.232 99.5619C170.167 101.172 167.919 102.397 166.812 103.883L169.428 121.316C172.652 129.212 177.693 139.086 177.693 139.086L179.923 150.09C179.923 150.09 188.301 156.477 197.909 153.801C209.174 150.658 210.997 143.537 210.997 143.537L210.831 143.212C208.973 144.378 206.867 145.431 204.542 146.177Z" fill="white"/>
</g>
<path d="M169.433 121.304C172.658 129.2 177.699 139.074 177.699 139.074L179.929 150.078C179.929 150.078 188.307 156.465 197.915 153.789C209.18 150.646 211.003 143.525 211.003 143.525L206.713 134.912C205.246 126.637 203.329 107.062 196.732 102.592C190.135 98.1233 178.811 97.7444 174.243 99.5558C170.179 101.166 167.931 102.391 166.824 103.877" stroke="#002E47" stroke-miterlimit="10" stroke-linecap="round" stroke-linejoin="round"/>
<path d="M184.922 101.077C184.922 101.077 182.449 105.671 178.053 105.244C174.396 104.883 174.503 101.935 174.503 101.935C174.503 101.935 175.295 101.332 175.603 100.26C175.698 99.9405 175.745 99.5735 175.716 99.1769C175.656 98.2653 175.195 97.1525 173.929 95.8798C173.911 95.862 173.887 95.8384 173.87 95.8206C173.597 95.5483 173.379 95.2701 173.225 94.9919C171.207 91.4225 178.248 87.421 183.561 90.3747C183.561 90.3747 179.443 93.5535 184.922 101.077Z" fill="white" stroke="#002E47" stroke-miterlimit="10" stroke-linecap="round" stroke-linejoin="round"/>
<path d="M177.16 94.8439C177.16 94.8439 177.059 97.6082 175.716 99.1769C175.657 98.2653 175.196 97.1524 173.93 95.8798C174.64 95.0984 175.711 94.6012 177.16 94.8439Z" fill="#002E47"/>
<path d="M184.397 86.9592C186.391 78.4175 182.261 74.7119 179.557 73.5932C175.226 71.7996 169.594 74.6172 168.316 79.3646C167.038 84.112 168.191 85.1893 168.132 87.1309C168.091 88.4924 167.251 89.1612 168.174 92.5827C168.783 94.838 169.801 98.4547 173.652 97.8036C174.422 97.6734 175.664 97.3715 177.06 96.6967" fill="white"/>
<path d="M184.397 86.9592C186.391 78.4175 182.261 74.7119 179.557 73.5932C175.226 71.7996 169.594 74.6172 168.316 79.3646C167.038 84.112 168.191 85.1893 168.132 87.1309C168.091 88.4924 167.251 89.1612 168.174 92.5827C168.783 94.838 169.801 98.4547 173.652 97.8036C174.422 97.6734 175.664 97.3715 177.06 96.6967" stroke="#002E47" stroke-miterlimit="10" stroke-linecap="round" stroke-linejoin="round"/>
<path d="M173.152 84.183C173.152 84.183 174.756 83.5851 175.608 85.4675" stroke="#002E47" stroke-miterlimit="10" stroke-linecap="round" stroke-linejoin="round"/>
<path d="M167.703 83.1886C167.703 83.1886 169.378 82.8275 170.087 84.041" stroke="#002E47" stroke-miterlimit="10" stroke-linecap="round" stroke-linejoin="round"/>
<path d="M170.52 86.462C170.52 86.462 168.875 89.3152 168.899 89.7059C168.982 90.9253 170.532 90.3748 170.532 90.3748" stroke="#002E47" stroke-miterlimit="10" stroke-linecap="round" stroke-linejoin="round"/>
<path d="M173.469 86.8527C173.469 87.2493 173.646 87.569 173.865 87.569C174.084 87.569 174.262 87.2493 174.262 86.8527C174.262 86.4561 174.084 86.1365 173.865 86.1365C173.646 86.1365 173.469 86.4561 173.469 86.8527Z" fill="#002E47" stroke="#002E47" stroke-miterlimit="10" stroke-linecap="round" stroke-linejoin="round"/>
<path d="M168.898 86.4619C168.898 86.8585 169.076 87.1782 169.295 87.1782C169.514 87.1782 169.691 86.8585 169.691 86.4619C169.691 86.0653 169.514 85.7457 169.295 85.7457C169.076 85.7398 168.898 86.0653 168.898 86.4619Z" fill="#002E47" stroke="#002E47" stroke-miterlimit="10" stroke-linecap="round" stroke-linejoin="round"/>
<path d="M173.468 91.5468C173.468 91.5468 171.723 92.5175 170.09 92.0913" stroke="#002E47" stroke-miterlimit="10" stroke-linecap="round" stroke-linejoin="round"/>
<path d="M173.152 91.8723C173.152 91.8723 172.963 93.1331 171.78 93.2575C170.596 93.3818 170.531 92.1979 170.531 92.1979" stroke="#002E47" stroke-miterlimit="10" stroke-linecap="round" stroke-linejoin="round"/>
<path d="M184.407 76.0557C184.407 76.0557 184.147 71.474 175.609 71.6398C167.072 71.8055 164.581 78.4057 168.9 80.1933C173.225 81.981 175.905 81.1996 175.905 81.1996C175.905 81.1996 174.307 80.7261 172.87 79.116C172.87 79.116 175.858 80.8681 178.396 81.3713C178.396 81.3713 177.419 82.6499 178.396 84.775C179.372 86.9059 178.893 87.8175 178.893 87.8175C178.893 87.8175 182.803 88.9304 182.147 93.1213C182.147 93.1213 185.744 93.0562 187.199 84.775C188.655 76.4937 184.407 76.0557 184.407 76.0557Z" fill="#002E47"/>
<path d="M179.555 88.4568C179.555 88.4568 181.123 85.5385 182.755 86.2489C184.394 86.9592 183.252 90.4517 181.833 91.5882C180.407 92.7247 179.555 91.5882 179.555 91.5882" fill="white"/>
<path d="M179.555 88.4568C179.555 88.4568 181.123 85.5385 182.755 86.2489C184.394 86.9592 183.252 90.4517 181.833 91.5882C180.407 92.7247 179.555 91.5882 179.555 91.5882" stroke="#002E47" stroke-miterlimit="10" stroke-linecap="round" stroke-linejoin="round"/>
<path d="M165.227 111.537C166.179 115.372 166.676 118.397 169.433 121.304" stroke="#002E47" stroke-miterlimit="10" stroke-linecap="round" stroke-linejoin="round"/>
<path d="M164.629 108.482C164.706 109.08 164.812 109.672 164.937 110.264" stroke="#002E47" stroke-miterlimit="10" stroke-linecap="round" stroke-linejoin="round"/>
<path d="M197.832 118.9C197.832 118.9 209.251 131.248 212.055 130.787C214.866 130.325 216.321 125.767 215.706 124.506C215.09 123.251 204.802 111.282 204.802 111.282L197.832 118.9Z" fill="white" stroke="#002E47" stroke-miterlimit="10" stroke-linecap="round" stroke-linejoin="round"/>
<path d="M193.581 107.292C192.469 111.17 192.002 115.343 193.859 118.587C194.788 121.369 200.184 124.027 202.042 126.341C207.858 124.92 210.319 117.533 210.319 117.533C210.319 117.533 206.953 112.756 203.592 107.748C200.226 102.734 193.481 100.852 193.481 100.852" fill="#39B4EF"/>
<mask id="mask4_266_45755" style="mask-type:luminance" maskUnits="userSpaceOnUse" x="192" y="100" width="19" height="27">
<path d="M193.581 107.292C192.469 111.17 192.002 115.343 193.859 118.587C194.788 121.369 200.184 124.027 202.042 126.341C207.858 124.92 210.319 117.533 210.319 117.533C210.319 117.533 206.953 112.756 203.592 107.748C200.226 102.734 193.481 100.852 193.481 100.852" fill="white"/>
</mask>
<g mask="url(#mask4_266_45755)">
<path opacity="0.4" d="M193.581 107.292C192.469 111.17 192.002 115.343 193.859 118.587C194.788 121.369 200.184 124.027 202.042 126.341C207.858 124.92 210.319 117.533 210.319 117.533C210.319 117.533 206.953 112.756 203.592 107.748C200.226 102.734 193.481 100.852 193.481 100.852" fill="white"/>
</g>
<path d="M193.581 107.292C192.469 111.17 192.002 115.343 193.859 118.587C194.788 121.369 200.184 124.027 202.042 126.341C207.858 124.92 210.319 117.533 210.319 117.533C210.319 117.533 206.953 112.756 203.592 107.748C200.226 102.734 193.481 100.852 193.481 100.852" stroke="#002E47" stroke-miterlimit="10" stroke-linecap="round" stroke-linejoin="round"/>
<path d="M137.294 98.1883C137.294 98.1883 135.4 93.7369 134.211 92.3518C133.075 91.0258 131.833 89.9781 131.513 89.9366C130.691 89.836 128.017 91.3277 128.017 91.3277C128.017 91.3277 128.011 92.1623 129.466 92.0439C129.466 92.0439 127.372 93.3462 127.271 94.3762C127.171 95.4003 128.472 96.8505 128.727 97.4188C128.981 97.987 129.478 97.6615 129.478 97.6615C129.478 97.6615 131.738 100.74 133.921 100.953" fill="white"/>
<path d="M137.294 98.1883C137.294 98.1883 135.4 93.7369 134.211 92.3518C133.075 91.0258 131.833 89.9781 131.513 89.9366C130.691 89.836 128.017 91.3277 128.017 91.3277C128.017 91.3277 128.011 92.1623 129.466 92.0439C129.466 92.0439 127.372 93.3462 127.271 94.3762C127.171 95.4003 128.472 96.8505 128.727 97.4188C128.981 97.987 129.478 97.6615 129.478 97.6615C129.478 97.6615 131.738 100.74 133.921 100.953" stroke="#002E47" stroke-miterlimit="10" stroke-linecap="round" stroke-linejoin="round"/>
<path d="M129.473 97.6497C129.473 97.6497 129.727 97.407 129.768 96.815C129.768 96.815 130.674 96.8209 130.721 96.0218C130.721 96.0218 132.052 96.1047 131.496 94.4117" stroke="#002E47" stroke-miterlimit="10" stroke-linecap="round" stroke-linejoin="round"/>
<path d="M130.719 96.016C130.719 96.016 129.21 94.3941 129.121 93.7666" stroke="#002E47" stroke-miterlimit="10" stroke-linecap="round" stroke-linejoin="round"/>
<path d="M129.767 96.8091C129.767 96.8091 128.11 95.3292 128.199 94.6544" stroke="#002E47" stroke-miterlimit="10" stroke-linecap="round" stroke-linejoin="round"/>
<path d="M131.272 91.0377C131.272 91.0377 130.645 91.8605 129.621 91.9019" stroke="#002E47" stroke-miterlimit="10" stroke-linecap="round" stroke-linejoin="round"/>
<path d="M130.902 91.4047C130.902 91.4047 131.334 91.7302 131.671 92.1505" stroke="#002E47" stroke-miterlimit="10" stroke-linecap="round" stroke-linejoin="round"/>
<path d="M194.152 106.067C194.513 105.457 194.992 104.919 195.59 104.528" stroke="#002E47" stroke-miterlimit="10" stroke-linecap="round" stroke-linejoin="round"/>
<path d="M182.484 244.262H195.66L195.376 245.262H182.496L182.484 244.262Z" fill="white" stroke="#002E47" stroke-miterlimit="10" stroke-linecap="round" stroke-linejoin="round"/>
<path d="M186.715 240.361C186.715 240.361 191.04 238.928 193.128 240.722" stroke="#002E47" stroke-miterlimit="10" stroke-linecap="round" stroke-linejoin="round"/>
<path d="M186.715 239.414C186.715 239.414 190.519 238.212 193.128 239.816" stroke="#002E47" stroke-miterlimit="10" stroke-linecap="round" stroke-linejoin="round"/>
<path d="M186.938 238.484C186.938 238.484 190.517 237.135 193.126 238.982" stroke="#002E47" stroke-miterlimit="10" stroke-linecap="round" stroke-linejoin="round"/>
<path d="M184.1 240.479L184.526 240.9C184.644 241.018 184.668 241.201 184.573 241.343C184.266 241.823 183.632 242.983 183.692 244.262H183.059C183.059 244.262 183.278 242.563 183.97 241.355L183.644 241.03L184.1 240.479Z" fill="#002E47"/>
<path d="M199.166 132.71C198.421 133.752 188.292 145.988 183.559 145.325" stroke="#002E47" stroke-miterlimit="10" stroke-linecap="round" stroke-linejoin="round"/>
<path d="M172.871 122.251C172.871 122.251 178.527 130.976 187.503 130.798" stroke="#002E47" stroke-miterlimit="10" stroke-linecap="round" stroke-linejoin="round"/>
<g opacity="0.2">
<path d="M187.5 165.38C188.015 165.498 197.96 169.127 199.954 172.755" stroke="white" stroke-miterlimit="10" stroke-linecap="round" stroke-linejoin="round"/>
<path d="M189.918 170.648C189.421 171.352 185.197 184.582 183.386 188.211C181.576 191.839 175.494 208.118 174.085 209.053C174.085 209.053 172.216 218.536 171.044 220.057C169.873 221.579 163.82 233.707 163.82 233.707" stroke="white" stroke-miterlimit="10" stroke-linecap="round" stroke-linejoin="round"/>
<path d="M157.035 233.708L164.378 235.282" stroke="white" stroke-miterlimit="10" stroke-linecap="round" stroke-linejoin="round"/>
<path d="M186.938 234.495C186.938 234.495 192.813 233.968 194.806 236.206" stroke="white" stroke-miterlimit="10" stroke-linecap="round" stroke-linejoin="round"/>
<path d="M193.73 172.169C194.222 174.981 201.593 190.549 203.351 188.797" stroke="white" stroke-miterlimit="10" stroke-linecap="round" stroke-linejoin="round"/>
<path d="M190.872 173.578C190.872 173.578 190.008 169.713 190.825 167.961C191.138 167.292 184.506 169.6 182.281 169.073" stroke="white" stroke-miterlimit="10" stroke-linecap="round" stroke-linejoin="round"/>
<path d="M189.919 154.441C189.919 154.441 191.079 157.767 191.363 158.821C191.647 159.875 189.251 163.971 189.919 164.794" stroke="white" stroke-miterlimit="10" stroke-linecap="round" stroke-linejoin="round"/>
<path d="M206.043 151.327C206.043 151.327 207.682 153.837 207.682 155.684C207.682 157.531 209.906 158.353 209.906 158.353" stroke="white" stroke-miterlimit="10" stroke-linecap="round" stroke-linejoin="round"/>
<path d="M209.532 148.586C209.532 148.586 211.538 156.128 209.899 165.38C208.26 174.632 205.568 193.479 204.515 198.28C203.462 203.08 201.006 213.854 201.006 215.375C201.006 216.896 198.539 225.562 198.539 225.562" stroke="white" stroke-miterlimit="10" stroke-linecap="round" stroke-linejoin="round"/>
<path d="M199.137 212.451C198.788 212.451 192.233 218.773 190.594 218.891" stroke="white" stroke-miterlimit="10" stroke-linecap="round" stroke-linejoin="round"/>
<path d="M170.459 208.586C170.11 208.704 164.608 211.397 164.371 210.574" stroke="white" stroke-miterlimit="10" stroke-linecap="round" stroke-linejoin="round"/>
</g>
<path d="M198.021 159.721C196.572 159.839 195.3 158.756 195.181 157.306L193.88 141.169C193.767 139.784 194.755 138.571 196.11 138.363L196.613 136.67C196.708 136.351 196.986 136.126 197.317 136.102L204.015 135.564C204.346 135.534 204.66 135.717 204.802 136.013L205.565 137.582L216.782 136.676C217.936 136.582 218.977 137.251 219.415 138.263" fill="#39B4EF"/>
<mask id="mask5_266_45755" style="mask-type:luminance" maskUnits="userSpaceOnUse" x="193" y="135" width="27" height="25">
<path d="M198.021 159.721C196.572 159.839 195.3 158.756 195.181 157.306L193.88 141.169C193.767 139.784 194.755 138.571 196.11 138.363L196.613 136.67C196.708 136.351 196.986 136.126 197.317 136.102L204.015 135.564C204.346 135.534 204.66 135.717 204.802 136.013L205.565 137.582L216.782 136.676C217.936 136.582 218.977 137.251 219.415 138.263" fill="white"/>
</mask>
<g mask="url(#mask5_266_45755)">
<path opacity="0.3" d="M198.021 159.721C196.572 159.839 195.3 158.756 195.181 157.306L193.88 141.169C193.767 139.784 194.755 138.571 196.11 138.363L196.613 136.67C196.708 136.351 196.986 136.126 197.317 136.102L204.015 135.564C204.346 135.534 204.66 135.717 204.802 136.013L205.565 137.582L216.782 136.676C217.936 136.582 218.977 137.251 219.415 138.263" fill="black" fill-opacity="0.7"/>
</g>
<path d="M198.021 159.721C196.572 159.839 195.3 158.756 195.181 157.306L193.88 141.169C193.767 139.784 194.755 138.571 196.11 138.363L196.613 136.67C196.708 136.351 196.986 136.126 197.317 136.102L204.015 135.564C204.346 135.534 204.66 135.717 204.802 136.013L205.565 137.582L216.782 136.676C217.936 136.582 218.977 137.251 219.415 138.263" stroke="#002E47" stroke-miterlimit="10" stroke-linecap="round" stroke-linejoin="round"/>
<path d="M198.022 159.721L218.51 158.069C219.96 157.951 221.226 156.672 221.344 155.204L222.474 140.707C222.587 139.239 221.504 138.15 220.055 138.269L199.566 139.92C198.116 140.039 196.85 141.317 196.732 142.785L195.602 157.282C195.489 158.744 196.572 159.833 198.022 159.721Z" fill="#39B4EF" stroke="#002E47" stroke-miterlimit="10" stroke-linecap="round" stroke-linejoin="round"/>
<path d="M213.87 122.144C215.988 124.181 217.083 125.773 216.923 132.391C216.769 139.009 215.574 148.58 214.787 155.05L209.16 155.909C209.16 155.909 210.042 145.727 209.16 139.021C208.202 131.71 208.959 127.608 209.841 127.081" fill="white"/>
<path d="M213.87 122.144C215.988 124.181 217.083 125.773 216.923 132.391C216.769 139.009 215.574 148.58 214.787 155.05L209.16 155.909C209.16 155.909 210.042 145.727 209.16 139.021C208.202 131.71 208.959 127.608 209.841 127.081" stroke="#002E47" stroke-miterlimit="10" stroke-linecap="round" stroke-linejoin="round"/>
<path d="M209.487 150.273C209.368 152.168 205.907 152.748 205.653 153.943C205.57 154.334 204.381 156.95 204.381 156.95C204.381 156.95 204.298 158.353 204.541 159.194C204.836 160.212 205.753 159.62 205.753 159.62L206.043 160.348C206.511 161.52 207.392 160.437 208.877 161.165C210.368 161.899 211.09 160.928 211.664 161.165C212.244 161.402 214.113 160.816 214.463 160.111C214.812 159.407 214.255 156.293 214.788 155.056C215.32 153.819 215.332 151.321 215.332 150.279" fill="white"/>
<path d="M209.487 150.273C209.368 152.168 205.907 152.748 205.653 153.943C205.57 154.334 204.381 156.95 204.381 156.95C204.381 156.95 204.298 158.353 204.541 159.194C204.836 160.212 205.753 159.62 205.753 159.62L206.043 160.348C206.511 161.52 207.392 160.437 208.877 161.165C210.368 161.899 211.09 160.928 211.664 161.165C212.244 161.402 214.113 160.816 214.463 160.111C214.812 159.407 214.255 156.293 214.788 155.056C215.32 153.819 215.332 151.321 215.332 150.279" stroke="#002E47" stroke-miterlimit="10" stroke-linecap="round" stroke-linejoin="round"/>
<path d="M205.746 159.62C205.746 159.62 205.77 157.714 206.977 156.95L205.746 159.62Z" fill="white"/>
<path d="M205.746 159.62C205.746 159.62 205.77 157.714 206.977 156.95" stroke="#002E47" stroke-miterlimit="10" stroke-linecap="round" stroke-linejoin="round"/>
<path d="M129.033 90.8304H76.4062V101.71H129.033V90.8304Z" fill="#002E47" stroke="#B3C7EB" stroke-miterlimit="10" stroke-linecap="round" stroke-linejoin="round"/>
<path d="M129.033 104.972H76.4062V115.852H129.033V104.972Z" fill="#002E47" stroke="#B3C7EB" stroke-miterlimit="10" stroke-linecap="round" stroke-linejoin="round"/>
<path d="M129.033 119.113H76.4062V129.993H129.033V119.113Z" fill="#002E47" stroke="#B3C7EB" stroke-miterlimit="10" stroke-linecap="round" stroke-linejoin="round"/>
<path d="M129.033 133.255H76.4062V144.135H129.033V133.255Z" fill="#002E47" stroke="#B3C7EB" stroke-miterlimit="10" stroke-linecap="round" stroke-linejoin="round"/>
<path d="M129.033 147.396H76.4062V158.276H129.033V147.396Z" fill="#002E47" stroke="#B3C7EB" stroke-miterlimit="10" stroke-linecap="round" stroke-linejoin="round"/>
<path d="M129.483 102.93H87.316C86.6652 102.93 86.1445 102.403 86.1445 101.758V90.7831C86.1445 90.132 86.6711 89.6111 87.316 89.6111H129.483C130.134 89.6111 130.654 90.1379 130.654 90.7831V101.758C130.654 102.403 130.128 102.93 129.483 102.93Z" fill="#002E47" stroke="#B3C7EB" stroke-miterlimit="10" stroke-linecap="round" stroke-linejoin="round"/>
<path d="M129.483 117.071H87.316C86.6652 117.071 86.1445 116.544 86.1445 115.899V104.925C86.1445 104.273 86.6711 103.753 87.316 103.753H129.483C130.134 103.753 130.654 104.279 130.654 104.925V115.899C130.654 116.544 130.128 117.071 129.483 117.071Z" fill="#002E47" stroke="#B3C7EB" stroke-miterlimit="10" stroke-linecap="round" stroke-linejoin="round"/>
<path d="M129.483 131.213H87.316C86.6652 131.213 86.1445 130.686 86.1445 130.041V119.066C86.1445 118.415 86.6711 117.894 87.316 117.894H129.483C130.134 117.894 130.654 118.421 130.654 119.066V130.041C130.654 130.686 130.128 131.213 129.483 131.213Z" fill="#002E47" stroke="#B3C7EB" stroke-miterlimit="10" stroke-linecap="round" stroke-linejoin="round"/>
<path d="M129.483 145.354H87.316C86.6652 145.354 86.1445 144.827 86.1445 144.182V133.208C86.1445 132.556 86.6711 132.036 87.316 132.036H129.483C130.134 132.036 130.654 132.562 130.654 133.208V144.182C130.654 144.827 130.128 145.354 129.483 145.354Z" fill="#002E47" stroke="#B3C7EB" stroke-miterlimit="10" stroke-linecap="round" stroke-linejoin="round"/>
<path d="M129.483 159.496H87.316C86.6652 159.496 86.1445 158.969 86.1445 158.324V147.349C86.1445 146.698 86.6711 146.177 87.316 146.177H129.483C130.134 146.177 130.654 146.704 130.654 147.349V158.324C130.654 158.975 130.128 159.496 129.483 159.496Z" fill="#002E47" stroke="#B3C7EB" stroke-miterlimit="10" stroke-linecap="round" stroke-linejoin="round"/>
<path d="M134.849 98.3541C134.849 98.3541 131.796 96.9867 131.908 94.8261C131.944 94.1217 131.494 93.222 131.494 93.222C131.494 93.222 128.536 92.5235 128.95 91.3396L132.997 91.7244C132.997 91.7244 135.05 92.8431 135.931 95.2878" fill="white"/>
<path d="M134.849 98.3541C134.849 98.3541 131.796 96.9867 131.908 94.8261C131.944 94.1217 131.494 93.222 131.494 93.222C131.494 93.222 128.536 92.5235 128.95 91.3396L132.997 91.7244C132.997 91.7244 135.05 92.8431 135.931 95.2878" stroke="#002E47" stroke-miterlimit="10" stroke-linecap="round" stroke-linejoin="round"/>
<path d="M82.3723 89.3447H20.3203V245.262H82.3723V89.3447Z" fill="#E2EDFF" stroke="#B3C7EB" stroke-miterlimit="10" stroke-linecap="round" stroke-linejoin="round"/>
<path d="M60.9241 102.93H18.7574C18.1066 102.93 17.5859 102.403 17.5859 101.758V90.7831C17.5859 90.132 18.1125 89.6111 18.7574 89.6111H60.9241C61.5749 89.6111 62.0956 90.1379 62.0956 90.7831V101.758C62.1015 102.403 61.5749 102.93 60.9241 102.93Z" fill="#002E47" stroke="#B3C7EB" stroke-miterlimit="10" stroke-linecap="round" stroke-linejoin="round"/>
<path d="M83.928 102.93H41.7613C41.1105 102.93 40.5898 102.403 40.5898 101.758V90.7831C40.5898 90.132 41.1164 89.6111 41.7613 89.6111H83.928C84.5788 89.6111 85.0995 90.1379 85.0995 90.7831V101.758C85.0995 102.403 84.5729 102.93 83.928 102.93Z" fill="#B3C7EB" stroke="#002E47" stroke-miterlimit="10" stroke-linecap="round" stroke-linejoin="round"/>
<path d="M41.7618 100.941L41.7677 91.5941C41.7677 91.1501 42.1286 90.7891 42.5723 90.7891L83.1179 90.8009C83.5617 90.8009 83.9226 91.162 83.9226 91.6119L83.9167 100.953C83.9167 101.397 83.5558 101.758 83.112 101.758H42.5664C42.1227 101.746 41.7559 101.385 41.7618 100.941Z" fill="#002E47"/>
<path d="M67.4018 101.255H45.1677C44.7358 101.255 44.3867 100.905 44.3867 100.473V98.212C44.3867 97.7799 44.7358 97.4307 45.1677 97.4307H67.4018C67.8337 97.4307 68.1828 97.7799 68.1828 98.212V100.473C68.1828 100.905 67.8337 101.255 67.4018 101.255Z" fill="#39B4EF" stroke="#002E47" stroke-miterlimit="10" stroke-linecap="round" stroke-linejoin="round"/>
<path d="M72.0659 97.04H49.8318C49.3999 97.04 49.0508 96.6908 49.0508 96.2586V93.9974C49.0508 93.5653 49.3999 93.2161 49.8318 93.2161H72.0659C72.4978 93.2161 72.8468 93.5653 72.8468 93.9974V96.2586C72.8409 96.6908 72.4919 97.04 72.0659 97.04Z" fill="#39B4EF" stroke="#002E47" stroke-miterlimit="10" stroke-linecap="round" stroke-linejoin="round"/>
<path d="M60.9241 173.643H18.7574C18.1066 173.643 17.5859 173.116 17.5859 172.471V161.496C17.5859 160.845 18.1125 160.324 18.7574 160.324H60.9241C61.5749 160.324 62.0956 160.851 62.0956 161.496V172.471C62.1015 173.116 61.5749 173.643 60.9241 173.643Z" fill="#002E47" stroke="#B3C7EB" stroke-miterlimit="10" stroke-linecap="round" stroke-linejoin="round"/>
<path d="M83.928 173.643H41.7613C41.1105 173.643 40.5898 173.116 40.5898 172.471V161.496C40.5898 160.845 41.1164 160.324 41.7613 160.324H83.928C84.5788 160.324 85.0995 160.851 85.0995 161.496V172.471C85.0995 173.116 84.5729 173.643 83.928 173.643Z" fill="#002E47" stroke="#B3C7EB" stroke-miterlimit="10" stroke-linecap="round" stroke-linejoin="round"/>
<path d="M72.8409 165.924H46.418V168.037H72.8409V165.924Z" fill="#E2EDFF" stroke="#B3C7EB" stroke-miterlimit="10" stroke-linecap="round" stroke-linejoin="round"/>
<path d="M77.4777 166.984C77.4777 167.576 76.9985 168.055 76.4068 168.055C75.8152 168.055 75.3359 167.576 75.3359 166.984C75.3359 166.392 75.8152 165.912 76.4068 165.912C76.9985 165.912 77.4777 166.392 77.4777 166.984Z" fill="#39B4EF" stroke="#B3C7EB" stroke-miterlimit="10" stroke-linecap="round" stroke-linejoin="round"/>
<path d="M81.2902 166.984C81.2902 167.576 80.811 168.055 80.2193 168.055C79.6277 168.055 79.1484 167.576 79.1484 166.984C79.1484 166.392 79.6277 165.912 80.2193 165.912C80.811 165.912 81.2902 166.392 81.2902 166.984Z" fill="#E2EDFF" stroke="#B3C7EB" stroke-miterlimit="10" stroke-linecap="round" stroke-linejoin="round"/>
<path d="M62.8426 166.635H47.3828V167.339H62.8426V166.635Z" fill="#39B4EF"/>
<path d="M60.9241 187.785H18.7574C18.1066 187.785 17.5859 187.258 17.5859 186.613V175.638C17.5859 174.987 18.1125 174.466 18.7574 174.466H60.9241C61.5749 174.466 62.0956 174.993 62.0956 175.638V186.613C62.1015 187.258 61.5749 187.785 60.9241 187.785Z" fill="#002E47" stroke="#B3C7EB" stroke-miterlimit="10" stroke-linecap="round" stroke-linejoin="round"/>
<path d="M83.928 187.785H41.7613C41.1105 187.785 40.5898 187.258 40.5898 186.613V175.638C40.5898 174.987 41.1164 174.466 41.7613 174.466H83.928C84.5788 174.466 85.0995 174.993 85.0995 175.638V186.613C85.0995 187.258 84.5729 187.785 83.928 187.785Z" fill="#002E47" stroke="#B3C7EB" stroke-miterlimit="10" stroke-linecap="round" stroke-linejoin="round"/>
<path d="M72.8409 180.066H46.418V182.179H72.8409V180.066Z" fill="#E2EDFF" stroke="#B3C7EB" stroke-miterlimit="10" stroke-linecap="round" stroke-linejoin="round"/>
<path d="M76.4068 182.197C76.9982 182.197 77.4777 181.717 77.4777 181.125C77.4777 180.534 76.9982 180.054 76.4068 180.054C75.8154 180.054 75.3359 180.534 75.3359 181.125C75.3359 181.717 75.8154 182.197 76.4068 182.197Z" fill="#39B4EF" stroke="#B3C7EB" stroke-miterlimit="10" stroke-linecap="round" stroke-linejoin="round"/>
<path d="M81.2902 181.125C81.2902 181.717 80.811 182.197 80.2193 182.197C79.6277 182.197 79.1484 181.717 79.1484 181.125C79.1484 180.533 79.6277 180.054 80.2193 180.054C80.811 180.054 81.2902 180.533 81.2902 181.125Z" fill="#E2EDFF" stroke="#B3C7EB" stroke-miterlimit="10" stroke-linecap="round" stroke-linejoin="round"/>
<path d="M62.8426 180.776H47.3828V181.474H62.8426V180.776Z" fill="#39B4EF"/>
<path d="M60.9241 201.926H18.7574C18.1066 201.926 17.5859 201.399 17.5859 200.754V189.779C17.5859 189.128 18.1125 188.607 18.7574 188.607H60.9241C61.5749 188.607 62.0956 189.134 62.0956 189.779V200.754C62.1015 201.405 61.5749 201.926 60.9241 201.926Z" fill="#002E47" stroke="#B3C7EB" stroke-miterlimit="10" stroke-linecap="round" stroke-linejoin="round"/>
<path d="M83.928 201.926H41.7613C41.1105 201.926 40.5898 201.399 40.5898 200.754V189.779C40.5898 189.128 41.1164 188.607 41.7613 188.607H83.928C84.5788 188.607 85.0995 189.134 85.0995 189.779V200.754C85.0995 201.405 84.5729 201.926 83.928 201.926Z" fill="#002E47" stroke="#B3C7EB" stroke-miterlimit="10" stroke-linecap="round" stroke-linejoin="round"/>
<path d="M72.8409 194.207H46.418V196.32H72.8409V194.207Z" fill="#E2EDFF" stroke="#B3C7EB" stroke-miterlimit="10" stroke-linecap="round" stroke-linejoin="round"/>
<path d="M76.4068 196.338C76.9982 196.338 77.4777 195.858 77.4777 195.267C77.4777 194.675 76.9982 194.195 76.4068 194.195C75.8154 194.195 75.3359 194.675 75.3359 195.267C75.3359 195.858 75.8154 196.338 76.4068 196.338Z" fill="#39B4EF" stroke="#B3C7EB" stroke-miterlimit="10" stroke-linecap="round" stroke-linejoin="round"/>
<path d="M81.2902 195.267C81.2902 195.859 80.811 196.338 80.2193 196.338C79.6277 196.338 79.1484 195.859 79.1484 195.267C79.1484 194.675 79.6277 194.195 80.2193 194.195C80.811 194.201 81.2902 194.675 81.2902 195.267Z" fill="#E2EDFF" stroke="#B3C7EB" stroke-miterlimit="10" stroke-linecap="round" stroke-linejoin="round"/>
<path d="M62.8426 194.917H47.3828V195.616H62.8426V194.917Z" fill="#39B4EF"/>
<path d="M60.9241 216.068H18.7574C18.1066 216.068 17.5859 215.541 17.5859 214.896V203.921C17.5859 203.27 18.1125 202.749 18.7574 202.749H60.9241C61.5749 202.749 62.0956 203.276 62.0956 203.921V214.896C62.1015 215.547 61.5749 216.068 60.9241 216.068Z" fill="#002E47" stroke="#B3C7EB" stroke-miterlimit="10" stroke-linecap="round" stroke-linejoin="round"/>
<path d="M83.928 216.068H41.7613C41.1105 216.068 40.5898 215.541 40.5898 214.896V203.921C40.5898 203.27 41.1164 202.749 41.7613 202.749H83.928C84.5788 202.749 85.0995 203.276 85.0995 203.921V214.896C85.0995 215.547 84.5729 216.068 83.928 216.068Z" fill="#002E47" stroke="#B3C7EB" stroke-miterlimit="10" stroke-linecap="round" stroke-linejoin="round"/>
<path d="M72.8409 208.349H46.418V210.462H72.8409V208.349Z" fill="#E2EDFF" stroke="#B3C7EB" stroke-miterlimit="10" stroke-linecap="round" stroke-linejoin="round"/>
<path d="M77.4777 209.408C77.4777 210 76.9985 210.48 76.4068 210.48C75.8152 210.48 75.3359 210 75.3359 209.408C75.3359 208.816 75.8152 208.337 76.4068 208.337C76.9985 208.343 77.4777 208.822 77.4777 209.408Z" fill="#39B4EF" stroke="#B3C7EB" stroke-miterlimit="10" stroke-linecap="round" stroke-linejoin="round"/>
<path d="M81.2902 209.408C81.2902 210 80.811 210.48 80.2193 210.48C79.6277 210.48 79.1484 210 79.1484 209.408C79.1484 208.816 79.6277 208.337 80.2193 208.337C80.811 208.343 81.2902 208.822 81.2902 209.408Z" fill="#E2EDFF" stroke="#B3C7EB" stroke-miterlimit="10" stroke-linecap="round" stroke-linejoin="round"/>
<path d="M62.8426 209.059H47.3828V209.763H62.8426V209.059Z" fill="#39B4EF"/>
<path d="M60.9241 230.215H18.7574C18.1066 230.215 17.5859 229.688 17.5859 229.043V218.068C17.5859 217.417 18.1125 216.896 18.7574 216.896H60.9241C61.5749 216.896 62.0956 217.423 62.0956 218.068V229.043C62.1015 229.688 61.5749 230.215 60.9241 230.215Z" fill="#002E47" stroke="#B3C7EB" stroke-miterlimit="10" stroke-linecap="round" stroke-linejoin="round"/>
<path d="M83.928 230.215H41.7613C41.1105 230.215 40.5898 229.688 40.5898 229.043V218.068C40.5898 217.417 41.1164 216.896 41.7613 216.896H83.928C84.5788 216.896 85.0995 217.423 85.0995 218.068V229.043C85.0995 229.688 84.5729 230.215 83.928 230.215Z" fill="#002E47" stroke="#B3C7EB" stroke-miterlimit="10" stroke-linecap="round" stroke-linejoin="round"/>
<path d="M72.8409 222.496H46.418V224.609H72.8409V222.496Z" fill="#E2EDFF" stroke="#B3C7EB" stroke-miterlimit="10" stroke-linecap="round" stroke-linejoin="round"/>
<path d="M76.4068 224.621C76.9982 224.621 77.4777 224.141 77.4777 223.55C77.4777 222.958 76.9982 222.478 76.4068 222.478C75.8154 222.478 75.3359 222.958 75.3359 223.55C75.3359 224.141 75.8154 224.621 76.4068 224.621Z" fill="#39B4EF" stroke="#B3C7EB" stroke-miterlimit="10" stroke-linecap="round" stroke-linejoin="round"/>
<path d="M81.2902 223.55C81.2902 224.142 80.811 224.621 80.2193 224.621C79.6277 224.621 79.1484 224.142 79.1484 223.55C79.1484 222.958 79.6277 222.478 80.2193 222.478C80.811 222.484 81.2902 222.964 81.2902 223.55Z" fill="#E2EDFF" stroke="#B3C7EB" stroke-miterlimit="10" stroke-linecap="round" stroke-linejoin="round"/>
<path d="M62.8426 223.2H47.3828V223.899H62.8426V223.2Z" fill="#39B4EF"/>
<path d="M60.9241 244.357H18.7574C18.1066 244.357 17.5859 243.83 17.5859 243.184V232.21C17.5859 231.559 18.1125 231.038 18.7574 231.038H60.9241C61.5749 231.038 62.0956 231.565 62.0956 232.21V243.184C62.1015 243.83 61.5749 244.357 60.9241 244.357Z" fill="#002E47" stroke="#B3C7EB" stroke-miterlimit="10" stroke-linecap="round" stroke-linejoin="round"/>
<path d="M83.928 244.357H41.7613C41.1105 244.357 40.5898 243.83 40.5898 243.184V232.21C40.5898 231.559 41.1164 231.038 41.7613 231.038H83.928C84.5788 231.038 85.0995 231.565 85.0995 232.21V243.184C85.0995 243.83 84.5729 244.357 83.928 244.357Z" fill="#002E47" stroke="#B3C7EB" stroke-miterlimit="10" stroke-linecap="round" stroke-linejoin="round"/>
<path d="M72.8409 236.638H46.418V238.751H72.8409V236.638Z" fill="#E2EDFF" stroke="#B3C7EB" stroke-miterlimit="10" stroke-linecap="round" stroke-linejoin="round"/>
<path d="M76.4068 238.769C76.9982 238.769 77.4777 238.289 77.4777 237.697C77.4777 237.105 76.9982 236.626 76.4068 236.626C75.8154 236.626 75.3359 237.105 75.3359 237.697C75.3359 238.289 75.8154 238.769 76.4068 238.769Z" fill="#39B4EF" stroke="#B3C7EB" stroke-miterlimit="10" stroke-linecap="round" stroke-linejoin="round"/>
<path d="M81.2902 237.697C81.2902 238.289 80.811 238.769 80.2193 238.769C79.6277 238.769 79.1484 238.289 79.1484 237.697C79.1484 237.105 79.6277 236.626 80.2193 236.626C80.811 236.626 81.2902 237.105 81.2902 237.697Z" fill="#E2EDFF" stroke="#B3C7EB" stroke-miterlimit="10" stroke-linecap="round" stroke-linejoin="round"/>
<path d="M62.8426 237.342H47.3828V238.041H62.8426V237.342Z" fill="#39B4EF"/>
<path d="M60.9241 159.502H18.7574C18.1066 159.502 17.5859 158.975 17.5859 158.33V147.355C17.5859 146.704 18.1125 146.183 18.7574 146.183H60.9241C61.5749 146.183 62.0956 146.71 62.0956 147.355V158.33C62.1015 158.975 61.5749 159.502 60.9241 159.502Z" fill="#002E47" stroke="#B3C7EB" stroke-miterlimit="10" stroke-linecap="round" stroke-linejoin="round"/>
<path d="M83.928 159.502H41.7613C41.1105 159.502 40.5898 158.975 40.5898 158.33V147.355C40.5898 146.704 41.1164 146.183 41.7613 146.183H83.928C84.5788 146.183 85.0995 146.71 85.0995 147.355V158.33C85.0995 158.975 84.5729 159.502 83.928 159.502Z" fill="#B3C7EB" stroke="#002E47" stroke-miterlimit="10" stroke-linecap="round" stroke-linejoin="round"/>
<path d="M41.7618 157.507L41.7677 148.16C41.7677 147.716 42.1286 147.355 42.5723 147.355L83.1179 147.367C83.5617 147.367 83.9226 147.728 83.9226 148.178L83.9167 157.519C83.9167 157.963 83.5558 158.324 83.112 158.324H42.5664C42.1227 158.318 41.7559 157.957 41.7618 157.507Z" fill="#002E47"/>
<path d="M67.4018 157.827H45.1677C44.7358 157.827 44.3867 157.477 44.3867 157.045V154.784C44.3867 154.352 44.7358 154.003 45.1677 154.003H67.4018C67.8337 154.003 68.1828 154.352 68.1828 154.784V157.045C68.1828 157.477 67.8337 157.827 67.4018 157.827Z" fill="#39B4EF" stroke="#002E47" stroke-miterlimit="10" stroke-linecap="round" stroke-linejoin="round"/>
<path d="M80.5435 157.827H70.1364C69.7045 157.827 69.3555 157.477 69.3555 157.045V154.784C69.3555 154.352 69.7045 154.003 70.1364 154.003H80.5376C80.9695 154.003 81.3186 154.352 81.3186 154.784V157.045C81.3245 157.477 80.9695 157.827 80.5435 157.827Z" fill="#39B4EF" stroke="#002E47" stroke-miterlimit="10" stroke-linecap="round" stroke-linejoin="round"/>
<path d="M58.1314 153.967H47.7302C47.2983 153.967 46.9492 153.618 46.9492 153.186V150.924C46.9492 150.492 47.2983 150.143 47.7302 150.143H58.1314C58.5633 150.143 58.9123 150.492 58.9123 150.924V153.186C58.9123 153.618 58.5633 153.967 58.1314 153.967Z" fill="#39B4EF" stroke="#002E47" stroke-miterlimit="10" stroke-linecap="round" stroke-linejoin="round"/>
<path d="M60.9241 145.36H18.7574C18.1066 145.36 17.5859 144.833 17.5859 144.188V133.214C17.5859 132.562 18.1125 132.042 18.7574 132.042H60.9241C61.5749 132.042 62.0956 132.568 62.0956 133.214V144.188C62.1015 144.833 61.5749 145.36 60.9241 145.36Z" fill="#002E47" stroke="#B3C7EB" stroke-miterlimit="10" stroke-linecap="round" stroke-linejoin="round"/>
<path d="M83.928 145.36H41.7613C41.1105 145.36 40.5898 144.833 40.5898 144.188V133.214C40.5898 132.562 41.1164 132.042 41.7613 132.042H83.928C84.5788 132.042 85.0995 132.568 85.0995 133.214V144.188C85.0995 144.833 84.5729 145.36 83.928 145.36Z" fill="#B3C7EB" stroke="#002E47" stroke-miterlimit="10" stroke-linecap="round" stroke-linejoin="round"/>
<path d="M41.7618 143.365L41.7677 134.019C41.7677 133.575 42.1286 133.214 42.5723 133.214L83.1179 133.225C83.5617 133.225 83.9226 133.586 83.9226 134.036L83.9167 143.377C83.9167 143.821 83.5558 144.182 83.112 144.182H42.5664C42.1227 144.176 41.7559 143.815 41.7618 143.365Z" fill="#002E47"/>
<path d="M67.7623 143.679H57.3552C56.9233 143.679 56.5742 143.33 56.5742 142.898V140.636C56.5742 140.204 56.9233 139.855 57.3552 139.855H67.7563C68.1883 139.855 68.5373 140.204 68.5373 140.636V142.898C68.5432 143.33 68.1942 143.679 67.7623 143.679Z" fill="#39B4EF" stroke="#002E47" stroke-miterlimit="10" stroke-linecap="round" stroke-linejoin="round"/>
<path d="M80.5435 143.679H70.1364C69.7045 143.679 69.3555 143.33 69.3555 142.898V140.636C69.3555 140.204 69.7045 139.855 70.1364 139.855H80.5376C80.9695 139.855 81.3186 140.204 81.3186 140.636V142.898C81.3245 143.33 80.9695 143.679 80.5435 143.679Z" fill="#39B4EF" stroke="#002E47" stroke-miterlimit="10" stroke-linecap="round" stroke-linejoin="round"/>
<path d="M55.2095 143.679H44.8083C44.3764 143.679 44.0273 143.33 44.0273 142.898V140.636C44.0273 140.204 44.3764 139.855 44.8083 139.855H55.2095C55.6414 139.855 55.9904 140.204 55.9904 140.636V142.898C55.9904 143.33 55.6355 143.679 55.2095 143.679Z" fill="#39B4EF" stroke="#002E47" stroke-miterlimit="10" stroke-linecap="round" stroke-linejoin="round"/>
<path d="M64.5688 139.583H54.1677C53.7358 139.583 53.3867 139.234 53.3867 138.801V136.54C53.3867 136.108 53.7358 135.759 54.1677 135.759H64.5688C65.0008 135.759 65.3498 136.108 65.3498 136.54V138.801C65.3498 139.234 65.0008 139.583 64.5688 139.583Z" fill="#39B4EF" stroke="#002E47" stroke-miterlimit="10" stroke-linecap="round" stroke-linejoin="round"/>
<path d="M60.9241 131.219H18.7574C18.1066 131.219 17.5859 130.692 17.5859 130.047V119.072C17.5859 118.421 18.1125 117.9 18.7574 117.9H60.9241C61.5749 117.9 62.0956 118.427 62.0956 119.072V130.047C62.1015 130.692 61.5749 131.219 60.9241 131.219Z" fill="#002E47" stroke="#B3C7EB" stroke-miterlimit="10" stroke-linecap="round" stroke-linejoin="round"/>
<path d="M83.928 131.219H41.7613C41.1105 131.219 40.5898 130.692 40.5898 130.047V119.072C40.5898 118.421 41.1164 117.9 41.7613 117.9H83.928C84.5788 117.9 85.0995 118.427 85.0995 119.072V130.047C85.0995 130.692 84.5729 131.219 83.928 131.219Z" fill="#B3C7EB" stroke="#002E47" stroke-miterlimit="10" stroke-linecap="round" stroke-linejoin="round"/>
<path d="M41.7618 129.224L41.7677 119.877C41.7677 119.433 42.1286 119.072 42.5723 119.072L83.1179 119.084C83.5617 119.084 83.9226 119.445 83.9226 119.895L83.9167 129.236C83.9167 129.68 83.5558 130.041 83.112 130.041H42.5664C42.1227 130.035 41.7559 129.668 41.7618 129.224Z" fill="#002E47"/>
<path d="M75.0932 129.538H52.8591C52.4272 129.538 52.0781 129.188 52.0781 128.756V126.495C52.0781 126.063 52.4272 125.714 52.8591 125.714H75.0932C75.5251 125.714 75.8742 126.063 75.8742 126.495V128.756C75.8742 129.188 75.5251 129.538 75.0932 129.538Z" fill="#39B4EF" stroke="#002E47" stroke-miterlimit="10" stroke-linecap="round" stroke-linejoin="round"/>
<path d="M72.0659 125.323H49.8318C49.3999 125.323 49.0508 124.974 49.0508 124.542V124.648C49.0508 124.216 49.3999 123.867 49.8318 123.867H72.0659C72.4978 123.867 72.8468 124.216 72.8468 124.648V124.542C72.8409 124.974 72.4919 125.323 72.0659 125.323Z" fill="#39B4EF" stroke="#002E47" stroke-miterlimit="10" stroke-linecap="round" stroke-linejoin="round"/>
<path d="M60.9241 117.071H18.7574C18.1066 117.071 17.5859 116.544 17.5859 115.899V104.925C17.5859 104.273 18.1125 103.753 18.7574 103.753H60.9241C61.5749 103.753 62.0956 104.279 62.0956 104.925V115.899C62.1015 116.55 61.5749 117.071 60.9241 117.071Z" fill="#002E47" stroke="#B3C7EB" stroke-miterlimit="10" stroke-linecap="round" stroke-linejoin="round"/>
<path d="M83.928 117.071H41.7613C41.1105 117.071 40.5898 116.544 40.5898 115.899V104.925C40.5898 104.273 41.1164 103.753 41.7613 103.753H83.928C84.5788 103.753 85.0995 104.279 85.0995 104.925V115.899C85.0995 116.55 84.5729 117.071 83.928 117.071Z" fill="#B3C7EB" stroke="#002E47" stroke-miterlimit="10" stroke-linecap="round" stroke-linejoin="round"/>
<path d="M41.7618 115.082L41.7677 105.736C41.7677 105.292 42.1286 104.931 42.5723 104.931L83.1179 104.942C83.5617 104.942 83.9226 105.303 83.9226 105.753L83.9167 115.094C83.9167 115.538 83.5558 115.899 83.112 115.899H42.5664C42.1227 115.887 41.7559 115.526 41.7618 115.082Z" fill="#002E47"/>
<path d="M79.2338 115.396H56.9997C56.5678 115.396 56.2188 115.047 56.2188 114.615V112.354C56.2188 111.921 56.5678 111.572 56.9997 111.572H79.2338C79.6657 111.572 80.0148 111.921 80.0148 112.354V114.615C80.0148 115.047 79.6657 115.396 79.2338 115.396Z" fill="#39B4EF" stroke="#002E47" stroke-miterlimit="10" stroke-linecap="round" stroke-linejoin="round"/>
<path d="M72.065 111.181H61.6638C61.2319 111.181 60.8828 110.832 60.8828 110.4V108.139C60.8828 107.707 61.2319 107.358 61.6638 107.358H72.065C72.4969 107.358 72.8459 107.707 72.8459 108.139V110.4C72.84 110.832 72.4909 111.181 72.065 111.181Z" fill="#39B4EF" stroke="#002E47" stroke-miterlimit="10" stroke-linecap="round" stroke-linejoin="round"/>
<path d="M20.1172 98.0521V101.255" stroke="#B3C7EB" stroke-miterlimit="10" stroke-linecap="round" stroke-linejoin="round"/>
<path d="M21.1367 98.0521V101.255" stroke="#B3C7EB" stroke-miterlimit="10" stroke-linecap="round" stroke-linejoin="round"/>
<path d="M22.1484 98.0521V101.255" stroke="#B3C7EB" stroke-miterlimit="10" stroke-linecap="round" stroke-linejoin="round"/>
<path d="M23.1641 98.0521V101.255" stroke="#B3C7EB" stroke-miterlimit="10" stroke-linecap="round" stroke-linejoin="round"/>
<path d="M24.1758 98.0521V101.255" stroke="#B3C7EB" stroke-miterlimit="10" stroke-linecap="round" stroke-linejoin="round"/>
<path d="M20.1172 239.526V242.729" stroke="#B3C7EB" stroke-miterlimit="10" stroke-linecap="round" stroke-linejoin="round"/>
<path d="M21.1367 239.526V242.729" stroke="#B3C7EB" stroke-miterlimit="10" stroke-linecap="round" stroke-linejoin="round"/>
<path d="M22.1484 239.526V242.729" stroke="#B3C7EB" stroke-miterlimit="10" stroke-linecap="round" stroke-linejoin="round"/>
<path d="M23.1641 239.526V242.729" stroke="#B3C7EB" stroke-miterlimit="10" stroke-linecap="round" stroke-linejoin="round"/>
<path d="M24.1758 239.526V242.729" stroke="#B3C7EB" stroke-miterlimit="10" stroke-linecap="round" stroke-linejoin="round"/>
<path d="M20.1172 225.379V228.581" stroke="#B3C7EB" stroke-miterlimit="10" stroke-linecap="round" stroke-linejoin="round"/>
<path d="M21.1367 225.379V228.581" stroke="#B3C7EB" stroke-miterlimit="10" stroke-linecap="round" stroke-linejoin="round"/>
<path d="M22.1484 225.379V228.581" stroke="#B3C7EB" stroke-miterlimit="10" stroke-linecap="round" stroke-linejoin="round"/>
<path d="M23.1641 225.379V228.581" stroke="#B3C7EB" stroke-miterlimit="10" stroke-linecap="round" stroke-linejoin="round"/>
<path d="M24.1758 225.379V228.581" stroke="#B3C7EB" stroke-miterlimit="10" stroke-linecap="round" stroke-linejoin="round"/>
<path d="M20.1172 211.231V214.434" stroke="#B3C7EB" stroke-miterlimit="10" stroke-linecap="round" stroke-linejoin="round"/>
<path d="M21.1367 211.231V214.434" stroke="#B3C7EB" stroke-miterlimit="10" stroke-linecap="round" stroke-linejoin="round"/>
<path d="M22.1484 211.231V214.434" stroke="#B3C7EB" stroke-miterlimit="10" stroke-linecap="round" stroke-linejoin="round"/>
<path d="M23.1641 211.231V214.434" stroke="#B3C7EB" stroke-miterlimit="10" stroke-linecap="round" stroke-linejoin="round"/>
<path d="M24.1758 211.231V214.434" stroke="#B3C7EB" stroke-miterlimit="10" stroke-linecap="round" stroke-linejoin="round"/>
<path d="M20.1172 197.084V200.286" stroke="#B3C7EB" stroke-miterlimit="10" stroke-linecap="round" stroke-linejoin="round"/>
<path d="M21.1367 197.084V200.286" stroke="#B3C7EB" stroke-miterlimit="10" stroke-linecap="round" stroke-linejoin="round"/>
<path d="M22.1484 197.084V200.286" stroke="#B3C7EB" stroke-miterlimit="10" stroke-linecap="round" stroke-linejoin="round"/>
<path d="M23.1641 197.084V200.286" stroke="#B3C7EB" stroke-miterlimit="10" stroke-linecap="round" stroke-linejoin="round"/>
<path d="M24.1758 197.084V200.286" stroke="#B3C7EB" stroke-miterlimit="10" stroke-linecap="round" stroke-linejoin="round"/>
<path d="M20.1172 182.937V186.139" stroke="#B3C7EB" stroke-miterlimit="10" stroke-linecap="round" stroke-linejoin="round"/>
<path d="M21.1367 182.937V186.139" stroke="#B3C7EB" stroke-miterlimit="10" stroke-linecap="round" stroke-linejoin="round"/>
<path d="M22.1484 182.937V186.139" stroke="#B3C7EB" stroke-miterlimit="10" stroke-linecap="round" stroke-linejoin="round"/>
<path d="M23.1641 182.937V186.139" stroke="#B3C7EB" stroke-miterlimit="10" stroke-linecap="round" stroke-linejoin="round"/>
<path d="M24.1758 182.937V186.139" stroke="#B3C7EB" stroke-miterlimit="10" stroke-linecap="round" stroke-linejoin="round"/>
<path d="M20.1172 168.789V171.992" stroke="#B3C7EB" stroke-miterlimit="10" stroke-linecap="round" stroke-linejoin="round"/>
<path d="M21.1367 168.789V171.992" stroke="#B3C7EB" stroke-miterlimit="10" stroke-linecap="round" stroke-linejoin="round"/>
<path d="M22.1484 168.789V171.992" stroke="#B3C7EB" stroke-miterlimit="10" stroke-linecap="round" stroke-linejoin="round"/>
<path d="M23.1641 168.789V171.992" stroke="#B3C7EB" stroke-miterlimit="10" stroke-linecap="round" stroke-linejoin="round"/>
<path d="M24.1758 168.789V171.992" stroke="#B3C7EB" stroke-miterlimit="10" stroke-linecap="round" stroke-linejoin="round"/>
<path d="M20.1172 154.642V157.844" stroke="#B3C7EB" stroke-miterlimit="10" stroke-linecap="round" stroke-linejoin="round"/>
<path d="M21.1367 154.642V157.844" stroke="#B3C7EB" stroke-miterlimit="10" stroke-linecap="round" stroke-linejoin="round"/>
<path d="M22.1484 154.642V157.844" stroke="#B3C7EB" stroke-miterlimit="10" stroke-linecap="round" stroke-linejoin="round"/>
<path d="M23.1641 154.642V157.844" stroke="#B3C7EB" stroke-miterlimit="10" stroke-linecap="round" stroke-linejoin="round"/>
<path d="M24.1758 154.642V157.844" stroke="#B3C7EB" stroke-miterlimit="10" stroke-linecap="round" stroke-linejoin="round"/>
<path d="M20.1172 140.494V143.697" stroke="#B3C7EB" stroke-miterlimit="10" stroke-linecap="round" stroke-linejoin="round"/>
<path d="M21.1367 140.494V143.697" stroke="#B3C7EB" stroke-miterlimit="10" stroke-linecap="round" stroke-linejoin="round"/>
<path d="M22.1484 140.494V143.697" stroke="#B3C7EB" stroke-miterlimit="10" stroke-linecap="round" stroke-linejoin="round"/>
<path d="M23.1641 140.494V143.697" stroke="#B3C7EB" stroke-miterlimit="10" stroke-linecap="round" stroke-linejoin="round"/>
<path d="M24.1758 140.494V143.697" stroke="#B3C7EB" stroke-miterlimit="10" stroke-linecap="round" stroke-linejoin="round"/>
<path d="M20.1172 126.347V129.549" stroke="#B3C7EB" stroke-miterlimit="10" stroke-linecap="round" stroke-linejoin="round"/>
<path d="M21.1367 126.347V129.549" stroke="#B3C7EB" stroke-miterlimit="10" stroke-linecap="round" stroke-linejoin="round"/>
<path d="M22.1484 126.347V129.549" stroke="#B3C7EB" stroke-miterlimit="10" stroke-linecap="round" stroke-linejoin="round"/>
<path d="M23.1641 126.347V129.549" stroke="#B3C7EB" stroke-miterlimit="10" stroke-linecap="round" stroke-linejoin="round"/>
<path d="M24.1758 126.347V129.549" stroke="#B3C7EB" stroke-miterlimit="10" stroke-linecap="round" stroke-linejoin="round"/>
<path d="M20.1172 112.2V115.402" stroke="#B3C7EB" stroke-miterlimit="10" stroke-linecap="round" stroke-linejoin="round"/>
<path d="M21.1367 112.2V115.402" stroke="#B3C7EB" stroke-miterlimit="10" stroke-linecap="round" stroke-linejoin="round"/>
<path d="M22.1484 112.2V115.402" stroke="#B3C7EB" stroke-miterlimit="10" stroke-linecap="round" stroke-linejoin="round"/>
<path d="M23.1641 112.2V115.402" stroke="#B3C7EB" stroke-miterlimit="10" stroke-linecap="round" stroke-linejoin="round"/>
<path d="M24.1758 112.2V115.402" stroke="#B3C7EB" stroke-miterlimit="10" stroke-linecap="round" stroke-linejoin="round"/>
</g>
<defs>
<clipPath id="clip0_266_45755">
<rect width="255" height="262.822" fill="white" transform="translate(0.5 0.588989)"/>
</clipPath>
</defs>
</svg>
