<svg width="488" height="454" viewBox="0 0 488 454" fill="none" xmlns="http://www.w3.org/2000/svg">
<g clip-path="url(#clip0_266_52127)">
<path d="M460.288 354.744C488.169 294.888 490.043 215.137 470.795 151.19C454.223 96.1371 417.35 54.1507 374.752 29.1513C325.337 0.140899 266.428 -8.49305 213.395 9.81773C199.439 14.6311 185.865 19.0433 172.712 26.9553C118.796 59.3852 129.202 139.307 110.284 167.104C94.3639 190.489 63.937 183.6 44.7486 201.519C-7.0322 249.883 -7.16253 372.132 52.5784 410.338C115.958 450.881 391.234 503.005 460.288 354.744Z" fill="#39B4EF"/>
<path opacity="0.8" d="M460.288 354.744C488.169 294.888 490.043 215.137 470.795 151.19C454.223 96.1371 417.35 54.1507 374.752 29.1513C325.337 0.140899 266.428 -8.49305 213.395 9.81773C199.439 14.6311 185.865 19.0433 172.712 26.9553C118.796 59.3852 129.202 139.307 110.284 167.104C94.3639 190.489 63.937 183.6 44.7486 201.519C-7.0322 249.883 -7.16253 372.132 52.5784 410.338C115.958 450.881 391.234 503.005 460.288 354.744Z" fill="white"/>
<path d="M0.675781 423.365H487.335" stroke="#002E47" stroke-miterlimit="10" stroke-linecap="round" stroke-linejoin="round"/>
<path d="M351.585 5.80199L341.016 16.3742L351.585 26.9463L362.155 16.3742L351.585 5.80199Z" stroke="#002E47" stroke-miterlimit="10" stroke-linecap="round" stroke-linejoin="round"/>
<path d="M449.527 85.8756L438.957 96.4478L449.527 107.02L460.096 96.4478L449.527 85.8756Z" stroke="#002E47" stroke-miterlimit="10" stroke-linecap="round" stroke-linejoin="round"/>
<path d="M108.198 16.6838L97.6289 27.2559L108.198 37.8281L118.768 27.2559L108.198 16.6838Z" stroke="#002E47" stroke-miterlimit="10" stroke-linecap="round" stroke-linejoin="round"/>
<path d="M284.093 362.939L273.523 373.511L284.093 384.083L294.663 373.511L284.093 362.939Z" stroke="#002E47" stroke-miterlimit="10" stroke-linecap="round" stroke-linejoin="round"/>
<path d="M301.503 345.515L290.934 356.087L301.503 366.659L312.073 356.087L301.503 345.515Z" stroke="#002E47" stroke-miterlimit="10" stroke-linecap="round" stroke-linejoin="round"/>
<path d="M329.494 27.6668L322.781 34.3816L329.494 41.0965L336.208 34.3816L329.494 27.6668Z" stroke="#002E47" stroke-miterlimit="10" stroke-linecap="round" stroke-linejoin="round"/>
<path d="M42.2796 311.01L35.5664 317.725L42.2796 324.44L48.9928 317.725L42.2796 311.01Z" stroke="#002E47" stroke-miterlimit="10" stroke-linecap="round" stroke-linejoin="round"/>
<path d="M405.698 372.059L398.984 378.774L405.698 385.489L412.411 378.774L405.698 372.059Z" stroke="#002E47" stroke-miterlimit="10" stroke-linecap="round" stroke-linejoin="round"/>
<path d="M468.878 266.058V407.13H329.938V53.4487C329.938 50.1295 332.624 47.4421 335.943 47.4421H462.863C466.182 47.4421 468.868 50.1295 468.868 53.4487V256.712" stroke="#002E47" stroke-miterlimit="10" stroke-linecap="round" stroke-linejoin="round"/>
<path d="M468.878 69.0119H329.938V53.4487C329.938 50.1295 332.624 47.4421 335.943 47.4421H462.863C466.182 47.4421 468.868 50.1295 468.868 53.4487V69.0119H468.878Z" fill="#002E47" stroke="#002E47" stroke-miterlimit="10" stroke-linecap="round" stroke-linejoin="round"/>
<path d="M258.565 407.14H179.215V53.4487C179.215 50.1295 181.902 47.4421 185.22 47.4421H312.141C315.459 47.4421 318.146 50.1295 318.146 53.4487V407.14H267.909" stroke="#002E47" stroke-miterlimit="10" stroke-linecap="round" stroke-linejoin="round"/>
<path d="M318.156 69.0119H179.215V53.4487C179.215 50.1295 181.902 47.4421 185.22 47.4421H312.141C315.459 47.4421 318.146 50.1295 318.146 53.4487V69.0119H318.156Z" fill="#002E47" stroke="#002E47" stroke-miterlimit="10" stroke-linecap="round" stroke-linejoin="round"/>
<path d="M28.4844 310.943V53.4487C28.4844 50.1295 31.1712 47.4421 34.4895 47.4421H161.41C164.728 47.4421 167.415 50.1295 167.415 53.4487V407.14H28.4844V319.667" stroke="#002E47" stroke-miterlimit="10" stroke-linecap="round" stroke-linejoin="round"/>
<path d="M167.425 69.0119H28.4844V53.4487C28.4844 50.1295 31.1712 47.4421 34.4895 47.4421H161.41C164.728 47.4421 167.415 50.1295 167.415 53.4487V69.0119H167.425Z" fill="#002E47" stroke="#002E47" stroke-miterlimit="10" stroke-linecap="round" stroke-linejoin="round"/>
<path d="M65.7817 374.499C63.8167 375.081 59.2652 374.409 59.2552 374.409C59.2051 374.399 60.6086 371.541 60.7189 371.37C61.9821 369.405 65.5812 366.336 68.1176 367.008C69.9422 367.49 70.7442 369.475 70.1026 371.18C69.461 372.905 67.4559 373.998 65.7817 374.499Z" fill="#002E47"/>
<path d="M23.2837 372.594C23.2436 372.614 22.8325 369.455 22.8325 369.254C22.8025 366.918 24.1158 362.375 26.592 361.533C28.3765 360.931 30.141 362.145 30.552 363.91C30.9631 365.715 29.9004 367.73 28.7776 369.074C27.4542 370.638 23.2837 372.584 23.2837 372.594Z" fill="#002E47"/>
<path d="M13.5388 364.14C14.9123 364.912 18.1605 365.243 18.9625 365.314C19.3636 365.865 19.7846 366.457 20.2358 367.119C21.0278 368.292 21.9 369.636 22.7521 371.15C22.9827 371.551 23.2133 372.002 23.4439 372.423C22.9025 371.791 22.1506 370.919 22.0704 370.849C20.5566 369.455 16.8171 367.65 14.8121 368.783C13.3684 369.595 13.1278 371.471 14.0501 372.764C14.9925 374.088 16.9274 374.579 18.4713 374.629C20.0754 374.68 23.1732 373.446 23.8549 373.165C24.3562 374.118 24.8374 375.101 25.2885 376.164C26.0705 377.989 26.8023 379.984 27.2836 382.1C27.2134 382.13 27.2334 382.12 27.1633 382.15C26.7422 381.498 25.8199 380.165 25.7296 380.054C24.3762 378.5 20.8573 376.294 18.742 377.196C17.2181 377.848 16.777 379.683 17.539 381.077C18.331 382.501 20.2057 383.203 21.7195 383.424C23.4739 383.674 27.2134 382.561 27.3537 382.521C27.7748 384.507 28.0655 386.572 28.236 388.688C28.3663 390.223 28.4264 391.777 28.4866 393.341C28.1959 392.88 26.9928 391.115 26.8926 390.995C25.5392 389.44 22.0203 387.234 19.9049 388.137C18.3811 388.789 17.94 390.624 18.7019 392.018C19.4939 393.442 21.3686 394.143 22.8824 394.364C24.5968 394.605 28.1858 393.562 28.4866 393.472C28.5067 394.184 28.5367 394.896 28.5568 395.608C28.6169 397.934 28.6671 400.26 28.7773 402.567C28.8174 403.359 28.8876 404.151 28.9578 404.933C28.5067 404.252 27.6645 403.028 27.5843 402.928C26.2309 401.374 22.712 399.167 20.5967 400.07C19.0728 400.722 18.6317 402.557 19.3936 403.951C20.1756 405.375 22.0604 406.077 23.5742 406.287C25.098 406.508 28.1357 405.686 28.9979 405.445C29.1182 406.748 29.2686 408.042 29.4691 409.306C29.5693 409.847 29.6395 410.409 29.7598 410.93C29.8801 411.451 29.9904 411.973 30.1007 412.484C30.3714 413.537 30.622 414.52 30.9027 415.493C31.0431 415.984 31.1834 416.445 31.3238 416.927C30.9729 416.165 30.3914 414.981 30.3313 414.871C29.2285 413.136 26.0905 410.419 23.8549 410.99C22.2509 411.401 21.529 413.146 22.0804 414.64C22.6418 416.165 24.3963 417.147 25.86 417.589C27.4841 418.08 31.0731 417.619 31.5042 417.558C31.8551 418.722 32.206 419.855 32.5469 420.908C32.8276 421.77 33.0983 422.572 33.3689 423.344H34.8828C34.5419 422.442 34.191 421.489 33.8301 420.466C33.4993 419.524 33.1584 418.511 32.8175 417.478C33.2186 417.318 36.3465 416.044 37.6096 414.851C38.9029 415.703 40.3867 416.425 40.6473 416.556C40.2964 417.719 39.9656 418.862 39.6749 419.925C39.344 421.138 39.0433 422.282 38.7826 423.344H40.2664C40.4869 422.382 40.7275 421.369 40.9982 420.276C41.2388 419.303 41.5095 418.28 41.8002 417.228C42.2413 417.318 45.7803 418.03 47.4345 417.649C48.9282 417.308 50.7428 416.455 51.4145 414.971C52.0662 413.517 51.4747 411.732 49.9007 411.211C47.7152 410.479 44.3868 412.976 43.1737 414.63C43.0935 414.741 42.3115 416.094 41.9306 416.796C42.111 416.165 42.2814 415.533 42.482 414.871C42.7526 413.918 43.0835 412.926 43.3842 411.963C43.5647 411.472 43.7451 410.97 43.9256 410.469C44.096 409.957 44.3266 409.486 44.5271 408.985C44.8379 408.263 45.1888 407.531 45.5397 406.799C46.4921 407.14 49.2891 408.082 50.7729 407.972C52.3068 407.862 54.2216 407.29 55.1139 405.926C55.976 404.592 55.6652 402.737 54.1915 401.975C52.1464 400.922 48.4771 402.878 47.0234 404.332C46.9733 404.382 46.7026 404.723 46.3818 405.124C46.7427 404.422 47.1036 403.72 47.5046 403.018C48.6174 401.033 49.8205 399.037 51.0135 397.042C51.2641 396.62 51.5047 396.209 51.7554 395.788C52.5574 396.079 55.575 397.132 57.139 397.011C58.6728 396.901 60.5877 396.33 61.4799 394.966C62.3421 393.632 62.0313 391.777 60.5576 391.015C58.5124 389.962 54.8432 391.917 53.3895 393.371C53.3394 393.421 53.0085 393.833 52.6476 394.284C53.2792 393.191 53.9008 392.088 54.4722 390.975C55.4848 389.029 56.377 387.064 57.0888 385.088C57.3696 385.189 60.8884 386.492 62.6228 386.372C64.1567 386.262 66.0715 385.69 66.9638 384.326C67.826 382.993 67.5152 381.137 66.0415 380.375C63.9963 379.322 60.327 381.278 58.8733 382.732C58.7731 382.832 57.5901 384.316 57.1891 384.858C57.1991 384.838 57.2091 384.808 57.2192 384.788C57.951 382.712 58.3921 380.636 58.7129 378.64C59.0338 376.655 59.1741 374.76 59.2543 373.015C59.3345 371.27 59.3044 369.666 59.2744 368.242C59.2443 367.47 59.2142 366.768 59.1641 366.116C59.1741 366.126 59.2042 366.146 59.2042 366.146C59.2343 366.176 60.2067 363.549 60.2468 363.368C60.728 361.373 60.4874 357.221 58.5225 356.018C57.1089 355.155 55.3545 355.847 54.6727 357.281C53.971 358.745 54.4823 360.681 55.184 362.054C55.9059 363.458 58.4222 365.524 59.0538 366.026C59.0839 366.707 59.114 367.429 59.124 368.242C59.134 369.656 59.124 371.26 59.0037 372.995C58.9736 373.456 58.9235 373.958 58.8733 374.439C58.7731 373.607 58.6227 372.473 58.6027 372.363C58.1114 370.368 55.9861 366.798 53.6903 366.637C52.0361 366.517 50.803 367.951 50.8531 369.535C50.9032 371.16 52.2566 372.644 53.5098 373.526C54.8131 374.449 58.0914 375.131 58.8032 375.271C58.6929 376.334 58.5525 377.437 58.342 378.56C57.9811 380.516 57.4999 382.581 56.7279 384.617C56.6578 384.607 56.6678 384.607 56.5976 384.597C56.5976 383.825 56.5675 382.19 56.5475 382.06C56.2768 380.024 54.5625 376.234 52.2967 375.823C50.6626 375.522 49.2891 376.805 49.1588 378.4C49.0285 380.024 50.2115 381.639 51.3544 382.662C52.6777 383.835 56.4171 384.978 56.5575 385.018C55.8156 386.903 54.9234 388.789 53.9008 390.654C53.1589 392.008 52.3569 393.341 51.5348 394.675C51.5549 394.133 51.5148 391.998 51.4947 391.837C51.224 389.801 49.5097 386.011 47.244 385.6C45.6099 385.299 44.2364 386.583 44.1061 388.177C43.9757 389.801 45.1587 391.416 46.3016 392.439C47.5949 393.592 51.1639 394.695 51.4646 394.785C51.0937 395.387 50.7228 395.999 50.3418 396.6C49.1087 398.576 47.8655 400.541 46.6926 402.527C46.2916 403.209 45.9106 403.901 45.5397 404.592C45.5397 403.78 45.5096 402.286 45.4895 402.166C45.2189 400.13 43.5045 396.34 41.2388 395.928C39.6047 395.628 38.2312 396.911 38.1009 398.506C37.9706 400.13 39.1535 401.745 40.2964 402.767C41.4493 403.79 44.4369 404.793 45.279 405.054C44.6574 406.207 44.0659 407.37 43.5446 408.533C43.3241 409.045 43.0734 409.546 42.893 410.048C42.7025 410.549 42.512 411.04 42.3215 411.532C41.9707 412.565 41.6398 413.517 41.329 414.48C41.1686 414.971 41.0383 415.433 40.8879 415.904C41.0082 415.082 41.1887 413.768 41.1887 413.638C41.2288 411.582 40.1059 407.581 37.9305 406.829C36.3665 406.287 34.8026 407.35 34.4416 408.894C34.3915 409.095 34.3715 409.295 34.3614 409.496C33.2887 410.98 32.6371 413.166 32.5769 414.53C32.5669 414.66 32.6672 416.225 32.7373 417.027C32.5368 416.395 32.3363 415.773 32.1358 415.122C31.8451 414.179 31.5644 413.176 31.2837 412.194C31.1634 411.682 31.033 411.171 30.9027 410.649C30.7623 410.128 30.6922 409.616 30.5819 409.085C30.4415 408.313 30.3313 407.501 30.221 406.698C31.2035 406.458 34.0607 405.696 35.2336 404.793C36.4467 403.85 37.74 402.316 37.7199 400.692C37.6999 399.097 36.4166 397.723 34.7725 397.904C32.4867 398.155 30.5017 401.815 30.0907 403.83C30.0806 403.901 30.0305 404.332 29.9904 404.843C29.9102 404.051 29.82 403.269 29.7598 402.467C29.5894 400.19 29.4992 397.874 29.3889 395.547C29.3688 395.066 29.3388 394.575 29.3087 394.093C30.1308 393.893 33.2386 393.101 34.4717 392.148C35.6848 391.205 36.978 389.671 36.958 388.047C36.9379 386.452 35.6547 385.078 34.0106 385.259C31.7248 385.51 29.7398 389.17 29.3287 391.185C29.3187 391.255 29.2686 391.777 29.2184 392.359C29.1382 391.095 29.048 389.842 28.9177 388.588C28.6871 386.412 28.3462 384.276 27.855 382.24C28.1457 382.17 31.805 381.318 33.1785 380.255C34.3915 379.312 35.6848 377.778 35.6647 376.154C35.6447 374.559 34.3614 373.185 32.7173 373.366C30.4315 373.617 28.4465 377.277 28.0355 379.292C28.0054 379.433 27.845 381.318 27.8049 381.99C27.7949 381.97 27.7949 381.94 27.7848 381.92C27.2435 379.784 26.4715 377.808 25.6394 375.973C24.8173 374.138 23.885 372.483 22.9927 370.979C22.1005 369.475 21.1882 368.151 20.3761 366.988C19.935 366.366 19.5139 365.795 19.1129 365.273C19.123 365.273 19.1631 365.273 19.1631 365.273C19.2032 365.273 18.5615 362.556 18.5014 362.385C17.7996 360.45 15.3133 357.121 13.0075 357.201C11.3533 357.261 10.2806 358.805 10.4912 360.39C10.7017 362.054 12.2055 363.388 13.5388 364.14Z" fill="#002E47"/>
<path d="M356.593 89.3884H340.172V116.133H356.593V89.3884Z" fill="#39B4EF" stroke="#002E47" stroke-miterlimit="10" stroke-linecap="round" stroke-linejoin="round"/>
<path d="M381.437 89.3884H365.016V116.133H381.437V89.3884Z" fill="#39B4EF" stroke="#002E47" stroke-miterlimit="10" stroke-linecap="round" stroke-linejoin="round"/>
<path d="M356.593 128.497H340.172V155.241H356.593V128.497Z" fill="#002E47" stroke="#002E47" stroke-miterlimit="10" stroke-linecap="round" stroke-linejoin="round"/>
<path d="M381.437 128.497H365.016V155.241H381.437V128.497Z" fill="#002E47" stroke="#002E47" stroke-miterlimit="10" stroke-linecap="round" stroke-linejoin="round"/>
<path d="M406.879 128.497H390.457V155.241H406.879V128.497Z" fill="white" stroke="#002E47" stroke-miterlimit="10" stroke-linecap="round" stroke-linejoin="round"/>
<path d="M209.351 89.3884H192.93V116.133H209.351V89.3884Z" fill="#39B4EF" stroke="#002E47" stroke-miterlimit="10" stroke-linecap="round" stroke-linejoin="round"/>
<path d="M234.195 89.3884H217.773V116.133H234.195V89.3884Z" fill="#39B4EF" stroke="#002E47" stroke-miterlimit="10" stroke-linecap="round" stroke-linejoin="round"/>
<path d="M209.351 128.497H192.93V155.241H209.351V128.497Z" fill="#002E47" stroke="#002E47" stroke-miterlimit="10" stroke-linecap="round" stroke-linejoin="round"/>
<path d="M234.796 128.497H218.375V155.241H234.796V128.497Z" fill="white" stroke="#002E47" stroke-miterlimit="10" stroke-linecap="round" stroke-linejoin="round"/>
<path d="M209.211 167.615H192.789V194.359H209.211V167.615Z" fill="#B3C7EB" stroke="#002E47" stroke-miterlimit="10" stroke-linecap="round" stroke-linejoin="round"/>
<path d="M57.3902 89.3884H40.9688V116.133H57.3902V89.3884Z" fill="#39B4EF" stroke="#002E47" stroke-miterlimit="10" stroke-linecap="round" stroke-linejoin="round"/>
<path d="M82.0933 89.3884H65.6719V116.133H82.0933V89.3884Z" fill="#39B4EF" stroke="#002E47" stroke-miterlimit="10" stroke-linecap="round" stroke-linejoin="round"/>
<path d="M106.804 89.3884H90.3828V116.133H106.804V89.3884Z" fill="#39B4EF" stroke="#002E47" stroke-miterlimit="10" stroke-linecap="round" stroke-linejoin="round"/>
<path d="M131.519 89.3884H115.098V116.133H131.519V89.3884Z" fill="#39B4EF" stroke="#002E47" stroke-miterlimit="10" stroke-linecap="round" stroke-linejoin="round"/>
<path d="M156.23 89.3884H139.809V116.133H156.23V89.3884Z" fill="#39B4EF" stroke="#002E47" stroke-miterlimit="10" stroke-linecap="round" stroke-linejoin="round"/>
<path d="M57.3902 128.497H40.9688V155.241H57.3902V128.497Z" fill="#002E47" stroke="#002E47" stroke-miterlimit="10" stroke-linecap="round" stroke-linejoin="round"/>
<path d="M82.0933 128.497H65.6719V155.241H82.0933V128.497Z" fill="#002E47" stroke="#002E47" stroke-miterlimit="10" stroke-linecap="round" stroke-linejoin="round"/>
<path d="M106.804 128.497H90.3828V155.241H106.804V128.497Z" fill="#002E47" stroke="#002E47" stroke-miterlimit="10" stroke-linecap="round" stroke-linejoin="round"/>
<path d="M131.519 128.497H115.098V155.241H131.519V128.497Z" fill="white" stroke="#002E47" stroke-miterlimit="10" stroke-linecap="round" stroke-linejoin="round"/>
<path d="M156.23 128.497H139.809V155.241H156.23V128.497Z" fill="white" stroke="#002E47" stroke-miterlimit="10" stroke-linecap="round" stroke-linejoin="round"/>
<path d="M57.3902 167.615H40.9688V194.359H57.3902V167.615Z" fill="white" stroke="#002E47" stroke-miterlimit="10" stroke-linecap="round" stroke-linejoin="round"/>
<path d="M82.0933 167.615H65.6719V194.359H82.0933V167.615Z" fill="#B3C7EB" stroke="#002E47" stroke-miterlimit="10" stroke-linecap="round" stroke-linejoin="round"/>
<path d="M106.804 167.615H90.3828V194.359H106.804V167.615Z" fill="#B3C7EB" stroke="#002E47" stroke-miterlimit="10" stroke-linecap="round" stroke-linejoin="round"/>
<path d="M304.31 176.199C304.31 176.199 302.446 178.495 301.443 179.639C300.441 180.782 300.581 181.644 301.584 181.504C302.586 181.363 305.022 178.786 305.022 178.786C305.022 178.786 304.732 180.501 305.022 181.223C305.313 181.935 306.456 182.517 307.599 182.938C308.742 183.369 310.035 184.231 310.466 183.229C310.897 182.226 310.326 179.358 310.326 179.358L304.31 176.199Z" fill="white" stroke="#002E47" stroke-miterlimit="10" stroke-linecap="round" stroke-linejoin="round"/>
<path d="M338.829 196.977C338.829 196.977 318.778 181.795 316.913 179.639C315.049 177.493 312.763 176.63 311.329 176.34C309.896 176.049 306.607 175.628 306.607 175.628C306.607 175.628 303.309 173.331 301.595 172.479C299.88 171.616 299.018 169.902 298.727 171.045C298.437 172.188 299.299 173.341 301.023 174.344C302.738 175.347 305.464 177.784 305.464 177.784C305.464 177.784 309.475 179.929 309.334 181.654C309.194 183.369 306.898 184.372 306.036 184.231C305.174 184.091 302.597 182.085 302.317 183.66C302.036 185.234 305.324 186.377 307.038 186.809C308.753 187.24 315.059 188.102 315.921 188.102C316.783 188.102 319.931 191.251 319.931 191.251L334.969 205.581L338.829 196.977Z" fill="white" stroke="#002E47" stroke-miterlimit="10" stroke-linecap="round" stroke-linejoin="round"/>
<path d="M338.399 195.824C338.399 195.824 334.53 200.406 333.818 203.986C333.106 207.566 334.249 208.288 335.823 209.291C337.397 210.294 339.262 211.296 339.262 211.296C339.262 211.296 337.547 208.579 340.976 204.849C344.415 201.128 346.42 199.403 346.42 199.403C346.42 199.403 340.976 195.543 338.399 195.824Z" fill="white" stroke="#002E47" stroke-miterlimit="10" stroke-linecap="round" stroke-linejoin="round"/>
<path d="M340.974 204.849C340.974 204.849 337.535 207.997 337.826 209.722C338.117 211.437 339.971 212.59 340.543 212.871C341.114 213.162 343.841 216.02 345.124 216.882C346.408 217.744 349.275 217.594 349.566 218.176C349.856 218.757 350.999 221.475 350.999 221.475C350.999 221.475 357.586 215.458 359.16 212.018C360.734 208.579 359.3 204.859 357.295 202.703C355.29 200.557 349.135 198.832 348.413 198.691C347.701 198.551 346.408 199.403 346.408 199.403L340.974 204.849Z" fill="white" stroke="#002E47" stroke-miterlimit="10" stroke-linecap="round" stroke-linejoin="round"/>
<path d="M348.433 339.582C348.433 339.582 349.847 346.06 353.696 364.892C357.546 383.725 355.521 384.737 356.935 398.706C358.348 412.675 356.323 416.927 356.323 416.927C356.323 416.927 348.834 419.353 344.383 419.965C339.932 420.577 332.032 421.59 331.831 423.605C331.631 425.631 341.145 429.07 349.646 430.284C358.148 431.497 364.013 433.924 365.436 432.71C366.85 431.497 367.862 427.045 367.862 425.019C367.862 422.994 367.251 420.366 367.251 416.716C367.251 413.076 370.088 391.205 371.301 385.139C372.514 379.062 371.912 370.769 370.689 366.306C369.476 361.854 367.05 354.764 367.05 354.764L368.063 336.945L348.433 339.582Z" fill="white" stroke="#002E47" stroke-miterlimit="10" stroke-linecap="round" stroke-linejoin="round"/>
<path d="M350.238 344.807C350.238 344.807 351.341 345.298 358.66 344.807C365.978 344.315 367.692 343.222 367.692 343.222L368.073 336.945L350.238 344.807Z" fill="#002E47" stroke="#002E47" stroke-miterlimit="10" stroke-linecap="round" stroke-linejoin="round"/>
<path d="M344.583 427.045C344.583 427.045 340.132 424.417 340.132 422.392C340.132 421.69 340.523 421.018 341.024 420.436C336.794 421.068 331.992 422.031 331.831 423.605C331.631 425.631 341.145 429.07 349.646 430.284C358.148 431.497 364.013 433.924 365.436 432.71C366.85 431.497 367.862 427.045 367.862 425.019C367.862 424.177 367.752 423.214 367.632 422.131C366.158 422.943 364.163 424.207 362.799 425.019C360.774 426.232 344.583 427.045 344.583 427.045Z" fill="#002E47" stroke="#002E47" stroke-miterlimit="10" stroke-linecap="round" stroke-linejoin="round"/>
<path d="M325.355 337.958C325.355 337.958 326.769 359.818 328.193 366.096C329.606 372.373 348.634 412.454 350.459 415.894C352.283 419.333 352.283 419.333 352.283 419.333C352.283 419.333 346.82 423.786 339.331 425.811C331.842 427.837 326.98 428.037 327.591 429.863C328.203 431.688 333.456 433.302 341.957 433.914C350.459 434.525 361.998 435.127 363.412 434.525C364.825 433.914 365.637 428.048 365.637 425.21C365.637 422.372 363.412 419.133 362.6 416.506C361.787 413.878 355.512 391.195 354.299 385.129C353.085 379.052 352.073 379.052 348.634 371.771C345.196 364.481 345.196 367.72 343.983 362.656C342.769 357.592 348.434 339.572 348.434 339.572L325.355 337.958Z" fill="white" stroke="#002E47" stroke-miterlimit="10" stroke-linecap="round" stroke-linejoin="round"/>
<path d="M330.539 342.841L345.637 348.878L347.422 345.047L330.539 342.841Z" fill="#002E47" stroke="#002E47" stroke-miterlimit="10" stroke-linecap="round" stroke-linejoin="round"/>
<path d="M338.308 427.646C338.038 427.195 337.907 426.694 337.877 426.202C331.221 427.887 327.02 428.168 327.581 429.873C328.193 431.698 333.446 433.312 341.948 433.924C350.449 434.536 361.988 435.137 363.402 434.536C364.815 433.924 365.627 428.058 365.627 425.22C365.627 425.22 349.036 430.484 344.785 430.484C340.534 430.484 339.522 429.672 338.308 427.646Z" fill="#002E47" stroke="#002E47" stroke-miterlimit="10" stroke-linecap="round" stroke-linejoin="round"/>
<path d="M326.167 306.18C326.167 306.18 323.941 322.374 324.142 329.464C324.342 336.554 323.941 341.207 323.941 341.207C323.941 341.207 338.518 346.07 347.421 345.057C356.323 344.045 369.075 338.78 369.075 338.78C369.075 338.78 370.7 318.133 370.7 317.32C370.7 316.508 372.093 307.533 371.913 301.527C371.732 295.52 371.712 291.409 371.712 291.409C371.712 291.409 351.872 296.272 344.995 295.66C338.117 295.049 328.403 294.648 328.403 294.648L326.167 306.18Z" fill="#39B4EF" stroke="#002E47" stroke-miterlimit="10" stroke-linecap="round" stroke-linejoin="round"/>
<path d="M350.095 219.981C350.095 219.981 336.02 232.856 334.306 242.814C332.591 252.771 324.35 305.478 325.032 309.77C325.032 309.77 339.449 306.851 342.887 306.851C346.326 306.851 359.369 317.501 361.935 318.524C364.512 319.557 364.512 316.639 367.259 313.199C370.006 309.77 370.006 305.989 370.517 302.379C371.028 298.769 371.72 295.51 371.72 295.51C371.72 295.51 373.434 289.162 373.605 286.415C373.775 283.667 372.061 275.595 372.061 272.165C372.061 268.736 380.643 249.161 381.334 235.594C382.016 222.026 381.675 219.108 381.675 219.108L379.961 211.898C379.961 211.908 355.068 216.03 350.095 219.981Z" fill="white" stroke="#002E47" stroke-miterlimit="10" stroke-linecap="round" stroke-linejoin="round"/>
<path d="M354.277 253.393C354.277 253.393 357.826 263.561 361.646 269.518L354.277 253.393Z" fill="white"/>
<path d="M354.277 253.393C354.277 253.393 357.826 263.561 361.646 269.518" stroke="#002E47" stroke-miterlimit="10" stroke-linecap="round" stroke-linejoin="round"/>
<path d="M359.703 279.816C360.124 280.889 360.565 281.922 361.016 282.905L359.703 279.816Z" fill="white"/>
<path d="M359.703 279.816C360.124 280.889 360.565 281.922 361.016 282.905" stroke="#002E47" stroke-miterlimit="10" stroke-linecap="round" stroke-linejoin="round"/>
<path d="M354.418 262.288C354.418 262.288 356.002 269.357 358.438 276.397L354.418 262.288Z" fill="white"/>
<path d="M354.418 262.288C354.418 262.288 356.002 269.357 358.438 276.397" stroke="#002E47" stroke-miterlimit="10" stroke-linecap="round" stroke-linejoin="round"/>
<path d="M375.333 179.629C375.333 179.629 371.383 169.671 364.004 168.809C356.625 167.946 349.247 170.523 346.67 175.848C344.094 181.173 342.72 184.091 342.72 186.839C342.72 189.586 344.605 189.927 343.923 192.504C343.242 195.081 341.347 195.252 342.209 196.455C343.071 197.659 344.615 198.17 344.615 198.17C344.615 198.17 347.873 207.446 349.939 207.957C351.994 208.469 354.229 206.413 354.229 206.413L358.009 212.761L371.744 208.98C371.744 208.98 370.37 197.478 371.232 194.56C372.095 191.642 376.556 187.521 376.897 185.284C377.217 183.058 375.333 179.629 375.333 179.629Z" fill="white" stroke="#002E47" stroke-miterlimit="10" stroke-linecap="round" stroke-linejoin="round"/>
<path d="M345.687 192.264C345.687 193.236 345.426 194.029 345.095 194.029C344.775 194.029 344.504 193.236 344.504 192.264C344.504 191.291 344.765 190.499 345.095 190.499C345.426 190.499 345.687 191.291 345.687 192.264Z" fill="#002E47"/>
<path d="M343.523 189.315C343.523 189.315 344.696 187.47 345.709 188.975L343.523 189.315Z" fill="white"/>
<path d="M343.523 189.315C343.523 189.315 344.696 187.47 345.709 188.975" stroke="#002E47" stroke-width="0.75" stroke-miterlimit="10" stroke-linecap="round" stroke-linejoin="round"/>
<path d="M346.027 201.68L347.702 200.507" stroke="#002E47" stroke-width="0.75" stroke-miterlimit="10" stroke-linecap="round" stroke-linejoin="round"/>
<path d="M372.584 207.787C372.584 207.787 357.306 211.738 355.08 213.793C352.845 215.849 350.098 219.971 350.098 219.971C350.098 219.971 362.8 215.679 366.579 214.987C370.359 214.305 374.128 213.613 374.128 213.613C374.128 213.613 373.266 209.331 372.584 207.787Z" fill="white" stroke="#002E47" stroke-miterlimit="10" stroke-linecap="round" stroke-linejoin="round"/>
<path d="M375.329 179.629C375.329 179.629 371.379 169.671 364.001 168.809C358.015 168.117 352.02 169.681 348.602 173.131L348.02 173.281C348.02 173.281 343.759 172.94 342.216 175.668C341.012 177.814 343.378 180.792 344.451 181.975C344.221 183.379 344.311 184.653 345.113 185.284C347.519 187.17 349.574 186.488 350.095 188.543C350.607 190.599 351.298 191.973 352.331 191.291C353.364 190.609 352.842 187.34 355.248 187.17C357.655 186.999 358.858 189.225 358.507 191.632C358.166 194.039 357.304 195.242 357.474 195.753C357.644 196.265 364.171 201.76 368.803 201.419C369.454 201.369 370.206 201.028 370.998 200.497C370.878 198.01 370.878 195.663 371.209 194.55C372.071 191.632 376.532 187.51 376.873 185.274C377.214 183.058 375.329 179.629 375.329 179.629Z" fill="#002E47" stroke="#002E47" stroke-miterlimit="10" stroke-linecap="round" stroke-linejoin="round"/>
<path d="M375.329 179.629C375.329 179.629 366.056 183.58 365.374 194.39C364.693 205.21 370.698 209.501 370.006 211.728C369.324 213.964 366.918 215.338 368.633 216.711C370.347 218.085 371.891 218.256 371.38 219.63C370.868 221.003 370.347 223.581 370.347 224.784C370.347 225.987 373.776 227.872 373.435 229.417C373.094 230.961 371.55 231.302 372.923 232.335C374.297 233.368 374.126 234.05 376.182 233.709C378.237 233.368 377.385 230.099 378.929 229.928C380.472 229.758 380.984 231.131 383.39 229.066C385.796 227.01 385.104 224.082 385.445 223.23C385.786 222.367 387.159 222.548 388.022 221.344C388.884 220.141 389.225 218.426 388.703 216.711C388.192 214.997 388.022 213.964 388.533 212.42C389.044 210.875 389.736 208.81 389.215 207.265C388.703 205.721 388.533 204.006 388.533 204.006C388.533 204.006 390.768 200.918 390.768 198.681C390.768 196.445 390.428 193.186 389.395 190.96C388.362 188.724 386.137 186.839 385.966 185.806C385.796 184.773 385.455 182.376 383.39 181.002C381.335 179.629 377.385 178.947 375.329 179.629Z" fill="#002E47" stroke="#002E47" stroke-miterlimit="10" stroke-linecap="round" stroke-linejoin="round"/>
<path d="M300.492 222.377L314.909 247.788L324.864 246.935L310.618 222.207L300.492 222.377Z" fill="#002E47" stroke="#002E47" stroke-miterlimit="10" stroke-linecap="round" stroke-linejoin="round"/>
<path d="M319.862 249.803C319.862 249.803 319 244.478 318.248 243.245C317.506 242.012 317.386 241.51 317.015 239.535C316.644 237.549 316.273 237.309 315.03 238.301C313.797 239.294 314.168 241.52 314.288 242.142C314.408 242.764 313.666 242.262 312.553 241.149C311.441 240.036 308.714 237.93 308.714 237.93C308.714 237.93 306.859 238.301 307.601 240.036C308.343 241.771 308.714 243.375 308.714 243.375C308.714 243.375 308.092 248.209 308.834 249.934C309.576 251.668 312.543 253.403 312.543 253.403L315.641 255.138L323.692 267.522C323.692 267.522 321.957 267.402 324.804 263.682C327.652 259.971 329.386 258.728 329.266 258.357C329.145 257.986 320.473 251.297 320.473 251.297L319.862 249.803Z" fill="white" stroke="#002E47" stroke-miterlimit="10" stroke-linecap="round" stroke-linejoin="round"/>
<path d="M328.031 256.492C328.031 256.492 323.7 256.983 322.217 259.961C320.733 262.93 319.74 263.802 320.482 265.166C321.224 266.53 322.838 269.498 323.821 270.12C324.813 270.741 325.675 271.112 325.675 271.112C325.675 271.112 324.061 266.901 326.417 264.053C328.773 261.205 331.991 259.721 331.991 259.721C331.991 259.721 329.645 257.354 328.031 256.492Z" fill="white" stroke="#002E47" stroke-miterlimit="10" stroke-linecap="round" stroke-linejoin="round"/>
<path d="M359.232 234.822C359.232 234.822 359.352 238.291 359.232 241.38C359.112 244.478 356.264 248.931 356.264 248.931C356.264 248.931 354.53 251.157 354.279 253.393C354.029 255.619 353.788 259.089 353.417 259.951C353.046 260.814 344.505 279.766 342.77 280.749C341.036 281.742 339.302 281.371 336.214 279.756C333.116 278.142 325.687 271.092 325.687 271.092C325.687 271.092 323.211 267.753 326.429 264.033C329.647 260.322 332.003 259.701 332.003 259.701L334.229 260.322C334.229 260.322 335.091 253.393 336.214 250.295C337.327 247.196 338.068 243.486 338.068 241.871C338.068 240.257 338.319 238.031 339.552 236.175C340.785 234.32 342.65 231.222 345.497 230.109" fill="white"/>
<path d="M359.232 234.822C359.232 234.822 359.352 238.291 359.232 241.38C359.112 244.478 356.264 248.931 356.264 248.931C356.264 248.931 354.53 251.157 354.279 253.393C354.029 255.619 353.788 259.089 353.417 259.951C353.046 260.814 344.505 279.766 342.77 280.749C341.036 281.742 339.302 281.371 336.214 279.756C333.116 278.142 325.687 271.092 325.687 271.092C325.687 271.092 323.211 267.753 326.429 264.033C329.647 260.322 332.003 259.701 332.003 259.701L334.229 260.322C334.229 260.322 335.091 253.393 336.214 250.295C337.327 247.196 338.068 243.486 338.068 241.871C338.068 240.257 338.319 238.031 339.552 236.175C340.785 234.32 342.65 231.222 345.497 230.109" stroke="#002E47" stroke-miterlimit="10" stroke-linecap="round" stroke-linejoin="round"/>
<path d="M334.23 260.332C334.23 260.332 334.972 268.996 336.336 271.844L334.23 260.332Z" fill="white"/>
<path d="M334.23 260.332C334.23 260.332 334.972 268.996 336.336 271.844" stroke="#002E47" stroke-miterlimit="10" stroke-linecap="round" stroke-linejoin="round"/>
<path d="M334.27 271.844C334.56 272.857 334.881 273.81 335.212 274.572L334.27 271.844Z" fill="white"/>
<path d="M334.27 271.844C334.56 272.857 334.881 273.81 335.212 274.572" stroke="#002E47" stroke-miterlimit="10" stroke-linecap="round" stroke-linejoin="round"/>
<path d="M332.734 265.035C332.734 265.035 333.115 267.212 333.697 269.648L332.734 265.035Z" fill="white"/>
<path d="M332.734 265.035C332.734 265.035 333.115 267.212 333.697 269.648" stroke="#002E47" stroke-miterlimit="10" stroke-linecap="round" stroke-linejoin="round"/>
<path d="M441.019 146.848H408.096C403.514 146.848 399.795 150.568 399.795 155.151V175.347C399.795 179.929 403.514 183.65 408.096 183.65H411.825L397.68 197.799L421.67 183.65H441.019C445.601 183.65 449.32 179.929 449.32 175.347V155.151C449.31 150.568 445.601 146.848 441.019 146.848Z" fill="white" stroke="#002E47" stroke-miterlimit="10" stroke-linecap="round" stroke-linejoin="round"/>
<path d="M416.769 165.83C416.769 164.286 415.516 163.043 413.982 163.043C412.438 163.043 411.195 164.296 411.195 165.83C411.195 167.375 412.448 168.618 413.982 168.618C415.516 168.618 416.769 167.365 416.769 165.83Z" fill="#002E47"/>
<path d="M427.738 165.83C427.738 164.286 426.485 163.043 424.951 163.043C423.407 163.043 422.164 164.296 422.164 165.83C422.164 167.375 423.417 168.618 424.951 168.618C426.485 168.618 427.738 167.365 427.738 165.83Z" fill="#002E47"/>
<path d="M438.703 165.83C438.703 164.286 437.45 163.043 435.916 163.043C434.382 163.043 433.129 164.296 433.129 165.83C433.129 167.375 434.382 168.618 435.916 168.618C437.45 168.618 438.703 167.365 438.703 165.83Z" fill="#002E47"/>
<path d="M227.729 178.485C227.729 178.485 228.02 184.873 227.519 186.859C227.027 188.834 223.559 191.191 223.559 191.191L223.308 196.014C223.308 196.014 219.348 196.876 216.13 197.749C212.912 198.611 207.598 200.466 205.373 198.982L205.493 185.866C205.493 185.866 202.526 177.202 209.202 172.128C215.879 167.054 222.316 170.764 224.17 172.99C226.025 175.216 227.729 178.485 227.729 178.485Z" fill="white" stroke="#002E47" stroke-miterlimit="10" stroke-linecap="round" stroke-linejoin="round"/>
<path d="M218.964 158.851C218.964 158.851 222.122 157.628 225.1 159.202C228.077 160.776 225.27 165.339 225.27 165.339C225.27 165.339 228.949 167.094 228.598 169.892C228.248 172.699 227.375 173.401 227.375 173.401L227.726 178.485C227.726 178.485 225.972 175.858 224.919 177.964C223.867 180.07 222.293 182.517 222.112 184.622C221.942 186.728 219.656 191.281 215.626 191.983C211.596 192.685 205.46 191.461 204.588 190.058C203.716 188.654 200.036 179.017 201.079 171.125C202.132 163.233 208.087 159.032 211.946 158.33C215.806 157.628 218.964 158.851 218.964 158.851Z" fill="#002E47" stroke="#002E47" stroke-miterlimit="10" stroke-linecap="round" stroke-linejoin="round"/>
<path d="M226.154 179.187C226.154 179.187 225.663 179.187 225.903 182.156C226.154 185.124 225.412 186.367 224.54 185.124C223.678 183.89 223.427 181.644 224.169 179.799C224.921 177.964 226.284 176.961 226.154 179.187Z" fill="white" stroke="#002E47" stroke-miterlimit="10" stroke-linecap="round" stroke-linejoin="round"/>
<path d="M214.142 418.601C214.142 418.601 216.057 421.199 217.421 423.515C218.784 425.831 219.877 427.205 217.832 428.699C215.786 430.204 214.423 430.334 211.415 430.063C208.418 429.792 200.358 427.065 198.864 425.691C197.36 424.327 198.593 421.459 198.593 421.459L200.047 417.739L214.142 418.601Z" fill="white" stroke="#002E47" stroke-miterlimit="10" stroke-linecap="round" stroke-linejoin="round"/>
<path d="M198.151 423.194C201.951 424.839 207.976 427.336 211.966 427.606C215.966 427.877 218.021 427.185 218.954 426.684C219.034 427.386 218.743 428.027 217.831 428.699C215.786 430.204 214.422 430.334 211.415 430.063C208.417 429.792 200.357 427.065 198.863 425.691C198.141 425.049 198.051 424.056 198.151 423.194Z" fill="white" stroke="#002E47" stroke-miterlimit="10" stroke-linecap="round" stroke-linejoin="round"/>
<path d="M159.696 417.097C155.195 417.508 153.831 422.011 152.739 424.468C151.646 426.924 149.871 429.792 150.012 432.109C150.022 432.309 150.052 432.51 150.082 432.7C149.28 430.635 148.929 427.486 149.46 425.691C150.282 422.963 153.47 414.751 153.47 414.751C153.47 414.751 160.879 411.462 166.012 414.751C166.012 414.751 166.513 418.722 165.691 421.048C165.701 421.058 164.198 416.686 159.696 417.097Z" fill="white" stroke="#002E47" stroke-miterlimit="10" stroke-linecap="round" stroke-linejoin="round"/>
<path d="M166.012 414.761C166.012 414.761 166.513 418.732 165.691 421.058C164.869 423.375 163.646 425.431 163.776 426.383C163.916 427.336 166.774 431.026 164.869 432.39C162.954 433.754 153.4 435.117 151.625 434.706C149.851 434.295 148.628 428.429 149.44 425.701C150.262 422.974 153.45 414.761 153.45 414.761C153.45 414.761 160.879 411.472 166.012 414.761Z" fill="white" stroke="#002E47" stroke-miterlimit="10" stroke-linecap="round" stroke-linejoin="round"/>
<path d="M149.258 429.08C149.498 428.459 149.719 427.937 149.849 427.767C150.25 427.225 154.451 415.453 159.323 414.781C162.531 414.34 164.917 416.355 166.171 417.789C166.15 418.902 166.04 420.116 165.709 421.058C165.709 421.058 164.206 416.686 159.704 417.097C155.203 417.508 153.839 422.011 152.747 424.468C151.654 426.924 149.879 429.792 150.02 432.109C150.03 432.309 150.06 432.51 150.09 432.7C149.669 431.668 149.378 430.354 149.258 429.08Z" fill="white" stroke="#002E47" stroke-miterlimit="10" stroke-linecap="round" stroke-linejoin="round"/>
<path d="M232.82 276.106L232.038 314.382L214.163 411.632C214.163 411.632 216.198 412.885 215.727 414.921C215.255 416.957 214.473 419.624 214.473 419.624C214.473 419.624 209.3 422.602 205.381 421.981C201.461 421.349 200.047 417.749 200.047 417.749C200.047 417.749 200.207 412.414 200.518 410.689C200.829 408.965 202.082 405.986 202.243 403.469C202.403 400.962 204.278 394.214 204.278 394.214L204.117 311.394H200.979L176.989 371.781L169.46 403.469C169.46 403.469 170.402 405.826 168.207 407.701C166.011 409.586 165.54 411.311 165.54 411.311L166.011 414.761C166.011 414.761 163.184 413.818 160.206 413.818C157.229 413.818 153.459 414.761 153.459 414.761L152.828 410.208C152.828 410.208 150.943 408.955 151.103 407.852C151.264 406.758 153.61 402.988 153.77 402.045C153.931 401.103 152.517 395.618 152.988 394.204C153.459 392.79 165.059 347.304 165.059 347.304L175.726 296.332L182.783 277.039L232.82 276.106Z" fill="#002E47" stroke="#002E47" stroke-miterlimit="10" stroke-linecap="round" stroke-linejoin="round"/>
<path d="M249.084 122.149C249.084 122.149 247.3 122.25 247.009 123.333C246.708 124.426 248.192 126.501 248.192 126.501C248.192 126.501 248.984 123.242 249.084 122.149Z" fill="white" stroke="#002E47" stroke-miterlimit="10" stroke-linecap="round" stroke-linejoin="round"/>
<path d="M247.007 123.333C247.007 123.333 245.624 124.325 245.724 125.509C245.824 126.692 246.907 127.985 247.508 127.985C248.1 127.985 248.2 126.501 248.2 126.501C248.2 126.501 247.308 124.325 247.007 123.333Z" fill="white" stroke="#002E47" stroke-miterlimit="10" stroke-linecap="round" stroke-linejoin="round"/>
<path d="M245.726 125.519C245.726 125.519 244.543 126.511 245.134 127.895C245.726 129.279 246.718 129.78 246.718 129.78L247.51 127.995C247.5 127.985 246.217 126.501 245.726 125.519Z" fill="white" stroke="#002E47" stroke-miterlimit="10" stroke-linecap="round" stroke-linejoin="round"/>
<path d="M243.727 125.744H260.148V99H243.727V125.744Z" fill="#39B4EF" stroke="#002E47" stroke-miterlimit="10" stroke-linecap="round" stroke-linejoin="round"/>
<path d="M244.934 168.478C244.934 168.478 247.701 154.82 248.493 151.15C249.285 147.49 249.084 140.851 249.084 140.851C249.084 140.851 247.4 138.775 247.109 137.682C246.808 136.589 247.701 134.213 247.701 134.213C247.701 134.213 246.708 132.237 246.708 130.653C246.708 129.068 248.192 126.491 248.192 126.491C248.192 126.491 248.984 124.115 249.084 122.139C249.184 120.164 249.475 118.67 250.568 118.97C251.661 119.271 252.252 119.863 252.252 121.347C252.252 122.831 252.152 125.609 252.152 125.609L257.796 125.809C257.796 125.809 255.911 139.277 256.012 140.159C256.112 141.052 259.48 166.793 259.28 169.26C259.079 171.737 258.789 175.006 258.789 175.006C258.789 175.006 252.162 169.46 249.585 169.36C247.009 169.27 244.934 168.478 244.934 168.478Z" fill="white" stroke="#002E47" stroke-miterlimit="10" stroke-linecap="round" stroke-linejoin="round"/>
<path d="M247.699 134.223L249.855 137.01" stroke="#002E47" stroke-miterlimit="10" stroke-linecap="round" stroke-linejoin="round"/>
<path d="M170.071 254.266C170.071 254.266 168.918 260.042 166.342 265.918C163.765 271.784 163.234 276.407 163.234 276.407C163.234 276.407 165.991 281.742 165.55 283.697C165.109 285.653 163.595 289.473 163.505 290.456C163.414 291.439 162.793 293.214 161.55 292.772C160.307 292.331 159.595 291.168 158.703 290.907C157.81 290.636 154.432 289.042 154.081 287.799C153.73 286.555 154.171 282.815 154.171 282.815C154.171 282.815 155.414 275.244 155.414 274.883C155.414 274.532 155.234 266.63 156.036 260.493C156.838 254.356 157.991 249.382 157.991 249.382C157.991 249.382 163.224 254.175 170.071 254.266Z" fill="white" stroke="#002E47" stroke-miterlimit="10" stroke-linecap="round" stroke-linejoin="round"/>
<path d="M163.675 289.213C163.675 289.213 162.432 289.213 161.991 287.969C161.55 286.726 161.991 284.409 161.991 284.409C161.991 284.409 159.855 283.256 159.855 281.12" fill="white"/>
<path d="M163.675 289.213C163.675 289.213 162.432 289.213 161.991 287.969C161.55 286.726 161.991 284.409 161.991 284.409C161.991 284.409 159.855 283.256 159.855 281.12" stroke="#002E47" stroke-miterlimit="10" stroke-linecap="round" stroke-linejoin="round"/>
<path d="M159.285 281.972C159.285 281.972 159.666 283.126 157.852 283.737L159.285 281.972Z" fill="white"/>
<path d="M159.285 281.972C159.285 281.972 159.666 283.126 157.852 283.737" stroke="#002E47" stroke-miterlimit="10" stroke-linecap="round" stroke-linejoin="round"/>
<path d="M155.703 288.099C155.703 288.099 155.803 286.224 156.265 285.974C156.726 285.723 157.427 285.623 157.688 286.535C157.939 287.448 158.651 288.872 158.199 289.523C157.738 290.185 157.899 290.336 156.676 289.874" fill="white"/>
<path d="M155.703 288.099C155.703 288.099 155.803 286.224 156.265 285.974C156.726 285.723 157.427 285.623 157.688 286.535C157.939 287.448 158.651 288.872 158.199 289.523C157.738 290.185 157.899 290.336 156.676 289.874" stroke="#002E47" stroke-miterlimit="10" stroke-linecap="round" stroke-linejoin="round"/>
<path d="M158.242 286.475C158.242 286.475 159.154 285.863 159.666 286.174C160.177 286.475 160.979 288.049 160.779 289.213C160.578 290.376 160.217 291.138 159.205 290.937" fill="white"/>
<path d="M158.242 286.475C158.242 286.475 159.154 285.863 159.666 286.174C160.177 286.475 160.979 288.049 160.779 289.213C160.578 290.376 160.217 291.138 159.205 290.937" stroke="#002E47" stroke-miterlimit="10" stroke-linecap="round" stroke-linejoin="round"/>
<path d="M160.629 287.287C160.629 287.287 160.99 287.117 161.491 287.538C161.992 287.959 162.504 290.275 162.153 290.987C161.802 291.699 161.591 292.101 160.729 292.05" fill="white"/>
<path d="M160.629 287.287C160.629 287.287 160.99 287.117 161.491 287.538C161.992 287.959 162.504 290.275 162.153 290.987C161.802 291.699 161.591 292.101 160.729 292.05" stroke="#002E47" stroke-miterlimit="10" stroke-linecap="round" stroke-linejoin="round"/>
<path d="M223.307 196.014L238.074 183.78L244.771 171.626C244.771 171.626 250.596 170.513 253.944 173.361C257.292 176.209 257.413 179.187 256.671 180.672C255.929 182.156 243.778 210.173 243.538 210.544C243.287 210.915 237.462 242.774 237.462 242.774C237.462 242.774 233.121 272.747 233.532 274.371C233.933 275.996 234.074 278.693 232.59 278.964C231.106 279.235 200.299 279.776 197.602 280.177C194.895 280.579 189.09 279.094 184.769 278.423C180.448 277.751 182.062 273.419 182.474 271.664C182.875 269.909 185.982 233.819 185.982 233.819L172.609 251.929C172.609 251.929 171.666 253.955 166.533 252.601C161.4 251.247 160.047 245.712 160.047 245.03C160.047 244.358 171.125 225.837 172.749 222.728C174.373 219.62 178.824 207.185 182.885 204.618C186.935 202.051 203.687 198.942 203.687 198.942L223.307 196.014Z" fill="#39B4EF" stroke="#002E47" stroke-miterlimit="10" stroke-linecap="round" stroke-linejoin="round"/>
<path d="M215.325 272.506C214.042 273.519 212.709 274.432 211.355 275.234" stroke="#002E47" stroke-miterlimit="10" stroke-linecap="round" stroke-linejoin="round"/>
<path d="M236.259 245.401C236.259 245.401 228.46 260.994 217.422 270.751" stroke="#002E47" stroke-miterlimit="10" stroke-linecap="round" stroke-linejoin="round"/>
<path d="M227.959 264.464C227.959 264.464 219.357 274.612 211.668 278.603" stroke="#002E47" stroke-miterlimit="10" stroke-linecap="round" stroke-linejoin="round"/>
<path d="M218.424 258.317C218.424 258.317 207.978 269.388 202.133 272.767" stroke="#002E47" stroke-miterlimit="10" stroke-linecap="round" stroke-linejoin="round"/>
<path d="M233.051 222.006C232.329 222.899 231.557 223.831 230.715 224.814" stroke="#002E47" stroke-miterlimit="10" stroke-linecap="round" stroke-linejoin="round"/>
<path d="M240.872 210.665C240.872 210.665 239.208 213.984 235.027 219.489" stroke="#002E47" stroke-miterlimit="10" stroke-linecap="round" stroke-linejoin="round"/>
<path d="M185.973 233.839L187.998 223.581L181.352 240.046L185.973 233.839Z" fill="#002E47" stroke="#002E47" stroke-miterlimit="10" stroke-linecap="round" stroke-linejoin="round"/>
<path d="M226.093 193.968C226.093 193.968 224.338 193.156 223.386 193.026C222.443 192.895 206.764 195.322 205.691 195.463C204.608 195.593 202.312 199.243 202.312 199.243L223.306 196.014L226.093 193.968Z" fill="#39B4EF" stroke="#002E47" stroke-miterlimit="10" stroke-linecap="round" stroke-linejoin="round"/>
<path d="M161.269 241.992C161.269 241.992 161.539 246.705 162.602 248.129C163.665 249.553 168.467 250.445 169.89 250.615C171.314 250.796 173.62 250.706 173.62 250.706C173.62 250.706 172.467 253.463 171.845 254.436C171.224 255.419 169.89 255.68 166.161 255.419C162.432 255.148 157.629 251.508 157.178 250.265C156.737 249.021 158.421 246.263 158.953 244.93C159.494 243.596 161.269 241.992 161.269 241.992Z" fill="#39B4EF" stroke="#002E47" stroke-miterlimit="10" stroke-linecap="round" stroke-linejoin="round"/>
<path d="M243.046 174.514C243.046 174.514 242.354 171.937 243.046 170.553C243.737 169.17 245.321 167.485 246.805 167.485C248.289 167.485 251.948 167.485 255.708 170.453C259.467 173.421 259.668 175.497 259.076 177.182C258.485 178.867 256.901 181.534 256.5 181.534C256.099 181.534 254.424 174.204 249.873 173.411C245.321 172.639 243.046 174.514 243.046 174.514Z" fill="#39B4EF" stroke="#002E47" stroke-miterlimit="10" stroke-linecap="round" stroke-linejoin="round"/>
</g>
<defs>
<clipPath id="clip0_266_52127">
<rect width="488" height="454" fill="white"/>
</clipPath>
</defs>
</svg>
