<svg width="573" height="329" viewBox="0 0 573 329" fill="none" xmlns="http://www.w3.org/2000/svg">
<g clip-path="url(#clip0_266_51740)">
<path d="M567.926 206.248C574.139 164.774 568.783 122.81 542.877 87.0105C513.213 46.0184 466.225 17.0648 416.285 8.8481C407.386 7.38588 398.38 6.5883 389.356 6.53845C367.884 6.41383 346.361 9.76199 326.002 16.6162C291.531 28.2225 261.899 48.5109 235.104 72.6957C223.203 83.4297 211.585 97.163 195.826 102.198C179.467 107.415 161.878 100.702 145.96 96.5981C116.046 88.8715 72.1856 72.2471 42.4129 88.0657C3.32579 108.836 -8.31717 154.53 6.65235 190.255C21.6219 225.98 67.3621 228.472 72.3519 255.889C77.3418 283.306 101.459 324.015 153.853 319.861C206.246 315.707 226.205 270.843 259.471 284.136C271.172 288.814 280.362 297.413 290.316 304.832C304.18 315.167 319.216 322.196 336.281 325.444C360.681 330.08 387.327 327.629 411.994 326.449C440.269 325.087 470.691 326.134 498.135 316.255C527.617 305.646 546.229 282.408 556.217 253.255C561.481 237.91 565.548 222.117 567.926 206.248Z" fill="#39B4EF"/>
<path opacity="0.7" d="M567.926 206.248C574.139 164.774 568.783 122.81 542.877 87.0105C513.213 46.0184 466.225 17.0648 416.285 8.8481C407.386 7.38588 398.38 6.5883 389.356 6.53845C367.884 6.41383 346.361 9.76199 326.002 16.6162C291.531 28.2225 261.899 48.5109 235.104 72.6957C223.203 83.4297 211.585 97.163 195.826 102.198C179.467 107.415 161.878 100.702 145.96 96.5981C116.046 88.8715 72.1856 72.2471 42.4129 88.0657C3.32579 108.836 -8.31717 154.53 6.65235 190.255C21.6219 225.98 67.3621 228.472 72.3519 255.889C77.3418 283.306 101.459 324.015 153.853 319.861C206.246 315.707 226.205 270.843 259.471 284.136C271.172 288.814 280.362 297.413 290.316 304.832C304.18 315.167 319.216 322.196 336.281 325.444C360.681 330.08 387.327 327.629 411.994 326.449C440.269 325.087 470.691 326.134 498.135 316.255C527.617 305.646 546.229 282.408 556.217 253.255C561.481 237.91 565.548 222.117 567.926 206.248Z" fill="white"/>
<path d="M355.109 288.29H499.398C505.137 288.29 509.794 283.638 509.794 277.905V11.2159C509.794 5.48334 505.137 0.830811 499.398 0.830811H81.915C76.1767 0.830811 71.5195 5.48334 71.5195 11.2159V277.905C71.5195 283.638 76.1767 288.29 81.915 288.29H226.205" stroke="#002E47" stroke-miterlimit="10" stroke-linecap="round" stroke-linejoin="round"/>
<path d="M499.815 12.4621H80.668V257.55H499.815V12.4621Z" stroke="#002E47" stroke-miterlimit="10" stroke-linecap="round" stroke-linejoin="round"/>
<path d="M355.107 288.29H226.203V317.327H355.107V288.29Z" stroke="#002E47" stroke-miterlimit="10" stroke-linecap="round" stroke-linejoin="round"/>
<path d="M355.108 317.327H377.563V328.41H203.75V317.327H226.204" stroke="#002E47" stroke-miterlimit="10" stroke-linecap="round" stroke-linejoin="round"/>
<path d="M143.349 90.1427H110.707V46.6665H136.355L143.349 53.4957V90.1427Z" fill="white" stroke="#002E47" stroke-miterlimit="10" stroke-linecap="round" stroke-linejoin="round"/>
<path d="M137.238 52.7812V54.5592L143.351 53.5041L137.238 52.7812Z" fill="#002E47" stroke="#002E47" stroke-miterlimit="10" stroke-linecap="round" stroke-linejoin="round"/>
<path d="M136.355 46.6665V53.5041H143.35L136.355 46.6665Z" fill="white" stroke="#002E47" stroke-miterlimit="10" stroke-linecap="round" stroke-linejoin="round"/>
<path d="M114.855 56.1128H139.979" stroke="#002E47" stroke-miterlimit="10" stroke-linecap="round" stroke-linejoin="round"/>
<path d="M114.855 62.3272H139.979" stroke="#002E47" stroke-miterlimit="10" stroke-linecap="round" stroke-linejoin="round"/>
<path d="M114.855 68.5334H139.979" stroke="#002E47" stroke-miterlimit="10" stroke-linecap="round" stroke-linejoin="round"/>
<path d="M114.855 74.7478H139.979" stroke="#002E47" stroke-miterlimit="10" stroke-linecap="round" stroke-linejoin="round"/>
<path d="M114.855 80.9539H139.979" stroke="#002E47" stroke-miterlimit="10" stroke-linecap="round" stroke-linejoin="round"/>
<path d="M51.168 142.683H62.8608" stroke="#002E47" stroke-miterlimit="10" stroke-linecap="round" stroke-linejoin="round"/>
<path d="M38.2461 142.683H49.0574" stroke="#002E47" stroke-miterlimit="10" stroke-linecap="round" stroke-linejoin="round"/>
<path d="M58.3398 146.372H62.864" stroke="#002E47" stroke-miterlimit="10" stroke-linecap="round" stroke-linejoin="round"/>
<path d="M38.2461 146.372H56.2262" stroke="#002E47" stroke-miterlimit="10" stroke-linecap="round" stroke-linejoin="round"/>
<path d="M61.082 150.061H62.8617" stroke="#002E47" stroke-miterlimit="10" stroke-linecap="round" stroke-linejoin="round"/>
<path d="M51.3789 150.061H58.1318" stroke="#002E47" stroke-miterlimit="10" stroke-linecap="round" stroke-linejoin="round"/>
<path d="M38.2461 150.061H49.4816" stroke="#002E47" stroke-miterlimit="10" stroke-linecap="round" stroke-linejoin="round"/>
<path d="M38.2461 153.749H62.8626" stroke="#002E47" stroke-miterlimit="10" stroke-linecap="round" stroke-linejoin="round"/>
<path d="M58.7617 157.438H62.8617" stroke="#002E47" stroke-miterlimit="10" stroke-linecap="round" stroke-linejoin="round"/>
<path d="M44.6328 157.438H54.546" stroke="#002E47" stroke-miterlimit="10" stroke-linecap="round" stroke-linejoin="round"/>
<path d="M38.2461 157.438H41.6808" stroke="#002E47" stroke-miterlimit="10" stroke-linecap="round" stroke-linejoin="round"/>
<path d="M49.4805 161.127H62.8616" stroke="#002E47" stroke-miterlimit="10" stroke-linecap="round" stroke-linejoin="round"/>
<path d="M38.2461 161.127H47.1613" stroke="#002E47" stroke-miterlimit="10" stroke-linecap="round" stroke-linejoin="round"/>
<path d="M56.2266 164.816H62.863" stroke="#002E47" stroke-miterlimit="10" stroke-linecap="round" stroke-linejoin="round"/>
<path d="M49.6914 164.816H54.332" stroke="#002E47" stroke-miterlimit="10" stroke-linecap="round" stroke-linejoin="round"/>
<path d="M38.2461 164.816H47.1613" stroke="#002E47" stroke-miterlimit="10" stroke-linecap="round" stroke-linejoin="round"/>
<path d="M126.127 192.266H99.207V156.408H120.356L126.127 162.033V192.266Z" fill="#39B4EF" stroke="#002E47" stroke-miterlimit="10" stroke-linecap="round" stroke-linejoin="round"/>
<path d="M121.078 161.451V162.913L126.126 162.041L121.078 161.451Z" fill="#002E47" stroke="#002E47" stroke-miterlimit="10" stroke-linecap="round" stroke-linejoin="round"/>
<path d="M120.355 156.408V162.041H126.127L120.355 156.408Z" fill="white" stroke="#002E47" stroke-miterlimit="10" stroke-linecap="round" stroke-linejoin="round"/>
<path d="M102.625 164.193H123.349" stroke="#002E47" stroke-miterlimit="10" stroke-linecap="round" stroke-linejoin="round"/>
<path d="M102.625 169.319H123.349" stroke="#002E47" stroke-miterlimit="10" stroke-linecap="round" stroke-linejoin="round"/>
<path d="M102.625 174.445H123.349" stroke="#002E47" stroke-miterlimit="10" stroke-linecap="round" stroke-linejoin="round"/>
<path d="M102.625 179.563H123.349" stroke="#002E47" stroke-miterlimit="10" stroke-linecap="round" stroke-linejoin="round"/>
<path d="M102.625 184.689H123.349" stroke="#002E47" stroke-miterlimit="10" stroke-linecap="round" stroke-linejoin="round"/>
<path d="M97.8255 94.1638H65.1836V50.6876H90.8314L97.8255 57.5086V94.1638Z" fill="#39B4EF" stroke="#002E47" stroke-miterlimit="10" stroke-linecap="round" stroke-linejoin="round"/>
<path d="M91.7031 56.8024V58.5803L97.824 57.5252L91.7031 56.8024Z" fill="#002E47" stroke="#002E47" stroke-miterlimit="10" stroke-linecap="round" stroke-linejoin="round"/>
<path d="M90.832 50.6876V57.5252H97.8261L90.832 50.6876Z" fill="white" stroke="#002E47" stroke-miterlimit="10" stroke-linecap="round" stroke-linejoin="round"/>
<path d="M69.3242 60.1339H94.4564" stroke="#002E47" stroke-miterlimit="10" stroke-linecap="round" stroke-linejoin="round"/>
<path d="M69.3242 66.3401H94.4564" stroke="#002E47" stroke-miterlimit="10" stroke-linecap="round" stroke-linejoin="round"/>
<path d="M69.3242 72.5545H94.4564" stroke="#002E47" stroke-miterlimit="10" stroke-linecap="round" stroke-linejoin="round"/>
<path d="M69.3242 78.7689H94.4564" stroke="#002E47" stroke-miterlimit="10" stroke-linecap="round" stroke-linejoin="round"/>
<path d="M69.3242 84.9751H94.4564" stroke="#002E47" stroke-miterlimit="10" stroke-linecap="round" stroke-linejoin="round"/>
<path d="M167.732 114.053H135.09V70.5771H160.738L167.732 77.3981V114.053Z" fill="#39B4EF" stroke="#002E47" stroke-miterlimit="10" stroke-linecap="round" stroke-linejoin="round"/>
<path d="M161.621 76.6836V78.4698L167.734 77.4064L161.621 76.6836Z" fill="#002E47" stroke="#002E47" stroke-miterlimit="10" stroke-linecap="round" stroke-linejoin="round"/>
<path d="M160.738 70.5771V77.4064H167.732L160.738 70.5771Z" fill="white" stroke="#002E47" stroke-miterlimit="10" stroke-linecap="round" stroke-linejoin="round"/>
<path d="M139.238 80.0234H164.362" stroke="#002E47" stroke-miterlimit="10" stroke-linecap="round" stroke-linejoin="round"/>
<path d="M139.238 86.2296H164.362" stroke="#002E47" stroke-miterlimit="10" stroke-linecap="round" stroke-linejoin="round"/>
<path d="M139.238 92.444H164.362" stroke="#002E47" stroke-miterlimit="10" stroke-linecap="round" stroke-linejoin="round"/>
<path d="M139.238 98.6501H164.362" stroke="#002E47" stroke-miterlimit="10" stroke-linecap="round" stroke-linejoin="round"/>
<path d="M139.238 104.865H164.362" stroke="#002E47" stroke-miterlimit="10" stroke-linecap="round" stroke-linejoin="round"/>
<path d="M211.525 162.24H178.883V118.764H204.531L211.525 125.585V162.24Z" fill="white" stroke="#002E47" stroke-miterlimit="10" stroke-linecap="round" stroke-linejoin="round"/>
<path d="M205.402 124.87V126.657L211.523 125.593L205.402 124.87Z" fill="#002E47" stroke="#002E47" stroke-miterlimit="10" stroke-linecap="round" stroke-linejoin="round"/>
<path d="M204.531 118.764V125.593H211.525L204.531 118.764Z" fill="white" stroke="#002E47" stroke-miterlimit="10" stroke-linecap="round" stroke-linejoin="round"/>
<path d="M183.023 128.21H208.156" stroke="#002E47" stroke-miterlimit="10" stroke-linecap="round" stroke-linejoin="round"/>
<path d="M183.023 134.416H208.156" stroke="#002E47" stroke-miterlimit="10" stroke-linecap="round" stroke-linejoin="round"/>
<path d="M183.023 140.631H208.156" stroke="#002E47" stroke-miterlimit="10" stroke-linecap="round" stroke-linejoin="round"/>
<path d="M183.023 146.837H208.156" stroke="#002E47" stroke-miterlimit="10" stroke-linecap="round" stroke-linejoin="round"/>
<path d="M183.023 153.051H208.156" stroke="#002E47" stroke-miterlimit="10" stroke-linecap="round" stroke-linejoin="round"/>
<path d="M120.431 139.908H84.512C80.5617 139.908 77.3516 136.709 77.3516 132.755V90.1011C77.3516 86.1548 80.5534 82.9479 84.512 82.9479H120.431C124.381 82.9479 127.591 86.1465 127.591 90.1011V132.755C127.591 136.701 124.389 139.908 120.431 139.908Z" fill="white" stroke="#002E47" stroke-miterlimit="10" stroke-linecap="round" stroke-linejoin="round"/>
<path d="M122.01 82.9479H82.9397C79.8543 82.9479 77.3594 85.4486 77.3594 88.5226V89.719H127.599V88.5226C127.59 85.4486 125.096 82.9479 122.01 82.9479Z" fill="#002E47" stroke="#002E47" stroke-miterlimit="10" stroke-linecap="round" stroke-linejoin="round"/>
<path d="M84.5273 99.6804H120.413" stroke="#002E47" stroke-miterlimit="10" stroke-linecap="round" stroke-linejoin="round"/>
<path d="M84.5273 108.437H120.413" stroke="#002E47" stroke-miterlimit="10" stroke-linecap="round" stroke-linejoin="round"/>
<path d="M84.5273 117.202H120.413" stroke="#002E47" stroke-miterlimit="10" stroke-linecap="round" stroke-linejoin="round"/>
<path d="M84.5273 125.967H120.413" stroke="#002E47" stroke-miterlimit="10" stroke-linecap="round" stroke-linejoin="round"/>
<path d="M114.799 86.1382C114.799 85.2575 114.084 84.543 113.202 84.543C112.321 84.543 111.605 85.2575 111.605 86.1382C111.605 87.0188 112.321 87.7333 113.202 87.7333C114.084 87.7333 114.799 87.0188 114.799 86.1382Z" fill="white"/>
<path d="M120.057 86.1382C120.057 85.2575 119.342 84.543 118.46 84.543C117.578 84.543 116.863 85.2575 116.863 86.1382C116.863 87.0188 117.578 87.7333 118.46 87.7333C119.342 87.7333 120.057 87.0188 120.057 86.1382Z" fill="white"/>
<path d="M125.303 86.1382C125.303 85.2575 124.588 84.543 123.706 84.543C122.825 84.543 122.109 85.2575 122.109 86.1382C122.109 87.0188 122.825 87.7333 123.706 87.7333C124.596 87.7333 125.303 87.0188 125.303 86.1382Z" fill="white"/>
<path d="M86.0056 169.086H65.4807C61.5304 169.086 58.3203 165.887 58.3203 161.933V136.734C58.3203 132.788 61.5221 129.581 65.4807 129.581H86.0056C89.9559 129.581 93.166 132.78 93.166 136.734V161.933C93.1577 165.879 89.9559 169.086 86.0056 169.086Z" fill="white" stroke="#002E47" stroke-miterlimit="10" stroke-linecap="round" stroke-linejoin="round"/>
<path d="M89.2901 129.589H62.1953C60.0579 129.589 58.3281 131.318 58.3281 133.453V134.284H93.1655V133.453C93.1572 131.318 91.4274 129.589 89.2901 129.589Z" fill="#002E47" stroke="#002E47" stroke-miterlimit="10" stroke-linecap="round" stroke-linejoin="round"/>
<path d="M63.3008 141.188H88.1834" stroke="#002E47" stroke-miterlimit="10" stroke-linecap="round" stroke-linejoin="round"/>
<path d="M63.3008 147.261H88.1834" stroke="#002E47" stroke-miterlimit="10" stroke-linecap="round" stroke-linejoin="round"/>
<path d="M63.3008 153.342H88.1834" stroke="#002E47" stroke-miterlimit="10" stroke-linecap="round" stroke-linejoin="round"/>
<path d="M63.3008 159.415H88.1834" stroke="#002E47" stroke-miterlimit="10" stroke-linecap="round" stroke-linejoin="round"/>
<path d="M83.1881 132.896C83.799 132.896 84.2942 132.401 84.2942 131.791C84.2942 131.181 83.799 130.686 83.1881 130.686C82.5772 130.686 82.082 131.181 82.082 131.791C82.082 132.401 82.5772 132.896 83.1881 132.896Z" fill="white"/>
<path d="M86.8287 132.896C87.4396 132.896 87.9348 132.401 87.9348 131.791C87.9348 131.181 87.4396 130.686 86.8287 130.686C86.2179 130.686 85.7227 131.181 85.7227 131.791C85.7227 132.401 86.2179 132.896 86.8287 132.896Z" fill="white"/>
<path d="M91.5793 131.791C91.5793 131.185 91.0804 130.686 90.4733 130.686C89.8662 130.686 89.3672 131.185 89.3672 131.791C89.3672 132.398 89.8662 132.896 90.4733 132.896C91.0804 132.896 91.5793 132.406 91.5793 131.791Z" fill="white"/>
<path d="M75.5625 180.975H87.2554" stroke="#002E47" stroke-miterlimit="10" stroke-linecap="round" stroke-linejoin="round"/>
<path d="M62.6289 180.975H73.4485" stroke="#002E47" stroke-miterlimit="10" stroke-linecap="round" stroke-linejoin="round"/>
<path d="M82.7305 184.664H87.2546" stroke="#002E47" stroke-miterlimit="10" stroke-linecap="round" stroke-linejoin="round"/>
<path d="M62.6289 184.664H80.6173" stroke="#002E47" stroke-miterlimit="10" stroke-linecap="round" stroke-linejoin="round"/>
<path d="M85.4648 188.352H87.2529" stroke="#002E47" stroke-miterlimit="10" stroke-linecap="round" stroke-linejoin="round"/>
<path d="M75.7695 188.352H82.5141" stroke="#002E47" stroke-miterlimit="10" stroke-linecap="round" stroke-linejoin="round"/>
<path d="M62.6289 188.352H73.8727" stroke="#002E47" stroke-miterlimit="10" stroke-linecap="round" stroke-linejoin="round"/>
<path d="M62.6289 192.041H87.2538" stroke="#002E47" stroke-miterlimit="10" stroke-linecap="round" stroke-linejoin="round"/>
<path d="M83.1523 195.73H87.2523" stroke="#002E47" stroke-miterlimit="10" stroke-linecap="round" stroke-linejoin="round"/>
<path d="M69.0234 195.73H78.9283" stroke="#002E47" stroke-miterlimit="10" stroke-linecap="round" stroke-linejoin="round"/>
<path d="M62.6289 195.73H66.0719" stroke="#002E47" stroke-miterlimit="10" stroke-linecap="round" stroke-linejoin="round"/>
<path d="M73.8711 199.419H87.2522" stroke="#002E47" stroke-miterlimit="10" stroke-linecap="round" stroke-linejoin="round"/>
<path d="M62.6289 199.419H71.5524" stroke="#002E47" stroke-miterlimit="10" stroke-linecap="round" stroke-linejoin="round"/>
<path d="M80.6172 203.108H87.2537" stroke="#002E47" stroke-miterlimit="10" stroke-linecap="round" stroke-linejoin="round"/>
<path d="M74.082 203.108H78.7226" stroke="#002E47" stroke-miterlimit="10" stroke-linecap="round" stroke-linejoin="round"/>
<path d="M62.6289 203.108H71.5524" stroke="#002E47" stroke-miterlimit="10" stroke-linecap="round" stroke-linejoin="round"/>
<path d="M158.215 176.015H169.916" stroke="#002E47" stroke-miterlimit="10" stroke-linecap="round" stroke-linejoin="round"/>
<path d="M145.293 176.015H156.113" stroke="#002E47" stroke-miterlimit="10" stroke-linecap="round" stroke-linejoin="round"/>
<path d="M165.387 179.712H169.919" stroke="#002E47" stroke-miterlimit="10" stroke-linecap="round" stroke-linejoin="round"/>
<path d="M145.293 179.712H163.281" stroke="#002E47" stroke-miterlimit="10" stroke-linecap="round" stroke-linejoin="round"/>
<path d="M168.129 183.401H169.917" stroke="#002E47" stroke-miterlimit="10" stroke-linecap="round" stroke-linejoin="round"/>
<path d="M158.434 183.401H165.178" stroke="#002E47" stroke-miterlimit="10" stroke-linecap="round" stroke-linejoin="round"/>
<path d="M145.293 183.401H156.537" stroke="#002E47" stroke-miterlimit="10" stroke-linecap="round" stroke-linejoin="round"/>
<path d="M145.293 187.09H169.918" stroke="#002E47" stroke-miterlimit="10" stroke-linecap="round" stroke-linejoin="round"/>
<path d="M165.809 190.779H169.917" stroke="#002E47" stroke-miterlimit="10" stroke-linecap="round" stroke-linejoin="round"/>
<path d="M151.68 190.779H161.593" stroke="#002E47" stroke-miterlimit="10" stroke-linecap="round" stroke-linejoin="round"/>
<path d="M145.293 190.779H148.728" stroke="#002E47" stroke-miterlimit="10" stroke-linecap="round" stroke-linejoin="round"/>
<path d="M156.535 194.467H169.916" stroke="#002E47" stroke-miterlimit="10" stroke-linecap="round" stroke-linejoin="round"/>
<path d="M145.293 194.467H154.216" stroke="#002E47" stroke-miterlimit="10" stroke-linecap="round" stroke-linejoin="round"/>
<path d="M163.281 198.156H169.918" stroke="#002E47" stroke-miterlimit="10" stroke-linecap="round" stroke-linejoin="round"/>
<path d="M156.746 198.156H161.387" stroke="#002E47" stroke-miterlimit="10" stroke-linecap="round" stroke-linejoin="round"/>
<path d="M145.293 198.156H154.216" stroke="#002E47" stroke-miterlimit="10" stroke-linecap="round" stroke-linejoin="round"/>
<path d="M185.582 92.336H197.275" stroke="#002E47" stroke-miterlimit="10" stroke-linecap="round" stroke-linejoin="round"/>
<path d="M172.648 92.336H183.468" stroke="#002E47" stroke-miterlimit="10" stroke-linecap="round" stroke-linejoin="round"/>
<path d="M192.75 96.0248H197.274" stroke="#002E47" stroke-miterlimit="10" stroke-linecap="round" stroke-linejoin="round"/>
<path d="M172.648 96.0248H190.637" stroke="#002E47" stroke-miterlimit="10" stroke-linecap="round" stroke-linejoin="round"/>
<path d="M195.484 99.7136H197.272" stroke="#002E47" stroke-miterlimit="10" stroke-linecap="round" stroke-linejoin="round"/>
<path d="M185.789 99.7136H192.534" stroke="#002E47" stroke-miterlimit="10" stroke-linecap="round" stroke-linejoin="round"/>
<path d="M172.648 99.7136H183.892" stroke="#002E47" stroke-miterlimit="10" stroke-linecap="round" stroke-linejoin="round"/>
<path d="M172.648 103.402H197.273" stroke="#002E47" stroke-miterlimit="10" stroke-linecap="round" stroke-linejoin="round"/>
<path d="M193.172 107.091H197.272" stroke="#002E47" stroke-miterlimit="10" stroke-linecap="round" stroke-linejoin="round"/>
<path d="M179.043 107.091H188.948" stroke="#002E47" stroke-miterlimit="10" stroke-linecap="round" stroke-linejoin="round"/>
<path d="M172.648 107.091H176.091" stroke="#002E47" stroke-miterlimit="10" stroke-linecap="round" stroke-linejoin="round"/>
<path d="M183.891 110.78H197.272" stroke="#002E47" stroke-miterlimit="10" stroke-linecap="round" stroke-linejoin="round"/>
<path d="M172.648 110.78H181.572" stroke="#002E47" stroke-miterlimit="10" stroke-linecap="round" stroke-linejoin="round"/>
<path d="M190.637 114.469H197.273" stroke="#002E47" stroke-miterlimit="10" stroke-linecap="round" stroke-linejoin="round"/>
<path d="M184.102 114.469H188.742" stroke="#002E47" stroke-miterlimit="10" stroke-linecap="round" stroke-linejoin="round"/>
<path d="M172.648 114.469H181.572" stroke="#002E47" stroke-miterlimit="10" stroke-linecap="round" stroke-linejoin="round"/>
<path d="M57.293 100.669H68.9858" stroke="#002E47" stroke-miterlimit="10" stroke-linecap="round" stroke-linejoin="round"/>
<path d="M44.3594 100.669H55.179" stroke="#002E47" stroke-miterlimit="10" stroke-linecap="round" stroke-linejoin="round"/>
<path d="M64.4609 104.358H68.9851" stroke="#002E47" stroke-miterlimit="10" stroke-linecap="round" stroke-linejoin="round"/>
<path d="M44.3594 104.358H62.3478" stroke="#002E47" stroke-miterlimit="10" stroke-linecap="round" stroke-linejoin="round"/>
<path d="M67.2031 108.047H68.9828" stroke="#002E47" stroke-miterlimit="10" stroke-linecap="round" stroke-linejoin="round"/>
<path d="M57.5 108.047H64.2529" stroke="#002E47" stroke-miterlimit="10" stroke-linecap="round" stroke-linejoin="round"/>
<path d="M44.3594 108.047H55.6032" stroke="#002E47" stroke-miterlimit="10" stroke-linecap="round" stroke-linejoin="round"/>
<path d="M44.3594 111.735H68.9842" stroke="#002E47" stroke-miterlimit="10" stroke-linecap="round" stroke-linejoin="round"/>
<path d="M64.8828 115.424H68.9828" stroke="#002E47" stroke-miterlimit="10" stroke-linecap="round" stroke-linejoin="round"/>
<path d="M50.7539 115.424H60.6671" stroke="#002E47" stroke-miterlimit="10" stroke-linecap="round" stroke-linejoin="round"/>
<path d="M44.3594 115.424H47.8024" stroke="#002E47" stroke-miterlimit="10" stroke-linecap="round" stroke-linejoin="round"/>
<path d="M55.6016 119.113H68.9826" stroke="#002E47" stroke-miterlimit="10" stroke-linecap="round" stroke-linejoin="round"/>
<path d="M44.3594 119.113H53.2829" stroke="#002E47" stroke-miterlimit="10" stroke-linecap="round" stroke-linejoin="round"/>
<path d="M62.3477 122.802H68.9841" stroke="#002E47" stroke-miterlimit="10" stroke-linecap="round" stroke-linejoin="round"/>
<path d="M55.8125 122.802H60.4531" stroke="#002E47" stroke-miterlimit="10" stroke-linecap="round" stroke-linejoin="round"/>
<path d="M44.3594 122.802H53.2829" stroke="#002E47" stroke-miterlimit="10" stroke-linecap="round" stroke-linejoin="round"/>
<path d="M130.418 129.897V166.552H163.06V123.076H137.42L130.418 129.897Z" fill="white" stroke="#002E47" stroke-miterlimit="10" stroke-linecap="round" stroke-linejoin="round"/>
<path d="M136.539 129.191V130.969L130.418 129.913L136.539 129.191Z" fill="#002E47" stroke="#002E47" stroke-miterlimit="10" stroke-linecap="round" stroke-linejoin="round"/>
<path d="M137.412 123.076V129.913H130.418L137.412 123.076Z" fill="white" stroke="#002E47" stroke-miterlimit="10" stroke-linecap="round" stroke-linejoin="round"/>
<path d="M158.917 132.522H133.785" stroke="#002E47" stroke-miterlimit="10" stroke-linecap="round" stroke-linejoin="round"/>
<path d="M158.917 138.728H133.785" stroke="#002E47" stroke-miterlimit="10" stroke-linecap="round" stroke-linejoin="round"/>
<path d="M158.917 144.943H133.785" stroke="#002E47" stroke-miterlimit="10" stroke-linecap="round" stroke-linejoin="round"/>
<path d="M158.917 151.157H133.785" stroke="#002E47" stroke-miterlimit="10" stroke-linecap="round" stroke-linejoin="round"/>
<path d="M163.06 156.408H130.418V166.56H163.06V156.408Z" fill="#002E47" stroke="#002E47" stroke-miterlimit="10" stroke-linecap="round" stroke-linejoin="round"/>
<path d="M168.099 132.747H145.512V143.614H168.099V132.747Z" fill="#002E47" stroke="#002E47" stroke-miterlimit="10" stroke-linecap="round" stroke-linejoin="round"/>
<path opacity="0.2" d="M553.937 163.835L548.174 163.694L548.091 166.967C546.644 167.117 545.238 167.424 543.9 167.881L542.286 164.915L537.221 167.665L538.785 170.54C537.629 171.387 536.564 172.351 535.616 173.431L532.731 171.67L529.728 176.58L532.514 178.283C531.941 179.579 531.508 180.942 531.225 182.371L527.841 182.288L527.699 188.045L530.976 188.128C531.126 189.574 531.433 190.978 531.891 192.315L528.922 193.927L531.674 198.987L534.552 197.425C535.4 198.58 536.365 199.643 537.446 200.59L535.683 203.473L540.598 206.472L542.303 203.689C543.6 204.262 544.964 204.694 546.394 204.977L546.311 208.358L552.075 208.5L552.158 205.226C553.605 205.077 555.01 204.769 556.349 204.312L557.963 207.278L563.027 204.528L561.464 201.654C562.62 200.806 563.684 199.843 564.632 198.762L567.518 200.524L570.52 195.614L567.734 193.911C568.308 192.615 568.741 191.252 569.023 189.823L572.408 189.906L572.55 184.149L569.273 184.065C569.123 182.62 568.815 181.216 568.358 179.878L571.327 178.266L568.574 173.207L565.697 174.769C564.849 173.614 563.884 172.551 562.803 171.603L564.566 168.72L559.651 165.721L557.946 168.504C556.649 167.931 555.285 167.499 553.854 167.217L553.937 163.835ZM549.779 199.951C542.12 199.759 536.074 193.404 536.265 185.752C536.456 178.1 542.818 172.06 550.478 172.251C558.137 172.442 564.183 178.798 563.992 186.45C563.801 194.093 557.439 200.142 549.779 199.951Z" stroke="#002E47" stroke-miterlimit="10" stroke-linecap="round" stroke-linejoin="round"/>
<path opacity="0.2" d="M537.664 120.833L531.901 120.691L531.818 123.965C530.371 124.114 528.965 124.422 527.626 124.879L526.013 121.913L520.948 124.663L522.512 127.537C521.356 128.385 520.291 129.348 519.343 130.429L516.457 128.667L513.455 133.577L516.241 135.28C515.667 136.577 515.235 137.939 514.952 139.368L511.567 139.285L511.426 145.042L514.702 145.126C514.852 146.571 515.16 147.975 515.617 149.313L512.648 150.925L515.401 155.984L518.278 154.422C519.127 155.577 520.091 156.641 521.173 157.588L519.41 160.471L524.324 163.47L526.029 160.687C527.327 161.26 528.691 161.692 530.121 161.974L530.038 165.356L535.801 165.497L535.884 162.224C537.331 162.074 538.737 161.767 540.076 161.31L541.689 164.276L546.754 161.526L545.19 158.651C546.346 157.804 547.411 156.84 548.359 155.76L551.245 157.521L554.247 152.611L551.461 150.908C552.035 149.612 552.467 148.249 552.75 146.82L556.135 146.903L556.276 141.146L552.999 141.063C552.85 139.617 552.542 138.213 552.085 136.876L555.054 135.264L552.301 130.204L549.423 131.766C548.575 130.611 547.61 129.548 546.529 128.601L548.292 125.718L543.377 122.719L541.673 125.502C540.375 124.929 539.011 124.497 537.581 124.214L537.664 120.833ZM533.506 156.94C525.846 156.749 519.8 150.393 519.992 142.741C520.183 135.089 526.545 129.049 534.204 129.24C541.864 129.432 547.91 135.787 547.719 143.439C547.527 151.091 541.165 157.131 533.506 156.94Z" stroke="#002E47" stroke-miterlimit="10" stroke-linecap="round" stroke-linejoin="round"/>
<path opacity="0.2" d="M257.342 67.2622V61.5047H254.066C253.874 60.0591 253.533 58.6633 253.043 57.3423L255.97 55.6558L253.093 50.671L250.257 52.3076C249.383 51.1694 248.386 50.1309 247.288 49.217L248.984 46.2926L243.994 43.418L242.356 46.2511C241.05 45.711 239.67 45.3122 238.231 45.063V41.6816H232.468V44.955C231.021 45.1461 229.624 45.4867 228.301 45.9769L226.613 43.0524L221.623 45.927L223.262 48.7601C222.122 49.6324 221.083 50.6294 220.168 51.7344L217.241 50.0478L214.363 55.0327L217.199 56.6694C216.658 57.9738 216.259 59.3529 216.01 60.7902H212.625V66.5477H215.902C216.093 67.9933 216.434 69.3891 216.925 70.71L213.997 72.3966L216.875 77.3814L219.711 75.7447C220.584 76.8829 221.582 77.9215 222.688 78.8353L221 81.7598L225.989 84.6344L227.628 81.8013C228.933 82.3414 230.314 82.7401 231.753 82.9894V86.3708H237.516V83.0974C238.963 82.9063 240.36 82.5657 241.682 82.0755L243.371 84.9999L248.361 82.1254L246.722 79.2923C247.862 78.4199 248.901 77.423 249.816 76.318L252.743 78.0045L255.621 73.0197L252.785 71.383C253.325 70.0786 253.725 68.6995 253.974 67.2622H257.342ZM221.099 64.0137C221.099 56.362 227.312 50.1559 234.971 50.1559C242.631 50.1559 248.843 56.362 248.843 64.0137C248.843 71.6655 242.631 77.8716 234.971 77.8716C227.312 77.8716 221.099 71.6655 221.099 64.0137Z" stroke="#002E47" stroke-miterlimit="10" stroke-linecap="round" stroke-linejoin="round"/>
<path opacity="0.2" d="M299.963 49.9232V44.1657H296.687C296.495 42.7201 296.154 41.3244 295.664 40.0034L298.591 38.3168L295.714 33.332L292.878 34.9687C292.005 33.8305 291.007 32.792 289.909 31.8781L291.605 28.9536L286.616 26.079L284.977 28.9121C283.672 28.3721 282.291 27.9733 280.852 27.724V24.3427H275.089V27.616C273.642 27.8071 272.245 28.1478 270.922 28.6379L269.234 25.7135L264.244 28.5881L265.883 31.4211C264.743 32.2935 263.704 33.2905 262.789 34.3954L259.862 32.7006L256.984 37.6854L259.82 39.3221C259.28 40.6265 258.88 42.0056 258.631 43.4429H255.246V49.2004H258.523C258.714 50.646 259.055 52.0418 259.546 53.3628L256.618 55.0493L259.496 60.0342L262.332 58.3975C263.205 59.5357 264.203 60.5742 265.309 61.4881L263.612 64.4125L268.602 67.2871L270.241 64.4541C271.546 64.9941 272.927 65.3929 274.365 65.6421V69.0235H280.129V65.7501C281.576 65.559 282.973 65.2184 284.295 64.7282L285.984 67.6527L290.973 64.7781L289.335 61.945C290.474 61.0727 291.514 60.0757 292.429 58.979L295.356 60.6656L298.234 55.6807L295.398 54.044C295.938 52.7397 296.337 51.3605 296.587 49.9232H299.963ZM263.729 46.6748C263.729 39.023 269.941 32.8169 277.601 32.8169C285.26 32.8169 291.472 39.023 291.472 46.6748C291.472 54.3265 285.26 60.5327 277.601 60.5327C269.941 60.5327 263.729 54.3265 263.729 46.6748Z" stroke="#002E47" stroke-miterlimit="10" stroke-linecap="round" stroke-linejoin="round"/>
<g opacity="0.2">
<path d="M128.255 234.13C136.385 234.13 142.975 227.546 142.975 219.425C142.975 211.303 136.385 204.719 128.255 204.719C120.126 204.719 113.535 211.303 113.535 219.425C113.535 227.546 120.126 234.13 128.255 234.13Z" stroke="#002E47" stroke-miterlimit="10" stroke-linecap="round" stroke-linejoin="round"/>
<path d="M139.324 221.51C140.472 215.413 136.456 209.54 130.353 208.393C124.25 207.246 118.372 211.259 117.224 217.356C116.075 223.453 120.092 229.325 126.195 230.472C132.298 231.619 138.176 227.606 139.324 221.51Z" stroke="#002E47" stroke-miterlimit="10" stroke-linecap="round" stroke-linejoin="round"/>
<path d="M149.811 229.511L141.861 225.215L140.547 227.641L148.497 231.937C148.131 232.61 148.381 233.449 149.055 233.814L164.199 242.006C164.872 242.372 165.712 242.122 166.078 241.449L167.401 239.015C167.766 238.342 167.517 237.503 166.843 237.138L151.699 228.946C151.017 228.589 150.177 228.838 149.811 229.511Z" stroke="#002E47" stroke-miterlimit="10"/>
</g>
<path opacity="0.2" d="M375.902 50.6793C375.902 59.5523 368.7 66.7471 359.818 66.7471C350.944 66.7471 343.742 59.5523 343.742 50.6793C343.742 41.8146 350.944 34.6198 359.818 34.6198" stroke="#002E47" stroke-miterlimit="10" stroke-linecap="round" stroke-linejoin="round"/>
<path opacity="0.2" d="M375.9 50.6793H359.816V34.6198C368.698 34.6198 375.9 41.8146 375.9 50.6793Z" stroke="#002E47" stroke-miterlimit="10" stroke-linecap="round" stroke-linejoin="round"/>
<path opacity="0.2" d="M374.238 39.6046L382.555 32.9581H394.198" stroke="#002E47" stroke-miterlimit="10" stroke-linecap="round" stroke-linejoin="round"/>
<path opacity="0.2" d="M400.852 32.9581H416.37" stroke="#002E47" stroke-miterlimit="10" stroke-linecap="round" stroke-linejoin="round"/>
<path opacity="0.2" d="M400.852 37.943H416.37" stroke="#002E47" stroke-miterlimit="10" stroke-linecap="round" stroke-linejoin="round"/>
<path opacity="0.2" d="M400.852 42.9278H416.37" stroke="#002E47" stroke-miterlimit="10" stroke-linecap="round" stroke-linejoin="round"/>
<path opacity="0.2" d="M400.852 47.9127H416.37" stroke="#002E47" stroke-miterlimit="10" stroke-linecap="round" stroke-linejoin="round"/>
<g opacity="0.2">
<path d="M197.28 221.917L196.681 218.993H186.152L186.751 221.917L187.292 224.526L190.868 241.973H218.977L214.869 221.917H197.28Z" stroke="#002E47" stroke-miterlimit="10" stroke-linecap="round" stroke-linejoin="round"/>
<path d="M218.977 241.973L224.158 223.271H215.301" stroke="#002E47" stroke-miterlimit="10" stroke-linecap="round" stroke-linejoin="round"/>
</g>
<g opacity="0.2">
<path d="M236.752 221.917L236.154 218.993H225.625L226.224 221.917L226.764 224.526L230.34 241.973H258.45L254.333 221.917H236.752Z" stroke="#002E47" stroke-miterlimit="10" stroke-linecap="round" stroke-linejoin="round"/>
<path d="M258.449 241.973L263.63 223.271H254.773" stroke="#002E47" stroke-miterlimit="10" stroke-linecap="round" stroke-linejoin="round"/>
</g>
<path d="M296.444 175.242C297.293 175.242 297.975 175.915 297.975 176.746V186.251C297.975 187.081 297.284 187.754 296.444 187.754C295.596 187.754 294.914 187.081 294.914 186.251V176.746C294.906 175.915 295.596 175.242 296.444 175.242Z" fill="#002E47"/>
<path d="M292.761 175.242C293.609 175.242 294.291 175.915 294.291 176.746V186.251C294.291 187.081 293.601 187.754 292.761 187.754C291.912 187.754 291.23 187.081 291.23 186.251V176.746C291.23 175.915 291.921 175.242 292.761 175.242Z" fill="#002E47"/>
<path d="M289.085 175.242C289.933 175.242 290.615 175.915 290.615 176.746V186.251C290.615 187.081 289.925 187.754 289.085 187.754C288.237 187.754 287.555 187.081 287.555 186.251V176.746C287.555 175.915 288.237 175.242 289.085 175.242Z" fill="#002E47"/>
<path d="M285.401 175.242C286.25 175.242 286.932 175.915 286.932 176.746V186.251C286.932 187.081 286.241 187.754 285.401 187.754C284.553 187.754 283.871 187.081 283.871 186.251V176.746C283.871 175.915 284.561 175.242 285.401 175.242Z" fill="#002E47"/>
<path d="M281.726 175.242C282.574 175.242 283.256 175.915 283.256 176.746V186.251C283.256 187.081 282.565 187.754 281.726 187.754C280.877 187.754 280.195 187.081 280.195 186.251V176.746C280.195 175.915 280.877 175.242 281.726 175.242Z" fill="#002E47"/>
<path d="M278.042 175.242C278.89 175.242 279.572 175.915 279.572 176.746V186.251C279.572 187.081 278.882 187.754 278.042 187.754C277.194 187.754 276.512 187.081 276.512 186.251V176.746C276.512 175.915 277.202 175.242 278.042 175.242Z" fill="#002E47"/>
<path d="M274.366 175.242C275.214 175.242 275.896 175.915 275.896 176.746V186.251C275.896 187.081 275.206 187.754 274.366 187.754C273.518 187.754 272.836 187.081 272.836 186.251V176.746C272.836 175.915 273.518 175.242 274.366 175.242Z" fill="#002E47"/>
<path d="M270.69 175.242C271.539 175.242 272.221 175.915 272.221 176.746V186.251C272.221 187.081 271.53 187.754 270.69 187.754C269.842 187.754 269.16 187.081 269.16 186.251V176.746C269.152 175.915 269.842 175.242 270.69 175.242Z" fill="#002E47"/>
<path d="M267.007 175.242C267.855 175.242 268.537 175.915 268.537 176.746V186.251C268.537 187.081 267.847 187.754 267.007 187.754C266.159 187.754 265.477 187.081 265.477 186.251V176.746C265.477 175.915 266.159 175.242 267.007 175.242Z" fill="#002E47"/>
<path d="M263.331 175.242C264.179 175.242 264.861 175.915 264.861 176.746V186.251C264.861 187.081 264.171 187.754 263.331 187.754C262.483 187.754 261.801 187.081 261.801 186.251V176.746C261.793 175.915 262.483 175.242 263.331 175.242Z" fill="#002E47"/>
<path d="M259.647 175.242C260.496 175.242 261.178 175.915 261.178 176.746V186.251C261.178 187.081 260.487 187.754 259.647 187.754C258.799 187.754 258.117 187.081 258.117 186.251V176.746C258.117 175.915 258.799 175.242 259.647 175.242Z" fill="#002E47"/>
<path d="M257.019 175.242C257.036 175.242 256.961 175.409 257.052 175.683C257.327 175.957 257.502 176.331 257.502 176.746V186.251C257.502 186.666 257.327 187.04 257.052 187.314C256.587 187.588 255.755 187.754 254.923 187.754C253.194 187.754 252.096 187.081 252.478 186.251L256.404 176.746C256.778 175.915 257.052 175.242 257.019 175.242Z" fill="#002E47"/>
<path d="M257.019 175.242C256.986 175.242 256.637 175.915 256.254 176.746L251.397 186.251C251.015 187.081 249.293 187.754 247.563 187.754C245.834 187.754 245.135 187.081 246 186.251L255.514 176.746C255.913 176.356 256.279 176.007 256.612 175.683C256.878 175.409 257.019 175.242 257.019 175.242Z" fill="#002E47"/>
<path d="M257.017 175.242C257.017 175.242 256.85 175.375 256.576 175.649C256.252 175.982 255.902 176.347 255.511 176.746L245.997 186.251C245.166 187.115 244.492 186.384 244.492 184.622C244.492 182.853 245.166 181.116 245.997 180.742L255.511 175.998C256.343 175.616 257.017 175.284 257.017 175.242Z" fill="#002E47"/>
<path d="M257.017 175.242C257.017 175.201 256.343 175.475 255.511 175.841L245.997 179.637C245.166 180.003 244.492 178.873 244.492 177.103C244.492 176.671 244.534 176.256 244.609 175.882C244.65 175.691 244.692 175.517 244.75 175.35C244.775 175.251 244.808 175.209 244.833 175.176C244.866 175.134 244.9 175.101 244.933 175.068C245.207 174.785 245.582 174.611 245.997 174.611H255.511C255.927 174.611 256.301 174.785 256.576 175.068C256.609 175.101 256.642 175.143 256.676 175.176C256.709 175.217 256.734 175.259 256.759 175.242H256.9C256.967 175.251 257.017 175.242 257.017 175.242Z" fill="#002E47"/>
<path d="M257.017 172.418C257.017 173.282 256.343 173.98 255.511 173.98H245.997C245.166 173.98 244.492 173.282 244.492 172.418C244.492 171.554 245.166 170.856 245.997 170.856H255.511C256.343 170.847 257.017 171.554 257.017 172.418Z" fill="#002E47"/>
<path d="M257.017 168.654C257.017 169.518 256.343 170.216 255.511 170.216H245.997C245.166 170.216 244.492 169.518 244.492 168.654C244.492 167.79 245.166 167.092 245.997 167.092H255.511C256.343 167.092 257.017 167.79 257.017 168.654Z" fill="#002E47"/>
<path d="M257.017 164.899C257.017 165.763 256.343 166.461 255.511 166.461H245.997C245.166 166.461 244.492 165.763 244.492 164.899C244.492 164.035 245.166 163.337 245.997 163.337H255.511C256.343 163.337 257.017 164.035 257.017 164.899Z" fill="#002E47"/>
<path d="M257.017 161.144C257.017 162.008 256.343 162.705 255.511 162.705H245.997C245.166 162.705 244.492 162.008 244.492 161.144C244.492 160.28 245.166 159.582 245.997 159.582H255.511C256.343 159.573 257.017 160.28 257.017 161.144Z" fill="#002E47"/>
<path d="M257.017 157.38C257.017 158.244 256.343 158.942 255.511 158.942H245.997C245.166 158.942 244.492 158.244 244.492 157.38C244.492 156.516 245.166 155.818 245.997 155.818H255.511C256.343 155.818 257.017 156.516 257.017 157.38Z" fill="#002E47"/>
<path d="M257.017 153.625C257.017 154.489 256.343 155.187 255.511 155.187H245.997C245.166 155.187 244.492 154.489 244.492 153.625C244.492 152.761 245.166 152.063 245.997 152.063H255.511C256.343 152.055 257.017 152.761 257.017 153.625Z" fill="#002E47"/>
<path d="M257.017 148.939C257.017 149.371 256.975 149.786 256.9 150.16C256.859 150.351 256.817 150.526 256.759 150.692C256.734 150.792 256.701 150.833 256.676 150.866C256.642 150.908 256.609 150.941 256.576 150.974C256.301 151.257 255.927 151.431 255.511 151.431H245.997C245.582 151.431 245.207 151.257 244.933 150.974C244.9 150.941 244.866 150.9 244.833 150.866C244.8 150.825 244.775 150.783 244.75 150.8H244.609C244.534 150.8 244.492 150.808 244.492 150.808C244.492 150.85 245.166 150.576 245.997 150.21L255.511 146.413C256.343 146.031 257.017 147.169 257.017 148.939Z" fill="#002E47"/>
<path d="M257.017 141.42C257.017 143.19 256.343 144.926 255.511 145.3L245.997 150.044C245.166 150.418 244.492 150.758 244.492 150.792C244.492 150.792 244.659 150.659 244.933 150.385C245.257 150.052 245.607 149.687 245.997 149.288L255.511 139.783C256.343 138.919 257.017 139.651 257.017 141.42Z" fill="#002E47"/>
<path d="M254.051 138.288C255.723 138.288 256.371 138.961 255.507 139.792L246.001 149.296C245.602 149.687 245.236 150.044 244.911 150.36C244.637 150.634 244.504 150.8 244.504 150.8C244.537 150.8 244.895 150.127 245.294 149.296L250.309 139.792C250.7 138.961 252.388 138.288 254.051 138.288Z" fill="#002E47"/>
<path d="M246.949 138.288C248.621 138.288 249.652 138.961 249.261 139.792L245.144 149.296C244.753 150.127 244.462 150.8 244.496 150.8C244.496 150.8 244.521 150.634 244.512 150.36C244.504 150.285 244.504 150.21 244.496 150.135C244.446 150.052 244.396 149.969 244.363 149.878C244.288 149.695 244.246 149.504 244.246 149.296V139.792C244.246 139.584 244.288 139.385 244.363 139.21C244.404 139.119 244.446 139.036 244.496 138.953C244.595 138.87 244.712 138.795 244.845 138.728C245.36 138.454 246.126 138.288 246.949 138.288Z" fill="#002E47"/>
<path d="M242.164 138.288C242.979 138.288 243.644 138.961 243.644 139.792V149.296C243.644 150.127 242.979 150.8 242.164 150.8C241.349 150.8 240.684 150.127 240.684 149.296V139.792C240.684 138.961 241.349 138.288 242.164 138.288Z" fill="#002E47"/>
<path d="M238.613 138.288C239.428 138.288 240.093 138.961 240.093 139.792V149.296C240.093 150.127 239.428 150.8 238.613 150.8C237.798 150.8 237.133 150.127 237.133 149.296V139.792C237.133 138.961 237.79 138.288 238.613 138.288Z" fill="#002E47"/>
<path d="M235.055 138.288C235.87 138.288 236.535 138.961 236.535 139.792V149.296C236.535 150.127 235.87 150.8 235.055 150.8C234.24 150.8 233.574 150.127 233.574 149.296V139.792C233.574 138.961 234.24 138.288 235.055 138.288Z" fill="#002E47"/>
<path d="M232.543 156.582V132.713C237.674 132.713 241.832 136.867 241.832 141.993V147.302C241.832 152.428 237.674 156.582 232.543 156.582Z" fill="white" stroke="#002E47" stroke-miterlimit="10" stroke-linecap="round" stroke-linejoin="round"/>
<path d="M208.648 179.604L233.506 167.35C235.901 166.17 237.415 163.736 237.415 161.069V128.667C237.415 126 235.901 123.566 233.506 122.386L208.648 110.132V179.604Z" fill="white" stroke="#002E47" stroke-miterlimit="10" stroke-linecap="round" stroke-linejoin="round"/>
<path d="M255.113 193.238H273.476" stroke="#002E47" stroke-miterlimit="10" stroke-linecap="round" stroke-linejoin="round"/>
<path d="M251.445 196.453H258.789" stroke="#002E47" stroke-miterlimit="10" stroke-linecap="round" stroke-linejoin="round"/>
<path d="M262.914 145.749V163.636" stroke="#002E47" stroke-miterlimit="10" stroke-linecap="round" stroke-linejoin="round"/>
<path d="M259.703 152.171V141.171" stroke="#002E47" stroke-miterlimit="10" stroke-linecap="round" stroke-linejoin="round"/>
<path d="M238.586 174.636V183.808" stroke="#002E47" stroke-miterlimit="10" stroke-linecap="round" stroke-linejoin="round"/>
<path d="M241.805 171.429V179.687" stroke="#002E47" stroke-miterlimit="10" stroke-linecap="round" stroke-linejoin="round"/>
<path d="M399.719 110.09H404.492" stroke="#002E47" stroke-width="9" stroke-miterlimit="10" stroke-linecap="round" stroke-linejoin="round"/>
<path d="M363.086 167.375H382.197V110.09H399.72" stroke="#002E47" stroke-width="4" stroke-miterlimit="10" stroke-linecap="round" stroke-linejoin="round"/>
<path d="M399.719 225.722H405.557" stroke="#002E47" stroke-width="9" stroke-miterlimit="10" stroke-linecap="round" stroke-linejoin="round"/>
<path d="M359.367 184.88H381.663V225.722H399.718" stroke="#002E47" stroke-width="4" stroke-miterlimit="10" stroke-linecap="round" stroke-linejoin="round"/>
<path d="M290.543 113.148H285.777V156.275" stroke="#002E47" stroke-width="4" stroke-miterlimit="10" stroke-linecap="round" stroke-linejoin="round"/>
<path d="M294.252 113.148H290.543" stroke="#002E47" stroke-width="7" stroke-miterlimit="10" stroke-linecap="round" stroke-linejoin="round"/>
<path d="M336.855 129.332H315.074V152.644H336.855V129.332Z" fill="#002E47" stroke="#002E47" stroke-miterlimit="10" stroke-linecap="round" stroke-linejoin="round"/>
<path d="M356.933 97.0883H335.543V118.074H356.933V97.0883Z" fill="#002E47" stroke="#002E47" stroke-miterlimit="10" stroke-linecap="round" stroke-linejoin="round"/>
<path d="M348.383 118.066H357.855C353.048 130.761 340.806 139.825 326.411 139.825C313.836 139.825 302.875 132.938 297.112 122.727C294.251 117.692 292.663 111.86 292.771 105.629C292.771 105.097 292.787 104.574 292.821 104.042C293.91 86.6948 308.522 72.8453 325.928 72.596C342.112 72.38 355.676 83.571 359.161 98.6336H348.383C343.018 98.6336 338.661 102.987 338.661 108.346C338.661 113.713 343.01 118.066 348.383 118.066Z" fill="white" stroke="#002E47" stroke-miterlimit="10" stroke-linecap="round" stroke-linejoin="round"/>
<path d="M328.93 107.573H338.66" stroke="#002E47" stroke-miterlimit="10" stroke-linecap="round" stroke-linejoin="round"/>
<path d="M321.156 74.158V138.271" stroke="#002E47" stroke-miterlimit="10" stroke-linecap="round" stroke-linejoin="round"/>
<path d="M320.374 116.122C325.1 116.122 328.932 112.295 328.932 107.573C328.932 102.852 325.1 99.024 320.374 99.024C315.648 99.024 311.816 102.852 311.816 107.573C311.816 112.295 315.648 116.122 320.374 116.122Z" fill="#002E47" stroke="#002E47" stroke-miterlimit="10" stroke-linecap="round" stroke-linejoin="round"/>
<path d="M324.655 107.573C324.655 105.214 322.742 103.303 320.38 103.303C318.018 103.303 316.105 105.214 316.105 107.573C316.105 109.933 318.018 111.843 320.38 111.843C322.742 111.852 324.655 109.933 324.655 107.573Z" fill="white" stroke="#002E47" stroke-miterlimit="10" stroke-linecap="round" stroke-linejoin="round"/>
<path d="M349.157 111.843C351.518 111.843 353.432 109.932 353.432 107.573C353.432 105.215 351.518 103.303 349.157 103.303C346.797 103.303 344.883 105.215 344.883 107.573C344.883 109.932 346.797 111.843 349.157 111.843Z" fill="#39B4EF"/>
<path d="M303.649 105.629V122.727H297.112C294.251 117.692 292.663 111.86 292.771 105.629H303.649Z" fill="#002E47" stroke="#002E47" stroke-miterlimit="10" stroke-linecap="round" stroke-linejoin="round"/>
<path d="M325.969 219.749V270.22" stroke="#002E47" stroke-width="3" stroke-miterlimit="10" stroke-linecap="round" stroke-linejoin="round"/>
<path d="M325.971 254.651C333.145 254.651 338.961 248.841 338.961 241.674C338.961 234.507 333.145 228.697 325.971 228.697C318.796 228.697 312.98 234.507 312.98 241.674C312.98 248.841 318.796 254.651 325.971 254.651Z" fill="white" stroke="#002E47" stroke-miterlimit="10" stroke-linecap="round" stroke-linejoin="round"/>
<path d="M325.968 273.859C329.413 273.859 332.205 271.07 332.205 267.628C332.205 264.187 329.413 261.397 325.968 261.397C322.523 261.397 319.73 264.187 319.73 267.628C319.73 271.07 322.523 273.859 325.968 273.859Z" fill="white" stroke="#002E47" stroke-miterlimit="10" stroke-linecap="round" stroke-linejoin="round"/>
<path d="M372.5 161.409L358.154 204.121C354.154 216.018 342.028 224.144 328.281 224.144H323.649C309.902 224.144 297.777 216.018 293.785 204.121L279.431 161.409C277.252 154.921 282.624 148.374 290.117 148.374H361.813C369.314 148.374 374.678 154.921 372.5 161.409Z" fill="white" stroke="#002E47" stroke-miterlimit="10" stroke-linecap="round" stroke-linejoin="round"/>
<path d="M366.503 165.414C362.894 164.434 359.152 166.419 357.938 169.95L346.344 203.781C345.172 207.195 346.769 210.942 350.037 212.479L352.557 213.659C355.027 210.892 356.956 207.677 358.154 204.121L370.77 166.577L366.503 165.414Z" fill="white" stroke="#002E47" stroke-miterlimit="10" stroke-linecap="round" stroke-linejoin="round"/>
<path d="M293.645 169.95C292.43 166.419 288.688 164.434 285.079 165.414L281.137 166.486L293.778 204.121C294.959 207.627 296.846 210.801 299.266 213.543L301.537 212.479C304.805 210.942 306.402 207.195 305.229 203.781L293.645 169.95Z" fill="white" stroke="#002E47" stroke-miterlimit="10" stroke-linecap="round" stroke-linejoin="round"/>
<path d="M348.417 148.374C348.067 151.606 345.34 154.115 342.013 154.115H308.747C305.421 154.115 302.693 151.606 302.344 148.374H348.417Z" fill="white" stroke="#002E47" stroke-miterlimit="10" stroke-linecap="round" stroke-linejoin="round"/>
<path d="M326.004 223.903V154.115" stroke="#002E47" stroke-miterlimit="10" stroke-linecap="round" stroke-linejoin="round"/>
<path d="M344.896 188.062H307.04C304.72 188.062 302.832 186.176 302.832 183.858V166.619C302.832 164.301 304.72 162.415 307.04 162.415H344.896C347.217 162.415 349.104 164.301 349.104 166.619V183.858C349.096 186.184 347.217 188.062 344.896 188.062Z" fill="#39B4EF" stroke="#002E47" stroke-miterlimit="10" stroke-linecap="round" stroke-linejoin="round"/>
<path d="M337 175C337 181.075 332.075 186 326 186C319.925 186 315 181.075 315 175C315 168.925 319.925 164 326 164C332.075 164 337 168.925 337 175Z" fill="#002E47"/>
<path d="M325.99 171.98C326.878 171.98 327.597 171.264 327.597 170.381C327.597 169.498 326.878 168.783 325.99 168.783C325.103 168.783 324.384 169.498 324.384 170.381C324.384 171.264 325.103 171.98 325.99 171.98Z" fill="#39B4EF"/>
<path d="M325.99 176.599C326.878 176.599 327.597 175.883 327.597 175C327.597 174.117 326.878 173.401 325.99 173.401C325.103 173.401 324.384 174.117 324.384 175C324.384 175.883 325.103 176.599 325.99 176.599Z" fill="#39B4EF"/>
<path d="M325.99 181.217C326.878 181.217 327.597 180.502 327.597 179.619C327.597 178.736 326.878 178.02 325.99 178.02C325.103 178.02 324.384 178.736 324.384 179.619C324.384 180.502 325.103 181.217 325.99 181.217Z" fill="#39B4EF"/>
<path d="M321.708 176.599C322.595 176.599 323.314 175.883 323.314 175C323.314 174.117 322.595 173.401 321.708 173.401C320.821 173.401 320.101 174.117 320.101 175C320.101 175.883 320.821 176.599 321.708 176.599Z" fill="#39B4EF"/>
<path d="M330.63 176.599C331.517 176.599 332.236 175.883 332.236 175C332.236 174.117 331.517 173.401 330.63 173.401C329.743 173.401 329.024 174.117 329.024 175C329.024 175.883 329.743 176.599 330.63 176.599Z" fill="#39B4EF"/>
<path d="M325.97 201.056C328.726 201.056 330.96 198.824 330.96 196.071C330.96 193.318 328.726 191.086 325.97 191.086C323.214 191.086 320.98 193.318 320.98 196.071C320.98 198.824 323.214 201.056 325.97 201.056Z" fill="#002E47" stroke="#002E47" stroke-miterlimit="10" stroke-linecap="round" stroke-linejoin="round"/>
<path d="M325.97 198.148C327.118 198.148 328.049 197.218 328.049 196.071C328.049 194.924 327.118 193.994 325.97 193.994C324.821 193.994 323.891 194.924 323.891 196.071C323.891 197.218 324.821 198.148 325.97 198.148Z" fill="#39B4EF"/>
<path d="M528.333 160.088H413.292C407.321 160.088 402.48 155.253 402.48 149.288V70.0122C402.48 64.047 407.321 59.2117 413.292 59.2117H528.333C534.304 59.2117 539.144 64.047 539.144 70.0122V149.288C539.144 155.253 534.304 160.088 528.333 160.088Z" fill="#002E47" stroke="#002E47" stroke-miterlimit="10" stroke-linecap="round" stroke-linejoin="round"/>
<path d="M525.686 153.924H415.943C411.685 153.924 408.242 150.476 408.242 146.231V73.0613C408.242 68.8075 411.694 65.368 415.943 65.368H525.686C529.944 65.368 533.387 68.8158 533.387 73.0613V146.231C533.387 150.484 529.944 153.924 525.686 153.924Z" fill="white" stroke="#002E47" stroke-miterlimit="10" stroke-linecap="round" stroke-linejoin="round"/>
<path d="M523.661 80.1647H424.43V83.7787H523.661V80.1647Z" fill="#E2EDFF"/>
<path d="M523.661 88.6721H424.43V92.2862H523.661V88.6721Z" fill="#E2EDFF"/>
<path d="M523.661 97.1796H424.43V100.794H523.661V97.1796Z" fill="#E2EDFF"/>
<path d="M523.661 105.695H424.43V109.309H523.661V105.695Z" fill="#E2EDFF"/>
<path d="M523.661 114.203H424.43V117.817H523.661V114.203Z" fill="#E2EDFF"/>
<path d="M523.661 122.71H424.43V126.324H523.661V122.71Z" fill="#E2EDFF"/>
<path d="M523.661 131.218H424.43V134.832H523.661V131.218Z" fill="#E2EDFF"/>
<path d="M434.734 101.375H425.07V141.254H434.734V101.375Z" fill="#002E47"/>
<path d="M449.511 112.558H439.848V141.254H449.511V112.558Z" fill="#39B4EF"/>
<path d="M464.289 105.604H454.625V141.254H464.289V105.604Z" fill="#002E47"/>
<path d="M479.078 120.019H469.414V141.262H479.078V120.019Z" fill="#39B4EF"/>
<path d="M493.855 106.352H484.191V141.262H493.855V106.352Z" fill="#002E47"/>
<path d="M508.64 97.1547H498.977V141.254H508.64V97.1547Z" fill="#39B4EF"/>
<path d="M523.421 91.4387H513.758V141.254H523.421V91.4387Z" fill="#002E47"/>
<path d="M417.109 80.8376H420.411" stroke="#002E47" stroke-miterlimit="10" stroke-linecap="round" stroke-linejoin="round"/>
<path d="M417.109 85.5732H420.411" stroke="#002E47" stroke-miterlimit="10" stroke-linecap="round" stroke-linejoin="round"/>
<path d="M417.109 90.3171H420.411" stroke="#002E47" stroke-miterlimit="10" stroke-linecap="round" stroke-linejoin="round"/>
<path d="M417.109 95.061H420.411" stroke="#002E47" stroke-miterlimit="10" stroke-linecap="round" stroke-linejoin="round"/>
<path d="M417.109 99.805H420.411" stroke="#002E47" stroke-miterlimit="10" stroke-linecap="round" stroke-linejoin="round"/>
<path d="M417.109 104.541H420.411" stroke="#002E47" stroke-miterlimit="10" stroke-linecap="round" stroke-linejoin="round"/>
<path d="M417.109 109.284H420.411" stroke="#002E47" stroke-miterlimit="10" stroke-linecap="round" stroke-linejoin="round"/>
<path d="M417.109 114.028H420.411" stroke="#002E47" stroke-miterlimit="10" stroke-linecap="round" stroke-linejoin="round"/>
<path d="M417.109 118.772H420.411" stroke="#002E47" stroke-miterlimit="10" stroke-linecap="round" stroke-linejoin="round"/>
<path d="M417.109 123.508H420.411" stroke="#002E47" stroke-miterlimit="10" stroke-linecap="round" stroke-linejoin="round"/>
<path d="M417.109 128.252H420.411" stroke="#002E47" stroke-miterlimit="10" stroke-linecap="round" stroke-linejoin="round"/>
<path d="M417.109 132.996H420.411" stroke="#002E47" stroke-miterlimit="10" stroke-linecap="round" stroke-linejoin="round"/>
<path d="M417.109 137.74H420.411" stroke="#002E47" stroke-miterlimit="10" stroke-linecap="round" stroke-linejoin="round"/>
<path d="M417.109 142.475H420.411" stroke="#002E47" stroke-miterlimit="10" stroke-linecap="round" stroke-linejoin="round"/>
<path d="M523.691 143.838V147.136" stroke="#002E47" stroke-miterlimit="10" stroke-linecap="round" stroke-linejoin="round"/>
<path d="M515.809 143.838V147.136" stroke="#002E47" stroke-miterlimit="10" stroke-linecap="round" stroke-linejoin="round"/>
<path d="M507.926 143.838V147.136" stroke="#002E47" stroke-miterlimit="10" stroke-linecap="round" stroke-linejoin="round"/>
<path d="M500.051 143.838V147.136" stroke="#002E47" stroke-miterlimit="10" stroke-linecap="round" stroke-linejoin="round"/>
<path d="M492.164 143.838V147.136" stroke="#002E47" stroke-miterlimit="10" stroke-linecap="round" stroke-linejoin="round"/>
<path d="M484.281 143.838V147.136" stroke="#002E47" stroke-miterlimit="10" stroke-linecap="round" stroke-linejoin="round"/>
<path d="M476.406 143.838V147.136" stroke="#002E47" stroke-miterlimit="10" stroke-linecap="round" stroke-linejoin="round"/>
<path d="M468.52 143.838V147.136" stroke="#002E47" stroke-miterlimit="10" stroke-linecap="round" stroke-linejoin="round"/>
<path d="M460.637 143.838V147.136" stroke="#002E47" stroke-miterlimit="10" stroke-linecap="round" stroke-linejoin="round"/>
<path d="M452.762 143.838V147.136" stroke="#002E47" stroke-miterlimit="10" stroke-linecap="round" stroke-linejoin="round"/>
<path d="M444.879 143.838V147.136" stroke="#002E47" stroke-miterlimit="10" stroke-linecap="round" stroke-linejoin="round"/>
<path d="M436.992 143.838V147.136" stroke="#002E47" stroke-miterlimit="10" stroke-linecap="round" stroke-linejoin="round"/>
<path d="M429.109 143.838V147.136" stroke="#002E47" stroke-miterlimit="10" stroke-linecap="round" stroke-linejoin="round"/>
<path d="M421.234 143.838V147.136" stroke="#002E47" stroke-miterlimit="10" stroke-linecap="round" stroke-linejoin="round"/>
<path d="M481.453 71.9314H459.348V75.5537H481.453V71.9314Z" fill="#002E47"/>
<path d="M528.333 273.203H413.292C407.321 273.203 402.48 268.368 402.48 262.402V183.127C402.48 177.162 407.321 172.326 413.292 172.326H528.333C534.304 172.326 539.144 177.162 539.144 183.127V262.402C539.144 268.368 534.304 273.203 528.333 273.203Z" fill="#002E47" stroke="#002E47" stroke-miterlimit="10" stroke-linecap="round" stroke-linejoin="round"/>
<path d="M525.686 267.047H415.943C411.685 267.047 408.242 263.599 408.242 259.353V186.184C408.242 181.93 411.694 178.491 415.943 178.491H525.686C529.944 178.491 533.387 181.939 533.387 186.184V259.353C533.387 263.599 529.944 267.047 525.686 267.047Z" fill="white" stroke="#002E47" stroke-miterlimit="10" stroke-linecap="round" stroke-linejoin="round"/>
<path d="M449.803 258.481C431.232 258.481 416.121 243.385 416.121 224.833C416.121 208.782 427.548 194.899 443.291 191.817L444.896 199.967C433.045 202.293 424.446 212.745 424.446 224.833C424.446 238.807 435.823 250.173 449.811 250.173C452.605 250.173 455.35 249.724 457.961 248.835L460.63 256.703C457.146 257.883 453.503 258.481 449.803 258.481Z" fill="#002E47"/>
<path d="M473.661 216.209C470.043 206.207 460.454 199.485 449.801 199.485C448.146 199.485 446.491 199.643 444.886 199.959L443.289 191.809C445.426 191.393 447.614 191.177 449.801 191.177C463.939 191.177 476.679 200.1 481.486 213.376L473.661 216.209Z" fill="#39B4EF"/>
<path d="M460.623 256.703L457.953 248.835C468.249 245.346 475.168 235.7 475.168 224.833C475.168 221.867 474.661 218.968 473.663 216.21L481.48 213.385C482.811 217.049 483.476 220.904 483.476 224.833C483.484 239.264 474.295 252.076 460.623 256.703Z" fill="#B3C7EB"/>
<path d="M504.133 198.895H494.785V208.234H504.133V198.895Z" fill="#002E47"/>
<path d="M504.133 221.751H494.785V231.089H504.133V221.751Z" fill="#39B4EF"/>
<path d="M504.133 244.615H494.785V253.953H504.133V244.615Z" fill="#B3C7EB"/>
<path d="M509.047 203.814H524.798" stroke="#002E47" stroke-miterlimit="10" stroke-linecap="round" stroke-linejoin="round"/>
<path d="M509.047 225.93H524.798" stroke="#002E47" stroke-miterlimit="10" stroke-linecap="round" stroke-linejoin="round"/>
<path d="M441.145 225.44H456.896" stroke="#002E47" stroke-miterlimit="10" stroke-linecap="round" stroke-linejoin="round"/>
<path d="M509.047 249.035H524.798" stroke="#002E47" stroke-miterlimit="10" stroke-linecap="round" stroke-linejoin="round"/>
<path d="M57.382 328.41H39.0859" stroke="#002E47" stroke-width="0.75" stroke-miterlimit="10" stroke-linecap="round"/>
<path d="M520.607 328.41H67.3633" stroke="#002E47" stroke-width="0.75" stroke-miterlimit="10" stroke-linecap="round"/>
<path d="M555.533 328.41H526.426" stroke="#002E47" stroke-width="0.75" stroke-miterlimit="10" stroke-linecap="round"/>
</g>
<defs>
<clipPath id="clip0_266_51740">
<rect width="573" height="329" fill="white"/>
</clipPath>
</defs>
</svg>
