<svg width="531" height="531" viewBox="0 0 531 531" fill="none" xmlns="http://www.w3.org/2000/svg">
<path d="M228.958 9.64299C228.958 9.64299 317.296 -1.59297 387.621 62.3925C457.936 126.378 478.401 227.364 497.145 308.766C515.889 390.168 479.42 460.844 410.518 481.649C341.615 502.454 310.881 442.875 225.252 421.593C139.623 400.31 113.763 407.564 52.9 343.26C-7.97388 278.966 4.22849 161.18 79.2163 88.454C154.204 15.7176 228.958 9.64299 228.958 9.64299Z" fill="#39B4EF"/>
<path opacity="0.75" d="M228.958 9.64299C228.958 9.64299 317.296 -1.59297 387.621 62.3925C457.936 126.378 478.401 227.364 497.145 308.766C515.889 390.168 479.42 460.844 410.518 481.649C341.615 502.454 310.881 442.875 225.252 421.593C139.623 400.31 113.763 407.564 52.9 343.26C-7.97388 278.966 4.22849 161.18 79.2163 88.454C154.204 15.7176 228.958 9.64299 228.958 9.64299Z" fill="white"/>
<path d="M487.458 295.969L62.2539 277.734V46.0059L487.458 27.7714V295.969Z" fill="#002E47"/>
<path d="M476.964 283.342L70.1328 267.486V56.2542L476.964 40.3986V283.342Z" stroke="#39B4EF" stroke-miterlimit="10"/>
<path d="M202.28 80.2129L89.7188 83.452C87.0532 83.5263 84.8867 81.1581 84.8867 78.1526C84.8867 75.1471 87.0426 72.6408 89.7188 72.5559L202.28 68.8707C205.179 68.7752 207.537 71.239 207.537 74.3825C207.537 77.5154 205.179 80.1279 202.28 80.2129Z" fill="#B3C7EB"/>
<path d="M134.673 76.6233C134.673 73.5648 132.432 71.1647 129.682 71.2496L89.7188 72.5559C87.0532 72.6408 84.8867 75.1472 84.8867 78.1526C84.8867 81.1581 87.0426 83.5263 89.7188 83.452L129.682 82.305C132.443 82.2201 134.673 79.6819 134.673 76.6233Z" fill="#39B4EF"/>
<path d="M202.28 102.377L89.7188 104.724C87.0532 104.777 84.8867 102.387 84.8867 99.3926C84.8867 96.3872 87.0426 93.9021 89.7188 93.8384L202.28 91.0347C205.179 90.9604 207.537 93.4454 207.537 96.589C207.537 99.7219 205.179 102.313 202.28 102.377Z" fill="#B3C7EB"/>
<path d="M162.826 97.6085C162.826 94.518 160.543 92.0754 157.728 92.1392L89.7071 93.8384C87.0415 93.9021 84.875 96.3978 84.875 99.3926C84.875 102.398 87.0309 104.788 89.7071 104.724L157.728 103.301C160.553 103.248 162.826 100.699 162.826 97.6085Z" fill="#39B4EF"/>
<path d="M202.28 124.53L89.7188 126.006C87.0532 126.038 84.8867 123.638 84.8867 120.633C84.8867 117.627 87.0426 115.163 89.7188 115.11L202.28 113.177C205.179 113.124 207.537 115.631 207.537 118.774C207.537 121.918 205.179 124.498 202.28 124.53Z" fill="#B3C7EB"/>
<path d="M182.666 119.156C182.666 116.045 180.351 113.56 177.505 113.613L89.7305 115.121C87.0649 115.163 84.8984 117.638 84.8984 120.643C84.8984 123.649 87.0543 126.049 89.7305 126.017L177.505 124.859C180.351 124.817 182.666 122.268 182.666 119.156Z" fill="#39B4EF"/>
<path d="M202.28 146.694L89.7188 147.299C87.0532 147.31 84.8867 144.889 84.8867 141.883C84.8867 138.878 87.0426 136.425 89.7188 136.403L202.28 135.352C205.179 135.32 207.537 137.848 207.537 140.981C207.537 144.124 205.179 146.673 202.28 146.694Z" fill="#39B4EF"/>
<path d="M230.561 79.3951L215.14 79.8412C212.22 79.9261 209.852 77.4517 209.852 74.3081C209.852 71.1646 212.22 68.5415 215.14 68.4459L230.561 67.9361C233.524 67.8406 235.924 70.3256 235.924 73.501C235.924 76.6764 233.524 79.3102 230.561 79.3951Z" fill="#39B4EF"/>
<path d="M230.561 101.782L215.14 102.101C212.22 102.164 209.852 99.6687 209.852 96.5252C209.852 93.3817 212.22 90.7798 215.14 90.7055L230.561 90.3231C233.524 90.2488 235.924 92.7551 235.924 95.9305C235.924 99.0953 233.524 101.718 230.561 101.782Z" fill="#39B4EF"/>
<path d="M230.561 124.158L215.14 124.36C212.22 124.403 209.852 121.886 209.852 118.742C209.852 115.599 212.22 113.018 215.14 112.965L230.561 112.699C233.524 112.646 235.924 115.174 235.924 118.349C235.924 121.525 233.524 124.127 230.561 124.158Z" fill="#39B4EF"/>
<path d="M230.561 146.545L215.14 146.63C212.22 146.641 209.852 144.113 209.852 140.97C209.852 137.826 212.22 135.256 215.14 135.235L230.561 135.086C233.524 135.055 235.924 137.603 235.924 140.779C235.924 143.944 233.524 146.524 230.561 146.545Z" fill="#39B4EF"/>
<path d="M90.6016 66.8423L108.719 66.2157" stroke="white" stroke-miterlimit="10"/>
<path d="M90.6016 89.1655L108.719 88.6876" stroke="white" stroke-miterlimit="10"/>
<path d="M90.6016 110.353L108.719 110.013" stroke="white" stroke-miterlimit="10"/>
<path d="M90.6016 132.676L108.719 132.484" stroke="white" stroke-miterlimit="10"/>
<path d="M425.754 67.4476L440.941 66.9803" stroke="white" stroke-miterlimit="10"/>
<path d="M416.93 80.5315L440.942 79.8943" stroke="white" stroke-miterlimit="10"/>
<path d="M425.754 93.1374L440.941 92.7976" stroke="white" stroke-miterlimit="10"/>
<path d="M432.031 105.871L440.941 105.711" stroke="white" stroke-miterlimit="10"/>
<path d="M425.754 118.838L440.941 118.625" stroke="white" stroke-miterlimit="10"/>
<path d="M421.699 131.72L440.943 131.529" stroke="white" stroke-miterlimit="10"/>
<path d="M425.754 144.528L440.941 144.443" stroke="white" stroke-miterlimit="10"/>
<path d="M418.395 157.388L440.941 157.357" stroke="white" stroke-miterlimit="10"/>
<path d="M425.754 170.217L440.941 170.26" stroke="white" stroke-miterlimit="10"/>
<path d="M444.922 66.8529C446.451 66.8104 447.991 66.7573 449.531 66.7148" stroke="white" stroke-miterlimit="10"/>
<path d="M444.922 79.7881C446.451 79.7456 447.991 79.7031 449.531 79.6606" stroke="white" stroke-miterlimit="10"/>
<path d="M444.922 92.7127C446.451 92.6808 447.991 92.6489 449.531 92.6064" stroke="white" stroke-miterlimit="10"/>
<path d="M445.051 105.637C446.548 105.605 448.046 105.584 449.543 105.552" stroke="white" stroke-miterlimit="10"/>
<path d="M444.922 118.562C446.451 118.54 447.991 118.519 449.531 118.498" stroke="white" stroke-miterlimit="10"/>
<path d="M445.02 131.497C446.517 131.486 448.025 131.465 449.533 131.454" stroke="white" stroke-miterlimit="10"/>
<path d="M444.922 144.421C446.451 144.411 447.991 144.4 449.531 144.4" stroke="white" stroke-miterlimit="10"/>
<path d="M444.891 157.346C446.441 157.346 447.981 157.346 449.532 157.335" stroke="white" stroke-miterlimit="10"/>
<path d="M444.922 170.271C446.451 170.271 447.991 170.281 449.531 170.281" stroke="white" stroke-miterlimit="10"/>
<path d="M454.035 66.5768C456.658 66.4918 459.292 66.4175 461.926 66.3325" stroke="white" stroke-miterlimit="10"/>
<path d="M454.035 79.5438C456.658 79.4695 459.292 79.4058 461.926 79.3314" stroke="white" stroke-miterlimit="10"/>
<path d="M454.035 92.5109C456.658 92.4471 459.292 92.394 461.926 92.3303" stroke="white" stroke-miterlimit="10"/>
<path d="M454.238 105.467C456.798 105.425 459.357 105.372 461.927 105.329" stroke="white" stroke-miterlimit="10"/>
<path d="M454.035 118.434C456.658 118.402 459.292 118.36 461.926 118.328" stroke="white" stroke-miterlimit="10"/>
<path d="M454.207 131.401C456.777 131.38 459.347 131.348 461.928 131.327" stroke="white" stroke-miterlimit="10"/>
<path d="M454.035 144.368C456.658 144.358 459.292 144.336 461.926 144.326" stroke="white" stroke-miterlimit="10"/>
<path d="M453.973 157.335C456.617 157.335 459.272 157.325 461.927 157.325" stroke="white" stroke-miterlimit="10"/>
<path d="M454.035 170.302C456.658 170.313 459.292 170.313 461.926 170.324" stroke="white" stroke-miterlimit="10"/>
<path d="M251.789 159.916L406.225 159.81" stroke="#E2EDFF" stroke-miterlimit="10"/>
<path d="M251.789 150.093L406.225 149.455" stroke="#E2EDFF" stroke-miterlimit="10"/>
<path d="M251.789 140.258L406.225 139.101" stroke="#E2EDFF" stroke-miterlimit="10"/>
<path d="M406.757 180.232V133.504C406.757 133.504 403.125 128.906 388.193 129.755C373.4 130.594 369.853 143.667 354.241 151.261C338.789 158.78 331.366 146.599 318.59 146.673C305.92 146.737 299.633 160.84 290.489 166.182C281.399 171.492 273.317 165.492 262.442 166.798C251.652 168.093 249.316 177.97 249.316 177.97L249.156 179.287L406.757 180.232Z" fill="#39B4EF"/>
<path d="M406.758 180.232V154.574C401.65 154.298 391.041 155.148 379.784 164.525C368.601 173.85 348.444 168.964 342.55 166.798C333.151 163.357 322.393 163.187 311.656 169.984C301.004 176.728 292.232 176.112 282.303 176.069C275.283 176.037 267.148 178.151 263.027 179.372L406.758 180.232Z" fill="#B3C7EB"/>
<path d="M288.622 253.032L261.148 252.172C258.578 252.087 256.496 249.825 256.496 247.106C256.496 244.387 258.578 242.242 261.148 242.317L288.622 243.081C291.245 243.156 293.369 245.449 293.369 248.2C293.379 250.94 291.245 253.106 288.622 253.032Z" fill="#B3C7EB"/>
<path d="M344.109 254.753L315.583 253.861C312.918 253.776 310.762 251.46 310.762 248.699C310.762 245.927 312.918 243.74 315.583 243.814L344.109 244.6C346.827 244.674 349.047 247.011 349.047 249.814C349.047 252.639 346.827 254.838 344.109 254.753Z" fill="#B3C7EB"/>
<path d="M400.482 256.516L370.873 255.592C368.101 255.507 365.871 253.149 365.871 250.324C365.871 247.499 368.112 245.28 370.873 245.354L400.482 246.172C403.307 246.246 405.601 248.636 405.601 251.492C405.601 254.349 403.307 256.601 400.482 256.516Z" fill="#B3C7EB"/>
<path d="M84.6953 226.376L237.007 229.976" stroke="#E2EDFF" stroke-miterlimit="10"/>
<path d="M84.6953 218.294L237.007 221.448" stroke="#E2EDFF" stroke-miterlimit="10"/>
<path d="M84.6953 210.202L237.007 212.91" stroke="#E2EDFF" stroke-miterlimit="10"/>
<path d="M84.6953 202.12L237.007 204.371" stroke="#E2EDFF" stroke-miterlimit="10"/>
<path d="M84.6953 194.038L237.007 195.843" stroke="#E2EDFF" stroke-miterlimit="10"/>
<path d="M84.6953 185.956L237.007 187.305" stroke="#E2EDFF" stroke-miterlimit="10"/>
<path d="M84.6953 177.874L237.007 178.766" stroke="#E2EDFF" stroke-miterlimit="10"/>
<path d="M84.6953 169.793L237.007 170.239" stroke="#E2EDFF" stroke-miterlimit="10"/>
<path d="M103.068 235.552L88.4766 235.159V203.108L103.068 203.331V235.552Z" fill="#B3C7EB"/>
<path d="M123.768 236.104L108.953 235.711V194.367L123.768 194.548V236.104Z" fill="#39B4EF"/>
<path d="M144.784 236.667L129.746 236.263V187.517L144.784 187.666V236.667Z" fill="#B3C7EB"/>
<path d="M166.119 237.24L150.848 236.837V167.297L166.119 167.329V237.24Z" fill="#39B4EF"/>
<path d="M187.783 237.824L172.277 237.41V187.921L187.783 188.059V237.824Z" fill="#B3C7EB"/>
<path d="M209.789 238.419L194.039 237.994V203.67L209.789 203.904V238.419Z" fill="#39B4EF"/>
<path d="M232.145 239.014L216.141 238.589V217.583L232.145 217.89V239.014Z" fill="#B3C7EB"/>
<path d="M89.168 243.251L101.041 243.602" stroke="white" stroke-miterlimit="10" stroke-linecap="round" stroke-linejoin="round"/>
<path d="M109.789 243.867L121.843 244.228" stroke="white" stroke-miterlimit="10" stroke-linecap="round" stroke-linejoin="round"/>
<path d="M130.723 244.494L142.968 244.855" stroke="white" stroke-miterlimit="10" stroke-linecap="round" stroke-linejoin="round"/>
<path d="M151.984 245.12L164.41 245.492" stroke="white" stroke-miterlimit="10" stroke-linecap="round" stroke-linejoin="round"/>
<path d="M173.574 245.768L186.191 246.14" stroke="white" stroke-miterlimit="10" stroke-linecap="round" stroke-linejoin="round"/>
<path d="M195.496 246.427L208.314 246.809" stroke="white" stroke-miterlimit="10" stroke-linecap="round" stroke-linejoin="round"/>
<path d="M217.766 247.085L230.786 247.478" stroke="white" stroke-miterlimit="10" stroke-linecap="round" stroke-linejoin="round"/>
<path d="M418.82 192.275V184.65L439.54 184.809V192.477L418.82 192.275Z" fill="#39B4EF"/>
<path d="M418.82 202.938V195.323L445.392 195.61V203.299L418.82 202.938Z" fill="#B3C7EB"/>
<path d="M418.82 213.6V205.986L449.969 206.432V214.131L418.82 213.6Z" fill="#39B4EF"/>
<path d="M418.82 224.273V216.648L463.106 217.445V225.176L418.82 224.273Z" fill="#B3C7EB"/>
<path d="M418.82 234.936V227.321L449.969 227.98V235.679L418.82 234.936Z" fill="#39B4EF"/>
<path d="M418.82 245.598V237.984L440.188 238.515V246.182L418.82 245.598Z" fill="#B3C7EB"/>
<path d="M418.82 256.271V248.646L431.755 249.018V256.664L418.82 256.271Z" fill="#39B4EF"/>
<path d="M296.552 211.497C296.552 224.454 286.548 234.702 274.304 234.394C262.165 234.097 252.395 223.509 252.395 210.743C252.395 197.978 262.165 187.73 274.304 187.836C286.548 187.953 296.552 198.552 296.552 211.497Z" fill="#B3C7EB"/>
<path d="M275.355 187.913C275.005 187.892 274.654 187.849 274.304 187.849C262.165 187.743 252.395 197.991 252.395 210.756C252.395 223.522 262.165 234.099 274.304 234.407C274.654 234.418 275.005 234.386 275.355 234.375V187.913Z" fill="#39B4EF"/>
<path d="M289.627 211.381C289.627 220.301 282.745 227.385 274.302 227.194C265.912 227.003 259.137 219.696 259.137 210.871C259.137 202.046 265.902 194.962 274.302 195.058C282.745 195.153 289.627 202.46 289.627 211.381Z" fill="#002E47"/>
<path d="M351.467 212.432C351.467 225.622 341.091 236.061 328.379 235.754C315.784 235.435 305.652 224.656 305.652 211.657C305.652 198.668 315.784 188.218 328.379 188.335C341.091 188.441 351.467 199.231 351.467 212.432Z" fill="#39B4EF"/>
<path d="M344.287 212.305C344.287 221.395 337.15 228.606 328.388 228.404C319.68 228.213 312.66 220.758 312.66 211.774C312.66 202.778 319.68 195.567 328.388 195.674C337.139 195.769 344.287 203.214 344.287 212.305Z" fill="#002E47"/>
<path d="M408.477 213.388C408.477 226.833 397.698 237.463 384.508 237.134C371.435 236.805 360.91 225.813 360.91 212.581C360.91 199.348 371.424 188.707 384.508 188.824C397.698 188.951 408.477 199.943 408.477 213.388Z" fill="#B3C7EB"/>
<path d="M385.644 188.9C385.262 188.879 384.89 188.837 384.508 188.837C371.435 188.72 360.91 199.361 360.91 212.594C360.91 225.826 371.424 236.818 384.508 237.147C384.89 237.158 385.262 237.126 385.644 237.115V188.9Z" fill="#39B4EF"/>
<path d="M401.023 213.271C401.023 222.532 393.611 229.87 384.509 229.668C375.472 229.466 368.176 221.873 368.176 212.708C368.176 203.543 375.461 196.205 384.509 196.3C393.611 196.406 401.023 204 401.023 213.271Z" fill="#002E47"/>
<path d="M269.59 212.209L279.679 212.39" stroke="white" stroke-miterlimit="10"/>
<path d="M323.707 213.143L334.178 213.324" stroke="white" stroke-miterlimit="10"/>
<path d="M378.859 214.099L389.724 214.29" stroke="white" stroke-miterlimit="10"/>
<path d="M324.175 88.5495L324.249 87.7424L324.016 87.9761L324.175 88.5495Z" fill="#B3C7EB"/>
<path d="M292.848 100.455L293.39 100.54L294.632 100.157L292.848 99.5837L293.092 100.168L292.359 100.338L292.848 100.455Z" fill="#B3C7EB"/>
<path d="M306.929 110.331L304.189 109.237L303.7 109.524L303.775 109.11L302.893 108.515L301.884 108.94L302.214 108.441L301.46 108.228L301.215 108.568L301.693 107.676L301.12 106.402L300.472 105.839L299.017 105.648L298.985 105.658L297.944 104.607L297.403 104.554L297.498 104.203L296.946 103.98L296.999 103.747L296.681 103.651L295.958 103.959L294.769 103.651L294.164 103.088L294.057 103.364L293.548 103.704L293.675 104.331L293.282 104.182L293.452 103.619L293.399 103.322L293.495 103.237L293.59 102.972L292.507 103.566L292.337 103.545L291.487 104.83L291.402 104.851L291.169 104.522L290.648 104.246L290.117 104.48L289.523 104.469L288.917 103.662L289.14 101.888L288.726 101.559L287.239 101.623H287.229L287.08 101.527L287.293 100.593L287.377 100.54L287.813 99.1165L286.91 99.074L286.082 100.359L284.935 100.55L284.521 100.327L283.915 99.3501L283.937 97.1518L283.83 96.5995L283.926 96.1854L285.19 95.1871L286.422 95.4738L286.581 95.3145L286.91 95.5694L286.751 95.1234L287.335 94.8579L287.484 94.9641L287.983 94.8897L288.333 95.1658L288.588 95.2083L288.939 95.0703L289.873 97.2474L290.149 97.3005L290.319 96.7907L289.799 94.6986L291.487 92.7976L291.519 92.5108L291.615 92.3515L291.87 92.3622L291.965 92.1073L291.721 91.6719L291.71 91.4595L291.466 91.109L291.615 90.9497L291.668 90.3868H291.795L291.859 91.3108L292.029 91.1833L292.103 90.4399L292.369 90.4187L292.571 89.8877L293.325 89.5797H292.751L293.357 89.3461L293.537 89.1655L293.856 89.1868L293.76 88.8576L294.047 88.1673L294.535 87.6894L295.003 87.7L296.107 86.8822L296.128 87.0628L296.468 87.2115L295.704 87.6044L295.661 88.0823L296.15 87.9655L296.511 87.6044L297.371 87.3177L297.445 87.0946L297.944 86.8716L297.806 86.7017L297.796 86.4043L297.19 87.0203L296.532 86.9035L296.128 86.5318L296.075 86.0964L295.905 85.9583L295.873 85.7884L296.235 85.2255L294.62 85.576L293.813 86.3937L294.748 85.1618L295.141 85.0237L295.417 84.6414L297.753 84.4503L299.463 83.3989L299.431 83.2183L299.325 83.1015L299.548 82.836L299.346 82.5068L298.943 82.5705L298.921 82.2307L297.987 82.6024L297.891 82.4325L298.858 81.9758L297.042 80.8288L297.084 80.712L297.382 80.5102L296.213 78.3756L295.873 78.8217L295.746 79.3208L295.619 79.4907L295.396 79.5332L295.024 79.7881L294.408 79.2571L294.217 78.4818L294.344 78.1207L293.495 77.8552L292.719 77.1543L292.348 77.303L291.211 77.1543L291.052 77.4729L291.296 77.7597L291.094 78.1738L291.36 78.7898L290.978 79.7137L291.541 80.2129L291.625 81.1474L291.094 81.7634L290.574 81.997L290.882 83.3458L290.797 83.7069L290.85 83.9193L290.617 83.898L290.415 84.1741L290.096 84.0467L289.448 83.1015L289.47 82.1032L289.268 81.8484L286.177 80.6377L285.625 80.8395L285.678 80.6271L285.243 79.735L284.829 79.6288L285.062 78.1101L286.315 76.7614L285.2 76.2622L286.485 76.4746L286.581 76.1029L287.133 76.1879L287.664 75.5507L286.73 75.1259L286.751 74.8923L287.494 75.2852L288.057 74.8073L287.845 74.563L288.131 74.4144L288.365 74.6055L288.758 74.5418L288.556 74.2444L288.62 74.1276L288.875 74.3719H289.193L289.746 73.9046L289.438 73.1506L289.448 72.97L289.82 72.8107L289.597 72.3753L288.312 71.993L288.344 72.3966L288.461 72.5983L288.397 72.7895L288.163 72.9913L287.983 73.4267L287.813 73.1612L287.76 73.4904L287.898 73.7559L287.632 73.9683L287.176 73.3524L287.335 73.1612L287.324 72.8745L287.08 72.5877L286.74 72.4815L286.432 73.14L286.305 72.6302L286.443 72.2797L286.071 72.1204L285.795 72.216L285.816 71.8443L286.029 71.7487L285.466 71.2602L285.487 70.8779L285.009 70.5168L284.914 70.3257L285.19 70.092L285.275 69.6778L285.848 69.7203L286.379 68.8601L285.381 68.5521L284.616 68.7114L284.712 68.9663L284.478 68.9451L284.68 70.4L284.446 70.6549L284.563 70.9098L284.255 70.8779L284.276 72.0355L285.02 72.3116L284.892 72.8745L285.073 72.7152L285.232 72.9488L284.616 73.3948V73.809L284.414 73.9789L284.213 73.6391L284.266 73.3099L283.841 73.1824L284.117 73.1293L284.319 72.9488L284.744 72.8957L284.542 72.5346L284.245 72.5134L284.553 72.439L283.915 72.2054L283.108 72.6408L283.714 73.0869L283.395 73.3205L283.374 73.5966L281.335 73.4904L281.005 73.3099L280.814 72.97L280.209 73.0125L279.667 73.2993L279.827 73.4692L280.666 73.1506L280.06 73.5329L280.007 74.4462L279.774 74.34L279.731 73.9896L277.204 73.7984L277.618 73.4586L277.48 73.14L275.09 72.5028L273.837 72.7576L273.858 72.4815L273.731 72.1523L273.232 72.7683L272.679 71.9399L272.456 72.0249L272.053 72.5559L270.534 73.3417L270.619 73.1081L271.904 72.2797L271.586 72.2373L270.343 72.8426L270.067 72.6939L269.568 73.1293L269.716 73.3736L263.482 72.2054L263.366 71.993L262.739 72.0249L262.559 71.8656L262.091 71.993L262.24 71.8018L261.953 71.6532L260.658 72.2266L260.743 72.4497L259.946 72.5452L259.521 72.97L259.373 73.4267L258.449 73.671L258.353 73.9365L259.351 74.9347H259.967L260.084 75.2958L260.477 75.3808L259.266 75.6463V75.3595L258.81 75.3914L258.608 75.6463L258.289 75.6888L257.801 76.0286L258.321 76.2516L258.257 76.464L258.534 76.7614L259.638 76.772L260.286 76.4853L260.18 76.7826L260.222 77.3455L259.776 77.3986L259.585 77.749L259.128 77.6322L258.98 78.0676L258.619 78.3862L258.438 78.7686L258.767 79.0128L258.746 79.4164L259.203 79.9049L259.627 79.8199L259.808 79.6394L259.925 80.5421L261.05 80.5846L261.199 80.3616L261.592 80.3934L261.475 81.2749L260.413 82.3156L259.85 82.4006L259.585 82.8679L263.058 80.3297L262.771 80.1704L264.056 78.7579L264.279 78.8535L264.29 79.0128L263.907 79.1084L263.759 79.5013L263.78 79.8093L263.652 80.0005L263.801 80.1385L264.523 79.6606L265.054 79.6182L265.065 79.4058L264.906 79.1615L265.022 78.9491L265.776 79.0978L265.617 79.2465L265.66 79.3951L266.169 79.2783L266.254 79.3633L267.465 79.4482L267.794 79.6925L268.24 79.512L268.166 79.7775L269.207 80.5527L269.419 80.3403L269.716 80.5102L269.748 80.1492L269.897 80.181L269.918 80.7333L269.653 80.6802L269.398 80.7651L269.982 81.6997L270.003 80.9563L270.056 81.2536L270.279 81.105L270.269 80.7014L270.492 80.9881L270.375 81.2855L270.173 81.4023L270.216 81.8484L270.364 81.6891L270.598 81.6253L270.906 81.9015L270.757 81.6997L270.768 81.466L271.055 81.8802L270.863 82.1032L270.545 81.9333L270.598 82.6767L270.725 82.528L270.927 82.6024L271.012 82.3687L271.203 82.4431L271.373 82.3369L271.405 82.6342L271.564 82.6555V82.698L271.724 82.9104L271.628 83.0909L271.692 83.4095L272.01 83.3776L272.095 83.6219L272.552 83.9724L272.637 84.6414L273.603 85.0768L273.741 85.3317L274.241 85.491L274.559 85.9371L274.623 86.3831L274.506 86.8185L274.336 86.1919L274.379 86.0114L273.295 85.0875L272.435 84.9175L273.603 85.9583L274.124 87.1796L274.177 91.2152L275.409 93.2649L276.173 93.541L277.745 96.419L277.448 96.4509L278.308 97.1093L278.414 97.6403L279.232 98.6067L279.412 98.4687L279.328 98.1288L279.02 97.9801L277.989 95.9199L278.032 95.6968L277.745 95.5588L277.416 94.603L277.501 94.518L278.074 94.7304L278.202 95.7499L280.942 99.1908L280.921 99.4988L280.804 99.6475L281.101 100.168L283.788 101.58L285.211 101.612L285.615 101.963L286.018 102.356L287.271 102.727L287.388 102.664H287.494L287.59 102.982L288.174 103.641L288.142 103.811L288.238 104.182L288.45 104.129L289.937 105.212L290.224 105.117L290.117 104.883L290.319 104.671L290.733 104.511L291.179 105.372L291.233 106.975L290.659 107.729V107.793L290.404 107.952L289.905 109.333L290.117 109.545L290.298 109.588L290.128 109.853L290.096 109.864L289.788 110.246L289.926 110.83L289.809 110.947L291.785 114.728L293.888 116.321L292.348 128.035L292.518 128.321L292.687 127.546L292.826 127.387L292.921 127.546L292.783 129.362L292.592 129.49L292.624 129.776L292.379 129.67L292.549 129.383L292.348 129.076L292.475 129.415L292.061 129.702L292.082 129.914L291.848 130.169L292.326 130.212L292.358 130.435L292.241 130.7L292.592 130.732L292.603 130.902L292.135 130.86L291.891 131.104L292.029 131.295L292.21 131.157L292.369 131.178L291.976 131.624L292.146 131.932L292.422 131.561L292.316 132.187L292.093 132.463L292.082 132.718L292.475 132.654L292.549 132.793L292.379 132.994L292.603 133.016L292.73 132.962L292.974 133.058L292.645 133.217L292.539 133.472L292.815 133.366L293.388 133.398L292.719 133.685L292.73 133.855L293.495 133.589L293.027 133.982L292.634 133.929L292.677 134.216L293.24 134.407L293.176 134.269L293.941 133.43L293.834 133.886L294.174 133.897L293.972 134.088L293.994 134.396L293.834 134.046L293.76 134.311L293.58 134.237L293.293 134.577L293.569 134.64L293.76 135.023L293.888 134.693L294.153 135.086L294.28 134.938L294.673 135.256L294.62 134.97L295.778 134.747L294.61 133.865L294.642 133.685L294.514 133.451L294.174 133.281L294.217 133.217L294.567 133.27L294.323 132.548L294.397 132.145L295.534 130.764L295.597 130.35L295.226 130.244L294.971 129.596L295.587 129.192L296.043 127.918L296.245 128.056L296.394 127.727L296.139 127.801L295.937 127.684L295.863 126.962L296.458 127.132L296.893 126.877L296.914 126.166L297.042 125.996L298.008 125.921L298.72 125.518L299.059 124.955L298.359 123.755L298.497 123.723L299.123 123.935L299.983 123.84L301.141 121.716L301.173 122.247L302.033 120.941L302.267 119.369L303.732 118.296L304.688 118.169L305.75 115.896L305.846 113.719L305.909 113.592L306.143 113.677L307.332 111.829L307.258 110.575L306.929 110.331Z" fill="#B3C7EB"/>
<path d="M292.434 99.5412L289.938 98.2775L288.621 98.8403L289.258 98.4899L291.042 99.2651L291.223 99.605L292.434 99.5412Z" fill="#B3C7EB"/>
<path d="M290.895 100.401L291.659 100.54L290.895 100.401Z" fill="#B3C7EB"/>
<path d="M295.141 100.348L295.757 100.338L295.141 100.348Z" fill="#B3C7EB"/>
<path d="M286.051 108.441L286.286 108.879L286.051 108.441Z" fill="#B3C7EB"/>
<path d="M312.217 70.9735L310.72 70.9416L310.89 70.2513L312.26 70.7292L312.387 70.1558L311.41 69.1893L311.962 69.2531L312.323 68.7964L311.421 68.807L311.251 68.5309L311.399 68.1698L312.228 68.4247L312.865 68.2335L312.366 67.7132L313.205 67.5963L313.3 67.299L312.621 66.8317L313.279 66.683L313.099 65.9078L312.429 65.7378L312.153 65.4086L313.693 65.2812L313.46 64.8351L312.833 64.6971L313.353 64.559L312.291 64.421L312.525 63.6138L313.821 62.5518L313.566 62.212L312.939 62.4669L313.449 62.0952L314.405 61.904L313.704 61.7447L316.051 60.6402L314.755 60.2685L313.991 60.704L313.215 60.7783L312.875 60.6509L311.506 61.7235L312.132 60.8102L311.898 60.1942L310.21 61.0332L310.996 60.4491L308.16 60.7252L312.429 59.6738L306.45 58.9198L305.813 59.3127L302.978 59.4402L303.349 59.8225L302.68 60.0668L303.636 60.7252L301.31 60.088L301.767 60.6721L301.247 60.7146L300.556 60.311L300.524 60.8526L300.216 61.1606L300.015 60.2898L297.338 61.0757L297.445 61.7235L296.733 61.6173L295.045 62.7324L295.958 62.8598L295.65 63.6563L293.059 64.6227L293.282 64.9307L295.491 65.398L293.579 65.7378L294.248 65.9184L294.259 66.2582L294.694 66.5237L296.627 66.2901L298.432 67.0335L299.749 69.1787L299.558 69.7203L299.739 70.2938L300.301 69.9965L300.439 70.4213L301.151 70.793L301.002 70.9735L300.004 70.9204L301.013 71.4195L301.342 71.855L301.268 72.4603L300.79 72.4922L300.185 73.448L300.546 73.809L300.259 74.202L300.779 74.8073L300.843 75.5401L301.724 77.0588L304.029 78.4606L304.305 78.1208L304.464 76.772L305.091 75.9118L305.102 75.6038L305.25 75.402L305.176 75.0834L305.229 74.9135L306.111 74.1489L306.291 74.1383L306.376 74.3613L307.077 74.1701L308.373 72.7789L312.079 71.1965L312.217 70.9735Z" fill="#B3C7EB"/>
<path d="M300.888 71.7913L300.591 71.4833L299.858 71.3558L299.805 71.7275L300.219 71.993L300.888 71.7913Z" fill="#B3C7EB"/>
<path d="M285.783 67.7662L286.824 68.0954L287.09 67.9574L290.138 67.9892L290.467 67.2989L286.707 67.0972L286.824 66.6936L285.051 66.1414L284.105 66.3325L285.773 67.1078L285.783 67.7662Z" fill="#B3C7EB"/>
<path d="M290.395 77.7523L290.448 77.2711L290.395 77.7523Z" fill="#B3C7EB"/>
<path d="M282.002 72.1311L282.533 72.0886L281.291 71.2178L281.036 69.0513L280.314 69.2637L280.781 69.7097L280.271 69.4973L279.878 69.5079L280.122 70.5381L279.889 70.7717L279.613 70.0496L278.922 69.7628L279.209 70.1133L278.784 70.1664L278.073 69.7522L277.828 70.1558L277.552 70.0389L277.616 69.5398L276.012 70.2938L275.906 70.6018L276.225 71.154L277.096 70.9947L276.129 71.462L278.466 71.855L276.437 72.2798L278.604 73.2356L280.25 72.6302L282.172 72.8001L281.928 72.4284L281.641 72.4178L282.002 72.1311Z" fill="#B3C7EB"/>
<path d="M288.949 77.3773L289.576 76.8782L288.949 77.3773Z" fill="#B3C7EB"/>
<path d="M299.454 83.8768L299.274 83.7388L298.18 85.9159L299.635 85.8628L299.539 86.1708L299.858 86.0114L300.559 86.1708L300.367 85.5654L300.219 85.4698L300.24 85.045L299.603 84.8964L299.443 84.6521L299.157 84.6733L299.189 84.3654L299.454 83.8768Z" fill="#B3C7EB"/>
<path d="M296.18 84.7689L297.21 85.1406L296.18 84.7689Z" fill="#B3C7EB"/>
<path d="M290.137 76.2942L288.438 74.9773L288.024 75.2747L287.609 76.4429L288.077 76.411L288.268 76.7508L288.894 76.3367L290.137 76.2942Z" fill="#B3C7EB"/>
<path d="M281.518 67.8738L281.176 67.6707L281.518 67.8738Z" fill="#B3C7EB"/>
<path d="M292.05 73.6604L292.103 73.0869L291.614 72.9701L291.285 73.6391L292.05 73.6604Z" fill="#B3C7EB"/>
<path d="M283.108 70.8779L283.767 70.6549L284.255 69.5929L284.032 69.5504L283.979 69.7203L283.522 69.5292L284 69.0619L283.735 68.6689L282.407 69.2637L282.811 69.6247L282.078 69.5716L283.108 70.8779Z" fill="#B3C7EB"/>
<path d="M274.348 71.4939L277.131 69.3911L276.674 68.9344L274.953 68.5521L273.796 68.7964L273.966 69.1893L273.371 70.485L274.348 71.4939Z" fill="#B3C7EB"/>
<path d="M286.625 65.5042L286.262 65.8464L286.625 65.5042Z" fill="#B3C7EB"/>
<path d="M275.793 67.6707L276.366 67.2246L275.793 67.6707Z" fill="#B3C7EB"/>
<path d="M270.672 83.1016L271.235 84.0149L271.054 83.3671L270.672 83.1016Z" fill="#B3C7EB"/>
<path d="M285.392 65.3979L284.309 65.6634L285.392 65.3979Z" fill="#B3C7EB"/>
<path d="M293.537 70.5593L292.974 70.5912L291.285 69.5823L290.882 69.954L290.648 69.869L290.032 70.1133L290.054 69.3911L289.788 68.892L289.066 68.9132L288.269 69.2955L288.386 69.9221L288.184 70.3257L288.588 70.6336L287.961 70.3681L287.876 69.8265L288.078 69.2106L288.45 68.8176L286.984 69.2849L286.645 70.7717L287.43 70.9204L287.345 71.1115L286.793 71.1859L289.459 71.9187L289.841 71.7169L290.68 71.8231L290.627 71.5576L290.712 71.3452L291.912 72.2797L291.551 72.6514L292.135 72.439L293.038 73.2462V73.9896L293.654 73.9152L294.227 74.2232L293.686 74.5418L292.74 74.1701L292.645 74.8923L291.275 75.2533L291.062 75.795L292.804 75.6675L293.24 76.0923L293.452 76.6339L295.502 77.4092L294.525 76.3047L296.096 76.4428L294.907 74.7542L295.013 74.2763L295.533 74.4675L296.086 75.0622L296.861 74.6692L297.339 74.1064L294.779 72.4178L295.289 72.2691L294.864 72.0355L295.077 71.8443L294.875 71.4832L294.61 71.6425L294.673 71.3027L293.834 70.9098L293.356 71.0372L293.218 70.9098L293.537 70.5593Z" fill="#B3C7EB"/>
<path d="M289.988 68.7858L290.211 69.3168L290.774 69.5079L291.666 69.3062L290.732 68.807L289.988 68.7858Z" fill="#B3C7EB"/>
<path d="M279.189 65.4829L278.955 65.3236L278.031 65.6953L278.52 66.0564L279.189 65.4829Z" fill="#B3C7EB"/>
<path d="M281.123 64.4741L281.612 64.729L281.028 64.8564L283.173 65.2388L283.024 64.7715L282.185 64.198L280.879 64.0281L281.123 64.4741Z" fill="#B3C7EB"/>
<path d="M277.832 65.6216L277.34 65.5254L277.832 65.6216Z" fill="#B3C7EB"/>
<path d="M281.239 66.067L280.676 65.5679L281.239 66.067Z" fill="#B3C7EB"/>
<path d="M276.979 67.0122L277.032 67.2989L276.714 67.66L277.096 67.6494L276.438 67.9149L277.425 67.9786L277.712 67.8406L278.423 67.8724L277.882 68.2335L277.861 68.6264L280.537 67.9786L280.664 67.0972L280.25 67.2883L279.57 66.46L279.177 66.9379L279.209 67.2246L279.485 67.5326L277.372 66.7361L276.979 67.0122Z" fill="#B3C7EB"/>
<path d="M274.561 67.437L275.124 67.1503L275.379 67.4795L276.154 66.5449L276.26 66.9272L276.897 66.6405V66.3219L277.131 66.0883L276.834 65.9077L276.611 66.0776L276.122 66.0458L274.434 67.1927L274.561 67.437Z" fill="#B3C7EB"/>
<path d="M278.391 65.1537L279.453 64.9731L278.646 64.7714L277.945 65.1324L278.391 65.1537Z" fill="#B3C7EB"/>
<path d="M284.254 63.4652L284.615 63.9112H285.698L285.05 64.2936L286.442 64.9839L286.973 64.9414L287.727 64.0918L288.353 63.8157L287.631 63.3696L287.461 62.9767L285.05 61.9572L285.082 62.1483L284.519 62.5519L284.583 63.0192L284.254 63.4652Z" fill="#B3C7EB"/>
<path d="M284.064 65.345L284.722 65.1857L284.754 64.8671L283.586 64.4529L284.064 65.345Z" fill="#B3C7EB"/>
<path d="M283.378 63.5196L282.875 63.3271L283.378 63.5196Z" fill="#B3C7EB"/>
<path d="M285.032 67.4476L284.098 67.8937L285.213 68.1698L285.032 67.4476Z" fill="#B3C7EB"/>
<path d="M282.683 66.3325L282.8 66.821L282.364 66.7042L282.237 67.0122L282.003 67.0441L281.398 66.4175L281.355 66.9485L281.94 67.4051L282.832 67.352L282.747 67.883L283.522 67.8937L283.83 67.5432L283.798 67.1184L283.373 66.4812L282.683 66.3325Z" fill="#B3C7EB"/>
<path d="M286.252 61.5217L286.464 61.5748L286.613 61.7341L286.496 62.0208L286.836 62.2757L287.781 62.2863L287.898 62.4881L290.531 61.9996V62.3607L289.31 62.7111L289.767 63.2634L287.972 62.8067L287.993 63.4864L289.406 64.4634L288.407 64.2723L287.452 64.7927L288.333 64.782L288.259 65.0582L288.684 65.6104L288.184 65.5679L287.547 65.2068L287.484 65.8971L286.719 66.3538L290.924 66.3113L291.094 65.929L289.873 65.8016L289.884 65.5467L290.861 65.483L290.924 65.0582L291.615 64.9838L292.358 64.0811L291.37 63.8687L292.209 63.5926L292.677 63.1784L293.409 63.2103L296.139 61.4261L295.024 61.3943L297.042 60.7146L297.148 60.2898L296.139 59.9287L295.289 60.088L295.438 59.8225L288.238 60.6615L287.632 61.1288L287.048 61.0544L286.761 61.3305L285.965 61.4367L286.252 61.5217Z" fill="#B3C7EB"/>
<path d="M258.914 83.1992L259.406 82.8998L258.914 83.1992Z" fill="#B3C7EB"/>
<path d="M263.216 80.712L262.887 81.1475L262.621 81.2749L262.78 81.5935H262.972L263.449 81.1793L263.311 80.9351L263.577 80.7864L263.503 80.574L263.216 80.712Z" fill="#B3C7EB"/>
<path d="M258.353 79.6182L258.023 79.7562L258.533 79.9155L258.608 79.6288L258.353 79.6182Z" fill="#B3C7EB"/>
<path d="M321.925 89.516L321.594 89.655L321.925 89.516Z" fill="#B3C7EB"/>
<path d="M330.506 91.4807L329.667 91.4064L329.434 91.5232L329.996 91.6719L330.506 91.4807Z" fill="#B3C7EB"/>
<path d="M333.372 91.5763L333.584 91.3002L333.574 91.2152L333.032 91.417L332.852 91.725L333.372 91.5763Z" fill="#B3C7EB"/>
<path d="M314.863 75.2322L315.458 74.6162L314.98 73.7985L314.725 73.8303L314.364 73.6392L314.322 73.9047L313.727 73.979L313.525 73.9153L313.281 74.1171L313.132 74.0321L312.952 74.1702L312.909 74.3719L312.654 74.4994L312.559 74.1595L311.985 73.7454L312.038 73.9896L311.9 73.979L311.656 74.0958L311.465 74.3826L312.283 74.4675L312.208 74.6799L311.592 74.9454H312.134L312.378 75.2428L312.06 75.5932L312.537 75.5614L313.228 75.8481L314.863 75.2322Z" fill="#B3C7EB"/>
<path d="M317.083 83.229L318.198 82.7829V81.7103L318.484 81.4979L318.272 81.02L317.369 81.2112L317.55 81.413L317.242 81.5935L316.838 81.6147L317.061 82.2413L316.955 82.6024L316.711 82.8891L317.083 83.229Z" fill="#B3C7EB"/>
<path d="M318.229 79.0128L317.973 79.4085L318.229 79.0128Z" fill="#B3C7EB"/>
<path d="M318.133 79.5969L318.398 79.8412L318.26 80.1704L318.462 80.3934L318.154 80.6695L318.42 80.5527L318.579 80.8076L318.791 80.4678L318.823 80.7651L318.685 81.2005L319.237 81.1262L319.492 81.6784L319.46 82.0714L319.078 82.0926L318.961 82.167L318.844 82.4431L319.067 82.6024L318.706 82.8997L318.855 83.0803L319.471 83.1865L319.503 83.2927L319.089 83.367L318.6 84.0573L318.887 83.8662L319.163 83.9299L319.333 83.7281L319.906 83.5794L320.204 83.6538L321.16 83.2821L321 83.1971L321.032 82.9422L321.34 82.5174L320.756 82.2838V82.0501L319.843 80.574L319.492 80.5209L319.917 79.4695L319.216 79.4589L319.089 79.3208L319.375 78.9491L319.439 78.6942L319.269 78.8748L318.855 78.896L318.356 79.6819L318.133 79.5969Z" fill="#B3C7EB"/>
<path d="M325.121 81.1687L325.387 80.8076L325.482 80.3403L325.355 80.4465L325.228 80.3403L324.973 80.4678L325.121 80.8607L325.015 80.9882L325.121 81.1687Z" fill="#B3C7EB"/>
<path d="M327.743 79.0978L327.488 79.6713L327.743 79.0978Z" fill="#B3C7EB"/>
<path d="M329.266 78.365L329.02 78.3971L329.266 78.365Z" fill="#B3C7EB"/>
<path d="M328.945 78.9411L329.341 78.631L329.095 78.5562L328.945 78.9411Z" fill="#B3C7EB"/>
<path d="M327.563 61.9147H328.954L328.157 62.2439L329.506 62.5094L330.961 61.6067L329.634 61.4261L329.421 61.5536L329.209 61.2775L329.135 61.7023L328.837 61.5217L328.519 61.5111L328.104 61.2562L328.126 61.4474L327.849 61.373L327.86 61.6173L327.573 61.3943L327.414 61.5642L327.605 61.7447L327.563 61.9147Z" fill="#B3C7EB"/>
<path d="M324.921 63.3909L325.187 63.5926L324.688 63.0192L324.921 63.3909Z" fill="#B3C7EB"/>
<path d="M325.271 62.605L325.048 63.0298L325.43 63.4971L325.972 63.5183L326.375 62.9767L326.407 63.2316L326.736 63.1891L326.885 63.3271L325.834 63.8263L326.173 63.975L326.938 63.9112L325.887 64.2936L326.269 64.6228L326.641 64.6546L326.46 64.8246L326.768 65.0263L327.023 64.9307L327.926 63.2316L328.382 63.0616L328.457 63.1572L328.51 63.4864L328.648 63.6351L328.584 64.0493L328.945 64.1236L329.158 64.336L329.965 63.805L329.381 63.6563L329.317 63.4864L329.02 63.3696L328.807 63.136L328.733 62.8917L327.756 62.5519L327.607 62.212L327.299 62.382L327.395 62.074L327.002 61.9253L326.8 61.7341L326.651 62.1483L326.885 62.7961L326.205 62.0527L326.057 62.4032L325.95 62.4881L325.664 62.2333L325.982 62.0846L325.77 62.0102L325.175 62.0633L324.867 62.2226V62.6581L325.271 62.605Z" fill="#B3C7EB"/>
<path d="M374.97 86.3513L374.641 86.5106L374.418 87.0416V87.3708L374.832 87.2221L374.599 86.9036L375.512 86.9991L376.34 86.5743L376.988 85.7991L376.223 86.0433L375.363 85.3636L375.108 85.5017L374.97 86.3513Z" fill="#B3C7EB"/>
<path d="M370.491 91.6188L370.332 91.9268L370.555 91.7993L370.767 92.7657L371.203 92.0117L371.129 91.7356L370.852 91.5126L370.491 91.6188Z" fill="#B3C7EB"/>
<path d="M373.059 89.9195L372.815 90.3656L371.519 90.5886L370.914 91.109V91.3745L372.327 90.9497L372.496 91.332L372.953 91.3001L373.102 90.9921L373.208 90.9284L374.004 90.8966L374.238 90.6311L374.61 90.5567L374.812 89.2505L375.173 88.7619L374.982 87.5938L374.482 87.7637L374.217 88.9425L373.612 89.6965L373.357 89.5584L373.059 89.9195Z" fill="#B3C7EB"/>
<path d="M371.712 91.7993L372.052 91.64L372.318 91.2471L371.925 91.2046L371.553 91.332L371.5 91.9161L371.712 91.7993Z" fill="#B3C7EB"/>
<path d="M366.771 97.0881L367.26 95.7181L366.559 96.3341L366.771 97.0881Z" fill="#B3C7EB"/>
<path d="M362.717 98.7449L362.919 98.2245L362.441 98.1926L362.059 98.798L362.717 98.7449Z" fill="#B3C7EB"/>
<path d="M368.652 102.865L368.195 103.301L367.845 103.216L367.399 103.524L367.25 103.98L367.887 103.641L368.206 104.395L368.62 104.618L368.599 104.055L369.024 103.853L368.928 102.887L368.652 102.865Z" fill="#B3C7EB"/>
<path d="M366.41 99.8068L366.623 100.731L367.844 101.368L368.322 102.494L368.63 102.111L368.524 101.58L367.812 100.858L367.27 100.763L367.069 100.359L367.334 99.7324L367.249 98.8722L366.676 98.8297L366.601 99.8492L366.41 99.8068Z" fill="#B3C7EB"/>
<path d="M366.633 101.124L367.007 101.584L366.633 101.124Z" fill="#B3C7EB"/>
<path d="M365.914 102.642L365.426 103.375L366.127 102.632L366.233 102.154L365.914 102.642Z" fill="#B3C7EB"/>
<path d="M368.272 102.653L367.973 102.867L368.272 102.653Z" fill="#B3C7EB"/>
<path d="M367.846 102.281L367.262 101.771L367.283 102.366L367.495 102.239L367.58 103.067L368.005 102.356L367.846 102.281Z" fill="#B3C7EB"/>
<path d="M379.008 109.025L378.53 109.354L377.691 109.407L378.329 109.715L379.146 109.248L379.263 108.855L379.008 109.025Z" fill="#B3C7EB"/>
<path d="M379.527 108.975L379.399 108.526L379.281 108.558L379.527 108.975Z" fill="#B3C7EB"/>
<path d="M377.371 109.63L373.399 107.644L372.412 108.473L371.998 107.39L371.095 107.273L370.766 107.559L370.967 107.676L371.19 107.974L371.817 107.995L371.785 108.133L371.212 108.271L371.456 108.653L373.591 109.386L373.803 109.885L373.792 110.278L373.421 110.639L374.334 110.565L375.173 111.075L375.874 110.437L376.702 110.629L377.573 111.478L378.401 111.627L378.338 111.361L377.658 110.862L377.286 109.917L377.371 109.63Z" fill="#B3C7EB"/>
<path d="M351.354 103.078L351.184 104.065L351.385 104.713L351.98 104.076L351.354 103.078Z" fill="#B3C7EB"/>
<path d="M339.213 112.795L339.075 112.933L339.022 113.241L338.597 113.634L338.586 113.868L337.28 114.569L336.93 117.861L337.185 118.679L337.864 118.859L338.257 118.689L339.404 114.388L339.638 114.335L339.213 112.795Z" fill="#B3C7EB"/>
<path d="M340.883 102.027L341.278 101.931L340.883 102.027Z" fill="#B3C7EB"/>
<path d="M376.853 126.314L376.184 126.113L376.364 126.983L376.885 127.663L377.108 127.483L377.193 127.26L377.426 127.313L377.522 126.155L376.853 126.314Z" fill="#B3C7EB"/>
<path d="M370.438 112.286L370.951 112.147L370.438 112.286Z" fill="#B3C7EB"/>
<path d="M372.898 123.66L373.38 123.585L372.898 123.66Z" fill="#B3C7EB"/>
<path d="M379.699 119.645L379.582 118.594L378.721 117.638L378.583 117.181L378.424 117.043L378.201 117.064L377.829 116.119L376.916 115.535L376.173 113.369L375.865 113.379L375.366 111.712L375.111 112.03L374.813 114.335L374.473 114.855L372.604 113.645L372.668 113.061L372.923 112.848L373.05 112.561L372.965 112.338L372.817 112.519L372.668 112.285L372.371 112.434L371.245 111.935L371.394 112.222L370.788 112.434L370.236 113.294L370.257 113.666L369.801 113.74L369.132 113.177L368.898 113.326L368.781 113.528L368.473 113.549L368.409 113.74L368.218 113.889L368.144 114.324L367.857 114.292L367.921 114.622L367.794 114.855L367.645 114.526L367.337 114.707L367.316 115.216L366.753 115.854L364.363 116.852L364.151 117.17L364.108 116.905L363.907 117.224L363.853 118.424L364.077 119.008L363.843 118.785L363.96 119.093L363.684 118.859L364.756 121.663L364.671 122.247L364.448 122.619L364.554 122.905L364.841 123.181L365.595 123.266L370.81 121.45L371.978 121.896L371.999 122.162L372.349 122.534L372.445 123.022L373.496 122.151L373.082 123.128L373.443 123.086L373.666 122.948L373.613 123.436L373.9 123.415L374.442 124.583L375.642 125.072L376.141 124.743L376.3 124.817L376.374 124.944L376.481 124.859L376.874 125.22L377.426 124.668L378.244 124.498L379.699 119.645Z" fill="#B3C7EB"/>
<path d="M385.336 129.512L385.486 129.309L385.336 129.512Z" fill="#B3C7EB"/>
<path d="M339.074 71.1222L339.796 70.9416L339.446 70.6655L339.074 71.1222Z" fill="#B3C7EB"/>
<path d="M340.616 68.9451L340.679 69.2637L340.828 69.1151L341.625 69.6461L342.623 69.6142L342.102 69.1044L341.964 68.1699L343.058 66.4601L347.083 64.2299L342.325 65.7804L341.901 66.6512L341.571 66.853L341.423 67.4159L340.807 67.8407L340.934 68.138L340.223 68.7009L340.616 68.9451Z" fill="#B3C7EB"/>
<path d="M355.805 59.78L355.281 59.8763L355.805 59.78Z" fill="#B3C7EB"/>
<path d="M375.853 66.5662L375.343 66.0352L374.695 66.3962L375.853 66.5662Z" fill="#B3C7EB"/>
<path d="M374.932 65.7378L374.547 65.9196L374.932 65.7378Z" fill="#B3C7EB"/>
<path d="M356.704 61.0332L356.449 61.4261L358.212 62.0209L358.658 61.1819L357.787 60.7358L356.704 61.0332Z" fill="#B3C7EB"/>
<path d="M358.488 62.7961L360.867 62.0952L360.357 61.7341L359.795 61.8828L359.837 61.6492L359.614 61.373L359.2 61.5536L359.062 61.9147L358.764 62.1695L358.488 62.7961Z" fill="#B3C7EB"/>
<path d="M373.74 65.26L375.387 65.1007L375.355 64.5909L376.077 65.0582L376.353 64.6653L376.257 64.2936L375.397 64.1343L374.845 64.3148L374.091 63.9325L373.422 64.9839L373.74 65.26Z" fill="#B3C7EB"/>
<path d="M375.714 80.6695L375.459 80.1492L375.215 84.8963L375.47 84.599L375.81 84.9175L375.47 84.0149L375.587 83.3033L376.054 83.2396L376.181 83.1546L375.714 80.6695Z" fill="#B3C7EB"/>
<path d="M363.48 65.8759L363.246 66.0883L363.947 65.9396L363.48 65.8759Z" fill="#B3C7EB"/>
<path d="M377.901 65.1855L378.846 64.9519L377.221 64.5483L376.945 64.8563L377.901 65.1855Z" fill="#B3C7EB"/>
<path d="M356.098 60.6933L356.003 60.8633L355.727 61.0226L356.077 61.2774L357.606 60.5447L357.712 60.1836L357.256 59.5358L356.258 60.088L356.088 60.396L356.098 60.6933Z" fill="#B3C7EB"/>
<path d="M393.631 72.0886L394.077 72.1842L393.981 72.0674L394.066 72.0249L394.289 72.0462L394.544 71.6745L393.227 71.0054L392.707 71.016L392.887 71.2178L392.824 71.5045L392.569 71.3877L392.548 70.9417L392.399 70.708L386.717 68.8389L386.59 69.1257L386.781 69.4761L386.685 69.9115L385.751 69.4336L386.229 69.1788L385.729 68.9664L385.262 69.3912L383.074 69.4124L382.99 69.8266L382.883 69.4018L382.363 69.2L382.437 68.9133L381.789 68.3079L379.368 68.446L379.262 68.2336L378.115 67.8513L378.072 67.7132L378.391 67.5327L377.117 67.3415L376.883 67.7769L376.458 67.7557L376.766 67.5327L376.32 67.3946L376.543 67.2672L376.936 67.2565L374.865 66.8955L374.78 67.0972L374.069 67.5327H374.387L374.281 67.7663L374.409 68.0637H373.718L373.612 68.1699V68.3504L372.688 68.053L372.231 68.2336L371.414 67.9893L370.946 68.7964L370.702 68.7221L369.757 67.7132L370.192 67.7344L369.948 66.8105L369.683 66.6087L369.014 66.6193L368.217 66.2158L367.835 66.6724L367.824 67.0017L365.87 66.9061L366.029 66.6937L363.969 66.7043L363.916 66.9379L363.852 66.5131L363.65 66.4707L363.247 66.545L362.801 66.3007L362.365 66.5981L362.599 66.6618L360.889 67.3203L360.985 67.0123L363.162 65.7591L363.343 65.5149L363.82 65.2918L364.001 65.0157L363.831 64.867L364.022 64.7821L363.884 64.3679L363.629 64.3254L363.544 63.975L361.919 63.8794L361.665 64.0493L361.176 64.113L361.463 63.6988L360.358 63.6033L360.836 63.3802L360.879 63.2103L360.146 63.0298L359.636 63.1678L358.935 63.9325L359.01 64.113L358.202 64.3042L358.457 64.5166L357.321 64.6546L357.427 64.4104L357.055 64.5272L356.801 64.4953L356.174 64.6971L356.408 64.867L354.092 65.5998L354.039 65.706L353.891 65.8228L353.997 65.9715L353.668 65.9609L354.05 66.237L353.753 66.2689L354.05 66.5556L354.008 66.7468L351.767 67.0335L351.639 67.7769L352.17 68.0743L352.393 68.4885L350.567 67.8831L350.322 68.1061L350.694 68.2973L349.951 68.4778L350.811 69.1257L350.758 69.2531L350.312 69.0089L349.653 68.9664L349.717 68.2442L349.547 67.7026L349.345 68.3398L348.878 68.6265L348.719 68.9026L349.165 69.4867L348.952 70.6656L349.25 70.7187L349.706 70.5912L350.45 70.8567L350.588 71.1859L350.407 71.5152L350.853 71.8338L350.418 71.8125L350.237 71.5364L350.333 71.2178L349.898 70.7718L349.303 70.9735L349.388 71.5789L348.421 72.7577L347.317 72.7152L347.126 72.5347L347.774 72.6515L348.644 71.7594L348.825 71.101L348.517 70.7399L348.602 69.423L348.283 68.9345L348.57 67.8513L347.349 67.6707L346.202 69.3912L346.414 69.4443L346.212 70.3045L346.669 70.485L346.839 70.8355L347.073 70.9629L346.828 71.3983L343.058 69.8584L343.164 70.2195L343.695 70.5275L343.876 70.878L343.759 71.1222L343.303 71.3771V71.1222L343.069 70.9311L342.474 71.2815L341.826 71.3028L341.465 71.6107L340.945 71.5789L341.221 71.0266L340.701 71.2178L340.626 71.4621L340.456 71.3559L338.789 72.1099L338.704 72.5665L338.046 72.6834L337.738 72.3648L337.727 72.0886L338.332 71.94L338.099 71.5258L337.132 71.3452L337.313 71.8125L337.164 72.301L337.43 72.832L337.313 73.1719H337.143L337.026 73.0444L336.644 72.9701L335.688 73.6073L335.869 74.3188L335.008 74.2126L334.573 73.9259L334.339 74.1808L334.456 74.425L334.828 74.5631L334.86 74.8286L334.573 74.8923L333.925 74.5843L333.638 74.0321L333.681 73.4692L332.64 72.5665L335.04 73.2887L336.155 72.7046L336.123 72.1948L332.768 70.7718L333.054 70.6656L332.799 70.5594L332.406 70.5912L332.385 70.57L331.929 70.5806L331.684 70.3682L331.875 70.3788L332.385 70.1558L332.183 69.9434L331.695 69.7416L331.302 70.0177L331.344 69.7735L331.185 69.5398L330.718 70.1346L330.728 69.7735L330.123 70.347L330.187 70.0708L330.431 69.731L330.389 69.5611L330.176 69.7629L329.9 69.731L329.836 69.9009L329.486 70.0815L329.358 70.5063L329.22 70.2301L329.507 69.8266L329.061 69.954L329.082 70.2408L328.976 70.3363L328.689 70.347L328.902 70.5594L328.721 70.5381L328.52 70.4001L328.392 70.485L328.477 70.7611L328.35 70.6762L328.137 70.6656L328.105 70.4213L327.84 70.4532L327.734 70.5806L327.702 70.7824L327.574 70.8886L327.181 70.9629L326.98 71.2603L327.224 71.2284L327.277 71.3771L327.245 71.4939L327.043 71.5258L326.873 71.4196L326.661 71.5364L326.746 71.1753L325.652 72.1524L325.78 72.163L326.895 71.7594L326.863 71.9931L326.757 72.0674L326.608 71.9931L325.79 73.1931L325.726 73.5117L325.429 73.5754L325.376 74.2657L324.877 74.4144L325.089 74.6799L324.633 74.9029L324.208 75.5189L323.995 75.3384L323.953 75.5826L323.379 75.9012L323.581 76.0711L323.252 76.0818L322.88 76.4428L322.742 76.4959L322.572 76.6977L322.721 76.9101L322.604 77.696L322.806 77.7597L323.071 77.6323L323.135 77.7597L322.933 77.9403L322.785 77.8978L322.657 78.0252L322.625 78.2801L323.04 78.2589L322.785 78.5775L323.188 78.9279L323.634 79.0447L324.346 78.4288L324.611 78.3544L324.707 78.0358L325.641 80.6484L325.939 80.6377L326.194 80.2342L326.512 80.1917L326.735 79.9899L326.873 80.0536L327.086 79.6395L326.948 79.6713L327.001 78.758L327.787 77.7597L327.426 77.3137L327.16 77.2393L327.118 76.7508L327.808 75.4339L328.753 74.6693L328.711 74.2551L328.859 73.894L329.104 73.6604L329.709 73.6073L330.017 73.7454L330.155 74.0746L328.626 75.7632L328.647 77.25L329.656 77.6217L331.185 77.2287L331.344 77.1544L331.589 77.4305L331.918 77.5048L329.666 78.0571L329.433 78.312L329.507 78.5881L329.73 78.7261L329.805 78.8961V78.9067L329.773 79.3315L329.465 79.512L329.125 79.0766L328.753 79.2784L328.541 80.043L328.551 80.0643L328.53 80.659L328.594 80.7227L328.466 80.967L328.031 80.9988L328.01 81.105L327.797 81.2325L327.617 80.967L326.077 81.6042L326.045 81.5511L325.822 81.413L325.854 81.1581L325.089 81.5617L324.473 81.1794L324.303 80.8501L324.771 80.8714L324.633 80.6059L324.463 80.5846L324.569 80.3085L324.813 80.1598L324.633 79.9581L324.664 79.289L324.165 79.6076L324.187 79.7988L323.964 79.6819L323.772 80.0005L324.144 81.6254L323.985 81.8059L323.422 81.8272L323.411 81.9228L322.933 81.9971L322.774 82.3051L322.594 82.3263L322.424 82.4325L321.946 83.1972L321.542 83.3777L320.671 84.376L320.193 84.2061L319.97 84.376L320.024 84.8326L319.694 84.822L319.461 84.7052L319.089 84.7583L318.855 84.9707L318.898 85.2362L319.737 85.5017L320.257 86.3938L320.024 87.7L317.634 87.5407L317.315 87.7744L317.273 90.9498L318.069 90.9604L318.526 91.4489L318.611 91.3108L319.662 91.0984L320.661 90.0577L320.671 89.4205L321.755 88.5072L321.914 88.1461L321.893 88.0399L322.211 87.6045L322.912 87.7638L324.038 87.0735L326.661 89.4948L326.693 90.3019L327.107 89.6754L326.937 89.3355L327.298 89.1444L327.585 89.155L325.418 87.031L325.429 86.5956L325.599 86.3407L325.843 86.2982L325.981 86.6062L326.279 86.7442L326.619 87.339L327.893 88.1673L327.989 89.07L328.243 89.4311L328.265 89.4417L328.466 89.8028L329.082 90.0364L328.679 90.0895L328.955 90.748L329.305 90.9285L329.242 90.4931L329.507 90.4719L329.337 90.3019L329.475 90.217L329.751 90.1745L329.624 89.824L329.305 89.8453L329.433 89.6116L329.125 89.1337L329.327 89.0063L329.635 89.0488L329.709 88.7196L329.943 88.7939L330.229 88.624L330.707 88.8789L331.068 88.624L331.578 88.5496L331.291 88.2948L331.068 87.6469L331.451 87.169V86.946L331.844 86.3513V86.3301L332.353 85.5548L332.778 85.4698L332.821 85.746L333.447 85.8309L332.937 86.1601L333.32 86.3513L333.341 86.6805L334.53 86.3088L334.148 86.2026L333.84 85.8522L335.507 85.1831L335.03 85.5123L335.178 85.7566L334.637 86.3088L336.346 87.5938L336.495 88.0399L336.41 88.1886L335.03 88.5072L333.66 88.0293L331.663 88.539L331.472 88.8789L330.665 88.9744L330.59 89.293L330.75 89.4099L330.707 90.2701L331.153 90.6524L331.344 90.7161L331.578 90.9816L332.385 90.6949L332.906 91.0241L333.299 90.9391L333.66 90.6736L333.957 90.748L334.254 90.6524L333.84 92.4047L334.042 92.5003H334.031L333.84 92.4153L333.437 93.4667L330.038 93.2118L330.028 93.1906L328.934 92.7233L328.084 93.2331L328.137 93.7959L326.842 93.541L326.215 92.9994L325.079 92.7658L324.473 92.2985L324.771 91.9905L324.845 91.0241L324.792 90.8754L321.181 91.1091L319.854 91.9268L318.42 91.587L318.006 92.479L317.432 92.8083L316.933 93.5941V94.2526L314.172 98.5431L314.469 99.7219L314.193 101.294L314.352 101.984L314.299 102.249L314.342 102.451L317.623 105.913L319.567 105.658L319.854 105.765L321.829 104.904L322.392 105.064L322.955 105.86L323.91 105.68L324.07 105.913L324.367 105.977L324.473 106.402L324.399 106.784V106.795L324.303 107.368L324.24 107.464L324.388 107.676L324.027 108.133L325.716 111.33L325.652 111.786L325.886 112.689L325.089 115.365L327.5 123.16L327.861 123.447L330.42 122.863L332.661 120.314L332.863 119.38L332.714 119.22L333.798 118.36L333.649 116.31L335.9 114.038L335.178 110.257L339.968 102.377L339.713 102.239L337.1 102.759L336.899 102.515L336.697 102.419L336.92 102.218L332.778 93.9234L333.415 95.0385L333.649 94.4225L336.962 101.867L340.074 100.71L340.446 100.264L341.497 99.9237L341.646 99.5838L342.071 99.4989L342.326 99.0953L342.57 98.9466L342.697 98.3625L343.334 97.5979L343.303 97.3642L342.973 96.9182L342.326 96.6633L342.018 95.665L341.561 96.2598L340.382 96.8014L340.297 96.7801L340.138 96.504L340.095 95.8243L339.84 96.2491L339.809 96.2598L338.81 94.0933L338.842 94.0189L339.543 93.8172L340.159 94.8792L341.497 95.4951L342.113 95.2933L342.41 95.8562L346.106 96.0792L346.361 96.6102L347.115 97.1731L347.54 97.1943L346.998 97.4173L347.816 98.1501L348.347 97.4598L350.174 103.779L350.896 103.088L351.491 100.295L353.678 98.2563L353.795 97.7997L355.388 97.0244L356.461 99.1378L356.408 99.8387L356.567 100.072L356.949 100.009L357.278 99.5626L357.48 99.7325L359.063 105.786L360.188 106.593L359.923 105.138L358.287 103.025L358.542 101.432L358.871 101.315L359.604 101.825L359.71 102.218L359.955 102.26L359.976 102.494L360.284 102.515L360.496 102.727L360.39 103.11L360.581 103.28L361.134 102.568L361.909 102.218L362.217 101.633L362.121 100.614L360.847 98.4262L361.611 97.5129L362.291 97.4386L362.482 98.0014L362.588 97.8103L363.895 96.9182L364.957 96.7801L366.274 95.4845V94.9429L366.55 94.7942L367.293 93.4136L366.762 93.1906L367.176 92.9569L366.592 92.4472L367.155 92.5003L366.507 91.3002L366.157 91.0347L366.529 90.3869L367.431 89.909L367.208 89.6329L366.826 89.463L366.305 89.8559L366.061 89.5161L365.658 89.3674L365.647 88.8258L367.261 87.9762L366.932 88.9213L367.208 88.9107L367.93 88.4434L368.122 88.4116L368.568 88.6452L368.334 89.1231L368.408 89.3886L368.61 89.4948L368.907 89.4205L369.003 89.4736L369.12 89.7072L369.014 91.1303L370.15 90.6524L370.309 90.4612L369.799 89.1019L369.449 88.7408L369.555 88.3479L370.235 87.8593L370.373 87.3283L370.904 86.7655L371.233 86.5531L371.69 86.8292L374.228 83.845L374.95 80.882L374.26 80.2023L373.92 80.2236L373.676 80.5528L373.453 80.574L373.421 80.1386L373.177 80.4572L373.134 80.0112H372.688L372.709 79.6819L375.863 76.8676L378.55 76.6659L379.124 76.8676L378.922 77.165L380.419 76.857L380.26 76.7296L380.228 76.3579L381.312 75.1578L381.959 75.0729L382.225 75.1897L382.512 75.0622L382.32 75.4764L382.543 75.6357L382.437 75.8163L383.574 75.2003L383.659 74.7649L384.338 74.4781L384.328 74.5843L381.503 77.6748L381.131 77.7703L380.632 79.3315L381.078 82.0183L381.694 81.3493L381.779 80.8926L382.044 80.6802L382.342 80.6059L382.31 80.2342L382.692 79.82L383.17 79.7138L383.096 79.2784L383.372 78.7368L383.68 78.7049L383.489 78.4182L383.563 77.6854L383.308 77.7066L383.266 77.25L383.903 76.2835L384.253 76.2517L384.402 76.326L384.806 75.8906L384.89 76.2729L385.262 76.0287L386.25 75.9118L386.547 76.188L386.707 75.9225L389.404 74.3188L390.19 74.3507L390.179 73.9896L389.319 72.8639L388.979 72.8002L389.372 72.6621L389.585 72.8745L390.041 72.832L390.572 72.5134L390.689 72.2798L390.615 72.0249L390.647 71.8125L390.795 71.6638L391.008 71.6426L390.955 71.8762L391.093 72.1736L392.133 72.386L392.42 72.7577L393.025 73.0232L393.482 72.9807L393.302 72.7471L393.493 72.7896L393.471 72.1311L393.631 72.0886Z" fill="#B3C7EB"/>
<path d="M348.22 67.3945L347.795 67.214L347.625 67.5644L348.22 67.3945Z" fill="#B3C7EB"/>
<path d="M351.268 67.5007L350.969 67.6504L351.268 67.5007Z" fill="#B3C7EB"/>
<path d="M291.072 97.3324L290.934 97.4598L291.21 97.9165L291.072 97.3324Z" fill="#B3C7EB"/>
<path d="M297.171 103.929L297.46 103.876L297.438 103.63L297.16 103.726L297.171 103.929Z" fill="#B3C7EB"/>
<path d="M361.824 108.441L361.621 108.548L361.824 108.441Z" fill="#B3C7EB"/>
<path d="M367.77 110.852L367.897 110.714L366.336 110.937L366.973 111.053L367.77 110.852Z" fill="#B3C7EB"/>
<path d="M365.444 110.735L365.083 110.788L364.902 111.032L365.465 111.117L366.017 110.926L365.444 110.735Z" fill="#B3C7EB"/>
<path d="M368.367 111.319L368.463 111.202L369.323 110.735L368.75 110.756L368.059 111.138L367.879 111.637L368.367 111.319Z" fill="#B3C7EB"/>
<path d="M369.609 108.462L370.65 108.738L370.385 108.292L369.609 108.462Z" fill="#B3C7EB"/>
<path d="M366.742 111.563L366.02 111.361L366.37 111.542L366.742 111.563Z" fill="#B3C7EB"/>
<path d="M368.812 108.505L369.294 108.644L368.812 108.505Z" fill="#B3C7EB"/>
<path d="M365.965 108.229L366.368 109.641L366.56 109.206L366.517 108.409L366.772 108.579L366.974 109.025L367.324 109.067L367.144 107.867L367.738 107.368L366.931 107.644L366.453 107.23L368.429 106.412L368.014 106.604L367.027 106.497L366.549 106.731L365.965 108.229Z" fill="#B3C7EB"/>
<path d="M369.672 106.423L369.406 106.264L369.608 107.22L369.905 106.54L369.672 106.423Z" fill="#B3C7EB"/>
<path d="M357.492 106.614L357.738 106.956L357.492 106.614Z" fill="#B3C7EB"/>
<path d="M358.055 107.719L358.247 107.954L358.055 107.719Z" fill="#B3C7EB"/>
<path d="M364.201 110.894L364.668 110.905L364.275 110.639L363.596 110.533L363.978 110.225L360.972 109.906L360.781 110.161L361.068 110.225L361.28 110.469L364.201 110.894Z" fill="#B3C7EB"/>
<path d="M362.047 106.88L362.96 108.494L363.268 108.653L363.789 108.579L364.288 108.834L364.851 108.717L365.382 107.06L365.976 106.678L365.477 105.276L366.136 104.788L365.87 104.543L365.52 104.437L365.169 104.108L364.564 104.979L364.362 105.085L364.086 105.042L363.746 105.658L363.173 105.86L362.918 106.423L362.302 106.264L362.047 106.88Z" fill="#B3C7EB"/>
<path d="M360.92 109.099L360.983 108.643L361.143 108.536L361.153 108.271L360.835 107.921L360.782 108.122L360.93 108.324L360.697 108.25L356.82 104.798L360.367 109.747H360.782L360.92 109.099Z" fill="#B3C7EB"/>
<path d="M326.217 90.2063L325.76 90.2169L325.441 90.3975L326.27 90.9285L326.525 90.2275L326.217 90.2063Z" fill="#B3C7EB"/>
<path d="M323.762 88.9L324.059 89.8558L324.325 89.6647L324.388 88.9637L324.038 88.8151L323.762 88.9Z" fill="#B3C7EB"/>
<path d="M281.78 83.7919C281.78 86.2876 279.858 88.3691 277.479 88.4222C275.111 88.4859 273.199 86.5106 273.199 84.0149C273.199 81.5192 275.111 79.4483 277.479 79.3846C279.847 79.3208 281.78 81.2855 281.78 83.7919Z" fill="#39B4EF"/>
<path d="M288.459 102.345C288.459 103.503 287.567 104.458 286.462 104.48C285.358 104.501 284.477 103.587 284.477 102.43C284.477 101.272 285.369 100.327 286.462 100.295C287.567 100.274 288.459 101.198 288.459 102.345Z" fill="#39B4EF"/>
<path d="M336.982 100.964C336.982 105.159 333.69 108.611 329.644 108.685C325.608 108.759 322.348 105.435 322.348 101.262C322.348 97.0881 325.608 93.6366 329.644 93.541C333.69 93.4561 336.982 96.7695 336.982 100.964Z" fill="#39B4EF"/>
<path d="M351.372 72.6621C351.372 74.4568 349.959 75.9436 348.218 75.9967C346.476 76.0498 345.074 74.6374 345.074 72.8532C345.074 71.0691 346.487 69.5716 348.218 69.5185C349.959 69.4654 351.372 70.8779 351.372 72.6621Z" fill="#39B4EF"/>
<path d="M359.064 91.4701C359.064 93.5198 357.439 95.219 355.443 95.2614C353.446 95.3039 351.832 93.6791 351.832 91.64C351.832 89.601 353.446 87.8912 355.443 87.8487C357.439 87.7956 359.064 89.4204 359.064 91.4701Z" fill="#39B4EF"/>
<path d="M374.099 69.9327C374.099 71.685 372.708 73.1505 370.988 73.193C369.278 73.2461 367.887 71.8655 367.887 70.1132C367.887 68.3609 369.278 66.906 370.988 66.8529C372.708 66.8104 374.099 68.1804 374.099 69.9327Z" fill="#39B4EF"/>
<path d="M484.929 364.001L50.125 333.372" stroke="#002E47" stroke-miterlimit="10"/>
<path d="M72.4375 334.679V285.752" stroke="#002E47" stroke-miterlimit="10"/>
<path d="M113.535 337.291V289.671" stroke="#002E47" stroke-miterlimit="10"/>
<path d="M161.156 341.21V292.284" stroke="#002E47" stroke-miterlimit="10"/>
<path d="M214.004 345.118V293.579" stroke="#002E47" stroke-miterlimit="10"/>
<path d="M268.789 348.378V293.579" stroke="#002E47" stroke-miterlimit="10"/>
<path d="M323.59 350.991V298.804" stroke="#002E47" stroke-miterlimit="10"/>
<path d="M381.988 358.457V302.065" stroke="#002E47" stroke-miterlimit="10"/>
<path d="M448.184 360.772V306.631" stroke="#002E47" stroke-miterlimit="10"/>
<path d="M484.929 371.626L48.7227 339.256" stroke="#002E47" stroke-miterlimit="10"/>
<path d="M471.238 499.745L484.269 501.264" stroke="#002E47" stroke-miterlimit="10"/>
<path d="M46.7266 450.288L456.669 498.046" stroke="#002E47" stroke-miterlimit="10"/>
<path d="M361.184 508.666C376.757 508.666 389.38 504.748 389.38 499.915C389.38 495.082 376.757 491.164 361.184 491.164C345.612 491.164 332.988 495.082 332.988 499.915C332.988 504.748 345.612 508.666 361.184 508.666Z" fill="#39B4EF"/>
<path opacity="0.5" d="M361.184 508.666C376.757 508.666 389.38 504.748 389.38 499.915C389.38 495.082 376.757 491.164 361.184 491.164C345.612 491.164 332.988 495.082 332.988 499.915C332.988 504.748 345.612 508.666 361.184 508.666Z" fill="white"/>
<path d="M338.479 453.548C335.304 458.678 333.371 465.337 333.371 472.611C333.371 488.839 342.918 501.986 354.685 501.986C366.452 501.986 376 488.839 376 472.611C376 465.337 374.078 458.678 370.892 453.548H338.479Z" fill="white" stroke="#002E47" stroke-miterlimit="10" stroke-linecap="round" stroke-linejoin="round"/>
<path d="M371.186 454.292C371.335 456.915 364.102 459.071 355.033 459.103C345.963 459.135 338.487 457.032 338.338 454.409C338.19 451.786 345.422 449.63 354.491 449.598C363.561 449.577 371.037 451.669 371.186 454.292Z" fill="white" stroke="#002E47" stroke-miterlimit="10" stroke-linecap="round" stroke-linejoin="round"/>
<path d="M369.88 456.225C367.161 454.621 361.448 453.527 354.874 453.548C348.173 453.57 342.491 454.759 340.027 456.426C342.746 458.03 348.46 459.134 355.033 459.103C361.735 459.081 367.427 457.892 369.88 456.225Z" fill="#002E47" stroke="#002E47" stroke-miterlimit="10" stroke-linecap="round" stroke-linejoin="round"/>
<path d="M315.135 314.363C315.135 314.363 317.11 318.101 315.358 321.627C313.595 325.153 311.397 328.668 312.714 330.431C314.031 332.194 317.992 334.392 317.556 338.13C317.121 341.868 311.832 349.356 315.135 353.54C318.438 357.724 323.939 357.501 324.162 362.121C324.385 366.741 318.884 370.479 320.424 374.663C321.964 378.847 330.991 379.729 330.991 382.586C330.991 385.442 327.465 388.522 330.332 391.613C333.189 394.692 347.038 402.732 349.013 399.429C350.988 396.126 354.981 386.993 352.358 374.026C351.923 371.849 348.822 371.36 348.376 368.28C347.93 365.201 349.257 359.699 347.059 356.62C344.86 353.54 337.819 352.435 337.373 350.014C336.938 347.593 340.018 341.656 336.938 337.907C333.858 334.169 326.594 332.406 326.594 329.985C326.594 327.563 328.792 324.484 325.713 321.181C322.612 317.888 315.135 314.363 315.135 314.363Z" fill="#39B4EF"/>
<path d="M325.672 340.297C330.249 354.135 338.278 372.868 341.538 381.927C345.499 392.929 348.94 400.894 350.703 411.897C351.521 417.016 352.169 435.675 352.625 454.186" stroke="#002E47" stroke-miterlimit="10" stroke-linecap="round" stroke-linejoin="round"/>
<path d="M316.23 315.69C316.23 315.69 319.969 318.77 323.272 332.194C323.484 333.054 323.728 333.978 324.004 334.934" stroke="#002E47" stroke-miterlimit="10" stroke-linecap="round" stroke-linejoin="round"/>
<path d="M383.92 339.437C383.92 339.437 382.338 342.431 383.74 345.246C385.152 348.06 386.905 350.885 385.853 352.287C384.802 353.699 381.626 355.462 381.977 358.446C382.327 361.441 386.554 367.431 383.91 370.776C381.265 374.121 376.869 373.952 376.688 377.647C376.508 381.343 380.915 384.338 379.683 387.683C378.451 391.028 371.229 391.729 371.229 394.023C371.229 396.317 374.044 398.781 371.76 401.245C369.467 403.709 358.39 410.144 356.807 407.5C355.225 404.856 352.039 397.549 354.131 387.173C354.482 385.432 356.967 385.039 357.317 382.575C357.668 380.111 356.616 375.704 358.369 373.24C360.132 370.776 365.76 369.895 366.121 367.951C366.472 366.018 364.008 361.261 366.472 358.266C368.936 355.271 374.745 353.858 374.745 351.926C374.745 349.993 372.982 347.518 375.446 344.885C377.931 342.251 383.92 339.437 383.92 339.437Z" fill="#39B4EF"/>
<path d="M375.486 360.188C371.822 371.254 365.397 386.26 362.785 393.503C359.62 402.307 356.859 408.679 355.446 417.493C354.745 421.901 354.193 438.84 353.832 454.685" stroke="#002E47" stroke-miterlimit="10" stroke-linecap="round" stroke-linejoin="round"/>
<path d="M383.04 340.499C383.04 340.499 380.045 342.962 377.4 353.71C377.231 354.4 377.039 355.133 376.816 355.898" stroke="#002E47" stroke-miterlimit="10" stroke-linecap="round" stroke-linejoin="round"/>
<path d="M323.364 389.308C323.364 389.308 324.691 391.814 323.513 394.161C322.334 396.519 320.868 398.866 321.75 400.045C322.631 401.224 325.286 402.689 324.989 405.196C324.691 407.702 321.166 412.704 323.375 415.497C325.584 418.29 329.258 418.141 329.407 421.232C329.555 424.322 325.87 426.818 326.9 429.622C327.931 432.415 333.963 433.009 333.963 434.921C333.963 436.832 331.605 438.893 333.517 440.953C335.428 443.013 344.689 448.387 346.006 446.178C347.333 443.969 349.999 437.863 348.236 429.197C347.939 427.742 345.868 427.413 345.57 425.352C345.273 423.292 346.154 419.617 344.689 417.557C343.213 415.497 338.508 414.764 338.211 413.139C337.913 411.525 339.974 407.553 337.913 405.047C335.853 402.541 331 401.372 331 399.747C331 398.133 332.476 396.073 330.416 393.864C328.366 391.655 323.364 389.308 323.364 389.308Z" fill="#39B4EF"/>
<path d="M330.406 406.64C333.465 415.89 338.839 428.422 341.016 434.475C343.66 441.835 345.965 447.155 347.143 454.515" stroke="#002E47" stroke-miterlimit="10" stroke-linecap="round" stroke-linejoin="round"/>
<path d="M324.098 390.189C324.098 390.189 326.604 392.25 328.802 401.224C328.94 401.797 329.11 402.413 329.291 403.05" stroke="#002E47" stroke-miterlimit="10" stroke-linecap="round" stroke-linejoin="round"/>
<path d="M399.148 385.644C399.148 385.644 397.289 387.779 397.894 390.338C398.5 392.898 399.392 395.531 398.266 396.477C397.14 397.422 394.22 398.25 393.933 400.746C393.646 403.252 395.94 408.923 393.147 411.143C390.354 413.362 386.807 412.375 385.958 415.348C385.108 418.322 388.113 421.603 386.478 424.089C384.842 426.574 378.832 425.767 378.385 427.625C377.95 429.484 379.766 432.032 377.43 433.593C375.093 435.165 364.856 438.277 364.07 435.824C363.284 433.37 362.094 426.818 365.78 418.779C366.395 417.43 368.488 417.589 369.252 415.646C370.006 413.713 369.996 409.921 371.897 408.254C373.798 406.587 378.555 406.948 379.214 405.44C379.872 403.932 378.778 399.588 381.348 397.634C383.929 395.669 388.921 395.638 389.292 394.055C389.664 392.483 388.698 390.136 391.214 388.458C393.742 386.791 399.148 385.644 399.148 385.644Z" fill="#39B4EF"/>
<path d="M388.327 400.905C383.23 409.21 375.137 420.18 371.633 425.575C367.374 432.128 362.255 436.323 361.076 443.682C360.715 445.934 360.407 450.065 360.152 454.706" stroke="#002E47" stroke-miterlimit="10" stroke-linecap="round" stroke-linejoin="round"/>
<path d="M398.235 386.334C398.235 386.334 395.325 387.768 391.13 395.999C390.854 396.53 390.557 397.082 390.238 397.666" stroke="#002E47" stroke-miterlimit="10" stroke-linecap="round" stroke-linejoin="round"/>
<path d="M175.983 521.442C200.2 521.442 219.833 515.608 219.833 508.411C219.833 501.215 200.2 495.381 175.983 495.381C151.765 495.381 132.133 501.215 132.133 508.411C132.133 515.608 151.765 521.442 175.983 521.442Z" fill="#39B4EF"/>
<path opacity="0.5" d="M175.983 521.442C200.2 521.442 219.833 515.608 219.833 508.411C219.833 501.215 200.2 495.381 175.983 495.381C151.765 495.381 132.133 501.215 132.133 508.411C132.133 515.608 151.765 521.442 175.983 521.442Z" fill="white"/>
<path d="M129.469 352.18C129.469 352.18 131.285 368.238 132.06 376.532C132.835 384.826 134.906 408.392 134.651 411.249C134.396 414.095 131.805 443.714 131.805 455.109C131.805 466.505 133.356 482.573 133.356 482.573C133.356 482.573 130.764 486.98 131.285 489.306C131.805 491.642 132.326 493.968 132.326 495.264C132.326 496.559 132.846 498.375 132.846 498.375C132.846 498.375 136.733 500.967 139.059 501.221C141.395 501.476 146.057 499.926 146.057 499.151C146.057 498.375 148.128 490.601 148.128 487.755C148.128 484.909 148.128 485.939 148.903 482.052C149.679 478.165 157.973 424.46 159.003 419.543C160.044 414.626 161.594 377.573 161.594 377.573L163.41 380.939C163.41 380.939 167.818 420.573 167.552 424.98C167.297 429.388 165.736 446.22 166.511 453.994C167.287 461.768 168.848 480.937 168.848 483.008C168.848 485.079 168.327 489.741 168.327 491.557C168.327 493.373 166.777 496.219 167.552 497.515C168.327 498.811 169.103 501.402 169.103 501.402C169.103 501.402 178.427 502.952 181.018 502.952C183.609 502.952 185.68 500.616 185.68 500.616C185.68 500.616 185.68 498.545 185.68 496.209C185.68 493.872 186.201 491.801 186.201 489.476C186.201 487.139 186.456 482.222 186.456 478.59C186.456 474.958 187.231 470.562 187.496 468.225C187.751 465.889 191.383 438.691 191.904 428.591C192.424 418.492 194.75 395.691 194.75 392.058C194.75 388.426 194.495 354.496 194.495 354.496L193.975 348.283C193.975 348.283 166.777 351.915 153.82 350.099C140.864 348.283 130.244 347.762 130.244 347.762L129.469 352.18Z" fill="#002E47" stroke="#002E47" stroke-miterlimit="10" stroke-linecap="round" stroke-linejoin="round"/>
<path d="M147.066 495.03C147.066 495.03 146.354 495.742 144.92 496.177C143.497 496.602 142.637 496.889 141.49 495.317C140.343 493.745 138.06 491.887 136.212 492.747C134.354 493.607 132.219 494.892 131.783 495.89C131.359 496.889 131.645 507.307 131.645 509.314C131.645 511.31 135.5 512.171 139.356 512.309C143.211 512.447 146.205 510.312 146.205 510.312C146.205 510.312 149.487 510.599 150.634 509.165C151.781 507.742 151.207 504.45 150.496 503.314C149.784 502.167 149.211 501.168 148.213 499.172C147.204 497.175 147.066 495.03 147.066 495.03Z" fill="white" stroke="#002E47" stroke-miterlimit="10" stroke-linecap="round" stroke-linejoin="round"/>
<path d="M150.636 509.165C151.008 508.698 151.199 508.029 151.262 507.307C149.383 508.167 147.163 507.625 146.356 507.742C145.358 507.88 143.074 509.452 137.934 509.165C134.918 508.995 132.837 508.284 131.637 507.732C131.647 508.432 131.658 508.985 131.658 509.303C131.658 511.3 135.513 512.16 139.368 512.298C143.223 512.436 146.218 510.302 146.218 510.302C146.218 510.302 149.489 510.588 150.636 509.165Z" fill="#39B4EF" stroke="#002E47" stroke-miterlimit="10" stroke-linecap="round" stroke-linejoin="round"/>
<path d="M145.633 510.312L146.206 503.452" stroke="#002E47" stroke-miterlimit="10" stroke-linecap="round" stroke-linejoin="round"/>
<path d="M142.681 496.379C142.298 496.219 141.916 495.89 141.502 495.317C140.355 493.745 138.072 491.887 136.224 492.747C134.673 493.458 132.932 494.478 132.156 495.37C132.772 497.133 134.27 500.244 137.222 500.457C139.633 500.627 141.502 498.513 142.681 496.379Z" fill="#39B4EF" stroke="#002E47" stroke-miterlimit="10" stroke-linecap="round" stroke-linejoin="round"/>
<path d="M185.892 498.29C185.892 498.29 183.747 498.864 182.61 498.152C181.463 497.441 179.754 493.161 175.898 493.586C172.043 494.01 170.334 497.579 169.473 498.014C168.613 498.439 168.475 498.588 168.188 499.012C167.902 499.437 167.764 511.013 167.902 512.149C168.04 513.286 176.185 514.433 181.177 513.859C186.168 513.286 187.888 511.151 188.313 510.864C188.738 510.578 190.597 510.004 190.883 507.434C191.17 504.864 190.31 502.007 188.887 501.009C187.464 500.011 186.317 498.864 186.317 498.864L185.892 498.29Z" fill="white" stroke="#002E47" stroke-miterlimit="10" stroke-linecap="round" stroke-linejoin="round"/>
<path d="M180.326 510.567C175.133 510.673 170.025 509.59 167.858 508.645C167.848 510.365 167.869 511.767 167.911 512.139C168.049 513.286 176.195 514.422 181.186 513.849C186.178 513.275 187.898 511.141 188.323 510.854C188.748 510.567 190.606 509.994 190.893 507.424C190.967 506.786 190.967 506.128 190.904 505.491C190.702 505.926 190.458 506.393 190.181 506.85C189.321 508.284 187.176 510.429 180.326 510.567Z" fill="#39B4EF" stroke="#002E47" stroke-miterlimit="10" stroke-linecap="round" stroke-linejoin="round"/>
<path d="M185.934 505.693L185.105 512.765" stroke="#002E47" stroke-miterlimit="10" stroke-linecap="round" stroke-linejoin="round"/>
<path d="M176.334 502.007C178.904 502.305 181.666 500.276 183.184 498.386C182.982 498.333 182.791 498.258 182.621 498.152C181.474 497.441 179.765 493.161 175.91 493.586C172.054 494.01 170.345 497.579 169.484 498.014C169.474 498.014 172.617 501.582 176.334 502.007Z" fill="#39B4EF" stroke="#002E47" stroke-miterlimit="10" stroke-linecap="round" stroke-linejoin="round"/>
<path d="M161.594 377.573L155.371 374.461" stroke="#B3C7EB" stroke-miterlimit="10" stroke-linecap="round" stroke-linejoin="round"/>
<path d="M174.744 231.399C174.744 231.399 176.295 228.808 176.815 232.174C177.336 235.541 176.04 239.173 174.224 240.469C172.408 241.764 171.633 240.469 171.633 239.173C171.643 237.867 174.744 231.399 174.744 231.399Z" fill="white" stroke="#002E47" stroke-miterlimit="10" stroke-linecap="round" stroke-linejoin="round"/>
<path d="M144.432 232.695C144.432 232.695 141.586 231.919 141.586 235.031C141.586 238.143 145.728 242.54 147.544 241.509C149.36 240.458 144.432 232.695 144.432 232.695Z" fill="white" stroke="#002E47" stroke-miterlimit="10" stroke-linecap="round" stroke-linejoin="round"/>
<path d="M159.461 202.375C159.461 202.375 155.415 209.108 151.167 210.924C145.729 213.26 141.322 220.248 141.577 225.951C141.832 231.654 150.126 250.303 151.422 250.823C152.717 251.344 169.04 250.048 169.561 249.273C170.081 248.497 172.407 240.724 174.478 233.215C176.549 225.707 176.549 221.82 176.549 221.82C176.549 221.82 177.589 218.974 177.589 214.312C177.589 209.649 174.223 206.017 174.223 206.017L171.111 209.904L172.152 201.1C172.152 201.1 168.785 200.58 165.939 202.396C163.093 204.212 161.022 206.803 161.022 206.803L159.461 202.375Z" fill="#002E47" stroke="#002E47" stroke-miterlimit="10" stroke-linecap="round" stroke-linejoin="round"/>
<path d="M250.387 209.384C250.004 208.226 248.847 208.226 247.88 205.72C246.914 203.214 244.216 203.787 243.452 203.405C242.676 203.023 242.676 202.63 243.069 201.472C243.452 200.315 244.418 196.459 242.687 196.459C240.956 196.459 239.607 200.506 239.214 201.472C238.832 202.439 235.742 206.485 235.742 206.485C235.742 206.485 234.202 206.867 233.235 206.867C232.269 206.867 231.111 208.8 230.92 209.756C230.803 210.361 231.738 212.315 232.449 213.696C232.906 215.384 233.618 217.073 233.618 217.073C233.618 217.073 234.584 218.422 237.473 218.039C240.361 217.657 245.767 221.512 246.532 220.928C247.307 220.354 249.038 216.882 249.813 214.949C250.578 213.048 250.769 210.542 250.387 209.384Z" fill="white" stroke="#002E47" stroke-miterlimit="10" stroke-linecap="round" stroke-linejoin="round"/>
<path d="M125.697 370.5C125.697 370.5 129.201 375.842 129.382 377.87C129.562 379.899 129.562 383.775 129.754 385.06C129.934 386.356 129.201 387.269 128.277 387.269C127.353 387.269 126.801 386.345 126.801 386.345C126.801 386.345 126.982 388.193 127.353 389.478C127.725 390.774 129.754 391.878 129.562 393.163C129.382 394.459 127.353 395.011 124.582 395.011C121.81 395.011 118.496 393.535 116.84 389.658C115.183 385.782 113.516 374.727 113.516 372.698C113.537 370.681 123.86 369.024 125.697 370.5Z" fill="white" stroke="#002E47" stroke-miterlimit="10" stroke-linecap="round" stroke-linejoin="round"/>
<path d="M121.832 377.318C121.832 377.318 122.565 378.975 121.1 381.555C119.623 384.136 118.891 385.984 118.891 386.536C118.891 387.088 119.815 388.745 120.547 390.221C121.28 391.697 123.68 391.517 123.871 392.802C124.052 394.098 123.5 394.83 123.5 394.83" stroke="#002E47" stroke-miterlimit="10" stroke-linecap="round" stroke-linejoin="round"/>
<path d="M124.156 385.209C124.156 385.209 124.411 387.651 125.155 389.488C125.887 391.336 129.764 392.441 128.287 394.469" stroke="#002E47" stroke-miterlimit="10" stroke-linecap="round" stroke-linejoin="round"/>
<path d="M121.832 385.984C121.832 385.984 122.204 388.384 122.756 389.488C123.308 390.593 126.993 391.697 126.261 394.65" stroke="#002E47" stroke-miterlimit="10" stroke-linecap="round" stroke-linejoin="round"/>
<path d="M126.811 386.356C126.811 386.356 126.439 383.403 126.259 382.299C126.078 381.194 126.078 379.166 126.078 379.166" stroke="#002E47" stroke-miterlimit="10" stroke-linecap="round" stroke-linejoin="round"/>
<path d="M187.296 257.355C187.296 257.355 181.084 251.917 170.719 249.846C160.353 247.775 146.622 251.142 141.184 254.763C135.747 258.395 135.227 264.608 135.227 264.608L187.296 257.355Z" fill="white" stroke="#002E47" stroke-miterlimit="10" stroke-linecap="round" stroke-linejoin="round"/>
<path d="M230.04 225.749C230.04 225.749 229.519 223.679 230.04 222.638C230.56 221.597 230.815 218.496 231.59 217.721C232.366 216.945 238.069 213.834 242.21 215.65C246.352 217.466 248.423 225.24 249.209 227.045C249.984 228.861 247.658 233.003 246.618 233.523C245.577 234.044 244.547 230.412 243.506 229.381C242.476 228.341 233.661 224.199 230.04 225.749Z" fill="white" stroke="#002E47" stroke-miterlimit="10" stroke-linecap="round" stroke-linejoin="round"/>
<path d="M161.647 256.845C160.607 257.1 140.917 259.691 132.113 262.282C123.309 264.873 116.056 268.24 115.79 271.607C115.535 274.973 108.335 337.727 108.08 341.359C107.825 344.991 110.416 365.965 111.712 366.751C113.008 367.526 118.966 368.047 121.036 367.271C123.107 366.496 124.403 364.935 124.403 364.935L125.178 347.582C125.178 347.582 125.699 353.54 126.729 353.795C127.769 354.05 144.082 358.977 166.363 357.161C188.643 355.345 197.968 351.979 199.784 350.683C201.6 349.387 201.334 345.5 201.334 345.5C201.334 345.5 201.589 342.654 201.589 339.798C201.589 336.951 193.242 279.635 193.242 279.635C193.242 279.635 227.438 270.311 230.029 267.199C232.621 264.088 245.057 230.157 245.057 227.565C245.057 224.974 239.354 221.087 235.212 220.832C231.07 220.577 220.96 241.042 218.634 242.593C216.298 244.143 194.028 252.958 185.733 254.508C177.45 256.059 161.647 256.845 161.647 256.845Z" fill="#39B4EF" stroke="#002E47" stroke-miterlimit="10" stroke-linecap="round" stroke-linejoin="round"/>
<path d="M153.438 274.4C153.438 274.4 156.953 288.174 167.212 293.845" stroke="#002E47" stroke-miterlimit="10" stroke-linecap="round" stroke-linejoin="round"/>
<path d="M168.602 299.962C169.377 300.366 170.163 300.759 170.98 301.13" stroke="#002E47" stroke-miterlimit="10" stroke-linecap="round" stroke-linejoin="round"/>
<path d="M153.438 288.715C153.438 288.715 157.813 293.431 164.833 297.806" stroke="#002E47" stroke-miterlimit="10" stroke-linecap="round" stroke-linejoin="round"/>
<path d="M194.589 290.138L193.251 279.635L180.465 284.351L185.403 286.379C182.992 288.492 179.838 291.498 181.792 291.147C183.545 290.829 186.784 289.204 189.163 287.919L194.589 290.138Z" fill="#002E47" stroke="#002E47" stroke-miterlimit="10" stroke-linecap="round" stroke-linejoin="round"/>
<path d="M122.843 340.063C122.843 335.401 125.115 287.93 125.115 287.93L124.34 284.563L118.584 275.419L121.643 293.165C119.211 292.411 114.315 291.116 116.173 293.579C117.745 295.682 120.336 297.88 121.972 299.187L120.23 334.286C120.082 337.217 120.804 340.127 122.291 342.665L124.075 345.702C123.469 344.396 122.843 342.474 122.843 340.063Z" fill="#002E47" stroke="#002E47" stroke-miterlimit="10" stroke-linecap="round" stroke-linejoin="round"/>
<path d="M124.074 345.692C124.637 346.902 125.179 347.572 125.179 347.572L124.074 345.692Z" fill="#002E47" stroke="#002E47" stroke-miterlimit="10" stroke-linecap="round" stroke-linejoin="round"/>
<path d="M200.306 344.205C160.672 362.078 125.18 347.571 125.18 347.571C125.18 347.571 125.7 353.529 126.73 353.784C127.771 354.039 144.083 358.967 166.364 357.151C188.645 355.335 197.969 351.968 199.785 350.673C201.601 349.377 201.336 345.49 201.336 345.49C201.336 345.49 201.389 344.895 201.453 343.971L200.306 344.205Z" fill="white" stroke="#002E47" stroke-miterlimit="10" stroke-linecap="round" stroke-linejoin="round"/>
<path d="M108.855 364.149C108.855 364.149 114.813 366.74 119.741 365.19C124.658 363.639 125.954 362.078 126.74 362.344C127.515 362.599 127.515 368.822 126.74 370.638C125.964 372.454 124.148 373.75 118.711 374.27C113.273 374.79 110.417 372.199 109.907 370.638C109.376 369.077 108.855 364.149 108.855 364.149Z" fill="white" stroke="#002E47" stroke-miterlimit="10" stroke-linecap="round" stroke-linejoin="round"/>
<path d="M87.4228 506.372C108.708 506.372 125.963 501.018 125.963 494.414C125.963 487.81 108.708 482.456 87.4228 482.456C66.1378 482.456 48.8828 487.81 48.8828 494.414C48.8828 501.018 66.1378 506.372 87.4228 506.372Z" fill="#39B4EF"/>
<path opacity="0.5" d="M87.4228 506.372C108.708 506.372 125.963 501.018 125.963 494.414C125.963 487.81 108.708 482.456 87.4228 482.456C66.1378 482.456 48.8828 487.81 48.8828 494.414C48.8828 501.018 66.1378 506.372 87.4228 506.372Z" fill="white"/>
<path d="M93.508 222.956C93.508 222.956 96.7259 226.737 96.5347 228.256C96.3435 229.764 96.917 232.227 97.671 233.173C98.4251 234.118 100.507 234.872 100.507 236.582C100.507 238.291 99.3702 239.8 99.3702 239.8C99.3702 239.8 100.124 247.361 99.3702 249.251C98.6162 251.142 95.5895 251.142 93.8903 251.142C92.1911 251.142 91.2459 250.951 90.6725 250.951C90.1096 250.951 86.7006 247.924 84.0562 241.308C81.4118 234.691 84.4385 224.857 86.7006 223.53C88.9733 222.202 93.508 222.956 93.508 222.956Z" fill="white" stroke="#002E47" stroke-miterlimit="10" stroke-linecap="round" stroke-linejoin="round"/>
<path d="M92.1914 234.5L99.944 230.146" stroke="#002E47" stroke-miterlimit="10" stroke-linecap="round" stroke-linejoin="round"/>
<path d="M96.5352 229.392C96.5352 229.392 100.698 228.256 99.1795 234.309" stroke="#002E47" stroke-miterlimit="10" stroke-linecap="round" stroke-linejoin="round"/>
<path d="M85.2266 256.887L84.0584 270.959L69.1055 267.443V256.303C69.1055 256.292 79.6511 253.945 85.2266 256.887Z" fill="white" stroke="#002E47" stroke-miterlimit="10" stroke-linecap="round" stroke-linejoin="round"/>
<path d="M83.6862 216.648C83.6862 216.648 79.5975 217.816 75.222 217.232C70.8466 216.648 61.2142 217.816 58.5911 224.231C55.968 230.645 59.1752 236.486 58.8778 238.238C58.5911 239.991 53.9183 242.614 53.9183 245.237C53.9183 247.86 55.9573 250.197 55.0865 252.236C54.2157 254.275 52.7501 256.027 53.9183 258.066C55.0865 260.105 59.7487 256.611 60.3328 258.65C60.9169 260.689 65.2923 263.323 67.3314 263.323C69.3704 263.323 71.7068 258.947 72.875 260.7C74.0432 262.452 76.3796 264.204 78.7054 263.907C81.0418 263.62 82.1887 258.225 87.1695 260.402C92.0653 262.548 93.7645 258.023 93.584 253.988C93.4141 250.186 88.9112 244.94 89.7927 242.03C90.6635 239.109 92.4158 237.07 91.8317 233.863C91.2476 230.656 88.6245 229.488 90.0794 227.151C91.5343 224.815 93.584 224.815 94.1681 221.905C94.7522 218.984 93.584 215.193 89.2086 214.609C84.8544 214.025 83.6862 216.648 83.6862 216.648Z" fill="white" stroke="#002E47" stroke-miterlimit="10" stroke-linecap="round" stroke-linejoin="round"/>
<path d="M57.3725 365.649C57.3725 365.649 61.4718 389.098 59.4221 411.676C58.5938 420.735 54.144 423.114 52.9758 435.125C51.8076 447.147 55.9069 471.477 53.8572 484.381C53.5811 486.144 51.5102 490.54 53.8572 492.887C56.2043 495.234 64.4135 493.769 66.7605 493.769C69.1076 493.769 74.6724 492.887 75.2672 491.422C75.8513 489.956 71.7519 488.491 69.1076 483.51C66.4738 478.529 64.4135 471.785 64.4135 465.042C64.4135 458.298 68.5128 439.246 71.7413 423.709C74.9698 408.171 76.7221 399.665 76.7221 390.871C76.7221 382.078 76.7221 364.778 76.7221 363.313C76.7221 361.847 68.8102 358.332 62.6506 359.5C56.5016 360.668 57.3725 365.649 57.3725 365.649Z" fill="white" stroke="#002E47" stroke-miterlimit="10" stroke-linecap="round" stroke-linejoin="round"/>
<path d="M69.1049 483.497C68.6589 482.647 68.2341 481.723 67.8199 480.778C67.0659 482.392 66.7898 484.336 65.2923 484.665C62.6586 485.249 53.8546 484.368 53.8546 484.368C53.5572 486.13 51.5076 490.527 53.8546 492.874C56.2016 495.221 64.4109 493.756 66.7579 493.756C69.1049 493.756 74.6698 492.874 75.2645 491.409C75.8486 489.943 71.7387 488.477 69.1049 483.497Z" fill="#002E47" stroke="#002E47" stroke-miterlimit="10" stroke-linecap="round" stroke-linejoin="round"/>
<path d="M65.0612 471.698C64.6577 469.521 64.4134 467.28 64.4134 465.028C64.4134 458.285 68.5127 439.232 71.7412 423.695C74.9697 408.158 76.722 399.652 76.722 390.858C76.722 382.065 76.722 364.765 76.722 363.3C76.722 361.834 68.8101 358.319 62.6505 359.487C56.4909 360.655 57.3723 365.647 57.3723 365.647C57.3723 365.647 61.4717 389.096 59.422 411.674C58.5936 420.732 54.1439 423.111 52.9757 435.123C52.1261 443.852 54.0589 459.071 54.3881 471.698C56.9475 472.346 60.6645 472.749 65.0612 471.698Z" fill="#39B4EF" stroke="#002E47" stroke-miterlimit="10" stroke-linecap="round" stroke-linejoin="round"/>
<path d="M53.5664 466.197C53.5664 466.197 57.9631 467.078 60.3101 467.078C62.6571 467.078 65.875 465.91 65.875 465.91L66.7564 473.535C66.7564 473.535 61.7757 475.001 58.5472 475.001C55.3187 475.001 54.1505 474.417 54.1505 474.417C54.1505 474.417 53.5664 468.544 53.5664 466.197Z" fill="white" stroke="#002E47" stroke-miterlimit="10" stroke-linecap="round" stroke-linejoin="round"/>
<path d="M54.1507 343.95C54.1507 343.95 52.3878 355.674 54.1507 361.537C55.9136 367.399 60.597 375.608 61.7759 377.955C62.9547 380.302 64.4096 387.63 64.4096 389.095C64.4096 390.561 65.5778 407.861 63.8255 416.654C62.0626 425.448 60.0129 430.428 60.0129 438.935C60.0129 447.442 64.1123 479.174 64.1123 484.739C64.1123 490.304 62.0626 497.345 63.5282 498.811C64.9937 500.276 90.2056 497.292 92.5526 496.411C94.8996 495.529 94.8996 492.895 94.0182 491.717C93.1367 490.548 82.5804 487.086 80.8281 485.621C79.0652 484.155 77.897 479.461 77.5997 477.411C77.3023 475.362 78.1838 443.916 79.3626 436.885C80.5308 429.844 85.2248 416.07 87.8692 408.445C90.503 400.82 95.197 373.856 95.197 364.181C95.197 354.506 94.3155 346.881 94.3155 346.881C94.3155 346.881 67.0434 348.931 54.1507 343.95Z" fill="white" stroke="#002E47" stroke-miterlimit="10" stroke-linecap="round" stroke-linejoin="round"/>
<path d="M92.5523 496.411C94.8993 495.529 94.8993 492.895 94.0178 491.716C93.1364 490.548 82.5801 487.086 80.8278 485.621C80.5729 485.408 80.3287 485.121 80.1056 484.792L79.3623 489.433C79.3623 489.433 76.7285 491.78 72.9159 491.78C69.9848 491.78 65.6731 489.869 63.8358 488.998C63.326 493.426 62.2959 497.876 63.5385 498.821C69.4857 503.345 90.2053 497.292 92.5523 496.411Z" fill="#002E47" stroke="#002E47" stroke-miterlimit="10" stroke-linecap="round" stroke-linejoin="round"/>
<path d="M77.5455 476.318C77.4605 470.71 78.2889 443.311 79.3509 436.885C80.5191 429.844 85.2131 416.07 87.8575 408.445C90.4912 400.82 95.1853 373.856 95.1853 364.181C95.1853 354.506 94.3038 346.881 94.3038 346.881C94.3038 346.881 67.0423 348.931 54.139 343.95C54.139 343.95 52.3761 355.674 54.139 361.537C55.9019 367.399 60.5853 375.608 61.7641 377.955C62.943 380.302 64.3979 387.63 64.3979 389.095C64.3979 390.561 65.5661 407.861 63.8138 416.654C62.0509 425.448 60.0012 430.428 60.0012 438.935C60.0012 444.957 62.0615 464.551 63.2616 475.192C66.1502 475.935 70.2601 476.827 73.4886 476.827C74.9648 476.827 76.3348 476.615 77.5455 476.318Z" fill="#39B4EF" stroke="#002E47" stroke-miterlimit="10" stroke-linecap="round" stroke-linejoin="round"/>
<path d="M63.2401 478.877C63.2401 478.877 65.8739 480.045 69.3997 480.045C72.9255 480.045 78.1931 480.927 77.9063 479.164C77.609 477.401 78.2037 471.539 78.2037 471.539C78.2037 471.539 71.7573 472.42 67.9448 471.836C64.1322 471.252 61.7852 470.954 61.7852 470.954C61.7852 470.954 62.3586 477.125 63.2401 478.877Z" fill="white" stroke="#002E47" stroke-miterlimit="10" stroke-linecap="round" stroke-linejoin="round"/>
<path d="M87.2751 274.177C87.2751 274.177 83.1758 268.314 75.2533 266.265C67.3414 264.215 59.7162 275.939 57.6665 282.386C55.6169 288.832 55.3195 306.132 52.3884 314.925C49.4573 323.719 47.4076 341.306 48.5758 343.366C49.744 345.415 74.9559 351.872 83.7599 351.872C92.5532 351.872 101.941 344.831 102.228 341.316C102.525 337.801 100.763 314.341 99.2969 301.735C97.8314 289.129 87.2751 274.177 87.2751 274.177Z" fill="#002E47" stroke="#002E47" stroke-miterlimit="10" stroke-linecap="round" stroke-linejoin="round"/>
<path d="M83.3663 371.647C83.3663 371.647 83.2707 375.714 83.3663 378.104C83.4619 380.483 82.9733 382.968 82.4742 384.561C81.9751 386.154 80.7856 387.237 80.69 386.154C80.5945 385.07 81.083 383.074 81.083 382.182C81.083 381.29 80.7856 377.212 80.7856 377.212C80.7856 377.212 80.4883 379.293 79.8935 381.577C79.2988 383.86 77.6102 386.239 76.8137 386.44C76.0172 386.642 75.5181 385.941 75.9217 384.847C76.3146 383.754 77.3129 380.578 77.4085 379.877C77.504 379.187 77.504 376.999 77.504 376.999C77.504 376.999 75.6137 382.458 74.8278 383.658C74.0313 384.847 73.9357 385.442 73.1392 385.548C72.3427 385.644 72.4489 383.955 72.9374 382.67C73.4366 381.375 74.2331 377.212 74.2331 376.808C74.2331 376.415 73.341 378.592 72.2471 379.792C71.1533 380.982 70.3568 381.98 69.8683 381.778C69.3691 381.577 70.07 379.697 70.463 378.794C70.8559 377.902 71.4613 376.118 71.4613 375.512C71.4613 374.918 71.4613 372.932 71.4613 372.932C71.4613 372.932 70.5692 370.946 74.7428 370.256C78.8953 369.565 82.4742 368.769 83.3663 371.647Z" fill="white" stroke="#002E47" stroke-miterlimit="10" stroke-linecap="round" stroke-linejoin="round"/>
<path d="M68.8195 368.875C68.8195 368.875 67.8849 371.509 70.0726 372.974C72.2604 374.44 80.066 375.608 82.5617 373.272C85.0574 370.925 85.0574 368.578 85.0574 368.578L68.8195 368.875Z" fill="white" stroke="#002E47" stroke-miterlimit="10" stroke-linecap="round" stroke-linejoin="round"/>
<path d="M71.154 277.692C71.154 277.692 64.7076 288.248 64.7076 294.992C64.7076 301.735 61.1924 348.931 60.895 354.793C60.5977 360.655 61.1924 365.349 64.7076 368.28C68.2228 371.212 82.5917 371.212 86.4043 369.746C90.2169 368.28 93.7321 361.537 93.7321 356.843C93.7321 352.149 89.3354 317.559 88.4539 310.816C87.5725 304.072 87.2857 286.188 84.6414 282.088C82.0076 277.989 81.1261 277.692 81.1261 277.692" fill="#002E47"/>
<path d="M71.154 277.692C71.154 277.692 64.7076 288.248 64.7076 294.992C64.7076 301.735 61.1924 348.931 60.895 354.793C60.5977 360.655 61.1924 365.349 64.7076 368.28C68.2228 371.212 82.5917 371.212 86.4043 369.746C90.2169 368.28 93.7321 361.537 93.7321 356.843C93.7321 352.149 89.3354 317.559 88.4539 310.816C87.5725 304.072 87.2857 286.188 84.6414 282.088C82.0076 277.989 81.1261 277.692 81.1261 277.692" stroke="#002E47" stroke-miterlimit="10" stroke-linecap="round" stroke-linejoin="round"/>
<path d="M61.5234 344.184C61.5234 344.184 63.3288 303.328 64.7094 294.992C66.09 286.666 69.5203 279.805 69.5203 279.805" stroke="#B3C7EB" stroke-miterlimit="10" stroke-linecap="round" stroke-linejoin="round"/>
<path d="M82.8477 280.187C82.8477 280.187 87.9134 289.926 88.1789 300.376C88.4444 310.826 91.9915 344.183 91.9915 344.183" stroke="#B3C7EB" stroke-miterlimit="10" stroke-linecap="round" stroke-linejoin="round"/>
<path d="M86.9883 290.298L87.8591 284.435" stroke="#B3C7EB" stroke-miterlimit="10" stroke-linecap="round" stroke-linejoin="round"/>
</svg>
