<svg width="588" height="385" viewBox="0 0 588 385" fill="none" xmlns="http://www.w3.org/2000/svg">
<g clip-path="url(#clip0_266_52282)">
<path d="M457.657 40.8646C328.604 -0.964622 263.651 29.7671 222.628 69.0354C181.604 108.304 167.93 133.913 120.924 139.035C73.9183 144.157 30.3311 152.694 8.1102 209.889C-14.1107 267.084 14.0928 312.328 56.8253 340.499C56.9791 340.601 57.133 340.695 57.2954 340.798L504.022 332.722C538.532 324.331 573 314.923 578.171 234.645C578.162 234.645 586.709 82.6939 457.657 40.8646Z" fill="#39B4EF"/>
<path opacity="0.7" d="M457.657 40.8646C328.604 -0.964622 263.651 29.7671 222.628 69.0354C181.604 108.304 167.93 133.913 120.924 139.035C73.9183 144.157 30.3311 152.694 8.1102 209.889C-14.1107 267.084 14.0928 312.328 56.8253 340.499C56.9791 340.601 57.133 340.695 57.2954 340.798L504.022 332.722C538.532 324.331 573 314.923 578.171 234.645C578.162 234.645 586.709 82.6939 457.657 40.8646Z" fill="white"/>
<path d="M511.559 359.826H574.196" stroke="#002E47" stroke-miterlimit="10" stroke-linecap="round" stroke-linejoin="round"/>
<path d="M31.2461 359.826H68.9191" stroke="#002E47" stroke-miterlimit="10" stroke-linecap="round" stroke-linejoin="round"/>
<path opacity="0.2" d="M174.136 170.459H131.113V187.856H174.136V170.459Z" fill="#002E47"/>
<path opacity="0.2" d="M322.828 122.654H279.805V140.051H322.828V122.654Z" fill="#002E47"/>
<path opacity="0.2" d="M456.152 122.654H413.129V140.051H456.152V122.654Z" fill="#002E47"/>
<path opacity="0.2" d="M533.074 155.093H490.051V172.49H533.074V155.093Z" fill="#002E47"/>
<path opacity="0.1" d="M299.265 146.693H256.242V164.09H299.265V146.693Z" fill="#002E47"/>
<path opacity="0.2" d="M224.601 122.654H181.578V140.051H224.601V122.654Z" fill="#002E47"/>
<path opacity="0.1" d="M201.039 146.693H158.016V164.09H201.039V146.693Z" fill="#002E47"/>
<path opacity="0.1" d="M250.215 146.693H207.191V164.09H250.215V146.693Z" fill="#002E47"/>
<path opacity="0.2" d="M124.047 186.516H81.0234V203.913H124.047V186.516Z" fill="#002E47"/>
<path opacity="0.1" d="M102.824 146.693H59.8008V164.09H102.824V146.693Z" fill="#002E47"/>
<path opacity="0.1" d="M152 146.693H108.977V164.09H152V146.693Z" fill="#002E47"/>
<path opacity="0.2" d="M322.828 24.4829H279.805V41.8805H322.828V24.4829Z" fill="#002E47"/>
<path opacity="0.1" d="M299.265 48.522H256.242V65.9195H299.265V48.522Z" fill="#002E47"/>
<path opacity="0.2" d="M539.058 24.4829H496.035V41.8805H539.058V24.4829Z" fill="#002E47"/>
<path opacity="0.1" d="M515.496 48.522H472.473V65.9195H515.496V48.522Z" fill="#002E47"/>
<path opacity="0.2" d="M236.57 24.4829H193.547V41.8805H236.57V24.4829Z" fill="#002E47"/>
<path opacity="0.1" d="M250.218 96.8817H207.195V114.279H250.218V96.8817Z" fill="#002E47"/>
<path opacity="0.2" d="M372.75 211.434H329.727V228.832H372.75V211.434Z" fill="#002E47"/>
<path opacity="0.2" d="M372.75 258.385H329.727V275.783H372.75V258.385Z" fill="#002E47"/>
<path opacity="0.2" d="M174.136 259.239H131.113V276.637H174.136V259.239Z" fill="#002E47"/>
<path opacity="0.1" d="M446.652 235.473H403.629V252.871H446.652V235.473Z" fill="#002E47"/>
<path opacity="0.1" d="M423.172 258.223H380.148V275.621H423.172V258.223Z" fill="#002E47"/>
<path opacity="0.1" d="M571.054 235.473H528.031V252.871H571.054V235.473Z" fill="#002E47"/>
<path opacity="0.1" d="M547.566 258.223H504.543V275.621H547.566V258.223Z" fill="#002E47"/>
<path opacity="0.2" d="M322.828 211.434H279.805V228.832H322.828V211.434Z" fill="#002E47"/>
<path opacity="0.1" d="M348.433 235.473H305.41V252.871H348.433V235.473Z" fill="#002E47"/>
<path opacity="0.1" d="M327.922 284.985H284.898V302.383H327.922V284.985Z" fill="#002E47"/>
<path opacity="0.1" d="M389.457 308.034H346.434V325.432H389.457V308.034Z" fill="#002E47"/>
<path opacity="0.1" d="M227.07 308.034H184.047V325.432H227.07V308.034Z" fill="#002E47"/>
<path opacity="0.1" d="M104.386 308.034H61.3633V325.432H104.386V308.034Z" fill="#002E47"/>
<path opacity="0.1" d="M260.804 176.571H217.781V193.968H260.804V176.571Z" fill="#002E47"/>
<path opacity="0.1" d="M309.972 176.571H266.949V193.968H309.972V176.571Z" fill="#002E47"/>
<path opacity="0.1" d="M446.718 176.571H403.695V193.968H446.718V176.571Z" fill="#002E47"/>
<path opacity="0.2" d="M224.601 211.434H181.578V228.832H224.601V211.434Z" fill="#002E47"/>
<path opacity="0.1" d="M271.976 261.083H228.953V278.481H271.976V261.083Z" fill="#002E47"/>
<path opacity="0.2" d="M126.386 211.434H83.3633V228.832H126.386V211.434Z" fill="#002E47"/>
<path opacity="0.2" d="M124.047 275.296H81.0234V292.694H124.047V275.296Z" fill="#002E47"/>
<path opacity="0.1" d="M102.824 235.473H59.8008V252.871H102.824V235.473Z" fill="#002E47"/>
<path opacity="0.1" d="M152 235.473H108.977V252.871H152V235.473Z" fill="#002E47"/>
<path d="M540.43 214.072L552.549 330.135" stroke="#002E47" stroke-width="2" stroke-miterlimit="10"/>
<path d="M550.601 307.923L545.105 302.127" stroke="#002E47" stroke-width="2" stroke-miterlimit="10"/>
<path d="M546.772 303.86C546.772 303.86 546.926 301.29 544.584 299.199C543.174 297.944 535.747 294.82 535.037 297.432C534.277 300.283 541.875 305.857 546.772 303.86Z" fill="#39B4EF" stroke="#002E47" stroke-miterlimit="10"/>
<path d="M546.771 303.86L539.703 299.463" stroke="#002E47" stroke-width="0.5" stroke-miterlimit="10"/>
<path d="M551.976 321.121L546.48 315.324" stroke="#002E47" stroke-width="2" stroke-miterlimit="10"/>
<path d="M548.147 317.066C548.147 317.066 548.301 314.496 545.959 312.405C544.549 311.15 537.122 308.026 536.412 310.638C535.652 313.481 543.25 319.063 548.147 317.066Z" fill="#39B4EF" stroke="#002E47" stroke-miterlimit="10"/>
<path d="M548.146 317.066L541.078 312.661" stroke="#002E47" stroke-width="0.5" stroke-miterlimit="10"/>
<path d="M547.234 275.715L541.738 269.91" stroke="#002E47" stroke-width="2" stroke-miterlimit="10"/>
<path d="M543.405 271.651C543.405 271.651 543.558 269.082 541.217 266.99C539.806 265.735 532.38 262.611 531.67 265.223C530.91 268.066 538.507 273.649 543.405 271.651Z" fill="#39B4EF" stroke="#002E47" stroke-miterlimit="10"/>
<path d="M543.404 271.651L536.336 267.246" stroke="#002E47" stroke-width="0.5" stroke-miterlimit="10"/>
<path d="M548.609 288.912L543.113 283.116" stroke="#002E47" stroke-width="2" stroke-miterlimit="10"/>
<path d="M544.788 284.849C544.788 284.849 544.942 282.279 542.601 280.188C541.19 278.933 533.763 275.809 533.054 278.421C532.285 281.272 539.891 286.846 544.788 284.849Z" fill="#39B4EF" stroke="#002E47" stroke-miterlimit="10"/>
<path d="M544.787 284.849L537.711 280.452" stroke="#002E47" stroke-width="0.5" stroke-miterlimit="10"/>
<path d="M544.995 254.271L539.5 248.474" stroke="#002E47" stroke-width="2" stroke-miterlimit="10"/>
<path d="M541.166 250.207C541.166 250.207 541.32 247.638 538.978 245.546C537.568 244.292 530.141 241.167 529.432 243.779C528.671 246.622 536.269 252.205 541.166 250.207Z" fill="#39B4EF" stroke="#002E47" stroke-miterlimit="10"/>
<path d="M541.166 250.207L534.098 245.811" stroke="#002E47" stroke-width="0.5" stroke-miterlimit="10"/>
<path d="M542.746 232.733L537.242 226.937" stroke="#002E47" stroke-width="2" stroke-miterlimit="10"/>
<path d="M538.917 228.67C538.917 228.67 539.071 226.1 536.729 224.009C535.319 222.754 527.892 219.629 527.183 222.241C526.414 225.093 534.02 230.667 538.917 228.67Z" fill="#39B4EF" stroke="#002E47" stroke-miterlimit="10"/>
<path d="M538.916 228.67L531.84 224.273" stroke="#002E47" stroke-width="0.5" stroke-miterlimit="10"/>
<path d="M549.676 300.112L553.855 293.309" stroke="#002E47" stroke-width="2" stroke-miterlimit="10"/>
<path d="M552.583 295.349C552.583 295.349 551.9 292.873 553.763 290.338C554.882 288.818 561.506 284.234 562.737 286.641C564.07 289.271 557.78 296.296 552.583 295.349Z" fill="#39B4EF" stroke="#002E47" stroke-miterlimit="10"/>
<path d="M552.582 295.349L558.949 289.271" stroke="#002E47" stroke-width="0.5" stroke-miterlimit="10"/>
<path d="M546.047 265.377L550.226 258.565" stroke="#002E47" stroke-width="2" stroke-miterlimit="10"/>
<path d="M548.955 260.613C548.955 260.613 548.271 258.138 550.134 255.602C551.254 254.083 557.877 249.49 559.108 251.906C560.441 254.527 554.159 261.561 548.955 260.613Z" fill="#39B4EF" stroke="#002E47" stroke-miterlimit="10"/>
<path d="M548.953 260.613L555.32 254.535" stroke="#002E47" stroke-width="0.5" stroke-miterlimit="10"/>
<path d="M544.445 250.113L548.625 243.301" stroke="#002E47" stroke-width="2" stroke-miterlimit="10"/>
<path d="M547.353 245.35C547.353 245.35 546.669 242.874 548.532 240.339C549.652 238.82 556.276 234.235 557.506 236.643C558.839 239.263 552.558 246.289 547.353 245.35Z" fill="#39B4EF" stroke="#002E47" stroke-miterlimit="10"/>
<path d="M547.352 245.35L553.719 239.272" stroke="#002E47" stroke-width="0.5" stroke-miterlimit="10"/>
<path d="M542.113 227.73L546.293 220.927" stroke="#002E47" stroke-width="2" stroke-miterlimit="10"/>
<path d="M545.021 222.967C545.021 222.967 544.337 220.491 546.2 217.956C547.32 216.437 553.943 211.852 555.174 214.26C556.507 216.889 550.217 223.915 545.021 222.967Z" fill="#39B4EF" stroke="#002E47" stroke-miterlimit="10"/>
<path d="M545.02 222.967L551.387 216.889" stroke="#002E47" stroke-width="0.5" stroke-miterlimit="10"/>
<path d="M540.326 213.423C540.326 213.423 539.642 210.948 541.505 208.412C542.625 206.893 549.248 202.309 550.479 204.716C551.812 207.345 545.522 214.371 540.326 213.423Z" fill="#39B4EF" stroke="#002E47" stroke-miterlimit="10"/>
<path d="M540.328 213.423L546.687 207.345" stroke="#002E47" stroke-width="0.5" stroke-miterlimit="10"/>
<path d="M540.695 213.688C540.695 213.688 538.156 214.106 535.832 211.989C534.43 210.717 530.558 203.657 533.088 202.693C535.84 201.634 542.182 208.617 540.695 213.688Z" fill="#39B4EF" stroke="#002E47" stroke-miterlimit="10"/>
<path d="M540.693 213.688L535.309 206.722" stroke="#002E47" stroke-width="0.5" stroke-miterlimit="10"/>
<path d="M572.411 230.052L560.352 346.124" stroke="#002E47" stroke-width="2" stroke-miterlimit="10"/>
<path d="M563.02 323.989L558.832 317.185" stroke="#002E47" stroke-width="2" stroke-miterlimit="10"/>
<path d="M560.114 319.226C560.114 319.226 560.798 316.75 558.935 314.215C557.815 312.695 551.191 308.111 549.961 310.527C548.619 313.148 554.909 320.173 560.114 319.226Z" fill="#39B4EF" stroke="#002E47" stroke-miterlimit="10"/>
<path d="M560.114 319.226L554.098 313.463" stroke="#002E47" stroke-width="0.5" stroke-miterlimit="10"/>
<path d="M566.371 291.78L562.184 284.968" stroke="#002E47" stroke-width="2" stroke-miterlimit="10"/>
<path d="M563.456 287.017C563.456 287.017 564.139 284.541 562.276 282.006C561.157 280.487 554.533 275.902 553.302 278.318C551.969 280.939 558.259 287.965 563.456 287.017Z" fill="#39B4EF" stroke="#002E47" stroke-miterlimit="10"/>
<path d="M563.457 287.017L557.449 281.255" stroke="#002E47" stroke-width="0.5" stroke-miterlimit="10"/>
<path d="M564.992 304.978L560.812 298.174" stroke="#002E47" stroke-width="2" stroke-miterlimit="10"/>
<path d="M562.087 300.215C562.087 300.215 562.77 297.739 560.907 295.204C559.788 293.684 553.164 289.1 551.933 291.516C550.592 294.137 556.882 301.162 562.087 300.215Z" fill="#39B4EF" stroke="#002E47" stroke-miterlimit="10"/>
<path d="M562.086 300.215L556.078 294.452" stroke="#002E47" stroke-width="0.5" stroke-miterlimit="10"/>
<path d="M568.593 270.337L564.414 263.524" stroke="#002E47" stroke-width="2" stroke-miterlimit="10"/>
<path d="M565.686 265.573C565.686 265.573 566.37 263.098 564.507 260.562C563.387 259.043 556.764 254.459 555.533 256.874C554.2 259.495 560.481 266.521 565.686 265.573Z" fill="#39B4EF" stroke="#002E47" stroke-miterlimit="10"/>
<path d="M565.688 265.573L559.68 259.811" stroke="#002E47" stroke-width="0.5" stroke-miterlimit="10"/>
<path d="M570.832 248.799L566.652 241.987" stroke="#002E47" stroke-width="2" stroke-miterlimit="10"/>
<path d="M567.926 244.035C567.926 244.035 568.61 241.56 566.747 239.024C565.627 237.505 559.004 232.921 557.773 235.337C556.431 237.957 562.722 244.983 567.926 244.035Z" fill="#39B4EF" stroke="#002E47" stroke-miterlimit="10"/>
<path d="M567.927 244.035L561.91 238.273" stroke="#002E47" stroke-width="0.5" stroke-miterlimit="10"/>
<path d="M563.73 316.161L569.226 310.356" stroke="#002E47" stroke-width="2" stroke-miterlimit="10"/>
<path d="M567.549 312.089C567.549 312.089 567.387 309.519 569.737 307.428C571.147 306.165 578.574 303.04 579.275 305.652C580.044 308.504 572.446 314.087 567.549 312.089Z" fill="#39B4EF" stroke="#002E47" stroke-miterlimit="10"/>
<path d="M567.551 312.089L575.038 307.454" stroke="#002E47" stroke-width="0.5" stroke-miterlimit="10"/>
<path d="M567.336 281.417L572.831 275.612" stroke="#002E47" stroke-width="2" stroke-miterlimit="10"/>
<path d="M571.155 277.354C571.155 277.354 570.992 274.784 573.343 272.693C574.753 271.429 582.18 268.305 582.881 270.917C583.65 273.76 576.052 279.351 571.155 277.354Z" fill="#39B4EF" stroke="#002E47" stroke-miterlimit="10"/>
<path d="M571.156 277.354L578.643 272.718" stroke="#002E47" stroke-width="0.5" stroke-miterlimit="10"/>
<path d="M568.918 266.154L574.413 260.349" stroke="#002E47" stroke-width="2" stroke-miterlimit="10"/>
<path d="M572.748 262.09C572.748 262.09 572.586 259.521 574.936 257.429C576.347 256.166 583.773 253.041 584.474 255.654C585.243 258.496 577.646 264.079 572.748 262.09Z" fill="#39B4EF" stroke="#002E47" stroke-miterlimit="10"/>
<path d="M572.746 262.09L580.233 257.446" stroke="#002E47" stroke-width="0.5" stroke-miterlimit="10"/>
<path d="M571.25 243.771L576.737 237.966" stroke="#002E47" stroke-width="2" stroke-miterlimit="10"/>
<path d="M575.073 239.707C575.073 239.707 574.91 237.138 577.261 235.046C578.671 233.783 586.098 230.659 586.799 233.271C587.568 236.113 579.97 241.705 575.073 239.707Z" fill="#39B4EF" stroke="#002E47" stroke-miterlimit="10"/>
<path d="M575.07 239.707L582.557 235.072" stroke="#002E47" stroke-width="0.5" stroke-miterlimit="10"/>
<path d="M572.448 229.404C572.448 229.404 572.285 226.834 574.636 224.743C576.046 223.479 583.473 220.355 584.174 222.967C584.943 225.81 577.345 231.393 572.448 229.404Z" fill="#39B4EF" stroke="#002E47" stroke-miterlimit="10"/>
<path d="M572.449 229.404L579.927 224.76" stroke="#002E47" stroke-width="0.5" stroke-miterlimit="10"/>
<path d="M572.755 229.737C572.755 229.737 570.183 229.626 568.345 227.073C567.243 225.537 564.91 217.837 567.585 217.41C570.49 216.949 575.251 225.076 572.755 229.737Z" fill="#39B4EF" stroke="#002E47" stroke-miterlimit="10"/>
<path d="M572.755 229.737L568.918 221.815" stroke="#002E47" stroke-width="0.5" stroke-miterlimit="10"/>
<path d="M558.59 182.785V329.572" stroke="#002E47" stroke-width="2" stroke-miterlimit="10"/>
<path d="M558.711 307.505L553.848 301.162" stroke="#002E47" stroke-width="2" stroke-miterlimit="10"/>
<path d="M555.326 303.066C555.326 303.066 555.745 300.53 553.634 298.208C552.36 296.808 545.301 292.933 544.327 295.46C543.267 298.208 550.249 304.543 555.326 303.066Z" fill="#39B4EF" stroke="#002E47" stroke-miterlimit="10"/>
<path d="M555.326 303.066L548.754 297.952" stroke="#002E47" stroke-width="0.5" stroke-miterlimit="10"/>
<path d="M558.711 279.915L553.848 273.58" stroke="#002E47" stroke-width="2" stroke-miterlimit="10"/>
<path d="M555.326 275.476C555.326 275.476 555.745 272.94 553.634 270.618C552.36 269.218 545.301 265.343 544.327 267.869C543.267 270.618 550.249 276.961 555.326 275.476Z" fill="#39B4EF" stroke="#002E47" stroke-miterlimit="10"/>
<path d="M555.326 275.476L548.754 270.371" stroke="#002E47" stroke-width="0.5" stroke-miterlimit="10"/>
<path d="M558.711 247.527L553.848 241.193" stroke="#002E47" stroke-width="2" stroke-miterlimit="10"/>
<path d="M555.326 243.096C555.326 243.096 555.745 240.561 553.634 238.239C552.36 236.839 545.301 232.963 544.327 235.49C543.267 238.23 550.249 244.573 555.326 243.096Z" fill="#39B4EF" stroke="#002E47" stroke-miterlimit="10"/>
<path d="M555.326 243.096L548.754 237.983" stroke="#002E47" stroke-width="0.5" stroke-miterlimit="10"/>
<path d="M558.711 225.972L553.848 219.629" stroke="#002E47" stroke-width="2" stroke-miterlimit="10"/>
<path d="M555.326 221.533C555.326 221.533 555.745 218.998 553.634 216.676C552.36 215.276 545.301 211.4 544.327 213.927C543.267 216.676 550.249 223.01 555.326 221.533Z" fill="#39B4EF" stroke="#002E47" stroke-miterlimit="10"/>
<path d="M555.326 221.533L548.754 216.428" stroke="#002E47" stroke-width="0.5" stroke-miterlimit="10"/>
<path d="M558.711 204.315L553.848 197.98" stroke="#002E47" stroke-width="2" stroke-miterlimit="10"/>
<path d="M555.326 199.884C555.326 199.884 555.745 197.349 553.634 195.027C552.36 193.627 545.301 189.751 544.327 192.278C543.267 195.018 550.249 201.361 555.326 199.884Z" fill="#39B4EF" stroke="#002E47" stroke-miterlimit="10"/>
<path d="M555.326 199.884L548.754 194.771" stroke="#002E47" stroke-width="0.5" stroke-miterlimit="10"/>
<path d="M558.598 315.922L563.469 309.588" stroke="#002E47" stroke-width="2" stroke-miterlimit="10"/>
<path d="M561.983 311.491C561.983 311.491 561.564 308.956 563.675 306.634C564.949 305.234 572.008 301.359 572.982 303.885C574.042 306.626 567.06 312.968 561.983 311.491Z" fill="#39B4EF" stroke="#002E47" stroke-miterlimit="10"/>
<path d="M561.98 311.491L568.946 306.105" stroke="#002E47" stroke-width="0.5" stroke-miterlimit="10"/>
<path d="M558.598 272.052L563.469 265.718" stroke="#002E47" stroke-width="2" stroke-miterlimit="10"/>
<path d="M561.983 267.613C561.983 267.613 561.564 265.078 563.675 262.756C564.949 261.356 572.008 257.48 572.982 260.007C574.042 262.756 567.06 269.099 561.983 267.613Z" fill="#39B4EF" stroke="#002E47" stroke-miterlimit="10"/>
<path d="M561.98 267.613L568.946 262.227" stroke="#002E47" stroke-width="0.5" stroke-miterlimit="10"/>
<path d="M558.598 250.404L563.469 244.061" stroke="#002E47" stroke-width="2" stroke-miterlimit="10"/>
<path d="M561.983 245.965C561.983 245.965 561.564 243.429 563.675 241.107C564.949 239.707 572.008 235.832 572.982 238.359C574.042 241.099 567.06 247.441 561.983 245.965Z" fill="#39B4EF" stroke="#002E47" stroke-miterlimit="10"/>
<path d="M561.98 245.965L568.946 240.578" stroke="#002E47" stroke-width="0.5" stroke-miterlimit="10"/>
<path d="M558.598 221.78L563.469 215.438" stroke="#002E47" stroke-width="2" stroke-miterlimit="10"/>
<path d="M561.983 217.341C561.983 217.341 561.564 214.806 563.675 212.484C564.949 211.084 572.008 207.209 572.982 209.735C574.042 212.484 567.06 218.818 561.983 217.341Z" fill="#39B4EF" stroke="#002E47" stroke-miterlimit="10"/>
<path d="M561.98 217.341L568.946 211.955" stroke="#002E47" stroke-width="0.5" stroke-miterlimit="10"/>
<path d="M558.602 199.278L563.473 192.944" stroke="#002E47" stroke-width="2" stroke-miterlimit="10"/>
<path d="M561.987 194.839C561.987 194.839 561.568 192.304 563.679 189.982C564.953 188.582 572.012 184.706 572.986 187.233C574.046 189.982 567.064 196.324 561.987 194.839Z" fill="#39B4EF" stroke="#002E47" stroke-miterlimit="10"/>
<path d="M561.984 194.839L568.95 189.452" stroke="#002E47" stroke-width="0.5" stroke-miterlimit="10"/>
<path d="M558.311 184.86C558.311 184.86 557.892 182.324 560.003 180.002C561.277 178.602 568.336 174.727 569.31 177.254C570.37 180.002 563.388 186.345 558.311 184.86Z" fill="#39B4EF" stroke="#002E47" stroke-miterlimit="10"/>
<path d="M558.309 184.86L565.274 179.473" stroke="#002E47" stroke-width="0.5" stroke-miterlimit="10"/>
<path d="M558.652 185.159C558.652 185.159 556.079 185.312 553.994 182.965C552.738 181.556 549.618 174.129 552.234 173.429C555.08 172.678 560.66 180.276 558.652 185.159Z" fill="#39B4EF" stroke="#002E47" stroke-miterlimit="10"/>
<path d="M558.652 185.159L554.02 177.68" stroke="#002E47" stroke-width="0.5" stroke-miterlimit="10"/>
<path d="M564.641 367.645H549.078L547.129 328.385H566.581L564.641 367.645Z" fill="#002E47" stroke="#002E47" stroke-miterlimit="10"/>
<path d="M78.6539 54.0892C81.9503 52.8658 83.6296 49.2049 82.4048 45.9124C81.18 42.6199 77.5149 40.9425 74.2186 42.1659C70.9222 43.3892 69.2429 47.0501 70.4677 50.3426C71.6925 53.6351 75.3576 55.3125 78.6539 54.0892Z" fill="white" stroke="#002E47" stroke-miterlimit="10"/>
<path d="M104.816 49.4098H47.5547L67.5963 25.5073H84.7747L104.816 49.4098Z" fill="#002E47"/>
<path d="M79.9614 20.889H72.4062V28.4354H79.9614V20.889Z" fill="#002E47"/>
<path d="M76.4922 22.3061V0.469513" stroke="#002E47" stroke-miterlimit="10"/>
<path d="M497.421 53.919C500.627 52.474 502.052 48.7072 500.606 45.5057C499.159 42.3041 495.388 40.8802 492.183 42.3252C488.977 43.7702 487.552 47.5369 488.998 50.7385C490.445 53.94 494.216 55.364 497.421 53.919Z" fill="white" stroke="#002E47" stroke-miterlimit="10"/>
<path d="M523.168 49.4098H465.906L485.948 25.5073H503.126L523.168 49.4098Z" fill="#002E47"/>
<path d="M498.313 20.889H490.758V28.4354H498.313V20.889Z" fill="#002E47"/>
<path d="M494.844 22.3061V0.469513" stroke="#002E47" stroke-miterlimit="10"/>
<path d="M372.988 68.3781H155.309V201.489H372.988V68.3781Z" fill="#002E47" stroke="#002E47" stroke-miterlimit="10" stroke-linecap="round" stroke-linejoin="round"/>
<path d="M365.74 74.3537H162.547V195.522H365.74V74.3537Z" fill="white" stroke="#002E47" stroke-miterlimit="10" stroke-linecap="round" stroke-linejoin="round"/>
<path d="M261.838 150.457H249.488V164.509H261.838V150.457Z" fill="#002E47"/>
<path d="M193.928 141.212H181.578V164.509H193.928V141.212Z" fill="#002E47"/>
<path d="M210.9 131.6H198.551V164.509H210.9V131.6Z" fill="#39B4EF"/>
<path d="M227.885 120.878H215.535V164.517H227.885V120.878Z" fill="#002E47"/>
<path d="M244.858 146.394H232.508V164.517H244.858V146.394Z" fill="#39B4EF"/>
<path d="M278.811 124.941H266.461V164.509H278.811V124.941Z" fill="#39B4EF"/>
<path d="M295.783 117.916H283.434V164.509H295.783V117.916Z" fill="#002E47"/>
<path d="M312.768 111.633H300.418V164.517H312.768V111.633Z" fill="#39B4EF"/>
<path d="M329.74 130.857H317.391V164.509H329.74V130.857Z" fill="#002E47"/>
<path d="M346.721 141.212H334.371V164.509H346.721V141.212Z" fill="#39B4EF"/>
<path d="M234.516 92.7073H293.777" stroke="#002E47" stroke-miterlimit="10" stroke-linecap="round" stroke-linejoin="round"/>
<path d="M181.598 172.268H193.255" stroke="#002E47" stroke-miterlimit="10" stroke-linecap="round" stroke-linejoin="round"/>
<path d="M198.637 172.268H210.294" stroke="#002E47" stroke-miterlimit="10" stroke-linecap="round" stroke-linejoin="round"/>
<path d="M215.688 172.268H227.345" stroke="#002E47" stroke-miterlimit="10" stroke-linecap="round" stroke-linejoin="round"/>
<path d="M232.73 172.268H244.388" stroke="#002E47" stroke-miterlimit="10" stroke-linecap="round" stroke-linejoin="round"/>
<path d="M249.773 172.268H261.431" stroke="#002E47" stroke-miterlimit="10" stroke-linecap="round" stroke-linejoin="round"/>
<path d="M266.824 172.268H278.482" stroke="#002E47" stroke-miterlimit="10" stroke-linecap="round" stroke-linejoin="round"/>
<path d="M283.863 172.268H295.521" stroke="#002E47" stroke-miterlimit="10" stroke-linecap="round" stroke-linejoin="round"/>
<path d="M300.914 172.268H312.572" stroke="#002E47" stroke-miterlimit="10" stroke-linecap="round" stroke-linejoin="round"/>
<path d="M317.957 172.268H329.614" stroke="#002E47" stroke-miterlimit="10" stroke-linecap="round" stroke-linejoin="round"/>
<path d="M335 172.268H346.657" stroke="#002E47" stroke-miterlimit="10" stroke-linecap="round" stroke-linejoin="round"/>
<path d="M173.828 164.509H358.877" stroke="#002E47" stroke-miterlimit="10" stroke-linecap="round" stroke-linejoin="round"/>
<path d="M173.828 159.66H177.708" stroke="#002E47" stroke-miterlimit="10" stroke-linecap="round" stroke-linejoin="round"/>
<path d="M173.828 154.623H177.708" stroke="#002E47" stroke-miterlimit="10" stroke-linecap="round" stroke-linejoin="round"/>
<path d="M173.828 149.595H177.708" stroke="#002E47" stroke-miterlimit="10" stroke-linecap="round" stroke-linejoin="round"/>
<path d="M173.828 144.559H177.708" stroke="#002E47" stroke-miterlimit="10" stroke-linecap="round" stroke-linejoin="round"/>
<path d="M173.828 139.531H177.708" stroke="#002E47" stroke-miterlimit="10" stroke-linecap="round" stroke-linejoin="round"/>
<path d="M173.828 134.494H177.708" stroke="#002E47" stroke-miterlimit="10" stroke-linecap="round" stroke-linejoin="round"/>
<path d="M173.828 129.466H177.708" stroke="#002E47" stroke-miterlimit="10" stroke-linecap="round" stroke-linejoin="round"/>
<path d="M173.828 124.429H177.708" stroke="#002E47" stroke-miterlimit="10" stroke-linecap="round" stroke-linejoin="round"/>
<path d="M173.828 119.401H177.708" stroke="#002E47" stroke-miterlimit="10" stroke-linecap="round" stroke-linejoin="round"/>
<path d="M173.828 114.373H177.708" stroke="#002E47" stroke-miterlimit="10" stroke-linecap="round" stroke-linejoin="round"/>
<path d="M173.828 109.337H177.708" stroke="#002E47" stroke-miterlimit="10" stroke-linecap="round" stroke-linejoin="round"/>
<path d="M173.828 104.309H177.708" stroke="#002E47" stroke-miterlimit="10" stroke-linecap="round" stroke-linejoin="round"/>
<path d="M226.833 105.35H217.979C217.167 105.35 216.5 106.007 216.5 106.827V112.913C216.5 113.724 217.158 114.39 217.979 114.39H220.577L222.269 117.95L223.944 114.424L226.824 114.39C227.636 114.39 228.303 113.733 228.303 112.913V106.827C228.311 106.007 227.645 105.35 226.833 105.35Z" fill="#C7C7C7"/>
<path d="M208.997 117.045H200.143C199.331 117.045 198.664 117.702 198.664 118.522V124.609C198.664 125.42 199.322 126.085 200.143 126.085H202.741L204.433 129.645L206.108 126.12L208.988 126.085C209.8 126.085 210.467 125.428 210.467 124.609V118.522C210.467 117.702 209.809 117.045 208.997 117.045Z" fill="#C7C7C7"/>
<path d="M191.903 124.651H183.049C182.237 124.651 181.57 125.309 181.57 126.128V132.215C181.57 133.026 182.228 133.691 183.049 133.691H185.647L187.339 137.251L189.014 133.726L191.894 133.691C192.706 133.691 193.373 133.034 193.373 132.215V126.128C193.373 125.309 192.715 124.651 191.903 124.651Z" fill="#C7C7C7"/>
<path d="M243.372 132.078H234.518C233.706 132.078 233.039 132.735 233.039 133.555V139.641C233.039 140.452 233.697 141.118 234.518 141.118H237.116L238.808 144.678L240.483 141.152L243.363 141.118C244.175 141.118 244.842 140.461 244.842 139.641V133.555C244.85 132.735 244.184 132.078 243.372 132.078Z" fill="#C7C7C7"/>
<path d="M260.466 135.228H251.611C250.799 135.228 250.133 135.885 250.133 136.705V142.792C250.133 143.602 250.791 144.268 251.611 144.268H254.209L255.902 147.828L257.577 144.302L260.457 144.268C261.269 144.268 261.936 143.611 261.936 142.792V136.705C261.944 135.894 261.286 135.228 260.466 135.228Z" fill="#C7C7C7"/>
<path d="M277.567 110.549H268.713C267.901 110.549 267.234 111.206 267.234 112.026V118.112C267.234 118.923 267.892 119.589 268.713 119.589H271.311L273.003 123.149L274.678 119.623L277.559 119.589C278.37 119.589 279.037 118.932 279.037 118.112V112.026C279.037 111.206 278.379 110.549 277.567 110.549Z" fill="#C7C7C7"/>
<path d="M294.282 102.934H285.428C284.616 102.934 283.949 103.591 283.949 104.411V110.498C283.949 111.309 284.607 111.974 285.428 111.974H288.026L289.718 115.534L291.393 112.009L294.273 111.974C295.085 111.974 295.752 111.317 295.752 110.498V104.411C295.76 103.6 295.102 102.934 294.282 102.934Z" fill="#C7C7C7"/>
<path d="M311.196 97.0013H302.342C301.53 97.0013 300.863 97.6586 300.863 98.4781V104.565C300.863 105.376 301.521 106.041 302.342 106.041H304.94L306.632 109.601L308.307 106.076L311.187 106.041C311.999 106.041 312.666 105.384 312.666 104.565V98.4781C312.675 97.6586 312.008 97.0013 311.196 97.0013Z" fill="#C7C7C7"/>
<path d="M327.735 116.302H318.881C318.069 116.302 317.402 116.96 317.402 117.779V123.866C317.402 124.677 318.06 125.343 318.881 125.343H321.479L323.171 128.902L324.846 125.377L327.727 125.343C328.538 125.343 329.205 124.685 329.205 123.866V117.779C329.214 116.96 328.547 116.302 327.735 116.302Z" fill="#C7C7C7"/>
<path d="M345.384 126.324H336.529C335.717 126.324 335.051 126.982 335.051 127.801V133.888C335.051 134.699 335.709 135.365 336.529 135.365H339.127L340.82 138.924L342.495 135.399L345.375 135.365C346.187 135.365 346.854 134.707 346.854 133.888V127.801C346.862 126.982 346.204 126.324 345.384 126.324Z" fill="#C7C7C7"/>
<path d="M290.034 166.446L285.675 161.265C285.675 161.265 284.017 156.288 282.77 154.623C281.522 152.967 278.411 152.754 274.667 150.474C270.933 148.195 269.48 148.4 270.095 151.098C270.719 153.795 275.078 156.698 275.078 156.698C275.078 156.698 266.77 156.493 266.147 156.279C265.523 156.074 259.916 154.41 258.668 153.582C257.421 152.754 254.934 153.582 256.173 156.279C257.421 158.977 261.361 164.782 264.275 166.856C267.181 168.93 266.557 169.349 272.163 170.177C277.77 171.005 279.223 170.8 279.223 170.8L282.547 173.907L290.034 166.446Z" fill="white" stroke="#002E47" stroke-miterlimit="10" stroke-linecap="round" stroke-linejoin="round"/>
<path d="M262.83 165.405C262.83 165.405 259.3 153.377 261.377 155.033C263.454 156.689 267.608 163.749 267.608 163.749C267.608 163.749 277.368 162.298 280.068 165.2" fill="white"/>
<path d="M262.83 165.405C262.83 165.405 259.3 153.377 261.377 155.033C263.454 156.689 267.608 163.749 267.608 163.749C267.608 163.749 277.368 162.298 280.068 165.2" stroke="#002E47" stroke-miterlimit="10" stroke-linecap="round" stroke-linejoin="round"/>
<path d="M295.844 171.005L288.375 165.2L280.691 174.121L288.99 179.516L295.844 171.005Z" fill="white" stroke="#002E47" stroke-miterlimit="10" stroke-linecap="round" stroke-linejoin="round"/>
<path d="M338.108 223.735L336.612 233.126C336.612 233.126 331.484 247.843 331.698 250.617C331.912 253.391 337.997 335.146 337.997 335.146H405.275C405.275 335.146 402.608 247.629 402.395 245.495C402.181 243.361 400.301 228.055 400.301 228.055C400.301 228.055 361.175 228.217 359.893 228.004C358.611 227.79 337.467 222.028 337.467 222.028L338.108 223.735Z" fill="#002E47" stroke="#002E47" stroke-miterlimit="10" stroke-linecap="round" stroke-linejoin="round"/>
<path d="M356.484 263.84L371.646 268.109" stroke="#696969" stroke-miterlimit="10" stroke-linecap="round" stroke-linejoin="round"/>
<path d="M365.875 266.828L368.49 332.961" stroke="#696969" stroke-miterlimit="10" stroke-linecap="round" stroke-linejoin="round"/>
<path d="M369.936 237.812C385.662 237.24 392.601 236.489 400.661 230.94C400.447 229.216 400.302 228.046 400.302 228.046C400.302 228.046 361.176 228.209 359.894 227.995C358.612 227.782 337.468 222.02 337.468 222.02L338.109 223.727L337.023 230.531C342.066 232.887 355.424 238.341 369.936 237.812Z" fill="#878787" stroke="#002E47" stroke-miterlimit="10" stroke-linecap="round" stroke-linejoin="round"/>
<path d="M362.031 234.184V237.172L369.937 237.812L370.398 234.27L362.031 234.184Z" fill="white" stroke="#002E47" stroke-miterlimit="10" stroke-linecap="round" stroke-linejoin="round"/>
<path d="M361.468 135.331C361.468 135.331 332.187 143.423 331.358 144.251C330.529 145.079 326.581 168.726 326.581 168.726L318.897 180.967L296.882 169.349C296.882 169.349 292.523 171.423 291.48 172.67C290.437 173.916 284.626 180.344 286.498 182.418C288.369 184.493 314.744 203.162 318.684 205.646C322.632 208.139 324.29 208.754 326.162 206.679C328.034 204.605 337.17 191.954 337.17 191.954L336.751 218.707C336.751 218.707 334.05 219.74 334.674 222.233C335.298 224.726 336.546 226.177 336.546 226.177H339.042C339.042 226.177 349.22 235.098 370.399 234.27C391.577 233.441 398.645 230.121 400.303 228.046C401.961 225.972 402.175 225.972 401.756 224.316C401.337 222.66 401.132 220.372 401.132 220.372L406.944 184.074L423.566 195.488C423.566 195.488 439.557 197.98 442.258 196.111C444.958 194.241 445.787 193.004 443.711 189.265C441.634 185.534 424.396 165.2 424.396 165.2C424.396 165.2 417.746 148.81 416.712 147.359C415.678 145.907 388.261 135.331 388.261 135.331H361.468Z" fill="white" stroke="#002E47" stroke-miterlimit="10" stroke-linecap="round" stroke-linejoin="round"/>
<path d="M318.898 180.967C318.898 180.967 321.762 184.723 321.958 187.89" stroke="#002E47" stroke-miterlimit="10" stroke-linecap="round" stroke-linejoin="round"/>
<path d="M337.178 191.962V166.242L335.512 157.731" stroke="#002E47" stroke-miterlimit="10" stroke-linecap="round" stroke-linejoin="round"/>
<path d="M332.991 160.163L331.777 157.321" stroke="#002E47" stroke-miterlimit="10" stroke-linecap="round" stroke-linejoin="round"/>
<path d="M337.18 169.972L334.266 163.151" stroke="#002E47" stroke-miterlimit="10" stroke-linecap="round" stroke-linejoin="round"/>
<path d="M406.953 184.074L412.141 159.395" stroke="#002E47" stroke-miterlimit="10" stroke-linecap="round" stroke-linejoin="round"/>
<path d="M413.798 166.685C411.875 169.588 409.841 172.934 409.234 174.949" stroke="#002E47" stroke-miterlimit="10" stroke-linecap="round" stroke-linejoin="round"/>
<path d="M417.745 161.051C417.745 161.051 416.864 162.229 415.668 163.937" stroke="#002E47" stroke-miterlimit="10" stroke-linecap="round" stroke-linejoin="round"/>
<path d="M416.5 174.326C416.5 174.326 420.859 168.521 426.26 168.521" stroke="#002E47" stroke-miterlimit="10" stroke-linecap="round" stroke-linejoin="round"/>
<path d="M388.629 215.916C393.244 209.684 399.876 200.593 401.97 196.93" stroke="#002E47" stroke-miterlimit="10" stroke-linecap="round" stroke-linejoin="round"/>
<path d="M383.902 222.241C383.902 222.241 384.954 220.85 386.569 218.69" stroke="#002E47" stroke-miterlimit="10" stroke-linecap="round" stroke-linejoin="round"/>
<path d="M399.474 210.837L391.996 222.241" stroke="#002E47" stroke-miterlimit="10" stroke-linecap="round" stroke-linejoin="round"/>
<path d="M367.49 128.902C367.49 128.902 364.994 129.107 364.379 129.731C363.755 130.354 359.191 135.535 359.191 135.535C359.191 135.535 359.815 154.615 360.849 154C361.884 153.385 369.986 145.907 370.815 145.079C371.644 144.251 382.857 154.623 383.481 155.033C384.104 155.451 384.515 157.312 385.139 155.451C385.763 153.582 391.993 137.2 391.369 135.535C390.745 133.879 386.797 128.894 386.797 128.894C386.797 128.894 371.644 132.01 367.49 128.902Z" fill="white" stroke="#002E47" stroke-miterlimit="10" stroke-linecap="round" stroke-linejoin="round"/>
<path d="M362.925 88.6609C362.925 88.6609 357.319 96.3353 357.738 97.9914C358.156 99.6475 356.909 102.558 356.909 102.558C356.909 102.558 349.43 108.363 350.259 110.028C351.088 111.684 353.37 113.758 353.37 113.758C353.37 113.758 353.165 128.279 355.028 128.279C356.892 128.279 364.37 128.698 364.37 128.698C364.37 128.698 370.6 151.516 372.677 150.269C374.754 149.023 386.591 130.567 386.591 130.567L388.873 121.851C388.873 121.851 397.385 118.121 399.881 105.879C402.376 93.6378 395.522 86.3817 391.155 83.2743C386.787 80.167 377.865 79.7487 377.865 79.7487C377.865 79.7487 381.189 77.6743 377.865 76.2231C374.54 74.7719 369.976 76.8463 369.976 76.8463C369.976 76.8463 369.771 71.4512 364.994 74.3536C360.225 77.2561 354.405 82.8561 362.925 88.6609Z" fill="white" stroke="#002E47" stroke-miterlimit="10" stroke-linecap="round" stroke-linejoin="round"/>
<path d="M391.164 83.2659C386.805 80.1585 377.874 79.7403 377.874 79.7403C377.874 79.7403 381.198 77.6659 377.874 76.2146C374.549 74.7634 369.985 76.8378 369.985 76.8378C369.985 76.8378 369.78 71.4427 365.003 74.3451C360.225 77.2476 354.413 82.8476 362.926 88.661C362.926 88.661 380.164 90.1122 375.592 93.0146C371.019 95.9171 368.943 96.122 372.062 98.1964C375.173 100.271 377.874 104.838 377.874 104.838C377.874 104.838 375.592 109.405 376.626 110.233C377.66 111.061 378.908 111.266 379.737 110.028C380.566 108.79 383.061 104.428 386.591 105.461C390.121 106.494 389.702 111.061 387.01 113.963C384.309 116.866 380.574 117.694 380.574 117.694C380.574 117.694 385.557 120.596 387.224 121.22C387.702 121.399 388.711 121.382 389.924 121.279C392.266 119.845 397.941 115.483 399.898 105.871C402.377 93.6378 395.522 86.3817 391.164 83.2659Z" fill="#002E47" stroke="#002E47" stroke-miterlimit="10" stroke-linecap="round" stroke-linejoin="round"/>
<path d="M356.695 116.456C356.695 116.456 360.644 116.251 362.507 114.177C362.507 114.177 362.088 118.326 360.635 118.53C359.182 118.735 356.695 116.456 356.695 116.456Z" stroke="#002E47" stroke-miterlimit="10" stroke-linecap="round" stroke-linejoin="round"/>
<path d="M362.713 103.079C362.713 103.941 362.337 104.633 361.884 104.633C361.422 104.633 361.055 103.933 361.055 103.079C361.055 102.226 361.431 101.526 361.884 101.526C362.345 101.526 362.713 102.217 362.713 103.079Z" fill="#002E47"/>
<path d="M359.805 100.074C359.805 100.074 363.129 98 364.787 100.698" stroke="#002E47" stroke-miterlimit="10" stroke-linecap="round" stroke-linejoin="round"/>
<path d="M364.379 128.698L371.438 128.484L375.592 124.13L367.49 138.028L364.379 128.698Z" fill="#002E47" stroke="#002E47" stroke-miterlimit="10" stroke-linecap="round" stroke-linejoin="round"/>
<path d="M405.078 181.377L398.643 178.056C398.643 178.056 396.985 175.777 395.318 174.949C393.66 174.121 392.207 174.949 387.216 173.498C382.233 172.046 380.362 172.251 381.191 174.53C382.02 176.81 387.216 177.023 387.216 177.023L389.293 178.27L375.379 180.967L368.277 184.032C367.935 184.177 367.73 184.544 367.781 184.911C367.85 185.363 368.268 185.679 368.721 185.611L374.96 184.698L382.122 184.177L370.585 189.444C370.106 189.7 369.841 190.238 369.944 190.776C370.08 191.51 370.824 191.971 371.542 191.757L382.909 189.077L375.559 194.754C375.106 195.052 374.926 195.633 375.148 196.137C375.396 196.691 376.046 196.948 376.601 196.709L383.806 193.601L380.268 198.194C380.071 198.45 380.08 198.809 380.276 199.056C380.507 199.338 380.917 199.398 381.216 199.193C382.849 198.049 387.746 194.626 388.259 194.455C388.883 194.25 393.865 192.176 394.694 191.962C395.523 191.757 398.643 190.716 398.643 190.716L405.292 192.995L405.078 181.377Z" stroke="#002E47" stroke-miterlimit="10" stroke-linecap="round" stroke-linejoin="round"/>
<path d="M411.31 182.418L405.08 181.385L403.832 194.66L410.891 196.111C410.891 196.111 411.729 184.902 411.31 182.418Z" fill="white" stroke="#002E47" stroke-miterlimit="10" stroke-linecap="round" stroke-linejoin="round"/>
<path d="M439.963 184.074C439.963 184.074 412.341 179.926 411.307 182.418C410.273 184.911 408.401 197.349 411.102 198.39C413.803 199.432 439.348 209.385 441.425 207.721C443.502 206.065 447.655 201.702 447.655 196.93C447.647 192.167 439.963 184.074 439.963 184.074Z" fill="white" stroke="#002E47" stroke-miterlimit="10" stroke-linecap="round" stroke-linejoin="round"/>
<path d="M30.0586 384.01L190.485 302.118H405.285L563.019 384.01" fill="white"/>
<path d="M30.0586 384.01L190.485 302.118H405.285L563.019 384.01" stroke="#002E47" stroke-miterlimit="10" stroke-linecap="round" stroke-linejoin="round"/>
<path d="M292.242 323.204L265.551 340.251L304.497 344.187L326.812 326.704L292.242 323.204Z" fill="white" stroke="#002E47" stroke-miterlimit="10" stroke-linecap="round" stroke-linejoin="round"/>
<path d="M313.683 329.324L284.805 349.437L322.871 353.363L347.818 333.695L313.683 329.324Z" fill="white" stroke="#002E47" stroke-miterlimit="10" stroke-linecap="round" stroke-linejoin="round"/>
<path d="M253.73 323.648L243.227 348.557L280.865 349.872L286.993 324.518L253.73 323.648Z" fill="white" stroke="#002E47" stroke-miterlimit="10" stroke-linecap="round" stroke-linejoin="round"/>
<path d="M352.09 316.178L393.395 314.991L418.599 339.406L370.593 340.84L352.09 316.178Z" fill="#C7C7C7" stroke="#002E47" stroke-miterlimit="10" stroke-linecap="round" stroke-linejoin="round"/>
<path d="M395.131 320.31L382.055 321.112L394.003 334.02L408.045 333.046L395.131 320.31Z" fill="#C7C7C7" stroke="#002E47" stroke-miterlimit="10" stroke-linecap="round" stroke-linejoin="round"/>
<path d="M361.168 319.388L377.184 318.935L392.688 336.683L374.62 337.315L361.168 319.388Z" fill="#002E47" stroke="#002E47" stroke-miterlimit="10" stroke-linecap="round" stroke-linejoin="round"/>
<path d="M370.594 340.84L359.672 296.723L341.887 279.223L352.091 316.178L370.594 340.84Z" fill="#878787" stroke="#002E47" stroke-miterlimit="10" stroke-linecap="round" stroke-linejoin="round"/>
<path d="M499.332 273.333L521.177 279.181C523.151 279.71 524.92 280.82 526.262 282.356C528.578 285.02 529.347 288.69 528.304 292.062L509.254 355.421L481.461 341.267L499.332 273.333Z" fill="#002E47" stroke="#002E47" stroke-miterlimit="10" stroke-linecap="round" stroke-linejoin="round"/>
<path d="M450.649 251.616C450.649 251.616 438.402 256.063 436.624 258.061C434.847 260.059 429.727 294.085 429.727 294.085C429.727 294.085 424.608 295.861 424.608 297.201C424.608 298.533 424.608 298.533 424.608 298.533C424.608 298.533 419.044 300.983 417.036 302.537C415.036 304.09 414.361 304.312 417.036 306.984C419.711 309.656 423.71 314.548 428.385 316.101C433.06 317.655 434.052 317.868 434.052 317.868L489.903 345.766C489.903 345.766 507.415 265.189 507.637 263.405C507.859 261.629 481.365 248.509 478.921 247.177C476.468 245.837 450.649 251.616 450.649 251.616Z" fill="#39B4EF" stroke="#002E47" stroke-miterlimit="10" stroke-linecap="round" stroke-linejoin="round"/>
<path d="M452.206 250.284C452.206 250.284 449.753 252.956 449.984 254.066C450.215 255.176 450.873 261.407 450.873 262.961C450.873 264.515 450.873 272.3 450.873 272.3L458.667 252.068L457.334 248.287L452.206 250.284Z" fill="#39B4EF" stroke="#002E47" stroke-miterlimit="10" stroke-linecap="round" stroke-linejoin="round"/>
<path d="M480.477 241.167L474.631 238.563L455.547 254.288C455.547 254.288 453.094 258.957 451.983 266.068C450.872 273.188 449.086 294.973 449.086 294.973C449.086 294.973 457.769 276.517 458.88 274.52C459.991 272.522 460.213 264.071 460.213 264.071C460.213 264.071 470.897 260.511 474.238 254.288C477.589 248.056 480.477 241.167 480.477 241.167Z" fill="white" stroke="#002E47" stroke-miterlimit="10" stroke-linecap="round" stroke-linejoin="round"/>
<path d="M432.841 219.595C432.841 219.595 433.73 224.93 434.397 226.04C435.064 227.15 435.952 231.598 435.952 231.598C435.952 231.598 435.508 237.821 436.619 239.827C437.73 241.824 443.747 252.948 446.636 253.391C449.533 253.835 454.208 251.838 454.208 251.838L454.652 257.173C454.652 257.173 457.772 259.171 465.113 256.063C472.463 252.948 476.018 247.834 476.463 245.837C476.907 243.839 472.899 234.056 472.899 234.056V228.277C472.899 228.277 476.463 224.273 475.574 218.272C474.685 212.271 476.018 210.487 464.224 207.379C452.43 204.263 438.174 209.155 434.841 211.383C431.508 213.611 432.841 219.595 432.841 219.595Z" fill="white" stroke="#002E47" stroke-miterlimit="10" stroke-linecap="round" stroke-linejoin="round"/>
<path d="M460 218.929L461.778 220.483L462.444 225.374C462.444 225.374 464.666 226.928 465.342 224.709C466.008 222.489 464.897 218.707 467.564 217.367C470.239 216.035 472.683 215.591 472.683 220.261C472.683 224.93 470.23 232.494 470.23 232.494C470.23 232.494 472.452 235.166 472.905 234.048C473.35 232.938 476.469 214.704 476.469 214.704C476.469 214.704 472.016 212.032 469.119 211.144C466.23 210.256 460 218.929 460 218.929Z" fill="#002E47" stroke="#002E47" stroke-miterlimit="10" stroke-linecap="round" stroke-linejoin="round"/>
<path d="M451.318 211.818C451.318 211.818 445.754 214.268 445.31 216.932C444.865 219.604 441.746 223.821 437.071 223.821C432.396 223.821 432.84 218.707 430.174 218.485C427.499 218.263 422.602 219.151 422.602 211.144C422.602 203.137 428.165 202.693 430.396 201.139C432.618 199.585 429.729 199.363 433.293 194.916C436.857 190.468 439.968 192.022 443.088 192.022C446.207 192.022 445.31 187.796 450.882 187.352C456.446 186.909 458.454 188.684 459.343 189.802C460.232 190.912 464.907 189.58 468.249 191.8C471.59 194.02 471.812 196.026 473.59 198.023C475.368 200.021 478.709 198.689 478.265 203.137C477.821 207.584 476.487 209.582 477.154 210.7C477.821 211.81 479.154 211.81 478.487 213.816C477.821 215.813 475.368 217.598 475.59 218.263C475.812 218.929 470.471 219.373 467.573 217.376C464.676 215.378 465.351 218.929 460.001 218.929C454.66 218.929 450.651 214.704 451.318 211.818Z" fill="#002E47" stroke="#002E47" stroke-miterlimit="10" stroke-linecap="round" stroke-linejoin="round"/>
<path d="M465.344 224.709C465.344 224.709 465.566 219.595 467.566 217.367C469.566 215.148 473.13 217.811 472.463 222.702C471.796 227.594 468.899 232.929 466.677 232.707" fill="white"/>
<path d="M465.344 224.709C465.344 224.709 465.566 219.595 467.566 217.367C469.566 215.148 473.13 217.811 472.463 222.702C471.796 227.594 468.899 232.929 466.677 232.707" stroke="#002E47" stroke-miterlimit="10" stroke-linecap="round" stroke-linejoin="round"/>
<path d="M454.66 257.173C454.66 257.173 457.779 259.171 465.121 256.063C472.471 252.948 476.026 247.834 476.471 245.837C476.71 244.761 475.659 241.415 474.633 238.563C468.565 247.851 454.207 251.846 454.207 251.846L454.66 257.173Z" fill="white" stroke="#002E47" stroke-miterlimit="10" stroke-linecap="round" stroke-linejoin="round"/>
<path d="M454.215 251.838L464.454 243.609L460.445 249.166L454.215 251.838Z" fill="#002E47" stroke="#002E47" stroke-miterlimit="10" stroke-linecap="round" stroke-linejoin="round"/>
<path d="M441.301 241.167C441.301 241.167 446.42 244.283 452.428 238.051" stroke="#002E47" stroke-miterlimit="10" stroke-linecap="round" stroke-linejoin="round"/>
<path d="M450.489 229.515C450.848 230.624 450.711 231.666 450.19 231.837C449.669 232.007 448.942 231.248 448.583 230.138C448.224 229.028 448.361 227.987 448.882 227.816C449.412 227.645 450.13 228.405 450.489 229.515Z" fill="#002E47"/>
<path d="M440.251 229.515C440.61 230.624 440.473 231.666 439.952 231.837C439.422 232.007 438.704 231.248 438.345 230.138C437.986 229.028 438.123 227.987 438.644 227.816C439.174 227.645 439.892 228.405 440.251 229.515Z" fill="#002E47"/>
<path d="M446.645 225.827C446.645 225.827 450.875 223.607 453.097 226.271" stroke="#002E47" stroke-miterlimit="10" stroke-linecap="round" stroke-linejoin="round"/>
<path d="M435.961 225.596C435.961 225.596 439.08 224.487 439.525 225.818L441.303 229.6L440.191 239.383L445.977 238.273" stroke="#002E47" stroke-miterlimit="10" stroke-linecap="round" stroke-linejoin="round"/>
<path d="M480.478 241.167C480.478 241.167 466.675 260.289 460.223 264.071L465.12 272.522C465.12 272.522 478.478 260.511 480.922 255.176C483.375 249.84 483.375 249.84 483.375 249.84L480.478 241.167Z" fill="#39B4EF" stroke="#002E47" stroke-miterlimit="10" stroke-linecap="round" stroke-linejoin="round"/>
<path d="M482.931 270.738L478.478 309.426C478.478 309.426 475.803 309.426 475.803 311.201C475.803 312.977 475.359 314.983 475.359 314.983L430.387 323.878C430.387 323.878 414.14 321.659 412.798 322.102C411.465 322.546 407.722 326.012 406.388 327.122C405.055 328.232 399.611 333.268 400.5 334.609C401.389 335.94 405.183 332.739 405.183 332.739C405.183 332.739 401.893 337.451 403.671 337.007C405.448 336.563 407.722 334.079 407.722 334.079L411.2 331.945C411.2 331.945 407.004 337.46 408.346 337.238C409.679 337.016 412.132 335.24 412.132 335.24L413.687 334.352C413.687 334.352 410.79 337.246 412.354 337.69C413.909 338.134 417.251 334.574 417.251 334.574L420.148 332.799C420.148 332.799 422.601 334.352 426.379 333.243C430.165 332.133 432.831 331.023 432.831 331.023C432.831 331.023 486.7 335.915 490.264 334.805C493.828 333.695 497.392 333.473 498.281 331.467C499.169 329.47 506.742 264.762 507.63 263.43C508.519 262.099 493.606 256.311 493.606 256.311" fill="#39B4EF"/>
<path d="M482.931 270.738L478.478 309.426C478.478 309.426 475.803 309.426 475.803 311.201C475.803 312.977 475.359 314.983 475.359 314.983L430.387 323.878C430.387 323.878 414.14 321.659 412.798 322.102C411.465 322.546 407.722 326.012 406.388 327.122C405.055 328.232 399.611 333.268 400.5 334.609C401.389 335.94 405.183 332.739 405.183 332.739C405.183 332.739 401.893 337.451 403.671 337.007C405.448 336.563 407.722 334.079 407.722 334.079L411.2 331.945C411.2 331.945 407.004 337.46 408.346 337.238C409.679 337.016 412.132 335.24 412.132 335.24L413.687 334.352C413.687 334.352 410.79 337.246 412.354 337.69C413.909 338.134 417.251 334.574 417.251 334.574L420.148 332.799C420.148 332.799 422.601 334.352 426.379 333.243C430.165 332.133 432.831 331.023 432.831 331.023C432.831 331.023 486.7 335.915 490.264 334.805C493.828 333.695 497.392 333.473 498.281 331.467C499.169 329.47 506.742 264.762 507.63 263.43C508.519 262.099 493.606 256.311 493.606 256.311" stroke="#002E47" stroke-miterlimit="10" stroke-linecap="round" stroke-linejoin="round"/>
<path d="M451.77 319.652L430.387 323.878L440.36 321.906C441.959 323.477 443.805 326.465 444.044 331.979C447.292 332.252 451.018 332.568 454.915 332.884C457.325 324.766 452.462 320.241 451.77 319.652Z" fill="#39B4EF" stroke="#002E47" stroke-miterlimit="10" stroke-linecap="round" stroke-linejoin="round"/>
<path d="M476.898 315.76C476.898 315.76 488.539 319.772 492.282 323.246C496.026 326.721 488.402 317.1 483.317 314.556" stroke="#002E47" stroke-miterlimit="10" stroke-linecap="round" stroke-linejoin="round"/>
<path d="M440.369 321.906L430.395 323.878C430.395 323.878 414.148 321.659 412.806 322.102C411.473 322.546 407.729 326.012 406.396 327.122C405.063 328.232 399.619 333.268 400.508 334.609C401.397 335.94 405.191 332.739 405.191 332.739C405.191 332.739 401.901 337.451 403.678 337.007C405.456 336.563 407.729 334.079 407.729 334.079L411.208 331.945C411.208 331.945 407.012 337.46 408.353 337.238C409.687 337.016 412.139 335.24 412.139 335.24L413.695 334.352C413.695 334.352 410.798 337.246 412.362 337.69C413.917 338.134 417.259 334.574 417.259 334.574L420.156 332.799C420.156 332.799 422.609 334.352 426.387 333.243C430.173 332.133 432.839 331.023 432.839 331.023C432.839 331.023 437.446 331.442 444.044 332.005C443.804 326.465 441.967 323.477 440.369 321.906Z" fill="white" stroke="#002E47" stroke-miterlimit="10" stroke-linecap="round" stroke-linejoin="round"/>
<path d="M413.695 334.335C413.695 334.335 417.635 330.332 419.233 329.794" stroke="#002E47" stroke-miterlimit="10" stroke-linecap="round" stroke-linejoin="round"/>
<path d="M411.207 331.928C411.207 331.928 415.224 327.515 416.822 326.985" stroke="#002E47" stroke-miterlimit="10" stroke-linecap="round" stroke-linejoin="round"/>
<path d="M405.191 332.73C405.191 332.73 411.482 325.517 413.755 324.578" stroke="#002E47" stroke-miterlimit="10" stroke-linecap="round" stroke-linejoin="round"/>
<path d="M416.25 304.841L411.173 311.21C411.173 311.21 395.687 311.73 393.08 312.379C390.474 313.028 387.098 320.702 387.098 322.256C387.098 323.818 388.662 323.69 389.439 322.649C390.217 321.607 392.559 316.801 392.559 316.801C392.559 316.801 389.952 324.339 389.952 325.124C389.952 325.901 391.644 325.124 391.644 325.124C391.644 325.124 391.516 326.687 392.422 327.071C393.337 327.463 395.413 326.157 395.413 326.157C395.413 326.157 395.935 327.199 397.499 326.285C399.063 325.372 402.832 319.268 403.874 318.619C404.917 317.971 407.908 318.491 407.908 318.491C407.908 318.491 404.917 319.926 403.746 322.393C402.575 324.86 402.832 325.645 403.618 325.38C404.396 325.124 407.002 322.521 408.566 321.744C410.131 320.967 414.036 321.223 415.207 320.702C416.378 320.182 426.924 314.462 426.924 314.462C426.924 314.462 426.796 308.615 423.284 306.276C419.762 303.928 416.25 304.841 416.25 304.841Z" fill="white" stroke="#002E47" stroke-miterlimit="10" stroke-linecap="round" stroke-linejoin="round"/>
<path d="M423.275 306.267C419.762 303.928 416.249 304.833 416.249 304.833L413.027 308.879C414.13 308.982 420.651 309.904 421.394 317.441C424.215 315.922 426.924 314.454 426.924 314.454C426.924 314.454 426.787 308.606 423.275 306.267Z" fill="#39B4EF" stroke="#002E47" stroke-miterlimit="10" stroke-linecap="round" stroke-linejoin="round"/>
<path d="M411.172 311.21C411.172 311.21 415.078 310.954 416.249 313.813" stroke="#002E47" stroke-miterlimit="10" stroke-linecap="round" stroke-linejoin="round"/>
<path d="M391.652 325.116L396.464 314.718" stroke="#002E47" stroke-miterlimit="10" stroke-linecap="round" stroke-linejoin="round"/>
<path d="M395.422 326.157L399.849 315.367" stroke="#002E47" stroke-miterlimit="10" stroke-linecap="round" stroke-linejoin="round"/>
<path d="M392.559 316.801L393.866 314.326" stroke="#002E47" stroke-miterlimit="10" stroke-linecap="round" stroke-linejoin="round"/>
<path d="M434.051 317.86L434.863 307.309C434.863 307.309 434.341 302.238 434.341 297.688C434.341 293.138 439.811 264.02 439.811 264.02" stroke="#002E47" stroke-miterlimit="10" stroke-linecap="round" stroke-linejoin="round"/>
<path d="M447.743 298.729C447.743 298.729 447.615 306.011 447.222 309.912C446.829 313.813 445.137 318.884 445.137 318.884" stroke="#002E47" stroke-miterlimit="10" stroke-linecap="round" stroke-linejoin="round"/>
<path d="M251.103 315.64L206.174 314.385L181.133 340.072L231.634 341.583L251.103 315.64Z" fill="#C7C7C7" stroke="#002E47" stroke-miterlimit="10" stroke-linecap="round" stroke-linejoin="round"/>
<path d="M206.723 318.491L218.32 318.859L206.902 333.157L194.031 332.432L206.723 318.491Z" fill="#C7C7C7" stroke="#002E47" stroke-miterlimit="10" stroke-linecap="round" stroke-linejoin="round"/>
<path d="M241.547 319.012L223.035 318.491L209.797 336.777L227.394 337.87L241.547 319.012Z" fill="#002E47" stroke="#002E47" stroke-miterlimit="10" stroke-linecap="round" stroke-linejoin="round"/>
<path d="M231.633 341.583L243.119 295.169L261.836 276.756L251.102 315.64L231.633 341.583Z" fill="#878787" stroke="#002E47" stroke-miterlimit="10" stroke-linecap="round" stroke-linejoin="round"/>
<path d="M221.237 292.233C221.237 292.233 225.229 295.673 224.596 296.672C223.964 297.671 223.143 297.218 221.964 296.851C220.784 296.493 216.426 293.59 216.426 293.59C216.426 293.59 220.238 291.507 221.237 292.233Z" stroke="#002E47" stroke-miterlimit="10" stroke-linecap="round" stroke-linejoin="round"/>
<path d="M216.425 293.59C216.425 293.59 223.322 298.755 222.595 299.481C221.869 300.206 221.143 299.839 219.057 299.301C216.972 298.763 213.707 295.861 213.707 295.861L216.425 293.59Z" fill="white" stroke="#002E47" stroke-miterlimit="10" stroke-linecap="round" stroke-linejoin="round"/>
<path d="M213.8 297.031C213.8 297.031 217.706 300.385 217.612 300.744C217.518 301.102 217.065 301.828 215.612 301.563C214.159 301.29 211.168 299.028 211.168 299.028L213.8 297.031Z" fill="white" stroke="#002E47" stroke-miterlimit="10" stroke-linecap="round" stroke-linejoin="round"/>
<path d="M196.973 299.105C196.973 299.105 208.357 288.426 208.716 288.246C209.075 288.067 217.151 286.795 219.33 286.795C221.51 286.795 227.133 291.234 226.407 291.687C225.68 292.139 221.595 291.055 221.595 291.055H219.236C219.236 291.055 214.151 296.851 209.527 299.574C204.904 302.298 198.007 304.739 198.007 304.739L196.973 299.105Z" fill="white" stroke="#002E47" stroke-miterlimit="10" stroke-linecap="round" stroke-linejoin="round"/>
<path d="M207.202 292.515C206.749 292.515 206.365 292.173 206.314 291.721C206.262 291.226 206.613 290.782 207.108 290.73L231.722 288.46C231.97 288.434 232.192 288.613 232.218 288.852C232.244 289.1 232.064 289.322 231.825 289.348L207.305 292.515C207.271 292.515 207.237 292.515 207.202 292.515Z" fill="#002E47"/>
<path d="M207.084 294.316C207.084 294.316 215.972 290.415 217.339 289.962C218.707 289.51 226.775 291.234 226.416 291.687C226.057 292.139 226.322 292.865 224.604 293.317C222.877 293.769 218.886 293.496 218.886 293.496C218.886 293.496 213.895 298.115 211.263 300.206C208.63 302.289 206.545 303.646 203.913 303.919C201.28 304.193 199.016 304.013 199.016 304.013" fill="white"/>
<path d="M207.084 294.316C207.084 294.316 215.972 290.415 217.339 289.962C218.707 289.51 226.775 291.234 226.416 291.687C226.057 292.139 226.322 292.865 224.604 293.317C222.877 293.769 218.886 293.496 218.886 293.496C218.886 293.496 213.895 298.115 211.263 300.206C208.63 302.289 206.545 303.646 203.913 303.919C201.28 304.193 199.016 304.013 199.016 304.013" stroke="#002E47" stroke-miterlimit="10" stroke-linecap="round" stroke-linejoin="round"/>
<path d="M190.34 300.163L196.972 299.105L198.297 307.838L191.4 309.161L190.34 300.163Z" fill="white" stroke="#002E47" stroke-miterlimit="10" stroke-linecap="round" stroke-linejoin="round"/>
<path d="M116.115 256.14C116.115 256.14 126.226 258.078 130.465 260.989C134.704 263.9 144.302 284.755 145.891 288.195C147.481 291.635 150.951 299.37 150.951 299.37C150.951 299.37 153.865 297.782 155.19 299.105C156.515 300.428 156.78 302.016 156.78 302.016C156.78 302.016 188.231 297.782 190.35 300.163C192.47 302.545 191.94 306.515 191.41 309.161C190.88 311.807 191.145 311.807 187.966 313.131C184.786 314.454 153.54 323.118 144.532 324.441C135.524 325.765 136.037 317.629 136.037 317.629C136.037 317.629 138.422 297.517 127.824 284.277C117.226 271.045 114.252 265.624 112.825 261.322C111.38 257.02 116.115 256.14 116.115 256.14Z" fill="white" stroke="#002E47" stroke-miterlimit="10" stroke-linecap="round" stroke-linejoin="round"/>
<path d="M156.767 302.016C156.767 302.016 150.648 311.304 148.605 313.566" stroke="#002E47" stroke-miterlimit="10" stroke-linecap="round" stroke-linejoin="round"/>
<path d="M150.648 300.88L146.332 304.731" stroke="#002E47" stroke-miterlimit="10" stroke-linecap="round" stroke-linejoin="round"/>
<path d="M70.0305 283.099L47.049 289.245C44.9722 289.8 43.109 290.961 41.6989 292.591C39.2631 295.4 38.4512 299.259 39.5537 302.801L59.7491 368.038L87.6022 353.543L70.0305 283.099Z" fill="#002E47" stroke="#002E47" stroke-miterlimit="10" stroke-linecap="round" stroke-linejoin="round"/>
<path d="M125.787 264.856C125.787 264.856 127.206 267.682 135.223 275.698C142.658 283.124 145.444 292.105 143.726 302.579C142.367 310.885 142.496 319.618 140.752 327.89L87.5928 353.543L68.9102 271.216C68.9102 271.216 84.7212 261.552 94.8659 258.249C105.011 254.945 112.796 255.423 116.104 256.132C119.411 256.84 121.77 257.549 121.77 257.549" fill="white"/>
<path d="M125.787 264.856C125.787 264.856 127.206 267.682 135.223 275.698C142.658 283.124 145.444 292.105 143.726 302.579C142.367 310.885 142.496 319.618 140.752 327.89L87.5928 353.543L68.9102 271.216C68.9102 271.216 84.7212 261.552 94.8659 258.249C105.011 254.945 112.796 255.423 116.104 256.132C119.411 256.84 121.77 257.549 121.77 257.549" stroke="#002E47" stroke-miterlimit="10" stroke-linecap="round" stroke-linejoin="round"/>
<path d="M121.977 280.572C121.977 280.572 133.369 291.687 134.164 298.038C134.959 304.389 133.899 320.267 133.899 320.267" stroke="#002E47" stroke-miterlimit="10" stroke-linecap="round" stroke-linejoin="round"/>
<path d="M119.183 277.354L120.602 262.739L112.816 261.322C112.816 261.322 110.457 264.626 111.876 269.338C113.278 274.05 119.183 277.354 119.183 277.354Z" fill="white" stroke="#002E47" stroke-miterlimit="10" stroke-linecap="round" stroke-linejoin="round"/>
<path d="M120.595 262.739L127.202 272.402L119.895 271.455L120.595 262.739Z" fill="white" stroke="#002E47" stroke-miterlimit="10" stroke-linecap="round" stroke-linejoin="round"/>
<path d="M125.549 204.05C125.549 204.05 127.668 208.293 127.908 211.596C128.147 214.9 126.968 216.548 128.848 218.665C130.737 220.782 137.582 220.312 136.164 223.377C134.745 226.441 132.386 228.559 132.386 228.559C132.386 228.559 130.967 236.105 130.266 241.048C129.557 245.999 130.027 246.468 127.438 246.938C124.839 247.407 120.361 246.699 120.361 246.699C120.361 246.699 116.823 251.881 115.404 258.718C113.985 265.556 115.165 270.507 115.165 270.507L102.183 263.439C102.183 263.439 97.2257 265.087 94.6275 254.954C92.0294 244.821 99.5845 214.883 104.302 208.754C109.028 202.633 125.549 204.05 125.549 204.05Z" fill="white" stroke="#002E47" stroke-miterlimit="10" stroke-linecap="round" stroke-linejoin="round"/>
<path d="M105.731 217.487C105.731 217.487 107.38 224.555 106.44 225.972C105.5 227.389 101.723 222.438 101.723 222.438C101.723 222.438 104.081 214.422 105.731 217.487Z" fill="#002E47" stroke="#002E47" stroke-miterlimit="10" stroke-linecap="round" stroke-linejoin="round"/>
<path d="M102.191 263.448L113.755 265.804L119.182 277.354L113.276 274.05L110.447 284.183L92.2773 264.387L102.191 263.448Z" fill="white" stroke="#002E47" stroke-miterlimit="10" stroke-linecap="round" stroke-linejoin="round"/>
<path d="M113.277 274.05L113.756 265.804L119.183 277.354L113.277 274.05Z" fill="white" stroke="#002E47" stroke-miterlimit="10" stroke-linecap="round" stroke-linejoin="round"/>
<path d="M98.9447 236.532C100.611 239.724 104.252 237.59 104.252 237.59L113.756 243.412L106.201 240.587L95.5859 248.833C95.5859 248.833 95.7654 230.437 98.9447 236.532Z" fill="#002E47" stroke="#002E47" stroke-miterlimit="10" stroke-linecap="round" stroke-linejoin="round"/>
<path d="M129.566 233.271C129.566 233.271 124.609 234.688 123.199 232.332" stroke="#002E47" stroke-miterlimit="10" stroke-linecap="round" stroke-linejoin="round"/>
<path d="M125.735 218.204C126.171 219.638 126.017 220.952 125.393 221.14C124.769 221.328 123.914 220.321 123.478 218.887C123.043 217.452 123.196 216.138 123.82 215.95C124.436 215.762 125.299 216.77 125.735 218.204Z" fill="#002E47"/>
<path d="M120.832 214.183C120.832 214.183 122.96 210.879 126.02 212.766" stroke="#002E47" stroke-miterlimit="10" stroke-linecap="round" stroke-linejoin="round"/>
<path d="M128.616 197.451C128.616 197.451 128.855 199.338 125.548 204.05C122.24 208.762 109.267 214.652 105.728 217.487C102.19 220.312 97.7032 244.36 98.4125 250.72C99.1219 257.079 99.8313 259.444 103.37 259.444C106.908 259.444 109.267 256.618 109.267 256.618C109.267 256.618 108.087 267.221 102.66 269.346C97.2331 271.463 90.3874 267.221 84.4903 267.699C78.5932 268.168 72.9268 273.359 70.0979 275.476C67.269 277.593 66.0896 279.479 60.4233 276.184C54.7569 272.881 57.1158 267.938 57.1158 267.938C57.1158 267.938 62.0728 270.533 64.9017 264.404C67.7306 258.274 69.8586 262.756 67.2605 248.141C64.6624 233.527 63.953 225.041 72.6875 209.018C81.4221 192.995 92.0368 191.339 92.0368 191.339C92.0368 191.339 104.549 189.674 128.616 197.451Z" fill="#002E47" stroke="#002E47" stroke-miterlimit="10" stroke-linecap="round" stroke-linejoin="round"/>
<path d="M158.59 332.739C158.59 332.739 180.538 323.545 182.187 323.545C183.837 323.545 198.468 330.613 198.468 330.613L199.408 332.261C199.408 332.261 200.349 332.731 199.648 334.148C198.938 335.565 194.221 335.326 194.221 335.326C194.221 335.326 197.998 336.034 196.34 336.973C194.691 337.912 182.179 336.973 182.179 336.973C182.179 336.973 176.752 340.038 171.325 340.977C165.898 341.916 157.402 340.507 157.402 340.507L158.59 332.739Z" fill="white" stroke="#002E47" stroke-miterlimit="10" stroke-linecap="round" stroke-linejoin="round"/>
<path d="M199.41 332.27L184.949 325.987" stroke="#002E47" stroke-miterlimit="10" stroke-linecap="round" stroke-linejoin="round"/>
<path d="M199.647 334.156L184.383 328.966" stroke="#002E47" stroke-miterlimit="10" stroke-linecap="round" stroke-linejoin="round"/>
<path d="M194.22 335.334C194.22 335.334 188.254 333.806 187.203 333.567C186.152 333.328 184.622 333.328 183.973 333.405" stroke="#002E47" stroke-miterlimit="10" stroke-linecap="round" stroke-linejoin="round"/>
<path d="M150.564 332.031L158.589 332.739L157.88 342.163L150.094 342.641L150.564 332.031Z" fill="white" stroke="#002E47" stroke-miterlimit="10" stroke-linecap="round" stroke-linejoin="round"/>
<path d="M100.303 271.455C100.303 271.455 90.8675 261.791 85.2011 261.322C79.5348 260.852 67.0312 264.148 67.0312 279.001C67.0312 293.846 74.3471 317.655 75.2872 332.978C76.2273 348.301 83.0731 357.017 85.2011 356.787C87.3207 356.548 113.516 355.139 129.096 350.427C144.668 345.715 148.915 345.476 150.095 342.65C151.274 339.824 151.744 334.634 150.565 332.048C149.385 329.452 104.311 330.161 103.371 330.161C102.431 330.161 96.0552 286.317 96.0552 286.317" fill="white"/>
<path d="M100.303 271.455C100.303 271.455 90.8675 261.791 85.2011 261.322C79.5348 260.852 67.0312 264.148 67.0312 279.001C67.0312 293.846 74.3471 317.655 75.2872 332.978C76.2273 348.301 83.0731 357.017 85.2011 356.787C87.3207 356.548 113.516 355.139 129.096 350.427C144.668 345.715 148.915 345.476 150.095 342.65C151.274 339.824 151.744 334.634 150.565 332.048C149.385 329.452 104.311 330.161 103.371 330.161C102.431 330.161 96.0552 286.317 96.0552 286.317" stroke="#002E47" stroke-miterlimit="10" stroke-linecap="round" stroke-linejoin="round"/>
<path d="M101.012 330.383C101.012 330.383 90.8671 333.448 85.9102 339.577" stroke="#002E47" stroke-miterlimit="10" stroke-linecap="round" stroke-linejoin="round"/>
<path d="M99.8337 328.257C99.8337 328.257 89.689 329.905 85.4414 332.97" stroke="#002E47" stroke-miterlimit="10" stroke-linecap="round" stroke-linejoin="round"/>
<path d="M453.613 342.36C453.613 342.36 459.963 340.849 459.946 345.382C459.929 349.915 458.331 356.249 455.972 357.461C453.613 358.665 449.571 356.257 449.571 356.257L449.52 353.543C449.52 353.543 454.767 355.959 455.81 352.339C456.852 348.719 457.229 345.39 451.904 346.304" fill="#39B4EF"/>
<path d="M453.613 342.36C453.613 342.36 459.963 340.849 459.946 345.382C459.929 349.915 458.331 356.249 455.972 357.461C453.613 358.665 449.571 356.257 449.571 356.257L449.52 353.543C449.52 353.543 454.767 355.959 455.81 352.339C456.852 348.719 457.229 345.39 451.904 346.304" stroke="#002E47" stroke-miterlimit="10" stroke-linecap="round" stroke-linejoin="round"/>
<path d="M454.485 338.288L452.442 362.446C452.442 364.333 447.673 365.869 441.793 365.869C435.913 365.869 431.144 364.341 431.144 362.446L429.102 338.288H454.485Z" fill="#39B4EF" stroke="#002E47" stroke-miterlimit="10" stroke-linecap="round" stroke-linejoin="round"/>
<path d="M441.786 342.36C448.8 342.36 454.486 340.537 454.486 338.288C454.486 336.039 448.8 334.216 441.786 334.216C434.772 334.216 429.086 336.039 429.086 338.288C429.086 340.537 434.772 342.36 441.786 342.36Z" fill="white" stroke="#002E47" stroke-miterlimit="10" stroke-linecap="round" stroke-linejoin="round"/>
<path d="M437.512 341.002C438.828 341.165 440.272 341.259 441.785 341.259C445.973 341.259 449.614 340.559 451.443 339.526" fill="white"/>
<path d="M437.512 341.002C438.828 341.165 440.272 341.259 441.785 341.259C445.973 341.259 449.614 340.559 451.443 339.526" stroke="#002E47" stroke-miterlimit="10" stroke-linecap="round" stroke-linejoin="round"/>
<path d="M431.742 339.287C432.34 339.705 433.221 340.081 434.315 340.388L431.742 339.287Z" fill="white"/>
<path d="M431.742 339.287C432.34 339.705 433.221 340.081 434.315 340.388" stroke="#002E47" stroke-miterlimit="10" stroke-linecap="round" stroke-linejoin="round"/>
<path d="M152.086 347.524C152.086 347.524 145.924 346.005 145.565 350.58C145.206 355.156 146.257 361.567 148.497 362.788C150.736 364.009 154.932 361.559 154.932 361.559L155.206 358.81C155.206 358.81 149.813 361.26 149.078 357.598C148.351 353.935 148.257 350.58 153.445 351.485" fill="#39B4EF"/>
<path d="M152.086 347.524C152.086 347.524 145.924 346.005 145.565 350.58C145.206 355.156 146.257 361.567 148.497 362.788C150.736 364.009 154.932 361.559 154.932 361.559L155.206 358.81C155.206 358.81 149.813 361.26 149.078 357.598C148.351 353.935 148.257 350.58 153.445 351.485" stroke="#002E47" stroke-miterlimit="10" stroke-linecap="round" stroke-linejoin="round"/>
<path d="M150.598 343.538L152.64 367.696C152.64 369.583 157.409 371.119 163.289 371.119C169.169 371.119 173.938 369.591 173.938 367.696L175.981 343.538H150.598Z" fill="#39B4EF" stroke="#002E47" stroke-miterlimit="10" stroke-linecap="round" stroke-linejoin="round"/>
<path d="M175.99 343.538C175.99 345.791 170.307 347.61 163.29 347.61C156.282 347.61 150.59 345.783 150.59 343.538C150.59 341.284 156.273 339.466 163.29 339.466C170.307 339.457 175.99 341.284 175.99 343.538Z" fill="white" stroke="#002E47" stroke-miterlimit="10" stroke-linecap="round" stroke-linejoin="round"/>
<path d="M167.564 346.252C166.247 346.415 164.803 346.509 163.29 346.509C159.103 346.509 155.462 345.809 153.633 344.776" fill="white"/>
<path d="M167.564 346.252C166.247 346.415 164.803 346.509 163.29 346.509C159.103 346.509 155.462 345.809 153.633 344.776" stroke="#002E47" stroke-miterlimit="10" stroke-linecap="round" stroke-linejoin="round"/>
<path d="M173.342 344.537C172.744 344.955 171.863 345.331 170.77 345.638L173.342 344.537Z" fill="white"/>
<path d="M173.342 344.537C172.744 344.955 171.863 345.331 170.77 345.638" stroke="#002E47" stroke-miterlimit="10" stroke-linecap="round" stroke-linejoin="round"/>
</g>
<defs>
<clipPath id="clip0_266_52282">
<rect width="588" height="385" fill="white"/>
</clipPath>
</defs>
</svg>
