<svg width="25" height="25" viewBox="0 0 25 25" fill="none" xmlns="http://www.w3.org/2000/svg">
<path d="M16.1997 13.5376L14.1059 15.6385C13.2568 16.4905 11.7629 16.5089 10.8955 15.6385L8.80156 13.5376L1.28125 21.0823C1.56118 21.2118 1.86982 21.289 2.19795 21.289H22.8034C23.1315 21.289 23.4401 21.2119 23.7199 21.0824L16.1997 13.5376Z" fill="#39B4EF"/>
<path d="M22.8033 3.71094H2.19785C1.86973 3.71094 1.56108 3.78818 1.28125 3.91763L9.31724 11.9803C9.31777 11.9808 9.31841 11.9809 9.31894 11.9814C9.31948 11.982 9.31958 11.9827 9.31958 11.9827L11.9325 14.6043C12.2101 14.8818 12.7912 14.8818 13.0687 14.6043L15.6812 11.9832C15.6812 11.9832 15.6818 11.982 15.6823 11.9814C15.6823 11.9814 15.6835 11.9808 15.684 11.9803L23.7198 3.91758C23.44 3.78809 23.1314 3.71094 22.8033 3.71094Z" fill="#39B4EF"/>
<path d="M0.233691 4.94189C0.0888672 5.23477 0 5.55986 0 5.90811V19.0917C0 19.4399 0.0887695 19.765 0.233643 20.0579L7.76699 12.5001L0.233691 4.94189Z" fill="#39B4EF"/>
<path d="M24.7676 4.94189L17.2344 12.5002L24.7676 20.0581C24.9124 19.7652 25.0013 19.4401 25.0013 19.0918V5.9082C25.0013 5.55986 24.9124 5.23477 24.7676 4.94189Z" fill="#39B4EF"/>
</svg>
