<svg width="25" height="25" viewBox="0 0 25 25" fill="none" xmlns="http://www.w3.org/2000/svg">
<g clip-path="url(#clip0_197_47928)">
<path d="M24.3207 18.3475L20.8318 14.8587C19.5858 13.6126 17.4676 14.1111 16.9692 15.7309C16.5954 16.8523 15.3494 17.4753 14.228 17.2261C11.736 16.6031 8.37175 13.3634 7.74874 10.7468C7.37494 9.62537 8.12255 8.37936 9.24395 8.00561C10.8638 7.5072 11.3622 5.38899 10.1162 4.14298L6.62734 0.654155C5.63053 -0.218052 4.13532 -0.218052 3.26311 0.654155L0.895696 3.02157C-1.47172 5.51359 1.1449 12.1174 7.00114 17.9737C12.8574 23.8299 19.4612 26.5712 21.9532 24.0791L24.3207 21.7117C25.1929 20.7149 25.1929 19.2197 24.3207 18.3475Z" fill="#39B4EF"/>
</g>
<defs>
<clipPath id="clip0_197_47928">
<rect width="25" height="25" fill="white"/>
</clipPath>
</defs>
</svg>
