<svg width="20" height="19" viewBox="0 0 20 19" fill="none" xmlns="http://www.w3.org/2000/svg">
<g clip-path="url(#clip0_416_559)">
<path d="M11.7407 9.51555L19.1389 2.1171C19.6204 1.63587 19.6204 0.857769 19.1389 0.376531C18.6577 -0.104707 17.8796 -0.104707 17.3983 0.376531L9.9999 7.77498L2.60167 0.376531C2.12021 -0.104707 1.34234 -0.104707 0.861098 0.376531C0.379634 0.857769 0.379634 1.63587 0.861098 2.1171L8.25932 9.51555L0.861098 16.914C0.379634 17.3952 0.379634 18.1733 0.861098 18.6546C1.10093 18.8946 1.41627 19.0152 1.73138 19.0152C2.0465 19.0152 2.36162 18.8946 2.60167 18.6546L9.9999 11.2561L17.3983 18.6546C17.6384 18.8946 17.9535 19.0152 18.2686 19.0152C18.5837 19.0152 18.8989 18.8946 19.1389 18.6546C19.6204 18.1733 19.6204 17.3952 19.1389 16.914L11.7407 9.51555Z" fill="#EF6079"/>
</g>
<defs>
<clipPath id="clip0_416_559">
<rect width="19" height="19" fill="white" transform="translate(0.5)"/>
</clipPath>
</defs>
</svg>
