<svg width="301" height="197" viewBox="0 0 301 197" fill="none" xmlns="http://www.w3.org/2000/svg">
<g clip-path="url(#clip0_72_16711)">
<path d="M247.528 82.8038C247.528 82.8038 239.591 75.704 227.381 83.2883C215.172 90.8726 200.648 119.687 226.219 137.927C250.173 155.014 299.811 136.226 293.689 109.125C292.892 105.599 293.626 101.895 295.71 98.9386C299.394 93.7106 303.25 84.5243 296 74.0314C296 74.0314 295.105 73.0313 293.764 71.8772C289.396 68.1182 287.756 62.0807 289.624 56.6337C295.817 38.5692 300.541 8.70514 260.536 15.4645C223.723 21.6856 247.641 64.4878 247.641 64.4878C247.641 64.4878 239.98 67.9417 247.528 82.8038Z" fill="url(#paint0_linear_72_16711)"/>
<path d="M258.984 156.018C258.984 156.018 287.02 123.131 285.634 81.9223C284.428 46.0942 262.671 51.8789 273.361 67.6069C276.511 72.2431 282.276 77.0262 282.852 82.1512C285.452 105.257 275.74 131.36 258.984 156.018Z" fill="#9FE0FF"/>
<path d="M256.448 161.954C256.448 161.954 276.62 127.062 271.462 89.6211C266.977 57.0688 249.403 66.0996 259.841 78.6422C262.917 82.339 268.187 85.7208 269.165 90.309C273.577 110.988 268.018 136.525 256.448 161.954Z" fill="#9FE0FF"/>
<path d="M261.02 145.529C261.02 145.529 277.816 125.825 276.987 101.137C276.265 79.6706 263.229 83.1372 269.633 92.5593C271.521 95.3365 274.974 98.2027 275.32 101.274C276.876 115.117 271.058 130.756 261.02 145.529Z" fill="#9FE0FF"/>
<path d="M119.84 141.255C119.84 141.255 100.082 151.58 107.162 171.078C112.767 186.519 134.812 191.218 147.548 185.482C151.091 183.888 155.182 183.979 158.645 185.738C159.608 186.227 160.838 186.461 162.411 186.268C165.311 185.91 168.23 186.549 170.716 188.08C177.708 192.387 192.212 197.372 203.166 174.646C218.132 143.594 201.694 127.599 201.694 127.599L119.84 141.255Z" fill="url(#paint1_linear_72_16711)"/>
<path d="M62.5912 82.332C62.5912 82.332 73.5794 87.6872 84.6767 75.4992C95.7739 63.3111 102.761 26.9688 68.8142 14.8302C39.0805 4.1975 -5.59574 35.203 1.19904 62.1641C3.1592 69.9434 3.73239 78.1125 2.83652 86.0839C2.11189 92.5268 3.62058 100.385 11.8448 107.166C11.8448 107.166 17.1479 110.525 21.4942 110.71C23.7586 110.807 25.4782 112.76 25.1923 115.003C22.8217 133.637 20.5091 183.93 69.3661 160.722C108.046 142.348 68.2155 102.582 68.2155 102.582C68.2155 102.582 75.5849 96.3762 62.5912 82.332Z" fill="url(#paint2_linear_72_16711)"/>
<path d="M83.216 143.61C83.216 143.61 90.0178 73.0355 57.5343 24.9205C57.1111 24.2933 56.1813 24.306 55.7836 24.9502C49.4983 35.1196 12.6132 101.008 83.216 143.61Z" fill="#7FD4FD"/>
<path d="M56.4484 45.4486C56.4314 49.5678 56.5814 53.7039 56.8885 57.8175C57.1687 61.9352 57.5749 66.0417 58.0915 70.1326C58.6236 74.2222 59.2421 78.299 60.0149 82.3475C60.7678 86.3989 61.6354 90.4291 62.6713 94.4155C63.6889 98.4061 64.8141 102.37 66.1317 106.272C66.2916 106.76 66.4459 107.252 66.6115 107.739L67.1295 109.194C67.4805 110.162 67.806 111.139 68.1782 112.099L69.2949 114.977L69.5723 115.698L69.8709 116.41L70.4681 117.834C71.2352 119.746 72.1368 121.598 72.9774 123.48C73.4148 124.412 73.886 125.328 74.3389 126.253L75.0253 127.639C75.2589 128.098 75.5136 128.546 75.7528 129.002L77.2091 131.731L78.7659 134.405L79.5458 135.743L80.3765 137.048L82.0239 139.673L82.0282 139.68C82.1131 139.815 82.072 139.995 81.9362 140.081C81.806 140.163 81.6361 140.128 81.5456 140.006C76.6473 133.298 72.4326 126.058 69.0783 118.436L68.4415 117.01L68.123 116.297L67.8272 115.575L66.6525 112.682C66.2633 111.716 65.9208 110.734 65.5529 109.759L65.0094 108.296C64.8353 107.806 64.6726 107.311 64.5041 106.82C63.1299 102.888 61.9906 98.8807 60.9405 94.8562C58.8812 86.7916 57.4504 78.5758 56.5715 70.3106C56.1313 66.1773 55.8497 62.0299 55.7096 57.8782C55.6445 55.8031 55.6261 53.7251 55.6402 51.6486C55.6544 49.5706 55.7096 47.4997 55.8638 45.419C55.8752 45.2593 56.0153 45.1379 56.1752 45.1506C56.328 45.1619 56.4455 45.289 56.4455 45.4402L56.4484 45.4486Z" fill="#9FE0FF"/>
<path d="M77.9341 146.795C77.9341 146.795 54.1998 68.6466 10.3048 56.6973C9.52643 56.4854 8.75228 57.0575 8.72539 57.8627C8.40129 67.234 10.0161 117.103 77.9341 146.795Z" fill="#9FE0FF"/>
<path d="M17.6699 69.4207C19.6866 72.8251 21.828 76.1673 23.999 79.4841C25.093 81.1369 26.187 82.791 27.2994 84.4325C28.4274 86.0627 29.5356 87.7069 30.6805 89.3258C31.834 90.939 32.9733 92.5621 34.1367 94.1668L37.6692 98.9528C40.0738 102.106 42.4755 105.261 44.965 108.348C47.4007 111.477 49.9822 114.49 52.507 117.547L56.4189 122.028C57.0742 122.772 57.7181 123.525 58.3819 124.263L60.3972 126.449C61.7446 127.904 63.0778 129.372 64.4379 130.816L68.5946 135.072C69.288 135.781 69.9702 136.501 70.6736 137.199L72.8135 139.266L77.0933 143.399L77.099 143.405C77.215 143.516 77.2179 143.7 77.1061 143.816C76.9957 143.93 76.8131 143.935 76.697 143.826C70.8972 138.39 65.1738 132.86 59.8453 126.956L57.8172 124.771C57.1506 124.035 56.501 123.282 55.8429 122.538L51.9055 118.06C49.3637 115.004 46.7666 111.994 44.314 108.866C39.3449 102.662 34.5966 96.2829 30.0578 89.7609C28.9157 88.135 27.8132 86.4822 26.688 84.845C25.5799 83.1965 24.4901 81.5352 23.4003 79.874C21.2562 76.5275 19.1545 73.1584 17.1632 69.7117C17.0825 69.5718 17.1306 69.3952 17.2693 69.3147C17.408 69.2356 17.5849 69.2822 17.6656 69.4178L17.6699 69.4207Z" fill="url(#paint3_linear_72_16711)"/>
<path d="M254.06 89.0673C252.014 135.587 209.571 171.513 159.262 169.309C108.953 167.104 69.8271 127.605 71.8736 81.0846C73.9201 34.5644 116.363 -1.36114 166.672 0.842534C216.98 3.04762 256.105 42.5471 254.06 89.0673Z" fill="#39B4EF"/>
<g opacity="0.22">
<path d="M158.032 146.456C197.548 146.456 229.582 116.252 229.582 78.9925C229.582 41.7334 197.548 11.529 158.032 11.529C118.516 11.529 86.4824 41.7334 86.4824 78.9925C86.4824 116.252 118.516 146.456 158.032 146.456Z" fill="#91B3FA"/>
</g>
<g opacity="0.68">
<path d="M186.259 85.4835C186.238 100.354 185.216 115.256 182.59 129.916C181.924 133.577 181.155 137.222 180.236 140.832C179.315 144.44 178.252 148.018 176.95 151.516C175.636 155.004 174.113 158.442 172.047 161.585C171.006 163.145 169.825 164.639 168.367 165.868C167.639 166.478 166.839 167.021 165.959 167.418C165.081 167.812 164.12 168.062 163.146 168.079C162.174 168.107 161.199 167.918 160.305 167.558C159.406 167.202 158.586 166.683 157.841 166.093C156.349 164.902 155.142 163.424 154.082 161.876C151.978 158.756 150.434 155.324 149.108 151.842C147.791 148.35 146.716 144.776 145.787 141.17C144.86 137.562 144.081 133.919 143.41 130.259C142.073 122.936 141.16 115.542 140.544 108.128C139.933 100.713 139.627 93.274 139.589 85.8338C139.571 82.1144 139.673 78.395 139.804 74.6784C139.944 70.9618 140.15 67.2481 140.423 63.5385C140.973 56.1209 141.797 48.7202 143.021 41.3803C143.635 37.7117 144.351 34.0573 145.212 30.4368C146.075 26.8162 147.079 23.2254 148.324 19.7122C148.95 17.9577 149.633 16.2202 150.415 14.5251C151.193 12.83 152.065 11.1716 153.089 9.60355C154.117 8.04261 155.297 6.55231 156.766 5.36006C157.501 4.76959 158.31 4.25399 159.198 3.90648C160.081 3.55333 161.039 3.37534 161.993 3.41066C162.947 3.4375 163.888 3.67481 164.756 4.05622C165.625 4.43904 166.423 4.96029 167.156 5.55218C168.622 6.7416 169.835 8.19518 170.912 9.72221C173.052 12.7975 174.665 16.1877 176.064 19.6388C177.451 23.0982 178.597 26.6481 179.595 30.2348C180.59 33.8228 181.43 37.4504 182.159 41.0992C185.045 55.707 186.217 70.6101 186.259 85.4835ZM185.157 85.4835C185.171 78.0743 184.888 70.6623 184.271 63.2786C183.662 55.8949 182.741 48.5323 181.368 41.2517C180.683 37.6114 179.885 33.9923 178.934 30.4128C177.98 26.8346 176.88 23.2946 175.54 19.845C174.191 16.4053 172.626 13.0263 170.55 9.97366C169.507 8.45792 168.329 7.01847 166.915 5.84741C166.209 5.26542 165.442 4.75405 164.613 4.37688C163.783 4.00537 162.892 3.76098 161.983 3.73697C161.076 3.70872 160.17 3.89094 159.331 4.23562C158.489 4.57747 157.716 5.07895 157.011 5.65954C155.602 6.82918 154.458 8.29971 153.466 9.84652C152.475 11.4004 151.63 13.0475 150.879 14.7342C150.124 16.4208 149.465 18.1499 148.863 19.8987C147.666 23.3991 146.707 26.9815 145.887 30.5922C145.069 34.2042 144.397 37.8502 143.825 41.5102C142.686 48.8332 141.947 56.2156 141.478 63.612C141.006 71.0084 140.842 78.4232 140.856 85.8338C140.836 93.243 141.084 100.655 141.636 108.044C142.192 115.432 143.044 122.802 144.319 130.099C144.957 133.747 145.705 137.376 146.598 140.968C147.493 144.559 148.532 148.116 149.81 151.582C151.097 155.041 152.6 158.444 154.632 161.507C155.655 163.027 156.819 164.468 158.228 165.611C158.933 166.178 159.7 166.669 160.53 167.004C161.356 167.34 162.243 167.528 163.131 167.498C164.02 167.476 164.894 167.241 165.707 166.87C166.52 166.495 167.271 165.98 167.96 165.392C169.34 164.21 170.479 162.751 171.482 161.218C173.479 158.13 174.961 154.72 176.232 151.255C177.493 147.781 178.522 144.221 179.408 140.629C180.291 137.035 181.029 133.404 181.661 129.755C182.928 122.456 183.769 115.086 184.328 107.698C184.898 100.306 185.16 92.894 185.157 85.4835Z" fill="white"/>
<path d="M223.846 85.4835C223.795 95.0596 222.561 104.64 219.993 113.876C217.381 123.089 213.441 131.953 208.092 139.911C205.417 143.887 202.387 147.627 199.002 151.022C195.618 154.415 191.874 157.46 187.813 160.013C183.746 162.556 179.355 164.59 174.757 165.971C170.161 167.356 165.365 168.078 160.564 168.082C155.764 168.082 150.966 167.364 146.367 165.984C141.768 164.607 137.372 162.575 133.302 160.036C129.235 157.486 125.486 154.443 122.097 151.051C118.706 147.658 115.67 143.918 112.989 139.944C107.63 131.985 103.683 123.117 101.057 113.9C99.765 109.282 98.804 104.574 98.1686 99.8229C97.536 95.0709 97.2175 90.2793 97.1963 85.4863C97.2218 80.6933 97.5416 75.9017 98.1785 71.1511C98.8182 66.4005 99.782 61.6937 101.077 57.0787C103.709 47.8642 107.662 39.0029 113.025 31.0513C115.707 27.0804 118.743 23.344 122.134 19.9552C125.523 16.5677 129.268 13.5292 133.334 10.9865C137.403 8.45369 141.798 6.43648 146.39 5.06059C150.978 3.67906 155.769 2.95721 160.564 2.95297C165.359 2.96145 170.147 3.68612 174.734 5.07189C179.324 6.45202 183.714 8.47346 187.779 11.0091C191.84 13.5532 195.581 16.596 198.965 19.9834C202.35 23.3737 205.381 27.1101 208.055 31.0809C213.407 39.0311 217.352 47.8882 219.972 57.0984C222.548 66.3284 223.788 75.9074 223.846 85.4835ZM222.582 85.4835C222.568 76.0161 221.386 66.5375 218.884 57.3993C216.367 48.2738 212.577 39.4648 207.36 31.5429C204.754 27.5861 201.793 23.8554 198.477 20.4651C195.159 17.0805 191.495 14.0166 187.487 11.471C183.475 8.93963 179.141 6.90264 174.598 5.52393C170.056 4.14522 165.315 3.41914 160.566 3.4036C155.816 3.42337 151.076 4.15228 146.536 5.53523C141.994 6.91676 137.665 8.95799 133.657 11.4922C129.653 14.0406 125.994 17.1059 122.683 20.4934C119.372 23.8851 116.417 27.6158 113.816 31.5739C108.611 39.4959 104.829 48.3007 102.324 57.4219C101.076 61.9875 100.173 66.6435 99.5612 71.3333C98.947 76.0232 98.6455 80.7541 98.6342 85.4849C98.6484 90.2157 98.9541 94.9466 99.5697 99.6365C100.185 104.325 101.091 108.979 102.342 113.544C104.853 122.661 108.64 131.46 113.85 139.373C116.451 143.327 119.408 147.054 122.718 150.441C126.03 153.823 129.687 156.885 133.689 159.425C137.696 161.952 142.025 163.98 146.559 165.361C151.089 166.745 155.822 167.477 160.566 167.501C165.31 167.481 170.042 166.754 174.575 165.372C179.111 163.995 183.442 161.972 187.455 159.446C191.461 156.908 195.123 153.848 198.441 150.469C201.757 147.083 204.718 143.357 207.327 139.404C212.546 131.489 216.342 122.686 218.865 113.565C221.373 104.427 222.561 94.9508 222.582 85.4835Z" fill="white"/>
<path d="M86.7198 52.7999L105.724 52.6473L124.729 52.5611L162.737 52.4905L200.745 52.5682L219.749 52.6628L238.754 52.8281C238.785 52.8281 238.809 52.8536 238.809 52.8846C238.809 52.9157 238.783 52.9397 238.754 52.9397L219.749 53.105L200.745 53.1996L162.737 53.2773L124.729 53.2067L105.724 53.1205L86.7198 52.968C86.6745 52.968 86.6377 52.9298 86.6377 52.8846C86.6377 52.8366 86.6745 52.7999 86.7198 52.7999Z" fill="white"/>
<path d="M108.768 21.0288C113.265 20.9581 117.763 20.9271 122.26 20.8762L135.751 20.79C140.249 20.7533 144.747 20.7576 149.243 20.7463L162.735 20.7208L189.72 20.7985L203.212 20.8932C207.71 20.9497 212.208 20.9822 216.704 21.0584C216.735 21.0584 216.759 21.0839 216.759 21.1149C216.759 21.1446 216.734 21.1686 216.704 21.17C212.206 21.2463 207.709 21.2788 203.212 21.3353L189.72 21.43L162.735 21.5077L149.243 21.4822C144.746 21.4709 140.248 21.4752 135.751 21.4384L122.26 21.3523C117.762 21.3 113.264 21.2703 108.768 21.1997C108.722 21.1983 108.686 21.1616 108.686 21.1149C108.687 21.0655 108.722 21.0302 108.768 21.0288Z" fill="white"/>
<path d="M80.1163 84.5695L100.771 84.417L121.426 84.3294L162.736 84.2588L204.047 84.3365L224.702 84.4311L245.356 84.5964C245.387 84.5964 245.411 84.6218 245.411 84.6529C245.411 84.684 245.386 84.708 245.356 84.708L224.702 84.8732L204.047 84.9679L162.736 85.0456L121.426 84.975L100.771 84.8874L80.1163 84.7348C80.071 84.7348 80.0328 84.6967 80.0342 84.6515C80.0342 84.6063 80.071 84.5695 80.1163 84.5695Z" fill="white"/>
<path d="M86.7198 116.339L105.724 116.187L124.729 116.1L162.737 116.03L200.745 116.108L219.749 116.202L238.754 116.367C238.785 116.367 238.809 116.393 238.809 116.424C238.809 116.455 238.783 116.479 238.754 116.479L219.749 116.644L200.745 116.739L162.737 116.817L124.729 116.746L105.724 116.66L86.7198 116.507C86.6745 116.507 86.6377 116.469 86.6377 116.424C86.6377 116.376 86.6745 116.339 86.7198 116.339Z" fill="white"/>
<path d="M219.425 148.483H111.486C111.325 148.483 111.194 148.353 111.194 148.192C111.194 148.031 111.325 147.901 111.486 147.901H219.424C219.585 147.901 219.715 148.031 219.715 148.192C219.717 148.353 219.587 148.483 219.425 148.483Z" fill="white"/>
</g>
<path d="M152.363 148.519C152.363 148.519 150.567 143.8 148.469 144.233C146.372 144.665 144.078 146.272 144.078 146.272L140.708 150.821C140.708 150.821 150.166 154.541 153.492 152.409C153.492 152.409 163.153 154.076 175.353 152.077C173.586 148.356 172.533 144.63 171.916 141.738C165.739 145.229 159.084 147.836 152.363 148.519Z" fill="url(#paint4_linear_72_16711)"/>
<path d="M203.538 114.299C203.538 114.299 189.707 131.689 171.918 141.738C172.536 144.63 173.588 148.356 175.354 152.077C184.582 150.565 195.262 146.959 204.315 138.944L203.538 114.299Z" fill="#BDD0FB"/>
<path d="M18.7954 122.319L46.2547 191.246C47.6516 194.753 51.2775 196.848 55.0209 196.311L127.028 191.004L101.091 117.707C100.401 115.893 98.64 114.712 96.6968 114.756C84.0725 115.045 38.0913 116.18 21.6429 117.64C19.3586 117.844 17.9278 120.2 18.7954 122.319Z" fill="#0696DB"/>
<path d="M52.595 193.181L25.1598 123.635C24.6064 122.231 25.6212 120.707 27.1327 120.673L94.9417 118.105C96.6882 118.039 98.286 119.083 98.9243 120.707L123.76 188.501L52.595 193.181Z" fill="white"/>
<path d="M293.024 122.319L265.565 191.246C264.167 194.753 260.542 196.848 256.799 196.311L184.792 191.283L210.728 117.707C211.419 115.893 213.18 114.712 215.123 114.756C227.747 115.045 273.728 116.18 290.177 117.64C292.461 117.844 293.893 120.2 293.024 122.319Z" fill="#0696DB"/>
<path d="M259.227 193.181L286.66 123.635C287.214 122.231 286.199 120.707 284.688 120.673L216.879 118.105C215.132 118.039 213.534 119.083 212.896 120.707L188.061 188.501L259.227 193.181Z" fill="white"/>
<path d="M99.8682 116.598L100.727 139.618C103.166 140.455 105.488 141.107 107.7 141.594C109.083 137.15 112.129 131.694 114.622 127.639C105.459 124.405 99.8682 116.598 99.8682 116.598Z" fill="#002E47"/>
<path d="M145.615 116.206C133.046 129.752 122.872 130.549 114.621 127.639C112.128 131.694 109.082 137.15 107.699 141.594C141.265 148.98 149.17 118.181 149.17 118.181L145.615 116.206Z" fill="url(#paint5_linear_72_16711)"/>
<path d="M148.163 114.768C148.163 114.768 149.611 113.216 152.29 113.705C154.969 114.192 157.355 115.122 159.024 113.705C160.694 112.288 161.28 114.189 161.28 114.189L156.28 117.982L148.163 114.768Z" fill="url(#paint6_linear_72_16711)"/>
<path d="M145.175 117.421C145.175 117.421 146.167 113.281 149.156 113.849C152.145 114.417 158.933 118.101 160.682 117.421C162.431 116.743 164.667 115.119 165.815 115.692L163.794 118.201C163.794 118.201 168.991 115.209 169.886 117.047L161.24 121.903C161.238 121.903 148.588 120.639 145.175 117.421Z" fill="url(#paint7_linear_72_16711)"/>
<path d="M56.3559 192.466C56.3559 192.466 52.0676 131.352 83.3326 112.35C83.3326 112.35 92.0734 106.591 102.965 117.745C113.857 128.899 110.349 140.488 101.209 151.348C92.0692 162.208 82.7595 181.608 84.9744 192.466H56.3559Z" fill="#002E47"/>
<path d="M99.0902 95.7038C99.0817 96.4327 88.6709 111.192 88.6709 111.192C88.6709 111.192 90.5391 114.864 99.461 117.848L107.162 102.045L99.0902 95.7038Z" fill="url(#paint8_linear_72_16711)"/>
<path d="M94.9951 146.38C94.9951 146.38 114.748 162.892 136.078 155.686C137.401 155.24 138.848 155.336 140.082 155.987L146.214 159.219C148.789 160.575 151.976 159.685 153.469 157.192C154.321 155.769 155.048 154.145 155.193 152.588L143.194 147.74L144.079 146.271C144.079 146.271 138.221 145.775 136.687 149.966C136.687 149.966 125.528 154.598 106.711 133.94C106.709 133.942 98.171 141.188 94.9951 146.38Z" fill="url(#paint9_linear_72_16711)"/>
<path d="M93.9329 146.308C93.848 146.308 93.7631 146.284 93.6881 146.233C85.3464 140.608 81.4232 131.528 81.3836 131.437C81.2888 131.215 81.3935 130.96 81.6157 130.865C81.8379 130.77 82.0941 130.875 82.1889 131.097C82.2271 131.186 86.0569 140.034 94.1778 145.511C94.3773 145.645 94.4311 145.916 94.2952 146.117C94.2103 146.24 94.073 146.308 93.9329 146.308Z" fill="#064162"/>
<path d="M106.321 133.761C106.178 133.761 106.037 133.69 105.953 133.56C105.928 133.521 103.386 129.571 98.5441 120.919C97.0694 118.284 95.1347 116.616 92.7924 115.962C88.9088 114.877 85.1612 116.958 85.1244 116.979C84.9149 117.098 84.6474 117.024 84.5285 116.815C84.4097 116.606 84.4833 116.339 84.6927 116.221C84.8583 116.127 88.7815 113.941 93.0202 115.12C95.5989 115.838 97.7133 117.646 99.3069 120.495C104.132 129.119 106.662 133.052 106.688 133.09C106.818 133.292 106.76 133.562 106.557 133.693C106.484 133.738 106.402 133.761 106.321 133.761Z" fill="#064162"/>
<path d="M107.288 87.2464C107.288 87.2464 110.991 95.7405 111.24 100.199C111.49 104.657 112.452 107.55 107.288 108.447C102.123 109.345 97.7726 106.777 95.4162 102.336C95.4162 102.336 91.7237 95.4933 92.5517 92.6906C93.3782 89.8894 107.288 87.2464 107.288 87.2464Z" fill="url(#paint10_linear_72_16711)"/>
<path d="M97.1792 99.1435L97.4736 99.0135C97.8473 98.8482 98.0086 98.4047 97.8204 98.0416C97.0915 96.6375 95.672 93.4181 97.5062 92.668C99.8697 91.7004 109.233 89.7948 111.253 86.4794C113.195 83.2925 111.474 79.179 108.889 78.0079C108.717 77.9302 108.513 77.9924 108.424 78.1591L108.209 78.5659C108.061 78.8442 107.649 78.8018 107.562 78.4995C107.477 78.2085 107.09 78.152 106.929 78.4091C106.308 79.4008 104.632 81.0097 100.149 81.8347C93.7769 83.0086 89.565 85.5824 89.4603 89.9756C89.4532 90.2553 89.156 90.4107 88.9168 90.2652C88.4469 89.9784 87.694 89.8442 86.6877 90.689C84.9385 92.1581 85.6546 95.9665 89.49 99.0997C89.6726 99.248 89.6712 99.5319 89.473 99.6605C88.7781 100.113 87.7407 101.188 90.4269 102.62C93.2051 104.102 95.2799 103.98 96.0781 103.849C96.2763 103.816 96.4051 103.624 96.3612 103.428L95.5092 99.5658C95.4611 99.3469 95.6281 99.1406 95.8517 99.1406H97.1792V99.1435Z" fill="#002E47"/>
<path d="M97.3389 99.9585C97.3389 99.9585 95.925 94.5327 93.4879 96.0541C91.0508 97.5755 94.7532 102.134 96.7119 102.336L97.3389 99.9585Z" fill="url(#paint11_linear_72_16711)"/>
<path d="M140.082 155.988C140.082 155.988 145.102 160.889 146.07 160.175C146.415 159.921 147.284 159 148.128 157.973C148.722 157.248 148.785 156.226 148.274 155.439L147.091 153.615C145.963 151.878 143.547 151.513 141.983 152.872C141.193 153.559 140.477 154.55 140.082 155.988Z" fill="url(#paint12_linear_72_16711)"/>
<path d="M219.18 191.567C219.18 191.567 219.146 169.548 206.321 146.812C202.308 139.7 200.882 131.423 202.133 123.357L203.538 114.298C203.538 114.298 221.14 108.352 240.651 114.048C240.651 114.048 267.706 136.336 249.624 193.341L219.18 191.567Z" fill="#BDD0FB"/>
<path d="M206.534 102.737L211.098 113.682C211.387 114.373 212.01 114.866 212.749 114.993C215.38 115.444 221.744 116.147 225.925 113.404C226.423 113.077 226.551 112.401 226.209 111.914L217.777 99.83L206.534 102.737Z" fill="url(#paint13_linear_72_16711)"/>
<path d="M217.792 154.172C217.163 154.337 216.851 155.042 217.152 155.618L230.357 180.89C230.58 181.317 231.073 181.527 231.537 181.394L274.73 168.948C275.268 168.792 275.578 168.232 275.422 167.695L267.982 141.987C267.829 141.458 267.283 141.149 266.749 141.289L217.792 154.172Z" fill="#7D97F4"/>
<path d="M220.578 151.202C219.96 151.349 219.609 152.003 219.828 152.598L230.398 181.256C230.59 181.777 231.153 182.061 231.687 181.907L274.75 169.497C275.286 169.343 275.61 168.801 275.493 168.257L269.525 140.676C269.399 140.095 268.82 139.732 268.242 139.869L220.578 151.202Z" fill="#91B3FA"/>
<path d="M224.329 148.309C223.575 148.424 223.076 149.156 223.249 149.899L230.427 180.836C230.597 181.567 231.346 182.006 232.069 181.798L274.48 169.576C275.162 169.38 275.562 168.678 275.385 167.993L268.864 142.74C268.695 142.09 268.063 141.672 267.397 141.772L224.329 148.309Z" fill="#002E47"/>
<path d="M258.659 160.108C261.951 135.289 242.79 116.206 242.79 116.206L231.39 129.472C240.046 140.241 244.16 150.108 246.039 157.859C248.53 157.134 254.531 155.99 258.659 160.108Z" fill="#BDD0FB"/>
<path d="M246.037 158.15C245.906 158.15 245.787 158.061 245.754 157.928C243.423 148.315 238.512 138.803 231.16 129.656C231.059 129.53 231.079 129.348 231.205 129.248C231.331 129.147 231.514 129.167 231.614 129.293C239.02 138.507 243.968 148.096 246.319 157.792C246.357 157.948 246.261 158.106 246.104 158.144C246.082 158.147 246.06 158.15 246.037 158.15Z" fill="#91B3FA"/>
<path d="M246.037 157.859C247.784 165.062 247.601 170.437 247.335 173.002C247.235 173.97 246.456 174.725 245.484 174.793C244.38 174.871 242.877 174.971 241.534 175.049C240.058 175.134 238.419 174.203 237.323 173.424C236.764 173.027 236.041 173.646 236.353 174.256C237.171 175.853 239.245 177.275 240.676 178.11C241.197 178.414 241.099 179.191 240.519 179.354L234.402 181.085C244.454 190.537 251.09 179.962 251.09 179.962C255.527 173.119 257.821 166.428 258.659 160.109C254.531 155.99 248.53 157.134 246.037 157.859Z" fill="url(#paint14_linear_72_16711)"/>
<path d="M211.255 85.992C211.064 86.1728 203.165 101.654 203.165 101.654L212.117 105.968L221.787 92.4053C221.787 92.4039 214.465 82.9775 211.255 85.992Z" fill="url(#paint15_linear_72_16711)"/>
<path d="M217.718 94.0312L213.253 101.46C213.185 101.573 213.104 101.675 213.008 101.764C212.476 102.258 210.659 103.693 209.252 101.738C208.053 100.072 206.929 98.5572 205.725 97.9314C205.022 97.567 204.155 97.858 203.799 98.5643C203.063 100.019 201.638 102.986 200.743 105.798C200.518 106.503 200.883 107.26 201.57 107.539C203.383 108.272 206.965 109.597 210.143 110.035C210.666 110.107 211.182 109.886 211.494 109.461C212.861 107.591 216.716 102.364 218.032 101.056C219.255 99.8413 221.511 100.299 222.527 100.59C222.914 100.7 223.324 100.648 223.668 100.44C224.7 99.8201 226.498 98.2761 224.852 95.6614C224.443 95.0116 224.651 94.1456 225.294 93.7233C226.446 92.9675 227.696 91.5478 226.504 89.2495C225.298 86.9229 223.147 86.7139 221.681 86.8933C221.033 86.9724 220.375 86.6333 220.125 86.0302C220.015 85.7618 219.796 85.5329 219.388 85.451C218.62 85.2956 218.116 84.5935 218.266 83.8265C218.525 82.5099 218.329 80.7993 216.223 79.6437C212.361 77.5234 208.977 80.9772 208.117 83.8929C207.256 86.8085 211.576 88.8695 214.292 89.2128C216.287 89.4656 217.381 91.6397 217.821 92.7754C217.986 93.1921 217.946 93.6526 217.718 94.0312Z" fill="#002E47"/>
<path d="M216.356 103.787C216.356 103.787 218.075 98.7705 220.273 98.9542C222.47 99.1378 224.201 101.325 221.477 103.782C218.089 106.839 216.356 103.787 216.356 103.787Z" fill="url(#paint16_linear_72_16711)"/>
<path d="M151.512 194.067C151.512 195.352 150.469 196.393 149.181 196.393H54.48C52.5241 196.393 50.9376 194.81 50.9376 192.858L49.4473 191.13L147.777 190.29C149.847 190.318 151.512 192 151.512 194.067Z" fill="#0696DB"/>
<path d="M160.31 194.067C160.31 195.352 161.353 196.393 162.641 196.393H257.341C259.297 196.393 260.884 194.81 260.884 192.858L262.374 191.13L164.045 190.29C161.973 190.318 160.31 192 160.31 194.067Z" fill="#0696DB"/>
<path d="M39.5987 147.84C39.4232 147.84 39.2576 147.735 39.191 147.561L38.7764 146.484C36.0647 139.452 32.9907 131.484 31.5443 127.795C31.1933 126.901 31.3079 125.893 31.85 125.099C32.3934 124.305 33.2922 123.83 34.256 123.83H46.1854C46.426 123.83 46.6227 124.025 46.6227 124.267C46.6227 124.508 46.4274 124.703 46.1854 124.703H34.256C33.571 124.703 32.9567 125.027 32.5718 125.59C32.1868 126.154 32.109 126.842 32.3581 127.476C33.8059 131.167 36.8799 139.137 39.5916 146.171L40.0063 147.247C40.0926 147.472 39.9808 147.725 39.7557 147.811C39.7034 147.831 39.651 147.84 39.5987 147.84Z" fill="#BDD0FB"/>
<path d="M44.4215 160.287C44.263 160.287 44.1116 160.201 44.0352 160.05C43.9856 159.954 43.7365 159.338 41.3758 153.225C41.2895 153.001 41.4013 152.748 41.6263 152.662C41.85 152.576 42.1047 152.687 42.191 152.912C42.8109 154.518 44.7003 159.408 44.8178 159.664C44.9183 159.88 44.8277 160.14 44.6126 160.243C44.5517 160.273 44.4866 160.287 44.4215 160.287Z" fill="#BDD0FB"/>
<path d="M280.771 148.483C280.734 148.483 280.699 148.476 280.663 148.462C280.513 148.403 280.441 148.233 280.501 148.083L290.613 122.841C290.958 121.98 290.868 121.039 290.364 120.259C289.861 119.479 289.041 119.008 288.112 118.964L269.776 118.104C269.614 118.096 269.491 117.959 269.498 117.8C269.505 117.639 269.644 117.514 269.803 117.523L288.139 118.383C289.259 118.436 290.246 119.005 290.854 119.944C291.459 120.884 291.568 122.019 291.154 123.056L281.041 148.298C280.996 148.414 280.886 148.483 280.771 148.483Z" fill="#91B3FA"/>
<path d="M262.364 117.757C262.359 117.757 262.354 117.757 262.35 117.757L258.643 117.584C258.482 117.577 258.358 117.44 258.366 117.28C258.373 117.12 258.508 116.996 258.67 117.003L262.376 117.177C262.538 117.184 262.661 117.321 262.654 117.481C262.648 117.636 262.519 117.757 262.364 117.757Z" fill="#91B3FA"/>
<path d="M215.493 185.025L215.424 184.455V184.45C215.414 184.368 215.472 184.294 215.554 184.283C215.636 184.273 215.71 184.331 215.721 184.413V184.414L215.785 185.001C215.793 185.08 215.735 185.152 215.656 185.16C215.577 185.169 215.506 185.112 215.496 185.033L215.493 185.025Z" fill="#7D97F4"/>
<path d="M214.856 181.622L214.709 181.062L214.708 181.06C214.684 180.968 214.739 180.874 214.83 180.85C214.921 180.826 215.015 180.882 215.039 180.972V180.973L215.18 181.541C215.203 181.63 215.148 181.722 215.059 181.743C214.97 181.766 214.879 181.712 214.856 181.623V181.622Z" fill="#7D97F4"/>
<path d="M213.818 178.312L213.608 177.774L213.607 177.771C213.568 177.672 213.618 177.56 213.717 177.522C213.816 177.484 213.928 177.534 213.966 177.633C213.966 177.633 213.968 177.634 213.968 177.635L214.173 178.183C214.21 178.281 214.16 178.39 214.061 178.426C213.963 178.463 213.856 178.414 213.819 178.318L213.818 178.312Z" fill="#7D97F4"/>
<path d="M212.404 175.148L212.131 174.639L212.128 174.635C212.072 174.53 212.111 174.4 212.216 174.345C212.321 174.289 212.451 174.328 212.506 174.433C212.506 174.433 212.508 174.434 212.508 174.436L212.778 174.956C212.832 175.059 212.791 175.186 212.689 175.24C212.587 175.293 212.461 175.254 212.406 175.152L212.404 175.148Z" fill="#7D97F4"/>
<path d="M210.601 172.198L210.261 171.733L210.258 171.729C210.182 171.625 210.204 171.476 210.309 171.4C210.414 171.324 210.562 171.346 210.639 171.451C210.639 171.451 210.64 171.452 210.64 171.454L210.981 171.933C211.056 172.037 211.031 172.183 210.926 172.256C210.823 172.33 210.678 172.306 210.603 172.204L210.601 172.198Z" fill="#7D97F4"/>
<path d="M208.391 169.547L207.983 169.141L207.979 169.137C207.878 169.037 207.878 168.873 207.979 168.773C208.079 168.672 208.242 168.672 208.344 168.773C208.344 168.773 208.345 168.774 208.347 168.775L208.759 169.196C208.856 169.297 208.855 169.458 208.754 169.555C208.655 169.653 208.495 169.651 208.398 169.554L208.391 169.547Z" fill="#7D97F4"/>
<path d="M205.789 167.289L205.32 166.957L205.313 166.953C205.187 166.864 205.158 166.69 205.247 166.565C205.336 166.439 205.51 166.409 205.636 166.498L205.639 166.5L206.116 166.846C206.239 166.935 206.266 167.107 206.177 167.23C206.087 167.352 205.918 167.38 205.794 167.292L205.789 167.289Z" fill="#7D97F4"/>
<path d="M202.846 165.507L202.328 165.259L202.321 165.255C202.171 165.183 202.107 165.004 202.179 164.854C202.251 164.704 202.431 164.641 202.581 164.713L202.584 164.714L203.113 164.975C203.26 165.048 203.321 165.227 203.248 165.374C203.176 165.519 202.999 165.58 202.853 165.511L202.846 165.507Z" fill="#7D97F4"/>
<path d="M199.646 164.24L199.095 164.078L199.087 164.076C198.915 164.026 198.818 163.847 198.867 163.676C198.917 163.505 199.097 163.407 199.268 163.457C199.269 163.457 199.271 163.458 199.272 163.458L199.837 163.631C200.005 163.683 200.1 163.861 200.049 164.029C199.998 164.196 199.821 164.29 199.654 164.241L199.646 164.24Z" fill="#7D97F4"/>
<path d="M196.287 163.467L195.719 163.383L195.711 163.382C195.529 163.355 195.401 163.186 195.428 163.002C195.455 162.82 195.625 162.693 195.809 162.72H195.812L196.395 162.809C196.578 162.837 196.702 163.006 196.674 163.187C196.646 163.368 196.477 163.492 196.296 163.465L196.287 163.467Z" fill="#7D97F4"/>
<path d="M192.851 163.148L192.275 163.133H192.269C192.077 163.129 191.926 162.97 191.93 162.779C191.934 162.587 192.094 162.436 192.285 162.44H192.288L192.877 162.458C193.068 162.464 193.218 162.624 193.212 162.814C193.206 163.003 193.048 163.153 192.858 163.149L192.851 163.148Z" fill="#7D97F4"/>
<path d="M189.392 163.217L188.816 163.262H188.81C188.612 163.278 188.44 163.129 188.424 162.931C188.408 162.734 188.557 162.561 188.755 162.546H188.758L189.345 162.505C189.542 162.491 189.713 162.639 189.727 162.835C189.742 163.032 189.594 163.201 189.399 163.217H189.392Z" fill="#7D97F4"/>
<path d="M185.952 163.611L185.382 163.704L185.378 163.706C185.175 163.738 184.984 163.601 184.95 163.399C184.918 163.197 185.055 163.006 185.257 162.972H185.26L185.84 162.882C186.043 162.851 186.231 162.988 186.263 163.19C186.295 163.391 186.159 163.578 185.958 163.611H185.952Z" fill="#7D97F4"/>
<path d="M182.546 164.272L181.983 164.405L181.979 164.406C181.772 164.454 181.566 164.327 181.516 164.121C181.468 163.915 181.595 163.708 181.802 163.659H181.805L182.377 163.528C182.582 163.481 182.787 163.609 182.835 163.814C182.882 164.019 182.754 164.223 182.551 164.271L182.546 164.272Z" fill="#7D97F4"/>
<path d="M179.188 165.155L178.633 165.32L178.631 165.322C178.421 165.384 178.2 165.265 178.137 165.056C178.074 164.847 178.193 164.627 178.403 164.563L178.406 164.562L178.969 164.398C179.178 164.337 179.396 164.457 179.459 164.665C179.519 164.872 179.401 165.09 179.194 165.152L179.188 165.155Z" fill="#7D97F4"/>
<path d="M175.882 166.221L175.336 166.415L175.333 166.416C175.121 166.491 174.887 166.381 174.811 166.168C174.736 165.956 174.846 165.723 175.06 165.646L175.063 165.645L175.616 165.453C175.828 165.379 176.06 165.491 176.134 165.703C176.207 165.913 176.096 166.144 175.886 166.219L175.882 166.221Z" fill="#7D97F4"/>
<path d="M172.625 167.443L172.087 167.659L172.085 167.661C171.87 167.748 171.623 167.644 171.537 167.429C171.449 167.214 171.554 166.969 171.769 166.883L171.772 166.881L172.317 166.666C172.532 166.582 172.775 166.686 172.86 166.901C172.945 167.114 172.84 167.356 172.628 167.442L172.625 167.443Z" fill="#7D97F4"/>
<path d="M169.421 168.795L168.892 169.033L168.889 169.034C168.671 169.131 168.415 169.034 168.317 168.816C168.22 168.599 168.317 168.343 168.535 168.246L168.538 168.244L169.073 168.01C169.291 167.914 169.546 168.013 169.64 168.23C169.735 168.446 169.638 168.699 169.423 168.795H169.421Z" fill="#7D97F4"/>
<path d="M166.243 170.247L165.706 170.483C165.483 170.582 165.221 170.48 165.122 170.257C165.023 170.034 165.125 169.773 165.348 169.674L165.35 169.672L165.354 169.671L165.885 169.441L165.889 169.439C166.113 169.342 166.373 169.445 166.471 169.668C166.567 169.89 166.465 170.15 166.243 170.247Z" fill="#7D97F4"/>
<path d="M162.994 171.592L162.448 171.801C162.217 171.89 161.958 171.774 161.869 171.544C161.78 171.314 161.896 171.055 162.126 170.966H162.128L162.131 170.965L162.671 170.759L162.674 170.757C162.905 170.67 163.164 170.784 163.252 171.014C163.339 171.247 163.225 171.505 162.994 171.592Z" fill="#7D97F4"/>
<path d="M159.695 172.797L159.142 172.986C158.907 173.067 158.651 172.941 158.57 172.707C158.49 172.472 158.616 172.217 158.851 172.136H158.852L158.855 172.135L159.404 171.948L159.407 171.947C159.642 171.866 159.898 171.992 159.977 172.228C160.055 172.462 159.93 172.717 159.695 172.797Z" fill="#7D97F4"/>
<path d="M156.36 173.886L155.801 174.059C155.561 174.132 155.308 173.998 155.233 173.759C155.159 173.52 155.294 173.268 155.533 173.193H155.534H155.536L156.091 173.023H156.092C156.331 172.95 156.585 173.084 156.658 173.323C156.732 173.56 156.599 173.813 156.36 173.886Z" fill="#7D97F4"/>
<path d="M152.996 174.879L152.432 175.036C152.189 175.104 151.937 174.963 151.871 174.72C151.803 174.477 151.944 174.227 152.188 174.159H152.189H152.19L152.749 174.004H152.751C152.993 173.936 153.245 174.078 153.313 174.32C153.379 174.561 153.238 174.812 152.996 174.879Z" fill="#7D97F4"/>
<path d="M149.609 175.788L149.043 175.932C148.797 175.994 148.548 175.846 148.484 175.601C148.422 175.355 148.57 175.107 148.815 175.043H148.817H148.818L149.381 174.901H149.383C149.629 174.838 149.878 174.987 149.94 175.232C150.003 175.477 149.855 175.725 149.609 175.788Z" fill="#7D97F4"/>
<path d="M146.203 176.622L145.634 176.755C145.385 176.813 145.138 176.659 145.08 176.411C145.022 176.162 145.176 175.915 145.425 175.857H145.426H145.428L145.994 175.727H145.995C146.244 175.669 146.492 175.824 146.549 176.072C146.607 176.317 146.452 176.565 146.203 176.622Z" fill="#7D97F4"/>
<path d="M142.785 177.388L142.213 177.51C141.961 177.563 141.715 177.404 141.661 177.152C141.607 176.901 141.767 176.655 142.019 176.601H142.022L142.591 176.481C142.841 176.428 143.089 176.587 143.143 176.837C143.196 177.089 143.036 177.334 142.785 177.388Z" fill="#7D97F4"/>
<path d="M139.352 178.093L138.779 178.205C138.525 178.254 138.279 178.089 138.229 177.836C138.18 177.583 138.346 177.337 138.599 177.288H138.6L139.171 177.178C139.424 177.128 139.67 177.293 139.72 177.546C139.771 177.798 139.605 178.044 139.352 178.093Z" fill="#7D97F4"/>
<path d="M135.908 178.739L135.334 178.84C135.078 178.885 134.833 178.716 134.788 178.46C134.742 178.205 134.912 177.96 135.168 177.915H135.17L135.743 177.815C135.999 177.77 136.244 177.939 136.289 178.195C136.334 178.449 136.165 178.693 135.908 178.739Z" fill="#7D97F4"/>
<path d="M132.456 179.33L131.88 179.424C131.621 179.466 131.377 179.291 131.336 179.032C131.294 178.774 131.469 178.531 131.728 178.49H131.73L132.304 178.398C132.562 178.356 132.805 178.531 132.848 178.788C132.889 179.045 132.713 179.288 132.456 179.33Z" fill="#7D97F4"/>
<path d="M128.955 179.876L128.378 179.961C128.117 179.999 127.875 179.819 127.837 179.559C127.799 179.299 127.979 179.058 128.239 179.018H128.241L128.817 178.935C129.077 178.897 129.319 179.076 129.357 179.336C129.395 179.595 129.216 179.836 128.955 179.876Z" fill="#7D97F4"/>
<path d="M125.423 180.372L124.844 180.448C124.581 180.483 124.34 180.298 124.305 180.035C124.27 179.773 124.455 179.532 124.718 179.497H124.72L125.296 179.422C125.558 179.387 125.8 179.572 125.835 179.833C125.87 180.096 125.685 180.338 125.423 180.372Z" fill="#7D97F4"/>
<path d="M121.859 180.821L121.279 180.889C121.014 180.92 120.774 180.73 120.743 180.466C120.711 180.202 120.901 179.962 121.166 179.931H121.167L121.745 179.864C122.009 179.833 122.248 180.021 122.281 180.285C122.314 180.551 122.124 180.79 121.859 180.821Z" fill="#7D97F4"/>
<path d="M118.379 181.211L117.799 181.271C117.532 181.3 117.294 181.106 117.265 180.839C117.237 180.572 117.431 180.335 117.699 180.307H117.7L118.279 180.247C118.545 180.219 118.784 180.413 118.812 180.678C118.839 180.945 118.645 181.184 118.379 181.211Z" fill="#7D97F4"/>
<path d="M114.893 181.554L114.311 181.606C114.042 181.63 113.804 181.432 113.78 181.164C113.756 180.896 113.954 180.658 114.223 180.634H114.225L114.804 180.583C115.072 180.559 115.31 180.756 115.334 181.024C115.358 181.293 115.16 181.53 114.893 181.554Z" fill="#7D97F4"/>
<path d="M111.403 181.851L110.821 181.896C110.551 181.917 110.315 181.715 110.294 181.444C110.272 181.174 110.475 180.938 110.746 180.917H110.748L111.328 180.873C111.598 180.852 111.835 181.054 111.856 181.324C111.876 181.593 111.673 181.829 111.403 181.851Z" fill="#7D97F4"/>
<path d="M107.909 182.101L107.326 182.137C107.053 182.154 106.818 181.948 106.801 181.677C106.784 181.406 106.99 181.17 107.262 181.153H107.264L107.844 181.116C108.116 181.099 108.351 181.305 108.369 181.577C108.387 181.849 108.181 182.084 107.909 182.101Z" fill="#7D97F4"/>
<path d="M104.412 182.304L103.829 182.334C103.554 182.348 103.32 182.137 103.306 181.863C103.292 181.589 103.503 181.356 103.778 181.342H103.779L104.359 181.314C104.634 181.3 104.867 181.51 104.882 181.784C104.897 182.057 104.686 182.29 104.412 182.304Z" fill="#7D97F4"/>
<path d="M100.912 182.461L100.329 182.482C100.053 182.492 99.8208 182.277 99.8109 182.002C99.801 181.726 100.016 181.495 100.292 181.485H100.293L100.875 181.465C101.151 181.455 101.383 181.67 101.393 181.945C101.404 182.219 101.188 182.451 100.912 182.461Z" fill="#7D97F4"/>
<path d="M97.4101 182.567L96.827 182.579C96.5524 182.585 96.3246 182.368 96.3175 182.094C96.3118 181.819 96.5298 181.592 96.8058 181.585L97.3874 181.571C97.6634 181.564 97.8913 181.781 97.8984 182.055C97.9054 182.331 97.6875 182.558 97.4129 182.565L97.4101 182.567Z" fill="#7D97F4"/>
<path d="M93.9074 182.62L93.3228 182.625C93.0497 182.626 92.8261 182.407 92.8232 182.134C92.8218 181.862 93.0412 181.639 93.3158 181.636L93.8975 181.63C94.1706 181.627 94.3956 181.846 94.3985 182.119C94.4013 182.392 94.1819 182.616 93.9088 182.619L93.9074 182.62Z" fill="#7D97F4"/>
<path d="M90.4043 182.626L89.8198 182.622C89.548 182.62 89.3287 182.399 89.3301 182.127C89.3315 181.856 89.5537 181.637 89.8269 181.639L90.4085 181.641C90.6803 181.643 90.9011 181.863 90.8996 182.135C90.8982 182.406 90.6774 182.626 90.4057 182.625L90.4043 182.626Z" fill="#7D97F4"/>
<path d="M86.9019 182.581L86.3174 182.568C86.0471 182.563 85.832 182.339 85.839 182.07C85.8447 181.8 86.0697 181.585 86.34 181.592L86.9217 181.603C87.1921 181.608 87.4086 181.831 87.4029 182.101C87.3987 182.37 87.1751 182.587 86.9047 182.581H86.9019Z" fill="#7D97F4"/>
<path d="M83.3986 182.482L82.8155 182.461C82.5466 182.451 82.3371 182.225 82.347 181.957C82.3569 181.688 82.5834 181.479 82.8523 181.489L83.434 181.51C83.7029 181.519 83.9137 181.743 83.9052 182.012C83.8968 182.28 83.6717 182.49 83.4028 182.482H83.3986Z" fill="#7D97F4"/>
<path d="M79.8974 182.329L79.3143 182.298C79.0468 182.284 78.843 182.057 78.8571 181.79C78.8713 181.523 79.0992 181.319 79.3666 181.334L79.9469 181.363C80.2144 181.376 80.4196 181.603 80.4069 181.87C80.3941 182.137 80.1663 182.342 79.8988 182.329H79.8974Z" fill="#7D97F4"/>
<path d="M76.4002 182.119L75.8171 182.078C75.5525 182.06 75.3529 181.829 75.3713 181.565C75.3897 181.301 75.6204 181.102 75.885 181.12L76.4653 181.16C76.7314 181.177 76.9324 181.406 76.914 181.671C76.897 181.937 76.6677 182.137 76.4016 182.119H76.4002Z" fill="#7D97F4"/>
<path d="M72.9057 181.851L72.324 181.8C72.0607 181.777 71.8668 181.545 71.8895 181.283C71.9121 181.02 72.1457 180.826 72.4089 180.849L72.9878 180.898C73.251 180.92 73.4477 181.151 73.4251 181.414C73.4038 181.677 73.1717 181.873 72.9085 181.851H72.9057Z" fill="#7D97F4"/>
<path d="M69.4164 181.517L68.8347 181.455C68.5743 181.427 68.3846 181.194 68.413 180.932C68.4413 180.672 68.6748 180.483 68.9366 180.511H68.938L69.5155 180.572H69.5169C69.7787 180.599 69.9683 180.834 69.94 181.093C69.9132 181.356 69.6796 181.545 69.4164 181.517Z" fill="#7D97F4"/>
<path d="M65.9325 181.119L65.3522 181.045C65.0932 181.013 64.9107 180.777 64.9432 180.518C64.9758 180.26 65.2121 180.078 65.4711 180.11H65.4725L66.05 180.182H66.0514C66.3104 180.215 66.4944 180.451 66.4618 180.709C66.4293 180.968 66.1929 181.151 65.9325 181.119Z" fill="#7D97F4"/>
<path d="M62.4588 180.651L61.88 180.566C61.6238 180.528 61.4455 180.291 61.4837 180.034C61.5219 179.778 61.7597 179.6 62.0172 179.638H62.0187L62.5933 179.722H62.5947C62.8523 179.76 63.0292 179.997 62.9924 180.254C62.9556 180.51 62.7164 180.688 62.4588 180.651Z" fill="#7D97F4"/>
<path d="M58.9949 180.107L58.4189 180.009C58.1642 179.965 57.9943 179.725 58.0368 179.47C58.0806 179.216 58.3212 179.047 58.576 179.089H58.5774L59.1506 179.185H59.152C59.4068 179.227 59.578 179.469 59.5341 179.723C59.4903 179.979 59.2497 180.15 58.9949 180.107Z" fill="#7D97F4"/>
<path d="M55.5433 179.483L54.9701 179.371C54.7182 179.322 54.554 179.079 54.6035 178.828C54.6531 178.576 54.8965 178.414 55.1484 178.462H55.1498L55.7202 178.572H55.7216C55.9735 178.621 56.1377 178.864 56.0896 179.116C56.0401 179.369 55.7952 179.532 55.5433 179.483Z" fill="#7D97F4"/>
<path d="M52.1068 178.774L51.5365 178.647C51.2874 178.592 51.1317 178.346 51.1869 178.097C51.2421 177.849 51.4884 177.693 51.7374 177.748H51.7389L52.3064 177.874H52.3078C52.5569 177.929 52.714 178.175 52.6588 178.424C52.6036 178.672 52.3573 178.829 52.1068 178.774Z" fill="#7D97F4"/>
<path d="M48.6922 177.97L48.1247 177.826C47.8798 177.764 47.7312 177.515 47.7935 177.271C47.8558 177.027 48.1048 176.878 48.3497 176.94H48.3511L48.9144 177.082H48.9172C49.1635 177.144 49.3121 177.392 49.2498 177.637C49.1875 177.884 48.9385 178.032 48.6922 177.97Z" fill="#7D97F4"/>
<path d="M45.3006 177.066L44.7387 176.905C44.4967 176.836 44.3566 176.584 44.4259 176.343C44.4953 176.101 44.7472 175.963 44.9892 176.032H44.9906L45.5483 176.19L45.5511 176.192C45.7931 176.261 45.9332 176.512 45.8639 176.754C45.7945 176.995 45.5426 177.135 45.3006 177.066Z" fill="#7D97F4"/>
<path d="M41.9382 176.052L41.382 175.871C41.1442 175.793 41.014 175.539 41.0919 175.302C41.1697 175.064 41.4245 174.934 41.6622 175.012H41.6637L42.2156 175.19L42.2184 175.192C42.4562 175.268 42.5878 175.523 42.51 175.761C42.4336 175.998 42.1774 176.128 41.9382 176.052Z" fill="#7D97F4"/>
<path d="M38.6148 174.916L38.0657 174.714C37.8322 174.628 37.7133 174.371 37.7996 174.138C37.886 173.905 38.1435 173.786 38.3771 173.872L38.3799 173.874L38.9248 174.073L38.9276 174.074C39.1611 174.159 39.2814 174.417 39.1951 174.65C39.1074 174.882 38.8484 175.001 38.6148 174.916Z" fill="#7D97F4"/>
<path d="M35.3372 173.648L34.7965 173.423C34.5687 173.328 34.4611 173.067 34.5559 172.84C34.6508 172.612 34.9126 172.505 35.1405 172.599L35.1433 172.601L35.6783 172.823L35.6811 172.824C35.909 172.919 36.0179 173.18 35.9231 173.407C35.8283 173.635 35.5665 173.742 35.3372 173.648Z" fill="#7D97F4"/>
<path d="M32.1192 172.231L31.5899 171.979C31.3705 171.875 31.2771 171.612 31.3818 171.393C31.4866 171.174 31.7498 171.081 31.9692 171.185H31.9706L32.4942 171.431L32.4971 171.433C32.7179 171.537 32.8127 171.8 32.7094 172.02C32.6046 172.241 32.3414 172.335 32.1206 172.232L32.1192 172.231Z" fill="#7D97F4"/>
<path d="M28.9771 170.65L28.4619 170.37C28.2525 170.256 28.1746 169.995 28.2893 169.785C28.4039 169.576 28.6657 169.499 28.8752 169.613L28.8766 169.615L29.3861 169.889L29.3904 169.89C29.6012 170.003 29.6805 170.266 29.5659 170.476C29.4526 170.687 29.1894 170.766 28.9785 170.651L28.9771 170.65Z" fill="#7D97F4"/>
<path d="M25.9283 168.89L25.4315 168.578C25.2334 168.453 25.174 168.192 25.2985 167.994C25.423 167.796 25.6849 167.737 25.883 167.861L25.8859 167.863L26.377 168.167L26.3812 168.169C26.5808 168.294 26.6416 168.555 26.5185 168.754C26.3939 168.953 26.1321 169.014 25.9326 168.891L25.9283 168.89Z" fill="#7D97F4"/>
<path d="M22.9988 166.935L22.5247 166.589C22.3393 166.454 22.2996 166.195 22.4341 166.01C22.5685 165.824 22.829 165.785 23.0144 165.919L23.0172 165.921L23.4856 166.258L23.4899 166.261C23.6767 166.395 23.7177 166.655 23.5833 166.842C23.4488 167.028 23.1884 167.069 23.0016 166.935H22.9988Z" fill="#7D97F4"/>
<path d="M20.2182 164.768L19.7724 164.385C19.6025 164.24 19.5827 163.982 19.7285 163.813C19.8743 163.643 20.1318 163.624 20.3017 163.769L20.3045 163.772L20.7432 164.145L20.7475 164.149C20.9187 164.295 20.94 164.552 20.7942 164.723C20.6484 164.894 20.3908 164.915 20.2196 164.769L20.2182 164.768Z" fill="#7D97F4"/>
<path d="M17.6255 162.376L17.2151 161.955C17.0622 161.799 17.0651 161.547 17.2236 161.395C17.3807 161.242 17.6326 161.245 17.7855 161.403L17.7883 161.406L18.1916 161.817L18.1959 161.821C18.3501 161.978 18.3487 162.231 18.1902 162.385C18.0331 162.539 17.7798 162.537 17.6255 162.379V162.376Z" fill="#7D97F4"/>
<path d="M15.2673 159.749L14.9008 159.288C14.7677 159.12 14.7946 158.876 14.9631 158.743C15.1315 158.61 15.3763 158.637 15.5094 158.805L15.5122 158.809L15.8731 159.257L15.8773 159.263C16.0118 159.431 15.9849 159.675 15.8179 159.811C15.6495 159.945 15.4032 159.92 15.2688 159.752L15.2673 159.749Z" fill="#7D97F4"/>
<path d="M13.1922 156.891L12.8781 156.394C12.7662 156.216 12.8186 155.981 12.9969 155.87C13.1753 155.758 13.4102 155.81 13.522 155.988L13.5248 155.993L13.8348 156.477L13.839 156.483C13.9522 156.661 13.8999 156.895 13.723 157.01C13.5446 157.123 13.3097 157.07 13.1951 156.894L13.1922 156.891Z" fill="#7D97F4"/>
<path d="M11.4489 153.819L11.1941 153.288C11.105 153.102 11.1828 152.881 11.3682 152.792C11.5536 152.703 11.7758 152.78 11.865 152.965L11.8678 152.97L12.1197 153.485L12.1226 153.492C12.2132 153.677 12.1353 153.901 11.9499 153.991C11.7645 154.081 11.5409 154.004 11.4517 153.819H11.4489Z" fill="#7D97F4"/>
<path d="M10.0742 150.565L9.88309 150.009C9.81799 149.82 9.91847 149.613 10.1095 149.548C10.2992 149.483 10.5058 149.585 10.5709 149.774L10.5723 149.78L10.762 150.322L10.7648 150.33C10.8313 150.519 10.7308 150.726 10.5398 150.793C10.3501 150.859 10.1421 150.759 10.0756 150.568L10.0742 150.565Z" fill="#7D97F4"/>
<path d="M9.092 147.174L8.96604 146.599C8.92499 146.408 9.04529 146.219 9.23636 146.178C9.42742 146.137 9.61707 146.257 9.65811 146.448L9.65952 146.452L9.78407 147.013L9.78549 147.02C9.82794 147.212 9.70764 147.401 9.51517 147.444C9.32269 147.486 9.13304 147.366 9.09058 147.174H9.092Z" fill="#7D97F4"/>
<path d="M8.50221 143.697L8.44135 143.112C8.42154 142.923 8.55882 142.754 8.74988 142.734C8.93953 142.714 9.10937 142.851 9.12918 143.042V143.046L9.19145 143.618V143.624C9.21268 143.815 9.0754 143.985 8.88434 144.007C8.69328 144.028 8.52202 143.891 8.50079 143.7L8.50221 143.697Z" fill="#7D97F4"/>
<path d="M8.2856 140.181L8.28418 139.595C8.28418 139.409 8.4342 139.257 8.61961 139.257C8.80642 139.257 8.95786 139.407 8.95786 139.592V139.596L8.9621 140.173V140.178C8.96352 140.365 8.8135 140.517 8.62668 140.519C8.43986 140.52 8.28701 140.371 8.2856 140.184V140.181Z" fill="#7D97F4"/>
<path d="M8.40888 136.664L8.45983 136.08C8.4754 135.9 8.63532 135.767 8.81506 135.782C8.99622 135.798 9.12926 135.958 9.11369 136.137V136.14L9.06557 136.715V136.719C9.05 136.9 8.89149 137.035 8.70892 137.02C8.52776 137.004 8.3919 136.846 8.40747 136.665L8.40888 136.664Z" fill="#7D97F4"/>
<path d="M8.83771 133.175L8.93678 132.597C8.9665 132.425 9.13068 132.309 9.30334 132.338C9.47459 132.368 9.59064 132.529 9.56234 132.702V132.706L9.47034 133.276V133.281C9.44204 133.454 9.27787 133.573 9.10379 133.545C8.92971 133.517 8.81082 133.353 8.83913 133.179L8.83771 133.175Z" fill="#7D97F4"/>
<path d="M9.53535 129.734L9.67405 129.166C9.71367 129.005 9.87643 128.906 10.0392 128.945C10.2005 128.985 10.2996 129.146 10.2614 129.307L10.26 129.31L10.1269 129.872L10.1255 129.875C10.0873 130.039 9.92314 130.139 9.75896 130.101C9.59479 130.063 9.49431 129.899 9.53252 129.735L9.53535 129.734Z" fill="#7D97F4"/>
<path d="M10.4592 126.35L10.6333 125.792C10.68 125.641 10.8413 125.558 10.9914 125.605C11.1414 125.651 11.2263 125.809 11.181 125.961L11.1796 125.963L11.0126 126.517L11.0112 126.52C10.9645 126.672 10.8031 126.759 10.6503 126.713C10.4974 126.667 10.4111 126.506 10.4564 126.355L10.4592 126.35Z" fill="#7D97F4"/>
<path d="M11.5805 123.029L11.7843 122.483C11.8367 122.343 11.9924 122.271 12.1325 122.323C12.2726 122.375 12.3433 122.529 12.2924 122.669L12.291 122.672L12.0943 123.217L12.0928 123.22C12.0419 123.361 11.8848 123.435 11.7419 123.384C11.6003 123.333 11.5267 123.176 11.5777 123.034L11.5805 123.029Z" fill="#7D97F4"/>
<path d="M12.8702 119.772L13.0994 119.235C13.1546 119.105 13.3047 119.046 13.4349 119.101C13.5637 119.156 13.6245 119.304 13.5707 119.434L13.5693 119.436L13.3457 119.971V119.972C13.2905 120.104 13.1391 120.166 13.0075 120.111C12.8758 120.056 12.8136 119.905 12.8688 119.773L12.8702 119.772Z" fill="#7D97F4"/>
<path d="M14.3049 116.579L14.5569 116.054C14.6135 115.934 14.7578 115.884 14.8767 115.941C14.9956 115.997 15.0465 116.14 14.9913 116.259L14.9899 116.26L14.7437 116.786L14.7423 116.787C14.6856 116.908 14.5413 116.961 14.4196 116.904C14.2979 116.848 14.2455 116.704 14.3021 116.582L14.3049 116.579Z" fill="#7D97F4"/>
<path d="M15.8657 113.448L16.1374 112.932C16.1954 112.822 16.3313 112.779 16.4417 112.837C16.5507 112.895 16.5931 113.031 16.5365 113.14L16.2704 113.655C16.2138 113.767 16.0765 113.812 15.9647 113.756C15.8529 113.699 15.8076 113.562 15.8643 113.45L15.8657 113.448Z" fill="#7D97F4"/>
<path d="M17.5377 110.374L17.8264 109.868C17.883 109.768 18.0118 109.732 18.1123 109.789C18.2128 109.845 18.2468 109.973 18.1916 110.073L17.9085 110.58C17.8519 110.683 17.7231 110.72 17.6198 110.663C17.5165 110.607 17.4797 110.478 17.5363 110.375L17.5377 110.374Z" fill="#7D97F4"/>
<path d="M19.3065 107.356L19.6094 106.859C19.6646 106.767 19.7849 106.739 19.8755 106.794C19.966 106.849 19.9958 106.968 19.9406 107.06L19.6419 107.558C19.5867 107.652 19.4664 107.683 19.373 107.628C19.2796 107.573 19.2485 107.452 19.3037 107.359L19.3065 107.356Z" fill="#7D97F4"/>
<path d="M21.16 104.393L21.4771 103.904C21.5308 103.821 21.6412 103.798 21.7247 103.85C21.8068 103.904 21.8309 104.014 21.7785 104.096L21.4672 104.586C21.4134 104.671 21.3016 104.696 21.2166 104.643C21.1317 104.589 21.1063 104.478 21.16 104.393Z" fill="#7D97F4"/>
<path d="M23.0893 101.477L23.4176 100.995C23.4686 100.921 23.5705 100.902 23.6441 100.953C23.7177 101.004 23.7375 101.104 23.688 101.179L23.3653 101.662C23.3143 101.738 23.211 101.76 23.136 101.709C23.0596 101.658 23.0383 101.555 23.0893 101.48V101.477Z" fill="#7D97F4"/>
<path d="M25.0879 98.6095L25.4275 98.1363C25.4757 98.0699 25.5677 98.0543 25.6342 98.1024C25.7007 98.149 25.7163 98.2408 25.6696 98.3072L25.3356 98.7833C25.2874 98.8511 25.194 98.868 25.1261 98.8214C25.0582 98.7734 25.0412 98.6801 25.0879 98.6123V98.6095Z" fill="#7D97F4"/>
<path d="M57.8926 138.232L57.3463 136.581L57.3449 136.575C57.301 136.444 57.3732 136.301 57.5048 136.258C57.6364 136.215 57.7794 136.287 57.8218 136.418L58.3681 138.082C58.4106 138.212 58.3398 138.353 58.2096 138.396C58.0794 138.438 57.9379 138.368 57.8954 138.238L57.8926 138.232Z" fill="url(#paint17_linear_72_16711)"/>
<path d="M56.1787 133.296L55.5885 131.653C55.5404 131.519 55.6097 131.372 55.7442 131.324C55.8786 131.276 56.0258 131.345 56.0754 131.48V131.481L56.6613 133.124C56.7094 133.257 56.6401 133.404 56.507 133.45C56.3726 133.498 56.2254 133.429 56.1787 133.296Z" fill="url(#paint18_linear_72_16711)"/>
<path d="M54.4393 128.352L53.8959 126.689C53.8506 126.551 53.927 126.401 54.0657 126.356C54.2044 126.311 54.3544 126.387 54.3997 126.526L54.4011 126.53L54.9375 128.185L54.9389 128.19C54.9842 128.328 54.9078 128.475 54.7691 128.52C54.6318 128.564 54.4846 128.489 54.4393 128.352Z" fill="url(#paint19_linear_72_16711)"/>
<path d="M52.8936 123.336L52.4407 121.645C52.4025 121.499 52.4888 121.351 52.6332 121.312C52.7789 121.273 52.9275 121.36 52.9672 121.504L52.9686 121.509L53.413 123.19L53.4144 123.196C53.4526 123.34 53.3663 123.487 53.2219 123.525C53.079 123.565 52.9318 123.48 52.8936 123.336Z" fill="url(#paint20_linear_72_16711)"/>
<path d="M51.6462 118.234L51.308 116.514C51.2783 116.363 51.3774 116.216 51.5288 116.187C51.6802 116.157 51.8274 116.256 51.8571 116.407V116.408L51.8585 116.416L52.1897 118.122L52.1911 118.128C52.2209 118.277 52.1218 118.423 51.9718 118.451C51.8218 118.481 51.676 118.385 51.6462 118.234Z" fill="url(#paint21_linear_72_16711)"/>
<path d="M50.7575 113.056L50.5452 111.317C50.5254 111.161 50.6372 111.018 50.7943 111C50.9514 110.98 51.0944 111.091 51.1128 111.248V111.25L51.1142 111.257L51.3194 112.981L51.3208 112.989C51.3392 113.144 51.2288 113.285 51.0717 113.304C50.9175 113.322 50.7759 113.212 50.7575 113.056Z" fill="url(#paint22_linear_72_16711)"/>
<path d="M50.2498 107.827L50.1663 106.077C50.1592 105.916 50.2838 105.779 50.4451 105.77C50.6065 105.763 50.7437 105.887 50.7522 106.048V106.05V106.057L50.8301 107.793V107.8C50.8371 107.96 50.7126 108.097 50.5527 108.104C50.3927 108.111 50.2569 107.986 50.2498 107.827Z" fill="url(#paint23_linear_72_16711)"/>
<path d="M50.1251 102.573L50.1661 100.822C50.1704 100.656 50.3077 100.525 50.4733 100.529C50.6389 100.533 50.7705 100.67 50.7662 100.836V100.837V100.844L50.7209 102.582V102.589C50.7167 102.753 50.5794 102.883 50.4152 102.878C50.2511 102.874 50.1209 102.737 50.1251 102.573Z" fill="url(#paint24_linear_72_16711)"/>
<path d="M50.3695 97.3254L50.5294 95.5809C50.545 95.4128 50.695 95.2884 50.8634 95.304C51.0318 95.3195 51.1564 95.4693 51.1408 95.6374V95.6388V95.6458L50.9781 97.3763V97.3833C50.9625 97.55 50.8139 97.6729 50.6455 97.6574C50.4771 97.6404 50.3539 97.4921 50.3695 97.3254Z" fill="url(#paint25_linear_72_16711)"/>
<path d="M50.9619 92.1058L51.2308 90.3754C51.2577 90.2045 51.4176 90.0872 51.5888 90.1141C51.7601 90.1409 51.8776 90.3005 51.8507 90.4714V90.4729L51.8493 90.4785L51.5775 92.1962L51.5761 92.2019C51.5492 92.3714 51.3893 92.4872 51.2195 92.4604C51.051 92.4336 50.935 92.2754 50.9619 92.1058Z" fill="url(#paint26_linear_72_16711)"/>
<path d="M51.8704 86.9328L52.2384 85.2207C52.2752 85.047 52.4464 84.9368 52.6205 84.975C52.7946 85.0117 52.905 85.1826 52.8668 85.3564V85.3578L52.8654 85.3634L52.4946 87.0628L52.4932 87.0684C52.4564 87.2408 52.2865 87.3496 52.1139 87.3114C51.9426 87.2733 51.8336 87.1038 51.8704 86.9328Z" fill="url(#paint27_linear_72_16711)"/>
<path d="M53.0721 81.8178L53.5448 80.1297C53.5929 79.956 53.7741 79.8542 53.9496 79.9023C54.1237 79.9517 54.2255 80.1311 54.1774 80.3063V80.3077L54.176 80.3148L53.7019 81.9873L53.7005 81.9944C53.6509 82.1667 53.4712 82.267 53.2985 82.219C53.1245 82.1695 53.0226 81.9915 53.0721 81.8178Z" fill="url(#paint28_linear_72_16711)"/>
<path d="M54.6076 76.7903L55.1963 75.1389C55.2586 74.9652 55.4497 74.8748 55.6237 74.9355C55.7978 74.9977 55.8884 75.1884 55.8276 75.3621V75.3635L55.8247 75.3706L55.236 77.0064L55.2331 77.0135C55.1709 77.1858 54.9812 77.2762 54.8071 77.2141C54.6359 77.1519 54.5453 76.9626 54.6076 76.7903Z" fill="url(#paint29_linear_72_16711)"/>
<path d="M56.4885 71.8801L57.1905 70.2739C57.2655 70.1016 57.4679 70.0225 57.6405 70.0973C57.8132 70.1722 57.8925 70.3742 57.8174 70.5465V70.548L57.8146 70.555L57.114 72.1456L57.1112 72.1527C57.0362 72.3236 56.8352 72.4013 56.664 72.3264C56.4913 72.2502 56.4135 72.051 56.4885 71.8801Z" fill="url(#paint30_linear_72_16711)"/>
<path d="M58.7049 67.111L59.5159 65.5558C59.6051 65.3848 59.8159 65.3184 59.9858 65.4074C60.157 65.4964 60.2235 65.7069 60.1344 65.8764V65.8778L60.1301 65.8849L59.3234 67.4247L59.3192 67.4317C59.23 67.6012 59.0205 67.6662 58.8521 67.5772C58.6809 67.4882 58.6158 67.2791 58.7049 67.111Z" fill="url(#paint31_linear_72_16711)"/>
<path d="M61.2382 62.5017L62.1511 61.0043C62.253 60.8362 62.4723 60.7839 62.6393 60.8857C62.8078 60.9874 62.8601 61.2063 62.7582 61.373V61.3744L62.754 61.3815L61.8454 62.8633L61.8411 62.8704C61.7392 63.0371 61.5213 63.0893 61.3557 62.9876C61.1901 62.8845 61.1363 62.6684 61.2382 62.5017Z" fill="url(#paint32_linear_72_16711)"/>
<path d="M64.0757 58.0717L65.0848 56.6379C65.1995 56.4741 65.4259 56.4345 65.5901 56.5504C65.7543 56.6648 65.7939 56.8908 65.6778 57.0547V57.0561L65.6736 57.0631L64.6702 58.4814L64.6659 58.4871C64.5513 58.6495 64.3262 58.6876 64.1635 58.5732C63.9993 58.4574 63.9611 58.2342 64.0757 58.0717Z" fill="url(#paint33_linear_72_16711)"/>
<path d="M67.1964 53.8367L68.2961 52.4707C68.422 52.3139 68.6513 52.2899 68.8084 52.4156C68.9655 52.5414 68.9895 52.7702 68.8636 52.927L68.8593 52.9327L67.7682 54.2859L67.7639 54.2916C67.638 54.4484 67.4087 54.4724 67.2516 54.3467C67.0959 54.2224 67.0704 53.9935 67.1964 53.8367Z" fill="url(#paint34_linear_72_16711)"/>
<path d="M70.582 49.8094L71.7652 48.514C71.9011 48.3643 72.1332 48.3544 72.2818 48.49C72.4318 48.6256 72.4417 48.8573 72.3058 49.0056L72.3002 49.0113L71.1269 50.2939L71.1213 50.2996C70.9854 50.4479 70.7547 50.4592 70.6047 50.3236C70.4561 50.1894 70.4462 49.9591 70.582 49.8094Z" fill="url(#paint35_linear_72_16711)"/>
<path d="M74.2074 45.9981L75.4656 44.7762C75.6113 44.635 75.8435 44.6378 75.985 44.7833C76.1265 44.9288 76.1237 45.1604 75.9779 45.3017L75.9722 45.3074L74.7226 46.518L74.7169 46.5236C74.5711 46.6649 74.339 46.6606 74.1975 46.5166C74.0588 46.3711 74.0616 46.1394 74.2074 45.9981Z" fill="url(#paint36_linear_72_16711)"/>
<path d="M78.0546 42.4101L79.3821 41.2645C79.5364 41.1317 79.7699 41.1486 79.903 41.3026C80.036 41.4566 80.019 41.6897 79.8647 41.8225L79.8591 41.8267L78.5415 42.9624L78.5358 42.9667C78.3815 43.0995 78.1494 43.0825 78.0164 42.9285C77.8833 42.7746 77.9003 42.5429 78.0546 42.4101Z" fill="url(#paint37_linear_72_16711)"/>
<path d="M82.1031 39.0495L83.4943 37.9816C83.6571 37.8573 83.8892 37.8869 84.0137 38.0494C84.1383 38.2118 84.1086 38.4435 83.9458 38.5678L83.9401 38.572L82.5588 39.6315L82.5532 39.6357C82.3904 39.7601 82.1583 39.729 82.0337 39.5679C81.9106 39.4055 81.9403 39.1738 82.1031 39.0495Z" fill="url(#paint38_linear_72_16711)"/>
<path d="M86.3348 35.9248L87.7826 34.936C87.9524 34.8201 88.1845 34.8639 88.3006 35.032C88.4167 35.2015 88.3728 35.4318 88.2029 35.549L88.1973 35.5533L86.7594 36.5336L86.7537 36.5379C86.5839 36.6537 86.3532 36.6099 86.2371 36.4404C86.1225 36.2709 86.1649 36.0392 86.3348 35.9248Z" fill="url(#paint39_linear_72_16711)"/>
<path d="M90.7328 33.036L92.233 32.1277C92.4099 32.0203 92.6392 32.0768 92.7468 32.2534C92.8543 32.43 92.7977 32.6588 92.6208 32.7662L92.6151 32.769L91.1263 33.6703L91.1206 33.6731C90.9437 33.779 90.7144 33.7239 90.6083 33.5474C90.5007 33.3722 90.5573 33.1433 90.7328 33.036Z" fill="url(#paint40_linear_72_16711)"/>
<path d="M95.2814 30.3916L96.8283 29.5638C97.0109 29.4663 97.2388 29.5341 97.3364 29.7178C97.4341 29.9 97.3661 30.1274 97.1822 30.2249L97.1765 30.2277L95.6409 31.047L95.6353 31.0499C95.4527 31.1473 95.2262 31.0781 95.1286 30.8959C95.0309 30.7151 95.0989 30.4876 95.2814 30.3916Z" fill="url(#paint41_linear_72_16711)"/>
<path d="M99.9655 27.993L101.555 27.2499C101.743 27.1623 101.968 27.2429 102.056 27.4307C102.144 27.6186 102.063 27.8432 101.875 27.9308L101.869 27.9336L100.292 28.671L100.287 28.6738C100.099 28.7614 99.875 28.6809 99.7872 28.493C99.6966 28.3037 99.7773 28.0805 99.9655 27.993Z" fill="url(#paint42_linear_72_16711)"/>
<path d="M104.77 25.8472L106.397 25.1889C106.591 25.1112 106.811 25.2031 106.889 25.3966C106.967 25.5901 106.874 25.8105 106.681 25.8882L106.675 25.891L105.061 26.5436L105.055 26.5465C104.861 26.6241 104.642 26.5309 104.562 26.3388C104.483 26.1453 104.577 25.9249 104.77 25.8472Z" fill="url(#paint43_linear_72_16711)"/>
<path d="M109.683 23.96L111.343 23.3893C111.541 23.3215 111.758 23.426 111.826 23.6238C111.894 23.8215 111.789 24.0377 111.591 24.1055L111.584 24.1083L109.936 24.6733L109.929 24.6762C109.731 24.744 109.515 24.6394 109.447 24.4417C109.38 24.2425 109.485 24.0278 109.683 23.96Z" fill="url(#paint44_linear_72_16711)"/>
<path d="M114.692 22.3397L116.38 21.8608C116.583 21.8029 116.793 21.9201 116.851 22.1221C116.909 22.3241 116.792 22.5346 116.59 22.5925L116.583 22.594L114.907 23.0686L114.9 23.07C114.697 23.1279 114.486 23.0107 114.43 22.8087C114.372 22.6067 114.489 22.3962 114.692 22.3397Z" fill="url(#paint45_linear_72_16711)"/>
<path d="M119.781 20.9949L121.493 20.6106C121.7 20.564 121.905 20.694 121.95 20.9002C121.997 21.1065 121.867 21.3113 121.66 21.3565L121.653 21.3579L119.955 21.7379L119.948 21.7393C119.741 21.7859 119.537 21.656 119.49 21.4511C119.445 21.2449 119.575 21.0415 119.781 20.9949Z" fill="url(#paint46_linear_72_16711)"/>
<path d="M124.94 19.9397L126.673 19.6543C126.882 19.6204 127.08 19.7617 127.114 19.9707C127.148 20.1798 127.007 20.3776 126.797 20.4115L126.79 20.4129L125.072 20.6954L125.065 20.6968C124.855 20.7307 124.659 20.5895 124.623 20.3804C124.589 20.1699 124.731 19.9736 124.94 19.9397Z" fill="url(#paint47_linear_72_16711)"/>
<path d="M130.153 19.1853L131.899 19.0045C132.111 18.9819 132.301 19.1359 132.322 19.3478C132.345 19.5597 132.191 19.749 131.978 19.7702L131.97 19.7716L130.239 19.9496L130.231 19.951C130.018 19.9722 129.83 19.8196 129.807 19.6077C129.788 19.3958 129.94 19.2065 130.153 19.1853Z" fill="url(#paint48_linear_72_16711)"/>
<path d="M135.403 18.7502L137.158 18.6796C137.372 18.6711 137.553 18.8364 137.562 19.0511C137.57 19.2644 137.403 19.4452 137.19 19.4537H137.181L135.443 19.5229H135.435C135.221 19.5314 135.041 19.3661 135.033 19.1528C135.023 18.9381 135.19 18.7587 135.403 18.7502Z" fill="url(#paint49_linear_72_16711)"/>
<path d="M140.67 18.6556L142.427 18.7036C142.642 18.7093 142.81 18.8873 142.805 19.102C142.799 19.3167 142.621 19.4848 142.405 19.4791H142.397L140.659 19.4311H140.65C140.435 19.4255 140.267 19.2475 140.273 19.0328C140.278 18.818 140.457 18.6499 140.67 18.6556Z" fill="url(#paint50_linear_72_16711)"/>
<path d="M145.936 18.9226L147.685 19.0963C147.9 19.1175 148.056 19.3082 148.035 19.5229C148.013 19.7377 147.822 19.8931 147.607 19.8719L147.599 19.8705L145.869 19.6967L145.859 19.6953C145.646 19.6741 145.489 19.4834 145.51 19.2687C145.531 19.0568 145.722 18.9014 145.936 18.9226Z" fill="url(#paint51_linear_72_16711)"/>
<path d="M151.167 19.5554L152.901 19.838C153.114 19.8733 153.259 20.0739 153.225 20.2872C153.189 20.5005 152.988 20.6446 152.775 20.6107L152.766 20.6092L151.049 20.3281L151.041 20.3267C150.827 20.2914 150.683 20.0908 150.718 19.8775C150.752 19.6642 150.953 19.5201 151.167 19.5554Z" fill="url(#paint52_linear_72_16711)"/>
<path d="M156.348 20.5118L158.06 20.903C158.272 20.9511 158.404 21.163 158.356 21.3734C158.308 21.5853 158.095 21.7167 157.884 21.6687L157.876 21.6673L156.18 21.2788L156.172 21.2774C155.96 21.2294 155.828 21.0189 155.878 20.807C155.924 20.5951 156.135 20.4637 156.348 20.5118Z" fill="url(#paint53_linear_72_16711)"/>
<path d="M161.457 21.7987L163.139 22.3016C163.349 22.3637 163.468 22.5841 163.405 22.7932C163.343 23.0022 163.122 23.1209 162.914 23.0587L162.906 23.0559L161.24 22.5572L161.232 22.5544C161.022 22.4923 160.905 22.2719 160.967 22.0642C161.028 21.8538 161.247 21.7365 161.457 21.7987Z" fill="url(#paint54_linear_72_16711)"/>
<path d="M166.471 23.4161L168.117 24.0278C168.322 24.104 168.427 24.3315 168.351 24.5363C168.274 24.7411 168.046 24.8457 167.84 24.7694L167.831 24.7665L166.202 24.1591L166.194 24.1563C165.989 24.08 165.885 23.8526 165.962 23.6478C166.038 23.4429 166.266 23.3398 166.471 23.4161Z" fill="url(#paint55_linear_72_16711)"/>
<path d="M171.368 25.3599L172.97 26.0775C173.171 26.1679 173.26 26.4024 173.17 26.603C173.079 26.8036 172.844 26.8926 172.643 26.8021L172.635 26.7993L171.048 26.0874L171.04 26.0845C170.839 25.9941 170.75 25.7596 170.84 25.559C170.932 25.3585 171.167 25.2695 171.368 25.3599Z" fill="url(#paint56_linear_72_16711)"/>
<path d="M176.128 27.6158L177.681 28.4351C177.876 28.5383 177.951 28.7798 177.848 28.9747C177.744 29.1697 177.502 29.2446 177.307 29.1414L177.3 29.1372L175.761 28.3249L175.754 28.3207C175.559 28.2176 175.485 27.976 175.589 27.7825C175.691 27.5876 175.933 27.5127 176.128 27.6158Z" fill="url(#paint57_linear_72_16711)"/>
<path d="M180.733 30.1684L182.233 31.0809C182.423 31.1954 182.482 31.4426 182.366 31.6319C182.252 31.8212 182.004 31.8805 181.814 31.7661L181.807 31.7618L180.321 30.8563L180.314 30.8521C180.126 30.7377 180.065 30.4905 180.181 30.3026C180.299 30.1133 180.545 30.0526 180.733 30.1684Z" fill="url(#paint58_linear_72_16711)"/>
<path d="M185.177 32.9922L186.621 33.9895C186.803 34.1152 186.85 34.3667 186.723 34.5489C186.597 34.7311 186.345 34.7778 186.162 34.6506L186.157 34.6464L184.726 33.6576L184.72 33.6533C184.537 33.5276 184.492 33.2776 184.618 33.0953C184.744 32.9117 184.995 32.8651 185.177 32.9922Z" fill="url(#paint59_linear_72_16711)"/>
<path d="M189.453 36.059L190.841 37.1312C191.018 37.2682 191.051 37.521 190.913 37.6976C190.776 37.8742 190.523 37.9067 190.346 37.7697L190.34 37.7654L188.963 36.7003L188.957 36.6961C188.78 36.5605 188.749 36.3062 188.885 36.131C189.022 35.9559 189.276 35.9234 189.453 36.059Z" fill="url(#paint60_linear_72_16711)"/>
<path d="M193.561 39.3433L194.894 40.4805C195.064 40.626 195.085 40.8817 194.94 41.0512C194.794 41.2207 194.538 41.2419 194.368 41.0964L194.364 41.0921L193.04 39.962L193.036 39.9578C192.866 39.8123 192.846 39.5566 192.992 39.3871C193.137 39.2176 193.391 39.1978 193.561 39.3433Z" fill="url(#paint61_linear_72_16711)"/>
<path d="M197.511 42.8141L198.794 44.0078C198.958 44.1603 198.968 44.4174 198.813 44.5827C198.661 44.7466 198.403 44.7565 198.237 44.6025L198.233 44.5982L196.959 43.4117L196.955 43.4074C196.791 43.2549 196.783 42.9978 196.935 42.8339C197.09 42.67 197.347 42.6616 197.511 42.8141Z" fill="url(#paint62_linear_72_16711)"/>
<path d="M201.311 46.4445L202.546 47.6848C202.705 47.8444 202.705 48.1029 202.545 48.2611C202.385 48.4194 202.126 48.4194 201.966 48.2597L201.963 48.2569L200.735 47.0223L200.732 47.0195C200.573 46.8598 200.573 46.6013 200.733 46.4431C200.893 46.2835 201.151 46.2849 201.311 46.4445Z" fill="url(#paint63_linear_72_16711)"/>
<path d="M204.975 50.2077L206.17 51.4876C206.324 51.6528 206.316 51.9128 206.15 52.0667C205.984 52.2207 205.724 52.2122 205.57 52.047L205.567 52.0441L204.378 50.77L204.375 50.7671C204.221 50.6019 204.231 50.3433 204.396 50.1894C204.562 50.034 204.821 50.0425 204.975 50.2077Z" fill="url(#paint64_linear_72_16711)"/>
<path d="M208.523 54.0797L209.682 55.3906C209.832 55.5601 209.816 55.82 209.645 55.9712C209.475 56.1209 209.215 56.1054 209.063 55.9344L209.06 55.9316L207.906 54.625L207.903 54.6221C207.753 54.4526 207.768 54.1927 207.939 54.043C208.112 53.8932 208.373 53.9088 208.523 54.0797Z" fill="url(#paint65_linear_72_16711)"/>
<path d="M211.97 58.035L213.101 59.3685C213.248 59.5423 213.227 59.8022 213.053 59.9505C212.879 60.0974 212.618 60.0762 212.47 59.9025L212.468 59.9011L211.34 58.5704L211.339 58.569C211.192 58.3952 211.213 58.1353 211.387 57.9884C211.563 57.8401 211.823 57.8613 211.97 58.035Z" fill="url(#paint66_linear_72_16711)"/>
<path d="M215.343 62.0525L216.454 63.4015C216.6 63.5781 216.574 63.8395 216.397 63.9849C216.22 64.1304 215.958 64.105 215.813 63.9285L215.811 63.927L214.703 62.5794L214.702 62.578C214.556 62.4014 214.583 62.1415 214.758 61.996C214.937 61.8505 215.197 61.8759 215.343 62.0525Z" fill="url(#paint67_linear_72_16711)"/>
<path d="M218.661 66.1095L219.761 67.4671C219.905 67.645 219.879 67.9078 219.699 68.0519C219.521 68.196 219.257 68.1691 219.113 67.9897L218.015 66.6336C217.87 66.4556 217.897 66.1943 218.076 66.0502C218.254 65.9061 218.517 65.9315 218.661 66.1095Z" fill="url(#paint68_linear_72_16711)"/>
<path d="M221.958 70.1835L223.056 71.541C223.202 71.7204 223.173 71.9832 222.994 72.1273C222.814 72.2713 222.551 72.2445 222.406 72.0651L221.308 70.7076C221.164 70.5282 221.192 70.2668 221.37 70.1213C221.55 69.9758 221.813 70.0041 221.958 70.1835Z" fill="url(#paint69_linear_72_16711)"/>
<path d="M225.259 74.2462L226.367 75.5938L226.369 75.5952C226.516 75.7732 226.49 76.0374 226.311 76.1843C226.132 76.3312 225.868 76.3058 225.72 76.1264L224.611 74.7759C224.464 74.5979 224.49 74.3338 224.669 74.1868C224.849 74.0399 225.112 74.0668 225.259 74.2462Z" fill="url(#paint70_linear_72_16711)"/>
<path d="M228.605 78.2679L229.737 79.5929L229.74 79.5957C229.891 79.7723 229.87 80.0379 229.693 80.1876C229.516 80.3388 229.25 80.3176 229.1 80.141L227.965 78.8103C227.815 78.6337 227.836 78.3696 228.013 78.2184C228.19 78.0687 228.455 78.0899 228.606 78.2665L228.605 78.2679Z" fill="url(#paint71_linear_72_16711)"/>
<path d="M232.038 82.2105L233.209 83.4974L233.214 83.5016C233.371 83.6739 233.358 83.9409 233.185 84.0977C233.013 84.2545 232.745 84.2418 232.588 84.0695L231.409 82.7727C231.252 82.6003 231.266 82.3348 231.439 82.178C231.612 82.0212 231.878 82.0353 232.035 82.2062L232.038 82.2105Z" fill="url(#paint72_linear_72_16711)"/>
<path d="M235.607 86.0189L236.837 87.2465L236.842 87.2521C237.008 87.4174 237.008 87.6858 236.842 87.8511C236.677 88.0163 236.408 88.0163 236.242 87.8511L235.001 86.6108C234.836 86.4455 234.836 86.1785 235.001 86.0132C235.167 85.848 235.434 85.848 235.6 86.0132L235.607 86.0189Z" fill="url(#paint73_linear_72_16711)"/>
<path d="M239.376 89.6182L240.688 90.7526L240.698 90.761C240.876 90.915 240.894 91.1834 240.74 91.36C240.586 91.5366 240.318 91.5564 240.14 91.4024L238.81 90.2511C238.633 90.0971 238.613 89.8301 238.767 89.6536C238.921 89.477 239.189 89.4572 239.366 89.6112L239.376 89.6182Z" fill="url(#paint74_linear_72_16711)"/>
<path d="M243.412 92.8927L244.828 93.8857L244.842 93.8956C245.035 94.0312 245.082 94.2968 244.947 94.4889C244.811 94.681 244.545 94.7276 244.353 94.5934L242.908 93.5806C242.715 93.445 242.669 93.1794 242.804 92.9873C242.94 92.7952 243.206 92.7486 243.399 92.8842L243.412 92.8927Z" fill="url(#paint75_linear_72_16711)"/>
<path d="M247.781 95.6755C248.286 95.9496 248.8 96.2095 249.319 96.4553C249.533 96.557 249.625 96.8112 249.523 97.0246C249.421 97.2379 249.166 97.3297 248.952 97.228C248.419 96.9751 247.892 96.7067 247.373 96.4256C247.165 96.3126 247.089 96.0541 247.202 95.8464C247.314 95.6402 247.573 95.5625 247.781 95.6755Z" fill="url(#paint76_linear_72_16711)"/>
<path d="M252.512 97.7365C253.057 97.9159 253.606 98.0784 254.161 98.2211C254.39 98.2804 254.529 98.5135 254.47 98.7437C254.41 98.9726 254.177 99.111 253.946 99.0517C253.373 98.9033 252.804 98.7366 252.242 98.5502C252.017 98.4753 251.895 98.2338 251.969 98.0077C252.044 97.7846 252.287 97.6631 252.512 97.7365Z" fill="url(#paint77_linear_72_16711)"/>
<path d="M257.536 98.8397C258.105 98.9033 258.676 98.9457 259.249 98.9669C259.487 98.9768 259.672 99.1759 259.664 99.4132C259.655 99.6506 259.454 99.8356 259.216 99.8272C258.623 99.8046 258.032 99.7593 257.443 99.6944C257.207 99.6675 257.035 99.4556 257.062 99.2197C257.088 98.9838 257.3 98.8143 257.536 98.8397Z" fill="url(#paint78_linear_72_16711)"/>
<path d="M262.612 98.731C263.156 98.6067 263.693 98.4386 264.212 98.2295C264.434 98.1405 264.686 98.2479 264.775 98.4697C264.865 98.6915 264.757 98.9429 264.535 99.0319C263.974 99.2565 263.394 99.4387 262.803 99.5729C262.569 99.6252 262.338 99.4797 262.285 99.248C262.234 99.0149 262.379 98.7847 262.612 98.731Z" fill="url(#paint79_linear_72_16711)"/>
<path d="M267.123 96.5429C267.569 96.1968 267.995 95.8238 268.398 95.4269C268.569 95.2588 268.844 95.2602 269.012 95.4311C269.181 95.6021 269.179 95.8761 269.008 96.0442C268.581 96.4638 268.131 96.8607 267.655 97.228C267.465 97.3749 267.192 97.3396 267.047 97.1503C266.899 96.961 266.933 96.6898 267.123 96.5429Z" fill="url(#paint80_linear_72_16711)"/>
<path d="M270.549 92.798C270.861 92.3248 271.15 91.8346 271.416 91.3332C271.528 91.1213 271.793 91.0393 272.005 91.1509C272.219 91.2625 272.299 91.5267 272.188 91.7386C271.909 92.2655 271.604 92.7783 271.276 93.2755C271.143 93.4761 270.874 93.5312 270.673 93.3998C270.472 93.2684 270.416 92.9986 270.549 92.798Z" fill="url(#paint81_linear_72_16711)"/>
<path d="M272.713 88.1873C272.88 87.6448 273.021 87.0939 273.132 86.5387C273.179 86.3057 273.405 86.1545 273.639 86.2025C273.871 86.2492 274.023 86.4738 273.977 86.7054C273.864 87.2917 273.72 87.8708 273.547 88.4415C273.478 88.6718 273.234 88.8017 273.004 88.7325C272.773 88.6633 272.643 88.4203 272.712 88.1901L272.713 88.1873Z" fill="url(#paint82_linear_72_16711)"/>
<path d="M273.433 83.1583C273.427 82.5862 273.4 82.0141 273.36 81.4406C273.345 81.2132 273.516 81.0154 273.744 80.9999C273.972 80.9843 274.168 81.1538 274.185 81.3813C274.231 81.9675 274.26 82.5566 274.272 83.1484C274.276 83.3801 274.091 83.5708 273.86 83.5736C273.628 83.5779 273.437 83.3928 273.434 83.1626V83.1583H273.433Z" fill="url(#paint83_linear_72_16711)"/>
<path d="M272.974 78.0037L272.695 76.2931L272.694 76.2818C272.658 76.0656 272.806 75.8622 273.022 75.8269C273.237 75.7916 273.441 75.9371 273.478 76.1518L273.772 77.8837C273.809 78.1026 273.662 78.3103 273.442 78.347C273.223 78.3837 273.015 78.2368 272.978 78.0179V78.015L272.974 78.0037Z" fill="url(#paint84_linear_72_16711)"/>
<path d="M272.014 72.8915L271.622 71.1992L271.621 71.1921C271.576 70.9972 271.697 70.8036 271.891 70.7584C272.084 70.7146 272.276 70.8319 272.324 71.0226L272.752 72.7234C272.803 72.9254 272.679 73.1302 272.477 73.1811C272.275 73.2319 272.069 73.109 272.018 72.907C272.018 72.9056 272.017 72.9042 272.017 72.9028L272.014 72.8915Z" fill="url(#paint85_linear_72_16711)"/>
<path d="M270.73 67.84L270.229 66.1759L270.227 66.1688C270.178 66.0022 270.271 65.8284 270.438 65.7775C270.602 65.7281 270.776 65.8199 270.829 65.9824L271.364 67.6507C271.419 67.8244 271.324 68.0095 271.15 68.0646C270.976 68.1197 270.79 68.025 270.734 67.8513C270.734 67.8498 270.732 67.8484 270.732 67.847L270.73 67.84Z" fill="url(#paint86_linear_72_16711)"/>
<path d="M269.114 62.8831L268.493 61.2614L268.49 61.253C268.441 61.1244 268.506 60.9803 268.635 60.9309C268.761 60.8829 268.902 60.9436 268.954 61.0679L269.63 62.6868C269.688 62.8266 269.621 62.9877 269.481 63.0456C269.341 63.1035 269.18 63.0371 269.121 62.8972C269.12 62.8958 269.12 62.893 269.119 62.8916L269.114 62.8831Z" fill="url(#paint87_linear_72_16711)"/>
<path d="M267.054 58.1071C266.787 57.5957 266.504 57.0928 266.191 56.6097C266.141 56.5348 266.162 56.4331 266.239 56.3837C266.313 56.3357 266.412 56.3554 266.461 56.4261C266.801 56.9078 267.109 57.4078 267.401 57.9178C267.455 58.0124 267.422 58.1325 267.327 58.1862C267.232 58.2399 267.112 58.2074 267.058 58.1127C267.056 58.1113 267.054 58.1085 267.054 58.1071Z" fill="url(#paint88_linear_72_16711)"/>
<path d="M25.5391 92.3064L27.5841 96.3536L29.4509 93.2317L25.5391 92.3064Z" fill="#39B4EF"/>
<path d="M42.5993 80.8035L36.4937 95.903C36.3763 96.1925 36.147 96.4214 35.8569 96.5372C35.5667 96.6531 35.2426 96.6474 34.9568 96.5203L19.9986 89.8315C19.8274 89.7553 19.7198 89.5829 19.7269 89.395C19.734 89.2072 19.8543 89.0433 20.0298 88.9797L42.5993 80.8035Z" fill="#7FD4FD"/>
<path d="M25.541 92.3064L42.5994 80.8035L27.9527 93.3927L28.4721 94.5398L25.541 92.3064Z" fill="#39B4EF"/>
<path d="M29.3866 94.027L27.585 96.3536L27.9529 93.3927L29.3866 94.027Z" fill="#39B4EF"/>
<path d="M265.371 47.3232L261.962 52.4411L259.955 47.9363L265.371 47.3232Z" fill="#39B4EF"/>
<path d="M244.275 29.0821L250.044 50.3942C250.154 50.8024 250.426 51.1485 250.797 51.3519C251.168 51.5554 251.607 51.5991 252.01 51.4748L273.231 44.8878C273.474 44.813 273.647 44.5968 273.668 44.344C273.689 44.0911 273.555 43.851 273.327 43.7351L244.275 29.0821Z" fill="#7FD4FD"/>
<path d="M265.37 47.3232L244.275 29.0821L261.948 48.3968L261.063 49.856L265.37 47.3232Z" fill="#39B4EF"/>
<path d="M259.916 49.0183L261.963 52.4411L261.948 48.3968L259.916 49.0183Z" fill="#39B4EF"/>
<path d="M202.2 65.6C202.2 86.7985 185.015 103.983 163.817 103.983C142.618 103.983 125.434 86.7985 125.434 65.6C125.434 44.4015 142.618 27.2166 163.817 27.2166C185.015 27.2166 202.2 44.4015 202.2 65.6Z" fill="white"/>
<path d="M181.473 59.6685C181.473 49.5002 174.611 43.3376 164.973 43.3376C153.794 43.3376 146.161 52.9667 146.161 66.3703C146.161 79.1577 153.562 87.8623 165.205 87.8623C175.536 87.8623 179.237 83.0863 179.237 77.8481V73.9965H178.852C176.924 75.9223 173.763 77.3089 167.749 77.3089C162.738 77.3089 159.037 74.8439 159.037 70.376H163.817C175.614 70.376 181.473 68.2961 181.473 59.6685ZM169.6 58.513C169.6 60.5929 168.366 61.8254 162.275 61.8254H158.728C158.882 56.8183 161.273 53.5829 164.588 53.5829C167.98 53.5829 169.6 55.2777 169.6 58.513Z" fill="#39B4EF"/>
</g>
<defs>
<linearGradient id="paint0_linear_72_16711" x1="329.098" y1="38.2601" x2="265.662" y2="86.1042" gradientUnits="userSpaceOnUse">
<stop stop-color="#DAE3FE"/>
<stop offset="1" stop-color="#E9EFFD"/>
</linearGradient>
<linearGradient id="paint1_linear_72_16711" x1="221.919" y1="124.846" x2="164.272" y2="160.082" gradientUnits="userSpaceOnUse">
<stop stop-color="#DAE3FE"/>
<stop offset="1" stop-color="#E9EFFD"/>
</linearGradient>
<linearGradient id="paint2_linear_72_16711" x1="-13.4626" y1="156.997" x2="41.5408" y2="84.3589" gradientUnits="userSpaceOnUse">
<stop stop-color="#DAE3FE"/>
<stop offset="1" stop-color="#E9EFFD"/>
</linearGradient>
<linearGradient id="paint3_linear_72_16711" x1="17.1241" y1="106.587" x2="77.1878" y2="106.587" gradientUnits="userSpaceOnUse">
<stop stop-color="#DAE3FE"/>
<stop offset="1" stop-color="#E9EFFD"/>
</linearGradient>
<linearGradient id="paint4_linear_72_16711" x1="140.709" y1="147.403" x2="175.355" y2="147.403" gradientUnits="userSpaceOnUse">
<stop stop-color="#FF928E"/>
<stop offset="1" stop-color="#FEB3B1"/>
</linearGradient>
<linearGradient id="paint5_linear_72_16711" x1="162.209" y1="114.273" x2="107.897" y2="141.341" gradientUnits="userSpaceOnUse">
<stop stop-color="#FF928E"/>
<stop offset="1" stop-color="#FEB3B1"/>
</linearGradient>
<linearGradient id="paint6_linear_72_16711" x1="161.413" y1="107.504" x2="153.413" y2="115.876" gradientUnits="userSpaceOnUse">
<stop stop-color="#FF928E"/>
<stop offset="1" stop-color="#FEB3B1"/>
</linearGradient>
<linearGradient id="paint7_linear_72_16711" x1="162.468" y1="113.953" x2="108.156" y2="141.021" gradientUnits="userSpaceOnUse">
<stop stop-color="#FF928E"/>
<stop offset="1" stop-color="#FEB3B1"/>
</linearGradient>
<linearGradient id="paint8_linear_72_16711" x1="105.07" y1="97.3095" x2="91.3784" y2="118.805" gradientUnits="userSpaceOnUse">
<stop stop-color="#FF928E"/>
<stop offset="1" stop-color="#FEB3B1"/>
</linearGradient>
<linearGradient id="paint9_linear_72_16711" x1="177.534" y1="103.915" x2="144.891" y2="132.797" gradientUnits="userSpaceOnUse">
<stop stop-color="#FF928E"/>
<stop offset="1" stop-color="#FEB3B1"/>
</linearGradient>
<linearGradient id="paint10_linear_72_16711" x1="124.719" y1="87.3514" x2="113.265" y2="93.4436" gradientUnits="userSpaceOnUse">
<stop stop-color="#FF928E"/>
<stop offset="1" stop-color="#FEB3B1"/>
</linearGradient>
<linearGradient id="paint11_linear_72_16711" x1="123.12" y1="84.3457" x2="111.666" y2="90.4378" gradientUnits="userSpaceOnUse">
<stop stop-color="#FF928E"/>
<stop offset="1" stop-color="#FEB3B1"/>
</linearGradient>
<linearGradient id="paint12_linear_72_16711" x1="140.082" y1="156.146" x2="148.619" y2="156.146" gradientUnits="userSpaceOnUse">
<stop stop-color="#FF928E"/>
<stop offset="1" stop-color="#FEB3B1"/>
</linearGradient>
<linearGradient id="paint13_linear_72_16711" x1="218.228" y1="112.815" x2="212.692" y2="96.1738" gradientUnits="userSpaceOnUse">
<stop stop-color="#FF928E"/>
<stop offset="1" stop-color="#FEB3B1"/>
</linearGradient>
<linearGradient id="paint14_linear_72_16711" x1="251.959" y1="161.271" x2="233.957" y2="195.956" gradientUnits="userSpaceOnUse">
<stop stop-color="#FF928E"/>
<stop offset="1" stop-color="#FEB3B1"/>
</linearGradient>
<linearGradient id="paint15_linear_72_16711" x1="213.857" y1="88.9195" x2="208.329" y2="121.507" gradientUnits="userSpaceOnUse">
<stop stop-color="#FF928E"/>
<stop offset="1" stop-color="#FEB3B1"/>
</linearGradient>
<linearGradient id="paint16_linear_72_16711" x1="218.67" y1="124.486" x2="219.653" y2="101.604" gradientUnits="userSpaceOnUse">
<stop stop-color="#FF928E"/>
<stop offset="1" stop-color="#FEB3B1"/>
</linearGradient>
<linearGradient id="paint17_linear_72_16711" x1="57.331" y1="137.327" x2="58.38" y2="137.327" gradientUnits="userSpaceOnUse">
<stop stop-color="#DAE3FE"/>
<stop offset="1" stop-color="#E9EFFD"/>
</linearGradient>
<linearGradient id="paint18_linear_72_16711" x1="55.5719" y1="132.387" x2="56.675" y2="132.387" gradientUnits="userSpaceOnUse">
<stop stop-color="#DAE3FE"/>
<stop offset="1" stop-color="#E9EFFD"/>
</linearGradient>
<linearGradient id="paint19_linear_72_16711" x1="53.8832" y1="127.437" x2="54.9528" y2="127.437" gradientUnits="userSpaceOnUse">
<stop stop-color="#DAE3FE"/>
<stop offset="1" stop-color="#E9EFFD"/>
</linearGradient>
<linearGradient id="paint20_linear_72_16711" x1="52.4319" y1="122.42" x2="53.4243" y2="122.42" gradientUnits="userSpaceOnUse">
<stop stop-color="#DAE3FE"/>
<stop offset="1" stop-color="#E9EFFD"/>
</linearGradient>
<linearGradient id="paint21_linear_72_16711" x1="51.3038" y1="117.32" x2="52.1957" y2="117.32" gradientUnits="userSpaceOnUse">
<stop stop-color="#DAE3FE"/>
<stop offset="1" stop-color="#E9EFFD"/>
</linearGradient>
<linearGradient id="paint22_linear_72_16711" x1="50.5434" y1="112.151" x2="51.3235" y2="112.151" gradientUnits="userSpaceOnUse">
<stop stop-color="#DAE3FE"/>
<stop offset="1" stop-color="#E9EFFD"/>
</linearGradient>
<linearGradient id="paint23_linear_72_16711" x1="50.166" y1="106.937" x2="50.8316" y2="106.937" gradientUnits="userSpaceOnUse">
<stop stop-color="#DAE3FE"/>
<stop offset="1" stop-color="#E9EFFD"/>
</linearGradient>
<linearGradient id="paint24_linear_72_16711" x1="50.1252" y1="101.704" x2="50.7673" y2="101.704" gradientUnits="userSpaceOnUse">
<stop stop-color="#DAE3FE"/>
<stop offset="1" stop-color="#E9EFFD"/>
</linearGradient>
<linearGradient id="paint25_linear_72_16711" x1="50.3685" y1="96.4801" x2="51.1429" y2="96.4801" gradientUnits="userSpaceOnUse">
<stop stop-color="#DAE3FE"/>
<stop offset="1" stop-color="#E9EFFD"/>
</linearGradient>
<linearGradient id="paint26_linear_72_16711" x1="50.958" y1="91.2871" x2="51.8557" y2="91.2871" gradientUnits="userSpaceOnUse">
<stop stop-color="#DAE3FE"/>
<stop offset="1" stop-color="#E9EFFD"/>
</linearGradient>
<linearGradient id="paint27_linear_72_16711" x1="51.8632" y1="86.1425" x2="52.8741" y2="86.1425" gradientUnits="userSpaceOnUse">
<stop stop-color="#DAE3FE"/>
<stop offset="1" stop-color="#E9EFFD"/>
</linearGradient>
<linearGradient id="paint28_linear_72_16711" x1="53.0596" y1="81.0613" x2="54.1892" y2="81.0613" gradientUnits="userSpaceOnUse">
<stop stop-color="#DAE3FE"/>
<stop offset="1" stop-color="#E9EFFD"/>
</linearGradient>
<linearGradient id="paint29_linear_72_16711" x1="54.5881" y1="76.0755" x2="55.8476" y2="76.0755" gradientUnits="userSpaceOnUse">
<stop stop-color="#DAE3FE"/>
<stop offset="1" stop-color="#E9EFFD"/>
</linearGradient>
<linearGradient id="paint30_linear_72_16711" x1="56.4602" y1="71.2115" x2="57.8463" y2="71.2115" gradientUnits="userSpaceOnUse">
<stop stop-color="#DAE3FE"/>
<stop offset="1" stop-color="#E9EFFD"/>
</linearGradient>
<linearGradient id="paint31_linear_72_16711" x1="58.6648" y1="66.4918" x2="60.1728" y2="66.4918" gradientUnits="userSpaceOnUse">
<stop stop-color="#DAE3FE"/>
<stop offset="1" stop-color="#E9EFFD"/>
</linearGradient>
<linearGradient id="paint32_linear_72_16711" x1="61.1869" y1="61.9359" x2="62.8113" y2="61.9359" gradientUnits="userSpaceOnUse">
<stop stop-color="#DAE3FE"/>
<stop offset="1" stop-color="#E9EFFD"/>
</linearGradient>
<linearGradient id="paint33_linear_72_16711" x1="64.0095" y1="57.5607" x2="65.7439" y2="57.5607" gradientUnits="userSpaceOnUse">
<stop stop-color="#DAE3FE"/>
<stop offset="1" stop-color="#E9EFFD"/>
</linearGradient>
<linearGradient id="paint34_linear_72_16711" x1="67.1165" y1="53.3819" x2="68.9456" y2="53.3819" gradientUnits="userSpaceOnUse">
<stop stop-color="#DAE3FE"/>
<stop offset="1" stop-color="#E9EFFD"/>
</linearGradient>
<linearGradient id="paint35_linear_72_16711" x1="70.4866" y1="49.4083" x2="72.4014" y2="49.4083" gradientUnits="userSpaceOnUse">
<stop stop-color="#DAE3FE"/>
<stop offset="1" stop-color="#E9EFFD"/>
</linearGradient>
<linearGradient id="paint36_linear_72_16711" x1="74.0962" y1="45.6504" x2="76.0899" y2="45.6504" gradientUnits="userSpaceOnUse">
<stop stop-color="#DAE3FE"/>
<stop offset="1" stop-color="#E9EFFD"/>
</linearGradient>
<linearGradient id="paint37_linear_72_16711" x1="77.9272" y1="42.1153" x2="79.9933" y2="42.1153" gradientUnits="userSpaceOnUse">
<stop stop-color="#DAE3FE"/>
<stop offset="1" stop-color="#E9EFFD"/>
</linearGradient>
<linearGradient id="paint38_linear_72_16711" x1="81.9582" y1="38.8087" x2="84.0905" y2="38.8087" gradientUnits="userSpaceOnUse">
<stop stop-color="#DAE3FE"/>
<stop offset="1" stop-color="#E9EFFD"/>
</linearGradient>
<linearGradient id="paint39_linear_72_16711" x1="86.1727" y1="35.7355" x2="88.3653" y2="35.7355" gradientUnits="userSpaceOnUse">
<stop stop-color="#DAE3FE"/>
<stop offset="1" stop-color="#E9EFFD"/>
</linearGradient>
<linearGradient id="paint40_linear_72_16711" x1="90.5538" y1="32.9002" x2="92.8013" y2="32.9002" gradientUnits="userSpaceOnUse">
<stop stop-color="#DAE3FE"/>
<stop offset="1" stop-color="#E9EFFD"/>
</linearGradient>
<linearGradient id="paint41_linear_72_16711" x1="95.0839" y1="30.307" x2="97.3812" y2="30.307" gradientUnits="userSpaceOnUse">
<stop stop-color="#DAE3FE"/>
<stop offset="1" stop-color="#E9EFFD"/>
</linearGradient>
<linearGradient id="paint42_linear_72_16711" x1="99.7485" y1="27.9607" x2="102.091" y2="27.9607" gradientUnits="userSpaceOnUse">
<stop stop-color="#DAE3FE"/>
<stop offset="1" stop-color="#E9EFFD"/>
</linearGradient>
<linearGradient id="paint43_linear_72_16711" x1="104.534" y1="25.8671" x2="106.917" y2="25.8671" gradientUnits="userSpaceOnUse">
<stop stop-color="#DAE3FE"/>
<stop offset="1" stop-color="#E9EFFD"/>
</linearGradient>
<linearGradient id="paint44_linear_72_16711" x1="109.427" y1="24.0325" x2="111.847" y2="24.0325" gradientUnits="userSpaceOnUse">
<stop stop-color="#DAE3FE"/>
<stop offset="1" stop-color="#E9EFFD"/>
</linearGradient>
<linearGradient id="paint45_linear_72_16711" x1="114.415" y1="22.4653" x2="116.866" y2="22.4653" gradientUnits="userSpaceOnUse">
<stop stop-color="#DAE3FE"/>
<stop offset="1" stop-color="#E9EFFD"/>
</linearGradient>
<linearGradient id="paint46_linear_72_16711" x1="119.482" y1="21.1751" x2="121.961" y2="21.1751" gradientUnits="userSpaceOnUse">
<stop stop-color="#DAE3FE"/>
<stop offset="1" stop-color="#E9EFFD"/>
</linearGradient>
<linearGradient id="paint47_linear_72_16711" x1="124.619" y1="20.1743" x2="127.12" y2="20.1743" gradientUnits="userSpaceOnUse">
<stop stop-color="#DAE3FE"/>
<stop offset="1" stop-color="#E9EFFD"/>
</linearGradient>
<linearGradient id="paint48_linear_72_16711" x1="129.807" y1="19.4773" x2="132.326" y2="19.4773" gradientUnits="userSpaceOnUse">
<stop stop-color="#DAE3FE"/>
<stop offset="1" stop-color="#E9EFFD"/>
</linearGradient>
<linearGradient id="paint49_linear_72_16711" x1="135.031" y1="19.1014" x2="137.561" y2="19.1014" gradientUnits="userSpaceOnUse">
<stop stop-color="#DAE3FE"/>
<stop offset="1" stop-color="#E9EFFD"/>
</linearGradient>
<linearGradient id="paint50_linear_72_16711" x1="140.272" y1="19.0674" x2="142.806" y2="19.0674" gradientUnits="userSpaceOnUse">
<stop stop-color="#DAE3FE"/>
<stop offset="1" stop-color="#E9EFFD"/>
</linearGradient>
<linearGradient id="paint51_linear_72_16711" x1="145.507" y1="19.3976" x2="148.037" y2="19.3976" gradientUnits="userSpaceOnUse">
<stop stop-color="#DAE3FE"/>
<stop offset="1" stop-color="#E9EFFD"/>
</linearGradient>
<linearGradient id="paint52_linear_72_16711" x1="150.712" y1="20.083" x2="153.229" y2="20.083" gradientUnits="userSpaceOnUse">
<stop stop-color="#DAE3FE"/>
<stop offset="1" stop-color="#E9EFFD"/>
</linearGradient>
<linearGradient id="paint53_linear_72_16711" x1="155.866" y1="21.0911" x2="158.365" y2="21.0911" gradientUnits="userSpaceOnUse">
<stop stop-color="#DAE3FE"/>
<stop offset="1" stop-color="#E9EFFD"/>
</linearGradient>
<linearGradient id="paint54_linear_72_16711" x1="160.948" y1="22.4274" x2="163.422" y2="22.4274" gradientUnits="userSpaceOnUse">
<stop stop-color="#DAE3FE"/>
<stop offset="1" stop-color="#E9EFFD"/>
</linearGradient>
<linearGradient id="paint55_linear_72_16711" x1="165.936" y1="24.0928" x2="168.376" y2="24.0928" gradientUnits="userSpaceOnUse">
<stop stop-color="#DAE3FE"/>
<stop offset="1" stop-color="#E9EFFD"/>
</linearGradient>
<linearGradient id="paint56_linear_72_16711" x1="170.807" y1="26.0809" x2="173.206" y2="26.0809" gradientUnits="userSpaceOnUse">
<stop stop-color="#DAE3FE"/>
<stop offset="1" stop-color="#E9EFFD"/>
</linearGradient>
<linearGradient id="paint57_linear_72_16711" x1="175.542" y1="28.3785" x2="177.894" y2="28.3785" gradientUnits="userSpaceOnUse">
<stop stop-color="#DAE3FE"/>
<stop offset="1" stop-color="#E9EFFD"/>
</linearGradient>
<linearGradient id="paint58_linear_72_16711" x1="180.124" y1="30.9664" x2="182.426" y2="30.9664" gradientUnits="userSpaceOnUse">
<stop stop-color="#DAE3FE"/>
<stop offset="1" stop-color="#E9EFFD"/>
</linearGradient>
<linearGradient id="paint59_linear_72_16711" x1="184.546" y1="33.8208" x2="186.795" y2="33.8208" gradientUnits="userSpaceOnUse">
<stop stop-color="#DAE3FE"/>
<stop offset="1" stop-color="#E9EFFD"/>
</linearGradient>
<linearGradient id="paint60_linear_72_16711" x1="188.802" y1="36.9147" x2="190.997" y2="36.9147" gradientUnits="userSpaceOnUse">
<stop stop-color="#DAE3FE"/>
<stop offset="1" stop-color="#E9EFFD"/>
</linearGradient>
<linearGradient id="paint61_linear_72_16711" x1="192.893" y1="40.22" x2="195.037" y2="40.22" gradientUnits="userSpaceOnUse">
<stop stop-color="#DAE3FE"/>
<stop offset="1" stop-color="#E9EFFD"/>
</linearGradient>
<linearGradient id="paint62_linear_72_16711" x1="196.827" y1="43.7084" x2="198.923" y2="43.7084" gradientUnits="userSpaceOnUse">
<stop stop-color="#DAE3FE"/>
<stop offset="1" stop-color="#E9EFFD"/>
</linearGradient>
<linearGradient id="paint63_linear_72_16711" x1="200.613" y1="47.3527" x2="202.665" y2="47.3527" gradientUnits="userSpaceOnUse">
<stop stop-color="#DAE3FE"/>
<stop offset="1" stop-color="#E9EFFD"/>
</linearGradient>
<linearGradient id="paint64_linear_72_16711" x1="204.266" y1="51.1269" x2="206.28" y2="51.1269" gradientUnits="userSpaceOnUse">
<stop stop-color="#DAE3FE"/>
<stop offset="1" stop-color="#E9EFFD"/>
</linearGradient>
<linearGradient id="paint65_linear_72_16711" x1="207.803" y1="55.0065" x2="209.785" y2="55.0065" gradientUnits="userSpaceOnUse">
<stop stop-color="#DAE3FE"/>
<stop offset="1" stop-color="#E9EFFD"/>
</linearGradient>
<linearGradient id="paint66_linear_72_16711" x1="211.243" y1="58.9684" x2="213.2" y2="58.9684" gradientUnits="userSpaceOnUse">
<stop stop-color="#DAE3FE"/>
<stop offset="1" stop-color="#E9EFFD"/>
</linearGradient>
<linearGradient id="paint67_linear_72_16711" x1="214.608" y1="62.9903" x2="216.548" y2="62.9903" gradientUnits="userSpaceOnUse">
<stop stop-color="#DAE3FE"/>
<stop offset="1" stop-color="#E9EFFD"/>
</linearGradient>
<linearGradient id="paint68_linear_72_16711" x1="217.923" y1="67.0499" x2="219.855" y2="67.0499" gradientUnits="userSpaceOnUse">
<stop stop-color="#DAE3FE"/>
<stop offset="1" stop-color="#E9EFFD"/>
</linearGradient>
<linearGradient id="paint69_linear_72_16711" x1="221.215" y1="71.1236" x2="223.149" y2="71.1236" gradientUnits="userSpaceOnUse">
<stop stop-color="#DAE3FE"/>
<stop offset="1" stop-color="#E9EFFD"/>
</linearGradient>
<linearGradient id="paint70_linear_72_16711" x1="224.516" y1="75.1852" x2="226.464" y2="75.1852" gradientUnits="userSpaceOnUse">
<stop stop-color="#DAE3FE"/>
<stop offset="1" stop-color="#E9EFFD"/>
</linearGradient>
<linearGradient id="paint71_linear_72_16711" x1="227.863" y1="79.2034" x2="229.84" y2="79.2034" gradientUnits="userSpaceOnUse">
<stop stop-color="#DAE3FE"/>
<stop offset="1" stop-color="#E9EFFD"/>
</linearGradient>
<linearGradient id="paint72_linear_72_16711" x1="231.3" y1="83.1377" x2="233.323" y2="83.1377" gradientUnits="userSpaceOnUse">
<stop stop-color="#DAE3FE"/>
<stop offset="1" stop-color="#E9EFFD"/>
</linearGradient>
<linearGradient id="paint73_linear_72_16711" x1="234.879" y1="86.9324" x2="236.968" y2="86.9324" gradientUnits="userSpaceOnUse">
<stop stop-color="#DAE3FE"/>
<stop offset="1" stop-color="#E9EFFD"/>
</linearGradient>
<linearGradient id="paint74_linear_72_16711" x1="238.663" y1="90.5064" x2="240.843" y2="90.5064" gradientUnits="userSpaceOnUse">
<stop stop-color="#DAE3FE"/>
<stop offset="1" stop-color="#E9EFFD"/>
</linearGradient>
<linearGradient id="paint75_linear_72_16711" x1="242.726" y1="93.738" x2="245.024" y2="93.738" gradientUnits="userSpaceOnUse">
<stop stop-color="#DAE3FE"/>
<stop offset="1" stop-color="#E9EFFD"/>
</linearGradient>
<linearGradient id="paint76_linear_72_16711" x1="247.149" y1="96.4463" x2="249.564" y2="96.4463" gradientUnits="userSpaceOnUse">
<stop stop-color="#DAE3FE"/>
<stop offset="1" stop-color="#E9EFFD"/>
</linearGradient>
<linearGradient id="paint77_linear_72_16711" x1="251.947" y1="98.3907" x2="254.483" y2="98.3907" gradientUnits="userSpaceOnUse">
<stop stop-color="#DAE3FE"/>
<stop offset="1" stop-color="#E9EFFD"/>
</linearGradient>
<linearGradient id="paint78_linear_72_16711" x1="257.058" y1="99.3333" x2="259.663" y2="99.3333" gradientUnits="userSpaceOnUse">
<stop stop-color="#DAE3FE"/>
<stop offset="1" stop-color="#E9EFFD"/>
</linearGradient>
<linearGradient id="paint79_linear_72_16711" x1="262.276" y1="98.891" x2="264.808" y2="98.891" gradientUnits="userSpaceOnUse">
<stop stop-color="#DAE3FE"/>
<stop offset="1" stop-color="#E9EFFD"/>
</linearGradient>
<linearGradient id="paint80_linear_72_16711" x1="266.955" y1="96.3101" x2="269.138" y2="96.3101" gradientUnits="userSpaceOnUse">
<stop stop-color="#DAE3FE"/>
<stop offset="1" stop-color="#E9EFFD"/>
</linearGradient>
<linearGradient id="paint81_linear_72_16711" x1="270.476" y1="92.2868" x2="272.238" y2="92.2868" gradientUnits="userSpaceOnUse">
<stop stop-color="#DAE3FE"/>
<stop offset="1" stop-color="#E9EFFD"/>
</linearGradient>
<linearGradient id="paint82_linear_72_16711" x1="272.695" y1="87.4724" x2="273.986" y2="87.4724" gradientUnits="userSpaceOnUse">
<stop stop-color="#DAE3FE"/>
<stop offset="1" stop-color="#E9EFFD"/>
</linearGradient>
<linearGradient id="paint83_linear_72_16711" x1="273.359" y1="82.2847" x2="274.271" y2="82.2847" gradientUnits="userSpaceOnUse">
<stop stop-color="#DAE3FE"/>
<stop offset="1" stop-color="#E9EFFD"/>
</linearGradient>
<linearGradient id="paint84_linear_72_16711" x1="272.688" y1="77.0869" x2="273.777" y2="77.0869" gradientUnits="userSpaceOnUse">
<stop stop-color="#DAE3FE"/>
<stop offset="1" stop-color="#E9EFFD"/>
</linearGradient>
<linearGradient id="paint85_linear_72_16711" x1="271.61" y1="71.9697" x2="272.762" y2="71.9697" gradientUnits="userSpaceOnUse">
<stop stop-color="#DAE3FE"/>
<stop offset="1" stop-color="#E9EFFD"/>
</linearGradient>
<linearGradient id="paint86_linear_72_16711" x1="270.213" y1="66.923" x2="271.378" y2="66.923" gradientUnits="userSpaceOnUse">
<stop stop-color="#DAE3FE"/>
<stop offset="1" stop-color="#E9EFFD"/>
</linearGradient>
<linearGradient id="paint87_linear_72_16711" x1="268.473" y1="61.9919" x2="269.65" y2="61.9919" gradientUnits="userSpaceOnUse">
<stop stop-color="#DAE3FE"/>
<stop offset="1" stop-color="#E9EFFD"/>
</linearGradient>
<linearGradient id="paint88_linear_72_16711" x1="266.164" y1="57.2855" x2="267.426" y2="57.2855" gradientUnits="userSpaceOnUse">
<stop stop-color="#DAE3FE"/>
<stop offset="1" stop-color="#E9EFFD"/>
</linearGradient>
<clipPath id="clip0_72_16711">
<rect width="300" height="195.833" fill="white" transform="translate(0.5 0.583313)"/>
</clipPath>
</defs>
</svg>
