<svg width="30" height="29" viewBox="0 0 30 29" fill="none" xmlns="http://www.w3.org/2000/svg">
<path d="M14.5832 7.45711C16.6568 7.45711 18.3378 5.78777 18.3378 3.72854C18.3378 1.66931 16.6568 -3.05176e-05 14.5832 -3.05176e-05C12.5096 -3.05176e-05 10.8286 1.66931 10.8286 3.72854C10.8286 5.78777 12.5096 7.45711 14.5832 7.45711Z" fill="#39B4EF"/>
<path d="M14.5832 18.2286C16.6568 18.2286 18.3378 16.5592 18.3378 14.5C18.3378 12.4408 16.6568 10.7714 14.5832 10.7714C12.5096 10.7714 10.8286 12.4408 10.8286 14.5C10.8286 16.5592 12.5096 18.2286 14.5832 18.2286Z" fill="#39B4EF"/>
<path d="M14.5832 29C16.6568 29 18.3378 27.3307 18.3378 25.2715C18.3378 23.2122 16.6568 21.5429 14.5832 21.5429C12.5096 21.5429 10.8286 23.2122 10.8286 25.2715C10.8286 27.3307 12.5096 29 14.5832 29Z" fill="#39B4EF"/>
<path d="M4.57101 18.2286C6.64461 18.2286 8.32561 16.5592 8.32561 14.5C8.32561 12.4408 6.64461 10.7714 4.57101 10.7714C2.4974 10.7714 0.816406 12.4408 0.816406 14.5C0.816406 16.5592 2.4974 18.2286 4.57101 18.2286Z" fill="#39B4EF"/>
<path d="M25.4298 18.2286C27.5034 18.2286 29.1844 16.5592 29.1844 14.5C29.1844 12.4408 27.5034 10.7714 25.4298 10.7714C23.3562 10.7714 21.6752 12.4408 21.6752 14.5C21.6752 16.5592 23.3562 18.2286 25.4298 18.2286Z" fill="#39B4EF"/>
</svg>
