<svg width="67" height="39" viewBox="0 0 67 39" fill="none" xmlns="http://www.w3.org/2000/svg">
<path d="M14.7866 17.3936C14.7866 13.0582 11.9132 10.4306 7.87756 10.4306C3.19622 10.4306 0 14.5362 0 20.2511C0 25.7032 3.09937 29.4146 7.97441 29.4146C12.3006 29.4146 13.8503 27.3783 13.8503 25.1449V23.5027H13.6889C12.8817 24.3238 11.5581 24.915 9.03982 24.915C6.94129 24.915 5.39161 23.8639 5.39161 21.959H7.39328C12.3329 21.959 14.7866 21.0722 14.7866 17.3936ZM9.81466 16.901C9.81466 17.7878 9.2981 18.3133 6.74758 18.3133H5.26247C5.32704 16.1784 6.32787 14.7989 7.71613 14.7989C9.13667 14.7989 9.81466 15.5215 9.81466 16.901Z" fill="#39B4EF"/>
<path d="M25.5907 26.5572V24.7179H24.4607C23.0079 24.7179 22.3622 24.2581 22.3622 22.7801V8.78843C22.3622 6.45649 21.2968 5.30694 18.8754 5.30694H17.1643V23.4041C17.1643 27.5097 19.4565 29.2176 22.4268 29.2176C23.7827 29.2176 25.0096 28.7249 25.4293 27.5425C25.5261 27.2469 25.5907 26.9185 25.5907 26.5572Z" fill="#39B4EF"/>
<path d="M33.0962 6.78493C33.0962 5.17556 31.8048 3.89464 30.2229 3.89464C28.6086 3.89464 27.2849 5.17556 27.2849 6.78493C27.2849 8.3943 28.6086 9.70807 30.2229 9.70807C31.8048 9.70807 33.0962 8.3943 33.0962 6.78493ZM35.7113 26.6557V24.8821H34.8719C33.4191 24.8821 32.8379 24.4223 32.8379 22.9443V14.7332C32.8379 12.4013 31.7403 11.2517 29.3189 11.2517H27.6078V23.6012C27.6078 27.7067 29.7386 29.2504 32.7088 29.2504C34.7428 29.2504 35.7113 28.2651 35.7113 26.6557Z" fill="#39B4EF"/>
<path d="M36.8567 20.0869C36.8567 25.6047 39.8915 29.4146 44.7019 29.4146C49.8353 29.4146 52.6441 25.6047 52.6441 19.7913C52.6441 13.9778 49.4479 10.4306 44.8311 10.4306C39.8915 10.4306 36.8567 14.5033 36.8567 20.0869ZM47.317 20.2839C47.317 23.5683 46.1225 24.8493 44.9279 24.8493C43.2491 24.8493 42.1837 23.4698 42.1837 19.5613C42.1837 16.6382 43.2491 15.0288 44.6374 15.0288C46.1548 15.0288 47.317 16.1127 47.317 20.2839Z" fill="#39B4EF"/>
<path d="M61.4776 1.94473C61.4776 3.01877 60.6217 3.88945 59.5659 3.88945C58.5102 3.88945 57.6543 3.01877 57.6543 1.94473C57.6543 0.870683 58.5102 0 59.5659 0C60.6217 0 61.4776 0.870683 61.4776 1.94473Z" fill="#39B4EF"/>
<path d="M61.4776 7.56282C61.4776 8.63686 60.6217 9.50755 59.5659 9.50755C58.5102 9.50755 57.6543 8.63686 57.6543 7.56282C57.6543 6.48878 58.5102 5.6181 59.5659 5.6181C60.6217 5.6181 61.4776 6.48878 61.4776 7.56282Z" fill="#39B4EF"/>
<path d="M61.4776 13.1809C61.4776 14.255 60.6217 15.1256 59.5659 15.1256C58.5102 15.1256 57.6543 14.255 57.6543 13.1809C57.6543 12.1069 58.5102 11.2362 59.5659 11.2362C60.6217 11.2362 61.4776 12.1069 61.4776 13.1809Z" fill="#39B4EF"/>
<path d="M56.3799 7.56282C56.3799 8.63686 55.5241 9.50755 54.4683 9.50755C53.4125 9.50755 52.5567 8.63686 52.5567 7.56282C52.5567 6.48878 53.4125 5.6181 54.4683 5.6181C55.5241 5.6181 56.3799 6.48878 56.3799 7.56282Z" fill="#39B4EF"/>
<path d="M67 7.56282C67 8.63686 66.1441 9.50755 65.0884 9.50755C64.0326 9.50755 63.1768 8.63686 63.1768 7.56282C63.1768 6.48878 64.0326 5.6181 65.0884 5.6181C66.1441 5.6181 67 6.48878 67 7.56282Z" fill="#39B4EF"/>
</svg>
