<svg width="454" height="449" viewBox="0 0 454 449" fill="none" xmlns="http://www.w3.org/2000/svg">
<path d="M323.409 282.832C323.409 282.832 321.948 221.504 350.229 205.091C378.509 188.677 432.28 178.415 434.296 90.3555C435.476 38.8008 436.753 16.2598 437.609 6.43197C437.942 2.59767 434.532 -0.496068 430.744 0.215651C403.961 5.25539 316.951 25.9994 298.71 85.3157C277.084 155.636 323.409 282.832 323.409 282.832Z" fill="#D2E3FF"/>
<path opacity="0.27" d="M410.031 24.7155C380.63 50.9048 346.634 97.2563 328.513 143.608C326.188 151.246 319.383 167.492 316.429 196.355C313.79 220.427 315.101 245.865 318.301 262.704C318.504 263.768 319.532 264.467 320.598 264.265C322.431 263.917 322.187 261.949 322.171 262.011C318.516 233.243 320.033 197.436 328.407 165.128C339.105 125.457 362.967 86.9941 387.647 54.372L390.187 51.1597C409.308 26.6326 413.333 26.4531 411.546 24.7427C411.123 24.3388 410.462 24.3356 410.031 24.7155Z" fill="white"/>
<path d="M277.962 400.743C274.136 402.617 314.185 352.314 326.731 273.312C332.643 236.083 332.72 189.44 353.951 171.464C371.622 156.504 431.754 165.948 451.428 169.539C453.887 169.988 454.715 173.09 452.8 174.694C443.365 182.608 423.181 201.278 417.921 220.092C410.99 244.891 387.385 260.665 366.252 264.933C345.119 269.202 333.365 273.344 323.07 307.099C312.776 340.855 288.833 395.418 277.962 400.743Z" fill="#C5DAFE"/>
<path opacity="0.27" d="M423.756 180.016C398.654 181.066 371.708 192.503 358.035 213.957L356.745 216.004C353.764 220.805 336.87 254.929 327.488 283.215C327.37 283.568 327.561 283.948 327.915 284.065C328.515 284.264 328.815 283.603 328.757 283.663C335.294 267.683 344.682 247.423 352.161 232.271C360.181 215.738 365.793 204.543 384.084 193.818C404.443 182.268 423.893 181.079 423.833 181.09C424.13 181.06 424.347 180.795 424.316 180.499C424.287 180.215 424.039 180.005 423.756 180.016Z" fill="white"/>
<path d="M77.7438 404.271C41.5233 389.643 21.3115 348.95 20.8926 321.375L32.3033 313.567C42.0433 339.848 50.7369 357.962 77.1612 367.53C78.5944 368.049 79.5685 369.386 79.6071 370.909L80.4207 402.407C80.456 403.808 79.0437 404.796 77.7438 404.271Z" fill="#39B4EF"/>
<path d="M13.3045 331.094C12.1506 331.485 11.0593 330.363 11.4829 329.222L24.2161 294.971C24.6269 294.224 25.6781 294.167 26.1692 294.861L43.0268 318.705C43.6864 319.638 43.2611 320.943 42.1795 321.31L13.3045 331.094Z" fill="#39B4EF"/>
<path d="M360.548 84.7355C395.631 101.908 412.885 143.938 411.331 171.472L399.393 178.447C391.554 151.538 384.177 132.852 358.505 121.424C357.114 120.804 356.238 119.401 356.307 117.88L357.746 86.4042C357.809 85.0048 359.288 84.12 360.548 84.7355Z" fill="#39B4EF"/>
<path d="M428.68 162.712L416.852 201.794C416.04 204.476 412.503 205.066 410.865 202.791L389.065 172.557C388.475 171.58 388.992 170.308 390.097 170.02L426.997 160.386C428.354 160.032 429.443 161.532 428.68 162.712Z" fill="#39B4EF"/>
<path d="M17.724 39.3457H332.028C340.598 39.3457 347.501 45.1645 347.347 52.2576L342.925 254.1C342.717 263.6 333.278 271.177 313.96 271.057L21.3591 268.017C11.1922 267.912 2.67508 262.612 2.27707 255.854C2.26423 255.639 2.25781 255.425 2.25781 255.207L2.40386 52.0204C2.40867 45.0186 9.26631 39.3457 17.724 39.3457Z" fill="#DCF8FF"/>
<path d="M24.6559 44.8102H326.463C334.693 44.8102 341.321 50.3388 341.172 57.0777L336.925 248.857C336.724 257.883 327.662 265.082 316.641 264.969L24.3301 261.965C16.2752 261.881 9.79792 256.508 9.80274 249.909L9.94396 56.8517C9.95038 50.201 16.5352 44.8102 24.6559 44.8102Z" fill="#B6E9F6"/>
<path d="M343.814 70.5299L344.134 56.4045C344.285 49.6656 337.594 44.2941 329.287 44.2941H24.6555C16.4577 44.2941 9.81195 49.5278 9.80713 56.1801L9.7959 70.5299H343.814Z" fill="#DCF8FF"/>
<path opacity="0.27" d="M252.7 64.1533H122.882C120.741 64.7561 119.006 63.3182 119.006 61.5437V56.7845C119.006 55.0116 120.741 53.5737 122.882 53.5737H252.7C254.841 53.5737 256.576 55.0116 256.576 56.7845V61.5437C256.576 63.3182 254.841 64.7561 252.7 64.1533Z" fill="#50C2DE"/>
<path d="M214.694 185.873C214.694 192.538 209.292 197.945 202.619 197.958L33.1631 198.307C28.7337 198.307 25.1436 194.64 25.1436 190.115V100.196C25.1436 95.6211 28.8107 91.9327 33.2883 92.0048L206.8 94.7619C211.179 94.8309 214.694 98.4792 214.694 102.953V185.873Z" fill="#DCF8FF"/>
<path opacity="0.27" d="M216.177 260.184L133.817 259.501C131.035 259.478 128.789 258.105 128.804 256.436L129.216 206.944C129.229 205.304 131.418 203.982 134.151 203.963L215.483 205.159C218.927 205.21 221.686 206.914 221.668 208.982L221.243 257.204C221.227 258.873 218.959 260.208 216.177 260.184Z" fill="white"/>
<path opacity="0.27" d="M111.429 259.837L29.0694 259.153C26.2865 259.131 24.0413 257.757 24.0557 256.088L24.4682 206.596C24.481 204.957 26.6701 203.634 29.4032 203.615L110.735 204.811C114.179 204.862 116.938 206.566 116.92 208.634L116.495 256.856C116.479 258.526 114.211 259.86 111.429 259.837Z" fill="white"/>
<path opacity="0.27" d="M319.87 261.699L237.511 261.014C234.728 260.992 232.483 259.618 232.497 257.949L232.91 208.457C232.922 206.818 235.111 205.495 237.845 205.476L319.177 206.672C322.621 206.723 325.379 208.427 325.362 210.495L324.937 258.717C324.92 260.387 322.653 261.723 319.87 261.699Z" fill="white"/>
<path opacity="0.27" d="M313.93 197.472H234.328C229.217 197.472 225.071 194.775 225.071 191.447V97.3845C225.071 94.5889 228.432 92.3175 232.592 92.3031L314.333 92.0049C319.282 92.1459 323.186 94.7989 323.186 98.0256V191.448C323.186 194.775 319.042 197.472 313.93 197.472Z" fill="white"/>
<path d="M77.3785 61.7023C73.6231 61.7023 70.5674 58.6503 70.5674 54.8993C70.5674 51.1484 73.6231 48.0963 77.3785 48.0963C81.1339 48.0963 84.1896 51.1484 84.1896 54.8993C84.1896 58.6503 81.1339 61.7023 77.3785 61.7023ZM77.3785 49.1895C74.2265 49.1895 71.6619 51.7511 71.6619 54.8993C71.6619 58.0476 74.2265 60.6091 77.3785 60.6091C80.5305 60.6091 83.0951 58.0476 83.0951 54.8993C83.0951 51.7511 80.5305 49.1895 77.3785 49.1895Z" fill="#B6E9F6"/>
<path d="M55.6998 62.2089C51.9444 62.2089 48.8887 59.1569 48.8887 55.4059C48.8887 51.655 51.9444 48.6029 55.6998 48.6029C59.4552 48.6029 62.5109 51.655 62.5109 55.4059C62.5109 59.1585 59.4552 62.2089 55.6998 62.2089ZM55.6998 49.6977C52.5478 49.6977 49.9832 52.2593 49.9832 55.4075C49.9832 58.5557 52.5478 61.1173 55.6998 61.1173C58.8518 61.1173 61.4164 58.5557 61.4164 55.4075C61.4164 52.2593 58.8518 49.6977 55.6998 49.6977Z" fill="#B6E9F6"/>
<path d="M34.8687 62.2089C31.1133 62.2089 28.0576 59.1569 28.0576 55.4059C28.0576 51.655 31.1133 48.6029 34.8687 48.6029C38.6241 48.6029 41.6798 51.655 41.6798 55.4059C41.6798 59.1585 38.6241 62.2089 34.8687 62.2089ZM34.8687 49.6977C31.7167 49.6977 29.1521 52.2593 29.1521 55.4075C29.1521 58.5557 31.7167 61.1173 34.8687 61.1173C38.0207 61.1173 40.5853 58.5557 40.5853 55.4075C40.5853 52.2593 38.0207 49.6977 34.8687 49.6977Z" fill="#B6E9F6"/>
<path d="M115.955 217.203H430.26C438.83 217.203 445.732 223.022 445.578 230.115L441.157 431.958C440.948 441.457 431.51 449.035 412.192 448.914L119.591 445.875C109.424 445.769 100.907 440.47 100.509 433.712C100.496 433.497 100.489 433.282 100.489 433.064L100.635 229.878C100.64 222.876 107.498 217.203 115.955 217.203Z" fill="#39B4EF"/>
<path d="M122.887 222.67H424.694C432.924 222.67 439.552 228.198 439.403 234.937L435.157 426.716C434.956 435.743 425.893 442.942 414.872 442.828L122.562 439.824C114.507 439.741 108.029 434.367 108.034 427.768L108.175 234.711C108.18 228.06 114.765 222.67 122.887 222.67Z" fill="#55C8FF"/>
<path d="M312.924 363.731C312.924 370.396 307.522 375.803 300.848 375.816L131.393 376.165C126.963 376.165 123.373 372.497 123.373 367.972V278.054C123.373 273.479 127.04 269.79 131.518 269.862L305.029 272.62C309.409 272.689 312.924 276.337 312.924 280.811V363.731Z" fill="#39B4EF"/>
<path opacity="0.27" d="M314.407 438.043L232.048 437.359C229.265 437.336 227.02 435.962 227.034 434.294L227.447 384.802C227.46 383.162 229.649 381.84 232.382 381.82L313.714 383.016C317.158 383.068 319.917 384.772 319.899 386.839L319.474 435.062C319.458 436.732 317.191 438.065 314.407 438.043Z" fill="white"/>
<path opacity="0.27" d="M209.66 437.695L127.301 437.011C124.518 436.988 122.273 435.614 122.287 433.946L122.7 384.454C122.714 382.814 124.902 381.492 127.635 381.473L208.967 382.668C212.411 382.72 215.17 384.424 215.152 386.491L214.727 434.714C214.711 436.384 212.443 437.719 209.66 437.695Z" fill="white"/>
<path opacity="0.27" d="M418.101 439.558L335.742 438.873C332.959 438.851 330.714 437.477 330.729 435.808L331.141 386.317C331.154 384.677 333.343 383.354 336.076 383.335L417.408 384.531C420.852 384.582 423.611 386.286 423.593 388.354L423.168 436.576C423.152 438.245 420.884 439.58 418.101 439.558Z" fill="white"/>
<path opacity="0.27" d="M412.16 375.33H332.558C327.446 375.33 323.301 372.632 323.301 369.304V275.242C323.301 272.447 326.661 270.175 330.821 270.161L412.562 269.863C417.512 270.004 421.415 272.657 421.415 275.883V369.306C421.417 372.632 417.271 375.33 412.16 375.33Z" fill="white"/>
<path d="M442.317 246.531L442.637 232.406C442.787 225.667 436.097 220.296 427.79 220.296H123.158C114.961 220.296 108.315 225.529 108.31 232.182L108.299 246.531H442.317Z" fill="#39B4EF"/>
<path d="M351.203 240.155H221.385C219.244 240.757 217.509 239.32 217.509 237.545V232.786C217.509 231.013 219.244 229.575 221.385 229.575H351.203C353.344 229.575 355.079 231.013 355.079 232.786V237.545C355.079 239.32 353.344 240.757 351.203 240.155Z" fill="#55C8FF"/>
<path d="M175.881 237.704C172.126 237.704 169.07 234.652 169.07 230.901C169.07 227.15 172.126 224.098 175.881 224.098C179.637 224.098 182.693 227.15 182.693 230.901C182.693 234.652 179.638 237.704 175.881 237.704ZM175.881 225.191C172.729 225.191 170.165 227.753 170.165 230.901C170.165 234.049 172.729 236.611 175.881 236.611C179.033 236.611 181.598 234.049 181.598 230.901C181.598 227.753 179.033 225.191 175.881 225.191Z" fill="#BDD0FB"/>
<path d="M154.203 238.21C150.447 238.21 147.392 235.158 147.392 231.407C147.392 227.656 150.447 224.604 154.203 224.604C157.958 224.604 161.014 227.656 161.014 231.407C161.014 235.16 157.958 238.21 154.203 238.21ZM154.203 225.699C151.051 225.699 148.486 228.261 148.486 231.409C148.486 234.557 151.051 237.119 154.203 237.119C157.355 237.119 159.919 234.557 159.919 231.409C159.919 228.261 157.355 225.699 154.203 225.699Z" fill="#BDD0FB"/>
<path d="M133.372 238.21C129.616 238.21 126.561 235.158 126.561 231.407C126.561 227.656 129.616 224.604 133.372 224.604C137.127 224.604 140.183 227.656 140.183 231.407C140.183 235.16 137.127 238.21 133.372 238.21ZM133.372 225.699C130.22 225.699 127.655 228.261 127.655 231.409C127.655 234.557 130.22 237.119 133.372 237.119C136.524 237.119 139.088 234.557 139.088 231.409C139.088 228.261 136.524 225.699 133.372 225.699Z" fill="#BDD0FB"/>
<path d="M256.245 322.371C256.245 342.609 239.826 359.014 219.572 359.014C199.318 359.014 182.899 342.609 182.899 322.371C182.899 302.133 199.318 285.727 219.572 285.727C239.826 285.727 256.245 302.133 256.245 322.371Z" fill="white"/>
<path d="M219.54 312.311C222.498 312.311 224.895 309.927 224.895 306.985C224.895 304.044 222.498 301.659 219.54 301.659C216.583 301.659 214.186 304.044 214.186 306.985C214.186 309.927 216.583 312.311 219.54 312.311Z" fill="#39B4EF"/>
<path d="M219.54 327.697C222.498 327.697 224.895 325.312 224.895 322.371C224.895 319.43 222.498 317.045 219.54 317.045C216.583 317.045 214.186 319.43 214.186 322.371C214.186 325.312 216.583 327.697 219.54 327.697Z" fill="#39B4EF"/>
<path d="M219.54 343.083C222.498 343.083 224.895 340.698 224.895 337.757C224.895 334.815 222.498 332.431 219.54 332.431C216.583 332.431 214.186 334.815 214.186 337.757C214.186 340.698 216.583 343.083 219.54 343.083Z" fill="#39B4EF"/>
<path d="M205.262 327.697C208.219 327.697 210.616 325.312 210.616 322.371C210.616 319.43 208.219 317.045 205.262 317.045C202.304 317.045 199.907 319.43 199.907 322.371C199.907 325.312 202.304 327.697 205.262 327.697Z" fill="#39B4EF"/>
<path d="M235.009 327.697C237.967 327.697 240.364 325.312 240.364 322.371C240.364 319.43 237.967 317.045 235.009 317.045C232.052 317.045 229.655 319.43 229.655 322.371C229.655 325.312 232.052 327.697 235.009 327.697Z" fill="#39B4EF"/>
</svg>
