<svg width="534" height="341" viewBox="0 0 534 341" fill="none" xmlns="http://www.w3.org/2000/svg">
<g clip-path="url(#clip0_96_28683)">
<path d="M475.453 0.33132L474.281 0.568707C464.382 2.54438 456.253 9.66601 453.442 19.2611C453.082 20.4939 452.806 21.7574 452.63 23.0286C451.358 32.2178 455.112 41.9813 462.26 48.0615C466.466 51.6376 471.875 54.1723 474.488 59.0043C477.882 65.2912 475.284 72.9412 472.656 79.5345C470.029 86.1277 467.447 93.7854 470.871 100.057C473.017 103.985 477.184 106.505 481.49 107.814C492.898 111.283 505.738 107.117 514.319 99.0155C522.9 90.9061 527.581 79.3966 529.336 67.7493C531.795 51.4385 528.631 33.9255 518.778 20.5169C508.926 7.10835 492.009 -1.52183 475.453 0.33132Z" fill="#C3E8FA"/>
<path d="M2.58244 248.401L3.11874 247.099C7.66195 236.126 17.752 228.376 29.4816 227.32C30.9909 227.182 32.5079 227.159 34.0249 227.243C44.9347 227.879 55.3542 234.441 60.7402 244.082C63.9043 249.749 65.5975 256.58 70.5851 260.692C77.0743 266.052 86.4978 264.796 94.7185 263.272C102.939 261.741 112.37 260.516 118.837 265.907C122.89 269.284 124.836 274.667 125.364 279.935C126.766 293.895 119.02 307.763 107.689 315.804C96.3581 323.852 81.9929 326.624 68.1411 325.989C48.7348 325.093 29.2288 317.435 15.9899 303.008C2.75099 288.581 -3.34748 267.086 2.58244 248.401Z" fill="#C3E8FA"/>
<path d="M34.654 136.408C43.5228 136.408 50.7123 129.222 50.7123 120.358C50.7123 111.493 43.5228 104.307 34.654 104.307C25.7853 104.307 18.5957 111.493 18.5957 120.358C18.5957 129.222 25.7853 136.408 34.654 136.408Z" fill="#C3E8FA"/>
<path d="M281.771 23.29C283.2 14.5418 277.264 6.29146 268.511 4.86251C259.759 3.43357 251.505 9.36709 250.075 18.1154C248.645 26.8637 254.582 35.114 263.334 36.5429C272.087 37.9718 280.341 32.0383 281.771 23.29Z" fill="#C3E8FA"/>
<path d="M514.049 339.244C514.049 339.351 403.947 339.443 268.164 339.443C132.327 339.443 22.2559 339.351 22.2559 339.244C22.2559 339.137 132.335 339.045 268.164 339.045C403.947 339.045 514.049 339.129 514.049 339.244Z" fill="#002E47"/>
<path d="M303.324 52.3501H68.0039V246.487H303.324V52.3501Z" fill="#E2EDFF"/>
<path d="M303.324 246.487C303.324 245.093 303.255 169.344 303.155 52.35L303.324 52.5184C235.95 52.5261 155.007 52.5414 68.0192 52.5491H67.9962L68.1954 52.35C68.1878 122.617 68.1801 188.932 68.1724 246.487L67.9962 246.311C208.07 246.418 301.776 246.487 303.324 246.487C301.776 246.487 208.062 246.556 68.0039 246.663H67.8277V246.487C67.82 188.932 67.8123 122.617 67.8047 52.35V52.1509H68.0039H68.0269C155.007 52.1662 235.957 52.1739 303.332 52.1815H303.5V52.35C303.393 169.351 303.332 245.093 303.324 246.487Z" fill="#002E47"/>
<path d="M288.43 234.12H78.5918V65.6206H288.43V234.12ZM79.3579 233.354H287.664V66.3864H79.3579V233.354Z" fill="#002E47"/>
<path d="M222.588 66.7158H221.822V233.76H222.588V66.7158Z" fill="#002E47"/>
<g opacity="0.3">
<path d="M292.773 52.3501V64.4951C292.773 66.6087 294.49 68.324 296.604 68.324H303.323V52.3501H292.773Z" fill="#002E47"/>
</g>
<g opacity="0.3">
<path d="M67.2832 52.9321L68.0034 101.099H98.1816C102.035 101.099 105.161 97.9744 105.161 94.1226V52.3501L67.2832 52.9321Z" fill="#002E47"/>
</g>
<g opacity="0.3">
<path d="M67.8652 189.927H78.1315C80.5602 189.927 82.5292 187.959 82.5292 185.532V180.631H67.8652V189.927Z" fill="#002E47"/>
</g>
<g opacity="0.3">
<path d="M191.212 155.749C192.935 148.394 188.367 141.036 181.008 139.314C173.65 137.591 166.288 142.158 164.565 149.512C162.842 156.867 167.41 164.225 174.769 165.947C182.127 167.67 189.489 163.103 191.212 155.749Z" fill="#002E47"/>
</g>
<path d="M187.554 159.778C192.897 154.437 192.897 145.778 187.554 140.437C182.21 135.096 173.546 135.096 168.203 140.437C162.859 145.778 162.859 154.437 168.203 159.778C173.546 165.119 182.21 165.119 187.554 159.778Z" fill="#002E47"/>
<path d="M179.215 149.403C180.525 148.852 181.46 147.504 181.468 145.911C181.475 143.82 179.897 142.128 177.936 142.113C175.982 142.105 174.381 143.79 174.373 145.873C174.366 147.481 175.308 148.852 176.633 149.403C171.178 150.222 171.424 156.149 171.424 156.149L184.325 156.211C184.333 156.211 184.624 150.215 179.215 149.403Z" fill="white"/>
<g opacity="0.3">
<path d="M123.084 195.044C130.086 192.204 133.459 184.228 130.618 177.229C127.777 170.23 119.797 166.859 112.794 169.699C105.792 172.539 102.419 180.515 105.26 187.514C108.102 194.513 116.082 197.884 123.084 195.044Z" fill="#002E47"/>
</g>
<path d="M127.411 189.548C132.755 184.207 132.755 175.548 127.411 170.207C122.067 164.866 113.404 164.866 108.06 170.207C102.717 175.548 102.717 184.207 108.06 189.548C113.404 194.889 122.067 194.889 127.411 189.548Z" fill="#39B4EF"/>
<path d="M119.073 179.176C120.383 178.625 121.317 177.277 121.325 175.684C121.333 173.593 119.754 171.901 117.793 171.886C115.84 171.878 114.238 173.563 114.231 175.646C114.223 177.254 115.165 178.625 116.491 179.176C111.036 179.995 111.281 185.922 111.281 185.922L124.183 185.984C124.183 185.984 124.482 179.988 119.073 179.176Z" fill="white"/>
<g opacity="0.3">
<path d="M281.921 151.877C287.264 146.536 287.264 137.877 281.921 132.536C276.577 127.195 267.914 127.195 262.57 132.536C257.226 137.877 257.226 146.536 262.57 151.877C267.914 157.218 276.577 157.218 281.921 151.877Z" fill="#002E47"/>
</g>
<path d="M285.079 142.679C286.828 135.331 282.287 127.956 274.936 126.208C267.584 124.459 260.206 128.998 258.457 136.346C256.707 143.694 261.249 151.068 268.6 152.817C275.952 154.566 283.329 150.026 285.079 142.679Z" fill="#39B4EF"/>
<path d="M273.112 138.797C274.422 138.246 275.356 136.898 275.364 135.305C275.372 133.215 273.794 131.522 271.832 131.507C269.879 131.499 268.277 133.184 268.27 135.267C268.262 136.875 269.204 138.246 270.53 138.797C265.075 139.616 265.32 145.543 265.32 145.543L278.222 145.605C278.229 145.605 278.521 139.616 273.112 138.797Z" fill="white"/>
<g opacity="0.3">
<path d="M276.359 85.8329C278.006 78.4608 273.362 71.1497 265.987 69.5031C258.611 67.8564 251.296 72.4979 249.649 79.8699C248.002 87.242 252.645 94.5531 260.021 96.1998C267.397 97.8464 274.711 93.205 276.359 85.8329Z" fill="#002E47"/>
</g>
<path d="M276.355 84.1127C278.002 76.7406 273.359 69.4295 265.983 67.7829C258.607 66.1362 251.292 70.7776 249.645 78.1497C247.998 85.5218 252.641 92.8329 260.017 94.4795C267.393 96.1262 274.707 91.4848 276.355 84.1127Z" fill="#002E47"/>
<path d="M264.325 80.4381C265.635 79.8867 266.569 78.539 266.577 76.9462C266.585 74.8556 265.006 73.1633 263.045 73.148C261.091 73.1403 259.49 74.825 259.483 76.9079C259.475 78.516 260.417 79.8867 261.743 80.4381C256.288 81.2574 256.533 87.1845 256.533 87.1845L269.435 87.2457C269.442 87.2381 269.734 81.2498 264.325 80.4381Z" fill="white"/>
<path d="M93.5304 15.6313H30.2472C26.9988 15.6313 24.3633 18.3345 24.3633 21.6656V86.5642C24.3633 89.8953 26.9988 92.5985 30.2472 92.5985H32.063H49.7149H93.5228C96.7712 92.5985 99.4067 89.8953 99.4067 86.5642V21.6656C99.4144 18.3345 96.7789 15.6313 93.5304 15.6313Z" fill="white"/>
<path d="M24.4399 39.9368H99.3301C99.3761 39.9368 99.4068 39.8985 99.4068 39.8602V20.1647C99.4068 17.6606 97.3765 15.6313 94.8712 15.6313H28.715C26.3093 15.6313 24.3633 17.5841 24.3633 19.9809V39.8525C24.3633 39.8985 24.4016 39.9368 24.4399 39.9368Z" fill="#39B4EF"/>
<path d="M51.4082 29.4227C51.4082 29.5605 56.5643 29.6677 62.9233 29.6677C69.2823 29.6677 74.4384 29.5605 74.4384 29.4227C74.4384 29.2848 69.2823 29.1776 62.9233 29.1776C56.5643 29.17 51.4082 29.2848 51.4082 29.4227Z" fill="#002E47"/>
<path d="M93.6067 15.6314C93.6067 15.6314 93.8596 15.6161 94.3576 15.6621C94.8479 15.708 95.591 15.8688 96.4491 16.3436C97.2919 16.826 98.2649 17.653 98.8931 18.9855C99.2072 19.644 99.4217 20.4175 99.4677 21.2598C99.4984 22.1021 99.483 22.9828 99.4907 23.9247C99.506 31.4675 99.529 42.3643 99.552 55.8188C99.5597 62.5499 99.5673 69.9242 99.575 77.8422C99.575 79.8179 99.575 81.8319 99.5826 83.8841C99.575 84.9103 99.598 85.9287 99.5673 86.9855C99.5213 88.0576 99.1689 89.1143 98.5943 90.0256C98.0044 90.9215 97.1846 91.6873 96.2116 92.1621C95.2539 92.6675 94.1277 92.8206 93.0704 92.7823C90.9559 92.7823 88.8107 92.7823 86.6425 92.79C69.2818 92.7976 50.1972 92.7976 30.1626 92.8053C27.5424 92.8436 25.0755 90.9292 24.3936 88.3715C24.2021 87.7436 24.1561 87.0774 24.1484 86.4341V84.5427C24.1484 83.2792 24.1484 82.0233 24.1484 80.7751C24.1484 75.7747 24.1484 70.8431 24.1484 65.9958C24.1561 56.3089 24.1561 46.9589 24.1638 38.053C24.1638 33.6039 24.1714 29.2621 24.1714 25.0427C24.1714 23.9859 24.1714 22.9445 24.1714 21.903C24.1638 21.39 24.2021 20.8463 24.294 20.3256V20.3179C24.4166 19.8048 24.5622 19.2918 24.8073 18.8323C25.2517 17.8828 25.9719 17.094 26.7993 16.4967C27.642 15.9224 28.615 15.5625 29.6034 15.4706C37.3567 15.4247 44.5201 15.4706 51.0936 15.4706C64.2176 15.5012 74.8363 15.5242 82.1912 15.5395C85.8534 15.5549 88.7034 15.5702 90.6494 15.5778C91.6071 15.5855 92.3426 15.5931 92.8483 15.6008C93.3539 15.6161 93.6067 15.6314 93.6067 15.6314C93.6067 15.6314 93.3539 15.6467 92.8559 15.6544C92.3503 15.6621 91.6148 15.6697 90.6571 15.6774C88.7111 15.685 85.8687 15.7003 82.1989 15.7157C74.844 15.731 64.2252 15.7539 51.1013 15.7846C44.5431 15.8076 37.3261 15.7769 29.6417 15.8382C28.707 15.9224 27.7953 16.267 27.0061 16.8107C26.2323 17.3697 25.5505 18.1125 25.1368 19.0085C24.9069 19.4449 24.7767 19.9274 24.6541 20.4098V20.4175C24.5698 20.9152 24.5315 21.3976 24.5392 21.9184C24.5392 22.9598 24.5392 24.0012 24.5392 25.058C24.5392 29.2774 24.5468 33.6193 24.5468 38.0684C24.5468 46.9742 24.5545 56.3166 24.5622 66.0112C24.5622 70.8584 24.5622 75.79 24.5622 80.7904C24.5622 82.0386 24.5622 83.2945 24.5622 84.558C24.6005 85.8215 24.4396 87.1003 24.792 88.272C25.4279 90.6535 27.7263 92.4377 30.1703 92.3994C50.2049 92.4071 69.2894 92.4071 86.6502 92.4148C88.8184 92.4148 90.9636 92.4147 93.0781 92.4224C94.1354 92.453 95.1467 92.3152 96.0584 91.8404C96.9778 91.3963 97.7439 90.6765 98.2955 89.8341C98.8395 88.9765 99.1689 87.9886 99.2149 86.9778C99.2455 85.9594 99.2225 84.9103 99.2302 83.8994C99.2302 81.8549 99.2302 79.8409 99.2379 77.8575C99.2455 69.9395 99.2532 62.5652 99.2609 55.8341C99.2915 42.372 99.3068 31.4828 99.3298 23.94C99.3221 22.9981 99.3528 22.1021 99.3222 21.2828C99.2838 20.4558 99.077 19.7053 98.7782 19.0544C98.1806 17.7449 97.2306 16.9179 96.4032 16.4355C95.5604 15.953 94.8326 15.7846 94.3422 15.7233C94.0971 15.6774 93.9132 15.685 93.783 15.6697C93.668 15.6467 93.6067 15.6314 93.6067 15.6314Z" fill="#002E47"/>
<path d="M50.7721 25.4717C52.1205 25.4717 53.2161 24.3537 53.2161 22.9677V10.5929C53.2161 9.20688 52.1205 8.08887 50.7721 8.08887C49.4237 8.08887 48.3281 9.20688 48.3281 10.5929V22.9677C48.3281 24.3537 49.4237 25.4717 50.7721 25.4717Z" fill="#E2EDFF"/>
<path d="M50.6874 25.4716C50.7104 25.4027 50.0745 25.5099 49.3007 24.8896C48.9329 24.5833 48.5652 24.0549 48.4886 23.3658C48.4579 22.6766 48.5039 21.8189 48.5039 20.9077C48.5192 19.0392 48.5345 16.8568 48.5575 14.4522C48.5652 13.2347 48.5652 11.9559 48.5728 10.6387C48.5498 10.0185 48.7644 9.42117 49.1934 8.98468C49.6224 8.54054 50.2124 8.31081 50.8636 8.34144C51.4842 8.34144 52.0741 8.63243 52.4648 9.09189C52.8709 9.56666 53.0241 10.1563 52.9858 10.8072C52.9935 12.1243 52.9935 13.4031 53.0011 14.6207C53.0164 17.0329 53.0394 19.2153 53.0548 21.0761C53.0624 21.5356 53.0624 21.9721 53.0701 22.3856C53.0701 22.8068 53.1084 23.1896 53.0394 23.5266C52.9092 24.2081 52.5108 24.7059 52.1201 24.9892C51.3003 25.5482 50.6721 25.4027 50.6874 25.4716C50.6874 25.4869 50.8253 25.5099 51.0934 25.5099C51.3616 25.5022 51.7676 25.4257 52.212 25.1423C52.6487 24.859 53.116 24.3383 53.2846 23.5802C53.3689 23.1896 53.3382 22.7914 53.3535 22.3856C53.3612 21.9721 53.3612 21.5279 53.3689 21.0761C53.3842 19.2077 53.3995 17.0252 53.4225 14.6207C53.4302 13.4031 53.4302 12.1243 53.4378 10.8072C53.4838 10.141 53.2999 9.32928 52.8096 8.77027C52.3346 8.19594 51.5991 7.84369 50.8406 7.84369C50.1204 7.8054 49.339 8.09639 48.8333 8.63243C48.3123 9.16081 48.0519 9.93423 48.0825 10.6387C48.0902 11.9559 48.0902 13.2347 48.0978 14.4522C48.1208 16.8644 48.1361 19.0468 48.1515 20.9077C48.1744 21.8342 48.1515 22.6383 48.2127 23.4041C48.3277 24.1775 48.7644 24.7288 49.1781 25.0428C49.5995 25.3644 50.0055 25.4563 50.2737 25.4869C50.5495 25.5176 50.6874 25.4793 50.6874 25.4716Z" fill="#002E47"/>
<path d="M73.6803 25.4717C75.0287 25.4717 76.1243 24.3537 76.1243 22.9677V10.5929C76.1243 9.20688 75.0287 8.08887 73.6803 8.08887C72.3319 8.08887 71.2363 9.20688 71.2363 10.5929V22.9677C71.2363 24.3537 72.3319 25.4717 73.6803 25.4717Z" fill="#E2EDFF"/>
<path d="M73.5956 25.4716C73.6186 25.4027 72.9827 25.5099 72.2089 24.8896C71.8411 24.5833 71.4734 24.0549 71.3968 23.3658C71.3661 22.6766 71.4121 21.8189 71.4121 20.9077C71.4274 19.0392 71.4427 16.8568 71.4657 14.4522C71.4734 13.2347 71.4734 11.9559 71.481 10.6387C71.4581 10.0185 71.6726 9.42117 72.1016 8.98468C72.5306 8.54054 73.1206 8.31081 73.7718 8.34144C74.3924 8.34144 74.9823 8.63243 75.373 9.09189C75.7791 9.56666 75.9323 10.1563 75.894 10.8072C75.9017 12.1243 75.9017 13.4031 75.9093 14.6207C75.9323 17.0329 75.9476 19.2153 75.963 21.0761C75.9706 21.5356 75.9706 21.9721 75.9783 22.3856C75.9783 22.8068 76.0166 23.1896 75.9476 23.5266C75.8174 24.2081 75.419 24.7059 75.0283 24.9892C74.2085 25.5482 73.5803 25.4027 73.5956 25.4716C73.5956 25.4869 73.7335 25.5099 74.0016 25.5099C74.2698 25.5022 74.6758 25.4257 75.1202 25.1423C75.5569 24.859 76.0242 24.3383 76.1928 23.5802C76.2771 23.1896 76.2464 22.7914 76.2618 22.3856C76.2694 21.9721 76.2694 21.5279 76.2771 21.0761C76.2924 19.2077 76.3077 17.0252 76.3307 14.6207C76.3384 13.4031 76.3384 12.1243 76.346 10.8072C76.392 10.141 76.2081 9.32928 75.7178 8.77027C75.2428 8.19594 74.5073 7.84369 73.7488 7.84369C73.0286 7.8054 72.2472 8.09639 71.7415 8.63243C71.2205 9.16081 70.9601 9.93423 70.9907 10.6387C70.9984 11.9559 70.9984 13.2347 71.006 14.4522C71.029 16.8644 71.0443 19.0468 71.0597 20.9077C71.0826 21.8342 71.0597 22.6383 71.1209 23.4041C71.2359 24.1775 71.6726 24.7288 72.0863 25.0428C72.5077 25.3644 72.9137 25.4563 73.1819 25.4869C73.4577 25.5176 73.5956 25.4793 73.5956 25.4716Z" fill="#002E47"/>
<path d="M68.9441 41.3153C68.9441 41.3153 69.082 41.3077 69.3425 41.3C69.6106 41.3 70.0013 41.2923 70.5223 41.3077C71.5489 41.4149 73.0889 41.5833 74.9429 42.2878C76.7893 42.9847 78.9269 44.2176 80.9495 46.1703C81.9455 47.1581 82.9338 48.3067 83.7459 49.6851C84.558 51.0482 85.2935 52.595 85.7072 54.3257C86.5653 57.7716 86.2665 61.8225 84.6883 65.682C83.0947 69.5185 80.3596 73.2324 76.5978 76.0275C72.859 78.8378 68.1779 80.7982 63.1214 81.4414C58.0802 82.0541 52.6253 81.3802 47.7603 78.9833C45.3316 77.7887 43.1175 76.2189 41.317 74.2892C39.5089 72.3671 38.1376 70.0851 37.3178 67.6653C36.498 65.2455 36.2069 62.6802 36.5593 60.2374C36.9041 57.7869 37.8694 55.5203 39.1259 53.5522C41.6695 49.5856 45.255 46.7369 48.8482 44.6923C52.4874 42.6784 56.2338 41.5068 59.7197 40.9477C63.2057 40.3887 66.4311 40.4347 69.2122 40.7946C71.9856 41.1622 74.3454 41.7595 76.1841 42.4716C76.6438 42.6477 77.0881 42.7779 77.4865 42.9617C77.8849 43.1455 78.2527 43.314 78.5974 43.4671C78.9422 43.6279 79.2563 43.7734 79.5475 43.9036C79.8233 44.0568 80.0761 44.2022 80.3059 44.3324C80.7426 44.5851 81.0874 44.7766 81.3326 44.9144C81.5624 45.0446 81.6773 45.1288 81.6773 45.1288C81.6773 45.1288 81.5547 45.0752 81.3172 44.9527C81.0721 44.8225 80.7196 44.6387 80.2753 44.4013C80.0454 44.2788 79.7926 44.141 79.5091 43.9955C79.218 43.8653 78.8962 43.7275 78.5515 43.5743C78.2067 43.4212 77.8313 43.2604 77.4329 43.0842C77.0345 42.9081 76.5902 42.7779 76.1305 42.6095C74.2917 41.9203 71.9473 41.3459 69.1892 41.009C66.4311 40.6797 63.2287 40.6491 59.7734 41.2234C56.3257 41.7977 52.6176 42.9694 49.0168 44.9757C45.4695 47.005 41.93 49.8459 39.44 53.7437C38.2065 55.6811 37.2718 57.9018 36.9347 60.291C36.5899 62.6725 36.8811 65.1766 37.6855 67.5428C38.49 69.9167 39.8307 72.1374 41.6005 74.0212C43.3703 75.9126 45.5461 77.4595 47.9288 78.6311C52.7172 80.9896 58.0955 81.6558 63.0678 81.0586C68.0553 80.4306 72.6752 78.5009 76.3756 75.7441C80.0914 73.0027 82.7959 69.3423 84.3818 65.5671C85.9524 61.7689 86.2512 57.7869 85.4314 54.4022C84.581 51.0099 82.7576 48.2838 80.7886 46.3464C78.8043 44.4013 76.7051 43.1608 74.8817 42.4486C73.0506 41.7288 71.526 41.5297 70.507 41.3995C70.0013 41.3766 69.6106 41.3613 69.3348 41.3459C69.0743 41.3306 68.9441 41.3153 68.9441 41.3153Z" fill="#002E47"/>
<path d="M5.01237 184.605H79.7187C81.726 184.605 83.3502 183.273 83.3502 181.626V146.792C83.3502 145.145 81.726 143.813 79.7187 143.813H5.01237C3.00508 143.813 1.38086 145.145 1.38086 146.792V181.626C1.38086 183.273 3.00508 184.605 5.01237 184.605Z" fill="white"/>
<path d="M5.01145 184.605C5.01145 184.605 4.79693 184.628 4.39087 184.582C3.98482 184.529 3.36425 184.406 2.68238 183.962C2.0235 183.541 1.25736 182.66 1.31865 181.435C1.31099 180.263 1.30333 178.916 1.30333 177.399C1.28801 171.319 1.26502 162.543 1.24204 151.7C1.24204 150.345 1.23438 148.959 1.23438 147.534C1.24204 147.175 1.21905 146.838 1.25736 146.447C1.30333 146.072 1.44123 145.704 1.64043 145.375C2.03882 144.724 2.67472 144.234 3.39489 143.958C4.1074 143.652 4.91951 143.637 5.65501 143.652C6.41348 143.652 7.17197 143.652 7.94577 143.652C9.48571 143.652 11.0563 143.652 12.6499 143.644C19.0318 143.637 25.8505 143.629 33.0292 143.629C47.379 143.621 63.1615 143.621 79.7255 143.614C80.8057 143.614 81.9013 143.997 82.6828 144.762C83.0658 145.153 83.3646 145.635 83.4872 146.179C83.6021 146.738 83.5409 147.244 83.5562 147.757C83.5562 149.801 83.5562 151.83 83.5562 153.844C83.5562 157.872 83.5562 161.847 83.5562 165.752C83.5562 169.657 83.5562 173.486 83.5485 177.246C83.5485 178.188 83.5485 179.122 83.5485 180.049C83.5485 180.516 83.5485 180.975 83.5485 181.435C83.5638 181.902 83.4719 182.423 83.2497 182.859C82.79 183.74 81.9396 184.33 81.0356 184.598C80.5835 184.735 80.1009 184.789 79.6412 184.789C79.1892 184.789 78.7372 184.789 78.2928 184.789C63.943 184.774 51.0182 184.758 40.1543 184.743C29.3058 184.72 20.5258 184.697 14.4426 184.682C11.4164 184.666 9.06433 184.651 7.45544 184.643C6.66631 184.636 6.06106 184.628 5.63968 184.621C5.21831 184.613 5.01145 184.605 5.01145 184.605C5.01145 184.605 5.21831 184.59 5.63202 184.582C6.0534 184.575 6.65865 184.575 7.44777 184.559C9.05667 184.552 11.4087 184.536 14.435 184.521C20.5181 184.506 29.2981 184.483 40.1467 184.46C51.0029 184.444 63.9277 184.437 78.2851 184.414C79.1892 184.391 80.1009 184.498 80.9207 184.238C81.7481 183.993 82.5142 183.449 82.905 182.683C83.1042 182.293 83.1731 181.887 83.1655 181.427C83.1655 180.968 83.1655 180.501 83.1655 180.041C83.1655 179.115 83.1655 178.18 83.1655 177.239C83.1655 173.486 83.1654 169.65 83.1578 165.744C83.1578 161.839 83.1578 157.865 83.1578 153.837C83.1578 151.823 83.1578 149.793 83.1578 147.749C83.1425 147.243 83.1961 146.707 83.0965 146.263C82.9892 145.804 82.7287 145.383 82.3916 145.038C81.7021 144.357 80.7061 144.004 79.7178 144.004C63.1539 143.997 47.379 143.997 33.0215 143.989C25.8428 143.981 19.0242 143.974 12.6422 143.974C11.0486 143.974 9.47805 143.974 7.93811 143.966C7.17197 143.966 6.40582 143.966 5.64735 143.966C4.8812 143.951 4.16869 143.966 3.49449 144.249C2.82795 144.502 2.24568 144.954 1.88559 145.544C1.70938 145.834 1.5868 146.156 1.54083 146.493C1.51019 146.822 1.52551 147.19 1.51785 147.542C1.51785 148.959 1.51019 150.353 1.51019 151.708C1.4872 162.551 1.46422 171.327 1.44889 177.407C1.44123 178.923 1.43357 180.271 1.43357 181.443C1.36462 182.622 2.08479 183.472 2.72069 183.901C3.37957 184.345 3.99248 184.483 4.39087 184.544C4.79693 184.598 5.01145 184.59 5.01145 184.605Z" fill="#002E47"/>
<path d="M105.705 170.99C105.682 171.013 105.422 170.783 104.955 170.346C104.441 169.856 103.79 169.236 103.016 168.493C102.189 167.682 101.231 166.747 100.182 165.714C99.6606 165.216 99.0094 164.795 98.2662 164.534C97.5154 164.259 96.7263 164.205 95.8452 164.228C92.3899 164.228 89.2641 164.205 87.0039 164.167C85.939 164.144 85.035 164.121 84.3225 164.105C83.6866 164.083 83.3418 164.052 83.3418 164.029C83.3418 163.998 83.6942 163.975 84.3225 163.952C85.035 163.937 85.9314 163.914 87.0039 163.891C89.2641 163.853 92.3899 163.83 95.8452 163.83C96.688 163.799 97.6073 163.86 98.3965 164.167C99.1932 164.45 99.8828 164.91 100.434 165.446C101.461 166.502 102.403 167.46 103.215 168.294C103.951 169.068 104.572 169.719 105.062 170.239C105.491 170.706 105.721 170.967 105.705 170.99Z" fill="#002E47"/>
<path d="M107.966 172.169C107.966 172.973 107.314 173.632 106.502 173.632C105.698 173.632 105.039 172.981 105.039 172.169C105.039 171.365 105.69 170.707 106.502 170.707C107.307 170.707 107.966 171.365 107.966 172.169Z" fill="#002E47"/>
<path d="M45.5642 158.041H72.2642C72.8771 158.041 73.3674 157.543 73.3674 156.938V155.475C73.3674 154.863 72.8694 154.373 72.2642 154.373H45.5642C44.9513 154.373 44.4609 154.87 44.4609 155.475V156.938C44.4609 157.55 44.9589 158.041 45.5642 158.041Z" fill="#E2EDFF"/>
<path d="M45.5642 165.293H72.2642C72.8771 165.293 73.3674 164.795 73.3674 164.19V162.727C73.3674 162.115 72.8694 161.625 72.2642 161.625H45.5642C44.9513 161.625 44.4609 162.122 44.4609 162.727V164.19C44.4609 164.795 44.9589 165.293 45.5642 165.293Z" fill="#E2EDFF"/>
<path d="M53.1952 175.064C52.8964 176.672 51.3564 177.736 49.7475 177.437C48.1386 177.139 47.0737 175.6 47.3725 173.991C47.6713 172.383 49.2112 171.319 50.8201 171.618C52.429 171.916 53.494 173.455 53.1952 175.064Z" fill="#002E47"/>
<path d="M61.8752 174.374C61.8752 176.013 60.5498 177.338 58.9103 177.338C57.2707 177.338 55.9453 176.013 55.9453 174.374C55.9453 172.735 57.2707 171.411 58.9103 171.411C60.5498 171.411 61.8752 172.743 61.8752 174.374Z" fill="#39B4EF"/>
<path d="M70.4788 174.374C70.4788 176.013 69.1533 177.338 67.5138 177.338C65.8743 177.338 64.5488 176.013 64.5488 174.374C64.5488 172.735 65.8743 171.411 67.5138 171.411C69.1457 171.411 70.4788 172.743 70.4788 174.374Z" fill="#002E47"/>
<path d="M13.2939 172.56C13.1483 172.56 13.0181 172.475 12.9491 172.353C12.8801 172.223 12.8955 172.062 12.9874 171.947L14.3665 170.132C14.9641 169.343 15.2858 168.356 15.2705 167.368L15.1939 162.689C15.1403 159.404 17.3774 156.57 20.5492 155.843L20.5339 154.725C20.5262 154.089 21.0319 153.569 21.6678 153.561H21.8976C22.1964 153.561 22.4952 153.668 22.7174 153.883C22.9396 154.097 23.0622 154.38 23.0698 154.687L23.0851 155.728C26.4485 156.195 28.9921 159.029 29.0457 162.467L29.1223 167.329C29.1376 168.402 29.5437 169.435 30.2639 170.239L31.5203 171.641C31.6199 171.756 31.6429 171.909 31.5893 172.047C31.528 172.184 31.3978 172.276 31.2445 172.276L13.2939 172.56ZM21.9129 154.304H21.6754C21.4609 154.304 21.2924 154.48 21.3 154.694L21.323 156.126C21.323 156.318 21.1928 156.479 21.0089 156.509C18.0363 157.053 15.9141 159.634 15.96 162.658L16.0366 167.337C16.052 168.501 15.6766 169.65 14.9717 170.584L14.0677 171.771L30.3865 171.503L29.6893 170.73C28.8465 169.795 28.3715 168.585 28.3485 167.322L28.2719 162.459C28.2183 159.297 25.8126 156.708 22.6638 156.433C22.4722 156.417 22.319 156.257 22.3113 156.057L22.2884 154.679C22.296 154.472 22.1198 154.304 21.9129 154.304Z" fill="#002E47"/>
<g opacity="0.2">
<path d="M19.0859 152.826C19.0936 152.826 19.1013 152.826 19.109 152.818C19.1167 152.818 19.1321 152.811 19.1398 152.811L19.0859 152.826Z" fill="white"/>
</g>
<path d="M22.0806 175.347C21.552 175.347 20.7859 175.248 20.15 174.765C19.3455 174.153 19.0467 173.165 18.9318 172.437C18.9012 172.231 19.0467 172.031 19.2536 172.001C19.4604 171.963 19.6596 172.116 19.6903 172.322C19.7822 172.912 20.0121 173.701 20.6097 174.16C21.077 174.513 21.6516 174.589 22.0806 174.589C22.7549 174.589 23.3601 174.39 23.7891 174.038C24.1952 173.708 24.6319 173.035 24.5246 172.231C24.494 172.024 24.6472 171.832 24.8541 171.802C25.0609 171.779 25.2525 171.924 25.2831 172.131C25.4287 173.241 24.8541 174.145 24.2718 174.627C23.7049 175.094 22.9311 175.347 22.0806 175.355C22.0883 175.347 22.0883 175.347 22.0806 175.347Z" fill="#002E47"/>
<path d="M20.4122 156.655C20.2514 156.655 20.0981 156.548 20.0445 156.387C19.9832 156.188 20.0905 155.973 20.2973 155.904C21.2244 155.613 22.4732 155.56 23.4921 155.782C23.699 155.828 23.8292 156.027 23.7833 156.234C23.7373 156.44 23.5381 156.571 23.3312 156.525C22.4502 156.333 21.324 156.379 20.5272 156.632C20.4889 156.647 20.4506 156.655 20.4122 156.655Z" fill="#002E47"/>
<path d="M318.593 42.8158C318.593 42.8235 318.524 42.8311 318.401 42.8388C318.248 42.8465 318.064 42.8541 317.834 42.8618C317.305 42.8694 316.57 42.8847 315.643 42.9001C313.712 42.9154 310.969 42.9384 307.598 42.9613C300.772 42.9766 291.402 42.9996 281.052 43.0226C279.757 43.0226 278.477 43.0226 277.213 43.0226C275.949 43.0302 274.7 42.9843 273.513 43.1298C271.122 43.4284 268.939 44.4622 267.269 45.9095C266.411 46.614 265.736 47.4717 265.131 48.3217C264.564 49.2023 264.097 50.1136 263.79 51.0555C263.093 52.9239 263.139 54.7924 263.139 56.4848C263.116 59.8541 263.093 62.5956 263.078 64.5253C263.063 65.4519 263.047 66.1793 263.04 66.7154C263.032 66.9451 263.024 67.1289 263.017 67.282C263.009 67.4122 263.001 67.4735 262.994 67.4735C262.986 67.4735 262.978 67.4046 262.971 67.282C262.963 67.1289 262.955 66.9451 262.948 66.7154C262.94 66.187 262.925 65.4519 262.909 64.5253C262.894 62.5956 262.871 59.8541 262.848 56.4848C262.833 54.8077 262.772 52.8627 263.469 50.9483C263.783 49.9834 264.25 49.0415 264.832 48.1302C265.445 47.2496 266.143 46.3613 267.016 45.6338C268.724 44.1329 270.977 43.0532 273.452 42.7393C274.693 42.5861 275.941 42.632 277.198 42.6244C278.462 42.6244 279.742 42.6244 281.036 42.6244C291.387 42.6474 300.757 42.6703 307.583 42.6856C310.954 42.7086 313.697 42.7316 315.628 42.7469C316.555 42.7622 317.282 42.7775 317.819 42.7852C318.049 42.7929 318.232 42.8005 318.386 42.8082C318.524 42.8005 318.593 42.8082 318.593 42.8158Z" fill="#002E47"/>
<path d="M378.405 63.7366H299.792C298.114 63.7366 296.758 62.3812 296.758 60.7042V28.2434C296.758 26.5663 298.114 25.2109 299.792 25.2109H378.405C380.083 25.2109 381.439 26.5663 381.439 28.2434V60.7042C381.439 62.3812 380.083 63.7366 378.405 63.7366Z" fill="white"/>
<path d="M378.406 63.7367C378.406 63.7214 378.62 63.7367 379.019 63.6525C379.409 63.5606 380.015 63.3462 380.566 62.7719C380.834 62.4809 381.087 62.1056 381.233 61.6385C381.401 61.1714 381.378 60.6354 381.371 60.0457C381.363 58.8665 381.355 57.5187 381.355 55.9948C381.34 49.884 381.317 41.0624 381.294 30.1579C381.286 29.4764 381.302 28.7795 381.286 28.098C381.256 27.4318 380.98 26.7732 380.513 26.2831C380.045 25.7854 379.402 25.4561 378.712 25.3872C378.015 25.3565 377.256 25.3795 376.513 25.3719C373.533 25.3719 370.438 25.3795 367.228 25.3872C360.807 25.3948 353.958 25.4025 346.741 25.4025C332.307 25.4101 316.448 25.4101 299.8 25.4178C298.827 25.4101 297.869 25.9462 297.379 26.7809C297.126 27.1944 296.988 27.6692 296.973 28.1516L296.965 29.6908C296.965 31.743 296.965 33.7876 296.965 35.8169C296.965 39.8678 296.965 43.8651 296.965 47.7858C296.965 51.7142 296.965 55.566 296.957 59.3412V60.7502C296.965 61.1944 297.072 61.6232 297.271 62.0138C297.67 62.7948 298.444 63.3692 299.302 63.507C299.715 63.5759 300.19 63.5453 300.65 63.5529C301.11 63.5529 301.569 63.5529 302.021 63.5529C302.933 63.5529 303.845 63.5529 304.741 63.5529C319.168 63.5683 332.161 63.5836 343.079 63.5989C353.989 63.6219 362.815 63.6448 368.929 63.6601C371.97 63.6755 374.337 63.6908 375.954 63.6984C376.751 63.7061 377.356 63.7137 377.785 63.7214C378.199 63.7291 378.406 63.7367 378.406 63.7367C378.406 63.7367 378.191 63.752 377.785 63.7597C377.364 63.7674 376.751 63.7674 375.954 63.7827C374.337 63.7903 371.97 63.8056 368.929 63.821C362.815 63.8363 353.989 63.8592 343.079 63.8822C332.161 63.8975 319.168 63.9052 304.741 63.9282C303.837 63.9282 302.933 63.9282 302.021 63.9282C301.562 63.9282 301.11 63.9282 300.65 63.9282C300.19 63.9205 299.738 63.9588 299.24 63.8746C298.267 63.7137 297.394 63.0705 296.942 62.1822C296.712 61.7381 296.59 61.248 296.582 60.7502V59.3336C296.582 55.5583 296.582 51.7065 296.574 47.7782C296.574 43.8498 296.574 39.8601 296.574 35.8092C296.574 33.78 296.574 31.743 296.574 29.6831L296.582 28.1363C296.597 27.5849 296.758 27.0412 297.049 26.5741C297.609 25.6169 298.704 25.0119 299.815 25.0196C316.463 25.0273 332.33 25.0273 346.756 25.0349C353.973 25.0426 360.83 25.0502 367.243 25.0502C370.453 25.0579 373.548 25.0579 376.529 25.0579C377.279 25.0656 377.992 25.0426 378.758 25.0809C379.524 25.1651 380.237 25.525 380.742 26.0764C381.256 26.6201 381.562 27.3475 381.593 28.075C381.608 28.7872 381.593 29.4687 381.601 30.1502C381.578 41.0547 381.555 49.8764 381.539 55.9872C381.532 57.511 381.524 58.8665 381.524 60.0381C381.524 60.6201 381.539 61.1867 381.355 61.6615C381.194 62.1363 380.934 62.5268 380.651 62.8178C380.076 63.3998 379.455 63.6065 379.057 63.6831C378.62 63.7674 378.406 63.7367 378.406 63.7367Z" fill="#002E47"/>
<path d="M313.229 54.3254C308.226 54.3254 304.15 50.2592 304.15 45.2511C304.15 40.2506 308.219 36.1768 313.229 36.1768C318.232 36.1768 322.308 40.243 322.308 45.2511C322.3 50.2592 318.232 54.3254 313.229 54.3254ZM313.229 36.9502C308.648 36.9502 304.917 40.6795 304.917 45.2587C304.917 49.838 308.648 53.5673 313.229 53.5673C317.811 53.5673 321.542 49.838 321.542 45.2587C321.534 40.6718 317.811 36.9502 313.229 36.9502Z" fill="#002E47"/>
<path d="M318.194 46.2005H312.778C312.563 46.2005 312.395 46.032 312.395 45.8176V40.1509C312.395 39.9365 312.563 39.7681 312.778 39.7681C312.992 39.7681 313.161 39.9365 313.161 40.1509V45.4347H318.194C318.409 45.4347 318.577 45.6032 318.577 45.8176C318.577 46.032 318.401 46.2005 318.194 46.2005Z" fill="#002E47"/>
<path d="M369.126 42.6321H328.122C327.287 42.6321 326.605 41.9506 326.605 41.1159V39.1861C326.605 38.3515 327.287 37.6699 328.122 37.6699H369.126C369.961 37.6699 370.643 38.3515 370.643 39.1861V41.1159C370.643 41.9582 369.961 42.6321 369.126 42.6321Z" fill="#E2EDFF"/>
<path d="M345.384 51.4846H328.544C327.709 51.4846 327.027 50.8031 327.027 49.9684V48.0387C327.027 47.204 327.709 46.5225 328.544 46.5225H345.384C346.219 46.5225 346.901 47.204 346.901 48.0387V49.9684C346.901 50.8107 346.227 51.4846 345.384 51.4846Z" fill="#E2EDFF"/>
<path d="M356.333 49.0035C356.333 50.7647 354.908 52.189 353.146 52.189C351.384 52.189 349.959 50.7647 349.959 49.0035C349.959 47.2422 351.384 45.8179 353.146 45.8179C354.908 45.8179 356.333 47.2422 356.333 49.0035Z" fill="#002E47"/>
<path d="M365.296 49.0035C365.296 50.7647 363.871 52.189 362.109 52.189C360.347 52.189 358.922 50.7647 358.922 49.0035C358.922 47.2422 360.347 45.8179 362.109 45.8179C363.863 45.8179 365.296 47.2422 365.296 49.0035Z" fill="#39B4EF"/>
<path d="M243.364 322.734H124.941V339.152H243.364V322.734Z" fill="#39B4EF"/>
<path d="M241.433 324.787H124.941V337.039H241.433V324.787Z" fill="#F5F5F5"/>
<g opacity="0.3">
<path d="M243.357 322.734H220.35V339.152H243.357V322.734Z" fill="#002E47"/>
</g>
<path d="M241.433 327.467C241.433 327.467 241.333 327.474 241.134 327.474C240.935 327.474 240.636 327.482 240.253 327.482C239.472 327.482 238.33 327.49 236.859 327.497C233.902 327.505 229.634 327.513 224.363 327.528C213.806 327.535 199.234 327.543 183.137 327.551C167.033 327.543 152.461 327.535 141.904 327.528C136.633 327.513 132.365 327.505 129.408 327.497C127.937 327.49 126.788 327.482 126.014 327.482C125.631 327.482 125.332 327.474 125.133 327.474C124.934 327.474 124.834 327.467 124.834 327.467C124.834 327.467 124.934 327.459 125.133 327.459C125.332 327.459 125.631 327.451 126.014 327.451C126.795 327.451 127.937 327.444 129.408 327.436C132.365 327.428 136.633 327.421 141.904 327.405C152.461 327.398 167.033 327.39 183.137 327.382C199.234 327.39 213.806 327.398 224.363 327.405C229.634 327.421 233.902 327.428 236.859 327.436C238.33 327.444 239.479 327.451 240.253 327.451C240.636 327.451 240.935 327.459 241.134 327.459C241.326 327.459 241.433 327.467 241.433 327.467Z" fill="#002E47"/>
<path d="M241.433 330.744C241.433 330.744 241.333 330.752 241.134 330.752C240.935 330.752 240.636 330.759 240.253 330.759C239.472 330.759 238.33 330.767 236.859 330.775C233.902 330.782 229.634 330.79 224.363 330.805C213.806 330.813 199.234 330.82 183.137 330.828C167.033 330.82 152.461 330.813 141.904 330.805C136.633 330.79 132.365 330.782 129.408 330.775C127.937 330.767 126.788 330.759 126.014 330.759C125.631 330.759 125.332 330.752 125.133 330.752C124.934 330.752 124.834 330.744 124.834 330.744C124.834 330.744 124.934 330.736 125.133 330.736C125.332 330.736 125.631 330.729 126.014 330.729C126.795 330.729 127.937 330.721 129.408 330.713C132.365 330.706 136.633 330.698 141.904 330.683C152.461 330.675 167.033 330.667 183.137 330.66C199.234 330.667 213.806 330.675 224.363 330.683C229.634 330.698 233.902 330.706 236.859 330.713C238.33 330.721 239.479 330.729 240.253 330.729C240.636 330.729 240.935 330.736 241.134 330.736C241.326 330.736 241.433 330.744 241.433 330.744Z" fill="#002E47"/>
<path d="M220.418 338.884C220.38 338.884 220.342 335.308 220.342 330.905C220.342 326.494 220.372 322.926 220.418 322.926C220.457 322.926 220.495 326.502 220.495 330.905C220.495 335.308 220.457 338.884 220.418 338.884Z" fill="#002E47"/>
<path d="M226.408 307.549H144.516V322.742H226.408V307.549Z" fill="#002E47"/>
<path d="M233.541 307.633H211.254V322.65H233.541V307.633Z" fill="#002E47"/>
<path d="M233.541 309.693H213.354V320.483H233.541V309.693Z" fill="#F5F5F5"/>
<g opacity="0.3">
<path d="M233.541 307.633H211.254V322.65H233.541V307.633Z" fill="#002E47"/>
</g>
<path d="M205.263 319.403C205.263 319.403 205.255 319.258 205.255 318.982C205.255 318.706 205.248 318.293 205.248 317.764C205.24 316.692 205.24 315.107 205.232 313.055L205.263 313.093C195.77 313.101 174.387 313.124 149.549 313.147L149.626 313.063C149.626 315.237 149.626 317.389 149.626 319.418L149.549 319.334C165.178 319.35 179.099 319.365 189.113 319.372C194.123 319.38 198.161 319.395 200.942 319.395C202.336 319.403 203.409 319.403 204.144 319.411C204.512 319.411 204.788 319.418 204.979 319.418C205.163 319.403 205.263 319.403 205.263 319.403C205.263 319.403 205.171 319.411 204.987 319.411C204.796 319.411 204.52 319.411 204.16 319.418C203.432 319.418 202.359 319.426 200.972 319.434C198.191 319.441 194.161 319.449 189.159 319.457C179.13 319.464 165.194 319.48 149.541 319.495H149.465V319.411C149.465 317.389 149.465 315.237 149.465 313.055V312.971H149.541C174.387 312.994 195.77 313.017 205.255 313.024H205.286V313.063C205.278 315.13 205.271 316.715 205.271 317.795C205.271 318.323 205.263 318.729 205.263 319.005C205.271 319.273 205.263 319.403 205.263 319.403Z" fill="#002E47"/>
<path d="M211.286 322.635C211.247 322.635 211.209 319.227 211.209 315.031C211.209 310.834 211.24 307.427 211.286 307.427C211.332 307.427 211.362 310.827 211.362 315.031C211.362 319.235 211.324 322.635 211.286 322.635Z" fill="#002E47"/>
<path d="M221.367 289.814H139.475V301.699H221.367V289.814Z" fill="#39B4EF"/>
<path d="M203.287 299.363C203.287 299.363 203.279 299.309 203.279 299.225C203.279 299.126 203.272 298.995 203.272 298.842C203.264 298.498 203.264 298.023 203.256 297.433C203.249 296.223 203.233 294.539 203.226 292.563L203.295 292.64C202.107 292.64 200.797 292.647 199.418 292.647C199.403 292.662 199.556 292.486 199.495 292.563V292.578V292.594V292.624V292.685V292.808V293.045C199.495 293.206 199.495 293.359 199.495 293.52C199.495 293.834 199.495 294.14 199.495 294.447C199.495 295.059 199.495 295.649 199.495 296.223C199.487 297.364 199.487 298.421 199.487 299.363L199.426 299.294C200.59 299.309 201.548 299.325 202.23 299.332C202.559 299.34 202.82 299.348 203.011 299.348C203.188 299.348 203.287 299.355 203.287 299.363C203.295 299.371 203.203 299.371 203.027 299.378C202.835 299.386 202.575 299.386 202.253 299.394C201.556 299.401 200.583 299.417 199.41 299.432H199.349V299.363C199.349 298.429 199.341 297.364 199.341 296.223C199.341 295.649 199.341 295.059 199.341 294.447C199.341 294.14 199.341 293.834 199.341 293.52C199.341 293.367 199.341 293.206 199.341 293.045V292.808V292.685V292.624V292.594V292.578V292.571C199.273 292.647 199.433 292.463 199.418 292.486C200.797 292.486 202.107 292.494 203.295 292.494H203.364V292.571C203.348 294.569 203.341 296.269 203.333 297.494C203.325 298.076 203.318 298.544 203.318 298.881C203.318 299.026 203.31 299.149 203.31 299.24C203.295 299.325 203.287 299.363 203.287 299.363Z" fill="#002E47"/>
<path d="M221.368 291.675H208.734V299.715H221.368V291.675Z" fill="white"/>
<g opacity="0.3">
<path d="M221.366 289.814H207.07V301.699H221.366V289.814Z" fill="#002E47"/>
</g>
<path d="M207.01 301.63C206.972 301.63 206.934 299.003 206.934 295.772C206.934 292.533 206.964 289.914 207.01 289.914C207.056 289.914 207.087 292.54 207.087 295.772C207.087 299.011 207.056 301.63 207.01 301.63Z" fill="#002E47"/>
<path d="M221.468 293.581C221.468 293.627 218.595 293.666 215.055 293.666C211.516 293.666 208.643 293.627 208.643 293.581C208.643 293.535 211.516 293.497 215.055 293.497C218.595 293.489 221.468 293.528 221.468 293.581Z" fill="#002E47"/>
<path d="M221.468 295.695C221.468 295.741 218.595 295.779 215.055 295.779C211.516 295.779 208.643 295.741 208.643 295.695C208.643 295.649 211.516 295.611 215.055 295.611C218.595 295.611 221.468 295.649 221.468 295.695Z" fill="#002E47"/>
<path d="M221.468 297.839C221.468 297.885 218.595 297.923 215.055 297.923C211.516 297.923 208.643 297.885 208.643 297.839C208.643 297.793 211.516 297.755 215.055 297.755C218.595 297.755 221.468 297.793 221.468 297.839Z" fill="#002E47"/>
<path d="M235.418 301.707H153.525V307.572H235.418V301.707Z" fill="#39B4EF"/>
<path d="M235.426 302.441H217.115V306.883H235.426V302.441Z" fill="#E2EDFF"/>
<g opacity="0.3">
<path d="M235.427 301.707H216.082V307.572H235.427V301.707Z" fill="#002E47"/>
</g>
<path d="M216.081 307.572C216.042 307.572 216.012 306.309 216.012 304.747C216.012 303.184 216.05 301.921 216.096 301.921C216.134 301.921 216.165 303.184 216.165 304.747C216.157 306.309 216.119 307.572 216.081 307.572Z" fill="#002E47"/>
<path d="M208.734 303.965H159.41V305.367H208.734V303.965Z" fill="#E2EDFF"/>
<path d="M214.09 307.526C214.09 307.572 200.521 307.61 183.781 307.61C167.041 307.61 153.465 307.572 153.465 307.526C153.465 307.48 167.033 307.442 183.781 307.442C200.514 307.434 214.09 307.473 214.09 307.526Z" fill="#002E47"/>
<path d="M216.281 307.549C216.281 307.595 202.713 307.633 185.972 307.633C169.232 307.633 155.656 307.595 155.656 307.549C155.656 307.503 169.225 307.465 185.972 307.465C202.713 307.465 216.281 307.503 216.281 307.549Z" fill="#002E47"/>
<path d="M235.419 301.66C235.419 301.706 217.56 301.745 195.542 301.745C173.515 301.745 155.656 301.706 155.656 301.66C155.656 301.614 173.507 301.576 195.542 301.576C217.568 301.576 235.419 301.614 235.419 301.66Z" fill="#002E47"/>
<path d="M512.955 293.727L406.867 283.213C404.293 282.96 402.408 280.663 402.669 278.09L417.984 123.681C418.237 121.108 420.535 119.224 423.109 119.484L529.197 129.998C531.771 130.251 533.656 132.548 533.395 135.121L518.08 289.53C517.827 292.103 515.529 293.98 512.955 293.727Z" fill="#E2EDFF"/>
<path d="M512.954 293.727C512.954 293.727 513.076 293.727 513.314 293.742C513.551 293.75 513.911 293.727 514.371 293.642C514.831 293.543 515.39 293.351 515.98 292.968C516.555 292.586 517.16 292.004 517.574 291.177C517.788 290.771 517.934 290.304 518.018 289.798C518.095 289.293 518.125 288.749 518.187 288.182C518.294 287.049 518.416 285.816 518.547 284.476C518.807 281.796 519.114 278.702 519.451 275.226C520.822 261.304 522.806 241.157 525.266 216.269C526.499 203.826 527.84 190.195 529.288 175.561C530.016 168.241 530.759 160.675 531.533 152.879C531.916 148.982 532.307 145.03 532.705 141.018C532.904 139.011 533.096 136.997 533.295 134.968C533.371 133.973 533.088 132.954 532.536 132.119C531.969 131.292 531.142 130.634 530.177 130.32C529.694 130.159 529.196 130.098 528.675 130.052C528.162 129.998 527.641 129.952 527.127 129.899C526.093 129.799 525.051 129.692 524.009 129.592C521.925 129.386 519.834 129.179 517.727 128.972C513.513 128.559 509.246 128.13 504.94 127.709C496.321 126.859 487.526 125.986 478.569 125.097C460.657 123.321 442.109 121.483 423.109 119.607C421.944 119.484 420.749 119.829 419.837 120.549C418.918 121.261 418.289 122.333 418.129 123.474C417.876 125.817 417.654 128.183 417.416 130.527C416.949 135.213 416.489 139.877 416.029 144.502C415.11 153.752 414.206 162.865 413.317 171.817C411.54 189.728 409.824 207.004 408.192 223.46C406.552 239.916 405.005 255.553 403.549 270.187C403.365 272.017 403.189 273.832 403.005 275.624C402.921 276.52 402.813 277.423 402.752 278.304C402.691 279.177 402.913 280.065 403.334 280.823C403.763 281.582 404.407 282.202 405.166 282.615C405.549 282.814 405.955 282.96 406.376 283.052C406.797 283.128 407.234 283.167 407.663 283.213C409.395 283.389 411.111 283.557 412.812 283.726C419.607 284.4 426.127 285.05 432.356 285.671C457.255 288.152 477.405 290.166 491.333 291.552C498.298 292.249 503.699 292.792 507.369 293.16C509.2 293.344 510.594 293.489 511.536 293.581C512.471 293.665 512.954 293.727 512.954 293.727C512.954 293.727 512.471 293.688 511.529 293.596C510.586 293.505 509.192 293.374 507.361 293.191C503.691 292.831 498.29 292.302 491.326 291.621C477.397 290.25 457.248 288.267 432.34 285.809C426.112 285.196 419.592 284.553 412.796 283.879C411.095 283.71 409.379 283.542 407.648 283.373C407.219 283.327 406.782 283.297 406.338 283.213C405.901 283.113 405.48 282.968 405.081 282.753C404.292 282.332 403.618 281.681 403.174 280.892C402.729 280.104 402.507 279.185 402.561 278.273C402.63 277.37 402.729 276.482 402.813 275.586C402.99 273.786 403.173 271.971 403.35 270.141C404.798 255.507 406.345 239.87 407.977 223.414C409.609 206.958 411.318 189.682 413.095 171.771C413.984 162.819 414.888 153.699 415.799 144.456C416.259 139.831 416.719 135.175 417.186 130.481C417.424 128.137 417.638 125.787 417.899 123.42C418.067 122.218 418.726 121.092 419.691 120.35C420.649 119.599 421.906 119.232 423.124 119.362C442.124 121.246 460.665 123.083 478.585 124.86C487.541 125.748 496.344 126.621 504.955 127.479C509.261 127.908 513.528 128.329 517.742 128.75C519.849 128.957 521.948 129.164 524.025 129.37C525.066 129.477 526.101 129.577 527.143 129.677C527.664 129.73 528.177 129.776 528.69 129.83C529.204 129.876 529.74 129.937 530.238 130.105C531.249 130.435 532.115 131.116 532.705 131.989C533.28 132.862 533.578 133.927 533.494 134.968C533.295 136.997 533.096 139.019 532.896 141.025C532.498 145.03 532.107 148.989 531.717 152.887C530.943 160.682 530.192 168.248 529.464 175.569C528.008 190.203 526.652 203.833 525.411 216.277C522.929 241.164 520.914 261.304 519.527 275.226C519.175 278.702 518.868 281.796 518.6 284.476C518.462 285.816 518.34 287.049 518.225 288.182C518.164 288.749 518.125 289.285 518.049 289.798C517.964 290.304 517.819 290.778 517.597 291.192C517.175 292.019 516.57 292.609 515.988 292.991C515.398 293.374 514.831 293.566 514.363 293.658C513.896 293.742 513.536 293.757 513.299 293.742C513.076 293.734 512.954 293.727 512.954 293.727Z" fill="#002E47"/>
<g opacity="0.3">
<path d="M413.555 279.767L510.387 288.833L513.352 270.248L511.498 258.685L414.214 264.153L413.555 279.767Z" fill="#002E47"/>
</g>
<path d="M512.954 293.727C512.954 293.727 513.076 293.727 513.314 293.742C513.551 293.75 513.911 293.727 514.371 293.642C514.831 293.543 515.39 293.351 515.98 292.968C516.555 292.586 517.16 292.004 517.574 291.177C517.788 290.771 517.934 290.304 518.018 289.798C518.095 289.293 518.125 288.749 518.187 288.182C518.294 287.049 518.416 285.816 518.547 284.476C518.807 281.796 519.114 278.702 519.451 275.226C520.822 261.304 522.806 241.157 525.266 216.269C526.499 203.826 527.84 190.195 529.288 175.561C530.016 168.241 530.759 160.675 531.533 152.879C531.916 148.982 532.307 145.03 532.705 141.018C532.904 139.011 533.096 136.997 533.295 134.968C533.371 133.973 533.088 132.954 532.536 132.119C531.969 131.292 531.142 130.634 530.177 130.32C529.694 130.159 529.196 130.098 528.675 130.052C528.162 129.998 527.641 129.952 527.127 129.899C526.093 129.799 525.051 129.692 524.009 129.592C521.925 129.386 519.834 129.179 517.727 128.972C513.513 128.559 509.246 128.13 504.94 127.709C496.321 126.859 487.526 125.986 478.569 125.097C460.657 123.321 442.109 121.483 423.109 119.607C421.944 119.484 420.749 119.829 419.837 120.549C418.918 121.261 418.289 122.333 418.129 123.474C417.876 125.817 417.654 128.183 417.416 130.527C416.949 135.213 416.489 139.877 416.029 144.502C415.11 153.752 414.206 162.865 413.317 171.817C411.54 189.728 409.824 207.004 408.192 223.46C406.552 239.916 405.005 255.553 403.549 270.187C403.365 272.017 403.189 273.832 403.005 275.624C402.921 276.52 402.813 277.423 402.752 278.304C402.691 279.177 402.913 280.065 403.334 280.823C403.763 281.582 404.407 282.202 405.166 282.615C405.549 282.814 405.955 282.96 406.376 283.052C406.797 283.128 407.234 283.167 407.663 283.213C409.395 283.389 411.111 283.557 412.812 283.726C419.607 284.4 426.127 285.05 432.356 285.671C457.255 288.152 477.405 290.166 491.333 291.552C498.298 292.249 503.699 292.792 507.369 293.16C509.2 293.344 510.594 293.489 511.536 293.581C512.471 293.665 512.954 293.727 512.954 293.727C512.954 293.727 512.471 293.688 511.529 293.596C510.586 293.505 509.192 293.374 507.361 293.191C503.691 292.831 498.29 292.302 491.326 291.621C477.397 290.25 457.248 288.267 432.34 285.809C426.112 285.196 419.592 284.553 412.796 283.879C411.095 283.71 409.379 283.542 407.648 283.373C407.219 283.327 406.782 283.297 406.338 283.213C405.901 283.113 405.48 282.968 405.081 282.753C404.292 282.332 403.618 281.681 403.174 280.892C402.729 280.104 402.507 279.185 402.561 278.273C402.63 277.37 402.729 276.482 402.813 275.586C402.99 273.786 403.173 271.971 403.35 270.141C404.798 255.507 406.345 239.87 407.977 223.414C409.609 206.958 411.318 189.682 413.095 171.771C413.984 162.819 414.888 153.699 415.799 144.456C416.259 139.831 416.719 135.175 417.186 130.481C417.424 128.137 417.638 125.787 417.899 123.42C418.067 122.218 418.726 121.092 419.691 120.35C420.649 119.599 421.906 119.232 423.124 119.362C442.124 121.246 460.665 123.083 478.585 124.86C487.541 125.748 496.344 126.621 504.955 127.479C509.261 127.908 513.528 128.329 517.742 128.75C519.849 128.957 521.948 129.164 524.025 129.37C525.066 129.477 526.101 129.577 527.143 129.677C527.664 129.73 528.177 129.776 528.69 129.83C529.204 129.876 529.74 129.937 530.238 130.105C531.249 130.435 532.115 131.116 532.705 131.989C533.28 132.862 533.578 133.927 533.494 134.968C533.295 136.997 533.096 139.019 532.896 141.025C532.498 145.03 532.107 148.989 531.717 152.887C530.943 160.682 530.192 168.248 529.464 175.569C528.008 190.203 526.652 203.833 525.411 216.277C522.929 241.164 520.914 261.304 519.527 275.226C519.175 278.702 518.868 281.796 518.6 284.476C518.462 285.816 518.34 287.049 518.225 288.182C518.164 288.749 518.125 289.285 518.049 289.798C517.964 290.304 517.819 290.778 517.597 291.192C517.175 292.019 516.57 292.609 515.988 292.991C515.398 293.374 514.831 293.566 514.363 293.658C513.896 293.742 513.536 293.757 513.299 293.742C513.076 293.734 512.954 293.727 512.954 293.727Z" fill="#002E47"/>
<g opacity="0.3">
<path d="M413.555 279.767L510.387 288.833L513.352 270.248L511.498 258.685L414.214 264.153L413.555 279.767Z" fill="#002E47"/>
</g>
<path d="M423.652 126.209L408.826 275.609L512.549 285.892L527.375 136.492L423.652 126.209Z" fill="white"/>
<path d="M512.54 285.878C512.625 285.02 518.578 224.639 527.266 136.461L527.35 136.569C495.885 133.452 460.688 129.968 423.63 126.3H423.614L423.729 126.208C418.16 182.315 413.003 234.15 408.889 275.609L408.813 275.517C471.904 281.811 511.843 285.809 512.54 285.878C511.843 285.809 471.897 281.88 408.805 275.685L408.721 275.678L408.728 275.593C412.835 234.127 417.968 182.292 423.53 126.185L423.538 126.078L423.645 126.085H423.66C460.719 129.761 495.915 133.253 527.373 136.37L527.473 136.377L527.465 136.477C518.654 224.647 512.625 285.012 512.54 285.878Z" fill="#002E47"/>
<path d="M499.578 153.63L451.978 148.913C450.76 148.79 449.863 147.703 449.986 146.485L450.024 146.102C450.147 144.885 451.235 143.989 452.453 144.111L500.053 148.828C501.271 148.951 502.168 150.038 502.045 151.256L502.007 151.639C501.884 152.856 500.796 153.745 499.578 153.63Z" fill="#39B4EF"/>
<path d="M510.733 172.376L454.767 166.832C453.732 166.732 452.982 165.805 453.081 164.779L453.112 164.458C453.211 163.424 454.138 162.673 455.165 162.773L511.132 168.317C512.166 168.417 512.917 169.343 512.817 170.369L512.786 170.691C512.687 171.725 511.768 172.483 510.733 172.376Z" fill="#E2EDFF"/>
<path d="M480.922 176.71L454.054 174.045C453.019 173.946 452.269 173.019 452.368 171.993L452.399 171.672C452.498 170.638 453.425 169.887 454.452 169.987L481.321 172.652C482.355 172.751 483.106 173.678 483.006 174.704L482.976 175.026C482.876 176.059 481.957 176.81 480.922 176.71Z" fill="#E2EDFF"/>
<path d="M508.364 196.268L452.398 190.724C451.363 190.624 450.612 189.698 450.712 188.671L450.743 188.35C450.842 187.316 451.769 186.566 452.796 186.665L508.762 192.209C509.797 192.309 510.548 193.235 510.448 194.261L510.417 194.583C510.318 195.609 509.398 196.367 508.364 196.268Z" fill="#E2EDFF"/>
<path d="M478.555 200.594L451.687 197.929C450.652 197.83 449.901 196.903 450.001 195.877L450.032 195.555C450.131 194.522 451.058 193.771 452.085 193.871L478.954 196.536C479.988 196.635 480.739 197.562 480.639 198.588L480.608 198.909C480.509 199.943 479.589 200.694 478.555 200.594Z" fill="#E2EDFF"/>
<path d="M505.989 220.152L450.023 214.608C448.988 214.508 448.237 213.582 448.337 212.556L448.368 212.234C448.467 211.2 449.394 210.45 450.421 210.549L506.387 216.094C507.422 216.193 508.173 217.12 508.073 218.146L508.042 218.467C507.943 219.494 507.023 220.252 505.989 220.152Z" fill="#E2EDFF"/>
<path d="M476.18 224.478L449.312 221.814C448.277 221.714 447.526 220.787 447.626 219.761L447.657 219.44C447.756 218.406 448.683 217.655 449.71 217.755L476.578 220.42C477.613 220.519 478.364 221.446 478.264 222.472L478.233 222.794C478.134 223.827 477.214 224.586 476.18 224.478Z" fill="#E2EDFF"/>
<path d="M503.622 244.036L447.655 238.492C446.621 238.393 445.87 237.466 445.97 236.44L446 236.118C446.1 235.085 447.027 234.334 448.054 234.434L504.02 239.978C505.055 240.077 505.805 241.004 505.706 242.03L505.675 242.352C505.576 243.385 504.656 244.136 503.622 244.036Z" fill="#E2EDFF"/>
<path d="M473.813 248.363L446.944 245.698C445.91 245.598 445.159 244.672 445.259 243.646L445.29 243.324C445.389 242.29 446.316 241.54 447.343 241.639L474.211 244.304C475.246 244.404 475.996 245.33 475.897 246.356L475.866 246.678C475.767 247.712 474.847 248.47 473.813 248.363Z" fill="#E2EDFF"/>
<path d="M500.321 264.773L444.355 259.229C443.32 259.13 442.569 258.203 442.669 257.177L442.7 256.855C442.799 255.821 443.726 255.071 444.753 255.17L500.72 260.715C501.754 260.814 502.505 261.741 502.405 262.767L502.374 263.088C502.275 264.122 501.355 264.88 500.321 264.773Z" fill="#E2EDFF"/>
<path d="M504.15 138.965L450.965 133.697L452.244 120.824C452.382 119.415 453.639 118.389 455.048 118.527L503.131 123.29C504.541 123.428 505.568 124.684 505.43 126.093L504.15 138.965Z" fill="#002E47"/>
<path d="M486.43 115.778L472.893 114.438L473.322 126.192L483.519 127.203L486.43 115.778Z" fill="#002E47"/>
<path d="M502.258 123.206C502.25 123.267 491.869 122.287 479.074 121.024C466.272 119.753 455.899 118.681 455.906 118.612C455.914 118.55 466.295 119.531 479.097 120.794C491.892 122.065 502.265 123.145 502.258 123.206Z" fill="#002E47"/>
<path d="M452.397 131.323C452.336 131.315 452.505 129.133 452.773 126.437C453.041 123.749 453.309 121.567 453.37 121.575C453.432 121.582 453.263 123.765 453.003 126.46C452.727 129.156 452.459 131.331 452.397 131.323Z" fill="#002E47"/>
<path d="M502.787 135.152C502.726 135.144 502.872 133.161 503.117 130.718C503.362 128.275 503.607 126.299 503.668 126.307C503.73 126.315 503.584 128.298 503.339 130.741C503.094 133.184 502.849 135.159 502.787 135.152Z" fill="#002E47"/>
<path d="M500.021 136.951C500.013 137.013 489.356 136.009 476.217 134.708C463.077 133.406 452.428 132.303 452.436 132.242C452.443 132.181 463.1 133.184 476.24 134.486C489.379 135.78 500.028 136.89 500.021 136.951Z" fill="#002E47"/>
<g opacity="0.3">
<path d="M505.239 127.954L506.794 134.7L506.48 137.901L503.998 137.648L505.239 127.954Z" fill="#002E47"/>
</g>
<path d="M440.967 173.134L432.907 172.338C431.39 172.184 430.287 170.837 430.433 169.32L431.23 161.265C431.383 159.748 432.731 158.646 434.248 158.791L442.308 159.588C443.825 159.741 444.928 161.089 444.783 162.605L443.986 170.661C443.833 172.177 442.484 173.287 440.967 173.134Z" fill="#39B4EF"/>
<path d="M432.908 165.691L434.41 164.465L436.816 167.061L441.65 163.087L442.776 164.58L436.356 169.68L432.908 165.691Z" fill="white"/>
<path d="M438.079 197.11L430.019 196.314C428.502 196.161 427.399 194.813 427.544 193.297L428.341 185.241C428.494 183.724 429.843 182.622 431.36 182.767L439.419 183.564C440.936 183.717 442.04 185.065 441.894 186.581L441.097 194.637C440.944 196.153 439.588 197.263 438.079 197.11Z" fill="#39B4EF"/>
<path d="M430.02 189.667L431.521 188.441L433.919 191.037L438.754 187.063L439.887 188.556L433.459 193.649L430.02 189.667Z" fill="white"/>
<path d="M435.512 220.872L427.452 220.075C425.935 219.922 424.832 218.574 424.978 217.058L425.775 209.002C425.928 207.486 427.276 206.384 428.793 206.529L436.853 207.325C438.37 207.479 439.473 208.826 439.328 210.343L438.531 218.398C438.378 219.915 437.029 221.025 435.512 220.872Z" fill="#39B4EF"/>
<path d="M427.453 213.436L428.955 212.203L431.353 214.807L436.187 210.825L437.321 212.318L430.901 217.418L427.453 213.436Z" fill="white"/>
<path d="M433.375 244.473C433.375 244.45 433.552 244.473 433.873 244.435C434.195 244.396 434.678 244.281 435.176 243.922C435.666 243.569 436.164 242.926 436.264 242.068C436.348 241.172 436.44 240.162 436.539 239.051C436.647 237.926 436.754 236.7 436.877 235.391C436.907 235.062 436.938 234.725 436.968 234.388C436.999 234.043 437.045 233.714 437.007 233.385C436.938 232.726 436.585 232.083 436.041 231.662C435.766 231.447 435.452 231.286 435.107 231.195C434.77 231.103 434.379 231.095 433.996 231.049C433.222 230.972 432.433 230.896 431.621 230.819C430.012 230.658 428.342 230.498 426.633 230.329C425.836 230.253 425.024 230.559 424.503 231.133C424.243 231.417 424.044 231.761 423.929 232.121C423.814 232.481 423.806 232.887 423.76 233.293C423.599 234.901 423.438 236.455 423.285 237.933C423.209 238.676 423.132 239.396 423.063 240.093C423.032 240.445 422.971 240.79 422.994 241.104C423.017 241.425 423.094 241.731 423.224 242.015C423.484 242.581 423.936 243.033 424.457 243.278C424.971 243.546 425.561 243.539 426.128 243.615C428.326 243.86 430.127 244.059 431.422 244.205C432.012 244.281 432.487 244.335 432.862 244.389C433.207 244.427 433.375 244.458 433.375 244.473C433.375 244.488 433.199 244.481 432.87 244.465C432.494 244.435 432.019 244.404 431.422 244.358C430.119 244.243 428.319 244.09 426.112 243.899C425.829 243.876 425.545 243.845 425.247 243.814C424.94 243.784 424.626 243.692 424.335 243.562C423.745 243.294 423.224 242.796 422.933 242.16C422.787 241.846 422.688 241.494 422.665 241.134C422.634 240.767 422.695 240.414 422.718 240.07C422.787 239.365 422.856 238.645 422.925 237.91C423.071 236.432 423.216 234.878 423.377 233.27C423.423 232.872 423.423 232.458 423.561 232.022C423.691 231.6 423.921 231.202 424.22 230.881C424.818 230.214 425.76 229.854 426.679 229.946C428.388 230.115 430.05 230.283 431.667 230.444C432.471 230.528 433.26 230.605 434.034 230.681C434.417 230.727 434.8 230.735 435.206 230.842C435.597 230.949 435.965 231.133 436.271 231.378C436.892 231.868 437.283 232.604 437.359 233.354C437.405 233.729 437.344 234.097 437.313 234.426C437.275 234.763 437.244 235.1 437.206 235.429C437.068 236.739 436.938 237.964 436.815 239.09C436.693 240.2 436.578 241.211 436.478 242.107C436.348 243.033 435.796 243.707 435.26 244.059C434.716 244.419 434.203 244.511 433.873 244.526C433.552 244.534 433.375 244.473 433.375 244.473Z" fill="#002E47"/>
<path d="M431.145 266.979C431.145 266.956 431.321 266.979 431.643 266.94C431.965 266.902 432.447 266.787 432.945 266.427C433.436 266.075 433.934 265.432 434.033 264.574C434.117 263.678 434.209 262.667 434.309 261.557C434.416 260.431 434.524 259.206 434.646 257.897C434.677 257.567 434.707 257.23 434.738 256.893C434.769 256.549 434.815 256.22 434.776 255.89C434.707 255.232 434.355 254.588 433.811 254.167C433.535 253.953 433.221 253.792 432.876 253.7C432.539 253.608 432.148 253.601 431.765 253.555C430.992 253.478 430.202 253.402 429.39 253.325C427.781 253.164 426.111 253.003 424.403 252.835C423.606 252.758 422.794 253.065 422.273 253.639C422.012 253.922 421.813 254.267 421.698 254.627C421.583 254.979 421.576 255.393 421.53 255.798C421.369 257.407 421.208 258.961 421.055 260.439C420.978 261.182 420.902 261.902 420.833 262.598C420.802 262.951 420.741 263.295 420.764 263.609C420.787 263.931 420.863 264.237 420.993 264.52C421.254 265.087 421.706 265.539 422.227 265.784C422.74 266.052 423.33 266.044 423.897 266.121C426.096 266.366 427.896 266.565 429.191 266.711C429.781 266.787 430.256 266.841 430.632 266.894C430.976 266.94 431.145 266.971 431.145 266.979C431.145 266.994 430.969 266.986 430.639 266.971C430.264 266.94 429.789 266.91 429.191 266.864C427.889 266.749 426.088 266.596 423.882 266.404C423.598 266.381 423.315 266.351 423.016 266.32C422.71 266.289 422.396 266.198 422.104 266.067C421.514 265.799 420.993 265.302 420.702 264.666C420.557 264.352 420.457 264 420.434 263.64C420.404 263.272 420.465 262.92 420.488 262.575C420.557 261.871 420.626 261.151 420.695 260.416C420.84 258.938 420.986 257.384 421.147 255.775C421.193 255.377 421.193 254.964 421.323 254.527C421.453 254.106 421.683 253.708 421.982 253.379C422.579 252.712 423.522 252.352 424.441 252.444C426.15 252.613 427.812 252.781 429.429 252.942C430.233 253.026 431.022 253.103 431.796 253.179C432.179 253.225 432.562 253.233 432.968 253.34C433.359 253.448 433.727 253.631 434.033 253.876C434.654 254.366 435.044 255.109 435.121 255.852C435.167 256.227 435.106 256.595 435.075 256.924C435.037 257.261 435.006 257.598 434.968 257.927C434.83 259.237 434.7 260.462 434.577 261.588C434.455 262.698 434.34 263.709 434.24 264.605C434.11 265.531 433.558 266.205 433.022 266.557C432.478 266.917 431.965 267.009 431.635 267.025C431.313 267.04 431.145 266.979 431.145 266.979Z" fill="#002E47"/>
<path d="M73.0672 275.67C78.2386 273.005 84.3294 272.653 90.0755 273.602C93.163 274.115 96.3808 275.034 98.4801 277.347C100.579 279.659 100.978 283.741 98.5643 285.732C97.1316 286.919 95.132 287.095 93.2703 287.072C88.7731 287.018 83.7855 286.23 80.1923 288.933C78.1467 290.472 76.783 293.037 74.3313 293.795C71.9333 294.538 69.2288 293.122 67.957 290.962C66.6852 288.803 66.6469 286.099 67.2368 283.657C67.2292 283.672 67.8574 278.358 73.0672 275.67Z" fill="#002E47"/>
<path d="M61.2148 265.692C64.379 270.21 70.5234 268.709 73.3735 265.96C76.2235 263.203 77.4264 259.206 78.522 255.4C81.0272 246.693 83.5555 237.565 81.6938 228.706C81.1345 226.056 80.1462 223.414 78.2844 221.446C76.4227 219.478 73.5574 218.314 70.9372 219.003C67.8343 219.823 65.9113 222.855 64.5169 225.742C60.4257 234.227 58.2575 243.63 58.2269 253.049C58.2116 257.445 58.7325 262.062 61.2148 265.692Z" fill="#002E47"/>
<path d="M53.7685 280.41C56.856 276.75 57.4383 271.405 56.0669 266.818C54.6955 262.231 51.5926 258.325 48.0148 255.14C43.824 251.403 38.89 248.501 33.596 246.632C31.5121 245.897 29.3133 245.323 27.1068 245.529C24.908 245.736 22.6862 246.862 21.6672 248.822C20.1502 251.717 21.6059 255.224 23.1765 258.088C25.9499 263.134 29.1217 267.959 32.646 272.507C35.4884 276.168 38.7368 279.774 43.0655 281.429C47.3942 283.083 51.8838 282.883 54.1822 279.889" fill="#002E47"/>
<path d="M61.0013 320.919C61.0626 320.919 61.1545 320.192 61.2847 318.867C61.4303 317.374 61.6142 315.498 61.8287 313.269C62.0892 310.911 62.434 308.108 63.0852 305.053C63.7364 302.005 64.763 298.704 66.0731 295.358C67.4292 292.027 69.0917 289.01 71.0224 286.59C72.9454 284.162 75.1825 282.401 77.2818 281.39C79.3733 280.357 81.258 279.935 82.5528 279.752C83.8629 279.614 84.5984 279.514 84.5984 279.453C84.5984 279.392 83.8629 279.384 82.5222 279.422C81.1891 279.514 79.2354 279.851 77.0213 280.854C74.8071 281.834 72.4321 283.619 70.4171 286.1C68.3869 288.566 66.6631 291.659 65.284 295.044C63.9509 298.452 62.9396 301.783 62.319 304.899C61.6985 308.008 61.415 310.842 61.2235 313.216C61.0472 315.597 60.9783 317.519 60.9476 318.852C60.9247 320.176 60.94 320.912 61.0013 320.919Z" fill="#002E47"/>
<path d="M61.3845 329.496C61.4152 329.496 61.4305 329.166 61.4382 328.546C61.4382 327.834 61.4305 326.93 61.4305 325.82C61.4229 323.461 61.4229 320.038 61.5531 315.819C61.76 307.373 62.4878 298.291 63.8975 285.472C65.2306 273.426 67.0157 259.405 68.9004 250.285C69.3064 248.21 69.7125 246.349 70.0956 244.71C70.4633 243.071 70.7698 241.662 71.0762 240.521C71.3367 239.449 71.5436 238.569 71.7121 237.872C71.85 237.267 71.9037 236.937 71.8807 236.93C71.85 236.922 71.7428 237.228 71.5512 237.826C71.3444 238.507 71.0839 239.373 70.7621 240.437C70.4097 241.57 70.0496 242.972 69.6435 244.603C69.2145 246.226 68.7701 248.087 68.3258 250.162C66.4641 258.425 64.4874 269.965 63.0701 282.807C61.6604 295.649 61.0245 307.334 60.9708 315.804C60.9172 320.038 61.0091 323.461 61.1164 325.828C61.1853 326.93 61.239 327.834 61.2849 328.546C61.3156 329.174 61.3539 329.496 61.3845 329.496Z" fill="#002E47"/>
<path d="M61.783 311.669C61.8366 311.669 61.829 310.757 61.7677 309.111C61.6758 307.465 61.4459 305.091 60.9862 302.189C60.4959 299.286 59.8064 295.84 58.7338 292.096C58.2664 290.38 57.1709 286.284 54.5123 280.157C51.0111 271.857 46.2533 265.064 42.1162 260.86C41.1432 259.742 40.0629 258.938 39.1972 258.149C38.7528 257.774 38.3544 257.391 37.9484 257.093C37.5423 256.817 37.1669 256.557 36.8145 256.312C35.4508 255.377 34.6923 254.887 34.6616 254.933C34.5391 255.102 37.7109 256.962 41.7178 261.228C45.7094 265.478 50.3369 272.224 53.8075 280.456C55.7458 284.921 57.0942 288.903 58.0519 292.287C59.1628 295.993 59.8907 299.409 60.4499 302.28C60.9786 305.16 61.285 307.511 61.4689 309.142C61.6221 310.765 61.7294 311.669 61.783 311.669Z" fill="#002E47"/>
<path d="M40.7363 309.157L43.7166 339.152H78.9361L81.1273 309.157H40.7363Z" fill="#39B4EF"/>
<path d="M86.2144 302.97H36.4766V314.441H86.2144V302.97Z" fill="#39B4EF"/>
<path d="M82.268 314.249C82.268 314.379 72.8981 314.479 61.3371 314.479C49.776 314.479 40.3984 314.372 40.3984 314.249C40.3984 314.119 49.7683 314.02 61.3371 314.02C72.8981 314.02 82.268 314.127 82.268 314.249Z" fill="#002E47"/>
<path d="M439.419 230.574C442.43 230.735 444.69 227.243 444.101 224.287C443.511 221.331 440.921 219.141 438.132 217.985C435.351 216.829 432.31 216.484 429.383 215.734C420.703 213.513 413.049 207.548 408.781 199.675C407.379 197.087 406.123 193.879 404.974 190.302C400.875 173.027 395.19 148.331 393.803 138.713C390.218 113.864 383.874 86.5872 348.356 89.1295C348.356 89.1295 324.744 93.5709 315.68 110.502C307.712 125.389 312.309 170.278 311.259 202.616L319.005 207.28L320.2 207.348C321.158 210.695 322.522 213.842 324.468 216.622C331.547 226.707 341.162 234.801 351.604 241.348C372.689 254.573 397.925 261.794 422.695 259.306C427.927 258.777 433.229 257.797 437.803 255.201C442.377 252.613 446.161 248.179 446.851 242.972C447.548 237.757 444.491 231.983 439.419 230.574Z" fill="#002E47"/>
<path d="M343.636 98.3801L345.858 96.2666L369.869 105.938C373.34 106.13 376.09 108.948 376.197 112.424L375.983 190.632C376.013 195.939 374.948 200.526 371.746 204.753L368.375 209.202C360.683 219.348 344.87 218.513 338.779 207.333C338.35 206.552 338.059 205.863 337.929 205.312C337.798 204.615 337.607 204.155 337.568 203.566C336.856 197.271 336.81 191.819 336.81 191.819C336.381 184.912 336.243 182.078 336.243 182.14C336.243 182.14 321.533 180.447 317.557 161.579C315.58 152.19 315.956 139.28 316.507 126.576C317.289 108.986 329.493 98.3648 343.636 98.3801Z" fill="white"/>
<path d="M344.832 139.448C344.848 140.742 345.958 141.784 347.307 141.791C348.655 141.799 349.728 140.758 349.713 139.463C349.69 138.169 348.586 137.12 347.238 137.12C345.897 137.113 344.817 138.154 344.832 139.448Z" fill="#002E47"/>
<path d="M321.387 139.448C321.402 140.742 322.513 141.784 323.862 141.791C325.21 141.799 326.283 140.758 326.267 139.463C326.244 138.169 325.141 137.12 323.793 137.12C322.444 137.113 321.372 138.154 321.387 139.448Z" fill="#002E47"/>
<path d="M319.035 131.599C319.357 131.905 321.134 130.443 323.762 130.32C326.382 130.159 328.382 131.415 328.65 131.078C328.78 130.925 328.443 130.374 327.578 129.8C326.719 129.233 325.279 128.712 323.647 128.804C322.015 128.896 320.667 129.57 319.908 130.221C319.119 130.872 318.874 131.461 319.035 131.599Z" fill="#002E47"/>
<path d="M345.683 131.867C346.035 132.135 347.651 130.496 350.256 130.105C352.846 129.677 354.96 130.718 355.19 130.358C355.305 130.197 354.915 129.677 353.987 129.202C353.076 128.727 351.589 128.352 349.973 128.612C348.356 128.873 347.085 129.677 346.395 130.404C345.705 131.139 345.514 131.752 345.683 131.867Z" fill="#002E47"/>
<path d="M336.511 150.98C336.518 150.827 334.871 150.628 332.205 150.421C331.531 150.383 330.887 150.283 330.757 149.832C330.573 149.357 330.818 148.622 331.102 147.825C331.653 146.171 332.228 144.441 332.825 142.618C335.216 135.213 336.909 129.133 336.61 129.041C336.311 128.949 334.128 134.876 331.737 142.281C331.163 144.104 330.619 145.85 330.098 147.511C329.883 148.285 329.493 149.173 329.883 150.161C330.09 150.651 330.596 150.988 331.033 151.087C331.469 151.195 331.845 151.187 332.182 151.187C334.856 151.202 336.511 151.133 336.511 150.98Z" fill="#002E47"/>
<path d="M336.25 182.132C336.25 182.132 349.09 182.316 361.395 174.061C361.395 174.061 355.649 187.553 336.51 186.726L336.25 182.132Z" fill="white"/>
<path d="M337.936 157.252C338.817 155.958 340.441 155.184 342.088 155.284C343.237 155.353 344.417 155.843 345.153 156.731C345.888 157.627 346.103 158.937 345.52 159.848C344.861 160.882 343.39 161.18 342.119 160.889C340.847 160.598 339.728 159.825 338.663 159.052C338.372 158.837 338.066 158.615 337.874 158.316C337.683 158.018 337.621 157.612 337.828 157.336" fill="white"/>
<path d="M344.333 152.413C343.904 152.413 344.042 155.261 341.705 157.405C339.368 159.557 336.319 159.389 336.311 159.787C336.281 159.971 337.016 160.308 338.303 160.277C339.56 160.254 341.383 159.764 342.808 158.447C344.233 157.13 344.793 155.445 344.831 154.273C344.877 153.071 344.524 152.382 344.333 152.413Z" fill="#002E47"/>
<path d="M343.169 121.636C343.537 122.303 346.08 121.567 349.183 121.468C352.286 121.307 354.883 121.82 355.19 121.123C355.328 120.794 354.791 120.197 353.696 119.661C352.608 119.132 350.93 118.719 349.068 118.795C347.207 118.872 345.575 119.423 344.533 120.043C343.491 120.679 343.008 121.322 343.169 121.636Z" fill="#002E47"/>
<path d="M319.41 120.319C319.901 120.893 321.678 120.181 323.854 120.043C326.022 119.829 327.891 120.242 328.282 119.599C328.451 119.285 328.129 118.703 327.302 118.182C326.482 117.662 325.133 117.264 323.639 117.386C322.145 117.509 320.881 118.114 320.153 118.764C319.41 119.415 319.188 120.036 319.41 120.319Z" fill="#002E47"/>
<path d="M375.722 145.796C375.722 145.796 362.269 149.977 354.661 116.796C352.056 105.448 341.537 96.2587 341.537 96.2587L345.804 94.9722C345.804 94.9722 372.328 102.438 372.78 102.775C373.225 103.112 379.476 116.49 379.476 116.49L375.722 145.796Z" fill="#002E47"/>
<path d="M372.405 144.563C372.336 143.146 373.807 139.723 375.193 139.432C378.902 138.659 385.651 138.628 386.195 148.109C386.931 161.073 373.753 159.136 373.715 158.768C373.684 158.485 372.642 149.456 372.405 144.563Z" fill="white"/>
<path d="M377.4 153.638C377.453 153.592 377.637 153.783 378.028 153.936C378.411 154.082 379.055 154.166 379.721 153.875C381.062 153.293 382.096 151.057 382.027 148.714C381.997 147.535 381.683 146.424 381.215 145.513C380.763 144.586 380.112 143.958 379.415 143.874C378.718 143.752 378.258 144.196 378.12 144.571C377.967 144.946 378.066 145.199 377.997 145.222C377.967 145.26 377.706 145.023 377.783 144.479C377.821 144.219 377.959 143.905 378.25 143.637C378.549 143.369 378.993 143.208 379.484 143.239C380.487 143.254 381.437 144.119 381.958 145.115C382.533 146.11 382.908 147.358 382.947 148.683C383.016 151.302 381.813 153.821 379.966 154.472C379.07 154.763 378.289 154.534 377.882 154.243C377.438 153.944 377.354 153.661 377.4 153.638Z" fill="white"/>
<path d="M386.686 193.557C386.686 193.557 386.418 191.956 386.402 189.023C386.372 186.098 386.74 181.856 387.659 176.71C388.119 174.137 388.632 171.319 389.168 168.294C389.689 165.269 390.157 162.023 390.333 158.577C390.494 155.146 390.386 151.493 389.551 147.848C389.13 146.026 388.54 144.211 387.728 142.465C386.923 140.711 385.866 139.05 384.656 137.48C382.219 134.34 379.308 131.729 376.489 129.255C373.646 126.797 370.926 124.378 368.505 121.904C363.633 116.98 359.779 112.049 356.845 107.722C353.895 103.396 351.857 99.6739 350.524 97.0703C349.858 95.7685 349.367 94.7424 349.053 94.0379C348.9 93.701 348.777 93.4329 348.693 93.2415C348.616 93.0577 348.578 92.9658 348.578 92.9658C348.586 92.9658 348.632 93.0501 348.724 93.2262C348.823 93.4176 348.954 93.678 349.114 94.0073C349.452 94.6965 349.965 95.7149 350.647 97.0014C352.018 99.582 354.079 103.273 357.052 107.569C360.009 111.865 363.87 116.766 368.743 121.667C371.164 124.132 373.876 126.529 376.726 128.987C379.553 131.461 382.488 134.08 384.947 137.258C386.173 138.843 387.245 140.528 388.057 142.312C388.877 144.088 389.482 145.926 389.904 147.772C390.746 151.463 390.846 155.146 390.678 158.6C390.494 162.061 390.019 165.323 389.475 168.348C388.915 171.365 388.394 174.183 387.919 176.756C386.969 181.894 386.571 186.106 386.556 189.031C386.54 190.494 386.586 191.627 386.64 192.393C386.663 192.76 386.686 193.051 386.694 193.266C386.686 193.457 386.686 193.557 386.686 193.557Z" fill="#002E47"/>
<path d="M390.862 194.782C390.862 194.782 390.594 193.182 390.578 190.249C390.548 187.323 390.915 183.081 391.835 177.935C392.294 175.362 392.808 172.544 393.344 169.519C393.865 166.495 394.332 163.248 394.509 159.802C394.669 156.371 394.562 152.719 393.727 149.074C393.306 147.251 392.716 145.436 391.904 143.69C391.099 141.937 390.042 140.275 388.831 138.705C386.395 135.565 383.484 132.954 380.664 130.481C377.822 128.023 375.102 125.603 372.681 123.129C367.809 118.205 363.955 113.274 361.021 108.947C358.071 104.621 356.033 100.899 354.7 98.3032C354.033 97.0014 353.543 95.9753 353.229 95.2708C353.076 94.9339 352.953 94.6658 352.869 94.4744C352.792 94.2906 352.754 94.1987 352.754 94.1987C352.762 94.1987 352.808 94.283 352.899 94.4591C352.999 94.6505 353.129 94.9109 353.29 95.2402C353.627 95.9294 354.141 96.9478 354.822 98.2343C356.194 100.815 358.255 104.506 361.227 108.802C364.185 113.098 368.046 117.999 372.919 122.9C375.34 125.365 378.052 127.762 380.902 130.22C383.729 132.694 386.663 135.313 389.123 138.491C390.348 140.076 391.421 141.76 392.233 143.545C393.053 145.321 393.658 147.159 394.08 149.005C394.922 152.696 395.022 156.379 394.853 159.833C394.669 163.294 394.194 166.556 393.65 169.581C393.091 172.598 392.57 175.416 392.095 177.989C391.145 183.127 390.747 187.339 390.731 190.256C390.716 191.719 390.762 192.852 390.816 193.618C390.839 193.986 390.862 194.277 390.869 194.491C390.862 194.675 390.862 194.782 390.862 194.782Z" fill="#002E47"/>
<path d="M196.014 208.76L196.013 208.76C194.297 207.009 192.443 205.193 191.019 203.815C190.307 203.126 189.702 202.546 189.276 202.138C189.062 201.935 188.893 201.774 188.777 201.664L188.645 201.538L188.611 201.506L188.608 201.504L185.262 197.991L184.787 197.492L184.46 198.098C184.285 198.421 184.159 198.769 184.057 199.084C183.854 199.701 183.695 200.18 183.357 200.496C183.057 200.774 182.64 200.89 182.144 200.859C181.645 200.828 181.107 200.65 180.644 200.394C178.647 199.286 177.316 197.061 177.302 194.802L177.302 194.802C177.287 192.629 178.482 190.499 180.338 189.341L180.502 189.238L180.554 189.052C180.707 188.512 180.955 187.974 181.371 187.44L181.372 187.439C182.656 185.788 184.853 185.031 186.823 184.703C187.795 184.541 188.685 184.488 189.332 184.476C189.655 184.47 189.916 184.474 190.095 184.479C190.185 184.482 190.254 184.485 190.3 184.488L190.351 184.49L190.363 184.491L190.365 184.491L190.365 184.491L190.366 184.491L190.366 184.491L191.43 184.567L190.806 183.7L189.803 182.307L189.744 182.225L189.659 182.173L189.397 182.599C189.659 182.173 189.658 182.173 189.658 182.173L189.657 182.172L189.655 182.171L189.65 182.168L189.635 182.159C189.623 182.152 189.606 182.142 189.585 182.131C189.543 182.107 189.482 182.076 189.405 182.038C189.25 181.963 189.026 181.865 188.735 181.765C188.153 181.564 187.306 181.354 186.22 181.299C184.042 181.19 180.94 181.712 177.124 184.137C176.095 184.785 174.869 185.085 173.695 184.893L173.694 184.893C172.961 184.774 172.35 184.483 172.013 183.92L172.013 183.919C171.764 183.505 171.666 183.176 171.674 182.88C171.683 182.589 171.797 182.262 172.102 181.856C172.736 181.015 174.071 179.99 176.393 178.469C178.664 176.985 181.135 175.905 183.456 175.353C185.786 174.799 187.918 174.787 189.539 175.38C191.276 176.016 192.458 176.511 193.203 176.846C193.575 177.013 193.838 177.14 194.006 177.224C194.09 177.266 194.15 177.297 194.188 177.318C194.207 177.328 194.221 177.335 194.229 177.34L194.238 177.344L194.239 177.345L194.239 177.345C194.239 177.345 194.239 177.345 194.239 177.345L194.907 176.642L194.484 176.909C194.907 176.642 194.907 176.642 194.907 176.642L194.906 176.642L194.905 176.64L194.901 176.633L194.883 176.604L194.813 176.495L194.549 176.077L193.603 174.578C192.817 173.334 191.765 171.667 190.697 169.974C188.556 166.578 186.368 163.098 186.13 162.684L186.129 162.684C185.451 161.51 185.106 160.306 185.102 159.293C185.098 158.278 185.429 157.513 186.032 157.086C186.428 156.805 186.969 156.641 187.587 156.818C188.215 156.998 189.01 157.555 189.845 158.902C190.241 159.54 191.714 161.465 193.664 163.955C195.627 166.459 198.102 169.569 200.528 172.602C202.955 175.635 205.335 178.592 207.107 180.791C207.994 181.89 208.729 182.8 209.242 183.435L209.837 184.17L209.993 184.364L210.033 184.413L210.037 184.418L217.659 195.048L222.308 204.408L206.314 213.207L205.089 213.092C201.659 212.766 198.436 211.233 196.014 208.76ZM185.696 162.934C184.271 160.468 184.187 157.78 185.742 156.678C186.738 155.973 188.524 155.82 190.27 158.638L185.696 162.934Z" fill="white" stroke="#002E47"/>
<path d="M215.36 195.211C214.211 196.437 212.158 196.291 210.648 195.525C209.139 194.759 207.936 193.504 206.481 192.631C202.144 190.019 196.253 191.107 192.046 188.289C191.457 187.898 190.859 187.232 191.119 186.581C191.357 185.976 192.146 185.861 192.805 185.831C198.382 185.593 203.96 185.348 209.545 185.111" fill="white"/>
<path d="M209.538 185.111C209.538 185.042 208.887 185.011 207.723 185.003C206.558 184.996 204.865 185.019 202.781 185.065C200.613 185.126 198.146 185.203 195.457 185.279C194.767 185.302 194.062 185.325 193.342 185.356C192.676 185.432 191.764 185.233 190.929 186.022C190.53 186.435 190.515 187.155 190.768 187.584C190.998 188.036 191.327 188.342 191.687 188.603C192.384 189.062 193.097 189.453 193.878 189.743C196.989 190.923 200.092 190.976 202.712 191.62C204.03 191.926 205.233 192.347 206.252 192.937C207.271 193.526 208.144 194.269 209.017 194.874C210.726 196.176 212.657 196.551 213.836 196.207C215.055 195.885 215.407 195.196 215.369 195.196C215.307 195.119 214.871 195.671 213.76 195.847C212.649 196.03 211.002 195.64 209.416 194.33C208.596 193.718 207.746 192.937 206.658 192.263C205.57 191.589 204.283 191.107 202.919 190.77C200.199 190.057 197.104 189.966 194.223 188.855C193.511 188.587 192.836 188.22 192.239 187.829C191.664 187.431 191.358 186.864 191.641 186.619C191.902 186.305 192.676 186.267 193.388 186.244C194.108 186.206 194.813 186.175 195.503 186.137C198.192 185.984 200.651 185.846 202.819 185.723C204.903 185.593 206.581 185.471 207.746 185.363C208.902 185.271 209.538 185.18 209.538 185.111Z" fill="white"/>
<path d="M190.624 183.962C190.532 184.046 189.988 182.775 188.18 181.956C187.291 181.557 186.103 181.412 184.847 181.695C183.583 181.963 182.273 182.591 180.955 183.357C179.63 184.123 178.335 184.881 177.017 185.31C175.707 185.731 174.427 185.861 173.378 185.624C172.305 185.394 171.646 184.659 171.424 184.13C171.187 183.587 171.202 183.257 171.225 183.257C171.286 183.242 171.355 183.556 171.639 184.023C171.915 184.483 172.512 185.049 173.47 185.21C174.412 185.379 175.615 185.218 176.833 184.789C178.059 184.36 179.308 183.61 180.649 182.836C181.982 182.063 183.368 181.404 184.74 181.152C186.103 180.876 187.437 181.083 188.371 181.573C189.321 182.048 189.911 182.698 190.241 183.166C190.562 183.633 190.654 183.947 190.624 183.962Z" fill="white"/>
<path d="M185.176 161.977C185.253 161.938 185.866 162.942 186.846 164.573C187.942 166.38 189.252 168.539 190.7 170.928C192.179 173.295 193.519 175.431 194.645 177.223C195.664 178.831 196.293 179.827 196.216 179.88C196.147 179.926 195.396 179.015 194.278 177.468C193.159 175.921 191.696 173.723 190.164 171.25C188.639 168.769 187.337 166.479 186.455 164.787C185.574 163.095 185.099 162.015 185.176 161.977Z" fill="white"/>
<path d="M189.48 188.748C189.48 188.794 189.136 188.832 188.53 188.916C187.956 189.016 186.983 189.192 186.439 190.057C186.171 190.471 186.163 191.022 186.431 191.574C186.676 192.125 187.144 192.623 187.611 193.205C188.071 193.771 188.607 194.514 188.576 195.464C188.538 196.383 187.994 197.233 187.205 197.738C186.401 198.259 185.412 198.312 184.577 198.106C183.734 197.891 182.999 197.47 182.463 196.865C181.474 195.686 180.877 194.491 180.417 193.457C179.98 192.416 179.766 191.512 179.743 190.877C179.72 190.233 179.858 189.897 179.881 189.904C179.934 189.912 179.888 190.256 179.98 190.854C180.072 191.451 180.34 192.293 180.815 193.281C181.298 194.254 181.949 195.425 182.884 196.482C183.78 197.439 185.565 198.037 186.868 197.217C187.504 196.811 187.933 196.115 187.971 195.433C188.002 194.744 187.603 194.108 187.159 193.549C186.715 192.983 186.224 192.431 185.956 191.773C185.65 191.137 185.68 190.333 186.063 189.828C186.814 188.794 187.91 188.717 188.5 188.679C189.136 188.664 189.48 188.717 189.48 188.748Z" fill="white"/>
<path d="M184.556 197.57C184.579 197.547 184.824 197.784 184.947 198.358C185.061 198.91 184.993 199.852 184.249 200.648C183.522 201.429 182.165 201.866 180.794 201.521C179.423 201.184 178.174 200.166 177.346 198.841C176.511 197.501 176.182 195.977 176.289 194.629C176.381 193.274 176.902 192.125 177.477 191.306C178.059 190.471 178.695 189.943 179.162 189.636C179.63 189.33 179.928 189.231 179.944 189.261C180.02 189.353 178.863 189.92 177.837 191.543C177.339 192.347 176.902 193.427 176.848 194.667C176.779 195.9 177.101 197.302 177.86 198.519C178.618 199.737 179.744 200.663 180.924 200.977C182.097 201.307 183.276 200.97 183.928 200.342C184.586 199.714 184.732 198.894 184.694 198.389C184.671 197.868 184.51 197.593 184.556 197.57Z" fill="white"/>
<path d="M199.142 200.832C199.112 200.786 199.525 200.403 200.414 200.081C201.287 199.76 202.689 199.561 204.199 200.066L203.831 200.464C203.548 199.875 203.272 199.224 203.034 198.527C201.693 194.667 202.199 191.313 202.345 191.359C202.536 191.359 202.322 194.614 203.616 198.328C203.846 199.002 204.107 199.637 204.367 200.212L204.658 200.847L204.007 200.61C202.666 200.12 201.372 200.227 200.521 200.426C199.663 200.64 199.188 200.901 199.142 200.832Z" fill="white"/>
<path d="M184.953 178.54C185.114 178.525 185.19 179.781 184.34 180.991C183.497 182.201 182.287 182.561 182.241 182.408C182.164 182.247 183.106 181.703 183.834 180.639C184.585 179.59 184.777 178.517 184.953 178.54Z" fill="white"/>
<path d="M306.976 254.137C306.976 254.137 258.931 277.477 247.263 276.612C235.901 275.77 215.008 240.307 209.737 230.436C205.294 222.12 202.053 214.922 202.053 214.922L220.831 199.614L223.895 202.371L253.614 237.642C257.054 237.642 287.041 218.169 287.041 218.169C287.041 218.169 304.187 202.685 310.707 201.705C317.227 200.725 313.273 215.42 313.273 215.42L306.976 254.137Z" fill="#39B4EF"/>
<path d="M410.007 208.374L381.69 194.866L382.418 194.392L376.159 183.839L349.367 203.642L336.251 187.745L330.083 195.816L310.7 201.72L306.103 219.149L299.56 234.648C293.408 249.228 293.952 265.347 298.503 280.502C298.534 280.602 298.503 280.502 298.534 280.602C302.893 294.921 309.543 297.364 307.13 313.024C306.578 316.6 303.988 339.252 303.988 339.252H408.636L397.664 306.163L410.007 208.374Z" fill="#39B4EF"/>
<path d="M303.161 221.615C303.176 221.615 303.207 221.783 303.26 222.12C303.314 222.488 303.375 222.97 303.46 223.575C303.62 224.885 303.85 226.715 304.134 228.974V229.004L304.126 229.035C302.678 233.683 300.709 240.391 299.292 247.988C298.61 251.648 298.127 255.163 297.844 258.379C297.537 261.595 297.53 264.498 297.576 266.94C297.66 269.376 297.867 271.344 298.058 272.691C298.158 273.335 298.234 273.855 298.288 274.246C298.334 274.606 298.357 274.79 298.342 274.797C298.326 274.797 298.28 274.613 298.212 274.261C298.135 273.871 298.035 273.358 297.905 272.714C297.668 271.367 297.422 269.399 297.3 266.948C297.216 264.505 297.193 261.58 297.484 258.349C297.744 255.117 298.219 251.587 298.909 247.911C300.334 240.284 302.356 233.584 303.881 228.943L303.873 228.997C303.643 226.73 303.46 224.9 303.322 223.583C303.268 222.978 303.222 222.495 303.191 222.12C303.153 221.791 303.145 221.615 303.161 221.615Z" fill="#002E47"/>
<path d="M343.039 338.463C343.031 338.463 343.016 338.355 342.985 338.141C342.954 337.911 342.916 337.597 342.862 337.199C342.763 336.349 342.617 335.131 342.433 333.577C342.341 332.788 342.242 331.915 342.134 330.958C342.058 329.993 341.974 328.952 341.882 327.834C341.79 326.708 341.698 325.513 341.591 324.242C341.483 322.971 341.445 321.623 341.361 320.207C341.292 318.79 341.215 317.312 341.138 315.765C341.1 314.218 341.062 312.61 341.016 310.949C340.893 307.618 340.955 304.057 340.932 300.312C341.024 292.823 341.307 284.591 341.82 275.968C342.885 258.708 344.487 243.14 345.628 231.876C346.21 226.263 346.685 221.706 347.022 218.536C347.191 216.981 347.321 215.764 347.421 214.914C347.467 214.516 347.505 214.202 347.536 213.972C347.566 213.758 347.582 213.65 347.589 213.65C347.597 213.65 347.589 213.758 347.582 213.972C347.566 214.202 347.536 214.516 347.505 214.914C347.429 215.764 347.321 216.981 347.183 218.544C346.885 221.714 346.448 226.27 345.919 231.891C344.847 243.163 343.291 258.731 342.226 275.984C341.713 284.606 341.414 292.831 341.307 300.312C341.322 304.057 341.246 307.61 341.353 310.933C341.384 312.595 341.422 314.203 341.453 315.75C341.522 317.289 341.591 318.775 341.652 320.184C341.728 321.6 341.759 322.948 341.851 324.219C341.943 325.49 342.027 326.685 342.112 327.811C342.188 328.929 342.265 329.978 342.334 330.935C342.433 331.892 342.518 332.765 342.594 333.554C342.747 335.116 342.862 336.334 342.947 337.184C342.985 337.582 343.008 337.896 343.031 338.126C343.039 338.355 343.046 338.463 343.039 338.463Z" fill="#002E47"/>
<path d="M348.923 204.454C348.946 204.477 348.678 204.752 348.241 205.288C347.797 205.824 347.207 206.651 346.502 207.708C345.1 209.829 343.284 212.908 341.353 216.53L341.192 216.828L341.016 216.545C340.265 215.343 339.515 214.033 338.764 212.678C336.282 208.114 334.244 203.887 332.65 200.893C331.861 199.392 331.194 198.19 330.735 197.363C330.52 196.98 330.344 196.666 330.198 196.406C330.083 196.183 330.022 196.069 330.037 196.061C330.053 196.053 330.129 196.16 330.267 196.367C330.428 196.612 330.627 196.919 330.865 197.286C331.363 198.098 332.075 199.277 332.895 200.763C334.558 203.734 336.634 207.946 339.109 212.487C339.852 213.842 340.603 215.136 341.338 216.338L341.001 216.354C342.955 212.732 344.816 209.669 346.287 207.57C347.023 206.529 347.651 205.717 348.134 205.204C348.356 204.936 348.57 204.76 348.701 204.63C348.839 204.507 348.915 204.446 348.923 204.454Z" fill="#002E47"/>
<path d="M382.411 194.391C382.419 194.399 382.304 194.529 382.066 194.767C381.798 195.027 381.453 195.372 381.024 195.793C380.105 196.666 378.764 197.922 377.079 199.438C373.708 202.47 368.988 206.582 363.648 210.978C362.039 212.303 360.469 213.574 358.944 214.761C357.427 215.948 355.979 217.066 354.539 218.008L354.363 218.123L354.286 217.923C353.52 216.017 353.19 214.179 352.8 212.578C352.439 210.97 352.079 209.577 351.712 208.451C351.336 207.325 350.961 206.475 350.654 205.916C350.348 205.357 350.149 205.082 350.172 205.066C350.179 205.059 350.233 205.128 350.333 205.258C350.425 205.396 350.593 205.579 350.746 205.863C351.091 206.406 351.505 207.256 351.911 208.382C352.317 209.508 352.7 210.901 353.083 212.51C353.489 214.102 353.849 215.94 354.608 217.786L354.347 217.709C355.749 216.782 357.19 215.649 358.699 214.455C360.208 213.26 361.779 211.989 363.388 210.664C368.728 206.276 373.47 202.195 376.887 199.216C378.557 197.746 379.921 196.536 380.909 195.67C381.361 195.272 381.721 194.951 381.997 194.705C382.265 194.491 382.403 194.384 382.411 194.391Z" fill="#002E47"/>
<path d="M408.735 210.021C408.75 210.044 408.39 210.312 407.731 210.763C407.394 210.986 406.995 211.269 406.551 211.629C406.107 211.989 405.578 212.364 405.049 212.854C404.505 213.329 403.923 213.842 403.341 214.462C402.728 215.044 402.153 215.733 401.533 216.445C400.338 217.916 399.135 219.616 398.078 221.53C397.043 223.452 396.254 225.39 395.672 227.189C395.411 228.1 395.143 228.958 394.982 229.785C394.783 230.604 394.661 231.378 394.553 232.09C394.423 232.795 394.392 233.445 394.331 234.012C394.262 234.579 394.247 235.069 394.239 235.475C394.216 236.279 394.186 236.723 394.155 236.723C394.124 236.723 394.101 236.279 394.078 235.475C394.063 235.069 394.055 234.579 394.101 234.004C394.14 233.43 394.147 232.772 394.262 232.059C394.346 231.34 394.454 230.551 394.645 229.724C394.791 228.881 395.051 228.009 395.304 227.09C395.879 225.259 396.66 223.299 397.71 221.346C398.782 219.409 400.008 217.686 401.234 216.216C401.87 215.504 402.468 214.807 403.096 214.232C403.693 213.62 404.299 213.107 404.85 212.647C405.386 212.165 405.938 211.797 406.398 211.46C406.857 211.116 407.271 210.848 407.624 210.641C408.328 210.22 408.719 209.998 408.735 210.021Z" fill="#002E47"/>
<path d="M435.872 271.014C435.872 271.014 429.69 244.013 427.345 233.737C422.925 214.309 410 208.367 410 208.367L394.44 250.637L404.07 294.783L361.335 288.634L354.102 286.812L348.893 311.6L362.438 317.105C362.438 317.105 410.697 335.262 424.94 333.546C439.182 331.823 442.048 315.75 442.109 309.134C442.216 297.778 435.872 271.014 435.872 271.014Z" fill="#39B4EF"/>
<path d="M326.031 275.003L308.05 238.683C306.832 236.217 304.296 234.655 301.523 234.655H256.343C254.665 234.655 253.593 236.424 254.39 237.894L284.974 294.485C285.832 296.07 287.502 297.058 289.318 297.058H336.183L326.031 275.003Z" fill="#E2EDFF"/>
<path d="M322.646 274.322C322.638 274.322 322.6 274.261 322.523 274.123C322.439 273.97 322.332 273.771 322.201 273.518C321.918 272.959 321.512 272.178 321.006 271.183C319.972 269.123 318.493 266.182 316.67 262.56C314.846 258.907 312.686 254.566 310.288 249.749C309.093 247.337 307.836 244.802 306.534 242.175C306.204 241.525 305.883 240.843 305.545 240.2C305.201 239.564 304.733 238.99 304.182 238.507C303.086 237.535 301.615 236.945 300.106 236.915C287.679 236.892 276.432 236.869 268.257 236.853C264.205 236.83 260.91 236.807 258.604 236.792C257.485 236.777 256.604 236.761 255.976 236.754C255.693 236.746 255.47 236.739 255.294 236.731C255.141 236.723 255.064 236.716 255.064 236.708C255.064 236.7 255.141 236.693 255.294 236.685C255.47 236.677 255.693 236.67 255.976 236.662C256.604 236.654 257.485 236.639 258.604 236.624C260.91 236.608 264.205 236.585 268.257 236.562C276.432 236.547 287.687 236.532 300.114 236.509C301.715 236.539 303.278 237.16 304.442 238.201C305.024 238.714 305.522 239.327 305.89 240.001C306.25 240.675 306.557 241.333 306.886 241.992C308.181 244.618 309.43 247.153 310.625 249.573C312.992 254.405 315.13 258.754 316.93 262.422C318.7 266.067 320.14 269.023 321.152 271.098C321.634 272.109 322.01 272.898 322.278 273.465C322.393 273.717 322.492 273.924 322.561 274.085C322.623 274.246 322.653 274.322 322.646 274.322Z" fill="#002E47"/>
<path d="M282.897 246.946C282.322 248.133 282.882 249.167 283.801 249.817C284.72 250.468 285.854 250.338 286.46 249.618C286.858 249.144 287.034 248.37 286.743 247.643C286.452 246.915 285.134 245.751 284.184 246.019C284.184 246.019 283.181 246.356 282.897 246.946Z" fill="white"/>
<path d="M350.122 286.109L350.532 285.824L350.122 286.109L350.121 286.109L350.121 286.108L350.118 286.104L350.109 286.09L350.07 286.035L349.922 285.823C349.794 285.639 349.608 285.374 349.38 285.049C348.922 284.4 348.294 283.513 347.606 282.562C346.225 280.649 344.631 278.508 343.718 277.498C343.291 277.026 342.282 276.217 340.958 275.245C339.649 274.284 338.076 273.193 336.557 272.165C335.039 271.137 333.579 270.173 332.499 269.466C331.958 269.113 331.513 268.824 331.203 268.623C331.048 268.523 330.926 268.445 330.844 268.391L330.75 268.331L330.726 268.316L330.72 268.312L330.719 268.311L330.718 268.311C330.718 268.311 330.718 268.311 330.988 267.89M350.122 286.109L310.898 290.022L310.847 289.923L310.402 290.15C310.847 289.923 310.847 289.922 310.847 289.922L310.846 289.92L310.844 289.917L310.841 289.911L310.834 289.899C310.829 289.891 310.825 289.883 310.82 289.875C310.81 289.86 310.799 289.845 310.787 289.829C310.764 289.798 310.733 289.761 310.693 289.718C310.613 289.631 310.483 289.506 310.271 289.322C309.846 288.955 309.066 288.338 307.628 287.316C306.418 286.452 306.229 285.186 306.382 284.031C306.459 283.454 306.619 282.928 306.766 282.538C306.839 282.344 306.907 282.187 306.958 282.076C307.009 281.964 307.042 281.904 307.041 281.905L307.347 281.343L306.728 281.182C305.129 280.765 303.199 280.246 301.476 279.735C299.738 279.22 298.256 278.726 297.524 278.362L297.523 278.362C296.985 278.095 296.339 277.687 295.917 277.169C295.512 276.673 295.333 276.111 295.611 275.43C295.831 274.896 296.365 274.506 297.116 274.245C297.853 273.989 298.713 273.888 299.435 273.873L324.934 274.715L325.764 274.742L325.4 273.996C324.394 271.932 323.155 267.609 322.475 264.365C322.312 263.583 322.35 263.009 322.48 262.589C322.608 262.174 322.835 261.881 323.1 261.669C323.618 261.254 324.302 261.136 324.679 261.124C324.682 261.125 324.685 261.127 324.688 261.129C324.741 261.162 324.819 261.221 324.924 261.312C325.131 261.492 325.396 261.76 325.703 262.096C326.317 262.765 327.063 263.663 327.789 264.569C328.514 265.473 329.214 266.378 329.733 267.058C329.992 267.397 330.206 267.68 330.355 267.878C330.429 267.977 330.487 268.055 330.527 268.108L330.572 268.168L330.583 268.183L330.586 268.187L330.587 268.188L330.587 268.188L330.988 267.89M350.122 286.109L350.146 286.144L350.176 286.175L353.114 289.154C353.083 289.3 353.039 289.505 352.985 289.76C352.868 290.314 352.7 291.104 352.496 292.052C352.089 293.948 351.542 296.474 350.979 298.996C350.416 301.519 349.839 304.034 349.372 305.908C349.138 306.847 348.934 307.618 348.774 308.147C348.736 308.275 348.701 308.386 348.669 308.479C348.626 308.46 348.579 308.439 348.529 308.417C348.39 308.354 348.227 308.282 348.052 308.205C347.486 307.956 346.729 307.638 345.847 307.329C344.09 306.715 341.806 306.13 339.53 306.238C337.422 306.337 334.232 305.773 331.525 305.166C330.18 304.865 328.971 304.558 328.098 304.325C327.662 304.209 327.31 304.112 327.067 304.044C326.946 304.009 326.852 303.983 326.788 303.964L326.737 303.95L326.628 303.894C326.529 303.843 326.384 303.769 326.198 303.673C325.827 303.482 325.295 303.206 324.652 302.871C323.368 302.2 321.642 301.289 319.878 300.326C318.113 299.363 316.315 298.352 314.882 297.48C314.165 297.044 313.546 296.646 313.07 296.31C312.576 295.96 312.29 295.712 312.187 295.576C311.926 295.232 311.704 294.732 311.523 294.142C311.344 293.559 311.214 292.919 311.121 292.32C311.028 291.723 310.973 291.174 310.941 290.774C310.926 290.575 310.916 290.413 310.91 290.302C310.907 290.247 310.905 290.204 310.903 290.175L310.902 290.143L310.902 290.135L310.902 290.134L310.902 290.134L310.902 290.134L350.122 286.109ZM330.988 267.89L330.718 268.311L330.641 268.261L330.587 268.188L330.988 267.89ZM349.036 308.635L349.035 308.635L349.036 308.635ZM324.647 261.106C324.647 261.106 324.649 261.107 324.652 261.109C324.649 261.107 324.647 261.107 324.647 261.106Z" fill="white" stroke="#002E47"/>
<path d="M322.645 274.322C322.652 274.56 325.671 274.682 329.379 275.073C333.087 275.479 336.152 275.662 336.167 275.402C336.182 275.195 333.21 274.644 329.463 274.23C325.709 273.84 322.637 274.1 322.645 274.322Z" fill="white"/>
<path d="M325.847 284.874C325.924 284.621 321.549 283.434 316.048 282.814C313.306 282.47 310.823 282.225 309.031 282.025C307.238 281.834 306.135 281.689 306.104 281.803C306.081 281.911 307.153 282.271 308.939 282.607C310.724 282.96 313.206 283.297 315.941 283.641C321.427 284.269 325.794 285.066 325.847 284.874Z" fill="white"/>
<path d="M325.847 292.655C325.847 292.41 322.354 292.302 318.132 291.575C313.903 290.871 310.578 289.814 310.494 290.051C310.41 290.25 313.673 291.682 317.994 292.41C322.3 293.145 325.863 292.869 325.847 292.655Z" fill="white"/>
<path d="M324.4 301.369C324.63 301.407 324.982 300.473 325.181 299.278C325.381 298.092 325.35 297.096 325.12 297.058C324.89 297.019 324.538 297.954 324.346 299.148C324.147 300.335 324.17 301.331 324.4 301.369Z" fill="white"/>
<path d="M326.552 290.932C326.789 290.916 326.92 290.143 327.333 289.323C327.724 288.496 328.26 287.922 328.13 287.723C328.023 287.524 327.088 287.907 326.575 288.956C326.046 290.005 326.322 290.978 326.552 290.932Z" fill="white"/>
<path d="M329.287 280.487C329.525 280.51 329.77 280.012 330.061 279.453C330.345 278.886 330.597 278.388 330.437 278.22C330.283 278.052 329.663 278.358 329.303 279.078C328.943 279.79 329.058 280.471 329.287 280.487Z" fill="white"/>
<path d="M404.077 330.139C404.077 330.139 403.985 330.124 403.802 330.085C403.61 330.039 403.342 329.986 402.997 329.909C402.285 329.748 401.235 329.519 399.887 329.136C397.182 328.424 393.267 327.229 388.364 325.644C378.565 322.474 364.813 317.665 348.831 311.776L348.678 311.722L348.708 311.561C350.317 303.881 352.079 295.503 353.91 286.774L353.956 286.574L354.156 286.628C355.604 286.988 357.151 287.378 358.714 287.777C359.618 288.006 360.515 288.228 361.396 288.451L361.373 288.443C377.01 290.572 391.589 292.547 403.962 294.232L403.771 294.439C401.097 281.949 398.868 271.558 397.305 264.275C396.539 260.646 395.941 257.797 395.52 255.837C395.32 254.872 395.167 254.129 395.06 253.616C394.96 253.11 394.922 252.85 394.922 252.85C394.922 252.85 394.999 253.103 395.114 253.608C395.228 254.121 395.397 254.864 395.619 255.821C396.056 257.774 396.684 260.623 397.496 264.237C399.09 271.512 401.365 281.896 404.1 294.37L404.154 294.607L403.909 294.577C391.536 292.915 376.948 290.947 361.311 288.841H361.304H361.296C360.415 288.619 359.519 288.397 358.615 288.167C357.052 287.777 355.504 287.386 354.056 287.019L354.301 286.865C352.462 295.587 350.7 303.973 349.076 311.653L348.961 311.439C364.935 317.351 378.657 322.206 388.44 325.437C393.328 327.053 397.228 328.278 399.917 329.028C401.258 329.427 402.3 329.679 403.005 329.863C403.35 329.955 403.61 330.024 403.802 330.07C403.993 330.108 404.077 330.139 404.077 330.139Z" fill="#002E47"/>
<path d="M415.631 302.885C415.57 302.916 415.164 302.188 414.344 301.124C413.532 300.059 412.268 298.696 410.621 297.494C408.966 296.299 407.273 295.518 406.016 295.074C404.752 294.63 403.932 294.462 403.947 294.393C403.955 294.362 404.162 294.385 404.537 294.439C404.913 294.492 405.457 294.607 406.108 294.806C407.418 295.189 409.173 295.947 410.866 297.172C412.551 298.405 413.823 299.837 414.582 300.963C414.965 301.522 415.248 301.997 415.409 302.341C415.578 302.678 415.654 302.87 415.631 302.885Z" fill="#002E47"/>
<path d="M116 117.47C116 124.926 109.956 130.97 102.5 130.97C95.0442 130.97 89 124.926 89 117.47C89 110.014 95.0442 103.97 102.5 103.97C109.956 103.97 116 110.014 116 117.47Z" fill="white"/>
<path d="M102.488 113.764C103.577 113.764 104.459 112.885 104.459 111.801C104.459 110.718 103.577 109.839 102.488 109.839C101.4 109.839 100.517 110.718 100.517 111.801C100.517 112.885 101.4 113.764 102.488 113.764Z" fill="#39B4EF"/>
<path d="M102.488 119.432C103.577 119.432 104.459 118.553 104.459 117.47C104.459 116.386 103.577 115.508 102.488 115.508C101.4 115.508 100.517 116.386 100.517 117.47C100.517 118.553 101.4 119.432 102.488 119.432Z" fill="#39B4EF"/>
<path d="M102.488 125.1C103.577 125.1 104.459 124.222 104.459 123.138C104.459 122.054 103.577 121.176 102.488 121.176C101.4 121.176 100.517 122.054 100.517 123.138C100.517 124.222 101.4 125.1 102.488 125.1Z" fill="#39B4EF"/>
<path d="M97.232 119.432C98.3206 119.432 99.2031 118.553 99.2031 117.47C99.2031 116.386 98.3206 115.508 97.232 115.508C96.1433 115.508 95.2608 116.386 95.2608 117.47C95.2608 118.553 96.1433 119.432 97.232 119.432Z" fill="#39B4EF"/>
<path d="M108.183 119.432C109.271 119.432 110.154 118.553 110.154 117.47C110.154 116.386 109.271 115.508 108.183 115.508C107.094 115.508 106.212 116.386 106.212 117.47C106.212 118.553 107.094 119.432 108.183 119.432Z" fill="#39B4EF"/>
<path d="M325 44.9697C325 51.0449 320.075 55.9697 314 55.9697C307.925 55.9697 303 51.0449 303 44.9697C303 38.8946 307.925 33.9697 314 33.9697C320.075 33.9697 325 38.8946 325 44.9697Z" fill="white"/>
<path d="M313.99 41.9499C314.878 41.9499 315.597 41.2341 315.597 40.3511C315.597 39.4681 314.878 38.7524 313.99 38.7524C313.103 38.7524 312.384 39.4681 312.384 40.3511C312.384 41.2341 313.103 41.9499 313.99 41.9499Z" fill="#39B4EF"/>
<path d="M313.99 46.5685C314.878 46.5685 315.597 45.8527 315.597 44.9698C315.597 44.0868 314.878 43.371 313.99 43.371C313.103 43.371 312.384 44.0868 312.384 44.9698C312.384 45.8527 313.103 46.5685 313.99 46.5685Z" fill="#39B4EF"/>
<path d="M313.99 51.1871C314.878 51.1871 315.597 50.4714 315.597 49.5884C315.597 48.7054 314.878 47.9896 313.99 47.9896C313.103 47.9896 312.384 48.7054 312.384 49.5884C312.384 50.4714 313.103 51.1871 313.99 51.1871Z" fill="#39B4EF"/>
<path d="M309.708 46.5685C310.595 46.5685 311.314 45.8527 311.314 44.9698C311.314 44.0868 310.595 43.371 309.708 43.371C308.821 43.371 308.101 44.0868 308.101 44.9698C308.101 45.8527 308.821 46.5685 309.708 46.5685Z" fill="#39B4EF"/>
<path d="M318.63 46.5685C319.517 46.5685 320.236 45.8527 320.236 44.9698C320.236 44.0868 319.517 43.371 318.63 43.371C317.743 43.371 317.024 44.0868 317.024 44.9698C317.024 45.8527 317.743 46.5685 318.63 46.5685Z" fill="#39B4EF"/>
<path d="M314 56.4697C320.351 56.4697 325.5 51.321 325.5 44.9697C325.5 38.6185 320.351 33.4697 314 33.4697C307.649 33.4697 302.5 38.6185 302.5 44.9697C302.5 51.321 307.649 56.4697 314 56.4697Z" stroke="#39B4EF"/>
<path d="M34 164.556C34 171.459 28.4036 177.056 21.5 177.056C14.5964 177.056 9 171.459 9 164.556C9 157.652 14.5964 152.056 21.5 152.056C28.4036 152.056 34 157.652 34 164.556Z" fill="white"/>
<path d="M21.4892 161.124C22.4972 161.124 23.3143 160.311 23.3143 159.307C23.3143 158.304 22.4972 157.49 21.4892 157.49C20.4812 157.49 19.664 158.304 19.664 159.307C19.664 160.311 20.4812 161.124 21.4892 161.124Z" fill="#39B4EF"/>
<path d="M21.4892 166.372C22.4972 166.372 23.3143 165.559 23.3143 164.556C23.3143 163.552 22.4972 162.739 21.4892 162.739C20.4812 162.739 19.664 163.552 19.664 164.556C19.664 165.559 20.4812 166.372 21.4892 166.372Z" fill="#39B4EF"/>
<path d="M21.4892 171.621C22.4972 171.621 23.3143 170.808 23.3143 169.804C23.3143 168.801 22.4972 167.987 21.4892 167.987C20.4812 167.987 19.664 168.801 19.664 169.804C19.664 170.808 20.4812 171.621 21.4892 171.621Z" fill="#39B4EF"/>
<path d="M16.6222 166.372C17.6302 166.372 18.4473 165.559 18.4473 164.556C18.4473 163.552 17.6302 162.739 16.6222 162.739C15.6142 162.739 14.7971 163.552 14.7971 164.556C14.7971 165.559 15.6142 166.372 16.6222 166.372Z" fill="#39B4EF"/>
<path d="M26.7618 166.372C27.7698 166.372 28.5869 165.559 28.5869 164.556C28.5869 163.552 27.7698 162.739 26.7618 162.739C25.7538 162.739 24.9366 163.552 24.9366 164.556C24.9366 165.559 25.7538 166.372 26.7618 166.372Z" fill="#39B4EF"/>
<path d="M21.5 177.556C28.6797 177.556 34.5 171.735 34.5 164.556C34.5 157.376 28.6797 151.556 21.5 151.556C14.3203 151.556 8.5 157.376 8.5 164.556C8.5 171.735 14.3203 177.556 21.5 177.556Z" stroke="#39B4EF"/>
</g>
<defs>
<clipPath id="clip0_96_28683">
<rect width="534" height="340" fill="white" transform="translate(0 0.0556641)"/>
</clipPath>
</defs>
</svg>
