<svg width="654" height="436" viewBox="0 0 654 436" fill="none" xmlns="http://www.w3.org/2000/svg">
<path d="M249.55 98.0914C334.552 56.2354 421.97 1.5174 520.716 23.9104C551.332 30.8515 579.192 48.213 598.027 73.4487C648.385 140.933 644.295 244.291 616.932 320.251C613.366 330.165 608.901 339.775 603.163 348.634C575.39 391.493 528.599 393.516 483.455 381.125C445.261 370.635 411.419 359.848 371.961 370.513C350.109 376.416 328.928 384.535 307.154 390.717C277.506 399.132 246.942 404.844 216.074 405.419C134.393 406.945 41.0894 365.281 33.8518 274.07C33.381 268.158 33.3025 262.219 33.5641 256.29C35.1947 219.875 47.2283 183.408 80.591 164.503C114.128 145.493 153.918 137.977 189.792 124.496C210.188 116.831 229.982 107.727 249.55 98.0914Z" fill="#39B4EF"/>
<path opacity="0.7" d="M249.55 98.0914C334.552 56.2354 421.97 1.5174 520.716 23.9104C551.332 30.8515 579.192 48.213 598.027 73.4487C648.385 140.933 644.295 244.291 616.932 320.251C613.366 330.165 608.901 339.775 603.163 348.634C575.39 391.493 528.599 393.516 483.455 381.125C445.261 370.635 411.419 359.848 371.961 370.513C350.109 376.416 328.928 384.535 307.154 390.717C277.506 399.132 246.942 404.844 216.074 405.419C134.393 406.945 41.0894 365.281 33.8518 274.07C33.381 268.158 33.3025 262.219 33.5641 256.29C35.1947 219.875 47.2283 183.408 80.591 164.503C114.128 145.493 153.918 137.977 189.792 124.496C210.188 116.831 229.982 107.727 249.55 98.0914Z" fill="white"/>
<path d="M16.3672 384.7H639.211" stroke="#002E47" stroke-miterlimit="10"/>
<path d="M575.975 200.691L590.485 339.766" stroke="#002E47" stroke-width="2" stroke-miterlimit="10"/>
<path d="M588.147 313.153L581.572 306.203" stroke="#002E47" stroke-width="2" stroke-miterlimit="10"/>
<path d="M583.568 308.278C583.568 308.278 583.76 305.2 580.952 302.697C579.26 301.189 570.375 297.448 569.529 300.579C568.613 303.988 577.708 310.676 583.568 308.278Z" fill="#39B4EF" stroke="#002E47" stroke-miterlimit="10"/>
<path d="M583.569 308.278L575.102 303.011" stroke="#002E47" stroke-width="0.5" stroke-miterlimit="10"/>
<path d="M589.796 328.962L583.221 322.012" stroke="#002E47" stroke-width="2" stroke-miterlimit="10"/>
<path d="M585.217 324.096C585.217 324.096 585.408 321.018 582.601 318.515C580.909 317.007 572.023 313.266 571.177 316.396C570.262 319.806 579.357 326.494 585.217 324.096Z" fill="#39B4EF" stroke="#002E47" stroke-miterlimit="10"/>
<path d="M585.216 324.096L576.758 318.829" stroke="#002E47" stroke-width="0.5" stroke-miterlimit="10"/>
<path d="M584.12 274.549L577.545 267.6" stroke="#002E47" stroke-width="2" stroke-miterlimit="10"/>
<path d="M579.541 269.684C579.541 269.684 579.733 266.605 576.925 264.103C575.233 262.594 566.347 258.853 565.502 261.984C564.586 265.393 573.681 272.082 579.541 269.684Z" fill="#39B4EF" stroke="#002E47" stroke-miterlimit="10"/>
<path d="M579.54 269.683L571.082 264.417" stroke="#002E47" stroke-width="0.5" stroke-miterlimit="10"/>
<path d="M585.777 290.367L579.193 283.417" stroke="#002E47" stroke-width="2" stroke-miterlimit="10"/>
<path d="M581.189 285.501C581.189 285.501 581.381 282.423 578.573 279.921C576.882 278.412 567.996 274.671 567.15 277.802C566.234 281.211 575.329 287.899 581.189 285.501Z" fill="#39B4EF" stroke="#002E47" stroke-miterlimit="10"/>
<path d="M581.189 285.502L572.73 280.226" stroke="#002E47" stroke-width="0.5" stroke-miterlimit="10"/>
<path d="M581.443 248.86L574.859 241.91" stroke="#002E47" stroke-width="2" stroke-miterlimit="10"/>
<path d="M576.855 243.994C576.855 243.994 577.047 240.916 574.239 238.413C572.548 236.905 563.662 233.164 562.816 236.294C561.9 239.695 570.995 246.383 576.855 243.994Z" fill="#39B4EF" stroke="#002E47" stroke-miterlimit="10"/>
<path d="M576.855 243.994L568.396 238.719" stroke="#002E47" stroke-width="0.5" stroke-miterlimit="10"/>
<path d="M578.748 223.058L572.164 216.108" stroke="#002E47" stroke-width="2" stroke-miterlimit="10"/>
<path d="M574.169 218.183C574.169 218.183 574.361 215.105 571.553 212.602C569.861 211.094 560.976 207.353 560.13 210.483C559.205 213.893 568.309 220.581 574.169 218.183Z" fill="#39B4EF" stroke="#002E47" stroke-miterlimit="10"/>
<path d="M574.168 218.183L565.701 212.916" stroke="#002E47" stroke-width="0.5" stroke-miterlimit="10"/>
<path d="M587.039 303.787L592.044 295.634" stroke="#002E47" stroke-width="2" stroke-miterlimit="10"/>
<path d="M590.518 298.085C590.518 298.085 589.698 295.12 591.931 292.085C593.274 290.263 601.2 284.769 602.665 287.656C604.269 290.795 596.744 299.218 590.518 298.085Z" fill="#39B4EF" stroke="#002E47" stroke-miterlimit="10"/>
<path d="M590.518 298.085L598.139 290.804" stroke="#002E47" stroke-width="0.5" stroke-miterlimit="10"/>
<path d="M582.697 262.167L587.703 254.014" stroke="#002E47" stroke-width="2" stroke-miterlimit="10"/>
<path d="M586.176 256.464C586.176 256.464 585.357 253.499 587.589 250.465C588.932 248.642 596.858 243.149 598.323 246.035C599.928 249.174 592.402 257.589 586.176 256.464Z" fill="#39B4EF" stroke="#002E47" stroke-miterlimit="10"/>
<path d="M586.176 256.464L593.797 249.174" stroke="#002E47" stroke-width="0.5" stroke-miterlimit="10"/>
<path d="M580.787 243.881L585.792 235.719" stroke="#002E47" stroke-width="2" stroke-miterlimit="10"/>
<path d="M584.266 238.169C584.266 238.169 583.446 235.204 585.679 232.17C587.022 230.347 594.948 224.854 596.413 227.74C598.018 230.879 590.492 239.303 584.266 238.169Z" fill="#39B4EF" stroke="#002E47" stroke-miterlimit="10"/>
<path d="M584.266 238.169L591.887 230.888" stroke="#002E47" stroke-width="0.5" stroke-miterlimit="10"/>
<path d="M577.988 217.058L582.994 208.905" stroke="#002E47" stroke-width="2" stroke-miterlimit="10"/>
<path d="M581.467 211.355C581.467 211.355 580.648 208.382 582.88 205.356C584.223 203.533 592.149 198.04 593.614 200.926C595.219 204.065 587.693 212.489 581.467 211.355Z" fill="#39B4EF" stroke="#002E47" stroke-miterlimit="10"/>
<path d="M581.467 211.355L589.088 204.074" stroke="#002E47" stroke-width="0.5" stroke-miterlimit="10"/>
<path d="M575.85 199.915C575.85 199.915 575.03 196.95 577.263 193.915C578.606 192.093 586.532 186.599 587.997 189.486C589.602 192.625 582.076 201.048 575.85 199.915Z" fill="#39B4EF" stroke="#002E47" stroke-miterlimit="10"/>
<path d="M575.852 199.915L583.473 192.634" stroke="#002E47" stroke-width="0.5" stroke-miterlimit="10"/>
<path d="M576.296 200.229C576.296 200.229 573.261 200.734 570.471 198.197C568.796 196.671 564.166 188.213 567.192 187.053C570.488 185.797 578.075 194.16 576.296 200.229Z" fill="#39B4EF" stroke="#002E47" stroke-miterlimit="10"/>
<path d="M576.296 200.229L569.852 191.893" stroke="#002E47" stroke-width="0.5" stroke-miterlimit="10"/>
<path d="M614.254 219.84L599.822 358.924" stroke="#002E47" stroke-width="2" stroke-miterlimit="10"/>
<path d="M603.013 332.398L598.008 324.245" stroke="#002E47" stroke-width="2" stroke-miterlimit="10"/>
<path d="M599.535 326.695C599.535 326.695 600.354 323.722 598.122 320.696C596.779 318.873 588.853 313.38 587.379 316.275C585.783 319.414 593.309 327.829 599.535 326.695Z" fill="#39B4EF" stroke="#002E47" stroke-miterlimit="10"/>
<path d="M599.534 326.695L592.34 319.789" stroke="#002E47" stroke-width="0.5" stroke-miterlimit="10"/>
<path d="M607.015 293.803L602.01 285.65" stroke="#002E47" stroke-width="2" stroke-miterlimit="10"/>
<path d="M603.537 288.092C603.537 288.092 604.356 285.118 602.124 282.092C600.781 280.27 592.855 274.776 591.381 277.671C589.785 280.81 597.311 289.234 603.537 288.092Z" fill="#39B4EF" stroke="#002E47" stroke-miterlimit="10"/>
<path d="M603.536 288.091L596.342 281.194" stroke="#002E47" stroke-width="0.5" stroke-miterlimit="10"/>
<path d="M605.376 309.621L600.371 301.459" stroke="#002E47" stroke-width="2" stroke-miterlimit="10"/>
<path d="M601.898 303.909C601.898 303.909 602.718 300.936 600.485 297.91C599.143 296.088 591.216 290.594 589.742 293.489C588.147 296.628 595.672 305.052 601.898 303.909Z" fill="#39B4EF" stroke="#002E47" stroke-miterlimit="10"/>
<path d="M601.897 303.909L594.703 297.012" stroke="#002E47" stroke-width="0.5" stroke-miterlimit="10"/>
<path d="M609.683 268.105L604.678 259.952" stroke="#002E47" stroke-width="2" stroke-miterlimit="10"/>
<path d="M606.205 262.402C606.205 262.402 607.024 259.429 604.792 256.403C603.449 254.58 595.523 249.087 594.049 251.982C592.453 255.121 599.979 263.536 606.205 262.402Z" fill="#39B4EF" stroke="#002E47" stroke-miterlimit="10"/>
<path d="M606.204 262.402L599.01 255.496" stroke="#002E47" stroke-width="0.5" stroke-miterlimit="10"/>
<path d="M612.361 242.303L607.355 234.141" stroke="#002E47" stroke-width="2" stroke-miterlimit="10"/>
<path d="M608.882 236.591C608.882 236.591 609.702 233.618 607.47 230.592C606.127 228.769 598.2 223.276 596.727 226.171C595.131 229.31 602.656 237.725 608.882 236.591Z" fill="#39B4EF" stroke="#002E47" stroke-miterlimit="10"/>
<path d="M608.881 236.591L601.688 229.693" stroke="#002E47" stroke-width="0.5" stroke-miterlimit="10"/>
<path d="M603.859 323.015L610.434 316.056" stroke="#002E47" stroke-width="2" stroke-miterlimit="10"/>
<path d="M608.438 318.14C608.438 318.14 608.246 315.062 611.054 312.56C612.746 311.051 621.632 307.31 622.477 310.432C623.393 313.841 614.298 320.53 608.438 318.14Z" fill="#39B4EF" stroke="#002E47" stroke-miterlimit="10"/>
<path d="M608.438 318.141L617.393 312.586" stroke="#002E47" stroke-width="0.5" stroke-miterlimit="10"/>
<path d="M608.176 281.386L614.751 274.436" stroke="#002E47" stroke-width="2" stroke-miterlimit="10"/>
<path d="M612.755 276.52C612.755 276.52 612.563 273.442 615.371 270.939C617.062 269.431 625.948 265.681 626.794 268.812C627.71 272.213 618.615 278.909 612.755 276.52Z" fill="#39B4EF" stroke="#002E47" stroke-miterlimit="10"/>
<path d="M612.754 276.52L621.709 270.957" stroke="#002E47" stroke-width="0.5" stroke-miterlimit="10"/>
<path d="M610.078 263.1L616.653 256.141" stroke="#002E47" stroke-width="2" stroke-miterlimit="10"/>
<path d="M614.657 258.225C614.657 258.225 614.465 255.147 617.273 252.645C618.965 251.136 627.85 247.386 628.696 250.517C629.612 253.926 620.517 260.615 614.657 258.225Z" fill="#39B4EF" stroke="#002E47" stroke-miterlimit="10"/>
<path d="M614.656 258.226L623.612 252.671" stroke="#002E47" stroke-width="0.5" stroke-miterlimit="10"/>
<path d="M612.857 236.277L619.432 229.327" stroke="#002E47" stroke-width="2" stroke-miterlimit="10"/>
<path d="M617.436 231.411C617.436 231.411 617.245 228.333 620.052 225.831C621.744 224.322 630.63 220.572 631.476 223.703C632.391 227.104 623.296 233.801 617.436 231.411Z" fill="#39B4EF" stroke="#002E47" stroke-miterlimit="10"/>
<path d="M617.436 231.412L626.391 225.848" stroke="#002E47" stroke-width="0.5" stroke-miterlimit="10"/>
<path d="M614.298 219.064C614.298 219.064 614.106 215.986 616.914 213.483C618.605 211.974 627.491 208.234 628.337 211.355C629.253 214.756 620.158 221.453 614.298 219.064Z" fill="#39B4EF" stroke="#002E47" stroke-miterlimit="10"/>
<path d="M614.297 219.064L623.252 213.5" stroke="#002E47" stroke-width="0.5" stroke-miterlimit="10"/>
<path d="M614.663 219.456C614.663 219.456 611.585 219.326 609.388 216.274C608.062 214.434 605.272 205.208 608.472 204.693C611.951 204.135 617.654 213.884 614.663 219.456Z" fill="#39B4EF" stroke="#002E47" stroke-miterlimit="10"/>
<path d="M614.663 219.456L610.076 209.969" stroke="#002E47" stroke-width="0.5" stroke-miterlimit="10"/>
<path d="M597.713 163.204V339.086" stroke="#002E47" stroke-width="2" stroke-miterlimit="10"/>
<path d="M597.851 312.638L592.035 305.052" stroke="#002E47" stroke-width="2" stroke-miterlimit="10"/>
<path d="M593.806 307.328C593.806 307.328 594.312 304.293 591.783 301.503C590.257 299.828 581.807 295.189 580.648 298.215C579.374 301.503 587.728 309.098 593.806 307.328Z" fill="#39B4EF" stroke="#002E47" stroke-miterlimit="10"/>
<path d="M593.807 307.327L585.941 301.206" stroke="#002E47" stroke-width="0.5" stroke-miterlimit="10"/>
<path d="M597.851 279.589L592.035 271.994" stroke="#002E47" stroke-width="2" stroke-miterlimit="10"/>
<path d="M593.806 274.27C593.806 274.27 594.312 271.235 591.783 268.445C590.257 266.771 581.807 262.132 580.648 265.158C579.374 268.454 587.728 276.049 593.806 274.27Z" fill="#39B4EF" stroke="#002E47" stroke-miterlimit="10"/>
<path d="M593.807 274.27L585.941 268.148" stroke="#002E47" stroke-width="0.5" stroke-miterlimit="10"/>
<path d="M597.851 240.786L592.035 233.19" stroke="#002E47" stroke-width="2" stroke-miterlimit="10"/>
<path d="M593.806 235.466C593.806 235.466 594.312 232.432 591.783 229.641C590.257 227.967 581.807 223.328 580.648 226.354C579.374 229.641 587.728 237.236 593.806 235.466Z" fill="#39B4EF" stroke="#002E47" stroke-miterlimit="10"/>
<path d="M593.807 235.466L585.941 229.345" stroke="#002E47" stroke-width="0.5" stroke-miterlimit="10"/>
<path d="M597.851 214.948L592.035 207.353" stroke="#002E47" stroke-width="2" stroke-miterlimit="10"/>
<path d="M593.806 209.638C593.806 209.638 594.312 206.603 591.783 203.813C590.257 202.138 581.807 197.499 580.648 200.525C579.374 203.813 587.728 211.408 593.806 209.638Z" fill="#39B4EF" stroke="#002E47" stroke-miterlimit="10"/>
<path d="M593.807 209.637L585.941 203.507" stroke="#002E47" stroke-width="0.5" stroke-miterlimit="10"/>
<path d="M597.851 189.006L592.035 181.411" stroke="#002E47" stroke-width="2" stroke-miterlimit="10"/>
<path d="M593.806 183.687C593.806 183.687 594.312 180.652 591.783 177.862C590.257 176.188 581.807 171.549 580.648 174.575C579.374 177.862 587.728 185.457 593.806 183.687Z" fill="#39B4EF" stroke="#002E47" stroke-miterlimit="10"/>
<path d="M593.807 183.687L585.941 177.565" stroke="#002E47" stroke-width="0.5" stroke-miterlimit="10"/>
<path d="M597.73 322.736L603.547 315.141" stroke="#002E47" stroke-width="2" stroke-miterlimit="10"/>
<path d="M601.776 317.416C601.776 317.416 601.27 314.382 603.799 311.591C605.325 309.917 613.774 305.278 614.934 308.304C616.207 311.591 607.853 319.187 601.776 317.416Z" fill="#39B4EF" stroke="#002E47" stroke-miterlimit="10"/>
<path d="M601.777 317.417L610.114 310.964" stroke="#002E47" stroke-width="0.5" stroke-miterlimit="10"/>
<path d="M597.73 270.163L603.547 262.568" stroke="#002E47" stroke-width="2" stroke-miterlimit="10"/>
<path d="M601.776 264.852C601.776 264.852 601.27 261.818 603.799 259.028C605.325 257.353 613.774 252.714 614.934 255.74C616.207 259.028 607.853 266.623 601.776 264.852Z" fill="#39B4EF" stroke="#002E47" stroke-miterlimit="10"/>
<path d="M601.777 264.853L610.114 258.4" stroke="#002E47" stroke-width="0.5" stroke-miterlimit="10"/>
<path d="M597.73 244.221L603.547 236.626" stroke="#002E47" stroke-width="2" stroke-miterlimit="10"/>
<path d="M601.776 238.902C601.776 238.902 601.27 235.867 603.799 233.077C605.325 231.403 613.774 226.764 614.934 229.789C616.207 233.086 607.853 240.681 601.776 238.902Z" fill="#39B4EF" stroke="#002E47" stroke-miterlimit="10"/>
<path d="M601.777 238.902L610.114 232.449" stroke="#002E47" stroke-width="0.5" stroke-miterlimit="10"/>
<path d="M597.73 209.925L603.547 202.33" stroke="#002E47" stroke-width="2" stroke-miterlimit="10"/>
<path d="M601.776 204.615C601.776 204.615 601.27 201.58 603.799 198.79C605.325 197.115 613.774 192.476 614.934 195.502C616.207 198.79 607.853 206.385 601.776 204.615Z" fill="#39B4EF" stroke="#002E47" stroke-miterlimit="10"/>
<path d="M601.777 204.615L610.114 198.162" stroke="#002E47" stroke-width="0.5" stroke-miterlimit="10"/>
<path d="M597.729 182.963L603.545 175.368" stroke="#002E47" stroke-width="2" stroke-miterlimit="10"/>
<path d="M601.776 177.652C601.776 177.652 601.27 174.618 603.799 171.827C605.325 170.153 613.774 165.514 614.934 168.54C616.207 171.827 607.853 179.422 601.776 177.652Z" fill="#39B4EF" stroke="#002E47" stroke-miterlimit="10"/>
<path d="M601.775 177.653L610.112 171.2" stroke="#002E47" stroke-width="0.5" stroke-miterlimit="10"/>
<path d="M597.381 165.688C597.381 165.688 596.875 162.654 599.404 159.863C600.93 158.189 609.38 153.55 610.54 156.576C611.813 159.872 603.459 167.467 597.381 165.688Z" fill="#39B4EF" stroke="#002E47" stroke-miterlimit="10"/>
<path d="M597.381 165.689L605.708 159.245" stroke="#002E47" stroke-width="0.5" stroke-miterlimit="10"/>
<path d="M597.782 166.055C597.782 166.055 594.704 166.238 592.201 163.43C590.692 161.738 586.96 152.844 590.099 152.007C593.509 151.091 600.188 160.195 597.782 166.055Z" fill="#39B4EF" stroke="#002E47" stroke-miterlimit="10"/>
<path d="M597.781 166.055L592.244 157.082" stroke="#002E47" stroke-width="0.5" stroke-miterlimit="10"/>
<path d="M604.95 384.7H586.324L583.996 337.665H607.279L604.95 384.7Z" fill="#002E47" stroke="#002E47" stroke-miterlimit="10"/>
<path d="M110.232 92.2812C123.884 78.6291 123.884 56.4949 110.232 42.8429C96.5796 29.1909 74.4454 29.1909 60.7934 42.8429C47.1414 56.4949 47.1414 78.6292 60.7934 92.2812C74.4454 105.933 96.5796 105.933 110.232 92.2812Z" stroke="#002E47" stroke-miterlimit="10"/>
<path d="M117.422 72.7414C120.282 55.119 108.315 38.5149 90.6927 35.6549C73.0704 32.7949 56.4662 44.7621 53.6062 62.3844C50.7462 80.0068 62.7135 96.611 80.3358 99.471C97.9581 102.331 114.562 90.3637 117.422 72.7414Z" stroke="#002E47" stroke-miterlimit="10"/>
<path d="M88.2901 67.563C88.2901 69.0977 87.0518 70.336 85.5171 70.336C83.9824 70.336 82.7441 69.0977 82.7441 67.563C82.7441 66.0283 83.9824 64.79 85.5171 64.79C87.0431 64.79 88.2901 66.037 88.2901 67.563Z" stroke="#002E47" stroke-miterlimit="10"/>
<path d="M82.7348 67.563H73.291" stroke="#002E47" stroke-miterlimit="10"/>
<path d="M85.5156 70.3442V91.5251" stroke="#002E47" stroke-miterlimit="10"/>
<path d="M97.1496 245.913H71.4082V248.171H97.1496V245.913Z" fill="#002E47" stroke="#002E47" stroke-miterlimit="10"/>
<path d="M84.5841 229.572H71.4082V248.18H84.5841V229.572Z" fill="#002E47" stroke="#002E47" stroke-miterlimit="10"/>
<path d="M117.817 165.549H34.1484V230.819H117.817V165.549Z" fill="#002E47" stroke="#002E47" stroke-miterlimit="10"/>
<path d="M120.336 165.549H36.668V230.819H120.336V165.549Z" fill="white" stroke="#002E47" stroke-miterlimit="10"/>
<path d="M117.416 167.825H39.5898V228.543H117.416V167.825Z" fill="#EDEDED" stroke="#002E47" stroke-miterlimit="10"/>
<path d="M167.539 245.337H102.984V248.171H167.539V245.337Z" fill="white" stroke="#002E47" stroke-miterlimit="10"/>
<path d="M40.4958 253.116L40.3999 257.955L37.8885 382.041C37.8624 383.515 36.6503 384.701 35.1766 384.701C33.7029 384.701 32.4909 383.515 32.4647 382.041L29.9533 257.955L29.8574 253.116H40.4958Z" fill="white" stroke="#002E47" stroke-miterlimit="10"/>
<path d="M40.4958 253.116L40.3999 257.964H29.9533L29.8574 253.116H40.4958Z" fill="#002E47" stroke="#002E47" stroke-miterlimit="10"/>
<path d="M224.077 384.7C222.603 384.7 221.391 383.514 221.365 382.041L218.758 253.124H229.396L226.789 382.041C226.763 383.523 225.551 384.7 224.077 384.7Z" fill="white" stroke="#002E47" stroke-miterlimit="10"/>
<path d="M218.854 257.964H229.3L229.396 253.124H218.758L218.854 257.964Z" fill="#002E47" stroke="#002E47" stroke-miterlimit="10"/>
<path d="M234.716 248.285H23.5703V254.572H234.716V248.285Z" fill="white" stroke="#002E47" stroke-miterlimit="10"/>
<g opacity="0.3">
<path d="M348.704 115.723H245.738V384.709H348.704V115.723Z" stroke="#002E47" stroke-miterlimit="10"/>
<path d="M343.193 122.917H251.258V189.965H343.193V122.917Z" stroke="#002E47" stroke-miterlimit="10"/>
<path d="M310.789 137.279H283.67V154.405H310.789V137.279Z" stroke="#002E47" stroke-miterlimit="10"/>
<path d="M311.966 160.587H282.475V164.869H311.966V160.587Z" fill="#002E47" stroke="#002E47" stroke-miterlimit="10"/>
<path d="M343.193 200.456H251.258V267.504H343.193V200.456Z" stroke="#002E47" stroke-miterlimit="10"/>
<path d="M310.789 214.817H283.67V231.943H310.789V214.817Z" stroke="#002E47" stroke-miterlimit="10"/>
<path d="M311.966 238.126H282.475V242.407H311.966V238.126Z" fill="#002E47" stroke="#002E47" stroke-miterlimit="10"/>
<path d="M343.193 278.002H251.258V345.051H343.193V278.002Z" stroke="#002E47" stroke-miterlimit="10"/>
<path d="M310.789 292.355H283.67V309.482H310.789V292.355Z" stroke="#002E47" stroke-miterlimit="10"/>
<path d="M311.966 315.664H282.475V319.946H311.966V315.664Z" fill="#002E47" stroke="#002E47" stroke-miterlimit="10"/>
</g>
<g opacity="0.3">
<path d="M548.235 32.9966H371.48V384.709H548.235V32.9966Z" stroke="#002E47" stroke-miterlimit="10"/>
<path d="M542.627 40.6875H377.078V377.018H542.627V40.6875Z" stroke="#002E47" stroke-miterlimit="10"/>
<path d="M527.952 194.063H377.078V223.642H527.952V194.063Z" stroke="#002E47" stroke-miterlimit="10"/>
<path d="M542.278 166.5H527.951V244.021H542.278V166.5Z" stroke="#002E47" stroke-miterlimit="10"/>
<path d="M445.715 84.8804L439.506 91.0803" stroke="#002E47" stroke-miterlimit="10"/>
<path d="M482.949 47.6377L450.824 79.7622" stroke="#002E47" stroke-miterlimit="10"/>
<path d="M444.249 76.8496L423.443 97.6555" stroke="#002E47" stroke-miterlimit="10"/>
<path d="M468.708 278.744L420.521 326.93" stroke="#002E47" stroke-miterlimit="10"/>
<path d="M476.373 271.07L472.361 275.09" stroke="#002E47" stroke-miterlimit="10"/>
<path d="M450.823 276.188L444.98 282.022" stroke="#002E47" stroke-miterlimit="10"/>
<path d="M475.65 251.363L454.469 272.535" stroke="#002E47" stroke-miterlimit="10"/>
</g>
<path d="M562.989 247.944C562.989 247.944 564.271 261.896 563.948 263.021C563.626 264.146 560.26 271.201 559.301 271.68C558.341 272.16 552.246 270.555 551.278 270.233C550.319 269.91 548.549 268.951 548.549 268.951L551.601 247.456C551.601 247.465 560.269 248.747 562.989 247.944Z" fill="white" stroke="#002E47" stroke-miterlimit="10" stroke-linecap="round" stroke-linejoin="round"/>
<path d="M554.975 256.604C554.975 256.604 556.1 260.135 557.224 261.094C558.349 262.054 559.474 262.699 559.474 262.699L559.152 266.867L550.17 264.46" stroke="#002E47" stroke-miterlimit="10" stroke-linecap="round" stroke-linejoin="round"/>
<path d="M562.239 140.95C562.239 140.95 569.197 191.849 569.197 199.976C569.197 208.103 564.279 248.32 564.279 248.32C564.279 248.32 561.07 251.101 556.789 250.247C554.905 249.872 552.507 249.392 552.507 249.392L551.225 224.793L548.234 207.039L559.361 146.287C559.352 146.278 561.489 139.895 562.239 140.95Z" fill="#39B4EF" stroke="#002E47" stroke-miterlimit="10" stroke-linecap="round" stroke-linejoin="round"/>
<path d="M553.58 244.465C553.58 244.465 558.498 247.247 563.843 242.756" stroke="#002E47" stroke-miterlimit="10" stroke-linecap="round" stroke-linejoin="round"/>
<path d="M553.371 197.194C553.371 197.194 557.862 204.467 559.144 206.176" stroke="#002E47" stroke-miterlimit="10" stroke-linecap="round" stroke-linejoin="round"/>
<path d="M552.08 198.686C552.08 198.686 556.362 211.094 559.143 214.512" stroke="#002E47" stroke-miterlimit="10" stroke-linecap="round" stroke-linejoin="round"/>
<path d="M544.424 393.08C544.424 393.08 546.325 405.82 546.133 408.863C545.942 411.907 539.288 413.616 537.195 413.808C535.103 413.999 533.585 414.374 532.251 413.424C530.917 412.473 529.016 411.715 529.016 411.715L528.449 398.399C528.449 398.399 539.672 396.882 544.424 393.08Z" fill="white" stroke="#002E47" stroke-miterlimit="10" stroke-linecap="round" stroke-linejoin="round"/>
<path d="M546.133 408.863C546.168 408.305 546.133 407.407 546.046 406.334C544.511 407.581 541.424 409.779 537.954 410.581C534.108 411.471 530.394 410.171 528.92 409.552L529.016 411.723C529.016 411.723 530.917 412.482 532.251 413.433C533.585 414.383 535.102 413.999 537.195 413.816C539.288 413.616 545.941 411.907 546.133 408.863Z" fill="white" stroke="#002E47" stroke-miterlimit="10" stroke-linecap="round" stroke-linejoin="round"/>
<path d="M506.58 393.263C506.58 393.263 501.444 397.065 497.642 398.774C493.84 400.483 489.271 402.201 490.038 404.669C490.797 407.145 508.106 412.273 514.193 413.223C520.279 414.174 529.784 417.217 532.069 411.706C534.353 406.195 531.877 400.108 531.877 400.108L506.58 393.263Z" fill="white" stroke="#002E47" stroke-miterlimit="10" stroke-linecap="round" stroke-linejoin="round"/>
<path d="M532.059 411.715C532.286 411.166 532.451 410.608 532.6 410.058C528.745 411.157 521.351 412.447 512.474 410.006C502.359 407.224 494.057 403.876 490.778 402.48C490.107 403.152 489.784 403.876 490.028 404.678C490.787 407.154 508.096 412.282 514.183 413.232C520.269 414.183 529.783 417.226 532.059 411.715Z" fill="white" stroke="#002E47" stroke-miterlimit="10" stroke-linecap="round" stroke-linejoin="round"/>
<path d="M488.651 226.057C488.651 226.057 486 245.791 486 267.931C486 290.071 492.017 325.204 493.456 330.976C494.903 336.749 504.765 372.361 505.245 373.809C505.725 375.256 506.928 389.688 506.928 389.688C506.928 389.688 504.765 391.136 504.765 392.339C504.765 393.542 505.01 395.469 505.01 395.469C505.01 395.469 511.986 400.762 517.279 403.169C522.572 405.576 531.954 403.413 531.954 403.413C531.954 403.413 534.841 403.413 538.207 401.966C541.573 400.518 544.223 398.835 545.183 396.193C546.142 393.542 546.142 389.217 546.142 387.046C546.142 384.883 543.979 355.279 543.256 342.53C542.532 329.773 541.093 319.187 541.093 319.187C541.093 319.187 550.868 266.265 551.679 257.824C552.49 249.392 553.606 226.545 553.606 226.545L554.086 223.659L488.651 226.057Z" fill="#002E47" stroke="#002E47" stroke-miterlimit="10" stroke-linecap="round" stroke-linejoin="round"/>
<path d="M531.273 385.18C531.849 395.792 531.962 403.404 531.962 403.404" stroke="white" stroke-miterlimit="10" stroke-linecap="round" stroke-linejoin="round"/>
<path d="M532.688 260.466L521.622 265.28C521.622 265.28 521.378 297.282 521.142 308.357C520.898 319.422 528.842 352.872 530.29 370.443C530.56 373.704 530.787 376.887 530.978 379.904" stroke="white" stroke-miterlimit="10" stroke-linecap="round" stroke-linejoin="round"/>
<path d="M500.18 136.364C500.18 136.364 484.135 143.732 484.135 145.406C484.135 147.081 487.204 229.092 487.204 229.092C487.204 229.092 484.414 230.766 489.995 232.162C495.575 233.557 513.146 236.905 529.051 232.999C544.948 229.092 554.435 229.092 555.831 225.465C557.226 221.837 553.598 206.778 553.598 206.778C553.598 206.778 563.086 143.453 562.249 140.942C561.411 138.43 538.504 131.28 538.504 131.28C538.504 131.28 521.256 126.205 500.18 136.364Z" fill="#39B4EF" stroke="#002E47" stroke-miterlimit="10" stroke-linecap="round" stroke-linejoin="round"/>
<path d="M499.42 77.2943C499.42 77.2943 492.784 90.8016 493.255 92.4671C493.726 94.1239 493.726 94.1239 493.726 94.1239L488.982 106.21L493.011 109.768L501.068 118.305L501.304 123.755L504.862 124.225L505.097 129.911L530.219 125.647L530.455 111.424C530.455 111.424 518.369 112.61 516.468 109.053C514.576 105.495 519.79 89.6157 520.026 84.8807C520.261 80.1371 515.997 77.2943 512.675 76.1084C509.378 74.9225 499.42 77.2943 499.42 77.2943Z" fill="white" stroke="#002E47" stroke-miterlimit="10" stroke-linecap="round" stroke-linejoin="round"/>
<path d="M505.114 70.6583C505.114 70.6583 498.949 70.8937 498.243 75.402C497.528 79.9015 501.565 81.567 502.742 81.3316C503.928 81.0961 513.878 81.567 511.75 82.0466C509.613 82.5175 503.693 82.9971 503.457 83.9389C503.222 84.8893 499.428 89.6243 500.614 91.0457C501.8 92.467 504.408 93.4175 504.408 93.4175C504.408 93.4175 502.986 103.611 501.565 108.59C500.144 113.569 493.743 110.012 493.037 109.776C492.322 109.541 492.086 114.52 492.086 116.412C492.086 118.304 490.194 121.627 492.557 123.999C494.929 126.37 500.379 125.184 501.329 123.763C502.28 122.342 505.594 118.078 505.358 114.284C505.123 110.491 506.073 98.6408 506.073 98.6408C506.073 98.6408 510.102 94.6121 511.523 100.062C512.944 105.512 510.808 111.442 510.808 111.442C510.808 111.442 515.308 116.892 521.473 117.607C527.638 118.322 530.48 116.892 532.373 112.392C534.265 107.893 543.273 103.855 543.273 93.4349C543.273 83.0145 535.451 73.7626 530.951 72.5767C526.452 71.3908 517.679 71.1553 517.679 71.1553C517.679 71.1553 520.051 66.8912 516.258 66.8912C512.456 66.8651 505.114 70.6583 505.114 70.6583Z" fill="#002E47" stroke="#002E47" stroke-miterlimit="10" stroke-linecap="round" stroke-linejoin="round"/>
<path d="M494.494 93.0775C494.494 93.0775 496.77 91.3771 498.898 93.6443" stroke="#002E47" stroke-miterlimit="10" stroke-linecap="round" stroke-linejoin="round"/>
<path d="M497.475 96.6964C497.475 97.673 497.091 98.4752 496.62 98.4752C496.149 98.4752 495.766 97.6817 495.766 96.6964C495.766 95.7197 496.149 94.9175 496.62 94.9175C497.091 94.9175 497.475 95.7197 497.475 96.6964Z" fill="#002E47"/>
<path d="M501.662 129.379L500.18 136.364C500.18 136.364 515.422 132.762 522.616 131.498C529.81 130.225 538.495 131.289 538.495 131.289C538.495 131.289 536.376 124.94 532.993 123.667C529.601 122.394 509.074 124.304 501.662 129.379Z" fill="white" stroke="#002E47" stroke-miterlimit="10" stroke-linecap="round" stroke-linejoin="round"/>
<path d="M535.18 168.008C535.18 168.008 532.669 181.123 527.367 189.207" stroke="#002E47" stroke-miterlimit="10" stroke-linecap="round" stroke-linejoin="round"/>
<path d="M526.015 196.575C524.463 198.38 522.981 199.95 521.795 200.926" stroke="#002E47" stroke-miterlimit="10" stroke-linecap="round" stroke-linejoin="round"/>
<path d="M536.018 183.626C536.018 183.626 531.858 189.503 527.664 194.604" stroke="#002E47" stroke-miterlimit="10" stroke-linecap="round" stroke-linejoin="round"/>
<path d="M446.472 186.242L440.508 177.705C440.508 177.705 455.899 178.935 457.747 178.525C459.596 178.115 469.851 175.856 469.851 175.856L487.09 200.482L462.465 208.487L446.472 186.242Z" fill="white" stroke="#002E47" stroke-miterlimit="10" stroke-linecap="round" stroke-linejoin="round"/>
<path d="M465.324 207.187C465.324 207.187 462.507 204.266 461.993 203.019C461.47 201.772 460.432 195.415 459.909 194.683C459.386 193.95 456.682 191.142 455.636 189.887C454.598 188.64 453.552 184.785 452.41 185.928C451.267 187.07 450.744 188.849 451.267 190.201C451.791 191.552 452.305 193.218 452.514 193.636C452.724 194.055 446.471 186.242 446.471 186.242C446.471 186.242 445.53 192.703 446.053 194.369C446.576 196.034 449.07 203.847 449.593 204.894C450.116 205.94 459.595 212.602 460.118 212.916C460.641 213.23 465.324 207.187 465.324 207.187Z" fill="white" stroke="#002E47" stroke-miterlimit="10" stroke-linecap="round" stroke-linejoin="round"/>
<path d="M452.514 193.645C452.514 193.645 453.761 198.851 453.865 199.479C453.97 200.107 456.368 202.6 456.368 202.6" fill="white"/>
<path d="M452.514 193.645C452.514 193.645 453.761 198.851 453.865 199.479C453.97 200.107 456.368 202.6 456.368 202.6" stroke="#002E47" stroke-miterlimit="10" stroke-linecap="round" stroke-linejoin="round"/>
<path d="M507.285 173.031C507.285 173.031 507.285 173.031 505.89 185.588C504.494 198.145 494.17 225.761 492.217 228.551C490.263 231.342 485.241 230.505 481.055 228.551C476.869 226.598 462.647 220.18 462.647 220.18C462.647 220.18 457.345 216.832 460.136 210.414C462.926 203.996 465.716 205.67 468.228 206.786C470.739 207.902 478.552 208.46 478.552 208.46C478.552 208.46 481.343 162.994 481.343 154.902C481.343 146.81 484.133 145.415 484.133 145.415C484.133 145.415 486.365 143.183 489.993 142.066" fill="#39B4EF"/>
<path d="M507.285 173.031C507.285 173.031 507.285 173.031 505.89 185.588C504.494 198.145 494.17 225.761 492.217 228.551C490.263 231.342 485.241 230.505 481.055 228.551C476.869 226.598 462.647 220.18 462.647 220.18C462.647 220.18 457.345 216.832 460.136 210.414C462.926 203.996 465.716 205.67 468.228 206.786C470.739 207.902 478.552 208.46 478.552 208.46C478.552 208.46 481.343 162.994 481.343 154.902C481.343 146.81 484.133 145.415 484.133 145.415C484.133 145.415 486.365 143.183 489.993 142.066" stroke="#002E47" stroke-miterlimit="10" stroke-linecap="round" stroke-linejoin="round"/>
<path d="M478.553 208.452C478.553 208.452 476.878 215.707 478.553 218.218" stroke="#002E47" stroke-miterlimit="10" stroke-linecap="round" stroke-linejoin="round"/>
<path d="M468.228 208.731C468.228 208.731 461.531 211.242 466.553 221.009" stroke="#002E47" stroke-miterlimit="10" stroke-linecap="round" stroke-linejoin="round"/>
<path d="M503.178 169.796C503.448 171.296 503.622 172.839 503.666 174.418" stroke="#002E47" stroke-miterlimit="10" stroke-linecap="round" stroke-linejoin="round"/>
<path d="M495.564 152.661C495.564 152.661 500.483 158.983 502.654 167.442" stroke="#002E47" stroke-miterlimit="10" stroke-linecap="round" stroke-linejoin="round"/>
<path d="M403.256 293.776C403.256 293.776 406.317 316.823 406.317 318.471C406.317 320.119 407.084 334.333 409.665 342.094C412.255 349.855 416.658 387.691 416.658 388.868C416.658 390.045 421.594 404.154 426.303 403.683C431.003 403.212 430.061 394.745 428.657 391.222C427.245 387.691 425.736 382.049 425.736 382.049C425.736 382.049 429.128 338.458 428.657 330.932C428.186 323.407 426.067 311.888 426.067 311.888L427.951 294.483L403.256 293.776Z" fill="white" stroke="#002E47" stroke-miterlimit="10" stroke-linecap="round" stroke-linejoin="round"/>
<path d="M426.303 403.683C430.271 403.282 430.218 397.195 429.259 393.184L419.484 394.981L417.967 392.958C419.746 397.474 423.077 404.006 426.303 403.683Z" fill="#002E47" stroke="#002E47" stroke-miterlimit="10" stroke-linecap="round" stroke-linejoin="round"/>
<path d="M373.391 294.954L377.385 319.413C377.385 319.413 377.15 324.113 378.091 340.812C379.033 357.511 379.975 383.139 379.975 383.139C379.975 383.139 370.566 393.019 368.918 394.423C367.27 395.835 364.453 400.3 369.86 400.3C375.266 400.3 380.681 398.887 383.027 397.239C385.381 395.591 389.611 391.833 390.317 391.362C391.023 390.891 391.73 389.478 391.73 386.897C391.73 384.307 390.788 380.314 390.788 377.959C390.788 375.605 396.901 343.393 396.901 336.103C396.901 328.813 396.194 313.056 396.194 313.056L397.607 296.122L373.391 294.954Z" fill="white" stroke="#002E47" stroke-miterlimit="10" stroke-linecap="round" stroke-linejoin="round"/>
<path d="M383.036 397.248C385.39 395.6 389.619 391.841 390.326 391.37C391.032 390.9 391.738 389.487 391.738 386.906C391.738 386.043 391.634 385.022 391.494 383.958C390.614 384.944 389.637 386.104 388.686 387.368C385.861 391.126 379.513 393.716 379.513 393.716L372.049 391.362C370.619 392.818 369.424 394.004 368.936 394.422C367.288 395.835 364.471 400.3 369.877 400.3C375.275 400.308 380.681 398.896 383.036 397.248Z" fill="#002E47" stroke="#002E47" stroke-miterlimit="10" stroke-linecap="round" stroke-linejoin="round"/>
<path d="M380.742 80.6511C380.742 80.6511 376.094 81.0871 372.746 90.6791C369.406 100.271 367.95 115.819 368.674 117.999C369.398 120.179 376.086 124.103 382.478 125.55C388.869 127.007 397.005 126.858 406.885 124.966C416.765 123.074 422.284 116.979 422.284 115.81C422.284 114.65 419.232 96.1901 412.405 84.8628C405.594 73.5356 386.559 74.5558 380.742 80.6511Z" fill="#002E47" stroke="#002E47" stroke-miterlimit="10" stroke-linecap="round" stroke-linejoin="round"/>
<path d="M373.278 196.261C373.278 196.261 365.857 208.948 362.047 231.115C358.236 253.281 360.704 298.738 360.704 298.738H433.481C433.481 298.738 434.152 250.368 430.124 227.984C426.095 205.591 417.924 196.261 417.924 196.261H373.278Z" fill="#002E47" stroke="#002E47" stroke-miterlimit="10" stroke-linecap="round" stroke-linejoin="round"/>
<path d="M387.586 134.07C387.586 134.07 366.859 142.398 366.518 143.418C366.178 144.438 370.207 162.349 370.207 162.349C370.207 162.349 369.012 171.043 370.207 178.027C371.402 185.012 373.782 189.102 373.782 189.102C373.782 189.102 372.247 194.386 373.268 196.261C374.288 198.136 386.731 200.516 397.631 200.351C408.54 200.176 417.905 196.941 417.905 196.261C417.905 195.581 418.42 189.616 418.42 189.616C418.42 189.616 429.669 143.444 429.494 142.075C429.32 140.715 405.296 133.041 405.296 133.041L387.586 134.07Z" fill="white" stroke="#002E47" stroke-miterlimit="10" stroke-linecap="round" stroke-linejoin="round"/>
<path d="M389.314 130.782C389.314 130.782 385.974 131.802 384.954 133.834C383.934 135.866 383.646 142.554 383.21 145.17C382.774 147.786 382.338 151.126 382.338 151.126L391.197 145.31L402.673 152.722C402.673 152.722 406.013 137.898 406.309 135.578C406.597 133.25 406.161 132.674 405.437 131.654C404.713 130.634 401.949 129.474 401.513 129.474C401.086 129.474 389.314 130.782 389.314 130.782Z" fill="white" stroke="#002E47" stroke-miterlimit="10" stroke-linecap="round" stroke-linejoin="round"/>
<path d="M388.301 127.73L388.589 136.45C388.589 136.45 390.917 144.734 391.205 145.31C391.492 145.894 401.669 133.25 401.669 133.25L403.413 116.106C403.413 116.106 397.021 121.051 395.277 122.498C393.524 123.954 388.301 127.73 388.301 127.73Z" fill="white" stroke="#002E47" stroke-miterlimit="10" stroke-linecap="round" stroke-linejoin="round"/>
<path d="M399.305 121.757L388.929 134.881L388.301 127.731L399.305 121.757Z" fill="#002E47" stroke="#002E47" stroke-miterlimit="10" stroke-linecap="round" stroke-linejoin="round"/>
<path d="M393.385 87.7754C393.385 87.7754 383.357 95.7629 379.582 98.8149C375.806 101.867 374.35 102.887 374.35 102.887C374.35 102.887 376.53 113.491 376.966 116.543C377.402 119.595 381.91 127.007 383.942 128.166C385.973 129.326 387.717 129.762 388.886 129.474C390.046 129.187 399.202 123.083 400.946 121.775C402.69 120.467 403.413 116.107 403.413 116.107C403.413 116.107 406.753 114.65 408.933 111.459C411.113 108.259 410.241 103.899 408.209 103.471C406.178 103.035 403.701 105.364 403.701 105.364C403.701 105.364 396.15 96.7919 393.821 93.1556C391.493 89.5194 393.385 87.7754 393.385 87.7754Z" fill="white" stroke="#002E47" stroke-miterlimit="10" stroke-linecap="round" stroke-linejoin="round"/>
<path d="M383.793 102.887L385.101 106.663L382.049 114.511L386.261 115.235" stroke="#002E47" stroke-miterlimit="10" stroke-linecap="round" stroke-linejoin="round"/>
<path d="M384.666 118.583C384.666 118.583 390.334 119.603 393.962 115.383" stroke="#002E47" stroke-miterlimit="10" stroke-linecap="round" stroke-linejoin="round"/>
<path d="M387.717 101.431C387.717 101.431 391.929 99.835 394.981 101.867" stroke="#002E47" stroke-miterlimit="10" stroke-linecap="round" stroke-linejoin="round"/>
<path d="M382.199 101.431C382.199 101.431 378.711 99.9747 376.818 102.155" stroke="#002E47" stroke-miterlimit="10" stroke-linecap="round" stroke-linejoin="round"/>
<path d="M382.05 106.375C382.05 107.422 381.622 108.267 381.108 108.267C380.585 108.267 380.166 107.422 380.166 106.375C380.166 105.329 380.585 104.483 381.108 104.483C381.631 104.483 382.05 105.329 382.05 106.375Z" fill="#002E47"/>
<path d="M392.147 106.375C392.147 107.422 391.729 108.267 391.205 108.267C390.682 108.267 390.264 107.422 390.264 106.375C390.264 105.329 390.682 104.483 391.205 104.483C391.729 104.483 392.147 105.329 392.147 106.375Z" fill="#002E47"/>
<path d="M371.395 248.947L371.534 239.137H398.47L399.028 248.668L395.575 248.529V241.483H374.298V248.947H371.395Z" fill="white" stroke="#002E47" stroke-miterlimit="10" stroke-linecap="round" stroke-linejoin="round"/>
<path d="M371.395 248.947L371.534 239.137H398.47L399.028 248.668L395.575 248.529V241.483H374.298V248.947H371.395Z" fill="#969696" stroke="#002E47" stroke-miterlimit="10" stroke-linecap="round" stroke-linejoin="round"/>
<path d="M378.046 225.909C378.046 225.909 384.525 233.914 384.691 234.943C384.865 235.963 385.885 241.927 385.885 241.927C385.885 241.927 384.011 243.122 383.331 242.948C382.65 242.773 381.456 241.753 381.456 241.753C381.456 241.753 375.666 242.607 374.977 242.607C374.297 242.607 372.587 241.247 372.587 239.878C372.587 238.509 371.053 228.629 371.053 228.629L378.046 225.909Z" fill="white" stroke="#002E47" stroke-miterlimit="10" stroke-linecap="round" stroke-linejoin="round"/>
<path d="M366.519 143.426C366.519 143.426 360.328 186.041 360.328 188.09C360.328 190.131 371.062 228.647 371.062 228.647L378.047 225.917L373.277 196.269L373.792 189.11C373.792 189.11 369.877 180.076 369.702 174.801C369.528 169.517 370.217 162.366 370.217 162.366L366.519 143.426Z" fill="white" stroke="#002E47" stroke-miterlimit="10" stroke-linecap="round" stroke-linejoin="round"/>
<path d="M416.729 159.123L407.355 196.27L392.531 227.618L399.516 230.348L423.54 192.695C423.54 192.695 434.099 147.028 434.274 144.987C434.448 142.947 420.985 139.023 420.985 139.023" fill="white"/>
<path d="M416.729 159.123L407.355 196.27L392.531 227.618L399.516 230.348L423.54 192.695C423.54 192.695 434.099 147.028 434.274 144.987C434.448 142.947 420.985 139.023 420.985 139.023" stroke="#002E47" stroke-miterlimit="10" stroke-linecap="round" stroke-linejoin="round"/>
<path d="M392.531 227.618C392.531 227.618 386.052 235.623 385.886 236.652C385.712 237.672 384.691 243.637 384.691 243.637C384.691 243.637 386.566 244.831 387.246 244.657C387.927 244.483 389.121 243.462 389.121 243.462C389.121 243.462 394.911 244.317 395.6 244.317C396.289 244.317 397.989 242.957 397.989 241.588C397.989 240.219 399.524 230.339 399.524 230.339L392.531 227.618Z" fill="white" stroke="#002E47" stroke-miterlimit="10" stroke-linecap="round" stroke-linejoin="round"/>
<path d="M412.212 248.258L358.915 247.011C358.915 247.011 354.66 289.085 355.558 292.32C356.456 295.555 361.156 296.053 361.156 296.053H409.971C409.971 296.053 413.651 296.794 414.776 292.817C415.892 288.832 415.342 286.094 415.342 286.094L412.212 248.258Z" fill="#969696" stroke="#002E47" stroke-miterlimit="10" stroke-linecap="round" stroke-linejoin="round"/>
<path d="M359.186 271.166L406.082 272.064" stroke="#002E47" stroke-miterlimit="10" stroke-linecap="round" stroke-linejoin="round"/>
<path d="M414.775 292.809C415.892 288.824 415.342 286.094 415.342 286.094L412.203 248.258C412.203 248.258 407.503 292.573 409.962 296.053C409.971 296.053 413.651 296.794 414.775 292.809Z" fill="#6B6B6B" stroke="#002E47" stroke-miterlimit="10" stroke-linecap="round" stroke-linejoin="round"/>
<path d="M343.785 239.844C343.785 239.844 343.611 249.471 343.541 252.174C343.471 254.877 336.652 261.6 336.652 261.6L335.248 240.681L343.785 239.844Z" fill="white" stroke="#002E47" stroke-miterlimit="10" stroke-linecap="round" stroke-linejoin="round"/>
<path d="M340.541 242.756C340.541 242.756 340.384 248.703 340.349 249.785C340.323 250.866 337.995 256.761 337.568 257.423C337.14 258.086 336.504 256.717 336.548 255.226C336.591 253.735 336.949 250.5 336.949 250.5L335.396 242.878" fill="white"/>
<path d="M340.541 242.756C340.541 242.756 340.384 248.703 340.349 249.785C340.323 250.866 337.995 256.761 337.568 257.423C337.14 258.086 336.504 256.717 336.548 255.226C336.591 253.735 336.949 250.5 336.949 250.5L335.396 242.878" stroke="#002E47" stroke-miterlimit="10" stroke-linecap="round" stroke-linejoin="round"/>
<path d="M341.004 138.822C341.004 138.822 344.823 149.783 345.216 158.948C345.608 168.113 345.565 201.789 345.774 209.882C345.983 217.982 343.794 239.843 343.794 239.843L335.257 240.681L333.365 204.44L339.138 155.809L341.004 138.822Z" fill="#39B4EF" stroke="#002E47" stroke-miterlimit="10" stroke-linecap="round" stroke-linejoin="round"/>
<path d="M276.432 380.488L271.174 385.886C271.174 385.886 261.364 394.353 260.893 396.045C260.422 397.737 263.919 402.306 273.162 399.14C282.405 395.984 283.321 393.664 285.893 392.879C288.466 392.095 291.457 391.755 292.085 384.316C292.712 376.887 276.432 380.488 276.432 380.488Z" fill="white" stroke="#002E47" stroke-miterlimit="10" stroke-linecap="round" stroke-linejoin="round"/>
<path d="M334.742 381.639L341.404 387.778C341.404 387.778 350.744 396.76 351.127 398.478C351.511 400.196 347.77 404.564 338.71 400.911C329.65 397.257 328.865 394.894 326.336 393.978C323.807 393.054 320.843 392.548 320.616 385.092C320.389 377.628 334.742 381.639 334.742 381.639Z" fill="white" stroke="#002E47" stroke-miterlimit="10" stroke-linecap="round" stroke-linejoin="round"/>
<path d="M275.927 215.253L275.177 229.693C275.177 229.693 273.869 309.508 274.75 316.562C275.622 323.617 276.808 374.323 276.808 374.323L275.23 377.689L275.326 382.163C275.326 382.163 277.209 383.279 281.665 384.037C286.112 384.796 292.094 384.316 292.094 384.316L294.039 375.422L306.099 259.917L318.045 361.592L320.582 385.938C320.582 385.938 324.402 386.47 326.573 385.031C328.744 383.601 335.145 382.921 335.145 382.921C335.145 382.921 335.747 376.338 335.598 373.992C335.45 371.646 334.639 370.129 334.665 369.065C334.691 368.001 338.607 262.707 338.607 262.707L337.063 214.721L275.927 215.253Z" fill="#002E47" stroke="#002E47" stroke-miterlimit="10" stroke-linecap="round" stroke-linejoin="round"/>
<path d="M275.734 219.02C281.769 220.311 294.186 222.517 307.964 222.282C320.39 222.072 331.098 220.328 337.193 219.107L337.053 214.73L275.935 215.262L275.734 219.02Z" fill="#969696" stroke="#002E47" stroke-miterlimit="10" stroke-linecap="round" stroke-linejoin="round"/>
<path d="M315.578 217.371L306.934 217.705L307.124 222.645L315.769 222.311L315.578 217.371Z" fill="white" stroke="#002E47" stroke-miterlimit="10" stroke-linecap="round" stroke-linejoin="round"/>
<path d="M281.551 224.209L281.342 214.163L286.129 214.599L287.001 222.874" fill="#002E47"/>
<path d="M281.551 224.209L281.342 214.163L286.129 214.599L287.001 222.874" stroke="#002E47" stroke-miterlimit="10" stroke-linecap="round" stroke-linejoin="round"/>
<path d="M328.752 223.964L328.543 213.919L333.33 214.355L334.202 222.63" fill="#002E47"/>
<path d="M328.752 223.964L328.543 213.919L333.33 214.355L334.202 222.63" stroke="#002E47" stroke-miterlimit="10" stroke-linecap="round" stroke-linejoin="round"/>
<path d="M289.303 132.937C289.303 132.937 268.244 140.61 268.157 143.758C268.07 146.906 275.926 215.253 275.926 215.253C275.926 215.253 311.155 221.785 337.045 214.722L340.106 163.047C340.106 163.047 342.669 139.834 341.004 138.823C339.33 137.811 317.041 129.562 317.041 129.562L289.303 132.937Z" fill="#39B4EF" stroke="#002E47" stroke-miterlimit="10" stroke-linecap="round" stroke-linejoin="round"/>
<path d="M296.087 125.777C296.087 125.777 291.928 126.736 291.448 127.338C290.968 127.94 287.594 133.974 287.594 133.974L295.756 155.033L308.635 143.435L322.439 154.222C322.439 154.222 322.57 137.985 321.942 133.067C321.305 128.149 320.529 128.742 318.445 126.388C316.361 124.033 315.123 124.46 315.123 124.46L296.087 125.777Z" fill="white" stroke="#002E47" stroke-miterlimit="10" stroke-linecap="round" stroke-linejoin="round"/>
<path d="M294.221 120.981L294.421 130.634C294.421 130.634 298.956 138.57 300.281 140.601C301.607 142.624 307.03 151.51 307.353 150.9C307.676 150.298 317.337 132.788 317.695 131.114C318.044 129.44 316.387 117.136 316.387 117.136C316.387 117.136 307.44 125.01 304.214 125.385C300.987 125.76 294.221 120.981 294.221 120.981Z" fill="white" stroke="#002E47" stroke-miterlimit="10" stroke-linecap="round" stroke-linejoin="round"/>
<path d="M305.775 126.17L297.927 136.398L294.421 130.634L294.221 120.981L305.775 126.17Z" fill="#002E47" stroke="#002E47" stroke-miterlimit="10" stroke-linecap="round" stroke-linejoin="round"/>
<path d="M288.239 98.4488C288.239 98.4488 285.806 97.6204 285.1 101.274C284.385 104.928 288.457 107.491 288.457 107.491L288.239 98.4488Z" fill="white" stroke="#002E47" stroke-miterlimit="10" stroke-linecap="round" stroke-linejoin="round"/>
<path d="M288.195 88.7959C288.195 88.7959 288.413 103.506 288.457 107.492C288.501 111.477 290.994 115.68 292.425 119.551C293.855 123.423 299.802 130.015 303.647 129.353C307.493 128.69 313.78 122.882 316.335 119.124C318.89 115.366 319.657 109.715 319.657 109.715C319.657 109.715 325.098 106.646 324.889 103.114C324.68 99.5825 322.273 97.9867 322.273 97.9867L321.898 88.9441C321.898 88.9441 319.448 83.2063 309.219 82.0117C298.991 80.8171 289.364 85.3079 289.364 85.3079L288.195 88.7959Z" fill="white" stroke="#002E47" stroke-miterlimit="10" stroke-linecap="round" stroke-linejoin="round"/>
<path d="M290.436 96.67C290.436 96.67 292.79 94.5859 297.159 97.1583" stroke="#002E47" stroke-miterlimit="10" stroke-linecap="round" stroke-linejoin="round"/>
<path d="M302.977 97.3152C302.977 97.3152 306.107 94.7951 310.014 97.8123" stroke="#002E47" stroke-miterlimit="10" stroke-linecap="round" stroke-linejoin="round"/>
<path d="M298.364 98.1089L299.218 100.428L296.803 110.631L301.86 110.456" stroke="#002E47" stroke-miterlimit="10" stroke-linecap="round" stroke-linejoin="round"/>
<path d="M299.008 114.058C299.008 114.058 305.53 116.534 309.045 111.11" stroke="#002E47" stroke-miterlimit="10" stroke-linecap="round" stroke-linejoin="round"/>
<path d="M307.597 102.19C307.571 103.201 307.065 104.012 306.472 103.995C305.88 103.977 305.426 103.14 305.452 102.129C305.478 101.117 305.984 100.306 306.577 100.324C307.17 100.341 307.624 101.178 307.597 102.19Z" fill="#002E47"/>
<path d="M294.744 101.693C294.718 102.704 294.212 103.515 293.619 103.498C293.026 103.48 292.573 102.643 292.599 101.631C292.625 100.62 293.131 99.809 293.724 99.8264C294.308 99.8352 294.77 100.672 294.744 101.693Z" fill="#002E47"/>
<path d="M297.499 74.5909C293.602 75.7158 289.948 77.608 286.835 80.2066C284.611 82.0639 282.475 84.1916 282.152 85.7263C281.446 89.0748 293.776 92.1704 297.473 91.499C301.171 90.8363 309.69 87.2349 309.69 87.2349C309.69 87.2349 308.818 91.1938 309.882 91.3769C310.946 91.56 314.338 90.8886 314.338 90.8886C314.338 90.8886 313.788 94.2458 314.224 95.1788C314.66 96.1119 316.143 97.9867 316.143 97.9867C316.143 97.9867 316.762 103.515 317.364 103.69C317.974 103.855 317.974 103.855 317.974 103.855C317.974 103.855 319.169 99.4429 319.639 98.8412C320.119 98.2395 322.264 97.9954 322.264 97.9954C322.264 97.9954 325.151 87.6535 324.462 84.5753C323.781 81.4971 318.349 78.4364 318.349 78.4364L315.454 77.7475C315.454 77.7475 309.768 71.0506 300.708 73.6753C299.304 74.0677 298.284 74.3642 297.499 74.5909Z" fill="#002E47" stroke="#002E47" stroke-miterlimit="10" stroke-linecap="round" stroke-linejoin="round"/>
<path d="M331.01 181.62C331.01 181.62 334.018 180.347 334.437 179.824C334.855 179.292 339.076 173.188 340.174 172.543C341.273 171.898 349.112 171.837 349.112 171.837C349.112 171.837 353.656 168.715 353.874 170.616C354.092 172.517 349.583 174.418 348.755 174.801C347.935 175.185 344.526 176.31 344.526 176.31C344.526 176.31 351.72 175.29 352.818 174.775C353.917 174.261 363.3 172.22 362.995 173.563C362.69 174.906 359.123 176.842 359.123 176.842C359.123 176.842 350.813 184.324 348.886 185.353C346.967 186.381 332.457 188.021 332.457 188.021L331.01 181.62Z" fill="white" stroke="#002E47" stroke-miterlimit="10" stroke-linecap="round" stroke-linejoin="round"/>
<path d="M325.884 181.48L332.52 180.983L333.209 190.331L325.875 191.622L325.884 181.48Z" fill="#39B4EF" stroke="#002E47" stroke-miterlimit="10" stroke-linecap="round" stroke-linejoin="round"/>
<path d="M278.761 137.253C278.761 137.253 263.597 141.936 262.56 144.578C261.522 147.22 273.547 204.763 273.756 205.74C273.974 206.716 276.11 208.469 277.323 208.26C278.543 208.051 326.407 195.52 327.654 194.099C328.901 192.677 326.791 181.228 326.791 181.228L288.432 182.859L285.118 152.94" fill="#39B4EF"/>
<path d="M278.761 137.253C278.761 137.253 263.597 141.936 262.56 144.578C261.522 147.22 273.547 204.763 273.756 205.74C273.974 206.716 276.11 208.469 277.323 208.26C278.543 208.051 326.407 195.52 327.654 194.099C328.901 192.677 326.791 181.228 326.791 181.228L288.432 182.859L285.118 152.94" stroke="#002E47" stroke-miterlimit="10" stroke-linecap="round" stroke-linejoin="round"/>
<path d="M306.088 259.917L306.733 251.842L315.819 246.34" stroke="white" stroke-miterlimit="10" stroke-linecap="round" stroke-linejoin="round"/>
<path d="M216.377 165.889L226.963 148.746L228.306 137.985C228.306 137.985 228.812 132.945 228.977 132.44C229.143 131.934 228.637 122.35 229.814 122.019C230.992 121.679 231.663 125.551 231.829 126.728C231.994 127.905 232.169 135.3 232.169 135.3C232.169 135.3 234.523 125.045 234.523 124.208C234.523 123.371 235.36 121.688 236.538 122.699C237.715 123.711 236.372 127.408 236.372 129.257C236.372 131.105 235.866 134.297 235.866 134.297C235.866 134.297 239.904 124.548 240.906 123.536C241.918 122.525 242.921 123.536 242.084 126.902C241.246 130.268 239.729 134.637 239.563 135.64C239.398 136.651 239.398 136.651 239.398 136.651C239.398 136.651 242.424 133.285 243.932 130.26C245.441 127.234 246.792 129.248 245.441 131.602C244.098 133.957 240.06 141.517 239.895 142.023C239.729 142.529 238.386 145.554 236.703 148.406C235.02 151.266 231.994 153.952 231.994 153.952L224.434 171.767L216.377 165.889Z" fill="white" stroke="#002E47" stroke-miterlimit="10" stroke-linecap="round" stroke-linejoin="round"/>
<path d="M228.654 144.369C228.654 144.369 231.34 137.14 232.692 133.948C234.035 130.757 235.883 126.388 236.389 129.239C236.895 132.1 235.377 135.457 234.706 137.305C234.035 139.154 235.046 142.52 234.035 145.206C233.023 147.891 231.009 149.409 231.009 149.409" fill="white"/>
<path d="M228.654 144.369C228.654 144.369 231.34 137.14 232.692 133.948C234.035 130.757 235.883 126.388 236.389 129.239C236.895 132.1 235.377 135.457 234.706 137.305C234.035 139.154 235.046 142.52 234.035 145.206C233.023 147.891 231.009 149.409 231.009 149.409" stroke="#002E47" stroke-miterlimit="10" stroke-linecap="round" stroke-linejoin="round"/>
<path d="M235.709 135.465L240.252 139.163" stroke="#002E47" stroke-miterlimit="10" stroke-linecap="round" stroke-linejoin="round"/>
<path d="M194.865 144.368L207.3 176.641L217.049 164.372L226.632 171.095C226.632 171.095 211.503 197.316 210.666 198.833C209.829 200.342 205.286 201.022 203.777 200.342C202.269 199.67 196.888 190.087 196.888 190.087L194.865 144.368Z" fill="#39B4EF" stroke="#002E47" stroke-miterlimit="10" stroke-linecap="round" stroke-linejoin="round"/>
<path d="M139.031 240.899C139.031 240.899 136.606 256.918 142.885 275.282C149.154 293.646 150.288 301.268 148.954 309.272C147.62 317.277 143.033 321.472 143.042 337.848C143.05 354.224 146.643 383.462 146.556 385.416C146.469 387.369 145.379 401.007 146.155 405.437C146.94 409.866 153.297 415.282 155.276 414.636C157.255 413.991 161.476 407.093 161.624 403.675C161.772 400.257 157.883 388.842 158.014 385.921C158.145 382.991 168.679 332.878 170.126 327.811C171.574 322.745 173.405 314.513 173.405 314.513C173.405 314.513 169.926 326.826 173.326 343.839C176.727 360.851 176.448 378.187 175.89 385.25C175.332 392.313 174.634 402.542 174.634 402.542C174.634 402.542 176.736 404.835 179.884 405.463C183.032 406.091 183.59 404.652 188.377 406.814C193.164 408.986 196.53 410.355 200.672 410.538C204.814 410.721 208.023 410.128 207.143 407.896C206.262 405.655 197.899 401.373 195.562 399.071C193.217 396.769 188.168 389.453 188.238 387.997C188.299 386.532 196.827 337.551 196.896 330.462C196.966 323.381 202.233 292.818 203.131 277.95C204.038 263.083 200.193 234.08 200.193 234.08L141.411 231.473L139.031 240.899Z" fill="white" stroke="#002E47" stroke-miterlimit="10" stroke-linecap="round" stroke-linejoin="round"/>
<path d="M175.759 386.846C179.099 388.032 183.598 389.087 188.403 388.72C188.29 388.415 188.22 388.162 188.229 387.997C188.29 386.532 196.818 337.551 196.888 330.462C196.958 323.381 202.224 292.818 203.123 277.95C204.029 263.083 200.184 234.08 200.184 234.08L141.402 231.473L139.031 240.899C139.031 240.899 136.606 256.918 142.885 275.282C149.154 293.646 150.288 301.268 148.954 309.272C147.62 317.277 143.033 321.472 143.042 337.848C143.05 354.224 146.643 383.462 146.556 385.416C146.556 385.416 151.727 386.724 158.031 386.218C158.031 386.122 158.014 386.008 158.023 385.921C158.154 382.991 168.687 332.878 170.135 327.811C171.146 324.28 172.341 319.213 172.969 316.466C172.158 320.574 170.736 330.828 173.335 343.839C176.736 360.851 176.457 378.187 175.899 385.25C175.846 385.764 175.803 386.296 175.759 386.846Z" fill="#002E47" stroke="#002E47" stroke-miterlimit="10" stroke-linecap="round" stroke-linejoin="round"/>
<path d="M175.045 310.598C175.045 310.598 177.242 301.075 177.242 293.751C177.242 286.426 176.266 256.15 176.266 256.15" stroke="white" stroke-miterlimit="10" stroke-linecap="round" stroke-linejoin="round"/>
<path d="M161.625 403.675C161.677 402.48 161.232 400.292 160.639 397.833C158.904 396.603 156.201 395.225 153.314 395.801C148.431 396.778 145.99 398.242 145.99 398.242L145.902 398.094C145.833 401.076 145.876 403.849 146.155 405.436C146.94 409.866 153.297 415.281 155.276 414.636C157.265 413.991 161.476 407.085 161.625 403.675Z" fill="white" stroke="#002E47" stroke-miterlimit="10" stroke-linecap="round" stroke-linejoin="round"/>
<path d="M207.143 407.896C206.262 405.655 197.9 401.373 195.563 399.071C195.502 399.01 195.432 398.94 195.371 398.87C194.15 398.74 192.999 398.713 192.38 398.975C190.671 399.707 187.008 400.928 187.008 400.928L175.123 395.574C174.844 399.489 174.635 402.533 174.635 402.533C174.635 402.533 176.736 404.826 179.884 405.454C183.032 406.082 183.59 404.643 188.377 406.806C193.165 408.977 196.531 410.346 200.673 410.529C204.815 410.721 208.015 410.128 207.143 407.896Z" stroke="#002E47" stroke-miterlimit="10" stroke-linecap="round" stroke-linejoin="round"/>
<path d="M195.781 209.794C196.122 208.617 196.122 204.754 196.287 203.908C196.453 203.071 198.903 192.782 198.903 192.782C198.903 192.782 195.372 145.214 194.866 144.368C194.36 143.531 178.228 137.645 178.228 137.645L157.213 137.985C157.213 137.985 134.523 146.051 134.523 146.723C134.523 147.394 148.641 209.254 148.641 209.254C148.641 209.254 141.351 224.906 139.154 232.719C136.956 240.532 136.956 247.857 136.956 247.857L150.141 238.579C150.141 238.579 157.954 244.927 162.837 247.613C167.72 250.299 172.604 252.252 172.604 252.252L179.928 245.171L184.323 252.252C184.323 252.252 187.497 251.764 194.09 246.88C200.682 241.997 202.391 238.823 202.391 238.823L195.781 209.794Z" fill="#39B4EF" stroke="#002E47" stroke-miterlimit="10" stroke-linecap="round" stroke-linejoin="round"/>
<path d="M164.275 130.922C164.275 130.922 158.389 131.759 157.212 133.277C156.034 134.785 153.846 138.491 153.846 138.491C153.846 138.491 154.683 153.62 155.354 156.646C156.026 159.672 157.369 162.358 158.04 161.686C158.711 161.015 169.472 152.103 169.978 151.937C170.483 151.772 183.764 157.823 185.107 158.495C186.45 159.166 187.461 159.166 187.296 157.152C187.13 155.138 185.787 144.543 183.093 139.163C180.407 133.782 176.535 130.591 176.535 130.591L164.275 130.922Z" fill="white" stroke="#002E47" stroke-miterlimit="10" stroke-linecap="round" stroke-linejoin="round"/>
<path d="M193.017 88.229C193.017 88.229 195.703 93.9406 195.703 98.318C195.703 102.695 195.032 105.547 195.363 107.561C195.703 109.576 199.226 110.753 199.06 112.096C198.895 113.439 195.694 115.627 195.694 115.627C195.694 115.627 192.163 124.365 191.326 127.391C190.489 130.416 186.957 129.745 185.274 129.405C183.591 129.065 179.388 127.722 179.388 127.722C179.388 127.722 178.211 135.282 178.211 136.294C178.211 137.305 180.06 139.154 179.894 145.031C179.728 150.917 178.551 164.023 176.868 166.046C175.185 168.061 172.499 164.363 172.159 163.02C171.819 161.678 164.259 148.231 161.904 142.851C159.977 138.439 159.384 136.965 160.222 135.457C161.059 133.948 161.904 132.771 161.904 132.771C161.904 132.771 163.247 127.731 163.247 123.693C163.247 119.656 161.233 117.301 161.233 117.301C161.233 117.301 167.616 113.439 167.956 107.047C168.296 100.655 173.336 98.1349 178.377 95.1091C183.434 92.1007 193.017 88.229 193.017 88.229Z" fill="white" stroke="#002E47" stroke-miterlimit="10" stroke-linecap="round" stroke-linejoin="round"/>
<path d="M179.406 127.731C179.406 127.731 176.886 127.059 175.544 125.882C174.201 124.705 173.023 123.362 173.023 123.362C173.023 123.362 174.706 131.934 178.569 133.111L179.406 127.731Z" fill="#002E47" stroke="#002E47" stroke-miterlimit="10" stroke-linecap="round" stroke-linejoin="round"/>
<path d="M190.75 108.398C191.352 108.398 191.84 107.344 191.84 106.044C191.84 104.744 191.352 103.689 190.75 103.689C190.148 103.689 189.66 104.744 189.66 106.044C189.66 107.344 190.148 108.398 190.75 108.398Z" fill="#002E47"/>
<path d="M187.803 115.296C187.803 115.296 189.486 118.156 193.183 116.979" stroke="#002E47" stroke-miterlimit="10" stroke-linecap="round" stroke-linejoin="round"/>
<path d="M188.309 101.849C188.309 101.849 189.651 98.9892 193.183 99.6607" stroke="#002E47" stroke-miterlimit="10" stroke-linecap="round" stroke-linejoin="round"/>
<path d="M179.23 100.332C179.23 100.332 175.532 101.344 175.532 106.218C175.532 111.093 170.318 117.31 166.289 119.333C162.252 121.348 155.197 118.993 150.994 108.573C146.791 98.1523 150.523 84.4183 157.552 79.9973C167.972 73.4398 177.721 75.4629 183.938 76.1343C190.156 76.8058 195.536 79.8316 196.713 83.0231C197.89 86.2146 194.359 88.9091 189.484 92.9378C184.61 96.9751 179.23 100.332 179.23 100.332Z" fill="#002E47" stroke="#002E47" stroke-miterlimit="10" stroke-linecap="round" stroke-linejoin="round"/>
<path d="M149.653 105.878C149.653 105.878 142.093 99.3207 138.561 103.018C135.03 106.715 133.521 119.83 137.053 124.033C140.584 128.236 154.196 128.07 156.045 123.693C157.894 119.324 156.551 116.298 156.551 116.298C156.551 116.298 149.653 108.232 149.653 105.878Z" fill="#002E47" stroke="#002E47" stroke-miterlimit="10" stroke-linecap="round" stroke-linejoin="round"/>
<path d="M134.523 146.723C134.523 146.723 118.722 203.874 118.888 206.734C119.054 209.594 124.94 210.265 128.131 210.265C131.323 210.265 142.589 182.361 142.589 182.361L134.523 146.723Z" fill="#39B4EF" stroke="#002E47" stroke-miterlimit="10" stroke-linecap="round" stroke-linejoin="round"/>
<path d="M160.883 170.956L157.709 210.998C157.709 210.998 165.522 214.172 171.626 213.44C177.73 212.707 190.915 211.975 190.915 211.975L196.775 168.767C196.775 168.758 172.114 174.618 160.883 170.956Z" fill="white" stroke="#002E47" stroke-miterlimit="10" stroke-linecap="round" stroke-linejoin="round"/>
<path d="M127.294 196.147C127.294 196.147 146.792 206.402 149.652 206.062C149.652 206.062 150.995 205.391 151.161 204.554C151.327 203.716 156.201 187.244 157.047 187.07C157.884 186.904 166.796 186.73 168.313 187.741C169.822 188.753 170.833 189.084 170.162 190.261C169.49 191.439 168.147 191.273 167.136 191.273C166.124 191.273 163.439 190.096 161.921 190.933C160.413 191.77 158.73 195.973 158.555 196.479C158.39 196.985 164.607 194.63 166.29 194.97C167.973 195.31 172.673 200.01 172.507 201.353C172.342 202.696 170.319 202.025 170.319 202.025C170.319 202.025 167.293 200.01 166.787 200.01C166.281 200.01 164.101 200.351 164.101 200.351C164.101 200.351 169.316 202.365 169.316 204.048C169.316 205.731 167.467 206.908 167.467 206.908C167.467 206.908 168.479 208.757 166.962 209.934C165.453 211.111 162.427 210.274 161.581 210.44C160.744 210.605 159.061 213.631 156.872 214.808C154.684 215.985 150.655 215.645 150.655 215.645C150.655 215.645 130.32 213.125 124.94 211.948C119.56 210.771 117.205 208.085 119.9 200.185" fill="#39B4EF"/>
<path d="M127.294 196.147C127.294 196.147 146.792 206.402 149.652 206.062C149.652 206.062 150.995 205.391 151.161 204.554C151.327 203.716 156.201 187.244 157.047 187.07C157.884 186.904 166.796 186.73 168.313 187.741C169.822 188.753 170.833 189.084 170.162 190.261C169.49 191.439 168.147 191.273 167.136 191.273C166.124 191.273 163.439 190.096 161.921 190.933C160.413 191.77 158.73 195.973 158.555 196.479C158.39 196.985 164.607 194.63 166.29 194.97C167.973 195.31 172.673 200.01 172.507 201.353C172.342 202.696 170.319 202.025 170.319 202.025C170.319 202.025 167.293 200.01 166.787 200.01C166.281 200.01 164.101 200.351 164.101 200.351C164.101 200.351 169.316 202.365 169.316 204.048C169.316 205.731 167.467 206.908 167.467 206.908C167.467 206.908 168.479 208.757 166.962 209.934C165.453 211.111 162.427 210.274 161.581 210.44C160.744 210.605 159.061 213.631 156.872 214.808C154.684 215.985 150.655 215.645 150.655 215.645C150.655 215.645 130.32 213.125 124.94 211.948C119.56 210.771 117.205 208.085 119.9 200.185" stroke="#002E47" stroke-miterlimit="10" stroke-linecap="round" stroke-linejoin="round"/>
<path d="M170.328 202.025C170.328 202.025 172.342 202.696 172.517 201.353C172.683 200.01 167.982 195.302 166.299 194.97C164.617 194.63 158.399 196.985 158.565 196.479C158.731 195.973 160.413 191.77 161.931 190.933C163.439 190.096 166.134 191.273 167.145 191.273C168.157 191.273 169.5 191.439 170.171 190.261C170.843 189.084 169.831 188.753 168.323 187.741C166.814 186.73 157.902 186.904 157.056 187.07C156.21 187.236 151.345 203.708 151.17 204.554C151.005 205.391 149.662 206.062 149.662 206.062C148.014 206.254 140.855 202.94 135.073 200.089C134.018 200.874 132.213 202.6 130.626 206.114C129.44 208.722 129.239 211.033 129.335 212.724C137.253 213.98 150.673 215.645 150.673 215.645C150.673 215.645 154.711 215.985 156.891 214.808C159.079 213.631 160.754 210.605 161.599 210.44C162.437 210.274 165.462 211.111 166.98 209.934C168.488 208.757 167.485 206.908 167.485 206.908C167.485 206.908 169.334 205.731 169.334 204.048C169.334 202.365 164.119 200.351 164.119 200.351C164.119 200.351 166.308 200.01 166.805 200.01C167.302 200.01 170.328 202.025 170.328 202.025Z" fill="white" stroke="#002E47" stroke-miterlimit="10" stroke-linecap="round" stroke-linejoin="round"/>
<path d="M167.468 206.899L158.896 204.039" stroke="#002E47" stroke-miterlimit="10" stroke-linecap="round" stroke-linejoin="round"/>
<path d="M164.11 200.342L159.732 199.339" stroke="#002E47" stroke-miterlimit="10" stroke-linecap="round" stroke-linejoin="round"/>
<path d="M132.36 198.467C132.36 198.467 130.066 198.973 127.651 203.437C125.227 207.893 125.994 212.733 125.994 212.733L130.581 213.5C130.581 213.5 130.197 209.297 132.107 205.731C134.017 202.164 136.816 200.76 136.816 200.76L132.36 198.467Z" fill="white" stroke="#002E47" stroke-miterlimit="10" stroke-linecap="round" stroke-linejoin="round"/>
<path d="M209.994 172.944L220.083 182.021L226.632 171.095L217.057 164.372L209.994 172.944Z" fill="white" stroke="#002E47" stroke-miterlimit="10" stroke-linecap="round" stroke-linejoin="round"/>
<path d="M126 64C126 86.6437 107.644 105 85 105C62.3563 105 44 86.6437 44 64C44 41.3563 62.3563 23 85 23C107.644 23 126 41.3563 126 64Z" fill="white"/>
<path d="M84.9645 52.7442C88.2707 52.7442 90.9509 50.0762 90.9509 46.7852C90.9509 43.4941 88.2707 40.8262 84.9645 40.8262C81.6583 40.8262 78.9781 43.4941 78.9781 46.7852C78.9781 50.0762 81.6583 52.7442 84.9645 52.7442Z" fill="#39B4EF"/>
<path d="M84.9645 69.9591C88.2707 69.9591 90.9509 67.2911 90.9509 64.0001C90.9509 60.709 88.2707 58.0411 84.9645 58.0411C81.6583 58.0411 78.9781 60.709 78.9781 64.0001C78.9781 67.2911 81.6583 69.9591 84.9645 69.9591Z" fill="#39B4EF"/>
<path d="M84.9645 87.174C88.2707 87.174 90.9509 84.5061 90.9509 81.215C90.9509 77.9239 88.2707 75.256 84.9645 75.256C81.6583 75.256 78.9781 77.9239 78.9781 81.215C78.9781 84.5061 81.6583 87.174 84.9645 87.174Z" fill="#39B4EF"/>
<path d="M69.0008 69.9591C72.307 69.9591 74.9872 67.2911 74.9872 64.0001C74.9872 60.709 72.307 58.0411 69.0008 58.0411C65.6946 58.0411 63.0144 60.709 63.0144 64.0001C63.0144 67.2911 65.6946 69.9591 69.0008 69.9591Z" fill="#39B4EF"/>
<path d="M102.259 69.9591C105.565 69.9591 108.245 67.2911 108.245 64.0001C108.245 60.709 105.565 58.0411 102.259 58.0411C98.9524 58.0411 96.2722 60.709 96.2722 64.0001C96.2722 67.2911 98.9524 69.9591 102.259 69.9591Z" fill="#39B4EF"/>
<path d="M85 106C108.196 106 127 87.196 127 64C127 40.804 108.196 22 85 22C61.804 22 43 40.804 43 64C43 87.196 61.804 106 85 106Z" stroke="#002E47" stroke-width="2"/>
<path d="M411.909 165.04C411.335 168.304 408.223 170.484 404.96 169.909C401.696 169.335 399.516 166.223 400.091 162.96C400.665 159.696 403.776 157.516 407.04 158.091C410.304 158.665 412.484 161.777 411.909 165.04Z" fill="#39B4EF"/>
<path d="M406.28 162.377C406.757 162.461 407.211 162.144 407.294 161.67C407.378 161.196 407.059 160.743 406.583 160.659C406.106 160.575 405.652 160.892 405.569 161.366C405.485 161.84 405.804 162.293 406.28 162.377Z" fill="white"/>
<path d="M405.844 164.858C406.32 164.942 406.774 164.625 406.858 164.151C406.941 163.677 406.623 163.224 406.146 163.14C405.669 163.056 405.216 163.373 405.132 163.847C405.049 164.322 405.367 164.774 405.844 164.858Z" fill="white"/>
<path d="M405.407 167.339C405.883 167.423 406.337 167.106 406.421 166.632C406.504 166.158 406.186 165.705 405.709 165.621C405.233 165.538 404.779 165.854 404.695 166.328C404.612 166.803 404.93 167.255 405.407 167.339Z" fill="white"/>
<path d="M403.543 164.453C404.019 164.537 404.473 164.22 404.557 163.746C404.64 163.272 404.322 162.819 403.845 162.735C403.369 162.651 402.915 162.968 402.831 163.442C402.748 163.917 403.066 164.369 403.543 164.453Z" fill="white"/>
<path d="M408.336 165.297C408.813 165.381 409.267 165.064 409.35 164.59C409.434 164.115 409.115 163.663 408.639 163.579C408.162 163.495 407.708 163.812 407.625 164.286C407.541 164.76 407.86 165.213 408.336 165.297Z" fill="white"/>
</svg>
