<svg width="563" height="386" viewBox="0 0 563 386" fill="none" xmlns="http://www.w3.org/2000/svg">
<g clip-path="url(#clip0_95_28424)">
<path d="M518.072 162.236C488.176 136.262 452.41 118.629 416.94 101.604C377.178 82.5145 335.678 63.4566 293.088 51.6985C278.897 47.7845 264.466 44.6949 249.874 42.7499C185.694 34.1854 124.284 77.6 79.8451 118.989C62.1222 135.502 45.5765 153.351 30.5846 172.385C19.6369 186.28 6.57498 201.144 1.95406 218.945C-3.46772 239.86 7.86436 257.381 19.1644 274.022C28.222 287.365 37.6241 299.939 48.9802 311.473C75.1761 338.079 107.635 358.482 142.96 370.56C208.734 393.052 281.748 384.519 349.308 376.371C353.12 375.915 356.924 375.435 360.728 374.938C402.445 369.504 443.889 365.822 483.611 350.63C541.257 328.578 580.114 263.841 551.251 204.186C543.355 187.841 531.751 174.122 518.072 162.236Z" fill="#39B4EF"/>
<path opacity="0.7" d="M518.072 162.236C488.176 136.262 452.41 118.629 416.94 101.604C377.178 82.5145 335.678 63.4566 293.088 51.6985C278.897 47.7845 264.466 44.6949 249.874 42.7499C185.694 34.1854 124.284 77.6 79.8451 118.989C62.1222 135.502 45.5765 153.351 30.5846 172.385C19.6369 186.28 6.57498 201.144 1.95406 218.945C-3.46772 239.86 7.86436 257.381 19.1644 274.022C28.222 287.365 37.6241 299.939 48.9802 311.473C75.1761 338.079 107.635 358.482 142.96 370.56C208.734 393.052 281.748 384.519 349.308 376.371C353.12 375.915 356.924 375.435 360.728 374.938C402.445 369.504 443.889 365.822 483.611 350.63C541.257 328.578 580.114 263.841 551.251 204.186C543.355 187.841 531.751 174.122 518.072 162.236Z" fill="white"/>
<path d="M12.4375 364.341H562.36" stroke="#002E47" stroke-miterlimit="10" stroke-linecap="round" stroke-linejoin="round"/>
<path d="M65.9253 126.433C80.8971 126.433 93.0342 114.303 93.0342 99.3392C93.0342 84.3755 80.8971 72.2451 65.9253 72.2451C50.9535 72.2451 38.8164 84.3755 38.8164 99.3392C38.8164 114.303 50.9535 126.433 65.9253 126.433Z" stroke="#002E47" stroke-miterlimit="10" stroke-linecap="round" stroke-linejoin="round"/>
<path d="M71.4371 122.652C84.3246 119.61 92.3051 106.703 89.262 93.8223C86.2189 80.9418 73.3045 72.9657 60.417 76.0071C47.5294 79.0486 39.549 91.9559 42.5921 104.836C45.6352 117.717 58.5495 125.693 71.4371 122.652Z" stroke="#002E47" stroke-miterlimit="10" stroke-linecap="round" stroke-linejoin="round"/>
<path d="M65.9252 101.628C67.1902 101.628 68.2156 100.603 68.2156 99.339C68.2156 98.0747 67.1902 97.0498 65.9252 97.0498C64.6602 97.0498 63.6348 98.0747 63.6348 99.339C63.6348 100.603 64.6602 101.628 65.9252 101.628Z" fill="#002E47" stroke="#002E47" stroke-miterlimit="10" stroke-linecap="round" stroke-linejoin="round"/>
<path d="M74.2715 103.413L65.9266 99.3394L52.0078 114.539" stroke="#002E47" stroke-miterlimit="10" stroke-linecap="round" stroke-linejoin="round"/>
<path d="M549.257 71.3325H481.537V155.648H549.257V71.3325Z" stroke="#002E47" stroke-miterlimit="10" stroke-linecap="round" stroke-linejoin="round"/>
<path d="M547.055 74.0938H483.756V152.903H547.055V74.0938Z" stroke="#002E47" stroke-miterlimit="10" stroke-linecap="round" stroke-linejoin="round"/>
<path d="M528.418 97.29H502.391V129.691H528.418V97.29Z" stroke="#002E47" stroke-miterlimit="10" stroke-linecap="round" stroke-linejoin="round"/>
<path d="M291.982 25.7652V0.456055" stroke="#002E47" stroke-miterlimit="10" stroke-linecap="round" stroke-linejoin="round"/>
<path d="M312.893 39.3004H271.08L283.621 23.4121H300.343L312.893 39.3004Z" fill="#002E47"/>
<path d="M519.818 25.7652V0.456055" stroke="#002E47" stroke-miterlimit="10" stroke-linecap="round" stroke-linejoin="round"/>
<path d="M540.721 39.3004H498.908L511.45 23.4121H528.179L540.721 39.3004Z" fill="#002E47"/>
<path d="M64.1562 25.7652V0.456055" stroke="#002E47" stroke-miterlimit="10" stroke-linecap="round" stroke-linejoin="round"/>
<path d="M85.0665 39.3004H43.2539L55.7953 23.4121H72.5171L85.0665 39.3004Z" fill="#002E47"/>
<path d="M57.9663 251.602C57.9823 251.562 57.9663 251.514 57.9262 251.498C57.8862 251.482 57.8381 251.498 57.8221 251.538C55.4596 256.989 53.8018 262.704 52.4164 268.475C51.0789 274.262 50.1099 280.129 49.4372 286.028L49.0127 290.463C48.9487 291.199 48.8686 291.943 48.8125 292.68L48.6924 294.905C48.6283 296.386 48.5402 297.874 48.4922 299.363L48.5322 303.822L48.5803 306.047C48.6123 306.791 48.6684 307.527 48.7164 308.272C48.8285 309.753 48.9166 311.233 49.0528 312.714C49.3411 315.668 49.7816 318.613 50.238 321.535C50.2461 321.575 50.2781 321.599 50.3181 321.599C50.3582 321.599 50.3982 321.567 50.3982 321.519V321.511C50.3902 320.022 50.3261 318.549 50.2941 317.068C50.2541 315.588 50.1259 314.123 50.1419 312.642C50.15 311.161 50.1099 309.689 50.0939 308.216L50.0538 306.007L50.0939 303.797L50.1099 299.379L50.23 294.961L50.2781 292.752C50.3101 292.015 50.3582 291.279 50.3982 290.543L50.6705 286.132C51.1911 280.257 51.9919 274.406 53.1692 268.619C54.3544 262.864 55.812 257.109 57.9663 251.602Z" fill="#002E47"/>
<path d="M58.5994 274.71C58.6074 274.67 58.5914 274.622 58.5514 274.614C58.5113 274.598 58.4633 274.622 58.4553 274.662C57.1819 278.336 56.1648 282.09 55.3079 285.884C54.491 289.686 53.8423 293.536 53.4499 297.418C53.0575 301.284 52.625 305.158 52.569 309.04C52.5129 312.922 52.569 316.82 52.9854 320.702C52.9934 320.734 53.0175 320.766 53.0575 320.774C53.0975 320.782 53.1376 320.75 53.1456 320.702C53.5941 316.828 53.8664 312.97 54.1387 309.112C54.4109 305.254 54.451 301.388 54.6993 297.522C54.9315 293.672 55.412 289.838 56.0767 286.036C56.7254 282.226 57.5343 278.432 58.5994 274.71Z" fill="#002E47"/>
<path d="M71.421 282.834C71.397 282.794 71.349 282.786 71.3169 282.81C68.1055 284.843 65.2465 287.397 62.7478 290.278C61.5225 291.743 60.3773 293.272 59.4002 294.937L58.7115 296.233L58.1749 297.586C57.9827 298.034 57.8466 298.491 57.7024 298.955C57.5663 299.419 57.4061 299.875 57.286 300.339C56.325 304.053 55.6843 307.831 55.5161 311.641C55.3639 315.443 55.436 319.245 55.9405 323.023C55.9486 323.055 55.9726 323.087 56.0126 323.087C56.0527 323.087 56.0927 323.055 56.0927 323.015L57.0698 311.753C57.4622 308.031 57.6944 304.286 58.4953 300.644C58.5994 300.187 58.7275 299.747 58.8396 299.299C58.9598 298.851 59.0719 298.402 59.2321 297.97L59.6885 296.666L60.2812 295.433C61.1461 293.808 62.2112 292.247 63.3484 290.775C65.6389 287.821 68.3298 285.132 71.397 282.946H71.405C71.4291 282.914 71.4371 282.874 71.421 282.834Z" fill="#002E47"/>
<path d="M65.2138 297.306C63.4679 298.434 62.2987 300.203 61.3136 301.988C60.3766 303.813 59.6398 305.742 59.1273 307.727C58.9751 308.216 58.855 308.712 58.7429 309.216L58.3905 310.713C58.2143 311.721 58.0702 312.738 58.0141 313.754C57.9981 314.779 57.9741 315.795 58.0381 316.812C58.1262 317.829 58.2384 318.845 58.4386 319.854C58.4466 319.886 58.4706 319.91 58.5026 319.918C58.5427 319.926 58.5907 319.902 58.5987 319.854C58.847 318.845 59.0072 317.853 59.1353 316.86C59.2955 315.867 59.4476 314.883 59.5678 313.898C59.7119 312.914 59.8401 311.937 59.9201 310.945C60.0563 309.968 60.1284 308.968 60.3446 308.007C60.689 306.054 61.2496 304.149 62.0184 302.324C62.7792 300.516 63.7722 298.715 65.2939 297.442L65.3019 297.434C65.3339 297.41 65.3419 297.37 65.3179 297.33C65.3019 297.298 65.2538 297.29 65.2138 297.306Z" fill="#002E47"/>
<path d="M47.2427 308.592C46.8183 303.589 45.9934 298.643 45.2166 293.688C44.4318 288.741 43.5748 283.803 42.6619 278.88C41.7249 273.958 40.7398 269.051 39.6827 264.161C39.6747 264.121 39.6346 264.097 39.5946 264.097C39.5546 264.105 39.5225 264.145 39.5305 264.185C40.3874 269.115 41.1643 274.062 41.893 279.008C42.6458 283.955 43.3506 288.902 43.9753 293.864C44.5839 298.827 45.0644 303.797 45.6891 308.752L47.523 323.64C47.5311 323.68 47.5551 323.704 47.5951 323.712C47.6352 323.712 47.6752 323.68 47.6752 323.64C47.7313 322.383 47.7313 321.134 47.7633 319.87C47.7713 318.613 47.7153 317.364 47.6912 316.108C47.6432 313.594 47.4269 311.097 47.2427 308.592Z" fill="#002E47"/>
<path d="M44.2388 308.52C43.9746 306.543 43.6062 304.574 43.2298 302.605L42.525 299.683C42.2928 298.707 42.0765 297.738 41.7882 296.77C40.7872 292.896 39.5138 289.086 37.9602 285.396L37.3595 284.019L36.6948 282.674C36.2703 281.77 35.7578 280.905 35.2693 280.033C34.2202 278.328 33.139 276.631 31.6574 275.247C31.6254 275.223 31.5773 275.223 31.5533 275.247C31.5213 275.279 31.5213 275.327 31.5533 275.359L31.5613 275.367C32.9308 276.783 33.9238 278.536 34.8689 280.257C35.3013 281.146 35.7658 282.018 36.1342 282.939L36.7188 284.299L37.2394 285.692C38.6249 289.398 39.738 293.2 40.5709 297.066C41.0274 298.987 41.3317 300.948 41.7001 302.893L42.1646 305.822C42.3328 306.799 42.541 307.767 42.6772 308.744C42.9895 310.697 43.3499 312.65 43.6943 314.603C43.9986 316.564 44.359 318.525 44.7674 320.486C44.7754 320.518 44.8074 320.55 44.8475 320.55C44.8875 320.55 44.9276 320.518 44.9276 320.47C44.9356 318.469 44.8875 316.476 44.7914 314.475C44.6793 312.498 44.4471 310.513 44.2388 308.52Z" fill="#002E47"/>
<path d="M40.0982 308.776C39.1692 306.151 38.096 303.582 36.9268 301.068C35.7255 298.563 34.4361 296.106 32.9385 293.768C32.9145 293.736 32.8664 293.72 32.8344 293.744C32.7944 293.768 32.7864 293.816 32.8104 293.849C34.1158 296.282 35.2129 298.811 36.214 301.38C37.2311 303.942 38.1441 306.535 38.9129 309.168C39.6977 311.802 40.2583 314.491 40.9551 317.133C41.6919 319.774 42.2925 322.447 43.1014 325.129C43.1094 325.161 43.1414 325.185 43.1734 325.185C43.2135 325.185 43.2535 325.153 43.2535 325.105C43.2936 322.311 43.0213 319.518 42.4767 316.788C41.9882 314.035 41.0191 311.402 40.0982 308.776Z" fill="#002E47"/>
<path d="M39.9309 317.516C39.4584 315.876 38.6495 314.347 37.7285 312.898C36.8235 311.449 35.7744 310.081 34.5251 308.92C33.8764 308.36 33.2197 307.823 32.4829 307.383C31.7621 306.935 31.0013 306.551 30.1685 306.335C30.1284 306.327 30.0964 306.343 30.0804 306.375C30.0643 306.415 30.0804 306.463 30.1204 306.479L30.1284 306.487C31.626 307.151 32.8914 308.256 33.9645 309.464C35.0537 310.673 35.9186 312.066 36.6393 313.506C37.4002 314.939 37.7926 316.532 38.4493 318.013C38.7376 318.773 39.0339 319.533 39.3703 320.294C39.6586 321.07 39.9709 321.839 40.3793 322.607V322.615C40.3953 322.639 40.4194 322.655 40.4434 322.655C40.4915 322.655 40.5235 322.623 40.5235 322.575C40.5555 321.719 40.5075 320.87 40.4274 320.022C40.3073 319.181 40.1311 318.349 39.9309 317.516Z" fill="#002E47"/>
<path d="M40.2349 271.324C40.2349 271.324 32.0341 269.435 30.1441 260.607C28.2541 251.778 34.3486 255.564 28.8788 241.693C23.4089 227.822 24.6743 224.676 26.5643 220.682C28.4543 216.688 29.5114 217.953 31.1932 223.204C32.875 228.454 38.9695 236.65 41.284 251.986C43.5984 267.33 40.2349 271.324 40.2349 271.324Z" fill="#39B4EF"/>
<path d="M56.4277 256.405C56.4277 256.405 50.9579 254.516 50.7497 244.214C50.5414 233.921 54.7459 236.018 55.3786 223.203C56.0113 210.389 56.8522 201.352 59.1666 201.144C61.4811 200.936 67.5756 207.451 69.6818 221.739C71.7801 236.026 66.9509 245.479 62.7464 249.681C58.5259 253.883 56.4277 256.405 56.4277 256.405Z" fill="#39B4EF"/>
<path d="M37.2962 283.723C37.2962 283.723 36.0308 276.159 33.5081 272.589C30.9855 269.019 25.5156 265.866 21.9438 258.934C18.372 252.002 14.3758 248.641 14.584 258.51C14.7922 268.387 19.2129 273.43 24.6747 276.791C30.1446 280.145 37.2962 283.723 37.2962 283.723Z" fill="#39B4EF"/>
<path d="M34.9816 296.745C34.9816 296.745 29.9362 287.076 22.5763 279.937C15.2165 272.789 9.33021 269.219 11.4365 272.789C13.5427 276.359 16.0654 276.151 19.6372 282.458C23.209 288.765 22.1599 293.384 27.2053 296.954C32.2506 300.531 34.9816 296.745 34.9816 296.745Z" fill="#39B4EF"/>
<path d="M34.3492 309.144C34.141 308.512 33.9247 303.893 26.7811 300.107C19.6295 296.329 12.9023 297.794 13.7432 299.691C14.5841 301.58 18.9968 304.734 23.4175 306.623C27.8302 308.512 34.3492 309.144 34.3492 309.144Z" fill="#39B4EF"/>
<path d="M56.0043 284.139C56.0043 284.139 52.8489 280.145 54.5307 271.741C56.2125 263.336 60.0005 265.433 64.205 261.023C68.4095 256.613 67.5686 255.98 71.7731 251.354C75.9776 246.728 79.7656 244.206 81.4474 246.103C83.1292 247.992 80.6065 253.875 78.0838 257.237C75.5611 260.599 71.5649 262.28 69.6748 266.482C67.7848 270.684 68.6257 277.407 63.7886 280.561C58.9514 283.723 56.0043 284.139 56.0043 284.139Z" fill="#39B4EF"/>
<path d="M66.5195 286.452C66.5195 286.452 74.0876 277.84 79.5574 271.532C85.0273 265.225 87.1255 260.399 87.3337 264.601C87.5419 268.803 89.2237 272.165 84.811 277.632C80.3903 283.09 66.5195 286.452 66.5195 286.452Z" fill="#39B4EF"/>
<path d="M62.5237 300.316C62.5237 300.316 62.3154 296.954 74.2962 289.182C86.277 281.41 91.3224 279.937 90.065 283.091C88.8077 286.244 83.5461 289.398 77.868 295.065C72.19 300.74 62.5237 300.316 62.5237 300.316Z" fill="#39B4EF"/>
<path d="M40.7398 270.428C40.7398 270.428 37.9288 255.356 34.9817 244.639C32.0345 233.921 30.1445 227.406 30.1445 227.406" stroke="#002E47" stroke-width="0.5" stroke-miterlimit="10" stroke-linecap="round" stroke-linejoin="round"/>
<path d="M55.9395 256.565C55.9395 256.565 61.0489 240.228 62.7307 230.351C64.4125 220.474 62.5225 213.118 61.6816 208.708" stroke="#002E47" stroke-width="0.5" stroke-miterlimit="10" stroke-linecap="round" stroke-linejoin="round"/>
<path d="M36.6311 283.403C36.6311 283.403 33.5078 277.832 28.8869 272.373C24.2579 266.906 20.6861 263.969 18.5879 258.718" stroke="#002E47" stroke-width="0.5" stroke-miterlimit="10" stroke-linecap="round" stroke-linejoin="round"/>
<path d="M56.0039 284.139C56.0039 284.139 57.6857 274.054 61.682 268.803C65.6782 263.552 73.6627 255.356 76.8181 250.105" stroke="#002E47" stroke-width="0.5" stroke-miterlimit="10" stroke-linecap="round" stroke-linejoin="round"/>
<path d="M33.8532 308.912C33.8532 308.912 26.7817 304.309 21.7363 301.788" stroke="#002E47" stroke-width="0.5" stroke-miterlimit="10" stroke-linecap="round" stroke-linejoin="round"/>
<path d="M59.1432 364.341H39.3461L35.1016 317.364H63.3877L59.1432 364.341Z" fill="#002E47" stroke="#002E47" stroke-miterlimit="10" stroke-linecap="round" stroke-linejoin="round"/>
<path d="M381.751 79.0088H183.652V214.839H381.751V79.0088Z" fill="#002E47" stroke="#002E47" stroke-miterlimit="10" stroke-linecap="round" stroke-linejoin="round"/>
<path d="M378.611 82.2827H186.799V211.558H378.611V82.2827Z" fill="white" stroke="#002E47" stroke-miterlimit="10" stroke-linecap="round" stroke-linejoin="round"/>
<path d="M283.678 115.027H255.488V137.615H283.678V115.027Z" fill="#39B4EF"/>
<path d="M312.838 137.983H284.648V160.571H312.838V137.983Z" fill="#39B4EF"/>
<path d="M283.678 183.159H255.488V205.746H283.678V183.159Z" fill="#39B4EF"/>
<path d="M342.374 92.7998H314.184V115.388H342.374V92.7998Z" fill="#39B4EF"/>
<path d="M196.914 96.0815V205.755" stroke="#002E47" stroke-miterlimit="10" stroke-linecap="round" stroke-linejoin="round"/>
<path d="M225.953 96.0815V205.755" stroke="#002E47" stroke-miterlimit="10" stroke-linecap="round" stroke-linejoin="round"/>
<path d="M255 96.0815V205.755" stroke="#002E47" stroke-miterlimit="10" stroke-linecap="round" stroke-linejoin="round"/>
<path d="M284.039 96.0815V205.755" stroke="#002E47" stroke-miterlimit="10" stroke-linecap="round" stroke-linejoin="round"/>
<path d="M313.086 96.0815V205.755" stroke="#002E47" stroke-miterlimit="10" stroke-linecap="round" stroke-linejoin="round"/>
<path d="M342.125 96.0815V205.755" stroke="#002E47" stroke-miterlimit="10" stroke-linecap="round" stroke-linejoin="round"/>
<path d="M371.172 96.0815V205.755" stroke="#002E47" stroke-miterlimit="10" stroke-linecap="round" stroke-linejoin="round"/>
<path d="M197.643 115.027H371.54" stroke="#002E47" stroke-miterlimit="10" stroke-linecap="round" stroke-linejoin="round"/>
<path d="M197.643 137.615H371.54" stroke="#002E47" stroke-miterlimit="10" stroke-linecap="round" stroke-linejoin="round"/>
<path d="M197.643 160.211H371.54" stroke="#002E47" stroke-miterlimit="10" stroke-linecap="round" stroke-linejoin="round"/>
<path d="M197.643 182.799H371.54" stroke="#002E47" stroke-miterlimit="10" stroke-linecap="round" stroke-linejoin="round"/>
<path d="M259.613 119.038H277.112" stroke="#002E47" stroke-miterlimit="10" stroke-linecap="round" stroke-linejoin="round"/>
<path d="M259.613 121.951H277.112" stroke="#002E47" stroke-miterlimit="10" stroke-linecap="round" stroke-linejoin="round"/>
<path d="M259.613 124.865H277.112" stroke="#002E47" stroke-miterlimit="10" stroke-linecap="round" stroke-linejoin="round"/>
<path d="M259.613 127.778H277.112" stroke="#002E47" stroke-miterlimit="10" stroke-linecap="round" stroke-linejoin="round"/>
<path d="M259.613 130.692H277.112" stroke="#002E47" stroke-miterlimit="10" stroke-linecap="round" stroke-linejoin="round"/>
<path d="M290.238 143.45H307.737" stroke="#002E47" stroke-miterlimit="10" stroke-linecap="round" stroke-linejoin="round"/>
<path d="M290.238 146.364H307.737" stroke="#002E47" stroke-miterlimit="10" stroke-linecap="round" stroke-linejoin="round"/>
<path d="M290.238 149.277H307.737" stroke="#002E47" stroke-miterlimit="10" stroke-linecap="round" stroke-linejoin="round"/>
<path d="M290.238 152.191H307.737" stroke="#002E47" stroke-miterlimit="10" stroke-linecap="round" stroke-linejoin="round"/>
<path d="M290.238 155.104H307.737" stroke="#002E47" stroke-miterlimit="10" stroke-linecap="round" stroke-linejoin="round"/>
<path d="M260.342 188.266H277.84" stroke="#002E47" stroke-miterlimit="10" stroke-linecap="round" stroke-linejoin="round"/>
<path d="M260.342 191.179H277.84" stroke="#002E47" stroke-miterlimit="10" stroke-linecap="round" stroke-linejoin="round"/>
<path d="M260.342 194.093H277.84" stroke="#002E47" stroke-miterlimit="10" stroke-linecap="round" stroke-linejoin="round"/>
<path d="M260.342 197.006H277.84" stroke="#002E47" stroke-miterlimit="10" stroke-linecap="round" stroke-linejoin="round"/>
<path d="M260.342 199.92H277.84" stroke="#002E47" stroke-miterlimit="10" stroke-linecap="round" stroke-linejoin="round"/>
<path d="M318.307 98.9951H335.805" stroke="#002E47" stroke-miterlimit="10" stroke-linecap="round" stroke-linejoin="round"/>
<path d="M318.307 101.909H335.805" stroke="#002E47" stroke-miterlimit="10" stroke-linecap="round" stroke-linejoin="round"/>
<path d="M318.307 104.822H335.805" stroke="#002E47" stroke-miterlimit="10" stroke-linecap="round" stroke-linejoin="round"/>
<path d="M318.307 107.736H335.805" stroke="#002E47" stroke-miterlimit="10" stroke-linecap="round" stroke-linejoin="round"/>
<path d="M318.307 110.657H335.805" stroke="#002E47" stroke-miterlimit="10" stroke-linecap="round" stroke-linejoin="round"/>
<path d="M518.806 282.153H527.352V266.985H518.806V282.153Z" fill="#002E47" stroke="#002E47" stroke-miterlimit="10" stroke-linecap="round" stroke-linejoin="round"/>
<path d="M514.967 271.605H532.505C539.417 271.605 545.023 266.002 545.023 259.094V219.017C545.023 212.11 539.417 206.507 532.505 206.507H514.967C508.055 206.507 502.449 212.11 502.449 219.017V259.094C502.449 266.002 508.047 271.605 514.967 271.605Z" fill="#D2E1FB" stroke="#002E47" stroke-miterlimit="10" stroke-linecap="round" stroke-linejoin="round"/>
<path d="M536.5 361.627C536.5 359.634 538.118 358.018 540.112 358.018C542.106 358.018 543.724 359.634 543.724 361.627C543.724 363.62 542.106 365.237 540.112 365.237C538.118 365.237 536.5 363.62 536.5 361.627Z" fill="#002E47" stroke="#002E47" stroke-miterlimit="10" stroke-linecap="round" stroke-linejoin="round"/>
<path d="M465.857 361.627C465.857 359.634 467.475 358.018 469.469 358.018C471.463 358.018 473.081 359.634 473.081 361.627C473.081 363.62 471.463 365.237 469.469 365.237C467.475 365.237 465.857 363.62 465.857 361.627Z" fill="#002E47" stroke="#002E47" stroke-miterlimit="10" stroke-linecap="round" stroke-linejoin="round"/>
<path d="M503.033 361.627C503.033 359.634 503.786 358.018 504.715 358.018C505.644 358.018 506.397 359.634 506.397 361.627C506.397 363.62 505.644 365.237 504.715 365.237C503.786 365.237 503.033 363.62 503.033 361.627Z" fill="#002E47" stroke="#002E47" stroke-miterlimit="10" stroke-linecap="round" stroke-linejoin="round"/>
<path d="M501.423 342.009V290.207H508.519V342.226L543.548 356.073V359.547H538.455V356.601L504.707 349.645L470.951 356.601V359.547H465.865V356.073L501.423 342.009Z" fill="#002E47" stroke="#002E47" stroke-miterlimit="10" stroke-linecap="round" stroke-linejoin="round"/>
<path d="M506.492 359.538H502.937L502.176 342.722H507.253L506.492 359.538Z" fill="#002E47" stroke="#002E47" stroke-miterlimit="10" stroke-linecap="round" stroke-linejoin="round"/>
<path d="M495.961 298.943H514.004V288.234H495.961V298.943Z" fill="#002E47" stroke="#002E47" stroke-miterlimit="10" stroke-linecap="round" stroke-linejoin="round"/>
<path d="M478.135 292.175H533.522C536.141 292.175 538.255 290.054 538.255 287.445V283.099C538.255 280.481 536.133 278.368 533.522 278.368H478.135C475.517 278.368 473.402 280.489 473.402 283.099V287.445C473.402 290.062 475.525 292.175 478.135 292.175Z" fill="#D2E1FB" stroke="#002E47" stroke-miterlimit="10" stroke-linecap="round" stroke-linejoin="round"/>
<path d="M450.656 347.148C450.656 347.148 447.524 351.67 443.007 354.272C438.483 356.881 431.531 357.922 431.531 359.314C431.531 360.707 432.052 363.14 437.273 363.837C442.487 364.533 465.103 364.877 468.058 364.181C471.013 363.484 468.234 348.885 468.234 348.885C468.234 348.885 454.476 349.581 450.656 347.148Z" fill="white" stroke="#002E47" stroke-miterlimit="10" stroke-linecap="round" stroke-linejoin="round"/>
<path d="M437.258 363.837C442.471 364.533 465.087 364.877 468.043 364.181C468.795 364.005 469.18 362.916 469.324 361.403C463.021 361.595 450.728 361.787 443.344 361.395C433.43 360.875 431.516 359.306 431.516 359.306C431.524 360.707 432.044 363.14 437.258 363.837Z" fill="white" stroke="#002E47" stroke-miterlimit="10" stroke-linecap="round" stroke-linejoin="round"/>
<path d="M434.998 211.221C434.998 211.221 436.392 231.728 437.609 240.42C438.826 249.113 443.351 284.571 446.306 293.784C449.261 302.997 452.393 342.625 452.393 342.625C452.393 342.625 449.085 343.842 449.261 345.235C449.437 346.627 449.606 348.708 449.606 348.708C449.606 348.708 456.389 352.358 460.385 352.358C464.381 352.358 469.427 350.621 469.427 350.621C469.427 350.621 468.386 335.149 467.865 322.983C467.345 310.817 462.299 259.022 462.299 259.022L461.258 207.395L434.998 211.221Z" fill="#002E47" stroke="#002E47" stroke-miterlimit="10" stroke-linecap="round" stroke-linejoin="round"/>
<path d="M464.39 350.974C464.39 350.974 464.734 354.279 456.045 357.233C447.348 360.186 446.307 363.316 447.348 365.925C448.389 368.535 466.48 368.535 473.263 367.486C480.047 366.446 483.522 366.093 484.043 364.709C484.563 363.316 482.649 352.719 482.649 352.719L464.39 350.974Z" fill="white" stroke="#002E47" stroke-miterlimit="10" stroke-linecap="round" stroke-linejoin="round"/>
<path d="M484.042 364.709C484.146 364.421 484.154 363.74 484.09 362.844C481.712 363.284 478.524 363.884 474.304 364.709C465.014 366.518 452.761 365.453 447.051 364.781C447.099 365.173 447.195 365.557 447.347 365.925C448.388 368.535 466.48 368.535 473.263 367.486C480.046 366.446 483.522 366.093 484.042 364.709Z" fill="white" stroke="#002E47" stroke-miterlimit="10" stroke-linecap="round" stroke-linejoin="round"/>
<path d="M441.262 216.264L446.307 222.347C446.307 222.347 450.135 264.409 451.521 275.358C452.906 286.308 459.521 325.416 459.521 325.416L463.694 346.275C463.694 346.275 462.997 348.012 462.653 348.885C462.308 349.757 462.476 351.662 462.653 352.358C462.829 353.055 462.476 353.575 469.083 354.616C475.69 355.656 482.297 354.616 482.297 354.616C482.297 354.616 483.17 352.526 483.17 349.749C483.17 346.972 483.17 345.755 482.65 342.97C482.129 340.192 482.65 325.416 478.822 309.6C474.994 293.784 472.215 275.534 472.215 269.451C472.215 263.368 472.391 227.734 472.559 227.037C472.735 226.341 476.035 224.084 476.211 217.648C476.387 211.221 475.514 208.78 475.514 208.78H441.598" fill="#002E47"/>
<path d="M441.262 216.264L446.307 222.347C446.307 222.347 450.135 264.409 451.521 275.358C452.906 286.308 459.521 325.416 459.521 325.416L463.694 346.275C463.694 346.275 462.997 348.012 462.653 348.885C462.308 349.757 462.476 351.662 462.653 352.358C462.829 353.055 462.476 353.575 469.083 354.616C475.69 355.656 482.297 354.616 482.297 354.616C482.297 354.616 483.17 352.526 483.17 349.749C483.17 346.972 483.17 345.755 482.65 342.97C482.129 340.192 482.65 325.416 478.822 309.6C474.994 293.784 472.215 275.534 472.215 269.451C472.215 263.368 472.391 227.734 472.559 227.037C472.735 226.341 476.035 224.084 476.211 217.648C476.387 211.221 475.514 208.78 475.514 208.78H441.598" stroke="#002E47" stroke-miterlimit="10" stroke-linecap="round" stroke-linejoin="round"/>
<path d="M441.086 130.227C441.086 130.227 433.262 149.693 432.741 162.556C432.221 175.418 432.741 193.668 432.918 194.364C433.094 195.061 431.003 209.66 432.221 211.917C433.438 214.175 435.528 213.478 435.528 213.478C435.528 213.478 473.617 213.998 475.355 213.654C477.093 213.31 477.445 211.045 477.789 209.308C478.134 207.571 476.748 186.888 476.748 183.759C476.748 180.629 477.789 145.691 473.441 135.958C469.092 126.225 458.313 118.229 456.919 117.885C455.526 117.532 444.218 121.358 441.086 130.227Z" fill="#39B4EF" stroke="#002E47" stroke-miterlimit="10" stroke-linecap="round" stroke-linejoin="round"/>
<path d="M422.065 91.943C422.065 91.943 420.736 98.3224 421.136 98.8586C421.536 99.3869 422.866 101.916 422.866 101.916L419.406 111.361L423.531 112.562L429.385 122.671L438.435 120.142L441.093 132.244C441.093 132.244 440.693 136.63 442.687 135.438C444.681 134.237 446.411 132.908 450.271 126.265C454.131 119.613 457.991 118.549 457.991 118.549C457.991 118.549 453.202 112.17 452.273 110.169C451.344 108.175 451.873 104.846 450.279 96.7375C448.685 88.6293 443.224 86.9004 435.776 86.9004C428.32 86.8924 422.73 88.3492 422.065 91.943Z" fill="white" stroke="#002E47" stroke-miterlimit="10" stroke-linecap="round" stroke-linejoin="round"/>
<path d="M425.789 84.3632C425.789 84.3632 419.799 85.6919 418.734 86.8925C417.669 88.0932 419.262 91.8151 420.728 92.6075C422.193 93.4079 431.635 91.2788 431.507 91.9432C431.371 92.6075 429.914 94.3364 431.507 95.0008C433.101 95.6651 439.492 97.394 439.492 97.394L437.898 109.624C437.898 109.624 430.05 109.224 428.184 109.624C426.318 110.025 423.531 112.554 423.531 112.554C423.531 112.554 426.99 123.055 427.655 124.12C428.32 125.184 430.186 124.92 432.308 124.12C434.438 123.319 443.088 117.068 444.017 116.276C444.946 115.475 442.951 107.631 442.951 107.631C442.951 107.631 443.216 101.116 443.216 99.7872C443.216 98.4586 444.946 98.4586 446.147 99.387C447.348 100.316 447.741 103.909 447.476 105.238C447.212 106.567 445.746 107.895 445.746 107.895C445.746 107.895 450.8 111.753 451.865 111.753C452.93 111.753 453.194 111.089 453.331 110.689C453.467 110.289 453.194 98.8507 453.194 98.8507C453.194 98.8507 453.459 87.9491 451.993 84.4913C450.528 81.0335 443.608 80.105 439.22 80.7694C434.839 81.4417 425.789 84.3632 425.789 84.3632Z" fill="#002E47" stroke="#002E47" stroke-miterlimit="10" stroke-linecap="round" stroke-linejoin="round"/>
<path d="M426.838 102.453C426.966 103.173 426.75 103.821 426.349 103.885C425.949 103.957 425.524 103.429 425.396 102.701C425.268 101.98 425.484 101.332 425.885 101.268C426.285 101.204 426.718 101.732 426.838 102.453Z" stroke="#002E47" stroke-miterlimit="10" stroke-linecap="round" stroke-linejoin="round"/>
<path d="M423.924 99.7871C423.924 99.7871 425.654 97.9221 427.648 99.5229" stroke="#002E47" stroke-miterlimit="10" stroke-linecap="round" stroke-linejoin="round"/>
<path d="M427.783 114.419C427.783 114.419 430.842 113.49 431.771 111.361" stroke="white" stroke-miterlimit="10" stroke-linecap="round" stroke-linejoin="round"/>
<path d="M463.526 174.546C463.526 174.546 456.046 207.747 455.349 209.484C454.652 211.221 451.697 218.177 451.697 218.177L459.874 225.3C459.874 225.3 461.091 223.387 462.132 218.873C463.173 214.351 463.35 210.004 463.35 210.004C463.35 210.004 475.178 184.799 477.092 181.325C479.006 177.852 477.613 175.242 477.613 174.37C477.613 173.497 463.526 174.546 463.526 174.546Z" fill="white" stroke="#002E47" stroke-miterlimit="10" stroke-linecap="round" stroke-linejoin="round"/>
<path d="M458.128 136.654C458.128 136.654 456.214 142.737 456.39 145.691C456.567 148.644 460.563 166.374 460.563 166.374C460.563 166.374 458.473 168.287 459.169 168.983C459.866 169.679 460.907 171.416 460.907 171.416C460.907 171.416 459.346 172.633 460.907 174.37C462.469 176.107 461.78 176.979 469.084 176.803C476.388 176.627 478.646 176.283 479.519 174.89C480.392 173.497 481.433 172.457 480.56 171.064C479.687 169.671 479.687 169.671 479.687 169.671C479.687 169.671 480.56 168.111 480.384 166.198C480.208 164.285 478.99 162.027 478.99 161.155C478.99 160.282 478.814 148.468 476.556 139.256C474.297 130.043 464.727 125 462.989 124.832" fill="#39B4EF"/>
<path d="M458.128 136.654C458.128 136.654 456.214 142.737 456.39 145.691C456.567 148.644 460.563 166.374 460.563 166.374C460.563 166.374 458.473 168.287 459.169 168.983C459.866 169.679 460.907 171.416 460.907 171.416C460.907 171.416 459.346 172.633 460.907 174.37C462.469 176.107 461.78 176.979 469.084 176.803C476.388 176.627 478.646 176.283 479.519 174.89C480.392 173.497 481.433 172.457 480.56 171.064C479.687 169.671 479.687 169.671 479.687 169.671C479.687 169.671 480.56 168.111 480.384 166.198C480.208 164.285 478.99 162.027 478.99 161.155C478.99 160.282 478.814 148.468 476.556 139.256C474.297 130.043 464.727 125 462.989 124.832" stroke="#002E47" stroke-miterlimit="10" stroke-linecap="round" stroke-linejoin="round"/>
<path d="M355.652 224.276C355.652 224.276 355.924 235.178 355.924 235.594C355.924 236.01 354.563 243.774 355.243 247.456C355.924 251.138 361.378 256.181 361.378 256.181L361.922 223.332L355.652 224.276Z" fill="white" stroke="#002E47" stroke-miterlimit="10" stroke-linecap="round" stroke-linejoin="round"/>
<path d="M372.11 149.093C372.11 149.093 356.109 168.583 355.605 170.752C355.108 172.921 350.936 225.733 350.936 226.237C350.936 226.733 357.438 229.239 360.105 229.239C362.772 229.239 363.941 229.239 363.941 229.239C363.941 229.239 359.441 192.916 361.443 179.421C363.445 165.926 368.274 162.092 371.942 156.929C375.618 151.758 375.618 147.764 372.11 149.093Z" fill="#39B4EF" stroke="#002E47" stroke-miterlimit="10" stroke-linecap="round" stroke-linejoin="round"/>
<path d="M372.95 348.029C372.95 348.029 368.785 354.024 366.447 355.36C364.116 356.697 356.444 359.859 356.108 360.691C355.771 361.524 355.771 363.525 356.444 363.693C357.109 363.861 368.617 363.525 375.616 363.525C382.616 363.525 387.285 363.861 388.118 363.028C388.951 362.196 388.286 351.366 387.453 349.197C386.62 347.028 386.62 347.028 386.62 347.028L374.119 346.692L372.95 348.029Z" fill="#002E47" stroke="#002E47" stroke-miterlimit="10" stroke-linecap="round" stroke-linejoin="round"/>
<path d="M388.398 362.02H355.9C355.884 362.804 356.044 363.581 356.452 363.685C357.117 363.853 368.625 363.517 375.625 363.517C382.624 363.517 387.293 363.853 388.126 363.021C388.238 362.9 388.334 362.54 388.398 362.02Z" fill="white" stroke="#002E47" stroke-miterlimit="10" stroke-linecap="round" stroke-linejoin="round"/>
<path d="M356.94 222.403L359.111 232.568C359.111 232.568 358.774 259.062 361.441 270.556C364.108 282.05 364.108 293.216 364.108 293.216C364.108 293.216 367.776 311.377 369.105 316.54C370.443 321.703 371.94 343.53 371.94 343.53C371.94 343.53 370.603 344.53 370.771 345.195C370.939 345.859 371.436 350.029 371.436 350.029C371.436 350.029 372.101 350.029 377.434 350.526C382.768 351.022 385.603 350.694 385.603 350.694L387.437 349.197C387.437 349.197 387.605 346.868 387.437 343.866C387.269 340.865 386.268 338.535 386.268 336.534C386.268 334.533 385.098 290.55 385.098 290.55L385.595 221.571L356.42 219.906L356.94 222.403Z" fill="white" stroke="#002E47" stroke-miterlimit="10" stroke-linecap="round" stroke-linejoin="round"/>
<path d="M389.28 347.692C389.28 347.692 387.783 351.358 386.277 353.359C384.779 355.36 378.605 358.858 376.106 360.187C373.607 361.524 373.607 364.349 373.607 364.349C373.607 364.349 379.277 364.517 397.945 363.853L405.946 363.517C405.946 363.517 406.114 361.347 405.778 358.85C405.441 356.353 405.113 350.022 405.113 350.022L389.28 347.692Z" fill="#002E47" stroke="#002E47" stroke-miterlimit="10" stroke-linecap="round" stroke-linejoin="round"/>
<path d="M397.953 363.853L405.954 363.517C405.954 363.517 406.042 362.388 405.962 360.819L374.056 362.444C373.615 363.461 373.615 364.349 373.615 364.349C373.615 364.349 379.285 364.525 397.953 363.853Z" fill="white" stroke="#002E47" stroke-miterlimit="10" stroke-linecap="round" stroke-linejoin="round"/>
<path d="M367.609 234.234L373.943 240.397C373.943 240.397 376.442 264.385 378.941 278.553C381.439 292.712 387.942 329.203 387.942 332.204C387.942 335.206 389.28 342.866 389.28 342.866C389.28 342.866 388.783 343.034 388.615 344.203C388.447 345.371 388.447 349.87 388.447 349.87C388.447 349.87 392.611 351.871 396.279 352.199C399.947 352.535 405.617 352.031 405.617 352.031C405.617 352.031 406.282 348.197 406.282 346.868C406.282 345.539 405.785 339.704 406.114 337.375C406.45 335.046 408.781 323.216 408.116 310.217C407.451 297.218 403.447 277.064 403.447 277.064L404.784 247.737C404.784 247.737 407.283 240.405 406.45 231.408C405.617 222.411 403.615 218.914 403.615 218.914L364.605 219.082" fill="white"/>
<path d="M367.609 234.234L373.943 240.397C373.943 240.397 376.442 264.385 378.941 278.553C381.439 292.712 387.942 329.203 387.942 332.204C387.942 335.206 389.28 342.866 389.28 342.866C389.28 342.866 388.783 343.034 388.615 344.203C388.447 345.371 388.447 349.87 388.447 349.87C388.447 349.87 392.611 351.871 396.279 352.199C399.947 352.535 405.617 352.031 405.617 352.031C405.617 352.031 406.282 348.197 406.282 346.868C406.282 345.539 405.785 339.704 406.114 337.375C406.45 335.046 408.781 323.216 408.116 310.217C407.451 297.218 403.447 277.064 403.447 277.064L404.784 247.737C404.784 247.737 407.283 240.405 406.45 231.408C405.617 222.411 403.615 218.914 403.615 218.914L364.605 219.082" stroke="#002E47" stroke-miterlimit="10" stroke-linecap="round" stroke-linejoin="round"/>
<path d="M372.11 149.093C372.11 149.093 358.776 165.59 357.439 172.921C356.101 180.253 354.275 221.739 354.275 223.404C354.275 225.069 356.942 225.733 360.114 226.237C363.277 226.733 368.282 227.238 373.784 227.07C379.286 226.902 384.956 225.069 385.789 224.068C386.622 223.068 384.956 193.58 387.791 177.42C390.626 161.259 393.461 152.599 391.795 149.429C390.122 146.26 377.78 145.763 372.11 149.093Z" fill="#002E47" stroke="#002E47" stroke-miterlimit="10" stroke-linecap="round" stroke-linejoin="round"/>
<path d="M385.612 148.261C385.612 148.261 375.61 165.758 373.776 178.084C371.942 190.411 373.279 231.568 373.279 231.568C373.279 231.568 373.279 233.233 380.951 233.065C388.624 232.897 398.955 230.896 401.79 229.399C404.625 227.902 407.788 226.734 407.956 225.901C408.124 225.069 406.459 222.067 406.459 219.57C406.459 217.073 405.289 206.739 405.289 206.739C405.289 206.739 404.953 161.252 402.454 154.76C399.956 148.261 390.121 146.428 385.612 148.261Z" fill="#39B4EF" stroke="#002E47" stroke-miterlimit="10" stroke-linecap="round" stroke-linejoin="round"/>
<path d="M361.274 117.109C361.274 117.109 359.937 122.439 360.441 124.104C360.938 125.769 361.106 127.602 360.938 128.266C360.77 128.931 356.934 133.261 357.775 134.101C358.616 134.942 360.61 136.271 360.61 136.271C360.61 136.271 361.443 145.099 362.94 145.603C364.438 146.108 369.94 145.107 369.94 145.107C369.94 145.107 371.774 151.935 371.774 153.103C371.774 154.272 366.104 166.766 369.275 165.766C372.446 164.765 385.108 146.436 385.108 146.436C385.108 146.436 384.94 122.944 381.272 116.948C377.612 110.945 366.616 111.946 361.274 117.109Z" fill="white" stroke="#002E47" stroke-miterlimit="10" stroke-linecap="round" stroke-linejoin="round"/>
<path d="M365.111 128.186C365.111 129.059 364.775 129.771 364.358 129.771C363.942 129.771 363.605 129.059 363.605 128.186C363.605 127.314 363.942 126.602 364.358 126.602C364.775 126.602 365.111 127.314 365.111 128.186Z" fill="#002E47"/>
<path d="M362.611 124.768C362.611 124.768 364.613 123.104 366.111 125.265" stroke="#002E47" stroke-miterlimit="10" stroke-linecap="round" stroke-linejoin="round"/>
<path d="M362.947 137.599C362.947 137.599 365.782 137.431 367.784 135.935" stroke="#002E47" stroke-miterlimit="10" stroke-linecap="round" stroke-linejoin="round"/>
<path d="M367.28 104.942C367.28 104.942 359.112 108.104 358.279 111.105C357.446 114.107 356.781 117.605 356.781 117.605L364.117 119.102L370.452 119.598C370.452 119.598 370.284 121.095 372.118 124.592C373.952 128.09 374.784 130.259 374.784 130.259C374.784 130.259 374.288 140.088 373.783 142.922C373.287 145.755 372.118 149.085 372.118 149.085C372.118 149.085 376.282 149.918 383.954 150.75C391.626 151.582 401.125 149.749 401.125 149.749C401.125 149.749 403.127 146.42 402.958 139.752C402.79 133.085 399.627 123.592 399.291 119.758C398.954 115.924 399.955 113.259 393.957 108.592C387.95 103.942 377.283 102.277 367.28 104.942Z" fill="#002E47" stroke="#002E47" stroke-miterlimit="10" stroke-linecap="round" stroke-linejoin="round"/>
<path d="M352.513 203.85C351.873 203.85 351.392 203.778 351.256 203.762L351.632 201.393C352.425 201.513 354.243 201.513 354.796 200.72C355.549 199.648 354.964 193.693 354.195 192.684C353.907 192.348 352.537 192.348 351.552 192.58L351.008 190.243C351.6 190.107 354.628 189.49 356.029 191.131C357.335 192.66 358.272 199.944 356.766 202.097C355.725 203.578 353.803 203.85 352.513 203.85Z" fill="white" stroke="#002E47" stroke-miterlimit="10" stroke-linecap="round" stroke-linejoin="round"/>
<path d="M352.609 188.082H338.273V206.739H352.609V188.082Z" fill="white" stroke="#002E47" stroke-miterlimit="10" stroke-linecap="round" stroke-linejoin="round"/>
<path d="M390.12 158.762C390.12 158.762 387.285 165.093 387.117 168.255C386.949 171.425 390.617 192.916 390.617 192.916C390.617 192.916 378.612 195.917 375.28 195.917C371.949 195.917 369.779 195.581 369.779 195.581C369.779 195.581 365.278 192.58 363.94 191.747C362.603 190.915 361.61 191.411 359.271 189.578C356.941 187.745 355.107 187.577 354.939 188.578C354.771 189.578 354.771 190.242 356.436 191.075C358.102 191.907 359.44 193.076 359.44 193.076C359.44 193.076 355.435 193.908 354.274 194.076C353.105 194.244 352.776 195.909 353.441 196.742C354.106 197.574 355.275 198.743 355.275 198.743C355.275 198.743 355.107 202.745 357.277 203.577C359.448 204.41 365.446 204.242 365.446 204.242C365.446 204.242 371.781 204.738 372.782 204.738C373.783 204.738 386.452 207.9 395.454 207.9C404.456 207.9 407.122 208.396 407.627 206.403C408.123 204.402 407.291 174.914 405.625 165.918C403.959 156.921 400.123 151.927 397.456 151.59" fill="#39B4EF"/>
<path d="M390.12 158.762C390.12 158.762 387.285 165.093 387.117 168.255C386.949 171.425 390.617 192.916 390.617 192.916C390.617 192.916 378.612 195.917 375.28 195.917C371.949 195.917 369.779 195.581 369.779 195.581C369.779 195.581 365.278 192.58 363.94 191.747C362.603 190.915 361.61 191.411 359.271 189.578C356.941 187.745 355.107 187.577 354.939 188.578C354.771 189.578 354.771 190.242 356.436 191.075C358.102 191.907 359.44 193.076 359.44 193.076C359.44 193.076 355.435 193.908 354.274 194.076C353.105 194.244 352.776 195.909 353.441 196.742C354.106 197.574 355.275 198.743 355.275 198.743C355.275 198.743 355.107 202.745 357.277 203.577C359.448 204.41 365.446 204.242 365.446 204.242C365.446 204.242 371.781 204.738 372.782 204.738C373.783 204.738 386.452 207.9 395.454 207.9C404.456 207.9 407.122 208.396 407.627 206.403C408.123 204.402 407.291 174.914 405.625 165.918C403.959 156.921 400.123 151.927 397.456 151.59" stroke="#002E47" stroke-miterlimit="10" stroke-linecap="round" stroke-linejoin="round"/>
<path d="M380.822 195.117C378.516 195.573 376.402 195.909 375.28 195.909C371.949 195.909 369.779 195.573 369.779 195.573C369.779 195.573 365.278 192.572 363.94 191.739C362.603 190.907 361.61 191.403 359.271 189.57C356.941 187.737 355.107 187.569 354.939 188.569C354.771 189.57 354.771 190.234 356.436 191.067C358.102 191.899 359.44 193.068 359.44 193.068C359.44 193.068 355.435 193.9 354.274 194.068C353.105 194.236 352.776 195.901 353.441 196.734C354.106 197.566 355.275 198.735 355.275 198.735C355.275 198.735 355.107 202.737 357.277 203.569C359.448 204.402 365.446 204.234 365.446 204.234C365.446 204.234 371.781 204.73 372.782 204.73C373.31 204.73 377.074 205.61 381.839 206.443C380.118 202.417 380.342 198.038 380.822 195.117Z" fill="white" stroke="#002E47" stroke-miterlimit="10" stroke-linecap="round" stroke-linejoin="round"/>
<path d="M190.275 351.734C190.275 351.734 189.474 356.841 187.079 361.947C184.685 367.054 184.525 368.967 189.954 369.767C195.384 370.568 198.099 369.287 199.212 366.414C200.334 363.54 200.806 356.681 201.126 355.088C201.455 353.487 197.146 348.54 190.275 351.734Z" fill="white" stroke="#002E47" stroke-miterlimit="10" stroke-linecap="round" stroke-linejoin="round"/>
<path d="M199.22 364.021C198.099 366.094 196.666 368.647 190.924 368.167C187.656 367.895 186.303 366.494 185.742 365.325C185.005 367.967 185.958 369.167 189.971 369.76C195.4 370.56 198.115 369.279 199.228 366.406C199.621 365.389 199.941 363.869 200.197 362.26C199.893 362.78 199.565 363.372 199.22 364.021Z" fill="white" stroke="#002E47" stroke-miterlimit="10" stroke-linecap="round" stroke-linejoin="round"/>
<path d="M235.451 350.302C235.451 350.302 238.807 353.495 243.908 355.728C249.018 357.962 252.686 359.234 252.686 360.355C252.686 361.475 251.564 363.549 251.564 363.549C251.564 363.549 246.135 365.141 240.713 365.141C235.291 365.141 230.814 364.661 226.826 364.501C222.838 364.341 218.209 364.821 217.889 361.948C217.568 359.074 218.209 353.655 218.209 353.655C218.209 353.655 232.256 349.341 235.451 350.302Z" fill="white" stroke="#002E47" stroke-miterlimit="10" stroke-linecap="round" stroke-linejoin="round"/>
<path d="M251.573 363.54C251.573 363.54 251.853 363.02 252.133 362.364C249.979 362.74 247.104 363.14 244.229 363.22C238.479 363.38 236.405 362.58 229.862 361.788C224.936 361.187 220.011 361.579 217.881 361.812C217.889 361.852 217.889 361.908 217.889 361.948C218.209 364.821 222.838 364.341 226.826 364.501C230.815 364.661 235.283 365.141 240.713 365.141C246.143 365.141 251.573 363.54 251.573 363.54Z" fill="white" stroke="#002E47" stroke-miterlimit="10" stroke-linecap="round" stroke-linejoin="round"/>
<path d="M236.419 225.197C236.419 225.197 237.244 249.329 235.763 270.668C234.281 292.007 232.311 323.36 233.136 327.794C233.961 332.228 234.618 346.508 234.618 346.508L236.099 348.316L236.924 351.27C236.924 351.27 236.099 352.094 231.014 353.567C225.92 355.048 218.528 355.376 218.528 355.376C218.528 355.376 218.2 350.454 218.2 349.141C218.2 347.828 218.528 344.875 218.528 344.875C218.528 344.875 215.733 310.241 216.23 303.181C216.727 296.121 215.733 267.891 215.733 267.891L214.909 257.709C214.909 257.709 208.342 284.139 208.013 287.421C207.685 290.703 203.088 324.192 203.088 326.161C203.088 328.13 201.118 346.844 201.118 346.844C201.118 346.844 202.271 348.653 202.431 350.454C202.599 352.263 201.278 356.857 201.278 356.857C201.278 356.857 198.811 355.216 196.513 355.048C194.215 354.88 189.778 354.552 189.778 354.552C189.778 354.552 188.464 345.027 188.464 343.058C188.464 341.089 188.464 332.876 188.464 332.876C188.464 332.876 187.808 309.4 188.961 300.372C190.114 291.343 189.457 263.44 188.793 251.618C188.136 239.796 186.494 229.295 187.64 226.669C188.793 224.044 189.449 220.762 189.449 220.762C189.449 220.762 201.278 223.388 214.909 224.212C228.539 225.036 235.442 222.571 235.442 222.571L236.419 225.197Z" fill="#002E47" stroke="#002E47" stroke-miterlimit="10" stroke-linecap="round" stroke-linejoin="round"/>
<path d="M214.9 257.702L218.528 247.08" stroke="white" stroke-miterlimit="10" stroke-linecap="round" stroke-linejoin="round"/>
<path d="M214.603 229.575C214.603 229.575 217.543 229.887 223.877 228.959C230.212 228.03 232.847 226.637 232.847 226.637C232.847 226.637 228.674 146.131 228.674 145.363C228.674 144.587 228.674 140.961 224.342 140.184C220.009 139.408 214.291 141.265 213.058 146.059C211.824 150.846 214.603 229.575 214.603 229.575Z" fill="white" stroke="#002E47" stroke-miterlimit="10" stroke-linecap="round" stroke-linejoin="round"/>
<path d="M232.695 233.745C232.695 233.745 232.23 238.531 232.695 238.843C233.159 239.156 237.644 237.451 240.583 236.218C243.522 234.985 242.545 235.474 243.498 232.68C244.451 229.887 244.139 229.887 241.2 230.663C238.261 231.432 232.695 233.745 232.695 233.745Z" fill="white" stroke="#002E47" stroke-miterlimit="10" stroke-linecap="round" stroke-linejoin="round"/>
<path d="M226.561 154.984L230.02 201.576L231.806 235.178C231.806 235.178 232.399 236.251 233.36 236.01C234.313 235.77 242.538 233.865 243.491 232.673C244.444 231.48 244.804 228.382 244.804 227.902C244.804 227.422 242.297 198.111 242.297 198.111L248.736 189.53C248.736 189.53 243.851 162.716 242.658 157.354C241.464 151.991 241.464 149.133 239.558 146.748C237.652 144.363 226.681 139 226.681 139L226.561 154.984Z" fill="#39B4EF" stroke="#002E47" stroke-miterlimit="10" stroke-linecap="round" stroke-linejoin="round"/>
<path d="M225.255 136.158C225.255 136.158 229.668 140.809 229.548 143.186C229.428 145.571 226.569 154.984 226.569 154.984L224.783 141.161C224.775 141.161 223.822 137.703 225.255 136.158Z" fill="white" stroke="#002E47" stroke-miterlimit="10" stroke-linecap="round" stroke-linejoin="round"/>
<path d="M210.72 126.233L210.344 135.974C210.344 135.974 213.563 143.954 215.589 146.339C217.616 148.725 221.315 152.775 221.315 152.775L225.368 144.314L225.488 139.664L227.274 135.254C227.274 135.254 223.342 134.541 219.522 131.556C215.709 128.578 211.769 125 211.417 124.88C211.065 124.776 210.72 126.233 210.72 126.233Z" fill="white" stroke="#002E47" stroke-miterlimit="10" stroke-linecap="round" stroke-linejoin="round"/>
<path d="M213.123 129.683C213.123 129.683 214.156 133.469 220.699 137.943C222.565 139.216 224.151 139.968 225.472 140.409L225.488 139.672L227.274 135.262C227.274 135.262 223.342 134.549 219.522 131.564C218.553 130.812 217.584 130.011 216.655 129.251L215.405 128.875L213.123 129.683Z" fill="#002E47" stroke="#002E47" stroke-miterlimit="10" stroke-linecap="round" stroke-linejoin="round"/>
<path d="M237.149 105.39C237.149 105.39 236.716 115.387 236.436 118.813C236.148 122.239 236.003 125.241 234.434 128.378C232.864 131.516 231.15 136.374 228.435 136.799C225.72 137.231 221.724 136.943 218.433 134.942C215.149 132.941 210.865 127.378 210.721 126.233C210.576 125.089 210.288 124.376 210.288 124.376C210.288 124.376 208.574 114.099 208.574 109.528C208.574 104.958 209.007 101.108 216.286 98.5387C223.582 95.9694 237.149 105.39 237.149 105.39Z" fill="white" stroke="#002E47" stroke-miterlimit="10" stroke-linecap="round" stroke-linejoin="round"/>
<path d="M213.29 105.39C213.29 105.39 217.719 106.535 215.437 108.528C213.154 110.529 211.008 112.81 211.008 112.81C211.008 112.81 211.721 115.668 211.44 116.804C211.152 117.949 209.727 118.805 208.726 117.661C207.725 116.516 206.868 115.66 206.868 115.66C206.868 115.66 204.153 107.095 203.584 104.67C203.015 102.245 202.439 99.6754 206.011 97.2501C209.582 94.8249 210.295 94.5367 210.295 94.5367C210.295 94.5367 216.294 90.5427 224.582 91.255C232.871 91.9674 236.579 96.6818 236.579 96.6818C236.579 96.6818 243.146 94.969 242.722 99.6834C242.289 104.398 237.58 107.535 235.01 107.247C232.439 106.959 218.864 100.108 216.157 101.252C213.435 102.389 211.44 104.958 213.29 105.39Z" fill="#002E47" stroke="#002E47" stroke-miterlimit="10" stroke-linecap="round" stroke-linejoin="round"/>
<path d="M229.725 115.956C229.725 115.956 231.727 122.383 231.15 122.952C230.581 123.52 228.291 123.952 228.291 123.952" stroke="#002E47" stroke-miterlimit="10" stroke-linecap="round" stroke-linejoin="round"/>
<path d="M231.004 126.666C231.004 126.666 226.432 127.954 223.004 125.809" stroke="#002E47" stroke-miterlimit="10" stroke-linecap="round" stroke-linejoin="round"/>
<path d="M227.89 111.954C227.89 111.954 221.867 111.385 218.72 111.385C215.581 111.385 214.435 111.097 214.291 111.954C214.147 112.81 213.859 117.381 216.293 118.949C218.72 120.518 223.149 119.806 225.007 119.382C226.865 118.949 227.433 115.812 227.577 114.811C227.722 113.811 227.89 111.954 227.89 111.954Z" stroke="#002E47" stroke-miterlimit="10" stroke-linecap="round" stroke-linejoin="round"/>
<path d="M229.66 111.97C229.66 111.97 234.441 111.666 236.94 111.794C239.439 111.922 240.344 111.698 240.456 112.522C240.568 113.346 240.792 117.765 238.87 119.174C236.94 120.59 233.424 119.718 231.951 119.23C230.477 118.741 230.021 115.692 229.908 114.723C229.788 113.763 229.66 111.97 229.66 111.97Z" stroke="#002E47" stroke-miterlimit="10" stroke-linecap="round" stroke-linejoin="round"/>
<path d="M214.291 111.954L206.867 115.668" stroke="#002E47" stroke-miterlimit="10" stroke-linecap="round" stroke-linejoin="round"/>
<path d="M227.889 111.954H229.811" stroke="#002E47" stroke-miterlimit="10" stroke-linecap="round" stroke-linejoin="round"/>
<path d="M211.008 119.238C211.008 119.238 207.725 115.1 205.434 115.668C203.152 116.236 205.146 122.231 207.004 123.232C208.862 124.232 210.864 122.944 210.864 122.944" fill="white"/>
<path d="M211.008 119.238C211.008 119.238 207.725 115.1 205.434 115.668C203.152 116.236 205.146 122.231 207.004 123.232C208.862 124.232 210.864 122.944 210.864 122.944" stroke="#002E47" stroke-miterlimit="10" stroke-linecap="round" stroke-linejoin="round"/>
<path d="M222.509 115.78C222.509 116.604 222.164 117.269 221.732 117.269C221.307 117.269 220.955 116.604 220.955 115.78C220.955 114.955 221.299 114.291 221.732 114.291C222.164 114.291 222.509 114.955 222.509 115.78Z" fill="#002E47"/>
<path d="M233.183 117.269C233.612 117.269 233.96 116.602 233.96 115.78C233.96 114.958 233.612 114.291 233.183 114.291C232.754 114.291 232.406 114.958 232.406 115.78C232.406 116.602 232.754 117.269 233.183 117.269Z" fill="#002E47"/>
<path d="M218.336 110.481C218.336 110.481 221.563 109.464 225.608 110.721" stroke="#002E47" stroke-miterlimit="10" stroke-linecap="round" stroke-linejoin="round"/>
<path d="M231.453 110.833C231.453 110.833 233.119 109.881 235.866 110.353" stroke="#002E47" stroke-miterlimit="10" stroke-linecap="round" stroke-linejoin="round"/>
<path d="M218.456 237.147L218.624 240.084C218.624 240.084 211.825 241.477 202.391 239.308C192.957 237.147 184.46 231.272 183.531 230.039C182.602 228.807 184.308 223.548 184.308 223.548C184.308 223.548 183.074 223.236 185.237 224.012C187.399 224.788 195.904 232.2 207.5 234.209C219.089 236.218 218.592 235.45 218.456 237.147Z" fill="white" stroke="#002E47" stroke-miterlimit="10" stroke-linecap="round" stroke-linejoin="round"/>
<path d="M209.63 132.997C209.63 132.997 215.468 141.097 218.215 144.795C220.954 148.493 220.241 153.015 219.881 154.208C219.521 155.4 219.048 157.425 219.048 157.425V232.736C219.048 232.736 220.121 236.786 218.456 237.147C216.79 237.507 204.625 236.907 195.687 232.264C186.742 227.614 183.642 224.396 183.642 224.396L185.909 206.043L186.862 195.797L172.078 195.869C172.078 195.869 180.775 154.088 181.736 151.822C182.689 149.557 206.178 137.639 206.178 137.639C206.178 137.639 206.531 133.773 209.63 132.997Z" fill="#39B4EF" stroke="#002E47" stroke-miterlimit="10" stroke-linecap="round" stroke-linejoin="round"/>
<path d="M239.214 166.798L239.021 164.805" stroke="#002E47" stroke-miterlimit="10" stroke-linecap="round" stroke-linejoin="round"/>
<path d="M242.305 198.119L239.51 169.752" stroke="#002E47" stroke-miterlimit="10" stroke-linecap="round" stroke-linejoin="round"/>
<path d="M186.863 195.797L189.642 169.184" stroke="#002E47" stroke-miterlimit="10" stroke-linecap="round" stroke-linejoin="round"/>
<path d="M182.858 190.283C182.858 190.283 180.199 189.642 176.588 190.283C172.976 190.923 171.278 197.614 171.062 199.952C170.845 202.289 172.335 206.323 175.098 207.492C177.861 208.66 179.246 208.556 182.113 206.851C184.981 205.154 184.66 197.294 184.556 194.637C184.452 191.98 182.858 190.283 182.858 190.283Z" fill="white" stroke="#002E47" stroke-miterlimit="10" stroke-linecap="round" stroke-linejoin="round"/>
<path d="M189.914 182.598C189.914 182.598 190.979 175.483 191.083 173.146C191.187 170.808 190.867 167.943 191.299 166.982C191.724 166.03 193.213 166.878 193.742 167.511C194.271 168.151 194.695 171.441 194.591 172.713C194.487 173.986 194.591 175.051 194.591 175.051C194.591 175.051 202.776 168.999 203.729 167.719C204.682 166.446 206.596 165.486 207.236 166.334C207.877 167.182 207.132 167.927 206.387 168.671C205.643 169.416 201.815 173.77 201.182 174.298C200.541 174.826 200.333 175.675 200.333 175.675C200.333 175.675 200.974 175.779 201.927 175.459C202.88 175.139 209.471 171.849 210.111 171.849C210.752 171.849 211.281 172.697 211.064 173.338C210.848 173.978 202.776 178.86 202.455 178.965C202.135 179.069 201.815 179.813 202.351 179.917C202.88 180.021 209.471 178.965 210.32 179.389C211.169 179.813 210.96 180.773 210.536 181.086C210.111 181.406 202.247 182.783 202.247 182.783C202.247 182.783 204.794 183.311 205.859 183.527C206.924 183.743 208.726 183.743 208.726 184.375C208.726 185.016 208.302 185.328 207.557 185.328C206.812 185.328 203.2 185.328 202.031 185.328C200.862 185.328 198.523 186.28 196.609 187.137C194.695 187.985 193.846 188.305 193.846 188.305C193.846 188.305 188.641 197.758 186.727 201.16C184.812 204.562 181.945 205.834 179.182 206.043C176.42 206.259 173.552 201.264 174.081 198.823C174.61 196.382 179.078 190.963 183.011 188.946C186.935 186.953 188.104 184.928 189.914 182.598Z" fill="white" stroke="#002E47" stroke-miterlimit="10" stroke-linecap="round" stroke-linejoin="round"/>
<path d="M253.262 191.515C253.262 191.515 250.227 187.569 248.096 187.417C245.966 187.265 242.17 194.101 242.17 196.982C242.17 199.864 242.322 205.338 243.539 206.091C244.757 206.851 247.031 205.482 248.401 203.657C249.77 201.841 253.262 191.515 253.262 191.515Z" fill="white" stroke="#002E47" stroke-miterlimit="10" stroke-linecap="round" stroke-linejoin="round"/>
<path d="M288.098 172.786C288.098 172.786 288.274 169.536 287.658 169.712C287.041 169.888 286.6 170.328 286.777 171.817C286.953 173.306 286.248 176.556 286.248 176.556L288.098 172.786Z" fill="white" stroke="#002E47" stroke-miterlimit="10" stroke-linecap="round" stroke-linejoin="round"/>
<path d="M250.154 190.427C250.154 190.427 245.325 199.207 245.501 201.576C245.677 203.946 247.695 204.738 251.387 203.682C255.079 202.625 280.81 188.586 282.044 187.441C283.277 186.296 287.49 177.524 288.891 175.939C290.293 174.362 290.124 170.408 290.124 169.704C290.124 168.999 288.891 169.264 288.891 170.144C288.891 171.025 285.904 176.732 285.463 176.9C285.023 177.076 281.075 179.005 281.075 179.005C281.075 179.005 283.093 175.051 283.798 173.738C284.502 172.417 285.111 170.928 283.621 171.457C282.132 171.985 279.753 176.019 278.88 178.212C277.999 180.405 276.51 183.303 276.774 184.712C277.038 186.112 277.038 186.112 277.038 186.112C277.038 186.112 268.165 188.129 262.895 188.394C257.618 188.674 250.418 189.546 250.154 190.427Z" fill="white" stroke="#002E47" stroke-miterlimit="10" stroke-linecap="round" stroke-linejoin="round"/>
<path d="M285.729 181.118C285.729 181.118 290.381 175.763 290.998 174.795C291.615 173.826 292.4 172.337 292.231 171.193C292.055 170.048 291.262 171.457 290.654 172.426C290.037 173.394 288.812 174.266 288.107 175.851C287.402 177.428 285.737 177.868 285.737 177.868V181.118H285.729Z" fill="white" stroke="#002E47" stroke-miterlimit="10" stroke-linecap="round" stroke-linejoin="round"/>
<path d="M284.062 184.367C284.062 184.367 286.696 178.925 287.401 177.436C288.106 175.947 288.282 173.402 288.37 171.817C288.458 170.24 287.137 171.289 286.969 172.609C286.793 173.93 285.735 177.876 285.735 177.876C285.735 177.876 280.025 181.91 280.025 182.967C280.025 184.023 280.202 185.424 280.202 185.424" fill="white"/>
<path d="M284.062 184.367C284.062 184.367 286.696 178.925 287.401 177.436C288.106 175.947 288.282 173.402 288.37 171.817C288.458 170.24 287.137 171.289 286.969 172.609C286.793 173.93 285.735 177.876 285.735 177.876C285.735 177.876 280.025 181.91 280.025 182.967C280.025 184.023 280.202 185.424 280.202 185.424" stroke="#002E47" stroke-miterlimit="10" stroke-linecap="round" stroke-linejoin="round"/>
<path d="M105.031 266.994H96.4863V282.162H105.031V266.994Z" fill="#002E47" stroke="#002E47" stroke-miterlimit="10" stroke-linecap="round" stroke-linejoin="round"/>
<path d="M108.876 271.605H91.3377C84.4263 271.605 78.8203 266.002 78.8203 259.094V219.017C78.8203 212.11 84.4263 206.507 91.3377 206.507H108.876C115.788 206.507 121.394 212.11 121.394 219.017V259.094C121.394 266.002 115.788 271.605 108.876 271.605Z" fill="#949494" stroke="#002E47" stroke-miterlimit="10" stroke-linecap="round" stroke-linejoin="round"/>
<path d="M87.3409 361.627C87.3409 359.634 85.7232 358.018 83.729 358.018C81.7349 358.018 80.1172 359.634 80.1172 361.627C80.1172 363.62 81.7349 365.237 83.729 365.237C85.7232 365.237 87.3409 363.62 87.3409 361.627Z" fill="#002E47" stroke="#002E47" stroke-miterlimit="10" stroke-linecap="round" stroke-linejoin="round"/>
<path d="M157.983 361.627C157.983 359.634 156.366 358.018 154.372 358.018C152.377 358.018 150.76 359.634 150.76 361.627C150.76 363.62 152.377 365.237 154.372 365.237C156.366 365.237 157.983 363.62 157.983 361.627Z" fill="#002E47" stroke="#002E47" stroke-miterlimit="10" stroke-linecap="round" stroke-linejoin="round"/>
<path d="M120.801 361.627C120.801 359.634 120.048 358.018 119.119 358.018C118.19 358.018 117.438 359.634 117.438 361.627C117.438 363.62 118.19 365.237 119.119 365.237C120.048 365.237 120.801 363.62 120.801 361.627Z" fill="#002E47" stroke="#002E47" stroke-miterlimit="10" stroke-linecap="round" stroke-linejoin="round"/>
<path d="M122.41 342.009V290.207H115.314V342.226L80.293 356.073V359.547H85.3784V356.601L119.134 349.645L152.882 356.601V359.547H157.976V356.073L122.41 342.009Z" fill="#002E47" stroke="#002E47" stroke-miterlimit="10" stroke-linecap="round" stroke-linejoin="round"/>
<path d="M117.349 359.538H120.896L121.657 342.722H116.588L117.349 359.538Z" fill="#002E47" stroke="#002E47" stroke-miterlimit="10" stroke-linecap="round" stroke-linejoin="round"/>
<path d="M127.873 288.229H109.83V298.939H127.873V288.229Z" fill="#002E47" stroke="#002E47" stroke-miterlimit="10" stroke-linecap="round" stroke-linejoin="round"/>
<path d="M145.7 292.175H90.3131C87.6943 292.175 85.5801 290.054 85.5801 287.445V283.099C85.5801 280.481 87.7023 278.368 90.3131 278.368H145.7C148.319 278.368 150.433 280.489 150.433 283.099V287.445C150.441 290.062 148.319 292.175 145.7 292.175Z" fill="#949494" stroke="#002E47" stroke-miterlimit="10" stroke-linecap="round" stroke-linejoin="round"/>
<path d="M197.732 316.62L203.249 324.792L209.792 324.384C209.792 324.384 222.262 322.135 223.903 321.727C225.537 321.319 226.154 322.751 225.337 324.384C224.52 326.017 216.952 333.373 213.276 335.622C209.592 337.871 199.165 341.545 198.148 341.753C197.123 341.961 195.898 339.912 193.647 333.581C191.397 327.25 187.312 320.91 187.312 320.91L197.732 316.62Z" fill="white" stroke="#002E47" stroke-miterlimit="10" stroke-linecap="round" stroke-linejoin="round"/>
<path d="M225.329 324.392C226.145 322.759 225.537 321.327 223.895 321.735C222.261 322.143 209.784 324.392 209.784 324.392L203.241 324.8C203.449 328.482 204.266 330.315 204.266 330.315C204.266 330.315 195.064 332.564 193.631 333.581C195.881 339.912 197.107 341.961 198.132 341.753C199.157 341.545 209.584 337.871 213.26 335.622C216.944 333.381 224.512 326.025 225.329 324.392Z" fill="white" stroke="#002E47" stroke-miterlimit="10" stroke-linecap="round" stroke-linejoin="round"/>
<path d="M225.328 324.392C225.673 323.696 225.753 323.055 225.617 322.559C221.885 325.705 214.052 332.156 210.921 333.725C207.942 335.214 200.181 337.943 195.961 339.392C196.866 341.225 197.539 341.889 198.139 341.769C199.164 341.561 209.591 337.887 213.267 335.638C216.943 333.381 224.511 326.025 225.328 324.392Z" fill="white" stroke="#002E47" stroke-miterlimit="10" stroke-linecap="round" stroke-linejoin="round"/>
<path d="M177.357 249.121C177.357 249.121 186.359 275.527 191.588 293.328C195.721 307.383 200.99 318.261 200.99 318.261C200.99 318.261 196.698 320.71 193.83 322.143C190.971 323.576 186.062 325.409 186.062 325.409C186.062 325.409 182.178 319.277 178.086 311.305C173.993 303.333 167.042 283.923 163.774 278C160.507 272.077 156.006 263.08 156.006 263.08C156.006 263.08 153.964 252.859 161.732 250.21C169.509 247.552 175.115 246.264 177.357 249.121Z" fill="#39B4EF" stroke="#002E47" stroke-miterlimit="10" stroke-linecap="round" stroke-linejoin="round"/>
<path d="M146.332 244.703C146.332 244.703 149.847 247.048 149.951 247.44C150.048 247.832 149.855 248.12 149.071 248.417C148.286 248.713 144.674 249.393 144.674 249.393L146.332 244.703Z" fill="white" stroke="#002E47" stroke-miterlimit="10" stroke-linecap="round" stroke-linejoin="round"/>
<path d="M159.41 333.405C159.41 333.405 158.001 342.161 157.048 345.363C156.095 348.557 153.46 354.376 154.285 355.824C155.117 357.273 159.474 358.754 161.7 358.938C163.927 359.122 166.778 362.756 170.918 364.261C175.059 365.766 180.529 365.357 180.4 364.269C180.272 363.18 168.139 349.813 167.547 346.58C166.954 343.346 169.084 333.181 169.084 333.181L159.41 333.405Z" fill="white" stroke="#002E47" stroke-miterlimit="10" stroke-linecap="round" stroke-linejoin="round"/>
<path d="M166.033 348.733C165.696 349.653 165.696 349.653 165.696 349.653C165.696 349.653 160.082 349.029 156.23 347.748C155.101 350.886 153.627 354.688 154.276 355.824C155.109 357.273 159.466 358.754 161.692 358.938C163.918 359.122 166.769 362.756 170.91 364.261C175.05 365.766 180.52 365.357 180.392 364.269C180.264 363.18 168.131 349.813 167.538 346.58C167.554 346.572 166.369 347.812 166.033 348.733Z" fill="white" stroke="#002E47" stroke-miterlimit="10" stroke-linecap="round" stroke-linejoin="round"/>
<path d="M170.67 362.084C167.394 360.475 164.431 357.737 160.074 356.257C157.231 355.296 155.261 354.512 154.228 354.08C154.092 354.856 154.092 355.464 154.292 355.817C155.125 357.265 159.482 358.746 161.708 358.93C163.934 359.114 166.785 362.748 170.926 364.253C174.874 365.686 180.016 365.381 180.376 364.405C177.645 364.005 172.92 363.188 170.67 362.084Z" fill="white" stroke="#002E47" stroke-miterlimit="10" stroke-linecap="round" stroke-linejoin="round"/>
<path d="M157.24 267.579C157.24 267.579 173.393 269.42 174.619 277.592C175.844 285.764 172.985 336.646 172.985 336.646C172.985 336.646 169.101 336.855 165.825 336.238C162.55 335.622 157.032 334.397 157.032 334.397C157.032 334.397 156.215 317.028 155.19 310.081C154.165 303.133 153.348 282.899 153.348 282.899C153.348 282.899 126.359 280.649 123.909 279.017C121.466 277.392 157.24 267.579 157.24 267.579Z" fill="#39B4EF" stroke="#002E47" stroke-miterlimit="10" stroke-linecap="round" stroke-linejoin="round"/>
<path d="M174.827 263.497C174.827 263.497 138.637 277.6 129.435 280.665C120.233 283.731 110.215 282.915 103.88 280.874C97.545 278.832 94.4297 270.7 94.4297 270.7C94.4297 270.7 92.836 268.819 93.6529 266.978C94.4698 265.137 107.556 253.491 115.532 251.45C123.509 249.409 137.932 250.298 137.932 250.298C137.932 250.298 169.101 243.07 173.402 243.686C177.694 244.303 181.106 259.574 181.723 261.616" fill="#39B4EF"/>
<path d="M174.827 263.497C174.827 263.497 138.637 277.6 129.435 280.665C120.233 283.731 110.215 282.915 103.88 280.874C97.545 278.832 94.4297 270.7 94.4297 270.7C94.4297 270.7 92.836 268.819 93.6529 266.978C94.4698 265.137 107.556 253.491 115.532 251.45C123.509 249.409 137.932 250.298 137.932 250.298C137.932 250.298 169.101 243.07 173.402 243.686C177.694 244.303 181.106 259.574 181.723 261.616" stroke="#002E47" stroke-miterlimit="10" stroke-linecap="round" stroke-linejoin="round"/>
<path d="M103.672 272.277C103.672 272.277 106.531 261.039 114.099 256.341" stroke="#002E47" stroke-miterlimit="10" stroke-linecap="round" stroke-linejoin="round"/>
<path d="M102.037 264.721C102.037 264.721 105.104 260.023 109.197 258.998" stroke="#002E47" stroke-miterlimit="10" stroke-linecap="round" stroke-linejoin="round"/>
<path d="M124.549 180.557C124.549 180.557 127.729 181.062 129.739 184.399C131.749 187.745 135.088 200.288 135.088 200.288C135.088 200.288 140.446 215.84 139.437 219.514C138.436 223.195 134.416 228.542 134.416 228.542C134.416 228.542 134.752 240.58 135.753 242.926C136.754 245.263 137.931 250.282 137.931 250.282C137.931 250.282 135.088 252.291 125.718 253.627C116.348 254.964 108.652 255.636 105.473 258.142C102.293 260.647 95.27 270.18 94.4291 270.684C93.5962 271.188 92.2508 272.189 91.5861 270.852C90.9133 269.516 89.7441 266.674 91.2497 260.655C92.7553 254.636 95.4302 230.887 96.4392 219.69C97.4403 208.484 95.27 197.118 96.6074 189.258C97.9448 181.398 109.821 176.715 112.504 176.219C115.179 175.707 124.549 180.557 124.549 180.557Z" fill="#002E47" stroke="#002E47" stroke-miterlimit="10" stroke-linecap="round" stroke-linejoin="round"/>
<path d="M96.3105 260.631C96.3105 260.631 101.42 254.708 103.879 253.683C106.337 252.659 123.508 252.659 123.508 252.659" stroke="white" stroke-miterlimit="10" stroke-linecap="round" stroke-linejoin="round"/>
<path d="M99.9941 253.067C99.9941 253.067 102.853 251.434 105.104 251.026C107.354 250.617 113.28 251.026 113.28 251.026" stroke="white" stroke-miterlimit="10" stroke-linecap="round" stroke-linejoin="round"/>
<path d="M108.988 232.632C108.988 232.632 116.757 229.975 123.916 223.027" stroke="white" stroke-miterlimit="10" stroke-linecap="round" stroke-linejoin="round"/>
<path d="M127.392 133.069C127.392 133.069 129.899 138.415 130.74 140.088C131.573 141.761 131.244 144.603 131.909 146.948C132.582 149.285 136.426 150.79 136.426 152.134C136.426 153.471 134.92 156.145 134.92 156.145C134.92 156.145 134.087 166.51 132.742 167.679C131.404 168.847 125.879 169.183 125.879 169.183L123.036 180.053L125.879 181.726C125.879 181.726 126.383 191.595 125.879 195.101C125.374 198.615 125.71 201.96 120.689 200.616C115.668 199.279 107.971 185.904 107.307 184.231C106.634 182.558 109.485 175.371 106.138 164.669C102.79 153.967 110.15 144.266 115.003 139.752C119.864 135.246 122.203 132.236 127.392 133.069Z" fill="white" stroke="#002E47" stroke-miterlimit="10" stroke-linecap="round" stroke-linejoin="round"/>
<path d="M127.392 133.069C127.224 130.059 126.888 128.89 120.697 128.218C114.507 127.546 101.292 127.049 96.1029 136.246C90.9134 145.443 90.9134 165.509 90.9134 165.509C90.9134 165.509 79.8696 175.379 79.0368 181.398C78.2039 187.417 82.2161 193.1 88.5749 195.109C88.6951 195.149 88.8232 195.173 88.9513 195.205C89.5119 192.804 90.537 189.762 92.427 187.497C96.0469 183.159 99.1782 183.639 103.759 182.438C108.412 181.214 111.263 180.917 111.936 175.691C112.617 170.432 113.618 164.821 113.169 159.49C113.001 157.481 115.179 154.472 115.179 154.472C115.179 154.472 120.369 155.808 123.708 146.78C127.056 137.751 127.56 136.078 127.392 133.069Z" fill="#002E47" stroke="#002E47" stroke-miterlimit="10" stroke-linecap="round" stroke-linejoin="round"/>
<path d="M117.349 156.977C117.349 156.977 115.675 149.285 111.327 152.295C106.978 155.304 113.505 163.829 114.506 163.997C115.507 164.165 117.181 163.164 117.181 163.164" fill="white"/>
<path d="M117.349 156.977C117.349 156.977 115.675 149.285 111.327 152.295C106.978 155.304 113.505 163.829 114.506 163.997C115.507 164.165 117.181 163.164 117.181 163.164" stroke="#002E47" stroke-miterlimit="10" stroke-linecap="round" stroke-linejoin="round"/>
<path d="M125.887 169.183L120.697 168.519L124.381 173.37L125.887 169.183Z" fill="#002E47" stroke="#002E47" stroke-miterlimit="10" stroke-linecap="round" stroke-linejoin="round"/>
<path d="M131.388 148.861C131.604 149.998 131.38 150.99 130.884 151.086C130.387 151.182 129.802 150.342 129.586 149.205C129.37 148.069 129.594 147.076 130.091 146.98C130.587 146.892 131.172 147.732 131.388 148.861Z" fill="#002E47"/>
<path d="M141.952 240.004C142.6 240.004 143.097 239.932 143.233 239.916L142.848 237.507C142.04 237.627 140.19 237.627 139.629 236.826C138.86 235.73 139.461 229.687 140.238 228.662C140.526 228.326 141.927 228.326 142.929 228.558L143.489 226.181C142.889 226.037 139.813 225.42 138.38 227.085C137.05 228.638 136.097 236.05 137.627 238.235C138.684 239.724 140.646 240.004 141.952 240.004Z" fill="white" stroke="#002E47" stroke-miterlimit="10" stroke-linecap="round" stroke-linejoin="round"/>
<path d="M141.852 242.945H156.428V223.967H141.852V242.945Z" fill="white" stroke="#002E47" stroke-miterlimit="10" stroke-linecap="round" stroke-linejoin="round"/>
<path d="M99.6587 183.879C99.6587 183.879 91.9385 181.47 88.4067 196.389C87.2295 201.352 82.4724 251.602 83.4655 251.954C87.0613 253.227 125.038 241.421 125.038 241.421C125.038 241.421 136.794 240.62 137.819 240.372C138.844 240.132 140.454 238.283 140.382 237.243C140.31 236.21 140.342 234.121 140.342 234.121C140.342 234.121 142.112 232.088 141.503 230.743C140.887 229.399 139.645 228.958 139.645 228.958L137.211 228.95L135.777 228.35C135.777 228.35 137.563 226.493 137.267 224.78C136.97 223.067 135.521 222.123 134.912 223.379C134.304 224.636 134.192 225.509 133.054 226.629C131.917 227.75 130.283 229.246 129.499 230.519C128.714 231.784 126.511 235.066 126.511 235.066L99.1462 236.554L103.303 205.042" fill="#002E47"/>
<path d="M99.6587 183.879C99.6587 183.879 91.9385 181.47 88.4067 196.389C87.2295 201.352 82.4724 251.602 83.4655 251.954C87.0613 253.227 125.038 241.421 125.038 241.421C125.038 241.421 136.794 240.62 137.819 240.372C138.844 240.132 140.454 238.283 140.382 237.243C140.31 236.21 140.342 234.121 140.342 234.121C140.342 234.121 142.112 232.088 141.503 230.743C140.887 229.399 139.645 228.958 139.645 228.958L137.211 228.95L135.777 228.35C135.777 228.35 137.563 226.493 137.267 224.78C136.97 223.067 135.521 222.123 134.912 223.379C134.304 224.636 134.192 225.509 133.054 226.629C131.917 227.75 130.283 229.246 129.499 230.519C128.714 231.784 126.511 235.066 126.511 235.066L99.1462 236.554L103.303 205.042" stroke="#002E47" stroke-miterlimit="10" stroke-linecap="round" stroke-linejoin="round"/>
<path d="M141.496 230.751C140.879 229.406 139.638 228.966 139.638 228.966L137.203 228.958L135.769 228.358C135.769 228.358 137.555 226.501 137.259 224.788C136.971 223.075 135.513 222.131 134.904 223.387C134.296 224.644 134.184 225.516 133.047 226.637C131.909 227.758 130.276 229.254 129.491 230.527C128.706 231.792 126.504 235.073 126.504 235.073L99.1384 236.562L100.948 222.827L85.5879 222.483C84.1864 236.858 82.9131 251.762 83.4497 251.954C87.0455 253.227 125.022 241.421 125.022 241.421C125.022 241.421 136.778 240.62 137.804 240.372C138.829 240.132 140.438 238.283 140.366 237.243C140.294 236.21 140.326 234.121 140.326 234.121C140.326 234.121 142.112 232.096 141.496 230.751Z" fill="white" stroke="#002E47" stroke-miterlimit="10" stroke-linecap="round" stroke-linejoin="round"/>
<path d="M140.27 244.487C140.27 244.487 137.202 245.103 136.385 246.12C135.569 247.144 133.526 252.659 134.543 252.867C135.569 253.075 137.611 248.577 137.611 248.577C137.611 248.577 143.337 245.711 140.27 244.487Z" fill="white" stroke="#002E47" stroke-miterlimit="10" stroke-linecap="round" stroke-linejoin="round"/>
<path d="M141.639 244.503C141.639 244.503 140.47 244.407 139.589 244.895C138.708 245.383 136.85 249.585 136.562 250.754C136.266 251.923 136.562 253.099 137.347 252.803C138.132 252.507 140.863 248.313 141.647 247.817C142.424 247.336 143.009 244.519 141.639 244.503Z" fill="white" stroke="#002E47" stroke-miterlimit="10" stroke-linecap="round" stroke-linejoin="round"/>
<path d="M143.794 244.503C143.794 244.503 142.817 242.838 141.639 244.503C140.47 246.168 138.508 251.242 138.997 251.634C139.485 252.027 140.662 250.754 141.439 249.873C142.232 249.001 144.378 246.752 143.794 244.503Z" fill="white" stroke="#002E47" stroke-miterlimit="10" stroke-linecap="round" stroke-linejoin="round"/>
<path d="M146.332 244.703C146.332 244.703 144.57 243.63 143.793 244.511C143.008 245.391 142.423 250.082 142.624 250.57C142.816 251.058 144.385 249.889 144.674 249.401C144.962 248.905 146.332 244.703 146.332 244.703Z" fill="white" stroke="#002E47" stroke-miterlimit="10" stroke-linecap="round" stroke-linejoin="round"/>
<path d="M98.0716 98.5055C98.0716 116.475 83.5048 131.041 65.5358 131.041C47.5668 131.041 33 116.475 33 98.5055C33 80.5365 47.5668 65.9697 65.5358 65.9697C83.5048 65.9697 98.0716 80.5365 98.0716 98.5055Z" fill="white"/>
<path d="M65.5076 89.5734C68.1313 89.5734 70.2582 87.4562 70.2582 84.8446C70.2582 82.2329 68.1313 80.1158 65.5076 80.1158C62.884 80.1158 60.7571 82.2329 60.7571 84.8446C60.7571 87.4562 62.884 89.5734 65.5076 89.5734Z" fill="#39B4EF"/>
<path d="M65.5076 103.234C68.1313 103.234 70.2582 101.117 70.2582 98.5056C70.2582 95.8939 68.1313 93.7768 65.5076 93.7768C62.884 93.7768 60.7571 95.8939 60.7571 98.5056C60.7571 101.117 62.884 103.234 65.5076 103.234Z" fill="#39B4EF"/>
<path d="M65.5076 116.895C68.1313 116.895 70.2582 114.778 70.2582 112.167C70.2582 109.555 68.1313 107.438 65.5076 107.438C62.884 107.438 60.7571 109.555 60.7571 112.167C60.7571 114.778 62.884 116.895 65.5076 116.895Z" fill="#39B4EF"/>
<path d="M52.8395 103.234C55.4632 103.234 57.5901 101.117 57.5901 98.5056C57.5901 95.8939 55.4632 93.7768 52.8395 93.7768C50.2159 93.7768 48.089 95.8939 48.089 98.5056C48.089 101.117 50.2159 103.234 52.8395 103.234Z" fill="#39B4EF"/>
<path d="M79.2315 103.234C81.8551 103.234 83.982 101.117 83.982 98.5056C83.982 95.8939 81.8551 93.7768 79.2315 93.7768C76.6078 93.7768 74.4809 95.8939 74.4809 98.5056C74.4809 101.117 76.6078 103.234 79.2315 103.234Z" fill="#39B4EF"/>
<path d="M65.5358 132.041C84.0571 132.041 99.0716 117.027 99.0716 98.5055C99.0716 79.9842 84.0571 64.9697 65.5358 64.9697C47.0145 64.9697 32 79.9842 32 98.5055C32 117.027 47.0145 132.041 65.5358 132.041Z" stroke="#002E47" stroke-width="2"/>
</g>
<defs>
<clipPath id="clip0_95_28424">
<rect width="563" height="385" fill="white" transform="translate(0 0.0556641)"/>
</clipPath>
</defs>
</svg>
