<svg width="608" height="378" viewBox="0 0 608 378" fill="none" xmlns="http://www.w3.org/2000/svg">
<g clip-path="url(#clip0_266_56327)">
<path d="M564.485 124.566C554.217 102.565 540.496 82.1874 524.818 64.8839C521.751 61.4984 518.582 58.2046 515.294 55.0393C477.813 18.8633 424.461 -1.89921 372.763 4.68827C337.486 9.1839 304.579 25.781 276.438 47.5069C258.455 61.3883 241.464 77.8019 219.808 84.6646C192.338 93.3715 162.709 85.1601 133.898 85.0224C89.3358 84.8206 44.2134 106.216 19.7648 143.438C-2.36931 177.128 -5.92363 222.222 10.6356 258.967C27.1949 295.712 63.3535 322.933 103.278 328.713C128.415 332.356 154.067 327.998 179.388 330.025C216.355 332.989 250.695 349.301 285.999 360.641C350.271 381.285 422.615 384.982 483.737 356.338C534.03 332.768 574.909 283.931 582.523 228.13C587.326 192.807 579.419 156.576 564.485 124.566Z" fill="#39B4EF"/>
<path opacity="0.7" d="M564.485 124.566C554.217 102.565 540.496 82.1874 524.818 64.8839C521.751 61.4984 518.582 58.2046 515.294 55.0393C477.813 18.8633 424.461 -1.89921 372.763 4.68827C337.486 9.1839 304.579 25.781 276.438 47.5069C258.455 61.3883 241.464 77.8019 219.808 84.6646C192.338 93.3715 162.709 85.1601 133.898 85.0224C89.3358 84.8206 44.2134 106.216 19.7648 143.438C-2.36931 177.128 -5.92363 222.222 10.6356 258.967C27.1949 295.712 63.3535 322.933 103.278 328.713C128.415 332.356 154.067 327.998 179.388 330.025C216.355 332.989 250.695 349.301 285.999 360.641C350.271 381.285 422.615 384.982 483.737 356.338C534.03 332.768 574.909 283.931 582.523 228.13C587.326 192.807 579.419 156.576 564.485 124.566Z" fill="white"/>
<path d="M417.885 361.073H608" stroke="#002E47" stroke-miterlimit="10"/>
<path d="M55.106 361.073H409.62" stroke="#002E47" stroke-miterlimit="10"/>
<path d="M38.9873 361.073H46.8399" stroke="#002E47" stroke-miterlimit="10"/>
<path d="M554.979 199.101L567.764 321.52" stroke="#002E47" stroke-width="2" stroke-miterlimit="10"/>
<path d="M565.706 298.088L559.902 291.977" stroke="#002E47" stroke-width="2" stroke-miterlimit="10"/>
<path d="M561.665 293.803C561.665 293.803 561.831 291.097 559.36 288.895C557.872 287.564 550.038 284.28 549.294 287.032C548.486 290.032 556.504 295.913 561.665 293.803Z" fill="#39B4EF" stroke="#002E47" stroke-miterlimit="10"/>
<path d="M561.665 293.803L554.208 289.17" stroke="#002E47" stroke-width="0.5" stroke-miterlimit="10"/>
<path d="M567.157 312.015L561.362 305.896" stroke="#002E47" stroke-width="2" stroke-miterlimit="10"/>
<path d="M563.116 307.731C563.116 307.731 563.282 305.024 560.811 302.822C559.323 301.492 551.489 298.207 550.745 300.96C549.946 303.951 557.955 309.832 563.116 307.731Z" fill="#39B4EF" stroke="#002E47" stroke-miterlimit="10"/>
<path d="M563.116 307.73L555.668 303.088" stroke="#002E47" stroke-width="0.5" stroke-miterlimit="10"/>
<path d="M562.152 264.123L556.357 258.003" stroke="#002E47" stroke-width="2" stroke-miterlimit="10"/>
<path d="M558.12 259.838C558.12 259.838 558.286 257.132 555.815 254.93C554.327 253.599 546.493 250.315 545.749 253.067C544.941 256.058 552.959 261.939 558.12 259.838Z" fill="#39B4EF" stroke="#002E47" stroke-miterlimit="10"/>
<path d="M558.12 259.838L550.663 255.196" stroke="#002E47" stroke-width="0.5" stroke-miterlimit="10"/>
<path d="M563.613 278.041L557.808 271.921" stroke="#002E47" stroke-width="2" stroke-miterlimit="10"/>
<path d="M559.572 273.756C559.572 273.756 559.737 271.05 557.266 268.848C555.778 267.518 547.944 264.233 547.2 266.985C546.392 269.976 554.41 275.867 559.572 273.756Z" fill="#39B4EF" stroke="#002E47" stroke-miterlimit="10"/>
<path d="M559.571 273.756L552.114 269.114" stroke="#002E47" stroke-width="0.5" stroke-miterlimit="10"/>
<path d="M559.791 241.507L553.996 235.388" stroke="#002E47" stroke-width="2" stroke-miterlimit="10"/>
<path d="M555.75 237.223C555.75 237.223 555.916 234.516 553.445 232.314C551.957 230.984 544.123 227.699 543.379 230.452C542.58 233.443 550.589 239.324 555.75 237.223Z" fill="#39B4EF" stroke="#002E47" stroke-miterlimit="10"/>
<path d="M555.75 237.223L548.302 232.58" stroke="#002E47" stroke-width="0.5" stroke-miterlimit="10"/>
<path d="M557.422 218.79L551.618 212.671" stroke="#002E47" stroke-width="2" stroke-miterlimit="10"/>
<path d="M553.381 214.506C553.381 214.506 553.546 211.799 551.076 209.597C549.588 208.267 541.754 204.982 541.01 207.735C540.202 210.726 548.22 216.616 553.381 214.506Z" fill="#39B4EF" stroke="#002E47" stroke-miterlimit="10"/>
<path d="M553.381 214.506L545.923 209.863" stroke="#002E47" stroke-width="0.5" stroke-miterlimit="10"/>
<path d="M564.724 289.858L569.132 282.674" stroke="#002E47" stroke-width="2" stroke-miterlimit="10"/>
<path d="M567.791 284.83C567.791 284.83 567.066 282.216 569.031 279.546C570.216 277.94 577.196 273.105 578.491 275.646C579.905 278.417 573.274 285.83 567.791 284.83Z" fill="#39B4EF" stroke="#002E47" stroke-miterlimit="10"/>
<path d="M567.791 284.83L574.505 278.417" stroke="#002E47" stroke-width="0.5" stroke-miterlimit="10"/>
<path d="M560.903 253.214L565.311 246.04" stroke="#002E47" stroke-width="2" stroke-miterlimit="10"/>
<path d="M563.961 248.196C563.961 248.196 563.236 245.581 565.201 242.911C566.386 241.305 573.366 236.47 574.661 239.012C576.076 241.782 569.454 249.186 563.961 248.196Z" fill="#39B4EF" stroke="#002E47" stroke-miterlimit="10"/>
<path d="M563.961 248.195L570.675 241.782" stroke="#002E47" stroke-width="0.5" stroke-miterlimit="10"/>
<path d="M559.222 237.122L563.631 229.938" stroke="#002E47" stroke-width="2" stroke-miterlimit="10"/>
<path d="M562.28 232.094C562.28 232.094 561.555 229.479 563.52 226.809C564.705 225.204 571.685 220.369 572.98 222.91C574.394 225.681 567.772 233.094 562.28 232.094Z" fill="#39B4EF" stroke="#002E47" stroke-miterlimit="10"/>
<path d="M562.28 232.094L568.994 225.681" stroke="#002E47" stroke-width="0.5" stroke-miterlimit="10"/>
<path d="M556.751 213.515L561.16 206.331" stroke="#002E47" stroke-width="2" stroke-miterlimit="10"/>
<path d="M559.819 208.487C559.819 208.487 559.093 205.872 561.059 203.203C562.244 201.597 569.224 196.762 570.519 199.303C571.933 202.074 565.302 209.487 559.819 208.487Z" fill="#39B4EF" stroke="#002E47" stroke-miterlimit="10"/>
<path d="M559.819 208.487L566.533 202.083" stroke="#002E47" stroke-width="0.5" stroke-miterlimit="10"/>
<path d="M554.869 198.423C554.869 198.423 554.143 195.808 556.109 193.138C557.293 191.532 564.273 186.697 565.568 189.239C566.983 192.009 560.352 199.423 554.869 198.423Z" fill="#39B4EF" stroke="#002E47" stroke-miterlimit="10"/>
<path d="M554.869 198.423L561.582 192.019" stroke="#002E47" stroke-width="0.5" stroke-miterlimit="10"/>
<path d="M555.254 198.698C555.254 198.698 552.573 199.138 550.13 196.909C548.651 195.569 544.573 188.119 547.237 187.101C550.139 185.991 556.825 193.358 555.254 198.698Z" fill="#39B4EF" stroke="#002E47" stroke-miterlimit="10"/>
<path d="M555.254 198.698L549.579 191.358" stroke="#002E47" stroke-width="0.5" stroke-miterlimit="10"/>
<path d="M588.704 215.965L575.993 338.383" stroke="#002E47" stroke-width="2" stroke-miterlimit="10"/>
<path d="M578.803 315.034L574.386 307.859" stroke="#002E47" stroke-width="2" stroke-miterlimit="10"/>
<path d="M575.736 310.015C575.736 310.015 576.452 307.4 574.487 304.73C573.302 303.125 566.322 298.29 565.027 300.84C563.612 303.602 570.243 311.015 575.736 310.015Z" fill="#39B4EF" stroke="#002E47" stroke-miterlimit="10"/>
<path d="M575.736 310.015L569.398 303.941" stroke="#002E47" stroke-width="0.5" stroke-miterlimit="10"/>
<path d="M582.33 281.06L577.912 273.885" stroke="#002E47" stroke-width="2" stroke-miterlimit="10"/>
<path d="M579.262 276.041C579.262 276.041 579.978 273.426 578.013 270.756C576.828 269.151 569.848 264.316 568.553 266.866C567.148 269.628 573.779 277.041 579.262 276.041Z" fill="#39B4EF" stroke="#002E47" stroke-miterlimit="10"/>
<path d="M579.262 276.041L572.925 269.967" stroke="#002E47" stroke-width="0.5" stroke-miterlimit="10"/>
<path d="M580.879 294.987L576.471 287.803" stroke="#002E47" stroke-width="2" stroke-miterlimit="10"/>
<path d="M577.821 289.959C577.821 289.959 578.537 287.344 576.572 284.674C575.387 283.069 568.407 278.234 567.112 280.784C565.697 283.555 572.328 290.959 577.821 289.959Z" fill="#39B4EF" stroke="#002E47" stroke-miterlimit="10"/>
<path d="M577.82 289.959L571.474 283.885" stroke="#002E47" stroke-width="0.5" stroke-miterlimit="10"/>
<path d="M584.681 258.444L580.264 251.269" stroke="#002E47" stroke-width="2" stroke-miterlimit="10"/>
<path d="M581.614 253.425C581.614 253.425 582.33 250.81 580.364 248.141C579.18 246.535 572.2 241.7 570.905 244.25C569.49 247.012 576.121 254.425 581.614 253.425Z" fill="#39B4EF" stroke="#002E47" stroke-miterlimit="10"/>
<path d="M581.614 253.425L575.276 247.342" stroke="#002E47" stroke-width="0.5" stroke-miterlimit="10"/>
<path d="M587.042 235.727L582.624 228.552" stroke="#002E47" stroke-width="2" stroke-miterlimit="10"/>
<path d="M583.974 230.708C583.974 230.708 584.69 228.094 582.725 225.424C581.54 223.818 574.56 218.983 573.265 221.534C571.851 224.295 578.482 231.709 583.974 230.708Z" fill="#39B4EF" stroke="#002E47" stroke-miterlimit="10"/>
<path d="M583.974 230.708L577.627 224.635" stroke="#002E47" stroke-width="0.5" stroke-miterlimit="10"/>
<path d="M579.547 306.776L585.342 300.657" stroke="#002E47" stroke-width="2" stroke-miterlimit="10"/>
<path d="M583.579 302.492C583.579 302.492 583.414 299.785 585.884 297.574C587.372 296.244 595.197 292.95 595.95 295.702C596.758 298.703 588.741 304.593 583.579 302.492Z" fill="#39B4EF" stroke="#002E47" stroke-miterlimit="10"/>
<path d="M583.579 302.492L591.468 297.592" stroke="#002E47" stroke-width="0.5" stroke-miterlimit="10"/>
<path d="M583.349 270.132L589.144 264.013" stroke="#002E47" stroke-width="2" stroke-miterlimit="10"/>
<path d="M587.381 265.848C587.381 265.848 587.216 263.141 589.686 260.93C591.174 259.6 598.999 256.306 599.752 259.058C600.561 262.059 592.552 267.949 587.381 265.848Z" fill="#39B4EF" stroke="#002E47" stroke-miterlimit="10"/>
<path d="M587.381 265.848L595.27 260.958" stroke="#002E47" stroke-width="0.5" stroke-miterlimit="10"/>
<path d="M585.021 254.04L590.816 247.911" stroke="#002E47" stroke-width="2" stroke-miterlimit="10"/>
<path d="M589.053 249.746C589.053 249.746 588.888 247.04 591.358 244.828C592.846 243.498 600.671 240.204 601.424 242.957C602.233 245.966 594.224 251.856 589.053 249.746Z" fill="#39B4EF" stroke="#002E47" stroke-miterlimit="10"/>
<path d="M589.053 249.746L596.951 244.856" stroke="#002E47" stroke-width="0.5" stroke-miterlimit="10"/>
<path d="M587.473 230.433L593.268 224.314" stroke="#002E47" stroke-width="2" stroke-miterlimit="10"/>
<path d="M591.505 226.149C591.505 226.149 591.34 223.442 593.81 221.231C595.298 219.901 603.123 216.607 603.877 219.359C604.685 222.359 596.676 228.25 591.505 226.149Z" fill="#39B4EF" stroke="#002E47" stroke-miterlimit="10"/>
<path d="M591.505 226.149L599.404 221.249" stroke="#002E47" stroke-width="0.5" stroke-miterlimit="10"/>
<path d="M588.741 215.277C588.741 215.277 588.575 212.57 591.046 210.359C592.534 209.029 600.359 205.735 601.112 208.487C601.92 211.487 593.902 217.378 588.741 215.277Z" fill="#39B4EF" stroke="#002E47" stroke-miterlimit="10"/>
<path d="M588.741 215.277L596.63 210.386" stroke="#002E47" stroke-width="0.5" stroke-miterlimit="10"/>
<path d="M589.062 215.625C589.062 215.625 586.353 215.506 584.415 212.818C583.249 211.203 580.787 203.074 583.607 202.625C586.674 202.138 591.698 210.717 589.062 215.625Z" fill="#39B4EF" stroke="#002E47" stroke-miterlimit="10"/>
<path d="M589.062 215.625L585.021 207.276" stroke="#002E47" stroke-width="0.5" stroke-miterlimit="10"/>
<path d="M574.128 166.118V320.924" stroke="#002E47" stroke-width="2" stroke-miterlimit="10"/>
<path d="M574.257 297.648L569.123 290.959" stroke="#002E47" stroke-width="2" stroke-miterlimit="10"/>
<path d="M570.684 292.968C570.684 292.968 571.134 290.299 568.903 287.84C567.562 286.363 560.113 282.28 559.085 284.94C557.973 287.84 565.33 294.528 570.684 292.968Z" fill="#39B4EF" stroke="#002E47" stroke-miterlimit="10"/>
<path d="M570.685 292.968L563.75 287.574" stroke="#002E47" stroke-width="0.5" stroke-miterlimit="10"/>
<path d="M574.257 268.554L569.123 261.866" stroke="#002E47" stroke-width="2" stroke-miterlimit="10"/>
<path d="M570.684 263.875C570.684 263.875 571.134 261.205 568.903 258.747C567.562 257.269 560.113 253.187 559.085 255.847C557.973 258.747 565.33 265.435 570.684 263.875Z" fill="#39B4EF" stroke="#002E47" stroke-miterlimit="10"/>
<path d="M570.685 263.875L563.75 258.48" stroke="#002E47" stroke-width="0.5" stroke-miterlimit="10"/>
<path d="M574.257 234.397L569.123 227.708" stroke="#002E47" stroke-width="2" stroke-miterlimit="10"/>
<path d="M570.684 229.718C570.684 229.718 571.134 227.048 568.903 224.589C567.562 223.112 560.113 219.029 559.085 221.69C557.973 224.589 565.33 231.277 570.684 229.718Z" fill="#39B4EF" stroke="#002E47" stroke-miterlimit="10"/>
<path d="M570.685 229.718L563.75 224.323" stroke="#002E47" stroke-width="0.5" stroke-miterlimit="10"/>
<path d="M574.257 211.662L569.123 204.973" stroke="#002E47" stroke-width="2" stroke-miterlimit="10"/>
<path d="M570.684 206.983C570.684 206.983 571.134 204.313 568.903 201.854C567.562 200.377 560.113 196.294 559.085 198.955C557.973 201.854 565.33 208.542 570.684 206.983Z" fill="#39B4EF" stroke="#002E47" stroke-miterlimit="10"/>
<path d="M570.685 206.983L563.75 201.588" stroke="#002E47" stroke-width="0.5" stroke-miterlimit="10"/>
<path d="M574.257 188.826L569.123 182.137" stroke="#002E47" stroke-width="2" stroke-miterlimit="10"/>
<path d="M570.684 184.137C570.684 184.137 571.134 181.468 568.903 179.009C567.562 177.532 560.113 173.449 559.085 176.11C557.973 179.018 565.33 185.697 570.684 184.137Z" fill="#39B4EF" stroke="#002E47" stroke-miterlimit="10"/>
<path d="M570.685 184.137L563.75 178.752" stroke="#002E47" stroke-width="0.5" stroke-miterlimit="10"/>
<path d="M574.147 306.529L579.272 299.84" stroke="#002E47" stroke-width="2" stroke-miterlimit="10"/>
<path d="M577.711 301.849C577.711 301.849 577.26 299.18 579.492 296.721C580.833 295.244 588.282 291.161 589.31 293.822C590.431 296.721 583.065 303.409 577.711 301.849Z" fill="#39B4EF" stroke="#002E47" stroke-miterlimit="10"/>
<path d="M577.71 301.849L585.058 296.17" stroke="#002E47" stroke-width="0.5" stroke-miterlimit="10"/>
<path d="M574.147 260.26L579.272 253.572" stroke="#002E47" stroke-width="2" stroke-miterlimit="10"/>
<path d="M577.711 255.581C577.711 255.581 577.26 252.911 579.492 250.453C580.833 248.975 588.282 244.893 589.31 247.553C590.431 250.453 583.065 257.141 577.711 255.581Z" fill="#39B4EF" stroke="#002E47" stroke-miterlimit="10"/>
<path d="M577.71 255.581L585.058 249.902" stroke="#002E47" stroke-width="0.5" stroke-miterlimit="10"/>
<path d="M574.147 237.424L579.272 230.736" stroke="#002E47" stroke-width="2" stroke-miterlimit="10"/>
<path d="M577.711 232.745C577.711 232.745 577.26 230.075 579.492 227.617C580.833 226.139 588.282 222.057 589.31 224.717C590.431 227.617 583.065 234.305 577.711 232.745Z" fill="#39B4EF" stroke="#002E47" stroke-miterlimit="10"/>
<path d="M577.71 232.745L585.058 227.066" stroke="#002E47" stroke-width="0.5" stroke-miterlimit="10"/>
<path d="M574.147 207.239L579.272 200.551" stroke="#002E47" stroke-width="2" stroke-miterlimit="10"/>
<path d="M577.711 202.56C577.711 202.56 577.26 199.89 579.492 197.432C580.833 195.954 588.282 191.872 589.31 194.532C590.431 197.432 583.065 204.12 577.711 202.56Z" fill="#39B4EF" stroke="#002E47" stroke-miterlimit="10"/>
<path d="M577.71 202.56L585.058 196.881" stroke="#002E47" stroke-width="0.5" stroke-miterlimit="10"/>
<path d="M574.147 183.504L579.272 176.825" stroke="#002E47" stroke-width="2" stroke-miterlimit="10"/>
<path d="M577.711 178.825C577.711 178.825 577.26 176.155 579.492 173.696C580.833 172.219 588.282 168.137 589.31 170.797C590.431 173.706 583.065 180.385 577.711 178.825Z" fill="#39B4EF" stroke="#002E47" stroke-miterlimit="10"/>
<path d="M577.71 178.825L585.058 173.146" stroke="#002E47" stroke-width="0.5" stroke-miterlimit="10"/>
<path d="M573.835 168.302C573.835 168.302 573.385 165.632 575.616 163.173C576.957 161.696 584.406 157.613 585.434 160.274C586.555 163.173 579.189 169.861 573.835 168.302Z" fill="#39B4EF" stroke="#002E47" stroke-miterlimit="10"/>
<path d="M573.834 168.302L581.182 162.623" stroke="#002E47" stroke-width="0.5" stroke-miterlimit="10"/>
<path d="M574.193 168.614C574.193 168.614 571.483 168.779 569.279 166.302C567.947 164.815 564.669 156.989 567.424 156.246C570.427 155.448 576.305 163.467 574.193 168.614Z" fill="#39B4EF" stroke="#002E47" stroke-miterlimit="10"/>
<path d="M574.193 168.614L569.307 160.723" stroke="#002E47" stroke-width="0.5" stroke-miterlimit="10"/>
<path d="M580.512 361.073H564.099L562.042 319.667H582.56L580.512 361.073Z" fill="#002E47" stroke="#002E47" stroke-miterlimit="10"/>
<path d="M233.134 37.2312H224.427V41.3874H233.134V37.2312Z" stroke="#002E47" stroke-miterlimit="10"/>
<path d="M243.356 37.2312H234.649V41.3874H243.356V37.2312Z" stroke="#002E47" stroke-miterlimit="10"/>
<path d="M253.578 37.2312H244.872V41.3874H253.578V37.2312Z" stroke="#002E47" stroke-miterlimit="10"/>
<path d="M263.8 37.2312H255.094V41.3874H263.8V37.2312Z" stroke="#002E47" stroke-miterlimit="10"/>
<path d="M274.013 37.2312H265.307V41.3874H274.013V37.2312Z" stroke="#002E47" stroke-miterlimit="10"/>
<path d="M284.236 37.2312H275.529V41.3874H284.236V37.2312Z" stroke="#002E47" stroke-miterlimit="10"/>
<path d="M294.458 37.2312H285.751V41.3874H294.458V37.2312Z" stroke="#002E47" stroke-miterlimit="10"/>
<path d="M304.671 37.2312H295.964V41.3874H304.671V37.2312Z" stroke="#002E47" stroke-miterlimit="10"/>
<path d="M233.134 44.0388H224.427V48.195H233.134V44.0388Z" stroke="#002E47" stroke-miterlimit="10"/>
<path d="M243.356 44.0388H234.649V48.195H243.356V44.0388Z" stroke="#002E47" stroke-miterlimit="10"/>
<path d="M253.578 44.0388H244.872V48.195H253.578V44.0388Z" stroke="#002E47" stroke-miterlimit="10"/>
<path d="M263.8 44.0388H255.094V48.195H263.8V44.0388Z" stroke="#002E47" stroke-miterlimit="10"/>
<path d="M274.013 44.0388H265.307V48.195H274.013V44.0388Z" stroke="#002E47" stroke-miterlimit="10"/>
<path d="M284.236 44.0388H275.529V48.195H284.236V44.0388Z" stroke="#002E47" stroke-miterlimit="10"/>
<path d="M294.458 44.0388H285.751V48.195H294.458V44.0388Z" stroke="#002E47" stroke-miterlimit="10"/>
<path d="M304.671 44.0388H295.964V48.195H304.671V44.0388Z" stroke="#002E47" stroke-miterlimit="10"/>
<path d="M233.134 50.8466H224.427V55.0027H233.134V50.8466Z" stroke="#002E47" stroke-miterlimit="10"/>
<path d="M243.356 50.8466H234.649V55.0027H243.356V50.8466Z" stroke="#002E47" stroke-miterlimit="10"/>
<path d="M253.578 50.8466H244.872V55.0027H253.578V50.8466Z" stroke="#002E47" stroke-miterlimit="10"/>
<path d="M263.8 50.8466H255.094V55.0027H263.8V50.8466Z" stroke="#002E47" stroke-miterlimit="10"/>
<path d="M274.013 50.8466H265.307V55.0027H274.013V50.8466Z" stroke="#002E47" stroke-miterlimit="10"/>
<path d="M284.236 50.8466H275.529V55.0027H284.236V50.8466Z" stroke="#002E47" stroke-miterlimit="10"/>
<path d="M294.458 50.8466H285.751V55.0027H294.458V50.8466Z" stroke="#002E47" stroke-miterlimit="10"/>
<path d="M304.671 50.8466H295.964V55.0027H304.671V50.8466Z" stroke="#002E47" stroke-miterlimit="10"/>
<path d="M233.134 57.6542H224.427V61.8103H233.134V57.6542Z" stroke="#002E47" stroke-miterlimit="10"/>
<path d="M243.356 57.6542H234.649V61.8103H243.356V57.6542Z" stroke="#002E47" stroke-miterlimit="10"/>
<path d="M273.26 57.6542H244.872V61.8103H273.26V57.6542Z" stroke="#002E47" stroke-miterlimit="10"/>
<path d="M284.236 57.6542H275.529V61.8103H284.236V57.6542Z" stroke="#002E47" stroke-miterlimit="10"/>
<path d="M294.458 57.6542H285.751V61.8103H294.458V57.6542Z" stroke="#002E47" stroke-miterlimit="10"/>
<path d="M304.671 57.6542H295.964V61.8103H304.671V57.6542Z" stroke="#002E47" stroke-miterlimit="10"/>
<path d="M314.498 107.794C314.498 107.794 338.138 74.7376 374.232 55.8468" stroke="#002E47" stroke-miterlimit="10"/>
<path d="M349.306 72.1595L351.024 45.9656" stroke="#002E47" stroke-miterlimit="10"/>
<path d="M340.719 79.7562L365.718 82.0316" stroke="#002E47" stroke-miterlimit="10"/>
<path d="M349.811 58.7644C349.811 58.7644 343.85 55.6449 344.126 45.9931C344.411 36.3504 350.941 30.1024 350.941 30.1024C350.941 30.1024 355.772 36.6257 356.341 45.4243C356.91 54.2229 349.811 58.7644 349.811 58.7644Z" stroke="#002E47" stroke-miterlimit="10"/>
<path d="M329.927 78.0589C329.927 78.0589 323.967 74.9395 324.242 65.2877C324.527 55.645 331.057 49.397 331.057 49.397C331.057 49.397 335.888 55.9202 336.457 64.7188C337.027 73.5174 329.927 78.0589 329.927 78.0589Z" stroke="#002E47" stroke-miterlimit="10"/>
<path d="M354.917 80.8939C354.917 80.8939 358.61 76.068 365.709 76.068C372.808 76.068 379.908 85.7107 379.908 85.7107C379.908 85.7107 373.093 88.5457 364.57 87.9768C356.056 87.4172 354.917 80.8939 354.917 80.8939Z" stroke="#002E47" stroke-miterlimit="10"/>
<path d="M363.441 62.737C363.441 62.737 360.603 53.9384 369.686 50.2502C378.769 46.5619 386.163 49.9658 386.163 49.9658C386.163 49.9658 386.163 59.3332 377.924 63.0214C369.686 66.7097 363.441 62.737 363.441 62.737Z" stroke="#002E47" stroke-miterlimit="10"/>
<path d="M330.781 88.8392L330.212 66.9941" stroke="#002E47" stroke-miterlimit="10"/>
<path d="M528.914 49.4703H484.949V77.1414H509.857L509.039 89.7751L518.811 77.1414H528.914V49.4703Z" stroke="#002E47" stroke-miterlimit="10"/>
<path d="M552.472 81.3527H522.292V100.354H539.384L538.824 109.024L545.537 100.354H552.472V81.3527Z" stroke="#002E47" stroke-miterlimit="10"/>
<path d="M500.295 63.3058C500.295 64.6362 499.221 65.7096 497.889 65.7096C496.557 65.7096 495.483 64.6362 495.483 63.3058C495.483 61.9755 496.557 60.902 497.889 60.902C499.212 60.8929 500.295 61.9755 500.295 63.3058Z" stroke="#002E47" stroke-miterlimit="10"/>
<path d="M510.527 63.3058C510.527 64.6362 509.452 65.7096 508.121 65.7096C506.789 65.7096 505.714 64.6362 505.714 63.3058C505.714 61.9755 506.789 60.902 508.121 60.902C509.452 60.8929 510.527 61.9755 510.527 63.3058Z" stroke="#002E47" stroke-miterlimit="10"/>
<path d="M520.767 63.3058C520.767 64.6361 519.693 65.7096 518.361 65.7096C517.029 65.7096 515.955 64.6361 515.955 63.3058C515.955 61.9754 517.029 60.902 518.361 60.902C519.693 60.902 520.767 61.9754 520.767 63.3058Z" stroke="#002E47" stroke-miterlimit="10"/>
<path d="M45.5356 130.208H78.8195V151.154H59.9642L60.5795 160.714L53.1862 151.154H45.5356V130.208Z" stroke="#002E47" stroke-miterlimit="10"/>
<path d="M27.6997 154.338H50.5502V168.724H37.6096L38.032 175.293L32.9531 168.724H27.6997V154.338Z" stroke="#002E47" stroke-miterlimit="10"/>
<path d="M69.0289 142.502C70.0382 142.502 70.8565 141.685 70.8565 140.677C70.8565 139.668 70.0382 138.851 69.0289 138.851C68.0195 138.851 67.2012 139.668 67.2012 140.677C67.2012 141.685 68.0195 142.502 69.0289 142.502Z" stroke="#002E47" stroke-miterlimit="10"/>
<path d="M61.2774 142.502C62.2868 142.502 63.1051 141.685 63.1051 140.677C63.1051 139.668 62.2868 138.851 61.2774 138.851C60.268 138.851 59.4497 139.668 59.4497 140.677C59.4497 141.685 60.268 142.502 61.2774 142.502Z" stroke="#002E47" stroke-miterlimit="10"/>
<path d="M53.5259 142.502C54.5353 142.502 55.3536 141.685 55.3536 140.677C55.3536 139.668 54.5353 138.851 53.5259 138.851C52.5165 138.851 51.6982 139.668 51.6982 140.677C51.6982 141.685 52.5165 142.502 53.5259 142.502Z" stroke="#002E47" stroke-miterlimit="10"/>
<path d="M86.9015 68.2602C86.7729 67.8657 86.6994 67.4345 86.6994 66.8381C86.6994 61.7828 90.667 61.3241 90.667 55.5715C90.667 53.9201 90.0058 53.2962 88.8485 53.2962C87.6913 53.2962 87.03 53.9201 87.03 55.5715V58.0854H83.5859V55.8101C83.5859 52.1127 85.4044 49.9933 88.9404 49.9933C92.4763 49.9933 94.2948 52.1035 94.2948 55.8101C94.2948 61.8196 89.9966 62.7462 89.9966 66.9758C89.9966 67.407 90.0333 67.8382 90.1251 68.2602H86.9015ZM90.2354 69.8842V73.3889H86.727V69.8842H90.2354Z" stroke="#002E47" stroke-miterlimit="10"/>
<path d="M206.683 314.419C206.555 314.025 206.481 313.593 206.481 312.997C206.481 307.942 210.449 307.483 210.449 301.73C210.449 300.079 209.788 299.455 208.63 299.455C207.473 299.455 206.812 300.079 206.812 301.73V304.244H203.368V301.969C203.368 298.271 205.186 296.152 208.722 296.152C212.258 296.152 214.077 298.262 214.077 301.969C214.077 307.978 209.778 308.905 209.778 313.135C209.778 313.566 209.815 313.997 209.907 314.419H206.683ZM210.026 316.043V319.548H206.518V316.043H210.026Z" stroke="#002E47" stroke-miterlimit="10"/>
<path d="M168.357 213.478H222.196V251.352H168.357V360.797H126.651V95.6927H236.973V133.566H168.357V213.478Z" fill="#39B4EF" stroke="#002E47" stroke-miterlimit="10"/>
<path d="M232.381 105.95V128.979H163.765V218.066H196.829" stroke="#002E47" stroke-miterlimit="10"/>
<path d="M131.244 140.988V100.28H232.381V103.987" stroke="#002E47" stroke-miterlimit="10"/>
<path d="M131.244 336.246V146.108" stroke="#002E47" stroke-miterlimit="10"/>
<path d="M163.765 274.05V356.21H131.244V341.76" stroke="#002E47" stroke-miterlimit="10"/>
<path d="M163.765 260.27V268.141" stroke="#002E47" stroke-miterlimit="10"/>
<path d="M202.348 218.066H217.594V246.764H163.765V256.728" stroke="#002E47" stroke-miterlimit="10"/>
<path d="M387.109 360.797H345.026L337.826 312.703H286.642L279.441 360.797H241.152L283.611 95.6927H344.65L387.109 360.797ZM291.95 276.72H332.141L312.045 142.658L291.95 276.72Z" fill="#39B4EF" stroke="#002E47" stroke-miterlimit="10"/>
<path d="M250.63 330.64L272.562 193.688M345.531 333.19L341.775 308.107H282.683L275.483 356.201H246.534L249.794 335.869M377.042 326.97L381.726 356.21H348.984L346.119 337.099M352.86 176.027L376.253 322.052M273.627 187.037L287.523 100.28H340.728L351.538 167.779M333.187 252.058L316.647 139.016H307.563L286.614 281.307H337.458L334.161 258.774" stroke="#002E47" stroke-miterlimit="10"/>
<path d="M402.658 159.32C402.658 116.905 425.021 92.665 465.965 92.665C506.909 92.665 529.272 116.905 529.272 159.32V297.17C529.272 311.942 526.618 324.438 521.31 334.282C523.201 339.209 526.241 339.961 533.065 339.961H536.859V377.083H531.173C512.594 377.083 500.847 370.266 495.162 358.907C486.823 361.935 476.968 363.834 465.974 363.834C425.031 363.834 402.667 339.594 402.667 297.18V159.32H402.658ZM444.354 299.822C444.354 318.759 452.694 325.952 465.965 325.952C479.236 325.952 487.576 318.759 487.576 299.822V156.668C487.576 137.731 479.236 130.538 465.965 130.538C452.694 130.538 444.354 137.731 444.354 156.668V299.822Z" fill="#39B4EF" stroke="#002E47" stroke-miterlimit="10"/>
<path d="M510.004 367.954C505.265 365.357 501.674 361.651 499.267 356.852L497.44 353.191L493.591 354.586C485.105 357.669 475.811 359.238 465.965 359.238C446.981 359.238 432.296 353.861 422.303 343.255C420.815 341.677 419.438 339.989 418.161 338.191M521.622 321.309C520.483 325.236 519.032 328.842 517.278 332.117L516.277 333.97L517.03 335.934C519.969 343.576 525.865 344.494 532.267 344.549V372.495H531.174C525.14 372.495 519.849 371.743 515.322 370.247M524.689 174.054V297.17C524.689 304.051 524.093 310.382 522.908 316.116M407.645 149.971C409.013 134.447 413.927 122.107 422.303 113.226C432.296 102.62 446.99 97.2433 465.965 97.2433C484.94 97.2433 499.635 102.62 509.627 113.226C519.62 123.823 524.68 139.328 524.68 159.311V168.146M414.386 331.906C409.647 322.539 407.25 310.914 407.25 297.18V159.32C407.25 158.044 407.268 156.778 407.314 155.54M439.762 297.666V299.822C439.762 325.209 454.007 330.539 465.965 330.539C477.914 330.539 492.168 325.209 492.168 299.822V172.485M439.762 196.101V292.546M492.168 166.182V156.668C492.168 131.282 477.923 125.951 465.965 125.951C454.016 125.951 439.762 131.282 439.762 156.668V189.018" stroke="#002E47" stroke-miterlimit="10"/>
<path d="M475.305 171.586C475.305 171.586 482.349 172.99 486.583 176.412C490.808 179.834 493.628 188.073 491.616 193.303C489.605 198.533 489.063 198.193 491.479 201.212C493.894 204.23 491.883 209.46 491.883 209.46L476.38 204.634C476.38 204.634 476.517 198.936 477.326 193.505C478.134 188.073 477.73 178.018 475.314 175.201V171.586H475.305Z" fill="#002E47" stroke="#002E47" stroke-miterlimit="10" stroke-linecap="round" stroke-linejoin="round"/>
<path d="M453.428 300.969L456.046 315.043C456.046 315.043 455.44 323.887 457.653 332.135C459.866 340.384 461.474 358.88 461.474 358.88C461.474 358.88 458.048 361.696 454.429 364.109C450.802 366.522 448.588 368.733 453.621 368.733C458.654 368.733 461.272 367.33 464.293 366.119C467.315 364.908 469.73 364.311 469.73 362.697C469.73 361.091 468.123 354.448 468.123 354.448C468.123 354.448 468.729 330.915 468.729 323.273C468.729 315.63 467.324 310.199 467.324 310.199V302.556L453.428 300.969Z" fill="white" stroke="#002E47" stroke-miterlimit="10" stroke-linecap="round" stroke-linejoin="round"/>
<path d="M464.293 366.137C467.315 364.926 469.73 364.33 469.73 362.715C469.73 362.247 469.592 361.339 469.4 360.302C467.976 361.008 466.35 361.853 465.303 362.513C463.09 363.917 460.068 365.33 458.259 365.33C457.047 365.33 455.384 364.614 454.42 364.137C450.801 366.55 448.606 368.752 453.63 368.752C458.663 368.752 461.281 367.339 464.293 366.137Z" fill="#002E47" stroke="#002E47" stroke-miterlimit="10" stroke-linecap="round" stroke-linejoin="round"/>
<path d="M465.102 305.4L465.708 314.85C465.708 314.85 464.496 326.309 465.708 334.154C466.92 341.998 466.92 356.88 466.92 359.293C466.92 361.706 465.111 364.32 461.887 367.137C461.887 367.137 459.27 370.156 460.482 371.963C461.694 373.77 470.346 370.357 470.548 368.339C470.75 366.33 472.762 361.907 472.762 360.495C472.762 359.091 472.762 355.467 472.762 354.063C472.762 352.659 478.401 333.75 477.794 326.915C477.188 320.08 477.188 310.024 477.188 310.024L477.39 302.987C477.381 302.987 468.528 305.804 465.102 305.4Z" fill="white" stroke="#002E47" stroke-miterlimit="10" stroke-linecap="round" stroke-linejoin="round"/>
<path d="M467.921 368.146C464.973 369.532 463.366 366.889 462.98 366.128C462.631 366.458 462.264 366.798 461.878 367.137C461.878 367.137 459.261 370.156 460.473 371.963C461.685 373.77 470.337 370.357 470.539 368.339C470.741 366.33 472.752 361.907 472.752 360.495V360.485C471.815 363.174 470.116 367.11 467.921 368.146Z" fill="#002E47" stroke="#002E47" stroke-miterlimit="10" stroke-linecap="round" stroke-linejoin="round"/>
<path d="M452.216 243.25C452.216 243.25 444.565 260.141 443.959 269.197C443.353 278.243 448.79 302.18 448.79 302.18C448.79 302.18 458.654 306.804 466.911 306.4C475.167 305.996 481.202 303.584 481.202 303.584C481.202 303.584 488.448 282.463 486.235 269.995C484.021 257.526 478.584 244.654 478.584 244.654L452.813 241.434L452.216 243.25Z" fill="#002E47" stroke="#002E47" stroke-miterlimit="10" stroke-linecap="round" stroke-linejoin="round"/>
<path d="M464.101 200.615C464.101 200.615 467.526 198.606 470.144 198.606C472.761 198.606 474.167 198.606 474.167 198.606C474.167 198.606 475.976 205.845 475.976 206.652C475.976 207.46 468.325 244.461 468.325 244.461L453.833 243.058C453.833 243.058 453.833 219.726 455.844 212.689C457.855 205.643 464.101 200.615 464.101 200.615Z" fill="white" stroke="#002E47" stroke-miterlimit="10" stroke-linecap="round" stroke-linejoin="round"/>
<path d="M452.758 171.788C452.758 171.788 451.353 180.238 453.162 186.064C454.971 191.899 460.004 198.129 462.025 198.331C464.036 198.533 466.249 197.12 466.249 197.12L465.506 199.799L463.898 209.249L471.145 209.854C471.145 209.854 474.166 199.193 474.166 198.588C474.166 197.982 474.102 196.514 474.102 196.514L473.294 188.468C473.294 188.468 475.709 184.449 476.315 182.835C476.922 181.22 475.507 178.614 475.507 178.614C475.507 178.614 476.958 169.926 472.082 165.54C466.038 160.109 455.577 164.935 452.96 167.549C450.342 170.183 452.758 171.788 452.758 171.788Z" fill="white" stroke="#002E47" stroke-miterlimit="10" stroke-linecap="round" stroke-linejoin="round"/>
<path d="M466.25 197.129L469.014 196.321L465.046 203.303L466.25 197.129Z" fill="#002E47" stroke="#002E47" stroke-miterlimit="10" stroke-linecap="round" stroke-linejoin="round"/>
<path d="M472.091 165.559C465.653 160.127 455.587 164.953 452.969 167.568C450.352 170.183 452.767 171.788 452.767 171.788C452.767 171.788 454.172 170.384 457.8 171.788C461.428 173.192 464.238 180.44 466.856 181.238C469.473 182.046 471.889 182.449 471.889 182.449C471.889 182.449 471.889 179.431 473.294 179.027C474.699 178.623 475.507 178.623 475.507 178.623C475.507 178.623 477.096 169.779 472.091 165.559Z" fill="#002E47" stroke="#002E47" stroke-miterlimit="10" stroke-linecap="round" stroke-linejoin="round"/>
<path d="M457.387 180.844L459.003 183.257L458.195 189.688L460.812 190.092" stroke="#002E47" stroke-miterlimit="10" stroke-linecap="round" stroke-linejoin="round"/>
<path d="M460.004 192.303C460.004 192.303 461.814 192.707 463.026 191.294" stroke="#002E47" stroke-miterlimit="10" stroke-linecap="round" stroke-linejoin="round"/>
<path d="M454.374 182.046L454.98 184.862C454.98 184.862 456.992 185.064 458.002 184.458" stroke="#002E47" stroke-miterlimit="10" stroke-linecap="round" stroke-linejoin="round"/>
<path d="M462.622 180.844L463.026 183.862C463.026 183.862 465.845 184.669 466.846 184.064" stroke="#002E47" stroke-miterlimit="10" stroke-linecap="round" stroke-linejoin="round"/>
<path d="M453.566 180.036C453.566 180.036 455.173 179.229 456.79 179.633" stroke="#002E47" stroke-miterlimit="10" stroke-linecap="round" stroke-linejoin="round"/>
<path d="M461.015 178.834C461.015 178.834 461.823 178.027 464.036 178.431" stroke="#002E47" stroke-miterlimit="10" stroke-linecap="round" stroke-linejoin="round"/>
<path d="M465.506 199.817C465.506 199.817 456.652 204.037 454.632 204.441C452.62 204.845 448.992 206.45 449.195 207.863C449.397 209.267 448.386 230.993 448.992 232.397C449.599 233.8 448.992 245.067 448.588 246.471C448.184 247.874 441.746 266.178 441.746 266.178C441.746 266.178 443.151 267.784 446.173 266.582C449.195 265.371 453.419 252.508 454.228 247.48C455.036 242.452 460.473 220.332 461.878 215.304C463.283 210.276 465.506 199.817 465.506 199.817Z" fill="white" stroke="#002E47" stroke-miterlimit="10" stroke-linecap="round" stroke-linejoin="round"/>
<path d="M474.166 198.606C474.166 198.606 470.144 214.093 468.123 220.323C466.112 226.561 464.1 230.176 464.495 235.002C464.89 239.828 464.293 264.16 467.921 267.582C471.549 271.004 476.178 273.215 480.807 273.215C485.436 273.215 490.266 271.811 490.266 271.811C490.266 271.811 484.627 241.039 484.627 240.241C484.627 239.434 493.481 211.084 493.288 208.661C493.086 206.249 474.166 198.606 474.166 198.606Z" fill="white" stroke="#002E47" stroke-miterlimit="10" stroke-linecap="round" stroke-linejoin="round"/>
<path d="M457.653 217.708C457.653 222.084 458.122 226.222 458.471 228.727C459.894 222.892 461.263 217.478 461.878 215.295C463.283 210.267 465.506 199.808 465.506 199.808C465.506 199.808 463.292 200.863 460.822 201.973C459.729 205.386 457.653 212.524 457.653 217.708Z" fill="#39B4EF" stroke="#002E47" stroke-miterlimit="10" stroke-linecap="round" stroke-linejoin="round"/>
<path d="M474.167 198.606C474.167 198.606 470.144 214.093 468.123 220.323C467.049 223.662 465.974 226.25 465.267 228.681C466.792 227.516 469.868 224.855 472.761 220.524C476.068 215.57 478.153 204.395 478.786 200.542C476.123 199.395 474.167 198.606 474.167 198.606Z" fill="#39B4EF" stroke="#002E47" stroke-miterlimit="10" stroke-linecap="round" stroke-linejoin="round"/>
<path d="M438.127 241.645L436.116 247.48L434.105 240.039C434.095 240.039 436.713 239.434 438.127 241.645Z" fill="#002E47" stroke="#002E47" stroke-miterlimit="10" stroke-linecap="round" stroke-linejoin="round"/>
<path d="M423.809 218.882L435.28 238.993L450.177 239.801L440.313 218.882H423.809Z" fill="#002E47" stroke="#002E47" stroke-miterlimit="10" stroke-linecap="round" stroke-linejoin="round"/>
<path d="M434.095 240.039C434.095 240.039 428.456 231.791 427.657 229.782C426.849 227.772 426.445 225.763 426.445 224.552C426.445 223.341 426.849 222.947 427.455 224.35C428.061 225.754 429.264 228.773 429.264 228.773L430.275 222.736C430.275 222.736 430.881 221.726 431.487 222.937C432.093 224.148 431.487 228.773 431.487 228.773L433.094 221.735C433.094 221.735 433.902 220.332 434.499 221.332C435.106 222.341 434.095 227.965 434.095 227.965L435.905 223.745C435.905 223.745 436.915 223.745 437.117 224.754C437.319 225.763 435.712 231.185 435.712 231.185L438.329 228.571C438.329 228.571 439.34 228.167 438.935 229.378C438.531 230.589 436.318 233.598 436.318 233.598C436.318 233.598 437.53 236.617 437.53 237.222C437.53 237.828 436.722 239.434 436.722 239.434L438.127 241.645L437.319 243.25L434.095 240.039Z" fill="white" stroke="#002E47" stroke-miterlimit="10" stroke-linecap="round" stroke-linejoin="round"/>
<path d="M448.597 246.471C448.79 245.801 449.02 242.938 449.158 239.947L437.934 240.837L436.125 247.471L448.111 247.975C448.358 247.214 448.533 246.672 448.597 246.471Z" fill="white" stroke="#002E47" stroke-miterlimit="10" stroke-linecap="round" stroke-linejoin="round"/>
<path d="M465.708 234.204C465.708 234.204 459.196 229.084 457.883 227.956C456.11 226.442 453.024 226.956 453.024 226.956C453.024 226.956 448.193 230.176 447.385 230.974C446.577 231.773 446.577 232.58 447.385 232.378C448.193 232.176 451.61 229.965 451.61 229.965L451.812 232.984L456.037 234.195L457.249 232.984C457.249 232.984 458.259 233.791 459.26 233.993C460.271 234.195 461.272 233.791 461.272 233.791L465.092 237.213L465.708 234.204Z" fill="white" stroke="#002E47" stroke-miterlimit="10" stroke-linecap="round" stroke-linejoin="round"/>
<path d="M486.446 205.037C486.446 205.037 494.298 206.643 495.3 209.258C496.31 211.873 495.502 252.7 494.693 253.902C493.885 255.113 462.888 239.424 462.888 239.424L465.506 233.387L483.424 238.213L482.212 218.506" fill="white"/>
<path d="M486.446 205.037C486.446 205.037 494.298 206.643 495.3 209.258C496.31 211.873 495.502 252.7 494.693 253.902C493.885 255.113 462.888 239.424 462.888 239.424L465.506 233.387L483.424 238.213L482.212 218.506" stroke="#002E47" stroke-miterlimit="10" stroke-linecap="round" stroke-linejoin="round"/>
<path d="M453.07 233.186C453.07 233.186 453.327 228.378 453.492 227.791" stroke="#002E47" stroke-miterlimit="10" stroke-linecap="round" stroke-linejoin="round"/>
<path d="M454.677 233.443C454.677 233.443 455.1 228.974 455.265 228.213" stroke="#002E47" stroke-miterlimit="10" stroke-linecap="round" stroke-linejoin="round"/>
<path d="M457.249 232.993L457.212 231.837L456.193 231.672" stroke="#002E47" stroke-miterlimit="10" stroke-linecap="round" stroke-linejoin="round"/>
<path d="M284.97 362.577C284.97 362.577 283.758 366.467 284.704 368.339C285.641 370.22 287.661 370.614 290.471 370.348C293.291 370.082 304.165 367.669 305.635 367.394C307.113 367.128 308.858 366.458 308.858 366.458C308.858 366.458 302.815 364.449 297.984 363.642C293.153 362.834 285.907 361.495 285.907 361.495L284.97 362.577Z" fill="white" stroke="#002E47" stroke-miterlimit="10" stroke-linecap="round" stroke-linejoin="round"/>
<path d="M285.916 361.504L284.979 362.577C284.979 362.577 283.767 366.467 284.713 368.339C285.42 369.752 286.724 370.33 288.534 370.412C287.836 369.752 287.046 368.743 286.596 367.265C285.723 364.412 287.376 362.146 287.634 361.816C286.577 361.623 285.916 361.504 285.916 361.504Z" fill="white" stroke="#002E47" stroke-miterlimit="10" stroke-linecap="round" stroke-linejoin="round"/>
<path d="M294.769 331.603L289.939 346.622L274.233 345.411C274.233 345.411 283.767 354.393 290.738 358.55C297.718 362.706 310.337 366.596 318.254 364.715C326.171 362.834 345.366 345.136 345.366 345.136L328.586 345.402L325.096 331.19L294.769 331.603Z" fill="#002E47" stroke="#002E47" stroke-miterlimit="10" stroke-linecap="round" stroke-linejoin="round"/>
<path d="M308.858 258.334C308.858 258.334 298.994 260.141 297.782 263.16C296.57 266.178 297.58 273.215 298.388 277.839C299.196 282.463 301.208 283.069 297.782 286.491C294.356 289.913 297.58 293.528 300.804 295.335C304.027 297.143 308.454 294.73 309.464 292.721" fill="#002E47"/>
<path d="M308.858 258.334C308.858 258.334 298.994 260.141 297.782 263.16C296.57 266.178 297.58 273.215 298.388 277.839C299.196 282.463 301.208 283.069 297.782 286.491C294.356 289.913 297.58 293.528 300.804 295.335C304.027 297.143 308.454 294.73 309.464 292.721" stroke="#002E47" stroke-miterlimit="10" stroke-linecap="round" stroke-linejoin="round"/>
<path d="M283.096 315.245C283.096 315.245 277.861 329.722 278.403 330.933C278.936 332.145 292.225 346.356 292.63 346.356C293.034 346.356 295.183 347.696 295.853 347.696C296.524 347.696 296.661 347.696 297.066 347.558C297.47 347.421 299.343 347.292 299.343 347.292L300.822 348.632L305.653 348.099C305.653 348.099 302.567 343.943 301.226 343.411C299.885 342.879 294.108 342.2 294.108 342.2L286.724 328.521L290.48 319.942L283.096 315.245Z" fill="white" stroke="#002E47" stroke-miterlimit="10" stroke-linecap="round" stroke-linejoin="round"/>
<path d="M300.813 296.079C300.813 296.079 290.214 296.886 289.14 297.152C288.065 297.418 287.532 297.822 287.128 298.491C286.724 299.161 279.744 314.446 279.744 314.446L291.151 321.282L292.63 317.529L294.779 331.603H325.243L326.051 317.924L328.999 322.08L341.343 313.235C341.343 313.235 329.394 296.473 326.042 296.069C322.69 295.675 300.813 296.079 300.813 296.079Z" fill="white" stroke="#002E47" stroke-miterlimit="10" stroke-linecap="round" stroke-linejoin="round"/>
<path d="M305.102 289.234C305.102 289.234 304.432 292.583 304.027 293.794C303.623 295.005 300.804 296.069 300.804 296.069C300.804 296.069 303.219 302.639 309.657 304.116C314.378 305.198 317.841 300.767 318.52 299.822C319.191 298.886 319.861 295.528 319.861 295.528C319.861 295.528 316.913 292.978 316.775 292.445C316.637 291.913 316.371 289.702 316.371 289.702C316.371 289.702 309.134 291.115 305.102 289.234Z" fill="white" stroke="#002E47" stroke-miterlimit="10" stroke-linecap="round" stroke-linejoin="round"/>
<path d="M308.059 265.572L300.207 276.234C300.207 276.234 296.983 271.811 296.983 276.032C296.983 280.252 298.792 281.261 299.398 281.463C300.005 281.665 300.804 281.867 300.804 281.867C300.804 281.867 302.016 286.491 305.23 289.711C308.454 292.932 311.669 293.528 314.488 291.922C317.308 290.317 319.319 285.289 319.319 285.289C319.319 285.289 321.33 278.656 320.926 275.435C320.541 272.206 311.274 264.371 308.059 265.572Z" fill="white" stroke="#002E47" stroke-miterlimit="10" stroke-linecap="round" stroke-linejoin="round"/>
<path d="M307.297 279.472C307.398 280.114 307.113 280.692 306.673 280.766C306.232 280.83 305.791 280.362 305.69 279.72C305.589 279.078 305.874 278.5 306.314 278.426C306.764 278.353 307.205 278.821 307.297 279.472Z" fill="#002E47"/>
<path d="M313.358 279.472C313.257 280.114 313.542 280.692 313.983 280.766C314.424 280.83 314.865 280.362 314.966 279.72C315.067 279.078 314.782 278.5 314.341 278.426C313.9 278.353 313.459 278.821 313.358 279.472Z" fill="#002E47"/>
<path d="M309.226 285.436C309.226 285.436 309.483 286.473 310.658 286.216C311.834 285.959 311.953 285.051 311.953 285.051" stroke="#002E47" stroke-miterlimit="10" stroke-linecap="round" stroke-linejoin="round"/>
<path d="M308.188 287.381C308.188 287.381 311.044 288.675 312.863 287.124" stroke="#002E47" stroke-miterlimit="10" stroke-linecap="round" stroke-linejoin="round"/>
<path d="M304.165 277.518C304.165 277.518 304.689 275.83 307.931 276.481" stroke="#002E47" stroke-miterlimit="10" stroke-linecap="round" stroke-linejoin="round"/>
<path d="M311.953 276.61C311.953 276.61 313.248 275.958 314.424 276.61" stroke="#002E47" stroke-miterlimit="10" stroke-linecap="round" stroke-linejoin="round"/>
<path d="M307.857 264.765C307.857 264.765 317.923 282.665 318.529 285.28C319.135 287.895 315.306 291.115 317.317 293.528C319.328 295.941 322.35 298.959 322.35 298.959C322.35 298.959 317.721 300.767 319.328 302.18C320.935 303.584 329.192 301.372 331.608 298.959C334.023 296.546 330.597 292.922 329.798 290.711C328.99 288.5 331.81 283.472 331.011 276.83C330.202 270.197 321.551 259.536 316.518 257.728C311.485 255.921 307.462 258.132 305.846 260.141" fill="#002E47"/>
<path d="M307.857 264.765C307.857 264.765 317.923 282.665 318.529 285.28C319.135 287.895 315.306 291.115 317.317 293.528C319.328 295.941 322.35 298.959 322.35 298.959C322.35 298.959 317.721 300.767 319.328 302.18C320.935 303.584 329.192 301.372 331.608 298.959C334.023 296.546 330.597 292.922 329.798 290.711C328.99 288.5 331.81 283.472 331.011 276.83C330.202 270.197 321.551 259.536 316.518 257.728C311.485 255.921 307.462 258.132 305.846 260.141" stroke="#002E47" stroke-miterlimit="10" stroke-linecap="round" stroke-linejoin="round"/>
<path d="M306.498 291.271C306.498 291.271 305.065 293.344 306.112 293.996C307.15 294.647 308.317 295.427 308.317 295.427C308.317 295.427 307.931 299.06 308.702 300.226C309.483 301.391 312.863 302.95 312.863 302.95C312.863 302.95 318.97 310.868 323.259 315.281C327.548 319.694 335.989 328.392 338.074 328.392C340.149 328.392 343.015 323.979 342.748 320.474C342.491 316.969 332.223 312.428 330.276 310.868C328.329 309.309 316.371 301.657 316.371 301.657C316.371 301.657 315.848 295.556 315.985 294.262C316.114 292.968 315.857 290.629 316.371 289.72C316.895 288.812 315.333 289.335 314.553 290.629C313.772 291.922 313.772 292.702 313.772 292.702L306.498 291.271Z" fill="white" stroke="#002E47" stroke-miterlimit="10" stroke-linecap="round" stroke-linejoin="round"/>
<path d="M330.469 328.658H289.268V353.467H330.469V328.658Z" fill="#B3C7EB" stroke="#002E47" stroke-miterlimit="10" stroke-linecap="round" stroke-linejoin="round"/>
<path d="M310.208 360.834C310.208 360.834 330.074 352.659 335.437 348.503C340.81 344.347 346.312 342.338 349.526 343.273C352.75 344.209 354.623 350.384 353.154 354.402C351.675 358.421 340.131 360.302 335.171 362.045C330.202 363.788 315.039 366.339 315.039 366.339L308.059 362.449L310.208 360.834Z" fill="#002E47" stroke="#002E47" stroke-miterlimit="10" stroke-linecap="round" stroke-linejoin="round"/>
<path d="M311.549 361.1C311.549 361.1 316.784 362.311 321.477 363.651C326.171 364.99 326.979 365.128 326.979 365.128C326.979 365.128 338.257 362.852 340.002 362.449C341.747 362.045 345.375 363.522 345.77 366.073C346.174 368.623 345.237 370.229 343.887 370.899C342.546 371.569 340.259 371.568 338.652 371.568C337.045 371.568 328.053 370.761 326.703 370.633C325.362 370.495 310.328 367.688 310.328 367.688L311.549 361.1Z" fill="white" stroke="#002E47" stroke-miterlimit="10" stroke-linecap="round" stroke-linejoin="round"/>
<path d="M326.621 370.614C326.648 370.614 326.685 370.623 326.712 370.623C328.053 370.761 337.045 371.559 338.661 371.559C340.278 371.559 342.555 371.559 343.896 370.89C345.237 370.22 346.174 368.614 345.779 366.064C345.375 363.513 341.756 362.045 340.011 362.44C338.266 362.843 326.988 365.119 326.988 365.119C326.988 365.119 328.09 368.568 326.621 370.614Z" fill="white" stroke="#002E47" stroke-miterlimit="10" stroke-linecap="round" stroke-linejoin="round"/>
<path d="M310.208 360.834C310.208 360.834 301.483 358.155 292.63 352.522C283.776 346.888 272.094 342.466 270.486 342.328C268.879 342.191 264.719 346.081 265.793 350.641C266.868 355.201 275.859 360.293 277.604 360.962C279.349 361.632 303.375 368.073 308.206 368.073L310.208 360.834Z" fill="#002E47" stroke="#002E47" stroke-miterlimit="10" stroke-linecap="round" stroke-linejoin="round"/>
<path d="M306.984 359.357C306.984 359.357 304.835 366.596 304.707 367.137C304.569 367.669 304.303 368.348 305.377 368.743C306.452 369.146 308.729 369.412 309.538 369.412C310.346 369.412 310.879 367.531 311.145 366.862C311.411 366.192 312.357 362.302 312.357 361.1C312.357 359.889 310.08 359.494 309.271 359.219C308.463 358.953 306.984 359.357 306.984 359.357Z" fill="#B3C7EB" stroke="#002E47" stroke-miterlimit="10" stroke-linecap="round" stroke-linejoin="round"/>
<path d="M219.385 87.885C219.385 87.885 219.854 88.3529 221.874 88.5089C223.895 88.6648 226.072 89.2887 228.404 88.6648C230.737 88.0409 232.142 87.729 231.362 88.8208C230.581 89.9126 225.135 92.8577 224.363 93.1696C223.583 93.4816 221.094 93.6376 220.478 94.2614C219.854 94.8853 219.385 96.5918 217.833 96.7478C216.281 96.9038 213.324 91.3072 213.324 91.3072L218.145 87.2703L219.385 87.885Z" fill="#B3C7EB" stroke="#002E47" stroke-miterlimit="10" stroke-linecap="round" stroke-linejoin="round"/>
<path d="M171.002 80.5818C171.002 80.5818 183.915 69.5446 192.007 64.7278C200.098 59.9111 201.806 58.5074 202.899 58.8193C203.992 59.1312 221.259 87.1051 221.259 87.1051L212.24 94.4082L200.723 72.0309C200.723 72.0309 184.384 87.729 180.187 90.5273C175.989 93.3256 167.586 85.2426 167.117 84.004C166.649 82.7562 171.002 80.5818 171.002 80.5818Z" fill="#002E47" stroke="#002E47" stroke-miterlimit="10" stroke-linecap="round" stroke-linejoin="round"/>
<path d="M193.963 97.5277L216.097 97.6287L210.807 92.9037L191.042 92.344L193.963 97.5277Z" fill="white" stroke="#002E47" stroke-miterlimit="10" stroke-linecap="round" stroke-linejoin="round"/>
<path d="M216.097 97.6286L229.277 80.4535L221.479 78.0497L210.807 92.9036L216.097 97.6286Z" fill="white" stroke="#002E47" stroke-miterlimit="10" stroke-linecap="round" stroke-linejoin="round"/>
<path d="M180.646 56.0303L187.8 73.2788L199.005 88.5089C199.005 88.5089 203.046 88.6649 203.827 88.8209C204.608 88.9768 206.784 89.1328 207.721 90.2154C208.658 91.3072 209.429 94.1055 209.429 94.1055L208.492 94.2615L206.628 92.243L203.202 91.4632C203.202 91.4632 199.161 91.1512 198.224 90.6833C197.288 90.2154 192.778 86.8024 192.778 86.8024L177.845 68.1501L175.512 61.6269L180.646 56.0303Z" fill="#B3C7EB" stroke="#002E47" stroke-miterlimit="10" stroke-linecap="round" stroke-linejoin="round"/>
<path d="M198.224 86.5363L194.808 89.2887L177.789 71.609L176.035 62.3975L181.895 56.8009L187.901 71.1777L198.224 86.5363Z" fill="#39B4EF" stroke="#002E47" stroke-miterlimit="10" stroke-linecap="round" stroke-linejoin="round"/>
<path d="M173.648 142.438C173.648 142.438 167.577 151.76 167.421 153.007C167.264 154.255 167.889 155.338 169.129 155.806C170.378 156.274 172.867 157.2 174.419 157.98C175.971 158.76 179.397 160.622 181.886 160.622C184.375 160.622 184.999 159.843 184.219 159.072C183.438 158.292 178.772 154.255 178.304 153.319C177.836 152.384 176.596 148.971 176.596 148.503C176.596 148.035 177.992 143.686 177.992 143.686L173.648 142.438Z" fill="#B3C7EB" stroke="#002E47" stroke-miterlimit="10" stroke-linecap="round" stroke-linejoin="round"/>
<path d="M150.935 77.9396C150.935 77.9396 146.691 83.0683 147.509 90.0594C148.446 97.9864 154.976 100.005 160.89 101.711C166.805 103.418 189.206 109.326 189.206 109.326C189.206 109.326 182.822 116.006 180.49 121.602C178.157 127.199 171.93 143.365 171.93 143.365L183.291 148.649L197.912 118.813C197.912 118.813 201.494 112.437 202.109 109.18C202.734 105.913 201.797 103.895 201.485 103.427C201.173 102.959 181.886 89.9035 178.304 87.5731C174.722 85.2427 171.774 84.1509 171.774 84.1509L150.935 77.9396Z" fill="#002E47" stroke="#002E47" stroke-miterlimit="10" stroke-linecap="round" stroke-linejoin="round"/>
<path d="M180.031 47.3233C180.031 47.3233 177.542 38.9284 173.648 37.8458C169.763 36.754 165.244 40.6441 161.671 44.837C158.089 49.0298 158.714 58.9844 158.714 61.7736C158.714 64.5719 150.779 76.8477 149.998 79.49C149.998 79.49 153.268 81.8204 159.642 83.2242C166.025 84.6187 172.555 84.3159 172.555 84.3159C172.555 84.3159 173.804 75.4531 174.107 72.664C174.419 69.8657 176.596 65.8288 178.304 64.737C180.012 63.6452 181.73 60.5442 181.886 56.81C182.051 53.0759 180.031 47.3233 180.031 47.3233Z" fill="#39B4EF" stroke="#002E47" stroke-miterlimit="10" stroke-linecap="round" stroke-linejoin="round"/>
<path d="M192.787 88.3529L196.525 90.0594C196.525 90.0594 204.304 90.5273 204.929 90.5273C205.553 90.5273 206.949 95.0321 206.949 95.0321C206.949 95.0321 206.481 95.5 205.857 94.8762C205.232 94.2523 204.607 93.4816 204.607 93.4816C204.607 93.4816 200.723 93.7935 199.161 93.7935C197.609 93.7935 194.808 91.9311 194.808 91.9311L191.07 90.3805L192.787 88.3529Z" fill="#B3C7EB" stroke="#002E47" stroke-miterlimit="10" stroke-linecap="round" stroke-linejoin="round"/>
<path d="M164.932 48.5619C164.932 48.5619 169.753 65.1957 171.462 69.3886C173.17 73.5815 177.532 78.7102 179.085 80.7378C180.637 82.7562 192.31 91.775 192.31 91.775L194.799 89.2887L182.4 70.7373C182.4 70.7373 176.127 45.9288 176.283 45.1489C176.44 44.369 174.419 42.1946 173.014 41.8827" fill="#39B4EF"/>
<path d="M164.932 48.5619C164.932 48.5619 169.753 65.1957 171.462 69.3886C173.17 73.5815 177.532 78.7102 179.085 80.7378C180.637 82.7562 192.31 91.775 192.31 91.775L194.799 89.2887L182.4 70.7373C182.4 70.7373 176.127 45.9288 176.283 45.1489C176.44 44.369 174.419 42.1946 173.014 41.8827" stroke="#002E47" stroke-miterlimit="10" stroke-linecap="round" stroke-linejoin="round"/>
<path d="M202.119 21.368C202.119 21.368 202.587 26.9646 201.807 28.8271C201.026 30.6896 197.453 31.7814 197.453 33.3319C197.453 34.8825 197.609 36.4422 196.829 37.066C196.048 37.6899 194.652 37.066 194.652 37.066C194.652 37.066 194.34 38.3138 193.1 39.2405C191.851 40.1763 192.071 40.1488 192.071 40.1488C192.071 40.1488 190.299 41.8828 188.278 41.8828C186.258 41.8828 184.696 39.0845 184.237 38.7726C183.769 38.4606 182.501 39.3414 181.28 40.1671C179.672 41.2681 178.478 47.1583 178.478 47.1583C178.478 47.1583 173.969 38.6074 173.501 38.4514C173.032 38.2955 170.185 38.1028 170.185 38.1028C170.185 38.1028 174.75 35.8091 175.374 33.9466C175.999 32.0842 175.374 29.1299 175.374 28.506C175.374 27.8821 175.686 21.5148 178.332 18.2486C180.977 14.9824 192.181 14.0558 196.379 13.7438C200.567 13.441 202.119 21.368 202.119 21.368Z" fill="#B3C7EB" stroke="#002E47" stroke-miterlimit="10" stroke-linecap="round" stroke-linejoin="round"/>
<path d="M202.119 21.368C202.119 21.368 200.567 20.4322 200.254 23.0745C199.942 25.7168 200.411 25.8728 198.546 26.0288C196.682 26.1847 195.901 26.6526 195.901 27.7353C195.901 28.8271 194.505 29.2858 193.412 29.2858C192.319 29.2858 191.392 27.7353 190.767 29.2858C190.143 30.8363 187.966 31.6162 186.57 31.6162C185.174 31.6162 185.018 32.552 182.529 33.0108C180.04 33.4787 179.571 30.8363 179.571 30.8363C179.571 30.8363 176.458 31.4602 175.53 31.4602C174.594 31.4602 174.75 27.5793 174.75 27.5793C174.75 27.5793 172.105 28.0472 171.168 27.8912C170.231 27.7353 169.46 25.5609 169.46 24.781C169.46 24.0011 167.751 22.7625 167.751 21.6707C167.751 20.579 167.751 19.8083 167.751 19.8083C167.751 19.8083 167.283 17.1659 167.595 16.5421C167.907 15.9182 169.928 14.6796 169.928 13.8997C169.928 13.1199 169.303 9.5509 170.396 8.14716C171.489 6.7526 172.573 5.34886 173.666 5.34886C174.759 5.34886 175.062 3.33041 176.779 3.01847C178.488 2.70653 179.112 2.70653 180.361 2.70653C181.61 2.70653 182.382 1.15599 183.787 0.844051C185.183 0.532109 188.609 1.15599 189.233 1.46793C189.858 1.77988 190.326 1.77988 191.566 1.31197C192.815 0.844053 195.304 1.46793 196.232 2.40376C197.169 3.33959 198.877 3.9543 199.657 3.9543C200.438 3.9543 201.21 3.48638 202.303 5.50483C203.396 7.52328 205.26 7.83522 206.344 8.77104C207.437 9.70687 207.593 10.9455 207.437 12.0373C207.28 13.1291 208.061 14.0557 208.686 15.3035C209.31 16.5512 209.154 17.7898 208.53 18.5697C207.905 19.3495 208.373 20.9001 208.53 21.524C208.686 22.1478 206.977 23.3864 205.572 23.8543C204.139 24.3223 202.743 25.1021 202.119 21.368Z" fill="#002E47" stroke="#002E47" stroke-miterlimit="10" stroke-linecap="round" stroke-linejoin="round"/>
<path d="M197.021 32.2034C196.691 32.8089 196.204 33.1851 195.928 33.0383C195.662 32.8915 195.708 32.2768 196.039 31.6712C196.369 31.0657 196.856 30.6895 197.132 30.8363C197.398 30.9831 197.352 31.5978 197.021 32.2034Z" fill="#002E47"/>
<path d="M196.25 28.873C196.25 28.873 197.922 28.0381 198.895 30.5428" stroke="#002E47" stroke-miterlimit="10" stroke-linecap="round" stroke-linejoin="round"/>
<path d="M75.2656 209.368C75.2656 209.368 78.0668 213.772 78.875 215.111C79.6832 216.451 79.5455 219.405 79.5455 219.405L82.7692 222.626L79.0128 225.571C79.0128 225.571 74.9901 222.892 74.1818 222.488C73.3736 222.084 72.0327 221.818 71.6286 221.818C71.2245 221.818 67.4681 217.13 67.4681 217.13L65.1904 215.653L66.5313 211.9L72.4368 213.643L75.2656 209.368Z" fill="#E2EDFF" stroke="#002E47" stroke-miterlimit="10" stroke-linecap="round" stroke-linejoin="round"/>
<path d="M61.5625 209.946L74.8522 222.616L79.6831 218.396L67.8078 207.129L61.5625 209.946Z" fill="#002E47" stroke="#002E47" stroke-miterlimit="10" stroke-linecap="round" stroke-linejoin="round"/>
<path d="M73.3734 208.845C72.905 208.854 72.5101 209.185 72.4182 209.643C72.1427 211.111 71.6926 214.13 72.5743 214.387C73.7499 214.726 74.2551 214.047 74.4204 213.212C74.5857 212.377 75.596 210.029 75.2562 209.359C74.999 208.836 74.3194 208.827 73.3734 208.845Z" fill="#E2EDFF" stroke="#002E47" stroke-miterlimit="10" stroke-linecap="round" stroke-linejoin="round"/>
<path d="M64.3821 211.763C64.3821 211.763 62.5728 215.185 63.978 216.185C65.3832 217.194 65.3831 215.176 65.7873 213.974C66.1914 212.763 66.1914 211.157 64.3821 211.763Z" fill="#E2EDFF" stroke="#002E47" stroke-miterlimit="10" stroke-linecap="round" stroke-linejoin="round"/>
<path d="M67.8078 215.176C67.8078 215.176 66.2005 218.396 66.7975 219.396C67.4036 220.405 68.2027 219.396 68.6068 218.387C69.0109 217.378 69.1946 217.176 69.2129 216.378C69.2497 214.625 67.8078 215.176 67.8078 215.176Z" fill="#E2EDFF" stroke="#002E47" stroke-miterlimit="10" stroke-linecap="round" stroke-linejoin="round"/>
<path d="M69.4791 216.616C69.4791 216.616 67.8719 219.836 68.4689 220.836C69.075 221.846 69.8741 220.836 70.2782 219.827C70.6823 218.818 70.866 218.616 70.8843 217.818C70.9303 216.056 69.4791 216.616 69.4791 216.616Z" fill="#E2EDFF" stroke="#002E47" stroke-miterlimit="10" stroke-linecap="round" stroke-linejoin="round"/>
<path d="M71.3898 218.203C71.3898 218.203 69.7825 221.424 70.3795 222.424C70.9857 223.433 71.7847 222.424 72.1888 221.414C72.5929 220.405 72.7766 220.203 72.795 219.405C72.8409 217.653 71.3898 218.203 71.3898 218.203Z" fill="#E2EDFF" stroke="#002E47" stroke-miterlimit="10" stroke-linecap="round" stroke-linejoin="round"/>
<path d="M82.5025 220.745L76.7256 226.644L92.0266 239.113L93.5053 228.791L82.5025 220.745Z" fill="#39B4EF" stroke="#002E47" stroke-miterlimit="10" stroke-linecap="round" stroke-linejoin="round"/>
<path d="M89.951 246.26C89.951 246.26 87.0488 256.939 87.2324 258.563C87.4161 260.187 87.4161 261.462 87.4161 261.462C87.4161 261.462 79.2697 271.417 75.1 280.28C70.9303 289.142 70.5721 294.207 71.8396 295.115C73.107 296.024 90.3184 303.62 92.1277 303.978C93.937 304.336 93.937 304.336 93.937 304.336L108.604 309.4L110.055 311.024L112.958 310.116C114.225 309.391 114.951 304.51 115.309 302.519C115.667 300.528 116.576 299.62 115.667 299.446C114.758 299.262 113.132 299.446 113.132 299.446C113.132 299.446 113.674 298.363 112.774 298.363C111.865 298.363 110.239 298.363 110.239 298.363C110.239 298.363 98.2811 293.482 96.2973 292.39C94.3043 291.308 89.2346 288.592 89.2346 288.592L101.009 280.087C101.009 280.087 115.318 271.765 117.311 268.325C119.304 264.884 120.388 258.37 120.388 255.664C120.388 252.957 100.642 243.718 97.2066 243.718C93.7717 243.718 90.1255 244.452 89.951 246.26Z" fill="#002E47" stroke="#002E47" stroke-miterlimit="10" stroke-linecap="round" stroke-linejoin="round"/>
<path d="M115.667 299.455C115.667 299.455 125.807 299.813 127.258 300.538C128.709 301.262 128.709 303.795 128.709 305.602C128.709 307.409 127.258 311.575 127.625 313.566C127.983 315.557 128.057 317.924 128.351 320.805C128.893 326.236 127.313 326.796 126.358 326.594C122.914 325.869 122.556 321.713 120.921 317.731C119.295 313.749 118.386 311.584 118.386 311.584L112.949 310.134C112.949 310.125 114.042 302.171 115.667 299.455Z" fill="white" stroke="#002E47" stroke-miterlimit="10" stroke-linecap="round" stroke-linejoin="round"/>
<path d="M127.258 300.538C126.881 300.345 125.908 300.189 124.677 300.042C125.155 301.85 125.807 304.96 125.807 308.492C125.807 314.098 126.891 320.612 126.349 324.777C126.257 325.447 126.165 326.016 126.073 326.511C126.165 326.539 126.248 326.566 126.349 326.594C127.304 326.796 128.884 326.236 128.342 320.805C128.057 317.924 127.984 315.557 127.616 313.566C127.258 311.575 128.7 307.419 128.7 305.602C128.709 303.795 128.709 301.262 127.258 300.538Z" fill="white" stroke="#002E47" stroke-miterlimit="10" stroke-linecap="round" stroke-linejoin="round"/>
<path d="M92.1644 261.435C92.1644 261.435 94.3778 275.114 93.5696 283.151C92.7614 291.198 93.3675 309.098 94.1758 314.125C94.984 319.153 94.3778 334.236 94.3778 336.851C94.3778 339.466 94.1758 340.668 94.1758 340.668C94.1758 340.668 91.9624 340.466 92.1644 341.677C92.3665 342.888 92.3665 344.09 92.3665 344.09C92.3665 344.09 94.1758 345.696 97.1974 346.301C100.219 346.907 103.443 347.512 104.04 346.705C104.646 345.898 104.444 343.283 104.444 343.283C104.444 343.283 105.454 342.475 105.454 340.87C105.454 339.264 105.454 338.457 105.454 338.457C105.454 338.457 108.274 326.796 108.072 319.75C107.87 312.712 106.464 308.685 106.859 306.877C107.263 305.07 116.319 277.518 116.319 277.518C116.319 277.518 119.139 271.481 119.745 267.664C120.351 263.848 118.735 259.82 117.531 258.214C116.319 256.609 97.8036 251.581 97.8036 251.581" fill="#002E47"/>
<path d="M92.1644 261.435C92.1644 261.435 94.3778 275.114 93.5696 283.151C92.7614 291.198 93.3675 309.098 94.1758 314.125C94.984 319.153 94.3778 334.236 94.3778 336.851C94.3778 339.466 94.1758 340.668 94.1758 340.668C94.1758 340.668 91.9624 340.466 92.1644 341.677C92.3665 342.888 92.3665 344.09 92.3665 344.09C92.3665 344.09 94.1758 345.696 97.1974 346.301C100.219 346.907 103.443 347.512 104.04 346.705C104.646 345.898 104.444 343.283 104.444 343.283C104.444 343.283 105.454 342.475 105.454 340.87C105.454 339.264 105.454 338.457 105.454 338.457C105.454 338.457 108.274 326.796 108.072 319.75C107.87 312.712 106.464 308.685 106.859 306.877C107.263 305.07 116.319 277.518 116.319 277.518C116.319 277.518 119.139 271.481 119.745 267.664C120.351 263.848 118.735 259.82 117.531 258.214C116.319 256.609 97.8036 251.581 97.8036 251.581" stroke="#002E47" stroke-miterlimit="10" stroke-linecap="round" stroke-linejoin="round"/>
<path d="M97.2709 198.835C97.2709 198.835 92.339 209.139 92.339 215.552C92.339 221.974 90.3919 232.865 90.3919 235.856C90.3919 238.837 87.7009 243.315 88.8948 245.856C90.0888 248.397 96.9678 248.397 97.5648 248.397C98.1618 248.397 102.047 248.544 102.791 248.251C103.535 247.948 104.885 223.323 104.885 217.653C104.885 211.983 105.188 197.505 105.032 195.707C104.876 193.909 99.0619 195.551 97.2709 198.835Z" fill="white" stroke="#002E47" stroke-miterlimit="10" stroke-linecap="round" stroke-linejoin="round"/>
<path d="M105.454 188.633C105.454 188.633 99.6132 197.478 98.2081 210.955C96.8029 224.433 92.973 248.361 95.7926 250.976C98.6122 253.59 105.657 255.398 108.88 257.013C112.104 258.618 117.339 261.233 119.148 262.242C120.958 263.251 123.979 262.04 123.979 262.04C123.979 262.04 126.395 240.718 125.586 231.268C124.778 221.818 123.575 205.927 119.745 198.285C115.925 190.642 106.456 187.624 105.454 188.633Z" fill="#39B4EF" stroke="#002E47" stroke-miterlimit="10" stroke-linecap="round" stroke-linejoin="round"/>
<path d="M105.858 257.013L103.443 259.627L107.466 265.059L109.881 260.426L105.858 257.013Z" fill="#E2EDFF" stroke="#002E47" stroke-miterlimit="10" stroke-linecap="round" stroke-linejoin="round"/>
<path d="M105.858 202.303C105.858 202.303 102.432 211.157 104.251 218.396C106.06 225.635 110.891 240.718 110.891 240.718L104.848 257.013L110.891 262.444C110.891 262.444 123.575 241.526 123.575 238.709C123.575 235.892 120.755 207.129 119.552 203.313C118.34 199.496 116.328 195.872 113.307 195.872" fill="#39B4EF"/>
<path d="M105.858 202.303C105.858 202.303 102.432 211.157 104.251 218.396C106.06 225.635 110.891 240.718 110.891 240.718L104.848 257.013L110.891 262.444C110.891 262.444 123.575 241.526 123.575 238.709C123.575 235.892 120.755 207.129 119.552 203.313C118.34 199.496 116.328 195.872 113.307 195.872" stroke="#002E47" stroke-miterlimit="10" stroke-linecap="round" stroke-linejoin="round"/>
<path d="M93.1747 344.696C93.1747 344.696 91.7695 345.301 91.7695 346.301C91.7695 347.311 90.5572 352.733 90.5572 352.733C90.5572 352.733 80.6932 356.155 78.8839 356.55C77.0746 356.953 76.4685 360.174 77.0746 361.174C77.6808 362.183 84.321 362.981 90.1622 363.183C96.0034 363.385 102.846 363.385 103.452 362.376C104.058 361.366 103.856 351.513 103.856 351.513L104.058 346.687C104.04 346.705 98.6026 346.301 93.1747 344.696Z" fill="white" stroke="#002E47" stroke-miterlimit="10" stroke-linecap="round" stroke-linejoin="round"/>
<path d="M76.8818 360.623C76.9186 360.843 76.9737 361.036 77.0655 361.183C77.6717 362.192 84.3119 362.99 90.1531 363.192C95.9943 363.394 102.837 363.394 103.443 362.385C103.544 362.219 103.617 361.816 103.682 361.256C95.03 362.742 82.5669 361.394 76.8818 360.623Z" fill="white" stroke="#002E47" stroke-miterlimit="10" stroke-linecap="round" stroke-linejoin="round"/>
<path d="M76.6614 163.898C76.6614 163.898 72.4366 167.715 72.8407 173.146C73.2448 178.578 74.0531 180.587 74.65 181.192C75.2562 181.798 77.0655 182.798 77.0655 182.798C77.0655 182.798 76.6614 188.633 77.8737 189.037C79.086 189.441 81.2995 189.239 81.2995 189.239C81.2995 189.239 84.5231 195.074 86.3324 195.276C88.1418 195.478 91.7695 191.854 91.7695 191.854L97.8128 197.285L104.655 186.826L100.834 182.605C100.834 182.605 102.644 171.339 100.026 165.311C97.3995 159.265 81.6944 156.255 76.6614 163.898Z" fill="#E2EDFF" stroke="#002E47" stroke-miterlimit="10" stroke-linecap="round" stroke-linejoin="round"/>
<path d="M91.7603 191.853L94.5706 189.009L94.1298 193.175L91.7603 191.853Z" fill="#002E47" stroke="#002E47" stroke-miterlimit="10" stroke-linecap="round" stroke-linejoin="round"/>
<path d="M94.5801 181.789C94.5801 181.789 98.1711 182.055 100.917 181.935C101.257 179.449 102.258 170.458 100.017 165.292C97.3996 159.255 81.6945 156.246 76.6615 163.889C76.6615 163.889 74.4389 165.907 73.3735 169.082C73.6582 169.559 74.0624 169.816 74.6502 169.32C76.0553 168.109 80.2893 167.715 80.6934 169.926C81.0975 172.137 80.6934 174.146 83.1089 173.55C85.5244 172.944 86.9295 173.752 86.9295 173.752C86.9295 173.752 88.5368 176.568 89.5471 175.963C90.5573 175.357 89.7491 174.155 90.9523 172.742C92.1646 171.339 96.7935 173.55 96.9955 176.559C97.1976 179.568 94.5801 181.789 94.5801 181.789Z" fill="#002E47" stroke="#002E47" stroke-miterlimit="10" stroke-linecap="round" stroke-linejoin="round"/>
<path d="M80.776 181.073C81.2168 181.605 81.327 182.238 81.024 182.495C80.7209 182.752 80.1147 182.523 79.6739 181.991C79.233 181.458 79.1228 180.825 79.4259 180.568C79.729 180.312 80.3351 180.541 80.776 181.073Z" fill="#002E47"/>
<path d="M77.782 180.357C77.782 180.357 77.2952 178.495 79.6464 178.495" stroke="#002E47" stroke-miterlimit="10" stroke-linecap="round" stroke-linejoin="round"/>
<path d="M104.141 184.954L95.48 198.083L99.3649 203.157L108.026 187.789L104.141 184.954Z" fill="white" stroke="#002E47" stroke-miterlimit="10" stroke-linecap="round" stroke-linejoin="round"/>
</g>
<defs>
<clipPath id="clip0_266_56327">
<rect width="608" height="378" fill="white"/>
</clipPath>
</defs>
</svg>
