<svg width="30" height="32" viewBox="0 0 30 32" fill="none" xmlns="http://www.w3.org/2000/svg">
<path d="M0 15.962C0 21.7061 3.24062 26.7129 7.99482 29.2162V2.7077C3.26002 5.21107 0 10.2178 0 15.962Z" fill="#3E4347"/>
<path d="M29.9987 15.962C29.9987 10.2178 26.7581 5.21107 22.0039 2.7077V29.2551C26.7581 26.7129 29.9987 21.7061 29.9987 15.962Z" fill="#699635"/>
<path d="M15.0013 0.961121C12.4592 0.961121 10.0918 1.60152 7.99609 2.70766V29.255C10.0918 30.3611 12.4398 31.0015 15.0013 31.0015C17.5433 31.0015 19.9107 30.3611 22.0065 29.255V2.70766C19.9107 1.62092 17.5627 0.961121 15.0013 0.961121Z" fill="#ED4C5C"/>
<path d="M16.9014 18.4653H16.3581C16.3581 18.7175 16.2999 18.9116 16.1641 19.0669H17.2701C17.0567 18.9116 16.9014 18.6593 16.9014 18.4653Z" fill="white"/>
<path d="M16.9609 15.3604L17.2519 15.011H16.2623L15.7578 14.6617L14.2054 14.6035L13.7591 15.011H12.75L13.0411 15.3604H16.9609Z" fill="white"/>
<path d="M14.3025 14.5647H15.6608C15.8549 14.4676 15.9131 14.1183 15.9131 13.9631C15.9131 13.4197 15.5638 13.1674 15.2145 13.1674C15.1563 13.1674 15.1175 13.1092 15.0593 13.0704C15.0011 12.9734 15.0011 12.8763 15.0011 12.8763C14.9429 12.8763 15.0011 12.9346 14.9429 13.0704C14.9429 13.1286 14.8846 13.1674 14.7876 13.1674C14.3413 13.1674 14.0308 13.5167 14.089 13.9631C14.1084 14.2542 14.1473 14.4676 14.3025 14.5647Z" fill="white"/>
<path d="M16.2623 18.6593L16.01 18.5041V18.213L15.8548 18.116V17.8249L15.6025 17.7279V17.4562L15.4085 17.3979V17.1457L15.098 17.068L14.9428 16.971V16.777H13.9337V16.6217C13.9337 16.1172 14.5741 15.6708 14.9816 15.6708C15.4861 15.6708 16.0294 16.1172 16.0294 16.6217V17.1263H16.0876V16.6217C16.0876 16.1754 15.5443 15.6126 15.0398 15.6126H16.8444V15.5544H13.0411V15.6126H14.8457C14.5547 15.6126 13.7979 15.9619 13.7979 16.6217V18.4265H14.2054V18.7758H13.7008C13.6426 18.7758 13.6038 18.6787 13.6038 18.5817H13.0993C13.0993 18.834 12.944 19.028 12.75 19.2221H14.2442V18.8146H14.6517L14.7487 19.2221H15.098L14.9428 18.8146H15.292L15.5443 19.2221H16.0488L15.6996 18.8146C15.6996 18.6593 16.2623 18.6593 16.2623 18.6593ZM14.2636 18.0189H14.5547L14.6129 18.3682H14.2636V18.0189ZM14.9622 18.6593H14.6711L14.6129 18.31H14.8651L14.7681 17.9607H14.9234L15.1174 18.31H14.8651L14.9622 18.6593ZM15.3115 18.6593L15.1174 18.31H15.4085L15.6996 18.6593H15.3115Z" fill="white"/>
<path d="M16.0469 17.3204H16.1051V17.8249H16.0469V17.3204Z" fill="white"/>
<path d="M13.1571 17.8637H13.7004V17.2233H13.1571V17.3785L12.051 15.4768L12.1092 15.3797C12.1092 15.2827 12.051 15.2245 11.954 15.2245C11.8569 15.2245 11.7987 15.2827 11.7987 15.3797C11.7987 15.4768 11.8569 15.535 11.954 15.535H12.0122L12.0704 15.5932C11.9734 15.5932 11.8763 15.8455 11.6241 16.0395C11.4688 16.1366 11.3718 16.4859 11.333 16.6799V17.1263C11.333 17.2233 11.236 17.4174 11.2748 17.4756C11.43 17.5726 11.6241 17.8831 11.7211 17.9801C11.7793 18.0384 11.8763 17.689 11.9152 17.4368V17.3785C11.9734 17.1845 11.9734 16.9322 12.1092 16.777L12.1674 16.7187C12.2644 16.6217 12.4585 16.5247 12.5749 16.4277L13.2153 17.5726L13.1571 17.8637Z" fill="white"/>
<path d="M13.1562 13.6138H13.6608V13.7109H13.1562V13.6138Z" fill="white"/>
<path d="M13.1562 13.8079H13.6608V14.817H13.1562V13.8079Z" fill="white"/>
<path d="M13.4097 13.0705C13.3126 13.0705 13.1186 13.2646 13.1574 13.478H13.7007C13.7007 13.2646 13.5067 13.0705 13.4097 13.0705Z" fill="white"/>
<path d="M13.0977 15.6708H13.641V16.4665H13.0977V15.6708Z" fill="white"/>
<path d="M13.1562 16.9128H13.6996V17.0681H13.1562V16.9128Z" fill="white"/>
<path d="M13.0977 17.9608H13.6992V18.3101H13.0977V17.9608Z" fill="white"/>
<path d="M13.156 16.7576H13.6605L13.7576 16.6023H13.1172L13.156 16.7576Z" fill="white"/>
<path d="M14.1462 15.7096H13.7969V16.1559C13.9133 15.9619 14.0103 15.8066 14.1462 15.7096Z" fill="white"/>
<path d="M18.7662 16.8546V16.7964V16.6411C18.7662 16.4471 18.6692 16.1366 18.4751 16.0007C18.2229 15.8067 18.0676 15.5544 18.0288 15.5544L18.087 15.4962H18.1453C18.2423 15.4962 18.3005 15.4379 18.3005 15.3409C18.3005 15.2439 18.2423 15.1857 18.1453 15.1857C18.0482 15.1857 17.99 15.2439 17.99 15.3409L18.0482 15.4379L17.0004 17.3397V17.1845H16.457V17.8249H17.0004V17.4756L17.6407 16.3306C17.6989 16.3888 17.9318 16.4859 18.0482 16.6217L18.1064 16.6799C18.2617 16.874 18.2035 17.0875 18.2617 17.2815V17.3397C18.3199 17.5338 18.3587 17.9413 18.4557 17.8831C18.5528 17.7861 18.7468 17.5338 18.9021 17.3785C18.9603 17.3203 18.8438 17.1263 18.8438 17.0292C18.708 17.0098 18.7662 16.971 18.7662 16.8546Z" fill="white"/>
<path d="M16.3984 13.6138H16.903V13.7109H16.3984V13.6138Z" fill="white"/>
<path d="M16.3984 13.8079H16.903V14.817H16.3984V13.8079Z" fill="white"/>
<path d="M16.9002 13.4586C16.9002 13.2646 16.745 13.0511 16.6479 13.0511C16.5509 13.0511 16.3569 13.2452 16.3957 13.4586H16.9002Z" fill="white"/>
<path d="M16.3594 15.6708H16.9027V16.4665H16.3594V15.6708Z" fill="white"/>
<path d="M16.3594 16.9128H16.9027V17.0681H16.3594V16.9128Z" fill="white"/>
<path d="M16.3594 17.9608H16.9609V18.3101H16.3594V17.9608Z" fill="white"/>
<path d="M16.2617 16.6217L16.3587 16.7769H16.8633L16.9603 16.6217H16.2617Z" fill="white"/>
<path d="M16.2048 16.1559V15.7096H15.8555C16.0107 15.8066 16.1077 15.9619 16.2048 16.1559Z" fill="white"/>
<path d="M20.2983 16.5635C20.4923 16.4665 20.7446 16.3112 20.8998 16.156C21.0551 15.9037 20.9968 15.4573 20.9968 15.4573C20.9968 15.4573 20.6476 15.6126 20.3565 15.7484C20.3565 15.5544 20.2595 15.3021 20.1624 15.108C20.3177 14.9528 20.5699 14.7587 20.6087 14.6035C20.764 14.3124 20.5505 13.9049 20.5505 13.9049C20.5505 13.9049 20.2594 14.0989 20.0072 14.3512C19.949 14.1571 19.8131 13.9437 19.6579 13.7496C19.7549 13.5556 19.949 13.3033 19.949 13.148C20.0072 12.7987 19.6967 12.4494 19.6967 12.4494C19.6967 12.4494 19.4444 12.7405 19.2892 13.051C19.134 12.8569 18.8817 12.6047 18.6877 12.4494C18.7847 12.2942 18.7847 12.1583 18.7847 11.9449C18.7847 10.8387 17.077 9.94604 14.9425 9.94604C12.8468 9.94604 11.1003 10.8387 11.1003 11.9449C11.1003 12.1001 11.1585 12.2942 11.1974 12.4494C11.0033 12.6047 10.751 12.7987 10.5958 13.051C10.4406 12.7599 10.1883 12.4494 10.1883 12.4494C10.1883 12.4494 9.89722 12.7987 9.93603 13.148C9.99425 13.3421 10.1301 13.5944 10.2271 13.7496C10.0719 13.9437 9.93604 14.1571 9.87782 14.3512C9.68377 14.0989 9.33448 13.9049 9.33448 13.9049C9.33448 13.9049 9.14043 14.3124 9.27627 14.6035C9.37329 14.7975 9.56734 15.011 9.72258 15.108C9.62555 15.3021 9.56734 15.5544 9.52853 15.7484C9.37329 15.5932 8.98519 15.4573 8.98519 15.4573C8.98519 15.4573 8.88817 15.9037 9.08222 16.156C9.17924 16.3112 9.48972 16.447 9.68377 16.5635C9.62556 16.7575 9.62556 17.068 9.68377 17.2621C9.3927 17.1651 8.98519 17.1068 8.98519 17.1068C8.98519 17.1068 9.04341 17.5532 9.27627 17.7472C9.43151 17.8443 9.72258 17.9413 9.91663 17.9413C9.97484 18.1354 10.0137 18.4459 10.1107 18.5817C9.8196 18.5235 9.4121 18.6399 9.4121 18.6399C9.4121 18.6399 9.56734 19.0863 9.85842 19.1833C10.0525 19.2415 10.3629 19.2415 10.557 19.2415C10.654 19.4356 10.751 19.6878 10.9063 19.8431C10.6152 19.9013 10.2659 20.0371 10.2659 20.0371C10.2659 20.0371 10.5182 20.4447 10.8675 20.4447C11.0615 20.4447 11.372 20.3864 11.566 20.2894C11.7213 20.4835 11.8571 20.6387 12.0706 20.794C11.7795 20.9492 11.469 21.2015 11.469 21.2015C11.469 21.2015 11.8183 21.4926 12.1676 21.4538C12.2646 21.4538 12.3228 21.3956 12.4199 21.3567L11.9736 21.9583H18.0085L17.601 21.512C17.698 21.5702 17.7562 21.5702 17.8532 21.609C18.2025 21.6673 18.5518 21.3567 18.5518 21.3567C18.5518 21.3567 18.2607 21.1045 17.9503 20.9492C18.1443 20.8522 18.2996 20.6581 18.4548 20.4447C18.6488 20.5417 18.9593 20.5999 19.1534 20.5999C19.5027 20.5417 19.7549 20.1924 19.7549 20.1924C19.7549 20.1924 19.4056 20.0371 19.1146 19.9983C19.2698 19.8431 19.3668 19.5908 19.4639 19.3967C19.6579 19.3967 19.9684 19.455 20.1624 19.3385C20.4535 19.1833 20.6087 18.7952 20.6087 18.7952C20.6087 18.7952 20.2012 18.7369 19.9102 18.7369C20.0072 18.5429 20.0654 18.2906 20.1042 18.0965C20.2983 18.0383 20.6087 17.9995 20.7446 17.9025C20.9968 17.7084 21.0356 17.2621 21.0356 17.2621C21.0356 17.2621 20.6281 17.3203 20.3371 17.4173C20.3565 17.068 20.2983 16.8158 20.2983 16.5635ZM12.4587 20.367C12.3034 20.27 12.1094 20.173 11.9153 20.1148C11.9736 19.9595 12.0706 19.8237 12.1094 19.6684H12.5557C12.5557 19.8043 12.4587 20.1148 12.4587 20.367ZM16.9024 20.173C16.8442 20.3282 16.8442 20.5223 16.9024 20.7164L16.6113 20.367H13.3513L13.0602 20.7164C13.1184 20.5223 13.1184 20.3088 13.0602 20.173C13.002 19.9207 12.7692 19.7655 12.6139 19.7267H17.3099C17.2129 19.7655 16.9994 19.9207 16.9024 20.173ZM17.5622 20.367C17.5622 20.1148 17.4651 19.8237 17.4651 19.6684H17.9115C17.9697 19.8237 18.0667 20.0177 18.1055 20.1148C17.9115 20.2118 17.698 20.27 17.5622 20.367ZM19.5997 17.1651C19.3474 16.971 18.9981 16.7187 18.9981 16.7187C18.9981 16.7187 18.8429 17.1651 18.9981 17.4756C19.0952 17.6696 19.4056 17.8831 19.5415 17.9801C19.3862 18.1354 19.2892 18.2712 19.1922 18.4265C19.0369 18.1354 18.7459 17.8249 18.7459 17.8249C18.7459 17.8249 18.4936 18.2324 18.5518 18.5235C18.61 18.7175 18.8041 18.9698 18.9593 19.1639C18.8041 19.2609 18.61 19.3579 18.513 19.5132C18.416 19.2221 18.2219 18.8146 18.2219 18.8146C18.2219 18.8146 17.8726 19.1057 17.8726 19.455C17.8726 19.5132 17.8726 19.455 17.8726 19.649L17.4069 19.2415H12.6527L12.1482 19.649C12.1482 19.649 12.187 19.552 12.187 19.455C12.187 19.1057 11.8377 18.8146 11.8377 18.8146C11.8377 18.8146 11.6437 19.1639 11.5466 19.5132C11.4496 19.3579 11.2556 19.2609 11.1003 19.1639C11.2556 19.0086 11.4496 18.7564 11.5078 18.5235C11.6049 18.1742 11.3138 17.8249 11.3138 17.8249C11.3138 17.8249 11.0227 18.116 10.8675 18.4265C10.7704 18.2712 10.6734 18.1354 10.5182 17.9801C10.7122 17.8831 10.9645 17.689 11.0615 17.4756C11.2168 17.1845 11.0615 16.7187 11.0615 16.7187C11.0615 16.7187 10.654 16.9128 10.46 17.1651C10.4018 17.0098 10.3629 16.8158 10.2659 16.6605C10.46 16.6023 10.7704 16.4664 10.9063 16.3112C11.1585 16.0589 11.1003 15.6126 11.1003 15.6126C11.1003 15.6126 10.6928 15.7096 10.4018 15.8649C10.4018 15.7096 10.4018 15.5156 10.3435 15.3215C10.5376 15.3215 10.8869 15.2633 11.1003 15.1663C11.3914 14.9722 11.4496 14.5259 11.4496 14.5259C11.4496 14.5259 11.0033 14.5259 10.6928 14.6229C10.751 14.4676 10.751 14.2736 10.7898 14.0795C10.9839 14.1377 11.3332 14.1766 11.5466 14.1377C11.8959 14.0407 12.0512 13.6332 12.0512 13.6332C12.0512 13.6332 11.6437 13.5361 11.2944 13.5361C11.5466 13.1286 11.6437 12.3912 11.6437 12.3912C11.6437 12.3912 11.5855 12.3912 11.5466 12.4494C12.1482 11.7508 13.4871 11.2462 15.0395 11.2462C16.5919 11.2462 17.9309 11.7508 18.5324 12.4494C18.4742 12.3912 18.4354 12.3912 18.4354 12.3912C18.4354 12.3912 18.5324 13.148 18.7847 13.5361C18.4354 13.5361 18.0279 13.6332 18.0279 13.6332C18.0279 13.6332 18.2219 14.0407 18.5324 14.1377C18.7265 14.196 19.0758 14.1377 19.2892 14.0795C19.2892 14.2736 19.2892 14.487 19.3862 14.6229C19.0952 14.5259 18.6294 14.5259 18.6294 14.5259C18.6294 14.5259 18.7265 14.9722 18.9787 15.1663C19.1728 15.2633 19.4833 15.3215 19.7355 15.3215C19.6773 15.5156 19.6385 15.729 19.6773 15.8649C19.3862 15.7096 18.9787 15.6126 18.9787 15.6126C18.9787 15.6126 18.9205 16.0589 19.1728 16.3112C19.328 16.4664 19.6191 16.5635 19.8131 16.6605C19.7549 16.8158 19.6579 16.971 19.5997 17.1651Z" fill="white"/>
</svg>
