<svg width="30" height="31" viewBox="0 0 30 31" fill="none" xmlns="http://www.w3.org/2000/svg">
<path d="M29.8073 13.862C29.7492 13.3585 29.6524 12.8549 29.5168 12.3707H0.407698L0.117188 13.862H29.8073Z" fill="#FFCE31"/>
<path d="M0.15625 17.8519C0.214352 18.3555 0.311189 18.8591 0.44676 19.3433H29.5365L29.827 17.8519H0.15625Z" fill="#FFCE31"/>
<path d="M8.98737 2.12488L7.49609 2.88024V28.8339C7.99964 29.1244 8.50319 29.3762 8.98737 29.5892V2.12488Z" fill="#FFCE31"/>
<path d="M12.9766 1.0402V30.7319L14.4678 30.8869V0.885254C13.9837 0.885254 13.4801 0.943357 12.9766 1.0402Z" fill="#FFCE31"/>
<path d="M0 15.8571C0 16.5543 0.0580997 17.2128 0.154936 17.852H29.8451C29.9419 17.2128 30 16.5543 30 15.8571C30 15.1598 29.9419 14.5013 29.8451 13.8621H0.154936C0.0580997 14.5013 0 15.1598 0 15.8571Z" fill="#ED4C5C"/>
<path d="M8.98828 29.5891C10.2278 30.1315 11.5835 30.5382 12.978 30.6931V1.04016C11.5835 1.23384 10.2278 1.58248 8.98828 2.14416V29.5891Z" fill="#ED4C5C"/>
<path d="M7.4947 12.3707V2.88016C4.00858 4.93321 1.41335 8.32267 0.40625 12.3707H7.4947Z" fill="#2A5F9E"/>
<path d="M7.4947 19.3433V28.8338C4.00858 26.7807 1.41335 23.3913 0.40625 19.3433H7.4947Z" fill="#2A5F9E"/>
<path d="M14.9725 0.885254H14.4883V12.3707H29.5561C27.9486 5.78545 22.0609 0.885254 14.9725 0.885254Z" fill="#2A5F9E"/>
<path d="M14.4883 19.3433V30.8287H14.9918C22.0803 30.8287 27.9679 25.9285 29.5561 19.3433H14.4883Z" fill="#2A5F9E"/>
</svg>
