<svg width="30" height="31" viewBox="0 0 30 31" fill="none" xmlns="http://www.w3.org/2000/svg">
<path d="M27.2601 18.6294C28.7733 11.858 24.511 5.14187 17.74 3.62856C10.9689 2.11525 4.25318 6.37776 2.73995 13.1492C1.22672 19.9206 5.48902 26.6367 12.2601 28.15C19.0311 29.6633 25.7468 25.4008 27.2601 18.6294Z" fill="#F42F4C"/>
<path d="M22.089 20.0155C21.7152 19.3491 20.6588 19.853 20.1225 19.853C20.415 19.6092 21.1626 19.0566 21.5851 19.0566C21.2926 18.8128 20.74 19.0078 20.545 19.2679C19.7974 20.1455 19.3261 19.6904 18.2372 19.3491C19.1148 18.4227 15.7182 17.7563 16.8071 17.0087C17.0183 16.8462 17.3921 18.3089 17.9772 18.0489C18.221 17.9676 17.0183 17.0087 17.6359 16.7974C17.8472 16.7162 18.676 19.1866 19.2611 18.1789C19.4724 17.8051 17.9609 17.4638 18.3835 16.7162C18.091 17.2525 22.0727 19.3166 21.5689 17.9676C21.3251 17.3338 18.8873 17.8051 19.0986 16.1636C19.0498 16.5861 21.9102 17.9189 21.6176 16.6999C21.5364 16.4074 18.7248 16.6186 19.2286 15.2697C19.3099 15.0584 21.6989 16.8949 21.6176 15.5622C21.5689 15.0584 19.0661 15.4322 19.3099 14.3432C19.3099 14.2945 21.9102 15.4322 21.6176 14.262C21.5689 14.0994 18.7248 14.4245 19.2774 13.4168C19.0336 13.8719 22.674 13.6606 21.5851 12.7505C21.2113 12.4579 19.6186 13.8882 19.2774 12.6204C19.3261 12.783 22.414 12.3766 21.5364 11.4827C21.3251 11.2389 19.3586 12.783 19.3099 11.7753C19.3099 11.564 21.9102 10.345 21.5364 9.72741C21.0813 8.97978 18.5135 11.0601 18.221 11.1902C16.2545 12.1166 18.221 11.564 17.2621 12.7342C16.677 13.4006 16.222 12.3604 16.3845 11.8891C16.7258 10.9301 18.7248 11.0439 18.8061 10.4263C18.5135 10.6376 18.221 10.5888 17.9609 10.4263C18.0097 10.4263 20.09 10.1337 19.3911 9.84118C19.3099 9.79243 19.0498 9.97121 18.8061 10.085C18.8548 9.0773 16.1245 9.84119 15.8319 9.87369C16.9696 10.8326 14.9056 10.2963 16.0757 10.8001C15.7832 10.8489 15.5394 10.9626 15.2794 11.1739C15.8157 11.2227 14.9868 11.8403 14.9868 11.8403C14.9868 11.8403 14.1417 11.2552 14.6455 11.1252C14.4343 10.9139 14.1417 10.7839 13.8492 10.7514C15.0193 10.2475 12.9716 10.8001 14.093 9.82494C13.8492 9.82494 11.0701 9.02854 11.1188 10.0362C10.8751 9.9062 10.615 9.79243 10.5338 9.79243C9.86744 10.085 11.9152 10.3775 11.9639 10.3775C11.7202 10.5888 11.4276 10.5888 11.1188 10.3775C11.2001 11.0114 13.2154 10.8814 13.5404 11.8403C13.7029 12.2954 13.2479 13.3518 12.6628 12.6854C11.6552 11.5152 13.6217 12.0516 11.7039 11.1414C11.4114 11.0114 8.85981 8.91477 8.3885 9.67866C8.0147 10.3125 10.615 11.5152 10.615 11.7265C10.5338 12.7342 8.59978 11.1902 8.3885 11.434C7.51089 12.3116 10.615 12.7342 10.6475 12.5717C10.355 13.8231 8.71354 12.4091 8.33975 12.7017C7.25086 13.5794 10.8913 13.8394 10.6475 13.3681C11.1513 14.327 8.33974 14.0344 8.30724 14.2132C8.0147 15.3834 10.615 14.262 10.615 14.2945C10.8588 15.4322 8.356 15.0096 8.30724 15.5134C8.22598 16.8462 10.615 15.0584 10.6963 15.2209C11.2001 16.5536 8.3885 16.3586 8.30724 16.6511C7.96595 17.9026 10.8588 16.5699 10.8263 16.1148C11.0376 17.7401 8.59978 17.285 8.356 17.9189C7.85219 19.2516 11.8339 17.2037 11.5414 16.6674C11.9639 17.415 10.4525 17.7563 10.6638 18.1302C11.2489 19.1378 12.094 16.6674 12.289 16.7487C12.9228 16.96 11.7039 17.9189 11.9477 18.0001C12.5328 18.2439 12.9066 16.7812 13.1178 16.9599C14.2067 17.7076 10.8101 18.3902 11.6877 19.3004C10.5988 19.6417 10.095 20.0968 9.37988 19.2191C9.1686 18.9753 8.58353 18.7965 8.33975 19.0078C8.7623 19.0078 9.50989 19.5929 9.80243 19.8042C9.26611 19.8042 8.20973 19.3004 7.83594 19.9667C8.29099 19.7554 9.34737 19.9667 9.80243 20.0155C9.29862 20.4381 8.37225 20.1455 8.55102 21.1857C8.7948 20.3405 11.3139 19.7229 11.6064 20.8931C11.8989 20.3568 10.7288 20.048 10.4688 19.9667C10.6313 19.918 12.5978 19.918 12.5978 19.918C12.5978 19.918 13.6867 17.7888 14.1905 18.2927C15.3606 19.5442 12.2565 20.2593 12.1427 20.5193C11.8014 21.3157 13.7354 20.6006 13.6542 20.5681C14.158 21.0232 12.4028 21.4457 12.4028 21.5758C12.4515 22.4534 13.8654 21.2345 13.9467 21.2345C14.613 21.397 12.9878 22.4047 13.0203 22.2746C12.8903 23.2011 14.4505 21.9821 14.4017 21.7708C14.5643 22.0146 14.5643 22.2259 14.353 22.5184C13.8167 23.4774 14.3042 23.6074 14.9381 24.6151C15.5719 23.6074 16.0757 23.5261 15.5231 22.5184C15.3606 22.2746 15.3606 22.0146 15.4744 21.7708C15.4256 21.9821 17.0183 23.2011 16.8558 22.2746C16.8558 22.4047 15.2306 21.3482 15.9294 21.2345C16.0107 21.2345 17.4409 22.4534 17.4734 21.5758C17.4734 21.4132 15.6694 21.0394 16.222 20.5681C16.1732 20.6168 18.0585 21.3645 17.7334 20.5193C17.6522 20.2755 14.5155 19.5929 15.6857 18.2927C16.1895 17.7563 17.2784 19.918 17.2784 19.918C17.2784 19.918 19.2449 19.918 19.4074 19.9667C19.1636 20.048 17.9447 20.3406 18.2697 20.8931C18.5623 19.6742 21.0813 20.3568 21.3251 21.1857C21.4876 20.1455 20.5775 20.4706 20.0737 20.0155C20.5775 20.0155 21.6177 19.8205 22.089 20.0155ZM18.7735 10.1337C18.5298 10.2638 18.2697 10.345 18.1072 10.2963C18.2372 10.1012 18.5623 9.88994 18.7735 10.1337ZM17.4409 9.97121C17.8634 10.0525 17.8634 10.1825 17.4409 10.2638C17.0183 10.1337 17.0183 10.0525 17.4409 9.97121ZM11.2326 10.1337C11.4439 9.88994 11.7852 10.085 11.8989 10.2963C11.7364 10.345 11.4926 10.2638 11.2326 10.1337ZM12.5815 10.2638C12.159 10.1337 12.159 10.0525 12.5815 9.97121C13.0041 10.0525 13.0041 10.1337 12.5815 10.2638Z" fill="#3E4347"/>
</svg>
