<svg width="30" height="31" viewBox="0 0 30 31" fill="none" xmlns="http://www.w3.org/2000/svg">
<path d="M30 15.9083C30 7.60254 23.3053 0.907471 15 0.907471V30.9091C23.3053 30.9091 30 24.214 30 15.9083Z" fill="#F9F9F9"/>
<path d="M0 15.9083C0 24.214 6.69471 30.9091 15 30.9091V0.907471C6.71411 0.907471 0 7.62194 0 15.9083Z" fill="#699635"/>
<path d="M19.3662 19.4208L19.308 16.7234L22.0053 15.9278L19.308 15.1321L19.3662 12.4347L17.7168 14.5887L15.0195 13.7931L16.6689 15.9472L15.0195 18.1012L17.7168 17.3056L19.3662 19.4208Z" fill="#ED4C5C"/>
<path d="M17.6015 21.9242C14.3027 21.9242 11.6442 19.2267 11.6442 15.9277C11.6442 12.6287 14.3027 9.93126 17.6015 9.93126C18.8434 9.93126 20.0077 10.3388 20.9974 10.9792C19.639 9.42671 17.6404 8.43701 15.3894 8.43701C11.2949 8.43701 7.99609 11.7942 7.99609 15.9471C7.99609 20.1 11.2949 23.4572 15.3894 23.4572C17.6404 23.4572 19.639 22.4481 20.9974 20.915C20.066 21.5166 18.9017 21.9242 17.6015 21.9242Z" fill="#ED4C5C"/>
</svg>
