<svg width="30" height="31" viewBox="0 0 30 31" fill="none" xmlns="http://www.w3.org/2000/svg">
<path d="M0 15.9012C0 21.6454 3.24064 26.6521 7.99484 29.1555V2.64697C3.24064 5.15034 0 10.1571 0 15.9012Z" fill="#2A5F9E"/>
<path d="M29.9987 15.9012C29.9987 10.1571 26.7581 5.15034 22.0039 2.64697V29.1943C26.7387 26.6521 29.9987 21.6454 29.9987 15.9012Z" fill="#C94747"/>
<path d="M15.0013 0.900391C12.4592 0.900391 10.0918 1.54079 7.99609 2.64693V29.1943C10.0918 30.3004 12.4398 30.9408 15.0013 30.9408C17.5627 30.9408 19.9107 30.3004 22.0064 29.1943V2.64693C19.8913 1.56019 17.5433 0.900391 15.0013 0.900391Z" fill="#FFE62E"/>
<path d="M13.6026 8.41048C14.2041 8.41048 14.6116 9.01206 15.252 8.85681C15.7565 8.75979 16.4939 8.00296 16.9014 8.70157C17.0567 8.95385 16.9984 9.24493 16.9014 9.55542C16.8044 9.8077 16.5521 10.157 16.8044 10.3511C17.1537 10.6422 17.9105 10.5451 18.2598 10.1958C17.9687 10.1958 17.7552 9.84651 18.0075 9.65245C18.1045 9.55542 18.2016 9.59424 18.2986 9.55542C18.3568 9.55542 18.3956 9.4584 18.4538 9.40018C18.512 9.34196 18.5508 9.34196 18.6479 9.34196C18.7449 9.34196 18.8419 9.43899 18.9001 9.43899C18.9972 9.43899 19.1912 9.28374 19.3076 9.49721C19.3658 9.59424 19.4629 9.55543 19.5599 9.49721C19.7151 9.43899 19.851 9.55542 19.9674 9.65245C20.0644 9.74948 20.1226 9.74949 20.2585 9.80771C20.3555 9.86593 20.4137 10.06 20.5107 10.06C20.86 10.2152 20.86 10.4675 20.7048 10.8168C20.5107 11.2631 19.4629 11.8259 19.851 12.4081C19.7928 12.0006 20.3943 12.214 20.2585 12.5633C21.0541 12.0588 21.9079 13.1649 21.9079 13.8635C21.9079 14.5622 21.6168 15.1055 20.8988 15.2608C21.0929 15.3578 21.3063 15.5519 21.1511 15.8041C21.0929 15.9012 20.9959 15.9594 20.86 15.9594C20.666 15.9594 20.6078 15.8042 20.5107 16.0176C20.2585 16.4251 20.4137 17.0655 20.763 17.376C20.86 17.2208 21.1123 17.0849 21.2675 17.279C21.3645 17.376 21.3645 17.6283 21.4616 17.7253C21.5586 17.8806 21.6556 18.0164 21.5198 18.2299C21.3646 18.4239 21.2287 18.3269 21.0153 18.3851C21.4616 18.8315 21.6556 19.2778 21.4616 19.9376C21.3063 20.5392 20.8212 20.9855 20.2197 21.2378C19.6181 21.4319 18.9778 21.4901 18.318 21.4901C17.6776 21.5483 17.0179 21.5483 16.5715 21.9947C16.7656 22.1499 16.9208 22.344 16.8238 22.5962C16.7656 22.6933 16.7268 22.7515 16.6298 22.8485C16.5327 22.9067 16.3775 22.9067 16.2805 23.0038C16.1252 23.256 15.7371 23.159 15.5819 23.0038C15.4849 22.9067 15.4266 23.062 15.3296 23.159C15.2326 23.256 15.0774 23.4113 14.9803 23.4113C14.8833 23.4113 14.7281 23.3143 14.6893 23.2172C14.5922 23.1202 14.4952 22.9649 14.34 23.0232C14.1459 23.1202 13.7966 23.2172 13.6414 23.0232C13.6414 22.9649 13.5444 23.0232 13.4474 22.9649C13.3503 22.9067 13.2533 22.8097 13.1951 22.6739C13.0981 22.4216 13.2533 22.1693 13.4862 22.0723C13.0398 21.6259 12.4383 21.6259 11.8367 21.5677C11.1964 21.5095 10.4396 21.5677 9.83804 21.2766C9.33351 21.0244 8.88719 20.675 8.63492 20.1705C8.38266 19.5689 8.47969 18.9673 8.98422 18.521C8.79017 18.4628 8.57672 18.4628 8.4797 18.2687C8.38267 18.0164 8.57672 17.9194 8.57672 17.7253C8.57672 17.5701 8.77077 17.376 8.8678 17.3178C8.96482 17.2596 9.12006 17.3178 9.15887 17.4148C9.25589 17.5119 9.31409 17.4148 9.41112 17.3178C9.60517 16.9685 9.76041 16.3669 9.41112 16.0176C9.00362 16.3669 8.5185 15.5713 9.00362 15.319C8.84838 15.222 8.65432 15.1637 8.5573 15.0279C8.46027 14.9309 8.36325 14.7756 8.26622 14.6204C8.07218 14.2711 8.07218 13.8636 8.1692 13.5142C8.26622 13.1649 8.46029 12.8156 8.77077 12.6216C9.12006 12.4275 9.3723 12.4663 9.72159 12.5633C9.66338 12.5633 9.77981 12.2723 9.81862 12.214C9.97386 12.0588 10.1097 12.214 10.1679 12.3693C10.459 11.8259 9.41112 11.2631 9.21707 10.8168C9.12005 10.6228 9.06183 10.1182 9.41112 10.1182C9.50814 10.1182 9.56637 9.96296 9.66339 9.86593C9.72161 9.80771 9.81862 9.80771 9.91564 9.7689L10.0709 9.61365C10.1679 9.51662 10.3232 9.51662 10.4202 9.51662C10.6142 9.51662 10.5172 9.57484 10.6724 9.51662C10.8277 9.4584 10.9247 9.51662 11.0217 9.51662C11.1188 9.51662 11.177 9.36137 11.371 9.41959C11.5263 9.47781 11.5263 9.57484 11.6233 9.61365C11.7203 9.67187 11.8173 9.67187 11.9144 9.7689C12.1666 10.0212 11.9726 10.2734 11.7203 10.3705C11.9726 10.5645 12.2636 10.6616 12.6129 10.6228C12.8652 10.6228 13.3115 10.4675 13.2145 10.1182C13.1175 9.71068 12.9234 9.4778 12.9622 9.07028C13.0398 8.60453 13.2921 8.41048 13.6026 8.41048Z" fill="#C7B37F"/>
<path d="M11.0039 11.8453H14.8073V15.6489H11.0039V11.8453Z" fill="#C94747"/>
<path d="M12.7503 14.8533C12.7503 14.8533 12.7503 15.0085 12.6921 15.1056C12.6339 15.2608 12.6339 15.2608 12.5951 15.2996C12.5369 15.3966 12.4981 15.4549 12.4011 15.4937C12.304 15.5519 12.207 15.5907 12.11 15.5907C11.8577 15.5907 11.7607 15.2996 11.6637 15.0861C11.6054 14.8339 11.4114 14.7368 11.3144 14.7951C11.2562 14.8533 11.2562 14.9503 11.3144 14.9891C11.3726 15.0861 11.5084 15.1444 11.5084 15.1444L11.3532 15.2996C11.3532 15.2996 11.0621 15.2414 11.0039 14.9503C11.0039 14.8533 11.0621 14.601 11.2562 14.5428C11.5084 14.4457 11.6637 14.6398 11.7607 14.7951C11.8577 14.9891 11.9159 15.3966 12.207 15.2996C12.3622 15.2414 12.4593 15.0473 12.4593 14.9503L12.5563 14.8533H12.7503Z" fill="white"/>
<path d="M13 14.8533C13 14.8533 13 15.0085 13.0582 15.1056C13.1164 15.2608 13.1164 15.2608 13.1552 15.2996C13.2135 15.3966 13.2523 15.4549 13.3493 15.4937C13.4463 15.5519 13.5433 15.5907 13.6404 15.5907C13.8926 15.5907 13.9896 15.2996 14.0867 15.0861C14.1449 14.8339 14.3389 14.7368 14.436 14.7951C14.4942 14.8533 14.4942 14.9503 14.436 14.9891C14.3778 15.0861 14.2419 15.1444 14.2419 15.1444L14.3972 15.2996C14.3972 15.2996 14.6882 15.2414 14.7464 14.9503C14.7464 14.8533 14.6882 14.601 14.4942 14.5428C14.2419 14.4457 14.0867 14.6398 13.9896 14.7951C13.8926 14.9891 13.8344 15.3966 13.5433 15.2996C13.3881 15.2414 13.2911 15.0473 13.2911 14.9503L13.194 14.8533H13Z" fill="white"/>
<path d="M13.252 13.2426C13.4072 13.0874 13.8535 12.7963 13.7953 12.544C13.543 12.4858 13.7953 12.447 13.8535 12.2918H13.6983C13.7565 12.0977 14.2028 11.9425 14.4551 12.0007C14.9596 12.1947 14.6103 13.0098 14.2028 12.6411C14.261 12.447 14.5521 12.544 14.4939 12.35C14.4939 12.1947 14.2998 12.0977 14.1446 12.1559C13.9506 12.3112 14.0864 12.6023 13.8923 12.7575C13.7371 13.0098 13.446 13.2621 13.252 13.4561C12.6504 14.0965 12.0101 14.8145 11.4085 15.4549C11.0592 15.2609 11.9519 14.5623 12.1071 14.407C12.437 14.0965 12.8445 13.6502 13.252 13.2426Z" fill="#FFCE31"/>
<path d="M11.7383 13.4561C11.7383 13.4561 11.8353 14.0576 12.2816 15.0085C12.4757 14.9115 12.6309 14.8533 12.825 14.8533C13.019 14.8533 13.1743 14.9115 13.3683 15.0085C13.8146 14.0576 13.9116 13.4561 13.9116 13.4561L12.8056 12.0006L11.7383 13.4561Z" fill="white"/>
<path d="M13 12.5052L13.7956 13.5144C13.7956 13.5144 13.6986 14.0189 13.3881 14.7175C13.2911 14.6593 13.1358 14.6593 13.0388 14.6593L13 12.5052Z" fill="#FFCE31"/>
<path d="M12.7487 12.5052L11.9531 13.5144C11.9531 13.5144 12.0502 14.0189 12.3606 14.7175C12.4577 14.6593 12.6129 14.6593 12.7099 14.6593L12.7487 12.5052Z" fill="#FFCE31"/>
<path d="M15.1953 11.8453H18.9987V15.6489H15.1953V11.8453Z" fill="#FFCE31"/>
<path d="M15.7383 11.8453H16.2816V15.6489H15.7383V11.8453Z" fill="#C94747"/>
<path d="M16.8047 11.8453H17.348V15.6489H16.8047V11.8453Z" fill="#C94747"/>
<path d="M17.8906 11.8453H18.4339V15.6489H17.8906V11.8453Z" fill="#C94747"/>
<path d="M11.0038 19.0061C11.0038 19.0643 11.062 19.2002 11.1008 19.2972C11.159 19.3942 11.159 19.3942 11.2949 19.5883C11.3919 19.6853 11.4889 19.7435 11.5859 19.7823C11.683 19.8406 11.7412 19.8794 11.877 19.8794C12.1681 19.9764 12.3815 19.9764 12.6338 19.9376C12.8278 19.9376 12.9831 19.8794 13.1383 19.8794C13.3324 19.8794 13.4294 19.8211 13.6429 19.8211H13.9339C14.031 19.8211 14.128 19.8211 14.2832 19.8794C14.5355 19.9376 14.7878 20.0346 14.7878 20.0346V16.037H10.9844V19.0061" fill="#FFCE31"/>
<path d="M11.4492 19.7047L11.6045 19.8018L11.8567 19.86V16.1146H11.4492V19.7047Z" fill="#C94747"/>
<path d="M13.5442 19.86V16.1146H13.1367V19.9182C13.1367 19.8988 13.389 19.86 13.5442 19.86Z" fill="#C94747"/>
<path d="M14.3997 16.0952H13.9922V19.8988C14.1474 19.8988 14.2833 19.957 14.3997 19.9958V16.0952Z" fill="#C94747"/>
<path d="M12.6924 16.0952V19.9376H12.2461V16.0952H12.6924Z" fill="#C94747"/>
<path d="M18.9988 19.0061C18.9988 19.0643 18.9406 19.2002 18.9018 19.2972C18.8436 19.3942 18.8436 19.3942 18.7077 19.5883C18.6107 19.6853 18.5137 19.7435 18.4167 19.7823C18.3196 19.8406 18.2614 19.8794 18.1256 19.8794C17.8345 19.9764 17.621 19.9764 17.3688 19.9376C17.1747 19.9376 17.0195 19.8794 16.8643 19.8794C16.6702 19.8794 16.5732 19.8211 16.3597 19.8211H16.0687C15.9716 19.8211 15.8746 19.8211 15.7194 19.8794C15.4671 19.9376 15.2148 20.0346 15.2148 20.0346V16.037H19.0182V19.0061" fill="#FFCE31"/>
<path d="M16.1462 16.4058C15.9909 16.5028 15.9521 16.658 15.7969 16.7551C15.8939 16.9491 16.088 16.9103 16.2432 17.0073C16.3402 17.0073 16.4372 17.2984 16.4372 17.3566C16.282 17.5119 16.4955 17.9582 16.5343 17.803C16.5925 17.6477 16.3402 17.3566 16.6895 17.4537C16.7865 17.5119 16.8447 17.8612 16.7477 17.9582C16.8059 18.1135 16.9418 18.0165 16.9418 17.8612C16.8836 17.6089 16.9418 17.4537 17.194 17.4537C17.4851 17.4537 17.4463 17.5507 17.6015 17.5507H17.7568L17.8538 17.4537C17.8538 17.6089 17.6597 17.803 17.5627 17.9C17.7568 17.997 18.0672 17.6089 18.0672 17.4537C18.2613 17.5507 18.1255 17.9 18.009 17.997C18.5136 18.0941 18.0673 17.1044 18.2031 16.9879C18.6494 16.7357 17.9508 16.5804 17.7568 16.5804C17.3493 16.5804 16.8059 16.7745 16.4566 16.6386C16.5537 16.5804 16.5537 16.5416 16.6119 16.4834C16.4954 16.4058 16.3014 16.5028 16.1462 16.4058Z" fill="#C94747"/>
<path d="M16.1462 18.094C15.9909 18.191 15.9521 18.3463 15.7969 18.4433C15.8939 18.6374 16.088 18.5986 16.2432 18.6956C16.3402 18.6956 16.4372 18.9867 16.4372 19.0449C16.282 19.2001 16.4955 19.6465 16.5343 19.4912C16.5731 19.336 16.3402 19.0449 16.6895 19.1419C16.7865 19.2001 16.8447 19.5494 16.7477 19.6465C16.8059 19.8017 16.9418 19.7047 16.9418 19.5494C16.8836 19.2972 16.9418 19.1419 17.194 19.1419C17.4851 19.1419 17.4463 19.239 17.6015 19.239H17.7568L17.8538 19.1419C17.8538 19.2972 17.6597 19.4912 17.5627 19.5883C17.7568 19.6853 18.0672 19.2972 18.0672 19.1419C18.2613 19.239 18.1255 19.5883 18.009 19.6853C18.5136 19.7823 18.0673 18.7926 18.2031 18.6762C18.6494 18.4239 17.9508 18.2687 17.7568 18.2687C17.3493 18.2687 16.8059 18.4627 16.4566 18.3269C16.5537 18.2687 16.5537 18.2298 16.6119 18.1716C16.4954 18.094 16.3014 18.2104 16.1462 18.094Z" fill="#C94747"/>
</svg>
