<svg width="30" height="31" viewBox="0 0 30 31" fill="none" xmlns="http://www.w3.org/2000/svg">
<path d="M15 30.0594C23.3053 30.0594 30 23.3643 30 15.0586H0C0 23.3643 6.69468 30.0594 15 30.0594Z" fill="#3E4347"/>
<path d="M15 0.0578613C6.69468 0.0578613 0 6.75293 0 15.0587H30C30 6.77233 23.2859 0.0578613 15 0.0578613Z" fill="#ED4C5C"/>
<path d="M12.7502 11.3134L12.1099 13.3122L13.8175 12.0703L15.5639 13.3122L14.9236 11.3134L16.6312 10.0714H14.4773L13.8369 8.0144L13.1965 10.0714H10.9844L12.7502 11.3134Z" fill="#FFE62E"/>
<path d="M22.9937 23.3645C22.7414 22.957 22.4504 22.6659 22.0429 22.3166C21.6354 21.9673 21.092 21.5598 20.6457 21.1716L19.8501 22.0643C19.7919 22.1225 19.8501 22.2195 19.8501 22.2195C20.7427 22.3748 20.995 22.6659 21.3443 22.9764C21.8488 23.4809 21.9846 24.0243 22.3533 24.2766C22.9355 24.6259 23.3818 23.9661 22.9937 23.3645Z" fill="#FFE62E"/>
<path d="M15.8915 19.9101C15.0377 20.2012 14.0868 20.3176 13.136 20.2012C11.8941 20.0459 10.7298 19.5996 9.77897 18.804L8.82812 19.9489C9.23563 20.2982 9.68195 20.5505 10.07 20.8028L9.77897 21.4043C10.2835 21.6566 10.788 21.9089 11.3314 22.0448L11.5254 21.4432C12.0299 21.5984 12.5345 21.6954 13.0196 21.7343L12.9614 22.3358C13.5047 22.3941 14.0674 22.3941 14.6108 22.3358L14.5526 21.6954C15.0571 21.6372 15.5616 21.5402 16.0467 21.4043L16.2408 22.0059C16.4931 21.9089 16.7453 21.8507 17.0364 21.7148L16.6871 20.3564L15.8915 19.9101Z" fill="#FFE62E"/>
<path d="M20.1428 14.5735C19.9487 16.2812 19.1337 17.7173 17.95 18.7652L19.7547 20.0072C20.007 19.7549 20.201 19.5608 20.3951 19.3085L19.8905 18.901C20.2398 18.4935 20.4921 18.0471 20.7444 17.659L21.3459 17.9501C21.5982 17.4456 21.8504 16.941 21.9863 16.3976L21.3847 16.2036C21.5399 15.699 21.637 15.1945 21.6758 14.7093L22.3162 14.7675C22.3744 14.2242 22.3744 13.6614 22.3162 13.118L21.6758 13.1763C21.6176 12.6717 21.5205 12.1671 21.3847 11.682L21.9863 11.4879C21.831 10.9446 21.637 10.44 21.3459 9.93546L20.7444 10.2266C20.4921 9.78021 20.2398 9.33387 19.8905 8.92635L20.3951 8.51883C20.0458 8.07249 19.6383 7.72318 19.192 7.31566L18.7844 7.82021C18.3769 7.4709 17.9889 7.21863 17.5425 6.96635L17.8336 6.36476C17.3291 6.11248 16.8246 5.86021 16.2812 5.72437L16.0872 6.36476C15.6409 6.20951 15.1363 6.11248 14.6318 6.07367L14.4766 7.56793C17.95 7.91724 20.4921 11.061 20.1428 14.5735Z" fill="#FFE62E"/>
<path d="M17.638 19.6579C15.9304 18.4547 14.2422 17.2516 12.7286 15.8544L12.8256 15.7573C14.281 17.1157 16.0274 18.3577 17.6768 19.5027C18.5307 20.1043 19.3845 20.7058 20.1801 21.3074L20.4711 21.0551C17.6768 19.0563 11.0792 14.4571 10.9627 12.8076C9.66261 15.3498 11.312 16.8635 12.3599 17.5039C15.0572 19.0563 16.8618 20.046 19.7144 21.9478L20.1219 21.5015C19.3457 20.8223 18.4919 20.2207 17.638 19.6579Z" fill="#FFE62E"/>
</svg>
