<svg width="30" height="31" viewBox="0 0 30 31" fill="none" xmlns="http://www.w3.org/2000/svg">
<path d="M5.00781 5.14404H15.2148V15.3516H5.00781V5.14404Z" fill="#2A5F9E"/>
<path d="M8.46061 3.18408V6.13379H4.8125L12.0117 15.1382H15.0195V11.3928L8.46061 3.18408Z" fill="white"/>
<path d="M15 0.137207V15.138H0C0 23.4438 6.69471 30.1388 15 30.1388C23.3053 30.1388 30 23.4438 30 15.138C30 6.85168 23.3053 0.137207 15 0.137207Z" fill="#2A5F9E"/>
<path d="M4.50196 8.59822H1.49419C0.543352 10.597 0 12.7899 0 15.1574H5.99613V6.11426H4.50196V8.59822Z" fill="white"/>
<path d="M15.0007 12.6929L8.50008 4.6394H5.51172L14.0111 15.138H15.0201V12.6929H15.0007Z" fill="#ED4C5C"/>
<path d="M8.45858 1.651V4.65892H4.5V6.15317H14.9981V0.156736C12.6501 0.13733 10.4573 0.700105 8.45858 1.651Z" fill="white"/>
<path d="M14.998 1.65088H8.43913C5.43137 3.10633 2.94756 5.60969 1.49219 8.59821V15.1574H4.49995V4.6588H14.998V1.65088Z" fill="#ED4C5C"/>
<path d="M24.0027 15.8365C23.2071 15.8365 22.5085 15.1379 22.5085 15.1379C22.5085 15.1379 21.8099 15.8365 21.0143 15.8365C20.2575 15.8365 19.0156 15.1379 19.0156 15.1379C19.0156 15.1379 19.2097 19.5431 20.0247 21.0373C20.9173 22.6286 22.5279 24.1423 22.5279 24.1423C22.5279 24.1423 24.1191 22.648 25.0312 21.0373C25.8268 19.5431 26.0402 15.1379 26.0402 15.1379C26.0402 15.1379 24.7595 15.8365 24.0027 15.8365Z" fill="white"/>
<path d="M20.4531 20.8047C21.0547 21.8526 22.0055 22.9588 22.51 23.4633C23.0146 22.9588 23.9654 21.872 24.567 20.8047H20.4531Z" fill="#B4D7EE"/>
<path d="M22.5102 16.904C22.0639 17.4085 22.3162 18.7087 21.8699 18.2624C21.4236 17.7578 21.4236 17.0204 21.8699 16.5159C22.3162 16.0113 23.073 16.0113 23.5193 16.5159C23.9656 17.001 22.9566 16.4382 22.5102 16.904Z" fill="#FF8736"/>
<path d="M21.4048 19.1356C22.0452 19.2909 22.996 18.3788 22.8602 19.0386C22.7049 19.679 22.0646 20.0865 21.4048 19.8925C20.7644 19.7372 20.3958 19.0386 20.551 18.3982C20.7062 17.7384 20.7644 18.9416 21.4048 19.1356Z" fill="#FF8736"/>
<path d="M23.8105 18.9997C23.6553 18.3593 22.4134 17.9518 23.0149 17.7578C23.6553 17.6025 24.3151 17.9518 24.4703 18.6116C24.6255 19.252 24.2763 19.9118 23.6165 20.1059C23.0149 20.2999 23.9658 19.6401 23.8105 18.9997Z" fill="#FF8736"/>
</svg>
