<svg width="30" height="31" viewBox="0 0 30 31" fill="none" xmlns="http://www.w3.org/2000/svg">
<path d="M22.5 22.6442C26.6421 18.5018 26.6421 11.7858 22.5 7.6434C18.3579 3.50104 11.6421 3.50104 7.5 7.6434C3.35787 11.7858 3.35787 18.5018 7.5 22.6442C11.6421 26.7866 18.3579 26.7866 22.5 22.6442Z" fill="#3A7DCE"/>
<path d="M9.9149 14.688L9.80512 14.194H9.69534L9.51696 14.3724L9.47579 13.9196L9.26996 13.7412L9.13275 13.8098V13.8784L8.88579 13.7686L8.7074 13.5628L9.13275 13.206L8.41924 12.6434L8.0625 11.3398L10.6833 13.2197L12.3162 12.7943L12.2475 12.5473L12.5631 12.4787L12.7003 11.9436L12.6592 11.7652L12.7689 11.628L12.8375 11.2712L12.7689 11.134L13.0159 10.9281L12.9473 10.393L13.5099 10.146L13.9627 9.69313L13.9216 9.44613L14.2372 9.62452L14.5253 9.44613L14.6351 9.15796L14.7723 9.36379L16.2954 9.4324L16.611 9.72057L17.8459 9.96757L18.0929 10.2146L18.2713 10.146L18.4496 10.7497H18.5594L18.6966 10.5713L19.8218 10.9556L19.8904 11.134L20.1785 11.0653L20.4941 11.3535L20.8097 13.0825L20.5216 14.0431L21.7291 14.3998L21.7977 15.2095L21.5507 15.8132L21.9075 16.1014L21.7291 17.1306L21.1253 17.5834L21.2626 18.297L20.9058 18.544L20.7 18.4753V19.1477H20.4118L20.5216 19.3947L19.9178 19.6417L20.0962 19.9985L19.712 20.4239L19.8218 20.5337L19.5748 20.4651L18.4496 21.1374L18.5183 20.9591L18.1615 21.0277L18.0929 20.8493L17.8047 21.0551L17.695 21.014L17.5166 21.2198L16.2405 21.0414L16.0621 20.9316L15.8563 21.0414L15.4035 20.6846L15.6093 20.4788L15.9249 19.8476V19.4633L15.6779 18.9007L15.3898 19.1889L13.7294 18.7635L13.3727 18.8047L13.0845 18.9831L12.275 18.9145V19.0517L10.5735 18.4479V18.0911H10.2854L10.2168 17.062L10.0109 17.1306L9.69534 16.3896L9.76395 16.568L9.16022 15.9367H9.51696L9.40718 15.2232L9.69534 14.7292L9.9149 14.688Z" fill="white"/>
</svg>
