<svg width="30" height="31" viewBox="0 0 30 31" fill="none" xmlns="http://www.w3.org/2000/svg">
<path d="M27.0114 6.26343H3.00774C1.10607 8.76678 0 11.8717 0 15.2677C0 23.5734 6.69461 30.2684 14.9999 30.2684C23.3051 30.2684 29.9997 23.5734 29.9997 15.2677C30.0192 11.8523 28.9131 8.74737 27.0114 6.26343Z" fill="#ED4C5C"/>
<path d="M9.25458 18.7609H20.7616L24.2545 11.7554H5.76172L9.25458 18.7609Z" fill="#42ADE2"/>
<path d="M9.25458 18.7609H20.7616L24.2545 11.7554H5.76172L9.25458 18.7609Z" fill="#42ADE2"/>
<path d="M24.2562 11.7553L27.0117 6.26348C24.2562 2.61519 19.9095 0.26709 15.0195 0.26709C10.1101 0.26709 5.76342 2.61519 3.02734 6.26348L5.78281 11.7553H24.2562Z" fill="#3E4347"/>
<path d="M9.25781 18.7607L15.0016 30.2684L20.7454 18.7607H9.25781Z" fill="white"/>
<path d="M17.1159 10.3582L19.6191 7.15629L16.4173 9.69844L17.5233 5.73967L15.5247 9.29093L15.0784 5.23511L14.535 9.29093L12.5945 5.73967L13.6424 9.64023L10.4406 7.13687L12.9826 10.3388L9.02407 9.23271L12.5751 11.2315L8.51953 11.6778L8.71358 11.7361H21.3073L17.4652 11.2315L21.0162 9.29093L17.1159 10.3582Z" fill="#FFCE31"/>
</svg>
