<svg width="30" height="31" viewBox="0 0 30 31" fill="none" xmlns="http://www.w3.org/2000/svg">
<path d="M0 15.2776C0 18.2311 0.85495 20.9903 2.3122 23.2832H27.6878C29.1451 20.9709 30 18.2311 30 15.2776C30 12.3241 29.1451 9.56484 27.6878 7.27197H2.3122C0.85495 9.58427 0 12.3241 0 15.2776Z" fill="#F9F9F9"/>
<path d="M27.7463 7.27195C25.0844 3.07484 20.3823 0.257324 15.0196 0.257324C9.65695 0.257324 4.95488 3.05541 2.29297 7.27195H27.7463Z" fill="#B4D7EE"/>
<path d="M2.3125 23.3025C4.97441 27.4996 9.67648 30.3171 15.0392 30.3171C20.4019 30.3171 25.1039 27.519 27.7658 23.3025H2.3125Z" fill="#B4D7EE"/>
<path d="M21.8995 15.1804L17.7997 15.0249V14.9666C18.4409 14.8695 18.9461 14.4614 19.6456 14.5197C20.5005 14.6169 21.0057 14.1117 21.2971 14.0145C21.6469 13.9174 21.8412 14.1117 21.8412 14.0145C21.8995 13.9174 21.6469 13.7231 21.1417 13.7619C20.6948 13.8202 20.5394 14.2088 19.4901 14.1117C18.5964 14.0534 18.2855 14.4032 17.6443 14.4032V14.3449L21.3554 12.6349C21.3554 12.6349 21.4526 12.5766 21.4526 12.4795C21.3943 12.3823 21.2971 12.4212 21.2971 12.4212L17.5471 13.9174V13.8591C18.0912 13.5093 18.4021 12.9653 19.1015 12.7515C19.8982 12.4989 20.209 11.8965 20.4616 11.6439C20.7142 11.3913 21.0057 11.5468 21.0057 11.4496C21.0057 11.3525 20.7142 11.2553 20.3062 11.5079C19.8982 11.7605 19.8982 12.1491 18.9072 12.46C18.0523 12.7126 17.8969 13.1596 17.314 13.4705L17.2557 13.4122L20.0536 10.4003C20.0536 10.4003 20.1507 10.3032 20.1119 10.2449C20.0536 10.1866 19.9565 10.3032 19.9565 10.3032L16.9448 13.1013L16.8865 13.043C17.2946 12.4989 17.3334 11.8965 17.8969 11.4496C18.5381 10.9056 18.5381 10.2449 18.6935 9.95343C18.849 9.66197 19.1404 9.66197 19.1015 9.54538C19.0432 9.44823 18.7518 9.48709 18.4603 9.83685C18.1689 10.2449 18.3049 10.5947 17.5666 11.2359C16.9254 11.7799 16.9254 12.2852 16.5173 12.7321C16.5173 12.7321 16.4591 12.7321 16.4591 12.6738L17.858 8.82643C17.858 8.82643 17.9163 8.72928 17.7997 8.67099C17.7026 8.61269 17.6443 8.76814 17.6443 8.76814L15.9344 12.4795H15.8762C16.0316 11.8382 15.8762 11.2359 16.1676 10.6335C16.5757 9.87571 16.323 9.23449 16.323 8.92359C16.3813 8.57383 16.6145 8.47667 16.5756 8.41837C16.5173 8.32122 16.2259 8.51554 16.0705 8.96245C15.9733 9.40937 16.2259 9.72026 15.779 10.6141C15.371 11.4108 15.5847 11.8188 15.371 12.4212H15.3127L15.1572 8.32122C15.1572 8.32122 15.1572 8.16577 15.0601 8.16577C14.9629 8.16577 14.9629 8.32122 14.9629 8.32122L14.8075 12.4212H14.7492C14.6521 11.78 14.244 11.2747 14.3023 10.5752C14.3995 9.72026 13.8943 9.21505 13.7971 8.92359C13.7 8.63212 13.8943 8.37952 13.7971 8.37952C13.7 8.32123 13.5057 8.57383 13.5446 9.07903C13.6029 9.52595 13.9914 9.6814 13.8943 10.7307C13.836 11.6245 14.1857 11.9354 14.1857 12.5766H14.1275L12.4176 8.8653C12.4176 8.8653 12.3593 8.76814 12.2622 8.76814C12.165 8.82644 12.2039 8.92359 12.2039 8.92359L13.6028 12.7709H13.5446C13.1948 12.2269 12.6508 11.916 12.437 11.2165C12.1844 10.4198 11.5821 10.1089 11.3295 9.85628C11.0769 9.60367 11.2324 9.31221 11.1352 9.31221C11.0381 9.31221 10.9409 9.60367 11.1935 10.0117C11.4461 10.4198 11.8347 10.4198 12.1456 11.4108C12.3982 12.2657 12.8451 12.4212 13.156 13.0041L13.0977 13.0624L10.086 10.2643C10.086 10.2643 9.98886 10.1672 9.93057 10.206C9.87228 10.2643 9.98887 10.3615 9.98887 10.3615L12.7868 13.3733L12.7285 13.4316C12.1844 13.0235 11.5821 12.9847 11.1352 12.4212C10.5912 11.78 9.93057 11.7799 9.63912 11.6245C9.34767 11.4691 9.34765 11.1776 9.23107 11.2165C9.13392 11.2747 9.17278 11.5662 9.52252 11.8577C9.93055 12.1491 10.2803 12.0131 10.9215 12.7515C11.4656 13.3927 11.9707 13.3927 12.4176 13.8008C12.4176 13.8008 12.4176 13.8591 12.3593 13.8591L8.51216 12.46C8.51216 12.46 8.41501 12.4018 8.35671 12.5183C8.29842 12.6155 8.45387 12.6738 8.45387 12.6738L12.165 14.3837V14.442C11.5044 14.2866 10.9215 14.442 10.3192 14.1505C9.5614 13.7425 8.9202 13.9951 8.60931 13.9951C8.25957 13.9368 8.16245 13.7036 8.10416 13.7425C8.00701 13.8008 8.20127 14.0922 8.64817 14.2477C9.09506 14.3449 9.40594 14.0922 10.2997 14.5392C11.0963 14.9472 11.5044 14.7335 12.1067 14.9472V15.0055L8.00701 15.161C8.00701 15.161 7.85156 15.161 7.85156 15.2581C7.85156 15.3553 8.00701 15.3553 8.00701 15.3553L12.1067 15.5107V15.569C11.4655 15.6662 10.9603 16.0742 10.2609 16.0159C9.40595 15.9188 8.90077 16.424 8.60931 16.5211C8.25957 16.6183 8.06526 16.424 8.06526 16.5211C8.00697 16.6183 8.25958 16.8126 8.76476 16.7737C9.26995 16.7349 9.3671 16.3657 10.4163 16.424C11.3101 16.4823 11.621 16.1325 12.2622 16.1325V16.1908L8.55102 17.9007C8.55102 17.9007 8.45387 17.959 8.45387 18.0562C8.45387 18.1533 8.60931 18.1145 8.60931 18.1145L12.4565 16.7154V16.7737C11.9124 17.1235 11.6015 17.6676 10.9021 17.8813C10.1054 18.1339 9.79456 18.7363 9.54197 18.9889C9.28938 19.2415 8.99792 19.086 8.99792 19.1832C8.99792 19.2803 9.28939 19.3775 9.69742 19.1249C10.1054 18.8723 10.1054 18.4837 11.0964 18.1728C11.9513 17.9202 12.1067 17.4733 12.6896 17.1624L12.7479 17.2207L9.95002 20.2325C9.95002 20.2325 9.85286 20.3296 9.89172 20.3879C9.95001 20.4462 10.0472 20.3296 10.0472 20.3296L13.0588 17.5316L13.1171 17.5898C12.709 18.1339 12.6702 18.7363 12.1067 19.1832C11.4655 19.7273 11.4656 20.3879 11.3101 20.6794C11.1547 20.9709 10.8632 20.9708 10.9021 21.0874C10.9604 21.1846 11.2518 21.1457 11.5433 20.796C11.8347 20.4462 11.6987 20.0382 12.437 19.3969C13.0782 18.8529 13.0782 18.3477 13.4863 17.9007C13.4863 17.9007 13.5446 17.9007 13.5446 17.959L12.1456 21.8064C12.1456 21.8064 12.0873 21.9035 12.2039 21.9618C12.301 22.0201 12.3593 21.8647 12.3593 21.8647L14.0692 18.1533H14.1275C13.972 18.7946 14.1275 19.3969 13.836 19.9993C13.428 20.7571 13.6806 21.3983 13.6417 21.7092C13.5834 22.059 13.3503 22.1561 13.3891 22.2144C13.4474 22.3116 13.7388 22.1173 13.8943 21.6704C13.9914 21.2235 13.7388 20.9708 14.1857 20.0187C14.5938 19.2221 14.38 18.814 14.5938 18.2116H14.6521L14.8075 22.3116C14.8075 22.3116 14.8075 22.467 14.9047 22.467C15.0018 22.467 15.0018 22.3116 15.0018 22.3116L15.1572 18.2116H15.2155C15.3127 18.8529 15.7207 19.3581 15.6624 20.0576C15.5653 20.9126 16.0705 21.4178 16.1676 21.7092C16.2648 22.059 16.0705 22.2533 16.1676 22.2533C16.2648 22.3116 16.459 22.059 16.4202 21.5538C16.3619 21.1069 15.9733 20.9514 16.0705 19.9021C16.1288 19.0083 15.779 18.6974 15.779 18.0562H15.8373L17.5471 21.7675C17.5471 21.7675 17.6054 21.8647 17.7026 21.8647C17.7997 21.8064 17.7609 21.7092 17.7609 21.7092L16.3036 17.8036H16.3619C16.7117 18.3477 17.2557 18.6586 17.4694 19.3581C17.722 20.1548 18.3243 20.4656 18.5769 20.7183C18.8295 20.9709 18.6741 21.2623 18.7712 21.2623C18.8684 21.2623 18.9655 20.9708 18.7129 20.5628C18.4603 20.1547 18.0718 20.1548 17.7609 19.1638C17.5083 18.3088 17.0614 18.1533 16.7505 17.5704L16.8088 17.5121L19.8204 20.3102C19.8204 20.3102 19.9176 20.4073 19.9759 20.3685C20.0342 20.3296 19.9176 20.213 19.9176 20.213L17.1197 17.2012L17.178 17.1429C17.722 17.551 18.3243 17.5898 18.7712 18.1533C19.3153 18.7946 19.9759 18.7946 20.2673 18.95C20.5588 19.1055 20.5588 19.3969 20.6754 19.3581C20.7725 19.2998 20.7337 19.0083 20.3839 18.7168C19.9759 18.4254 19.6262 18.5614 18.985 17.823C18.4409 17.1818 17.9357 17.1818 17.4888 16.7154C17.4888 16.7154 17.4888 16.6572 17.5471 16.6572L21.3943 18.0562C21.3943 18.0562 21.4914 18.1145 21.5497 17.9979C21.608 17.9007 21.4526 17.8424 21.4526 17.8424L17.7414 16.1325V16.0742C18.3826 16.2297 18.985 16.0742 19.5873 16.3657C20.3451 16.7737 20.9863 16.5211 21.2971 16.5211C21.6469 16.5794 21.744 16.8126 21.8023 16.7737C21.8995 16.7154 21.7052 16.424 21.2583 16.2685C20.8114 16.1714 20.5005 16.424 19.6067 15.9771C18.8101 15.569 18.4021 15.7828 17.7997 15.569V15.5107L21.8995 15.3553C21.8995 15.3553 22.0549 15.3553 22.0549 15.2581C22.0355 15.1804 21.8995 15.1804 21.8995 15.1804Z" fill="#F6B40E"/>
<path d="M16.5336 14.9279C16.3781 14.7724 16.1838 14.6753 15.9895 14.6753C15.7952 14.6753 15.6398 14.7724 15.4844 14.9279C15.737 15.1416 16.1838 15.1416 16.5336 14.9279ZM16.3781 14.889C16.281 14.9862 16.1838 15.0445 16.0867 15.0445C16.145 14.9862 16.1838 14.9473 16.1838 14.889C16.1838 14.8307 16.1255 14.7919 16.0867 14.7336C16.2227 14.7919 16.3198 14.8307 16.3781 14.889ZM15.8341 14.7336C15.7758 14.7919 15.7758 14.8307 15.7758 14.889C15.7758 14.9473 15.8341 15.0445 15.873 15.0445C15.7758 15.0445 15.6787 14.9862 15.5815 14.889C15.6787 14.8307 15.7369 14.7919 15.8341 14.7336Z" fill="#85340A"/>
<path d="M16.0279 14.5391C15.7364 14.5391 15.6782 14.5974 15.581 14.6945C15.4256 14.7917 15.3867 14.7917 15.3867 14.7917C15.3867 14.7917 15.3867 14.8888 15.445 14.85C15.5033 14.85 15.6004 14.7917 15.6976 14.6945C15.853 14.5974 15.9502 14.5974 16.1056 14.5974C16.5137 14.5974 16.708 14.8888 16.7468 14.8888C16.7857 14.8888 16.4359 14.5391 16.0279 14.5391Z" fill="#85340A"/>
<path d="M15.1736 14.4809C15.1153 14.5781 15.1153 14.6364 15.1153 14.7335C15.057 15.025 15.1153 15.3748 15.3096 15.7439C15.3096 15.7439 15.3679 15.6857 15.4068 15.6857C15.2125 15.433 15.1542 15.1416 15.1542 14.889C15.1542 14.7335 15.2513 14.6364 15.3096 14.5392C15.6594 14.2477 16.2617 14.2866 16.7669 14.6947C16.32 14.034 15.6788 14.0923 15.1736 14.4809Z" fill="#85340A"/>
<path d="M15.6803 15.1415C15.5248 15.0444 15.486 14.9861 15.4277 14.9861C15.3694 14.9861 15.3694 15.0444 15.5831 15.1415C15.7774 15.2387 16.1854 15.297 16.5352 14.9861C16.1271 15.1804 15.8357 15.1804 15.6803 15.1415Z" fill="#85340A"/>
<path d="M15.4282 15.9381C15.3699 15.9381 15.3311 15.8799 15.2728 15.841C15.2728 15.8993 15.1756 15.9964 15.0202 15.9964C14.8647 15.9964 14.7676 15.841 14.7676 15.841C14.7676 15.8993 14.7093 15.9381 14.6122 15.9381C14.5539 15.9381 14.4567 15.8799 14.4567 15.7827C14.4567 15.7244 14.515 15.6855 14.5539 15.6855C14.4567 15.6855 14.3984 15.7827 14.3984 15.8799C14.3984 15.977 14.4956 16.0742 14.5927 16.0742C14.651 16.0742 14.6899 16.0159 14.7482 15.977C14.8065 16.0353 14.9425 16.0353 15.0008 16.0353H15.059C15.1173 16.0353 15.2145 16.0353 15.3116 15.977C15.3699 16.0353 15.4088 16.0742 15.4671 16.0742C15.5642 16.0742 15.6614 15.977 15.6614 15.8799C15.6614 15.7827 15.6031 15.7244 15.5059 15.6855C15.5642 15.6855 15.6031 15.7438 15.6031 15.7827C15.5837 15.8799 15.5254 15.9381 15.4282 15.9381Z" fill="#85340A"/>
<path d="M15.0393 16.385C15.1365 16.385 15.2337 16.2878 15.3891 16.385C15.5445 16.4822 15.6416 16.5404 15.7388 16.5793C15.5445 16.4239 15.4474 16.2878 15.2336 16.2878C15.1754 16.2878 15.0782 16.2879 15.0393 16.3461C14.9422 16.2879 14.8839 16.2878 14.845 16.2878C14.6507 16.2878 14.5536 16.4822 14.3398 16.5793C14.437 16.521 14.5342 16.4239 14.6896 16.385C14.8256 16.3267 14.9228 16.385 15.0393 16.385Z" fill="#85340A"/>
<path d="M15.0393 16.5405C14.9422 16.5405 14.8839 16.4822 14.7479 16.5405C14.6507 16.5405 14.5536 16.5405 14.3981 16.5988H14.3398C14.7867 16.6571 14.5925 16.8902 15.0393 16.8902C15.4862 16.8902 15.2919 16.6376 15.7388 16.5988H15.6416C15.2336 16.4433 15.1754 16.5405 15.0393 16.5405ZM15.0393 16.7931C14.6896 16.7931 14.7867 16.5405 14.3981 16.5405C14.8062 16.4433 14.845 16.5988 15.0393 16.5988C15.1948 16.5988 15.2919 16.5016 15.6805 16.5405C15.2725 16.5794 15.3891 16.7931 15.0393 16.7931Z" fill="#85340A"/>
<path d="M15.0409 16.8904C14.8466 16.8904 14.6328 17.0458 14.6328 17.2984C14.6911 17.1041 14.8271 17.007 15.0409 17.007C15.2546 17.007 15.3906 17.1624 15.4489 17.2984C15.4294 17.0458 15.2352 16.8904 15.0409 16.8904Z" fill="#85340A"/>
<path d="M14.7268 14.5392C14.8239 14.6363 14.8822 14.7918 14.8822 14.8889C14.9405 15.1415 14.8239 15.3941 14.6296 15.6856C14.6296 15.6856 14.6879 15.6856 14.7268 15.7439C14.8822 15.3941 14.9794 15.1027 14.9211 14.7335C14.9211 14.6363 14.8628 14.578 14.8628 14.4809C14.4159 14.0728 13.7553 14.034 13.2695 14.6752C13.7747 14.2283 14.4353 14.1894 14.7268 14.5392Z" fill="#85340A"/>
<path d="M14.4368 14.7333C14.5923 14.8305 14.6311 14.8888 14.6894 14.8888C14.7477 14.8888 14.7477 14.8305 14.7477 14.8305C14.7477 14.8305 14.6506 14.8305 14.5534 14.7333C14.398 14.6362 14.3591 14.5779 14.1065 14.5779C13.6596 14.5779 13.407 14.9276 13.4653 14.9276C13.5236 14.9276 13.7179 14.6362 14.1065 14.6362C14.1842 14.6362 14.3202 14.6362 14.4368 14.7333Z" fill="#85340A"/>
<path d="M13.582 14.9279C13.6792 15.025 13.8735 15.0834 14.0872 15.0834C14.2426 15.0834 14.4369 15.025 14.5924 14.9279C14.4369 14.7724 14.2426 14.6753 14.0483 14.6753C13.8735 14.6753 13.6792 14.7919 13.582 14.9279ZM13.6792 14.9279C13.7763 14.8307 13.8735 14.7336 13.9706 14.7336C13.9123 14.7919 13.8735 14.8307 13.8735 14.889C13.8735 14.9862 13.9318 15.0445 13.9706 15.0445C13.8735 15.0834 13.7375 15.025 13.6792 14.9279ZM14.4369 14.889C14.3786 14.9473 14.2815 14.9862 14.1843 15.0445C14.2426 14.9862 14.2426 14.9473 14.2426 14.889C14.2426 14.8307 14.1843 14.7919 14.1843 14.7336C14.3203 14.7919 14.4369 14.8307 14.4369 14.889Z" fill="#85340A"/>
<path d="M14.67 14.9861C14.6117 14.9861 14.5729 15.0444 14.4174 15.1415C14.262 15.2387 13.9705 15.2387 13.5625 15.0444C13.9122 15.3358 14.3203 15.297 14.5146 15.1998C14.7283 15.0249 14.7283 14.9861 14.67 14.9861Z" fill="#85340A"/>
</svg>
