<svg width="30" height="31" viewBox="0 0 30 31" fill="none" xmlns="http://www.w3.org/2000/svg">
<path d="M15.0212 0.350098C8.46235 0.350098 2.91251 4.54178 0.875 10.3442H29.1674C27.1104 4.56119 21.5607 0.350098 15.0212 0.350098Z" fill="#ED4C5C"/>
<path d="M15.0212 30.352C21.5801 30.352 27.1298 26.1991 29.1674 20.3579H0.875C2.91251 26.2185 8.46235 30.352 15.0212 30.352Z" fill="#F2B200"/>
<path d="M0.853844 10.3638C0.310507 11.9162 0 13.6046 0 15.3705C0 17.117 0.291102 18.8248 0.853844 20.3772H29.1462C29.6895 18.8248 30 17.1364 30 15.3705C30 13.624 29.7089 11.9162 29.1462 10.3638H0.853844Z" fill="#2A5F9E"/>
</svg>
