<svg width="30" height="31" viewBox="0 0 30 31" fill="none" xmlns="http://www.w3.org/2000/svg">
<path d="M28.7581 21.3384V19.3202H29.4567C29.8059 18.0782 30 16.7198 30 15.3226C30 7.01684 23.3053 0.321777 15 0.321777C6.6947 0.321777 0 7.01684 0 15.3226C0 16.7198 0.194059 18.0782 0.543347 19.3202H1.24194V21.319C1.68825 22.3669 2.28981 23.4148 2.98838 24.3269H4.793V26.3257C7.49028 28.8291 11.0414 30.3234 15 30.3234C18.9586 30.3234 22.5097 28.8291 25.207 26.3257V24.3269H27.0116C27.7102 23.4343 28.3117 22.3863 28.7581 21.3384Z" fill="#42ADE2"/>
<path d="M1.26105 21.3382H28.7578C29.0489 20.6978 29.2623 20.038 29.4564 19.3394H0.5625C0.756549 20.038 0.95057 20.6784 1.26105 21.3382Z" fill="#FFE62E"/>
<path d="M3.00781 24.3271C3.55115 25.0258 4.15271 25.7244 4.81248 26.326H25.2071C25.8474 25.7244 26.4489 25.0258 27.0117 24.3271H3.00781Z" fill="#FFE62E"/>
<path d="M10.014 16.1767L8.17054 11.1699L3.16406 9.32637L8.17054 7.4828L10.014 2.47607L11.8575 7.4828L16.8639 9.32637L11.8575 11.1699L10.014 16.1767Z" fill="white"/>
<path d="M8.90698 8.22009L10.0131 5.32861L11.1191 8.22009L14.0104 9.32623L11.1191 10.4324L10.0131 13.3239L8.90698 10.4324L6.01562 9.32623L8.90698 8.22009Z" fill="#C94747"/>
</svg>
