<svg width="30" height="31" viewBox="0 0 30 31" fill="none" xmlns="http://www.w3.org/2000/svg">
<path d="M5.00781 5.36768H15.4088V15.7693H5.00781V5.36768Z" fill="#2A5F9E"/>
<path d="M8.46063 3.40771V6.35742H4.8125L12.0117 15.3618H15.0194V11.6164L8.46063 3.40771Z" fill="white"/>
<path d="M15 0.36084V15.3616H0C0 23.6674 6.6947 30.3624 15 30.3624C23.3053 30.3624 30 23.6674 30 15.3616C30 7.0753 23.2471 0.36084 15 0.36084Z" fill="#2A5F9E"/>
<path d="M4.50193 8.82185H1.49417C0.543328 10.8207 0 13.0135 0 15.3811H5.9961V6.33789H4.50193V8.82185Z" fill="white"/>
<path d="M15.0006 12.9167L8.49995 4.86328H5.49219L13.9915 15.3619H15.0006V12.9167Z" fill="#ED4C5C"/>
<path d="M8.45863 1.87463V4.88255H4.5V6.3768H14.9981V0.380369C12.6501 0.360963 10.3991 0.923738 8.45863 1.87463Z" fill="white"/>
<path d="M15.0019 1.87451H8.44306C5.39649 3.32996 2.95146 5.83332 1.49609 8.82184V15.381H4.50385V4.88243H15.0019V1.87451Z" fill="#ED4C5C"/>
<path d="M24.0039 13.3242C24.295 12.5674 24.9547 12.121 25.4981 12.3151C25.6533 12.3733 25.7892 12.4704 25.8474 12.6062C25.7892 12.1599 25.5951 11.7523 25.2458 11.5971C24.7025 11.403 24.0039 11.8494 23.7516 12.6062C23.5576 13.1496 23.5964 13.7123 23.8487 14.0616C23.9069 13.8676 23.9069 13.6153 24.0039 13.3242Z" fill="white"/>
<path d="M20.1032 11.6161C19.5598 11.4221 18.9 11.8684 18.6089 12.6252C18.4537 12.9745 18.4537 13.2656 18.5119 13.5761C18.2596 13.7702 17.9104 13.8672 17.5029 13.9254C17.2118 13.9254 16.9595 13.9254 16.7461 13.8284C16.9984 14.1777 17.5417 14.3718 18.1044 14.3718C18.9 14.3136 19.5598 13.8284 19.5016 13.2268C19.5016 13.0328 19.4045 12.8193 19.2493 12.6835C19.5404 12.3924 20.0061 12.2371 20.3554 12.3341C20.5106 12.3924 20.6465 12.4894 20.7047 12.6252C20.7047 12.1207 20.4524 11.7714 20.1032 11.6161Z" fill="white"/>
<path d="M28.8557 13.1685C28.3512 12.6252 27.7108 12.4699 27.4003 12.9162C27.3033 13.0133 27.2451 13.1685 27.2451 13.3238C27.0898 12.8774 27.1481 12.4699 27.3421 12.1788C27.6914 11.7713 28.3512 11.8877 28.7975 12.4311C29.1468 12.8386 29.302 13.382 29.2438 13.7895C29.1468 13.576 29.0109 13.3238 28.8557 13.1685Z" fill="white"/>
<path d="M17.1556 12.9164C17.4078 12.3731 17.2526 11.8103 16.8645 11.7133C16.7675 11.655 16.6123 11.7133 16.457 11.7133C16.7093 11.461 17.0586 11.3057 17.3496 11.4222C17.7959 11.5192 17.893 12.0626 17.6407 12.6253C17.4467 13.0329 17.0974 13.324 16.7481 13.421C16.9616 13.324 17.0974 13.1105 17.1556 12.9164Z" fill="white"/>
<path d="M20.3555 15.2644C20.3555 15.2644 20.4137 17.8066 20.4137 18.02C20.4719 18.2723 20.6078 19.7278 22.6647 20.5622C22.6647 20.5622 24.2559 19.8636 24.6634 18.9127C25.0709 17.9618 25.0126 16.1571 25.0126 16.1571V15.1479L20.3555 15.2644Z" fill="black"/>
<path d="M20.5508 15.4783C20.5508 15.4783 20.609 17.8264 20.609 18.0204C20.6672 18.2145 20.7643 19.5729 22.7047 20.3686C22.7047 20.3686 24.1989 19.7282 24.6064 18.8743C25.0139 17.9816 24.8975 16.3321 24.8975 16.3321V15.4395L20.5508 15.4783Z" fill="white"/>
<path d="M24.8975 16.2155L24.2959 16.0215L23.5004 16.3708L22.7047 16.1185L22.0061 16.3708L21.1524 16.0215L20.5508 16.2738V17.0694L21.1524 16.8171L22.0061 17.1664L22.7047 16.9142L23.5004 17.1664L24.2959 16.8171L24.9363 17.0112L24.8975 16.2155Z" fill="#1B81B6"/>
<path d="M20.9954 19.068C21.0536 19.068 22.0433 19.3591 22.0433 19.3591L22.7419 19.068L23.5375 19.3591C23.5375 19.3591 24.4301 19.0098 24.5465 19.0098C24.7988 19.068 23.1882 20.3682 22.7419 20.3682C22.3538 20.4264 20.7432 19.165 20.9954 19.068Z" fill="#1B81B6"/>
<path d="M24.7621 18.3697C24.665 18.3115 24.2575 18.2145 24.2575 18.2145L23.5007 18.5638L22.7051 18.2727L22.0065 18.5638L21.2109 18.2145C21.2109 18.2145 20.8034 18.3115 20.7064 18.4085C20.6482 18.4668 20.6094 17.807 20.6094 17.807L21.2109 17.5547L22.0065 17.904L22.7051 17.6129L23.5007 17.904L24.2575 17.5547L24.8979 17.7487C24.8591 17.7682 24.8009 18.428 24.7621 18.3697Z" fill="#1B81B6"/>
<path d="M22.7991 16.4678L20.7422 18.6607C20.8392 18.8547 20.9362 19.0682 21.0915 19.301L22.7991 17.5545L24.3903 19.2622C24.5456 19.0682 24.6814 18.8159 24.7396 18.5636L22.7991 16.4678Z" fill="url(#paint0_linear_518_24161)"/>
<path d="M21.3438 13.5179L21.6348 14.2165H23.7306L24.0216 13.5179L22.6633 10.3159L21.3438 13.5179Z" fill="black"/>
<path d="M21.4609 13.421L21.752 14.1196H23.6537L23.9059 13.421L22.7028 10.5684L21.4609 13.421Z" fill="#7ED16D"/>
<path d="M21.1133 12.8193L22.1611 14.1195L23.4612 14.0613L23.7135 13.1686L22.8209 13.1104L22.2194 13.4015L21.1133 12.8193Z" fill="#93695A"/>
<path d="M22.6068 13.9258L21.0156 14.3721L21.7724 15.2648V16.1187L22.568 16.0216C22.568 16.0216 22.9755 15.2648 23.0143 15.2648C23.0531 15.2648 23.7711 15.5171 23.7711 15.5171L23.9264 15.1095L24.819 14.8184L23.2666 14.3721L23.3248 13.9646L22.6068 13.9258Z" fill="#6BAAA7"/>
<path d="M24.9935 14.2746C24.7025 14.4299 24.392 14.5269 24.1009 14.4687C24.4502 14.4105 24.7995 14.1194 24.8965 13.7701C24.9935 13.3626 24.8965 12.9744 24.6054 12.7222C24.6637 12.9162 24.6637 13.0715 24.6054 13.2655C24.4502 13.8089 23.8487 14.2164 23.3053 13.9642C23.0531 13.8671 23.0143 13.5178 23.0143 13.3626C22.859 13.7119 22.8202 14.1194 23.0143 14.4687C22.956 14.5269 22.956 14.5657 22.9172 14.6239C22.7232 15.1285 22.9754 15.6719 23.4605 15.8271C23.8098 15.9824 24.2174 15.8853 24.4696 15.6331C24.3144 15.6913 24.1203 15.6331 23.9651 15.5748C23.674 15.4778 23.4605 15.2255 23.4217 14.9733C23.868 15.3226 24.4696 15.3808 24.9741 15.0703C25.4204 14.7792 25.6145 14.2746 25.5757 13.7701C25.401 13.9253 25.2458 14.1194 24.9935 14.2746Z" fill="url(#paint1_linear_518_24161)"/>
<path d="M20.3571 12.3148C20.6093 13.0717 20.4153 13.8673 19.8526 14.0614C19.6973 14.1196 19.5615 14.1196 19.4062 14.0614C19.6973 14.4107 20.163 14.5659 20.5123 14.4107C21.0557 14.2166 21.3079 13.4598 21.0169 12.6641C20.8228 12.1208 20.4153 11.7132 20.0078 11.6162C20.1048 11.8103 20.26 12.0626 20.3571 12.3148Z" fill="url(#paint2_linear_518_24161)"/>
<path d="M17.0944 12.9748C16.9392 13.3823 17.0944 13.7704 17.3467 13.8675C17.4437 13.9257 17.5019 13.9257 17.5989 13.8675C17.4437 14.0615 17.1914 14.1198 17.0556 14.0615C16.7645 13.9645 16.6481 13.557 16.8034 13.1689C16.9004 12.8778 17.0944 12.6643 17.3467 12.6255C17.2108 12.7225 17.1527 12.8195 17.0944 12.9748Z" fill="url(#paint3_linear_518_24161)"/>
<path d="M28.0592 12.0626C27.6517 12.1597 27.3606 12.4702 27.4188 12.7613C27.4188 12.8583 27.4771 12.9165 27.5159 12.9553C27.2636 12.8971 27.1084 12.7613 27.0695 12.5478C27.0113 12.2567 27.3218 11.9462 27.7099 11.8492C28.001 11.791 28.3114 11.8492 28.4667 12.0432H28.0592" fill="url(#paint4_linear_518_24161)"/>
<path d="M27.0126 13.1104C26.3722 13.2656 25.7707 12.9163 25.6543 12.3536C25.596 12.1983 25.6543 12.0625 25.7125 11.9072C25.4214 12.1595 25.2079 12.5476 25.305 12.9552C25.402 13.4985 26.0035 13.8478 26.6633 13.712C27.1096 13.615 27.5172 13.2656 27.6142 12.8581C27.4589 12.9163 27.2455 13.0134 27.0126 13.1104Z" fill="url(#paint5_linear_518_24161)"/>
<path d="M17.0962 21.028C16.4559 20.7757 18.5516 19.6696 19.4442 19.7278C20.1428 19.786 21.5399 20.9698 21.0354 21.125C18.6098 21.7654 18.6486 21.6102 17.0962 21.028Z" fill="#74948F"/>
<path d="M19.3486 15.2648C19.4068 15.0708 19.6009 14.6632 19.7562 14.508C19.9114 14.3528 20.2995 14.2169 20.5129 14.2557C20.6682 14.2557 21.0175 14.4498 20.9592 14.5468H20.804C20.6488 14.605 20.61 14.9931 20.5129 15.1484C20.4159 15.2454 20.1054 15.3036 20.0666 15.4007C20.0084 15.4977 20.1248 15.9052 20.1248 15.9052L19.3681 15.9634C19.3487 15.9634 19.3098 15.4783 19.3486 15.2648Z" fill="#E5C9BD"/>
<path d="M19.5589 17.8262C19.5589 17.8844 19.9082 18.7188 20.0052 19.0682C20.1604 19.6697 19.2096 20.7177 19.2484 20.2131C19.3454 19.5727 18.9961 18.9129 18.9961 18.9129L19.5589 17.8262Z" fill="#C6A397"/>
<path d="M19.308 18.3115C19.2498 18.3697 19.3662 19.2624 19.3662 19.6117C19.308 20.2521 18.1243 20.9119 18.3183 20.4656C18.6094 19.864 18.4736 19.1654 18.4736 19.1654L19.308 18.3115Z" fill="#E5C9BD"/>
<path d="M19.8125 16.0215C19.8125 16.0797 20.6081 16.5649 20.8603 16.7783C21.3067 17.2247 21.1126 18.5831 20.9186 18.1367C20.6275 17.5352 20.0259 17.1858 20.0259 17.1858L19.8125 16.0215Z" fill="#E5C9BD"/>
<path d="M19.5603 15.5752C18.9587 15.6334 18.1049 16.8172 17.8526 17.3799C17.6004 17.9815 17.2511 19.8833 17.6004 19.9803C18.0467 20.1356 19.5409 18.9712 19.9096 18.3308C20.2006 17.8263 20.3559 16.5261 20.1036 15.9827C20.1036 15.8663 19.7543 15.5752 19.5603 15.5752Z" fill="#D66B3C"/>
<path d="M28.3514 21.028C28.9917 20.7757 26.896 19.6696 26.0034 19.7278C25.3048 19.786 23.9076 20.9698 24.4122 21.125C26.8572 21.7654 26.7602 21.6102 28.3514 21.028Z" fill="#74948F"/>
<path d="M26.1015 15.2648C26.0433 15.0708 25.8492 14.6632 25.6939 14.508C25.5387 14.3528 25.1506 14.2169 24.9372 14.2557C24.7819 14.2557 24.4326 14.4498 24.4909 14.5468H24.6461C24.8013 14.605 24.8401 14.9931 24.9372 15.1484C25.0342 15.2454 25.3447 15.3036 25.3835 15.4007C25.4417 15.4977 25.3253 15.9052 25.3253 15.9052L26.082 15.9634C26.0626 15.9634 26.1597 15.4783 26.1015 15.2648Z" fill="#E5C9BD"/>
<path d="M25.9049 17.8262C25.9049 17.8844 25.5556 18.7188 25.4586 19.0682C25.3033 19.6697 26.2542 20.7177 26.2154 20.2131C26.1183 19.5727 26.4676 18.9129 26.4676 18.9129L25.9049 17.8262Z" fill="#C6A397"/>
<path d="M26.1598 18.3115C26.218 18.3697 26.1016 19.2624 26.1016 19.6117C26.1598 20.2521 27.3435 20.9119 27.1494 20.4656C26.8583 19.864 26.9942 19.1654 26.9942 19.1654L26.1598 18.3115Z" fill="#E5C9BD"/>
<path d="M25.6517 16.0215C25.6517 16.0797 24.8562 16.5649 24.6039 16.7783C24.1576 17.2247 24.3516 18.5831 24.5457 18.1367C24.8367 17.5352 25.4383 17.1858 25.4383 17.1858L25.6517 16.0215Z" fill="#E5C9BD"/>
<path d="M25.9045 15.5752C26.506 15.6334 27.3599 16.8172 27.6121 17.3799C27.8644 17.9815 28.2137 19.8833 27.8644 19.9803C27.4181 20.1356 25.9239 18.9712 25.5552 18.3308C25.2641 17.8263 25.1089 16.5261 25.3611 15.9827C25.3611 15.8663 25.7104 15.5752 25.9045 15.5752Z" fill="#D66B3C"/>
<defs>
<linearGradient id="paint0_linear_518_24161" x1="21.5801" y1="17.5227" x2="23.9321" y2="19.8746" gradientUnits="userSpaceOnUse">
<stop stop-color="#288549"/>
<stop offset="1" stop-color="#288549"/>
</linearGradient>
<linearGradient id="paint1_linear_518_24161" x1="22.834" y1="14.3034" x2="25.5091" y2="14.3034" gradientUnits="userSpaceOnUse">
<stop stop-color="#288549"/>
<stop offset="1" stop-color="#288549"/>
</linearGradient>
<linearGradient id="paint2_linear_518_24161" x1="20.0844" y1="14.5777" x2="21.3821" y2="12.4631" gradientUnits="userSpaceOnUse">
<stop stop-color="#288549"/>
<stop offset="1" stop-color="#288549"/>
</linearGradient>
<linearGradient id="paint3_linear_518_24161" x1="17.2769" y1="14.1184" x2="16.5962" y2="13.0092" gradientUnits="userSpaceOnUse">
<stop stop-color="#288549"/>
<stop offset="1" stop-color="#288549"/>
</linearGradient>
<linearGradient id="paint4_linear_518_24161" x1="27.1108" y1="12.7996" x2="27.7171" y2="11.6487" gradientUnits="userSpaceOnUse">
<stop stop-color="#288549"/>
<stop offset="1" stop-color="#288549"/>
</linearGradient>
<linearGradient id="paint5_linear_518_24161" x1="25.138" y1="12.5334" x2="26.7924" y2="13.9009" gradientUnits="userSpaceOnUse">
<stop stop-color="#288549"/>
<stop offset="1" stop-color="#288549"/>
</linearGradient>
</defs>
</svg>
