<svg width="30" height="31" viewBox="0 0 30 31" fill="none" xmlns="http://www.w3.org/2000/svg">
<path d="M15.0017 0.418457C8.44283 0.418457 2.89299 4.61015 0.855469 10.4125H29.1479C27.1104 4.62955 21.5606 0.418457 15.0017 0.418457Z" fill="#ED4C5C"/>
<path d="M15.0017 30.4203C21.5606 30.4203 27.1104 26.2675 29.1479 20.4263H0.855469C2.91239 26.2869 8.46223 30.4203 15.0017 30.4203Z" fill="#ED4C5C"/>
<path d="M0.853798 10.4321C0.31046 11.9846 0 13.6729 0 15.4389C0 17.1854 0.291055 18.8931 0.853798 20.4456H29.1462C29.6895 18.8931 30 17.2048 30 15.4389C30 13.6923 29.7089 11.9846 29.1462 10.4321H0.853798Z" fill="white"/>
</svg>
