<svg width="30" height="31" viewBox="0 0 30 31" fill="none" xmlns="http://www.w3.org/2000/svg">
<path d="M15 0.44043V5.44718H5.00648V15.4413H0C0 23.747 6.69471 30.4421 15 30.4421C23.3053 30.4421 30 23.747 30 15.4413C30 7.15491 23.3053 0.44043 15 0.44043Z" fill="#2A5F9E"/>
<path d="M15 0.44043C12.652 0.44043 10.4593 0.983799 8.44115 1.93469V4.94262H4.48251V8.90144H1.49417C0.543329 10.9003 0 13.0931 0 15.4607H5.99611V7.95054L11.9923 15.4607H15V11.7153L10.8085 6.45628H15V0.44043Z" fill="white"/>
<path d="M6.69531 6.45654L13.9915 15.4609H15.0006V13.0158L9.70308 6.45654H6.69531Z" fill="#ED4C5C"/>
<path d="M14.998 1.9541H8.43916C5.4314 3.40955 2.94756 5.91292 1.49219 8.90144V15.4607H4.49995V4.96203H14.998V1.9541Z" fill="#ED4C5C"/>
<path d="M2.98759 17.3042L4.09366 15.9458L3.74441 17.6923L5.49086 17.7506L3.93846 18.5462L4.98631 19.9434L3.43392 19.2448L2.98759 20.9525L2.54127 19.2448L0.988875 19.9434L2.03677 18.5462L0.484375 17.7506L2.23082 17.6923L1.88152 15.9458L2.98759 17.3042Z" fill="white"/>
<path d="M24.9951 9.54169L25.8877 8.43555L25.5966 9.83278L26.9937 9.89099L25.7518 10.5314L26.6056 11.6375L25.3637 11.036L25.0145 12.4332L24.6652 11.036L23.4233 11.6375L24.2771 10.5314L23.0352 9.89099L24.4323 9.83278L24.1412 8.43555L24.9951 9.54169Z" fill="white"/>
<path d="M24.9951 19.5553L25.8877 18.4492L25.5966 19.8464L26.9937 19.9047L25.7518 20.5451L26.6056 21.6512L25.3637 21.0496L25.0145 22.4468L24.6652 21.0496L23.4233 21.6512L24.2771 20.5451L23.0352 19.9047L24.4323 19.8464L24.1412 18.4492L24.9951 19.5553Z" fill="white"/>
<path d="M20.0067 12.5495L20.8994 11.4434L20.6083 12.8406L22.0055 12.8988L20.7636 13.5392L21.6174 14.6453L20.3755 14.0438L20.0262 15.441L19.6769 14.0438L18.435 14.6453L19.2888 13.5392L18.0469 12.8988L19.444 12.8406L19.1529 11.4434L20.0067 12.5495Z" fill="white"/>
</svg>
