<svg width="30" height="31" viewBox="0 0 30 31" fill="none" xmlns="http://www.w3.org/2000/svg">
<path d="M15.0017 0.375977C8.44283 0.375977 2.89299 4.56767 0.855469 10.3701H29.1479C27.1104 4.58707 21.5606 0.375977 15.0017 0.375977Z" fill="#428BC1"/>
<path d="M15.0017 30.3779C21.5606 30.3779 27.1104 26.225 29.1479 20.3838H0.855469C2.91239 26.2444 8.46223 30.3779 15.0017 30.3779Z" fill="#83BF4F"/>
<path d="M0.853798 10.3896C0.31046 11.9421 0 13.6304 0 15.3964C0 17.1429 0.291055 18.8506 0.853798 20.4031H29.1462C29.6895 18.8506 30 17.1623 30 15.3964C30 13.6498 29.7089 11.9421 29.1462 10.3896H0.853798Z" fill="#ED4C5C"/>
<path d="M14.8077 19.4908C12.5567 19.4908 10.7132 17.6473 10.7132 15.3962C10.7132 13.1451 12.5567 11.3015 14.8077 11.3015C15.351 11.3015 15.8555 11.3985 16.3018 11.5926C15.5062 10.991 14.4971 10.5835 13.4105 10.5835C10.752 10.5835 8.65625 12.7376 8.65625 15.3768C8.65625 18.016 10.8102 20.17 13.4105 20.17C14.5165 20.17 15.5062 19.8207 16.3018 19.1609C15.8555 19.3744 15.3704 19.4908 14.8077 19.4908Z" fill="white"/>
<path d="M19.2115 16.0755L18.1055 16.8323L18.804 15.6874L17.5039 15.3963L18.804 15.1052L18.0473 13.999L19.1921 14.6977L19.4832 13.3975L19.7743 14.6977L20.8803 13.9408L20.1818 15.0858L21.4819 15.3769L20.1818 15.668L20.9386 16.7741L19.7937 16.0755L19.5026 17.3757L19.2115 16.0755Z" fill="white"/>
</svg>
