<svg width="30" height="31" viewBox="0 0 30 31" fill="none" xmlns="http://www.w3.org/2000/svg">
<path d="M29.0117 20.4276C26.2562 20.4276 24.0052 18.1765 24.0052 15.4209H4.40625V26.0165C7.10353 28.714 10.8487 30.4217 15.0013 30.4217C21.5602 30.4217 27.11 26.23 29.1475 20.4276H29.0117Z" fill="#42ADE2"/>
<path d="M29.0118 10.4335H29.167C27.1101 4.63114 21.5603 0.439453 15.0209 0.439453C10.8682 0.439453 7.12306 2.14718 4.42578 4.8446V15.4402H24.0247C24.0053 12.6846 26.2563 10.4335 29.0118 10.4335Z" fill="#42ADE2"/>
<path d="M29.1473 10.4336H4.38672V20.4277H29.1473C29.6906 18.8752 30.0012 17.1869 30.0012 15.4209C30.0012 13.6744 29.71 11.9861 29.1473 10.4336Z" fill="#FFE62E"/>
<path d="M4.40486 4.8252C1.70757 7.52262 0 11.268 0 15.4208C0 19.5737 1.70757 23.3191 4.40486 26.0165L14.9999 15.4208L4.40486 4.8252Z" fill="#3E4347"/>
</svg>
