<svg width="30" height="31" viewBox="0 0 30 31" fill="none" xmlns="http://www.w3.org/2000/svg">
<path d="M12.3997 30.1191L16.9987 27.3634L11.9923 24.3555L16.9987 21.3476L11.9923 18.3397L16.9987 15.3318L11.9923 12.3238L16.9987 9.31592L11.9923 6.308L16.9987 3.30008L12.3997 0.544434C5.35573 1.7476 0 7.89929 0 15.2929C0 22.7642 5.35573 28.9159 12.3997 30.1191Z" fill="#F9F9F9"/>
<path d="M14.9999 0.350586C14.1073 0.350586 13.2534 0.447625 12.3996 0.602873L16.9986 3.35851L11.9922 6.36643L16.9986 9.37435L11.9922 12.3823L16.9986 15.3902L11.9922 18.3981L16.9986 21.406L11.9922 24.414L16.9986 27.4219L12.3996 30.1775C13.2534 30.3328 14.1073 30.4298 14.9999 30.4298C23.3052 30.4298 29.9999 23.7347 29.9999 15.429C29.9999 7.06504 23.3052 0.350586 14.9999 0.350586Z" fill="#C94747"/>
</svg>
