<svg width="30" height="31" viewBox="0 0 30 31" fill="none" xmlns="http://www.w3.org/2000/svg">
<path d="M22.5 22.9399C26.6422 18.7975 26.6421 12.0814 22.5 7.93909C18.3579 3.79672 11.6421 3.7967 7.49999 7.93906C3.35785 12.0814 3.35787 18.7975 7.50001 22.9399C11.6422 27.0822 18.3579 27.0822 22.5 22.9399Z" fill="#75A843"/>
<path d="M22.5 22.9399C26.6422 18.7975 26.6421 12.0814 22.5 7.93909C18.3579 3.79672 11.6421 3.7967 7.49999 7.93906C3.35785 12.0814 3.35787 18.7975 7.50001 22.9399C11.6422 27.0822 18.3579 27.0822 22.5 22.9399Z" fill="#699635"/>
<path d="M14.8009 20.0313C17.3425 18.9785 18.5493 16.0646 17.4966 13.5229C16.4438 10.9813 13.5301 9.7743 10.9886 10.8271C8.44702 11.8799 7.24015 14.7938 8.29291 17.3355C9.34567 19.8772 12.2594 21.0841 14.8009 20.0313Z" fill="#ED4C5C"/>
</svg>
