<svg width="30" height="31" viewBox="0 0 30 31" fill="none" xmlns="http://www.w3.org/2000/svg">
<path d="M0 15.9216C0 21.6657 3.24062 26.6725 7.99482 29.1758V2.6673C3.24062 5.17067 0 10.158 0 15.9216Z" fill="#2A5F9E"/>
<path d="M29.9987 15.9216C29.9987 10.1774 26.7581 5.17067 22.0039 2.6673V29.2146C26.7387 26.6725 29.9987 21.6657 29.9987 15.9216Z" fill="#2A5F9E"/>
<path d="M15.0013 0.920715C12.4592 0.920715 10.0918 1.56111 7.99609 2.66725V29.2146C10.0918 30.3207 12.4398 30.9611 15.0013 30.9611C17.5433 30.9611 19.9107 30.3207 22.0064 29.2146V2.66725C19.8913 1.56111 17.5433 0.920715 15.0013 0.920715Z" fill="#FFCE31"/>
<path d="M20.8999 10.0221L20.3565 9.4787C20.2595 9.57573 18.0473 12.0791 17.8145 17.0276H15.6993V11.5745H14.2052V17.0276H12.1094C11.9154 12.0791 9.66442 9.57573 9.5674 9.4787L8.51953 10.5266C8.51953 10.5266 10.6735 13.03 10.6735 17.7844V18.5801H14.2828V23.9749H15.777V18.5801H19.3863V17.7844C19.3863 12.9912 21.482 10.5266 21.5402 10.5266L20.8999 10.0221Z" fill="#3E4347"/>
<path d="M15.0014 7.8681L13.4102 12.6614H16.612L15.0014 7.8681Z" fill="#3E4347"/>
<path d="M9.60547 9.45935L12.8461 12.6613H10.8474L9.60547 9.45935Z" fill="#3E4347"/>
<path d="M20.393 9.45935L17.1523 12.6613H19.151L20.393 9.45935Z" fill="#3E4347"/>
</svg>
