<svg width="30" height="31" viewBox="0 0 30 31" fill="none" xmlns="http://www.w3.org/2000/svg">
<path d="M0.622855 13.2065V13.7111H0.913928V14.2156H1.205V13.7111H1.49608V13.2065H1.78715V12.7019H2.07822V12.1974H2.3693V11.6928H2.66037V11.1883H2.25287V10.6837H2.0006V10.1792H1.10798V10.6837H1.70952V11.1883H1.41845V11.6928H1.12738V12.1974H0.836304V11.6928H0.584042C0.487018 12.1004 0.389993 12.5467 0.292969 12.9348V13.1289H0.584042V13.2065H0.622855Z" fill="white"/>
<path d="M4.05367 5.65753L3.89844 5.81278H4.05367V5.65753Z" fill="white"/>
<path d="M6.40201 3.85273H6.11094V4.35729H5.81987V4.86184H5.52879V5.36641H5.23772V5.87096H4.94664V5.36641H4.65557V5.09472L4.3645 5.38581V5.83214H4.65557V6.3367H4.94664V6.84125H4.65557V7.3458H4.3645V7.85037H4.01521V7.3458H3.76295V6.84125H3.51069V6.3367C3.41366 6.43373 3.31664 6.58898 3.21961 6.68601V6.84125H3.12259C3.02556 6.89947 2.96735 6.93828 2.92854 7.03531V7.28759H2.73449C2.67628 7.34581 2.67628 7.38462 2.63747 7.44283V7.73392H2.44342C2.34639 7.88917 2.24937 8.08324 2.15234 8.23848H2.40461V8.74303H2.69568V9.2476H2.98675V9.75215H3.27783V10.2567H3.53009V9.75215H3.82116V9.2476H4.11224V8.74303H4.40331V8.23848H4.69438V7.73392H4.98546V7.22937H5.27653V7.73392H5.47058V8.23848H5.76165V8.74303H6.05273V9.2476H6.3438V9.75215H6.63487V8.74303H6.3438V8.23848H6.63487V6.78304H6.3438V7.28759H6.05273V7.79215H5.76165V7.28759H5.47058V6.78304H5.17951V6.27848H5.47058V5.77393H5.76165V5.26938H6.05273V5.77393H6.3438V6.27848H6.63487V4.78423H6.3438V4.27967H6.63487V3.42581C6.53785 3.48403 6.44082 3.58106 6.3438 3.61987V3.85273M3.51069 8.76245H3.21961V7.75334H3.51069V8.76245Z" fill="white"/>
<path d="M0.310486 17.6116V17.107H0.601559V16.6025H0.892633V16.0979H1.18371V15.5934H0.834409V15.0888H0.582147V14.6037H0.291074V14.0991H0.0970246C0.0388098 14.7395 0 15.3023 0 15.9039C0 16.5055 0.0582147 17.0488 0.0970246 17.6116H0.310486Z" fill="white"/>
<path d="M6.40447 14.6619H6.1134V15.1664H5.82232V15.671H5.53125V16.1755H5.82232V16.6801H6.1134V17.1846H6.40447V17.631H6.65673V14.2349H6.40447V14.6619Z" fill="white"/>
<path d="M3.76373 5.94867C3.66671 6.0457 3.56968 6.20094 3.47266 6.29797H3.76373V5.94867Z" fill="white"/>
<path d="M3.91797 26.0143L4.07321 26.1696V26.0143H3.91797Z" fill="white"/>
<path d="M3.51172 25.5098C3.60874 25.6068 3.70577 25.7621 3.80279 25.8591V25.5098H3.51172Z" fill="white"/>
<path d="M6.40201 27.4505V26.9459H6.69309V25.4517H6.40201V25.9562H6.11094V26.4608H5.81987V25.9562H5.52879V25.4517H5.23772V24.9471H5.52879V24.4426H5.81987V23.938H6.11094V24.4426H6.40201V24.9471H6.69309V23.4528H6.40201V22.9483H6.69309V21.9392H6.40201V22.4437H6.11094V22.9483H5.81987V23.4528H5.52879V23.9574H5.23772V24.462H4.94664V23.9574H4.65557V23.4528H4.3645V22.9483H4.01521V22.4437H3.76295V21.9392H3.51069V21.4346H3.21961V21.9392H2.92854V22.4437H2.63747V22.9483H2.34639V23.4528H2.15234C2.24937 23.6081 2.34639 23.8022 2.44342 23.9574H2.63747V24.2485C2.69568 24.3067 2.69568 24.3455 2.73449 24.4037H2.92854V24.656C2.98675 24.8501 3.02556 24.9083 3.12259 25.0053H3.21961V25.1606C3.31664 25.2576 3.41366 25.4129 3.51069 25.5099V25.0053H3.80176V24.5008H4.09283V23.9962H4.38391V24.5008H4.67498V25.0053H4.96606V25.5099H4.67498V26.0144H4.40331V26.4608L4.69438 26.7519V26.4996H4.98546V25.995H5.27653V26.4996H5.47058V27.0041H5.76165V27.5087H6.05273V28.0132H6.3438V28.2073C6.44082 28.2655 6.53785 28.3625 6.63487 28.4014V27.5087L6.40201 27.4505ZM3.51069 24.0156H3.21961V23.0065H3.51069V24.0156Z" fill="white"/>
<path d="M6.40306 18.6012H6.11198V18.0967H5.82091V17.5921H5.52984V18.0967H5.23876V18.6012H4.9865V19.1058H4.69543V19.6103H4.40435V20.1149H4.11328V20.5612H4.40435V21.0658H4.69543V21.5704H5.54925V21.0658H5.0059V20.5612H5.25818V20.1149H5.54925V19.6103H5.84032V20.1149H6.1314V20.5612H6.42247V21.0658H6.67473V20.1149H6.42247V19.6103H6.67473V19.1058H6.42247V18.6012H6.40306Z" fill="white"/>
<path d="M6.40293 11.2465H6.11185V11.6928H5.82078V12.1974H5.52971V11.6928H5.23863V11.2465H4.98637V10.7419H5.52971V10.2374H4.6759V10.7419H4.38482V11.2465H4.09375V11.6928H4.38482V12.1974H4.6759V12.7019H4.96697V13.2065H5.21923V13.711H5.51031V14.2156H5.80138V13.711H6.09245V13.2065H6.38353V12.7019H6.63579V12.1974H6.38353V11.6928H6.63579V10.7419H6.38353L6.40293 11.2465Z" fill="white"/>
<path d="M0.851929 19.6103H1.143V20.1149H1.43408V20.6195H1.72515V21.124H1.12359V21.6286H1.97741V21.124H2.26849V20.6195H2.55956V20.1149H2.26849V19.6103H2.01622V19.1058H1.72515V18.6012H1.43408V18.0967H1.143V17.5921H0.851929V18.0967H0.599667V18.6012H0.308594V18.7953C0.405618 19.2416 0.502643 19.6492 0.599667 20.0373H0.851929V19.6103Z" fill="white"/>
<path d="M4.05566 13.2064H3.76459V12.7019H3.51233V12.1973H3.22126V12.7019H2.93018V13.2064H2.63911V13.711H2.34803V14.2156H2.09576V14.7201H1.80469V17.2235H2.09576V17.728H2.38683V18.2326H2.67791V18.7371H2.96898V19.2417H3.26006V19.7462H3.51233V19.2417H3.8034V18.7371H4.09448V18.2326H4.38555V17.7086H4.67662V17.2041H4.9677V14.7007H4.67662V14.1961H4.40495V13.6916H4.11388L4.05566 13.2064ZM2.30922 15.8651V16.1561H2.05696V15.6516H2.34803V15.8457H2.30922V15.8651ZM4.36614 15.9621V15.671H4.65721V16.1755H4.36614V15.9621ZM3.22126 13.2064H3.51233V13.711H3.22126V13.2064ZM3.51233 18.6013H3.22126V18.0967H3.51233V18.6013ZM4.05566 15.147H3.76459V15.6516H3.51233V16.1561H3.8034V16.6607H4.09448V17.6698H3.74518V17.1653H3.49292V16.6607H3.20184V17.1653H2.91077V17.6698H2.6197V16.6607H2.91077V16.1561H3.20184V15.6516H2.91077V15.147H2.6197V14.1379H2.91077V14.6425H3.20184V15.147H3.49292V14.6425H3.78399V14.1379H4.07506L4.05566 15.147Z" fill="white"/>
<path d="M2.61983 7.46228C2.56162 7.55931 2.46459 7.65634 2.42578 7.75337H2.61983V7.46228Z" fill="#C8313E"/>
<path d="M2.90889 7.30704V7.05475C2.85068 7.15178 2.81187 7.21001 2.71484 7.30704H2.90889Z" fill="#C8313E"/>
<path d="M3.22202 6.80246V6.64722C3.16381 6.70543 3.16381 6.74424 3.125 6.80246H3.22202Z" fill="#C8313E"/>
<path d="M2.05859 15.865V16.1561H2.31086V15.6516H2.05859V15.865Z" fill="#C8313E"/>
<path d="M6.40234 8.29678H6.69342V8.80133H6.40234V8.29678Z" fill="#C8313E"/>
<path d="M3.76386 6.80243V7.30699H4.05493V7.81154H4.34601V7.30699H4.63708V6.80243H4.92816V6.29788H4.63708V5.79332H4.34601V5.34698L4.05493 5.63807V5.79332H3.8997L3.74445 5.94858V6.29788H3.49219V6.80243H3.76386Z" fill="#C8313E"/>
<path d="M6.40234 4.3573H6.69342V4.86185H6.40234V4.3573Z" fill="#C8313E"/>
<path d="M6.40258 5.81273H6.1115V5.36639H5.82043V5.81273H5.52935V6.31728H5.23828V6.82184H5.52935V7.32639H5.82043V7.83094H6.1115V7.32639H6.40258V6.82184H6.65484V6.31728H6.40258V5.81273Z" fill="#C8313E"/>
<path d="M4.9666 5.34706V5.85163H5.25768V5.34706H5.50994V4.84251H5.80101V4.33795H6.09209V3.8334H6.38316V3.63934C5.83982 4.04687 5.27708 4.43499 4.83077 4.88133C4.77255 4.93955 4.73374 4.97836 4.63672 5.03657V5.28885H4.92779V5.34706H4.9666Z" fill="#C8313E"/>
<path d="M3.31968 7.81165H3.22266V8.76254H3.51373V7.81165H3.35848H3.31968Z" fill="#C8313E"/>
<path d="M3.76611 14.6619H3.51385V15.1664H3.22277V14.6619H2.9317V14.2155H2.64062V15.1664H2.9317V15.671H3.22277V16.1755H2.9317V16.6801H2.64062V17.631H2.9317V17.1846H3.22277V16.6801H3.51385V17.1846H3.76611V17.631H4.05718V16.6801H3.76611V16.1561H3.51385V15.6516H3.76611V15.147H4.05718V14.1961H3.76611V14.6619Z" fill="#C8313E"/>
<path d="M6.40234 11.7122H6.69342V12.2168H6.40234V11.7122Z" fill="#C8313E"/>
<path d="M6.40463 9.24759H6.11356V8.74303H5.82249V8.23848H5.53141V7.73392H5.24034V7.22937H4.94927V7.73392H4.65819V8.23848H4.36712V8.74303H4.01783V9.24759H3.76557V9.75214H3.51331V10.2567H3.22224V9.75214H2.93116V9.24759H2.64009V8.74303H2.34901V8.23848H2.15497C1.86389 8.74304 1.55341 9.28641 1.30114 9.82977C1.04888 10.4314 0.854834 11.0329 0.660785 11.6345H0.913046V12.1391H1.20412V11.6345H1.49519V11.13H1.78627V10.6254H1.18472V10.1209H2.03853V10.6254H2.3296V11.13H2.62068V11.6345H2.3296V12.1391H2.07734V12.6436H1.78627V13.1482H1.49519V13.6527H1.20412V14.1573H0.913046V13.6527H0.660785V13.1482H0.369711V12.9541C0.272687 13.3617 0.214472 13.7498 0.175662 14.1573H0.369711V14.6618H0.660785V15.1664H0.951858V15.671H1.24293V16.1755H0.893646V16.6801H0.641373V17.1846H0.350299V17.6892H0.15625C0.214465 18.0967 0.253275 18.4848 0.350299 18.8923V18.6983H0.641373V18.1937H0.932446V17.6892H1.22352V18.1937H1.51459V18.6983H1.80567V19.2028H2.09674V19.7074H2.38781V20.212H2.67889V20.7165H2.27139V21.2211H2.01913V21.7256H1.1265V21.2211H1.72805V20.7165H1.43698V20.212H1.14591V19.6492H0.854834V20.1537H0.602572C0.796622 20.6971 1.01007 21.2987 1.24293 21.9003C1.4952 22.4436 1.78626 23.0064 2.09674 23.4916H2.34901V22.987H2.64009V22.4824H2.93116V21.9779H3.22224V21.4733H3.4745V21.9779H3.76557V22.4824H4.05664V22.987H4.34772V23.4916H4.63879V23.9961H4.92987V24.5007H5.22094V23.9961H5.41499V23.4916H5.70606V22.987H5.99714V22.4824H6.28821V21.9779H6.57928V21.0076H6.28821V20.503H5.99714V19.9985H5.70606V19.4939H5.41499V19.9985H5.12391V20.503H4.83284V21.0076H5.43439V21.5121H4.58058V21.0076H4.28951V20.503H3.99843V19.9985H4.28951V19.4939H4.58058V18.9894H4.87165V18.4848H5.16273V17.9803H5.41499V17.5145H5.70606V18.0191H5.99714V18.5236H6.28821V19.0282H6.57928V17.5145H6.28821V17.01H5.99714V16.5054H5.70606V16.0009H5.41499V15.4963H5.70606V14.9918H5.99714V14.4872H6.28821V13.9826H6.57928V12.4884H6.28821V12.9929H5.99714V13.4975H5.70606V14.0021H5.41499V13.4975H5.12391V12.9929H4.83284V12.4884H4.54177V11.9838H4.25069V11.4987H4.01783V10.9941H4.30891V10.4896H4.59998V9.98502H5.4926V10.4896H4.89105V10.9941H5.18213V11.4987H5.4732V12.0032H5.76427V11.4987H6.05535V10.9941H6.34642V10.4896H6.63749V9.48046H6.34642L6.40463 9.24759ZM4.36712 13.711V14.2155H4.65819V14.7201H4.94927V17.2234H4.65819V17.728H4.36712V18.2325H4.07604V18.7371H3.78497V19.2417H3.53271V19.7462H3.24164V19.2417H2.95056V18.7371H2.65949V18.2325H2.36841V17.7086H2.11615V17.204H1.82508V14.7007H2.11615V14.1961H2.40723V13.6915H2.6983V13.187H2.98937V12.6824H3.28045V12.1779H3.53271V12.6824H3.82378V13.187H4.11486V13.6915H4.36712" fill="#C8313E"/>
<path d="M3.35848 13.711H3.51373V13.2064H3.22266V13.711H3.31968H3.35848Z" fill="#C8313E"/>
<path d="M2.61983 24.0156H2.42578C2.484 24.1126 2.58102 24.2096 2.61983 24.3067V24.0156Z" fill="#C8313E"/>
<path d="M2.90889 24.5007H2.71484C2.77306 24.5977 2.81187 24.6559 2.90889 24.753V24.5007Z" fill="#C8313E"/>
<path d="M3.22202 25.0052H3.125C3.18321 25.0635 3.18321 25.1023 3.22202 25.1605V25.0052Z" fill="#C8313E"/>
<path d="M6.40234 23.0647H6.69342V23.5692H6.40234V23.0647Z" fill="#C8313E"/>
<path d="M6.40258 24.5007H6.1115V23.9962H5.82043V24.5007H5.52935V25.0053H5.23828V25.5098H5.52935V26.0144H5.82043V26.4607H6.1115V26.0144H6.40258V25.5098H6.65484V25.0053H6.40258V24.5007Z" fill="#C8313E"/>
<path d="M3.76411 25.5098V25.8591L3.91935 26.0144H4.07459V26.1696L4.36566 26.4607V26.0144H4.65673V25.5098H4.94781V25.0053H4.65673V24.5007H4.36566V23.9962H4.07459V24.5007H3.78351V25.0053H3.53125V25.5098H3.76411Z" fill="#C8313E"/>
<path d="M6.40234 26.9652H6.69342V27.4698H6.40234V26.9652Z" fill="#C8313E"/>
<path d="M4.81136 26.907C5.31588 27.3534 5.82041 27.7997 6.36375 28.149V27.9549H6.07268V27.4504H5.7622V26.9458H5.50994V26.4413H5.21887V25.9367H4.92779V26.4413H4.63672V26.6936L4.81136 26.907Z" fill="#C8313E"/>
<path d="M3.31968 23.0647H3.22266V24.0156H3.51373V23.0647H3.35848H3.31968Z" fill="#C8313E"/>
<path d="M6.40234 19.6104H6.69342V20.115H6.40234V19.6104Z" fill="#C8313E"/>
<path d="M4.65826 15.962V15.671H4.36719V16.1755H4.65826V15.962Z" fill="#C8313E"/>
<path d="M3.31968 18.0967H3.22266V18.6012H3.51373V18.0967H3.35848H3.31968Z" fill="#C8313E"/>
<path d="M6.65625 21.9003V28.343C9.06246 29.9343 11.915 30.8852 15.0004 30.8852C18.959 30.8852 22.5101 29.391 25.2074 26.8876C26.7015 25.4904 27.9628 23.7826 28.7584 21.8809H6.65625" fill="#83BF4F"/>
<path d="M28.7585 21.9003C29.5541 20.0567 30.0004 18.0579 30.0004 15.9039C30.0004 13.7498 29.5541 11.751 28.7585 9.90743C27.9046 8.00565 26.7015 6.29793 25.2074 4.9007C22.5101 2.39733 18.959 0.903076 15.0004 0.903076C11.8956 0.903076 9.04305 1.85396 6.65625 3.44525V21.9003H28.7585Z" fill="#C94747"/>
</svg>
