<svg width="30" height="31" viewBox="0 0 30 31" fill="none" xmlns="http://www.w3.org/2000/svg">
<path d="M30.0013 15.9068C30.0013 9.34762 25.8487 3.79751 20.0078 1.75989V30.0538C25.8681 28.0161 30.0013 22.466 30.0013 15.9068Z" fill="#ED4C5C"/>
<path d="M0 15.9068C0 22.466 4.19146 28.0161 9.99353 30.0538V1.75989C4.21087 3.81692 0 9.36702 0 15.9068Z" fill="#3E4347"/>
<path d="M20.0051 1.75986C18.4527 1.21649 16.7645 0.906006 14.9987 0.906006C13.2522 0.906006 11.5446 1.19709 9.99219 1.75986V30.0537C11.5446 30.5971 13.2328 30.9076 14.9987 30.9076C16.7451 30.9076 18.4527 30.6165 20.0051 30.0537V1.75986Z" fill="#FFE62E"/>
</svg>
