<svg width="30" height="31" viewBox="0 0 30 31" fill="none" xmlns="http://www.w3.org/2000/svg">
<path d="M25.2241 4.88668C22.525 2.3817 18.9716 0.886475 15.0105 0.886475C11.0493 0.886475 7.4959 2.3817 4.79688 4.88668H25.2241Z" fill="#ED4C5C"/>
<path d="M4.79688 26.9073C7.4959 29.4123 11.0493 30.9075 15.0105 30.9075C18.9716 30.9075 22.525 29.4123 25.2241 26.9073H4.79688Z" fill="#ED4C5C"/>
<path d="M0 15.897C0 20.2467 1.84465 24.1498 4.79611 26.9073H25.2039C28.1553 24.1498 30 20.2467 30 15.897C30 11.5472 28.1553 7.64409 25.2039 4.88666H4.79611C1.84465 7.64409 0 11.5472 0 15.897Z" fill="#428BC1"/>
<path d="M22.9111 17.183C23.6189 12.8215 20.6572 8.71197 16.2959 8.00413C11.9347 7.29628 7.82534 10.2582 7.11754 14.6197C6.40973 18.9812 9.37146 23.0907 13.7327 23.7986C18.094 24.5064 22.2033 21.5445 22.9111 17.183Z" fill="white"/>
<path d="M15.0102 22.1497C11.5539 22.1497 8.75781 19.3534 8.75781 15.8969C8.75781 12.4404 11.5539 9.64417 15.0102 9.64417C18.4665 9.64417 21.2627 12.4404 21.2627 15.8969C21.2627 19.3534 18.4665 22.1497 15.0102 22.1497ZM15.0102 10.149C11.8646 10.149 9.26266 12.7511 9.26266 15.8969C9.26266 19.0427 11.8646 21.6448 15.0102 21.6448C18.1559 21.6448 20.7578 19.0427 20.7578 15.8969C20.7578 12.7511 18.1559 10.149 15.0102 10.149Z" fill="#89664C"/>
<path d="M14.5039 10.887V10.2462C14.6981 10.2462 14.8534 10.0908 14.8534 9.89665C14.8534 9.70247 14.6981 9.54712 14.5039 9.54712V8.90631C15.0476 8.90631 15.5136 9.35294 15.5136 9.91608C15.5136 10.4404 15.067 10.887 14.5039 10.887Z" fill="#699635"/>
<path d="M13.2629 11.1977L13.1075 10.5569C13.3017 10.4987 13.3988 10.3045 13.36 10.1491C13.3017 9.95493 13.1075 9.85784 12.9522 9.89667L12.7969 9.25586C13.3406 9.10052 13.9037 9.45005 14.0007 9.95493C14.1561 10.4986 13.8066 11.0424 13.2629 11.1977Z" fill="#699635"/>
<path d="M12.155 11.7414L11.8638 11.1395C12.0191 11.0424 12.058 10.8482 12.0191 10.6928C11.922 10.5375 11.7279 10.4987 11.5725 10.5375L11.2812 9.93552C11.7861 9.68308 12.388 9.83842 12.6405 10.3433C12.8152 10.887 12.6599 11.489 12.155 11.7414Z" fill="#699635"/>
<path d="M11.2031 12.5958L10.7565 12.0909C10.9118 11.9356 10.9118 11.7414 10.7565 11.6443C10.6012 11.4889 10.407 11.4889 10.3099 11.6443L9.86328 11.1394C10.271 10.7316 10.9118 10.7899 11.2614 11.1977C11.6497 11.586 11.6109 12.188 11.2031 12.5958Z" fill="#699635"/>
<path d="M10.5061 13.6444L9.96237 13.2949C10.0595 13.1395 10.0206 12.9454 9.86529 12.8483C9.70995 12.7512 9.51579 12.79 9.4187 12.9454L8.875 12.5958C9.16626 12.1492 9.76822 11.9938 10.2731 12.3045C10.6614 12.5376 10.8168 13.1978 10.5061 13.6444Z" fill="#699635"/>
<path d="M10.1179 14.8483L9.47707 14.6542C9.53533 14.46 9.41882 14.3046 9.2829 14.2464C9.08873 14.1881 8.93339 14.3046 8.87514 14.4406L8.23438 14.2464C8.38971 13.7415 8.99164 13.4502 9.47707 13.6056C9.96251 13.7415 10.2538 14.3046 10.1179 14.8483Z" fill="#699635"/>
<path d="M10.0001 16.0912L9.35934 16.0329C9.35934 15.8387 9.204 15.6834 9.06808 15.6834C8.8739 15.6834 8.71858 15.8387 8.71858 15.9747L8.01953 15.9164C8.07778 15.3727 8.52439 14.9649 9.06808 14.9649C9.61177 15.0426 10.0001 15.5475 10.0001 16.0912Z" fill="#699635"/>
<path d="M10.2118 17.3534L9.57104 17.4505C9.51278 17.2563 9.37687 17.1592 9.16328 17.198C8.9691 17.2563 8.87203 17.3922 8.91086 17.6058L8.27008 17.7029C8.17299 17.1592 8.5225 16.6543 9.06619 16.5572C9.55162 16.4407 10.1147 16.7902 10.2118 17.3534Z" fill="#699635"/>
<path d="M10.7173 18.4991L10.1154 18.7904C10.0183 18.635 9.82413 18.5379 9.66879 18.635C9.51345 18.6933 9.41638 18.8875 9.51347 19.0428L8.91153 19.3341C8.6591 18.8292 8.91152 18.2273 9.41638 17.9748C9.86298 17.7418 10.4649 17.9942 10.7173 18.4991Z" fill="#699635"/>
<path d="M11.4557 19.4506L10.9508 19.8584C10.8537 19.703 10.6013 19.703 10.5042 19.8001C10.3489 19.8972 10.3488 20.1497 10.4459 20.2468L9.94108 20.6934C9.59157 20.2468 9.64983 19.6448 10.0964 19.2953C10.5042 19.004 11.1061 19.0428 11.4557 19.4506Z" fill="#699635"/>
<path d="M12.4649 20.2467L12.0571 20.7905C11.9018 20.6934 11.7076 20.7322 11.6105 20.8487C11.5134 20.9458 11.5523 21.1982 11.6688 21.2953L11.261 21.839C10.8144 21.5478 10.7173 20.8875 11.0668 20.4409C11.4164 19.9943 12.0183 19.8972 12.4649 20.2467Z" fill="#699635"/>
<path d="M13.6116 20.7516L13.3591 21.3536C13.2038 21.2953 13.0096 21.3536 12.9125 21.5478C12.8543 21.7031 12.9125 21.8973 13.1067 21.9944L12.8543 22.5964C12.3494 22.4022 12.097 21.8002 12.3106 21.2953C12.5048 20.8099 13.1067 20.5574 13.6116 20.7516Z" fill="#699635"/>
<path d="M14.8555 20.9069L14.7584 21.5477C14.5643 21.5477 14.4089 21.6448 14.4089 21.839C14.4089 22.0332 14.506 22.1885 14.7002 22.1885L14.6031 22.8876C14.0594 22.8294 13.6516 22.3439 13.7487 21.7808C13.807 21.2565 14.3118 20.8487 14.8555 20.9069Z" fill="#699635"/>
<path d="M16.1177 20.8098L16.2148 21.4506C16.0207 21.4506 15.9236 21.6448 15.9236 21.8002C15.9236 21.9943 16.1177 22.0914 16.2731 22.0914L16.3702 22.7323C15.8265 22.7905 15.3216 22.441 15.2634 21.8778C15.2051 21.3147 15.6129 20.8487 16.1177 20.8098Z" fill="#699635"/>
<path d="M17.3191 20.3438L17.5716 20.9458C17.4162 21.004 17.3191 21.1982 17.3774 21.3924C17.4356 21.5478 17.6298 21.6449 17.824 21.5866L18.0764 22.1886C17.5715 22.3828 16.9696 22.1303 16.7754 21.6449C16.5618 21.1594 16.8143 20.5574 17.3191 20.3438Z" fill="#699635"/>
<path d="M18.367 19.6448L18.7748 20.1885C18.6194 20.2856 18.5806 20.4798 18.7165 20.6351C18.8136 20.7905 19.0078 20.8293 19.1631 20.6934L19.5709 21.2371C19.1243 21.5284 18.5223 21.4313 18.1728 21.0429C17.8039 20.5963 17.9204 19.9943 18.367 19.6448Z" fill="#699635"/>
<path d="M19.1663 18.6933L19.6711 19.1011C19.574 19.2564 19.574 19.4506 19.7294 19.5477C19.8847 19.6448 20.0789 19.6448 20.176 19.4895L20.6808 19.8972C20.3313 20.3439 19.6711 20.4021 19.2828 20.0526C18.9138 19.7613 18.8168 19.1593 19.1663 18.6933Z" fill="#699635"/>
<path d="M19.7665 17.6058L20.3685 17.8971C20.2714 18.0524 20.3685 18.2466 20.5238 18.3437C20.6792 18.4408 20.8734 18.3437 20.9704 18.1883L21.5724 18.4796C21.3199 18.9845 20.718 19.1787 20.2132 18.9845C19.7083 18.8097 19.5141 18.0524 19.7665 17.6058Z" fill="#699635"/>
<path d="M20.0201 16.3436L20.6609 16.4407C20.6026 16.6349 20.7579 16.7902 20.9133 16.8485C21.1074 16.9068 21.2628 16.7514 21.321 16.5961L21.9618 16.6932C21.8647 17.2369 21.321 17.5864 20.8162 17.4893C20.2725 17.3922 19.923 16.9068 20.0201 16.3436Z" fill="#699635"/>
<path d="M19.9609 15.1008L20.6017 15.0426C20.6017 15.2368 20.7571 15.3339 20.9512 15.3339C21.1454 15.3339 21.2425 15.1785 21.2425 14.9843L21.8833 14.9261C21.9415 15.4698 21.4755 15.9747 20.9318 15.9747C20.4658 16.0524 20.0192 15.6446 19.9609 15.1008Z" fill="#699635"/>
<path d="M19.6133 13.8968L20.254 13.7027C20.3123 13.8968 20.5065 13.9551 20.6618 13.8968C20.8172 13.8386 20.9143 13.6444 20.856 13.489L21.4968 13.2949C21.6521 13.7997 21.3997 14.4017 20.856 14.5377C20.3123 14.693 19.7686 14.4017 19.6133 13.8968Z" fill="#699635"/>
<path d="M18.9727 12.79L19.5164 12.4405C19.6134 12.5958 19.8076 12.6347 19.9629 12.5376C20.1183 12.4405 20.1571 12.2463 20.06 12.0909L20.6037 11.7414C20.895 12.188 20.7591 12.8483 20.3125 13.1395C19.8659 13.392 19.2639 13.256 18.9727 12.79Z" fill="#699635"/>
<path d="M18.0586 11.8968L18.5052 11.3919C18.6605 11.5472 18.8547 11.489 18.9518 11.3919C19.1071 11.2365 19.0489 11.0423 18.9518 10.9453L19.3984 10.4404C19.8062 10.8482 19.8062 11.4501 19.4566 11.8385C19.1071 12.2463 18.4664 12.3045 18.0586 11.8968Z" fill="#699635"/>
<path d="M16.9727 11.2948L17.2639 10.6928C17.4193 10.7899 17.6134 10.751 17.7105 10.5374C17.8076 10.3821 17.7688 10.1879 17.5552 10.0908L17.8464 9.48883C18.3513 9.74127 18.4872 10.3821 18.2542 10.8481C18.06 11.353 17.4581 11.5472 16.9727 11.2948Z" fill="#699635"/>
<path d="M15.7656 10.9453L15.921 10.3045C16.1151 10.3627 16.2705 10.2462 16.3287 10.052C16.387 9.85783 16.2705 9.70248 16.0763 9.64423L16.2316 9.00342C16.7753 9.15877 17.086 9.70249 16.9307 10.2074C16.853 10.7511 16.3093 11.0424 15.7656 10.9453Z" fill="#699635"/>
<path d="M14.9107 18.4602C17.0661 18.4602 18.8137 18.8097 18.8137 19.2564C18.8137 19.703 17.0661 20.0525 14.9107 20.0525C12.7554 20.0525 11.0078 19.703 11.0078 19.2564C11.0078 18.8097 12.7554 18.4602 14.9107 18.4602Z" fill="#699635"/>
<path d="M17.6694 12.3433C17.6694 11.9938 17.1257 11.7414 16.4655 11.7414C16.5626 11.6831 16.6209 11.586 16.6209 11.4889C16.6209 11.2365 16.2131 11.0423 15.6694 11.0423C15.417 11.0423 15.1646 11.1006 14.9704 11.1976C14.8733 11.1976 14.7762 11.1394 14.6791 11.1394C14.2325 11.1394 13.8248 11.2947 13.7277 11.5472H13.5335C13.0286 11.5472 12.582 11.7414 12.582 11.9938C12.582 12.188 12.8345 12.3433 13.1257 12.4016C12.8733 12.4987 12.718 12.654 12.718 12.8482C12.718 13.1978 13.2617 13.4502 13.9607 13.4502C14.3102 13.4502 14.6014 13.3919 14.815 13.2948C14.815 13.3531 14.7568 13.3919 14.7568 13.4502C14.7568 13.6055 14.9121 13.7415 15.1063 13.8968C15.0481 13.8968 15.0092 13.9551 15.0092 13.9551C14.8539 13.7026 14.5626 13.5473 14.1549 13.5473C13.65 13.5473 13.2034 13.7997 13.2034 14.1493C13.2034 14.4988 13.6112 14.7512 14.1549 14.7512C14.4073 14.7512 14.6597 14.6541 14.8539 14.557C15.0092 14.8095 15.3005 14.9648 15.7083 14.9648C16.2131 14.9648 16.6597 14.7124 16.6597 14.3629C16.6597 14.2075 16.6015 14.1104 16.5044 14.0133C16.951 13.9162 17.3005 13.7221 17.3005 13.4696C17.3005 13.2754 17.1063 13.0618 16.7956 12.9647C17.2617 12.8482 17.6694 12.654 17.6694 12.3433ZM15.3199 11.955H15.4752C15.2811 12.0521 15.184 12.2074 15.184 12.3628C15.184 12.5569 15.3781 12.7705 15.6888 12.8676C15.4947 12.9259 15.3393 12.9647 15.184 13.023C15.184 12.9647 15.2422 12.9259 15.2422 12.8676C15.2422 12.5764 14.8345 12.3239 14.2908 12.2657C14.3879 12.2074 14.4461 12.1686 14.4461 12.0715H14.6403C14.8539 12.0909 15.1063 12.0521 15.3199 11.955Z" fill="#699635"/>
<path d="M13.3192 14.8484C13.3775 14.6542 13.2221 14.4406 13.261 14.2464C13.3192 13.7415 13.1056 13.9551 12.8532 13.6444C12.6008 13.4503 12.9115 13.1978 12.8532 12.9454C12.795 12.4988 12.562 12.6929 12.2513 12.6929C11.9988 12.6929 12.5037 13.4891 12.1542 13.7027C11.7076 13.9552 11.6493 14.0522 11.5134 14.4989C11.4551 14.3435 11.4163 14.4018 11.4552 14.2076C11.4552 14.2076 11.1639 14.3629 11.1056 14.3629C11.0086 14.4212 11.1639 14.8678 11.2027 14.9649C11.3969 15.3145 11.9018 15.1203 11.9018 14.7125C12.0571 15.2173 11.96 15.2174 12.5425 15.2562C12.7367 15.2562 13.0862 15.2562 12.9891 14.9067C13.0862 15.5475 13.4357 15.1591 13.7464 14.9649C13.6687 15.0038 13.3192 14.9067 13.3192 14.8484Z" fill="#FF8736"/>
<path d="M12.1551 12.8482C11.9027 12.6541 12.5046 12.4405 12.6017 12.4987C12.7959 12.4987 12.893 12.7511 12.893 12.9453C12.8347 13.3531 12.8347 12.8871 12.7959 13.0424C12.7959 12.9453 12.7376 12.8482 12.7959 12.7511C12.5629 12.8482 12.2522 12.6929 12.1551 12.8482Z" fill="black"/>
<path d="M13.1082 17.3533C13.1082 16.6543 12.9528 15.897 12.9528 15.2561C12.6615 15.4115 12.0013 15.1979 12.0013 15.1979C12.0013 15.1979 11.7101 16.6543 11.7101 17.0038C11.7101 17.6058 11.4188 18.4019 11.5159 18.9457C11.5742 19.2952 12.0208 18.9456 12.1179 18.8874C12.215 18.7903 12.1761 18.3825 12.1761 18.2466C12.1761 17.6446 12.2344 17.1397 12.4285 16.596C12.4285 16.9455 12.6227 17.2368 12.5839 17.6446V18.7903C12.5839 18.8486 13.1276 18.8874 13.1858 18.7903C13.2052 18.3437 13.1082 17.8582 13.1082 17.3533Z" fill="#D0D0D0"/>
<path d="M16.7554 14.9066C16.7554 14.9649 16.4059 15.062 16.3477 15.062C16.6389 15.3144 16.9884 15.6639 17.1049 15.0037C17.0079 15.3532 17.2991 15.3532 17.5127 15.3532C18.1146 15.3532 18.0176 15.295 18.1535 14.8095C18.1535 15.2173 18.6583 15.3532 18.8525 15.062C18.9108 14.9649 19.0467 14.5571 18.9496 14.46C18.8914 14.46 18.6001 14.3046 18.6001 14.3046C18.6583 14.4988 18.5418 14.46 18.5418 14.5959C18.3865 14.091 18.3477 14.0522 17.9011 13.7998C17.5515 13.6056 18.0952 12.79 17.804 12.79C17.4545 12.79 17.202 12.5958 17.202 13.0424C17.202 13.2949 17.4545 13.4891 17.202 13.7415C16.9108 13.9939 16.7554 13.8386 16.7943 14.3435C16.8525 14.4988 16.7166 14.693 16.7554 14.9066Z" fill="#89664C"/>
<path d="M17.9217 12.8483C17.8246 12.7512 17.5139 12.8483 17.3197 12.7512C17.378 12.8483 17.3197 12.9454 17.3197 13.0425C17.2227 12.8871 17.2227 13.2949 17.2227 12.9454C17.2227 12.7512 17.2809 12.4988 17.5139 12.4988C17.5722 12.4988 18.1547 12.6541 17.9217 12.8483Z" fill="black"/>
<path d="M16.9722 17.3922C16.9722 16.6931 17.1275 15.9358 17.1275 15.2949C17.4188 15.4503 18.079 15.2367 18.079 15.2367C18.079 15.2367 18.3703 16.6931 18.3703 17.0426C18.3703 17.6446 18.7198 18.4407 18.5644 18.9845C18.5062 19.334 18.0596 18.9845 17.9625 18.9262C17.8654 18.8291 17.9042 18.4213 17.9042 18.2854C17.9042 17.6834 17.846 17.1785 17.6518 16.6348C17.6518 16.9844 17.4576 17.2756 17.4965 17.6834V18.8291C17.4965 18.8874 16.9528 18.9262 16.8945 18.8291C16.9139 18.4019 16.9722 17.897 16.9722 17.3922Z" fill="#D0D0D0"/>
<path d="M16.7573 15.0037V17.1009C16.7573 17.5087 16.6991 19.1593 15.0486 19.8001C13.3981 19.1593 13.3398 17.4893 13.3398 17.1009V15.0037H16.7573Z" fill="#9DD7FF"/>
<path d="M15.0681 15.0037V16.7126L13.5147 18.169C13.3594 17.7223 13.3594 17.2757 13.3594 17.1203V15.0231H15.0681" fill="#D0D0D0"/>
<path d="M15.0664 15.0037V16.7126L16.6198 18.169C16.7751 17.7223 16.7752 17.2757 16.7752 17.1203V15.0231H15.0664" fill="#FFD83C"/>
</svg>
