<svg width="30" height="31" viewBox="0 0 30 31" fill="none" xmlns="http://www.w3.org/2000/svg">
<path d="M5.00391 5.92175H14.991V15.9094H5.00391V5.92175Z" fill="#428BC1"/>
<path d="M8.45437 3.96289V6.91069H4.80859L12.0032 15.9092H15.009V12.1663L8.45437 3.96289Z" fill="white"/>
<path d="M15.0098 0.918213V15.9093H0.0195312C0.0195312 24.2097 6.70991 30.9004 15.0098 30.9004C23.3098 30.9004 30.0001 24.2097 30.0001 15.9093C30.0001 7.60894 23.2904 0.918213 15.0098 0.918213Z" fill="#ED4C5C"/>
<path d="M4.49902 9.37383H1.4932C0.542977 11.3714 0 13.5628 0 15.9288H5.99225V6.89148H4.49902V9.37383Z" fill="white"/>
<path d="M15.2427 13.7179L8.4941 5.41748H5.48828L14.2343 16.2196H15.2427V13.7179Z" fill="#ED4C5C"/>
<path d="M8.45605 2.4115V5.41748H4.5V6.91077H14.9913V0.918213C12.6448 0.918213 10.4535 1.46122 8.45605 2.4115Z" fill="white"/>
<path d="M15.4936 2.4115H8.4542C5.44838 3.86601 2.96615 6.36777 1.51172 9.35435V16.3942H4.51754V5.39809H15.513V2.4115H15.4936Z" fill="#ED4C5C"/>
<path d="M22.4954 23.4145L19.3926 22.2121C18.7527 21.96 17.4922 21.4558 17.4922 20.1564V10.4597H27.4793V20.1564C27.4793 21.4558 26.2382 21.96 25.5788 22.2121L22.4954 23.4145Z" fill="#3E4347"/>
<path d="M18.2109 11.158V20.1565C18.2109 20.9128 18.9091 21.2619 19.6654 21.5528L22.516 22.6583L25.3667 21.5528C26.123 21.2619 26.8211 20.9516 26.8211 20.1565V11.158H18.2109Z" fill="white"/>
<path d="M18.9062 19.051V19.7492C18.9062 20.3892 19.5074 20.6995 20.1086 20.9516L22.5132 21.9018L24.9179 20.9516C25.5191 20.6995 26.1202 20.4086 26.1202 19.7492V19.051H18.9062Z" fill="#83BF4F"/>
<path d="M19.8953 20.0014C19.7014 19.9044 19.7402 19.245 19.9535 19.1093C20.1086 19.0123 20.6516 19.0511 20.6516 19.0511L20.9037 18.5081L21.6018 18.8571L21.0976 19.4583C21.0976 19.4583 21.0007 19.9044 20.8455 19.9626C20.7874 19.9626 20.6904 19.7686 20.6516 19.8074C20.5547 19.8074 20.4965 20.2147 20.3607 20.2147C20.225 20.2147 20.2638 19.7686 20.1668 19.7686C20.0892 19.7104 19.9923 20.0595 19.8953 20.0014Z" fill="#ED4C5C"/>
<path d="M24.9374 20.1176C25.1313 20.0207 25.0925 19.3613 24.8792 19.2255C24.7241 19.1286 24.1811 19.1674 24.1811 19.1674L23.9872 18.5662L23.2891 18.9152L23.7933 19.5164C23.7933 19.5164 23.8902 19.9625 24.0454 20.0207C24.1035 20.0207 24.2005 19.8267 24.2393 19.8655C24.3363 19.8655 24.3944 20.2728 24.5302 20.2728C24.6659 20.2728 24.6271 19.8267 24.7241 19.8267C24.8017 19.7686 24.8405 20.1176 24.9374 20.1176Z" fill="#ED4C5C"/>
<path d="M24.2014 16.0062C24.2014 16.0062 25.4038 16.1614 25.6559 16.4135C25.9468 16.7044 26.1019 17.8098 25.811 18.0619C25.6559 18.2171 24.919 17.868 24.919 17.868V17.5189L23.9688 16.7238L24.2014 16.0062Z" fill="#ED4C5C"/>
<path d="M20.5567 15.7542C20.5567 15.7542 19.7034 16.0063 19.5095 16.2002C19.2186 16.4911 18.8114 17.7517 19.2186 18.0038C19.4125 18.1007 19.9749 17.5577 19.9749 17.5577L20.8282 17.0147L20.5567 15.7542Z" fill="#ED4C5C"/>
<path d="M20.6933 16.4135L19.8012 15.6572C19.8012 15.6572 19.5491 14.8621 20.2085 14.7651C20.8096 14.6681 22.6131 14.5712 22.6131 14.5712C22.6131 14.5712 24.8627 14.6293 25.0178 14.7263C25.5608 15.0754 25.0178 15.8317 25.0178 15.8317L24.2615 16.5299L24.8045 17.8874L20.6157 17.7905L20.6933 16.4135Z" fill="#42ADE2"/>
<path d="M20.4023 17.3057L20.6545 15.7542L21.7986 15.3469L22.6519 16.5881L22.5937 18.5856L20.4023 17.3057Z" fill="#FFCE31"/>
<path d="M21.6016 17.8098L21.7955 16.6656L23.3469 16.2583L24.2001 17.8486L22.8427 18.7988L21.6016 17.8098Z" fill="#3E4347"/>
<path d="M20.0508 17.5577L20.458 17.2086C20.458 17.2086 21.098 17.7129 21.3501 17.7517C21.5052 17.8098 21.893 17.5965 22.0482 17.6935C22.1451 17.7904 22.1064 18.1977 22.2421 18.2365C22.533 18.3335 22.9402 17.6353 23.2505 17.5965C23.4057 17.5383 23.7547 17.8486 23.8905 17.7904C24.0844 17.6935 24.2977 16.9371 24.2977 16.9371L24.8989 17.4801L24.608 18.6244L23.7547 18.8183L22.3973 19.8268L21.1561 18.7795L20.3611 18.5856L20.0508 17.5577Z" fill="white"/>
<path d="M20.148 14.7651C20.148 14.7651 19.702 14.513 19.7989 14.416C19.8959 14.2221 20.4971 14.2221 20.7492 14.3191C20.8461 14.3773 21.0013 14.61 21.0013 14.61L21.6024 14.4548L21.6606 14.0476C21.6606 14.0476 21.3697 13.8536 21.4085 13.7567C21.4085 13.6015 21.8545 13.4658 21.8545 13.4658C21.8545 13.4658 21.4085 13.4076 21.4085 13.2718C21.4085 13.1749 21.7576 13.0779 21.7576 13.0779C21.7576 13.0779 21.5055 12.8258 21.6024 12.7288C21.6606 12.6706 21.8933 12.8258 21.8933 12.8258C21.8933 12.8258 21.7382 12.5349 21.7964 12.4185C21.8546 12.3216 22.0485 12.1664 22.0485 12.1664C22.0485 12.1664 22.0485 11.8173 22.1454 11.7591C22.2036 11.7591 22.5527 11.8561 22.5527 11.8561C22.5527 11.8561 22.8048 11.604 22.8435 11.604C22.9405 11.604 22.9987 11.8561 22.9987 11.8561L23.2896 11.7591C23.3478 11.7591 23.3478 12.2052 23.3478 12.2052C23.3478 12.2052 23.5417 12.3022 23.5999 12.3604C23.5999 12.4573 23.4447 12.6513 23.4447 12.6513C23.4447 12.6513 23.7938 12.6513 23.852 12.7094C23.9101 12.8064 23.658 13.0003 23.658 13.0003C23.658 13.0003 23.9101 13.1943 23.9101 13.2912C23.9101 13.3882 23.5611 13.4852 23.5611 13.4852C23.5611 13.4852 23.852 13.6791 23.852 13.7761C23.852 13.873 23.5611 13.9312 23.5611 13.9312L23.755 14.2803L24.1622 14.5324C24.1622 14.5324 24.8022 14.2803 25.0155 14.2803C25.1125 14.2803 25.2676 14.3773 25.2676 14.4354C25.3258 14.5324 25.0155 14.6876 25.0155 14.6876L24.6664 15.0948L23.2702 14.6488L21.68 14.707L20.6328 15.153L20.148 14.7651Z" fill="#ED4C5C"/>
<path d="M22.3387 12.4573C22.4163 12.4573 22.4939 12.4961 22.4939 12.5542C22.4939 12.6124 22.4357 12.6512 22.3387 12.6512C22.2611 12.6512 22.1836 12.6124 22.1836 12.5542C22.203 12.5155 22.2611 12.4573 22.3387 12.4573Z" fill="#3E4347"/>
<path d="M22.9012 12.4573C22.9788 12.4573 23.0564 12.4961 23.0564 12.5542C23.0564 12.6124 22.9982 12.6512 22.9012 12.6512C22.8237 12.6512 22.7461 12.6124 22.7461 12.5542C22.7461 12.5155 22.8043 12.4573 22.9012 12.4573Z" fill="#3E4347"/>
<path d="M20.1484 14.7651C20.1484 14.7651 20.4393 15.3081 20.6914 15.3081C20.9435 15.3081 21.6998 14.9009 21.6998 14.9009V15.0948C21.9519 15.3469 22.9409 15.3857 23.1543 15.0948C23.2124 15.0366 23.0961 14.8039 23.0961 14.8039C23.0961 14.8039 24.2014 15.2499 24.5505 15.2112C24.7056 15.2112 24.8996 14.7651 24.8996 14.7651C24.8996 14.7651 24.6087 14.959 24.3953 14.9203C23.9881 14.8621 23.29 14.416 22.9021 14.4742C22.8052 14.4742 22.5531 14.6681 22.5531 14.6681H22.1458C22.1458 14.6681 21.855 14.513 21.7386 14.513C21.4477 14.513 20.9435 14.959 20.6332 15.0172C20.4975 15.0172 20.1484 14.7651 20.1484 14.7651Z" fill="#FFCE31"/>
<path d="M25.2499 15.6572H24.8039L24.0476 16.5493L24.4936 17.3444L24.8427 17.5966L24.5518 18.4887L24.1058 18.7408L23.8537 18.5856L23.5046 18.6438L23.6598 18.8959L23.0586 19.245L22.6126 19.4971L22.5156 19.788L22.7677 19.982L22.9617 19.7298L22.9035 19.5359L23.5434 19.342L23.8343 18.9347L24.3385 18.9929L24.6876 18.7408L24.9784 17.6353L25.0754 17.4414L24.6682 17.1893L24.2609 16.5493L24.8039 16.0063L25.056 16.1615L25.2112 16.0645V15.6572H25.2499Z" fill="#FFCE31"/>
<path d="M19.7031 15.6572H20.1492L20.9054 16.5493L20.4594 17.3444L20.1104 17.5966L20.4012 18.4887L20.8473 18.7408L21.0994 18.5856L21.4484 18.6438L21.2933 18.8959L21.8945 19.245L22.3405 19.4971L22.4374 19.788L22.1854 19.982L21.9914 19.7298L22.0496 19.5359L21.4097 19.342L21.1188 18.9347L20.6146 18.9929L20.2655 18.7408L19.9746 17.6353L19.8777 17.4414L20.2849 17.1893L20.6921 16.5493L20.1492 16.0063L19.897 16.1615L19.7031 16.0645V15.6572Z" fill="#FFCE31"/>
</svg>
