<svg width="30" height="31" viewBox="0 0 30 31" fill="none" xmlns="http://www.w3.org/2000/svg">
<path d="M7.50041 2.04609C0.359794 6.19874 -2.14331 15.3967 2.00911 22.5377L28.0103 7.53767C23.8579 0.39667 14.6604 -2.10656 7.50041 2.04609Z" fill="#FFCE31"/>
<path d="M22.4981 28.0487C29.6388 23.8961 32.1419 14.7563 27.9894 7.55713L1.98828 22.5571C6.16011 29.6981 15.3575 32.2013 22.4981 28.0487Z" fill="#ED4C5C"/>
<path d="M27.8534 8.25564C27.8534 8.25564 27.0967 8.19743 26.7086 8.19743C26.3011 8.19743 25.9518 8.44969 25.5055 8.4885C25.7966 8.33326 25.9518 8.08099 26.2041 7.94516C26.4563 7.84813 26.8444 7.78992 26.9026 7.44063C26.6504 7.63468 26.3011 7.59587 26.01 7.53766C25.719 7.53766 25.5055 7.78992 25.3115 7.94516C25.4085 7.49884 25.6608 7.18837 25.719 6.74206C25.7772 6.33456 26.4175 6.04348 26.2235 5.59717C26.1653 6.00467 25.6802 6.04348 25.525 6.39276C25.3697 6.83908 24.9816 7.18837 24.9234 7.69289C24.8652 8.29445 24.4189 7.98397 24.0308 8.1392C23.9338 8.19742 23.4875 7.63468 22.8278 7.63468C21.8188 7.6929 21.4307 7.69289 20.1307 6.39276C19.8396 6.10169 18.7724 5.98526 18.3843 6.23753C18.7918 6.23753 19.1411 6.33455 19.4321 6.5286C19.2381 6.68384 18.9276 6.33455 18.6754 6.47039C19.0829 6.47039 19.2187 6.66443 19.1799 7.01372C18.8306 6.76146 18.2291 6.41218 17.7828 6.60622C17.4918 6.76146 16.929 6.54801 16.7738 6.95551C17.1813 6.76146 17.5694 6.8973 17.9768 7.05253C17.7828 7.11075 17.2783 7.11075 17.1231 7.3048C17.3171 7.24658 17.5306 7.24658 17.6664 7.3048C17.6082 7.46004 17.5694 7.59587 17.6082 7.75111C17.0649 7.55706 16.3081 7.24658 15.8036 7.65408C15.2603 8.10039 16.0947 8.60493 16.2499 8.29445C15.9006 8.44969 15.7454 7.84813 16.2499 7.84813C16.9484 7.78992 17.6082 8.1004 18.1903 8.39148C17.8992 8.4885 16.9484 8.39147 16.7932 7.98397C16.735 8.13921 16.735 8.33325 16.8902 8.43028C16.4439 8.43028 16.0365 8.8766 15.6484 8.83779C15.2991 8.83779 14.6006 8.83779 14.5424 9.2841C15.0857 8.77957 15.8424 9.18707 16.4827 9.09005C16.3275 9.38112 16.2305 9.73041 16.1335 10.0991C15.9783 10.5454 15.532 10.7395 15.2797 11.2052C15.4737 11.0111 15.726 10.8559 16.0365 10.7977C15.8812 11.147 15.4931 11.6903 15.6872 12.0396C15.7842 11.4963 16.1335 11.6321 16.541 11.438C16.4439 11.6903 16.638 12.1366 16.9873 12.0396C16.832 12.2919 16.9873 12.6411 17.2783 12.7382C17.0843 12.9904 16.5798 12.8352 16.4827 13.0875C16.832 12.9322 17.1231 13.495 17.5888 13.3397C17.5306 13.5338 17.5888 13.689 17.6858 13.8442C17.4335 13.786 16.9872 13.9995 16.832 13.6502C16.6768 14.0577 17.3753 13.9413 17.2783 14.2517C17.1231 14.2517 16.929 13.8442 16.832 14.1547C16.7738 14.1547 16.6768 13.8636 16.541 13.8054C16.3469 13.7472 16.0947 13.9025 15.9976 13.8636C16.1917 13.5726 15.6484 13.3591 15.4543 13.5726C15.5126 13.1263 14.6588 12.8158 14.6588 12.4665C14.5036 12.7188 14.814 12.9128 14.7558 13.1651C14.6588 13.0681 14.5618 13.0098 14.4648 13.0681C14.1737 13.1263 14.3677 13.0098 14.0573 12.971C13.7662 12.9128 13.902 13.1263 13.6498 12.971C13.4945 12.874 13.3005 12.9128 13.2423 13.0292C13.0871 12.5247 12.4467 12.777 12.2915 12.3889C12.2333 12.6411 12.5826 12.8934 12.6408 13.1457C12.3497 12.8934 11.787 13.2039 11.9423 13.592C11.8452 13.6502 11.1467 13.3979 11.3019 13.9413C11.1079 13.7472 9.94365 13.8831 9.94365 14.2323C10.1377 14.0771 10.5452 14.1741 10.7004 14.2906C10.5452 14.3876 10.5064 14.7369 10.6034 14.8921C10.0601 14.8339 10.3123 15.5907 10.0601 15.7459C9.7108 15.94 9.36152 16.4445 8.91523 16.2893C9.16748 16.6968 9.67199 16.2893 9.96305 16.3475C9.61378 16.5997 9.90483 16.9878 9.67199 17.2401C9.47795 17.4924 9.2257 18.0939 8.77941 17.9387C8.83763 18.1327 9.07047 18.1909 9.28391 18.1909C9.12868 18.288 8.99286 18.482 8.77941 18.385C8.77941 18.5402 8.87643 18.6373 8.97345 18.6761C8.7212 18.6761 8.52717 18.7731 8.27492 18.7343C8.27492 18.8313 8.33313 18.9865 8.37194 19.0836C8.08088 18.9865 7.47935 18.8313 7.2659 19.1806C7.42114 19.1806 7.67339 19.1806 7.7122 19.3746C7.51816 19.2194 7.26592 19.3164 7.01367 19.3164C6.6644 19.3746 6.47037 19.1612 6.1211 19.0642C5.86885 18.9671 4.72402 18.7731 4.66581 19.1612C4.91806 18.9671 5.46136 19.3552 5.77182 19.3164C6.21811 19.2582 6.56737 19.6075 6.97485 19.7239C6.37333 19.6657 6.02407 19.9762 5.48076 20.015C5.22851 20.0732 4.6852 19.9568 4.62698 20.3061C4.87923 20.1508 5.1703 20.3643 5.48076 20.2479C5.73301 20.1896 5.98526 19.9956 6.23751 20.0926C6.08228 20.2867 5.83002 20.3837 5.59718 20.4419C5.1897 20.5001 5.05387 20.636 4.7046 20.8494C4.45235 21.0046 4.10308 20.9464 3.85083 21.1405C3.65679 21.2957 3.44335 21.548 3.1523 21.548C3.50157 21.742 3.85083 21.3928 4.16129 21.2957C4.56877 21.1405 4.95685 21.1987 5.30612 20.9464C5.11208 21.451 4.41355 21.3539 4.00607 21.645C3.50157 21.9943 3.1523 22.5376 2.55078 22.6541C2.80303 22.9451 3.34633 22.557 3.55977 22.46C4.00606 22.2078 4.56879 22.3048 4.95686 21.9555C5.36435 21.6062 5.81062 21.548 6.15989 21.1987C6.25691 21.1017 7.16889 20.5001 7.2659 20.5001C6.91663 20.6554 6.85844 21.1987 6.41215 21.2957C6.76142 21.451 7.51816 20.8494 7.90624 20.6942C7.7122 20.9852 7.05248 21.1405 7.01367 21.4898C7.36294 21.1987 7.86744 21.2957 8.1585 21.0435C8.44956 20.7912 9.05107 20.4031 9.26451 20.0344C9.45855 19.7433 9.67199 19.5881 9.96305 19.394C10.1183 19.297 10.2541 19.1418 10.4675 19.103C10.6616 19.0448 10.875 19.2 11.0691 19.103C11.1273 19.9956 10.778 19.2582 10.4675 19.6463C10.4093 19.7045 10.7586 19.8016 10.8168 19.8986C10.8168 19.8986 10.2735 20.4031 10.2153 20.4031C10.3705 20.5971 10.7198 20.4613 10.8556 20.3061C10.7974 20.4613 11.0108 20.5971 10.9526 20.7524C11.0497 20.7524 11.3019 20.209 11.3989 20.3061C11.1467 20.4031 11.593 20.5583 11.593 20.5583C11.4377 20.6554 11.593 20.8106 11.69 20.7524C11.5348 20.8106 11.69 21.0435 11.593 21.1599C11.496 21.4122 11.3019 21.3539 11.0497 21.5674C10.8556 21.7614 10.7974 22.0137 10.8556 22.266C10.9138 22.46 11.0497 23.1198 11.1467 22.7123C10.9526 23.6631 12.1557 24.2647 12.8542 23.6049C13.2035 23.2556 13.611 21.8003 13.0095 21.5092C13.1065 21.5674 13.2617 21.5092 13.3005 21.451C13.3587 21.548 13.3975 21.6062 13.4946 21.6062C13.8438 21.7032 13.9408 22.1495 13.902 22.4988C14.1543 22.2078 14.0961 21.451 13.8438 21.1405C13.7468 21.0435 13.3975 20.8882 13.2423 20.8494C13.0871 20.8494 12.9901 20.8494 12.9512 21.0047C12.8542 20.9076 12.699 20.8494 12.5438 20.9076C12.602 20.7136 12.3497 20.209 12.1363 20.112C11.7288 19.8598 11.9811 19.2194 12.0781 18.8701C12.2333 18.9671 12.6796 19.1224 12.8736 19.2194C13.0677 19.3164 14.1737 19.5687 13.7274 19.3746C14.7364 19.7821 15.3185 18.1715 14.3677 17.8223C14.7752 17.8805 14.4259 17.473 14.2125 17.3759C13.9214 17.2789 13.3199 17.4342 13.0677 17.6282C13.1259 17.57 13.2229 17.2207 13.2617 17.1819C13.4169 17.0267 13.5528 16.8908 13.805 16.9878C12.8542 15.7459 12.5632 18.0357 12.0975 17.8417C11.8064 17.6864 11.7482 16.8326 11.9034 16.6386C12.0005 16.5415 11.9034 16.3863 11.9617 16.231C12.0587 16.0758 12.2527 15.94 12.3691 15.7847C12.7184 15.1832 14.1737 15.4937 14.814 15.7847C15.6678 16.134 16.8126 16.2893 17.7052 16.3863C17.6082 16.5803 17.7634 16.6774 17.7052 16.8326C17.6082 16.7744 16.8126 16.7744 16.7544 16.8326C16.9484 16.8326 17.1619 17.0849 17.3947 17.0849C16.9873 17.1431 16.9484 17.6864 16.638 17.6864C16.832 17.8417 17.9963 17.1431 17.4918 17.9775C17.6858 17.9775 17.7828 17.7252 17.841 17.5312C18.035 17.6282 19.2381 18.6373 19.4903 18.2297C19.4903 18.482 19.8396 18.482 19.9949 18.482C20.2471 18.482 20.6934 18.6761 20.8874 18.6373C20.1307 19.1806 22.1875 20.9464 22.1875 20.2285C22.1875 19.7821 22.8278 20.636 23.4875 20.0344C24.1279 19.3941 23.5845 18.1327 22.692 18.1909C22.9442 18.1327 23.4875 18.0939 23.5846 18.5402C24.0309 17.7834 22.8278 17.3953 22.3427 17.5894C22.6338 17.4342 22.4397 17.2983 22.692 17.1431C22.886 17.0461 23.0413 16.852 23.2935 16.8908C23.0025 16.5415 21.7994 16.6386 21.8964 17.2401C21.7412 17.1819 21.6442 17.2401 21.5472 17.3371C21.5472 17.5312 21.4501 17.5894 21.2561 17.5894C21.1591 17.7834 21.0621 17.8417 20.965 17.6476C20.771 17.5506 20.674 17.5894 20.4605 17.4536C20.3053 17.3565 19.956 17.3565 19.8202 17.3565C19.568 17.4147 19.4709 17.0655 19.1799 17.1625C19.1217 16.658 19.5292 16.3669 19.7232 15.9594C19.9754 15.5131 20.2277 15.0668 20.3247 14.504C20.3829 14.0577 20.2277 13.6502 20.8292 13.6114C21.2755 13.5532 21.3725 14.1159 20.9262 14.2517C21.1203 14.407 21.3725 14.1935 21.4695 13.9995C21.3143 14.2906 21.3143 14.8533 21.7218 14.9503C21.6248 14.6981 21.9158 14.504 21.8188 14.2517C22.0128 14.3488 22.2263 14.5428 22.2263 14.7951C22.4785 14.504 22.1293 14.1935 22.1293 13.9025C22.5756 13.9607 22.886 13.8054 23.2353 13.495C23.6428 13.2427 23.6816 13.2427 23.992 13.495C24.5354 13.9025 25.7384 13.786 26.0876 13.1457C26.2429 12.7964 26.5921 12.7964 26.2817 12.3889C26.0876 12.0978 25.8354 11.8455 25.6802 11.5351C25.2727 10.5842 24.0309 11.6321 23.8756 11.9426C23.6816 12.2336 23.8174 12.2919 23.4293 12.2336C22.9248 12.1754 22.4785 12.5247 21.9352 12.4277C21.4307 12.3307 21.0815 12.0784 20.6934 11.8261C20.1501 11.5351 19.8396 11.5351 19.4515 10.9723C19.7426 11.0305 20.0919 11.0693 20.3441 11.3216C20.5381 11.5157 20.7516 11.8261 21.1009 11.7291C20.7516 11.6321 20.4023 11.0888 20.0531 10.8753C20.4023 10.429 21.1591 10.5842 21.7024 10.5842C22.1487 10.5842 22.3427 11.0888 22.7114 11.2828C22.5174 11.3798 22.4591 11.6903 22.2069 11.6903C22.4009 11.7873 22.6532 11.7485 22.8472 11.5933C22.789 11.7873 22.8472 12.0008 23.0412 12.0978C22.886 11.9038 23.1383 11.7485 23.2353 11.6515C23.2935 11.8067 23.4875 11.9038 23.4293 12.059C23.9338 11.962 23.5846 10.7589 23.2353 10.6618C23.8756 10.1185 24.0308 11.1082 23.8368 11.5545C24.0891 11.3604 24.0891 11.0499 24.0891 10.7589C24.5936 10.9141 26.9802 10.2155 26.8832 11.1664C27.2325 10.7589 26.5921 10.4678 26.2817 10.4096C26.0294 10.3514 25.8742 9.65279 25.525 9.96327C25.9324 9.90505 25.719 10.4678 25.4667 10.5648C25.5638 10.2155 25.2145 9.96327 24.8652 10.0603C25.719 10.3126 24.4189 10.9529 24.5159 10.5066C24.5741 10.2155 24.807 10.0021 24.7682 9.71101C24.71 9.55577 24.613 9.36172 24.613 9.2647C24.807 9.32291 24.807 9.16767 24.6712 9.07065C24.8264 9.12886 24.9622 8.97362 25.1175 8.97362C25.4667 8.91541 25.7578 8.77957 26.1265 8.62433C26.6116 8.44968 27.8534 8.25564 27.8534 8.25564ZM22.2069 9.90506C22.3621 9.55577 23.1577 9.20648 22.9054 9.80803C23.0025 9.74982 23.1577 9.40053 23.3129 9.51696C23.5069 9.61398 23.604 9.80803 23.3711 9.92446C23.5651 9.92446 23.7786 9.76922 23.9726 9.82743C23.8756 9.92446 23.8756 10.1185 23.7204 10.2349C23.4099 10.3902 22.6532 9.94387 22.2069 9.90506ZM23.0995 10.7007C22.9054 10.6036 22.4979 10.4096 22.3427 10.1961C22.6338 10.2932 22.983 10.3514 23.2935 10.4872C23.2935 10.5066 23.1577 10.6036 23.0995 10.7007Z" fill="white"/>
</svg>
