<svg width="30" height="31" viewBox="0 0 30 31" fill="none" xmlns="http://www.w3.org/2000/svg">
<path d="M15.0017 0.135742C8.4428 0.135742 2.89299 4.32743 0.855469 10.1298H29.1478C27.1103 4.32743 21.5605 0.135742 15.0017 0.135742Z" fill="#C94747"/>
<path d="M15.0017 30.1374C21.5605 30.1374 27.1103 25.9845 29.1478 20.1433H0.855469C2.89299 25.9845 8.4428 30.1374 15.0017 30.1374Z" fill="#83BF4F"/>
<path d="M0.853821 10.1299C0.310483 11.6824 0 13.3707 0 15.1366C0 16.8832 0.291079 18.5909 0.853821 20.1434H29.1462C29.6895 18.5909 30 16.9026 30 15.1366C30 13.3901 29.7089 11.6824 29.1462 10.1299H0.853821Z" fill="#FFCE31"/>
<path d="M14.6523 17.9893H15.3509V19.4447H14.6523V17.9893Z" fill="#ED1C24"/>
<path d="M14.1055 18.1445H14.8041V19.6H14.1055V18.1445Z" fill="#FFE000"/>
<path d="M15.1953 18.1445H15.8939V19.6H15.1953V18.1445Z" fill="#FFE000"/>
<path d="M14.0117 18.1445H14.458V19.9881H14.0117V18.1445Z" fill="#699635"/>
<path d="M15.543 18.1445H15.9893V19.9881H15.543V18.1445Z" fill="#699635"/>
<path d="M13.796 10.8285C13.796 10.8285 13.6407 10.7703 13.5049 10.7703C13.6019 10.6151 13.6601 10.324 13.6601 10.324C13.6601 10.324 13.4079 10.4792 13.3108 10.6151C13.2526 10.518 13.1556 10.3628 13.1556 10.3628C13.1556 10.3628 13.0586 10.518 13.0586 10.6151C13.0586 10.7703 13.2526 10.9644 13.2526 10.9644C13.2526 10.9644 13.5049 11.0226 13.6601 11.0226C13.699 10.9838 13.796 10.8285 13.796 10.8285Z" fill="#699635"/>
<path d="M13.5431 11.1971C13.5431 11.1971 13.3878 11.1971 13.252 11.2553C13.3102 11.0612 13.252 10.7507 13.252 10.7507C13.252 10.7507 13.0579 11.003 12.9997 11.1583L12.8057 10.9642C12.8057 10.9642 12.7086 11.1195 12.7474 11.2553C12.8057 11.3523 12.9997 11.5076 12.9997 11.5076C12.9997 11.5076 13.252 11.5076 13.4072 11.4494C13.5431 11.3911 13.5431 11.1971 13.5431 11.1971Z" fill="#83BF4F"/>
<path d="M13.4469 11.6435L13.1558 11.7405C13.1558 11.5465 13.0588 11.2942 13.0588 11.2942C13.0588 11.2942 12.9035 11.5465 12.9035 11.7405C12.8065 11.6823 12.6513 11.6435 12.6513 11.6435C12.6513 11.6435 12.5931 11.8376 12.7095 11.9346C12.8065 12.0316 13.0588 12.1286 13.0588 12.1286C13.0588 12.1286 13.311 12.0704 13.4081 11.9734C13.4469 11.8376 13.4469 11.6435 13.4469 11.6435Z" fill="#699635"/>
<path d="M13.4087 12.0899C13.4087 12.0899 13.2535 12.187 13.1565 12.284C13.0983 12.0899 12.9042 11.8765 12.9042 11.8765C12.9042 11.8765 12.846 12.1676 12.846 12.3228C12.749 12.2646 12.5938 12.2646 12.5938 12.2646C12.5938 12.2646 12.5938 12.4586 12.6908 12.5169C12.7878 12.6139 13.04 12.6139 13.04 12.6139C13.04 12.6139 13.2923 12.5169 13.3311 12.3616C13.5058 12.2452 13.4087 12.0899 13.4087 12.0899Z" fill="#83BF4F"/>
<path d="M13.5069 12.5362C13.5069 12.5362 13.4099 12.6333 13.3129 12.7885C13.2158 12.6333 12.9636 12.4392 12.9636 12.4392C12.9636 12.4392 12.9636 12.7303 13.0606 12.8855H12.7695C12.7695 12.8855 12.8277 13.0408 12.9636 13.0796C13.1188 13.1378 13.3711 13.0796 13.3711 13.0796C13.3711 13.0796 13.5651 12.8855 13.5651 12.7885C13.6039 12.6915 13.5069 12.5362 13.5069 12.5362Z" fill="#699635"/>
<path d="M13.7581 12.8855C13.7581 12.8855 13.661 13.0408 13.661 13.1378C13.5058 12.9825 13.2535 12.8855 13.2535 12.8855C13.2535 12.8855 13.3506 13.1766 13.4476 13.3318C13.3506 13.3318 13.1953 13.4289 13.1953 13.4289C13.1953 13.4289 13.2923 13.5841 13.4476 13.5841C13.6028 13.5841 13.7969 13.4871 13.7969 13.4871C13.7969 13.4871 13.9521 13.293 13.9521 13.1378C13.8551 13.0408 13.7581 12.8855 13.7581 12.8855Z" fill="#83BF4F"/>
<path d="M14.0475 13.2349C14.0475 13.2349 13.9893 13.3901 13.9893 13.526C13.834 13.4289 13.543 13.3707 13.543 13.3707C13.543 13.3707 13.6982 13.623 13.834 13.72C13.737 13.7782 13.5818 13.8753 13.5818 13.8753C13.5818 13.8753 13.737 13.9723 13.834 13.9723C13.9893 13.9723 14.1833 13.7782 14.1833 13.7782C14.1833 13.7782 14.2415 13.5259 14.2415 13.3707C14.2027 13.3319 14.0475 13.2349 14.0475 13.2349Z" fill="#699635"/>
<path d="M14.3994 13.4871C14.3994 13.4871 14.3994 13.6423 14.4576 13.7781C14.2636 13.7199 13.9531 13.7781 13.9531 13.7781C13.9531 13.7781 14.1472 13.9722 14.3606 14.0304L14.1666 14.2245C14.1666 14.2245 14.3218 14.3215 14.4576 14.2827C14.5547 14.2245 14.7099 14.0304 14.7099 14.0304C14.7099 14.0304 14.7099 13.7781 14.6517 13.6811C14.5935 13.4871 14.3994 13.4871 14.3994 13.4871Z" fill="#83BF4F"/>
<path d="M16.2031 10.8285C16.2031 10.8285 16.3584 10.7703 16.4942 10.7703C16.3972 10.6151 16.3389 10.324 16.3389 10.324C16.3389 10.324 16.5912 10.4792 16.6882 10.6151C16.7465 10.518 16.8435 10.3628 16.8435 10.3628C16.8435 10.3628 16.9405 10.518 16.9405 10.6151C16.9405 10.7703 16.7465 10.9644 16.7465 10.9644C16.7465 10.9644 16.4942 11.0226 16.3389 11.0226C16.3001 10.9838 16.2031 10.8285 16.2031 10.8285Z" fill="#699635"/>
<path d="M16.457 11.1971C16.457 11.1971 16.6123 11.1971 16.7481 11.2553C16.6899 11.0612 16.7481 10.7507 16.7481 10.7507C16.7481 10.7507 16.9421 10.9448 17.0004 11.1583L17.1944 10.9642C17.1944 10.9642 17.2914 11.1195 17.2526 11.2553C17.1944 11.3523 17.0004 11.5076 17.0004 11.5076C17.0004 11.5076 16.7481 11.5076 16.5929 11.4494C16.457 11.3911 16.457 11.1971 16.457 11.1971Z" fill="#83BF4F"/>
<path d="M16.5508 11.6435L16.8419 11.7405C16.8419 11.5465 16.9389 11.2942 16.9389 11.2942C16.9389 11.2942 17.0941 11.5465 17.0941 11.7405C17.1911 11.6823 17.3464 11.6435 17.3464 11.6435C17.3464 11.6435 17.4046 11.8376 17.2882 11.9346C17.1911 12.0316 16.9389 12.1286 16.9389 12.1286C16.9389 12.1286 16.6866 12.0704 16.5896 11.9734C16.5508 11.8376 16.5508 11.6435 16.5508 11.6435Z" fill="#699635"/>
<path d="M16.6089 12.0899C16.6089 12.0899 16.7641 12.187 16.8611 12.284C16.9193 12.0899 17.1134 11.8765 17.1134 11.8765C17.1134 11.8765 17.1716 12.1676 17.1716 12.3228C17.2686 12.2646 17.4239 12.2646 17.4239 12.2646C17.4239 12.2646 17.4239 12.4586 17.3269 12.5169C17.2298 12.6139 16.9776 12.6139 16.9776 12.6139C16.9776 12.6139 16.7253 12.5169 16.6865 12.3616C16.4924 12.2452 16.6089 12.0899 16.6089 12.0899Z" fill="#83BF4F"/>
<path d="M16.4957 12.5362C16.4957 12.5362 16.5927 12.6333 16.6898 12.7885C16.7868 12.6333 17.0391 12.4392 17.0391 12.4392C17.0391 12.4392 17.0391 12.7303 16.942 12.8855H17.2331C17.2331 12.8855 17.1749 13.0408 17.0391 13.0796C16.942 13.1378 16.6315 13.0796 16.6315 13.0796C16.6315 13.0796 16.4375 12.8855 16.4375 12.7885C16.4569 12.6915 16.4957 12.5362 16.4957 12.5362Z" fill="#699635"/>
<path d="M16.2409 12.8855C16.2409 12.8855 16.3379 13.0408 16.3379 13.1378C16.4932 12.9825 16.7455 12.8855 16.7455 12.8855C16.7455 12.8855 16.6484 13.1766 16.5514 13.3318C16.6484 13.3318 16.8037 13.4289 16.8037 13.4289C16.8037 13.4289 16.7067 13.5841 16.5514 13.5841C16.3962 13.5841 16.2021 13.4871 16.2021 13.4871C16.2021 13.4871 16.0469 13.293 16.0469 13.1378C16.0469 12.9825 16.2409 12.8855 16.2409 12.8855Z" fill="#83BF4F"/>
<path d="M15.9519 13.2349C15.9519 13.2349 16.0101 13.3901 16.0101 13.526C16.1653 13.4289 16.4564 13.3707 16.4564 13.3707C16.4564 13.3707 16.3012 13.623 16.1653 13.72C16.2624 13.7782 16.4176 13.8753 16.4176 13.8753C16.4176 13.8753 16.2624 13.9723 16.1653 13.9723C16.0101 13.9723 15.816 13.7782 15.816 13.7782C15.816 13.7782 15.7578 13.5259 15.7578 13.3707C15.7966 13.3319 15.9519 13.2349 15.9519 13.2349Z" fill="#699635"/>
<path d="M15.6034 13.4871C15.6034 13.4871 15.6034 13.6423 15.5452 13.7781C15.7393 13.7199 16.0497 13.7781 16.0497 13.7781C16.0497 13.7781 15.8557 13.9722 15.6422 14.0304L15.8363 14.2245C15.8363 14.2245 15.6811 14.3215 15.5452 14.2827C15.4482 14.2245 15.293 14.0304 15.293 14.0304C15.293 14.0304 15.293 13.7781 15.3512 13.6811C15.4094 13.4871 15.6034 13.4871 15.6034 13.4871Z" fill="#83BF4F"/>
<path d="M16.6497 11.9346C16.1452 11.9346 15.5437 12.5362 15.0003 12.5362C14.457 12.5362 13.8554 11.9346 13.3509 11.9346C12.8464 11.9346 10.8477 12.5362 10.8477 12.5362C13.6032 12.5362 15.0003 14.0304 15.0003 14.0304C15.0003 14.0304 16.3974 12.5362 19.1529 12.5362C19.1529 12.5362 17.1543 11.9346 16.6497 11.9346Z" fill="#594640"/>
<path d="M15.0016 11.9346C15.1957 11.9346 15.3509 12.0898 15.3509 12.2839C15.3509 12.4779 15.1957 12.6332 15.0016 12.6332C14.8076 12.6332 14.6523 12.4779 14.6523 12.2839C14.6523 12.0898 14.8076 11.9346 15.0016 11.9346Z" fill="white"/>
<path d="M12.5938 15.2336L12.8848 15.4859L13.04 15.1948L13.0983 15.0396V14.0305L13.1953 14.0887C13.0983 13.9916 13.0012 13.8946 12.846 13.7976L12.652 13.6423C12.5937 13.6811 12.5938 14.6903 12.5938 15.2336Z" fill="#FFE000"/>
<path d="M13.0994 15.0394L13.3905 14.2825L13.0994 14.0303C13.0606 14.0303 13.0606 14.5348 13.0994 15.0394Z" fill="#699635"/>
<path d="M12.592 13.681L12.786 13.8363C12.4367 13.5452 11.9904 13.1959 11.777 12.9824C11.7187 12.9242 11.7188 13.681 11.7188 14.5349L12.5726 15.2335V13.681" fill="#D52B1E"/>
<path d="M17.4062 15.2336L17.1152 15.4859L16.9599 15.1948L16.9017 15.0396V14.0305L16.8047 14.0887C16.9017 13.9916 16.9987 13.8946 17.154 13.7976L17.348 13.6423C17.4062 13.6811 17.4062 14.6903 17.4062 15.2336Z" fill="#FFE000"/>
<path d="M16.9004 15.0394L16.6094 14.2825L16.9004 14.0303C16.9587 14.0303 16.9587 14.5348 16.9004 15.0394Z" fill="#699635"/>
<path d="M17.405 13.681L17.2109 13.8363C17.5602 13.5452 18.0066 13.1959 18.22 12.9824C18.2782 12.9242 18.2782 13.681 18.2782 14.5349L17.4244 15.2335V13.681" fill="#D52B1E"/>
<path d="M12.9024 18.1446C12.262 17.7953 12.1067 16.7473 12.1456 16.5921V14.7485L12.3396 14.9038C11.9903 14.6127 11.544 14.2634 11.3306 14.0499C11.2723 13.9917 11.3306 16.301 11.3306 17.2907C11.3306 17.7953 11.6798 19.4448 13.7756 18.5909C13.7756 18.5909 14.8234 18.2998 15.1339 17.8923H14.9399L14.8428 17.9505C13.6009 18.6297 12.9024 18.1446 12.9024 18.1446Z" fill="#D52B1E"/>
<path d="M12.1094 16.592C12.1094 16.7472 12.2064 17.7951 12.8662 18.1444C12.8662 18.1444 13.5647 18.649 14.8067 17.9504C14.4574 18.1056 14.1663 18.1056 13.9528 18.0474C13.3513 17.8922 12.7497 17.3488 12.6527 16.7472C12.5557 16.2038 12.5945 15.0395 12.5945 15.0395L12.6915 15.0977C12.5945 15.0007 12.4975 14.9036 12.3422 14.8066L12.1482 14.6514C12.1482 14.729 12.1482 16.4367 12.1094 16.592Z" fill="#FFE000"/>
<path d="M12.9428 15.8352V15.3889C12.7875 15.2918 13.001 15.4471 12.6517 15.1366L12.5547 15.0396V15.1366C12.5547 15.2918 12.5547 16.2815 12.6129 16.7861C12.7099 17.3295 13.3115 17.931 13.913 18.0863C14.1071 18.1445 14.4176 18.0863 14.8057 17.9893L14.8639 17.931C13.8548 17.7952 13.098 16.9801 12.9428 15.8352Z" fill="#699635"/>
<path d="M17.0948 18.1834C17.7352 17.8341 17.8905 16.7862 17.8516 16.6309V14.7873L17.6576 14.9426C18.0069 14.6515 18.4532 14.3022 18.6666 14.0887C18.7249 14.0305 18.6666 16.3398 18.6666 17.3295C18.6666 17.8341 18.3174 19.4836 16.2216 18.6297C16.2216 18.6297 15.1738 18.3386 14.8633 17.9311H15.0573L15.1544 17.9893C16.3963 18.6879 17.0948 18.1834 17.0948 18.1834Z" fill="#D52B1E"/>
<path d="M17.9121 16.6308C17.9121 16.786 17.8151 17.834 17.1553 18.1833C17.1553 18.1833 16.4568 18.6878 15.2148 17.9892C15.5641 18.1444 15.8552 18.1444 16.0687 18.0862C16.6702 17.931 17.2718 17.3876 17.3688 16.786C17.4658 16.2427 17.427 15.0783 17.427 15.0783L17.33 15.1365C17.427 15.0395 17.524 14.9425 17.6793 14.8454L17.8733 14.6902C17.8539 14.7872 17.8539 16.4949 17.9121 16.6308Z" fill="#FFE000"/>
<path d="M17.0578 15.8933V15.447C17.2131 15.3499 16.9996 15.5052 17.3489 15.1947L17.4459 15.0977V15.1559C17.4459 15.3111 17.4459 16.3008 17.3877 16.8054C17.2907 17.3487 16.6891 17.9503 16.0876 18.1056C15.8935 18.1638 15.583 18.1056 15.1949 18.0086L15.1367 17.9503C16.1458 17.8339 16.9026 17.0382 17.0578 15.8933Z" fill="#699635"/>
<path d="M14.9981 18.2414C16.1555 18.2414 17.0938 17.1466 17.0938 15.7962C17.0938 14.4458 16.1555 13.3511 14.9981 13.3511C13.8406 13.3511 12.9023 14.4458 12.9023 15.7962C12.9023 17.1466 13.8406 18.2414 14.9981 18.2414Z" fill="#00A6DE"/>
<path d="M16.7471 15.8351C16.7471 16.9801 13.293 16.9801 13.293 15.8351C13.293 14.6902 14.0498 13.7781 15.0394 13.7781C16.0485 13.7975 16.7471 14.729 16.7471 15.8351Z" fill="#E8A30E"/>
<path d="M14.9437 14.2439C15.4094 14.2439 15.7975 14.5544 15.7975 14.9425C15.7975 15.3306 15.4094 15.6411 14.9437 15.6411C14.4779 15.6411 14.0898 15.3306 14.0898 14.9425C14.1092 14.5544 14.4779 14.2439 14.9437 14.2439Z" fill="#D52B1E"/>
<path d="M14.9033 14.7871C14.3988 14.7871 13.2539 15.8932 13.2539 15.8932C13.2539 16.9412 14.0107 17.795 15.0003 17.795C16.0094 17.795 16.7468 16.9412 16.7468 15.8932C16.7468 15.8932 15.4467 14.7871 14.9033 14.7871Z" fill="#699635"/>
<path d="M15.1562 16.6309H15.6026V17.3295H15.1562V16.6309Z" fill="#E8A30E"/>
<path d="M15.7969 15.8352H16.0491V17.2324H15.7969V15.8352Z" fill="white"/>
</svg>
