<svg width="30" height="31" viewBox="0 0 30 31" fill="none" xmlns="http://www.w3.org/2000/svg">
<path d="M4.38491 25.8446C10.2315 31.6914 19.7491 31.6914 25.6151 25.8446L4.38491 4.61328C-1.46164 10.4796 -1.46164 19.9977 4.38491 25.8446Z" fill="#2A5F9E"/>
<path d="M4.38672 4.63263L25.6169 25.8639V4.63263C19.7509 -1.23366 10.2527 -1.23366 4.38672 4.63263Z" fill="#FFCE31"/>
<path d="M25.6133 4.63257V25.8639C31.4598 19.9976 31.4598 10.4794 25.6133 4.63257Z" fill="#2A5F9E"/>
<path d="M4.44251 9.74142L5.64678 10.635L5.20002 9.13925L6.40428 8.24571H4.90866L4.46191 6.75L4.01515 8.24571H2.51953L3.7238 9.13925L3.27709 10.635L4.44251 9.74142Z" fill="white"/>
<path d="M7.84073 13.1406L9.08383 14.0924L8.57879 12.5967L9.82194 11.6449H8.32632L7.82128 10.1492L7.37453 11.6449H5.87891L7.08317 12.5967L6.63641 14.0924L7.84073 13.1406Z" fill="white"/>
<path d="M11.2979 16.5982L12.5022 17.4918L12.0555 15.9961L13.2598 15.1025L11.7641 15.0443L11.3174 13.5874L10.8706 15.0443L9.375 15.1025L10.5793 15.9961L10.1325 17.4918L11.2979 16.5982Z" fill="white"/>
<path d="M14.7003 19.9978L15.9046 20.8913L15.4578 19.3956L16.6621 18.5021H15.1665L14.7197 17.0063L14.273 18.5021H12.7773L13.9816 19.3956L13.5349 20.8913L14.7003 19.9978Z" fill="white"/>
<path d="M18.157 23.3969L19.3613 24.3487L18.9146 22.853L20.1188 21.9012H18.6232L18.1764 20.4055L17.6714 21.9012H16.1758L17.4189 22.853L16.9139 24.3487L18.157 23.3969Z" fill="white"/>
<path d="M21.5557 26.8547L22.76 27.7482L22.3133 26.2525L23.5176 25.359H22.0219L21.5752 23.8633L21.1284 25.359H19.6328L20.8371 26.2525L20.3903 27.7482L21.5557 26.8547Z" fill="white"/>
</svg>
