<svg width="30" height="31" viewBox="0 0 30 31" fill="none" xmlns="http://www.w3.org/2000/svg">
<path d="M29.4555 11.2461C27.7079 4.89627 21.9021 0.23584 14.9895 0.23584C8.07684 0.23584 2.27101 4.89627 0.523438 11.2461V19.2466C2.27101 25.5964 8.07684 30.2569 14.9895 30.2569C21.9021 30.2569 27.7079 25.5964 29.4555 19.2466V11.2461Z" fill="#B4D7EE"/>
<path d="M29.807 12.7413C29.7099 12.2364 29.6128 11.7316 29.4574 11.2461H0.544836C0.389497 11.751 0.2924 12.2559 0.195312 12.7413H29.807Z" fill="white"/>
<path d="M0.195312 17.7512C0.2924 18.2561 0.389497 18.761 0.544836 19.2464H29.4574C29.6128 18.7416 29.7099 18.2367 29.807 17.7512H0.195312Z" fill="white"/>
<path d="M0 15.2462C0 16.1006 0.0582524 16.955 0.194175 17.7512H29.8058C29.9612 16.955 30 16.1006 30 15.2462C30 14.3918 29.9417 13.5374 29.8058 12.7412H0.194175C0.0388349 13.5374 0 14.3918 0 15.2462Z" fill="#3E4347"/>
</svg>
