<svg width="30" height="31" viewBox="0 0 30 31" fill="none" xmlns="http://www.w3.org/2000/svg">
<path d="M29.8074 13.2873C29.7493 12.7837 29.6525 12.2801 29.5169 11.7959H0.427228L0.136719 13.2873H29.8074Z" fill="white"/>
<path d="M0.15625 17.2771C0.214352 17.7807 0.311189 18.2842 0.44676 18.7685H29.5558L29.8464 17.2771H0.15625Z" fill="white"/>
<path d="M8.98737 1.55005L7.49609 2.30541V28.259C7.99964 28.5495 8.50318 28.8013 8.98737 29.0144V1.55005Z" fill="white"/>
<path d="M12.9766 0.446128V30.1378L14.4679 30.2928V0.310547C13.9837 0.310547 13.4801 0.349286 12.9766 0.446128Z" fill="white"/>
<path d="M0 15.2823C0 15.9796 0.0581114 16.6381 0.154948 17.2772H29.8451C29.9419 16.6381 30 15.9796 30 15.2823C30 14.585 29.9419 13.9265 29.8451 13.2874H0.154948C0.0581114 13.9265 0 14.585 0 15.2823Z" fill="#2A5F9E"/>
<path d="M8.98828 28.995C10.2278 29.5373 11.5835 29.944 12.9779 30.099V0.446045C11.5835 0.639728 10.2278 0.988361 8.98828 1.55004V28.995Z" fill="#2A5F9E"/>
<path d="M7.49471 11.7766V2.28613C4.00859 4.33918 1.41335 7.72864 0.40625 11.7766H7.49471Z" fill="#ED4C5C"/>
<path d="M7.49471 18.7686V28.259C4.00859 26.206 1.41335 22.8165 0.40625 18.7686H7.49471Z" fill="#ED4C5C"/>
<path d="M14.9919 0.310547H14.4883V11.796H29.5561C27.9679 5.19137 22.0609 0.310547 14.9919 0.310547Z" fill="#ED4C5C"/>
<path d="M14.4883 18.7686V30.254H14.9919C22.0803 30.254 27.9679 25.3538 29.5561 18.7686H14.4883Z" fill="#ED4C5C"/>
</svg>
