<svg width="30" height="31" viewBox="0 0 30 31" fill="none" xmlns="http://www.w3.org/2000/svg">
<path d="M29.7494 12.749C28.5463 5.70467 22.3949 0.348633 15.0016 0.348633C7.60836 0.348633 1.45701 5.70467 0.253906 12.749L15.0016 5.35536L29.7494 12.749Z" fill="#699635"/>
<path d="M0.253906 17.9497C1.45701 24.9941 7.60836 30.3501 15.0016 30.3501C22.3949 30.3501 28.5463 24.9941 29.7494 17.9497L15.0016 25.3434L0.253906 17.9497Z" fill="#699635"/>
<path d="M15 5.35547L0.252273 12.7491C0.097034 13.603 0 14.4569 0 15.3495C0 16.2422 0.097034 17.0961 0.252273 17.9499L15 25.3436L29.7477 17.9499C29.903 17.0961 30 16.2422 30 15.3495C30 14.4569 29.903 13.603 29.7477 12.7491L15 5.35547Z" fill="#FFE62E"/>
<path d="M11.9941 13.5444C10.4029 13.5444 8.88935 13.8937 7.55041 14.4953C7.4922 14.7864 7.49219 15.0387 7.49219 15.3492C7.49219 19.5021 10.8492 22.8593 15.0019 22.8593C17.7962 22.8593 20.2606 21.3068 21.5607 19.0557C19.6979 15.7955 16.108 13.5444 11.9941 13.5444Z" fill="#428BC1"/>
<path d="M22.3921 16.5526C22.4504 16.1451 22.4892 15.757 22.4892 15.3495C22.4892 11.1966 19.1321 7.83936 14.9795 7.83936C12.0299 7.83936 9.48788 9.54707 8.22656 12.031C9.42967 11.6817 10.6716 11.4877 11.9717 11.4877C16.2408 11.5071 20.0053 13.5059 22.3921 16.5526Z" fill="#428BC1"/>
<path d="M11.9906 11.5073C10.6905 11.5073 9.44853 11.7014 8.24542 12.0507C7.89613 12.8075 7.6439 13.6032 7.54688 14.4958C8.90522 13.8942 10.3994 13.5449 11.9906 13.5449C16.085 13.5449 19.6943 15.7378 21.5378 18.998C21.9841 18.2412 22.2364 17.4067 22.3916 16.5529C20.0048 13.5061 16.2403 11.5073 11.9906 11.5073Z" fill="white"/>
<path d="M9.99278 14.8447C10.2644 14.8447 10.4973 15.0776 10.4973 15.3493C10.4973 15.621 10.2644 15.8538 9.99278 15.8538C9.72111 15.8538 9.48828 15.621 9.48828 15.3493C9.50769 15.0776 9.72111 14.8447 9.99278 14.8447Z" fill="white"/>
<path d="M11.9928 18.8617C12.2714 18.8617 12.4973 18.6358 12.4973 18.3571C12.4973 18.0784 12.2714 17.8525 11.9928 17.8525C11.7141 17.8525 11.4883 18.0784 11.4883 18.3571C11.4883 18.6358 11.7141 18.8617 11.9928 18.8617Z" fill="white"/>
<path d="M15.0006 17.8525C15.2723 17.8525 15.5051 18.0854 15.5051 18.3571C15.5051 18.6288 15.2723 18.8617 15.0006 18.8617C14.7289 18.8617 14.4961 18.6288 14.4961 18.3571C14.4961 18.0854 14.7289 17.8525 15.0006 17.8525Z" fill="white"/>
<path d="M15.0006 19.8516C15.2723 19.8516 15.5051 20.0844 15.5051 20.3561C15.5051 20.6278 15.2723 20.8607 15.0006 20.8607C14.7289 20.8607 14.4961 20.6278 14.4961 20.3561C14.4961 20.0844 14.7289 19.8516 15.0006 19.8516Z" fill="white"/>
<path d="M18.9967 17.8525C19.2684 17.8525 19.5012 18.0854 19.5012 18.3571C19.5012 18.6288 19.2684 18.8617 18.9967 18.8617C18.7251 18.8617 18.4922 18.6288 18.4922 18.3571C18.4922 18.0854 18.7251 17.8525 18.9967 17.8525Z" fill="white"/>
<path d="M18.9967 19.8516C19.2684 19.8516 19.5012 20.0844 19.5012 20.3561C19.5012 20.6278 19.2684 20.8607 18.9967 20.8607C18.7251 20.8607 18.4922 20.6278 18.4922 20.3561C18.4922 20.0844 18.7251 19.8516 18.9967 19.8516Z" fill="white"/>
<path d="M17.0006 18.8423C17.2723 18.8423 17.5052 19.0752 17.5052 19.3468C17.5052 19.6185 17.2723 19.8514 17.0006 19.8514C16.729 19.8514 16.4961 19.6185 16.4961 19.3468C16.4961 19.0752 16.729 18.8423 17.0006 18.8423Z" fill="white"/>
<path d="M9.99278 16.8438C10.2644 16.8438 10.4973 17.0766 10.4973 17.3483C10.4973 17.62 10.2644 17.8528 9.99278 17.8528C9.72111 17.8528 9.48828 17.62 9.48828 17.3483C9.48828 17.0766 9.72111 16.8438 9.99278 16.8438Z" fill="white"/>
</svg>
