<svg width="30" height="31" viewBox="0 0 30 31" fill="none" xmlns="http://www.w3.org/2000/svg">
<path d="M15 0.362305V15.3631H0C0 23.6688 6.6947 30.3639 15 30.3639C23.3053 30.3639 30 23.6688 30 15.3631C30 7.05735 23.3053 0.362305 15 0.362305Z" fill="#2A5F9E"/>
<path d="M5.00781 5.36914H15.5058V15.8678H5.00781V5.36914Z" fill="#2A5F9E"/>
<path d="M8.4411 3.40918V6.35888H4.79297L11.9922 15.3632H15V11.6179L8.4411 3.40918Z" fill="white"/>
<path d="M4.50193 8.82331H1.49417C0.543328 10.8221 0 13.015 0 15.3825H5.9961V6.33936H4.50193V8.82331Z" fill="white"/>
<path d="M15.0006 12.9177L8.49995 4.86426H5.49219L13.9915 15.3629H15.0006V12.9177Z" fill="#ED4C5C"/>
<path d="M8.44296 1.85655V4.86447H4.48438V6.35873H14.9824V0.362305C12.6538 0.362305 10.4611 0.905662 8.44296 1.85655Z" fill="white"/>
<path d="M15.0019 1.85645H8.44306C5.4353 3.31189 2.95146 5.81527 1.49609 8.80378V15.363H4.50385V4.86437H15.0019V1.85645Z" fill="#ED4C5C"/>
<path d="M16.4938 10.4728L26.2351 10.4146V19.0696C26.2351 19.0696 26.5844 20.3698 22.1407 22.3686C23.7319 22.2134 25.4395 20.525 25.4395 20.525C25.4395 20.525 26.1381 19.6324 26.4873 20.1175C26.8366 20.6221 27.1277 20.8743 27.38 21.0684C27.6322 21.2625 27.8263 21.8252 27.4382 22.2134C27.0307 22.6209 26.4291 22.6597 26.2933 22.1551C26.041 22.3104 24.4886 24.154 21.2868 24.251C18.0462 24.1928 16.2803 22.1551 16.2803 22.1551C16.2803 22.1551 15.834 22.8538 15.2325 22.3104C14.6309 21.6118 15.0772 21.1654 15.0772 21.1654C15.0772 21.1654 15.5818 20.8743 15.7176 20.6609C15.9699 20.4086 16.0087 20.0205 16.4162 20.0205C16.8625 20.0787 17.0565 20.428 17.0565 20.428C17.0565 20.428 18.706 22.1357 20.4524 22.3686C16.4938 20.4668 16.358 19.3219 16.358 19.0114L16.4938 10.4728Z" fill="white"/>
<path d="M16.746 10.6671L26.0409 10.6089V18.9534C26.0409 20.0596 24.2363 21.1463 21.3837 22.5629C18.4342 21.0687 16.7266 20.1178 16.7266 18.9534V10.6671" fill="#006129"/>
<path d="M17.796 11.9087L17.9512 11.6176L17.7572 11.0742L17.6602 11.9281H17.796V11.9087Z" fill="url(#paint0_linear_518_24471)"/>
<path d="M17.7955 13.5195L17.8925 13.2284L17.7372 12.6851L17.582 13.5389H17.7955V13.5195Z" fill="url(#paint1_linear_518_24471)"/>
<path d="M17.7956 15.1107L17.8926 14.7614L17.6986 14.2568L17.6016 15.1107H17.7956Z" fill="url(#paint2_linear_518_24471)"/>
<path d="M18.8038 16.8183L18.959 16.5273L18.765 15.9839L18.668 16.8377H18.8038V16.8183Z" fill="url(#paint3_linear_518_24471)"/>
<path d="M17.6588 18.2158L17.7558 17.9247L17.6006 17.3813L17.4453 18.2352H17.6588V18.2158Z" fill="url(#paint4_linear_518_24471)"/>
<path d="M17.6593 19.8652L17.8145 19.5741L17.6205 19.0308L17.5234 19.8846H17.6593V19.8652Z" fill="url(#paint5_linear_518_24471)"/>
<path d="M23.4992 11.9089L23.6544 11.6178L23.4603 11.1133L23.3633 11.9089H23.4992Z" fill="url(#paint6_linear_518_24471)"/>
<path d="M23.46 13.5195L23.6153 13.2284L23.4212 12.6851L23.3242 13.5389H23.46V13.5195Z" fill="url(#paint7_linear_518_24471)"/>
<path d="M23.401 15.1108L23.498 14.8197L23.3427 14.2764L23.1875 15.1302H23.401V15.1108Z" fill="url(#paint8_linear_518_24471)"/>
<path d="M23.46 16.7217L23.6153 16.4306L23.4212 15.8872L23.3242 16.7411H23.46V16.7217Z" fill="url(#paint9_linear_518_24471)"/>
<path d="M23.4595 18.3129L23.5565 17.9635L23.4013 17.459L23.2461 18.3129H23.4595Z" fill="url(#paint10_linear_518_24471)"/>
<path d="M23.46 19.8655L23.6153 19.5744L23.4212 19.0698L23.3242 19.8655H23.46Z" fill="url(#paint11_linear_518_24471)"/>
<path d="M21.1513 11.5595C21.2096 11.7535 20.9961 11.8506 20.9961 11.967C20.9961 12.1223 21.0543 12.3745 21.2484 12.4133C21.5394 12.5104 21.3066 12.8209 21.1901 13.0537C21.4812 12.9955 21.8499 12.9955 22.141 12.9567C21.8499 12.5104 21.8887 12.1611 21.8887 11.6565C21.9081 11.3072 21.0931 11.1714 21.1513 11.5595Z" fill="#FFC6B5"/>
<path d="M20.9981 12.957C20.5906 13.1511 20.6488 13.7527 20.5906 14.1602C20.5324 14.4513 20.0861 14.8006 19.9502 15.0529C19.7562 15.344 19.5039 15.5574 19.5039 15.9067C19.5039 16.5083 19.795 16.1978 19.9502 15.8485C20.0473 15.5962 19.795 15.5574 20.1055 15.344C20.3577 15.1499 20.804 14.9364 20.901 14.6454C21.0563 14.2184 20.9593 13.4616 20.9981 12.957Z" fill="#FFC6B5"/>
<path d="M21.345 12.6655C21.539 13.0731 21.7525 12.6655 21.9854 12.6655C22.2376 12.6655 22.3929 12.8596 22.5287 13.0731C22.781 13.3641 22.4317 13.3253 22.2764 13.5776C22.1212 13.8299 22.4317 14.2762 22.2764 14.4703C22.1212 14.6255 22.2764 15.363 22.2182 15.6152C22.2182 16.0228 22.2182 16.3138 22.3152 16.7214C22.5093 17.614 22.6645 18.3709 22.9168 19.2247C22.975 19.4188 22.9168 19.6711 22.975 19.8651C23.0332 20.0592 23.2272 20.3115 22.878 20.3115C22.7227 20.3115 22.7228 20.4085 22.6257 20.3697H22.2764C22.3735 20.3697 21.8301 20.5637 21.9271 20.4279C21.8301 20.5249 21.9853 20.719 21.6749 20.622C21.5778 20.5637 21.6166 20.2144 21.4226 20.3309C21.4808 20.3309 21.5778 20.4861 21.4808 20.5249C21.2868 20.6802 21.2285 20.3309 21.0345 20.3697C20.9375 20.3697 20.3359 20.622 20.3359 20.3697C20.3359 19.8263 20.4912 19.3606 20.4912 18.7784V18.5261C20.4912 18.4679 20.3359 18.4679 20.3359 18.3709C20.3359 18.1186 20.3942 17.8663 20.433 17.614C20.4912 17.0707 20.5882 16.5079 20.6852 16.0228H20.5882C20.4912 15.5764 20.8404 14.8778 20.8404 14.3732C20.8404 14.0239 20.3942 13.8299 20.6852 13.4806C20.8987 13.2089 20.9569 12.7626 21.345 12.6655Z" fill="white"/>
<path d="M22.6079 13.2671C22.8602 13.2671 22.899 14.8584 22.8019 15.0718C22.6079 15.3629 22.4526 15.6734 22.2974 15.9645C22.2004 16.1586 22.2974 16.4109 22.2392 16.5661C22.084 17.0124 21.5988 16.5079 21.8317 16.1586C21.9869 15.9645 22.084 15.6152 22.181 15.3629C22.3362 15.0718 22.5303 14.7613 22.375 14.412C22.2004 14.0627 22.0451 13.4223 22.6079 13.2671Z" fill="#FFC6B5"/>
<path d="M21.1527 11.5205C21.6573 11.4623 22.1618 12.8207 22.2976 12.2773C22.7439 10.8219 20.9005 11.0547 21.1527 11.5205Z" fill="#9C5100"/>
<path d="M17.9503 12.1609C18.1444 12.452 18.1056 12.2191 18.1056 12.5102H18.9594C18.9594 12.452 18.9012 12.355 18.8624 12.3161C19.2116 12.2579 19.2699 11.8698 19.561 11.8116L19.3669 11.9668C19.1729 12.2191 19.3669 12.2579 19.3669 12.0639C19.3669 11.9086 19.7162 11.9668 19.658 11.7146C19.561 11.5593 19.2117 11.7728 19.1146 11.8116C18.7653 12.0056 18.5131 11.4623 18.319 11.7534C18.222 11.9086 17.6593 11.8116 17.5234 11.8116C17.6593 12.0639 17.7563 12.1221 17.9503 12.1609Z" fill="#F7C600"/>
<path d="M17.9113 13.7717C18.1053 14.0628 18.0665 13.7717 18.0665 14.121H18.9203C18.9203 14.0628 18.8621 13.9658 18.8233 13.927C19.1726 13.8688 19.2308 13.4806 19.5219 13.4224L19.3278 13.5777C19.1338 13.83 19.3278 13.8688 19.3278 13.6747C19.3278 13.5195 19.6771 13.5777 19.6189 13.3254C19.5219 13.1702 19.1726 13.3836 19.0756 13.4224C18.7263 13.6165 18.474 13.0731 18.2799 13.3642C18.1829 13.5195 17.6396 13.4224 17.4844 13.4224C17.6008 13.7135 17.756 13.7717 17.9113 13.7717Z" fill="#F7C600"/>
<path d="M17.9113 15.363C18.1053 15.6153 18.0665 15.4213 18.0665 15.7123H18.9203C18.9203 15.6541 18.8621 15.5571 18.8233 15.5183C19.1726 15.4601 19.2308 15.072 19.5219 15.0137L19.3278 15.169C19.1726 15.4213 19.3278 15.4601 19.3278 15.266C19.3278 15.1108 19.6771 15.169 19.6189 14.9167C19.5219 14.7615 19.1726 14.9749 19.0756 15.0137C18.7263 15.2078 18.474 14.6644 18.2799 14.9555C18.1829 15.1108 17.6396 15.0137 17.4844 15.0137C17.6008 15.266 17.756 15.3242 17.9113 15.363Z" fill="#F7C600"/>
<path d="M19.56 16.6247C19.3659 16.6247 19.3659 16.8187 19.1137 16.8187H18.5703C18.6285 16.9157 18.6285 16.974 18.7644 17.0128C19.0554 17.1098 19.1137 17.1098 19.1137 17.4203H19.9675C19.9675 17.3621 19.9092 17.265 19.8704 17.2262C20.2197 17.168 20.278 16.7799 20.569 16.7217L20.2197 17.0128C20.1227 17.2068 20.6272 16.8575 20.6661 16.7605C20.8213 16.4694 20.2197 16.7023 20.1615 16.7605C19.851 16.974 19.7928 16.6247 19.56 16.6247Z" fill="#F7C600"/>
<path d="M17.7941 18.468C17.9881 18.7591 17.9493 18.5262 17.9493 18.8173H18.8031C18.8031 18.7591 18.7449 18.6621 18.7061 18.6233C19.0554 18.5651 19.1136 18.1769 19.4047 18.1187L19.2107 18.274C19.0166 18.5262 19.2107 18.5651 19.2107 18.371C19.2107 18.2157 19.5599 18.274 19.5017 18.0217C19.4047 17.8664 19.0554 18.0799 18.9584 18.1187C18.6091 18.3128 18.3569 17.7694 18.1628 18.0605C18.0658 18.2157 17.5224 18.1187 17.3672 18.1187C17.4448 18.4098 17.6 18.468 17.7941 18.468Z" fill="#F7C600"/>
<path d="M19.2493 19.9623C19.0941 20.0594 19.1523 20.3116 19.1911 20.2146C19.2881 20.0594 19.2882 20.0594 19.4434 19.9623C19.9479 19.613 18.9389 19.9041 18.9 19.8653C18.706 19.8653 18.6478 19.9235 18.4926 19.7683C18.2403 19.516 18.2985 19.8653 18.1433 19.8653C17.891 19.9235 17.5999 19.8653 17.3477 19.8653C17.4059 19.9623 17.4059 20.0206 17.5417 20.0594C17.8328 20.1564 17.891 20.1564 17.891 20.4669H18.7448C18.7448 20.4087 18.6866 20.3116 18.6478 20.2728C18.9971 20.2146 19.0553 19.8265 19.3464 19.7683C19.5016 19.8071 19.2493 19.9623 19.2493 19.9623Z" fill="#F7C600"/>
<path d="M23.6535 12.161C23.8475 12.4521 23.8087 12.161 23.8087 12.5103H24.6626C24.6626 12.4521 24.6043 12.355 24.5655 12.3162C24.9148 12.258 24.973 11.8699 25.2641 11.8117L25.07 11.9669C24.876 12.2192 25.07 12.258 25.07 12.064C25.07 11.9087 25.4193 11.9669 25.3611 11.7147C25.2641 11.5206 24.9148 11.7729 24.8178 11.8117C24.4685 12.0057 24.2162 11.4624 24.0222 11.7535C23.9252 11.9087 23.3818 11.8117 23.2266 11.8117C23.3042 12.1222 23.4594 12.161 23.6535 12.161Z" fill="#F7C600"/>
<path d="M23.5949 13.7717C23.789 14.0628 23.7501 13.8299 23.7501 14.121H24.604C24.604 14.0628 24.5457 13.9658 24.5069 13.927C24.8562 13.8688 24.9144 13.4806 25.2055 13.4224L25.0114 13.5777C24.8174 13.83 25.0114 13.8688 25.0114 13.6747C25.0114 13.5195 25.3607 13.5777 25.3025 13.3254C25.2055 13.1702 24.8562 13.3836 24.7592 13.4224C24.4099 13.6165 24.1576 13.0731 23.9636 13.3642C23.9054 13.5195 23.3232 13.4224 23.168 13.4224C23.2456 13.7135 23.4009 13.7135 23.5949 13.7717Z" fill="#F7C600"/>
<path d="M23.5012 15.363C23.6952 15.6541 23.6564 15.4213 23.6564 15.7123H24.5102C24.5102 15.6541 24.452 15.5571 24.4132 15.5183C24.7625 15.4601 24.8207 15.072 25.1117 15.0137L24.9177 15.169C24.7236 15.4213 24.9177 15.4601 24.9177 15.266C24.9177 15.1108 25.267 15.169 25.2088 14.9167C25.1117 14.7615 24.7625 14.9749 24.6655 15.0137C24.3162 15.2078 24.0639 14.6644 23.8698 14.9555C23.7728 15.1108 23.2295 15.0137 23.0742 15.0137C23.2101 15.3242 23.3459 15.363 23.5012 15.363Z" fill="#F7C600"/>
<path d="M25.342 16.6244C25.245 16.4303 24.8957 16.7214 24.7986 16.7214H24.5076C24.3523 16.7214 24.4105 16.5273 24.2553 16.5273C24.0612 16.5273 24.0612 16.7214 23.809 16.7214H23.2656C23.3238 16.8184 23.3238 16.8767 23.4597 16.9155C23.7507 17.0125 23.809 17.0125 23.809 17.323H24.6628C24.6628 17.2648 24.6046 17.1677 24.5658 17.1289C24.9151 17.0707 24.9733 16.6826 25.2643 16.6244C25.2643 16.6244 24.818 16.9155 24.9733 17.0319C24.9539 17.0707 25.4002 16.7214 25.342 16.6244Z" fill="#F7C600"/>
<path d="M24.9954 18.4096C24.8402 18.5066 24.8984 18.7589 24.9372 18.6619C25.0342 18.5066 25.0342 18.5066 25.1895 18.4096C25.694 18.0603 24.685 18.3126 24.6461 18.3126C24.4521 18.3126 24.3939 18.3708 24.2386 18.2155C23.9864 17.9633 24.0446 18.3126 23.8894 18.3126C23.6371 18.3708 23.346 18.3126 23.0938 18.3126C23.152 18.4096 23.152 18.4678 23.2878 18.5066C23.5789 18.6037 23.6371 18.6037 23.6371 18.9142H24.4909C24.4909 18.8559 24.4327 18.7589 24.3939 18.7201C24.7432 18.6619 24.8014 18.2738 25.0925 18.2155C25.3059 18.2738 24.9954 18.4096 24.9954 18.4096Z" fill="#F7C600"/>
<path d="M25.0501 20.0207C24.8949 20.1177 24.9531 20.37 24.9919 20.273C25.0889 20.1177 25.0889 20.1177 25.2442 20.0207C25.7487 19.6714 24.7396 19.9625 24.7008 19.9625C24.5068 19.9625 24.4485 20.0207 24.2933 19.8654C24.041 19.6132 24.0992 19.9625 23.944 19.9625C23.6917 20.0207 23.4007 19.9625 23.1484 19.9625C23.2067 20.0595 23.2067 20.1177 23.3425 20.1565C23.6336 20.2536 23.6918 20.2536 23.6918 20.5641H24.5456C24.5456 20.5058 24.4874 20.4088 24.4486 20.37C24.7978 20.3118 24.8561 19.9237 25.1472 19.8654C25.3024 19.8654 25.0501 20.0207 25.0501 20.0207Z" fill="#F7C600"/>
<path d="M22.4531 20.816C22.7053 20.5249 22.6083 20.3697 22.6083 20.3697L22.0068 20.0786L21.8516 20.4279L21.9486 20.622C21.9486 20.622 22.162 21.1653 22.4531 20.816Z" fill="#F7C600"/>
<path d="M20.5481 20.8745C20.6451 20.8745 21.2467 20.5252 21.2467 20.5252L21.1885 20.4282L20.9944 20.2729C20.9944 20.2729 20.3541 20.5252 20.3929 20.467C20.3541 20.5252 20.5093 20.8745 20.5481 20.8745Z" fill="#F7C600"/>
<path d="M27.4582 21.3594C26.9537 21.1654 26.5656 20.3115 26.2551 20.2533C25.9446 20.1951 25.6147 20.6996 25.6147 20.6996C25.6147 20.6996 23.9653 22.6014 21.3651 22.6402C19.0171 22.7955 16.9213 20.3891 16.9213 20.3891C16.9213 20.3891 16.5721 20.098 16.4168 20.2339C16.3198 20.5832 15.5242 21.1848 15.5242 21.1848C15.5242 21.1848 15.1749 21.3788 15.2331 21.6893C15.2913 21.9804 15.7377 22.2909 15.8347 22.3297C15.9317 22.3297 16.1839 22.1357 16.1839 22.1357L16.378 21.9416C16.378 21.9416 18.6872 24.1345 21.4233 24.0957C24.0817 24.1927 26.4297 21.9416 26.4297 21.9416C26.4297 21.9416 26.585 21.8834 26.6238 22.1939C26.682 22.485 27.1671 22.2909 27.2836 22.1939C27.4 22.1163 27.7105 21.7669 27.4582 21.3594Z" fill="#F7C600"/>
<defs>
<linearGradient id="paint0_linear_518_24471" x1="17.7692" y1="11.5393" x2="17.4591" y2="11.4936" gradientUnits="userSpaceOnUse">
<stop stop-color="#FF0000"/>
<stop offset="1" stop-color="#FFFF00"/>
</linearGradient>
<linearGradient id="paint1_linear_518_24471" x1="17.7494" y1="13.1438" x2="17.4401" y2="13.0982" gradientUnits="userSpaceOnUse">
<stop stop-color="#FF0000"/>
<stop offset="1" stop-color="#FFFF00"/>
</linearGradient>
<linearGradient id="paint2_linear_518_24471" x1="17.7143" y1="14.7363" x2="17.4045" y2="14.6906" gradientUnits="userSpaceOnUse">
<stop stop-color="#FF0000"/>
<stop offset="1" stop-color="#FFFF00"/>
</linearGradient>
<linearGradient id="paint3_linear_518_24471" x1="18.7836" y1="16.4515" x2="18.474" y2="16.4059" gradientUnits="userSpaceOnUse">
<stop stop-color="#FF0000"/>
<stop offset="1" stop-color="#FFFF00"/>
</linearGradient>
<linearGradient id="paint4_linear_518_24471" x1="17.6375" y1="17.8739" x2="17.3275" y2="17.8282" gradientUnits="userSpaceOnUse">
<stop stop-color="#FF0000"/>
<stop offset="1" stop-color="#FFFF00"/>
</linearGradient>
<linearGradient id="paint5_linear_518_24471" x1="17.6811" y1="19.5376" x2="17.3717" y2="19.4919" gradientUnits="userSpaceOnUse">
<stop stop-color="#FF0000"/>
<stop offset="1" stop-color="#FFFF00"/>
</linearGradient>
<linearGradient id="paint6_linear_518_24471" x1="23.4637" y1="11.5616" x2="23.1529" y2="11.5157" gradientUnits="userSpaceOnUse">
<stop stop-color="#FF0000"/>
<stop offset="1" stop-color="#FFFF00"/>
</linearGradient>
<linearGradient id="paint7_linear_518_24471" x1="23.4122" y1="13.1357" x2="23.1024" y2="13.09" gradientUnits="userSpaceOnUse">
<stop stop-color="#FF0000"/>
<stop offset="1" stop-color="#FFFF00"/>
</linearGradient>
<linearGradient id="paint8_linear_518_24471" x1="23.3544" y1="14.7495" x2="23.0441" y2="14.7038" gradientUnits="userSpaceOnUse">
<stop stop-color="#FF0000"/>
<stop offset="1" stop-color="#FFFF00"/>
</linearGradient>
<linearGradient id="paint9_linear_518_24471" x1="23.4485" y1="16.3636" x2="23.1373" y2="16.3177" gradientUnits="userSpaceOnUse">
<stop stop-color="#FF0000"/>
<stop offset="1" stop-color="#FFFF00"/>
</linearGradient>
<linearGradient id="paint10_linear_518_24471" x1="23.3729" y1="17.926" x2="23.0631" y2="17.8803" gradientUnits="userSpaceOnUse">
<stop stop-color="#FF0000"/>
<stop offset="1" stop-color="#FFFF00"/>
</linearGradient>
<linearGradient id="paint11_linear_518_24471" x1="23.4255" y1="19.5217" x2="23.1159" y2="19.476" gradientUnits="userSpaceOnUse">
<stop stop-color="#FF0000"/>
<stop offset="1" stop-color="#FFFF00"/>
</linearGradient>
</defs>
</svg>
