<svg width="30" height="31" viewBox="0 0 30 31" fill="none" xmlns="http://www.w3.org/2000/svg">
<path d="M12.4126 2.45349C10.6091 2.45349 10.0661 1.94926 9.0189 1.65836C7.81658 2.16259 6.71125 2.86075 5.66406 3.65588C6.0713 3.55891 6.55611 3.50073 7.21545 3.50073C9.81402 3.50073 9.81399 4.50919 12.4126 4.50919C15.0111 4.50919 15.0111 3.50073 17.6097 3.50073C20.2083 3.50073 20.2083 4.50919 22.8069 4.50919C23.8153 4.50919 24.3971 4.35405 24.9594 4.16011C24.2031 3.52013 23.408 2.91894 22.516 2.41471C20.1695 2.35653 20.1113 1.40625 17.6097 1.40625C15.0111 1.44504 15.0111 2.45349 12.4126 2.45349Z" fill="white"/>
<path d="M22.8042 4.50895C20.2056 4.50895 20.2056 3.50049 17.607 3.50049C15.0085 3.50049 15.0084 4.50895 12.4099 4.50895C9.81129 4.50895 9.81129 6.56464 12.4099 6.56464C15.0084 6.56464 15.0085 5.55618 17.607 5.55618C20.2056 5.55618 20.2056 6.56464 22.8042 6.56464C24.7434 6.56464 25.2476 6.02163 26.45 5.71134C26.0039 5.16832 25.4416 4.6641 24.9568 4.15987C24.3944 4.3538 23.7932 4.50895 22.8042 4.50895Z" fill="#2A5F9E"/>
<path d="M17.6092 1.44464C20.1108 1.44464 20.2077 2.33672 22.5542 2.45308C20.3629 1.15373 17.7643 0.455566 15.0494 0.455566C12.8968 0.455566 10.6473 2.51127 12.4508 2.51127C15.0106 2.45309 15.0106 1.44464 17.6092 1.44464Z" fill="#2A5F9E"/>
<path d="M22.8052 6.54508C20.2066 6.54508 20.2066 5.53662 17.6081 5.53662C15.0095 5.53662 15.0095 6.54508 12.4109 6.54508C9.81233 6.54508 9.81237 5.53662 7.21379 5.53662C4.96428 5.53662 4.67336 6.29297 2.90865 6.4869C2.40445 7.12688 2.01661 7.84444 1.60938 8.58138H2.01663C4.61521 8.58138 4.61522 7.57293 7.21379 7.57293C9.81237 7.57293 9.81233 8.58138 12.4109 8.58138C15.0095 8.58138 15.0095 7.57293 17.6081 7.57293C20.2066 7.57293 20.2066 8.58138 22.8052 8.58138C25.3456 8.58138 25.4038 7.63111 27.8472 7.57293C27.44 6.87476 26.994 6.27357 26.451 5.67238C25.2487 6.00206 24.7445 6.54508 22.8052 6.54508Z" fill="white"/>
<path d="M22.8042 8.65933C20.2056 8.65933 20.2056 7.65088 17.607 7.65088C15.0085 7.65088 15.0084 8.65933 12.4099 8.65933C9.81129 8.65933 9.81129 10.715 12.4099 10.715C15.0084 10.715 15.0085 9.70657 17.607 9.70657C20.2056 9.70657 20.2056 10.715 22.8042 10.715C25.4028 10.715 25.4028 9.70657 28.0013 9.70657C28.3504 9.70657 28.6413 9.70657 28.8934 9.76475C28.6025 9.00841 28.2534 8.31025 27.8462 7.67027C25.4028 7.70905 25.3446 8.65933 22.8042 8.65933Z" fill="#2A5F9E"/>
<path d="M28.0009 9.70654C25.4023 9.70654 25.4023 10.715 22.8037 10.715C20.2051 10.715 20.2051 9.70654 17.6066 9.70654C15.008 9.70654 15.008 10.715 12.4094 10.715C9.81083 10.715 9.81086 9.70654 7.21229 9.70654C4.61371 9.70654 4.6137 10.715 2.01513 10.715C1.51093 10.715 1.12309 10.6568 0.812814 10.618C0.61889 11.2192 0.405555 11.8592 0.308594 12.5186C0.754618 12.6737 1.317 12.7707 2.05391 12.7707C4.65248 12.7707 4.65249 11.7622 7.25106 11.7622C9.84964 11.7622 9.84965 12.7707 12.4482 12.7707C15.0468 12.7707 15.0468 11.7622 17.6453 11.7622C20.2439 11.7622 20.2439 12.7707 22.8425 12.7707C25.4411 12.7707 25.4411 11.7622 28.0397 11.7622C28.7378 11.7622 29.242 11.8204 29.6298 11.9174C29.4359 11.1611 29.2226 10.4629 28.9317 9.76472C28.6408 9.74533 28.3499 9.70654 28.0009 9.70654Z" fill="white"/>
<path d="M28.0013 11.8008C25.4028 11.8008 25.4028 12.8092 22.8042 12.8092C20.2056 12.8092 20.2056 11.8008 17.607 11.8008C15.0085 11.8008 15.0084 12.8092 12.4099 12.8092C9.81129 12.8092 9.81129 14.8649 12.4099 14.8649C15.0084 14.8649 15.0085 13.8565 17.607 13.8565C20.2056 13.8565 20.2056 14.8649 22.8042 14.8649C25.4028 14.8649 25.4028 13.8565 28.0013 13.8565C28.8934 13.8565 29.4558 13.9535 29.9406 14.1086C29.8824 13.4104 29.7854 12.6541 29.5915 12.0141C29.1843 11.8396 28.6995 11.8008 28.0013 11.8008Z" fill="#2A5F9E"/>
<path d="M28.0027 13.8374C25.4041 13.8374 25.4041 14.8459 22.8055 14.8459C20.207 14.8459 20.207 13.8374 17.6084 13.8374C15.0098 13.8374 15.0098 14.8459 12.4112 14.8459C9.81265 14.8459 9.81269 13.8374 7.21411 13.8374C4.61554 13.8374 4.61553 14.8459 2.01695 14.8459C1.1249 14.8459 0.523732 14.7489 0.0195312 14.5937V15.3889C0.0195312 15.7961 0.0195407 16.2422 0.0777178 16.6301C0.581919 16.7852 1.1249 16.921 2.01695 16.921C4.61553 16.921 4.61554 15.9125 7.21411 15.9125C9.81269 15.9125 9.81265 16.921 12.4112 16.921C15.0098 16.921 15.0098 15.9125 17.6084 15.9125C20.207 15.9125 20.207 16.921 22.8055 16.921C25.4041 16.921 25.4041 15.9125 28.0027 15.9125C28.8947 15.9125 29.4959 16.0095 30.0001 16.1646V15.3695C30.0001 14.9622 30.0001 14.5744 29.9419 14.1283C29.4377 13.9925 28.8947 13.8374 28.0027 13.8374Z" fill="white"/>
<path d="M28.0031 15.9512C25.4045 15.9512 25.4045 16.9596 22.8059 16.9596C20.2074 16.9596 20.2074 15.9512 17.6088 15.9512C15.0102 15.9512 15.0102 16.9596 12.4116 16.9596C9.81306 16.9596 9.81309 15.9512 7.21452 15.9512C4.61594 15.9512 4.61593 16.9596 2.01736 16.9596C1.12531 16.9596 0.562934 16.8627 0.078125 16.7075C0.136302 17.4057 0.233273 18.162 0.427197 18.802C0.834436 18.899 1.31924 18.9959 2.01736 18.9959C4.61593 18.9959 4.61594 17.9875 7.21452 17.9875C9.81309 17.9875 9.81306 18.9959 12.4116 18.9959C15.0102 18.9959 15.0102 17.9875 17.6088 17.9875C20.2074 17.9875 20.2074 18.9959 22.8059 18.9959C25.4045 18.9959 25.4045 17.9875 28.0031 17.9875C28.7594 17.9875 29.3024 18.0844 29.7484 18.1814C29.8454 17.5414 29.9424 16.8821 30.0005 16.2421C29.4963 16.0869 28.8952 15.9512 28.0031 15.9512Z" fill="#2A5F9E"/>
<path d="M28.0017 17.9873C25.4031 17.9873 25.4031 18.9958 22.8045 18.9958C20.206 18.9958 20.2059 17.9873 17.6074 17.9873C15.0088 17.9873 15.0088 18.9958 12.4102 18.9958C9.81164 18.9958 9.81168 17.9873 7.2131 17.9873C4.61453 17.9873 4.61452 18.9958 2.01594 18.9958C1.31782 18.9958 0.813628 18.9376 0.425781 18.8406C0.619705 19.5969 0.832992 20.2951 1.12388 20.9933C1.37598 21.0515 1.66688 21.0515 2.01594 21.0515C4.61452 21.0515 4.61453 20.043 7.2131 20.043C9.81168 20.043 9.81164 21.0515 12.4102 21.0515C15.0088 21.0515 15.0088 20.043 17.6074 20.043C20.2059 20.043 20.206 21.0515 22.8045 21.0515C25.4031 21.0515 25.4031 20.043 28.0017 20.043C28.5059 20.043 28.8937 20.1012 29.204 20.14C29.3979 19.5388 29.6113 18.8988 29.7082 18.2394C29.301 18.1037 28.7386 17.9873 28.0017 17.9873Z" fill="white"/>
<path d="M28.0028 20.1011C25.4042 20.1011 25.4042 21.1095 22.8057 21.1095C20.2071 21.1095 20.2071 20.1011 17.6085 20.1011C15.0099 20.1011 15.0099 21.1095 12.4113 21.1095C9.81276 21.1095 9.8128 20.1011 7.21423 20.1011C4.61565 20.1011 4.61564 21.1095 2.01707 21.1095C1.668 21.1095 1.3771 21.1095 1.125 21.0514C1.41589 21.8077 1.76498 22.5059 2.17222 23.1458C4.61565 23.0877 4.67383 22.1374 7.21423 22.1374C9.8128 22.1374 9.81276 23.1458 12.4113 23.1458C15.0099 23.1458 15.0099 22.1374 17.6085 22.1374C20.2071 22.1374 20.2071 23.1458 22.8057 23.1458C25.4042 23.1458 25.4042 22.1374 28.0028 22.1374H28.41C28.7009 21.4974 29.0112 20.838 29.2633 20.198C28.8949 20.1011 28.4876 20.1011 28.0028 20.1011Z" fill="#2A5F9E"/>
<path d="M28.0025 22.1377C25.4039 22.1377 25.4039 23.1462 22.8053 23.1462C20.2067 23.1462 20.2067 22.1377 17.6082 22.1377C15.0096 22.1377 15.0096 23.1462 12.411 23.1462C9.81242 23.1462 9.81246 22.1377 7.21389 22.1377C4.67349 22.1377 4.61531 23.088 2.17188 23.1462C2.57911 23.8443 3.02513 24.4455 3.56811 25.0467C4.80923 24.7558 5.27465 24.1934 7.21389 24.1934C9.81246 24.1934 9.81242 25.2019 12.411 25.2019C15.0096 25.2019 15.0096 24.1934 17.6082 24.1934C20.2067 24.1934 20.2067 25.2019 22.8053 25.2019C25.0548 25.2019 25.3457 24.4455 27.1104 24.2516C27.6146 23.6116 28.0024 22.894 28.4097 22.1571L28.0025 22.1377Z" fill="white"/>
<path d="M22.8036 25.2404C20.205 25.2404 20.205 24.2319 17.6064 24.2319C15.0079 24.2319 15.0079 25.2404 12.4093 25.2404C9.81071 25.2404 9.81075 24.2319 7.21218 24.2319C5.27294 24.2319 4.76873 24.7749 3.56641 25.0852C4.01243 25.6283 4.5748 26.1907 5.05961 26.6367C5.60259 26.4428 6.20378 26.2876 7.21218 26.2876C9.81075 26.2876 9.81071 27.2961 12.4093 27.2961C15.0079 27.2961 15.0079 26.2876 17.6064 26.2876C20.205 26.2876 20.205 27.2961 22.8036 27.2961C23.4436 27.2961 23.9478 27.2379 24.355 27.1409C25.4022 26.2876 26.2942 25.3374 27.1087 24.2901C25.344 24.4453 25.0337 25.2404 22.8036 25.2404Z" fill="#2A5F9E"/>
<path d="M22.8065 27.2961C20.2079 27.2961 20.2079 26.2876 17.6093 26.2876C15.0108 26.2876 15.0108 27.2961 12.4122 27.2961C9.81361 27.2961 9.81364 26.2876 7.21507 26.2876C6.20667 26.2876 5.62488 26.4427 5.0625 26.6367C5.8188 27.2767 6.61387 27.8779 7.46713 28.3821C9.77482 28.4403 9.87179 29.3905 12.3734 29.3905C14.972 29.3905 14.972 28.3821 17.5706 28.3821C19.3741 28.3821 19.917 28.8863 20.9642 29.1772C22.1666 28.673 23.2719 27.9748 24.3191 27.1797C23.8925 27.2379 23.4464 27.2961 22.8065 27.2961Z" fill="white"/>
<path d="M12.4099 29.3324C9.90828 29.3324 9.81132 28.4403 7.46484 28.3239C9.65618 29.6233 12.2548 30.3215 14.9697 30.3215C17.1223 30.3215 19.1197 29.8754 20.9619 29.0803C19.9147 28.7894 19.3718 28.2852 17.5683 28.2852C15.0085 28.3433 15.0085 29.3324 12.4099 29.3324Z" fill="#2A5F9E"/>
<path d="M26.2002 11.7038L28.1394 11.762C27.6352 10.8699 25.9869 10.8117 24.6488 11.0638C25.5021 10.8117 26.4911 10.5208 26.7044 10.4626C26.2972 10.1717 24.5518 9.06629 22.3605 11.2577H22.3023C20.111 9.06629 18.3463 10.1523 17.9585 10.4626C18.1136 10.5208 19.1608 10.7535 20.0141 11.0638C18.6566 10.8699 17.0082 10.9087 16.5234 11.762L18.4627 11.7038C17.6676 12.111 17.2215 12.1498 17.0664 13.1001C17.1246 13.1001 18.1136 12.8092 19.1608 12.5571C18.6178 12.848 18.0554 13.1971 17.8615 13.5656C18.8117 13.6237 19.6068 13.3716 20.2661 13.0613C19.8589 13.5656 19.665 14.1086 19.665 14.4189C20.111 14.3219 20.6152 13.9146 21.0225 13.5268C20.7704 14.4189 20.8285 15.3691 21.0806 15.7182C21.4879 15.4273 21.7206 14.9231 21.9339 14.3607V14.9037H22.7871L22.729 14.1474C22.9229 14.7873 23.2332 15.3885 23.6792 15.7376C23.9313 15.3303 23.9701 14.4383 23.7374 13.5462C24.1446 13.9534 24.5906 14.3413 25.0948 14.4383C25.153 14.1474 24.9009 13.585 24.4937 13.0807C25.0948 13.3716 25.9481 13.6237 26.8983 13.5849C26.6462 13.2359 26.142 12.8868 25.599 12.5765C26.6462 12.8674 27.6546 13.1195 27.6934 13.1195C27.4995 12.1498 27.0535 12.0917 26.2002 11.7038Z" fill="#75A843"/>
<path d="M21.6992 13.4883H23.0567V24.3874H21.6992V13.4883Z" fill="#C94747"/>
<path d="M19.1406 20.4504L20.246 21.5946H24.299L25.4043 20.4504L25.5013 18.7438L22.8445 17.9486L23.0966 17.7547L22.2434 17.2505L21.3901 17.7547L21.6422 17.9486L19.2376 18.5498L19.1406 20.4504ZM24.9001 19.0347L24.2408 20.0431L23.6009 19.791L22.8058 19.6359V18.1814L24.9001 19.0347ZM19.703 19.0347L21.7974 18.1814V19.6359L21.0023 19.791L20.3623 20.0431L19.703 19.0347Z" fill="#F1BF31"/>
<path d="M4.5 4.89697H14.9912V15.3888H4.5V4.89697Z" fill="#2A5F9E"/>
<path d="M8.45436 3.46191V6.40971H4.80859L12.0032 15.4082H15.009V11.6653L8.45436 3.46191Z" fill="white"/>
<path d="M4.49906 8.85296H1.49325C0.543024 10.8505 0 13.0419 0 15.4079H5.99226V6.37061H4.49906V8.85296Z" fill="white"/>
<path d="M15.0101 12.9452L8.51363 4.89697H5.50781L14.0017 15.3888H15.0101V12.9452Z" fill="#ED4C5C"/>
<path d="M8.45602 1.91028V4.91626H4.5V6.40955H14.9912V0.41699C12.6448 0.397596 10.4534 0.960007 8.45602 1.91028Z" fill="white"/>
<path d="M15.0088 1.91016H8.45419C5.44837 3.36466 2.96614 5.8664 1.51172 8.85299V15.408H4.51753V4.91613H15.0088V1.91016Z" fill="#ED4C5C"/>
</svg>
