<svg width="30" height="31" viewBox="0 0 30 31" fill="none" xmlns="http://www.w3.org/2000/svg">
<path d="M15.0006 0.441895C9.60604 0.441895 4.85183 3.29457 2.19335 7.58329V17.131H0.0976562C0.951473 24.6411 7.29685 30.4241 15.0006 30.4241C20.3952 30.4241 25.1494 27.5714 27.8079 23.2827V13.735H29.9036C29.0498 6.24428 22.685 0.441895 15.0006 0.441895Z" fill="#FFE62E"/>
<path d="M0.347656 12.2018L29.6491 18.7028C29.9014 17.6548 29.9984 16.5487 29.9984 15.462C29.9984 14.9186 29.9402 14.317 29.9014 13.7542L2.19112 7.60254C1.33731 8.99977 0.696945 10.5522 0.347656 12.2018Z" fill="white"/>
<path d="M29.6507 18.7031L0.349251 12.2021C0.155202 13.2501 0 14.3562 0 15.4429C0 15.9863 0.0582148 16.5879 0.0970247 17.1507L27.8072 23.3024C28.6416 21.8857 29.3014 20.3527 29.6507 18.7031Z" fill="#3E4347"/>
<path d="M9.99219 16.1025C9.99219 18.897 12.1849 21.2063 14.9404 21.2063C17.6959 21.2063 19.8887 18.897 19.8887 16.1025C19.8887 15.0546 19.5976 14.0455 19.0349 13.211C19.3259 13.8126 19.4812 14.5112 19.4812 15.2681C19.4812 17.3639 18.1228 19.1687 16.2794 19.712L15.2703 17.2669V13.3081C15.4644 13.4051 15.7748 13.5021 16.2211 13.6574C17.8123 14.356 19.0737 12.2601 19.0737 12.2601C19.0737 12.2601 17.9288 12.4154 17.0168 11.5033C16.4152 10.9017 15.7166 11.2122 15.3091 11.4451V10.9405H16.1047C16.1047 10.9405 16.2988 8.59242 14.9598 7.93262V9.64034H14.203V10.9405H14.4553V11.4451C14.0478 11.1928 13.4074 11.0376 12.8641 11.5421C11.9132 12.4348 10.8072 12.299 10.8072 12.299C10.8072 12.299 12.0491 14.3948 13.6597 13.6962C14.009 13.5409 14.2612 13.4439 14.5135 13.3469V17.1893L13.5045 19.6344C11.6998 18.994 10.3997 17.2863 10.3997 15.1905C10.3997 14.4336 10.5549 13.7932 10.846 13.1334C10.3415 14.0455 9.99219 14.9964 9.99219 16.1025Z" fill="#ED4C5C"/>
<path d="M9.58705 19.751V15.7533C7.99584 14.8995 7.99585 13.6963 7.99585 13.6963H6.75391C6.75391 15.9474 7.99585 16.2385 7.99585 16.2385V19.7315H9.58705" fill="#ED4C5C"/>
<path d="M21.9857 13.6963C21.9857 13.6963 21.9857 14.8995 20.3945 15.7921V19.7898H21.9857V16.2967C21.9857 16.2967 23.2277 16.0056 23.2277 13.7545C23.2471 13.6963 21.9857 13.6963 21.9857 13.6963Z" fill="#ED4C5C"/>
<path d="M14.9425 22.0408C13.1378 22.0408 11.5854 21.1481 10.5957 19.7314L9.10156 22.0408C9.10156 22.0408 10.4599 21.9437 11.7018 22.6423C12.9437 23.341 13.293 22.6423 14.9425 22.6423C16.5919 22.6423 16.9412 23.341 18.1831 22.6423C19.425 21.9437 20.7833 22.0408 20.7833 22.0408L19.2892 19.7314C18.2995 21.1481 16.7471 22.0408 14.9425 22.0408Z" fill="#ED4C5C"/>
</svg>
