<svg width="30" height="31" viewBox="0 0 30 31" fill="none" xmlns="http://www.w3.org/2000/svg">
<path d="M15.0016 0.419922C8.44278 0.419922 2.89299 4.61161 0.855469 10.414H29.1479C27.1104 4.61161 21.5605 0.419922 15.0016 0.419922Z" fill="#F9F9F9"/>
<path d="M15.0016 30.4213C21.5605 30.4213 27.1104 26.2684 29.1479 20.4272H0.855469C2.89299 26.2684 8.46218 30.4213 15.0016 30.4213Z" fill="#ED4C5C"/>
<path d="M0.853798 10.4141C0.31046 11.9665 0 13.6549 0 15.4208C0 17.1673 0.291055 18.8751 0.853798 20.4275H29.1462C29.6895 18.8751 30 17.1867 30 15.4208C30 13.6743 29.7089 11.9665 29.1462 10.4141H0.853798Z" fill="#83BF4F"/>
</svg>
