<svg width="30" height="31" viewBox="0 0 30 31" fill="none" xmlns="http://www.w3.org/2000/svg">
<path d="M21.5681 18.7757C22.072 17.7679 22.3627 16.6245 22.3627 15.3841C22.3627 14.1825 22.072 13.039 21.5681 11.9924L27.0526 6.50764C26.103 5.26726 24.9983 4.10441 23.6999 3.21289L18.2154 8.69768C17.2077 8.19377 16.0642 7.90305 14.8627 7.90305C13.6611 7.90305 12.5177 8.19377 11.51 8.69768L6.12234 3.30979C4.88203 4.25946 3.71929 5.36417 2.82781 6.66268L8.17662 12.0118C7.67274 13.0196 7.38203 14.1631 7.38203 15.4035C7.38203 16.6051 7.67274 17.7485 8.17662 18.7951L2.78906 24.1442C3.68054 25.4428 4.84333 26.5475 6.08364 27.4971L11.4712 22.1092C12.4789 22.6131 13.6224 22.9039 14.824 22.9039C16.0255 22.9039 17.1689 22.6131 18.1766 22.1092L23.6611 27.594C24.9595 26.7025 26.0642 25.5397 27.0139 24.2993L21.5681 18.7757Z" fill="white"/>
<path d="M14.8849 7.90289C16.0864 7.90289 17.2298 8.19361 18.2375 8.69751L23.7221 3.21273C21.2802 1.46845 18.2376 0.421875 14.9818 0.421875C11.6872 0.421875 8.58639 1.52659 6.14453 3.30963L11.5322 8.69751C12.5399 8.19361 13.6833 7.90289 14.8849 7.90289Z" fill="#ED4C5C"/>
<path d="M22.4235 15.3839C22.4235 16.5855 22.1328 17.729 21.6289 18.7755L27.1135 24.2603C28.9158 21.7602 30.001 18.7174 30.001 15.4226C30.001 12.1279 28.8964 9.02695 27.1135 6.58496L21.6289 12.0697C22.1328 13.0388 22.4235 14.1823 22.4235 15.3839Z" fill="#83BF4F"/>
<path d="M7.38369 15.3838C7.38369 14.1822 7.67441 13.0388 8.17828 11.9922L2.79073 6.64307C1.04654 9.08506 0 12.1279 0 15.3838C0 18.6205 1.04654 21.6826 2.79073 24.1246L8.13958 18.7755C7.69384 17.7289 7.38369 16.5855 7.38369 15.3838Z" fill="#83BF4F"/>
<path d="M14.8849 22.8845C13.6833 22.8845 12.5399 22.5937 11.5322 22.0898L6.14453 27.4777C8.64453 29.2801 11.6872 30.3655 14.9818 30.3655C18.2182 30.3655 21.2802 29.3189 23.7221 27.5746L18.2375 22.0898C17.2298 22.5744 16.0864 22.8845 14.8849 22.8845Z" fill="#ED4C5C"/>
<path d="M16.3748 11.8955H15.367L14.8632 10.8877L14.3593 11.8955H13.3516L13.8555 12.9033L13.3516 13.9111H14.3593L14.8632 14.9189L15.367 13.9111H16.3748L15.8709 12.9033L16.3748 11.8955Z" fill="#ED4C5C"/>
<path d="M13.3904 16.8765H12.3827L11.8788 15.8687L11.3749 16.8765H10.3672L10.871 17.8843L10.3672 18.8921H11.3749L11.8788 19.8999L12.3827 18.8921H13.3904L12.8866 17.8843L13.3904 16.8765Z" fill="#ED4C5C"/>
<path d="M19.3787 16.8765H18.371L17.8671 15.8687L17.3632 16.8765H16.3555L16.8594 17.8843L16.3555 18.8921H17.3632L17.8671 19.8999L18.371 18.8921H19.3787L18.8748 17.8843L19.3787 16.8765Z" fill="#ED4C5C"/>
</svg>
