<svg width="30" height="31" viewBox="0 0 30 31" fill="none" xmlns="http://www.w3.org/2000/svg">
<path d="M0 15.45C0 18.4035 0.854904 21.1627 2.31216 23.4556H27.6878C29.1451 21.1433 30 18.4035 30 15.45C30 12.4964 29.1451 9.73721 27.6878 7.44434H2.31216C0.854904 9.73721 0 12.4964 0 15.45Z" fill="#ED4C5C"/>
<path d="M27.7464 7.44431C25.0844 3.24719 20.3824 0.429688 15.0197 0.429688C9.65696 0.429688 4.95489 3.22776 2.29297 7.44431H27.7464Z" fill="#2A5F9E"/>
<path d="M2.3125 23.4556C4.97442 27.6527 9.67649 30.4702 15.0392 30.4702C20.4019 30.4702 25.104 27.6721 27.7659 23.4556H2.3125Z" fill="#2A5F9E"/>
<path d="M21.9769 17.2959V15.7414C22.0352 15.5471 22.1712 15.3917 22.3266 15.3334V13.9538C22.1712 13.9538 22.0741 14.1481 22.0741 14.2064V13.604C22.0158 13.5457 21.9186 13.5457 21.8214 13.604V13.7594H21.53V13.1182C21.4328 13.1182 21.4328 13.4097 21.2385 13.4097C21.1414 13.4097 21.1414 13.2542 21.1803 13.1571C21.2386 13.0599 21.2774 12.9045 21.2385 12.7102C21.1802 12.8656 21.0442 12.9628 21.0442 12.8073C21.1025 12.613 21.2385 12.5547 21.1414 12.2632C21.0831 12.5159 20.9471 12.5159 20.986 12.3604C21.0443 12.205 21.1414 12.1078 20.986 11.8552C20.9277 12.1078 20.8306 12.1078 20.8306 11.9524C20.8306 11.6998 20.8306 11.4471 20.5391 11.35C20.5391 11.35 20.5391 11.0974 20.3836 11.0974C20.2282 11.0974 20.2282 11.35 20.2282 11.35C19.9368 11.4471 19.9368 11.6998 19.9368 11.9524C19.9368 12.1078 19.8396 12.1467 19.7813 11.8552C19.6841 12.1078 19.7813 12.1467 19.7813 12.3604C19.8396 12.5159 19.6842 12.5159 19.6259 12.2632C19.5287 12.5547 19.6842 12.613 19.723 12.8073C19.7813 12.9045 19.5676 12.8656 19.5287 12.6519C19.4316 12.9045 19.5287 13.0599 19.587 13.0988C19.6453 13.1959 19.6453 13.3514 19.5287 13.3514C19.3344 13.3514 19.3344 13.0599 19.2373 13.0599V14.2647H16.8862V13.2154C16.7308 13.2737 16.6919 13.4097 16.6919 13.4097V13.604H16.5365C16.5365 13.604 16.4393 13.604 16.4393 13.4097C16.4393 13.2154 16.4976 13.1182 16.6336 13.1182V12.7102C16.6336 12.7102 16.2839 12.7685 16.2839 13.1571V12.8073C16.1867 12.8073 16.1867 12.9628 16.1867 13.3125H16.0896V12.9628C16.0896 12.7685 16.2839 12.7685 16.2839 12.613C16.2839 12.613 16.3422 12.3604 16.2256 12.2632C16.1284 12.5547 16.0313 12.5159 16.0313 12.3604C16.0313 12.2632 16.1284 12.1661 16.2839 11.8552C16.3421 11.758 16.2839 11.5054 16.2256 11.4083C16.1673 11.6609 16.1673 11.758 16.0702 11.758C16.0119 11.758 15.973 11.6998 15.973 11.6026C15.973 11.4471 16.0702 11.4083 16.1284 11.2528C16.1867 11.0974 16.1285 10.9614 16.0702 10.8448C16.0119 11.0974 16.0119 11.1362 15.973 11.1362C15.7787 11.078 15.973 10.7865 16.0313 10.6893C16.0896 10.5339 15.973 10.4367 15.973 10.4367C15.9148 10.631 15.8758 10.631 15.8175 10.631C15.7204 10.631 15.7593 10.4756 15.8759 10.3784C15.9342 10.3201 15.9342 10.223 15.8759 10.1258C15.8176 10.2813 15.6815 10.2813 15.7204 10.1841L15.7787 9.89265H15.6232V9.25143H15.4289C15.4289 9.09598 15.3318 8.95996 15.1375 8.95996C14.9432 8.95996 14.8849 9.15427 14.846 9.25143H14.5546V9.89265H14.3992L14.4574 10.2424C14.4574 10.3396 14.3603 10.3396 14.302 10.1841C14.2438 10.2813 14.2049 10.3784 14.302 10.4367C14.3992 10.5339 14.3992 10.6893 14.3603 10.6893C14.3214 10.6893 14.2632 10.6893 14.2049 10.495C14.2049 10.495 14.1077 10.6505 14.1465 10.7476C14.2048 10.8059 14.3992 11.0974 14.2049 11.1945C14.1077 11.1945 14.1077 11.0974 14.1077 10.9031C14.0106 11.0002 13.9522 11.1557 14.0494 11.3111C14.1077 11.4666 14.2049 11.5054 14.2049 11.6609C14.2049 11.758 14.1466 11.8163 14.1077 11.8163C14.0106 11.8163 13.9522 11.7192 13.9522 11.4666C13.894 11.5637 13.8551 11.8163 13.894 11.9135C14.0494 12.1661 14.1465 12.2632 14.1465 12.4187C14.1465 12.5159 13.9911 12.613 13.9522 12.3215C13.894 12.4187 13.894 12.6713 13.894 12.6713C13.894 12.8268 14.0883 12.8268 14.0883 13.0211V13.4291H13.9911C13.9911 13.0794 13.9912 12.9239 13.8357 12.9239V13.2737C13.8357 12.8656 13.4859 12.8268 13.4859 12.8268V13.2348C13.6414 13.2348 13.6802 13.332 13.6802 13.5263C13.6802 13.7206 13.5831 13.7206 13.5831 13.7206H13.3888V13.5263C13.3888 13.5263 13.3305 13.3708 13.1945 13.332V14.3812H10.8823V13.1765C10.7852 13.1765 10.7852 13.468 10.5909 13.468C10.4937 13.468 10.4938 13.3125 10.5326 13.2154C10.5909 13.1182 10.6297 12.9628 10.5909 12.7685C10.5326 12.9628 10.3966 13.0211 10.3966 12.9239C10.4549 12.7296 10.5909 12.6713 10.4937 12.3798C10.4354 12.6324 10.2995 12.6324 10.3383 12.477C10.3966 12.3215 10.4938 12.2244 10.3383 11.9718C10.28 12.2244 10.1828 12.2244 10.1828 12.0689C10.1828 11.8163 10.1828 11.5637 9.89138 11.4666C9.89138 11.4666 9.89142 11.214 9.73598 11.214C9.58053 11.214 9.54167 11.3694 9.54167 11.3694C9.25022 11.4666 9.25022 11.7192 9.25022 11.9718C9.25022 12.1272 9.15302 12.1661 9.09473 11.8746C8.99758 12.1272 9.09473 12.1661 9.09473 12.3798C9.15302 12.5353 8.99761 12.5353 8.93932 12.2827C8.84217 12.5742 8.99761 12.6324 9.03647 12.8268C9.09476 12.9239 8.88103 12.8851 8.84217 12.6713C8.74502 12.9239 8.84214 13.0794 8.90043 13.1182C8.95872 13.2154 8.95875 13.3708 8.84217 13.3708C8.64787 13.3708 8.64787 13.0794 8.55072 13.0794V13.7206H8.29817V13.5651C8.20102 13.5068 8.10381 13.5068 8.04552 13.5651V14.1675C8.04552 14.1675 7.94841 13.9149 7.79297 13.9149V15.3722C7.89012 15.4305 8.08438 15.5665 8.14267 15.7803V17.3348C8.08438 17.4902 7.94837 17.6845 7.85122 17.7428H22.4238C22.1906 17.6457 22.0352 17.5097 21.9769 17.2959Z" fill="#E2E2E2"/>
<path d="M23.878 20.5022V19.5501H23.3728V18.7534H22.9259V18.151H22.6734V17.7041H7.34296V18.151H7.09041V18.7534H6.64356V19.5501H6.13835V20.5022H5.69141V21.4543H24.3249V20.5022H23.878Z" fill="white"/>
<path d="M10.4134 17.704C10.3162 17.6457 10.1219 17.5097 10.1219 17.296V15.6443L10.2773 15.3917H10.3357V14.8865C10.2385 14.9448 10.1802 14.9836 10.083 15.0419C10.083 14.9836 10.0248 14.9448 10.0248 14.8865C10.083 14.8282 10.2773 14.595 10.3162 14.4784V14.0704C10.2579 14.0704 10.219 14.1287 10.1607 14.1287C10.2579 14.0315 10.3162 13.9344 10.3162 13.8372V13.4292C10.2191 13.4292 10.0636 13.5263 10.0248 13.6818C10.0248 13.5846 9.96647 13.4875 9.9276 13.3903C9.9859 13.332 10.1219 13.196 10.1219 13.0988V12.8462C10.0248 12.8462 9.96641 12.9045 9.86926 13.0017C9.86926 12.9434 9.8693 12.9434 9.81101 12.9045L9.96641 12.7102V12.4576C9.90812 12.4576 9.8693 12.5159 9.81101 12.5548C9.81101 12.4965 9.75275 12.4576 9.75275 12.3993L9.81101 12.2439V12.0496C9.75272 12.0496 9.75272 12.0496 9.71386 12.1078C9.71386 12.0496 9.6556 12.0107 9.6556 12.0107H9.71386L9.86926 11.9135V11.7581C9.81097 11.7581 9.81097 11.7581 9.77211 11.8164C9.71382 11.7192 9.67496 11.6609 9.57781 11.6221C9.48066 11.6804 9.42237 11.7192 9.38351 11.8164C9.32522 11.7581 9.32522 11.7581 9.28636 11.7581V11.9135L9.44185 12.0107H9.539C9.539 12.069 9.48066 12.069 9.48066 12.1078C9.42237 12.0496 9.42237 12.0496 9.38351 12.0496V12.2439L9.44185 12.3993C9.44185 12.4576 9.38351 12.4576 9.38351 12.4965C9.32522 12.3993 9.28639 12.3993 9.2281 12.3993V12.6519L9.38351 12.8462C9.38351 12.9045 9.38354 12.9045 9.32525 12.9434C9.26696 12.8462 9.16985 12.7879 9.0727 12.7879V13.0405C9.0727 13.1377 9.22814 13.2931 9.267 13.332C9.20871 13.4292 9.20871 13.5263 9.16985 13.6235C9.0727 13.468 8.97555 13.3709 8.8784 13.3709V13.7789C8.8784 13.8372 8.97551 13.9732 9.0338 14.0704C8.97551 14.0121 8.93669 14.0121 8.8784 14.0121V14.4202C8.93669 14.5173 9.0727 14.7116 9.16985 14.7699C9.16985 14.8282 9.1115 14.8671 9.1115 14.9254C9.05321 14.9837 9.01435 14.9254 8.9172 14.9254V15.4306L9.0727 15.6832V17.3348C9.0727 17.4903 8.8784 17.6263 8.78125 17.7429H9.0338V21.4542H10.1802V17.704H10.4134Z" fill="white"/>
<path d="M15.874 13.604V13.0988C15.6797 13.1571 15.5825 13.2931 15.5242 13.3903C15.5242 13.2931 15.466 13.196 15.4271 13.0988C15.4854 12.9045 15.5242 12.8074 15.6214 12.6908H15.6797V12.2439C15.5243 12.3022 15.4272 12.3993 15.3883 12.4965C15.3883 12.4382 15.33 12.3022 15.2911 12.205L15.4465 11.9524H15.6408V11.5055C15.4854 11.5638 15.3883 11.6609 15.3883 11.7581C15.3883 11.6998 15.33 11.5638 15.2911 11.4666L15.5437 11.2723V10.9808C15.4465 11.0391 15.2911 11.0391 15.2911 11.2334C15.2911 11.1363 15.2328 11.0391 15.2328 10.9808L15.4854 10.7865V10.4951C15.3883 10.4951 15.2911 10.5534 15.2911 10.6505C15.2911 10.5922 15.2328 10.5534 15.2328 10.4951L15.3883 10.3979V10.1453C15.33 10.1453 15.2328 10.2036 15.2328 10.3008C15.2328 10.1453 15.1745 10.1453 15.0774 10.1064C15.0191 10.1647 14.9802 10.1647 14.9219 10.3008C14.9219 10.2036 14.8248 10.2036 14.7665 10.1453V10.3979L14.9219 10.4951C14.9219 10.5534 14.8636 10.5922 14.8636 10.6505C14.8636 10.4951 14.7665 10.4951 14.6693 10.4951V10.7477L14.9219 10.942C14.8636 11.0003 14.8636 11.0974 14.8636 11.1946C14.8636 11.0003 14.7082 11.0003 14.6111 10.942V11.2917L14.8054 11.486C14.7471 11.5832 14.7082 11.7387 14.7082 11.7775C14.65 11.6804 14.5527 11.5832 14.4556 11.5249V11.9718H14.5139L14.6693 12.2244C14.6111 12.3216 14.5722 12.4187 14.5722 12.5159C14.5139 12.4187 14.4168 12.3216 14.2807 12.2633V12.7102H14.339C14.4361 12.7685 14.5333 12.9045 14.5333 13.1183V13.3709C14.475 13.2737 14.339 13.1183 14.1836 13.0794V13.5846H14.2807C14.4362 13.7789 14.475 14.0898 14.475 14.2841L14.3196 14.1287V14.6339H14.8247C14.7276 14.7893 14.6693 14.9254 14.6693 15.1391C14.5139 15.0808 14.5139 15.0419 14.3779 14.9836V15.4889L14.475 15.6443V17.3931C14.475 17.5486 14.2807 17.6846 14.1836 17.8012H14.4361V21.5125H15.5826V17.7623H15.8351C15.738 17.704 15.5437 17.568 15.5437 17.3542V15.6054L15.6408 15.45V14.9448C15.4465 15.0031 15.4466 15.0419 15.3883 15.1974C15.3883 15.0419 15.3299 14.8476 15.2328 14.6922H15.738V14.1481C15.6797 14.2064 15.6409 14.2064 15.5826 14.2453C15.5826 13.9927 15.6409 13.7401 15.7769 13.5458C15.8158 13.604 15.874 13.604 15.874 13.604Z" fill="white"/>
<path d="M21.2377 17.7038C21.1405 17.6455 20.9462 17.5095 20.9462 17.2958V15.6441L21.1017 15.3915H21.16V14.8863C21.0628 14.9446 21.0046 14.9835 20.9074 14.9835C20.9074 14.9252 20.8491 14.8863 20.8491 14.828C20.9073 14.7309 21.1016 14.5754 21.1405 14.4783V14.0702C21.0822 14.0702 21.0434 14.1285 20.9851 14.1285C21.0823 14.0313 21.1405 13.8759 21.1405 13.837V13.429C21.0434 13.429 20.8879 13.5261 20.8491 13.6816C20.8491 13.5844 20.7908 13.4873 20.7519 13.3901C20.8102 13.3318 20.9462 13.1958 20.9462 13.0986V12.846C20.8491 12.846 20.7908 12.9043 20.6937 13.0015C20.6937 12.9432 20.6937 12.9432 20.6354 12.9043L20.7908 12.71V12.4574C20.7325 12.4574 20.6937 12.5157 20.6354 12.5546C20.6354 12.4963 20.5771 12.4574 20.5771 12.4574L20.6354 12.302V12.1077C20.5771 12.1077 20.5771 12.1077 20.5383 12.166C20.5383 12.1077 20.4799 12.0688 20.4799 12.0688H20.5383L20.6937 11.9716V11.8162C20.6354 11.8162 20.6354 11.8162 20.5965 11.8745C20.5382 11.7773 20.4994 11.719 20.4022 11.6802C20.3051 11.7385 20.2468 11.7773 20.2079 11.8745C20.1496 11.8162 20.1496 11.8162 20.1108 11.8162V11.9716L20.2662 12.0688H20.3245C20.3245 12.1271 20.2662 12.1271 20.2662 12.166C20.2079 12.1077 20.2079 12.1077 20.169 12.1077V12.302L20.2274 12.4574C20.1691 12.5157 20.169 12.5157 20.169 12.6129C20.1107 12.5157 20.0719 12.5157 20.0136 12.5157V12.7683L20.169 12.9626C20.169 13.0209 20.169 13.0209 20.1108 13.0598C20.0525 12.9626 20.0136 12.9626 19.9165 12.9043V13.1569C19.9165 13.2541 20.0719 13.4096 20.1108 13.4484C20.0525 13.5456 20.0525 13.6427 20.0136 13.7399C19.9165 13.5844 19.8193 13.4873 19.7222 13.4873V13.8953C19.7222 13.9536 19.8193 14.0896 19.8776 14.1868C19.8193 14.1285 19.7804 14.1285 19.7222 14.1285V14.5366C19.7804 14.6337 19.9747 14.828 20.0136 14.9446C20.0136 15.0029 19.9553 15.0418 19.9553 15.1001C19.8971 15.0418 19.7999 15.0029 19.7027 14.9446V15.4498H19.761L19.9165 15.7024V17.3541C19.9165 17.5095 19.7222 17.6455 19.625 17.7621H19.8776V21.4735H21.024V17.7233H21.2377" fill="white"/>
</svg>
