<svg width="30" height="31" viewBox="0 0 30 31" fill="none" xmlns="http://www.w3.org/2000/svg">
<path d="M30.0013 15.4409C30.0013 8.88167 25.8487 3.33157 20.0078 1.29395V29.5878C25.8487 27.5502 30.0013 22.0001 30.0013 15.4409Z" fill="#FFCE31"/>
<path d="M0 15.4409C0 22.0001 4.19146 27.5502 9.99352 29.5878V1.29395C4.19146 3.35098 0 8.90108 0 15.4409Z" fill="#83BF4F"/>
<path d="M20.0051 1.29428C18.4527 0.750918 16.7646 0.44043 14.9987 0.44043C13.2523 0.44043 11.5446 0.731512 9.99219 1.29428V29.5881C11.5446 30.1315 13.2329 30.442 14.9987 30.442C16.7452 30.442 18.4527 30.1509 20.0051 29.5881V1.29428Z" fill="#C94747"/>
<path d="M14.9997 17.5368L17.6581 19.4386L16.6491 16.3919L19.2493 14.4901H16.0087L14.9997 11.4434L13.9906 14.4901H10.75L13.3502 16.3919L12.3411 19.4386L14.9997 17.5368Z" fill="#FFCE31"/>
</svg>
