<svg width="30" height="31" viewBox="0 0 30 31" fill="none" xmlns="http://www.w3.org/2000/svg">
<path d="M0 15.8635C0 21.6077 3.24062 26.6144 7.99483 29.1178V2.60925C3.24062 5.11262 0 10.1 0 15.8635Z" fill="#F9F9F9"/>
<path d="M29.9987 15.8635C29.9987 10.1194 26.7581 5.11262 22.0039 2.60925V29.1566C26.7387 26.6144 29.9987 21.6077 29.9987 15.8635Z" fill="#FFCE31"/>
<path d="M15.0013 0.862671C12.4592 0.862671 10.0918 1.50307 7.99609 2.60921V29.1566C10.0918 30.2627 12.4398 30.9031 15.0013 30.9031C17.5433 30.9031 19.9107 30.2627 22.0064 29.1566V2.60921C19.8913 1.50307 17.5433 0.862671 15.0013 0.862671Z" fill="#2A5F9E"/>
<path d="M21.1517 18.9102C21.501 18.5609 21.4428 17.8623 20.9576 17.6682C20.8606 17.61 20.7054 17.7652 20.6666 17.8235C20.5695 18.0757 20.9188 18.2698 20.7248 18.4639C20.5307 18.6579 20.4725 18.3086 20.4337 18.2116C20.3367 17.9593 20.1426 17.8041 19.8904 17.61C19.4441 17.2607 19.25 16.6591 19.25 16.1157C19.25 15.4171 19.4052 14.3692 18.4932 14.1169C18.241 14.0199 17.9887 14.1169 17.7364 14.0587C17.3289 13.9035 17.2319 14.2528 17.2901 14.6021C16.8826 14.505 16.8438 15.0096 16.4945 14.8932C16.5915 14.6991 16.6886 14.4856 16.7856 14.3498C16.8826 14.408 17.0767 14.2916 17.0767 14.1946C17.0767 14.0005 17.3289 13.8452 17.3289 13.6512C17.3289 13.4571 17.2707 13.1466 17.0767 13.0496C16.9796 12.7003 16.4363 12.6421 16.184 12.6033C15.99 12.6033 16.0288 12.7003 15.893 12.5451C15.7959 12.448 15.4855 12.448 15.3884 12.448C15.4855 11.9047 14.6316 11.9047 14.6899 12.448C14.5928 12.448 14.3406 12.448 14.2435 12.5062C14.0495 12.6033 14.1465 12.7003 13.8943 12.6033C13.7972 12.6033 13.7002 12.6033 13.6032 12.6615C13.4479 12.6033 13.0598 12.7585 12.9628 12.9526C12.9046 13.0496 12.8076 13.1078 12.7688 13.2437C12.7106 13.3407 12.7688 13.4377 12.7106 13.5347C12.6523 13.69 12.8076 14.0781 12.9046 14.1752C12.8464 14.3304 13.0016 14.3692 13.1569 14.3692C13.3121 14.3692 13.4479 14.8155 13.5062 14.9126C13.3509 14.9126 13.3121 14.9708 13.2151 14.8155C13.1181 14.6215 12.924 14.5633 12.7106 14.6215C12.7688 14.214 12.6135 13.9811 12.206 14.1169C12.012 14.1751 12.012 14.1169 11.8567 14.0587C11.7015 14.0587 11.4492 14.1557 11.3134 14.214C10.5178 14.6603 10.9059 15.6694 10.7701 16.4068C10.7119 16.6979 10.6148 17.0084 10.4208 17.2607C10.2267 17.5518 9.91626 17.707 9.72221 17.9593C9.66399 18.0563 9.52816 18.5027 9.43113 18.5027C9.08184 18.5027 9.27589 18.1534 9.33411 17.9981C9.52816 17.5518 8.88779 17.5518 8.73255 17.9011C8.44148 18.5027 8.98482 19.2983 9.68339 19.046C9.68339 19.2013 9.68339 19.3371 9.48935 19.3953C9.2953 19.4536 9.39232 19.8417 9.43113 19.9387C9.52816 20.2298 9.7222 20.8896 10.1297 20.8896C10.479 20.8896 11.0223 20.8314 10.576 20.3462C10.4208 20.1522 10.0715 20.1522 10.1685 19.8029C10.2655 19.5506 10.6148 19.5118 10.7119 19.2013C10.8671 18.7938 10.8671 19.2983 10.8089 19.2983C10.7507 19.3953 11.0611 19.5894 11.1 19.7058C11.3522 20.1134 11.5075 20.2104 11.9538 20.2104C12.206 20.2104 12.1478 19.9581 12.109 19.7641C12.012 19.57 11.5657 19.473 11.5657 19.2595C11.5657 19.0654 11.7597 18.9684 11.7209 18.6579C11.6627 18.4056 11.4686 18.2504 11.2746 18.1145C11.5269 17.8623 11.8761 17.7652 12.1284 17.513C12.3225 17.3189 12.4195 17.0084 12.6329 16.8144V17.9593C12.6329 18.3668 12.5747 18.852 12.73 19.2013C13.0793 19.9581 14.2241 20.1522 14.9809 20.1522C15.7377 20.1522 16.8826 19.9581 17.2319 19.2013C17.3871 18.852 17.3289 18.4057 17.3289 18.0563V16.8144C17.4842 16.8144 17.62 17.3189 17.7364 17.4159C17.9887 17.707 18.3768 17.8623 18.6873 18.1728C18.3962 18.3668 17.9887 18.8132 18.2798 19.1819C18.532 19.4342 18.0857 19.5312 17.9887 19.6282C17.8917 19.7253 17.5812 20.2686 17.9305 20.2686C18.2798 20.4239 18.6291 20.1716 18.7843 19.9193C18.8425 19.8223 19.1918 19.5118 19.1918 19.4148C19.1918 19.2595 19.0366 19.2207 19.25 19.1625C19.347 19.5118 20.2979 20.0163 19.6963 20.3074C19.5411 20.4045 19.1918 20.7538 19.4053 20.9478C19.5023 21.0448 19.7545 21.006 19.9098 21.006C20.3561 21.006 20.4531 20.5597 20.6084 20.2104C20.6666 20.0552 20.8024 19.7058 20.6666 19.57C20.5113 19.4147 20.4143 19.4148 20.4143 19.1237C20.589 19.2013 20.9382 19.1042 21.1517 18.9102ZM11.391 12.1181C11.488 12.2734 11.5851 12.4092 11.7985 12.5256C11.7015 12.6227 11.2552 12.8749 11.6433 12.972C11.8373 13.0302 12.0896 13.0302 12.2836 12.972C12.5359 12.972 14.1853 12.4674 13.836 12.0793C14.5928 11.9823 15.3302 11.9823 16.1452 12.0793C15.9512 12.5839 17.3871 12.972 17.6976 12.972C17.8917 12.972 18.1439 13.0302 18.338 12.972C18.7455 12.8749 18.2798 12.6227 18.1827 12.5256C18.2798 12.4674 18.8813 11.8852 18.4738 11.827C18.3768 11.827 18.2216 11.8852 18.0663 11.8852C17.8723 11.8852 17.717 11.827 17.5618 11.73C17.2125 11.5747 17.3095 11.1284 16.9602 10.9732C16.5139 10.7791 15.8542 10.7791 15.369 10.7791C14.8257 10.7791 14.263 10.7791 13.6614 10.8373C13.2539 10.8955 12.7106 10.9344 12.6135 11.3807C12.5165 11.73 12.1672 11.827 11.8567 11.827C11.7015 11.8658 11.1388 11.7106 11.391 12.1181Z" fill="white"/>
<path d="M12.8477 15.0678H17.1555V18.8714C17.1555 20.1134 15.0016 20.1134 15.0016 20.1134C15.0016 20.1134 12.8477 20.1134 12.8477 18.8714V15.0678Z" fill="#4C86C7"/>
<path d="M14.6908 16.2516L14.1862 15.7082C14.0892 15.6111 13.934 15.6111 13.8952 15.7082L13.3906 16.2516H14.6908Z" fill="white"/>
<path d="M14.6908 17.3577L14.1862 16.8144C14.0892 16.7174 13.934 16.7174 13.8952 16.8144L13.3906 17.3577H14.6908Z" fill="white"/>
<path d="M14.6908 18.5027L14.1862 17.9593C14.0892 17.8623 13.934 17.8623 13.8952 17.9593L13.3906 18.5027H14.6908Z" fill="white"/>
<path d="M15.64 19.6088L15.1354 19.0654C15.0384 18.9684 14.8832 18.9684 14.8444 19.0654L14.3398 19.6088H15.64Z" fill="white"/>
<path d="M16.5931 16.2516L16.0886 15.7082C15.9916 15.6111 15.8363 15.6111 15.7975 15.7082L15.293 16.2516H16.5931Z" fill="white"/>
<path d="M16.5931 17.3577L16.0886 16.8144C15.9916 16.7174 15.8363 16.7174 15.7975 16.8144L15.293 17.3577H16.5931Z" fill="white"/>
<path d="M16.5931 18.5027L16.0886 17.9593C15.9916 17.8623 15.8363 17.8623 15.7975 17.9593L15.293 18.5027H16.5931Z" fill="white"/>
<path d="M18.4351 12.0599L18.4933 11.9628C18.3963 12.0211 18.2993 12.021 18.2022 12.021C18.0082 12.021 17.4067 11.924 17.1932 11.5747V11.5165C17.1932 11.2642 17.038 11.0702 16.7857 11.0702C16.1841 10.9731 15.5826 10.9149 14.981 10.9149C14.3795 10.9149 13.7779 10.9731 13.1764 11.0702C12.9823 11.1284 12.7689 11.3224 12.7689 11.5165V11.5747C12.6136 11.924 11.9733 12.021 11.7598 12.021C11.6628 12.021 11.5658 12.0211 11.4688 11.9628L11.527 12.0599C11.624 12.2539 11.7792 12.4092 11.9733 12.4674C11.9151 12.6615 11.7792 12.7585 11.5658 12.8167C11.7598 12.8749 12.8659 12.9719 13.6227 12.2151L13.5257 12.021V11.9628C13.972 11.9046 14.4183 11.8658 14.9228 11.8658H14.981C15.4856 11.8658 15.9319 11.924 16.3782 11.9628V12.021L16.2812 12.2151C17.038 12.9719 18.1828 12.8555 18.3381 12.8167C18.1828 12.7585 18.047 12.6615 17.9306 12.4674C18.144 12.351 18.3381 12.2151 18.4351 12.0599Z" fill="#A5A7A9"/>
<path d="M12.3405 16.3098C12.4957 16.1158 12.5345 15.7665 12.5927 15.553C12.6897 15.2037 12.7868 15.1066 13.136 15.1066C13.136 14.6603 12.6897 14.8156 12.4957 15.0484C12.3404 15.3007 12.2046 15.553 11.9912 15.8053V15.3589C12.1852 15.1649 12.4957 15.0678 12.5345 14.7574C12.5345 14.6603 12.6315 14.3498 12.5345 14.2528C12.4763 14.1946 12.2822 14.311 12.2434 14.311C11.9912 14.3692 11.9912 14.2528 11.8359 14.2528C10.7881 14.2528 10.9433 15.456 10.9433 16.1546C10.9433 16.7562 10.7492 17.2995 10.3029 17.707C10.1477 17.8623 9.95364 17.9593 9.7984 18.1534C9.70138 18.3086 9.64317 18.755 9.3909 18.755C9.09983 18.755 8.94459 18.4057 9.04162 18.2116C9.19686 17.8623 8.94458 17.8041 8.78934 18.1534C8.59529 18.755 9.23566 19.3565 9.7984 18.9102C9.74019 19.1625 9.89543 19.4536 9.64316 19.667C9.44911 19.8223 9.54614 20.1134 9.70138 20.3075C9.7984 20.4627 9.85662 20.909 10.1089 20.909C10.2641 20.9672 10.4582 20.909 10.5552 20.909C10.5552 20.715 10.4 20.5015 10.1477 20.5015C9.99245 20.3463 9.95364 20.0552 10.0507 19.8999C10.1089 19.8417 10.8463 19.1043 10.691 19.1043C10.7881 19.1043 11.0403 19.1625 11.0985 19.2983C11.1567 19.4536 11.0985 19.4536 11.0403 19.5506C11.1373 19.6088 11.2344 19.7059 11.2926 19.8029C11.3896 19.9581 11.4866 20.2492 11.7001 20.2492C11.7971 20.3074 11.9912 20.2492 12.1076 20.2492C12.1076 19.8029 11.3508 19.8417 11.5643 19.3566C11.6225 19.2013 11.8165 19.1043 11.6613 18.9102C11.5643 18.7161 11.312 18.5027 11.1179 18.4639C11.5254 18.0175 12.224 17.8235 12.3599 17.2219C12.8644 16.8144 12.8644 16.6203 12.8644 16.0769C12.7091 16.0769 12.6703 16.2322 12.6703 16.3292C12.6703 16.5233 12.5733 16.6203 12.4181 16.7368C12.3404 16.4651 12.3405 16.368 12.3405 16.3098Z" fill="#C09B5A"/>
<path d="M20.9961 17.8622C20.9379 17.804 20.8991 17.804 20.8021 17.8622C20.7051 17.9593 20.8603 18.0563 20.8603 18.1533C20.9573 18.4056 20.8021 18.6967 20.511 18.6967C20.317 18.6967 20.317 18.5026 20.2588 18.3474C20.1617 18.0951 20.0065 17.9399 19.8512 17.804C19.0945 17.2606 18.9974 16.4068 18.9974 15.5529C18.9974 15.2618 19.0557 14.9125 18.8422 14.602C18.7452 14.408 18.5511 14.3109 18.3377 14.2527C18.2406 14.2527 18.1436 14.1945 18.0854 14.1945C17.9884 14.1945 17.8914 14.2915 17.8331 14.2915C17.7361 14.2333 17.4256 14.0975 17.3868 14.2333C17.3286 14.3886 17.3868 14.6408 17.445 14.7767C17.5421 14.9707 17.7943 15.0678 17.9496 15.223V15.6694C17.7943 15.4753 17.6585 15.223 17.5033 15.029C17.445 14.9707 17.4062 14.8737 17.348 14.8349C17.1928 14.5826 16.8047 14.7379 16.8047 15.029C17.0958 15.029 17.251 15.126 17.348 15.4753C17.4062 15.7664 17.6003 16.1739 17.5421 16.4262C17.3868 16.3292 17.2898 16.2321 17.2898 16.0187C17.2898 15.9216 17.2316 15.7664 17.0958 15.7664C17.0958 16.3098 17.0958 16.5232 17.6003 16.9113C17.7555 17.5129 18.4541 17.7652 18.8422 18.1533C18.5899 18.2504 18.4347 18.4056 18.2989 18.5996C18.2018 18.8519 18.3571 18.8907 18.3959 19.1042C18.5899 19.6088 17.8525 19.5506 17.8525 19.9969C18.26 19.9969 18.3571 19.9969 18.6093 19.6476C18.6676 19.5505 18.7646 19.4535 18.8616 19.3565C19.0168 19.2595 18.8616 19.2983 18.8616 19.1624C18.8616 18.9101 19.0556 18.9101 19.2691 18.8713C19.3273 18.8713 19.3661 19.1624 19.4244 19.2207C19.5214 19.4147 19.7154 19.4147 19.8707 19.5699C20.0259 19.764 20.0259 20.0745 19.8707 20.2686C19.7154 20.4238 19.4632 20.3656 19.4632 20.6761C19.6184 20.6761 19.8124 20.7343 19.9095 20.6761C20.1617 20.6761 20.2005 20.2297 20.317 20.0745C20.4722 19.8804 20.5692 19.57 20.3752 19.4341C20.1229 19.2401 20.2199 18.9878 20.2199 18.6773C20.8021 19.3565 21.5395 18.4056 20.9961 17.8622Z" fill="#C09B5A"/>
<path d="M14.9991 13.263C15.5036 13.263 16.5515 13.4183 16.9396 13.7676C16.5321 14.8155 15.8917 14.408 14.9991 14.408C14.1065 14.408 13.4467 14.8543 13.0586 13.7676C13.4467 13.3601 14.4946 13.263 14.9991 13.263Z" fill="#ED4C5C"/>
<path d="M16.3382 14.408C15.9889 14.214 15.5426 14.1557 14.9798 14.1557C14.4753 14.1557 13.9708 14.214 13.6797 14.408L13.7767 14.9126C14.0678 15.0096 14.5335 15.0678 14.9798 15.0678C15.4261 15.0678 15.8724 15.0096 16.1829 14.9126L16.3382 14.408Z" fill="#C8B100"/>
<path d="M16.7855 13.166C16.6884 13.0689 16.4944 13.0107 16.2809 13.0107C16.1839 13.0107 16.1257 13.0107 16.0287 13.0689C16.0287 13.0689 15.8734 12.8167 15.4853 12.8167C15.3301 12.8167 15.2331 12.8749 15.136 12.9137C15.136 12.8555 15.0778 12.8167 14.9808 12.8167C14.8838 12.8167 14.8256 12.8749 14.8256 12.9137C14.7285 12.8555 14.6315 12.8167 14.4763 12.8167C14.127 12.8167 13.9329 13.0689 13.9329 13.0689C13.8747 13.0689 13.7777 13.0107 13.6807 13.0107C12.4388 13.0107 13.0791 13.9034 13.0791 13.9034L13.1761 13.7093C12.8851 13.3018 13.1179 13.0689 13.6807 13.0689H13.8747C13.6807 13.36 14.03 13.6123 14.03 13.6123L14.127 13.4571C13.9717 13.36 13.9717 12.8555 14.4763 12.8555C14.6315 12.8555 14.7285 12.9137 14.8256 12.9525C14.8256 13.0107 14.7673 13.3988 14.7673 13.4571L14.9614 13.6511L15.1554 13.4571C15.0972 13.36 15.0972 12.9525 15.0972 12.9525C15.1942 12.8943 15.2913 12.8555 15.4465 12.8555C15.9899 12.8555 15.9899 13.36 15.7958 13.4959L15.8928 13.6511C15.8928 13.6511 16.1839 13.3989 16.0481 13.1078H16.2421C16.8825 13.1078 16.9407 13.6511 16.7466 13.7482L16.8437 13.9422C16.9019 13.9034 17.1347 13.5153 16.7855 13.166Z" fill="#C8B100"/>
<path d="M14.8438 12.6032C14.8438 12.5062 14.9408 12.4091 14.999 12.4091C15.0572 12.4091 15.1542 12.5062 15.1542 12.6032C15.1542 12.7002 15.0572 12.7973 14.999 12.7973C14.9408 12.7973 14.8438 12.7002 14.8438 12.6032Z" fill="#005BBF"/>
<path d="M14.9408 12.1181V12.2152H14.8826V12.3122H14.9408V12.5645H14.8438V12.6615H15.193V12.5645H15.0378V12.3122H15.1348V12.2152H15.0378V12.1181H14.9408Z" fill="#C8B100"/>
<path d="M15.0006 15.0096C14.5543 15.0096 14.205 14.9514 13.8945 14.8543C14.1856 14.7573 14.5931 14.6991 15.0006 14.6991C15.4469 14.6991 15.7962 14.7573 16.1067 14.8543C15.835 14.9514 15.4469 15.0096 15.0006 15.0096Z" fill="#ED4C5C"/>
</svg>
