<svg width="30" height="31" viewBox="0 0 30 31" fill="none" xmlns="http://www.w3.org/2000/svg">
<path d="M22.9988 3.28512C20.6912 1.83061 17.9568 0.977295 15.0092 0.977295C12.0615 0.977295 9.30783 1.83061 7.01953 3.28512V28.6129C9.32722 30.0674 12.0615 30.9207 15.0092 30.9207C17.9568 30.9207 20.7105 30.0674 22.9988 28.6129V3.28512Z" fill="#F9F9F9"/>
<path d="M23 3.2851V28.6129C27.1888 26.0142 30.0006 21.224 30.0006 15.9102C30.0006 10.5964 27.1888 5.9226 23 3.2851Z" fill="#ED4C5C"/>
<path d="M7.00065 3.2851C2.8119 5.94199 0 10.7322 0 15.9878C0 21.2434 2.7925 26.0336 7.00065 28.6905V3.2851Z" fill="#ED4C5C"/>
<path d="M20.4379 15.7745C20.2439 15.6775 20.1858 15.4836 20.2439 15.3672L20.7481 13.5636L19.0028 13.9127C18.9447 13.9127 18.7507 13.9127 18.7119 13.5636L18.5568 12.9624L17.3545 14.3588C17.3545 14.3588 16.5594 15.2121 16.8115 13.9127L17.3157 11.1589L16.3655 11.6631C16.3073 11.6631 16.1134 11.7213 15.8613 11.217L15.008 9.47162L14.116 11.1201C13.8639 11.6243 13.6699 11.5661 13.6118 11.5661L12.6615 11.0619L13.1657 13.8157C13.4178 15.1151 12.6227 14.2618 12.6227 14.2618L11.4204 12.8655L11.2653 13.4667C11.1683 13.8158 11.0132 13.8157 10.9744 13.8157L9.22908 13.4667L9.73328 15.2703C9.73328 15.4254 9.73328 15.5611 9.53936 15.6775L9.03516 15.9684C9.03516 15.9684 11.0326 17.5587 11.6919 18.1211C11.8471 18.2181 12.1379 18.5283 12.041 18.8774L11.7889 19.5756L14.5426 19.1683C14.6977 19.1683 14.9886 19.1683 14.9498 19.6144L14.7947 22.4652H15.2989L15.1438 19.6144C15.1438 19.1683 15.4346 19.1683 15.551 19.1683L18.3047 19.5756L18.0526 18.8774C17.9556 18.5283 18.2465 18.2375 18.4017 18.1211C19.0416 17.5781 21.0584 15.9684 21.0584 15.9684L20.4379 15.7745Z" fill="#ED4C5C"/>
</svg>
