<svg width="30" height="31" viewBox="0 0 30 31" fill="none" xmlns="http://www.w3.org/2000/svg">
<path d="M14.9999 30.906C19.9094 30.906 24.2561 28.5579 26.9922 24.9096H2.98828C5.74378 28.5579 10.0905 30.906 14.9999 30.906Z" fill="#2A5F9E"/>
<path d="M15 0.904419C6.6947 0.904419 0 7.59946 0 15.9052H30C30 7.59946 23.2859 0.904419 15 0.904419Z" fill="#2A5F9E"/>
<path d="M29.6895 18.9132C29.8836 17.9623 29.9806 16.9726 29.9806 15.9052H0C0 16.9532 0.0970246 17.9623 0.291074 18.9132H29.6895Z" fill="white"/>
<path d="M1.24381 21.9016H28.7406C29.1481 20.9507 29.4974 19.961 29.6914 18.8937H0.292969C0.487018 19.961 0.836311 20.9507 1.24381 21.9016Z" fill="#ED4C5C"/>
<path d="M1.24219 21.9017C1.6885 22.9496 2.29005 23.9975 2.98863 24.9096H26.9925C27.6911 24.017 28.2926 22.969 28.7389 21.9017H1.24219Z" fill="white"/>
<path d="M11.4895 12.9555L12.0911 13.4018L11.897 12.645L12.4986 12.1404H11.7418L11.4895 11.3836L11.2373 12.1404H10.4805L11.082 12.645L10.888 13.4018L11.4895 12.9555Z" fill="#FFCE31"/>
<path d="M11.4895 27.9563L12.0911 28.4026L11.897 27.6458L12.4986 27.1413H11.7418L11.4895 26.3844L11.2373 27.1413H10.4805L11.082 27.6458L10.888 28.4026L11.4895 27.9563Z" fill="#FFCE31"/>
<path d="M16.9973 17.9623L17.5989 18.4086L17.4048 17.6518L18.0064 17.1472H17.2496L16.9973 16.3904L16.7451 17.1472H15.9883L16.5898 17.6518L16.3958 18.4086L16.9973 17.9623Z" fill="#FFCE31"/>
<path d="M7.99343 14.4497L8.59499 14.8961L8.40094 14.1392L9.00249 13.6347H8.24569L7.99343 12.8778L7.74117 13.6347H6.98438L7.58593 14.1392L7.39189 14.8961L7.99343 14.4497Z" fill="#FFCE31"/>
<path d="M15.0012 14.4497L15.6028 14.8961L15.4087 14.1392L16.0103 13.6347H15.2535L15.0012 12.8778L14.749 13.6347H13.9922L14.5937 14.1392L14.3997 14.8961L15.0012 14.4497Z" fill="#FFCE31"/>
<path d="M5.49343 17.9623L6.09498 18.4086L5.90093 17.6518L6.50248 17.1472H5.74569L5.49343 16.3904L5.24116 17.1472H4.48438L5.08592 17.6518L4.89187 18.4086L5.49343 17.9623Z" fill="#FFCE31"/>
<path d="M16.9973 23.9587L17.5989 24.4051L17.4048 23.6482L18.0064 23.1437H17.2496L16.9973 22.3868L16.7451 23.1437H15.9883L16.5898 23.6482L16.3958 24.4051L16.9973 23.9587Z" fill="#FFCE31"/>
<path d="M5.49343 23.9587L6.09498 24.4051L5.90093 23.6482L6.50248 23.1437H5.74569L5.49343 22.3868L5.24116 23.1437H4.48438L5.08592 23.6482L4.89187 24.4051L5.49343 23.9587Z" fill="#FFCE31"/>
<path d="M14.4973 26.9666L15.0989 27.413L14.9048 26.6561L15.5064 26.1516H14.7496L14.4973 25.3947L14.2451 26.1516H13.4883L14.0898 26.6561L13.8958 27.413L14.4973 26.9666Z" fill="#FFCE31"/>
<path d="M7.99343 26.9666L8.59499 27.413L8.40094 26.6561L9.00249 26.1516H8.24569L7.99343 25.3947L7.74117 26.1516H6.98438L7.58593 26.6561L7.39189 27.413L7.99343 26.9666Z" fill="#FFCE31"/>
</svg>
