<svg width="30" height="31" viewBox="0 0 30 31" fill="none" xmlns="http://www.w3.org/2000/svg">
<path d="M5.29754 27.3157L29.3014 11.3058C27.6714 6.20205 23.4411 2.34026 18.2018 1.19531L0.194049 13.1882C0.0970246 14.0421 0 14.9347 0 15.8468C0 20.4654 2.03751 24.5601 5.29754 27.3157Z" fill="white"/>
<path d="M29.9993 15.8663C29.9993 14.275 29.7471 12.7613 29.3008 11.3253L5.29688 27.3352C7.89713 29.528 11.293 30.8865 14.9993 30.8865C23.3046 30.8671 29.9993 24.172 29.9993 15.8663Z" fill="#2A5F9E"/>
<path d="M0.253906 13.227L18.2617 1.23411C17.2138 0.981834 16.1077 0.884818 15.0211 0.884818C7.58897 0.865412 1.49582 6.22145 0.253906 13.227Z" fill="#FFCE31"/>
<path d="M18.7438 14.6242L20.141 13.8286L18.7438 13.0329C18.3946 10.1414 16.0854 7.83212 13.194 7.48281L12.3984 6.08557L11.6028 7.48281C8.71149 7.89034 6.40232 10.1802 5.99481 13.0911L4.59766 13.8868L5.99481 14.6824C6.3441 17.5739 8.65329 19.8832 11.5446 20.2325L12.3402 21.6298L13.1358 20.2325C16.0466 19.825 18.3363 17.5157 18.7438 14.6242ZM12.3984 19.4175C9.29366 19.4175 6.79042 16.9141 6.79042 13.8092C6.79042 10.7042 9.29366 8.20083 12.3984 8.20083C15.5032 8.20083 18.0065 10.7042 18.0065 13.8092C17.987 16.9141 15.445 19.4175 12.3984 19.4175Z" fill="#3E4347"/>
<path d="M14.5928 13.8674L15.6989 11.9268H13.5061L12.4 10.025L11.2551 11.9268H9.04297L10.149 13.8674L9.04297 15.7692H11.2357L12.3806 17.671L13.4867 15.7692H15.6794L14.5928 13.8674Z" fill="#ED4C5C"/>
</svg>
