<svg width="30" height="31" viewBox="0 0 30 31" fill="none" xmlns="http://www.w3.org/2000/svg">
<path d="M5.00781 5.02893H15.3118V15.3335H5.00781V5.02893Z" fill="#2A5F9E"/>
<path d="M8.44108 3.06885V6.01854H4.79297L11.9922 15.0229H14.9999V11.2776L8.44108 3.06885Z" fill="white"/>
<path d="M15 0.0222168V15.023H0C0 23.3287 6.6947 30.0238 15 30.0238C23.3053 30.0238 30 23.3287 30 15.023C30 6.71725 23.3053 0.0222168 15 0.0222168Z" fill="#2A5F9E"/>
<path d="M4.50195 8.48324H1.49419C0.543351 10.482 0 12.6749 0 15.0424H5.99612V5.99927H4.50195V8.48324Z" fill="white"/>
<path d="M15.0006 12.5779L8.49995 4.52441H5.49219L13.9915 15.023H15.0006V12.5779Z" fill="#ED4C5C"/>
<path d="M8.44296 1.51646V4.52439H4.48438V6.01863H14.9824V0.0222168C12.6538 0.0222168 10.4417 0.565574 8.44296 1.51646Z" fill="white"/>
<path d="M15.0019 1.51648H8.44303C5.43527 2.97193 2.95146 5.4753 1.49609 8.46382V15.023H4.50385V4.5244H15.0019V1.51648Z" fill="#ED4C5C"/>
<path d="M17.9492 13.2765V19.1177C17.9492 19.7193 18.4538 19.9715 18.9971 20.1656L21.151 21.0195L23.2468 20.1656C23.7901 19.9715 24.2946 19.661 24.2946 19.1177V13.2765H17.9492Z" fill="white"/>
<path d="M24.3531 17.5264C24.3531 17.5264 23.7127 17.08 22.7619 17.08C21.8693 17.08 21.714 17.5264 21.1707 17.5264C20.5303 17.5264 20.5303 17.08 19.5795 17.08C18.6286 17.08 17.9883 17.5264 17.9883 17.5264V16.6337C17.9883 16.6337 18.6286 16.1874 19.5795 16.1874C20.5303 16.1874 20.5303 16.6337 21.1707 16.6337C21.714 16.6337 21.811 16.1874 22.7619 16.1874C23.6545 16.1874 24.3531 16.6337 24.3531 16.6337V17.5264Z" fill="#42ADE2"/>
<path d="M17.9492 12.7332V15.7411C17.9492 15.7411 18.5896 14.9842 19.5404 14.9842C20.4913 14.9842 20.4913 15.7411 21.1316 15.7411C21.675 15.7411 21.772 14.9842 22.7228 14.9842C23.6155 14.9842 24.314 15.7411 24.314 15.7411V12.7332H17.9492Z" fill="#ED4C5C"/>
<path d="M24.3531 19.1177C24.3531 19.1177 23.7127 18.7102 22.7619 18.7102C21.8693 18.7102 21.714 19.1177 21.1707 19.1177C20.5303 19.1177 20.5303 18.7102 19.5795 18.7102C18.6286 18.7102 17.9883 19.1177 17.9883 19.1177V18.2639C17.9883 18.2639 18.6286 17.8563 19.5795 17.8563C20.5303 17.8563 20.5303 18.2639 21.1707 18.2639C21.714 18.2639 21.811 17.8563 22.7619 17.8563C23.6545 17.8563 24.3531 18.2639 24.3531 18.2639V19.1177Z" fill="#42ADE2"/>
<path d="M19.5397 19.6223C19.0934 19.6223 18.6859 19.7193 18.4336 19.8746C18.5888 19.9716 18.7829 20.0686 19.0352 20.1657L21.1891 21.0195L23.2848 20.1657C23.4789 20.0686 23.6923 20.0104 23.8864 19.8746C23.5953 19.7193 23.246 19.6223 22.7803 19.6223C21.8877 19.6223 21.7324 20.1657 21.1891 20.1657C20.4905 20.1851 20.4905 19.6223 19.5397 19.6223Z" fill="#42ADE2"/>
<path d="M16.3988 22.2808L15.8555 21.1358C16.36 20.7865 16.9615 20.4954 17.6019 20.2432L17.9512 21.5434C17.3496 21.718 16.8451 21.9703 16.3988 22.2808Z" fill="#ED4C5C"/>
<path d="M25.904 22.2809C25.4576 21.9898 24.9531 21.6793 24.3516 21.4853L24.7009 20.1851C25.3412 20.4373 25.9428 20.7284 26.4473 21.0778L25.904 22.2809Z" fill="#ED4C5C"/>
<path d="M21.1532 19.1176L21.7936 19.6222L21.5413 18.8266L22.1817 18.322H21.3861L21.1338 17.5264L20.8816 18.322H20.0859L20.7263 18.8266L20.474 19.6222L21.1532 19.1176Z" fill="#83BF4F"/>
<path d="M19.5399 17.0218L20.1803 17.5264L19.928 16.7307L20.5684 16.1874H19.7728L19.5205 15.3917L19.2683 16.1874H18.4727L19.113 16.7307L18.8608 17.5264L19.5399 17.0218Z" fill="#83BF4F"/>
<path d="M22.7431 17.0218L23.3834 17.5264L23.1311 16.7307L23.7715 16.1874H22.9759L22.7237 15.3917L22.4714 16.1874H21.6758L22.3161 16.7307L22.0639 17.5264L22.7431 17.0218Z" fill="#83BF4F"/>
<path d="M21.1514 22.8825C19.7542 22.8825 18.4541 22.2809 17.4062 21.1748L18.163 20.1656C19.0169 21.0583 20.0647 21.524 21.1708 21.524C22.2769 21.524 23.3636 21.0195 24.2174 20.1268L24.9742 21.1359C23.9069 22.2809 22.5485 22.8825 21.1514 22.8825Z" fill="#FFE62E"/>
<path d="M16.9418 23.3288L16.3984 22.1838C16.903 21.8345 17.5045 21.5434 18.1449 21.2911L18.436 22.5913C17.8926 22.7854 17.4075 23.0183 16.9418 23.3288Z" fill="#FFE62E"/>
<path d="M25.3415 23.3676C24.8951 23.0765 24.3906 22.766 23.7891 22.5719L24.1383 21.2717C24.7787 21.524 25.3803 21.8151 25.8848 22.1644L25.3415 23.3676Z" fill="#FFE62E"/>
<path d="M23.7911 14.0721C23.7911 14.0139 23.7329 13.9751 23.6359 14.0139C23.4418 14.0722 22.8403 14.0722 22.685 13.9169C22.9761 14.0139 23.3254 13.8199 23.3254 13.6258C23.3254 13.4318 23.0731 13.2183 22.4716 13.3735C21.9282 13.4706 21.2297 13.4318 21.2297 13.2765C21.2297 13.1213 21.7342 13.0825 21.9865 13.1213C22.2387 13.1795 22.4328 13.1795 22.8791 13.0242C22.7821 13.0825 22.3745 13.0825 22.1223 13.0242C21.8312 12.9272 21.1132 12.9272 21.1132 13.3153C21.1132 13.6646 21.87 13.6646 22.5686 13.5676C22.9761 13.5094 23.1702 13.5676 23.1702 13.6646C23.1702 13.7617 22.8209 13.8199 22.5298 13.8199C22.2775 13.7617 21.9865 13.7616 21.6372 13.8781C21.0356 14.0721 20.3953 13.9363 20.24 13.684V13.587C20.2982 13.5288 20.337 13.49 20.337 13.4318C20.3953 13.2765 20.337 13.2765 20.1818 13.3735C20.1236 13.3153 20.0266 13.2765 19.8907 13.2765C19.7355 13.2765 19.6385 13.3347 19.5996 13.3735C19.4444 13.3153 19.4056 13.3153 19.4444 13.4318C19.4444 13.49 19.5026 13.587 19.5414 13.587C19.5414 13.7811 19.7937 14.0916 19.7937 14.0916C19.5026 14.0334 19.0951 13.5482 19.0369 13.2959C18.9787 13.1989 18.8817 13.1407 18.8429 13.1407C18.8041 13.1407 18.7458 13.1989 18.7847 13.2377C18.8235 13.2765 18.8817 13.2959 18.9399 13.3929C18.8817 13.2959 18.7847 13.2959 18.7459 13.3347C18.6876 13.393 18.7458 13.4318 18.8041 13.4318C18.9011 13.4318 18.8623 13.5288 18.9011 13.587C18.8041 13.49 18.7458 13.49 18.707 13.5288C18.6682 13.5676 18.707 13.6258 18.7653 13.6258C18.8623 13.6258 19.2116 14.0722 20.0072 14.4797C20.0072 14.5379 19.8519 14.5379 19.7549 14.5379C19.5608 14.5379 19.3086 14.5379 19.2115 14.3827C19.1145 14.2856 18.9593 14.1886 18.8041 14.2274C18.7458 14.2856 18.8041 14.3244 18.8623 14.3244C18.9205 14.3244 18.9593 14.3244 19.0175 14.3827H18.8235C18.7652 14.4409 18.8235 14.4797 18.8817 14.4797C18.9399 14.4797 19.0369 14.4215 19.0757 14.4797H18.9205C18.8623 14.5379 18.9205 14.5767 18.9787 14.5767C19.0757 14.5767 19.9295 15.0813 20.6281 14.4797C20.7251 14.4797 21.4237 14.4797 21.7342 14.2856C21.9282 14.4797 21.9282 14.4409 22.0835 14.4797C22.2387 14.5379 22.3358 14.5379 22.2387 14.5767C22.1805 14.6349 22.0447 14.5767 21.9477 14.5767C21.6566 14.5767 21.5401 14.3827 21.4431 14.4797C21.3849 14.5767 21.4431 14.5767 21.5401 14.5767C21.4431 14.5767 21.3461 14.5767 21.3849 14.6737C21.4431 14.829 21.5789 14.6155 21.6372 14.732C21.5789 14.732 21.5401 14.732 21.5401 14.7902C21.5401 14.8484 21.6372 14.8872 21.7924 14.7902C21.8506 14.732 21.9477 14.732 21.9865 14.732C22.1805 14.732 22.6268 14.829 22.7821 14.6737C22.8403 14.6155 22.7821 14.5767 22.7239 14.5185C22.6656 14.4603 22.6656 14.4215 22.6656 14.2662C22.8209 14.3244 23.0731 14.3244 23.306 14.2662C23.6553 14.208 23.7523 14.3244 23.7523 14.4603C23.7523 14.5573 23.6941 14.5573 23.6553 14.5573C23.4612 14.5573 23.3642 14.4991 23.306 14.4991C23.2478 14.4991 23.209 14.5961 23.306 14.5961C23.2478 14.6543 23.2478 14.6931 23.306 14.6931H23.4612C23.403 14.7514 23.306 14.7902 23.3642 14.8484C23.4224 14.9066 23.4612 14.9066 23.5195 14.8484C23.5777 14.7902 23.6747 14.7514 23.7717 14.6931C23.7523 14.732 23.9076 14.3244 23.7911 14.0721Z" fill="#FFE62E"/>
<path d="M23.2452 9.31765H22.1003L23.1093 8.30855L21.8674 8.8131L22.1585 7.35765L21.3047 8.50261L20.8583 7.26062L20.7613 8.61904L19.9075 7.66814L20.3538 9.22062H19.5C19.5 9.22062 20.3926 9.86102 20.6061 10.0745H22.0032C22.2943 9.66696 23.2452 9.31765 23.2452 9.31765Z" fill="#FFE62E"/>
<path d="M19.5404 10.6178C19.5404 10.9089 18.7836 11.1612 18.4926 11.1612C18.2015 11.1612 17.9492 10.9089 17.9492 10.6178C17.9492 10.3267 18.2015 10.0745 18.4926 10.0745C18.803 10.0745 19.5404 10.3267 19.5404 10.6178Z" fill="#83BF4F"/>
<path d="M19.5413 11.6658C19.6772 11.6658 19.7936 11.918 19.7936 12.2091C19.7936 12.5002 19.6772 12.7525 19.5413 12.7525C19.4055 12.7525 19.2891 12.5002 19.2891 12.2091C19.2891 11.918 19.4055 11.6658 19.5413 11.6658Z" fill="#83BF4F"/>
<path d="M21.6937 11.6658C21.8295 11.6658 21.946 11.918 21.946 12.2091C21.946 12.5002 21.8295 12.7525 21.6937 12.7525C21.5578 12.7525 21.4414 12.5002 21.4414 12.2091C21.4414 11.918 21.5578 11.6658 21.6937 11.6658Z" fill="#83BF4F"/>
<path d="M22.7445 11.6658C22.8803 11.6658 22.9967 11.918 22.9967 12.2091C22.9967 12.5002 22.8803 12.7525 22.7445 12.7525C22.6086 12.7525 22.4922 12.5002 22.4922 12.2091C22.4922 11.918 22.6086 11.6658 22.7445 11.6658Z" fill="#83BF4F"/>
<path d="M23.3044 10.9284C23.3044 12.0733 22.3535 12.1315 21.2086 12.1315C20.0637 12.1315 19.0547 12.0345 19.0547 10.9284C19.0547 10.2297 20.0055 9.56994 21.2086 9.56994C22.3535 9.53113 23.3044 10.0745 23.3044 10.9284Z" fill="#83BF4F"/>
</svg>
