<svg width="30" height="31" viewBox="0 0 30 31" fill="none" xmlns="http://www.w3.org/2000/svg">
<path d="M2.3077 7.9563C0.853269 10.2641 0 12.9986 0 15.9464H29.9806C29.9806 12.9986 29.1273 10.2447 27.6729 7.9563H2.3077Z" fill="white"/>
<path d="M27.6924 23.9365C29.1469 21.6287 30.0001 18.8942 30.0001 15.9464H0.0195312C0.0195312 18.8942 0.872801 21.6481 2.32723 23.9365H27.6924Z" fill="#699635"/>
<path d="M2.30859 23.9365C4.24783 27.0395 7.3506 29.3861 10.9964 30.3751H18.986C22.6318 29.3667 25.6764 27.0201 27.6738 23.9365H2.30859Z" fill="#FFE62E"/>
<path d="M19.0056 1.49829H11.0159C7.37013 2.50675 4.32554 4.85337 2.32812 7.93692H27.6546C25.6959 4.85337 22.6513 2.50675 19.0056 1.49829Z" fill="#2A5F9E"/>
<path d="M19.0053 1.49832C17.7642 1.14924 16.4067 0.955322 15.0105 0.955322C13.6142 0.955322 12.2567 1.14924 11.0156 1.49832V30.3751C12.2567 30.7242 13.6142 30.9181 15.0105 30.9181C16.4067 30.9181 17.7642 30.7242 19.0053 30.3751V1.49832Z" fill="#F42F4C"/>
<path d="M8.00883 5.74546L8.95906 6.44362L8.61001 5.29941L9.50206 4.60125H8.3579L8.00883 3.45703L7.65978 4.60125H6.51562L7.40767 5.29941L7.05862 6.44362L8.00883 5.74546Z" fill="#FFE62E"/>
</svg>
