<svg width="30" height="31" viewBox="0 0 30 31" fill="none" xmlns="http://www.w3.org/2000/svg">
<path d="M0 15.0361C0 21.5953 4.19146 27.1454 9.99353 29.1831V0.88916C4.19146 2.94619 0 8.4963 0 15.0361Z" fill="#2A5F9E"/>
<path d="M30.0013 15.0361C30.0013 8.4769 25.8487 2.92679 20.0078 0.88916V29.1831C25.8487 27.1454 30.0013 21.5953 30.0013 15.0361Z" fill="#ED4C5C"/>
<path d="M9.99219 29.1829C11.5446 29.7263 13.2328 30.0368 14.9986 30.0368C16.7451 30.0368 18.4527 29.7457 20.0051 29.1829V0.889C18.4527 0.345633 16.7645 0.0351562 14.9986 0.0351562C13.2522 0.0351562 11.5446 0.326227 9.99219 0.889V29.1829Z" fill="#FFCE31"/>
</svg>
