<svg width="30" height="31" viewBox="0 0 30 31" fill="none" xmlns="http://www.w3.org/2000/svg">
<path d="M22.5 22.6427C26.6421 18.5004 26.6421 11.7843 22.5 7.64192C18.3579 3.49956 11.6421 3.49957 7.5 7.64193C3.35787 11.7843 3.35786 18.5004 7.49999 22.6427C11.6421 26.7851 18.3579 26.7851 22.5 22.6427Z" fill="#ED4C5C"/>
<path d="M11.4756 13.8627L14.3022 15.8387L13.2457 12.5866L16.0723 10.5419H12.5733L11.4756 7.3584L10.4191 10.5419H6.87891L9.70554 12.5866L8.64896 15.8387L11.4756 13.8627Z" fill="#FFE62E"/>
<path d="M16.1689 16.3052L15.3594 16.4836L16.1415 16.7992V17.6088L16.6766 17.005L17.4588 17.2932L17.006 16.6208L17.4999 15.9896L16.6904 16.168L16.1964 15.4956V16.3052H16.1689Z" fill="#FFE62E"/>
<path d="M17.3772 13.9038L16.7734 14.439L17.583 14.3704L17.9398 15.1525L18.077 14.3429L18.8865 14.2743L18.173 13.8489L18.3514 13.0393L17.7476 13.5745L17.0341 13.1491L17.3772 13.9038Z" fill="#FFE62E"/>
<path d="M17.583 11.1457L17.83 11.9553L18.077 11.1731H18.8865L18.2553 10.6791L18.5023 9.86953L17.83 10.3635L17.1988 9.82837L17.4458 10.638L16.7734 11.0908L17.583 11.1457Z" fill="#FFE62E"/>
<path d="M16.169 8.31899V9.1286L16.663 8.45621L17.4726 8.63459L16.9786 8.00337L17.4314 7.33098L16.6493 7.6466L16.1141 7.01538V7.82499L15.332 8.1406L16.169 8.31899Z" fill="#FFE62E"/>
</svg>
