<svg width="30" height="31" viewBox="0 0 30 31" fill="none" xmlns="http://www.w3.org/2000/svg">
<path d="M0 15.2529C0 23.5479 6.68605 30.2343 14.9806 30.2343C20.814 30.2343 25.9109 26.8427 28.3721 21.9393L1.60854 8.54712C0.562025 10.5627 0 12.8497 0 15.2529Z" fill="#2A5F9E"/>
<path d="M14.9813 0.271484C9.148 0.271484 4.05108 3.66312 1.58984 8.56648L28.4116 21.9587C29.4193 19.9624 30.0007 17.6561 30.0007 15.2723C29.9619 6.95787 23.2759 0.271484 14.9813 0.271484Z" fill="#699635"/>
<path d="M14.9797 20.854C18.0729 20.854 20.5804 18.3463 20.5804 15.2529C20.5804 12.1595 18.0729 9.65186 14.9797 9.65186C11.8864 9.65186 9.37891 12.1595 9.37891 15.2529C9.37891 18.3463 11.8864 20.854 14.9797 20.854Z" fill="#FFCE31"/>
<path d="M11.5513 12.7528C11.9583 13.2955 12.5009 14.1483 13.0048 13.9545C13.3537 13.9545 13.5474 14.0126 13.6056 14.2064C14.4583 14.3614 15.9118 14.0126 16.8032 12.811C16.8032 12.811 16.9002 12.811 16.8614 12.3652C16.8614 12.1714 17.1133 12.2102 17.1133 12.2683C17.1715 12.3652 17.1715 12.4234 17.2102 12.4234C17.3071 12.3652 17.4622 12.1326 17.6172 11.9776C17.6754 11.9195 17.6172 11.8226 17.6172 11.7257C17.6754 11.5706 17.8691 11.5706 17.8691 11.6675C17.9273 11.7256 17.9273 11.7644 17.9273 11.8226C18.0823 11.9195 18.4312 11.8226 18.4312 11.8226C18.5281 11.7644 18.625 11.7644 18.625 11.7644H18.78C18.7219 12.5203 18.935 12.559 18.935 12.9079C18.935 13.3536 18.78 13.4505 18.78 13.6056C18.8382 13.7994 19.4195 13.7994 19.2257 13.9545C19.0319 14.0514 19.2257 14.2452 18.935 14.3033C18.0823 14.7491 17.9273 15.0979 17.9273 15.0979L17.6753 15.5049C17.5203 15.7569 17.3847 15.6018 17.2684 15.7569C17.2102 15.9119 17.1715 16.2995 17.2684 16.4546C17.3265 16.7065 17.2684 16.8616 17.2102 17.0942C17.1521 17.6368 16.9583 17.7337 16.9195 17.8888C16.8226 18.0826 16.9195 19.0322 16.8614 19.0322C16.2219 19.0322 15.7567 18.9353 15.5048 18.8772C15.7567 17.8306 15.6599 16.881 15.6599 16.7841C15.6017 16.0282 14.5165 16.2414 14.3614 16.1445C14.2064 16.0863 14.1676 15.9894 14.1095 15.9507C13.9544 15.9507 13.9157 15.8925 13.7606 15.8925C13.7025 15.9507 13.7025 15.9894 13.5668 16.0476C13.1211 16.1057 12.9661 15.6987 12.9661 15.6987C12.9661 15.5437 12.0164 15.7569 11.4738 15.6018C11.28 15.6987 11.1831 16.1057 10.9699 16.1057C10.9699 16.2026 10.6792 16.0088 10.6211 15.9119C10.6211 15.6212 10.9118 15.4662 10.9118 15.4662C11.1637 15.3111 11.2606 15.2723 11.4157 15.1754C11.4738 14.8847 11.4738 14.6715 11.5707 14.4777C11.6676 14.3227 11.8226 14.3808 11.9195 14.3227C12.0164 14.2646 12.0746 13.78 11.9777 13.6831L11.5319 13.2761C11.1831 12.966 11.4932 12.7141 11.5513 12.7528Z" fill="#699635"/>
<path d="M29.2251 12.6171C29.167 12.4621 28.9344 12.4233 28.7212 12.2683C28.4693 12.2101 28.3143 12.2101 28.1205 12.3264C28.0623 12.3846 28.0235 12.3846 27.9654 12.4233L27.7135 12.3652C27.1127 12.3652 27.0739 10.4659 26.7639 9.71C26.6088 9.2061 25.3104 8.15952 24.3607 7.51995C24.1669 7.3649 24.0119 7.46182 24.07 7.67501C24.1669 7.86882 24.2638 8.02387 24.4189 8.21768L24.5739 8.50839L24.6321 8.76033C24.9228 9.05104 24.9809 9.303 24.9809 9.303C25.1747 9.59372 25.3297 9.80691 25.6204 10.0589C25.9693 10.2139 25.7755 10.8535 25.8142 11.2023C25.8142 11.3961 25.6592 11.3961 25.5623 11.3961C24.4577 10.5434 23.4693 10.6015 22.5585 10.3883C22.2096 10.3883 22.2096 10.5434 22.3647 10.6403C23.0042 11.2411 23.6631 11.6481 24.4576 11.997C24.6127 12.0551 24.7096 12.152 24.8646 12.1908C25.0197 12.2877 25.1553 12.3846 25.3104 12.5396C25.6592 12.7334 25.7173 12.9466 25.7173 12.9466C25.7755 13.3536 25.5623 13.7025 25.5235 13.8381C25.4266 14.2451 23.9732 15.2335 21.4344 15.7374C21.3763 15.7374 21.0856 15.7956 21.4344 15.8925C24.0894 15.6987 26.1825 14.3033 26.2794 14.2451C26.6863 13.9932 27.8298 13.6443 28.0817 13.3924C28.3724 13.3342 28.6825 13.2955 28.6825 12.9854C28.7794 12.9272 28.9344 12.9272 29.0313 12.7334C29.2639 12.714 29.2251 12.6171 29.2251 12.6171Z" fill="#FFCE31"/>
<path d="M5.09576 13.3536L4.68876 13.0048L4.33996 13.3536L4.39807 12.811L3.85547 12.7528L4.30117 12.4621L4.04927 12.0163L4.55311 12.1714L4.74691 11.6675L4.90196 12.1714L5.40586 12.0163L5.15391 12.4621L5.59965 12.7528L5.05701 12.8497L5.09576 13.3536Z" fill="white"/>
<path d="M6.45261 17.6561L6.04561 17.4041L5.63867 17.6948L5.79371 17.1909L5.38672 16.939H5.89061L6.04561 16.4351L6.20066 16.8808H6.70456L6.29756 17.1715L6.45261 17.6561Z" fill="white"/>
<path d="M5.19328 21.3966L4.78629 21.0477L4.37934 21.3966L4.43749 20.8539L3.93359 20.7958L4.34059 20.5051L4.08864 20.0593L4.59249 20.2143L4.78629 19.7104L4.98009 20.2143L5.48398 20.0593L5.23203 20.5051L5.63903 20.7958L5.13513 20.8539L5.19328 21.3966Z" fill="white"/>
<path d="M1.74406 17.0553L1.33712 16.7064L0.98827 17.0553V16.5126L0.484375 16.4545L0.930121 16.1638L0.678173 15.718L1.18207 15.8731L1.37587 15.3691L1.53091 15.8731L2.03476 15.718L1.78281 16.1638L2.22856 16.4545L1.68592 16.5126L1.74406 17.0553Z" fill="white"/>
<path d="M8.35344 15.912L7.94644 15.5631L7.5976 15.912V15.3693L7.09375 15.3112L7.5395 15.0204L7.28755 14.5747L7.7914 14.7297L7.94644 14.2258L8.14024 14.7297L8.64414 14.5747L8.39219 15.0204L8.83794 15.3112L8.29529 15.3693L8.35344 15.912Z" fill="white"/>
</svg>
