<svg width="30" height="31" viewBox="0 0 30 31" fill="none" xmlns="http://www.w3.org/2000/svg">
<path d="M0 15.2939C0 21.8532 4.19147 27.4033 9.99354 29.4409V1.14697C4.19147 3.20401 0 8.75412 0 15.2939Z" fill="#428BC1"/>
<path d="M30.0014 15.2939C30.0014 8.73471 25.8487 3.1846 20.0078 1.14697V29.4409C25.8487 27.4033 30.0014 21.8532 30.0014 15.2939Z" fill="#ED4C5C"/>
<path d="M9.99219 29.4407C11.5446 29.9841 13.2328 30.2946 14.9987 30.2946C16.7451 30.2946 18.4527 30.0035 20.0051 29.4407V1.14681C18.4527 0.603445 16.7645 0.292969 14.9987 0.292969C13.2522 0.292969 11.5446 0.584039 9.99219 1.14681V29.4407Z" fill="#F9F9F9"/>
</svg>
