<svg width="30" height="31" viewBox="0 0 30 31" fill="none" xmlns="http://www.w3.org/2000/svg">
<path d="M15 30.3532C23.2843 30.3532 30 23.6371 30 15.3524C30 7.06764 23.2843 0.351562 15 0.351562C6.7157 0.351562 0 7.06764 0 15.3524C0 23.6371 6.7157 30.3532 15 30.3532Z" fill="#699635"/>
<path d="M16.8028 19.311C14.61 19.311 12.8442 17.5063 12.8442 15.3522C12.8442 13.1593 14.6489 11.3934 16.8028 11.3934C17.4432 11.3934 18.0447 11.5487 18.5492 11.8397C17.6954 11.0441 16.5506 10.5396 15.3086 10.5396C12.6502 10.5396 10.5156 12.6936 10.5156 15.3328C10.5156 17.972 12.6696 20.1261 15.3086 20.1261C16.5506 20.1261 17.7148 19.6215 18.5492 18.8259C18.0059 19.1558 17.4044 19.311 16.8028 19.311Z" fill="#FFCE31"/>
<path d="M10.0035 11.9222C10.4018 9.46782 8.73509 7.15522 6.28081 6.75688C3.82653 6.35854 1.51406 8.02532 1.11574 10.4797C0.717427 12.9341 2.38411 15.2467 4.83839 15.6451C7.29267 16.0434 9.60517 14.3766 10.0035 11.9222Z" fill="#FFCE31"/>
<path d="M5.25781 14.5957H6.36388C6.36388 14.5957 6.4221 14.4986 6.36388 14.4404C6.30567 14.3822 6.07285 14.3822 6.11166 14.1881C6.2669 13.8388 6.26686 13.9359 6.36388 13.0432C6.46091 12.1505 6.46091 10.7339 6.46091 10.7339H6.30571C6.30571 10.7339 6.36391 11.1802 6.24748 11.743C6.15046 12.2864 6.15046 12.3446 6.05343 12.7909C5.95641 13.2373 5.95641 13.2372 5.85938 13.4895C5.76236 13.7418 5.76235 13.7418 5.60711 13.9941C5.45187 14.2464 5.51009 14.1493 5.41306 14.2852C5.35485 14.3434 5.31604 14.3434 5.31604 14.3822C5.25782 14.4986 5.25781 14.5957 5.25781 14.5957Z" fill="#802000"/>
<path d="M6.09266 7.95853C6.09266 8.15259 6.09266 8.36605 5.99564 8.56011C5.93742 8.75417 5.84039 8.96764 5.84039 9.20051C5.74337 9.25873 5.58812 8.94824 5.49109 9.10348C5.58812 9.35576 5.78218 9.54981 5.89861 9.74387C5.89861 9.80208 6.09266 9.99614 5.99564 10.035C5.70456 9.93793 5.64633 9.58863 5.49109 9.39457C5.29704 9.04527 4.88955 8.79298 4.48204 8.75417C4.3268 8.75417 3.84167 8.69596 3.9387 9.00645C4.13275 9.1617 4.38502 9.2005 4.57907 9.35575C4.73431 9.35575 4.98659 9.60803 4.98659 9.70506C4.73433 9.60803 4.63729 9.45278 4.34622 9.35575C3.99693 9.16169 3.49242 9.25872 3.29837 9.64684C3.24016 9.74387 3.20131 10.0544 3.35655 10.0544C3.51179 9.86032 3.70585 9.60802 3.99692 9.64684C4.24919 9.64684 3.74465 10.0932 3.9387 9.99615C3.99691 9.93794 4.13275 9.89911 4.22977 9.8409C4.3268 9.8409 4.38501 9.89912 4.42382 9.89912C4.57906 9.89912 4.61788 9.99615 4.57907 9.99615C4.57907 10.0544 4.52085 9.99616 4.38502 10.0544C4.3268 10.0544 4.28799 10.1514 4.19097 10.1514C4.09395 10.1514 3.9387 10.2096 3.84167 10.1514C3.58941 10.0544 3.24015 10.0544 3.14312 10.3455C3.14312 10.5007 3.04609 10.3455 2.98787 10.4037C2.92966 10.5589 2.92965 10.6948 2.7356 10.656C2.58036 10.8112 2.48336 10.9082 2.32812 11.0053C2.42515 11.1993 2.7744 10.8112 2.7744 10.9471C2.61916 11.1411 2.87143 11.1993 2.96845 11.0441C3.1625 10.85 3.37597 10.5977 3.66705 10.7918C3.82229 10.8888 3.8611 10.7336 3.95812 10.7336C4.01634 10.8888 4.11336 10.7336 4.15217 10.6754C4.24919 10.6754 4.24919 10.8306 4.34622 10.7336C4.59848 10.5783 4.94775 10.6754 5.20002 10.5395C5.45228 10.4425 5.25827 10.6366 5.14184 10.7336C5.04482 10.9859 5.14184 11.277 4.85077 11.4322C4.75374 11.7233 4.94779 12.0726 4.75374 12.2861C4.69553 12.4413 5.04479 12.3831 5.16122 12.4413C5.31646 12.4413 5.16123 12.0338 5.31647 11.995C5.51052 12.1502 5.51052 11.7427 5.47171 11.6457C5.47171 11.3934 5.52994 11.1023 5.62696 10.85C5.7822 10.5589 5.87923 10.947 5.72399 11.1023C5.62696 11.3546 5.52994 11.7039 5.72399 11.9562C5.7822 11.9562 5.82101 12.1114 5.91804 12.1502C6.01506 12.189 6.11209 12.1502 6.11209 11.995C6.20911 11.5875 6.1703 11.1993 6.30614 10.7918C6.40316 10.6948 6.5584 10.7918 6.59721 10.8888C6.79126 11.0829 6.94646 11.3934 7.14051 11.5874C7.33456 11.6845 7.54803 11.8397 7.64506 12.0338C7.64506 12.189 8.1496 12.2278 7.99436 12.0338C7.83912 11.8397 7.93614 11.6845 8.09138 11.5292C8.1496 11.5292 8.1496 11.4322 8.09138 11.471C7.99436 11.471 7.99437 11.2769 8.14961 11.374C8.34365 11.4322 8.14961 11.2187 8.05258 11.2187C7.85853 11.1217 7.64506 10.9665 7.54803 10.7724C7.8003 10.7724 8.05254 10.9276 8.30481 10.8306C8.49886 10.7336 8.71232 10.8306 8.75113 11.0247C8.90637 11.0247 8.84815 10.8306 8.75113 10.7724C8.84815 10.7142 8.94519 10.6171 8.80935 10.5201C8.75114 10.4231 8.90638 10.2678 8.71233 10.2678C8.71233 10.1126 8.65411 9.97674 8.46006 9.91852C8.30482 9.76328 7.76147 10.1126 7.81968 9.82149C7.76147 9.62743 8.01373 9.82149 8.11076 9.72446C8.16897 9.53041 7.76147 9.56922 7.91671 9.43338C8.01373 9.37516 8.42124 9.27813 8.11076 9.23932C7.95552 9.29753 7.81972 9.23933 7.66448 9.18111C7.56746 9.37517 7.21815 9.08407 7.25696 9.43338C7.19874 9.58862 6.90766 9.93793 6.81064 9.62743C6.86885 9.43338 7.25695 9.33636 7.10171 9.08408C7.10171 8.89002 6.94646 9.1423 6.84944 9.08408C6.79122 8.98705 6.94646 8.83179 7.04349 8.83179C7.23754 8.98704 7.23755 8.63773 7.45101 8.67654C7.60625 8.61832 7.39279 8.57951 7.35398 8.57951C7.4122 8.48248 7.60626 8.42427 7.41221 8.32724C7.21816 8.172 7.12112 8.48248 6.96589 8.48248C6.81065 8.32723 7.12112 8.2302 7.15993 8.19139C7.15993 8.13317 7.0047 8.1914 7.06291 8.13318C7.12112 8.03615 7.4122 8.03615 7.25696 7.93912C7.06291 7.88091 6.81064 7.88089 6.61659 7.99733C6.51956 8.05555 6.46134 8.28842 6.36431 8.28842C6.20907 8.21079 6.30612 7.99734 6.09266 7.95853ZM7.10171 10.656C7.25695 10.5977 7.1017 10.9082 7.04349 10.9082C7.04349 10.8112 6.84944 10.8112 6.94646 10.753C7.00468 10.6948 7.0435 10.6948 7.10171 10.656Z" fill="#699635"/>
<path d="M23.0927 20.8052L23.3449 21.6008L24.1406 21.3098L23.636 22.0084L24.3928 22.4547L23.539 22.5129L23.636 23.3668L23.0927 22.7264L22.4911 23.3668L22.5882 22.5129L21.7344 22.4547L22.4911 22.0084L21.9866 21.3098L22.7822 21.6008L23.0927 20.8052Z" fill="#FFCE31"/>
<path d="M18.3587 13.3535L18.6498 14.1492L19.4066 13.8581L18.9603 14.5567L19.7171 15.003L18.8633 15.0612L18.9603 15.9151L18.3587 15.3135L17.8154 15.9151L17.9124 15.0612L17.0586 15.003L17.8154 14.5567L17.3109 13.8581L18.1064 14.1492L18.3587 13.3535Z" fill="#FFCE31"/>
<path d="M23.0927 8.25L23.3449 9.04564L24.1406 8.75455L23.636 9.45316L24.3928 9.89951L23.539 9.95774L23.636 10.8116L23.0927 10.21L22.4911 10.8116L22.5882 9.95774L21.7344 9.89951L22.4911 9.45316L21.9866 8.75455L22.7822 9.04564L23.0927 8.25Z" fill="#FFCE31"/>
<path d="M27.2454 12.1118L27.4977 12.9075L28.2933 12.6164L27.847 13.315L28.5456 13.7225L27.6918 13.8195L27.847 14.6734L27.2454 14.033L26.6439 14.6734L26.7991 13.8195L25.9453 13.7225L26.6439 13.315L26.1976 12.6164L26.9932 12.9075L27.2454 12.1118Z" fill="#FFCE31"/>
<path d="M24.956 15.8569L25.15 16.3615L25.6934 16.4197L25.2859 16.769L25.3829 17.2736L24.9366 17.0213L24.4903 17.2736L24.6455 16.769L24.1992 16.4197L24.7426 16.3615L24.956 15.8569Z" fill="#FFCE31"/>
</svg>
