<svg width="30" height="31" viewBox="0 0 30 31" fill="none" xmlns="http://www.w3.org/2000/svg">
<path d="M4.5 23.3452V26.0409C7.19554 28.6978 10.8995 30.3462 14.9913 30.3462C20.3436 30.3462 25.0365 27.5536 27.6933 23.3452H4.5Z" fill="#428BC1"/>
<path d="M4.5 15.355V23.3451H27.6933C29.1477 21.0373 30.001 18.3028 30.001 15.355H4.5Z" fill="#ED4C5C"/>
<path d="M4.49983 15.3548H29.9814C29.9814 12.407 29.1282 9.65317 27.6737 7.36475H4.48047V15.3548H4.49983Z" fill="white"/>
<path d="M4.5 7.36479H27.6933C25.0365 3.17581 20.3436 0.36377 14.9913 0.36377C10.8995 0.36377 7.19554 2.0122 4.5 4.6691V7.36479Z" fill="#FFCE31"/>
<path d="M4.49902 4.66895C1.7453 7.36463 0 11.1657 0 15.3547C0 19.5437 1.7453 23.3448 4.49902 26.0405L15.1842 15.3547L4.49902 4.66895Z" fill="#75A843"/>
<path d="M8.00773 20.2616C5.70004 19.8155 4.01288 17.7598 4.01288 15.355C4.01288 12.9503 5.71943 10.914 8.00773 10.4485C7.71685 10.3903 7.36779 10.3516 6.99934 10.3516C4.24562 10.3516 1.99609 12.6012 1.99609 15.355C1.99609 18.1089 4.24562 20.3586 6.99934 20.3586C7.3484 20.3586 7.69745 20.3004 8.00773 20.2616Z" fill="#F9F9F9"/>
<path d="M7.40721 17.3524L8.00839 16.9063L8.60958 17.3524L8.41565 16.596L9.01679 16.0918H8.2605L8.00839 15.3354L7.75628 16.0918H7L7.60114 16.596L7.40721 17.3524Z" fill="#F9F9F9"/>
<path d="M7.40721 19.3499L8.00839 18.9039L8.60958 19.3499L8.41565 18.5936L9.01679 18.0893H8.2605L8.00839 17.333L7.75628 18.0893H7L7.60114 18.5936L7.40721 19.3499Z" fill="#F9F9F9"/>
<path d="M7.40721 13.3573L8.00839 12.9112L8.60958 13.3573L8.41565 12.6009L9.01679 12.0967H8.2605L8.00839 11.3403L7.75628 12.0967H7L7.60114 12.6009L7.40721 13.3573Z" fill="#F9F9F9"/>
<path d="M7.40721 15.3548L8.00839 14.9088L8.60958 15.3548L8.41565 14.5985L9.01679 14.0942H8.2605L8.00839 13.3379L7.75628 14.0942H7L7.60114 14.5985L7.40721 15.3548Z" fill="#F9F9F9"/>
</svg>
