<svg width="30" height="31" viewBox="0 0 30 31" fill="none" xmlns="http://www.w3.org/2000/svg">
<path d="M4.38761 4.80334C0.0378051 9.15338 -1.06903 15.5037 1.0282 20.9218L20.4858 1.46314C15.1068 -0.653617 8.75684 0.453304 4.38761 4.80334Z" fill="#42ADE2"/>
<path d="M25.6137 26.0101C29.9635 21.66 31.0704 15.3097 28.9731 9.8916L9.49609 29.3697C14.9139 31.467 21.2639 30.3795 25.6137 26.0101Z" fill="#42ADE2"/>
<path d="M25.6129 4.80334C24.6031 3.79351 23.5545 2.9973 22.4088 2.35645L1.94141 22.8249C2.58223 23.9707 3.39779 25.0776 4.38814 26.0292C5.39792 27.039 6.44654 27.8352 7.59224 28.4761L28.0597 8.00761C27.4188 6.84242 26.6227 5.75491 25.6129 4.80334Z" fill="#C94747"/>
<path d="M7.58984 28.476C7.88113 28.6313 8.19185 28.8255 8.54139 28.9809C8.83267 29.1363 9.1822 29.2722 9.55116 29.4276L28.9699 9.91064C28.8146 9.56108 28.7175 9.26977 28.5233 8.90079C28.3679 8.6095 28.232 8.29878 28.0184 7.94922L7.58984 28.476Z" fill="#FFCE31"/>
<path d="M21.4559 1.85145C21.1064 1.69609 20.8151 1.56014 20.4461 1.40479L1.02734 20.9217C1.18269 21.2713 1.27975 21.5625 1.47394 21.9315C1.62929 22.2228 1.76524 22.5335 1.97885 22.8831L22.388 2.37578C22.1161 2.14274 21.8054 2.00681 21.4559 1.85145Z" fill="#FFCE31"/>
<path d="M7.99819 8.99788L9.84298 10.3961L9.14388 8.08516L10.9887 6.62867H8.67785L7.97875 4.37598L7.27971 6.62867H4.98828L6.83307 8.08516L6.13397 10.3961L7.99819 8.99788Z" fill="#FFCE31"/>
</svg>
