<svg width="30" height="31" viewBox="0 0 30 31" fill="none" xmlns="http://www.w3.org/2000/svg">
<path d="M27.4978 7.17773H23.2481L6.75391 23.6728V27.9227C9.1019 29.4752 11.9544 30.4261 15.001 30.4261C23.3063 30.4261 30.001 23.731 30.001 15.4253C30.001 12.3785 29.1084 9.52586 27.4978 7.17773Z" fill="#ED4C5C"/>
<path d="M15 0.424316C6.69471 0.424316 0 7.11936 0 15.4251C0 18.4719 0.892608 21.3245 2.50322 23.6727H6.75293L23.3053 7.11938V2.92767C20.8991 1.31697 18.0466 0.424316 15 0.424316Z" fill="#75A843"/>
<path d="M2.50391 23.6727C3.04724 24.5266 3.70702 25.264 4.4056 26.0208C5.10418 26.7195 5.8998 27.3793 6.75362 27.9226L27.4975 7.17765C26.3914 5.46992 24.9554 4.03387 23.2478 2.92773L2.50391 23.6727Z" fill="#FFE62E"/>
</svg>
