<svg width="30" height="31" viewBox="0 0 30 31" fill="none" xmlns="http://www.w3.org/2000/svg">
<path d="M15 0.379883V15.3807H0C0 23.6864 6.6947 30.3815 15 30.3815C23.3053 30.3815 30 23.6864 30 15.3807C30 7.07492 23.3053 0.379883 15 0.379883Z" fill="#2A5F9E"/>
<path d="M5.00781 5.38672H15.5059V15.8853H5.00781V5.38672Z" fill="#2A5F9E"/>
<path d="M8.46063 3.42676V6.37645H4.8125L12.0117 15.3808H15.0195V11.6355L8.46063 3.42676Z" fill="white"/>
<path d="M4.50204 8.8409H1.5137C0.562859 10.8397 0.0195312 13.0326 0.0195312 15.4001H6.01563V6.35693H4.52146V8.8409" fill="white"/>
<path d="M15.0006 12.9358L8.49995 4.88232H5.49219L13.9915 15.3809H15.0006V12.9358Z" fill="#ED4C5C"/>
<path d="M8.45863 1.87413V4.88205H4.5V6.3763H14.9981V0.379883C12.6501 0.379883 10.4573 0.92324 8.45863 1.87413Z" fill="white"/>
<path d="M15.0019 1.87402H8.44306C5.4353 3.32947 2.95146 5.83284 1.49609 8.82136V15.3806H4.50385V4.88194H15.0019V1.87402Z" fill="#ED4C5C"/>
<path d="M25.0129 9.92773L24.9158 10.8204L25.7696 11.2279L24.877 11.422L24.78 12.3147L24.2755 11.519L23.3828 11.7131L24.0232 11.0145L23.5186 10.2188L24.3725 10.6263L25.0129 9.92773Z" fill="white"/>
<path d="M27.2046 11.5382L26.7583 12.3338L27.3598 13.0324L26.4672 12.8383L26.0209 13.634L25.9239 12.7413L25.0312 12.5473L25.8851 12.1397L25.7881 11.2471L26.3896 11.9457L27.2046 11.5382Z" fill="white"/>
<path d="M28.6014 13.9254L27.8446 14.4688L28.1356 15.3226L27.3789 14.8181L26.6221 15.3226L26.8743 14.4688L26.1758 13.9254H27.0684L27.3595 13.0327L27.6117 13.9254H28.6014Z" fill="white"/>
<path d="M28.9142 16.6811L28.0216 16.8751L27.9245 17.7678L27.42 16.9722L26.5273 17.1662L27.1677 16.4676L26.7214 15.6719L27.517 16.0795L28.1574 15.3809L28.0604 16.2735L28.9142 16.6811Z" fill="white"/>
<path d="M28.0587 19.2814L27.166 19.0874L26.6615 19.883L26.5645 18.9903L25.6719 18.7963L26.5257 18.447L26.4286 17.4961L27.069 18.1947L27.8646 17.8454L27.4183 18.641L28.0587 19.2814Z" fill="white"/>
<path d="M26.2176 21.3383L25.4608 20.7949L24.704 21.3383L24.9951 20.4844L24.2383 19.941H25.1309L25.422 19.0483L25.6742 19.941H26.625L25.8683 20.4844L26.2176 21.3383Z" fill="white"/>
<path d="M23.6554 22.4831L23.2091 21.6875L22.3164 21.8815L22.918 21.1829L22.4717 20.3873L23.3255 20.7366L23.927 20.0962L23.83 20.9889L24.6838 21.3964L23.7912 21.5516L23.6554 22.4831Z" fill="white"/>
<path d="M20.9194 22.4835L20.8223 21.5326L19.9297 21.3773L20.7835 20.9698L20.6865 20.0771L21.288 20.7175L22.1419 20.3682L21.6956 21.1639L22.2971 21.8625L21.4045 21.6684L20.9194 22.4835Z" fill="white"/>
<path d="M18.4151 21.3383L18.6673 20.4844L17.9688 19.941H18.8613L19.1524 19.0483L19.4047 19.941H20.3556L19.5987 20.4844L19.8898 21.3383L19.133 20.7949L18.4151 21.3383Z" fill="white"/>
<path d="M16.5508 19.2814L17.1524 18.641L16.706 17.8454L17.5598 18.1947L18.1614 17.4961L18.0644 18.447L18.9182 18.7963L18.0256 18.9903L17.9285 19.883L17.4822 19.0874L16.5508 19.2814Z" fill="white"/>
<path d="M15.7188 16.6811L16.5726 16.2735L16.4756 15.3809L17.0771 16.0795L17.9309 15.6719L17.4846 16.4676L18.0861 17.1662L17.1935 16.9722L16.7472 17.7678L16.6502 16.8751L15.7188 16.6811Z" fill="white"/>
<path d="M16.0078 13.9254H16.9005L17.1915 13.0327L17.4438 13.9254H18.3946L17.6379 14.4688L17.9289 15.3226L17.1721 14.8181L16.4153 15.3226L16.7064 14.4688L16.0078 13.9254Z" fill="white"/>
<path d="M17.3664 11.5382L18.2202 11.9457L18.8218 11.2471L18.7247 12.1397L19.5786 12.5473L18.6859 12.7413L18.5889 13.634L18.1426 12.8383L17.25 13.0324L17.8515 12.3338L17.3664 11.5382Z" fill="white"/>
<path d="M19.6203 9.92773L20.2218 10.6263L21.0757 10.2188L20.6294 11.0145L21.2309 11.7131L20.3383 11.519L19.892 12.3147L19.7949 11.422L18.9023 11.2279L19.7561 10.8204L19.6203 9.92773Z" fill="white"/>
<path d="M22.3161 9.32617L22.5684 10.2188H23.5192L22.7624 10.7622L23.0535 11.6161L22.2967 11.0727L21.5399 11.6161L21.831 10.7622L21.0742 10.2188H21.9668L22.3161 9.32617Z" fill="white"/>
</svg>
