<svg width="30" height="31" viewBox="0 0 30 31" fill="none" xmlns="http://www.w3.org/2000/svg">
<path d="M25.2241 4.36545C22.5251 1.86046 18.9717 0.365234 15.0105 0.365234C11.0493 0.365234 7.49591 1.86046 4.79688 4.36545H25.2241Z" fill="#2A5F9E"/>
<path d="M4.79688 26.3862C7.49591 28.8912 11.0493 30.3864 15.0105 30.3864C18.9717 30.3864 22.5251 28.8912 25.2241 26.3862H4.79688Z" fill="#2A5F9E"/>
<path d="M0 15.3758C0 17.5313 0.446584 19.5314 1.2427 21.3762H28.7573C29.5534 19.5314 30 17.5313 30 15.3758C30 13.2204 29.5534 11.2203 28.7573 9.37549H1.2427C0.446584 11.2203 0 13.2204 0 15.3758Z" fill="#C94747"/>
<path d="M4.79536 26.386H25.1643C26.6595 24.9878 27.9217 23.279 28.7178 21.376H1.20312C2.09633 23.279 3.30022 24.9878 4.79536 26.386Z" fill="#F9F9F9"/>
<path d="M25.2229 4.36523H4.7956C3.30045 5.76337 2.03831 7.47219 1.24219 9.37521H28.7568C27.9218 7.47219 26.718 5.76337 25.2229 4.36523Z" fill="#F9F9F9"/>
</svg>
