<svg width="30" height="31" viewBox="0 0 30 31" fill="none" xmlns="http://www.w3.org/2000/svg">
<path d="M0 15.4707C0 22.0299 4.19146 27.58 9.99352 29.6176V1.32373C4.19146 3.38076 0 8.93086 0 15.4707Z" fill="#F2B200"/>
<path d="M30.0013 15.4707C30.0013 8.91146 25.8487 3.36135 20.0078 1.32373V29.6176C25.8487 27.58 30.0013 22.0299 30.0013 15.4707Z" fill="#83BF4F"/>
<path d="M9.99219 29.6174C11.5446 30.1608 13.2329 30.4713 14.9987 30.4713C16.7452 30.4713 18.4527 30.1802 20.0051 29.6174V1.32357C18.4527 0.780203 16.7646 0.469727 14.9987 0.469727C13.2523 0.469727 11.5446 0.760797 9.99219 1.32357V29.6174Z" fill="#F9F9F9"/>
</svg>
