<svg width="30" height="31" viewBox="0 0 30 31" fill="none" xmlns="http://www.w3.org/2000/svg">
<path d="M15.0017 0.442383C8.44286 0.442383 2.89298 4.63407 0.855469 10.4364H29.1479C27.1104 4.65347 21.5606 0.442383 15.0017 0.442383Z" fill="#ED4C5C"/>
<path d="M15.0017 30.4443C21.5606 30.4443 27.1104 26.2914 29.1479 20.4502H0.855469C2.91239 26.2914 8.46227 30.4443 15.0017 30.4443Z" fill="#428BC1"/>
<path d="M0.853797 10.4365C0.31046 11.989 0 13.6773 0 15.4432C0 17.1898 0.291055 18.8975 0.853797 20.45H29.1462C29.6895 18.8975 30 17.2092 30 15.4432C30 13.6967 29.7089 11.989 29.1462 10.4365H0.853797Z" fill="#F9F9F9"/>
<path d="M20.4518 12.0468L21.7519 9.03888L20.7428 7.4476L19.0934 8.04918L17.9485 6.69076L16.3962 7.58343L14.9991 6.43848L13.6019 7.58343L12.0495 6.69076L10.9046 8.04918L9.25519 7.4476L8.24609 9.0971L9.54626 12.105C11.1957 11.3482 13.0392 10.9601 14.9991 10.9601C16.959 10.8436 18.8023 11.29 20.4518 12.0468Z" fill="white"/>
<path d="M16.3573 7.69988L14.999 6.59375L13.6406 7.69988L13.8929 10.8048C14.2421 10.7466 14.6497 10.7466 14.999 10.7466C15.3483 10.7466 15.7557 10.7466 16.105 10.8048L16.3573 7.69988Z" fill="#428BC1"/>
<path d="M14.9984 24.4476C18.1032 24.4476 20.6452 21.9055 20.6452 18.8005V12.1055H9.35156V18.8005C9.35156 21.9055 11.913 24.4476 14.9984 24.4476Z" fill="#ED4C5C"/>
<path d="M14.999 24.3503C18.0456 24.3503 20.5488 21.8469 20.5488 18.8002V12.2021H9.44922V18.8002C9.44922 21.8469 11.9525 24.3503 14.999 24.3503Z" fill="white"/>
<path d="M11.8179 12.3965H9.66406V14.7446H11.8179V12.3965Z" fill="#ED4C5C"/>
<path d="M11.8164 17.0923H13.9704V14.7441H11.8164V17.0923Z" fill="#ED4C5C"/>
<path d="M9.66406 18.8005C9.66406 18.9946 9.66402 19.208 9.72224 19.4409H11.8179V17.0928H9.66406V18.8005Z" fill="#ED4C5C"/>
<path d="M16.068 17.0928H13.9141V19.4409H16.068V17.0928Z" fill="#ED4C5C"/>
<path d="M16.0664 21.7886H18.2203V19.4404H16.0664V21.7886Z" fill="#ED4C5C"/>
<path d="M18.2031 23.0502C18.6494 22.7009 19.0957 22.2546 19.4062 21.75H18.2031V23.0502Z" fill="#ED4C5C"/>
<path d="M11.8164 21.7886H13.9704V19.4404H11.8164V21.7886Z" fill="#ED4C5C"/>
<path d="M10.6133 21.7891C10.9626 22.2936 11.37 22.6817 11.8163 23.0893V21.7891H10.6133Z" fill="#ED4C5C"/>
<path d="M15.3499 24.0981C15.6022 24.0981 15.7962 24.0399 16.0485 24.0011V21.75H13.8945V24.0011C14.1468 24.0593 14.3409 24.0981 14.5931 24.0981C14.8648 24.1369 15.117 24.1369 15.3499 24.0981Z" fill="#ED4C5C"/>
<path d="M20.3184 19.4409C20.3184 19.2468 20.3766 19.0334 20.3766 18.8005V17.0928H18.2227V19.4409H20.3184Z" fill="#ED4C5C"/>
<path d="M16.0664 17.0923H18.2203V14.7441H16.0664V17.0923Z" fill="#ED4C5C"/>
<path d="M16.068 12.3965H13.9141V14.7446H16.068V12.3965Z" fill="#ED4C5C"/>
<path d="M20.318 14.7446V12.3965H18.1641V14.7446H20.318Z" fill="#ED4C5C"/>
<path d="M10.9635 8.1465L9.3141 7.54492L8.36328 9.03917L8.71253 9.83481L9.60518 11.8919C10.2649 11.6008 10.9636 11.3485 11.701 11.1932L10.9635 8.1465Z" fill="#428BC1"/>
<path d="M10.8652 9.64062C10.9234 9.73765 10.9622 9.89292 10.9622 10.0482C10.9622 10.4945 10.6129 10.8438 10.1666 10.8438C9.75912 10.8438 9.46812 10.5527 9.37109 10.2034C9.52633 10.4557 9.77852 10.6109 10.0696 10.6109C10.5159 10.6109 10.8652 10.2616 10.8652 9.81528V9.64062Z" fill="white"/>
<path d="M10.1116 8.49634V8.55454L10.0534 8.84563L10.3057 9.00089V9.05909H10.2475L9.99516 9.15612L9.93698 9.40841V9.46663L9.87871 9.40841L9.68466 9.25315L9.39359 9.35018V9.29198L9.45186 9.03969L9.25781 8.84563V8.78743L9.54889 8.6904L9.60706 8.43811L9.80111 8.59337L10.0922 8.53514V8.49634H10.1116Z" fill="#FFE62E"/>
<path d="M13.6621 7.70052L12.1097 6.84668L10.9648 8.14687L11.7216 11.1548C12.4202 10.9607 13.177 10.8637 13.9144 10.8055L13.6621 7.70052Z" fill="#2A5F9E"/>
<path d="M11.5065 10.3975C12.2633 10.2034 13.0007 10.1064 13.8157 9.98997L13.7574 9.19434C12.9036 9.25255 12.1081 9.38839 11.3125 9.60186L11.5065 10.3975Z" fill="#ED4C5C"/>
<path d="M11.1588 8.90338C12.0126 8.70932 12.8664 8.55406 13.7008 8.45703L13.6427 7.7002C12.75 7.79723 11.8379 7.95248 10.9453 8.14654L11.1588 8.90338Z" fill="#ED4C5C"/>
<path d="M15.0011 9.09766C14.904 9.09766 14.7487 9.44696 14.5547 9.19469C14.5547 9.19469 14.71 9.38875 14.71 9.48578L14.5547 9.42755C14.5547 10.4755 15.5055 10.4367 15.5055 9.42755L15.3503 9.48578C15.3503 9.42756 15.5055 9.19469 15.5055 9.19469C15.2532 9.44696 15.1563 9.13647 15.0011 9.09766Z" fill="#FFE62E"/>
<path d="M15.6025 7.6416C15.5055 7.6416 15.3503 7.99091 15.1562 7.73863C15.1562 7.73863 15.3115 7.93269 15.3115 8.02972L15.1562 7.97149C15.1562 9.01941 16.1071 8.9806 16.1071 7.97149L15.9519 8.02972C15.9519 7.9715 16.1071 7.73863 16.1071 7.73863C15.913 7.99091 15.7578 7.6416 15.6025 7.6416Z" fill="#FFE62E"/>
<path d="M14.3603 7.6416C14.2633 7.6416 14.1081 7.99091 13.9141 7.73863C13.9141 7.73863 14.0693 7.93269 14.0693 8.02972L13.9141 7.97149C13.9141 9.01941 14.8649 8.9806 14.8649 7.97149L14.7097 8.02972C14.7097 7.9715 14.8649 7.73863 14.8649 7.73863C14.6514 7.99091 14.5156 7.6416 14.3603 7.6416Z" fill="#FFE62E"/>
<path d="M19.0551 8.1465L17.9102 6.78809L16.3578 7.68075L16.1055 10.7857C16.8623 10.8439 17.5997 10.9798 18.2983 11.135L19.0551 8.1465Z" fill="#2A5F9E"/>
<path d="M16.6498 8.34078H16.805C16.902 8.39899 16.9019 8.34077 16.9602 8.28255C17.0572 8.22433 17.3677 8.18553 17.6587 8.34078C17.717 8.39899 18.0081 8.399 18.0081 8.399C18.0081 8.399 17.7558 8.49603 17.5035 8.399C17.6006 8.45722 17.6587 8.55425 17.7558 8.59306C17.814 8.59306 18.1633 8.69009 18.1633 8.69009C18.1633 8.69009 17.8722 8.84534 17.6587 8.69009C17.5035 8.53485 17.3677 8.39899 17.1154 8.43781L17.2707 8.49603C17.2124 8.55425 17.0766 8.59305 17.0184 8.55424C17.0184 8.70948 17.5229 9.19463 18.1244 9.05879C18.3767 8.96176 18.2215 9.15582 18.1827 9.25285C18.1245 9.31106 17.9304 10.3978 17.3871 10.1455C17.3871 10.1455 17.6782 10.0485 17.6782 9.85445L17.5811 9.75742C17.3871 9.75742 17.2318 10.359 16.9796 10.0485C16.9796 10.0485 17.2707 9.89324 17.2319 9.64097H17.0378C16.8826 9.69918 16.9408 10.2426 16.6303 10.0873C16.6303 10.0873 16.9796 9.58276 16.7855 9.58276C16.7273 9.67979 16.6303 9.77682 16.6303 9.87385C16.7274 9.97088 16.3781 9.97088 16.4363 9.87385C16.4363 9.81563 16.6885 9.58275 16.6303 9.33047C16.5333 9.27226 16.6303 8.82592 16.6885 8.7289C16.3974 8.7289 16.5915 8.63187 16.6303 8.43781C16.7079 8.43781 16.6498 8.43781 16.6498 8.34078Z" fill="#FFE62E"/>
<path d="M20.4159 11.8919L21.6578 9.03917L20.707 7.54492L19.0576 8.1465L18.3008 11.1544C19.0188 11.3485 19.7173 11.6008 20.4159 11.8919Z" fill="#428BC1"/>
<path d="M18.8028 9.25293C19.6566 9.44699 20.4523 9.75749 21.2091 10.1068L20.7045 11.2129C20.006 10.9219 19.2491 10.6696 18.5117 10.4561L18.8028 9.25293Z" fill="white"/>
<path d="M20.7627 10.9988L21.0538 10.242C20.297 9.89264 19.5014 9.64035 18.7058 9.44629L18.5117 10.2031C19.3073 10.3972 20.0641 10.6495 20.7627 10.9988Z" fill="#ED4C5C"/>
<path d="M20.007 8.14683L20.0651 8.43792L19.8711 8.63198L20.1622 8.72901L20.2204 9.0201L20.4727 8.82604L20.7637 8.92307L20.7056 8.63198L20.8996 8.43792L20.6085 8.34089L20.5503 8.0498L20.3562 8.24386L20.007 8.14683Z" fill="#FFE62E"/>
</svg>
