<svg width="30" height="31" viewBox="0 0 30 31" fill="none" xmlns="http://www.w3.org/2000/svg">
<path d="M4.40625 12.988H29.7103C29.2639 10.7951 28.3131 8.73811 27.013 6.99158H4.40625V12.988Z" fill="#F9F9F9"/>
<path d="M4.40625 18.9844V24.9809H27.013C28.3131 23.2343 29.2639 21.1773 29.7103 18.9844H4.40625Z" fill="#F9F9F9"/>
<path d="M29.7103 12.9879H4.40625V18.9844H29.7103C29.9043 18.0335 30.0013 17.0438 30.0013 15.9764C30.0013 14.9091 29.9043 13.9194 29.7103 12.9879Z" fill="#428BC1"/>
<path d="M4.40625 6.97215H27.013C24.2575 3.32383 19.9108 0.975708 15.0207 0.975708C10.8681 0.975708 7.12294 2.68345 4.42566 5.38087V6.97215" fill="#428BC1"/>
<path d="M4.40625 24.9809V26.5722C7.10353 29.2696 10.8487 30.9773 15.0013 30.9773C19.9108 30.9773 24.2575 28.6292 26.9936 24.9809H4.40625Z" fill="#428BC1"/>
<path d="M4.40492 5.3808C1.70764 8.07823 0 11.8236 0 15.9764C0 20.1293 1.70764 23.8747 4.40492 26.5721L15 15.9764L4.40492 5.3808Z" fill="#ED4C5C"/>
<path d="M4.0151 18.9844L6.0138 17.5871L8.01251 18.9844L7.25572 16.675L9.25443 15.2196H6.7512L5.9944 12.9685L5.23761 15.2196H2.73438L4.73308 16.675L4.0151 18.9844Z" fill="#F9F9F9"/>
</svg>
