<svg width="30" height="31" viewBox="0 0 30 31" fill="none" xmlns="http://www.w3.org/2000/svg">
<path d="M30 15.8618C30 7.55609 23.3053 0.861023 15 0.861023C6.69469 0.861023 0 7.55609 0 15.8618C0 18.0159 0.446318 20.0147 1.24192 21.8583H28.7387C29.5537 20.0147 30 18.0159 30 15.8618Z" fill="#2A5F9E"/>
<path d="M15.0001 30.8627C19.9095 30.8627 24.2562 28.5145 26.9923 24.8662H3.00781C5.74391 28.5145 10.11 30.8627 15.0001 30.8627Z" fill="#2A5F9E"/>
<path d="M1.24219 21.8583C1.6885 22.9062 2.29005 23.9542 2.98863 24.8662H26.9925C27.6911 23.9736 28.2926 22.9256 28.7389 21.8583H1.24219Z" fill="#FFCE31"/>
<path d="M4.69401 7.61426L5.33437 9.51605H7.33308L5.68366 10.7192L6.32402 12.621L4.6746 11.4178L3.08341 12.621L3.68496 10.7192L2.09375 9.51605H4.09245L4.69401 7.61426Z" fill="white"/>
<path d="M10.4018 12.1165L11.2944 14.7751H14.0887L11.7795 16.4246L12.6722 19.1221L10.363 17.4725L8.112 19.1221L8.96582 16.4246L6.71484 14.7751H9.50916L10.4018 12.1165Z" fill="white"/>
</svg>
