<svg width="30" height="31" viewBox="0 0 30 31" fill="none" xmlns="http://www.w3.org/2000/svg">
<path d="M22.5 23.388C26.6421 19.2457 26.6421 12.5296 22.5 8.38721C18.3579 4.24485 11.6421 4.24484 7.5 8.3872C3.35787 12.5296 3.35787 19.2457 7.5 23.388C11.6421 27.5304 18.3579 27.5304 22.5 23.388Z" fill="#F5F5F5"/>
<path d="M8.10082 17.6601C8.10082 17.6601 8.03221 18.1541 8.23804 18.3736C8.44386 18.5795 8.91039 18.8676 9.08877 18.9088C9.26715 18.95 8.88295 18.2776 8.88295 18.2776C8.88295 18.2776 8.34781 17.5503 8.10082 17.6601Z" fill="#699635"/>
<path d="M8.17188 18.8676C8.17188 18.8676 8.24049 19.3205 8.52864 19.4028C8.84423 19.4714 9.13238 19.444 9.13238 19.444C9.13238 19.444 9.17354 18.8951 8.17188 18.8676Z" fill="#699635"/>
<path d="M9.19922 17.9482C9.19922 17.9482 9.51482 18.058 9.51482 18.3325C9.51482 18.6206 9.47365 18.8951 9.47365 18.8951C9.47365 18.8951 9.26783 18.6069 9.26783 18.4697C9.26783 18.3325 9.19922 17.9482 9.19922 17.9482Z" fill="#699635"/>
<path d="M9.09149 19.6361C9.09149 19.6361 9.05033 19.9242 9.37965 19.9242C9.70896 19.9242 9.42081 19.5674 9.09149 19.6361Z" fill="#699635"/>
<path d="M9.06343 20.1027C9.06343 20.1027 9.42019 19.9929 9.80439 20.0615C10.1886 20.1301 10.4081 20.4457 10.4081 20.4457C10.4081 20.4457 9.98277 20.5555 9.4888 20.4457C9.02227 20.3497 9.06343 20.1027 9.06343 20.1027Z" fill="#699635"/>
<path d="M9.30859 19.0734C9.30859 19.0734 9.80257 18.9362 10.2691 19.9928C10.2554 19.9928 9.33604 19.787 9.30859 19.0734Z" fill="#699635"/>
<path d="M9.80469 18.8677C9.80469 18.8677 10.3398 18.5521 10.7926 19.9654C10.7926 19.9517 10.1614 19.7047 9.80469 18.8677Z" fill="#699635"/>
<path d="M10.543 20.1712C10.543 20.1712 11.0781 19.9654 11.7779 20.8024C10.6116 20.775 10.543 20.1712 10.543 20.1712Z" fill="#699635"/>
<path d="M10.9015 19.787C10.9015 19.787 10.8603 20.1026 11.0799 20.1026C11.2857 20.1026 11.1073 19.7047 10.9015 19.787Z" fill="#699635"/>
<path d="M10.5158 20.6241C10.5158 20.6241 10.4747 20.9123 10.653 20.9123C10.8314 20.9123 10.653 20.528 10.5158 20.6241Z" fill="#699635"/>
<path d="M12.1788 21.4748C12.1788 21.4748 12.1377 21.7904 12.3572 21.7904C12.5768 21.7904 12.3847 21.3787 12.1788 21.4748Z" fill="#699635"/>
<path d="M12.671 20.528C12.671 20.528 12.6299 20.8436 12.8494 20.8436C13.0552 20.8436 12.8769 20.4182 12.671 20.528Z" fill="#699635"/>
<path d="M11.3281 19.9517C11.3281 19.9517 12.1102 19.7459 12.4258 20.7339C11.5065 20.5967 11.3281 19.9517 11.3281 19.9517Z" fill="#699635"/>
<path d="M10.6562 21.0494C10.6562 21.0494 11.5344 20.8436 11.9323 21.1181C12.3165 21.4062 11.1502 21.5434 10.6562 21.0494Z" fill="#699635"/>
<path d="M12.1797 21.0495C12.1797 21.0495 12.7834 20.7613 13.4146 21.4062C12.1797 21.5435 12.1797 21.0495 12.1797 21.0495Z" fill="#699635"/>
<path d="M13.1654 20.6653C13.1654 20.6653 13.7691 20.4869 14.3317 21.5435C13.0145 21.3788 13.1654 20.6653 13.1654 20.6653Z" fill="#699635"/>
<path d="M14.1537 21.8316C14.1537 21.8316 13.5225 22.2844 12.6992 21.7904C12.6992 21.8316 12.9874 21.269 14.1537 21.8316Z" fill="#699635"/>
<path d="M21.8907 17.6189C21.8907 17.6189 21.9593 18.1129 21.7534 18.3324C21.5476 18.5383 21.0811 18.8264 20.9027 18.8676C20.7243 18.9088 21.1085 18.2364 21.1085 18.2364C21.1085 18.2364 21.6437 17.5503 21.8907 17.6189Z" fill="#699635"/>
<path d="M21.8239 18.8676C21.8239 18.8676 21.7553 19.3205 21.4397 19.4028C21.1241 19.4714 20.8359 19.444 20.8359 19.444C20.8359 19.444 20.8359 18.8951 21.8239 18.8676Z" fill="#699635"/>
<path d="M20.7961 17.9071C20.7961 17.9071 20.4805 18.0169 20.4805 18.2913C20.4805 18.5795 20.5216 18.8539 20.5216 18.8539C20.5216 18.8539 20.7275 18.5657 20.7275 18.4285C20.7275 18.2913 20.7961 17.9071 20.7961 17.9071Z" fill="#699635"/>
<path d="M20.9053 19.6361C20.9053 19.6361 20.9464 19.9242 20.6171 19.9242C20.3015 19.9242 20.5897 19.5674 20.9053 19.6361Z" fill="#699635"/>
<path d="M20.9463 20.0614C20.9463 20.0614 20.5895 19.9517 20.2053 20.0203C19.8211 20.0889 19.6016 20.4045 19.6016 20.4045C19.6016 20.4045 20.0269 20.5143 20.5209 20.4045C20.9737 20.3084 20.9463 20.0614 20.9463 20.0614Z" fill="#699635"/>
<path d="M20.6988 19.0734C20.6988 19.0734 20.2048 18.9362 19.7383 19.9928C19.7383 19.9928 20.6576 19.7458 20.6988 19.0734Z" fill="#699635"/>
<path d="M20.203 18.8677C20.203 18.8677 19.6679 18.5521 19.2151 19.9654C19.2013 19.9517 19.8462 19.7047 20.203 18.8677Z" fill="#699635"/>
<path d="M19.4927 20.1712C19.4927 20.1712 18.9576 19.9654 18.2578 20.8024C19.383 20.7338 19.4927 20.1712 19.4927 20.1712Z" fill="#699635"/>
<path d="M19.1067 19.7871C19.1067 19.7871 19.1479 20.1027 18.9283 20.1027C18.7088 20.1027 18.8872 19.6773 19.1067 19.7871Z" fill="#699635"/>
<path d="M19.4895 20.5966C19.4895 20.5966 19.5307 20.8847 19.3523 20.8847C19.1739 20.871 19.3523 20.528 19.4895 20.5966Z" fill="#699635"/>
<path d="M17.8311 21.4748C17.8311 21.4748 17.8723 21.7904 17.6527 21.7904C17.4469 21.7904 17.6116 21.3787 17.8311 21.4748Z" fill="#699635"/>
<path d="M17.3372 20.528C17.3372 20.528 17.3784 20.8436 17.1588 20.8436C16.9393 20.8436 17.1176 20.4182 17.3372 20.528Z" fill="#699635"/>
<path d="M18.6837 19.9517C18.6837 19.9517 17.9015 19.7459 17.5859 20.7339C18.5053 20.5967 18.6837 19.9517 18.6837 19.9517Z" fill="#699635"/>
<path d="M19.3524 21.022C19.3524 21.022 18.4742 20.8162 18.0763 21.0906C17.6921 21.4062 18.8584 21.5435 19.3524 21.022Z" fill="#699635"/>
<path d="M17.8326 21.0495C17.8326 21.0495 17.2288 20.7613 16.5977 21.4062C17.8326 21.5435 17.8326 21.0495 17.8326 21.0495Z" fill="#699635"/>
<path d="M16.8421 20.6653C16.8421 20.6653 16.2384 20.4869 15.6758 21.5435C16.9793 21.3788 16.8421 20.6653 16.8421 20.6653Z" fill="#699635"/>
<path d="M15.8555 21.8316C15.8555 21.8316 16.4867 22.2844 17.31 21.7904C17.2962 21.8316 17.0218 21.269 15.8555 21.8316Z" fill="#699635"/>
<path d="M14.8934 22.0786C14.8934 22.0786 14.4406 22.6824 14.4406 22.6138C14.4406 22.5452 14.125 22.2981 14.125 22.2981L14.6601 21.9139L14.4543 21.8042L14.5641 21.6669L14.9483 21.8453" fill="#699635"/>
<path d="M15.0041 22.0786C15.0041 22.0786 15.4569 22.6824 15.4569 22.6138C15.4569 22.5452 15.7725 22.2981 15.7725 22.2981L15.2374 21.9139L15.4432 21.8042L15.3334 21.6669L14.9492 21.8453" fill="#699635"/>
<path d="M10.0508 15.0117C10.0508 15.0117 10.188 15.396 10.3664 15.396C10.5448 15.396 10.9976 15.4371 10.9976 15.4371C10.9976 15.4371 11.2446 15.396 11.3132 15.1901C11.3818 14.9843 11.6013 14.0924 12.6579 14.6275C13.7144 15.1627 13.783 13.7081 13.783 13.7081L13.6046 13.4611L13.6458 12.9671C13.6458 12.9671 14.2084 13.3513 14.6063 13.3513C14.9631 13.3102 15.2375 13.4611 15.3473 13.4611C15.457 13.4611 15.8412 13.5709 15.8412 13.5709L16.8017 13.6121C16.8017 13.6121 16.939 13.4748 17.1173 13.5023C17.2546 13.5435 17.2546 13.3925 17.5701 13.3925C17.8583 13.3925 18.1327 13.0357 18.1327 13.0357C18.1327 13.0357 18.2013 12.9671 18.6267 13.0357C18.6267 13.0357 18.9149 12.7887 19.3402 12.679C19.7656 12.5417 19.697 12.3634 19.697 12.3634C19.697 12.3634 20.0126 12.2947 20.1498 12.3222C20.287 12.3496 20.3556 12.0752 20.3556 12.0752L20.6712 12.034L20.8084 11.8556L21.124 11.787C21.124 11.787 21.5082 11.4989 21.5768 11.3342C21.6454 11.1558 22.0708 11.293 22.0708 11.293C22.0708 11.293 22.2492 11.1146 22.2766 11.0049C22.3178 10.8951 22.455 10.9637 22.455 10.9637L22.4138 11.2793L22.208 11.3891V11.5675H21.8924L21.8512 11.7459L21.5631 11.787L21.5219 12.034L21.4533 12.1438L21.3847 12.185H21.2063L21.1377 12.2947L20.9594 12.5006L20.8221 12.679L20.534 12.6378L20.3556 12.8848H20.2458L20.0675 13.1729L19.9302 13.3513L19.8616 13.4611L19.7244 13.5023L19.6833 13.6395L19.4363 13.7081L19.1481 13.7767L19.0383 13.914C19.0383 13.914 18.7228 14.5863 19.0795 14.7922C19.4363 15.0392 19.4363 15.2862 19.4363 15.2862L19.6146 15.396L19.7519 15.6429L19.8205 15.9311C19.8205 15.9311 19.7519 15.9723 19.6833 15.9723C19.5735 15.9037 19.4363 15.9037 19.4363 15.9037L19.2991 15.7665L19.0109 15.7253L18.8325 15.9037C18.8325 15.9037 18.7639 16.0135 18.7639 16.0821C18.7639 16.1507 18.7228 16.1507 18.6267 16.0821C18.5169 16.0135 18.3797 15.9448 18.3797 15.9448L18.1739 15.9037L18.1327 15.7939L17.9955 15.8625C17.9955 15.8625 17.9544 15.9723 17.8857 15.9311C17.8171 15.89 17.7485 15.89 17.7485 15.89H17.6113C17.6113 15.89 17.2957 16.1369 17.3232 16.8779L16.9664 16.9466L16.788 17.0838L16.7194 17.1936H16.5273L16.4175 17.3033L16.1706 17.4131L16.0608 17.5503L15.704 17.5915L15.5943 17.6601L15.5257 17.7973L15.3198 17.6601L15.0317 17.5915L14.7847 17.6601L14.6475 17.7287C14.5789 17.7973 14.3593 17.8385 14.3593 17.8385C14.3593 17.8385 14.2221 17.8797 14.2221 17.9483C14.2221 18.0169 14.1809 18.1541 14.1809 18.1541V18.4423C14.1809 18.4423 14.1398 18.6207 14.0026 18.6207C13.8653 18.6207 13.8928 18.6207 13.8242 18.5795C13.7556 18.5383 13.7556 18.4011 13.7556 18.4011V18.1953L13.44 17.9071L13.2342 17.8385L13.0283 17.8797L12.85 17.9895L12.6716 18.0992C12.6716 18.0992 12.7127 18.2365 12.5618 18.1404C12.4246 18.0306 12.3148 18.0306 12.3148 18.0306L12.1364 17.9208L11.8895 17.8522L11.7111 17.6464L11.2583 17.6052L10.8741 17.1524L10.7643 17.0426L10.7231 16.6858L10.4762 16.6447V16.4663L10.3664 16.2879L10.4075 15.9311L10.1606 15.8213L10.0508 15.5057V15.0117Z" fill="#FF8736"/>
</svg>
