<svg width="30" height="31" viewBox="0 0 30 31" fill="none" xmlns="http://www.w3.org/2000/svg">
<path d="M29.5912 11.5403C28.001 4.94658 22.0863 0.0400391 15.0081 0.0400391H14.5039V11.5403H29.5912Z" fill="#ED4C5C"/>
<path d="M7.50385 2.03748C4.01322 4.09318 1.41465 7.48702 0.40625 11.5402H7.50385V2.03748Z" fill="#ED4C5C"/>
<path d="M0.40625 18.5413C1.41465 22.5945 4.01322 25.9883 7.50385 28.044V18.5413H0.40625Z" fill="#ED4C5C"/>
<path d="M14.4844 30.0223H14.9886C22.0862 30.0223 27.9814 25.1157 29.5716 18.522H14.4844V30.0223Z" fill="#ED4C5C"/>
<path d="M29.5928 11.5403H14.5055V0.0400391C11.9651 0.137006 9.56045 0.835178 7.50486 2.03757V11.5403H0.407259C0.155158 12.6458 0 13.8481 0 15.0311C0 16.2335 0.155158 17.4359 0.407259 18.522H7.50486V28.0247C9.56045 29.2271 11.9457 29.9253 14.5055 30.0223V18.522H29.5928C29.8449 17.4165 30 16.2141 30 15.0311C29.9806 13.8288 29.8255 12.6264 29.5928 11.5403Z" fill="white"/>
</svg>
