<svg width="30" height="30" viewBox="0 0 30 30" fill="none" xmlns="http://www.w3.org/2000/svg">
<path d="M12.4013 2.06892C10.5967 2.06892 10.0533 1.56437 9.00547 1.27328C7.80237 1.77784 6.6963 2.47644 5.64844 3.27208C6.05594 3.17505 6.54106 3.11685 7.20083 3.11685C9.80109 3.11685 9.80108 4.12595 12.4013 4.12595C15.0016 4.12595 15.0016 3.11685 17.6019 3.11685C20.2021 3.11685 20.2021 4.12595 22.8024 4.12595C23.8114 4.12595 24.3936 3.97069 24.9563 3.77663C24.1995 3.13624 23.4039 2.53465 22.5113 2.0301C20.1633 1.97188 20.1051 1.021 17.6019 1.021C15.0016 1.05981 15.0016 2.06892 12.4013 2.06892Z" fill="white"/>
<path d="M22.8005 4.12592C20.2002 4.12592 20.2002 3.11682 17.5999 3.11682C14.9997 3.11682 14.9997 4.12592 12.3994 4.12592C9.79915 4.12592 9.79915 6.18295 12.3994 6.18295C14.9997 6.18295 14.9997 5.17385 17.5999 5.17385C20.2002 5.17385 20.2002 6.18295 22.8005 6.18295C24.741 6.18295 25.2455 5.63958 26.4486 5.32908C26.0023 4.78571 25.4395 4.28116 24.9544 3.7766C24.3917 3.97066 23.7901 4.12592 22.8005 4.12592Z" fill="#2A5F9E"/>
<path d="M17.6012 1.05977C20.1045 1.05977 20.2015 1.95246 22.5495 2.06889C20.3567 0.768692 17.7565 0.0700684 15.0398 0.0700684C12.8858 0.0700684 10.6349 2.1271 12.4395 2.1271C15.001 2.06888 15.001 1.05977 17.6012 1.05977Z" fill="#2A5F9E"/>
<path d="M22.7994 6.16352C20.1992 6.16352 20.1992 5.15442 17.5989 5.15442C14.9986 5.15442 14.9986 6.16352 12.3984 6.16352C9.79812 6.16352 9.79813 5.15442 7.19787 5.15442C4.9469 5.15442 4.65581 5.91123 2.88996 6.10529C2.38544 6.74569 1.99735 7.46372 1.58984 8.20114H1.99734C4.5976 8.20114 4.59761 7.19204 7.19787 7.19204C9.79813 7.19204 9.79812 8.20114 12.3984 8.20114C14.9986 8.20114 14.9986 7.19204 17.5989 7.19204C20.1992 7.19204 20.1992 8.20114 22.7994 8.20114C25.3415 8.20114 25.3997 7.25026 27.8447 7.19204C27.4372 6.49343 26.9909 5.89184 26.4475 5.29025C25.2444 5.62015 24.7399 6.16352 22.7994 6.16352Z" fill="white"/>
<path d="M22.8005 8.27878C20.2002 8.27878 20.2002 7.26965 17.5999 7.26965C14.9997 7.26965 14.9997 8.27878 12.3994 8.27878C9.79915 8.27878 9.79915 10.3358 12.3994 10.3358C14.9997 10.3358 14.9997 9.3267 17.5999 9.3267C20.2002 9.3267 20.2002 10.3358 22.8005 10.3358C25.4007 10.3358 25.4007 9.3267 28.001 9.3267C28.3503 9.3267 28.6413 9.32669 28.8936 9.38491C28.6025 8.62808 28.2533 7.92947 27.8457 7.28908C25.4007 7.32789 25.3425 8.27878 22.8005 8.27878Z" fill="#2A5F9E"/>
<path d="M28.0032 9.32666C25.4029 9.32666 25.4029 10.3358 22.8027 10.3358C20.2024 10.3358 20.2024 9.32666 17.6022 9.32666C15.0019 9.32666 15.0019 10.3358 12.4016 10.3358C9.80136 10.3358 9.80138 9.32666 7.20112 9.32666C4.60086 9.32666 4.60085 10.3358 2.00059 10.3358C1.49606 10.3358 1.10797 10.2775 0.797492 10.2387C0.603443 10.8403 0.389993 11.4807 0.292969 12.1405C0.739282 12.2958 1.30202 12.3928 2.03941 12.3928C4.63967 12.3928 4.63966 11.3837 7.23992 11.3837C9.84018 11.3837 9.84019 12.3928 12.4404 12.3928C15.0407 12.3928 15.0407 11.3837 17.641 11.3837C20.2412 11.3837 20.2412 12.3928 22.8415 12.3928C25.4417 12.3928 25.4417 11.3837 28.042 11.3837C28.7406 11.3837 29.2451 11.4419 29.6332 11.5389C29.4392 10.7821 29.2257 10.0835 28.9346 9.38486C28.6436 9.36546 28.3525 9.32666 28.0032 9.32666Z" fill="white"/>
<path d="M28.001 11.4226C25.4007 11.4226 25.4007 12.4317 22.8005 12.4317C20.2002 12.4317 20.2002 11.4226 17.5999 11.4226C14.9997 11.4226 14.9997 12.4317 12.3994 12.4317C9.79915 12.4317 9.79915 14.4888 12.3994 14.4888C14.9997 14.4888 14.9997 13.4796 17.5999 13.4796C20.2002 13.4796 20.2002 14.4888 22.8005 14.4888C25.4007 14.4888 25.4007 13.4796 28.001 13.4796C28.8936 13.4796 29.4563 13.5767 29.9415 13.7319C29.8833 13.0333 29.7862 12.2765 29.5922 11.6361C29.2041 11.4614 28.6996 11.4226 28.001 11.4226Z" fill="#2A5F9E"/>
<path d="M28.0013 13.4796C25.401 13.4796 25.401 14.4887 22.8008 14.4887C20.2005 14.4887 20.2005 13.4796 17.6003 13.4796C15 13.4796 15 14.4887 12.3997 14.4887C9.79947 14.4887 9.79948 13.4796 7.19922 13.4796C4.59896 13.4796 4.59895 14.4887 1.99869 14.4887C1.10607 14.4887 0.504528 14.3917 0 14.2365V15.0321C0 15.4396 -1.42149e-05 15.886 0.0582005 16.2741C0.562728 16.4293 1.10607 16.5652 1.99869 16.5652C4.59895 16.5652 4.59896 15.5561 7.19922 15.5561C9.79948 15.5561 9.79947 16.5652 12.3997 16.5652C15 16.5652 15 15.5561 17.6003 15.5561C20.2005 15.5561 20.2005 16.5652 22.8008 16.5652C25.401 16.5652 25.401 15.5561 28.0013 15.5561C28.8939 15.5561 29.4955 15.6531 30 15.8083V15.0127C30 14.6052 30 14.217 29.9418 13.7707C29.4372 13.6155 28.8939 13.4796 28.0013 13.4796Z" fill="white"/>
<path d="M28.0017 15.5754C25.4014 15.5754 25.4014 16.5845 22.8012 16.5845C20.2009 16.5845 20.2009 15.5754 17.6006 15.5754C15.0004 15.5754 15.0004 16.5845 12.4001 16.5845C9.79986 16.5845 9.79987 15.5754 7.19961 15.5754C4.59935 15.5754 4.59935 16.5845 1.99909 16.5845C1.10646 16.5845 0.543717 16.4875 0.0585938 16.3323C0.116809 17.0309 0.213843 17.7877 0.407892 18.4281C0.815395 18.5251 1.30051 18.6222 1.99909 18.6222C4.59935 18.6222 4.59935 17.6131 7.19961 17.6131C9.79987 17.6131 9.79986 18.6222 12.4001 18.6222C15.0004 18.6222 15.0004 17.6131 17.6006 17.6131C20.2009 17.6131 20.2009 18.6222 22.8012 18.6222C25.4014 18.6222 25.4014 17.6131 28.0017 17.6131C28.7585 17.6131 29.3018 17.7101 29.7481 17.8071C29.8451 17.1667 29.9422 16.5069 30.0004 15.8665C29.4959 15.7307 28.8943 15.5754 28.0017 15.5754Z" fill="#2A5F9E"/>
<path d="M28 17.613C25.3998 17.613 25.3998 18.6221 22.7995 18.6221C20.1993 18.6221 20.1993 17.613 17.599 17.613C14.9987 17.613 14.9987 18.6221 12.3985 18.6221C9.79822 18.6221 9.79823 17.613 7.19797 17.613C4.59771 17.613 4.5977 18.6221 1.99744 18.6221C1.29887 18.6221 0.794348 18.5639 0.40625 18.4669C0.600299 19.2237 0.813749 19.9223 1.10482 20.621C1.35709 20.6792 1.64816 20.6792 1.99744 20.6792C4.5977 20.6792 4.59771 19.6701 7.19797 19.6701C9.79823 19.6701 9.79822 20.6792 12.3985 20.6792C14.9987 20.6792 14.9987 19.6701 17.599 19.6701C20.1993 19.6701 20.1993 20.6792 22.7995 20.6792C25.3998 20.6792 25.3998 19.6701 28 19.6701C28.5046 19.6701 28.8927 19.7283 29.2032 19.7671C29.3972 19.1655 29.6107 18.5251 29.7077 17.8653C29.3002 17.7295 28.7374 17.613 28 17.613Z" fill="white"/>
<path d="M28.0007 19.7283C25.4004 19.7283 25.4004 20.7374 22.8002 20.7374C20.1999 20.7374 20.1999 19.7283 17.5997 19.7283C14.9994 19.7283 14.9994 20.7374 12.3991 20.7374C9.79886 20.7374 9.79888 19.7283 7.19862 19.7283C4.59836 19.7283 4.59835 20.7374 1.99809 20.7374C1.6488 20.7374 1.35773 20.7374 1.10547 20.6792C1.39654 21.436 1.74584 22.1346 2.15334 22.775C4.59836 22.7168 4.65657 21.7659 7.19862 21.7659C9.79888 21.7659 9.79886 22.775 12.3991 22.775C14.9994 22.775 14.9994 21.7659 17.5997 21.7659C20.1999 21.7659 20.1999 22.775 22.8002 22.775C25.4004 22.775 25.4004 21.7659 28.0007 21.7659H28.4082C28.6993 21.1255 29.0097 20.4657 29.262 19.8253C28.8933 19.7283 28.4858 19.7283 28.0007 19.7283Z" fill="#2A5F9E"/>
<path d="M27.9997 21.766C25.3994 21.766 25.3994 22.7751 22.7992 22.7751C20.1989 22.7751 20.1989 21.766 17.5987 21.766C14.9984 21.766 14.9984 22.7751 12.3981 22.7751C9.79787 22.7751 9.79788 21.766 7.19762 21.766C4.65558 21.766 4.59736 22.7169 2.15234 22.7751C2.55985 23.4737 3.00615 24.0753 3.54949 24.6769C4.7914 24.3858 5.25713 23.823 7.19762 23.823C9.79788 23.823 9.79787 24.8321 12.3981 24.8321C14.9984 24.8321 14.9984 23.823 17.5987 23.823C20.1989 23.823 20.1989 24.8321 22.7992 24.8321C25.0502 24.8321 25.3412 24.0753 27.1071 23.8812C27.6116 23.2408 27.9997 22.5228 28.4072 21.7854H27.9997" fill="white"/>
<path d="M22.8005 24.8709C20.2002 24.8709 20.2002 23.8618 17.5999 23.8618C14.9997 23.8618 14.9997 24.8709 12.3994 24.8709C9.79916 24.8709 9.79918 23.8618 7.19892 23.8618C5.25842 23.8618 4.75389 24.4052 3.55078 24.7157C3.99709 25.2591 4.55985 25.8218 5.04497 26.2682C5.58831 26.0741 6.18986 25.9189 7.19892 25.9189C9.79918 25.9189 9.79916 26.928 12.3994 26.928C14.9997 26.928 14.9997 25.9189 17.5999 25.9189C20.2002 25.9189 20.2002 26.928 22.8005 26.928C23.4408 26.928 23.9454 26.8697 24.3529 26.7727C25.4007 25.9188 26.2934 24.968 27.1084 23.92C25.3425 24.0753 25.0514 24.8709 22.8005 24.8709Z" fill="#2A5F9E"/>
<path d="M22.8024 26.9279C20.2021 26.9279 20.2021 25.9188 17.6019 25.9188C15.0016 25.9188 15.0016 26.9279 12.4013 26.9279C9.80106 26.9279 9.80108 25.9188 7.20082 25.9188C6.19176 25.9188 5.60962 26.0741 5.04688 26.2681C5.80367 26.9085 6.59925 27.5101 7.45307 28.0147C9.76225 28.0729 9.85929 29.0238 12.3625 29.0238C14.9628 29.0238 14.9628 28.0147 17.563 28.0147C19.3677 28.0147 19.911 28.5192 20.9589 28.8103C22.162 28.3057 23.2681 27.6071 24.3159 26.8115C23.889 26.8697 23.4427 26.9279 22.8024 26.9279Z" fill="white"/>
<path d="M12.4014 28.9657C9.89814 28.9657 9.80112 28.073 7.45312 27.9566C9.64588 29.2567 12.2462 29.9554 14.9628 29.9554C17.1168 29.9554 19.1155 29.509 20.959 28.7134C19.9111 28.4223 19.3678 27.9177 17.5631 27.9177C15.0017 27.9759 15.0016 28.9657 12.4014 28.9657Z" fill="#2A5F9E"/>
<path d="M26.1948 11.3255L28.1353 11.3838C27.6307 10.4911 25.9813 10.4329 24.6424 10.6852C25.4962 10.4329 26.4858 10.1418 26.6993 10.0836C26.2918 9.79247 24.5454 8.68635 22.3526 10.8792H22.2944C20.1016 8.68635 18.3358 9.77307 17.9477 10.0836C18.1029 10.1418 19.1508 10.3747 20.0046 10.6852C18.6463 10.4911 16.9968 10.5299 16.5117 11.3838L18.4522 11.3255C17.6566 11.7331 17.2103 11.7719 17.055 12.7228C17.1133 12.7228 18.1029 12.4317 19.1508 12.1794C18.6074 12.4705 18.0447 12.8198 17.8507 13.1885C18.8015 13.2467 19.5971 12.9945 20.2569 12.684C19.8494 13.1885 19.6553 13.7319 19.6553 14.0424C20.1016 13.9454 20.6061 13.5378 21.0137 13.1497C20.7614 14.0424 20.8196 14.9933 21.0719 15.3426C21.4794 15.0515 21.7122 14.547 21.9257 13.9842V14.5275H22.7795L22.7213 13.7707C22.9153 14.4111 23.2258 15.0127 23.6721 15.362C23.9244 14.9545 23.9632 14.0618 23.7303 13.1691C24.1378 13.5766 24.5842 13.9648 25.0887 14.0618C25.1469 13.7707 24.8946 13.2079 24.4871 12.7034C25.0887 12.9945 25.9425 13.2468 26.8934 13.2079C26.6411 12.8586 26.1365 12.5093 25.5932 12.1988C26.6411 12.4899 27.6501 12.7422 27.6889 12.7422C27.4949 11.7719 27.0486 11.7137 26.1948 11.3255Z" fill="#75A843"/>
<path d="M21.6953 13.1302H23.0537V24.0364H21.6953V13.1302Z" fill="#C94747"/>
<path d="M19.1523 20.0776L20.2584 21.2226H24.314L25.4201 20.0776L25.5172 18.3699L22.8587 17.5742L23.111 17.3802L22.2571 16.8756L21.4033 17.3802L21.6556 17.5742L19.2494 18.1758L19.1523 20.0776ZM24.8962 18.6804L24.2558 19.6895L23.6155 19.4372L22.8199 19.282V17.8265L24.8962 18.6804ZM19.6957 18.6804L21.7914 17.8265V19.282L20.9958 19.4372L20.3554 19.6895L19.6957 18.6804Z" fill="#F1BF31"/>
<path d="M4.5 4.51404H14.9981V15.0127H4.5V4.51404Z" fill="#2A5F9E"/>
<path d="M8.4411 3.078V6.02772H4.79297L11.9922 15.0321H15V11.2867L8.4411 3.078Z" fill="white"/>
<path d="M4.50193 8.47286H1.49417C0.543328 10.4717 0 12.6645 0 15.0321H5.9961V5.96948H4.50193V8.47286Z" fill="white"/>
<path d="M15.0006 12.5675L8.49995 4.51404H5.49219L13.9916 15.0127H15.0006V12.5675Z" fill="#ED4C5C"/>
<path d="M8.43921 1.5255V4.53342H4.5V6.02769H14.9981V0.0312478C12.6501 0.0118418 10.4379 0.574605 8.43921 1.5255Z" fill="white"/>
<path d="M14.998 1.52551H8.43916C5.4314 2.98096 2.94756 5.48434 1.49219 8.47286V15.0321H4.49995V4.53344H14.998V1.52551Z" fill="#ED4C5C"/>
</svg>
