<svg width="30" height="31" viewBox="0 0 30 31" fill="none" xmlns="http://www.w3.org/2000/svg">
<path d="M4.5 15.0342V25.7269C7.19728 28.3855 10.9036 30.035 14.9981 30.035C23.3034 30.035 29.9981 23.3399 29.9981 15.0342H4.5Z" fill="#83BF4F"/>
<path d="M4.5 15.0343H29.9981C29.9981 6.72851 23.3034 0.0334473 14.9981 0.0334473C10.9036 0.0334473 7.19728 1.68297 4.5 4.34158V15.0343Z" fill="#42ADE2"/>
<path d="M4.50193 4.34155C1.70762 7.03898 0 10.8425 0 15.0342C0 19.2259 1.70762 23.0295 4.50193 25.7269L15.194 15.0342L4.50193 4.34155Z" fill="#F9F9F9"/>
<path d="M6.01632 16.8778L8.17026 18.5273L7.37467 15.8687L9.52861 14.1221H6.87012L6.01632 11.5217L5.2207 14.1221H2.52344L4.67738 15.8687L3.88178 18.5273L6.01632 16.8778Z" fill="#C94747"/>
</svg>
