<svg width="30" height="31" viewBox="0 0 30 31" fill="none" xmlns="http://www.w3.org/2000/svg">
<path d="M19.4442 0.753174H10.5374C5.84138 2.20862 2.13506 5.89575 0.679688 10.5532V19.5575C2.13506 24.215 5.82198 27.9021 10.5374 29.3575H19.4831C24.1402 27.9021 27.8272 24.215 29.2825 19.4993V10.5532C27.8466 5.91516 24.1596 2.20862 19.4442 0.753174Z" fill="#699635"/>
<path d="M10.4961 29.3576C11.4469 29.6487 12.4366 29.8622 13.5039 29.9592V0.151611C12.4948 0.248641 11.4857 0.44272 10.4961 0.753215V29.3576Z" fill="#FFE62E"/>
<path d="M13.5039 30.0174C14.0084 30.0756 14.513 30.0756 14.9981 30.0756C15.5026 30.0756 16.0071 30.0174 16.4923 30.0174V0.171004C15.9877 0.112787 15.4832 0.0739746 14.9981 0.0739746C14.4935 0.0739746 13.989 0.132192 13.5039 0.171004V30.0174Z" fill="#3E4347"/>
<path d="M16.4961 30.0174C17.5051 29.9204 18.5142 29.7263 19.5039 29.4158V0.753215C18.5336 0.44272 17.5246 0.248641 16.4961 0.151611V30.0174Z" fill="white"/>
<path d="M0.0585938 13.5611H29.9034C29.8063 12.552 29.6123 11.5429 29.3018 10.5532H0.698966C0.407892 11.5041 0.194428 12.5132 0.0585938 13.5611Z" fill="#FFE62E"/>
<path d="M0 15.0553C0 15.5598 0.0582005 16.0644 0.0582005 16.5495H29.903C29.9612 16.045 30 15.5404 30 15.0553C30 14.5701 29.9418 14.0462 29.903 13.561H0.0582005C0.0582005 14.0656 0 14.5507 0 15.0553Z" fill="#3E4347"/>
<path d="M0.699204 19.5575H29.3021C29.6125 18.5872 29.8066 17.5781 29.9036 16.5496H0.0976562C0.194681 17.5781 0.388725 18.5872 0.699204 19.5575Z" fill="white"/>
<path d="M15.0019 22.5654C19.1494 22.5654 22.5116 19.203 22.5116 15.0553C22.5116 10.9075 19.1494 7.54517 15.0019 7.54517C10.8544 7.54517 7.49219 10.9075 7.49219 15.0553C7.49219 19.203 10.8544 22.5654 15.0019 22.5654Z" fill="#C94747"/>
<path d="M15.0003 9.85467L15.6989 10.3981L15.4467 9.50538L16.1452 8.96201H15.2914L15.0003 8.06934L14.7093 8.96201H13.8555L14.554 9.50538L14.3018 10.3981L15.0003 9.85467Z" fill="#699635"/>
<path d="M12.4006 10.5531L13.2932 10.6501L12.5946 10.0097L12.9439 9.21408L12.1871 9.6216L11.4885 9.02002L11.6826 9.91269L10.9258 10.359L11.8184 10.4561L12.0125 11.3487L12.4006 10.5531Z" fill="#699635"/>
<path d="M10.4978 12.4548L11.2934 12.1056L10.4008 11.9115L10.3038 11.0188L9.85747 11.7756L8.96484 11.5816L9.56639 12.2802L9.15889 13.037L9.95449 12.6877L10.5949 13.3863L10.4978 12.4548Z" fill="#699635"/>
<path d="M9.80089 15.0554L10.3442 14.3567L9.45159 14.609L8.90827 13.9104V14.7643L8.01562 15.0554L8.90827 15.3464V16.2003L9.45159 15.5017L10.3442 15.754L9.80089 15.0554Z" fill="#699635"/>
<path d="M10.4978 17.6556L10.5949 16.7629L9.95449 17.4615L9.15889 17.1122L9.56639 17.8691L8.96484 18.5677L9.85747 18.3736L10.3038 19.1305L10.4008 18.2378L11.2934 18.0437L10.4978 17.6556Z" fill="#699635"/>
<path d="M12.4008 19.5576L12.0515 18.762L11.8575 19.6546L10.9648 19.7517L11.7216 20.198L11.5276 21.0907L12.2262 20.4891L12.983 20.8966L12.6337 20.101L13.3322 19.4606L12.4008 19.5576Z" fill="#699635"/>
<path d="M15.0003 20.2563L14.3018 19.7129L14.554 20.6056L13.8555 21.1489H14.7093L15.0003 22.0416L15.2914 21.1489H16.1452L15.4467 20.6056L15.6989 19.7129L15.0003 20.2563Z" fill="#699635"/>
<path d="M17.5997 19.5576L16.707 19.4606L17.4056 20.101L17.0563 20.8966L17.8131 20.4891L18.5117 21.0907L18.3176 20.198L19.0744 19.7517L18.1818 19.6546L17.9878 18.762L17.5997 19.5576Z" fill="#699635"/>
<path d="M19.5026 17.6559L18.707 18.0052L19.5997 18.1992L19.6967 19.0919L20.143 18.3351L21.0356 18.5291L20.4341 17.8305L20.8416 17.0737L20.046 17.423L19.4056 16.7244L19.5026 17.6559Z" fill="#699635"/>
<path d="M20.1996 15.0554L19.6562 15.754L20.5489 15.5017L21.0922 16.2003V15.3464L21.9848 15.0554L21.0922 14.7643V13.9104L20.5489 14.609L19.6562 14.3567L20.1996 15.0554Z" fill="#699635"/>
<path d="M19.5026 12.4551L19.4056 13.3477L20.046 12.6491L20.8416 12.9984L20.4341 12.2416L21.0356 11.543L20.143 11.7371L19.6967 10.9802L19.5997 11.8729L18.707 12.067L19.5026 12.4551Z" fill="#699635"/>
<path d="M17.5994 10.5531L17.9487 11.3487L18.1427 10.4561L19.0354 10.359L18.2786 9.91269L18.4726 9.02002L17.774 9.6216L17.0172 9.21408L17.3665 10.0097L16.668 10.6501L17.5994 10.5531Z" fill="#699635"/>
<path d="M16.9984 18.0632H13.7578C13.7578 18.0632 14.2429 16.3555 16.9984 18.0632Z" fill="#FFE62E"/>
<path d="M14.9038 12.1638C14.9038 12.1638 11.2557 16.2585 16.9996 18.0632L14.9038 12.1638Z" fill="#C28FEF"/>
<path d="M14.9023 12.1638C14.9023 12.1638 16.9981 12.6684 16.9981 18.0632C16.9981 18.0632 14.9023 16.8601 14.9023 12.1638Z" fill="#699635"/>
<path d="M13.7568 12.261C13.7568 12.261 13.0582 12.4162 13 13.3671C13 13.3671 13.6404 13.0178 14.3001 13.0178C14.9987 12.9984 13.7568 12.261 13.7568 12.261Z" fill="#FFE62E"/>
<path d="M13.7578 12.2609C13.7578 12.2609 14.2041 13.7164 15.9506 13.0566C15.9506 13.0566 15.1938 11.5041 13.7578 12.2609Z" fill="#C28FEF"/>
</svg>
