<svg width="30" height="31" viewBox="0 0 30 31" fill="none" xmlns="http://www.w3.org/2000/svg">
<path d="M18.0078 0.522461V12.2242H29.709C28.5059 6.30542 23.9069 1.70622 18.0078 0.522461Z" fill="#C94747"/>
<path d="M12.0098 29.9225V18.2207H0.308594C1.5117 24.1201 6.11067 28.7193 12.0098 29.9225Z" fill="#C94747"/>
<path d="M18.0078 18.2207V29.9225C23.9069 28.7193 28.5059 24.1201 29.709 18.2207H18.0078Z" fill="#2A5F9E"/>
<path d="M0.308594 12.2242H12.0098V0.522461C6.11067 1.70622 1.5117 6.30542 0.308594 12.2242Z" fill="#2A5F9E"/>
<path d="M29.7089 12.2243H18.0078V0.522534C17.0569 0.328475 16.0673 0.231445 15 0.231445C13.9327 0.231445 12.9431 0.328475 11.9922 0.522534V12.2243H0.291074C0.0970245 13.1752 0 14.1649 0 15.2322C0 16.2995 0.0970245 17.2893 0.291074 18.2401H11.9922V29.9419C12.9431 30.136 13.9327 30.233 15 30.233C16.0673 30.233 17.0569 30.136 18.0078 29.9419V18.2207H29.7089C29.903 17.2699 30 16.2801 30 15.2128C30 14.1455 29.9224 13.1558 29.7089 12.2243Z" fill="#F9F9F9"/>
<path d="M13.5051 13.8737C13.5051 13.8737 13.3111 13.8155 13.0976 13.8155C13.2529 13.6214 13.2917 13.2139 13.2917 13.2139C13.2917 13.2139 12.9424 13.4079 12.8454 13.6214C12.7872 13.4662 12.6513 13.3303 12.6513 13.3303C12.6513 13.3303 12.4961 13.5244 12.4961 13.6796C12.4961 13.8349 12.7484 14.0871 12.7484 14.0871C12.7484 14.0871 13.0394 14.1842 13.2529 14.1454C13.4081 14.1065 13.5051 13.8737 13.5051 13.8737Z" fill="#699635"/>
<path d="M13.2132 14.359C13.2132 14.359 13.0191 14.359 12.8056 14.4173C12.8638 14.165 12.8056 13.8157 12.8056 13.8157C12.8056 13.8157 12.5534 14.0679 12.4564 14.3202L12.2041 14.0679C12.2041 14.0679 12.1071 14.262 12.1459 14.4173C12.2041 14.5725 12.4952 14.7665 12.4952 14.7665C12.4952 14.7665 12.8444 14.7665 12.9997 14.6695C13.1549 14.6113 13.2132 14.359 13.2132 14.359Z" fill="#83BF4F"/>
<path d="M13.0589 14.9217C13.0589 14.9217 12.8648 14.9799 12.7096 15.0769C12.7096 14.8247 12.5544 14.4753 12.5544 14.4753C12.5544 14.4753 12.3603 14.8247 12.3603 15.0187C12.2051 14.9217 12.0693 14.8635 12.0693 14.8635C12.0693 14.8635 12.011 15.1157 12.1274 15.2128C12.2245 15.368 12.535 15.4651 12.535 15.4651C12.535 15.4651 12.826 15.368 12.9813 15.271C13.0589 15.1158 13.0589 14.9217 13.0589 14.9217Z" fill="#699635"/>
<path d="M13.0209 15.4653C13.0209 15.4653 12.8269 15.5623 12.7298 15.6593C12.6716 15.4071 12.4388 15.116 12.4388 15.116C12.4388 15.116 12.3417 15.4653 12.3805 15.7175C12.2253 15.7175 12.0312 15.6593 12.0312 15.6593C12.0312 15.6593 12.0313 15.9116 12.1865 16.0086C12.3417 16.1057 12.6328 16.1639 12.6328 16.1639C12.6328 16.1639 12.9239 16.0086 12.9821 15.8728C13.118 15.7176 13.0209 15.4653 13.0209 15.4653Z" fill="#83BF4F"/>
<path d="M13.1581 16.0085C13.1581 16.0085 13.0029 16.1638 12.9058 16.2996C12.8088 16.1055 12.4984 15.8533 12.4984 15.8533C12.4984 15.8533 12.4984 16.2608 12.5954 16.4549H12.2461C12.2461 16.4549 12.3043 16.6489 12.4984 16.7459C12.6536 16.8042 13.0029 16.7459 13.0029 16.7459C13.0029 16.7459 13.2551 16.4937 13.2939 16.3384C13.2745 16.222 13.1581 16.0085 13.1581 16.0085Z" fill="#699635"/>
<path d="M13.4091 16.5129C13.4091 16.5129 13.3121 16.707 13.2539 16.8623C13.0986 16.6682 12.7494 16.5712 12.7494 16.5712C12.7494 16.5712 12.8464 16.9205 13.0016 17.1145C12.8464 17.1728 12.6523 17.2116 12.6523 17.2116C12.6523 17.2116 12.8076 17.4056 12.9434 17.4056C13.0987 17.4056 13.3897 17.3086 13.3897 17.3086C13.3897 17.3086 13.5449 17.0175 13.5449 16.8623C13.6226 16.6682 13.4091 16.5129 13.4091 16.5129Z" fill="#83BF4F"/>
<path d="M13.816 16.9592C13.816 16.9592 13.7578 17.1533 13.7578 17.3085C13.5638 17.1533 13.1562 17.1533 13.1562 17.1533C13.1562 17.1533 13.3503 17.4444 13.5638 17.5996C13.4085 17.6579 13.2727 17.7937 13.2727 17.7937C13.2727 17.7937 13.4668 17.9489 13.622 17.9489C13.7772 17.9489 14.0295 17.6967 14.0295 17.6967C14.0295 17.6967 14.1265 17.4056 14.0877 17.1921C14.0101 17.0562 13.816 16.9592 13.816 16.9592Z" fill="#699635"/>
<path d="M14.3207 17.2698C14.3207 17.2698 14.3207 17.4638 14.3789 17.6773C14.1267 17.6191 13.7773 17.6773 13.7773 17.6773C13.7773 17.6773 14.0296 17.9296 14.2819 18.0266L14.0296 18.2789C14.0296 18.2789 14.2237 18.3759 14.3789 18.3371C14.5342 18.2789 14.7282 17.9878 14.7282 17.9878C14.7282 17.9878 14.7282 17.6385 14.6312 17.5415C14.5148 17.425 14.3207 17.2698 14.3207 17.2698Z" fill="#83BF4F"/>
<path d="M16.5703 13.8737C16.5703 13.8737 16.7643 13.8155 16.9778 13.8155C16.8225 13.6214 16.7837 13.2139 16.7837 13.2139C16.7837 13.2139 17.133 13.4079 17.2301 13.6214C17.2883 13.4662 17.4241 13.3303 17.4241 13.3303C17.4241 13.3303 17.5794 13.4856 17.5794 13.6796C17.5794 13.8349 17.3271 14.0871 17.3271 14.0871C17.3271 14.0871 17.036 14.1842 16.8226 14.1454C16.6091 14.0677 16.5703 13.8737 16.5703 13.8737Z" fill="#699635"/>
<path d="M16.8633 14.359C16.8633 14.359 17.0573 14.359 17.2708 14.4173C17.1737 14.165 17.2708 13.8157 17.2708 13.8157C17.2708 13.8157 17.523 14.0679 17.6201 14.3202L17.8723 14.0679C17.8723 14.0679 17.9694 14.262 17.9306 14.4173C17.8723 14.5725 17.5813 14.7665 17.5813 14.7665C17.5813 14.7665 17.2319 14.7665 17.0767 14.6695C16.9215 14.6113 16.8633 14.359 16.8633 14.359Z" fill="#83BF4F"/>
<path d="M17.0195 14.9217C17.0195 14.9217 17.2135 14.9799 17.3688 15.0769C17.3688 14.8247 17.524 14.4753 17.524 14.4753C17.524 14.4753 17.7181 14.8247 17.7181 15.0187C17.8733 14.9217 18.0092 14.8635 18.0092 14.8635C18.0092 14.8635 18.0674 15.1157 17.9509 15.2128C17.8539 15.368 17.5435 15.4651 17.5435 15.4651C17.5435 15.4651 17.2524 15.368 17.0971 15.271C17.0195 15.1158 17.0195 14.9217 17.0195 14.9217Z" fill="#699635"/>
<path d="M17.057 15.4653C17.057 15.4653 17.2511 15.5623 17.3481 15.6593C17.4063 15.4071 17.6392 15.116 17.6392 15.116C17.6392 15.116 17.7362 15.4653 17.6974 15.7175C17.8526 15.6593 18.0466 15.6593 18.0466 15.6593C18.0466 15.6593 18.0467 15.9116 17.8914 16.0086C17.7362 16.1057 17.4451 16.1639 17.4451 16.1639C17.4451 16.1639 17.154 16.0086 17.0958 15.8728C16.96 15.7176 17.057 15.4653 17.057 15.4653Z" fill="#83BF4F"/>
<path d="M16.9224 16.0085C16.9224 16.0085 17.0776 16.1638 17.1746 16.2996C17.2716 16.1055 17.5821 15.8533 17.5821 15.8533C17.5821 15.8533 17.5821 16.2608 17.4851 16.4549H17.8344C17.8344 16.4549 17.7762 16.6489 17.5821 16.7459C17.4269 16.8042 17.0776 16.7459 17.0776 16.7459C17.0776 16.7459 16.8253 16.4937 16.7865 16.3384C16.7089 16.222 16.9224 16.0085 16.9224 16.0085Z" fill="#699635"/>
<path d="M16.6684 16.5129C16.6684 16.5129 16.7655 16.707 16.8237 16.8623C16.9789 16.6682 17.3282 16.5712 17.3282 16.5712C17.3282 16.5712 17.2312 16.9205 17.0759 17.1145C17.2312 17.1728 17.4252 17.2116 17.4252 17.2116C17.4252 17.2116 17.27 17.4056 17.1341 17.4056C16.9789 17.4056 16.6878 17.3086 16.6878 17.3086C16.6878 17.3086 16.5326 17.0175 16.5326 16.8623C16.455 16.6682 16.6684 16.5129 16.6684 16.5129Z" fill="#83BF4F"/>
<path d="M16.2613 16.9592C16.2613 16.9592 16.3195 17.1533 16.3195 17.3085C16.5136 17.1533 16.9211 17.1533 16.9211 17.1533C16.9211 17.1533 16.727 17.4444 16.5136 17.5996C16.6688 17.6579 16.8046 17.7937 16.8046 17.7937C16.8046 17.7937 16.6106 17.9489 16.4553 17.9489C16.3001 17.9489 16.0479 17.6967 16.0479 17.6967C16.0479 17.6967 15.9508 17.4056 15.9896 17.1921C16.0673 17.0562 16.2613 16.9592 16.2613 16.9592Z" fill="#699635"/>
<path d="M15.7552 17.2698C15.7552 17.2698 15.7552 17.4638 15.697 17.6773C15.9492 17.6191 16.2985 17.6773 16.2985 17.6773C16.2985 17.6773 16.0462 17.9296 15.794 18.0266L16.0463 18.2789C16.0463 18.2789 15.8522 18.3759 15.697 18.3371C15.5417 18.2789 15.3477 17.9878 15.3477 17.9878C15.3477 17.9878 15.3477 17.6385 15.4447 17.5415C15.5611 17.2698 15.7552 17.2698 15.7552 17.2698Z" fill="#83BF4F"/>
<path d="M13.5053 13.7575V16.1638C13.5053 16.3579 13.5053 16.5131 13.6023 16.6684C13.6993 16.7654 13.7964 16.8625 13.9516 16.9207H14.5531C14.8442 16.9207 14.8442 16.9789 14.9607 17.1147C15.0577 16.9207 15.2129 16.9207 15.4652 16.9207H15.9697C16.1249 16.8625 16.222 16.8237 16.2608 16.7266C16.416 16.5714 16.416 16.3773 16.416 16.1832V13.8739C16.416 13.7769 16.416 13.7769 16.4742 13.7187L16.8235 13.3694H13.1172L13.5053 13.7575Z" fill="white"/>
<path d="M14.6699 14.8248V13.3694H13.1758L13.5833 13.7769V14.8248H14.6699Z" fill="#002D62"/>
<path d="M15.3086 14.8248V13.3694H16.861L16.4535 13.7769V14.8248H15.3086Z" fill="#CE1126"/>
<path d="M14.6683 15.407H13.5234V16.3579C13.5817 16.7654 13.8727 16.9012 14.125 16.9012H14.6683V15.407Z" fill="#CE1126"/>
<path d="M15.3086 15.407H16.4535V16.3579C16.3952 16.7654 16.1042 16.9012 15.8519 16.9012H15.3086V15.407Z" fill="#002D62"/>
<path d="M14.1065 12.1662C13.6601 12.1662 13.1556 12.2633 12.8063 12.5155C12.6122 12.6126 12.6122 12.6708 12.7093 12.8648L12.457 12.9619C12.3018 13.0201 12.166 13.0589 12.0107 13.1559C11.9137 13.2142 11.9137 13.253 11.8555 13.3112L12.2048 13.253L12.1465 13.35C12.0883 13.447 12.0495 13.5052 11.9913 13.6023C12.0883 13.544 12.1853 13.447 12.2824 13.4082C12.5346 13.253 13.0392 13.253 13.2332 13.0589C13.2915 13.0007 13.2332 12.9619 13.2332 12.8648C13.3885 12.8066 13.4272 12.7678 13.5825 12.7678C14.0288 12.6708 14.2811 12.7678 14.4751 12.7096C14.5333 12.7096 14.6304 12.6514 14.6304 12.6126L14.5722 12.4185H15.2708C15.2708 12.5155 15.1737 12.7096 15.3678 12.7678C15.5618 12.826 15.9693 12.7096 16.2604 12.826L16.6097 12.9231L16.5514 13.0201V13.1171C16.6097 13.1753 16.6485 13.2141 16.7067 13.2141C16.8037 13.2724 16.959 13.3112 17.1142 13.3694C17.5217 13.4664 17.5605 13.4664 17.871 13.6605C17.871 13.6023 17.7157 13.4082 17.6769 13.3112L18.0262 13.3694C17.968 13.2724 17.774 13.1753 17.6769 13.1171L17.2306 12.9619C17.2888 12.8648 17.3277 12.8066 17.2888 12.7678C17.2306 12.6708 16.8425 12.4767 16.7455 12.4767C16.5903 12.4185 16.3962 12.3797 16.241 12.3797C16.0858 12.3215 15.7947 12.3215 15.7947 12.3215C15.7947 12.3215 15.8529 12.1662 15.7364 12.0692C15.6782 12.011 15.5812 12.011 15.4842 12.011C15.1349 11.9528 14.6886 12.011 14.3393 12.011C14.2423 12.011 14.1841 12.011 14.087 12.0692V12.1662" fill="#002D62"/>
<path d="M13.5076 17.6191C13.3136 17.6773 13.2165 17.7161 13.0031 17.8132C12.9449 17.7161 12.8479 17.5609 12.7509 17.4639L12.5956 17.3086C12.4986 17.2504 12.4404 17.2504 12.4016 17.3086L12.3433 17.2116C12.2463 17.0563 12.1493 16.9593 12.0523 16.8623L11.994 16.8041L11.9358 16.7458C11.994 16.9011 11.994 16.9981 12.0328 17.1534C11.9746 17.0952 11.9359 17.0952 11.8776 17.0563C11.8194 17.0563 11.7224 16.9981 11.6836 16.9981L11.7418 17.0563C11.8388 17.1534 11.9358 17.3086 11.994 17.4639C12.0523 17.6191 12.1493 17.8132 12.2851 17.9102C12.2851 17.9102 12.3822 18.0072 12.4404 18.0072C12.5956 18.0655 12.5956 18.0072 12.6344 17.949C12.7314 18.1431 12.7897 18.2013 12.9255 18.3565C13.0807 18.5118 13.2748 18.5118 13.43 18.5118C13.5271 18.5118 13.5853 18.4536 13.6241 18.4148C13.8763 18.2595 13.7211 18.1625 13.7211 18.0654C13.8181 18.0654 14.1286 17.9684 14.2256 17.9102C14.6331 17.852 15.3317 17.8132 15.778 17.9102C15.8362 17.9102 16.2825 18.0654 16.3213 18.0654C16.2631 18.1625 16.2631 18.1625 16.2631 18.2595C16.2631 18.3565 16.3602 18.3565 16.4184 18.4148C16.4766 18.473 16.5154 18.473 16.6124 18.5118H16.8647C17.0199 18.4536 17.117 18.3565 17.214 18.3177C17.311 18.1625 17.3692 18.0654 17.4662 17.9684L17.5244 18.0266H17.6215C17.6797 18.0266 17.7185 17.9684 17.7767 17.9296C17.932 17.8326 18.029 17.6385 18.0678 17.4833C18.126 17.2892 18.223 17.1922 18.3589 17.0369C18.1648 17.0369 18.1066 17.0952 18.0096 17.134L18.0678 16.9399C18.0678 16.8817 18.126 16.7847 18.126 16.7458C18.029 16.8429 17.9708 16.9399 17.8737 17.0369C17.8155 17.0952 17.7767 17.134 17.7767 17.1922C17.6797 17.2892 17.7185 17.2892 17.6797 17.3474C17.4274 17.1922 17.2722 17.5415 17.0781 17.7938C16.7288 17.5997 16.4378 17.5415 16.0303 17.4445C15.9332 17.4445 15.875 17.4444 15.778 17.3862C15.2735 17.328 14.7301 17.328 14.2256 17.3862C13.9151 17.5221 13.7211 17.5609 13.5076 17.6191Z" fill="#CE1126"/>
<path d="M14.8649 13.2722V13.5633H14.5156V13.8544H14.8649V15.0576H15.156V13.8544H15.4471V13.5633H15.156V13.2722H14.8649Z" fill="#EAC102"/>
<path d="M13.9727 15.3098L15.331 14.5142L16.0878 15.5621L14.6325 16.513L13.9727 15.3098Z" fill="#201B18"/>
<path d="M14.1055 15.0576L15.2503 14.4172L15.8519 15.2711L14.6488 16.0667L14.1055 15.0576Z" fill="#C9C9C9"/>
</svg>
