<svg width="30" height="31" viewBox="0 0 30 31" fill="none" xmlns="http://www.w3.org/2000/svg">
<path d="M30 15.2664H0C0 18.022 0.756801 20.5642 1.99871 22.7764H28.0013C29.2626 20.5642 30 18.022 30 15.2664Z" fill="#2A5F9E"/>
<path d="M15 0.265625C6.6947 0.265625 0 6.96068 0 15.2664H30C30 6.96068 23.3053 0.265625 15 0.265625Z" fill="#FFE62E"/>
<path d="M15.0013 30.2672C20.5511 30.2672 25.4023 27.2593 28.0026 22.7571H2C4.60026 27.2787 9.45148 30.2672 15.0013 30.2672Z" fill="#ED4C5C"/>
<path d="M11.6992 14.0437L12.1067 14.4513L12.2814 13.9855L12.3396 13.6945C12.2814 12.8794 12.3396 12.0449 12.3396 12.0449L12.456 12.1614L11.9903 11.6956L11.6992 11.4045V14.0437Z" fill="#034EA2"/>
<path d="M12.3203 13.6946L12.7278 12.472L12.3203 12.0645V13.6946Z" fill="#ED1C24"/>
<path d="M11.6996 11.4047L11.9907 11.6958L10.6129 10.2985C10.5547 10.2403 10.5547 11.5211 10.5547 12.9377L11.6996 14.1021V11.4047Z" fill="#FFDD00"/>
<path d="M12.1079 19.031C11.1377 18.4489 11.0213 16.6247 11.0213 16.3336V13.1704L11.3123 13.4615L9.93456 12.0643C9.81813 11.9479 9.93456 15.8679 9.93456 17.5756C9.93456 18.3906 10.4585 21.2627 13.311 19.8073C13.311 19.8073 14.747 19.2833 15.1933 18.6429H14.9022C14.844 18.7011 14.7858 18.7011 14.7276 18.7011C13.0781 19.8461 12.1079 19.031 12.1079 19.031Z" fill="#FFDD00"/>
<path d="M11.0038 16.3337C11.0038 16.5666 11.1202 18.3907 12.0322 18.9729C12.0322 18.9729 13.0024 19.788 14.7295 18.6818C14.2056 18.9147 13.8175 18.9147 13.5264 18.8565C12.7308 18.6236 11.8576 17.6921 11.7411 16.683C11.6247 15.6933 11.6247 13.8109 11.6247 13.8109L11.7411 13.9274L11.2754 13.4616L10.9844 13.2288V16.3337" fill="#034EA2"/>
<path d="M12.2075 15.0918V14.335C12.0329 14.1603 12.2658 14.3932 11.8 13.9275L11.6836 13.811V13.8693C11.6836 14.1021 11.6836 15.8099 11.8 16.6831C11.9165 17.6728 12.7703 18.6237 13.5853 18.8566C13.8764 18.9148 14.2644 18.9148 14.7884 18.6819C14.8466 18.6819 14.8466 18.6237 14.9048 18.6237C13.3718 18.4297 12.3822 17.0324 12.2075 15.0918Z" fill="#ED1C24"/>
<path d="M17.9483 19.0895C18.8603 18.5073 19.035 16.6832 18.9767 16.4503V13.2872L18.6857 13.5782L20.0634 12.181C20.1798 12.0646 20.0634 15.9846 20.0634 17.6923C20.0634 18.5073 19.5395 21.3794 16.687 19.924C16.687 19.924 15.251 19.4 14.8047 18.7596H15.0958C15.154 18.7596 15.2122 18.8179 15.2122 18.8179C16.978 19.9046 17.9483 19.0895 17.9483 19.0895Z" fill="#FFDD00"/>
<path d="M18.9796 16.3919C18.9796 16.6248 18.8632 18.449 17.9512 19.0311C17.9512 19.0311 16.9809 19.8462 15.2539 18.7401C15.7778 18.9729 16.1659 18.9729 16.457 18.9147C17.2526 18.6818 18.1258 17.7503 18.2422 16.7412C18.3587 15.7515 18.3587 13.8692 18.3587 13.8692L18.2422 13.9856L18.7079 13.5198L18.999 13.2288V16.3919" fill="#034EA2"/>
<path d="M17.834 15.1499V14.3931L18.2415 13.9856L18.358 13.8691V13.9273C18.358 14.1602 18.3579 15.8679 18.2415 16.7412C18.1251 17.7309 17.3295 18.6818 16.4563 18.9729C16.1652 19.0311 15.7771 19.0311 15.2532 18.7982C15.195 18.7982 15.1949 18.74 15.1367 18.74C16.6309 18.4878 17.6593 17.0905 17.834 15.1499Z" fill="#ED1C24"/>
<path d="M12.168 14.7619C12.168 16.819 13.4681 18.4685 15.0205 18.4685C16.5729 18.4685 17.873 16.819 17.873 14.7619C17.873 12.7049 16.5729 11.0554 15.0205 11.0554C13.4681 11.0748 12.168 12.7631 12.168 14.7619Z" fill="#8CDDEA"/>
<path d="M12.168 14.917C12.168 16.974 13.4681 18.6235 15.0205 18.6235C16.6117 18.6235 17.873 16.974 17.873 14.917H12.168Z" fill="#6DD337"/>
<path d="M12.2656 15.0142L17.6602 15.1112L17.7184 14.7037C17.7184 14.6454 17.8154 14.6066 17.6602 14.6066C17.0586 14.5484 17.3109 14.5096 16.9616 14.5096C16.8646 14.5096 14.5554 13.9663 14.3614 13.9663C14.1673 13.908 12.3626 14.2185 12.3626 14.2185L12.2656 15.0142Z" fill="#557176"/>
<path d="M12.207 14.0632L13.0609 14.4124C13.0609 14.4124 14.1669 14.2184 14.264 14.2572C14.361 14.3154 15.3118 14.4513 15.37 14.4513H16.8254H16.7672C16.6702 14.3931 15.5641 14.1019 15.4671 14.0437C15.4088 13.9855 14.5745 13.6944 14.5162 13.5974C14.4192 13.5004 13.8176 13.1511 13.7206 13.1511C13.6042 13.1122 12.207 14.0632 12.207 14.0632Z" fill="white"/>
<path d="M16.2038 11.1718C16.2038 11.1718 15.6605 10.8225 14.9619 10.8225C14.4186 10.8225 13.8558 11.1136 13.8558 11.1136C13.2543 11.4629 12.7497 12.1227 12.4587 12.9184C12.2646 13.4617 12.1094 14.1215 12.1094 14.7619C12.1094 16.7025 13.1573 18.2162 14.5156 18.6043C14.5156 18.6043 14.7097 18.7013 14.9619 18.7013C15.2142 18.7013 15.4664 18.6431 15.4664 18.6431C16.8248 18.2938 17.9115 16.7413 17.9115 14.8007C17.9115 12.278 15.9516 10.9778 16.2038 11.1718ZM15.5052 18.4102C15.5052 18.4102 15.253 18.4685 15.0007 18.4685C14.7485 18.4685 14.4962 18.4102 14.4962 18.4102C13.2931 18.0609 12.3423 16.6055 12.3423 14.859C12.3423 14.2574 12.4975 13.617 12.6915 13.1124C12.9826 12.4138 13.4484 11.8122 13.9917 11.5211C13.9917 11.5211 14.535 11.1718 15.0007 11.1718C15.6411 11.1718 16.1456 11.5211 16.1456 11.5211C17.0382 12.0645 17.698 13.3647 17.698 14.8201C17.6592 16.6249 16.7083 18.1191 15.5052 18.4102Z" fill="#B1BABF"/>
<path d="M13.3135 14.8784L14.1673 16.0234L12.8672 16.7802C12.8672 16.7802 12.9642 17.0713 13.2165 17.4206C13.4687 17.7117 14.0703 18.3715 14.6136 18.4297C15.2152 18.4879 15.6227 18.4879 15.972 18.2745C16.263 18.0804 16.7287 17.8281 17.0198 17.3236C17.3109 16.8772 17.3109 16.7802 17.3109 16.7802C17.3109 16.7802 15.4092 16.3727 15.3704 16.3727C15.3122 16.3145 13.5269 14.9172 13.4687 14.8784C13.4105 14.8202 13.8762 14.2769 13.8762 14.2769L13.3135 14.8784Z" fill="#034EA2"/>
<path d="M14.5547 19.167H15.5055V21.6121H14.5547V19.167Z" fill="#ED1C24"/>
<path d="M13.8164 19.3611H14.7673V21.8062H13.8164V19.3611Z" fill="#034EA2"/>
<path d="M15.2539 19.3611H16.2047V21.8062H15.2539V19.3611Z" fill="#034EA2"/>
<path d="M13.6016 19.3611H14.2031V22.466H13.6016V19.3611Z" fill="#FFDD00"/>
<path d="M15.8164 19.3611H16.418V22.466H15.8164V19.3611Z" fill="#FFDD00"/>
<path d="M12.75 18.3132H17.2519V19.5164H12.75V18.3132Z" fill="white"/>
<path d="M17.8153 8.51318C16.9226 8.51318 15.9718 9.52231 15.0209 9.52231C14.0701 9.52231 13.1193 8.51318 12.2266 8.51318C11.3728 8.51318 8.03516 9.52231 8.03516 9.52231C12.6923 9.52231 15.0403 12.0257 15.0403 12.0257C15.0403 12.0257 17.3884 9.52231 22.0455 9.52231C22.0067 9.52231 18.6497 8.51318 17.8153 8.51318Z" fill="#594640"/>
<path d="M15 8.51318C15.3299 8.51318 15.6015 8.78489 15.6015 9.11479C15.6015 9.44469 15.3299 9.71637 15 9.71637C14.6701 9.71637 14.3984 9.44469 14.3984 9.11479C14.3984 8.78489 14.6701 8.51318 15 8.51318Z" fill="#F9F9F9"/>
</svg>
