<svg width="30" height="31" viewBox="0 0 30 31" fill="none" xmlns="http://www.w3.org/2000/svg">
<path d="M15.0016 0.318848C8.44278 0.318848 2.89299 4.51054 0.855469 10.3129H29.1479C27.1104 4.52994 21.5605 0.318848 15.0016 0.318848Z" fill="#ED4C5C"/>
<path d="M15.0016 30.3202C21.5605 30.3202 27.1104 26.1674 29.1479 20.3262H0.855469C2.89299 26.1674 8.44278 30.3202 15.0016 30.3202Z" fill="#3E4347"/>
<path d="M0.853798 10.313C0.31046 11.8655 0 13.5538 0 15.3197C0 17.0857 0.291055 18.774 0.853798 20.3265H29.1462C29.6895 18.774 30 17.0857 30 15.3197C30 13.5538 29.7089 11.8655 29.1462 10.313H0.853798Z" fill="#F9F9F9"/>
<path d="M14.3015 11.8654C14.4567 11.7684 14.5537 11.8654 14.6508 11.9624C14.709 12.0595 14.709 12.37 14.5925 12.7193C14.5343 12.9133 14.3985 13.1268 14.3015 13.2627C14.4955 13.2627 14.7477 13.2044 15 13.1074C15.2523 13.2044 15.4463 13.2627 15.6986 13.2627C15.6016 13.0686 15.5045 12.6611 15.5433 12.37C15.5433 11.9236 15.4851 11.7684 15.3881 11.6713C15.2911 11.5743 15.0388 11.5161 14.8836 11.5161C14.7866 11.5161 14.7866 11.5743 14.7866 11.5743C14.5925 11.5161 14.4373 11.5161 14.3403 11.5743C14.2432 11.6713 14.2432 11.9236 14.3015 11.8654Z" fill="white"/>
<path d="M17.6569 13.3793C17.5599 12.8359 17.0165 12.9717 16.5508 13.224C16.3568 13.321 16.1433 13.4181 15.9493 13.4181H15.794C15.5418 13.4181 15.2507 13.3599 14.9984 13.2628C14.7462 13.3599 14.4551 13.4181 14.2028 13.4181H14.1058C13.8536 13.4181 13.6595 13.3211 13.4654 13.1658C13.0579 12.9717 12.5146 12.8165 12.3594 13.321C12.4564 13.2628 12.5534 13.1658 12.6116 13.1658L12.4176 17.9591L12.5146 17.862L12.7087 13.2046C12.7669 13.2628 12.9609 13.4569 12.9997 13.4569L12.8445 17.5128L12.9997 17.3575L13.1549 13.5151C13.2132 13.5733 13.349 13.6704 13.4072 13.7092L13.252 17.0664L13.6595 16.7171L14.067 15.3587C13.7177 14.6018 13.7759 13.9614 13.7759 13.9614H13.873C14.1252 13.9614 14.6686 13.8062 14.9208 13.6704C14.979 13.6704 14.979 13.6121 15.0178 13.6121C15.0178 13.6704 15.0761 13.6704 15.1149 13.7092C15.3671 13.8644 15.9104 14.0003 16.1627 14.0003H16.2597C16.2597 14.0003 16.318 14.6407 15.9687 15.3975L16.318 16.6977L16.7255 17.047L16.5702 13.748C16.6285 13.6898 16.7255 13.5927 16.8225 13.5539L16.9778 17.2993L17.133 17.4545L16.9778 13.4569C17.036 13.3987 17.23 13.2628 17.2688 13.2046L17.4629 17.8038L17.5599 17.9009L17.3659 13.1464C17.4047 13.224 17.5405 13.3211 17.6569 13.3793Z" fill="white"/>
<path d="M14.5547 14.1745V16.1151C14.5547 16.1151 14.5546 16.1733 14.6129 16.1733C14.6711 16.2703 14.7681 16.3285 14.8069 16.4255L14.9622 16.5808L15.1174 16.4255L15.3697 16.1733V14.2715C15.2144 14.2133 15.0786 14.1745 14.9622 14.0774C14.9039 14.0192 14.7487 14.0774 14.5547 14.1745Z" fill="white"/>
<path d="M17.1543 18.2695C17.1543 18.0172 16.902 18.0172 16.708 18.0754C16.6498 18.0754 16.6498 18.0755 16.6109 18.1337L16.3199 17.0275L17.9693 18.6188L17.7752 13.418C17.717 12.6224 17.0767 12.8164 16.6304 13.1269C16.3781 13.2822 16.184 13.3792 15.9318 13.3792C15.5825 12.7776 15.7766 11.982 15.5243 11.7879C15.4273 11.6909 15.078 11.5356 14.8257 11.5356C14.6705 11.5356 14.7287 11.6327 14.7287 11.6327C14.4764 11.5745 14.2823 11.5745 14.1853 11.6909C14.0883 11.7491 14.1853 12.2343 14.2435 12.1372C14.3988 11.982 14.4376 12.0402 14.5346 12.1955C14.6316 12.3507 14.4376 12.9523 14.1853 13.3986C13.8943 13.3986 13.642 13.3016 13.3898 13.1463C12.8852 12.8553 12.2448 12.7 12.2448 13.4374L12.0508 18.58L13.7002 17.0275L13.4091 18.0754C13.3509 18.0754 13.3509 18.0755 13.3121 18.0172C13.1181 17.959 12.8658 17.959 12.8658 18.2113C12.5747 18.1531 12.4583 18.6188 12.7688 18.7159C12.7688 18.8711 12.7688 18.9681 12.9628 18.9681C13.4091 19.1234 14.2047 19.1622 15.0197 19.1622C15.8153 19.1622 16.611 19.104 17.0767 18.9681C17.2707 18.9099 17.2707 18.8129 17.2707 18.7159C17.6006 18.6188 17.4454 18.1725 17.1543 18.2695ZM14.5928 16.1154C14.5928 16.0766 14.5928 16.0766 14.5928 16.1154L14.5346 16.0572V14.1555C14.7287 14.0972 14.8839 14.0584 14.9809 13.9614C15.078 14.0584 15.2332 14.1166 15.3884 14.1555V16.0572C15.2914 16.1543 15.2332 16.2513 15.1362 16.3095L14.9809 16.4648L14.8257 16.3095C14.7481 16.2707 14.7093 16.1737 14.5928 16.1154ZM14.5928 12.7776C14.6899 12.4283 14.6899 12.1372 14.6511 12.0208C14.554 11.9238 14.457 11.8267 14.3018 11.9238C14.2436 11.982 14.2436 11.7297 14.36 11.6715C14.457 11.6133 14.6122 11.6133 14.8063 11.6715C14.8063 11.6715 14.8063 11.5745 14.9033 11.6133C15.0585 11.6133 15.3496 11.7103 15.4078 11.7685C15.4661 11.8267 15.5631 12.0208 15.5631 12.4671C15.5631 12.7582 15.6213 13.1658 15.7183 13.3598C15.5243 13.3598 15.272 13.3016 15.0197 13.2046C14.7675 13.3016 14.5734 13.3598 14.3211 13.3598C14.3988 13.1658 14.554 12.9717 14.5928 12.7776ZM13.2927 17.2216L13.4479 13.8644C13.3897 13.8061 13.2927 13.7091 13.1957 13.6703L13.0017 17.4739L12.8464 17.6291L13.0017 13.5733C12.9434 13.5151 12.7494 13.3792 12.7106 13.321L12.5165 17.9784L12.4195 18.0754L12.6136 13.2822C12.5553 13.2822 12.4195 13.3404 12.3613 13.4374C12.5165 12.9329 13.0598 13.0881 13.4674 13.3404C13.6614 13.4957 13.9137 13.5345 14.1077 13.5927H14.2047C14.457 13.5927 14.7092 13.5345 15.0003 13.4374C15.2914 13.5345 15.5437 13.5927 15.7959 13.5927H15.9512C16.1452 13.5345 16.3587 13.4956 16.5527 13.3986C16.999 13.1463 17.5618 12.9911 17.6588 13.5539C17.5618 13.4957 17.4066 13.3986 17.3678 13.3986L17.5618 18.1531L17.4648 18.056L17.2707 13.3598C17.2125 13.418 17.0185 13.6121 16.9797 13.6121L17.1349 17.6097L16.9797 17.4545L16.8244 13.7091C16.7662 13.7673 16.6304 13.8644 16.5721 13.9032L16.7274 17.2022L16.3199 16.8529L15.9706 15.5527C16.3199 14.7958 16.2616 14.1555 16.2616 14.1555H16.1646C15.9124 14.1555 15.369 14.0584 15.1168 13.8644C15.0586 13.8644 15.0586 13.8061 15.0197 13.7673C15.0197 13.7673 14.9615 13.8256 14.9227 13.8256C14.6705 13.9808 14.1271 14.1166 13.8749 14.1166H13.7778C13.7778 14.1166 13.7196 14.757 14.0689 15.5139L13.6614 16.8723L13.2927 17.2216ZM15.0003 18.2307H14.457L14.8063 16.523C14.8645 16.5812 14.9033 16.62 15.0003 16.6782C15.0585 16.62 15.1556 16.5812 15.1944 16.523L15.6019 18.2307H15.0003Z" fill="#C09300"/>
</svg>
