<svg width="30" height="31" viewBox="0 0 30 31" fill="none" xmlns="http://www.w3.org/2000/svg">
<path d="M15.0212 0.353027C8.46231 0.353027 2.91252 4.54472 0.875 10.3471H29.1674C27.1104 4.56412 21.5606 0.353027 15.0212 0.353027Z" fill="#428BC1"/>
<path d="M15.0212 30.3544C21.58 30.3544 27.1298 26.2015 29.1674 20.3604H0.875C2.91252 26.2015 8.46231 30.3544 15.0212 30.3544Z" fill="#428BC1"/>
<path d="M0.853798 10.3472C0.31046 11.8996 0 13.588 0 15.3539C0 17.1199 0.291055 18.8082 0.853798 20.3607H29.1462C29.6895 18.8082 30 17.1199 30 15.3539C30 13.588 29.7089 11.8996 29.1462 10.3472H0.853798Z" fill="#F9F9F9"/>
<path d="M16.7659 13.2969L16.1643 13.8985C16.3584 14.1507 16.4554 14.5 16.4554 14.8494C16.4554 15.7032 15.8151 16.3436 14.9612 16.3436C14.1074 16.3436 13.4671 15.7032 13.4671 14.8494C13.4671 14.5 13.5641 14.209 13.7582 13.8985L13.1566 13.2969C12.8073 13.7044 12.6133 14.1895 12.6133 14.7523C12.6133 15.9943 13.6611 17.0616 14.9224 17.0616C16.1644 17.0616 17.2316 16.0137 17.2316 14.7523C17.3092 14.2478 17.1152 13.7044 16.7659 13.2969Z" fill="#428BC1"/>
<path d="M16.0084 12.0547L15.6591 12.404C15.7562 12.5593 15.8532 12.7533 15.8532 12.9474C15.8532 13.4519 15.4457 13.8012 14.9993 13.8012C14.553 13.8012 14.1455 13.3937 14.1455 12.9474C14.1455 12.7533 14.2038 12.5398 14.3396 12.404L13.9903 12.0547C13.7962 12.307 13.6992 12.5592 13.6992 12.9086C13.6992 13.6654 14.3008 14.2087 14.9993 14.2087C15.6979 14.2087 16.2995 13.6072 16.2995 12.9086C16.3189 12.5592 16.2219 12.307 16.0084 12.0547Z" fill="#428BC1"/>
<path d="M13.2148 14.1118C13.2148 14.1118 12.9625 14.0536 12.7685 14.0536C12.9237 13.8013 12.9625 13.355 12.9625 13.355C12.9625 13.355 12.5551 13.6073 12.4192 13.8013C12.3222 13.6461 12.167 13.452 12.167 13.452C12.167 13.452 12.0117 13.6461 12.0117 13.8596C12.0699 14.0536 12.3028 14.3641 12.3028 14.3641C12.3028 14.3641 12.7103 14.4611 12.9044 14.4223C13.0596 14.3641 13.2148 14.1118 13.2148 14.1118Z" fill="#699635"/>
<path d="M12.8061 14.7136C12.8061 14.7136 12.5538 14.7136 12.3597 14.7719C12.4568 14.5196 12.3597 14.0732 12.3597 14.0732C12.3597 14.0732 12.0686 14.3643 11.9522 14.6748L11.6611 14.3837C11.6611 14.3837 11.5641 14.636 11.6029 14.8301C11.6999 15.0241 12.0104 15.2376 12.0104 15.2376C12.0104 15.2376 12.4179 15.2376 12.5538 15.1406C12.7672 14.9659 12.8061 14.7136 12.8061 14.7136Z" fill="#83BF4F"/>
<path d="M12.6121 15.3539C12.6121 15.3539 12.3598 15.4122 12.2045 15.5092C12.2045 15.2181 12.0493 14.8105 12.0493 14.8105C12.0493 14.8105 11.8552 15.2181 11.797 15.5092C11.6418 15.4122 11.3895 15.3151 11.3895 15.3151C11.3895 15.3151 11.3313 15.5674 11.4478 15.7614C11.603 15.9167 11.9523 16.0525 11.9523 16.0525C11.9523 16.0525 12.3598 15.9555 12.4568 15.8003C12.6703 15.6062 12.6121 15.3539 12.6121 15.3539Z" fill="#699635"/>
<path d="M12.6135 16.0136C12.6135 16.0136 12.3612 16.1688 12.2642 16.2659C12.206 15.9748 11.9149 15.6255 11.9149 15.6255C11.9149 15.6255 11.8179 16.0718 11.8567 16.3241L11.4492 16.2271C11.4492 16.2271 11.4492 16.5182 11.6433 16.6346C11.7985 16.7316 12.1866 16.7898 12.1866 16.7898C12.1866 16.7898 12.5359 16.5958 12.6329 16.4405C12.7105 16.2659 12.6135 16.0136 12.6135 16.0136Z" fill="#83BF4F"/>
<path d="M12.7666 16.654C12.7666 16.654 12.5725 16.8481 12.4755 17.0033C12.3203 16.7511 11.971 16.46 11.971 16.46C11.971 16.46 11.971 16.9063 12.1263 17.1586H11.7188C11.7188 17.1586 11.8158 17.4109 12.0098 17.5079C12.2039 17.6049 12.6114 17.5079 12.6114 17.5079C12.6114 17.5079 12.9024 17.2556 12.9606 17.0616C12.9024 16.9063 12.7666 16.654 12.7666 16.654Z" fill="#699635"/>
<path d="M13.0605 17.2559C13.0605 17.2559 12.9052 17.4499 12.8664 17.6634C12.6724 17.4693 12.2649 17.2559 12.2649 17.2559C12.2649 17.2559 12.3619 17.7022 12.556 17.8962C12.3619 17.9545 12.1484 18.0515 12.1484 18.0515C12.1484 18.0515 12.3037 18.3038 12.4977 18.3038C12.6918 18.3038 13.0411 18.1485 13.0411 18.1485C13.0411 18.1485 13.2351 17.7992 13.2351 17.6052C13.3128 17.4499 13.0605 17.2559 13.0605 17.2559Z" fill="#83BF4F"/>
<path d="M13.5654 17.7603C13.5654 17.7603 13.5071 18.0125 13.5071 18.2066C13.2549 18.0513 12.8086 18.0125 12.8086 18.0125C12.8086 18.0125 13.0608 18.4201 13.2549 18.5559C13.0996 18.6529 12.9056 18.8082 12.9056 18.8082C12.9056 18.8082 13.0996 19.0022 13.3131 18.9634C13.5071 18.9052 13.8176 18.6723 13.8176 18.6723C13.8176 18.6723 13.9147 18.2648 13.8759 18.129C13.8177 17.9155 13.5654 17.7603 13.5654 17.7603Z" fill="#699635"/>
<path d="M14.1088 18.1094C14.1088 18.1094 14.1088 18.3617 14.167 18.5557C13.8759 18.4587 13.4102 18.5557 13.4102 18.5557C13.4102 18.5557 13.7012 18.8468 14.0117 18.9632C13.8565 19.0603 13.7207 19.2543 13.7207 19.2543C13.7207 19.2543 13.9729 19.3514 14.167 19.3126C14.361 19.2155 14.5745 18.905 14.5745 18.905C14.5745 18.905 14.5745 18.4975 14.4774 18.3617C14.4192 18.1482 14.1088 18.1094 14.1088 18.1094Z" fill="#83BF4F"/>
<path d="M16.8047 14.1118C16.8047 14.1118 17.057 14.0536 17.251 14.0536C17.0958 13.8013 17.057 13.355 17.057 13.355C17.057 13.355 17.4645 13.6073 17.6003 13.8013C17.6973 13.6461 17.8526 13.452 17.8526 13.452C17.8526 13.452 18.0078 13.6461 18.0078 13.8596C17.9496 14.0536 17.7167 14.3641 17.7167 14.3641C17.7167 14.3641 17.3092 14.4611 17.1152 14.4223C16.9599 14.3641 16.8047 14.1118 16.8047 14.1118Z" fill="#699635"/>
<path d="M17.2109 14.7136C17.2109 14.7136 17.4632 14.7136 17.6573 14.7719C17.5602 14.5196 17.6573 14.0732 17.6573 14.0732C17.6573 14.0732 17.9483 14.3643 18.0647 14.6748L18.3558 14.3837C18.3558 14.3837 18.4528 14.636 18.414 14.8301C18.317 15.0241 18.0065 15.2376 18.0065 15.2376C18.0065 15.2376 17.599 15.2376 17.4632 15.1406C17.2692 14.9659 17.2109 14.7136 17.2109 14.7136Z" fill="#83BF4F"/>
<path d="M17.4067 15.3539C17.4067 15.3539 17.6589 15.4122 17.8141 15.5092C17.8141 15.2181 17.9694 14.8105 17.9694 14.8105C17.9694 14.8105 18.1634 15.2181 18.2217 15.5092C18.3769 15.4122 18.6292 15.3151 18.6292 15.3151C18.6292 15.3151 18.6874 15.5674 18.571 15.7614C18.4157 15.9167 18.0664 16.0525 18.0664 16.0525C18.0664 16.0525 17.6589 15.9555 17.5231 15.8003C17.3678 15.6062 17.4067 15.3539 17.4067 15.3539Z" fill="#699635"/>
<path d="M17.405 16.0136C17.405 16.0136 17.6573 16.1688 17.7543 16.2659C17.8125 15.9748 18.1035 15.6255 18.1035 15.6255C18.1035 15.6255 18.2006 16.0718 18.1618 16.3241L18.5693 16.2271C18.5693 16.2271 18.5693 16.5182 18.3752 16.6346C18.22 16.7316 17.8319 16.7898 17.8319 16.7898C17.8319 16.7898 17.4826 16.5958 17.3856 16.4405C17.3079 16.2659 17.405 16.0136 17.405 16.0136Z" fill="#83BF4F"/>
<path d="M17.2722 16.654C17.2722 16.654 17.4662 16.8481 17.5632 17.0033C17.7185 16.7511 18.0677 16.46 18.0677 16.46C18.0677 16.46 18.0677 16.9063 17.9125 17.1586H18.32C18.32 17.1586 18.223 17.4109 18.0289 17.5079C17.8349 17.6049 17.4274 17.5079 17.4274 17.5079C17.4274 17.5079 17.1363 17.2556 17.0781 17.0616C17.1169 16.9063 17.2722 16.654 17.2722 16.654Z" fill="#699635"/>
<path d="M16.959 17.2559C16.959 17.2559 17.1142 17.4499 17.153 17.6634C17.3471 17.4693 17.7546 17.2559 17.7546 17.2559C17.7546 17.2559 17.6576 17.7022 17.4635 17.8962C17.6576 17.9545 17.871 18.0515 17.871 18.0515C17.871 18.0515 17.7158 18.3038 17.5217 18.3038C17.3277 18.3038 16.9784 18.1485 16.9784 18.1485C16.9784 18.1485 16.7844 17.7992 16.7844 17.6052C16.7067 17.4499 16.959 17.2559 16.959 17.2559Z" fill="#83BF4F"/>
<path d="M16.4563 17.7603C16.4563 17.7603 16.5146 18.0125 16.5146 18.2066C16.7668 18.0513 17.2132 18.0125 17.2132 18.0125C17.2132 18.0125 16.9609 18.4201 16.7668 18.5559C16.9221 18.6529 17.1161 18.8082 17.1161 18.8082C17.1161 18.8082 16.9221 19.0022 16.7086 18.9634C16.5146 18.9052 16.2041 18.6723 16.2041 18.6723C16.2041 18.6723 16.1071 18.2648 16.1459 18.129C16.2235 17.9155 16.4563 17.7603 16.4563 17.7603Z" fill="#699635"/>
<path d="M15.9111 18.1094C15.9111 18.1094 15.911 18.3617 15.8528 18.5557C16.1439 18.4587 16.6096 18.5557 16.6096 18.5557C16.6096 18.5557 16.3186 18.8468 16.0081 18.9632C16.1633 19.0603 16.2992 19.2543 16.2992 19.2543C16.2992 19.2543 16.0469 19.3514 15.8528 19.3126C15.6588 19.2155 15.4453 18.905 15.4453 18.905C15.4453 18.905 15.4453 18.4975 15.5423 18.3617C15.6588 18.2064 15.9111 18.1094 15.9111 18.1094Z" fill="#83BF4F"/>
<path d="M18.0078 17.3525H12.0117L15.0195 12.3457L18.0078 17.3525ZM12.9044 16.8091H17.057L15.0001 13.3548L12.9044 16.8091Z" fill="#FFCE31"/>
<path d="M15.2702 14.4613L15.0179 14.8688L14.7656 14.4613V13.2581L15.0179 12.8506L15.2702 13.2581V14.4613Z" fill="#3E4347"/>
<path d="M15.0208 13.8599C15.5641 13.8599 16.0298 14.3062 16.0298 14.869C16.0298 15.4123 15.5835 15.8781 15.0208 15.8781C14.4774 15.8781 14.0117 15.4317 14.0117 14.869C14.0117 14.3062 14.458 13.8599 15.0208 13.8599Z" fill="#C94747"/>
<path d="M15.0185 14.1118C14.611 14.1118 14.2617 14.4611 14.2617 14.8687H15.7559C15.7559 14.4029 15.4066 14.1118 15.0185 14.1118Z" fill="#FFC7CE"/>
<path d="M19.8704 15.5478C19.8704 12.8504 17.6777 10.6963 15.0192 10.6963C12.3607 10.6963 10.168 12.8892 10.168 15.5478C10.168 17.4496 11.274 19.0991 12.9235 19.8947L13.2728 19.2931C11.8756 18.6527 10.8666 17.1973 10.8666 15.5478C10.8666 13.2385 12.71 11.3949 15.0192 11.3949C17.3284 11.3949 19.1718 13.2385 19.1718 15.5478C19.1718 17.2555 18.1628 18.6915 16.7268 19.3513L16.9791 19.9918C18.6673 19.2543 19.8704 17.566 19.8704 15.5478Z" fill="#FFCC00"/>
</svg>
