<svg width="30" height="31" viewBox="0 0 30 31" fill="none" xmlns="http://www.w3.org/2000/svg">
<path d="M28.9919 20.3194C26.2382 20.3194 23.9886 18.0698 23.9886 15.3159H4.40234V25.9047C7.09788 28.6004 10.8406 30.307 14.9906 30.307C21.5452 30.307 27.0914 26.1181 29.1276 20.3194H28.9919Z" fill="#ED4C5C"/>
<path d="M28.992 10.3123H29.1472C27.0916 4.51368 21.5454 0.324707 15.0101 0.324707C10.8602 0.324707 7.11742 2.03134 4.42188 4.72703V15.3158H24.0082C23.9888 12.562 26.2383 10.3123 28.992 10.3123Z" fill="#83BF4F"/>
<path d="M29.147 10.3125H4.40234V20.3001H29.147C29.69 18.7486 30.0003 17.0614 30.0003 15.2966C30.0003 13.5318 29.69 11.864 29.147 10.3125Z" fill="#F9F9F9"/>
<path d="M4.40206 4.72705C1.70652 7.42274 0 11.1657 0 15.3159C0 19.466 1.70652 23.209 4.40206 25.9047L9.50227 15.3159L4.40206 4.72705Z" fill="#42ADE2"/>
<path d="M15.8451 11.3789H15.5543L15.3992 11.631L15.244 11.3789H14.9531L15.1083 11.1268L14.9531 10.8747H15.244L15.3992 10.6226L15.5543 10.8747H15.8451L15.69 11.1268L15.8451 11.3789Z" fill="#FFE62E"/>
<path d="M14.6024 11.476L14.3115 11.5342L14.2146 11.8251L14.0207 11.6312L13.7298 11.6894L13.8267 11.3985L13.6328 11.2046L13.9237 11.1464L14.0207 10.8555L14.2146 11.0494L14.5055 10.9912L14.4085 11.2821L14.6024 11.476Z" fill="#FFE62E"/>
<path d="M13.3408 11.7278L13.0887 11.883V12.1739L12.8366 12.0187L12.5845 12.1739L12.6427 11.883L12.3906 11.7278L12.6427 11.5726L12.7009 11.2817L12.953 11.4369L13.2051 11.2817V11.5726L13.3408 11.7278Z" fill="#FFE62E"/>
<path d="M16.1914 11.3789H16.4823L16.6374 11.631L16.7926 11.3789H17.0835L16.9283 11.1268L17.0835 10.8747H16.7926L16.6374 10.6226L16.4823 10.8747H16.1914L16.3466 11.1268L16.1914 11.3789Z" fill="#FFE62E"/>
<path d="M17.4531 11.476L17.744 11.5342L17.841 11.8251L18.0349 11.6312L18.3258 11.6894L18.2288 11.3985L18.4227 11.2046L18.1319 11.1464L18.0349 10.8555L17.841 11.0494L17.5501 10.9912L17.647 11.2821L17.4531 11.476Z" fill="#FFE62E"/>
<path d="M18.6367 11.7278L18.8888 11.883V12.1739L19.1409 12.0187L19.393 12.1739V11.883L19.6451 11.7278L19.393 11.5726V11.2817L19.1409 11.4369L18.8888 11.2817L18.947 11.5726L18.6367 11.7278Z" fill="#FFE62E"/>
<path d="M13.4375 12.1157H18.5377V17.4683C18.5377 19.2719 16.1912 17.8756 15.9973 18.8258C15.6482 17.8174 13.4569 19.2719 13.4569 17.3713V12.1157" fill="#3E4347"/>
<path d="M13.6523 12.3682H18.3453V17.2747C18.3453 18.9231 16.1927 17.682 15.9988 18.5159C15.7079 17.6238 13.6523 18.9231 13.6523 17.1583V12.3682Z" fill="white"/>
<path d="M16.6387 14.3268L16.4836 14.1717C16.4836 14.1717 16.3284 14.2299 16.1345 14.4238C16.1345 14.3268 16.1345 14.1717 16.1927 14.0747H15.9406V14.4238C15.8824 14.3656 15.7855 14.2299 15.5915 14.1717L15.5334 14.3656C15.9794 14.6177 15.7855 16.8092 15.2812 17.7595H16.4836C15.9988 16.0722 16.0957 14.6177 16.6387 14.3268Z" fill="#89664C"/>
<path d="M16.7557 13.2215C16.8527 13.1245 16.8526 13.1245 17.0078 13.1245C17.066 12.9306 17.3569 12.9306 17.415 13.1827C17.6671 13.1245 17.7059 13.2797 17.609 13.4348C17.8611 13.3766 18.1132 13.4348 18.0162 13.7257C18.4622 13.8227 18.3071 14.1717 18.1132 14.2299C18.055 14.4239 17.9192 14.482 17.6671 14.4239C17.3763 14.676 17.1629 14.579 17.0272 14.3269C16.6781 14.3851 16.6199 14.2687 16.4842 14.0748C16.1933 14.1717 16.1351 14.1717 15.9412 14.0166C15.9412 14.2105 15.8442 14.1717 15.7473 14.1136C15.7473 14.3657 15.6503 14.4626 15.4564 14.3657C15.6115 14.7148 15.2043 14.8699 15.0104 14.5596C14.8165 14.5596 14.8165 14.5014 14.7195 14.4626C14.6225 14.7148 14.3704 14.7148 14.2735 14.5596C13.9244 14.5014 13.9244 14.3075 14.2153 14.3075C14.2735 14.1136 14.4092 14.1523 14.5644 14.1523C14.5644 13.9972 14.6613 14.0554 14.7195 14.0554C14.6613 13.9584 14.7195 13.9002 14.8165 13.9002C14.6613 13.6481 14.7583 13.6093 14.9134 13.493C14.8165 13.299 14.9716 13.299 15.1074 13.299C15.1074 13.0469 15.1655 13.0469 15.3982 13.0081C15.3401 12.9112 15.3982 12.853 15.5533 12.853C15.4564 12.6009 15.6115 12.5621 15.8055 12.6009C15.8636 12.2518 16.5618 12.4457 16.5036 12.8918C16.6006 13.0275 16.6394 13.0275 16.7557 13.2215Z" fill="#83BF4F"/>
<path d="M19.7008 16.0723C19.6039 16.6735 18.9445 16.9256 19.0027 17.3134C19.0997 17.4104 19.2936 17.8565 19.2936 17.8565C19.1384 18.0504 19.0415 18.2055 18.4985 18.4576C17.8004 18.7098 16.8502 18.5546 16.8502 18.5546L16.9083 19.1946H15.066L15.1242 18.5546C15.1242 18.5546 14.174 18.7098 13.4759 18.4576C13.0298 18.2637 12.7778 18.0116 12.6226 17.8177L12.9717 17.3134C13.0687 16.9062 12.3705 16.6735 12.2735 16.0723C12.2154 17.0807 11.7306 17.4298 12.3705 17.7207C12.3123 17.8759 12.2735 18.0698 12.2154 18.1667C12.4675 19.3691 14.6588 19.4079 14.6588 19.4079V19.66C14.6588 20.1061 17.4125 20.1061 17.4125 19.66V19.4079C17.4125 19.4079 19.6039 19.3497 19.856 18.1667C19.759 17.9728 19.7008 17.7207 19.7008 17.7207C20.2438 17.4104 19.7396 17.0613 19.7008 16.0723Z" fill="#D3D3D3"/>
</svg>
