<svg width="30" height="31" viewBox="0 0 30 31" fill="none" xmlns="http://www.w3.org/2000/svg">
<path d="M4.5 15.3472V26.0399C7.19729 28.6985 10.9036 30.348 14.9981 30.348C23.3034 30.348 29.9981 23.6529 29.9981 15.3472H4.5Z" fill="#42ADE2"/>
<path d="M4.5 15.347H29.9981C29.9981 7.04126 23.3034 0.346191 14.9981 0.346191C10.9036 0.346191 7.19729 1.99571 4.5 4.65433V15.347Z" fill="#83BF4F"/>
<path d="M4.50194 4.6543C1.70762 7.35173 0 11.1553 0 15.347C0 19.5387 1.70762 23.3422 4.50194 26.0397L29.7089 15.347L4.50194 4.6543Z" fill="#ED4C5C"/>
<path d="M7.48862 11.0584C8.09017 11.0584 8.63354 10.4568 8.63354 9.75823C8.63354 9.05962 8.12898 10.1658 7.48862 10.1658C6.88707 10.1658 6.34375 9.05962 6.34375 9.75823C6.34375 10.4957 6.84826 11.0584 7.48862 11.0584Z" fill="#FFCE31"/>
<path d="M12.4948 17.0935C12.65 16.7442 12.747 16.3366 12.7858 15.9485C13.1934 15.7545 13.4844 15.3081 13.4844 14.7454C13.4844 14.2408 13.2322 14.6871 12.8441 14.9394C12.8441 14.5319 12.7858 14.1438 12.6888 13.7362C12.9411 13.3869 13.0381 12.8824 12.8441 12.3778C12.65 11.9315 12.5918 12.3778 12.3395 12.7854C12.1843 12.4361 11.9903 12.0285 11.738 11.7374C11.835 11.3299 11.6798 10.8836 11.3887 10.5343C11.0976 10.1849 11.1364 10.5925 11.0976 11.0388C10.8066 10.7865 10.4961 10.5343 10.0886 10.3402C9.99156 9.93267 9.73928 9.58338 9.29296 9.38932C8.6526 9.13704 9.44819 10.0297 9.23474 10.5925C8.98247 11.1941 7.7794 11.2329 8.43916 11.4852C8.94369 11.6792 9.48702 11.5822 9.83631 11.2329C10.0886 11.3881 10.3409 11.5822 10.5349 11.7762C10.0304 11.9315 9.38999 11.718 9.77808 12.1256C10.1856 12.5331 10.6707 12.6301 11.1364 12.4749C11.2917 12.7271 11.4275 12.9794 11.544 13.2317C11.0394 13.1347 10.5349 12.7854 10.7871 13.2899C10.9812 13.7945 11.3887 14.0856 11.835 14.1438C11.8932 14.3961 11.9321 14.6871 11.9321 14.9394C11.5245 14.6483 11.2917 14.1826 11.2917 14.7454C11.2917 15.2499 11.544 15.638 11.8933 15.8903C11.835 16.1426 11.7962 16.3949 11.6992 16.6471C11.5052 16.2396 11.4081 15.7933 11.1947 16.2396C11.0394 16.686 11.0394 17.1323 11.2917 17.4816L10.8454 18.0832C10.7871 17.6757 10.8454 17.2876 10.5543 17.6369C10.2632 17.9279 10.108 18.3937 10.1468 18.743C9.95276 18.8982 9.73928 18.9953 9.54524 19.1505C9.64226 18.743 9.83631 18.5101 9.44821 18.646C9.04071 18.8012 8.80787 19.1505 8.69144 19.4998C8.34215 19.5969 7.93462 19.6551 7.54652 19.6551C7.13901 19.6551 6.75093 19.5969 6.40165 19.4998C6.30462 19.1505 5.99411 18.8594 5.64482 18.646C5.23732 18.4907 5.39256 18.743 5.5478 19.1505C5.35375 19.0535 5.14032 18.8982 4.94628 18.743C5.00449 18.3355 4.84923 17.9474 4.53875 17.6369C4.24768 17.2876 4.28649 17.6951 4.24768 18.0832L3.80136 17.4816C3.99541 17.1323 4.05362 16.686 3.89838 16.2396C3.70433 15.7933 3.64614 16.2396 3.39388 16.6471C3.29686 16.3949 3.23864 16.1426 3.19983 15.8903C3.54912 15.6963 3.80136 15.2499 3.80136 14.7454C3.80136 14.2408 3.54913 14.6871 3.16103 14.9394C3.16103 14.6483 3.21925 14.3961 3.25806 14.1438C3.70437 14.0856 4.11185 13.7945 4.3059 13.2899C4.49995 12.7854 4.01481 13.1929 3.51028 13.2317C3.60731 12.9794 3.76256 12.7271 3.9566 12.4749C4.40292 12.6301 4.90745 12.5331 5.31495 12.1256C5.72245 11.718 5.0627 11.9315 4.55818 11.7762C4.75223 11.5822 5.00446 11.3687 5.25673 11.2329C5.60601 11.5822 6.14939 11.6792 6.65392 11.4852C7.31369 11.2329 6.11056 11.1941 5.8583 10.5925C5.60603 9.9909 6.45984 9.09823 5.80007 9.38932C5.39257 9.58338 5.10152 9.93267 5.0045 10.3402C4.65521 10.5343 4.30588 10.7865 3.99541 11.0388C3.93719 10.5925 4.05362 10.2432 3.70433 10.5925C3.35504 10.9418 3.25806 11.3881 3.35508 11.7956C3.10282 12.0867 2.90875 12.4943 2.75351 12.8436C2.55946 12.436 2.46242 11.9897 2.24896 12.436C2.05491 12.9406 2.15195 13.4452 2.40421 13.7945C2.30719 14.202 2.24896 14.5901 2.24896 14.9976C1.74443 14.7065 1.49219 14.2408 1.49219 14.7454C1.49219 15.2887 1.78328 15.7545 2.19078 15.9485C2.28781 16.356 2.38483 16.7442 2.48186 17.0935C1.97733 16.9965 1.53099 16.6472 1.72504 17.1517C1.91909 17.6951 2.42361 18.0056 2.92813 18.0056C3.12218 18.3549 3.37447 18.646 3.62673 18.9564C3.1222 19.1117 2.48186 18.8982 2.86996 19.3058C3.27746 19.7521 3.87901 19.8103 4.32533 19.5969C4.6164 19.8491 4.98508 20.0044 5.27615 20.1984C4.86865 20.5477 4.13124 20.606 4.67458 20.8388C5.21792 21.0911 5.81947 20.9359 6.12995 20.4895C6.18816 20.4895 6.28519 20.5478 6.324 20.5478C6.12995 20.8 6.03292 21.0911 6.03292 21.4404H8.82726C8.82726 21.0911 8.73024 20.8 8.53619 20.5478C8.5944 20.5478 8.69143 20.4895 8.73024 20.4895C9.02131 20.8971 9.62286 21.0911 10.1856 20.8388C10.7289 20.5866 9.99154 20.5477 9.58404 20.1984C9.93332 20.0432 10.2244 19.8491 10.5349 19.5969C10.9812 19.8491 11.5828 19.7521 11.9903 19.3058C12.3978 18.8982 11.738 19.1117 11.2335 18.9564C11.4857 18.6654 11.738 18.3549 11.9321 18.0056C12.4366 18.0638 12.8829 17.7145 13.1351 17.1517C13.4456 16.6472 12.9411 16.9965 12.4948 17.0935Z" fill="#FFCE31"/>
<path d="M7.00391 12.3V20.2953C7.00391 20.9357 8.013 20.9357 8.013 20.2953V12.3C7.9936 11.6402 7.00391 11.6402 7.00391 12.3Z" fill="#FFCE31"/>
<path d="M9.50937 16.3559C9.50937 16.3559 8.15101 16.2977 7.80172 16.7052C7.39422 17.1127 7.39422 17.7143 7.80172 18.0636C8.20923 18.4129 8.81078 18.4712 9.16007 18.0636C9.50936 17.6561 9.50937 16.3559 9.50937 16.3559Z" fill="#FFCE31"/>
<path d="M5.49219 15.3471C5.49219 15.3471 6.8505 15.2889 7.19978 15.6964C7.60729 16.104 7.60729 16.7055 7.19978 17.0548C6.79228 17.4042 6.19073 17.4624 5.84144 17.0548C5.49215 16.6473 5.49219 15.3471 5.49219 15.3471Z" fill="#FFCE31"/>
<path d="M5.49219 12.8437C5.49219 12.8437 6.8505 12.7855 7.19978 13.193C7.60729 13.6005 7.60729 14.2021 7.19978 14.5514C6.79228 14.9007 6.19073 14.959 5.84144 14.5514C5.49215 14.1439 5.49219 12.8437 5.49219 12.8437Z" fill="#FFCE31"/>
<path d="M9.50937 13.8525C9.50937 13.8525 8.15101 13.7943 7.80172 14.2018C7.39422 14.6093 7.39422 15.2109 7.80172 15.5602C8.20923 15.9095 8.81078 15.9677 9.16007 15.5602C9.50936 15.1527 9.50937 13.8525 9.50937 13.8525Z" fill="#FFCE31"/>
<path d="M8.49938 12.3584C8.49938 12.3584 7.85899 12.3584 7.64554 12.5137C7.45149 12.7077 7.45149 13.0182 7.64554 13.2123C7.83959 13.4063 8.15008 13.4063 8.34413 13.2123C8.55759 12.9988 8.49938 12.3584 8.49938 12.3584Z" fill="#FFCE31"/>
</svg>
