<svg width="30" height="31" viewBox="0 0 30 31" fill="none" xmlns="http://www.w3.org/2000/svg">
<path d="M15.0016 30.4272C21.5605 30.4272 27.1103 26.2743 29.1478 20.4331H0.855469C2.89298 26.2743 8.44277 30.4272 15.0016 30.4272Z" fill="#F9F9F9"/>
<path d="M15.0016 0.425781C8.44277 0.425781 2.89298 4.61746 0.855469 10.4198H29.1478C27.0909 4.63687 21.5411 0.425781 15.0016 0.425781Z" fill="#42ADE2"/>
<path d="M29.1462 20.4334C29.6895 18.8809 30 17.1926 30 15.4267C30 13.6607 29.7089 11.9724 29.1462 10.4199H0.853844C0.310507 11.9724 0 13.6607 0 15.4267C0 17.1926 0.291102 18.8809 0.853844 20.4334H29.1462Z" fill="#3E4347"/>
</svg>
