<svg width="30" height="31" viewBox="0 0 30 31" fill="none" xmlns="http://www.w3.org/2000/svg">
<path d="M14.9901 0.401855C9.84448 0.401855 5.33965 2.94568 2.64062 6.90706H27.359C24.66 2.9651 20.1552 0.401855 14.9901 0.401855Z" fill="#2A5F9E"/>
<path d="M14.99 30.4227C20.1356 30.4227 24.6405 27.8789 27.3396 23.9175H2.62109C5.33954 27.8789 9.84439 30.4227 14.99 30.4227Z" fill="#2A5F9E"/>
<path d="M28.5049 8.90723H1.49514C0.54368 10.8491 0 13.0628 0 15.4124C0 17.7621 0.54368 19.9564 1.49514 21.9176H28.5049C29.4563 19.9758 30 17.7621 30 15.4124C30 13.0628 29.4563 10.8685 28.5049 8.90723Z" fill="#C94747"/>
<path d="M1.49609 21.9175C1.84561 22.6165 2.2534 23.2768 2.64175 23.9176H27.3602C27.8068 23.2768 28.2146 22.6165 28.5058 21.9175H1.49609Z" fill="#FFCE31"/>
<path d="M28.5058 8.90734C28.1563 8.20828 27.7485 7.54804 27.3602 6.90723H2.64175C2.19515 7.54804 1.78736 8.20828 1.49609 8.90734H28.5058Z" fill="#FFCE31"/>
<path d="M28.2148 15.2183H1.78759C1.63225 15.2183 1.53516 15.3154 1.53516 15.4124C1.53516 15.5095 1.63225 15.6066 1.78759 15.6066H28.2148C28.3701 15.6066 28.4672 15.5095 28.4672 15.4124C28.4672 15.3154 28.3507 15.2183 28.2148 15.2183Z" fill="#FFCE31"/>
<path d="M5.18269 13.6645H24.6002L25.4934 13.9557L26.8526 13.5091L25.4934 13.0625L24.6002 13.3538H5.18269C5.08561 13.3538 5.02734 13.412 5.02734 13.5091C5.04676 13.6062 5.14386 13.6645 5.18269 13.6645Z" fill="#FFCE31"/>
<path d="M3.94051 14.519H23.358L24.2512 14.8102L25.6104 14.3636L24.2512 13.917L23.358 14.2083H3.94051C3.84342 14.2083 3.78516 14.2665 3.78516 14.3636C3.78516 14.4607 3.84342 14.519 3.94051 14.519Z" fill="#FFCE31"/>
<path d="M22.7557 15.4124C21.1635 16.8688 19.047 19.8204 14.8528 19.8204C11.1441 19.8204 12.4062 15.4124 12.4062 15.4124C12.4062 15.4124 11.1635 11.0044 14.8528 11.0044C19.047 11.0044 21.2023 13.956 22.7557 15.4124Z" fill="white"/>
<path d="M14.2929 12.558C14.7007 13.0047 14.3512 13.16 14.7978 13.1988C15.2444 13.2377 14.992 13.6455 15.3997 13.7037C15.691 13.7037 15.3415 14.7523 15.6522 15.063C15.9046 15.4125 16.157 15.1601 16.157 15.4125C16.157 15.665 15.3997 15.665 15.3997 16.4612C15.3997 16.9078 14.7589 16.966 14.7589 17.2573C14.7007 17.5486 15.9628 17.7039 15.9046 17.9564C15.8463 18.2088 14.6036 18.1505 14.5065 18.4612C14.5065 18.6554 16.3512 18.9079 16.5065 19.6069C16.2541 19.704 15.458 19.7623 14.856 19.7623C11.1473 19.7623 8.54536 16.8689 6.95312 15.3543C8.54536 13.8979 11.1473 10.9463 14.856 10.9463C14.856 11.0045 13.7493 11.9561 14.2929 12.558Z" fill="#3E4347"/>
<path d="M9.90234 13.8589H10.3101V15.0046H9.90234V13.8589Z" fill="white"/>
<path d="M9.90234 15.8203H10.3101V16.966H9.90234V15.8203Z" fill="white"/>
<path d="M10.6406 13.8589H11.0484V15.0046H10.6406V13.8589Z" fill="white"/>
<path d="M10.6406 15.8203H11.0484V16.966H10.6406V15.8203Z" fill="white"/>
<path d="M11.4375 13.8589H11.8453V15.0046H11.4375V13.8589Z" fill="white"/>
<path d="M11.4375 15.8203H11.8453V16.966H11.4375V15.8203Z" fill="white"/>
<path d="M12.1953 13.8589H12.6031V15.0046H12.1953V13.8589Z" fill="white"/>
<path d="M12.1953 15.8203H12.6031V16.966H12.1953V15.8203Z" fill="white"/>
<path d="M12.9531 13.8589H13.3609V15.0046H12.9531V13.8589Z" fill="white"/>
<path d="M12.9531 15.8203H13.3609V16.966H12.9531V15.8203Z" fill="white"/>
<path d="M13.7461 13.8589H14.1538V15.0046H13.7461V13.8589Z" fill="white"/>
<path d="M13.7461 15.8203H14.1538V16.966H13.7461V15.8203Z" fill="white"/>
<path d="M15.6875 13.8589H16.0952V15.0046H15.6875V13.8589Z" fill="#3E4347"/>
<path d="M15.6875 15.8203H16.0952V16.966H15.6875V15.8203Z" fill="#3E4347"/>
<path d="M16.4453 13.8589H16.8531V15.0046H16.4453V13.8589Z" fill="#3E4347"/>
<path d="M16.4453 15.8203H16.8531V16.966H16.4453V15.8203Z" fill="#3E4347"/>
<path d="M17.2422 13.8589H17.6499V15.0046H17.2422V13.8589Z" fill="#3E4347"/>
<path d="M17.2422 15.8203H17.6499V16.966H17.2422V15.8203Z" fill="#3E4347"/>
<path d="M18 13.8589H18.4078V15.0046H18V13.8589Z" fill="#3E4347"/>
<path d="M18 15.8203H18.4078V16.966H18V15.8203Z" fill="#3E4347"/>
<path d="M18.7578 13.8589H19.1656V15.0046H18.7578V13.8589Z" fill="#3E4347"/>
<path d="M18.7578 15.8203H19.1656V16.966H18.7578V15.8203Z" fill="#3E4347"/>
<path d="M19.5547 13.8589H19.9625V15.0046H19.5547V13.8589Z" fill="#3E4347"/>
<path d="M19.5547 15.8203H19.9625V16.966H19.5547V15.8203Z" fill="#3E4347"/>
<path d="M13.5921 12.3055C11.6892 11.0045 11.1456 12.9075 11.2815 13.7036C11.5339 13.4512 12.6795 14.4998 13.3785 14.5969C12.8543 14.2668 14.6018 13.0046 13.5921 12.3055Z" fill="#428BC1"/>
<path d="M27.2626 17.5681C28.6607 15.8204 26.6219 15.3155 25.7092 15.4709C26.0005 15.6651 24.8549 16.7719 24.7578 17.4127C25.1462 16.869 26.5054 18.4613 27.2626 17.5681Z" fill="#428BC1"/>
<path d="M3.59402 15.3154C1.28334 15.7232 2.39012 17.3738 3.18623 17.8592C3.12798 17.5097 4.77848 17.4515 5.34159 17.0048C4.64256 17.1213 4.7979 15.063 3.59402 15.3154Z" fill="#428BC1"/>
</svg>
