<svg width="30" height="31" viewBox="0 0 30 31" fill="none" xmlns="http://www.w3.org/2000/svg">
<path d="M15.0017 30.3832C21.5605 30.3832 27.1103 26.2303 29.1478 20.3892H0.855469C2.89298 26.2303 8.44281 30.3832 15.0017 30.3832Z" fill="#ED4C5C"/>
<path d="M15.0017 0.381836C8.44281 0.381836 2.89298 4.57352 0.855469 10.3759H29.1478C27.1103 4.59293 21.5605 0.381836 15.0017 0.381836Z" fill="#699635"/>
<path d="M29.1462 20.3895C29.6895 18.837 30 17.1487 30 15.3827C30 13.6168 29.7089 11.9285 29.1462 10.376H0.853797C0.31046 11.9285 0 13.6168 0 15.3827C0 17.1487 0.291055 18.837 0.853797 20.3895H29.1462Z" fill="#FFCE31"/>
<path d="M17.701 21.8483C21.2755 20.3676 22.9728 16.2695 21.4922 12.6948C20.0116 9.12023 15.9137 7.42276 12.3393 8.90344C8.76485 10.3841 7.06746 14.4823 8.54806 18.0569C10.0287 21.6315 14.1266 23.329 17.701 21.8483Z" fill="#428BC1"/>
<path d="M16.9011 16.0426L19.9477 13.8886H16.2025L14.9994 10.3955L13.8545 13.8886H10.1094L13.1559 16.0426L12.011 19.5357L15.0188 17.3816L18.0654 19.5357L16.9011 16.0426ZM18.6475 14.2767L16.7458 15.6351L16.2995 14.2767H18.6475ZM13.6023 15.8874L14.1456 14.2961H15.892L16.4353 15.8874L14.98 16.8965L13.6023 15.8874ZM14.9994 11.6763L15.7562 13.8692H14.3008L14.9994 11.6763ZM11.3513 14.2767H13.6993L13.253 15.6351L11.3513 14.2767ZM12.7484 18.4878L13.447 16.2949L14.6501 17.1488L12.7484 18.4878ZM17.2503 18.4878L15.3487 17.1294L16.5518 16.2755L17.2503 18.4878Z" fill="#FFCE31"/>
<path d="M14.8047 18.041V20.3891H15.2122V18.041L15.0181 17.8857L14.8047 18.041Z" fill="#FFCE31"/>
<path d="M11.9522 15.7319L10.0117 16.2753L10.1087 16.6828L12.4179 16.0424L11.9522 15.7319Z" fill="#FFCE31"/>
<path d="M13.5433 13.4421L13.6403 13.0346L12.0879 11.1328L11.7969 11.3851L13.4463 13.4421H13.5433Z" fill="#FFCE31"/>
<path d="M16.5534 13.4421L18.2028 11.3851L17.9118 11.1328L16.3594 13.0346L16.4564 13.4421H16.5534Z" fill="#FFCE31"/>
<path d="M18.0479 15.7319L17.6016 16.023L19.9108 16.6634L20.0078 16.2559L18.0479 15.7319Z" fill="#FFCE31"/>
</svg>
