<svg width="30" height="31" viewBox="0 0 30 31" fill="none" xmlns="http://www.w3.org/2000/svg">
<path d="M27.9055 17.533C29.0623 10.4051 24.222 3.68899 17.0945 2.53218C9.96697 1.37537 3.25123 6.21593 2.09448 13.3438C0.937726 20.4717 5.778 27.1878 12.9055 28.3446C20.033 29.5014 26.7488 24.6609 27.9055 17.533Z" fill="#2A5F9E"/>
<path d="M14.9937 6.65137L15.2982 7.61548H16.2961L15.518 8.22442L15.8224 9.18853L14.9937 8.57962L14.165 9.18853L14.4694 8.22442L13.6914 7.61548H14.6893L14.9937 6.65137Z" fill="#FFCE31"/>
<path d="M14.9937 21.4683L15.2982 22.4324H16.2961L15.518 22.9906L15.8224 23.9885L14.9937 23.3796L14.165 23.9885L14.4694 22.9906L13.6914 22.4324H14.6893L14.9937 21.4683Z" fill="#FFCE31"/>
<path d="M18.6461 20.2505L18.9505 21.2146H19.9992L19.1705 21.8235L19.4749 22.7877L18.6461 22.1787L17.8174 22.7877L18.1726 21.8235L17.3438 21.2146H18.3417L18.6461 20.2505Z" fill="#FFCE31"/>
<path d="M21.1813 17.7134L21.4857 18.6775H22.5344L21.7056 19.2864L22.01 20.2505L21.1813 19.6416L20.3525 20.2505L20.7077 19.2864L19.8789 18.6775H20.8769L21.1813 17.7134Z" fill="#FFCE31"/>
<path d="M22.4 14.0596L22.7044 15.0237H23.7023L22.8735 15.6326L23.1779 16.5967L22.4 15.9878L21.5711 16.5967L21.8756 15.6326L21.0469 15.0237H22.0448L22.4 14.0596Z" fill="#FFCE31"/>
<path d="M21.1813 10.3555L21.4857 11.3534H22.5344L21.7056 11.9116L22.01 12.8757L21.1813 12.3175L20.3525 12.8757L20.7077 11.9116L19.8789 11.3534H20.8769L21.1813 10.3555Z" fill="#FFCE31"/>
<path d="M18.6461 7.81836L18.9505 8.81632H19.9992L19.1705 9.37448L19.4749 10.3386L18.6461 9.78043L17.8174 10.3386L18.1726 9.37448L17.3438 8.81632H18.3417L18.6461 7.81836Z" fill="#FFCE31"/>
<path d="M11.3218 20.2505L11.0173 21.2146H9.96875L10.7975 21.8235L10.493 22.7877L11.3218 22.1787L12.1506 22.7877L11.7954 21.8235L12.6241 21.2146H11.6262L11.3218 20.2505Z" fill="#FFCE31"/>
<path d="M8.8023 17.7134L8.49789 18.6775H7.44922L8.27805 19.2864L7.97355 20.2505L8.8023 19.6416L9.63113 20.2505L9.27593 19.2864L10.1047 18.6775H9.10679L8.8023 17.7134Z" fill="#FFCE31"/>
<path d="M7.58363 14.0596L7.27913 15.0237H6.28125L7.11 15.6326L6.80559 16.5967L7.58363 15.9878L8.41237 16.5967L8.10796 15.6326L8.93671 15.0237H7.93883L7.58363 14.0596Z" fill="#FFCE31"/>
<path d="M8.8023 10.3555L8.49789 11.3534H7.44922L8.27805 11.9116L7.97355 12.8757L8.8023 12.3175L9.63113 12.8757L9.27593 11.9116L10.1047 11.3534H9.10679L8.8023 10.3555Z" fill="#FFCE31"/>
<path d="M11.3218 7.81836L11.0173 8.81632H9.96875L10.7975 9.37448L10.493 10.3386L11.3218 9.78043L12.1506 10.3386L11.7954 9.37448L12.6241 8.81632H11.6262L11.3218 7.81836Z" fill="#FFCE31"/>
</svg>
