<svg width="30" height="31" viewBox="0 0 30 31" fill="none" xmlns="http://www.w3.org/2000/svg">
<path d="M4.69531 5.12891H15.3487V15.8216H4.69531V5.12891Z" fill="#2A5F9E"/>
<path d="M8.46068 3.57666V6.46815H4.8125L12.0117 15.4725H15.0195V11.7272L8.46068 3.57666Z" fill="white"/>
<path d="M15 0.47168V15.4725H0C0 23.7782 6.69465 30.4733 15 30.4733C23.3053 30.4733 30 23.7782 30 15.4725C30 7.16674 23.3053 0.47168 15 0.47168Z" fill="#2A5F9E"/>
<path d="M4.50188 8.9327H1.49412C0.54328 10.9315 0 13.1244 0 15.4919H5.9961V6.44873H4.50188V8.9327Z" fill="white"/>
<path d="M15.0007 13.0271L8.50005 4.97363H5.51172L14.011 15.4722H15.0201V13.0271H15.0007Z" fill="#ED4C5C"/>
<path d="M8.45868 1.96595V4.97387H4.5V6.46812H14.9981V0.47168C12.6501 0.47168 10.4574 1.01506 8.45868 1.96595Z" fill="white"/>
<path d="M14.998 1.96582H8.4392C5.43144 3.46008 2.98636 5.92462 1.49219 8.91313V15.4723H4.49995V4.97374H14.998V1.96582Z" fill="#ED4C5C"/>
<path d="M18.5528 17.2771C18.5528 17.2189 18.1065 17.1218 17.8542 17.1801C17.6602 17.2383 17.2526 18.2862 17.2138 18.325L17.6213 18.8296C17.6213 18.8296 17.8736 18.422 18.1647 18.3832C18.32 18.3832 18.4169 18.4802 18.5721 18.5773C18.5721 18.5773 18.1647 20.0327 17.6796 20.1298H17.4273C17.3691 20.0715 17.3691 19.3341 17.3691 19.3341C17.3691 19.3341 17.2721 18.8878 16.8646 18.9266C16.4571 18.9848 16.457 19.3341 16.457 19.4311C16.457 19.5282 17.2138 21.0806 17.3497 21.1389C17.6019 21.2359 18.3976 20.8866 18.8439 20.3432C19.3484 19.7998 19.4454 18.2862 19.4454 18.2474C19.5036 18.2668 18.5528 17.2771 18.5528 17.2771Z" fill="#89664C"/>
<path d="M26.7031 19.47C26.7031 19.373 26.7031 19.0237 26.2956 18.9655C25.888 18.9073 25.791 19.373 25.791 19.373C25.791 19.373 25.791 20.1298 25.7328 20.1687H25.4805C24.976 20.0716 24.5879 18.6162 24.5879 18.6162C24.6849 18.4609 24.8401 18.3639 24.9954 18.4221C25.2476 18.4803 25.5388 18.8297 25.5388 18.8685C25.5388 18.8685 25.9462 18.4221 25.9462 18.3639C25.9462 18.3639 25.5387 17.2578 25.2865 17.219C25.1312 17.1219 24.6461 17.219 24.6461 17.2772L23.6953 18.2863C23.6953 18.3445 23.7923 19.8388 24.2968 20.3821C24.8013 20.9255 25.5387 21.236 25.791 21.1778C26.0045 21.1196 26.7031 19.5671 26.7031 19.47Z" fill="#89664C"/>
<path d="M17.3091 18.0728C17.1151 18.3638 16.9599 18.5773 16.8628 18.7714C16.7658 18.9266 16.8046 19.1789 17.018 19.47C17.2703 19.8193 19.1138 21.2165 21.5589 21.2165C24.0039 21.2165 25.8667 19.8193 26.0996 19.47C26.2936 19.1207 26.3518 18.9266 26.2548 18.7714C26.1578 18.6161 26.0608 18.3638 25.8085 18.0728C25.8085 18.5191 24.2561 20.0716 21.5006 20.0716C18.8615 20.0716 17.3091 18.4803 17.3091 18.0728Z" fill="#DBB471"/>
<path d="M17.7539 9.72852V16.2295C17.7539 18.1701 19.5003 19.7226 21.596 19.7226C23.6918 19.7226 25.4383 18.1701 25.4383 16.2295V9.72852H17.7539Z" fill="#42ADE2"/>
<path d="M25.4575 14.4828C25.4575 14.4828 24.0021 13.4736 23.517 13.4736C23.0319 13.4736 22.1587 14.4828 21.5765 14.4828C20.975 14.4828 20.1794 13.4736 19.6749 13.4736C19.1703 13.4736 17.7344 14.4828 17.7344 14.4828V15.4919C17.7344 15.4919 19.1897 14.4828 19.6749 14.4828C20.1794 14.4828 21.0332 15.4919 21.6154 15.4919C22.1975 15.4919 23.0707 14.4828 23.5558 14.4828C24.0604 14.4828 25.4963 15.4919 25.4963 15.4919V14.4828H25.4575Z" fill="white"/>
<path d="M25.3992 16.7337C25.3992 16.7337 24.0021 15.7246 23.4976 15.7246C22.993 15.7246 22.1392 16.7337 21.5571 16.7337C20.9555 16.7337 20.1017 15.7246 19.6166 15.7246C19.1703 15.7246 17.7148 16.7337 17.7148 16.7337C17.7731 17.083 17.8701 17.4323 18.0642 17.7428C18.0642 17.7428 19.2091 16.7337 19.6166 16.7337C20.1211 16.7337 20.9749 17.7428 21.5571 17.7428C22.1004 17.7428 23.0124 16.7337 23.4976 16.7337C23.9051 16.7337 25.05 17.7428 25.05 17.7428C25.2634 17.4323 25.3604 17.083 25.3992 16.7337Z" fill="white"/>
<path d="M24.1967 18.8299C24.1967 18.8299 23.6922 17.8208 23.5564 17.8208C23.0518 17.8208 22.198 18.8299 21.6159 18.8299C21.0725 18.8299 20.1605 17.8208 19.6754 17.8208C19.5201 17.8208 19.0156 18.8299 19.0156 18.8299C19.7142 19.3733 20.6068 19.7226 21.6159 19.7226C22.6055 19.7226 23.4981 19.3733 24.1967 18.8299Z" fill="white"/>
<path d="M20.509 11.1839C20.509 11.7273 20.5091 12.193 19.403 12.193C18.8014 12.193 18.2969 11.1839 18.2969 11.1839C18.2969 11.1839 18.8014 10.1748 19.403 10.1748C20.5091 10.1748 20.509 10.6212 20.509 11.1839Z" fill="white"/>
<path d="M23.8112 12.6782C23.8112 12.9693 23.559 13.1827 23.2679 13.1827H19.9691C19.678 13.1827 19.4258 12.9887 19.4258 12.6782V11.6691C19.4258 11.378 19.678 11.1646 19.9691 11.1646H23.2679C23.559 11.1646 23.8112 11.3586 23.8112 11.6691V12.6782Z" fill="white"/>
<path d="M19.9492 13.4739C19.9492 13.5709 20.2015 13.6679 20.4926 13.6679C20.7837 13.6679 21.0359 13.5709 21.0359 13.4739V12.8723C21.0359 12.7753 20.7837 12.6782 20.4926 12.6782C20.2015 12.6782 19.9492 12.7753 19.9492 12.8723V13.4739Z" fill="white"/>
<path d="M22.1602 13.4739C22.1602 13.5709 22.4125 13.6679 22.7036 13.6679C22.9946 13.6679 23.2468 13.5709 23.2468 13.4739V12.8723C23.2468 12.7753 22.9946 12.6782 22.7036 12.6782C22.4125 12.6782 22.1602 12.7753 22.1602 12.8723V13.4739Z" fill="white"/>
<path d="M24.6056 17.4325V17.2384L24.7026 17.0444L23.1115 17.2384V17.5878C23.0532 17.646 23.0144 17.6848 22.9174 17.743C22.9174 17.1414 22.9756 14.6963 22.9756 14.638H22.8204L22.7621 17.84C22.471 18.0341 22.0054 18.2476 21.5591 18.2476H21.3067C21.3067 17.646 21.365 14.541 21.365 14.541H21.2097C21.2097 14.541 21.1515 17.5878 21.1515 18.2476C20.55 18.1894 20.2977 18.0535 20.1425 17.8983C19.9484 17.743 19.7349 17.4907 19.7349 17.4907V14.7351H19.6379V17.4907L18.6289 17.1414L18.6871 17.4907L19.0946 17.5878C19.0946 17.5878 19.2886 19.1402 21.4038 19.082C23.2084 19.0238 23.907 17.9371 24.0623 17.5878H24.6056V17.4325Z" fill="#89664C"/>
<path d="M19.6561 14.7739C19.5978 14.8321 18.647 14.968 18.8023 14.968C18.9575 14.968 19.6561 15.1232 19.6561 15.065V14.7739Z" fill="#ED4C5C"/>
<path d="M21.2465 14.5215C21.1883 14.5215 20.7031 14.6767 20.7031 14.6767C20.7031 14.6767 21.3047 14.832 21.3047 14.7738C21.3047 14.7156 21.2465 14.5797 21.2465 14.5215Z" fill="#ED4C5C"/>
<path d="M22.8589 14.6768C22.8007 14.6768 22.2185 14.832 22.3156 14.832C22.4126 14.832 22.8589 14.9872 22.8589 14.929C22.8589 14.8708 22.8007 14.6768 22.8589 14.6768Z" fill="#ED4C5C"/>
<path d="M22.3167 15.5695C22.3167 15.5695 22.1226 15.7248 22.1614 15.9771C22.2196 16.2293 22.3167 16.4234 22.3167 16.4234C22.3167 16.4234 22.5107 16.1323 22.763 16.1323C22.957 16.1323 23.4034 16.2875 23.4034 16.2875C23.4034 16.2875 23.3451 15.9383 23.3451 15.7442C23.3451 15.589 23.6944 15.2979 23.6944 15.2979L22.3167 15.5695Z" fill="#FFE62E"/>
<path d="M19.114 15.6663C19.114 15.6663 18.9588 15.7246 19.017 15.9574C19.0752 16.2097 19.211 16.4038 19.211 16.4038C19.211 16.4038 19.3663 16.1515 19.6185 16.1127C19.8126 16.0545 20.22 16.2679 20.22 16.2679C20.22 16.2679 20.1618 16.0157 20.22 15.8216C20.2782 15.5693 20.4723 15.4141 20.4723 15.4141C20.4723 15.4141 19.1528 15.6663 19.114 15.6663Z" fill="#FFE62E"/>
<path d="M20.7033 15.4337C20.7033 15.4919 20.5093 15.6859 20.5481 15.9382C20.6063 16.1905 20.7033 16.3845 20.7422 16.3845C20.7422 16.3845 21.0332 16.1323 21.2854 16.0935C21.5377 16.0352 21.8871 16.2487 21.8288 16.2487C21.8288 16.2487 21.7318 15.9964 21.7318 15.8412C21.7318 15.6859 22.0229 15.1426 22.0229 15.1426L20.7033 15.4337Z" fill="#FFE62E"/>
</svg>
