<svg width="30" height="31" viewBox="0 0 30 31" fill="none" xmlns="http://www.w3.org/2000/svg">
<path d="M29.788 13.421C29.7299 12.9175 29.6331 12.4139 29.4975 11.9297H0.407698L0.117188 13.421H29.788Z" fill="#428BC1"/>
<path d="M0.15625 17.4111C0.214352 17.9147 0.311189 18.4183 0.44676 18.9025H29.5365L29.8271 17.4111H0.15625Z" fill="#428BC1"/>
<path d="M8.98742 1.68359C8.48387 1.87728 7.98028 2.18718 7.49609 2.43897V28.3926C7.99964 28.6831 8.50323 28.9349 8.98742 29.148V1.68359Z" fill="#428BC1"/>
<path d="M12.9766 0.599292V30.291L14.4678 30.446V0.444336C13.9642 0.444336 13.4801 0.483082 12.9766 0.599292Z" fill="#428BC1"/>
<path d="M0 15.4159C0 16.1131 0.0580642 16.7716 0.154901 17.4108H29.845C29.9418 16.7716 30 16.1131 30 15.4159C30 14.7186 29.9418 14.0601 29.845 13.4209H0.154901C0.0580642 14.0601 0 14.7186 0 15.4159Z" fill="#ED4C5C"/>
<path d="M8.98828 29.1291C10.2278 29.6714 11.5835 30.0781 12.978 30.2331V0.580078C11.5835 0.773762 10.2278 1.12238 8.98828 1.68407V29.1291Z" fill="#ED4C5C"/>
<path d="M7.47509 11.9104V2.41992C3.98897 4.47297 1.39382 7.86244 0.386719 11.9104H7.47509Z" fill="#F9F9F9"/>
<path d="M7.47509 18.9023V28.3929C3.98897 26.3398 1.39382 22.9503 0.386719 18.9023H7.47509Z" fill="#F9F9F9"/>
<path d="M14.9723 0.444336H14.4688V11.9298H29.5366C27.9485 5.32518 22.0608 0.444336 14.9723 0.444336Z" fill="#F9F9F9"/>
<path d="M14.4688 18.9023V30.3878H14.9723C22.0608 30.3878 27.9485 25.4876 29.5366 18.9023H14.4688Z" fill="#F9F9F9"/>
</svg>
