<svg width="30" height="31" viewBox="0 0 30 31" fill="none" xmlns="http://www.w3.org/2000/svg">
<path d="M5.00781 5.98096H15.0013V15.975H5.00781V5.98096Z" fill="#2A5F9E"/>
<path d="M8.46062 4.04016V6.98986H4.8125L12.0117 15.9942H15.0195V12.2489L8.46062 4.04016Z" fill="white"/>
<path d="M15 0.974121V15.9749H0C0 24.2807 6.6947 30.9757 15 30.9757C23.3053 30.9757 30 24.2807 30 15.9749C30 7.66919 23.3053 0.974121 15 0.974121Z" fill="#42ADE2"/>
<path d="M4.50194 9.43514H1.49418C0.54334 11.434 0 13.6268 0 15.9943H5.99612V6.95117H4.50194V9.43514Z" fill="white"/>
<path d="M15.0006 13.5298L8.49995 5.47632H5.49219L13.9915 15.9749H15.0006V13.5298Z" fill="#ED4C5C"/>
<path d="M8.4586 2.48778V5.4957H4.5V6.98995H14.9981V0.993528C12.6501 0.974122 10.4573 1.53689 8.4586 2.48778Z" fill="white"/>
<path d="M15.0019 2.48779H8.44305C5.43529 3.94324 2.95146 6.44662 1.49609 9.43513V15.9943H4.50386V5.49572H15.0019V2.48779Z" fill="#ED4C5C"/>
<path d="M18.5508 13.4327V19.9919C18.5508 22.1459 22.4512 23.4461 22.4512 23.4461C22.4512 23.4461 26.3516 22.1459 26.3516 19.9919V13.4327H18.5508Z" fill="white"/>
<path d="M26.3516 15.9749V13.4327H18.5508V15.9749H21.9078V18.6723H18.5508V19.7784H21.9078V23.2327L22.4512 23.4267L22.9945 23.2327V19.7784H26.3516V18.6723H22.9945V15.9749H26.3516Z" fill="#ED4C5C"/>
<path d="M26.0983 15.2762C26.0983 15.218 25.943 15.218 25.9042 15.121C25.846 14.8687 25.8072 14.7717 25.652 14.7717C25.4967 14.7135 25.4579 14.7717 25.4579 14.7717C25.3997 14.8299 25.2057 14.8299 25.1086 14.8299C25.0116 14.8299 24.7594 14.5776 24.7594 14.5388C24.9146 14.5388 25.0116 14.4806 25.1669 14.2865C25.3609 14.0925 25.4579 14.1895 25.4579 14.1895C25.3609 14.3448 25.5161 14.3447 25.5161 14.3447C25.7684 14.2477 25.4579 13.8014 25.4191 13.8014C25.128 14.2477 25.128 13.7432 24.6623 13.7044C24.4101 13.7044 23.9055 13.8014 23.7115 13.8984C23.5174 13.9566 22.9547 13.8014 22.6636 13.8402C21.9068 13.9372 21.9068 13.5491 21.9068 13.5491C21.9068 13.5491 21.4605 13.9566 22.3531 14.3447C22.3531 14.3447 22.0039 13.9955 23.7115 14.0925C24.119 14.0343 24.7594 13.7432 24.9534 13.9372C24.9534 13.9372 24.9534 14.0925 25.0504 14.0925C25.0504 14.0925 25.0504 14.2477 24.5459 14.1895C23.304 14.1313 21.5963 14.7329 21.3441 14.2865C21.1888 14.0343 21.6934 13.9372 21.6934 13.9372C21.5964 13.782 21.3441 13.879 21.3441 13.879C21.3441 13.7238 21.2859 13.5297 21.2859 13.5297C21.0336 13.5879 20.9366 13.7238 20.9366 13.7238C20.9366 13.5297 20.6843 13.4327 20.6843 13.4327C20.7813 13.5297 20.7425 14.4418 20.0828 14.1895C20.0828 14.1895 19.7335 13.9955 19.6365 13.9955C19.5394 13.9955 18.8797 14.2865 19.0349 14.4418C19.0349 14.4418 19.5394 14.1507 19.7917 14.3836C20.0828 14.6747 20.5485 14.6747 20.5485 14.6747C20.4903 14.8299 20.2962 15.218 20.2962 15.218C20.2962 15.218 20.044 15.315 19.8887 15.4121C19.8887 15.4121 19.0349 14.7135 18.9961 15.4121C18.9961 15.5673 19.6947 15.8196 20.1992 15.6061C20.4903 15.5479 20.6067 15.4121 20.6067 15.4121C20.7037 15.4121 22.0039 15.5091 23.401 14.8105C23.6921 14.403 24.0996 14.6164 24.0996 14.6164C24.0996 14.6164 23.401 14.6164 23.4592 15.0628C23.4592 15.1598 23.7503 15.2568 23.7115 15.3539C23.5562 15.5479 23.207 15.1598 23.0711 15.1016C22.9741 15.1016 22.7218 15.1598 22.9741 15.3927C23.2264 15.6838 23.6145 16.0331 24.3324 15.3344C24.4295 15.2374 24.1772 15.1404 24.1384 15.0822C24.0802 15.024 24.1384 15.024 24.1384 15.024C24.3324 15.121 24.3907 14.7717 24.3907 14.7717C24.3907 14.9658 24.5847 15.024 24.5847 15.024C24.6817 14.9269 24.6429 14.6747 24.6429 14.6747C24.8952 15.1792 25.0892 15.0822 25.0892 15.0822C24.934 14.9852 25.031 14.8881 25.031 14.8881C25.1863 15.3927 25.6714 14.9463 25.6714 14.9463C25.6132 15.0045 25.6714 15.0434 25.7296 15.1016C25.7878 15.1598 25.8266 15.1598 25.8266 15.2568C25.8266 15.3539 25.4191 15.4509 25.4191 15.4509C25.4191 15.4509 25.1669 15.4509 25.2251 15.645C25.2057 15.742 26.0983 15.7808 26.0983 15.2762Z" fill="#FFE62E"/>
<path d="M21.1111 21.7773C21.1111 21.622 20.9171 21.2727 20.9171 21.2727C21.4604 21.331 21.6739 20.7682 21.6739 20.7682C21.5186 20.8264 21.2275 20.6711 21.2275 20.6711C21.7321 20.6129 21.6739 20.1278 21.6739 20.1278C21.5768 20.4771 20.9753 20.4189 20.9753 20.4189C21.1693 20.3219 21.2663 19.9725 21.2663 19.9725C21.2081 20.1278 20.8588 20.2248 20.6648 20.3219C20.4707 20.4189 20.5678 20.8264 20.5678 20.8264C20.5096 20.7682 20.3737 20.5741 20.3737 20.4189C20.3737 20.2636 20.2767 20.1666 20.1215 20.1666C19.9662 20.1666 19.8692 20.3219 19.8692 20.3219L19.5781 20.4771H19.8304C19.8304 20.4771 19.9856 20.5353 19.9856 20.6711C19.9856 20.807 19.8304 21.3115 20.0826 21.622C20.2379 21.8161 20.8394 21.9131 20.8394 21.9131L21.0335 22.4565L21.2275 22.2624H21.635C21.4992 22.243 21.1111 21.7773 21.1111 21.7773Z" fill="#CECECE"/>
<path d="M25.7521 20.0889C25.7521 20.0889 25.5969 20.0307 25.3446 19.9337C25.0924 19.8367 24.8401 20.186 24.8401 20.186C24.7431 20.38 25.0342 20.38 25.0342 20.3412C25.0342 20.283 25.1312 20.186 25.2282 20.1472C25.3252 20.089 25.4805 20.3024 25.5775 20.3024C25.7521 20.3412 25.7521 20.0889 25.7521 20.0889Z" fill="#C94747"/>
<path d="M24.0039 20.5935C24.0039 20.5935 24.0039 20.1471 24.4502 20.0889C24.7025 20.0889 25.304 20.38 25.3428 20.6323C25.3817 20.8846 25.1876 21.0787 25.0518 21.1757" fill="#FFE62E"/>
<path d="M25.5941 16.693H26.0404C25.9434 16.499 25.5359 16.499 25.1866 16.5378C25.3806 16.4796 25.6329 16.3825 25.6911 16.3825C25.5941 16.3243 25.1866 16.0332 24.6432 16.5766C24.1387 16.072 23.6924 16.3243 23.5954 16.3825C23.6536 16.3825 23.8865 16.4796 24.0999 16.5378C23.8088 16.4796 23.4013 16.4796 23.2461 16.693H23.6924C23.4984 16.7901 23.4013 16.7901 23.3431 17.0423C23.3431 17.0423 23.5954 16.9841 23.8476 16.8871C23.6924 16.9453 23.5954 17.0423 23.5566 17.1394C23.7506 17.1394 23.9641 17.0812 24.0999 17.0423C24.0029 17.1394 23.9447 17.2946 23.9447 17.3334C24.0417 17.3334 24.1387 17.2364 24.2357 17.1394C24.1775 17.3334 24.1775 17.5857 24.2357 17.6439C24.3328 17.5857 24.391 17.4499 24.4298 17.3528V17.5081H24.6238V17.314C24.6821 17.4693 24.7209 17.6051 24.8179 17.6633C24.8761 17.5663 24.8761 17.3722 24.8179 17.1588C24.9149 17.2558 25.0119 17.3528 25.109 17.3528C25.109 17.2946 25.0507 17.1588 24.9537 17.0617C25.109 17.12 25.303 17.217 25.4971 17.1588C25.4389 17.0617 25.3418 17.0035 25.206 16.9065C25.4583 16.9647 25.7105 17.0617 25.7105 17.0617C25.9046 16.7901 25.8075 16.7901 25.5941 16.693Z" fill="#75A843"/>
<path d="M24.5469 17.0811H24.8379V18.4783H24.5469V17.0811Z" fill="#C94747"/>
<path d="M24.0028 20.5936C23.7117 20.5936 23.9445 21.2922 23.8087 21.1951C23.6147 21.0981 23.5176 21.7385 23.8087 21.952C24.3132 22.3013 24.7013 21.855 24.6625 21.7579C24.5655 21.5639 25.1088 21.4668 25.1088 21.3116C25.1088 20.8846 24.3132 20.5936 24.0028 20.5936Z" fill="#75A843"/>
<path d="M20.9591 17.1394C20.9009 17.0811 20.9009 17.0811 20.9591 17.1394C20.9591 16.9841 20.9009 16.8871 20.8038 16.8871C20.7068 16.7318 20.5516 16.8288 20.4545 16.9841C20.3963 17.0423 20.3575 17.0811 20.2993 17.0811C20.2993 16.6348 20.3575 16.2273 20.9397 16.79C20.9397 16.79 20.9397 16.596 20.6486 16.3437C20.2993 16.0914 20.2023 16.4019 20.1441 16.79C20.0859 16.7318 19.9888 16.596 19.7948 16.4989C19.3873 16.3437 19.3485 16.693 19.3873 17.0423C19.232 16.8483 19.038 16.7512 18.8439 17.0423C18.6499 17.3334 18.7469 17.4887 18.7469 17.4887C19.0962 16.7901 19.2902 17.2364 19.5037 17.5469C19.2514 17.3528 18.9604 17.1976 18.9022 17.5469C18.8439 17.7992 18.9604 17.838 18.9604 17.838C19.0186 17.0423 19.5619 17.8962 19.7172 17.7798V17.7215C19.7754 17.6245 19.7754 17.4304 19.8142 17.217C19.9694 17.314 20.1635 17.6633 20.2605 17.6245V17.5663C20.3187 17.5081 20.3575 17.3722 20.4157 17.217C20.6098 17.1588 20.6098 17.7215 20.7068 17.7215C20.9009 17.6245 21.3084 16.8677 21.3084 17.6245C21.3084 17.6245 21.4054 17.5275 21.3666 17.2752C21.3084 16.9259 21.0755 17.1199 20.862 17.3722C21.0173 16.9647 21.2113 16.5184 21.4636 17.1782C21.4636 17.1782 21.5606 17.0229 21.3666 16.7318C21.3084 16.5766 21.1143 16.79 20.9591 17.1394ZM19.6978 17.0811C19.6395 17.0811 19.6007 17.0811 19.5425 17.1394V16.9841C19.6978 16.8288 19.7948 16.8289 19.8918 16.9259C19.8142 16.8871 19.756 16.9841 19.6978 17.0811ZM19.6007 17.2752C19.6589 17.2752 19.6589 17.2752 19.6007 17.2752C19.6589 17.2752 19.6007 17.3334 19.6007 17.3722C19.6589 17.3334 19.6589 17.3334 19.6007 17.2752ZM20.3575 17.1394C20.3575 17.1976 20.2993 17.2364 20.2993 17.2946V17.1976L20.3575 17.1394ZM20.1635 16.8289C20.1053 16.8289 20.1053 16.8289 20.1635 16.8289ZM19.853 17.1394C19.9112 17.0811 19.95 17.0811 20.0082 17.0811C20.0664 17.1782 20.0665 17.2752 20.0665 17.3334L19.853 17.1394ZM20.5128 17.1782C20.571 17.1199 20.6098 17.0229 20.6098 17.0229C20.8038 17.0229 20.765 17.314 20.7068 17.5275C20.6486 17.3916 20.6098 17.2364 20.5128 17.1782Z" fill="#75A843"/>
<path d="M23.8088 22.0295L23.867 21.9713C23.867 21.9131 23.8088 21.9131 23.8088 21.9131C23.8088 21.9131 23.7506 22.0101 23.7506 21.9713C23.4595 21.7773 23.2461 22.6117 23.2461 22.6117C23.2461 22.6117 24.1581 22.2818 23.8088 22.0295Z" fill="#C94747"/>
<path d="M19.5586 17.6826L19.6556 18.3812L19.8109 18.323L19.7138 17.6244L19.5586 17.6826Z" fill="#C94747"/>
<path d="M20.0859 18.3036L20.1442 17.508L20.2994 17.5274L20.2412 18.323L20.0859 18.3036Z" fill="#C94747"/>
<path d="M20.4141 18.2843L20.5693 18.3425L20.8604 17.7409L20.7051 17.6827L20.4141 18.2843Z" fill="#C94747"/>
</svg>
