<svg width="30" height="31" viewBox="0 0 30 31" fill="none" xmlns="http://www.w3.org/2000/svg">
<path d="M29.5524 12.3775C28.001 5.78374 22.0475 0.877197 15.0081 0.877197H14.5039V12.3775H29.5524Z" fill="#F9F9F9"/>
<path d="M7.50385 2.87469C4.01323 4.9304 1.35648 8.32424 0.40625 12.3775H7.50385V2.87469Z" fill="#F9F9F9"/>
<path d="M0.40625 19.3785C1.35648 23.4317 4.01323 26.8255 7.50385 28.8812V19.3785H0.40625Z" fill="#F9F9F9"/>
<path d="M14.5039 30.8594H15.0081C22.1057 30.8594 28.001 25.9528 29.5912 19.3591H14.5039V30.8594Z" fill="#F9F9F9"/>
<path d="M29.554 12.3775H14.5055V0.877197C11.9651 0.974164 9.56044 1.67234 7.50485 2.87473V12.3775H0.407247C0.155146 13.4829 0 14.6853 0 15.8683C0 17.0513 0.155146 18.2731 0.407247 19.3591H7.50485V28.8619C9.56044 30.0643 11.9457 30.7625 14.5055 30.8594V19.3591H29.5928C29.8449 18.2537 30 17.0513 30 15.8683C30 14.6853 29.8449 13.4829 29.554 12.3775Z" fill="#428BC1"/>
</svg>
