<svg width="30" height="31" viewBox="0 0 30 31" fill="none" xmlns="http://www.w3.org/2000/svg">
<path d="M0 15.8827C0 22.4419 4.19146 27.992 9.99353 30.0296V1.73573C4.21087 3.79276 0 9.34287 0 15.8827Z" fill="#428BC1"/>
<path d="M30.0013 15.8827C30.0013 9.32346 25.8487 3.77335 20.0078 1.73573V30.049C25.8487 27.992 30.0013 22.4419 30.0013 15.8827Z" fill="#ED4C5C"/>
<path d="M9.99219 30.049C11.5446 30.5924 13.2328 30.9029 14.9987 30.9029C16.7645 30.9029 18.4527 30.6118 20.0051 30.049V1.75509C18.4527 1.21172 16.8033 0.901245 14.9987 0.901245C13.194 0.901245 11.5446 1.19232 9.99219 1.75509V30.049Z" fill="white"/>
</svg>
