<svg width="30" height="31" viewBox="0 0 30 31" fill="none" xmlns="http://www.w3.org/2000/svg">
<path d="M0 15.9001C0 24.1952 6.68605 30.8816 14.9806 30.8816C20.814 30.8816 25.9108 27.4899 28.3721 22.5865L1.60852 9.19437C0.562013 11.21 0 13.5163 0 15.9001Z" fill="#FFCE31"/>
<path d="M14.9813 0.918701C9.14799 0.918701 4.05108 4.31036 1.58984 9.21372L28.4115 22.6059C29.4193 20.6097 30.0007 18.3033 30.0007 15.9195C29.9619 7.62449 23.2759 0.918701 14.9813 0.918701Z" fill="#699635"/>
<path d="M14.9808 8.86487L16.6281 13.9039H21.9188L17.6358 17.063L19.2831 22.102L14.9808 19.0011L10.6785 22.102L12.3258 17.063L8.02344 13.9233H13.3141L14.9808 8.86487Z" fill="#DA121A"/>
</svg>
