<svg width="30" height="32" viewBox="0 0 30 32" fill="none" xmlns="http://www.w3.org/2000/svg">
<path d="M0 15.999C0 18.9525 0.854927 21.7117 2.31218 24.0046H27.6878C29.1451 21.6923 30 18.9525 30 15.999C30 13.0455 29.1451 10.2863 27.6878 7.99341H2.31218C0.854927 10.3057 0 13.0455 0 15.999Z" fill="#F9F9F9"/>
<path d="M27.7463 7.9934C25.0844 3.79629 20.3823 0.97876 15.0196 0.97876C9.65696 0.97876 4.95489 3.77686 2.29297 7.9934H27.7463Z" fill="#ED4C5C"/>
<path d="M2.3125 24.024C4.97442 28.2212 9.67649 31.0387 15.0392 31.0387C20.4019 31.0387 25.1039 28.2406 27.7659 24.024H2.3125Z" fill="#ED4C5C"/>
<path d="M14.2809 17.3008C13.7757 18.0975 12.2796 17.9032 11.9687 17.3008V12.3848H11.2109V17.398C11.5607 19.1662 13.6785 19.6131 14.2809 17.3008Z" fill="#ED4C5C"/>
<path d="M17.9336 12.4042V17.3203C17.5838 17.8644 16.1849 18.117 15.6797 17.3203C16.282 19.6326 18.3805 19.1663 18.7302 17.4175V12.4042H17.9336Z" fill="#ED4C5C"/>
<path d="M13.5229 9.95589L13.3286 9.66443C12.8235 9.81988 12.3766 9.95588 11.9297 10.2085C12.2794 10.9663 13.2315 12.7151 13.2315 12.7151C13.2315 12.7151 13.2704 10.0919 13.5229 9.95589Z" fill="#FFCE31"/>
<path d="M16.5163 11.3549V12.7151C17.0215 11.8601 17.5266 10.9663 18.0707 10.1113C17.9735 10.053 17.8181 10.0142 17.6627 9.91701C17.4101 9.81985 17.1575 9.72271 16.9049 9.66442C16.7494 9.60612 16.6523 9.56726 16.4969 9.56726H16.4386C16.2443 10.1696 15.8945 11.3743 15.8945 11.3743H16.5163" fill="#FFCE31"/>
<path d="M16.2832 21.2066C15.7392 21.2066 15.3312 21.7507 14.8843 21.7118C14.4374 21.6535 14.2431 21.1677 13.5825 21.1677H13.5242C13.0773 21.1677 12.4167 21.4592 12.1641 21.6146C12.1641 21.6146 13.2133 22.4696 14.9231 22.4696C16.633 22.4696 17.7211 21.6146 17.7211 21.6146C17.7211 21.6146 16.8856 21.2066 16.2832 21.2066Z" fill="#2A5F9E"/>
<path d="M16.4195 20.507C15.7783 20.5653 15.5645 20.099 14.9622 20.1573C14.3599 20.1573 14.0102 20.507 13.5633 20.5653C13.1164 20.5653 12.514 20.1184 12.1643 20.1573C11.8728 20.1573 11.0179 20.507 10.707 20.6042L10.9985 20.8956H19.0037C19.062 20.8373 19.1008 20.7985 19.1591 20.7985C18.9065 20.6042 18.3625 20.1573 17.7018 20.1573C16.8275 20.0601 17.0801 20.4098 16.4195 20.507Z" fill="#2A5F9E"/>
<path d="M19.0803 19.069C18.5751 19.069 18.1865 19.5742 17.7785 19.5742C17.3705 19.5742 16.8847 19.069 16.3795 19.069C15.8744 19.069 15.3692 19.5742 14.9223 19.5742C14.4754 19.5742 14.0674 19.069 13.465 19.069C12.8627 19.069 12.5713 19.6131 12.1049 19.5742C11.658 19.5159 11.25 19.0302 10.8031 19.0302C10.5117 19.0302 10.0454 19.3216 9.75391 19.5354C9.85106 19.6325 9.90933 19.788 10.0065 19.8851H20.013C20.0712 19.8268 20.1101 19.7297 20.1684 19.6908C20.0713 19.4576 19.5272 19.1079 19.0803 19.069Z" fill="#2A5F9E"/>
<path d="M14.9205 18.2141C14.221 18.2141 13.7158 18.9137 13.7741 18.9137H16.1251C16.1251 18.8554 15.5811 18.1558 14.9205 18.2141Z" fill="#2A5F9E"/>
<path d="M19.1193 18.6029C18.7113 18.6029 18.7696 18.5057 18.5753 18.3502C18.4781 18.5446 18.0312 18.8554 18.0312 18.8554H20.7903C20.8486 18.7583 20.8875 18.6029 20.9458 18.5057C20.7515 18.3503 20.5377 18.2142 20.3434 18.2142C19.9354 18.2142 19.5274 18.6611 19.1193 18.6029Z" fill="#2A5F9E"/>
<path d="M11.27 18.4085C11.0757 18.5057 11.1146 18.6028 10.726 18.6611C10.318 18.6611 9.92934 18.2142 9.52131 18.2142C9.36587 18.2142 9.22986 18.3114 9.11328 18.4085C9.17157 18.564 9.26873 18.7583 9.36588 18.9137H11.8723C11.814 18.9137 11.3672 18.6029 11.27 18.4085Z" fill="#2A5F9E"/>
<path d="M10.957 17.2621C10.3547 17.0678 9.90779 17.6701 9.4609 17.709C9.16945 17.709 8.85857 17.5147 8.70312 17.4175C8.76142 17.6118 8.80026 17.7673 8.85855 17.9616H11.1125C11.1125 17.9033 10.957 17.6118 10.957 17.2621Z" fill="#2A5F9E"/>
<path d="M20.4211 17.7089C20.0131 17.7089 19.5273 17.0677 18.925 17.262C18.925 17.6118 18.7695 17.9032 18.7695 17.9032H21.0234L21.276 17.262C21.276 17.262 20.8291 17.7089 20.4211 17.7089Z" fill="#2A5F9E"/>
<path d="M14.3203 17.9032H15.525C15.525 17.9032 15.525 17.5535 14.9226 17.5535C14.3203 17.5535 14.3786 17.9032 14.3203 17.9032Z" fill="#2A5F9E"/>
<path d="M13.7188 14.3473L16.1281 14.9497V11.7047C15.0206 11.763 14.0685 9.7033 16.0698 9.60614C14.1657 9.35354 13.9131 9.80045 13.7188 10.3057V14.3473Z" fill="#ED4C5C"/>
<path d="M12.2617 14.6583V15.0663H13.3109L12.2617 14.6583Z" fill="#FFCE31"/>
<path d="M13.3305 14.9498V14.4057C13.039 14.2114 12.5727 13.7645 12.2812 13.609V14.464L13.3305 14.9498Z" fill="#FFCE31"/>
<path d="M8.51172 15.2994V15.8046C8.51172 16.1544 8.56999 16.4459 8.56999 16.7568H10.7656V15.3577L8.51172 15.2994Z" fill="#FFCE31"/>
<path d="M8.95881 13.3952C8.76451 13.8421 8.60907 14.3473 8.55078 14.8525L10.7464 15.0468V14.0364L8.95881 13.3952Z" fill="#FFCE31"/>
<path d="M10.0073 11.7436C9.65753 12.1516 9.40493 12.5986 9.15234 13.0455L10.7456 13.8033V12.4043L10.0073 11.7436Z" fill="#FFCE31"/>
<path d="M12.2594 13.2009L13.2698 14.153V13.1426L11.4628 10.4417C11.0548 10.6943 10.6661 11.0441 10.3164 11.3938C10.5107 11.6464 10.8605 11.9379 11.0159 12.1516H12.2594V13.2009Z" fill="#FFCE31"/>
<path d="M21.5299 15.2606L19.0234 15.4549V16.815H21.4328C21.3745 16.7568 21.5299 16.1544 21.5299 15.2606Z" fill="#FFCE31"/>
<path d="M21.4328 14.8525C21.3356 13.9587 21.0247 13.298 21.0247 13.298L19.0234 14.0947V15.1051L21.4328 14.8525Z" fill="#FFCE31"/>
<path d="M20.8301 12.9095C20.5776 12.4626 20.325 12.0545 19.9752 11.6659C19.6255 11.9185 19.334 12.1128 18.9648 12.3654V13.8228C19.6255 13.5119 20.2278 13.201 20.8301 12.9095Z" fill="#FFCE31"/>
<path d="M16.5156 15.1051L17.526 15.0468V14.6388L16.5156 15.1051Z" fill="#FFCE31"/>
<path d="M16.5156 14.464V14.9109L17.526 14.464V13.609C17.1763 13.8616 16.5156 14.464 16.5156 14.464Z" fill="#FFCE31"/>
<path d="M18.8862 12.0933L19.6828 11.2967C19.3331 10.9469 18.8862 10.5971 18.4393 10.3445C17.7981 11.2967 17.1958 12.1905 16.5352 13.1426V14.2502C16.8849 13.9587 17.2347 13.6478 17.5455 13.2981V12.1516L18.8862 12.0933Z" fill="#FFCE31"/>
<path d="M12.4141 17.5535H13.5216C13.9685 17.5535 14.1628 16.9512 14.1628 16.9512H13.1524C12.6084 16.9123 12.4141 17.5535 12.4141 17.5535Z" fill="#ED4C5C"/>
<path d="M16.6705 16.9123H15.6602C15.6602 16.9123 15.8545 17.5147 16.3014 17.5147H17.4089C17.4283 17.5535 17.234 16.9123 16.6705 16.9123Z" fill="#ED4C5C"/>
<path d="M12.1641 16.6013H17.6628V16.7956H12.1641V16.6013Z" fill="#ED4C5C"/>
<path d="M14.5737 16.3487L14.9235 16.0573L15.2732 16.3487L15.3703 16.2516L15.0206 15.9601L15.3703 15.6103L15.2732 15.5132L14.9817 15.7658V15.3577H14.8263V15.7658L14.5737 15.5132L14.4766 15.6103L14.8263 15.9601L14.4766 16.2516L14.5737 16.3487Z" fill="#ED4C5C"/>
<path d="M17.6828 15.6103L17.5857 15.5132L17.2942 15.7658V15.3577H17.1388V15.7658L16.8862 15.5132L16.7891 15.6103L17.1388 15.9601L16.7891 16.2516L16.8862 16.3487L17.236 16.0573L17.5857 16.3487L17.6828 16.2516L17.3331 15.9601L17.6828 15.6103Z" fill="#ED4C5C"/>
<path d="M15.7182 16.3487L16.068 16.0573L16.4177 16.3487L16.5149 16.2516L16.1651 15.9601L16.5149 15.6103L16.4177 15.5132L16.1263 15.7658V15.3577H15.9708V15.7658L15.7182 15.5132L15.6211 15.6103L15.9708 15.9601L15.6211 16.2516L15.7182 16.3487Z" fill="#ED4C5C"/>
<path d="M13.4253 16.3487L13.775 16.0573L14.1248 16.3487L14.2219 16.2516L13.8722 15.9601L14.2219 15.6103L14.1248 15.5132L13.8333 15.7658V15.3577H13.6779V15.7658L13.4253 15.5132L13.3281 15.6103L13.6779 15.9601L13.3281 16.2516L13.4253 16.3487Z" fill="#ED4C5C"/>
<path d="M12.2612 16.3487L12.611 16.0573L12.9607 16.3487L13.0579 16.2516L12.7081 15.9601L13.0579 15.6103L12.9607 15.5132L12.6693 15.7658V15.3577H12.5138V15.7658L12.2612 15.5132L12.1641 15.6103L12.5138 15.9601L12.1641 16.2516L12.2612 16.3487Z" fill="#ED4C5C"/>
</svg>
