<svg width="30" height="31" viewBox="0 0 30 31" fill="none" xmlns="http://www.w3.org/2000/svg">
<path d="M18.5511 0.491577V12.8338H0.155225C0.0582005 13.5324 0 14.2892 0 15.0266C0 23.3324 6.69468 30.0275 15 30.0275C23.3053 30.0275 30 23.3324 30 15.0266C30 7.98228 25.11 2.08287 18.5511 0.491577Z" fill="#2A5F9E"/>
<path d="M18.5521 0.491683C18.4551 0.433465 18.3581 0.433479 18.261 0.433479V12.5428H11.8186V0.394653C9.41241 0.899208 7.21964 2.04417 5.37618 3.53843V12.5428H0.214474C0.214474 12.6398 0.15625 12.7368 0.15625 12.8339H18.5521V0.491683Z" fill="white"/>
<path d="M0.214844 12.5428H5.35715V3.53845C2.69867 5.78954 0.816396 8.93329 0.214844 12.5428Z" fill="#2A5F9E"/>
<path d="M11.7969 0.375196V12.5233H18.2393V0.375196C17.1915 0.122918 16.0854 0.0258789 14.9987 0.0258789C13.912 0.0258789 12.8641 0.142324 11.7969 0.375196Z" fill="#ED4C5C"/>
<path d="M20.4159 20.9455V18.5974H21.3667L22.0653 17.4524H20.3577V16.6956H22.5116L23.2684 15.4924H16.1662L16.923 16.6956H19.0769V20.8873L17.4857 18.3451L15.293 21.7994H16.3408L16.5349 21.3918H18.3396L19.7367 23.8952L21.1339 21.3918H22.9385L23.1326 21.7994H24.1804L21.9877 18.3451L20.4159 20.9455ZM17.0006 20.635L17.4469 19.8394L17.8932 20.635H17.0006ZM21.619 20.635L22.0653 19.8394L22.5116 20.635H21.619Z" fill="white"/>
<path d="M20.0063 25.6418L19.754 24.788L19.4629 25.6418H18.5703L19.3271 26.1852L19.036 27.0391L19.7928 26.4957L20.4914 27.0391L20.2391 26.1852L20.9377 25.6418H20.0063Z" fill="white"/>
<path d="M17.3657 23.6429L17.1134 22.7891L16.8223 23.6429H15.9297L16.6865 24.1863L16.3954 25.0401L17.1522 24.4968L17.8508 25.0401L17.5985 24.1863L18.2971 23.6429H17.3657Z" fill="white"/>
<path d="M22.6664 23.6429L22.4142 22.7891L22.1231 23.6429H21.2305L21.9872 24.1863L21.6962 25.0401L22.453 24.4968L23.1515 25.0401L22.8993 24.1863L23.5979 23.6429H22.6664Z" fill="white"/>
<path d="M14.8639 18.5391L15.6207 19.0825L15.3296 18.2286L16.0864 17.6853H15.1938L14.9027 16.8314L14.6504 17.6853H13.7578L14.4564 18.2286L14.2041 19.0825L14.8639 18.5391Z" fill="white"/>
<path d="M25.1105 18.2286L25.8091 17.6853H24.9164L24.6642 16.8314L24.3731 17.6853H23.4805L24.2373 18.2286L23.9462 19.0825L24.703 18.5391L25.4016 19.0825L25.1105 18.2286Z" fill="white"/>
</svg>
