<svg width="30" height="31" viewBox="0 0 30 31" fill="none" xmlns="http://www.w3.org/2000/svg">
<path d="M15.0017 30.9719C21.5605 30.9719 27.1103 26.819 29.1478 20.9778H0.855469C2.91239 26.8384 8.4622 30.9719 15.0017 30.9719Z" fill="#428BC1"/>
<path d="M15.0017 0.970215C8.4428 0.970215 2.89299 5.1619 0.855469 10.9643H29.1478C27.1103 5.18131 21.5605 0.970215 15.0017 0.970215Z" fill="#699635"/>
<path d="M29.1462 20.9777C29.6895 19.4252 30 17.7369 30 15.971C30 14.205 29.7089 12.5167 29.1462 10.9642H0.853821C0.310483 12.5167 0 14.205 0 15.971C0 17.7369 0.291079 19.4252 0.853821 20.9777H29.1462Z" fill="#FFE62E"/>
</svg>
