<svg width="30" height="31" viewBox="0 0 30 31" fill="none" xmlns="http://www.w3.org/2000/svg">
<path d="M14.999 0.0480957C8.65361 0.0480957 3.23963 4.00691 1.04688 9.55702H28.9512C26.7584 4.00691 21.3444 0.0480957 14.999 0.0480957Z" fill="#F42F4C"/>
<path d="M14.999 30.0497C21.3444 30.0497 26.7584 26.0909 28.9512 20.5408H1.04688C3.23963 26.1103 8.65361 30.0497 14.999 30.0497Z" fill="#699635"/>
<path d="M30 15.0488C30 13.4963 29.7477 11.9439 29.3014 10.5466H0.698572C0.252259 11.9439 0 13.4963 0 15.0488C0 16.6013 0.252259 18.1537 0.698572 19.551H29.3014C29.7477 18.1537 30 16.6013 30 15.0488Z" fill="#2A5F9E"/>
<path d="M29.1469 10.0615C29.0886 9.90621 28.9916 9.71213 28.9528 9.55688H1.04852C0.990302 9.71213 0.893277 9.90621 0.854468 10.0615C0.796253 10.2167 0.757434 10.4108 0.699219 10.566H29.3021C29.2439 10.4108 29.2051 10.1973 29.1469 10.0615Z" fill="white"/>
<path d="M0.854468 20.0556C0.912682 20.2108 1.00971 20.4049 1.04852 20.5601H28.9528C29.011 20.4049 29.108 20.2108 29.1469 20.0556C29.2051 19.9004 29.2439 19.7063 29.3021 19.551H0.699219C0.757434 19.7063 0.796253 19.9004 0.854468 20.0556Z" fill="white"/>
</svg>
