<svg width="30" height="31" viewBox="0 0 30 31" fill="none" xmlns="http://www.w3.org/2000/svg">
<path d="M18.0059 0.435547H12.0098C6.16889 1.63872 1.5117 6.23792 0.308594 12.1373V18.1338C1.5117 24.0332 6.14949 28.6324 12.0098 29.8356H18.0059C23.905 28.6324 28.504 23.9944 29.7071 18.1338V12.1373C28.5234 6.23792 23.8662 1.63872 18.0059 0.435547Z" fill="#F9F9F9"/>
<path d="M18.0077 12.1374V0.435621C17.0569 0.241561 16.0672 0.144531 15 0.144531C13.9521 0.144531 12.9431 0.241561 11.9922 0.435621V12.1374H0.291074C0.0970247 13.0883 0 14.078 0 15.1453C0 16.1933 0.0970247 17.2024 0.291074 18.1533H11.9922V29.8551C12.9431 30.0491 13.9327 30.1462 15 30.1462C16.0478 30.1462 17.0569 30.0491 18.0077 29.8551V18.1533H29.7089C29.903 17.2024 30 16.2127 30 15.1453C30 14.0974 29.903 13.0883 29.7089 12.1374H18.0077Z" fill="#ED4C5C"/>
<path d="M8.0143 9.12938H6.01562L6.52012 6.12145L6.01562 3.11353H8.0143L7.5098 6.12145L8.0143 9.12938Z" fill="#ED4C5C"/>
<path d="M4.01562 7.13066V5.13184L7.02339 5.63639L10.0312 5.13184V7.13066L7.02339 6.62609L4.01562 7.13066Z" fill="#ED4C5C"/>
<path d="M24.0221 9.12938H22.0234L22.5279 6.12145L22.0234 3.11353H24.0221L23.5176 6.12145L24.0221 9.12938Z" fill="#ED4C5C"/>
<path d="M20.0273 7.13066V5.13184L23.0351 5.63639L26.0429 5.13184V7.13066L23.0351 6.62609L20.0273 7.13066Z" fill="#ED4C5C"/>
<path d="M8.0143 27.1382H6.01562C6.01562 27.1382 6.52012 24.8871 6.52012 24.1302C6.52012 23.3734 6.01562 21.1223 6.01562 21.1223H8.0143C8.0143 21.1223 7.5098 23.3734 7.5098 24.1302C7.5098 24.8871 8.0143 27.1382 8.0143 27.1382Z" fill="#ED4C5C"/>
<path d="M4.01562 25.1394V23.1406L7.02339 23.6452L10.0312 23.1406V25.1394L7.02339 24.6349L4.01562 25.1394Z" fill="#ED4C5C"/>
<path d="M24.0221 27.1382H22.0234L22.5279 24.1302L22.0234 21.1223H24.0221L23.5176 24.1302L24.0221 27.1382Z" fill="#ED4C5C"/>
<path d="M20.0273 25.1394V23.1406L23.0351 23.6452L26.0429 23.1406V25.1394L23.0351 24.6349L20.0273 25.1394Z" fill="#ED4C5C"/>
</svg>
