<svg width="30" height="31" viewBox="0 0 30 31" fill="none" xmlns="http://www.w3.org/2000/svg">
<path d="M15.0212 0.234375C8.46235 0.234375 2.91251 4.42606 0.875 10.2284H29.1674C27.1104 4.44546 21.5607 0.234375 15.0212 0.234375Z" fill="#3E4347"/>
<path d="M15.0212 30.236C21.5801 30.236 27.1298 26.0831 29.1674 20.2419H0.875C2.91251 26.1025 8.46235 30.236 15.0212 30.236Z" fill="#FFE62E"/>
<path d="M0.853844 10.2478C0.310507 11.8003 0 13.4886 0 15.2545C0 17.0205 0.291102 18.7088 0.853844 20.2613H29.1462C29.6895 18.7088 30 17.0205 30 15.2545C30 13.4886 29.7089 11.8003 29.1462 10.2478H0.853844Z" fill="#ED4C5C"/>
</svg>
