<svg width="30" height="31" viewBox="0 0 30 31" fill="none" xmlns="http://www.w3.org/2000/svg">
<path d="M15.0017 0.317383C8.44283 0.317383 2.89299 4.47026 0.855469 10.3115H29.1479C27.1104 4.47026 21.5606 0.317383 15.0017 0.317383Z" fill="#C94747"/>
<path d="M15.0017 30.319C21.5606 30.319 27.1104 26.1661 29.1479 20.325H0.855469C2.91239 26.1856 8.46223 30.319 15.0017 30.319Z" fill="#699635"/>
<path d="M0.853798 10.3308C0.31046 11.8833 0 13.5716 0 15.3375C0 17.1035 0.291055 18.7918 0.853798 20.3443H29.1462C29.6895 18.7918 30 17.1035 30 15.3375C30 13.5716 29.7089 11.8833 29.1462 10.3308H0.853798Z" fill="#FFCE31"/>
<path d="M14.9988 17.9767L18.1036 20.3249L16.9005 16.5213L20.0053 14.0761H16.2019L14.9988 10.3308L13.8539 14.0761H10.0117L13.1165 16.5213L11.9134 20.3249L14.9988 17.9767Z" fill="#3E4347"/>
</svg>
