<svg width="30" height="31" viewBox="0 0 30 31" fill="none" xmlns="http://www.w3.org/2000/svg">
<path d="M29.1478 20.3638H0.855469C2.91239 26.205 8.46222 30.3578 15.0017 30.3578C21.5411 30.3578 27.0909 26.2244 29.1478 20.3638Z" fill="#ED4C5C"/>
<path d="M29.1462 20.3635C29.6895 18.811 30 17.1227 30 15.3568C30 7.05102 23.3053 0.355957 15 0.355957C6.6947 0.355957 0 7.05102 0 15.3568C0 17.1033 0.291055 18.811 0.853797 20.3635H29.1462Z" fill="#F9F9F9"/>
<path d="M23.2287 11.6116V11.0682H23.8302V9.82624H23.2287V10.5249H22.2778V9.82624H21.5792V5.63456H21.8315V5.09119H22.2778V3.98506H21.4822V4.52841H20.6866V3.98506H19.4835V4.52841H18.6879V3.98506H18.0476V5.09119H18.2998V5.63456H18.5521V9.82624H18.4939V10.5249H17.3878V9.82624H17.0385V4.52841H17.446V3.7716H17.8923V2.87891H17.1355V3.38348H16.3399V2.87891H15.3891V3.38348H14.5935V2.87891H13.6427V3.38348H12.847V2.87891H12.0903V3.7716H12.5366V4.52841H12.9441V9.88447H12.5948V10.5831H11.4887V9.88447H11.3917V5.69277H11.6439V5.14942H11.8962V4.00446H11.2558V4.54784H10.4602V4.00446H9.25713V4.54784H8.50036V4.00446H7.70474V5.11059H8.15106V5.65397H8.40333V9.84564H7.70474V10.5443H6.75391V9.84564H6.21057V11.0876H6.75391V11.631H7.20024V18.3261L6.15234 19.0247V19.7233H10.5572V20.0726H19.4641V19.7233H23.869V19.0247L22.8212 18.3261V11.631H23.2287" fill="#ED4C5C"/>
<path d="M11.1403 18.3062V16.5596C11.1403 14.6579 8.69531 14.6579 8.69531 16.5596V18.3062H11.1403Z" fill="#3E4347"/>
<path d="M10.6928 8.66192C10.6928 7.614 9.10156 7.614 9.10156 8.66192V10.5055H10.6928V8.66192Z" fill="#3E4347"/>
<path d="M16.7275 18.6752V16.23C16.7275 13.8237 13.2734 13.8237 13.2734 16.23V18.6752H16.7275Z" fill="#3E4347"/>
<path d="M21.2887 18.3062V16.5596C21.2887 14.6579 18.8438 14.6579 18.8438 16.5596V18.3062H21.2887Z" fill="#3E4347"/>
<path d="M19.2891 10.5055H20.8803V8.66192C20.8803 7.614 19.2891 7.614 19.2891 8.66192V10.5055Z" fill="#3E4347"/>
<path d="M14.8438 5.11035H15.193V6.91511H14.8438V5.11035Z" fill="#3E4347"/>
<path d="M13.8359 5.45996H14.1852V6.81838H13.8359V5.45996Z" fill="#3E4347"/>
<path d="M14.0312 8.27366V10.5247H15.9329V8.27366C15.9329 7.1093 14.0312 7.1093 14.0312 8.27366Z" fill="#3E4347"/>
<path d="M15.7969 5.45996H16.1462V6.81838H15.7969V5.45996Z" fill="#3E4347"/>
<path d="M13.234 19.7232H12.8847V20.2666H13.234L14.6311 21.0622V25.021H12.5742V25.9719H13.1757V25.4674H13.9714V25.9719H14.6117V26.3212H13.9714V26.8258H13.1757V26.3212H12.5742V27.2721H14.6311V27.8737H15.2327V21.0234L16.6298 20.2278H16.9791V19.6844H16.6298L14.9222 18.6753L13.234 19.7232ZM16.1835 19.9755L14.9416 20.7323L13.6997 19.9755L14.9416 19.2187L16.1835 19.9755Z" fill="#FFE62E"/>
</svg>
