<svg width="30" height="31" viewBox="0 0 30 31" fill="none" xmlns="http://www.w3.org/2000/svg">
<path d="M27.0118 6.32275H15.0195V9.33067H28.7776C28.3119 8.26335 27.7103 7.21543 27.0118 6.32275Z" fill="#428BC1"/>
<path d="M14.9999 6.32286H26.9921C26.1383 5.17791 25.1487 4.1688 23.9844 3.31494H14.9805V6.32286" fill="#F9F9F9"/>
<path d="M28.7581 9.31152H15V12.3194H29.7089C29.4955 11.2715 29.1462 10.2624 28.7581 9.31152Z" fill="#F9F9F9"/>
<path d="M1.24379 21.3238H28.7406C29.1481 20.3729 29.4974 19.3832 29.6914 18.3159H0.292969C0.506423 19.3638 0.855692 20.3729 1.24379 21.3238Z" fill="#428BC1"/>
<path d="M3.00816 24.3121H27.012C27.7106 23.4194 28.3121 22.3715 28.7585 21.3042H1.26172C1.70803 22.3715 2.30958 23.4194 3.00816 24.3121Z" fill="#F9F9F9"/>
<path d="M3.00781 24.3125C3.86163 25.4575 4.85128 26.4666 6.01557 27.3204H24.0233C25.1682 26.4666 26.1773 25.4769 27.0311 24.3125H3.00781Z" fill="#428BC1"/>
<path d="M5.99609 27.3203C8.49933 29.2221 11.6041 30.3282 15 30.3282C18.3959 30.3282 21.5006 29.2221 24.0039 27.3203H5.99609Z" fill="#F9F9F9"/>
<path d="M9.00386 15.3081V9.31169H15V6.30377H9.00386V1.54932C7.95599 1.99565 6.90813 2.59724 5.9961 3.29585V6.30377H2.98834C2.28976 7.19644 1.68821 8.24436 1.24189 9.31169H5.9961V15.3081H0C0 16.3561 0.0970245 17.3652 0.291074 18.3161H29.6895C29.8835 17.3652 29.9806 16.3755 29.9806 15.3081H9.00386Z" fill="#F9F9F9"/>
<path d="M29.709 12.3194H15V9.31152H9.00391V15.308H30C30 14.26 29.903 13.2703 29.709 12.3194Z" fill="#428BC1"/>
<path d="M15 0.307129C12.8461 0.307129 10.8474 0.75347 9.00391 1.54911V6.30357H15V3.29565H24.0039C21.5007 1.41327 18.3959 0.307129 15 0.307129Z" fill="#428BC1"/>
<path d="M5.99604 6.32286V3.31494C4.85115 4.1688 3.8421 5.15851 2.98828 6.32286H5.99604Z" fill="#428BC1"/>
<path d="M1.24189 9.31152C0.446294 11.1551 0 13.1539 0 15.308H5.9961V9.31152H1.24189Z" fill="#428BC1"/>
</svg>
