<svg width="30" height="31" viewBox="0 0 30 31" fill="none" xmlns="http://www.w3.org/2000/svg">
<path d="M15 30.3495C23.3053 30.3495 30 23.6544 30 15.3486H0C0 23.6544 6.69466 30.3495 15 30.3495Z" fill="#C94747"/>
<path d="M15 0.347656C6.69466 0.347656 0 7.04273 0 15.3485H30C30 7.06213 23.3053 0.347656 15 0.347656Z" fill="#F9F9F9"/>
<path d="M11.0021 7.85791C15.1548 7.85791 18.5118 11.2151 18.5118 15.368H3.5118C3.4924 11.2151 6.84947 7.85791 11.0021 7.85791Z" fill="#C94747"/>
<path d="M11.0019 22.8587C6.84923 22.8587 3.49219 19.5015 3.49219 15.3486H18.4922C18.4922 19.5015 15.1545 22.8587 11.0019 22.8587Z" fill="#F9F9F9"/>
</svg>
