<svg width="30" height="31" viewBox="0 0 30 31" fill="none" xmlns="http://www.w3.org/2000/svg">
<path d="M4.61719 26.2012C7.31273 28.7999 10.9585 30.3902 15.0115 30.3902C19.0645 30.3902 22.7103 28.7999 25.4059 26.2012H4.61719Z" fill="#ED4C5C"/>
<path d="M25.4059 4.61622C22.7103 2.0175 19.0645 0.427246 15.0115 0.427246C10.9585 0.427246 7.31273 2.0175 4.61719 4.61622H25.4059Z" fill="#ED4C5C"/>
<path d="M1.70649 22.3032L14.9903 15.3992L1.70649 8.49512C0.601126 10.5508 0 12.8974 0 15.3992C0.0193924 17.9009 0.620518 20.2475 1.70649 22.3032Z" fill="#007168"/>
<path d="M29.9981 15.3992C29.9981 12.8974 29.397 10.5508 28.2916 8.49512L15.0078 15.3992L28.2916 22.3032C29.397 20.2475 29.9981 17.9009 29.9981 15.3992Z" fill="#007168"/>
<path d="M28.2941 22.303L15.0103 15.3989L1.72656 22.303C2.48287 23.7575 3.47186 25.0568 4.61601 26.201H25.4047C26.5488 25.0568 27.5378 23.7575 28.2941 22.303Z" fill="#FFCE31"/>
<path d="M1.70703 8.51428L14.9908 15.4183L28.2746 8.51428C27.5183 7.05978 26.5293 5.76042 25.3851 4.61621H4.59652C3.45237 5.72164 2.46333 7.05978 1.70703 8.51428Z" fill="#FFCE31"/>
<path d="M16.7486 19.5494C19.0443 18.5984 20.1344 15.9664 19.1835 13.6707C18.2326 11.3749 15.6007 10.2847 13.3051 11.2357C11.0094 12.1866 9.9193 14.8186 10.8702 17.1144C11.8211 19.4102 14.453 20.5004 16.7486 19.5494Z" fill="#ED4C5C"/>
<path d="M3.15924 16.6015C3.56648 17.0087 3.95436 17.3578 4.3616 17.4936C4.3616 17.0475 4.30342 16.5433 4.16768 16.0391C3.81861 15.7482 3.41134 15.4379 3.06227 15.2827C3.0041 15.7094 3.06227 16.1554 3.15924 16.6015Z" fill="#CE1126"/>
<path d="M1.51416 12.5674C2.17351 13.9249 -0.192355 17.1636 3.70551 17.92C3.45341 17.5709 3.25952 17.0667 3.10438 16.5624C3.00742 16.1164 2.94924 15.6703 3.00742 15.2631C3.41466 15.4182 3.76371 15.6703 4.11277 16.0194C4.52001 16.3685 4.86906 16.8145 5.06298 17.2218C6.11017 13.5177 2.46439 13.7504 1.51416 12.5674Z" fill="#FFCE31"/>
<path d="M10.0066 1.8623L10.2587 2.75442H11.2671L10.472 3.29742L10.7629 4.18951L10.0066 3.64651L9.21154 4.18951L9.50242 3.29742L8.74609 2.75442H9.69635L10.0066 1.8623Z" fill="#FFCE31"/>
<path d="M10.5105 26.4531L10.7626 27.3452H11.771L10.9759 27.8882L11.2668 28.8385L10.5105 28.2373L9.7154 28.8385L10.0063 27.8882L9.25 27.3452H10.2002L10.5105 26.4531Z" fill="#FFCE31"/>
<path d="M15.01 10.9189L15.9602 14.0607H19.1018L16.5614 15.9612L17.5698 19.103L15.0294 17.1636L12.489 19.103L13.4974 15.9612L10.957 14.0607H14.0986L15.01 10.9189Z" fill="#FFCE31"/>
<path d="M15.0105 1.8623L15.2626 2.75442H16.271L15.4759 3.29742L15.7668 4.18951L15.0105 3.64651L14.2154 4.18951L14.5063 3.29742L13.75 2.75442H14.7002L15.0105 1.8623Z" fill="#FFCE31"/>
<path d="M19.9949 1.8623L20.247 2.75442H21.2554L20.4603 3.29742L20.7512 4.18951L19.9949 3.64651L19.1998 4.18951L19.4907 3.29742L18.7344 2.75442H19.6846L19.9949 1.8623Z" fill="#FFCE31"/>
<path d="M15.0105 26.4531L15.2626 27.3452H16.271L15.4759 27.8882L15.7668 28.8385L15.0105 28.2373L14.2154 28.8385L14.5063 27.8882L13.75 27.3452H14.7002L15.0105 26.4531Z" fill="#FFCE31"/>
<path d="M19.9949 26.4531L20.247 27.3452H21.2554L20.4603 27.8882L20.7512 28.8385L19.9949 28.2373L19.1998 28.8385L19.4907 27.8882L18.7344 27.3452H19.6846L19.9949 26.4531Z" fill="#FFCE31"/>
</svg>
