<svg width="30" height="31" viewBox="0 0 30 31" fill="none" xmlns="http://www.w3.org/2000/svg">
<path d="M0 15.4237C0 23.7295 6.6947 30.4245 15 30.4245C23.3053 30.4245 30 23.7295 30 15.4237C30 13.6772 29.7089 11.9695 29.1462 10.417H0.853844C0.310507 11.9889 0 13.6772 0 15.4237Z" fill="#3E4347"/>
<path d="M15.0212 0.422852C8.46235 0.422852 2.91251 4.61453 0.875 10.4169H29.1674C27.1104 4.63394 21.5607 0.422852 15.0212 0.422852Z" fill="#2A5F9E"/>
<path d="M14.4553 2.03336C13.9508 2.829 13.912 3.48881 14.2613 4.53673C14.4165 5.04128 14.6106 5.7787 14.6688 6.24444C14.7658 6.84602 14.7658 6.88484 14.7658 7.00127H15.3092C15.3092 6.80722 15.3674 6.55493 15.4062 6.24444C15.4644 5.89513 15.6002 5.0995 15.7555 4.53673C16.0465 3.43059 16.0078 2.79019 15.5032 2.03336C15.3092 1.74227 15.0569 1.52881 14.9599 1.52881C14.8629 1.52881 14.6106 1.72286 14.4553 2.03336ZM16.8033 4.22624C16.1048 4.51733 15.6973 5.33236 15.5032 6.4191C15.445 6.61316 15.445 6.71018 15.445 6.92365H15.7943C15.8525 6.7684 15.8525 6.67138 15.8913 6.47732C16.1436 5.62346 16.9974 5.27416 16.9392 6.0698C16.9392 6.26386 16.8421 6.4191 16.7451 6.51613C16.9004 6.45791 17.1526 6.36088 17.3855 6.22504C18.608 5.52642 18.1035 3.68287 16.8033 4.22624ZM14.0672 7.27296H16.0077V7.11771H14.0672V7.27296ZM14.2031 7.93277C14.009 8.12683 13.6986 8.28206 13.6986 8.28206C13.6986 8.28206 13.9508 8.34028 14.2419 8.28206C14.533 8.22384 14.6494 8.22384 14.7852 8.18503C14.727 8.47612 14.727 8.78664 14.727 8.78664C14.7852 9.19416 14.824 9.29119 14.8822 9.48524C14.9793 9.64049 15.0763 9.64049 15.1345 9.48524C15.2315 9.29119 15.2898 9.07772 15.2898 8.78664C15.2898 8.59258 15.2897 8.49553 15.2315 8.18503C15.4256 8.28206 15.5226 8.28206 15.7749 8.28206H16.2794C16.2794 8.28206 15.9301 8.08801 15.7749 7.87454C15.6196 7.68048 15.6778 7.6805 15.5226 7.42822H14.4748C14.3583 7.6805 14.3583 7.73871 14.2031 7.93277ZM13.2134 4.22624C13.912 4.51733 14.3195 5.33236 14.5136 6.4191C14.5718 6.61316 14.5718 6.71018 14.5718 6.92365H14.2225C14.1643 6.7684 14.1643 6.67138 14.1255 6.47732C13.8732 5.62346 13.0194 5.27416 13.0776 6.0698C13.0776 6.26386 13.1746 6.4191 13.2717 6.51613C13.1164 6.45791 12.8642 6.36088 12.6313 6.22504C11.4088 5.52642 11.9133 3.68287 13.2134 4.22624Z" fill="#FFCE31"/>
<path d="M5.80142 6.22524C5.89845 6.82682 5.89845 6.86564 5.89845 6.98208H6.44175C6.44175 6.78802 6.49996 6.53573 6.53877 6.22524C6.59698 5.87593 6.73283 5.0803 6.88807 4.51753C7.08212 3.7607 7.14034 3.27555 7.04332 2.771C6.44176 3.17852 5.84021 3.56663 5.29688 4.07118C5.35509 4.22643 5.3551 4.36227 5.45212 4.57573C5.56855 5.02207 5.7044 5.83712 5.80142 6.22524Z" fill="#FFCE31"/>
<path d="M7.10065 7.27293V7.11768H5.16016V7.27293H7.10065Z" fill="#FFCE31"/>
<path d="M3.80232 6.28364C3.99636 6.43889 4.30685 6.53592 4.44269 6.57473C4.34566 6.4777 4.24864 6.32245 4.24864 6.12839C4.19042 5.33274 5.00541 5.68205 5.29648 6.53591C5.3547 6.72997 5.39351 6.82701 5.39351 6.98225H5.74281C5.74281 6.72998 5.68458 6.69117 5.68458 6.4777C5.49053 5.58503 5.23825 4.92523 4.79194 4.53711C4.28741 4.98345 3.8411 5.488 3.43359 5.99255C3.51121 6.08958 3.60827 6.18661 3.80232 6.28364Z" fill="#FFCE31"/>
<path d="M6.96683 7.93316C6.81159 7.7391 6.8698 7.73909 6.71456 7.48682H5.66667C5.56964 7.73909 5.51143 7.7779 5.37559 7.99137C5.18154 8.18543 4.87109 8.34068 4.87109 8.34068C4.87109 8.34068 5.12337 8.3989 5.41444 8.34068C5.70551 8.28246 5.82191 8.28246 5.95774 8.24365C5.89953 8.53474 5.89956 8.84523 5.89956 8.84523C5.95778 9.25276 5.99655 9.34978 6.05476 9.54384C6.15179 9.69909 6.24882 9.69909 6.30704 9.54384C6.40406 9.34978 6.46229 9.13632 6.46229 8.84523C6.46229 8.65117 6.46228 8.55415 6.40406 8.24365C6.59811 8.34068 6.69515 8.34068 6.94741 8.34068H7.45196C7.45196 8.34068 7.10267 8.12722 6.96683 7.93316Z" fill="#FFCE31"/>
<path d="M7.956 4.22622C7.25742 4.51731 6.84993 5.33234 6.65588 6.41907C6.59767 6.61313 6.59766 6.71016 6.59766 6.92362H6.94695C7.00517 6.76838 7.00517 6.67136 7.04398 6.4773C7.29624 5.62344 8.15004 5.27414 8.09182 6.06978C8.09182 6.26384 7.9948 6.41907 7.89778 6.5161C8.05301 6.45789 8.30529 6.36086 8.53815 6.22501C9.76066 5.5264 9.25613 3.68285 7.956 4.22622Z" fill="#FFCE31"/>
<path d="M23.1125 6.98213H23.4618C23.4618 6.72985 23.4036 6.69104 23.4036 6.47758C23.2095 5.37144 22.7632 4.57578 22.1035 4.2847C20.8033 3.74133 20.2988 5.58489 21.5601 6.34172C21.7542 6.49697 22.0646 6.594 22.2005 6.63281C22.1035 6.53578 22.0064 6.38055 22.0064 6.18649C21.9482 5.39084 22.7632 5.74015 23.0543 6.59401C23.0543 6.72985 23.0543 6.82688 23.1125 6.98213Z" fill="#FFCE31"/>
<path d="M23.1098 4.53683C23.265 5.04138 23.459 5.77879 23.5172 6.24453C23.6143 6.84612 23.6143 6.88494 23.6143 7.00137H24.1188C24.1188 6.80731 24.177 6.55503 24.2158 6.24453C24.274 5.89523 24.4099 5.0996 24.5651 4.53683C24.6233 4.34277 24.6622 4.18751 24.7204 3.99345C24.177 3.54711 23.6143 3.10077 23.0127 2.75146C22.8575 3.23661 22.8575 3.77999 23.1098 4.53683Z" fill="#FFCE31"/>
<path d="M24.6621 7.93316C24.5069 7.7391 24.5651 7.73909 24.4099 7.48682H23.362C23.265 7.73909 23.2068 7.7779 23.071 7.99137C22.8769 8.18543 22.5664 8.34068 22.5664 8.34068C22.5664 8.34068 22.8187 8.3989 23.1098 8.34068C23.4008 8.28246 23.5173 8.28246 23.6531 8.24365C23.5949 8.53474 23.5949 8.84523 23.5949 8.84523C23.6531 9.25276 23.6919 9.34978 23.7501 9.54384C23.8471 9.69909 23.9441 9.69909 24.0024 9.54384C24.0994 9.34978 24.1576 9.13632 24.1576 8.84523C24.1576 8.65117 24.1576 8.55415 24.0994 8.24365C24.2934 8.34068 24.3905 8.34068 24.6427 8.34068H25.1473C25.1667 8.34068 24.8174 8.12722 24.6621 7.93316Z" fill="#FFCE31"/>
<path d="M22.918 7.27293H24.8585V7.11768H22.918V7.27293Z" fill="#FFCE31"/>
<path d="M24.3551 6.47734C24.2969 6.6714 24.2969 6.76842 24.2969 6.98189H24.6462C24.7044 6.82664 24.7044 6.7296 24.7432 6.53554C24.9955 5.68168 25.8493 5.33238 25.7911 6.12802C25.7911 6.32208 25.6941 6.47734 25.597 6.57437C25.7523 6.51615 26.0045 6.41912 26.2374 6.28328C26.3926 6.18625 26.5285 6.08921 26.6449 5.93396C26.2374 5.42941 25.7911 4.92485 25.2865 4.47852C24.8596 4.92485 24.5686 5.58466 24.3551 6.47734Z" fill="#FFCE31"/>
<path d="M25.905 24.8355L25.8079 25.1848L17.9102 21.7305L18.0072 21.4395L25.905 24.8355Z" fill="#83BF4F"/>
<path d="M26.1579 23.9819L26.0608 24.3312L18.0078 21.3815L18.1048 21.0322L26.1579 23.9819Z" fill="#83BF4F"/>
<path d="M26.3524 23.283L26.2942 23.5741L18.0859 20.9737L18.183 20.6826L26.3524 23.283Z" fill="#83BF4F"/>
<path d="M18.2422 20.4886L18.3392 20.1587L26.5475 22.5456L26.4505 22.8755L18.2422 20.4886Z" fill="#83BF4F"/>
<path d="M26.8163 21.7304L26.7193 22.0797L18.4141 20.0226L18.5111 19.6733L26.8163 21.7304Z" fill="#83BF4F"/>
<path d="M6.15234 13.4832L6.34639 13.231L12.5948 19.2274L12.4008 19.4797L6.15234 13.4832Z" fill="#83BF4F"/>
<path d="M5.00781 13.7743L5.20186 13.522L11.7025 19.1303L11.5085 19.3826L5.00781 13.7743Z" fill="#83BF4F"/>
<path d="M3.80469 13.5411L3.99874 13.25L10.7517 18.5478L10.5576 18.8389L3.80469 13.5411Z" fill="#83BF4F"/>
<path d="M3.58984 14.298L3.80332 14.0264L10.6533 19.1495L10.4398 19.4212L3.58984 14.298Z" fill="#83BF4F"/>
<path d="M2.21094 14.1815L2.40499 13.9292L9.44893 18.7807L9.25488 19.0329L2.21094 14.1815Z" fill="#83BF4F"/>
<path d="M2.15234 15.5792V15.2881L10.5935 17.1899L10.5353 17.4809L2.15234 15.5792Z" fill="#83BF4F"/>
<path d="M1.45703 16.2389V15.8896L9.95639 17.3451L9.89816 17.6362L1.45703 16.2389Z" fill="#83BF4F"/>
<path d="M2.50391 17.1315L2.56208 16.7822L11.0614 17.7913L11.0032 18.1406L2.50391 17.1315Z" fill="#83BF4F"/>
<path d="M1.47656 17.6745L1.51536 17.3252L10.0341 18.1402L9.9953 18.4896L1.47656 17.6745Z" fill="#83BF4F"/>
<path d="M2.91016 18.781L2.96838 18.4316L11.526 18.878L11.4677 19.2273L2.91016 18.781Z" fill="#83BF4F"/>
<path d="M15.6615 24.7387L16.0108 24.991C16.5153 25.3403 16.7676 25.7866 16.7094 26.2912V26.6987L16.8646 26.2912C17.0199 25.8836 17.0199 25.2433 16.8064 24.7969L16.7094 24.5446L17.1169 24.6999C17.6602 24.9522 18.0095 25.3403 18.0677 25.806L18.126 26.2135L18.1841 25.806C18.2812 25.3597 18.126 24.7581 17.8349 24.3506L17.6796 24.0983L18.0871 24.1953C18.6887 24.2924 19.0962 24.6417 19.2903 25.088L19.4455 25.4373V25.0298C19.4455 24.5835 19.1544 24.0207 18.8051 23.6714L18.6111 23.4773H19.0186C19.6201 23.4773 20.1246 23.6714 20.3769 24.0789L20.571 24.4282L20.4739 24.0207C20.3769 23.5744 19.9694 23.128 19.5813 22.8175L19.3291 22.6623L19.7365 22.5652C20.2799 22.41 20.8426 22.5652 21.1919 22.8563L21.483 23.1474L21.2889 22.7399C21.0949 22.3324 20.6486 21.9443 20.1441 21.789L19.853 21.692L20.2605 21.5367C20.8038 21.2844 21.3084 21.2844 21.7547 21.5367L22.104 21.7308L21.8517 21.3815C21.5994 21.0322 21.0561 20.7411 20.5516 20.6829H20.1053L20.4546 20.4306C20.9009 20.0813 21.4636 19.9843 21.9099 20.1395L22.2592 20.2947L21.9681 20.0425C21.6188 19.7514 21.0173 19.5961 20.5127 19.6349L20.2217 19.6932L20.4739 19.4021C20.8814 18.9557 21.3666 18.7617 21.8323 18.8005L22.2398 18.8587L21.8905 18.6646C21.483 18.4706 20.8815 18.4124 20.3963 18.5676L20.1053 18.6646L20.2993 18.3153C20.5904 17.8108 20.9979 17.4615 21.5024 17.4615H21.9099L21.5024 17.3644C21.0561 17.2092 20.4545 17.3062 20.0082 17.5585L19.756 17.7138L19.853 17.3062C20.0082 16.7628 20.3963 16.3553 20.862 16.2001L21.2696 16.1031L20.862 16.0448C20.4157 15.9866 19.8142 16.2389 19.4649 16.5494L19.2708 16.7435L19.3291 16.3359C19.3873 15.7343 19.6201 15.288 20.0858 15.094L20.4351 14.8999H20.0276C19.5813 14.9581 19.0768 15.3074 18.7857 15.6955L18.6305 15.9478L18.5722 15.5403C18.514 14.9387 18.6693 14.4341 19.0186 14.1431L19.3096 13.8908L18.9022 14.046C18.4947 14.2013 18.0483 14.6476 17.8543 15.094L17.7572 15.3462L17.602 14.9387C17.4079 14.3953 17.4468 13.8326 17.7572 13.4833L18.0095 13.1922L17.602 13.3862C17.1945 13.6385 16.8452 14.1431 16.7482 14.6282V14.8805L16.5542 14.5312C16.2631 14.0266 16.2049 13.4833 16.3989 13.0757L16.593 12.7264L16.3019 13.0175C15.9526 13.3086 15.7585 13.9102 15.7585 14.4147V14.7058L15.4093 14.3565C15.0018 13.9102 14.8659 13.4056 14.963 12.9593L15.06 12.5518L14.8077 12.9011C14.5554 13.2504 14.4584 13.9102 14.5554 14.3565L14.6137 14.6476L14.2644 14.3953C13.7598 14.046 13.5076 13.5997 13.5658 13.0951V12.6876L13.4106 13.0951C13.2553 13.5027 13.2553 14.143 13.4688 14.5894L13.5658 14.8417L13.1583 14.6864C12.615 14.4341 12.2657 14.046 12.2075 13.5803L12.1492 13.1728V13.6191C12.0522 14.0654 12.2075 14.667 12.4985 15.0745L12.6537 15.3268L12.2463 15.2298C11.6447 15.1328 11.2372 14.7835 11.0432 14.3371L10.8879 13.9878V14.3953C10.8879 14.8417 11.179 15.4044 11.5283 15.7537L11.7223 15.9478H11.3148C10.7133 15.9478 10.2087 15.7537 9.95648 15.3462L9.76244 14.9969L9.85946 15.4044C9.95648 15.8508 10.364 16.2971 10.7521 16.6076L11.0043 16.7629L10.6551 16.8599C10.1117 17.0151 9.549 16.8599 9.19971 16.5688L8.90864 16.2777L9.10269 16.6852C9.29674 17.0928 9.74303 17.4809 10.2476 17.6361L10.5386 17.7332L10.1893 17.8884C9.646 18.1407 9.14148 18.1407 8.69517 17.8884L8.34587 17.6943L8.59814 18.0436C8.85041 18.393 9.39373 18.684 9.89826 18.7423L10.1893 18.8005L9.84004 19.0527C9.39372 19.4021 8.83098 19.4991 8.38467 19.3438C8.73396 19.6349 9.33551 19.7902 9.84004 19.7514L10.1311 19.6932L9.87888 19.9842C9.47138 20.4306 8.98626 20.6246 8.52054 20.5858H8.07422L8.42352 20.7799C8.83102 20.9739 9.43256 21.0322 9.91768 20.8769L10.2088 20.7799L10.0147 21.1292C9.72364 21.6338 9.31614 21.9831 8.81161 21.9831H8.40409L8.81161 22.0801C9.25793 22.2353 9.85947 22.1383 10.3058 21.886L10.5581 21.7308L10.461 22.1383C10.3058 22.6817 9.91766 23.0892 9.45194 23.2445L9.04446 23.3997L9.45194 23.4579C9.89825 23.5161 10.4998 23.2639 10.8491 22.9534L11.0432 22.7593V23.1086C10.985 23.7102 10.7521 24.1565 10.2864 24.3506L9.93706 24.5446L10.3446 24.4864C10.7909 24.4282 11.2954 24.0789 11.5865 23.6908L11.7417 23.4385L11.8 23.846C11.8582 24.4476 11.7029 24.9522 11.3536 25.2432L11.0626 25.5343L11.4701 25.3791C11.8776 25.2239 12.3239 24.7775 12.5179 24.3312L12.6149 24.0789L12.7702 24.4864C12.9642 25.0298 12.9254 25.5926 12.6149 25.9419L12.3627 26.2329L12.712 25.9807C13.1195 25.7284 13.4688 25.2238 13.5658 24.7387L13.624 24.4476L13.818 24.7969C14.1091 25.3015 14.1673 25.8448 13.9733 26.2524L13.7792 26.6017L14.0703 26.4076C14.4196 26.1165 14.6137 25.5149 14.6137 25.0104V24.7193L14.9047 25.0104C15.3122 25.4567 15.4481 25.9613 15.3511 26.4076L15.254 26.8151L15.5063 26.4658C15.7586 26.1165 15.8556 25.4567 15.7585 25.0104L15.6615 24.7387Z" fill="#FFCE31"/>
</svg>
