<svg width="30" height="31" viewBox="0 0 30 31" fill="none" xmlns="http://www.w3.org/2000/svg">
<path d="M0 15.3845C0 20.2942 2.34798 24.6412 5.99611 27.3774H24.0039C27.652 24.6218 30 20.2748 30 15.3845C30 10.4942 27.652 6.12784 24.0039 3.3916H5.99611C2.34798 6.14725 0 10.4942 0 15.3845Z" fill="#2A5F9E"/>
<path d="M6.01562 3.39171H24.0234C21.5202 1.48993 18.4154 0.383789 15.0195 0.383789C11.6042 0.383789 8.49946 1.48993 6.01562 3.39171Z" fill="#ED4C5C"/>
<path d="M15 30.3854C18.3959 30.3854 21.5006 29.2792 24.0039 27.3774H5.99609C8.49933 29.2986 11.6041 30.3854 15 30.3854Z" fill="#ED4C5C"/>
<path d="M20.7651 15.3846C20.7651 20.4883 15.0212 24.6412 15.0212 24.6412C15.0212 24.6412 9.27734 20.4883 9.27734 15.3846C9.27734 10.2808 15.0212 6.12793 15.0212 6.12793C15.0212 6.12793 20.7651 10.3002 20.7651 15.3846Z" fill="#ED4C5C"/>
<path d="M20.0051 15.3844C20.0051 19.7896 14.9987 23.3797 14.9987 23.3797C14.9987 23.3797 9.99219 19.7702 9.99219 15.3844C9.99219 10.9793 14.9987 7.38916 14.9987 7.38916C14.9987 7.38916 20.0051 10.9987 20.0051 15.3844Z" fill="#B4D7EE"/>
<path d="M20.0051 15.3844C20.0051 19.7896 14.9987 23.3797 14.9987 23.3797C14.9987 23.3797 9.99219 19.7702 9.99219 15.3844C9.99219 10.9793 14.9987 7.38916 14.9987 7.38916C14.9987 7.38916 20.0051 10.9987 20.0051 15.3844Z" fill="#B4D7EE"/>
<path d="M12.3008 19.0913C13.5039 20.799 14.9981 21.8858 14.9981 21.8858C14.9981 21.8858 18.9955 18.9943 18.9955 15.3848C17.1132 17.0925 14.8622 18.3927 12.3008 19.0913Z" fill="#FFE62E"/>
<path d="M11.0039 15.3848C11.0039 16.782 11.6054 18.0434 12.304 19.0913C14.8461 18.3927 17.097 17.0925 18.9987 15.3848H11.0039Z" fill="#428BC1"/>
<path d="M13 14.395V16.3938H14.9987L13 14.395Z" fill="white"/>
<path d="M16.4535 18.8972C14.5518 15.5011 14.8041 12.0468 14.8041 11.8916L15.2115 11.9498C15.2115 12.008 14.9593 15.4041 16.7639 18.6449L16.4535 18.8972Z" fill="#89664C"/>
<path d="M14.9995 10.4943L16.2414 9.38818L15.8338 10.9407L17.4833 11.387L15.8338 11.8333L16.2414 13.3858L14.9995 12.2797L13.7575 13.3858L14.165 11.8333L12.5156 11.387L14.165 10.9407L13.7575 9.38818L14.9995 10.4943Z" fill="#83BF4F"/>
</svg>
