<svg width="30" height="31" viewBox="0 0 30 31" fill="none" xmlns="http://www.w3.org/2000/svg">
<path d="M30.0013 15.3877C30.0013 8.82845 25.8487 3.27835 20.0078 1.24072V29.554C25.8487 27.497 30.0013 21.9469 30.0013 15.3877Z" fill="#42ADE2"/>
<path d="M0 15.3877C0 21.9469 4.19146 27.497 9.99352 29.5346V1.24072C4.21086 3.29775 0 8.84786 0 15.3877Z" fill="#42ADE2"/>
<path d="M20.0051 1.24058C18.4527 0.697219 16.7646 0.386719 14.9987 0.386719C13.2523 0.386719 11.5446 0.677813 9.99219 1.24058V29.5539C11.5446 30.0972 13.2329 30.4077 14.9987 30.4077C16.7452 30.4077 18.4527 30.1166 20.0051 29.5539V1.24058Z" fill="#F9F9F9"/>
<path d="M12.5533 12.3409C12.5533 12.3409 12.204 12.2439 11.9517 12.2439C12.1458 11.8946 12.2428 11.293 12.2428 11.293C12.2428 11.293 11.6995 11.584 11.486 11.9334C11.389 11.6811 11.195 11.4288 11.195 11.4288C11.195 11.4288 10.9427 11.7199 11.0009 11.9722C11.0591 12.2245 11.4084 12.6708 11.4084 12.6708C11.4084 12.6708 11.9129 12.826 12.204 12.729C12.3592 12.6902 12.5533 12.3409 12.5533 12.3409Z" fill="#699635"/>
<path d="M12.0489 13.1364C12.0489 13.1364 11.6996 13.1364 11.4473 13.1946C11.5444 12.8453 11.5056 12.1855 11.5056 12.1855C11.5056 12.1855 11.0592 12.6319 10.9622 12.9812C10.807 12.7871 10.5159 12.5737 10.5159 12.5737C10.5159 12.5737 10.3607 12.923 10.4577 13.1752C10.5547 13.4275 11.0011 13.7186 11.0011 13.7186C11.0011 13.7186 11.5444 13.7186 11.7578 13.5634C11.9519 13.5051 12.0489 13.1364 12.0489 13.1364Z" fill="#83BF4F"/>
<path d="M11.7578 14.0483C11.7578 14.0483 11.4085 14.1454 11.1562 14.2424C11.1562 13.8349 10.904 13.2915 10.904 13.2915C10.904 13.2915 10.6129 13.8349 10.6129 14.1842C10.4188 14.0289 10.1083 13.9319 10.1083 13.9319C10.1083 13.9319 10.0501 14.2812 10.2054 14.5335C10.3606 14.7275 10.904 14.941 10.904 14.941C10.904 14.941 11.4085 14.7858 11.6026 14.5917C11.7966 14.3977 11.7578 14.0483 11.7578 14.0483Z" fill="#699635"/>
<path d="M11.7594 14.9411C11.7594 14.9411 11.4683 15.0963 11.2549 15.2904C11.1579 14.8829 10.8086 14.4365 10.8086 14.4365C10.8086 14.4365 10.6533 15.0381 10.7503 15.3874C10.4981 15.2904 10.207 15.2904 10.207 15.2904C10.207 15.2904 10.207 15.6397 10.4593 15.8338C10.6533 15.989 11.2161 16.0278 11.2161 16.0278C11.2161 16.0278 11.6624 15.7755 11.8176 15.5233C11.8564 15.2904 11.7594 14.9411 11.7594 14.9411Z" fill="#83BF4F"/>
<path d="M11.955 15.8532C11.955 15.8532 11.7027 16.1055 11.5474 16.3578C11.3534 16.0085 10.8488 15.6592 10.8488 15.6592C10.8488 15.6592 10.8488 16.2608 11.0429 16.6101C10.7906 16.6101 10.4414 16.6683 10.4414 16.6683C10.4414 16.6683 10.5384 17.0176 10.8488 17.1146C11.1011 17.2117 11.6445 17.1146 11.6445 17.1146C11.6445 17.1146 12.052 16.7653 12.0908 16.4742C12.149 16.1443 11.955 15.8532 11.955 15.8532Z" fill="#699635"/>
<path d="M12.3984 16.6489C12.3984 16.6489 12.2043 16.94 12.1461 17.1923C11.8939 16.9012 11.2923 16.6877 11.2923 16.6877C11.2923 16.6877 11.4475 17.2893 11.7386 17.5804C11.4863 17.6386 11.1953 17.7745 11.1953 17.7745C11.1953 17.7745 11.3894 18.0656 11.6999 18.1238C11.9909 18.182 12.4566 17.9297 12.4566 17.9297C12.4566 17.9297 12.7477 17.4834 12.7089 17.1729C12.7089 16.9012 12.3984 16.6489 12.3984 16.6489Z" fill="#83BF4F"/>
<path d="M13.001 17.3477C13.001 17.3477 12.9039 17.697 12.9039 17.9492C12.5547 17.7552 11.9531 17.6581 11.9531 17.6581C11.9531 17.6581 12.2442 18.2015 12.5934 18.415C12.3412 18.512 12.089 18.7061 12.089 18.7061C12.089 18.7061 12.38 18.9583 12.6323 18.9001C12.8846 18.8419 13.3309 18.4926 13.3309 18.4926C13.3309 18.4926 13.4861 17.9881 13.3891 17.697C13.3114 17.4059 13.001 17.3477 13.001 17.3477Z" fill="#699635"/>
<path d="M13.7985 17.8521C13.7985 17.8521 13.7984 18.2014 13.8567 18.4537C13.5074 18.3566 12.8477 18.3954 12.8477 18.3954C12.8477 18.3954 13.294 18.8418 13.6433 18.9388C13.488 19.094 13.2939 19.3851 13.2939 19.3851C13.2939 19.3851 13.6432 19.5404 13.8955 19.4434C14.1478 19.3463 14.4388 18.9 14.4388 18.9C14.4388 18.9 14.4388 18.3566 14.2836 18.1431C14.206 17.8909 13.7985 17.8521 13.7985 17.8521Z" fill="#83BF4F"/>
<path d="M17.4453 12.3409C17.4453 12.3409 17.7946 12.2439 18.0469 12.2439C17.8528 11.8946 17.7558 11.293 17.7558 11.293C17.7558 11.293 18.2991 11.584 18.5126 11.9334C18.6096 11.6811 18.8037 11.4288 18.8037 11.4288C18.8037 11.4288 19.0559 11.7199 18.9977 11.9722C18.9395 12.2245 18.5903 12.6708 18.5903 12.6708C18.5903 12.6708 18.0857 12.826 17.7947 12.729C17.6588 12.6902 17.4453 12.3409 17.4453 12.3409Z" fill="#699635"/>
<path d="M17.9492 13.1364C17.9492 13.1364 18.2985 13.1364 18.5508 13.1946C18.4538 12.8453 18.4926 12.1855 18.4926 12.1855C18.4926 12.1855 18.9389 12.6319 19.0359 12.9812C19.1912 12.7871 19.4822 12.5737 19.4822 12.5737C19.4822 12.5737 19.6375 12.923 19.5405 13.1752C19.4434 13.4275 18.9971 13.7186 18.9971 13.7186C18.9971 13.7186 18.4537 13.7186 18.2403 13.5634C18.0462 13.5051 17.9492 13.1364 17.9492 13.1364Z" fill="#83BF4F"/>
<path d="M18.2591 14.0483C18.2591 14.0483 18.6084 14.1454 18.8607 14.2424C18.8607 13.8349 19.1129 13.2915 19.1129 13.2915C19.1129 13.2915 19.4041 13.8349 19.4623 14.1842C19.6563 14.0289 19.9667 13.9319 19.9667 13.9319C19.9667 13.9319 20.0249 14.2812 19.8697 14.5335C19.7145 14.7275 19.1712 14.941 19.1712 14.941C19.1712 14.941 18.6667 14.7858 18.4726 14.5917C18.2009 14.3977 18.2591 14.0483 18.2591 14.0483Z" fill="#699635"/>
<path d="M18.262 14.9411C18.262 14.9411 18.5531 15.0963 18.7665 15.2904C18.8636 14.8829 19.2128 14.4365 19.2128 14.4365C19.2128 14.4365 19.3681 15.0381 19.2711 15.3874C19.5233 15.2904 19.8144 15.2904 19.8144 15.2904C19.8144 15.2904 19.8144 15.6397 19.5621 15.8338C19.3681 15.989 18.8053 16.0278 18.8053 16.0278C18.8053 16.0278 18.359 15.7755 18.2038 15.5233C18.1456 15.2904 18.262 14.9411 18.262 14.9411Z" fill="#83BF4F"/>
<path d="M18.0451 15.8532C18.0451 15.8532 18.2974 16.1055 18.4526 16.3578C18.6467 16.0085 19.1512 15.6592 19.1512 15.6592C19.1512 15.6592 19.1512 16.2608 18.9572 16.6101C19.2094 16.6101 19.5588 16.6683 19.5588 16.6683C19.5588 16.6683 19.4617 17.0176 19.1512 17.1146C18.899 17.2117 18.3556 17.1146 18.3556 17.1146C18.3556 17.1146 17.9481 16.7653 17.9093 16.4742C17.8511 16.1443 18.0451 15.8532 18.0451 15.8532Z" fill="#699635"/>
<path d="M17.5992 16.6489C17.5992 16.6489 17.7932 16.94 17.8514 17.1923C18.1037 16.9012 18.7052 16.6877 18.7052 16.6877C18.7052 16.6877 18.55 17.2893 18.259 17.5804C18.5112 17.6386 18.8023 17.7745 18.8023 17.7745C18.8023 17.7745 18.6083 18.0656 18.2978 18.1238C18.0067 18.182 17.5409 17.9297 17.5409 17.9297C17.5409 17.9297 17.2499 17.4834 17.2887 17.1729C17.3469 16.9012 17.5992 16.6489 17.5992 16.6489Z" fill="#83BF4F"/>
<path d="M16.998 17.3477C16.998 17.3477 17.095 17.697 17.095 17.9492C17.4443 17.7552 18.0459 17.6581 18.0459 17.6581C18.0459 17.6581 17.7548 18.2015 17.3861 18.415C17.6384 18.512 17.8907 18.7061 17.8907 18.7061C17.8907 18.7061 17.5995 18.9583 17.3473 18.9001C17.095 18.8419 16.6488 18.4926 16.6488 18.4926C16.6488 18.4926 16.4935 17.9881 16.5905 17.697C16.6487 17.5029 16.998 17.3477 16.998 17.3477Z" fill="#699635"/>
<path d="M16.2032 17.8521C16.2032 17.8521 16.2033 18.2014 16.1451 18.4537C16.4944 18.3566 17.1541 18.3954 17.1541 18.3954C17.1541 18.3954 16.7078 18.8418 16.3585 18.9388C16.5526 19.094 16.766 19.3851 16.766 19.3851C16.766 19.3851 16.4168 19.5404 16.1645 19.4434C15.9122 19.3463 15.6211 18.9 15.6211 18.9C15.6211 18.9 15.6212 18.3566 15.7764 18.1431C15.7958 17.8909 16.2032 17.8521 16.2032 17.8521Z" fill="#83BF4F"/>
<path d="M18.9973 11.4482L11.9922 17.891L12.5937 18.4344L18.9973 11.4482Z" fill="#94989B"/>
<path d="M11.0039 11.4482L18.0091 17.891L17.4075 18.4344L11.0039 11.4482Z" fill="#94989B"/>
<path d="M13.6016 15.8922H15.6002C15.6002 15.8922 16.1048 15.3876 16.1048 13.8934C16.1048 12.3991 15.6002 11.8945 15.6002 11.8945H13.6016C13.6016 11.8945 14.1061 12.3991 14.1061 13.8934C14.1061 15.3876 13.6016 15.8922 13.6016 15.8922Z" fill="#FFDD7D"/>
<path d="M14.4948 9.79883V9.89586C14.4948 9.95408 14.4948 10.0511 14.553 10.1869C14.553 10.2452 14.6113 10.284 14.6113 10.381C14.6695 10.4392 14.6695 10.5363 14.7083 10.5751C14.7471 10.6139 14.8053 10.7303 14.8635 10.7691C14.9217 10.8079 14.9605 10.9244 15.0576 10.9632C15.2128 11.1184 15.3486 11.2155 15.5621 11.3707C15.6591 11.4289 15.7561 11.526 15.8532 11.5648C15.9502 11.6618 16.0472 11.72 16.2024 11.8171C16.4547 12.0693 16.6488 12.2634 16.8428 12.5739C16.9399 12.7291 17.0369 12.8262 17.0951 12.9814C17.1921 13.1367 17.2503 13.2725 17.2891 13.4278C17.3861 13.7188 17.4832 14.0681 17.4832 14.4369C17.5414 14.7862 17.425 15.0773 17.3861 15.446C17.2891 15.7371 17.1339 16.0475 16.9786 16.2998C16.9204 16.3968 16.7846 16.4939 16.7264 16.5909C16.6294 16.6879 16.5323 16.785 16.4353 16.8432C16.3383 16.9014 16.2413 16.9984 16.1442 17.0373L15.8532 17.1925C15.6979 17.2895 15.5038 17.3477 15.4068 17.3477C15.1545 17.406 14.9994 17.406 14.9994 17.406C14.9994 17.406 15.0964 17.3089 15.2905 17.1537C15.3875 17.0955 15.4845 16.9596 15.6397 16.8626C15.7949 16.7656 15.892 16.6103 16.0472 16.4551C16.1054 16.3969 16.1442 16.2998 16.2024 16.2028C16.2606 16.1058 16.2995 16.0475 16.3577 15.9117C16.4547 15.7176 16.513 15.5042 16.5518 15.2713C16.61 15.019 16.61 14.825 16.5518 14.5727C16.4936 14.3204 16.4547 14.0681 16.3577 13.8741C16.2995 13.777 16.2606 13.6218 16.2024 13.5248C16.1442 13.4278 16.1054 13.2725 16.0084 13.1755C15.8531 12.9814 15.7561 12.7291 15.6009 12.5739C15.4068 12.3798 15.2516 12.1664 15.0576 12.0305C14.9605 11.9335 14.8635 11.8365 14.8053 11.7394C14.7471 11.6424 14.6501 11.5454 14.6113 11.4483L14.456 11.1572C14.3978 11.0602 14.359 10.9632 14.359 10.8662C14.359 10.7691 14.3008 10.6721 14.3008 10.5751V10.3228C14.3008 10.1676 14.359 10.0705 14.3978 10.0317C14.456 9.83765 14.4948 9.79883 14.4948 9.79883Z" fill="#699635"/>
<path d="M11.7024 19.3464C11.5471 19.5016 11.2949 19.5016 11.1008 19.3464C10.9456 19.1911 10.9456 18.9388 11.1008 18.7448L12.2457 17.5998C12.4009 17.4446 12.6532 17.4446 12.8472 17.5998C13.0025 17.7551 13.0025 18.0074 12.8472 18.2014L11.7024 19.3464Z" fill="#594640"/>
<path d="M18.3005 19.3464C18.4557 19.5016 18.7079 19.5016 18.9019 19.3464C19.0572 19.1911 19.0572 18.9388 18.9019 18.7448L17.7571 17.5998C17.6018 17.4446 17.3495 17.4446 17.1555 17.5998C17.0003 17.7551 17.0003 18.0074 17.1555 18.2014L18.3005 19.3464Z" fill="#594640"/>
</svg>
