<svg width="30" height="31" viewBox="0 0 30 31" fill="none" xmlns="http://www.w3.org/2000/svg">
<path d="M18.0058 0.764648H12.0097C6.16884 1.96782 1.5117 6.56701 0.308594 12.4664V18.4629C1.5117 24.3623 6.14943 28.9615 12.0097 30.1646H18.0058C23.9049 28.9615 28.5039 24.3235 29.707 18.4629V12.4664C28.5039 6.56701 23.8467 1.96782 18.0058 0.764648Z" fill="#F5F5F5"/>
<path d="M18.0077 12.4665V0.764722C17.0569 0.570663 16.0672 0.473633 15 0.473633C13.9521 0.473633 12.943 0.570663 11.9922 0.764722V12.4665H0.291074C0.0970245 13.4174 0 14.4071 0 15.4744C0 16.5223 0.0970245 17.5314 0.291074 18.4823H11.9922V30.1841C12.943 30.3782 13.9327 30.4752 15 30.4752C16.0478 30.4752 17.0569 30.3782 18.0077 30.1841V18.4823H29.7089C29.903 17.5314 30 16.5417 30 15.4744C30 14.4265 29.903 13.4174 29.7089 12.4665H18.0077Z" fill="#ED4C5C"/>
<path d="M24.9943 14.2128H16.2427V5.46074L17.4846 4.21875H12.4781L13.7201 5.46074V14.2128H4.96846L3.72656 12.9708V17.9776L4.96846 16.7356H13.7201V25.4877L12.4781 26.7296H17.4846L16.2427 25.4877V16.7356H24.9943L26.2363 17.9776V12.9708L24.9943 14.2128Z" fill="#FFCE31"/>
</svg>
