<svg width="30" height="31" viewBox="0 0 30 31" fill="none" xmlns="http://www.w3.org/2000/svg">
<path d="M9.99353 29.1509V0.857056C4.19146 2.91409 0 8.46419 0 15.004C0 21.5632 4.19146 27.1133 9.99353 29.1509Z" fill="#ED4C5C"/>
<path d="M9.99219 15.004H29.9987C29.9987 6.69824 23.304 0.00317383 14.9987 0.00317383C13.2522 0.00317383 11.5446 0.294268 9.99219 0.857041V15.004Z" fill="#FFCE31"/>
<path d="M9.99219 15.004V29.151C11.5446 29.6943 13.2328 30.0048 14.9987 30.0048C23.304 30.0048 29.9987 23.3098 29.9987 15.004H9.99219Z" fill="#699635"/>
<path d="M5.49289 16.8476L7.64683 18.4971L6.85123 15.8385L9.00518 14.092H6.34671L5.49289 11.4916L4.69729 14.092H2L4.15395 15.8385L3.35834 18.4971L5.49289 16.8476Z" fill="#3E4347"/>
</svg>
