<svg width="30" height="31" viewBox="0 0 30 31" fill="none" xmlns="http://www.w3.org/2000/svg">
<path d="M30.0013 15.4282C30.0013 21.9874 25.8487 27.5375 20.0078 29.5751V1.28125C25.8487 3.33828 30.0013 8.88838 30.0013 15.4282Z" fill="#75A843"/>
<path d="M0 15.4282C0 8.86898 4.19146 3.31887 9.99352 1.28125V29.5945C4.19146 27.5375 0 21.9874 0 15.4282Z" fill="#ED4C5C"/>
<path d="M19.9856 29.594C18.4332 30.1374 16.7449 30.4479 14.9791 30.4479C13.2326 30.4479 11.525 30.1568 9.97266 29.594V1.30013C11.525 0.756765 13.2132 0.446289 14.9791 0.446289C16.7255 0.446289 18.4332 0.737359 19.9856 1.30013V29.594Z" fill="#FFCE31"/>
</svg>
