<svg width="30" height="31" viewBox="0 0 30 31" fill="none" xmlns="http://www.w3.org/2000/svg">
<path d="M14.9887 0.946594C12.3353 0.946594 9.85631 1.64386 7.70654 2.8447L7.64844 28.9533C9.79821 30.1928 12.2966 30.8901 14.9887 30.8901C22.4257 30.8901 28.6039 25.4476 29.7659 18.32V13.5167C28.6039 6.38911 22.4257 0.946594 14.9887 0.946594Z" fill="#699635"/>
<path d="M29.0142 14.7176L7.71014 3.92938V4.12307H5.81214C5.6572 4.27801 5.46353 4.37485 5.30859 4.5298V27.2295C5.46353 27.3845 5.6572 27.5201 5.81214 27.6363H7.65204V27.888L29.2079 17.158C29.266 16.7513 30.0019 16.3058 30.0019 15.9184C30.0019 15.531 29.0142 15.1243 29.0142 14.7176Z" fill="#FFE62E"/>
<path d="M5.75391 4.14234L29.9631 15.8215C29.9631 15.0274 29.905 14.272 29.7694 13.5166L7.71 2.84467C6.99341 3.2514 6.35429 3.63876 5.75391 4.14234Z" fill="white"/>
<path d="M5.24854 5.94366H3.79599C1.45255 8.59713 0 12.0834 0 15.9184C0 19.7533 1.45255 23.259 3.79599 25.8931H5.19044L15.1646 15.9184L5.24854 5.94366Z" fill="#ED4C5C"/>
<path d="M5.24942 4.54913C4.74587 4.99461 4.24232 5.44009 3.79688 5.94367L13.7711 15.9184L3.79688 25.8931C4.24232 26.3967 4.68777 26.8421 5.24942 27.2876L16.6374 15.899L5.24942 4.54913Z" fill="#3E4347"/>
<path d="M29.7499 18.32C29.8467 17.5647 29.9435 16.7706 29.9435 16.0152L5.73438 27.6943C6.33476 28.1979 6.97388 28.5853 7.67111 28.992L29.7499 18.32Z" fill="white"/>
</svg>
