<svg width="30" height="31" viewBox="0 0 30 31" fill="none" xmlns="http://www.w3.org/2000/svg">
<path d="M15 30.8754C23.3053 30.8754 30 24.1804 30 15.8746H0C0 24.1804 6.69469 30.8754 15 30.8754Z" fill="#F42F4C"/>
<path d="M15 0.873779C6.69469 0.873779 0 7.56884 0 15.8746H30C30 7.56884 23.3053 0.873779 15 0.873779Z" fill="#2A5F9E"/>
<path d="M9.00391 10.8678V19.5617C9.15915 19.4647 20.8603 19.5617 20.9961 19.6199V10.8678H9.00391Z" fill="white"/>
<path d="M18.6093 18.6303H11.3519L9.00391 19.5812V20.8814H20.9961V19.6394L18.6093 18.6303ZM17.6973 20.1827C17.6973 20.1827 16.7465 20.5321 14.9418 20.5321C13.1954 20.5321 12.1863 20.1827 12.1863 20.1827V19.7752C12.1863 19.7752 12.9431 20.1245 14.9418 20.1245C16.9405 20.1245 17.6973 19.7752 17.6973 19.7752V20.1827Z" fill="#699635"/>
<path d="M14.7472 17.5824C14.7472 17.4271 14.7472 17.3301 14.689 17.1749L13.68 16.0687C13.3889 16.1269 13.5247 16.5733 13.6217 16.7673L14.7472 17.5824Z" fill="#F42F4C"/>
<path d="M13.3503 16.6703C13.0592 16.7673 13.1562 17.1748 13.2533 17.4271L14.5534 18.184C14.6116 18.1257 14.7086 18.1257 14.8057 18.1257C14.8057 18.0675 14.8057 17.9705 14.7475 17.8346L13.3503 16.6703Z" fill="#F42F4C"/>
<path d="M14.4554 18.281L13.1552 17.5242C13 17.5824 13 17.6794 13 17.8153L13.6015 18.7079L14.3971 18.9602L14.4554 18.281Z" fill="#F42F4C"/>
<path d="M16.3013 16.7673C16.3983 16.5733 16.5535 16.1269 16.2431 16.0687L15.234 17.2137C15.234 17.3689 15.234 17.466 15.1758 17.6212L16.3013 16.7673Z" fill="#F42F4C"/>
<path d="M16.7471 17.4271C16.8441 17.1748 16.9993 16.7867 16.65 16.6703L15.1559 17.8152C15.1559 17.9123 15.1559 18.0093 15.0977 18.0675C15.1947 18.0675 15.2917 18.1257 15.3887 18.1645L16.7471 17.4271Z" fill="#F42F4C"/>
<path d="M16.998 17.8347C16.998 17.6794 16.9397 17.5824 16.8427 17.5824L15.4844 18.281L15.5426 18.9796L16.3382 18.7273L16.998 17.8347Z" fill="#F42F4C"/>
<path d="M15.1541 13.7788V13.9728C15.2511 14.2251 15.3481 14.4192 15.5616 14.5744C15.6586 14.4192 15.6586 13.9728 15.5616 13.5653C15.7168 13.7594 15.9691 13.9146 16.1631 13.9728C16.1631 13.8176 16.0661 13.5653 15.9109 13.3712C16.2019 13.5265 16.5512 13.6235 16.9587 13.5653C16.8617 13.4101 16.6094 13.2742 16.3572 13.119C16.8035 13.216 17.2498 13.3712 17.308 13.3712C17.2498 12.9249 17.0557 12.9249 16.7065 12.7697H17.5991C17.405 12.3621 16.6482 12.3621 16.0467 12.4786C16.396 12.3815 16.9005 12.2263 16.9393 12.2263C16.7841 12.1293 16.0855 11.6829 15.2317 12.3815C15.2317 12.6338 15.1346 12.8861 14.9794 12.8861C14.8242 12.8861 14.7271 12.692 14.7271 12.3815C13.8733 11.7412 13.233 12.1293 13.0777 12.2845C13.1359 12.2845 13.6211 12.4398 13.9704 12.5368C13.3688 12.4398 12.612 12.4786 12.418 12.8279H13.3106C12.9613 13.0219 12.7673 13.0219 12.709 13.4295C12.709 13.4295 13.2136 13.2742 13.6599 13.1772C13.4076 13.3324 13.1554 13.4683 13.0583 13.6235C13.4658 13.6818 13.8539 13.5265 14.1062 13.4295C13.9509 13.6235 13.8151 13.8758 13.8539 14.0311C14.048 13.9728 14.2614 13.837 14.4555 13.6235C14.3585 14.0311 14.3585 14.4192 14.4555 14.6326C14.6107 14.5356 14.7077 14.3803 14.7466 14.1863V13.837H15.0958V13.7788H15.1541Z" fill="#699635"/>
<path d="M12.2461 19.7752V20.1827C12.2461 20.1827 13.2552 20.532 15.0016 20.532C16.748 20.532 17.7571 20.1827 17.7571 20.1827V19.7752C17.7571 19.7752 17.0003 20.1245 15.0016 20.1245C13.0029 20.1245 12.2461 19.7752 12.2461 19.7752Z" fill="white"/>
<path d="M13.7594 16.0687L12.5563 14.7103C12.207 15.0014 12.207 15.4671 12.207 15.603L13.7012 16.7091C13.6042 16.5733 13.4101 16.1269 13.7594 16.0687Z" fill="#2A5F9E"/>
<path d="M13.352 16.6703L11.5473 15.2731C11.295 15.5641 11.4503 16.321 11.4891 16.4762L13.2355 17.4271C13.1579 17.2331 13.0027 16.7673 13.352 16.6703Z" fill="#2A5F9E"/>
<path d="M10.9448 17.0196C10.9448 17.1748 10.8866 17.3107 11.003 17.6212L12.9435 17.8152C12.9435 17.66 13.0018 17.5629 13.0988 17.5629L10.8478 16.321C10.7508 16.5732 10.906 16.9808 10.9448 17.0196Z" fill="#2A5F9E"/>
<path d="M17.7946 15.6224C17.7946 15.4671 17.7946 15.0208 17.4453 14.7297L16.2422 16.0881C16.5333 16.1463 16.3974 16.5927 16.3004 16.7867L17.7946 15.6224Z" fill="#2A5F9E"/>
<path d="M18.4918 16.5344C18.55 16.3404 18.6858 15.6417 18.4336 15.3313L16.6289 16.7285C16.92 16.8255 16.823 17.233 16.7259 17.4853L18.4918 16.5344Z" fill="#2A5F9E"/>
<path d="M19.0947 16.2821L16.8438 17.5241C16.9408 17.5823 16.999 17.6794 16.999 17.7764L18.9395 17.5823C19.0365 17.2912 18.9977 17.136 18.9977 16.9807C19.0947 16.9807 19.25 16.5732 19.0947 16.2821Z" fill="#2A5F9E"/>
<path d="M14.9437 12.7696C15.0989 12.7696 15.1959 12.5756 15.1959 12.2651V12.2069C15.1959 11.9158 15.0989 11.7023 14.9437 11.7023C14.7884 11.7023 14.6914 11.9546 14.6914 12.2069C14.7108 12.5756 14.8467 12.7696 14.9437 12.7696Z" fill="#2A5F9E"/>
<path d="M19.153 18.0287L19.0947 17.6212L18.2409 17.7182C18.1439 17.66 17.9887 17.6212 17.8334 17.6212C17.6394 17.6212 17.4259 17.7182 17.2901 17.8152L16.281 17.9123L16.3781 18.3198L16.6691 18.2616L16.4169 18.7079L15.6213 18.9602V18.3586H14.4764V18.9602L13.6808 18.7079L13.4285 18.3004L13.3703 18.2422L13.6614 18.3004L13.7584 17.8929L12.7493 17.7958C12.5941 17.6406 12.4 17.6018 12.206 17.6018C12.0508 17.6018 11.9149 17.66 11.7985 17.6988L10.9059 17.6018L10.8477 18.0093L11.4492 18.0675C11.391 18.1645 11.3522 18.3198 11.3522 18.475C11.3522 18.9796 11.7597 19.3677 12.2448 19.3677C12.6523 19.3677 13.0016 19.0766 13.0986 18.7273L13.2539 18.9214L14.4958 19.2707C14.4958 19.3677 14.7481 19.4647 15.0973 19.4647C15.3884 19.4647 15.6989 19.3677 15.6989 19.2707L16.9408 18.9214L17.096 18.7273C17.1931 19.1348 17.5424 19.3677 17.9499 19.3677C18.4544 19.3677 18.8425 18.9602 18.8425 18.475C18.8425 18.3198 18.7843 18.1839 18.7455 18.0675L19.153 18.0287Z" fill="#FFE62E"/>
<path d="M11.2942 15.1177C11.2942 15.176 11.236 15.2148 11.236 15.273L11.4301 15.37L11.5271 15.273L14.7677 17.8152L14.8259 18.0674H15.1752L15.2334 17.8152L18.5323 15.273L18.6293 15.37L18.8233 15.273C18.7651 15.2148 18.7651 15.176 18.7263 15.1177H18.8815L19.1726 14.7102L18.6681 14.9043V15.0013H18.6487L18.5517 14.9043L18.3964 15.0595L18.4935 15.1565L15.2916 17.5047L15.3499 17.1554L17.659 14.6132L17.7561 14.7102L17.9501 14.555C17.8919 14.4967 17.8919 14.4579 17.8531 14.4579L18.0083 14.3997L18.2024 13.9534L17.7561 14.2445V14.3997C17.6979 14.3415 17.659 14.3415 17.6008 14.3027L17.4456 14.4968L17.5426 14.5938L16.1454 16.0492L16.3977 15.5059L16.2425 15.4476L15.6021 16.5926L16.1066 15.1954H15.9126L15.3693 16.6896L15.7185 15.2342H15.5245L15.2722 16.1851C15.2722 15.6805 15.1752 13.6817 15.1752 13.6817H14.7289C14.7289 13.6817 14.6707 15.4864 14.6707 16.0298L14.5154 15.2342H14.3214L14.6707 16.6896L14.1273 15.1954H13.9333L14.4378 16.5926L13.7975 15.4476L13.6422 15.5059L13.8945 16.0492L12.4973 14.5938L12.5943 14.4968L12.5361 14.3027C12.4779 14.3609 12.4391 14.3609 12.3809 14.3997V14.2445L11.9346 13.9534L12.1286 14.3997L12.2839 14.4579L12.1869 14.555L12.3809 14.7102L12.4779 14.6132L14.7289 17.1554L14.7871 17.5047L11.6435 15.1565L11.7405 15.0595L11.5465 14.9043C11.4883 14.9625 11.4495 14.9625 11.4495 15.0013H11.3912V14.9043L10.8867 14.7102L11.1778 15.1177H11.2942Z" fill="#FFE62E"/>
<path d="M10.8073 16.3792L10.8655 16.2821L14.4166 18.281L14.7077 18.1839L10.9043 16.1851L10.9626 16.0881L10.7685 15.9328C10.7103 15.991 10.7103 16.0299 10.6715 16.0299H10.6133L10.5551 15.9328L10.0117 15.7776L10.361 16.1269H10.5551C10.4968 16.1851 10.4968 16.2239 10.4968 16.2821L10.8073 16.3792Z" fill="#FFE62E"/>
<path d="M19.5001 16.1851L19.8493 15.8358L19.306 15.9911L19.2478 16.0881H19.1896C19.1314 16.0299 19.1314 15.9911 19.0926 15.9911L18.9955 16.0881L19.0537 16.1851L15.3086 18.1839L15.5609 18.281L16.861 17.5241L19.112 16.2821L19.1702 16.3792L19.4224 16.3209C19.4224 16.2627 19.3642 16.2239 19.3642 16.1657H19.5001" fill="#FFE62E"/>
<path d="M15 18.0675C15.3299 18.0675 15.6015 18.2034 15.6015 18.3586C15.6015 18.5333 15.3299 18.6497 15 18.6497C14.6701 18.6497 14.3984 18.5139 14.3984 18.3586C14.3984 18.2034 14.6701 18.0675 15 18.0675Z" fill="#2A5F9E"/>
</svg>
