<svg width="30" height="31" viewBox="0 0 30 31" fill="none" xmlns="http://www.w3.org/2000/svg">
<path d="M15 0.912354V15.9132H0C0 24.2189 6.69471 30.914 15 30.914C23.3053 30.914 30 24.2189 30 15.9132C30 7.60742 23.3053 0.912354 15 0.912354Z" fill="#2A5F9E"/>
<path d="M5.00781 5.91913H15.5059V16.4177H5.00781V5.91913Z" fill="#2A5F9E"/>
<path d="M8.44109 3.95914V6.90883H4.79297L11.9922 15.9132H15V12.1678L8.44109 3.95914Z" fill="white"/>
<path d="M4.50194 9.37338H1.49418C0.54334 11.3722 0 13.5651 0 15.9326H5.99613V6.88943H4.50194V9.37338Z" fill="white"/>
<path d="M15.0006 13.4681L8.49996 5.41458H5.49219L13.9915 15.9132H15.0006V13.4681Z" fill="#ED4C5C"/>
<path d="M8.44298 2.40663V5.41455H4.48438V6.9088H14.9824V0.912354C12.6538 0.912354 10.4417 1.45573 8.44298 2.40663Z" fill="white"/>
<path d="M14.998 2.40671H8.43915C5.43138 3.86215 2.94756 6.36551 1.49219 9.35403V15.9132H4.49995V5.41463H14.998V2.40671Z" fill="#ED4C5C"/>
<path d="M6.65442 17.718L7.19776 19.9108L9.25468 18.9599L7.89634 20.7647L9.89505 21.8126L7.64408 21.8708L8.09039 24.0637L6.63502 22.356L5.17966 24.0637L5.62597 21.8708L3.375 21.8126L5.3737 20.7647L4.01536 18.9599L6.07228 19.9108L6.65442 17.718Z" fill="white"/>
<path d="M23.0923 9.25696L23.3446 10.2079L24.1984 9.80033L23.6551 10.5572L24.5089 11.0035H23.4998L23.6939 11.9544L23.0923 11.1976L22.4908 11.9544L22.6849 11.0035H21.6758L22.5296 10.5572L21.9863 9.80033L22.8401 10.2079L23.0923 9.25696Z" fill="white"/>
<path d="M27.2452 13.0605L27.4974 14.0114L28.3513 13.6039L27.8079 14.3607L28.6617 14.8071H27.7109L27.8661 15.7579L27.2646 15.0011L26.663 15.7579L26.8571 14.8071H25.9062L26.7601 14.3607L26.1585 13.6039L27.0123 14.0114L27.2452 13.0605Z" fill="white"/>
<path d="M18.3974 14.3219L18.6497 15.2728L19.5423 14.8653L18.9407 15.6221L19.7946 16.0685H18.8437L19.0378 17.0194L18.3974 16.2625L17.7958 17.0194L17.9899 16.0685H17.0391L17.8929 15.6221L17.2913 14.8653L18.1839 15.2728L18.3974 14.3219Z" fill="white"/>
<path d="M23.0923 21.7156L23.3446 22.6665L24.1984 22.259L23.6551 23.0158L24.5089 23.4622L23.4998 23.5204L23.6939 24.413L23.0923 23.7144L22.4908 24.413L22.6849 23.5204L21.6758 23.4622L22.5296 23.0158L21.9863 22.259L22.8401 22.6665L23.0923 21.7156Z" fill="white"/>
<path d="M24.9563 16.9223L25.1503 17.4656H25.6937L25.2473 17.7567L25.4414 18.3001L24.9369 17.9508L24.4905 18.3001L24.6846 17.7567L24.2383 17.4656H24.7816L24.9563 16.9223Z" fill="white"/>
</svg>
