<svg width="30" height="31" viewBox="0 0 30 31" fill="none" xmlns="http://www.w3.org/2000/svg">
<path d="M14.9821 30.9739C21.541 30.9739 27.0908 26.821 29.1283 20.9798H0.835938C2.89286 26.821 8.44267 30.9739 14.9821 30.9739Z" fill="#42ADE2"/>
<path d="M14.9821 0.972168C8.42327 0.972168 2.87345 5.12504 0.835938 10.9662H29.1283C27.0908 5.12504 21.541 0.972168 14.9821 0.972168Z" fill="#42ADE2"/>
<path d="M29.1462 20.9797C29.6895 19.4272 30 17.7389 30 15.9729C30 14.2264 29.7089 12.5187 29.1462 10.9662H0.853821C0.310483 12.5187 0 14.207 0 15.9729C0 17.7195 0.291079 19.4272 0.853821 20.9797H29.1462Z" fill="#F9F9F9"/>
<path d="M14.9825 16.7687L15.9333 17.4673L15.584 16.3223L16.4766 15.6237H15.3317L14.9825 14.4788L14.6332 15.6237H13.4883L14.3809 16.3223L14.0316 17.4673L14.9825 16.7687Z" fill="#42ADE2"/>
<path d="M9.99419 14.2653L10.945 14.9639L10.5957 13.819L11.4884 13.1203H10.3435L9.99419 11.9754L9.6449 13.1203H8.5L9.39265 13.819L9.04335 14.9639L9.99419 14.2653Z" fill="#42ADE2"/>
<path d="M19.9864 14.2653L20.9372 14.9639L20.5879 13.819L21.4806 13.1203H20.3357L19.9864 11.9754L19.6371 13.1203H18.4922L19.3848 13.819L19.0355 14.9639L19.9864 14.2653Z" fill="#42ADE2"/>
<path d="M9.99419 19.272L10.945 19.9706L10.5957 18.8256L11.4884 18.127H10.3435L9.99419 16.9821L9.6449 18.127H8.5L9.39265 18.8256L9.04335 19.9706L9.99419 19.272Z" fill="#42ADE2"/>
<path d="M19.9864 19.272L20.9372 19.9706L20.5879 18.8256L21.4806 18.127H20.3357L19.9864 16.9821L19.6371 18.127H18.4922L19.3848 18.8256L19.0355 19.9706L19.9864 19.272Z" fill="#42ADE2"/>
</svg>
