<svg width="30" height="31" viewBox="0 0 30 31" fill="none" xmlns="http://www.w3.org/2000/svg">
<path d="M22.5 22.528C26.6421 18.3856 26.6421 11.6695 22.5 7.52718C18.3579 3.38483 11.6421 3.38483 7.5 7.52718C3.35787 11.6695 3.35787 18.3856 7.5 22.528C11.6421 26.6703 18.3579 26.6703 22.5 22.528Z" fill="#ED4C5C"/>
<path d="M14.2898 13.5489C14.5368 12.9176 15.1406 12.8079 15.4562 11.9983C15.5934 11.6415 15.3464 10.9416 15.4973 10.5849C15.8129 9.77526 16.6225 9.91248 16.6225 9.91248C15.168 9.37731 13.5489 10.1183 13.0137 11.5454C12.4786 12.9588 13.2196 14.5506 14.674 15.0446C14.2898 14.6055 14.084 14.1115 14.2898 13.5489Z" fill="white"/>
<path d="M14.4289 10.928C14.6073 10.928 14.7445 11.0652 14.7445 11.2436C14.7445 11.422 14.6073 11.5592 14.4289 11.5592C14.2505 11.5592 14.1133 11.422 14.1133 11.2436C14.1133 11.0789 14.2642 10.928 14.4289 10.928Z" fill="#ED4C5C"/>
<path d="M13.0965 14.9622C12.5613 14.5368 12.6436 13.9331 11.9301 13.4116C11.6145 13.1646 10.8736 13.2058 10.558 12.9588C9.84446 12.4236 10.2698 11.6826 10.2698 11.6826C9.30933 12.8902 9.52887 14.6192 10.7638 15.5386C11.9713 16.4579 13.7276 16.2521 14.6881 15.0857C14.1118 15.2778 13.5904 15.319 13.0965 14.9622Z" fill="white"/>
<path d="M11.0821 13.8234C11.2605 13.8234 11.3977 13.9606 11.3977 14.139C11.3977 14.3174 11.2605 14.4546 11.0821 14.4546C10.9037 14.4546 10.7665 14.3174 10.7665 14.139C10.7528 13.9743 10.9037 13.8234 11.0821 13.8234Z" fill="#ED4C5C"/>
<path d="M14.1143 16.5129C13.5518 16.8971 12.9892 16.6227 12.2345 17.1167C11.9189 17.3225 11.6994 18.0361 11.3838 18.2419C10.6428 18.7359 10.0391 18.1321 10.0391 18.1321C10.8898 19.4083 12.6599 19.7239 13.9222 18.8731C15.1983 18.0224 15.5551 16.3208 14.7044 15.0583C14.7593 15.6621 14.6083 16.1698 14.1143 16.5129Z" fill="white"/>
<path d="M12.5628 17.9675C12.6726 17.8303 12.8784 17.7891 13.0156 17.8989C13.1528 18.0087 13.194 18.2145 13.0842 18.3517C12.9745 18.4889 12.7686 18.5301 12.6314 18.4203C12.4942 18.3243 12.453 18.1047 12.5628 17.9675Z" fill="#ED4C5C"/>
<path d="M15.9226 16.0601C16.101 16.6913 15.6756 17.1578 15.9226 18.0086C16.0324 18.3654 16.6361 18.7908 16.7322 19.175C16.9792 20.0258 16.197 20.3826 16.197 20.3826C17.679 19.9572 18.5297 18.434 18.1043 16.9932C17.679 15.5386 16.1285 14.7016 14.6328 15.1132C15.2777 15.2093 15.7442 15.4563 15.9226 16.0601Z" fill="white"/>
<path d="M17.0238 17.9263C16.914 17.7891 16.9551 17.5695 17.0924 17.4735C17.2296 17.3637 17.4491 17.4049 17.5452 17.5421C17.6549 17.6793 17.6138 17.8989 17.4766 17.9949C17.2982 18.1459 17.1198 18.1047 17.0238 17.9263Z" fill="#ED4C5C"/>
<path d="M16.0205 14.2213C16.734 14.2624 17.0084 14.7839 17.9003 14.8251C18.2845 14.8251 18.8883 14.3997 19.2725 14.3997C20.1507 14.4408 20.2604 15.2504 20.2604 15.2504C20.329 13.7273 19.0941 12.4511 17.571 12.4237C16.0205 12.3825 14.7444 13.5489 14.6758 15.072C15.0051 14.5369 15.4305 14.1801 16.0205 14.2213Z" fill="white"/>
<path d="M18.3524 13.7959C18.174 13.8645 17.9956 13.7547 17.927 13.5901C17.8584 13.4117 17.9682 13.2333 18.1328 13.1647C18.3112 13.0961 18.4896 13.2059 18.5582 13.3705C18.6405 13.5489 18.5308 13.7547 18.3524 13.7959Z" fill="#ED4C5C"/>
</svg>
