<svg width="30" height="31" viewBox="0 0 30 31" fill="none" xmlns="http://www.w3.org/2000/svg">
<path d="M15.0017 0.965088C8.4428 0.965088 2.89299 5.15678 0.855469 10.9592H29.1478C27.1103 5.15678 21.5605 0.965088 15.0017 0.965088Z" fill="#ED4C5C"/>
<path d="M15.0017 30.9667C21.5605 30.9667 27.1103 26.8139 29.1478 20.9727H0.855469C2.89299 26.8139 8.4428 30.9667 15.0017 30.9667Z" fill="#83BF4F"/>
<path d="M0.853821 10.9591C0.310483 12.5116 0 14.1999 0 15.9659C0 17.7124 0.291079 19.4201 0.853821 20.9726H29.1462C29.6895 19.4201 30 17.7318 30 15.9659C30 14.2193 29.7089 12.5116 29.1462 10.9591H0.853821Z" fill="#F9F9F9"/>
</svg>
