<svg width="30" height="31" viewBox="0 0 30 31" fill="none" xmlns="http://www.w3.org/2000/svg">
<path d="M29.8075 13.0395C29.7494 12.5359 29.6525 12.0323 29.517 11.5481H0.427229L0.136719 13.0395H29.8075Z" fill="white"/>
<path d="M0.15625 17.0293C0.214352 17.5329 0.311189 18.0365 0.44676 18.5207H29.5365L29.827 17.0293H0.15625Z" fill="white"/>
<path d="M8.98737 1.302C8.48382 1.49569 7.98028 1.80558 7.49609 2.05737V28.011C7.99964 28.3015 8.50319 28.5533 8.98737 28.7664V1.302Z" fill="white"/>
<path d="M12.9766 0.198069V29.8898L14.4678 30.0448V0.0625C13.9837 0.0625 13.4801 0.101227 12.9766 0.198069Z" fill="white"/>
<path d="M0 15.0343C0 15.7315 0.0580879 16.39 0.154925 17.0292H29.8451C29.9419 16.39 30 15.7315 30 15.0343C30 14.337 29.9419 13.6785 29.8451 13.0393H0.154925C0.0580879 13.6785 0 14.337 0 15.0343Z" fill="#ED4C5C"/>
<path d="M8.98828 28.747C10.2278 29.2893 11.5835 29.6961 12.978 29.851V0.197998C11.5835 0.391682 10.2278 0.740327 8.98828 1.30201V28.747Z" fill="#ED4C5C"/>
<path d="M7.49469 11.5286V2.03809C4.00857 4.09113 1.41335 7.4806 0.40625 11.5286H7.49469Z" fill="#2A5F9E"/>
<path d="M7.49469 18.5205V28.011C4.00857 25.958 1.41335 22.5685 0.40625 18.5205H7.49469Z" fill="#2A5F9E"/>
<path d="M14.9723 0.0625H14.4688V11.548H29.5366C27.9484 4.94334 22.0607 0.0625 14.9723 0.0625Z" fill="#2A5F9E"/>
<path d="M14.4883 18.5205V30.0059H14.9918C22.0803 30.0059 27.968 25.1058 29.5561 18.5205H14.4883Z" fill="#2A5F9E"/>
</svg>
