<svg width="30" height="31" viewBox="0 0 30 31" fill="none" xmlns="http://www.w3.org/2000/svg">
<path d="M14.9628 0.148926C8.46218 0.148926 2.91239 4.34061 0.855469 10.143H29.1478C27.0521 4.34061 21.5023 0.148926 14.9628 0.148926Z" fill="#F2B200"/>
<path d="M14.9628 30.1506C21.5217 30.1506 27.0715 25.9977 29.109 20.1565H0.855469C2.91239 25.9977 8.46218 30.1506 14.9628 30.1506Z" fill="#83BF4F"/>
<path d="M0.853844 10.1431C0.310507 11.6955 0 13.3839 0 15.1498C0 16.8963 0.291102 18.6041 0.853844 20.1565H29.1462C29.6895 18.6041 30 16.9157 30 15.1498C30 13.4033 29.7089 11.6955 29.1462 10.1431H0.853844Z" fill="white"/>
<path d="M14.9623 19.1473C17.17 19.1473 18.9597 17.3575 18.9597 15.1497C18.9597 12.9419 17.17 11.1521 14.9623 11.1521C12.7546 11.1521 10.9648 12.9419 10.9648 15.1497C10.9648 17.3575 12.7546 19.1473 14.9623 19.1473Z" fill="#428BC1"/>
<path d="M14.9616 18.6429C16.8907 18.6429 18.4545 17.079 18.4545 15.1498C18.4545 13.2206 16.8907 11.6567 14.9616 11.6567C13.0326 11.6567 11.4688 13.2206 11.4688 15.1498C11.4688 17.079 13.0326 18.6429 14.9616 18.6429Z" fill="white"/>
<path d="M13.6624 12.1613C13.8018 12.1613 13.9147 12.0483 13.9147 11.909C13.9147 11.7697 13.8018 11.6567 13.6624 11.6567C13.5231 11.6567 13.4102 11.7697 13.4102 11.909C13.4102 12.0483 13.5231 12.1613 13.6624 12.1613Z" fill="#428BC1"/>
<path d="M12.8656 12.103C13.0014 12.103 13.1178 12.2195 13.1178 12.3553C13.1178 12.4912 13.0014 12.6076 12.8656 12.6076C12.7297 12.6076 12.6133 12.4912 12.6133 12.3553C12.6133 12.2195 12.7103 12.103 12.8656 12.103Z" fill="#428BC1"/>
<path d="M12.2054 12.7434C12.3412 12.7434 12.4577 12.8599 12.4577 12.9957C12.4577 13.1315 12.3412 13.248 12.2054 13.248C12.0696 13.248 11.9531 13.1315 11.9531 12.9957C11.9531 12.8599 12.0696 12.7434 12.2054 12.7434Z" fill="#428BC1"/>
<path d="M11.7601 13.5586C11.8959 13.5586 12.0124 13.675 12.0124 13.8109C12.0124 13.9467 11.8959 14.0632 11.7601 14.0632C11.6243 14.0632 11.5078 13.9467 11.5078 13.8109C11.5078 13.6556 11.6243 13.5586 11.7601 13.5586Z" fill="#428BC1"/>
<path d="M11.5062 14.9557C11.6455 14.9557 11.7585 14.8428 11.7585 14.7034C11.7585 14.5641 11.6455 14.4512 11.5062 14.4512C11.3669 14.4512 11.2539 14.5641 11.2539 14.7034C11.2539 14.8428 11.3669 14.9557 11.5062 14.9557Z" fill="#428BC1"/>
<path d="M11.5062 15.8483C11.6455 15.8483 11.7585 15.7353 11.7585 15.596C11.7585 15.4567 11.6455 15.3438 11.5062 15.3438C11.3669 15.3438 11.2539 15.4567 11.2539 15.596C11.2539 15.7353 11.3669 15.8483 11.5062 15.8483Z" fill="#428BC1"/>
<path d="M11.7601 16.2559C11.8959 16.2559 12.0124 16.3723 12.0124 16.5081C12.0124 16.644 11.8959 16.7604 11.7601 16.7604C11.6243 16.7604 11.5078 16.644 11.5078 16.5081C11.5078 16.3723 11.6243 16.2559 11.7601 16.2559Z" fill="#428BC1"/>
<path d="M12.2054 17.0515C12.3412 17.0515 12.4577 17.168 12.4577 17.3038C12.4577 17.4396 12.3412 17.5561 12.2054 17.5561C12.0696 17.5561 11.9531 17.4396 11.9531 17.3038C11.9531 17.168 12.0696 17.0515 12.2054 17.0515Z" fill="#428BC1"/>
<path d="M12.8656 17.6919C13.0014 17.6919 13.1178 17.8083 13.1178 17.9442C13.1178 18.08 13.0014 18.1964 12.8656 18.1964C12.7297 18.1964 12.6133 18.08 12.6133 17.9442C12.6133 17.8083 12.7103 17.6919 12.8656 17.6919Z" fill="#428BC1"/>
<path d="M13.6624 18.6623C13.8018 18.6623 13.9147 18.5493 13.9147 18.41C13.9147 18.2706 13.8018 18.1577 13.6624 18.1577C13.5231 18.1577 13.4102 18.2706 13.4102 18.41C13.4102 18.5493 13.5231 18.6623 13.6624 18.6623Z" fill="#428BC1"/>
<path d="M14.514 18.3518C14.6498 18.3518 14.7663 18.4682 14.7663 18.6041C14.7663 18.7399 14.6498 18.8564 14.514 18.8564C14.3782 18.8564 14.2617 18.7399 14.2617 18.6041C14.2617 18.4682 14.3782 18.3518 14.514 18.3518Z" fill="#428BC1"/>
<path d="M15.2148 18.6429C15.2148 18.4876 15.3119 18.3906 15.4089 18.3518C15.5641 18.3518 15.6612 18.4488 15.7 18.5459C15.7 18.7011 15.6029 18.7981 15.5059 18.837C15.3119 18.8952 15.2148 18.7981 15.2148 18.6429Z" fill="#428BC1"/>
<path d="M16.2991 18.6623C16.4384 18.6623 16.5514 18.5493 16.5514 18.41C16.5514 18.2706 16.4384 18.1577 16.2991 18.1577C16.1598 18.1577 16.0469 18.2706 16.0469 18.41C16.0469 18.5493 16.1598 18.6623 16.2991 18.6623Z" fill="#428BC1"/>
<path d="M17.1156 17.6919C17.2514 17.6919 17.3678 17.8083 17.3678 17.9442C17.3678 18.08 17.2514 18.1964 17.1156 18.1964C16.9797 18.1964 16.8633 18.08 16.8633 17.9442C16.8633 17.8083 16.9797 17.6919 17.1156 17.6919Z" fill="#428BC1"/>
<path d="M17.7561 17.0515C17.892 17.0515 18.0084 17.168 18.0084 17.3038C18.0084 17.4396 17.892 17.5561 17.7561 17.5561C17.6203 17.5561 17.5039 17.4396 17.5039 17.3038C17.5039 17.168 17.6203 17.0515 17.7561 17.0515Z" fill="#428BC1"/>
<path d="M18.2015 16.2559C18.3373 16.2559 18.4538 16.3723 18.4538 16.5081C18.4538 16.644 18.3373 16.7604 18.2015 16.7604C18.0657 16.7604 17.9492 16.644 17.9492 16.5081C17.9492 16.3723 18.0657 16.2559 18.2015 16.2559Z" fill="#428BC1"/>
<path d="M18.4554 15.8483C18.5947 15.8483 18.7077 15.7353 18.7077 15.596C18.7077 15.4567 18.5947 15.3438 18.4554 15.3438C18.3161 15.3438 18.2031 15.4567 18.2031 15.596C18.2031 15.7353 18.3161 15.8483 18.4554 15.8483Z" fill="#428BC1"/>
<path d="M18.4551 14.9556C18.2999 14.9556 18.2029 14.8586 18.1641 14.7615C18.1641 14.6063 18.2611 14.5093 18.3581 14.4705C18.5134 14.4705 18.6104 14.5675 18.6492 14.6645C18.7074 14.8004 18.6104 14.8974 18.4551 14.9556Z" fill="#428BC1"/>
<path d="M18.2015 14.0436C18.3408 14.0436 18.4538 13.9307 18.4538 13.7913C18.4538 13.652 18.3408 13.5391 18.2015 13.5391C18.0622 13.5391 17.9492 13.652 17.9492 13.7913C17.9492 13.9307 18.0622 14.0436 18.2015 14.0436Z" fill="#428BC1"/>
<path d="M17.7561 12.7434C17.892 12.7434 18.0084 12.8599 18.0084 12.9957C18.0084 13.1315 17.892 13.248 17.7561 13.248C17.6203 13.248 17.5039 13.1315 17.5039 12.9957C17.5039 12.8599 17.6203 12.7434 17.7561 12.7434Z" fill="#428BC1"/>
<path d="M17.1156 12.103C17.2514 12.103 17.3678 12.2195 17.3678 12.3553C17.3678 12.4912 17.2514 12.6076 17.1156 12.6076C16.9797 12.6076 16.8633 12.4912 16.8633 12.3553C16.8633 12.2195 16.9797 12.103 17.1156 12.103Z" fill="#428BC1"/>
<path d="M16.5537 12.0061C16.4954 12.1614 16.3596 12.2002 16.2044 12.1614C16.0491 12.1032 16.0103 11.9673 16.0492 11.8121C16.1074 11.6568 16.2432 11.618 16.3984 11.6568C16.5536 11.7539 16.6119 11.9091 16.5537 12.0061Z" fill="#428BC1"/>
<path d="M15.6584 11.6956C15.6584 11.8509 15.5032 11.9479 15.3674 11.8897C15.2121 11.8897 15.1151 11.7344 15.1733 11.5986C15.1733 11.4433 15.3286 11.3463 15.4644 11.4045C15.6002 11.4627 15.6973 11.5986 15.6584 11.6956Z" fill="#428BC1"/>
<path d="M14.7664 11.6567C14.7664 11.8119 14.6693 11.909 14.5723 11.9478C14.4171 11.9478 14.3201 11.8508 14.2812 11.7537C14.2812 11.5985 14.3783 11.5014 14.4753 11.4626C14.6111 11.4044 14.7664 11.5014 14.7664 11.6567Z" fill="#428BC1"/>
<path d="M14.9599 15.9067C15.3779 15.9067 15.7167 15.5679 15.7167 15.1499C15.7167 14.7319 15.3779 14.3931 14.9599 14.3931C14.5419 14.3931 14.2031 14.7319 14.2031 15.1499C14.2031 15.5679 14.5419 15.9067 14.9599 15.9067Z" fill="#428BC1"/>
<path d="M14.9603 11.6567L14.8633 13.8108L14.9603 15.1692L15.1156 13.8108L14.9603 11.6567Z" fill="#428BC1"/>
<path d="M14.0508 11.7537L14.4971 13.9077L14.9434 15.1497L14.7493 13.7913L14.0508 11.7537Z" fill="#428BC1"/>
<path d="M13.2148 12.103L14.2239 14.0436L14.9807 15.1498L14.4374 13.9078L13.2148 12.103Z" fill="#428BC1"/>
<path d="M12.5156 12.6465L13.971 14.296L14.9801 15.1499L14.1262 14.1019L12.5156 12.6465Z" fill="#428BC1"/>
<path d="M11.9531 13.4031L13.7578 14.6062L14.9609 15.1496L13.8548 14.354L11.9531 13.4031Z" fill="#428BC1"/>
<path d="M11.6055 14.2571L13.6624 14.8975L14.9625 15.1497L13.7206 14.7034L11.6055 14.2571Z" fill="#428BC1"/>
<path d="M11.4492 15.1498L13.642 15.2468L14.9421 15.1498L13.642 15.0527L11.4492 15.1498Z" fill="#428BC1"/>
<path d="M11.6055 16.0423L13.7012 15.596L14.9431 15.1497L13.643 15.4019L11.6055 16.0423Z" fill="#428BC1"/>
<path d="M11.9531 16.8962L13.8548 15.9453L14.9609 15.1497L13.7578 15.693L11.9531 16.8962Z" fill="#428BC1"/>
<path d="M12.5156 17.5948L14.1069 16.1976L14.9607 15.1497L13.9516 16.0035L12.5156 17.5948Z" fill="#428BC1"/>
<path d="M13.2148 18.1964L14.4179 16.3528L14.9613 15.1497L14.2045 16.2558L13.2148 18.1964Z" fill="#428BC1"/>
<path d="M14.0508 18.5458L14.7493 16.4888L14.9434 15.1304L14.4971 16.3723L14.0508 18.5458Z" fill="#428BC1"/>
<path d="M14.9603 18.6428L15.1156 16.4888L14.9603 15.1304L14.8633 16.4888L14.9603 18.6428Z" fill="#428BC1"/>
<path d="M15.8535 18.5457L15.446 16.3916L14.9414 15.1497L15.1937 16.5081L15.8535 18.5457Z" fill="#428BC1"/>
<path d="M16.7074 18.1964L15.7566 16.2558L14.9609 15.1497L15.5625 16.3916L16.7074 18.1964Z" fill="#428BC1"/>
<path d="M17.4642 17.5948L16.0088 16.0035L14.9609 15.1497L15.8536 16.1976L17.4642 17.5948Z" fill="#428BC1"/>
<path d="M18.0075 16.8962L16.2028 15.693L14.9609 15.1497L16.067 15.9453L18.0075 16.8962Z" fill="#428BC1"/>
<path d="M18.3567 16.0423L16.2997 15.4019L14.9414 15.1497L16.2416 15.596L18.3567 16.0423Z" fill="#428BC1"/>
<path d="M18.4537 15.1499L16.2997 14.9946L14.9414 15.1499L16.2997 15.2469L18.4537 15.1499Z" fill="#428BC1"/>
<path d="M18.3568 14.2571L16.2611 14.7034L14.9609 15.1497L16.3193 14.8975L18.3568 14.2571Z" fill="#428BC1"/>
<path d="M18.0075 13.4031L16.067 14.354L14.9609 15.1496L16.2028 14.6062L18.0075 13.4031Z" fill="#428BC1"/>
<path d="M17.4643 12.7046L15.8731 14.1018L14.9805 15.1497L16.0283 14.2959L17.4643 12.7046Z" fill="#428BC1"/>
<path d="M16.7074 12.103L15.5625 13.9466L14.9609 15.1498L15.7566 14.0436L16.7074 12.103Z" fill="#428BC1"/>
<path d="M15.9118 11.7537L15.2132 13.8107L14.9609 15.1691L15.4655 13.9271L15.9118 11.7537Z" fill="#428BC1"/>
</svg>
