<svg width="30" height="31" viewBox="0 0 30 31" fill="none" xmlns="http://www.w3.org/2000/svg">
<path d="M15.0016 0.326172C8.44278 0.326172 2.89299 4.47905 0.855469 10.3202H29.1479C27.1104 4.47905 21.5605 0.326172 15.0016 0.326172Z" fill="#83BF4F"/>
<path d="M15.0016 30.3281C21.5605 30.3281 27.1104 26.1752 29.1479 20.334H0.855469C2.91239 26.1752 8.46218 30.3281 15.0016 30.3281Z" fill="#ED4C5C"/>
<path d="M0.853798 10.3203C0.31046 11.8728 0 13.5611 0 15.3271C0 17.0736 0.291055 18.7813 0.853798 20.3338H29.1462C29.6895 18.7813 30 17.093 30 15.3271C30 13.5805 29.7089 11.8728 29.1462 10.3203H0.853798Z" fill="#F9F9F9"/>
<path d="M28.6982 21.4785L28.543 21.7696H28.6982V21.4785Z" fill="white"/>
<path d="M1.45603 21.7696L1.30078 21.4785V21.7696H1.45603Z" fill="white"/>
<path d="M1.80628 8.729H1.55406C1.49584 8.78722 1.45703 8.82602 1.45703 8.88424H1.80628V8.729Z" fill="white"/>
<path d="M1.80439 9.8349V9.67966H1.29989V9.38858H2.05666V9.8349H3.16273V8.68994H3.00753V9.64084H2.71646V8.68994H2.56121V9.64084H2.27013V8.68994H2.11489V9.19452H1.31926C1.26105 9.29155 1.22228 9.44678 1.16406 9.54381V9.8349H1.80439Z" fill="white"/>
<path d="M1.80628 21.77H1.45703C1.45703 21.8282 1.51525 21.8671 1.55406 21.9253H1.84513L1.80628 21.77Z" fill="white"/>
<path d="M1.30052 21.4789H2.05729V21.9252H3.16336V20.7803H3.00816V21.7312H2.71709V20.7803H2.56184V21.7312H2.27077V20.7803H2.11552V21.2848H1.26172C1.26172 21.3819 1.30052 21.4207 1.30052 21.4789Z" fill="white"/>
<path d="M1.80365 20.8384H1.04688C1.04688 20.8966 1.1051 20.9354 1.1051 20.9936H1.80365V20.8384Z" fill="white"/>
<path d="M5.80078 9.8349H6.49938V9.67966H5.99483V9.38858H6.7516V9.8349H7.85772V8.68994H7.70247V9.69907H7.4114V8.68994H7.21735V9.69907H6.92628V8.68994H6.77103V9.19452H5.82021V9.8349H5.80078Z" fill="white"/>
<path d="M5.51028 9.8351V9.19472H4.85053V9.38878H5.35503V9.67987H4.59826V9.17529H3.49219V9.87393H3.64739V9.36935H4.40421V9.8157H5.51028V9.8351Z" fill="white"/>
<path d="M3.89844 9.67969H4.15071V9.83492H3.89844V9.67969Z" fill="white"/>
<path d="M3.45312 8.729H6.49974V8.88424H3.45312V8.729Z" fill="white"/>
<path d="M4.85053 21.4786H5.35503V21.7697H4.59826V21.2651H3.49219V21.9637H3.64739V21.4592H4.40421V21.9055H5.51028V21.2651H4.85053V21.4786Z" fill="white"/>
<path d="M3.89844 21.77H4.15071V21.9253H3.89844V21.77Z" fill="white"/>
<path d="M3.45312 20.8384H6.49974V20.9936H3.45312V20.8384Z" fill="white"/>
<path d="M7.70258 21.7698H7.41151V20.7607H7.21746V21.7698H6.92638V20.7607H6.77114V21.2653H5.82031V21.9057H6.51886V21.7504H6.01436V21.4594H6.77114V21.9057H7.87721V20.7607H7.72196V21.7698H7.70258Z" fill="white"/>
<path d="M10.4961 9.8349H11.1365V9.67966H10.6319V9.38858H11.3887V9.8349H12.4948V8.68994H12.3396V9.69907H12.0485V8.68994H11.8932V9.69907H11.6022V8.68994H11.4081V9.19452H10.5155V9.8349H10.4961Z" fill="white"/>
<path d="M10.2053 9.8351V9.19472H9.50678V9.38878H10.0113V9.67987H9.25451V9.17529H8.14844V9.87393H8.30364V9.36935H9.09926V9.8157H10.2053V9.8351Z" fill="white"/>
<path d="M8.10938 8.729H11.156V8.88424H8.10938V8.729Z" fill="white"/>
<path d="M8.59766 9.67969H8.84993V9.83492H8.59766V9.67969Z" fill="white"/>
<path d="M12.3592 21.7698H12.0682V20.7607H11.9129V21.7698H11.6219V20.7607H11.4278V21.2653H10.5352V21.9057H11.1755V21.7504H10.671V21.4594H11.4278V21.9057H12.5339V20.7607H12.3786V21.7698H12.3592Z" fill="white"/>
<path d="M8.59766 21.77H8.84993V21.9253H8.59766V21.77Z" fill="white"/>
<path d="M8.10938 20.8384H11.156V20.9936H8.10938V20.8384Z" fill="white"/>
<path d="M9.50678 21.4786H10.0113V21.7697H9.25451V21.2651H8.14844V21.9637H8.30364V21.4592H9.09926V21.9055H10.2053V21.2651H9.50678V21.4786Z" fill="white"/>
<path d="M14.8461 9.8351V9.19472H14.2057V9.38878H14.7102V9.67987H13.9147V9.17529H12.8086V9.87393H13.0026V9.36935H13.7594V9.8157H14.8461V9.8351Z" fill="white"/>
<path d="M12.8086 8.729H15.8552V8.88424H12.8086V8.729Z" fill="white"/>
<path d="M13.2539 9.67969H13.5062V9.83492H13.2539V9.67969Z" fill="white"/>
<path d="M15.1562 9.8349H15.7966V9.67966H15.2921V9.38858H16.0877V9.8349H17.1938V8.68994H16.9997V9.69907H16.7086V8.68994H16.5534V9.69907H16.2623V8.68994H16.1071V9.19452H15.1562V9.8349Z" fill="white"/>
<path d="M12.8086 20.8384H15.8552V20.9936H12.8086V20.8384Z" fill="white"/>
<path d="M14.2057 21.4786H14.7102V21.7697H13.9147V21.2651H12.8086V21.9637H13.0026V21.4592H13.7594V21.9055H14.8655V21.2651H14.2251V21.4786H14.2057Z" fill="white"/>
<path d="M13.2539 21.77H13.5062V21.9253H13.2539V21.77Z" fill="white"/>
<path d="M16.9997 21.7698H16.7086V20.7607H16.5534V21.7698H16.2623V20.7607H16.1071V21.2653H15.1562V21.9057H15.7966V21.7504H15.2921V21.4594H16.0877V21.9057H17.1938V20.7607H16.9997V21.7698Z" fill="white"/>
<path d="M17.9102 9.67969H18.1624V9.83492H17.9102V9.67969Z" fill="white"/>
<path d="M17.4453 8.729H20.4919V8.88424H17.4453V8.729Z" fill="white"/>
<path d="M19.8125 9.8349H20.5111V9.67966H20.0065V9.38858H20.7634V9.8349H21.8694V8.68994H21.7142V9.69907H21.4231V8.68994H21.2291V9.69907H20.938V8.68994H20.7827V9.19452H19.8319V9.8349H19.8125Z" fill="white"/>
<path d="M19.5026 9.8351V9.19472H18.8623V9.38878H19.3668V9.67987H18.61V9.17529H17.5039V9.87393H17.6592V9.36935H18.4159V9.8157H19.5026V9.8351Z" fill="white"/>
<path d="M17.4453 20.8384H20.4919V20.9936H17.4453V20.8384Z" fill="white"/>
<path d="M21.6948 21.7698H21.4037V20.7607H21.2096V21.7698H20.9186V20.7607H20.7634V21.2653H19.8125V21.9057H20.5111V21.7504H20.0065V21.4594H20.7634V21.9057H21.8694V20.7607H21.7142V21.7698H21.6948Z" fill="white"/>
<path d="M18.8623 21.4786H19.3668V21.7697H18.61V21.2651H17.5039V21.9637H17.6592V21.4592H18.4159V21.9055H19.522V21.2651H18.8816V21.4786H18.8623Z" fill="white"/>
<path d="M17.9102 21.77H18.1624V21.9253H17.9102V21.77Z" fill="white"/>
<path d="M24.1976 9.8351V9.19472H23.499V9.38878H24.0035V9.67987H23.2467V9.17529H22.1406V9.87393H22.2959V9.36935H23.0915V9.8157H24.1976V9.8351Z" fill="white"/>
<path d="M22.6055 9.67969H22.8577V9.83492H22.6055V9.67969Z" fill="white"/>
<path d="M22.1016 8.729H25.1481V8.88424H22.1016V8.729Z" fill="white"/>
<path d="M24.5078 9.8349H25.1482V9.67966H24.6437V9.38858H25.4005V9.8349H26.5065V8.68994H26.3513V9.69907H26.0602V8.68994H25.905V9.69907H25.6139V8.68994H25.4199V9.19452H24.5272V9.8349H24.5078Z" fill="white"/>
<path d="M22.6055 21.77H22.8577V21.9253H22.6055V21.77Z" fill="white"/>
<path d="M23.499 21.4786H24.0035V21.7697H23.2467V21.2651H22.1406V21.9637H22.2959V21.4592H23.0915V21.9055H24.1976V21.2651H23.499V21.4786Z" fill="white"/>
<path d="M22.1016 20.8384H25.1481V20.9936H22.1016V20.8384Z" fill="white"/>
<path d="M26.3514 21.7698H26.0603V20.7607H25.9051V21.7698H25.614V20.7607H25.42V21.2653H24.5273V21.9057H25.1677V21.7504H24.6632V21.4594H25.42V21.9057H26.5261V20.7607H26.3708V21.7698H26.3514Z" fill="white"/>
<path d="M26.7965 8.88424H28.5429C28.4847 8.82602 28.4847 8.78722 28.4459 8.729H26.7383C26.7965 8.729 26.7965 8.88424 26.7965 8.88424Z" fill="white"/>
<path d="M28.1943 9.36946H28.6988V9.66055H27.9421V9.21423H26.8359V9.85461H26.9912V9.35006H27.748V9.7964H28.8541V9.54412C28.7959 9.44709 28.757 9.29185 28.6988 9.19482H28.1943V9.36946Z" fill="white"/>
<path d="M27.2656 9.67969H27.5179V9.83492H27.2656V9.67969Z" fill="white"/>
<path d="M27.2656 21.77H27.5179V21.9253H27.2656V21.77Z" fill="white"/>
<path d="M26.7969 20.8384V20.9936H28.8926C28.8926 20.9354 28.9508 20.8966 28.9508 20.8384H26.7969Z" fill="white"/>
<path d="M28.1953 21.4787H28.6999C28.7581 21.4205 28.7581 21.3817 28.7969 21.2847H28.1953V21.4787Z" fill="white"/>
<path d="M27.9029 21.7696V21.3232H26.7969V21.9636H26.9909V21.4591H27.7477V21.9054H28.4463C28.5045 21.8472 28.5045 21.8084 28.5433 21.7502H27.9029" fill="white"/>
<path d="M17.2512 16.2779C17.6975 14.9777 17.2512 13.5223 16.2422 12.6296C17.3871 14.3373 16.9407 16.5884 15.3495 17.7722L15.4466 14.9777V12.7849C15.2525 12.6878 15.0973 12.5908 15.0002 12.4355C14.9032 12.5908 14.748 12.7266 14.554 12.7849V14.9777L14.651 17.7722C13.0016 16.569 12.5941 14.3179 13.7583 12.6296C12.7105 13.5223 12.303 14.9777 12.7493 16.2779C13.0404 17.1706 13.6419 17.8304 14.3987 18.2185C13.9524 18.3738 13.4479 18.4708 12.9433 18.4708C13.5449 18.6649 14.1465 18.6649 14.6898 18.5678V18.6649L14.9809 19.0724L15.2719 18.6649V18.5678C15.8153 18.6649 16.4168 18.6649 17.0184 18.4708C16.5139 18.4708 16.0093 18.4126 15.563 18.2185C16.3586 17.8304 16.9602 17.1318 17.2512 16.2779Z" fill="#ED4C5C"/>
<path d="M18.3554 13.8716C17.9479 13.2312 17.3076 12.7266 16.5508 12.5132C18.2002 13.7552 18.5495 16.1227 17.3076 17.7722C18.7048 17.0348 19.1511 15.2688 18.3554 13.8716Z" fill="#ED4C5C"/>
<path d="M13.407 12.5327C12.6502 12.7268 12.0099 13.1925 11.6024 13.8911C10.8068 15.2496 11.3113 16.9961 12.6503 17.7917C11.4472 16.1228 11.7576 13.7747 13.407 12.5327Z" fill="#ED4C5C"/>
<path d="M14.2634 12.3191C14.5157 12.4744 14.8649 12.4161 15.0202 12.1639C15.1754 12.4161 15.5247 12.455 15.7769 12.3191C15.971 12.1639 16.068 11.9116 15.971 11.6787C15.9128 11.9698 15.6799 12.125 15.3695 12.0862C15.2142 12.028 15.1172 11.9892 15.0202 11.834C14.9619 11.9892 14.8261 12.028 14.6709 12.0862C14.3798 12.1444 14.1276 11.931 14.0693 11.6787C13.9529 11.931 14.0499 12.1833 14.2634 12.3191Z" fill="#ED4C5C"/>
</svg>
