<svg width="30" height="31" viewBox="0 0 30 31" fill="none" xmlns="http://www.w3.org/2000/svg">
<path d="M15.0212 0.344238C8.46235 0.344238 2.91251 4.49711 0.875 10.3383H29.1674C27.1104 4.49711 21.5607 0.344238 15.0212 0.344238Z" fill="#C94747"/>
<path d="M15.0212 30.3461C21.5801 30.3461 27.1298 26.1932 29.1674 20.3521H0.875C2.91251 26.1932 8.46235 30.3461 15.0212 30.3461Z" fill="#3E4347"/>
<path d="M0.853844 10.3384C0.310507 11.8909 0 13.5792 0 15.3451C0 17.0917 0.291102 18.7994 0.853844 20.3518H29.1462C29.6895 18.7994 30 17.1111 30 15.3451C30 13.5986 29.7089 11.8909 29.1462 10.3384H0.853844Z" fill="#F9F9F9"/>
<path d="M21.364 12.6476C21.267 12.5894 21.17 12.5505 21.17 12.4923C21.1118 12.4341 21.17 12.4341 21.364 12.4923C21.7133 12.5893 21.9656 12.5506 22.2178 12.3371L22.4119 12.143L22.6641 12.2401L22.9552 12.3371C23.0522 12.2789 23.3045 12.046 23.2463 11.9296C23.2463 11.8325 23.3433 11.8325 23.4015 11.9878C23.4986 12.24 23.3433 12.5311 23.1105 12.5893C23.0134 12.6476 22.8582 12.5894 22.7029 12.5311C22.4507 12.4341 22.4507 12.4341 22.2955 12.5311C22.0626 12.8028 21.7133 12.8028 21.364 12.6476Z" fill="#699635"/>
<path d="M22.2578 11.7936C22.1607 11.6965 22.0637 11.2502 22.1025 11.1532C22.1607 11.0562 22.1607 11.0562 22.2578 11.0562C22.413 11.1144 22.4518 11.2114 22.413 11.5607C22.413 11.8518 22.3548 11.8906 22.2578 11.7936Z" fill="#699635"/>
<path d="M11.5666 11.5029C11.5084 11.697 11.9159 12.2598 12.11 12.2986C12.0129 12.3568 11.8577 12.3568 11.7025 12.3956C11.0621 13.036 8.81111 15.2483 8.34539 15.7916C9.58731 15.7916 10.9457 15.7917 12.0905 15.7334C12.0905 14.8796 12.8861 14.8407 13.4489 14.5303C13.7012 14.9766 14.3998 14.9378 14.4968 15.5782V18.3726H3.90169C3.74645 19.1683 3.04786 19.8281 2 19.5758C2.29107 19.2265 2.85384 19.1295 3.04789 18.6831C3.20313 17.674 2.6986 17.0336 2.40752 16.4903C2.91205 16.2962 3.00905 16.238 3.55239 15.8887C3.2031 17.0336 4.50323 16.8978 5.49288 16.8978C5.5511 16.4903 5.49288 16.0439 5.20181 16.0051C5.60931 15.8499 5.64815 15.811 6.2497 15.3065V16.8008H13.6041C13.6041 16.2962 13.7594 15.5588 13.3519 15.5588C13.0026 15.5588 13.3519 16.5679 13.0608 16.5679H7.414V15.617L9.25746 13.7734C9.4127 13.5018 10.5576 12.4538 11.5666 11.5029Z" fill="#699635"/>
<path d="M25.7109 11.4443C26.1184 11.6384 26.4096 11.9489 26.9141 12.0847C26.8559 12.2788 26.6618 12.3758 26.623 12.5893V16.8392C27.1663 16.9362 27.2633 16.6451 27.5156 16.4899C27.5738 17.1885 28.0201 17.8483 28.0201 18.3916H25.7109V11.4443Z" fill="#699635"/>
<path d="M22.605 13.7538C22.605 13.7538 23.4588 13.0552 23.4588 12.997V16.7423H24.0604V12.5506C24.3126 12.2984 24.8172 11.9491 24.9142 11.6968V18.3918H19.6167C19.5196 16.9946 19.5196 15.5974 21.1108 15.8885V15.3451C21.0526 15.2481 20.9556 15.3451 20.9556 15.2481C21.2078 14.9958 21.3049 14.957 22.0035 14.2972V16.7423H22.605V13.7538ZM20.6063 16.7035C20.7033 16.8588 21.1108 16.8588 21.1108 16.6065C21.0526 16.3542 20.5675 16.4512 20.6063 16.7035Z" fill="#699635"/>
<path d="M5.25982 19.4787C5.42058 19.4787 5.5509 19.3483 5.5509 19.1876C5.5509 19.0268 5.42058 18.8965 5.25982 18.8965C5.09907 18.8965 4.96875 19.0268 4.96875 19.1876C4.96875 19.3483 5.09907 19.4787 5.25982 19.4787Z" fill="#699635"/>
<path d="M15.2539 11.4443C15.6614 11.6384 15.9525 11.9489 16.457 12.0847C16.3988 12.2788 16.2047 12.3758 16.1659 12.5893V16.8392C16.7093 16.9362 16.8063 16.6451 17.0586 16.4899C17.1168 17.1885 17.5631 17.8483 17.5631 18.3916H15.2539V11.4443Z" fill="#699635"/>
</svg>
