<svg width="30" height="31" viewBox="0 0 30 31" fill="none" xmlns="http://www.w3.org/2000/svg">
<path d="M0 15.3574C0 21.9166 4.19147 27.4667 9.99354 29.5044V1.21045C4.15266 3.24808 0 8.8176 0 15.3574Z" fill="#83BF4F"/>
<path d="M30.0014 15.3574C30.0014 8.79819 25.8099 3.24808 20.0078 1.21045V29.5044C25.8099 27.4667 30.0014 21.9166 30.0014 15.3574Z" fill="#FF8736"/>
<path d="M9.99219 29.5042C11.5446 30.0476 13.2328 30.3581 14.9987 30.3581C16.7451 30.3581 18.4527 30.067 20.0051 29.5042V1.21031C18.4139 0.666946 16.7645 0.356445 14.9987 0.356445C13.2522 0.356445 11.5446 0.64754 9.99219 1.21031V29.5042Z" fill="white"/>
</svg>
