<svg width="30" height="31" viewBox="0 0 30 31" fill="none" xmlns="http://www.w3.org/2000/svg">
<path d="M30 15.4369C30 23.7426 23.3053 30.4377 15 30.4377C6.69466 30.4377 0 23.7426 0 15.4369C0 7.13111 6.69466 0.436035 15 0.436035C23.3053 0.436035 30 7.13111 30 15.4369Z" fill="#ED4C5C"/>
<path d="M23.656 10.8374L21.1139 10.6822L20.9199 10.5269L20.3766 10.9733L20.4736 11.3808L20.2796 12.0212L19.1734 14.4275L19.0764 14.9321L19.1346 15.4367L18.8824 15.5337L16.3403 14.1753L15.4865 11.5749L14.3804 9.73131L13.4296 9.63428L12.6728 10.1777L9.31576 11.5749L8.52014 11.3226L7.22002 10.1194L6.8125 10.3135L8.11262 12.5064V12.7586L8.75299 12.9527L9.04407 12.6616L9.64564 12.4675L12.3041 12.1183L12.7504 11.9242L13.1968 11.5749L13.3908 11.7301L13.643 14.4858L11.7414 16.3876L10.6353 18.2311L10.9846 19.1238L11.8384 19.4731L14.5939 21.8212L14.7491 22.6169L14.3028 24.3634L14.6521 24.6157L16.0105 22.4616L16.2045 22.3646L16.1075 21.666L15.7 21.5689L15.2536 21.1226L13.7595 18.9297L13.3132 18.5804L12.8668 18.3864L12.9251 18.1341L15.2343 16.6398H15.2924L17.8927 17.3967L20.0467 17.4937L20.6482 16.6981L20.59 15.8054L21.2304 12.2541L21.8707 11.7495L23.6172 11.3032L23.656 10.8374Z" fill="white"/>
<path d="M11.0033 18.2312L11.8571 18.2894L12.1481 18.1341L12.3422 17.8818L12.5362 17.9401L12.5945 18.6969L12.3034 18.7551L12.1093 18.561L11.6048 18.5028L11.1585 18.6969L10.9062 18.5998L11.0033 18.2312Z" fill="#FFE606"/>
<path d="M15.4665 23.1411L14.6126 23.2964L14.5156 23.7039L15.3695 23.4516L15.4665 23.1411Z" fill="#F9DD19"/>
<path d="M22.2555 10.7793L21.9062 10.8375L22.4496 11.4779L22.8571 11.3809L22.2555 10.7793Z" fill="#F9DD19"/>
<path d="M19.4648 15.4951L18.8633 15.9027V16.1549L19.1544 16.2132L19.4454 16.4072L19.8529 17.164L20.2022 17.1058L20.144 16.8147L19.9499 16.6207L19.7947 16.5236L19.5425 16.0773L19.6395 15.7862L19.4648 15.4951Z" fill="#F9DD19"/>
<path d="M7.70212 10.6826L7.54688 11.5365L7.79915 11.7305L7.9932 10.9349L7.70212 10.6826Z" fill="#F9DD19"/>
<path d="M13.9124 9.78955L13.7184 9.98361L13.6602 10.4299L13.4079 10.8763L13.1168 10.9733L13.0586 11.2644L13.699 11.5555L13.893 11.3614L13.7378 11.1091V10.7598L14.1841 10.003L13.9124 9.78955Z" fill="#F9DD19"/>
<path d="M15.2115 16.6402L15.1533 16.6984V16.7566H15.4056L15.2115 16.6402ZM13.6009 14.292L13.5039 14.5831L13.6009 14.4861V14.292ZM16.2982 13.8457L16.2012 13.9039L16.2982 14.195L16.3564 14.2532L16.4146 14.195L16.2982 13.8457Z" fill="#F9DB17"/>
<path d="M16.2016 13.8843L15.0567 14.7769L13.6013 14.2724L13.6595 14.4665L13.5625 14.5635L14.8044 15.1068L15.1537 16.6593L15.2119 16.6011H15.2701L15.4642 16.6981H15.5224L15.3284 15.1068L16.3762 14.2142L16.318 14.156L16.2016 13.8843Z" fill="#F9DD19"/>
<path d="M8.75113 12.4292L9.0034 13.186H9.79902L9.15865 13.6324L9.41092 14.3892L8.75113 13.9429L8.11075 14.3892L8.36303 13.6324L7.72266 13.186H8.51828L8.75113 12.4292Z" fill="#F9DD16"/>
<path d="M19.8526 9.69287L20.1049 10.4497H20.9005L20.2602 10.9543L20.5124 11.7111L19.8721 11.2065L19.2123 11.7111L19.4645 10.9543L18.8242 10.4497H19.6198L19.8526 9.69287Z" fill="#F9DD16"/>
<path d="M16.6107 20.1914L16.863 20.9482H17.6586L17.0182 21.4528L17.2705 22.2096L16.6301 21.7633L16.0286 22.2096L16.2226 21.4528L15.6211 20.9482H16.4167L16.6107 20.1914Z" fill="#F9DD16"/>
</svg>
