<svg width="30" height="31" viewBox="0 0 30 31" fill="none" xmlns="http://www.w3.org/2000/svg">
<path d="M25.2045 4.39621C22.5055 1.89122 18.9521 0.395996 14.9909 0.395996C11.0297 0.395996 7.47637 1.89122 4.77734 4.39621H25.2045Z" fill="#F9F9F9"/>
<path d="M4.79688 26.417C7.4959 28.922 11.0493 30.4172 15.0105 30.4172C18.9717 30.4172 22.525 28.922 25.2241 26.417H4.79688Z" fill="#F9F9F9"/>
<path d="M0 15.4066C0 17.562 0.446583 19.5621 1.2427 21.4069H28.7573C29.5534 19.5621 30 17.562 30 15.4066C30 13.2511 29.5534 11.251 28.7573 9.40625H1.2427C0.446583 11.251 0 13.2511 0 15.4066Z" fill="#F9F9F9"/>
<path d="M4.85395 26.4167H25.2229C26.718 25.0186 27.9802 23.3098 28.7763 21.4067H1.26172C2.09667 23.3098 3.33939 25.0186 4.85395 26.4167Z" fill="#428BC1"/>
<path d="M25.2037 4.39648H4.85419C3.35904 5.79462 2.0969 7.50346 1.30078 9.40647H28.8153C27.961 7.50346 26.7183 5.79462 25.2037 4.39648Z" fill="#428BC1"/>
<path d="M19.5136 12.9015H16.5039L15.0088 10.3965L13.5136 12.9015H10.5039L11.999 15.4065L10.5039 17.9115H13.5136L15.0088 20.4164L16.5039 17.9115H19.5136L18.0185 15.4065L19.5136 12.9015ZM15.0088 11.8529L15.6495 12.9015H14.4068L15.0088 11.8529ZM11.8437 13.6588H13.0864L12.4845 14.7074L11.8437 13.6588ZM11.8437 17.1541L12.4457 16.1055L13.0476 17.1541H11.8437ZM15.0088 18.96L14.4068 17.9115H15.6495L15.0088 18.96ZM16.0961 17.1541H13.9991L12.8922 15.4065L13.9408 13.6588H16.0379L17.1447 15.4065L16.0961 17.1541ZM18.2126 17.1541H16.9699L17.5718 16.1055L18.2126 17.1541ZM17.6107 14.6491L17.0088 13.6005H18.2515L17.6107 14.6491Z" fill="#428BC1"/>
</svg>
