<svg width="30" height="31" viewBox="0 0 30 31" fill="none" xmlns="http://www.w3.org/2000/svg">
<path d="M0 15.373C0 21.9323 4.19147 27.4824 9.99354 29.52V1.22607C4.21087 3.2637 0 8.83322 0 15.373Z" fill="#75A843"/>
<path d="M30.0014 15.373C30.0014 8.81381 25.8099 3.2637 20.0078 1.22607V29.52C25.8487 27.4824 30.0014 21.9323 30.0014 15.373Z" fill="#ED4C5C"/>
<path d="M9.99219 29.5199C11.5446 30.0632 13.2328 30.3737 14.9987 30.3737C16.7645 30.3737 18.4527 30.0826 20.0051 29.5199V1.22594C18.4527 0.682571 16.7645 0.37207 14.9987 0.37207C13.2328 0.37207 11.5446 0.663165 9.99219 1.22594V29.5199Z" fill="white"/>
</svg>
