<svg width="30" height="31" viewBox="0 0 30 31" fill="none" xmlns="http://www.w3.org/2000/svg">
<path d="M25.5606 4.76726C19.7178 -1.037 10.2451 -1.037 4.40234 4.76726L15.0008 12.9204L25.5606 4.76726Z" fill="#699635"/>
<path d="M4.44141 26.0819C10.2842 31.8861 19.7568 31.8861 25.5996 26.0819L15.0011 17.9287L4.44141 26.0819Z" fill="#699635"/>
<path d="M28.0064 22.9372C30.6657 18.3365 30.6657 12.5904 28.0064 7.98975L18.3008 15.4441L28.0064 22.9372Z" fill="#3E4347"/>
<path d="M1.9945 7.93164C-0.664834 12.5906 -0.664834 18.2784 1.9945 22.9373L11.739 15.4248L1.9945 7.93164Z" fill="#3E4347"/>
<path d="M25.5613 4.76709L15.0016 12.9202L4.44192 4.76709C3.49078 5.71829 2.63666 6.76654 1.99609 7.91186L11.7017 15.4244L1.99609 22.9369C2.63666 24.0823 3.49078 25.1888 4.44192 26.0817L15.0016 17.9286L25.5613 26.0817C26.5125 25.1305 27.3083 24.0823 28.0071 22.9369L18.3015 15.4244L28.0071 7.91186C27.3471 6.76654 26.5125 5.71829 25.5613 4.76709Z" fill="#FFE62E"/>
</svg>
