<svg width="30" height="31" viewBox="0 0 30 31" fill="none" xmlns="http://www.w3.org/2000/svg">
<path d="M26.5911 5.92214H24.4933V3.82425C18.9964 -0.682302 10.9744 -0.682302 5.47746 3.82425V5.92214H3.37973C-1.12658 11.4194 -1.12658 19.4418 3.37973 24.939H5.47746V27.0369C10.9744 31.5434 18.9964 31.5434 24.4933 27.0369V24.939H26.5911C31.1363 19.4418 31.1363 11.4388 26.5911 5.92214Z" fill="#F9F9F9"/>
<path d="M14.9747 13.3424L5.45701 3.82422C5.04912 4.11559 4.69955 4.46525 4.34992 4.83432C4.00029 5.20339 3.65062 5.59188 3.33984 5.94153L12.8575 15.4597L3.33984 24.9778C3.6312 25.3857 4.00029 25.7354 4.34992 26.085C4.69955 26.4347 5.10739 26.7843 5.45701 27.0951L14.9747 17.577L24.4923 27.0951C24.9002 26.8038 25.2499 26.4541 25.5995 26.085C25.9491 25.7354 26.2987 25.3275 26.6095 24.9778L17.0918 15.4597L26.6095 5.94153C26.3181 5.53361 25.9685 5.18397 25.5995 4.83432C25.2499 4.48468 24.8419 4.13502 24.4923 3.82422L14.9747 13.3424Z" fill="#ED4C5C"/>
<path d="M17.5221 4.77598C18.1631 7.32063 17.8135 10.4869 14.9776 12.1768C12.1223 10.4286 11.7726 7.26235 12.433 4.77598C13.074 4.13496 16.1236 3.78531 17.5221 4.77598Z" fill="#ED4C5C"/>
<path d="M17.4216 6.03845C17.4216 5.98017 17.3634 5.94132 17.3245 5.98016C17.1303 6.03844 16.567 6.03844 16.431 5.88304C16.6835 5.98016 17.0332 5.78592 17.0332 5.59167C17.0332 5.39742 16.7806 5.18376 16.2368 5.33916C15.7317 5.43628 15.0908 5.39743 15.0908 5.24204C15.0908 5.08664 15.5375 5.04778 15.7901 5.08663C16.0426 5.1449 16.1979 5.1449 16.6447 4.9895C16.5476 5.04778 16.198 5.04778 15.8872 4.9895C15.6347 4.89238 14.9354 4.89238 14.9354 5.28088C14.9354 5.63052 15.6347 5.63053 16.2951 5.53341C16.6447 5.47513 16.8389 5.53341 16.8389 5.63053C16.8389 5.72766 16.4893 5.78592 16.2368 5.78592C15.9843 5.78592 15.7317 5.72765 15.4404 5.8442C14.8965 6.03845 14.2944 5.90247 14.0807 5.64995V5.55283C14.139 5.49455 14.1778 5.4557 14.1778 5.39742C14.2361 5.24202 14.1779 5.24204 14.0225 5.33916C13.9642 5.28089 13.8671 5.24204 13.7311 5.24204C13.5952 5.24204 13.4786 5.30031 13.4398 5.33916C13.2844 5.28089 13.2456 5.28087 13.2844 5.39742C13.2844 5.4557 13.3427 5.55283 13.3815 5.55283C13.3815 5.74708 13.5758 6.05787 13.5758 6.05787C13.2844 5.99959 12.9153 5.51398 12.8182 5.26146C12.7599 5.16433 12.6628 5.10605 12.6239 5.10605C12.5851 5.10605 12.5268 5.16432 12.5657 5.20317C12.624 5.26145 12.6628 5.26146 12.6628 5.35858C12.6045 5.26146 12.5074 5.26145 12.4686 5.3003C12.4103 5.35857 12.4685 5.39742 12.5268 5.39742C12.6239 5.39742 12.5851 5.49455 12.6239 5.55283C12.5268 5.4557 12.4685 5.4557 12.4297 5.49454C12.3908 5.53339 12.4297 5.59167 12.488 5.59167C12.5851 5.59167 12.8959 6.03844 13.634 6.44636C13.634 6.50464 13.4786 6.50465 13.3815 6.50465C13.1873 6.50465 12.9736 6.50464 12.8376 6.34924C12.7405 6.25212 12.5851 6.15501 12.488 6.19386C12.4297 6.25213 12.488 6.29098 12.5463 6.29098C12.6045 6.29098 12.6434 6.29097 12.7017 6.34924C12.6046 6.29097 12.5463 6.34924 12.5075 6.34924C12.4492 6.40751 12.5074 6.44636 12.5657 6.44636C12.624 6.44636 12.7211 6.38809 12.7599 6.44636C12.7017 6.44636 12.6046 6.44637 12.6046 6.50465C12.6046 6.56292 12.6045 6.60177 12.6628 6.60177C12.7599 6.60177 13.5563 7.10682 14.2167 6.50465C14.3138 6.50465 14.9743 6.50465 15.2268 6.3104C15.3822 6.50465 15.421 6.50465 15.5764 6.50465C15.7318 6.56292 15.8288 6.56292 15.7317 6.60177C15.6735 6.66005 15.5375 6.60177 15.4404 6.60177C15.1879 6.60177 15.0325 6.40752 14.9937 6.50465C14.9354 6.56292 14.9937 6.60177 15.0908 6.60177C14.9937 6.60177 14.8966 6.60177 14.9354 6.6989C14.9937 6.85429 15.0908 6.64061 15.1297 6.75716C15.0714 6.75716 15.0325 6.75717 15.0325 6.81544C15.0325 6.87371 15.1297 6.91256 15.2268 6.81544C15.2851 6.75717 15.3822 6.75716 15.421 6.75716C15.6153 6.75716 16.0231 6.85429 16.1785 6.6989C16.2368 6.64062 16.1785 6.60176 16.1202 6.54349C16.0619 6.48521 16.062 6.44638 16.062 6.29098C16.2174 6.34925 16.4116 6.34925 16.7029 6.29098C17.0525 6.23271 17.1497 6.34925 17.1497 6.48523C17.1497 6.58235 17.0914 6.58235 17.0526 6.58235C16.8584 6.58235 16.8 6.52407 16.7029 6.52407C16.6446 6.52407 16.6058 6.62119 16.7029 6.62119C16.6446 6.67947 16.6446 6.71832 16.7029 6.71832H16.8584C16.8001 6.77659 16.703 6.81545 16.7612 6.87372C16.7612 6.932 16.8583 6.932 16.9166 6.87372C16.9749 6.81545 17.072 6.77659 17.1692 6.71832C17.4217 6.73774 17.5188 6.29097 17.4216 6.03845Z" fill="#FFE62E"/>
<path d="M17.3253 8.23412C17.3253 8.17584 17.2671 8.13698 17.2282 8.17583C17.034 8.23411 16.529 8.23411 16.3736 8.07871C16.6261 8.17583 16.9174 7.98159 16.9174 7.78734C16.9174 7.59309 16.6649 7.43768 16.1599 7.53481C15.6549 7.63193 15.0527 7.59308 15.0527 7.43768C15.0527 7.28228 15.4995 7.24345 15.6938 7.2823C15.888 7.34057 16.1017 7.34057 16.4902 7.18517C16.393 7.24345 16.0434 7.24345 15.7909 7.18517C15.5384 7.1269 14.8974 7.12688 14.8974 7.43768C14.8974 7.78733 15.5966 7.72906 16.1405 7.69021C16.4901 7.63194 16.6844 7.69021 16.6844 7.78734C16.6844 7.88446 16.393 7.94274 16.1405 7.88446C15.888 7.82619 15.6354 7.8262 15.3441 7.94275C14.8391 8.09814 14.2369 8.00102 14.101 7.7485V7.65137C14.1592 7.5931 14.1592 7.55424 14.1981 7.49597C14.2564 7.39884 14.1981 7.34056 14.0427 7.43768C13.9845 7.37941 13.8873 7.34056 13.7902 7.34056C13.6348 7.34056 13.596 7.39883 13.5377 7.43768C13.3823 7.37941 13.3435 7.37942 13.3824 7.49597C13.3824 7.55424 13.4406 7.65137 13.4795 7.65137C13.4795 7.84562 13.6737 8.09814 13.6737 8.15641C13.4212 8.09814 13.0716 7.61251 12.9744 7.39884C12.9162 7.30172 12.819 7.24343 12.7802 7.24343C12.7219 7.24343 12.7219 7.30171 12.7219 7.34056C12.7219 7.39883 12.819 7.39884 12.819 7.49597C12.7607 7.43769 12.6636 7.39883 12.6247 7.43768C12.5665 7.49596 12.6248 7.53481 12.6831 7.53481C12.7802 7.53481 12.7413 7.63194 12.7802 7.69021C12.6831 7.59309 12.6248 7.59308 12.586 7.63193C12.5471 7.67078 12.5859 7.72905 12.6442 7.72905C12.7413 7.72905 13.0521 8.13699 13.7514 8.52549C13.7514 8.58376 13.6543 8.58375 13.5571 8.58375C13.4018 8.58375 13.1492 8.58376 13.0521 8.42837C12.955 8.33124 12.7996 8.23412 12.7025 8.33124C12.6442 8.38952 12.7025 8.42837 12.7608 8.42837C12.819 8.42837 12.8578 8.42835 12.9161 8.48663C12.8578 8.42835 12.7607 8.48663 12.7219 8.48663C12.6636 8.5449 12.7219 8.58375 12.7802 8.58375C12.8385 8.58375 12.9356 8.52547 12.9744 8.58375H12.819C12.7607 8.64202 12.819 8.68087 12.8773 8.68087C12.9744 8.68087 13.7319 9.18592 14.3729 8.58375C14.47 8.58375 15.0722 8.58376 15.3247 8.42837C15.4801 8.62261 15.5189 8.58376 15.6743 8.62261C15.8297 8.68089 15.9268 8.68089 15.8297 8.71974C15.7714 8.77801 15.6743 8.71974 15.5383 8.71974C15.2858 8.71974 15.1887 8.56434 15.0916 8.62261C15.0333 8.68089 15.0916 8.71974 15.1887 8.71974C15.0916 8.71974 15.0334 8.71972 15.0334 8.778C15.0916 8.9334 15.1888 8.77801 15.2276 8.83628C15.1693 8.83628 15.1305 8.83627 15.1305 8.89454C15.1305 8.95282 15.2276 8.99167 15.3247 8.89454C15.383 8.83627 15.4801 8.83628 15.519 8.83628C15.6744 8.83628 16.0628 8.9334 16.2181 8.778C16.2764 8.71972 16.2182 8.68089 16.1599 8.62261C16.1016 8.56434 16.1017 8.52548 16.1017 8.37008C16.2571 8.42836 16.4512 8.42836 16.7037 8.37008C16.9951 8.31181 17.1117 8.42836 17.1117 8.56433C17.1117 8.66145 17.0534 8.66145 17.0145 8.66145C16.8591 8.66145 16.762 8.60317 16.7232 8.60317C16.6843 8.60317 16.6649 8.70029 16.7232 8.70029C16.6649 8.75857 16.6649 8.79742 16.7232 8.79742H16.8786C16.8204 8.85569 16.7232 8.89455 16.7815 8.95283C16.7815 9.0111 16.8786 9.0111 16.9369 8.95283C16.9951 8.89455 17.0923 8.8557 17.1311 8.8557C17.2671 8.89455 17.4225 8.48664 17.3253 8.23412Z" fill="#FFE62E"/>
<path d="M16.6651 10.1371C16.6651 10.0788 16.6069 10.0789 16.568 10.0789C16.4126 10.1371 16.063 10.0788 15.9076 10.0206C16.1019 10.0788 16.3155 9.92344 16.3155 9.82632C16.3155 9.67092 16.1213 9.5738 15.7716 9.63207C15.422 9.72919 14.9752 9.69034 14.9752 9.57379C14.9752 9.47666 15.2666 9.41839 15.4803 9.47666C15.6357 9.47666 15.7717 9.53495 16.0824 9.4184C16.0242 9.47668 15.7911 9.47668 15.5774 9.4184C15.3637 9.36013 14.9364 9.36013 14.9364 9.61265C14.9364 9.86517 15.4414 9.86516 15.8882 9.76803C16.1407 9.70976 16.2961 9.76804 16.2961 9.82632C16.2961 9.92344 16.0436 9.92344 15.8882 9.92344C15.694 9.92344 15.5385 9.92345 15.3443 9.98173C14.9364 10.0789 14.5479 10.04 14.3925 9.82632V9.72919C14.4508 9.67092 14.4509 9.63207 14.4509 9.63207C14.5091 9.53495 14.4509 9.53494 14.3537 9.57379C14.2955 9.51551 14.2566 9.51553 14.1595 9.51553C14.0624 9.51553 14.0041 9.51551 13.9653 9.57379C13.8681 9.51551 13.8099 9.51552 13.8681 9.63207C13.8681 9.69034 13.9264 9.72919 13.9264 9.72919C13.9264 9.88459 14.0817 10.0789 14.0817 10.0789C13.8875 10.0789 13.6351 9.67092 13.5768 9.53495C13.5768 9.47667 13.4796 9.43782 13.4213 9.43782C13.3631 9.43782 13.3631 9.49611 13.4213 9.49611C13.4796 9.55438 13.5185 9.55438 13.5185 9.59323C13.4602 9.53496 13.4214 9.53495 13.3631 9.53495C13.3631 9.53495 13.3631 9.59323 13.4213 9.59323C13.4796 9.59323 13.4797 9.6515 13.4797 9.69035C13.4214 9.63208 13.3825 9.63208 13.3242 9.69035C13.3242 9.69035 13.3243 9.74861 13.3825 9.74861C13.4408 9.74861 13.6738 10.04 14.1788 10.3508C14.1788 10.4091 14.0818 10.4091 14.0235 10.4091C13.9264 10.4091 13.7322 10.4091 13.6739 10.3119C13.6156 10.2148 13.4796 10.1565 13.4213 10.2148C13.3631 10.2731 13.4214 10.3119 13.4797 10.2731C13.5379 10.2148 13.5379 10.2731 13.5768 10.3314H13.4213C13.3631 10.3896 13.4214 10.4285 13.4797 10.3896C13.5379 10.3896 13.5767 10.3314 13.635 10.3896H13.5379C13.5379 10.3896 13.5379 10.4479 13.5961 10.4479C13.6933 10.4479 14.2372 10.7976 14.7033 10.3896C14.7616 10.3896 15.2472 10.3896 15.4026 10.2342C15.4026 10.4868 15.4608 10.4868 15.558 10.4868C15.6551 10.4868 15.7133 10.4868 15.6551 10.5839H15.4608C15.2666 10.5839 15.2083 10.4285 15.1695 10.5256C15.1112 10.5839 15.1695 10.6227 15.2278 10.6227C15.1695 10.6227 15.1307 10.6227 15.1307 10.681C15.1307 10.7781 15.2278 10.681 15.286 10.681C15.2278 10.681 15.1889 10.681 15.1889 10.7393C15.1889 10.7975 15.2472 10.7975 15.3443 10.7393C15.4025 10.681 15.4414 10.681 15.4997 10.681C15.6551 10.681 15.9076 10.7393 16.0048 10.6227C16.063 10.5645 16.0047 10.5645 15.9464 10.5256C15.8882 10.4673 15.8882 10.4285 15.8882 10.3702H16.3349C16.5874 10.3119 16.6263 10.4285 16.6263 10.5256C16.6263 10.5839 16.568 10.6227 16.568 10.6227C16.4126 10.6227 16.3737 10.5645 16.3155 10.5645C16.2572 10.5645 16.2572 10.6227 16.3155 10.6616C16.2572 10.6616 16.2572 10.7199 16.3155 10.7199H16.4126C16.3543 10.7199 16.3155 10.7781 16.3543 10.817C16.3543 10.817 16.4126 10.8753 16.4515 10.817C16.5097 10.7587 16.5485 10.7199 16.6068 10.7199C16.6651 10.6422 16.7817 10.3314 16.6651 10.1371Z" fill="#FFE62E"/>
<path d="M14.9767 4.2321C16.0256 4.2321 16.9774 4.52348 17.5795 4.87313C17.6766 3.97959 18.0846 3.12489 18.5896 2.46445C18.0846 2.46445 17.8903 2.71697 17.8903 2.96949C17.7932 2.61984 17.2882 2.61986 17.1328 2.81411C17.6767 3.16375 17.23 3.8242 16.7832 3.6688C16.5307 3.61053 16.4336 3.47454 16.3753 3.22202C16.5307 3.22202 16.6278 3.06662 16.6278 2.93065C16.6278 2.79468 16.4724 2.67812 16.3364 2.67812C16.2004 2.67812 16.0839 2.83352 16.0839 2.96949C16.0839 3.06661 16.1422 3.16375 16.2393 3.22202C16.0839 3.47454 15.7925 3.5134 15.6371 3.47455C15.3846 3.41628 15.2875 3.18316 15.2875 2.96949C15.2875 2.4256 15.7925 2.36733 15.9285 2.46445C15.9285 2.1148 15.3846 1.82345 15.171 2.11482C15.3652 1.76517 15.3653 1.26012 15.0156 0.96875C14.666 1.3184 14.6659 1.76517 14.8602 2.11482C14.7048 1.82345 14.1027 2.1148 14.1027 2.46445C14.2581 2.36733 14.7437 2.46445 14.7437 2.96949C14.7437 3.16374 14.6465 3.41628 14.394 3.47455C14.1998 3.53283 13.9473 3.47454 13.7919 3.22202C13.9473 3.16375 13.9862 3.02776 13.9473 2.87237C13.8891 2.71697 13.753 2.67813 13.5976 2.71698C13.4422 2.77526 13.4034 2.91122 13.4423 3.06661C13.5006 3.16374 13.5976 3.22202 13.6948 3.22202C13.6365 3.47454 13.5394 3.62995 13.2869 3.6688C12.7819 3.8242 12.3934 3.16375 12.9373 2.81411C12.7819 2.61986 12.2769 2.61984 12.1797 2.96949C12.1797 2.71697 11.9855 2.4256 11.4805 2.46445C11.9272 3.10547 12.3352 4.01844 12.4905 4.87313C12.9761 4.52348 13.9279 4.2321 14.9767 4.2321Z" fill="#FFE62E"/>
</svg>
