<svg width="30" height="31" viewBox="0 0 30 31" fill="none" xmlns="http://www.w3.org/2000/svg">
<path d="M3.00781 10.4902H29.1657C27.1088 4.68778 21.5589 0.496094 15.0194 0.496094C10.11 0.496094 5.76333 2.84422 3.02724 6.49253V10.4902H3.00781Z" fill="#3E4347"/>
<path d="M29.1461 10.4902H2.98828V20.4843H29.1461C29.6895 18.9318 29.9999 17.2435 29.9999 15.4776C29.9999 13.7504 29.7089 12.0427 29.1461 10.4902Z" fill="#F9F9F9"/>
<path d="M3.00781 20.5039V24.5015C5.76331 28.1499 10.1101 30.498 15.0001 30.498C21.559 30.498 27.1087 26.3451 29.1463 20.5039H3.00781Z" fill="#75A843"/>
<path d="M3.00776 6.49219C1.10608 8.99555 0 12.1005 0 15.4965C0 18.8926 1.10608 21.9975 3.00776 24.5009L15 15.4965L3.00776 6.49219Z" fill="#C94747"/>
<path d="M4.50267 14.3516L5.00721 12.9932L5.51167 14.3516L6.75366 13.75L6.15208 14.992L7.51043 15.4965L6.15208 16.0011L6.75366 17.2431L5.51167 16.6415L5.00721 17.9999L4.50267 16.6415L3.26077 17.2431L3.86225 16.0011L2.50391 15.4965L3.86225 14.992L3.26077 13.75L4.50267 14.3516Z" fill="white"/>
</svg>
