<svg width="30" height="31" viewBox="0 0 30 31" fill="none" xmlns="http://www.w3.org/2000/svg">
<path d="M15 30.974C23.2843 30.974 30 24.2579 30 15.9732C30 7.68851 23.2843 0.972412 15 0.972412C6.71573 0.972412 0 7.68851 0 15.9732C0 24.2579 6.71573 30.974 15 30.974Z" fill="#00AFCA"/>
<path d="M27.3626 16.5165C27.0133 16.3225 26.6058 16.5748 26.6058 16.9241C26.4506 19.3692 22.1621 20.029 20.1052 20.029C18.0482 20.0872 13.6627 19.3304 13.5075 16.9241C13.5075 16.5748 13.1 16.3807 12.7507 16.5165C11.7028 17.0599 11.3535 18.1078 11.6058 19.1752C12.0521 21.077 14.4001 22.4159 16.3988 23.0175C16.2436 23.3668 16.2048 23.7162 16.1466 24.0655C16.0883 24.473 16.6899 24.6088 17.0004 24.3566C18.1453 23.5027 19.9499 23.1534 21.4441 23.1534C22.0845 23.1534 22.0845 22.2607 21.4441 22.2607C20.0858 22.2607 18.6498 22.513 17.4467 23.0564C17.893 22.0084 18.9409 20.9605 20.1052 20.9023H20.1634C22.5696 20.9605 26.4118 20.1066 27.4208 17.8556C27.5761 18.2631 27.5761 18.7094 27.4208 19.0975C26.9163 20.6888 25.1698 21.3486 23.5204 21.795C22.9189 21.9502 23.1711 22.8429 23.7727 22.6488C25.8684 22.1055 27.5178 21.2516 28.3717 19.3498C28.7598 18.3795 28.3523 17.1763 27.3626 16.5165ZM16.8063 22.1831C15.1569 21.7368 13.915 20.9411 12.9059 19.6409C12.4984 19.0975 12.3626 18.3407 12.7119 17.7973C13.4687 19.5439 15.9137 20.4559 18.1065 20.747C17.6019 21.1157 17.1556 21.6203 16.8063 22.1831Z" fill="#FFE62E"/>
<path d="M23.7406 14.3491C24.2322 12.2847 22.9574 10.2126 20.8931 9.72094C18.8289 9.22926 16.7569 10.5042 16.2652 12.5685C15.7736 14.6329 17.0484 16.705 19.1127 17.1967C21.1769 17.6884 23.2489 16.4135 23.7406 14.3491Z" fill="#FFE62E"/>
<path d="M20.0054 9.12292C20.2577 9.12292 20.2965 8.96767 20.2965 8.83183C20.2965 8.57955 20.0054 7.53162 20.0054 7.53162C20.0054 7.53162 19.7144 8.63777 19.7144 8.83183C19.695 8.96767 19.7532 9.12292 20.0054 9.12292Z" fill="#FFE62E"/>
<path d="M21.6551 9.43335C21.8492 9.53038 22.0044 9.43334 22.0626 9.27809C22.1597 9.08403 22.2567 7.91968 22.2567 7.91968C22.2567 7.91968 21.5581 8.81237 21.4611 9.02583C21.4417 9.18108 21.4417 9.37513 21.6551 9.43335Z" fill="#FFE62E"/>
<path d="M24.0428 15.1192C23.9457 15.3133 24.0428 15.4686 24.198 15.5268C24.392 15.6238 25.5563 15.7208 25.5563 15.7208C25.5563 15.7208 24.6637 15.0222 24.4503 14.9252C24.295 14.9252 24.101 14.9252 24.0428 15.1192Z" fill="#FFE62E"/>
<path d="M18.3555 17.5257C18.1614 17.4286 18.0062 17.5256 17.948 17.6809C17.8509 17.8749 17.7539 19.0393 17.7539 19.0393C17.7539 19.0393 18.4525 18.1466 18.5495 17.9332C18.5495 17.7779 18.5495 17.5839 18.3555 17.5257Z" fill="#FFE62E"/>
<path d="M15.9511 11.8202C16.0481 11.6261 15.9511 11.4709 15.7958 11.4127C15.6018 11.3157 14.4375 11.2186 14.4375 11.2186C14.4375 11.2186 15.3301 11.9172 15.5436 12.0143C15.6988 12.0337 15.8929 12.0337 15.9511 11.8202Z" fill="#FFE62E"/>
<path d="M23.0902 10.3648C23.2454 10.52 23.4394 10.4618 23.5365 10.3648C23.6917 10.2095 24.235 9.21985 24.235 9.21985C24.235 9.21985 23.226 9.76321 23.0902 9.91846C22.9543 10.0737 22.9543 10.2289 23.0902 10.3648Z" fill="#FFE62E"/>
<path d="M23.0919 16.5747C22.9367 16.7299 22.9949 16.8658 23.0919 17.021C23.2472 17.1763 24.2368 17.7197 24.2368 17.7197C24.2368 17.7197 23.6935 16.7105 23.5382 16.5747C23.4024 16.4194 23.2472 16.4194 23.0919 16.5747Z" fill="#FFE62E"/>
<path d="M16.9027 16.5747C16.7475 16.4195 16.5534 16.4777 16.4564 16.5747C16.3012 16.73 15.7578 17.7197 15.7578 17.7197C15.7578 17.7197 16.7669 17.1763 16.9027 17.0211C17.0579 16.8658 17.0579 16.73 16.9027 16.5747Z" fill="#FFE62E"/>
<path d="M16.9027 10.3648C17.0579 10.2095 16.9997 10.0155 16.9027 9.91846C16.7475 9.76321 15.7578 9.21985 15.7578 9.21985C15.7578 9.21985 16.3012 10.2289 16.4564 10.3648C16.5922 10.52 16.7475 10.52 16.9027 10.3648Z" fill="#FFE62E"/>
<path d="M24.0428 11.8202C24.1398 12.0143 24.295 12.0725 24.4503 11.9754C24.6443 11.8784 25.5563 11.1798 25.5563 11.1798C25.5563 11.1798 24.4114 11.3351 24.198 11.3739C24.0428 11.4709 23.9457 11.5679 24.0428 11.8202Z" fill="#FFE62E"/>
<path d="M21.6545 17.5257C21.4604 17.6227 21.4022 17.7779 21.4992 17.9332C21.5962 18.1272 22.2948 19.0393 22.2948 19.0393C22.2948 19.0393 22.1396 17.8943 22.1008 17.6809C22.0037 17.5256 21.9067 17.4286 21.6545 17.5257Z" fill="#FFE62E"/>
<path d="M15.9511 15.1193C15.8541 14.9253 15.6988 14.867 15.5436 14.9641C15.3495 15.0611 14.4375 15.7597 14.4375 15.7597C14.4375 15.7597 15.5824 15.6045 15.7958 15.5657C15.9511 15.4686 16.0481 15.3716 15.9511 15.1193Z" fill="#FFE62E"/>
<path d="M18.3552 9.43335C18.5493 9.33632 18.6075 9.18108 18.5104 9.02583C18.4134 8.83177 17.7148 7.91968 17.7148 7.91968C17.7148 7.91968 17.8701 9.02582 17.9089 9.27809C18.0059 9.43334 18.1029 9.53038 18.3552 9.43335Z" fill="#FFE62E"/>
<path d="M20.8587 9.18111C21.0528 9.23933 21.208 9.0841 21.208 8.92885C21.2663 8.73479 21.1498 7.57043 21.1498 7.57043C21.1498 7.57043 20.6453 8.57953 20.6065 8.8124C20.5483 8.96764 20.6453 9.1229 20.8587 9.18111Z" fill="#FFE62E"/>
<path d="M24.2938 14.3237C24.2355 14.5178 24.3908 14.673 24.546 14.673C24.7401 14.7312 25.9044 14.6148 25.9044 14.6148C25.9044 14.6148 24.8953 14.1102 24.6625 14.0714C24.5072 14.0326 24.352 14.1296 24.2938 14.3237Z" fill="#FFE62E"/>
<path d="M19.1547 17.7779C18.9606 17.7197 18.8054 17.8749 18.8054 18.0302C18.7471 18.2242 18.8636 19.3886 18.8636 19.3886C18.8636 19.3886 19.3681 18.3795 19.4069 18.1466C19.4457 17.972 19.3487 17.8167 19.1547 17.7779Z" fill="#FFE62E"/>
<path d="M15.7004 12.616C15.7587 12.3637 15.6034 12.2667 15.4482 12.2667C15.2541 12.2084 14.0898 12.3249 14.0898 12.3249C14.0898 12.3249 15.0989 12.8294 15.3318 12.8682C15.5064 12.9265 15.6616 12.8294 15.7004 12.616Z" fill="#FFE62E"/>
<path d="M22.4501 9.82156C22.6441 9.91859 22.7994 9.87978 22.8964 9.72453C23.0516 9.53047 23.3427 8.48254 23.3427 8.48254C23.3427 8.48254 22.4889 9.23937 22.3336 9.37521C22.256 9.53046 22.256 9.72453 22.4501 9.82156Z" fill="#FFE62E"/>
<path d="M23.6545 15.9149C23.5574 16.109 23.5962 16.2643 23.7515 16.3613C23.9455 16.5165 24.9934 16.8076 24.9934 16.8076C24.9934 16.8076 24.2366 15.9537 24.1008 15.7985C23.9455 15.7209 23.7515 15.7209 23.6545 15.9149Z" fill="#FFE62E"/>
<path d="M17.5411 17.1181C17.347 17.0211 17.1918 17.0599 17.0947 17.2151C16.9977 17.3704 16.6484 18.4571 16.6484 18.4571C16.6484 18.4571 17.5023 17.7003 17.6575 17.5644C17.7545 17.4286 17.7545 17.2151 17.5411 17.1181Z" fill="#FFE62E"/>
<path d="M16.3585 11.0246C16.4555 10.8306 16.4167 10.6753 16.2615 10.5783C16.1062 10.4813 15.0195 10.132 15.0195 10.132C15.0195 10.132 15.7763 10.9858 15.9122 11.1411C16.048 11.2187 16.242 11.2187 16.3585 11.0246Z" fill="#FFE62E"/>
<path d="M23.6529 11.0246C23.8081 11.2187 23.9439 11.2187 24.0992 11.1216C24.2932 10.9664 24.9918 10.1125 24.9918 10.1125C24.9918 10.1125 23.8857 10.4618 23.7499 10.5589C23.5946 10.7335 23.4976 10.8694 23.6529 11.0246Z" fill="#FFE62E"/>
<path d="M22.4498 17.1182C22.2558 17.2734 22.2558 17.4093 22.3528 17.5645C22.508 17.7586 23.3618 18.4572 23.3618 18.4572C23.3618 18.4572 23.0126 17.351 22.9155 17.2152C22.7409 17.0793 22.6051 16.9823 22.4498 17.1182Z" fill="#FFE62E"/>
<path d="M16.3585 15.9149C16.2032 15.7209 16.0674 15.7209 15.9122 15.8179C15.7181 15.9731 15.0195 16.827 15.0195 16.827C15.0195 16.827 16.1256 16.4777 16.2615 16.3806C16.3973 16.2254 16.4943 16.0702 16.3585 15.9149Z" fill="#FFE62E"/>
<path d="M17.5409 9.82156C17.735 9.66631 17.735 9.53046 17.638 9.37521C17.4827 9.18115 16.6289 8.48254 16.6289 8.48254C16.6289 8.48254 16.9782 9.58869 17.0752 9.72453C17.2499 9.87978 17.4051 9.97681 17.5409 9.82156Z" fill="#FFE62E"/>
<path d="M24.2937 12.6159C24.3519 12.81 24.4877 12.907 24.6429 12.8682C24.837 12.81 25.8849 12.3248 25.8849 12.3248C25.8849 12.3248 24.74 12.2278 24.5265 12.2666C24.3519 12.2666 24.2548 12.3831 24.2937 12.6159Z" fill="#FFE62E"/>
<path d="M20.8584 17.778C20.6643 17.8362 20.5673 17.9721 20.6061 18.1273C20.6643 18.3214 21.1494 19.3693 21.1494 19.3693C21.1494 19.3693 21.2465 18.2244 21.2076 18.0109C21.2076 17.8169 21.0912 17.7198 20.8584 17.778Z" fill="#FFE62E"/>
<path d="M15.6967 14.3237C15.6385 14.1296 15.5026 14.0326 15.3474 14.0714C15.1533 14.1296 14.1055 14.6148 14.1055 14.6148C14.1055 14.6148 15.2504 14.7118 15.4638 14.673C15.6579 14.673 15.7549 14.576 15.6967 14.3237Z" fill="#FFE62E"/>
<path d="M19.1514 9.18112C19.3455 9.1229 19.4425 8.98708 19.4037 8.83183C19.3455 8.63777 18.8604 7.58984 18.8604 7.58984C18.8604 7.58984 18.7633 8.7348 18.8021 8.94826C18.8021 9.12291 18.8992 9.21993 19.1514 9.18112Z" fill="#FFE62E"/>
<path d="M7.25879 25.7733H6.71546V27.6169H5.60938C6.15271 28.0632 6.71546 28.4125 7.31701 28.82V25.7733H7.25879Z" fill="#FFE62E"/>
<path d="M6.69554 4.32962V6.17319H7.23889V3.12646C6.63733 3.47577 6.09399 3.88329 5.53125 4.32962H6.69554Z" fill="#FFE62E"/>
<path d="M5.45434 4.36841C5.2991 4.46544 5.16327 4.62068 5.00803 4.77593L6.5022 8.01671H5.26029V6.17315H4.71695V8.01671H3.47503L4.9304 4.87296C4.5229 5.22227 4.1348 5.62978 3.78551 6.07612L2.64062 8.52126L4.58112 12.713H3.3392V10.8694H2.79586V15.7791H3.3392V13.7221H4.63933L3.88254 15.9732L4.63933 18.166H3.3392V16.109H2.79586V21.0187H3.3392V19.1752H4.58112L2.64062 23.3668L3.78551 25.812C4.1348 26.2195 4.5423 26.6076 4.9304 27.0151L3.47503 23.8714H4.71695V25.715H5.26029V23.8714H6.5022L5.00803 27.1122C5.16327 27.2674 5.2991 27.3645 5.45434 27.5197L7.35602 23.3668L5.41553 19.1752H6.65744V21.0187H7.20078V16.109H6.65744V18.166H5.35731L6.1141 15.9732L5.35731 13.7803H6.65744V15.8373H7.20078V10.9276H6.65744V12.7712H5.41553L7.35602 8.57949L5.45434 4.36841ZM6.56042 22.9205H5.3185V21.0769H4.77517V22.9205H3.47503L5.02743 19.6215L6.56042 22.9205ZM5.00803 17.5838L4.60052 16.4389H5.39613L5.00803 17.5838ZM5.39613 15.5268H4.60052L5.00803 14.3819L5.39613 15.5268ZM5.00803 12.3831L3.45563 9.08404H4.69755V10.9276H5.24088V9.08404H6.4828L5.00803 12.3831Z" fill="#FFE62E"/>
</svg>
