<svg width="30" height="31" viewBox="0 0 30 31" fill="none" xmlns="http://www.w3.org/2000/svg">
<path d="M15.0003 0.859436C8.84892 0.859436 3.55137 4.56596 1.24219 9.86378H28.739C26.4492 4.56596 21.1516 0.859436 15.0003 0.859436Z" fill="#3E4347"/>
<path d="M15.0003 30.861C21.1516 30.861 26.4492 27.1545 28.7584 21.8566H1.24219C3.55137 27.1545 8.84892 30.861 15.0003 30.861Z" fill="#75A843"/>
<path d="M30 15.8602C30 14.463 29.806 13.1046 29.4567 11.8626H0.543335C0.194047 13.1046 0 14.463 0 15.8602C0 17.2575 0.194047 18.6158 0.543335 19.8578H29.4373C29.806 18.6158 30 17.2575 30 15.8602Z" fill="#C94747"/>
<path d="M0.853443 20.8669C0.950467 21.2162 1.10571 21.5268 1.26095 21.8761H28.7577C28.913 21.5268 29.0488 21.2356 29.1652 20.8669C29.2622 20.5176 29.3593 20.2265 29.4563 19.8578H0.542969C0.639993 20.2071 0.737013 20.5176 0.853443 20.8669Z" fill="white"/>
<path d="M29.1458 10.8535C29.0488 10.5042 28.8936 10.2131 28.7383 9.84439H1.24154C1.0863 10.1937 0.950472 10.4848 0.834043 10.8535C0.737018 11.2028 0.639993 11.4939 0.542969 11.8626H29.4369C29.3399 11.5133 29.2429 11.2028 29.1458 10.8535Z" fill="white"/>
<path d="M9.10156 26.0095L9.45086 26.2036L19.0951 9.49507C19.6384 9.33983 19.9489 8.79645 20.2982 8.29189C20.4923 7.94258 21.3461 6.48715 21.6954 4.64359C20.24 5.88557 19.4444 7.30219 19.2503 7.69031C18.9593 8.23368 18.6488 8.73823 18.804 9.33982L9.10156 26.0095Z" fill="white"/>
<path d="M20.8985 26.0095L20.5492 26.2036L10.905 9.49507C10.3616 9.33983 10.0511 8.79645 9.70184 8.29189C9.50779 7.94258 8.65398 6.48715 8.30469 4.64359C9.76006 5.88557 10.5557 7.30219 10.7497 7.69031C11.0408 8.23368 11.3513 8.73823 11.196 9.33982L20.8985 26.0095Z" fill="white"/>
<path d="M18.9987 15.8602C18.9987 21.3521 15.0013 25.8543 15.0013 25.8543C15.0013 25.8543 11.0039 21.3521 11.0039 15.8602C11.0039 10.3683 15.0013 5.86609 15.0013 5.86609C15.0013 5.86609 18.9987 10.3683 18.9987 15.8602Z" fill="#C94747"/>
<path d="M12.0524 19.8578C12.9062 19.004 13.5077 17.5485 13.5077 15.8602C13.5077 14.1719 12.9644 12.7164 12.0524 11.8626C11.7031 13.0075 11.509 14.4048 11.509 15.8602C11.4896 17.3157 11.7031 18.7129 12.0524 19.8578Z" fill="#3E4347"/>
<path d="M17.9515 11.8626C17.0976 12.7164 16.4961 14.1719 16.4961 15.8602C16.4961 17.5485 17.0394 19.004 17.9515 19.8578C18.3008 18.7129 18.4948 17.3157 18.4948 15.8602C18.4948 14.4048 18.3008 13.0075 17.9515 11.8626Z" fill="#3E4347"/>
<path d="M14.9987 14.657C15.445 14.657 15.7943 15.2004 15.7943 15.8603C15.7943 16.5201 15.445 17.0634 14.9987 17.0634C14.5524 17.0634 14.2031 16.5201 14.2031 15.8603C14.2031 15.2004 14.5524 14.657 14.9987 14.657Z" fill="white"/>
<path d="M14.6881 6.21545C14.3971 7.06932 14.1836 8.6606 14.1836 10.4071C14.1836 12.2119 14.3777 13.7644 14.6881 14.5988C14.7852 13.3569 14.8822 11.9402 14.8822 10.4071C14.9016 8.91288 14.8434 7.45744 14.6881 6.21545Z" fill="white"/>
<path d="M15.2917 6.21545C15.5828 7.06932 15.7962 8.6606 15.7962 10.4071C15.7962 12.2119 15.6022 13.7644 15.2917 14.5988C15.1947 13.3569 15.0977 11.9402 15.0977 10.4071C15.0977 8.91288 15.1559 7.45744 15.2917 6.21545Z" fill="white"/>
<path d="M14.6881 17.0634C14.3971 17.9172 14.1836 19.5085 14.1836 21.255C14.1836 23.0598 14.3777 24.6123 14.6881 25.4467C14.7852 24.2047 14.8822 22.7881 14.8822 21.255C14.9016 19.7608 14.8434 18.3053 14.6881 17.0634Z" fill="white"/>
<path d="M15.2917 17.0634C15.5828 17.9172 15.7962 19.5085 15.7962 21.255C15.7962 23.0598 15.6022 24.6123 15.2917 25.4467C15.1947 24.2047 15.0977 22.7881 15.0977 21.255C15.0977 19.7608 15.1559 18.3053 15.2917 17.0634Z" fill="white"/>
</svg>
