<svg width="30" height="31" viewBox="0 0 30 31" fill="none" xmlns="http://www.w3.org/2000/svg">
<path d="M7.80077 19.3967C11.2548 19.3967 11.2549 18.3876 14.6507 18.3876C18.0466 18.3876 18.1048 19.3967 21.5006 19.3967C24.8965 19.3967 24.8965 18.3876 28.3506 18.3876C28.8939 18.3876 29.3596 18.4458 29.7477 18.4458C29.903 17.5919 30 16.7381 30 15.8454C30 7.59789 23.3053 0.902832 15 0.902832C6.69469 0.902832 0 7.5979 0 15.9036C0 16.7575 0.0970246 17.6113 0.194049 18.4458H0.950834C4.40491 18.407 4.40491 19.3967 7.80077 19.3967Z" fill="#ED4C5C"/>
<path d="M21.15 16.4082L22.9934 15.5543L20.9947 15.1468L22.6441 13.9436L20.5872 13.8854L21.9456 12.3912L20.0051 12.7987L21.0141 11.0521L19.1125 11.8478L19.7528 9.94602L18.1034 11.091L18.2586 9.09215L16.9003 10.5864L16.648 8.5876L15.639 10.2953L14.9986 8.39354L14.3582 10.2953L13.3492 8.5876L13.0969 10.5864L11.7386 9.09215L11.9326 11.091L10.225 9.94602L10.8654 11.8478L8.96367 11.0521L9.97273 12.7987L8.03223 12.3912L9.39058 13.8854L7.33366 13.9436L8.98308 15.1468L6.98438 15.5543L8.82784 16.4082L6.98438 17.2621L8.98308 17.6696L7.33366 18.8727L9.39058 18.931L8.03223 20.4252L11.137 19.7849L10.3802 18.4846L10.0309 17.4755L9.93391 16.4276L10.0309 15.3797L10.3802 14.3706L10.8848 13.4779L11.5833 12.6823L12.4372 12.0807L13.4462 11.6343L14.4553 11.4403H15.5613L16.5704 11.6343L17.5212 12.0807L18.4139 12.6823L19.1125 13.4779L19.617 14.3706L19.9663 15.3797L20.0633 16.4276L19.9663 17.4755L19.617 18.4846L18.8602 19.7849L21.965 20.4252L20.6066 18.931L22.6635 18.8727L21.0141 17.6696L23.0128 17.2621L21.15 16.4082Z" fill="#FFCE31"/>
<path d="M20.5811 18.5965C21.7938 15.5149 20.2789 12.0336 17.1975 10.8209C14.1161 9.60813 10.635 11.1231 9.42234 14.2047C8.20964 17.2863 9.72452 20.7675 12.8059 21.9803C15.8873 23.193 19.3684 21.6781 20.5811 18.5965Z" fill="#FFCE31"/>
<path d="M15.0182 21.4149C12.2627 21.4149 10.0117 19.1638 10.0117 16.4081C10.0117 13.6525 12.2627 11.4014 15.0182 11.4014C17.7737 11.4014 20.0247 13.6525 20.0247 16.4081C20.0052 19.1638 17.7543 21.4149 15.0182 21.4149ZM15.0182 12.4105C12.8254 12.4105 11.0208 14.2153 11.0208 16.4081C11.0208 18.601 12.8254 20.4058 15.0182 20.4058C17.2109 20.4058 19.0156 18.601 19.0156 16.4081C19.0156 14.1959 17.2109 12.4105 15.0182 12.4105Z" fill="#F27A52"/>
<path d="M20.5695 4.5511C19.8127 5.09447 19.8709 5.24971 16.9214 5.24971C15.8735 5.24971 15.3302 5.40498 15.0197 5.65726C14.7286 5.4632 14.1659 5.24971 13.118 5.24971C10.1684 5.24971 10.2655 5.05566 9.46987 4.5511C8.46082 3.85249 9.12058 5.94834 11.8761 5.94834C13.021 5.94834 13.933 6.1424 14.5346 6.35587C12.8269 6.45289 11.5268 6.89922 11.5268 6.89922C11.5268 6.89922 13.0792 7.44259 15.0197 7.44259C16.9602 7.44259 18.5126 6.89922 18.5126 6.89922C18.5126 6.89922 17.2124 6.45289 15.5048 6.35587C16.1064 6.16181 16.999 5.94834 18.1633 5.94834C20.9188 5.90953 21.5591 3.85249 20.5695 4.5511Z" fill="#FFCE31"/>
<path d="M14.6487 24.4034C11.2529 24.4034 11.2529 25.4125 7.7988 25.4125C5.10152 25.4125 4.49997 24.8109 2.69531 24.5198C3.33567 25.4707 4.09247 26.3246 4.94629 27.062C5.64487 27.2561 6.44046 27.4113 7.74059 27.4113C11.1947 27.4113 11.1947 26.4022 14.5905 26.4022C17.9864 26.4022 18.0446 27.4113 21.4405 27.4113C23.381 27.4113 24.2348 27.1202 25.2438 26.8097C26.0006 26.1111 26.6992 25.3154 27.3007 24.4616C24.8945 24.6168 24.5453 25.4125 21.4987 25.4125C18.1028 25.4125 18.1028 24.4034 14.6487 24.4034Z" fill="#428BC1"/>
<path d="M14.6507 28.401C11.4489 28.401 11.2549 29.2549 8.40234 29.4101C10.4011 30.361 12.5938 30.9044 15 30.9044C17.348 30.9044 19.599 30.361 21.5589 29.4101H21.5007C18.1048 29.4101 18.1048 28.401 14.6507 28.401Z" fill="#428BC1"/>
<path d="M28.3708 20.4058C24.9167 20.4058 24.9167 21.4149 21.5208 21.4149C18.125 21.4149 18.125 20.4058 14.6709 20.4058C11.2168 20.4058 11.275 21.4149 7.82096 21.4149C4.4251 21.4149 4.4251 20.4058 0.971023 20.4058H0.71875C0.912799 21.1044 1.22329 21.7642 1.51436 22.4046C4.40569 22.5016 4.61915 23.4137 7.85977 23.4137C11.3138 23.4137 11.3138 22.4046 14.7097 22.4046C18.1056 22.4046 18.1638 23.4137 21.5596 23.4137C24.9555 23.4137 24.9555 22.4046 28.4096 22.4046H28.5648C28.8559 21.7448 29.1082 21.1044 29.3604 20.4058H28.3708Z" fill="#428BC1"/>
<path d="M7.80203 21.4149C11.1979 21.4149 11.1979 20.4058 14.652 20.4058C18.0478 20.4058 18.0478 21.4149 21.5019 21.4149C24.956 21.4149 24.956 20.4058 28.3518 20.4058C28.7011 20.4058 28.9922 20.4058 29.3027 20.464C29.4967 19.8236 29.652 19.1638 29.749 18.5234C29.3415 18.4652 28.8952 18.4652 28.3518 18.4652C24.956 18.4652 24.956 19.4743 21.5019 19.4743C18.1061 19.4743 18.1061 18.4652 14.652 18.4652C11.1979 18.4652 11.1979 19.4743 7.80203 19.4743C4.40617 19.4743 4.40617 18.4652 0.952097 18.4652H0.195312C0.350552 19.1056 0.486382 19.7654 0.699836 20.4058H0.952097C4.40617 20.4058 4.40617 21.4149 7.80203 21.4149Z" fill="white"/>
<path d="M21.5218 23.4138C18.126 23.4138 18.126 22.4047 14.6719 22.4047C11.2178 22.4047 11.2178 23.4138 7.82197 23.4138C4.58135 23.4138 4.3679 22.5211 1.47656 22.4047C1.82585 23.1615 2.23336 23.8601 2.71848 24.5005C4.52314 24.7528 5.12469 25.3932 7.82197 25.3932C11.2178 25.3932 11.2178 24.3841 14.6719 24.3841C18.0678 24.3841 18.0678 25.3932 21.5218 25.3932C24.5684 25.3932 24.9177 24.5975 27.3627 24.4423C27.809 23.8019 28.2165 23.1421 28.5658 22.4435H28.4106C24.9565 22.4047 24.9565 23.4138 21.5218 23.4138Z" fill="white"/>
<path d="M14.6521 26.4022C11.198 26.4022 11.198 27.4113 7.80211 27.4113C6.50198 27.4113 5.70639 27.2561 5.00781 27.0621C6.01687 27.9547 7.16176 28.7698 8.40367 29.3714C11.198 29.2743 11.4502 28.3623 14.6521 28.3623C18.0479 28.3623 18.0479 29.3714 21.502 29.3714H21.5602C22.9574 28.731 24.2187 27.8189 25.3054 26.771C24.2963 27.0621 23.4619 27.3725 21.502 27.3725C18.1061 27.4114 18.1061 26.4022 14.6521 26.4022Z" fill="white"/>
</svg>
