<svg width="30" height="31" viewBox="0 0 30 31" fill="none" xmlns="http://www.w3.org/2000/svg">
<path d="M15 30.8832C23.2843 30.8832 30 24.1671 30 15.8824C30 7.59769 23.2843 0.881592 15 0.881592C6.71572 0.881592 0 7.59769 0 15.8824C0 24.1671 6.71572 30.8832 15 30.8832Z" fill="#428BC1"/>
<path d="M13.5059 13.2819C13.5059 13.2819 13.0014 14.0387 12.1476 14.388C12.1476 14.388 12.2058 15.63 11.3908 15.7465C10.634 15.8435 9.93541 15.7465 9.93541 15.7465C9.93541 15.7465 10.0324 16.8914 9.52791 16.6004C8.98457 16.3093 7.47099 16.3481 8.07254 17.2408C8.67409 18.1334 9.62492 18.541 9.87718 20.6368C9.87718 20.6368 12.4774 21.5295 12.6715 23.3924C12.8655 25.1972 12.6133 25.5465 12.6133 25.5465C12.6133 25.5465 14.2045 25.6435 14.2045 24.3433C14.2045 23.1013 15.1553 23.1402 15.6016 23.1013C16.0479 23.0431 16.4554 21.8982 17.057 22.4027C17.6586 22.9073 18.1631 23.0043 18.6094 22.3057C19.0557 21.5489 20.4141 21.4518 20.4141 21.4518C20.4141 21.4518 20.4723 19.2978 21.9665 17.9976C21.9665 17.9976 21.2097 16.6974 19.5214 16.6974C19.5214 16.6974 19.4244 15.1061 18.0661 15.1061C18.0661 15.1061 17.1152 13.3595 15.5628 13.3595C15.5628 13.3595 15.0195 12.6609 15.0195 11.5548C15.0195 11.5548 14.0104 11.7101 13.6223 12.0594C13.2342 12.4087 12.8655 12.3504 12.8655 12.3504C12.8655 12.3504 13.2537 12.6415 13.5059 13.2819Z" fill="#DBB471"/>
<path d="M13.002 8.62448L13.9528 9.32312L13.6036 8.17816L14.4962 7.47955H13.3513L13.002 6.33459L12.6527 7.47955H11.5078L12.4004 8.17816L12.0512 9.32312L13.002 8.62448Z" fill="white"/>
<path d="M9.50979 9.6336L10.4606 10.3322L10.1114 9.18725L11.004 8.48864H9.85909L9.50979 7.34369L9.16052 8.48864H8.01562L8.90825 9.18725L8.55897 10.3322L9.50979 9.6336Z" fill="white"/>
<path d="M16.9981 8.62448L17.9489 9.32312L17.5996 8.17816L18.4923 7.47955H17.3474L16.9981 6.33459L16.6488 7.47955H15.5039L16.3965 8.17816L16.0473 9.32312L16.9981 8.62448Z" fill="white"/>
<path d="M5.99417 11.6325L6.94501 12.3311L6.59573 11.1862L7.48835 10.4875H6.34347L5.99417 9.34259L5.64488 10.4875H4.5L5.39262 11.1862L5.04334 12.3311L5.99417 11.6325Z" fill="white"/>
<path d="M24.002 11.1279L24.9529 11.8265L24.6036 10.6816L25.4962 9.98294H24.3513L24.002 8.83801L23.6527 9.98294H22.5078L23.4005 10.6816L23.0512 11.8265L24.002 11.1279Z" fill="white"/>
<path d="M20.5098 9.6336L21.4607 10.3322L21.1114 9.18725L22.004 8.48864H20.8591L20.5098 7.34369L20.1605 8.48864H19.0156L19.9083 9.18725L19.559 10.3322L20.5098 9.6336Z" fill="white"/>
</svg>
