<svg width="30" height="31" viewBox="0 0 30 31" fill="none" xmlns="http://www.w3.org/2000/svg">
<path d="M29.0117 20.0461C26.2562 20.0461 24.0052 17.7951 24.0052 15.0394H4.40625V25.6351C7.10353 28.3325 10.8487 30.0402 15.0014 30.0402C21.5602 30.0402 27.11 25.8485 29.1475 20.0461H29.0117Z" fill="#ED4C5C"/>
<path d="M29.0118 10.0326H29.1671C27.1101 4.23026 21.5603 0.0385742 15.0209 0.0385742C10.8682 0.0385742 7.12307 1.74629 4.42578 4.44372V15.0394H24.0248C24.0053 12.2837 26.2563 10.0326 29.0118 10.0326Z" fill="#699635"/>
<path d="M29.1474 10.0326H4.38672V20.0267H29.1474C29.6907 18.4742 30.0012 16.7859 30.0012 15.0199C30.0012 13.2928 29.7101 11.5851 29.1474 10.0326Z" fill="#F9F9F9"/>
<path d="M4.40491 4.44373C1.70762 7.14115 0 10.8865 0 15.0394C0 19.1923 1.70762 22.9376 4.40491 25.635L10.0129 20.0267V10.0327L4.40491 4.44373Z" fill="#3E4347"/>
</svg>
