<svg width="30" height="31" viewBox="0 0 30 31" fill="none" xmlns="http://www.w3.org/2000/svg">
<path d="M27.9055 17.124C29.0623 9.99614 24.222 3.28004 17.0945 2.12323C9.96698 0.966415 3.25123 5.80695 2.09448 12.9349C0.937731 20.0628 5.77801 26.7788 12.9055 27.9357C20.0331 29.0925 26.7488 24.252 27.9055 17.124Z" fill="#F42F4C"/>
<path d="M22.7086 16.0275C22.1504 15.5539 21.1356 15.6384 20.4422 15.6723C21.2202 15.2832 22.4549 14.4883 23.2667 15.1987C22.6578 14.3699 21.3048 14.6405 20.476 14.8096C21.1694 14.2853 22.2688 13.3719 23.1822 13.8962C22.438 13.152 21.1356 13.6425 20.3576 13.9808C20.9665 13.3719 21.8798 12.2894 22.8777 12.6277C22.0489 12.0187 20.8312 12.6784 20.087 13.152C20.5606 12.4585 21.3555 11.2407 22.4041 11.4606C21.4908 10.987 20.3914 11.8496 19.7487 12.374C20.1377 11.5959 20.662 10.2766 21.7614 10.3273C20.7635 10.0228 19.8502 11.0208 19.2751 11.6805C19.5288 10.8517 19.8333 9.46466 20.9326 9.32935C19.9347 9.1602 19.1398 10.2935 18.717 11.0208C18.8523 10.1412 18.9369 8.7035 19.9855 8.44978C18.9369 8.44978 18.3787 9.71839 18.0235 10.4965C18.0235 9.6169 17.8882 8.17916 18.903 7.7563C17.9051 7.92544 17.5161 9.24478 17.2962 10.0736C17.1609 9.19404 16.8227 7.80704 17.6853 7.24886C16.6874 7.55332 16.5521 8.94031 16.4675 9.76912C16.2138 8.94031 15.6387 7.6379 16.4167 6.89366C15.5034 7.36727 15.5372 8.72042 15.588 9.59998C15.199 8.82191 14.404 7.58716 15.1144 6.77527C14.2856 7.38419 14.5562 8.73735 14.7254 9.56616C14.2011 8.87266 13.2877 7.77322 13.812 6.85984C13.0678 7.60408 13.5583 8.87265 13.8966 9.68455C13.2877 9.07563 12.2053 8.16224 12.5435 7.16429C11.9346 7.9931 12.5943 9.21094 13.0678 9.95518C12.3744 9.48157 11.1566 8.6866 11.3765 7.6379C10.9029 8.55128 11.7655 9.65072 12.3406 10.2935C11.5625 9.90443 10.2433 9.38008 10.294 8.28064C9.98959 9.24476 10.9875 10.192 11.6471 10.7671C10.8184 10.5134 9.43144 10.2089 9.29613 9.10945C9.127 10.1074 10.2602 10.9024 10.9875 11.3252C10.108 11.1899 8.67032 11.1054 8.41661 10.0567C8.41661 11.1054 9.68515 11.6635 10.4632 12.0188C9.58367 12.0188 8.146 12.1541 7.72316 11.1392C7.8923 12.1371 9.21157 12.5262 10.0403 12.7461C9.16083 12.8814 7.7739 13.2197 7.21575 12.357C7.5202 13.355 8.90712 13.4903 9.73588 13.5749C8.90712 13.8286 7.60477 14.4037 6.86057 13.6256C7.33415 14.539 8.68724 14.5052 9.56674 14.4544C8.78872 14.8435 7.55404 15.6384 6.74219 14.928C7.35108 15.7568 8.70416 15.4862 9.53293 15.3171C8.83947 15.8414 7.74009 16.7548 6.82676 16.2304C7.57095 16.9747 8.83946 16.4842 9.65131 16.1459C9.04242 16.7548 8.12909 17.8373 7.13119 17.499C7.95995 18.1079 9.17773 17.4483 9.92192 16.9747C9.44834 17.6682 8.65342 18.886 7.60478 18.6661C8.51811 19.1398 9.61748 18.2771 10.2602 17.702C9.87118 18.4801 9.34686 19.7994 8.24748 19.7487C9.24538 20.0531 10.1587 19.0552 10.7338 18.3955C10.4801 19.2243 10.1756 20.6113 9.07625 20.7466C10.0741 20.9157 10.8691 19.7486 11.2919 19.0551C11.1566 19.9347 11.072 21.3725 10.0234 21.6262C11.072 21.6262 11.6302 20.3576 11.9854 19.5795C11.9854 20.4591 12.1207 21.8968 11.1059 22.3196C12.1038 22.1505 12.4928 20.8312 12.7127 20.0024C12.848 20.8819 13.1863 22.2689 12.3237 22.8271C13.3216 22.5226 13.4569 21.1357 13.5414 20.3068C13.7951 21.1357 14.3702 22.4381 13.5922 23.1823C14.5055 22.7087 14.4717 21.3555 14.4209 20.476C14.8099 21.2541 15.6049 22.4888 14.8945 23.3007C15.7233 22.6918 15.4527 21.3386 15.2835 20.5098C15.8079 21.2033 16.7212 22.3027 16.1969 23.2161C16.941 22.4719 16.4506 21.2033 16.1123 20.3914C16.7212 21.0003 17.8036 21.9137 17.4654 22.9117C18.0743 22.0828 17.4146 20.865 16.9411 20.1208C17.6345 20.5944 18.8523 21.3893 18.6324 22.438C19.106 21.5247 18.2434 20.4252 17.7191 19.7825C18.4971 20.1715 19.8164 20.6959 19.7656 21.7953C20.0701 20.7974 19.0722 19.884 18.4125 19.3089C19.2413 19.5626 20.6282 19.867 20.7635 20.9665C20.9326 19.9178 19.7656 19.1736 19.0722 18.7507C19.9517 18.886 21.3386 18.9706 21.643 20.0193C21.643 18.9706 20.3745 18.4124 19.5965 18.0572C20.476 18.0572 21.9136 17.9219 22.3365 18.9368C22.1673 17.8881 20.8481 17.5498 20.0193 17.3299C20.8988 17.1946 22.2857 16.8563 22.8439 17.7189C22.5394 16.7548 21.1525 16.5349 20.3238 16.5011C21.1525 16.1966 22.4549 15.6723 23.1991 16.4503C23.0468 16.2981 22.8777 16.1628 22.7086 16.0275ZM14.996 20.2561C13.034 20.2561 11.2074 19.1228 10.3279 17.3806C9.41452 15.6384 9.63441 13.4565 10.8014 11.8496C11.9854 10.2766 13.9812 9.49849 15.9431 9.83678C17.8544 10.192 19.4273 11.6297 20.0024 13.4565C21.0003 16.8225 18.4294 20.2561 14.996 20.2561Z" fill="#FFE62E"/>
<path d="M11.8506 11.9849C11.0726 12.7629 10.6328 13.8624 10.6328 15.0295C10.6328 15.909 10.8865 16.7209 11.3263 17.4313C11.6814 15.8245 12.4087 14.336 13.3728 13.1181C12.95 12.6784 12.4256 12.2893 11.8506 11.9849Z" fill="#FFE62E"/>
<path d="M14.6927 11.7143C14.3375 11.4099 13.9485 11.1561 13.5595 10.8855C13.3903 10.9362 13.2043 11.0208 13.0352 11.1054C13.4749 11.3591 13.9147 11.7143 14.3375 12.0188C14.4221 11.985 14.5574 11.8496 14.6927 11.7143Z" fill="#FFE62E"/>
<path d="M14.0337 12.3739C13.594 11.9849 13.1204 11.6804 12.5961 11.376C12.4607 11.4605 12.3423 11.5959 12.207 11.6804C12.7314 11.9849 13.2557 12.3401 13.6954 12.763C13.78 12.6276 13.8984 12.5093 14.0337 12.3739Z" fill="#FFE62E"/>
<path d="M13.7262 13.3718C12.7283 14.6742 12.0349 16.1965 11.6797 17.8542C11.8996 18.074 12.1194 18.2939 12.3731 18.5138C12.5423 16.7716 13.1512 15.1647 14.1152 13.8116C13.9799 13.6424 13.8615 13.5071 13.7262 13.3718Z" fill="#FFE62E"/>
<path d="M15.8594 13.8116C16.8234 15.1647 17.4662 16.7716 17.6015 18.5138C17.8552 18.3447 18.0751 18.1248 18.2949 17.8542C17.9905 16.1965 17.2463 14.6742 16.2484 13.3718C16.13 13.5071 15.9947 13.6424 15.8594 13.8116Z" fill="#FFE62E"/>
<path d="M14.6406 13.8116C14.7759 13.9807 14.8943 14.116 14.9958 14.2852C15.1311 14.116 15.2157 13.9807 15.351 13.8116C15.2157 13.6763 15.1311 13.5071 14.9958 13.3718C14.8605 13.5071 14.7252 13.6424 14.6406 13.8116Z" fill="#FFE62E"/>
<path d="M15.9087 10.7669C15.6043 10.7162 15.2998 10.6824 14.9954 10.6824C14.6909 10.6824 14.3865 10.7331 14.082 10.7669C14.3865 10.9868 14.7417 11.2067 14.9954 11.4604C15.2998 11.1898 15.6043 10.9699 15.9087 10.7669Z" fill="#FFE62E"/>
<path d="M14.777 14.6743L14.388 14.1499C13.4747 15.5031 12.8658 17.0761 12.7305 18.7676L13.5085 19.1566V19.0213C13.5592 17.4313 13.9821 15.9429 14.777 14.6743Z" fill="#FFE62E"/>
<path d="M14.9945 12.7291L15.3835 12.3401C15.2482 12.2047 15.1298 12.0864 14.9945 11.9849C14.8592 12.1202 14.7408 12.2047 14.6055 12.3401L14.9945 12.7291Z" fill="#FFE62E"/>
<path d="M15.6403 13.4564C15.7756 13.3211 15.894 13.1519 16.0293 13.0166C15.894 12.8813 15.8095 12.7629 15.6742 12.6276L15.2852 13.0166C15.3866 13.2026 15.5219 13.338 15.6403 13.4564Z" fill="#FFE62E"/>
<path d="M14.3356 12.6783C14.2003 12.8137 14.1158 12.9321 13.9805 13.0674C14.1158 13.2027 14.2342 13.3211 14.3695 13.5072C14.5048 13.3719 14.5894 13.2027 14.7247 13.0674C14.6063 12.8982 14.471 12.7629 14.3356 12.6783Z" fill="#FFE62E"/>
<path d="M14.9939 15.0802C14.3343 16.2642 13.9453 17.6005 13.9453 19.0044V19.2581C14.3005 19.3427 14.6388 19.3934 14.9939 19.3934C15.3491 19.3934 15.6874 19.3427 16.0426 19.2581V19.0044C16.0426 17.5667 15.6367 16.2135 14.9939 15.0802Z" fill="#FFE62E"/>
<path d="M15.25 14.6743C16.028 15.9429 16.4678 17.4145 16.4678 19.0382V19.1736C16.7215 19.089 17.0259 18.9537 17.2458 18.7845C17.1105 17.0931 16.5523 15.52 15.5883 14.1669C15.4699 14.2853 15.3346 14.4713 15.25 14.6743Z" fill="#FFE62E"/>
<path d="M15.6911 12.0694C16.0801 11.7142 16.5199 11.4097 16.9935 11.156C16.8243 11.0715 16.6383 10.9869 16.4692 10.9362C16.0801 11.1899 15.6911 11.4605 15.3359 11.765C15.4374 11.8495 15.5558 11.9848 15.6911 12.0694Z" fill="#FFE62E"/>
<path d="M18.6481 17.4313C19.0879 16.7378 19.3416 15.909 19.3416 15.0295C19.3416 13.8455 18.868 12.7629 18.1238 11.9849C17.5656 12.2893 17.0413 12.6445 16.6016 13.0674C17.5656 14.336 18.2591 15.8075 18.6481 17.4313Z" fill="#FFE62E"/>
<path d="M16.2992 12.763C16.739 12.3739 17.2633 11.9849 17.7876 11.6804C17.6523 11.5451 17.5339 11.4605 17.3986 11.376C16.8743 11.6804 16.4345 11.9849 15.9609 12.3739C16.0793 12.5093 16.2146 12.6276 16.2992 12.763Z" fill="#FFE62E"/>
</svg>
