<svg width="30" height="32" viewBox="0 0 30 32" fill="none" xmlns="http://www.w3.org/2000/svg">
<path d="M0 16.0132C0 18.9667 0.854927 21.7259 2.31218 24.0188H27.6878C29.1451 21.7065 30 18.9667 30 16.0132C30 13.0597 29.1451 10.3004 27.6878 8.00757H2.31218C0.854927 10.3004 0 13.0597 0 16.0132Z" fill="#2A5F9E"/>
<path d="M27.7463 8.00754C25.0844 3.81042 20.3823 0.99292 15.0196 0.99292C9.65696 0.99292 4.95489 3.79099 2.29297 8.00754H27.7463Z" fill="#ED4C5C"/>
<path d="M2.3125 24.0188C4.97442 28.2159 9.67649 31.0334 15.0392 31.0334C20.4019 31.0334 25.1039 28.2353 27.7659 24.0188H2.3125Z" fill="#ED4C5C"/>
<path d="M15.0403 21.0264C17.8089 21.0264 20.0532 18.782 20.0532 16.0132C20.0532 13.2445 17.8089 11 15.0403 11C12.2717 11 10.0273 13.2445 10.0273 16.0132C10.0273 18.782 12.2717 21.0264 15.0403 21.0264Z" fill="white"/>
</svg>
