<svg width="30" height="31" viewBox="0 0 30 31" fill="none" xmlns="http://www.w3.org/2000/svg">
<path d="M29.629 18.613V11.5983C28.0358 4.99176 22.1096 0.0756836 15.0177 0.0756836C7.92569 0.0756836 1.99951 4.99176 0.40625 11.5983V18.613C1.99951 25.2195 7.92569 30.1356 15.0177 30.1356C22.1096 30.1356 28.0358 25.239 29.629 18.613Z" fill="#C94747"/>
<path opacity="0.15" d="M29.629 18.613V11.5983C28.0358 4.99176 22.1096 0.0756836 15.0177 0.0756836C7.92569 0.0756836 1.99951 4.99176 0.40625 11.5983V18.613C1.99951 25.2195 7.92569 30.1356 15.0177 30.1356C22.1096 30.1356 28.0358 25.239 29.629 18.613Z" fill="#C28FEF"/>
<path d="M0 15.1155C0 16.3203 0.155436 17.525 0.408026 18.6131H29.592C29.8446 17.5056 30 16.3008 30 15.1155C30 13.9302 29.8446 12.7061 29.592 11.6179H0.408026C0.136006 12.7061 0 13.9108 0 15.1155Z" fill="white"/>
</svg>
