<svg width="30" height="31" viewBox="0 0 30 31" fill="none" xmlns="http://www.w3.org/2000/svg">
<path d="M0 15.2498C0 18.2033 0.854904 20.9625 2.31216 23.2554H27.6878C29.1451 20.9431 30 18.2033 30 15.2498C30 12.2962 29.1451 9.53701 27.6878 7.24414H2.31216C0.854904 9.53701 0 12.2962 0 15.2498Z" fill="#F9F9F9"/>
<path d="M27.7268 7.24412C25.0649 3.047 20.3628 0.229492 15.0001 0.229492C9.63743 0.229492 4.93536 3.02757 2.27344 7.24412H27.7268Z" fill="#ED4C5C"/>
<path d="M2.29297 23.2554C4.95489 27.4525 9.65696 30.27 15.0197 30.27C20.3824 30.27 25.0844 27.4719 27.7464 23.2554H2.29297Z" fill="#ED4C5C"/>
<path d="M10.7655 21.7592C10.7655 21.7592 14.0103 19.6023 17.8186 21.5066V20.7099C17.8186 20.7099 14.6126 18.6114 17.3134 18.3005C20.0142 18.009 21.5103 19.408 21.5103 19.408V18.7085C21.5103 18.7085 16.9054 16.2602 20.8691 17.2123V16.5128C20.8691 16.5128 17.3134 15.2692 19.4702 15.2692H20.3639V14.8223C20.3639 14.8223 16.7111 14.3171 19.7616 14.1228V13.773C19.7616 13.773 14.2629 11.2275 18.3627 12.2185V11.7133C18.3627 11.7133 16.3614 11.3053 17.9158 11.1109C17.9158 11.1109 17.1191 10.0617 15.8173 10.0617C14.5155 10.0617 14.7098 8.75977 14.7098 8.75977L13.0583 10.5086C13.0583 10.5086 14.2046 10.4114 12.3588 11.3635C12.3588 11.3635 13.9132 11.519 10.4157 13.5592C10.4157 13.5592 11.7175 13.054 11.7175 13.909C11.7175 14.764 9.40539 15.9104 9.40539 15.9104L9.59969 16.4545C9.59969 16.4545 11.1929 15.2109 11.0958 16.0464C10.9986 16.9014 8.49219 18.2033 8.49219 18.2033L8.74479 18.6113C8.74479 18.6113 10.8043 17.4066 10.8432 17.9118C10.8432 17.9118 11.1347 18.2616 9.13339 18.9222L9.38594 19.3303C9.38594 19.3303 12.4365 17.8341 13.2331 18.9222C14.0297 20.0298 10.6878 21.1763 10.6878 21.1763L10.7655 21.7592Z" fill="#83BF4F"/>
<path d="M13.9117 12.9956C14.1586 12.9956 14.3586 12.7955 14.3586 12.5487C14.3586 12.3019 14.1586 12.1018 13.9117 12.1018C13.6649 12.1018 13.4648 12.3019 13.4648 12.5487C13.4648 12.7955 13.6649 12.9956 13.9117 12.9956Z" fill="#F9F9F9"/>
<path d="M15.7203 12.8401C15.9729 12.8401 16.1672 13.0344 16.1672 13.287C16.1672 13.5396 15.9729 13.7339 15.7203 13.7339C15.4677 13.7339 15.2734 13.5396 15.2734 13.287C15.2734 13.0538 15.4677 12.8401 15.7203 12.8401Z" fill="#F9F9F9"/>
<path d="M12.0094 15.2498C12.2619 15.2498 12.4563 15.444 12.4563 15.6966C12.4563 15.9492 12.2619 16.1436 12.0094 16.1436C11.7568 16.1436 11.5625 15.9492 11.5625 15.6966C11.5625 15.444 11.7568 15.2498 12.0094 15.2498Z" fill="#F9F9F9"/>
<path d="M17.0211 15.6965C17.2737 15.6965 17.468 15.8909 17.468 16.1435C17.468 16.3961 17.2737 16.5904 17.0211 16.5904C16.7685 16.5904 16.5742 16.3961 16.5742 16.1435C16.5742 15.9103 16.7685 15.6965 17.0211 15.6965Z" fill="#F9F9F9"/>
<path d="M18.4794 16.1436C18.732 16.1436 18.9263 16.3379 18.9263 16.5905C18.9263 16.8431 18.732 17.0374 18.4794 17.0374C18.2268 17.0374 18.0325 16.8431 18.0325 16.5905C18.013 16.3573 18.2268 16.1436 18.4794 16.1436Z" fill="#F9F9F9"/>
<path d="M12.5719 14.1033C12.8187 14.1033 13.0188 13.9032 13.0188 13.6564C13.0188 13.4095 12.8187 13.2095 12.5719 13.2095C12.3251 13.2095 12.125 13.4095 12.125 13.6564C12.125 13.9032 12.3251 14.1033 12.5719 14.1033Z" fill="#F9F9F9"/>
<path d="M15.1148 15.6965C15.3616 15.6965 15.5617 15.4965 15.5617 15.2497C15.5617 15.0028 15.3616 14.8027 15.1148 14.8027C14.868 14.8027 14.668 15.0028 14.668 15.2497C14.668 15.4965 14.868 15.6965 15.1148 15.6965Z" fill="#F9F9F9"/>
</svg>
