<svg width="30" height="31" viewBox="0 0 30 31" fill="none" xmlns="http://www.w3.org/2000/svg">
<path d="M0 15.2888C0 18.2424 0.854904 21.0016 2.31216 23.2944H27.6878C29.1451 20.9821 30 18.2424 30 15.2888C30 12.3353 29.1451 9.57607 27.6878 7.2832H2.31216C0.854904 9.57607 0 12.3353 0 15.2888Z" fill="#F9F9F9"/>
<path d="M27.7464 7.28318C25.0844 3.08606 20.3824 0.268555 15.0197 0.268555C9.65696 0.268555 4.95489 3.06663 2.29297 7.28318H27.7464Z" fill="#428BC1"/>
<path d="M2.29297 23.2944C4.95489 27.4916 9.65696 30.309 15.0197 30.309C20.3824 30.309 25.0844 27.511 27.7464 23.2944H2.29297Z" fill="#83BF4F"/>
<path d="M16.5751 14.6865C17.022 14.1424 17.2746 13.3263 17.2746 12.4325C17.2746 10.6837 16.2643 9.32349 15.0207 9.32349C13.7772 9.32349 12.7669 10.6837 12.7669 12.4325C12.7669 13.3263 13.0194 14.1424 13.4663 14.6865L10.0078 18.6893C10.0078 18.6893 10.0078 21.3513 15.0207 21.3513C20.0337 21.3513 20.0337 18.6893 20.0337 18.6893L16.5751 14.6865ZM16.3808 12.3936C16.3808 12.996 16.2254 13.54 15.9728 13.9481L15.215 13.0931V12.2964L15.9145 11.9467L15.215 11.5969V10.1979C15.8757 10.3922 16.3808 11.3443 16.3808 12.3936ZM13.6606 12.3936C13.6606 11.286 14.1658 10.3922 14.807 10.1979V11.5969L14.1075 11.9467L14.807 12.2964V13.0931L14.0492 13.9481C13.8161 13.54 13.6606 12.996 13.6606 12.3936Z" fill="#3E4347"/>
</svg>
