<svg width="30" height="31" viewBox="0 0 30 31" fill="none" xmlns="http://www.w3.org/2000/svg">
<path d="M27.0118 6.32422H15.0195V9.33214H28.7776C28.3119 8.28422 27.7104 7.2363 27.0118 6.32422Z" fill="#ED4C5C"/>
<path d="M29.7089 18.3365C29.903 17.3856 30 16.3959 30 15.3286H0C0 16.3765 0.0970247 17.3856 0.291074 18.3365H29.7089Z" fill="#F9F9F9"/>
<path d="M15 0.327637V3.33556H24.0039C21.5007 1.43378 18.3959 0.327637 15 0.327637Z" fill="#ED4C5C"/>
<path d="M14.9998 6.32384H26.9921C26.1383 5.17889 25.1486 4.16978 23.9843 3.31592H14.9805V6.32384" fill="#F9F9F9"/>
<path d="M28.7581 9.33203H15V12.34H29.7089C29.4955 11.2726 29.1462 10.2829 28.7581 9.33203Z" fill="#F9F9F9"/>
<path d="M15 12.3203V15.3283H30C30 14.2803 29.903 13.2712 29.709 12.3203H15Z" fill="#ED4C5C"/>
<path d="M1.25946 21.3248H28.7562C29.1638 20.3739 29.513 19.3842 29.7071 18.3169H0.308594C0.502643 19.3842 0.85196 20.3739 1.25946 21.3248Z" fill="#ED4C5C"/>
<path d="M3.00816 24.3326H27.0121C27.7106 23.44 28.3122 22.392 28.7585 21.3247H1.26172C1.70803 22.3726 2.30959 23.44 3.00816 24.3326Z" fill="#F9F9F9"/>
<path d="M3.00781 24.333C3.86163 25.478 4.85128 26.4871 6.01558 27.3409H24.0233C25.1682 26.4871 26.1773 25.4974 27.0311 24.333H3.00781Z" fill="#ED4C5C"/>
<path d="M5.99609 27.3408C8.49933 29.2426 11.6041 30.3487 15 30.3487C18.3958 30.3487 21.5006 29.2426 24.0039 27.3408H5.99609Z" fill="#F9F9F9"/>
<path d="M15 0.327637C6.69466 0.327637 0 7.02271 0 15.3285H15V0.327637Z" fill="#2A5F9E"/>
<path d="M9.00194 10.4382L11.7962 12.34L10.7484 9.29325L13.5039 7.39145H10.0498L9.00194 4.34473L7.95409 7.39145H4.5L7.25549 9.29325L6.20764 12.34L9.00194 10.4382Z" fill="white"/>
</svg>
