<svg width="30" height="31" viewBox="0 0 30 31" fill="none" xmlns="http://www.w3.org/2000/svg">
<path d="M0 15.3948C0 18.3483 0.854904 21.1075 2.31216 23.4004H27.6878C29.1451 21.0881 30 18.3483 30 15.3948C30 12.4413 29.1451 9.68203 27.6878 7.38916H2.31216C0.854904 9.68203 0 12.4413 0 15.3948Z" fill="#3E4347"/>
<path d="M27.7464 7.38914C25.0844 3.19202 20.3824 0.374512 15.0197 0.374512C9.65696 0.374512 4.95489 3.17259 2.29297 7.38914H27.7464Z" fill="#C94747"/>
<path d="M2.3125 23.4004C4.97442 27.5975 9.67649 30.415 15.0392 30.415C20.4019 30.415 25.104 27.6169 27.7659 23.4004H2.3125Z" fill="#83BF4F"/>
<path d="M18.1276 17.7458V15.9387L16.3789 15.3946L18.1276 14.8506V13.0435L19.2352 14.5008L21.0421 13.9567L19.9346 15.414L21.0421 16.8714L19.2352 16.3273L18.1276 17.7458Z" fill="white"/>
<path d="M15.4275 19.3974C13.2319 19.3974 11.4638 17.5903 11.4638 15.3946C11.4638 13.1989 13.2125 11.3918 15.4275 11.3918C16.2825 11.3918 17.0208 11.6444 17.6815 12.0913C16.7488 11.0031 15.4081 10.3813 13.9703 10.3813C11.2112 10.3813 9.01562 12.6354 9.01562 15.3946C9.01562 18.1538 11.2112 20.4078 13.9703 20.4078C15.4664 20.4078 16.7682 19.7666 17.6815 18.6979C17.0791 19.1448 16.2825 19.3974 15.4275 19.3974Z" fill="white"/>
</svg>
