<svg width="30" height="31" viewBox="0 0 30 31" fill="none" xmlns="http://www.w3.org/2000/svg">
<path d="M15 30.3596C23.3053 30.3596 30 23.6646 30 15.3589H0C0 23.6646 6.6947 30.3596 15 30.3596Z" fill="#ED4C5C"/>
<path d="M15 0.35791C6.6947 0.35791 0 7.05297 0 15.3587H30C30 7.05297 23.3053 0.35791 15 0.35791Z" fill="#2A5F9E"/>
<path d="M13.3503 9.80841C13.3503 8.41118 13.001 7.20801 10.75 7.20801C10.1485 7.20801 9.74097 7.36326 9.35287 7.46029C9.25585 7.30505 7.76166 7.30505 7.64523 7.46029C7.23773 7.36326 6.84963 7.26624 6.28689 7.26624C3.62842 7.26624 3.74483 8.41118 3.74483 9.80841C3.74483 10.0025 3.55078 10.4488 3.55078 10.4488L4.50165 13.8449H12.5547L13.5055 10.4488C13.5055 10.4682 13.3503 10.0607 13.3503 9.80841Z" fill="#FFCE31"/>
<path d="M8.49738 13.3599C10.7095 13.3599 12.4948 13.5927 12.4948 13.8644C12.4948 14.1361 10.7095 14.369 8.49738 14.369C6.28522 14.369 4.5 14.1361 4.5 13.8644C4.5 13.5927 6.28522 13.3599 8.49738 13.3599Z" fill="#3E4347"/>
<path d="M11.8557 11.8655H11.3124C11.3124 11.2251 10.9631 10.6623 10.5556 10.6623C10.1481 10.6623 9.79878 11.2057 9.79878 11.8655H9.25548C9.25548 11.2251 8.90616 10.6623 8.49866 10.6623C8.09116 10.6623 7.74189 11.2057 7.74189 11.8655H7.19854C7.19854 11.2251 6.84927 10.6623 6.44177 10.6623C6.03427 10.6623 5.68495 11.2057 5.68495 11.8655H5.1416C5.1416 9.86668 3.49219 10.4683 3.49219 10.4683C3.74445 10.0608 4.03554 9.8667 4.38483 9.8667C4.79233 9.8667 5.18042 10.1578 5.39388 10.6623C5.64614 10.1578 5.99542 9.8667 6.40292 9.8667C6.81043 9.8667 7.19856 10.1578 7.41202 10.6623C7.66428 10.216 8.01356 9.8667 8.42106 9.8667C8.82856 9.8667 9.21665 10.1578 9.43011 10.6623C9.68237 10.216 10.0316 9.8667 10.4392 9.8667C10.8467 9.8667 11.2347 10.1578 11.4482 10.6623C11.7005 10.1578 12.0498 9.8667 12.4573 9.8667C12.8066 9.8667 13.0976 10.0608 13.3499 10.4683C13.5051 10.4683 11.8557 9.86668 11.8557 11.8655Z" fill="#3E4347"/>
<path d="M7.3929 7.05273C7.52873 7.05273 7.64517 7.16916 7.64517 7.305C7.64517 7.44084 7.52873 7.55728 7.3929 7.55728C7.25706 7.55728 7.14062 7.44084 7.14062 7.305C7.14062 7.16916 7.25706 7.05273 7.3929 7.05273Z" fill="#FFCE31"/>
<path d="M6.79129 6.91699C6.92712 6.91699 7.04356 7.03344 7.04356 7.16928C7.04356 7.30512 6.92712 7.42154 6.79129 7.42154C6.65545 7.42154 6.53906 7.30512 6.53906 7.16928C6.53906 7.01403 6.65545 6.91699 6.79129 6.91699Z" fill="#FFCE31"/>
<path d="M6.18977 6.80078C6.32561 6.80078 6.44205 6.91723 6.44205 7.05307C6.44205 7.18891 6.32561 7.30533 6.18977 7.30533C6.05394 7.30533 5.9375 7.18891 5.9375 7.05307C5.9569 6.91723 6.05394 6.80078 6.18977 6.80078Z" fill="#FFCE31"/>
<path d="M5.60774 6.70361C5.74358 6.70361 5.86002 6.82006 5.86002 6.9559C5.86002 7.09174 5.74358 7.20816 5.60774 7.20816C5.47191 7.20816 5.35547 7.09174 5.35547 6.9559C5.35547 6.82006 5.4525 6.70361 5.60774 6.70361Z" fill="#FFCE31"/>
<path d="M5.00618 6.76172C5.14201 6.76172 5.25845 6.87814 5.25845 7.01398C5.25845 7.14982 5.14201 7.26627 5.00618 7.26627C4.87035 7.26627 4.75391 7.14982 4.75391 7.01398C4.75391 6.87814 4.85094 6.76172 5.00618 6.76172Z" fill="#FFCE31"/>
<path d="M4.44368 6.95605C4.57951 6.95605 4.69595 7.07248 4.69595 7.20832C4.69595 7.34416 4.57951 7.4606 4.44368 7.4606C4.30785 7.4606 4.19141 7.34416 4.19141 7.20832C4.19141 7.07248 4.30785 6.95605 4.44368 6.95605Z" fill="#FFCE31"/>
<path d="M3.99837 7.30518C4.1342 7.30518 4.25064 7.42162 4.25064 7.55746C4.25064 7.6933 4.1342 7.80973 3.99837 7.80973C3.86253 7.80973 3.74609 7.6933 3.74609 7.55746C3.74609 7.42162 3.86253 7.30518 3.99837 7.30518Z" fill="#FFCE31"/>
<path d="M3.6468 7.80957C3.78264 7.80957 3.89908 7.92602 3.89908 8.06186C3.89908 8.1977 3.78264 8.31414 3.6468 8.31414C3.51097 8.31414 3.39453 8.1977 3.39453 8.06186C3.39453 7.92602 3.51097 7.80957 3.6468 7.80957Z" fill="#FFCE31"/>
<path d="M3.49441 8.41113C3.63025 8.41113 3.74669 8.52755 3.74669 8.6634C3.74669 8.79924 3.63025 8.91568 3.49441 8.91568C3.35858 8.91568 3.24219 8.79924 3.24219 8.6634C3.24219 8.52755 3.35858 8.41113 3.49441 8.41113Z" fill="#FFCE31"/>
<path d="M3.49441 9.0127C3.63025 9.0127 3.74669 9.12912 3.74669 9.26496C3.74669 9.4008 3.63025 9.51725 3.49441 9.51725C3.35858 9.51725 3.24219 9.4008 3.24219 9.26496C3.24219 9.12912 3.35858 9.0127 3.49441 9.0127Z" fill="#FFCE31"/>
<path d="M3.58816 9.55615C3.724 9.55615 3.84044 9.6726 3.84044 9.80844C3.84044 9.94428 3.724 10.0607 3.58816 10.0607C3.45233 10.0607 3.33594 9.94428 3.33594 9.80844C3.35534 9.6726 3.45233 9.55615 3.58816 9.55615Z" fill="#FFCE31"/>
<path d="M9.60379 7.05273C9.73962 7.05273 9.85606 7.16916 9.85606 7.305C9.85606 7.44084 9.73962 7.55728 9.60379 7.55728C9.46795 7.55728 9.35156 7.44084 9.35156 7.305C9.35156 7.16916 9.46795 7.05273 9.60379 7.05273Z" fill="#FFCE31"/>
<path d="M10.2054 6.91699C10.3412 6.91699 10.4577 7.03344 10.4577 7.16928C10.4577 7.30512 10.3412 7.42154 10.2054 7.42154C10.0696 7.42154 9.95312 7.30512 9.95312 7.16928C9.95312 7.01403 10.0502 6.91699 10.2054 6.91699Z" fill="#FFCE31"/>
<path d="M10.7874 6.80078C10.9233 6.80078 11.0397 6.91723 11.0397 7.05307C11.0397 7.18891 10.9233 7.30533 10.7874 7.30533C10.6516 7.30533 10.5352 7.18891 10.5352 7.05307C10.5546 6.91723 10.6516 6.80078 10.7874 6.80078Z" fill="#FFCE31"/>
<path d="M11.389 6.70361C11.5248 6.70361 11.6412 6.82006 11.6412 6.9559C11.6412 7.09174 11.5248 7.20816 11.389 7.20816C11.2532 7.20816 11.1367 7.09174 11.1367 6.9559C11.1561 6.82006 11.2532 6.70361 11.389 6.70361Z" fill="#FFCE31"/>
<path d="M11.9906 7.26627C12.1299 7.26627 12.2428 7.15331 12.2428 7.01398C12.2428 6.87465 12.1299 6.76172 11.9906 6.76172C11.8512 6.76172 11.7383 6.87465 11.7383 7.01398C11.7383 7.15331 11.8512 7.26627 11.9906 7.26627Z" fill="#FFCE31"/>
<path d="M12.5531 6.95605C12.6889 6.95605 12.8053 7.07248 12.8053 7.20832C12.8053 7.34416 12.6889 7.4606 12.5531 7.4606C12.4172 7.4606 12.3008 7.34416 12.3008 7.20832C12.3008 7.07248 12.4172 6.95605 12.5531 6.95605Z" fill="#FFCE31"/>
<path d="M13.0022 7.30518C13.1381 7.30518 13.2545 7.42162 13.2545 7.55746C13.2545 7.6933 13.1381 7.80973 13.0022 7.80973C12.8664 7.80973 12.75 7.6933 12.75 7.55746C12.75 7.42162 12.8664 7.30518 13.0022 7.30518Z" fill="#FFCE31"/>
<path d="M13.3499 7.80957C13.4858 7.80957 13.6022 7.92602 13.6022 8.06186C13.6022 8.1977 13.4858 8.31414 13.3499 8.31414C13.2141 8.31414 13.0977 8.1977 13.0977 8.06186C13.0977 7.92602 13.2141 7.80957 13.3499 7.80957Z" fill="#FFCE31"/>
<path d="M13.5062 8.41113C13.642 8.41113 13.7585 8.52755 13.7585 8.6634C13.7585 8.79924 13.642 8.91568 13.5062 8.91568C13.3703 8.91568 13.2539 8.79924 13.2539 8.6634C13.2539 8.52755 13.3703 8.41113 13.5062 8.41113Z" fill="#FFCE31"/>
<path d="M13.5062 9.51725C13.6455 9.51725 13.7585 9.40429 13.7585 9.26496C13.7585 9.12563 13.6455 9.0127 13.5062 9.0127C13.3669 9.0127 13.2539 9.12563 13.2539 9.26496C13.2539 9.40429 13.3669 9.51725 13.5062 9.51725Z" fill="#FFCE31"/>
<path d="M13.3889 9.55615C13.5248 9.55615 13.6412 9.6726 13.6412 9.80844C13.6412 9.94428 13.5248 10.0607 13.3889 10.0607C13.2531 10.0607 13.1367 9.94428 13.1367 9.80844C13.1561 9.6726 13.2531 9.55615 13.3889 9.55615Z" fill="#FFCE31"/>
<path d="M8.15194 4.95683C8.21016 5.11208 8.30719 5.20912 8.40422 5.20912L7.99674 5.90772L8.15194 6.15999C7.86087 6.25702 7.64745 6.50931 7.60864 6.76159C7.60864 6.85862 7.55042 6.91682 7.55042 7.01385C7.55042 7.51841 7.95789 7.90652 8.44302 7.90652C8.94754 7.90652 9.33566 7.499 9.33566 7.01385C9.33566 6.91682 9.33565 6.85862 9.27744 6.76159C9.18041 6.4705 8.98635 6.25702 8.73409 6.15999L8.88934 5.90772L8.48186 5.20912C8.6371 5.1509 8.73409 5.11208 8.73409 4.95683L9.27744 5.30615L9.97603 4.8598L9.27744 4.41345L8.73409 4.76277C8.67588 4.66574 8.57889 4.5687 8.48186 4.51048L8.88934 3.75367L8.48186 2.95801L8.03554 3.81187L8.44302 4.56871C8.28778 4.56871 8.19079 4.66575 8.19079 4.821L7.64744 4.47168L6.89062 4.8792L7.58922 5.32555L8.15194 4.95683Z" fill="#FFCE31"/>
<path d="M6.75223 9.71144C6.49997 9.96372 6.20892 10.119 5.89844 10.1578C6.34475 10.2548 6.90749 10.1578 7.25678 9.80847C7.80012 9.26511 7.80012 8.31422 7.25678 7.75145C7.19857 7.69323 7.10154 7.65441 7.06273 7.59619C7.39262 8.31421 7.29557 9.16808 6.75223 9.71144Z" fill="#3E4347"/>
<path d="M10.244 9.71144C10.4963 9.96372 10.7874 10.119 11.0979 10.1578C10.6516 10.2548 10.0888 10.1578 9.73953 9.80847C9.1962 9.26511 9.1962 8.31422 9.73953 7.75145C9.79775 7.69323 9.89477 7.65441 9.93358 7.59619C9.6037 8.31421 9.7007 9.16808 10.244 9.71144Z" fill="#3E4347"/>
<path d="M6.40502 11.3221C6.52145 11.3027 6.6573 11.652 6.71552 12.0983C6.77373 12.5446 6.73492 12.8939 6.61849 12.9133C6.50206 12.9327 6.36621 12.5834 6.308 12.1371C6.24978 11.6908 6.28859 11.3221 6.40502 11.3221Z" fill="#3E4347"/>
<path d="M4.36538 11.4387C4.46241 11.3998 4.65648 11.7297 4.77291 12.1567C4.88934 12.5836 4.90873 12.9523 4.81171 12.9717C4.71468 13.0105 4.52066 12.6806 4.40423 12.2537C4.2684 11.8462 4.26836 11.4775 4.36538 11.4387Z" fill="#3E4347"/>
<path d="M10.2846 12.0985C10.3428 11.6522 10.4786 11.3223 10.5951 11.3223C10.7115 11.3417 10.7503 11.7104 10.6921 12.1373C10.6339 12.5836 10.498 12.9135 10.3816 12.9135C10.2652 12.8941 10.2263 12.5254 10.2846 12.0985Z" fill="#3E4347"/>
<path d="M12.1674 12.1569C12.2838 11.7299 12.4778 11.4194 12.5748 11.4388C12.6719 11.4777 12.6719 11.8464 12.536 12.2539C12.4196 12.6808 12.2255 12.9913 12.1285 12.9719C12.0315 12.9525 12.0509 12.5838 12.1674 12.1569Z" fill="#3E4347"/>
<path d="M8.49874 11.2061C8.61517 11.2061 8.69279 11.5942 8.69279 12.0599C8.69279 12.5257 8.59576 12.9138 8.49874 12.9138C8.40171 12.9138 8.30469 12.5257 8.30469 12.0599C8.30469 11.5942 8.38231 11.2061 8.49874 11.2061Z" fill="#3E4347"/>
<path d="M8.50038 9.90558C8.80045 9.90558 9.04372 9.66229 9.04372 9.3622C9.04372 9.06211 8.80045 8.81885 8.50038 8.81885C8.2003 8.81885 7.95703 9.06211 7.95703 9.3622C7.95703 9.66229 8.2003 9.90558 8.50038 9.90558Z" fill="#3E4347"/>
<path d="M8.50059 7.86816C8.77226 7.86816 9.00514 8.10103 9.00514 8.37271C9.00514 8.6444 8.77226 8.87726 8.50059 8.87726C8.22892 8.87726 7.99609 8.6444 7.99609 8.37271C7.99609 8.08162 8.22892 7.86816 8.50059 7.86816Z" fill="#3E4347"/>
<path d="M8.50122 7.1499C8.71468 7.1499 8.90875 7.32455 8.90875 7.55742C8.90875 7.77089 8.73408 7.96494 8.50122 7.96494C8.26837 7.96494 8.09375 7.79029 8.09375 7.55742C8.09375 7.34396 8.28777 7.1499 8.50122 7.1499Z" fill="#3E4347"/>
</svg>
