<svg width="30" height="31" viewBox="0 0 30 31" fill="none" xmlns="http://www.w3.org/2000/svg">
<path d="M15.0016 0.433105C8.44277 0.433105 2.89298 4.62479 0.855469 10.4272H29.1478C27.1103 4.62479 21.5605 0.433105 15.0016 0.433105Z" fill="#FFCE31"/>
<path d="M15.0016 30.4345C21.5605 30.4345 27.1103 26.2816 29.1478 20.4404H0.855469C2.91239 26.2816 8.46217 30.4345 15.0016 30.4345Z" fill="#C94747"/>
<path d="M0.853844 10.4272C0.310507 11.9797 0 13.668 0 15.434C0 17.1805 0.291102 18.8882 0.853844 20.4407H29.1462C29.6895 18.8882 30 17.1999 30 15.434C30 13.6875 29.7089 11.9797 29.1462 10.4272H0.853844Z" fill="#699635"/>
</svg>
