<svg width="30" height="31" viewBox="0 0 30 31" fill="none" xmlns="http://www.w3.org/2000/svg">
<path d="M14.9821 30.393C21.5409 30.393 27.0908 26.2401 29.1283 20.3989H0.835938C2.89286 26.2401 8.44264 30.393 14.9821 30.393Z" fill="#428BC1"/>
<path d="M14.9821 0.391602C8.42324 0.391602 2.87345 4.58328 0.835938 10.3857H29.1283C27.0908 4.58328 21.5409 0.391602 14.9821 0.391602Z" fill="#C94747"/>
<path d="M29.1462 20.3992C29.6895 18.8467 30 17.1584 30 15.3925C30 13.6459 29.7089 11.9382 29.1462 10.3857H0.853797C0.31046 11.9382 0 13.6265 0 15.3925C0 17.139 0.291055 18.8467 0.853797 20.3992H29.1462Z" fill="#F9F9F9"/>
</svg>
