<svg width="30" height="31" viewBox="0 0 30 31" fill="none" xmlns="http://www.w3.org/2000/svg">
<path d="M27.9055 17.5125C29.0623 10.3845 24.222 3.66845 17.0945 2.51164C9.96698 1.35482 3.25124 6.19536 2.09449 13.3233C0.937734 20.4512 5.77801 27.1673 12.9055 28.3241C20.0331 29.4809 26.7488 24.6404 27.9055 17.5125Z" fill="#83BF4F"/>
<path d="M17.3799 14.7173C17.0755 14.8019 16.771 14.9372 16.5004 15.1063C16.5512 14.8526 16.585 14.582 16.585 14.2775C16.585 12.7045 15.012 11.0469 15.012 11.0469C15.012 11.0469 13.4391 12.7383 13.4391 14.2775C13.4391 14.582 13.4898 14.8357 13.5237 15.1063C13.27 14.9372 12.9655 14.7511 12.6103 14.6666C10.9189 14.1929 8.90625 15.2247 8.90625 15.2247C8.90625 15.2247 10.2932 17.4067 12.0014 17.8803C13.4391 18.2693 14.5215 17.1868 14.9275 17.0515H15.0966C15.5363 17.2207 16.585 18.2693 18.0226 17.8803C19.714 17.4067 21.1178 15.2247 21.1178 15.2247C21.1178 15.2247 19.0374 14.2437 17.3799 14.7173Z" fill="white"/>
<path d="M11.8008 22.3799C12.7649 22.9381 13.8135 23.2594 14.9805 23.2594C16.1645 23.2594 17.1962 22.955 18.1603 22.3799H11.8008Z" fill="white"/>
<path d="M9.88672 20.6377C10.1066 20.9422 10.3603 21.2466 10.6647 21.5172H19.2906C19.5951 21.2635 19.8488 20.9591 20.0687 20.6377H9.88672Z" fill="white"/>
<path d="M14.9777 9.35578L16.0602 10.1846L15.6205 8.88217L16.7029 8.05335L15.4006 8.00262L14.9609 6.7002L14.5211 8.00262L13.2188 8.05335L14.3012 8.88217L13.8615 10.1846L14.9777 9.35578Z" fill="#FFE62E"/>
<path d="M11.7997 9.87988L12.5777 10.0152L11.9688 9.45702L12.2733 8.67896L11.5799 9.11873L10.9709 8.56055L11.1401 9.33861L10.4805 9.72765L11.2585 9.86297L11.4276 10.6918L11.7997 9.87988Z" fill="#FFE62E"/>
<path d="M9.44683 12.2311L10.2249 11.8759L9.39609 11.7068L9.26077 10.9287L8.87179 11.5884L8.09375 11.4192L8.65191 12.0282L8.21214 12.7216L8.99018 12.4172L9.54833 13.0261L9.44683 12.2311Z" fill="#FFE62E"/>
<path d="M20.5267 12.231L20.3914 13.009L20.9495 12.4001L21.7276 12.7046L21.2878 12.0111L21.846 11.4021L21.0679 11.5713L20.6789 10.9116L20.5436 11.6897L19.7148 11.8588L20.5267 12.231Z" fill="#FFE62E"/>
<path d="M18.1778 9.88001L18.5329 10.6581L18.7021 9.82926L19.4801 9.69396L18.8205 9.30492L18.9896 8.52686L18.3807 9.08502L17.6873 8.64525L17.9917 9.42331L17.3828 9.9815L18.1778 9.88001Z" fill="#FFE62E"/>
<path d="M21.2205 18.8952H16.5523C15.5037 18.8952 15.4191 18.1509 15.4191 18.0156H14.5396C14.5396 18.1002 14.4889 18.8952 13.4064 18.8952H8.73828C8.87359 19.1996 8.99196 19.5041 9.17801 19.7747H13.4064C14.1844 19.7747 14.6749 19.521 14.9794 19.1658C15.2838 19.521 15.7574 19.7747 16.5523 19.7747H20.7807C20.9499 19.5041 21.0852 19.1996 21.2205 18.8952Z" fill="white"/>
</svg>
