<svg width="30" height="31" viewBox="0 0 30 31" fill="none" xmlns="http://www.w3.org/2000/svg">
<path d="M27.0118 6.47217H15.0195V9.4801H28.7776C28.3119 8.43217 27.7103 7.38425 27.0118 6.47217Z" fill="#ED4C5C"/>
<path d="M29.7089 18.4845C29.903 17.5336 30 16.5439 30 15.4766H0C0 16.5245 0.0970248 17.5336 0.291074 18.4845H29.7089Z" fill="#F9F9F9"/>
<path d="M15 0.475586V3.48352H24.0039C21.5006 1.58173 18.4153 0.475586 15 0.475586Z" fill="#ED4C5C"/>
<path d="M14.9999 6.4718H26.9921C26.1383 5.32684 25.1487 4.31773 23.9844 3.46387H14.9805V6.4718" fill="#F9F9F9"/>
<path d="M28.7581 9.47998H15V12.4879H29.7089C29.5149 11.4206 29.1656 10.4309 28.7581 9.47998Z" fill="#F9F9F9"/>
<path d="M15 12.4683V15.4762H30C30 14.4283 29.903 13.4192 29.7089 12.4683H15Z" fill="#ED4C5C"/>
<path d="M1.25951 21.4728H28.7563C29.1638 20.5219 29.5131 19.5322 29.7071 18.4648H0.308594C0.502643 19.5322 0.852009 20.5219 1.25951 21.4728Z" fill="#ED4C5C"/>
<path d="M3.00817 24.4806H27.0121C27.7106 23.5879 28.3122 22.54 28.7585 21.4727H1.26172C1.70803 22.5206 2.30959 23.5879 3.00817 24.4806Z" fill="#F9F9F9"/>
<path d="M3.00781 24.481C3.86163 25.6259 4.85128 26.635 6.01558 27.4889H24.0234C25.1682 26.635 26.1773 25.6453 27.0311 24.481H3.00781Z" fill="#ED4C5C"/>
<path d="M6.01562 27.4888C8.51887 29.3906 11.6236 30.4967 15.0195 30.4967C18.4154 30.4967 21.5202 29.3906 24.0234 27.4888H6.01562Z" fill="#F9F9F9"/>
<path d="M15 0.475586C6.69468 0.475586 0 7.17067 0 15.4764H15V0.475586Z" fill="#2A5F9E"/>
<path d="M8.96325 12.2744C7.46907 12.2744 6.2078 11.0324 6.2078 9.4799C6.2078 7.92742 7.44966 6.68545 8.96325 6.68545C9.5648 6.68545 10.0693 6.87951 10.5156 7.19C9.85588 6.43317 8.96327 5.98682 7.9154 5.98682C6.01371 5.98682 4.51953 7.5393 4.51953 9.4799C4.51953 11.4205 6.07193 12.973 7.9154 12.973C8.96327 12.973 9.85588 12.5266 10.5156 11.7698C10.0499 12.0803 9.50659 12.2744 8.96325 12.2744Z" fill="#FFE62E"/>
<path d="M12.0098 8.87851L12.3591 7.98584L12.2621 8.93674L12.9607 8.29633L12.4561 9.1502L13.3488 8.85911L12.5531 9.36366L13.504 9.51892L12.5531 9.67415L13.3488 10.1787L12.4561 9.88764L12.9607 10.7415L12.2621 10.1011L12.3591 11.052L12.0098 10.1593L11.6605 11.052L11.7575 10.1011L11.059 10.7415L11.5635 9.88764L10.6709 10.1787L11.4664 9.67415L10.5156 9.51892L11.4664 9.36366L10.6709 8.85911L11.5635 9.1502L11.059 8.29633L11.7575 8.93674L11.6605 7.98584L12.0098 8.87851Z" fill="#FFE62E"/>
</svg>
