<svg width="30" height="31" viewBox="0 0 30 31" fill="none" xmlns="http://www.w3.org/2000/svg">
<path d="M15.0016 0.397461C8.44277 0.397461 2.89298 4.58914 0.855469 10.3915H29.1479C27.091 4.58914 21.5411 0.397461 15.0016 0.397461Z" fill="#3E4347"/>
<path d="M15.0016 30.3988C21.5605 30.3988 27.1104 26.246 29.1479 20.4048H0.855469C2.89298 26.246 8.44277 30.3988 15.0016 30.3988Z" fill="#83BF4F"/>
<path d="M0.853797 10.3916C0.31046 11.9441 0 13.6324 0 15.3983C0 17.1449 0.291055 18.8526 0.853797 20.405H29.1462C29.6895 18.8526 30 17.1643 30 15.3983C30 13.6518 29.7089 11.9441 29.1462 10.3916H0.853797Z" fill="#ED4C5C"/>
<path d="M14.9996 5.54004C12.4963 5.54004 10.3425 7.13131 9.54688 9.3824H20.4524C19.6374 7.18953 17.5028 5.54004 14.9996 5.54004Z" fill="#ED4C5C"/>
<path d="M15.2506 2.80373C15.2506 2.51264 15.1536 2.20215 14.9983 2.20215C14.8043 2.20215 14.7461 2.49323 14.7461 2.80373C14.7461 3.50234 14.8431 3.85166 14.9983 4.89958C15.1924 3.85166 15.2506 3.50234 15.2506 2.80373Z" fill="#ED4C5C"/>
<path d="M15.9888 2.84279C16.047 2.5517 15.9306 2.24121 15.7948 2.24121C15.6007 2.24121 15.5037 2.49347 15.5037 2.78456C15.4455 3.48318 15.5037 3.89071 15.6007 4.88041C15.853 3.89071 15.95 3.5414 15.9888 2.84279Z" fill="#ED4C5C"/>
<path d="M16.0859 4.99676C16.4352 3.98765 16.5905 3.63835 16.7264 2.93973C16.7846 2.64864 16.7263 2.33815 16.5711 2.33815C16.377 2.27994 16.28 2.59042 16.2218 2.88151C16.086 3.59953 16.0859 3.94884 16.0859 4.99676Z" fill="#ED4C5C"/>
<path d="M17.4441 3.15321C17.5411 2.86212 17.5023 2.55161 17.347 2.5128C17.153 2.45458 16.9977 2.70688 16.9395 3.01738C16.7455 3.71599 16.7455 4.06528 16.6484 5.1132C17.0948 4.14291 17.2888 3.85182 17.4441 3.15321Z" fill="#ED4C5C"/>
<path d="M18.2008 3.40522C18.2978 3.11413 18.2979 2.80362 18.1426 2.76481C17.9486 2.70659 17.7934 2.95888 17.6964 3.21116C17.4441 3.85155 17.4052 4.25907 17.25 5.26818C17.7545 4.39491 17.9486 4.04561 18.2008 3.40522Z" fill="#ED4C5C"/>
<path d="M18.844 3.69634C18.9992 3.44406 18.9992 3.15296 18.844 3.05593C18.6499 2.9589 18.4947 3.21118 18.3394 3.46345C18.0484 4.10385 17.9902 4.47257 17.6797 5.46227C18.3006 4.64722 18.5529 4.35614 18.844 3.69634Z" fill="#ED4C5C"/>
<path d="M19.5036 4.10385C19.6589 3.85158 19.6976 3.56048 19.5618 3.46345C19.4066 3.36642 19.1544 3.56049 19.0573 3.81276C18.7081 4.41435 18.611 4.76366 18.2617 5.75336C18.9021 4.95771 19.1543 4.70544 19.5036 4.10385Z" fill="#ED4C5C"/>
<path d="M20.1038 4.4919C20.259 4.23962 20.3561 3.94852 20.2008 3.85149C20.0456 3.75446 19.7933 3.94852 19.6574 4.14258C19.2499 4.74417 19.1142 5.09348 18.6484 6.04437C19.444 5.34576 19.6963 5.05467 20.1038 4.4919Z" fill="#ED4C5C"/>
<path d="M19.1523 6.39366C19.9479 5.75326 20.2584 5.50098 20.7047 4.93821C20.8988 4.68593 20.9958 4.43366 20.8599 4.33663C20.7047 4.18139 20.4524 4.39486 20.2584 4.58892C19.8509 5.15169 19.6375 5.50098 19.1523 6.39366Z" fill="#ED4C5C"/>
<path d="M19.5391 6.80158C20.3929 6.2 20.7421 6.00593 21.2467 5.50137C21.4407 5.30731 21.5959 5.05504 21.4407 4.89979C21.2855 4.74454 21.0332 4.89979 20.8391 5.09385C20.354 5.59841 20.1406 5.94772 19.5391 6.80158Z" fill="#ED4C5C"/>
<path d="M19.9492 7.18926C20.8418 6.68471 21.1912 6.49064 21.7539 6.04431C22.0062 5.85025 22.1614 5.59797 22.0062 5.44273C21.8509 5.28748 21.5986 5.44271 21.4046 5.59796C20.8418 6.10251 20.5896 6.39362 19.9492 7.18926Z" fill="#ED4C5C"/>
<path d="M20.2969 7.65553C21.2477 7.20919 21.597 7.05396 22.1985 6.64643C22.4508 6.49118 22.606 6.2389 22.4896 6.10306C22.3926 5.94781 22.0821 6.04484 21.8298 6.20009C21.2477 6.64642 20.9955 6.8987 20.2969 7.65553Z" fill="#ED4C5C"/>
<path d="M20.5898 8.10148C21.5989 7.75218 21.9482 7.65515 22.5303 7.30584C22.7826 7.1506 22.9766 6.95654 22.8796 6.8013C22.7826 6.64605 22.4721 6.70425 22.2198 6.8595C21.6571 7.1894 21.4048 7.44168 20.5898 8.10148Z" fill="#ED4C5C"/>
<path d="M20.8398 8.60612C21.8489 8.35384 22.2371 8.25682 22.8386 7.96573C23.0909 7.86871 23.3431 7.61641 23.246 7.46116C23.149 7.2671 22.8385 7.36413 22.5863 7.46116C22.0041 7.79106 21.6937 8.00453 20.8398 8.60612Z" fill="#ED4C5C"/>
<path d="M21.0547 9.14972C22.1026 8.95566 22.4519 8.89743 23.1116 8.70337C23.4027 8.60634 23.6161 8.41229 23.5579 8.25705C23.4997 8.06299 23.2086 8.10179 22.8982 8.19882C22.2384 8.39288 21.9473 8.60635 21.0547 9.14972Z" fill="#ED4C5C"/>
<path d="M23.3455 9.40178C23.6365 9.30475 23.8888 9.14951 23.85 8.99426C23.7918 8.8002 23.5008 8.8002 23.2097 8.89723C22.6664 9.05248 22.3558 9.18833 21.8125 9.44061H23.2679C23.2485 9.40179 23.3067 9.40178 23.3455 9.40178Z" fill="#ED4C5C"/>
<path d="M6.79315 8.85856C6.50208 8.76153 6.19162 8.80035 6.13341 8.95559C6.07519 9.14965 6.32747 9.3049 6.63795 9.36311C6.69617 9.36311 6.69617 9.36312 6.73498 9.42134H8.19035C7.64701 9.14966 7.3559 8.99441 6.79315 8.85856Z" fill="#ED4C5C"/>
<path d="M6.88741 8.64507C7.54718 8.89734 7.9353 8.93614 8.94435 9.09139C8.05172 8.58683 7.74119 8.33455 7.04261 8.14049C6.75154 8.04346 6.44108 8.04347 6.38287 8.19872C6.34406 8.39278 6.59634 8.54804 6.88741 8.64507Z" fill="#ED4C5C"/>
<path d="M7.14155 7.94608C7.78191 8.23717 8.15066 8.2954 9.14031 8.58649C8.28649 7.98491 7.99536 7.73262 7.33559 7.44153C7.08333 7.34451 6.79228 7.28629 6.67585 7.44153C6.63704 7.655 6.88928 7.84905 7.14155 7.94608Z" fill="#ED4C5C"/>
<path d="M7.45234 7.30598C8.05389 7.65529 8.4614 7.75231 9.39283 8.10162C8.59723 7.46122 8.345 7.15074 7.68524 6.80143C7.43297 6.64618 7.14184 6.60736 7.04482 6.7432C6.9866 6.95667 7.20008 7.15073 7.45234 7.30598Z" fill="#ED4C5C"/>
<path d="M7.83875 6.64643C8.4403 7.05396 8.78965 7.18979 9.74049 7.65553C8.9837 6.8987 8.73143 6.64642 8.1881 6.20009C7.93583 6.04484 7.6447 5.94781 7.54768 6.10306C7.39244 6.2583 7.58649 6.49118 7.83875 6.64643Z" fill="#ED4C5C"/>
<path d="M8.28736 6.04455C8.8307 6.49089 9.17995 6.64614 10.092 7.18951C9.45162 6.39387 9.19936 6.08337 8.63661 5.63703C8.38435 5.44298 8.13207 5.34594 8.03504 5.48178C7.89921 5.59821 8.0545 5.8505 8.28736 6.04455Z" fill="#ED4C5C"/>
<path d="M10.4416 6.80158C9.84002 5.94772 9.64602 5.59841 9.1415 5.09385C8.94745 4.89979 8.69516 4.74454 8.53993 4.89979C8.38469 5.05504 8.53993 5.30731 8.73397 5.50137C9.2385 6.00593 9.58775 6.2 10.4416 6.80158Z" fill="#ED4C5C"/>
<path d="M10.8462 6.39388C10.3417 5.50121 10.1477 5.15192 9.70136 4.58914C9.50731 4.39509 9.25508 4.23983 9.15806 4.33686C9.00282 4.49211 9.15802 4.74438 9.31326 4.93844C9.74017 5.50121 10.0506 5.75349 10.8462 6.39388Z" fill="#ED4C5C"/>
<path d="M11.2951 6.04476C10.8488 5.09387 10.6935 4.74455 10.286 4.14297C10.1308 3.89069 9.87853 3.69663 9.7427 3.85188C9.58746 3.94891 9.68449 4.25941 9.83973 4.49229C10.3054 5.09387 10.5383 5.30733 11.2951 6.04476Z" fill="#ED4C5C"/>
<path d="M11.7977 5.75336C11.4484 4.74425 11.3514 4.39494 11.0021 3.81276C10.8469 3.56049 10.6528 3.36642 10.4976 3.46345C10.3423 3.56048 10.4005 3.87098 10.5558 4.10385C10.8468 4.70544 11.0991 4.95771 11.7977 5.75336Z" fill="#ED4C5C"/>
<path d="M12.3038 5.50133C12.0515 4.49223 11.9545 4.10412 11.6635 3.50254C11.5664 3.25026 11.3141 2.99796 11.1589 3.09499C10.9649 3.19202 11.0619 3.50253 11.1589 3.7354C11.45 4.35639 11.7022 4.64747 12.3038 5.50133Z" fill="#ED4C5C"/>
<path d="M12.7888 5.30693C12.5948 4.25901 12.5366 3.9097 12.3425 3.2499C12.2455 2.95881 12.0514 2.74534 11.8962 2.80355C11.7021 2.86177 11.741 3.15287 11.838 3.44396C12.0515 4.10376 12.3037 4.39485 12.7888 5.30693Z" fill="#ED4C5C"/>
<path d="M13.3514 5.09362C13.2544 4.0457 13.2544 3.69638 13.0604 2.99777C12.9633 2.70668 12.8082 2.45441 12.6529 2.49322C12.4589 2.55144 12.4589 2.84253 12.5559 3.13362C12.6918 3.85164 12.9051 4.14273 13.3514 5.09362Z" fill="#ED4C5C"/>
<path d="M13.8953 4.99663C13.8953 3.9487 13.8953 3.59939 13.7983 2.90077C13.7401 2.60968 13.6042 2.35742 13.4489 2.35742C13.2549 2.41564 13.2549 2.70672 13.2937 2.959C13.3908 3.69643 13.546 4.00692 13.8953 4.99663Z" fill="#ED4C5C"/>
<path d="M14.4367 4.89946C14.5337 3.89035 14.592 3.50222 14.4949 2.80361C14.4949 2.51252 14.3397 2.26025 14.2039 2.26025C14.0098 2.26025 13.9516 2.55134 14.0098 2.86183C14.0486 3.54104 14.1456 3.89035 14.4367 4.89946Z" fill="#ED4C5C"/>
</svg>
