<svg width="30" height="31" viewBox="0 0 30 31" fill="none" xmlns="http://www.w3.org/2000/svg">
<path d="M0 15.4489C0 20.3586 2.34797 24.7055 5.9961 27.4418H24.0039C27.652 24.6861 30 20.3392 30 15.4489C30 10.5586 27.652 6.19229 24.0039 3.45605H5.9961C2.34797 6.19229 0 10.5586 0 15.4489Z" fill="#699635"/>
<path d="M5.99609 3.45616H24.0039C21.5007 1.55438 18.3958 0.448242 14.9999 0.448242C11.6041 0.448242 8.49933 1.55438 5.99609 3.45616Z" fill="#ED4C5C"/>
<path d="M14.9999 30.4493C18.3958 30.4493 21.5007 29.3432 24.0039 27.4414H5.99609C8.49933 29.3432 11.6041 30.4493 14.9999 30.4493Z" fill="#ED4C5C"/>
<path d="M20.4909 24.259C16.2994 23.4634 13.1365 19.8151 13.1365 15.4487C13.1365 11.1018 16.28 7.45344 20.4909 6.6384C19.8893 6.54137 19.2878 6.44434 18.6474 6.44434C13.6022 6.44434 9.48828 10.5002 9.48828 15.4487C9.48828 20.3972 13.5828 24.4531 18.6474 24.4531C19.3072 24.4531 19.8893 24.3948 20.4909 24.259Z" fill="white"/>
</svg>
