<svg width="30" height="31" viewBox="0 0 30 31" fill="none" xmlns="http://www.w3.org/2000/svg">
<path d="M0 15.9813C0 22.5363 4.18875 28.0827 9.98707 30.1191V1.84351C4.20814 3.89921 0 9.4457 0 15.9813Z" fill="#83BF4F"/>
<path d="M29.9988 15.9813C29.9988 9.42631 25.8488 3.87981 20.0117 1.84351V30.1191C25.8488 28.0827 29.9988 22.5363 29.9988 15.9813Z" fill="#C94747"/>
<path d="M10.0078 30.1191C11.5592 30.6621 13.2463 30.9725 15.011 30.9725C16.7564 30.9725 18.4629 30.6815 20.0143 30.1191V1.84357C18.4629 1.30056 16.7757 0.990234 15.011 0.990234C13.2657 0.990234 11.5592 1.28116 10.0078 1.84357V30.1191Z" fill="#FFCE31"/>
</svg>
