<svg width="30" height="31" viewBox="0 0 30 31" fill="none" xmlns="http://www.w3.org/2000/svg">
<path d="M0 15.8941C0 24.1999 6.69469 30.8949 15 30.8949V0.893311C6.69469 0.893311 0 7.60778 0 15.8941Z" fill="#F9F9F9"/>
<path d="M30 15.8941C30 7.58838 23.3053 0.893311 15 0.893311V30.8949C23.3053 30.8949 30 24.1999 30 15.8941Z" fill="#ED4C5C"/>
<path d="M3.29688 8.40341V11.2561H6.1494C6.1494 11.7025 6.59571 12.207 7.10024 12.207V15.0597H9.95276V12.207C10.3991 12.207 10.9036 11.7607 10.9036 11.2561H13.7561V8.40341H10.9036C10.9036 7.95707 10.4573 7.45254 9.95276 7.45254V4.63867H7.10024V7.49134C6.65392 7.49134 6.1494 7.9377 6.1494 8.44226H3.29688V8.40341Z" fill="#ED4C5C"/>
<path d="M3.60938 8.69453V10.9456H6.4619C6.4619 11.392 6.90822 11.8965 7.41275 11.8965V14.7492H9.66371V11.8965C10.11 11.8965 10.6146 11.4502 10.6146 10.9456H13.4671V8.69453H10.6146C10.6146 8.24819 10.1682 7.74366 9.66371 7.74366V4.89099H7.41275V7.74366C6.96643 7.74366 6.4619 8.18998 6.4619 8.69453H3.60938Z" fill="#BCBCBC"/>
<path d="M7.20084 7.74365C7.35608 7.8989 7.29786 8.24822 7.10382 8.44228C6.90977 8.63634 6.56048 8.69456 6.40524 8.53931C6.25 8.38407 6.30822 8.03474 6.50227 7.84068C6.69632 7.60781 7.0456 7.54959 7.20084 7.74365Z" fill="#94989B"/>
<path d="M6.34375 8.24815L6.40196 8.18993L6.65422 8.34518L6.49899 8.0929L6.5572 8.03467L6.80946 8.57804L6.34375 8.24815Z" fill="#D0D0D0"/>
<path d="M6.75391 7.8407L6.81212 7.78247L7.21963 8.19001L7.1614 8.24824L6.75391 7.8407Z" fill="#D0D0D0"/>
<path d="M7.74156 11.3531L7.83858 11.4501L7.74156 11.5471L7.64453 11.4501L7.74156 11.3531Z" fill="#3E4347"/>
<path d="M9.25718 11.3531L9.35421 11.4501L9.25718 11.5471L9.16016 11.4501L9.25718 11.3531Z" fill="#3E4347"/>
<path d="M8.45992 11.4502V11.5472H8.30469V11.6443H8.45992V11.7413H8.55695V11.6443H8.71219V11.5472H8.55695V11.4502H8.45992Z" fill="#3E4347"/>
<path d="M9.35481 9.45135C9.51005 9.39313 9.64588 9.54838 9.7041 9.54838C9.76231 9.64541 9.85934 9.54838 9.85934 9.54838C9.85934 9.54838 9.76231 9.49015 9.66529 9.39312C9.60707 9.39312 9.47124 9.29609 9.37421 9.29609C9.316 9.35431 9.18016 9.45135 9.18016 9.45135C9.18016 9.45135 9.12195 9.35432 9.08314 9.35432C9.08314 9.2961 9.02492 9.19907 8.98611 9.16026L9.14135 9.005C9.19957 9.005 9.19956 9.00499 9.19956 8.94677C9.19956 8.94677 9.25779 8.94676 9.25779 8.88855V8.79152C9.16076 8.79152 9.00551 8.73334 8.90849 8.73334V8.63631C8.90849 8.63631 8.85027 8.63627 8.81146 8.69449H8.69504C8.69504 8.59746 8.59802 8.50043 8.50099 8.50043C8.40397 8.50043 8.30694 8.55865 8.30694 8.65568C7.51134 8.46162 7.10383 9.25729 7.29788 9.45135C7.3561 9.50957 7.55015 9.39313 7.70539 9.35432V9.45135H7.64717L7.84122 9.6066L7.99647 9.70363C7.93825 9.76185 7.84122 9.80063 7.84122 9.95587C7.74419 10.0141 7.55015 9.80066 7.49193 9.89769C7.43372 9.99472 7.43372 10.0918 7.49193 10.1888C7.55015 10.247 7.39491 10.2858 7.39491 10.344C7.33669 10.4022 7.49193 10.6351 7.55015 10.6351V10.5381C7.55015 10.5381 7.64717 10.5381 7.64717 10.4799V10.3828C7.64717 10.3828 7.74419 10.2858 7.74419 10.1888C7.74419 10.0918 7.58896 10.0335 7.64717 9.99472C7.70538 9.93651 7.84122 10.0917 7.93824 10.0529C7.99646 10.2082 8.19052 10.3052 8.28754 10.3052C8.28754 10.3634 8.22932 10.4993 8.22932 10.5575C8.22932 10.6157 8.32635 10.5575 8.48159 10.6157C8.48159 10.6739 8.42337 10.6739 8.42337 10.6739H8.30694L8.24873 10.7321H7.74419L7.93824 10.8874H9.52945L9.62647 10.7903L9.43242 10.6933L9.49064 10.6351H9.58766C9.78171 10.7903 9.87874 10.6351 9.87874 10.6351C9.87874 10.6351 9.82052 10.6351 9.82052 10.5769L9.76231 10.5187C9.76231 10.5187 9.76231 10.6157 9.7041 10.6157C9.7041 10.6157 9.64588 10.6157 9.60707 10.5575C9.7041 10.4993 9.76231 10.3634 9.76231 10.3634L9.82052 10.2664H9.87874C9.87874 10.2664 9.87874 10.2082 9.82052 10.2082C9.82052 10.2082 9.82053 10.1499 9.76231 10.1499V10.0918C9.7041 10.0918 9.7041 10.247 9.7041 10.247C9.7041 10.247 9.60708 10.344 9.54886 10.344C9.54886 10.247 9.39362 10.15 9.45184 10.0918C9.51005 10.0335 9.54886 10.1887 9.64589 10.1499C9.7041 10.1499 9.74291 10.0918 9.74291 9.99472C9.80113 10.0529 9.83994 10.0529 9.83994 10.0529V9.99472H9.89815L9.83994 9.9365V9.87827H9.85934C9.85934 9.82005 9.80112 9.78124 9.80112 9.78124H9.74291L9.45184 9.87827C9.45184 9.87827 9.35481 9.93649 9.35481 9.9753C9.35481 10.0141 9.41303 10.0723 9.45184 10.0723C9.39362 10.0723 9.29659 10.0141 9.29659 10.0141L9.39361 10.1111H9.3354C9.3354 10.1693 9.39361 10.1694 9.43242 10.1694C9.43242 10.2276 9.49064 10.2276 9.49064 10.2276C9.49064 10.2276 9.49064 10.2858 9.43242 10.2858C9.37421 10.2858 9.27719 10.1306 9.23838 10.1888C9.14135 10.247 9.29659 10.3828 9.29659 10.3828L9.23838 10.441L9.18016 10.3828C9.18016 10.2858 9.23838 10.0917 9.3354 9.9753C9.27719 9.9753 9.18016 10.0723 9.08314 10.1306C9.02492 10.0723 8.9279 10.0335 8.9279 9.9753C8.9279 9.9753 8.86969 9.91708 8.86969 9.87827H8.9279C9.08314 9.87827 9.21897 9.82005 9.3354 9.78124C9.39361 9.83946 9.39361 9.83946 9.43242 9.78124C9.58766 9.87827 9.58766 10.0335 9.62647 9.9365C9.68469 10.0917 9.78171 10.0335 9.78171 10.0335L9.58766 9.87827C9.58766 9.87827 9.49064 9.78123 9.39361 9.72301C9.29659 9.66479 9.14135 9.66478 9.14135 9.66478C9.14135 9.66478 9.35481 9.6066 9.35481 9.45135ZM9.00551 9.005C9.00551 9.06322 8.9473 9.06322 8.90849 9.10203L8.85028 9.0438C8.85028 9.0438 8.9473 9.005 9.00551 9.005ZM8.5592 8.94677L8.50099 9.005L8.44278 8.94677H8.50099C8.46218 8.94677 8.50099 8.90796 8.5592 8.94677ZM8.30694 8.75271C8.30694 8.81093 8.30694 8.81093 8.36515 8.84974H8.30694H8.24873H8.19052C8.20992 8.79153 8.24873 8.79153 8.30694 8.75271ZM7.86063 9.54838C7.80242 9.54838 7.80242 9.54838 7.86063 9.54838V9.49015C7.86063 9.49015 7.80242 9.49014 7.80242 9.43192V9.33489L7.89944 9.23786C8.05468 9.17965 8.09349 9.14083 8.09349 9.14083C8.09349 9.19905 8.09349 9.29608 8.1517 9.33489C8.1517 9.43192 8.24873 9.58717 8.30694 9.62598C8.24873 9.62598 8.1517 9.68421 8.11289 9.68421L7.86063 9.54838ZM8.24873 10.441C8.30694 10.441 8.34575 10.2858 8.34575 10.247C8.40397 10.344 8.34575 10.441 8.40397 10.441C8.46218 10.4992 8.50099 10.441 8.50099 10.441C8.59802 10.441 8.75325 10.3828 8.75325 10.3828C8.81147 10.4411 8.81147 10.3828 8.85028 10.3828C8.85028 10.4411 8.90849 10.441 8.90849 10.441C8.90849 10.441 8.75325 10.4993 8.71444 10.4993C8.61742 10.441 8.52039 10.4993 8.46218 10.5575C8.30694 10.5575 8.24873 10.4992 8.24873 10.441ZM8.90849 10.0918V10.1499H9.00551C9.00551 10.1499 9.06374 10.1499 9.06374 10.2082L9.00551 10.2664C8.90849 10.2082 8.75325 10.1693 8.5592 10.2082C8.75325 10.2082 8.75325 10.3052 8.75325 10.3052C8.75325 10.3052 8.85028 10.3052 8.85028 10.4022C8.90849 10.4022 8.90849 10.4604 8.90849 10.4604C8.90849 10.4604 8.96671 10.4022 8.96671 10.5187C9.02493 10.5187 9.02493 10.5187 9.06374 10.5769C9.00552 10.5187 8.9667 10.5187 8.90849 10.5187C8.85027 10.4605 8.81147 10.4216 8.75325 10.4216C8.69504 10.4799 8.55921 10.4799 8.50099 10.4799C8.44278 10.4799 8.50099 10.4216 8.44278 10.4216C8.50099 10.3634 8.44278 10.2664 8.44278 10.2276C8.44278 10.2276 8.50099 10.2276 8.5398 10.1694C8.59802 10.1694 8.63683 10.1111 8.69504 10.0723C8.81147 9.9947 8.85027 10.0529 8.90849 10.0918Z" fill="#94989B"/>
</svg>
