<svg width="30" height="31" viewBox="0 0 30 31" fill="none" xmlns="http://www.w3.org/2000/svg">
<path d="M18.894 1.39542C10.9007 -0.758234 2.65513 3.9953 0.501594 11.989C-0.138647 14.4337 -0.138645 16.9367 0.346387 19.2455L22.134 2.75358C21.2027 2.19091 20.0387 1.74466 18.894 1.39542Z" fill="#2A5F9E"/>
<path d="M4.78906 26.89C6.53517 28.481 8.63051 29.7421 11.0945 30.3824C19.0878 32.5361 27.3333 27.7825 29.448 19.7888C29.7391 18.6441 29.8943 17.4799 29.9525 16.3352L4.78906 26.89Z" fill="#2A5F9E"/>
<path d="M27.9948 8.43846C26.6367 6.09079 24.6384 4.09232 22.1939 2.73416L0.40625 19.2261C0.697269 20.7201 1.29871 22.1171 1.99715 23.3782L27.9948 8.43846Z" fill="#FF8736"/>
<path d="M27.9938 8.43842L1.99609 23.3782C2.75274 24.6781 3.70341 25.8229 4.78988 26.8706L29.9921 16.3157C30.0891 13.5412 29.3519 10.7861 27.9938 8.43842Z" fill="white"/>
<path d="M8.80503 8.94294L12.1614 8.74891L8.80503 8.55489L10.6481 7.85644L8.70802 8.20564L10.2989 7.06092L8.4946 7.85644L9.73628 6.30425L8.24238 7.54598L9.03783 5.74156L7.89316 7.33254L8.18418 5.39231L7.48573 7.23553L7.29172 3.87897L7.09771 7.23553L6.39927 5.39231L6.69028 7.33254L5.54561 5.74156L6.34106 7.54598L4.84717 6.30425L6.08885 7.85644L4.28453 7.06092L5.87543 8.20564L3.9353 7.85644L5.73962 8.55489L2.44141 8.74891L5.73962 8.94294L3.9353 9.64144L5.87543 9.3504L4.28453 10.4951L6.08885 9.69965L4.84717 11.2518L6.34106 10.0101L5.54561 11.8145L6.69028 10.2235L6.39927 12.1637L7.09771 10.3205L7.29172 13.6771L7.48573 10.3205L8.18418 12.1637L7.89316 10.2235L9.03783 11.8145L8.24238 10.0101L9.73628 11.2518L8.4946 9.69965L10.2989 10.4951L8.70802 9.3504L10.6481 9.64144L8.80503 8.94294Z" fill="white"/>
</svg>
