<svg width="30" height="31" viewBox="0 0 30 31" fill="none" xmlns="http://www.w3.org/2000/svg">
<path d="M18.0059 1.20667H12.0098C6.16888 2.40983 1.5117 7.00905 0.308594 12.9085V18.9049C1.5117 24.8043 6.14947 29.4035 12.0098 30.6067H18.0059C23.905 29.4035 28.5039 24.7655 29.707 18.9049V12.9085C28.5039 7.00905 23.8662 2.40983 18.0059 1.20667Z" fill="#2A5F9E"/>
<path d="M18.0078 12.9084V1.20662C17.0569 1.01256 16.0673 0.915527 15 0.915527C13.9327 0.915527 12.9431 1.01256 11.9922 1.20662V12.9084H0.291074C0.0970246 13.8593 0 14.849 0 15.9163C0 16.9643 0.0970246 17.9734 0.291074 18.9243H11.9922V30.626C12.9431 30.8201 13.9327 30.9171 15 30.9171C16.0673 30.9171 17.0569 30.8201 18.0078 30.626V18.9243H29.7089C29.903 17.9734 30 16.9837 30 15.9163C30 14.8684 29.903 13.8593 29.7089 12.9084H18.0078Z" fill="white"/>
<path d="M6.81186 4.79667C6.61781 4.8937 6.46257 5.04896 6.46257 5.14599C6.46257 5.24302 6.5596 5.24298 6.40436 5.3012C6.24912 5.35941 5.89982 5.45644 5.60875 5.39823C5.51172 5.39823 5.31768 5.34005 5.25946 5.34005C5.20125 5.34005 5.55053 5.49526 5.4147 5.49526C5.22065 5.43704 5.12363 5.39824 5.25946 5.55348C5.35649 5.65051 5.60876 5.65052 5.95805 5.61171C6.11329 5.61171 6.46257 5.51468 6.55959 5.51468C6.65662 5.51468 6.65662 5.61171 6.71483 5.61171C7.16114 5.66993 7.95675 5.6117 8.30604 5.55348C8.59711 5.49527 8.71353 5.49527 8.81056 5.65051C8.9658 5.84457 8.81056 6.05805 8.30604 6.19389C7.70448 6.34914 7.51043 6.44618 7.25817 6.73727C6.71483 7.37766 7.3552 8.19271 8.50008 8.28974C9.19866 8.34796 9.64498 8.48381 9.54795 8.63906C9.48974 8.69728 9.04341 8.73605 8.53889 8.79427C7.394 8.8913 6.88947 9.08538 6.48197 9.55113C6.22971 9.80341 6.1909 9.99747 6.1909 10.1915C6.1909 10.4826 6.1909 10.4826 5.74458 10.4826C5.49232 10.4826 5.20125 10.4244 5.04601 10.3856C4.79375 10.3274 4.79375 10.3273 4.85196 10.4438C5.0072 10.6961 5.49232 10.8901 5.89982 10.8901C6.1909 10.8901 6.34614 10.9483 6.65662 11.1812C7.19996 11.6275 7.8015 11.7828 8.81056 11.7828C10.1107 11.7828 10.8675 11.3753 10.8675 10.6767C10.8675 10.1721 10.3629 9.88102 9.31508 9.78399C8.81055 9.72577 7.7627 9.84221 7.31639 9.97805C7.21937 10.0363 7.31639 9.91982 7.51044 9.82279C7.7627 9.66754 8.15079 9.57051 8.71353 9.5317C9.91664 9.43467 10.46 9.12419 10.46 8.5226C10.46 7.97924 9.91664 7.66875 8.81056 7.5135C7.70448 7.41647 7.60747 7.16418 8.55831 6.81487C9.19867 6.56259 9.56735 6.27152 9.56735 5.76697C9.56735 5.06835 9.21807 4.81609 8.11199 4.75787C7.31639 4.60262 7.10293 4.60261 6.81186 4.79667ZM7.41341 5.01011C7.41341 5.06832 7.31638 5.10714 7.25817 5.10714C7.19995 5.10714 7.19995 5.04892 7.19995 5.01011C7.19995 4.95189 7.29698 4.91308 7.35519 4.91308C7.45221 4.89367 7.45222 4.95189 7.41341 5.01011ZM9.8002 10.3467C9.95544 10.405 9.99426 10.502 9.95545 10.5408C9.80021 10.6961 8.9076 10.8319 8.36426 10.7931C7.76271 10.7349 7.12233 10.502 7.25817 10.3856C7.85972 10.1527 9.31508 10.0945 9.8002 10.3467Z" fill="white"/>
<path d="M21.3079 4.79667C21.1139 4.8937 20.9587 5.04896 20.9587 5.14599C20.9587 5.24302 21.0557 5.24298 20.9005 5.3012C20.7452 5.35941 20.3959 5.45644 20.1049 5.39823C20.0078 5.39823 19.8138 5.34005 19.7556 5.34005C19.6973 5.34005 20.0466 5.49526 19.9108 5.49526C19.7168 5.43704 19.6197 5.39824 19.7556 5.55348C19.8526 5.65051 20.1048 5.65052 20.4541 5.61171C20.6094 5.61171 20.9587 5.51468 21.0557 5.51468C21.1527 5.51468 21.1527 5.61171 21.2109 5.61171C21.6572 5.66993 22.4528 5.6117 22.8021 5.55348C23.0932 5.49527 23.2096 5.49527 23.3067 5.65051C23.4619 5.84457 23.3066 6.05805 22.8021 6.19389C22.2006 6.34914 22.0065 6.44618 21.7543 6.73727C21.2109 7.37766 21.8513 8.19271 22.9962 8.28974C23.6947 8.34796 24.1411 8.48381 24.044 8.63906C23.9858 8.69728 23.5395 8.73605 23.035 8.79427C21.8901 8.8913 21.3856 9.08538 20.9781 9.55113C20.7258 9.80341 20.687 9.99747 20.687 10.1915C20.687 10.4826 20.687 10.4826 20.2407 10.4826C19.9884 10.4826 19.6973 10.4244 19.5421 10.3856C19.2898 10.3274 19.2898 10.3273 19.3481 10.4438C19.5033 10.6961 19.9884 10.8901 20.3959 10.8901C20.687 10.8901 20.8422 10.9483 21.1527 11.1812C21.696 11.6275 22.2976 11.7828 23.3067 11.7828C24.6068 11.7828 25.3636 11.3753 25.3636 10.6767C25.3636 10.1721 24.8591 9.88102 23.8112 9.78399C23.3067 9.72577 22.2588 9.84221 21.8125 9.97805C21.7154 10.0363 21.8125 9.91982 22.0065 9.82279C22.2588 9.66754 22.6469 9.57051 23.2096 9.5317C24.4127 9.43467 24.9561 9.12419 24.9561 8.5226C24.9561 7.97924 24.4127 7.66875 23.3067 7.5135C22.2006 7.41647 22.1036 7.16418 23.0544 6.81487C23.6948 6.56259 24.0634 6.27152 24.0634 5.76697C24.0634 5.06835 23.7141 4.81609 22.6081 4.75787C21.7543 4.60262 21.6184 4.60261 21.3079 4.79667ZM21.9095 5.01011C21.8513 5.06832 21.8125 5.10714 21.7543 5.10714C21.6961 5.10714 21.696 5.04892 21.696 5.01011C21.7543 4.95189 21.7931 4.91308 21.8513 4.91308C21.9095 4.89367 21.9095 4.95189 21.9095 5.01011ZM24.2575 10.3467C24.4127 10.405 24.4515 10.502 24.4127 10.5408C24.2575 10.6961 23.3649 10.8319 22.8215 10.7931C22.22 10.7349 21.5796 10.502 21.7154 10.3856C22.317 10.1527 23.753 10.0945 24.2575 10.3467Z" fill="white"/>
<path d="M6.81186 20.0498C6.61781 20.1468 6.46257 20.3021 6.46257 20.3991C6.46257 20.4962 6.5596 20.4962 6.40436 20.5544C6.24912 20.6126 5.89982 20.7096 5.60875 20.6514C5.51172 20.6514 5.31768 20.5932 5.25946 20.5932C5.20125 20.5932 5.55053 20.7484 5.4147 20.7484C5.22065 20.6902 5.12363 20.6514 5.25946 20.8067C5.35649 20.9037 5.60876 20.9037 5.95805 20.8649C6.11329 20.8649 6.46257 20.7679 6.55959 20.7679C6.65662 20.7679 6.65662 20.8649 6.71483 20.8649C7.16114 20.9231 7.95675 20.8649 8.30604 20.8067C8.59711 20.7485 8.71353 20.7485 8.81056 20.9037C8.9658 21.0978 8.81056 21.3112 8.30604 21.4471C7.70448 21.6023 7.51043 21.6993 7.25817 21.9904C6.71483 22.6308 7.3552 23.4459 8.50008 23.5429C9.19866 23.6011 9.64498 23.737 9.54795 23.8922C9.48974 23.9504 9.04341 23.9892 8.53889 24.0475C7.394 24.1445 6.88947 24.3385 6.48197 24.8043C6.22971 25.0565 6.1909 25.2506 6.1909 25.4447C6.1909 25.7358 6.1909 25.7358 5.74458 25.7358C5.49232 25.7358 5.20125 25.6775 5.04601 25.6387C4.79375 25.5805 4.79375 25.5805 4.85196 25.697C5.0072 25.9492 5.49232 26.1433 5.89982 26.1433C6.1909 26.1433 6.34614 26.2015 6.65662 26.4344C7.19996 26.8807 7.8015 27.036 8.81056 27.036C10.1107 27.036 10.8675 26.6284 10.8675 25.9298C10.8675 25.4253 10.3629 25.1342 9.31508 25.0372C8.81055 24.979 7.7627 25.0954 7.31639 25.2312C7.21937 25.2895 7.31639 25.173 7.51044 25.076C7.7627 24.9207 8.15079 24.8237 8.71353 24.7849C9.91664 24.6879 10.46 24.3774 10.46 23.7758C10.46 23.2324 9.91664 22.9219 8.81056 22.7666C7.70448 22.6696 7.60747 22.4174 8.55831 22.0681C9.19867 21.8158 9.56735 21.5247 9.56735 21.0201C9.56735 20.3215 9.21807 20.0692 8.11199 20.011C7.31639 19.8558 7.10293 19.8558 6.81186 20.0498ZM7.41341 20.2439C7.41341 20.3021 7.31638 20.3409 7.25817 20.3409C7.19995 20.3409 7.19995 20.2827 7.19995 20.2439C7.19995 20.1857 7.29698 20.1468 7.35519 20.1468C7.45221 20.1468 7.45222 20.1468 7.41341 20.2439ZM9.8002 25.5999C9.95544 25.6582 9.99426 25.7552 9.95545 25.794C9.80021 25.9492 8.9076 26.0851 8.36426 26.0463C7.76271 25.9881 7.12233 25.7552 7.25817 25.6387C7.85972 25.4059 9.31508 25.3477 9.8002 25.5999Z" fill="white"/>
<path d="M21.3079 20.0498C21.1139 20.1468 20.9587 20.3021 20.9587 20.3991C20.9587 20.4962 21.0557 20.4962 20.9005 20.5544C20.7452 20.6126 20.3959 20.7096 20.1049 20.6514C20.0078 20.6514 19.8138 20.5932 19.7556 20.5932C19.6973 20.5932 20.0466 20.7484 19.9108 20.7484C19.7168 20.6902 19.6197 20.6514 19.7556 20.8067C19.8526 20.9037 20.1048 20.9037 20.4541 20.8649C20.6094 20.8649 20.9587 20.7679 21.0557 20.7679C21.1527 20.7679 21.1527 20.8649 21.2109 20.8649C21.6572 20.9231 22.4528 20.8649 22.8021 20.8067C23.0932 20.7485 23.2096 20.7485 23.3067 20.9037C23.4619 21.0978 23.3066 21.3112 22.8021 21.4471C22.2006 21.6023 22.0065 21.6993 21.7543 21.9904C21.2109 22.6308 21.8513 23.4459 22.9962 23.5429C23.6947 23.6011 24.1411 23.737 24.044 23.8922C23.9858 23.9504 23.5395 23.9892 23.035 24.0475C21.8901 24.1445 21.3856 24.3385 20.9781 24.8043C20.7258 25.0565 20.687 25.2506 20.687 25.4447C20.687 25.7358 20.687 25.7358 20.2407 25.7358C19.9884 25.7358 19.6973 25.6775 19.5421 25.6387C19.2898 25.5805 19.2898 25.5805 19.3481 25.697C19.5033 25.9492 19.9884 26.1433 20.3959 26.1433C20.687 26.1433 20.8422 26.2015 21.1527 26.4344C21.696 26.8807 22.2976 27.036 23.3067 27.036C24.6068 27.036 25.3636 26.6284 25.3636 25.9298C25.3636 25.4253 24.8591 25.1342 23.8112 25.0372C23.3067 24.979 22.2588 25.0954 21.8125 25.2312C21.7154 25.2895 21.8125 25.173 22.0065 25.076C22.2588 24.9207 22.6469 24.8237 23.2096 24.7849C24.4127 24.6879 24.9561 24.3774 24.9561 23.7758C24.9561 23.2324 24.4127 22.9219 23.3067 22.7666C22.2006 22.6696 22.1036 22.4174 23.0544 22.0681C23.6948 21.8158 24.0634 21.5247 24.0634 21.0201C24.0634 20.3215 23.7141 20.0692 22.6081 20.011C21.7543 19.8558 21.6184 19.8558 21.3079 20.0498ZM21.9095 20.2439C21.8513 20.3021 21.8125 20.3409 21.7543 20.3409C21.6961 20.3409 21.696 20.2827 21.696 20.2439C21.7543 20.1857 21.7931 20.1468 21.8513 20.1468C21.9095 20.1468 21.9095 20.1468 21.9095 20.2439ZM24.2575 25.5999C24.4127 25.6582 24.4515 25.7552 24.4127 25.794C24.2575 25.9492 23.3649 26.0851 22.8215 26.0463C22.22 25.9881 21.5796 25.7552 21.7154 25.6387C22.317 25.4059 23.753 25.3477 24.2575 25.5999Z" fill="white"/>
</svg>
