<svg width="30" height="31" viewBox="0 0 30 31" fill="none" xmlns="http://www.w3.org/2000/svg">
<path d="M14.9911 0.0227051C9.63877 0.0227051 4.94582 2.81537 2.28906 7.02374H27.6155C25.0363 2.83477 20.3434 0.0227051 14.9911 0.0227051Z" fill="#ED4C5C"/>
<path d="M2.3077 7.02368C0.853269 9.3315 0 12.066 0 15.0138H29.9806C29.9806 12.066 29.1273 9.3121 27.6729 7.02368H2.3077Z" fill="#2A5F9E"/>
<path d="M2.30859 23.0233C4.96535 27.2123 9.6583 30.0243 15.0106 30.0243C20.3629 30.0243 25.0558 27.2317 27.7126 23.0233H2.30859Z" fill="#699635"/>
<path d="M27.6925 23.0233C29.1469 20.7155 30.0001 17.981 30.0001 15.0332H0.0195312C0.0195312 17.981 0.8728 20.7349 2.32723 23.0233H27.6925Z" fill="#FFCE31"/>
</svg>
