<svg width="30" height="31" viewBox="0 0 30 31" fill="none" xmlns="http://www.w3.org/2000/svg">
<path d="M22.5 23.4105C26.6421 19.2681 26.6421 12.552 22.5 8.40964C18.3579 4.26728 11.6421 4.26728 7.49999 8.40964C3.35786 12.552 3.35787 19.2681 7.5 23.4104C11.6421 27.5528 18.3579 27.5528 22.5 23.4105Z" fill="#699635"/>
<path d="M20.5601 14.7816C20.025 17.3613 17.7609 19.3099 15.0029 19.3099C12.2449 19.3099 9.98084 17.3613 9.4457 14.7816C9.37709 15.1383 9.33594 15.5225 9.33594 15.9068C9.33594 19.0217 11.8881 21.5603 14.9892 21.5603C18.104 21.5603 20.6424 19.008 20.6424 15.9068C20.6699 15.5225 20.6287 15.1383 20.5601 14.7816Z" fill="#FFCE31"/>
<path d="M13.0962 15.9068L15.0035 14.5621L16.9108 15.9068L16.1973 13.7525L18.1046 12.3802H15.7307L14.9898 10.2533L14.2763 12.3802H11.875L13.7823 13.7525L13.0962 15.9068Z" fill="#FFCE31"/>
</svg>
