<svg width="30" height="31" viewBox="0 0 30 31" fill="none" xmlns="http://www.w3.org/2000/svg">
<path d="M15 30.9684C23.2843 30.9684 30 24.2523 30 15.9676C30 7.6829 23.2843 0.966797 15 0.966797C6.71572 0.966797 0 7.6829 0 15.9676C0 24.2523 6.71572 30.9684 15 30.9684Z" fill="#F5F5F5"/>
<path d="M7.89844 10.5728V8.51576H8.53881L8.98511 10.0682L9.43143 8.51576H10.0718V10.5728H9.66428V8.92326L9.21798 10.5728H8.77166L8.32534 8.92326V10.5728H7.89844ZM11.3525 8.92326L11.0614 9.77715H11.663L11.3525 8.92326ZM11.1002 8.51576H11.6048L12.4004 10.5728H11.9541L11.7988 10.1653H10.945L10.7898 10.5728H10.3435L11.1002 8.51576ZM13.6035 10.5728H13.1572V9.81595L12.3616 8.57394H12.9049L13.3512 9.46664L13.7975 8.57394H14.3021L13.6035 9.81595V10.5728ZM14.8454 9.52486C14.8454 9.71892 14.9036 9.93236 15.0006 10.0294C15.0977 10.1264 15.2529 10.2234 15.447 10.2234C15.641 10.2234 15.7962 10.1652 15.8933 10.0294C15.9903 9.93236 16.0485 9.73833 16.0485 9.52486C16.0485 9.3308 15.9903 9.11732 15.8933 9.02029C15.7962 8.92326 15.641 8.82623 15.447 8.82623C15.2529 8.82623 15.0977 8.88445 15.0006 9.02029C14.9036 9.17554 14.8454 9.3308 14.8454 9.52486ZM14.3991 9.52486C14.3991 9.17556 14.4961 8.92326 14.6902 8.7292C14.8842 8.53514 15.1365 8.43811 15.4858 8.43811C15.835 8.43811 16.0873 8.53514 16.2814 8.7292C16.4754 8.92326 16.5724 9.17556 16.5724 9.52486C16.5724 9.87417 16.4754 10.1264 16.2814 10.3205C16.0873 10.5145 15.835 10.6116 15.4858 10.6116C15.1365 10.6116 14.8842 10.5145 14.6902 10.3205C14.4961 10.1264 14.3991 9.87417 14.3991 9.52486ZM17.3486 10.5728V8.92326H16.7083V8.57394H18.4547V8.92326H17.8143V10.5728H17.3486ZM19.1533 10.5728V8.92326H18.5129V8.57394H20.2594V8.92326H19.619V10.5728H19.1533ZM20.5116 10.5728V8.51576H22.1028V8.86503H20.958V9.31138H22.0058V9.6607H20.958V10.1653H22.1611V10.5728H20.5116Z" fill="#ED4C5C"/>
<path d="M10.3434 22.3328C9.70307 22.5268 8.79106 22.9731 8.44177 23.2254C8.34474 23.3224 8.34473 23.4195 8.49997 23.7688C8.65521 24.0211 8.75223 24.2151 8.79104 24.2151C8.84926 24.2151 9.19854 24.0599 9.58664 23.8658C9.97474 23.6718 10.4793 23.4195 10.7315 23.3613C10.9256 23.3031 11.0808 23.3031 11.1779 23.2643C11.2361 23.3613 11.1779 23.3225 11.2749 23.4583C11.3719 23.6524 11.3331 23.6524 11.4689 23.7494C11.663 23.8076 12.1093 23.5554 12.1093 23.5554C12.6526 23.3613 12.9631 23.3613 14.9618 23.3613C16.9605 23.3613 17.271 23.3613 17.8143 23.5554C17.8143 23.5554 18.2606 23.7106 18.3189 23.7106C18.3771 23.7106 18.4159 23.7688 18.4741 23.7106C18.5323 23.7106 18.5711 23.6136 18.6294 23.5554C18.6294 23.5554 18.7264 23.2642 18.7846 23.1478C18.8816 23.206 19.0756 23.2448 19.2891 23.3419C19.4831 23.4389 19.9877 23.633 20.3952 23.8464C20.8027 24.0599 21.152 24.1957 21.1908 24.1957C21.1908 24.1957 21.346 24.0017 21.4819 23.7494C21.7341 23.2449 21.7729 23.303 20.8415 22.7985C19.5996 22.1581 18.3965 21.8476 18.2413 22.1969C18.2413 22.2552 18.183 22.2939 18.183 22.3521C18.086 22.2939 17.7367 22.2552 17.4262 22.1969C16.4172 22.0029 13.6811 22.0029 12.672 22.1969C12.381 22.2552 12.1287 22.3522 11.9152 22.391C11.8182 22.1969 11.8182 22.294 11.8182 22.1969C11.7018 22.0223 11.1584 22.0805 10.3434 22.3328Z" fill="#3E4347"/>
<path d="M11.4093 22.1775C10.963 22.1775 10.1092 22.4686 9.21652 22.9343C8.45973 23.2836 8.45972 23.3418 8.67318 23.73C8.7702 23.924 8.86723 24.0793 8.86723 24.0793C8.92544 24.0793 9.21652 23.924 9.62402 23.73C10.0315 23.5359 10.5167 23.3224 10.7689 23.2254C10.9242 23.1672 11.06 23.1672 11.2152 23.1284L11.1182 22.8373C11.2152 22.5462 11.4675 22.2939 11.7197 22.2357C11.5451 22.2163 11.5063 22.1775 11.4093 22.1775Z" fill="#DFDFDF"/>
<path d="M14.9016 22.2163C14.009 22.2163 13.1552 22.2745 12.7477 22.3133C12.0491 22.4103 11.6998 22.6626 11.4476 22.7597C11.3506 22.8179 11.2923 22.8567 11.1953 22.9149C11.2923 23.109 11.2923 23.206 11.3506 23.3613C11.4088 23.5165 11.4088 23.6135 11.6028 23.6523C11.7969 23.6523 12.2044 23.4583 12.2044 23.4583C12.7477 23.2642 13.0582 23.2642 15.0569 23.2642C17.0556 23.2642 17.4631 23.3224 17.9094 23.4583C18.2587 23.5553 18.3557 23.6523 18.511 23.6523C18.5692 23.6523 18.608 23.5553 18.6662 23.4001C18.7244 23.2448 18.8214 22.9925 18.8603 22.7597C18.7632 22.7597 18.802 22.8179 18.6662 22.7014C18.3751 22.5462 18.3169 22.5462 18.1229 22.4491C17.8706 22.3521 17.6766 22.3521 17.3273 22.2939C16.9198 22.2357 15.9689 22.1969 15.0763 22.1969H14.9016" fill="#DFDFDF"/>
<path d="M18.6084 22.2163H18.4531C18.5501 22.2745 18.6472 22.3716 18.7054 22.4104C18.8994 22.5074 18.8994 22.6627 18.8994 22.8567C18.8994 22.9537 18.8994 23.012 18.8412 23.109C18.9382 23.1672 19.1323 23.206 19.2875 23.3031C19.4816 23.3613 19.9861 23.5941 20.4324 23.8076C20.8399 24.0016 21.131 24.1569 21.1892 24.1569C21.1892 24.1569 21.2862 23.9628 21.3833 23.8076C21.5385 23.5553 21.5385 23.4583 21.4415 23.3613C21.1892 23.1672 20.2384 22.7209 19.598 22.5074C19.0935 22.2745 18.8024 22.2163 18.6084 22.2163Z" fill="#DFDFDF"/>
<path d="M18.3004 22.2745C18.2422 22.3328 18.2422 22.3716 18.2422 22.4298C18.3004 22.4298 18.5332 22.5851 18.6885 22.5851H18.7467C18.7467 22.5851 18.6885 22.5268 18.5915 22.488C18.4944 22.4492 18.3974 22.3328 18.3004 22.2745Z" fill="#DFDFDF"/>
<path d="M11.7002 22.2745C11.642 22.3328 11.5062 22.4298 11.448 22.4686C11.2927 22.5656 11.2927 22.6238 11.2539 22.7597C11.2539 22.7597 11.3509 22.6627 11.6032 22.5656C11.7972 22.4686 11.7002 22.5074 11.8555 22.4686C11.7584 22.3716 11.7002 22.3716 11.7002 22.2745Z" fill="#DFDFDF"/>
<path d="M12.052 12.3775C11.7998 12.4745 11.7027 12.6686 11.6445 12.9209C11.6445 13.1731 11.7027 13.3672 11.8386 13.5224L11.9938 13.6777C11.9938 13.6777 11.9356 13.7747 11.8968 13.8329C11.7415 13.9882 11.6445 14.1822 11.6445 14.3763C11.6445 14.5704 11.7027 14.7256 11.8968 14.8808L12.052 15.0361L11.8968 15.1913C11.6057 15.5407 11.6057 15.89 11.8968 16.2004L12.052 16.3557H18.1452L18.3004 16.2004C18.5915 15.9094 18.5915 15.5407 18.3004 15.1913L18.1064 14.9973L18.2616 14.842C18.5527 14.4927 18.5527 14.1434 18.2616 13.7941C18.1064 13.6389 18.1064 13.6001 18.2034 13.5418C18.3974 13.4448 18.4945 13.0373 18.3974 12.785C18.3004 12.4357 17.7571 12.1834 17.4466 12.3387C17.3884 12.3969 17.2914 12.4357 17.1943 12.5327C17.0973 12.591 17.0391 12.688 17.0003 12.688C17.0003 12.688 16.9033 12.6298 16.845 12.5327C16.554 12.2805 16.1465 12.2805 15.836 12.591L15.739 12.688L15.5837 12.5327C15.2926 12.2417 14.8851 12.2417 14.5358 12.591L14.4388 12.688L14.2836 12.591C14.0895 12.3969 13.9925 12.3387 13.7402 12.3387C13.5462 12.3387 13.3328 12.4357 13.1969 12.591L13.0999 12.688L12.9447 12.5327C12.5954 12.2222 12.3431 12.2222 12.052 12.3775Z" fill="#2A5F9E"/>
<path d="M11.8559 16.5304C11.5648 16.8797 11.5648 17.229 11.8559 17.5783L11.9529 17.7336L11.7976 17.8888C11.7394 17.9858 11.6424 18.0828 11.6036 18.1411C11.5066 18.3933 11.5454 18.7427 11.7976 18.8979C11.8947 18.995 11.9529 19.0532 11.7976 19.189C11.7394 19.2472 11.7006 19.3443 11.6424 19.3831C11.3901 19.8294 11.7394 20.431 12.2828 20.431C12.4768 20.431 12.6903 20.3728 12.7873 20.2369C12.8843 20.1399 12.9813 20.0817 13.0783 20.2369C13.2336 20.3922 13.4277 20.4892 13.5829 20.4892C13.7769 20.4892 13.874 20.431 14.0874 20.2369L14.2426 20.0817L14.3979 20.2369C14.689 20.528 14.9994 20.5862 15.4069 20.2951L15.5622 20.1981L15.7174 20.3534C15.9115 20.5086 16.0085 20.5474 16.222 20.5474C16.4354 20.5474 16.513 20.4892 16.7265 20.2951L16.8817 20.1399L17.037 20.2369C17.2892 20.431 17.4445 20.528 17.5803 20.528C17.7744 20.528 17.8714 20.4698 18.0848 20.2757C18.2789 20.1205 18.3371 19.9264 18.3371 19.7712C18.3371 19.6159 18.1819 19.3249 18.046 19.2278L17.949 19.1308L18.1042 18.9755C18.3953 18.6262 18.3953 18.3352 18.1042 17.9276L17.949 17.7724L18.1042 17.6171C18.3953 17.2678 18.3953 16.9185 18.1042 16.608L17.949 16.4528H11.8559V16.5304Z" fill="#ED4C5C"/>
<path d="M11.1953 16.0646V20.2563C11.1953 20.4116 11.2923 20.4503 11.4476 20.6056C11.6998 20.7996 11.9521 21.0131 13.2911 20.8579C14.533 20.8579 14.7852 20.9549 14.9405 21.4595L14.9987 21.7506L15.0569 21.4595C15.1539 20.9549 15.4644 20.8579 16.6481 20.8579C18.2005 20.8579 18.3557 20.7996 18.5498 20.6056C18.5498 20.6056 18.705 20.5086 18.7438 20.3533C18.802 20.1981 18.7438 20.101 18.7438 20.101V11.7953H11.1953V16.0646ZM18.705 16.1228V19.6159C18.705 20.0622 18.7632 20.2175 18.705 20.3145C18.6468 20.4115 18.5498 20.5085 18.5498 20.5085C18.2975 20.7608 18.1035 20.7996 17.0556 20.7608C16.357 20.7608 16.0077 20.7608 15.4644 20.8579C15.3674 20.9549 15.1733 20.9161 15.0181 21.3624C14.8628 20.9161 14.7658 20.9161 14.7658 20.9161C14.1643 20.6638 13.912 20.722 13.0194 20.722C12.4178 20.8191 11.7775 20.6638 11.5252 20.4697C11.5252 20.4697 11.467 20.4697 11.3311 20.2757V11.8729H18.7244V16.1228" fill="#3E4347"/>
<path d="M14.4558 14.6675C14.8633 14.9198 15.5036 14.8615 15.8529 14.4734C16.0082 14.3182 16.047 14.0659 16.1052 13.9688C16.1634 13.8718 16.1634 13.8136 16.1634 13.7166C16.2216 13.8136 16.2604 13.8718 16.2604 14.0659C16.3186 14.3181 16.2604 14.5122 16.1634 14.7063C15.8723 15.5019 14.8633 15.7542 14.2617 15.1526C13.9706 14.9003 13.7184 14.3569 13.8542 14.0076C13.9124 13.9106 13.9124 13.8136 13.9512 13.7166C13.9512 13.8136 13.9512 13.9106 14.0482 14.1241C14.1453 14.3764 14.3005 14.5316 14.4558 14.6675Z" fill="white"/>
<path d="M13.5054 17.8306C13.5054 18.0247 13.5054 18.1217 13.5636 18.2381C13.4666 18.1411 13.3696 18.0828 13.2725 17.9858C13.1173 17.8888 12.8651 17.7918 12.8262 17.9276C12.768 18.0247 12.9815 18.1799 13.1173 18.2769C13.2726 18.3739 13.3696 18.3739 13.5248 18.4322C13.4278 18.4904 13.3308 18.5292 13.1755 18.5874C13.0203 18.6845 12.8262 18.8397 12.9233 18.995C13.0203 19.092 13.2143 18.995 13.3696 18.8979C13.4666 18.8397 13.6218 18.7039 13.6606 18.6456C13.6606 18.7427 13.6024 18.8979 13.6024 19.0531C13.6024 19.2472 13.6607 19.4607 13.7965 19.4607C13.9517 19.4607 13.9905 19.2084 13.9905 19.0143C13.9905 18.8203 13.9905 18.7233 13.9323 18.6068C13.9905 18.6651 14.0876 18.7621 14.2234 18.8591C14.3204 18.9561 14.5727 19.0531 14.6697 18.9561C14.7667 18.8591 14.6115 18.7039 14.4174 18.5486C14.2622 18.4516 14.1652 18.3934 14.0682 18.3546C14.1652 18.2963 14.2622 18.2963 14.4757 18.1993C14.7279 18.0441 14.825 17.947 14.7667 17.7918C14.7085 17.6947 14.5727 17.7335 14.3204 17.8888C14.2234 17.9858 14.0681 18.0829 14.0293 18.1411C14.0293 18.044 14.0876 17.85 14.0876 17.7336C14.0876 17.5395 14.0293 17.2872 13.9323 17.2872C13.5442 17.3649 13.5442 17.5783 13.5054 17.8306Z" fill="#FFCE31"/>
<path d="M13.892 18.4321C13.892 18.5292 13.795 18.6262 13.698 18.6262C13.6009 18.6262 13.5039 18.5292 13.5039 18.4321C13.5039 18.3351 13.6009 18.2381 13.698 18.2381C13.795 18.2187 13.892 18.3157 13.892 18.4321Z" fill="white"/>
<path d="M16.146 17.8306C16.146 18.0247 16.1461 18.1217 16.2043 18.2381C16.1072 18.1411 16.0102 18.0828 15.9132 17.9858C15.758 17.8888 15.5057 17.7918 15.4669 17.9276C15.4087 18.0247 15.6221 18.1799 15.7579 18.2769C15.9132 18.3739 16.0102 18.3739 16.1654 18.4322C16.0684 18.4904 15.9714 18.5292 15.8162 18.5874C15.6609 18.6845 15.4669 18.8397 15.5639 18.995C15.6609 19.092 15.855 18.995 16.0102 18.8979C16.1072 18.8397 16.2625 18.7039 16.3013 18.6456C16.3013 18.7427 16.2431 18.8979 16.2431 19.0531C16.2431 19.2472 16.3013 19.4607 16.3983 19.4607C16.5536 19.4607 16.5924 19.2084 16.5924 19.0143C16.5924 18.8203 16.5924 18.7233 16.5341 18.6068C16.5924 18.6651 16.6894 18.7621 16.8252 18.8591C16.9222 18.9561 17.1745 19.0531 17.2715 18.9561C17.3686 18.8591 17.2133 18.7039 17.0193 18.5486C16.864 18.4516 16.767 18.3934 16.67 18.3546C16.767 18.2963 16.864 18.2963 17.0775 18.1993C17.3298 18.0441 17.4268 17.947 17.3686 17.7918C17.3103 17.6947 17.1745 17.7335 16.9222 17.8888C16.8252 17.9858 16.67 18.0829 16.6312 18.1411C16.6312 18.044 16.6894 17.85 16.6894 17.7336C16.6894 17.5395 16.6312 17.2872 16.5341 17.2872C16.146 17.3649 16.146 17.5783 16.146 17.8306Z" fill="#FFCE31"/>
<path d="M16.4936 18.4321C16.4936 18.5292 16.3965 18.6262 16.2995 18.6262C16.2025 18.6262 16.1055 18.5292 16.1055 18.4321C16.1055 18.3351 16.2025 18.2381 16.2995 18.2381C16.3965 18.2187 16.4936 18.3157 16.4936 18.4321Z" fill="white"/>
<path d="M10.6907 17.326C10.4966 16.4334 9.99208 15.7347 9.33232 15.3272H9.87564L10.6324 15.269L9.99209 14.8615C9.79804 14.7645 9.29349 14.3181 9.29349 13.9688C9.29349 13.8718 9.29349 13.7747 9.48754 13.6195L9.93386 13.2702L9.42934 13.212L9.62339 12.7074L9.08004 12.8627L9.02184 12.3581L9.21589 12.2029L8.76957 11.7953L8.36207 11.7371L7.91575 11.9312L7.76052 11.5237L7.50825 11.9312L7.21717 11.5237L7.06193 12.1252L6.71265 11.9312L6.61563 12.4358L6.1111 12.0282L6.1693 12.8239L5.41251 12.6686L5.60656 13.2702L4.96621 13.212L5.47073 14.1629L4.86918 14.5122L5.72301 15.366V15.6183L3.97656 15.2108L5.02441 16.2587L4.73334 17.3066L5.93645 17.4036L5.49013 18.2963L6.9455 17.947L7.2948 18.8979C7.23658 18.8979 7.13956 18.8397 7.10075 18.8397C6.30515 18.8397 5.60656 20.0817 5.60656 20.7803C5.60656 21.4789 6.80967 22.6821 8.01277 22.6821C8.5173 22.6821 8.96361 22.488 9.37112 22.0805C10.5936 20.9744 11.0982 19.0726 10.6907 17.326ZM7.99337 18.1799C8.28445 18.471 8.886 19.189 8.94422 20.2369C8.94422 20.5862 8.75016 21.0326 8.40087 21.4401C8.14861 21.6924 7.95457 21.7894 7.85755 21.7894C6.90671 21.5954 6.40216 21.1878 6.46038 20.5863C6.51859 20.1399 6.80968 19.8294 6.9067 19.8294C7.10075 19.8294 7.10075 19.8876 7.10075 20.0817C7.10075 20.1787 7.15896 20.334 7.2948 20.431L7.39182 20.4892H7.45002C7.64407 20.4892 7.79932 20.334 7.89635 20.1399C7.99337 19.8876 7.99337 19.5383 7.7023 19.2472C7.60527 19.1502 7.50825 19.092 7.41122 19.0532L7.99337 18.1799Z" fill="#3E4347"/>
<path d="M8.4416 12.1252L7.80123 12.3775L7.74301 12.2223L7.58778 12.4746L7.39373 12.2223L7.29671 12.6298L6.94741 12.4358L6.85039 12.9791L6.44289 12.688L6.50111 13.2896L5.80252 13.1926L5.95776 13.7359L5.41442 13.6777L5.82194 14.4346L5.31739 14.7257L6.01599 15.4243L6.07419 16.0841L4.87109 15.793L5.37562 16.3363L5.12334 17.229L6.36526 17.3261L5.95776 18.1217L7.10266 17.8306L7.39373 18.6262L7.93706 17.8694C7.93706 17.8694 9.14017 18.6651 9.17898 20.2757C9.17898 21.1684 8.22814 22.1775 7.78183 22.0805C5.2786 21.576 6.32647 19.6353 6.88921 19.6353C7.49076 19.6353 7.29671 20.1787 7.39373 20.2369C7.58778 20.334 7.84005 19.8294 7.49076 19.4413C6.79218 18.7427 5.78312 20.1399 5.78312 20.9938C5.78312 21.6924 7.6848 23.536 9.08195 22.1387C11.2359 19.9847 10.8284 16.0841 8.63565 15.4437C6.4429 14.8033 6.98623 13.8524 6.98623 13.8524C7.2385 15.4437 9.78052 15.2496 9.78052 15.2496C9.78052 15.2496 8.48041 14.2405 9.33423 13.5031H9.08195L9.2372 13.212L8.8879 13.309L8.8297 12.8627L8.57743 13.115L8.16993 13.0179L8.07291 12.7657L8.8297 12.2611L8.67445 12.164H8.4416" fill="#DFDFDF"/>
<path d="M20.705 22.2164C21.1125 22.6239 21.5588 22.818 22.0634 22.818C23.2665 22.818 24.4696 21.6148 24.4696 20.9162C24.4696 20.1593 23.771 18.9756 22.9754 18.9756C22.9172 18.9756 22.8202 18.9756 22.7813 19.0338L23.1306 18.0829L24.586 18.4322L24.0815 17.4813L25.2846 17.3843L25.0323 16.3364L26.0802 15.2885L24.3337 15.696V15.4437L25.1876 14.5898L24.586 14.2405L25.0905 13.2896L24.4502 13.3479L24.6442 12.7463L23.8874 12.9015L23.9456 12.1059L23.4411 12.5134L23.3441 12.0089L22.9366 12.2029L22.7813 11.6013L22.4903 12.0089L22.238 11.6013L22.0828 12.0089L21.6365 11.8148L21.229 11.873L20.7827 12.2805L20.9767 12.4358L20.9185 12.9403L20.3752 12.7851L20.5692 13.2896L20.0647 13.3479L20.511 13.6972C20.705 13.8524 20.705 13.9495 20.705 14.0465C20.705 14.3958 20.1617 14.8033 20.0065 14.9391L19.4049 15.3467L20.1617 15.4049H20.705C20.0647 15.8124 19.599 16.511 19.3467 17.4037C18.9004 19.0726 19.4049 20.9744 20.705 22.2164ZM22.6067 18.9756C22.5097 19.0338 22.4127 19.0726 22.3156 19.1696C22.0246 19.4607 22.0246 19.8101 22.1216 20.0623C22.2186 20.2564 22.3738 20.4116 22.5679 20.4116H22.6261L22.7231 20.3534C22.8784 20.2952 22.9172 20.1011 22.9172 20.0041C22.9172 19.81 22.9754 19.7518 23.1112 19.7518C23.2083 19.7518 23.5575 20.0429 23.5575 20.5086C23.6158 21.1102 23.1112 21.5178 22.1604 21.7118C22.0634 21.7118 21.8111 21.6148 21.6171 21.3625C21.2678 21.0132 21.0737 20.5087 21.0737 20.1594C21.1319 19.1114 21.7141 18.4128 22.0246 18.1023L22.6067 18.9756Z" fill="#3E4347"/>
<path d="M21.5582 12.1252H21.3059L21.2089 12.2223L21.9657 12.7268L21.8104 12.9791L21.4029 13.0762L21.1507 12.8239L21.0925 13.2702L20.7432 13.1732L20.8984 13.4643H20.6461C21.5 14.1629 20.1028 15.1138 20.1028 15.1138C20.1028 15.1138 22.7031 15.3078 22.8971 13.7165C22.8971 13.7165 23.4405 14.6675 21.2477 15.3078C19.055 16.0065 18.6474 19.8488 20.8014 22.0029C22.2568 23.4584 24.1002 21.5565 24.1002 20.8579C24.1002 20.0041 23.0912 18.6651 22.3926 19.3054C22.0433 19.6548 22.2956 20.1593 22.4896 20.1011C22.5866 20.0429 22.4314 19.4995 22.9942 19.4995C23.5957 19.4995 24.6436 21.4401 22.1015 21.9447C21.6552 22.0417 20.6462 21.052 20.7044 20.1399C20.7626 18.5874 21.9463 17.7336 21.9463 17.7336L22.4896 18.4904L22.7807 17.6947L23.9256 17.9858L23.5181 17.1902L24.76 17.0932L24.5077 16.2005L25.0123 15.6571L23.8092 15.9482L23.8674 15.3078L24.566 14.6092L24.0614 14.3181L24.4689 13.5613L23.9256 13.6195L24.0808 13.0762L23.4793 13.2314L23.5375 12.6298L23.13 12.9209L23.033 12.3775L22.6837 12.5716L22.5866 12.164L22.3926 12.4551L22.2374 12.2029L22.1791 12.3581L21.5582 12.1252Z" fill="#DFDFDF"/>
</svg>
