<svg width="30" height="31" viewBox="0 0 30 31" fill="none" xmlns="http://www.w3.org/2000/svg">
<path d="M30.0013 15.0456C30.0013 8.48639 25.8487 2.93631 20.0078 0.898682V29.1925C25.8487 27.1549 30.0013 21.6048 30.0013 15.0456Z" fill="#ED4C5C"/>
<path d="M0 15.0456C0 21.6048 4.19146 27.1549 9.99353 29.1925V0.898682C4.19146 2.95571 0 8.5058 0 15.0456Z" fill="#75A843"/>
<path d="M20.0051 0.898568C18.4527 0.355202 16.7645 0.0446777 14.9987 0.0446777C13.2328 0.0446777 11.5446 0.335796 9.99219 0.898568V29.1924C11.5446 29.7358 13.2328 30.0463 14.9987 30.0463C16.7645 30.0463 18.4527 29.7552 20.0051 29.1924V0.898568Z" fill="white"/>
<path d="M19.3467 14.9096C19.2885 14.7544 19.2497 14.9679 19.2497 15.0067C19.2497 14.8514 19.1915 14.7544 19.0944 14.5991C18.9392 14.7544 18.9004 14.9484 18.9004 15.1425C18.8422 14.9872 18.8034 14.8514 18.6481 14.7932C18.7451 14.9484 18.7063 15.0455 18.7063 15.2007C18.7063 15.3948 18.8616 15.55 18.8616 15.7441C18.8616 15.9382 18.7645 16.0934 18.6093 16.2486V16.0934C18.1048 16.2874 18.2018 16.5397 18.2018 16.9861C18.2018 17.4324 17.9495 17.3354 17.6585 17.5877C17.7167 17.4906 17.7167 17.3354 17.6585 17.2384C17.6585 17.5294 17.251 17.5294 17.2121 17.7817C17.1539 17.8788 17.2122 18.0728 17.0569 18.131C16.9599 18.1892 16.8046 18.2863 16.8046 18.3833C16.7076 18.3251 16.6106 18.3251 16.4554 18.3251C16.5136 18.2668 16.5524 18.2668 16.6106 18.228C16.1061 17.9757 15.9702 18.5191 15.5045 18.5773C15.3493 18.5773 15 18.3833 15 18.5773C15.4463 18.5773 15.6404 18.9849 16.009 18.9849C16.3001 18.9849 16.5524 18.7326 16.8629 18.7326C16.8047 18.7326 16.6688 18.6356 16.5136 18.6356C16.7658 18.4803 16.9211 18.1892 17.2121 18.1892C17.7167 18.1892 17.969 18.0922 18.1048 17.5877C18.0466 17.5877 18.0078 17.5876 17.9495 17.6458C17.9495 17.4518 18.1436 17.1995 18.357 17.1025C18.8616 17.0055 18.8034 16.5979 19.1138 16.2486C19.0168 16.2486 18.9198 16.3069 18.8228 16.4039C18.8228 16.1128 18.7645 15.8023 19.0168 15.6082C19.5019 15.3559 19.4437 15.2589 19.3467 14.9096Z" fill="#75A843"/>
<path d="M10.6525 14.9096C10.5555 15.3172 10.4973 15.4142 10.9048 15.6664C11.1959 15.8605 11.0988 16.171 11.0988 16.4621C11.0018 16.3651 10.9436 16.3069 10.8078 16.3069C11.0988 16.5979 11.06 17.0637 11.5646 17.1607C11.7198 17.2577 11.9721 17.51 11.9721 17.7041C11.9138 17.7041 11.875 17.6458 11.8168 17.6458C11.9721 18.1504 12.2243 18.2475 12.7095 18.2475C13.0005 18.2475 13.1558 18.5386 13.408 18.6938C13.2528 18.6938 13.117 18.752 13.0587 18.7908C13.3498 18.7908 13.6021 19.0819 13.9125 19.0431C14.2618 19.0431 14.5141 18.6356 14.9216 18.6356C14.9216 18.4415 14.5723 18.6356 14.4171 18.6356C14.0096 18.5385 13.8737 18.034 13.311 18.228C13.3692 18.2862 13.408 18.3251 13.4662 18.3251C13.3692 18.3251 13.214 18.2668 13.1169 18.3833C13.0587 18.2863 12.9617 18.1892 12.8647 18.131C12.7677 18.034 12.7677 17.8788 12.7095 17.7817C12.6124 17.5294 12.2631 17.4906 12.2631 17.2384C12.2049 17.3354 12.2049 17.4906 12.2631 17.5877C11.9721 17.3354 11.7198 17.4324 11.7198 16.9861C11.7198 16.5785 11.8168 16.2874 11.3123 16.0934V16.2486C11.1571 16.0934 11.06 15.9964 11.06 15.7441C11.06 15.55 11.2541 15.3948 11.2153 15.2007C11.2153 15.0455 11.1571 14.9484 11.2735 14.7932C11.1182 14.8514 11.0794 14.9872 11.0212 15.1425C11.0212 14.9484 10.963 14.735 10.8272 14.5991C10.769 14.6962 10.7301 14.8514 10.6719 15.0067C10.6913 14.9096 10.6525 14.7544 10.6525 14.9096Z" fill="#75A843"/>
<path d="M16.3591 17.8981C16.262 17.8981 16.2038 17.8011 16.165 17.7429C16.165 17.6459 16.5725 17.5488 16.6113 17.5488V17.4518C15.971 17.6459 14.0111 17.8011 13.6036 17.1025C13.4095 17.3936 13.0602 17.1995 12.7109 16.9473C12.7692 17.0443 12.9632 17.5489 12.9632 17.4906C13.0602 17.5489 13.72 17.6847 13.72 17.8399L13.5648 17.9952C14.5932 18.3445 15.253 18.4415 16.3591 17.8981Z" fill="#428BC1"/>
<path d="M15.7 17.8981C15.7582 17.8398 15.7582 17.801 15.7582 17.704L15.7 17.5487C15.797 17.4517 15.7 17.1994 15.5447 17.2577C15.4477 17.3159 15.4865 17.3159 15.3895 17.2577C15.3313 17.2577 15.3313 17.1995 15.2925 17.1995H14.3998C14.3028 17.1995 14.3028 17.1412 14.2058 17.1412C14.1087 17.083 14.0505 17.1995 14.0117 17.2383C14.0117 17.3353 14.0699 17.3353 14.0699 17.3935C14.0699 17.4518 14.0117 17.4906 14.0117 17.5876C14.0117 17.6846 14.0699 17.7428 14.1087 17.7817C13.9147 17.9369 14.1087 18.1891 14.3028 18.0339C14.361 18.1309 14.4969 18.1309 14.6521 18.1309H15.1954C15.2925 18.1309 15.4865 18.1891 15.5447 18.0339C15.7 18.3056 15.894 17.9951 15.7 17.8981Z" fill="#ED4C5C"/>
<path d="M17.2888 16.5979C16.8813 16.0933 16.6872 16.8502 16.2409 16.792C16.3379 16.1904 15.4453 16.3844 15.1931 16.5397C15.2513 16.4814 15.2901 16.3844 15.3483 16.2874C15.1543 16.2874 14.902 16.3844 14.7468 16.2292C14.4557 16.0351 14.0482 15.9381 13.7959 16.2874C13.6019 15.9963 13.0391 15.6858 12.748 15.9963C12.748 15.7052 12.457 15.2395 12.1077 15.2977C11.7002 15.3559 11.8554 15.8411 12.0495 16.0545C12.2047 16.2098 12.3988 16.2486 12.5928 16.2486C12.5928 16.3456 12.651 16.4038 12.6898 16.4426C12.9421 16.6367 13.4466 16.6949 13.6989 16.5009C13.6989 17.0054 14.7079 17.0054 14.9408 16.7532C14.8438 17.0054 14.7468 17.51 15.0961 17.51C15.3871 17.51 15.2901 17.2189 15.5424 17.1025C15.7364 17.0054 15.9887 16.9472 16.1827 17.0442C16.5514 17.2577 17.6575 17.1995 17.2888 16.5979Z" fill="#428BC1"/>
<path d="M13.1965 15.3559C13.1382 15.2589 13.0412 15.1619 13.0412 15.1619C12.8472 15.2201 12.8472 15.0648 12.789 14.9096C12.7307 14.6573 12.3815 14.5603 12.3815 14.3662C12.3815 14.1721 12.5755 13.9587 12.4397 13.7646C12.2844 13.5705 12.0322 13.4735 12.0322 13.5705C11.9739 13.6676 12.2262 13.6676 12.2262 13.9199C12.2262 14.2109 11.9351 14.4632 12.2844 14.7155C12.4785 15.0066 12.4785 15.5694 12.8278 15.5694C13.0024 15.55 13.1576 15.4918 13.1965 15.3559Z" fill="#75A843"/>
<path d="M13.9508 15.1038C13.8538 14.9098 13.9508 14.5993 13.7568 14.4634C13.5045 14.2694 13 14.6575 12.9612 14.1723C12.9612 14.0753 13.5045 13.4737 13.6015 13.4155C13.7568 13.2215 13.6986 12.8722 13.5433 12.7751C13.3493 12.6781 13.2911 12.7751 13.1358 12.9692C13.194 13.0274 13.3881 13.1244 13.3881 13.1632C13.2329 13.5126 12.7865 13.5708 12.6895 13.9201C12.5925 14.1723 12.6313 14.5605 12.8836 14.7157C13.0388 14.8128 13.1358 14.8128 13.2911 14.8128C13.7374 14.7545 13.4851 14.871 13.5433 14.968C13.5433 15.0456 13.6986 15.3949 13.9508 15.1038Z" fill="#75A843"/>
<path d="M12.4561 12.6585C12.4561 12.9496 12.7472 12.9108 12.9606 12.8525C12.9606 12.7555 12.9606 12.6585 13.0188 12.5615C12.9218 12.6197 12.7665 12.6197 12.7277 12.5615C12.5725 12.4644 13.077 12.2704 13.0188 12.2704C13.0188 12.2704 12.5143 12.5226 12.7277 12.2121C12.7859 12.1151 12.883 12.0181 12.9218 11.9211C12.98 11.824 12.7666 11.9211 12.7666 11.9211C12.7083 11.9211 12.6695 11.9211 12.6113 11.9793C12.3008 12.1927 12.3978 12.348 12.4561 12.6585Z" fill="#75A843"/>
<path d="M17.7539 12.6584C17.5017 12.3091 16.5508 11.1642 15.2119 11.0671C15.0566 11.0671 14.6686 11.2224 14.5133 11.2612C14.067 11.5523 15.0178 11.8045 15.0566 12.018C15.0566 12.115 15.1149 12.1733 15.1149 12.2703C14.9596 12.018 14.8238 11.8628 14.7656 11.7658C14.5133 11.8628 14.1252 11.7076 14.067 11.4747C14.0088 11.5717 14.0088 11.6299 13.9117 11.7269C13.9117 11.5717 13.8535 11.5717 13.8147 11.4747C13.8147 11.6299 13.8147 11.824 13.6595 11.8822C13.7177 11.7851 13.6595 11.6881 13.6013 11.5911C13.6013 11.7463 13.6013 11.8434 13.5042 11.9404C13.5625 11.8434 13.446 11.7851 13.446 11.6881C13.3878 12.0956 12.8445 12.2315 13.3878 12.3868C13.5819 12.445 13.6789 12.3868 13.8923 12.4838C13.9506 12.542 14.0476 12.639 14.0476 12.5808C14.0476 12.639 13.8535 12.8331 13.9894 12.8719C13.9312 12.9301 13.7953 13.2212 13.7953 13.2212C13.9506 13.2212 13.8535 13.3182 13.7371 13.4153C13.5819 13.6676 13.7371 13.9198 13.7953 14.2109C13.7953 14.1139 13.9506 14.2691 13.9506 14.405C13.9506 14.599 14.1446 14.6961 14.2028 14.8513C13.9506 14.599 13.9117 14.8513 14.2028 15.0066C13.9506 15.0066 13.9118 15.1618 14.1446 15.2588C13.5431 15.2588 14.0476 15.5111 14.1446 15.5499C14.5521 15.647 14.8432 15.3559 14.8432 15.2976C14.8432 15.2976 15.6388 16.0933 15.697 16.0933C15.7552 16.0933 16.1433 15.8992 16.2403 15.9962C16.3374 16.1515 16.4344 15.9962 16.5314 16.0545C16.6284 16.1515 17.036 16.0545 17.133 15.9962C17.1912 15.9962 17.6763 15.8992 17.5793 15.8022C17.327 15.6081 17.0359 15.3947 16.7837 15.2006C16.5314 15.0066 16.2792 14.8513 16.0851 14.6572C15.9881 14.5602 15.9881 14.3661 15.9299 14.2109C16.3762 14.6572 16.8225 14.9095 16.7837 14.0556C17.0748 14.3079 17.6763 15.7051 17.7345 15.7051C17.8898 15.7051 17.7345 14.2109 17.7345 14.0556C17.9286 14.2497 17.9286 15.8992 17.9868 15.8992C18.239 15.9574 18.5883 13.7452 17.7539 12.6584Z" fill="#89664C"/>
<path d="M14.1459 15.2008C14.0877 15.2008 13.8549 14.8514 13.8549 14.7932C14.0101 15.3948 13.4086 15.0455 13.5638 14.7932C13.3697 14.735 12.8652 15.0455 13.0593 15.3366C12.9622 15.5307 13.7578 15.3948 13.816 15.2784C13.9907 15.7441 14.4952 15.259 14.1459 15.2008Z" fill="#FFCE31"/>
<path d="M16.4924 16.6949C16.7447 16.3456 15.6969 16.2486 15.7939 15.8411C15.6386 15.9381 15.4446 16.2874 15.2505 16.1903C15.1535 16.1321 14.746 16.3844 14.9595 16.5397C14.9595 16.3456 15.0565 16.4814 15.2117 16.4426C15.1535 16.5979 15.0177 16.7337 15.2699 16.8502C15.1729 16.5591 15.561 16.6949 15.5222 16.5591C15.4252 16.462 15.8715 16.462 15.9297 16.462C16.0849 16.462 16.5701 16.6173 16.376 16.7531C16.3566 16.7531 16.4536 16.7531 16.4924 16.6949Z" fill="#FFCE31"/>
<path d="M13.1546 12.4064C13.0964 12.5034 12.9023 12.6587 12.9023 12.8139C12.9023 12.911 13.1546 13.1632 13.2516 13.008C12.9606 12.8139 13.3099 12.6587 13.4457 12.6587C13.5039 12.6587 13.5039 12.7557 13.5039 12.7557C13.5621 12.8139 13.9502 12.6587 13.9114 12.5616C13.9502 12.3482 13.2905 12.3482 13.1546 12.4064Z" fill="#FFCE31"/>
</svg>
