<svg width="30" height="31" viewBox="0 0 30 31" fill="none" xmlns="http://www.w3.org/2000/svg">
<path d="M22.5 22.6413C26.6421 18.4989 26.6421 11.7828 22.5 7.64047C18.3579 3.49811 11.6421 3.49811 7.5 7.64047C3.35787 11.7828 3.35787 18.4989 7.5 22.6413C11.6421 26.7836 18.3579 26.7836 22.5 22.6413Z" fill="#428BC1"/>
<path d="M15.2803 11.4642L16.131 12.0955L15.8154 11.0663L16.6662 10.3939H15.6096L15.294 9.36475L14.9784 10.3939H13.9219L14.7726 11.0663L14.457 12.0955L15.2803 11.4642Z" fill="white"/>
<path d="M15.2803 18.8195L16.131 18.1882L15.8154 19.2174L16.6662 19.8898H15.6096L15.294 20.919L14.9784 19.8898H13.9219L14.7726 19.2174L14.457 18.1882L15.2803 18.8195Z" fill="white"/>
<path d="M11.4404 14.401L12.2912 13.7698L11.9756 14.8264L12.8263 15.4576H11.7697L11.4542 16.5142L11.1386 15.4576H10.082L10.9328 14.8264L10.6172 13.7698L11.4404 14.401Z" fill="white"/>
<path d="M18.5734 14.401L17.7227 13.7698L18.0383 14.8264L17.1875 15.4576H18.2441L18.5596 16.5142L18.8752 15.4576H19.9318L19.0811 14.8264L19.3967 13.7698L18.5734 14.401Z" fill="white"/>
</svg>
