<svg width="30" height="31" viewBox="0 0 30 31" fill="none" xmlns="http://www.w3.org/2000/svg">
<path d="M30.0013 15.2578C30.0013 8.69854 25.8487 3.14846 20.0078 1.11084V29.4047C25.8487 27.367 30.0013 21.817 30.0013 15.2578Z" fill="#ED4C5C"/>
<path d="M0 15.2578C0 21.817 4.19146 27.367 9.99352 29.4047V1.11084C4.19146 3.16787 0 8.71795 0 15.2578Z" fill="#2A5F9E"/>
<path d="M19.9856 1.11073C18.4332 0.567359 16.745 0.256836 14.9791 0.256836C13.2327 0.256836 11.525 0.547953 9.97266 1.11073V29.4046C11.525 29.9479 13.2133 30.2584 14.9791 30.2584C16.7256 30.2584 18.4332 29.9673 19.9856 29.4046V1.11073Z" fill="#FFE62E"/>
<path d="M19.5994 14.7143H19.6576V14.2098L19.2501 14.5009L19.3083 14.5591L19.2501 14.6173V14.6755H18.9978C18.9396 14.7338 18.9396 14.7726 18.9396 14.8696V15.0637C18.9396 15.1607 18.8814 15.2189 18.8814 15.2189L18.8232 15.2771V11.8229C18.8232 11.5318 17.8723 10.6197 17.8723 10.6197L16.9215 11.3765L16.9797 11.9781C16.7856 11.9781 16.0289 12.4244 15.9318 12.4244C15.1362 11.9781 15.6796 10.969 15.6796 10.9302L15.7766 11.0272C15.7766 11.0272 15.8736 10.6197 15.6796 10.3286L16.0871 10.2316C16.0871 10.2316 15.1363 9.53297 14.2436 9.88228C14.2436 9.78525 14.2436 9.72703 14.1854 9.68822L14.0884 9.59119L14.0302 9.74645C14.0302 9.80466 13.9719 9.80463 13.9331 9.80463H13.8361V9.7076C13.8361 9.64938 13.8361 9.64938 13.8943 9.61057L14.0496 9.55239L13.9914 9.49416C13.8943 9.39713 13.6421 9.39713 13.545 9.49416L13.448 9.59119L13.6033 9.64942C13.6615 9.64942 13.6615 9.70763 13.6615 9.74645V9.80463H13.5645C13.5062 9.80463 13.5062 9.80466 13.4674 9.74645L13.4092 9.64942L13.3122 9.74645C13.254 9.80466 13.254 9.90169 13.254 9.94051C13.254 10.0375 13.254 10.0958 13.3122 10.1346L13.4092 10.2316L13.4674 10.1346C13.4674 10.0763 13.5256 10.0763 13.5645 10.0763H13.6615V10.7749C13.6615 10.8331 13.6615 10.8332 13.6033 10.8332L13.351 10.9302L13.6421 10.9884C13.7003 10.9884 13.7391 11.0854 13.7391 11.1437L13.7973 11.3377L13.8555 11.1437C13.8555 11.0854 13.9137 10.9884 13.9526 10.9884L14.2436 10.9302C14.2436 11.0272 14.3989 11.9781 13.8361 12.3856C13.7391 12.3274 12.9823 11.9393 12.7883 11.9393L12.8465 11.3377L11.8956 10.5809C11.8956 10.5809 10.9448 11.4736 10.9448 11.7841V14.1904L10.8866 14.1322L10.8283 14.2292C10.8283 14.2292 10.7701 14.2874 10.7701 14.3262C10.6731 14.2292 10.5761 14.171 10.5179 14.171L10.4597 14.1128V14.2098C10.4597 14.2098 10.4015 14.4621 10.4597 14.6173H10.2656V14.7143C10.2656 14.7143 10.3238 14.9666 10.5179 15.1219C10.6149 15.2189 10.7702 15.2189 10.809 15.2189L10.906 15.413V15.4712C10.809 15.413 10.7119 15.413 10.6537 15.413H10.4597L10.5179 15.51C10.5179 15.51 10.5761 15.5682 10.5761 15.607H10.4791L10.5373 15.6653C10.5373 15.6653 10.6925 15.9175 10.8866 15.9563H10.9836C10.9836 17.1595 10.8283 19.3524 10.8283 19.3524L12.2255 18.1104C12.2255 18.1104 11.9732 18.4597 11.9344 18.615C11.8762 18.809 12.0315 19.2554 12.5748 19.0613L12.5166 19.3135L12.9629 19.5658C12.9047 19.624 12.6136 19.7211 12.6136 19.7211L14.8064 21.1765L16.9991 19.7211C16.9991 19.7211 15.796 19.2747 15.4079 17.664L15.7572 17.5088C15.9125 17.6059 16.9021 18.906 16.9021 18.906L16.8439 18.9643H16.7856C16.7274 18.9643 16.7275 19.0224 16.7275 19.4106V19.5076L16.8245 19.4494C17.1738 19.1971 17.1737 19.1971 17.1737 19.1583C17.1737 19.1583 17.1738 19.1001 17.1156 19.1001H17.1737C17.232 19.1001 17.4648 19.0031 17.523 18.906C17.7753 18.5567 17.6201 18.2656 17.6201 18.2656C17.7171 18.4209 18.8232 19.3718 18.8232 19.3718C18.8232 19.3718 18.668 17.2177 18.668 16.0728L18.9202 15.6264H18.9784L19.0366 15.5682V15.51C19.0366 15.51 19.0949 15.51 19.0949 15.4518C19.1531 15.3936 19.1531 15.3936 19.1531 15.3547C19.1531 15.2965 19.1531 15.2965 19.2501 15.1995C19.3083 15.1413 19.3471 15.1025 19.4053 15.1025C19.5023 15.0442 19.5606 15.0054 19.5606 14.9472C19.5606 14.9472 19.5606 14.889 19.4635 14.7531L19.5218 14.695C19.5994 14.7532 19.5994 14.7143 19.5994 14.7143ZM14.0496 10.0569C13.9914 10.0569 13.9526 10.0569 13.9526 10.1151V10.0569H14.0496C14.0884 10.0569 14.0496 10.0181 14.0496 10.0569ZM17.1932 18.1104C17.135 18.0133 16.7856 17.3148 16.6886 17.1595C16.7468 17.1013 16.7856 17.1013 16.8827 17.0625C16.9797 17.0043 17.0767 16.9072 17.1349 16.8684C17.232 17.2177 17.3872 17.7223 17.5425 18.0133C17.5425 18.0133 17.1932 18.1686 17.1932 18.1104ZM12.536 18.1686L12.4778 18.0133C12.536 17.9551 12.6718 17.8581 12.73 17.7611C12.8271 17.567 12.7883 17.3536 12.7883 17.3148V17.2177L12.633 17.2759C12.633 17.2177 12.6912 16.9266 12.73 16.7714C12.7883 16.8296 12.8853 16.9266 12.9823 16.9654C13.0405 17.0237 13.0793 17.0237 13.1764 17.0625C13.0987 17.6641 12.536 18.1686 12.536 18.1686ZM13.9914 10.8526C13.9331 10.8526 13.9331 10.7943 13.9331 10.7943V10.6003C14.0884 10.6585 14.1854 10.7555 14.2242 10.9496L13.9914 10.8526ZM13.1957 19.0613L12.9047 18.8672C12.9047 18.809 13.8555 17.7223 13.9526 17.567L14.3019 17.7223C14.1466 18.0716 13.6032 19.1777 13.0987 19.5658L13.1957 19.0613Z" fill="#997361"/>
<path d="M12.7494 18.8672L13.0986 19.0612L13.0016 19.5075L12.6523 19.2553L12.7494 18.8672Z" fill="#FFD200"/>
<path d="M11.0029 14.8694L10.8477 14.9276L12.3418 18.2848H12.4971L11.0029 14.8694ZM12.7881 18.8088L12.6911 18.9058L12.7493 19.0611L12.9045 19.0029L12.7881 18.8088Z" fill="#FFD200"/>
<path d="M11.4492 17.5088L11.6433 17.7999L11.4492 17.8581L11.9926 18.1103L12.2836 18.0133L12.2254 17.8193L11.4492 17.5088Z" fill="#699635"/>
<path d="M12.4398 17.0042L12.1875 17.3535L12.3815 17.9939L12.6726 17.7416L12.7308 17.334L12.5368 17.4311L12.4398 17.0042Z" fill="#699635"/>
<path d="M11.8388 16.9654L11.4313 17.0236L11.082 16.8684L11.3343 16.7713L11.1403 16.519H11.4313L11.8388 16.9654Z" fill="#699635"/>
<path d="M11.9353 15.9563L11.9936 16.2474L12.1488 16.1504V16.6937L11.8577 16.9848L11.6055 16.5385L11.6637 16.2474L11.9353 15.9563Z" fill="#699635"/>
<path d="M10.5938 15.4128L11.0013 15.4711L11.2923 15.8786H10.8848L10.5938 15.5875L10.7878 15.5292L10.5938 15.4128Z" fill="#699635"/>
<path d="M11.2921 15.0054L11.3891 15.2577L11.5443 15.1024L11.6414 15.607L11.4473 15.9563L11.1562 15.2577L11.2921 15.0054Z" fill="#699635"/>
<path d="M10.5382 14.2097L10.5964 14.559L10.6934 14.7142L10.4023 14.6172L10.5964 14.9665L10.9457 15.0636L11.1009 14.656L10.9069 14.2097L10.8487 14.462L10.5382 14.2097Z" fill="#699635"/>
<path d="M19.348 14.5202L19.4062 14.5785L19.348 14.6367V14.7337H19.0569V15.083L18.9017 15.2771L18.9599 15.3741L18.9017 15.4323V15.5876L17.8538 17.5864L17.6016 17.8387L17.6597 18.091L17.5045 18.1491L17.5627 18.3432L17.7568 18.285L17.6986 18.1298L17.8926 18.0327L17.9508 17.6834L18.9987 15.6846L19.0957 15.5876V15.5293L19.1928 15.4712L19.2898 15.2189L19.5421 15.0248L19.445 14.7725L19.5421 14.7143V14.6173H19.6002V14.3262L19.348 14.5202ZM17.097 19.0224V19.0806H17V19.4882L17.2911 19.2359L17.2328 19.1389L17.2911 19.0806L17.2328 18.9836H17.1746L17.097 19.0224Z" fill="#FFD200"/>
<path d="M17.1334 12.9095C17.1334 12.7542 17.3274 12.6184 17.3274 12.6184H12.418C12.418 12.6184 12.612 12.7737 12.612 12.9095V16.5578C12.612 16.6549 12.6702 16.7131 12.709 16.7519C12.7673 16.8101 12.8643 16.9071 12.9613 16.9459C13.2524 17.14 13.8152 17.3923 14.2033 17.5475C14.5525 17.7028 14.7077 17.7416 14.8436 17.9939C15.0376 17.7998 15.1347 17.7028 15.484 17.5475C15.8915 17.3535 16.4348 17.14 16.7259 16.9459C16.8229 16.8877 16.9199 16.7907 16.9781 16.7519C17.0363 16.6937 17.0751 16.6549 17.0751 16.5578V12.9095" fill="#F5D402"/>
<path d="M12.7887 14.9664V12.9094C12.7887 12.8124 12.7305 12.7153 12.7305 12.7153H17.1354C17.1354 12.7153 17.0771 12.7735 17.0771 12.9094V14.9664L14.9232 15.6068L12.7887 14.9664Z" fill="#ED4C5C"/>
<path d="M17.0391 14.9666H12.8477V16.5578C12.8477 16.6549 12.9446 16.8101 13.391 17.0624C14.1866 17.4699 14.7881 17.6057 14.9433 17.858C15.1374 17.664 15.7389 17.4505 16.4957 17.0624C17.0003 16.8101 17.0391 16.6549 17.0391 16.5578V14.9666Z" fill="#428BC1"/>
<path d="M13.4465 15.9175L13.0391 16.4221L13.3883 16.9654L14.0287 16.8102L14.0869 16.1698L13.4465 15.9175Z" fill="#FFE62E"/>
<path d="M15.7383 16.5191C15.7383 16.7132 15.9323 16.9266 16.1458 16.9655C16.0876 16.9072 16.0876 16.8102 16.0876 16.7714C16.0294 16.5191 16.2428 16.325 16.5339 16.325H16.6891C16.5921 16.1698 16.3981 16.0728 16.1846 16.0728C15.9517 16.0534 15.7383 16.2668 15.7383 16.5191Z" fill="#FFE62E"/>
<path d="M13.7984 13.8604L14.497 14.6172L14.691 14.5201L14.9432 14.6172L15.1955 14.5201L15.3896 14.6172L16.0881 13.8604L15.8359 13.0647L16.3792 13.9186L15.6224 14.8695L15.7777 15.277L15.3702 15.4322L15.312 16.8877L15.506 17.0817L14.9044 17.431L14.3029 17.0817L14.497 16.8877L14.4387 15.4322L14.0312 15.277L14.1865 14.8695L13.4297 13.9186L13.973 13.0647L13.7984 13.8604Z" fill="#FFE62E"/>
<path d="M14.9032 13.1035L15.0002 13.3558L15.2525 13.2588L15.1555 13.5111L15.4077 13.6081L15.1555 13.7051L15.2525 13.9574L15.0002 13.7633L14.9032 14.0156L14.845 13.7633L14.5927 13.8604L14.6898 13.6081L14.4375 13.5111L14.6898 13.414L14.5927 13.1617L14.845 13.2588L14.9032 13.1035Z" fill="#FFE62E"/>
<path d="M13.8343 14.9666L13.4268 15.2577L12.9805 14.9666L13.4268 14.7144L13.8343 14.9666Z" fill="#FFE62E"/>
<path d="M16.7837 14.9666L16.3763 15.2577L15.9688 14.9666L16.3763 14.7144L16.7837 14.9666Z" fill="#FFE62E"/>
</svg>
