<svg width="30" height="31" viewBox="0 0 30 31" fill="none" xmlns="http://www.w3.org/2000/svg">
<path d="M0 15.3583C0 21.9175 4.19146 27.4676 9.99352 29.5052V1.21143C4.21086 3.26846 0 8.81854 0 15.3583Z" fill="#C94747"/>
<path d="M30.0013 15.3583C30.0013 8.79913 25.8487 3.24905 20.0078 1.21143V29.5052C25.8681 27.4676 30.0013 21.9175 30.0013 15.3583Z" fill="#C94747"/>
<path d="M10.0117 29.5051C11.5641 30.0485 13.2523 30.359 15.0182 30.359C16.7646 30.359 18.4722 30.0679 20.0246 29.5051V1.21131C18.4722 0.667945 16.784 0.357422 15.0182 0.357422C13.2718 0.357422 11.5641 0.648539 10.0117 1.21131V29.5051Z" fill="#2872A0"/>
<path d="M6.73598 12.5943C7.418 11.9123 7.418 10.8065 6.73598 10.1244C6.05395 9.44234 4.94818 9.44234 4.26616 10.1244C3.58414 10.8065 3.58414 11.9123 4.26616 12.5943C4.94818 13.2764 6.05395 13.2764 6.73598 12.5943Z" fill="#F9CF02"/>
<path d="M5.51043 8.37207C6.61651 8.37207 7.5091 9.26475 7.5091 10.3709C7.5091 11.477 6.61651 12.3697 5.51043 12.3697C4.40435 12.3697 3.51172 11.477 3.51172 10.3709C3.51172 9.26475 4.40435 8.37207 5.51043 8.37207Z" fill="#C94747"/>
<path d="M5.51147 9.61377C6.21005 9.61377 6.75337 10.1766 6.75337 10.8558C6.75337 11.535 6.19064 12.0977 5.51147 12.0977C4.8129 12.0977 4.26953 11.535 4.26953 10.8558C4.26953 10.1766 4.8129 9.61377 5.51147 9.61377Z" fill="#F9CF02"/>
<path d="M4.75274 8.37192C4.75274 8.87647 5.00503 9.12873 5.50956 9.12873C6.01409 9.12873 6.51861 8.87647 6.51861 8.37192C6.51861 8.11964 6.26633 8.11962 6.26633 7.86734V7.36282V8.11963C6.26633 8.11963 6.26632 8.37192 6.01406 8.37192C5.7618 8.37192 5.76179 8.37191 5.76179 8.11963C5.76179 7.86735 6.01406 7.86738 6.01406 7.6151C6.01406 7.36283 6.01405 7.36281 5.76179 7.11053C5.76179 6.85825 5.50956 6.85823 5.50956 6.60596C5.2573 6.60596 5.50956 7.11053 5.50956 7.11053C5.50956 7.11053 5.25729 7.36283 5.25729 7.6151V8.11963C5.25729 8.11963 5.25728 8.37192 5.00502 8.37192C4.75275 8.37192 4.75274 8.37191 4.75274 8.11963V7.86734V8.37192Z" fill="#F9CF02"/>
<path d="M2 13.3594V21.1024H3.49417V13.3594H2ZM7.51097 13.3594V21.1024H9.25741V13.3594H7.51097ZM4.01809 14.6208V15.3776H7.25875V14.6208H4.01809ZM4.01809 19.1229V19.8798H7.25875V19.1229H4.01809ZM4.01809 13.3594H7.25875L5.51231 14.3685L4.01809 13.3594ZM4.01809 20.1127H7.25875L5.51231 21.1218L4.01809 20.1127Z" fill="#F9CF02"/>
<path d="M5.60998 15.5718C6.54142 15.5718 7.31758 16.3286 7.31758 17.2795C7.31758 18.2304 6.56082 18.9872 5.60998 18.9872C4.67855 18.9872 3.90234 18.2304 3.90234 17.2795C3.90234 16.3286 4.67855 15.5718 5.60998 15.5718Z" fill="#F9CF02"/>
<path d="M5.60935 19.1231C4.6003 19.1231 3.80469 18.3275 3.80469 17.3184C3.80469 16.3093 4.6003 15.5137 5.60935 15.5137C6.61841 15.5137 7.41397 16.3093 7.41397 17.3184C7.41397 18.3081 6.61841 19.1231 5.60935 19.1231ZM5.60935 15.6689C4.71673 15.6689 3.95994 16.4258 3.95994 17.3184C3.95994 18.2111 4.71673 18.9679 5.60935 18.9679C6.50198 18.9679 7.25877 18.2111 7.25877 17.3184C7.25877 16.4064 6.50198 15.6689 5.60935 15.6689Z" fill="#C94747"/>
<path d="M5.60712 19.1231C5.06378 19.1231 4.65625 18.6768 4.65625 18.1723C4.65625 17.6677 5.10259 17.2214 5.60712 17.2214C6.01462 17.2214 6.36389 16.8721 6.36389 16.4645C6.36389 16.057 6.01462 15.7077 5.60712 15.7077V15.5137C6.15046 15.5137 6.55794 15.96 6.55794 16.4645C6.55794 17.0079 6.11165 17.4155 5.60712 17.4155C5.19962 17.4155 4.8503 17.7648 4.8503 18.1723C4.8503 18.5798 5.19962 18.9291 5.60712 18.9291V19.1231Z" fill="#C94747"/>
<path d="M5.60711 16.0566C5.80116 16.0566 5.95636 16.2119 5.95636 16.4059C5.95636 16.6 5.80116 16.7552 5.60711 16.7552C5.41306 16.7552 5.25781 16.6 5.25781 16.4059C5.25781 16.2119 5.41306 16.0566 5.60711 16.0566Z" fill="#C94747"/>
<path d="M5.60748 17.8228C5.78212 17.8228 5.89855 17.9586 5.89855 18.1138C5.89855 18.2885 5.76272 18.4049 5.60748 18.4049C5.43284 18.4049 5.31641 18.2691 5.31641 18.1138C5.31641 17.9392 5.43284 17.8228 5.60748 17.8228Z" fill="#C94747"/>
</svg>
