<svg width="30" height="31" viewBox="0 0 30 31" fill="none" xmlns="http://www.w3.org/2000/svg">
<path d="M5.00781 5.43555H15.5059V15.9342H5.00781V5.43555Z" fill="#2A5F9E"/>
<path d="M8.46064 3.47559V6.42533H4.8125L12.0117 15.4297H15.0195V11.6843L8.46064 3.47559Z" fill="white"/>
<path d="M15 0.428711V15.4295H0C0 23.7353 6.69466 30.4304 15 30.4304C23.3053 30.4304 30 23.7353 30 15.4295C30 7.14319 23.3053 0.428711 15 0.428711Z" fill="#2A5F9E"/>
<path d="M4.50194 8.88974H1.49417C0.543329 10.8886 0 13.0814 0 15.449H5.99611V6.40576H4.50194V8.88974Z" fill="white"/>
<path d="M15.0006 12.9841L8.49995 4.93066H5.49219L13.9916 15.4293H15.0006V12.9841Z" fill="#ED4C5C"/>
<path d="M8.45859 1.94249V4.95042H4.5V6.44467H14.998V0.44824C12.65 0.428834 10.4573 0.991598 8.45859 1.94249Z" fill="white"/>
<path d="M15.0019 1.94238H8.44307C5.4353 3.39783 2.95146 5.90121 1.49609 8.88973V15.449H4.50386V4.95031H15.0019V1.94238Z" fill="#ED4C5C"/>
<path d="M17.3086 10.3257H27.3021V17.4283C27.3992 20.281 25.5945 22.0857 22.3539 22.8813C20.0059 22.2798 17.3474 21.1348 17.3474 17.5253L17.3086 10.3257Z" fill="white"/>
<path d="M17.5039 10.5391H27.0511V17.3312C27.1481 20.0868 25.4599 21.7751 22.2969 22.532C20.0459 21.9886 17.5039 20.8242 17.5039 17.4282V10.5391Z" fill="#42ADE2"/>
<path d="M17.6016 18.1851C18.0479 21.0765 20.26 21.9887 22.2975 22.532C24.6455 21.9304 26.6442 20.7855 26.9935 18.1851H17.6016Z" fill="#C94747"/>
<path d="M21.9063 11.7811V10.9272H22.6049V11.7811H24.4484V12.4409H22.6049V20.3003H21.9646V12.4409H20.1211V11.7423L21.9063 11.7811Z" fill="#231F20"/>
<path d="M21.3457 16.3804C20.8994 16.5744 20.9381 17.3895 20.3366 17.6224C19.7932 17.8747 19.541 18.8643 20.2784 18.5733C20.3366 18.7285 22.0248 21.0766 22.2189 20.9214C23.4996 20.2422 22.7622 16.4774 21.3457 16.3804ZM22.1024 20.2422C21.7532 19.8347 20.1619 18.1463 20.1037 18.1851C20.1619 18.2434 21.4038 17.0402 21.5009 16.7297C22.3547 17.2342 22.801 19.4854 22.1024 20.2422Z" fill="#FF9A08"/>
<path d="M24.2932 18.0298C24.3514 17.4283 24.235 16.8849 24.0991 16.6326C23.9439 16.3804 23.9439 16.0311 23.6916 15.6235C23.8468 15.6817 23.9439 15.3325 23.9827 14.8667C23.9827 14.6144 23.9827 14.4592 24.0409 14.0128C24.0991 13.6053 23.9439 13.4694 23.8468 13.3724C23.7498 13.2754 23.6916 13.2754 23.6528 13.2754C23.4976 13.2172 23.1483 13.2754 23.0512 13.2754C22.9542 13.2754 22.896 13.3336 22.799 13.2754C22.702 13.2172 22.6438 13.3336 22.5467 13.4306V18.3792C22.6049 18.8255 22.4497 19.7764 22.1974 20.4362C22.1004 20.6885 22.1392 20.8438 22.2945 20.8826C22.896 21.2901 23.3035 20.8826 23.6916 20.5332C23.8468 20.4362 23.8857 20.4362 24.0991 20.5915C24.2544 20.7855 24.4484 20.8438 24.5454 20.7855C24.0991 19.9317 24.2544 18.6314 24.2932 18.0298Z" fill="#699635"/>
<path d="M22.8009 12.9843C23.2472 13.2366 22.8009 13.3336 23.0531 13.7412C23.2472 13.4501 23.8487 13.4889 23.5577 13.1008C23.3636 12.8097 24.0622 11.9946 23.2666 11.9946C22.9949 12.0334 22.5098 12.8291 22.8009 12.9843Z" fill="white"/>
<path d="M21.308 14.1291C21.7543 14.0708 22.0648 14.2843 21.9096 13.6245C21.0557 13.6245 22.2589 12.169 22.1618 11.9168C21.8514 11.3928 20.6482 14.2261 21.308 14.1291Z" fill="white"/>
<path d="M23.9447 14.1875C23.9447 14.0904 22.5475 15.2354 22.2953 15.3906C22.4505 15.2936 20.5877 16.5938 21.2474 16.6908C21.4997 16.749 21.6937 16.3415 21.8489 16.1474C22.4505 15.1383 23.9447 16.031 23.9447 14.1875Z" fill="white"/>
<path d="M24.2553 20.8436C24.197 20.5913 24.003 20.4361 23.8089 20.5914C23.8672 20.8437 23.5567 21.4452 23.7119 21.5423C23.906 21.7363 24.2941 21.0377 24.2553 20.8436Z" fill="white"/>
<path d="M22.1602 21.0766C22.2572 21.1737 22.4124 21.1737 22.5676 21.0184C22.5094 21.0184 22.4124 20.9602 22.3736 20.9214C22.296 20.9796 22.199 21.0766 22.1602 21.0766Z" fill="white"/>
<path d="M22.957 12.1888C23.0541 11.4902 24.2572 12.4799 24.0632 12.9456C23.7139 13.586 23.1123 11.9365 22.957 12.1888Z" fill="#870F00"/>
</svg>
