<svg width="30" height="31" viewBox="0 0 30 31" fill="none" xmlns="http://www.w3.org/2000/svg">
<path d="M22.5 22.9164C26.6421 18.7741 26.6421 12.058 22.5 7.91561C18.3579 3.77326 11.6421 3.77326 7.5 7.91561C3.35787 12.058 3.35787 18.7741 7.5 22.9164C11.6421 27.0588 18.3579 27.0588 22.5 22.9164Z" fill="#FFCE31"/>
<path d="M21.7548 22.1693C25.4843 18.4396 25.4843 12.3925 21.7548 8.66276C18.0253 4.93303 11.9785 4.93303 8.24899 8.66276C4.51946 12.3925 4.51948 18.4396 8.24901 22.1693C11.9785 25.899 18.0253 25.899 21.7548 22.1693Z" fill="#ED4C5C"/>
<path d="M19.823 15.164L20.7012 14.7387L21.0854 14.176L21.0442 14.0388L20.5503 14.3956L20.1249 14.574H20.0563L20.66 14.2172L21.0442 13.4762L20.9756 13.339L20.5503 13.7918L20.0975 14.1074H20.0563L20.7972 13.2292L20.9345 12.5156L20.8658 12.4745L20.3719 13.2841L20.1661 13.4899L20.1249 13.4487L20.5503 12.7352L20.6875 11.9942L20.5777 11.5414L20.5091 11.5002L20.2209 12.351L19.9328 12.845L19.8916 12.8038L20.2072 11.5276L20.0975 10.5671L19.9603 10.4299L19.8505 11.3081L19.6035 12.0903L19.5623 12.0491L19.6721 11.4865L19.6309 10.4299L19.3428 9.89471L19.137 11.5276L19.0272 11.5688L18.7116 12.447L18.396 12.8999L18.3274 12.7626H18.2588L17.8334 13.435L17.408 14.1486L17.6962 14.6014L17.8746 14.8896L17.5864 15.068L17.2297 15.1091L17.1199 15.2875L16.9827 15.3973H16.9415L17.1473 14.5191L16.475 13.7369L16.3652 13.7781V13.7095L16.2555 13.3527H16.4338V13.2155L16.3652 12.9273L16.4064 12.8175L16.5436 12.9273L16.6122 12.7901L16.7494 12.5019L16.9552 12.5705L17.3806 12.4333L17.5178 12.2961L17.9432 12.4059L18.396 12.2L18.3548 11.8158H18.2862L18.1765 12.104L17.8609 12.1451L17.4355 12.104L17.2571 12.1451L17.5453 11.9667L17.8334 12.0354H17.9432L17.902 11.6786L17.5864 11.5414L17.408 11.5825L17.1611 11.3355L16.5299 11.4728H16.2417L15.9947 11.3355L16.0359 11.1571L16.1045 11.116L16.1457 11.0474L16.0771 10.9376L16.2143 10.7592L16.3515 10.6906H16.4613L16.5024 10.6494L16.5711 10.5808V10.375L16.6122 10.2652V10.224L16.6534 10.1142L16.5848 10.0045H16.5436L16.5024 9.89471L16.4338 9.8261V9.75749L16.3652 9.64771H16.2966L16.1182 9.53792L16.0496 9.49675L16.0085 9.42814L15.9399 9.387H15.8987L15.6517 9.27721L15.5831 9.23604L15.3361 9.12625L15.2675 9.08508L15.3361 8.90672L15.1989 8.70089L15.0891 8.65971V8.5911H15.2263V8.38527H15.0891L15.1303 8.24805H14.8833L14.9245 8.38527H14.7873V8.5911H14.9245V8.65971L14.8147 8.70089L14.7049 8.90672L14.7735 9.08508L14.7049 9.12625L14.4579 9.23604L14.3893 9.27721L14.1012 9.34582H14.06L13.9914 9.387L13.9502 9.45561L13.8816 9.49675L13.7032 9.60653H13.6346L13.566 9.71632V9.78493L13.4974 9.85354L13.4563 9.96332H13.4151L13.3465 10.0731L13.3876 10.1829V10.224L13.4288 10.3338V10.5396L13.4974 10.6083L13.5386 10.6494H13.6484L13.7856 10.718L13.9228 10.8964L13.8542 11.0062L13.8954 11.0748L13.964 11.116L14.0051 11.2944L13.7582 11.4316H13.47L12.8388 11.2532L12.5918 11.5002L12.4134 11.459L12.0978 11.5963L12.0567 11.953H12.1664L12.4546 11.8844L12.7427 12.0628L12.5644 12.0217L12.139 12.0628L11.8234 12.0217L11.7136 11.7335H11.645L11.6039 12.1177L12.0567 12.3235L12.482 12.2138L12.6193 12.351L13.0446 12.4882L13.2504 12.4196L13.3876 12.7078L13.4563 12.845L13.5935 12.7352L13.6346 12.845L13.5935 13.1606V13.2978H13.7719L13.6621 13.6546L13.6209 13.6958L13.5112 13.6546L12.7976 14.4642L13.0035 15.3424H12.9623L12.8251 15.2326L12.7153 15.0542L12.3585 15.0131L12.0704 14.8759L12.2488 14.5877L12.5369 14.1349L12.1116 13.4213L11.6862 12.7489H11.6176L11.549 12.8862L11.2334 12.4333L10.9178 11.5551L10.808 11.5139L10.6022 9.88098L10.314 10.4162L10.2454 11.4042L10.3552 11.9667L10.314 12.0079L10.0671 11.2258L9.99845 10.4162L9.86123 10.622L9.75146 11.5825L10.0671 12.8587L10.0259 12.8999L9.71032 12.3373L9.42215 11.4865L9.35355 11.5276L9.24377 11.9805L9.38098 12.7215L9.80636 13.435L9.76519 13.4762L9.5868 13.188L9.09285 12.3784L9.02424 12.4196L9.16146 13.1331L9.90241 14.0114H9.86123L9.40842 13.6958L8.98307 13.2292L8.91447 13.3664L9.29867 14.1074L9.90241 14.4642H9.8338L9.40842 14.2858L8.91447 13.929L8.87329 14.1349L9.2575 14.6975L10.1357 15.1229L10.1768 15.164L9.86123 15.0954L9.07912 14.7798L8.96934 14.821L9.35355 15.4248L10.1357 15.6306L10.1768 15.6717L9.79263 15.6306L9.29867 15.4934L9.2575 15.3836H9.29867L9.23007 15.4248L9.16146 15.3836V15.2464L9.12029 15.2052L8.91447 15.315L8.95564 15.4248L9.02424 15.5345L8.84586 15.5757L8.80469 15.6443L8.87329 15.8501H8.91447L9.05168 15.7815L9.09285 15.9599L8.98307 16.0285L9.02424 16.1658L9.2712 16.4128L9.44959 17.4008L9.87497 18.1829L9.91614 18.2515L9.87497 18.4299L10.0122 18.6083L10.0534 18.6769V18.9925L10.2592 19.4453L10.3003 19.514L10.2317 19.5551L10.0945 19.7335V19.9394L10.2317 20.1178L10.1906 20.1864L10.3003 20.3922L10.4787 20.4608V20.5706L10.6159 20.6803H10.7943L10.9041 20.7215V21.1469L11.0413 21.1057L11.1785 21.1469L11.3569 21.2155V21.1057L11.398 20.9274L11.5764 20.8862L11.645 20.8176L11.5078 20.749L11.3294 20.6117L11.2883 20.5431L11.3294 20.4745V20.4059L11.398 20.3373L11.5078 20.2275L11.645 20.0217L11.8234 19.8845L12.0704 19.6787L12.3585 19.5414L12.3997 19.7198L12.7565 19.514L13.1407 19.3081L13.2504 19.4453L13.6346 19.0612L14.2384 18.3887L14.307 18.4299V18.4711L14.1972 18.7181L13.8816 18.9651L13.7719 19.3493L13.8405 19.5277L13.6621 19.7747L13.5935 20.0903L13.5249 20.2001L13.2367 20.4471L12.88 20.6941L12.8388 20.8313L13.0446 20.9685L13.2504 21.0097V21.0783L13.1818 21.3665L13.3876 21.4351L13.6346 21.3665V21.4076L13.5935 21.5449L13.6346 21.7232L13.7719 21.6821L13.9777 21.6135L14.1149 21.5449L14.0737 21.6546V21.9016L14.2109 22.1075L14.3481 22.0663L14.4854 21.8879L14.554 22.1349L14.8421 22.5603L15.1303 22.1349L15.1989 21.8879L15.3361 22.0663L15.4733 22.1075L15.6106 21.9016V21.6546L15.5694 21.5449L15.7066 21.6135L15.9124 21.6821L16.0496 21.7232L16.0908 21.5449L16.0496 21.4076V21.3665L16.2966 21.4351L16.5024 21.3665V21.0097L16.7083 20.9685L16.9141 20.8313L16.8729 20.6941L16.5161 20.4471L16.228 20.2001L16.1868 20.0903L16.1182 19.7747L15.9399 19.5277L16.0085 19.3493L15.8987 18.9651L15.6517 18.6769L15.5419 18.4299V18.3887L15.6106 18.3476L16.2143 19.02L16.5985 19.4042L16.7083 19.267L17.0924 19.4728L17.4492 19.6787L17.4904 19.5689L17.7785 19.6787L18.0255 19.7884L18.3823 20.0354L18.986 20.0766L19.974 19.7198L20.3582 19.514L20.3993 19.3081L20.3307 19.1984V19.1298L20.2896 18.9925L20.2484 18.8141L19.8642 18.2103L19.823 18.1692L19.7819 18.128V17.9496H19.823L19.8916 17.9908L19.9603 17.9222L20.0289 17.7438L19.9877 17.6752H19.8779L19.8367 17.634L19.8779 17.5242L19.8367 17.4556L19.6995 17.387L19.6584 17.4282V17.538H19.4526L19.384 17.7438V17.8124H19.5212L19.5623 17.8536L19.4937 17.9634L19.4251 18.0045H19.3153L18.89 18.1417L18.643 18.4299L18.5744 18.4985L18.4646 18.6357L18.396 18.773L18.3548 19.1572L18.5332 19.4453L18.4921 19.514L18.3548 19.4453L17.9706 19.1572L17.9295 19.0886L17.9981 19.0474V18.9788L17.7923 18.869V18.7592L17.902 18.622L17.5864 18.5534L17.4767 18.4848L17.5453 18.375V18.3064L17.1885 18.2378L16.6534 17.6752L17.0101 17.9908L17.216 17.8536L17.0787 17.6752H17.1199L17.6825 17.9222L18.0667 17.8124L17.9569 17.6752L17.9981 17.634H18.5332L18.9174 17.3459L18.6293 17.2773L18.5881 17.1675H19.1507L19.4388 16.8519L19.1232 16.7833L19.0134 16.7146L19.6447 16.6735L19.9603 16.2481V16.1795L19.5074 16.2481L19.2193 16.2069L20.07 16.0285L20.3856 15.4934L19.8505 15.6306L19.4663 15.6717L19.5074 15.6306L20.2896 15.4248L20.6738 14.821L20.564 14.7798L19.7819 15.0954L19.4663 15.164H19.823ZM9.53193 15.8364L9.42215 15.905L9.35355 15.7678V15.7266L9.46332 15.6855L9.53193 15.8364ZM13.0309 17.8948L12.6467 18.2103L12.2899 18.279V18.3476L12.3585 18.4574L12.2488 18.526L11.9332 18.5946L12.043 18.7318V18.8416L11.8371 18.9514V19.02L12.043 19.0886L11.9332 19.1572L11.549 19.2944H10.7669L10.7257 19.0886L10.5885 18.7318L10.4101 18.526V18.4574L10.3689 18.3201L10.1906 18.1417V18.0045L10.0808 17.5105L9.72402 16.8793L9.54563 16.2755V15.9599L9.5868 15.8913L9.72402 16.0285L10.5747 16.2069L10.2866 16.2481L9.79263 16.1795V16.2481L10.1082 16.6735L10.7394 16.7146L10.6296 16.7833L10.314 16.8519L10.6022 17.1675H11.1648L11.0962 17.2361L10.808 17.3047L11.1922 17.5928H11.7274L11.7685 17.634L11.6588 17.7712L12.043 17.881L12.6055 17.634H12.6467L12.5095 17.8124L12.7153 17.9496L13.0721 17.634L13.0309 17.8948ZM16.0771 9.75749L16.0359 9.64771L16.2417 9.8261L16.3515 10.0045V10.3613L16.3927 10.4024L16.2555 10.471H16.0771L16.0359 10.4024L16.1731 10.1966L16.0771 9.75749ZM15.295 10.2103L15.3361 9.89471L15.2675 9.46931L15.5145 9.64771L15.6929 10.0045L15.6517 10.2103L15.6929 10.3476L15.5831 10.4162L15.4047 10.4573L15.2263 10.3887L15.1577 10.3476L15.295 10.2103ZM14.5814 9.64771L14.8284 9.46931L14.7598 9.89471L14.801 10.2103L14.9107 10.3476L14.8421 10.3887L14.6637 10.4573L14.4854 10.4162L14.3756 10.3476L14.4168 10.2103L14.3756 10.0045L14.5814 9.64771ZM14.0188 10.471H13.8405L13.7307 10.4299L13.7719 10.3887V10.0319L13.8816 9.85354L14.0875 9.67514L14.0188 9.74375L13.9091 10.1692L14.0463 10.375L14.0188 10.471ZM16.0359 11.9119L15.8301 12.0491L15.9673 12.1589L15.7203 12.3647L15.4733 12.4745L15.4322 12.5431L15.5419 12.6803L15.5831 12.7215L15.295 12.9685L15.1166 13.0783L15.0754 13.2567L15.1852 13.3939V13.5037L15.0068 13.7506L14.8284 13.5037V13.3939L14.9382 13.2567L14.897 13.0783L14.7187 12.9685L14.4305 12.7215L14.4717 12.6803L14.5814 12.5431L14.5403 12.4745L14.3344 12.3647L14.0875 12.1589L14.2247 12.0491L14.0188 11.9119L13.813 11.7335L14.06 11.5276L14.1012 11.3492L14.9793 11.4865L15.8575 11.3492L15.8987 11.5276L16.1457 11.7335L16.0359 11.9119Z" fill="#FFCE31"/>
<path d="M13.2344 15.0547H16.7745V17.1816H13.2344V15.0547Z" fill="#428BC1"/>
<path d="M15.0071 19.3084L16.4204 17.895H13.5938L15.0071 19.3084Z" fill="#83BF4F"/>
<path d="M14.4031 17.0029L14.1973 17.1813H14.6912L14.801 17.0441L15.1852 16.7285L15.3911 17.0441L15.4597 17.1813H15.8164L15.7478 17.0029L16.036 16.7147L16.1732 16.605L16.2418 15.5484L15.9537 15.7268L16.0223 16.2893L15.6381 15.9738H14.8559L14.9245 15.7679L14.6089 15.4111L14.2933 15.7679L14.3619 16.0149L14.115 16.3031L13.8268 16.1659L13.6484 16.454L14.0738 16.6599L14.4031 17.0029Z" fill="#FFCE31"/>
</svg>
