<svg width="30" height="31" viewBox="0 0 30 31" fill="none" xmlns="http://www.w3.org/2000/svg">
<path d="M15 30.3918C23.2843 30.3918 30 23.6757 30 15.391C30 7.10624 23.2843 0.390137 15 0.390137C6.71574 0.390137 0 7.10624 0 15.391C0 23.6757 6.71574 30.3918 15 30.3918Z" fill="#F42F4C"/>
<path d="M10.6546 21.3873L12.304 16.4387L7.99609 13.3338H13.3519L15.0013 8.38525L16.6507 13.3338H22.0064L17.6598 16.3806L19.3092 21.3291L15.0013 18.3212L10.6546 21.3873ZM15.8939 17.7001L17.2522 18.651L16.7477 17.0986L15.8939 17.7001ZM13.2548 17.0986L12.7503 18.651L14.1086 17.7001L13.2548 17.0986ZM13.6041 16.0506L15.0013 17.0598L16.3984 16.0506L15.8551 14.4593H14.1086L13.6041 16.0506ZM11.3532 14.44L12.7115 15.3908L13.0026 14.44H11.3532ZM17.3105 15.3908L18.6688 14.44H17.0194L17.3105 15.3908ZM14.4967 13.3532H15.5058L15.0013 11.8007L14.4967 13.3532Z" fill="#4F682E"/>
</svg>
