<svg width="30" height="31" viewBox="0 0 30 31" fill="none" xmlns="http://www.w3.org/2000/svg">
<path d="M4.40625 20.4321V26.0404C7.10353 28.7379 10.8487 30.4456 15.0013 30.4456C21.1527 30.4456 26.4502 26.7391 28.7594 21.4412H4.9108C4.69734 21.0725 4.54208 20.7814 4.40625 20.4321Z" fill="#FFE62E"/>
<path d="M4.89122 9.4287H28.7399C26.4307 4.13088 21.1331 0.424316 14.9818 0.424316C10.8291 0.424316 7.084 2.13203 4.38672 4.82946V10.4378C4.54196 10.0885 4.69717 9.77801 4.89122 9.4287Z" fill="#007168"/>
<path d="M30.0013 15.4249C30.0013 14.0277 29.8073 12.6692 29.458 11.4272H4.40625V19.4225H29.458C29.8073 18.1806 30.0013 16.8221 30.0013 15.4249Z" fill="#3E4347"/>
<path d="M3.99609 11.4276H4.40357V10.4185C4.24833 10.7872 4.15133 11.0782 3.99609 11.4276Z" fill="#F9F9F9"/>
<path d="M3.99609 19.4229C4.09312 19.7722 4.24833 20.0632 4.40357 20.432V19.4229H3.99609Z" fill="#F9F9F9"/>
<path d="M29.1473 10.4378C29.0503 10.0885 28.8951 9.73921 28.7399 9.42871H4.89122C4.69717 9.77802 4.54196 10.0691 4.38672 10.4378V11.4469H29.4384C29.3414 11.0782 29.2444 10.7871 29.1473 10.4378Z" fill="white"/>
<path d="M29.1473 20.432C29.2444 20.0826 29.3414 19.7916 29.4384 19.4229H4.38672V20.432C4.54196 20.7813 4.67776 21.1306 4.89122 21.4411H28.7399C28.8951 21.0723 28.9921 20.7813 29.1473 20.432Z" fill="white"/>
<path d="M4.4049 4.82959C1.70762 7.52702 0 11.2724 0 15.4253C0 19.5781 1.70762 23.3235 4.4049 26.0209L15 15.4253L4.4049 4.82959Z" fill="#ED4C5C"/>
<path d="M9.29634 20.4318L6.05573 18.0254L2.81512 20.4318L4.05702 16.5894L0.816406 14.2413H4.87206L6.11395 10.3989L7.35585 14.2413H11.4115L8.17089 16.5894L9.29634 20.4318Z" fill="#FFE62E"/>
<path d="M3.24219 17.7733H5.5902C5.78425 17.9674 6.19174 18.0644 6.59924 17.7733C7.35604 17.3658 8.75321 17.7733 8.75321 17.7733L9.04428 17.4822L8.34569 15.2311L8.09341 14.9788C8.09341 14.9788 7.55009 14.6878 6.59924 14.7848C5.59019 14.8818 5.2409 14.7266 5.2409 14.7266C5.2409 14.7266 4.34829 14.8236 4.13483 14.9788C4.07662 14.9788 3.84376 15.2699 3.84376 15.2699L3.24219 17.7733Z" fill="white"/>
<path d="M1.6875 18.0255L2.23085 18.6659C2.28906 18.7241 2.32787 18.7241 2.4249 18.6659L3.22052 17.6568L3.56977 17.2104C3.62798 17.1522 3.62799 17.0552 3.62799 17.0164L4.26836 16.4148H4.42361C4.3654 16.4148 4.32658 16.3566 4.36539 16.3178L4.52063 16.2208L4.61766 16.376C4.61766 16.376 4.46242 16.57 4.42361 16.57H4.22956L3.93849 16.9193L4.09374 17.0746L4.34596 17.6762L4.63704 17.4822L4.44299 16.8223L4.85051 16.376L4.69526 16.1237L4.79228 15.9685C4.79228 15.9685 6.15064 16.8223 6.69397 16.6089L6.7522 16.0073C6.7522 16.0073 5.35505 15.852 5.29683 15.5609C5.23862 15.2698 5.5879 15.2698 5.5879 15.2698L5.43266 15.0758L5.49088 14.9788L5.74315 15.2698L6.28645 14.8235L9.52711 18.5689C9.72116 18.5106 9.72112 18.4718 9.77933 18.2778L6.57753 14.5713L6.8298 14.319C6.88801 14.2608 6.88802 14.2219 6.88802 14.1637L7.29554 13.8144C7.39257 13.8726 7.48956 13.9114 7.54777 14.0085L8.59566 13.1158C8.65388 13.174 8.6927 13.174 8.75091 13.1158L10.4585 11.4663L8.61504 12.7665L8.55686 12.7083C8.55686 12.6501 8.61508 12.65 8.55686 12.553C8.49865 12.456 8.36281 12.65 8.36281 12.65C8.36281 12.65 8.11055 12.553 8.07174 12.456V12.7471L7.62542 13.1934H7.27612L6.77157 13.698L6.51935 13.9502L6.61637 14.1055L6.3253 14.3578C6.3253 14.3578 6.26708 14.2996 6.26708 14.2607L6.51935 14.0667V13.9114L6.42232 13.8144C6.42232 13.8144 6.07303 14.1637 6.07303 14.1055C6.01481 14.0473 5.18038 13.0964 5.18038 13.0964L5.23861 12.9023L4.69526 12.3007C4.50121 12.2425 4.19076 12.2037 4.09374 12.65C4.03552 12.7471 3.64741 12.65 3.64741 12.65L3.39514 12.7083L2.09502 14.5518L2.79357 15.4057L4.24894 13.5621L4.30716 13.0188L4.59824 13.3681C4.69526 13.3681 4.79228 13.3681 4.88931 13.3099L5.74315 14.2607L5.5879 14.416L5.74315 14.5713C5.80137 14.513 5.84014 14.513 5.89835 14.4742C5.89835 14.4742 5.95658 14.5324 5.95658 14.5713C5.89836 14.6295 5.85955 14.6683 5.76253 14.7265C5.6655 14.6294 5.51027 14.5712 5.56848 14.4354L5.06398 14.8429V14.94L3.60861 16.1431H3.45336L3.55039 16.5507L4.50121 15.755V15.658L4.59824 15.755L5.35505 15.1534L5.41323 15.2116L4.77291 15.8132V15.8714L4.57886 15.9685L4.52063 15.9102L3.62799 16.7059H3.53097L3.02647 17.2104C2.87123 17.2104 2.77419 17.2104 2.67717 17.3075L1.6875 18.0255Z" fill="#3E4347"/>
</svg>
