<svg width="30" height="31" viewBox="0 0 30 31" fill="none" xmlns="http://www.w3.org/2000/svg">
<path d="M15.0016 30.3876C21.5605 30.3876 27.1103 26.2347 29.1478 20.3936H0.855469C2.89298 26.2347 8.44277 30.3876 15.0016 30.3876Z" fill="#ED4C5C"/>
<path d="M15.0016 0.385742C8.44277 0.385742 2.89298 4.57743 0.855469 10.3798H29.1478C27.0909 4.59683 21.5411 0.385742 15.0016 0.385742Z" fill="#FFE62E"/>
<path d="M29.1462 20.3934C29.6895 18.8409 30 17.1526 30 15.3866C30 13.6401 29.7089 11.9324 29.1462 10.3799H0.853844C0.310507 11.9324 0 13.6207 0 15.3866C0 17.1332 0.291102 18.8409 0.853844 20.3934H29.1462Z" fill="#699635"/>
<path d="M15.0005 19.9469L20.8414 24.3909L18.6486 17.1331L24.4895 12.6309H17.232L14.9811 5.37305L12.7301 12.6309H5.47266L11.3136 17.1331L9.12079 24.3909L15.0005 19.9469Z" fill="white"/>
</svg>
