<svg width="30" height="31" viewBox="0 0 30 31" fill="none" xmlns="http://www.w3.org/2000/svg">
<path d="M7.49561 2.41189C2.13671 5.51867 -0.562176 11.3633 0.0979791 17.072L23.9218 3.36332C19.2425 -0.092966 12.7963 -0.656051 7.49561 2.41189ZM11.7478 8.10114L10.1557 7.65458L10.6022 9.24679L9.49546 8.04292L9.08779 9.63514L8.68003 8.04292L7.53448 9.24679L7.98102 7.65458L6.38885 8.10114L7.59269 6.95553L6.00052 6.54775L7.59269 6.14001L6.38885 4.99436L7.98102 5.44097L7.53448 3.84876L8.68003 5.05262L9.08779 3.46041L9.49546 5.05262L10.6411 3.84876L10.1945 5.44097L11.7866 4.99436L10.5828 6.14001L12.175 6.54775L10.5828 6.95553L11.7478 8.10114Z" fill="#2A5F9E"/>
<path d="M6.09766 27.4603C10.7576 30.9166 17.2038 31.4602 22.5044 28.3535C27.8633 25.2467 30.5622 19.4409 29.9021 13.6934L6.09766 27.4603Z" fill="#83BF4F"/>
<path d="M27.9973 7.90699C27.2983 6.70311 26.444 5.65458 25.4926 4.70312L0.484375 19.1691C0.833869 20.47 1.33873 21.7127 1.97947 22.9166C2.67846 24.1205 3.53275 25.169 4.48415 26.1205L29.4923 11.6545C29.2011 10.3536 28.6963 9.11086 27.9973 7.90699Z" fill="#ED4C5C"/>
<path d="M29.7645 12.6645C29.7063 12.315 29.6092 11.9655 29.5121 11.6548L4.50391 26.1207C4.75632 26.3731 5.00871 26.6256 5.26112 26.8198C5.51354 27.0722 5.80476 27.2664 6.11542 27.4605L29.9393 13.6936L29.7645 12.6645Z" fill="white"/>
<path d="M24.7562 4.00406C24.5038 3.75164 24.2126 3.55745 23.9019 3.36328L0.078125 17.0719L0.233465 18.1205C0.291714 18.47 0.388758 18.8195 0.485839 19.1302L25.4941 4.7225C25.2611 4.45065 25.0086 4.19824 24.7562 4.00406Z" fill="white"/>
<path d="M10.6017 6.15944L11.7472 5.01384L10.1939 5.46045L10.6406 3.90706L9.49494 5.05266L9.08727 3.46045L8.67951 5.05266L7.53396 3.90706L7.9805 5.46045L6.38833 5.01384L7.59218 6.15944L6 6.56723L7.59218 6.97501L6.38833 8.12061L7.9805 7.674L7.53396 9.26622L8.67951 8.06235L9.08727 9.65456L9.49494 8.06235L10.6406 9.26622L10.1939 7.674L11.7472 8.12061L10.6017 6.97501L12.1939 6.56723L10.6017 6.15944Z" fill="#FFCE31"/>
</svg>
