<svg width="30" height="31" viewBox="0 0 30 31" fill="none" xmlns="http://www.w3.org/2000/svg">
<path d="M14.9906 0.49707C7.3992 0.49707 1.1247 6.1328 0.175781 13.4728H29.8635C28.8565 6.1328 22.5819 0.49707 14.9906 0.49707Z" fill="#2A5F9E"/>
<path d="M14.9903 30.4381C22.5817 30.4381 28.8562 24.8024 29.8051 17.4624H0.15625C1.12454 24.8024 7.39896 30.4381 14.9903 30.4381Z" fill="#2A5F9E"/>
<path d="M29.8039 13.4727H0.154983C0.058154 14.1118 0 14.7702 0 15.4674C0 16.1646 0.058154 16.8231 0.154983 17.4622H29.8426C29.9395 16.8231 29.9975 16.1646 29.9975 15.4674C30.0169 14.7702 29.9201 14.1311 29.8039 13.4727Z" fill="#FFE62E"/>
<path d="M7.0095 20.0575L7.60986 18.9536L7.76475 20.1931L8.71365 19.3991L8.36511 20.5998L9.56573 20.2512L8.77181 21.2002L10.0112 21.3551L8.90731 21.9555L10.0112 22.5559L8.77181 22.7108L9.56573 23.6598L8.36511 23.3111L8.71365 24.5119L7.76475 23.7179L7.60986 24.9573L7.0095 23.8534L6.40915 24.9573L6.25426 23.7179L5.30526 24.5119L5.6539 23.3111L4.45319 23.6598L5.2472 22.7108L4.00781 22.5559L5.1116 21.9555L4.00781 21.3551L5.2472 21.2002L4.45319 20.2512L5.6539 20.5998L5.30526 19.3991L6.25426 20.1931L6.40915 18.9536L7.0095 20.0575Z" fill="white"/>
</svg>
