<svg width="30" height="31" viewBox="0 0 30 31" fill="none" xmlns="http://www.w3.org/2000/svg">
<path d="M21.2621 27.7332L9.00976 15.4802H21.0098L8.34958 2.81934H6.95149C2.62142 5.55733 -0.019311 10.3537 0.000106348 15.4802C0.000106348 23.7913 6.69907 30.4906 15.0097 30.4906C17.2039 30.4906 19.3592 29.9857 21.2621 29.1313V27.7332Z" fill="#ED4C5C"/>
<path d="M14.9907 0.450195C12.7966 0.450195 10.6412 0.955074 8.73828 1.80949V4.2174L19.2431 14.7227H8.73828V16.315L20.544 28.1215H23.0489C27.2431 25.4611 30.0003 20.7619 30.0003 15.4606C30.0197 7.16898 23.3014 0.450195 14.9907 0.450195Z" fill="#F9F9F9"/>
<path d="M8.73748 1.80957C8.0967 2.10085 7.49476 2.41153 6.89282 2.81932L18.6015 14.4704H6.60156L21.2617 29.1313C21.9025 28.84 22.5044 28.5293 23.1063 28.1215L11.3977 16.4705H23.3976L8.73748 1.80957Z" fill="#428BC1"/>
<path d="M8.79691 10.3533C8.95225 10.1008 8.99108 9.75134 8.99108 9.46007C8.99108 8.35322 8.09792 7.45996 6.99113 7.45996C5.88434 7.45996 4.99118 8.35322 4.99118 9.46007C4.99118 9.8096 5.08826 10.1008 5.18535 10.3533C4.2339 9.9455 3.47656 9.46007 3.47656 9.46007C3.47656 9.46007 4.23384 12.4699 6.97169 12.4699C9.7678 12.4699 10.4668 9.46007 10.4668 9.46007C10.4668 9.46007 9.74836 9.96492 8.79691 10.3533Z" fill="white"/>
<path d="M6.99016 19.2669L7.7863 18.4707L8.07756 19.5775L9.18429 19.2863L8.89303 20.3931L9.99986 20.6844L9.20373 21.4806L9.99986 22.2767L8.89303 22.568L9.18429 23.6749L8.07756 23.3836L7.7863 24.4904L6.99016 23.6942L6.19403 24.4904L5.90277 23.3836L4.79604 23.6749L5.0873 22.568L3.98047 22.2767L4.7766 21.4806L3.98047 20.6844L5.0873 20.3931L4.79604 19.2863L5.90277 19.5775L6.19403 18.4707L6.99016 19.2669Z" fill="white"/>
</svg>
