<svg width="30" height="31" viewBox="0 0 30 31" fill="none" xmlns="http://www.w3.org/2000/svg">
<path d="M15.0017 0.988647C8.44279 0.988647 2.89298 5.14152 0.855469 10.9827H29.1478C27.1103 5.14152 21.5605 0.988647 15.0017 0.988647Z" fill="#ED4C5C"/>
<path d="M15.0017 30.9903C21.5605 30.9903 27.1103 26.8374 29.1478 20.9962H0.855469C2.91239 26.8374 8.46219 30.9903 15.0017 30.9903Z" fill="#428BC1"/>
<path d="M0.853815 10.9827C0.310477 12.5351 0 14.2235 0 15.9894C0 17.7359 0.291073 19.4437 0.853815 20.9962H29.1462C29.6895 19.4437 30 17.7554 30 15.9894C30 14.2429 29.7089 12.5351 29.1462 10.9827H0.853815Z" fill="white"/>
</svg>
