<svg width="30" height="31" viewBox="0 0 30 31" fill="none" xmlns="http://www.w3.org/2000/svg">
<path d="M15 0.899658V5.90641H5.00647V15.9005H0C0 24.2062 6.69469 30.9013 15 30.9013C23.3053 30.9013 30 24.2062 30 15.9005C30 7.59472 23.3053 0.899658 15 0.899658Z" fill="#2A5F9E"/>
<path d="M5.99611 3.90754C2.34799 6.66318 0 11.0101 0 15.9004H5.99611V3.90754Z" fill="white"/>
<path d="M3.00781 6.89613H15.0001V0.899658C10.11 0.899658 5.74391 3.24781 3.00781 6.89613Z" fill="white"/>
<path d="M3.89844 5.80943L11.9903 15.92H14.9981V12.1746L7.54656 2.87916C6.20762 3.65539 4.9463 4.64507 3.89844 5.80943Z" fill="white"/>
<path d="M14.998 2.39401H8.43916C5.4314 3.84946 2.94756 6.35279 1.49219 9.34131V15.9005H4.49995V5.40193H14.998V2.39401Z" fill="#ED4C5C"/>
<path d="M15.0006 13.4554L8.49995 5.40189H5.49219L13.9915 15.9005H15.0006V13.4554Z" fill="#ED4C5C"/>
<path d="M17.5609 15.9005L18.0654 14.445L16.707 13.4941H18.4147L18.9192 12.0969L19.4237 13.4941H21.1314L19.773 14.445L20.2775 15.9005L18.9192 15.0078L17.5609 15.9005Z" fill="white"/>
<path d="M18.9017 14.6585L19.6973 15.2019L19.4062 14.3092L20.2018 13.7658H19.1928L18.9017 12.912L18.6106 13.7658H17.6016L18.3972 14.3092L18.1061 15.2019L18.9017 14.6585Z" fill="#ED4C5C"/>
<path d="M26.3148 15.9005L26.8193 14.445L25.4609 13.4941H27.1686L27.6731 12.0969L28.1776 13.4941H29.8853L28.5269 14.445L29.0314 15.9005L27.6731 15.0078L26.3148 15.9005Z" fill="white"/>
<path d="M27.6518 14.6585L28.4474 15.2019L28.1563 14.3092L28.9519 13.7658H27.9623L27.6712 12.912L27.3802 13.7658H26.3711L27.1667 14.3092L26.8756 15.2019L27.6518 14.6585Z" fill="#ED4C5C"/>
<path d="M21.9476 10.7579L22.4521 9.30243L21.0938 8.35155H22.8014L23.3059 6.95433L23.8104 8.35155H25.5181L24.1597 9.30243L24.6643 10.7579L23.3059 9.86523L21.9476 10.7579Z" fill="white"/>
<path d="M23.2457 9.49655L24.0413 10.0399L23.7502 9.14723L24.5458 8.6039H23.595L23.2457 7.75001L22.9934 8.6039H21.9844L22.78 9.14723L22.4889 10.0399L23.2457 9.49655Z" fill="#ED4C5C"/>
<path d="M21.5002 24.245L22.1406 22.3432L20.3359 21.1013H22.5869L23.2273 19.2577L23.8676 21.1013H26.0604L24.2557 22.3432L24.8961 24.245L23.1497 23.0419L21.5002 24.245Z" fill="white"/>
<path d="M23.2472 22.5956L24.2951 23.2942L23.9458 22.1492L24.9548 21.3924H23.7129L23.2666 20.2863L22.9173 21.3924H21.6172L22.6262 22.1492L22.277 23.2942L23.2472 22.5956Z" fill="#ED4C5C"/>
<path d="M5.29688 5.40189H11.39V6.89614H5.29688V5.40189Z" fill="white"/>
</svg>
