<svg width="30" height="31" viewBox="0 0 30 31" fill="none" xmlns="http://www.w3.org/2000/svg">
<path d="M14.9886 30.8773C21.5432 30.8773 27.0895 26.7271 29.1256 20.8896H0.851562C2.90715 26.7271 8.45338 30.8773 14.9886 30.8773Z" fill="#83BF4F"/>
<path d="M14.9886 0.894958C8.43398 0.894958 2.88776 5.08393 0.851562 10.8826H29.1256C27.0895 5.08393 21.5432 0.894958 14.9886 0.894958Z" fill="#2A5F9E"/>
<path d="M29.1467 20.8896C29.6897 19.3381 30 17.6509 30 15.8861C30 14.1407 29.7091 12.434 29.1467 10.8826H0.853257C0.310271 12.434 0 14.1213 0 15.8861C0 17.6315 0.290878 19.3381 0.853257 20.8896H29.1467Z" fill="#ED4C5C"/>
<path d="M10.9953 24.7296C15.8791 24.7296 19.8382 20.7702 19.8382 15.8862C19.8382 11.0021 15.8791 7.04279 10.9953 7.04279C6.11146 7.04279 2.15234 11.0021 2.15234 15.8862C2.15234 20.7702 6.11146 24.7296 10.9953 24.7296Z" fill="#FFE62E"/>
<path d="M10.9942 6.88757C6.0491 6.88757 1.99609 10.9408 1.99609 15.8861C1.99609 20.8314 6.0491 24.8847 10.9942 24.8847C15.9392 24.8847 19.9922 20.8314 19.9922 15.8861C19.9922 10.9408 15.9392 6.88757 10.9942 6.88757ZM2.30637 15.8861C2.30637 11.1347 6.10728 7.29481 10.8002 7.19784V9.13718C10.2572 9.38929 9.85 9.58326 9.75304 10.0875C9.75304 10.1457 9.69487 10.7856 9.69487 10.9796C9.69487 10.9796 9.79183 10.9796 9.98575 10.8244C10.0827 10.7275 10.393 10.6693 10.7808 10.4754V11.4838C10.1797 11.5808 9.77243 12.085 9.77243 12.6862C9.77243 13.2874 10.2185 13.7916 10.7808 13.8886V14.1407C10.3348 14.1407 9.92757 13.9856 9.57851 13.2874C9.38458 12.8801 8.88038 12.279 8.88038 12.279C8.88038 12.279 9.13248 12.9189 9.13248 13.6365C9.19066 14.6449 10.0827 14.7419 10.7227 14.7419V14.9358H9.48154V15.2849H10.7808V15.4789C10.1797 15.537 9.77243 15.8279 9.77243 16.2352C9.77243 16.6424 10.2185 16.9333 10.7808 16.9915V17.1854H9.48154V17.3794H10.7808V17.5733C9.77243 17.6315 9.28762 18.0194 9.22945 18.6206C9.13248 19.8618 8.88038 20.8702 8.88038 20.8702C8.88038 20.8702 9.28762 20.4241 9.67547 19.3187C9.86939 18.8145 10.3154 18.5236 10.7808 18.4267V18.5818C10.3348 18.6788 9.98575 19.28 9.98575 19.9781C9.98575 20.6763 10.3348 21.2775 10.7808 21.3744V21.7817C10.1797 21.7817 9.57851 21.9368 9.28762 22.189C8.88038 22.538 7.89137 23.4883 7.48413 23.8956C4.45892 22.538 2.30637 19.4933 2.30637 15.8861ZM14.2909 23.9344C13.9418 23.5271 13.0497 22.5768 12.4874 22.189C12.1965 21.9368 11.6923 21.8399 11.1881 21.7817V21.3744C11.6341 21.2775 11.9832 20.6763 11.9832 19.9781C11.9832 19.28 11.6341 18.6788 11.1881 18.5818V18.4267C11.6341 18.4848 12.0801 18.8339 12.2934 19.3187C12.7395 20.4241 13.0885 20.8702 13.0885 20.8702C13.0885 20.8702 12.8364 19.8618 12.7395 18.6206C12.6813 18.0194 12.1965 17.6121 11.1881 17.5733V17.3794H12.4874V17.0303H11.1881V16.8364C11.7892 16.7782 12.1965 16.4873 12.1965 16.08C12.1965 15.6728 11.7505 15.3819 11.1881 15.3237V15.1298H12.4874V14.7807H11.1881V14.5867C11.8862 14.5867 12.7395 14.4898 12.7782 13.4813C12.8364 12.7832 13.0304 12.1238 13.0304 12.1238C13.0304 12.1238 12.5261 12.725 12.3322 13.1322C11.9832 13.8304 11.5759 13.9855 11.1299 13.9855V13.7335C11.7311 13.6365 12.1383 13.1322 12.1383 12.531C12.1383 11.9298 11.6923 11.4256 11.1299 11.3286V10.0875C11.479 9.79658 11.8862 9.33114 12.274 8.63298C12.468 8.22572 12.371 8.08996 12.371 8.08996C12.371 8.08996 12.371 8.14814 12.2159 8.24511C11.8668 8.53601 11.4596 8.74931 11.1105 8.94325V7.19784C15.8035 7.29481 19.6044 11.1541 19.6044 15.8861C19.7013 19.5321 17.4518 22.635 14.2909 23.9344Z" fill="#3E4347"/>
</svg>
