<svg width="30" height="31" viewBox="0 0 30 31" fill="none" xmlns="http://www.w3.org/2000/svg">
<path d="M15 0.00817871V5.01493H5.00647V15.009H0C0 23.3147 6.69469 30.0098 15 30.0098C23.3053 30.0098 30 23.3147 30 15.009C30 6.70324 23.3053 0.00817871 15 0.00817871Z" fill="#2A5F9E"/>
<path d="M5.99611 3.01605C2.34799 5.7717 0 10.1186 0 15.0089H5.99611V3.01605Z" fill="white"/>
<path d="M3.00781 6.00465H15.0001V0.00817871C10.11 0.00817871 5.74391 2.35633 3.00781 6.00465Z" fill="white"/>
<path d="M3.90039 4.91794L11.9922 15.0285H15V11.2831L7.54851 1.98767C6.20957 2.76391 4.94826 3.75358 3.90039 4.91794Z" fill="white"/>
<path d="M15 1.5025H8.44111C5.43335 2.95795 2.94951 5.46128 1.49414 8.4498V15.009H4.5019V4.51043H15V1.5025Z" fill="#ED4C5C"/>
<path d="M15.0001 12.5639L8.49946 4.51044H5.4917L13.9911 15.009H15.0001V12.5639Z" fill="#ED4C5C"/>
<path d="M17.5613 15.009L18.0659 13.5535L16.7075 12.6027H18.4152L18.9197 11.2054L19.4242 12.6027H21.1318L19.7735 13.5535L20.278 15.009L18.9197 14.1163L17.5613 15.009Z" fill="white"/>
<path d="M18.9005 13.767L19.6961 14.3104L19.405 13.4177L20.2006 12.8744H19.1915L18.9005 12.0205L18.6094 12.8744H17.6003L18.396 13.4177L18.1049 14.3104L18.9005 13.767Z" fill="#ED4C5C"/>
<path d="M26.313 15.009L26.8176 13.5535L25.4592 12.6027H27.1669L27.6714 11.2054L28.1759 12.6027H29.8836L28.5252 13.5535L29.0297 15.009L27.6714 14.1163L26.313 15.009Z" fill="white"/>
<path d="M27.6521 13.767L28.4477 14.3104L28.1566 13.4177L28.9522 12.8744H27.9625L27.6715 12.0205L27.3804 12.8744H26.3713L27.1669 13.4177L26.8759 14.3104L27.6521 13.767Z" fill="#ED4C5C"/>
<path d="M21.9471 9.86641L22.4516 8.41096L21.0933 7.46009H22.8009L23.3054 6.06287L23.81 7.46009H25.5176L24.1592 8.41096L24.6638 9.86641L23.3054 8.97376L21.9471 9.86641Z" fill="white"/>
<path d="M23.2472 8.60506L24.0428 9.14843L23.7517 8.25574L24.5473 7.71241H23.5964L23.2472 6.85852L22.9949 7.71241H21.9858L22.7814 8.25574L22.4904 9.14843L23.2472 8.60506Z" fill="#ED4C5C"/>
<path d="M21.5005 23.3535L22.1408 21.4517L20.3362 20.2098H22.5871L23.2275 18.3662L23.8679 20.2098H26.0606L24.256 21.4517L24.8963 23.3535L23.1499 22.1504L21.5005 23.3535Z" fill="white"/>
<path d="M23.2472 21.7041L24.2951 22.4028L23.9458 21.2578L24.9548 20.501H23.7129L23.2666 19.3948L22.9173 20.501H21.6172L22.6262 21.2578L22.277 22.4028L23.2472 21.7041Z" fill="#ED4C5C"/>
<path d="M5.29761 4.51044H11.3907V6.00469H5.29761V4.51044Z" fill="white"/>
</svg>
