<svg width="30" height="31" viewBox="0 0 30 31" fill="none" xmlns="http://www.w3.org/2000/svg">
<path d="M15.0017 0.917114C8.4428 0.917114 2.89299 5.1088 0.855469 10.9112H29.1479C27.1103 5.1088 21.5605 0.917114 15.0017 0.917114Z" fill="#428BC1"/>
<path d="M15.0017 30.9188C21.5605 30.9188 27.1103 26.7659 29.1479 20.9247H0.855469C2.89299 26.7659 8.4428 30.9188 15.0017 30.9188Z" fill="#428BC1"/>
<path d="M0.853821 10.9112C0.310483 12.4636 0 14.152 0 15.9179C0 17.6644 0.291079 19.3722 0.853821 20.9247H29.1462C29.6895 19.3722 30 17.6839 30 15.9179C30 14.1714 29.7089 12.4636 29.1462 10.9112H0.853821Z" fill="#F9F9F9"/>
<path d="M14.9991 12.5607L11.8555 17.6063H18.1621L14.9991 12.5607Z" fill="#42ADE2"/>
<path d="M13.4467 15.1224L11.8555 17.6257H18.1621L16.5709 15.1224H13.4467Z" fill="#428BC1"/>
<path d="M15.5051 15.4134V15.2194C15.5051 15.0641 15.4081 14.8701 15.2529 14.676C15.1558 14.482 15.0006 14.4237 14.7483 14.579C14.6513 14.6372 14.5931 14.676 14.5543 14.8313V14.9865C14.5543 14.9865 14.6513 15.0447 14.7095 14.9283C14.7678 14.9283 14.7677 14.8701 14.7677 14.8701C14.7095 14.8701 14.7095 14.9283 14.7095 14.9283C14.6513 14.9865 14.6125 15.0253 14.5543 15.1224C14.4961 15.2194 14.4961 15.3164 14.4961 15.3746C14.4961 15.3746 14.5543 15.4716 14.6513 15.4716C14.7483 15.5298 14.8066 15.5687 14.8454 15.6269C14.9036 15.6851 14.9036 15.7239 14.9036 15.8209C14.9036 15.8792 14.9036 15.9762 14.9618 15.9762C15.02 15.9762 15.0588 15.918 15.117 15.8792C15.117 15.7821 15.1753 15.7239 15.1753 15.6851C15.2335 15.6269 15.2335 15.6269 15.3305 15.6269C15.3887 15.6269 15.4275 15.6269 15.4275 15.5687V15.5105C15.5051 15.5105 15.4469 15.4717 15.5051 15.4134Z" fill="url(#paint0_linear_518_26102)"/>
<path d="M17.7947 17.121C17.2901 17.0628 16.8438 16.6165 16.7468 16.1702C16.7468 16.1702 16.6886 16.1119 16.6498 16.1119C16.5527 16.1119 16.5527 16.1702 16.5527 16.1702C16.4945 16.3254 16.3975 16.5195 16.2617 16.6747C16.1064 16.5195 16.0094 16.3254 15.9706 16.1702C15.9706 16.1702 15.9124 16.1119 15.8736 16.1119C15.7765 16.1119 15.7765 16.1702 15.7765 16.1702C15.7183 16.3254 15.6213 16.5195 15.4855 16.6747C15.3302 16.5195 15.2332 16.3254 15.1944 16.1702C15.1944 16.1702 15.1362 16.1119 15.0974 16.1119C15.0392 16.1119 15.0003 16.1702 15.0003 16.1702C14.9421 16.3254 14.8451 16.5195 14.7093 16.6747C14.554 16.5195 14.457 16.3254 14.4182 16.1702C14.4182 16.1702 14.36 16.1119 14.3212 16.1119C14.2241 16.1119 14.2241 16.1702 14.2241 16.1702C14.1659 16.3254 14.0689 16.5195 13.9331 16.6747C13.7778 16.5195 13.6808 16.3254 13.642 16.1702C13.642 16.1702 13.5838 16.1119 13.545 16.1119C13.4479 16.1119 13.4479 16.1702 13.4479 16.1702C13.2927 16.6165 12.8464 17.1793 12.3031 17.2181L12.0508 17.5674H18.2604L17.7947 17.121Z" fill="#83BF4F"/>
<path d="M14.998 11.4158C12.4948 11.4158 10.4961 13.4146 10.4961 15.918C10.4961 18.4214 12.4948 20.4202 14.998 20.4202C17.5013 20.4202 19.5 18.4214 19.5 15.918C19.5 13.4146 17.5013 11.4158 14.998 11.4158ZM14.998 19.6634C12.9411 19.6634 11.2529 17.9556 11.2529 15.918C11.2529 13.861 12.9605 12.1726 14.998 12.1726C17.0356 12.1726 18.7432 13.8804 18.7432 15.918C18.7432 17.975 17.055 19.6634 14.998 19.6634Z" fill="#DBB471"/>
<defs>
<linearGradient id="paint0_linear_518_26102" x1="14.9657" y1="15.1573" x2="15.2618" y2="15.941" gradientUnits="userSpaceOnUse">
<stop stop-color="#FF2A2A"/>
<stop offset="1" stop-color="#FF0000"/>
</linearGradient>
</defs>
</svg>
