<svg width="30" height="31" viewBox="0 0 30 31" fill="none" xmlns="http://www.w3.org/2000/svg">
<path d="M0 15.0284C0 21.5876 4.19146 27.1377 9.99353 29.1754V0.88147C4.19146 2.9191 0 8.46918 0 15.0284Z" fill="#83BF4F"/>
<path d="M30.0013 15.0284C30.0013 8.46918 25.8487 2.9191 20.0078 0.88147V29.1754C25.8487 27.1377 30.0013 21.5876 30.0013 15.0284Z" fill="#83BF4F"/>
<path d="M9.99219 29.1754C11.5446 29.7187 13.2328 30.0292 14.9987 30.0292C16.7451 30.0292 18.4527 29.7381 20.0051 29.1754V0.881479C18.4527 0.338112 16.7645 0.0275879 14.9987 0.0275879C13.2522 0.0275879 11.5446 0.318706 9.99219 0.881479V29.1754Z" fill="#F9F9F9"/>
</svg>
