<svg width="30" height="31" viewBox="0 0 30 31" fill="none" xmlns="http://www.w3.org/2000/svg">
<path d="M15.0017 0.975586C8.4428 0.975586 2.89299 5.16727 0.855469 10.9697H29.1479C27.1103 5.16727 21.5411 0.975586 15.0017 0.975586Z" fill="#F27A52"/>
<path d="M15.0017 30.9773C21.5605 30.9773 27.1103 26.8244 29.1479 20.9832H0.855469C2.89299 26.8244 8.4428 30.9773 15.0017 30.9773Z" fill="#83BF4F"/>
<path d="M0.853798 10.9696C0.31046 12.5221 0 14.2104 0 15.9764C0 17.7229 0.291055 19.4306 0.853798 20.9831H29.1462C29.6895 19.4306 30 17.7423 30 15.9764C30 14.2298 29.7089 12.5221 29.1462 10.9696H0.853798Z" fill="#F9F9F9"/>
<path d="M18.9589 16.3775C19.1765 14.1805 17.5719 12.2231 15.375 12.0055C13.1781 11.788 11.2208 13.3926 11.0033 15.5897C10.7857 17.7867 12.3903 19.744 14.5872 19.9616C16.7841 20.1792 18.7414 18.5745 18.9589 16.3775Z" fill="#F27A52"/>
</svg>
