<svg width="30" height="31" viewBox="0 0 30 31" fill="none" xmlns="http://www.w3.org/2000/svg">
<path d="M20.1476 1.8834C19.4494 1.63129 18.7513 1.43734 18.0532 1.28219L7.91099 6.38266H4.86638V5.87846L14.6014 0.971924C14.0584 0.971924 13.496 1.03011 12.953 1.12708L4.86638 5.18028V4.92816C4.71124 5.08331 4.51732 5.21908 4.36218 5.43241C4.11008 5.68452 3.85799 5.93661 3.66406 6.22751V6.92569C3.91616 7.11962 4.16826 7.37176 4.36218 7.62387H20.2058V6.42144H13.4184L20.167 2.96945V1.8834" fill="white"/>
<path d="M9.59798 11.2892H4.34265C4.14873 11.5413 3.89663 11.7934 3.64453 11.9874V18.6781H4.84685V13.7716L14.6982 18.6781H20.1862L7.89146 12.4722H11.9832L20.128 16.5254V15.8272L13.3795 12.4722H20.128V11.2698H9.59798" fill="white"/>
<path d="M3.25781 6.69288C3.41295 6.78985 3.50991 6.84804 3.66505 6.94501V6.24683C3.50991 6.34379 3.41295 6.47956 3.25781 6.69288Z" fill="#ED4C5C"/>
<path d="M7.91406 12.4915L20.1506 18.6392V16.5835L12.064 12.4915H7.91406Z" fill="#ED4C5C"/>
<path d="M18.0543 1.28223C17.0459 1.0883 16.0569 0.991333 15.0097 0.991333H14.6024L4.90625 5.83968V6.34393H7.95084L18.0543 1.28223Z" fill="#ED4C5C"/>
<path d="M10.9563 7.58504H4.30469C4.40165 7.74019 4.4986 7.87595 4.55677 8.0311C4.7507 8.43836 4.90585 8.92318 4.90585 9.42741C4.90585 9.93164 4.80887 10.4359 4.55677 10.8238C4.45981 10.9789 4.40165 11.1146 4.30469 11.2698H20.0901V7.56567H10.9563M13.613 11.0759L12.5076 10.3195L11.4023 11.1147L11.8095 9.87347L11.2665 9.46624L10.7236 9.05896H12.081L12.4883 7.8178L12.8955 9.05896H14.253L13.71 9.46624L13.167 9.87347L13.613 11.0759Z" fill="#ED4C5C"/>
<path d="M2.46284 12.4917C2.26892 12.5499 2.0556 12.5499 1.82289 12.5499C1.62896 12.5499 1.37685 12.5499 1.18293 12.4917C0.930829 12.4336 0.73691 12.3366 0.484809 12.2396C0.426632 12.4336 0.387861 12.6857 0.329684 12.8796C0.135761 13.8881 0.0387989 14.8771 0.0387989 15.9244C0.0387989 16.8165 0.135747 17.728 0.290885 18.5813H3.68455V11.9875C3.31609 12.2397 2.90887 12.3754 2.46284 12.4917ZM2.90885 17.2238L1.8035 16.4286L0.69812 17.2238L1.10538 15.9826L0 15.1875H1.35747L1.7647 13.9463L2.17196 15.1875H3.52942L2.42405 15.9826L2.90885 17.2238Z" fill="#ED4C5C"/>
<path d="M13.3984 6.38261H20.147V2.98877L13.3984 6.38261Z" fill="#2872A0"/>
<path d="M4.86719 4.94749V5.19961L12.9538 1.14636C9.85104 1.53423 7.05852 2.93057 4.86719 4.94749Z" fill="#2872A0"/>
<path d="M4.86719 18.6394H14.7185L4.86719 13.6941V18.6394Z" fill="#2872A0"/>
<path d="M20.147 15.8853V12.4915H13.3984L20.147 15.8853Z" fill="#2872A0"/>
<path d="M4.75229 8.47729L3.39482 9.42755L2.89062 9.77664L2.98759 10.0288L3.62754 11.9681C3.87965 11.7742 4.13174 11.522 4.32566 11.2699C4.42263 11.1148 4.51957 10.9791 4.57775 10.8239C4.77167 10.4167 4.92682 9.93178 4.92682 9.42755C4.90743 9.07847 4.86864 8.78759 4.75229 8.47729Z" fill="#2872A0"/>
<path d="M4.30602 7.58502C4.11209 7.33291 3.85997 7.08082 3.60787 6.88689C3.51091 6.78992 3.35578 6.73173 3.20064 6.63477C2.85158 7.04203 2.56069 7.48807 2.30859 7.93411L2.50252 8.47714H4.81021C4.75204 8.32199 4.71325 8.18623 4.61629 8.03108C4.51933 7.89533 4.46116 7.74017 4.30602 7.58502Z" fill="#2872A0"/>
<path d="M0.716954 11.4444C0.619992 11.6965 0.561815 11.9486 0.52303 12.1425C0.52303 12.2007 0.523021 12.2395 0.464844 12.2395C0.658767 12.3365 0.910863 12.4334 1.16296 12.4916C1.35689 12.5498 1.57021 12.5498 1.80292 12.5498C2.05502 12.5498 2.24893 12.5498 2.44286 12.4916C2.88888 12.3947 3.29613 12.2007 3.6452 11.9486L1.80292 10.5911L0.716954 11.4444Z" fill="#2872A0"/>
<path d="M21.1977 2.34876C20.8486 2.19361 20.4995 2.05789 20.1505 1.94153V18.6392H0.253906C0.544792 20.2295 1.04899 21.7422 1.8053 23.1385C2.09618 23.6815 2.44523 24.2439 2.81369 24.787C5.5674 28.5299 10.0083 30.9929 15.0115 30.9929C23.3114 30.9929 30.0018 24.3021 30.0018 16.0017C30.0018 9.93161 26.3948 4.69536 21.1977 2.34876Z" fill="#FFCE31"/>
<path d="M3.66652 11.9875L3.02657 10.0482L2.9296 9.79603L3.43382 9.44694L4.79129 8.49668H2.54176L2.38663 7.99243C2.28967 8.14758 2.19271 8.34153 2.09575 8.49668C1.99878 8.65183 1.94061 8.74876 1.90182 8.90391C1.80486 9.05906 1.74667 9.19482 1.64971 9.34997C1.64971 9.40815 1.59155 9.44694 1.59155 9.44694C1.53337 9.50512 1.53337 9.60208 1.49459 9.64087C1.39763 9.8348 1.33944 9.98996 1.24248 10.1839C1.04855 10.5912 0.89342 10.979 0.738281 11.4251L1.84364 10.63L3.66652 11.9875Z" fill="#FFCE31"/>
<path d="M11.8473 9.83477L11.44 11.0759L12.4872 10.3196L13.5926 11.0759L13.1853 9.83477L13.6895 9.42749L14.2325 9.02026H12.8751L12.4678 7.77905L12.0606 9.02026H10.7031L11.2461 9.42749L11.8473 9.83477Z" fill="#FFCE31"/>
<path d="M0.717939 17.2235L1.82329 16.4283L2.92865 17.2235L2.48264 15.9241L3.58799 15.1678H2.23053L1.82329 13.8684L1.41606 15.1678H0.0585938L1.16395 15.9241L0.717939 17.2235Z" fill="#FFCE31"/>
</svg>
