<svg width="30" height="31" viewBox="0 0 30 31" fill="none" xmlns="http://www.w3.org/2000/svg">
<path d="M0 15.0409C0 20.7813 3.23852 25.7848 7.98965 28.2865V1.79517C3.25791 4.29692 0 9.28103 0 15.0409Z" fill="#699635"/>
<path d="M30.0014 15.0409C30.0014 9.30043 26.7629 4.29692 22.0117 1.79517V28.3254C26.7435 25.7848 30.0014 20.7813 30.0014 15.0409Z" fill="#699635"/>
<path d="M15.0085 0.0498047C12.4681 0.0498047 10.1022 0.709181 8.00781 1.79521V28.3254C10.1022 29.4308 12.4487 30.0708 15.0085 30.0708C17.5489 30.0708 19.9147 29.4308 22.0091 28.3254V1.79521C19.8954 0.689787 17.5489 0.0498047 15.0085 0.0498047Z" fill="white"/>
<path d="M15.1464 5.59644C15.0882 6.0037 15.0494 6.44977 15.0494 6.83764C14.8943 6.83764 14.7586 6.89583 14.6422 6.89583C14.6422 6.89583 14.9331 7.05094 14.9912 7.24488V7.30307C14.8943 7.36125 14.6422 7.36126 14.6422 7.36126C14.6422 7.36126 14.9912 7.65218 14.9912 7.76854C14.8943 7.82672 14.5452 7.8655 14.5452 7.8655C14.5452 7.8655 14.9525 8.15637 14.9912 8.31151V8.56364C14.9331 8.56364 14.2931 8.02065 13.8859 8.1564L13.8277 8.21455C13.8859 8.31151 14.4677 8.40849 14.8749 8.75757C14.8749 8.85454 13.6726 8.46666 13.6338 8.69938C13.692 8.75756 14.8749 8.95151 14.9912 9.10666C14.5452 9.10666 13.595 9.0097 13.6338 9.16485C13.5368 9.32 14.5258 9.22303 14.9331 9.35879C15.03 9.51393 15.03 9.61091 14.8361 9.61091C14.4289 9.41698 13.5368 9.26183 13.5368 9.51394C13.6338 9.57212 14.4871 9.57209 14.7779 9.76602C14.3319 9.86299 12.8387 9.57212 12.8387 9.70788C12.8969 9.76606 13.1296 10.0569 13.5368 10.0569C13.9441 10.0569 14.8943 10.2121 14.9331 10.3478C14.8749 10.4448 13.692 10.0957 13.2265 10.2897C12.7223 10.5418 14.6228 10.3866 14.9331 10.6387C15.224 10.9296 14.3319 10.5806 14.3319 10.5806C14.3319 10.5806 12.9744 10.4836 12.8387 10.5224C12.6448 10.6194 12.4315 10.8133 12.4315 10.8133C12.4315 10.8133 12.5866 11.0654 12.6836 11.0072H12.7417L12.6448 11.1624C12.6448 11.1624 14.4483 11.6084 14.8361 11.9575C15.2434 12.3647 12.5866 11.3563 12.5866 11.3563C12.5866 11.3563 11.5394 11.7636 12.6448 11.7636C12.4896 11.9575 12.703 12.0545 12.703 12.0545C12.703 12.0545 14.6034 12.4617 14.7585 12.7526C14.9137 13.0435 13.4592 12.4617 13.1684 12.3066C12.8775 12.1514 11.9661 12.4036 11.9273 12.4617C11.9854 12.5199 12.3733 12.6169 12.3733 12.7139C12.3151 12.8108 11.8691 12.869 11.8303 12.9659C11.8303 13.0629 14.235 13.5672 14.8361 14.1102C15.4761 14.6532 12.9938 13.4702 12.9938 13.4702C12.9938 13.4702 13.149 13.6641 12.9938 13.7223C12.8387 13.7805 12.3539 13.0241 11.5394 13.4702C11.3843 13.6641 12.2375 13.8193 12.4896 13.8193C12.4315 14.0132 12.3345 14.0714 12.6448 14.2653L12.703 14.3235C12.6448 14.3235 12.1018 14.0326 12.063 14.0326L12.1212 14.3817C11.8303 14.1295 11.52 14.0908 11.171 14.3235C11.171 14.3235 11.171 14.5756 11.4618 14.6726C11.2679 15.0216 11.6558 14.9247 12.2569 15.2738C11.3649 15.0217 11.2485 15.4677 11.9079 15.5647C12.5478 15.6616 14.3513 15.7198 14.7585 16.2628C14.8555 16.3598 14.8555 16.418 14.8555 16.4567C14.7973 16.5149 14.1574 16.0495 14.0604 16.0495C14.0604 16.1077 14.0022 16.3016 14.0022 16.3016C13.7501 16.1465 13.498 16.0107 13.149 15.9525C13.0908 16.0107 13.149 16.0495 13.0908 16.1077C12.7999 15.9138 12.5478 15.7586 12.0824 15.7004C12.0824 15.7586 12.0242 15.8556 12.0242 15.8944C12.0242 15.8944 11.6752 15.4483 10.977 15.8944C10.5698 16.1853 12.4702 15.9913 12.7805 16.3404C13.0714 16.6895 12.8387 16.7476 12.8387 16.7476L12.0824 16.4567C12.0824 16.4567 11.1903 16.3016 10.9382 16.5149C10.6861 16.7089 14.6422 17.2131 14.7779 17.7561C14.8749 18.047 13.8277 17.4652 12.9744 17.2131C12.9163 17.3101 12.9163 17.4071 12.8775 17.504C12.8775 17.504 12.5284 17.1549 12.1212 17.0967L12.2182 17.4458C12.2182 17.4458 11.2097 16.9998 10.7249 17.2519C10.2207 17.504 12.4702 17.601 12.6642 17.8531L12.7224 17.9113C12.6642 17.9694 12.0242 17.7174 11.9273 17.8531C11.8303 18.0083 10.7831 17.5622 10.7831 17.7561C10.7831 17.9501 10.9382 18.047 10.9382 18.047C10.9382 18.047 13.1878 18.241 13.2847 18.5512C13.3817 18.8034 12.0436 18.3961 12.0436 18.3961C12.0436 18.3961 11.8885 18.59 11.9854 18.687C11.9273 18.687 11.2291 18.1828 11.2873 18.59C10.9964 18.4931 10.2789 18.144 10.3953 18.3961C10.4922 18.6482 12.3927 19.0361 12.4509 19.0361C12.3927 19.0361 11.5976 19.0943 11.6558 19.327C10.6086 18.687 10.6086 19.0749 10.6086 19.0749C10.5504 19.0749 9.21232 18.7258 10.2595 19.327C10.8025 19.6179 10.9576 19.7343 10.9576 19.773H10.8607L10.9576 20.0639C10.8995 20.0639 10.2013 19.6567 9.94923 19.6567C9.69713 19.5985 8.55299 19.9476 9.79411 20.51C10.9964 21.053 11.7333 20.3548 12.4509 20.4518C13.149 20.5488 13.4593 20.6458 13.4011 20.8591C13.3429 21.053 12.703 20.1609 12.0436 20.9561C11.2873 20.8009 10.8025 20.7039 11.1903 21.247C9.98802 20.8009 9.2511 21.4021 10.7443 21.6542C12.2375 21.7124 13.1878 21.3051 13.1878 21.3051C13.1878 21.3051 13.4399 21.7512 13.7889 21.4603C14.138 21.1694 14.1962 21.5572 14.1962 21.5572L14.5452 21.4021H14.6422V24.4469H15.8833C15.8833 24.4469 15.4761 21.79 15.6894 21.4409C15.9027 21.0918 16.0966 21.15 16.0966 21.15C16.0966 21.15 16.8917 21.4021 16.9887 21.3439C17.0469 21.2857 16.9887 21.053 17.3959 21.0918C17.551 21.0336 17.4929 20.8397 17.5511 20.8009C17.7062 20.8009 20.1496 21.4991 20.6538 20.8009C20.4987 20.4518 20.0527 20.7427 19.8975 20.8009C19.8006 20.8009 19.2964 20.5488 19.0055 20.8009C18.7534 20.607 17.6092 20.51 17.6092 20.51C17.4541 20.3549 20.363 20.607 20.5569 20.4518C20.9059 20.1027 19.9169 20.1609 19.7618 20.2579C19.5097 20.1027 19.1606 20.1027 18.9667 20.1997C18.8697 19.9476 17.9195 20.0445 17.4153 20.0058C17.2602 19.9088 17.2602 19.8506 17.3571 19.8118C18.4625 19.87 19.5485 20.0058 20.6538 19.967C20.9447 19.5597 20.2466 19.424 19.8587 19.773C19.6066 19.3658 19.1024 19.773 18.8116 19.7148C18.4625 19.6567 18.6176 19.2688 19.0636 19.3076C19.4709 19.3658 20.2078 19.2494 20.363 19.1137C20.5181 18.9197 20.266 18.7064 19.5678 18.9197C19.3157 18.6676 18.8116 18.9197 18.5595 19.0167C18.2686 18.8228 17.5123 18.9585 17.2602 19.0749C17.0081 18.9197 18.5595 18.6676 18.5595 18.6676C19.1606 18.6676 19.5097 18.5706 19.7036 18.5125C20.5957 18.0082 19.7036 17.9695 19.1994 18.3185C18.9085 18.0664 18.5982 18.3185 18.3461 18.4155C18.094 18.5125 17.648 18.5706 17.5898 18.5125C17.648 18.4543 18.288 18.0082 18.288 18.0082C18.288 18.0082 19.18 17.95 19.3351 17.9113C19.4321 17.9113 19.8393 17.7174 19.8393 17.6592C19.8393 17.601 19.6842 17.601 19.1994 17.7561C18.7534 17.8143 18.5013 17.7561 18.3461 17.8143C18.094 17.7561 17.9389 17.7561 17.9389 17.7173C17.9971 17.6591 18.4431 17.6204 18.4431 17.6204C18.4431 17.6204 19.7424 17.5234 19.8006 17.4264C19.8587 16.9222 18.6952 17.1355 18.6952 17.1355C18.6952 16.7864 17.6868 17.1355 17.648 17.1355L17.5898 17.0385V16.9804C17.648 16.8834 17.7838 16.8252 17.7838 16.8252C18.0746 16.7671 18.4819 16.7283 18.5788 16.6313C18.5788 16.6313 19.3739 16.6313 19.4709 16.4374C19.277 15.8944 17.8225 16.5343 17.6286 16.6313L17.5316 16.5731C17.4735 16.4762 17.7838 16.1658 17.7838 16.1658C17.8419 16.1658 19.0249 16.1077 19.5873 15.3126C19.6454 14.8665 18.9473 15.5647 18.9473 15.5647C18.8891 14.9635 18.1522 15.6229 17.745 15.6616C17.3377 15.7198 17.2989 15.4677 17.5898 15.4095C17.8807 15.3513 18.191 15.4095 18.3849 14.9635C18.5401 14.5174 19.0249 15.0216 19.1412 14.8083C19.2382 14.6532 18.9861 14.5174 18.9473 14.5174C18.9473 14.5174 19.2964 14.1102 18.6952 14.1684C18.094 14.1684 17.3377 14.1102 17.3377 14.0714C17.3959 14.0714 17.9777 13.8193 18.5401 13.8193C19.1412 13.8193 18.7922 13.412 18.2492 13.412C17.7062 13.412 17.3959 13.2181 17.3959 13.2181C17.6868 13.1211 18.0359 12.9659 18.3461 12.869C18.3461 12.772 18.288 12.6751 18.288 12.6169C18.288 12.6169 18.831 12.1708 18.0359 12.2678C17.2408 12.3648 17.2408 12.4617 17.2408 12.4617L15.6506 12.7139C15.6506 12.7139 15.4955 12.6557 15.4567 12.6169C15.4567 12.5587 15.5148 12.5587 15.6506 12.5199C16.0578 12.423 17.4929 12.1127 17.7062 12.229H17.7644C17.8613 12.1708 17.5704 11.686 16.9111 11.6278C16.1548 11.5308 15.67 11.8217 15.67 11.8217C15.67 11.8217 15.1658 11.6278 15.6118 11.4726C16.0578 11.3175 16.8141 11.5308 16.8141 11.5308C16.8141 11.5308 17.6092 11.2787 16.9693 11.1817C16.3293 11.0848 16.0772 11.2787 15.7669 11.2787C15.67 11.1236 16.8141 11.0848 16.9111 10.9878C16.8141 10.7357 16.0578 10.9878 15.6118 10.9878C15.4179 10.8908 15.4179 10.7939 15.6118 10.6969H16.9111V9.94059C16.3681 9.84362 15.7088 9.99878 15.4179 9.99878C15.5149 9.74666 16.7172 9.70786 16.8141 9.5915C17.0662 9.24242 15.67 9.5915 15.6118 9.5915C15.3597 9.53332 15.3597 9.39756 15.5149 9.3006C15.8639 9.24242 16.7172 9.35878 16.659 9.10666C16.6008 8.85455 16.116 9.00969 15.8639 9.04847C15.67 9.10665 15.3209 9.04847 15.3209 9.04847C15.1658 8.85454 16.562 8.9515 16.562 8.79635C16.562 8.6412 15.67 8.73821 15.4179 8.73821C15.224 8.58306 16.5232 8.48608 16.562 8.48608C16.6202 8.07882 15.67 8.48608 15.5149 8.48608H15.4567C15.3985 8.4279 15.4567 8.23396 15.4567 8.23396L15.8057 8.04002L15.5149 7.94306V7.65216C15.5149 7.65216 15.767 7.45822 15.8057 7.36126C15.7476 7.30307 15.4567 7.41944 15.4567 7.41944V7.16732C15.4567 7.16732 15.7088 7.10913 15.7088 7.01216C15.6506 6.95398 15.4179 6.9152 15.4179 6.9152C15.2434 6.44976 15.2046 5.9843 15.1464 5.59644ZM14.9525 9.8824V10.0763C14.9525 10.0763 14.6616 10.0763 14.6034 10.0181C14.7004 9.94057 14.8943 9.94058 14.9525 9.8824ZM15.3597 10.1345C15.3597 10.1345 15.9027 10.1345 15.9609 10.2315C15.9027 10.3285 15.3597 10.3866 15.3597 10.3866V10.1345ZM15.3015 10.4836L15.5924 10.5418C15.5342 10.5999 15.3403 10.5999 15.3403 10.5999L15.3015 10.4836ZM13.595 10.9296C13.7889 10.9296 14.138 10.9878 14.7973 11.1236V11.3175C14.7973 11.3175 13.5562 10.9684 13.4399 10.9684C13.4593 10.9878 13.498 10.9296 13.595 10.9296ZM14.2544 11.4339C14.4483 11.4339 14.8943 11.5308 14.9525 11.5308V11.783C14.8943 11.783 14.1962 11.5308 14.1962 11.4921L14.2544 11.4339ZM16.1548 11.9381C16.3487 11.9381 16.4457 11.9381 16.4069 11.9963C16.2518 12.1514 15.3597 12.2872 15.3597 12.2872V11.9963C15.3985 11.9963 15.8445 11.9381 16.1548 11.9381ZM13.498 12.7914C13.6532 12.7914 14.0022 12.8884 14.8555 13.1987V13.3926C14.8555 13.3926 13.498 12.9853 13.4592 12.8884C13.4011 12.9466 13.3429 12.8302 13.498 12.7914ZM16.1936 13.0823H16.2906C16.1354 13.2375 15.4954 13.3732 15.4954 13.3732V13.1793C15.4954 13.2375 15.9997 13.1405 16.1936 13.0823ZM13.2072 13.1405C13.4011 13.1405 13.8471 13.2374 14.9137 13.7417V13.9356C14.8555 13.9356 13.0714 13.2957 13.0714 13.2957C13.052 13.2375 12.9938 13.1405 13.2072 13.1405ZM16.659 13.9356H16.756C16.6008 14.0908 15.5536 14.2265 15.5149 14.2847V14.1295C15.5536 14.1295 16.3487 13.9356 16.659 13.9356ZM13.5562 14.3817C13.8471 14.3817 14.7973 14.7889 14.8555 14.8277V15.0217C14.7973 15.0217 13.5562 14.4786 13.498 14.5174C13.4593 14.4398 13.498 14.3817 13.5562 14.3817ZM16.3487 14.4786H16.5039C16.4069 14.5756 15.4954 14.7308 15.4954 14.7308V14.5368C15.4954 14.595 16.0966 14.4786 16.3487 14.4786ZM16.3099 15.0798H16.4069C16.3099 15.1768 15.5536 15.332 15.5536 15.332V15.138C15.5536 15.138 16.0578 15.0798 16.3099 15.0798ZM13.1102 15.0798C13.3041 15.0798 13.7501 15.138 14.8555 15.5259L14.9137 15.7198C14.9137 15.7198 13.0714 15.1186 13.0132 15.1186L13.1102 15.0798ZM15.5536 15.584C15.5536 15.584 15.9027 15.5841 15.9609 15.6422C15.9027 15.7004 15.6118 15.7392 15.6118 15.7392C15.6118 15.7392 15.5536 15.6422 15.5536 15.584ZM16.3099 15.9913C16.3681 15.9913 16.4069 15.9913 16.4651 16.0495L16.4069 16.1077C16.1548 16.3016 15.5536 16.3598 15.5536 16.3598V16.1077C15.5536 16.1271 16.0578 15.9913 16.3099 15.9913ZM17.0468 16.2434C17.1438 16.2434 17.202 16.2435 17.202 16.3016L17.1438 16.3986C17.0468 16.4956 15.5924 16.9416 15.5924 16.9416V16.5925C16.4457 16.3404 16.8529 16.2434 17.0468 16.2434ZM16.0966 17.0774H16.2906C16.1936 17.1743 15.5924 17.2325 15.5924 17.2325V17.0774C15.6506 17.1356 15.9027 17.0774 16.0966 17.0774ZM16.6978 17.3295C16.5039 17.5234 15.5924 17.7367 15.5924 17.7367V17.5816C15.5924 17.5816 16.5039 17.3295 16.6978 17.3295ZM17.202 17.5428C17.2989 17.5428 17.3959 17.5428 17.4541 17.601C17.4541 17.6592 17.3959 17.7949 17.1632 17.8531C16.8723 17.7949 15.6118 18.2022 15.573 18.2022V18.047C15.9997 17.7367 16.7947 17.5428 17.202 17.5428ZM14.0022 18.241C14.5452 18.2992 14.7585 18.4931 14.7973 18.59C14.7004 18.784 13.8471 18.3379 13.9053 18.241H14.0022ZM17.105 18.2798H17.1632V18.3379C17.105 18.4349 16.8141 18.3961 16.8141 18.3961C16.8529 18.3767 17.0081 18.2798 17.105 18.2798ZM15.9415 18.8809H16.0384V18.9391C15.9415 19.0943 15.5924 19.0361 15.5924 19.0361V18.9391C15.5924 18.9391 15.8057 18.8809 15.9415 18.8809ZM13.7501 19.2882C13.8471 19.2882 13.9441 19.3464 14.041 19.4434C14.2931 19.3852 14.7392 19.5016 14.7392 19.5016V19.6955C14.681 19.6955 14.138 19.6955 13.9829 19.5985C13.8859 19.5985 13.5756 19.4434 13.5756 19.3464L13.7501 19.2882ZM16.1936 19.3852C16.2906 19.3852 16.3487 19.3852 16.2518 19.4821C16.0578 19.7343 15.5536 19.6373 15.5536 19.6373V19.4821C15.7476 19.4821 16.0578 19.3852 16.1936 19.3852ZM14.3513 19.9282C14.5452 19.9282 14.7585 19.9864 14.7585 19.9864C14.7585 19.9864 14.8555 20.1803 14.7585 20.2773C14.6616 20.3355 14.1186 20.2191 14.0604 20.0252C14.1574 19.9864 14.2544 19.9282 14.3513 19.9282ZM12.2957 20.0252C12.4896 20.0252 12.703 20.1221 12.703 20.1221V20.3161C12.703 20.3161 12.3539 20.2191 12.1987 20.0252H12.2957ZM15.7476 20.0834C15.9415 20.0834 16.1936 20.1415 16.2518 20.1803V20.2385C16.1548 20.3354 15.5536 20.2385 15.5536 20.2385V20.0834H15.7476Z" fill="#699635"/>
</svg>
