<svg width="30" height="31" viewBox="0 0 30 31" fill="none" xmlns="http://www.w3.org/2000/svg">
<path d="M15 30.3248C23.2843 30.3248 30 23.6088 30 15.324C30 7.03934 23.2843 0.323242 15 0.323242C6.71573 0.323242 0 7.03934 0 15.324C0 23.6088 6.71573 30.3248 15 30.3248Z" fill="#0071BC"/>
<path d="M17.6966 23.2802L17.1533 19.1274L16.5129 13.325C16.5129 13.325 16.4547 12.9175 16.4547 12.5682C16.3965 12.1606 16.2994 12.0636 16.2024 11.9666H16.1442C16.998 11.6172 16.901 10.5111 16.901 10.5111C16.901 10.5111 17.1533 10.22 17.0951 9.65726C17.0368 9.1139 16.1442 9.05566 16.1442 9.05566C16.1442 9.05566 14.2037 8.99744 13.5439 9.05566C12.9036 9.11388 12.7872 9.59904 12.7872 9.59904C12.7872 9.59904 12.8454 10.2394 13.0394 11.1515C13.2335 12.0442 13.641 11.9472 13.641 11.9472C13.2917 12.0442 13.2335 12.898 13.2335 12.898L12.5931 18.9915L11.8945 23.843C11.8945 23.843 11.9916 24.3475 12.6514 24.5416C12.7484 24.8909 13.2529 25.085 13.4469 25.085C13.641 25.1432 14.1455 24.9297 14.456 24.8909C14.747 24.8327 15.2128 25.0462 15.3486 25.085C15.5039 25.085 16.998 24.9298 17.2503 24.3282C17.6578 24.27 17.7548 23.8236 17.7548 23.8236L17.6966 23.2802Z" fill="#8C8A8C"/>
<path d="M24.6428 14.9746C24.6428 14.9746 25.5355 14.082 24.4488 13.1699C24.9533 12.2773 24.3518 12.0249 24.3518 12.0249C24.3518 12.0249 24.6429 11.2681 23.8473 11.2681C24.2548 10.6665 23.3427 10.0261 23.3427 10.0261C23.3427 10.0261 23.498 9.13346 22.1396 9.01702C22.4889 7.52277 20.9948 7.87209 20.9948 7.87209C20.9948 7.87209 21.2858 6.63008 19.3453 6.82414C18.9378 5.77622 18.0452 6.22259 18.0452 6.22259C18.0452 6.22259 17.5018 5.46575 16.8421 5.87327C16.3376 5.27169 15.6972 5.71802 15.542 5.81504C15.0374 5.71802 14.3001 5.11643 13.9508 5.71802C13.6597 5.62099 13.0969 5.9703 13.0969 5.9703C13.0969 5.9703 12.2043 5.36873 11.6028 6.51368C10.3997 6.06734 10.1474 7.0182 10.1474 7.0182C10.1474 7.0182 9.29358 6.86297 9.04132 7.65861C7.7994 7.56158 7.7412 8.45427 7.7412 8.45427C7.7412 8.45427 6.94558 8.51247 6.84855 9.5992C5.70366 10.0455 6.09178 11.1517 6.09178 11.1517C6.09178 11.1517 5.29617 11.501 5.45141 12.8594C4.55878 13.4998 5.45141 14.4119 5.45141 14.4119C5.45141 14.4119 4.75282 14.8582 5.39319 15.8091C4.53937 16.4495 5.64546 17.0511 5.64546 17.0511C5.64546 17.0511 5.14093 17.5945 5.93653 18.099C5.49022 19.2052 6.34405 19.2051 6.47988 19.2439C6.42166 19.438 6.5381 19.6515 6.73215 19.6903C6.73215 19.6903 6.67391 20.6412 7.62475 20.5442C7.46951 20.9517 7.87702 21.0875 7.87702 21.0875C7.87702 21.0875 7.87704 21.8832 8.76967 21.6891C8.96372 22.4459 9.41 22.2907 9.46822 22.2907C9.46822 22.2907 9.17713 23.1834 10.5743 23.2416C11.1758 23.882 11.9715 23.882 11.9715 23.882C11.9715 23.882 12.5148 21.4368 12.379 21.0875C12.2819 20.7382 11.3311 20.9905 11.3311 20.9905C11.3311 20.9905 11.1758 20.2337 10.1862 20.2337C10.3802 19.7873 9.83694 19.7873 9.83694 19.7873C9.83694 19.7873 10.3803 19.147 9.23537 18.9917C9.39061 18.2349 9.08012 18.2931 8.69202 18.1378C8.69202 17.8467 8.8861 17.381 8.28454 17.1869C8.82788 16.4883 7.99347 16.139 7.99347 16.139C7.99347 16.139 8.43977 15.0911 7.83822 14.9358C8.47858 14.2954 7.99347 13.6939 7.99347 13.6939C7.99347 13.6939 8.43975 13.1893 8.2457 12.743C8.69201 12.4907 8.65322 11.7339 8.65322 11.7339C8.65322 11.7339 9.15776 11.5786 9.29359 10.8412C10.3026 10.686 10.1862 9.98732 10.1862 9.98732C10.1862 9.98732 11.04 9.98734 11.1953 9.23051C11.8939 9.42457 12.3402 8.62891 12.3402 8.62891C12.3402 8.62891 12.8835 8.88117 13.4462 8.27959C13.7955 8.78414 14.8046 8.12438 14.8046 8.12438C14.8046 8.12438 15.2509 8.62893 16.0077 8.12438C16.4152 8.72596 17.0556 8.41547 17.0556 8.41547C17.0556 8.41547 17.2496 8.82299 17.6959 8.60953C17.9482 9.5022 19.0931 9.15286 19.0931 9.15286C19.0931 9.15286 19.1513 9.75446 19.7528 9.65743C19.8498 10.4143 20.7619 10.259 20.7619 10.259C20.7619 10.259 20.8589 11.2099 21.4605 11.3069C21.2082 12.1608 21.9068 12.316 21.9068 12.316C21.9068 12.316 21.7127 12.9176 22.3531 13.461C21.7515 13.8103 22.4113 15.0135 22.4501 15.0135C22.4501 15.0135 21.9068 15.6151 22.2949 16.3719C21.6545 16.566 21.7515 17.5751 21.7515 17.5751C21.7515 17.5751 21.1112 18.0796 21.1112 18.72C20.0633 18.9141 20.1603 19.865 20.1603 19.865C20.1603 19.865 19.3647 19.9232 19.1124 20.7576C18.4139 20.6024 17.6183 21.4174 17.6183 21.4174L17.9093 23.5715C17.9676 23.5715 19.4035 23.8626 19.714 22.8729C20.9559 23.2222 21.0724 21.9802 21.0724 21.9802C21.0724 21.9802 22.0814 21.922 22.1202 21.2234C23.071 20.7771 22.8188 20.3307 22.8188 20.3307C22.8188 20.3307 23.7696 20.2337 23.7696 19.1858C24.5264 18.9335 24.3712 18.0796 24.3712 18.0796C24.3712 18.0796 25.0116 17.7303 24.8757 16.4301C25.2444 15.6733 24.6428 14.9746 24.6428 14.9746Z" fill="white"/>
<path d="M14.9025 17.4197L18.2596 19.826L17.0177 15.9254L20.3747 13.4803H16.222L14.9219 9.52148L13.68 13.4803H9.52734L12.8844 15.9254L11.6425 19.826L14.9025 17.4197Z" fill="white"/>
<path d="M17.6602 22.7178C17.6602 22.7178 21.9681 21.5146 23.2682 16.2168C22.5114 21.6699 17.8154 23.3582 17.8154 23.3582L17.6602 22.7178Z" fill="#FFCE31"/>
<path d="M12.0108 22.621C12.0108 22.621 7.76107 21.379 6.46094 16.0229C7.21773 21.5148 11.8555 23.2808 11.8555 23.2808L12.0108 22.621Z" fill="#FFCE31"/>
<path d="M23.4034 14.2178H23.0541L22.957 14.6641L23.1511 15.0716L23.5004 15.0134L23.5974 14.6059L23.4034 14.2178Z" fill="#ED4C5C"/>
<path d="M23.4613 14.1791L23.5583 13.7327L23.3061 13.3252L23.015 13.3834L22.918 13.8298L23.112 14.2373L23.4613 14.1791Z" fill="#ED4C5C"/>
<path d="M23.3048 13.2282L23.363 12.7819L23.1108 12.4326L22.8197 12.4908L22.7227 12.9371L22.9749 13.3447L23.3048 13.2282Z" fill="#ED4C5C"/>
<path d="M23.1127 12.2775L23.0544 11.8311L22.7051 11.54L22.4141 11.6953L22.4723 12.1416L22.8216 12.4327L23.1127 12.2775Z" fill="#ED4C5C"/>
<path d="M22.761 11.4815L22.7028 11.0352L22.3536 10.7441L22.0625 10.8994L22.1207 11.3457L22.47 11.6368L22.761 11.4815Z" fill="#ED4C5C"/>
<path d="M22.199 10.2784L21.8497 9.9873L21.5586 10.1814L21.6556 10.6277L22.0049 10.88L22.296 10.7247L22.199 10.2784Z" fill="#ED4C5C"/>
<path d="M21.6558 9.48263L21.2483 9.28857L20.9961 9.48263L21.1513 9.92893L21.5006 10.123L21.7917 9.92893L21.6558 9.48263Z" fill="#ED4C5C"/>
<path d="M20.9957 8.76507L20.5882 8.60986L20.3359 8.8621L20.53 9.26965L20.9375 9.4249L21.1898 9.23084L20.9957 8.76507Z" fill="#ED4C5C"/>
<path d="M20.2578 8.12437L19.8503 8.02734L19.6562 8.27958L19.8503 8.68713L20.2966 8.78416L20.4907 8.53187L20.2578 8.12437Z" fill="#ED4C5C"/>
<path d="M19.5039 7.61975L19.0576 7.56152L18.9023 7.81381L19.1546 8.22135L19.6009 8.27953L19.7949 7.98844L19.5039 7.61975Z" fill="#ED4C5C"/>
<path d="M18.6098 7.17346L18.1634 7.11523L18.0664 7.40632L18.3575 7.75564H18.8038L18.9591 7.46455L18.6098 7.17346Z" fill="#ED4C5C"/>
<path d="M17.7542 6.82422H17.308L17.2109 7.11531L17.5602 7.4064H18.0065L18.1035 7.11531L17.7542 6.82422Z" fill="#ED4C5C"/>
<path d="M16.9027 6.5332L16.4564 6.59143L16.3594 6.94075L16.7087 7.19303L17.155 7.13481L17.252 6.84372L16.9027 6.5332Z" fill="#ED4C5C"/>
<path d="M15.5035 6.47496L15.4453 6.82423L15.8528 7.01829L16.2991 6.92126L16.3573 6.57199L15.9499 6.37793L15.5035 6.47496Z" fill="#ED4C5C"/>
<path d="M14.6129 6.47475L14.5547 6.82402L15.001 6.97927L15.4085 6.82402V6.53293L15.001 6.33887L14.6129 6.47475Z" fill="#ED4C5C"/>
<path d="M13.6992 6.53303V6.82412L14.1067 7.01818L14.553 6.86297V6.51366L14.1455 6.3584L13.6992 6.53303Z" fill="#ED4C5C"/>
<path d="M13.1575 6.4751L12.75 6.72734L12.847 7.07665L13.2933 7.13488L13.6426 6.88259L13.5844 6.53328L13.1575 6.4751Z" fill="#ED4C5C"/>
<path d="M12.2048 6.72705L11.8555 6.97934L11.9525 7.32865H12.3988L12.7481 7.07637L12.6511 6.72705H12.2048Z" fill="#ED4C5C"/>
<path d="M11.3536 7.07629L11.0625 7.36738L11.2177 7.7167L11.6641 7.65847L11.9551 7.30916L11.7999 7.01807L11.3536 7.07629Z" fill="#ED4C5C"/>
<path d="M10.5567 7.46448L10.2656 7.81379L10.4209 8.10488L10.8671 8.04666L11.1582 7.69734L11.003 7.40625L10.5567 7.46448Z" fill="#ED4C5C"/>
<path d="M9.76009 8.02769L9.50781 8.43519L9.70186 8.68748L10.1482 8.59045L10.4005 8.1829L10.2064 7.93066L9.76009 8.02769Z" fill="#ED4C5C"/>
<path d="M9.00264 8.57074L8.80859 8.97828L9.00264 9.23057L9.44896 9.07531L9.64301 8.66777L9.44896 8.41553L9.00264 8.57074Z" fill="#ED4C5C"/>
<path d="M8.3427 9.26925L8.1875 9.6768L8.38155 9.92904L8.82782 9.73498L8.98307 9.32748L8.78902 9.0752L8.3427 9.26925Z" fill="#ED4C5C"/>
<path d="M7.79978 10.0262L7.64453 10.4337L7.8968 10.686L8.30428 10.492L8.45953 10.0456L8.20725 9.85156L7.79978 10.0262Z" fill="#ED4C5C"/>
<path d="M7.29624 10.783L7.19922 11.2294L7.45149 11.4235L7.85897 11.1712L7.95599 10.7248L7.66492 10.5308L7.29624 10.783Z" fill="#ED4C5C"/>
<path d="M6.85156 11.6759V12.1223L7.14264 12.2775L7.49193 11.9282V11.4819L7.20086 11.3267L6.85156 11.6759Z" fill="#ED4C5C"/>
<path d="M6.84967 12.2192L6.55859 12.5686V13.0149L6.84967 13.1119L7.14074 12.7626V12.3163L6.84967 12.2192Z" fill="#ED4C5C"/>
<path d="M6.9099 13.17L6.5606 13.1118L6.30833 13.4611L6.40536 13.9074L6.5606 13.9657H6.46358L6.26953 14.315L6.36656 14.6061L6.71585 14.6643L6.9099 14.315L6.81288 14.0239L6.75465 13.9657L6.9487 13.6163L6.9099 13.17Z" fill="#ED4C5C"/>
<path d="M22.8984 13.0728L23.2477 12.9758L22.9955 12.6265L22.8984 13.0728Z" fill="#FFCE31"/>
<path d="M23.1094 13.9657L23.4004 13.9075L23.2064 13.5L23.1094 13.9657Z" fill="#FFCE31"/>
<path d="M22.7027 12.2771L22.9938 12.0831L22.6445 11.792L22.7027 12.2771Z" fill="#FFCE31"/>
<path d="M22.2965 11.4234L22.5876 11.2293L22.2383 10.9771L22.2965 11.4234Z" fill="#FFCE31"/>
<path d="M21.3466 9.92921L21.5989 9.67697L21.1914 9.48291L21.3466 9.92921Z" fill="#FFCE31"/>
<path d="M20.706 9.26959L20.9583 9.0173L20.5508 8.82324L20.706 9.26959Z" fill="#FFCE31"/>
<path d="M19.346 8.12422L19.5401 7.83313L19.0938 7.7749L19.346 8.12422Z" fill="#FFCE31"/>
<path d="M20.0455 8.66798L20.2395 8.37689L19.832 8.22168L20.0455 8.66798Z" fill="#FFCE31"/>
<path d="M18.611 7.71711L18.708 7.3678L18.2617 7.30957L18.611 7.71711Z" fill="#FFCE31"/>
<path d="M17.7943 7.36738L17.8525 7.01807H17.4062L17.7943 7.36738Z" fill="#FFCE31"/>
<path d="M16.8998 7.07637L16.958 6.72705L16.5117 6.82408L16.8998 7.07637Z" fill="#FFCE31"/>
<path d="M13.4069 6.97957L13.3099 6.68848L12.9023 6.88254L13.4069 6.97957Z" fill="#FFCE31"/>
<path d="M14.2431 6.88252L14.1849 6.5332L13.7773 6.72726L14.2431 6.88252Z" fill="#FFCE31"/>
<path d="M10.9073 7.93025L10.7132 7.63916L10.4609 7.98843L10.9073 7.93025Z" fill="#FFCE31"/>
<path d="M11.6998 7.52302L11.5446 7.23193L11.1953 7.52302H11.6998Z" fill="#FFCE31"/>
<path d="M9.45023 8.92013L9.19796 8.72607L9.00391 9.13362L9.45023 8.92013Z" fill="#FFCE31"/>
<path d="M10.149 8.37675L9.89676 8.12451L9.64453 8.47378L10.149 8.37675Z" fill="#FFCE31"/>
<path d="M8.80987 9.57992L8.55759 9.32764L8.40234 9.77398L8.80987 9.57992Z" fill="#FFCE31"/>
<path d="M8.24747 10.2785L7.9564 10.0845L7.85938 10.5308L8.24747 10.2785Z" fill="#FFCE31"/>
<path d="M7.80205 11.0161L7.45276 10.8608L7.39453 11.3072L7.80205 11.0161Z" fill="#FFCE31"/>
<path d="M7.39227 11.8309L7.04297 11.7339V12.1414L7.39227 11.8309Z" fill="#FFCE31"/>
<path d="M7.04461 12.6266L6.69531 12.5684L6.79234 13.0147L7.04461 12.6266Z" fill="#FFCE31"/>
<path d="M6.8493 13.5191L6.5 13.4609L6.59702 13.9072L6.8493 13.5191Z" fill="#FFCE31"/>
<path d="M6.75164 14.2764H6.40234L6.55759 14.6257L6.75164 14.2764Z" fill="#FFCE31"/>
<path d="M21.9482 10.6666L22.2005 10.4725L21.793 10.2202L21.9482 10.6666Z" fill="#FFCE31"/>
<path d="M23.207 14.9167L23.4981 14.8197L23.3041 14.4121L23.207 14.9167Z" fill="#FFCE31"/>
<path d="M17.25 8.41562L17.9485 7.71699L17.4052 7.36768L17.25 8.41562Z" fill="#FFCE31"/>
<path d="M12.4977 8.57099L12.75 7.62012H12.1484L12.4977 8.57099Z" fill="#FFCE31"/>
<path d="M11.5446 8.88154L11.8356 7.93066H11.1953L11.5446 8.88154Z" fill="#FFCE31"/>
<path d="M10.4976 9.17255L10.7887 8.22168H10.1289L10.4976 9.17255Z" fill="#FFCE31"/>
<path d="M9.79825 9.92939L10.0505 8.97852H9.41016L9.79825 9.92939Z" fill="#FFCE31"/>
<path d="M9.00555 10.6276L9.25782 9.67676H8.65625L9.00555 10.6276Z" fill="#FFCE31"/>
<path d="M10.8092 6.5332L10.3047 7.38709L10.9063 7.54235L10.8092 6.5332Z" fill="#FFCE31"/>
<path d="M12.36 6.02881L11.8555 6.88265L12.457 7.07671L12.36 6.02881Z" fill="#FFCE31"/>
<path d="M6.55859 10.2202L7.06314 11.0741L7.50946 10.6278L6.55859 10.2202Z" fill="#FFCE31"/>
<path d="M5.80078 12.1802L6.15008 13.131L6.65458 12.7236L5.80078 12.1802Z" fill="#FFCE31"/>
<path d="M7.60649 14.4317L6.90789 13.6748L6.55859 14.1794L7.60649 14.4317Z" fill="#FFCE31"/>
<path d="M7.20086 13.4221L7.49193 12.4712H6.85156L7.20086 13.4221Z" fill="#FFCE31"/>
<path d="M18.3555 8.88132L19.0541 8.18269L18.5107 7.8916L18.3555 8.88132Z" fill="#FFCE31"/>
<path d="M20.0049 9.71564L20.199 8.70654L19.5586 8.76472L20.0049 9.71564Z" fill="#FFCE31"/>
<path d="M24.4502 14.3149L23.7516 13.5581L23.4023 14.0626L24.4502 14.3149Z" fill="#FFCE31"/>
<path d="M22.2578 14.6838L22.6653 13.7329L23.1698 14.1405L22.2578 14.6838Z" fill="#FFCE31"/>
<path d="M21.9075 8.37646H20.8984L21.0925 8.97807L21.9075 8.37646Z" fill="#FFCE31"/>
<path d="M20.6458 7.32861H19.6367L19.7919 7.93022L20.6458 7.32861Z" fill="#FFCE31"/>
<path d="M18.7467 6.31982L18.2422 7.17367L18.8438 7.32892L18.7467 6.31982Z" fill="#FFCE31"/>
<path d="M17.5625 6.02881V7.03791L18.1641 6.88265L17.5625 6.02881Z" fill="#FFCE31"/>
<path d="M14.0488 8.12449L14.3399 7.2318L13.7383 7.13477L14.0488 8.12449Z" fill="#FFCE31"/>
<path d="M21.3057 11.0158L21.4609 10.0649H20.8594L21.3057 11.0158Z" fill="#FFCE31"/>
<path d="M8.30567 9.58008C8.8102 10.0846 7.80115 11.3848 8.3639 12.1805C8.30568 11.8311 8.8102 9.58008 8.30567 9.58008Z" fill="#699635"/>
<path d="M8.1484 9.71582C7.39161 10.4144 7.60509 11.8699 7.54688 12.8208C7.60509 12.5297 8.40066 9.9681 8.1484 9.71582Z" fill="#699635"/>
<path d="M22.0055 9.96826C21.5592 9.96826 22.0055 12.3746 21.8502 12.7627C22.607 11.9671 21.4621 10.531 22.0055 9.96826Z" fill="#699635"/>
<path d="M22.6077 11.3652C21.8121 12.3743 23.2481 13.17 23.2093 14.1597C23.2481 13.1312 22.4525 12.3743 22.6077 11.3652Z" fill="#699635"/>
<path d="M15.4469 6.66901C15.1947 6.47495 14.8066 6.41669 14.4961 6.82422C15.3887 6.63016 15.6992 7.6199 15.1364 8.22148C15.8932 8.02742 15.932 7.32877 15.641 6.92125C16.1843 7.07649 16.3978 7.56168 16.3396 8.22148C17.3098 7.71693 16.2037 6.22267 15.4469 6.66901Z" fill="#699635"/>
<path d="M23.4621 15.2656C23.3069 16.1195 22.5112 18.2153 23.0546 18.9722C22.8993 18.4676 23.3457 17.5167 23.5009 17.0316C23.5009 17.3227 23.5009 17.6331 23.6949 17.8854C23.3457 16.9733 24.2577 16.2747 23.4621 15.2656ZM23.4621 15.3239C23.6173 15.6149 23.6173 15.9643 23.6173 16.2748C23.5591 15.9255 23.4621 15.6732 23.4621 15.3239Z" fill="#699635"/>
<path d="M6.65766 19.0692C7.25921 18.2154 6.3084 16.3718 6.15316 15.4209C6.05613 16.7211 6.8129 17.8272 6.65766 19.0692Z" fill="#699635"/>
<path d="M6.20792 18.7203C6.80947 17.8664 5.70343 16.5662 6.14974 15.4795C5.04366 16.7797 6.65423 17.5171 6.20792 18.7203Z" fill="#699635"/>
</svg>
