<svg width="30" height="31" viewBox="0 0 30 31" fill="none" xmlns="http://www.w3.org/2000/svg">
<path d="M14.9902 0.150391C9.84453 0.150391 5.33965 2.69422 2.64062 6.65559H27.3591C24.6601 2.69422 20.1552 0.150391 14.9902 0.150391Z" fill="#2A5F9E"/>
<path d="M14.99 30.1715C20.1356 30.1715 24.6405 27.6276 27.3395 23.6663H2.62109C5.33954 27.6276 9.84439 30.1715 14.99 30.1715Z" fill="#2A5F9E"/>
<path d="M28.5048 8.65576H1.49514C0.54368 10.5976 0 12.8113 0 15.161C0 17.5106 0.54368 19.7049 1.49514 21.6662H28.5048C29.4563 19.7243 30 17.5106 30 15.161C30 12.8113 29.4563 10.617 28.5048 8.65576Z" fill="#ED4C5C"/>
<path d="M1.49609 21.6663C1.84561 22.3653 2.25336 23.0256 2.64171 23.6664H27.3602C27.8068 23.0256 28.2145 22.3653 28.5058 21.6663H1.49609Z" fill="white"/>
<path d="M28.5058 8.65563C28.1563 7.95657 27.7485 7.29633 27.3602 6.65552H2.64171C2.1951 7.29633 1.78736 7.95657 1.49609 8.65563H28.5058Z" fill="white"/>
<path d="M13.089 17.2579C14.2504 14.4538 12.9189 11.239 10.115 10.0775C7.31107 8.91601 4.09648 10.2476 2.93503 13.0517C1.77358 15.8557 3.10507 19.0705 5.909 20.232C8.71294 21.3935 11.9275 20.062 13.089 17.2579Z" fill="white"/>
<path d="M8.00002 17.1221L10.4466 19.0251L9.55342 15.9764L12 14.0734H8.95146L8.00002 11.0247L7.04853 14.0734H4L6.44662 15.9764L5.5534 19.0251L8.00002 17.1221Z" fill="#ED4C5C"/>
</svg>
