<svg width="30" height="31" viewBox="0 0 30 31" fill="none" xmlns="http://www.w3.org/2000/svg">
<path d="M21.7918 15.7472L29.9418 16.2906C29.9418 15.9413 30 15.592 30 15.2427C30 12.5452 29.3014 10.0419 28.0595 7.84902L20.9185 11.9048L19.6184 10.2553L25.11 4.20068C23.0142 2.26009 20.317 0.90166 17.3674 0.455322L16.0673 8.5476H14.0104L12.652 0.455322C9.70246 0.90166 7.00518 2.26009 4.85123 4.20068L10.3428 10.2553L9.04267 11.8466L1.94049 7.84902C0.698578 10.0419 0 12.5452 0 15.2427C0 15.592 9.47275e-06 15.9413 0.0582243 16.2906L8.2083 15.7472L8.65457 17.7461L1.10607 20.851C2.21215 23.6067 4.11385 25.9548 6.50065 27.6043L11.1578 20.9092L13.0013 21.7631L10.6533 29.6225C12.0504 30.0688 13.5058 30.2629 15 30.2629C16.4942 30.2629 17.9496 30.0688 19.3467 29.6225L16.9987 21.7631L18.8422 20.8704L23.4993 27.6237C25.9056 25.9742 27.8073 23.626 28.8939 20.8704L21.3454 17.7654L21.7918 15.7472Z" fill="#ED4C5C"/>
<path d="M16.0287 8.54757L17.3288 0.45529C16.5332 0.300042 15.7764 0.26123 14.9808 0.26123C14.1852 0.26123 13.4284 0.319448 12.6328 0.45529L13.933 8.54757H16.0287Z" fill="#FFCE31"/>
<path d="M20.8782 11.8465L28.0193 7.79067C27.2237 6.43225 26.2728 5.19026 25.128 4.14233L19.5781 10.2358L20.8782 11.8465Z" fill="#FFCE31"/>
<path d="M21.7901 15.7473L21.3438 17.7461L28.9505 20.7929C29.4938 19.3956 29.9013 17.8431 29.9983 16.2518L21.7901 15.7473Z" fill="#FFCE31"/>
<path d="M16.9805 21.7436L19.3284 29.6031C20.8226 29.1567 22.2198 28.4581 23.5199 27.6042L18.8627 20.9092L16.9805 21.7436Z" fill="#FFCE31"/>
<path d="M11.1377 20.8511L6.48047 27.6043C7.72238 28.497 9.17777 29.1568 10.672 29.6031L12.9811 21.7437L11.1377 20.8511Z" fill="#FFCE31"/>
<path d="M8.18913 15.7473L0.0390625 16.2907C0.136087 17.882 0.485357 19.3956 1.08691 20.8317L8.63546 17.7267L8.18913 15.7473Z" fill="#FFCE31"/>
<path d="M10.3829 10.2358L4.89132 4.18115C3.74643 5.22907 2.73739 6.49047 2 7.82948L9.14098 11.8853L10.3829 10.2358Z" fill="#FFCE31"/>
<path d="M18.1593 18.4298C19.9174 16.6716 19.9174 13.821 18.1593 12.0628C16.4012 10.3047 13.5508 10.3047 11.7927 12.0628C10.0346 13.821 10.0346 16.6716 11.7927 18.4298C13.5508 20.188 16.4012 20.188 18.1593 18.4298Z" fill="#FFCE31"/>
</svg>
