<svg width="30" height="31" viewBox="0 0 30 31" fill="none" xmlns="http://www.w3.org/2000/svg">
<path d="M29.7881 13.3551C29.73 12.8515 29.6332 12.348 29.5364 11.8638H0.388504C0.291667 12.3673 0.194821 12.8709 0.136719 13.3551H29.7881Z" fill="white"/>
<path d="M0.15625 17.3447C0.214352 17.8483 0.311198 18.3519 0.408035 18.8361H29.4978C29.5946 18.3326 29.6915 17.8289 29.7496 17.3447H0.15625Z" fill="white"/>
<path d="M8.98737 1.61768C8.48382 1.81136 7.98028 2.12128 7.49609 2.37307V28.3267C7.99964 28.6172 8.50319 28.869 8.98737 29.082V1.61768Z" fill="white"/>
<path d="M12.9766 0.513843V30.2056L14.4678 30.3605V0.358887C13.9643 0.378255 13.4801 0.417001 12.9766 0.513843Z" fill="white"/>
<path d="M0 15.3499C0 16.0472 0.0580642 16.7057 0.154901 17.3448H29.8451C29.9419 16.7057 30 16.0472 30 15.3499C30 14.6527 29.9419 13.9941 29.8451 13.355H0.154901C0.0580642 13.9941 0 14.6527 0 15.3499Z" fill="#428BC1"/>
<path d="M8.98828 29.0626C10.2278 29.605 11.5835 30.0117 12.978 30.1667V0.513672C11.5835 0.707356 10.2278 1.05598 8.98828 1.61766V29.0626Z" fill="#428BC1"/>
<path d="M7.47514 11.8445V2.354C3.98902 4.40705 1.39382 7.79652 0.386719 11.8445H7.47514Z" fill="#ED4C5C"/>
<path d="M7.47514 18.8364V28.3269C3.98902 26.2739 1.39382 22.8844 0.386719 18.8364H7.47514Z" fill="#ED4C5C"/>
<path d="M14.9723 0.378418H14.4688V11.8639H29.5366C27.9484 5.25926 22.0607 0.378418 14.9723 0.378418Z" fill="#ED4C5C"/>
<path d="M14.4688 18.8364V30.3218H14.9723C22.0607 30.3218 27.9484 25.4217 29.5366 18.8364H14.4688Z" fill="#ED4C5C"/>
</svg>
