<svg width="30" height="31" viewBox="0 0 30 31" fill="none" xmlns="http://www.w3.org/2000/svg">
<path d="M14.9791 0.313477C13.2327 0.313477 11.5251 0.604595 9.97266 1.16737V10.327H29.1253C27.0878 4.50519 21.538 0.313477 14.9791 0.313477Z" fill="#F9F9F9"/>
<path d="M29.1462 10.3076H9.99354V1.14795C4.19147 3.20498 0 8.75512 0 15.2949C0 21.8542 4.19147 27.4042 9.99354 29.4419V20.2823H29.1462C29.6895 18.7298 30 17.0415 30 15.2755C30 13.5678 29.6895 11.86 29.1462 10.3076Z" fill="#ED4C5C"/>
<path d="M9.99219 20.3213V29.4809C11.5446 30.0243 13.2328 30.3348 14.9986 30.3348C21.5575 30.3348 27.1073 26.1819 29.1448 20.3407H9.99219V20.3213Z" fill="#699635"/>
<path d="M8.53937 10.5208L8.44235 10.5791L7.64673 9.88044L6.75408 8.87134C6.8123 8.77431 6.8123 8.52201 6.75408 8.36676L6.90933 8.21155H7.06458C7.1228 8.30858 7.21982 8.40561 7.35565 8.40561C7.51089 8.40561 7.60792 8.3474 7.64673 8.21155H7.84078V8.46379H9.19912V7.70698H7.84078V7.95927H7.64673C7.58851 7.86224 7.49148 7.76521 7.39446 7.76521L7.45268 7.70698L8.55875 5.45587L8.4035 5.30066L6.85111 7.39647L6.94813 7.4935L6.85111 7.68756H6.59888L6.54066 7.59053H6.73471V7.43532L6.57946 7.37709V7.086H6.77351L6.83173 6.93074L6.42421 6.83371V5.82461L6.71528 5.47529L6.21078 5.12598L5.70624 5.47529L5.99731 5.82461V6.83371L5.58979 6.93074L5.64801 7.086H5.84206V7.37709L5.68681 7.43532V7.59053H5.88086L5.82268 7.68756H5.57041L5.47339 7.4935L5.57041 7.39647L4.01802 5.30066L3.92099 5.35884L5.02706 7.60995L5.08529 7.66818C4.98826 7.66818 4.89123 7.76521 4.83301 7.86224H4.63896V7.60995H3.18359V8.36676H4.54194V8.11452H4.73599C4.7942 8.21155 4.89123 8.30858 5.02706 8.30858C5.1823 8.30858 5.27933 8.25037 5.31814 8.11452H5.47339L5.62863 8.30858V8.40561H5.43459V8.65785L4.23144 8.75488L4.17326 8.65785C4.17326 8.65785 3.51347 8.75489 3.41644 8.91014V9.0654C3.51347 9.22065 4.17326 9.41472 4.17326 9.41472V9.35649C4.17326 9.35649 4.61956 9.45353 5.12409 9.51175L4.83301 9.86106L4.03739 10.5596L3.94037 10.5014L3.24182 11.2001L3.18359 11.2971L3.97922 11.0448L4.52252 10.6373L4.42549 10.5791L5.72566 9.47294H5.82268C5.97792 9.47294 6.26896 9.37591 6.36598 9.27888L6.52123 9.43409L7.87958 10.5791L7.78255 10.6373L8.3259 11.0448L9.12152 11.2971L9.1797 11.2001L8.53937 10.5208Z" fill="white"/>
</svg>
