<svg width="30" height="31" viewBox="0 0 30 31" fill="none" xmlns="http://www.w3.org/2000/svg">
<path d="M7.50969 28.4332V2.4292C3.00775 5.0296 0 9.88108 0 15.4312C0 20.9813 3.00775 25.8328 7.50969 28.4332Z" fill="#F9F9F9"/>
<path d="M15.0019 0.430176C12.2464 0.430176 9.70435 1.18702 7.49219 2.429V28.433C9.68494 29.7332 12.2464 30.4318 15.0019 30.4318C23.3072 30.4318 30.0019 23.7367 30.0019 15.431C30.0019 7.12524 23.3072 0.430176 15.0019 0.430176Z" fill="#699635"/>
<path d="M18.0059 18.4778C14.9594 18.4778 12.5143 16.0715 12.5143 13.083C12.5143 11.6276 13.0577 10.3856 14.0085 9.37646C11.9516 10.4244 10.5156 12.5785 10.5156 15.0236C10.5156 18.5167 13.407 21.3693 17.0163 21.3693C20.6256 21.3693 23.5169 18.5167 23.5169 15.0236C23.5169 14.6743 23.4587 14.325 23.4199 14.0145C22.9542 16.576 20.7032 18.4778 18.0059 18.4778Z" fill="white"/>
<path d="M18.9986 9.37617L20.2405 8.42529L19.736 9.97777L20.9779 10.8704L19.4837 10.9286L18.9792 12.4229L18.4746 10.9286L16.9805 10.8704L18.2224 9.97777L17.7179 8.42529L18.9986 9.37617Z" fill="white"/>
</svg>
