<svg width="30" height="31" viewBox="0 0 30 31" fill="none" xmlns="http://www.w3.org/2000/svg">
<path d="M29.0117 20.453C26.2562 20.453 24.0052 18.2019 24.0052 15.4463H4.40625V26.042C7.10354 28.7394 10.8487 30.4471 15.0013 30.4471C21.5602 30.4471 27.11 26.2554 29.1475 20.453H29.0117Z" fill="#699635"/>
<path d="M29.0119 10.4394H29.1671C27.1101 4.637 21.5604 0.445312 15.0209 0.445312C10.8682 0.445312 7.12307 2.15308 4.42578 4.85051V15.4461H24.0248C24.0054 12.6905 26.2564 10.4394 29.0119 10.4394Z" fill="#3E4347"/>
<path d="M29.1474 10.4395H4.38672V20.4335H29.1474C29.6908 18.8811 30.0012 17.1928 30.0012 15.4268C30.0012 13.6997 29.7102 11.9919 29.1474 10.4395Z" fill="#F9F9F9"/>
<path d="M4.40491 4.85059C1.70762 7.54802 0 11.2933 0 15.4462C0 19.5991 1.70762 23.3445 4.40491 26.0419L15 15.4462L4.40491 4.85059Z" fill="#C94747"/>
</svg>
