<svg width="30" height="31" viewBox="0 0 30 31" fill="none" xmlns="http://www.w3.org/2000/svg">
<path d="M15 0.389648V15.3905H30C30 7.08472 23.3053 0.389648 15 0.389648Z" fill="#ED4C5C"/>
<path d="M15 30.3915V15.3906H0C0 23.6964 6.69471 30.3915 15 30.3915Z" fill="#2A5F9E"/>
<path d="M15 30.3915V15.3906H30C30 23.6964 23.3053 30.3915 15 30.3915Z" fill="#F9F9F9"/>
<path d="M15 0.389648V15.3905H0C0 7.08472 6.69471 0.389648 15 0.389648Z" fill="#F9F9F9"/>
<path d="M7.4915 9.74316L9.04389 10.8881L8.44237 8.9863L9.99476 7.78314H8.09307L7.4915 5.88135L6.88997 7.78314H4.98828L6.54068 8.9863L5.9391 10.8881L7.4915 9.74316Z" fill="#2A5F9E"/>
<path d="M22.4915 22.7451L24.0439 23.8901L23.4424 21.9883L24.9948 20.7851H23.0931L22.4915 18.8833L21.89 20.7851H19.9883L21.5407 21.9883L20.9391 23.8901L22.4915 22.7451Z" fill="#ED4C5C"/>
</svg>
