<svg width="30" height="31" viewBox="0 0 30 31" fill="none" xmlns="http://www.w3.org/2000/svg">
<path d="M15.0097 30.3817C19.9159 30.3817 24.2599 28.0351 26.9942 24.3892L3.00581 6.39209C1.10536 8.89384 0 11.9968 0 15.3906C0.0193923 23.691 6.70973 30.3817 15.0097 30.3817Z" fill="#3E4347"/>
<path d="M29.9982 15.3905C29.9982 7.09014 23.3078 0.399414 15.0079 0.399414C10.1016 0.399414 5.75776 2.74604 3.02344 6.392L27.0118 24.3891C28.8929 21.8873 29.9982 18.7844 29.9982 15.3905Z" fill="#C94747"/>
<path d="M25.5003 14.2465C25.4033 12.8501 24.9573 12.6562 24.8604 12.4429C24.8022 12.2489 24.9573 12.501 25.1124 12.5398C25.2676 12.598 25.0543 12.2489 25.0543 12.0938C24.9961 11.9386 25.5003 12.4429 25.6555 12.4429C25.8106 12.501 25.3645 11.2987 25.2094 11.2017C25.0542 11.1047 25.3645 11.2598 25.4033 11.2598C25.4421 11.2598 24.6082 9.90231 24.4531 9.90231C24.298 9.90231 24.6082 9.84417 24.7052 9.84417C24.8021 9.84417 23.6968 8.95205 23.5029 8.95205C23.309 8.95205 23.9101 8.69993 23.9489 8.69993C24.0458 8.69993 22.7078 7.94359 21.4473 8.69993C21.3891 8.64175 22.0485 8.19573 22.0485 8.0018C22.0485 7.94362 21.8545 7.84665 21.7963 7.80786C21.7963 7.74968 22.1454 7.55574 22.1454 7.45877C22.1454 7.36181 21.9902 7.40058 21.8933 7.40058C21.8933 7.30362 22.1842 7.05148 22.1454 6.89634C22.1454 6.83816 21.8933 6.79941 21.8545 6.83819C21.7964 6.89637 22.0097 6.54727 21.9515 6.43091C21.8933 6.37273 21.7963 6.43091 21.6993 6.43091C21.6412 6.43091 22.0484 5.79091 21.9902 5.73273C21.8933 5.63577 20.6909 6.37271 20.2449 7.18724C19.7989 7.98237 20.148 8.64175 20.0898 8.89386C20.0316 9.14598 19.9347 9.43689 19.7989 9.43689C19.605 9.43689 19.1978 9.14598 19.0427 8.99083C18.8875 8.83568 18.8875 8.73872 18.6935 8.69993C18.4996 8.64175 18.0342 8.79691 17.8403 8.85509C17.6851 8.85509 16.987 8.69994 16.9482 8.75812C16.89 8.8163 17.6076 9.04904 17.7433 9.1654C17.8791 9.28176 17.8985 9.3593 18.0342 9.41748C18.1312 9.47566 19.2365 9.82477 18.8875 10.2708C18.6354 10.5617 18.0924 9.9799 17.3943 9.92172C16.6962 9.92172 16.2502 10.5617 16.0368 10.8138C15.8429 11.066 15.1836 12.2683 15.1836 12.3653C15.1836 12.5205 15.5908 12.0162 15.7265 11.9193C15.7265 12.0744 15.5714 12.2683 15.6296 12.3653C15.6878 12.4235 16.1338 12.0162 16.2889 12.0162C16.3471 12.1132 16.192 12.2683 16.2308 12.4235C16.2889 12.4816 16.5217 12.1326 16.735 12.0744C16.7932 12.2296 16.5798 12.4235 16.6767 12.6174C16.7349 12.6174 17.181 12.1132 17.3168 12.0744C17.4719 12.0162 17.2586 12.5204 17.3168 12.5786C17.4719 12.4816 17.8597 12.0356 17.9761 11.9774C18.1312 11.9193 17.976 12.5786 18.0342 12.5786C18.1894 12.4816 18.5772 11.9386 18.6354 11.8223C18.6936 11.7253 18.5772 12.6756 19.0427 13.1216C19.4887 13.5677 20.148 14.1689 20.2449 14.1689C20.3419 14.0137 20.1868 13.6647 20.3032 13.7228C20.4971 13.9168 20.8461 14.2658 20.9625 14.2658C21.0594 14.2658 20.9043 13.9168 21.0206 13.9168C21.2727 14.1107 21.9127 14.964 23.1732 15.3713C23.0762 15.1192 22.9211 14.9252 22.8823 14.8283C22.9793 14.8283 23.2896 14.9834 23.3284 14.9834C23.3672 14.9834 22.6884 14.1301 22.7272 14.0331C22.8823 14.0331 22.9793 14.1301 23.0181 14.0331C22.9599 13.9361 22.3588 13.238 22.3588 13.0829C22.3588 12.9277 22.5526 13.141 22.6108 13.0829C22.669 13.0247 22.3588 12.4235 22.4557 12.3847C22.5139 12.3265 23.1538 12.792 23.309 12.792C23.3671 12.792 23.4059 12.695 23.4059 12.598C23.852 12.9471 24.647 13.6065 25.2482 14.4404C25.2482 14.6343 25.19 14.7895 25.1512 14.9834C24.7052 16.0307 23.8519 16.5737 22.6108 16.1276C22.669 16.2246 23.3671 16.7676 24.0653 16.5737C24.6664 16.4185 25.4228 15.9725 25.5585 14.9834C25.7136 15.3325 25.8106 15.7397 25.8106 16.1276C25.8106 18.0282 24.104 17.97 23.658 17.873C24.201 18.3191 26.2565 18.2221 26.2565 16.1276C26.1984 15.4488 25.9075 14.7895 25.5003 14.2465ZM23.3477 12.1907C23.3477 12.1326 23.3478 12.0938 23.4059 12.0938C23.4641 12.0356 24.0071 12.3847 24.1041 12.3847C24.201 12.3847 24.201 12.1326 24.2592 12.1907C24.3174 12.1907 24.9573 12.8889 25.1512 13.781C24.4531 12.9859 23.6968 12.3847 23.3477 12.1907Z" fill="#FFCE31"/>
<path d="M8.70768 19.9869L8.51376 19.3857L8.31984 19.9869H7.71875L8.22288 20.3942L8.02895 20.9954L8.53317 20.5881L9.03739 20.9954L8.84347 20.3942L9.34769 19.9869H8.70768Z" fill="white"/>
<path d="M6.20387 12.6948L5.85485 13.839L6.80505 13.1409L7.81349 13.8972L7.40624 12.6948L8.41458 11.9384H7.21231L6.80505 10.6973L6.45603 11.9384H5.21484L6.20387 12.6948Z" fill="white"/>
<path d="M3.47003 16.7478L3.06287 15.5454L2.71375 16.7478H1.47266L2.4811 17.5042L2.13198 18.7065L3.08218 17.9502L4.09062 18.7065L3.68336 17.5042L4.6918 16.7478H3.47003Z" fill="white"/>
<path d="M11.1522 17.1359L12.1607 16.3796H10.9583L10.5511 15.1772L10.202 16.3796H8.96094L9.96928 17.1359L9.62026 18.3383L10.5705 17.582L11.5789 18.3383L11.1522 17.1359Z" fill="white"/>
<path d="M7.21231 23.2446L6.80505 22.0034L6.45603 23.2446H5.21484L6.22328 24.0009L5.87426 25.1451L6.82447 24.447L7.83281 25.2033L7.42565 24.0009L8.43399 23.2446H7.21231Z" fill="white"/>
</svg>
