<svg width="30" height="31" viewBox="0 0 30 31" fill="none" xmlns="http://www.w3.org/2000/svg">
<path d="M15.0017 30.4423C21.5605 30.4423 27.1104 26.2894 29.1479 20.4482H0.855469C2.89299 26.2894 8.44279 30.4423 15.0017 30.4423Z" fill="#428BC1"/>
<path d="M15.0017 0.44043C8.44279 0.44043 2.89299 4.63213 0.855469 10.4345H29.1479C27.0909 4.63213 21.5411 0.44043 15.0017 0.44043Z" fill="#ED4C5C"/>
<path d="M29.1462 20.4481C29.6895 18.8956 30 17.2073 30 15.4413C30 13.6948 29.7089 11.9871 29.1462 10.4346H0.8538C0.310461 11.9871 0 13.6754 0 15.4413C0 17.1879 0.291056 18.8956 0.8538 20.4481H29.1462Z" fill="#F9F9F9"/>
<path d="M15.002 19.9433C12.4987 19.9433 10.5 17.9445 10.5 15.4411C10.5 12.9378 12.4987 10.939 15.002 10.939C17.5052 10.939 19.504 12.9378 19.504 15.4411C19.504 17.9445 17.5052 19.9433 15.002 19.9433ZM15.002 11.0942C12.5958 11.0942 10.6553 13.0348 10.6553 15.4411C10.6553 17.8475 12.5958 19.7881 15.002 19.7881C17.4082 19.7881 19.3487 17.8475 19.3487 15.4411C19.3487 13.0348 17.3888 11.0942 15.002 11.0942Z" fill="#3E4347"/>
<path d="M14.9987 11.6377C12.903 11.6377 11.1953 13.3454 11.1953 15.4412C11.1953 17.5371 12.903 19.2448 14.9987 19.2448C17.0944 19.2448 18.8021 17.5371 18.8021 15.4412C18.8021 13.3454 17.0944 11.6377 14.9987 11.6377ZM14.9987 18.2939C13.4463 18.2939 12.1461 16.9937 12.1461 15.4412C12.1461 13.8888 13.4463 12.5886 14.9987 12.5886C16.5511 12.5886 17.8513 13.8888 17.8513 15.4412C17.8513 16.9937 16.5511 18.2939 14.9987 18.2939Z" fill="#ED4C5C"/>
<path d="M11.9921 15.4413C11.9921 13.7918 13.3504 12.4334 14.9999 12.4334C16.6493 12.4334 18.0076 13.7918 18.0076 15.4413H18.6674C18.6674 13.4425 17.018 11.793 15.0193 11.793C13.0206 11.793 11.3711 13.4425 11.3711 15.4413H11.9921Z" fill="#FFCE31"/>
<path d="M16.4342 15.286C16.4342 16.0817 15.7938 16.7415 14.9788 16.7415C14.1638 16.7415 13.5234 16.0817 13.5234 15.286C13.5234 14.4904 14.1638 13.8306 14.9788 13.8306C15.7938 13.8306 16.4342 14.4904 16.4342 15.286Z" fill="#428BC1"/>
<path d="M15.7956 16.237L15 15.6936L14.2044 16.237L14.4955 15.3831L13.7969 14.8397H14.6508L14.9418 13.9858L15.2329 14.8397H16.0867L15.4851 15.3831L15.7956 16.237Z" fill="#FFCE31"/>
<path d="M13.6992 14.1995C13.6992 14.1995 13.5052 14.1413 13.4081 14.1413C13.5052 13.986 13.5634 13.6367 13.5634 13.6367C13.5634 13.6367 13.2723 13.792 13.1559 13.986C13.0977 13.889 13.0007 13.7337 13.0007 13.7337C13.0007 13.7337 12.8455 13.889 12.9037 14.0248C12.9037 14.1801 13.0977 14.3742 13.0977 14.3742C13.0977 14.3742 13.3499 14.4712 13.5052 14.4324C13.6022 14.3354 13.6992 14.1995 13.6992 14.1995Z" fill="#699635"/>
<path d="M13.4487 14.5875C13.4487 14.5875 13.2546 14.5875 13.1576 14.6457C13.2158 14.4516 13.1576 14.1411 13.1576 14.1411C13.1576 14.1411 12.9053 14.3934 12.8665 14.5487C12.7695 14.4516 12.6143 14.3546 12.6143 14.3546C12.6143 14.3546 12.5172 14.5487 12.556 14.6457C12.6142 14.7427 12.8471 14.9368 12.8471 14.9368C12.8471 14.9368 13.1382 14.9368 13.2546 14.8786C13.3517 14.8397 13.4487 14.5875 13.4487 14.5875Z" fill="#83BF4F"/>
<path d="M13.2907 15.0335C13.2907 15.0335 13.0966 15.0917 12.9996 15.1306C12.9996 14.9365 12.9026 14.626 12.9026 14.626C12.9026 14.626 12.7473 14.9171 12.7473 15.1306C12.6502 15.0335 12.495 14.9753 12.495 14.9753C12.495 14.9753 12.4368 15.1694 12.5532 15.2664C12.6502 15.3634 12.9026 15.4604 12.9026 15.4604C12.9026 15.4604 13.1548 15.4022 13.2518 15.3052C13.3488 15.247 13.2907 15.0335 13.2907 15.0335Z" fill="#699635"/>
<path d="M13.2914 15.5384C13.2914 15.5384 13.1361 15.6355 13.0391 15.7325C12.9809 15.5384 12.7868 15.2861 12.7868 15.2861C12.7868 15.2861 12.6898 15.5772 12.7286 15.7907C12.5733 15.7325 12.4375 15.7325 12.4375 15.7325C12.4375 15.7325 12.4376 15.9265 12.5928 16.0236C12.6898 16.1206 13.0003 16.1206 13.0003 16.1206C13.0003 16.1206 13.2526 15.9653 13.2914 15.8683C13.3496 15.7907 13.2914 15.5384 13.2914 15.5384Z" fill="#83BF4F"/>
<path d="M13.3898 15.9847C13.3898 15.9847 13.2345 16.14 13.1957 16.237C13.0987 16.043 12.8464 15.8877 12.8464 15.8877C12.8464 15.8877 12.8464 16.1788 12.9434 16.3923H12.6523C12.6523 16.3923 12.7106 16.5863 12.8464 16.6445C13.0016 16.7027 13.2539 16.6445 13.2539 16.6445C13.2539 16.6445 13.4479 16.4505 13.5061 16.2952C13.5644 16.14 13.3898 15.9847 13.3898 15.9847Z" fill="#699635"/>
<path d="M13.64 16.4502C13.64 16.4502 13.543 16.6054 13.4848 16.7413C13.3296 16.586 13.0384 16.489 13.0384 16.489C13.0384 16.489 13.1355 16.7801 13.2325 16.9353C13.0772 16.9353 12.9414 17.0324 12.9414 17.0324C12.9414 17.0324 13.0385 17.1876 13.1937 17.2264C13.349 17.2264 13.6012 17.1294 13.6012 17.1294C13.6012 17.1294 13.7565 16.8772 13.7565 16.7219C13.7953 16.5473 13.64 16.4502 13.64 16.4502Z" fill="#83BF4F"/>
<path d="M13.9534 16.7998C13.9534 16.7998 13.8951 16.9939 13.8951 17.0909C13.7398 16.9939 13.3906 16.9356 13.3906 16.9356C13.3906 16.9356 13.5458 17.1879 13.7399 17.3432C13.6429 17.4014 13.4876 17.4984 13.4876 17.4984C13.4876 17.4984 13.6429 17.6537 13.7787 17.5955C13.934 17.5955 14.128 17.4014 14.128 17.4014C14.128 17.4014 14.225 17.1491 14.1862 16.9939C14.1473 16.8968 13.9534 16.7998 13.9534 16.7998Z" fill="#699635"/>
<path d="M14.3994 17.0327C14.3994 17.0327 14.3995 17.2268 14.4577 17.3238C14.2636 17.2656 13.9531 17.3238 13.9531 17.3238C13.9531 17.3238 14.2054 17.5179 14.3606 17.6149L14.1666 17.809C14.1666 17.809 14.3606 17.906 14.4577 17.8672C14.6129 17.809 14.7487 17.5761 14.7487 17.5761C14.7487 17.5761 14.7487 17.285 14.6905 17.1686C14.5546 17.091 14.3994 17.0327 14.3994 17.0327Z" fill="#83BF4F"/>
<path d="M16.3008 14.1995C16.3008 14.1995 16.4948 14.1413 16.5919 14.1413C16.4948 13.986 16.4366 13.6367 16.4366 13.6367C16.4366 13.6367 16.7277 13.792 16.8441 13.986C16.9023 13.889 16.9993 13.7337 16.9993 13.7337C16.9993 13.7337 17.1545 13.889 17.0963 14.0248C17.0963 14.1801 16.9023 14.3742 16.9023 14.3742C16.9023 14.3742 16.6501 14.4324 16.4948 14.3742C16.3978 14.3353 16.3008 14.1995 16.3008 14.1995Z" fill="#699635"/>
<path d="M16.5508 14.5875C16.5508 14.5875 16.7448 14.5875 16.8419 14.6457C16.7836 14.4516 16.8419 14.1411 16.8419 14.1411C16.8419 14.1411 17.0941 14.3934 17.1329 14.5487C17.23 14.4516 17.3852 14.3546 17.3852 14.3546C17.3852 14.3546 17.4822 14.5487 17.4434 14.6457C17.4046 14.7427 17.0941 14.9368 17.0941 14.9368C17.0941 14.9368 16.8031 14.9368 16.6867 14.8786C16.5896 14.8397 16.5508 14.5875 16.5508 14.5875Z" fill="#83BF4F"/>
<path d="M16.6894 15.0335C16.6894 15.0335 16.8835 15.0917 16.9805 15.1306C16.9805 14.9365 17.0775 14.626 17.0775 14.626C17.0775 14.626 17.2327 14.9171 17.2327 15.1306C17.3297 15.0335 17.4849 14.9753 17.4849 14.9753C17.4849 14.9753 17.5432 15.1694 17.4268 15.2664C17.3297 15.3634 17.0775 15.4604 17.0775 15.4604C17.0775 15.4604 16.8252 15.4022 16.7282 15.3052C16.6506 15.247 16.6894 15.0335 16.6894 15.0335Z" fill="#699635"/>
<path d="M16.6891 15.5384C16.6891 15.5384 16.8443 15.6355 16.9414 15.7325C16.9996 15.5384 17.1936 15.2861 17.1936 15.2861C17.1936 15.2861 17.2907 15.5772 17.2518 15.7907C17.4071 15.7325 17.5429 15.7325 17.5429 15.7325C17.5429 15.7325 17.5429 15.9265 17.3876 16.0236C17.2906 16.1206 16.9802 16.1206 16.9802 16.1206C16.9802 16.1206 16.7279 15.9653 16.6891 15.8683C16.6503 15.7325 16.6891 15.5384 16.6891 15.5384Z" fill="#83BF4F"/>
<path d="M16.5932 15.9847C16.5932 15.9847 16.7484 16.14 16.7872 16.237C16.8842 16.043 17.1365 15.8877 17.1365 15.8877C17.1365 15.8877 17.1365 16.1788 17.0394 16.3923H17.3305C17.3305 16.3923 17.2723 16.5863 17.1365 16.6445C16.9812 16.7027 16.7289 16.6445 16.7289 16.6445C16.7289 16.6445 16.5349 16.4505 16.4767 16.2952C16.4185 16.14 16.5932 15.9847 16.5932 15.9847Z" fill="#699635"/>
<path d="M16.3371 16.4502C16.3371 16.4502 16.4342 16.6054 16.4924 16.7413C16.6476 16.586 16.9387 16.489 16.9387 16.489C16.9387 16.489 16.8416 16.7801 16.7446 16.9353C16.8999 16.9353 17.0357 17.0324 17.0357 17.0324C17.0357 17.0324 16.9387 17.1876 16.7835 17.2264C16.6282 17.2264 16.3759 17.1294 16.3759 17.1294C16.3759 17.1294 16.2206 16.8772 16.2206 16.7219C16.2012 16.5473 16.3371 16.4502 16.3371 16.4502Z" fill="#83BF4F"/>
<path d="M16.0467 16.7998C16.0467 16.7998 16.1049 16.9939 16.1049 17.0909C16.2602 16.9939 16.6094 16.9356 16.6094 16.9356C16.6094 16.9356 16.4542 17.1879 16.2601 17.3432C16.3572 17.4014 16.5124 17.4984 16.5124 17.4984C16.5124 17.4984 16.3571 17.6537 16.2213 17.5955C16.066 17.5955 15.872 17.4014 15.872 17.4014C15.872 17.4014 15.775 17.1491 15.8139 16.9939C15.8527 16.8968 16.0467 16.7998 16.0467 16.7998Z" fill="#699635"/>
<path d="M15.6033 17.0327C15.6033 17.0327 15.6032 17.2268 15.545 17.3238C15.739 17.2656 16.0495 17.3238 16.0495 17.3238C16.0495 17.3238 15.7972 17.5179 15.642 17.6149L15.8361 17.809C15.8361 17.809 15.642 17.906 15.545 17.8672C15.3897 17.809 15.2539 17.5761 15.2539 17.5761C15.2539 17.5761 15.254 17.285 15.3122 17.1686C15.448 17.091 15.6033 17.0327 15.6033 17.0327Z" fill="#83BF4F"/>
</svg>
