<svg width="30" height="31" viewBox="0 0 30 31" fill="none" xmlns="http://www.w3.org/2000/svg">
<path d="M30.0013 15.4926C30.0013 8.93341 25.8487 3.38333 20.0078 1.3457V29.6396C25.8487 27.602 30.0013 22.0518 30.0013 15.4926Z" fill="#ED4C5C"/>
<path d="M0 15.4926C0 22.0518 4.19146 27.602 9.99352 29.6396V1.3457C4.19146 3.38333 0 8.93341 0 15.4926Z" fill="#ED4C5C"/>
<path d="M19.9856 1.34608C18.4332 0.802711 16.745 0.492188 14.9792 0.492188C13.2327 0.492188 11.525 0.783305 9.97266 1.34608V29.6399C11.525 30.1833 13.2133 30.4938 14.9792 30.4938C16.7256 30.4938 18.4332 30.2027 19.9856 29.6399V1.34608Z" fill="#F9F9F9"/>
</svg>
