<svg width="30" height="30" viewBox="0 0 30 30" fill="none" xmlns="http://www.w3.org/2000/svg">
<path d="M15.5122 14.9958L4.67188 25.8367C7.36741 28.3773 11.0132 29.987 15.008 29.987C23.3079 29.987 29.9983 23.2962 29.9983 14.9958H15.5122Z" fill="#ED4C5C"/>
<path d="M29.9983 14.9959C29.9983 6.6955 23.3079 0.00476074 15.008 0.00476074C11.0132 0.00476074 7.36741 1.595 4.67188 4.15493L15.5122 14.9959H29.9983Z" fill="#428BC1"/>
<path d="M4.65417 4.15503C1.80349 6.90889 0 10.7488 0 14.996C0 19.2431 1.80349 23.083 4.65417 25.8369L15.4945 14.996L4.65417 4.15503Z" fill="#F9F9F9"/>
<path d="M5.50606 5.80343L5.09882 6.50161L5.64181 7.04463L4.8855 6.94767L4.47826 7.6458L4.3813 6.88948L3.625 6.79251L4.32312 6.38523L4.22616 5.62891L4.76915 6.17193L5.50606 5.80343Z" fill="#FFCE31"/>
<path d="M5.60261 22.9859L5.05962 23.5871L5.46686 24.2271L4.76874 23.9362L4.22575 24.5374L4.32271 23.7423L3.56641 23.4514L4.36149 23.2962L4.45846 22.5011L4.8657 23.1993L5.60261 22.9859Z" fill="#FFCE31"/>
<path d="M14.2551 14.9959L13.4988 15.248V16.0043L12.9946 15.4031L12.2383 15.597L12.7425 14.9959L12.2383 14.3947L12.9946 14.5886L13.4988 13.9874V14.7438L14.2551 14.9959Z" fill="#FFCE31"/>
<path d="M10.8606 14.2395L10.5697 13.9875L7.3312 14.6856H7.38938L10.434 13.8905L10.0267 13.6384L7.42816 14.6468L9.58071 12.8432L9.52254 12.3972L7.27302 14.705H7.21485L9.46436 12.2032L9.40618 11.8542L9.05712 11.9123L7.0597 14.5111V14.4529L8.90198 11.796L8.45596 11.8542L7.09849 14.2977L7.60269 11.5051L7.31181 11.2142L7.02092 14.4529V14.5111L7.11788 11.1172L6.86578 10.8651L6.61368 11.1172L6.71064 14.5111V14.4529L6.45854 11.253L6.16765 11.5439L6.67186 14.3365L5.31439 11.893L4.86837 11.8348L6.71064 14.4917V14.5499L4.65505 11.8542L4.30599 11.796L4.24781 12.1451L6.49733 14.6468H6.43915L4.18963 12.339L4.13145 12.785L6.28401 14.5886L3.68543 13.5802L3.33637 13.8323L6.38097 14.6274H6.43915L3.14245 13.9875L2.85156 14.1814L3.04549 14.4723L6.34219 14.9183H6.28401L3.14245 14.6274L3.39455 14.9765L6.18705 14.9183L3.58847 15.9656L3.49151 16.4116L6.34219 15.0153H6.40036L3.45272 16.6056L3.35576 16.9546L3.70483 17.0516L6.5555 15.248V15.3062L3.95692 17.1486L4.36416 17.2455L6.45854 15.4032L5.00411 17.8467L5.19803 18.254L6.49733 15.3644L6.5555 15.3062L5.31439 18.448L5.46953 18.797L5.81859 18.6419L6.86578 15.4032V15.4613L6.01252 18.5643L6.41976 18.3704L6.86578 15.5777L7.31181 18.3704L7.71904 18.5643L6.86578 15.4613V15.4032L7.91297 18.6419L8.26203 18.797L8.41717 18.448L7.17606 15.3062L7.23423 15.3644L8.53352 18.254L8.72745 17.8467L7.3312 15.4032L9.42557 17.2455L9.83282 17.1486L7.23423 15.3062V15.248L10.0849 17.0516L10.434 16.9546L10.337 16.6056L7.38938 15.0153H7.44755L10.2982 16.4116L10.1431 15.9656L7.48634 15.0153L10.2788 15.0735L10.5309 14.7244L7.38938 15.0153H7.3312L10.6279 14.5693L10.8606 14.2395Z" fill="#FFCE31"/>
<path d="M6.8667 17.2455C8.10908 17.2455 9.11622 16.2383 9.11622 14.9959C9.11622 13.7534 8.10908 12.7462 6.8667 12.7462C5.62433 12.7462 4.61719 13.7534 4.61719 14.9959C4.61719 16.2383 5.62433 17.2455 6.8667 17.2455Z" fill="#FFCE31"/>
</svg>
