<svg width="30" height="31" viewBox="0 0 30 31" fill="none" xmlns="http://www.w3.org/2000/svg">
<path d="M15 0.890076V15.8909H0C0 24.1966 6.69469 30.8917 15 30.8917C23.3053 30.8917 30 24.1966 30 15.8909C30 7.58514 23.2859 0.890076 15 0.890076Z" fill="#2A5F9E"/>
<path d="M4.98828 5.89685H15.4863V16.3954H4.98828V5.89685Z" fill="#2A5F9E"/>
<path d="M8.44109 3.93689V6.88658H4.79297L11.9922 15.891H14.9999V12.1456L8.44109 3.93689Z" fill="white"/>
<path d="M4.50194 9.33169H1.49418C0.54334 11.3305 0 13.5234 0 15.8909H5.99612V6.84772H4.50194V9.33169Z" fill="white"/>
<path d="M15.0006 13.4458L8.49995 5.39233H5.49219L13.9915 15.891H15.0006V13.4458Z" fill="#ED4C5C"/>
<path d="M8.43919 2.38432V5.39225H4.5V6.8865H14.9981V0.890076C12.6501 0.890076 10.4379 1.43343 8.43919 2.38432Z" fill="white"/>
<path d="M14.998 2.38434H8.43914C5.43138 3.83978 2.94756 6.34316 1.49219 9.33168V15.8909H4.49995V5.39226H14.998V2.38434Z" fill="#ED4C5C"/>
<path d="M18.2392 13.2323C18.2975 12.9801 18.181 12.689 18.0452 12.5337C17.6959 12.2426 17.2884 12.3397 17.0361 12.5919C16.6286 12.3979 16.4346 13.1353 15.9883 12.9994C16.0853 13.2517 16.1823 13.3487 16.3958 13.2517C16.1435 13.4458 16.3958 13.7563 16.1047 14.0086C16.6092 14.1638 16.9003 13.9115 16.8615 13.407C17.0556 13.5622 17.366 13.5622 17.5019 13.3487C17.2496 13.2517 17.2496 13.0576 17.3466 12.8054C17.5019 12.5337 18.2392 12.5337 18.2392 13.2323Z" fill="#FFCE31"/>
<path d="M19.3869 17.0358C18.7854 17.3269 17.7375 17.1911 17.6405 16.4342C17.5435 15.6774 18.2809 15.3281 18.4943 15.231C18.7854 15.0758 19.0377 15.3281 18.9406 15.6774C19.2899 15.5804 19.3481 15.1729 19.1929 14.9206C19.6392 14.9788 20.0467 14.6295 20.2408 14.1249C20.0855 14.2802 19.6392 14.1831 19.2899 14.1831C19.3869 14.0861 19.3869 13.8338 19.3869 13.7368C19.0377 14.1443 18.4943 13.9308 17.7957 15.037C17.8928 14.6295 18.0868 13.892 18.2421 13.3875C18.2421 13.3293 18.2421 13.2905 18.3003 13.2323C18.3585 12.5337 17.6017 12.4754 17.4076 12.8247C17.6017 13.0188 17.5047 13.2711 17.4076 13.6204C17.3106 14.0279 17.1554 15.0176 17.0001 15.3669C16.9419 14.8624 16.5926 14.8235 16.5538 14.5713C16.4568 14.6295 16.3986 14.8235 16.3986 14.9206C16.3016 14.7653 15.8553 14.9788 15.7 14.7653C15.5448 15.1146 15.797 15.4057 16.0493 15.561C15.8941 15.561 15.8553 15.755 15.7 15.755C15.9523 16.0073 16.1463 16.1625 16.4568 16.1625C16.7673 16.1625 16.9613 16.2596 17.0972 16.6089C17.3882 17.1911 18.4361 17.5404 19.3869 17.0358Z" fill="#699635"/>
<path d="M20.8406 16.3955C20.4913 17.2882 19.6375 17.948 19.2494 18.045C18.5508 18.2002 17.1537 18.8989 16.8044 19.2482C16.7462 19.2482 16.7074 19.19 16.6492 19.19C16.4551 19.0347 16.2999 18.6466 16.6492 18.2973C17.6582 17.3464 18.7449 17.7539 19.4435 17.0941C18.8419 17.3852 17.7941 17.2493 17.697 16.4925C18.2986 16.6478 19.4435 16.6478 20.3555 15.6969C20.4525 15.8327 20.8018 16.2402 20.8406 16.3955Z" fill="#FFCE31"/>
<path d="M20.4931 15.988C20.2991 16.2791 19.8916 16.6284 19.4841 16.7836C19.5811 16.6866 19.5811 16.5896 19.5811 16.4343C19.0766 16.6284 18.0287 16.5896 17.6406 16.4343C18.2422 16.5896 19.3871 16.5896 20.2991 15.6387C20.3961 15.7939 20.4931 15.891 20.4931 15.988Z" fill="#699635"/>
<path d="M16.5899 18.239C15.7361 19.0347 16.2988 19.6945 16.6481 19.8303C16.5511 20.3737 17.0556 20.3349 17.0556 20.7812C17.2497 20.6842 17.3079 20.3349 17.3079 20.0826C17.5602 20.3737 18.2587 20.0244 18.3558 20.5872C18.4528 19.9856 18.0065 19.4422 17.4631 19.481C17.7154 19.287 17.5602 18.9376 17.3661 18.8406C17.3079 19.2481 16.8616 19.2481 16.6675 19.1317C16.4347 19.0347 16.2406 18.5883 16.5899 18.239Z" fill="#699635"/>
<path d="M24.449 18.239C25.8073 19.3452 25.9043 20.2378 25.6521 20.7812C25.5551 20.2767 25.0117 19.5392 24.4102 19.3258L24.449 18.239Z" fill="#FFCE31"/>
<path d="M24.4492 18.239C25.3418 18.8794 26.0404 19.481 26.2539 20.4319C26.4479 21.441 26.7972 21.6739 27.2629 21.441C27.1659 21.9844 26.5644 22.0814 26.118 21.6351C26.1763 22.2755 25.924 23.0905 25.2254 23.3428C25.1672 22.9353 25.4195 22.6442 25.3807 22.3337C25.3224 22.1784 25.3224 21.8873 25.5359 21.7321C25.1866 21.8291 24.5851 21.6351 24.5268 21.0917C24.9343 21.2858 25.4777 21.344 25.6717 20.8006C25.8852 20.2961 25.7882 19.384 24.4492 18.239Z" fill="#699635"/>
<path d="M25.4 23.3816C25.4583 23.2845 25.4971 23.1875 25.4 23.1293C25.303 23.0711 25.206 23.0711 25.1478 23.2264C25.0896 23.4204 24.7015 23.4204 24.7985 23.7697C24.7015 23.7697 24.6044 23.8667 24.5074 23.9637C24.4104 24.119 24.0029 24.3131 23.8477 24.3713C23.9059 24.4295 24.0417 24.5265 24.1387 24.4683C24.0805 24.7206 24.2358 24.8176 24.3328 24.7594C24.3328 24.8564 24.4298 25.0117 24.5268 24.9535C24.585 25.1087 24.7791 25.1475 24.8761 25.0505C24.9731 25.1475 25.1672 25.1087 25.2836 25.1087C25.1284 25.1087 25.1284 24.6624 25.1866 24.4683C25.2448 24.2743 25.1866 24.119 25.1866 24.022C25.4389 23.8473 25.303 23.5368 25.4 23.3816Z" fill="#FFCE31"/>
<path d="M22.101 17.6375H24.6042V20.5871C24.6042 23.0905 23.2071 24.5848 21.8099 25.3416C20.4128 24.546 19.0156 23.0905 19.0156 20.5871V17.6375H20.7621C20.7621 17.7927 20.7621 18.0449 20.9561 18.239C21.286 18.1808 21.7517 17.8897 22.101 17.6375Z" fill="#699635"/>
<path d="M24.5456 17.6375V20.5871C24.5456 21.344 24.3904 21.9844 24.1964 22.586L21.7513 18.0838L19.3063 22.586C19.1123 21.9844 18.957 21.344 18.957 20.5871V17.6375H24.5456Z" fill="#006EC7"/>
<path d="M24.295 22.3337C24.2368 22.4889 24.198 22.683 24.101 22.8383L21.753 18.4331L19.405 22.8383C19.3468 22.683 19.2497 22.4889 19.2109 22.3337L21.753 17.6375L24.295 22.3337Z" fill="#FFCE31"/>
<path d="M23.187 23.1488C23.0318 23.4981 22.5855 23.4981 22.4302 23.6921C22.5273 23.7504 22.5855 23.7892 22.6243 23.8474C22.4691 24.0026 22.081 24.2937 21.8675 24.3519V22.0426C22.1198 22.0426 22.5079 21.9844 22.6631 21.9844C22.7213 21.9844 22.7601 21.8874 22.7601 21.7904C22.7601 21.6933 22.7019 21.5963 22.6631 21.5963C22.469 21.5963 22.0615 21.5381 21.8093 21.5381V21.0918C21.8093 20.9947 21.8093 20.8395 21.7123 20.8395C21.654 20.8395 21.6152 20.8977 21.6152 20.9947C21.557 20.8977 21.5182 20.8977 21.46 20.8977C21.2659 20.8977 21.1107 21.053 21.1107 21.1888C21.1107 21.344 21.2659 21.4799 21.46 21.4799C21.5182 21.4799 21.557 21.4799 21.6152 21.4217V21.4799C21.363 21.4799 20.9167 21.5381 20.7614 21.5381C20.7032 21.5381 20.6644 21.6351 20.6644 21.7321C20.6644 21.8292 20.7226 21.9262 20.7614 21.9262C20.9167 21.9262 21.3048 21.9844 21.557 21.9844V24.2937C21.46 23.9444 20.9555 24.0414 20.7614 23.6921C20.8584 23.6921 20.9555 23.6339 21.0137 23.6921C20.8584 23.1488 20.4121 23.0906 20.3151 22.9353C20.3151 23.1876 20.2181 23.6922 20.3733 23.9444C20.4315 23.8862 20.4703 23.8474 20.5286 23.8474C20.7226 24.2549 21.5376 24.2549 21.7317 24.8953C21.8869 24.643 22.4302 24.352 22.8377 23.9444C22.896 24.0026 23.0318 24.0415 23.09 24.0415C23.2452 23.7892 23.2452 23.4399 23.187 23.1488ZM21.4988 21.441C21.4018 21.441 21.3047 21.344 21.3047 21.247C21.3047 21.1499 21.4018 21.0529 21.4988 21.0529C21.557 21.0529 21.5958 21.0529 21.654 21.1111V21.4022C21.5958 21.3828 21.5376 21.441 21.4988 21.441Z" fill="#F7E017"/>
<path d="M21.25 19.5392H22.2008V20.5871H21.25V19.5392Z" fill="white"/>
<path d="M18.7442 18.4913C18.3367 18.8406 17.9486 19.3452 17.8515 19.8497C17.5605 21.1499 17.2112 21.441 16.6484 21.2082C16.6484 21.9068 17.25 21.965 17.5411 21.5575C17.5411 22.1979 17.7933 22.7995 18.3367 23.304C18.5889 23.4981 18.5889 23.3622 18.4919 23.1488C18.3949 22.9547 18.3949 22.1979 18.1426 21.7515C18.4919 22.0038 18.9964 21.8486 18.9382 21.1499C18.4919 21.4022 18.0844 21.4022 18.0456 20.7424C17.9486 20.0438 18.2396 18.9377 18.7442 18.4913Z" fill="#FFCE31"/>
<path d="M18.7446 18.4913C18.2401 18.9376 17.949 19.9856 17.9878 20.7424C17.9878 20.9365 18.046 21.0917 18.1431 21.1499C18.2013 20.7424 18.4924 19.6556 19.1909 19.2093C19.7925 18.8018 20.7821 17.9091 21.1314 16.8612C21.0732 16.6671 20.9762 16.5701 20.7239 16.4149C20.4522 17.3852 19.5014 17.8897 18.7446 18.4913Z" fill="#699635"/>
<path d="M19.1519 23.9831C19.0937 23.8861 18.9966 23.8279 18.8996 23.8279C18.9966 23.5368 18.6473 23.4786 18.6085 23.3233C18.5503 23.1681 18.4533 23.1681 18.4145 23.2263C18.3175 23.2845 18.3175 23.3815 18.3563 23.4786C18.4533 23.6338 18.2981 23.8861 18.5503 24.0219C18.4921 24.0219 18.4921 24.1772 18.5503 24.3712C18.5503 24.5265 18.5503 24.9146 18.3951 24.9146C18.4921 24.9728 18.6474 25.0117 18.7444 24.9146C18.8026 25.0117 18.9966 25.0116 19.0355 24.8564C19.1325 24.9146 19.2295 24.7982 19.2295 24.7011C19.3265 24.7594 19.4818 24.7011 19.4235 24.4489C19.5206 24.5071 19.6176 24.3906 19.6758 24.3518C19.54 24.3324 19.2489 24.1384 19.1519 23.9831Z" fill="#FFCE31"/>
<path d="M23.4983 17.0359C23.6535 17.1912 23.6923 17.3852 23.5953 17.5793H23.4013C23.4983 17.327 23.4595 17.0747 23.052 17.0359C22.5086 16.9777 21.8489 18.045 20.898 18.1809C20.607 17.8316 20.6458 17.1717 20.9951 16.8807C20.801 16.3373 20.3935 15.7745 20.1412 15.4834C19.9472 15.4252 19.7337 15.4252 19.6367 15.4252C19.792 15.1341 20.1801 14.7848 20.4905 14.6684C20.5488 14.5714 20.5876 14.5131 20.6458 14.4743C20.704 14.0668 22.7027 14.2803 23.0908 14.5326C23.0908 15.0953 23.2848 16.6478 23.4983 17.0359Z" fill="#96877D"/>
<path d="M25.6523 13.1353C25.9434 12.3785 26.6614 12.4949 26.8943 12.786C27.6511 12.3784 27.7481 13.2905 28.3496 13.1353C28.3496 13.2905 28.1556 13.4846 27.9033 13.4846C28.1556 13.6786 27.8063 14.028 28.3108 14.2414C27.8645 14.4355 27.263 14.2414 27.1077 13.6398C26.9525 13.9309 26.4673 13.9309 26.2539 13.698C26.7002 13.601 26.6614 13.1547 26.4091 12.9994C26.1375 12.7859 25.6912 12.883 25.6523 13.1353Z" fill="#699635"/>
<path d="M23.4022 14.7848C23.5962 15.4252 24.0037 16.0267 24.5082 16.4925C25.0128 16.997 25.8084 16.8418 26.2547 16.3954C26.2547 17.2881 25.3038 17.4046 24.7993 17.0941C24.5471 16.9388 24.3918 17.0359 24.6053 17.2493C24.9546 17.5404 25.7113 17.7927 26.5458 17.9479C28.0399 18.2972 27.5548 19.5004 27.0891 19.4422C27.2443 19.4422 27.3414 19.287 27.1473 19.1511C25.8472 17.948 23.1499 18.4525 23.1887 15.7551C22.8976 16.4537 21.7333 16.1626 22.2961 15.3475C22.4513 15.5028 23.0529 15.4446 22.8394 14.8042H23.4022" fill="#699635"/>
<path d="M24.7993 17.094C25.4397 17.5016 26.1577 17.5016 26.798 16.7447C26.9921 16.4925 27.3414 16.2984 27.5548 16.2984C27.8071 16.2984 27.7489 16.0461 27.9623 16.0073C27.8653 15.9491 27.8071 15.8521 27.6713 15.8521C28.0788 15.6968 27.9623 15.4057 28.1758 15.2117C28.0205 15.2699 27.7683 15.0176 27.5354 15.3669C27.5936 15.2117 27.5354 15.0758 27.4384 14.9594C27.4384 15.1146 27.1473 15.1535 27.0309 15.561C26.9727 15.8133 26.8757 15.755 26.8368 15.4057C26.8368 15.1535 26.6816 14.3966 26.5458 14.0473C26.3905 13.698 26.3517 13.1546 26.5458 13.0964L26.3905 12.9412C26.1383 12.7859 25.692 12.8442 25.5949 13.1353C25.3039 13.8921 26.0995 14.2802 26.0412 15.0758C25.983 14.5325 25.0322 14.3772 25.0322 13.7756C24.7411 13.9309 24.7799 14.1832 24.877 14.3772C24.6829 14.0861 24.2366 14.5713 23.8679 14.1832C23.8097 14.7265 24.3142 14.94 24.7217 14.94C24.5277 15.2893 24.7799 15.5998 25.071 15.6968C25.071 15.0952 26.3129 15.3475 26.3129 16.3954C26.2353 17.2881 25.3039 17.3463 24.7993 17.094Z" fill="#FFCE31"/>
<path d="M26.5442 17.9479C28.0384 18.2972 27.5533 19.5004 27.0875 19.4422C26.7965 19.4422 26.5442 19.1899 26.5442 18.9958C26.1949 19.1511 26.2919 19.5004 26.5442 19.6362C25.8456 19.5392 25.5934 19.9855 25.5352 20.4901C25.6904 20.2378 26.0397 20.2378 26.1755 20.296C26.3308 20.3542 26.68 20.393 26.8159 20.199C26.7189 20.296 26.9129 20.5483 26.7189 20.7424C27.2622 20.7424 27.5144 20.199 27.4174 19.9467C28.1936 19.2869 28.0384 18.1807 26.5442 17.9479Z" fill="#FFCE31"/>
<path d="M23.4013 14.3967H20.6458L20.2383 12.9024L23.9446 11.9515L23.4013 14.3967Z" fill="#96877D"/>
<path d="M20.4922 14.2415H23.4417V14.8819H20.4922V14.2415Z" fill="#FFCE31"/>
</svg>
