<svg width="30" height="31" viewBox="0 0 30 31" fill="none" xmlns="http://www.w3.org/2000/svg">
<path d="M7.50971 28.9168V2.91284C3.00776 5.51324 0 10.3647 0 15.9148C0 21.4649 3.00776 26.3164 7.50971 28.9168Z" fill="#699635"/>
<path d="M15.0019 0.91394C12.2464 0.91394 9.70435 1.67078 7.49219 2.91276V28.9167C9.68494 30.2169 12.2464 30.9156 15.0019 30.9156C23.3072 30.9156 30.0019 24.2205 30.0019 15.9148C30.0019 7.60901 23.3072 0.91394 15.0019 0.91394Z" fill="#ED4C5C"/>
<path d="M7.50783 9.9183C4.209 9.9183 1.51172 12.6158 1.51172 15.9148C1.51172 19.2138 4.209 21.9112 7.50783 21.9112C10.8067 21.9112 13.5039 19.2138 13.5039 15.9148C13.5039 12.6158 10.8067 9.9183 7.50783 9.9183ZM7.50783 21.1544C4.6165 21.1544 2.2491 18.8062 2.2491 15.8953C2.2491 12.9845 4.59709 10.6364 7.50783 10.6364C10.3992 10.6364 12.7666 12.9845 12.7666 15.8953C12.7666 18.8062 10.3992 21.1544 7.50783 21.1544Z" fill="#FFE62E"/>
<path d="M9.56497 21.756C9.46795 21.853 9.3127 21.853 9.21567 21.756L2.36574 12.7128C2.26871 12.6158 2.26871 12.4605 2.36574 12.3635L2.52097 12.2082C2.618 12.1112 2.77325 12.1112 2.87027 12.2082L9.7202 21.2514C9.81722 21.3485 9.81722 21.5037 9.7202 21.6008L9.56497 21.756Z" fill="#FFE62E"/>
<path d="M7.60609 9.66608C7.76133 9.66608 7.85835 9.76307 7.85835 9.91832V21.9112C7.85835 22.0665 7.76133 22.1635 7.60609 22.1635H7.35382C7.19858 22.1635 7.10156 22.0665 7.10156 21.9112V9.91832C7.10156 9.76307 7.19858 9.66608 7.35382 9.66608H7.60609Z" fill="#FFE62E"/>
<path d="M13.4651 16.5552L7.50781 15.5072V16.2641L13.3487 17.312C13.5039 17.312 13.601 17.2538 13.6398 17.1179L13.698 16.8656C13.698 16.7686 13.601 16.6134 13.4651 16.5552Z" fill="#FFE62E"/>
<path d="M7.50941 15.4684L2.81342 12.1693C2.7164 12.0723 2.56116 12.1111 2.46413 12.2276L2.3089 12.4216C2.21187 12.5187 2.25068 12.6739 2.36711 12.7709L7.50941 16.3804V15.4684Z" fill="#FFE62E"/>
<path d="M7.31564 14.9057L2.61964 19.6019C2.52262 19.6989 2.52262 19.8542 2.61964 19.9512L2.81369 20.1453C2.91072 20.2423 3.06597 20.2423 3.16299 20.1453L7.31564 15.9924V14.9057Z" fill="#FFE62E"/>
<path d="M7.5106 12.6545L1.26221 15.6042C1.16519 15.6625 1.06816 15.7983 1.16519 15.9536L1.26221 16.2058C1.32043 16.3029 1.45627 16.3999 1.61151 16.3029L7.5106 13.5084V12.6545Z" fill="#FFE62E"/>
<path d="M13.0589 13.5084L7.10156 12.4605V13.2174L12.9425 14.2653C13.0977 14.2653 13.1947 14.2071 13.2335 14.0712L13.2917 13.819C13.2529 13.6637 13.1559 13.5084 13.0589 13.5084Z" fill="#FFE62E"/>
<path d="M7.44971 19.3691C7.35269 19.4273 7.25566 19.5631 7.35269 19.7183L7.44971 19.9706C7.50793 20.0676 7.64376 20.1647 7.799 20.0676L12.8055 17.7584L13.0577 16.8074L7.44971 19.3691Z" fill="#FFE62E"/>
<path d="M7.45178 17.6613L1.84375 15.6042V16.3999L7.45178 18.4569V17.6613Z" fill="#FFE62E"/>
<path d="M3.55078 19.3108V20.0676L10.9441 20.5722C11.2351 20.3781 11.4874 20.1258 11.7396 19.8735L3.55078 19.3108Z" fill="#FFE62E"/>
<path d="M5.00781 13.4114V16.9045C5.00781 18.3017 6.11389 19.4079 7.51104 19.4079C8.90819 19.4079 10.0143 18.3017 10.0143 16.9045V13.4114H5.00781Z" fill="white"/>
<path d="M7.50851 20.417C5.56802 20.417 4.01562 18.8645 4.01562 16.9239V12.4218H11.0208V16.9239C11.0014 18.8645 9.449 20.417 7.50851 20.417ZM6.01433 14.4206V16.9239C6.01433 17.7778 6.65469 18.4182 7.50851 18.4182C8.36233 18.4182 9.00269 17.7778 9.00269 16.9239V14.4206H6.01433Z" fill="#ED4C5C"/>
<path d="M7.0625 14.6146V15.4102C7.0625 15.5654 7.15952 15.6625 7.31476 15.6625H7.72227C7.87751 15.6625 7.97453 15.5654 7.97453 15.4102V14.5563H7.0819V14.6146H7.0625Z" fill="#0071BC"/>
<path d="M7.0625 15.8566V16.7104C7.0625 16.8657 7.15952 16.9627 7.31476 16.9627H7.72227C7.87751 16.9627 7.97453 16.8657 7.97453 16.7104V15.8566H7.0625Z" fill="#0071BC"/>
<path d="M6.05469 15.8566V16.7104C6.05469 16.8657 6.15171 16.9627 6.30695 16.9627H6.71446C6.8697 16.9627 6.96672 16.8657 6.96672 16.7104V15.8566H6.05469Z" fill="#0071BC"/>
<path d="M8.05469 15.8566V16.7104C8.05469 16.8657 8.15172 16.9627 8.30696 16.9627H8.71446C8.8697 16.9627 8.96673 16.8657 8.96673 16.7104V15.8566H8.05469Z" fill="#0071BC"/>
<path d="M7.0625 17.0597V17.9136C7.0625 18.0688 7.15952 18.1658 7.31476 18.1658H7.72227C7.87751 18.1658 7.97453 18.0688 7.97453 17.9136V17.0597H7.0625Z" fill="#0071BC"/>
<path d="M7.51109 16.2641C7.5693 16.2641 7.60811 16.3029 7.60811 16.3611C7.60811 16.4193 7.5693 16.4582 7.51109 16.4582C7.45287 16.4582 7.41406 16.4193 7.41406 16.3611C7.41406 16.3029 7.45287 16.2641 7.51109 16.2641Z" fill="white"/>
<path d="M7.31577 16.7104C7.36936 16.7104 7.4128 16.6669 7.4128 16.6134C7.4128 16.5598 7.36936 16.5163 7.31577 16.5163C7.26219 16.5163 7.21875 16.5598 7.21875 16.6134C7.21875 16.6669 7.26219 16.7104 7.31577 16.7104Z" fill="white"/>
<path d="M7.70249 16.7104C7.75608 16.7104 7.79952 16.6669 7.79952 16.6134C7.79952 16.5598 7.75608 16.5163 7.70249 16.5163C7.64891 16.5163 7.60547 16.5598 7.60547 16.6134C7.60547 16.6669 7.64891 16.7104 7.70249 16.7104Z" fill="white"/>
<path d="M7.31567 16.0118C7.37389 16.0118 7.4127 16.0506 7.4127 16.1088C7.4127 16.167 7.37389 16.2058 7.31567 16.2058C7.25746 16.2058 7.21865 16.167 7.21865 16.1088C7.19925 16.0506 7.25746 16.0118 7.31567 16.0118Z" fill="white"/>
<path d="M7.70249 16.0118C7.76071 16.0118 7.79952 16.0506 7.79952 16.1088C7.79952 16.167 7.76071 16.2058 7.70249 16.2058C7.64428 16.2058 7.60547 16.167 7.60547 16.1088C7.60547 16.0506 7.64428 16.0118 7.70249 16.0118Z" fill="white"/>
<path d="M7.51109 15.0221C7.5693 15.0221 7.60811 15.0609 7.60811 15.1191C7.60811 15.1773 7.5693 15.2161 7.51109 15.2161C7.45287 15.2161 7.41406 15.1773 7.41406 15.1191C7.41406 15.0609 7.45287 15.0221 7.51109 15.0221Z" fill="white"/>
<path d="M7.31567 15.255C7.37389 15.255 7.4127 15.2938 7.4127 15.352C7.4127 15.4103 7.37389 15.4491 7.31567 15.4491C7.25746 15.4491 7.21865 15.4103 7.21865 15.352C7.19925 15.3132 7.25746 15.255 7.31567 15.255Z" fill="white"/>
<path d="M7.70249 15.255C7.76071 15.255 7.79952 15.2938 7.79952 15.352C7.79952 15.4103 7.76071 15.4491 7.70249 15.4491C7.64428 15.4491 7.60547 15.4103 7.60547 15.352C7.60547 15.3132 7.64428 15.255 7.70249 15.255Z" fill="white"/>
<path d="M7.31577 14.7699C7.37399 14.7699 7.4128 14.8087 7.4128 14.8669C7.4128 14.9251 7.37399 14.9639 7.31577 14.9639C7.25756 14.9639 7.21875 14.9251 7.21875 14.8669C7.21875 14.8087 7.25756 14.7699 7.31577 14.7699Z" fill="white"/>
<path d="M7.70249 14.7699C7.76071 14.7699 7.79952 14.8087 7.79952 14.8669C7.79952 14.9251 7.76071 14.9639 7.70249 14.9639C7.64428 14.9639 7.60547 14.9251 7.60547 14.8669C7.60547 14.8087 7.64428 14.7699 7.70249 14.7699Z" fill="white"/>
<path d="M8.49937 16.2641C8.55758 16.2641 8.59639 16.3029 8.59639 16.3611C8.59639 16.4193 8.55758 16.4582 8.49937 16.4582C8.44115 16.4582 8.40234 16.4193 8.40234 16.3611C8.40234 16.3029 8.46056 16.2641 8.49937 16.2641Z" fill="white"/>
<path d="M8.30406 16.5163C8.36227 16.5163 8.40108 16.5551 8.40108 16.6134C8.40108 16.6716 8.36227 16.7104 8.30406 16.7104C8.24584 16.7104 8.20703 16.6716 8.20703 16.6134C8.20703 16.5551 8.24584 16.5163 8.30406 16.5163Z" fill="white"/>
<path d="M8.71421 16.7104C8.7678 16.7104 8.81124 16.6669 8.81124 16.6134C8.81124 16.5598 8.7678 16.5163 8.71421 16.5163C8.66063 16.5163 8.61719 16.5598 8.61719 16.6134C8.61719 16.6669 8.66063 16.7104 8.71421 16.7104Z" fill="white"/>
<path d="M8.30406 16.0118C8.36227 16.0118 8.40108 16.0506 8.40108 16.1088C8.40108 16.167 8.36227 16.2058 8.30406 16.2058C8.24584 16.2058 8.20703 16.167 8.20703 16.1088C8.20703 16.0506 8.24584 16.0118 8.30406 16.0118Z" fill="white"/>
<path d="M8.71421 16.0118C8.77243 16.0118 8.81124 16.0506 8.81124 16.1088C8.81124 16.167 8.77243 16.2058 8.71421 16.2058C8.656 16.2058 8.61719 16.167 8.61719 16.1088C8.61719 16.0506 8.656 16.0118 8.71421 16.0118Z" fill="white"/>
<path d="M6.49937 16.2641C6.55758 16.2641 6.59639 16.3029 6.59639 16.3611C6.59639 16.4193 6.55758 16.4582 6.49937 16.4582C6.44115 16.4582 6.40234 16.4193 6.40234 16.3611C6.40234 16.3029 6.46056 16.2641 6.49937 16.2641Z" fill="white"/>
<path d="M6.30796 16.7104C6.36155 16.7104 6.40499 16.6669 6.40499 16.6134C6.40499 16.5598 6.36155 16.5163 6.30796 16.5163C6.25438 16.5163 6.21094 16.5598 6.21094 16.6134C6.21094 16.6669 6.25438 16.7104 6.30796 16.7104Z" fill="white"/>
<path d="M6.71421 16.5163C6.77243 16.5163 6.81124 16.5551 6.81124 16.6134C6.81124 16.6716 6.77243 16.7104 6.71421 16.7104C6.656 16.7104 6.61719 16.6716 6.61719 16.6134C6.61719 16.5551 6.656 16.5163 6.71421 16.5163Z" fill="white"/>
<path d="M6.30796 16.0118C6.36618 16.0118 6.40499 16.0506 6.40499 16.1088C6.40499 16.167 6.36618 16.2058 6.30796 16.2058C6.24975 16.2058 6.21094 16.167 6.21094 16.1088C6.21094 16.0506 6.24975 16.0118 6.30796 16.0118Z" fill="white"/>
<path d="M6.71421 16.0118C6.77243 16.0118 6.81124 16.0506 6.81124 16.1088C6.81124 16.167 6.77243 16.2058 6.71421 16.2058C6.656 16.2058 6.61719 16.167 6.61719 16.1088C6.61719 16.0506 6.656 16.0118 6.71421 16.0118Z" fill="white"/>
<path d="M7.51109 17.506C7.5693 17.506 7.60811 17.5448 7.60811 17.603C7.60811 17.6613 7.5693 17.7001 7.51109 17.7001C7.45287 17.7001 7.41406 17.6613 7.41406 17.603C7.41406 17.5448 7.45287 17.506 7.51109 17.506Z" fill="white"/>
<path d="M7.31567 17.7583C7.37389 17.7583 7.4127 17.7971 7.4127 17.8554C7.4127 17.9136 7.37389 17.9524 7.31567 17.9524C7.25746 17.9524 7.21865 17.9136 7.21865 17.8554C7.19925 17.8165 7.25746 17.7583 7.31567 17.7583Z" fill="white"/>
<path d="M7.70249 17.7583C7.76071 17.7583 7.79952 17.7971 7.79952 17.8554C7.79952 17.9136 7.76071 17.9524 7.70249 17.9524C7.64428 17.9524 7.60547 17.9136 7.60547 17.8554C7.60547 17.8165 7.64428 17.7583 7.70249 17.7583Z" fill="white"/>
<path d="M7.31567 17.2538C7.37389 17.2538 7.4127 17.2926 7.4127 17.3508C7.4127 17.409 7.37389 17.4478 7.31567 17.4478C7.25746 17.4478 7.21865 17.409 7.21865 17.3508C7.19925 17.312 7.25746 17.2538 7.31567 17.2538Z" fill="white"/>
<path d="M7.70249 17.2538C7.76071 17.2538 7.79952 17.2926 7.79952 17.3508C7.79952 17.409 7.76071 17.4478 7.70249 17.4478C7.64428 17.4478 7.60547 17.409 7.60547 17.3508C7.60547 17.312 7.64428 17.2538 7.70249 17.2538Z" fill="white"/>
<path d="M7.00391 13.9159H8.01296L7.91594 13.4114V12.9068H8.01296V12.6545H7.85772V12.8098H7.7995V12.6545H7.64427V12.8098H7.54724V12.6545H7.45022V12.8098H7.35319V12.6545H7.19796V12.8098H7.10093V12.6545H7.00391V12.9068H7.10093V13.4114L7.00391 13.9159Z" fill="#FFE62E"/>
<path d="M7.66594 13.916H7.60773V13.7219C7.60773 13.6637 7.54952 13.6249 7.51071 13.6249C7.45249 13.6249 7.41368 13.6831 7.41368 13.7219V13.916H7.35547V13.7219C7.35547 13.6249 7.41368 13.5667 7.51071 13.5667C7.60773 13.5667 7.66594 13.6249 7.66594 13.7219V13.916Z" fill="#3E4347"/>
<path d="M7.50982 13.3532H7.21875V13.1009C7.21875 13.0039 7.27696 12.9457 7.37399 12.9457C7.47101 12.9457 7.52924 13.0039 7.52924 13.1009L7.50982 13.3532ZM7.25756 13.3144H7.45161V13.1203C7.45161 13.0621 7.3934 13.0233 7.35459 13.0233C7.31578 13.0233 7.25756 13.0815 7.25756 13.1203V13.3144Z" fill="#3E4347"/>
<path d="M7.79889 13.3532H7.50781V13.1009C7.50781 13.0039 7.56602 12.9457 7.66305 12.9457C7.76007 12.9457 7.8183 13.0039 7.8183 13.1009V13.3532M7.54662 13.3144H7.74067V13.1203C7.74067 13.0621 7.68246 13.0233 7.64365 13.0233C7.60484 13.0233 7.54662 13.0815 7.54662 13.1203V13.3144Z" fill="#3E4347"/>
<path d="M4.5 13.9159H5.50906L5.41203 13.4114V12.9068H5.50906V12.6545H5.35382V12.8098H5.29561V12.6545H5.14036V12.8098H5.04334V12.6545H4.94631V12.8098H4.84929V12.6545H4.69405V12.8098H4.59702V12.6545H4.5V12.9068H4.59702V13.4114L4.5 13.9159Z" fill="#FFE62E"/>
<path d="M5.16205 13.916H5.10384V13.7219C5.10384 13.6637 5.04562 13.6249 5.00681 13.6249C4.9486 13.6249 4.90979 13.6831 4.90979 13.7219V13.916H4.85156V13.7219C4.85156 13.6249 4.90979 13.5667 5.00681 13.5667C5.10384 13.5667 5.16205 13.6249 5.16205 13.7219V13.916Z" fill="#3E4347"/>
<path d="M5.00592 13.3532H4.71484V13.1009C4.71484 13.0039 4.77306 12.9457 4.87008 12.9457C4.96711 12.9457 5.02532 13.0039 5.02532 13.1009V13.3532M4.75364 13.3144H4.94769V13.1203C4.94769 13.0621 4.88948 13.0233 4.85067 13.0233C4.81186 13.0233 4.75364 13.0815 4.75364 13.1203V13.3144Z" fill="#3E4347"/>
<path d="M5.31842 13.3532H5.02734V13.1009C5.02734 13.0039 5.08556 12.9457 5.18258 12.9457C5.27961 12.9457 5.33782 13.0039 5.33782 13.1009V13.3532M5.06616 13.3144H5.26021V13.1203C5.26021 13.0621 5.20199 13.0233 5.16318 13.0233C5.10497 13.0233 5.06616 13.0815 5.06616 13.1203V13.3144Z" fill="#3E4347"/>
<path d="M4.5 16.8656H5.50906L5.41203 16.3611V15.8565H5.50906V15.6042H5.41203V15.7595H5.31501V15.6042H5.21798V15.7595H5.06275V15.6042H4.96572V15.7595H4.8687V15.6042H4.77167V15.7595H4.67465V15.6042H4.51941V15.8565H4.67465V16.3611L4.5 16.8656Z" fill="#FFE62E"/>
<path d="M5.16205 16.8656H5.10384V16.6716C5.10384 16.6134 5.04562 16.5746 5.00681 16.5746C4.9486 16.5746 4.90979 16.6328 4.90979 16.6716V16.8656H4.85156V16.6716C4.85156 16.5746 4.90979 16.5163 5.00681 16.5163C5.10384 16.5163 5.16205 16.5746 5.16205 16.6716V16.8656Z" fill="#3E4347"/>
<path d="M5.00592 16.3223H4.71484V16.07C4.71484 15.973 4.77306 15.9148 4.87008 15.9148C4.96711 15.9148 5.02532 15.973 5.02532 16.07V16.3223M4.75364 16.2641H4.94769V16.07C4.94769 16.0118 4.88948 15.973 4.85067 15.973C4.81186 15.973 4.75364 16.0312 4.75364 16.07V16.2641Z" fill="#3E4347"/>
<path d="M5.35748 16.3223H5.06641V16.07C5.06641 15.973 5.12462 15.9148 5.22164 15.9148C5.31867 15.9148 5.37688 15.973 5.37688 16.07V16.3223M5.10522 16.2641H5.29927V16.07C5.29927 16.0118 5.24105 15.973 5.20224 15.973C5.16343 15.973 5.10522 16.0312 5.10522 16.07V16.2641Z" fill="#3E4347"/>
<path d="M9.50781 16.9045H10.5169L10.4199 16.4V15.8954H10.5169V15.7014H10.3616V15.7984H10.3034V15.7014H10.1482V15.7984H10.0512V15.7014H9.95414V15.7984H9.85711V15.7014H9.70186V15.7984H9.60484V15.7014H9.50781V15.8954H9.60484V16.4L9.50781 16.9045Z" fill="#FFE62E"/>
<path d="M10.1503 16.9045H10.0921V16.7104C10.0921 16.6522 10.0339 16.6134 9.99507 16.6134C9.93685 16.6134 9.89804 16.6716 9.89804 16.7104V16.9045H9.83984V16.7104C9.83984 16.6134 9.89804 16.5552 9.99507 16.5552C10.0921 16.5552 10.1503 16.6134 10.1503 16.7104V16.9045Z" fill="#3E4347"/>
<path d="M10.0137 16.3611H9.72266V16.1088C9.72266 16.0118 9.78088 15.9536 9.87791 15.9536C9.97493 15.9536 10.0332 16.0118 10.0332 16.1088V16.3611M9.76148 16.3222H9.95553V16.1282C9.95553 16.07 9.89731 16.0312 9.8585 16.0312C9.8197 16.0312 9.76148 16.0894 9.76148 16.1282V16.3222Z" fill="#3E4347"/>
<path d="M10.3028 16.3611H10.0117V16.1088C10.0117 16.0118 10.0699 15.9536 10.167 15.9536C10.264 15.9536 10.3222 16.0118 10.3222 16.1088V16.3611M10.0505 16.3222H10.2446V16.1282C10.2446 16.07 10.1864 16.0312 10.1476 16.0312C10.1088 16.0312 10.0505 16.0894 10.0505 16.1282V16.3222Z" fill="#3E4347"/>
<path d="M9.50781 13.9159H10.5169L10.4199 13.4114V12.9068H10.5169V12.6545H10.3616V12.8098H10.3034V12.6545H10.1482V12.8098H10.0512V12.6545H9.95414V12.8098H9.85711V12.6545H9.70186V12.8098H9.60484V12.6545H9.50781V12.9068H9.60484V13.4114L9.50781 13.9159Z" fill="#FFE62E"/>
<path d="M10.1503 13.916H10.0921V13.7219C10.0921 13.6637 10.0339 13.6249 9.99507 13.6249C9.93685 13.6249 9.89804 13.6831 9.89804 13.7219V13.916H9.83984V13.7219C9.83984 13.6249 9.89804 13.5667 9.99507 13.5667C10.0921 13.5667 10.1503 13.6249 10.1503 13.7219V13.916Z" fill="#3E4347"/>
<path d="M10.0137 13.3532H9.72266V13.1009C9.72266 13.0039 9.78088 12.9457 9.87791 12.9457C9.97493 12.9457 10.0332 13.0039 10.0332 13.1009V13.3532M9.76148 13.3144H9.95553V13.1203C9.95553 13.0621 9.89731 13.0233 9.8585 13.0233C9.8197 13.0233 9.76148 13.0815 9.76148 13.1203V13.3144Z" fill="#3E4347"/>
<path d="M10.3028 13.3532H10.0117V13.1009C10.0117 13.0039 10.0699 12.9457 10.167 12.9457C10.264 12.9457 10.3222 13.0039 10.3222 13.1009V13.3532M10.0505 13.3144H10.2446V13.1203C10.2446 13.0621 10.1864 13.0233 10.1476 13.0233C10.1088 13.0233 10.0505 13.0815 10.0505 13.1203V13.3144Z" fill="#3E4347"/>
<path d="M6.1115 19.7183L6.81009 18.9615L6.36378 18.7092L6.01448 18.3599L6.1115 18.2629L5.95627 18.1077L5.85924 18.2047L5.95627 18.3017L5.89805 18.3599L5.80103 18.2629L5.704 18.3599L5.80103 18.4181L5.704 18.5152L5.64579 18.4181L5.54877 18.5152L5.64579 18.6122L5.54877 18.6704L5.49055 18.5734L5.39353 18.6704L5.45174 18.7674L5.39353 18.8257L5.33531 18.7286L5.23828 18.8257L5.39353 18.9809H5.45174L5.50995 18.9227L5.85924 19.272L6.1115 19.7183Z" fill="#FFE62E"/>
<path d="M6.56055 19.2138L6.3665 19.1168C6.30828 19.0586 6.26946 19.0586 6.21125 19.1168C6.15303 19.175 6.15303 19.2138 6.21125 19.272L6.3665 19.4273L6.30827 19.4855L6.15304 19.3302C6.09482 19.272 6.09482 19.175 6.15304 19.1362C6.21125 19.0973 6.30828 19.0779 6.34709 19.1362L6.56055 19.2138Z" fill="#3E4347"/>
<path d="M6.0531 18.9615L5.85905 19.1556L5.70382 19.0003C5.6456 18.9421 5.6456 18.845 5.70382 18.8062C5.76203 18.748 5.85906 18.748 5.89787 18.8062L6.0531 18.9615ZM5.85905 19.1168L6.01429 18.9615L5.85905 18.8062C5.80084 18.748 5.76203 18.748 5.70382 18.8062C5.6456 18.8645 5.6456 18.9033 5.70382 18.9615L5.85905 19.1168Z" fill="#3E4347"/>
<path d="M6.30701 18.7092L6.11296 18.9032L5.95772 18.748C5.89951 18.6898 5.89951 18.5927 5.95772 18.5539C6.01594 18.4957 6.11296 18.4957 6.15177 18.5539L6.30701 18.7092ZM6.11296 18.8644L6.26821 18.7092L6.11296 18.5539C6.05475 18.4957 6.01594 18.4957 5.95772 18.5539C5.89951 18.6121 5.89951 18.651 5.95772 18.7092L6.11296 18.8644Z" fill="#3E4347"/>
<path d="M8.9056 19.7183L8.20703 18.9615L8.61453 18.7092L8.96383 18.3599L8.9056 18.2629L9.06085 18.1077L9.15788 18.2047L9.06085 18.3017L9.11905 18.3599L9.21608 18.2629L9.3131 18.3599L9.21608 18.4181L9.3131 18.5152L9.37133 18.4181L9.46835 18.5152L9.37133 18.6122L9.46835 18.6704L9.52655 18.5734L9.62358 18.6704L9.52655 18.7674L9.62358 18.8257L9.6818 18.7286L9.77882 18.8257L9.62358 18.9809H9.56538L9.50715 18.9227L9.15788 19.272L8.9056 19.7183Z" fill="#FFE62E"/>
<path d="M8.46094 19.2138L8.65499 19.1168C8.7132 19.0586 8.75202 19.0586 8.81024 19.1168C8.86845 19.175 8.86845 19.2138 8.81024 19.272L8.61619 19.4273L8.67441 19.4855L8.82964 19.3302C8.88785 19.272 8.88785 19.175 8.82964 19.1362C8.77142 19.0973 8.6744 19.0779 8.63559 19.1362L8.46094 19.2138Z" fill="#3E4347"/>
<path d="M9.10056 18.8062C9.15878 18.748 9.2558 18.748 9.29461 18.8062C9.35283 18.8645 9.35283 18.9615 9.29461 19.0003L9.13936 19.1556L8.94531 18.9615L9.10056 18.8062ZM9.25581 18.9615C9.31402 18.9033 9.31402 18.8645 9.25581 18.8062C9.1976 18.748 9.15878 18.748 9.10056 18.8062L9.00354 18.9615L9.15879 19.1168L9.25581 18.9615Z" fill="#3E4347"/>
<path d="M8.85054 18.5539C8.90875 18.4957 9.00578 18.4957 9.04459 18.5539C9.1028 18.6121 9.1028 18.7092 9.04459 18.748L8.88936 18.9032L8.69531 18.7092L8.85054 18.5539ZM9.06401 18.7092C9.12223 18.651 9.12223 18.6121 9.06401 18.5539C9.0058 18.4957 8.96698 18.4957 8.90876 18.5539L8.75351 18.7092L8.90876 18.8644L9.06401 18.7092Z" fill="#3E4347"/>
</svg>
