<svg width="30" height="31" viewBox="0 0 30 31" fill="none" xmlns="http://www.w3.org/2000/svg">
<path d="M4.40625 12.9668H29.7103C29.264 10.7739 28.3131 8.71687 27.013 6.97034H4.40625V12.9668Z" fill="white"/>
<path d="M4.40625 18.9827V24.9791H27.013C28.3131 23.2326 29.264 21.1755 29.7103 18.9827H4.40625Z" fill="white"/>
<path d="M29.7103 12.9668H4.40625V18.9632H29.7103C29.9043 18.0123 30.0013 17.0226 30.0013 15.9553C30.0013 14.9268 29.9043 13.9177 29.7103 12.9668Z" fill="#ED4C5C"/>
<path d="M4.40625 6.9703H27.013C24.2575 3.32198 19.9108 0.973877 15.0207 0.973877C10.8681 0.973877 7.12293 2.68159 4.42565 5.37902V6.9703" fill="#ED4C5C"/>
<path d="M4.40625 24.9791V26.5703C7.10353 29.2678 10.8487 30.9755 15.0013 30.9755C19.9108 30.9755 24.2575 28.6274 26.9936 24.9791H4.40625Z" fill="#ED4C5C"/>
<path d="M4.40491 5.37909C1.64941 8.07652 0 11.8219 0 15.9748C0 20.1276 1.70762 23.873 4.40491 26.5704L15 15.9748L4.40491 5.37909Z" fill="#428BC1"/>
<path d="M3.99583 18.9826L5.99452 17.5854L7.99323 18.9826L7.23644 16.6733L9.23515 15.2179H6.73192L5.97512 12.9668L5.21832 15.2179H2.75391L4.75262 16.6733L3.99583 18.9826Z" fill="white"/>
</svg>
