<svg width="30" height="31" viewBox="0 0 30 31" fill="none" xmlns="http://www.w3.org/2000/svg">
<path d="M14.9996 0.0241699C12.3412 0.0241699 9.89613 0.722784 7.74219 1.86774V28.124C9.89613 29.3272 12.3412 30.0258 14.9996 30.0258C23.3049 30.0258 29.9996 23.3307 29.9996 15.025C29.9996 6.71924 23.3049 0.0241699 14.9996 0.0241699Z" fill="#C94747"/>
<path opacity="0.33" d="M14.9996 0.0241699C12.3412 0.0241699 9.89613 0.722784 7.74219 1.86774V28.124C9.89613 29.3272 12.3412 30.0258 14.9996 30.0258C23.3049 30.0258 29.9996 23.3307 29.9996 15.025C29.9996 6.71924 23.3049 0.0241699 14.9996 0.0241699Z" fill="#9450E0"/>
<path d="M0 15.025C0 20.6722 3.1436 25.5819 7.74257 28.1823L13.0013 27.0373L7.99484 25.5431L13.0013 24.0488L7.99484 22.5546L13.0013 21.0603L7.99484 19.566L13.0013 18.0718L7.99484 16.5775L13.0013 15.0833L7.99484 13.589L13.0013 12.0947L7.99484 10.6005L13.0013 9.10623L7.99484 7.61198L13.0013 6.11768L7.99484 4.62343L13.0013 3.12919L7.74257 1.98425C3.1436 4.46822 0 9.37791 0 15.025Z" fill="#F9F9F9"/>
</svg>
