<svg width="30" height="31" viewBox="0 0 30 31" fill="none" xmlns="http://www.w3.org/2000/svg">
<path d="M5.99609 3.95703V27.9622L17.9883 15.9693L5.99609 3.95703Z" fill="#2A5F9E"/>
<path d="M26.9922 6.96493C24.2367 3.31661 19.89 0.968506 15 0.968506C11.6041 0.968506 8.49933 2.07465 5.99609 3.97643L17.9883 15.9693L26.9922 6.96493Z" fill="#FFCE31"/>
<path d="M26.9922 24.9737C28.8939 22.4703 29.9999 19.3654 29.9999 15.9694C29.9999 12.5733 28.8939 9.46833 26.9922 6.96497L17.9883 15.9694L26.9922 24.9737Z" fill="#ED4C5C"/>
<path d="M17.9883 15.9694L5.99609 27.9623C8.49933 29.864 11.6041 30.9702 15 30.9702C19.9094 30.9702 24.2561 28.622 26.9922 24.9737L17.9883 15.9694Z" fill="#699635"/>
<path d="M1.99869 8.45923C0.756778 10.6521 0 13.2137 0 15.9693C0 18.725 0.756778 21.2671 1.99869 23.4794V8.45923Z" fill="#2A5F9E"/>
<path d="M2 8.45918V23.4599C2.54334 24.4691 3.24192 25.3618 3.99872 26.1574V5.76172C3.24192 6.61558 2.54334 7.50828 2 8.45918Z" fill="white"/>
<path d="M3.99609 5.76179V26.1575C4.59765 26.7979 5.29623 27.3995 5.99481 27.9622V3.95703C5.29623 4.5198 4.59765 5.1214 3.99609 5.76179Z" fill="#ED4C5C"/>
<path d="M17.9883 21.9658C21.2999 21.9658 23.9844 19.2811 23.9844 15.9694C23.9844 12.6576 21.2999 9.9729 17.9883 9.9729C14.6767 9.9729 11.9922 12.6576 11.9922 15.9694C11.9922 19.2811 14.6767 21.9658 17.9883 21.9658Z" fill="white"/>
</svg>
