<svg width="30" height="31" viewBox="0 0 30 31" fill="none" xmlns="http://www.w3.org/2000/svg">
<path d="M0 15.0474C0 21.6066 4.19146 27.1567 9.99353 29.1943V0.900391C4.21087 2.93802 0 8.48815 0 15.0474Z" fill="#2A5F9E"/>
<path d="M30.0013 15.0474C30.0013 8.48815 25.8487 2.93802 20.0078 0.900391V29.1943C25.8487 27.1373 30.0013 21.5872 30.0013 15.0474Z" fill="#C94747"/>
<path d="M10.0117 29.1941C11.5641 29.7375 13.2523 30.048 15.0182 30.048C16.7646 30.048 18.4723 29.7569 20.0247 29.1941V0.90023C18.4723 0.356863 16.784 0.0463867 15.0182 0.0463867C13.2718 0.0463867 11.5641 0.337457 10.0117 0.90023V29.1941Z" fill="#FFCE31"/>
</svg>
