<svg width="30" height="31" viewBox="0 0 30 31" fill="none" xmlns="http://www.w3.org/2000/svg">
<path d="M14.9433 0.147461C8.44265 0.147461 2.89286 4.33914 0.835938 10.1415H29.1283C27.052 4.33914 21.5021 0.147461 14.9433 0.147461Z" fill="#F9F9F9"/>
<path d="M14.9433 30.1491C21.5021 30.1491 27.052 25.9574 29.0895 20.155H0.835938C2.89286 25.9962 8.44265 30.1491 14.9433 30.1491Z" fill="#ED4C5C"/>
<path d="M0.853844 10.1416C0.310507 11.6941 0 13.3824 0 15.1483C0 16.9143 0.291102 18.6026 0.853844 20.1551H29.1462C29.6895 18.6026 30 16.9143 30 15.1483C30 13.3824 29.7089 11.6941 29.1462 10.1416H0.853844Z" fill="#428BC1"/>
</svg>
