<svg width="30" height="31" viewBox="0 0 30 31" fill="none" xmlns="http://www.w3.org/2000/svg">
<path d="M15 0.259766C6.6947 0.259766 0 6.95483 0 15.2606H30C30 6.95483 23.2859 0.259766 15 0.259766Z" fill="#42ADE2"/>
<path d="M28.0026 22.7512H2C4.60026 27.2534 9.45148 30.2614 15.0013 30.2614C20.5511 30.2614 25.4023 27.2534 28.0026 22.7512Z" fill="#699635"/>
<path d="M28.0013 22.7513C29.3014 20.5584 30 17.9969 30 15.2412H0C0 17.9969 0.756801 20.539 1.99871 22.7513H28.0013Z" fill="#FFE62E"/>
<path d="M22.1031 9.01199L26.4498 8.75971L22.1031 8.50742L26.2557 7.1102L22.0061 8.00285L25.6153 5.59653L21.7732 7.53712L24.6257 4.29634L21.3851 7.18781L23.3255 3.28724L20.9776 6.93552L21.8314 2.68564L20.473 6.78031L20.2208 2.43335L19.9685 6.78031L18.5713 2.68564L19.464 6.93552L17.0578 3.28724L18.9983 7.18781L15.7576 4.29634L18.649 7.53712L14.7486 5.59653L18.3967 8.00285L14.1471 7.1102L18.2415 8.50742L13.9336 8.75971L18.2415 9.01199L14.1471 10.3704L18.3967 9.47772L14.7486 11.884L18.649 9.94344L15.7576 13.1843L18.9983 10.2928L17.0578 14.1934L19.464 10.545L18.5713 14.7949L19.9685 10.7003L20.2208 15.0472L20.473 10.7003L21.8314 14.7949L20.9776 10.545L23.3255 14.1934L21.3851 10.2928L24.6257 13.1843L21.7732 9.94344L25.6153 11.884L22.0061 9.47772L26.2557 10.3704L22.1031 9.01199Z" fill="#FFE62E"/>
<path d="M20.1989 6.91602C21.2274 6.91602 22.0424 7.75047 22.0424 8.75958C22.0424 9.76869 21.208 10.6031 20.1989 10.6031C19.1705 10.6031 18.3555 9.76869 18.3555 8.75958C18.3555 7.75047 19.1705 6.91602 20.1989 6.91602Z" fill="#FFE62E"/>
<path d="M20.2015 10.7584C19.0954 10.7584 18.1445 9.86569 18.1445 8.70134C18.1445 7.5952 19.0372 6.64429 20.2015 6.64429C21.3464 6.64429 22.2584 7.53698 22.2584 8.70134C22.239 9.86569 21.2881 10.7584 20.2015 10.7584ZM20.2015 7.05183C19.3088 7.05183 18.5521 7.80866 18.5521 8.70134C18.5521 9.59401 19.3088 10.3508 20.2015 10.3508C21.0941 10.3508 21.8509 9.59401 21.8509 8.70134C21.8509 7.80866 21.0941 7.05183 20.2015 7.05183Z" fill="#42ADE2"/>
</svg>
