<svg width="30" height="31" viewBox="0 0 30 31" fill="none" xmlns="http://www.w3.org/2000/svg">
<path d="M15.0013 30.0268C17.6597 30.0268 20.1436 29.3282 22.2975 28.125L22.3557 1.96574C20.2018 0.723761 17.6985 0.0251465 15.0013 0.0251465C7.54976 0.0251465 1.35961 5.47823 0.195312 12.6196V17.4129C1.35961 24.5931 7.54976 30.0268 15.0013 30.0268Z" fill="#2A5F9E"/>
<path d="M30 15.026C30 11.1836 28.5446 7.67111 26.1966 5.0319C25.7503 4.52735 25.304 4.08101 24.7413 3.63467C24.586 3.47943 24.392 3.34358 24.2367 3.22714H22.3933V3.03308L0.795597 13.784C0.737382 14.1915 0 14.6379 0 15.026C0 15.4141 0.950822 15.8216 0.950822 16.2291L22.2962 27.0383V26.8442H24.1979C24.3532 26.6889 24.5472 26.5919 24.7024 26.4367C25.207 25.9903 25.7115 25.544 26.1578 25.0394C28.5446 22.3808 30 18.8878 30 15.026Z" fill="#F9F9F9"/>
<path d="M24.2562 26.8247L0 15.1229C0 15.9186 0.0582148 16.6754 0.194049 17.4322L22.3545 28.1249C22.9948 27.7368 23.6546 27.3293 24.2562 26.8247Z" fill="#ED4C5C"/>
<path d="M0.194049 12.639C0.0388098 13.3958 0 14.1332 0 14.9483L24.2562 3.24649C23.6546 2.74194 23.0142 2.35381 22.3157 1.94629L0.194049 12.639Z" fill="#ED4C5C"/>
<path d="M21.3451 17.9757L20.5494 17.8205L20.4912 16.6755L20.5883 16.2292L20.4912 15.7829L20.433 15.3365L19.3851 14.9872L18.5895 14.929L17.9492 14.4244L18.1432 12.969L16.1445 12.6197L17.5029 11.5136L17.5611 10.5627L18.6672 10.0193L20.8211 9.12663L20.9181 9.41772L22.7616 8.62208V8.91316L24.3528 8.50563L26.0022 7.90405L25.847 9.7088L25.3036 10.4656L24.9544 11.3195L23.1109 12.4645L25.5171 13.4153L24.508 14.5603L23.4602 14.6185L24.0617 15.0648L23.4602 15.3559L23.9065 15.4142L23.6154 15.7635L24.217 15.6664L23.4602 16.3068L23.5572 16.9084L22.9557 16.6561L23.3632 17.2965L22.6064 17.1025L22.7616 17.8011L22.2183 17.6458L22.1601 18.1892L21.3451 17.9757Z" fill="#9C3900"/>
<path d="M25.943 8.0399L25.749 9.74762L25.2444 10.4462L24.8951 11.3001L22.9935 12.5033L25.3997 13.4542L24.507 14.5603L23.304 14.6185L23.9443 15.1231L23.1875 15.4724L23.7891 15.5306L23.4398 15.8799L23.9831 15.7829L23.3816 16.2874L23.4786 16.8308L22.8382 16.5397L23.2457 17.1801L22.5472 17.0249L22.6442 17.6653L22.1397 17.51L22.0814 18.0534L21.3246 17.8011L20.5679 17.7041L20.5096 16.5979L20.6067 16.1516L20.5096 15.7053L20.4514 15.2007L19.4036 14.9096L18.5497 14.8126L18.0064 14.3662L18.2004 12.9108L16.26 12.5615L17.5019 11.5136L17.5601 10.5627L18.6662 10.0581L20.7619 9.16544L20.8589 9.45653L22.7024 8.66088V8.95197L24.3518 8.60267L25.943 8.0399ZM26.0983 7.88464L25.9042 7.94287L24.313 8.48624L22.8188 8.83554V8.54445L22.6248 8.64148L20.9171 9.39832L20.8589 9.24306V9.049L20.7037 9.10723L18.6079 9.9999L17.5019 10.5044L17.4437 10.5627V10.6209L17.3854 11.5136L16.1823 12.5227L15.9883 12.7167L16.2406 12.7749L18.084 13.066L17.9288 14.3662V14.4245L17.987 14.4827L18.5303 14.929H18.6274L19.4812 15.026L20.432 15.3171L20.4902 15.7635L20.5873 16.2098L20.4902 16.6173L20.5484 17.7235V17.8205H20.6455L21.4023 17.9175L22.1008 18.1698L22.2561 18.228V18.0728L22.3143 17.6653L22.6636 17.7623L22.8576 17.8205L22.7994 17.6264L22.7024 17.1801L23.2069 17.2771L23.498 17.3353L23.3428 17.0831L23.1487 16.7338L23.4398 16.8308L23.6338 16.9278L23.5756 16.6756L23.4786 16.171L24.0219 15.7247L24.3712 15.4336L23.9249 15.4918L23.7309 15.55L23.8279 15.453L24.0219 15.2589H23.6726L23.9637 15.1037L24.1578 15.0066L23.9637 15.0648L23.5562 14.7738L24.41 14.7155H24.4682L24.5264 14.6573L25.4773 13.6094L25.5743 13.4542L25.4191 13.3959L23.2263 12.5421L24.934 11.4942H24.9922V11.4359L25.3415 10.5821L25.846 9.88347V9.78644L26.04 8.0787L26.0983 7.88464Z" fill="#3E4347"/>
<path d="M19.7554 21.2358L20.0077 21.6822L15.5057 19.5863L16.2625 18.9459L16.3596 19.1012L18.9016 19.3534L18.8434 19.1982L19.3867 18.9459V18.7907L18.2807 19.0429L18.2224 18.4414L16.9805 18.1891L16.9223 18.5384H16.573L16.476 18.8295L15.8356 18.6354L15.9909 17.9368L15.04 18.3831L13.3906 17.0247L15.4863 16.6172L16.1267 17.374L16.3208 16.7336L16.9611 16.8889L16.8641 17.18L17.2134 17.2382L17.1164 17.6457L18.3583 17.9368L18.5523 17.4322L19.7942 18.2279L20.4928 17.6845L20.648 17.7427L20.9391 17.1412L21.4825 17.2382L21.6377 17.6845L21.4437 18.5384L21.5989 18.7324L24.6067 19.4311L24.4514 19.9356L24.1604 19.8774L24.2186 20.2849L17.8732 19.8386L17.7179 20.0326L19.9689 20.1297L19.8136 20.3237L21.3078 20.1297L21.2108 20.479L22.608 20.3819L21.5989 20.7895L22.705 21.294H21.4048L22.1034 21.9344L20.7451 21.4299V21.9344L19.7554 21.2358ZM23.4618 19.6833L21.4048 19.237L20.9585 19.4893L23.4618 19.6833Z" fill="#FFCE31"/>
<path d="M15.4467 16.7336L16.1452 17.5293L16.3393 16.8306L16.8438 16.9859L16.7468 17.277L17.0961 17.3352L16.9991 17.7427L18.3574 18.0338L18.5515 17.5875L19.7934 18.3443L20.492 17.8009L20.6472 17.898L20.9382 17.2964L21.3846 17.3934L21.5398 17.8398L21.3846 18.5384L21.5398 18.7906L24.4894 19.4893L24.3923 19.8386L21.3846 19.1399L20.88 19.3922L20.8218 19.5475L24.0236 19.7998L24.0819 20.2073L17.7753 19.7609L17.5812 20.1102L19.8322 20.2073L19.6769 20.4013L21.2293 20.2073L21.1323 20.5566L22.1802 20.4596L21.4816 20.8089L22.4324 21.2552H21.2875L21.8891 21.7986L20.783 21.3522V21.8568L19.5411 21.0611L19.8322 21.5657L15.5825 19.6251L16.184 19.1205L16.2423 19.2758L18.9396 19.5281L18.8813 19.3728L19.4247 19.1205V18.8295L18.2798 19.0817L18.2216 18.5384L16.8632 18.2473L16.805 18.5966H16.4557L16.3587 18.8877L15.8542 18.7324L16.0094 17.9756L14.9615 18.4802L13.4674 17.2382L15.4467 16.7336ZM15.5049 16.5784H15.4467L13.5062 16.9277L13.2539 16.9859L13.448 17.1411L14.9421 18.3831L15.0003 18.4413L15.0586 18.3831L15.8542 17.9756L15.7571 18.4802V18.5772L15.8542 18.6354L16.3587 18.7906L16.4557 18.8489L16.5139 18.7518L16.5721 18.5578H16.9214V18.4413L16.9797 18.2473L18.0857 18.4996L18.144 18.9459V19.1011L18.2992 19.0429L19.3083 18.8489L18.8037 19.1011L18.7067 19.1594V19.2564L16.2617 19.0623L16.2035 19.0041L16.1452 18.8489L16.0482 18.9459L15.4467 19.4504L15.2914 19.6057L15.4855 19.7027L19.7352 21.6433L20.0845 21.7986L19.8904 21.4493L19.8322 21.391L20.6278 21.8956L20.8218 21.9926V21.4493L21.7727 21.7986L22.3742 22.0508L21.8697 21.6045L21.5204 21.3134H22.9758L22.5295 21.1194L21.8309 20.7701L22.2772 20.6148L23.0728 20.3237L22.219 20.3819L21.3652 20.4401L21.4234 20.2461L21.4816 20.0908L24.1789 20.2849H24.3341L24.2759 20.1297L24.2177 19.8774L24.3729 19.9356L24.47 19.9938L24.5282 19.8968L24.6252 19.5475L24.6834 19.3922L24.5282 19.334L21.6368 18.6354L21.5398 18.4802L21.7921 17.8398V17.7427L21.6368 17.2964V17.2382H21.5786L21.1323 17.1411H21.0353L20.9771 17.2382L20.7248 17.7427H20.6666L20.6084 17.6845L20.5114 17.7427L19.871 18.2473L18.7261 17.4904L18.6291 17.4322L18.5709 17.5875L18.4156 17.995L17.2707 17.7427L17.3289 17.4516L17.3872 17.3546H17.2319L17.0379 17.2964L17.0961 17.1411L17.1543 17.0441L17.0573 16.9859L16.5527 16.8306L16.4557 16.7724L16.3975 16.8695L16.2423 17.3158L15.6989 16.7142L15.5049 16.5784ZM21.1517 19.431L21.4428 19.2758L22.5877 19.5281L21.1517 19.431ZM17.8529 19.9744L17.9111 19.8774L21.2099 20.0714L20.0068 20.2267L20.1621 20.0714H19.9098L17.8529 19.9744Z" fill="#3E4347"/>
<path d="M15.1935 16.5784C14.9413 16.4231 14.786 16.2873 14.7472 16.0738C14.689 15.6663 15.1547 15.2782 15.1547 15.2782L15.2517 15.22V15.317C15.31 15.5111 15.7563 15.5693 15.9503 15.5693H16.1056C16.2608 15.5693 16.3966 15.6275 16.5519 15.7633V15.8604C16.2996 16.2679 15.9115 16.3067 15.6592 16.3067C15.504 16.3067 15.3682 16.2485 15.3099 16.2485C15.3099 16.3067 15.2517 16.3455 15.2517 16.5396V16.6366L15.1935 16.5784Z" fill="#FFCE31"/>
<path d="M15.1953 15.3364C15.2535 15.6275 15.9521 15.6275 15.9521 15.6275H16.1074C16.2044 15.6275 16.3596 15.6857 16.5149 15.8215C16.2626 16.1709 15.9133 16.2679 15.661 16.2679C15.467 16.2679 15.3117 16.2097 15.3117 16.2097C15.3117 16.2097 15.2535 16.2679 15.2147 16.559C14.3027 16.0738 15.1953 15.3364 15.1953 15.3364ZM15.3117 15.1812H15.2147C15.1177 15.1812 14.7684 15.5887 14.7102 15.8215C14.652 16.0738 14.7102 16.3649 15.1565 16.6172L15.3117 16.7142V16.559C15.3117 16.4619 15.37 16.4037 15.37 16.3649C15.4282 16.3649 15.564 16.4231 15.661 16.4231C15.9133 16.4231 16.3014 16.3261 16.6119 15.9186L16.6701 15.8604L16.6119 15.8021C16.5149 15.6469 16.3208 15.5499 16.1074 15.5499H15.9521C15.6998 15.5499 15.3505 15.4916 15.3117 15.3558V15.1812Z" fill="#3E4347"/>
<path d="M15.1562 15.3365L15.3503 15.0454L15.4473 14.599L17.6401 13.4929L18.3387 12.6973L18.0864 13.4541L18.979 13.26L18.2222 13.8034L19.2313 13.6093L18.3775 14.1527L19.4253 14.0557L18.6297 14.599L19.3283 14.6573L18.4745 15.0648L17.3296 15.3559L16.534 15.8992H15.3891L15.1562 15.3365Z" fill="white"/>
<path d="M18.2023 12.9883L18.0083 13.5317L18.7068 13.3764L18.0083 13.881L18.9009 13.6869L18.1441 14.2303L19.192 14.1333L18.5904 14.5408L18.2411 14.599L19.1338 14.696L18.4934 14.9871L17.3485 15.2782L16.4947 15.7828H15.4468L15.2528 15.2782L15.408 15.0259L15.505 14.5796L17.6978 13.4735L18.2023 12.9883ZM18.4934 12.3867L18.0859 12.8913L17.6396 13.4346L15.4468 14.5408H15.3886V14.599L15.2916 15.0453L15.1363 15.2976L15.0781 15.3558V15.4141L15.2722 15.9186L15.3304 16.0156H16.5723L17.3679 15.5111L18.474 15.22L19.1144 14.9289L19.5219 14.7348L19.1144 14.5796H18.8233L19.2696 14.2885L19.7159 13.9974L19.2114 14.0556L18.6098 14.1139L19.0173 13.8616L19.5607 13.5123L18.9203 13.6675L18.571 13.7645L18.8233 13.5705L19.2696 13.2212L18.7263 13.3182L18.2217 13.4152L18.3187 13.0659L18.4934 12.3867Z" fill="#3E4347"/>
<path d="M24.4118 14.6378L24.0625 14.1915L24.3536 13.4346L24.1983 13.1824L24.2953 12.6778L26.3523 12.3285L26.0612 12.9301L26.7016 13.4734L26.2552 14.2691L26.6045 15.0647L24.4118 14.6378Z" fill="white"/>
<path d="M26.1967 12.4255L25.9056 12.9689L26.6042 13.4734L26.1578 14.2691L26.5071 14.9677L24.4114 14.5602L24.1203 14.1527L24.3726 13.3958L24.2174 13.1435L24.3144 12.736L26.1967 12.4255ZM26.4489 12.2897L26.1967 12.3479L24.3532 12.639H24.2562V12.736L24.1592 13.1435V13.2406L24.2562 13.4346L24.0039 14.1332V14.1915L24.0621 14.2497L24.3532 14.6572L24.4114 14.7154H24.4696L26.5653 15.123L26.8176 15.1812L26.7206 14.9871L26.4295 14.3467L26.8758 13.5899L26.934 13.4928L26.837 13.4346L26.2355 12.9883L26.4877 12.5419V12.2897H26.4489Z" fill="#3E4347"/>
</svg>
