<svg width="30" height="31" viewBox="0 0 30 31" fill="none" xmlns="http://www.w3.org/2000/svg">
<path d="M15 0.321777V15.3226H0C0 23.6283 6.6947 30.3234 15 30.3234C23.3053 30.3234 30 23.6283 30 15.3226C30 7.01684 23.3053 0.321777 15 0.321777Z" fill="#ED4C5C"/>
<path d="M15 0.321777C6.6947 0.321777 0 7.01684 0 15.3226H15V0.321777Z" fill="#2A5F9E"/>
<path d="M8.50123 5.87219L9.1028 6.31849L8.90875 5.56168L9.51028 5.05711H8.75351L8.50123 4.30029L8.24896 5.05711H7.49219L8.09376 5.56168L7.89971 6.31849L8.50123 5.87219Z" fill="white"/>
<path d="M8.50123 12.8775L9.1028 13.3239L8.90875 12.5671L9.51028 12.0625H8.75351L8.50123 11.3057L8.24896 12.0625H7.49219L8.09376 12.5671L7.89971 13.3239L8.50123 12.8775Z" fill="white"/>
<path d="M5.99733 8.37512L6.59885 8.82147L6.4048 8.06461L7.00637 7.56008H6.2496L5.99733 6.80322L5.74505 7.56008H4.98828L5.5898 8.06461L5.39576 8.82147L5.99733 8.37512Z" fill="white"/>
<path d="M11.0013 8.37512L11.6028 8.82147L11.4088 8.06461L12.0103 7.56008H11.2535L11.0013 6.80322L10.749 7.56008H9.99219L10.5938 8.06461L10.3997 8.82147L11.0013 8.37512Z" fill="white"/>
<path d="M10.0122 10.5679L10.3033 10.8202L10.2063 10.4126L10.4973 10.2186H10.0898L9.99278 9.81104L9.89576 10.2186H9.48828L9.77935 10.4126L9.68233 10.8202L10.0122 10.5679Z" fill="white"/>
</svg>
