<svg width="30" height="31" viewBox="0 0 30 31" fill="none" xmlns="http://www.w3.org/2000/svg">
<path d="M15 30.3621C23.3053 30.3621 30 23.6671 30 15.3613H0C0 23.6671 6.6947 30.3621 15 30.3621Z" fill="#A0CFEB"/>
<path d="M15 0.360352C6.6947 0.360352 0 7.05541 0 15.3612H30C30 7.05541 23.3053 0.360352 15 0.360352Z" fill="#F9F9F9"/>
<path d="M10.4417 11.6545L9.29685 11.4604H9.35503L9.85958 9.71387L8.50123 10.917L7.89966 10.0244L7.49219 11.0723L8.24896 12.3143L9.6461 12.4113L10.4417 11.6545Z" fill="#699635"/>
<path d="M9.54704 13.1103L8.40217 13.2073H8.46039L8.51862 11.3638L7.47072 12.858L6.67515 12.1594L6.57812 13.2656L7.58717 14.2747L9.04254 14.0806L9.54704 13.1103Z" fill="#83BF4F"/>
<path d="M9.04292 14.7013L7.99502 15.1088L7.58755 13.3623L6.98598 15.0118L6.03516 14.5655L6.1904 15.6716L7.4323 16.3702L8.73242 15.7686L9.04292 14.7013Z" fill="#699635"/>
<path d="M9.00412 16.4089L8.11147 17.0493H8.05325L7.19945 15.458L7.0442 17.2628L6.03516 17.0687L6.48148 18.0196L7.87862 18.4271L8.98469 17.5344V16.4089H9.00412Z" fill="#83BF4F"/>
<path d="M9.39262 18.0585L8.6358 18.9512V18.893L7.39391 17.5928L7.74321 19.3393L6.69531 19.3975L7.39391 20.2514L8.84928 20.3096L9.64485 19.1064L9.39262 18.0585Z" fill="#699635"/>
<path d="M10.2079 19.5527L9.76154 20.6007L9.70332 20.5425L8.15093 19.5916L8.94655 21.2411L7.9375 21.5322L8.8301 22.1725L10.2272 21.8233L10.7318 20.4649L10.2079 19.5527Z" fill="#83BF4F"/>
<path d="M11.3505 20.8145L11.1952 21.9206H11.1371L9.39062 21.3773L10.5937 22.7745L9.70107 23.3178L10.749 23.7253L11.9909 23.0268L12.1461 21.5713L11.3505 20.8145Z" fill="#699635"/>
<path d="M19.5391 11.6545L20.684 11.4604H20.6258L20.1212 9.71387L21.4796 10.917L22.0811 10.0244L22.4886 11.0723L21.7318 12.3143L20.3347 12.4113L19.5391 11.6545Z" fill="#699635"/>
<path d="M20.4531 13.1103L21.598 13.2073H21.5398L21.4815 11.3638L22.5294 12.858L23.325 12.1594L23.422 13.2656L22.413 14.2747L20.9576 14.0806L20.4531 13.1103Z" fill="#83BF4F"/>
<path d="M20.957 14.7013L22.0049 15.1088L22.4124 13.3623L23.014 15.0118L23.9648 14.5655L23.8095 15.6716L22.5676 16.3702L21.2675 15.7686L20.957 14.7013Z" fill="#699635"/>
<path d="M20.9961 16.4089L21.8887 17.0493H21.947L22.8008 15.458L22.8978 17.2628L23.9457 17.0687L23.4994 18.0196L22.1022 18.4271L20.9961 17.5344V16.4089Z" fill="#83BF4F"/>
<path d="M20.6077 18.0585L21.3645 18.9512V18.893L22.6064 17.5928L22.2571 19.3393L23.305 19.3975L22.6064 20.2514L21.151 20.3096L20.3555 19.1064L20.6077 18.0585Z" fill="#699635"/>
<path d="M19.7935 19.5527L20.2398 20.6007L20.298 20.5425L21.8504 19.5916L21.0548 21.2411L22.0638 21.5322L21.1712 22.1725L19.7741 21.8233L19.2695 20.4649L19.7935 19.5527Z" fill="#83BF4F"/>
<path d="M18.6472 20.8145L18.8024 21.9206H18.8606L20.607 21.3773L19.404 22.7745L20.2966 23.3178L19.2487 23.7253L18.0068 23.0268L17.8516 21.5713L18.6472 20.8145Z" fill="#699635"/>
<path d="M11.8555 7.40474L12.9615 8.54967H17.0171L18.1233 7.40474L18.2203 5.69701L15.62 4.84316L15.8723 4.6491L15.0185 4.14453L14.1646 4.6491L14.4169 4.84316L12.0107 5.44472L11.8555 7.40474ZM17.5993 6.00752L16.959 7.01662L16.2992 6.76433L15.5036 6.60908V5.15363L17.5993 6.00752ZM12.3988 6.00752L14.4945 5.15363V6.60908L13.6989 6.76433L13.0586 7.01662L12.3988 6.00752Z" fill="#F1BF31"/>
<path d="M14.5538 3.05798H14.8449V3.1162L14.7866 3.65958H15.1942L15.1359 3.1162V3.05798H15.427L15.5823 2.90277L15.427 2.70871L15.1359 2.76689L15.1942 2.4758L15.0001 2.28174L14.8061 2.4758L14.8643 2.76689L14.5732 2.70871L14.418 2.90277L14.5538 3.05798Z" fill="#F1BF31"/>
<path d="M14.9032 10.6066C15.8541 10.6066 19.8127 9.90798 19.8127 15.4581C19.8127 20.7559 15.0197 22.8517 15.0197 22.8517C15.0197 22.8517 10.2266 20.7947 10.2266 15.0505C10.2072 9.90797 14.9032 10.6066 14.9032 10.6066Z" fill="#A0CFEB"/>
<path d="M16.4932 18.8543C16.7843 18.6991 17.0948 18.602 17.4441 18.602C17.9874 18.602 18.492 18.8543 18.8995 19.2036C17.5023 21.7458 15.0573 22.8131 15.0573 22.8131C15.0573 22.8131 12.6511 21.804 11.2539 19.2036C11.6032 18.8543 12.1077 18.602 12.651 18.602C13.0586 18.602 13.4079 18.699 13.6989 18.8931C14.0482 18.4856 14.5528 18.2915 15.1543 18.2915C15.6394 18.3109 16.1051 18.505 16.4932 18.8543Z" fill="#83BF4F"/>
<path d="M20.7444 14.0998C20.5892 12.1592 20.0458 10.8978 19.2891 10.1992C18.5905 9.59762 17.7949 9.44236 17.1933 9.65583H17.1351L15.3304 10.4515C15.2334 10.3545 15.1364 10.2962 14.9811 10.2962C14.8259 10.2962 14.7289 10.3545 14.6319 10.4515L12.8272 9.65583H12.769C12.1674 9.46177 11.3718 9.55882 10.6732 10.1604C9.91646 10.8008 9.31491 12.0622 9.21788 14.061C8.96562 17.2048 10.324 19.5141 11.8182 20.8531C12.6138 21.5517 13.8751 22.4443 14.9618 22.8519C16.0678 22.4443 17.3097 21.6099 18.1053 20.8531C19.6577 19.5141 20.9967 17.2048 20.7444 14.0998ZM10.6539 14.6043C10.7509 12.4503 11.3524 11.7517 11.6629 11.4994C11.7599 11.8487 12.1092 12.0428 12.4197 12.0428C12.672 12.0428 14.6125 10.9366 14.6125 10.9366C14.6707 11.0337 14.8065 11.1307 14.9618 11.1307C15.117 11.1307 15.2528 11.0337 15.3111 10.9366C15.3111 10.9366 17.1545 12.0428 17.5038 12.0428C17.7948 12.0428 18.1442 11.8487 18.2606 11.4994C18.5517 11.7517 19.1532 12.3921 19.2696 14.6043C19.4637 18.6602 15.9126 22.4637 14.923 22.4637C13.9915 22.4637 10.4986 18.6602 10.6539 14.6043Z" fill="#F1BF31"/>
<path d="M14.9405 18.3111H15.0958C15.348 18.3111 15.5421 18.3693 15.7944 18.4081L15.5421 17.4573V15.5555L15.7944 15.2062V14.5658L15.4451 14.4687V14.8763L15.1928 14.818V14.3717L14.9987 14.3135L14.8047 14.4105V14.818L14.5524 14.9151V14.5075L14.2031 14.6628V15.3032L14.4554 15.5943V17.4961L14.2031 18.544C14.339 18.4081 14.6494 18.3111 14.9405 18.3111Z" fill="white"/>
<path d="M17.2917 18.6019H17.3887C17.641 18.6019 17.8932 18.6601 18.1455 18.7571L17.9515 17.8645V15.9627L18.2037 15.6134V14.973L17.7962 14.876V15.2835L17.544 15.1864V14.7789L17.3499 14.7207L17.1559 14.7789V15.1864L16.9036 15.2835V14.876L16.4961 14.973V15.6134L16.7484 15.9627V17.8645L16.4961 18.8736C16.7484 18.7183 17.0006 18.6019 17.2917 18.6019Z" fill="white"/>
<path d="M12.5535 18.6019H12.6506C12.9028 18.6019 13.1551 18.6601 13.4074 18.7571L13.1551 17.8645V15.9627L13.4074 15.6134V14.973L13.0581 14.876V15.2835L12.8058 15.1864V14.7789L12.6118 14.7207L12.4177 14.7789V15.1864L12.1654 15.2835V14.876L11.8162 14.973V15.6134L12.0684 15.9627V17.8645L11.7773 18.8736C11.9908 18.7183 12.2431 18.6019 12.5535 18.6019Z" fill="white"/>
<path d="M12.4972 12.955C12.7495 12.8968 12.8465 13.1491 12.9047 13.3626C13.3122 13.1103 13.1569 12.5669 12.6524 12.5669C12.5942 12.5669 12.4972 12.5669 12.4584 12.6251C12.3031 12.6833 12.1673 12.8774 12.1091 13.0327C11.9539 13.576 12.5166 13.9253 12.5166 14.5269C12.9435 14.2552 12.5554 13.2655 12.4972 12.955Z" fill="white"/>
<path d="M15.35 12.9548C15.7576 12.7025 15.6023 12.1592 15.0978 12.1592C15.0396 12.1592 14.9425 12.1592 14.9037 12.2174C14.7485 12.2756 14.6126 12.4697 14.5544 12.6249C14.3992 13.1683 14.9619 13.5176 14.9619 14.1192C15.3695 13.9251 14.9619 12.916 14.9037 12.6249C15.1948 12.5085 15.2918 12.7607 15.35 12.9548Z" fill="white"/>
<path d="M17.3488 12.955C17.601 12.8968 17.698 13.1491 17.7563 13.3626C18.1638 13.1103 18.0085 12.5669 17.504 12.5669C17.4458 12.5669 17.3487 12.5669 17.3099 12.6251C17.1547 12.6833 17.0189 12.8774 16.9607 13.0327C16.8054 13.576 17.3682 13.9253 17.3682 14.5269C17.7563 14.2552 17.3488 13.2655 17.3488 12.955Z" fill="white"/>
<path d="M21.9468 25.3164C21.9468 25.3164 22.4901 24.8118 22.5483 24.2102C22.0438 24.5595 21.5393 24.6566 21.0542 24.6566C20.5496 24.6566 20.2586 24.3655 19.5988 24.2491C19.657 24.055 19.6958 23.8027 19.754 23.4922C19.8122 23.1429 19.6958 22.8907 19.2107 22.7936C18.1046 22.6384 17.0568 23.2981 15.1551 23.337C13.2146 23.2787 11.9144 22.6966 10.8084 22.7936C10.3038 22.8518 10.2068 23.1429 10.2651 23.4922C10.3233 23.7833 10.362 24.0356 10.4203 24.2491C9.7799 24.3461 9.46942 24.6566 8.96489 24.6566C8.46036 24.6566 7.95584 24.5983 7.47072 24.2102C7.52894 24.87 8.07229 25.3164 8.07229 25.3164C7.3155 25.3746 6.57812 25.2194 6.57812 25.2194C7.58718 26.3255 8.77084 26.9271 10.4203 26.112C11.177 25.7045 11.9145 26.1702 12.6712 26.1702C13.6803 26.1702 13.4281 25.3746 13.2728 24.9671C13.8162 25.0641 14.4759 25.1223 15.1163 25.1223C15.7178 25.1223 16.2224 25.0641 16.7075 24.9671C16.6105 25.3746 16.3582 26.1702 17.309 26.1702C18.0076 26.1702 18.8032 25.7239 19.56 26.112C21.1512 26.9659 22.4125 26.3643 23.4022 25.2194C23.4022 25.2194 22.7036 25.3552 21.9468 25.3164Z" fill="white"/>
</svg>
