<svg width="30" height="31" viewBox="0 0 30 31" fill="none" xmlns="http://www.w3.org/2000/svg">
<path d="M28.9918 20.3243C26.2381 20.3243 23.9886 18.0747 23.9886 15.3208H4.40234V25.9096C7.09788 28.6052 10.8406 30.3119 14.9905 30.3119C21.5452 30.3119 27.0914 26.1229 29.1276 20.3243H28.9918Z" fill="#83BF4F"/>
<path d="M28.992 10.3172H29.1471C27.0915 4.51856 21.5453 0.32959 15.0101 0.32959C10.8602 0.32959 7.11741 2.0362 4.42188 4.73188V15.3207H24.0081C23.9888 12.5668 26.2383 10.3172 28.992 10.3172Z" fill="#83BF4F"/>
<path d="M29.147 10.3174H4.40234V20.305H29.147C29.6899 18.7535 30.0002 17.0663 30.0002 15.3015C30.0002 13.5367 29.6899 11.8689 29.147 10.3174Z" fill="#FFE62E"/>
<path d="M4.4021 4.73193C1.70656 7.42761 0 11.1706 0 15.3207C0 19.4709 1.70656 23.2138 4.4021 25.9095L14.9903 15.3207L4.4021 4.73193Z" fill="#ED4C5C"/>
<path d="M19.0051 16.368L20.2462 17.3183L19.742 15.7668L20.9831 14.8747L19.4899 14.8165L18.9857 13.3232L18.4815 14.8165L16.9883 14.8747L18.2294 15.7668L17.7252 17.3183L19.0051 16.368Z" fill="#3E4347"/>
<path d="M24.9973 16.368L26.2384 17.3183L25.7342 15.7668L26.9753 14.8747L25.4821 14.8165L24.9779 13.3232L24.4737 14.8165L22.9805 14.8747L24.2216 15.7668L23.7174 17.3183L24.9973 16.368Z" fill="#3E4347"/>
</svg>
