<svg width="30" height="31" viewBox="0 0 30 31" fill="none" xmlns="http://www.w3.org/2000/svg">
<path d="M22.5 22.8608C26.6421 18.7184 26.6421 12.0023 22.5 7.85995C18.3579 3.7176 11.6421 3.7176 7.5 7.85995C3.35787 12.0023 3.35787 18.7184 7.5 22.8608C11.6421 27.0031 18.3579 27.0031 22.5 22.8608Z" fill="#699635"/>
<path d="M14.908 13.4778C14.8669 13.1622 15.0452 12.8466 15.3608 12.9152C15.6078 12.9564 15.8959 13.2033 15.745 13.4503C15.5392 13.8346 14.9629 13.8346 14.6199 14.0541C14.661 14.26 15.6764 14.013 15.8548 14.013C16.0332 14.013 16.2115 14.0816 16.1018 14.3012C15.992 14.507 15.649 14.507 15.4294 14.5481C15.2236 14.5893 14.8668 14.5893 14.7571 14.754C14.5512 15.0421 14.9629 15.0696 15.1138 15.1382C15.4706 15.3166 14.908 15.495 14.7571 15.4538C14.2219 15.344 14.1259 15.0696 13.7966 14.7128C13.481 15.1382 12.493 16.085 12.2735 15.097C11.9167 15.2342 11.56 15.4126 11.1758 15.4538C11.3542 15.2068 11.7109 15.097 11.9853 14.9598C12.3421 14.7814 12.3421 14.4658 12.5479 14.1776C12.6165 14.2874 12.5479 14.4246 12.5891 14.5619C12.8772 14.4246 13.2203 14.1365 13.0831 13.7797C13.0831 13.7385 12.6577 12.9015 13.0144 13.0387C13.33 13.1759 13.2203 13.5053 13.3026 13.7523C13.4124 14.2051 13.1928 14.4658 12.8498 14.7403C12.7126 14.85 12.3147 15.2754 12.7812 15.2754C13.0968 15.2754 13.3849 14.9187 13.5633 14.7128C13.7691 14.4247 13.7005 14.1502 13.5633 13.8346C13.4535 13.5876 13.2065 13.0524 13.5221 12.874C13.7691 13.2582 13.8789 13.7248 13.9749 14.1776C14.0436 14.5619 14.1122 14.9598 14.5375 15.0559C14.4964 14.7677 14.6747 14.5619 14.9217 14.4521C14.7433 14.3149 13.7554 14.4933 14.1396 13.9581C14.1945 13.7248 14.908 13.6288 14.908 13.4778Z" fill="white"/>
<path d="M9.48784 14.7953C9.66622 15.2893 10.27 15.111 10.613 14.9737C11.1756 14.6856 11.1756 14.2602 11.1756 13.6976C10.9698 13.8073 10.9972 14.1916 10.9286 14.37C10.7914 14.6581 10.3249 14.9051 10.0093 14.864C9.55645 14.7953 9.3369 14.0132 9.69366 13.7387C9.76227 13.9857 9.5839 14.5209 10.0093 14.5483C10.3249 14.5895 10.9698 14.1916 10.86 13.8348C10.4346 13.972 10.1876 13.8348 10.3248 13.3682C10.4346 12.9429 10.86 13.2585 11.0384 13.478C11.7107 13.0938 10.5032 11.5981 11.2167 11.2139C11.3539 11.4609 11.5735 11.7765 11.3951 12.0235C11.1893 12.3116 11.3951 12.9017 11.4363 13.231C11.793 12.9154 11.5049 13.478 11.7931 13.5192C11.9714 13.5603 12.04 13.0938 12.1498 13.0938C12.191 13.2036 12.191 13.5192 12.3556 13.478C12.5614 13.4094 12.3145 13.1212 12.534 13.0526C12.6026 13.231 12.5752 13.7662 12.3282 13.725C12.1224 13.6838 12.1498 13.5466 11.9028 13.6839C11.697 13.7936 11.6147 13.6839 11.4775 13.5741C11.4363 13.9995 11.5872 14.4523 11.3402 14.8503C11.1344 15.1659 10.7091 15.3442 10.3523 15.4128C9.43296 15.5912 9.18595 14.6718 9.50154 13.9308C9.55643 14.1504 9.41923 14.5483 9.48784 14.7953Z" fill="white"/>
<path d="M18.1186 14.9737C18.2969 15.4403 18.6537 14.4797 18.7498 14.3425C19.0379 13.9171 19.4633 15.0149 19.6279 14.3013C19.7377 13.8485 19.5868 13.3819 19.5593 12.9291C19.5181 12.6135 19.4221 12.3253 19.2026 12.0783C18.9968 11.7901 18.7772 11.5432 18.887 11.2001C19.2437 11.3373 19.2437 11.6255 19.4221 11.9137C19.4633 11.7078 19.3123 11.4197 19.4633 11.2413C19.6416 10.9943 19.7789 11.6666 19.7789 11.7353C19.82 11.9136 19.6416 11.9823 19.7377 12.2704C19.8063 12.4763 19.9435 12.6958 20.0945 12.8742C20.0533 12.6684 19.7377 11.2138 20.0945 11.2138C20.2042 11.2138 20.3003 11.6392 20.3003 11.7078C20.3689 11.9137 20.2317 12.0921 20.2317 12.3391C20.1905 12.7644 20.2728 13.2584 20.5472 13.5741C20.6845 13.7524 21.2196 14.3837 20.9315 14.6032C20.7256 14.3562 20.5747 14.0681 20.3963 13.8211C20.3963 14.1092 20.4649 14.4248 20.3277 14.6307C20.1905 14.562 20.2591 14.0955 20.2591 13.9994C20.2591 13.6152 20.0121 13.2859 19.8063 12.9703C19.7377 13.5054 20.1631 14.4934 19.6691 14.8777C19.3535 15.1658 18.9281 14.5209 18.8184 14.7679C18.7086 14.9463 18.4616 15.5775 18.1872 15.5089C17.8304 15.4403 17.5834 14.4523 17.9813 14.3425C18.0088 14.5071 18.0088 14.7542 18.1186 14.9737Z" fill="white"/>
<path d="M10.5571 12.5586C10.8041 12.5998 10.5571 11.749 10.5571 11.598C10.5982 11.4608 10.6943 11.3922 10.7629 11.5294C10.8727 11.7353 10.8727 11.996 10.9001 12.2018C10.9001 12.3802 10.9413 12.586 10.7903 12.737C10.5845 12.9428 10.2963 12.8468 10.1866 12.5586C9.69259 12.984 10.3238 13.725 9.89843 14.1504C9.82982 13.7662 9.89843 13.3408 9.76122 12.984C9.69261 12.8056 9.377 12.8742 9.33584 12.5586C9.33584 12.4214 9.4456 12.0234 9.29467 11.9274C9.22606 12.0646 9.15747 13.1624 8.80071 12.8468C8.51256 12.6409 8.59488 11.9274 8.69093 11.6392C8.89676 11.749 8.64978 12.5174 8.93793 12.5586C9.07514 12.5998 9.11631 11.996 9.14375 11.8862C9.25352 11.7078 9.59657 11.2138 9.52796 11.7078C9.48679 11.9136 9.32214 12.586 9.73378 12.5586C9.69262 12.2018 9.66517 11.845 9.59657 11.502C9.5554 11.3236 9.66517 10.9668 9.80239 11.2961C9.91216 11.502 9.84355 11.6118 9.80239 11.8313C9.76122 12.0783 9.87097 12.3253 9.91213 12.5449C10.118 12.3665 9.84353 11.6941 10.0219 11.4197C10.4747 11.6392 10.0219 12.49 10.5571 12.5586Z" fill="white"/>
<path d="M15.1134 12.627C14.935 12.874 14.6194 12.6682 14.4822 12.4898C14.3038 12.6956 13.9471 13.0524 13.6726 12.778C13.4668 12.5721 13.7138 12.1742 13.5354 11.9958C13.4257 12.1742 13.2473 13.0249 12.9317 12.627C12.7533 12.4212 12.5063 11.6665 12.8905 11.5018C12.8494 11.79 12.7808 12.1056 12.9591 12.3526C13.1375 12.5996 13.3159 11.9684 13.3845 11.8174C13.4943 11.5704 13.8373 11.145 13.7687 11.6802C13.7275 11.886 13.6589 12.3937 13.8785 12.531C14.0157 12.6407 14.1941 12.4623 14.2627 12.3526C14.3999 12.1742 14.3313 11.8997 14.3038 11.6802C14.2627 11.5018 14.194 11.296 14.3038 11.1176C14.441 10.9117 14.5508 11.4057 14.5508 11.5018C14.5508 11.6116 14.688 12.7093 14.935 12.3526C15.182 12.037 14.5097 11.3234 14.9762 11.145C15.1546 11.0764 15.4702 11.7762 15.1134 11.5704C15.2232 11.886 15.3604 12.3526 15.1134 12.627Z" fill="white"/>
<path d="M16.4601 13.0524C16.5013 13.5189 16.8855 14.7814 16.3504 15.0695C16.2818 14.9323 16.3504 14.7128 16.3915 14.5344C16.4327 14.2188 16.3504 13.9032 16.3229 13.615C16.2543 12.9426 16.1857 12.4486 15.7192 11.9134C15.6094 11.7762 15.431 11.6665 15.4036 11.4469C15.4036 11.3783 15.3624 11.0627 15.5133 11.1313C15.6231 11.1724 16.2269 11.6939 15.8975 11.6939C15.9387 11.7625 16.0759 12.0507 16.1445 12.0507C16.1445 11.8723 15.9387 11.3371 16.1445 11.2411C16.3229 11.1313 16.5288 11.8037 16.4601 11.9546C16.3915 12.133 16.3915 12.2428 16.4601 12.4898C16.5288 12.7779 16.7071 13.025 16.8443 13.272C17.0501 13.6287 17.4755 14.1227 17.3795 14.5756C17.1737 14.4658 17.0227 13.9718 16.9267 13.7659C16.8581 13.5875 16.7894 13.4092 16.6797 13.272C16.6385 13.2308 16.4327 12.9563 16.4738 13.1347V13.0524" fill="white"/>
<path d="M21.3712 13.7249C21.4124 14.4659 21.1654 15.4265 20.2461 15.4265C20.2461 15.2207 20.6989 15.0011 20.8499 14.8913C21.2066 14.6031 21.1654 14.0817 21.138 13.6838C21.0968 13.1486 21.0694 12.6272 20.9596 12.092C20.9184 11.7764 20.7538 11.3098 21.0282 11.104C21.2066 11.2412 21.4536 11.6392 21.3438 11.7764C21.1654 11.9959 21.3301 13.5877 21.3712 13.7249Z" fill="white"/>
<path d="M16.8412 15.3164C17.7605 14.7812 17.4724 13.656 17.4038 12.764C17.3626 12.5171 17.3626 12.2701 17.3352 12.0231C17.3352 11.8447 17.198 11.5977 17.2666 11.4193C17.445 10.9665 17.5822 11.3781 17.6234 11.6663C17.6645 11.8447 17.5136 11.8721 17.5547 12.0231C17.5959 12.3112 17.5959 12.5857 17.6234 12.8738C17.6645 13.3267 17.7331 13.7932 17.692 14.2186C17.6234 14.891 17.2666 15.632 16.457 15.4948C16.4845 15.4262 16.7314 15.385 16.8412 15.3164Z" fill="white"/>
<path d="M18.3242 13.5464C18.3654 13.9031 18.5026 14.5344 18.3242 14.85C18.187 15.0558 18.187 14.7127 18.1458 14.6716C18.1046 14.3834 18.1047 14.1089 18.1047 13.7933C18.0361 13.0112 17.7891 12.2427 17.7891 11.5017C17.7891 10.5412 18.5986 12.0369 18.1458 11.9546C18.187 12.4897 18.2556 13.0249 18.3242 13.5464Z" fill="white"/>
<path d="M12.5628 11.7487C12.6314 11.9271 11.7532 12.38 11.6434 12.38C11.6023 12.2016 12.0276 11.9546 12.1374 11.886C12.2472 11.7762 12.3158 11.7762 12.2746 11.639C12.206 11.5017 12.2335 11.2547 12.4118 11.1861C12.7823 11.0763 12.5353 11.6115 12.5628 11.7487Z" fill="white"/>
<path d="M8.92328 14.891C8.92328 15.1791 9.03306 15.0282 9.17027 14.9596C9.23888 15.0968 9.06049 15.4948 8.88211 15.3164C8.63512 15.0694 8.84094 14.5068 8.95071 14.2598C9.03304 14.4382 8.88211 14.7263 8.92328 14.891Z" fill="white"/>
<path d="M18.9013 12.7095C18.9425 12.5723 18.8327 12.4213 18.9425 12.2841C19.0797 12.1057 19.2306 12.3253 19.1483 12.3939C19.0797 12.4625 18.9699 12.3253 18.9699 12.5311C18.9699 12.6409 19.0385 12.8468 18.9288 12.9565C18.8602 12.9154 18.5446 12.4625 18.572 12.3939C18.7229 12.243 18.8601 12.6684 18.9013 12.7095Z" fill="white"/>
<path d="M9.66546 13.2993C9.59685 13.4365 8.78726 13.9031 8.74609 13.7933C8.74609 13.6973 9.77523 13.0935 9.66546 13.2993Z" fill="white"/>
<path d="M15.6764 15.111C15.5666 15.4266 16.0331 15.1521 16.1292 15.111C15.992 15.358 15.498 15.5638 15.5666 15.111C15.5255 15.111 15.4569 15.1521 15.4294 15.1521C15.3608 15.0698 15.7861 14.7954 15.6764 15.111Z" fill="white"/>
<path d="M19.5306 15.001C19.6403 15.001 19.8187 15.3166 19.709 15.3852C19.6404 15.4538 19.3248 15.495 19.5031 15.344C19.709 15.1382 19.5306 15.001 19.5306 15.001Z" fill="white"/>
<path d="M14.5498 13.2035C14.5909 13.1349 14.5909 13.0252 14.6184 12.9565C14.9751 13.2447 14.0558 13.6975 14.2342 13.0252C14.3028 13.0938 14.3028 13.2035 14.3714 13.231C14.3714 13.1624 14.4125 13.0526 14.4125 12.984C14.4811 13.0526 14.4811 13.1624 14.5498 13.2035Z" fill="white"/>
<path d="M18.6805 13.656C18.5707 13.5188 19.2156 13.1209 19.3117 13.0522C19.394 13.162 18.9 13.5462 18.6805 13.656Z" fill="white"/>
<path d="M20.6716 12.2427C20.603 12.0369 20.3835 11.6115 20.603 11.4331C20.7402 11.5429 20.8088 12.0643 20.6716 12.2427Z" fill="white"/>
<path d="M16.813 11.5431C16.7718 11.4745 16.6758 11.4059 16.6758 11.2961C16.7169 11.1589 16.7856 11.1863 16.8542 11.2549C16.9639 11.3922 17.0325 11.7901 16.8542 11.8862C16.8404 11.7901 16.8816 11.6392 16.813 11.5431Z" fill="white"/>
<path d="M12.4919 12.4896C12.4919 12.6955 12.1351 12.915 12.1077 12.6269C12.0665 12.5171 12.2449 12.1329 12.3135 12.2427C12.1763 12.5583 12.1763 12.668 12.4919 12.4896Z" fill="white"/>
<path d="M16.912 12.1056C17.0492 12.4624 16.9806 12.1468 17.1178 12.0645C17.3648 12.5173 16.5827 12.4212 16.7611 12.1331C16.8023 12.1742 16.8297 12.2428 16.8297 12.2703C16.8846 12.2428 16.8846 12.1742 16.912 12.1056Z" fill="white"/>
<path d="M19.1732 13.7249C18.9948 13.5877 19.2144 13.4093 19.3104 13.5877C19.379 13.6974 19.379 13.9719 19.2418 14.0405C19.2418 13.9444 19.283 13.8072 19.1732 13.7249Z" fill="white"/>
<path d="M11.9294 14.5071C11.9294 14.4385 11.8883 13.9033 11.998 13.9719C12.149 14.0542 12.1078 14.4385 11.9294 14.5071Z" fill="white"/>
<path d="M10.4497 11.1862C10.4909 11.2959 10.5184 11.4332 10.587 11.2548C10.8751 11.5704 9.87343 11.4606 10.2302 11.145C10.2302 11.1862 10.3125 11.392 10.4497 11.1862Z" fill="white"/>
<path d="M14.0581 11.9686C14.0581 11.8313 13.8523 11.2275 14.017 11.2275C14.2365 11.255 14.1954 11.7902 14.0581 11.9686Z" fill="white"/>
<path d="M9.10484 11.6393C8.99507 11.5981 9.17345 11.4335 9.10484 11.2825C9.03623 11.3237 8.96762 11.2139 9.03623 11.1453C9.31066 10.9395 9.21461 11.6393 9.10484 11.6393Z" fill="white"/>
<path d="M18.2555 18.8155L18.1183 18.3901L17.9811 18.8155H10.2422C10.2422 18.8155 10.3108 19.4468 11.0929 19.4468H17.9536V19.9408H19.8335V18.8155H18.2555ZM19.463 19.6663H18.1869V19.3096H19.463V19.6663Z" fill="white"/>
</svg>
