<svg width="30" height="31" viewBox="0 0 30 31" fill="none" xmlns="http://www.w3.org/2000/svg">
<path d="M30.0013 15.394C30.0013 8.83482 25.8487 3.28469 20.0078 1.24707V29.5409C25.8487 27.4839 30.0013 21.9338 30.0013 15.394Z" fill="#ED4C5C"/>
<path d="M0 15.394C0 21.9532 4.19146 27.5033 9.99352 29.5409V1.24707C4.19146 3.28469 0 8.83482 0 15.394Z" fill="#699635"/>
<path d="M20.0051 1.24691C18.4527 0.703543 16.7645 0.393066 14.9987 0.393066C13.2328 0.393066 11.5446 0.684137 9.99219 1.24691V29.5408C11.5446 30.0841 13.2328 30.3947 14.9987 30.3947C16.7645 30.3947 18.4527 30.1036 20.0051 29.5408V1.24691Z" fill="#FFE62E"/>
<path d="M14.9997 17.49L17.6582 19.3917L16.6491 16.345L19.2494 14.4432H16.0087L14.9997 11.3965L13.9907 14.4432H10.75L13.3503 16.345L12.3412 19.3917L14.9997 17.49Z" fill="#699635"/>
</svg>
