<svg width="30" height="31" viewBox="0 0 30 31" fill="none" xmlns="http://www.w3.org/2000/svg">
<path d="M15.0212 0.446777C8.46235 0.446777 2.91251 4.63846 0.875 10.4408H29.1674C27.1104 4.63846 21.5607 0.446777 15.0212 0.446777Z" fill="#ED4C5C"/>
<path d="M15.0212 30.4486C21.5801 30.4486 27.1298 26.2958 29.1674 20.4546H0.875C2.91251 26.2958 8.46235 30.4486 15.0212 30.4486Z" fill="#F9F9F9"/>
<path d="M0.853844 10.4409C0.310507 11.9934 0 13.6817 0 15.4477C0 17.2136 0.291102 18.9019 0.853844 20.4544H29.1462C29.6895 18.9019 30 17.2136 30 15.4477C30 13.6817 29.7089 11.9934 29.1462 10.4409H0.853844Z" fill="#2872A0"/>
<path d="M6.75391 10.2856V18.3779C6.75391 21.1724 9.10192 23.4235 12.0127 23.4235C14.9234 23.4235 17.2714 21.1724 17.2714 18.3779V10.2856H6.75391Z" fill="#ED4C5C"/>
<path d="M13.915 22.5889L13.818 22.1426L13.4105 21.444L13.5657 21.3469L13.4687 20.9006L13.1194 20.3573L13.2164 20.299L13.1194 19.8527L12.8671 19.3481L13.2747 18.5913L13.5269 19.387L13.7209 19.0959L14.012 19.5422L14.109 19.2511L14.4001 19.4063L14.3419 18.8048L15.0405 18.9988L14.536 18.3584H14.5942L14.1867 17.5628L14.2837 17.2717L14.536 17.7763L14.633 17.5822L15.0405 18.6883V18.6301L15.2345 19.0376L15.3315 18.8436L15.7391 19.6392L15.8943 19.1929L16.4958 19.6392C16.4958 19.6392 16.4376 18.1449 16.4376 17.6986C16.5346 16.3984 16.981 13.7398 16.6317 12.556C16.4764 11.9544 15.2733 10.499 15.2733 10.499C15.2733 10.499 15.2151 12.2455 14.9241 12.8083C14.8271 13.0024 13.915 13.5652 13.915 13.5652L13.5657 13.5069L13.7209 13.4487L13.0806 12.8083L13.3328 11.5081L13.9732 10.5573L12.9642 10.6154L12.2074 10.8095L12.4014 11.1006L11.9551 12.6919L11.5088 11.1394L11.7028 10.8483L10.9461 10.5961L9.93698 10.5378L10.5968 11.4887L10.849 12.7889L10.2087 13.4293L10.3639 13.4875L9.9564 13.5845C9.9564 13.5845 9.06378 13.0412 8.94736 12.8277C8.65628 12.3232 8.59806 10.5184 8.59806 10.5184C8.59806 10.5184 7.39495 11.9739 7.23971 12.5754C6.89043 13.8174 7.39495 16.476 7.43376 17.718C7.49198 18.2226 7.37554 19.6586 7.37554 19.6586L7.97711 19.2123L8.13236 19.6586L8.53983 18.863L8.63686 19.057L8.83091 18.6495V18.7077L9.23843 17.6016L9.33545 17.7956L9.58773 17.2911L9.68475 17.5822L9.27723 18.3778H9.33545L8.83091 19.0182L9.5295 18.8242V19.4258L9.82058 19.2705L9.9176 19.5616L10.2087 19.1152L10.4027 19.4063L10.655 18.6107L11.0625 19.3675L10.8102 19.8721L10.7132 20.3184L10.8102 20.3766L10.4609 20.92L10.3639 21.3663L10.5191 21.4634L10.1699 22.2202L10.0728 22.6665L13.915 22.5889Z" fill="white"/>
<path d="M9.00366 20.2989L9.10069 20.1048L9.54696 19.9108L9.83803 19.8138H10.0321L10.0903 19.7555L9.79923 19.6003L9.74101 19.542L9.48878 19.6391L9.29473 19.7943L9.70221 19.2898L10.0515 18.4941L9.50816 18.8435L9.00366 19.7361L8.80961 19.8331H8.30507L8.05279 19.775L7.76172 19.9302L7.81994 19.9884H8.01399L8.20804 20.0854L8.65436 20.0272L8.14982 20.1824L8.05279 20.3765V20.6676H8.11102L8.16924 20.5123H8.42151L8.86779 20.1048L8.51854 20.6482L8.46031 20.9005L8.61556 21.2498L8.71259 21.1915V20.9393L8.90664 20.7452L9.00366 20.2989Z" fill="#FFCE31"/>
<path d="M14.962 20.2989L14.9037 20.1048L14.4574 19.9108L14.1663 19.8138H13.9723L13.9141 19.7555L14.2051 19.6003L14.2634 19.542L14.5156 19.6391L14.7097 19.7943L14.3022 19.2898L13.9529 18.4941L14.4962 18.8435L15.0008 19.7361L15.1948 19.8331H15.6994L15.9516 19.775L16.2427 19.9302L16.1845 19.9884H15.9904L15.7964 20.0854L15.3501 20.0272L15.8546 20.1824L15.9516 20.3765V20.6676H15.8934L15.8352 20.5123H15.5829L15.1366 20.1048L15.4859 20.6482L15.5441 20.9005L15.3889 21.2498L15.2918 21.1915V20.9393L15.0978 20.7452L14.962 20.2989Z" fill="#FFCE31"/>
<path d="M9.70065 10.5376C9.19612 10.5958 9.25434 10.9451 9.70065 11.3915C9.79767 11.4885 9.79768 11.4885 9.8559 11.3915C9.91411 11.2362 10.0499 11.1392 10.147 11.2363C10.2052 11.3333 10.2052 11.3915 10.3992 11.3333C10.4575 11.3915 10.5545 11.4303 10.5933 11.4885C10.5351 11.4885 10.341 11.5467 10.0499 11.5855C9.79768 11.6437 9.64242 11.5273 9.44838 11.3333C9.50659 11.5856 10.0888 11.7408 10.0499 11.7408C10.1082 11.8378 10.1082 11.896 10.147 11.896C10.341 11.9543 10.5545 11.799 10.7485 11.8378C11.1949 11.9348 10.4575 10.6929 10.4963 10.6347C10.5545 10.5376 9.85589 10.3436 9.70065 10.5376Z" fill="#FFCE31"/>
<path d="M13.8172 11.9545C13.8754 11.9545 13.8754 11.9544 13.9142 11.7992C13.856 11.7992 14.4576 11.6439 14.5158 11.3917C14.3605 11.5857 14.1665 11.6827 13.9142 11.6439C13.6231 11.5857 13.4097 11.4887 13.3709 11.5469C13.4291 11.4887 13.4679 11.4499 13.565 11.3917C13.759 11.4499 13.759 11.3917 13.8172 11.2946C13.9142 11.1976 14.0695 11.2364 14.1083 11.4499C14.1083 11.5469 14.1665 11.5469 14.2635 11.4499C14.7098 11.0035 14.768 10.6543 14.2635 10.596C14.1665 10.402 13.4679 10.596 13.5067 10.7513C13.5067 10.8095 12.8082 12.0515 13.2545 11.9545C13.4097 11.838 13.6037 11.9545 13.8172 11.9545Z" fill="#FFCE31"/>
<path d="M9.82031 13.7397V17.3881C9.82031 18.4942 10.8294 19.3869 12.0131 19.3869C13.1968 19.3869 14.2058 18.4942 14.2058 17.3881V13.7397H9.82031Z" fill="#ED4C5C"/>
<path d="M11.4102 13.0996H12.6521V20.6097H11.4102V13.0996Z" fill="white"/>
<path d="M8.55859 15.603H15.4667V16.845H8.55859V15.603Z" fill="white"/>
<path d="M11.0045 14.6519L10.5 15.1565L10.6552 14.6519L10.5 14.2056L11.0045 14.6519Z" fill="white"/>
<path d="M11.0045 17.7955L10.5 18.3001L10.6552 17.7955L10.5 17.291L11.0045 17.7955Z" fill="white"/>
<path d="M13 14.6519L13.5045 15.1565L13.4075 14.6519L13.5045 14.2056L13 14.6519Z" fill="white"/>
<path d="M13 17.7955L13.5045 18.3001L13.4075 17.7955L13.5045 17.291L13 17.7955Z" fill="white"/>
<path d="M12.5169 5.29834H11.5078V6.30744H12.5169V5.29834Z" fill="#428BC1"/>
<path d="M11.5658 4.63868L11.6628 4.69686L11.7598 4.63868H11.9151V5.24024H11.5076V5.4343H12.5166V5.24024H12.1091V4.63868H12.2643L12.3613 4.69686L12.4584 4.63868L12.5554 4.54165L12.4584 4.44462L12.3613 4.34759L12.2643 4.44462H12.1091V4.25056L12.2061 4.15353L12.1091 4.0565L12.0121 3.95947L11.9151 4.0565L11.818 4.15353L11.9151 4.25056V4.44462H11.7598L11.6628 4.34759L11.5658 4.44462L11.4688 4.54165L11.5658 4.63868Z" fill="#FFCE31"/>
<path d="M15.2515 6.63746C14.6111 6.28815 14.2036 6.19112 14.0484 6.4434C14.0484 6.4434 14.0484 6.50163 13.9901 6.50163C13.1945 6.0941 12.593 6.05529 11.9914 6.30757C11.3899 6.05529 10.8465 6.11351 9.99271 6.50163C9.99271 6.44341 9.9927 6.4434 9.93449 6.4434C9.77925 6.19112 9.39116 6.24934 8.73139 6.63746C8.07163 6.98677 7.48949 7.49135 7.62532 7.68541C7.68354 8.03472 7.87761 8.3452 8.22689 8.69451C8.6344 8.88857 9.42997 8.94679 10.2838 8.88857C11.3899 8.83035 12.5348 8.83035 13.6408 8.88857C14.4947 8.94679 15.2903 8.88857 15.6978 8.69451C16.0471 8.3452 16.2411 8.05412 16.2993 7.68541C16.5128 7.54957 15.853 7.04499 15.2515 6.63746Z" fill="#FFCE31"/>
<path d="M12.7099 8.0539C13.1174 7.70459 13.3697 7.35531 13.5638 7.006C13.2145 6.90897 12.8652 6.85075 12.5547 6.90897C12.6129 7.29709 12.6517 7.68519 12.7099 8.0539Z" fill="#ED4C5C"/>
<path d="M11.315 8.05402C11.3732 7.6465 11.412 7.25839 11.509 6.85086C11.218 6.79265 10.8687 6.85086 10.5 6.94789C10.6164 7.33601 10.9075 7.68531 11.315 8.05402Z" fill="#ED4C5C"/>
<path d="M15.3123 7.33601C15.254 7.27779 15.157 7.18076 15.0212 7.14195C14.8659 7.08373 14.7301 7.04492 14.6137 7.04492C14.5554 7.45245 14.4196 7.84056 14.0703 8.24808C14.2256 8.24808 14.3614 8.18986 14.4778 8.15105C14.8853 7.95699 15.1182 7.7047 15.3316 7.51065C15.3704 7.45243 15.3705 7.39423 15.3123 7.33601Z" fill="#ED4C5C"/>
<path d="M9.40977 6.98682C9.31275 6.98682 9.15754 7.04503 9.0023 7.08385C8.75003 7.18088 8.59479 7.37494 8.71122 7.43316C8.90527 7.62722 9.15752 7.8407 9.56502 8.07357C9.66205 8.13179 9.8173 8.13179 9.97254 8.1706C9.60385 7.80188 9.46799 7.45256 9.40977 6.98682Z" fill="#ED4C5C"/>
<path d="M8.30469 8.69434H15.698V9.70344H8.30469V8.69434Z" fill="#FFCE31"/>
<path d="M8.30342 8.88818L8.10938 9.2375L8.36165 9.48979L8.71095 9.14047L8.30342 8.88818Z" fill="#428BC1"/>
<path d="M15.7161 8.88818L15.3086 9.14047L15.6578 9.48979L15.9101 9.2375L15.7161 8.88818Z" fill="#428BC1"/>
<path d="M12.013 8.63623L11.6055 8.98555L12.013 9.27664L12.4205 8.98555L12.013 8.63623Z" fill="#428BC1"/>
<path d="M10.1692 9.354L10.5185 9.00473L10.111 8.75244L9.76172 9.04353L10.1692 9.354Z" fill="#ED4C5C"/>
<path d="M13.8532 9.35415L14.2607 9.06306L13.9114 8.77197L13.5039 9.02426L13.8532 9.35415Z" fill="#ED4C5C"/>
</svg>
