<svg width="30" height="31" viewBox="0 0 30 31" fill="none" xmlns="http://www.w3.org/2000/svg">
<path d="M30 15.4128C30 12.7154 29.3014 10.1538 28.0013 7.96094L6.34539 26.6101L5.99609 27.4057C6.05431 27.4639 6.15133 27.5027 6.19014 27.5609L29.4954 19.2552C29.8641 18.0521 30 16.7519 30 15.4128Z" fill="#ED4C5C"/>
<path d="M28.0013 7.96128C25.8085 4.1189 21.9469 1.36328 17.4062 0.606445L5.99609 27.4061L28.0013 7.96128Z" fill="#FCD856"/>
<path d="M15 0.412109C10.9056 0.412109 7.19921 2.0616 4.50193 4.72022C1.74643 7.41764 0 11.2212 0 15.4129C0 20.1674 2.19274 24.4172 5.70502 27.1729C5.76324 27.2311 5.80205 27.2699 5.89907 27.3281C5.95729 27.3864 5.99611 27.3864 6.05432 27.4252L6.40362 26.6296L17.445 0.625594C16.6106 0.45094 15.7956 0.412109 15 0.412109Z" fill="#2872A0"/>
<path d="M6.21094 27.5612C6.26915 27.5612 6.26915 27.6195 6.30796 27.6195L26.4503 25.1743C27.9056 23.4666 28.9535 21.4678 29.555 19.2749L6.21094 27.5612Z" fill="white"/>
<path d="M15.0017 30.4138C19.5425 30.4138 23.6563 28.3568 26.4118 25.1548L6.26953 27.6C8.75336 29.3659 11.7611 30.4138 15.0017 30.4138Z" fill="#699635"/>
</svg>
