<svg width="30" height="31" viewBox="0 0 30 31" fill="none" xmlns="http://www.w3.org/2000/svg">
<path d="M15.0017 0.364258C8.44283 0.364258 2.89299 4.55595 0.855469 10.3583H29.1479C27.0909 4.55595 21.5412 0.364258 15.0017 0.364258Z" fill="#83BF4F"/>
<path d="M15.0017 30.3661C21.5606 30.3661 27.1104 26.2133 29.1479 20.3721H0.855469C2.89299 26.2133 8.44283 30.3661 15.0017 30.3661Z" fill="#428BC1"/>
<path d="M0.853798 10.3584C0.31046 11.9109 0 13.5992 0 15.3651C0 17.1311 0.291055 18.8194 0.853798 20.3719H29.1462C29.6895 18.8194 30 17.1311 30 15.3651C30 13.5992 29.7089 11.9109 29.1462 10.3584H0.853798Z" fill="#F9F9F9"/>
</svg>
