<svg width="30" height="31" viewBox="0 0 30 31" fill="none" xmlns="http://www.w3.org/2000/svg">
<path d="M15 30.4441C23.3053 30.4441 30 23.7491 30 15.4434H4.1957e-05C-0.0193629 23.7491 6.69469 30.4441 15 30.4441Z" fill="#F9F9F9"/>
<path d="M14.9999 0.442383C6.69464 0.442383 0 7.13743 0 15.4432H30C30 7.13743 23.2858 0.442383 14.9999 0.442383Z" fill="#ED4C5C"/>
<path d="M9.58595 8.18521L8.98438 7.68069H9.74115L9.99347 6.92383L10.2457 7.68069H11.0025L10.401 8.18521L10.595 8.94207L9.99347 8.49573L9.3919 8.94207L9.58595 8.18521Z" fill="#F9F9F9"/>
<path d="M13.582 8.18521L12.9805 7.68069H13.7372L13.9896 6.92383L14.2418 7.68069H14.9986L14.397 8.18521L14.591 8.94207L13.9896 8.49573L13.388 8.94207L13.582 8.18521Z" fill="#F9F9F9"/>
<path d="M10.0899 10.6891L9.48828 10.1845H10.2451L10.4974 9.42773L10.7496 10.1845H11.5064L10.9048 10.6891L11.0988 11.4459L10.4974 10.9996L9.8958 11.4459L10.0899 10.6891Z" fill="#F9F9F9"/>
<path d="M13.0977 10.6891L12.4961 10.1845H13.2529L13.5052 9.42773L13.7574 10.1845H14.5142L13.9126 10.6891L14.1067 11.4459L13.5052 10.9996L12.9036 11.4459L13.0977 10.6891Z" fill="#F9F9F9"/>
<path d="M11.5859 6.69107L10.9844 6.18655H11.7411L11.9934 5.42969L12.2457 6.18655H13.0025L12.4009 6.69107L12.5949 7.44793L11.9934 7.00159L11.3918 7.44793L11.5859 6.69107Z" fill="#F9F9F9"/>
<path d="M11.1979 13.4447C8.79174 13.4447 6.89012 11.3877 6.89012 8.90374C6.89012 6.40038 8.83055 4.36273 11.1979 4.36273C11.392 4.36273 11.5473 4.36274 11.7025 4.42095C11.1009 4.12987 10.4606 3.97461 9.76201 3.97461C7.16175 3.97461 5.00781 6.2257 5.00781 8.98134C5.00781 11.737 7.16175 13.9881 9.76201 13.9881C10.5576 13.9881 11.3532 13.794 12.013 13.3865C11.7413 13.3865 11.489 13.4447 11.1979 13.4447Z" fill="#F9F9F9"/>
</svg>
