<svg width="30" height="31" viewBox="0 0 30 31" fill="none" xmlns="http://www.w3.org/2000/svg">
<path d="M4.40625 4.89928V15.4949H30.0013C30.0013 7.1892 23.3066 0.494141 15.0013 0.494141C10.8487 0.494141 7.10353 2.18245 4.40625 4.89928Z" fill="#ED4C5C"/>
<path d="M4.40625 15.4951V26.0907C7.10353 28.7882 10.8487 30.4959 15.0013 30.4959C23.3066 30.4959 30.0013 23.8009 30.0013 15.4951H4.40625Z" fill="#428BC1"/>
<path d="M4.40495 4.89941C1.70767 7.59684 0 11.3422 0 15.4951C0 19.6479 1.70767 23.3933 4.40495 26.0907L15 15.4951L4.40495 4.89941Z" fill="#F9F9F9"/>
<path d="M8.24764 12.2343V12.0402C8.24764 12.0402 8.15062 11.885 8.24764 11.6909C8.24764 11.6909 7.99538 11.5357 8.05359 11.3416C8.05359 11.3416 7.85955 11.2834 7.85955 11.0505C7.85955 11.0505 7.60732 11.0505 7.60732 10.8565C7.60732 10.8565 7.35509 10.9147 7.25807 10.7012C7.25807 10.7012 7.00581 10.7595 6.967 10.6042C6.967 10.6042 6.71468 10.7012 6.61765 10.5072C6.61765 10.5072 6.36542 10.6042 6.2684 10.4102C6.17138 10.6042 5.91906 10.5072 5.91906 10.5072C5.76382 10.7012 5.5698 10.6042 5.5698 10.6042C5.51159 10.7595 5.27873 10.7012 5.27873 10.7012C5.18171 10.8953 4.92948 10.8565 4.92948 10.8565C4.92948 11.0505 4.67716 11.0505 4.67716 11.0505C4.67716 11.3028 4.48311 11.3416 4.48311 11.3416C4.54133 11.5357 4.28906 11.6909 4.28906 11.6909C4.38609 11.8462 4.28906 12.0402 4.28906 12.0402V12.1955L8.24764 12.2343Z" fill="#FFFF00"/>
<path d="M8.24764 12.2343V12.0402C8.24764 12.0402 8.15062 11.885 8.24764 11.6909C8.24764 11.6909 7.99538 11.5357 8.05359 11.3416C8.05359 11.3416 7.85955 11.2834 7.85955 11.0505C7.85955 11.0505 7.60732 11.0505 7.60732 10.8565C7.60732 10.8565 7.35509 10.9147 7.25807 10.7012C7.25807 10.7012 7.00581 10.7595 6.967 10.6042C6.967 10.6042 6.71468 10.7012 6.61765 10.5072C6.61765 10.5072 6.36542 10.6042 6.2684 10.4102C6.17138 10.6042 5.91906 10.5072 5.91906 10.5072C5.76382 10.7012 5.5698 10.6042 5.5698 10.6042C5.51159 10.7595 5.27873 10.7012 5.27873 10.7012C5.18171 10.8953 4.92948 10.8565 4.92948 10.8565C4.92948 11.0505 4.67716 11.0505 4.67716 11.0505C4.67716 11.3028 4.48311 11.3416 4.48311 11.3416C4.54133 11.5357 4.28906 11.6909 4.28906 11.6909C4.38609 11.8462 4.28906 12.0402 4.28906 12.0402V12.1955L8.24764 12.2343Z" fill="#FFCE31"/>
<path d="M8.15041 12.041C7.51005 11.9828 6.7921 11.8469 6.24877 12.138C5.84126 11.944 5.35614 11.9439 4.89042 11.9828C4.63816 12.041 4.34707 12.041 4.0948 12.0798H4.03663C3.59031 12.138 3.18283 11.9828 2.79473 11.7887C2.89176 12.4873 3.047 13.2442 3.08581 13.9816C3.24104 15.0877 2.54241 16.0386 2.83348 17.1253C2.98872 17.6687 3.59031 17.9792 4.13365 18.018C4.63818 18.0762 5.18146 18.1151 5.62777 18.2121C5.7248 18.2121 5.82188 18.2703 5.88009 18.3091C6.03533 18.3673 6.13236 18.4644 6.17117 18.5032C6.46224 18.2121 6.86969 18.0956 7.27719 18.0568C8.03398 17.9598 8.92662 17.9986 9.43115 17.3582V17.3C9.68342 16.8925 9.6252 16.3491 9.52818 15.9416C9.52818 15.7863 9.47 15.6505 9.47 15.5341C9.02369 14.3309 9.41175 12.9919 9.6252 11.7305C9.37294 11.8857 9.12065 11.9245 8.82958 11.9828C8.63553 12.041 8.38331 11.9828 8.18926 11.9828H8.15041" fill="#ED4C5C"/>
<path d="M9.10248 15.4949C9.10248 15.592 9.16066 15.6502 9.16066 15.689C9.25768 16.2324 9.31593 16.931 8.81141 17.2415C8.20985 17.649 7.4142 17.4355 6.71562 17.649C6.56038 17.7072 6.36637 17.8042 6.26934 17.9013C6.21113 17.843 6.1141 17.8042 6.0753 17.746C5.53196 17.4549 4.77517 17.552 4.1348 17.3967C3.84373 17.2997 3.47506 17.0474 3.37803 16.6981C3.18398 15.8442 3.66907 15.1068 3.63026 14.1948C3.57204 13.535 3.47502 12.8946 3.33919 12.293C3.84371 12.5452 4.44526 12.5453 4.9886 12.4482C5.3961 12.39 5.88127 12.39 6.28877 12.5453C6.48282 12.4482 6.735 12.39 6.98727 12.39C7.43358 12.4482 7.87993 12.487 8.38446 12.487C8.67553 12.487 8.98599 12.39 9.23826 12.293C9.0054 13.3991 8.71438 14.447 9.10248 15.4949Z" fill="#428BC1"/>
<path d="M8.59837 16.9501H8.24902V15.9022H8.30729V15.7081H8.11325V14.699H8.21027L6.7549 13.7481V13.2436H6.9101L6.15333 12.7002L5.49358 13.3018H5.64879V13.8064L4.19342 14.7572H4.29044V15.7081H4.09639V15.9022H4.19342V16.9501H3.90234V17.2412H8.65654L8.59837 16.9501Z" fill="white"/>
<path d="M8.20641 12.7002C8.36165 12.7002 8.36161 13.2436 8.36161 13.5541C8.45863 13.6123 8.76913 13.7482 8.86616 13.9034H7.50781C7.60484 13.7482 7.91533 13.6123 8.01236 13.5541C7.99295 13.2436 8.05117 12.7002 8.20641 12.7002Z" fill="white"/>
<path d="M11.1593 15.7859H10.907C10.907 15.5336 10.81 15.2813 10.713 14.9902L10.0144 15.1843L10.2085 16.2904L10.4025 16.3487C10.3055 17.2025 9.85919 18.5415 7.80227 18.658V18.755C7.39476 18.9103 6.7544 19.0073 6.15285 19.0073C5.60951 19.0073 4.85272 18.9103 4.50343 18.755V18.658C2.44651 18.561 2.00022 17.2025 1.90319 16.3487L2.09724 16.2904L2.29129 15.1843L1.68972 14.9902C1.5927 15.2813 1.53448 15.5918 1.49567 15.7859H1.24345C1.14642 16.6786 1.30164 18.9878 3.64964 19.3954V19.6477C4.3094 19.997 5.84241 20.094 6.1917 20.094C6.54098 20.094 8.03514 19.997 8.69491 19.6477V19.3954C11.1011 18.9878 11.3145 16.7368 11.1593 15.7859Z" fill="#FFCE31"/>
<path d="M3.80476 11.439C3.86297 11.2837 4.34815 10.9927 5.90054 11.1479C5.90054 11.1479 6.15277 11.3032 6.34682 11.3032C6.44384 11.3032 6.28864 11.3032 6.19162 11.2061C6.09459 11.1091 6.03634 10.915 6.34682 10.915C6.59908 10.915 7.64698 10.9733 7.64698 11.0703C7.64698 11.1673 7.10357 11.2256 6.89012 11.2256C6.67666 11.2256 6.69607 11.3226 6.89012 11.3226C7.53048 11.3226 8.24852 11.0703 8.9859 11.6137C9.08293 11.6719 8.7918 11.6719 8.53953 11.5554C8.53953 11.5554 7.87978 11.6137 7.58871 11.5554C7.58871 11.5554 7.39464 11.7495 7.08416 11.7107C7.14238 11.8077 6.9872 12.157 6.07517 11.9048C5.91993 11.963 5.37653 12.06 5.43475 11.9048C5.27951 11.9048 5.02728 11.963 4.98847 11.8465C4.93026 11.7495 5.4348 11.6525 5.49302 11.5554C5.49302 11.5554 4.48393 11.5554 4.28988 11.4972C4.34809 11.4002 3.74654 11.536 3.80476 11.439Z" fill="#BC715F"/>
<path d="M4.09313 12.8361L4.19015 12.739L5.19924 12.8361L5.0052 13.0883L5.10222 13.3406L5.04395 13.4959L4.79172 13.3988L4.8499 13.4959H4.75287L4.6947 13.5929L4.5395 13.4959L4.59767 13.5929L4.44247 13.9422L4.34545 14.0004V13.7481L4.19015 14.0004L3.9961 13.7481L4.09313 13.4959L3.93793 13.3406L3.64685 13.3988L3.74388 13.0495L3.39453 12.7002L4.09313 12.8361Z" fill="#699635"/>
</svg>
