<svg width="30" height="31" viewBox="0 0 30 31" fill="none" xmlns="http://www.w3.org/2000/svg">
<path d="M15.0017 0.987061C8.44279 0.987061 2.89299 5.17875 0.855469 10.9811H29.1478C27.1103 5.17875 21.5605 0.987061 15.0017 0.987061Z" fill="#F9F9F9"/>
<path d="M15.0017 30.9886C21.5605 30.9886 27.1103 26.8357 29.1478 20.9945H0.855469C2.91239 26.8357 8.4622 30.9886 15.0017 30.9886Z" fill="#ED4C5C"/>
<path d="M0.853815 10.9811C0.310478 12.5336 0 14.2218 0 15.9878C0 17.7343 0.291073 19.442 0.853815 20.9945H29.1462C29.6895 19.442 30 17.7537 30 15.9878C30 14.2412 29.7089 12.5336 29.1462 10.9811H0.853815Z" fill="#428BC1"/>
<path d="M15.9508 9.48682H5.99609V16.3954C5.99609 20.9946 10.7891 22.3918 11.0026 22.4888C11.1966 22.3918 16.009 20.9946 16.009 16.3954V9.48682H15.9508Z" fill="#F9F9F9"/>
<path d="M7.00391 10.4766V16.4342C7.00391 19.2286 9.15785 20.7423 11.0013 21.4797C12.8448 20.7229 14.9987 19.2286 14.9987 16.4342V10.4766H7.00391Z" fill="#ED4C5C"/>
<path d="M10.4961 11.4856H11.5052V18.4912H10.4961V11.4856Z" fill="#F9F9F9"/>
<path d="M8.5 14.4742H13.5065V15.4833H8.5V14.4742Z" fill="#F9F9F9"/>
<path d="M9.50781 12.4753H12.5156V13.4844H9.50781V12.4753Z" fill="#F9F9F9"/>
<path d="M11.0043 17.4822C10.364 17.4822 9.76244 17.7732 9.41315 18.2778C9.16088 18.0837 8.86981 17.9867 8.52052 17.9867C8.11302 17.9867 7.72492 18.142 7.47266 18.4331C8.17123 19.9855 9.66541 20.9364 11.0238 21.4798C12.3821 20.9364 13.8763 19.9855 14.5749 18.4331C14.3226 18.142 13.9345 17.9867 13.527 17.9867C13.1777 17.9867 12.8866 18.0837 12.6344 18.2778C12.2657 17.7926 11.6641 17.4822 11.0043 17.4822Z" fill="#428BC1"/>
</svg>
