<svg width="30" height="31" viewBox="0 0 30 31" fill="none" xmlns="http://www.w3.org/2000/svg">
<path d="M15.0016 30.8933C21.5605 30.8933 27.1103 26.7404 29.1478 20.8992H0.855469C2.89299 26.7404 8.44279 30.8933 15.0016 30.8933Z" fill="#ED4C5C"/>
<path d="M15.0016 0.891724C8.44279 0.891724 2.89299 5.08341 0.855469 10.8858H29.1478C27.0909 5.08341 21.5411 0.891724 15.0016 0.891724Z" fill="#F9F9F9"/>
<path d="M29.1462 20.8799C29.6895 19.3274 30 17.6391 30 15.8731C30 14.1266 29.7089 12.4189 29.1462 10.8664H0.853821C0.310483 12.4189 0 14.1072 0 15.8731C0 17.6197 0.291079 19.3274 0.853821 20.8799H29.1462Z" fill="#428BC1"/>
<path d="M14.1056 12.0308L14.5131 6.42249C11.3695 5.02527 7.66313 5.02527 4.51953 6.42249L4.92704 12.0308C5.12109 14.5342 6.92574 16.6882 9.526 17.3869C12.0874 16.63 13.8921 14.5342 14.1056 12.0308Z" fill="#428BC1"/>
<path d="M5.74219 12.7875C6.1885 14.5923 7.58566 16.0865 9.48735 16.6881C11.389 16.0865 12.7862 14.5923 13.2325 12.7875L11.3308 10.4394L10.574 11.3903L9.46793 9.29443L8.36185 11.3903L7.60507 10.4394L5.74219 12.7875Z" fill="white"/>
<path d="M5.89844 13.3309C6.24773 13.8742 7.00452 14.0877 7.60607 13.7772C8.01357 13.5832 8.45988 13.5832 8.84798 13.7772C9.25548 13.9713 9.7018 13.9713 10.0899 13.7772C10.478 13.5832 10.9437 13.5832 11.3318 13.7772C11.9334 14.0683 12.6902 13.9325 13.0394 13.3309V13.6802C12.6902 14.2236 11.9334 14.437 11.3318 14.1265C10.9825 13.8743 10.478 13.8743 10.0899 14.1265C9.68239 14.3206 9.23607 14.3206 8.84798 14.1265C8.49869 13.8743 7.99417 13.8743 7.60607 14.1265C7.00452 14.4176 6.24773 14.2818 5.89844 13.6802V13.3309Z" fill="#428BC1"/>
<path d="M5.89844 14.0295C6.24773 14.5729 7.00452 14.7864 7.60607 14.4759C8.01357 14.2818 8.45988 14.2818 8.84798 14.4759C9.25548 14.6699 9.7018 14.6699 10.0899 14.4759C10.4974 14.2818 10.9437 14.2818 11.3318 14.4759C11.9334 14.767 12.6902 14.6311 13.0394 14.0295V14.3789C12.6902 14.9222 11.9334 15.1357 11.3318 14.8252C10.9243 14.6311 10.478 14.6311 10.0899 14.8252C9.68239 15.0192 9.23607 15.0192 8.84798 14.8252C8.44047 14.6311 7.99417 14.6311 7.60607 14.8252C7.00452 15.1162 6.24773 14.9804 5.89844 14.3789V14.0295Z" fill="#428BC1"/>
<path d="M4.84929 6.2865L5.25678 11.9919C5.41202 14.34 7.10026 16.3388 9.50647 17.0374C11.9127 16.3388 13.5621 14.34 13.7561 11.9919L14.1636 6.2865C14.2607 6.34472 14.4159 6.38354 14.5129 6.44176L14.1054 12.0501C13.9114 14.5535 12.1067 16.7075 9.50647 17.4061C6.90621 16.6493 5.10155 14.5535 4.9075 12.0501L4.5 6.44176C4.59702 6.38354 4.75226 6.34472 4.84929 6.2865Z" fill="#ED4C5C"/>
<path d="M7.4889 5.84021L7.58592 6.18948L7.99343 6.09245L7.70236 6.38354L7.99343 6.67463L7.58592 6.5776L7.4889 6.92692L7.39187 6.5776L6.98438 6.67463L7.27545 6.38354L6.98438 6.09245L7.39187 6.18948L7.4889 5.84021Z" fill="#FFE62E"/>
<path d="M11.5084 5.84021L11.6055 6.18948L12.013 6.09245L11.7219 6.38354L12.013 6.67463L11.6055 6.5776L11.5084 6.92692L11.4114 6.5776L11.0039 6.67463L11.295 6.38354L11.0039 6.09245L11.4114 6.18948L11.5084 5.84021Z" fill="#FFE62E"/>
<path d="M9.48891 7.29559L9.58593 7.64486L9.99343 7.58668L9.70236 7.83892L9.99343 8.13001L9.58593 8.03298L9.48891 8.3823L9.39189 8.03298L8.98438 8.13001L9.27545 7.83892L8.98438 7.58668L9.39189 7.64486L9.48891 7.29559Z" fill="#FFE62E"/>
</svg>
