<svg width="30" height="31" viewBox="0 0 30 31" fill="none" xmlns="http://www.w3.org/2000/svg">
<path d="M29.1841 11.1572L25.0912 10.0515L4.85957 21.7489L3.75391 25.842C5.65486 27.9952 8.15714 29.5859 11.1056 30.3812C19.0973 32.5345 27.3413 27.7818 29.4556 19.7896C30.2897 16.8604 30.1345 13.8536 29.1841 11.1572Z" fill="#699635"/>
<path d="M18.9048 1.41924C10.913 -0.733998 2.66906 4.01867 0.515933 12.0109C-0.279366 14.9595 -0.124188 17.9662 0.768098 20.6626L2.61086 21.167L4.86098 21.7684L25.112 10.071L25.7133 7.82077L26.2177 5.97791C24.3555 3.80527 21.8532 2.21458 18.9048 1.41924Z" fill="#2A5F9E"/>
<path d="M0.75 20.6626C1.09916 21.6131 1.5065 22.5055 1.99143 23.4172C2.49577 24.2708 3.09709 25.1243 3.73721 25.8614L29.1868 11.1573C28.5466 9.25624 27.538 7.45221 26.1802 5.95852L0.75 20.6626Z" fill="#FFE62E"/>
<path d="M8.50843 10.1486L9.5171 10.8469L9.10975 9.74122L10.1184 9.04286H8.91577L8.50843 7.93715L8.10107 9.04286H6.89844L7.9071 9.74122L7.49976 10.8469L8.50843 10.1486Z" fill="white"/>
<path d="M5.81312 7.3164L6.82179 7.95652L6.41445 6.85081L7.42311 6.19128H6.22047L5.81312 5.08557L5.40577 6.19128H4.20312L5.2118 6.85081L4.80444 7.95652L5.81312 7.3164Z" fill="white"/>
<path d="M11.2035 7.3164L12.2122 7.95652L11.8048 6.85081L12.8135 6.19128H11.6108L11.2035 5.08557L10.7961 6.19128H9.55469L10.5634 6.85081L10.2142 7.95652L11.2035 7.3164Z" fill="white"/>
<path d="M5.81312 13.0584L6.82179 13.6985L6.41445 12.5928L7.42311 11.9332H6.22047L5.81312 10.8275L5.40577 11.9332H4.20312L5.2118 12.5928L4.80444 13.6985L5.81312 13.0584Z" fill="white"/>
<path d="M11.2035 13.0584L12.2122 13.6985L11.8048 12.5928L12.8135 11.9332H11.6108L11.2035 10.8275L10.7961 11.9332H9.55469L10.5634 12.5928L10.2142 13.6985L11.2035 13.0584Z" fill="white"/>
</svg>
