<svg width="30" height="31" viewBox="0 0 30 31" fill="none" xmlns="http://www.w3.org/2000/svg">
<path d="M22.5 23.442C26.6421 19.2997 26.6421 12.5836 22.5 8.44123C18.3579 4.29887 11.6421 4.29888 7.50001 8.44124C3.35787 12.5836 3.35785 19.2997 7.49998 23.442C11.6421 27.5844 18.3579 27.5844 22.5 23.442Z" fill="#F5F5F5"/>
<path d="M11.9572 16.5501C12.9451 17.2225 14.331 16.9343 15.0034 15.9463C15.6757 14.9583 17.0204 14.6702 18.0495 15.3425C19.01 15.9738 19.2845 17.2225 18.763 18.1693C19.9294 16.1933 19.3942 13.6135 17.4183 12.2962C15.4013 10.9514 12.6844 11.4866 11.3397 13.5038C11.2986 13.5724 11.2711 13.641 11.23 13.6821C10.7223 14.7113 11.0379 15.9052 11.9572 16.5501Z" fill="#ED4C5C"/>
<path d="M18.6406 18.3888C18.6818 18.3202 18.7092 18.2516 18.7504 18.2104C18.7092 18.2379 18.6818 18.3065 18.6406 18.3888Z" fill="#003478"/>
<path d="M18.0362 15.3425C17.0483 14.6701 15.6624 14.9583 14.99 15.9463C14.3177 16.9343 12.973 17.2224 11.9439 16.5501C10.9834 15.9188 10.709 14.6701 11.2304 13.7233C10.0229 15.6993 10.5992 18.2791 12.5751 19.5964C14.5921 20.9412 17.309 20.406 18.6537 18.3888C18.6949 18.3202 18.7223 18.2516 18.7635 18.2104C19.2849 17.1813 18.9556 15.9737 18.0362 15.3425Z" fill="#428BC1"/>
<path d="M6.43928 12.8725L8.8817 9.23615L8.63472 9.05775L8.38773 8.92053L5.94531 12.5569L6.19229 12.6941L6.43928 12.8725Z" fill="#3E4347"/>
<path d="M7.11418 13.3253L7.36116 13.4625L9.76242 9.82612L9.5566 9.68889L9.30962 9.5105L6.86719 13.1469L7.11418 13.3253Z" fill="#3E4347"/>
<path d="M10.1864 10.1143L7.78516 13.7506L8.03215 13.929L8.27914 14.0663L10.6804 10.4299L10.4334 10.2927L10.1864 10.1143Z" fill="#3E4347"/>
<path d="M20.8368 19.6513L21.0838 19.8297L22.209 18.1281L21.962 17.9497L21.715 17.8125L20.5898 19.514L20.8368 19.6513Z" fill="#3E4347"/>
<path d="M23.5509 19.02L22.4258 20.7216L22.6728 20.9L22.9198 21.0372L24.0449 19.3356L23.7979 19.1984L23.5509 19.02Z" fill="#3E4347"/>
<path d="M22.0018 20.4335L23.127 18.7319L22.88 18.5535L22.633 18.4163L21.5078 20.1178L21.7548 20.2551L22.0018 20.4335Z" fill="#3E4347"/>
<path d="M20.6964 19.8982L20.4494 19.761L19.3242 21.4626L19.5712 21.5998L19.8182 21.7781L20.9433 20.0766L20.6964 19.8982Z" fill="#3E4347"/>
<path d="M21.5771 20.5021L21.3712 20.3649L20.2461 22.0664L20.4519 22.2036L20.6989 22.382L21.8241 20.6805L21.5771 20.5021Z" fill="#3E4347"/>
<path d="M22.2502 20.9686L21.125 22.6702L21.372 22.8486L21.619 22.9858L22.7441 21.2842L22.4971 21.1059L22.2502 20.9686Z" fill="#3E4347"/>
<path d="M6.19229 19.1984L5.94531 19.3356L8.38773 22.972L8.63472 22.8348L8.8817 22.6564L6.43928 19.02L6.19229 19.1984Z" fill="#3E4347"/>
<path d="M8.41887 20.5021L8.17188 20.6805L9.29703 22.382L9.54402 22.2036L9.74985 22.0664L8.62469 20.3649L8.41887 20.5021Z" fill="#3E4347"/>
<path d="M8.03215 17.9634L7.78516 18.1418L10.1864 21.7781L10.4334 21.5998L10.6804 21.4626L8.27914 17.8262L8.03215 17.9634Z" fill="#3E4347"/>
<path d="M6.86719 18.7319L7.99234 20.4335L8.23934 20.2551L8.48633 20.1178L7.36116 18.4163L7.11418 18.5535L6.86719 18.7319Z" fill="#3E4347"/>
<path d="M22.4971 10.7867L22.7441 10.6083L21.619 8.90674L21.372 9.04396L21.125 9.22232L22.2502 10.9239L22.4971 10.7867Z" fill="#3E4347"/>
<path d="M20.6964 11.9805L20.9433 11.8021L19.8182 10.1006L19.5712 10.279L19.3242 10.4162L20.4494 12.1177L20.6964 11.9805Z" fill="#3E4347"/>
<path d="M22.4258 11.171L23.5509 12.8725L23.7979 12.6941L24.0449 12.5569L22.9198 10.8553L22.6728 10.9926L22.4258 11.171Z" fill="#3E4347"/>
<path d="M22.8787 13.3253L23.1257 13.1469L20.6833 9.5105L20.4363 9.68889L20.2305 9.82612L22.6317 13.4625L22.8787 13.3253Z" fill="#3E4347"/>
<path d="M21.962 13.929L22.209 13.7506L21.0838 12.0491L20.8368 12.2275L20.5898 12.3647L21.715 14.0662L21.962 13.929Z" fill="#3E4347"/>
</svg>
