<svg width="30" height="31" viewBox="0 0 30 31" fill="none" xmlns="http://www.w3.org/2000/svg">
<path d="M29.4568 19.0098C29.8061 17.7679 30.0001 16.4094 30.0001 15.0122C30.0001 13.615 29.8061 12.2566 29.4568 11.0146H14.8643L6.42313 2.70883C4.42443 4.10606 2.77502 6.00785 1.63013 8.20073L8.53827 14.9928L1.68833 21.7849C2.79441 23.9778 4.44384 25.8796 6.48136 27.2768L14.8837 18.971H29.4568V19.0098Z" fill="#699635"/>
<path d="M0.756797 10.2577C0.252269 11.752 0 13.3627 0 15.0122C0 16.6617 0.252269 18.253 0.756797 19.7666L5.5498 15.0122L0.756797 10.2577Z" fill="#3E4347"/>
<path d="M8.1499 28.3635C10.2068 29.4114 12.5548 30.013 14.9998 30.013C21.1512 30.013 26.4487 26.3065 28.7579 20.9698H15.6984L8.1499 28.3635Z" fill="#428BC1"/>
<path d="M28.7579 9.05462C26.4487 3.69858 21.1512 0.0114746 14.9998 0.0114746C12.5548 0.0114746 10.2068 0.613059 8.1499 1.66098L15.6984 9.05462H28.7579Z" fill="#ED4C5C"/>
<path d="M29.2627 10.3548C29.1074 9.90841 28.9716 9.46209 28.7581 9.05456H15.6986L8.15012 1.66092C7.80083 1.81617 7.50974 2.01019 7.14105 2.20425C6.88879 2.3595 6.63654 2.55357 6.38428 2.70882L14.8254 11.0146H29.4179C29.4179 10.8011 29.3597 10.5488 29.2627 10.3548Z" fill="white"/>
<path d="M1.64948 8.20074C1.59126 8.29777 1.55244 8.39481 1.49423 8.55006C1.24196 9.09343 0.989704 9.65616 0.795654 10.2577L5.58866 15.0122L0.795654 19.7667C0.989704 20.3683 1.20315 20.9116 1.49423 21.4744C1.55244 21.5714 1.59126 21.6685 1.64948 21.8237L8.4994 15.0316L1.64948 8.20074Z" fill="#FFCE31"/>
<path d="M14.864 19.0099L6.42285 27.3156C6.57809 27.4126 6.77214 27.5679 6.92737 27.6649C7.33488 27.9172 7.72298 28.1695 8.16929 28.3635L15.7178 20.9699H28.7773C28.9714 20.4653 29.1848 19.9608 29.3789 19.4174C29.4371 19.2622 29.4371 19.1651 29.4759 19.0099H14.864Z" fill="white"/>
</svg>
