<svg width="30" height="31" viewBox="0 0 30 31" fill="none" xmlns="http://www.w3.org/2000/svg">
<path d="M15 0.0292969V15.0301H0C0 23.3358 6.6947 30.0309 15 30.0309C23.3053 30.0309 30 23.3358 30 15.0301C30 6.72431 23.3053 0.0292969 15 0.0292969Z" fill="#2A5F9E"/>
<path d="M5.00781 5.0166H15.5059V15.5152H5.00781V5.0166Z" fill="#2A5F9E"/>
<path d="M8.46063 3.07593V6.02562H4.8125L12.0117 15.03H15.0195V11.2846L8.46063 3.07593Z" fill="white"/>
<path d="M4.50195 8.47079H1.49419C0.543351 10.4696 0 12.6624 0 15.03H5.99612V5.98682H4.50195V8.47079Z" fill="white"/>
<path d="M15.0006 12.5848L8.49995 4.53137H5.49219L13.9915 15.03H15.0006V12.5848Z" fill="#ED4C5C"/>
<path d="M8.46251 1.52354V4.53147H4.50391V6.02571H15.002V0.0292969C12.654 0.0292969 10.4612 0.572654 8.46251 1.52354Z" fill="white"/>
<path d="M15.0019 1.52356H8.44303C5.43527 2.97901 2.95146 5.48238 1.49609 8.4709V15.0301H4.50385V4.53148H15.0019V1.52356Z" fill="#ED4C5C"/>
<path d="M21.3059 19.8815C21.0148 20.1726 20.4133 20.4831 20.0058 20.1726C19.4624 20.2696 19.7535 20.4249 19.249 20.0756C18.8997 20.1726 18.8026 20.1726 18.2981 19.9785C18.0459 20.4249 17.7548 20.5219 17.3473 20.2308C17.4055 20.1338 17.5025 20.0368 17.5413 19.9397C17.5413 20.1338 16.7457 20.095 16.6875 20.095C17.1338 18.6395 18.9967 17.4364 20.0446 16.4467C20.5491 17.3199 21.9074 18.7754 21.3059 19.8815Z" fill="#6A4C2D"/>
<path d="M23.4042 20.0174H24.161L23.8117 19.8621L26.7613 19.7068L26.3538 19.5516L25.9463 19.0471L24.1416 18.8918L23.9864 18.6395L23.0355 18.5425L22.4922 18.95L22.8997 19.9591L23.4042 20.0174Z" fill="white"/>
<path d="M23.4042 14.5838C23.4624 14.5255 23.6565 14.4867 23.5982 14.2344C23.5982 13.9822 23.346 13.9434 23.1907 13.9434C23.0355 13.9434 22.9385 14.0404 22.9385 14.0404L22.4922 13.7881C22.4922 13.7881 22.6862 12.4297 22.9385 12.3327C23.1325 12.1774 23.1907 12.0804 23.1907 12.0804L23.0937 11.9251L21.6966 11.7699L20.3382 11.9251C20.3382 11.9251 20.2412 12.0804 20.2412 12.1192C20.2412 12.1774 20.2412 12.2744 20.4935 12.4103C20.7457 12.6043 20.9398 13.7687 20.9398 13.7687L20.5323 13.9239C20.5323 13.9239 20.377 13.8657 20.3382 13.8657C20.28 13.8657 20.0859 13.9627 20.0859 14.215C20.0859 14.4673 20.28 14.6226 20.28 14.6226C20.28 14.6226 21.5801 14.4673 21.7354 14.8166C22.007 14.5255 23.249 14.6808 23.4042 14.5838Z" fill="#656263"/>
<path d="M24.7622 13.1671C24.8592 12.876 25.0533 12.876 25.3637 12.876C25.9653 12.876 25.9071 13.07 26.1205 13.5746C26.3728 14.2732 26.8191 14.9718 26.8773 15.7674C26.9355 16.6213 26.9355 17.7662 26.528 18.5231C26.237 19.0664 26.8773 19.2217 27.2848 19.4158L26.9937 19.3187L27.2848 19.571L26.9355 19.4158L27.1296 19.6098L26.6251 19.3575L26.8191 19.5516L26.4116 19.3575C26.4698 19.4546 26.5668 19.5128 26.6057 19.6098C26.5086 19.5516 26.4116 19.5128 26.2564 19.4546V19.5516C25.8489 19.2605 25.2473 19.2023 25.1115 18.756C24.9174 18.2514 24.5099 17.514 24.5681 16.9512C24.704 15.8257 25.0533 14.3314 24.7622 13.1671Z" fill="#3E4347"/>
<path d="M20.9951 18.8724L20.8398 19.377L21.0339 19.1247V19.6293L21.1891 19.377V19.9786L21.3444 19.6875V20.2309L21.4996 19.9786L21.5966 20.4831L21.7519 20.1338L21.9459 20.5414L22.0041 20.2503L22.2952 20.5996V20.2503L22.6445 20.5414V20.3473L22.9938 20.5026V20.3085L23.4013 20.4055L23.149 20.1532H23.4013L22.9938 19.901H23.1878L22.8386 19.6099H23.0908L22.6833 19.3188L22.8774 19.2606L20.9951 18.8724Z" fill="#00713D"/>
<path d="M19.9492 14.7196H21.0553C21.0553 14.7196 21.7539 14.7196 21.8509 14.9719C22.0061 14.6808 22.6077 14.6808 22.6077 14.6808C22.957 14.6808 23.3645 14.6226 23.7138 14.6226V17.32C23.5197 18.3679 22.7047 19.1247 21.9091 19.4158C20.9001 19.1247 20.2597 18.2709 20.0656 17.32C20.0462 16.4273 20.0074 15.5734 19.9492 14.7196Z" fill="white"/>
<path d="M20.3555 14.7196L21.9079 18.9113L23.305 14.6031C22.8587 14.6614 21.9079 14.5449 21.8108 14.9525C21.6556 14.5838 20.6465 14.7196 20.3555 14.7196Z" fill="#006B00"/>
<path d="M20.9975 7.92747L21.8901 7.17061L22.0453 6.62729L21.8513 6.72432L21.7931 6.47203L21.7348 6.4138L21.6766 6.51083L21.5796 6.31677L21.4244 6.51083L21.6766 7.01541L21.4244 7.4229L21.3273 7.17061L21.4244 6.87953L21.2691 6.93775V6.64666L21.0751 6.84072L21.0169 6.7825L21.2109 7.3841L21.0557 7.57816L20.8034 6.93775L20.7452 7.09301L20.6482 6.99598L20.7064 7.3453H20.6094L20.7646 7.53936L20.6094 7.73342L20.9004 7.63639L20.8034 7.83045L20.9975 7.92747Z" fill="#CDAD56"/>
<path d="M20.2991 7.92749L19.5035 7.22886L19.4453 6.72433L19.5423 6.82136L19.6394 6.56908L19.7364 6.72433L19.8916 6.53027L19.9886 6.68548L19.6976 7.13183L19.8916 7.48115L19.9886 7.22886L19.8334 7.0348H20.0275V6.78251L20.1827 6.93777L20.2797 6.78251L20.0275 7.42292L20.1245 7.57818L20.3185 7.0736L20.4156 7.17063L20.5126 7.0736L20.4544 7.36469H20.5514L20.4932 7.55875L20.5514 7.71401L20.2991 7.61698L20.3573 7.81104L20.2991 7.92749Z" fill="#CDAD56"/>
<path d="M23.113 15.3212L22.9578 15.1271L23.1518 14.8749L22.8607 14.9331L22.8025 14.642L22.6473 15.0495L22.3562 14.8943L22.5503 15.1465L22.0069 15.5541L22.1622 15.6123L21.9681 15.6705L22.0263 15.7675L21.8711 15.8257L21.9681 15.884H21.5606V15.5929H21.9681L21.7741 15.1853L21.6188 15.2824L21.5218 15.1271L21.1725 15.2241L21.3666 14.9719L21.0755 15.1271L21.0173 14.7778L20.959 15.0689L20.668 15.0107L20.9202 15.2048L20.7262 15.4571L20.9785 15.36L21.0755 15.6511L21.1337 15.4571L21.2889 15.5541H21.3471L21.4054 16.5632L21.3083 16.7572L21.3666 16.699L21.5218 17.0483L21.58 16.7572L21.8323 16.6602L21.9875 16.602L22.0845 16.6602L22.1428 16.9513L21.8905 17.3006H21.5994L21.5024 17.4558L21.7935 17.3006V17.4558L21.9487 17.3006V17.3976L22.0457 17.3394L21.7935 18.038L22.0457 17.8439V18.135L22.1428 17.941L22.2398 17.8439L22.298 17.941V17.6887L22.395 17.7469L22.298 17.3976L22.4532 17.4947L22.3562 17.0483L22.7637 16.8543V16.6602H22.6085L22.7055 16.4662L22.7637 16.1751V16.3303V16.078L22.919 16.1363L22.8219 15.981L23.016 15.884H22.919L23.1712 15.6317L22.5309 16.078L22.4726 16.9319L22.2786 15.981L22.3756 16.1363L22.4726 15.7287L22.6667 15.7869L22.5697 15.6317L22.6667 15.6899L22.5114 15.5929L22.7055 15.5347L22.5114 15.3794L22.7637 15.2824V15.5735L22.8607 15.2824L23.113 15.3212ZM21.5024 16.4274L21.5606 16.078L21.9681 16.0198L21.5024 16.4274Z" fill="#FFC900"/>
<path d="M18.3945 23.4327C18.5498 23.3745 19.4036 23.6268 19.7529 23.9761C19.6947 23.3357 19.5006 22.87 19.5006 22.87C19.5006 22.87 18.9961 22.7147 18.8991 22.773C18.802 22.87 18.4916 23.2193 18.3945 23.4327Z" fill="#ED4C5C"/>
<path d="M18.1056 20.522C18.0474 20.522 18.0086 20.5802 17.9115 20.6772C17.8533 20.8325 17.8145 21.2788 17.7175 21.3759C17.6205 21.4729 17.5234 21.4729 17.5234 21.5699C17.5234 21.667 17.5234 21.861 17.8145 21.9774C18.0668 21.9774 18.5131 21.5311 18.5131 21.5311C18.5131 21.5311 18.7071 21.2788 18.8042 21.0265C18.2996 21.1818 17.9503 20.7354 18.1056 20.522Z" fill="#ED4C5C"/>
<path d="M25.7099 23.3358C25.5547 23.2776 24.662 23.5299 24.3516 23.8792C24.4098 23.2194 24.6038 22.7731 24.6038 22.7731C24.6621 22.7731 25.1084 22.6178 25.1472 22.676C25.2442 22.7731 25.5547 23.1223 25.7099 23.3358Z" fill="#ED4C5C"/>
<path d="M25.9061 20.4249C25.9643 20.4249 26.0031 20.522 26.0614 20.619C26.1196 20.7742 26.2166 21.0265 26.3136 21.1236C26.4107 21.2206 26.5077 21.3758 26.5077 21.4729C26.5077 21.5699 26.5077 21.6669 26.2166 21.764C25.9643 21.764 25.5762 21.4146 25.5762 21.4146C25.5762 21.4146 25.3822 21.1624 25.2852 20.9101C25.7509 21.1235 26.1002 20.619 25.9061 20.4249Z" fill="#ED4C5C"/>
<path d="M25.1474 21.7251C25.3415 21.531 25.4967 21.434 25.4967 21.434C25.4967 21.434 25.2444 21.1429 25.2056 20.9295C25.7102 21.1818 26.3505 20.3861 25.6131 20.3279C25.1086 20.3861 24.6623 20.7742 24.3712 21.2788C22.8188 20.522 21.0142 20.5801 19.5782 21.337C19.2871 20.8324 18.8796 20.4443 18.3751 20.4443C17.6183 20.5026 18.3169 21.2982 18.7826 21.0459C18.7244 21.24 18.4915 21.5505 18.4915 21.5505C18.4915 21.5505 18.6468 21.6087 18.8408 21.8028C18.4333 22.0938 18.084 22.4431 17.793 22.9089C17.793 22.9089 18.3363 23.2582 18.3363 23.4523C18.5886 23.1029 18.8796 22.7536 19.2871 22.5013C19.4812 22.8506 19.6364 23.3552 19.7335 24.0538C19.7335 24.0538 20.0245 23.2582 20.1798 23.2582C20.2768 23.2582 20.1798 22.7148 19.9275 22.1521C21.1306 21.5505 22.683 21.4535 23.9831 22.055C23.7309 22.5984 23.6921 23.1029 23.7309 23.2582C23.8861 23.2582 24.2354 23.9568 24.2354 23.9568C24.3324 23.3164 24.4877 22.8118 24.6817 22.4625C25.031 22.7148 25.3221 23.0059 25.6326 23.3552C25.9236 23.0059 26.1759 22.8507 26.1759 22.8507C25.9042 22.3849 25.5549 22.0356 25.1474 21.7251Z" fill="#FFCE31"/>
<path d="M23.3434 14.6226H23.5374L23.1299 15.1271L23.5762 15.6705L22.6836 16.8154L23.5374 17.8245C23.4404 18.0768 23.3434 18.2708 23.1881 18.4261L22.6836 17.8828L23.5762 16.7766L22.8776 15.981L23.3434 14.6226Z" fill="#1E5AA6"/>
<path d="M20.2989 14.7196H20.0466L20.4541 15.166L20.0078 15.7093L20.9586 16.7184L20.2019 17.7663C20.2989 18.0186 20.4541 18.2709 20.5511 18.4067L20.9975 17.8051L20.0466 16.7572L20.7452 15.8645L20.2989 14.7196Z" fill="#1E5AA6"/>
<path d="M21.3454 17.417L20.9961 17.8633L22.1992 19.2606C22.3932 19.1635 22.6067 19.0083 22.7425 18.9112L22.141 18.2127L22.3932 17.4558L22.7425 17.8633L21.5976 19.3188C21.4036 19.2218 21.1901 19.1247 20.9961 18.9695L21.5976 18.2127L21.3454 17.417Z" fill="#1E5AA6"/>
<path d="M20.9961 16.7766L21.1901 17.0289L21.0349 16.6796L20.9961 16.7766Z" fill="#1E5AA6"/>
<path d="M22.5469 16.9707L22.7409 16.7766L22.6439 16.6796L22.5469 16.9707Z" fill="#1E5AA6"/>
<path d="M24.76 13.7687C24.857 13.7687 25.4585 13.7687 25.4585 13.8657C25.2063 13.9627 25.051 14.118 24.9152 14.3703C25.0704 14.6226 25.2063 14.8166 25.3615 15.0689C25.4197 15.5735 24.7211 16.078 24.76 16.8154C24.8182 17.3588 24.8182 17.9216 25.2645 18.2709C25.8078 18.7754 25.5555 17.2229 25.6137 17.0677C25.6137 16.9707 26.1571 17.5723 26.1571 17.7663C26.0989 18.3097 25.9048 18.0186 25.9048 18.1739C25.7496 18.7172 25.7496 19.0665 25.2645 19.0665C24.5465 18.6784 23.9061 14.6808 24.76 13.7687Z" fill="#F5F5F5"/>
<path d="M22.7025 12.8177C22.7025 12.8177 23.2458 13.4194 23.6533 13.4194C23.7116 13.6134 23.4981 13.7686 23.4011 13.8268C23.207 13.7686 23.0518 13.8269 22.6055 13.3223C22.6443 13.0312 22.7413 12.876 22.7025 12.8177Z" fill="white"/>
<path d="M23.5 11.4205C23.5582 11.1682 23.694 11.013 23.8493 11.013C23.7911 10.8577 24.1015 10.0621 24.9942 9.80981C25.0524 10.2173 24.6449 10.5666 24.6449 10.5666C24.6449 10.5666 25.945 10.3726 26.1973 10.0233C26.139 10.1785 25.9062 11.0712 24.5478 11.0712C25.0524 11.5758 24.3926 11.9639 24.1015 11.828C24.5479 11.4205 23.8493 11.1682 23.5 11.4205Z" fill="white"/>
<path d="M23.4008 13.8851C23.4008 13.8851 24.0993 14.0791 24.1963 13.0894C24.0411 12.6431 23.847 11.6922 24.1381 11.4399C23.847 11.2458 23.5366 11.4399 23.5366 11.4399C23.5366 11.4981 23.2455 11.8474 23.5948 12.5461C22.741 12.352 23.0903 13.1476 23.0903 13.1476C23.1485 13.0506 23.5948 12.8954 23.6918 13.5552C23.6918 13.6328 23.3425 13.8851 23.4008 13.8851Z" fill="#0000FF"/>
<path d="M24.1591 13.0701C24.1591 13.0701 24.9159 12.6626 24.8577 11.7117C24.2174 11.7117 24.0039 12.5655 24.0039 12.5655L24.1591 13.0701Z" fill="#0000FF"/>
<path d="M20.8583 13.0314C20.8583 13.0314 20.315 13.5359 20.0045 13.3225C19.7523 13.4777 19.5 13.2254 19.5 13.2254C19.5 13.2254 19.7911 14.3704 20.9554 13.5165L20.8583 13.0314Z" fill="white"/>
<path d="M20.0069 13.3224C20.0651 13.0701 20.2592 12.9731 20.4144 13.1671C20.6085 13.2253 20.8219 12.3715 20.1233 12.5267C20.3174 11.4206 19.7158 11.0325 19.7158 11.0325C19.7158 11.0325 19.5218 12.2356 19.6188 12.4879C19.7158 12.7402 19.4636 12.0804 18.668 11.8863C18.668 12.779 19.5606 13.2447 19.5606 13.2447C19.5606 13.2447 19.7546 13.4194 20.0069 13.3224Z" fill="#0000FF"/>
<path d="M19.5596 11.4789C19.5596 11.4789 19.055 11.4788 19.3655 12.0222C19.1132 12.0804 18.6087 11.7699 18.958 11.3236C17.8131 11.2654 17.3086 10.722 17.3086 10.2175C17.6579 10.5668 18.4535 10.4115 18.764 10.6638C18.4147 10.3145 18.4729 9.86816 18.4729 9.86816C18.4729 9.86816 19.4819 10.1592 19.676 11.0713C19.5984 11.1684 19.5596 11.4789 19.5596 11.4789Z" fill="white"/>
<path d="M20.4525 11.1682C20.3943 11.2653 20.3943 11.3623 20.3555 11.4205C21.3063 11.4205 22.1989 11.4788 23.1498 11.4788C23.0915 11.1877 22.8975 10.8771 22.8005 10.6249C22.8587 10.4308 22.8587 10.0815 22.8975 9.82925C22.9557 9.57697 22.5482 9.53815 22.6452 9.28587C22.587 9.3829 22.9363 9.28587 22.9363 9.28587C22.7811 9.28587 22.7423 8.78131 22.587 8.7425C22.2377 8.64547 22.0825 8.7425 21.7914 8.7425C21.3839 8.7425 20.7824 8.74248 20.8988 8.14089C21.0928 8.19911 21.3451 8.14089 21.4033 7.94684C21.3451 7.88862 20.7048 7.79163 20.6077 7.79163C20.5107 7.79163 19.8121 7.98565 19.7539 8.04387C19.948 8.29614 20.1614 8.23794 20.3555 8.45141C20.4525 8.54844 20.5107 8.99479 20.4137 8.95598H20.5107C20.4525 9.0142 20.4137 9.05297 20.4137 9.11119H20.6077C20.5495 9.20822 20.5107 9.26645 20.4525 9.36348H20.7048C20.6465 9.46051 20.6465 9.51874 20.6077 9.61577C20.6659 9.61577 20.7048 9.55754 20.8018 9.55754C20.9958 9.98447 20.6465 10.7219 20.4525 11.1682ZM22.5482 10.6831C22.6452 10.6249 22.6452 10.6249 22.5482 10.6831ZM22.4512 9.73222C22.8587 9.73222 22.6452 10.6249 22.5094 10.6831C22.1019 10.7219 22.1601 9.73222 22.4512 9.73222ZM21.4421 10.0233C21.2869 9.22767 22.4512 9.4799 22.0825 10.0815C22.0243 10.1785 21.7914 10.7219 21.7914 10.7219C21.5003 10.7219 21.4033 10.2756 21.4421 10.0233ZM20.957 10.5278C21.151 10.2756 20.8018 9.67398 21.2481 9.51874C21.2481 9.86804 21.2481 10.3726 21.054 10.7219C20.9958 10.6249 20.957 10.5666 20.86 10.6249C20.8988 10.6249 20.957 10.5666 20.957 10.5278Z" fill="#923F00"/>
<path d="M20.357 12.2162L21.7541 13.1089L22.996 12.2551C22.996 12.2551 23.2483 12.0998 23.2483 12.0028C23.2483 11.9057 23.1513 11.9446 23.093 11.9446L21.7929 12.8372L20.4346 11.9834C20.4346 11.9834 20.3376 11.9251 20.3376 12.0416C20.2988 12.1774 20.357 12.2162 20.357 12.2162Z" fill="#B4B6B9"/>
<path d="M24.9928 18.9307L24.4883 18.9889L24.6435 19.1441H25.2839L24.9928 18.9307Z" fill="#FF7000"/>
<path d="M24.8005 13.2253L24.1602 13.5746L24.3154 13.7299H24.9558L24.8005 13.2253Z" fill="#FF7000"/>
<path d="M24.6445 19.2217L24.9356 19.4157L25.7894 19.2605L25.5372 19.1052L24.6445 19.2217Z" fill="#FF7000"/>
<path d="M24.5065 14.8748C24.4095 14.8166 24.099 14.7778 23.7109 15.0301V15.8839C23.7109 15.8839 24.2543 15.5928 24.5648 15.6317C24.5454 15.4182 24.5453 15.0689 24.5065 14.8748Z" fill="url(#paint0_linear_518_26664)"/>
<path d="M18.9968 14.0209C18.8416 14.4284 19.3461 15.03 19.5013 15.3793C19.8506 14.9718 20.0059 14.933 20.0059 15.4764C20.0059 15.6316 20.0641 15.8257 20.0059 15.9809C19.9477 16.1362 19.5984 16.0392 19.7536 16.2332C20.0447 16.7378 20.0059 17.0289 19.8506 17.5334C19.7924 17.7275 19.5984 18.7754 19.3073 18.8336C19.3073 18.8336 19.3655 18.0768 19.3073 17.9798C19.2491 17.8245 19.0162 17.4752 19.1132 17.3394C19.0162 17.4946 18.6087 18.0962 18.3565 17.8827C18.4535 18.135 18.3565 18.232 18.2982 18.4843C18.24 18.6395 18.24 18.8336 18.24 18.9889C18.1818 19.1829 17.8907 19.3964 17.9489 19.6874C16.9011 19.3381 16.2025 18.5425 16.5518 17.3782C16.6488 17.1259 16.7459 16.8736 16.9981 16.7378C17.2504 16.5437 17.2892 16.2332 17.4056 15.8839C17.4638 15.7869 17.5608 15.6316 17.5608 15.4764C17.5026 15.1853 17.7161 15.0689 17.7161 14.8748C17.7743 14.5255 17.8131 14.1179 17.8131 13.7686C17.8131 13.2253 18.0072 13.2641 18.4535 13.0118C18.6087 12.9536 19.2103 13.07 19.3461 13.1671C19.4431 13.3223 19.0938 13.9239 18.9968 14.0209Z" fill="#8A9396"/>
<path d="M20.2969 11.3817H23.2464V11.9833H20.2969V11.3817Z" fill="white"/>
<defs>
<linearGradient id="paint0_linear_518_26664" x1="24.5235" y1="16.449" x2="24.1021" y2="15.7688" gradientUnits="userSpaceOnUse">
<stop stop-color="#D5DFFF"/>
<stop offset="1" stop-color="white"/>
</linearGradient>
</defs>
</svg>
