<svg width="30" height="31" viewBox="0 0 30 31" fill="none" xmlns="http://www.w3.org/2000/svg">
<path d="M29.4555 19.9756C29.8048 18.7336 29.9989 17.3752 29.9989 15.978C29.9989 14.5808 29.8048 13.2224 29.4555 11.9804H14.8631L6.42191 3.67462C4.42321 5.07185 2.7738 6.97364 1.62891 9.16652L8.53705 15.9586L1.68711 22.7507C2.79319 24.9436 4.44262 26.8454 6.48014 28.2426L14.8825 19.9368H29.4555V19.9756Z" fill="#699635"/>
<path d="M0.756797 11.2236C0.252269 12.7178 0 14.3285 0 15.978C0 17.6275 0.252269 19.2188 0.756797 20.7325L5.5498 15.978L0.756797 11.2236Z" fill="#3E4347"/>
<path d="M8.14844 29.3293C10.2054 30.3772 12.5533 30.9788 14.9984 30.9788C21.1497 30.9788 26.4473 27.2723 28.7565 21.9357H15.697L8.14844 29.3293Z" fill="#428BC1"/>
<path d="M28.7565 10.0204C26.4473 4.6644 21.1497 0.977295 14.9984 0.977295C12.5533 0.977295 10.2054 1.57888 8.14844 2.6268L15.697 10.0204H28.7565Z" fill="#ED4C5C"/>
<path d="M29.2612 11.3206C29.106 10.8743 28.9701 10.4279 28.7567 10.0204H15.6972L8.14866 2.62677C7.79937 2.78202 7.50828 2.97604 7.13959 3.1701C6.88732 3.32535 6.63508 3.51943 6.38281 3.67467L14.824 11.9804H29.4164C29.4164 11.767 29.3582 11.5147 29.2612 11.3206Z" fill="white"/>
<path d="M1.6507 9.16656C1.59248 9.26359 1.55366 9.36063 1.49545 9.51588C1.24318 10.0592 0.990924 10.622 0.796875 11.2236L5.58988 15.978L0.796875 20.7325C0.990924 21.3341 1.20437 21.8774 1.49545 22.4402C1.55366 22.5373 1.59248 22.6343 1.6507 22.7895L8.50062 15.9975L1.6507 9.16656Z" fill="#FFCE31"/>
<path d="M14.863 19.9757L6.42188 28.2815C6.57711 28.3785 6.77116 28.5338 6.9264 28.6308C7.3339 28.8831 7.722 29.1353 8.16832 29.3294L15.7168 21.9357H28.7763C28.9704 21.4312 29.1839 20.9266 29.3779 20.3833C29.4361 20.228 29.4361 20.131 29.4749 19.9757H14.863Z" fill="white"/>
</svg>
