<svg width="30" height="31" viewBox="0 0 30 31" fill="none" xmlns="http://www.w3.org/2000/svg">
<path d="M14.999 0.0708008C8.6536 0.0708008 3.23963 4.02961 1.04688 9.57971H28.9511C26.7584 4.01021 21.3638 0.0708008 14.999 0.0708008Z" fill="#3E4347"/>
<path d="M14.999 30.0724C21.3444 30.0724 26.7584 26.1136 28.9511 20.5635H1.04688C3.25903 26.1136 8.6536 30.0724 14.999 30.0724Z" fill="#699635"/>
<path d="M30 15.0715C30 13.519 29.7477 11.9666 29.3014 10.5693H0.698595C0.252283 11.9666 0 13.519 0 15.0715C0 16.624 0.252283 18.1765 0.698595 19.5737H29.3014C29.7671 18.1765 30 16.624 30 15.0715Z" fill="#ED4C5C"/>
<path d="M29.1663 10.0649C29.1081 9.90963 29.0111 9.71555 28.9723 9.5603H1.06802C1.00981 9.71555 0.912785 9.90963 0.873975 10.0649C0.81576 10.2201 0.776965 10.4142 0.71875 10.5694H29.3216C29.2634 10.4142 29.2051 10.2201 29.1663 10.0649Z" fill="white"/>
<path d="M0.854444 20.059C0.912658 20.2143 1.00968 20.4083 1.04849 20.5635H28.9528C29.011 20.4083 29.108 20.2143 29.1468 20.059C29.1856 19.9038 29.2438 19.7097 29.302 19.5544H0.699219C0.757433 19.7097 0.815634 19.9232 0.854444 20.059Z" fill="white"/>
<path d="M4.40493 4.47583C1.70765 7.17326 0 10.9186 0 15.0714C0 19.2243 1.70765 22.9697 4.40493 25.6671L15 15.0714L4.40493 4.47583Z" fill="#2A5F9E"/>
<path d="M7.41146 14.5669L9.00265 12.4711L6.40239 13.2667L4.75297 11.1709V13.7713L2.21094 14.5669L4.75297 15.3626V17.963L6.40239 15.8671L9.00265 16.6628L7.41146 14.5669Z" fill="#FFCE31"/>
</svg>
