<svg width="30" height="31" viewBox="0 0 30 31" fill="none" xmlns="http://www.w3.org/2000/svg">
<path d="M0 15.2112C0 18.1647 0.85495 20.9239 2.3122 23.2168H27.6878C29.1451 20.9045 30 18.1647 30 15.2112C30 12.2576 29.1451 9.49843 27.6878 7.20557H2.3122C0.85495 9.49843 0 12.2576 0 15.2112Z" fill="#FFCE31"/>
<path d="M27.7463 7.18602C25.0844 2.98891 20.3823 0.171387 15.0196 0.171387C9.65695 0.171387 4.95488 2.96948 2.29297 7.18602H27.7463Z" fill="#ED4C5C"/>
<path d="M2.3125 23.2166C4.97441 27.4137 9.67648 30.2311 15.0392 30.2311C20.4019 30.2311 25.1039 27.4331 27.7658 23.2166H2.3125Z" fill="#ED4C5C"/>
<path d="M3.61328 13.5593H5.20653V14.4532H3.61328V13.5593Z" fill="#C8B100"/>
<path d="M3.61328 20.166H5.26483V21.021H3.61328V20.166Z" fill="#C8B100"/>
<path d="M3.45963 18.7668C3.30419 18.864 3.20703 18.9612 3.20703 19.0195C3.20703 19.0778 3.26533 19.1166 3.36248 19.1749C3.45963 19.2332 3.55679 19.3304 3.51793 19.4275C3.61508 19.3304 3.67338 19.2332 3.67338 19.1361C3.65395 18.9612 3.55678 18.8057 3.45963 18.7668Z" fill="#ED4C5C"/>
<path d="M3.86719 14.4531H5.01354V20.1658H3.86719V14.4531Z" fill="white"/>
<path d="M6.21767 16.5519C5.96508 16.4547 5.5182 16.3575 5.01302 16.3575C4.85758 16.3575 4.66327 16.3576 4.46897 16.4158C3.76949 16.513 3.22545 16.8239 3.26431 17.0182L3.01171 16.4741C2.95342 16.2215 3.55579 15.9301 4.31356 15.7746C4.56616 15.7163 4.81872 15.7163 5.01302 15.7163C5.5182 15.7163 5.96508 15.7746 6.21767 15.8718V16.5519Z" fill="#ED4C5C"/>
<path d="M3.86827 17.3096C3.57682 17.3096 3.32422 17.2124 3.32422 17.057C3.32422 16.9598 3.42137 16.8044 3.61567 16.7073H3.90712L3.86827 17.3096Z" fill="#ED4C5C"/>
<path d="M5.01172 16.8625C5.20602 16.9208 5.36147 16.9597 5.45862 17.018C5.51691 17.0763 5.30317 17.2706 5.01172 17.4261V16.8625Z" fill="#ED4C5C"/>
<path d="M3.10792 18.4171C3.04963 18.3199 3.3994 18.1257 3.86572 17.9702C4.06002 17.9119 4.21543 17.8148 4.46802 17.7176C5.07035 17.465 5.57557 17.1152 5.47842 17.0181L5.57557 17.6204C5.63386 17.7176 5.2258 18.0285 4.62347 18.3199C4.42917 18.4171 4.07945 18.5725 3.86572 18.6114C3.51598 18.7086 3.22452 18.9029 3.22452 18.9612L3.10792 18.4171Z" fill="#ED4C5C"/>
<path d="M14.3789 13.5593H15.9722V14.4532H14.3789V13.5593Z" fill="#C8B100"/>
<path d="M14.3203 20.166H15.9719V21.021H14.3203V20.166Z" fill="#C8B100"/>
<path d="M16.1278 18.7668C16.2832 18.864 16.3804 18.9612 16.3804 19.0195C16.3804 19.0778 16.3221 19.1166 16.2249 19.1749C16.1278 19.2721 16.0307 19.4275 16.0695 19.4664C15.9724 19.3692 15.9141 19.2721 15.9141 19.1749C15.9335 18.9612 16.0306 18.8057 16.1278 18.7668Z" fill="#ED4C5C"/>
<path d="M14.5742 14.4531H15.7206V20.1658H14.5742V14.4531Z" fill="white"/>
<path d="M13.3672 16.5519C13.6198 16.4547 14.0667 16.3575 14.5718 16.3575C14.7273 16.3575 14.9216 16.3576 15.1159 16.4158C15.8154 16.513 16.3594 16.8239 16.3205 17.0182L16.5731 16.4158C16.6314 16.1632 16.0291 15.8718 15.2713 15.7163H14.5718C14.0667 15.7163 13.6198 15.7746 13.3672 15.8718V16.5519Z" fill="#ED4C5C"/>
<path d="M15.7185 17.3096C16.01 17.3096 16.2626 17.2124 16.2626 17.057C16.2626 16.9598 16.1654 16.8044 15.9711 16.7073H15.6797L15.7185 17.3096Z" fill="#ED4C5C"/>
<path d="M14.5737 16.8625C14.3794 16.9208 14.224 16.9597 14.1268 17.018C14.0685 17.0763 14.2822 17.2706 14.5737 17.4261V16.8625Z" fill="#ED4C5C"/>
<path d="M16.477 18.4171C16.5353 18.3199 16.1856 18.1257 15.7193 17.9702C15.525 17.9119 15.3695 17.8148 15.1169 17.7176C14.5146 17.465 14.0094 17.1152 14.1066 17.0181L14.0094 17.6204C13.9511 17.7176 14.3592 18.0285 14.9615 18.3199C15.1558 18.4171 15.5056 18.5725 15.7193 18.6114C16.069 18.7086 16.3605 18.9612 16.3216 19.0195L16.477 18.4171Z" fill="#ED4C5C"/>
<path d="M9.77411 10.3533C10.7262 10.3533 12.6692 10.5476 13.3881 11.2471C12.6303 13.0542 11.4451 12.2964 9.77411 12.2964C8.18085 12.2964 6.91793 13.0542 6.16016 11.2471C6.85964 10.5476 8.76375 10.3533 9.77411 10.3533Z" fill="#ED4C5C"/>
<path d="M12.2206 12.3546C11.6182 12.0048 10.7244 11.9465 9.77237 11.9465C8.8203 11.9465 7.92655 12.0437 7.32422 12.3546L7.51852 13.2096C8.06256 13.365 8.87859 13.4621 9.77237 13.4621C10.6662 13.4621 11.4239 13.365 12.0263 13.2096L12.2206 12.3546Z" fill="#C8B100"/>
<path d="M13.0748 10.1979C12.8805 10.0424 12.4724 9.9064 12.1227 9.9064C11.9673 9.9064 11.8312 9.90636 11.6758 9.96465C11.6758 9.96465 11.3844 9.55663 10.6654 9.55663C10.4129 9.55663 10.2185 9.61493 10.0242 9.71209V9.65378C9.96596 9.55663 9.8688 9.45947 9.77165 9.45947C9.6745 9.45947 9.51905 9.61493 9.51905 9.71209V9.77034C9.32475 9.67319 9.11104 9.61493 8.85845 9.61493C8.15897 9.61493 7.84809 10.0618 7.84809 10.023C7.69265 9.96466 7.55663 9.96465 7.40119 9.96465C5.08902 9.96465 6.25484 11.5191 6.25484 11.5191L6.50739 11.2277C5.96335 10.5282 6.44913 10.1201 7.45949 10.1201C7.61493 10.1201 7.71209 10.1201 7.80924 10.1784C7.4595 10.6836 8.10069 11.1305 8.10069 11.1305L8.2561 10.878C7.90636 10.6253 7.84809 9.77034 8.85845 9.77034C9.11104 9.77034 9.30532 9.82863 9.51905 9.96465C9.51905 10.0229 9.46076 10.7225 9.4219 10.8196L9.82995 11.1694L10.238 10.8196C10.1797 10.6642 10.1408 10.0229 10.1408 9.96465C10.2963 9.8675 10.5488 9.77034 10.782 9.77034C11.8312 9.77034 11.8312 10.6253 11.3844 10.878L11.5398 11.1305C11.5398 11.1305 12.0838 10.6836 11.8313 10.1784C11.9284 10.1784 12.0839 10.1201 12.181 10.1201C13.3857 10.1201 13.4245 11.0139 13.1331 11.2277L13.3274 11.5191C13.2108 11.4997 13.7742 10.8002 13.0748 10.1979Z" fill="#C8B100"/>
<path d="M9.46094 9.24557C9.46094 9.09012 9.61638 8.9541 9.75239 8.9541C9.94669 8.9541 10.0438 9.10955 10.0438 9.24557C10.0438 9.40102 9.8884 9.53703 9.75239 9.53703C9.61638 9.53703 9.46094 9.40102 9.46094 9.24557Z" fill="#005BBF"/>
<path d="M9.67477 8.39062V8.54608H9.51932V8.70149H9.67477V9.20672H9.48047V9.36218H10.0828L10.1411 9.26502L10.0828 9.20672H9.88852V8.70149H10.044V8.54608H9.88852V8.39062H9.67477Z" fill="#C8B100"/>
<path d="M9.7744 13.3456C8.97777 13.3456 8.27831 13.2484 7.71484 13.0929C8.25888 12.9375 8.95834 12.8403 9.7744 12.8403C10.5905 12.8403 11.2705 12.9375 11.834 13.0929C11.3288 13.2484 10.571 13.3456 9.7744 13.3456Z" fill="#ED4C5C"/>
<path d="M9.81318 22.0119C8.86111 22.0119 7.96733 21.7593 7.15127 21.4096C6.54894 21.1181 6.19922 20.5546 6.19922 19.9134V17.5039H13.4077V19.9134C13.4077 20.5546 12.9997 21.157 12.4557 21.4096C11.6785 21.8176 10.7652 22.0119 9.81318 22.0119Z" fill="white"/>
<path d="M9.77344 13.501H13.3874V17.5037H9.77344V13.501Z" fill="white"/>
<path d="M9.81318 19.9134C9.81318 20.8655 9.01658 21.6233 8.00622 21.6233C6.99586 21.6233 6.19922 20.8655 6.19922 19.9134V17.5039H9.81318V19.9134Z" fill="#ED4C5C"/>
<path d="M6.95703 21.3124C7.05418 21.3707 7.20963 21.4679 7.40393 21.5067V17.4067H6.99588L6.95703 21.3124Z" fill="#C8B100"/>
<path d="M6.16016 19.8551C6.16016 20.3603 6.35443 20.7489 6.56816 20.9626V17.4067H6.16016V19.8551Z" fill="#C8B100"/>
<path d="M7.77344 21.6231H8.18149V17.426H7.77344V21.6231Z" fill="#C7B500"/>
<path d="M8.57031 21.5067C8.72575 21.4484 8.92006 21.3513 9.01721 21.3124V17.4067H8.60916L8.57031 21.5067Z" fill="#C8B100"/>
<path d="M6.16016 13.501H9.77411V17.5037H6.16016V13.501Z" fill="#ED4C5C"/>
<path d="M9.42188 20.9624C9.61618 20.807 9.77163 20.4572 9.82992 20.0686V17.4648H9.42188V20.9624Z" fill="#C8B100"/>
<path d="M13.4265 17.5039V19.9134C13.4265 20.8655 12.6299 21.6233 11.6195 21.6233C10.6091 21.6233 9.8125 20.8655 9.8125 19.9134V17.5039H13.4265Z" fill="#ED4C5C"/>
<path d="M12.1227 14.2005C12.2781 14.492 12.2781 15.2498 11.8312 15.0944C11.9284 15.1527 11.9867 15.5024 12.1227 15.6967C12.3753 15.9882 12.6667 15.755 12.6278 15.4053C12.5307 14.8612 12.5695 14.5114 12.6861 13.9479C12.6861 14.0062 12.9387 14.0063 13.0359 13.8897C12.9776 14.0451 12.9387 14.2394 13.0359 14.2394C12.9387 14.3948 12.6861 14.6474 12.6278 14.7835C12.5695 15.1332 13.133 15.7939 12.5307 15.9299C12.1226 16.0271 12.3752 16.3379 12.5307 16.474C12.5307 16.474 12.3364 17.1152 12.4335 17.0763C12.0255 17.2318 12.1421 16.882 12.1421 16.882C12.3364 16.2797 11.7923 16.2408 11.8506 16.1242C11.3454 16.0659 11.9089 16.5711 11.4426 16.5711C11.3455 16.5711 11.1512 16.6683 11.1512 16.6683C10.6071 16.61 10.8986 16.1242 11.0929 16.1631C11.2483 16.2214 11.3843 16.4545 11.3843 16.1048C11.3843 16.1048 11.1318 15.6967 11.7924 15.6967C11.5398 15.6967 11.3843 15.5024 11.2872 15.2498C11.19 15.3081 11.0346 15.5413 10.4905 15.5996C10.4905 15.5996 10.3351 15.0555 10.4905 15.1527C10.6848 15.2498 10.782 15.2498 10.9957 15.0555C10.8986 14.9001 10.2962 14.7058 10.3934 14.356C10.3934 14.2588 10.6848 14.1034 10.6848 14.1034C10.6265 14.356 10.782 14.6086 11.0929 14.6086C11.5009 14.6669 11.3455 14.5115 11.3843 14.4143C11.4426 14.3171 11.7341 14.4726 11.6369 14.22C11.6369 14.1617 11.2872 14.1228 11.3843 13.9674C11.5592 13.7536 11.8701 13.9479 12.1227 14.2005Z" fill="#ED4C5C"/>
<path d="M9.81199 21.5067L9.71484 21.2541L9.81199 20.9626L9.90914 21.2541L9.81199 21.5067Z" fill="#ED4C5C"/>
<path d="M7.26801 14.3561V14.6087H7.36516V14.803H7.11256V15.3082H7.26801V16.4158H6.97656V16.9598H9.03612V16.4158H8.78357V15.3082H8.88072V14.803H8.62812V14.6087H8.78357V14.3561H8.27837V14.6087H8.37552V14.803H8.12292V14.2006H8.27837V13.948H7.73431V14.2006H7.88976V14.803H7.63716V14.6087H7.73431V14.3561H7.26801Z" fill="#C8B100"/>
<path d="M12.92 20.5156V18.009H10.3164V20.5156L11.5211 21.0597H11.6765L12.92 20.5156ZM11.5211 18.2033V19.0583L10.6662 18.2033H11.5211ZM10.4719 18.2616L11.4822 19.2721L10.4719 20.2825V18.2616ZM10.569 20.4573L11.5211 19.5052V20.9042L10.569 20.4573ZM11.6765 20.8654V19.4664L12.6286 20.4185L11.6765 20.8654ZM12.7257 20.263L11.7154 19.2526L12.7257 18.2422V20.263ZM11.6765 18.2033H12.5314L11.6765 19.0583V18.2033Z" fill="#C8B100"/>
<path d="M8.60938 17.465C8.60938 16.7071 9.11458 16.1631 9.75578 16.1631C10.397 16.1631 10.9021 16.7654 10.9021 17.465C10.9021 18.1645 10.397 18.7668 9.75578 18.7668C9.11458 18.7668 8.60938 18.2033 8.60938 17.465Z" fill="#ED4C5C"/>
<path d="M8.95703 17.465C8.95703 16.921 9.30679 16.5129 9.75368 16.5129C10.2006 16.5129 10.5503 16.9598 10.5503 17.465C10.5503 18.0091 10.2006 18.4171 9.75368 18.4171C9.36508 18.456 8.95703 18.0091 8.95703 17.465Z" fill="#005BBF"/>
<path d="M9.42477 16.8044L9.23047 17.3485L9.38592 17.4068L9.28877 17.6011H9.58022L9.48307 17.4068L9.63852 17.3485L9.42477 16.8044Z" fill="#C8B100"/>
<path d="M10.1631 16.8044L9.96875 17.3485L10.1242 17.4068L10.027 17.6011H10.3185L10.2602 17.4068L10.4157 17.3485L10.1631 16.8044Z" fill="#C8B100"/>
<path d="M9.81115 17.4648L9.55859 18.0089L9.714 18.0672L9.65574 18.2615H9.9083L9.85004 18.0672L10.0054 18.0089L9.81115 17.4648Z" fill="#C8B100"/>
</svg>
