<svg width="30" height="31" viewBox="0 0 30 31" fill="none" xmlns="http://www.w3.org/2000/svg">
<path d="M13.5744 3.27012H23.9687C21.4671 1.36958 18.3643 0.26416 14.9707 0.26416C11.577 0.26416 8.47426 1.36958 5.97266 3.27012H11.771V27.2596H5.97266C8.47426 29.1602 11.577 30.2656 14.9707 30.2656C18.3643 30.2656 21.4671 29.1602 23.9687 27.2596H13.5744V3.27012Z" fill="#FFCE31"/>
<path d="M29.9802 15.2746C29.9802 10.3681 27.6338 6.02401 23.988 3.28955H13.5938V27.279H23.988C27.6144 24.5058 29.9802 20.1617 29.9802 15.2746Z" fill="#C94747"/>
<path d="M11.7891 3.27002H5.9908C5.93262 3.3282 5.83566 3.367 5.79688 3.42518V27.1044C5.85505 27.1625 5.95201 27.2013 5.9908 27.2595H11.7891V3.27002Z" fill="#FF8736"/>
<path d="M0.000131082 15.2745C0.000131082 20.0646 2.24966 24.37 5.79844 27.1238V3.44458C2.11392 6.25661 -0.0192612 10.6395 0.000131082 15.2745Z" fill="#699635"/>
<path d="M16.1733 24.0598C15.6304 24.467 14.5832 24.4089 14.1177 24.9131C13.5748 25.4561 14.1759 26.1543 14.1759 26.2706L14.1177 26.6779C14.1177 26.6779 14.4668 26.6779 14.6607 26.736C14.9128 26.7942 15.0098 26.9882 15.417 26.93C16.5224 26.8718 16.4642 25.8827 16.5224 25.0294C16.5806 24.7385 16.7163 24.2731 16.7745 23.9822C16.8326 23.6913 16.8714 23.284 16.8714 23.284C16.8714 23.1095 16.5224 23.8076 16.1733 24.0598Z" fill="#FFCE31"/>
<path d="M16.5224 5.61659C16.4642 4.76329 16.5224 3.77422 15.417 3.71604C14.971 3.65786 14.874 3.87119 14.6607 3.90998C14.5056 3.90998 14.1177 3.96816 14.1177 3.96816L14.1759 4.3754C14.1759 4.43358 13.5748 5.17052 14.1177 5.73293C14.5638 6.17897 15.6691 6.179 16.1733 6.58626C16.5224 6.83837 16.8714 7.47832 16.8714 7.47832C16.8714 7.47832 16.8714 7.03231 16.7745 6.78019C16.7357 6.37293 16.5806 5.92689 16.5224 5.61659Z" fill="#FFCE31"/>
<path d="M29.8633 13.626C29.456 13.626 29.107 13.5679 28.7579 13.5679C28.9131 13.6648 28.3507 11.8225 28.661 11.5703C29.01 11.2794 28.7579 9.47583 28.467 9.06857C28.467 9.01039 28.467 8.91343 28.5252 8.87464C28.3701 8.52556 28.1761 8.17649 27.9822 7.8662C27.4392 7.67227 26.9738 7.3232 26.7799 8.11832C26.586 7.86621 26.0236 7.32319 25.6746 7.47833C25.6164 7.67227 25.5776 7.88561 25.4806 8.07954C25.2285 8.17651 24.3365 7.67228 23.8323 7.78864C23.8323 8.7971 23.2312 8.38982 22.533 8.7389C21.2337 9.34009 21.893 8.19588 21.0398 8.19588C19.4496 8.19588 21.6798 10.6395 22.087 10.8916C22.1452 10.7946 21.9319 10.6007 22.087 10.4843C22.087 10.4843 22.63 10.9303 22.63 10.7752C22.6882 10.62 22.6881 10.4843 22.7851 10.368C22.9402 10.6201 24.0844 11.9582 23.8323 12.2103C23.7741 12.2685 22.6881 12.1521 22.6881 12.1521C22.7463 12.0552 22.7851 11.803 22.7851 11.7449C22.436 11.3958 21.7767 11.3376 21.4276 11.454C21.1367 11.5509 20.5744 11.9582 20.5356 12.4624C20.7295 12.4042 21.4277 12.2103 21.544 12.3073C21.6022 12.3655 21.3501 12.7145 21.3501 12.7533C21.641 12.7533 22.2421 12.9085 22.3972 12.9085C22.4554 12.8115 22.5524 12.6563 22.5912 12.5594C22.7463 12.7533 22.8433 12.9666 22.9984 13.1994C23.1536 13.2963 23.4444 12.3073 23.7547 13.0054C23.8517 13.2575 21.3113 15.6623 21.1562 16.5544C21.0592 17.0586 21.1562 17.5629 21.3501 18.0089C20.9041 17.5047 19.7017 16.1665 19.4109 16.3023C18.6546 16.7095 19.3139 18.9979 19.663 19.444C20.0702 19.987 22.4167 21.3445 22.4167 19.541C22.4167 19.444 22.3197 19.2889 22.2227 19.0949C22.7657 19.444 23.4638 19.7349 23.7741 20.1034C24.1232 20.5106 24.4141 21.5967 24.3753 22.1979C24.2202 23.6524 21.9706 22.2948 21.9706 23.9044C21.9706 23.7105 24.162 24.0014 24.3171 23.8463C24.6662 23.5942 25.7715 24.4475 25.5582 23.2451C25.3449 22.0427 26.7993 22.6051 26.7993 21.6549C26.7993 21.1506 25.2479 21.7518 26.1012 20.4137C26.4502 19.9094 26.1982 19.2113 26.6054 19.7737C27.2453 20.5688 28.3119 20.0258 29.4561 19.4246C29.8051 18.1253 29.999 16.7677 29.999 15.3714C29.9797 14.712 29.9214 14.169 29.8633 13.626Z" fill="#FFCE31"/>
<path d="M18.9846 20.1617C18.8876 20.5107 18.3834 18.6102 18.4804 18.5132C18.6743 18.5714 18.8294 18.5714 19.0234 18.5714C19.1785 18.4744 18.6743 18.2223 18.2283 18.0672C18.6355 18.0672 18.9846 17.912 18.9846 17.815C18.9846 17.7181 18.7907 17.6211 18.4416 17.5629C18.7325 17.5047 18.9458 17.4078 18.9458 17.3108C18.9458 17.2138 18.6937 17.1169 18.3446 17.0587C18.6937 17.0006 18.9846 16.9036 18.9846 16.8066C18.9846 16.7096 18.8294 16.6127 18.5773 16.5545C18.8682 16.4963 19.0816 16.3993 19.0816 16.2636C19.0816 16.1666 18.9264 16.0696 18.6743 16.0115C18.9264 15.9533 19.1203 15.9145 19.2755 15.8563C20.1287 14.9642 19.0234 14.3631 19.0234 15.3133C19.0234 15.7206 17.918 15.5654 17.7241 15.4684C17.5302 15.3715 17.6271 15.2745 17.7241 15.1194C17.918 15.2164 18.8294 15.3715 18.8682 14.0721C18.9264 13.5291 18.9264 5.92695 19.6245 5.92695C16.6769 5.7718 17.9762 13.2188 17.7241 14.8673C17.5302 14.5182 16.6769 14.9254 16.929 15.4684C17.0841 15.7593 17.4332 15.9145 17.7823 16.0115C17.5302 16.0696 17.3362 16.1666 17.3362 16.2636C17.3362 16.3606 17.4914 16.4575 17.7435 16.5157C17.4526 16.5739 17.2393 16.6709 17.2393 16.7678C17.2393 16.8648 17.4914 16.9617 17.8404 17.0199C17.4914 17.0781 17.1811 17.1751 17.1811 17.272C17.1811 17.369 17.4332 17.466 17.7241 17.5242C17.4332 17.5823 17.2199 17.6793 17.2199 17.7763C17.2199 17.8732 17.375 17.9702 17.6271 18.0284C17.4332 18.0866 17.3362 18.1835 17.3362 18.3193L17.9374 18.6102C17.9374 19.0175 17.7435 19.8514 17.5884 20.2586C17.5302 20.1035 17.3944 20.0647 17.2975 20.0065C16.6575 20.0647 17.8016 20.8016 17.8016 20.7628C17.8016 21.0149 17.5495 20.9568 17.4526 21.1119C17.4526 21.1119 18.2477 21.6162 18.2477 21.7131C18.3446 21.6162 19.004 21.1701 19.0428 21.1119C18.9458 21.0149 18.6937 20.918 18.6937 20.7628C18.6937 20.6659 19.3336 20.5107 19.3918 20.3168C19.4306 20.1228 19.0234 19.9095 18.9846 20.1617Z" fill="#FFCE31"/>
</svg>
