<svg width="30" height="31" viewBox="0 0 30 31" fill="none" xmlns="http://www.w3.org/2000/svg">
<path d="M22.5 22.8102C26.6421 18.6678 26.6421 11.9517 22.5 7.80938C18.3579 3.66702 11.6421 3.66705 7.50001 7.80941C3.35787 11.9518 3.35785 18.6678 7.49998 22.8102C11.6421 26.9526 18.3579 26.9526 22.5 22.8102Z" fill="#F5F5F5"/>
<path d="M20.4482 17.5023L20.407 17.4337C20.2973 17.2965 20.2698 17.2554 20.16 17.2554H20.0914L20.0503 17.324C19.9817 17.3926 20.0091 17.4612 20.0091 17.5298C20.0091 17.571 20.0503 17.6396 20.0503 17.7356C20.0915 17.914 18.9251 18.0924 18.5684 18.1198C18.3214 18.161 18.0332 18.1885 17.8274 18.2296H17.7863C17.5393 18.2982 17.3609 18.408 17.2923 18.5452C17.2511 18.655 17.2923 18.7236 17.402 18.902C17.5118 19.0804 17.6902 19.3549 17.6902 19.5744C17.649 19.6156 17.6216 19.6156 17.5804 19.643C16.7023 20.137 15.9887 20.3154 15.0008 20.3154C14.0128 20.3154 13.2993 20.137 12.4211 19.643C12.38 19.6019 12.3525 19.6019 12.3114 19.5744C12.3525 19.3686 12.5172 19.0804 12.5995 18.902C12.7093 18.7236 12.7368 18.655 12.7093 18.5452C12.6407 18.3669 12.4623 18.2571 12.2153 18.2296H12.1741C11.9683 18.1885 11.7214 18.161 11.4332 18.1198C11.049 18.0512 9.91011 17.914 9.95128 17.7356C9.95128 17.667 9.99245 17.5984 9.99245 17.5298C9.99245 17.4612 10.0336 17.3926 9.95128 17.324L9.88267 17.2554H9.81406C9.70429 17.2554 9.67684 17.2965 9.56707 17.4337L9.5259 17.4749C9.41613 17.6121 9.38871 17.7219 9.41615 17.8591C9.41615 17.9003 9.45729 17.9689 9.5259 18.065C9.56706 18.1747 9.63568 18.312 9.70428 18.4904C9.77289 18.7374 9.8415 18.9157 9.8415 19.0941C9.8415 19.3411 10.1571 19.4509 10.3355 19.5195C10.4727 19.5607 10.6922 19.5881 10.8706 19.5881C10.8706 19.7254 10.8294 19.8763 10.802 20.0135C10.7608 20.1233 10.802 20.3017 10.8706 20.3977C10.9392 20.5075 11.049 20.5761 11.1588 20.6448L11.1999 20.6859C12.3663 21.4269 13.711 21.8523 14.9871 21.8523C16.2632 21.8523 17.6079 21.4269 18.7742 20.6859L18.8154 20.6448C18.9251 20.5761 19.0212 20.5075 19.1035 20.3977C19.1721 20.288 19.2133 20.1507 19.1721 20.0135C19.1309 19.8351 19.1035 19.7254 19.1035 19.5881C19.2819 19.5881 19.4877 19.5881 19.6387 19.5195C19.817 19.4509 20.0914 19.3823 20.1326 19.0941C20.1326 18.9157 20.2012 18.7374 20.2698 18.4904C20.3384 18.312 20.407 18.1747 20.4482 18.065C20.4894 17.9552 20.5168 17.8866 20.558 17.8591C20.5992 17.7494 20.558 17.5984 20.4482 17.5023Z" fill="#3E4347"/>
<path d="M20.3101 17.5985C20.1043 17.3103 20.2003 17.4201 20.2415 17.7357C20.3101 18.1885 18.7184 18.2709 17.8677 18.4492H17.8265C17.6481 18.4904 17.5109 18.559 17.4423 18.6963C17.4012 18.7374 17.4423 18.806 17.4423 18.8746C17.6207 19.1628 17.8677 19.3412 17.8677 19.7529C17.7991 19.794 17.7305 19.8215 17.6893 19.8626C16.7288 20.3978 15.9879 20.535 14.9999 20.535C14.012 20.535 13.271 20.3566 12.3105 19.8626C12.2419 19.8215 12.1733 19.794 12.1321 19.7529C12.1321 19.3686 12.3791 19.1491 12.5575 18.8746C12.5986 18.8335 12.5986 18.7649 12.5575 18.6963C12.4889 18.5865 12.3516 18.4904 12.1733 18.4492H12.1321C11.2539 18.2709 9.6897 18.2023 9.75831 17.7357C9.79947 17.4201 9.86808 17.3103 9.6897 17.5985C9.64854 17.6671 9.62109 17.7357 9.62109 17.8043C9.66226 17.8729 9.79945 18.1199 9.90922 18.4355C9.97783 18.6413 10.0464 18.9021 10.0464 19.0667C10.0464 19.1765 10.1837 19.2451 10.4032 19.3138C10.5816 19.3824 10.856 19.3824 11.0344 19.3824C11.0344 19.5608 11.0344 19.7666 10.9658 20.0136C10.9246 20.0822 10.9658 20.192 11.0069 20.2606C11.0756 20.3704 11.1853 20.439 11.2951 20.4664C12.4614 21.2074 13.8061 21.5916 15.0136 21.5916C16.2211 21.5916 17.5247 21.2074 18.7321 20.4664C18.8419 20.3978 18.938 20.3292 19.0203 20.2606C19.0615 20.192 19.0889 20.1233 19.0614 20.0136C18.9928 19.7254 18.9928 19.5608 18.9928 19.3824C19.1712 19.3824 19.4457 19.3824 19.624 19.3138C19.8299 19.2451 19.9808 19.1765 19.9808 19.0667C19.9808 18.8609 20.0494 18.6413 20.118 18.4355C20.2278 18.1199 20.365 17.9004 20.4062 17.8043C20.4199 17.7494 20.3787 17.6671 20.3101 17.5985Z" fill="white"/>
<path d="M18.0061 11.698H11.9961V14.7718C11.9961 15.7598 12.0647 16.5008 12.4901 17.1045C13.0252 17.8181 13.8622 18.3395 15.0011 18.8747C16.1263 18.3807 16.977 17.8455 17.5122 17.1045C17.9375 16.5008 18.0061 15.7323 18.0061 14.7718V11.698Z" fill="#2A5F9E"/>
<path d="M17.9393 16.0067C17.9393 15.7597 18.0079 15.6224 18.0079 15.3754C18.0491 14.8814 18.0491 14.3463 18.0491 13.8523H12.0391C12.0391 14.3463 12.0391 14.8814 12.0802 15.3754C12.0802 15.6224 12.1488 15.7597 12.1488 16.0067H17.9393Z" fill="#ED4C5C"/>
<path d="M11.3251 10.1063L11.9975 11.6981C13.8361 11.1354 16.1002 11.1629 18.0075 11.6981L18.721 10.0651L18.9268 10.1337L19.1738 9.57111L18.721 9.43389L18.6112 9.72204L18.3642 9.65343L18.474 9.36528L18.0212 9.2555L17.9526 9.54364L17.7468 9.5025L17.8154 9.21432L17.3488 9.14571L17.2802 9.43389L16.9647 9.39272L16.9235 9.52994H16.8137L16.8549 9.39272L16.6079 9.35154L16.5667 9.48877H16.4569L16.4981 9.35154L16.21 9.28293L16.1688 9.42016H15.963L16.0042 8.99475L15.5513 8.95361V9.24176H15.3455V8.95361H14.8927V9.24176H14.6869V8.95361L14.2341 8.99475L14.2752 9.42016H14.0694L13.9596 9.28293H13.7126V9.42016H13.6029L13.5617 9.28293L13.3147 9.32411L13.3559 9.46133H13.2461L13.205 9.32411L12.9168 9.39272L12.8482 9.10454L12.3954 9.17315L12.464 9.46133L12.2582 9.5025L12.1896 9.21432L11.7368 9.32411L11.8465 9.57111L11.6407 9.63972L11.5309 9.35154L11.0781 9.48877L11.3251 10.0514V10.1063Z" fill="#FFCE31"/>
<path d="M15.0419 14.909L15.33 14.168L15.0144 14.3738L14.6988 14.168L14.9869 14.909L14.2734 14.5933L14.4793 14.9501L14.2734 15.2657L14.9869 14.9501L14.6988 15.6911L15.0144 15.4853L15.33 15.6911L15.0419 14.9501L15.7828 15.2657L15.5358 14.9501L15.7828 14.5933L15.0419 14.909Z" fill="white"/>
<path d="M12.1075 15.2657V15.0873H11.9703V15.0187C12.0115 14.3463 11.5175 13.9209 11.0921 13.5367C10.9824 13.4269 10.8451 13.3309 10.7354 13.2211C11.0921 13.4681 11.4489 13.7151 11.5861 13.8249L11.545 13.9621L11.7233 14.0719H11.7645C11.9017 14.0719 12.0115 13.9347 12.0115 13.866L12.0526 13.8249V13.7837C12.0115 13.4956 11.4489 12.9055 10.9549 12.4115C10.9549 12.2331 10.9138 12.1233 10.8451 12.0273C10.7765 11.9587 10.7079 11.9175 10.6393 11.8901C10.7079 11.8214 10.7765 11.7528 10.8451 11.7117C10.9138 11.643 10.9824 11.6019 10.9824 11.5058C10.9412 11.3 10.6942 11.2177 10.4472 11.396L10.3786 11.3549C10.2414 11.2863 10.063 11.3137 9.92581 11.4921H9.88464C9.81604 11.4921 9.74743 11.4921 9.67882 11.6019C9.61021 11.6705 9.56905 11.7391 9.54161 11.8489H9.50043C9.36322 11.89 9.18483 11.9861 9.18483 12.4115C9.07506 12.2331 9.00645 12.0959 8.97901 11.9861C8.93785 11.8763 8.9104 11.7803 8.77319 11.7803C8.70458 11.7803 8.636 11.8214 8.59484 11.8901C8.55367 11.9312 8.55367 11.9587 8.52623 12.0685H8.48506L8.44389 12.1096C8.37528 12.1782 8.30667 12.2468 8.30667 12.3566H8.2655L8.12829 12.3978L8.08711 12.4664C8.04595 12.5762 8.04595 12.7134 8.08711 12.8506H7.97737L7.9362 12.9192C7.89503 12.9878 7.8676 13.029 7.97737 13.276L7.86759 13.3172C7.79898 13.3583 7.75781 13.4544 7.75781 13.523C7.75781 13.5916 7.79898 13.7014 7.86759 13.77V13.8112C7.82643 13.8798 7.79898 13.9484 7.82642 14.017C7.82642 14.0856 7.89503 14.1542 7.96363 14.2228C7.92247 14.2914 7.92246 14.3601 7.92246 14.4287C7.99107 14.6345 8.34782 14.854 8.70458 14.9638C8.5262 15.1697 8.41645 15.4167 8.41645 15.5264L8.45762 15.6362L8.56737 15.6774H8.63597C8.67714 15.6774 8.70459 15.6774 8.74575 15.6362V15.8146C8.78692 15.8832 8.85553 15.9518 8.92414 15.993H8.96531C9.10252 15.993 9.14367 15.8832 9.25344 15.746V15.8146C9.14367 15.9518 8.86927 16.2674 8.80066 16.3772C8.69089 16.487 8.73204 16.5831 8.75949 16.6242C8.64972 16.734 8.55365 16.8301 8.47132 16.8712C8.33411 16.9398 8.36154 17.0496 8.36154 17.1182L8.43015 17.2555H8.47132L8.51249 17.2966L8.55367 17.3378C8.66344 17.4064 8.80063 17.4064 8.9104 17.3378L8.95157 17.3789H8.99275C9.06135 17.3789 9.12996 17.3378 9.19857 17.3103L9.30835 17.3515L9.37695 17.3103C9.44556 17.2692 9.69253 17.0633 9.87091 16.9261C9.91207 17.0633 9.98069 17.2417 9.98069 17.3515L10.0219 17.4887V18.1611L10.0905 18.2297C10.3375 18.4767 10.4472 18.6139 10.5158 18.7237C10.557 18.7923 10.5844 18.8335 10.6256 18.8609L10.7628 19.0393L10.9 18.8609C10.9412 18.8198 10.9686 18.7923 11.0372 18.7923H11.0784L11.2568 18.8609L11.298 18.6551C11.3391 18.5453 11.4763 18.4081 11.5038 18.3669L11.888 18.0788L11.394 18.0376C11.1059 17.9964 10.6531 17.9004 10.5433 17.8318C10.5433 17.7906 10.5021 17.6945 10.5433 17.4064L11.0372 16.9124C11.147 16.9536 11.2431 16.981 11.3528 17.0496L11.394 17.0908C11.4626 17.1319 11.5312 17.1319 11.5998 17.0908H11.6684L11.7096 17.0496L11.7782 16.981C11.8194 16.9124 11.9566 16.7752 12.0252 16.734L12.231 16.7752V16.5693C12.1487 16.2949 12.1075 15.3069 12.1075 15.2657ZM11.6136 16.0067C11.5724 16.2537 11.5038 16.4596 11.4352 16.4596C11.4352 16.4596 11.394 16.4596 11.3254 16.3909C11.4763 16.2949 11.545 16.1577 11.6136 16.0067Z" fill="#3E4347"/>
<path d="M10.378 17.0771L10.0898 17.2555V18.1749C10.474 18.5591 10.5152 18.7101 10.625 18.8061C10.7622 18.6003 11.0092 18.6689 11.0092 18.6689C11.0503 18.4631 11.2973 18.2847 11.2973 18.2847C10.9406 18.2435 10.3368 18.0789 10.3094 17.9965C10.1585 17.777 10.378 17.0771 10.378 17.0771Z" fill="#FFCE31"/>
<path d="M11.8587 15.4853C11.8999 15.7735 11.7215 17.5299 11.0492 16.3636L10.418 16.7889C10.418 16.7889 10.9119 16.5831 11.3785 16.9261H11.4883C11.598 16.8164 11.8039 16.5419 11.9411 16.5694V15.2932C11.8587 15.3344 11.8587 15.4853 11.8587 15.4853Z" fill="#FFCE31"/>
<path d="M11.7912 13.8524L11.7501 13.9621C11.8187 14.0033 11.8598 13.8524 11.8598 13.8524C11.7912 13.4956 10.6523 12.439 10.6523 12.439L10.1584 12.5487L10.1172 12.7546C10.5563 12.9055 11.75 13.7837 11.7912 13.8524Z" fill="#FFCE31"/>
<path d="M10.2663 13.0701C10.2663 13.0701 10.088 12.5761 10.4036 12.782C10.6505 12.7408 10.6094 12.4938 10.6094 12.4938H10.7466C10.8152 11.9998 10.3212 12.0684 10.2938 12.0684C10.4036 11.7528 10.7466 11.5332 10.7466 11.5332C10.7054 11.2862 10.2526 11.6705 10.0331 11.9175C10.1017 11.6705 10.2389 11.5333 10.2114 11.4921C10.0742 11.4235 9.89587 11.6705 9.78609 11.8763V11.6705C9.60771 11.6705 9.49793 12.1645 9.49793 12.4115C9.45677 12.2331 9.42932 12.0547 9.42932 12.0272C9.2235 12.0684 9.25094 12.4801 9.29211 12.6996L9.18233 12.5899C9.14116 12.631 9.14116 12.7271 9.18233 12.7957C8.79813 12.4115 8.72954 11.9449 8.68838 11.9449C8.51 11.9449 8.64722 12.4801 8.72955 12.6859C8.52372 12.3977 8.48255 12.1507 8.44138 12.1919C8.15323 12.4389 8.79815 13.1799 8.93537 13.3171C8.22185 12.8917 8.19439 12.4389 8.12578 12.4663C7.9474 12.9192 9.00396 13.7425 7.98857 12.9604C7.81019 12.8231 8.19439 13.5641 8.19439 13.5641C8.37277 13.7013 7.94742 13.3857 7.83765 13.3857C7.65927 13.523 8.263 14.017 8.263 14.017C8.3316 14.0856 7.90626 13.8111 7.83765 13.8386C7.70044 14.017 8.3316 14.4012 8.3316 14.4012C8.61975 14.5384 7.9474 14.2228 7.9474 14.264C7.74157 14.511 8.82559 14.8677 8.82559 14.8677C8.46883 15.1559 8.37277 15.4715 8.44138 15.499C8.50999 15.5401 8.82557 15.2108 8.97651 15.1422C8.77068 15.4303 8.66091 15.8146 8.77068 15.8146C8.83929 15.8146 9.05886 15.252 9.37445 15.1422C9.26468 15.348 9.16863 15.6362 9.23723 15.8557C9.23723 15.8557 8.81186 16.3497 8.74325 16.487C8.63348 16.6242 8.85303 16.5967 8.85303 16.5967C8.85303 16.5967 8.49625 16.9535 8.35904 17.0496C8.22183 17.1456 8.60604 17.0496 8.71581 17.0084C8.6472 17.0496 8.42765 17.1868 8.42765 17.2142C8.53742 17.2829 8.81186 17.077 8.81186 17.077C8.81186 17.077 8.74325 17.1868 8.81186 17.2142C8.92163 17.2142 9.12746 17.0359 9.12746 17.0359C9.12746 17.0359 9.08629 17.1456 9.12746 17.1456C9.19606 17.077 9.73122 16.6928 9.75866 16.6104C9.89587 16.8163 10.0056 17.2417 10.0056 17.2417H10.2938C10.2938 17.2417 11.7757 15.8283 11.7757 14.9501C11.8306 14.1679 10.8701 13.8249 10.2663 13.0701ZM10.5133 14.0718C10.5819 14.2091 10.5819 14.36 10.5545 14.4972H10.1703C10.1703 14.3189 10.1291 13.9346 10.1703 13.6876C10.335 13.9209 10.5133 14.0718 10.5133 14.0718ZM9.73119 15.3343V15.5401L9.52537 15.7185C9.59397 15.5813 9.66258 15.3755 9.73119 15.3343Z" fill="white"/>
<path d="M17.8672 16.542V16.7478L18.073 16.7067C18.1142 16.7067 18.2788 16.885 18.32 16.9536L18.3886 17.0222L18.4298 17.0634H18.7179L18.7591 17.0222C18.8689 16.9536 18.9375 16.9125 19.0747 16.885C19.2805 17.132 19.5001 17.3379 19.5687 17.379C19.6098 17.626 19.6098 17.7633 19.5687 17.8044C19.4589 17.873 19.0061 17.9828 18.7179 18.0103L18.1828 18.0514L18.567 18.3396C18.6356 18.3808 18.7728 18.518 18.7728 18.6278L18.814 18.8336L18.9923 18.765H19.0335C19.0747 18.765 19.1433 18.8062 19.1707 18.8336L19.3079 19.012L19.4452 18.8336C19.4863 18.7924 19.5138 18.7238 19.5549 18.6964C19.6235 18.5866 19.7333 18.4494 19.9803 18.2024L20.0489 18.1338V18.024V17.4614L20.0901 17.3242C20.1312 17.2144 20.1587 17.036 20.1998 16.8988C20.3782 17.036 20.6252 17.2555 20.6938 17.283L20.7624 17.3242L20.8722 17.283C20.9408 17.3242 21.0094 17.3516 21.078 17.3516H21.1192L21.1603 17.3104C21.2976 17.379 21.4485 17.379 21.5171 17.3104L21.5583 17.2693L21.5994 17.2281H21.6406L21.7092 17.0909C21.7092 17.0497 21.7504 16.9537 21.5994 16.8439C21.5308 16.8027 21.4211 16.7067 21.3113 16.5969C21.3525 16.5557 21.3525 16.4596 21.2701 16.3499C21.2015 16.2126 20.9134 15.9245 20.8173 15.7872V15.7186C20.9271 15.8559 20.9957 15.9656 21.1055 15.9656H21.1466C21.2152 15.9656 21.2838 15.897 21.325 15.7872C21.3662 15.7461 21.3662 15.6775 21.325 15.6089C21.3662 15.6089 21.3936 15.65 21.4348 15.65H21.5034L21.6132 15.6089L21.6543 15.4991C21.6955 15.3619 21.5857 15.1423 21.3662 14.9365C21.6818 14.7993 22.0797 14.6209 22.1483 14.4013C22.1894 14.3327 22.1483 14.2641 22.1071 14.1955C22.1758 14.1269 22.2169 14.0583 22.2444 13.9897C22.2444 13.921 22.2444 13.8524 22.2032 13.7838V13.7426C22.2718 13.674 22.313 13.5643 22.313 13.4956C22.313 13.427 22.2718 13.3173 22.2032 13.2898L22.0934 13.2486C22.2032 13.0016 22.162 12.933 22.1346 12.8919L22.0934 12.8233H21.9836C22.0248 12.7135 22.0248 12.5763 21.9836 12.439L21.9425 12.3704L21.8052 12.3293H21.7641C21.7641 12.2195 21.6955 12.1234 21.6269 12.0822L21.5857 12.0411H21.5446C21.5446 11.9313 21.5034 11.9039 21.4759 11.8627C21.4348 11.7941 21.3662 11.7529 21.2976 11.7529C21.1603 11.7529 21.1192 11.8627 21.0917 11.9588C21.0506 12.0685 20.982 12.2058 20.8859 12.3842C20.8859 11.9999 20.7075 11.849 20.5703 11.8215H20.5292C20.488 11.7118 20.4606 11.6431 20.392 11.5745C20.3234 11.5059 20.2136 11.4647 20.1861 11.4647H20.145C20.0078 11.2864 19.8294 11.2589 19.6922 11.3275H19.6235C19.3766 11.1903 19.1296 11.2178 19.0884 11.4373C19.0884 11.5471 19.157 11.6157 19.2256 11.6431C19.2668 11.6843 19.3628 11.7529 19.4315 11.8215C19.3628 11.8627 19.2531 11.8901 19.2256 11.9588C19.157 12.0685 19.0884 12.1646 19.1159 12.343C18.6219 12.7958 18.0593 13.3996 18.0181 13.7152V13.7564L18.0593 13.7975C18.1005 13.8661 18.1691 14.0034 18.3063 14.0034H18.3474L18.5258 13.8936L18.4847 13.7564C18.6219 13.6466 18.9786 13.3721 19.3354 13.1526C19.2256 13.2624 19.1296 13.3584 18.9786 13.4682C18.5258 13.8524 18.0593 14.2504 18.1004 14.9502V15.0188H17.9632V15.1972C17.9083 15.307 17.8672 16.295 17.8672 16.542ZM18.6493 16.4322C18.5807 16.5008 18.5396 16.5008 18.5396 16.5008C18.471 16.4597 18.4023 16.2538 18.3612 16.048C18.4709 16.1578 18.5395 16.295 18.6493 16.4322Z" fill="#3E4347"/>
<path d="M19.6381 17.0771L19.9262 17.2555V18.1749C19.542 18.5591 19.5009 18.7101 19.3911 18.8061C19.2539 18.6003 19.0069 18.6689 19.0069 18.6689C18.9658 18.4631 18.7188 18.2847 18.7188 18.2847C19.0755 18.2435 19.6793 18.0789 19.7067 17.9965C19.8439 17.777 19.6381 17.0771 19.6381 17.0771Z" fill="#FFCE31"/>
<path d="M18.1566 15.4852C18.1154 15.7733 18.2938 17.5298 18.9661 16.3634L19.5973 16.8299C19.5973 16.8299 19.1033 16.6241 18.6368 16.9672H18.527C18.4173 16.8574 18.2114 16.5829 18.0742 16.6104V15.3342C18.1565 15.3342 18.1566 15.4852 18.1566 15.4852Z" fill="#FFCE31"/>
<path d="M18.2249 13.8524L18.266 13.9621C18.1974 14.0033 18.1562 13.8524 18.1562 13.8524C18.2249 13.4956 19.3637 12.439 19.3637 12.439L19.8577 12.5487L19.8989 12.7546C19.4598 12.9055 18.2523 13.7837 18.2249 13.8524Z" fill="#FFCE31"/>
<path d="M18.2239 15.0872C18.1828 15.9654 19.7059 17.3788 19.7059 17.3788H19.994C19.994 17.3788 20.0626 16.926 20.241 16.7476C20.2822 16.7887 20.8036 17.2004 20.8722 17.2828C20.9134 17.2828 20.8722 17.173 20.8722 17.173C20.8722 17.173 21.078 17.3514 21.1878 17.3514C21.2564 17.3102 21.1878 17.2141 21.1878 17.2141C21.1878 17.2141 21.4759 17.42 21.572 17.3514C21.572 17.3102 21.3936 17.173 21.2838 17.1455C21.3524 17.1867 21.7778 17.2828 21.6406 17.1867C21.4622 17.0769 21.1466 16.7339 21.1466 16.7339C21.1466 16.7339 21.3524 16.775 21.2564 16.6241C21.1878 16.4869 20.7624 15.9928 20.7624 15.9928C20.831 15.8145 20.7212 15.54 20.6252 15.2793C20.9408 15.3891 21.1603 15.9517 21.2289 15.9517C21.3661 15.9105 21.2701 15.5263 21.0231 15.2793C21.2015 15.3891 21.4759 15.6635 21.5583 15.6361C21.6269 15.5949 21.4896 15.3205 21.1741 15.0049C21.1741 15.0049 22.2718 14.6206 22.0522 14.4011C22.0522 14.3599 21.3799 14.7167 21.668 14.5383C21.668 14.5383 22.2992 14.1541 22.162 13.9757C22.0934 13.9345 21.6955 14.2227 21.7366 14.1541C21.7366 14.1541 22.3678 13.6601 22.162 13.5229C22.0522 13.4817 21.6268 13.8385 21.8052 13.7012C21.8052 13.7012 22.1894 12.9603 22.011 13.0975C20.9819 13.8385 22.0522 13.0563 21.8738 12.6035C21.8052 12.5623 21.7641 13.0289 21.0643 13.4542C21.2015 13.317 21.8739 12.5349 21.5583 12.329C21.5171 12.2879 21.4896 12.5349 21.2701 12.823C21.3387 12.6172 21.4759 12.0409 21.3113 12.082C21.2701 12.082 21.2015 12.5074 20.8173 12.9328V12.727L20.7075 12.8367C20.7487 12.6584 20.7761 12.2055 20.5703 12.1644C20.5703 12.2055 20.5291 12.3428 20.5017 12.5486C20.5017 12.3016 20.3919 11.8076 20.2136 11.8076V12.0134C20.1038 11.8076 19.9254 11.5606 19.7882 11.6292C19.7882 11.6292 19.898 11.8076 19.9666 12.0546C19.7607 11.8487 19.2942 11.4508 19.253 11.6704C19.253 11.7115 19.6098 11.9174 19.7196 12.2055C19.6784 12.2055 19.1844 12.0957 19.253 12.6309H19.3903C19.3903 12.6309 19.3491 12.8779 19.5961 12.9191C19.9117 12.7133 19.7333 13.2073 19.7333 13.2073C19.1433 13.8248 18.1828 14.1678 18.2239 15.0872ZM19.8431 13.715C19.8842 13.962 19.8431 14.3462 19.8431 14.5246C19.6647 14.4834 19.5275 14.5246 19.4589 14.5246C19.4589 14.3874 19.4589 14.209 19.5 14.0992C19.5 14.0718 19.6784 13.9208 19.8431 13.715ZM20.488 15.7321L20.2822 15.5537V15.3479C20.3508 15.3754 20.4194 15.5812 20.488 15.7321Z" fill="white"/>
<path d="M16.9919 11.9861L16.5391 13.0839L16.8547 13.1936L16.7174 13.5779H17.28L17.1428 13.1936L17.431 13.0839L16.9919 11.9861Z" fill="#FFCE31"/>
<path d="M13.0661 11.9861L12.6133 13.0839L12.9289 13.1936L12.7917 13.5779H13.3268L13.217 13.1936L13.5052 13.0839L13.0661 11.9861Z" fill="#FFCE31"/>
<path d="M14.9996 11.9861L14.5742 13.0839L14.8624 13.1936L14.7252 13.5779H15.2877L15.1505 13.1936L15.4661 13.0839L14.9996 11.9861Z" fill="#FFCE31"/>
<path d="M14.6164 17.1731H13.2031V16.1165L13.6285 16.6516L13.9166 16.1165L14.1636 16.6516L14.6302 16.1165V17.1731H14.6164Z" fill="#FFCE31"/>
<path d="M16.8391 17.1731H15.4258V16.1165L15.8512 16.6516L16.1393 16.1165L16.3863 16.6516L16.8391 16.1165V17.1731Z" fill="#FFCE31"/>
<path d="M15.7141 18.4219H14.3008V17.3652L14.7536 17.9004L15.0006 17.3652L15.2887 17.9004L15.7141 17.3652V18.4219Z" fill="#FFCE31"/>
</svg>
