<svg width="30" height="31" viewBox="0 0 30 31" fill="none" xmlns="http://www.w3.org/2000/svg">
<path d="M15.0098 0.361816V5.36528H5.02277V15.3529H0.0195312C0.0195312 23.6533 6.70991 30.344 15.0098 30.344C23.3098 30.344 30.0002 23.6533 30.0002 15.3529C30.0002 7.05251 23.3098 0.361816 15.0098 0.361816Z" fill="#2A5F9E"/>
<path d="M15.0097 0.361816C12.6632 0.361816 10.4719 0.904823 8.45505 1.8551V4.86108H4.49902V8.81732H1.4932C0.542977 10.8148 0 13.0063 0 15.3723H5.99223V7.86706L11.9845 15.3723H14.9903V11.6294L10.8015 6.37377H14.9903V0.361816H15.0097Z" fill="white"/>
<path d="M6.71094 6.35449L14.0025 15.353H15.0109V12.9095L9.71676 6.35449H6.71094Z" fill="#ED4C5C"/>
<path d="M15.0088 1.85498H8.45415C5.44833 3.30949 2.96615 5.81125 1.51172 8.79783V15.3528H4.51754V4.86096H15.0088V1.85498Z" fill="#ED4C5C"/>
<path d="M27.9429 13.9565C27.9429 17.6607 27.3417 21.5975 22.5906 23.4981C17.8395 21.5975 17.2383 17.6607 17.2383 13.9565H27.9429Z" fill="#49C3F2"/>
<path d="M22.6134 23.4982C24.766 22.6449 26.0653 21.3456 26.8604 19.8523H26.4143C26.3174 19.8523 21.8183 19.4062 21.3141 19.2123C20.8681 19.0571 19.1228 19.3674 18.2695 19.6583C19.0064 21.2486 20.3057 22.5867 22.6134 23.4982Z" fill="#428BC1"/>
<path d="M19.2551 21.2486C19.3133 21.2486 20.5544 21.4425 20.7483 21.1516C20.9422 20.8607 20.1471 20.2014 20.2053 19.8523C20.2053 19.7553 20.3023 19.5614 20.3992 19.5032C20.5932 19.4062 21.2525 19.6583 21.2913 19.2123C21.3495 18.456 20.6901 17.8547 20.4962 17.1566C20.3411 16.7105 20.3411 16.3033 20.3023 15.8572C20.3023 15.6633 20.2441 15.5663 20.0502 15.5081C19.7981 15.4112 19.7981 15.2172 19.7011 14.9651C19.6041 14.9651 19.3521 15.159 19.3521 15.256C19.3521 15.7021 18.9448 15.7021 18.7509 16.0512C18.5958 15.8572 18.4988 15.5082 18.3436 15.2948C18.1497 15.1009 18.0915 15.1009 18.1497 14.7906C17.8588 14.5385 17.8589 14.9457 17.6455 15.0427C17.5874 15.1397 17.3934 15.2948 17.2383 15.5469C17.4128 17.6026 17.8589 19.6002 19.2551 21.2486Z" fill="#C94747"/>
<path d="M27.9459 13.9568C27.9459 12.5604 27.8878 11.2029 27.8878 10.0587C26.0843 9.26357 23.7378 9.1084 22.5355 9.1084C21.3331 9.1084 18.9866 9.26357 17.1831 10.0587C17.2413 11.2611 17.125 12.5992 17.125 13.9568H27.9459Z" fill="#FFE62E"/>
<path d="M23.7951 19.2898C23.097 19.2898 22.4376 19.2898 21.9528 19.2317C21.5068 19.1735 21.3517 19.0765 21.0026 18.8826C20.4984 18.5917 20.4014 18.5335 19.7033 18.1262C19.6063 18.0681 19.5094 18.1262 19.6451 18.2232C20.3433 18.6693 20.5953 18.8244 20.8862 19.0765C21.2353 19.2705 22.2437 19.9298 22.2437 19.9298H26.2967L26.9366 18.5723C26.9366 18.4753 26.8785 18.3784 26.8785 18.3202C26.1222 18.3784 25.4241 18.3784 24.8811 18.3784C24.8229 18.4365 24.7841 18.5335 24.7259 18.6305C24.435 18.6887 24.2217 18.7275 24.1247 18.7275C24.2023 18.805 23.9114 19.1929 23.7951 19.2898Z" fill="#3E4347"/>
<path d="M21.3512 10.0004C21.1573 10.0004 20.8082 10.0004 20.7113 10.0586C20.6143 10.1167 20.6143 10.1167 20.7694 10.1555C20.9245 10.2137 21.1767 10.2525 21.2736 10.3495C21.4288 10.4464 21.5257 10.6015 21.4675 10.7955C21.3706 11.3967 21.6615 11.9979 22.1657 12.25C22.2239 12.25 22.2238 12.3082 22.2238 12.3469C22.2238 12.4439 22.1657 12.5409 22.1657 12.5991C22.1075 12.6573 22.1075 12.696 22.2238 12.6573C22.1657 12.7542 22.0299 12.9482 22.0299 13.0064C21.6227 12.9482 21.3318 13.0063 21.3318 13.4136C21.3318 13.4718 21.3318 13.5106 21.39 13.4136C21.4482 13.3166 21.487 13.2197 21.6809 13.2197C21.5257 13.3748 21.487 13.4718 21.5257 13.5687C21.5257 13.6657 21.5839 13.7239 21.6227 13.6269C21.6615 13.53 21.7197 13.433 21.8166 13.3748C21.8748 13.3748 21.8748 13.3166 21.8748 13.433C21.8748 13.53 21.8748 13.6269 21.9329 13.6851C21.9911 13.7433 21.9911 13.7433 21.9911 13.6269C21.9911 13.5106 21.9911 13.3748 22.0881 13.336C22.2432 13.2779 22.3402 13.2779 22.379 13.3942C22.4178 13.5106 22.476 13.3942 22.4372 13.2973C22.379 13.2003 22.282 13.1033 22.1851 13.1033C22.282 12.9482 22.379 12.7542 22.379 12.696C22.379 12.6379 22.4372 12.6379 22.4759 12.6379C22.5341 12.6379 22.5341 12.6379 22.5729 12.5797C22.6311 12.5215 22.6699 12.3276 22.7281 12.2306C22.7862 12.2306 22.825 12.2306 22.825 12.1724C22.922 12.3276 23.0189 12.4633 23.0189 12.5215C23.0189 12.5797 23.0771 12.5797 23.0771 12.6185C23.0771 12.6767 22.9802 12.9094 22.9802 12.9676C22.6893 12.9676 22.5729 12.9675 22.4759 13.1227C22.4178 13.1809 22.4759 13.2197 22.5729 13.1809C22.6311 13.1227 22.728 13.1227 22.7668 13.1227C22.825 13.1227 22.825 13.1809 22.7668 13.1809C22.6117 13.2778 22.4759 13.3748 22.5147 13.53C22.5147 13.5881 22.5729 13.6269 22.5729 13.53C22.6311 13.433 22.728 13.336 22.8638 13.2778C22.8638 13.3748 22.8638 13.5688 22.9608 13.6269C23.0577 13.6851 23.0577 13.6269 23.0189 13.5687C22.9608 13.4718 23.0189 13.3166 23.0771 13.2778C23.1741 13.1227 23.4844 13.336 23.5232 13.3748C23.5813 13.433 23.6201 13.433 23.5813 13.3166C23.5231 13.1615 23.3292 13.0645 23.1353 13.0257C23.1935 12.7736 23.3292 12.2306 23.3874 12.0755C23.4843 12.1336 23.5813 11.9785 23.7946 12.0173C24.0855 12.1142 24.5897 12.4246 24.6479 12.5215C24.7061 12.6185 24.7449 12.5797 24.803 12.5215C24.8612 12.4633 24.9 12.5215 24.9582 12.5215C25.0164 12.5215 25.0551 12.5797 25.0164 12.4246C24.9582 12.2694 24.7643 12.0173 24.4734 11.8233C24.6285 11.8233 24.8806 11.8233 24.8806 11.7651C24.8806 11.707 24.6285 11.61 24.4734 11.61C24.5703 11.5519 24.7255 11.5131 24.8224 11.4549C24.8806 11.3967 24.8224 11.3967 24.6673 11.3967C24.1631 11.3967 23.911 11.3967 23.6589 11.2415C23.2517 10.9894 22.9995 10.7373 22.8056 10.6404C22.7086 10.5822 22.6505 10.4464 22.6117 10.3495C22.4565 10.0004 22.4566 9.84523 22.1657 9.70947C21.8942 9.70947 21.5063 9.84523 21.3512 10.0004Z" fill="#C94747"/>
</svg>
