<svg width="30" height="31" viewBox="0 0 30 31" fill="none" xmlns="http://www.w3.org/2000/svg">
<path d="M1.99136 22.8437C2.94193 24.5509 4.18348 25.9477 5.63843 27.0923L29.8292 13.1436C29.5383 11.3393 28.9369 9.53509 27.9863 7.84727C27.0358 6.15945 25.7942 4.74325 24.3393 3.59863L0.148438 17.5474C0.458825 19.4098 1.0408 21.1559 1.99136 22.8437Z" fill="#3E4347"/>
<path d="M8.55067 28.8967L29.948 16.5581C30.045 15.4135 30.0062 14.3077 29.851 13.1631L5.66016 27.1119C6.55252 27.7909 7.54191 28.3923 8.55067 28.8967Z" fill="#FFE62E"/>
<path d="M0.149878 17.5474L24.3407 3.59867C23.4483 2.90026 22.4978 2.29884 21.4502 1.79443L0.0528816 14.133C-0.0441145 15.297 -0.00531611 16.4416 0.149878 17.5474Z" fill="#FFE62E"/>
<path d="M21.452 1.79445C17.1454 -0.261977 11.9464 -0.203767 7.50397 2.33767C3.06155 4.8791 0.462071 9.37997 0.0546875 14.133L21.452 1.79445Z" fill="#699635"/>
<path d="M8.55078 28.8966C12.8574 30.9531 18.0564 30.8949 22.4988 28.3534C26.9412 25.812 29.5407 21.3112 29.9481 16.5581L8.55078 28.8966Z" fill="#ED4C5C"/>
<path d="M10.0062 19.4098L12.3147 19.7008L10.5687 18.11L11.4611 15.9566L9.46298 17.1012L7.71705 15.4521L8.26023 17.7996L6.32031 18.9054L8.57059 19.2546L9.11378 21.5632L10.0062 19.4098Z" fill="white"/>
<path d="M21.0024 13.0467L23.3109 13.3377L21.5649 11.6886L22.4573 9.5934L20.5174 10.6992L18.7715 9.1084L19.2759 11.4171L17.3359 12.5617L19.6444 12.8527L20.1876 15.1613L21.0024 13.0467Z" fill="white"/>
</svg>
