<svg width="30" height="31" viewBox="0 0 30 31" fill="none" xmlns="http://www.w3.org/2000/svg">
<path d="M0 15.3955C0 21.9547 4.19147 27.5048 9.99354 29.5425V1.24854C4.19147 3.28616 0 8.83625 0 15.3955Z" fill="#428BC1"/>
<path d="M30.0014 15.3955C30.0014 8.83625 25.8487 3.28616 20.0078 1.24854V29.5425C25.8487 27.4854 30.0014 21.9353 30.0014 15.3955Z" fill="#ED4C5C"/>
<path d="M9.99219 29.5423C11.5446 30.0857 13.2328 30.3961 14.9986 30.3961C16.7645 30.3961 18.4527 30.1051 20.0051 29.5423V1.24838C18.4527 0.705008 16.7645 0.394531 14.9986 0.394531C13.2328 0.394531 11.5446 0.685602 9.99219 1.24838V29.5423Z" fill="#F9F9F9"/>
</svg>
