<svg width="30" height="31" viewBox="0 0 30 31" fill="none" xmlns="http://www.w3.org/2000/svg">
<path d="M11.9069 4.09439H6.70978V2.9502C6.30254 3.20231 5.95345 3.49319 5.5656 3.80349C4.71234 4.50165 3.91727 5.2968 3.25793 6.15011H4.65417V10.2033H0.950255C0.349091 11.8518 0 13.5972 0 15.4589C0 17.2044 0.290914 18.9109 0.853293 20.4624H11.8488V10.2615H6.70978V6.16947H11.9069V4.09439Z" fill="white"/>
<path d="M15.009 0.448242C13.9618 0.448242 12.9147 0.545209 11.9062 0.739143V30.0814C12.9147 30.2753 13.9618 30.3723 15.009 30.3723C23.309 30.3723 29.9993 23.6816 29.9993 15.3812C29.9993 7.13897 23.2896 0.448242 15.009 0.448242Z" fill="#0091C8"/>
<path d="M29.748 15.5945C29.748 15.4975 29.9031 15.2454 30.0001 14.9933V14.5472C29.9031 14.7412 29.8062 14.8963 29.8062 14.9933C29.7092 15.2842 29.6122 15.0903 29.6122 14.1982C29.5541 13.5 29.6122 12.8018 29.7092 12.1425C29.3601 10.494 28.7008 8.94255 27.8088 7.54623C27.6149 7.60441 27.4597 7.64319 27.4597 7.64319C27.4597 7.64319 27.5567 7.48804 27.6536 7.2941C27.5955 7.23592 27.5567 7.13896 27.4985 7.10017C27.2076 7.50743 26.8973 7.85649 26.8585 7.85649C26.7616 7.91467 26.4125 8.01164 26.0053 8.14739L25.3071 8.4383L25.8501 7.9341C26.141 7.68198 26.7034 7.13894 27.0912 6.78986L27.1882 6.69289C27.13 6.63471 27.0912 6.59596 27.0912 6.53778L26.3349 7.23591C25.5399 7.99226 24.7448 8.69041 24.6284 8.7292C24.512 8.76798 24.3763 8.88435 24.3763 8.98132C24.3181 9.13647 24.3763 9.33042 24.5314 9.3886C24.6284 9.44678 24.5896 9.54376 24.2793 9.93163C23.8721 10.4746 23.523 11.134 23.2709 11.774L23.077 12.2782L22.98 11.8321C22.8249 11.2891 22.6892 10.4746 22.6892 9.93163C22.6892 9.4274 22.6892 9.42737 23.0382 8.98132C23.4455 8.43831 24.3957 7.42985 24.8805 7.04198C25.0744 6.88683 25.4235 6.63475 25.6756 6.53778C26.1798 6.28566 26.3155 6.18868 26.3155 6.03353C26.3155 5.8396 26.1604 5.74262 25.9083 5.78141C25.7532 5.83959 25.2102 5.72322 24.26 5.52928C23.4649 5.37414 22.8055 5.23838 22.7668 5.23838C22.7668 5.23838 22.8249 4.94751 22.9219 4.63721C23.0188 4.22995 23.1158 3.9972 23.2127 3.88084C23.4067 3.68691 23.4067 3.43482 23.2127 3.27968C22.9219 2.98877 22.4177 3.22147 22.4565 3.68691L22.5147 3.88084L22.1074 3.93903C21.8553 3.99721 21.3123 4.09419 20.9051 4.19116C20.013 4.44327 19.3537 4.48206 18.9076 4.28812C18.7525 4.22994 18.6555 4.19116 18.6555 4.19116V4.34631C18.6555 4.59843 18.8107 4.85055 19.1016 4.98631L19.3537 5.14142L19.1598 5.1996C19.0628 5.25778 18.7525 5.25778 18.5198 5.1996C18.2677 5.14142 18.0738 5.1996 18.0738 5.1996C18.0738 5.35475 18.3647 5.70385 18.578 5.80082C19.024 6.05293 19.9354 5.95597 20.9826 5.60689C21.4868 5.41295 22.185 5.35477 22.1268 5.50992C22.1268 5.60689 21.2347 6.26626 19.6833 7.35229C18.8883 7.89531 18.7913 8.05044 18.8883 8.30255C18.9465 8.4577 18.9465 8.4965 18.7331 8.8068C18.3259 9.50496 17.938 10.7073 17.938 11.3085C17.938 11.5994 17.938 11.6576 17.492 12.1037C16.6387 12.9958 14.9516 15.1097 14.6026 15.7497L14.5056 15.9048L14.4086 15.7497C14.1565 15.4587 13.6523 15.5945 13.6523 16.0017C13.6523 16.2538 13.8074 16.409 14.0983 16.409C14.2535 16.409 14.6026 16.5642 15.1455 16.8163L15.9988 17.2235L15.8049 17.4756C15.514 17.8247 15.4558 18.0769 15.6109 18.2708C15.7079 18.3678 15.7661 18.3678 16.1539 18.3678C16.5418 18.3678 16.6581 18.4259 17.1041 18.6198C17.5502 18.8138 17.7053 18.969 18.3453 19.6283C20.2457 21.5677 20.75 22.0719 21.7971 22.7313C22.088 22.8864 22.3401 22.9834 22.4565 22.9834C22.5534 22.9252 22.7474 22.7895 22.9607 22.5761C23.8139 21.5677 24.5121 21.8198 26.1022 22.7313C26.8973 23.1773 27.2076 23.2743 27.3046 23.2743V23.1773C27.4985 22.2852 27.8088 21.9749 28.5069 21.8779C28.9141 21.0246 29.2632 20.1326 29.5153 19.1823H28.3711L27.7118 19.1241L27.77 18.9302C27.8281 18.6393 28.0221 18.2902 28.313 17.9799C28.4681 17.8247 28.5651 17.689 28.6038 17.689C28.6038 17.689 28.7978 17.7859 29.0499 17.9411C29.2438 18.0962 29.4959 18.232 29.7092 18.3483C29.8062 17.8053 29.9031 17.2041 29.9613 16.6417C29.7868 16.1957 29.6898 15.7496 29.748 15.5945ZM22.3983 6.59592C22.5534 5.99473 22.6892 5.45173 22.7473 5.45173C22.8055 5.45173 23.2903 5.54871 23.8915 5.70385C25.2489 5.95597 25.249 5.99476 24.9969 6.05294C24.8999 6.11112 24.2405 6.24685 23.6006 6.46018L22.3595 6.80927L22.3983 6.59592ZM17.046 17.049H16.8521C16.6 16.9908 14.6995 16.1569 14.6995 16.0406C14.6995 15.7884 16.503 13.5 17.5502 12.3946L17.9574 11.9873V12.1812C17.9574 12.2782 18.0156 12.5885 18.0544 12.7824L18.1514 13.1897L17.6084 15.129L17.046 17.049ZM19.0434 18.038C18.9852 18.038 18.6362 17.8829 18.2871 17.6308C17.938 17.4369 17.5308 17.2235 17.4339 17.1847L17.2399 17.1266L17.7441 15.3811C17.9962 14.4309 18.2483 13.6357 18.2483 13.6357C18.3065 13.6357 18.3453 13.7909 18.4423 13.9848C18.5392 14.2369 18.5974 14.4309 18.5974 14.9933V15.6333H19.0046V16.1763C19.0046 16.4672 19.0628 16.9714 19.1598 17.2235C19.2567 17.7471 19.2567 18.038 19.0434 18.038ZM19.8385 13.3836L19.6446 13.9848H19.1985C18.9464 13.9848 18.7525 13.9848 18.6944 13.9266C18.5974 13.8297 18.6943 13.3837 18.8495 13.1315C19.0046 12.8794 19.4506 12.6273 19.7415 12.6273C19.8385 12.6273 19.9355 12.6273 19.9355 12.6855C20.0518 12.7437 19.9548 13.0345 19.8385 13.3836ZM21.0408 14.043H20.4397L20.4978 13.8491C20.556 13.7521 20.5948 13.5582 20.653 13.3448L20.7499 12.9957L20.9438 13.1509C21.099 13.2479 21.2347 13.4418 21.3899 13.597C21.4868 13.7521 21.5838 13.8879 21.5838 13.9461C21.6032 13.9848 21.3511 14.043 21.0408 14.043ZM21.196 7.10017C20.9439 7.15835 20.4979 7.29411 20.2458 7.35229C19.9937 7.41047 19.8385 7.44926 19.8385 7.44926C19.8967 7.39108 21.9329 5.89779 21.9911 5.89779V5.99475C21.9911 6.05293 21.8941 6.28566 21.8359 6.53778L21.6808 6.94501L21.196 7.10017ZM23.6006 17.9799C23.0576 17.5726 22.4952 16.8745 22.2044 16.1375C22.0104 15.6915 22.0104 15.6333 22.1462 15.6333C22.2431 15.6333 22.2431 15.4781 22.2431 14.8381V14.043H22.0492C21.8941 14.043 21.8553 13.9848 21.7971 13.7909C21.739 13.6357 21.7002 13.1897 21.7002 12.6467C21.7002 11.6964 21.7971 11.2891 22.2044 10.397C22.3983 9.89282 22.4952 9.95101 22.4952 10.4552C22.4952 10.8043 22.6504 11.5607 22.8443 12.1037C22.9995 12.5109 22.9995 12.6079 22.9413 12.86C22.8831 13.0152 22.8443 13.403 22.7861 13.8103C22.6892 15.0127 22.8831 16.1569 23.3873 17.2623C23.5424 17.5532 23.6782 17.9023 23.6782 18.0187L23.7364 18.1738L23.6006 17.9799ZM25.2489 16.6805C25.2489 16.7387 25.0938 17.1266 24.9581 17.5726C24.8223 18.0187 24.6672 18.4259 24.6672 18.4647C24.6672 18.5229 24.512 18.4647 24.3763 18.4065C24.1824 18.3096 24.1242 18.2514 24.0273 17.9605C23.9303 17.6696 23.9303 17.6114 24.1242 17.3593C24.3182 17.0102 24.6284 16.7581 24.9775 16.7193C25.249 16.5836 25.2489 16.5835 25.2489 16.6805ZM26.9943 19.1435C26.8003 19.1435 26.3931 19.0465 26.0441 18.9883L25.4041 18.8332L25.5592 18.3289C25.6562 18.0768 25.8113 17.5726 25.8501 17.2817C26.0053 16.7387 26.0441 16.6805 26.2962 16.7775C26.3931 16.8356 26.4513 16.9326 26.5483 17.3205C26.6452 17.6696 26.8003 18.0768 26.9943 18.5229L27.3433 19.1629L26.9943 19.1435ZM28.0997 17.9799C27.9445 18.1738 27.7506 18.4259 27.6924 18.5811C27.6342 18.7362 27.5954 18.872 27.5373 18.9302C27.4403 19.0853 26.684 17.3787 26.684 17.0296C26.684 16.8744 26.9361 16.9714 27.6924 17.3205L28.3517 17.6114L28.0997 17.9799Z" fill="#FFCE31"/>
<path d="M27.2842 23.2357V23.3326C27.1873 23.3326 26.877 23.2357 26.0819 22.7896C24.4918 21.8393 23.7742 21.5873 22.9404 22.6345C22.7464 22.8284 22.5331 22.9836 22.4362 23.0417C22.3392 22.9836 22.0871 22.9448 21.7768 22.7896C21.6799 22.7314 21.5247 22.6927 21.4278 22.6345C20.4775 22.1303 19.7794 21.9945 19.2364 22.1303C18.8873 22.2272 18.6353 22.4212 18.4801 22.7702C18.3832 22.9642 18.2862 23.1193 18.1892 23.1193C17.9371 23.1775 17.0839 22.6733 16.793 22.4793C15.6488 21.7812 14.9507 21.723 13.9035 22.4212C13.7096 22.5763 13.4963 22.6733 13.3993 22.6733C13.3412 22.6733 13.1472 22.6151 12.9533 22.5763C12.7012 22.4793 12.5073 22.3824 12.4491 22.3242C12.3521 22.1303 12.1582 22.0333 11.9449 22.0721L11.8867 22.1303V22.9254C12.0419 23.0806 12.2939 23.2163 12.643 23.3326C13.4381 23.6235 13.6514 23.5847 14.3883 23.0805C15.0864 22.6345 15.4355 22.5763 16.2888 23.1387C17.239 23.7399 17.8402 24.0308 18.3832 23.8951C18.8292 23.7981 19.0813 23.3908 19.2364 23.0999C19.3334 22.9448 19.3916 22.906 19.4885 22.906C19.6437 22.8478 20.0315 22.8478 20.9817 23.3133C21.0787 23.3715 22.0289 23.8563 22.4362 23.8563C22.6883 23.8563 22.9792 23.6624 23.1925 23.5072C23.3864 23.3521 23.5415 23.2163 23.5997 23.1581C24.0069 22.7121 24.1039 22.6151 25.6553 23.5072C26.2953 23.9145 26.7995 24.1084 27.2067 24.1472C27.3618 23.9532 27.4976 23.7399 27.6527 23.5072L27.7497 23.3521C27.9436 23.0611 28.1569 22.7121 28.2927 22.3436L28.3508 22.2466C28.409 22.0915 28.506 21.9945 28.5448 21.8394C27.7884 22.0333 27.4976 22.3436 27.2842 23.2357Z" fill="#3E4347"/>
<path d="M11.75 16.4476L11.9051 16.5446V16.2925L11.75 16.4476Z" fill="#3E4347"/>
<path d="M10.5508 16.4478L11.1907 16.603L11.3458 16.4478L11.1907 16.2539L10.5508 16.4478Z" fill="#3E4347"/>
<path d="M11.4023 16.0989L11.5575 16.2541L11.7514 16.0989L11.5575 15.459L11.4023 16.0989Z" fill="#3E4347"/>
<path d="M11.9067 18.038V17.1847L11.6158 16.5835H11.5189L10.8789 18.038H11.2861L11.5382 18.3871H11.6352L11.8873 18.038H11.9067Z" fill="#3E4347"/>
<path d="M7.75781 16.4478L7.91296 16.603L8.55292 16.4478L7.91296 16.2539L7.75781 16.4478Z" fill="#3E4347"/>
<path d="M6.49609 16.4478L7.13605 16.603L7.2912 16.4478L7.13605 16.2539L6.49609 16.4478Z" fill="#3E4347"/>
<path d="M7.35156 16.0989L7.50666 16.2541L7.70059 16.0989L7.50666 15.459L7.35156 16.0989Z" fill="#3E4347"/>
<path d="M7.44855 16.5835L6.80859 18.038H7.25463L7.44855 18.3871H7.54551L7.79758 18.038H8.20484L7.56488 16.5835H7.44855Z" fill="#3E4347"/>
<path d="M3.70312 16.4478L3.85827 16.603L4.49818 16.4478L3.85827 16.2539L3.70312 16.4478Z" fill="#3E4347"/>
<path d="M3.25604 16.4478L3.1009 16.2539L2.46094 16.4478L3.1009 16.603L3.25604 16.4478Z" fill="#3E4347"/>
<path d="M3.31641 16.0989L3.51033 16.2541L3.66548 16.0989L3.51033 15.459L3.31641 16.0989Z" fill="#3E4347"/>
<path d="M3.41368 16.5835L2.8125 18.038H3.21976L3.41368 18.3871H3.56883L3.76275 18.038H4.20874L3.54942 16.5835H3.41368Z" fill="#3E4347"/>
<path d="M11.4993 11.289H11.5963L11.8484 10.9399H11.9066V10.2417H11.2084L10.8594 10.9399H11.2666L11.4993 11.289Z" fill="#3E4347"/>
<path d="M7.44855 11.289H7.54551L7.79758 10.9399H8.20484L7.91395 10.2417H7.15767L6.80859 10.9399H7.25463L7.44855 11.289Z" fill="#3E4347"/>
<path d="M3.41368 11.289H3.56883L3.76275 10.9399H4.20874L3.85972 10.2417H3.10339L2.8125 10.9399H3.21976L3.41368 11.289Z" fill="#3E4347"/>
<path d="M2.46303 12.9376L1.82312 12.7437L1.66797 12.9376L1.82312 13.0927L2.46303 12.9376Z" fill="#3E4347"/>
<path d="M1.2599 12.9376L1.10475 12.7437L0.464844 12.9376L1.10475 13.0927L1.2599 12.9376Z" fill="#3E4347"/>
<path d="M1.66938 12.5887L1.47546 11.9487L1.32031 12.5887L1.47546 12.7439L1.66938 12.5887Z" fill="#3E4347"/>
<path d="M1.4173 13.0928L0.777344 14.5473H1.1846L1.43671 14.8964H1.53367L1.7276 14.5473H2.17359L1.53367 13.0928H1.4173Z" fill="#3E4347"/>
<path d="M6.49806 12.9376L5.83874 12.7437L5.68359 12.9376L5.83874 13.0927L6.49806 12.9376Z" fill="#3E4347"/>
<path d="M5.31452 12.9376L5.15937 12.7437L4.5 12.9376L5.15937 13.0927L5.31452 12.9376Z" fill="#3E4347"/>
<path d="M5.66181 12.5887L5.50671 11.9487L5.35156 12.5887L5.50671 12.7439L5.66181 12.5887Z" fill="#3E4347"/>
<path d="M5.44855 13.0928L4.80859 14.5473H5.21585L5.46792 14.8964H5.56488L5.7588 14.5473H6.20484L5.56488 13.0928H5.44855Z" fill="#3E4347"/>
<path d="M10.549 12.9376L9.90905 12.7437L9.75391 12.9376L9.90905 13.0927L10.549 12.9376Z" fill="#3E4347"/>
<path d="M9.34572 12.9376L9.19062 12.7437L8.53125 12.9376L9.19062 13.0927L9.34572 12.9376Z" fill="#3E4347"/>
<path d="M9.69673 12.5887L9.54158 11.9487L9.34766 12.5887L9.54158 12.7439L9.69673 12.5887Z" fill="#3E4347"/>
<path d="M9.50324 13.0928L8.86328 14.5473H9.27054L9.52265 14.8964H9.61961L9.81354 14.5473H10.2596L9.61961 13.0928H9.50324Z" fill="#3E4347"/>
<path d="M5.70312 20.191L5.85823 20.3462L6.5176 20.191L5.85823 19.9971L5.70312 20.191Z" fill="#3E4347"/>
<path d="M4.5 20.191L5.15937 20.3462L5.31452 20.191L5.15937 19.9971L4.5 20.191Z" fill="#3E4347"/>
<path d="M5.35156 19.8417L5.50671 19.9968L5.66181 19.8417L5.50671 19.2017L5.35156 19.8417Z" fill="#3E4347"/>
<path d="M9.75391 20.191L9.90905 20.3462L10.549 20.191L9.90905 19.9971L9.75391 20.191Z" fill="#3E4347"/>
<path d="M8.55078 20.191L9.2101 20.3462L9.36525 20.191L9.2101 19.9971L8.55078 20.191Z" fill="#3E4347"/>
<path d="M9.34766 19.8417L9.54158 19.9968L9.69673 19.8417L9.54158 19.2017L9.34766 19.8417Z" fill="#3E4347"/>
<path d="M10.3567 10.2418L6.71094 7.23584V10.2418H11.9081H11.21H10.3567Z" fill="#ED4C5C"/>
<path d="M8.45703 4.09439H11.9089V1.30176L8.45703 4.09439Z" fill="#ED4C5C"/>
<path d="M8.45703 6.1499L11.9089 8.94254V9.64072V6.1499H8.45703Z" fill="#ED4C5C"/>
<path d="M0.949219 10.2034V10.2616H4.59495V7.2168L0.949219 10.2034Z" fill="#ED4C5C"/>
<path d="M11.9081 9.64072V8.94253L8.45625 6.1499H6.71094V7.25532L10.3567 10.2613H11.9081V10.1061V9.64072Z" fill="#699635"/>
<path d="M11.9081 0.991382V0.739258C10.1628 1.08834 8.45625 1.78651 7.00182 2.73679C6.90486 2.79497 6.8079 2.83376 6.71094 2.93072V4.07492H8.45625L11.9081 1.28228V0.991382Z" fill="#699635"/>
<path d="M3.25689 6.1499C2.30667 7.35229 1.5116 8.69042 0.949219 10.2031L4.59495 7.19713V6.1499H3.25689Z" fill="#699635"/>
<path d="M25.6358 23.5459C24.0844 22.6538 23.9875 22.7507 23.5802 23.1968C23.522 23.2549 23.3863 23.3907 23.173 23.5459C22.979 23.7398 22.6688 23.8949 22.4167 23.8949C22.0094 23.8949 21.0592 23.3907 20.9622 23.3519C20.012 22.8477 19.6048 22.9059 19.469 22.9446C19.4109 22.9446 19.3139 23.0028 19.2169 23.1386C19.0618 23.4295 18.8097 23.8368 18.3636 23.9337C17.8206 24.0889 17.2195 23.7785 16.2693 23.1773C15.3772 22.6343 15.0282 22.6732 14.3688 23.1192C13.6125 23.6234 13.4186 23.6234 12.6235 23.3713C12.2745 23.2743 12.0223 23.1192 11.8672 22.9641V23.2162C12.0223 23.4101 12.3132 23.6234 12.7593 23.7592C13.5543 24.0501 13.7677 24.0113 14.5046 23.5071C15.2027 23.061 15.5518 23.0028 16.405 23.5652C17.3553 24.1664 17.9564 24.4573 18.4994 24.3216C18.9454 24.2246 19.1975 23.8173 19.3527 23.5264C19.4496 23.3713 19.5078 23.3325 19.6048 23.3325C19.7599 23.2743 20.1478 23.2743 21.098 23.7398C21.1949 23.798 22.1452 24.2828 22.5524 24.2828C22.9015 24.2828 23.3087 23.9337 23.5608 23.6816L23.7159 23.5264C24.1232 23.0804 24.2202 22.9834 25.7716 23.8755C26.2176 24.1276 26.6248 24.3216 26.9157 24.4767C27.0127 24.3798 27.0708 24.2828 27.1678 24.1858C26.7993 24.1277 26.2951 23.8949 25.6358 23.5459Z" fill="white"/>
<path d="M15.357 25.2912C15.7642 25.2331 16.0551 25.2912 16.5981 25.6403C17.7035 26.2415 18.1495 26.2803 18.8476 25.8343C19.7009 25.33 20.0499 25.2331 20.7481 25.3882C21.2523 25.4852 21.2911 25.4852 21.0971 25.2912C20.6511 24.884 19.7978 24.884 19.0415 25.2912C18.1495 25.7373 17.7423 25.7373 16.7339 25.2912C15.8418 24.884 15.5315 24.8452 15.0855 25.1361C14.7946 25.33 14.8528 25.33 15.357 25.2912Z" fill="white"/>
<path d="M23.951 25.6789C23.2529 25.5237 23.1559 25.6207 23.7958 25.9698C24.3 26.2219 24.8042 26.2607 25.5993 26.0667C25.7933 25.8728 26.0066 25.6207 26.2005 25.4268C25.1921 25.7371 24.494 25.834 23.951 25.6789Z" fill="white"/>
<path d="M22.6883 27.3859C21.932 27.9871 21.4859 27.987 20.6908 27.444C19.9927 26.9398 19.4885 26.9398 18.5965 27.3859C18.0535 27.638 17.9565 27.7349 18.1505 27.7931C18.3056 27.8513 18.5965 27.7931 18.9067 27.6961C19.6049 27.4052 19.9539 27.4052 20.8072 27.9483C21.2532 28.2004 21.6605 28.4525 21.7574 28.4525C21.8544 28.4525 22.1647 28.2586 22.5137 28.0452C23.2119 27.5992 23.5609 27.4052 24.0069 27.444C24.1621 27.347 24.2591 27.2501 24.4142 27.1531C23.5997 26.7846 23.3476 26.8429 22.6883 27.3859Z" fill="white"/>
<path d="M19.8013 29.034C19.2001 28.588 18.5989 28.588 17.7069 29.034C16.8536 29.4413 16.6015 29.4413 15.5543 28.6849C14.701 28.0837 14.6623 28.0837 14.1581 28.2776C13.9641 28.3746 13.7509 28.5298 13.6539 28.6849C13.46 28.937 13.4988 28.937 13.7509 28.8401C14.1581 28.6461 14.798 28.6461 14.9532 28.8401C15.0113 28.937 15.3604 29.1891 15.7095 29.3831C16.5045 29.8873 17.2027 29.9261 18.0172 29.4412C18.6571 29.0922 19.0644 29.034 19.9564 29.3443C20.2085 29.3831 20.1503 29.3249 19.8013 29.034Z" fill="white"/>
<path d="M9.30709 29.1893C9.15195 29.1311 9.21013 28.9954 9.30709 28.9954C9.46223 28.9372 9.598 29.0924 10.0052 29.0924C10.1022 29.0924 10.1992 29.0924 10.1992 28.8984C10.1992 28.6463 10.0052 28.4524 9.30709 28.5494C8.76411 28.6463 8.2987 28.6463 8.00781 28.6075V28.8596C8.41505 29.0536 8.7641 29.2669 9.15194 29.4027C9.21012 29.2281 9.24892 29.1893 9.30709 29.1893Z" fill="#ED4C5C"/>
<path d="M0.851562 20.4429C1.20063 21.335 1.60785 22.2464 2.09266 23.0998C2.34476 23.3519 3.68281 24.8452 3.33375 24.9421C4.18701 25.9506 5.13728 26.8427 6.18447 27.6378C6.28143 27.6378 9.8302 29.4414 9.73323 29.5384C10.4314 29.7905 11.1295 29.9844 11.8858 30.1396V20.4429H0.851562Z" fill="#ED4C5C"/>
<path d="M10.7426 23.7396C10.6845 23.6426 10.6457 23.5844 10.4905 23.6426C10.0833 23.7396 8.99733 23.7008 8.64826 23.4874C9.19125 23.6814 9.85058 23.2935 9.85058 22.9444C9.85058 22.5371 9.34639 22.2463 8.26042 22.4402C7.21323 22.6341 5.91392 22.5372 5.91392 22.2463C5.91392 21.9554 6.86414 21.8972 7.31016 21.9554C7.81436 22.0135 8.10526 22.0523 9.0167 21.8002C8.82278 21.8584 8.06648 21.8972 7.5235 21.742C6.98051 21.5869 5.58426 21.5869 5.58426 22.2463C5.58426 22.9056 7.03868 22.8474 8.33797 22.6923C9.09427 22.5953 9.48214 22.6341 9.48214 22.8862C9.48214 23.0801 8.78398 23.1771 8.27978 23.1383C7.77558 23.0802 7.23263 23.0802 6.57329 23.2353C5.46792 23.5262 4.1686 23.3323 3.87772 22.8281C3.87772 22.7699 3.93591 22.7311 3.93591 22.6341C4.03287 22.576 4.09104 22.4402 4.12983 22.3432C4.18801 22.0911 4.07164 22.0911 3.78076 22.1881C3.6838 22.0911 3.4899 22.0329 3.17962 22.0329C2.88874 22.0329 2.73358 22.0911 2.57844 22.1881C2.28755 22.0911 2.17119 22.0911 2.22937 22.3432C2.28754 22.4402 2.32633 22.5954 2.42329 22.6341C2.42329 22.9832 2.86933 23.5262 2.86933 23.5262C2.61722 23.5262 2.32632 23.3323 2.07422 23.0801C2.32632 23.4874 2.52027 23.8365 2.83055 24.1856C2.92751 24.2826 2.98569 24.3407 3.02447 24.4377C3.12144 24.5928 3.27658 24.7286 3.37355 24.8837C3.72261 24.8256 4.01348 24.6898 4.38194 24.4377C4.57586 24.4377 5.93334 24.3795 6.47633 24.1468C6.82539 24.4959 6.88354 24.4377 7.17442 24.4959C7.46531 24.5541 7.67863 24.5541 7.46531 24.6898C7.40713 24.748 7.0581 24.748 6.86417 24.748C6.32119 24.748 6.06906 24.4571 5.91392 24.5928C5.81696 24.748 5.91392 24.7868 6.10784 24.7868C5.9527 24.7868 5.75878 24.7868 5.81696 24.9419C5.87513 25.194 6.16603 24.8838 6.26299 25.0001C6.16603 25.0001 6.01088 25.0583 6.01088 25.0971C6.01088 25.1941 6.20481 25.291 6.45691 25.0971C6.61205 25.0001 6.74782 25.0001 6.86417 25.0001C7.21324 25.0001 8.06649 25.1553 8.35738 24.9032C8.45434 24.8062 8.29919 24.7092 8.20223 24.6123C8.10527 24.5153 8.04709 24.4183 8.10527 24.1662C8.39615 24.2244 8.80338 24.2244 9.40455 24.108C10.1027 24.011 10.2966 24.205 10.2966 24.4571C10.2966 24.651 10.1415 24.651 10.1027 24.651C9.69545 24.651 9.55969 24.5541 9.40455 24.5541C9.30758 24.6122 9.24941 24.7092 9.40455 24.748C9.30758 24.8062 9.30758 24.9031 9.34636 24.9419C9.40454 25.0001 9.54029 24.9419 9.69543 24.8837C9.54029 24.9419 9.40455 25.0389 9.50151 25.1359C9.55969 25.194 9.65665 25.2328 9.79239 25.1359C9.88936 24.9807 10.1415 24.9419 10.2384 24.8837C10.7038 24.9807 10.956 24.2438 10.7426 23.7396Z" fill="#FFE62E"/>
<path d="M10.7443 28.0256C10.6862 27.9287 10.6474 27.8705 10.4922 27.9287C10.085 28.0256 8.99901 27.9869 8.64994 27.7736C9.19293 27.9675 9.85226 27.5796 9.85226 27.2305C9.85226 26.8233 9.34807 26.5324 8.2621 26.7263C7.21491 26.9202 5.9156 26.8233 5.9156 26.5324C5.9156 26.2415 6.86582 26.1833 7.31184 26.2415C7.81604 26.2996 8.10694 26.3384 9.01838 26.0863C8.82446 26.1833 8.06816 26.1833 7.52518 26.0282C6.98219 25.873 5.58594 25.873 5.58594 26.5324C5.58594 27.1917 7.04036 27.1336 8.33965 26.9784C9.09595 26.8815 9.48382 26.9202 9.48382 27.1724C9.48382 27.3663 8.78566 27.4633 8.28146 27.4245C7.77726 27.3663 7.23431 27.3663 6.57497 27.5214C6.47801 27.5796 6.32286 27.5796 6.2259 27.6184C6.82706 28.0257 7.42822 28.4135 8.06817 28.7626V28.5105C8.35906 28.5687 8.76629 28.5687 9.36745 28.4523C10.0656 28.3554 10.2595 28.5493 10.2595 28.8014C10.2595 28.9953 10.1044 28.9953 10.0656 28.9953C9.65836 28.9953 9.52259 28.8984 9.36745 28.8984C9.27049 28.9565 9.21231 29.0535 9.36745 29.0923C9.30927 29.1505 9.27049 29.1505 9.27049 29.1893C9.32867 29.2474 9.42563 29.2474 9.46441 29.2862H9.5226C9.61956 29.3444 9.71652 29.3832 9.81349 29.3832C9.91045 29.2862 10.1043 29.2281 10.2207 29.2281C10.7055 29.2863 10.9576 28.5299 10.7443 28.0256Z" fill="#FFE62E"/>
</svg>
