<svg width="30" height="31" viewBox="0 0 30 31" fill="none" xmlns="http://www.w3.org/2000/svg">
<path d="M14.9987 30.4126C17.9483 30.4126 20.7037 29.5587 22.9935 28.1033V2.70089C20.6843 1.24544 17.9483 0.391602 14.9987 0.391602C12.0492 0.391602 9.29368 1.24544 7.00391 2.70089V28.0451C9.29368 29.5587 12.0492 30.4126 14.9987 30.4126Z" fill="#FFE62E"/>
<path d="M7.00519 2.70068C2.81373 5.3593 0 10.0555 0 15.4116C0 20.7676 2.79432 25.4639 7.00519 28.1225V2.70068Z" fill="#2A5F9E"/>
<path d="M22.9961 28.1034C27.1876 25.4448 30.0013 20.7486 30.0013 15.3925C30.0013 10.0365 27.207 5.34025 22.9961 2.68164V28.1034Z" fill="#699635"/>
<path d="M11.4101 8.34814L8.40234 13.5489L11.4101 18.6915L14.4179 13.5489L11.4101 8.34814Z" fill="#699635"/>
<path d="M18.6093 8.34814L15.6016 13.5489L18.6093 18.6915L21.6171 13.5489L18.6093 8.34814Z" fill="#699635"/>
<path d="M12.0117 20.2632L15.0195 25.464L18.0272 20.2632L15.0195 15.1206L12.0117 20.2632Z" fill="#699635"/>
</svg>
