<svg width="30" height="31" viewBox="0 0 30 31" fill="none" xmlns="http://www.w3.org/2000/svg">
<path d="M28.9921 20.37C26.2366 20.37 23.9857 18.1189 23.9857 15.3633H4.38672V25.9589C7.084 28.6563 10.8291 30.3641 14.9817 30.3641C21.5406 30.3641 27.0905 26.1724 29.128 20.37H28.9921Z" fill="#3E4347"/>
<path d="M28.9923 10.3759H29.1475C27.0906 4.57352 21.5408 0.381836 15.0013 0.381836C10.8487 0.381836 7.10353 2.08955 4.40625 4.78697V15.3826H24.0052C24.0052 12.6269 26.2562 10.3759 28.9923 10.3759Z" fill="#ED4C5C"/>
<path d="M29.1473 10.376H4.38672V20.37H29.1473C29.6906 18.8176 30.0012 17.1292 30.0012 15.3633C30.0012 13.6362 29.6906 11.9285 29.1473 10.376Z" fill="#F9F9F9"/>
<path d="M4.40486 4.78711C1.70757 7.48454 0 11.2299 0 15.3827C0 19.5356 1.70757 23.281 4.40486 25.9784L14.9999 15.3827L4.40486 4.78711Z" fill="#699635"/>
</svg>
