<svg width="30" height="31" viewBox="0 0 30 31" fill="none" xmlns="http://www.w3.org/2000/svg">
<path d="M0 15.4391C0 17.3797 0.34927 19.2427 1.04785 20.931H28.9522C29.6119 19.2233 30 17.3797 30 15.4391C30 13.4985 29.6507 11.6356 28.9522 9.94727H1.04785C0.368675 11.6356 0 13.4791 0 15.4391Z" fill="#C94747"/>
<path d="M2.65745 23.9391H27.36C28.0004 22.9882 28.5631 21.9985 28.9512 20.9312H1.04688C1.45438 21.9791 2.01709 22.9882 2.65745 23.9391Z" fill="white"/>
<path d="M1.06641 9.92785H28.9707C28.5632 8.87993 28.0198 7.87082 27.3795 6.91992H2.67698C2.01721 7.89022 1.45451 8.87993 1.06641 9.92785Z" fill="white"/>
<path d="M15.0183 18.0785L18.1231 20.4266L16.9199 16.623L20.0247 14.2167H16.2213L15.0183 10.4131L13.8151 14.2167H10.0117L13.1165 16.623L11.9135 20.4266L15.0183 18.0785Z" fill="#FFCE31"/>
<path d="M27.3628 6.93949C24.6655 3.03888 20.1636 0.438477 15.0213 0.438477C9.87895 0.438477 5.37698 3.03888 2.67969 6.93949H27.3628Z" fill="#699635"/>
<path d="M2.66016 23.939C5.35745 27.8396 9.91763 30.44 15.0017 30.44C20.1052 30.44 24.646 27.8396 27.3433 23.939H2.66016Z" fill="#699635"/>
</svg>
