<svg width="30" height="31" viewBox="0 0 30 31" fill="none" xmlns="http://www.w3.org/2000/svg">
<path d="M29.788 13.4669C29.7299 12.9634 29.6331 12.4598 29.4975 11.9756H0.407698L0.117188 13.4669H29.788Z" fill="white"/>
<path d="M0.15625 17.4766C0.214352 17.9801 0.311189 18.4837 0.44676 18.9679H29.5365L29.827 17.4766H0.15625Z" fill="white"/>
<path d="M8.98732 1.74902L7.49609 2.50442V28.458C7.99964 28.7486 8.50314 29.0003 8.98732 29.2134V1.74902Z" fill="white"/>
<path d="M12.9766 0.645191V30.3369L14.4679 30.4919V0.490234C13.9837 0.490234 13.4801 0.548349 12.9766 0.645191Z" fill="white"/>
<path d="M0 15.4617C0 16.159 0.0581588 16.8175 0.154996 17.4567H29.8451C29.9419 16.8175 30 16.159 30 15.4617C30 14.7645 29.9419 14.106 29.8451 13.4668H0.154996C0.0581588 14.1253 0 14.7645 0 15.4617Z" fill="#2A5F9E"/>
<path d="M8.98828 29.1945C10.2278 29.7368 11.5835 30.1436 12.978 30.2985V0.645508C11.5835 0.839192 10.2278 1.18781 8.98828 1.7495V29.1945Z" fill="#2A5F9E"/>
<path d="M7.49472 11.9759V2.48535C4.00859 4.5384 1.41335 7.92787 0.40625 11.9759H7.49472Z" fill="#ED4C5C"/>
<path d="M7.49472 18.9678V28.4583C4.00859 26.4052 1.41335 23.0158 0.40625 18.9678H7.49472Z" fill="#ED4C5C"/>
<path d="M14.9723 0.490234H14.4688V11.9757H29.5365C27.9484 5.39044 22.0608 0.490234 14.9723 0.490234Z" fill="#ED4C5C"/>
<path d="M14.4688 18.9678V30.4532H14.9723C22.0608 30.4532 27.9484 25.553 29.5365 18.9678H14.4688Z" fill="#ED4C5C"/>
</svg>
