<svg width="30" height="30" viewBox="0 0 30 30" fill="none" xmlns="http://www.w3.org/2000/svg">
<path d="M29.5912 11.5003C28.001 4.90654 22.0863 0 15.0081 0H14.5039V11.5003H29.5912Z" fill="#428BC1"/>
<path d="M7.50386 1.99744C4.01323 4.05314 1.41465 7.44699 0.40625 11.5002H7.50386V1.99744Z" fill="#428BC1"/>
<path d="M0.425781 18.5012C1.43418 22.5544 4.03276 25.9483 7.52339 28.004V18.5012H0.425781Z" fill="#428BC1"/>
<path d="M14.5039 29.9822H15.0081C22.1057 29.9822 28.001 25.0757 29.5912 18.4819H14.5039V29.9822Z" fill="#428BC1"/>
<path d="M29.5928 11.5003H14.5055V0C11.9651 0.0969671 9.56044 0.795139 7.50485 1.99753V11.5003H0.407235C0.155134 12.6057 0 13.8081 0 14.9911C0 16.1741 0.155134 17.3959 0.407235 18.4819H7.50485V27.9847C9.56044 29.1871 11.9457 29.8852 14.5055 29.9822V18.4819H29.5928C29.8449 17.3765 30 16.1741 30 14.9911C30 13.8081 29.8449 12.6057 29.5928 11.5003Z" fill="#FFE62E"/>
</svg>
