<svg width="30" height="31" viewBox="0 0 30 31" fill="none" xmlns="http://www.w3.org/2000/svg">
<path d="M15.0017 30.8738C21.5605 30.8738 27.1103 26.7209 29.1478 20.8797H0.855469C2.89299 26.7209 8.4428 30.8738 15.0017 30.8738Z" fill="#3E4347"/>
<path d="M15.0017 0.872192C8.4428 0.872192 2.89299 5.06388 0.855469 10.8663H29.1478C27.0909 5.08329 21.5411 0.872192 15.0017 0.872192Z" fill="#ED4C5C"/>
<path d="M29.1462 20.8797C29.6895 19.3272 30 17.6389 30 15.873C30 14.1265 29.7089 12.4187 29.1462 10.8662H0.853809C0.310472 12.4187 0 14.107 0 15.873C0 17.6195 0.291067 19.3272 0.853809 20.8797H29.1462Z" fill="#F9F9F9"/>
<path d="M9.48898 17.4836L11.6429 18.8809L10.8473 16.5715L13.0013 15.1161H10.3428L9.48898 12.865L8.69338 15.1161H5.99609L8.15005 16.5715L7.35444 18.8809L9.48898 17.4836Z" fill="#75A843"/>
<path d="M20.4929 17.4836L22.6468 18.8809L21.8512 16.5715L24.0052 15.1161H21.3467L20.4929 12.865L19.6973 15.1161H17L19.1539 16.5715L18.3583 18.8809L20.4929 17.4836Z" fill="#75A843"/>
</svg>
