<svg width="30" height="31" viewBox="0 0 30 31" fill="none" xmlns="http://www.w3.org/2000/svg">
<path d="M15 0.910767V15.9116H0C0 24.2173 6.69469 30.9123 15 30.9123C23.3053 30.9123 30 24.2173 30 15.9116C30 7.60583 23.3053 0.910767 15 0.910767Z" fill="#ED4C5C"/>
<path d="M15 0.910767C6.69469 0.910767 0 7.60583 0 15.9116H15V0.910767Z" fill="#2A5F9E"/>
<path d="M11.0019 10.0703L13.5051 9.42993L11.0019 8.78953L12.8454 6.94596L10.3421 7.58637L10.9825 5.08302L9.13902 6.92658L8.49865 4.42319L7.85829 6.92658L6.01483 5.08302L6.65519 7.58637L4.15196 6.94596L5.99543 8.78953L3.49219 9.42993L5.99543 10.0703L4.15196 11.9139L6.65519 11.2735L6.01483 13.7769L7.85829 11.9333L8.49865 14.4367L9.13902 11.9333L10.9825 13.7769L10.3421 11.2735L12.8454 11.9139L11.0019 10.0703Z" fill="white"/>
<path d="M9.98829 11.8757C11.3285 11.0475 11.7436 9.28959 10.9154 7.94932C10.0872 6.60905 8.32933 6.19394 6.98913 7.02217C5.64894 7.85041 5.2339 9.60835 6.06209 10.9486C6.89028 12.2889 8.64809 12.704 9.98829 11.8757Z" fill="#428BC1"/>
<path d="M10.9796 9.82689C11.2011 8.46216 10.2744 7.17627 8.90972 6.95478C7.54506 6.73329 6.25921 7.66008 6.03774 9.02481C5.81626 10.3895 6.74303 11.6754 8.10769 11.8969C9.47235 12.1184 10.7582 11.1916 10.9796 9.82689Z" fill="white"/>
</svg>
