<svg width="30" height="31" viewBox="0 0 30 31" fill="none" xmlns="http://www.w3.org/2000/svg">
<path d="M0 15.9325C0 18.8861 0.854927 21.6453 2.31218 23.9381H27.6878C29.1451 21.6258 30 18.8861 30 15.9325C30 12.979 29.1451 10.2197 27.6878 7.92688H2.31218C0.854927 10.2392 0 12.979 0 15.9325Z" fill="#F9F9F9"/>
<path d="M27.7463 7.92695C25.0844 3.72983 20.3823 0.912354 15.0196 0.912354C9.65696 0.912354 4.95489 3.7104 2.29297 7.92695H27.7463Z" fill="#C94747"/>
<path d="M2.3125 23.9575C4.97442 28.1546 9.67649 30.9722 15.0392 30.9722C20.4019 30.9722 25.1039 28.1741 27.7659 23.9575H2.3125Z" fill="#699635"/>
<path d="M18.1873 18.1477C17.8959 18.4003 17.5461 18.5558 17.1381 18.5947C16.186 18.6918 15.3311 17.9923 15.2339 17.0985V15.7966C15.2339 15.5051 15.4865 15.2525 15.8363 15.2525C16.0306 15.2525 16.2443 15.3496 16.3415 15.5051C16.5941 14.8056 16.186 14.106 15.4865 13.8534C14.7871 13.6008 14.0293 14.0089 13.7767 14.7084C13.6795 14.961 13.6795 15.2525 13.7767 15.5051C13.9321 15.2525 14.2819 15.1553 14.5733 15.3108C14.7287 15.4079 14.8648 15.5634 14.8648 15.7577V17.0596C14.7676 17.9534 13.9127 18.653 12.9606 18.5558C12.5526 18.4975 12.2029 18.3615 11.9114 18.1089C11.5617 19.0027 10.5124 19.469 9.56037 19.061C9.40493 19.0027 9.30778 18.9638 9.15234 18.8667C9.30778 20.46 11.8143 20.1686 12.0086 18.5752C12.8052 19.9354 14.515 19.5274 15.0202 17.8757C15.5254 19.5274 17.2741 19.8771 18.0319 18.5752C18.2262 20.1297 20.7326 20.4795 20.8881 18.8667C20.7909 18.9638 20.6355 19.0221 20.48 19.061C19.5863 19.4885 18.5371 19.0416 18.1873 18.1477ZM14.0293 14.8833C14.0876 14.4752 14.4373 14.1255 14.8842 14.0867C15.4282 14.0284 15.9334 14.3781 15.9917 14.8833C15.5837 14.7861 15.1951 14.9805 14.9814 15.2914C14.8259 14.9805 14.4179 14.8444 14.0293 14.8833Z" fill="#FFCE31"/>
<path d="M13.1164 19.9354C13.1164 19.9354 12.9221 19.8382 12.5724 19.8771C12.5141 19.6245 12.3198 19.4302 12.1643 19.3719C12.0089 19.5273 11.9118 19.8188 11.97 20.0131C11.7175 20.0714 11.4648 20.2074 11.4648 20.2074C12.0672 20.7904 12.7667 20.6349 13.1164 19.9354Z" fill="#FFCE31"/>
<path d="M15.8741 19.8382C15.8741 19.8382 15.7187 19.6827 15.3301 19.6827C15.3301 19.4301 15.1358 19.2358 15.0386 19.0804C14.8832 19.2358 14.7472 19.4884 14.7472 19.6827C14.4946 19.6827 14.2031 19.8382 14.2031 19.8382C14.6694 20.5377 15.4272 20.4988 15.8741 19.8382Z" fill="#FFCE31"/>
<path d="M17.8739 19.333C17.6796 19.4302 17.5242 19.6827 17.4659 19.877C17.2133 19.8187 16.9219 19.9353 16.9219 19.9353C17.3299 20.6932 18.0294 20.7903 18.5734 20.188C18.5734 20.188 18.418 20.0325 18.0682 19.9936C18.1265 19.741 17.9711 19.4885 17.8739 19.333Z" fill="#FFCE31"/>
<path d="M10.4727 21.1401L10.7253 21.9368C13.5815 21.1401 16.5348 21.1401 19.3911 21.9368L19.6437 21.1401C16.632 20.2851 13.426 20.2851 10.4727 21.1401Z" fill="#FFCE31"/>
<path d="M14.629 11.172L14.3764 11.9297L15.0176 11.4245L15.6588 11.9297L15.4062 11.172L16.1057 10.6667H15.2507L14.9982 9.90894L14.7456 10.6667H13.8906L14.629 11.172Z" fill="#FFCE31"/>
<path d="M11.4259 11.988L11.1345 12.7458L11.834 12.2989L12.4752 12.7458L12.2226 11.988L12.922 11.5411H12.0671L11.8145 10.7833L11.5619 11.5411H10.707L11.4259 11.988Z" fill="#FFCE31"/>
<path d="M9.07439 14.242L8.78294 15.0387L9.48242 14.5335L10.1236 15.0387L9.87102 14.242L10.5705 13.7951H9.71557L9.463 13.0373L9.2104 13.7951H8.35547L9.07439 14.242Z" fill="#FFCE31"/>
<path d="M8.62693 17.6425L9.26813 18.0894L9.01553 17.3316L9.71501 16.8847H8.8601L8.6075 16.1269L8.3549 16.8847H7.5L8.14118 17.3316L7.8886 18.0894L8.62693 17.6425Z" fill="#FFCE31"/>
<path d="M17.8361 11.988L17.5835 12.7458L18.2247 12.2989L18.9242 12.7458L18.6327 11.988L19.3322 11.5411H18.4773L18.2247 10.7833L17.9721 11.5411H17.1172L17.8361 11.988Z" fill="#FFCE31"/>
<path d="M20.1877 14.242L19.9351 15.0387L20.5763 14.5335L21.2757 15.0387L20.9843 14.242L21.6838 13.7951H20.8289L20.5763 13.0373L20.3237 13.7951H19.4688L20.1877 14.242Z" fill="#FFCE31"/>
<path d="M21.8785 17.3316L22.5197 16.8847H21.6648L21.4122 16.1269L21.1596 16.8847H20.3047L21.0042 17.3316L20.7516 18.0894L21.3928 17.6425L22.0923 18.0894L21.8785 17.3316Z" fill="#FFCE31"/>
</svg>
