<svg width="30" height="31" viewBox="0 0 30 31" fill="none" xmlns="http://www.w3.org/2000/svg">
<path d="M7.49559 2.01781C2.13669 5.12459 -0.562175 10.9692 0.0979798 16.6779L23.9024 2.94985C19.2619 -0.487018 12.8545 -1.05013 7.49559 2.01781Z" fill="#83BF4F"/>
<path d="M6.09766 27.0857C10.7576 30.5419 17.2038 31.0856 22.5044 27.9788C27.8633 24.9303 30.5622 19.0663 29.902 13.3187L6.09766 27.0857Z" fill="#428BC1"/>
<path d="M28.0168 7.51294C27.3178 6.30907 26.4635 5.26053 25.5121 4.30908L0.503906 18.775C0.8534 20.076 1.35821 21.3187 1.99895 22.5226C2.69794 23.7264 3.55226 24.775 4.50366 25.7264L29.5119 11.2605C29.2206 9.95954 28.7158 8.71682 28.0168 7.51294Z" fill="#3E4347"/>
<path d="M29.7645 12.2702C29.7063 11.9207 29.6092 11.5712 29.5121 11.2605L4.50391 25.7264C4.75632 25.9789 5.00874 26.2312 5.26115 26.4254C5.51356 26.6778 5.80481 26.872 6.11547 27.0662L29.9393 13.2993L29.7645 12.2702Z" fill="#FFCE31"/>
<path d="M24.7563 3.60997C24.5038 3.35755 24.2126 3.16341 23.9019 2.96924L0.078125 16.6779L0.233441 17.7264C0.29169 18.0759 0.388781 18.4254 0.485863 18.7361L25.4941 4.32845C25.2611 4.05661 25.0087 3.80415 24.7563 3.60997Z" fill="#FFCE31"/>
</svg>
