<svg width="30" height="31" viewBox="0 0 30 31" fill="none" xmlns="http://www.w3.org/2000/svg">
<path d="M25.2045 4.94428C22.5055 2.43929 18.9521 0.944092 14.9909 0.944092C11.0298 0.944092 7.47637 2.43929 4.77734 4.94428H25.2045Z" fill="#ED4C5C"/>
<path d="M4.79688 26.9648C7.4959 29.4698 11.0493 30.965 15.0105 30.965C18.9716 30.965 22.525 29.4698 25.2241 26.9648H4.79688Z" fill="#ED4C5C"/>
<path d="M0 15.9546C0 18.11 0.446583 20.1101 1.2427 21.9549H28.7573C29.5534 20.1101 30 18.11 30 15.9546C30 13.7991 29.5534 11.799 28.7573 9.95422H1.2427C0.446583 11.799 0 13.7991 0 15.9546Z" fill="#2A5F9E"/>
<path d="M4.79536 26.9648H25.1643C26.6594 25.5667 27.9216 23.8578 28.7177 21.9548H1.20312C2.09633 23.8578 3.30021 25.5667 4.79536 26.9648Z" fill="#F9F9F9"/>
<path d="M25.2034 4.94421H4.7956C3.30045 6.34235 2.0383 8.05119 1.24219 9.9542H28.7568C27.9218 8.05119 26.7179 6.36177 25.2034 4.94421Z" fill="#F9F9F9"/>
</svg>
