<svg width="30" height="31" viewBox="0 0 30 31" fill="none" xmlns="http://www.w3.org/2000/svg">
<path d="M15.0016 0.0610352C11.1982 0.0610352 7.70535 1.51645 5.04688 3.86457V26.3173C7.70535 28.6266 11.1982 30.0626 15.0016 30.0626C23.3069 30.0626 30.0016 23.3676 30.0016 15.0618C30.0016 6.75609 23.3069 0.0610352 15.0016 0.0610352Z" fill="#ED4C5C"/>
<path d="M5.04683 3.8645C4.40647 4.46609 3.80493 5.10648 3.24219 5.8051V24.3572C3.78552 25.0558 4.38706 25.7156 5.04683 26.2978L19.9886 15.0423L5.04683 3.8645Z" fill="#FFCE31"/>
<path d="M3.20181 5.76636C1.2031 8.30854 0 11.5688 0 15.0618C0 18.5549 1.2031 21.8151 3.20181 24.3573L12.4968 15.0618L3.20181 5.76636Z" fill="#3E4347"/>
<path d="M4.15091 16.0127L5.35403 18.5549L5.85855 15.8962L8.51702 15.7022L6.1108 14.2079L6.61535 11.5493L4.67486 13.2959L2.26865 11.8404L3.47174 14.3826L1.53125 16.1873L4.15091 16.0127Z" fill="white"/>
</svg>
