<svg width="30" height="31" viewBox="0 0 30 31" fill="none" xmlns="http://www.w3.org/2000/svg">
<path d="M3.00591 24.1512H27.0098C28.3099 22.4047 29.2608 20.3477 29.7071 18.1548H0.308594C0.754907 20.3477 1.70578 22.4047 3.00591 24.1512Z" fill="#FFCE31"/>
<path d="M27.0117 24.1511H3.00781C5.76331 27.7994 10.11 30.1476 15 30.1476C19.9095 30.1476 24.2562 27.7994 27.0117 24.1511Z" fill="#83BF4F"/>
<path d="M0 15.1468C0 16.1947 0.0970247 17.2039 0.291074 18.1548H15V0.145996C6.71407 0.145996 0 6.86047 0 15.1468Z" fill="#ED4C5C"/>
<path d="M15 0.145996V6.14242H26.9923C24.2562 2.4941 19.9094 0.145996 15 0.145996Z" fill="#83BF4F"/>
<path d="M27.0118 6.14233H15.0195V12.1388H29.7285C29.2628 9.94593 28.3119 7.90828 27.0118 6.14233Z" fill="#FFCE31"/>
<path d="M29.709 12.1582H15V18.1547H29.709C29.903 17.2038 30 16.2141 30 15.1468C30 14.0794 29.903 13.1091 29.709 12.1582Z" fill="#83BF4F"/>
<path d="M8.015 12.7987L11.4109 15.1468L10.1107 11.3432L13.5066 8.93689H9.31516L8.015 5.1333L6.71487 8.93689H2.52344L5.9193 11.3432L4.61913 15.1468L8.015 12.7987Z" fill="white"/>
</svg>
