<svg width="30" height="31" viewBox="0 0 30 31" fill="none" xmlns="http://www.w3.org/2000/svg">
<path d="M25.6921 25.7577H4.69598C4.69598 25.7577 17.6973 11.048 25.9056 6.66227C25.9056 6.66227 20.0065 17.4132 27.3998 23.7589C28.991 21.3526 30 18.4029 30 15.2591C30 6.95337 23.3053 0.258301 15 0.258301C6.69466 0.258301 0 6.95337 0 15.2591C0 20.1688 2.34798 24.5157 5.99611 27.252H24.0039C24.586 26.825 25.1876 26.3205 25.6921 25.7577Z" fill="#2A5F9E"/>
<path d="M14.9809 30.2599C17.3289 30.2599 19.5216 29.7165 21.5397 28.7656H8.44141C10.4401 29.7165 12.6329 30.2599 14.9809 30.2599Z" fill="#2A5F9E"/>
<path d="M25.8467 6.66211C17.6966 11.0673 4.69531 25.7576 4.69531 25.7576H25.6914C26.293 25.156 26.8363 24.4574 27.3409 23.7587C19.9476 17.413 25.8467 6.66211 25.8467 6.66211Z" fill="#FFCE31"/>
<path d="M5.99609 27.2715C6.75289 27.8149 7.58732 28.3776 8.44113 28.7657H21.5395C22.3933 28.3582 23.2471 27.8149 23.9845 27.2715H5.99609Z" fill="#FFCE31"/>
<path d="M8.24648 4.41113L8.49871 5.26502H9.39135L8.69276 5.76955L8.94503 6.62344L8.24648 6.11887L7.54789 6.62344L7.80016 5.76955L7.10156 5.26502H7.95541L8.24648 4.41113Z" fill="white"/>
<path d="M12.5365 8.31177L12.7888 9.06858H13.5844L12.944 9.51493L13.1963 10.2717L12.5365 9.82544L11.935 10.2717L12.1872 9.51493L11.5469 9.06858H12.3424L12.5365 8.31177Z" fill="white"/>
<path d="M3.14492 9.51489L3.39719 10.3687H4.28979L3.59124 10.8733L3.84347 11.7272L3.14492 11.2226L2.44632 11.7272L2.6986 10.8733L2 10.3687H2.89265L3.14492 9.51489Z" fill="white"/>
<path d="M8.24849 15.9189L8.53957 16.928H9.58742L8.73362 17.5297L9.02469 18.5388L8.22907 17.9371L7.37527 18.5388L7.66635 17.5297L6.8125 16.928H7.86039L8.24849 15.9189Z" fill="white"/>
</svg>
