<svg width="30" height="31" viewBox="0 0 30 31" fill="none" xmlns="http://www.w3.org/2000/svg">
<path d="M25.6087 4.73754C21.255 0.38358 14.8993 -0.724357 9.47656 1.37487L28.9517 20.8511C31.0703 15.4475 29.9818 9.0915 25.6087 4.73754Z" fill="#ED4C5C"/>
<path d="M4.38567 25.9827C8.7394 30.3367 15.0951 31.4446 20.5178 29.3454L1.04264 9.86914C-1.07592 15.2533 0.031944 21.6093 4.38567 25.9827Z" fill="#ED4C5C"/>
<path d="M4.38649 4.7377C3.3758 5.74844 2.5789 6.79805 1.9375 7.94486L22.4234 28.4318C23.5701 27.7903 24.678 26.974 25.6304 25.9827C26.641 24.972 27.4379 23.9223 28.0793 22.7755L7.59348 2.28857C6.4273 2.93001 5.33887 3.72696 4.38649 4.7377Z" fill="#3E4347"/>
<path d="M1.43142 8.89723C1.27593 9.18879 1.13987 9.5387 0.984375 9.90801L20.5178 29.3453C20.8677 29.1898 21.1787 29.0926 21.5285 28.8983C21.8201 28.7428 22.1311 28.6067 22.4226 28.3929L1.91733 7.94482C1.78127 8.23638 1.56747 8.54736 1.43142 8.89723Z" fill="white"/>
<path d="M9.49852 1.375C9.14866 1.5305 8.85713 1.62769 8.48784 1.82207C8.19629 1.97757 7.88529 2.11365 7.59375 2.32746L28.0796 22.8144C28.2351 22.5228 28.4294 22.2118 28.5849 21.9202C28.7404 21.5704 28.8765 21.2788 29.032 20.9095L9.49852 1.375Z" fill="white"/>
</svg>
