<svg width="30" height="31" viewBox="0 0 30 31" fill="none" xmlns="http://www.w3.org/2000/svg">
<path d="M5.00781 5.31885H15.5059V15.8175H5.00781V5.31885Z" fill="#2A5F9E"/>
<path d="M8.46064 3.35889V6.30858H4.8125L12.0117 15.313H15.0195V11.5676L8.46064 3.35889Z" fill="white"/>
<path d="M15 0.312012V15.3128H0C0 23.6186 6.69466 30.3136 15 30.3136C23.3053 30.3136 30 23.6186 30 15.3128C30 7.00708 23.3053 0.312012 15 0.312012Z" fill="#2A5F9E"/>
<path d="M4.50194 8.77299H1.49417C0.543329 10.7718 0 12.9647 0 15.3322H5.99611V6.28906H4.50194V8.77299Z" fill="white"/>
<path d="M15.0006 12.8674L8.49995 4.81396H5.49219L13.9916 15.3126H15.0006V12.8674Z" fill="#ED4C5C"/>
<path d="M8.45859 1.82584V4.83376H4.5V6.32801H14.998V0.331541C12.65 0.312135 10.4573 0.874946 8.45859 1.82584Z" fill="white"/>
<path d="M15.0019 1.82568H8.44307C5.4353 3.28113 2.95146 5.78446 1.49609 8.77298V15.3322H4.50386V4.81418H15.0019V1.82568Z" fill="#ED4C5C"/>
<path d="M23.1498 11.3151L21.3063 11.9167L21.3645 10.0149L21.772 9.37451L23.1498 11.3151ZM19.7539 11.5674L21.2093 10.1119V11.9167L19.7539 11.5674Z" fill="#BFE5E8"/>
<path d="M20.2969 11.917C20.2969 12.2081 20.3939 12.2663 20.3939 12.2663H23.0912C23.0912 12.2663 23.1882 12.014 23.1882 11.917C22.4509 12.1111 21.3641 12.2663 20.2969 11.917Z" fill="#C7E8EB"/>
<path d="M23.498 12.4213C23.498 12.3243 23.5562 12.266 23.5562 12.169C23.6144 12.0138 23.498 11.975 23.498 11.8197V11.5675C23.4009 11.5092 23.3039 11.5092 23.2069 11.5092C23.1099 11.5092 23.0128 11.451 22.9546 11.6063H23.4009C23.1099 11.8585 22.5471 11.8585 22.1978 11.8973C21.9068 11.8973 21.5575 11.9556 21.247 11.8973C21.0918 11.8973 20.8395 11.8391 20.7037 11.8003C20.6066 11.8003 20.4514 11.7421 20.3544 11.7033C20.3544 11.548 20.3544 11.548 20.1991 11.548C20.1991 11.7033 20.1021 12.3049 20.3932 12.2079C20.335 12.1108 20.3349 11.9168 20.3349 11.8003C20.9365 11.9944 22.0426 12.2078 23.3816 11.8003C23.3816 11.9556 23.3233 12.0914 23.2845 12.2079C23.3039 12.2661 23.4009 12.3243 23.498 12.4213Z" fill="#00A3D6"/>
<path d="M21.3075 9.76269C21.2105 9.70447 21.2105 9.76269 21.2105 9.76269L21.1523 11.9556H21.2494L21.3075 9.76269Z" fill="#BC7E22"/>
<path d="M18.6087 13.0619C19.0162 12.8678 19.4625 12.9649 19.6178 13.3142C19.7148 13.8187 19.4626 14.2068 19.1133 14.5561L19.1714 14.6144C19.3655 14.3621 19.6178 14.168 20.0641 14.168C20.0059 14.3233 19.87 14.9249 19.8118 15.0219H20.0059C20.0641 15.0801 20.1029 15.1189 20.1029 15.1771C19.9088 15.2353 19.6954 15.1772 19.5014 15.1189C19.2103 14.9637 18.958 14.9249 18.7445 15.216C18.6475 15.0219 18.5893 14.8667 18.6475 14.6726C18.7445 14.4203 18.8416 14.2262 18.8998 13.974C19.1132 13.3724 18.8998 13.1201 18.6087 13.0619ZM18.6087 14.8084C18.5505 15.0025 18.6087 15.2548 18.6669 15.4488C18.4147 15.3906 18.1624 15.3906 17.9683 15.5071C17.9683 15.313 18.0654 15.216 18.1624 15.0995C17.7549 15.0025 17.4638 15.1577 17.3086 15.5459C17.3668 15.2936 17.4056 15.0413 17.4056 14.789C17.6967 14.5755 18.1624 14.6144 18.6087 14.8084Z" fill="#00A3D6"/>
<path d="M16.707 13.7213C16.7652 13.8765 16.9011 14.0124 17.1534 14.1676C17.3086 14.3229 17.4056 14.3229 17.5027 14.3229C17.8519 14.2258 18.046 14.0318 18.2594 13.8183C18.3565 13.663 18.4535 13.5272 18.5117 13.4108C18.5117 13.3526 18.6087 13.3526 18.5699 13.469C18.4729 13.566 18.4147 13.7213 18.3759 13.8765C18.3177 14.0318 18.2788 14.1676 18.3759 14.3229C18.3759 14.2258 18.5311 14.1288 18.6281 14.0706C18.7252 13.9735 18.8222 13.8765 18.8222 13.7213C18.8222 13.5272 18.8222 13.372 18.9774 13.3138C18.9192 13.1197 18.8222 13.0615 18.6281 13.0227C18.4729 12.8674 18.2788 12.8286 18.0266 12.8286C17.7743 12.8286 17.5221 12.9839 17.2698 12.8868C17.328 13.0809 17.4638 13.2943 18.0654 13.3331C17.8713 13.5272 17.6191 13.7407 17.1728 13.8765C16.9593 13.8765 16.8041 13.8183 16.707 13.7213Z" fill="#9EC1FF"/>
<path d="M18.6076 14.8667C18.6658 15.3713 19.5002 15.7206 19.9659 15.313C19.2091 15.3713 19.2674 15.216 18.9181 15.119C19.0151 15.022 19.1703 14.9637 19.5196 15.1772C19.6748 15.2354 19.8689 15.2354 20.0241 15.2354L20.0824 15.1772C20.0824 15.0801 20.0242 15.0802 19.9853 15.022H20.1794C20.3346 15.2742 20.4704 15.5653 20.6839 15.8176C20.3928 16.2251 20.0436 16.458 19.7331 16.5744C19.7331 16.3222 19.8301 16.1281 19.9271 15.9728C18.9957 16.2639 18.4135 15.4683 18.6076 14.8667Z" fill="#9EC1FF"/>
<path d="M17.4639 15.313C17.5221 15.5653 17.7161 15.7205 18.0072 15.7205C17.852 16.128 17.2504 15.9728 17.3086 15.6235C17.3475 15.5264 17.4057 15.3712 17.4639 15.313Z" fill="#9EC1FF"/>
<path d="M24.3125 13.3724C24.4677 12.8678 24.8559 12.829 25.3216 12.926C25.4768 12.8678 25.6126 12.7708 25.9231 12.829C26.1172 12.8872 26.3306 12.8872 26.5247 12.829C26.3695 13.0813 26.1172 13.2365 25.6708 13.2365C25.9619 13.4888 26.2724 13.6828 26.6217 13.6828C26.6799 13.8381 26.5635 13.9739 26.4277 14.1292C26.1366 14.1292 25.8261 13.9739 25.5738 13.6246C25.632 13.8187 25.632 13.9739 25.5738 14.168C25.4186 14.0127 25.2246 13.9157 25.1663 13.7605C25.0693 13.6635 25.0693 13.4694 25.0693 13.2559C25.0111 12.8678 24.4095 13.0619 24.3125 13.3724Z" fill="#00A3D6"/>
<path d="M22.4141 14.3233C22.6081 14.1681 22.7633 14.0322 22.8603 13.877H23.0544L23.3455 14.0322C23.4037 14.1292 23.4425 14.2263 23.5977 14.3233C23.753 14.5174 23.8888 14.6726 24.2963 14.6144C24.1993 14.6726 24.1023 14.7114 24.0441 14.7696L23.947 14.7114L24.0053 14.8084V14.8667C24.4128 15.0219 24.8008 15.1578 25.1501 14.9249C25.2083 15.2742 25.0531 15.5265 24.8008 15.6235C24.2575 15.7205 23.753 15.3712 23.5589 14.8667C23.6171 15.119 23.5589 15.3712 23.4619 15.6623C23.2679 15.4682 23.1126 15.216 23.1126 14.7114C23.0544 14.9637 22.9574 15.1578 22.8603 15.3518C22.6663 14.9443 22.6663 14.595 22.8022 14.3039C22.6081 14.3621 22.5111 14.3621 22.4141 14.3233Z" fill="#00A3D6"/>
<path d="M23.5 14.2259C23.6552 14.323 23.8493 14.226 24.1016 14.2842C24.0045 14.1871 23.9075 14.0901 23.9075 13.9931C24.1016 13.9349 24.315 13.9931 24.509 14.1483C24.315 13.8961 24.218 13.6049 24.315 13.3915C24.4702 13.1392 24.6643 12.984 24.9554 13.1004C24.8583 13.2556 24.8583 13.5079 24.8971 13.702C24.9554 13.9931 25.0912 14.3035 25.1882 14.5946C25.3823 14.4976 25.5957 14.4006 25.7898 14.3424C25.945 14.2842 26.0421 14.3424 26.1973 14.4394C26.3526 14.6335 26.3914 14.8469 26.2943 15.0798C26.1973 14.8275 25.945 14.8275 25.6928 14.8857C25.848 14.9828 25.8868 15.0798 25.848 15.2933C25.654 15.1962 25.4405 15.1962 25.3047 15.235C25.3047 15.235 25.1106 14.8275 24.8001 14.7887C24.6449 14.7887 24.5091 14.8857 24.3538 14.944C24.1986 15.0022 24.1016 14.9439 24.0045 14.8857C24.0628 14.7305 24.1986 14.6917 24.2956 14.6335C23.8493 14.7111 23.6164 14.5752 23.5 14.2259ZM26.3525 13.3721C26.4495 13.4691 26.6048 13.5661 26.6048 13.7214C26.663 13.8766 26.5466 14.0125 26.3525 14.1677C26.5078 14.1677 26.6048 14.0707 26.76 13.9154C26.8571 13.8184 26.9153 13.7214 27.0123 13.6243C27.0123 13.2168 26.566 13.1586 26.3525 13.3721Z" fill="#9EC1FF"/>
<path d="M21.5576 12.7707C21.5576 12.5184 21.5576 12.2661 21.6158 12.2661C21.1695 11.8586 20.7231 12.2661 20.7231 12.2661L20.9172 13.314C20.9172 13.314 20.5097 12.6736 20.7231 12.2661C20.7231 12.2661 19.6753 12.0138 19.4812 12.7707C19.423 13.0229 19.9276 13.6634 19.9276 13.6634C20.7232 13.217 21.6352 13.217 21.6352 13.217C21.5964 13.2752 21.5576 13.0617 21.5576 12.7707Z" fill="#D8A322"/>
<path d="M23.7517 12.8097C23.4995 12.0528 22.5098 12.3051 22.5098 12.3051C22.7039 12.7127 22.3158 13.353 22.3158 13.353L22.5098 12.3051C22.5098 12.3051 22.0635 11.8976 21.6172 12.3051C21.6754 12.3051 21.6754 12.4992 21.6754 12.8097C21.6754 13.062 21.6754 13.3142 21.6172 13.3142C21.6172 13.3142 22.5098 13.256 23.3248 13.7606C23.3636 13.7218 23.8488 13.062 23.7517 12.8097Z" fill="#D8A322"/>
<path d="M21.8512 24.3171C22.3557 24.3171 22.8602 24.2201 23.3065 23.9678C23.5006 23.8708 23.7529 23.7155 23.9469 23.5603C24.0051 23.5021 24.141 23.3662 24.238 23.3662C24.2962 23.3662 24.4902 23.5214 24.529 23.5214C24.8783 23.6185 25.2858 23.5797 25.3828 23.1722C25.4411 23.0169 25.3246 22.8229 25.3828 22.6288C25.3828 22.5706 25.4799 22.5318 25.4799 22.4735C25.5381 22.3765 25.5381 22.4153 25.4799 22.3183L25.4217 22.2213C25.2276 22.0272 24.9171 22.0272 24.6261 22.1242C24.5679 22.1242 24.4708 22.2213 24.432 22.2213C24.3738 22.2213 24.238 22.1242 24.1798 22.066C24.0245 22.0078 23.8887 21.969 23.6753 22.0078C23.3842 22.066 23.1707 22.2989 22.9184 22.5123C22.7244 22.6676 22.3751 22.7646 22.5691 23.0557C22.7244 23.308 23.1125 23.0557 23.326 22.9975C22.4333 23.6379 21.269 23.5991 20.3764 22.9975C20.4734 22.9975 20.5705 23.0557 20.6675 23.0557C20.7645 23.0557 20.8615 23.211 20.9586 23.1528C21.2496 23.0945 21.2108 22.7452 21.0167 22.6482C20.7645 22.4929 20.6093 22.2989 20.3764 22.1437C20.0271 21.9496 19.7748 22.0466 19.3673 22.2019C19.2703 22.2601 19.2703 22.2601 19.1733 22.2019C19.1151 22.1437 19.0181 22.1437 18.921 22.1048C18.7658 22.0466 18.6299 22.0466 18.5135 22.1048C18.4165 22.1631 18.2613 22.2601 18.2224 22.3571C18.1642 22.4541 18.2224 22.4541 18.3195 22.5511C18.3777 22.6094 18.3777 22.6482 18.3777 22.7452C18.3777 23.0945 18.3195 23.5021 18.824 23.5409C19.0181 23.5409 19.2315 23.4826 19.4255 23.3856C19.5808 23.2886 19.5808 23.3274 19.7166 23.4438C19.8136 23.5409 19.9107 23.5991 20.0077 23.6961C20.551 24.0648 21.2108 24.3171 21.8512 24.3171Z" fill="white"/>
<path d="M19.3672 16.6714H24.3154V19.6211C24.3154 21.6781 23.5587 22.3767 21.8122 22.8231C20.0076 22.3185 19.3672 21.6199 19.3672 19.5823V16.6714Z" fill="#007DD4"/>
<path d="M19.5039 16.7681H24.2581V19.5625C24.2581 21.5031 23.5595 22.1629 21.8519 22.6092C20.1442 22.1629 19.5039 21.4643 19.5039 19.5625V16.7681Z" fill="#1799F8"/>
<path d="M24.1995 19.563C24.1995 21.5036 23.5009 22.1634 21.7933 22.6097C20.0856 22.1634 19.4453 21.4648 19.4453 19.563H24.1995Z" fill="white"/>
<path d="M22.7614 19.5627L21.8688 17.855L20.918 19.5627H22.7614Z" fill="white"/>
<path d="M20.8984 19.563L21.8493 21.3095L22.7419 19.563" fill="#1799F8"/>
<path d="M23.6536 18.6118C23.5954 18.5535 23.4013 18.3595 23.149 18.3595C23.149 18.3595 23.149 18.3012 23.052 18.3012C22.858 18.243 22.955 18.1072 22.9938 18.0102C23.0521 17.9131 23.0521 17.7579 22.7998 17.6026C22.5475 17.4474 22.3535 17.5056 22.1594 17.3115C22.1012 17.4668 22.5087 17.6026 22.4505 17.6608C22.3923 17.7579 22.7416 18.1072 22.4505 18.0102C22.3923 17.9519 22.1982 17.9519 22.043 18.0102C22.2952 18.0684 22.4505 18.4565 22.8968 18.5535C22.8968 18.6118 22.955 18.7088 22.9938 18.7088C22.9938 18.7088 23.1879 18.767 23.2849 18.9999C23.3431 18.8446 23.1879 18.7088 23.1297 18.6506C23.1297 18.6506 23.3237 18.5923 23.3819 18.7476C23.479 19.0387 23.8282 19.3492 23.9835 19.388C23.8476 19.1163 23.7506 18.8252 23.6536 18.6118Z" fill="white"/>
<path d="M20.0642 18.6118C20.1225 18.5535 20.3165 18.3595 20.5688 18.3595C20.5688 18.3595 20.5688 18.3012 20.6658 18.3012C20.8599 18.243 20.7628 18.1072 20.724 18.0102C20.6658 17.9131 20.6658 17.7579 20.918 17.6026C21.1703 17.4474 21.3644 17.5056 21.5584 17.3115C21.6166 17.4668 21.2091 17.6026 21.2673 17.6608C21.3256 17.7579 20.9763 18.1072 21.2673 18.0102C21.3256 17.9519 21.5196 17.9519 21.6749 18.0102C21.4226 18.0684 21.2673 18.4565 20.821 18.5535C20.821 18.6118 20.7628 18.7088 20.724 18.7088C20.724 18.7088 20.5299 18.767 20.4329 18.9999C20.3747 18.8446 20.53 18.7088 20.5882 18.6506C20.5882 18.6506 20.3941 18.5923 20.3359 18.7476C20.2389 19.0387 19.8896 19.3492 19.7344 19.388C19.8508 19.1163 19.9478 18.8252 20.0642 18.6118Z" fill="white"/>
<path d="M20.0642 20.6107C20.1225 20.6689 20.3165 20.863 20.5688 20.863C20.5688 20.863 20.5688 20.9212 20.6658 20.9212C20.8599 20.9794 20.7628 21.1153 20.724 21.2123C20.6658 21.3093 20.6658 21.4646 20.918 21.6199C21.1703 21.7751 21.3644 21.7169 21.5584 21.9109C21.6166 21.7557 21.2091 21.6199 21.2673 21.5616C21.3256 21.4646 20.9763 21.1153 21.2673 21.2123C21.3256 21.2705 21.5196 21.2705 21.6749 21.2123C21.4226 21.1541 21.2673 20.766 20.821 20.6689C20.821 20.6107 20.7628 20.5137 20.724 20.5137C20.724 20.5137 20.5299 20.4555 20.4329 20.2226C20.3747 20.3778 20.53 20.5137 20.5882 20.5719C20.5882 20.5719 20.3941 20.6301 20.3359 20.4749C20.2389 20.1838 19.8896 19.8733 19.7344 19.8345C19.8508 20.1256 19.9478 20.4167 20.0642 20.6107Z" fill="#1799F8"/>
<path d="M23.6536 20.6107C23.5954 20.6689 23.4013 20.863 23.149 20.863C23.149 20.863 23.149 20.9212 23.052 20.9212C22.858 20.9794 22.955 21.1153 22.9938 21.2123C23.0521 21.3093 23.0521 21.4646 22.7998 21.6199C22.5475 21.7751 22.3535 21.7169 22.1594 21.9109C22.1012 21.7557 22.5087 21.6199 22.4505 21.5616C22.3923 21.4646 22.7416 21.1153 22.4505 21.2123C22.3923 21.2705 22.1982 21.2705 22.043 21.2123C22.2952 21.1541 22.4505 20.766 22.8968 20.6689C22.8968 20.6107 22.955 20.5137 22.9938 20.5137C22.9938 20.5137 23.1879 20.4555 23.2849 20.2226C23.3431 20.3778 23.1879 20.5137 23.1297 20.5719C23.1297 20.5719 23.3237 20.6301 23.3819 20.4749C23.479 20.1838 23.8282 19.8733 23.9835 19.8345C23.8476 20.1256 23.7506 20.4167 23.6536 20.6107Z" fill="#1799F8"/>
<path d="M24.1968 19.0776C24.0028 18.8835 24.6043 17.9714 24.7013 18.0685C24.8565 18.2237 25.0506 18.573 25.1476 18.7089C25.3417 18.9611 24.6431 18.2043 24.5073 18.4566C24.449 18.5148 23.8087 19.912 24.5655 20.2613C24.2162 19.3105 24.6625 18.3207 25.3223 19.3104C25.5163 19.6015 25.167 19.4075 25.07 19.3104C24.5655 18.9029 24.5655 20.2031 25.0118 20.6688C24.6043 19.1746 25.2058 19.6209 25.7686 20.1255C26.0596 20.3777 25.1282 21.4839 25.1282 21.4257C25.0312 21.2705 24.8372 20.9211 24.6237 20.9211C24.3714 20.9211 24.1192 21.4645 24.2162 21.775C24.3714 22.1243 24.973 22.1243 25.2641 22.0661C27.418 21.3674 27.6703 18.1072 27.0687 17.0205C26.9717 16.8653 27.515 16.4772 27.612 16.613C28.7569 18.0685 27.6703 21.2704 27.515 21.4645C29.1062 19.1552 28.8152 16.0114 27.0105 16.1667C26.6612 16.1667 25.9627 16.3607 25.5163 17.3116C25.5163 17.3116 25.5746 16.5548 25.07 16.6712C24.6625 16.7683 23.9639 17.1176 24.1774 17.4669C24.2356 17.3698 24.876 16.9235 25.07 16.8653C25.2253 16.8653 25.2253 17.7191 25.1282 17.4669C25.07 17.3116 24.876 17.0593 24.7207 17.2146C24.5655 17.3116 23.7699 17.9132 24.1774 18.3207C24.1192 17.9132 24.6237 17.5251 24.7789 17.4281C24.9342 17.331 25.3223 18.1849 25.2834 18.3207C25.2252 18.3207 24.7789 17.6803 24.5849 17.7774C24.4491 17.8162 23.9057 18.7088 24.1968 19.0776Z" fill="#D8A322"/>
<path d="M19.5014 19.0776C19.6954 18.8835 19.0938 17.9714 18.9968 18.0685C18.8416 18.2237 18.6475 18.573 18.5505 18.7089C18.3565 18.9611 19.055 18.2043 19.1909 18.4566C19.2491 18.5148 19.8894 19.912 19.1327 20.2613C19.4819 19.3105 19.0356 18.3207 18.3759 19.3104C18.1818 19.6015 18.5311 19.4075 18.6282 19.3104C19.1327 18.9029 19.1326 20.2031 18.6863 20.6688C19.0938 19.1746 18.4923 19.6209 17.9296 20.1255C17.6385 20.3777 18.5699 21.4839 18.5699 21.4257C18.667 21.2705 18.861 20.9211 19.0744 20.9211C19.3267 20.9211 19.579 21.4645 19.4819 21.775C19.3267 22.1243 18.7252 22.1243 18.4341 22.0661C16.2802 21.3674 16.0279 18.1072 16.6294 17.0205C16.7265 16.8653 16.1831 16.4772 16.0861 16.613C14.9412 18.0685 16.0279 21.2704 16.1831 21.4645C14.5919 19.1552 14.883 16.0114 16.6877 16.1667C17.0369 16.1667 17.7355 16.3607 18.1818 17.3116C18.1818 17.3116 18.1236 16.5548 18.6282 16.6712C19.0357 16.7683 19.7342 17.1176 19.5207 17.4669C19.4625 17.3698 18.8222 16.9235 18.6282 16.8653C18.4729 16.8653 18.4729 17.7191 18.5699 17.4669C18.6281 17.3116 18.8222 17.0593 18.9774 17.2146C19.1326 17.3116 19.9283 17.9132 19.5207 18.3207C19.579 17.9132 19.0745 17.5251 18.9192 17.4281C18.764 17.331 18.3759 18.1849 18.4147 18.3207C18.4729 18.3207 18.9192 17.6803 19.1133 17.7774C19.2491 17.8162 19.8119 18.7088 19.5014 19.0776Z" fill="#D8A322"/>
<path d="M22.8998 16.1084C22.9968 16.2636 23.055 16.3995 22.9968 16.6129H22.8027C22.8998 16.3606 22.861 16.1666 22.5117 16.1084C22.0071 16.0501 21.4638 17.001 20.61 17.1175C20.3577 16.8264 20.3577 16.2636 20.707 16.0113C20.5518 15.565 20.2024 15.0022 19.9502 14.8082H19.5039C19.6009 14.5559 20.0084 14.2648 20.2607 14.1484C20.3189 14.0902 20.3577 13.9931 20.4159 13.9543C20.4741 13.605 22.1623 13.7602 22.5698 14.0125C22.5504 14.42 22.7639 15.759 22.8998 16.1084Z" fill="#8CA8C2"/>
<path d="M20.2605 14.168C21.1531 13.7604 22.2009 13.7604 23.113 14.168C23.1712 14.0709 23.2682 13.9157 23.307 13.8186C22.2592 13.3723 21.0561 13.3723 20.0664 13.8186C20.1052 13.9739 20.1634 14.0709 20.2605 14.168Z" fill="#D8A322"/>
</svg>
