<svg width="30" height="31" viewBox="0 0 30 31" fill="none" xmlns="http://www.w3.org/2000/svg">
<path d="M15 30.4362C23.2843 30.4362 30 23.7201 30 15.4354C30 7.15067 23.2843 0.43457 15 0.43457C6.7157 0.43457 0 7.15067 0 15.4354C0 23.7201 6.7157 30.4362 15 30.4362Z" fill="#ED4C5C"/>
<path d="M14.9983 24.0904C19.7781 24.0904 23.6529 20.2154 23.6529 15.4354C23.6529 10.6553 19.7781 6.78027 14.9983 6.78027C10.2185 6.78027 6.34375 10.6553 6.34375 15.4354C6.34375 20.2154 10.2185 24.0904 14.9983 24.0904Z" fill="white"/>
<path d="M15.0007 21.9366C18.5909 21.9366 21.5013 19.026 21.5013 15.4356C21.5013 11.8452 18.5909 8.93457 15.0007 8.93457C11.4104 8.93457 8.5 11.8452 8.5 15.4356C8.5 19.026 11.4104 21.9366 15.0007 21.9366Z" fill="#ED4C5C"/>
<path d="M18.7579 20.2408C21.4115 19.1415 22.6716 16.0992 21.5724 13.4454C20.4732 10.7917 17.431 9.53152 14.7774 10.6308C12.1238 11.73 10.8637 14.7724 11.9629 17.4261C13.0621 20.0799 16.1043 21.34 18.7579 20.2408Z" fill="white"/>
<path d="M18.184 15.4355L19.8917 13.1261L17.1943 14.0188L15.5449 11.7095V14.5622L12.8477 15.416L15.5449 16.2699V19.1226L17.1943 16.8133L19.8917 17.7059L18.184 15.4355Z" fill="#ED4C5C"/>
</svg>
