<svg width="30" height="31" viewBox="0 0 30 31" fill="none" xmlns="http://www.w3.org/2000/svg">
<path d="M0 15.3746C0 18.4213 0.892654 21.274 2.50326 23.6803V7.06885C0.892654 9.47518 0 12.3279 0 15.3746Z" fill="#83BF4F"/>
<path d="M15.0019 0.374023C12.2464 0.374023 9.70435 1.13086 7.49219 2.37284V28.3768C9.68494 29.677 12.2464 30.3756 15.0019 30.3756C23.3072 30.3756 30.0019 23.6806 30.0019 15.3748C30.0019 7.06908 23.3072 0.374023 15.0019 0.374023Z" fill="#83BF4F"/>
<path d="M2.50391 7.08832V23.6998C3.80403 25.6404 5.51168 27.2511 7.51038 28.3961V2.39209C5.49227 3.53704 3.80403 5.18654 2.50391 7.08832Z" fill="#ED4C5C"/>
<path d="M17.5996 3.77002C18.8415 4.81794 19.5983 6.42862 19.5012 8.17516C19.346 11.1831 16.804 13.5312 13.7962 13.4342C13.0976 13.376 12.4379 13.2401 11.8945 12.9878C12.8454 13.7835 14.0873 14.288 15.4456 14.288C18.4922 14.288 20.9372 11.8429 20.9372 8.79614C20.8984 6.58386 19.5595 4.62388 17.5996 3.77002Z" fill="white"/>
<path d="M12.3413 7.82562L12.5936 7.06881H13.3504L12.7489 6.62246L13.0011 5.92383L12.3608 6.37017L11.7592 5.92383L12.0115 6.62246L11.3711 7.06881H12.1279L12.3413 7.82562Z" fill="white"/>
<path d="M12.1086 4.27445L12.3609 5.03131L12.6131 4.27445H13.3699L12.7683 3.82815L13.0206 3.07129L12.3802 3.51764L11.7787 3.07129L12.0309 3.82815L11.3906 4.27445H12.1086Z" fill="white"/>
<path d="M14.9013 5.73001L15.1536 6.48687L15.4058 5.73001H16.1626L15.5611 5.28372L15.7551 4.52686L15.1536 4.9732L14.4938 4.52686L14.7461 5.28372L14.1445 5.73001H14.9013Z" fill="white"/>
<path d="M9.95584 8.02L10.2081 7.26318L9.56775 7.70953L8.96622 7.26318L9.21845 8.02L8.57812 8.46634H9.3737L9.56775 9.22315L9.82002 8.46634H10.6156L9.95584 8.02Z" fill="white"/>
<path d="M12.3413 10.6205L12.5936 9.92191H13.3504L12.7489 9.47556L13.0011 8.71875L12.3608 9.1651L11.7592 8.71875L12.0115 9.47556L11.3711 9.92191H12.1279L12.3413 10.6205Z" fill="white"/>
<path d="M2.50391 7.08838V10.0963L3.99807 8.60205L2.50391 7.08838Z" fill="#FFE62E"/>
<path d="M7.50984 10.0768V7.06885L6.01562 8.5631L7.50984 10.0768Z" fill="#FFE62E"/>
<path d="M2.50391 14.3267V17.2764L3.99807 15.8209L2.50391 14.3267Z" fill="#FFE62E"/>
<path d="M7.50984 17.2764V14.3267L6.01562 15.8209L7.50984 17.2764Z" fill="#FFE62E"/>
<path d="M2.50391 20.6729V23.6808L3.99807 22.1865L2.50391 20.6729Z" fill="#FFE62E"/>
<path d="M7.50984 23.6808V20.6729L6.01562 22.1671L7.50984 23.6808Z" fill="#FFE62E"/>
<path d="M3.89878 20.6726L2.75391 18.9649L3.89878 17.3154H6.09154L7.23641 18.9649L6.09154 20.6726H3.89878Z" fill="#83BF4F"/>
<path d="M3.89878 13.7834L2.75391 12.1339L3.89878 10.4844H6.09154L7.23641 12.1339L6.09154 13.7834H3.89878Z" fill="#FFE62E"/>
<path d="M4.18973 13.337L3.33594 12.1338L4.18973 10.9307H5.78093L6.63477 12.1338L5.78093 13.337H4.18973Z" fill="#ED4C5C"/>
<path d="M4.65826 12.6385L4.36719 12.1339L4.65826 11.6294H5.35686L5.64793 12.1339L5.35686 12.6385H4.65826Z" fill="white"/>
<path d="M3.61102 6.68086L3.26172 6.13749L6.01721 3.53711L7.0263 5.03136L5.92018 6.68086H3.61102Z" fill="#83BF4F"/>
<path d="M3.9583 6.23472L3.55078 5.69134L5.5495 3.78955L6.40329 5.03156L5.5495 6.23472H3.9583Z" fill="#ED4C5C"/>
<path d="M3.49378 23.8745L3.14453 24.4179L5.84179 27.0183L6.85084 25.5629L5.74477 23.9134L3.49378 23.8745Z" fill="#FFE62E"/>
<path d="M3.80242 24.3403L3.45312 24.8837L5.39362 26.7855L6.24746 25.5823L5.45184 24.3791L3.80242 24.3403Z" fill="#ED4C5C"/>
<path d="M4.18973 20.1876L3.33594 18.9844L4.18973 17.7812H5.78093L6.63477 18.9844L5.78093 20.1876H4.18973Z" fill="#ED4C5C"/>
<path d="M4.65784 19.4886L4.30859 18.984L4.65784 18.4795H5.31764L5.66694 18.984L5.31764 19.4886H4.65784Z" fill="#FFE62E"/>
<path d="M4.44405 5.32273L4.25 5.03164L5.00677 4.33301L5.41429 4.83758L5.12322 5.34211H4.44405V5.32273Z" fill="#FFE62E"/>
<path d="M4.19014 25.2329L3.99609 25.524L4.79171 26.2809L5.19919 25.7375L4.84989 25.2329H4.19014Z" fill="white"/>
</svg>
