<svg width="30" height="31" viewBox="0 0 30 31" fill="none" xmlns="http://www.w3.org/2000/svg">
<path d="M15 0.435547V15.4364H0C0 23.7421 6.69471 30.4372 15 30.4372C23.3053 30.4372 30 23.7421 30 15.4364C30 7.13062 23.3053 0.435547 15 0.435547Z" fill="#2A5F9E"/>
<path d="M5.00781 5.44238H15.5059V15.941H5.00781V5.44238Z" fill="#2A5F9E"/>
<path d="M8.46059 3.48242V6.43212H4.8125L12.0117 15.4365H15.0195V11.6912L8.46059 3.48242Z" fill="white"/>
<path d="M4.50194 8.89652H1.49417C0.543329 10.8953 0 13.0882 0 15.4558H5.99611V6.4126H4.50194V8.89652Z" fill="white"/>
<path d="M15.0006 12.991L8.49995 4.9375H5.49219L13.9915 15.4362H15.0006V12.991Z" fill="#ED4C5C"/>
<path d="M8.45859 1.94937V4.9573H4.5V6.45155H14.9981V0.455076C12.6501 0.43567 10.4573 0.998481 8.45859 1.94937Z" fill="white"/>
<path d="M14.998 1.94922H8.43916C5.4314 3.40467 2.94756 5.908 1.49219 8.89652V15.4557H4.49995V4.93772H14.998V1.94922Z" fill="#ED4C5C"/>
<path d="M28.0006 12.7002V17.3576C28.0006 21.1612 26.5064 24.6543 22.0432 26.7501C17.5995 24.6543 16.0859 21.1418 16.0859 17.3576V12.7002H28.0006Z" fill="white"/>
<path d="M27.6114 13.1465V17.4546C27.6114 21.0059 26.2142 24.2467 22.0615 26.2067C17.9089 24.2661 16.5117 21.0059 16.5117 17.4546V13.1465H27.6114Z" fill="#FFCE31"/>
<path d="M19.501 15.048C19.2487 14.854 19.3069 15.048 19.2099 14.757C19.1129 14.5629 18.9188 14.5047 18.7636 14.4076C18.6666 14.3494 18.1621 13.6508 18.0068 13.709C17.8516 13.7672 17.8128 14.2136 17.8128 14.2524C17.7157 14.5435 17.871 14.5047 17.9098 14.6987C17.7546 14.6987 17.968 14.8928 18.0068 14.8928C17.9486 14.951 17.9486 14.9898 18.0068 15.048C17.7157 15.048 17.4635 15.3391 17.25 15.4943C17.4052 15.4943 17.4441 15.3973 17.5993 15.3973C17.7545 15.3973 17.8516 15.5526 18.0068 15.4943C17.9098 15.5914 17.7545 15.6884 17.7545 15.8437C17.6963 16.1348 17.347 16.1348 17.25 16.4453C17.444 16.8916 17.8904 16.9498 18.2979 17.2021C18.589 17.3961 18.8024 17.6096 18.9964 17.9007C19.1905 18.25 19.6368 18.7546 20.0055 18.1918C20.1995 17.8425 20.1025 17.0857 20.1025 16.6976C20.0637 16.29 20.0055 15.3391 19.501 15.048Z" fill="#FF9E3D"/>
<path d="M19.8494 14.0005C19.4419 14.4468 19.5001 14.6991 19.5001 15.2425C19.5001 15.7859 19.0538 15.8441 18.8985 16.2904C18.7433 16.795 19.4031 17.086 19.5001 17.5324C19.5583 17.7846 19.5583 18.0369 19.6942 18.231C19.7912 18.3862 20.2375 18.328 20.3927 18.231C20.5479 18.134 20.4509 17.8817 20.548 17.7264C20.645 17.5324 20.8973 17.5712 20.9943 17.4353C21.2465 17.086 21.2466 16.4262 21.0525 16.0769C20.9555 15.8829 21.1107 15.6306 20.8585 15.4754C20.6644 15.3201 20.7614 15.126 20.5674 14.9708C20.1987 14.6991 20.3539 14.1945 19.8494 14.0005Z" fill="#FF927F"/>
<path d="M19.9104 18.3474C20.3567 18.2504 20.3179 17.4935 20.2597 17.2025C20.2014 16.9114 20.0074 16.4456 20.1626 16.0963C20.3567 15.5918 19.9104 15.1454 20.0656 14.9514C20.1626 14.7573 20.1626 14.6603 20.1626 14.6021C20.1626 14.5439 20.0656 14.505 20.0656 14.6021C20.0656 14.7573 20.0074 14.7573 19.9686 14.8544C19.9104 14.9514 19.9104 15.1066 19.9686 15.3007C20.0268 15.4947 20.1626 15.8052 19.9686 16.1545C19.7745 16.5621 19.8715 16.6979 19.9104 16.9114C19.9104 17.183 20.2014 18.1922 19.9104 18.3474Z" fill="#FF9EE1"/>
<path d="M17.9102 14.1362C17.9684 14.1362 18.0654 14.1362 18.0654 14.1945Z" fill="#FF9E3D"/>
<path d="M17.8125 14.4855C17.8707 14.4273 17.9677 14.4855 18.0647 14.4272Z" fill="#FF9E3D"/>
<path d="M17.9102 14.7377C18.0072 14.7377 18.1042 14.7377 18.2012 14.6406Z" fill="#FF9E3D"/>
<path d="M18.0078 14.9897C18.066 14.9897 18.2018 14.9315 18.26 14.8345Z" fill="#FF9E3D"/>
<path d="M18.0469 15.145C18.2021 15.145 18.3962 15.2032 18.3962 15.145Z" fill="#FF9E3D"/>
<path d="M18.0469 15.5916C18.1439 15.4946 18.3961 15.4364 18.4544 15.3394Z" fill="#FF9E3D"/>
<path d="M18.3008 14.0972C18.456 14.1554 18.3978 14.2524 18.4948 14.2912C18.6501 14.3883 18.4948 14.5435 18.65 14.5435C18.7471 14.6017 18.7471 14.6017 18.7471 14.7376C18.6888 14.8928 18.8441 14.8928 18.8053 14.9899" fill="#FF9E3D"/>
<path d="M19.2126 14.9316C19.1544 14.9316 18.9603 14.9316 18.8633 15.1257Z" fill="#FF9E3D"/>
<path d="M17.8125 16.8916C17.9095 16.8916 17.9095 16.8334 17.9677 16.8334C17.9677 16.7752 18.0259 16.7364 18.0647 16.7364C18.1229 16.7364 18.2588 16.7364 18.2588 16.6393C18.2588 16.5423 18.3558 16.6393 18.4528 16.4841C18.511 16.3288 18.5498 16.193 18.7439 16.1348" fill="#FF9E3D"/>
<path d="M23.0542 19.7832C23.1513 19.8802 23.0542 20.0355 23.1513 20.0743C23.3065 20.1325 23.1513 20.3266 23.3453 20.3654C23.5005 20.4236 23.3453 20.6177 23.5005 20.7147C23.6557 20.8117 23.4423 20.967 23.6946 21.064C23.9468 21.161 23.6363 21.4133 23.7916 21.4715C23.9468 21.5297 23.7334 21.7626 23.9468 21.8791C24.1409 21.9761 23.8498 22.1313 24.0439 22.2866C24.1991 22.4418 23.9857 22.5777 24.1991 22.7329C24.3932 22.8881 24.1021 22.9852 24.2573 23.1792C24.4126 23.3345 24.1991 23.4315 24.3156 23.6256C24.3738 23.7808 24.2573 24.266 23.908 24.2272C23.7528 24.4212 23.3065 24.6347 23.1124 24.5765C22.9184 24.7317 22.3556 24.8676 22.0646 24.6347C21.7735 24.9258 21.2108 24.7317 21.0167 24.5765C20.8227 24.6347 20.3763 24.4212 20.2211 24.2272C19.8718 24.2854 19.7165 23.7808 19.8136 23.6256C19.9106 23.4315 19.7166 23.3345 19.8718 23.1792C20.027 23.024 19.7748 22.8881 19.93 22.7329C20.0853 22.5777 19.8718 22.4418 20.0853 22.2866C20.2405 22.1313 19.9882 21.9955 20.1823 21.8791C20.3763 21.7626 20.1241 21.5879 20.3375 21.4715C20.4928 21.3745 20.2405 21.1805 20.4346 21.064C20.6286 20.967 20.4928 20.7729 20.6286 20.7147C20.7839 20.6177 20.6286 20.4624 20.7838 20.3654C20.9779 20.3072 20.842 20.1131 20.9779 20.0743C21.1137 20.0355 21.0361 19.919 21.1331 19.7832C21.4048 19.9385 22.6079 20.0355 23.0542 19.7832Z" fill="#699635"/>
<path d="M23.1108 19.6863C23.1108 19.6863 23.0525 19.628 23.0137 19.628C22.9555 18.4249 22.7615 17.9785 22.0629 17.9785C21.3643 17.9785 21.1703 18.4249 21.1121 19.628C21.0539 19.628 21.0539 19.628 21.0151 19.6863C20.918 19.7833 20.918 19.8803 21.2091 19.9773C21.4032 20.0744 21.7524 20.1326 22.0629 20.1326C22.3734 20.1326 22.6644 20.0744 22.9167 19.9773C23.1496 19.8997 23.1496 19.8415 23.1108 19.6863Z" fill="#ED4C5C"/>
<path d="M26.3124 16.1348V15.7855L27.4185 15.6884L26.3124 15.5914V15.4362L26.2542 15.1451L27.3603 14.9511L26.2154 15.0092L26.0602 14.7181L26.8558 14.0778L25.9049 14.5823L25.4974 14.3883L25.09 13.7867L25.1481 13.5926L24.7407 14.4853V14.7764L24.7989 14.9704L24.7407 14.6793V14.3883L24.3331 13.4956L24.3914 13.6897L23.9838 14.2912L23.5764 14.4853L22.6255 13.9808L23.4211 14.6211L23.2659 14.9122L22.1598 14.9704L23.2659 15.1645L23.2076 15.4556V15.6108L22.1016 15.7079L23.2076 15.8049V16.1542L22.1986 16.5617L23.2076 16.3095L23.3047 18.4635L23.0524 19.8607L23.4599 18.5605L23.4017 16.3095L23.945 16.4647L24.0421 16.717L24.1003 17.0081L24.1973 17.2603V17.3186L24.2555 17.6097L24.3138 17.9008L24.3719 18.153L24.469 18.2501L24.0227 18.6964L23.9645 19.1039L24.2555 19.0069L24.3138 19.3562L24.469 19.298L24.566 19.4532L24.76 19.0457L24.9541 19.4532L25.0511 19.298L25.2064 19.3562L25.2646 19.0069L25.5557 19.1039L25.4974 18.7546L25.0511 18.3082L25.1481 18.2112L25.2064 17.959L25.2646 17.6679L25.3228 17.3768V17.3186L25.4198 17.0663L25.478 16.7752L25.5751 16.5229L26.1184 16.3677L26.0602 18.6188L26.4677 19.919L26.1766 18.4635L26.2736 16.3095L27.2827 16.5617L26.3124 16.1348ZM24.5466 14.8928L24.1973 14.4853L24.5466 14.7376V14.8928ZM24.4496 15.0481L24.3914 15.1063L23.7898 14.66L24.0809 14.5629L24.4496 15.0481ZM24.4496 13.7478L24.6436 14.3883V14.4853L24.1973 14.33L24.4496 13.7478ZM23.654 14.7958L24.2555 15.2421L24.1973 15.3392L23.654 15.0869L23.5569 15.0287L23.654 14.7958ZM23.4599 15.4362L23.5181 15.1839L24.1197 15.475V15.6303L24.0615 15.7855L23.654 15.6303L23.4599 15.572V15.4362ZM23.4599 16.1348V15.8437L24.0615 16.0378V16.29L23.5569 16.193L23.4599 16.1348ZM25.2064 15.0869L25.1481 15.0287L25.5557 14.5241L25.8467 14.6211L25.2064 15.0869ZM25.0511 14.8928V14.7958L25.4004 14.5435L25.0511 14.8928ZM25.4586 15.3392L25.4004 15.2421L26.002 14.7958L26.099 15.0481H26.002L25.4586 15.3392ZM25.2064 13.7478L25.4586 14.2912L25.0123 14.4853V14.3883L25.2064 13.7478ZM25.4974 15.4944L26.099 15.2033L26.1572 15.4556V15.6108L26.002 15.6691L25.5945 15.8243L25.4974 15.6691V15.4944ZM26.099 16.1348L25.5945 16.2318V15.9795L26.196 15.7855V16.0766L26.099 16.1348Z" fill="#B95A1E"/>
</svg>
