<svg width="30" height="31" viewBox="0 0 30 31" fill="none" xmlns="http://www.w3.org/2000/svg">
<path d="M22.5 22.9403C26.6421 18.798 26.6422 12.0819 22.5 7.93953C18.3579 3.79718 11.6421 3.79718 7.50001 7.93953C3.35787 12.0819 3.35787 18.798 7.5 22.9403C11.6421 27.0827 18.3579 27.0827 22.5 22.9403Z" fill="#ED4C5C"/>
<path d="M18.288 17.9239L18.3291 16.0165L16.4219 15.4539L18.3291 14.8913L18.288 12.9839L19.4543 14.5071L21.3616 13.9444L20.1953 15.4676L21.3616 16.9908L19.4543 16.4282L18.288 17.9239Z" fill="white"/>
<path d="M15.4367 19.6805C13.104 19.6805 11.2242 17.7731 11.2242 15.4403C11.2242 13.1076 13.104 11.2002 15.4367 11.2002C16.3148 11.2002 17.1381 11.4883 17.8379 11.9412C16.8774 10.8434 15.4641 10.1436 13.8724 10.1436C10.9772 10.1436 8.64453 12.5175 8.64453 15.454C8.64453 18.3906 10.9772 20.7645 13.8724 20.7645C15.4641 20.7645 16.8774 20.051 17.8379 18.9669C17.1656 19.4061 16.356 19.6805 15.4367 19.6805Z" fill="white"/>
</svg>
