<svg width="30" height="31" viewBox="0 0 30 31" fill="none" xmlns="http://www.w3.org/2000/svg">
<path d="M5.00391 5.37158H15.4952V15.8634H5.00391V5.37158Z" fill="#2A5F9E"/>
<path d="M15.0098 0.368164V15.3593H0.0195312C0.0195312 23.6597 6.70991 30.3504 15.0098 30.3504C23.3098 30.3504 30.0001 23.6597 30.0001 15.3593C30.0001 7.0589 23.2904 0.368164 15.0098 0.368164Z" fill="#5B97B1"/>
<path d="M15.0097 0.368164C12.6632 0.368164 10.4719 0.91117 8.45505 1.86145V4.86743H4.49902V8.82366H1.4932C0.542977 10.8212 0 13.0127 0 15.3786H5.99227V7.87341L11.9845 15.3786H14.9903V11.6357L10.8015 6.38012H14.9903V0.368164" fill="white"/>
<path d="M6.71094 6.36084L14.0025 15.3594H15.0109V12.9158L9.71676 6.36084H6.71094Z" fill="#ED4C5C"/>
<path d="M15.0088 1.88086H8.45415C5.44833 3.33537 2.96615 5.83708 1.51172 8.82366V15.3786H4.51754V4.86743H15.0088V1.88086Z" fill="#ED4C5C"/>
<path d="M13.4602 24.4549L13.1693 23.4077L12.8202 24.4549H11.7148L12.6069 25.0562L12.2578 26.1034L13.1499 25.4634L14.0031 26.1034L13.6541 25.0562L14.5461 24.4549H13.4602Z" fill="#FFE62E"/>
<path d="M17.8999 23.6595L18.1908 22.6123L17.3376 23.2523L16.4843 22.6123L16.7752 23.6595L15.9219 24.2607H16.9691L17.3182 25.308L17.6672 24.2607H18.7145L17.8999 23.6595Z" fill="#FFE62E"/>
<path d="M18.1908 19.0054L17.3376 19.6454L16.4843 19.0054L16.7752 20.0139L15.9219 20.6732H16.9691L17.3182 21.7204L17.6672 20.6732H18.7145L17.8611 20.0139L18.1908 19.0054Z" fill="#FFE62E"/>
<path d="M21.6033 22.7091L21.9523 21.7007L21.0603 22.3407L20.207 21.7007L20.5561 22.7091L19.6641 23.3491H20.7694L21.0603 24.3576L21.4094 23.3491H22.5147L21.6033 22.7091Z" fill="#FFE62E"/>
<path d="M20.7501 15.5142L21.0409 16.5227L21.39 15.5142H22.4954L21.6033 14.8742L21.9523 13.8657L21.0603 14.5057L20.207 13.8657L20.5561 14.8742L19.6641 15.5142H20.7501Z" fill="#FFE62E"/>
<path d="M23.8547 19.9552L23.5056 18.9468L23.2147 19.9552H22.1094L22.9626 20.5952L22.6717 21.6037L23.525 21.0025L24.417 21.6037L24.0679 20.5952L24.9213 19.9552H23.8547Z" fill="#FFE62E"/>
<path d="M23.8517 14.467L24.2008 15.4755L24.5498 14.467H25.5971L24.7437 13.827L25.0928 12.7798L24.2008 13.4198L23.3475 12.7798L23.6384 13.827L22.7852 14.467H23.8517Z" fill="#FFE62E"/>
<path d="M26.9953 17.9579L26.6463 16.9106L26.2972 17.9579H25.25L26.1032 18.5591L25.8124 19.6063L26.6657 18.9663L27.5577 19.6063L27.2086 18.5591L28.0619 17.9579H26.9953Z" fill="#FFE62E"/>
<path d="M26.1034 11.6743L25.8125 12.6828L26.6658 12.0816L27.5578 12.6828L27.2088 11.6743L28.062 11.0343H27.0148L26.6658 10.0259L26.3167 11.0343H25.2695L26.1034 11.6743Z" fill="#FFE62E"/>
</svg>
