<svg width="30" height="31" viewBox="0 0 30 31" fill="none" xmlns="http://www.w3.org/2000/svg">
<path d="M15.0014 0.416992C10.5577 0.416992 6.56019 2.3576 3.80469 5.42375H26.1592C23.4426 2.37701 19.4451 0.416992 15.0014 0.416992Z" fill="#3E4347"/>
<path d="M26.1984 5.42383H3.80497C2.56305 6.87928 1.49583 8.56756 0.855469 10.4305H29.1479C28.5075 8.56756 27.4403 6.87928 26.1984 5.42383Z" fill="#FFE62E"/>
<path d="M29.1462 10.4307H0.8538C0.310461 11.9831 0 13.6715 0 15.4374H30C30 13.6715 29.6895 11.9637 29.1462 10.4307Z" fill="#ED4C5C"/>
<path d="M30 15.418H0C0 17.1645 0.291056 18.8722 0.8538 20.4247H29.1462C29.6895 18.8722 30 17.1645 30 15.418Z" fill="#3E4347"/>
<path d="M29.1479 20.4248H0.855469C1.51524 22.2684 2.50483 23.9761 3.80497 25.4316H26.1595C27.4403 23.9761 28.5075 22.2684 29.1479 20.4248Z" fill="#FFE62E"/>
<path d="M26.1981 25.4316H3.80469C6.56019 28.4784 10.5577 30.4384 15.0014 30.4384C19.4451 30.419 23.4426 28.4784 26.1981 25.4316Z" fill="#ED4C5C"/>
<path d="M18.5265 18.9582C20.4816 17.003 20.4816 13.833 18.5265 11.8778C16.5713 9.92252 13.4014 9.92248 11.4463 11.8777C9.49117 13.833 9.49121 17.003 11.4463 18.9582C13.4015 20.9135 16.5713 20.9135 18.5265 18.9582Z" fill="white"/>
<path d="M14.4973 11.4199C15.0406 11.4199 15.5064 11.8663 15.5064 12.429C15.5064 12.9918 15.06 13.4381 14.4973 13.4381C13.9345 13.4381 13.4883 12.9918 13.4883 12.429C13.4883 11.8663 13.9539 11.4199 14.4973 11.4199Z" fill="#3E4347"/>
<path d="M14.7461 16.9316L14.9983 19.9396H15.2505V16.9316H14.7461Z" fill="#3E4347"/>
<path d="M14.4961 19.6673V19.9196H15.5052V19.415L14.4961 19.6673Z" fill="#3E4347"/>
<path d="M16.4565 18.018C15.9131 17.1642 15.4085 16.3685 14.8652 15.5147C14.71 15.2624 14.2637 15.5146 14.4189 15.7669C14.8652 16.4655 15.3116 17.1642 15.7773 17.921H13.9727V18.1733C14.8265 18.1733 15.3697 18.4256 16.2236 18.4256C16.4564 18.4256 16.5535 18.2315 16.4565 18.018Z" fill="#3E4347"/>
<path d="M15.9494 15.4758C15.4061 15.2817 14.2418 15.0294 14.9986 12.9336H14.106C14.106 12.9336 11.9133 17.2805 16.0077 17.2805C16.9003 17.2805 17.3078 18.0374 17.3078 18.93C17.2496 18.93 18.3363 16.3296 15.9494 15.4758Z" fill="#3E4347"/>
<path d="M13.7383 17.6689L13.9905 18.678H14.2428V17.6689H13.7383Z" fill="#3E4347"/>
<path d="M14.4948 11.9248L12.4961 12.9339H14.4948V11.9248Z" fill="#3E4347"/>
<path d="M16.4961 15.7285V17.378C16.4961 17.378 17.2917 17.7273 16.9424 18.9305L17.4857 19.1828C17.5051 19.1828 18.3978 16.7764 16.4961 15.7285Z" fill="#ED4C5C"/>
<path d="M14.7461 15.418C14.7461 15.418 14.7461 16.7182 15.988 16.7182C15.988 16.7182 16.4925 15.418 14.7461 15.418Z" fill="#94989B"/>
<path d="M14.2041 14.4668C14.4564 14.4668 14.6505 14.8161 14.6505 15.2625C14.6505 15.7088 14.4564 16.0581 14.2041 16.0581C13.9518 16.0581 13.7578 15.7088 13.7578 15.2625C13.7578 14.8161 13.9518 14.4668 14.2041 14.4668Z" fill="#94989B"/>
</svg>
