<svg width="30" height="30" viewBox="0 0 30 30" fill="none" xmlns="http://www.w3.org/2000/svg">
<g clip-path="url(#clip0_246_23203)">
<path d="M2.64181 6.50073C1.67451 7.90472 0.939396 9.48116 0.493652 11.1755H7.31687L2.64181 6.50073Z" fill="#29337A"/>
<path d="M10.7991 0.600464C9.0708 1.10378 7.47022 1.90692 6.06079 2.95446L10.7991 7.69272V0.600464Z" fill="#29337A"/>
<path d="M6.41333 27.2958C7.73536 28.2209 9.21237 28.9371 10.7992 29.3992V22.9106L6.41333 27.2958Z" fill="#29337A"/>
<path d="M0.665771 19.4291C1.16174 21.0356 1.92175 22.526 2.89303 23.8519L7.31583 19.4291H0.665771Z" fill="#29337A"/>
<path d="M2.88912 6.15247C2.80526 6.2671 2.72261 6.38338 2.64161 6.50087L7.31666 11.1757H0.493448C0.382867 11.5965 0.292616 12.0255 0.218262 12.4603H9.19749L2.88912 6.15247Z" fill="white"/>
<path d="M6.06519 27.0483C6.17931 27.1333 6.29661 27.2143 6.41308 27.2958L10.799 22.9104V29.399C11.2203 29.5222 11.6483 29.6285 12.0836 29.714V21.03L6.06519 27.0483Z" fill="white"/>
<path d="M0.332275 18.1444C0.425376 18.5797 0.535261 19.0084 0.665285 19.4291H7.31541L2.89261 23.8519C3.37363 24.5091 3.90703 25.1258 4.4866 25.6962L12.0383 18.1444H0.332275Z" fill="white"/>
<path d="M10.7991 0.600423V7.69268L6.06079 2.95467C5.40756 3.44044 4.79696 3.97973 4.2312 4.56354L12.0835 12.4159V0.2854C11.6484 0.371408 11.2205 0.477999 10.7991 0.600423Z" fill="white"/>
<path d="M10.7992 19.3838L10.7542 19.4291H10.7992V19.3838Z" fill="#D32030"/>
<path d="M12.0388 18.1443H12.0838V18.0991L12.0388 18.1443Z" fill="#D32030"/>
<path d="M17.8114 12.4602H17.7681V12.5038L17.8114 12.4602Z" fill="#D32030"/>
<path d="M10.8433 11.1757L10.7991 11.1312V11.1757H10.8433Z" fill="#D32030"/>
<path d="M12.0837 12.4158V12.4601H12.1281L12.0837 12.4158Z" fill="#D32030"/>
<path d="M19.0522 26.0786V29.4411C20.6597 28.9911 22.1585 28.2817 23.499 27.3576L19.8556 23.7142C19.5645 24.7371 19.458 25.266 19.0522 26.0786Z" fill="#252F6C"/>
<path d="M19.8748 6.86988L23.8521 2.89258C22.4233 1.84618 20.8023 1.04874 19.0522 0.558472V4.01258C19.52 4.94928 19.5594 5.66103 19.8748 6.86988Z" fill="#252F6C"/>
<path d="M27.0454 23.9392C28.047 22.5917 28.8276 21.0708 29.3347 19.429H22.5352L27.0454 23.9392Z" fill="#252F6C"/>
<path d="M29.5064 11.1757C29.0511 9.4455 28.294 7.83948 27.2962 6.41345L22.5334 11.1757H29.5064Z" fill="#252F6C"/>
<path d="M20.7507 18.3984L21.7815 19.4292L26.7154 24.3631C26.8274 24.2229 26.9387 24.0832 27.0458 23.9394L22.5356 19.4292H29.3351C29.4647 19.0088 29.5748 18.5799 29.6676 18.1445H20.8471C20.8327 18.3267 20.768 18.2175 20.7507 18.3984Z" fill="#E7E7E7"/>
<path d="M19.7191 7.6221L24.1909 3.14978C24.0789 3.06288 23.9666 2.97643 23.8522 2.89258L19.8749 6.86988C19.9161 7.02714 19.6807 7.46104 19.7191 7.6221Z" fill="#E7E7E7"/>
<path d="M19.0525 3.73614V0.558168C18.6316 0.440241 18.2032 0.3403 17.7678 0.258789V1.80895C18.2458 2.32715 18.6743 2.97803 19.0525 3.73614Z" fill="#E7E7E7"/>
<path d="M20.6495 12.4601H29.7819C29.7078 12.0253 29.6173 11.5965 29.5067 11.1754H22.5338L27.2965 6.41323C26.8283 5.74436 26.3079 5.11533 25.7395 4.53247L20.375 9.89647C20.5195 10.8695 20.5841 11.4345 20.6495 12.4601Z" fill="#E7E7E7"/>
<path d="M19.6392 23.497L23.4995 27.3577C24.1416 26.9155 24.7462 26.4234 25.3104 25.8891L20.2327 20.8112C20.0707 21.7503 19.8784 22.6573 19.6392 23.497Z" fill="#E7E7E7"/>
<path d="M17.7681 28.0126V29.7403C18.2034 29.6593 18.6316 29.5589 19.0527 29.441V26.0785C18.6742 26.8369 18.2458 27.4951 17.7681 28.0126Z" fill="#E7E7E7"/>
<path d="M20.375 9.89649L25.739 4.53249C25.256 4.03652 24.7383 3.57494 24.1907 3.14978L19.9758 7.36535C20.1632 8.14834 20.2482 9.04458 20.375 9.89649Z" fill="#D71F28"/>
<path d="M14.2512 0.0184935C14.5011 0.00639672 14.7503 0 14.9996 0C14.7488 0 14.4992 0.00639672 14.2512 0.0184935Z" fill="#D32030"/>
<path d="M14.9997 30C14.7503 30 14.5011 29.9932 14.2517 29.9811C14.4997 29.9936 14.7489 30 14.9997 30Z" fill="#D32030"/>
<path d="M14.9998 30C15.9462 30 16.8703 29.9084 17.768 29.7404V28.0127C16.98 28.8668 16.0583 30 14.9998 30Z" fill="#D32030"/>
<path d="M29.7817 12.4601H20.768C20.8874 14.3414 20.8729 16.2759 20.7249 18.1443H29.6676C29.8841 17.1299 30.0001 16.0788 30.0001 15.0002C30.0001 14.1338 29.9229 13.2864 29.7817 12.4601Z" fill="#D71F28"/>
<path d="M20.7506 18.3984C20.6673 19.2847 20.3769 19.9753 20.2324 20.8114L25.3101 25.8891C25.8125 25.413 26.2821 24.9038 26.715 24.3631L21.7813 19.4289L20.7506 18.3984Z" fill="#D71F28"/>
<path d="M17.768 1.92054V0.259099C16.8706 0.0916441 15.9465 0 14.9998 0C16.0583 0 16.98 1.06673 17.768 1.92054Z" fill="#D32030"/>
<path d="M19.0525 26.7274C19.4582 25.9146 19.8061 24.9788 20.0974 23.9561L19.0525 22.9111V26.7274Z" fill="#29337A"/>
<path d="M20.2275 6.51748C19.9115 5.30863 19.5203 4.20966 19.0525 3.27295V7.69195L20.2275 6.51748Z" fill="#29337A"/>
<path d="M21.0418 18.6894C21.0589 18.5085 21.0742 18.3268 21.0889 18.1444H20.4968L21.0418 18.6894Z" fill="white"/>
<path d="M19.0525 7.69202V3.27277C18.674 2.51466 18.2458 1.86334 17.7678 1.34558V9.57304L20.3477 6.99313C20.3089 6.83207 20.2681 6.67431 20.2274 6.51705L19.0525 7.69202Z" fill="white"/>
<path d="M17.8113 12.4602H21.1318C21.0667 11.4347 20.963 10.4257 20.8187 9.453L17.8113 12.4602Z" fill="white"/>
<path d="M17.7681 28.6543C18.246 28.1361 18.6742 27.4853 19.0527 26.7271V22.9109L20.0977 23.9558C20.3373 23.1158 20.5384 22.2183 20.7009 21.2793L17.7681 18.3467L17.7681 28.6543Z" fill="white"/>
<path d="M17.768 28.6543V18.3466L20.7006 21.2794C20.8448 20.4431 20.9583 19.5758 21.0414 18.6893L20.4964 18.1443H21.0885C21.2366 16.2759 21.251 14.3413 21.1317 12.4601H17.8111L20.8184 9.4529C20.6916 8.60074 20.5349 7.77652 20.3475 6.99327L17.7681 9.57317V1.34572C16.98 0.491661 16.0582 0 14.9997 0C14.7503 0 14.5012 0.00639672 14.2513 0.0184935C13.5136 0.0554172 12.79 0.146175 12.0837 0.285446V12.4159L4.23121 4.56352C3.74873 5.06139 3.29995 5.59188 2.88923 6.15251L7.91243 11.1757L9.19754 12.4604H0.218375C0.0777107 13.2864 0 14.1338 0 15.0003C0 16.0791 0.116534 17.1299 0.332503 18.1443H12.0388L4.48702 25.6961C4.98153 26.1819 5.50802 26.6342 6.06536 27.0482L12.0835 21.03V29.7141C12.7898 29.8534 13.5138 29.9441 14.2516 29.9811C14.501 29.9932 14.7501 30 14.9996 30C16.0582 30 16.98 29.5083 17.768 28.6543Z" fill="#E51D35"/>
</g>
<defs>
<clipPath id="clip0_246_23203">
<rect width="30" height="30" fill="white"/>
</clipPath>
</defs>
</svg>
