<svg width="30" height="32" viewBox="0 0 30 32" fill="none" xmlns="http://www.w3.org/2000/svg">
<path d="M0 15.983C0 22.5422 4.19146 28.0923 9.99353 30.13V1.83606C4.19146 3.89309 0 9.44317 0 15.983Z" fill="#ED4C5C"/>
<path d="M14.9987 0.982178C13.2522 0.982178 11.5446 1.27325 9.99219 1.83602V10.9956H29.1448C27.1073 5.19324 21.5575 0.982178 14.9987 0.982178Z" fill="#699635"/>
<path d="M29.1448 10.9955H9.99219V20.9895H29.1448C29.6882 19.4371 29.9987 17.7487 29.9987 15.9828C29.9987 14.2363 29.7076 12.5286 29.1448 10.9955Z" fill="#F9F9F9"/>
<path d="M9.99219 20.9896V30.1492C11.5446 30.6926 13.2328 31.0031 14.9987 31.0031C21.5575 31.0031 27.1073 26.8502 29.1448 21.009H9.99219V20.9896Z" fill="#3E4347"/>
</svg>
