<svg width="30" height="30" viewBox="0 0 30 30" fill="none" xmlns="http://www.w3.org/2000/svg">
<path d="M22.9871 2.30793C20.6437 0.855302 17.9516 0.00311279 15.0078 0.00311279V2.30793H22.9871Z" fill="#ED4C5C"/>
<path d="M15.0078 4.59338H25.7954C24.9432 3.74117 23.9943 2.94704 23.0065 2.28851H15.0272V4.59338H15.0078Z" fill="white"/>
<path d="M15.0078 6.89826H27.6353C27.093 6.04605 26.4926 5.31007 25.8341 4.59344H15.0078V6.89826Z" fill="#ED4C5C"/>
<path d="M15.0078 9.18366H28.8361C28.4875 8.38956 28.0808 7.59548 27.6353 6.87885H15.0078V9.18366Z" fill="white"/>
<path d="M15.0116 11.4886H29.5758C29.3821 10.6945 29.1303 9.93914 28.8205 9.18378H14.9922V11.4886H15.0116Z" fill="#ED4C5C"/>
<path d="M15.0078 13.832H29.9207C29.8626 13.0379 29.727 12.2826 29.572 11.5272H15.0078V13.832Z" fill="white"/>
<path d="M29.9229 13.8322H15.01V14.9749H0.0390625C0.0390625 15.3817 0.039072 15.7303 0.097174 16.1177H29.9422C30.0003 15.711 30.0003 15.3623 30.0003 14.9749C29.981 14.5876 29.981 14.1808 29.9229 13.8322Z" fill="#ED4C5C"/>
<path d="M0.426735 18.4224H29.5746C29.7683 17.667 29.8651 16.931 29.9232 16.1176H0.078125C0.136227 16.8729 0.233061 17.667 0.426735 18.4224Z" fill="white"/>
<path d="M1.18111 20.7272H28.8377C29.1282 19.9718 29.38 19.2358 29.593 18.4223H0.425781C0.638822 19.2164 0.871235 19.9718 1.18111 20.7272Z" fill="#ED4C5C"/>
<path d="M2.38046 23.0127H27.6355C28.0809 22.2573 28.4876 21.5214 28.8362 20.7079H1.17969C1.5283 21.5214 1.93502 22.2573 2.38046 23.0127Z" fill="white"/>
<path d="M4.16461 25.3175H25.8173C26.4564 24.6202 27.1149 23.8261 27.6185 23.0126H2.38281C2.867 23.8648 3.52549 24.6202 4.16461 25.3175Z" fill="#ED4C5C"/>
<path d="M6.97233 27.6031H23.0472C24.0931 26.9639 24.9839 26.1504 25.8361 25.2982H4.16406C5.01623 26.2085 5.96523 26.9639 6.97233 27.6031Z" fill="white"/>
<path d="M15.0101 29.9465C17.9539 29.9465 20.7041 29.0943 23.0475 27.603H6.97266C9.3161 29.0943 12.0663 29.9465 15.0101 29.9465Z" fill="#ED4C5C"/>
<path d="M7.01097 2.30783C5.96513 2.94699 5.01614 3.76044 4.16398 4.61265C3.46675 5.30991 2.86636 6.10404 2.36281 6.91751C1.91736 7.67288 1.47192 8.40886 1.16204 9.22233C0.87153 9.9777 0.61975 10.7137 0.406709 11.5272C0.213036 12.2826 0.116202 13.0185 0.0580996 13.832C-2.36649e-06 14.2387 0 14.6261 0 15.0328H14.9709V0.0610803C12.0658 0.00297517 9.35441 0.855203 7.01097 2.30783Z" fill="#428BC1"/>
<path d="M11.5032 0.506592L11.755 1.26199H12.5103L11.9099 1.76554L12.1036 2.52093L11.5032 2.07545L10.9028 2.52093L11.0965 1.76554L10.4961 1.26199H11.2514L11.5032 0.506592Z" fill="white"/>
<path d="M13.4993 3.50861L13.7511 4.264H14.5064L13.906 4.76755L14.0997 5.52295L13.4993 5.07746L12.8989 5.52295L13.0926 4.76755L12.4922 4.264H13.2475L13.4993 3.50861Z" fill="white"/>
<path d="M9.51101 3.50861L9.76278 4.264H10.5181L9.91772 4.76755L10.1114 5.52295L9.51101 5.07746L8.91063 5.52295L9.1043 4.76755L8.50391 4.264H9.25924L9.51101 3.50861Z" fill="white"/>
<path d="M11.5032 6.49152L11.755 7.24686H12.5103L11.9099 7.75046L12.1036 8.50581L11.5032 8.06033L10.9028 8.50581L11.0965 7.75046L10.4961 7.24686H11.2514L11.5032 6.49152Z" fill="white"/>
<path d="M7.51492 6.49152L7.76669 7.24686H8.52202L7.92163 7.75046L8.1153 8.50581L7.51492 8.06033L6.91452 8.50581L7.1082 7.75046L6.50781 7.24686H7.26314L7.51492 6.49152Z" fill="white"/>
<path d="M3.52662 6.49152L3.77841 7.24686H4.53373L3.93334 7.75046L4.12702 8.50581L3.52662 8.06033L2.92624 8.50581L3.11991 7.75046L2.51953 7.24686H3.27485L3.52662 6.49152Z" fill="white"/>
<path d="M13.4993 9.49359L13.7511 10.2489H14.5064L13.906 10.7525L14.0997 11.5079L13.4993 11.0624L12.8989 11.5079L13.0926 10.7525L12.4922 10.2489H13.2475L13.4993 9.49359Z" fill="white"/>
<path d="M9.51101 9.49359L9.76278 10.2489H10.5181L9.91772 10.7525L10.1114 11.5079L9.51101 11.0624L8.91063 11.5079L9.1043 10.7525L8.50391 10.2489H9.25924L9.51101 9.49359Z" fill="white"/>
<path d="M5.51882 9.49359L5.7706 10.2489H6.52591L5.92553 10.7525L6.11921 11.5079L5.51882 11.0624L4.91843 11.5079L5.1121 10.7525L4.51172 10.2489H5.26704L5.51882 9.49359Z" fill="white"/>
<path d="M11.5032 12.4763L11.755 13.2316H12.5103L11.9099 13.7352L12.1036 14.4905L11.5032 14.0451L10.9028 14.4905L11.0965 13.7352L10.4961 13.2316H11.2514L11.5032 12.4763Z" fill="white"/>
<path d="M7.51492 12.4763L7.76669 13.2316H8.52202L7.92163 13.7352L8.1153 14.4905L7.51492 14.0451L6.91452 14.4905L7.1082 13.7352L6.50781 13.2316H7.26314L7.51492 12.4763Z" fill="white"/>
<path d="M3.52662 12.4763L3.77841 13.2316H4.53373L3.93334 13.7352L4.12702 14.4905L3.52662 14.0451L2.92624 14.4905L3.11991 13.7352L2.51953 13.2316H3.27485L3.52662 12.4763Z" fill="white"/>
<path d="M4.91892 5.50379L5.51932 5.05831L6.1197 5.50379L5.86793 4.74845L6.46831 4.24485H5.71299L5.51932 3.4895L5.26753 4.24485H4.57031L5.1707 4.69033L4.91892 5.50379Z" fill="white"/>
<path d="M0.927892 11.4885L1.52827 11.0431L2.12867 11.4885L1.87688 10.7332L2.47728 10.2296H1.78005L1.52827 9.47424L1.2765 10.2296H0.772955C0.772955 10.2877 0.714844 10.3264 0.714844 10.3845L1.12156 10.6751L0.927892 11.4885Z" fill="white"/>
</svg>
