<svg width="30" height="31" viewBox="0 0 30 31" fill="none" xmlns="http://www.w3.org/2000/svg">
<path d="M29.8256 13.8946H29.1279V10.8906C28.624 9.437 27.8876 8.0997 26.9767 6.89809H23.9729V3.89405C21.4729 1.99472 18.3721 0.890015 14.9806 0.890015C6.68604 0.890015 0 7.57643 0 15.8714C0 16.5692 0.0581372 17.2281 0.155036 17.8677H0.852718V20.8717C1.35659 22.3253 2.09302 23.6625 3.00388 24.8642H6.00775V27.8682C8.50775 29.7675 11.6085 30.8722 15 30.8722C18.3915 30.8722 21.4922 29.7675 23.9922 27.8682V24.8642H26.9961C27.8876 23.6625 28.6434 22.3253 29.1473 20.8717V17.8677H29.845C29.9419 17.2087 30 16.5692 30 15.8714C30 15.1737 29.9225 14.5536 29.8256 13.8946Z" fill="#F9F9F9"/>
<path d="M0.853932 20.8911H29.1097C29.4586 19.9414 29.7105 18.953 29.8074 17.887H0.15625C0.253149 18.9336 0.505094 19.9414 0.853932 20.8911Z" fill="#428BC1"/>
<path d="M3.00391 24.8837C3.85662 26.0271 4.84499 27.0349 6.00778 27.8877H23.9729C25.1163 27.0349 26.1241 26.0465 26.9768 24.8837H3.00391Z" fill="#428BC1"/>
<path d="M14.9803 6.89805H26.9571C26.1044 5.75458 25.116 4.74677 23.9532 3.89401H14.9609V6.89805" fill="#428BC1"/>
<path d="M14.9805 13.8947H29.8061C29.651 12.8481 29.3991 11.8403 29.1084 10.8906H14.9805V13.8947Z" fill="#428BC1"/>
<path d="M7.34578 12.3054L6.6481 12.8093C6.24113 13.759 6.39616 14.166 6.4543 14.5148L6.10547 15.3676C7.46206 14.9218 6.29927 14.1272 8.15974 12.7705L7.71399 12.0728L7.34578 12.3054Z" fill="#FCD116"/>
<path d="M6.04688 15.3869L6.4151 14.4954C6.4151 14.4566 6.39571 14.4179 6.39571 14.3791C6.33757 14.0497 6.26005 13.6426 6.62827 12.8093L7.32594 12.3247H7.34533L7.71354 12.0534L7.73292 12.0728L8.19803 12.7899L8.17866 12.8093C7.20967 13.507 7.07401 14.0496 6.95773 14.4954C6.86083 14.883 6.78331 15.1931 6.1244 15.4063L6.04688 15.3869ZM6.66703 12.8093C6.3182 13.6233 6.39571 14.0303 6.45385 14.3597C6.45385 14.3985 6.47323 14.4566 6.47323 14.4954L6.14377 15.29C6.72517 15.0768 6.80269 14.8055 6.89959 14.4179C7.01587 13.9721 7.15153 13.4295 8.12052 12.7124L7.69416 12.0534L6.66703 12.8093Z" fill="black"/>
<path d="M6.93789 11.5495L6.53092 11.4913L5.73635 11.3363C4.78674 11.7433 4.59294 12.1309 4.37976 12.3829L3.48828 12.6736C4.72859 13.3132 4.49603 11.9177 6.78286 12.2666L6.93789 11.5495Z" fill="#FCD116"/>
<path d="M4.08861 12.9061C3.93357 12.9061 3.73976 12.848 3.48782 12.7317L3.42969 12.7123L4.3793 12.4022C4.39868 12.3635 4.41806 12.3441 4.45682 12.3053C4.65062 12.0534 4.90256 11.7045 5.73589 11.3557L6.53046 11.5107L6.95682 11.5689L6.80179 12.3635H6.7824C5.58085 12.189 5.09635 12.4798 4.68938 12.7123C4.49558 12.7899 4.32117 12.9061 4.08861 12.9061ZM3.56535 12.7123C4.10798 12.9837 4.35992 12.8286 4.68938 12.6348C5.05759 12.4023 5.58085 12.1115 6.7824 12.286L6.91806 11.5882L6.54984 11.5495L5.75527 11.3944C4.94132 11.7433 4.68938 12.0728 4.49558 12.3247C4.4762 12.3635 4.43743 12.4022 4.41805 12.4216L3.56535 12.7123Z" fill="black"/>
<path d="M6.10471 11.0457L6.80239 10.6L6.55044 10.2511H6.60859C6.60859 10.2511 6.55044 10.2511 6.55044 10.1929L6.10471 9.4952C5.15509 9.0882 4.74812 9.24325 4.39928 9.30139L3.50781 9.01068C3.95355 10.3092 4.74812 9.14635 6.10471 11.0457Z" fill="#FCD116"/>
<path d="M6.08489 11.0845L6.0655 11.0651C5.34844 10.0573 4.80581 9.92161 4.36007 9.80533C3.97248 9.70842 3.68178 9.63088 3.46861 9.01069L3.44922 8.97194L4.39884 9.28205C4.4376 9.28205 4.47636 9.26265 4.5345 9.26265C4.86395 9.20451 5.27093 9.12698 6.10426 9.49521L6.54999 10.1929C6.54999 10.2123 6.56938 10.2123 6.56938 10.2123V10.2704L6.80194 10.6L6.78256 10.6193L6.08489 11.0845ZM3.54612 9.04949C3.73992 9.59216 4.01124 9.66967 4.37946 9.76657C4.8252 9.88286 5.38721 10.0185 6.10426 11.0263L6.76318 10.6L6.49186 10.2317H6.51124V10.2123L6.0655 9.53401C5.25154 9.18516 4.84457 9.26266 4.51511 9.3208C4.47635 9.3208 4.41822 9.3402 4.37946 9.3402L3.54612 9.04949Z" fill="black"/>
<path d="M6.55126 9.61147L7.34585 9.76652L7.40398 9.35951L7.55902 8.56492C7.15204 7.61525 6.76445 7.42145 6.51251 7.20826L6.16367 6.35547C5.50475 7.61523 6.9001 7.36328 6.55126 9.61147Z" fill="#FCD116"/>
<path d="M7.36429 9.78587L6.51158 9.63086V9.61146C6.686 8.44861 6.39529 7.96409 6.16273 7.57647C5.94955 7.22761 5.79452 6.95627 6.1046 6.35546L6.12398 6.31671L6.49219 7.20825C6.53095 7.22763 6.55033 7.26637 6.58909 7.28576C6.84103 7.47956 7.18987 7.73153 7.53871 8.56491L7.38367 9.3595L7.36429 9.78587ZM6.56972 9.59206L7.32552 9.72777L7.36429 9.3595L7.51932 8.56491C7.17049 7.75092 6.84103 7.49896 6.58909 7.30516C6.55033 7.28577 6.51157 7.24698 6.49219 7.2276V7.20825L6.16273 6.41362C5.89142 6.95628 6.04646 7.20824 6.24026 7.53772C6.45344 7.92533 6.74414 8.40983 6.56972 9.59206Z" fill="black"/>
<path d="M9.88238 6.41359C8.52579 6.85935 9.68859 7.65395 7.82812 9.01061L8.27386 9.70834L9.32038 9.01061C10.0374 7.30509 9.08781 7.20821 9.88238 6.41359Z" fill="#FCD116"/>
<path d="M8.29309 9.74712L8.27371 9.72777L7.80859 9.01064L7.82798 8.99129C8.79697 8.29358 8.93263 7.75092 9.04891 7.30516C9.14581 6.91754 9.22333 6.60741 9.88224 6.39422L9.97914 6.35547L9.90163 6.43302C9.51403 6.82064 9.55278 7.03379 9.59154 7.36327C9.64968 7.69274 9.70782 8.1579 9.35898 9.03004L8.29309 9.74712ZM7.88612 9.01064L8.31248 9.66962L9.33961 8.99129C9.68844 8.13853 9.61093 7.69274 9.57217 7.36327C9.53341 7.05317 9.49465 6.82063 9.8241 6.47177C9.28147 6.68496 9.22333 6.95628 9.12643 7.32451C8.97139 7.75089 8.83573 8.31293 7.88612 9.01064Z" fill="black"/>
<path d="M9.14844 10.2511L9.55541 10.3092L10.35 10.4642C11.2996 10.0572 11.4934 9.66962 11.7066 9.41767L12.5593 9.0688C11.319 8.42923 11.5515 9.82467 9.26471 9.47582L9.14844 10.2511Z" fill="#FCD116"/>
<path d="M10.35 10.4835L9.55541 10.3284H9.51666L9.14844 10.2897V10.2703L9.24534 9.43693H9.26471C10.4663 9.61135 10.9508 9.32063 11.3577 9.08806C11.7066 8.87487 11.9779 8.71982 12.5787 9.02991L12.6174 9.04931L11.726 9.41753C11.7066 9.45629 11.6678 9.47567 11.6484 9.51443C11.4353 9.78576 11.1833 10.1152 10.35 10.4835ZM9.80736 10.3284L10.3306 10.4253C11.1446 10.0765 11.3965 9.74698 11.5903 9.49503C11.6097 9.45627 11.6484 9.41751 11.6678 9.39813H11.6872L12.4818 9.06866C11.9391 8.79733 11.6872 8.9524 11.3577 9.14621C10.9895 9.37878 10.4663 9.66946 9.26471 9.49503L9.16781 10.2509L9.94301 10.3478H9.80736V10.3284Z" fill="black"/>
<path d="M9.94376 10.7548L9.24609 11.2005L9.49803 11.5494H9.43989C9.43989 11.5494 9.49803 11.5494 9.49803 11.6076L9.94376 12.3052C10.8934 12.7122 11.3004 12.5572 11.6492 12.4991L12.5019 12.8479C12.0949 11.5106 11.3004 12.6541 9.94376 10.7548Z" fill="#FCD116"/>
<path d="M12.5213 12.8867L11.6298 12.5185C11.5911 12.5185 11.5523 12.5379 11.5135 12.5379C11.1841 12.596 10.7771 12.6735 9.94376 12.3052L9.49803 11.6076C9.49803 11.5882 9.47865 11.5882 9.47865 11.5882V11.53L9.24609 11.2005L9.26547 11.1812L9.98253 10.716L10.0019 10.7354C10.6996 11.7238 11.2422 11.8789 11.6879 11.9952C12.0755 12.1115 12.3662 12.189 12.56 12.8286L12.5213 12.8867ZM11.6492 12.4797L12.4631 12.8092C12.2693 12.2277 12.0174 12.1502 11.6492 12.0533C11.2422 11.937 10.6608 11.782 9.96315 10.7936L9.30423 11.2199L9.57555 11.5882H9.55617V11.6076L10.0019 12.2859C10.8159 12.6347 11.2228 12.5572 11.5523 12.4991C11.5523 12.4797 11.5911 12.4797 11.6492 12.4797Z" fill="black"/>
<path d="M9.39807 12.1504L8.6035 11.9953L8.5066 12.4023L8.35156 13.1969C8.75854 14.1466 9.14613 14.3404 9.39807 14.5536L9.7469 15.4063C10.3864 14.1466 8.99109 14.3985 9.39807 12.1504Z" fill="#FCD116"/>
<path d="M9.74676 15.4645L9.37855 14.573C9.33979 14.5536 9.32041 14.5148 9.28165 14.4954C9.02971 14.3016 8.68087 14.0497 8.33203 13.2163L8.48707 12.4217V12.3829H8.50645L8.60335 11.9953H8.62273L9.43668 12.1504V12.1697C9.22351 13.3519 9.5142 13.8171 9.74676 14.2047C9.94056 14.5536 10.115 14.8055 9.78552 15.4257L9.74676 15.4645ZM8.37079 13.1969C8.71963 14.0109 9.04909 14.2629 9.30102 14.4567C9.33978 14.476 9.37854 14.5148 9.39792 14.5342V14.5536L9.72738 15.3482C9.9987 14.8055 9.84366 14.5536 9.64986 14.2241C9.4173 13.8365 9.12661 13.3519 9.33979 12.1697L8.58397 12.0341L8.48707 12.4217L8.37079 13.1969Z" fill="black"/>
<path d="M9.49646 11.5494L12.9848 10.9098L9.49646 10.2702L11.5507 7.3825L8.66313 9.43689L8.02359 5.94833L7.38406 9.43689L4.49646 7.3825L6.49258 10.2702L3.04297 10.9098L6.49258 11.5494L4.49646 14.4371L7.38406 12.4409L8.02359 15.8907L8.66313 12.4409L11.5507 14.4371L9.49646 11.5494Z" fill="#FCD116"/>
<path d="M8.00285 16.0265L7.34394 12.4798L4.35944 14.5341L6.41371 11.5495L2.86719 10.8905L6.41371 10.2316L4.35944 7.24692L7.34394 9.35942L8.00285 5.77396L8.66177 9.35942L11.6463 7.24692L9.53386 10.2316L13.1191 10.8905L9.53386 11.5495L11.6463 14.5341L8.66177 12.4798L8.00285 16.0265ZM7.36331 12.4022V12.441L7.98347 15.7551L8.623 12.4022L8.66177 12.4216L11.4331 14.3403L9.43696 11.5301H9.47572L12.8478 10.9099L9.43696 10.2703L11.4137 7.46008L8.60363 9.43697V9.39817L7.98347 6.02592L7.34394 9.43697L4.53386 7.44073L6.47185 10.251H6.43308L3.11913 10.8711L6.47185 11.5107L6.45246 11.5495L4.53386 14.3403L7.36331 12.4022Z" fill="black"/>
<path d="M8.00276 9.26257C8.91361 9.26257 9.65004 9.99905 9.65004 10.9099C9.65004 11.8208 8.91361 12.5573 8.00276 12.5573C7.0919 12.5573 6.35547 11.8208 6.35547 10.9099C6.35547 9.99905 7.0919 9.26257 8.00276 9.26257Z" fill="#FCD116"/>
<path d="M8.0026 12.5767C7.07237 12.5767 6.33594 11.8208 6.33594 10.9099C6.33594 9.97965 7.09175 9.24321 8.0026 9.24321C8.93283 9.24321 9.66927 9.99904 9.66927 10.9099C9.66927 11.8208 8.91345 12.5767 8.0026 12.5767ZM8.0026 9.28196C7.11113 9.28196 6.3747 10.0184 6.3747 10.9099C6.3747 11.8015 7.11113 12.538 8.0026 12.538C8.89407 12.538 9.63051 11.8015 9.63051 10.9099C9.61113 9.99904 8.89407 9.28196 8.0026 9.28196Z" fill="black"/>
<path d="M9.24439 10.2511C9.14749 10.348 9.08935 10.1542 8.70176 10.1542C8.29478 10.1542 8.25601 10.4061 8.19787 10.348C8.13973 10.2898 8.48858 10.0572 8.64362 9.9991C8.74052 9.9991 9.08935 10.096 9.24439 10.2511ZM8.79866 10.348C8.89556 10.4449 8.79866 10.6387 8.70176 10.6387C8.60486 10.6387 8.41106 10.4449 8.50796 10.348" fill="black"/>
<path d="M8.29297 10.5029C8.29297 10.3091 8.44801 10.3091 8.69995 10.3091C8.95189 10.3091 9.04879 10.5029 9.14569 10.561C9.04879 10.561 8.95189 10.406 8.69995 10.406C8.44801 10.3479 8.44801 10.3479 8.29297 10.5029ZM8.35112 10.561C8.40926 10.4641 8.50616 10.6579 8.64182 10.6579C8.79685 10.6579 8.89375 10.5998 8.99065 10.561C9.08755 10.4641 8.83561 10.7549 8.69995 10.7549C8.48677 10.6967 8.29298 10.5998 8.35112 10.561Z" fill="black"/>
<path d="M8.83634 10.658C9.03013 10.5611 8.93324 10.406 8.83634 10.3672C8.89448 10.406 8.99137 10.5611 8.83634 10.658ZM8.00299 11.5495C8.09989 11.5495 8.0999 11.4913 8.25494 11.4913C8.40998 11.4913 8.66191 11.6464 8.85571 11.5883C8.50687 11.7433 8.66192 11.6464 8.06114 11.6464H7.96424M8.89447 11.7433C8.83633 11.6464 8.83634 11.6464 8.73944 11.4913C8.83634 11.6076 8.83633 11.6464 8.89447 11.7433ZM8.00299 11.8984C8.40997 11.8984 8.2937 11.8015 8.79757 11.6077C8.44874 11.6658 8.35183 11.7627 8.00299 11.7627H7.88672M8.00299 11.3557C8.09989 11.3557 8.15804 11.2588 8.25494 11.2588C8.35184 11.2588 8.54564 11.3169 8.60378 11.3557C8.60378 11.3557 8.54564 11.2588 8.44874 11.2006C8.35184 11.2006 8.35184 11.0068 8.25494 10.9487C8.25494 11.0068 8.31308 11.0068 8.31308 11.1037C8.31308 11.2006 8.15804 11.2006 8.15804 11.1037C8.21618 11.2006 8.09989 11.2006 8.00299 11.2006" fill="black"/>
<path d="M6.74609 10.2511C6.84299 10.348 6.90114 10.1542 7.28874 10.1542C7.69572 10.1542 7.73447 10.4061 7.79261 10.348C7.85075 10.2898 7.50191 10.0572 7.34688 9.9991C7.24998 9.9991 6.90113 10.096 6.74609 10.2511ZM7.19184 10.348C7.09494 10.4449 7.19184 10.6387 7.28874 10.6387C7.38564 10.6387 7.57944 10.4449 7.48254 10.348" fill="black"/>
<path d="M7.69256 10.5029C7.69256 10.3091 7.53753 10.3091 7.28559 10.3091C7.03365 10.3091 6.93674 10.5029 6.83984 10.561C6.93674 10.561 7.03365 10.406 7.28559 10.406C7.53753 10.406 7.53752 10.3479 7.69256 10.5029ZM7.6538 10.561C7.59566 10.4641 7.49876 10.6579 7.3631 10.6579C7.20806 10.6579 7.11117 10.5998 7.01427 10.561C6.91737 10.4641 7.16931 10.7549 7.30496 10.7549C7.49876 10.6967 7.69256 10.5998 7.6538 10.561Z" fill="black"/>
<path d="M7.15095 10.658C6.95715 10.5611 7.05405 10.406 7.15095 10.3672C7.09281 10.406 6.99591 10.5611 7.15095 10.658ZM8.00366 11.5495C7.90676 11.5495 7.90676 11.4913 7.75172 11.4913C7.59668 11.4913 7.34475 11.6464 7.15095 11.5883C7.49979 11.7433 7.34475 11.6464 7.94552 11.6464H8.04242M7.09281 11.7433C7.15095 11.6464 7.15095 11.6464 7.24785 11.4913C7.15095 11.6076 7.15095 11.6464 7.09281 11.7433ZM8.00366 11.8984C7.59668 11.8984 7.71297 11.8015 7.20909 11.6077C7.55793 11.6658 7.65482 11.7627 8.00366 11.7627H8.10056M8.00366 11.3557C7.90676 11.3557 7.84862 11.2588 7.75172 11.2588C7.65482 11.2588 7.46103 11.3169 7.40289 11.3557C7.40289 11.3557 7.46102 11.2588 7.55792 11.2006C7.65482 11.2006 7.65482 11.0068 7.75172 10.9487C7.75172 11.0068 7.69359 11.0068 7.69359 11.1037C7.69359 11.2006 7.84862 11.2006 7.84862 11.1037C7.79048 11.2006 7.90676 11.2006 8.00366 11.2006" fill="black"/>
<path d="M8.00577 12.0534C7.88949 12.0534 7.75383 12.0922 8.00577 12.0534Z" fill="black"/>
</svg>
