<svg width="30" height="31" viewBox="0 0 30 31" fill="none" xmlns="http://www.w3.org/2000/svg">
<path d="M22.9891 2.41962C20.6457 0.966997 17.9536 0.114807 15.0098 0.114807V2.41962H22.9891Z" fill="#ED4C5C"/>
<path d="M15.0098 4.70507H25.7974C24.9452 3.85286 23.9962 3.05873 23.0085 2.40021H15.0291V4.70507H15.0098Z" fill="white"/>
<path d="M15.0098 7.00996H27.6373C27.095 6.15775 26.4946 5.42177 25.8361 4.70514H15.0098V7.00996Z" fill="#ED4C5C"/>
<path d="M15.0098 9.29536H28.838C28.4894 8.50125 28.0827 7.70717 27.6373 6.99054H15.0098V9.29536Z" fill="white"/>
<path d="M15.0096 11.6003H29.5738C29.3802 10.8062 29.1284 10.0508 28.8185 9.29547H14.9902V11.6003H15.0096Z" fill="#ED4C5C"/>
<path d="M15.0098 13.9437H29.9226C29.8645 13.1496 29.7289 12.3943 29.574 11.6389H15.0098V13.9437Z" fill="white"/>
<path d="M29.9226 13.9439H15.0098V15.0866H0.0388184C0.0388184 15.4934 0.0388278 15.842 0.0969298 16.2294H29.942C30.0001 15.8227 30.0001 15.474 30.0001 15.0866C29.9807 14.6993 29.9807 14.2925 29.9226 13.9439Z" fill="#ED4C5C"/>
<path d="M0.426002 18.5341H29.5738C29.7675 17.7787 29.8644 17.0427 29.9225 16.2292H0.0773926C0.135495 16.9846 0.232329 17.7787 0.426002 18.5341Z" fill="white"/>
<path d="M1.18136 20.8389H28.8379C29.1284 20.0835 29.3802 19.3475 29.5932 18.534H0.426025C0.639066 19.3281 0.871479 20.0835 1.18136 20.8389Z" fill="#ED4C5C"/>
<path d="M2.38217 23.1244H27.6372C28.0826 22.369 28.4893 21.6331 28.838 20.8196H1.1814C1.53001 21.6331 1.93673 22.369 2.38217 23.1244Z" fill="white"/>
<path d="M4.16388 25.4292H25.8166C26.4557 24.7319 27.1142 23.9378 27.6177 23.1243H2.38208C2.86626 23.9765 3.52476 24.7319 4.16388 25.4292Z" fill="#ED4C5C"/>
<path d="M6.97233 27.7148H23.0472C24.0931 27.0756 24.9839 26.2621 25.8361 25.4099H4.16406C5.01623 26.3202 5.96522 27.0756 6.97233 27.7148Z" fill="white"/>
<path d="M15.0099 30.0582C17.9537 30.0582 20.7039 29.206 23.0473 27.7147H6.97241C9.31586 29.206 12.066 30.0582 15.0099 30.0582Z" fill="#ED4C5C"/>
<path d="M7.01097 2.41953C5.96513 3.05868 5.01614 3.87213 4.16398 4.72434C3.46675 5.4216 2.86636 6.21574 2.36281 7.02921C1.91736 7.78457 1.47192 8.52055 1.16204 9.33403C0.87153 10.0894 0.61975 10.8254 0.406709 11.6389C0.213036 12.3943 0.116202 13.1302 0.0580996 13.9437C-2.36649e-06 14.3504 0 14.7378 0 15.1445H14.9709V0.172775C12.0658 0.11467 9.35441 0.966897 7.01097 2.41953Z" fill="#428BC1"/>
<path d="M11.5042 0.618286L11.7559 1.37368H12.5113L11.9109 1.87723L12.1046 2.63263L11.5042 2.18714L10.9038 2.63263L11.0975 1.87723L10.4971 1.37368H11.2524L11.5042 0.618286Z" fill="white"/>
<path d="M13.499 3.6203L13.7508 4.3757H14.5061L13.9058 4.87924L14.0994 5.63464L13.499 5.18916L12.8987 5.63464L13.0923 4.87924L12.4919 4.3757H13.2473L13.499 3.6203Z" fill="white"/>
<path d="M9.5093 3.6203L9.76107 4.3757H10.5164L9.91601 4.87924L10.1097 5.63464L9.5093 5.18916L8.90892 5.63464L9.10259 4.87924L8.5022 4.3757H9.25753L9.5093 3.6203Z" fill="white"/>
<path d="M11.5042 6.60321L11.7559 7.35856H12.5113L11.9109 7.86215L12.1046 8.6175L11.5042 8.17202L10.9038 8.6175L11.0975 7.86215L10.4971 7.35856H11.2524L11.5042 6.60321Z" fill="white"/>
<path d="M7.51467 6.60321L7.76645 7.35856H8.52178L7.92138 7.86215L8.11505 8.6175L7.51467 8.17202L6.91428 8.6175L7.10795 7.86215L6.50757 7.35856H7.2629L7.51467 6.60321Z" fill="white"/>
<path d="M3.52491 6.60321L3.7767 7.35856H4.53202L3.93164 7.86215L4.12531 8.6175L3.52491 8.17202L2.92453 8.6175L3.11821 7.86215L2.51782 7.35856H3.27314L3.52491 6.60321Z" fill="white"/>
<path d="M13.499 9.60529L13.7508 10.3606H14.5061L13.9058 10.8642L14.0994 11.6196L13.499 11.1741L12.8987 11.6196L13.0923 10.8642L12.4919 10.3606H13.2473L13.499 9.60529Z" fill="white"/>
<path d="M9.5093 9.60529L9.76107 10.3606H10.5164L9.91601 10.8642L10.1097 11.6196L9.5093 11.1741L8.90892 11.6196L9.10259 10.8642L8.5022 10.3606H9.25753L9.5093 9.60529Z" fill="white"/>
<path d="M5.51956 9.60529L5.77133 10.3606H6.52665L5.92626 10.8642L6.11994 11.6196L5.51956 11.1741L4.91916 11.6196L5.11283 10.8642L4.51245 10.3606H5.26777L5.51956 9.60529Z" fill="white"/>
<path d="M11.5042 12.588L11.7559 13.3433H12.5113L11.9109 13.8469L12.1046 14.6022L11.5042 14.1568L10.9038 14.6022L11.0975 13.8469L10.4971 13.3433H11.2524L11.5042 12.588Z" fill="white"/>
<path d="M7.51467 12.588L7.76645 13.3433H8.52178L7.92138 13.8469L8.11505 14.6022L7.51467 14.1568L6.91428 14.6022L7.10795 13.8469L6.50757 13.3433H7.2629L7.51467 12.588Z" fill="white"/>
<path d="M3.52491 12.588L3.7767 13.3433H4.53202L3.93164 13.8469L4.12531 14.6022L3.52491 14.1568L2.92453 14.6022L3.11821 13.8469L2.51782 13.3433H3.27314L3.52491 12.588Z" fill="white"/>
<path d="M4.91941 5.61549L5.51981 5.17001L6.12019 5.61549L5.86841 4.86014L6.4688 4.35654H5.71348L5.51981 3.6012L5.26802 4.35654H4.5708L5.17118 4.80203L4.91941 5.61549Z" fill="white"/>
<path d="M0.929601 11.6002L1.52998 11.1548L2.13038 11.6002L1.87859 10.8449L2.47899 10.3413H1.78176L1.52998 9.58594L1.27821 10.3413H0.774664C0.774664 10.3994 0.716553 10.4381 0.716553 10.4962L1.12327 10.7868L0.929601 11.6002Z" fill="white"/>
</svg>
