<svg width="30" height="31" viewBox="0 0 30 31" fill="none" xmlns="http://www.w3.org/2000/svg">
<path d="M14.999 0.910889C8.65358 0.910889 3.23963 4.8697 1.04688 10.4198H28.9511C26.739 4.8697 21.3444 0.910889 14.999 0.910889Z" fill="#42ADE2"/>
<path d="M14.999 30.9125C21.3444 30.9125 26.7584 26.9537 28.9511 21.4036H1.04688C3.23963 26.9731 8.63418 30.9125 14.999 30.9125Z" fill="#83BF4F"/>
<path d="M30 15.9117C30 14.3592 29.7477 12.8067 29.3014 11.4095H0.698572C0.252259 12.8067 0 14.3592 0 15.9117C0 17.4641 0.252259 19.0166 0.698572 20.4139H29.3014C29.7477 19.0166 30 17.4641 30 15.9117Z" fill="white"/>
<path d="M28.9531 10.4198C29.0113 10.575 29.1084 10.7691 29.1472 10.9243C29.186 11.0796 29.2442 11.2737 29.3024 11.4289" fill="#C94747"/>
<path d="M29.1468 10.9243C29.0886 10.7691 28.9916 10.575 28.9528 10.4198H1.04852C0.990302 10.575 0.893277 10.7691 0.854468 10.9243C0.815658 11.0796 0.757434 11.2737 0.699219 11.4289H29.3021C29.2439 11.2737 29.1856 11.0602 29.1468 10.9243Z" fill="#C94747"/>
<path d="M0.834913 20.9185C0.893127 21.0737 0.990152 21.2678 1.02896 21.423H28.9332C28.9915 21.2678 29.0885 21.0737 29.1273 20.9185C29.1855 20.7632 29.2243 20.5692 29.2825 20.4139H0.679688C0.737902 20.5692 0.796103 20.7632 0.834913 20.9185Z" fill="#C94747"/>
<path d="M9.19791 8.55678C7.9948 8.55678 7.04394 7.60587 7.04394 6.4027C7.04394 5.19953 7.9948 4.24867 9.19791 4.24867C9.48898 4.24867 9.74124 4.3069 9.9935 4.40393C9.586 4.11284 9.04265 3.89935 8.49931 3.89935C7.10216 3.89935 5.99609 5.00547 5.99609 6.4027C5.99609 7.79993 7.10216 8.9061 8.49931 8.9061C9.04265 8.9061 9.6054 8.71202 9.9935 8.40153C9.74124 8.51796 9.48898 8.55678 9.19791 8.55678Z" fill="white"/>
<path d="M11.3509 7.50891L11.545 8.05224H12.0883L11.642 8.34333L11.7972 8.88671L11.3509 8.53739L10.9046 8.88671L11.0986 8.34333L10.6523 8.05224H11.1957L11.3509 7.50891Z" fill="white"/>
<path d="M13.4875 7.50891L13.6428 8.05224H14.2443L13.798 8.34333L13.9533 8.88671L13.5069 8.53739L13.0606 8.88671L13.2159 8.34333L12.7695 8.05224H13.3129L13.4875 7.50891Z" fill="white"/>
<path d="M15.6396 7.50891L15.7949 8.05224H16.3382L15.8919 8.34333L16.0859 8.88671L15.6396 8.53739L15.1351 8.88671L15.3291 8.34333L14.8828 8.05224H15.4262L15.6396 7.50891Z" fill="white"/>
<path d="M17.7374 7.50891L17.9314 8.05224H18.4748L18.0285 8.34333L18.1837 8.88671L17.7374 8.53739L17.2911 8.88671L17.4463 8.34333L17 8.05224H17.6015L17.7374 7.50891Z" fill="white"/>
<path d="M19.8897 7.50891L20.045 8.05224H20.6465L20.142 8.34333L20.336 8.88671L19.8897 8.53739L19.4434 8.88671L19.5987 8.34333L19.1523 8.05224H19.6957L19.8897 7.50891Z" fill="white"/>
<path d="M13.4875 5.72357L13.6428 6.26695H14.2443L13.798 6.55804L13.9533 7.10141L13.5069 6.7521L13.0606 7.10141L13.2159 6.55804L12.7695 6.26695H13.3129L13.4875 5.72357Z" fill="white"/>
<path d="M15.6396 5.72357L15.7949 6.26695H16.3382L15.8919 6.55804L16.0859 7.10141L15.6396 6.7521L15.1351 7.10141L15.3291 6.55804L14.8828 6.26695H15.4262L15.6396 5.72357Z" fill="white"/>
<path d="M17.7374 5.72357L17.9314 6.26695H18.4748L18.0285 6.55804L18.1837 7.10141L17.7374 6.7521L17.2911 7.10141L17.4463 6.55804L17 6.26695H17.6015L17.7374 5.72357Z" fill="white"/>
<path d="M19.8897 5.72357L20.045 6.26695H20.6465L20.142 6.55804L20.336 7.10141L19.8897 6.7521L19.4434 7.10141L19.5987 6.55804L19.1523 6.26695H19.6957L19.8897 5.72357Z" fill="white"/>
<path d="M15.6396 3.91876L15.7949 4.46209H16.3382L15.8919 4.75318L16.0859 5.29656L15.6396 4.94724L15.1351 5.29656L15.3291 4.75318L14.8828 4.46209H15.4262L15.6396 3.91876Z" fill="white"/>
<path d="M17.7374 3.91876L17.9314 4.46209H18.4748L18.0285 4.75318L18.1837 5.29656L17.7374 4.94724L17.2911 5.29656L17.4463 4.75318L17 4.46209H17.6015L17.7374 3.91876Z" fill="white"/>
<path d="M19.8897 3.91876L20.045 4.46209H20.6465L20.142 4.75318L20.336 5.29656L19.8897 4.94724L19.4434 5.29656L19.5987 4.75318L19.1523 4.46209H19.6957L19.8897 3.91876Z" fill="white"/>
</svg>
