<svg width="30" height="31" viewBox="0 0 30 31" fill="none" xmlns="http://www.w3.org/2000/svg">
<path d="M14.9884 0.0302734C10.3924 0.0302734 6.30059 2.08595 3.54688 5.38282V15.0213H29.5908V11.5305C27.9812 4.93677 22.086 0.0302734 14.9884 0.0302734Z" fill="#ED4C5C"/>
<path d="M3.54688 15.0214V24.6599C6.30059 27.9568 10.3924 30.0125 14.9884 30.0125C22.086 30.0125 27.9812 25.1059 29.5714 18.5122V15.0214H3.54688Z" fill="#83BF4F"/>
<path d="M3.54881 5.38269C3.10279 5.92571 2.65675 6.5269 2.24951 7.1281V8.97047H1.24112C0.446029 10.8128 0 12.8685 0 15.0212C0 17.1739 0.446039 19.2102 1.2993 21.072H2.3077V22.9144C2.71494 23.5155 3.10277 24.1167 3.60698 24.6598L13.2062 15.0212L3.54881 5.38269Z" fill="#3E4347"/>
<path d="M29.9399 16.0298V14.0323C29.8817 13.179 29.746 12.3256 29.5326 11.5305H3.54688V18.5316H29.5908C29.7847 17.717 29.8817 16.8831 29.9399 16.0298Z" fill="#3E4347"/>
<path d="M2.25058 7.12817C1.90152 7.72937 1.55247 8.33056 1.24219 8.97055L7.33139 15.0213L1.28096 21.0721C1.57185 21.712 1.88214 22.3132 2.28938 22.9144L9.13487 16.0104H29.9429C29.9429 15.6613 30.0011 15.3704 30.0011 15.0019C30.0011 14.6334 30.0011 14.3619 29.9429 13.9935H9.15428L2.25058 7.12817Z" fill="#FFCE31"/>
<path d="M2.65535 12.3838C2.11237 12.3838 0.347656 12.7911 0.347656 14.5753C0.347656 16.3788 2.05418 16.5727 2.40324 16.5727C2.7523 16.5727 3.99342 16.2818 3.85767 14.9243C3.85767 15.3316 3.41164 16.1267 2.5002 16.1267C1.60816 16.1267 1.007 15.4286 1.007 14.7692C1.007 14.1098 1.54998 13.2177 2.5002 13.2177C3.45043 13.2177 4.14855 14.071 4.14855 14.9243C4.14855 15.7776 3.45043 16.8636 2.40324 16.8636V17.9109C3.29529 17.9109 5.05999 17.2127 5.05999 15.0213C5.09877 12.7716 3.19834 12.3838 2.65535 12.3838Z" fill="#FDCE12"/>
<path d="M2.69363 14.4784C2.69363 14.4202 2.69363 14.4202 2.69363 14.4784V14.4202C2.7518 14.362 2.88756 14.362 2.94574 14.3232C3.10088 14.2262 3.19782 14.1292 3.29478 13.8771V13.8189C3.04268 13.7608 2.84877 13.8771 2.75181 14.0129C2.69364 14.1098 2.65484 14.2068 2.59666 14.265C2.59666 14.3232 2.53848 14.3232 2.53848 14.3232C2.4803 14.3232 2.48032 14.265 2.48032 14.265C2.42214 14.2068 2.38334 14.0711 2.32517 14.0129C2.2282 13.8577 2.0343 13.7608 1.78219 13.8189V13.8771C1.87916 14.0711 1.9761 14.2262 2.13124 14.3232C2.22821 14.3814 2.32518 14.3814 2.38335 14.4202L2.44152 14.4784H2.38335C2.18943 14.5365 2.03428 14.6722 1.93732 14.8274C1.84036 14.9825 1.74341 15.1765 1.78219 15.3704H1.84036C2.03428 15.3122 2.18942 15.1765 2.34455 15.0795C2.44152 14.9244 2.53849 14.8274 2.59666 14.6335C2.65484 14.7886 2.75181 14.9244 2.84877 15.0795C3.00391 15.1765 3.10087 15.3316 3.35297 15.3704H3.41113C3.41113 15.1183 3.35297 14.9631 3.25601 14.8274C3.04269 14.6722 2.90694 14.5171 2.69363 14.4784Z" fill="#FDCE12"/>
</svg>
