<svg width="30" height="31" viewBox="0 0 30 31" fill="none" xmlns="http://www.w3.org/2000/svg">
<path d="M30 15.9434C30 7.63764 23.3053 0.942627 15 0.942627V30.9442C23.3053 30.9442 30 24.2491 30 15.9434Z" fill="#F9F9F9"/>
<path d="M0 15.9434C0 24.2491 6.69468 30.9442 15 30.9442V0.942627C6.69468 0.942627 0 7.65705 0 15.9434Z" fill="#FFE62E"/>
<path d="M23.5001 10.6067C23.5001 12.0622 23.5001 12.5085 22.0059 12.5085C20.5117 12.5085 20.5117 12.0622 20.5117 10.6067C20.5117 9.15128 21.1521 7.94812 22.0059 7.94812C22.8597 7.94812 23.5001 9.15128 23.5001 10.6067Z" fill="white"/>
<path d="M22.743 8.84098L21.9862 8.23938L21.2295 8.84098L20.4727 8.23938L20.7249 9.44254H23.2281L23.4804 8.23938L22.743 8.84098Z" fill="#DBB471"/>
<path d="M22.743 10.2575L21.9862 9.55884L21.2295 10.2575L20.4727 9.55884V10.9561H23.4804V9.55884L22.743 10.2575Z" fill="#DBB471"/>
<path d="M22.743 11.6933L21.9862 10.9365L21.2295 11.6933L20.4727 10.9365V12.4308H23.4804V10.9365L22.743 11.6933Z" fill="#DBB471"/>
<path d="M22.0062 6.745C22.142 6.745 22.2584 7.07488 22.2584 7.50181C22.2584 7.90933 22.142 8.25867 22.0062 8.25867C21.8703 8.25867 21.7539 7.92874 21.7539 7.50181C21.7539 7.07488 21.8703 6.745 22.0062 6.745Z" fill="#DBB471"/>
<path d="M22.0063 12.1011C22.8407 12.1011 23.5005 12.2563 23.5005 12.4503C23.5005 12.6444 22.8213 12.7997 22.0063 12.7997C21.1913 12.7997 20.5121 12.6444 20.5121 12.4503C20.4927 12.2563 21.1719 12.1011 22.0063 12.1011Z" fill="white"/>
<path d="M19.9499 16.2539C19.2514 16.2539 18.708 15.206 18.6498 14.8567C18.5528 14.3522 18.8051 13.8476 19.0573 13.3042C19.2126 13.052 19.4066 12.5086 19.4066 12.3533C19.3484 12.1593 18.8051 11.5965 18.2617 11.2084L18.8633 10.4127C19.2708 10.7038 20.2216 11.5577 20.3575 12.1205C20.4545 12.625 20.2022 13.1296 19.9499 13.7117C19.7947 14.0028 19.6007 14.4686 19.6007 14.6627C19.6589 14.8179 19.7947 15.0702 19.9499 15.206C20.2022 14.9538 20.5903 13.7505 20.8038 12.5474L21.8128 12.7026C21.6188 13.9446 21.1142 16.0599 20.1052 16.1957C20.047 16.2539 20.0082 16.2539 19.9499 16.2539Z" fill="white"/>
<path d="M24.0429 16.2539H23.9459C22.8981 16.0987 22.4517 14.0028 22.2383 12.7609L23.2473 12.6056C23.4414 13.7506 23.7907 14.9149 24.1011 15.206C24.2564 15.0508 24.3922 14.7985 24.4504 14.6627C24.5087 14.5268 24.2564 14.0222 24.1011 13.7117C23.8489 13.1684 23.5966 12.6056 23.6937 12.1205C23.8489 11.5189 24.7997 10.7232 25.1878 10.4127L25.7894 11.2084C25.2461 11.6547 24.6833 12.2175 24.6445 12.3533C24.5863 12.5086 24.8385 12.9937 24.9938 13.246C25.246 13.7894 25.4983 14.3521 25.4013 14.7985C25.2461 15.206 24.7415 16.2539 24.0429 16.2539Z" fill="white"/>
<path d="M19.7554 18.2527C19.0568 17.8064 18.1642 17.9034 17.5044 18.5438C16.8058 19.3394 16.8058 20.6008 17.5044 21.3382C18.203 22.1339 19.4061 22.1339 20.1047 21.3382C20.7062 20.6978 20.8032 19.6887 20.3957 18.9319L25.1887 13.8281L25.8291 14.5268L26.4695 13.8281L25.1693 12.4309L19.7554 18.2527Z" fill="#DBB471"/>
<path d="M19.1516 19.65C19.3068 19.4947 19.3068 19.2424 19.1516 19.0484C18.9963 18.8543 18.7441 18.8931 18.55 19.0484C18.3948 19.2036 18.3948 19.4559 18.55 19.65C18.3948 19.4947 18.1425 19.4947 17.9485 19.65C17.7932 19.8052 17.7932 20.0575 17.9485 20.2516C18.1037 20.4068 18.356 20.4068 18.55 20.2516C18.3948 20.4068 18.3948 20.6591 18.55 20.8531C18.7052 21.0084 18.9575 21.0084 19.1516 20.8531C19.3456 20.6979 19.3068 20.4457 19.1516 20.2516C19.3068 20.4068 19.5591 20.4068 19.7531 20.2516C19.9083 20.0963 19.9083 19.844 19.7531 19.65C19.5397 19.4947 19.3068 19.4947 19.1516 19.65Z" fill="white"/>
<path d="M24.2571 18.2527C24.9556 17.8064 25.8483 17.9034 26.508 18.5438C27.2066 19.3394 27.2066 20.6008 26.508 21.3382C25.8095 22.1339 24.6063 22.1339 23.9078 21.3382C23.3062 20.6978 23.2092 19.6887 23.6167 18.9319L18.8237 13.8281L18.1833 14.5268L17.543 13.8281L18.8431 12.4309L24.2571 18.2527Z" fill="#D0D0D0"/>
<path d="M24.8586 19.6499C24.7034 19.4947 24.7034 19.2424 24.8586 19.0483C25.0138 18.8931 25.2661 18.8931 25.4602 19.0483C25.6154 19.2036 25.6154 19.4559 25.4602 19.6499C25.6154 19.4947 25.8676 19.4947 26.0617 19.6499C26.2169 19.8052 26.2169 20.0575 26.0617 20.2515C25.9065 20.4068 25.6542 20.4068 25.4602 20.2515C25.6154 20.4068 25.6154 20.659 25.4602 20.8531C25.3049 21.0083 25.0527 21.0083 24.8586 20.8531C24.6646 20.6978 24.7034 20.4456 24.8586 20.2515C24.7034 20.4068 24.4511 20.4068 24.2571 20.2515C24.1018 20.0963 24.1018 19.844 24.2571 19.6499C24.4511 19.4947 24.7034 19.4947 24.8586 19.6499Z" fill="white"/>
<path d="M24.1977 19.844C22.7423 20.0381 21.2481 20.0381 19.7927 19.844C19.5017 19.7858 19.3852 20.1351 19.6957 20.1934C21.2481 20.4456 22.8005 20.4456 24.3529 20.1934C24.644 20.0963 24.5081 19.8052 24.1977 19.844Z" fill="#ED4C5C"/>
<path d="M24.1411 19.5529C23.2485 18.9125 22.4335 18.0974 21.7931 17.2047C21.6379 17.0107 21.3856 17.1465 21.5409 17.3018C22.2394 18.2526 23.0932 19.1065 24.0441 19.8052C24.1993 19.941 24.3546 19.7081 24.1411 19.5529Z" fill="#ED4C5C"/>
<path d="M22.1978 17.2046C21.5574 18.0973 20.7424 18.9124 19.8497 19.5528C19.6557 19.708 19.7915 19.9603 19.9468 19.805C20.8976 19.1064 21.7514 18.2525 22.45 17.3016C22.6052 17.1464 22.353 17.0494 22.1978 17.2046Z" fill="#ED4C5C"/>
<path d="M21.7539 15.4388H22.2584V21.9398H21.7539V15.4388Z" fill="#ED4C5C"/>
<path d="M20.7422 16.6615L21.0915 16.3121L22.2946 17.5153L21.9453 17.8646L20.7422 16.6615Z" fill="#ED4C5C"/>
<path d="M21.7148 17.4765L22.9179 16.2733L23.2672 16.6226L22.0641 17.8258L21.7148 17.4765Z" fill="#ED4C5C"/>
<path d="M21.7545 21.2993C21.4634 21.2993 21.25 21.4934 21.25 21.8039V23.2981H22.259V21.8039C22.259 21.5516 22.0456 21.2993 21.7545 21.2993Z" fill="#FF717F"/>
<path d="M22.2584 20.8531C21.9674 20.8531 21.7539 21.0472 21.7539 21.3577V22.852H22.763V21.3577C22.7435 21.0472 22.5495 20.8531 22.2584 20.8531Z" fill="#FF717F"/>
<path d="M20.2969 17.9034C20.6267 17.9034 20.8984 18.1751 20.8984 18.505C20.8984 18.8349 20.6267 19.1066 20.2969 19.1066C19.967 19.1066 19.6953 18.8349 19.6953 18.505C19.6953 18.1751 19.967 17.9034 20.2969 17.9034Z" fill="#94989B"/>
<path d="M17.4062 20.7949C17.7361 20.7949 18.0078 21.0666 18.0078 21.3965C18.0078 21.7264 17.7361 21.9981 17.4062 21.9981C17.0764 21.9981 16.8047 21.7264 16.8047 21.3965C16.8047 21.0666 17.0764 20.7949 17.4062 20.7949Z" fill="#94989B"/>
<path d="M17.4062 17.9034C17.7361 17.9034 18.0078 18.1751 18.0078 18.505C18.0078 18.8349 17.7361 19.1066 17.4062 19.1066C17.0764 19.1066 16.8047 18.8349 16.8047 18.505C16.8047 18.1751 17.0764 17.9034 17.4062 17.9034Z" fill="#94989B"/>
<path d="M20.2969 21.9981C20.6291 21.9981 20.8984 21.7288 20.8984 21.3965C20.8984 21.0643 20.6291 20.7949 20.2969 20.7949C19.9646 20.7949 19.6953 21.0643 19.6953 21.3965C19.6953 21.7288 19.9646 21.9981 20.2969 21.9981Z" fill="#94989B"/>
<path d="M26.6055 17.9034C26.9353 17.9034 27.207 18.1751 27.207 18.505C27.207 18.8349 26.9353 19.1066 26.6055 19.1066C26.2756 19.1066 26.0039 18.8349 26.0039 18.505C26.0039 18.1751 26.2756 17.9034 26.6055 17.9034Z" fill="#DBB471"/>
<path d="M23.6953 20.7949C24.0252 20.7949 24.2968 21.0666 24.2968 21.3965C24.2968 21.7264 24.0252 21.9981 23.6953 21.9981C23.3654 21.9981 23.0938 21.7264 23.0938 21.3965C23.0938 21.0666 23.3654 20.7949 23.6953 20.7949Z" fill="#DBB471"/>
<path d="M23.6953 17.9034C24.0252 17.9034 24.2968 18.1751 24.2968 18.505C24.2968 18.8349 24.0252 19.1066 23.6953 19.1066C23.3654 19.1066 23.0938 18.8349 23.0938 18.505C23.0938 18.1751 23.3654 17.9034 23.6953 17.9034Z" fill="#DBB471"/>
<path d="M26.6055 21.9981C26.9377 21.9981 27.207 21.7288 27.207 21.3965C27.207 21.0643 26.9377 20.7949 26.6055 20.7949C26.2732 20.7949 26.0039 21.0643 26.0039 21.3965C26.0039 21.7288 26.2732 21.9981 26.6055 21.9981Z" fill="#DBB471"/>
<path d="M18.0469 10.3933H19.0559V11.4994H18.0469V10.3933Z" fill="#DBB471"/>
<path d="M24.9531 10.3933H25.9622V11.4994H24.9531V10.3933Z" fill="#DBB471"/>
<path d="M20.7812 14.2551L21.0917 13.1489L21.3828 13.2265L21.0723 14.3327L20.7812 14.2551Z" fill="#DBB471"/>
<path d="M20.6875 13.6535L20.7651 13.3624L21.5413 13.5759L21.4637 13.867L20.6875 13.6535Z" fill="#DBB471"/>
<path d="M22.6055 13.2073L22.8965 13.1296L23.207 14.2358L22.9159 14.3134L22.6055 13.2073Z" fill="#DBB471"/>
<path d="M22.4727 13.5565L23.2489 13.343L23.3265 13.6341L22.5503 13.8476L22.4727 13.5565Z" fill="#DBB471"/>
<path d="M25.2448 14.0027L24.391 14.7596L23.8477 13.2071L24.7015 12.7607L25.2448 14.0027Z" fill="white"/>
<path d="M18.7461 14.0027L19.5999 14.7596L20.1432 13.2071L19.2894 12.7607L18.7461 14.0027Z" fill="white"/>
<path d="M19.7536 13.2073L19.4626 13.1102L19.4044 13.3625L19.2103 13.3043L19.1133 13.5954L19.3073 13.6536L19.2103 14.1969L19.4626 14.294L19.6178 13.7506L19.8701 13.8088L19.9283 13.5177L19.7342 13.4595L19.7536 13.2073Z" fill="#DBB471"/>
<path d="M24.8973 13.5954L24.8003 13.3043L24.6062 13.3625L24.548 13.1102L24.2569 13.2073L24.3151 13.4595L24.1211 13.5177L24.1793 13.8088L24.4316 13.7506L24.5868 14.294L24.8391 14.1969L24.7421 13.6536L24.8973 13.5954Z" fill="#DBB471"/>
</svg>
