<svg width="30" height="31" viewBox="0 0 30 31" fill="none" xmlns="http://www.w3.org/2000/svg">
<path d="M15.0212 0.0595703C8.46233 0.0595703 2.91252 4.25126 0.875 10.0536H29.1674C27.1105 4.27066 21.5607 0.0595703 15.0212 0.0595703Z" fill="#FFE62E"/>
<path d="M15.0212 30.0612C21.5801 30.0612 27.1299 25.9083 29.1674 20.0671H0.875C2.91252 25.9083 8.46233 30.0612 15.0212 30.0612Z" fill="#ED4C5C"/>
<path d="M0.853821 10.073C0.310483 11.6255 0 13.3138 0 15.0797C0 16.8263 0.291079 18.534 0.853821 20.0865H29.1462C29.6895 18.534 30 16.8457 30 15.0797C30 13.3332 29.7089 11.6255 29.1462 10.073H0.853821Z" fill="#2A5F9E"/>
<path d="M16.3186 12.6153L16.8232 13.1586L16.7262 12.4018L17.3665 12.1107L16.6679 11.9554L16.5709 11.2568L16.2216 11.8972L15.4648 11.742L15.9694 12.2854L15.6201 12.9257L16.3186 12.6153Z" fill="white"/>
<path d="M13.6018 12.6735L14.2422 12.9646L13.8929 12.3242L14.3974 11.7808L13.6406 11.9361L13.2913 11.2957L13.1943 12.0525L12.4375 12.1495L13.1361 12.4988L13.0779 13.1974L13.6018 12.6735Z" fill="white"/>
<path d="M11.1171 13.5662L11.8738 13.6632L11.2723 13.1587L11.5245 12.5183L10.8842 12.8676L10.2826 12.363L10.5349 13.1199L9.89453 13.4692L10.6513 13.5274L10.8454 14.2842L11.1171 13.5662Z" fill="white"/>
<path d="M9.12106 15.3128L9.87786 15.1187L9.12106 14.8664V14.1096L8.67477 14.7112L7.91797 14.4589L8.36427 15.0605L7.95677 15.6039L8.65534 15.4098L9.15989 16.0114L9.12106 15.3128Z" fill="white"/>
<path d="M7.9555 17.5636L8.55705 17.1172L7.76145 17.1754L7.5092 16.4768L7.31515 17.1754H6.51953L7.1599 17.5829L6.96585 18.2816L7.5674 17.8352L8.26597 18.2428L7.9555 17.5636Z" fill="white"/>
<path d="M22.0625 17.4667L21.8102 18.1653L22.4506 17.719L23.0522 18.1653L22.8581 17.4667L23.4985 17.0592H22.7029L22.5088 16.3994L22.2566 17.0592H21.4609L22.0625 17.4667Z" fill="white"/>
<path d="M20.8197 15.2156L20.8779 15.9143L21.3242 15.3709L22.0228 15.5262L21.5765 14.9828L22.0228 14.3812L21.3242 14.6335L20.8197 14.0901V14.7887L20.1211 15.041L20.8197 15.2156Z" fill="white"/>
<path d="M18.8037 13.5079L19.0947 14.2066L19.2888 13.4498L20.0456 13.3915L19.4052 13.0422L19.5993 12.2854L18.9977 12.7899L18.3573 12.4406L18.6484 13.081L18.0469 13.5856L18.8037 13.5079Z" fill="white"/>
</svg>
