<svg width="30" height="31" viewBox="0 0 30 31" fill="none" xmlns="http://www.w3.org/2000/svg">
<path d="M15.55 30.3606C23.5305 30.0568 29.7538 23.3407 29.45 15.3598C29.1462 7.37888 22.4305 1.15535 14.45 1.45913C6.46949 1.76291 0.246247 8.47896 0.550011 16.4599C0.853774 24.4408 7.56951 30.6644 15.55 30.3606Z" fill="#F5F5F5"/>
<path d="M13.4056 12.3407C13.3121 12.5839 13.125 12.6775 13.125 12.6775C13.125 12.6775 16.9411 13.0142 16.7915 12.6775C16.6418 12.3407 16.3612 12.0976 16.3612 12.0976C16.3612 12.0976 16.6418 12.0414 16.7541 11.9479C16.2677 11.7047 15.9871 11.2183 15.9871 11.2183C16.1367 11.2744 16.3238 11.2183 16.3238 11.2183C15.8 10.4513 16.0432 10.2455 15.8374 9.77781C15.6504 9.29142 15.3136 9.19787 15.2201 9.16046C15.1266 9.10434 14.6028 9.06692 14.3596 9.16046C14.1726 9.254 14.1164 9.40367 14.1164 9.40367C14.1164 9.40367 13.9294 9.34755 13.8733 9.55333V9.60947H13.5927C13.0689 9.66559 13.1624 10.339 13.1624 10.339C13.2185 10.2829 13.3121 10.0958 13.4991 10.152C13.6862 10.2081 13.7423 10.152 13.8358 10.152C14.1725 10.152 14.2287 10.4887 14.2287 10.5822C14.2287 10.5822 14.1726 10.6384 14.1726 10.6758C14.0229 10.8629 14.0229 10.9564 14.0229 10.9564C13.9294 11.5363 13.5927 11.5738 13.5927 11.5738C13.7797 11.6673 13.8358 11.6299 13.8733 11.6299C13.6862 11.7234 13.443 12.0227 13.443 12.0227C13.2933 12.2659 13.1624 12.2098 13.1624 12.2098C13.2559 12.3782 13.4056 12.3407 13.4056 12.3407Z" fill="#FFCE31"/>
<path d="M27.0991 8.67392C26.912 8.28106 26.276 8.73004 25.5652 8.95453C25.5652 8.95453 23.8255 9.47832 22.8153 9.72151C22.7218 9.72151 22.6282 9.77764 22.6282 9.77764C19.841 10.5072 19.0553 10.9375 19.0553 10.9375C18.5315 11.2742 18.6625 12.0413 18.9992 12.2845C19.1489 12.378 19.1488 12.5651 19.0553 12.6773C18.9057 12.7708 18.7747 12.6773 18.7747 12.6773C18.2883 12.4341 18.0452 12.6212 18.0452 12.6212C18.0452 12.6212 17.6149 14.6977 18.1387 14.9783L18.0452 15.6518C18.0452 15.6518 18.438 15.9886 18.8121 15.6518C18.8121 15.6518 18.9618 15.8015 19.2424 15.7454C19.523 15.6892 19.5791 15.5583 19.5791 15.4647C19.5791 15.4647 19.8223 15.6144 20.0093 15.5208C20.1964 15.4273 20.1964 15.2402 20.1964 15.2402C20.1964 15.2402 20.5331 15.2963 20.7202 15.0531C20.9073 14.8099 20.7763 14.5668 20.6641 14.5668C20.6641 14.5668 21.0569 14.6603 21.1505 14.3236C21.244 14.043 21.0569 13.8933 21.0569 13.8933C21.0569 13.8933 21.88 13.8933 22.1606 13.6501C22.1606 13.6501 22.4412 13.463 22.2541 13.3134C22.2541 13.3134 22.9837 13.2198 23.1707 12.9205C23.1707 12.9205 23.2643 12.827 23.2269 12.6773C23.2269 12.6773 23.2269 12.5838 23.1333 12.5838C23.1333 12.5838 23.9564 12.4341 24.1996 12.1909C24.1996 12.1909 24.2931 12.0413 24.2557 11.9103C24.2557 11.9103 24.2557 11.8542 24.1996 11.8168C24.1996 11.8168 24.9666 11.6671 25.3033 11.3304C25.3033 11.3304 25.4903 11.1433 25.3968 10.9001C25.3968 10.9001 26.6501 10.5634 26.3695 9.98345C26.3695 9.98345 26.9495 9.79634 26.7624 9.25383C26.7998 9.29124 27.2862 9.04807 27.0991 8.67392Z" fill="#FFCE31"/>
<path d="M8.87954 14.3611C8.97307 14.6978 9.36592 14.6043 9.36592 14.6043C9.27239 14.6604 9.17885 14.8475 9.30979 15.0907C9.49686 15.3339 9.83358 15.2778 9.83358 15.2778C9.83358 15.2778 9.83358 15.4275 10.0206 15.5584C10.2077 15.652 10.4509 15.5023 10.4509 15.5023C10.507 15.5958 10.507 15.7455 10.7876 15.7829C11.0682 15.8203 11.2178 15.6894 11.2178 15.6894C11.5546 16.0261 11.9848 15.6894 11.9848 15.6894L11.8913 15.0159C12.4151 14.7353 11.9848 12.6588 11.9848 12.6588C11.9848 12.6588 11.7416 12.4717 11.2553 12.7148C11.2553 12.7148 11.1056 12.8084 10.9747 12.7148C10.8811 12.6213 10.8811 12.4343 11.0308 12.322C11.3675 12.0788 11.5172 11.3118 10.9747 10.9751C10.9747 10.9751 10.2077 10.5448 7.40173 9.81519C4.61446 9.0856 7.3082 9.7591 7.21466 9.7591C6.20451 9.57203 4.46481 8.99208 4.46481 8.99208C3.73526 8.805 3.11795 8.37473 2.93089 8.71146C2.74382 9.10432 3.21148 9.32882 3.21148 9.32882C3.02442 9.85263 3.60432 10.0584 3.60432 10.0584C3.32372 10.5822 4.57706 10.9751 4.57706 10.9751C4.48352 11.2183 4.67059 11.4053 4.67059 11.4053C5.06342 11.7421 5.77426 11.8917 5.77426 11.8917C5.77426 11.9479 5.71815 11.9853 5.71815 11.9853C5.66203 12.1349 5.77426 12.2659 5.77426 12.2659C6.01745 12.5465 6.84054 12.6588 6.84054 12.6588C6.747 12.6588 6.747 12.7523 6.747 12.7523C6.69088 12.902 6.80312 12.9955 6.80312 12.9955C6.99018 13.2761 7.71974 13.3883 7.71974 13.3883C7.57009 13.5754 7.81327 13.7251 7.81327 13.7251C8.14999 13.9683 8.91696 13.9683 8.91696 13.9683C8.91696 13.9683 8.786 14.0618 8.87954 14.3611Z" fill="#FFCE31"/>
<path d="M12.1505 18.4954C12.1505 18.4954 12.244 18.2148 12.6743 17.9716C12.6743 17.9716 13.1981 17.7845 13.1981 17.5413C13.1981 17.2982 12.0383 15.8951 12.0383 15.8951C12.0383 15.8951 11.9447 16.3254 11.2713 16.9053C11.2713 16.9053 10.7475 17.3356 10.7849 17.8781C10.7849 18.4019 10.6914 18.458 10.5043 18.6451H10.654C10.5043 18.8322 10.2611 19.0754 9.98055 19.1315C9.98055 19.1315 9.30711 19.0379 9.06393 19.225C8.91428 19.3747 8.78334 19.4682 8.72722 19.805C8.67111 20.1417 8.82074 20.1978 8.87686 20.1978C8.87686 20.1978 8.93299 20.441 9.12006 20.3849C9.12006 20.3849 9.12007 20.6281 9.55031 20.5345C9.94315 20.441 10.1302 20.441 10.1676 20.0482C10.2611 19.6553 10.3173 19.6553 10.4108 19.6179C10.5043 19.5618 10.6914 19.4682 10.841 19.4308C10.9346 19.3747 11.3274 19.1876 11.5145 19.1502C11.5145 19.2063 11.5145 19.2438 11.5706 19.2999C11.5706 19.2999 11.6267 19.2063 11.7577 19.1502C11.7577 18.9818 12.057 18.9444 12.1505 18.4954Z" fill="#FFCE31"/>
<path d="M20.9271 19.225C20.74 19.0379 20.0105 19.1315 20.0105 19.1315C19.7299 19.1315 19.4867 18.8509 19.337 18.6451H19.4867C19.2996 18.458 19.2061 18.4019 19.2061 17.8781C19.2061 17.3543 18.7197 16.9053 18.7197 16.9053C18.0463 16.3254 17.9528 15.8951 17.9528 15.8951C17.9528 15.8951 16.793 17.2982 16.793 17.5413C16.793 17.7845 17.3168 17.9716 17.3168 17.9716C17.8031 18.2148 17.8405 18.4954 17.8405 18.4954C17.9341 18.9257 18.2334 18.9818 18.2334 18.9818C18.383 19.0379 18.4204 19.1315 18.4204 19.1315C18.4204 19.0754 18.4766 19.0379 18.4766 18.9818C18.6636 19.0379 19.0564 19.225 19.15 19.2624C19.2996 19.356 19.4867 19.4121 19.5802 19.4495C19.6364 19.5056 19.7299 19.5056 19.8234 19.8798C19.9169 20.2726 20.0666 20.2727 20.4407 20.3662C20.8336 20.4597 20.871 20.2165 20.871 20.2165C21.1142 20.2727 21.1142 20.0295 21.1142 20.0295C21.1703 20.0295 21.3012 19.9359 21.2638 19.6366C21.1703 19.4121 21.0206 19.3186 20.9271 19.225Z" fill="#FFCE31"/>
<path d="M16.9792 18.2149C16.9792 18.1213 16.9231 17.9717 16.736 17.7285C16.2496 17.2047 15.4827 18.3458 15.2956 18.7012C15.2395 18.6077 15.1459 18.5516 15.0524 18.5516C14.9589 18.5516 14.8654 18.6077 14.8092 18.7012C14.5661 18.3645 13.8365 17.2047 13.3688 17.7285C13.1818 17.9717 13.1257 18.1213 13.1257 18.2149C11.255 19.9547 12.1529 20.0856 12.1529 20.0856C12.1529 20.5159 12.5458 20.4224 12.5458 20.4224C12.4896 20.9088 12.8825 20.8526 12.8825 20.8526C12.8825 21.3764 13.2753 21.2829 13.2753 21.2829C13.3314 21.8628 13.7617 21.6196 13.7617 21.6196C13.7617 22.106 14.0423 22.1434 14.0423 22.1434C14.379 22.1996 14.5286 21.8067 14.566 21.7132V21.9564C14.6222 22.3492 14.8092 22.6298 15.0898 22.6298C15.3704 22.6298 15.5762 22.2931 15.6136 21.9564V21.7132C15.6697 21.8628 15.8007 22.1996 16.1374 22.1434C16.1374 22.1434 16.418 22.0873 16.418 21.6196C16.418 21.6196 16.8482 21.8628 16.9044 21.2829C16.9044 21.2829 17.2972 21.3764 17.2972 20.8526C17.2972 20.8526 17.69 20.9088 17.6339 20.4224C17.6339 20.4224 18.0267 20.5159 18.0267 20.0856C17.9332 20.1417 18.8498 19.9921 16.9792 18.2149Z" fill="#FFCE31"/>
<path d="M22.366 16.8118L22.7588 16.9989L20.832 19.225L21.0752 19.4683L22.9459 17.2046L23.189 17.5975L24.1057 15.6706L22.366 16.8118Z" fill="#0081C6"/>
<path d="M22.5162 15.9886L22.7968 16.3253L23.2831 14.2114L21.8427 15.7454L22.2356 15.839L20.9261 18.4019L21.3189 16.6247L21.7118 16.8679L21.6557 14.6978L20.5894 16.5685H21.0196L20.4023 19.1688L20.6829 19.3559L20.739 19.2624L20.7952 19.3185L22.5162 15.9886Z" fill="#428BC1"/>
<path d="M20.496 20.8711L20.3089 20.5905L20.365 20.3473L20.5147 20.1603C20.5147 20.1041 20.5147 20.0667 20.4585 20.0106C20.4024 19.9545 20.365 19.917 20.3089 19.917C20.2528 19.8609 20.1592 19.861 20.1592 19.861L19.916 20.3473H19.4297L19.2426 20.7402L19.093 20.6841L17.7461 22.2742L18.4757 22.3303L18.6253 23.0599L19.1117 22.48L18.962 23.0038L19.6354 22.7232L20.0657 23.3031L20.5521 21.2266L20.365 21.0395L20.496 20.8711Z" fill="#428BC1"/>
<path d="M9.64409 19.3184C9.64409 19.3184 9.64409 19.1688 9.92468 19.0378C10.2053 18.8882 10.2614 18.514 10.1679 18.2147C10.1679 18.2147 10.0182 18.4953 9.83115 18.5515C9.83115 18.5515 9.55055 18.7011 9.49443 19.0378C9.49443 19.0378 9.49442 19.1314 9.4383 19.2249C9.4383 19.281 9.28865 18.8321 9.53183 18.4953C9.81243 18.1586 9.86856 17.9154 9.68149 17.3916C9.68149 17.3916 9.68148 17.7283 9.4383 17.878C9.25123 18.0651 9.19513 18.0651 9.19513 18.4953C9.19513 18.4953 9.19513 18.645 9.10159 18.6824C9.10159 18.6824 8.95194 18.4392 8.91453 18.2895C8.85841 18.1399 8.8584 18.0464 9.06417 17.8967C9.06417 17.8967 9.64408 17.5038 9.21383 16.6994C9.21383 16.6994 9.21382 16.98 8.97064 17.1858C8.78357 17.3729 8.78357 17.4664 8.78357 17.7657C8.78357 18.065 8.72746 18.0463 8.72746 18.1025C8.72746 18.1025 8.33463 17.429 8.63393 17.0361C8.91453 16.6433 9.06417 16.6059 8.78357 15.9324C8.78357 15.9324 8.78358 16.2691 8.5404 16.4562C8.29722 16.6433 8.35334 17.0361 8.35334 17.0361C8.35334 17.0361 8.35333 17.1858 8.29721 17.2793C8.29721 17.2793 7.90437 16.5497 8.29721 16.1756C8.5778 15.8388 8.57781 15.6518 8.44687 15.1654C8.44687 15.1654 8.44687 15.3525 8.2598 15.5021C8.11015 15.5957 7.9792 15.7453 8.01661 16.1756C8.01661 16.1756 8.01661 16.4562 7.96049 16.5685C7.96049 16.5685 7.81084 16.2878 7.77343 16.082C7.71731 15.895 7.71731 15.8015 7.82954 15.5957C7.92308 15.4086 8.40945 14.8661 7.88567 14.0991C7.88567 14.0991 7.88566 14.3422 7.73601 14.5854C7.58636 14.8286 7.67989 15.0719 7.67989 15.2589C7.73601 15.446 7.62378 15.6518 7.62378 15.6518C7.62378 15.6518 7.38059 15.2215 7.43671 14.7351C7.49283 14.2487 7.28707 13.8746 6.85682 13.5753C6.85682 13.5753 6.5201 14.3423 6.95035 14.7351C6.95035 14.7351 7.34318 15.128 7.43671 15.5583C7.43671 15.5583 7.15612 15.5021 6.91293 15.0344C6.66975 14.5106 6.08984 14.6042 6.08984 14.6042C6.08984 14.6042 6.18338 15.3712 7.00647 15.6144C7.00647 15.6144 7.53025 15.7079 7.62378 16.1008C7.62378 16.1008 7.71731 16.3814 7.77343 16.4936C7.77343 16.4936 7.62378 16.4375 7.43671 16.213C7.28706 15.9698 7.28707 15.9698 6.76328 15.9324C6.76328 15.9324 6.57621 15.9324 6.42656 15.7453C6.42656 15.7453 6.66975 16.5685 7.19353 16.5685C7.19353 16.5685 7.71731 16.5123 8.01661 17.1858C8.01661 17.1858 7.96049 17.1297 7.86696 17.0923C7.77343 17.0362 7.58636 16.9426 7.24965 16.9987C6.85681 17.0549 6.76328 16.9987 6.66975 16.9426C6.66975 16.9426 7.06258 17.6722 7.58636 17.429C8.11014 17.2419 8.40945 17.9528 8.40945 18.0089C8.40945 18.0089 8.31592 17.9528 8.2598 17.8593C8.16627 17.7657 7.9792 17.6722 7.58636 17.7657C7.58636 17.7657 7.30577 17.8593 7.06258 17.7657C7.06258 17.7657 7.30576 18.2895 7.92308 18.196C8.54039 18.1025 8.69005 18.6263 8.69005 18.6263C8.69005 18.6263 8.59652 18.5702 8.5404 18.5327C8.48428 18.4766 8.29721 18.3831 7.81084 18.4766C7.38059 18.6263 7.19353 18.4766 7.19353 18.4766C7.19353 18.4766 7.43671 18.9069 7.92308 18.963C7.92308 18.963 8.16627 18.963 8.31592 18.9069C8.40945 18.8508 8.70875 18.8134 8.93323 19.094C8.93323 19.094 8.8771 19.094 8.78357 19.0378C8.78357 19.0378 8.44686 18.9443 8.20367 19.1314C8.20367 19.1314 8.01661 19.3746 7.67989 19.3184C7.67989 19.3184 8.07274 19.7113 8.69005 19.3746C8.69005 19.3746 8.87712 19.2249 9.08289 19.3184C9.30737 19.5242 9.64409 19.3184 9.64409 19.3184Z" fill="#83BF4F"/>
<path d="M9.58984 20.2353C9.58984 20.2353 9.58985 19.9547 9.92657 19.9547L10.9928 21.3952C10.9928 21.3952 10.9367 21.4887 10.469 21.4887C10.469 21.4887 10.4129 21.4887 10.3755 21.5448C10.3755 21.6384 9.58984 20.2353 9.58984 20.2353Z" fill="#83BF4F"/>
<path d="M14.9379 18.9817C14.9379 18.9817 18.118 17.5787 18.118 14.3049H11.7578C11.7578 17.5787 14.9379 18.9817 14.9379 18.9817Z" fill="white"/>
<path d="M12.2461 14.3049V16.3814C12.2461 16.3814 12.4893 16.8678 12.7325 17.1484V14.3049H12.2461Z" fill="#ED4C5C"/>
<path d="M13.2539 14.3049V17.7283C13.2539 17.7283 13.5345 18.009 13.7403 18.1586V14.3049H13.2539Z" fill="#ED4C5C"/>
<path d="M14.2305 14.3049V18.5515C14.2305 18.5515 14.5672 18.7947 14.7168 18.8321V14.3049H14.2305Z" fill="#ED4C5C"/>
<path d="M17.6504 14.3049V16.3814C17.6504 16.3814 17.4072 16.8678 17.1641 17.1484V14.3049H17.6504Z" fill="#ED4C5C"/>
<path d="M16.6778 14.3049V17.7283C16.6778 17.7283 16.3972 18.009 16.1914 18.1586V14.3049H16.6778Z" fill="#ED4C5C"/>
<path d="M15.7247 14.3049V18.5515C15.7247 18.5515 15.3879 18.7947 15.2383 18.8321V14.3049H15.7247Z" fill="#ED4C5C"/>
<path d="M18.118 11.9479C18.118 11.9479 16.5841 12.771 14.9379 11.8918C13.2917 12.7523 11.7578 11.9479 11.7578 11.9479V14.305H18.118V11.9479Z" fill="#428BC1"/>
<path d="M3.62382 18.0278C3.81088 17.9717 3.90442 17.8781 3.90442 17.7472C3.90442 17.6911 3.90442 17.5975 3.8483 17.504L2.83816 14.3237C2.78204 14.1366 2.74461 14.0431 2.68849 13.987C2.63238 13.8934 2.53884 13.8373 2.44531 13.7999H3.79218C3.64253 13.856 3.51158 13.9496 3.51158 14.0805C3.51158 14.1366 3.51158 14.2302 3.5677 14.3237L4.33467 16.8305L5.10164 14.3237C5.15776 14.2302 5.15775 14.1366 5.15775 14.0805C5.15775 13.9308 5.0081 13.8934 4.87716 13.7999H6.18661C6.09308 13.856 5.99955 13.8934 5.94343 13.987C5.94343 14.0431 5.88731 14.1366 5.79378 14.3237L4.78362 17.504C4.7275 17.6536 4.72751 17.7472 4.72751 17.7472C4.72751 17.7472 4.67139 17.9343 5.0081 18.0278H3.62382Z" fill="#428BC1"/>
<path d="M25.6938 17.691V14.1179C25.6938 14.0618 25.6938 14.0244 25.6377 13.9683C25.6377 13.9121 25.5442 13.8186 25.3945 13.7812H26.5918C26.4421 13.8373 26.4047 13.9308 26.3486 13.9683C26.2924 14.0244 26.2925 14.0618 26.2925 14.1179V17.691C26.2925 17.7472 26.2924 17.7846 26.3486 17.8407C26.3486 17.8968 26.4421 17.9342 26.5918 18.0278H25.3945C25.5442 17.9717 25.5816 17.8781 25.6377 17.8407C25.6938 17.7846 25.6938 17.7284 25.6938 17.691Z" fill="#428BC1"/>
</svg>
