<svg width="30" height="31" viewBox="0 0 30 31" fill="none" xmlns="http://www.w3.org/2000/svg">
<path d="M0 15.2709C0 21.8301 4.19146 27.3803 9.99352 29.4179V1.12402C4.19146 3.18105 0 8.73113 0 15.2709Z" fill="#428BC1"/>
<path d="M30.0013 15.2709C30.0013 8.71173 25.8487 3.16165 20.0078 1.12402V29.4179C25.8487 27.3803 30.0013 21.8301 30.0013 15.2709Z" fill="#ED4C5C"/>
<path d="M9.99219 29.4177C11.5446 29.9611 13.2328 30.2716 14.9987 30.2716C16.7645 30.2716 18.4527 29.9805 20.0051 29.4177V1.12386C18.4527 0.580496 16.7645 0.27002 14.9987 0.27002C13.2328 0.27002 11.5446 0.56109 9.99219 1.12386V29.4177Z" fill="#F9F9F9"/>
</svg>
