<svg width="30" height="31" viewBox="0 0 30 31" fill="none" xmlns="http://www.w3.org/2000/svg">
<path d="M28.9918 20.2696C26.2381 20.2696 23.9886 18.02 23.9886 15.2661H4.40234V25.8549C7.09788 28.5506 10.8406 30.2572 14.9905 30.2572C21.5452 30.2572 27.0914 26.0682 29.1276 20.2696H28.9918Z" fill="#83BF4F"/>
<path d="M28.992 10.282H29.1471C27.0915 4.48341 21.5453 0.294434 15.0101 0.294434C10.8602 0.294434 7.11741 2.00104 4.42188 4.69672V15.2855H24.0081C23.9888 12.5317 26.2383 10.282 28.992 10.282Z" fill="#3E4347"/>
<path d="M29.147 10.282H4.40234V20.2696H29.147C29.6899 18.7181 30.0002 17.0309 30.0002 15.2661C30.0002 13.5207 29.6899 11.8141 29.147 10.282Z" fill="#F9F9F9"/>
<path d="M4.4021 4.67749C1.70656 7.37317 0 11.1161 0 15.2663C0 19.4164 1.70656 23.1594 4.4021 25.8551L14.9903 15.2663L4.4021 4.67749Z" fill="#ED4C5C"/>
<path d="M21.0025 18.7181C19.5093 18.4272 18.3457 16.9727 18.3457 15.266C18.3457 13.5594 19.4899 12.1631 21.0025 11.814C20.8086 11.7559 20.5565 11.7559 20.3432 11.7559C18.5009 11.7559 16.9883 13.3073 16.9883 15.2467C16.9883 17.186 18.4815 18.7375 20.3432 18.7375C20.5565 18.7763 20.7892 18.7762 21.0025 18.7181Z" fill="#ED4C5C"/>
<path d="M21.5051 16.3133L22.7462 17.2636L22.242 15.7121L23.4831 14.7618H21.9317L21.4857 13.2686L21.0397 14.7618H19.4883L20.7294 15.7121L20.2252 17.2636L21.5051 16.3133Z" fill="#ED4C5C"/>
</svg>
