<svg width="30" height="31" viewBox="0 0 30 31" fill="none" xmlns="http://www.w3.org/2000/svg">
<path d="M15.0016 0.354492C8.44277 0.354492 2.89298 4.54618 0.855469 10.3486H29.1478C27.1103 4.56558 21.5605 0.354492 15.0016 0.354492Z" fill="#C94747"/>
<path d="M15.0016 30.3559C21.5605 30.3559 27.1103 26.203 29.1478 20.3618H0.855469C2.91239 26.203 8.46217 30.3559 15.0016 30.3559Z" fill="#3E4347"/>
<path d="M0.853844 10.3677C0.310507 11.9202 0 13.6085 0 15.3744C0 17.121 0.291102 18.8287 0.853844 20.3812H29.1462C29.6895 18.8287 30 17.1404 30 15.3744C30 13.6279 29.7089 11.9202 29.1462 10.3677H0.853844Z" fill="#F9F9F9"/>
</svg>
