<svg width="30" height="31" viewBox="0 0 30 31" fill="none" xmlns="http://www.w3.org/2000/svg">
<path d="M20.0065 15.3289H30C30 7.02314 23.3053 0.328125 15 0.328125C6.6947 0.328125 0 7.02314 0 15.3289C0 23.6346 6.6947 30.3297 15 30.3297V15.3289H20.0065Z" fill="#83BF4F"/>
<path d="M24.9922 26.5264C28.0388 23.7707 29.9987 19.7731 29.9987 15.3291H24.9922V26.5264Z" fill="#FF8736"/>
<path d="M20.0078 15.3291V29.4761C21.8513 28.8357 23.5589 27.8266 25.0142 26.5264V15.3291H20.0078Z" fill="#3E4347"/>
<path d="M20.0065 15.3291H15V30.3299C16.7464 30.3299 18.4541 30.0388 20.0065 29.4761V15.3291Z" fill="#C94747"/>
<path d="M27.7491 10.4775C28.3895 10.1282 28.5059 9.77894 28.5059 9.77894C28.5059 9.72072 28.0596 10.0312 27.264 10.3805C28.2731 9.87594 28.2731 9.48785 28.2148 9.48785C28.0596 9.48785 27.4581 9.89535 26.6624 10.2447C27.361 9.89535 27.7104 9.48786 27.6715 9.44905C27.5163 9.60429 25.9639 10.2059 25.9639 10.2059C26.158 10.1088 26.3132 9.85654 26.158 9.85654C25.9057 10.0506 24.9549 10.2059 24.6638 10.2641C24.4697 10.3223 23.907 10.5164 23.7711 10.5164C22.7621 10.4582 22.5292 10.5746 22.5292 10.5746L22.5874 10.6328H22.5292C22.5292 10.5746 22.471 10.5746 22.471 10.5746C22.3158 10.2835 22.5292 10.1671 22.6263 10.1283C22.7233 10.1283 22.7233 10.1282 22.8203 10.07C22.7621 10.07 22.7233 10.0118 22.6651 10.0118C22.7621 10.0118 22.9173 10.0118 22.8591 10.2059C22.9561 10.1476 23.2084 9.91476 22.568 9.85654C22.374 9.66248 21.5202 9.50725 21.2679 10.4581C21.2679 10.4581 21.3261 10.4582 21.3649 10.5164C21.1127 10.4193 20.3559 10.3223 20.123 10.2641C19.4244 10.07 18.6676 9.60427 18.5706 9.66248C18.4736 9.7207 19.0169 10.1671 18.9781 10.1671C18.5318 9.91478 18.0855 9.75951 17.7362 9.56545C17.4839 9.46842 17.1929 9.27436 17.1347 9.31317C17.0376 9.50723 17.581 9.95359 17.678 10.07C17.775 10.1282 18.5706 10.4775 18.5706 10.4775C17.3675 9.97297 17.1735 9.87598 17.1152 9.83717C17.0182 9.83717 16.766 9.48786 16.6689 9.54608C16.6107 9.60429 16.7272 10.0894 17.2705 10.3029C17.2705 10.3029 17.3675 10.3611 17.4257 10.3611L17.1347 10.2641C16.8824 10.1671 16.5913 9.85655 16.5331 9.91477C16.4749 9.97299 16.6884 10.2641 16.9406 10.4193C17.0376 10.4776 17.2317 10.5746 17.5421 10.6716C17.2899 10.5746 16.9988 10.4776 16.8436 10.4193C16.6495 10.3223 16.5913 10.2253 16.5525 10.2253C16.5137 10.2253 16.6107 10.7298 17.9109 11.0209C17.8527 11.0209 17.6586 11.0209 17.6586 11.0791C17.6586 11.1373 17.7556 11.2732 18.4154 11.2732C18.5124 11.2732 18.9587 11.1179 18.9199 11.1762C18.9199 11.1762 18.2795 11.3702 18.2213 11.3702C18.1631 11.3702 17.9691 11.4284 17.9691 11.4284C17.9691 11.4867 18.1243 11.5837 18.4736 11.6225C18.7647 11.6225 19.4245 11.4284 19.3662 11.4672L18.7647 11.6613C18.7647 11.6613 18.5124 11.6613 18.5124 11.7195C18.5124 11.7777 18.8035 12.0106 19.7543 11.7195C19.6573 11.8166 19.211 11.9136 19.211 11.9136C19.211 11.9136 19.308 12.0106 19.4633 12.0688H19.7543C19.9484 12.0106 20.1036 11.9718 20.3559 11.7778C20.4141 11.836 19.7543 12.127 19.8126 12.1853C19.9678 12.2823 20.4141 12.1852 20.4141 12.127C20.4723 12.127 21.3067 11.6807 21.2679 11.6225C21.2679 11.6807 20.1618 12.2241 20.1618 12.2629C20.22 12.3599 20.6081 12.2629 20.6081 12.2629L21.1127 12.0106C21.1127 12.0106 20.5693 12.3017 20.6081 12.3599C20.6081 12.5152 21.2679 12.3017 21.462 12.2047C21.3649 12.2629 21.1127 12.3987 21.1127 12.457C21.2679 12.7092 21.753 12.6122 21.8112 12.554C21.8694 12.4958 21.753 12.7092 21.8112 12.7092C21.8112 12.7092 21.9083 12.6122 21.9665 12.5151C21.9665 12.5734 21.9083 12.6704 21.8694 12.8062C21.8112 12.9033 21.8112 13.0585 21.7724 13.2138C21.7724 13.272 21.9665 13.1555 22.0247 12.8062C22.0247 13.0003 21.9277 13.3108 21.9665 13.3108C21.9665 13.3108 22.0247 13.3108 22.0635 13.2526V13.3108C22.0635 13.369 22.0053 13.5631 21.7724 13.5631C21.4814 13.5631 21.4814 13.8154 21.4814 13.8154C21.4814 13.8154 21.4231 13.8153 21.4814 13.9706C21.5396 13.8736 21.5784 13.8736 21.5784 13.8736C21.6366 13.8736 21.7724 13.9318 21.9859 13.7765C21.7918 13.9706 21.8889 14.0288 21.8889 14.0288C21.8889 14.0288 21.8307 14.1841 21.9859 14.2229C21.9277 14.1647 21.9859 14.1258 21.9859 14.1258C21.9859 14.1258 22.1799 14.1258 22.1799 13.8736C22.1799 14.0676 22.3352 14.1647 22.3352 14.1647C22.3352 14.1647 22.3352 14.2617 22.4904 14.3199C22.3934 14.2617 22.4322 14.1647 22.4322 14.1647C22.4322 14.1647 22.6262 14.0677 22.4904 13.8154C22.5486 13.8154 22.5486 13.7572 22.5874 13.7572V13.8542C22.5874 14.0094 22.5874 14.0094 22.6844 14.1065C22.6262 14.0094 22.6844 13.9512 22.6844 13.9512C22.6844 13.9512 22.8397 14.0094 22.9367 13.8542C22.8397 14.0482 22.8785 14.1065 22.9367 14.1065C22.9367 14.1647 22.8785 14.3005 23.092 14.3005C23.0338 14.2423 23.0337 14.1453 23.0337 14.1453C23.0337 14.1453 23.2278 14.087 23.1308 13.796C23.189 13.7377 23.2278 13.796 23.2278 13.796C23.2278 13.796 23.2278 13.99 23.4218 13.9512C23.4801 14.0094 23.4218 14.1065 23.4218 14.1065C23.4218 14.1065 23.5189 14.1065 23.5771 14.0094C23.6353 13.9124 23.6353 13.7572 23.4801 13.7184C23.4801 13.6601 23.5383 13.6601 23.5383 13.6601C23.5383 13.6601 23.6353 13.7183 23.6935 13.7572C23.7518 13.8154 23.6935 13.6019 23.5383 13.6019C23.3442 13.6019 23.3442 13.5437 23.3442 13.5437V13.3884C23.4995 13.4854 23.6353 13.4854 23.6353 13.4854C23.6353 13.4272 23.3442 13.078 23.383 13.0391C23.4801 13.0391 23.5771 13.2332 23.6741 13.1944C23.6159 13.1361 23.5189 13.1361 23.4218 13.0003C23.4218 12.9421 23.3636 12.9421 23.3636 12.9033C23.3636 12.9033 23.6159 13.1556 23.8099 13.1556C23.907 13.0973 23.6547 12.9615 23.6547 12.9033C23.7517 13.0003 24.101 13.2526 24.3533 13.1556C24.4503 13.0003 24.198 13.0585 23.907 12.7092C24.101 12.8645 24.6056 13.1167 24.8578 13.0003C24.916 12.9421 24.6638 12.8063 24.4503 12.5928C24.5473 12.651 24.6055 12.6898 24.6444 12.6898C24.8966 12.7869 25.1489 12.6316 25.1489 12.6316C25.1489 12.5734 25.0519 12.5734 24.8966 12.5346C25.1877 12.5928 25.4012 12.5346 25.44 12.4763C25.44 12.4181 25.3818 12.4181 25.0907 12.3793C25.6922 12.4763 26.1968 12.127 26.1968 12.127C26.1968 12.127 26.352 12.0688 26.0997 12.0688C27.8074 11.8748 28.0984 11.1179 28.0984 11.1179C28.0402 11.1179 27.7491 11.312 27.3416 11.4672C28.0984 11.1179 28.4477 10.6716 28.4477 10.6134C28.3507 10.1865 28.0984 10.3417 27.7491 10.4775ZM18.0467 10.8268C18.2019 10.7686 18.3378 10.7686 18.299 10.7686C18.299 10.788 18.1437 10.8268 18.0467 10.8268ZM17.5033 10.2835C17.8526 10.4387 18.5124 10.6328 18.4542 10.6328C18.493 10.691 17.8914 10.4387 17.5033 10.2835ZM23.3442 11.7778C23.286 11.7195 23.2472 11.6225 23.2472 11.6225C23.2472 11.6807 23.3054 11.7389 23.3442 11.7778ZM26.6043 11.3314C26.0997 11.4867 25.4982 11.5255 24.7608 11.3314C25.4982 11.4867 26.0997 11.4284 26.6043 11.3314ZM26.8953 10.8268C26.7983 10.8851 26.7013 10.9239 26.6043 10.9239C26.7013 10.9433 26.7983 10.8851 26.8953 10.8268ZM22.8979 13.2914C22.8979 13.2914 22.7039 13.2914 22.5486 13.3496C22.4904 13.3496 22.3934 13.2914 22.3546 13.2526C22.2964 13.1944 22.3546 12.9033 22.3546 12.9033L22.5098 13.0585C22.5098 12.9033 22.5098 12.9033 22.4516 12.8062C22.4516 12.651 22.5098 12.3987 22.5098 12.1077C22.7621 12.554 22.8591 12.748 22.8009 13.1167C22.8591 13.1167 22.8591 13.0585 22.8979 13.0197V13.272C22.9561 13.2332 22.8979 13.2332 22.8979 13.2914ZM23.0532 11.933C23.092 11.9912 23.092 11.9912 23.0532 11.933Z" fill="#FF8736"/>
<path d="M22.8191 14.3584L22.5474 14.0868C22.528 14.0674 22.5086 14.0479 22.4891 14.0285C22.4697 14.0868 22.4115 14.1256 22.3921 14.145C22.3921 14.1838 22.4115 14.1838 22.4115 14.2032L22.3727 14.3196C22.2563 14.2808 22.1981 14.2032 22.1787 14.145C22.1593 14.1256 22.1205 14.0868 22.0817 14.0285C22.0429 14.0868 21.9847 14.1062 21.9458 14.1256L22.1205 14.3003L21.8682 14.2226C21.7906 14.2032 21.7324 14.1256 21.713 14.048C21.713 14.0286 21.713 13.9897 21.713 13.9703C21.713 13.9509 21.6936 13.9509 21.6936 13.9315C21.6936 13.9121 21.6936 13.8927 21.6936 13.8733C21.616 13.8927 21.5383 13.8927 21.4995 13.8733H21.4801C21.4801 13.8733 21.4607 13.8927 21.4413 13.9315L21.3831 14.0673L21.3443 13.9315C21.3055 13.8345 21.3055 13.7763 21.3443 13.7374C21.3637 13.621 21.4413 13.4658 21.713 13.4658C21.8488 13.4658 21.907 13.3882 21.9264 13.33C21.907 13.33 21.907 13.33 21.907 13.33H21.8682L21.8488 13.3105C21.8294 13.2911 21.8294 13.2523 21.8294 13.1941C21.7906 13.2329 21.7518 13.2523 21.713 13.2523C21.6741 13.2523 21.6354 13.2135 21.6354 13.1747V13.1553C21.6548 13.0971 21.6742 13.0194 21.6742 12.9612C21.6936 12.8836 21.6936 12.806 21.7324 12.7478H21.713L21.6936 12.7089C21.6742 12.6895 21.6742 12.6507 21.6742 12.6313C21.5771 12.6507 21.4413 12.6702 21.3249 12.6507C21.1696 12.6313 21.0532 12.5731 20.995 12.4567V12.4373V12.4178C20.995 12.3984 20.995 12.3984 21.0144 12.379C20.8204 12.4373 20.6263 12.4566 20.5487 12.4178C20.5293 12.3984 20.5099 12.3791 20.5099 12.3597V12.3208C20.3352 12.3596 20.1217 12.3791 20.0635 12.2626V12.2432C19.9471 12.2432 19.8113 12.2432 19.7337 12.185L19.6949 12.1656V12.1267V12.1074H19.3844H19.365C19.2097 12.0492 19.0933 11.9521 19.0933 11.9327L19.0545 11.8939C18.6664 11.9327 18.4918 11.8357 18.453 11.7969C18.4142 11.7774 18.3947 11.7386 18.3947 11.6998C18.3947 11.6804 18.3947 11.6804 18.3947 11.661C18.0455 11.6028 17.832 11.5058 17.832 11.3894V11.3311L17.8708 11.3117C17.9096 11.3117 17.9678 11.2923 18.0454 11.2729C17.5603 11.2341 17.5215 11.0788 17.5215 11.0206C17.5215 11.0012 17.5215 10.9818 17.5409 10.9624C16.5707 10.6713 16.396 10.2832 16.4155 10.1862C16.4155 10.1279 16.4737 10.1086 16.5125 10.128C16.4543 10.0503 16.4155 9.97272 16.4155 9.93391C16.4155 9.8951 16.4348 9.85626 16.4348 9.85626C16.493 9.79804 16.5513 9.83686 16.6483 9.91449C16.5901 9.81746 16.5707 9.72041 16.5707 9.701C16.5512 9.60397 16.5513 9.54578 16.5901 9.52637L16.6095 9.50694C16.7065 9.46813 16.8035 9.56519 16.9394 9.68163C16.9782 9.72044 17.0752 9.79805 17.0946 9.81746H17.114L17.1334 9.83688C17.1528 9.85629 17.2304 9.89507 17.3663 9.95329C17.1334 9.73983 16.9588 9.50698 17.0364 9.35173L17.0558 9.33231C17.114 9.27409 17.2304 9.33231 17.4439 9.42934C17.5409 9.46815 17.6379 9.52636 17.7349 9.56517C17.9096 9.6622 18.1037 9.73985 18.2977 9.83688C18.4141 9.8951 18.5306 9.93388 18.6664 9.99209C18.5306 9.85625 18.4724 9.77865 18.4918 9.72043C18.4918 9.70102 18.5112 9.6622 18.5306 9.6622C18.6082 9.62339 18.7246 9.68164 19.0933 9.83688C19.3844 9.97272 19.7725 10.1473 20.1412 10.2444C20.1994 10.2638 20.3158 10.2832 20.4323 10.3026C20.6845 10.3414 20.995 10.3996 21.2085 10.4579C21.3443 9.97272 21.6353 9.79807 21.8682 9.73985C22.1593 9.66223 22.4503 9.73983 22.5862 9.85626C22.8578 9.87567 23.0131 9.95329 23.0519 10.0503H23.0713L23.0519 10.0697C23.0713 10.1862 22.9549 10.2832 22.8967 10.322L22.7802 10.3802L22.8191 10.2444C22.8191 10.225 22.8191 10.2056 22.8191 10.1862C22.7414 10.225 22.722 10.225 22.6444 10.225C22.5474 10.2832 22.431 10.3414 22.528 10.5549C22.5862 10.5355 22.8967 10.4579 23.7893 10.4967C23.8669 10.4967 24.158 10.3996 24.3715 10.3414C24.4879 10.3026 24.6043 10.2638 24.6819 10.2444H24.7207C25.0118 10.1862 25.9238 10.0503 26.1567 9.85626L26.1761 9.83688H26.1955C26.2537 9.83688 26.312 9.87568 26.312 9.91449C26.3314 9.9533 26.3119 10.0115 26.2731 10.0697C26.8552 9.83687 27.5538 9.54579 27.6509 9.44876L27.6897 9.40991L27.7285 9.44876C27.7479 9.46817 27.7479 9.48756 27.7479 9.52637C27.7285 9.58459 27.6703 9.68162 27.5344 9.81746C27.5926 9.79805 27.6315 9.75926 27.6703 9.73985C28.0002 9.5652 28.1554 9.48757 28.233 9.48757C28.2524 9.48757 28.2912 9.50698 28.3106 9.54579C28.33 9.62342 28.2912 9.79803 28.0778 9.99209C28.136 9.95328 28.1942 9.93388 28.2524 9.89506C28.4853 9.75922 28.5241 9.73984 28.5823 9.77866L28.6211 9.79803V9.85626C28.6211 9.87567 28.5629 10.0698 28.2524 10.322C28.2913 10.322 28.3494 10.322 28.3688 10.3414C28.4465 10.3802 28.4853 10.4773 28.5047 10.6325C28.5047 10.6907 28.3688 10.8654 28.1166 11.0788H28.1748L28.136 11.1564C28.1166 11.1953 27.8255 11.8939 26.2925 12.1267C26.2925 12.1462 26.2731 12.185 26.2149 12.2044C26.1567 12.2432 25.885 12.4178 25.4969 12.4761C25.4969 12.4761 25.4969 12.4955 25.4969 12.5149V12.5343L25.4775 12.5537C25.4387 12.5925 25.3417 12.6313 25.1865 12.6313V12.6507V12.6895L25.1477 12.7089C25.1283 12.7089 24.9536 12.8254 24.7401 12.806C24.8372 12.8836 24.8954 12.9418 24.8954 13C24.8954 13.0194 24.8954 13.0388 24.876 13.0582L24.8566 13.0777C24.7402 13.1165 24.5655 13.0971 24.3908 13.0582C24.3908 13.0776 24.4103 13.0776 24.4103 13.097C24.4297 13.1359 24.3909 13.1941 24.3715 13.2135L24.352 13.2329H24.3326C24.1774 13.2911 23.9833 13.2329 23.8475 13.1747C23.8475 13.1941 23.8281 13.2135 23.7893 13.2329H23.7699C23.7505 13.2329 23.7311 13.2329 23.7117 13.2329L23.6341 13.2717C23.5564 13.3105 23.4982 13.2717 23.4594 13.2329C23.4788 13.2717 23.4982 13.2911 23.5176 13.3105C23.5952 13.427 23.6341 13.4658 23.6341 13.5046V13.5628H23.5758C23.6535 13.6016 23.6923 13.6599 23.6923 13.7181C23.7117 13.7763 23.6728 13.8151 23.6534 13.8151C23.634 13.8151 23.6147 13.8345 23.5953 13.8151C23.6147 13.8733 23.5952 13.9509 23.5564 14.0285C23.4982 14.1256 23.4012 14.1644 23.343 14.1644H23.246L23.2848 14.0673C23.2848 14.0479 23.3042 14.0286 23.3042 14.0092C23.2266 14.0092 23.1877 13.9897 23.1683 13.9703C23.1489 13.9703 23.1489 13.9509 23.1489 13.9509C23.1489 14.0092 23.1295 14.048 23.1101 14.0868C23.0907 14.1256 23.0519 14.1644 23.0131 14.1838C23.0131 14.2032 23.0325 14.242 23.0325 14.242L23.1489 14.3391H22.9937C22.9161 14.3391 22.8579 14.3196 22.8191 14.2808C22.7803 14.2226 22.7802 14.1644 22.7802 14.1256C22.7608 14.1256 22.7608 14.1062 22.7414 14.0868C22.722 14.0674 22.722 14.0285 22.722 13.9897C22.6832 13.9897 22.6638 14.0091 22.625 13.9897C22.625 14.0091 22.625 14.0286 22.6444 14.048L22.8191 14.3584ZM22.0429 13.7763H22.1593C22.1593 13.9315 22.2757 14.0285 22.2757 14.0285L22.2951 14.048H22.3145C22.3145 14.048 22.3727 14.0285 22.3727 13.9703C22.3922 13.9121 22.3728 13.8539 22.3339 13.7957L22.2757 13.6986H22.3921C22.4115 13.6792 22.4503 13.6404 22.4891 13.6404H22.5474V13.7957C22.5474 13.8151 22.5474 13.8345 22.5474 13.8539L22.5668 13.8345L22.6056 13.8539C22.625 13.8539 22.722 13.8927 22.7802 13.7763L22.8967 13.8345C22.8385 13.9703 22.8384 13.9898 22.8384 14.0092H22.8967V14.0673H22.9161C22.9161 14.0673 22.9549 14.048 22.9743 14.0092C22.9937 13.9509 22.9937 13.8927 22.9743 13.7957L22.9549 13.7569L22.9743 13.7374C23.0325 13.6792 23.1101 13.6986 23.1683 13.7374L23.1877 13.7569V13.7763C23.1877 13.7957 23.1877 13.8345 23.2265 13.8539C23.2459 13.8733 23.2848 13.8733 23.3236 13.8539H23.3624L23.3818 13.8733C23.4012 13.8927 23.4206 13.9315 23.4206 13.9509C23.4206 13.9509 23.4206 13.9315 23.44 13.9315C23.4594 13.8733 23.4788 13.8151 23.4594 13.7763C23.44 13.7374 23.4206 13.7181 23.3818 13.7181L23.343 13.6986V13.6598C23.343 13.6404 23.343 13.621 23.343 13.621C23.246 13.6016 23.1877 13.5628 23.1877 13.524V13.2523L23.2848 13.3105C23.343 13.3493 23.3818 13.3688 23.4206 13.3688C23.4206 13.3493 23.4012 13.3494 23.4012 13.33C23.2654 13.1359 23.1877 13.0194 23.2653 12.9612L23.2848 12.9418C23.2654 12.9224 23.246 12.903 23.246 12.8448V12.6895L23.343 12.7866C23.4012 12.8448 23.537 12.9612 23.6729 13C23.6535 12.9806 23.6341 12.9612 23.6341 12.9612C23.5758 12.903 23.537 12.8836 23.537 12.8254V12.6701L23.6341 12.7866C23.7117 12.8642 24.0416 13.0971 24.255 13.0389C24.255 13.0389 24.2162 13.0194 24.1774 13C24.0804 12.9418 23.9446 12.8642 23.7893 12.6895L23.4206 12.2626L23.8669 12.6119C24.0416 12.7477 24.4685 12.9418 24.7013 12.9224C24.6625 12.8836 24.6237 12.8448 24.5849 12.8254C24.5073 12.7672 24.4297 12.6895 24.352 12.6119L24.0804 12.3402L24.4296 12.5149C24.4684 12.5343 24.5073 12.5537 24.5267 12.5731C24.5655 12.5925 24.5849 12.6119 24.6043 12.6119H24.6237C24.7401 12.6507 24.876 12.6313 24.9536 12.6119C24.9148 12.6119 24.876 12.5925 24.8372 12.5731L24.876 12.4567C25.0506 12.4761 25.167 12.4761 25.2641 12.4567C25.2447 12.4567 25.2058 12.4373 25.167 12.4373L25.07 12.4178L25.0894 12.3014C25.5357 12.3791 25.9238 12.185 26.0791 12.1074V12.0103C27.1851 11.8745 27.6897 11.5058 27.9031 11.2923C27.7673 11.37 27.5732 11.4669 27.3598 11.5446L27.321 11.4282C28.0196 11.0983 28.3495 10.6907 28.3883 10.6325C28.3689 10.5355 28.3494 10.4773 28.3106 10.4579C28.233 10.4191 28.0972 10.4773 27.9225 10.5549L27.8255 10.5937L27.7673 10.4772C28.136 10.2832 28.33 10.0891 28.4076 9.95329C28.3688 9.9727 28.3494 9.99211 28.3106 10.0115C28.0972 10.128 27.7673 10.3026 27.321 10.4967L27.2628 10.3802C27.9613 10.0309 28.1554 9.72041 28.1942 9.60397C28.0972 9.64279 27.9225 9.73985 27.7285 9.83688C27.4568 9.99213 27.1075 10.1668 26.7194 10.3414L26.6612 10.225C27.0493 10.0309 27.321 9.81747 27.4762 9.68163C27.0299 9.89509 26.1373 10.2444 26.0015 10.3026L25.9432 10.1862C26.0597 10.1279 26.1373 10.0309 26.1567 9.97272C25.885 10.128 25.264 10.2638 24.7207 10.3414H24.6819C24.6237 10.3608 24.5073 10.3996 24.3908 10.4384C24.0998 10.5355 23.8669 10.5937 23.7699 10.5937C23.1295 10.5549 22.7996 10.5937 22.6444 10.6131L22.722 10.6907H22.4503V10.6325H22.431L22.4115 10.5937C22.2369 10.2444 22.4891 10.1085 22.5862 10.0503H22.6056C22.625 10.0503 22.6444 10.0503 22.6638 10.0503V9.95329C22.722 9.95329 22.819 9.9533 22.8772 10.0115H22.8967C22.8579 9.99211 22.7608 9.95332 22.5668 9.93391H22.5474L22.528 9.91449C22.431 9.81746 22.1787 9.73983 21.907 9.81746C21.713 9.87568 21.4801 10.0115 21.3443 10.4384C21.3637 10.4578 21.3831 10.4578 21.4025 10.4772L21.6159 10.6907L21.3249 10.5743C21.1502 10.4966 20.7233 10.4384 20.3935 10.3802C20.2576 10.3608 20.1606 10.3414 20.083 10.322C19.6949 10.2056 19.3068 10.0309 19.0157 9.89506C18.8799 9.83685 18.7246 9.75924 18.6276 9.72043C18.6858 9.79805 18.8022 9.89509 18.8604 9.97272C18.9963 10.1086 19.0157 10.1279 18.9963 10.1862L18.9769 10.225H18.9187H18.8992C18.6664 10.0892 18.4335 9.99209 18.2201 9.89506C18.0066 9.79803 17.8126 9.72043 17.6379 9.6234C17.5409 9.58459 17.4439 9.52638 17.3468 9.48757C17.2692 9.44875 17.1722 9.39052 17.114 9.37111C17.114 9.46814 17.2693 9.6622 17.5797 9.95329C17.5991 9.9727 17.6379 9.99211 17.6379 10.0115C17.7738 10.0697 18.5112 10.3996 18.5306 10.3996L18.4723 10.5161C17.2886 10.0309 17.0946 9.9145 17.017 9.87569C16.9588 9.85628 16.9006 9.79805 16.8035 9.72043C16.7647 9.68162 16.6871 9.604 16.6289 9.5846C16.6483 9.68163 16.7647 10.0503 17.211 10.2056L17.4439 10.2832L17.4633 10.2444C17.5603 10.2832 17.6962 10.322 17.8126 10.3802C17.929 10.419 18.0649 10.4773 18.1619 10.4967C18.3948 10.5743 18.453 10.5937 18.453 10.6325L18.4723 10.6519L18.453 10.6907V10.7295H18.4335C18.3947 10.7489 18.3171 10.7295 17.8514 10.5355C17.832 10.5161 17.7932 10.5161 17.7738 10.4967C17.6574 10.4579 17.5409 10.3996 17.4439 10.3608H17.3663C17.3081 10.3608 17.2305 10.322 17.1916 10.3026L17.0364 10.2444C16.9006 10.1862 16.7647 10.0891 16.6483 10.0115C16.6095 9.99211 16.5707 9.95332 16.5319 9.93391C16.5901 10.0309 16.7065 10.1862 16.8811 10.2832C16.9394 10.3026 17.0364 10.3608 17.1528 10.4191C17.2498 10.4579 17.3663 10.4967 17.4633 10.5355L17.4245 10.6519C17.3081 10.6131 17.1916 10.5743 17.114 10.5355C16.9588 10.4773 16.8423 10.4384 16.7453 10.3996H16.7259C16.6871 10.3802 16.6483 10.3608 16.6095 10.3414C16.7453 10.4967 17.0558 10.7101 17.7349 10.8654L17.9678 10.7878C18.0261 10.7683 18.1036 10.7489 18.2201 10.7295H18.2395H18.2977L18.3171 10.7878V10.846H18.2589C18.2395 10.846 18.1037 10.9042 18.0066 10.9042H17.929L18.3559 11.0012H17.8126C17.735 11.0012 17.6767 11.0012 17.6379 11.0206C17.6961 11.0594 17.832 11.1371 18.2977 11.1371C18.3365 11.1371 18.4724 11.0983 18.55 11.0788C18.7828 11.0206 18.8217 11.0012 18.8411 11.0594L18.8604 11.0983L18.8216 11.1564H18.8022C18.55 11.2341 18.1425 11.3505 18.0842 11.3505C18.0648 11.3505 18.0066 11.3699 17.9484 11.3699C18.0066 11.4087 18.1231 11.4476 18.3365 11.467C18.4918 11.467 18.7634 11.4087 18.9769 11.3505C19.2292 11.2923 19.2679 11.2923 19.2873 11.3311L19.3068 11.3699L19.2485 11.4282L18.6276 11.6222C18.5694 11.6222 18.5306 11.6222 18.4918 11.6222C18.6082 11.6804 18.9575 11.758 19.6173 11.5446L19.8695 11.467L19.6949 11.6416C19.6172 11.7192 19.3844 11.7968 19.2485 11.8357C19.2873 11.8551 19.3262 11.8745 19.365 11.8939H19.6561C19.8307 11.8551 19.9665 11.7969 20.2188 11.6028L20.2576 11.564L20.3158 11.6222V11.661C20.3158 11.7192 20.2382 11.758 20.0054 11.8939C19.9471 11.9327 19.8501 11.9715 19.8113 12.0103C19.9083 12.0297 20.0635 12.0103 20.1606 11.9909C20.18 11.9715 20.2188 11.9715 20.2382 11.9521V11.9327H20.2576C20.3352 11.8939 20.4322 11.8357 20.5681 11.7581C20.7621 11.661 21.0144 11.5058 21.092 11.467V11.3505L21.2278 11.4864L21.2085 11.5446C21.1696 11.6416 20.5293 11.9909 20.3352 12.0686C20.3352 12.088 20.3158 12.0879 20.2964 12.0879C20.277 12.1074 20.2382 12.1073 20.1994 12.1267C20.18 12.1267 20.18 12.1462 20.1606 12.1462C20.2382 12.1462 20.3546 12.1268 20.4711 12.1074L20.9562 11.8551L21.0144 11.9715C20.8398 12.0686 20.6263 12.2044 20.5487 12.2626C20.6651 12.282 21.092 12.1656 21.3055 12.0686L21.3637 12.185C21.2667 12.2432 21.1114 12.3208 21.0532 12.379C21.092 12.4178 21.1502 12.4567 21.2278 12.4761C21.4025 12.5149 21.6159 12.4567 21.6354 12.4373C21.6742 12.3984 21.713 12.4178 21.713 12.4178C21.7324 12.4178 21.7324 12.4373 21.7324 12.4373C21.7324 12.4179 21.7518 12.4179 21.7518 12.3985L21.8682 12.1656V12.4373C21.8682 12.4761 21.8488 12.5343 21.81 12.6119C21.7906 12.6507 21.7712 12.7089 21.7518 12.7672C21.7324 12.8254 21.713 12.8836 21.6936 12.9612C21.6936 12.9806 21.6936 12.9806 21.6936 13C21.7324 12.9418 21.7712 12.8642 21.7906 12.7478H21.907C21.907 12.8448 21.8876 12.9612 21.8682 13.0582C21.8682 13.0776 21.8488 13.1165 21.8488 13.1553L21.9458 13.0582V13.2523C21.9458 13.3493 21.8488 13.5628 21.5771 13.5628C21.3637 13.5628 21.3443 13.718 21.3443 13.7374C21.3831 13.718 21.4025 13.7374 21.4219 13.7374C21.4801 13.7374 21.5966 13.7569 21.7518 13.6404L21.8294 13.7374C21.713 13.8539 21.7324 13.8927 21.7324 13.8927L21.7906 13.9121L21.7712 13.9509C21.7712 13.9509 21.7712 13.9703 21.7712 13.9897L21.7906 13.9703H21.81C21.9264 13.9703 22.0429 13.9509 22.0429 13.7763ZM23.3042 13.4658C23.3236 13.4658 23.343 13.4852 23.3818 13.4852C23.3624 13.4658 23.343 13.4464 23.3042 13.4658ZM22.5668 13.3881C22.4892 13.3881 22.3727 13.3299 22.3145 13.2717C22.2757 13.2329 22.2563 13.0971 22.2951 12.8642L22.3145 12.7478L22.431 12.8642C22.431 12.8448 22.4115 12.8254 22.4115 12.806V12.7866C22.4115 12.7284 22.4116 12.6313 22.431 12.5537C22.4504 12.4179 22.4698 12.2626 22.4698 12.0879V11.8551L22.5862 12.0686C22.7996 12.4373 22.9161 12.6507 22.9161 12.9418L23.0131 12.8448V13.1941L23.0325 13.2135L23.0519 13.2523L23.0131 13.2911V13.3493H22.9549C22.8967 13.3493 22.7026 13.3493 22.5668 13.3881ZM22.3921 13.0194C22.3921 13.0971 22.3921 13.1747 22.3921 13.1941C22.4309 13.2329 22.5086 13.2717 22.528 13.2717C22.625 13.2329 22.7609 13.2329 22.8191 13.2329V13.1553C22.7997 13.1553 22.7996 13.1553 22.7802 13.1553H22.7026L22.722 13.0777C22.7609 12.806 22.7026 12.6119 22.5474 12.3208C22.5474 12.4178 22.528 12.4955 22.528 12.5731C22.528 12.6507 22.5086 12.7284 22.5086 12.7866C22.5474 12.8836 22.5668 12.903 22.5668 13.0582V13.2135L22.3921 13.0194ZM22.1593 12.5343H22.0429V12.379H22.1593V12.5343ZM23.0325 12.0103L22.9937 11.9715L23.0907 11.8745L23.1295 11.9133L23.0325 12.0103ZM23.3042 11.8357C23.246 11.7774 23.1877 11.7192 23.1877 11.6416V11.3699L23.3042 11.6028C23.3236 11.6222 23.3624 11.6998 23.4012 11.7386L23.3042 11.8357ZM25.691 11.5252C25.3805 11.5252 25.0506 11.4864 24.7207 11.3894L24.7401 11.2729C25.3611 11.3893 25.9432 11.3893 26.5642 11.2729L26.603 11.3894C26.312 11.4864 26.0208 11.5252 25.691 11.5252ZM26.7388 11.3505V11.2341C26.7583 11.2341 26.7582 11.2341 26.7582 11.2341C26.7582 11.2341 26.7777 11.2147 26.7971 11.1953L26.8941 11.2923C26.8359 11.3311 26.8165 11.3505 26.7388 11.3505ZM26.603 11.0012V10.8848C26.6806 10.8848 26.7776 10.846 26.8747 10.7878L26.9329 10.9042C26.8165 10.943 26.7195 11.0012 26.603 11.0012Z" fill="#2B2B2B"/>
</svg>
