<svg width="30" height="31" viewBox="0 0 30 31" fill="none" xmlns="http://www.w3.org/2000/svg">
<path d="M15.0378 0.349121C11.925 0.349121 9.06502 1.30246 6.71094 2.85896H23.4036C20.9911 1.30246 18.1312 0.349121 15.0378 0.349121Z" fill="#75A843"/>
<path d="M15.0378 30.4283C18.1506 30.4283 21.0105 29.475 23.3646 27.9185H6.71094C9.06502 29.475 11.925 30.4283 15.0378 30.4283Z" fill="#75A843"/>
<path d="M2.48904 22.9185H28.0532C28.9482 21.362 29.5513 19.6693 29.8626 17.8599H0.679688C0.990972 19.7082 1.65246 21.4009 2.48904 22.9185Z" fill="#ED4C5C"/>
<path d="M0.488281 15.3887C0.488281 16.2448 0.585558 17.1009 0.682834 17.8986H29.8073C29.963 17.1009 30.0019 16.2448 30.0019 15.3887C30.0019 14.5327 29.9046 13.6766 29.8073 12.8789H0.682834C0.585558 13.6961 0.488281 14.5327 0.488281 15.3887Z" fill="#3E4347"/>
<path d="M0.699219 12.8791H29.8821C29.5903 11.0697 28.9288 9.37697 28.0728 7.85938H2.50857C1.65254 9.37697 0.991048 11.0891 0.699219 12.8791Z" fill="#ED4C5C"/>
<path d="M5.15625 7.87862H28.0746C26.9267 5.87462 25.273 4.12355 23.308 2.85889H6.77105C6.2263 3.2091 5.66206 3.65659 5.17568 4.06517V7.87862" fill="#FFCE31"/>
<path d="M5.15619 22.9183V26.7318C5.66203 27.1792 6.20677 27.5878 6.75151 27.938H23.2885C25.234 26.6345 26.8488 24.9223 28.055 22.8794H5.13672V22.9183H5.15619Z" fill="#FFCE31"/>
<path d="M5.3113 5.46582H3.75487C1.40079 8.13133 0 11.5751 0 15.3885C0 19.2409 1.45912 22.8014 3.91048 25.4669H5.15564L15.2335 15.3885L5.3113 5.46582Z" fill="#F9F9F9"/>
<path d="M5.15468 4.06543C4.64884 4.51292 4.14301 4.96041 3.75391 5.46627L13.6761 15.389L3.75391 25.3117C4.20138 25.8176 4.64884 26.2651 5.15468 26.7126L16.4776 15.389L5.15468 4.06543Z" fill="#3E4347"/>
<path d="M7.76192 16.3422L10.4273 14.0853L7.27554 13.5405L5.62185 10.2329L3.96815 13.5405L0.816406 14.0853L3.52067 16.3422L2.82031 19.7082L5.62185 18.1127L8.48176 19.7082L7.76192 16.3422Z" fill="#ED4C5C"/>
<path d="M4.65052 14.4353C5.00071 15.1941 5.09798 15.233 5.95401 15.5443C6.81004 15.8362 9.26141 16.1475 9.51433 16.1475C9.35869 15.9919 6.61549 13.9489 6.05129 13.5403C5.48708 13.1318 5.35092 12.9372 5.35092 12.9372C5.35092 12.9372 4.84507 12.0422 4.65052 11.7309C4.45596 11.478 4.14471 11.0889 3.7556 11.0889C3.34704 11.0889 3.05518 11.3807 2.89954 11.8476C2.84118 11.8476 2.4521 12.1006 2.49101 12.2951C2.58829 12.2951 3.24976 12.1006 3.50267 12.8399C3.75559 13.5793 3.75559 14.7855 3.50267 15.3887C3.24976 15.9918 2.89954 16.4394 2.89954 16.9841C2.89954 17.0425 2.95792 17.1787 3.05519 17.1787C3.11356 17.4316 3.46377 19.0854 3.46377 19.0854H8.38592L9.1836 16.0697" fill="#FFCE31"/>
<path d="M4.65052 14.4353C5.00071 15.1941 5.09798 15.233 5.95401 15.5443C6.81004 15.8362 9.26141 16.1475 9.51433 16.1475C9.35869 15.9919 6.61549 13.9489 6.05129 13.5403C5.48708 13.1318 5.35092 12.9372 5.35092 12.9372C5.35092 12.9372 4.84507 12.0422 4.65052 11.7309C4.45596 11.478 4.14471 11.0889 3.7556 11.0889C3.34704 11.0889 3.05518 11.3807 2.89954 11.8476C2.84118 11.8476 2.4521 12.1006 2.49101 12.2951C2.58829 12.2951 3.24976 12.1006 3.50267 12.8399C3.75559 13.5793 3.75559 14.7855 3.50267 15.3887C3.24976 15.9918 2.89954 16.4394 2.89954 16.9841C2.89954 17.0425 2.95792 17.1787 3.05519 17.1787C3.11356 17.4316 3.46377 19.0854 3.46377 19.0854H8.38592L9.1836 16.0697" fill="#FFCE31"/>
<path d="M8.36666 19.1631H3.44447C3.42501 19.1631 3.40555 19.1436 3.38609 19.1242C3.38609 19.1047 3.05535 17.5871 2.99698 17.2563C2.88025 17.2174 2.84133 17.0812 2.84133 17.0034C2.84133 16.6143 3.01646 16.2641 3.21101 15.8944C3.28883 15.7388 3.3861 15.5636 3.44447 15.3885C3.69738 14.8048 3.69738 13.5985 3.44447 12.8592C3.23046 12.2366 2.74406 12.3144 2.5495 12.3339C2.53005 12.3339 2.49118 12.3339 2.49118 12.3339C2.47172 12.3339 2.45226 12.3144 2.4328 12.295C2.41335 12.2172 2.43278 12.1393 2.5106 12.0615C2.60788 11.9448 2.76351 11.828 2.84133 11.8086C3.01643 11.3222 3.32773 11.0498 3.73629 11.0498C4.14485 11.0498 4.45613 11.4389 4.65068 11.6918L4.67016 11.7308C4.86471 12.0421 5.35106 12.8981 5.37052 12.9371C5.37052 12.9371 5.52616 13.1316 6.05145 13.5207C6.5962 13.9293 9.35885 15.9722 9.5145 16.1279C9.53395 16.1473 9.53397 16.1668 9.53397 16.1862C9.53397 16.2057 9.51453 16.2252 9.49507 16.2252C9.45616 16.2252 9.33941 16.2252 9.18377 16.2057L8.40556 19.1436C8.40556 19.1436 8.38611 19.1631 8.36666 19.1631ZM3.48337 19.0463H8.30828L9.08649 16.1473C8.28883 16.0501 6.61568 15.8166 5.93475 15.5831C5.05926 15.2718 4.96198 15.2135 4.61178 14.4547C4.59233 14.4352 4.6118 14.3963 4.63125 14.3963C4.65071 14.3768 4.68958 14.3963 4.68958 14.4157C5.03978 15.155 5.11762 15.194 5.97365 15.4858C6.63513 15.7193 8.34718 15.9722 9.12539 16.0501C9.14485 16.0306 9.16431 16.0306 9.18377 16.0306C9.20322 16.0306 9.20321 16.0501 9.22267 16.0501C9.28103 16.0501 9.33941 16.0695 9.37832 16.0695C8.83357 15.622 6.53786 13.9293 6.03202 13.5596C5.48728 13.1511 5.33164 12.9565 5.31219 12.9565C5.31219 12.937 4.80633 12.042 4.61178 11.7502L4.59231 11.7113C4.39775 11.4778 4.10596 11.1081 3.75577 11.1081C3.40557 11.1081 3.09427 11.3611 2.95808 11.8281C2.95808 11.8475 2.93864 11.867 2.91918 11.867C2.88027 11.867 2.68573 12.0031 2.58845 12.1393C2.569 12.1588 2.56896 12.1977 2.5495 12.2172C2.74406 12.1977 3.30828 12.1004 3.54174 12.8009C3.79466 13.5597 3.79466 14.7854 3.54174 15.3885C3.46392 15.5831 3.38609 15.7388 3.28881 15.9139C3.09426 16.2835 2.93861 16.6143 2.93861 16.984C2.93861 17.0229 2.97752 17.1396 3.03589 17.1396C3.05534 17.1396 3.07481 17.1591 3.09426 17.1785C3.15263 17.412 3.44446 18.7934 3.48337 19.0463Z" fill="black"/>
<path d="M3.05469 17.2566C3.05469 17.2566 4.10527 17.1982 4.41656 17.1982C4.72784 17.1982 7.31538 17.1983 8.83289 17.5485" fill="#FFCE31"/>
<path d="M8.81325 17.6067C7.41247 17.2759 5.0778 17.2565 4.39686 17.2565C4.10503 17.2565 3.05447 17.3148 3.05447 17.3148C3.03501 17.3148 2.99609 17.2954 2.99609 17.2759C2.99609 17.2565 3.01554 17.2176 3.03499 17.2176C3.05445 17.2176 4.08558 17.1592 4.39686 17.1592C5.0778 17.1592 7.41247 17.1786 8.81325 17.5094C8.8327 17.5094 8.85215 17.5483 8.85215 17.5678C8.85215 17.5872 8.8327 17.6067 8.81325 17.6067Z" fill="black"/>
<path d="M3.44256 17.1983C3.44256 17.1983 3.34528 17.0427 3.38419 16.7898C3.4231 16.5368 4.18187 15.8948 4.18187 14.9414" fill="#FFCE31"/>
<path d="M3.44174 17.2565C3.42229 17.2565 3.40284 17.2565 3.40284 17.237C3.40284 17.237 3.2861 17.0619 3.34447 16.7895C3.36392 16.7117 3.44176 16.595 3.55849 16.4393C3.79196 16.1086 4.16158 15.6027 4.16158 14.9412C4.16158 14.9217 4.18104 14.8828 4.21995 14.8828C4.23941 14.8828 4.27833 14.9023 4.27833 14.9412C4.27833 15.6222 3.90869 16.1475 3.65577 16.4977C3.55849 16.6339 3.48067 16.7506 3.46122 16.809C3.42231 17.0424 3.50012 17.1592 3.50012 17.1787C3.51957 17.1981 3.5001 17.237 3.48064 17.2565C3.46119 17.237 3.4612 17.2565 3.44174 17.2565Z" fill="black"/>
<path d="M4.04576 17.1397C4.04576 17.1397 3.94847 16.7312 4.90178 16.381C5.1547 16.2837 5.91343 15.8751 5.95234 15.5249" fill="#FFCE31"/>
<path d="M4.04556 17.1985C4.0261 17.1985 4.00661 17.179 4.00661 17.1596C4.00661 17.1401 3.90933 16.7121 4.8821 16.3424C5.13501 16.2452 5.8549 15.856 5.89381 15.5253C5.89381 15.5058 5.91322 15.4863 5.95213 15.4863C5.97159 15.4863 5.99108 15.5253 5.99108 15.5447C5.93272 15.9533 5.11558 16.3619 4.90157 16.4397C4.00663 16.7705 4.08446 17.1207 4.08446 17.1401C4.10391 17.1596 4.08447 17.1985 4.04556 17.1985Z" fill="black"/>
<path d="M4.80469 16.4395C4.80469 16.4395 7.11984 16.4394 8.96809 16.848Z" fill="#FFCE31"/>
<path d="M8.96788 16.9067C7.11963 16.5175 4.82392 16.4981 4.80447 16.4981C4.78501 16.4981 4.74609 16.4786 4.74609 16.4397C4.74609 16.4203 4.76556 16.3813 4.80447 16.3813C4.82392 16.3813 7.13908 16.3814 8.96788 16.7899C8.98733 16.7899 9.00682 16.8288 9.00682 16.8483C9.00682 16.8872 8.98733 16.9067 8.96788 16.9067Z" fill="black"/>
<path d="M5.41016 16.1474C5.41016 16.1474 6.20779 16.2057 6.30507 16.1474C6.46071 16.089 6.65527 15.9917 6.75255 15.7388" fill="#FFCE31"/>
<path d="M6.0326 16.2253C5.81859 16.2253 5.52677 16.2059 5.41004 16.2059C5.39059 16.2059 5.37109 16.1864 5.37109 16.1475C5.37109 16.1281 5.39056 16.1086 5.42947 16.1086C5.81857 16.1281 6.24659 16.1475 6.30496 16.1086C6.51896 16.0308 6.65514 15.914 6.73296 15.7389C6.75242 15.7195 6.77188 15.7 6.79134 15.7195C6.81079 15.7389 6.83027 15.7584 6.81081 15.7778C6.73299 15.9918 6.57735 16.1281 6.32443 16.2059C6.28552 16.2059 6.16879 16.2253 6.0326 16.2253Z" fill="black"/>
<path d="M5.85547 16.1865C5.85547 16.1865 6.30296 15.992 6.36132 15.6807Z" fill="#FFCE31"/>
<path d="M5.85555 16.2448C5.83609 16.2448 5.81665 16.2253 5.81665 16.2059C5.79719 16.1864 5.81667 16.1475 5.83612 16.1475C5.83612 16.1475 6.26412 15.9529 6.30303 15.6805C6.30303 15.661 6.32249 15.6416 6.36141 15.6416C6.38086 15.6416 6.40031 15.6805 6.40031 15.7C6.34194 16.0307 5.89448 16.2253 5.87502 16.2448H5.85555Z" fill="black"/>
<path d="M4.61252 19.1634C4.61252 19.1634 4.41797 17.9182 4.41797 17.2178L4.86545 17.6653L5.37126 17.2178L5.81874 17.6653L6.32459 17.2567L6.77207 17.7626L7.27788 17.354L7.68646 17.8015L8.19227 17.4512L8.7954 17.996" fill="#FFCE31"/>
<path d="M4.6123 19.202C4.59285 19.202 4.57338 19.1826 4.55393 19.1631C4.55393 19.1437 4.35938 17.8985 4.35938 17.198C4.35938 17.1786 4.37882 17.1591 4.39828 17.1591C4.41773 17.1591 4.4372 17.1591 4.45665 17.1786L4.86523 17.5872L5.33214 17.1591C5.35159 17.1397 5.39053 17.1397 5.40999 17.1591L5.83799 17.5872L6.3049 17.2175C6.32436 17.198 6.3633 17.198 6.38275 17.2175L6.81076 17.6844L7.27766 17.3148C7.29712 17.2953 7.33606 17.2953 7.35551 17.3148L7.72514 17.7233L8.19205 17.3926C8.21151 17.3731 8.23097 17.3731 8.25043 17.3926L8.85356 17.9374C8.87301 17.9568 8.87301 17.9957 8.85356 18.0152C8.8341 18.0346 8.79516 18.0346 8.77571 18.0152L8.21153 17.4899L7.74462 17.8206C7.72516 17.8401 7.68624 17.8401 7.68624 17.8206L7.31657 17.4121L6.84966 17.7817C6.8302 17.8012 6.79131 17.8012 6.77186 17.7817L6.3438 17.3148L5.87689 17.6844C5.85744 17.7039 5.83797 17.7039 5.81852 17.6844L5.40999 17.2759L4.94303 17.7039C4.92358 17.7234 4.88469 17.7234 4.86523 17.7039L4.49555 17.3342C4.51501 18.0346 4.6901 19.1437 4.6901 19.1631C4.65119 19.1826 4.63176 19.202 4.6123 19.202Z" fill="black"/>
<path d="M8.56211 18.3462C6.81114 18.0933 4.45703 18.0933 4.45703 18.0933Z" fill="#FFCE31"/>
<path d="M8.56189 18.4048C6.83037 18.1519 4.47627 18.1519 4.45681 18.1519C4.43736 18.1519 4.39844 18.1324 4.39844 18.0935C4.39844 18.0741 4.4179 18.0352 4.45681 18.0352C4.47627 18.0352 6.83035 18.0352 8.58132 18.2881C8.60077 18.2881 8.62027 18.327 8.62027 18.3465C8.62027 18.3854 8.58135 18.4048 8.56189 18.4048Z" fill="black"/>
<path d="M3.65625 13.7352C3.65625 13.7352 5.11536 13.0348 5.36827 12.9375Z" fill="#FFCE31"/>
<path d="M3.65638 13.7933C3.63692 13.7933 3.61743 13.7738 3.61743 13.7738C3.59797 13.7544 3.61745 13.7155 3.6369 13.7155C3.69527 13.696 5.09606 13.015 5.34898 12.9177C5.36843 12.8983 5.40735 12.9177 5.40735 12.9372C5.42681 12.9567 5.40733 12.9956 5.38788 12.9956C5.13496 13.0929 3.69528 13.7933 3.69528 13.7933C3.65637 13.7933 3.65638 13.7933 3.65638 13.7933Z" fill="black"/>
<path d="M4.39844 17.6455L4.90429 18.093L5.31287 17.6455L5.76031 18.093L6.26616 17.6844L6.67474 18.1319L7.18055 17.7233L7.58913 18.2292L8.09494 17.8206L8.60079 18.2681" fill="#FFCE31"/>
<path d="M8.56059 18.3462C8.54114 18.3462 8.54115 18.3462 8.52169 18.3268L8.05474 17.8987L7.58783 18.2684C7.56837 18.2878 7.52944 18.2878 7.50998 18.2684L7.14035 17.8014L6.67344 18.1711C6.65399 18.1905 6.61505 18.1905 6.59559 18.1711L6.22596 17.7625L5.75901 18.1322C5.73955 18.1516 5.72013 18.1516 5.70068 18.1322L5.2921 17.7236L4.92247 18.1322C4.92247 18.1516 4.90297 18.1517 4.88352 18.1517C4.88352 18.1517 4.86407 18.1516 4.84462 18.1322L4.33881 17.6847C4.31935 17.6652 4.31935 17.6263 4.33881 17.6069C4.35827 17.5874 4.39716 17.5874 4.41661 17.6069L4.88352 18.0154L5.2532 17.6069C5.2532 17.5874 5.27264 17.5874 5.2921 17.5874C5.31155 17.5874 5.31154 17.5874 5.331 17.6069L5.75901 18.0349L6.22596 17.6653C6.24542 17.6458 6.28431 17.6458 6.30376 17.6653L6.67344 18.0738L7.14035 17.7042C7.1598 17.6847 7.1987 17.6847 7.21815 17.7042L7.58783 18.1711L8.05474 17.8014C8.07419 17.782 8.09366 17.782 8.11311 17.8014L8.61897 18.2489C8.63842 18.2684 8.63842 18.3073 8.61897 18.3268C8.59951 18.3462 8.58005 18.3462 8.56059 18.3462Z" fill="black"/>
<path d="M5.75705 17.0424C5.8645 17.0424 5.95161 16.9553 5.95161 16.8479C5.95161 16.7404 5.8645 16.6533 5.75705 16.6533C5.6496 16.6533 5.5625 16.7404 5.5625 16.8479C5.5625 16.9553 5.6496 17.0424 5.75705 17.0424Z" fill="#FFCE31"/>
<path d="M5.75679 17.1011C5.6206 17.1011 5.50391 16.9843 5.50391 16.8481C5.50391 16.7119 5.6206 16.5952 5.75679 16.5952C5.89297 16.5952 6.00971 16.7119 6.00971 16.8481C6.00971 16.9843 5.89297 17.1011 5.75679 17.1011ZM5.75679 16.6925C5.67897 16.6925 5.60118 16.7508 5.60118 16.8481C5.60118 16.9454 5.65951 17.0038 5.75679 17.0038C5.85406 17.0038 5.91244 16.9454 5.91244 16.8481C5.91244 16.7508 5.83461 16.6925 5.75679 16.6925Z" fill="black"/>
<path d="M6.61501 16.6924C6.73174 16.6924 6.80957 16.7897 6.80957 16.8869C6.80957 17.0037 6.71229 17.0815 6.61501 17.0815C6.49828 17.0815 6.42046 16.9842 6.42046 16.8869C6.401 16.7897 6.49828 16.6924 6.61501 16.6924Z" fill="#FFCE31"/>
<path d="M6.61621 17.1396C6.48002 17.1396 6.36328 17.0229 6.36328 16.8867C6.36328 16.7505 6.48002 16.6338 6.61621 16.6338C6.7524 16.6338 6.86914 16.7505 6.86914 16.8867C6.86914 17.0424 6.7524 17.1396 6.61621 17.1396ZM6.61621 16.7505C6.53839 16.7505 6.46056 16.8089 6.46056 16.9062C6.46056 17.0034 6.51893 17.0618 6.61621 17.0618C6.71349 17.0618 6.77186 17.0034 6.77186 16.9062C6.77186 16.8089 6.69403 16.7505 6.61621 16.7505Z" fill="black"/>
<path d="M3.60096 11.5752C3.67879 11.5752 3.75662 11.6336 3.75662 11.7309C3.75662 11.8281 3.69824 11.8865 3.60096 11.8865C3.52314 11.8865 3.44531 11.8281 3.44531 11.7309C3.44531 11.6336 3.52314 11.5752 3.60096 11.5752Z" fill="#FFCE31"/>
<path d="M3.6008 11.9257C3.48407 11.9257 3.40625 11.8285 3.40625 11.7312C3.40625 11.6144 3.50353 11.5366 3.6008 11.5366C3.71753 11.5366 3.79536 11.6339 3.79536 11.7312C3.79536 11.8479 3.71753 11.9257 3.6008 11.9257ZM3.6008 11.6339C3.54244 11.6339 3.50353 11.6728 3.50353 11.7312C3.50353 11.7896 3.54244 11.8285 3.6008 11.8285C3.65917 11.8285 3.69808 11.7896 3.69808 11.7312C3.69808 11.6728 3.65917 11.6339 3.6008 11.6339Z" fill="black"/>
</svg>
