<svg width="12" height="9" viewBox="0 0 12 9" fill="none" xmlns="http://www.w3.org/2000/svg"><g clip-path="url(#clip0_2_1553)"><path d="M11.8082 2.54845L11.4151 2.15264C11.2914 2.02903 11.1268 1.96093 10.9509 1.96093C10.7751 1.96093 10.6103 2.02903 10.4866 2.15264L6.00268 6.63677L1.51357 2.14767C1.39006 2.02406 1.22528 1.95605 1.04947 1.95605C0.873666 1.95605 0.708786 2.02406 0.585176 2.14767L0.192002 2.54103C-0.0640005 2.79684 -0.0640005 3.21353 0.192002 3.46934L5.53683 8.83338C5.66034 8.95689 5.82493 9.04392 6.00229 9.04392H6.00434C6.18025 9.04392 6.34483 8.95679 6.46835 8.83338L11.8082 3.48387C11.9319 3.36036 11.9998 3.1908 12 3.01499C12 2.83909 11.9319 2.67187 11.8082 2.54845Z" fill="#B3C7EB"/></g><defs><clipPath id="clip0_2_1553"><rect width="12" height="9" fill="white"/></clipPath></defs></svg>
