<svg width="18" height="19" viewBox="0 0 18 19" fill="none" xmlns="http://www.w3.org/2000/svg"><path d="M8.95734 5.12856C10.2416 5.12856 11.2826 4.09242 11.2826 2.81428C11.2826 1.53614 10.2416 0.5 8.95734 0.5C7.67314 0.5 6.63208 1.53614 6.63208 2.81428C6.63208 4.09242 7.67314 5.12856 8.95734 5.12856Z" fill="#39B4EF"/><path d="M8.95734 11.8141C10.2416 11.8141 11.2826 10.778 11.2826 9.49983C11.2826 8.22169 10.2416 7.18555 8.95734 7.18555C7.67314 7.18555 6.63208 8.22169 6.63208 9.49983C6.63208 10.778 7.67314 11.8141 8.95734 11.8141Z" fill="#39B4EF"/><path d="M8.95734 18.5001C10.2416 18.5001 11.2826 17.464 11.2826 16.1859C11.2826 14.9077 10.2416 13.8716 8.95734 13.8716C7.67314 13.8716 6.63208 14.9077 6.63208 16.1859C6.63208 17.464 7.67314 18.5001 8.95734 18.5001Z" fill="#39B4EF"/><path d="M2.75666 11.8141C4.04087 11.8141 5.08192 10.778 5.08192 9.49983C5.08192 8.22169 4.04087 7.18555 2.75666 7.18555C1.47245 7.18555 0.431396 8.22169 0.431396 9.49983C0.431396 10.778 1.47245 11.8141 2.75666 11.8141Z" fill="#39B4EF"/><path d="M15.6746 11.8141C16.9589 11.8141 17.9999 10.778 17.9999 9.49983C17.9999 8.22169 16.9589 7.18555 15.6746 7.18555C14.3904 7.18555 13.3494 8.22169 13.3494 9.49983C13.3494 10.778 14.3904 11.8141 15.6746 11.8141Z" fill="#39B4EF"/></svg>
