<svg width="386" height="252" viewBox="0 0 386 252" fill="none" xmlns="http://www.w3.org/2000/svg"><g clip-path="url(#clip0_95_25927)"><path d="M317.519 105.856C317.519 105.856 307.333 96.7451 291.664 106.478C275.995 116.212 257.357 153.19 290.173 176.598C320.914 198.526 384.616 174.415 376.759 139.635C375.736 135.111 376.679 130.357 379.352 126.563C384.08 119.854 389.03 108.065 379.725 94.5987C379.725 94.5987 378.577 93.3152 376.855 91.8341C371.25 87.0101 369.145 79.2619 371.542 72.2716C379.49 49.0888 385.553 10.7632 334.212 19.4377C286.969 27.4216 317.664 82.351 317.664 82.351C317.664 82.351 307.833 86.7834 317.519 105.856Z" fill="url(#paint0_linear_95_25927)"/><path d="M332.222 199.815C332.222 199.815 368.201 157.61 366.422 104.725C364.875 58.7459 336.953 66.1695 350.672 86.3538C354.715 92.3036 362.112 98.4419 362.852 105.019C366.188 134.672 353.725 168.17 332.222 199.815Z" fill="#9FE0FF"/><path d="M328.966 207.433C328.966 207.433 354.853 162.655 348.233 114.605C342.477 72.8299 319.924 84.4195 333.32 100.516C337.268 105.26 344.03 109.6 345.285 115.488C350.948 142.027 343.814 174.799 328.966 207.433Z" fill="#9FE0FF"/><path d="M334.834 186.354C334.834 186.354 356.389 161.067 355.325 129.384C354.399 101.836 337.669 106.284 345.888 118.376C348.31 121.94 352.742 125.618 353.185 129.56C355.183 147.326 347.717 167.396 334.834 186.354Z" fill="#9FE0FF"/><path d="M153.652 180.869C153.652 180.869 128.296 194.119 137.381 219.142C144.576 238.958 172.866 244.988 189.211 237.627C193.757 235.581 199.008 235.698 203.452 237.955C204.687 238.583 206.266 238.884 208.285 238.635C212.007 238.177 215.752 238.996 218.943 240.961C227.916 246.489 246.529 252.886 260.587 223.721C279.794 183.871 258.698 163.344 258.698 163.344L153.652 180.869Z" fill="url(#paint1_linear_95_25927)"/><path d="M80.184 105.251C80.184 105.251 94.2856 112.124 108.527 96.4822C122.768 80.8409 131.735 34.2016 88.1701 18.6238C50.0119 4.97842 -7.32257 44.7688 1.39739 79.3689C3.91294 89.3523 4.64853 99.836 3.49882 110.066C2.56889 118.334 4.50504 128.419 15.0594 137.121C15.0594 137.121 21.865 141.432 27.4428 141.669C30.3489 141.794 32.5557 144.3 32.1888 147.179C29.1465 171.092 26.1787 235.635 88.8785 205.852C138.517 182.272 87.4018 131.238 87.4018 131.238C87.4018 131.238 96.8592 123.274 80.184 105.251Z" fill="url(#paint2_linear_95_25927)"/><path d="M106.654 183.891C106.654 183.891 115.383 93.3206 73.6955 31.573C73.1525 30.7681 71.9592 30.7844 71.4488 31.611C63.3827 44.6618 16.0468 129.219 106.654 183.891Z" fill="#7FD4FD"/><path d="M72.3019 57.9174C72.2801 63.2037 72.4727 68.5117 72.8668 73.7907C73.2264 79.0752 73.7477 84.3452 74.4106 89.5952C75.0936 94.8434 75.8873 100.075 76.8789 105.271C77.8452 110.47 78.9586 115.642 80.2881 120.758C81.594 125.879 83.038 130.966 84.7289 135.973C84.9342 136.601 85.1321 137.232 85.3446 137.857L86.0094 139.724C86.4598 140.966 86.8776 142.221 87.3553 143.451L88.7883 147.146L89.1443 148.071L90.294 150.812C91.2784 153.266 92.4354 155.643 93.5143 158.058C94.0755 159.254 94.6803 160.429 95.2615 161.616L96.1424 163.395C96.4421 163.984 96.769 164.559 97.076 165.144L98.9449 168.646L101.944 173.795L103.01 175.47L105.124 178.838L105.129 178.847C105.238 179.021 105.186 179.252 105.011 179.362C104.844 179.467 104.626 179.422 104.51 179.266C98.2239 170.657 92.815 161.366 88.5104 151.584L87.2844 148.839L86.9048 147.913L85.3973 144.2C84.8978 142.96 84.4583 141.7 83.9861 140.449L83.2886 138.571C83.0652 137.942 82.8563 137.308 82.6402 136.677C80.8766 131.632 79.4145 126.489 78.0668 121.324C75.4241 110.974 73.5879 100.431 72.4599 89.8236C71.8951 84.5192 71.5336 79.1967 71.3538 73.8687C71.2703 71.2056 71.2467 68.5389 71.2648 65.874C71.283 63.2073 71.3538 60.5496 71.5518 57.8793C71.5663 57.6745 71.7461 57.5186 71.9514 57.5349C72.1475 57.5494 72.2983 57.7125 72.2983 57.9065L72.3019 57.9174Z" fill="#9FE0FF"/><path d="M99.8743 187.979C99.8743 187.979 69.4152 87.6881 13.0833 72.3531C12.0844 72.0812 11.0909 72.8154 11.0564 73.8487C10.6404 85.8752 12.7128 149.874 99.8743 187.979Z" fill="#9FE0FF"/><path d="M22.5364 88.6815C25.1246 93.0505 27.8726 97.3397 30.6588 101.596C32.0627 103.717 33.4667 105.84 34.8943 107.947C36.3419 110.039 37.764 112.149 39.2334 114.226C40.7137 116.297 42.1758 118.38 43.6688 120.439L48.2022 126.581C51.2881 130.627 54.3703 134.677 57.5651 138.638C60.6909 142.654 64.0038 146.521 67.2441 150.444L72.2643 156.194C73.1052 157.149 73.9316 158.116 74.7834 159.062L77.3698 161.868C79.0989 163.735 80.8099 165.619 82.5553 167.472L87.8897 172.934C88.7797 173.844 89.6551 174.768 90.5578 175.664L98.7965 183.621L98.8037 183.628C98.9527 183.771 98.9563 184.007 98.8128 184.155C98.6712 184.302 98.4369 184.308 98.2879 184.168C90.8448 177.192 83.4998 170.095 76.6615 162.519L74.0588 159.715C73.2033 158.77 72.3696 157.804 71.525 156.848L66.4722 151.102C63.2101 147.18 59.8772 143.317 56.7296 139.304C50.3527 131.342 44.2591 123.155 38.4342 114.785C36.9685 112.698 35.5536 110.577 34.1097 108.476C32.6875 106.36 31.289 104.229 29.8905 102.097C27.1388 97.8019 24.4416 93.4783 21.8861 89.0549C21.7826 88.8755 21.8444 88.6488 22.0224 88.5455C22.2003 88.444 22.4274 88.5038 22.5309 88.6779L22.5364 88.6815Z" fill="url(#paint3_linear_95_25927)"/><path d="M325.902 113.895C323.276 173.596 268.808 219.7 204.244 216.872C139.681 214.042 89.4701 163.351 92.0965 103.65C94.7228 43.9493 149.191 -2.15516 213.754 0.67289C278.316 3.50275 328.527 54.1938 325.902 113.895Z" fill="#39B4EF"/><path d="M202.666 187.544C253.378 187.544 294.488 148.781 294.488 100.965C294.488 53.1495 253.378 14.3871 202.666 14.3871C151.955 14.3871 110.844 53.1495 110.844 100.965C110.844 148.781 151.955 187.544 202.666 187.544Z" fill="#39B4EF"/><path d="M238.891 109.295C238.863 128.379 237.552 147.503 234.181 166.317C233.327 171.016 232.339 175.693 231.161 180.327C229.978 184.957 228.614 189.549 226.943 194.037C225.258 198.513 223.303 202.926 220.652 206.959C219.315 208.961 217.8 210.879 215.929 212.456C214.994 213.239 213.968 213.935 212.838 214.445C211.712 214.95 210.479 215.271 209.229 215.293C207.981 215.329 206.73 215.086 205.582 214.624C204.429 214.167 203.377 213.502 202.42 212.744C200.505 211.216 198.956 209.32 197.596 207.333C194.897 203.328 192.915 198.925 191.213 194.456C189.522 189.975 188.144 185.388 186.95 180.76C185.761 176.13 184.762 171.455 183.901 166.757C182.185 157.36 181.013 147.871 180.223 138.355C179.438 128.84 179.046 119.293 178.997 109.745C178.973 104.972 179.104 100.199 179.273 95.4289C179.453 90.6593 179.716 85.8933 180.067 81.1328C180.773 71.6135 181.83 62.1159 183.401 52.6963C184.19 47.9884 185.109 43.2985 186.213 38.6522C187.321 34.0058 188.609 29.3975 190.207 24.889C191.01 22.6374 191.887 20.4076 192.89 18.2322C193.889 16.0568 195.007 13.9285 196.322 11.9162C197.641 9.913 199.156 8.00044 201.041 6.47039C201.984 5.71262 203.023 5.05092 204.162 4.60496C205.295 4.15175 206.525 3.92333 207.749 3.96865C208.973 4.00309 210.181 4.30765 211.294 4.79712C212.409 5.28841 213.434 5.95735 214.374 6.71694C216.256 8.24336 217.813 10.1088 219.195 12.0685C221.941 16.0151 224.012 20.3659 225.806 24.7947C227.586 29.2344 229.057 33.7901 230.338 38.3929C231.615 42.9976 232.693 47.653 233.629 52.3356C237.332 71.0823 238.836 90.2079 238.891 109.295ZM237.476 109.295C237.494 99.787 237.131 90.275 236.339 80.7992C235.558 71.3234 234.375 61.8748 232.614 52.5314C231.734 47.8596 230.71 43.2151 229.49 38.6213C228.265 34.0294 226.854 29.4864 225.134 25.0594C223.403 20.6451 221.394 16.3087 218.73 12.3912C217.391 10.446 215.88 8.59868 214.066 7.09582C213.159 6.34893 212.175 5.69267 211.111 5.20864C210.046 4.73186 208.902 4.41824 207.736 4.38742C206.572 4.35116 205.409 4.58502 204.332 5.02736C203.252 5.46607 202.26 6.10963 201.355 6.85471C199.546 8.35576 198.079 10.2429 196.806 12.228C195.534 14.2221 194.45 16.3359 193.485 18.5005C192.517 20.665 191.671 22.884 190.899 25.1283C189.363 29.6205 188.131 34.2179 187.079 38.8516C186.03 43.487 185.167 48.166 184.433 52.8631C182.971 62.261 182.023 71.7349 181.422 81.227C180.815 90.7191 180.604 100.235 180.623 109.745C180.597 119.253 180.915 128.765 181.623 138.249C182.337 147.73 183.431 157.187 185.067 166.553C185.886 171.233 186.845 175.891 187.991 180.501C189.141 185.109 190.474 189.674 192.114 194.122C193.765 198.56 195.694 202.927 198.302 206.86C199.615 208.81 201.108 210.659 202.917 212.126C203.822 212.853 204.806 213.484 205.871 213.913C206.931 214.345 208.07 214.586 209.209 214.548C210.35 214.519 211.472 214.218 212.515 213.741C213.559 213.261 214.522 212.599 215.406 211.845C217.177 210.328 218.639 208.455 219.927 206.488C222.49 202.525 224.391 198.149 226.022 193.702C227.641 189.244 228.961 184.676 230.098 180.066C231.231 175.454 232.178 170.793 232.99 166.11C234.615 156.743 235.694 147.286 236.411 137.804C237.143 128.318 237.479 118.806 237.476 109.295Z" fill="white"/><path d="M287.126 109.295C287.061 121.585 285.477 133.88 282.182 145.732C278.829 157.555 273.773 168.931 266.909 179.145C263.476 184.246 259.588 189.046 255.243 193.403C250.9 197.757 246.096 201.666 240.884 204.942C235.665 208.205 230.029 210.815 224.128 212.588C218.231 214.365 212.076 215.291 205.915 215.297C199.754 215.297 193.597 214.376 187.696 212.605C181.793 210.837 176.151 208.23 170.928 204.971C165.71 201.698 160.898 197.794 156.548 193.441C152.196 189.086 148.301 184.286 144.86 179.186C137.982 168.973 132.917 157.592 129.547 145.763C127.889 139.837 126.656 133.794 125.84 127.698C125.029 121.599 124.62 115.45 124.593 109.299C124.625 103.148 125.036 96.9988 125.853 90.9022C126.674 84.8056 127.911 78.7652 129.573 72.8426C132.951 61.0173 138.024 49.6453 144.906 39.4408C148.348 34.3448 152.244 29.5498 156.595 25.2008C160.945 20.8536 165.751 16.9541 170.969 13.691C176.191 10.4405 181.831 7.85178 187.725 6.08606C193.613 4.31309 199.761 3.38672 205.915 3.38129C212.068 3.39216 218.213 4.32216 224.099 6.10057C229.99 7.87172 235.624 10.4659 240.84 13.72C246.053 16.9849 250.853 20.8898 255.196 25.237C259.54 29.5879 263.429 34.3829 266.862 39.4788C273.729 49.6816 278.793 61.0482 282.155 72.868C285.461 84.7131 287.052 97.0061 287.126 109.295ZM285.504 109.295C285.486 97.1457 283.969 84.9814 280.758 73.2541C277.529 61.5431 272.665 50.2381 265.97 40.0716C262.624 34.9938 258.825 30.2061 254.569 25.8552C250.312 21.5116 245.609 17.5796 240.466 14.3128C235.317 11.0642 229.755 8.45003 223.925 6.68068C218.096 4.91134 212.012 3.97953 205.917 3.95959C199.821 3.98497 193.738 4.9204 187.912 6.69518C182.083 8.46815 176.527 11.0877 171.384 14.34C166.245 17.6104 161.55 21.5443 157.3 25.8915C153.052 30.2442 149.26 35.0319 145.921 40.1115C139.241 50.278 134.388 61.5775 131.173 73.2831C129.571 79.1423 128.412 85.1174 127.628 91.1361C126.839 97.1548 126.452 103.226 126.438 109.297C126.456 115.368 126.848 121.44 127.639 127.458C128.429 133.475 129.591 139.449 131.197 145.306C134.419 157.006 139.279 168.298 145.965 178.454C149.303 183.528 153.097 188.31 157.346 192.658C161.596 196.998 166.289 200.928 171.425 204.187C176.567 207.431 182.123 210.032 187.941 211.805C193.755 213.582 199.828 214.521 205.917 214.552C212.005 214.526 218.078 213.593 223.896 211.82C229.717 210.052 235.275 207.456 240.424 204.215C245.566 200.957 250.265 197.03 254.524 192.694C258.779 188.349 262.579 183.566 265.926 178.494C272.625 168.336 277.496 157.039 280.735 145.333C283.953 133.606 285.477 121.445 285.504 109.295Z" fill="white"/><path d="M111.148 67.3515L135.537 67.1557L159.926 67.0451L208.704 66.9544L257.48 67.0542L281.869 67.1756L306.258 67.3877C306.298 67.3877 306.329 67.4203 306.329 67.4602C306.329 67.5001 306.296 67.5309 306.258 67.5309L281.869 67.743L257.48 67.8645L208.704 67.9642L159.926 67.8736L135.537 67.763L111.148 67.5672C111.09 67.5672 111.043 67.5182 111.043 67.4602C111.043 67.3986 111.09 67.3515 111.148 67.3515Z" fill="white"/><path d="M139.441 26.5786C145.213 26.4879 150.986 26.448 156.756 26.3828L174.07 26.2722C179.843 26.2251 185.615 26.2305 191.385 26.216L208.7 26.1834L243.331 26.2831L260.645 26.4045C266.417 26.477 272.189 26.5187 277.96 26.6166C278 26.6166 278.031 26.6493 278.031 26.6892C278.031 26.7272 277.998 26.758 277.96 26.7598C272.188 26.8577 266.416 26.8994 260.645 26.972L243.331 27.0934L208.7 27.1931L191.385 27.1605C185.613 27.146 179.841 27.1514 174.07 27.1043L156.756 26.9937C150.984 26.9266 145.212 26.8886 139.441 26.7979C139.383 26.7961 139.336 26.749 139.336 26.6892C139.338 26.6257 139.383 26.5804 139.441 26.5786Z" fill="white"/><path d="M102.673 108.123L129.18 107.927L155.687 107.814L208.702 107.724L261.718 107.823L288.224 107.945L314.731 108.157C314.771 108.157 314.802 108.19 314.802 108.229C314.802 108.269 314.769 108.3 314.731 108.3L288.224 108.512L261.718 108.634L208.702 108.733L155.687 108.643L129.18 108.53L102.673 108.335C102.615 108.335 102.566 108.286 102.568 108.228C102.568 108.17 102.615 108.123 102.673 108.123Z" fill="white"/><path d="M111.148 148.894L135.537 148.698L159.926 148.587L208.704 148.497L257.48 148.596L281.869 148.718L306.258 148.93C306.298 148.93 306.329 148.962 306.329 149.002C306.329 149.042 306.296 149.073 306.258 149.073L281.869 149.285L257.48 149.407L208.704 149.506L159.926 149.416L135.537 149.305L111.148 149.109C111.09 149.109 111.043 149.06 111.043 149.002C111.043 148.941 111.09 148.894 111.148 148.894Z" fill="white"/><path d="M281.453 190.145H142.931C142.724 190.145 142.557 189.978 142.557 189.772C142.557 189.565 142.724 189.398 142.931 189.398H281.452C281.659 189.398 281.826 189.565 281.826 189.772C281.828 189.978 281.66 190.145 281.453 190.145Z" fill="white"/><path d="M195.39 190.19C195.39 190.19 193.085 184.135 190.393 184.69C187.701 185.245 184.757 187.308 184.757 187.308L180.433 193.145C180.433 193.145 192.571 197.919 196.839 195.183C196.839 195.183 209.237 197.322 224.893 194.757C222.627 189.982 221.275 185.2 220.483 181.489C212.555 185.968 204.015 189.315 195.39 190.19Z" fill="url(#paint4_linear_95_25927)"/><path d="M261.063 146.276C261.063 146.276 243.312 168.592 220.483 181.489C221.277 185.2 222.627 189.982 224.893 194.757C236.735 192.817 250.442 188.189 262.06 177.903L261.063 146.276Z" fill="#BDD0FB"/><path d="M23.9792 156.567L59.2187 245.024C61.0113 249.525 65.6646 252.214 70.4687 251.525L162.877 244.714L129.592 150.648C128.706 148.321 126.446 146.805 123.953 146.861C107.751 147.233 48.7423 148.689 27.6335 150.563C24.7021 150.824 22.8658 153.848 23.9792 156.567Z" fill="#0696DB"/><path d="M67.3567 247.507L32.1481 158.257C31.438 156.455 32.7402 154.499 34.68 154.455L121.702 151.16C123.943 151.074 125.993 152.414 126.813 154.499L158.685 241.501L67.3567 247.507Z" fill="white"/><path d="M375.908 156.567L340.668 245.024C338.874 249.525 334.222 252.214 329.418 251.525L237.009 245.071L270.295 150.648C271.181 148.321 273.44 146.805 275.934 146.861C292.135 147.233 351.144 148.689 372.253 150.563C375.185 150.824 377.023 153.848 375.908 156.567Z" fill="#0696DB"/><path d="M332.532 247.507L367.739 158.257C368.449 156.455 367.147 154.499 365.207 154.455L278.186 151.16C275.944 151.074 273.894 152.414 273.075 154.499L241.203 241.501L332.532 247.507Z" fill="white"/><path d="M128.024 149.225L129.126 178.768C132.256 179.843 135.236 180.678 138.075 181.304C139.85 175.601 143.758 168.599 146.959 163.395C135.198 159.245 128.024 149.225 128.024 149.225Z" fill="#002E47"/><path d="M186.731 148.723C170.6 166.107 157.545 167.129 146.956 163.395C143.756 168.599 139.847 175.601 138.072 181.304C181.149 190.783 191.293 151.258 191.293 151.258L186.731 148.723Z" fill="url(#paint5_linear_95_25927)"/><path d="M190.002 146.878C190.002 146.878 191.86 144.885 195.299 145.513C198.737 146.138 201.799 147.331 203.94 145.513C206.084 143.694 206.836 146.134 206.836 146.134L200.419 151.002L190.002 146.878Z" fill="url(#paint6_linear_95_25927)"/><path d="M186.165 150.282C186.165 150.282 187.438 144.969 191.274 145.698C195.11 146.426 203.821 151.154 206.066 150.282C208.311 149.412 211.18 147.327 212.654 148.063L210.06 151.283C210.06 151.283 216.729 147.443 217.877 149.802L206.781 156.034C206.78 156.034 190.546 154.412 186.165 150.282Z" fill="url(#paint7_linear_95_25927)"/><path d="M72.1807 246.59C72.1807 246.59 66.6774 168.161 106.801 143.774C106.801 143.774 118.018 136.383 131.996 150.697C145.974 165.012 141.472 179.884 129.742 193.822C118.013 207.759 106.065 232.655 108.908 246.59H72.1807Z" fill="#002E47"/><path d="M127.023 122.411C127.012 123.347 113.652 142.288 113.652 142.288C113.652 142.288 116.049 147.001 127.499 150.83L137.381 130.549L127.023 122.411Z" fill="url(#paint8_linear_95_25927)"/><path d="M121.77 187.446C121.77 187.446 147.12 208.636 174.493 199.389C176.191 198.816 178.048 198.939 179.631 199.775L187.501 203.923C190.805 205.663 194.895 204.521 196.812 201.321C197.905 199.496 198.839 197.411 199.024 195.413L183.625 189.192L184.761 187.306C184.761 187.306 177.243 186.67 175.274 192.049C175.274 192.049 160.955 197.993 136.805 171.482C136.803 171.484 125.846 180.784 121.77 187.446Z" fill="url(#paint9_linear_95_25927)"/><path d="M120.404 187.353C120.296 187.353 120.187 187.323 120.09 187.257C109.385 180.038 104.35 168.385 104.3 168.269C104.178 167.985 104.312 167.657 104.597 167.535C104.883 167.414 105.211 167.548 105.333 167.833C105.382 167.947 110.297 179.302 120.719 186.331C120.975 186.503 121.044 186.851 120.869 187.109C120.76 187.266 120.584 187.353 120.404 187.353Z" fill="#064162"/><path d="M136.303 171.252C136.119 171.252 135.938 171.161 135.83 170.994C135.798 170.943 132.536 165.875 126.322 154.771C124.43 151.39 121.947 149.249 118.941 148.41C113.957 147.017 109.147 149.688 109.1 149.715C108.831 149.867 108.488 149.773 108.336 149.505C108.183 149.236 108.277 148.894 108.546 148.741C108.759 148.622 113.793 145.815 119.233 147.329C122.542 148.25 125.256 150.571 127.301 154.227C133.493 165.295 136.74 170.341 136.773 170.39C136.94 170.65 136.866 170.996 136.606 171.165C136.511 171.223 136.406 171.252 136.303 171.252Z" fill="#064162"/><path d="M137.545 111.558C137.545 111.558 142.299 122.459 142.618 128.18C142.938 133.901 144.173 137.614 137.545 138.765C130.918 139.918 125.335 136.622 122.311 130.923C122.311 130.923 117.572 122.141 118.634 118.545C119.695 114.95 137.545 111.558 137.545 111.558Z" fill="url(#paint10_linear_95_25927)"/><path d="M124.573 126.826L124.951 126.659C125.43 126.447 125.637 125.878 125.396 125.412C124.46 123.61 122.639 119.478 124.993 118.516C128.026 117.274 140.042 114.828 142.634 110.574C145.126 106.484 142.918 101.205 139.601 99.7018C139.379 99.6021 139.118 99.6819 139.003 99.8958L138.727 100.418C138.538 100.775 138.01 100.721 137.897 100.333C137.788 99.9592 137.292 99.8867 137.085 100.217C136.288 101.489 134.138 103.554 128.384 104.613C120.207 106.119 114.802 109.422 114.667 115.06C114.658 115.419 114.277 115.619 113.97 115.432C113.367 115.064 112.4 114.892 111.109 115.976C108.864 117.861 109.783 122.749 114.705 126.77C114.94 126.96 114.938 127.324 114.683 127.489C113.792 128.069 112.46 129.449 115.908 131.287C119.473 133.189 122.136 133.033 123.16 132.864C123.414 132.823 123.58 132.576 123.523 132.324L122.43 127.368C122.368 127.087 122.582 126.822 122.869 126.822H124.573V126.826Z" fill="#002E47"/><path d="M124.778 127.872C124.778 127.872 122.964 120.909 119.836 122.861C116.708 124.813 121.46 130.664 123.973 130.923L124.778 127.872Z" fill="url(#paint11_linear_95_25927)"/><path d="M179.631 199.777C179.631 199.777 186.073 206.066 187.315 205.15C187.759 204.824 188.874 203.642 189.956 202.324C190.719 201.394 190.799 200.081 190.143 199.072L188.625 196.731C187.177 194.501 184.077 194.034 182.07 195.778C181.057 196.659 180.137 197.931 179.631 199.777Z" fill="url(#paint12_linear_95_25927)"/><path d="M281.14 245.435C281.14 245.435 281.096 217.178 264.637 188.001C259.488 178.873 257.657 168.251 259.262 157.9L261.066 146.274C261.066 146.274 283.655 138.644 308.694 145.953C308.694 145.953 343.414 174.556 320.209 247.712L281.14 245.435Z" fill="#BDD0FB"/><path d="M264.909 131.438L270.767 145.484C271.137 146.37 271.937 147.003 272.885 147.166C276.261 147.744 284.429 148.647 289.794 145.127C290.434 144.708 290.597 143.839 290.159 143.214L279.338 127.707L264.909 131.438Z" fill="url(#paint13_linear_95_25927)"/><path d="M279.357 197.445C278.55 197.658 278.149 198.562 278.536 199.302L295.481 231.734C295.768 232.281 296.4 232.551 296.996 232.381L352.427 216.408C353.117 216.208 353.515 215.489 353.315 214.8L343.767 181.808C343.571 181.13 342.87 180.733 342.185 180.912L279.357 197.445Z" fill="#39B4EF"/><path d="M282.933 193.635C282.139 193.823 281.689 194.663 281.97 195.426L295.534 232.203C295.781 232.872 296.504 233.237 297.189 233.039L352.453 217.113C353.141 216.916 353.557 216.219 353.406 215.521L345.747 180.125C345.585 179.38 344.842 178.914 344.101 179.09L282.933 193.635Z" fill="#39B4EF"/><path d="M287.745 189.922C286.777 190.069 286.137 191.008 286.359 191.962L295.571 231.665C295.789 232.602 296.75 233.166 297.678 232.899L352.105 217.215C352.98 216.963 353.494 216.062 353.267 215.182L344.898 182.774C344.682 181.94 343.87 181.404 343.016 181.532L287.745 189.922Z" fill="#002E47"/><path d="M331.803 205.063C336.028 173.213 311.437 148.723 311.437 148.723L296.807 165.748C307.916 179.567 313.196 192.23 315.608 202.177C318.804 201.247 326.505 199.779 331.803 205.063Z" fill="#BDD0FB"/><path d="M315.606 202.55C315.438 202.55 315.285 202.436 315.243 202.266C312.252 189.929 305.949 177.722 296.514 165.983C296.385 165.822 296.41 165.588 296.572 165.459C296.733 165.331 296.968 165.356 297.097 165.517C306.601 177.343 312.951 189.648 315.968 202.092C316.017 202.291 315.893 202.494 315.692 202.543C315.665 202.547 315.635 202.55 315.606 202.55Z" fill="#39B4EF"/><path d="M315.608 202.177C317.849 211.421 317.613 218.319 317.272 221.611C317.143 222.853 316.144 223.822 314.896 223.91C313.48 224.009 311.551 224.138 309.827 224.238C307.933 224.346 305.829 223.152 304.424 222.153C303.706 221.643 302.778 222.438 303.178 223.221C304.228 225.269 306.89 227.095 308.726 228.166C309.395 228.556 309.27 229.553 308.525 229.763L300.675 231.984C313.574 244.114 322.091 230.543 322.091 230.543C327.785 221.761 330.729 213.174 331.804 205.065C326.506 199.779 318.806 201.247 315.608 202.177Z" fill="url(#paint14_linear_95_25927)"/><path d="M270.968 109.948C270.722 110.18 260.586 130.047 260.586 130.047L272.074 135.584L284.484 118.178C284.484 118.177 275.087 106.079 270.968 109.948Z" fill="url(#paint15_linear_95_25927)"/><path d="M279.262 120.265L273.532 129.799C273.444 129.944 273.341 130.074 273.217 130.189C272.535 130.823 270.202 132.665 268.397 130.156C266.859 128.017 265.417 126.073 263.871 125.27C262.968 124.803 261.857 125.176 261.399 126.082C260.454 127.95 258.625 131.757 257.478 135.366C257.189 136.271 257.657 137.242 258.538 137.6C260.865 138.54 265.462 140.241 269.541 140.803C270.211 140.895 270.874 140.613 271.274 140.067C273.029 137.667 277.976 130.959 279.665 129.28C281.234 127.721 284.13 128.309 285.434 128.682C285.93 128.824 286.456 128.756 286.898 128.49C288.222 127.694 290.53 125.713 288.418 122.357C287.893 121.523 288.16 120.412 288.985 119.87C290.463 118.9 292.067 117.078 290.537 114.129C288.99 111.143 286.229 110.874 284.348 111.105C283.516 111.206 282.671 110.771 282.352 109.997C282.21 109.653 281.928 109.359 281.405 109.254C280.419 109.054 279.772 108.153 279.965 107.169C280.297 105.479 280.047 103.284 277.344 101.801C272.387 99.08 268.045 103.512 266.94 107.254C265.836 110.996 271.379 113.641 274.865 114.081C277.426 114.406 278.83 117.196 279.395 118.653C279.605 119.188 279.554 119.779 279.262 120.265Z" fill="#002E47"/><path d="M277.515 132.785C277.515 132.785 279.72 126.347 282.54 126.583C285.361 126.818 287.582 129.625 284.086 132.779C279.738 136.702 277.515 132.785 277.515 132.785Z" fill="url(#paint16_linear_95_25927)"/><path d="M194.299 248.644C194.299 250.294 192.96 251.63 191.307 251.63H69.7745C67.2644 251.63 65.2283 249.598 65.2283 247.092L63.3158 244.875L189.505 243.797C192.163 243.833 194.299 245.992 194.299 248.644Z" fill="#0696DB"/><path d="M205.588 248.644C205.588 250.294 206.926 251.63 208.579 251.63H330.112C332.622 251.63 334.658 249.598 334.658 247.092L336.571 244.875L210.381 243.797C207.722 243.833 205.588 245.992 205.588 248.644Z" fill="#0696DB"/><path d="M50.6767 189.32C50.4515 189.32 50.239 189.184 50.1536 188.961L49.6214 187.58C46.1414 178.556 42.1965 168.329 40.3402 163.596C39.8898 162.448 40.0369 161.154 40.7326 160.135C41.43 159.116 42.5833 158.507 43.8202 158.507H59.1297C59.4384 158.507 59.6909 158.757 59.6909 159.067C59.6909 159.377 59.4402 159.628 59.1297 159.628H43.8202C42.9412 159.628 42.1529 160.043 41.6589 160.766C41.1648 161.489 41.0649 162.372 41.3846 163.186C43.2427 167.923 47.1876 178.151 50.6676 187.177L51.1998 188.559C51.3106 188.847 51.1671 189.172 50.8783 189.282C50.8111 189.308 50.7439 189.32 50.6767 189.32Z" fill="#BDD0FB"/><path d="M56.8675 205.293C56.6641 205.293 56.4697 205.183 56.3717 204.989C56.3081 204.866 55.9884 204.075 52.9589 196.231C52.8481 195.943 52.9916 195.618 53.2804 195.508C53.5673 195.397 53.8943 195.54 54.0051 195.828C54.8006 197.89 57.2253 204.166 57.3761 204.494C57.505 204.771 57.3888 205.105 57.1127 205.237C57.0346 205.275 56.951 205.293 56.8675 205.293Z" fill="#BDD0FB"/><path d="M360.182 190.145C360.134 190.145 360.089 190.136 360.044 190.118C359.851 190.042 359.758 189.824 359.835 189.632L372.812 157.238C373.255 156.132 373.139 154.925 372.492 153.924C371.848 152.924 370.794 152.318 369.603 152.262L346.071 151.158C345.864 151.149 345.706 150.973 345.715 150.768C345.724 150.561 345.902 150.402 346.105 150.413L369.637 151.517C371.074 151.584 372.342 152.314 373.121 153.52C373.898 154.726 374.038 156.183 373.506 157.514L360.529 189.908C360.47 190.056 360.329 190.145 360.182 190.145Z" fill="#39B4EF"/><path d="M336.559 150.714C336.553 150.714 336.546 150.714 336.541 150.714L331.784 150.491C331.577 150.482 331.419 150.306 331.428 150.101C331.437 149.896 331.611 149.737 331.818 149.746L336.575 149.969C336.782 149.978 336.94 150.154 336.931 150.358C336.924 150.558 336.759 150.714 336.559 150.714Z" fill="#39B4EF"/><path d="M276.407 237.04L276.318 236.309V236.302C276.305 236.197 276.38 236.103 276.485 236.088C276.591 236.076 276.685 236.15 276.7 236.255V236.257L276.781 237.009C276.792 237.111 276.718 237.203 276.616 237.214C276.514 237.225 276.423 237.152 276.411 237.051L276.407 237.04Z" fill="#39B4EF"/><path d="M275.59 232.673L275.401 231.955L275.399 231.951C275.368 231.833 275.439 231.714 275.555 231.683C275.673 231.652 275.793 231.723 275.824 231.839V231.841L276.006 232.569C276.035 232.684 275.964 232.802 275.849 232.829C275.735 232.858 275.619 232.789 275.59 232.675V232.673Z" fill="#39B4EF"/><path d="M274.255 228.425L273.986 227.735L273.985 227.731C273.936 227.604 273.999 227.461 274.126 227.412C274.253 227.363 274.397 227.426 274.446 227.553C274.446 227.553 274.448 227.555 274.448 227.557L274.711 228.26C274.758 228.385 274.695 228.525 274.568 228.572C274.442 228.619 274.304 228.556 274.257 228.433L274.255 228.425Z" fill="#39B4EF"/><path d="M272.443 224.365L272.092 223.712L272.089 223.706C272.016 223.572 272.067 223.406 272.201 223.335C272.336 223.262 272.503 223.313 272.574 223.447C272.574 223.447 272.576 223.449 272.576 223.451L272.922 224.118C272.991 224.25 272.939 224.413 272.808 224.482C272.677 224.551 272.516 224.5 272.445 224.37L272.443 224.365Z" fill="#39B4EF"/><path d="M270.127 220.579L269.691 219.983L269.687 219.977C269.589 219.843 269.618 219.653 269.753 219.555C269.887 219.457 270.078 219.486 270.176 219.62C270.176 219.62 270.178 219.622 270.178 219.624L270.616 220.238C270.712 220.373 270.679 220.559 270.545 220.654C270.412 220.748 270.227 220.717 270.131 220.587L270.127 220.579Z" fill="#39B4EF"/><path d="M267.292 217.177L266.763 216.651C266.634 216.522 266.634 216.312 266.763 216.183C266.892 216.054 267.101 216.054 267.232 216.183C267.232 216.183 267.234 216.185 267.236 216.187L267.764 216.727C267.889 216.856 267.888 217.062 267.759 217.187C267.632 217.313 267.426 217.311 267.301 217.186L267.292 217.177Z" fill="#39B4EF"/><path d="M263.952 214.28L263.351 213.854L263.341 213.848C263.18 213.734 263.142 213.511 263.256 213.35C263.371 213.188 263.594 213.15 263.756 213.264L263.759 213.266L264.371 213.71C264.529 213.825 264.564 214.046 264.449 214.203C264.335 214.359 264.117 214.396 263.959 214.283L263.952 214.28Z" fill="#39B4EF"/><path d="M260.176 211.992L259.512 211.675L259.502 211.669C259.31 211.577 259.228 211.346 259.321 211.154C259.413 210.962 259.644 210.881 259.837 210.973L259.84 210.975L260.52 211.31C260.708 211.403 260.787 211.633 260.692 211.821C260.6 212.008 260.372 212.086 260.185 211.997L260.176 211.992Z" fill="#39B4EF"/><path d="M256.07 210.366L255.363 210.159L255.352 210.155C255.133 210.092 255.007 209.862 255.071 209.642C255.134 209.423 255.365 209.298 255.585 209.361C255.587 209.361 255.588 209.363 255.59 209.363L256.315 209.584C256.531 209.651 256.653 209.88 256.587 210.096C256.522 210.309 256.295 210.431 256.081 210.367L256.07 210.366Z" fill="#39B4EF"/><path d="M251.76 209.374L251.03 209.267L251.02 209.265C250.786 209.231 250.623 209.013 250.657 208.778C250.692 208.544 250.91 208.381 251.146 208.415H251.149L251.898 208.529C252.132 208.566 252.292 208.783 252.256 209.015C252.219 209.247 252.003 209.407 251.771 209.372L251.76 209.374Z" fill="#39B4EF"/><path d="M247.351 208.964L246.612 208.946H246.604C246.357 208.941 246.163 208.736 246.169 208.491C246.174 208.245 246.379 208.051 246.624 208.056H246.628L247.384 208.08C247.629 208.087 247.821 208.292 247.814 208.537C247.807 208.779 247.603 208.972 247.36 208.966L247.351 208.964Z" fill="#39B4EF"/><path d="M242.911 209.053L242.172 209.111H242.164C241.91 209.131 241.688 208.941 241.668 208.687C241.648 208.433 241.839 208.212 242.093 208.192H242.097L242.851 208.14C243.103 208.121 243.323 208.312 243.341 208.564C243.359 208.816 243.171 209.033 242.92 209.053H242.911Z" fill="#39B4EF"/><path d="M238.495 209.559L237.763 209.679L237.757 209.68C237.498 209.722 237.252 209.546 237.209 209.287C237.167 209.028 237.343 208.783 237.603 208.74H237.607L238.351 208.624C238.611 208.584 238.852 208.759 238.894 209.019C238.934 209.276 238.76 209.517 238.502 209.559H238.495Z" fill="#39B4EF"/><path d="M234.126 210.407L233.404 210.578L233.398 210.58C233.133 210.641 232.868 210.478 232.804 210.213C232.742 209.949 232.906 209.684 233.171 209.621H233.175L233.908 209.452C234.172 209.392 234.435 209.557 234.497 209.82C234.557 210.083 234.393 210.344 234.132 210.406L234.126 210.407Z" fill="#39B4EF"/><path d="M229.815 211.54L229.103 211.752L229.1 211.754C228.831 211.834 228.548 211.682 228.466 211.413C228.386 211.145 228.539 210.862 228.807 210.781L228.811 210.779L229.534 210.569C229.803 210.491 230.082 210.645 230.162 210.911C230.24 211.178 230.088 211.457 229.823 211.537L229.815 211.54Z" fill="#39B4EF"/><path d="M225.574 212.909L224.873 213.157L224.869 213.159C224.597 213.255 224.297 213.114 224.199 212.84C224.103 212.568 224.244 212.269 224.519 212.171L224.522 212.169L225.232 211.923C225.505 211.829 225.803 211.972 225.897 212.244C225.992 212.514 225.848 212.809 225.579 212.905L225.574 212.909Z" fill="#39B4EF"/><path d="M221.394 214.477L220.704 214.755L220.701 214.756C220.424 214.869 220.108 214.735 219.998 214.459C219.885 214.184 220.019 213.868 220.296 213.758L220.299 213.756L220.998 213.48C221.275 213.371 221.587 213.506 221.696 213.781C221.805 214.055 221.67 214.365 221.398 214.475L221.394 214.477Z" fill="#39B4EF"/><path d="M217.282 216.212L216.603 216.517L216.599 216.518C216.32 216.644 215.991 216.518 215.866 216.239C215.74 215.96 215.866 215.632 216.145 215.507L216.149 215.505L216.836 215.204C217.115 215.081 217.442 215.208 217.564 215.487C217.686 215.764 217.56 216.089 217.284 216.212H217.282Z" fill="#39B4EF"/><path d="M213.201 218.076L212.513 218.378C212.226 218.505 211.89 218.375 211.763 218.088C211.635 217.802 211.766 217.467 212.053 217.34L212.055 217.338L212.06 217.336L212.742 217.041L212.747 217.039C213.034 216.914 213.368 217.046 213.493 217.332C213.617 217.617 213.486 217.951 213.201 218.076Z" fill="#39B4EF"/><path d="M209.033 219.802L208.332 220.07C208.036 220.184 207.704 220.035 207.589 219.74C207.475 219.444 207.624 219.113 207.92 218.998H207.922L207.925 218.997L208.619 218.732L208.623 218.73C208.919 218.618 209.251 218.765 209.364 219.06C209.476 219.359 209.329 219.689 209.033 219.802Z" fill="#39B4EF"/><path d="M204.8 221.348L204.09 221.591C203.788 221.694 203.459 221.533 203.356 221.232C203.252 220.931 203.414 220.603 203.715 220.5H203.717L203.721 220.498L204.426 220.258L204.429 220.257C204.731 220.153 205.06 220.315 205.161 220.617C205.261 220.918 205.101 221.245 204.8 221.348Z" fill="#39B4EF"/><path d="M200.518 222.746L199.8 222.967C199.493 223.061 199.168 222.889 199.072 222.583C198.977 222.276 199.15 221.952 199.457 221.856H199.461L200.172 221.638H200.174C200.481 221.544 200.806 221.716 200.901 222.022C200.995 222.327 200.825 222.651 200.518 222.746Z" fill="#39B4EF"/><path d="M196.201 224.02L195.478 224.221C195.165 224.308 194.842 224.127 194.757 223.815C194.669 223.503 194.851 223.183 195.163 223.096H195.167L195.885 222.896H195.886C196.197 222.809 196.52 222.992 196.607 223.302C196.693 223.612 196.511 223.933 196.201 224.02Z" fill="#39B4EF"/><path d="M191.856 225.186L191.129 225.371C190.813 225.45 190.493 225.26 190.412 224.946C190.332 224.631 190.523 224.312 190.837 224.23H190.84L191.563 224.047H191.565C191.881 223.968 192.201 224.158 192.281 224.473C192.361 224.787 192.172 225.106 191.856 225.186Z" fill="#39B4EF"/><path d="M187.485 226.257L186.755 226.428C186.435 226.502 186.118 226.304 186.043 225.985C185.969 225.666 186.167 225.349 186.486 225.275H186.49L187.216 225.108H187.218C187.538 225.033 187.856 225.233 187.928 225.55C188.003 225.866 187.805 226.183 187.485 226.257Z" fill="#39B4EF"/><path d="M183.096 227.24L182.363 227.396C182.039 227.464 181.723 227.26 181.654 226.937C181.585 226.614 181.79 226.299 182.114 226.23H182.117L182.847 226.076C183.169 226.007 183.487 226.212 183.556 226.533C183.625 226.855 183.42 227.171 183.096 227.24Z" fill="#39B4EF"/><path d="M178.693 228.144L177.958 228.288C177.633 228.351 177.317 228.139 177.253 227.814C177.19 227.49 177.402 227.174 177.727 227.111H177.729L178.461 226.97C178.786 226.906 179.102 227.118 179.166 227.443C179.231 227.765 179.019 228.081 178.693 228.144Z" fill="#39B4EF"/><path d="M174.274 228.973L173.536 229.103C173.207 229.161 172.893 228.944 172.835 228.616C172.777 228.288 172.995 227.974 173.324 227.916H173.325L174.061 227.787C174.39 227.729 174.704 227.947 174.762 228.275C174.82 228.601 174.602 228.915 174.274 228.973Z" fill="#39B4EF"/><path d="M169.841 229.732L169.102 229.852C168.77 229.906 168.457 229.682 168.405 229.35C168.35 229.018 168.575 228.706 168.908 228.654H168.909L169.647 228.536C169.977 228.481 170.29 228.706 170.344 229.036C170.397 229.366 170.172 229.678 169.841 229.732Z" fill="#39B4EF"/><path d="M165.351 230.432L164.61 230.541C164.276 230.59 163.965 230.36 163.916 230.026C163.867 229.692 164.098 229.382 164.432 229.332H164.434L165.173 229.225C165.507 229.176 165.818 229.406 165.867 229.74C165.916 230.071 165.685 230.381 165.351 230.432Z" fill="#39B4EF"/><path d="M160.816 231.068L160.073 231.166C159.735 231.212 159.426 230.974 159.381 230.637C159.336 230.3 159.574 229.992 159.911 229.946H159.913L160.652 229.85C160.988 229.805 161.299 230.042 161.344 230.378C161.39 230.715 161.152 231.025 160.816 231.068Z" fill="#39B4EF"/><path d="M156.243 231.645L155.499 231.732C155.159 231.772 154.85 231.529 154.81 231.19C154.77 230.851 155.014 230.543 155.353 230.503H155.355L156.096 230.418C156.436 230.378 156.743 230.619 156.785 230.958C156.826 231.299 156.583 231.605 156.243 231.645Z" fill="#39B4EF"/><path d="M151.777 232.145L151.032 232.223C150.689 232.259 150.384 232.011 150.348 231.669C150.311 231.326 150.56 231.021 150.904 230.985H150.905L151.648 230.909C151.99 230.873 152.297 231.121 152.333 231.462C152.367 231.804 152.119 232.111 151.777 232.145Z" fill="#39B4EF"/><path d="M147.303 232.586L146.557 232.653C146.211 232.684 145.906 232.43 145.875 232.085C145.845 231.741 146.099 231.436 146.444 231.406H146.446L147.189 231.34C147.534 231.31 147.839 231.562 147.87 231.906C147.901 232.25 147.646 232.555 147.303 232.586Z" fill="#39B4EF"/><path d="M142.825 232.967L142.078 233.025C141.731 233.052 141.428 232.792 141.401 232.444C141.373 232.098 141.633 231.795 141.982 231.768H141.984L142.728 231.712C143.075 231.685 143.379 231.944 143.406 232.29C143.431 232.637 143.172 232.939 142.825 232.967Z" fill="#39B4EF"/><path d="M138.34 233.287L137.592 233.335C137.241 233.356 136.94 233.092 136.918 232.744C136.896 232.395 137.162 232.093 137.51 232.071H137.512L138.257 232.024C138.605 232.002 138.907 232.267 138.931 232.615C138.954 232.965 138.689 233.266 138.34 233.287Z" fill="#39B4EF"/><path d="M133.852 233.548L133.104 233.587C132.752 233.605 132.452 233.335 132.434 232.983C132.416 232.631 132.686 232.332 133.039 232.314H133.04L133.785 232.278C134.137 232.26 134.437 232.53 134.455 232.881C134.475 233.231 134.205 233.53 133.852 233.548Z" fill="#39B4EF"/><path d="M129.36 233.75L128.611 233.777C128.257 233.79 127.959 233.514 127.947 233.161C127.934 232.807 128.21 232.51 128.564 232.497H128.566L129.313 232.472C129.667 232.459 129.965 232.734 129.977 233.088C129.992 233.44 129.714 233.737 129.36 233.75Z" fill="#39B4EF"/><path d="M124.867 233.886L124.119 233.902C123.766 233.909 123.474 233.63 123.465 233.278C123.458 232.927 123.737 232.635 124.092 232.626L124.838 232.608C125.192 232.598 125.485 232.878 125.494 233.229C125.503 233.583 125.223 233.875 124.871 233.884L124.867 233.886Z" fill="#39B4EF"/><path d="M120.372 233.954L119.622 233.96C119.271 233.962 118.984 233.681 118.981 233.331C118.979 232.981 119.26 232.695 119.613 232.691L120.359 232.684C120.71 232.68 120.998 232.961 121.002 233.311C121.006 233.661 120.724 233.949 120.374 233.953L120.372 233.954Z" fill="#39B4EF"/><path d="M115.877 233.962L115.127 233.956C114.779 233.955 114.497 233.67 114.499 233.322C114.501 232.974 114.786 232.693 115.136 232.695L115.883 232.698C116.232 232.7 116.515 232.983 116.513 233.331C116.511 233.679 116.228 233.962 115.879 233.96L115.877 233.962Z" fill="#39B4EF"/><path d="M111.381 233.904L110.631 233.887C110.284 233.88 110.008 233.594 110.017 233.247C110.024 232.901 110.313 232.626 110.66 232.635L111.407 232.649C111.754 232.655 112.031 232.941 112.024 233.287C112.019 233.634 111.732 233.911 111.385 233.904H111.381Z" fill="#39B4EF"/><path d="M106.886 233.777L106.137 233.75C105.792 233.737 105.523 233.447 105.536 233.102C105.549 232.758 105.839 232.49 106.184 232.502L106.931 232.53C107.276 232.54 107.547 232.829 107.536 233.173C107.525 233.518 107.236 233.788 106.891 233.777H106.886Z" fill="#39B4EF"/><path d="M102.392 233.581L101.644 233.541C101.301 233.523 101.039 233.231 101.058 232.889C101.076 232.546 101.368 232.285 101.711 232.303L102.456 232.341C102.799 232.357 103.063 232.649 103.046 232.992C103.03 233.335 102.738 233.597 102.394 233.581H102.392Z" fill="#39B4EF"/><path d="M97.9045 233.311L97.1562 233.258C96.8165 233.235 96.5604 232.939 96.584 232.6C96.6077 232.261 96.9037 232.006 97.2434 232.029L97.988 232.08C98.3295 232.102 98.5874 232.395 98.5638 232.736C98.542 233.077 98.2478 233.335 97.9063 233.311H97.9045Z" fill="#39B4EF"/><path d="M93.4196 232.967L92.6732 232.901C92.3353 232.872 92.0865 232.575 92.1156 232.238C92.1446 231.901 92.4443 231.652 92.7821 231.681L93.525 231.745C93.8628 231.772 94.1153 232.069 94.0862 232.406C94.059 232.744 93.7611 232.996 93.4233 232.967H93.4196Z" fill="#39B4EF"/><path d="M88.9405 232.539L88.194 232.459C87.8598 232.423 87.6164 232.124 87.6527 231.788C87.6891 231.455 87.9888 231.212 88.3248 231.248H88.3266L89.0676 231.326H89.0694C89.4055 231.36 89.6488 231.661 89.6125 231.995C89.578 232.332 89.2783 232.575 88.9405 232.539Z" fill="#39B4EF"/><path d="M84.472 232.027L83.7273 231.933C83.3949 231.892 83.1606 231.589 83.2024 231.257C83.2442 230.925 83.5475 230.691 83.8799 230.733H83.8817L84.6227 230.826H84.6246C84.9569 230.867 85.1931 231.17 85.1513 231.502C85.1095 231.833 84.8062 232.069 84.472 232.027Z" fill="#39B4EF"/><path d="M80.0116 231.427L79.2687 231.319C78.94 231.27 78.7111 230.965 78.7602 230.635C78.8092 230.307 79.1143 230.079 79.4449 230.128H79.4467L80.1841 230.235H80.186C80.5165 230.283 80.7436 230.588 80.6963 230.918C80.6491 231.246 80.3421 231.475 80.0116 231.427Z" fill="#39B4EF"/><path d="M75.5675 230.729L74.8283 230.603C74.5014 230.546 74.2834 230.238 74.3379 229.912C74.3942 229.586 74.703 229.368 75.0299 229.422H75.0317L75.7673 229.546H75.7691C76.0961 229.6 76.3158 229.91 76.2595 230.236C76.2032 230.564 75.8945 230.784 75.5675 230.729Z" fill="#39B4EF"/><path d="M71.1379 229.928L70.4024 229.785C70.0791 229.721 69.8684 229.41 69.9319 229.087C69.9955 228.764 70.3079 228.556 70.6312 228.617H70.633L71.365 228.759H71.3668C71.6901 228.822 71.9008 229.134 71.839 229.457C71.7755 229.781 71.4612 229.992 71.1379 229.928Z" fill="#39B4EF"/><path d="M66.7291 229.018L65.9971 228.855C65.6774 228.784 65.4776 228.469 65.5485 228.15C65.6193 227.831 65.9353 227.631 66.255 227.702H66.2568L66.9852 227.863H66.987C67.3066 227.934 67.5082 228.249 67.4374 228.569C67.3666 228.888 67.0505 229.089 66.7291 229.018Z" fill="#39B4EF"/><path d="M62.3444 227.987L61.6161 227.802C61.3019 227.722 61.1112 227.403 61.1911 227.089C61.271 226.776 61.5907 226.585 61.9049 226.665H61.9067L62.6296 226.846H62.6332C62.9492 226.926 63.14 227.245 63.0601 227.559C62.9801 227.876 62.6605 228.066 62.3444 227.987Z" fill="#39B4EF"/><path d="M57.9944 226.826L57.2733 226.62C56.9627 226.531 56.7829 226.208 56.8719 225.898C56.9609 225.588 57.2842 225.411 57.5948 225.499H57.5966L58.3122 225.702L58.3159 225.704C58.6264 225.793 58.8063 226.116 58.7173 226.426C58.6283 226.736 58.305 226.915 57.9944 226.826Z" fill="#39B4EF"/><path d="M53.6781 225.525L52.9643 225.293C52.6591 225.193 52.492 224.867 52.5919 224.562C52.6918 224.258 53.0187 224.091 53.3239 224.19H53.3257L54.034 224.419L54.0377 224.421C54.3428 224.519 54.5117 224.847 54.4118 225.151C54.3138 225.456 53.985 225.623 53.6781 225.525Z" fill="#39B4EF"/><path d="M49.4143 224.067L48.7096 223.808C48.4099 223.697 48.2574 223.367 48.3682 223.068C48.4789 222.769 48.8095 222.617 49.1092 222.728L49.1128 222.729L49.8121 222.985L49.8157 222.987C50.1154 223.096 50.2698 223.427 50.159 223.726C50.0464 224.024 49.714 224.176 49.4143 224.067Z" fill="#39B4EF"/><path d="M45.208 222.439L44.5142 222.151C44.2218 222.03 44.0837 221.694 44.2054 221.402C44.3271 221.11 44.6631 220.973 44.9555 221.094L44.9592 221.096L45.6457 221.381L45.6494 221.382C45.9418 221.504 46.0816 221.839 45.9599 222.131C45.8383 222.423 45.5023 222.561 45.208 222.439Z" fill="#39B4EF"/><path d="M41.0767 220.621L40.3974 220.298C40.1159 220.164 39.996 219.827 40.1304 219.546C40.2648 219.265 40.6026 219.145 40.8842 219.279H40.886L41.558 219.595L41.5616 219.597C41.845 219.731 41.9667 220.068 41.8341 220.351C41.6997 220.634 41.3619 220.755 41.0785 220.623L41.0767 220.621Z" fill="#39B4EF"/><path d="M37.0434 218.592L36.3823 218.233C36.1135 218.087 36.0136 217.751 36.1607 217.483C36.3078 217.215 36.6438 217.115 36.9126 217.262L36.9144 217.264L37.5683 217.615L37.5737 217.617C37.8444 217.762 37.9461 218.099 37.799 218.369C37.6537 218.64 37.3158 218.741 37.0452 218.594L37.0434 218.592Z" fill="#39B4EF"/><path d="M33.1323 216.334L32.4948 215.933C32.2405 215.773 32.1642 215.438 32.3241 215.184C32.4839 214.93 32.8199 214.854 33.0742 215.014L33.0778 215.016L33.7081 215.405L33.7135 215.409C33.9696 215.569 34.0477 215.904 33.8897 216.16C33.7299 216.415 33.3938 216.493 33.1377 216.335L33.1323 216.334Z" fill="#39B4EF"/><path d="M29.3726 213.825L28.7641 213.38C28.5262 213.208 28.4754 212.875 28.6479 212.637C28.8204 212.4 29.1546 212.349 29.3926 212.521L29.3962 212.523L29.9974 212.956L30.0028 212.96C30.2426 213.132 30.2953 213.466 30.1227 213.705C29.9502 213.944 29.616 213.997 29.3762 213.825H29.3726Z" fill="#39B4EF"/><path d="M25.8028 211.044L25.2306 210.552C25.0127 210.366 24.9873 210.036 25.1743 209.818C25.3614 209.601 25.692 209.575 25.9099 209.762L25.9136 209.766L26.4766 210.244L26.4821 210.25C26.7018 210.436 26.7291 210.766 26.542 210.986C26.3549 211.205 26.0244 211.232 25.8046 211.046L25.8028 211.044Z" fill="#39B4EF"/><path d="M22.4768 207.975L21.9501 207.434C21.7539 207.233 21.7575 206.91 21.961 206.715C22.1626 206.519 22.4859 206.522 22.682 206.725L22.6857 206.729L23.2033 207.257L23.2088 207.262C23.4067 207.463 23.4049 207.788 23.2015 207.985C22.9999 208.183 22.6748 208.181 22.4768 207.978V207.975Z" fill="#39B4EF"/><path d="M19.4492 204.603L18.9788 204.012C18.8081 203.796 18.8426 203.482 19.0587 203.312C19.2748 203.141 19.5891 203.176 19.7598 203.392L19.7634 203.397L20.2266 203.972L20.232 203.979C20.4046 204.195 20.3701 204.508 20.1557 204.682C19.9396 204.855 19.6236 204.822 19.451 204.606L19.4492 204.603Z" fill="#39B4EF"/><path d="M16.7876 200.935L16.3844 200.297C16.2409 200.069 16.3081 199.768 16.537 199.624C16.7658 199.481 17.0673 199.548 17.2108 199.777L17.2144 199.782L17.6122 200.404L17.6176 200.411C17.7629 200.64 17.6957 200.941 17.4687 201.087C17.2399 201.232 16.9384 201.165 16.7912 200.939L16.7876 200.935Z" fill="#39B4EF"/><path d="M14.5499 196.992L14.223 196.311C14.1086 196.073 14.2085 195.788 14.4464 195.674C14.6843 195.56 14.9695 195.66 15.0839 195.897L15.0876 195.903L15.4109 196.564L15.4145 196.573C15.5307 196.811 15.4308 197.097 15.1929 197.213C14.955 197.329 14.668 197.23 14.5536 196.992H14.5499Z" fill="#39B4EF"/><path d="M12.7871 192.817L12.5419 192.103C12.4584 191.86 12.5873 191.595 12.8325 191.512C13.0759 191.429 13.3411 191.559 13.4246 191.802L13.4265 191.809L13.6698 192.505L13.6735 192.515C13.7588 192.757 13.6299 193.024 13.3847 193.109C13.1413 193.194 12.8743 193.066 12.7889 192.821L12.7871 192.817Z" fill="#39B4EF"/><path d="M11.5254 188.465L11.3638 187.727C11.3111 187.482 11.4655 187.239 11.7107 187.186C11.9559 187.134 12.1993 187.288 12.252 187.533L12.2538 187.538L12.4136 188.258L12.4154 188.267C12.4699 188.514 12.3155 188.756 12.0685 188.811C11.8215 188.865 11.5781 188.711 11.5236 188.465H11.5254Z" fill="#39B4EF"/><path d="M10.7673 184.003L10.6892 183.253C10.6638 183.01 10.8399 182.792 11.0851 182.767C11.3285 182.741 11.5465 182.917 11.5719 183.162V183.167L11.6518 183.902V183.909C11.6791 184.154 11.5029 184.373 11.2577 184.4C11.0125 184.427 10.7927 184.252 10.7655 184.007L10.7673 184.003Z" fill="#39B4EF"/><path d="M10.4906 179.491L10.4887 178.739C10.4887 178.499 10.6813 178.305 10.9192 178.305C11.159 178.305 11.3533 178.497 11.3533 178.735V178.74L11.3587 179.48V179.487C11.3606 179.727 11.168 179.922 10.9283 179.924C10.6885 179.926 10.4924 179.734 10.4906 179.495V179.491Z" fill="#39B4EF"/><path d="M10.6475 174.977L10.7129 174.228C10.7329 173.996 10.9381 173.826 11.1688 173.846C11.4013 173.866 11.572 174.071 11.552 174.301V174.304L11.4903 175.042V175.048C11.4703 175.28 11.2669 175.454 11.0326 175.434C10.8001 175.414 10.6257 175.211 10.6457 174.979L10.6475 174.977Z" fill="#39B4EF"/><path d="M11.1989 170.499L11.326 169.758C11.3642 169.537 11.5749 169.388 11.7965 169.426C12.0162 169.464 12.1652 169.671 12.1288 169.892V169.897L12.0108 170.63V170.635C11.9745 170.858 11.7638 171.01 11.5404 170.974C11.317 170.938 11.1644 170.728 11.2007 170.505L11.1989 170.499Z" fill="#39B4EF"/><path d="M12.0943 166.083L12.2723 165.354C12.3232 165.148 12.5321 165.021 12.7409 165.072C12.948 165.122 13.0751 165.329 13.0261 165.536L13.0243 165.539L12.8535 166.261L12.8517 166.264C12.8027 166.475 12.592 166.603 12.3813 166.554C12.1706 166.505 12.0417 166.295 12.0907 166.085L12.0943 166.083Z" fill="#39B4EF"/><path d="M13.28 161.741L13.5034 161.025C13.5634 160.831 13.7704 160.724 13.9629 160.784C14.1555 160.844 14.2644 161.047 14.2063 161.241L14.2045 161.245L13.9902 161.955L13.9884 161.959C13.9284 162.155 13.7214 162.265 13.5252 162.207C13.3291 162.147 13.2183 161.941 13.2764 161.747L13.28 161.741Z" fill="#39B4EF"/><path d="M14.7189 157.479L14.9804 156.778C15.0476 156.598 15.2474 156.506 15.4272 156.573C15.607 156.64 15.6978 156.838 15.6324 157.017L15.6306 157.021L15.3782 157.72L15.3763 157.724C15.311 157.905 15.1094 158 14.9259 157.934C14.7443 157.869 14.6498 157.668 14.7152 157.485L14.7189 157.479Z" fill="#39B4EF"/><path d="M16.3741 153.299L16.6683 152.61C16.7392 152.443 16.9317 152.367 17.0988 152.438C17.2641 152.508 17.3422 152.699 17.2732 152.866L17.2713 152.867L16.9844 153.554V153.556C16.9135 153.725 16.7192 153.805 16.5503 153.734C16.3814 153.663 16.3014 153.469 16.3723 153.301L16.3741 153.299Z" fill="#39B4EF"/><path d="M18.2141 149.202L18.5374 148.527C18.6101 148.373 18.7953 148.31 18.9479 148.382C19.1005 148.455 19.1658 148.638 19.095 148.79L19.0932 148.792L18.7772 149.466L18.7753 149.468C18.7027 149.624 18.5174 149.691 18.3612 149.619C18.205 149.546 18.1378 149.361 18.2105 149.205L18.2141 149.202Z" fill="#39B4EF"/><path d="M20.2196 145.183L20.5683 144.521C20.6428 144.38 20.8171 144.325 20.9588 144.4C21.0986 144.474 21.1531 144.648 21.0805 144.787L20.739 145.449C20.6664 145.592 20.4902 145.65 20.3467 145.578C20.2032 145.505 20.1451 145.33 20.2178 145.186L20.2196 145.183Z" fill="#39B4EF"/><path d="M22.3629 141.238L22.7334 140.589C22.806 140.46 22.9713 140.415 23.1003 140.487C23.2292 140.56 23.2728 140.723 23.202 140.852L22.8387 141.503C22.7661 141.635 22.6008 141.682 22.4682 141.61C22.3356 141.537 22.2884 141.372 22.361 141.24L22.3629 141.238Z" fill="#39B4EF"/><path d="M24.6339 137.366L25.0226 136.728C25.0934 136.61 25.2478 136.573 25.3641 136.644C25.4803 136.715 25.5185 136.867 25.4476 136.985L25.0644 137.625C24.9935 137.745 24.8392 137.784 24.7193 137.714C24.5994 137.643 24.5595 137.489 24.6303 137.369L24.6339 137.366Z" fill="#39B4EF"/><path d="M27.0128 133.562L27.4196 132.935C27.4886 132.828 27.6303 132.799 27.7374 132.866C27.8428 132.935 27.8737 133.076 27.8065 133.182L27.4069 133.811C27.3379 133.919 27.1944 133.952 27.0854 133.883C26.9764 133.814 26.9437 133.671 27.0128 133.562Z" fill="#39B4EF"/><path d="M29.4888 129.821L29.9102 129.202C29.9756 129.106 30.1064 129.083 30.2008 129.148C30.2953 129.213 30.3207 129.342 30.2571 129.438L29.843 130.058C29.7776 130.156 29.645 130.183 29.5488 130.118C29.4507 130.053 29.4235 129.92 29.4888 129.824V129.821Z" fill="#39B4EF"/><path d="M32.0534 126.14L32.4893 125.533C32.5511 125.448 32.6691 125.428 32.7545 125.49C32.8399 125.549 32.8599 125.667 32.7999 125.753L32.3713 126.363C32.3095 126.45 32.1896 126.472 32.1025 126.412C32.0153 126.351 31.9935 126.231 32.0534 126.144V126.14Z" fill="#39B4EF"/><path d="M74.1541 176.989L73.453 174.87L73.4512 174.863C73.3949 174.694 73.4875 174.511 73.6565 174.457C73.8254 174.401 74.0088 174.493 74.0633 174.662L74.7644 176.797C74.8189 176.964 74.7281 177.145 74.561 177.2C74.3939 177.254 74.2122 177.163 74.1578 176.997L74.1541 176.989Z" fill="url(#paint17_linear_95_25927)"/><path d="M71.9533 170.655L71.196 168.547C71.1342 168.375 71.2232 168.186 71.3958 168.124C71.5683 168.063 71.7572 168.152 71.8208 168.324V168.326L72.5727 170.434C72.6345 170.604 72.5455 170.793 72.3747 170.853C72.2022 170.914 72.0133 170.826 71.9533 170.655Z" fill="url(#paint18_linear_95_25927)"/><path d="M69.7224 164.31L69.025 162.176C68.9669 161.999 69.0649 161.807 69.2429 161.749C69.4209 161.691 69.6135 161.788 69.6716 161.966L69.6734 161.972L70.3618 164.096L70.3636 164.102C70.4217 164.279 70.3236 164.468 70.1456 164.526C69.9695 164.582 69.7806 164.486 69.7224 164.31Z" fill="url(#paint19_linear_95_25927)"/><path d="M67.7385 157.873L67.1573 155.703C67.1082 155.516 67.219 155.326 67.4043 155.275C67.5914 155.226 67.7821 155.337 67.8329 155.521L67.8347 155.529L68.4051 157.686L68.4069 157.693C68.4559 157.878 68.3451 158.067 68.1599 158.116C67.9764 158.166 67.7875 158.058 67.7385 157.873Z" fill="url(#paint20_linear_95_25927)"/><path d="M66.138 151.325L65.7039 149.118C65.6658 148.924 65.7929 148.736 65.9872 148.698C66.1816 148.66 66.3705 148.787 66.4086 148.981V148.982L66.4104 148.992L66.8354 151.181L66.8372 151.189C66.8754 151.381 66.7483 151.568 66.5557 151.604C66.3632 151.642 66.1761 151.519 66.138 151.325Z" fill="url(#paint21_linear_95_25927)"/><path d="M64.9977 144.681L64.7253 142.449C64.6999 142.248 64.8433 142.065 65.045 142.041C65.2466 142.016 65.43 142.159 65.4536 142.36V142.362L65.4554 142.371L65.7188 144.585L65.7206 144.594C65.7442 144.793 65.6025 144.974 65.4009 144.998C65.203 145.021 65.0213 144.88 64.9977 144.681Z" fill="url(#paint22_linear_95_25927)"/><path d="M64.3457 137.969L64.2385 135.723C64.2294 135.517 64.3893 135.341 64.5963 135.33C64.8034 135.321 64.9796 135.48 64.9905 135.687V135.698L65.0904 137.926V137.935C65.0994 138.14 64.9396 138.316 64.7344 138.325C64.5291 138.334 64.3548 138.174 64.3457 137.969Z" fill="url(#paint23_linear_95_25927)"/><path d="M64.1858 131.227L64.2385 128.979C64.244 128.767 64.4201 128.599 64.6326 128.604C64.8451 128.61 65.0141 128.785 65.0086 128.998V129.008L64.9505 131.238V131.247C64.945 131.458 64.7689 131.624 64.5582 131.619C64.3475 131.613 64.1804 131.438 64.1858 131.227Z" fill="url(#paint24_linear_95_25927)"/><path d="M64.5007 124.493L64.706 122.254C64.7259 122.038 64.9185 121.878 65.1346 121.898C65.3507 121.918 65.5106 122.111 65.4906 122.326V122.337L65.2817 124.558V124.567C65.2617 124.781 65.071 124.939 64.8549 124.919C64.6388 124.897 64.4807 124.707 64.5007 124.493Z" fill="url(#paint25_linear_95_25927)"/><path d="M65.2585 117.794L65.6036 115.573C65.6381 115.354 65.8433 115.204 66.0631 115.238C66.2828 115.272 66.4336 115.477 66.3991 115.697V115.698L66.3973 115.706L66.0485 117.91L66.0467 117.917C66.0122 118.135 65.807 118.284 65.589 118.249C65.3729 118.215 65.2239 118.012 65.2585 117.794Z" fill="url(#paint26_linear_95_25927)"/><path d="M66.4257 111.155L66.8979 108.958C66.9451 108.735 67.1649 108.594 67.3883 108.643C67.6117 108.69 67.7534 108.909 67.7043 109.132V109.134L67.7025 109.141L67.2267 111.322L67.2248 111.329C67.1776 111.551 66.9597 111.69 66.7381 111.641C66.5183 111.592 66.3784 111.375 66.4257 111.155Z" fill="url(#paint27_linear_95_25927)"/><path d="M67.9666 104.591L68.5732 102.425C68.635 102.202 68.8674 102.071 69.0927 102.133C69.3161 102.196 69.4468 102.427 69.3851 102.651V102.653L69.3833 102.662L68.7748 104.809L68.773 104.818C68.7094 105.039 68.4788 105.168 68.2572 105.106C68.0338 105.043 67.903 104.814 67.9666 104.591Z" fill="url(#paint28_linear_95_25927)"/><path d="M69.9383 98.1392L70.6939 96.0199C70.7738 95.797 71.019 95.6809 71.2424 95.7589C71.4658 95.8387 71.5821 96.0834 71.504 96.3064V96.3082L71.5003 96.3173L70.7448 98.4165L70.7411 98.4256C70.6612 98.6468 70.4178 98.7628 70.1944 98.683C69.9747 98.6033 69.8584 98.3603 69.9383 98.1392Z" fill="url(#paint29_linear_95_25927)"/><path d="M72.3509 91.8377L73.2518 89.7765C73.3481 89.5553 73.6078 89.4538 73.8294 89.5499C74.051 89.646 74.1527 89.9052 74.0564 90.1264V90.1282L74.0528 90.1373L73.1537 92.1785L73.1501 92.1876C73.0538 92.4069 72.7959 92.5066 72.5762 92.4106C72.3546 92.3127 72.2547 92.0571 72.3509 91.8377Z" fill="url(#paint30_linear_95_25927)"/><path d="M75.1954 85.7175L76.2361 83.7215C76.3505 83.5022 76.6212 83.417 76.8391 83.5312C77.0589 83.6454 77.1442 83.9155 77.0298 84.133V84.1349L77.0244 84.1439L75.9891 86.1199L75.9836 86.129C75.8692 86.3465 75.6004 86.4299 75.3843 86.3157C75.1645 86.2015 75.081 85.9332 75.1954 85.7175Z" fill="url(#paint31_linear_95_25927)"/><path d="M78.4464 79.8021L79.6179 77.8805C79.7487 77.6648 80.0302 77.5977 80.2445 77.7282C80.4607 77.8587 80.5279 78.1397 80.3971 78.3537V78.3555L80.3916 78.3645L79.2256 80.2662L79.2201 80.2753C79.0894 80.4892 78.8097 80.5563 78.5972 80.4258C78.3847 80.2934 78.3156 80.016 78.4464 79.8021Z" fill="url(#paint32_linear_95_25927)"/><path d="M82.0889 74.117L83.3839 72.277C83.531 72.0667 83.8216 72.0159 84.0323 72.1646C84.243 72.3114 84.2939 72.6015 84.1449 72.8118V72.8136L84.1395 72.8227L82.8517 74.6428L82.8463 74.65C82.6992 74.8585 82.4104 74.9074 82.2015 74.7606C81.9908 74.6119 81.9418 74.3255 82.0889 74.117Z" fill="url(#paint33_linear_95_25927)"/><path d="M86.0927 68.6821L87.504 66.9291C87.6656 66.7279 87.9599 66.697 88.1615 66.8584C88.3631 67.0197 88.394 67.3134 88.2323 67.5146L88.2269 67.5219L86.8265 69.2586L86.8211 69.2659C86.6594 69.4671 86.3652 69.4979 86.1636 69.3366C85.9638 69.177 85.9311 68.8833 86.0927 68.6821Z" fill="url(#paint34_linear_95_25927)"/><path d="M90.4389 63.5137L91.9573 61.8513C92.1317 61.6591 92.4296 61.6464 92.6203 61.8205C92.8128 61.9945 92.8255 62.2918 92.6511 62.4822L92.6439 62.4894L91.1382 64.1355L91.1309 64.1427C90.9565 64.3331 90.6605 64.3476 90.468 64.1736C90.2772 64.0013 90.2645 63.7058 90.4389 63.5137Z" fill="url(#paint35_linear_95_25927)"/><path d="M95.0917 58.6226L96.7063 57.0545C96.8934 56.8732 97.1913 56.8768 97.3729 57.0635C97.5545 57.2503 97.5509 57.5476 97.3638 57.7288L97.3566 57.7361L95.7528 59.2897L95.7455 59.297C95.5584 59.4782 95.2606 59.4728 95.0789 59.2879C94.901 59.1012 94.9046 58.8039 95.0917 58.6226Z" fill="url(#paint36_linear_95_25927)"/><path d="M100.027 54.0179L101.731 52.5477C101.929 52.3773 102.229 52.3991 102.399 52.5967C102.57 52.7943 102.548 53.0934 102.35 53.2638L102.343 53.2692L100.652 54.7268L100.645 54.7322C100.447 54.9026 100.149 54.8809 99.9784 54.6833C99.8077 54.4857 99.8295 54.1883 100.027 54.0179Z" fill="url(#paint37_linear_95_25927)"/><path d="M105.226 49.7052L107.011 48.3347C107.22 48.1751 107.518 48.2132 107.677 48.4217C107.837 48.6301 107.799 48.9275 107.59 49.087L107.583 49.0924L105.81 50.4521L105.803 50.4575C105.594 50.617 105.296 50.5772 105.137 50.3705C104.979 50.162 105.017 49.8647 105.226 49.7052Z" fill="url(#paint38_linear_95_25927)"/><path d="M110.656 45.6951L112.514 44.4261C112.732 44.2775 113.03 44.3337 113.179 44.5494C113.328 44.7669 113.272 45.0624 113.054 45.2129L113.046 45.2183L111.201 46.4765L111.194 46.4819C110.976 46.6306 110.68 46.5744 110.531 46.3568C110.384 46.1393 110.438 45.842 110.656 45.6951Z" fill="url(#paint39_linear_95_25927)"/><path d="M116.298 41.9878L118.223 40.8222C118.45 40.6844 118.744 40.7569 118.882 40.9835C119.02 41.2101 118.948 41.5038 118.721 41.6416L118.713 41.6452L116.803 42.8018L116.795 42.8054C116.568 42.9414 116.274 42.8707 116.138 42.6441C116 42.4193 116.073 42.1256 116.298 41.9878Z" fill="url(#paint40_linear_95_25927)"/><path d="M122.136 38.5942L124.122 37.5318C124.356 37.4067 124.648 37.4938 124.774 37.7294C124.899 37.9633 124.812 38.2552 124.576 38.3802L124.568 38.3839L122.598 39.4353L122.591 39.439C122.356 39.564 122.066 39.4752 121.94 39.2414C121.815 39.0093 121.902 38.7174 122.136 38.5942Z" fill="url(#paint41_linear_95_25927)"/><path d="M128.148 35.5159L130.188 34.5624C130.429 34.45 130.718 34.5533 130.831 34.7944C130.943 35.0355 130.84 35.3238 130.598 35.4362L130.591 35.4398L128.568 36.3861L128.56 36.3897C128.319 36.5021 128.032 36.3988 127.919 36.1577C127.803 35.9148 127.906 35.6283 128.148 35.5159Z" fill="url(#paint42_linear_95_25927)"/><path d="M134.315 32.7622L136.402 31.9174C136.651 31.8177 136.934 31.9356 137.034 32.1839C137.134 32.4323 137.014 32.7151 136.767 32.8148L136.76 32.8184L134.688 33.656L134.68 33.6596C134.432 33.7593 134.15 33.6396 134.048 33.3931C133.947 33.1447 134.066 32.8619 134.315 32.7622Z" fill="url(#paint43_linear_95_25927)"/><path d="M140.617 30.3403L142.748 29.6079C143.002 29.5209 143.28 29.655 143.367 29.9088C143.454 30.1626 143.32 30.44 143.066 30.527L143.057 30.5306L140.942 31.2558L140.933 31.2594C140.679 31.3464 140.401 31.2122 140.314 30.9584C140.229 30.7028 140.363 30.4273 140.617 30.3403Z" fill="url(#paint44_linear_95_25927)"/><path d="M147.048 28.2609L149.214 27.6463C149.474 27.572 149.745 27.7225 149.819 27.9817C149.894 28.241 149.743 28.5111 149.483 28.5854L149.474 28.5872L147.324 29.1963L147.315 29.1981C147.055 29.2725 146.784 29.122 146.712 28.8628C146.637 28.6035 146.788 28.3334 147.048 28.2609Z" fill="url(#paint45_linear_95_25927)"/><path d="M153.578 26.5351L155.776 26.042C156.041 25.9821 156.305 26.1489 156.363 26.4136C156.423 26.6783 156.255 26.9411 155.99 26.9991L155.981 27.001L153.802 27.4886L153.793 27.4904C153.527 27.5503 153.266 27.3835 153.206 27.1206C153.148 26.8559 153.315 26.5949 153.578 26.5351Z" fill="url(#paint46_linear_95_25927)"/><path d="M160.197 25.1809L162.42 24.8147C162.689 24.7712 162.944 24.9524 162.987 25.2208C163.031 25.4891 162.849 25.7429 162.58 25.7864L162.571 25.7882L160.366 26.1507L160.357 26.1526C160.088 26.1961 159.836 26.0148 159.79 25.7465C159.747 25.4764 159.929 25.2244 160.197 25.1809Z" fill="url(#paint47_linear_95_25927)"/><path d="M166.887 24.2128L169.128 23.9808C169.4 23.9518 169.644 24.1494 169.671 24.4213C169.7 24.6932 169.502 24.9361 169.23 24.9633L169.219 24.9652L166.997 25.1936L166.987 25.1954C166.714 25.2226 166.473 25.0268 166.444 24.7549C166.418 24.4829 166.614 24.24 166.887 24.2128Z" fill="url(#paint48_linear_95_25927)"/><path d="M173.625 23.6544L175.877 23.5638C176.152 23.5529 176.384 23.765 176.395 24.0406C176.406 24.3143 176.192 24.5464 175.917 24.5572H175.906L173.676 24.6461H173.665C173.391 24.6569 173.16 24.4448 173.149 24.1711C173.137 23.8955 173.351 23.6653 173.625 23.6544Z" fill="url(#paint49_linear_95_25927)"/><path d="M180.387 23.533L182.641 23.5946C182.917 23.6019 183.133 23.8303 183.126 24.1058C183.118 24.3814 182.89 24.5971 182.614 24.5899H182.603L180.372 24.5282H180.361C180.085 24.521 179.869 24.2926 179.876 24.017C179.884 23.7415 180.112 23.5257 180.387 23.533Z" fill="url(#paint50_linear_95_25927)"/><path d="M187.143 23.8756L189.387 24.0986C189.664 24.1258 189.863 24.3705 189.836 24.6461C189.809 24.9216 189.564 25.121 189.288 25.0939L189.277 25.092L187.057 24.8691L187.044 24.8672C186.77 24.8401 186.569 24.5953 186.596 24.3198C186.623 24.0478 186.868 23.8484 187.143 23.8756Z" fill="url(#paint51_linear_95_25927)"/><path d="M193.856 24.6878L196.081 25.0504C196.355 25.0957 196.541 25.3531 196.497 25.6268C196.452 25.9006 196.194 26.0855 195.919 26.042L195.908 26.0402L193.705 25.6794L193.694 25.6776C193.42 25.6323 193.235 25.3748 193.28 25.1011C193.324 24.8274 193.582 24.6425 193.856 24.6878Z" fill="url(#paint52_linear_95_25927)"/><path d="M200.505 25.9151L202.703 26.4172C202.975 26.4789 203.144 26.7508 203.082 27.0209C203.02 27.2928 202.748 27.4614 202.477 27.3998L202.466 27.398L200.291 26.8995L200.28 26.8976C200.007 26.836 199.838 26.5659 199.902 26.294C199.962 26.022 200.232 25.8534 200.505 25.9151Z" fill="url(#paint53_linear_95_25927)"/><path d="M207.062 27.5666L209.222 28.212C209.491 28.2917 209.643 28.5745 209.563 28.8429C209.484 29.1112 209.2 29.2634 208.933 29.1837L208.922 29.18L206.785 28.5401L206.774 28.5365C206.505 28.4567 206.354 28.1739 206.434 27.9074C206.512 27.6373 206.794 27.4868 207.062 27.5666Z" fill="url(#paint54_linear_95_25927)"/><path d="M213.498 29.6423L215.61 30.4272C215.874 30.5251 216.008 30.817 215.91 31.0799C215.812 31.3427 215.519 31.4769 215.254 31.379L215.243 31.3754L213.153 30.5958L213.142 30.5922C212.879 30.4943 212.746 30.2025 212.844 29.9396C212.942 29.6767 213.235 29.5444 213.498 29.6423Z" fill="url(#paint55_linear_95_25927)"/><path d="M219.781 32.1368L221.837 33.0577C222.095 33.1737 222.209 33.4747 222.093 33.7321C221.977 33.9895 221.675 34.1037 221.418 33.9877L221.407 33.9841L219.371 33.0704L219.36 33.0668C219.102 32.9508 218.987 32.6498 219.104 32.3924C219.222 32.135 219.523 32.0208 219.781 32.1368Z" fill="url(#paint56_linear_95_25927)"/><path d="M225.888 35.0319L227.881 36.0834C228.131 36.2157 228.228 36.5257 228.095 36.7759C227.962 37.0261 227.652 37.1222 227.401 36.9898L227.392 36.9844L225.418 35.942L225.409 35.9366C225.158 35.8042 225.064 35.4942 225.196 35.2459C225.327 34.9957 225.638 34.8996 225.888 35.0319Z" fill="url(#paint57_linear_95_25927)"/><path d="M231.801 38.3077L233.726 39.4789C233.969 39.6257 234.045 39.9429 233.897 40.1859C233.749 40.4288 233.432 40.5049 233.188 40.3581L233.179 40.3526L231.272 39.1906L231.263 39.1852C231.021 39.0383 230.943 38.7211 231.092 38.48C231.243 38.237 231.559 38.1591 231.801 38.3077Z" fill="url(#paint58_linear_95_25927)"/><path d="M237.503 41.9316L239.355 43.2115C239.589 43.3729 239.649 43.6955 239.486 43.9294C239.324 44.1633 239.001 44.2231 238.767 44.0599L238.759 44.0545L236.923 42.7855L236.916 42.7801C236.682 42.6187 236.623 42.2978 236.785 42.064C236.947 41.8283 237.268 41.7685 237.503 41.9316Z" fill="url(#paint59_linear_95_25927)"/><path d="M242.989 45.8673L244.771 47.2433C244.998 47.4191 245.04 47.7436 244.864 47.9702C244.688 48.1969 244.363 48.2386 244.136 48.0627L244.128 48.0573L242.361 46.6904L242.354 46.6849C242.127 46.5109 242.087 46.1846 242.261 45.9598C242.437 45.735 242.762 45.6933 242.989 45.8673Z" fill="url(#paint60_linear_95_25927)"/><path d="M248.262 50.0822L249.973 51.5416C250.191 51.7283 250.218 52.0564 250.031 52.274C249.844 52.4915 249.515 52.5187 249.297 52.332L249.292 52.3265L247.594 50.8763L247.588 50.8708C247.37 50.6841 247.345 50.356 247.532 50.1384C247.717 49.9209 248.044 49.8955 248.262 50.0822Z" fill="url(#paint61_linear_95_25927)"/><path d="M253.331 54.5364L254.977 56.0683C255.188 56.2641 255.2 56.594 255.002 56.8061C254.806 57.0164 254.476 57.0291 254.263 56.8315L254.258 56.826L252.623 55.3033L252.618 55.2978C252.407 55.102 252.396 54.7721 252.592 54.5618C252.79 54.3515 253.121 54.3406 253.331 54.5364Z" fill="url(#paint62_linear_95_25927)"/><path d="M258.208 59.1954L259.793 60.7871C259.997 60.992 259.997 61.3237 259.791 61.5268C259.586 61.7298 259.254 61.7298 259.048 61.525L259.045 61.5213L257.468 59.9369L257.465 59.9333C257.261 59.7284 257.261 59.3967 257.466 59.1936C257.672 58.9888 258.002 58.9906 258.208 59.1954Z" fill="url(#paint63_linear_95_25927)"/><path d="M262.91 64.0249L264.443 65.6673C264.641 65.8794 264.63 66.213 264.418 66.4106C264.205 66.6082 263.871 66.5973 263.673 66.3852L263.67 66.3816L262.144 64.7464L262.14 64.7428C261.942 64.5307 261.955 64.1989 262.168 64.0013C262.38 63.8019 262.712 63.8128 262.91 64.0249Z" fill="url(#paint64_linear_95_25927)"/><path d="M267.461 68.9939L268.949 70.6762C269.141 70.8938 269.121 71.2273 268.902 71.4213C268.684 71.6135 268.349 71.5935 268.155 71.3742L268.152 71.3706L266.669 69.6937L266.666 69.69C266.473 69.4725 266.493 69.1389 266.713 68.9468C266.935 68.7546 267.269 68.7745 267.461 68.9939Z" fill="url(#paint65_linear_95_25927)"/><path d="M271.886 74.0699L273.337 75.7812C273.526 76.0042 273.499 76.3378 273.275 76.5281C273.052 76.7167 272.718 76.6895 272.527 76.4665L272.525 76.4647L271.078 74.757L271.076 74.7552C270.887 74.5322 270.914 74.1986 271.138 74.0101C271.363 73.8197 271.697 73.8469 271.886 74.0699Z" fill="url(#paint66_linear_95_25927)"/><path d="M276.215 79.2257L277.641 80.9569C277.828 81.1835 277.795 81.5189 277.568 81.7057C277.341 81.8924 277.005 81.8598 276.818 81.6331L276.816 81.6313L275.394 79.9019L275.392 79.9001C275.205 79.6735 275.24 79.3399 275.465 79.1532C275.694 78.9664 276.028 78.9991 276.215 79.2257Z" fill="url(#paint67_linear_95_25927)"/><path d="M280.474 84.4322L281.885 86.1744C282.071 86.4028 282.036 86.74 281.806 86.9249C281.577 87.1098 281.239 87.0753 281.054 86.8451L279.644 85.1048C279.459 84.8763 279.493 84.541 279.722 84.3561C279.951 84.1712 280.289 84.2038 280.474 84.4322Z" fill="url(#paint68_linear_95_25927)"/><path d="M284.703 89.6605L286.112 91.4026C286.3 91.6328 286.263 91.97 286.033 92.1549C285.802 92.3399 285.464 92.3054 285.279 92.0752L283.869 90.333C283.684 90.1028 283.72 89.7674 283.949 89.5807C284.18 89.394 284.518 89.4302 284.703 89.6605Z" fill="url(#paint69_linear_95_25927)"/><path d="M288.941 94.8742L290.363 96.6037L290.365 96.6055C290.554 96.8339 290.521 97.1729 290.29 97.3615C290.062 97.55 289.722 97.5174 289.533 97.2871L288.109 95.554C287.92 95.3256 287.955 94.9866 288.184 94.7981C288.414 94.6096 288.752 94.644 288.941 94.8742Z" fill="url(#paint70_linear_95_25927)"/><path d="M293.235 100.035L294.688 101.736L294.692 101.739C294.886 101.966 294.859 102.307 294.632 102.499C294.405 102.693 294.063 102.666 293.871 102.439L292.414 100.732C292.222 100.505 292.249 100.166 292.476 99.972C292.703 99.7798 293.042 99.807 293.237 100.034L293.235 100.035Z" fill="url(#paint71_linear_95_25927)"/><path d="M297.639 105.095L299.143 106.747L299.148 106.752C299.35 106.973 299.333 107.316 299.112 107.517C298.89 107.718 298.547 107.702 298.345 107.481L296.832 105.817C296.631 105.595 296.649 105.255 296.871 105.053C297.092 104.852 297.434 104.87 297.635 105.09L297.639 105.095Z" fill="url(#paint72_linear_95_25927)"/><path d="M302.221 109.983L303.806 111.565C304.019 111.777 304.019 112.122 303.806 112.334C303.594 112.546 303.249 112.546 303.036 112.334L301.443 110.742C301.231 110.53 301.231 110.187 301.443 109.975C301.656 109.763 301.999 109.763 302.212 109.975L302.221 109.983Z" fill="url(#paint73_linear_95_25927)"/><path d="M307.056 114.602L308.74 116.057L308.753 116.068C308.981 116.266 309.005 116.61 308.807 116.837C308.609 117.064 308.266 117.089 308.037 116.891L306.33 115.414C306.103 115.216 306.077 114.874 306.275 114.647C306.473 114.42 306.816 114.395 307.043 114.593L307.056 114.602Z" fill="url(#paint74_linear_95_25927)"/><path d="M312.237 118.804L314.055 120.078L314.073 120.091C314.32 120.265 314.38 120.606 314.208 120.852C314.033 121.099 313.692 121.159 313.445 120.987L311.59 119.687C311.343 119.513 311.283 119.172 311.458 118.925C311.632 118.679 311.974 118.619 312.221 118.793L312.237 118.804Z" fill="url(#paint75_linear_95_25927)"/><path d="M317.845 122.375C318.493 122.727 319.153 123.06 319.819 123.376C320.094 123.506 320.212 123.833 320.081 124.106C319.95 124.38 319.623 124.498 319.349 124.368C318.664 124.043 317.988 123.699 317.322 123.338C317.055 123.193 316.957 122.861 317.102 122.595C317.246 122.33 317.578 122.23 317.845 122.375Z" fill="url(#paint76_linear_95_25927)"/><path d="M323.916 125.02C324.615 125.25 325.32 125.459 326.032 125.642C326.326 125.718 326.504 126.017 326.428 126.313C326.352 126.606 326.052 126.784 325.756 126.708C325.02 126.518 324.29 126.304 323.569 126.064C323.28 125.968 323.124 125.658 323.218 125.368C323.315 125.082 323.627 124.926 323.916 125.02Z" fill="url(#paint77_linear_95_25927)"/><path d="M330.362 126.436C331.093 126.518 331.825 126.572 332.56 126.599C332.865 126.612 333.103 126.867 333.092 127.172C333.081 127.477 332.824 127.714 332.518 127.703C331.757 127.674 330.998 127.616 330.243 127.533C329.939 127.498 329.72 127.226 329.754 126.924C329.787 126.621 330.059 126.403 330.362 126.436Z" fill="url(#paint78_linear_95_25927)"/><path d="M336.875 126.296C337.575 126.137 338.263 125.921 338.93 125.653C339.215 125.539 339.538 125.676 339.653 125.961C339.767 126.246 339.629 126.568 339.344 126.683C338.625 126.971 337.88 127.205 337.121 127.377C336.821 127.444 336.525 127.257 336.456 126.96C336.391 126.661 336.578 126.365 336.875 126.296Z" fill="url(#paint79_linear_95_25927)"/><path d="M342.666 123.488C343.239 123.044 343.785 122.566 344.303 122.056C344.523 121.84 344.875 121.842 345.091 122.062C345.307 122.281 345.306 122.633 345.086 122.848C344.537 123.387 343.96 123.896 343.349 124.368C343.106 124.556 342.755 124.511 342.568 124.268C342.379 124.025 342.423 123.677 342.666 123.488Z" fill="url(#paint80_linear_95_25927)"/><path d="M347.063 118.682C347.464 118.075 347.835 117.446 348.176 116.803C348.32 116.531 348.659 116.425 348.932 116.569C349.206 116.712 349.309 117.051 349.166 117.323C348.808 117.999 348.418 118.657 347.996 119.295C347.826 119.553 347.48 119.623 347.223 119.455C346.965 119.286 346.892 118.94 347.063 118.682Z" fill="url(#paint81_linear_95_25927)"/><path d="M349.841 112.765C350.055 112.069 350.235 111.362 350.378 110.65C350.438 110.351 350.729 110.157 351.029 110.218C351.327 110.278 351.521 110.566 351.463 110.864C351.317 111.616 351.132 112.359 350.911 113.092C350.822 113.387 350.509 113.554 350.213 113.465C349.917 113.376 349.75 113.064 349.839 112.769L349.841 112.765Z" fill="url(#paint82_linear_95_25927)"/><path d="M350.764 106.312C350.757 105.577 350.722 104.843 350.671 104.107C350.651 103.815 350.871 103.561 351.163 103.541C351.456 103.522 351.708 103.739 351.73 104.031C351.788 104.783 351.826 105.539 351.841 106.299C351.846 106.596 351.608 106.841 351.312 106.844C351.015 106.85 350.769 106.612 350.766 106.317V106.312H350.764Z" fill="url(#paint83_linear_95_25927)"/><path d="M350.176 99.6964L349.819 97.5011L349.817 97.4866C349.771 97.2092 349.96 96.9482 350.238 96.9028C350.514 96.8575 350.776 97.0442 350.823 97.3198L351.201 99.5424C351.248 99.8233 351.059 100.09 350.778 100.137C350.496 100.184 350.229 99.9956 350.182 99.7146V99.7109L350.176 99.6964Z" fill="url(#paint84_linear_95_25927)"/><path d="M348.944 93.1357L348.44 90.9639L348.439 90.9548C348.381 90.7047 348.537 90.4563 348.786 90.3983C349.033 90.3421 349.28 90.4926 349.341 90.7373L349.89 92.92C349.955 93.1792 349.797 93.4421 349.538 93.5073C349.278 93.5726 349.014 93.4149 348.949 93.1556C348.949 93.1538 348.947 93.152 348.947 93.1502L348.944 93.1357Z" fill="url(#paint85_linear_95_25927)"/><path d="M347.294 86.6529L346.651 84.5174L346.649 84.5083C346.585 84.2944 346.705 84.0714 346.919 84.0061C347.13 83.9427 347.354 84.0605 347.421 84.269L348.107 86.41C348.178 86.633 348.056 86.8705 347.833 86.9412C347.61 87.0119 347.372 86.8904 347.299 86.6674C347.299 86.6656 347.297 86.6638 347.297 86.662L347.294 86.6529Z" fill="url(#paint86_linear_95_25927)"/><path d="M345.223 80.2916L344.426 78.2105L344.422 78.1996C344.359 78.0346 344.442 77.8497 344.608 77.7863C344.769 77.7246 344.951 77.8026 345.018 77.9621L345.884 80.0396C345.959 80.2191 345.874 80.4258 345.694 80.5001C345.514 80.5744 345.307 80.4892 345.232 80.3098C345.231 80.308 345.231 80.3043 345.229 80.3025L345.223 80.2916Z" fill="url(#paint87_linear_95_25927)"/><path d="M342.578 74.1624C342.235 73.5061 341.871 72.8607 341.47 72.2408C341.406 72.1447 341.434 72.0141 341.532 71.9507C341.626 71.8891 341.753 71.9144 341.817 72.0051C342.253 72.6233 342.649 73.265 343.023 73.9194C343.092 74.0409 343.05 74.195 342.928 74.2639C342.807 74.3328 342.652 74.2911 342.583 74.1696C342.58 74.1678 342.578 74.1642 342.578 74.1624Z" fill="url(#paint88_linear_95_25927)"/><path d="M32.6338 118.052L35.2583 123.245L37.654 119.239L32.6338 118.052Z" fill="#39B4EF"/><path d="M54.5277 103.289L46.6923 122.667C46.5415 123.039 46.2473 123.332 45.8749 123.481C45.5026 123.63 45.0867 123.622 44.7198 123.459L25.5235 114.875C25.3038 114.778 25.1657 114.556 25.1748 114.315C25.1839 114.074 25.3383 113.864 25.5635 113.782L54.5277 103.289Z" fill="#7FD4FD"/><path d="M32.6361 118.052L54.5277 103.289L35.731 119.446L36.3976 120.918L32.6361 118.052Z" fill="#39B4EF"/><path d="M37.5702 120.26L35.2583 123.245L35.731 119.446L37.5702 120.26Z" fill="#39B4EF"/><path d="M340.419 60.323L336.043 66.891L333.468 61.1098L340.419 60.323Z" fill="#39B4EF"/><path d="M313.345 36.9137L320.748 64.2642C320.89 64.7881 321.239 65.2322 321.715 65.4933C322.19 65.7543 322.754 65.8105 323.271 65.651L350.505 57.1977C350.817 57.1016 351.038 56.8242 351.066 56.4997C351.093 56.1752 350.92 55.867 350.628 55.7184L313.345 36.9137Z" fill="#7FD4FD"/><path d="M340.417 60.323L313.345 36.9137L336.025 61.7008L334.89 63.5735L340.417 60.323Z" fill="#39B4EF"/><path d="M333.417 62.4985L336.043 66.891L336.025 61.7008L333.417 62.4985Z" fill="#39B4EF"/><path d="M259.349 83.7783C259.349 110.983 237.295 133.037 210.09 133.037C182.886 133.037 160.832 110.983 160.832 83.7783C160.832 56.5735 182.886 34.5197 210.09 34.5197C237.295 34.5197 259.349 56.5735 259.349 83.7783Z" fill="white"/><path d="M232.749 76.1662C232.749 63.117 223.943 55.2083 211.575 55.2083C197.227 55.2083 187.431 67.5656 187.431 84.7669C187.431 101.177 196.93 112.348 211.871 112.348C225.13 112.348 229.88 106.219 229.88 99.4967V94.5538H229.385C226.911 97.0253 222.855 98.8047 215.137 98.8047C208.705 98.8047 203.956 95.6413 203.956 89.9075H210.09C225.229 89.9075 232.749 87.2383 232.749 76.1662ZM217.511 74.6833C217.511 77.3525 215.928 78.9343 208.111 78.9343H203.56C203.758 72.5085 206.825 68.3564 211.08 68.3564C215.433 68.3564 217.511 70.5313 217.511 74.6833Z" fill="#39B4EF"/></g><defs><linearGradient id="paint0_linear_95_25927" x1="511.652" y1="46.4727" x2="400.423" y2="236.14" gradientUnits="userSpaceOnUse"><stop stop-color="#DAE3FE"/><stop offset="1" stop-color="#E9EFFD"/></linearGradient><linearGradient id="paint1_linear_95_25927" x1="431.127" y1="-10.2229" x2="211.417" y2="116.861" gradientUnits="userSpaceOnUse"><stop stop-color="#DAE3FE"/><stop offset="1" stop-color="#E9EFFD"/></linearGradient><linearGradient id="paint2_linear_95_25927" x1="-57.0535" y1="235.776" x2="-5.84817" y2="64.8227" gradientUnits="userSpaceOnUse"><stop stop-color="#DAE3FE"/><stop offset="1" stop-color="#E9EFFD"/></linearGradient><linearGradient id="paint3_linear_95_25927" x1="0.508" y1="126.08" x2="384.978" y2="126.08" gradientUnits="userSpaceOnUse"><stop stop-color="#DAE3FE"/><stop offset="1" stop-color="#E9EFFD"/></linearGradient><linearGradient id="paint4_linear_95_25927" x1="0.519278" y1="126.083" x2="385.001" y2="126.083" gradientUnits="userSpaceOnUse"><stop stop-color="#FF928E"/><stop offset="1" stop-color="#FEB3B1"/></linearGradient><linearGradient id="paint5_linear_95_25927" x1="505.866" y1="-17.752" x2="-1.72407" y2="230.074" gradientUnits="userSpaceOnUse"><stop stop-color="#FF928E"/><stop offset="1" stop-color="#FEB3B1"/></linearGradient><linearGradient id="paint6_linear_95_25927" x1="388.88" y1="-296.212" x2="23.3728" y2="-81.7998" gradientUnits="userSpaceOnUse"><stop stop-color="#FF928E"/><stop offset="1" stop-color="#FEB3B1"/></linearGradient><linearGradient id="paint7_linear_95_25927" x1="269.567" y1="5.42466" x2="-723.105" y2="253.999" gradientUnits="userSpaceOnUse"><stop stop-color="#FF928E"/><stop offset="1" stop-color="#FEB3B1"/></linearGradient><linearGradient id="paint8_linear_95_25927" x1="341.487" y1="18.7564" x2="235.298" y2="324.478" gradientUnits="userSpaceOnUse"><stop stop-color="#FF928E"/><stop offset="1" stop-color="#FEB3B1"/></linearGradient><linearGradient id="paint9_linear_95_25927" x1="527.666" y1="-290.391" x2="250.308" y2="-128.641" gradientUnits="userSpaceOnUse"><stop stop-color="#FF928E"/><stop offset="1" stop-color="#FEB3B1"/></linearGradient><linearGradient id="paint10_linear_95_25927" x1="652.375" y1="1.7826" x2="490.786" y2="149.52" gradientUnits="userSpaceOnUse"><stop stop-color="#FF928E"/><stop offset="1" stop-color="#FEB3B1"/></linearGradient><linearGradient id="paint11_linear_95_25927" x1="2514.65" y1="-437.888" x2="1990.09" y2="163.418" gradientUnits="userSpaceOnUse"><stop stop-color="#FF928E"/><stop offset="1" stop-color="#FEB3B1"/></linearGradient><linearGradient id="paint12_linear_95_25927" x1="0.490603" y1="126.092" x2="384.991" y2="126.092" gradientUnits="userSpaceOnUse"><stop stop-color="#FF928E"/><stop offset="1" stop-color="#FEB3B1"/></linearGradient><linearGradient id="paint13_linear_95_25927" x1="226.82" y1="209.678" x2="150.271" y2="-66.8048" gradientUnits="userSpaceOnUse"><stop stop-color="#FF928E"/><stop offset="1" stop-color="#FEB3B1"/></linearGradient><linearGradient id="paint14_linear_95_25927" x1="278.778" y1="37.7441" x2="171.136" y2="402.635" gradientUnits="userSpaceOnUse"><stop stop-color="#FF928E"/><stop offset="1" stop-color="#FEB3B1"/></linearGradient><linearGradient id="paint15_linear_95_25927" x1="221.247" y1="43.5409" x2="180.621" y2="448.673" gradientUnits="userSpaceOnUse"><stop stop-color="#FF928E"/><stop offset="1" stop-color="#FEB3B1"/></linearGradient><linearGradient id="paint16_linear_95_25927" x1="136.986" y1="1035.88" x2="164.404" y2="107.277" gradientUnits="userSpaceOnUse"><stop stop-color="#FF928E"/><stop offset="1" stop-color="#FEB3B1"/></linearGradient><linearGradient id="paint17_linear_95_25927" x1="0.14472" y1="126.151" x2="384.81" y2="126.151" gradientUnits="userSpaceOnUse"><stop stop-color="#DAE3FE"/><stop offset="1" stop-color="#E9EFFD"/></linearGradient><linearGradient id="paint18_linear_95_25927" x1="0.0480257" y1="126.031" x2="384.443" y2="126.031" gradientUnits="userSpaceOnUse"><stop stop-color="#DAE3FE"/><stop offset="1" stop-color="#E9EFFD"/></linearGradient><linearGradient id="paint19_linear_95_25927" x1="0.640648" y1="126.03" x2="385.284" y2="126.03" gradientUnits="userSpaceOnUse"><stop stop-color="#DAE3FE"/><stop offset="1" stop-color="#E9EFFD"/></linearGradient><linearGradient id="paint20_linear_95_25927" x1="0.597858" y1="126.193" x2="385.29" y2="126.193" gradientUnits="userSpaceOnUse"><stop stop-color="#DAE3FE"/><stop offset="1" stop-color="#E9EFFD"/></linearGradient><linearGradient id="paint21_linear_95_25927" x1="0.947509" y1="126.246" x2="384.654" y2="126.246" gradientUnits="userSpaceOnUse"><stop stop-color="#DAE3FE"/><stop offset="1" stop-color="#E9EFFD"/></linearGradient><linearGradient id="paint22_linear_95_25927" x1="0.708533" y1="126.082" x2="385.311" y2="126.082" gradientUnits="userSpaceOnUse"><stop stop-color="#DAE3FE"/><stop offset="1" stop-color="#E9EFFD"/></linearGradient><linearGradient id="paint23_linear_95_25927" x1="0.518406" y1="126.066" x2="385.706" y2="126.066" gradientUnits="userSpaceOnUse"><stop stop-color="#DAE3FE"/><stop offset="1" stop-color="#E9EFFD"/></linearGradient><linearGradient id="paint24_linear_95_25927" x1="0.636213" y1="126.106" x2="385.564" y2="126.106" gradientUnits="userSpaceOnUse"><stop stop-color="#DAE3FE"/><stop offset="1" stop-color="#E9EFFD"/></linearGradient><linearGradient id="paint25_linear_95_25927" x1="0.668128" y1="126.028" x2="385.374" y2="126.028" gradientUnits="userSpaceOnUse"><stop stop-color="#DAE3FE"/><stop offset="1" stop-color="#E9EFFD"/></linearGradient><linearGradient id="paint26_linear_95_25927" x1="0.48747" y1="126.08" x2="385.472" y2="126.08" gradientUnits="userSpaceOnUse"><stop stop-color="#DAE3FE"/><stop offset="1" stop-color="#E9EFFD"/></linearGradient><linearGradient id="paint27_linear_95_25927" x1="0.47977" y1="126.011" x2="384.887" y2="126.011" gradientUnits="userSpaceOnUse"><stop stop-color="#DAE3FE"/><stop offset="1" stop-color="#E9EFFD"/></linearGradient><linearGradient id="paint28_linear_95_25927" x1="0.531251" y1="126.162" x2="384.94" y2="126.162" gradientUnits="userSpaceOnUse"><stop stop-color="#DAE3FE"/><stop offset="1" stop-color="#E9EFFD"/></linearGradient><linearGradient id="paint29_linear_95_25927" x1="0.572667" y1="126.124" x2="385.33" y2="126.124" gradientUnits="userSpaceOnUse"><stop stop-color="#DAE3FE"/><stop offset="1" stop-color="#E9EFFD"/></linearGradient><linearGradient id="paint30_linear_95_25927" x1="0.570393" y1="126.038" x2="385.122" y2="126.038" gradientUnits="userSpaceOnUse"><stop stop-color="#DAE3FE"/><stop offset="1" stop-color="#E9EFFD"/></linearGradient><linearGradient id="paint31_linear_95_25927" x1="0.44698" y1="126.008" x2="384.686" y2="126.008" gradientUnits="userSpaceOnUse"><stop stop-color="#DAE3FE"/><stop offset="1" stop-color="#E9EFFD"/></linearGradient><linearGradient id="paint32_linear_95_25927" x1="0.603344" y1="126.004" x2="385.245" y2="126.004" gradientUnits="userSpaceOnUse"><stop stop-color="#DAE3FE"/><stop offset="1" stop-color="#E9EFFD"/></linearGradient><linearGradient id="paint33_linear_95_25927" x1="0.450589" y1="126" x2="384.865" y2="126" gradientUnits="userSpaceOnUse"><stop stop-color="#DAE3FE"/><stop offset="1" stop-color="#E9EFFD"/></linearGradient><linearGradient id="paint34_linear_95_25927" x1="0.558463" y1="126.175" x2="385.269" y2="126.175" gradientUnits="userSpaceOnUse"><stop stop-color="#DAE3FE"/><stop offset="1" stop-color="#E9EFFD"/></linearGradient><linearGradient id="paint35_linear_95_25927" x1="0.553734" y1="126.312" x2="384.974" y2="126.312" gradientUnits="userSpaceOnUse"><stop stop-color="#DAE3FE"/><stop offset="1" stop-color="#E9EFFD"/></linearGradient><linearGradient id="paint36_linear_95_25927" x1="0.598646" y1="126.182" x2="385.111" y2="126.182" gradientUnits="userSpaceOnUse"><stop stop-color="#DAE3FE"/><stop offset="1" stop-color="#E9EFFD"/></linearGradient><linearGradient id="paint37_linear_95_25927" x1="0.593796" y1="126.049" x2="385.109" y2="126.049" gradientUnits="userSpaceOnUse"><stop stop-color="#DAE3FE"/><stop offset="1" stop-color="#E9EFFD"/></linearGradient><linearGradient id="paint38_linear_95_25927" x1="0.544838" y1="126.128" x2="384.955" y2="126.128" gradientUnits="userSpaceOnUse"><stop stop-color="#DAE3FE"/><stop offset="1" stop-color="#E9EFFD"/></linearGradient><linearGradient id="paint39_linear_95_25927" x1="0.487436" y1="125.897" x2="384.948" y2="125.897" gradientUnits="userSpaceOnUse"><stop stop-color="#DAE3FE"/><stop offset="1" stop-color="#E9EFFD"/></linearGradient><linearGradient id="paint40_linear_95_25927" x1="0.52566" y1="126.106" x2="384.981" y2="126.106" gradientUnits="userSpaceOnUse"><stop stop-color="#DAE3FE"/><stop offset="1" stop-color="#E9EFFD"/></linearGradient><linearGradient id="paint41_linear_95_25927" x1="0.491567" y1="126.135" x2="385.014" y2="126.135" gradientUnits="userSpaceOnUse"><stop stop-color="#DAE3FE"/><stop offset="1" stop-color="#E9EFFD"/></linearGradient><linearGradient id="paint42_linear_95_25927" x1="0.265885" y1="125.891" x2="384.91" y2="125.891" gradientUnits="userSpaceOnUse"><stop stop-color="#DAE3FE"/><stop offset="1" stop-color="#E9EFFD"/></linearGradient><linearGradient id="paint43_linear_95_25927" x1="0.515669" y1="125.994" x2="385.076" y2="125.994" gradientUnits="userSpaceOnUse"><stop stop-color="#DAE3FE"/><stop offset="1" stop-color="#E9EFFD"/></linearGradient><linearGradient id="paint44_linear_95_25927" x1="0.616732" y1="126.056" x2="384.992" y2="126.056" gradientUnits="userSpaceOnUse"><stop stop-color="#DAE3FE"/><stop offset="1" stop-color="#E9EFFD"/></linearGradient><linearGradient id="paint45_linear_95_25927" x1="0.440503" y1="126.059" x2="384.869" y2="126.059" gradientUnits="userSpaceOnUse"><stop stop-color="#DAE3FE"/><stop offset="1" stop-color="#E9EFFD"/></linearGradient><linearGradient id="paint46_linear_95_25927" x1="0.651674" y1="126.127" x2="385.138" y2="126.127" gradientUnits="userSpaceOnUse"><stop stop-color="#DAE3FE"/><stop offset="1" stop-color="#E9EFFD"/></linearGradient><linearGradient id="paint47_linear_95_25927" x1="0.626608" y1="125.794" x2="385.102" y2="125.794" gradientUnits="userSpaceOnUse"><stop stop-color="#DAE3FE"/><stop offset="1" stop-color="#E9EFFD"/></linearGradient><linearGradient id="paint48_linear_95_25927" x1="0.723937" y1="126.006" x2="385.124" y2="126.006" gradientUnits="userSpaceOnUse"><stop stop-color="#DAE3FE"/><stop offset="1" stop-color="#E9EFFD"/></linearGradient><linearGradient id="paint49_linear_95_25927" x1="0.37576" y1="126.12" x2="384.85" y2="126.12" gradientUnits="userSpaceOnUse"><stop stop-color="#DAE3FE"/><stop offset="1" stop-color="#E9EFFD"/></linearGradient><linearGradient id="paint50_linear_95_25927" x1="0.391334" y1="126.095" x2="385.169" y2="126.095" gradientUnits="userSpaceOnUse"><stop stop-color="#DAE3FE"/><stop offset="1" stop-color="#E9EFFD"/></linearGradient><linearGradient id="paint51_linear_95_25927" x1="0.427765" y1="126.176" x2="385.048" y2="126.176" gradientUnits="userSpaceOnUse"><stop stop-color="#DAE3FE"/><stop offset="1" stop-color="#E9EFFD"/></linearGradient><linearGradient id="paint52_linear_95_25927" x1="0.429743" y1="126.119" x2="384.958" y2="126.119" gradientUnits="userSpaceOnUse"><stop stop-color="#DAE3FE"/><stop offset="1" stop-color="#E9EFFD"/></linearGradient><linearGradient id="paint53_linear_95_25927" x1="0.327129" y1="126.268" x2="384.878" y2="126.268" gradientUnits="userSpaceOnUse"><stop stop-color="#DAE3FE"/><stop offset="1" stop-color="#E9EFFD"/></linearGradient><linearGradient id="paint54_linear_95_25927" x1="0.236537" y1="125.858" x2="384.913" y2="125.858" gradientUnits="userSpaceOnUse"><stop stop-color="#DAE3FE"/><stop offset="1" stop-color="#E9EFFD"/></linearGradient><linearGradient id="paint55_linear_95_25927" x1="0.496487" y1="126.117" x2="384.985" y2="126.117" gradientUnits="userSpaceOnUse"><stop stop-color="#DAE3FE"/><stop offset="1" stop-color="#E9EFFD"/></linearGradient><linearGradient id="paint56_linear_95_25927" x1="0.885829" y1="126.07" x2="385.055" y2="126.07" gradientUnits="userSpaceOnUse"><stop stop-color="#DAE3FE"/><stop offset="1" stop-color="#E9EFFD"/></linearGradient><linearGradient id="paint57_linear_95_25927" x1="0.461103" y1="126.073" x2="384.934" y2="126.073" gradientUnits="userSpaceOnUse"><stop stop-color="#DAE3FE"/><stop offset="1" stop-color="#E9EFFD"/></linearGradient><linearGradient id="paint58_linear_95_25927" x1="0.87228" y1="126.019" x2="384.987" y2="126.019" gradientUnits="userSpaceOnUse"><stop stop-color="#DAE3FE"/><stop offset="1" stop-color="#E9EFFD"/></linearGradient><linearGradient id="paint59_linear_95_25927" x1="0.341122" y1="125.995" x2="384.972" y2="125.995" gradientUnits="userSpaceOnUse"><stop stop-color="#DAE3FE"/><stop offset="1" stop-color="#E9EFFD"/></linearGradient><linearGradient id="paint60_linear_95_25927" x1="0.668078" y1="126.067" x2="384.833" y2="126.067" gradientUnits="userSpaceOnUse"><stop stop-color="#DAE3FE"/><stop offset="1" stop-color="#E9EFFD"/></linearGradient><linearGradient id="paint61_linear_95_25927" x1="0.239795" y1="126.144" x2="385.139" y2="126.144" gradientUnits="userSpaceOnUse"><stop stop-color="#DAE3FE"/><stop offset="1" stop-color="#E9EFFD"/></linearGradient><linearGradient id="paint62_linear_95_25927" x1="0.639462" y1="126.074" x2="384.969" y2="126.074" gradientUnits="userSpaceOnUse"><stop stop-color="#DAE3FE"/><stop offset="1" stop-color="#E9EFFD"/></linearGradient><linearGradient id="paint63_linear_95_25927" x1="0.36339" y1="126.197" x2="384.962" y2="126.197" gradientUnits="userSpaceOnUse"><stop stop-color="#DAE3FE"/><stop offset="1" stop-color="#E9EFFD"/></linearGradient><linearGradient id="paint64_linear_95_25927" x1="0.516102" y1="126.026" x2="384.929" y2="126.026" gradientUnits="userSpaceOnUse"><stop stop-color="#DAE3FE"/><stop offset="1" stop-color="#E9EFFD"/></linearGradient><linearGradient id="paint65_linear_95_25927" x1="1.09448" y1="126.022" x2="385.04" y2="126.022" gradientUnits="userSpaceOnUse"><stop stop-color="#DAE3FE"/><stop offset="1" stop-color="#E9EFFD"/></linearGradient><linearGradient id="paint66_linear_95_25927" x1="0.820475" y1="126.036" x2="385.167" y2="126.036" gradientUnits="userSpaceOnUse"><stop stop-color="#DAE3FE"/><stop offset="1" stop-color="#E9EFFD"/></linearGradient><linearGradient id="paint67_linear_95_25927" x1="0.60257" y1="126.071" x2="384.87" y2="126.071" gradientUnits="userSpaceOnUse"><stop stop-color="#DAE3FE"/><stop offset="1" stop-color="#E9EFFD"/></linearGradient><linearGradient id="paint68_linear_95_25927" x1="0.720801" y1="125.998" x2="385.118" y2="125.998" gradientUnits="userSpaceOnUse"><stop stop-color="#DAE3FE"/><stop offset="1" stop-color="#E9EFFD"/></linearGradient><linearGradient id="paint69_linear_95_25927" x1="0.420207" y1="126.04" x2="384.986" y2="126.04" gradientUnits="userSpaceOnUse"><stop stop-color="#DAE3FE"/><stop offset="1" stop-color="#E9EFFD"/></linearGradient><linearGradient id="paint70_linear_95_25927" x1="0.547742" y1="126.013" x2="385.045" y2="126.013" gradientUnits="userSpaceOnUse"><stop stop-color="#DAE3FE"/><stop offset="1" stop-color="#E9EFFD"/></linearGradient><linearGradient id="paint71_linear_95_25927" x1="0.0417732" y1="126.062" x2="384.814" y2="126.062" gradientUnits="userSpaceOnUse"><stop stop-color="#DAE3FE"/><stop offset="1" stop-color="#E9EFFD"/></linearGradient><linearGradient id="paint72_linear_95_25927" x1="0.516238" y1="126.042" x2="384.82" y2="126.042" gradientUnits="userSpaceOnUse"><stop stop-color="#DAE3FE"/><stop offset="1" stop-color="#E9EFFD"/></linearGradient><linearGradient id="paint73_linear_95_25927" x1="0.799454" y1="126.116" x2="385.19" y2="126.116" gradientUnits="userSpaceOnUse"><stop stop-color="#DAE3FE"/><stop offset="1" stop-color="#E9EFFD"/></linearGradient><linearGradient id="paint74_linear_95_25927" x1="0.491449" y1="126.046" x2="384.764" y2="126.046" gradientUnits="userSpaceOnUse"><stop stop-color="#DAE3FE"/><stop offset="1" stop-color="#E9EFFD"/></linearGradient><linearGradient id="paint75_linear_95_25927" x1="0.399425" y1="126.059" x2="384.993" y2="126.059" gradientUnits="userSpaceOnUse"><stop stop-color="#DAE3FE"/><stop offset="1" stop-color="#E9EFFD"/></linearGradient><linearGradient id="paint76_linear_95_25927" x1="0.409532" y1="126.066" x2="384.862" y2="126.066" gradientUnits="userSpaceOnUse"><stop stop-color="#DAE3FE"/><stop offset="1" stop-color="#E9EFFD"/></linearGradient><linearGradient id="paint77_linear_95_25927" x1="0.499693" y1="126.17" x2="385" y2="126.17" gradientUnits="userSpaceOnUse"><stop stop-color="#DAE3FE"/><stop offset="1" stop-color="#E9EFFD"/></linearGradient><linearGradient id="paint78_linear_95_25927" x1="0.303967" y1="126.336" x2="384.911" y2="126.336" gradientUnits="userSpaceOnUse"><stop stop-color="#DAE3FE"/><stop offset="1" stop-color="#E9EFFD"/></linearGradient><linearGradient id="paint79_linear_95_25927" x1="0.712402" y1="126.108" x2="385.133" y2="126.108" gradientUnits="userSpaceOnUse"><stop stop-color="#DAE3FE"/><stop offset="1" stop-color="#E9EFFD"/></linearGradient><linearGradient id="paint80_linear_95_25927" x1="0.497023" y1="126.068" x2="384.955" y2="126.068" gradientUnits="userSpaceOnUse"><stop stop-color="#DAE3FE"/><stop offset="1" stop-color="#E9EFFD"/></linearGradient><linearGradient id="paint81_linear_95_25927" x1="0.477172" y1="126.167" x2="385.016" y2="126.167" gradientUnits="userSpaceOnUse"><stop stop-color="#DAE3FE"/><stop offset="1" stop-color="#E9EFFD"/></linearGradient><linearGradient id="paint82_linear_95_25927" x1="0.880375" y1="126.093" x2="385.153" y2="126.093" gradientUnits="userSpaceOnUse"><stop stop-color="#DAE3FE"/><stop offset="1" stop-color="#E9EFFD"/></linearGradient><linearGradient id="paint83_linear_95_25927" x1="0.283779" y1="125.938" x2="384.8" y2="125.938" gradientUnits="userSpaceOnUse"><stop stop-color="#DAE3FE"/><stop offset="1" stop-color="#E9EFFD"/></linearGradient><linearGradient id="paint84_linear_95_25927" x1="0.218095" y1="126.072" x2="384.573" y2="126.072" gradientUnits="userSpaceOnUse"><stop stop-color="#DAE3FE"/><stop offset="1" stop-color="#E9EFFD"/></linearGradient><linearGradient id="paint85_linear_95_25927" x1="0.123235" y1="125.964" x2="384.452" y2="125.964" gradientUnits="userSpaceOnUse"><stop stop-color="#DAE3FE"/><stop offset="1" stop-color="#E9EFFD"/></linearGradient><linearGradient id="paint86_linear_95_25927" x1="0.315914" y1="126.175" x2="384.641" y2="126.175" gradientUnits="userSpaceOnUse"><stop stop-color="#DAE3FE"/><stop offset="1" stop-color="#E9EFFD"/></linearGradient><linearGradient id="paint87_linear_95_25927" x1="0.440593" y1="126.26" x2="384.92" y2="126.26" gradientUnits="userSpaceOnUse"><stop stop-color="#DAE3FE"/><stop offset="1" stop-color="#E9EFFD"/></linearGradient><linearGradient id="paint88_linear_95_25927" x1="0.376881" y1="126.199" x2="384.895" y2="126.199" gradientUnits="userSpaceOnUse"><stop stop-color="#DAE3FE"/><stop offset="1" stop-color="#E9EFFD"/></linearGradient><clipPath id="clip0_95_25927"><rect width="385" height="251.319" fill="white" transform="translate(0.5 0.34021)"/></clipPath></defs></svg>
