<svg width="18" height="18" viewBox="0 0 18 18" fill="none" xmlns="http://www.w3.org/2000/svg">
<path d="M15.2989 4.54774C15.06 4.30885 14.685 4.27362 14.4057 4.46392C13.3536 5.18104 8.07655 8.78705 7.50941 9.35416C6.68697 10.1766 6.68697 11.5148 7.50941 12.3373C7.92063 12.7485 8.46085 12.9541 9.00099 12.9541C9.54113 12.9541 10.0813 12.7485 10.4926 12.3373C11.0597 11.7702 14.6656 6.49307 15.3828 5.44099C15.573 5.16174 15.5378 4.78669 15.2989 4.54774ZM9.49813 11.3429C9.22402 11.6171 8.77792 11.6171 8.50381 11.3429C8.22966 11.0688 8.22962 10.6228 8.50367 10.3487C8.72403 10.1309 10.2223 9.0624 12.0657 7.78106C10.7844 9.62444 9.71582 11.1226 9.49813 11.3429Z" fill="#002E47"/>
<path d="M3.2425 14.1161L2.37449 14.5395C1.73936 13.406 1.40625 12.1408 1.40625 10.8457C1.40625 9.8968 1.58122 8.98798 1.90055 8.14982L2.89515 8.62689C2.99324 8.67393 3.09677 8.69622 3.19876 8.69622C3.46078 8.69622 3.71232 8.54909 3.83323 8.29702C4.00113 7.94689 3.85348 7.52688 3.50332 7.35894L2.52134 6.88792C3.74186 4.89737 5.85359 3.50958 8.29691 3.28423V4.34176C8.29691 4.7301 8.6117 5.04489 9.00004 5.04489C9.38837 5.04489 9.70316 4.7301 9.70316 4.34176V3.2837C10.5409 3.35995 11.3514 3.57328 12.1209 3.92062C12.4747 4.08041 12.8912 3.92295 13.051 3.5691C13.2108 3.21514 13.0534 2.79872 12.6995 2.63893C11.5335 2.11261 10.2888 1.8457 9 1.8457C6.59602 1.8457 4.33593 2.78184 2.63602 4.48172C0.936176 6.18163 0 8.44172 0 10.8457C0 12.6221 0.527273 14.3499 1.52483 15.8419C1.6592 16.0429 1.88135 16.1543 2.1098 16.1543C2.21365 16.1543 2.31884 16.1313 2.41766 16.0831L3.85907 15.38C4.2081 15.2097 4.35301 14.7888 4.18275 14.4398C4.01249 14.0908 3.59153 13.9459 3.2425 14.1161Z" fill="#002E47"/>
<path d="M17.2069 7.14646C17.0472 6.79254 16.6308 6.63504 16.2768 6.7949C15.9228 6.95468 15.7655 7.37111 15.9252 7.72503C16.369 8.70793 16.5939 9.75794 16.5939 10.8459C16.5939 12.1429 16.2597 13.4101 15.6228 14.545L14.7165 14.1134C14.366 13.9465 13.9464 14.0953 13.7794 14.446C13.6124 14.7965 13.7613 15.2161 14.1119 15.3831L15.5885 16.0862C15.6856 16.1324 15.7886 16.1545 15.8904 16.1545C16.1189 16.1545 16.3411 16.0429 16.4753 15.8421C17.4729 14.35 18.0002 12.6223 18.0002 10.8459C18.0002 9.55709 17.7333 8.31242 17.2069 7.14646Z" fill="#002E47"/>
</svg>
