<svg fill="#002E47" clip-rule="evenodd" fill-rule="evenodd" height="512" stroke-linejoin="round" stroke-miterlimit="2" viewBox="0 0 24 24" width="512" xmlns="http://www.w3.org/2000/svg"><g id="Icon"><path d="m11.5 20.263h-8.55c-.053 0-.104-.022-.141-.059-.038-.038-.059-.088-.059-.141 0-.001 0-1.451 0-1.451 0-.83.593-1.562 1.507-2.184 1.632-1.114 4.273-1.816 7.243-1.816.414 0 .75-.336.75-.75 0-.413-.336-.75-.75-.75-3.322 0-6.263.831-8.089 2.076-1.393.95-2.161 2.157-2.161 3.424v1.451c0 .45.179.883.498 1.202.319.318.751.498 1.202.498h8.55c.414-.001.75-.337.75-.751 0-.413-.336-.75-.75-.749z"/><path d="m11.5 1.25c-3.036 0-5.5 2.464-5.5 5.5s2.464 5.5 5.5 5.5 5.5-2.464 5.5-5.5-2.464-5.5-5.5-5.5zm0 1.5c2.208 0 4 1.792 4 4s-1.792 4-4 4-4-1.792-4-4 1.792-4 4-4z"/><path d="m17.5 13.938c-1.966 0-3.562 1.596-3.562 3.562s1.596 3.563 3.562 3.563 3.563-1.597 3.563-3.563-1.597-3.562-3.563-3.562zm0 1.5c1.138 0 2.063.924 2.063 2.062s-.925 2.063-2.063 2.063-2.063-.925-2.063-2.063.925-2.062 2.063-2.062z"/><path d="m18.25 14.687v-1.687c0-.414-.336-.75-.75-.75s-.75.336-.75.75v1.688c0 .413.336.75.75.75.414-.001.75-.337.75-.751z"/><path d="m20.019 16.042 1.193-1.194c.293-.292.293-.768 0-1.06-.292-.293-.768-.293-1.06 0l-1.194 1.193c-.292.293-.292.768 0 1.061.293.292.768.292 1.061 0z"/><path d="m20.312 18.25h1.688c.414 0 .75-.336.75-.75s-.336-.75-.75-.75h-1.688c-.413 0-.749.336-.749.75-.001.414.336.75.749.75z"/><path d="m18.958 20.019 1.194 1.193c.292.293.768.293 1.06 0 .293-.292.293-.768 0-1.06l-1.193-1.194c-.293-.292-.768-.292-1.061 0-.292.293-.292.768 0 1.061z"/><path d="m16.75 20.312v1.688c0 .414.336.75.75.75s.75-.336.75-.75v-1.688c0-.413-.336-.749-.75-.75-.414 0-.75.337-.75.75z"/><path d="m14.981 18.958-1.193 1.194c-.293.292-.293.768 0 1.06.292.293.768.293 1.06 0l1.194-1.193c.292-.293.292-.768 0-1.061-.293-.292-.768-.292-1.061 0z"/><path d="m14.687 16.75h-1.687c-.414 0-.75.336-.75.75s.336.75.75.75h1.687c.414 0 .751-.336.75-.75 0-.414-.336-.75-.75-.75z"/><path d="m16.042 14.981-1.194-1.193c-.292-.293-.768-.293-1.06 0-.293.292-.293.768 0 1.06l1.193 1.194c.293.292.768.292 1.061 0 .292-.293.292-.768 0-1.061z"/></g></svg>
