<svg width="20" height="21" viewBox="0 0 20 21" fill="none" xmlns="http://www.w3.org/2000/svg">
<g clip-path="url(#clip0_246_23943)">
<path d="M10 0.5C15.514 0.5 20 4.98606 20 10.5001C20 16.0141 15.514 20.5 10 20.5C4.486 20.5 0 16.0141 0 10.5001C0 4.98606 4.486 0.5 10 0.5ZM10 18.6818C14.5115 18.6818 18.1818 15.0115 18.1818 10.5001C18.1818 5.98861 14.5115 2.31818 10 2.31818C5.48848 2.31818 1.81818 5.98861 1.81818 10.5001C1.81818 15.0115 5.48854 18.6818 10 18.6818Z" fill="#707E95"/>
<path d="M9.99906 4.74243C10.6673 4.74243 11.2109 5.28643 11.2109 5.9551C11.2109 6.62316 10.6673 7.16667 9.99906 7.16667C9.33082 7.16667 8.78718 6.62316 8.78718 5.9551C8.78718 5.28643 9.33082 4.74243 9.99906 4.74243Z" fill="#707E95"/>
<path d="M10.0011 8.98486C10.5031 8.98486 10.9102 9.39189 10.9102 9.89395V15.3485C10.9102 15.8506 10.5031 16.2576 10.0011 16.2576C9.499 16.2576 9.09197 15.8506 9.09197 15.3485V9.89395C9.09197 9.39189 9.499 8.98486 10.0011 8.98486Z" fill="#707E95"/>
</g>
<defs>
<clipPath id="clip0_246_23943">
<rect width="20" height="20" fill="white" transform="matrix(-1 0 0 1 20 0.5)"/>
</clipPath>
</defs>
</svg>
