<svg width="15" height="16" viewBox="0 0 15 16" fill="none" xmlns="http://www.w3.org/2000/svg">
<path d="M13.3608 13.7186V9.4994C13.3608 7.4258 12.9144 5.8418 10.4952 5.8418C9.32882 5.8418 8.55122 6.4754 8.23442 7.0802H8.20562V6.029H5.91602V13.7186H8.30642V9.9026C8.30642 8.8946 8.49362 7.9298 9.73202 7.9298C10.956 7.9298 10.9704 9.0674 10.9704 9.9602V13.7042H13.3608V13.7186Z" fill="#39B4EF"/>
<path d="M2.02832 6.0293H4.41872V13.7189H2.02832V6.0293Z" fill="#39B4EF"/>
<path d="M3.22322 2.19873C2.46002 2.19873 1.84082 2.81793 1.84082 3.58113C1.84082 4.34433 2.46002 4.97793 3.22322 4.97793C3.98642 4.97793 4.60562 4.34433 4.60562 3.58113C4.60562 2.81793 3.98642 2.19873 3.22322 2.19873V2.19873Z" fill="#39B4EF"/>
</svg>
