<svg width="10" height="10" viewBox="0 0 10 10" fill="none" xmlns="http://www.w3.org/2000/svg">
<path d="M8.54166 3.75H7.91666V2.91666C7.91666 1.3084 6.60828 0 5 0C3.39172 0 2.08334 1.3084 2.08334 2.91666V3.75H1.45834C1.34318 3.75 1.25 3.84318 1.25 3.95834V9.16668C1.25 9.62627 1.62373 10 2.08334 10H7.91668C8.37627 10 8.75 9.62627 8.75 9.16666V3.95834C8.75 3.84318 8.65682 3.75 8.54166 3.75ZM5.62379 8.10201C5.63029 8.1608 5.61139 8.2198 5.57191 8.26396C5.53244 8.30811 5.47588 8.33334 5.41668 8.33334H4.58334C4.52414 8.33334 4.46758 8.30811 4.42811 8.26396C4.38863 8.21982 4.36971 8.16082 4.37623 8.10201L4.50766 6.92018C4.29424 6.76494 4.16668 6.51937 4.16668 6.25C4.16668 5.79041 4.54041 5.41666 5.00002 5.41666C5.45963 5.41666 5.83336 5.79039 5.83336 6.25C5.83336 6.51937 5.7058 6.76494 5.49238 6.92018L5.62379 8.10201ZM6.66666 3.75H3.33334V2.91666C3.33334 1.99768 4.08102 1.25 5 1.25C5.91898 1.25 6.66666 1.99768 6.66666 2.91666V3.75Z" fill="#39B4EF"/>
</svg>
