<svg width="1902" height="700" viewBox="0 0 1902 700" fill="none" xmlns="http://www.w3.org/2000/svg">
<g opacity="0.2" clip-path="url(#clip0_8_538)">
<mask id="mask0_8_538" style="mask-type:luminance" maskUnits="userSpaceOnUse" x="0" y="-227" width="1902" height="1087">
<path d="M1902 -227H0V860H1902V-227Z" fill="white"/>
</mask>
<g mask="url(#mask0_8_538)">
<g opacity="0.35">
<path d="M1020.44 575.795L1001.19 566.359V565.982H1001.57L1020.44 575.795C1020.44 575.417 1020.44 575.417 1020.44 575.795Z" fill="white"/>
</g>
<g opacity="0.35">
<path d="M965.718 678.078L896.28 749.79C896.28 749.79 896.28 749.79 895.902 749.79C895.902 749.79 895.902 749.79 895.902 749.413L965.718 678.078Z" fill="white"/>
</g>
<g opacity="0.37">
<path d="M661.926 604.857L655.133 527.106C655.133 527.106 655.133 527.106 655.133 526.729C655.133 526.729 655.133 526.729 655.511 526.729L661.926 604.857Z" fill="white"/>
</g>
<g opacity="0.32">
<path d="M661.926 604.857L563.43 563.717C563.43 563.717 563.43 563.717 563.43 563.34C563.43 563.34 563.43 563.34 563.807 563.34L661.926 604.857C661.926 604.48 661.926 604.48 661.926 604.857Z" fill="white"/>
</g>
<g opacity="0.36">
<path d="M655.511 527.106L612.489 506.725C612.489 506.725 612.489 506.725 612.489 506.348C612.489 506.348 612.489 506.348 612.867 506.348L655.511 527.106C655.511 526.729 655.511 526.729 655.511 527.106Z" fill="white"/>
</g>
<g opacity="0.34">
<path d="M655.511 527.106L563.43 563.717C563.43 563.717 563.43 563.717 563.052 563.717C563.052 563.717 563.052 563.717 563.052 563.34L655.511 527.106C655.511 526.729 655.511 526.729 655.511 527.106Z" fill="white"/>
</g>
<g opacity="0.34">
<path d="M720.42 459.924L655.511 527.106C655.511 527.106 655.511 527.106 655.133 527.106C655.133 527.106 655.133 527.106 655.133 526.729L720.42 459.924C720.42 459.546 720.42 459.546 720.42 459.924Z" fill="white"/>
</g>
<g opacity="0.38">
<path d="M409.836 615.802L378.136 642.6C378.136 642.6 378.136 642.6 377.758 642.6C377.758 642.6 377.758 642.6 377.758 642.223L409.836 615.802C409.458 615.425 409.458 615.425 409.836 615.802C409.836 615.425 409.836 615.425 409.836 615.802Z" fill="white"/>
</g>
<g opacity="0.47">
<path d="M378.136 642.6C377.758 642.6 377.758 642.6 377.758 642.6L380.4 599.573C380.4 599.573 380.4 599.195 380.777 599.195C380.777 599.195 381.155 599.195 381.155 599.573L378.136 642.6Z" fill="white"/>
</g>
<g opacity="0.51">
<path d="M1277.06 673.172L1243.47 716.954H1243.09V716.576L1277.06 673.172Z" fill="white"/>
</g>
<g opacity="0.52">
<path d="M409.836 615.802C409.836 615.802 409.458 616.18 409.458 615.802L380.777 599.573V599.195C380.777 599.195 381.155 598.818 381.155 599.195L409.836 615.425C409.836 615.425 409.836 615.425 409.836 615.802Z" fill="white"/>
</g>
<g opacity="0.69">
<path d="M471.726 660.717L429.459 708.65H429.082V708.273L471.349 660.717H471.726C472.104 660.717 471.726 660.339 471.726 660.717Z" fill="white"/>
</g>
<g opacity="0.58">
<path d="M662.304 604.102L599.281 631.655H598.904V631.277L662.304 604.102C662.304 603.725 661.926 603.725 662.304 604.102C662.304 603.725 662.304 603.725 662.304 604.102Z" fill="white"/>
</g>
<g opacity="0.55">
<path d="M1641.98 770.549C1641.61 770.549 1641.61 770.549 1641.98 770.549C1641.61 770.549 1641.61 770.549 1641.61 770.549L1664.25 629.012C1664.25 629.012 1664.25 628.635 1664.63 628.635C1664.63 628.635 1665 628.635 1665 629.012L1641.98 770.549Z" fill="white"/>
</g>
<g opacity="0.55">
<path d="M29.8131 559.188C29.4357 559.565 29.8131 559.565 29.8131 559.188L-36.9833 542.581L-37.3607 542.204L-36.9833 541.826L29.4357 558.81C29.8131 558.81 29.8131 559.188 29.8131 559.188Z" fill="white"/>
</g>
<g opacity="0.53">
<path d="M599.281 631.277L471.726 660.717H471.349V660.339L599.281 631.277Z" fill="white"/>
</g>
<g opacity="0.53">
<path d="M1362.72 542.581L1274.04 582.589H1273.66V582.211L1362.72 542.581C1362.72 542.203 1362.72 542.203 1362.72 542.581Z" fill="white"/>
</g>
<g opacity="0.6">
<path d="M1271.77 683.74C1271.4 683.74 1271.4 683.74 1271.4 683.74L1273.66 582.211C1273.66 582.211 1273.66 581.834 1274.04 581.834C1274.04 581.834 1274.42 581.834 1274.42 582.211L1271.77 683.74Z" fill="white"/>
</g>
<g opacity="0.66">
<path d="M5.66069 771.304C5.28331 771.304 5.28331 771.304 5.66069 771.304C5.28331 771.681 5.28331 771.304 4.90593 771.304L-27.1714 697.705V697.327H-26.7941L5.66069 771.304Z" fill="white"/>
</g>
<g opacity="0.58">
<path d="M68.306 662.226L5.28333 771.304H4.90594V770.926L67.9286 661.849C67.9286 661.849 67.9286 661.849 68.306 662.226C68.306 661.849 68.306 661.849 68.306 662.226Z" fill="white"/>
</g>
<g opacity="0.59">
<path d="M185.671 692.043L67.9286 662.226C67.9286 662.226 67.5512 662.226 67.9286 661.849C67.9286 661.849 67.9286 661.471 68.306 661.849L185.671 692.043Z" fill="white"/>
</g>
<g opacity="0.55">
<path d="M286.055 763.755L185.294 692.043V691.666H185.671L286.055 763.755C286.432 763.755 286.432 763.378 286.055 763.755Z" fill="white"/>
</g>
<g opacity="0.53">
<path d="M1132.14 687.514L1077.42 723.748H1077.05V723.37L1132.14 687.514C1132.14 687.137 1132.14 687.137 1132.14 687.514Z" fill="white"/>
</g>
<g opacity="0.54">
<path d="M1077.42 723.747C1077.05 723.747 1077.05 723.747 1077.05 723.747L1054.78 578.437V578.059H1055.16L1077.42 723.747Z" fill="white"/>
</g>
<g opacity="0.59">
<path d="M1153.28 626.748L1077.42 723.748H1077.05V723.37L1152.9 626.37C1152.9 626.37 1153.28 626.37 1153.28 626.748Z" fill="white"/>
</g>
<g opacity="0.54">
<path d="M1681.23 610.896L1664.25 629.013H1663.87V628.635L1681.23 610.896C1681.23 610.518 1681.23 610.518 1681.23 610.896Z" fill="white"/>
</g>
<g opacity="0.72">
<path d="M1728.78 611.651C1728.4 611.651 1728.4 611.651 1728.78 611.651L1664.63 629.39C1664.25 629.39 1664.25 629.39 1664.25 629.013C1664.25 628.635 1664.25 628.635 1664.63 628.635L1728.78 611.273C1728.4 610.896 1728.4 610.896 1728.78 611.651C1728.78 611.273 1728.78 611.273 1728.78 611.651Z" fill="white"/>
</g>
<g opacity="0.5">
<path d="M349.832 250.45C349.455 250.827 349.455 250.827 349.832 250.45C349.455 250.45 349.077 250.45 349.077 250.45L351.719 201.006C351.719 201.006 351.719 200.629 352.096 200.629C352.096 200.629 352.474 200.629 352.474 201.006L349.832 250.45Z" fill="white"/>
</g>
<g opacity="0.55">
<path d="M180.388 489.741C180.011 490.118 180.011 490.118 180.388 489.741C180.011 489.741 180.011 489.741 180.011 489.741L190.2 404.819C190.2 404.819 190.2 404.441 190.577 404.819C190.577 404.819 190.955 404.819 190.577 405.196L180.388 489.741Z" fill="white"/>
</g>
<g opacity="0.55">
<path d="M68.3059 662.226L49.8143 673.549H49.4369V673.172L68.3059 662.226C67.9286 661.849 67.9286 661.849 68.3059 662.226C68.3059 661.849 68.3059 661.849 68.3059 662.226Z" fill="white"/>
</g>
<g opacity="0.63">
<path d="M68.3059 662.226L-26.7941 697.705H-27.1714V697.327L67.9286 661.849C67.9286 661.472 68.3059 661.849 68.3059 662.226C68.3059 661.849 68.3059 661.849 68.3059 662.226Z" fill="white"/>
</g>
<g opacity="0.6">
<path d="M275.111 542.958C274.733 543.336 274.733 543.336 275.111 542.958C274.733 542.958 274.733 542.958 274.733 542.958L285.3 439.92C285.3 439.92 285.3 439.542 285.677 439.542C285.677 439.542 286.055 439.542 286.055 439.92L275.111 542.958Z" fill="white"/>
</g>
<g opacity="0.83">
<path d="M275.488 543.336C275.488 543.713 275.111 543.713 274.733 543.713C274.356 543.713 273.979 543.336 274.356 542.958L280.017 522.955C280.017 522.577 280.394 522.2 280.771 522.577C281.149 522.577 281.526 522.955 281.149 523.332L275.488 543.336Z" fill="white"/>
</g>
<g opacity="0.55">
<path d="M393.986 504.838C393.986 505.215 393.986 505.215 393.986 504.838L274.733 542.958H274.356V542.581L393.986 504.838Z" fill="white"/>
</g>
<g opacity="0.56">
<path d="M393.986 505.215L284.923 440.297V439.92H285.3L393.986 505.215C393.986 504.838 393.986 504.838 393.986 505.215Z" fill="white"/>
</g>
<g opacity="0.55">
<path d="M446.819 475.398L393.986 505.215H393.608V504.838L446.819 475.398C446.819 475.021 446.442 475.021 446.819 475.398Z" fill="white"/>
</g>
<g opacity="0.59">
<path d="M393.986 505.215L280.017 523.332C280.017 523.332 279.639 523.332 279.639 522.954C279.639 522.954 279.639 522.577 280.017 522.577L393.986 505.215Z" fill="white"/>
</g>
<g opacity="0.55">
<path d="M374.739 677.324C374.362 677.324 374.362 677.324 374.362 677.324L318.887 591.647V591.27H319.264L374.739 677.324Z" fill="white"/>
</g>
<g opacity="0.56">
<path d="M628.717 661.472L553.618 784.514H553.241V784.136L628.339 661.094C628.339 661.094 628.339 661.094 628.717 661.472Z" fill="white"/>
</g>
<g opacity="0.53">
<path d="M1003.83 750.168C1003.83 750.545 1003.83 750.545 1003.83 750.168C1003.46 750.168 1003.46 750.168 1003.46 750.168L997.041 595.044C997.041 595.044 997.04 594.666 997.418 594.666C997.418 594.666 997.795 594.666 997.795 595.044L1003.83 750.168Z" fill="white"/>
</g>
<g opacity="0.53">
<path d="M1132.14 687.514C1131.77 687.514 1131.77 687.514 1131.77 687.514L1152.9 626.748C1152.9 626.748 1152.9 626.748 1153.28 626.748C1153.28 626.748 1153.28 626.748 1153.28 627.125L1132.14 687.514Z" fill="white"/>
</g>
<g opacity="0.56">
<path d="M1242.72 520.69C1242.34 520.69 1242.34 520.69 1242.72 520.69L1153.65 626.748H1153.28V626.371L1242.34 520.312C1242.34 520.312 1242.34 520.313 1242.72 520.69C1242.72 520.313 1242.72 520.313 1242.72 520.69Z" fill="white"/>
</g>
<g opacity="0.61">
<path d="M1153.28 626.748C1153.28 626.748 1152.9 627.125 1152.9 626.748L1054.78 578.437V578.059C1054.78 578.059 1055.16 577.682 1055.16 578.059L1153.28 626.748C1153.65 626.748 1153.28 626.37 1153.28 626.748Z" fill="white"/>
</g>
<g opacity="0.53">
<path d="M1132.14 687.514L1038.55 824.899H1038.18V824.522L1131.77 687.137C1132.14 687.137 1132.14 687.137 1132.14 687.514C1132.52 687.514 1132.14 687.137 1132.14 687.514Z" fill="white"/>
</g>
<g opacity="0.59">
<path d="M328.321 396.515C327.944 396.515 327.944 396.515 327.944 396.515L343.794 332.73C343.794 332.73 343.794 332.352 344.171 332.352C344.171 332.352 344.549 332.352 344.549 332.73L328.321 396.515Z" fill="white"/>
</g>
<g opacity="0.5">
<path d="M328.321 396.515L190.2 405.196C190.2 405.196 190.2 405.196 189.823 405.196C189.823 405.196 189.823 405.196 189.823 404.819L328.321 396.515C328.321 396.138 328.321 396.138 328.321 396.515Z" fill="white"/>
</g>
<g opacity="0.56">
<path d="M49.8143 673.549L-26.7941 697.705H-27.1714V697.328L49.8143 673.549C49.8143 673.172 49.4369 673.172 49.8143 673.549Z" fill="white"/>
</g>
<g opacity="0.65">
<path d="M280.394 523.332C280.017 523.332 279.639 523.332 280.017 523.332L284.923 440.297C284.923 440.297 284.923 439.92 285.3 439.92C285.3 439.92 285.677 439.92 285.677 440.297L280.394 523.332Z" fill="white"/>
</g>
<g opacity="0.69">
<path d="M49.8143 673.549L35.0964 702.611C35.0964 702.611 34.719 702.989 34.719 702.611C34.719 702.611 34.3417 702.234 34.719 702.234L49.4369 673.172C49.4369 673.172 49.8143 672.794 49.8143 673.172C49.8143 673.172 49.8143 673.172 49.8143 673.549Z" fill="white"/>
</g>
<g opacity="0.7">
<path d="M49.8143 673.549C49.4369 673.927 49.4369 673.927 49.0595 673.549L-3.7738 622.219C-3.7738 622.219 -3.7738 621.841 -3.7738 621.464C-3.7738 621.464 -3.39642 621.464 -3.01904 621.464L49.8143 672.794C49.8143 673.172 49.8143 673.549 49.8143 673.549Z" fill="white"/>
</g>
<g opacity="0.64">
<path d="M634 458.037C633.623 458.414 633.623 458.037 633.623 458.037L603.432 379.531V379.154H603.81L634 458.037Z" fill="white"/>
</g>
<g opacity="0.59">
<path d="M1055.16 578.437L997.418 595.421H997.041V595.044L1055.16 578.437C1055.16 578.059 1055.16 578.059 1055.16 578.437Z" fill="white"/>
</g>
<g opacity="0.53">
<path d="M285.3 439.92C285.3 440.297 285.3 440.297 285.3 439.92C284.923 440.297 285.3 440.297 285.3 439.92Z" fill="white"/>
</g>
<g opacity="0.63">
<path d="M35.0964 702.611C34.7191 702.989 34.7191 702.611 34.3417 702.611L-3.39642 622.219V621.841H-3.01904L35.0964 702.611Z" fill="white"/>
</g>
<g opacity="0.53">
<path d="M113.592 586.74L34.719 702.612H34.3417V702.234L113.592 586.74C113.214 586.363 113.214 586.363 113.592 586.74C113.592 586.363 113.592 586.363 113.592 586.74Z" fill="white"/>
</g>
<g opacity="0.53">
<path d="M393.986 598.063L319.264 591.647C319.264 591.647 318.887 591.647 318.887 591.27C318.887 591.27 318.887 590.892 319.264 590.892L393.986 598.063Z" fill="white"/>
</g>
<g opacity="0.64">
<path d="M319.642 591.647C319.642 591.647 319.264 592.024 319.264 591.647L244.543 550.129C244.543 550.129 244.165 549.752 244.543 549.752C244.543 549.752 244.92 549.375 244.92 549.752L319.642 591.269C319.642 591.269 319.642 591.269 319.642 591.647Z" fill="white"/>
</g>
<g opacity="0.55">
<path d="M800.425 408.216L699.287 461.433H698.909V461.056L800.425 408.216C800.048 408.216 800.048 407.838 800.425 408.216Z" fill="white"/>
</g>
<g opacity="0.52">
<path d="M767.97 114.952L693.249 138.73H692.871V138.353L767.97 114.952C767.97 114.575 767.97 114.575 767.97 114.952Z" fill="white"/>
</g>
<g opacity="0.56">
<path d="M244.543 550.13L169.067 528.993C169.067 528.993 168.689 528.993 169.067 528.616C169.067 528.616 169.067 528.239 169.444 528.616L244.543 550.13Z" fill="white"/>
</g>
<g opacity="0.69">
<path d="M169.821 528.993L113.592 586.74C113.592 586.74 113.214 586.74 112.837 586.74C112.837 586.74 112.837 586.363 112.837 585.985L169.067 528.239C169.067 528.239 169.444 528.239 169.821 528.239C169.821 528.616 169.821 528.993 169.821 528.993Z" fill="white"/>
</g>
<g opacity="0.54">
<path d="M244.543 550.13L113.214 586.74H112.837V586.363L244.543 550.13C244.543 549.752 244.543 549.752 244.543 550.13Z" fill="white"/>
</g>
<g opacity="0.63">
<path d="M244.543 550.13C244.543 550.13 244.165 550.507 244.165 550.13L173.218 504.838C173.218 504.838 172.84 504.46 173.218 504.46C173.218 504.46 173.595 504.083 173.595 504.46L244.543 549.752C244.543 549.752 244.92 550.13 244.543 550.13Z" fill="white"/>
</g>
<g opacity="0.53">
<path d="M393.986 598.063C393.608 598.063 393.608 598.063 393.608 598.063L419.27 508.235C419.27 508.235 419.27 508.235 419.648 508.235C419.648 508.235 419.648 508.235 419.648 508.612L393.986 598.063Z" fill="white"/>
</g>
<g opacity="0.58">
<path d="M448.706 482.947L393.986 598.063H393.608C393.608 598.063 393.231 597.686 393.608 597.686L448.329 482.569C448.329 482.569 448.329 482.569 448.706 482.947Z" fill="white"/>
</g>
<g opacity="0.66">
<path d="M452.48 642.977C452.48 643.355 452.102 643.355 451.725 642.977L393.231 598.063C393.231 598.063 392.854 597.686 393.231 597.686C393.231 597.686 393.608 597.308 393.608 597.686L452.102 642.6C452.48 642.6 452.48 642.977 452.48 642.977Z" fill="white"/>
</g>
<g opacity="0.55">
<path d="M452.48 642.977C452.102 642.977 452.102 642.977 452.102 642.977L419.27 508.612V508.235H419.648L452.48 642.977Z" fill="white"/>
</g>
<g opacity="0.54">
<path d="M452.48 642.977C452.102 642.977 452.102 642.977 452.102 642.977L448.329 482.947C448.329 482.947 448.329 482.569 448.706 482.569C448.706 482.569 449.083 482.569 449.083 482.947L452.48 642.977Z" fill="white"/>
</g>
<g opacity="0.54">
<path d="M285.677 335.749C285.3 335.749 285.3 335.749 285.677 335.749L269.073 292.722V292.344H269.45L285.677 335.749Z" fill="white"/>
</g>
<g opacity="0.54">
<path d="M13.9631 610.896C13.5857 610.896 13.5857 610.896 13.5857 610.896L-11.6988 440.297C-11.6988 440.297 -11.6988 439.92 -11.3214 439.92C-11.3214 439.92 -10.944 439.92 -10.944 440.297L13.9631 610.896Z" fill="white"/>
</g>
<g opacity="0.68">
<path d="M14.3405 610.896L-48.3047 679.588C-48.3047 679.588 -48.6821 679.588 -49.0595 679.588C-49.0595 679.588 -49.0595 679.211 -49.0595 678.833L13.5857 610.141C13.5857 610.141 13.9631 610.141 14.3405 610.141C14.3405 610.518 14.3405 610.518 14.3405 610.896Z" fill="white"/>
</g>
<g opacity="0.67">
<path d="M448.706 482.947L419.648 508.612H419.27V508.235L448.329 482.947H448.706Z" fill="white"/>
</g>
<g opacity="0.58">
<path d="M257.374 721.86C256.996 721.86 256.619 721.86 256.619 721.86L276.998 603.347L277.375 602.97L277.752 603.347L257.374 721.86Z" fill="white"/>
</g>
<g opacity="0.56">
<path d="M221.145 229.691L109.063 309.706H108.686V309.329L221.145 229.691C220.768 229.314 220.768 229.314 221.145 229.691Z" fill="white"/>
</g>
<g opacity="0.55">
<path d="M243.033 341.41L108.686 309.706C108.686 309.706 108.308 309.706 108.686 309.329C108.686 309.329 108.686 308.951 109.063 309.329L243.033 341.41C243.033 341.033 243.033 341.033 243.033 341.41Z" fill="white"/>
</g>
<g opacity="0.54">
<path d="M269.45 292.722C269.45 293.099 269.45 293.099 269.45 292.722L109.063 309.329C109.063 309.329 108.686 309.329 108.686 308.951C108.686 308.951 108.686 308.574 109.063 308.574L269.45 292.722Z" fill="white"/>
</g>
<g opacity="0.67">
<path d="M269.45 293.099C269.073 293.477 269.073 293.477 268.695 293.099L220.391 229.691V229.314H220.768L269.45 293.099C269.45 292.722 269.45 292.722 269.45 293.099Z" fill="white"/>
</g>
<g opacity="0.58">
<path d="M293.225 315.745H292.848L269.073 293.099V292.722H269.45L293.225 315.745C293.225 315.368 293.225 315.368 293.225 315.745Z" fill="white"/>
</g>
<g opacity="0.68">
<path d="M269.45 293.099L243.033 341.411C243.033 341.411 242.656 341.788 242.656 341.411C242.656 341.411 242.279 341.033 242.656 341.033L269.073 292.722C269.073 292.722 269.45 292.345 269.45 292.722C269.45 292.722 269.45 292.722 269.45 293.099Z" fill="white"/>
</g>
<g opacity="0.6">
<path d="M288.319 311.971L243.033 341.41H242.656V341.033L287.942 311.593C287.942 311.593 288.319 311.593 288.319 311.971Z" fill="white"/>
</g>
<g opacity="0.54">
<path d="M243.033 341.41C242.656 341.41 242.656 341.41 242.656 341.41L220.768 229.691V229.314H221.145L243.033 341.41C243.033 341.033 243.033 341.033 243.033 341.41Z" fill="white"/>
</g>
<g opacity="0.68">
<path d="M293.225 315.745L243.033 341.788H242.656V341.411L292.47 315.745C292.848 314.99 293.225 314.99 293.225 315.745C293.225 315.368 293.225 315.368 293.225 315.745Z" fill="white"/>
</g>
<g opacity="0.8">
<path d="M293.602 315.745C293.225 316.123 292.848 316.123 292.47 316.123L287.564 312.348C287.187 311.971 287.187 311.593 287.564 311.216C287.942 310.839 288.319 310.839 288.696 311.216L293.602 314.99C293.602 314.99 293.602 315.368 293.602 315.745Z" fill="white"/>
</g>
<g opacity="0.61">
<path d="M349.077 358.772C349.077 359.15 348.7 359.15 348.7 358.772L292.848 315.745V315.368H293.225L349.077 358.772Z" fill="white"/>
</g>
<g opacity="0.67">
<path d="M349.455 358.772C349.455 359.15 349.077 359.15 348.7 358.772L287.942 311.971C287.942 311.971 287.564 311.593 287.942 311.593C287.942 311.593 288.319 311.216 288.319 311.593L349.077 358.395C349.455 358.395 349.455 358.772 349.455 358.772Z" fill="white"/>
</g>
<g opacity="0.56">
<path d="M378.136 504.838L285.677 569.756H285.3V569.378L377.758 504.46C377.758 504.46 378.136 504.46 378.136 504.838Z" fill="white"/>
</g>
<g opacity="0.59">
<path d="M419.648 508.235C419.648 508.612 419.648 508.612 419.648 508.235L285.677 569.756H285.3V569.378L419.27 508.235C419.27 507.857 419.648 507.857 419.648 508.235Z" fill="white"/>
</g>
<g opacity="0.58">
<path d="M500.785 487.099L419.27 508.612C419.27 508.612 418.893 508.612 418.893 508.235C418.893 508.235 418.893 507.857 419.27 507.857L500.407 486.721C500.785 486.721 500.785 486.721 500.785 487.099Z" fill="white"/>
</g>
<g opacity="0.63">
<path d="M419.648 508.235C419.27 508.612 419.648 508.612 419.648 508.235L377.758 504.838C377.381 504.838 377.381 504.838 377.381 504.46C377.381 504.083 377.381 504.083 377.758 504.083L419.27 507.857C419.648 507.857 419.648 508.235 419.648 508.235Z" fill="white"/>
</g>
<g opacity="0.53">
<path d="M607.583 575.795H607.206L500.407 487.099V486.721H500.785L607.583 575.795Z" fill="white"/>
</g>
<g opacity="0.64">
<path d="M500.785 487.099C500.785 487.476 500.785 487.476 500.785 487.099L377.758 504.838C377.381 504.838 377.381 504.838 377.381 504.46C377.381 504.083 377.381 504.083 377.758 504.083L500.407 486.344C500.785 486.721 500.785 486.721 500.785 487.099Z" fill="white"/>
</g>
<g opacity="0.55">
<path d="M277.752 603.347L175.105 763.378H174.727C174.727 763.378 174.35 763 174.727 763L277.375 602.97C277.375 602.592 277.375 602.592 277.752 603.347C277.752 602.97 277.752 602.97 277.752 603.347Z" fill="white"/>
</g>
<g opacity="0.59">
<path d="M21.1333 486.721C20.7559 487.099 20.7559 486.721 20.7559 486.721L-11.3214 440.297V439.92H-10.9441L21.1333 486.721Z" fill="white"/>
</g>
<g opacity="0.59">
<path d="M30.1905 495.779C30.1905 496.157 30.1905 496.157 30.1905 495.779C29.8131 496.157 29.8131 495.779 29.8131 495.779L-11.6988 439.92V439.542H-11.3214L30.1905 495.779Z" fill="white"/>
</g>
<g opacity="0.54">
<path d="M30.1905 495.78L-70.9476 590.892H-71.325V590.515L29.8131 495.402C29.8131 495.402 30.1905 495.402 30.1905 495.78Z" fill="white"/>
</g>
<g opacity="0.59">
<path d="M30.1905 495.78C30.1905 496.157 30.1905 496.157 30.1905 495.78L-110.573 480.305C-110.573 480.305 -110.95 480.305 -110.95 479.928C-110.95 479.928 -110.95 479.55 -110.573 479.55L30.1905 495.402V495.78Z" fill="white"/>
</g>
<g opacity="0.94">
<path d="M32.0774 496.534C32.0774 496.912 31.7 496.912 31.7 497.289C30.9452 498.044 29.4357 498.044 28.681 497.289L19.6238 488.231C18.869 487.476 18.869 485.966 19.6238 485.211C20.3786 484.457 21.8881 484.457 22.6429 485.211L31.7 494.27C32.0774 495.025 32.4548 495.779 32.0774 496.534Z" fill="white"/>
</g>
<g opacity="0.62">
<path d="M277.752 603.347L189.445 713.934C189.445 713.934 189.068 714.312 189.068 713.934C189.068 713.934 188.69 713.557 189.068 713.557L277.375 602.97C277.375 602.97 277.752 602.592 277.752 602.97C277.752 602.97 277.752 602.97 277.752 603.347Z" fill="white"/>
</g>
<g opacity="0.54">
<path d="M21.1333 486.721L-70.9476 590.892H-71.325V590.515L20.7559 486.344C20.7559 486.344 20.7559 486.344 21.1333 486.721Z" fill="white"/>
</g>
<g opacity="0.61">
<path d="M21.1333 486.721C21.1333 487.099 21.1333 487.099 21.1333 486.721L-110.573 480.305C-110.95 480.305 -110.95 480.305 -110.95 479.928C-110.95 479.928 -110.95 479.55 -110.573 479.55L20.756 486.344C21.1333 486.344 21.1333 486.721 21.1333 486.721Z" fill="white"/>
</g>
<g opacity="0.69">
<path d="M27.9262 145.901C27.5488 146.279 27.1714 146.279 27.1714 145.901L-11.3214 63.6215C-11.3214 63.2441 -11.3214 63.2441 -10.9441 62.8667C-10.5667 62.8667 -10.5667 62.8667 -10.1893 63.2441L27.9262 145.901Z" fill="white"/>
</g>
<g opacity="0.55">
<path d="M81.5143 181.002L27.1714 145.901V145.524H27.5488L81.5143 181.002C81.8917 180.625 81.5143 180.625 81.5143 181.002Z" fill="white"/>
</g>
<g opacity="0.6">
<path d="M171.708 87.0223L81.5143 181.003H81.1369V180.625L171.331 87.0223C171.331 86.6449 171.708 86.6449 171.708 87.0223Z" fill="white"/>
</g>
<g opacity="0.59">
<path d="M81.8917 181.002C81.5143 181.002 81.5143 181.002 81.8917 181.002C81.8917 181.38 81.5143 181.38 81.5143 181.002L-8.30237 97.5903V97.2129H-7.92499L81.8917 181.002C81.8917 180.625 81.8917 180.625 81.8917 181.002Z" fill="white"/>
</g>
<g opacity="0.55">
<path d="M81.5143 181.003L-81.8917 107.026C-81.8917 107.026 -82.269 106.649 -81.8917 106.649C-81.8917 106.649 -81.5143 106.271 -81.5143 106.649L81.5143 181.003C81.8917 180.625 81.5143 180.625 81.5143 181.003Z" fill="white"/>
</g>
<g opacity="0.63">
<path d="M33.2095 751.677C32.8322 752.055 32.4548 752.055 32.4548 752.055L-115.101 639.203C-115.479 639.203 -115.479 638.826 -115.101 638.448C-115.101 638.071 -114.724 638.071 -114.346 638.448L33.2095 751.3C33.2095 750.923 33.2095 751.3 33.2095 751.677Z" fill="white"/>
</g>
<g opacity="0.61">
<path d="M379.268 20.5945C378.89 20.9719 378.89 20.5945 378.513 20.5945L331.718 -94.1444V-94.5219H332.095L379.268 20.5945Z" fill="white"/>
</g>
<path opacity="0.51" d="M1017.8 574.662C1018.55 573.153 1020.06 572.775 1021.19 573.153C1022.7 573.908 1023.08 575.417 1022.7 576.55C1021.95 578.059 1020.44 578.437 1019.31 578.059C1017.8 577.304 1017.04 575.795 1017.8 574.662Z" fill="white"/>
<path opacity="0.53" d="M998.927 564.849C999.682 563.34 1001.19 562.962 1002.7 563.339C1004.21 564.094 1004.59 565.604 1004.21 567.114C1003.46 568.624 1001.95 569.001 1000.44 568.624C998.927 567.869 998.173 566.359 998.927 564.849Z" fill="white"/>
<path opacity="0.62" d="M963.076 676.946C963.831 675.436 965.34 674.682 966.85 675.437C968.36 676.191 969.114 677.701 968.359 679.211C967.605 680.721 966.095 681.475 964.586 680.721C963.076 679.966 962.321 678.456 963.076 676.946Z" fill="white"/>
<path opacity="0.62" d="M659.284 603.347C660.039 601.838 661.549 601.083 663.058 601.838C664.568 602.593 665.323 604.102 664.568 605.612C663.813 607.122 662.304 607.877 660.794 607.122C659.285 606.744 658.53 604.857 659.284 603.347Z" fill="white"/>
<path opacity="0.58" d="M609.848 505.215C610.602 503.706 612.112 502.951 613.621 503.706C615.131 504.46 615.886 505.97 615.131 507.48C614.376 508.99 612.867 509.744 611.357 508.99C609.848 508.612 609.47 506.725 609.848 505.215Z" fill="white"/>
<path opacity="0.64" d="M560.788 562.207C561.543 560.698 563.43 559.943 564.939 560.697C566.449 561.452 567.204 563.34 566.449 564.849C565.694 566.359 563.807 567.114 562.298 566.359C560.788 565.604 560.033 563.717 560.788 562.207Z" fill="white"/>
<path opacity="0.6" d="M652.869 525.596C653.624 524.087 655.133 523.332 656.643 524.087C658.152 524.842 658.907 526.351 658.152 527.861C657.398 529.371 655.888 530.126 654.379 529.371C652.869 528.993 652.114 527.106 652.869 525.596Z" fill="white"/>
<path opacity="0.73" d="M375.117 641.09C375.871 639.581 377.758 638.826 379.268 639.581C380.777 640.335 381.532 642.223 380.777 643.732C380.023 645.242 378.136 645.997 376.626 645.242C375.117 644.865 374.362 642.977 375.117 641.09Z" fill="white"/>
<path opacity="0.6" d="M717.779 458.791C718.533 457.282 720.043 456.527 721.552 457.282C723.062 458.036 723.817 459.546 723.062 461.056C722.307 462.566 720.798 463.32 719.288 462.566C717.779 461.811 717.024 460.301 717.779 458.791Z" fill="white"/>
<path opacity="0.76" d="M150.575 701.857C151.33 700.347 153.217 699.592 155.104 700.347C156.613 701.102 157.368 702.989 156.613 704.876C155.858 706.763 153.971 707.141 152.085 706.386C150.575 705.254 149.82 703.366 150.575 701.857Z" fill="white"/>
<path opacity="0.93" d="M1273.66 671.662C1274.42 669.775 1276.68 669.02 1278.57 669.775C1280.45 670.53 1281.21 672.795 1280.45 674.682C1279.7 676.569 1277.43 677.324 1275.55 676.569C1273.66 675.814 1272.91 673.549 1273.66 671.662Z" fill="white"/>
<path opacity="0.76" d="M377.758 598.063C378.513 596.553 380.4 595.799 382.287 596.553C383.796 597.308 384.551 599.195 383.796 601.083C383.042 602.592 381.155 603.347 379.268 602.592C377.758 601.838 377.004 599.573 377.758 598.063Z" fill="white"/>
<path opacity="0.79" d="M406.439 614.293C407.194 612.783 409.081 612.028 410.968 612.783C412.477 613.538 413.232 615.425 412.477 617.312C411.723 618.822 409.836 619.577 407.949 618.822C406.439 618.067 405.684 615.802 406.439 614.293Z" fill="white"/>
<path opacity="0.91" d="M658.53 602.215C659.285 600.328 661.549 599.573 663.436 600.328C665.323 601.083 666.077 603.347 665.323 605.234C664.568 607.122 662.304 607.876 660.417 607.122C658.53 606.367 657.775 604.102 658.53 602.215Z" fill="white"/>
<path opacity="0.79" d="M26.4166 557.678C27.1714 556.168 29.0583 555.414 30.9452 556.168C32.4547 556.923 33.2095 558.81 32.4547 560.698C31.7 562.207 29.8131 562.962 27.9262 562.207C26.4166 561.453 25.6619 559.565 26.4166 557.678Z" fill="white"/>
<path d="M467.952 658.829C468.707 656.942 470.971 656.187 473.236 656.942C475.123 657.697 476.255 659.962 475.123 662.226C474.368 664.114 472.104 664.868 469.839 664.114C467.952 663.359 467.198 661.094 467.952 658.829Z" fill="white"/>
<path opacity="0.96" d="M595.507 629.767C596.262 627.88 598.526 627.125 600.413 627.88C602.3 628.635 603.055 630.9 602.3 632.787C601.545 634.674 599.281 635.429 597.394 634.674C595.507 633.919 594.752 631.655 595.507 629.767Z" fill="white"/>
<path d="M1358.95 540.694C1359.7 538.807 1362.35 537.674 1364.23 538.807C1366.12 539.561 1367.25 542.204 1366.12 544.091C1365.36 545.978 1362.72 547.11 1360.84 545.978C1358.95 545.223 1358.19 542.581 1358.95 540.694Z" fill="white"/>
<path d="M1267.62 681.853C1268.75 679.588 1271.02 678.833 1273.28 679.588C1275.55 680.721 1276.3 682.985 1275.55 685.25C1274.42 687.514 1272.15 688.269 1269.89 687.514C1267.62 686.382 1266.49 684.117 1267.62 681.853Z" fill="white"/>
<path d="M181.898 690.156C182.652 688.269 185.294 687.137 187.181 688.269C189.068 689.024 190.2 691.666 189.068 693.553C188.313 695.44 185.671 696.573 183.785 695.44C181.898 694.685 180.765 692.421 181.898 690.156Z" fill="white"/>
<path d="M1270.26 580.324C1271.02 578.059 1273.66 577.305 1275.93 578.059C1278.19 578.814 1278.94 581.456 1278.19 583.721C1277.43 585.985 1274.79 586.74 1272.53 585.985C1270.26 584.853 1269.13 582.589 1270.26 580.324Z" fill="white"/>
<path d="M1660.1 627.125C1661.23 624.861 1663.5 624.106 1665.76 624.861C1668.02 625.993 1668.78 628.258 1668.02 630.522C1666.89 632.787 1664.63 633.542 1662.36 632.787C1660.1 631.654 1659.34 629.39 1660.1 627.125Z" fill="white"/>
<path d="M1724.25 609.764C1725.39 607.499 1727.65 606.744 1729.91 607.499C1732.18 608.254 1732.93 610.896 1732.18 613.16C1731.05 615.425 1728.78 616.18 1726.52 615.425C1724.25 614.293 1723.5 611.651 1724.25 609.764Z" fill="white"/>
<path opacity="0.7" d="M346.436 248.94C347.19 247.43 349.077 246.675 350.587 247.43C352.096 248.185 352.851 250.072 352.096 251.582C351.342 253.092 349.455 253.846 347.945 253.092C346.436 252.714 345.681 250.827 346.436 248.94Z" fill="white"/>
<path opacity="0.94" d="M176.614 488.231C177.369 486.344 179.633 485.589 181.52 486.344C183.407 487.099 184.162 489.363 183.407 491.25C182.652 493.137 180.388 493.892 178.501 493.137C176.614 492.383 175.86 490.118 176.614 488.231Z" fill="white"/>
<path d="M64.1548 660.339C64.9095 658.075 67.5512 657.32 69.8155 658.075C72.0798 658.829 72.8345 661.471 72.0798 663.736C71.325 666.001 68.6833 666.755 66.419 666.001C64.1548 665.246 63.4 662.226 64.1548 660.339Z" fill="white"/>
<path d="M271.337 541.449C272.092 539.562 274.356 538.429 276.62 539.562C278.507 540.316 279.639 542.581 278.507 544.846C277.752 546.733 275.488 547.865 273.224 546.733C271.337 545.6 270.205 543.336 271.337 541.449Z" fill="white"/>
<path d="M390.212 503.328C390.967 501.441 393.231 500.309 395.495 501.441C397.382 502.196 398.514 504.46 397.382 506.725C396.627 508.612 394.363 509.744 392.099 508.612C390.212 507.48 389.457 505.215 390.212 503.328Z" fill="white"/>
<path d="M370.588 675.436C371.72 673.172 373.985 672.417 376.249 673.172C378.513 674.304 379.268 676.569 378.513 678.833C377.381 681.098 375.117 681.853 372.852 681.098C370.588 680.343 369.833 677.701 370.588 675.436Z" fill="white"/>
<path d="M1149.13 624.861C1150.26 622.596 1152.9 621.464 1154.79 622.596C1157.05 623.729 1158.18 626.371 1157.05 628.258C1155.92 630.522 1153.28 631.655 1151.39 630.522C1149.13 629.767 1147.99 627.125 1149.13 624.861Z" fill="white"/>
<path d="M1676.7 609.009C1677.84 606.744 1680.48 605.612 1682.74 606.744C1685.01 607.876 1686.14 610.518 1685.01 612.783C1683.87 615.047 1681.23 616.18 1678.97 615.048C1676.7 614.293 1675.95 611.273 1676.7 609.009Z" fill="white"/>
<path opacity="0.7" d="M349.077 199.874C349.832 198.364 351.719 197.609 353.229 198.364C354.738 199.119 355.493 201.006 354.738 202.516C353.983 204.026 352.096 204.781 350.587 204.026C349.077 203.271 348.323 201.384 349.077 199.874Z" fill="white"/>
<path opacity="0.93" d="M324.925 394.628C325.68 392.741 327.944 391.986 329.831 392.741C331.718 393.496 332.473 395.76 331.718 397.648C330.963 399.535 328.699 400.29 326.812 399.535C324.925 398.78 323.793 396.515 324.925 394.628Z" fill="white"/>
<path d="M276.62 521.445C277.375 519.558 279.639 518.803 281.904 519.558C283.79 520.312 284.545 522.577 283.79 524.842C283.036 526.729 280.771 527.484 278.507 526.729C276.62 525.596 275.865 523.332 276.62 521.445Z" fill="white"/>
<path d="M45.6631 671.662C46.7952 669.398 49.0595 668.643 51.3238 669.398C53.5881 670.53 54.3429 672.794 53.5881 675.059C52.4559 677.324 50.1917 678.078 47.9274 677.324C45.6631 676.191 44.531 673.927 45.6631 671.662Z" fill="white"/>
<path d="M443.045 473.511C443.8 471.624 446.442 470.492 448.329 471.624C450.216 472.379 451.348 475.021 450.216 476.908C449.461 478.795 446.819 479.928 444.932 478.795C443.045 478.04 441.913 475.776 443.045 473.511Z" fill="white"/>
<path d="M629.849 456.149C630.603 454.262 633.245 453.13 635.132 454.262C637.019 455.017 638.151 457.659 637.019 459.546C636.264 461.433 633.623 462.566 631.736 461.433C629.849 460.678 629.094 458.414 629.849 456.149Z" fill="white"/>
<path d="M624.565 659.584C625.698 657.32 628.339 656.188 630.226 657.32C632.49 658.452 633.623 661.094 632.491 662.981C631.358 665.246 628.717 666.378 626.83 665.246C624.566 664.491 623.433 661.849 624.565 659.584Z" fill="white"/>
<path d="M1051.01 576.55C1052.14 574.285 1054.78 573.153 1056.67 574.285C1058.93 575.417 1060.06 578.059 1058.93 579.947C1057.8 582.211 1055.16 583.343 1053.27 582.211C1051.01 581.456 1049.87 578.814 1051.01 576.55Z" fill="white"/>
<path d="M993.267 593.157C994.399 590.892 997.04 589.76 999.305 590.892C1001.57 592.024 1002.7 594.666 1001.57 596.931C1000.44 599.195 997.795 600.328 995.531 599.195C993.267 598.063 992.135 595.421 993.267 593.157Z" fill="white"/>
<path d="M1246.18 522.473C1247.37 520.271 1246.55 517.524 1244.35 516.337C1242.15 515.15 1239.4 515.973 1238.21 518.175C1237.02 520.377 1237.85 523.125 1240.05 524.311C1242.25 525.498 1245 524.675 1246.18 522.473Z" fill="white"/>
<path d="M1127.99 685.25C1129.12 682.985 1131.77 681.853 1134.03 682.985C1136.29 684.117 1137.43 686.759 1136.29 689.024C1135.16 691.289 1132.52 692.421 1130.26 691.289C1127.61 690.534 1126.86 687.892 1127.99 685.25Z" fill="white"/>
<path opacity="0.98" d="M186.804 403.309C187.558 401.422 189.823 400.667 191.71 401.422C193.596 402.177 194.351 404.441 193.596 406.328C192.842 408.216 190.577 408.97 188.69 408.216C186.804 407.461 185.671 405.196 186.804 403.309Z" fill="white"/>
<path opacity="0.97" d="M340.775 331.22C341.53 329.333 343.794 328.578 345.681 329.333C347.568 330.087 348.323 332.352 347.568 334.239C346.813 336.126 344.549 336.881 342.662 336.126C340.775 335.372 339.643 333.107 340.775 331.22Z" fill="white"/>
<path d="M281.904 438.41C282.658 436.523 284.923 435.391 287.187 436.523C289.074 437.278 290.206 439.542 289.074 441.807C288.319 443.694 286.055 444.826 283.79 443.694C281.904 442.562 280.771 440.297 281.904 438.41Z" fill="white"/>
<path d="M0.502792 624.258C1.74332 622.086 0.988436 619.32 -1.18324 618.079C-3.35491 616.838 -6.12103 617.593 -7.36156 619.765C-8.60208 621.937 -7.84725 624.704 -5.67558 625.944C-3.50391 627.185 -0.737735 626.43 0.502792 624.258Z" fill="white"/>
<path d="M30.5679 700.724C31.7 698.46 34.3417 697.327 36.2286 698.46C38.4929 699.592 39.625 702.234 38.4929 704.121C37.3607 706.386 34.719 707.518 32.8321 706.386C30.5679 705.631 29.8131 702.989 30.5679 700.724Z" fill="white"/>
<path d="M600.036 377.644C600.79 375.757 603.432 374.624 605.319 375.757C607.206 376.512 608.338 379.154 607.206 381.041C606.451 382.928 603.809 384.06 601.923 382.928C599.658 382.173 598.904 379.531 600.036 377.644Z" fill="white"/>
<path d="M315.113 589.76C316.245 587.495 318.887 586.363 320.774 587.495C323.038 588.628 324.17 591.27 323.038 593.157C321.906 595.421 319.264 596.554 317.377 595.421C315.113 594.289 313.981 592.024 315.113 589.76Z" fill="white"/>
<path d="M796.274 406.706C797.029 404.441 799.67 403.686 801.934 404.441C804.199 405.196 804.954 407.838 804.199 410.103C803.444 412.367 800.802 413.122 798.538 412.367C796.274 411.235 795.519 408.593 796.274 406.706Z" fill="white"/>
<path opacity="0.82" d="M690.23 137.22C690.985 135.333 693.249 134.578 694.758 135.333C696.645 136.088 697.4 138.353 696.645 139.862C695.891 141.75 693.626 142.505 692.117 141.75C690.23 140.995 689.098 138.73 690.23 137.22Z" fill="white"/>
<path opacity="0.83" d="M764.574 113.442C765.329 111.555 767.593 110.8 769.102 111.555C770.989 112.31 771.744 114.575 770.989 116.084C770.234 117.972 767.97 118.726 766.461 117.972C764.574 117.217 763.819 115.33 764.574 113.442Z" fill="white"/>
<path d="M165.293 527.106C166.425 524.842 169.067 523.709 170.954 524.842C173.218 525.974 174.35 528.616 173.218 530.503C172.086 532.768 169.444 533.9 167.557 532.768C165.293 532.013 164.538 529.371 165.293 527.106Z" fill="white"/>
<path d="M109.063 584.476C110.195 582.211 112.837 581.079 115.101 582.211C117.365 583.343 118.498 585.985 117.365 588.25C116.233 590.515 113.592 591.647 111.327 590.515C109.063 589.76 108.308 586.74 109.063 584.476Z" fill="white"/>
<path d="M240.392 548.242C241.524 545.978 244.166 544.846 246.43 545.978C248.694 547.11 249.826 549.752 248.694 552.017C247.562 554.281 244.92 555.414 242.656 554.281C240.392 553.149 239.26 550.507 240.392 548.242Z" fill="white"/>
<path d="M389.457 596.176C390.589 593.912 393.231 592.779 395.495 593.911C397.76 595.044 398.892 597.686 397.76 599.95C396.627 602.215 393.986 603.347 391.721 602.215C389.457 601.083 388.325 598.441 389.457 596.176Z" fill="white"/>
<path d="M695.136 459.546C696.268 457.282 698.91 456.149 700.796 457.282C703.061 458.414 704.193 461.056 703.061 462.943C701.929 465.208 699.287 466.34 697.4 465.208C695.136 464.453 694.004 461.811 695.136 459.546Z" fill="white"/>
<path d="M447.951 640.713C449.083 638.448 451.725 637.316 454.367 638.448C456.631 639.581 457.763 642.223 456.631 644.865C455.499 647.129 452.857 648.262 450.216 647.129C447.951 645.997 446.819 643.355 447.951 640.713Z" fill="white"/>
<path d="M281.904 333.862C282.658 331.975 285.3 330.842 287.187 331.975C289.074 332.73 290.206 335.372 289.074 337.259C288.319 339.146 285.677 340.278 283.79 339.146C281.904 338.391 280.771 336.126 281.904 333.862Z" fill="white"/>
<path d="M9.43453 608.631C10.5667 605.989 13.5857 604.857 15.85 605.989C18.4917 607.122 19.6238 610.141 18.4917 612.406C17.3595 615.048 14.3405 616.18 12.0762 615.048C9.43453 613.915 8.30238 611.273 9.43453 608.631Z" fill="white"/>
<path d="M443.8 480.682C444.932 478.418 447.574 477.285 450.215 478.418C452.48 479.55 453.612 482.192 452.48 484.834C451.348 487.099 448.706 488.231 446.064 487.099C443.8 485.966 442.668 483.324 443.8 480.682Z" fill="white"/>
<path d="M104.912 307.442C106.044 305.177 108.686 304.045 110.573 305.177C112.837 306.309 113.969 308.951 112.837 310.839C111.705 313.103 109.063 314.235 107.176 313.103C104.912 312.348 103.78 309.706 104.912 307.442Z" fill="white"/>
<path d="M265.299 291.212C266.431 288.948 268.695 288.193 270.96 288.948C273.224 290.08 273.979 292.344 273.224 294.609C272.092 296.874 269.827 297.629 267.563 296.874C265.299 295.741 264.167 293.099 265.299 291.212Z" fill="white"/>
<path d="M246.809 343.228C248.036 341.048 247.264 338.286 245.084 337.059C242.905 335.832 240.143 336.604 238.916 338.784C237.689 340.964 238.461 343.726 240.641 344.953C242.82 346.18 245.582 345.408 246.809 343.228Z" fill="white"/>
<path d="M288.696 313.481C289.829 311.216 292.47 310.084 294.357 311.216C296.621 312.348 297.754 314.99 296.621 316.878C295.489 319.142 292.848 320.274 290.961 319.142C288.696 318.387 287.942 315.745 288.696 313.481Z" fill="white"/>
<path d="M169.067 502.573C170.199 500.309 172.84 499.176 175.482 500.309C177.746 501.441 178.879 504.083 177.746 506.725C176.614 508.99 173.973 510.122 171.331 508.99C169.067 507.857 167.934 505.215 169.067 502.573Z" fill="white"/>
<path d="M344.926 356.885C346.058 354.62 348.7 353.488 350.964 354.62C353.229 355.753 354.361 358.395 353.229 360.659C352.096 362.924 349.455 364.056 347.19 362.924C344.926 361.792 343.794 359.15 344.926 356.885Z" fill="white"/>
<path d="M280.771 567.491C281.904 564.849 284.923 563.717 287.564 564.849C290.206 565.982 291.338 569.001 290.206 571.643C289.074 574.285 286.055 575.417 283.413 574.285C280.771 573.153 279.639 570.133 280.771 567.491Z" fill="white"/>
<path d="M414.742 506.348C415.874 503.706 418.893 502.573 421.157 503.706C423.799 504.838 424.931 507.857 423.799 510.122C422.667 512.764 419.648 513.896 417.383 512.764C414.742 511.632 413.61 508.612 414.742 506.348Z" fill="white"/>
<path d="M495.879 484.834C497.011 482.192 500.03 481.06 502.671 482.192C505.313 483.324 506.445 486.344 505.313 488.986C504.181 491.628 501.162 492.76 498.52 491.628C495.879 490.496 494.746 487.476 495.879 484.834Z" fill="white"/>
<path d="M602.3 573.53C603.432 570.888 606.829 569.756 609.47 570.888C612.112 572.02 613.244 575.417 612.112 578.059C610.98 580.701 607.583 581.834 604.942 580.701C602.3 579.569 601.168 576.172 602.3 573.53Z" fill="white"/>
<path d="M216.994 227.804C218.126 225.539 220.39 224.784 222.655 225.539C224.919 226.672 225.674 228.936 224.919 231.201C223.787 233.465 221.523 234.22 219.258 233.465C216.994 232.333 215.862 230.068 216.994 227.804Z" fill="white"/>
<path d="M283.79 310.084C284.923 307.819 287.564 306.687 289.829 307.819C292.093 308.951 293.225 311.593 292.093 313.858C290.961 316.123 288.319 317.255 286.055 316.123C283.791 314.99 283.036 312.348 283.79 310.084Z" fill="white"/>
<path d="M25.2845 493.515C26.4166 490.873 29.4357 489.741 32.0774 490.873C34.719 492.005 35.8512 495.025 34.719 497.667C33.5869 500.309 30.5678 501.441 27.9262 500.309C25.2845 499.554 24.1524 496.157 25.2845 493.515Z" fill="white"/>
<path d="M373.23 502.573C374.362 499.931 377.381 498.799 380.023 499.931C382.664 501.064 383.796 504.083 382.664 506.725C381.532 509.367 378.513 510.499 375.871 509.367C373.23 508.235 372.098 505.215 373.23 502.573Z" fill="white"/>
<path d="M272.092 600.705C273.224 597.686 276.62 596.554 279.639 598.063C282.658 599.196 283.79 602.592 282.281 605.612C281.149 608.631 277.752 609.764 274.733 608.254C272.092 606.744 270.96 603.725 272.092 600.705Z" fill="white"/>
<path d="M16.2274 484.457C17.3595 481.815 20.3786 480.682 23.0202 481.815C25.6619 482.947 26.794 485.966 25.6619 488.608C24.5298 491.25 21.5107 492.383 18.869 491.25C16.2274 490.496 15.0952 487.099 16.2274 484.457Z" fill="white"/>
<path d="M23.0202 144.014C24.1524 141.75 26.7941 140.617 29.0583 141.75C31.3226 142.882 32.4548 145.524 31.3226 147.789C30.1905 150.053 27.5488 151.185 25.2845 150.053C23.0202 148.921 22.2655 146.279 23.0202 144.014Z" fill="white"/>
<path d="M167.18 85.1351C168.312 82.8705 170.954 81.7382 173.595 82.8705C175.86 84.0028 176.992 86.6448 175.859 89.2868C174.727 91.5514 172.086 92.6837 169.444 91.5514C167.18 90.4191 166.048 87.3996 167.18 85.1351Z" fill="white"/>
<path d="M76.9857 178.738C78.1178 176.096 81.1369 174.964 83.4012 176.096C86.0429 177.228 87.175 180.248 86.0428 182.512C84.9107 185.154 81.8917 186.287 79.6274 185.154C76.9857 184.022 75.8536 181.38 76.9857 178.738Z" fill="white"/>
<path d="M374.362 18.3299C375.494 15.6879 378.513 14.5557 380.777 15.6879C383.419 16.8202 384.551 19.8397 383.419 22.1043C382.287 24.7463 379.268 25.8785 377.004 24.7463C374.362 23.9914 373.23 20.972 374.362 18.3299Z" fill="white"/>
<g opacity="0.35">
<path d="M936.66 85.8899C937.037 85.8899 937.037 85.8899 936.66 85.8899L955.906 95.3257V95.7031H955.529L936.66 85.8899C936.66 86.2673 936.66 86.2673 936.66 85.8899Z" fill="white"/>
</g>
<g opacity="0.37">
<path d="M1295.17 57.2052C1295.17 56.8278 1295.17 56.8278 1295.17 57.2052C1295.55 56.8278 1295.55 56.8278 1295.17 57.2052L1301.96 134.956C1301.96 134.956 1301.96 134.956 1301.96 135.333C1301.96 135.333 1301.96 135.333 1301.59 135.333L1295.17 57.2052Z" fill="white"/>
</g>
<g opacity="0.32">
<path d="M1295.17 57.2052C1295.17 56.8278 1295.17 56.8278 1295.17 57.2052L1393.67 98.3451C1393.67 98.3451 1393.67 98.3451 1393.67 98.7225C1393.67 98.7225 1393.67 98.7225 1393.29 98.7225L1295.17 57.2052Z" fill="white"/>
</g>
<g opacity="0.36">
<path d="M1301.59 134.956C1301.59 134.578 1301.96 134.578 1301.59 134.956L1344.61 155.337C1344.61 155.337 1344.61 155.337 1344.61 155.715C1344.61 155.715 1344.61 155.715 1344.23 155.715L1301.59 134.956Z" fill="white"/>
</g>
<g opacity="0.34">
<path d="M1301.59 134.956C1301.59 134.578 1301.59 134.578 1301.59 134.956L1393.67 98.3451C1393.67 98.3451 1393.67 98.3451 1394.05 98.3451C1394.05 98.3451 1394.05 98.3451 1394.05 98.7225L1301.59 134.956Z" fill="white"/>
</g>
<g opacity="0.34">
<path d="M1236.68 201.761L1301.59 134.578C1301.59 134.578 1301.59 134.578 1301.96 134.578C1301.96 134.578 1301.96 134.578 1301.96 134.956L1236.68 201.761C1236.68 202.139 1236.68 202.139 1236.68 201.761Z" fill="white"/>
</g>
<g opacity="0.38">
<path d="M1547.64 46.2597L1579.34 19.4622C1579.34 19.4622 1579.34 19.4622 1579.72 19.4622C1579.72 19.4622 1579.72 19.4622 1579.72 19.8396L1547.64 46.2597Z" fill="white"/>
</g>
<g opacity="0.47">
<path d="M1578.96 19.0847C1579.34 19.0847 1579.34 19.0847 1579.34 19.0847L1576.7 62.1118C1576.7 62.1118 1576.7 62.4892 1576.32 62.4892C1576.32 62.4892 1575.94 62.4892 1575.94 62.1118L1578.96 19.0847Z" fill="white"/>
</g>
<g opacity="0.52">
<path d="M1547.26 46.2598C1547.26 45.8823 1547.26 45.8823 1547.26 46.2598C1547.26 46.2598 1547.64 45.8823 1547.64 46.2598L1576.32 62.4893V62.8667C1576.32 62.8667 1575.94 63.2441 1575.94 62.8667L1547.26 46.6372C1547.26 46.2598 1547.26 46.2598 1547.26 46.2598Z" fill="white"/>
</g>
<g opacity="0.69">
<path d="M1485.37 0.968109L1527.64 -46.9656H1528.02V-46.5882L1485.75 0.968109H1485.37C1485.37 1.34554 1485.37 1.34554 1485.37 0.968109Z" fill="white"/>
</g>
<g opacity="0.58">
<path d="M1295.17 57.96L1358.19 30.4076H1358.57V30.785L1295.17 57.96C1295.17 58.3375 1295.17 58.3375 1295.17 57.96Z" fill="white"/>
</g>
<g opacity="0.55">
<path d="M315.49 -108.487C315.49 -108.864 315.49 -108.864 315.49 -108.487C315.868 -108.487 315.868 -108.487 315.868 -108.487L293.225 33.0496C293.225 33.0496 293.225 33.4271 292.848 33.4271C292.848 33.4271 292.47 33.4271 292.47 33.0496L315.49 -108.487Z" fill="white"/>
</g>
<g opacity="0.53">
<path d="M1358.19 30.4076L1485.75 0.968018H1486.13V1.34544L1358.19 30.4076Z" fill="white"/>
</g>
<g opacity="0.53">
<path d="M594.375 119.481C594.375 119.104 594.375 119.104 594.375 119.481L683.059 79.4736H683.437V79.8511L594.375 119.481Z" fill="white"/>
</g>
<g opacity="0.6">
<path d="M685.324 -22.0552C685.701 -22.0552 685.701 -22.0552 685.701 -22.0552L683.437 79.4736C683.437 79.4736 683.437 79.8511 683.06 79.8511C683.06 79.8511 682.682 79.8511 682.682 79.4736L685.324 -22.0552Z" fill="white"/>
</g>
<g opacity="0.58">
<path d="M1889.17 -0.164215L1951.81 -109.242H1952.19V-108.864L1889.55 0.213226C1889.55 0.213226 1889.17 0.213219 1889.17 -0.164215Z" fill="white"/>
</g>
<g opacity="0.59">
<path d="M1771.43 -30.3586C1771.8 -30.3586 1771.8 -30.3586 1771.43 -30.3586L1889.17 -0.541624C1889.17 -0.541624 1889.55 -0.54163 1889.17 -0.1642C1889.17 -0.1642 1889.17 0.21323 1888.79 -0.1642L1771.43 -30.3586C1771.8 -29.9812 1771.43 -29.9812 1771.43 -30.3586Z" fill="white"/>
</g>
<g opacity="0.54">
<path d="M879.675 -61.6854C879.675 -62.0629 879.675 -62.0629 879.675 -61.6854C880.052 -61.6854 880.052 -61.6854 880.052 -61.6854L902.318 83.6254V84.0028H901.941L879.675 -61.6854Z" fill="white"/>
</g>
<g opacity="0.59">
<path d="M803.821 34.9369L879.675 -62.0628H880.052V-61.6854L804.199 35.3143C804.199 35.3143 804.199 35.3143 803.821 34.9369C803.821 35.3143 803.821 35.3143 803.821 34.9369Z" fill="white"/>
</g>
<g opacity="0.54">
<path d="M275.865 50.7889L292.848 32.6722H293.225V33.0497L275.865 50.7889C276.243 51.1663 275.865 51.1663 275.865 50.7889Z" fill="white"/>
</g>
<g opacity="0.72">
<path d="M228.693 50.4115C228.693 50.034 228.693 50.034 228.693 50.4115L292.848 32.6722C293.225 32.6722 293.225 32.6722 293.225 33.0497C293.225 33.4271 293.225 33.4271 292.848 33.4271L228.693 50.7889C229.07 50.7889 228.693 50.7889 228.693 50.4115Z" fill="white"/>
</g>
<g opacity="0.5">
<path d="M1607.64 411.235C1608.02 411.235 1608.4 411.235 1608.4 411.235L1605.76 460.679C1605.76 460.679 1605.76 461.056 1605.38 461.056C1605.38 461.056 1605 461.056 1605 460.679L1607.64 411.235Z" fill="white"/>
</g>
<g opacity="0.55">
<path d="M1777.09 171.944C1777.46 171.944 1777.46 171.944 1777.46 171.944L1767.28 256.866C1767.28 256.866 1767.28 257.243 1766.9 256.866C1766.9 256.866 1766.52 256.866 1766.9 256.489L1777.09 171.944Z" fill="white"/>
</g>
<g opacity="0.63">
<path d="M1889.17 -0.164242C1889.17 -0.541672 1889.17 -0.541672 1889.17 -0.164242L1984.27 -36.0201H1984.65V-35.6427L1889.55 -0.164242C1889.17 0.213188 1889.17 0.213188 1889.17 -0.164242C1888.79 -0.164242 1888.79 -0.164242 1889.17 -0.164242Z" fill="white"/>
</g>
<g opacity="0.6">
<path d="M1682.36 118.726C1682.74 118.726 1682.74 118.726 1682.74 118.726L1672.18 221.765C1672.18 221.765 1672.18 222.142 1671.8 222.142C1671.8 222.142 1671.42 222.142 1671.42 221.765L1682.36 118.726Z" fill="white"/>
</g>
<g opacity="0.83">
<path d="M1681.99 118.349C1681.99 117.972 1682.36 117.972 1682.74 117.972C1683.12 117.972 1683.5 118.349 1683.12 118.726L1677.46 138.73C1677.46 139.108 1677.08 139.485 1676.7 139.108C1676.33 139.108 1675.95 138.73 1676.33 138.353L1681.99 118.349Z" fill="white"/>
</g>
<g opacity="0.55">
<path d="M1563.11 156.847L1682.36 118.726H1682.74V119.104L1563.11 156.847Z" fill="white"/>
</g>
<g opacity="0.56">
<path d="M1563.11 156.847C1563.11 156.469 1563.49 156.469 1563.11 156.847L1672.18 221.765V222.142H1671.8L1563.11 156.847Z" fill="white"/>
</g>
<g opacity="0.55">
<path d="M1510.66 186.287L1563.49 156.469H1563.87V156.847L1510.66 186.287C1510.66 186.664 1510.66 186.664 1510.66 186.287C1510.28 186.664 1510.28 186.287 1510.66 186.287Z" fill="white"/>
</g>
<g opacity="0.59">
<path d="M1563.11 156.847L1677.08 138.73C1677.08 138.73 1677.46 138.73 1677.46 139.108C1677.46 139.108 1677.46 139.485 1677.08 139.485L1563.11 156.847Z" fill="white"/>
</g>
<g opacity="0.55">
<path d="M1582.36 -15.6389C1582.74 -15.6389 1582.74 -15.6389 1582.74 -15.6389L1638.21 70.0378V70.4153H1637.83L1582.36 -15.6389Z" fill="white"/>
</g>
<g opacity="0.56">
<path d="M1328.38 0.213196L1403.48 -122.829H1403.86V-122.452L1328.76 0.590622C1328.76 0.590622 1328.76 0.590622 1328.38 0.213196Z" fill="white"/>
</g>
<g opacity="0.53">
<path d="M953.264 -88.483C953.642 -88.483 953.642 -88.483 953.642 -88.483L960.057 66.641C960.057 66.641 960.057 67.0184 959.68 67.0184C959.68 67.0184 959.302 67.0184 959.302 66.641L953.264 -88.483Z" fill="white"/>
</g>
<g opacity="0.53">
<path d="M824.955 -25.452C824.955 -25.8295 824.955 -25.8295 824.955 -25.452C825.332 -25.452 825.332 -25.452 825.332 -25.452L804.199 35.3143C804.199 35.3143 804.199 35.3143 803.821 35.3143C803.821 35.3143 803.821 35.3143 803.821 34.9369L824.955 -25.452Z" fill="white"/>
</g>
<g opacity="0.56">
<path d="M714.759 141.372C714.759 140.995 714.759 140.995 714.759 141.372L803.821 34.9368H804.199V35.3142L715.137 141.372H714.759Z" fill="white"/>
</g>
<g opacity="0.61">
<path d="M803.821 34.9368C803.821 34.9368 804.199 34.5594 804.199 34.9368L902.318 83.2479V83.6253C902.318 83.6253 901.94 84.0028 901.94 83.6253L803.821 34.9368C803.821 35.3142 803.821 35.3142 803.821 34.9368Z" fill="white"/>
</g>
<g opacity="0.59">
<path d="M1628.78 265.169C1629.15 265.169 1629.15 265.169 1629.15 265.169L1613.3 328.955C1613.3 328.955 1613.3 329.333 1612.93 329.333C1612.93 329.333 1612.55 329.333 1612.55 328.955L1628.78 265.169Z" fill="white"/>
</g>
<g opacity="0.5">
<path d="M1628.78 265.547C1628.78 265.169 1628.78 265.169 1628.78 265.547L1766.9 256.866C1766.9 256.866 1766.9 256.866 1767.27 256.866C1767.27 256.866 1767.27 256.866 1767.27 257.243L1628.78 265.547Z" fill="white"/>
</g>
<g opacity="0.65">
<path d="M1676.7 138.73C1676.7 138.353 1676.7 138.353 1676.7 138.73C1677.08 138.73 1677.46 138.73 1677.08 138.73L1672.18 221.765C1672.18 221.765 1672.18 222.142 1671.8 222.142C1671.8 222.142 1671.42 222.142 1671.42 221.765L1676.7 138.73Z" fill="white"/>
</g>
<g opacity="0.64">
<path d="M1323.1 203.648C1323.48 203.648 1323.48 203.648 1323.1 203.648C1323.48 203.271 1323.48 203.648 1323.48 203.648L1353.67 282.154V282.531H1353.29L1323.1 203.648C1323.1 204.026 1323.1 204.026 1323.1 203.648Z" fill="white"/>
</g>
<g opacity="0.59">
<path d="M901.94 83.2479L959.68 66.2635H960.057V66.641L901.94 83.2479C902.318 83.6254 901.94 83.6254 901.94 83.2479Z" fill="white"/>
</g>
<g opacity="0.53">
<path d="M1671.8 221.765C1672.18 221.387 1672.18 221.765 1671.8 221.765V221.765Z" fill="white"/>
</g>
<g opacity="0.53">
<path d="M1843.88 75.3219L1922.38 -40.5493H1922.76V-40.1719L1843.88 75.3219Z" fill="white"/>
</g>
<g opacity="0.53">
<path d="M1563.49 63.6216L1638.21 70.0379C1638.21 70.0379 1638.59 70.0379 1638.59 70.4153C1638.59 70.4153 1638.59 70.7928 1638.21 70.7928L1563.49 63.6216C1563.49 63.999 1563.49 63.999 1563.49 63.6216Z" fill="white"/>
</g>
<g opacity="0.64">
<path d="M1637.83 70.0379C1637.83 70.0379 1638.21 69.6604 1638.21 70.0379L1712.93 111.555C1712.93 111.555 1713.31 111.933 1712.93 111.933C1712.93 111.933 1712.55 112.31 1712.55 111.933L1637.83 70.4153C1637.83 70.4153 1637.83 70.4153 1637.83 70.0379Z" fill="white"/>
</g>
<g opacity="0.55">
<path d="M1157.05 253.469L1258.19 200.251H1258.57V200.629L1157.05 253.469C1157.05 253.847 1157.05 253.847 1157.05 253.469Z" fill="white"/>
</g>
<g opacity="0.52">
<path d="M1189.13 546.733L1263.85 522.955H1264.23V523.332L1189.13 546.733C1189.5 547.11 1189.13 547.11 1189.13 546.733Z" fill="white"/>
</g>
<g opacity="0.56">
<path d="M1712.55 111.555L1788.03 132.691C1788.03 132.691 1788.41 132.691 1788.03 133.069C1788.03 133.069 1788.03 133.446 1787.65 133.069L1712.55 111.555C1712.55 111.933 1712.55 111.933 1712.55 111.555Z" fill="white"/>
</g>
<g opacity="0.69">
<path d="M1787.65 132.691L1843.51 74.9445C1843.51 74.9445 1843.88 74.9445 1844.26 74.9445C1844.26 74.9445 1844.26 75.3219 1844.26 75.6993L1788.03 133.446C1788.03 133.446 1787.65 133.446 1787.28 133.446C1787.28 133.069 1787.28 132.691 1787.65 132.691Z" fill="white"/>
</g>
<g opacity="0.54">
<path d="M1712.55 111.555L1843.88 74.9445H1844.26V75.3219L1712.55 111.555C1712.93 111.933 1712.55 111.933 1712.55 111.555Z" fill="white"/>
</g>
<g opacity="0.63">
<path d="M1712.55 111.555C1712.55 111.555 1712.93 111.178 1712.93 111.555L1783.88 156.847C1783.88 156.847 1784.26 157.224 1783.88 157.224C1783.88 157.224 1783.5 157.602 1783.5 157.224L1712.55 111.933V111.555Z" fill="white"/>
</g>
<g opacity="0.53">
<path d="M1563.49 63.6216C1563.87 63.6216 1563.87 63.6216 1563.87 63.6216L1538.2 153.45C1538.2 153.45 1538.2 153.45 1537.83 153.45C1537.83 153.45 1537.83 153.45 1537.83 153.073L1563.49 63.6216Z" fill="white"/>
</g>
<g opacity="0.58">
<path d="M1508.77 178.738L1563.49 63.6216H1563.87C1563.87 63.6216 1564.24 63.999 1563.87 63.999L1509.15 179.115C1509.15 179.115 1508.77 179.115 1508.77 178.738C1508.77 179.115 1508.77 179.115 1508.77 178.738Z" fill="white"/>
</g>
<g opacity="0.66">
<path d="M1504.62 18.7074C1504.62 18.33 1505 18.33 1505.37 18.7074L1563.87 63.6216C1563.87 63.6216 1564.24 63.9991 1563.87 63.9991C1563.87 63.9991 1563.49 64.3765 1563.49 63.9991L1505 19.0848C1504.62 19.0848 1504.62 19.0848 1504.62 18.7074Z" fill="white"/>
</g>
<g opacity="0.55">
<path d="M1504.62 18.7073C1505 18.7073 1505 18.7073 1505 18.7073L1537.83 153.073V153.45H1537.45L1504.62 18.7073C1504.62 19.0847 1504.62 19.0847 1504.62 18.7073Z" fill="white"/>
</g>
<g opacity="0.54">
<path d="M1504.62 18.7073C1505 18.7073 1505 18.7073 1505 18.7073L1508.77 178.738C1508.77 178.738 1508.77 179.115 1508.39 179.115C1508.39 179.115 1508.01 179.115 1508.01 178.738L1504.62 18.7073C1504.62 19.0847 1504.62 19.0847 1504.62 18.7073Z" fill="white"/>
</g>
<g opacity="0.54">
<path d="M1671.42 325.936C1671.8 325.936 1671.8 325.936 1671.42 325.936L1688.03 368.963V369.34H1687.65L1671.42 325.936C1671.42 326.313 1671.42 326.313 1671.42 325.936Z" fill="white"/>
</g>
<g opacity="0.67">
<path d="M1508.39 178.738L1537.45 153.073H1537.83V153.45L1508.77 178.738H1508.39Z" fill="white"/>
</g>
<g opacity="0.58">
<path d="M1699.72 -60.1757C1700.1 -60.1757 1700.48 -60.1757 1700.48 -60.1757L1680.1 58.3375L1679.72 58.715L1679.35 58.3375L1699.72 -60.1757Z" fill="white"/>
</g>
<g opacity="0.56">
<path d="M1736.33 431.994L1848.41 351.979H1848.79V352.356L1736.33 431.994Z" fill="white"/>
</g>
<g opacity="0.55">
<path d="M1714.06 320.652C1714.06 320.274 1714.44 320.274 1714.06 320.652L1848.41 352.356C1848.41 352.356 1848.79 352.356 1848.41 352.733C1848.41 352.733 1848.41 353.111 1848.03 352.733L1714.06 320.652Z" fill="white"/>
</g>
<g opacity="0.54">
<path d="M1688.02 368.963L1848.41 352.356C1848.41 352.356 1848.79 352.356 1848.79 352.733C1848.79 352.733 1848.79 353.111 1848.41 353.111L1688.02 368.963Z" fill="white"/>
</g>
<g opacity="0.67">
<path d="M1687.65 368.963C1688.02 368.585 1688.02 368.585 1688.4 368.963L1736.71 432.371V432.749H1736.33L1687.65 368.963Z" fill="white"/>
</g>
<g opacity="0.58">
<path d="M1664.25 346.317H1664.63L1688.4 368.963V369.34H1688.02L1664.25 346.317Z" fill="white"/>
</g>
<g opacity="0.68">
<path d="M1687.65 368.963L1714.06 320.652C1714.06 320.652 1714.44 320.274 1714.44 320.652C1714.44 320.652 1714.82 321.029 1714.44 321.029L1688.02 369.34C1688.02 369.34 1687.65 369.718 1687.65 369.34V368.963Z" fill="white"/>
</g>
<g opacity="0.6">
<path d="M1668.78 349.714L1714.06 320.274H1714.44V320.652L1669.16 350.091C1669.16 350.091 1669.16 350.091 1668.78 349.714C1668.78 350.091 1668.78 350.091 1668.78 349.714Z" fill="white"/>
</g>
<g opacity="0.54">
<path d="M1714.06 320.652C1714.06 320.274 1714.06 320.274 1714.06 320.652C1714.44 320.652 1714.44 320.652 1714.44 320.652L1736.71 432.371V432.749H1736.33L1714.06 320.652Z" fill="white"/>
</g>
<g opacity="0.68">
<path d="M1663.87 346.317C1663.87 345.94 1664.25 345.94 1663.87 346.317L1714.06 320.274H1714.44V320.652L1664.63 346.317C1664.25 346.695 1664.25 346.695 1663.87 346.317Z" fill="white"/>
</g>
<g opacity="0.8">
<path d="M1663.87 345.94C1664.25 345.562 1664.63 345.562 1665 345.562L1669.91 349.337C1670.29 349.714 1670.29 350.091 1669.91 350.469C1669.53 350.846 1669.16 350.846 1668.78 350.469L1663.87 346.695C1663.5 346.695 1663.5 346.317 1663.87 345.94Z" fill="white"/>
</g>
<g opacity="0.61">
<path d="M1608.02 302.912C1608.02 302.535 1608.4 302.535 1608.4 302.912L1664.25 345.94V346.317H1663.87L1608.02 302.912C1608.02 303.29 1608.02 303.29 1608.02 302.912Z" fill="white"/>
</g>
<g opacity="0.67">
<path d="M1608.02 302.912C1608.02 302.535 1608.4 302.535 1608.77 302.912L1669.53 349.714C1669.53 349.714 1669.91 350.091 1669.53 350.091C1669.53 350.091 1669.16 350.469 1669.16 350.091L1608.4 303.29C1608.02 303.29 1608.02 303.29 1608.02 302.912Z" fill="white"/>
</g>
<g opacity="0.56">
<path d="M1578.96 156.847L1671.8 91.9288H1672.17V92.3063L1579.72 157.224C1579.34 157.602 1579.34 157.224 1578.96 156.847C1578.96 157.224 1578.96 157.224 1578.96 156.847Z" fill="white"/>
</g>
<g opacity="0.59">
<path d="M1537.83 153.45L1671.8 91.9288H1672.17V92.3063L1538.2 153.45C1537.83 153.827 1537.83 153.827 1537.83 153.45C1537.45 153.45 1537.45 153.45 1537.83 153.45Z" fill="white"/>
</g>
<g opacity="0.58">
<path d="M1456.31 174.586L1537.83 153.073C1537.83 153.073 1538.2 153.073 1538.2 153.45C1538.2 153.45 1538.2 153.827 1537.83 153.827L1456.69 174.963C1456.69 174.963 1456.31 174.963 1456.31 174.586Z" fill="white"/>
</g>
<g opacity="0.63">
<path d="M1537.45 153.45C1537.83 153.073 1537.83 153.073 1537.45 153.45L1579.34 156.847C1579.72 156.847 1579.72 156.847 1579.72 157.224C1579.72 157.602 1579.72 157.602 1579.34 157.602L1537.83 153.827C1537.83 153.827 1537.45 153.827 1537.45 153.45Z" fill="white"/>
</g>
<g opacity="0.53">
<path d="M1349.89 85.8899H1350.27L1457.07 174.586V174.964H1456.69L1349.89 85.8899Z" fill="white"/>
</g>
<g opacity="0.64">
<path d="M1456.31 174.586L1579.34 156.847C1579.72 156.847 1579.72 156.847 1579.72 157.224C1579.72 157.602 1579.72 157.602 1579.34 157.602L1456.69 175.341C1456.69 174.964 1456.31 174.964 1456.31 174.586Z" fill="white"/>
</g>
<g opacity="0.55">
<path d="M1679.72 58.7149L1782.37 -101.316H1782.75C1782.75 -101.316 1783.12 -100.938 1782.75 -100.938L1680.1 59.0924C1680.1 59.0924 1679.72 59.0924 1679.72 58.7149Z" fill="white"/>
</g>
<g opacity="0.62">
<path d="M1679.35 58.715L1767.65 -51.8722C1767.65 -51.8722 1768.03 -52.2496 1768.03 -51.8722C1768.03 -51.8722 1768.41 -51.4947 1768.03 -51.4947L1679.72 59.0924H1679.35C1679.35 58.715 1679.35 58.715 1679.35 58.715Z" fill="white"/>
</g>
<g opacity="0.55">
<path d="M1875.58 481.06C1875.58 480.682 1875.96 480.682 1875.58 481.06L1929.93 515.783V516.161H1929.55L1875.58 481.06Z" fill="white"/>
</g>
<g opacity="0.6">
<path d="M1785.39 574.663L1875.58 480.682H1875.96V481.06L1785.77 574.663C1785.77 575.04 1785.77 575.04 1785.39 574.663Z" fill="white"/>
</g>
<g opacity="0.59">
<path d="M1875.58 481.06C1875.58 480.682 1875.58 480.682 1875.58 481.06C1875.58 480.682 1875.96 480.682 1875.96 481.06L1965.4 564.472V564.849H1965.02L1875.58 481.06Z" fill="white"/>
</g>
<g opacity="0.61">
<path d="M1577.83 641.09C1578.21 640.713 1578.21 641.09 1578.58 641.09L1625.76 755.829V756.207H1625.38L1577.83 641.09Z" fill="white"/>
</g>
<path opacity="0.51" d="M939.301 87.3997C938.546 88.9094 937.037 89.2868 935.905 88.9094C934.395 88.1545 934.018 86.6448 934.395 85.5126C935.15 84.0028 936.66 83.6254 937.792 84.0028C939.301 84.3803 940.056 85.89 939.301 87.3997Z" fill="white"/>
<path opacity="0.53" d="M958.548 96.8355C957.793 98.3452 956.283 98.7226 954.774 98.3452C953.264 97.5903 952.887 96.0806 953.264 94.5709C954.019 93.0612 955.529 92.6838 957.038 93.0612C958.548 93.816 958.925 95.7032 958.548 96.8355Z" fill="white"/>
<path opacity="0.62" d="M1298.19 58.3375C1297.44 59.8473 1295.93 60.6021 1294.42 59.8473C1292.91 59.0924 1292.15 57.5827 1292.91 56.073C1293.66 54.5632 1295.17 53.8084 1296.68 54.5632C1298.19 54.9407 1298.57 56.8278 1298.19 58.3375Z" fill="white"/>
<path opacity="0.58" d="M1347.25 156.469C1346.5 157.979 1344.99 158.734 1343.48 157.979C1341.97 157.224 1341.21 155.715 1341.97 154.205C1342.72 152.695 1344.23 151.94 1345.74 152.695C1347.25 153.45 1348 154.96 1347.25 156.469Z" fill="white"/>
<path opacity="0.64" d="M1396.69 99.4774C1395.93 100.987 1394.05 101.742 1392.54 100.987C1391.03 100.232 1390.27 98.3451 1391.03 96.8354C1391.78 95.3257 1393.67 94.5708 1395.18 95.3257C1396.69 96.0805 1397.44 97.9677 1396.69 99.4774Z" fill="white"/>
<path opacity="0.6" d="M1304.61 136.088C1303.85 137.598 1302.34 138.353 1300.83 137.598C1299.32 136.843 1298.57 135.333 1299.32 133.824C1300.08 132.314 1301.59 131.559 1303.1 132.314C1304.61 132.691 1305.36 134.579 1304.61 136.088Z" fill="white"/>
<path opacity="0.73" d="M1582.36 20.5945C1581.6 22.1042 1579.72 22.8591 1578.21 22.1042C1576.7 21.3493 1575.94 19.4622 1576.7 17.9525C1577.45 16.4427 1579.34 15.6879 1580.85 16.4427C1582.36 17.1976 1582.74 19.0847 1582.36 20.5945Z" fill="white"/>
<path opacity="0.6" d="M1239.32 203.271C1238.56 204.781 1237.05 205.535 1235.55 204.781C1234.04 204.026 1233.28 202.516 1234.04 201.006C1234.79 199.497 1236.3 198.742 1237.81 199.497C1239.32 199.874 1240.07 201.761 1239.32 203.271Z" fill="white"/>
<path opacity="0.76" d="M1579.72 63.6216C1578.96 65.1313 1577.08 65.8861 1575.19 65.1313C1573.68 64.3764 1572.92 62.4893 1573.68 60.6021C1574.43 59.0924 1576.32 58.3375 1578.21 59.0924C1579.72 60.2247 1580.47 62.1118 1579.72 63.6216Z" fill="white"/>
<path opacity="0.79" d="M1550.66 47.3919C1549.9 48.9017 1548.02 49.6565 1546.13 48.9017C1544.62 48.1468 1543.87 46.2597 1544.62 44.3725C1545.37 42.8628 1547.26 42.1079 1549.15 42.8628C1550.66 43.9951 1551.41 45.8822 1550.66 47.3919Z" fill="white"/>
<path opacity="0.91" d="M1298.57 59.4698C1297.81 61.357 1295.55 62.1118 1293.66 61.357C1291.77 60.6021 1291.02 58.3375 1291.77 56.4503C1292.53 54.5632 1294.79 53.8083 1296.68 54.5632C1298.57 55.3181 1299.32 57.5826 1298.57 59.4698Z" fill="white"/>
<path d="M1489.15 2.85518C1488.39 4.74233 1486.13 5.87462 1483.86 4.74233C1481.6 3.61004 1480.84 1.72288 1481.98 -0.541701C1482.73 -2.42885 1484.99 -3.56115 1487.26 -2.42885C1489.15 -1.29656 1489.9 0.968027 1489.15 2.85518Z" fill="white"/>
<path opacity="0.96" d="M1361.59 31.9174C1360.84 33.8046 1358.57 34.5594 1356.68 33.8046C1354.8 33.0497 1354.04 30.7851 1354.8 28.898C1355.55 27.0108 1357.82 26.256 1359.7 27.0108C1361.59 27.7657 1362.35 30.0303 1361.59 31.9174Z" fill="white"/>
<path d="M598.149 120.991C597.394 122.878 594.752 124.01 592.865 122.878C590.979 122.123 589.846 119.481 590.979 117.594C591.733 115.707 594.375 114.575 596.262 115.707C598.149 116.839 599.281 119.104 598.149 120.991Z" fill="white"/>
<path d="M687.211 81.3608C686.456 83.6254 683.814 84.3803 681.55 83.6254C679.286 82.8705 678.531 80.2285 679.286 77.9639C680.04 75.6994 682.682 74.9445 684.946 75.6993C687.211 76.8316 687.966 79.4736 687.211 81.3608Z" fill="white"/>
<path d="M296.999 34.5594C295.867 36.824 293.602 37.5788 291.338 36.824C289.074 35.6917 288.319 33.4271 289.074 31.1625C289.829 28.8979 292.47 28.1431 294.735 28.8979C296.999 29.6528 298.131 32.6722 296.999 34.5594Z" fill="white"/>
<path d="M232.844 52.2987C231.712 54.5632 229.448 55.3181 227.183 54.5632C224.919 53.4309 224.164 51.1664 224.919 48.9018C225.674 46.6372 228.315 45.8823 230.58 46.6372C232.844 47.3921 233.976 50.0341 232.844 52.2987Z" fill="white"/>
<path opacity="0.7" d="M1610.66 412.745C1609.91 414.254 1608.02 415.009 1606.51 414.254C1605 413.5 1604.25 411.612 1605 410.103C1605.76 408.593 1607.64 407.838 1609.15 408.593C1610.66 408.97 1611.42 411.235 1610.66 412.745Z" fill="white"/>
<path opacity="0.94" d="M1780.48 173.454C1779.73 175.341 1777.46 176.096 1775.58 175.341C1773.69 174.586 1772.94 172.322 1773.69 170.434C1774.45 168.547 1776.71 167.792 1778.6 168.547C1780.48 169.302 1781.62 171.567 1780.48 173.454Z" fill="white"/>
<path d="M1892.94 1.34553C1892.19 3.61012 1889.55 4.36497 1887.28 3.61011C1885.02 2.85525 1884.26 0.213235 1885.02 -2.05135C1885.77 -4.31593 1888.41 -5.07079 1890.68 -4.31593C1892.94 -3.18363 1894.07 -0.54162 1892.94 1.34553Z" fill="white"/>
<path d="M1686.14 120.236C1685.38 122.123 1683.12 123.256 1680.85 122.123C1678.97 121.368 1677.84 119.104 1678.97 116.839C1679.72 114.952 1681.99 113.82 1684.25 114.952C1686.14 116.084 1686.89 118.349 1686.14 120.236Z" fill="white"/>
<path d="M1566.89 158.357C1566.13 160.244 1563.87 161.376 1561.6 160.244C1559.72 159.489 1558.58 157.224 1559.72 154.96C1560.47 153.073 1562.73 151.94 1565 153.073C1566.89 154.205 1567.64 156.469 1566.89 158.357Z" fill="white"/>
<path d="M807.973 36.8239C806.84 39.0885 804.199 40.2208 802.312 39.0885C800.048 37.9562 798.915 35.3142 800.048 33.427C801.18 31.1625 803.821 30.0302 805.708 31.1625C807.973 32.2948 809.105 34.5593 807.973 36.8239Z" fill="white"/>
<path d="M280.394 52.6761C279.262 54.9407 276.62 56.0729 274.356 54.9407C272.092 53.8084 270.96 51.1664 272.092 48.9018C273.224 46.6372 275.865 45.5049 278.13 46.6372C280.394 47.7695 281.526 50.4115 280.394 52.6761Z" fill="white"/>
<path opacity="0.7" d="M1608.02 461.811C1607.27 463.321 1605.38 464.075 1603.87 463.321C1602.36 462.566 1601.6 460.679 1602.36 459.169C1603.11 457.659 1605 456.904 1606.51 457.659C1608.02 458.414 1608.78 460.301 1608.02 461.811Z" fill="white"/>
<path opacity="0.93" d="M1632.55 267.057C1631.8 268.944 1629.53 269.699 1627.64 268.944C1625.76 268.189 1625 265.924 1625.76 264.037C1626.51 262.15 1628.78 261.395 1630.66 262.15C1632.55 262.905 1633.3 265.17 1632.55 267.057Z" fill="white"/>
<path d="M1680.48 140.24C1679.72 142.127 1677.46 142.882 1675.19 142.127C1673.31 141.372 1672.18 139.108 1673.31 136.843C1674.06 134.956 1676.33 134.201 1678.59 134.956C1680.48 136.088 1681.23 138.353 1680.48 140.24Z" fill="white"/>
<path d="M1514.43 188.174C1513.67 190.061 1511.03 191.193 1509.15 190.061C1507.26 189.306 1506.13 186.664 1507.26 184.777C1508.01 182.89 1510.66 181.757 1512.54 182.89C1514.43 183.644 1515.18 186.287 1514.43 188.174Z" fill="white"/>
<path d="M1327.25 205.535C1326.49 207.423 1323.85 208.555 1321.97 207.423C1320.08 206.668 1318.95 204.026 1320.08 202.138C1320.83 200.251 1323.48 199.119 1325.36 200.251C1327.25 201.006 1328 203.648 1327.25 205.535Z" fill="white"/>
<path d="M1332.91 2.10041C1331.78 4.365 1329.14 5.49728 1327.25 4.36499C1324.98 3.2327 1323.85 0.590686 1324.98 -1.29647C1326.12 -3.56105 1328.76 -4.69334 1330.65 -3.56104C1332.91 -2.80618 1333.66 -0.16417 1332.91 2.10041Z" fill="white"/>
<path d="M906.469 85.1351C905.337 87.3997 902.695 88.532 900.808 87.3997C898.544 86.2674 897.412 83.6254 898.544 81.7382C899.676 79.4736 902.318 78.3413 904.205 79.4736C906.469 80.6059 907.224 83.2479 906.469 85.1351Z" fill="white"/>
<path d="M963.831 68.5282C962.699 70.7927 960.057 71.925 957.793 70.7927C955.529 69.6604 954.396 67.0184 955.529 64.7538C956.661 62.4893 959.302 61.357 961.567 62.4892C963.831 63.6215 964.963 66.2636 963.831 68.5282Z" fill="white"/>
<path d="M718.911 143.259C717.779 145.524 715.137 146.656 713.25 145.524C710.986 144.392 709.854 141.75 710.986 139.862C712.118 137.598 714.759 136.466 716.646 137.598C718.911 138.353 720.043 140.995 718.911 143.259Z" fill="white"/>
<path opacity="0.98" d="M1770.67 258.376C1769.92 260.263 1767.65 261.018 1765.77 260.263C1763.88 259.508 1763.12 257.244 1763.88 255.356C1764.63 253.469 1766.9 252.714 1768.78 253.469C1770.67 254.224 1771.43 256.489 1770.67 258.376Z" fill="white"/>
<path opacity="0.97" d="M1616.7 330.465C1615.95 332.352 1613.68 333.107 1611.79 332.352C1609.91 331.597 1609.15 329.333 1609.91 327.445C1610.66 325.558 1612.93 324.803 1614.81 325.558C1616.7 326.691 1617.45 328.578 1616.7 330.465Z" fill="white"/>
<path d="M1675.57 223.275C1674.82 225.162 1672.55 226.294 1670.29 225.162C1668.4 224.407 1667.27 222.142 1668.4 219.878C1669.16 217.991 1671.42 216.858 1673.68 217.991C1675.57 219.123 1676.33 221.387 1675.57 223.275Z" fill="white"/>
<path d="M1357.44 284.041C1356.68 285.928 1354.04 287.06 1352.16 285.928C1350.27 285.173 1349.14 282.531 1350.27 280.644C1351.02 278.757 1353.67 277.625 1355.55 278.757C1357.44 279.889 1358.19 282.154 1357.44 284.041Z" fill="white"/>
<path d="M1641.98 72.3024C1640.85 74.567 1638.21 75.6993 1636.32 74.567C1634.06 73.4347 1632.93 70.7927 1634.06 68.9056C1635.19 66.641 1637.83 65.5087 1639.72 66.641C1641.98 67.3958 1643.12 70.0379 1641.98 72.3024Z" fill="white"/>
<path d="M1160.82 255.356C1160.07 257.621 1157.43 258.376 1155.16 257.621C1152.9 256.866 1152.14 254.224 1152.9 251.959C1153.65 249.695 1156.3 248.94 1158.56 249.695C1160.82 250.827 1161.96 253.092 1160.82 255.356Z" fill="white"/>
<path opacity="0.82" d="M1267.25 524.842C1266.49 526.729 1264.23 527.484 1262.72 526.729C1260.83 525.974 1260.07 523.709 1260.83 522.2C1261.58 520.312 1263.85 519.558 1265.36 520.312C1267.25 520.69 1268 522.954 1267.25 524.842Z" fill="white"/>
<path opacity="0.83" d="M1192.52 548.242C1191.77 550.13 1189.5 550.884 1188 550.13C1186.11 549.375 1185.35 547.11 1186.11 545.6C1186.86 543.713 1189.13 542.958 1190.64 543.713C1192.52 544.468 1193.28 546.355 1192.52 548.242Z" fill="white"/>
<path d="M1791.8 134.579C1790.67 136.843 1788.03 137.975 1786.14 136.843C1783.88 135.711 1782.75 133.069 1783.88 131.182C1785.01 128.917 1787.65 127.785 1789.54 128.917C1791.8 129.672 1792.94 132.314 1791.8 134.579Z" fill="white"/>
<path d="M1848.03 77.209C1846.9 79.4736 1844.26 80.6059 1842 79.4736C1839.73 78.3413 1838.6 75.6993 1839.73 73.4347C1840.86 71.1702 1843.51 70.0379 1845.77 71.1702C1848.03 72.3024 1849.17 74.9445 1848.03 77.209Z" fill="white"/>
<path d="M1717.08 113.442C1715.95 115.707 1713.31 116.839 1711.05 115.707C1708.78 114.575 1707.65 111.933 1708.78 109.668C1709.91 107.403 1712.55 106.271 1714.82 107.403C1717.08 108.536 1717.84 111.178 1717.08 113.442Z" fill="white"/>
<path d="M1567.64 65.5087C1566.51 67.7733 1563.87 68.9056 1561.6 67.7733C1559.34 66.641 1558.21 63.999 1559.34 61.7344C1560.47 59.4698 1563.11 58.3375 1565.38 59.4698C1567.64 60.6021 1568.77 63.2441 1567.64 65.5087Z" fill="white"/>
<path d="M1262.34 202.139C1261.21 204.403 1258.57 205.536 1256.68 204.403C1254.41 203.271 1253.28 200.629 1254.41 198.742C1255.55 196.477 1258.19 195.345 1260.08 196.477C1262.34 197.609 1263.09 200.251 1262.34 202.139Z" fill="white"/>
<path d="M1509.52 20.9718C1508.39 23.2364 1505.75 24.3687 1503.11 23.2364C1500.84 22.1042 1499.71 19.4621 1500.84 16.8201C1501.98 14.5555 1504.62 13.4232 1507.26 14.5555C1509.52 15.6878 1510.66 18.7073 1509.52 20.9718Z" fill="white"/>
<path d="M1675.57 327.823C1674.82 329.71 1672.17 330.842 1670.29 329.71C1668.4 328.955 1667.27 326.313 1668.4 324.426C1669.16 322.539 1671.8 321.407 1673.68 322.539C1675.57 323.294 1676.33 325.936 1675.57 327.823Z" fill="white"/>
<path d="M1513.3 181.002C1512.17 183.267 1509.52 184.399 1506.88 183.267C1504.62 182.135 1503.49 179.493 1504.62 176.851C1505.75 174.586 1508.39 173.454 1511.03 174.586C1513.3 175.718 1514.43 178.36 1513.3 181.002Z" fill="white"/>
<path d="M1852.56 354.243C1851.43 356.508 1848.79 357.64 1846.9 356.508C1844.64 355.375 1843.51 352.733 1844.64 350.846C1845.77 348.582 1848.41 347.449 1850.3 348.582C1852.56 349.337 1853.32 351.979 1852.56 354.243Z" fill="white"/>
<path d="M1691.8 370.85C1690.67 373.115 1688.4 373.87 1686.14 373.115C1683.87 371.982 1683.12 369.718 1683.87 367.453C1685.01 365.189 1687.27 364.434 1689.53 365.189C1691.8 365.943 1692.93 368.585 1691.8 370.85Z" fill="white"/>
<path d="M1718.22 322.539C1717.08 324.804 1714.44 325.936 1712.55 324.804C1710.29 323.671 1709.16 321.029 1710.29 319.142C1711.42 316.878 1714.06 315.745 1715.95 316.878C1718.22 317.632 1719.35 320.274 1718.22 322.539Z" fill="white"/>
<path d="M1668.4 348.204C1667.27 350.469 1664.63 351.601 1662.74 350.469C1660.48 349.337 1659.34 346.695 1660.48 344.807C1661.61 342.543 1664.25 341.411 1666.14 342.543C1668.4 343.298 1669.53 345.94 1668.4 348.204Z" fill="white"/>
<path d="M1788.41 159.112C1787.28 161.376 1784.63 162.508 1781.99 161.376C1779.73 160.244 1778.6 157.602 1779.73 154.96C1780.86 152.695 1783.5 151.563 1786.14 152.695C1788.79 153.827 1789.54 156.47 1788.41 159.112Z" fill="white"/>
<path d="M1612.55 304.8C1611.42 307.064 1608.78 308.197 1606.51 307.064C1604.25 305.932 1603.11 303.29 1604.25 301.025C1605.38 298.761 1608.02 297.629 1610.28 298.761C1612.55 299.893 1613.3 302.535 1612.55 304.8Z" fill="white"/>
<path d="M1676.33 94.1933C1675.19 96.8354 1672.18 97.9677 1669.53 96.8354C1666.89 95.7031 1665.76 92.6836 1666.89 90.0416C1668.02 87.3996 1671.04 86.2673 1673.68 87.3996C1676.33 88.9093 1677.46 91.9288 1676.33 94.1933Z" fill="white"/>
<path d="M1542.36 155.715C1541.22 158.357 1538.2 159.489 1535.94 158.357C1533.3 157.224 1532.17 154.205 1533.3 151.94C1534.43 149.298 1537.45 148.166 1539.71 149.298C1542.36 150.053 1543.49 153.073 1542.36 155.715Z" fill="white"/>
<path d="M1461.22 176.851C1460.09 179.493 1457.07 180.625 1454.43 179.493C1451.78 178.36 1450.65 175.341 1451.78 172.699C1452.92 170.057 1455.94 168.925 1458.58 170.057C1461.22 171.189 1462.35 174.209 1461.22 176.851Z" fill="white"/>
<path d="M1354.8 88.1545C1353.67 90.7965 1350.27 91.9288 1347.63 90.7965C1344.99 89.6642 1343.85 86.2674 1344.99 83.6254C1346.12 80.9834 1349.51 79.8511 1352.16 80.9833C1354.8 82.4931 1355.93 85.5125 1354.8 88.1545Z" fill="white"/>
<path d="M1740.48 433.881C1739.35 436.146 1737.08 436.9 1734.82 436.146C1732.56 435.013 1731.8 432.749 1732.56 430.484C1733.69 428.22 1735.95 427.465 1738.22 428.22C1740.48 429.352 1741.24 431.994 1740.48 433.881Z" fill="white"/>
<path d="M1673.31 351.978C1672.17 354.243 1669.53 355.375 1667.27 354.243C1665 353.111 1663.87 350.469 1665 348.204C1666.14 345.94 1668.78 344.807 1671.04 345.94C1673.31 346.694 1674.44 349.336 1673.31 351.978Z" fill="white"/>
<path d="M1584.25 159.111C1583.11 161.753 1580.09 162.886 1577.45 161.753C1574.81 160.621 1573.68 157.602 1574.81 154.96C1575.94 152.318 1578.96 151.185 1581.6 152.318C1584.25 153.45 1585.38 156.469 1584.25 159.111Z" fill="white"/>
<path d="M1685.01 60.9796C1683.87 63.999 1680.48 65.1313 1677.46 63.6216C1674.44 62.4893 1673.31 59.0924 1674.82 56.0729C1675.95 53.0535 1679.35 51.9212 1682.36 53.4309C1685.01 54.9407 1686.14 58.3375 1685.01 60.9796Z" fill="white"/>
<path d="M1790.3 576.55C1789.16 578.814 1786.52 579.947 1783.88 578.814C1781.62 577.682 1780.48 575.04 1781.62 572.398C1782.75 570.133 1785.39 569.001 1788.03 570.133C1790.3 571.266 1791.43 574.285 1790.3 576.55Z" fill="white"/>
<path d="M1880.49 482.947C1879.36 485.589 1876.34 486.721 1874.07 485.589C1871.43 484.457 1870.3 481.437 1871.43 479.173C1872.56 476.531 1875.58 475.398 1877.85 476.531C1880.49 477.663 1881.62 480.682 1880.49 482.947Z" fill="white"/>
<path d="M1582.74 643.355C1581.6 645.997 1578.58 647.129 1576.32 645.997C1573.68 644.865 1572.55 641.845 1573.68 639.581C1574.81 636.939 1577.83 635.806 1580.09 636.939C1582.74 637.694 1583.87 640.713 1582.74 643.355Z" fill="white"/>
</g>
</g>
<defs>
<clipPath id="clip0_8_538">
<rect width="1902" height="1087" fill="white" transform="translate(0 -227)"/>
</clipPath>
</defs>
</svg>
