<svg width="12" height="13" viewBox="0 0 12 13" fill="none" xmlns="http://www.w3.org/2000/svg">
<g clip-path="url(#clip0_86_23020)">
<path d="M8.95155 0.853916L9.34736 1.24699C9.47097 1.3707 9.53907 1.53529 9.53907 1.71119C9.53907 1.887 9.47097 2.05178 9.34736 2.17549L4.86323 6.65943L9.35233 11.1485C9.47594 11.272 9.54395 11.4368 9.54395 11.6126C9.54395 11.7884 9.47594 11.9533 9.35233 12.0769L8.95897 12.4701C8.70316 12.7261 8.28647 12.7261 8.03066 12.4701L2.66662 7.12528C2.54311 7.00177 2.45608 6.83718 2.45608 6.65982V6.65777C2.45608 6.48186 2.54321 6.31728 2.66662 6.19376L8.01613 0.853916C8.13964 0.730207 8.3092 0.662304 8.48501 0.662109C8.66091 0.662109 8.82813 0.730207 8.95155 0.853916Z" fill="#002E47"/>
</g>
<defs>
<clipPath id="clip0_86_23020">
<rect width="12" height="12" fill="white" transform="matrix(0 -1 -1 0 12 12.6621)"/>
</clipPath>
</defs>
</svg>
