<svg width="30" height="30" viewBox="0 0 30 30" fill="none" xmlns="http://www.w3.org/2000/svg">
<path d="M30 15C30 23.2843 23.2843 30 15 30C6.71573 30 0 23.2843 0 15C0 6.71573 6.71573 0 15 0C23.2843 0 30 6.71573 30 15Z" fill="white"/>
<path d="M14.987 10.882C16.1966 10.882 17.1772 9.90594 17.1772 8.70189C17.1772 7.49785 16.1966 6.52177 14.987 6.52177C13.7774 6.52177 12.7969 7.49785 12.7969 8.70189C12.7969 9.90594 13.7774 10.882 14.987 10.882Z" fill="#39B4EF"/>
<path d="M14.987 17.1802C16.1966 17.1802 17.1772 16.2041 17.1772 15C17.1772 13.796 16.1966 12.8199 14.987 12.8199C13.7774 12.8199 12.7969 13.796 12.7969 15C12.7969 16.2041 13.7774 17.1802 14.987 17.1802Z" fill="#39B4EF"/>
<path d="M14.987 23.4783C16.1966 23.4783 17.1772 22.5022 17.1772 21.2982C17.1772 20.0941 16.1966 19.118 14.987 19.118C13.7774 19.118 12.7969 20.0941 12.7969 21.2982C12.7969 22.5022 13.7774 23.4783 14.987 23.4783Z" fill="#39B4EF"/>
<path d="M9.14663 17.1802C10.3562 17.1802 11.3368 16.2041 11.3368 15C11.3368 13.796 10.3562 12.8199 9.14663 12.8199C7.93705 12.8199 6.95648 13.796 6.95648 15C6.95648 16.2041 7.93705 17.1802 9.14663 17.1802Z" fill="#39B4EF"/>
<path d="M21.3141 17.1802C22.5237 17.1802 23.5043 16.2041 23.5043 15C23.5043 13.796 22.5237 12.8199 21.3141 12.8199C20.1045 12.8199 19.124 13.796 19.124 15C19.124 16.2041 20.1045 17.1802 21.3141 17.1802Z" fill="#39B4EF"/>
</svg>
