<svg width="15" height="16" viewBox="0 0 15 16" fill="none" xmlns="http://www.w3.org/2000/svg">
<g clip-path="url(#clip0_75_24495)">
<path d="M14.8004 3.49399C14.2649 3.72889 13.6943 3.88459 13.0994 3.96019C13.7114 3.59479 14.1785 3.02059 14.3981 2.32849C13.8275 2.66869 13.1975 2.90899 12.5261 3.04309C11.9843 2.46619 11.2121 2.10889 10.3697 2.10889C8.73529 2.10889 7.41949 3.43549 7.41949 5.06179C7.41949 5.29579 7.43929 5.52079 7.48789 5.73499C5.03359 5.61529 2.86189 4.43899 1.40299 2.64709C1.14829 3.08899 0.998891 3.59479 0.998891 4.13929C0.998891 5.16169 1.52539 6.06799 2.31019 6.59269C1.83589 6.58369 1.37059 6.44599 0.976391 6.22909C0.976391 6.23809 0.976391 6.24979 0.976391 6.26149C0.976391 7.69609 1.99969 8.88769 3.34159 9.16219C3.10129 9.22789 2.83939 9.25939 2.56759 9.25939C2.37859 9.25939 2.18779 9.24859 2.00869 9.20899C2.39119 10.3781 3.47659 11.2376 4.76719 11.2655C3.76279 12.0512 2.48749 12.5246 1.10689 12.5246C0.864791 12.5246 0.632591 12.5138 0.400391 12.4841C1.70809 13.3274 3.25789 13.8089 4.92919 13.8089C10.3616 13.8089 13.3316 9.30889 13.3316 5.40829C13.3316 5.27779 13.3271 5.15179 13.3208 5.02669C13.9067 4.61089 14.399 4.09159 14.8004 3.49399Z" fill="#39B4EF"/>
</g>
<defs>
<clipPath id="clip0_75_24495">
<rect width="14.4" height="14.4" fill="white" transform="translate(0.400391 0.758789)"/>
</clipPath>
</defs>
</svg>
