<svg width="19" height="20" viewBox="0 0 19 20" fill="none" xmlns="http://www.w3.org/2000/svg">
<g clip-path="url(#clip0_153_19581)">
<path d="M18.9415 5.29789C18.8039 5.02284 18.4691 4.91247 18.1946 5.04892L15.968 6.1622C15.693 6.29973 15.5815 6.63405 15.7191 6.9091C15.8564 7.18305 16.1891 7.2956 16.466 7.15807L18.6925 6.04479C18.9676 5.90726 19.079 5.57294 18.9415 5.29789Z" fill="#707E95"/>
<path d="M18.6925 11.7286L16.466 10.6153C16.1909 10.4783 15.8572 10.5886 15.7191 10.8643C15.5815 11.1393 15.693 11.4736 15.968 11.6112L18.1946 12.7244C18.4723 12.8624 18.8046 12.7485 18.9415 12.4755C19.079 12.2004 18.9676 11.8661 18.6925 11.7286Z" fill="#707E95"/>
<path d="M12.8026 9.4806H4.45309V6.62322C4.45309 5.08863 5.7017 3.84005 7.23625 3.84005C8.7708 3.84005 10.0194 5.08867 10.0194 6.62322V7.7365C10.0194 8.04417 10.2684 8.29314 10.5761 8.29314H12.8026C13.1103 8.29314 13.3592 8.04417 13.3592 7.7365V6.62322C13.3592 3.24701 10.6125 0.500244 7.23625 0.500244C3.86004 0.500244 1.11328 3.24701 1.11328 6.62322V9.58314C0.466761 9.8137 0 10.4258 0 11.1505V17.8301C0 18.7509 0.74909 19.5 1.66988 19.5H12.8026C13.7234 19.5 14.4725 18.7509 14.4725 17.8301V11.1505C14.4725 10.2297 13.7234 9.4806 12.8026 9.4806ZM7.79289 14.9444V16.7168C7.79289 17.0245 7.54392 17.2735 7.23625 17.2735C6.92858 17.2735 6.67961 17.0245 6.67961 16.7168V14.9444C6.03309 14.7138 5.56633 14.1018 5.56633 13.3771C5.56633 12.4562 6.31542 11.7071 7.23625 11.7071C8.15708 11.7071 8.90613 12.4562 8.90613 13.3771C8.90613 14.1018 8.43937 14.7138 7.79289 14.9444Z" fill="#707E95"/>
<path d="M18.4433 8.33008H16.2168C15.9091 8.33008 15.6602 8.57904 15.6602 8.88672C15.6602 9.19439 15.9091 9.44336 16.2168 9.44336H18.4433C18.751 9.44336 19 9.19439 19 8.88672C19 8.57904 18.751 8.33008 18.4433 8.33008Z" fill="#707E95"/>
</g>
<defs>
<clipPath id="clip0_153_19581">
<rect width="19" height="19" fill="white" transform="translate(0 0.5)"/>
</clipPath>
</defs>
</svg>
