<svg width="90" height="90" viewBox="0 0 90 90" fill="none" xmlns="http://www.w3.org/2000/svg">
<rect width="90" height="90" rx="45" fill="#E2EDFF"/>
<path d="M40.1923 43.8578C40.2526 43.8348 40.1493 43.8778 40.1923 43.7315C40.2353 43.5852 40.3616 43.6971 40.3071 43.588C40.2526 43.479 40.1808 43.3843 40.112 43.4245C40.0402 43.4646 40.0402 43.588 40.0402 43.588C40.0402 43.588 39.9857 43.5909 39.9771 43.6397C39.9685 43.6885 39.9455 43.7832 39.9771 43.8233C40.0086 43.8635 40.046 43.9152 40.1923 43.8578Z" fill="#39B4EF"/>
<path d="M38.8514 45.7838C38.9518 45.8211 39.0235 45.5801 38.9547 45.5715C38.8829 45.5629 38.8141 45.5801 38.7968 45.626C38.7796 45.6748 38.7567 45.7494 38.8514 45.7838Z" fill="#39B4EF"/>
<path d="M69.0298 37.7201C68.9494 37.6024 69.0614 37.5622 68.6539 37.7201C68.2464 37.8779 68.2148 38.0013 68.2148 38.0013C68.2148 38.0013 68.2608 38.1419 68.3554 38.1591C68.4501 38.1763 68.6682 37.898 68.7773 37.9037C68.8863 37.9095 69.0269 37.9726 69.0269 37.8463C69.0298 37.7201 69.0671 37.7717 69.0298 37.7201Z" fill="#39B4EF"/>
<path d="M64.0818 56.0425C64.0818 56.0884 63.9871 55.6981 63.769 55.8072C63.5509 55.9162 63.4075 56.1199 63.4075 56.1199C63.4075 56.1199 63.2496 55.9937 63.1406 56.0425C63.0316 56.0884 62.9369 56.2605 62.9225 56.3093C62.9082 56.3552 62.7331 56.3409 62.6872 56.404C62.6413 56.4672 62.4691 56.5619 62.4691 56.6709C62.4691 56.7799 62.406 56.9378 62.3601 57.0468C62.3142 57.1558 62.1104 57.219 62.1707 57.328C62.2338 57.4371 62.3285 57.3912 62.2969 57.5949C62.2654 57.7986 62.3285 57.549 62.3601 58.1114C62.3916 58.6767 62.3285 58.7542 62.3142 58.8632C62.2998 58.9723 62.2195 59.1932 62.0789 59.2851C61.9383 59.3797 61.6714 59.3941 61.6714 59.5031C61.6714 59.6122 61.5623 59.9422 61.5939 60.1C61.6255 60.2578 61.4217 60.3984 61.4849 60.6022C61.548 60.8059 61.6111 61.0728 61.703 61.3081C61.7977 61.5434 61.657 61.7471 61.9067 61.9968C62.1563 62.2464 62.3601 62.2952 62.5638 62.3727C62.7676 62.4502 62.4376 62.2464 63.0488 62.2464C63.66 62.2464 63.6916 62.5908 63.8006 62.2321C63.9096 61.8705 63.8149 61.9193 64.0818 61.6524C64.3487 61.3856 64.2224 61.354 64.3487 61.0269C64.4749 60.6969 64.4749 60.6969 64.6299 60.2894C64.7877 59.8819 64.7074 60.0225 64.8021 59.7413C64.8968 59.4601 64.7877 59.5691 64.9283 59.2391C65.0689 58.9091 65.1952 58.9579 65.2411 58.5964C65.287 58.2348 65.0833 58.407 65.3358 58.0167C65.5855 57.6236 65.617 57.5633 65.617 57.3912C65.617 57.219 65.4908 57.2821 65.617 56.9837C65.7433 56.6852 65.5855 56.6709 65.7749 56.4815C65.9642 56.2921 65.9786 56.2921 65.9642 56.0281C65.9499 55.7612 65.9642 55.6522 66.0589 55.7842C66.1536 55.9191 66.277 56.2433 66.3086 55.7268C66.3402 55.2132 66.3402 55.15 66.3086 55.1185C66.277 55.0869 66.1192 55.0553 66.1823 54.7741C66.2455 54.4929 65.8839 53.7554 65.9011 53.678C65.9155 53.6005 65.8236 53.4426 65.7117 53.5058C65.6027 53.5689 65.5539 53.7411 65.508 53.8042C65.4621 53.8673 65.3043 53.8989 65.3674 54.0395C65.4305 54.1801 65.4449 54.3695 65.4133 54.4154C65.3817 54.4613 65.3358 54.5876 65.287 54.6651C65.2411 54.7426 64.9427 54.6794 64.9427 54.6794C64.9427 54.6794 64.9427 54.8057 64.9427 54.9147C64.9427 55.0238 65.1148 55.1041 64.957 55.15C64.7992 55.1959 64.6586 55.1041 64.6127 55.2591C64.5668 55.4169 64.7389 55.635 64.5036 55.6666C64.2683 55.6981 64.1421 55.635 64.1277 55.6981C64.1134 55.7584 64.0818 55.899 64.0818 56.0425Z" fill="#39B4EF"/>
<path d="M66.0593 56.8515C66.0823 56.8457 66.1225 56.7482 66.1225 56.7252C66.1225 56.7051 66.0794 56.5358 66.0134 56.6219C65.9446 56.7051 65.956 56.8056 65.9446 56.8515C65.9331 56.8974 65.9446 56.9203 65.9446 56.9347C65.9446 56.949 65.9733 56.8716 66.0593 56.8515Z" fill="#39B4EF"/>
<path d="M69.7022 59.583C69.7022 59.583 69.6821 59.4796 69.6189 59.3936C69.5558 59.3103 69.441 59.1123 69.3463 59.2357C69.2516 59.362 69.3033 59.5399 69.3463 59.5801C69.3894 59.6231 69.3779 59.7063 69.4496 59.7063C69.5243 59.7063 69.6304 59.6547 69.7022 59.583Z" fill="#39B4EF"/>
<path d="M70.647 58.8914C70.647 58.8914 70.5953 59.0062 70.5953 59.0378C70.5953 59.0694 70.5523 59.1095 70.5953 59.1526C70.6383 59.1956 70.7302 59.187 70.7732 59.1956C70.8163 59.2042 70.8363 59.2358 70.8995 59.121C70.9626 59.0062 70.9827 58.9316 70.9942 58.8914C71.0057 58.8484 71.0143 58.7336 70.8909 58.7652C70.7617 58.7996 70.7818 58.9345 70.647 58.8914Z" fill="#39B4EF"/>
<path d="M20.2393 36.2943C20.2393 36.2943 20.1819 36.1595 20.1619 36.105C20.1418 36.0533 20.1245 36.016 20.0987 36.0275C20.0729 36.039 19.9265 36.0418 20.027 36.105C20.1274 36.1681 20.0758 36.2369 20.1159 36.2656C20.1561 36.3001 20.1418 36.3374 20.2393 36.2943Z" fill="#39B4EF"/>
<path d="M20.3428 36.0279C20.4004 36.0135 20.2996 35.8926 20.2737 35.9041C20.2477 35.9156 20.1844 35.9905 20.2276 36.0279C20.2679 36.0654 20.2017 36.0625 20.3428 36.0279Z" fill="#39B4EF"/>
<path d="M20.5311 35.4788C20.5627 35.4788 20.577 35.3899 20.577 35.3583C20.577 35.3267 20.3704 35.3066 20.3704 35.3066C20.3704 35.3066 20.3589 35.3497 20.4048 35.3927C20.4508 35.4386 20.4163 35.4788 20.5311 35.4788Z" fill="#39B4EF"/>
<path d="M20.5729 34.9516C20.5729 34.9516 20.4375 34.9199 20.4375 34.9516C20.4375 34.9833 20.4692 35.0236 20.4692 35.0236C20.4692 35.0236 20.5009 35.038 20.5268 35.0236C20.5527 35.0092 20.5671 35.1474 20.5729 34.9516Z" fill="#39B4EF"/>
<path d="M19.8843 34.9738C19.847 34.9537 19.7695 34.9967 19.7695 35.0513C19.7695 35.1029 19.8355 35.1488 19.8757 35.1316C19.9101 35.1173 19.9187 35.0656 19.9159 35.0312C19.9159 35.0226 19.9101 34.9853 19.8843 34.9738Z" fill="#39B4EF"/>
<path d="M19.5571 34.9765C19.5398 34.988 19.5427 35.0514 19.5801 35.0802C19.6003 35.0946 19.6319 35.1032 19.6579 35.0888C19.6838 35.0715 19.6982 35.0341 19.6867 35.0168C19.6809 35.0053 19.6665 35.0111 19.6377 35.0024C19.5859 34.9938 19.5686 34.9707 19.5571 34.9765Z" fill="#39B4EF"/>
<path d="M19.3252 34.8535C19.3137 34.819 19.259 34.8046 19.2331 34.8276C19.2158 34.842 19.2158 34.8708 19.2244 34.891C19.2331 34.9111 19.2532 34.9284 19.2763 34.9284C19.3108 34.9227 19.3339 34.8823 19.3252 34.8535Z" fill="#39B4EF"/>
<path d="M19.1073 34.7703C19.0527 34.7731 19.0327 34.8104 19.0154 34.7989C18.9954 34.7875 18.9925 34.7329 19.0212 34.7071C19.0298 34.6985 19.0441 34.6928 19.0671 34.6928C19.1015 34.6899 19.1991 34.6842 19.2077 34.7157C19.2134 34.7358 19.1819 34.7645 19.1503 34.7731C19.1331 34.776 19.1273 34.7703 19.1073 34.7703Z" fill="#39B4EF"/>
<path d="M26.0554 27.5708C26.1099 27.5392 26.1616 27.5105 26.2075 27.4445C26.2276 27.4158 26.2505 27.3814 26.2534 27.3355C26.2592 27.2838 26.2419 27.2092 26.2018 27.1949C26.196 27.192 26.1817 27.1892 26.1128 27.2265C26.0554 27.2552 26.0267 27.2724 26.0038 27.2953C25.955 27.3441 25.9291 27.4159 25.9464 27.4302C25.9636 27.4445 26.0181 27.4072 26.0181 27.4101C26.021 27.413 25.9205 27.4503 25.9148 27.5105C25.9091 27.545 25.9378 27.588 25.9722 27.5995C25.9808 27.5995 25.998 27.6024 26.0554 27.5708Z" fill="#39B4EF"/>
<path d="M26.3431 26.9596C26.2598 26.9281 26.2197 26.9482 26.2082 26.9223C26.1938 26.8936 26.2311 26.8248 26.2799 26.8133C26.3144 26.8047 26.3316 26.8276 26.4263 26.8764C26.521 26.9223 26.5583 26.9252 26.5583 26.9453C26.5583 26.9711 26.4837 27.0056 26.4177 26.9912C26.389 26.9855 26.389 26.9769 26.3431 26.9596Z" fill="#39B4EF"/>
<path d="M25.2562 27.5968C25.2275 27.6255 25.173 27.68 25.1098 27.6657C25.0496 27.6513 24.9979 27.5825 25.0094 27.5251C25.0152 27.4993 25.0381 27.4591 25.0783 27.4562C25.107 27.4534 25.1127 27.4878 25.15 27.5021C25.2189 27.5337 25.2935 27.4648 25.3107 27.4878C25.3279 27.505 25.2906 27.5624 25.2562 27.5968Z" fill="#39B4EF"/>
<path d="M24.276 27.5333C24.2674 27.4701 24.3449 27.4013 24.408 27.3755C24.4425 27.3611 24.4511 27.3697 24.5573 27.3525C24.5946 27.3468 24.6233 27.341 24.6835 27.3295C24.8729 27.2922 24.9619 27.2607 24.9647 27.275C24.9733 27.2922 24.784 27.3381 24.7294 27.4874C24.7122 27.5333 24.7208 27.5562 24.6979 27.5735C24.629 27.6251 24.4769 27.4874 24.408 27.5419C24.3794 27.5648 24.388 27.605 24.3621 27.6136C24.3334 27.6194 24.2847 27.5792 24.276 27.5333Z" fill="#39B4EF"/>
<path d="M24.0947 27.464C24.063 27.4726 24.0371 27.5245 24.0544 27.559C24.0774 27.6023 24.1667 27.5965 24.1811 27.5677C24.1955 27.5331 24.1379 27.4525 24.0947 27.464Z" fill="#39B4EF"/>
<path d="M23.7669 27.6684C23.7353 27.6713 23.7066 27.7172 23.7037 27.7545C23.6951 27.8291 23.7784 27.9267 23.853 27.9123C23.9218 27.898 23.962 27.7975 23.939 27.7545C23.9247 27.7315 23.8989 27.7401 23.83 27.7C23.7956 27.677 23.787 27.6655 23.7669 27.6684Z" fill="#39B4EF"/>
<path d="M23.8195 27.017C23.808 27.0199 23.8022 27.0285 23.7965 27.0371C23.7621 27.0859 23.6875 27.192 23.742 27.2695C23.7908 27.3384 23.9199 27.347 23.9543 27.3011C23.9715 27.2753 23.9572 27.2351 23.9314 27.1691C23.9228 27.1433 23.8682 27.0084 23.8195 27.017Z" fill="#39B4EF"/>
<path d="M56.0893 26.2908C56.0893 26.2908 55.943 25.869 55.943 25.8144C55.943 25.7599 55.7794 25.45 55.5785 25.3209C55.5355 25.2922 55.481 25.2377 55.4264 25.1717C55.415 25.1774 55.4006 25.186 55.3805 25.1918C55.2313 25.2377 55.0362 25.2147 54.996 25.2319C54.9558 25.2463 54.6344 25.1602 54.6115 25.186C54.5885 25.209 54.4479 25.1085 54.4077 25.1229C54.3676 25.1372 54.2815 25.2864 54.2499 25.2405C54.2184 25.1946 54.2499 25.1545 54.1724 25.0999C54.095 25.0454 53.7506 25.0052 53.6645 25.0282C53.5785 25.0511 53.3288 25.1544 53.2657 25.1544C53.2025 25.1544 52.7491 25.1631 52.6688 25.2807C52.5913 25.3984 52.4421 25.4529 52.356 25.4758C52.2699 25.4988 52.0117 25.4299 51.9887 25.3725C51.9658 25.318 51.9342 25.2865 51.7075 25.2319C51.4808 25.1774 50.5941 25.0138 50.5712 25.0196C50.5482 25.0282 50.5798 25.0971 50.4392 25.011C50.2985 24.9249 50.2498 24.8704 50.1579 24.9335C50.0632 24.9966 49.9399 25.0282 49.8767 24.9565C49.8136 24.8847 49.7045 24.8618 49.6414 24.8072C49.5783 24.7527 49.5467 24.7929 49.4693 24.7125C49.3918 24.6351 49.1077 24.5949 49.0302 24.5088C48.9527 24.4227 48.6084 24.4227 48.5768 24.3596C48.5453 24.2965 48.6859 24.3825 48.4678 24.1874C48.2497 23.9923 48.3358 24.1329 48.1062 24.1731C47.8795 24.2132 47.6987 24.2993 47.5897 24.2993C47.4806 24.2993 47.2769 24.2132 47.2138 24.3309C47.1507 24.4485 46.6026 24.4485 46.8379 24.6293C47.0732 24.8101 46.9469 25.1946 46.9469 25.318C46.9469 25.4443 46.7661 25.6537 46.7518 25.7484C46.7374 25.8431 46.6513 25.912 46.4935 25.9522C46.3357 25.9924 46.0545 26.11 45.9139 25.9206C45.7733 25.7312 45.6958 25.7484 45.5781 25.6222C45.4605 25.4959 45.0301 25.4184 44.9813 25.3725C44.9354 25.3266 44.5107 25.1688 44.4648 25.2319C44.4188 25.2951 43.7445 24.9651 43.8076 24.9651C43.8708 24.9651 43.6814 24.9191 43.7933 24.6838C43.9023 24.4485 43.7933 24.4342 43.7933 24.4342C43.7933 24.4342 43.2768 24.3567 43.2136 24.3567C43.1505 24.3567 42.7918 24.3883 42.7746 24.2161C42.7602 24.0439 42.6168 23.9665 42.5393 24.0267C42.4618 24.0898 41.8822 24.0898 41.8018 24.0898C41.7215 24.0898 41.6755 24.1214 41.5034 23.9005C41.3312 23.6824 40.7659 23.3352 40.7659 23.3352C40.7659 23.3352 40.1547 23.4126 40.6081 23.1773C41.0615 22.942 41.1562 23.0052 41.1734 22.8961C41.1877 22.7871 41.2049 22.8818 41.2049 22.678C41.2049 22.4743 41.2508 22.3968 41.2049 22.2705C41.159 22.1443 40.8922 22.0525 41.0012 21.8946C41.1102 21.7368 41.1906 21.8315 41.2049 21.5962C41.2193 21.3609 41.3312 21.2346 41.1734 21.2203C41.0156 21.2059 40.7343 21.3293 40.7343 21.3293C40.7343 21.3293 40.72 21.3609 40.6396 21.2346C40.5622 21.1084 40.2322 21.0453 40.2322 21.1256C40.2322 21.2031 40.06 21.4384 40.0141 21.4384C39.9682 21.4384 39.7472 21.3925 39.7013 21.4068C39.6554 21.4212 39.4344 21.6565 39.1991 21.5331C38.9638 21.4068 38.8376 21.3293 38.6826 21.3925C38.5248 21.4556 38.321 21.4068 38.1976 21.424C38.0714 21.4384 37.7758 21.5962 37.7586 21.6421C37.7443 21.688 37.5864 21.5646 37.4458 21.5646C37.3052 21.5646 37.1962 21.6106 37.024 21.5646C36.8518 21.5187 36.4128 21.3465 36.3181 21.424C36.2234 21.5015 35.925 21.6593 35.879 21.6737C35.8331 21.688 35.3941 21.7053 35.3453 21.7196C35.2994 21.7339 34.5619 21.9233 34.5619 21.9233C34.5619 21.9233 34.2491 22.2218 34.2491 22.2677C34.2491 22.3136 34.4672 22.4858 34.2491 22.4714C34.0311 22.4571 33.6695 22.503 33.6695 22.503L33.3711 22.6436C33.3711 22.6436 32.9636 22.612 32.9177 22.612C32.8718 22.612 32.6824 22.503 32.6192 22.4944C32.5561 22.4858 32.4241 22.5489 32.3753 22.5575C32.3294 22.5661 32.1716 22.4628 32.0625 22.48C31.9535 22.4944 31.7268 22.4714 31.7268 22.4714C31.7268 22.4714 31.6866 22.503 31.6551 22.3767C31.6235 22.2505 31.6149 22.2361 31.6149 22.1271C31.6149 22.018 31.7871 22.018 31.6149 22.018C31.4427 22.018 31.3165 22.1271 31.3165 22.1271L31.1529 22.2677C31.1529 22.2677 31.0668 22.2447 31.0582 22.2763C31.0496 22.3079 31.0898 22.4657 31.0898 22.4886C31.0898 22.5116 31.0037 22.5747 31.018 22.6379C31.0324 22.701 31.0582 22.833 31.018 22.8875C30.9779 22.942 30.8774 23.0453 30.8774 23.0912C30.8774 23.1372 30.8918 23.163 30.8918 23.2003C30.8918 23.2405 30.7512 23.2864 30.7196 23.3093C30.688 23.3323 30.556 23.3007 30.5474 23.4126C30.5388 23.5217 30.6192 23.4126 30.2978 23.5934C29.9764 23.7742 30.0223 23.6365 29.9993 23.7053C29.9764 23.7742 29.8099 23.955 29.7497 23.9665C29.6866 23.9779 29.4886 24.0382 29.4369 24.0812C29.3852 24.1243 29.3652 24.2477 29.2906 24.3108C29.2188 24.3739 28.9864 24.4055 29.061 24.4887C29.1327 24.5719 29.0926 24.7498 29.0495 24.8216C29.0065 24.8933 28.8917 25.0942 28.886 25.1458C28.8831 25.1975 28.7052 25.2606 28.7568 25.3754C28.8085 25.4902 28.665 25.6251 28.7482 25.8144C28.8314 26.0038 28.9462 26.0641 28.8946 26.1789C28.8429 26.2937 28.6966 26.4515 28.6535 26.5663C28.6105 26.6811 28.424 26.859 28.4125 26.9221C28.401 26.9852 28.5158 26.9537 28.2776 27.0369C28.0366 27.1201 27.7668 27.0684 27.7553 27.1717C27.7439 27.2751 27.4426 27.4013 27.3593 27.4444C27.2761 27.4874 27.1814 27.5391 27.0867 27.6022C26.992 27.6653 26.7826 27.7916 26.751 27.8432C26.7194 27.8949 26.6047 27.8863 26.5214 28.179C26.4382 28.4716 26.312 28.4401 26.2173 28.575C26.1226 28.7098 25.8414 28.8361 25.8213 29.0025C25.8012 29.169 25.3306 29.2952 25.4454 29.4817C25.5601 29.6711 25.6032 29.6281 25.4884 29.7744C25.3736 29.9208 25.2273 30.0556 25.2072 30.1102C25.1871 30.1618 24.926 30.3283 24.8714 30.4344C24.8198 30.5377 24.6821 30.4861 24.6935 30.6525C24.705 30.8189 24.705 30.7931 24.6247 30.9969C24.5472 31.2006 24.4984 31.3269 24.4353 31.5134C24.3721 31.7028 23.9819 31.7315 24.0737 31.9352C24.1684 32.1389 24.2143 32.2968 24.2143 32.2968C24.2143 32.2968 24.5271 32.423 24.5443 32.5321C24.5587 32.6411 24.5759 32.9252 24.6218 33.0486C24.6677 33.1748 24.3234 33.1576 24.5759 33.3786C24.8255 33.5967 24.8743 33.7861 24.8743 33.8951C24.8743 34.0042 24.8284 34.271 24.7481 34.4116C24.6706 34.5522 24.4181 34.7416 24.4353 34.9281C24.4496 35.1175 24.5128 35.0687 24.4496 35.4762C24.3865 35.8837 24.1713 35.8378 24.0594 35.898C23.9474 35.9612 23.6978 36.274 23.7925 36.3199C23.8872 36.3658 23.7925 36.4777 23.9819 36.5867C24.1713 36.6958 24.3262 36.7905 24.3262 36.7905L24.5931 37.0401L24.3894 37.198C24.3894 37.198 24.6247 37.3701 24.53 37.416C24.4353 37.462 24.0278 37.4476 24.1541 37.4935C24.2803 37.5394 24.4525 37.6514 24.4525 37.6514C24.4525 37.6514 24.1856 37.7288 24.3262 37.8235C24.4668 37.9182 24.4984 38.0732 24.5931 38.1363C24.6878 38.1994 25.1096 38.3544 25.1096 38.3544C25.1096 38.3544 25.454 38.3544 25.4396 38.4175C25.4253 38.4806 25.19 38.6528 25.2674 38.716C25.3449 38.7791 25.6606 38.9828 25.6606 38.9828L25.7696 39.155C25.7696 39.155 26.0365 39.3272 26.0824 39.3587C26.1283 39.3903 26.5042 39.5309 26.4899 39.5768C26.4755 39.6227 26.444 39.8265 26.444 39.8753C26.444 39.9212 26.3493 40.0159 26.5387 40.1249C26.728 40.2339 26.883 40.3143 26.8687 40.3918C26.8543 40.4692 26.5243 40.5639 26.7424 40.6902C26.9605 40.8165 26.992 40.8624 27.0093 40.9083C27.0236 40.9542 26.9634 40.7677 27.2273 41.0805C27.4942 41.3932 28.0423 41.4105 28.1513 41.5195C28.2604 41.6286 28.1829 41.7376 28.401 41.9126C28.6191 42.0848 28.6822 42.0848 28.8085 42.2111C28.9347 42.3373 28.6822 42.3832 29.0897 42.5095C29.4972 42.6358 29.1844 42.6358 29.5287 42.7448C29.8731 42.8538 29.9219 42.9342 29.9219 42.9342C29.9219 42.9342 30.0309 43.0748 30.1715 43.0748C30.3121 43.0748 30.249 43.2326 30.4527 42.9658C30.6565 42.6989 30.7024 42.6358 30.8459 42.6358C30.9865 42.6358 31.1759 42.5411 31.3624 42.5411C31.5518 42.5411 31.6608 42.5554 31.7383 42.5554C31.8158 42.5554 31.9277 42.5554 32.1142 42.5411C32.3007 42.5267 32.7885 42.5554 32.7885 42.5554C32.7885 42.5554 32.8517 42.5554 32.8976 42.587C32.9435 42.6185 33.2735 42.587 33.3825 42.6501C33.4916 42.7132 33.6006 42.8079 33.6638 42.8079C33.7269 42.8079 33.945 42.8395 34.0856 42.6358C34.2262 42.432 34.1803 42.3861 34.4299 42.4177C34.6796 42.4492 34.869 42.4636 34.9149 42.3545C34.9608 42.2455 35.1043 42.1508 35.2133 42.1192C35.3224 42.0877 35.3855 41.8839 35.4945 41.9299C35.6036 41.9758 35.5577 41.9614 35.7614 41.8839C35.9651 41.8065 36.0742 41.6659 36.123 41.6659C36.1689 41.6659 36.1373 41.7921 36.3583 41.6343C36.5764 41.4765 36.9063 41.4449 36.9063 41.4449C36.9063 41.4449 38.0025 41.8208 37.9566 41.8667C37.9107 41.9126 37.7213 41.8811 37.8476 42.0073C37.9738 42.1336 38.301 42.1652 38.1919 42.3373C38.0829 42.5095 38.0513 42.5554 38.1288 42.6817C38.2063 42.8079 37.9882 42.7907 38.255 42.9485C38.5219 43.1064 38.6769 43.1379 38.7572 43.1666C38.8347 43.1982 38.8835 42.9945 39.2422 43.0088C39.6037 43.0231 40.1346 42.7735 40.1977 42.8051C40.2609 42.8366 40.4015 42.7907 40.4015 42.8825C40.4015 42.9772 40.0887 42.9772 40.3383 43.1494C40.588 43.3216 40.6827 43.3675 40.6683 43.4622C40.654 43.5569 41.0758 43.4765 41.0127 43.62C40.9496 43.7606 40.7774 44.3575 40.7774 44.4665C40.7774 44.5756 40.4789 44.7334 40.5105 44.8884C40.5421 45.0462 40.3699 45.0605 40.4474 45.2643C40.5249 45.468 40.588 45.5311 40.5736 45.6086C40.5593 45.6861 40.5019 45.7349 40.5019 45.8037C40.5019 45.8755 40.565 45.9759 40.565 46.0218C40.565 46.0677 40.4474 46.0993 40.4474 46.1223C40.4474 46.1452 40.3441 46.2313 40.3154 46.2313C40.2867 46.2313 40.0715 46.0993 40.1432 46.2457C40.2149 46.3949 40.4646 46.4494 40.433 46.5814C40.4015 46.7134 40.4732 46.831 40.456 46.8798C40.4416 46.9257 40.1575 46.9257 40.3785 47.0434C40.5966 47.161 40.5679 47.1295 40.6224 47.2328C40.6769 47.3361 40.7315 47.3963 40.7401 47.4595C40.7487 47.5226 40.8175 47.6087 40.8175 47.6317C40.8175 47.6546 40.7573 47.735 40.8606 47.8325C40.8606 47.8325 41.5722 48.1252 41.5722 48.2285C41.5722 48.3318 41.4259 48.5643 41.5722 48.6876C41.7186 48.811 42.3441 49.3132 42.3441 49.4395C42.3441 49.5657 42.3011 49.7522 42.3441 49.8785C42.3872 50.0048 42.6168 50.2343 42.7 50.2975C42.7832 50.3606 42.8894 50.4438 42.8894 50.6332C42.8894 50.8226 42.8693 51.1354 42.8062 51.3018C42.743 51.4682 42.8262 51.5744 42.8894 51.8442C42.9525 52.1168 42.8463 52.4295 42.8894 52.5759C42.9324 52.7222 43.0558 53.0551 43.0788 53.1814C43.0988 53.3076 42.9324 53.6204 42.8693 53.6835C42.8062 53.7467 42.8262 53.9562 42.5335 54.2259C42.2408 54.4985 42.0744 54.9978 42.1146 55.2302C42.1576 55.4598 41.9912 55.8558 41.9682 55.9821C41.9453 56.1083 41.8621 56.3178 41.8621 56.4412C41.8621 56.5646 41.819 57.6521 41.8621 57.7353C41.9051 57.8186 42.3642 58.3207 42.4274 58.3408C42.4905 58.3609 42.5938 58.6536 42.5737 58.8631C42.5536 59.0726 42.677 59.5317 42.9095 59.5518C43.139 59.5719 43.2452 59.4886 43.3485 59.6981C43.4518 59.9076 43.4518 60.3466 43.4948 60.5332C43.5379 60.7197 43.5149 60.8689 43.4948 61.0124C43.4748 61.1587 43.4374 61.5346 43.5178 61.6379C43.5981 61.7412 43.5637 61.8273 43.5178 62.077C43.4719 62.3266 43.6814 62.5361 43.7445 62.6423C43.8076 62.7456 43.8478 63.2277 43.8478 63.3109C43.8478 63.3941 43.8277 63.4572 43.8478 63.7069C43.8679 63.9565 43.8908 63.6868 44.2438 64.209C44.5996 64.7313 44.8091 65.2134 44.8091 65.443C44.8091 65.6725 45.0387 66.0083 45.1219 66.1317C45.2051 66.2579 45.4347 66.321 45.5179 66.5506C45.6011 66.7802 45.581 67.0097 45.5179 67.0528C45.4547 67.0958 45.2682 67.1159 45.2453 67.1991C45.2252 67.2823 45.2022 67.5119 45.2252 67.6181C45.2453 67.7214 45.6011 67.8276 45.3514 67.9108C45.1018 67.994 45.3084 68.1203 45.4777 68.2666C45.6441 68.4129 45.8134 68.5392 45.9799 68.7056C46.1463 68.8721 46.482 68.9983 46.6485 68.8319C46.8149 68.6655 46.9211 68.5191 47.2138 68.456C47.5065 68.3929 47.736 68.4129 47.8393 68.5191C47.9426 68.6224 48.5711 68.499 48.6744 68.4761C48.7777 68.456 48.8839 68.4129 49.0302 68.3728C49.1765 68.3297 49.0503 68.1432 49.3659 68.2063C49.6787 68.2695 49.7849 68.4789 49.9714 68.4359C50.1608 68.3929 50.201 68.3527 50.3904 68.2063C50.5798 68.06 50.7032 67.9768 50.8925 67.8505C51.0819 67.7243 51.1221 67.9538 51.5611 67.7042C52.0002 67.4545 51.8538 67.4115 52.1666 67.1819C52.4794 66.9523 52.6057 66.8691 52.8783 66.5564C53.1509 66.2436 53.7363 65.3024 53.9027 65.0097C54.0691 64.717 54.006 64.6137 54.2384 64.2779C54.4709 63.9422 54.2585 63.7356 54.6144 63.5462C54.9702 63.3568 54.9702 63.3568 54.9702 63.3568C54.9702 63.3568 54.9903 62.9608 55.0735 62.7083C55.1567 62.4586 54.907 62.3324 55.2198 62.0827C55.5326 61.8331 55.3863 61.8531 55.6589 61.7699C55.9315 61.6867 56.0348 61.6867 56.1811 61.5404C56.3275 61.394 56.118 61.9995 56.3275 61.394C56.537 60.7885 56.4107 60.7254 56.6001 60.559C56.7895 60.3925 56.8727 60.2864 56.8928 60.0999C56.9129 59.9105 57.0391 59.7039 56.8928 59.4112C56.7464 59.1185 56.6833 59.1185 56.6833 58.8889C56.6833 58.6593 56.6833 58.513 56.7464 58.4929C56.8096 58.4728 57.5413 57.4886 57.811 57.3422C58.0836 57.1959 58.1468 57.0696 58.4165 56.84C58.6891 56.6105 58.4997 56.5473 58.8756 56.5043C59.2516 56.4613 59.3979 56.5043 59.5012 56.1485C59.6045 55.7927 59.2716 55.8357 59.7738 55.2704C60.276 54.7051 60.276 55.0609 60.276 54.7051C60.276 54.3493 60.3592 54.2029 60.276 53.8701C60.1928 53.5343 60.2674 53.2847 60.3133 53.0551C60.3592 52.8255 60.0263 52.0938 59.8169 51.781C59.6074 51.4682 59.5041 51.3621 59.5041 51.0493C59.5041 50.7365 59.6303 50.5701 59.6504 50.4008C59.6705 50.2343 59.6074 50.1282 59.5242 49.9818C59.4409 49.8355 59.2516 49.7523 59.4409 49.4596C59.6303 49.1669 59.8369 49.0836 59.8369 48.8943C59.8369 48.7049 59.7968 48.5901 59.8771 48.4179C59.9546 48.2457 59.923 48.2457 60.0493 48.0248C60.1756 47.8067 60.2645 47.9616 60.319 47.6087C60.3707 47.2557 60.6375 47.2242 60.6863 47.2242C60.7322 47.2242 60.8442 47.3017 60.9532 47.2242C61.0622 47.1467 61.111 47.1151 61.2201 46.8483C61.3291 46.5814 61.2057 46.4724 61.4238 46.3317C61.6419 46.1911 61.8313 45.9386 61.8313 45.9386C61.8313 45.9386 62.035 45.8296 62.2388 45.5771C62.4425 45.3274 62.6462 45.1839 62.7868 45.029C62.9274 44.8711 62.8959 44.6846 63.289 44.6071C63.6821 44.5297 63.6649 44.5928 63.9461 44.4981C64.2274 44.4034 64.2274 44.3259 64.4483 44.0763C64.6664 43.8266 64.698 43.8266 64.8701 43.5913C65.0423 43.356 65.0739 42.9945 65.2317 42.8395C65.3895 42.6817 64.6664 43.0002 65.2317 42.6042C65.797 42.2082 65.8573 42.1852 66.1299 41.8093C66.4025 41.4334 66.3594 41.3072 66.632 41.0145C66.9047 40.7218 66.8214 40.1995 66.7985 40.1163C66.7784 40.0331 66.3795 39.8666 66.9649 39.6973C67.5503 39.5309 66.7353 39.2382 66.9649 39.1119C67.1945 38.9857 67.0826 38.8623 67.1801 38.7561C67.2777 38.65 67.381 38.4204 67.3408 38.2769C67.2978 38.1306 67.3839 37.7977 66.8616 38.0273C66.3393 38.2568 66.2131 38.7389 65.8372 38.7389C65.4613 38.7389 65.1686 38.6557 64.9189 38.782C64.6693 38.9082 64.3766 39.1177 64.0839 39.1579C63.7912 39.2009 63.7711 39.2612 63.6047 39.1378C63.4382 39.0115 63.2087 38.9484 63.0193 38.9082C62.8299 38.8652 62.4769 38.9283 62.4339 38.7619C62.3908 38.5954 62.2875 38.386 62.2875 38.3027C62.2875 38.2195 61.639 38.3659 61.639 38.3659C61.639 38.3659 61.3664 38.4692 61.3262 38.3659C61.2832 38.2626 61.3463 38.0215 61.4525 37.9527C61.5558 37.8838 61.7021 37.6341 61.5788 37.4677C61.4525 37.3013 60.4912 36.8622 60.4912 36.8622C60.4912 36.8622 60.5744 36.4662 60.3248 36.2768C60.0751 36.0874 59.989 36.0473 59.8455 35.7345C59.6992 35.4217 59.6562 35.4217 59.4897 35.2323C59.3233 35.0429 59.2401 34.8765 59.2602 34.6469C59.2803 34.4174 58.8843 34.1677 58.7379 33.9152C58.5916 33.6655 58.3419 33.3298 58.319 33.2466C58.2989 33.1634 57.9 32.5579 57.7336 32.1189C57.5671 31.6798 57.6073 31.6167 57.5442 31.3039C57.481 30.9911 57.3146 30.8017 57.1252 30.7185C56.9358 30.6353 56.7292 30.6554 56.7063 30.3426C56.6862 30.0298 57.0822 30.1762 56.623 29.674C56.1639 29.1718 55.8511 28.7328 55.788 28.6496C55.7249 28.5663 55.6417 28.5032 55.6216 28.2105C55.6015 27.9178 55.7478 28.1675 55.6015 27.9178C55.5412 27.8145 55.3777 27.6079 55.2055 27.4042C54.9616 27.1201 54.6976 26.8417 54.6631 26.8532C54.6 26.8733 54.4135 26.8102 54.4537 26.6868C54.4938 26.5634 54.5369 26.3511 54.5369 26.3511C54.5369 26.3511 54.6402 26.4974 54.7464 26.5605C54.8497 26.6237 54.9558 26.7901 55.039 26.9164C55.1223 27.0426 55.458 27.4817 55.6646 27.5649C55.8741 27.6481 55.9143 27.7112 56.0003 27.6682C56.0836 27.6251 56.0204 27.3124 56.0204 27.1258C56.0204 26.9393 56.1237 26.6036 56.1237 26.6036C56.1237 26.6036 56.1266 26.5978 56.1323 26.6007C56.118 26.4228 56.0893 26.2908 56.0893 26.2908Z" fill="#39B4EF"/>
</svg>
