<svg width="90" height="90" viewBox="0 0 90 90" fill="none" xmlns="http://www.w3.org/2000/svg">
<rect width="90" height="90" rx="45" fill="#E2EDFF"/>
<path d="M29.8385 61.3C29.8385 61.3 29.7925 61.2178 29.7563 61.2178C29.7201 61.2178 29.5951 61.3 29.5951 61.3V61.4085C29.5951 61.4085 29.4866 61.4908 29.5951 61.4908C29.7037 61.4908 29.8385 61.3 29.8385 61.3Z" fill="#39B4EF"/>
<path d="M30.3143 60.9315C30.3143 60.9315 30.1433 60.9217 30.3143 60.7704C30.4853 60.6191 30.4755 60.5829 30.5379 60.5993C30.6004 60.6158 30.6366 60.7309 30.6268 60.7638C30.6169 60.7967 30.8241 60.8888 30.7879 60.9315C30.7517 60.9776 30.5643 60.994 30.5149 60.994C30.4656 60.994 30.3143 60.9315 30.3143 60.9315Z" fill="#39B4EF"/>
<path d="M31.1044 60.597V60.4655C31.1044 60.4655 31.0584 60.4392 31.1044 60.4194C31.1505 60.403 31.2558 60.4194 31.2558 60.4194C31.2558 60.4194 31.338 60.4984 31.338 60.5016C31.338 60.5082 31.2492 60.5904 31.2492 60.5937C31.2492 60.597 31.1044 60.597 31.1044 60.597Z" fill="#39B4EF"/>
<path d="M34.2652 60.504C34.2487 60.5435 34.1402 60.6784 34.1402 60.7343C34.1402 60.7869 34.1928 60.8593 34.2027 60.9152C34.2125 60.9678 34.2027 61.0961 34.2027 61.0961C34.2027 61.0961 34.0941 61.0928 34.2652 61.221C34.4362 61.3493 34.4362 61.4809 34.4954 61.3559C34.5546 61.2309 34.4461 61.073 34.5546 61.0632C34.6631 61.05 34.8407 61.1355 34.8407 61.1355C34.8407 61.1355 35.0085 61.2671 35.0216 61.0632C35.0348 60.8593 34.8177 60.8593 34.9032 60.6784C34.9855 60.4975 34.9888 60.4744 35.0249 60.356C35.0611 60.2376 35.048 60.2376 35.0249 60.1159C35.0019 59.9975 35.0841 59.9844 35.048 59.935C35.0118 59.8857 35.1006 59.8758 35.0578 59.7804C35.0151 59.6851 34.9427 59.6127 34.8572 59.5403C34.775 59.468 34.6763 59.3134 34.5349 59.3726C34.3901 59.4318 34.2356 59.6949 34.2356 59.7311C34.2356 59.7673 33.9593 59.6193 33.9955 59.6949C34.104 59.9219 34.2948 60.0436 34.2816 60.0797C34.2684 60.1159 34.15 60.2837 34.15 60.2837C34.15 60.2837 34.127 60.3527 34.127 60.4119C34.1237 60.4744 34.2652 60.504 34.2652 60.504Z" fill="#39B4EF"/>
<path d="M34.6531 58.9649C34.6399 59.0011 34.5347 59.0965 34.4491 58.9649C34.3669 58.8333 34.2945 58.7248 34.2945 58.6787C34.2945 58.6327 34.3176 58.5834 34.2945 58.534C34.2715 58.4847 34.1498 58.4518 34.1992 58.3531C34.2485 58.2577 34.3801 58.1722 34.4195 58.1361C34.4623 58.0999 34.3077 58.0637 34.4195 58.0176C34.5314 57.9716 34.6169 58.09 34.6531 58.0176C34.6892 57.9453 34.6531 57.7545 34.6531 57.7545C34.6531 57.7545 34.6136 57.6953 34.6695 57.6953C34.7254 57.6953 34.7386 57.8269 34.7386 57.9124C34.7386 57.9946 34.834 58.2117 34.8471 58.2972C34.8603 58.3794 35.0017 58.5373 34.9655 58.5735C34.9293 58.6097 34.8833 58.7182 34.8833 58.7544C34.8833 58.7906 34.8241 58.9221 34.8241 58.9583C34.8241 58.9945 34.6531 58.9649 34.6531 58.9649Z" fill="#39B4EF"/>
<path d="M38.9523 62.4255C38.9161 62.544 38.8799 62.738 38.9523 62.8696C39.0247 63.0011 38.9655 63.1689 38.9523 63.2182C38.9391 63.2675 38.7846 63.2544 38.6892 63.2182C38.5938 63.182 38.653 62.9913 38.4129 62.9913C38.1728 62.9913 38.0544 63.0505 37.9459 63.0044C37.8373 62.9584 37.765 62.8235 37.6465 62.7775C37.5281 62.7281 37.3834 62.5867 37.2749 62.5505C37.1663 62.5144 37.0118 62.2512 37.1565 62.2019C37.3012 62.1526 37.3604 62.1065 37.492 62.1295C37.6235 62.1526 37.9491 62.3104 38.0445 62.2249C38.1399 62.1427 38.0675 61.9749 38.2715 62.0572C38.4754 62.1394 38.5477 62.2249 38.63 62.1394C38.7122 62.0572 38.8931 62.0572 38.9293 62.0341C38.9655 62.0078 39.074 62.0934 39.074 62.1756C39.0707 62.2578 38.9523 62.4255 38.9523 62.4255Z" fill="#39B4EF"/>
<path d="M38.9387 63.9119C38.8795 63.9119 38.7217 63.9251 38.6526 63.9119C38.5802 63.8988 38.7118 64.0566 38.7118 64.0566C38.7118 64.0566 38.8664 64.1652 38.9387 64.152C39.0111 64.1389 38.9387 63.9119 38.9387 63.9119Z" fill="#39B4EF"/>
<path d="M26.9833 49.8049C26.9767 50.0154 26.8221 50.1108 26.7662 50.1832C26.7136 50.2555 26.4077 50.3279 26.2991 50.3279C26.1906 50.3279 25.9933 50.3114 25.8847 50.3279C25.7762 50.3443 26.1018 50.3805 25.8847 50.5088C25.6676 50.6338 25.74 50.545 25.5986 50.7949C25.4539 51.0449 25.3124 50.9923 25.1841 51.1173C25.0592 51.2422 25.0592 51.2422 25.0592 51.2422C25.0592 51.2422 25.1841 51.3508 25.0592 51.4396C24.9342 51.5284 24.7171 51.6007 24.9506 51.6205C25.1842 51.6369 25.0953 51.6369 25.3289 51.4955C25.5624 51.3508 25.4177 51.4231 25.5624 51.3508C25.7071 51.2784 25.7959 51.1534 25.9933 51.2422C26.1906 51.331 26.1182 51.4231 26.263 51.1699C26.4077 50.9199 26.013 50.9528 26.4077 50.9199C26.8024 50.8837 26.8385 50.8837 26.9833 50.9035C27.128 50.9199 27.2003 51.0482 27.3418 50.9199C27.4865 50.7949 27.4668 50.7291 27.5917 50.716C27.7167 50.7028 27.7365 50.7916 27.8614 50.8114C27.9864 50.8278 27.8878 50.7489 28.2265 50.716C28.562 50.6864 28.6903 50.7127 28.7594 50.716C28.8317 50.7193 28.9929 50.5417 29.1179 50.5219C29.2429 50.5055 29.2264 50.5581 29.3251 50.4594C29.4237 50.3608 29.3152 50.2522 29.4402 50.1996C29.5652 50.147 29.7362 49.9825 29.4862 49.9825C29.2363 49.9825 29.0356 50.1799 29.0356 50.0088C29.0356 49.8378 28.9633 49.8279 29.0981 49.749C29.233 49.6668 29.2593 49.6405 29.3053 49.5517C29.3514 49.4629 29.5126 49.5517 29.5553 49.3708C29.6014 49.1899 29.7165 49.4333 29.6145 49.0188C29.5125 48.6044 29.5126 48.5978 29.4566 48.5617C29.404 48.5255 29.2692 48.3281 29.108 48.3643C28.9468 48.4005 28.8284 48.5452 28.812 48.588C28.7955 48.634 28.5423 48.4531 28.5423 48.4531C28.5423 48.4531 28.6311 48.2031 28.5949 48.0749C28.5587 47.9499 28.3614 47.9137 28.3449 47.8249C28.3285 47.7361 28.2101 47.7887 28.2232 47.5914C28.2364 47.394 28.4173 47.5388 28.2364 47.394C28.0555 47.2493 28.0029 47.1243 28.0029 47.0158C28.0029 46.9073 27.6805 46.6935 27.6805 46.6935C27.6805 46.6935 27.3582 46.7296 27.3944 46.5323C27.4306 46.335 27.3582 46.1179 27.3582 46.1179L27.1082 45.8482C27.1082 45.8482 27.2332 45.7758 27.0721 45.7232C26.9109 45.6706 26.6774 45.5259 26.6774 45.5259L26.3189 45.4173C26.3189 45.4173 26.3912 45.3285 26.48 45.3285C26.5688 45.3285 26.5688 45.4897 26.5688 45.3285C26.5688 45.1673 26.1182 45.0226 26.3353 44.97C26.5524 44.9174 26.6412 44.9536 26.73 44.8615C26.8188 44.7727 26.605 44.8779 26.8385 44.6115C27.0721 44.3418 26.9833 44.4141 27.0721 44.3418C27.1609 44.2694 27.2727 44.0918 27.253 44.0359C27.2332 43.98 27.2859 43.8188 27.1247 43.8188C26.9635 43.8188 26.73 43.8024 26.6741 43.8188C26.6215 43.8353 26.3518 43.5491 26.2235 43.6379C26.0985 43.7267 25.865 43.855 25.865 43.855C25.865 43.855 25.8124 43.4603 25.9373 43.4603C26.0623 43.4603 26.0097 43.4439 26.1347 43.3715C26.2597 43.2992 26.2597 43.3551 26.3156 43.1906C26.3682 43.0295 26.3682 43.0295 26.3682 43.0295C26.3682 43.0295 26.3156 42.5624 26.2071 42.6874C26.0985 42.8124 25.9209 42.8847 25.7565 42.8321C25.5953 42.7795 25.4341 42.6446 25.3782 42.6677C25.3256 42.6907 25.1447 43.013 25.1611 43.1018C25.1776 43.1906 25.1447 43.4439 25.1447 43.4439L24.9638 43.5524L24.9802 43.8221L24.8388 44.0195C24.8388 44.0195 24.8717 44.1444 24.9243 44.1642C24.9769 44.1806 24.8388 44.2727 24.8388 44.2727C24.8388 44.2727 24.9309 44.4043 24.9177 44.4405C24.9046 44.4766 24.75 44.6444 24.75 44.6444C24.75 44.6444 24.75 44.6312 24.75 44.7167C24.75 44.799 24.773 44.8483 24.8684 44.8615C24.9638 44.8746 25.217 44.5983 25.2039 44.6937C25.1907 44.7891 24.773 44.9207 24.8454 45.0062C24.9177 45.0884 25.0953 45.4239 25.0855 45.4963C25.0723 45.5686 24.9901 45.5916 24.9901 45.6771C24.9901 45.7594 24.8355 45.8449 24.8947 45.8942C24.9539 45.9436 24.944 45.7988 25.1118 45.6903C25.2795 45.5818 25.1118 45.6081 25.2795 45.5818C25.4473 45.5587 25.2434 45.7364 25.3618 45.7988C25.4802 45.858 25.4933 45.9436 25.4933 45.9436C25.4933 45.9436 25.4571 46.062 25.4341 46.1705C25.4111 46.279 25.3749 46.3021 25.3618 46.3876C25.3486 46.4731 25.2434 46.2692 25.2795 46.5323C25.3157 46.7954 25.3157 46.8184 25.4243 46.7823C25.5328 46.7461 25.569 46.6737 25.7005 46.7099C25.8321 46.7461 25.9045 46.8645 25.9998 46.7329C26.0952 46.6014 26.1544 46.5783 26.2399 46.5783C26.3222 46.5783 26.2761 46.4599 26.3222 46.5783C26.3715 46.6968 26.1544 46.6606 26.1775 46.7592C26.2005 46.8546 26.1643 46.9862 26.1906 47.0586C26.2136 47.1309 26.1182 47.1079 26.286 47.2394C26.4537 47.371 26.2268 47.348 26.4537 47.371C26.6807 47.394 26.6708 47.2263 26.6807 47.394C26.6938 47.5618 26.6313 47.5618 26.6313 47.6341C26.6313 47.7065 26.6083 47.6933 26.6083 47.8249C26.6083 47.9565 26.4998 47.9334 26.5261 48.065C26.5491 48.1966 26.7432 48.2459 26.6708 48.292C26.5984 48.3413 26.4899 48.3413 26.4537 48.3512C26.4176 48.3643 26.3814 48.1472 26.2728 48.1966C26.1643 48.2459 25.888 48.1472 25.842 48.1735C25.7926 48.1966 25.6742 48.2327 25.6742 48.3413C25.6742 48.4498 25.4835 48.4367 25.592 48.5913C25.7005 48.7458 25.5427 48.6143 25.7729 48.7722C26.0031 48.93 25.8814 49.1438 25.8453 49.226C25.8091 49.3083 25.7137 49.3444 25.6775 49.3806C25.6413 49.4168 25.2828 49.4037 25.2828 49.453C25.2828 49.5023 25.2236 49.5845 25.2828 49.6701C25.342 49.7523 25.3552 49.8247 25.5821 49.8378C25.8091 49.851 25.8091 49.7424 25.8683 49.8246C25.9275 49.9069 26.2531 49.9694 26.286 49.9924C26.3222 50.0154 26.2498 49.9431 26.3222 50.0154C26.3945 50.0878 26.5853 49.9661 26.6346 49.9069C26.6872 49.8411 26.9866 49.647 26.9833 49.8049Z" fill="#39B4EF"/>
<path d="M24.6287 45.4932C24.6287 45.4932 24.5761 45.5787 24.5399 45.5787C24.5037 45.5787 24.4676 45.6018 24.4741 45.6412C24.4774 45.6807 24.4873 45.7037 24.4741 45.7235C24.461 45.7399 24.5399 45.6774 24.5531 45.7235C24.5629 45.7695 24.4741 45.8419 24.5531 45.8188C24.632 45.7958 24.6649 45.7794 24.6649 45.7465C24.6649 45.7136 24.6682 45.707 24.6649 45.6577C24.655 45.6083 24.7274 45.4899 24.6287 45.4932Z" fill="#39B4EF"/>
<path d="M24.8823 45.3486C24.8461 45.3354 24.8001 45.4637 24.8001 45.4637C24.8001 45.4637 24.7672 45.4604 24.7606 45.5131C24.754 45.5657 24.7869 45.6446 24.8198 45.5755C24.8527 45.5098 24.8757 45.4736 24.879 45.4506C24.8856 45.4308 24.9316 45.3683 24.8823 45.3486Z" fill="#39B4EF"/>
<path d="M25.1451 45.8516C25.1385 45.8713 25.1056 45.9536 25.1122 45.9733C25.1188 45.993 25.1484 46.0588 25.1714 46.0621C25.1944 46.0654 25.2207 46.1081 25.2372 46.0391C25.2536 45.97 25.247 45.9897 25.2372 45.924C25.2306 45.8582 25.1714 45.7825 25.1451 45.8516Z" fill="#39B4EF"/>
<path d="M24.6612 44.9869C24.6612 44.9869 24.6941 44.977 24.6612 44.9277C24.6284 44.8783 24.6941 44.8191 24.7073 44.8257C24.7205 44.829 24.7369 44.8619 24.7632 44.9079C24.7895 44.954 24.8027 44.9836 24.8125 45.0263C24.8224 45.0658 24.8685 45.102 24.8356 45.125C24.8027 45.148 24.8027 45.1382 24.7501 45.1513C24.6974 45.1645 24.658 45.1743 24.6316 45.1513C24.6053 45.1283 24.5988 45.0658 24.6316 45.0494C24.6612 45.0263 24.6612 44.9869 24.6612 44.9869Z" fill="#39B4EF"/>
<path d="M24.471 44.0327C24.4283 44.0228 24.3954 44.0689 24.3789 43.9998C24.3625 43.934 24.3132 43.911 24.3789 43.8847C24.4447 43.8584 24.4053 43.7992 24.471 43.8518C24.5368 43.9044 24.5237 43.9537 24.5598 43.934C24.596 43.9143 24.5302 43.7202 24.5796 43.763C24.6289 43.8024 24.6388 43.934 24.6421 43.9702C24.6454 44.0064 24.6519 44.036 24.6848 44.0721C24.7177 44.1083 24.7802 44.1807 24.7901 44.1938C24.7999 44.207 24.8328 44.2761 24.7638 44.2662C24.6947 44.2563 24.6552 44.2563 24.6388 44.207C24.6223 44.1577 24.6158 44.0853 24.5763 44.082C24.5335 44.0787 24.471 44.0327 24.471 44.0327Z" fill="#39B4EF"/>
<path d="M24.2235 43.4801C24.2136 43.5261 24.1708 43.5524 24.1972 43.5787C24.2235 43.605 24.161 43.6116 24.2465 43.6182C24.332 43.6248 24.4077 43.5919 24.3715 43.5228C24.3353 43.457 24.1774 43.3781 24.3057 43.4011C24.4307 43.4241 24.4767 43.4505 24.4866 43.3978C24.4965 43.3419 24.4405 43.3156 24.4866 43.2728C24.5326 43.2268 24.605 43.2367 24.6083 43.1873C24.6116 43.138 24.5787 43.0985 24.6083 43.0623C24.6379 43.0262 24.7629 42.911 24.6083 42.99C24.4537 43.0722 24.3616 43.2071 24.2991 43.2071C24.2366 43.2071 24.184 43.2071 24.1906 43.2696C24.2005 43.332 24.1445 43.3945 24.1445 43.4307C24.1445 43.4669 24.2235 43.4801 24.2235 43.4801Z" fill="#39B4EF"/>
<path d="M24.0734 43.6905C24.0668 43.6774 23.9648 43.6905 23.9648 43.7267C23.9648 43.7629 24.0504 43.9208 24.0734 43.8484C24.0964 43.776 24.0997 43.7892 24.1063 43.7563C24.1096 43.7267 24.0832 43.7136 24.0734 43.6905Z" fill="#39B4EF"/>
<path d="M24.0334 43.9337C24.0071 43.937 23.9808 43.9929 23.9874 44.0126C23.9906 44.0324 24.0334 44.0455 24.0334 44.0521C24.0367 44.0554 24.0564 44.0422 24.0564 44.0126C24.0597 43.983 24.0893 43.9238 24.0334 43.9337Z" fill="#39B4EF"/>
<path d="M23.9643 44.178C23.938 44.1911 23.9775 44.3227 23.9643 44.349C23.9512 44.3753 24.0005 44.4707 24.0334 44.3852C24.0663 44.2997 24.0268 44.2635 24.0334 44.2405C24.04 44.2175 24.017 44.1517 23.9643 44.178Z" fill="#39B4EF"/>
<path d="M26.3153 42.339C26.2758 42.3653 26.2363 42.1713 26.2429 42.2963C26.2495 42.4212 26.2725 42.5068 26.3153 42.5364C26.358 42.566 26.4962 42.5956 26.4764 42.5364C26.46 42.4772 26.4732 42.4706 26.4764 42.4541C26.4797 42.4377 26.4403 42.3522 26.4041 42.3522C26.3712 42.3489 26.3811 42.293 26.3153 42.339Z" fill="#39B4EF"/>
<path d="M23.2273 46.8586C23.0661 46.9441 22.724 47.1974 22.4609 47.1481C22.1978 47.0987 22.0531 47.0527 22.007 47.1481C21.9577 47.2434 22.1978 47.7697 22.3425 47.8881C22.4872 48.0065 22.0004 48.319 22.0004 48.319C22.0004 48.319 22.6714 48.6314 22.6155 48.7038C22.5596 48.7761 22.2701 48.9439 22.2011 49.0393C22.1287 49.1346 22.0037 49.2563 22.0037 49.2563C22.0037 49.2563 21.8064 49.4964 22.0037 49.6148C22.2011 49.7333 22.3458 49.7596 22.3688 49.8319C22.3918 49.9043 22.6319 50.3582 22.8227 49.9273C23.0135 49.4964 22.8457 49.2333 23.2305 49.2794C23.6154 49.3287 23.8818 49.23 24.1054 49.1346C24.3324 49.0393 24.3784 49.3517 24.4146 48.9669C24.4508 48.5821 24.2995 48.7432 24.4705 48.4834C24.6415 48.2236 24.5988 48.1282 24.6087 47.9605C24.6185 47.7927 24.7961 47.7434 24.8027 47.6743C24.8093 47.6019 24.6284 47.625 24.8027 47.4112C24.977 47.1941 24.783 47.1941 24.8323 46.9573C24.8817 46.7172 24.6087 46.4771 24.6087 46.4771L24.1449 46.3817C24.1449 46.3817 24.1021 46.3093 24.1219 46.2732C24.1383 46.237 24.0791 46.1909 24.0791 46.1909C24.0791 46.1909 23.9837 46.1416 23.9344 46.1416C23.8851 46.1416 23.8094 46.1548 23.7897 46.2074C23.7732 46.26 23.7173 46.3258 23.6811 46.3225C23.645 46.3159 23.6877 46.214 23.5364 46.2699C23.3851 46.3225 23.3391 46.3422 23.3161 46.3784C23.293 46.4146 23.1845 46.4376 23.2009 46.4968C23.2174 46.556 23.2963 46.5626 23.2503 46.6054C23.2009 46.6481 23.0233 46.6218 23.1549 46.7238C23.2865 46.8224 23.3325 46.8027 23.2273 46.8586Z" fill="#39B4EF"/>
<path d="M35.1546 46.4531C35.1349 46.4827 35.0296 46.4696 34.9112 46.4005C34.7928 46.3281 34.7402 46.2755 34.7402 46.2031C34.7402 46.1308 34.6876 46.0683 34.7402 46.0157C34.7928 45.963 34.8224 45.917 34.875 45.917C34.9277 45.917 34.9737 45.917 35.0197 45.9696C35.0658 46.0222 35.102 46.1143 35.1546 46.1867C35.2105 46.2558 35.2105 46.3643 35.1546 46.4531Z" fill="#39B4EF"/>
<path d="M35.4951 46.5518C35.4425 46.5946 35.4063 46.6505 35.4326 46.6604C35.4589 46.6703 35.4425 46.713 35.4951 46.7426C35.5477 46.7689 35.6464 46.7064 35.7385 46.7426C35.8273 46.7788 35.9194 46.7788 35.9457 46.8051C35.972 46.8314 36.097 46.7689 36.0543 46.6801C36.0082 46.5913 35.8306 46.4992 35.7944 46.5551C35.7582 46.6078 35.6958 46.6275 35.6497 46.6275C35.6037 46.6242 35.551 46.5058 35.4951 46.5518Z" fill="#39B4EF"/>
<path d="M35.8105 46.2399C35.8105 46.1215 35.5244 46.3649 35.5244 46.1939C35.5244 46.0228 35.4882 45.9242 35.5244 45.8814C35.5606 45.8354 35.4389 45.809 35.508 45.7301C35.577 45.6512 35.6954 45.4242 35.7448 45.5492C35.7941 45.6742 35.7316 45.7926 35.8105 45.809C35.8928 45.8255 35.9618 45.8913 35.9618 45.7202C35.9618 45.5492 35.7382 45.388 35.9618 45.4045C36.1855 45.4209 36.2315 45.5295 36.2414 45.6018C36.2513 45.6742 36.3236 45.7794 36.2776 45.8386C36.2315 45.8978 36.0704 45.9242 36.1164 45.9965C36.1625 46.0689 36.2776 46.0491 36.2348 46.1412C36.1921 46.2333 36.0737 46.2136 36.0638 46.2761C36.0539 46.3386 36.1 46.4208 36.0638 46.4274C36.0243 46.4372 35.8105 46.4274 35.8105 46.2399Z" fill="#39B4EF"/>
<path d="M36.9338 46.8118C36.9831 46.7361 36.7265 46.7723 36.7265 46.8118C36.7265 46.8512 36.7726 46.9302 36.7726 46.9302C36.7726 46.9302 36.6542 46.9565 36.7265 46.9927C36.7989 47.0288 36.7561 47.0387 36.8186 47.0552C36.8811 47.0716 37.0226 47.1176 37.0226 47.0552C37.0226 46.9927 36.9699 46.9039 36.9699 46.9039C36.9699 46.9039 36.9074 46.8512 36.9338 46.8118Z" fill="#39B4EF"/>
<path d="M37.8138 46.3914C37.8763 46.4374 37.9947 46.4703 37.9947 46.4703C37.9947 46.4703 38.0572 46.3914 38.0474 46.3388C38.0375 46.2861 37.9388 46.1677 37.9322 46.1414C37.9224 46.1151 37.7612 46.0066 37.7513 46.1414C37.7415 46.2763 37.7513 46.3453 37.8138 46.3914Z" fill="#39B4EF"/>
<path d="M40.2486 43.6973C40.2486 43.6973 40.1038 43.6611 40.0611 43.6973C40.015 43.7335 39.9525 43.8848 39.9361 43.9144C39.9197 43.9407 39.719 43.9604 39.8473 44.0854C39.9723 44.2104 39.9821 44.2663 39.9657 44.3189C39.9493 44.3716 39.7157 44.4439 39.9032 44.4538C40.0907 44.4636 40.1894 44.49 40.1729 44.2926C40.1565 44.0953 40.1367 44.0953 40.1828 44.0065C40.2288 43.9177 40.0479 43.8913 40.2551 43.8354C40.4558 43.7762 40.39 43.6085 40.2486 43.6973Z" fill="#39B4EF"/>
<path d="M40.7582 43.4438C40.7582 43.4438 40.5148 43.3451 40.4984 43.3911C40.4819 43.4372 40.4984 43.5523 40.4984 43.5523C40.4984 43.5523 40.4359 43.5786 40.5444 43.5523C40.653 43.526 40.7582 43.6082 40.7582 43.4438Z" fill="#39B4EF"/>
<path d="M42.8301 42.5722C42.7709 42.4834 42.4716 42.536 42.4354 42.5722C42.3993 42.6084 42.2546 42.5722 42.2315 42.6446C42.2085 42.7169 42.0769 42.6939 42.123 42.7893C42.1723 42.8847 42.2184 42.934 42.2184 42.9932C42.2184 43.0524 42.2184 43.161 42.2184 43.161C42.2184 43.161 42.4486 43.2333 42.4716 43.0162C42.4946 42.7992 42.59 42.7663 42.6756 42.7663C42.7578 42.763 42.9025 42.6775 42.8301 42.5722Z" fill="#39B4EF"/>
<path d="M42.5667 42.2831C42.4121 42.2962 42.3858 42.2831 42.3397 42.2831C42.2904 42.2831 42.2904 42.1877 42.3397 42.1515C42.3891 42.1153 42.3989 42.043 42.4351 42.043C42.4713 42.043 42.5897 42.2041 42.6621 42.1647C42.7344 42.1285 42.5667 42.2831 42.5667 42.2831Z" fill="#39B4EF"/>
<path d="M40.6197 40.7505C40.6065 40.5795 40.3368 40.7998 40.3796 40.6781C40.4223 40.5597 40.4947 40.5466 40.4947 40.5466C40.4947 40.5466 40.544 40.5236 40.544 40.4874C40.544 40.4512 40.5539 40.369 40.6197 40.415C40.6888 40.4644 40.8433 40.494 40.8433 40.5795C40.8433 40.665 40.7348 40.767 40.7611 40.7604C40.7841 40.7505 40.8433 40.859 40.8433 40.859C40.8433 40.859 40.6361 40.9906 40.6197 40.7505Z" fill="#39B4EF"/>
<path d="M37.4205 30.5115C37.3712 30.5707 37.2166 30.6069 37.1935 30.6661C37.1705 30.7253 36.9304 30.9522 36.9666 30.6661C37.0028 30.3799 36.9896 30.2944 37.039 30.1859C37.0883 30.0773 37.1442 29.8866 37.1935 29.982C37.2429 30.0773 37.1968 30.3174 37.2429 30.3306C37.2922 30.3438 37.3744 30.3174 37.4238 30.1859C37.4731 30.0543 37.506 29.982 37.5553 30.0412C37.6047 30.1004 37.5685 30.2319 37.5553 30.3043C37.5389 30.3799 37.4205 30.5115 37.4205 30.5115Z" fill="#39B4EF"/>
<path d="M36.5213 30.8105C36.5213 30.8105 36.6397 30.9289 36.6759 30.8105C36.7121 30.6921 36.6989 30.6197 36.6759 30.646C36.6529 30.669 36.6035 30.7052 36.5213 30.7546C36.4358 30.8006 36.5016 30.7611 36.5213 30.8105Z" fill="#39B4EF"/>
<path d="M36.3365 31.0117C36.3464 31.0315 36.251 31.0775 36.228 31.1071C36.205 31.1334 36.1885 31.1433 36.1754 31.1433C36.1622 31.1433 36.0866 31.1532 36.1162 31.0775C36.1491 31.0019 36.0767 30.9624 36.182 30.9262C36.2905 30.89 36.3037 30.9394 36.3365 31.0117Z" fill="#39B4EF"/>
<path d="M35.7782 31.2382C35.821 31.2218 35.8013 31.1231 35.7782 31.1395C35.7552 31.156 35.6894 31.202 35.6697 31.2382C35.6532 31.2744 35.6861 31.327 35.6697 31.3566C35.6532 31.3829 35.6039 31.4421 35.6631 31.4454C35.7223 31.4487 35.7486 31.4619 35.7881 31.3994C35.8276 31.3369 35.7256 31.2612 35.7782 31.2382Z" fill="#39B4EF"/>
<path d="M35.9114 31.064C35.9081 31.1232 35.8884 31.189 35.9114 31.1989C35.9344 31.2087 36.0101 31.2449 36.0101 31.1989C36.0101 31.1528 36.0134 31.1331 36.0101 31.0969C36.0068 31.0607 35.9147 31.018 35.9114 31.064Z" fill="#39B4EF"/>
<path d="M35.6365 31.6528C35.6332 31.6857 35.6168 31.7547 35.6365 31.7646C35.6562 31.7745 35.7418 31.7975 35.7483 31.7646C35.7516 31.7317 35.8075 31.7054 35.7483 31.6824C35.6891 31.6626 35.6464 31.5771 35.6365 31.6528Z" fill="#39B4EF"/>
<path d="M36.7748 30.12C36.7682 30.1364 36.6926 29.9621 36.6301 30.018C36.5676 30.0706 36.5281 30.0838 36.5281 30.12C36.5281 30.1562 36.3999 30.2055 36.4788 30.2351C36.5577 30.268 36.6696 30.2252 36.6696 30.2351C36.6696 30.245 36.6465 30.2746 36.6696 30.3074C36.6926 30.3403 36.7354 30.3436 36.7518 30.3436C36.765 30.3436 36.7748 30.2976 36.8242 30.245C36.8735 30.1923 36.8899 30.1956 36.9097 30.1101C36.9261 30.0246 36.9853 29.9226 36.9097 29.9851C36.8307 30.0509 36.8176 30.0312 36.7748 30.12Z" fill="#39B4EF"/>
<path d="M37.0224 29.7815C37.0455 29.7519 36.8909 29.8309 37.0224 29.65C37.154 29.4691 37.3152 29.3276 37.3415 29.3803C37.3678 29.4329 37.1935 29.5677 37.1968 29.6302C37.2 29.6927 37.279 29.7256 37.2132 29.7782C37.1507 29.8309 37.0882 29.8769 37.0783 29.8934C37.0718 29.9164 36.9238 29.9065 37.0224 29.7815Z" fill="#39B4EF"/>
<path d="M37.7047 29.321C37.6389 29.3539 37.6521 29.4887 37.7047 29.5019C37.7573 29.5151 37.9251 29.4427 37.9744 29.4131C38.0237 29.3835 38.0468 29.3901 38.0533 29.275C38.0599 29.1598 38.0106 29.1302 38.0533 29.0842C38.0961 29.0349 37.9514 28.8737 37.9086 28.9691C37.8659 29.0645 37.8593 29.2388 37.8363 29.275C37.8132 29.3078 37.8231 29.2618 37.7047 29.321Z" fill="#39B4EF"/>
<path d="M37.5527 29.7451C37.5527 29.7451 37.5593 29.824 37.6054 29.8536C37.6547 29.8832 37.6711 29.9589 37.7205 29.903C37.7698 29.847 37.8159 29.7911 37.7501 29.7451C37.6843 29.699 37.5626 29.6267 37.5527 29.7451Z" fill="#39B4EF"/>
<path d="M38.7949 28.4825C38.7784 28.4891 38.8738 28.6141 38.8738 28.6141L38.9166 28.6569C38.9166 28.6569 39.0054 28.772 39.0251 28.6569C39.0416 28.5417 39.0481 28.5023 39.0744 28.4825C39.0975 28.4661 39.081 28.3872 38.9922 28.4036C38.8968 28.4233 38.9889 28.4168 38.7949 28.4825Z" fill="#39B4EF"/>
<path d="M38.6763 28.3339C38.6368 28.2648 38.7486 28.2319 38.7947 28.2023C38.8374 28.1727 38.9591 28.0642 38.8802 28.2023C38.8012 28.3404 38.7651 28.3569 38.7651 28.3569C38.7651 28.3569 38.719 28.4029 38.6763 28.3339Z" fill="#39B4EF"/>
<path d="M39.2257 28.009C39.1435 28.032 39.1961 28.1471 39.2257 28.2129C39.2553 28.2787 39.2191 28.3774 39.3046 28.3708C39.3869 28.3675 39.5217 28.4201 39.502 28.3379C39.4855 28.2557 39.4592 28.2129 39.4132 28.1702C39.3638 28.1307 39.377 27.9662 39.2257 28.009Z" fill="#39B4EF"/>
<path d="M39.6222 28.1335C39.6123 28.1499 39.5991 28.2026 39.6222 28.2519C39.6452 28.3012 39.711 28.3144 39.7373 28.321C39.7603 28.3275 39.8557 28.4657 39.8392 28.321C39.8228 28.1762 39.78 28.196 39.7669 28.1335C39.7537 28.0677 39.6748 28.0447 39.6222 28.1335Z" fill="#39B4EF"/>
<path d="M40.8145 27.7154C40.7948 27.7187 40.7422 27.768 40.7422 27.7878C40.7422 27.8042 40.8869 27.8897 40.8869 27.8897C40.8869 27.8897 40.8573 27.9621 40.9231 27.9325C40.9889 27.9029 40.9954 27.7944 40.9724 27.7779C40.9461 27.7582 40.9987 27.6792 40.8145 27.7154Z" fill="#39B4EF"/>
<path d="M40.6887 27.4589C40.6986 27.2188 40.3467 27.4885 40.4256 27.4161C40.5045 27.3438 40.5078 27.3142 40.6065 27.3142C40.7019 27.3142 40.7447 27.3142 40.7447 27.3142C40.7447 27.3142 40.8039 27.403 40.8664 27.3438C40.9256 27.2846 40.8795 27.255 40.988 27.2254C41.0933 27.1958 41.215 27.1103 41.2281 27.1432C41.2413 27.1728 40.8696 27.3997 40.8696 27.4655C40.8696 27.5313 40.817 27.5543 40.817 27.5543C40.817 27.5543 40.6822 27.6003 40.6887 27.4589Z" fill="#39B4EF"/>
<path d="M41.0342 27.5615C40.998 27.5911 41.0112 27.6371 41.0342 27.6864C41.0572 27.7358 41.0934 27.7687 41.0934 27.7687C41.0934 27.7687 41.1658 27.7588 41.1822 27.6634C41.1986 27.5713 41.2677 27.4727 41.2184 27.4727C41.1723 27.4759 41.1427 27.4727 41.0342 27.5615Z" fill="#39B4EF"/>
<path d="M41.5966 26.752C41.5966 26.752 41.7578 26.6731 41.7644 26.729C41.7709 26.7816 41.7348 26.831 41.7052 26.8441C41.6755 26.854 41.5012 26.8704 41.5966 26.752Z" fill="#39B4EF"/>
<path d="M42.5013 26.5117C42.3763 26.5183 42.2612 26.5051 42.2447 26.5347C42.2283 26.5643 42.2973 26.6433 42.2973 26.6433C42.2973 26.6433 42.4059 26.6795 42.4585 26.6433C42.5111 26.6071 42.5407 26.5775 42.5407 26.5611C42.544 26.5413 42.5013 26.5117 42.5013 26.5117Z" fill="#39B4EF"/>
<path d="M42.0214 26.5877C42.0017 26.5779 41.9491 26.6108 41.9556 26.6305C41.9622 26.6502 41.982 26.6634 42.005 26.6798C42.028 26.6963 42.13 26.6897 42.1365 26.6601C42.1431 26.6305 42.0938 26.6206 42.0214 26.5877Z" fill="#39B4EF"/>
<path d="M55.9364 28.0281C55.9101 28.1005 55.818 28.1301 55.8213 28.2255C55.8279 28.3208 55.8443 28.3505 55.8213 28.4294C55.7983 28.5083 55.7851 28.6037 55.8213 28.6695C55.8575 28.7353 55.9463 28.7649 55.9364 28.8142C55.9233 28.8635 55.9857 28.8964 55.9857 28.9458C55.9857 28.9951 55.9923 29.0642 56.0285 29.0839C56.0647 29.1004 56.0121 29.1135 56.1239 29.1135C56.239 29.1135 56.2851 29.1201 56.4594 29.005C56.6337 28.8899 56.6436 28.9227 56.6929 28.7945C56.7422 28.6695 56.7455 28.6399 56.7521 28.5708C56.7587 28.5017 56.7685 28.3537 56.8014 28.4491C56.831 28.5445 56.7521 28.7715 56.8606 28.7353C56.9692 28.6991 56.9988 28.7188 56.9988 28.5708C56.9988 28.4228 56.9692 28.3702 56.9264 28.2912C56.8837 28.2123 56.8475 28.1827 56.7422 28.1597C56.6337 28.1367 56.6633 28.1597 56.5153 28.0511C56.364 27.9426 55.9923 27.8768 55.9364 28.0281Z" fill="#39B4EF"/>
<path d="M62.3617 26.6041C62.2104 26.6074 62.138 26.4594 62.1282 26.3871C62.1183 26.3147 62.0196 26.2522 61.967 26.1996C61.9144 26.147 61.8782 26.1174 61.796 25.9924C61.7137 25.8674 61.2927 25.8477 61.2927 25.8477C61.2927 25.8477 61.1579 25.9003 61.2927 25.999C61.4276 26.0976 61.6151 26.2423 61.4736 26.2226C61.3289 26.2062 61.2335 26.1864 61.2335 26.1864C61.2335 26.1864 61.0165 26.1404 61.0954 26.2226C61.1776 26.3048 61.2829 26.3575 61.3026 26.42C61.3191 26.4824 61.2204 26.7423 61.3651 26.7719C61.5098 26.7982 61.523 26.7456 61.5888 26.7719C61.6315 26.7883 61.5263 26.42 61.6611 26.5219C61.796 26.6239 61.7861 26.7193 61.8946 26.7817C62.0032 26.8442 61.921 26.8804 61.9834 26.9725C62.0459 27.0613 61.967 27.1962 62.1446 27.1435C62.3255 27.0909 62.2795 27.0186 62.3617 27.0449C62.4439 27.0712 62.4965 27.331 62.4867 27.0712C62.4768 26.8114 62.6676 26.5976 62.3617 26.6041Z" fill="#39B4EF"/>
<path d="M62.1694 27.6826C62.1957 27.5872 61.9523 27.3964 61.8833 27.3438C61.8701 27.3339 61.8537 27.3339 61.8372 27.3405C61.8175 27.3537 61.7912 27.3767 61.8043 27.426C61.8241 27.5116 62.1398 27.7944 62.1694 27.6826Z" fill="#39B4EF"/>
<path d="M61.5622 27.1866C61.5359 27.2063 61.5129 27.2918 61.5622 27.3313C61.6115 27.3708 61.6576 27.4135 61.6773 27.3741C61.6938 27.3346 61.6346 27.1372 61.5622 27.1866Z" fill="#39B4EF"/>
<path d="M62.2979 27.8413C62.2782 27.8577 62.1894 27.7886 62.2486 27.8774C62.3078 27.9662 62.367 28.0024 62.3867 27.9597C62.4032 27.9202 62.344 27.8051 62.2979 27.8413Z" fill="#39B4EF"/>
<path d="M35.048 41.4144C35.0217 41.3881 35.0118 41.4144 35.002 41.4802C35.0348 41.4538 35.0645 41.4308 35.048 41.4144Z" fill="#39B4EF"/>
<path d="M35.5144 43.3556C35.5144 43.3359 35.521 43.3129 35.5276 43.2866C35.4881 43.2701 35.5144 43.405 35.5144 43.3556Z" fill="#39B4EF"/>
<path d="M25.8293 53.482C25.7208 53.459 25.8392 53.4919 25.8293 53.482V53.482Z" fill="#39B4EF"/>
<path d="M34.9624 41.7337C34.9854 41.6285 34.9953 41.5397 35.0019 41.4805C34.9361 41.5331 34.8506 41.6087 34.9624 41.7337Z" fill="#39B4EF"/>
<path d="M34.9624 41.7337C34.9854 41.6285 34.9953 41.5397 35.0019 41.4805C34.9361 41.5331 34.8506 41.6087 34.9624 41.7337Z" fill="#39B4EF"/>
<path d="M35.048 41.4144C35.0217 41.3881 35.0118 41.4144 35.002 41.4802C35.0348 41.4538 35.0645 41.4308 35.048 41.4144Z" fill="#39B4EF"/>
<path d="M58.0157 59.0083C58.2098 58.9393 58.7985 58.9623 58.9103 59.0215C59.0222 59.0807 59.2721 58.9952 59.2721 58.7452C59.2721 58.4952 58.9926 58.4393 59.2721 58.2157C59.5517 57.992 60.2786 57.798 60.3345 57.7125C60.3904 57.6302 60.5581 57.6861 60.5845 57.2388C60.6108 56.7915 60.5581 56.6238 60.5845 56.4856C60.6108 56.3475 60.4595 56.5679 60.591 56.2061C60.7226 55.8443 61.0844 55.4792 61.2521 55.2292C61.4199 54.9792 60.693 54.6701 60.693 54.476C60.693 54.282 58.9333 53.5649 58.9893 53.3314C59.2688 52.1868 61.9231 52.5782 62.0349 52.3546C62.1468 52.1309 61.7554 51.6343 61.7554 51.6343L61.5876 51.2363C61.0285 50.789 60.5812 50.4535 61.1403 50.2298C61.6994 50.0062 61.558 49.9799 61.8376 49.6444C62.1172 49.3089 62.4921 49.0524 62.0547 49.1247C61.6139 49.1971 61.3377 49.3089 61.3377 49.3089C61.3377 49.3089 61.5613 48.5261 61.6995 48.4702C61.8376 48.4143 62.0909 48.4702 62.0909 48.4702C62.0909 48.4702 62.1139 48.388 62.2553 48.3025C62.3967 48.2202 62.5382 47.6874 62.4263 47.6611C62.3145 47.6348 62.0908 47.7992 62.1468 47.5493C62.2027 47.2993 61.2817 47.4933 62.3145 46.9079C63.3473 46.3224 62.1468 44.7568 62.1468 44.7568C62.1468 44.7568 62.0218 44.0596 62.3573 44.0727C62.6927 44.0859 63.1532 44.0727 63.1532 44.0727C63.1532 44.0727 63.1105 44.8884 63.9064 44.4674C64.7024 44.0464 64.7451 44.3622 64.9129 43.5761C65.0806 42.79 64.7879 42.5236 64.9129 42.2999C65.0378 42.0763 65.4161 42.2868 65.5411 41.7835C65.666 41.2803 65.5411 41.0336 65.5411 40.9054C65.5411 40.7771 65.9884 40.6751 65.597 40.412C65.2056 40.1489 64.9556 40.1489 64.9556 40.1489C64.9556 40.1489 64.3702 39.7706 64.7451 39.3102C65.1234 38.8497 65.3306 38.682 65.3306 38.682C65.3306 38.682 65.7088 38.7642 66.0838 38.682C66.462 38.5997 66.7975 38.432 66.7975 38.136C66.7975 37.8432 66.462 37.59 66.4193 37.4222C66.3765 37.2545 66.6297 36.6263 66.7975 36.4586C66.9652 36.2908 66.9652 35.9553 67.008 35.8303C67.0507 35.7054 67.008 33.7484 67.008 33.7484C67.008 33.7484 67.1198 33.3011 67.3994 32.9097C67.679 32.5183 67.9585 32.015 67.623 31.8473C67.2876 31.6796 66.9521 31.5118 66.9521 31.5118C66.9521 31.5118 66.9521 30.8408 67.2875 30.5054C67.623 30.1699 67.6494 30.114 67.7776 29.8344C67.9026 29.5548 68.2381 29.4035 68.0144 29.1141C67.9092 28.9792 67.7513 28.7062 67.6165 28.4596C67.4356 28.3773 67.133 28.226 67.0705 28.1241C66.9817 27.9794 66.837 27.782 66.4225 27.7458C66.0081 27.7097 66.1002 27.0091 65.722 27.0091C65.3437 27.0091 65.0576 27.0453 65.0576 27.0453C65.0576 27.0453 65.3076 27.44 64.7155 27.0091C64.1235 26.5782 63.89 26.5585 63.8176 26.5782C63.7452 26.5947 63.2617 26.7229 63.2617 26.7229L62.65 26.6506L62.8309 27.4038C62.8309 27.4038 62.2389 27.5649 62.6697 27.7623C63.1006 27.9596 63.1894 28.1208 63.1894 28.1767C63.1894 28.2293 62.9559 28.374 62.9197 28.4464C62.8835 28.5188 62.2191 28.3938 62.5414 28.6964C62.8638 29.0023 62.9197 29.2522 62.6862 29.1799C62.4526 29.1075 62.1303 28.9628 62.1665 28.9102C62.2027 28.8575 62.2191 28.6405 62.2191 28.3905C62.2191 28.1405 62.002 27.907 61.9494 28.0846C61.8968 28.2655 62.0941 28.4431 61.7883 28.5155C61.4824 28.5878 61.1403 28.3543 61.1765 28.5155C61.2127 28.6766 61.0515 28.749 61.0153 28.8016C60.9791 28.8542 60.4595 28.749 60.4595 28.749C60.4595 28.749 59.9924 28.4069 60.226 28.7852C60.4595 29.1634 60.2786 29.1075 60.2786 29.216C60.2786 29.3246 60.0089 29.3246 60.0089 29.3772C60.0089 29.4298 59.9201 29.216 59.7754 29.3048C59.6306 29.3937 59.6142 29.4298 59.4168 29.3575C59.2195 29.2851 58.986 29.3049 59.1833 29.0878C59.3807 28.8707 59.4004 28.7457 59.3083 28.7457C59.2162 28.7457 59.1636 28.7095 59.3971 28.601C59.6306 28.4925 60.0253 28.476 59.6306 28.3839C59.2359 28.2951 58.8215 28.4925 58.8215 28.4925C58.8215 28.4925 58.7327 28.6174 58.7853 28.6898C58.838 28.7622 58.9103 28.9398 58.7492 28.9759C58.588 29.0121 58.3347 28.7786 58.2986 28.851C58.2624 28.9233 58.1012 29.1371 58.0486 29.2095C57.996 29.2818 57.5092 29.6239 57.5651 29.568C57.6177 29.5153 57.7263 29.1009 57.4763 29.4792C57.2263 29.8574 57.2263 30.2883 56.9007 30.3771C56.5784 30.4659 56.1837 30.2159 56.1837 30.3409C56.1837 30.4659 56.1113 30.683 56.1113 30.7915C56.1113 30.9 56.2561 31.1697 56.0752 31.275C55.8943 31.3835 55.914 31.5447 55.6969 31.5611C55.4798 31.5776 55.1411 31.6138 55.1213 31.525C55.1049 31.4362 54.7793 31.3638 54.799 31.2553C54.8187 31.1467 54.7102 31.1303 54.799 31.0053C54.8878 30.8803 54.9075 30.8244 54.9075 30.7718C54.9075 30.7191 55.1772 30.6468 55.2299 30.5382C55.2825 30.4297 55.1937 30.4133 55.1049 30.16C55.0161 29.91 55.4272 30.0876 54.8714 29.7094C54.3155 29.3312 53.8846 29.2785 53.8485 29.3312C53.8123 29.3838 53.5788 29.3476 53.49 29.4035C53.4012 29.4561 53.1676 29.5647 53.5261 29.7982C53.8846 30.0317 53.8485 29.9429 53.9044 30.2126C53.957 30.4823 53.5821 30.8047 53.7597 30.9856C53.9406 31.1665 53.9208 31.1105 53.957 31.2914C53.9932 31.4723 53.707 31.4723 53.957 31.5776C54.207 31.6861 54.207 31.6861 54.207 31.6861C54.207 31.6861 54.2793 31.9558 54.332 32.1696C54.3846 32.3867 54.3155 32.4558 54.332 32.6005C54.3484 32.7452 54.332 32.9064 54.1412 32.9787C53.9504 33.0511 53.7334 32.9294 53.7334 32.9294C53.7334 32.9294 53.3748 32.4262 53.2795 32.4492C53.1841 32.4722 52.9209 32.64 52.944 32.857C52.967 33.0741 52.1546 33.4063 52.1053 33.505C52.0559 33.6004 52.2007 33.9852 52.2007 34.1266C52.2007 34.2713 52.4407 34.7022 52.4407 34.8206C52.4407 34.939 51.6744 35.1067 51.6744 35.1067C51.6744 35.1067 51.1942 34.7713 51.0528 34.6265C50.908 34.4818 50.5265 34.0049 50.3358 34.0773C50.145 34.1496 49.8095 34.6759 50.2404 34.8436C50.6712 35.0114 50.5528 35.0114 50.839 35.2021C51.1251 35.3929 51.9408 35.61 51.7731 35.7514C51.6053 35.8961 50.2174 35.8468 50.2174 35.8468C50.2174 35.8468 49.8819 35.8961 49.8095 35.9191C49.7371 35.9422 49.1155 35.7021 49.1616 35.4653C49.2109 35.2252 49.1846 35.1067 49.1122 34.9851C49.0399 34.8666 48.7998 34.745 48.7767 34.5772C48.7537 34.4095 48.7537 34.3864 48.6583 34.1694C48.5629 33.9523 48.4413 33.8832 48.4676 33.7385C48.4906 33.5938 48.6353 33.7878 48.4445 33.38C48.2538 32.9721 47.6289 32.686 47.5828 32.6136C47.5335 32.5413 47.7506 32.686 47.5828 32.3275C47.4151 31.969 47.7506 32.0644 47.9676 32.1828C48.1847 32.3012 48.3985 32.5413 48.734 32.5906C49.0695 32.64 48.9971 32.8768 49.3556 32.9031C49.7141 32.9261 49.7404 33.0215 50.2404 33.0215C50.7436 33.0215 50.5989 32.9491 50.9837 32.9491C51.3685 32.9491 51.3685 32.9722 51.6316 32.8537C51.8948 32.7353 51.6547 32.3275 52.0855 32.0381C52.5164 31.7519 52.444 31.6796 52.398 31.5579C52.3487 31.4394 51.8717 31.3408 51.8717 31.0777C51.8717 30.8145 51.704 30.7191 51.5856 30.6238C51.4672 30.5284 51.2731 30.5744 51.1054 30.3606C50.9376 30.1436 50.6975 30.0252 50.6252 30.0252C50.5528 30.0252 50.1713 29.9758 50.122 29.9067C50.0726 29.8344 50.0036 29.8344 49.8358 29.6436C49.6681 29.4529 49.3819 29.3312 49.2602 29.2588C49.1418 29.1864 49.0201 29.0911 48.8063 29.0187C48.5893 28.9463 48.1847 28.8016 48.1847 28.8016C48.1847 28.8016 47.9446 28.7293 47.8492 28.8016C47.7538 28.874 47.5861 29.2325 47.3 29.0647C47.0138 28.897 46.7013 28.6109 46.7013 28.6109C46.7013 28.6109 46.7967 28.2524 46.4843 28.2524C46.1718 28.2524 46.3165 28.6602 45.7903 28.6109C45.264 28.5615 45.1917 28.6339 44.9516 28.4661C44.7115 28.2984 44.0175 28.1076 44.5437 28.0353C45.07 27.9629 44.8792 27.9859 45.3594 27.8445C45.8396 27.6998 46.0304 27.7952 45.8857 27.532C45.7409 27.2689 45.07 26.8611 45.0239 27.0058C44.9746 27.1505 44.6884 26.815 44.6161 27.0058C44.5437 27.1966 44.2082 27.0551 44.2806 27.2919C44.353 27.532 44.4977 27.9629 44.1359 27.6768C43.7774 27.3906 43.2248 27.4136 43.5603 27.2229C43.8958 27.0321 43.7511 27.1505 43.8958 26.8644C44.0405 26.5782 44.0635 26.3381 43.8728 26.4105C43.682 26.4828 43.2972 26.8183 43.2972 26.8183L43.1064 27.3215C43.1064 27.3215 43.1064 27.6801 42.9156 27.634C42.7249 27.5847 41.9815 27.8511 42.4617 27.3479C42.9419 26.8446 42.8696 26.8446 42.8696 26.7262C42.8696 26.6078 41.8204 26.9433 41.8204 26.9433L41.8927 27.1768C41.8927 27.1768 41.4257 26.7624 41.5145 27.0321C41.6033 27.3018 41.7842 27.4268 41.6395 27.5353C41.4948 27.6439 41.3172 27.8774 41.3172 27.8774C41.3172 27.8774 41.1922 28.0024 41.281 28.1274C41.3698 28.2523 41.1922 28.4333 41.1922 28.4333C41.1922 28.4333 40.7251 28.4859 40.6528 28.3247C40.5804 28.1635 40.6528 28.1635 40.5804 28.055C40.508 27.9465 40.3633 27.8215 40.2943 27.8741C40.2219 27.9267 39.6463 27.9629 40.0245 28.1438C40.4028 28.3247 40.041 28.2162 40.2581 28.4135C40.4752 28.6109 40.3403 28.5813 40.3403 28.5813C40.3403 28.5813 40.4719 28.7622 40.3995 28.7852C40.3271 28.8082 40.2186 28.7983 40.1002 28.6668C39.9818 28.5352 39.7285 28.4267 39.7779 28.5845C39.8272 28.7391 39.791 28.8839 39.8009 28.9431C39.8141 29.0023 39.347 29.193 39.3931 28.8937C39.4424 28.5944 39.3799 28.4135 39.3339 28.4497C39.2845 28.4859 39.0576 28.5813 39.2253 28.7358C39.3931 28.8904 39.3075 29.1305 39.3207 29.1897C39.3339 29.2489 39.1661 29.0713 39.1036 28.9727C39.0444 28.8773 38.732 28.5648 38.9129 28.8411C39.0938 29.1174 39.153 29.2259 39.153 29.2851C39.153 29.3443 39.0444 29.6798 38.903 29.3081C38.7583 28.9365 38.5807 28.5418 38.6267 28.7589C38.676 28.9759 38.482 29.0088 38.5905 29.2029C38.6991 29.3937 38.7221 29.5976 38.6267 29.6107C38.5313 29.6239 38.4721 29.5384 38.4096 29.3937C38.3504 29.2489 38.061 29.0713 38.2057 29.2128C38.3504 29.3575 38.3734 29.4759 38.3504 29.5614C38.3274 29.6436 37.6433 29.5482 37.9656 29.7061C37.9985 29.7226 38.0281 29.7357 38.0544 29.7489C38.1597 29.7357 38.2879 29.8607 38.2879 29.8607C38.2879 29.8607 38.2846 29.8607 38.0544 29.7489C38.0281 29.7522 37.9985 29.762 37.9788 29.7883C37.8702 29.9199 38.2189 30.1008 38.0018 30.2192C37.7847 30.3376 37.9196 30.2685 37.7847 30.3376C37.6531 30.41 37.8669 30.6731 37.8669 30.6731C37.8669 30.6731 37.7222 30.9954 37.9755 30.9362C38.2254 30.877 38.2879 30.4462 38.2386 30.7685C38.1893 31.0908 37.8439 31.1862 37.663 31.2125C37.4821 31.2355 37.3867 30.9724 37.2552 30.9494C37.1236 30.9264 37.1006 31.321 37.1466 31.3671C37.196 31.4164 37.0512 31.4263 37.1335 31.594C37.2157 31.7618 36.798 31.7026 36.7848 31.7848C36.7717 31.867 36.9756 32.0019 36.9032 32.0709C36.8309 32.1433 37.2979 32.2025 37.0216 32.2979C36.7454 32.3933 36.206 32.2749 36.3145 32.3801C36.423 32.4854 36.5184 32.6202 36.4329 32.6564C36.3507 32.6926 36.5875 32.7649 36.3737 32.8011C36.1566 32.8373 36.1829 33.0182 36.1829 33.0182C36.1829 33.0182 35.6567 33.0906 35.9067 33.2682C36.1566 33.4491 36.206 33.5313 36.1829 33.6037C36.1599 33.676 36.0744 33.7714 36.002 33.7714C35.9297 33.7714 35.8113 33.6629 35.8705 33.8438C35.9297 34.0246 35.7751 34.0641 35.8179 34.1266C35.8606 34.1858 35.9264 34.1694 35.8902 34.2713C35.854 34.3733 35.8606 34.416 35.8475 34.4818C35.8343 34.5476 35.7323 34.6068 35.7225 34.6364C35.7093 34.666 35.4232 34.6529 35.5712 34.8107C35.7225 34.9653 35.6863 35.0015 35.7554 35.0147C35.8277 35.0278 35.5251 35.0936 35.5251 35.0936L35.2094 35.2909V35.633C35.2094 35.633 34.8311 35.5804 34.7949 35.7218C34.7588 35.8665 35.1732 35.9718 34.9199 35.9718C34.67 35.9718 34.5253 36.2217 34.5417 36.3138C34.5581 36.4026 34.3082 36.4388 34.2358 36.5638C34.1635 36.6888 34.0023 36.7085 34.2358 36.8335C34.4693 36.9585 34.8838 36.6888 34.8838 36.6888C34.8838 36.6888 34.795 37.1723 34.6667 37.1723C34.5384 37.1723 34.1141 37.0473 34.1141 37.0473C34.1141 37.0473 34.147 37.2808 33.8938 37.192C33.6438 37.1032 33.6241 37.2085 33.5879 37.2644C33.5517 37.317 33.3017 37.4453 33.3017 37.4453C33.3017 37.4453 32.5288 37.2282 32.8708 37.4979C33.2129 37.7676 33.4991 37.7314 33.2294 37.8564C32.9597 37.9814 32.8577 37.9649 32.782 37.8728C32.7064 37.784 32.1341 37.4058 32.3841 37.6919C32.634 37.9781 32.8511 38.1425 32.6538 38.1754C32.4564 38.2116 32.3841 38.2642 32.2229 38.2116C32.0617 38.159 31.8447 38.0143 31.8447 38.1031C31.8447 38.1919 31.9894 38.3892 31.9894 38.3892C31.9894 38.3892 31.792 38.353 31.8447 38.4419C31.8973 38.5307 31.8611 38.4945 31.6999 38.6228C31.5388 38.7477 31.2855 38.8037 31.4303 38.8727C31.575 38.9451 31.6999 39.3233 31.6276 39.3759C31.5552 39.4286 32.0223 39.5733 32.1473 39.5733C32.2722 39.5733 32.2722 39.2312 32.5058 39.5371C32.7393 39.843 32.5584 39.8792 32.2558 39.843C31.9499 39.8068 31.5191 39.843 31.5191 39.843C31.4664 40.0403 31.1046 40.1653 31.5191 40.1851C31.9335 40.2015 32.292 40.0601 32.0387 40.2574C31.7887 40.4548 31.4105 40.3824 31.6079 40.4909C31.8052 40.5995 31.644 40.6521 31.8578 40.708C32.0749 40.7606 31.9828 40.7442 32.1802 40.7442C32.3775 40.7442 32.4663 40.6718 32.3775 40.7442C32.2887 40.8166 31.6605 40.8527 31.7131 40.9613C31.7657 41.0698 31.9828 41.0698 32.019 41.1784C32.0552 41.2869 31.8216 41.3395 31.8216 41.3395C31.8216 41.3395 31.4993 41.356 31.6046 41.5007C31.7131 41.6454 32.1242 41.6257 31.8019 41.7506C31.4796 41.8756 31.9269 41.7868 32.0354 41.823C32.144 41.8592 32.1802 42.073 32.1802 42.073L31.894 42.1092C31.894 42.1092 31.2099 42.0368 31.5881 42.2341C31.9664 42.4315 32.019 42.198 31.9664 42.4315C31.9137 42.665 31.9664 42.6486 32.019 42.665C32.0716 42.6815 31.8743 42.79 32.0913 42.8623C32.3084 42.9347 32.1637 43.0071 32.486 43.0959C32.8084 43.1847 32.9893 43.2768 32.9893 43.2768C32.9893 43.2768 32.8084 43.4938 33.1504 43.3294C33.4925 43.1682 33.5287 42.9873 33.6339 42.9347C33.7425 42.8821 33.6504 42.8097 33.7063 42.7374C33.7589 42.665 33.8148 42.6847 33.8674 42.6847C33.9201 42.6847 33.7589 42.7012 33.9562 42.5236C34.1536 42.3427 34.1898 42.2901 34.1536 42.2374C34.1174 42.1848 34.0812 41.823 34.0812 41.823C34.0812 41.823 34.2983 42.2736 34.3674 42.2539C34.4397 42.2374 34.2786 42.1453 34.5483 42.1289C34.818 42.1124 34.7292 42.2901 34.818 42.1124C34.9068 41.9315 34.8706 41.9677 34.9265 41.7342C34.9298 41.7276 34.9298 41.7178 34.9298 41.7112C34.818 41.5862 34.9068 41.5105 34.9693 41.4579C34.9791 41.3921 34.9857 41.3658 35.0153 41.3921C35.0318 41.4086 35.0054 41.4316 34.9693 41.4579C34.9594 41.5171 34.9528 41.6059 34.9298 41.7112C34.9528 41.7342 34.9759 41.7605 35.0153 41.7868C35.3574 42.0368 35.4824 41.9842 35.3936 42.1289C35.3048 42.2736 35.1765 42.346 35.2488 42.415C35.3212 42.4874 35.3936 42.5038 35.41 42.7374C35.4264 42.9709 35.5547 43.1156 35.5547 43.1156C35.5547 43.1156 35.5153 43.1913 35.4955 43.2603C35.512 43.2669 35.5416 43.3031 35.5909 43.4018C35.7521 43.7241 35.8244 43.9412 35.8244 43.9938C35.8244 44.0464 36.0053 44.2273 36.0941 44.3358C36.1829 44.4444 36.4362 44.5167 36.4724 44.6582C36.5086 44.8029 36.5086 44.8753 36.5086 45.0002C36.5086 45.1252 36.3638 45.2699 36.4197 45.3587C36.4724 45.4475 36.5283 45.5035 36.5809 45.6811C36.6335 45.862 36.4362 45.9146 36.6533 45.987C36.8703 46.0593 36.7618 46.1317 37.0677 46.0396C37.14 46.0166 37.1729 46.0166 37.1861 46.0231C37.1927 45.9968 37.2321 45.931 37.3736 45.7699C37.7683 45.3193 37.5545 45.0693 37.8044 45.1219C38.0544 45.1746 38.0741 45.3916 38.255 45.3916C38.4359 45.3916 38.38 45.6416 38.4359 45.3916C38.4886 45.1417 38.5445 45.0331 38.7221 44.9772C38.903 44.9246 38.8306 45.066 38.9392 44.6911C39.0477 44.3161 39.1727 44.3326 39.1201 44.0267C39.0707 43.7471 38.9063 43.6057 38.88 43.5136C38.8405 43.6451 38.8701 43.4215 38.8701 43.4873C38.8701 43.4939 38.8767 43.5037 38.88 43.5136C38.8931 43.461 38.9194 43.359 38.9589 43.1649C39.1036 42.4644 39.1036 42.392 39.1924 42.267C39.2812 42.142 39.5871 42.1585 39.768 42.0697C39.9489 41.9809 40.0542 41.6914 39.893 41.6553C39.7318 41.6191 39.301 41.6191 39.0313 41.6191C38.7616 41.6191 38.2221 41.5467 38.4557 41.4941C38.6892 41.4415 38.6366 41.5467 38.8504 41.4941C39.0674 41.4415 38.9951 41.4217 39.1562 41.4415C39.3174 41.4579 39.2089 41.4053 39.4786 41.4053C39.7483 41.4053 39.7121 41.2244 39.7483 41.1191C39.7845 41.0106 39.5674 40.9744 39.5312 40.7409C39.495 40.5074 39.3338 40.5074 39.245 40.3988C39.1562 40.2903 39.1201 40.2541 38.9951 40.1489C38.8701 40.0403 38.7616 40.1324 38.778 39.9154C38.7944 39.6983 38.9392 39.6095 38.9227 39.4647C38.9063 39.32 38.7616 38.9977 38.7418 38.9451C38.7254 38.8925 38.7583 38.9615 38.778 38.6754C38.7944 38.3892 38.8865 38.2971 38.8865 38.1919C38.8865 38.0866 39.2089 38.0833 39.2089 37.9419C39.2089 37.8005 39.4424 37.761 39.495 37.5834C39.5476 37.4025 39.495 37.4387 39.6759 37.1887C39.8568 36.9388 39.7121 36.9914 39.8568 36.9388C40.0015 36.8861 39.8404 37.0111 40.0015 36.8861C40.1627 36.7611 40.1824 36.725 40.2515 36.6164C40.3206 36.5079 40.1068 36.3105 40.3765 36.2744C40.6462 36.2382 40.9159 36.2382 40.8271 35.9882C40.7383 35.7382 41.6362 35.61 41.3665 35.5376C41.0968 35.4653 40.8106 35.5014 40.9718 35.1956C41.133 34.8897 41.6197 34.37 41.5112 34.3338C41.4027 34.2976 40.4883 34.6035 41.0606 34.2615C41.6362 33.9194 41.8862 33.9194 41.8862 33.9194C41.8862 33.9194 42.1559 33.972 42.2085 33.972C42.2611 33.972 42.6032 33.8832 42.6755 34.0444C42.7479 34.2055 42.9979 34.2417 43.0702 34.3667C43.1426 34.4917 43.3202 34.6364 43.159 34.7252C42.9979 34.814 42.8893 35.1035 42.8531 35.1561C42.817 35.2087 43.6261 35.587 43.159 35.7119C42.692 35.8369 42.4585 36.0704 42.4058 36.1625C42.3532 36.2513 41.9552 36.521 41.9552 36.5934C41.9552 36.6658 41.7381 36.7907 41.6691 36.8434C41.5967 36.896 41.3632 36.6987 41.4191 36.8598C41.4717 37.021 41.1132 37.0769 41.133 37.3795C41.1494 37.6854 41.1494 37.9715 41.1691 38.1327C41.1889 38.2938 41.0968 38.0603 41.2053 38.4912C41.3139 38.9221 41.35 39.1556 41.3665 39.2279C41.3829 39.3003 41.2053 38.9944 41.3303 39.5141C41.4553 40.0338 41.85 40.1982 41.85 40.1982C41.8335 40.3232 41.8664 40.4317 41.8664 40.4317C41.8664 40.4317 41.9914 40.4679 42.1361 40.4844C42.2808 40.5008 42.5144 40.6455 42.5144 40.6455C42.5144 40.6455 42.317 40.8067 42.5506 40.8264C42.7841 40.8429 42.9814 40.6653 43.1064 40.7014C43.2314 40.7376 43.4287 40.7376 43.5208 40.5929C43.6096 40.4482 43.8793 40.4679 43.8793 40.4679C43.8793 40.4679 43.7544 40.5765 44.0405 40.4844C44.3266 40.3956 44.0931 40.2344 44.3266 40.2147C44.5602 40.1982 44.4516 40.1423 44.5602 40.1982C44.6687 40.2508 44.7937 40.4317 45.0437 40.287C45.2936 40.1423 45.4219 39.8726 45.5107 40.0699C45.5995 40.2673 45.4219 40.287 45.7278 40.1587C46.0337 40.0338 46.0501 39.6917 46.1784 39.9252C46.3034 40.1587 46.2869 40.4449 46.3757 40.5173C46.4645 40.5896 46.6454 40.6422 46.6257 40.7343C46.6092 40.8231 46.3396 40.8955 46.1587 40.9843C45.9778 41.0731 45.9251 40.9843 45.9416 41.1816C45.958 41.379 45.7969 41.4678 45.7969 41.4678C45.7969 41.4678 45.9054 41.7539 45.8857 41.8263C45.8692 41.8987 45.7409 42.0598 45.7409 42.0598C45.7409 42.0598 45.5798 42.1486 45.6883 42.4019C45.7968 42.6518 45.9745 42.8327 46.0106 42.9939C46.0468 43.1551 45.7245 43.4971 45.5798 43.0465C45.4351 42.5959 45.5008 42.5433 45.3989 42.5071C45.2969 42.4709 45.2377 42.5565 45.2673 42.4282C45.2969 42.3032 45.2673 42.2539 45.2903 42.2111C45.3134 42.1684 45.3134 42.1585 45.3726 42.0796C45.4318 42.0006 45.4811 41.9348 45.5535 41.9414C45.6258 41.948 45.5831 41.9907 45.6488 41.8625C45.7146 41.7375 45.6982 41.7178 45.7212 41.6947C45.7442 41.6717 45.7146 41.6059 45.7212 41.5566C45.7278 41.5073 45.6982 41.504 45.6258 41.5204C45.5535 41.5369 45.4647 41.5697 45.4055 41.5336C45.3463 41.4974 45.4712 41.4974 45.2509 41.4612C45.0305 41.425 44.9285 41.4119 44.9088 41.4086C44.8924 41.402 44.7115 41.2935 44.6588 41.3C44.6062 41.3066 44.57 41.1849 44.4385 41.2178C44.3069 41.2474 44.1918 41.4086 44.1918 41.4086L43.9747 41.4678C43.9747 41.4678 43.784 41.7506 43.5669 41.6783C43.3498 41.6059 42.8827 41.4612 43.011 41.7309C43.136 42.0006 42.9748 42.0171 42.9584 42.0894C42.9419 42.1618 42.7611 42.3394 42.8696 42.3953C42.9781 42.4479 43.1919 42.5565 43.2478 42.6453C43.3005 42.7341 42.7972 42.7538 43.284 42.8426C43.7708 42.9314 43.876 42.9873 43.8596 43.04C43.8431 43.0926 43.5735 43.257 43.6787 43.5432C43.7872 43.8293 43.5537 44.0826 43.5537 44.0826C43.5537 44.0826 43.2116 44.3687 43.1393 44.1188C43.0669 43.8688 42.9946 43.5991 42.9222 43.5432C42.8499 43.4906 42.4025 43.4182 42.419 43.5267C42.4354 43.6353 42.294 43.8852 42.0769 43.9938C41.8599 44.1023 41.8434 44.372 41.896 44.5332C41.9487 44.6944 41.5737 44.7141 41.7151 44.8917C41.8598 45.0726 41.7678 45.214 41.7678 45.214C41.7678 45.214 41.4257 45.5199 41.9289 45.7337C42.4321 45.9508 42.1986 45.9146 42.5407 45.9672C42.8827 46.0198 42.9913 46.1481 43.0242 46.2007C43.0604 46.2534 42.7019 46.3981 42.8071 46.5066C42.9156 46.6152 43.0768 46.6875 42.7709 46.6875C42.465 46.6875 41.873 46.6349 41.8006 46.6711C41.7283 46.7073 41.406 46.8158 41.3336 46.8322C41.2612 46.8487 40.9751 47.0131 40.883 47.0131C40.7942 47.0131 40.6133 47.0658 40.6133 46.9046C40.6133 46.7434 40.883 46.7796 40.6133 46.7434C40.3436 46.7073 40.7745 46.727 40.2712 46.5264C39.768 46.329 39.2122 46.7961 39.1562 46.8125C39.1036 46.829 38.8504 46.8849 38.7056 47.0296C38.5609 47.1743 38.1662 47.2631 38.1498 47.3157C38.1333 47.3684 37.6992 47.4045 37.7354 47.5493C37.7715 47.694 37.6466 47.8913 37.5742 47.819C37.5018 47.7466 37.2881 47.7302 37.2321 47.5854C37.1795 47.4407 37.2848 47.3881 37.1072 47.2993C36.9263 47.2105 36.6039 47.1546 36.6039 47.1546C36.6039 47.1546 36.6039 46.9737 36.2981 47.1019C35.9922 47.2269 35.9757 47.3881 35.8475 47.4605C35.7225 47.5328 35.4889 47.444 35.3969 47.3519C35.308 47.2631 35.1633 47.2631 35.1469 47.0658C35.1304 46.8684 35.1107 46.9408 34.9298 46.8158C34.7489 46.6908 34.8048 46.8684 34.6075 46.4935C34.4101 46.1152 34.3016 46.0264 34.374 45.8817C34.4463 45.737 34.0516 45.7008 34.2851 45.612C34.5187 45.5232 34.466 45.5232 34.6075 45.3785C34.7522 45.2338 35.2554 45.487 35.2916 45.4147C35.3278 45.3423 34.9857 44.9838 34.9134 44.9114C34.841 44.8391 34.4628 44.6779 34.6075 44.5891C34.7522 44.5003 34.8048 44.6615 34.8574 44.3391C34.9101 44.0168 35.1798 43.655 34.9298 43.8885C34.6798 44.1221 34.2128 44.3918 34.2128 44.3918C34.2128 44.3918 33.6734 44.1747 33.7984 44.4082C33.9233 44.6417 34.1569 44.7667 34.1042 44.8226C34.0516 44.8753 34.2128 44.9838 33.9957 45.0035C33.7786 45.02 33.476 44.9673 33.5813 45.1285C33.6898 45.2897 33.7063 45.4344 33.6536 45.4706C33.601 45.5068 33.9595 46.1547 33.9595 46.1547L33.5648 46.2271C33.5648 46.2271 33.601 46.3718 33.7096 46.477C33.8181 46.5856 33.6931 46.602 33.726 46.7467C33.7622 46.8914 33.476 46.8553 33.726 46.9803C33.976 47.1052 34.0845 47.2138 34.0845 47.2138C34.0845 47.2138 34.1207 47.4111 34.318 47.6085C34.5154 47.8058 34.4266 47.842 34.3016 47.7696C34.1766 47.6973 33.8872 47.5723 33.8872 47.6973C33.8872 47.8222 33.9595 47.9472 33.851 47.9472C33.7425 47.9472 33.6339 47.9834 33.5451 47.9472C33.4563 47.9111 33.2228 47.7861 33.2228 47.7861L32.9893 47.9472C32.9893 47.9472 32.7196 47.6249 32.8807 47.9999C33.0419 48.3781 32.7919 48.2794 32.7294 48.2071C32.6669 48.1347 32.6209 48.0097 32.5123 48.036C32.4038 48.0623 32.2065 48.2334 32.2065 48.2334C32.2065 48.2334 31.9104 48.0887 31.8545 48.2169C31.8019 48.3419 31.45 48.3978 31.5487 48.4768C31.6473 48.559 31.4335 48.6741 31.4335 48.6741C31.4335 48.6741 31.3118 48.7366 31.2987 48.7892C31.2888 48.8419 31.0092 48.8978 31.0454 48.9504C31.0816 49.003 31.1967 49.1839 31.1967 49.2201C31.1967 49.2563 31.1605 49.2925 31.1079 49.3286C31.0553 49.3648 30.7659 49.4799 30.8382 49.6082C30.9106 49.7332 30.9632 49.7694 30.9731 49.7957C30.9829 49.822 30.9106 49.9832 30.9106 49.9832H30.8283C30.8283 49.9832 30.5981 49.9568 30.5981 50.0457C30.5981 50.1345 30.4633 50.1279 30.381 50.1542C30.2988 50.1805 30.0587 50.3154 30.039 50.3417C30.0225 50.368 29.6969 50.6212 29.6706 50.6574C29.6443 50.6936 29.743 50.8745 29.743 50.8745C29.743 50.8745 29.7528 51.0093 29.6673 51.0916C29.5818 51.1738 29.4469 51.2725 29.4371 51.3251C29.4272 51.3777 29.2858 51.4073 29.1772 51.4435C29.0687 51.4797 28.8089 51.4797 28.7924 51.5422C28.776 51.6047 28.6115 51.6047 28.6576 51.7132C28.7036 51.8217 28.7826 51.8382 28.7201 51.9007C28.6576 51.9632 28.3254 51.9632 28.2793 51.9895C28.2333 52.0158 27.911 51.9895 27.8748 51.973C27.8386 51.9566 27.8386 51.8546 27.7597 51.7395C27.6774 51.6244 27.3452 51.5948 27.3452 51.5948C27.3452 51.5948 27.1939 51.6672 27.2926 51.7658C27.3913 51.8645 27.4373 51.7823 27.4636 51.9533C27.49 52.1243 27.4373 52.1342 27.536 52.1967C27.6347 52.2592 27.6544 52.3316 27.6544 52.3579C27.6544 52.3842 27.6906 52.4664 27.582 52.519C27.4735 52.5716 27.2597 52.5289 27.161 52.5355C27.0624 52.5453 26.8289 52.6506 26.7927 52.6605C26.7565 52.6703 26.5065 52.5157 26.5065 52.5157C26.5065 52.5157 26.4243 52.2822 26.2204 52.3809C26.0132 52.4796 25.7994 52.6309 25.7007 52.6045C25.602 52.5782 25.3488 52.4532 25.4573 52.6144C25.5659 52.7756 25.5823 52.8019 25.5922 52.8841C25.602 52.9663 25.4836 52.9992 25.5757 53.0913C25.6645 53.1801 25.7731 53.2064 25.7731 53.2624C25.7731 53.315 25.6481 53.3709 25.7632 53.4235C25.7796 53.4301 25.7862 53.4334 25.7862 53.4367C25.8191 53.4433 25.8652 53.4564 25.9507 53.4761C26.3717 53.5847 26.1612 53.5781 26.3717 53.5847C26.5855 53.5913 26.7631 53.4597 26.8124 53.6011C26.8617 53.7458 26.8486 53.9004 27.0525 53.9136C27.2564 53.9267 27.3288 53.9366 27.3288 53.9366C27.3288 53.9366 27.3058 54.1767 27.2466 54.2129C27.1874 54.2491 26.8387 54.1537 27.115 54.3083C27.3913 54.4629 27.1874 54.4398 27.4275 54.6207C27.6676 54.8016 27.8353 54.8247 27.8353 54.8707C27.8353 54.92 27.8945 55.0384 27.8715 55.0878C27.8485 55.1371 27.7169 55.1108 27.8353 55.3871C27.9537 55.6634 28.0162 55.7456 28.0392 55.9035C28.0623 56.0581 27.7399 56.035 27.7268 56.1074C27.7136 56.1797 27.6314 56.1074 27.6774 56.3343C27.7268 56.5613 27.6051 56.8014 27.5689 57.0283C27.5327 57.2553 27.4505 57.4 27.3288 57.4362C27.2104 57.4724 26.8256 57.377 26.8256 57.377C26.8256 57.377 26.4901 57.377 26.3947 57.4C26.2993 57.423 25.8454 57.3507 25.7961 57.3507C25.7468 57.3507 25.6875 57.2059 25.533 57.2191C25.3784 57.2322 24.9705 57.2783 24.9705 57.2783C24.9705 57.2783 24.7206 57.2915 24.6844 57.2191C24.6482 57.1467 24.589 57.0152 24.4805 57.0382C24.3719 57.0612 24.1943 57.0152 24.122 57.0152C24.0496 57.0152 23.6319 57.0645 23.6319 57.0645C23.6319 57.0645 23.5727 56.9823 23.428 57.0415C23.2832 57.1007 23.0103 57.1369 23.0103 57.173C23.0103 57.2092 22.9609 57.5579 22.9609 57.5579C22.9609 57.5579 22.734 57.377 22.6978 57.4625C22.6616 57.5447 22.8063 57.6302 22.6978 57.7848C22.5893 57.9394 22.4939 57.9032 22.5662 58.0249C22.6386 58.1433 22.6616 58.0118 22.5893 58.4328C22.5169 58.8538 22.6254 59.0314 22.6254 59.0314C22.6254 59.0314 22.7438 59.1267 22.7208 59.2353C22.6978 59.3438 22.5268 59.653 22.5399 59.7385C22.5531 59.8207 22.6254 59.847 22.5991 59.9786C22.5761 60.1102 22.313 60.3141 22.313 60.3634C22.313 60.4128 22.2998 60.3634 22.2538 60.6858C22.2044 61.0081 21.8229 61.0344 21.9314 61.189C22.04 61.3436 22.04 61.4291 22.1946 61.4159C22.3492 61.4028 22.3492 61.4028 22.3492 61.4028C22.3492 61.4028 22.29 61.485 22.29 61.5705C22.29 61.6527 22.3393 61.7021 22.4084 61.7514C22.4807 61.8008 22.5531 61.7284 22.5531 61.8238C22.5531 61.9192 22.5037 62.1461 22.5037 62.2086C22.5037 62.2711 22.4807 62.2218 22.4906 62.3895C22.5037 62.5572 22.7077 62.5342 22.7077 62.6066C22.7077 62.6789 22.5893 62.8829 22.7438 62.8829C22.8984 62.8829 23.3655 62.8105 23.3655 62.8105C23.3655 62.8105 23.4378 62.8105 23.4839 62.8927C23.5332 62.9749 23.5069 62.8335 23.747 62.9519C23.9871 63.0703 23.9016 63.0703 24.0463 63.169C24.191 63.2644 24.2272 63.3959 24.2963 63.4913C24.3686 63.5867 24.4772 63.5736 24.691 63.6097C24.908 63.6459 24.9311 63.4913 25.2304 63.419C25.5297 63.3466 25.5428 63.5867 25.7468 63.4913C25.9507 63.3959 25.135 63.0243 26.0099 63.1065C26.8848 63.1887 26.8354 63.2249 27.0262 63.2249C27.217 63.2249 27.411 63.2742 27.411 63.1065C27.411 62.9388 26.5953 62.9388 27.4242 62.748C28.2497 62.5572 28.1642 62.4717 28.1839 62.3994C28.2037 62.327 27.9767 62.3171 28.2399 62.1001C28.503 61.883 28.3846 61.883 28.5523 61.7152C28.7201 61.5475 28.503 61.4883 28.697 61.3666C28.8878 61.2482 28.6477 61.2581 28.6477 61.0903C28.6477 60.9226 28.5392 60.7778 28.6115 60.6463C28.6839 60.5147 28.5293 60.5509 28.7431 60.3832C28.9602 60.2154 29.0194 60.0839 28.9602 59.9293C28.901 59.7747 28.9371 59.8799 29.0917 59.7484C29.2463 59.6168 28.947 59.5806 29.1871 59.4721C29.4272 59.3636 29.4996 59.3405 29.5456 59.3405C29.5917 59.3405 29.7134 59.3997 29.8318 59.2452C29.9502 59.0906 30.2166 59.1136 30.358 58.982C30.5027 58.8505 30.5258 58.8011 30.5258 58.6597C30.5258 58.515 30.5027 58.5775 30.5389 58.4097C30.5751 58.242 30.6475 58.219 30.5981 58.0512C30.5488 57.8835 30.3481 57.969 30.5619 57.7651C30.779 57.5612 30.7428 57.6828 30.802 57.5019C30.8612 57.321 30.8612 57.2849 31.0191 57.2388C31.1737 57.1895 31.473 57.2618 31.5223 57.2882C31.5717 57.3112 31.7032 57.2059 31.8348 57.3112C31.9664 57.4197 32.0519 57.5019 32.0979 57.5513C32.1473 57.6006 32.2065 57.6236 32.338 57.6335C32.4696 57.6467 32.6242 57.8374 32.8281 57.5513C33.032 57.2651 33.2951 57.0711 33.3543 57.0711C33.4135 57.0711 33.259 56.8902 33.6306 56.831C34.0023 56.7718 33.6537 56.604 34.0385 56.581C34.4233 56.558 34.5779 56.4363 34.6239 56.5087C34.6733 56.581 34.9002 56.6271 34.9463 56.6534C34.9956 56.6764 35.2094 56.8343 35.2094 56.8705C35.2094 56.9066 35.2456 57.0612 35.3771 57.2421C35.5087 57.423 35.9264 57.5908 35.9264 57.6368C35.9264 57.6828 35.6863 57.7914 35.8902 57.8999C36.0941 58.0085 36.0941 58.0446 36.275 58.14C36.4559 58.2354 36.5151 58.3209 36.6237 58.4032C36.7322 58.4854 36.6237 58.5216 36.7684 58.6531C36.9131 58.7847 36.8276 58.7617 36.9723 58.8801C37.117 58.9985 37.344 59.2024 37.344 59.2024C37.6203 59.2978 37.8242 59.1202 37.9294 59.2846C38.038 59.4524 37.8932 59.5017 38.1202 59.5708C38.3471 59.6431 38.4557 59.6793 38.5642 59.7747C38.6728 59.8701 38.5774 59.8569 38.755 59.9786C38.9359 60.097 38.9951 60.2056 39.0543 60.2648C39.1135 60.324 39.2714 60.3601 39.3043 60.4457C39.3404 60.5279 39.2319 60.5279 39.3273 60.6858C39.4227 60.8403 39.4457 61.0574 39.4457 61.0574C39.4457 61.0574 39.5049 61.1528 39.4687 61.3074C39.4325 61.462 39.2878 61.5343 39.324 61.6791C39.3602 61.8238 39.324 61.8238 39.2878 61.9553C39.2516 62.0869 39.1332 62.1593 39.2746 62.1954C39.4194 62.2316 39.37 62.2448 39.4917 62.2185C39.6101 62.1954 39.5279 61.9685 39.7549 61.8106C39.9818 61.656 39.8634 61.6297 40.018 61.5606C40.1726 61.4883 40.0311 61.5606 40.1627 61.3337C40.2943 61.1068 40.1265 60.9489 40.1035 60.8667C40.0805 60.7844 40.0542 60.6266 40.0311 60.518C40.0081 60.4095 39.768 60.2681 39.9588 60.1595C40.1495 60.051 40.2581 60.0148 40.2581 60.0148C40.2581 60.0148 40.2087 59.8109 40.3403 59.9424C40.4719 60.074 40.4225 60.1464 40.5673 60.2187C40.712 60.2911 40.6034 60.2417 40.712 60.2911C40.8205 60.3404 41.0343 60.5082 41.0244 60.2417C41.0146 59.9753 40.9751 59.8832 40.906 59.8931C40.8337 59.9063 40.6199 59.7254 40.6199 59.7254C40.6199 59.7254 40.5607 59.5938 40.4752 59.5938C40.3929 59.5938 40.462 59.4392 40.1265 59.3668C39.791 59.2945 39.7549 59.2221 39.7088 59.2221C39.6595 59.2221 39.6364 59.2452 39.5411 59.2221C39.4457 59.1991 39.518 59.0774 39.3865 58.9952C39.2549 58.913 39.5411 58.8406 39.4358 58.6827C39.3273 58.5281 38.9326 58.4328 38.8142 58.4328C38.6958 58.4328 38.4063 58.5413 38.3833 58.3834C38.3603 58.2288 38.5741 58.265 38.3603 58.2288C38.1432 58.1927 38.2419 58.2157 38.0116 57.9427C37.7847 57.6664 37.8209 57.6664 37.7847 57.594C37.7485 57.5217 37.7979 57.4395 37.5808 57.2947C37.3637 57.15 37.6038 57.1402 37.3407 57.0316C37.0776 56.9231 37.0052 56.7455 36.8736 56.6961C36.7421 56.6468 36.6237 56.5646 36.5974 56.4922C36.5743 56.4199 36.6566 56.3245 36.6566 56.2422C36.6566 56.16 36.4526 56.0877 36.4658 55.9068C36.479 55.7259 36.5151 55.5943 36.548 55.5943C36.5842 55.5943 36.5842 55.5219 36.7289 55.5219C36.8736 55.5219 36.8375 55.3542 37.0644 55.3542C37.2913 55.3542 37.7814 55.2818 37.7814 55.341C37.7814 55.4002 37.3144 55.4233 37.4459 55.5581C37.5775 55.6897 37.5545 55.8212 37.5906 55.9298C37.6268 56.0383 37.8077 56.0252 37.8669 55.9528C37.9261 55.8804 38.1794 55.3312 38.2156 55.568C38.2517 55.8081 38.0248 56.012 38.2518 56.1534C38.4787 56.2981 38.7188 56.262 38.6596 56.4297C38.6004 56.5975 38.4096 56.5975 38.5774 56.6928C38.7451 56.7882 38.8635 56.8112 38.9852 56.9099C39.1036 57.0053 39.2483 57.0185 39.3339 57.0908C39.4161 57.1632 39.2516 57.1994 39.4884 57.2454C39.7285 57.2947 39.8239 57.0415 40.0509 57.3276C40.2778 57.6138 40.3995 57.65 40.4225 57.7125C40.4456 57.7717 40.6495 58.0249 40.6495 58.0249C40.6495 58.0249 40.7679 58.0381 41.0442 58.1696C41.3204 58.3012 41.0672 58.2288 41.3435 58.5051C41.6197 58.7814 41.4619 58.8538 41.5934 58.9853C41.725 59.1169 41.7382 59.2846 41.725 59.38C41.7118 59.4754 41.4487 59.2846 41.5704 59.7747C41.6888 60.2648 41.5934 60.2648 41.7612 60.324C41.9289 60.3832 41.6165 60.2154 41.9289 60.3832C42.2414 60.5509 42.3006 60.6002 42.2512 60.6331C42.2019 60.6693 42.6591 60.9818 42.6459 61.1002C42.6328 61.2186 42.3697 61.2679 42.5506 61.3765C42.7315 61.485 42.7413 61.4949 42.7545 61.5935C42.7676 61.6889 42.8729 61.8205 42.9222 61.8928C42.9716 61.9652 43.113 61.8336 43.113 61.8336C43.113 61.8336 43.3399 61.7514 43.557 61.8698C43.7741 61.9882 43.9287 61.883 43.9517 62.0244C43.9747 62.1691 43.557 62.179 43.557 62.179C43.557 62.179 43.4254 61.9981 43.3169 62.0244C43.2084 62.0474 42.9091 62.0376 43.0998 62.156C43.2906 62.2744 43.5899 62.1428 43.5077 62.3829C43.4254 62.623 43.3169 62.5605 43.3399 62.6822C43.363 62.8039 43.3399 62.9716 43.4945 63.1131C43.6491 63.2545 43.5537 63.317 43.8168 63.294C44.08 63.271 43.7675 62.9716 44.0931 63.1032C44.4155 63.2348 44.6325 63.4025 44.4286 63.0539C44.2247 62.7052 44.1885 62.7315 44.2378 62.5276C44.274 62.3796 44.3595 62.3763 44.4483 62.4257C44.3694 62.3533 44.3135 62.2645 44.524 62.2777C44.9187 62.3007 44.968 62.3961 45.0042 62.4092C45.0404 62.4224 44.991 62.2908 44.9549 62.0376C44.9187 61.7876 45.0371 61.8698 44.6687 61.7021C44.297 61.5343 44.5602 61.485 44.524 61.3534C44.4878 61.2219 44.6555 61.3041 44.3924 60.9588C44.1293 60.6101 43.9484 60.5509 43.9977 60.5279C44.0471 60.5049 43.9254 60.4917 43.9747 60.347C44.024 60.2023 43.9879 60.1661 44.024 60.0345C44.0602 59.903 44.001 59.8668 44.0471 59.7944C44.0964 59.7221 44.2378 59.7944 44.2642 59.9128C44.2872 60.0312 44.445 60.4391 44.445 60.4391C44.445 60.4391 44.4944 60.5345 44.5273 60.3207C44.5635 60.1036 44.8759 60.3075 44.8759 60.3075C44.8759 60.3075 44.8036 60.3799 44.9121 60.3799C45.0206 60.3799 45.1029 60.1036 45.0075 60.1036C44.9121 60.1036 44.8628 59.9951 44.9845 60.0082C45.1029 60.0214 44.7805 59.8997 44.7937 59.8405C44.8068 59.7813 44.8529 59.8043 44.9121 59.7319C44.9713 59.6596 45.0798 59.6596 45.0798 59.6596C45.0798 59.6596 45.2607 59.2747 45.2706 59.3109C45.2838 59.3471 45.2213 59.4918 45.2936 59.6102C45.366 59.7286 45.5107 59.6925 45.5436 59.6333C45.5798 59.5741 45.3759 59.4425 45.5798 59.4162C45.7837 59.3932 45.7344 59.4293 45.8429 59.4524C45.9514 59.4754 45.9975 59.5017 46.1192 59.5017C46.2409 59.5017 46.504 59.5971 46.5139 59.6333C46.527 59.6694 46.6586 59.7286 46.6093 59.778C46.5599 59.8273 46.5731 59.7286 46.4908 59.8964C46.4086 60.0641 46.606 59.9885 46.6389 59.9556C46.6717 59.9227 46.6553 59.9194 46.7277 59.8766C46.8033 59.8339 46.8559 59.7615 46.8888 59.7582C46.9217 59.755 46.9283 59.6464 47.0368 59.6069C47.1454 59.5642 47.0204 59.505 47.1684 59.4754C47.3197 59.4458 47.2177 59.357 47.3427 59.403C47.4677 59.4524 47.3855 59.4392 47.5335 59.4096C47.6848 59.38 47.4743 59.3669 47.6848 59.38C47.8953 59.3932 47.9315 59.403 47.9841 59.3932C48.0367 59.38 48.0663 59.3866 48.0926 59.3438C48.1156 59.3011 47.9413 59.0807 47.9314 59.0577C47.9183 59.0347 47.8788 58.9787 47.813 58.9426C47.7473 58.9064 47.6881 58.8472 47.6749 58.811C47.6617 58.7748 47.7275 58.7682 47.6091 58.6926C47.4907 58.6136 47.4776 58.6038 47.4644 58.538C47.4513 58.4722 47.2967 58.1433 47.2802 58.1959C47.2638 58.2486 46.9941 58.1959 47.2079 57.9624C47.4249 57.7289 47.369 57.4592 47.369 57.4592C47.369 57.4592 47.2605 57.3507 47.4578 57.2092C47.6552 57.0645 47.7802 57.0481 47.8163 56.9921C47.8525 56.9395 47.7637 56.956 47.869 56.6698C47.9775 56.3837 47.5993 56.3475 47.6881 56.1863C47.7769 56.0252 47.9051 56.0778 48.0104 55.9528C48.1189 55.8278 48.0268 55.7193 48.3163 55.7193C48.6057 55.7193 48.4248 55.6469 48.5136 55.4693C48.6024 55.2884 48.6222 55.3443 48.7636 55.147C48.9083 54.9496 49.0695 54.897 49.0695 54.7161C49.0695 54.5352 48.9971 54.4826 49.2306 54.3379C49.4642 54.1932 49.4806 54.1405 49.6812 54.1405C49.8786 54.1405 50.1318 54.1241 50.1318 54.2129C50.1318 54.3017 50.2042 54.4102 50.2206 54.4629C50.2371 54.5155 50.6351 54.5517 50.5791 54.6076C50.5265 54.6602 50.9015 54.7687 50.9015 54.7687L50.8127 54.9496C50.8127 54.9496 50.4344 55.0023 50.4344 55.0582C50.4344 55.1108 50.418 55.1305 50.6844 55.3081C50.9541 55.489 51.0988 55.4331 51.1153 55.489C51.1317 55.5417 50.6482 55.7752 50.7206 55.8114C50.7929 55.8476 51.26 55.9561 51.2238 56.0087C51.1876 56.0613 51.3126 56.0613 51.3685 56.0613C51.4211 56.0613 51.4573 56.2422 51.6382 56.0087C51.8191 55.7752 51.8717 55.5779 52.0329 55.5943C52.1941 55.6107 52.4111 55.6107 52.4835 55.6107C52.5559 55.6107 52.7993 55.7555 52.9078 55.5877C53.0163 55.42 53.2663 55.0483 52.9802 55.1568C52.694 55.2654 52.5493 55.3246 52.4638 55.397C52.3815 55.4693 52.2368 55.4101 52.1513 55.3016C52.0691 55.193 52.0559 55.0976 51.9112 55.0253C51.7665 54.9529 51.5889 54.9661 51.5757 54.8214C51.5626 54.6766 51.7435 54.6536 51.8619 54.5582C51.9803 54.4629 51.7665 54.4135 51.9803 54.3313C52.1974 54.2491 52.2434 54.3181 52.4111 54.2228C52.5789 54.1274 52.8289 54.0419 52.865 54.032C52.9012 54.0188 53.1051 53.9596 53.1051 53.9596C53.1051 53.9596 53.3321 53.6011 53.4176 53.611C53.4998 53.6242 53.2729 53.588 53.7038 53.5978C54.1346 53.611 54.3879 53.5386 54.5293 53.5748C54.674 53.611 54.0623 53.8873 54.0129 53.8971C53.9636 53.9103 54.3254 54.2458 54.1215 54.282C53.9175 54.3181 53.4373 54.2326 53.8353 54.4004C54.23 54.5681 54.1938 54.5681 54.0524 54.6997C53.9077 54.8312 53.513 54.7819 53.6939 54.9496C53.8748 55.1174 53.8254 55.2621 53.7893 55.3081C53.7531 55.3575 53.4406 55.4397 53.4406 55.4397C53.4406 55.4397 53.092 55.3805 53.4275 55.5943C53.7629 55.8114 53.786 55.8344 53.9175 55.8936C54.0491 55.9528 53.7629 55.989 54.0853 56.0482C54.4076 56.1074 54.5753 56.0613 54.6017 56.1205C54.6247 56.1798 54.901 56.4692 54.9602 56.5284C55.0194 56.5876 55.0917 56.6961 55.3187 56.8047C55.5456 56.9132 55.4009 56.854 55.7265 57.0086C56.0489 57.1632 55.8943 57.0908 56.2528 57.2717C56.6113 57.4526 56.6475 57.4033 56.733 57.5217C56.8152 57.6401 56.8284 57.6171 56.7461 57.7717C56.6639 57.9262 56.4699 57.7223 56.6738 58.1663C56.8777 58.6104 56.6869 58.6202 56.6738 58.6926C56.6606 58.7649 56.6738 58.8472 56.5192 58.9557C56.4698 58.9886 56.4205 59.0116 56.3712 59.0314C56.483 59.1103 56.6409 59.1794 56.881 59.2156C57.6539 59.3866 57.8216 59.0807 58.0157 59.0083Z" fill="#39B4EF"/>
</svg>
