<svg width="90" height="90" viewBox="0 0 90 90" fill="none" xmlns="http://www.w3.org/2000/svg">
<rect width="90" height="90" rx="45" fill="#E2EDFF"/>
<path d="M64.9029 18.7871C64.9029 18.7871 64.5786 18.7619 64.453 18.6135C64.3274 18.4627 63.1054 18.4627 63.8043 18.1635C64.5032 17.8643 64.7522 17.99 64.5032 17.8643C64.2543 17.7387 63.9048 17.8895 63.9048 17.5651C63.9048 17.2408 63.8546 17.3162 63.9048 16.9667C63.9551 16.6173 63.2562 16.7178 63.7541 16.3181C64.252 15.9184 63.9528 15.8202 64.4027 15.7951C64.8527 15.7699 65.2501 15.8202 65.2752 15.9458C65.3003 16.0714 65.8485 16.2701 66.0974 16.1194C66.3464 15.9686 66.1226 15.8202 66.2231 15.521C66.3235 15.2218 66.4218 14.8723 66.7963 15.1213C67.1709 15.3702 67.3194 15.7197 67.3696 15.7951C67.4198 15.8704 67.7693 15.4205 67.9178 15.2972C68.0685 15.1715 67.9931 14.902 68.3928 15.0368C68.7925 15.1715 69.0666 14.9226 69.3155 15.1715C69.5645 15.4205 69.7152 15.3954 70.1629 15.3954C70.6128 15.3954 70.437 15.4456 70.8115 15.5941C71.1861 15.7448 72.0335 15.8933 72.0335 15.9938C72.0335 16.0943 72.2573 15.9938 72.3075 16.1925C72.3578 16.3912 73.0316 16.8685 73.0316 16.8914C73.0316 16.9142 73.0567 17.1152 73.0316 17.2888C73.0064 17.4624 73.3033 17.6885 73.043 17.8872C72.7826 18.0859 71.684 18.111 71.6109 18.3371C71.5356 18.5609 71.0376 18.7871 71.0376 18.7871C71.0376 18.7871 70.4895 18.8624 70.4141 19.0109C70.3388 19.1616 70.9874 19.1114 70.6882 19.2598C70.389 19.4106 69.3909 19.3101 69.3155 19.5339C69.2402 19.7577 68.5915 20.1323 68.4682 20.3082C68.3426 20.4818 68.1187 20.532 67.8949 20.7079C67.6711 20.8815 67.1206 21.0071 67.1206 21.1327C67.1206 21.2583 66.5085 20.8586 66.4286 21.2332C66.3487 21.6078 66.2482 21.7083 66.3235 22.1057C66.3989 22.5054 65.949 22.6287 65.949 22.905C65.949 23.1791 65.426 23.0786 65.1268 23.2294C64.8276 23.3801 64.7773 23.2796 64.7522 23.6039C64.7271 23.9283 64.3022 24.127 64.1538 24.2023C64.003 24.2777 63.8546 24.328 63.7038 24.2023C63.5531 24.0767 62.9547 23.6291 63.0301 23.9534C63.1054 24.2777 63.3544 24.4033 63.4298 24.602C63.5051 24.8007 64.1287 25.0999 63.8295 25.3512C63.5303 25.6001 62.7309 25.2507 62.6578 25.2004C62.5824 25.1502 62.3837 24.7254 62.0343 24.8761C61.6848 25.0269 62.5093 25.4494 61.2851 25.0017C60.0632 24.5518 59.8142 24.5267 59.8142 24.3782C59.8142 24.2275 59.7389 23.8803 60.1386 23.9031C60.5383 23.9283 61.0864 23.4281 61.0864 23.4281L61.2372 23.5034C61.2372 23.5034 61.1115 23.3778 61.1869 23.0786C61.2623 22.7794 61.1367 22.4049 61.2874 22.4551C61.4381 22.5054 61.3628 22.6287 61.6871 22.905C62.0114 23.1791 62.3357 23.4281 62.4362 23.0786C62.5367 22.7292 62.4362 22.3295 62.4362 22.3295C62.4362 22.3295 61.3376 22.8046 61.8378 22.2039C62.3357 21.6055 62.3129 21.3565 62.587 21.3565C62.8611 21.3565 62.7377 21.1327 63.11 21.1829C63.4846 21.2332 64.0076 21.5073 63.834 21.1327C63.6604 20.7581 63.359 20.7079 63.5097 20.3584C63.6604 20.009 63.5097 19.9839 63.6604 19.486C63.8112 18.988 63.4366 18.4627 63.9596 18.7368C64.4827 19.0109 64.6083 19.3855 64.807 19.6595C65.0057 19.9336 65.1313 20.8244 65.1816 20.2168C65.2318 19.6093 64.6837 19.3603 65.2821 19.3352C65.8805 19.3101 65.9307 19.285 66.1294 19.2598C66.3281 19.2347 66.6045 18.835 66.6045 18.835C66.6045 18.835 66.3304 18.6363 66.1294 18.7345C65.9307 18.835 65.531 18.8853 65.531 18.8853C65.531 18.8853 64.928 19.1114 64.9029 18.7871Z" fill="#39B4EF"/>
<path d="M63.0181 17.6725C63.2853 17.5834 63.0021 17.2408 63.0181 17.1061C63.0341 16.9736 63.0181 16.5579 62.8011 16.5396C62.5841 16.5236 62.1684 16.4072 62.3192 16.6059C62.4699 16.8046 62.7349 16.9211 62.5681 16.9553C62.4014 16.9896 62.1182 17.0056 62.02 17.0809C61.9195 17.1563 61.771 17.4053 61.8875 17.5537C62.004 17.7045 62.0862 17.7524 61.8441 17.8209C61.6043 17.8872 61.1224 17.6382 61.1224 17.8209C61.1224 18.0037 61.1384 18.1864 61.2389 18.2709C61.3394 18.3531 61.5723 18.3874 61.3051 18.4696C61.0379 18.5518 60.9054 18.4856 60.8894 18.5861C60.8734 18.6866 60.4737 18.3371 60.6564 18.819C60.8392 19.3009 60.7067 19.3672 60.6907 19.4677C60.6747 19.5682 60.5742 19.6847 60.7067 19.8011C60.8392 19.9176 60.8392 19.9176 60.8392 19.9176C60.8392 19.9176 60.5948 19.7349 60.6085 19.9176C60.6222 20.1003 60.7592 20.1848 60.6085 20.3173C60.4577 20.4498 60.1745 20.5663 60.2408 20.6827C60.307 20.7992 60.0877 20.8335 60.2316 21.0162C60.3755 21.1989 60.259 21.1487 60.3915 21.3976C60.524 21.6466 60.275 21.6466 60.5902 21.7471C60.9054 21.8476 60.9397 21.8476 61.0721 21.8978C61.2046 21.9481 61.3051 22.0486 61.3713 22.0486C61.4376 22.0486 61.3828 21.6489 61.602 21.6489C61.8213 21.6489 61.755 21.6329 61.9378 21.4821C62.1205 21.3314 62.0542 21.1829 62.2712 21.1487C62.4882 21.1144 62.4379 21.2994 62.5202 21.0322C62.6024 20.765 62.5362 20.5823 62.6869 20.6987C62.8376 20.8152 62.8034 20.8152 62.9541 20.8152C63.1049 20.8152 63.1208 20.7147 63.1711 20.6165C63.2213 20.516 63.2716 20.6827 63.2716 20.4338C63.2716 20.1848 63.1711 20.0524 63.1711 20.0524C63.1711 20.0524 63.3218 19.8856 63.1871 19.9016C63.0546 19.9176 62.6389 19.9359 62.9381 19.8194C63.2373 19.7029 63.2373 19.7029 63.2373 19.7029C63.2373 19.7029 63.1368 19.6687 63.2716 19.47C63.4041 19.2713 63.3218 19.3535 63.4041 19.2713C63.4863 19.189 63.3881 19.004 63.4041 18.9218C63.42 18.8396 63.5046 19.0543 63.4383 18.7711C63.3721 18.4879 63.2556 18.3394 63.2373 18.4216C63.2213 18.5038 62.9221 18.4376 62.9221 18.2892C62.9221 18.1384 62.7897 18.1567 62.7554 17.99C62.7189 17.8232 62.8673 17.7227 63.0181 17.6725Z" fill="#39B4EF"/>
<path d="M59.4579 21.4983C59.394 21.7747 59.3072 21.6651 59.0925 21.6148C58.8755 21.5646 58.6266 21.4983 58.6266 21.4983C58.6266 21.4983 58.5923 21.1831 58.6266 21.1169C58.6608 21.0507 58.5466 21.2677 58.6129 20.9342C58.6768 20.6007 58.5444 20.4843 58.7431 20.3015C58.9418 20.1188 58.7568 19.8036 59.024 20.0686C59.2912 20.3358 59.1405 20.2856 59.2752 20.5002C59.4077 20.7172 59.4077 20.7172 59.4579 20.8817C59.5059 21.0484 59.5059 21.2814 59.4579 21.4983Z" fill="#39B4EF"/>
<path d="M59.3749 22.3957C59.4685 22.3249 59.295 22.0965 59.0437 22.1285C58.7925 22.1628 58.6052 22.0394 58.5915 22.1239C58.5778 22.2107 58.0456 22.0943 58.4933 22.3112C58.9432 22.5282 59.0255 22.4277 59.1419 22.5282C59.2584 22.6287 59.1579 22.7269 59.3749 22.7109C59.5919 22.6949 59.2424 22.4962 59.3749 22.3957Z" fill="#39B4EF"/>
<path d="M60.256 22.7129C60.0367 22.7814 59.9408 22.7106 59.9568 22.9436C59.9728 23.1766 59.9202 23.4598 60.1806 23.325C60.4387 23.1948 60.4798 22.6444 60.256 22.7129Z" fill="#39B4EF"/>
<path d="M58.5903 24.4421C58.6977 24.4124 58.7411 24.2434 58.4761 24.0766C58.2089 23.9099 58.0262 24.0424 58.0262 23.8437C58.0262 23.645 57.944 23.5764 57.9097 23.4782C57.8755 23.3777 57.5945 23.0123 57.9097 22.8638C58.2249 22.7131 58.3597 22.8479 58.4761 22.9643C58.5926 23.0808 58.4602 23.1996 58.6178 23.364C58.7754 23.5285 58.9444 23.629 59.0426 23.6198C59.1408 23.6107 59.191 23.5787 59.2733 23.6952C59.3555 23.8117 59.006 23.9122 59.2733 24.0446C59.5405 24.1771 59.7141 24.8258 59.4925 24.643C59.2733 24.4603 59.0745 24.2936 59.0403 24.3096C59.006 24.3256 59.1888 24.675 59.1888 24.675C59.1888 24.675 59.1728 24.7755 59.1225 24.8418C59.0723 24.908 59.1225 25.0747 59.223 25.109C59.3235 25.1432 59.3555 25.0085 59.3235 25.1432C59.2892 25.2757 59.3532 25.2871 59.4468 25.4402C59.5405 25.5932 59.6798 25.5932 59.81 25.5932C59.9402 25.5932 59.9904 25.4767 60.0224 25.5932C60.0567 25.7097 60.0384 25.8421 60.2554 25.8102C60.4723 25.7759 60.5386 25.6274 60.7533 25.6434C60.9702 25.6594 60.687 25.6434 61.1347 25.6594C61.5823 25.6754 61.7491 25.6434 61.9158 25.7256C62.0825 25.8079 62.5804 25.9746 62.5645 26.1756C62.5485 26.3743 61.9158 26.4086 61.966 26.5913C62.0163 26.774 62.0003 26.9727 61.982 27.0229C61.966 27.0732 61.8975 27.2216 61.8153 27.2216C61.7331 27.2216 62.014 27.2057 61.7331 27.2216C61.4499 27.2376 61.3174 27.2879 61.3014 27.2216C61.2854 27.1554 61.3517 26.8402 61.2009 26.8882C61.0502 26.9384 60.8675 26.9224 60.8195 26.9887C60.7693 27.0549 60.7373 27.0389 60.5203 27.0229C60.3033 27.007 60.0681 26.8242 59.9539 26.9224C59.8397 27.0229 59.4948 26.9065 59.4948 26.9065C59.4948 26.9065 59.4742 26.806 59.3418 26.806C59.2093 26.806 59.2276 26.806 59.0426 26.7237C58.8576 26.6415 58.8804 26.4908 58.8804 26.4908C58.8804 26.4908 58.8256 26.3743 58.6589 26.3903C58.4921 26.4063 58.499 26.6073 58.314 26.3903C58.1267 26.1733 57.9942 26.0911 58.0605 26.0408C58.1267 25.9906 58.1107 25.9746 57.9942 25.9403C57.8778 25.9061 57.912 25.7736 58.0285 25.6914C58.145 25.6092 57.9623 25.6868 58.129 25.4402C58.2957 25.1935 58.3186 25.4105 58.3163 25.109C58.314 24.8075 58.4053 24.4923 58.5903 24.4421Z" fill="#39B4EF"/>
<path d="M58.4422 20.2168C58.4422 20.2168 58.1271 20.5 58.1271 20.5503C58.1271 20.6005 57.9284 21.0002 57.9284 21.1327C57.9284 21.2651 57.4304 21.4319 57.3802 21.3816C57.33 21.3314 57.33 20.8951 57.3802 20.8221C57.4304 20.749 57.097 20.6165 57.081 20.516C57.065 20.4155 57.1815 20.2671 56.9143 20.2168C56.647 20.1666 56.3159 20.4155 56.3479 20.0501C56.3821 19.6846 56.3479 19.4357 56.4986 19.5682C56.6493 19.7006 56.7156 19.8674 56.9303 19.7006C57.1472 19.5339 57.1792 19.4174 57.1792 19.4174C57.1792 19.4174 57.2455 19.2347 57.097 19.269C56.9463 19.3009 56.5146 19.3672 56.7818 19.1685C57.049 18.9698 57.1472 18.9857 57.0308 18.8853C56.9143 18.7848 56.8138 18.602 57.0467 18.5701C57.2797 18.5358 57.0604 18.3714 57.3939 18.5701C57.7274 18.7688 57.8279 18.9035 57.8438 19.036C57.8598 19.1685 57.7114 19.3192 57.8598 19.269C58.0106 19.2187 58.0266 18.835 58.175 19.036C58.3258 19.2347 58.1248 19.4014 58.191 19.4859C58.2572 19.5682 58.3098 19.6846 58.3098 19.6846C58.3098 19.6846 58.5542 20.114 58.4422 20.2168Z" fill="#39B4EF"/>
<path d="M56.8961 21.3911C57.0422 21.3203 57.0948 21.165 56.8961 20.9663C56.6974 20.7676 56.5466 20.7607 56.5466 20.8224C56.5466 20.884 56.4461 21.0165 56.5466 21.165C56.6471 21.3157 56.5306 21.567 56.8961 21.3911Z" fill="#39B4EF"/>
<path d="M59.8101 18.5697C59.8055 19.0105 60.0408 18.17 60.0408 18.17C60.0408 18.17 60.0339 18.0193 59.938 17.9873C59.8421 17.9531 59.4835 17.7703 59.4972 17.9211C59.5086 18.0718 59.5178 18.1381 59.4972 18.2865C59.4744 18.4373 59.8124 18.2705 59.8101 18.5697Z" fill="#39B4EF"/>
<path d="M55.3163 21.7632C55.4168 21.7472 55.483 21.649 55.5333 21.3887C55.5835 21.1306 55.5995 20.8199 55.5995 20.8199C55.5995 20.8199 55.3506 20.7971 55.3163 21.0301C55.282 21.263 55.1998 21.4458 55.1496 21.5965C55.1016 21.7472 55.3163 21.7632 55.3163 21.7632Z" fill="#39B4EF"/>
<path d="M57.0884 24.84C57.0587 24.8674 56.9924 24.7532 56.9513 24.7601C56.9102 24.7692 56.86 24.8012 56.8645 24.84C56.8691 24.8765 56.8965 24.9451 56.8645 24.9565C56.8325 24.9679 56.7777 24.9062 56.7686 24.9725C56.7595 25.0387 56.643 25.0067 56.6567 25.0798C56.6681 25.1552 56.6407 25.1552 56.5699 25.2123C56.4991 25.2694 56.4443 25.3036 56.4443 25.3196C56.4443 25.3356 56.3324 25.3105 56.4443 25.4064C56.5562 25.5024 56.611 25.4635 56.5767 25.5343C56.5425 25.6051 56.4146 25.6348 56.5562 25.7011C56.6978 25.7673 56.6475 25.7582 56.7412 25.8335C56.8348 25.9089 56.7435 25.8883 56.8851 25.934C57.0267 25.9797 57.0678 25.9911 57.1272 25.9683C57.1843 25.9432 57.118 25.9226 57.2277 25.797C57.335 25.6714 57.3099 25.7467 57.3556 25.58C57.4013 25.4133 57.367 25.3311 57.3853 25.2671C57.4013 25.2054 57.4058 25.2123 57.3853 25.1095C57.3647 25.0044 57.3305 24.9473 57.2985 24.9359C57.2619 24.9291 57.1706 24.7669 57.0884 24.84Z" fill="#39B4EF"/>
<path d="M56.7669 23.7272C56.6184 23.8665 56.5271 24.0766 56.5042 24.2251C56.4814 24.3758 56.0338 24.6819 55.9835 24.7618C55.9333 24.8417 55.9675 25.1249 55.9013 25.1249C55.835 25.1249 56.0018 25.3077 55.7026 25.2414C55.4034 25.1752 55.2366 25.1249 55.2366 25.0245C55.2366 24.924 55.6363 24.6567 55.7346 24.49C55.835 24.3256 55.8008 24.0743 55.6021 24.0926C55.4034 24.1086 55.2549 24.1269 55.1453 23.9921C55.0357 23.8596 55.0197 24.1246 54.9032 23.7249C54.7867 23.3252 54.821 23.042 54.9032 22.9095C54.9854 22.777 55.0379 22.6925 55.1453 22.9095C55.2526 23.1265 55.8282 23.1265 55.7985 23.2589C55.7688 23.3914 55.9858 23.9099 55.9013 23.3594C55.8191 22.809 55.7026 22.5943 55.9675 22.576C56.2347 22.5601 56.3946 22.7747 56.5042 22.9095C56.6162 23.042 57.0273 23.1767 57.0273 23.1767C57.0273 23.1767 56.8651 23.6335 56.7669 23.7272Z" fill="#39B4EF"/>
<path d="M53.8781 20.358C53.8141 20.3123 53.604 20.7919 53.3048 20.7874C53.0056 20.7828 52.4826 20.849 52.7567 20.2164C53.0307 19.5837 52.9805 19.3599 53.3802 19.4101C53.7799 19.4604 54.4788 19.8464 54.4788 19.9651C54.4765 20.0839 54.127 20.5316 53.8781 20.358Z" fill="#39B4EF"/>
<path d="M54.353 19.5363C54.2068 19.4884 54.1863 19.2714 54.1611 19.2714C54.136 19.2714 54.0447 19.3285 54.0447 19.3285C54.0447 19.3285 53.903 19.3628 53.903 19.2714C53.903 19.18 53.903 19.1207 53.903 19.1207C53.903 19.1207 53.8528 19.1869 53.7866 19.1207C53.7203 19.0544 53.4965 19.0955 53.6701 18.9539C53.8437 18.8123 53.8437 18.8123 53.9442 18.8032C54.0447 18.7941 54.2274 18.8603 54.3027 18.8854C54.3781 18.9105 54.4855 18.9197 54.6019 18.8443C54.7184 18.7689 54.7435 18.7278 54.7755 18.8694C54.8098 19.011 54.675 19.1778 54.7253 19.2691C54.7755 19.3605 54.8166 19.4518 54.659 19.4678C54.5037 19.4861 54.4786 19.5775 54.353 19.5363Z" fill="#39B4EF"/>
<path d="M52.7561 19.7255C52.8817 19.6158 52.8817 19.4285 52.7561 19.4034C52.6305 19.376 52.5482 19.4354 52.5482 19.4856C52.5482 19.5359 52.4729 19.5199 52.4911 19.6775C52.5071 19.8351 52.6145 19.8511 52.7561 19.7255Z" fill="#39B4EF"/>
<path d="M51.8731 21.2061C51.9896 21.0896 51.8822 20.9229 51.6995 20.9229C51.5168 20.9229 51.3592 20.9388 51.4506 21.0142C51.5419 21.0896 51.5511 21.165 51.5328 21.2061C51.5145 21.2495 51.7406 21.3408 51.8731 21.2061Z" fill="#39B4EF"/>
<path d="M52.796 21.9599C52.6179 22.0672 52.6476 21.9713 52.6179 21.9827C52.5768 21.9987 52.4283 22.0307 52.4283 22.0901C52.4283 22.1472 52.2456 22.2888 52.3781 22.5058C52.5105 22.7227 52.6225 22.7958 52.4831 22.8209C52.3438 22.8461 52.1702 22.8118 52.2113 22.9032C52.2525 22.9945 52.2684 23.0608 52.3027 23.1521C52.337 23.2435 52.3027 23.3097 52.2616 23.3097C52.2205 23.3097 52.0697 23.2595 51.9784 23.2686C51.887 23.2777 51.6883 23.2343 51.6198 23.2435C51.5513 23.2526 51.4782 23.111 51.5444 23.0516C51.6107 22.9945 51.4919 23.0014 51.5193 22.9009C51.5444 22.8004 51.5764 22.6862 51.5147 22.6451C51.4531 22.6017 51.5102 22.5948 51.5147 22.4852C51.5193 22.3779 51.4074 22.3345 51.4188 22.2431C51.4279 22.1517 51.4576 22.1517 51.4188 22.0604C51.38 21.969 51.2886 21.8183 51.2886 21.8183H51.1379C51.1379 21.8183 51.2041 21.8274 51.1881 21.6675C51.1721 21.5099 50.9803 21.4232 50.9141 21.446C50.8478 21.4688 50.672 21.5602 50.672 21.6356C50.672 21.7109 50.6628 21.8343 50.672 21.8937C50.6811 21.9508 50.3887 21.9759 50.3316 21.8845C50.2745 21.7932 50.1992 21.6858 50.1649 21.7589C50.1307 21.8343 49.9913 21.8754 50.0895 21.9759C50.19 22.0764 50.2403 22.2248 50.2403 22.2248C50.2403 22.2248 50.3042 22.25 50.0553 22.2408C49.8086 22.2317 49.7584 22.2157 49.7173 22.2751C49.6761 22.3322 49.5848 22.3573 49.651 22.4167C49.7173 22.4738 49.9182 22.5492 49.8749 22.6154C49.8337 22.6816 49.4181 22.7159 49.4181 22.7159C49.4181 22.7159 49.4432 22.6245 49.2924 22.6816C49.1417 22.7387 48.959 22.8072 48.959 22.8484C48.959 22.8895 49.0846 22.9055 49.0503 22.9808C49.0161 23.0562 48.9339 23.1544 48.9932 23.2229C49.0526 23.2914 49.2605 23.3896 49.3336 23.465C49.4066 23.5404 49.3495 23.6318 49.4843 23.6386C49.6168 23.6477 49.6168 23.6546 49.7584 23.6386C49.9 23.6226 49.7926 23.4467 49.9913 23.4559C50.19 23.465 50.2745 23.3485 50.2654 23.4468C50.2563 23.5472 50.0576 23.5632 50.19 23.5724C50.3225 23.5815 50.3636 23.5815 50.4733 23.5884C50.5806 23.5975 50.5737 23.6318 50.6971 23.6477C50.8227 23.6637 50.7884 23.6957 50.9597 23.6957C51.131 23.6957 51.2475 23.5884 51.179 23.6957C51.1128 23.803 51.0054 23.8464 50.9597 23.8464C50.9141 23.8464 50.7884 23.9264 50.7405 23.9104C50.6902 23.8944 50.4984 23.8213 50.4253 23.8282C50.3522 23.835 50.2174 23.8373 50.101 23.8624C49.9845 23.8876 49.6099 23.867 49.6031 23.9104C49.5939 23.9538 49.5277 24.0703 49.5939 24.1616C49.6602 24.253 49.4934 24.2621 49.6282 24.3443C49.7607 24.4266 49.8771 24.4014 49.9525 24.486C50.0279 24.5682 50.085 24.6276 50.302 24.5773C50.5189 24.5271 50.5258 24.5431 50.6925 24.5111C50.8592 24.4768 50.7176 24.3786 51.0008 24.3786C51.2841 24.3786 51.0579 24.2781 51.3343 24.2621C51.6084 24.2461 51.4896 24.2964 51.6723 24.2461C51.8573 24.1959 51.7957 24.0132 51.9213 24.1137C52.0469 24.2142 51.9807 24.221 52.0058 24.2553C52.0309 24.2895 52.1565 24.2895 52.1794 24.2644C52.2045 24.2393 52.2296 24.2142 52.2456 24.3215C52.2616 24.4289 52.2114 24.3877 52.3964 24.422C52.5791 24.4563 52.6956 24.4471 52.7709 24.3969C52.8463 24.3466 52.8783 24.2393 52.9628 24.2393C53.045 24.2393 53.0701 24.3649 53.1798 24.1731C53.2871 23.9812 53.2551 23.9629 53.3373 23.9127C53.4196 23.8647 53.1706 23.8236 53.4789 23.7551C53.7873 23.6889 53.5292 23.7208 53.6708 23.5472C53.8124 23.3737 53.8215 23.3303 53.8215 23.2389C53.8215 23.1475 53.6297 22.9808 53.6297 22.9808C53.6297 22.9808 53.5041 22.8643 53.4378 23.0196C53.3716 23.1727 53.3373 23.2892 53.246 23.3485C53.1546 23.4056 53.1546 23.248 53.1638 23.1978C53.1729 23.1475 53.0724 23.0151 53.013 23.1064C52.9559 23.1978 52.9308 23.3143 52.8394 23.3303C52.7481 23.3463 52.7823 23.1224 52.8965 23.1133C53.013 23.1042 52.8623 23.0516 52.9536 23.0174C53.045 22.9831 52.9742 23.0288 53.0747 22.9557C53.1752 22.8803 53.166 22.7821 53.1112 22.7821C53.0564 22.7821 52.9491 22.773 52.908 22.7821C52.8668 22.7913 52.7618 22.7524 52.8965 22.7113C53.029 22.6702 53.0222 22.6496 53.0541 22.6063C53.0884 22.5651 53.1409 22.6611 53.1364 22.4943C53.1318 22.3276 53.0404 22.2865 53.1067 22.2043C53.1729 22.1221 53.0107 22.1289 53.1364 22.0375C53.262 21.9462 53.2231 21.9462 53.262 21.8868C53.2985 21.8297 53.2825 21.663 53.2003 21.6584C53.1181 21.6538 52.9925 21.6927 52.9582 21.7292C52.9239 21.7658 52.8303 21.7658 52.7915 21.8206C52.7549 21.8799 52.8806 21.9096 52.796 21.9599Z" fill="#39B4EF"/>
<path d="M53.6482 24.1791C53.6437 24.2339 53.5363 24.2659 53.5272 24.2796C53.5181 24.291 53.3696 24.2682 53.4907 24.3367C53.6117 24.4075 53.6231 24.4623 53.7076 24.4691C53.7921 24.476 53.9109 24.4532 53.936 24.3824C53.9611 24.3116 53.9018 24.2293 53.92 24.1791C53.936 24.1288 53.6574 24.0672 53.6482 24.1791Z" fill="#39B4EF"/>
<path d="M49.9181 21.2762C49.9158 21.1917 50.1259 21.057 50.1853 20.9245C50.2424 20.792 50.2264 20.6093 50.2264 20.5751C50.2264 20.5408 50.1099 20.4335 50.0277 20.5408C49.9455 20.6482 50.078 20.5979 49.845 20.8309C49.612 21.0638 49.5618 21.2283 49.5298 21.274C49.4956 21.3219 49.3311 21.4133 49.2969 21.4864C49.2626 21.5617 49.1141 21.5686 49.1141 21.5686C49.1141 21.5686 49.322 21.3356 49.1895 21.3448C49.057 21.3539 48.9154 21.5686 48.8812 21.5686C48.8469 21.5686 48.7144 21.6348 48.6733 21.6188C48.6322 21.6028 48.5477 21.5115 48.6231 21.4019C48.6985 21.2945 48.6802 21.1346 48.5934 21.2351C48.5066 21.3356 48.3901 21.443 48.3901 21.443C48.3901 21.443 48.2325 21.443 48.2394 21.3356C48.2462 21.2283 48.3467 21.1849 48.1823 21.1689C48.0155 21.1529 47.8739 21.2374 47.8922 21.0958C47.9082 20.9519 47.8762 20.8377 48.1092 20.7829C48.3422 20.7281 48.2257 20.6619 48.4427 20.6619C48.6596 20.6619 48.4929 20.7281 48.8081 20.5294C49.1233 20.3307 49.1164 20.3878 49.2649 20.3307C49.4156 20.2736 49.4225 20.2393 49.6235 20.1982C49.8222 20.1571 49.7651 20.148 49.9638 20.0475C50.1625 19.947 49.9843 20.0817 50.231 19.9059C50.4777 19.7323 50.279 19.5815 50.6033 19.6478C50.9276 19.714 50.9687 19.7985 50.9938 19.8648C51.019 19.931 51.1446 19.9721 51.1446 20.0064C51.1446 20.0406 51.2519 20.0155 51.2771 19.9241C51.3022 19.8328 51.4346 19.7163 51.494 19.7254C51.5511 19.7346 51.6448 19.7917 51.5762 19.9241C51.51 20.0566 51.8503 20.0909 51.5009 20.2896C51.1514 20.4883 51.1514 20.7852 51.1514 20.7852L50.9938 20.8377C50.9938 20.8377 50.9025 20.8286 50.9025 20.872C50.9025 20.9131 50.8774 20.9885 50.8682 21.0136C50.8591 21.0387 50.7358 21.0661 50.6946 21.0981C50.6535 21.1301 50.5782 21.2054 50.5028 21.2123C50.4274 21.2214 50.3109 21.178 50.279 21.2123C50.2447 21.2465 50.1876 21.3128 50.1876 21.3699C50.1876 21.427 50.2036 21.3859 50.0209 21.5115C49.8359 21.6394 49.9272 21.5024 49.9181 21.2762Z" fill="#39B4EF"/>
<path d="M49.472 21.939C49.3532 22.0167 49.1568 22.1126 49.1385 22.1971C49.1226 22.2793 49.2642 22.3387 49.0472 22.389C48.8302 22.4392 48.8051 22.4803 48.7731 22.4392C48.7388 22.3981 48.4899 22.3981 48.6909 22.2656C48.8896 22.1331 48.732 22.124 48.9147 22.0235C49.0974 21.923 49.0814 21.8911 49.2733 21.8317C49.4629 21.7723 49.7712 21.7426 49.472 21.939Z" fill="#39B4EF"/>
<path d="M59.8398 32.7332C59.1158 32.5345 59.0906 32.3335 58.7412 32.3586C58.3917 32.3838 57.718 32.5048 57.5444 32.3563C57.3708 32.2079 57.4188 32.3952 57.332 32.0594C57.2452 31.7237 56.9711 31.5113 56.9072 31.5478C56.8455 31.5844 56.7701 31.6734 56.7085 31.3742C56.6468 31.075 56.3727 30.8512 56.7085 30.938C57.0442 31.0248 57.0077 31.1618 57.1447 31.0887C57.2817 31.0134 57.4941 30.89 57.2817 30.8147C57.0693 30.7393 56.6833 30.7279 56.6696 30.6023C56.6582 30.4766 56.3704 30.6525 56.6948 30.2665C57.0191 29.8805 56.6445 29.506 57.1812 29.0697C57.718 28.6335 57.7682 28.734 57.9304 28.5079C58.0925 28.284 58.0012 28.2703 58.1907 28.1082C58.3803 27.946 58.1793 28.0214 58.6544 27.9095C59.1295 27.7975 59.1774 27.6971 59.3898 27.8478C59.6022 27.9985 59.689 28.0967 59.3784 28.2087C59.0655 28.3206 58.8303 28.5079 58.8166 28.6335C58.8051 28.7591 58.5927 28.7705 58.579 28.9464C58.5653 29.1222 58.4169 29.2342 58.3415 29.4945C58.2661 29.7549 57.9007 29.78 58.1907 30.0564C58.4808 30.3305 58.088 30.2688 58.1907 30.4058C58.2935 30.5429 58.3187 30.5566 58.3049 30.6434C58.2935 30.7302 58.3666 30.817 58.3415 30.906C58.3164 30.9928 58.1177 31.0568 58.2912 31.1184C58.4648 31.1801 58.6407 31.2303 58.6521 31.0065C58.6635 30.7827 58.5767 30.5817 58.6156 30.4447C58.6521 30.3076 58.4534 30.3076 58.6156 30.0564C58.7777 29.8074 58.4169 29.8942 58.7777 29.8074C59.1386 29.7206 59.214 29.6955 59.1272 29.5448C59.0404 29.394 58.7526 29.4831 58.8143 29.3461C58.8759 29.209 59.0632 28.935 59.1637 28.935C59.2642 28.935 59.214 29.1725 59.3373 29.0857C59.4629 28.9989 59.1386 28.8231 59.3122 28.686C59.4858 28.549 59.5109 28.4736 59.6867 28.4736C59.8603 28.4736 59.8855 28.3731 60.0979 28.3868C60.3103 28.3982 60.2714 28.4371 60.5341 28.3503C60.7968 28.2635 60.984 28.501 60.9589 28.6746C60.9338 28.8482 60.7716 29.2364 60.7968 29.3232C60.8219 29.41 60.4359 29.6224 60.509 29.6978C60.5821 29.7732 60.7077 29.7846 60.6209 29.9605C60.5341 30.134 60.4222 30.2962 60.6323 30.2597C60.8447 30.2231 60.8858 29.8988 60.9589 29.8851C61.032 29.8737 60.9201 29.6727 61.032 29.8737C61.1439 30.0724 61.2444 30.1615 61.2444 30.198C61.2444 30.2345 61.5071 30.3967 61.5071 30.2597C61.5071 30.1226 61.3449 29.9742 61.5071 29.949C61.6692 29.9239 62.2311 29.9239 62.2311 29.9239C62.2311 29.9239 62.8044 30.1592 62.7792 30.2597C62.7541 30.3602 62.4549 30.3716 62.48 30.4469C62.5052 30.5223 62.7176 30.6457 62.7792 30.7713C62.8409 30.8969 63.2155 30.8466 63.0031 30.9449C62.7907 31.0453 62.5668 31.0065 62.6422 31.1184C62.7176 31.2303 62.7176 31.2441 62.8044 31.3171C62.8912 31.3902 62.9574 31.4176 63.0693 31.4793C63.1812 31.541 63.1538 31.4542 63.3799 31.4428C63.6037 31.4313 63.7294 31.7168 63.7294 31.7168C63.7294 31.7168 63.4302 31.8036 63.4667 31.8676C63.5033 31.9292 63.0419 31.8927 63.2543 32.0046C63.4667 32.1165 63.6403 32.1554 63.7294 32.1668C63.8162 32.1782 63.8801 32.3404 63.8207 32.3997C63.7636 32.4568 63.6631 32.4409 63.6951 32.5505C63.7294 32.6578 63.6814 32.7926 63.8436 32.7423C64.0034 32.6921 63.9463 32.635 64.1131 32.5436C64.2798 32.4523 64.0971 32.3198 64.346 32.4614C64.595 32.603 64.4785 32.5779 64.5699 32.6784C64.6612 32.7789 64.7868 32.7857 64.6863 32.9022C64.5859 33.0187 64.3963 33.1352 64.3118 33.1512C64.2296 33.1671 63.9212 33.0941 64.1702 33.2334C64.4191 33.375 64.5859 33.1923 64.7229 33.1763C64.8599 33.1603 64.8782 33.2517 64.8439 33.3933C64.8097 33.5349 65.1683 33.6605 64.9513 33.7427C64.7343 33.8249 64.4351 33.7336 64.378 33.7427C64.3209 33.7518 64.2273 33.9163 64.4442 33.9848C64.6612 34.051 64.7846 33.9597 64.7846 34.268C64.7846 34.5764 64.6521 34.5421 64.5516 34.5101C64.4511 34.4759 64.1359 34.4599 64.1359 34.5307C64.1359 34.6015 64.2684 34.6677 64.1862 34.7431C64.1039 34.8185 64.3597 34.9669 64.3118 35.0263C64.2615 35.0834 64.161 35.1017 64.1953 35.1428C64.2296 35.1839 64.3209 35.3095 64.3209 35.3095C64.3209 35.3095 64.5219 35.3917 64.5036 35.4557C64.4854 35.5174 64.748 35.6864 64.748 35.6864C64.748 35.6864 64.7914 35.8234 64.8782 35.7983C64.965 35.7732 64.9125 35.5607 65.0221 35.5859C65.134 35.611 65.1888 35.7732 65.0883 35.8348C64.9878 35.8965 65.013 36.0724 65.182 36.1089C65.351 36.1454 65.3441 36.1591 65.287 36.2825C65.2299 36.4081 65.1135 36.4561 65.3624 36.5314C65.6114 36.6068 65.5748 36.5132 65.6616 36.5817C65.7484 36.6502 65.8055 36.7119 65.7804 36.769C65.7552 36.8261 66.0179 36.8443 66.0476 36.9425C66.0796 37.043 66.0544 37.1801 65.9608 37.2052C65.8672 37.2303 65.8489 37.2417 65.8557 37.292C65.8557 37.292 65.8123 37.4359 65.7941 37.4656C65.7758 37.4975 65.9243 37.6643 65.8375 37.678C65.7507 37.6894 65.5999 37.7282 65.5748 37.7899C65.5497 37.8516 65.4926 37.9955 65.4241 38.0137C65.3555 38.032 65.2505 38.0503 65.2505 38.0754C65.2505 38.1005 65.1454 37.8379 65.0883 37.9498C65.0312 38.0617 64.9947 38.3358 64.9947 38.3746C64.9947 38.4134 64.9764 38.5002 64.8828 38.4865C64.7891 38.4751 64.6841 38.4979 64.6841 38.3609C64.6841 38.2238 64.6338 38.0982 64.547 38.0251C64.4602 37.9498 64.6087 37.8379 64.6475 37.7122C64.6841 37.5866 64.6407 37.4998 64.6726 37.4747C64.7046 37.4496 64.6041 37.4679 64.3666 37.4427C64.1291 37.4176 64.1542 37.4542 64.0674 37.1938C63.9806 36.9334 63.8184 36.858 63.8184 37.0065C63.8184 37.155 63.6814 37.3811 63.6449 37.4313C63.6083 37.4816 63.2589 37.1435 63.2589 37.3194C63.2589 37.4953 63.421 37.7556 63.421 37.8173C63.421 37.879 63.0716 37.8059 63.3342 38.1782C63.5969 38.5505 63.7088 38.6281 63.67 38.6761C63.6334 38.7263 63.6951 38.8885 63.8687 38.8999C64.0423 38.9113 64.0309 39.0004 64.0194 39.0986C64.008 39.1991 64.0308 39.3476 64.0811 39.4595C64.1313 39.5714 64.0925 39.8592 64.0925 39.8592C64.0925 39.8592 64.1793 40.083 63.992 40.1218C63.8047 40.1584 63.5923 40.0853 63.6791 40.2589C63.7659 40.4324 63.9418 40.7202 63.7796 40.6586C63.6174 40.5969 63.517 40.5718 63.4553 40.3959C63.3936 40.2223 63.2429 40.2452 63.1926 40.035C63.1424 39.8226 63.019 39.7473 62.93 39.6993C62.8432 39.649 62.7564 39.5006 62.681 39.5371C62.6057 39.5737 62.3818 39.6879 62.6308 39.8363C62.8797 39.9871 62.8295 39.9734 62.9551 40.1972C63.0807 40.421 62.9916 40.284 63.0807 40.7339C63.1675 41.1839 62.9551 41.1199 62.9551 41.1199C62.9551 41.1199 62.8181 41.2821 62.6057 41.008C62.3932 40.7339 62.4184 40.6837 62.2813 40.5969C62.1443 40.5101 62.0073 40.4599 61.8451 40.3845C61.6829 40.3091 61.3837 40.2589 61.4842 40.1469C61.5847 40.035 61.4728 40.0213 61.3586 39.8592C61.2467 39.697 61.3084 39.7473 61.2467 39.5851C61.185 39.4229 61.1599 39.4229 61.185 39.3361C61.2102 39.2493 60.8242 39.2242 60.799 39.0621C60.7739 38.8999 60.7488 39.0255 60.7625 38.7994C60.7739 38.5756 60.7739 38.4865 60.7122 38.45C60.6506 38.4134 60.4884 38.3632 60.4245 38.3746C60.3628 38.386 60.2988 38.6372 60.2121 38.5367C60.1253 38.4363 60.0499 38.2238 59.8763 38.3243C59.7027 38.4248 59.7895 38.3997 59.5885 38.4248C59.3898 38.45 59.2756 38.5368 59.0655 38.45C58.8531 38.3632 58.8166 38.4385 58.8029 38.2261C58.7914 38.0137 58.7526 38.0137 58.9536 37.7145C59.1523 37.4153 58.9422 37.1915 59.1911 37.2783C59.4401 37.3651 59.3419 37.5272 59.5155 37.6392C59.689 37.7511 59.4401 37.9132 59.7279 37.8379C60.0156 37.7625 59.8398 37.5501 60.1024 37.6392C60.3651 37.7259 60.276 37.7396 60.4382 37.6277C60.6003 37.5158 60.7123 37.5661 60.7511 37.5661C60.7876 37.5661 60.8013 37.6277 60.8127 37.4039C60.8242 37.1801 60.5752 37.043 60.7008 36.9174C60.8264 36.7918 60.8881 36.8558 61 36.7804C61.1119 36.705 61.0868 36.6433 61.2239 36.568C61.3609 36.4926 61.3358 36.4675 61.386 36.3441C61.4363 36.2185 61.6738 36.1454 61.6989 36.1934C61.724 36.2437 61.6989 36.2551 61.7606 36.1066C61.8223 35.9582 61.7857 35.981 61.8474 35.8325C61.909 35.6818 62.0598 35.8691 62.021 35.6087C61.9844 35.3461 61.9844 35.3461 61.9844 35.1725C61.9844 34.9989 62.1717 34.5741 61.973 34.5855C61.7743 34.5969 61.8223 34.1607 61.6487 34.2246C61.4751 34.2863 61.587 34.1744 61.4865 34.1744C61.386 34.1744 61.2741 34.2498 61.1508 34.2246C61.0252 34.1995 60.6529 34.3365 60.8264 34.1493C61 33.962 61.064 34.0625 61.1142 33.9505C61.1645 33.8386 61.1142 33.7998 61.0526 33.6765C60.9909 33.5509 61.0526 33.5257 60.9658 33.4275C60.879 33.327 61.4271 33.3522 61.1782 33.2288C60.9292 33.1032 61.1279 32.9662 60.879 32.868C60.63 32.7675 60.7922 32.8565 60.8036 32.7309C60.815 32.6053 60.678 32.4934 60.678 32.4934C60.678 32.4934 60.5524 32.0823 60.4542 32.1439C60.3537 32.2056 60.1413 32.2444 60.3171 32.418C60.4907 32.5916 60.3285 32.7172 60.2806 32.804C60.2303 32.8908 60.0819 32.9045 60.0819 32.9045C60.0819 32.9045 60.0271 32.9159 59.9448 32.8839C59.8558 32.8405 59.8398 32.7332 59.8398 32.7332Z" fill="#39B4EF"/>
<path d="M60.4065 34.6702C60.1941 34.5629 60.1736 34.9694 60.0571 35.0699C59.9406 35.1704 59.8241 35.3189 59.8904 35.4514C59.9566 35.5838 60.1576 35.7848 60.322 35.6843C60.4888 35.5838 60.571 35.6683 60.6715 35.4354C60.772 35.2024 60.7537 35.0699 60.7537 35.0037C60.7537 34.9375 60.772 34.853 60.4065 34.6702Z" fill="#39B4EF"/>
<path d="M61.5379 35.1817C61.5517 34.9076 61.2045 34.8688 61.1885 35.0012C61.1725 35.1337 60.9396 35.3347 61.1885 35.3507C61.4375 35.3689 61.5197 35.5105 61.5379 35.1817Z" fill="#39B4EF"/>
<path d="M60.128 33.4178C60.128 33.4178 60.1782 33.5434 60.0275 33.5548C59.8768 33.5662 59.8402 33.5799 59.79 33.6416C59.7397 33.7033 59.6643 33.7672 59.6278 33.8403C59.5913 33.9157 59.3286 34.103 59.6278 34.0893C59.927 34.0778 60.0275 34.0527 60.0526 33.9636C60.0777 33.8769 60.0892 33.8152 60.2034 33.7512C60.3153 33.6896 60.3655 33.4132 60.3655 33.315C60.3632 33.2191 60.2262 33.2807 60.128 33.4178Z" fill="#39B4EF"/>
<path d="M56.0242 37.2483C55.9442 37.4767 55.9122 37.0244 55.9488 36.8988C55.9853 36.7732 56.0127 36.5996 55.9374 36.5996C55.862 36.5996 55.4509 36.9856 55.4509 37.061C55.4509 37.1363 55.5377 37.2231 55.4509 37.3602C55.3641 37.4972 55.2385 37.5223 55.2133 37.6342C55.1882 37.7462 55.2133 37.8581 55.2133 37.9837C55.2133 38.1093 54.9507 38.0705 54.9393 38.1824C54.9279 38.2943 54.2655 38.1824 54.6652 38.4199C55.0649 38.6575 55.1631 38.6826 55.1631 38.6826C55.1631 38.6826 55.1631 38.7191 55.1517 38.8699C55.1403 39.0206 54.8776 39.2307 55.1768 39.1439C55.476 39.0572 55.0649 38.7945 55.5377 38.7328C56.0127 38.6712 55.8985 38.7328 56.0858 38.5204C56.2731 38.308 56.385 38.4839 56.385 38.4839C56.385 38.4839 56.5632 38.5341 56.5426 38.5958C56.5221 38.6575 56.3713 38.8447 56.6956 38.8585C57.02 38.8699 56.9834 38.8333 57.157 38.9452C57.3306 39.0572 57.406 39.2696 57.4562 39.0206C57.5064 38.7717 57.4813 38.6095 57.3557 38.5707C57.2301 38.5341 57.0816 38.5204 57.1433 38.2829C57.205 38.0454 56.8943 38.1093 56.9195 37.9334C56.9446 37.7599 56.5129 37.6594 56.5403 37.5977C56.57 37.536 56.4079 37.5977 56.4581 37.3739C56.5084 37.15 56.5084 37.15 56.5084 37.15C56.5084 37.15 56.2845 37.2117 56.2959 37.1386C56.3097 37.061 56.1109 36.997 56.0242 37.2483Z" fill="#39B4EF"/>
<path d="M56.1658 39.8247C56.3827 39.8042 56.2 39.6078 56.2 39.6078C56.2 39.6078 56.2046 39.3748 56.0105 39.457C55.8163 39.5393 55.8163 39.674 55.6519 39.7243C55.4852 39.7745 55.3687 39.5415 55.4349 39.8247C55.4989 40.108 55.9831 39.843 56.1658 39.8247Z" fill="#39B4EF"/>
<path d="M57.4816 40.1237C57.4816 40.1237 57.5455 39.8496 57.2783 39.9547C57.0111 40.0574 57.0453 40.2242 57.0453 40.3064C57.0453 40.3886 56.9289 40.4389 56.9289 40.5234C56.9289 40.6056 56.7461 40.6239 56.9289 40.6741C57.1116 40.7243 57.1458 40.6239 57.2441 40.4754C57.3468 40.3247 57.3194 40.3749 57.4816 40.1237Z" fill="#39B4EF"/>
<path d="M58.461 39.0599C58.3993 38.6922 58.1618 39.4071 58.212 39.4414C58.2623 39.4756 58.212 39.704 58.461 39.6972C58.7099 39.6903 58.2942 39.5807 58.461 39.3774C58.6254 39.1764 58.4769 39.1604 58.461 39.0599Z" fill="#39B4EF"/>
<path d="M59.4745 39.1645C59.3786 38.9909 59.1753 39.3906 59.2415 39.4431C59.3078 39.4957 59.623 39.3952 59.623 39.3289C59.623 39.2604 59.5407 39.2833 59.4745 39.1645Z" fill="#39B4EF"/>
<path d="M54.4192 27.6676C54.6431 27.5123 54.6339 27.5351 54.8258 27.4004C55.0176 27.2679 55.0016 27.3844 55.0519 27.1514C55.1021 26.9184 55.1341 27.0007 55.1341 26.8362C55.1341 26.6718 55.1844 26.5028 55.0016 26.553C54.8189 26.6033 54.8349 26.569 54.6682 26.5439C54.5015 26.5187 54.4855 26.4365 54.2868 26.4365C54.0881 26.4365 54.1497 26.6033 53.9442 26.7037C53.7386 26.8042 53.6861 26.6695 53.6952 26.9367C53.7043 27.2039 53.9556 27.3181 53.8208 27.3684C53.6884 27.4186 53.6016 27.3844 53.4463 27.3844C53.291 27.3844 53.09 27.1354 53.0237 27.2519C52.9575 27.3684 52.7085 27.5009 52.7748 27.6676C52.841 27.8343 52.6583 27.7681 52.8753 28.033C53.0922 28.3002 53.3732 28.3002 53.2247 28.4144C53.074 28.5309 52.7588 28.4144 52.9415 28.6976C53.1242 28.9809 53.1082 28.9306 53.2407 29.1956C53.3732 29.4628 53.1219 29.577 53.4485 29.6112C53.7729 29.6455 53.7866 28.9968 53.9465 28.9123C54.1063 28.8301 54.1566 28.8301 54.305 28.7296C54.4558 28.6291 54.9377 28.7799 54.5882 28.3299C54.2365 27.8846 54.2114 27.8115 54.4192 27.6676Z" fill="#39B4EF"/>
<path d="M56.1815 27.4026C55.976 27.4368 55.9326 26.4205 55.7156 27.0531C55.4986 27.6858 55.3662 28.1175 55.2999 28.2339C55.2337 28.3504 54.9002 28.3162 54.9847 28.5834C55.067 28.8506 54.802 28.9648 55.051 29.1156C55.2999 29.2663 55.6494 29.248 55.6654 28.9169C55.6813 28.5834 55.6151 28.4669 55.8321 28.5354C56.0491 28.6017 55.7978 28.5012 56.1815 28.5697C56.563 28.6359 56.6269 28.6039 56.8964 28.3527C57.1636 28.1038 57.1317 28.154 57.5291 27.8868C57.9288 27.6196 58.3764 27.6036 57.8625 27.3706C57.3464 27.1376 57.1317 27.0874 57.1317 27.0874C57.1317 27.0874 57.3783 26.7539 56.8964 26.7722C56.4145 26.7882 56.3071 27.1217 56.3939 27.2541C56.4807 27.3866 56.3802 27.3683 56.1815 27.4026Z" fill="#39B4EF"/>
<path d="M53.02 32.9909C52.9355 33.0366 52.8213 33.1416 52.6546 32.9909C52.4879 32.8401 52.4216 32.6095 52.2047 32.6095C51.9877 32.6095 51.7547 32.9246 51.9055 32.493C52.0562 32.0613 52.1544 31.6274 52.3211 31.5451C52.4879 31.4629 52.5815 31.3784 52.7597 31.5451C52.9378 31.7119 52.8716 31.6456 53.02 31.8603C53.1708 32.0773 53.0543 32.1755 53.1525 32.26C53.253 32.3422 53.2027 32.3262 53.269 32.509C53.3375 32.6894 53.1434 32.9224 53.02 32.9909Z" fill="#39B4EF"/>
<path d="M48.7128 31.4474C48.5666 31.0477 48.2628 31.5342 47.9888 31.6347C47.7147 31.7352 48.7379 31.8334 47.4406 31.8083C46.1433 31.7832 46.0177 31.774 45.9697 31.6301C45.9195 31.484 45.7208 31.3355 45.9697 31.2099C46.2187 31.0843 45.7961 30.8604 45.6705 30.712C45.5449 30.5612 44.9968 30.6869 45.2457 30.0496C45.4947 29.4147 45.1703 29.047 45.7208 29.2046C46.2689 29.3644 46.02 29.4375 46.4699 29.5129C46.9199 29.5883 47.2442 29.691 47.4429 29.6134C47.6416 29.538 47.2191 29.0378 47.0683 29.0378C46.9176 29.0378 47.0934 28.8871 46.6184 28.8871C46.1433 28.8871 45.6957 28.8871 45.5952 28.6633C45.4947 28.4394 45.6203 28.2133 45.8441 28.1654C46.0679 28.1151 46.9518 28.1585 46.9473 28.0237C46.9427 27.889 46.2187 27.6652 46.1433 27.5647C46.0679 27.4642 46.1684 27.1147 46.7166 26.9412C47.2647 26.7676 46.2187 26.8749 47.3652 26.4341C48.5118 25.9933 48.8133 26.0687 48.7128 26.192C48.6123 26.3176 48.3131 26.4912 48.3884 26.5666C48.4638 26.642 48.9115 26.3176 49.0873 26.6419C49.2609 26.9663 48.6123 27.5144 48.9617 27.5898C49.3112 27.6652 49.6104 27.6652 49.7109 27.4642C49.8114 27.2655 50.0101 26.9891 49.8365 27.5144C49.6629 28.0375 49.6994 28.4874 49.905 28.4371C50.1106 28.3869 50.1106 28.2613 50.2362 27.7634C50.3618 27.2655 49.4619 26.2423 50.5103 26.7653C51.5586 27.2906 51.5495 27.4368 51.3919 27.7634C51.2343 28.0877 50.661 28.3869 50.6359 28.613C50.6107 28.8368 50.9351 29.7367 50.9351 29.7367C50.9351 29.7367 50.3869 29.7847 50.8346 30.0473C51.2845 30.31 51.2594 30.6846 51.2594 30.6846C51.2594 30.6846 51.6751 30.8581 51.3919 31.0089C51.1087 31.1596 50.8095 31.3812 50.8095 31.4451C50.8095 31.5068 50.7843 31.6393 50.6587 31.8106C50.5331 31.9819 50.1106 32.1052 49.9347 31.9819C49.7611 31.8562 49.6606 31.3081 49.4368 31.4451C49.213 31.5845 48.964 32.1326 48.7128 31.4474Z" fill="#39B4EF"/>
<path d="M52.0559 26.7695C52.0444 26.9271 51.4209 26.8449 51.4894 26.5708C51.558 26.2967 51.1583 26.0546 51.7704 26.1003C52.3802 26.146 52.282 26.4041 52.4556 26.4383C52.6291 26.4703 52.081 26.4452 52.0559 26.7695Z" fill="#39B4EF"/>
<path d="M48.0886 25.5724C47.835 25.9721 47.3897 25.6478 47.1658 25.7963C46.942 25.947 46.7661 26.0018 46.4418 26.1C46.1175 26.196 45.9919 26.2736 45.9919 26.4723C45.9919 26.671 45.6675 26.703 45.5419 26.8492C45.4163 26.9953 45.3181 27.0616 45.092 27.2534C44.8682 27.4453 44.4182 28.1419 44.119 27.7673C43.8198 27.395 43.4955 27.3197 43.7947 26.9953C44.0939 26.671 43.9934 26.0224 44.0688 25.8488C44.1441 25.6752 44.0939 25.625 44.4433 25.3737C44.7928 25.1248 44.569 25.1248 44.8179 24.9009C45.0669 24.6771 44.843 24.6703 45.3158 24.4738C45.7909 24.2774 45.8206 24.3345 45.88 24.1175C45.9393 23.9029 45.615 23.832 46.138 23.9166C46.6611 24.0011 46.6611 23.9577 46.9603 24.1175C47.2595 24.2751 47.4353 23.9143 47.7825 24.2957C48.1319 24.6748 48.374 24.7 48.3284 25.0243C48.2895 25.3486 48.2644 25.2984 48.0886 25.5724Z" fill="#39B4EF"/>
<path d="M18.9999 31.1842C18.9999 31.1842 19.274 31.7073 18.9999 31.4834C18.7258 31.2596 18.502 31.2847 18.502 30.9353C18.502 30.5858 18.3512 30.5105 18.6276 30.4374C18.9017 30.362 19.1506 30.3369 19.226 30.4374C19.3014 30.5379 19.3014 30.7777 19.5252 30.9558C19.749 31.1363 19.6988 31.3852 19.6988 31.3852C19.6988 31.3852 19.4749 31.2665 18.9999 31.1842Z" fill="#39B4EF"/>
<path d="M53.12 69.3134C53.104 69.2472 52.9693 69.2129 52.8528 69.2129C52.7363 69.2129 52.3046 68.7972 52.4371 69.3134C52.5696 69.8296 52.7866 69.8958 52.935 69.8456C53.0858 69.7953 53.1017 69.7633 53.2685 69.7633C53.4352 69.7633 53.3347 69.8456 53.4352 69.7633C53.5357 69.6788 53.12 69.3134 53.12 69.3134Z" fill="#39B4EF"/>
<path d="M50.6938 67.0657C50.6436 67.0017 50.2439 67.2004 50.2439 67.2004L49.9766 67.3671L49.7779 67.2096C49.7779 67.2096 49.6272 67.1639 49.7779 67.0657C49.9287 66.9675 49.8442 66.9674 50.0269 66.8852C50.2096 66.803 50.1936 66.9012 50.4083 66.803C50.6253 66.7025 50.559 66.6865 50.6915 66.6865C50.824 66.6865 51.057 66.803 51.1072 66.819C51.1574 66.835 50.9747 66.9697 51.3242 66.9195C51.6736 66.8692 51.6736 66.8692 51.6736 66.8692L52.1053 67.0679C52.1053 67.0679 52.0893 67.2027 52.272 67.237C52.4547 67.2712 52.4388 67.3032 52.6215 67.3694C52.8042 67.4357 53.1194 67.6184 53.1194 67.6184C53.1194 67.6184 53.1194 67.8011 53.3683 67.8354C53.6173 67.8696 53.7497 67.9176 53.8 67.9518C53.8502 67.9861 53.9005 67.9861 54.1814 68.0843C54.4646 68.1848 54.6633 68.2168 54.6793 68.267C54.6953 68.3173 53.9644 68.5822 53.9142 68.6325C53.8639 68.6827 53.7155 68.7147 53.5328 68.7147C53.3501 68.7147 53.0828 68.7147 53.0828 68.7147C53.0828 68.7147 53.0166 68.6484 53.2153 68.4977C53.414 68.347 53.382 68.2488 53.2496 68.2305C53.1171 68.2145 52.8339 68.2305 52.8339 68.1802C52.8339 68.13 52.6169 68.2967 52.6352 68.0478C52.6512 67.7988 52.6192 67.6823 52.5689 67.6983C52.5187 67.7143 52.6694 67.7326 52.4684 67.6983C52.2697 67.6641 52.2515 67.8308 52.0025 67.6983C51.7536 67.5658 51.7855 67.5316 51.6691 67.4494C51.5526 67.3671 51.2191 67.2667 51.0707 67.2667C50.9222 67.2667 50.6207 67.2826 50.639 67.2324C50.6595 67.1844 50.8103 67.2141 50.6938 67.0657Z" fill="#39B4EF"/>
<path d="M55.4756 69.0549C55.4551 69.1417 55.4642 69.1554 55.2381 69.192C55.0143 69.2285 54.9252 69.1554 54.8384 69.192C54.7516 69.2285 54.4022 69.3039 54.5141 69.3541C54.626 69.4044 54.763 69.4204 54.9389 69.4569C55.1125 69.4912 55.414 69.4546 55.4756 69.5163C55.5373 69.578 55.5259 69.6785 55.6378 69.715C55.7497 69.7515 55.8616 69.7401 55.9986 69.6145C56.1357 69.4889 56.0991 69.4204 56.323 69.4546C56.5468 69.4889 56.5719 69.4455 56.7478 69.4546C56.9214 69.4638 56.9967 69.5323 57.1475 69.393C57.2982 69.2536 57.2731 69.0527 57.1475 68.991C57.0219 68.9293 56.8597 68.9407 56.8597 68.8174C56.8597 68.6918 56.4851 68.5936 56.4851 68.5936C56.4851 68.5936 56.5217 68.468 56.2864 68.468C56.0489 68.468 56.0375 68.6301 55.7885 68.605C55.5396 68.5799 55.5007 68.3926 55.3637 68.468C55.2267 68.5433 55.2769 68.5799 55.0896 68.6187C54.9023 68.6552 54.9891 68.7557 55.1148 68.806C55.2381 68.8562 55.5122 68.8928 55.4756 69.0549Z" fill="#39B4EF"/>
<path d="M58.6441 69.7354C58.3632 69.7971 58.3815 69.8907 58.2193 69.7354C58.0572 69.5801 57.7831 69.5847 58.0206 69.4568C58.2582 69.3289 58.3084 69.2923 58.4203 69.3037C58.5322 69.3151 58.6693 69.3037 58.7446 69.3654C58.82 69.4271 59.1055 69.4887 59.1306 69.5527C59.1558 69.6166 58.884 69.6806 58.6441 69.7354Z" fill="#39B4EF"/>
<path d="M62.2402 43.6687C62.2517 43.6664 62.2562 43.6641 62.2402 43.6687V43.6687Z" fill="#39B4EF"/>
<path d="M52.3969 74.1346C52.3215 74.1117 52.2393 74.0843 52.157 74.0546C51.8898 73.9541 52.0748 74.0044 51.5746 74.0706C51.0767 74.1369 51.3074 74.1711 51.0425 74.1711C50.7752 74.1711 50.8438 74.1711 50.4441 74.0546C50.0444 73.9382 50.1768 73.9724 49.9941 73.8057C49.8114 73.639 49.8617 73.4403 49.8114 73.2735C49.7612 73.1068 49.8114 73.1068 49.7109 72.9583C49.6104 72.8076 49.9096 72.5769 50.0444 72.2937C50.1768 72.0105 49.9439 71.9443 49.8457 71.6793C49.7452 71.4121 50.3116 71.4121 50.2111 71.2134C50.1106 71.0147 49.213 70.832 49.213 70.832C49.213 70.832 48.98 70.7817 48.7471 70.6972C48.5141 70.6127 48.5963 70.6835 47.749 70.6835C47.3836 70.6835 47.2899 70.6904 47.2762 70.6949C47.2625 70.6995 47.3196 70.7018 47.2762 70.6949C47.2602 70.6926 47.2328 70.6904 47.1848 70.6835C46.8514 70.6493 47.2008 70.4163 47.3013 70.3181C47.4018 70.2176 47.5343 70.0189 47.6165 69.8521C47.6987 69.6854 47.5503 69.6032 47.4658 69.4525C47.3836 69.3017 47.8472 69.4182 47.9317 69.336C48.0139 69.2537 47.8815 68.6371 48.0984 68.2374C48.3154 67.8377 48.3314 67.9884 48.3154 67.8719C48.2994 67.7555 48.1829 67.5568 48.0505 67.5568C47.918 67.5568 47.8678 67.6573 47.669 67.6573C47.4703 67.6573 47.5686 67.5408 47.4018 67.4745C47.2351 67.4083 47.2511 67.4745 46.9519 67.575C46.6527 67.6755 46.8011 67.6755 46.6687 67.7737C46.5362 67.8742 46.6344 68.1072 46.5865 68.2397C46.5362 68.3721 46.6024 68.3721 46.3192 68.5229C46.036 68.6736 46.237 68.7399 46.1205 68.9545C46.004 69.1715 46.0543 69.0368 46.0543 69.3862C46.0543 69.7357 46.0383 69.4684 45.9035 69.5347C45.7688 69.6009 45.5381 69.5529 45.1042 69.4547C44.6702 69.3565 44.9534 69.5712 44.8209 69.521C44.6885 69.4707 44.6382 69.5712 44.371 69.521C44.1038 69.4707 44.1883 69.3383 44.0216 69.2218C43.8548 69.1053 43.9713 69.0893 43.5899 68.8883C43.2085 68.6896 43.4894 68.6896 43.3409 68.4886C43.1902 68.2899 43.2404 68.2899 43.1742 68.1552C43.108 68.0227 43.0737 67.9382 42.859 67.7897C42.642 67.639 42.8248 67.4563 42.8088 67.3398C42.7928 67.2233 42.6763 66.9241 42.8088 66.7574C42.9412 66.5906 42.9504 66.4536 43.0372 66.079C43.124 65.7045 43.3364 65.7433 43.3661 65.5172C43.3958 65.2911 43.4734 65.355 43.4506 65.1929C43.4254 65.0307 43.277 64.8069 43.4506 64.3569C43.6241 63.907 43.7132 64.0075 43.8366 63.859C43.9622 63.7083 44.323 63.7471 44.323 63.6854C44.323 63.6238 44.6725 63.2606 44.9717 63.0482C45.2709 62.8358 45.8579 63.0848 46.1319 62.9866C46.406 62.8861 46.3055 63.0117 46.3192 63.0733C46.3306 63.135 46.7555 63.272 46.8674 63.1853C46.9793 63.0985 47.13 63.1967 47.3424 63.336C47.5549 63.473 47.5297 63.2241 47.6165 63.1122C47.7033 63.0003 47.58 62.8883 47.5411 62.6508C47.5046 62.4133 48.0391 62.6622 48.1533 62.7011C48.2652 62.7376 48.5781 62.6508 48.7402 62.6006C48.9024 62.5503 49.1902 62.7011 49.2267 62.813C49.2633 62.9249 49.4642 62.9249 49.8548 63.0368C50.2454 63.1487 50.0375 62.8746 50.0626 62.7376C50.0878 62.6006 50.4372 62.8381 50.4372 62.9363C50.4372 63.0368 50.4486 63.0117 50.773 63.5849C51.0973 64.1582 50.8346 63.8339 50.8483 63.9961C50.8597 64.1582 50.9488 64.245 50.9602 64.5579C50.9717 64.8708 51.1224 64.8069 51.0973 65.0946C51.0722 65.3824 51.3462 65.6314 51.3462 65.6314C51.3462 65.6314 51.9446 65.4076 51.9446 65.2317C51.9446 65.0558 52.0817 64.7817 52.1068 64.6698C52.1319 64.5579 52.1068 64.3958 51.883 64.1948C51.6591 63.9961 51.8213 63.8956 51.8944 63.6466C51.9698 63.3977 51.9058 63.4342 51.5952 63.1601C51.2823 62.8861 51.5952 62.8723 51.5838 62.7604C51.5723 62.6485 51.5472 62.4475 51.5472 62.3744C51.5472 62.2991 51.8715 62.1004 51.6843 61.8377C51.497 61.5751 51.9332 61.6253 52.0588 61.5385C52.1844 61.4517 52.4334 61.3878 52.4334 61.3878C52.4334 61.3878 52.6458 61.0886 52.8194 60.9515C52.993 60.8145 53.3059 60.851 53.3059 60.7391C53.3059 60.6272 53.7672 60.4148 53.8929 60.3783C54.0185 60.3417 54.4296 59.7662 54.4296 59.7662C54.4296 59.7662 54.642 59.6291 54.6534 59.467C54.6648 59.3048 54.7402 59.2431 54.8156 59.1061C54.8909 58.9691 54.7539 58.9188 54.7037 58.8069C54.6534 58.695 54.6283 58.6082 54.5529 58.446C54.4775 58.2839 54.6534 58.0212 54.6534 58.0212C54.6534 58.0212 54.9024 58.1582 55.0143 58.0212C55.1262 57.8842 55.165 57.6969 55.0896 57.5598C55.0143 57.4228 54.9777 57.2355 54.9892 57.0985C55.0006 56.9615 55.35 57.5736 55.4642 57.5598C55.5761 57.5484 55.5145 57.3863 55.6378 57.2607C55.7634 57.135 55.8114 56.8861 55.7885 56.7627C55.7634 56.6371 56.2248 56.5252 56.2248 56.427C56.2248 56.3265 56.524 56.0913 56.862 56.1141C57.1978 56.1392 57.5974 56.0776 57.6614 56.0136C57.7231 55.9519 57.9104 55.9771 57.9971 55.9268C58.0839 55.8766 58.0725 55.7144 58.0474 55.5271C58.0223 55.3398 58.0474 55.3535 57.9857 55.116C57.924 54.8785 58.0611 54.8922 58.0725 54.73C58.0839 54.5679 58.2598 54.5679 58.4334 54.4674C58.607 54.3669 58.9701 54.2687 59.4063 54.2687C59.8426 54.2687 59.7192 54.1179 59.7307 53.9695C59.7421 53.8187 59.9933 53.869 59.9933 53.869C59.9933 53.869 60.4296 53.6566 60.7425 53.6451C61.0554 53.6337 60.779 53.8324 60.6922 53.8827C60.6054 53.9329 60.6671 54.0083 60.3793 54.207C60.0915 54.4057 60.4547 54.3326 60.7539 54.4948C61.0531 54.6569 60.9526 54.2824 61.0165 54.207C61.0782 54.1316 61.3066 53.9535 61.3066 53.9032C61.3066 53.853 61.7223 53.7867 61.7885 53.5698C61.8548 53.3528 62.5536 53.7022 62.5377 53.5698C62.5217 53.4373 62.4372 53.5035 62.2544 53.4373C62.0717 53.3711 62.0375 53.4373 61.873 53.3208C61.7063 53.2043 61.5898 53.2386 61.3911 53.0878C61.1924 52.9371 61.2906 53.0056 61.2906 52.7544C61.2906 52.5054 61.1741 52.6882 61.0736 52.5557C60.9869 52.4392 60.9503 52.4757 60.9435 52.4872L60.9412 52.4894C60.9412 52.4894 60.9412 52.4872 60.9435 52.4872C60.9526 52.4735 61.0325 52.3478 61.1422 51.9756C61.2586 51.5759 61.0257 52.0258 60.7265 51.8591C60.4273 51.6923 60.827 51.7768 60.9092 51.7426C60.9914 51.7083 61.2244 51.7768 61.3751 51.7426C61.5259 51.7083 61.7086 51.3429 61.5419 51.1762C61.3751 51.0094 61.0097 51.1259 60.827 51.1602C60.6443 51.1944 60.0961 51.3931 59.8449 51.4936C59.5959 51.5941 59.6462 51.5941 59.3287 51.6604C59.0135 51.7266 58.8787 52.1263 58.8628 52.076C58.8468 52.0258 58.8628 51.9436 58.8628 51.8591C58.8628 51.7768 58.9792 51.7083 59.0957 51.6101C59.2122 51.5096 59.4612 51.3772 59.5114 51.1282C59.5616 50.8792 59.9271 50.9615 59.9933 50.8633C60.0596 50.7628 60.4593 50.5138 60.7585 50.1804C61.0577 49.8469 61.3066 50.3791 61.3409 50.1804C61.3751 49.9817 61.6401 50.1644 61.873 50.1644C62.106 50.1644 62.2065 50.2466 62.2887 50.2306C62.3709 50.2146 62.5377 50.2306 63.0036 50.2968C63.4695 50.3631 63.5198 50.3973 63.7185 50.2968C63.9172 50.1963 63.9172 50.1804 64.0679 50.0136C64.2187 49.8469 64.5498 49.9131 64.5498 49.8309C64.5498 49.7487 64.5841 49.7487 64.5841 49.6322C64.5841 49.5157 65.2327 49.582 65.6324 49.5317C66.0321 49.4815 65.6827 49.116 65.5982 48.9836C65.516 48.8511 65.8814 48.9173 65.8471 48.7506C65.8129 48.5839 65.9636 48.5679 65.9636 48.4514C65.9636 48.3349 65.7809 48.1179 65.7809 48.1179C65.7809 48.1179 65.4977 48.1179 65.6142 48.0015C65.7306 47.885 65.4474 47.8027 65.1985 47.652C64.9495 47.5013 64.9998 47.7845 64.833 47.8027C64.6663 47.8187 64.6161 47.8027 64.4333 47.7023C64.2506 47.6018 64.6663 47.5355 64.6663 47.5355C64.6663 47.5355 65.2487 47.4693 65.315 47.419C65.3812 47.3688 65.2647 47.3528 65.066 47.2363C64.8673 47.1198 64.9153 47.2203 64.7988 47.0856C64.6823 46.9531 64.5498 46.8366 64.3488 46.8024C64.1501 46.7681 64.2666 46.6859 64.2666 46.5854C64.2666 46.4849 64.2666 46.4849 64.0839 46.3364C63.9012 46.1857 63.8007 46.204 63.7847 46.1195C63.7687 46.0372 63.9012 45.5211 63.9012 45.5211C63.9012 45.5211 63.835 45.2059 63.7345 45.1214C63.634 45.0392 63.8007 44.9227 63.8007 44.7217C63.8007 44.523 63.9012 44.3562 63.9012 44.306C63.9012 44.2558 63.8669 44.0411 63.5015 43.4975C63.1361 42.9562 63.618 43.4906 63.7185 43.1069C63.819 42.7255 63.2868 42.376 63.2206 42.376C63.1543 42.376 63.1863 42.6433 62.9533 42.9082C62.7204 43.1732 62.9876 43.2074 62.4554 43.4975C62.0946 43.6939 62.2065 43.6825 62.2453 43.6733C62.2567 43.6711 62.2613 43.6688 62.2453 43.6733C62.2362 43.6756 62.2179 43.6802 62.1905 43.6893C61.9575 43.7556 61.8913 43.9383 61.6423 44.0228C61.3934 44.105 61.3591 44.322 61.165 44.2717C60.9709 44.2215 61.0257 44.0045 60.9937 43.8903C60.9594 43.7738 61.0439 43.5751 60.827 43.1754C60.61 42.7757 61.0759 42.7438 61.0759 42.4925C61.0759 42.2436 61.0759 42.2436 61.1422 41.8439C61.2084 41.4442 61.1422 41.8439 60.6922 41.7274C60.2423 41.6109 60.61 41.346 60.5255 40.9965C60.4433 40.6471 60.4433 40.8801 60.176 40.6928C59.9088 40.5055 60.0253 40.5968 59.6781 40.3159C59.3287 40.035 59.4109 40.3639 59.05 40.3159C58.6892 40.268 58.8628 40.2817 58.7623 40.2474C58.6618 40.2131 58.5293 40.1971 58.3763 40.1469C58.2233 40.0967 57.9469 40.2634 57.8807 40.3136C57.8144 40.3639 58.0794 40.6791 58.0131 41.0102C57.9469 41.3437 58.0131 41.161 57.8464 41.3757C57.6797 41.5926 57.9126 41.6589 58.0291 42.0906C58.1456 42.5222 57.9949 42.2733 57.6797 42.5062C57.3645 42.7392 57.7139 42.6067 57.1703 42.9882C56.6268 43.3696 57.1635 43.2211 57.1703 43.4038C57.1772 43.5865 57.28 43.7693 57.5632 43.92C57.8464 44.0708 57.1818 44.5344 57.1818 44.7011C57.1818 44.8679 57.1315 44.8998 57.1475 45.2493C57.1635 45.5987 57.1978 45.5325 56.7318 45.6307C56.2659 45.7312 56.7158 45.7312 56.3984 45.8134C56.0832 45.8956 56.2659 46.0304 56.1152 46.2793C55.9644 46.5283 56.0329 46.3136 55.7657 46.3958C55.4985 46.4781 55.6995 46.4781 55.615 46.6288C55.5327 46.7795 55.615 46.8458 55.4825 47.1267C55.35 47.4099 55.4322 47.3597 55.4322 47.6748C55.4322 47.99 55.398 47.8576 55.382 48.1065C55.366 48.3555 55.4482 48.3052 55.3317 48.6547C55.2153 49.0041 55.0988 48.7369 55.0988 49.0544C55.0988 49.3695 54.9823 49.2873 54.5324 49.1549C54.0824 49.0224 54.4821 49.0224 54.4479 48.8557C54.4113 48.6889 54.2834 48.5884 54.2172 48.4902C54.1509 48.3897 54.2012 48.2573 54.0504 47.9923C53.8997 47.7251 54.2012 47.8096 54.2492 47.7091C54.2994 47.6086 54.5324 47.4921 54.4456 47.3277C54.3611 47.161 54.2811 46.912 54.0162 46.5785C53.7512 46.2451 54.2149 46.3616 54.3496 46.1971C54.4821 46.0304 54.3154 46.0647 54.1829 46.0076C54.0504 45.9505 53.8837 45.8979 53.717 45.9642C53.5503 46.0304 53.2351 46.0304 53.1688 45.8819C53.1026 45.7312 53.2031 45.7563 52.7029 45.4822C52.205 45.2082 52.4037 45.2835 52.1045 45.0825C51.8053 44.8838 51.7551 44.8336 51.481 44.4841C51.2069 44.1347 51.2572 44.3585 50.9328 44.3106C50.6085 44.2603 50.3596 44.3106 50.2339 44.3106C50.1083 44.3106 50.3344 44.137 50.5583 43.687C50.7821 43.2371 50.3093 43.0635 50.4075 42.8877C50.508 42.7141 50.2339 42.8123 49.9576 42.6387C49.6812 42.4651 50.0352 42.3898 49.985 42.1636C49.9347 41.9398 49.9599 41.9398 50.0101 41.7388C50.0604 41.5401 49.9347 41.515 50.0101 41.1633C50.0855 40.8115 50.6085 40.9166 50.5583 40.4918C50.508 40.067 51.0333 40.0167 51.2823 39.6992C51.5312 39.3818 51.9058 39.7426 51.9058 39.6992C51.9058 39.6558 52.1548 39.5691 52.5042 39.4571C52.8536 39.3452 52.7532 38.9958 52.6047 38.845C52.454 38.6943 52.0063 38.6715 52.0063 38.6715C52.0063 38.6715 52.157 38.2718 52.2301 38.2969C52.3055 38.322 52.8788 38.5207 53.0295 38.4476C53.1803 38.3723 53.4041 38.1987 53.4292 38.1233C53.4543 38.0479 53.5799 38.2489 53.8038 38.322C54.0276 38.3974 54.0779 38.2718 54.1532 38.1964C54.2286 38.121 54.2537 37.8972 54.2035 37.6985C54.1532 37.4998 54.5027 37.4747 54.7516 37.3239C55.0006 37.1732 54.6763 36.9745 54.6763 36.9745L54.3017 36.4766C54.3017 36.4766 54.9503 36.826 55.1399 36.7004C55.3295 36.5748 55.3751 36.5999 55.414 36.5999C55.4528 36.5999 55.4985 36.0769 55.414 35.9513C55.3295 35.8256 56.0101 36.1248 56.0101 36.1248C56.0101 36.1248 56.3481 35.7251 56.6724 35.7114C56.9968 35.6977 56.9716 36.424 57.1681 36.5999C57.1681 36.5999 57.5449 36.351 57.4878 36.102C57.4307 35.853 58.2438 35.7274 58.3717 35.1861C58.4996 34.6448 58.3169 34.8298 58.2027 34.654C58.0885 34.4781 58.591 34.2314 58.9655 33.6833C59.3401 33.1351 58.2666 33.5577 58.2027 33.2722C58.1387 32.9867 58.1684 32.9341 58.0931 32.8108C58.0177 32.6852 57.6203 32.9844 57.4878 33.0712C57.3553 33.158 57.1201 33.2836 56.9716 33.5097C56.8209 33.7335 57.0219 34.1081 56.5171 34.469C56.0124 34.8298 56.1974 35.2318 55.8434 35.1861C55.4871 35.1404 56.0238 34.6334 56.0101 34.3342C55.9964 34.035 55.9987 33.9094 56.2727 33.6856C56.5445 33.4617 56.074 33.2859 56.0101 33.2745C55.9461 33.263 55.3021 33.5097 55.414 33.3864C55.5282 33.2607 55.4505 32.9867 55.414 32.8382C55.3774 32.6875 55.1742 32.539 55.1399 32.0411C55.1056 31.5432 55.3751 31.8904 54.9412 31.4541C54.5072 31.0179 55.1513 30.7689 55.2495 30.5428C55.35 30.319 55.4734 29.8188 55.414 29.6201C55.3523 29.4214 54.4775 29.8439 54.0299 30.0541C53.5822 30.2665 53.854 30.4903 53.6553 30.6913C53.4566 30.89 53.4064 31.0156 53.3972 31.2897C53.3881 31.5638 53.6553 31.5889 53.3972 31.7876C53.1391 31.9863 53.5799 32.0365 53.8906 32.2604C54.2012 32.4842 53.9043 32.386 53.8906 32.5116C53.8769 32.6372 53.9043 32.6372 53.8563 32.8359C53.8061 33.0346 53.9568 33.1854 53.8563 33.2745C53.7558 33.3635 53.6576 33.5097 53.082 33.8089C52.5088 34.1081 53.1254 34.4553 52.7623 34.469C52.4425 34.4804 52.5453 34.67 52.3329 34.5946C52.1205 34.5192 52.3215 34.4575 52.3215 34.3708C52.3215 34.284 52.3466 34.2588 52.3101 34.1972C52.2735 34.1355 52.2849 33.9848 52.2484 33.9094C52.2119 33.834 52.4722 33.8728 52.5773 33.7586C52.6801 33.6467 52.623 33.5851 52.5773 33.5462C52.5316 33.5097 52.3375 33.3841 52.2872 33.3338C52.237 33.2836 52.3124 33.1717 52.1365 33.0712C51.9629 32.9707 51.9743 33.0232 51.9378 33.0712C51.9012 33.1191 51.8373 33.11 51.7254 33.1465C51.6135 33.1831 51.6386 33.2333 51.4947 33.3453C51.4033 33.4161 51.4307 33.4435 51.4422 33.448C51.4467 33.4503 51.449 33.4503 51.4422 33.448C51.4376 33.448 51.433 33.4457 51.4239 33.4435C51.3485 33.432 51.3873 33.5303 51.2983 33.5942C51.2115 33.6559 51.1727 33.6307 51.0607 33.6056C50.9488 33.5805 50.9602 33.5805 50.8369 33.48C50.7113 33.3795 50.7364 33.4183 50.5491 33.4686C50.3618 33.5188 50.4235 33.6056 50.2613 33.5942C50.0992 33.5828 50.1997 33.5942 49.9484 33.5188C49.6995 33.4435 49.848 33.432 49.848 33.3932C49.848 33.3544 49.7109 33.2676 49.5739 33.2059C49.4368 33.1443 49.5488 33.1191 49.462 33.0689C49.3752 33.0186 49.3866 32.9456 49.076 32.8451C48.7631 32.7446 49.1628 32.7332 49.1262 32.6829C49.0897 32.6327 48.9024 32.4454 48.9526 32.4339C49.0029 32.4225 49.0394 32.185 49.0394 32.185C49.0394 32.185 48.9389 32.0982 48.7402 32.0365C48.5415 31.9749 48.5529 31.936 48.4662 31.936C48.3794 31.936 48.2926 31.9246 48.1304 31.9726C47.9682 32.0228 48.0436 32.0845 47.9568 32.1233C47.87 32.1599 47.8061 32.2855 47.9317 32.2604C48.0573 32.2352 48.4433 32.2741 48.5438 32.2604C48.6443 32.2467 48.5552 32.3243 48.5073 32.3974C48.457 32.4728 48.457 32.4979 48.1829 32.5344C47.9089 32.571 48.0961 32.5961 47.8586 32.6098C47.6211 32.6212 47.7581 32.7834 47.6211 33.0712C47.484 33.3567 47.4475 33.2585 47.4338 33.4457C47.4224 33.633 47.3836 33.8706 47.2716 33.9437C47.1597 34.0167 47.1597 33.8569 47.1346 33.7564C47.1095 33.6559 47.1095 33.5577 47.0227 33.3064C46.9359 33.0575 46.9359 33.1328 46.9222 33.0072C46.9108 32.8816 46.9222 32.7194 46.9222 32.7194C46.9222 32.7194 46.9222 32.5207 46.5111 32.37C46.1 32.2193 46.4243 32.4956 46.0611 32.5938C45.7003 32.6943 45.8236 32.4568 45.5039 32.3814C45.1841 32.306 45.2275 32.2558 44.8278 32.2558C44.4281 32.2558 44.6542 31.783 44.6542 31.7077C44.6542 31.6323 44.9785 31.6072 45.0288 31.445C45.079 31.2828 44.9283 31.2577 44.9283 31.1595C44.9283 31.059 44.8278 30.9859 44.7045 30.8603C44.5788 30.7347 44.4304 30.6365 44.4053 30.5611C44.3801 30.4857 44.0558 30.3624 43.8571 30.3121C43.6584 30.2619 43.2587 29.9627 43.2587 29.7891C43.2587 29.6155 42.9344 29.4899 42.7836 29.4899C42.6329 29.4899 42.2857 29.3894 42.0848 29.2067C41.8861 29.0217 41.8107 29.3666 41.4612 29.2067C41.1118 29.0468 41.2123 28.8915 41.2123 28.8162C41.2123 28.7408 41.7102 28.3662 41.5366 28.0259C41.363 27.6856 41.3859 27.7678 40.9382 27.9871C40.4883 28.2063 40.8126 28.2657 40.4152 28.3913C40.0155 28.517 40.2896 28.5421 39.9173 28.6905C39.5427 28.8413 39.2184 29.04 38.62 29.0674C38.0216 29.0948 38.6954 28.5421 38.8187 28.5421C38.9443 28.5421 39.6181 28.517 39.666 28.4416C39.7163 28.3662 39.915 27.9871 39.915 27.9871C39.915 27.9871 39.6409 27.7678 39.2161 28.0259C38.7913 28.284 38.6428 28.2657 38.2934 28.1675C37.9439 28.0693 37.8937 28.2429 37.7452 28.3662C37.5945 28.4918 37.5716 28.7659 37.1971 28.8413C37.0395 28.8733 36.9778 28.8915 36.955 28.9052C36.9641 28.9189 36.971 28.9281 36.971 28.9281C36.971 28.9281 36.923 28.9235 36.955 28.9052C36.9207 28.8595 36.8476 28.7522 36.8476 28.7042C36.8476 28.6426 36.786 28.517 36.5735 28.3548C36.3611 28.1926 36.4365 28.1675 36.3863 28.0807C36.336 27.9939 36.4114 27.8569 36.3748 27.7929C36.3383 27.7313 36.2629 27.6559 35.6394 27.3818C35.0159 27.1077 35.628 27.1077 35.2032 26.8085C34.7784 26.5093 35.1918 26.6532 35.0227 26.4728C34.8537 26.2924 35.0593 26.3289 34.872 26.2056C34.6847 26.08 34.6093 26.2809 34.3741 26.2741C34.1366 26.2672 34.269 26.1485 34.2553 26.1051C34.2439 26.0617 34.0863 25.9612 33.931 25.9109C33.7757 25.8607 33.6318 25.8607 33.5633 25.8173C33.4948 25.7739 33.513 25.7374 33.2504 25.7122C32.9877 25.6871 33.1567 25.5135 33.1202 25.4747C33.0837 25.4382 33.0631 25.4427 32.9261 25.2806C32.789 25.1184 32.9512 25.1367 32.9626 25.1001C32.974 25.0636 32.9192 24.97 32.8575 24.9631C32.7959 24.9563 32.4761 25.059 32.2432 25.0248C32.0102 24.9905 32.1427 24.8078 32.1107 24.6753C32.0764 24.5429 32.0102 24.5246 32.0285 24.4081C32.0444 24.2916 31.9462 24.1409 31.912 23.9582C31.8777 23.7754 31.7293 23.9924 31.4803 23.9924C31.2314 23.9924 31.3638 23.8097 31.2816 23.7092C31.1994 23.6087 31.0486 23.7914 30.8819 23.7435C30.7152 23.6932 30.7654 23.5607 30.7814 23.394C30.7974 23.2273 31.0304 23.2615 30.8636 22.8778C30.6969 22.4964 30.6809 23.0606 30.3315 23.1633C29.982 23.2661 30.0483 23.2593 29.8336 23.193C29.6166 23.1268 29.6828 23.193 29.2352 23.193C28.7852 23.193 29.0844 23.2753 29.0844 23.5082C29.0844 23.7412 29.0182 23.6909 28.9337 23.7914C28.8515 23.8919 28.5683 23.9422 28.5683 23.7412C28.5683 23.5425 28.3513 23.7412 28.1366 23.6247C27.9196 23.5082 27.9196 23.7572 27.6866 23.8919C27.4537 24.0244 27.5199 24.0427 27.2207 24.1249C26.9215 24.2071 27.022 24.3921 26.9055 24.4241C26.789 24.4583 26.7228 24.4903 26.3071 24.5246C25.8914 24.5588 26.1564 24.7735 25.9737 24.89C25.791 25.0065 25.542 24.9243 25.3753 24.8078C25.2085 24.6913 25.2085 24.7575 24.9596 24.8078C24.7106 24.858 24.7769 24.9243 24.5096 25.123C24.2424 25.3217 24.6764 25.4564 24.6764 25.6711C24.6764 25.8881 24.5599 25.9543 24.6261 26.169C24.6924 26.386 24.6353 26.386 24.6764 26.5596C24.7175 26.7332 24.7335 26.7332 24.7106 26.8588C24.6855 26.9844 24.6284 27.0255 24.5119 27.1671C24.3955 27.3087 24.6124 27.2745 24.5782 27.2996C24.5439 27.3247 24.6193 27.4412 24.7289 27.5234C24.8363 27.6056 24.754 27.5897 24.786 27.5988C24.8203 27.6079 25.0098 27.6559 25.0281 27.7153C25.0441 27.7724 25.003 27.7975 24.9368 27.866C24.8705 27.9323 24.9208 27.9574 24.9025 28.1058C24.8842 28.2543 25.0692 28.2132 25.2177 28.2132C25.3661 28.2132 25.0441 28.421 25.0669 28.421C25.0921 28.421 25.2177 28.638 25.0007 28.5466C24.7837 28.4553 24.9093 28.5558 24.7814 28.67C24.6535 28.7842 24.7814 28.67 24.7243 28.638C24.6672 28.606 24.6558 28.6494 24.5942 28.67C24.5325 28.6882 24.5325 28.7316 24.4937 28.8755C24.4571 29.0194 24.4434 28.9007 24.295 28.839C24.1442 28.7773 24.215 28.839 24.0643 28.7887C23.9135 28.7385 24.0529 28.7385 23.9592 28.6586C23.8656 28.5786 23.829 28.6951 23.6966 28.6334C23.5664 28.5718 23.6966 28.6334 23.6029 28.5512C23.5093 28.4713 23.6851 28.4644 23.6714 28.3388C23.66 28.2132 23.7217 28.1881 23.7514 28.1584C23.7833 28.1264 23.8564 27.9848 23.8199 27.9163C23.7833 27.8477 23.6006 28.0213 23.5321 28.0213C23.4636 28.0213 23.4636 27.9711 23.2398 27.8957C23.0159 27.8203 23.1781 27.9026 23.0593 27.9391C22.9406 27.9757 22.9406 28.0396 22.8858 28.0579C22.8287 28.0761 22.8035 28.0579 22.6368 28.0579C22.4678 28.0579 22.518 28.115 22.3924 28.1081C22.2668 28.1013 22.3559 28.1264 22.1252 28.1401C21.8945 28.1515 21.9699 28.3274 21.8077 28.2954C21.6456 28.2634 21.7278 28.332 21.577 28.4256C21.4263 28.5192 21.5656 28.4873 21.4331 28.638C21.303 28.7887 21.5588 28.8367 21.6067 28.807C21.657 28.775 22.3125 29.4625 22.2303 29.3963C22.148 29.33 21.9813 29.2295 21.9151 29.2295C21.8488 29.2295 21.5656 29.362 21.3486 29.5607C21.1317 29.7594 21.5976 29.7434 21.4811 29.8782C21.3646 30.0107 21.6638 30.2436 21.947 30.1112C22.2303 29.9787 21.8146 30.2276 21.8306 30.2779C21.8465 30.3281 22.196 30.4446 22.3125 30.4104C22.429 30.3761 23.2283 30.4606 23.2603 30.4104C23.2946 30.3601 23.5435 30.2117 23.5435 30.2117C23.5435 30.2117 23.8427 30.5771 23.7765 30.6113C23.7103 30.6456 23.644 30.8101 23.5778 31.0613C23.5116 31.3125 23.5116 31.2783 23.3448 31.3947C23.1781 31.5112 23.1941 31.6117 22.8287 31.8927C22.4632 32.1759 22.5797 31.8835 22.5614 31.8584C22.5454 31.8333 22.4358 31.767 22.2371 31.767C22.0384 31.767 22.212 31.8744 22.0864 31.8493C21.9607 31.8241 22.0041 31.8904 21.8945 31.9497C21.7872 32.0068 21.7209 32.0502 21.5953 32.0754C21.4697 32.1005 21.4446 32.0754 21.3121 31.9931C21.1796 31.9109 21.271 32.0023 21.1796 32.0274C21.0883 32.0525 21.1545 32.2604 20.8393 32.1781C20.5241 32.0959 20.8736 32.3517 20.8142 32.4933C20.7571 32.6349 20.6817 32.5185 20.6475 32.4682C20.6132 32.418 20.5904 32.386 20.4967 32.402C20.4031 32.418 20.3962 32.5596 20.3643 32.692C20.33 32.8245 20.2135 32.7263 20.0491 32.7491C19.8823 32.7743 19.775 33.1397 19.7499 33.247C19.7247 33.3544 19.7088 33.3475 19.6585 33.4549C19.6083 33.5622 19.5831 33.6627 19.558 33.7449C19.5329 33.8272 19.8572 33.8957 19.7567 33.9939C19.6562 34.0944 19.8389 34.2177 19.8481 34.1858C19.8572 34.1515 20.2546 34.1949 20.2546 34.1949C20.2546 34.1949 20.0879 34.3867 20.081 34.4119C20.0719 34.437 19.9075 34.5192 19.7065 34.4279C19.5078 34.3365 19.5557 34.3867 19.3913 34.437C19.2246 34.4872 19.4484 34.7202 19.4324 34.8527C19.4164 34.9851 19.4415 35.0514 19.3753 35.177C19.3091 35.3026 19.7247 35.4191 19.7659 35.3186C19.807 35.2181 19.8983 35.2432 19.9646 35.2684C20.0308 35.2935 20.2478 35.1861 20.3802 34.9783C20.5127 34.7704 20.6475 35.0125 20.6132 35.1039C20.5789 35.1953 20.3962 35.2295 20.4214 35.3277C20.4465 35.4282 20.4214 35.5196 20.3802 35.6178C20.3391 35.7183 20.3551 35.901 20.33 35.9079C20.3049 35.917 20.2478 35.9992 20.0628 36.3487C19.8801 36.6981 20.2364 36.4857 20.1701 36.5222C20.1039 36.5588 20.1747 36.609 20.1998 36.689C20.2249 36.7689 20.0879 36.8055 19.9052 36.9082C19.7225 37.0133 20.0514 37.0042 20.129 36.9334C20.2067 36.8626 20.2364 36.8283 20.2615 36.7621C20.2866 36.6958 20.3688 36.7415 20.3825 36.7529C20.3939 36.7643 20.5607 36.6867 20.6109 36.6364C20.6612 36.5862 20.6977 36.7027 20.6726 36.7369C20.6475 36.7712 20.684 36.9334 20.7228 37.0042C20.7594 37.075 20.7525 36.9334 20.7799 36.842C20.8096 36.7506 20.9056 36.9288 20.8964 36.9745C20.8873 37.0202 20.9512 37.1001 20.9307 37.1983C20.9101 37.2988 21.0129 37.4518 21.0266 37.4404C21.038 37.429 21.0677 37.4153 21.0677 37.3742C21.0677 37.3331 21.0106 37.1298 21.3098 37.0133C21.609 36.8968 21.4263 37.3285 21.6593 37.2303C21.8922 37.1298 21.8762 37.4473 21.7255 37.5637C21.5748 37.6802 21.6593 37.9452 21.5268 38.1119C21.3943 38.2786 21.2778 38.2946 20.9946 38.2946C20.7114 38.2946 20.8622 38.4271 20.4625 38.5778C20.0628 38.7286 20.3962 38.6783 20.1633 38.7948C19.9303 38.9113 20.0308 38.9273 19.6973 38.8953C19.3639 38.861 19.6151 39.4937 19.4644 39.5439C19.3136 39.5942 19.2154 39.7107 18.9825 39.6262C18.7495 39.5439 18.9162 39.6764 18.7335 39.6924C18.5508 39.7084 18.601 40.0076 18.2173 40.0076C17.8359 40.0076 18.0346 40.3068 17.7354 40.3068C17.4362 40.3068 17.4979 40.4941 17.121 40.5238C16.7419 40.5512 16.8218 40.7567 16.9886 40.7407C17.1553 40.7247 17.322 40.6905 17.354 40.6242C17.3882 40.558 17.3882 40.5238 17.571 40.4735C17.7537 40.4233 18.0209 40.5397 18.0369 40.4895C18.0529 40.4392 18.4183 40.389 18.4686 40.3068C18.5188 40.2246 18.9847 40.357 19.067 40.1081C19.1492 39.8591 19.3502 40.0076 19.3502 39.9094C19.3502 39.8112 19.6494 39.9596 20.298 39.5439C20.9467 39.1283 20.7959 39.4115 20.8644 39.327C20.9307 39.2447 21.3966 39.1602 21.3966 38.9775C21.3966 38.7948 21.8625 38.8108 21.995 38.6441C22.1275 38.4773 22.3445 38.3951 22.6277 38.2626C22.9109 38.1302 23.1941 38.0297 23.1941 37.831C23.1941 37.6323 23.5093 37.6642 23.4773 37.5477C23.443 37.4313 23.3951 37.1983 23.3951 37.0978C23.3951 36.9973 24.0597 37.0635 24.0597 36.9813C24.0597 36.8991 24.4594 36.8146 24.4754 36.6479C24.4914 36.4811 24.7586 36.5656 24.4411 36.166C24.1259 35.7663 24.7906 35.9672 24.7495 35.8667C24.7084 35.7663 25.59 35.6338 25.7727 35.5675C25.9554 35.5013 26.0559 35.8005 26.0216 35.8827C25.9874 35.965 25.9394 36.0495 25.7727 36.0814C25.606 36.1134 25.6402 36.2139 25.4072 36.2139C25.1743 36.2139 25.3913 36.3966 25.3913 36.3966C25.3913 36.3966 25.124 36.3966 25.0761 36.6798C25.0258 36.9631 25.0098 36.8785 24.8088 36.979C24.6101 37.0795 24.9756 37.3125 25.0921 37.2463C25.2085 37.18 25.558 37.212 25.558 37.164C25.558 37.1138 25.8732 37.0133 26.1404 37.0133C26.4076 37.0133 26.4556 37.0133 26.5218 36.9311C26.5881 36.8489 26.5401 36.2322 26.5218 35.933C26.5058 35.6338 26.7205 35.8987 26.7205 35.8987C26.7205 35.8987 26.8713 36.1637 26.9375 36.1979C27.0037 36.2322 27.2207 36.3487 27.271 36.4149C27.3212 36.4811 27.8374 36.5474 27.8534 36.5976C27.8694 36.6479 28.285 37.0293 28.285 37.0293C28.285 37.0293 28.0521 37.3445 28.1183 37.3627C28.1845 37.3787 28.534 37.413 28.534 37.413C28.534 37.413 28.8834 37.4632 28.9839 37.4632C29.0844 37.4632 29.2671 37.63 29.2831 37.7305C29.2991 37.831 29.7651 37.9292 29.9318 37.8812C30.0985 37.831 29.998 37.9817 30.3475 38.0479C30.6969 38.1142 30.448 38.5299 30.5462 38.7126C30.6467 38.8953 30.3475 39.1625 30.3475 39.2287C30.3475 39.295 30.7472 39.7952 30.7472 39.7952C30.7472 39.7952 30.9961 40.0784 31.1126 40.1606C31.2291 40.2428 31.1126 40.3273 31.1126 40.3273C31.1126 40.3273 31.3296 40.5603 31.3456 40.6425C31.3615 40.7247 31.6128 40.9257 31.6288 40.976C31.6448 41.0262 31.663 41.2089 31.5625 41.4579C31.462 41.7068 31.663 41.6566 31.695 41.6566C31.727 41.6566 31.711 41.8233 31.695 41.9238C31.679 42.0243 32.2774 42.191 32.3277 42.207C32.3779 42.223 32.2454 42.5405 32.3277 42.5222C32.4099 42.5062 32.2272 42.8214 32.4282 42.7552C32.6269 42.689 32.6451 42.8557 32.4784 43.0886C32.3117 43.3216 32.6291 43.5386 32.6291 43.5386C32.6291 43.5386 32.4464 44.2877 32.4304 44.338C32.4144 44.3882 32.1312 44.5869 32.1153 44.8701C32.0993 45.1534 32.6634 45.2196 32.6817 45.3018C32.6977 45.384 32.6817 45.6353 32.6657 45.7997C32.6497 45.9664 32.6817 46.2497 32.7479 46.3661C32.8141 46.4826 32.5972 46.6653 32.6314 46.7978C32.6657 46.9303 32.7822 47.081 32.7822 47.1313C32.7822 47.1815 33.497 47.4807 33.5313 47.5469C33.5656 47.6132 33.4811 48.0448 33.4651 48.2299C33.4491 48.4126 34.2302 48.778 34.2462 48.8282C34.2622 48.8785 34.3124 49.3102 34.3969 49.7418C34.4792 50.1735 33.8145 50.025 33.6158 49.9588C33.4171 49.8926 33.5816 49.6596 33.5656 49.5774C33.5496 49.4952 33.3669 49.4952 33.1156 49.6939C32.8667 49.8926 33.2664 50.21 33.2664 50.21C33.2664 50.21 33.0494 50.9912 32.9672 51.0254C32.8849 51.0597 32.8507 51.4068 32.684 51.8065C32.5172 52.2062 32.6017 52.156 32.467 52.2725C32.3345 52.389 32.3848 52.4552 32.0673 52.7041C31.7521 52.9531 32.3665 53.0696 32.218 53.3368C32.0673 53.604 32.234 53.636 32.0856 54.0197C31.9348 54.4011 32.2363 54.4194 32.218 54.5016C32.202 54.5838 32.1358 54.6524 31.8846 55.084C31.6356 55.5157 31.9188 55.317 31.8092 55.55C31.6996 55.7829 31.8846 55.7487 31.8183 55.9656C31.7521 56.1826 32.0513 56.4635 32.1015 56.7308C32.1518 56.998 32.1678 56.9637 32.218 57.1122C32.2683 57.2629 32.218 57.1122 32.1838 57.1624C32.1495 57.2127 32.25 57.4114 32.1998 57.5781C32.1495 57.7448 32.3162 57.9276 32.234 58.1925C32.1518 58.4597 32.4327 58.3432 32.1015 58.542C31.7681 58.7407 32.5515 58.9416 32.5172 59.1404C32.483 59.3391 32.5515 59.4555 32.7845 59.5309C33.0174 59.6063 33.0837 59.588 33.0837 59.7045C33.0837 59.821 33.4993 60.0037 33.7985 60.0699C34.0977 60.1362 34.18 60.6021 34.18 60.6021C34.18 60.6021 34.18 60.8191 34.18 61.0018C34.18 61.1845 34.2804 61.301 34.2622 61.3832C34.2462 61.4654 34.4951 61.6824 34.4951 62.0159C34.4951 62.3493 34.4951 62.4156 34.4951 62.4818C34.4951 62.548 34.8446 62.6645 34.7806 62.7148C34.7167 62.765 35.0433 63.0482 35.0776 63.2469C35.1118 63.4456 35.0776 63.4456 34.8788 63.5301C34.6801 63.6124 34.8446 63.8133 34.8788 64.0463C34.9131 64.2793 34.9953 64.1125 34.9953 64.1125C34.9953 64.1125 35.7605 64.5945 35.8107 64.7452C35.861 64.8959 35.8107 64.8617 35.8107 64.8617C35.8107 64.8617 35.9934 65.0946 35.9112 65.4076C35.829 65.7205 36.0619 65.6428 36.1282 65.7935C36.1944 65.9443 36.4114 66.0608 36.5439 66.1932C36.6763 66.3257 36.8271 66.4765 36.859 66.6911C36.8933 66.9081 37.0578 66.6911 37.076 66.5747C37.092 66.4582 37.092 66.3577 37.0258 66.175C36.9595 65.9922 36.8933 66.0585 36.7928 66.0082C36.6923 65.958 36.7106 65.8095 36.6261 65.6428C36.5439 65.4761 36.5918 65.4441 36.4936 65.2111C36.3931 64.9782 36.4936 64.9622 36.4776 64.8777C36.4616 64.7932 36.4114 64.695 36.3611 64.6104C36.3109 64.5282 36.2287 64.3432 36.1624 64.229C36.0962 64.1125 36.1122 64.0966 36.046 63.9961C35.9797 63.8956 35.7787 63.7631 35.797 63.6626C35.813 63.5621 35.6965 63.6283 35.6303 63.6283C35.564 63.6283 35.6143 63.4959 35.58 63.3132C35.5458 63.1304 35.5138 63.0299 35.3471 62.8975C35.1803 62.765 35.3471 62.7467 35.2808 62.6645C35.2146 62.5823 35.2466 62.5138 35.1803 62.4156C35.1141 62.3151 35.5138 62.1164 35.5138 62.0661C35.5138 62.0159 35.3631 61.6002 35.3631 61.6002C35.3631 61.6002 35.6622 61.6162 35.7445 61.6344C35.8267 61.6504 36.0277 61.9177 35.9934 62.0844C35.9592 62.2511 36.3931 62.3333 36.4068 62.5001C36.4228 62.6668 36.3908 62.733 36.4068 62.8153C36.4228 62.8975 36.5073 62.8975 36.4251 63.1807C36.3429 63.4639 36.5576 63.2629 36.7403 63.5301C36.923 63.7974 36.923 63.6809 37.1217 63.9961C37.3204 64.3112 37.3044 64.3113 37.4049 64.478C37.5054 64.6447 37.3889 64.6287 37.4049 64.8594C37.4209 65.0924 37.4392 65.0764 37.5374 65.2408C37.6356 65.4053 37.7703 65.524 37.7863 65.6565C37.8023 65.789 38.0193 65.99 38.1198 66.1544C38.2203 66.3211 38.2203 66.4536 38.2363 66.6044C38.2523 66.7551 38.8347 67.0543 38.8187 67.1708C38.8027 67.2873 39.3349 67.3695 39.2686 67.5202C39.2024 67.671 39.1179 68.0866 39.0699 68.2191C39.0197 68.3516 39.4034 68.4521 39.5016 68.6005C39.6021 68.7513 39.7848 69.0162 39.8168 69.1989C39.851 69.3816 40.3489 69.3816 40.5317 69.4981C40.7144 69.6146 40.8811 69.5986 41.0638 69.6809C41.2465 69.7631 41.7125 69.9481 41.8632 70.1125C42.014 70.2792 42.1967 70.2792 42.2446 70.3957C42.2949 70.5122 42.6101 70.5282 42.7631 70.5625C42.9161 70.5967 42.9253 70.6789 43.2587 70.8114C43.5922 70.9439 43.6584 70.7292 43.6584 70.7292C43.6584 70.7292 44.1746 70.5305 44.2248 70.4757C44.2751 70.4231 44.4921 70.6287 44.4921 70.6287C44.4921 70.6287 44.7753 70.8274 44.7593 71.0444C44.7433 71.2614 45.2092 71.3276 45.2755 71.476C45.3417 71.6268 46.0748 71.7593 46.0246 71.8415C45.9743 71.9237 46.7235 71.958 46.7235 71.958C46.7235 71.958 47.1552 72.1407 47.2214 72.1407C47.2876 72.1407 47.3881 72.0744 47.7695 72.2229C48.151 72.3736 47.8198 72.3896 48.0025 72.5883C48.1852 72.787 48.1692 72.6888 48.1692 72.9538C48.1692 73.221 48.4524 73.0703 48.7516 73.253C49.0508 73.4357 48.6854 73.4699 48.6694 73.5682C48.6534 73.6687 48.7699 73.7509 48.7699 73.7509L49.2016 73.7851C49.2016 73.7851 49.3843 73.8674 49.3683 74.3173C49.3523 74.7672 49.7497 74.4178 49.8342 74.4178C49.9188 74.4178 50.0512 74.468 50.0512 74.468C50.0512 74.468 50.7661 74.6348 50.7501 74.8015C50.7341 74.9682 50.8666 75.0002 51.248 75.0002C51.6294 75.0002 51.248 75.0002 51.264 74.8837C51.28 74.7672 51.3805 74.7832 51.5472 74.7513C51.714 74.717 51.6135 74.6508 51.497 74.4178C51.3805 74.1848 51.8784 74.3013 52.0131 74.2511C52.0771 74.2282 52.1548 74.2762 52.2187 74.3379C52.2598 74.2648 52.3306 74.194 52.3969 74.1346Z" fill="#39B4EF"/>
<path d="M51.4375 33.4482C51.4421 33.4505 51.4444 33.4482 51.4375 33.4482V33.4482Z" fill="#39B4EF"/>
</svg>
