<svg width="90" height="90" viewBox="0 0 90 90" fill="none" xmlns="http://www.w3.org/2000/svg">
<rect width="90" height="90" rx="45" fill="#E2EDFF"/>
<path d="M47.1906 16.096C47.1177 16.0717 46.8885 16.2488 46.7113 16.3739C46.5342 16.4989 46.3571 16.676 46.3571 16.676C46.3571 16.676 46.1557 16.9538 46.3571 17.0059C46.5585 17.058 46.496 17.1588 46.7287 17.0059C46.9614 16.8531 46.6349 16.6552 47.0135 16.5892C47.3921 16.5267 47.4164 16.1724 47.1906 16.096Z" fill="#39B4EF"/>
<path d="M23.8221 26.1124C24.159 25.8936 23.8221 25.8103 23.8221 25.456C23.8221 25.1018 23.7214 24.8483 23.5929 24.9003C23.4679 24.9524 23.2908 25.1539 23.3637 25.3553C23.4401 25.5567 23.3255 25.7096 23.3463 25.9631C23.3672 26.2131 23.3185 26.4389 23.8221 26.1124Z" fill="#39B4EF"/>
<path d="M24.5819 25.48C24.4499 25.3619 24.252 25.7578 24.252 25.7578C24.252 25.7578 24.3527 25.8099 24.4152 25.8586C24.4777 25.9106 24.4534 25.935 24.5784 25.8586C24.7069 25.7821 24.8076 25.6814 24.5819 25.48Z" fill="#39B4EF"/>
<path d="M52.4499 70.4171C53.0785 70.2816 52.9292 70.0107 53.0056 69.8093C53.082 69.6079 53.2591 69.1529 52.8806 69.2536C52.502 69.3543 52.3735 69.8197 52.2728 69.8267C52.1721 69.8336 52.0193 70.0107 52.0193 70.1114C52.0193 70.2122 51.54 70.3407 51.8421 70.5421C52.1478 70.747 51.8699 70.5456 52.4499 70.4171Z" fill="#39B4EF"/>
<path d="M51.3873 69.5601C51.3873 69.5601 51.3352 69.2823 51.1337 69.4073C50.9323 69.5324 50.8559 69.9352 50.8559 69.9352C50.8559 69.9352 50.5781 70.088 50.8559 70.293C51.1337 70.4944 51.488 70.0116 51.6408 69.9352C51.7936 69.8623 51.5922 69.4837 51.3873 69.5601Z" fill="#39B4EF"/>
<path d="M39.6354 61.3323C39.7501 61.2768 39.8438 60.8392 39.6354 60.8774C39.4271 60.9156 39.2743 60.9711 39.2569 61.2004C39.2395 61.4296 39.2187 61.6935 39.2569 61.7873C39.2951 61.8811 38.9929 62.2631 39.3507 62.3569C39.7118 62.4506 40.014 62.7354 40.014 62.3569C40.014 61.9783 40.0522 62.0547 40.014 61.8637C39.9793 61.6762 39.2951 61.5025 39.6354 61.3323Z" fill="#39B4EF"/>
<path d="M39.9015 63.2114C39.9015 63.2114 39.7487 63.135 39.7695 63.326C39.7869 63.517 39.8633 63.6872 39.9015 63.7636C39.9397 63.84 40.2037 63.9546 40.2037 63.7636C40.2037 63.5726 39.7869 63.4753 39.9015 63.2114Z" fill="#39B4EF"/>
<path d="M42.5557 73.3003C42.1042 73.1058 42.1563 73.1475 41.9479 72.9217C41.7395 72.6925 41.6458 72.314 41.7395 72.3348C41.8333 72.3522 41.9305 72.4112 42.0417 72.4876C42.1563 72.564 42.1181 72.6022 42.3265 72.7342C42.5348 72.8662 42.5557 72.8662 42.7258 72.9982C42.8995 73.1301 42.9099 73.4531 42.5557 73.3003Z" fill="#39B4EF"/>
<path d="M46.5377 74.5333C46.5377 74.5333 46.4995 74.3041 46.2911 74.3249C46.0827 74.3423 45.9681 74.4743 45.7215 74.4291C45.4749 74.384 45.1519 74.3631 45.343 74.5333C45.534 74.7035 45.9125 74.7973 45.9125 74.7973C45.9125 74.7973 45.9125 74.9292 46.0271 74.9674C46.1418 75.0057 46.0827 74.8146 46.4265 74.8737C46.7669 74.9292 46.8815 75.0543 46.9753 74.9744C47.069 74.8945 46.8051 74.6201 47.1072 74.6618C47.4094 74.7035 47.6768 74.7591 47.4476 74.5507C47.2184 74.3423 46.8607 74.1513 46.7634 74.3215C46.6697 74.4986 46.8433 74.516 46.5377 74.5333Z" fill="#39B4EF"/>
<path d="M66.4103 30.1308C66.3096 29.9016 66.3339 29.7245 65.9797 29.2973C65.6254 28.8666 65.5004 29.1202 65.3476 29.0195C65.1948 28.9187 65.1705 28.9951 64.8683 28.8666C64.5662 28.7416 64.5141 28.7138 64.2119 28.5888C63.9098 28.4638 63.9098 28.311 63.4791 27.9845C63.0485 27.658 62.9721 27.9046 62.2149 27.4497C61.4578 26.9947 61.7079 27.3733 61.1279 27.3733C60.5479 27.3733 60.9508 27.3733 60.2944 27.5261C59.638 27.6789 59.763 27.6789 59.5859 27.474C59.4088 27.2725 58.8774 27.2204 58.5996 27.019C58.3217 26.8176 58.4745 26.4633 58.0925 26.2341C57.714 26.0049 57.1305 25.9042 56.877 25.9042C56.6234 25.9042 57.0784 26.057 56.3838 26.1056C55.6857 26.1577 56.3734 26.637 55.9427 26.9148C55.5121 27.1927 55.7656 27.4705 55.4878 27.8491C55.2099 28.2276 55.3349 27.724 55.2342 26.9634C55.1891 26.6161 55.2169 26.5293 55.2446 26.5189C55.2412 26.5154 55.2377 26.512 55.2342 26.5085C55.0814 26.3314 55.2585 26.2793 55.6892 26.0014C56.1198 25.7236 56.4463 25.5951 56.3734 25.4944C56.297 25.3937 55.8663 25.4944 55.1405 25.4944C54.4146 25.4944 55.0814 25.9007 54.0708 26.0744C53.0601 26.2515 54.1472 25.7722 54.3 25.5951C54.4528 25.418 54.3 24.9387 54.3764 24.7616C54.4528 24.5844 55.0849 24.4316 54.7063 24.0045C54.3278 23.5738 55.0363 23.6259 55.1127 23.4488C55.1891 23.2717 55.1891 23.1709 54.4285 22.716C53.6714 22.261 54.6056 22.3617 54.8071 22.0839C55.0085 21.8061 54.3764 22.0075 53.4665 21.9068C52.5566 21.8061 53.4144 21.5768 53.0879 21.0455C52.7615 20.5141 52.8587 21.0455 52.5809 21.0455C52.303 21.0455 52.0009 20.9448 52.0009 20.9448C52.0009 20.9448 52.2301 20.5384 52.1259 20.4134C52.0252 20.2884 51.4417 20.4898 51.4417 20.4898C51.4417 20.4898 51.3167 20.3648 50.8096 20.2363C50.3026 20.1112 50.4797 20.4655 50.1776 20.6426C49.8754 20.8197 49.7226 20.6183 49.6705 20.1633C49.6184 19.7084 49.4691 20.1633 49.1912 20.1633C48.9134 20.1633 48.5591 20.1112 48.4584 19.9619C48.3577 19.8091 48.5835 19.7327 48.5591 19.5312C48.5348 19.3298 47.9514 19.3784 47.8507 19.1006C47.7499 18.8228 47.5485 18.7707 47.5485 18.6109C47.5485 18.4512 46.333 17.8885 46.0829 17.6593C45.8294 17.4301 45.8537 17.4579 45.7043 17.3294C45.5515 17.2043 45.7564 17.1002 45.1244 16.6973C44.4923 16.2909 44.7701 16.8987 44.1623 17.1522C43.5546 17.4058 43.6067 17.3537 43.4295 17.2287C43.2524 17.1036 43.4052 17.0515 42.7211 16.9265C42.0369 16.8015 42.2904 17.18 42.0126 17.0515C41.7347 16.923 40.9498 16.6452 41.0262 16.3187C41.1026 15.9888 40.797 16.3708 40.4949 16.218C40.1927 16.0652 40.4949 16.218 40.217 16.0652C39.9392 15.9124 40.1649 15.7353 39.4078 15.6102C38.6507 15.4852 39.5328 16.3674 39.3835 16.3951C39.2307 16.4195 39.0293 16.6244 38.9772 16.8744C38.9251 17.1279 38.9251 17.6315 38.4458 17.76C37.9665 17.885 38.4215 17.4058 38.3208 17.1279C38.2201 16.8501 38.2687 16.673 38.2687 16.3951C38.2687 16.1173 38.7757 15.8395 38.3694 15.2074C37.9631 14.5753 38.293 15.5616 38.0672 15.8638C37.838 16.1659 37.7651 16.1173 36.9802 16.2423C36.678 16.2909 36.5808 16.3361 36.553 16.3569C36.5287 16.3743 36.553 16.3778 36.553 16.3569C36.553 16.3361 36.5322 16.291 36.4245 16.2145C36.0703 15.961 36.2717 16.3674 35.8167 16.6452C35.3618 16.923 35.6639 16.8223 35.5875 17.1766C35.5111 17.5308 35.6396 17.4544 35.4625 17.5829C35.2854 17.7079 35.3375 17.76 35.209 18.2393C35.0839 18.7186 34.9798 18.6699 34.9554 18.4407C34.9311 18.2115 34.247 18.2879 34.247 18.2879C34.247 18.2879 34.0177 18.1351 34.0177 18.0101C34.0177 17.9233 33.8233 17.8607 33.5732 17.7774C33.4725 17.8677 33.3648 17.9754 33.2676 18.09C33.3752 18.1941 33.4621 18.3227 33.4621 18.3643C33.4621 18.4407 33.1842 18.92 33.2328 19.0485C33.2849 19.1735 33.4343 19.302 33.5871 19.5278C33.7399 19.757 33.917 19.1978 34.1671 19.7813C34.4206 20.3613 34.042 20.212 33.9135 20.5384C33.7885 20.8683 34.2678 21.1705 34.2435 21.5768C34.2192 21.9797 33.9135 22.3617 33.9135 22.3617C33.9135 22.3617 33.1564 23.3238 33.0279 23.5009C32.9029 23.678 32.7987 24.2094 32.5487 24.2094C32.2951 24.2094 32.2951 24.0843 32.1423 24.0843C31.9895 24.0843 32.1944 24.64 32.118 24.7928C32.0416 24.9456 31.6387 25.3242 31.7395 25.477C31.8402 25.6298 31.8645 26.0848 31.9687 26.4112C32.0694 26.7412 31.9687 26.4112 31.538 27.0954C31.1074 27.7796 31.7916 27.0954 32.118 26.9947C32.4479 26.894 32.1423 27.3733 31.8159 27.6789C31.4859 27.981 31.7151 27.856 31.4616 27.8317C31.2081 27.8074 31.3088 28.0609 31.3088 29.0195C31.3088 29.9815 31.4616 29.5265 31.6387 30.1308C31.8159 30.7386 32.7501 30.7108 33.1043 31.0407C33.4586 31.3707 32.8508 31.5721 32.8265 31.902C32.8022 32.232 33.4829 32.6869 33.5836 33.0655C33.6843 33.444 33.8858 33.5448 34.3685 34.1282C34.8478 34.7082 34.8756 34.9374 35.0249 35.6702C35.1777 36.403 35.4799 36.1009 35.7577 35.9724C36.0355 35.8474 36.9212 37.1115 37.0462 37.1115C37.1712 37.1115 37.3761 37.5908 37.5532 37.8964C37.7304 38.1986 38.2096 38.0978 38.4389 38.3028C38.6681 38.5042 38.8695 38.8341 38.9459 38.782C39.0223 38.7299 39.578 38.9071 39.8558 39.4905C40.1337 40.0705 40.2865 40.1747 40.1094 40.8832C39.9322 41.5917 39.6787 42.0223 39.6787 42.2238C39.6787 42.4252 39.8558 43.1094 39.8801 43.4393C39.9045 43.7692 39.9045 44.0957 40.0052 44.2728C40.1059 44.4499 40.0816 44.8285 40.2066 45.2348C40.3316 45.6412 40.1823 45.7419 40.1823 45.992C40.1823 46.2455 40.4601 46.7491 40.3837 47.6104C40.3073 48.4717 40.283 47.7875 40.1059 48.1174C39.9288 48.4474 39.9809 48.7495 40.0816 49.1802C40.1823 49.6108 40.0295 49.7358 39.9809 50.1144C39.9288 50.493 39.7273 50.7708 39.6787 51C39.6266 51.2292 40.0851 51.7571 40.0851 51.8613C40.0851 51.962 40.1858 52.4413 40.1094 52.8997C40.033 53.3547 39.8072 54.2924 39.5016 55.1016C39.1994 55.9108 39.703 55.5323 39.1717 55.9629C38.6403 56.3936 39.2481 56.5186 39.4738 56.9249C39.703 57.3313 39.5259 57.4042 39.5988 58.0363C39.6752 58.6684 39.4738 58.4912 39.2446 58.8976C39.0154 59.3039 39.8246 59.5297 39.8767 59.936C39.9288 60.3424 39.9288 60.391 39.9288 60.5681C39.9288 60.7452 40.4845 60.5924 40.8387 60.6202C41.1929 60.6445 40.9394 61.1273 40.863 61.3287C40.7866 61.5301 40.738 61.9087 40.738 62.2386C40.738 62.5685 40.6129 62.5408 40.9151 62.77C41.2172 62.9992 41.1443 63.1763 40.8908 63.3257C40.6373 63.4785 40.7658 63.6035 40.7137 63.9577C40.6616 64.312 40.4844 64.6905 40.4844 64.6905C40.4844 64.6905 40.4323 64.5377 40.0295 64.3884C39.6231 64.2356 39.9531 64.5134 39.8003 65.1733C39.6475 65.8297 39.9774 65.2983 40.2795 65.2983C40.5817 65.2983 40.4567 65.1976 40.4324 65.4233C40.408 65.6526 40.4323 65.8783 40.408 66.0311C40.3837 66.1839 40.5088 66.4618 40.7866 66.7396C41.0644 67.0174 40.4567 66.941 40.5088 67.1182C40.5609 67.2953 40.8387 67.396 40.863 67.5974C40.8873 67.7989 40.7623 67.9274 40.6616 68.0524C40.5609 68.1774 40.5609 68.3059 40.6373 68.4309C40.7137 68.556 40.8665 68.8095 41.0436 69.0109C41.2207 69.2124 40.9915 69.2645 41.0957 69.5909C41.1964 69.9209 40.9186 69.7437 40.9707 70.098C41.0228 70.4522 41.6548 70.5043 41.7035 70.9072C41.7556 71.3135 41.7278 71.2371 41.8563 71.3135C41.9813 71.3899 42.919 71.8449 42.7766 72.0706C42.6342 72.2999 42.537 72.2721 43.5233 72.3728C44.5096 72.4735 43.2941 72.9042 43.3462 73.2063C43.3983 73.5085 43.8776 73.5085 43.9019 73.3834C43.9262 73.2584 43.954 72.4214 44.1311 72.0429C44.3082 71.6643 44.5374 71.8136 44.461 72.1193C44.3846 72.4214 44.4853 73.2584 44.5617 73.2306C44.6381 73.2063 44.7389 72.7513 45.0931 72.5464C45.4474 72.345 45.1452 72.9007 45.1695 73.1021C45.1938 73.3036 44.916 73.5085 44.8674 73.7342C44.8153 73.9634 44.8153 74.1128 44.8917 74.342C44.9681 74.5712 45.3987 74.342 45.6245 74.0468C45.8537 73.7516 46.6108 74.0884 46.9407 74.0468C47.2707 74.0051 47.3957 74.012 47.5728 74.0398C47.7499 74.0641 48.4584 74.0398 48.4341 73.8384C48.4098 73.637 47.6006 73.4841 47.4721 73.3591C47.3471 73.2341 47.0415 73.1577 46.5101 72.9285C45.9787 72.6993 46.0308 72.5221 45.9023 72.2721C45.7773 72.0185 45.5481 71.9421 45.5481 71.8414C45.5481 71.7407 45.5481 71.5393 45.3466 71.2857C45.1452 71.0322 45.2459 71.185 45.2459 71.0843C45.2459 70.9836 45.1452 70.8829 44.9681 70.7822C44.791 70.6814 45.0445 70.3515 45.0931 70.1744C45.1452 69.9973 45.1695 69.6951 45.2181 69.518C45.2702 69.3409 45.4196 69.3166 45.3189 69.0387C45.2181 68.7609 45.2181 68.3545 45.2424 68.2052C45.2668 68.0524 45.8988 67.7746 45.9752 67.4724C46.0516 67.1703 46.2045 67.0174 46.2774 66.941C46.3538 66.8646 46.6073 66.4097 46.6073 66.4097L46.6837 65.9026L45.8988 65.6005C45.8988 65.6005 45.3188 65.1455 45.0132 64.9441C44.7111 64.7426 45.1383 64.6419 45.1139 64.4648C45.0896 64.2877 45.0375 63.857 45.0132 63.7077C44.9889 63.5549 45.8467 63.6313 45.8467 63.4542C45.8467 63.277 46.201 62.8985 45.9231 62.6206C45.6453 62.3428 46.2253 62.2143 46.3781 62.065C46.5309 61.9121 46.326 61.7871 46.1767 61.3078C46.0239 60.8286 46.9338 61.3078 46.9338 61.3078C46.9338 61.3078 47.2359 61.1064 47.0866 60.8008C46.9338 60.4952 46.9095 60.4743 46.8088 60.6758C46.708 60.8772 46.4545 60.8008 46.1003 60.6758C45.746 60.5507 46.076 60.0958 46.076 59.943C46.076 59.7901 46.1524 59.5887 46.1281 59.488C46.1037 59.3873 46.458 59.2588 46.6073 59.1858C46.7601 59.1094 47.038 59.5401 47.1144 59.6408C47.1908 59.7415 47.6214 59.5887 47.6701 59.5158C47.7222 59.4394 47.8715 58.9358 47.618 58.6823C47.3644 58.4287 47.8958 58.5294 47.9479 58.3523C48 58.1752 47.7187 57.8453 47.7187 57.7723C47.7187 57.6994 47.5659 57.4945 47.8958 57.241C48.2257 56.9874 48.83 57.5188 48.8821 57.366C48.9342 57.2132 49.3892 57.366 49.3892 57.366H50.2505C50.2505 57.366 51.084 56.786 51.0076 56.5568C50.9312 56.3276 51.3375 56.0775 51.3375 56.0011C51.3375 55.9247 51.6154 55.5462 51.0597 55.1398C50.504 54.7335 50.9347 54.7613 50.9347 54.7613C50.9347 54.7613 51.2125 54.3827 51.1639 54.282C51.1118 54.1813 50.3547 53.827 50.254 53.6013C50.1532 53.379 50.379 53.3443 50.4832 53.0143C50.5839 52.6844 51.0146 53.3686 51.0146 53.3686C51.0146 53.3686 52.0009 53.6985 52.2544 53.57C52.5079 53.445 52.8101 53.5457 53.0879 53.3408C53.3658 53.1394 53.6957 52.8615 53.6957 52.5837C53.6957 52.3059 54.175 51.8266 54.2514 51.3959C54.3278 50.9653 55.0085 50.7118 54.9842 50.5624C54.9599 50.4096 54.9842 50.0067 55.6684 49.8296C56.3525 49.6525 55.7691 49.7046 55.7934 49.6282C55.8177 49.5518 56.1233 49.2496 56.224 49.0725C56.3248 48.8954 56.6304 48.4404 56.6304 48.3154C56.6304 48.1904 56.8596 47.4819 56.6304 46.9748C56.4012 46.4678 57.4639 44.8007 57.8945 44.6236C58.3252 44.4465 58.3252 43.9672 58.3738 43.6894C58.4259 43.4115 59.2594 43.1823 59.7144 43.033C60.1693 42.8836 61.3328 43.2344 61.4578 43.033C61.5829 42.8315 62.3921 42.6023 62.3678 42.3002C62.3434 41.998 62.3434 41.6438 62.3921 41.5431C62.4442 41.4423 62.9477 41.036 62.7706 40.8346C62.5935 40.6331 63.0485 40.3275 63.177 40.1261C63.302 39.9246 63.6319 38.7369 63.6076 38.2541C63.5833 37.7749 63.5312 37.9242 63.4826 37.57C63.4305 37.2157 63.3576 37.0907 63.3055 36.66C63.2534 36.2294 63.7118 36.08 63.6354 35.8265C63.559 35.573 64.0661 35.6251 64.2154 35.573C64.3682 35.5209 64.2397 35.0937 64.2675 34.993C64.2918 34.8923 65.0767 34.538 65.5316 34.2845C65.9866 34.031 65.8859 32.4647 66.0109 32.2598C66.1359 32.0583 66.1116 31.652 66.1116 31.5756C66.1116 31.4992 66.5666 30.9435 66.643 30.6657C66.7125 30.36 66.511 30.36 66.4103 30.1308Z" fill="#39B4EF"/>
</svg>
