<svg width="22" height="23" viewBox="0 0 22 23" fill="none" xmlns="http://www.w3.org/2000/svg">
<g clip-path="url(#clip0_31_7670)">
<path fill-rule="evenodd" clip-rule="evenodd" d="M16.5 16.5461H14.2209V12.9793C14.2209 12.1289 14.2058 11.0351 13.0364 11.0351C11.8504 11.0351 11.6696 11.9618 11.6696 12.9188V16.5461H9.39262V9.21183H11.5775V10.2149H11.6091C11.913 9.63808 12.6569 9.02965 13.7658 9.02965C16.0738 9.02965 16.5 10.5483 16.5 12.5235V16.5461ZM6.82275 8.21015C6.09056 8.21015 5.5 7.61752 5.5 6.88808C5.5 6.15865 6.09056 5.56602 6.82275 5.56602C7.5515 5.56602 8.14344 6.15865 8.14344 6.88808C8.14344 7.61752 7.5515 8.21015 6.82275 8.21015ZM7.96263 16.5461H5.68081V9.21183H7.96263V16.5461ZM11 0.0563965C4.92456 0.0563965 0 4.98096 0 11.0564C0 17.1311 4.92456 22.0564 11 22.0564C17.0754 22.0564 22 17.1311 22 11.0564C22 4.98096 17.0754 0.0563965 11 0.0563965Z" fill="#2E78B6"/>
</g>
<defs>
<clipPath id="clip0_31_7670">
<rect width="22" height="22" fill="white" transform="translate(0 0.0563965)"/>
</clipPath>
</defs>
</svg>
