<svg width="604" height="403" viewBox="0 0 604 403" fill="none" xmlns="http://www.w3.org/2000/svg">
<path d="M571.474 273.153C584.899 173.628 517.589 81.0836 419.154 61.5623C405.1 58.7735 389.509 56.3958 372.34 54.7193C273.284 45.0473 198.387 137.737 129.934 164.335C61.4808 190.933 30.0728 187.709 23.6302 273.145C17.1875 358.581 95.3048 385.179 183.891 368.253C272.478 351.327 266.036 306.997 367.508 343.267C468.979 379.537 514.884 387.597 551.124 331.983C561.545 316 568.438 295.681 571.474 273.153Z" fill="#39B4EF"/>
<path opacity="0.7" d="M571.474 273.153C584.899 173.628 517.589 81.0836 419.154 61.5623C405.1 58.7735 389.509 56.3958 372.34 54.7193C273.284 45.0473 198.387 137.737 129.934 164.335C61.4808 190.933 30.0728 187.709 23.6302 273.145C17.1875 358.581 95.3048 385.179 183.891 368.253C272.478 351.327 266.036 306.997 367.508 343.267C468.979 379.537 514.884 387.597 551.124 331.983C561.545 316 568.438 295.681 571.474 273.153Z" fill="white"/>
<path d="M550.01 80.1487C553.586 88.1523 555.575 97.0263 555.575 106.368V297.301H427.148V106.368C427.148 70.8716 455.899 42.0974 491.366 42.0974C515.574 42.0974 536.65 55.5012 547.594 75.3046" stroke="#002E47" stroke-miterlimit="10" stroke-linecap="round" stroke-linejoin="round"/>
<path d="M472.012 62.594C477.963 60.0793 484.502 58.6849 491.364 58.6849C518.818 58.6849 541.077 80.9627 541.077 108.439V296.608" stroke="#002E47" stroke-miterlimit="10" stroke-linecap="round" stroke-linejoin="round"/>
<path d="M441.652 296.608V108.439C441.652 88.9905 452.798 72.1451 469.05 63.9642" stroke="#002E47" stroke-miterlimit="10" stroke-linecap="round" stroke-linejoin="round"/>
<path d="M491.367 119.159V296.955" stroke="#002E47" stroke-miterlimit="10" stroke-linecap="round" stroke-linejoin="round"/>
<path d="M491.367 42.0974V113.582" stroke="#002E47" stroke-miterlimit="10" stroke-linecap="round" stroke-linejoin="round"/>
<path d="M427.84 98.9365H554.712" stroke="#002E47" stroke-miterlimit="10" stroke-linecap="round" stroke-linejoin="round"/>
<path d="M447.684 138.874H554.712" stroke="#002E47" stroke-miterlimit="10" stroke-linecap="round" stroke-linejoin="round"/>
<path d="M427.84 138.874H443.504" stroke="#002E47" stroke-miterlimit="10" stroke-linecap="round" stroke-linejoin="round"/>
<path d="M427.84 178.956H554.712" stroke="#002E47" stroke-miterlimit="10" stroke-linecap="round" stroke-linejoin="round"/>
<path d="M535.113 219.039H554.715" stroke="#002E47" stroke-miterlimit="10" stroke-linecap="round" stroke-linejoin="round"/>
<path d="M427.84 219.039H529.191" stroke="#002E47" stroke-miterlimit="10" stroke-linecap="round" stroke-linejoin="round"/>
<path d="M472.762 259.121H554.712" stroke="#002E47" stroke-miterlimit="10" stroke-linecap="round" stroke-linejoin="round"/>
<path d="M427.84 259.121H467.535" stroke="#002E47" stroke-miterlimit="10" stroke-linecap="round" stroke-linejoin="round"/>
<path d="M444.801 62.1588L456.309 72.6448" stroke="#002E47" stroke-miterlimit="10" stroke-linecap="round" stroke-linejoin="round"/>
<path d="M537.438 62.1588L525.938 72.6448" stroke="#002E47" stroke-miterlimit="10" stroke-linecap="round" stroke-linejoin="round"/>
<path d="M394.09 59.3055H246.167C239.354 59.3055 233.829 64.8588 233.829 71.7179V101.886L214.992 118.135L233.829 116.37V130.008C233.829 136.867 239.354 142.42 246.167 142.42H394.098C400.911 142.42 406.436 136.867 406.436 130.008V71.7179C406.428 64.8669 400.903 59.3055 394.09 59.3055Z" fill="#002E47" stroke="#002E47" stroke-miterlimit="10" stroke-linecap="round" stroke-linejoin="round"/>
<path d="M395.829 55.8316H247.905C241.092 55.8316 235.567 61.3849 235.567 68.244V98.4126L216.73 114.662L235.567 112.896V126.534C235.567 133.385 241.092 138.946 247.905 138.946H395.837C402.65 138.946 408.174 133.393 408.174 126.534V68.244C408.166 61.3849 402.642 55.8316 395.829 55.8316Z" fill="white" stroke="#002E47" stroke-miterlimit="10" stroke-linecap="round" stroke-linejoin="round"/>
<path d="M103.662 348.651H83.666L81.9023 324.794H105.426L103.662 348.651Z" fill="#002E47" stroke="#002E47" stroke-miterlimit="10" stroke-linecap="round" stroke-linejoin="round"/>
<path d="M95.1836 324.205C95.1836 324.205 97.1647 305.458 102.52 283.14" stroke="#002E47" stroke-miterlimit="10" stroke-linecap="round" stroke-linejoin="round"/>
<path d="M97.7617 307.892C97.7617 307.892 106.548 297.704 111.179 292.707" stroke="#002E47" stroke-miterlimit="10" stroke-linecap="round" stroke-linejoin="round"/>
<path d="M92.511 324.6C92.511 324.6 90.0869 292.441 86.0039 277.208" stroke="#002E47" stroke-miterlimit="10" stroke-linecap="round" stroke-linejoin="round"/>
<path d="M91.8735 317.902C91.8735 317.902 87.267 301.355 81.6055 293.182" stroke="#002E47" stroke-miterlimit="10" stroke-linecap="round" stroke-linejoin="round"/>
<path d="M89.4977 311.994L78.4727 304.144" stroke="#002E47" stroke-miterlimit="10" stroke-linecap="round" stroke-linejoin="round"/>
<path d="M99.1365 297.486L95.7461 278.852" stroke="#002E47" stroke-miterlimit="10" stroke-linecap="round" stroke-linejoin="round"/>
<path d="M81.7968 305.925C81.7968 305.925 81.3458 302.121 77.5446 300.324C73.7435 298.534 69.4913 297.857 70.1597 300.324C70.8282 302.79 72.3986 304.579 74.8548 305.925C77.3191 307.271 81.7968 305.925 81.7968 305.925Z" fill="#39B4EF" stroke="#002E47" stroke-miterlimit="10" stroke-linecap="round" stroke-linejoin="round"/>
<path d="M83.5587 295.326C83.5587 295.326 84.1788 291.546 81.0219 288.766C77.865 285.993 73.9672 284.163 73.9269 286.718C73.8867 289.273 74.9014 291.425 76.8906 293.4C78.8878 295.375 83.5587 295.326 83.5587 295.326Z" fill="#39B4EF" stroke="#002E47" stroke-miterlimit="10" stroke-linecap="round" stroke-linejoin="round"/>
<path d="M87.7145 282.068C87.7145 282.068 89.9373 278.949 88.3266 275.064C86.7159 271.179 84.0181 267.818 82.8584 270.099C81.6987 272.372 81.6584 274.757 82.5765 277.409C83.5026 280.053 87.7145 282.068 87.7145 282.068Z" fill="#39B4EF" stroke="#002E47" stroke-miterlimit="10" stroke-linecap="round" stroke-linejoin="round"/>
<path d="M96.6247 283.591C96.6247 283.591 98.8474 280.472 97.2367 276.587C95.6261 272.702 92.9282 269.341 91.7685 271.622C90.6089 273.895 90.5686 276.281 91.4867 278.932C92.4128 281.576 96.6247 283.591 96.6247 283.591Z" fill="#39B4EF" stroke="#002E47" stroke-miterlimit="10" stroke-linecap="round" stroke-linejoin="round"/>
<path d="M101.18 289.33C101.18 289.33 104.555 287.524 104.828 283.325C105.102 279.126 104.176 274.919 102.13 276.45C100.085 277.973 98.9897 280.093 98.6434 282.874C98.289 285.646 101.18 289.33 101.18 289.33Z" fill="#39B4EF" stroke="#002E47" stroke-miterlimit="10" stroke-linecap="round" stroke-linejoin="round"/>
<path d="M107.473 296.229C107.473 296.229 111.209 297.067 114.157 294.069C117.104 291.071 119.15 287.283 116.605 287.097C114.06 286.912 111.854 287.798 109.768 289.676C107.69 291.554 107.473 296.229 107.473 296.229Z" fill="#39B4EF" stroke="#002E47" stroke-miterlimit="10" stroke-linecap="round" stroke-linejoin="round"/>
<path d="M96.1406 317.04C96.1406 317.04 99.8774 317.878 102.825 314.88C105.772 311.882 107.818 308.093 105.273 307.908C102.728 307.723 100.522 308.609 98.4358 310.487C96.3581 312.373 96.1406 317.04 96.1406 317.04Z" fill="#39B4EF" stroke="#002E47" stroke-miterlimit="10" stroke-linecap="round" stroke-linejoin="round"/>
<path d="M97.7568 304.08C97.7568 304.08 98.9971 300.453 96.3395 297.196C93.6819 293.94 90.1384 291.498 89.6794 294.005C89.2203 296.519 89.8646 298.808 91.5075 301.081C93.1423 303.354 97.7568 304.08 97.7568 304.08Z" fill="#39B4EF" stroke="#002E47" stroke-miterlimit="10" stroke-linecap="round" stroke-linejoin="round"/>
<path d="M352.22 91.5052H344.48V129.621H352.22V91.5052Z" fill="#39B4EF" stroke="#002E47" stroke-miterlimit="10" stroke-linecap="round" stroke-linejoin="round"/>
<path d="M364.372 88.1522H356.633V129.621H364.372V88.1522Z" fill="#39B4EF" stroke="#002E47" stroke-miterlimit="10" stroke-linecap="round" stroke-linejoin="round"/>
<path d="M376.524 80.1003H368.785V129.621H376.524V80.1003Z" fill="#39B4EF" stroke="#002E47" stroke-miterlimit="10" stroke-linecap="round" stroke-linejoin="round"/>
<path d="M388.685 77.4163H380.945V129.621H388.685V77.4163Z" fill="#39B4EF" stroke="#002E47" stroke-miterlimit="10" stroke-linecap="round" stroke-linejoin="round"/>
<path d="M348.676 83.5338L361.384 81.9379L372.095 75.1353L381.703 69.0258" stroke="#002E47" stroke-width="3" stroke-linecap="round" stroke-linejoin="round"/>
<path d="M382.823 72.8866L386.391 66.0517L378.684 66.3741L382.823 72.8866Z" fill="#002E47"/>
<path d="M339.68 101.84L315.126 89V96.0122H305.703V107.667H315.126V114.679L339.68 101.84Z" fill="#002E47"/>
<path d="M296 100.5C296 114.031 285.031 125 271.5 125C257.969 125 247 114.031 247 100.5C247 86.969 257.969 76 271.5 76C285.031 76 296 86.969 296 100.5Z" fill="white"/>
<path d="M271.479 93.774C273.454 93.774 275.056 92.1797 275.056 90.2131C275.056 88.2465 273.454 86.6522 271.479 86.6522C269.503 86.6522 267.902 88.2465 267.902 90.2131C267.902 92.1797 269.503 93.774 271.479 93.774Z" fill="#39B4EF"/>
<path d="M271.479 104.061C273.454 104.061 275.056 102.467 275.056 100.5C275.056 98.5334 273.454 96.9392 271.479 96.9392C269.503 96.9392 267.902 98.5334 267.902 100.5C267.902 102.467 269.503 104.061 271.479 104.061Z" fill="#39B4EF"/>
<path d="M271.479 114.348C273.454 114.348 275.056 112.754 275.056 110.787C275.056 108.82 273.454 107.226 271.479 107.226C269.503 107.226 267.902 108.82 267.902 110.787C267.902 112.754 269.503 114.348 271.479 114.348Z" fill="#39B4EF"/>
<path d="M261.94 104.061C263.915 104.061 265.517 102.467 265.517 100.5C265.517 98.5334 263.915 96.9392 261.94 96.9392C259.964 96.9392 258.362 98.5334 258.362 100.5C258.362 102.467 259.964 104.061 261.94 104.061Z" fill="#39B4EF"/>
<path d="M281.813 104.061C283.789 104.061 285.39 102.467 285.39 100.5C285.39 98.5334 283.789 96.9392 281.813 96.9392C279.837 96.9392 278.236 98.5334 278.236 100.5C278.236 102.467 279.837 104.061 281.813 104.061Z" fill="#39B4EF"/>
<path d="M271.5 126C285.583 126 297 114.583 297 100.5C297 86.4167 285.583 75 271.5 75C257.417 75 246 86.4167 246 100.5C246 114.583 257.417 126 271.5 126Z" stroke="#002E47" stroke-width="2"/>
<path opacity="0.3" d="M344.804 237.762L353.405 239.729L355.394 230.992L347.132 229.106C347.14 228.856 347.172 228.614 347.172 228.364C347.172 225.624 346.616 223.012 345.609 220.643L352.31 215.291L346.729 208.287L340.318 213.405C338.104 211.486 335.454 210.06 332.539 209.27V200.92H323.584V208.947C320.572 209.536 317.817 210.817 315.458 212.599L308.975 207.424L303.394 214.428L309.724 219.482C308.427 222.061 307.67 224.963 307.614 228.034L299.367 229.92L301.356 238.657L309.49 236.803C310.73 239.438 312.518 241.76 314.725 243.605L310.94 251.464L319.009 255.349L322.73 247.611C324.22 247.974 325.766 248.184 327.369 248.184C328.657 248.184 329.905 248.055 331.121 247.821L334.979 255.841L343.048 251.956L339.296 244.162C341.575 242.429 343.459 240.269 344.804 237.762ZM318.607 228.364C318.607 223.512 322.537 219.571 327.393 219.571C332.241 219.571 336.179 223.504 336.179 228.364C336.179 233.216 332.249 237.157 327.393 237.157C322.537 237.157 318.607 233.224 318.607 228.364Z" stroke="#002E47" stroke-miterlimit="10" stroke-linecap="round" stroke-linejoin="round"/>
<path opacity="0.3" d="M361.306 194.826L368.361 196.438L369.996 189.273L363.215 187.725C363.223 187.524 363.247 187.322 363.247 187.121C363.247 184.872 362.788 182.728 361.966 180.786L367.467 176.393L362.884 170.646L357.626 174.846C355.806 173.266 353.639 172.097 351.247 171.452V164.601H343.903V171.186C341.43 171.67 339.167 172.718 337.235 174.185L331.919 169.937L327.337 175.684L332.531 179.827C331.468 181.946 330.848 184.324 330.8 186.839L324.035 188.386L325.67 195.552L332.346 194.028C333.361 196.188 334.827 198.099 336.647 199.606L333.546 206.054L340.166 209.246L343.218 202.894C344.442 203.193 345.715 203.362 347.027 203.362C348.082 203.362 349.113 203.257 350.112 203.064L353.277 209.641L359.897 206.449L356.82 200.057C358.648 198.655 360.195 196.882 361.306 194.826ZM339.804 187.113C339.804 183.131 343.033 179.899 347.011 179.899C350.99 179.899 354.219 183.131 354.219 187.113C354.219 191.095 350.99 194.327 347.011 194.327C343.033 194.327 339.804 191.103 339.804 187.113Z" stroke="#002E47" stroke-miterlimit="10" stroke-linecap="round" stroke-linejoin="round"/>
<g opacity="0.3">
<path d="M105.274 211.712H43.875V259.822H105.274V211.712Z" stroke="#002E47" stroke-miterlimit="10" stroke-linecap="round" stroke-linejoin="round"/>
<path d="M46.25 221.223H103.3" stroke="#002E47" stroke-miterlimit="10" stroke-linecap="round" stroke-linejoin="round"/>
<path d="M55.1162 226.776H47.8359V234.062H55.1162V226.776Z" stroke="#002E47" stroke-miterlimit="10" stroke-linecap="round" stroke-linejoin="round"/>
<path d="M66.7685 226.776H59.4883V234.062H66.7685V226.776Z" stroke="#002E47" stroke-miterlimit="10" stroke-linecap="round" stroke-linejoin="round"/>
<path d="M78.413 226.776H71.1328V234.062H78.413V226.776Z" stroke="#002E47" stroke-miterlimit="10" stroke-linecap="round" stroke-linejoin="round"/>
<path d="M90.0615 226.776H82.7812V234.062H90.0615V226.776Z" stroke="#002E47" stroke-miterlimit="10" stroke-linecap="round" stroke-linejoin="round"/>
<path d="M101.714 226.776H94.4336V234.062H101.714V226.776Z" stroke="#002E47" stroke-miterlimit="10" stroke-linecap="round" stroke-linejoin="round"/>
<path d="M55.1162 237.875H47.8359V245.161H55.1162V237.875Z" stroke="#002E47" stroke-miterlimit="10" stroke-linecap="round" stroke-linejoin="round"/>
<path d="M66.7685 237.875H59.4883V245.161H66.7685V237.875Z" stroke="#002E47" stroke-miterlimit="10" stroke-linecap="round" stroke-linejoin="round"/>
<path d="M78.413 237.875H71.1328V245.161H78.413V237.875Z" stroke="#002E47" stroke-miterlimit="10" stroke-linecap="round" stroke-linejoin="round"/>
<path d="M90.0615 237.875H82.7812V245.161H90.0615V237.875Z" stroke="#002E47" stroke-miterlimit="10" stroke-linecap="round" stroke-linejoin="round"/>
<path d="M101.714 237.875H94.4336V245.161H101.714V237.875Z" stroke="#002E47" stroke-miterlimit="10" stroke-linecap="round" stroke-linejoin="round"/>
<path d="M55.1162 248.973H47.8359V256.26H55.1162V248.973Z" stroke="#002E47" stroke-miterlimit="10" stroke-linecap="round" stroke-linejoin="round"/>
<path d="M66.7685 248.973H59.4883V256.26H66.7685V248.973Z" stroke="#002E47" stroke-miterlimit="10" stroke-linecap="round" stroke-linejoin="round"/>
<path d="M78.413 248.973H71.1328V256.26H78.413V248.973Z" stroke="#002E47" stroke-miterlimit="10" stroke-linecap="round" stroke-linejoin="round"/>
<path d="M90.0615 248.973H82.7812V256.26H90.0615V248.973Z" stroke="#002E47" stroke-miterlimit="10" stroke-linecap="round" stroke-linejoin="round"/>
<path d="M101.714 248.973H94.4336V256.26H101.714V248.973Z" stroke="#002E47" stroke-miterlimit="10" stroke-linecap="round" stroke-linejoin="round"/>
</g>
<g opacity="0.3">
<path d="M55.9233 123.262C60.3929 112.985 70.6207 105.804 82.5235 105.804C98.5416 105.804 111.524 118.796 111.524 134.828C111.524 150.859 98.5416 163.852 82.5235 163.852C66.5054 163.852 53.5234 150.859 53.5234 134.828C53.5234 131.217 54.1838 127.767 55.3838 124.575" stroke="#002E47" stroke-miterlimit="10"/>
<path d="M55.5996 123.141C60.1256 112.735 70.4902 105.449 82.5299 105.449C98.7171 105.449 111.876 118.627 111.876 134.82C111.876 151.02 98.7091 164.198 82.5299 164.198C66.3427 164.198 53.1836 151.02 53.1836 134.82C53.1836 131.168 53.852 127.678 55.0681 124.446" stroke="#002E47" stroke-width="0.5" stroke-miterlimit="10"/>
<path d="M63.2133 126.018C66.5555 118.683 73.9484 113.598 82.5252 113.598C94.2428 113.598 103.746 123.1 103.746 134.828C103.746 146.563 94.2428 156.066 82.5252 156.066C70.8076 156.066 61.3047 146.563 61.3047 134.828C61.3047 132.184 61.7879 129.653 62.6738 127.324" stroke="#002E47" stroke-miterlimit="10"/>
<path d="M62.8898 125.889C66.2964 118.434 73.8182 113.235 82.5319 113.235C94.4267 113.235 104.107 122.923 104.107 134.828C104.107 146.74 94.4267 156.42 82.5319 156.42C70.6371 156.42 60.957 146.74 60.957 134.828C60.957 132.144 61.4483 129.573 62.3503 127.203" stroke="#002E47" stroke-width="0.5" stroke-miterlimit="10"/>
<path d="M72.5075 129.556C72.5075 129.548 72.5156 129.54 72.5236 129.532C74.4242 125.946 78.1851 123.495 82.5259 123.495C88.7753 123.495 93.8408 128.565 93.8408 134.82C93.8408 141.082 88.7753 146.144 82.5259 146.144C76.2765 146.144 71.2109 141.074 71.2109 134.82C71.2109 133.409 71.4686 132.055 71.9357 130.814C71.9438 130.798 71.9518 130.773 71.9599 130.757" stroke="#002E47" stroke-miterlimit="10"/>
<path d="M72.0554 129.669C72.0957 129.581 72.144 129.492 72.1843 129.403H72.1923C74.1412 125.688 78.0471 123.141 82.5247 123.141C88.9594 123.141 94.194 128.38 94.194 134.82C94.194 141.26 88.9594 146.507 82.5247 146.507C76.0901 146.507 70.8555 141.268 70.8555 134.82C70.8555 133.369 71.1212 131.983 71.6044 130.693" stroke="#002E47" stroke-width="0.5" stroke-miterlimit="10"/>
<path d="M72.6979 129.597C72.6656 129.581 72.6334 129.581 72.6012 129.565L72.5207 129.532L72.1905 129.403H72.1824L63.203 126.01L62.8728 125.881L55.9067 123.254L55.5845 123.133L44.3662 118.893L44.9219 114.75C44.938 114.597 44.8575 114.444 44.7125 114.379L35.8458 110.398C35.7169 110.341 35.5639 110.366 35.4592 110.462C35.3545 110.559 35.3143 110.704 35.3626 110.841L37.1666 116.177L35.8458 115.677C35.4753 115.54 35.0646 115.725 34.9277 116.088C34.7908 116.451 34.976 116.862 35.3384 116.999L36.7156 117.523L32.5762 120.707C32.4634 120.795 32.4151 120.94 32.4473 121.077C32.4795 121.206 32.5923 121.319 32.7372 121.335L42.6831 122.867C42.6992 122.875 42.7234 122.875 42.7314 122.875C42.8764 122.875 43.0052 122.786 43.0616 122.649L43.9958 120.279L55.0449 124.454L55.3751 124.575L62.3332 127.203L62.6554 127.332L71.5945 130.709L71.9167 130.83L72.1824 130.927" stroke="#002E47" stroke-miterlimit="10"/>
<path d="M72.5042 129.556C72.5364 129.556 72.5686 129.565 72.6008 129.565C72.633 129.581 72.6652 129.581 72.6975 129.597L79.0918 132.015L79.7924 129.903C79.8891 129.613 80.1548 129.419 80.4609 129.419C80.4689 129.419 80.4689 129.419 80.477 129.419C80.783 129.427 81.0568 129.629 81.1454 129.919L82.4259 134.078C82.5225 134.409 82.3776 134.763 82.0715 134.916L78.8744 136.512C78.7777 136.561 78.665 136.585 78.5603 136.585C78.3912 136.585 78.2301 136.528 78.0932 136.416C77.8838 136.23 77.7952 135.924 77.8838 135.658L78.6489 133.353L72.2143 130.919C72.1176 130.878 72.0371 130.83 71.9727 130.765" stroke="#002E47" stroke-miterlimit="10"/>
</g>
<path d="M416.133 235.731L411.35 242.429C411.35 242.429 404.182 280.706 403.224 290.039C402.266 299.373 402.266 348.651 402.266 348.651H445.77C445.77 348.651 436.686 296.979 437.644 292.433C438.602 287.887 441.944 239.801 441.944 239.801L440.511 236.448L416.133 235.731Z" fill="#B3C7EB" stroke="#002E47" stroke-miterlimit="10" stroke-linecap="round" stroke-linejoin="round"/>
<path d="M437.644 292.425C437.966 290.885 438.57 284.349 439.214 276.369C433.529 280.399 425.669 284.929 419.476 284.526C412.421 284.067 407.822 278.973 405.439 275.386C404.376 281.681 403.514 287.194 403.224 290.031C402.266 299.365 402.266 348.643 402.266 348.643H445.77C445.77 348.651 436.686 296.971 437.644 292.425Z" fill="white" stroke="#002E47" stroke-miterlimit="10" stroke-linecap="round" stroke-linejoin="round"/>
<path d="M416.132 235.731C416.132 235.731 405.614 285.493 405.139 296.979C404.664 308.464 404.897 348.651 404.897 348.651H379.32L380.037 322.811L368.086 337.408L351.117 320.184C351.117 320.184 368.327 285.251 370.244 280.472C372.152 275.684 376.695 258.944 377.653 256.55C378.611 254.156 376.461 252.963 380.52 251.528C384.579 250.086 416.132 235.731 416.132 235.731Z" fill="#39B4EF" stroke="#002E47" stroke-miterlimit="10" stroke-linecap="round" stroke-linejoin="round"/>
<path d="M413.739 235.965C413.739 235.965 411.347 234.772 408.955 240.035C406.563 245.298 401.788 258.936 399.396 263.006C397.004 267.076 399.871 267.076 401.305 266.117C402.738 265.158 405.605 259.895 406.563 260.612C407.522 261.329 409.914 266.117 409.914 266.117L415.889 238.125C415.889 238.125 415.172 236.448 413.739 235.965Z" fill="#39B4EF" stroke="#002E47" stroke-miterlimit="10" stroke-linecap="round" stroke-linejoin="round"/>
<path d="M384.094 274.25C384.666 271.235 385.052 269.22 385.052 269.22" stroke="#002E47" stroke-miterlimit="10" stroke-linecap="round" stroke-linejoin="round"/>
<path d="M378.597 319.7C378.597 319.7 377.638 305.821 378.838 300.799C379.571 297.72 381.738 286.549 383.308 278.368" stroke="#002E47" stroke-miterlimit="10" stroke-linecap="round" stroke-linejoin="round"/>
<path d="M365.686 318.805C365.686 318.805 364.357 315.557 362.44 315.557C360.524 315.557 350.771 317.33 348.855 318.805C346.938 320.28 342.355 331.226 342.355 333.289C342.355 335.36 347.671 344.226 350.328 345.556C352.986 346.886 361.555 345.411 361.555 345.411C361.555 345.411 365.984 341.712 366.427 341.268C366.87 340.825 371.299 330.621 370.268 325.898C369.229 321.175 365.686 318.805 365.686 318.805Z" fill="white" stroke="#002E47" stroke-miterlimit="10" stroke-linecap="round" stroke-linejoin="round"/>
<path d="M418.501 247.821L414.193 237.472L412.469 234.022C412.469 234.022 412.469 234.022 408.161 234.022C403.852 234.022 401.557 234.885 400.116 232.297C398.682 229.71 396.669 213.614 396.669 213.614C396.669 213.614 394.945 213.042 393.222 211.889C391.499 210.737 391.789 207.867 394.374 207.287C396.959 206.715 399.544 202.403 400.406 198.663C401.267 194.923 400.116 191.191 404.142 185.444C408.161 179.698 413.903 176.248 413.903 176.248C413.903 176.248 423.664 171.074 433.142 175.958C442.621 180.842 451.238 191.481 451.81 205.852C452.382 220.223 441.188 229.42 441.188 229.42L438.836 249.594" fill="#B3C7EB"/>
<path d="M418.501 247.821L414.193 237.472L412.469 234.022C412.469 234.022 412.469 234.022 408.161 234.022C403.852 234.022 401.557 234.885 400.116 232.297C398.682 229.71 396.669 213.614 396.669 213.614C396.669 213.614 394.945 213.042 393.222 211.889C391.499 210.737 391.789 207.867 394.374 207.287C396.959 206.715 399.544 202.403 400.406 198.663C401.267 194.923 400.116 191.191 404.142 185.444C408.161 179.698 413.903 176.248 413.903 176.248C413.903 176.248 423.664 171.074 433.142 175.958C442.621 180.842 451.238 191.481 451.81 205.852C452.382 220.223 441.188 229.42 441.188 229.42L438.836 249.594" stroke="#002E47" stroke-miterlimit="10" stroke-linecap="round" stroke-linejoin="round"/>
<path d="M412.469 234.022L424.976 231.612L414.949 239.672L412.469 234.022Z" fill="#002E47" stroke="#002E47" stroke-miterlimit="10" stroke-linecap="round" stroke-linejoin="round"/>
<path d="M402.371 216.266C402.371 216.266 407.09 216.661 410.432 212.526" stroke="#002E47" stroke-miterlimit="10" stroke-linecap="round" stroke-linejoin="round"/>
<path d="M405.479 201.68C405.839 200.315 405.535 199.052 404.8 198.857C404.065 198.663 403.177 199.611 402.816 200.975C402.456 202.34 402.76 203.603 403.495 203.798C404.231 203.992 405.119 203.044 405.479 201.68Z" fill="#002E47"/>
<path d="M403.352 195.221C403.352 195.221 406.299 192.86 408.852 196.398" stroke="#002E47" stroke-miterlimit="10" stroke-linecap="round" stroke-linejoin="round"/>
<path d="M457.849 168.567C457.849 168.567 449.804 158.508 443.49 155.058C437.168 151.609 438.32 156.211 438.32 156.211C438.32 156.211 418.5 147.587 416.205 149.884C413.91 152.181 420.224 153.333 420.224 153.333C420.224 153.333 402.128 154.196 396.676 157.073C391.216 159.951 397.538 161.958 397.538 161.958C397.538 161.958 388.92 168.285 390.934 169.719C392.947 171.154 398.399 169.429 398.399 169.429C398.399 169.429 390.644 178.916 393.801 181.213C396.958 183.51 402.418 180.06 402.418 180.06C402.418 180.06 396.958 190.119 399.261 189.829C401.556 189.539 407.878 187.814 407.878 187.814C407.878 187.814 407.016 191.264 409.312 191.554C411.607 191.844 414.772 189.539 414.772 189.539C414.772 189.539 411.897 199.888 415.062 200.75C418.219 201.613 424.25 197.873 424.25 197.873C424.25 197.873 419.08 212.816 419.942 217.991C420.804 223.165 425.684 219.143 425.684 219.143C425.684 219.143 427.407 230.065 430.564 230.927C433.721 231.79 434.583 229.202 434.583 229.202C434.583 229.202 434.293 236.392 437.168 237.536C440.043 238.689 444.352 234.377 444.352 234.377C444.352 234.377 446.075 240.986 448.66 240.124C451.245 239.261 452.969 235.239 452.969 235.239C452.969 235.239 452.679 240.124 455.554 238.117C458.429 236.102 461.014 228.92 461.014 228.92C461.014 228.92 461.304 234.385 466.474 230.935C471.644 227.485 471.644 218.861 471.644 218.861C471.644 218.861 474.801 221.739 476.525 217.427C478.248 213.114 475.953 204.78 475.953 204.78C475.953 204.78 480.833 205.933 479.971 203.056C479.11 200.178 477.096 192.424 477.096 192.424C477.096 192.424 482.557 195.012 481.695 189.837C480.833 184.663 468.197 175.466 468.197 175.466C468.197 175.466 473.368 169.429 470.211 168.567C467.054 167.704 461.594 170.002 461.594 170.002C461.594 170.002 462.166 161.377 459.58 162.812C456.987 164.255 457.849 168.567 457.849 168.567Z" fill="#002E47" stroke="#002E47" stroke-miterlimit="10" stroke-linecap="round" stroke-linejoin="round"/>
<path d="M440.276 239.076C440.276 239.076 434.3 289.797 434.059 296.971C433.817 304.144 439.317 348.643 439.317 348.643H472.304L471.587 324.479L501.465 326.632C501.465 326.632 492.22 291.498 488.869 283.849C485.519 276.192 481.936 252.27 481.46 251.069C480.985 249.876 446.726 240.269 445.051 238.826C443.376 237.399 440.034 234.53 440.276 239.076Z" fill="#39B4EF" stroke="#002E47" stroke-miterlimit="10" stroke-linecap="round" stroke-linejoin="round"/>
<path d="M493.549 319.063L471.773 320.038L470.219 344.557C470.219 344.557 482.661 346.499 488.693 347.475C494.717 348.45 499.968 346.693 502.11 343.388C504.252 340.084 503.858 335.022 503.278 332.491C502.698 329.96 499.388 320.619 499.388 320.619" fill="#39B4EF"/>
<path d="M493.549 319.063L471.773 320.038L470.219 344.557C470.219 344.557 482.661 346.499 488.693 347.475C494.717 348.45 499.968 346.693 502.11 343.388C504.252 340.084 503.858 335.022 503.278 332.491C502.698 329.96 499.388 320.619 499.388 320.619" stroke="#002E47" stroke-miterlimit="10" stroke-linecap="round" stroke-linejoin="round"/>
<path d="M445.053 238.842C445.053 238.842 448.878 252.955 449.12 260.137C449.361 267.31 448.161 269.47 446.494 267.076C444.819 264.682 442.427 261.337 442.427 261.337L437.41 265.883L440.519 236.456C440.511 236.448 444.819 236.206 445.053 238.842Z" fill="#39B4EF" stroke="#002E47" stroke-miterlimit="10" stroke-linecap="round" stroke-linejoin="round"/>
<path d="M465.136 285.493C465.136 285.493 464.661 305.829 465.853 307.739C467.045 309.649 475.413 326.64 475.413 326.64" stroke="#002E47" stroke-miterlimit="10" stroke-linecap="round" stroke-linejoin="round"/>
<path d="M472.045 270.872C471.658 272.081 471.288 273.298 470.941 274.524" stroke="#002E47" stroke-miterlimit="10" stroke-linecap="round" stroke-linejoin="round"/>
<path d="M479.311 252.512C479.311 252.512 476.114 259.202 473.23 267.374" stroke="#002E47" stroke-miterlimit="10" stroke-linecap="round" stroke-linejoin="round"/>
<path d="M462.247 321.594L463.608 318.676C463.608 318.676 469.632 315.952 472.161 315.565C474.69 315.178 484.217 324.52 485.385 327.631C486.552 330.742 483.242 340.084 482.083 342.421C480.915 344.758 473.723 346.121 470.22 346.121C466.717 346.121 459.719 341.841 458.752 340.092C457.778 338.327 462.247 321.594 462.247 321.594Z" fill="white" stroke="#002E47" stroke-miterlimit="10" stroke-linecap="round" stroke-linejoin="round"/>
<path d="M467.286 340.277C467.286 340.277 471.707 336.803 470.515 329.864C469.324 322.924 465.708 320.675 465.708 320.675L427.849 313.961C427.849 313.961 410.639 306.788 409.439 307.022C408.247 307.263 398.68 316.831 398.68 318.265C398.68 319.7 399.872 331.427 399.872 331.427C399.872 331.427 400.548 332.048 401.571 331.613C401.571 331.613 401.571 334.095 402.739 334.24C403.906 334.385 404.341 333.66 404.341 333.66C404.341 333.66 405.066 335.554 406.524 335.264C407.981 334.974 409.584 333.08 409.584 333.08C409.584 333.08 409.874 335.119 410.897 334.103C411.919 333.08 415.704 327.978 415.704 327.978C415.704 327.978 423.138 330.162 426.343 329.582C429.548 329.001 433.921 327.099 433.921 327.099L464.532 340.809C464.532 340.801 466.682 340.922 467.286 340.277Z" fill="#B3C7EB" stroke="#002E47" stroke-miterlimit="10" stroke-linecap="round" stroke-linejoin="round"/>
<path d="M409.582 333.071C409.582 333.071 410.46 328.695 411.04 327.236C411.62 325.777 412.787 325.197 413.375 324.608C413.955 324.028 420.663 319.797 420.663 319.797" stroke="#002E47" stroke-miterlimit="10" stroke-linecap="round" stroke-linejoin="round"/>
<path d="M415.268 314.84C415.268 314.84 406.957 322.424 406.522 324.173C406.087 325.922 404.34 333.652 404.34 333.652" stroke="#002E47" stroke-miterlimit="10" stroke-linecap="round" stroke-linejoin="round"/>
<path d="M401.57 331.613C401.57 331.613 402.883 320.82 403.173 320.087C403.463 319.361 410.316 311.479 410.316 311.479" stroke="#002E47" stroke-miterlimit="10" stroke-linecap="round" stroke-linejoin="round"/>
<path d="M371.742 316.734C371.742 316.734 359.927 320.578 357.713 321.61C355.498 322.642 352.245 326.196 351.214 329.001C350.183 331.806 350.03 338.31 354.016 341.865C358.003 345.411 362.875 344.226 366.427 342.453C369.97 340.68 377.508 327.228 377.508 327.228L371.742 316.734Z" fill="#B3C7EB" stroke="#002E47" stroke-miterlimit="10" stroke-linecap="round" stroke-linejoin="round"/>
<path d="M379.424 313.341L383.708 318.66C383.708 318.66 388.29 321.32 388.878 322.207C389.466 323.093 391.238 330.041 391.536 330.927C391.834 331.814 390.062 334.329 388.58 333.289C387.107 332.257 385.923 327.526 385.625 326.64C385.327 325.753 383.265 324.721 382.226 324.568C381.195 324.423 377.797 313.631 377.797 313.631L379.424 313.341Z" fill="#B3C7EB" stroke="#002E47" stroke-miterlimit="10" stroke-linecap="round" stroke-linejoin="round"/>
<path d="M377.653 310.673C377.653 310.673 373.812 310.971 373.514 312.003C373.216 313.034 375.584 321.61 377.355 324.568C379.127 327.526 380.013 328.413 381.197 328.413C382.381 328.413 382.824 327.083 382.671 326.196C382.526 325.31 379.715 315.404 379.425 313.333C379.127 311.269 378.684 310.528 377.653 310.673Z" fill="#B3C7EB" stroke="#002E47" stroke-miterlimit="10" stroke-linecap="round" stroke-linejoin="round"/>
<path d="M373.811 313.784C373.811 313.784 369.671 315.557 369.382 316.742C369.084 317.927 373.521 325.608 374.254 326.938C374.995 328.268 377.797 330.339 378.393 330.186C378.981 330.041 379.722 329.001 379.424 328.115C379.126 327.228 378.683 326.486 378.683 326.486C378.683 326.486 376.613 321.9 375.728 320.28C374.842 318.66 373.811 313.784 373.811 313.784Z" fill="#B3C7EB" stroke="#002E47" stroke-miterlimit="10" stroke-linecap="round" stroke-linejoin="round"/>
<path d="M369.675 318.072C369.675 318.072 366.574 321.03 366.574 322.505C366.574 323.98 370.859 329.453 372.187 330.041C373.516 330.629 375.433 331.669 376.617 331.371C377.801 331.073 378.388 330.186 378.388 330.186L374.547 328.115L369.675 318.072Z" fill="#B3C7EB" stroke="#002E47" stroke-miterlimit="10" stroke-linecap="round" stroke-linejoin="round"/>
<path d="M367.015 324.125C367.015 324.125 365.687 327.083 366.129 328.115C366.572 329.146 370.712 333.144 372.186 333.877C373.659 334.619 375.286 335.651 375.584 334.466C375.882 333.281 373.224 331.065 373.224 331.065L372.194 330.033L367.015 324.125Z" fill="#B3C7EB" stroke="#002E47" stroke-miterlimit="10" stroke-linecap="round" stroke-linejoin="round"/>
<path d="M183.601 348.651L184.962 336.376L187.958 348.651H227.363L221.758 281.616H140.628L131.504 297.978L134.218 348.651H183.601Z" fill="#002E47" stroke="#002E47" stroke-miterlimit="10" stroke-linecap="round" stroke-linejoin="round"/>
<path d="M308.309 174.015C308.309 174.015 311.071 171.783 311.176 173.056C311.28 174.33 308.735 178.053 308.735 178.053L308.309 174.015Z" fill="white" stroke="#002E47" stroke-miterlimit="10" stroke-linecap="round" stroke-linejoin="round"/>
<path d="M269.184 199.195L272.3 192.336C272.3 192.336 273.339 186.718 274.998 184.638C276.657 182.559 281.022 180.48 282.27 179.859C283.519 179.238 286.635 176.53 288.504 174.241C290.372 171.952 292.039 168.623 293.078 170.292C294.117 171.952 294.117 172.79 293.287 174.241C292.458 175.7 289.55 180.689 289.55 180.689L301.937 176.772C301.937 176.772 307.461 173.903 307.034 174.749C306.607 175.603 301.196 186.976 300.133 188.564C299.07 190.16 294.825 193.988 291.105 196.108C287.384 198.236 282.286 200.364 281.972 200.468C281.65 200.573 279.21 205.361 279.21 205.361L269.184 199.195Z" fill="white" stroke="#002E47" stroke-miterlimit="10" stroke-linecap="round" stroke-linejoin="round"/>
<path d="M305.334 183.792C305.334 183.792 308.41 179.013 308.733 178.053C309.055 177.094 308.523 173.588 308.306 171.992C308.096 170.396 306.502 170.719 306.18 171.46C305.858 172.202 306.18 174.967 306.18 175.289C306.18 175.611 305.012 181.987 305.012 181.987L304.48 184.429L305.334 183.792Z" fill="white" stroke="#002E47" stroke-miterlimit="10" stroke-linecap="round" stroke-linejoin="round"/>
<path d="M300.977 188.58C300.977 188.58 304.907 184.115 305.647 182.736C306.388 181.358 306.92 176.143 307.025 174.765C307.129 173.387 305.857 173.596 305.003 174.443C304.15 175.297 304.262 180.818 304.15 181.14C304.037 181.463 301.597 185.92 301.597 185.92L300.977 188.58Z" fill="white" stroke="#002E47" stroke-miterlimit="10" stroke-linecap="round" stroke-linejoin="round"/>
<path d="M277.824 196.866C277.824 196.866 282.286 192.296 283.88 191.554C285.475 190.812 295.566 188.048 295.566 188.048L298.328 185.493C298.328 185.493 300.543 180.866 300.559 179.754C300.591 177.755 303.708 173.612 304.167 175.289C304.4 176.135 303.321 181.455 302.572 184.324C301.831 187.194 301.195 189.104 299.81 190.281C298.433 191.449 292.803 195.705 291.104 196.124" fill="white"/>
<path d="M277.824 196.866C277.824 196.866 282.286 192.296 283.88 191.554C285.475 190.812 295.566 188.048 295.566 188.048L298.328 185.493C298.328 185.493 300.543 180.866 300.559 179.754C300.591 177.755 303.708 173.612 304.167 175.289C304.4 176.135 303.321 181.455 302.572 184.324C301.831 187.194 301.195 189.104 299.81 190.281C298.433 191.449 292.803 195.705 291.104 196.124" stroke="#002E47" stroke-miterlimit="10" stroke-linecap="round" stroke-linejoin="round"/>
<path d="M289.543 180.689C289.543 180.689 283.519 182.067 282.094 182.873" stroke="#002E47" stroke-miterlimit="10" stroke-linecap="round" stroke-linejoin="round"/>
<path d="M300.55 179.754L295.887 181.664" stroke="#002E47" stroke-miterlimit="10" stroke-linecap="round" stroke-linejoin="round"/>
<path d="M268.917 196.479L283.719 204.805L279.458 210.89L266.219 201.161L268.917 196.479Z" fill="white" stroke="#002E47" stroke-miterlimit="10" stroke-linecap="round" stroke-linejoin="round"/>
<path d="M264.835 199.541L283.97 212.002C283.97 212.002 264.602 242.002 260.913 247.539C257.225 253.076 252.022 259.854 246.16 261.152C244.082 261.612 221.492 239.463 221.492 239.463L224.947 176.925L228.378 173.612L245.233 223.77L264.835 199.541Z" fill="#39B4EF" stroke="#002E47" stroke-miterlimit="10" stroke-linecap="round" stroke-linejoin="round"/>
<path d="M225.526 208.923L229.561 246.475L223.215 241.276L225.526 208.923Z" fill="#002E47" stroke="#002E47" stroke-miterlimit="10" stroke-linecap="round" stroke-linejoin="round"/>
<path d="M245.24 223.778C245.24 223.778 237.863 233.933 237.863 235.779C237.863 237.625 240.859 241.091 240.859 241.091" stroke="#002E47" stroke-miterlimit="10" stroke-linecap="round" stroke-linejoin="round"/>
<path d="M165.898 154.228L177.439 234.627L178.309 284.518H207.478L206.391 203.902L206.173 161.2L202.259 153.793L165.898 154.228Z" fill="white" stroke="#002E47" stroke-miterlimit="10" stroke-linecap="round" stroke-linejoin="round"/>
<path d="M180.051 167.737L189.417 181.245L183.755 263.28L192.936 276.603L201.65 261.91L192.308 182.229L197.253 166.866L189.417 156.622L180.051 167.737Z" fill="#002E47" stroke="#002E47" stroke-miterlimit="10" stroke-linecap="round" stroke-linejoin="round"/>
<path d="M189.414 162.288L177.656 177.538L165.898 154.228L169.386 150.956L189.414 162.288Z" fill="white" stroke="#002E47" stroke-miterlimit="10" stroke-linecap="round" stroke-linejoin="round"/>
<path d="M187.668 161.635L200.513 174.491L202.261 153.793L200.73 152.914L187.668 161.635Z" fill="white" stroke="#002E47" stroke-miterlimit="10" stroke-linecap="round" stroke-linejoin="round"/>
<path d="M169.387 142.243V150.956C169.387 150.956 187.458 164.247 189.415 164.247C191.372 164.247 200.738 152.914 200.738 152.914L200.521 147.248C200.521 147.248 191.598 148.336 185.719 146.595C179.832 144.854 169.387 142.243 169.387 142.243Z" fill="white" stroke="#002E47" stroke-miterlimit="10" stroke-linecap="round" stroke-linejoin="round"/>
<path d="M164.621 92.553C164.621 92.553 161.005 87.8943 156.986 87.0238C152.967 86.1533 146.307 90.9329 144.664 95.4223C143.022 99.9118 142.708 102.152 146.412 105.28C150.117 108.399 152.307 109.398 155.625 108.02C158.951 106.642 160.948 102.265 160.948 102.265L164.621 92.553Z" fill="#002E47" stroke="#002E47" stroke-miterlimit="10" stroke-linecap="round" stroke-linejoin="round"/>
<path d="M162.147 87.7653C162.147 87.7653 155.479 91.7712 155.817 101.774C156.147 111.784 159.151 122.286 159.32 122.786C159.489 123.286 162.316 129.121 162.316 129.121C162.316 129.121 163.146 139.962 167.986 142.968C172.818 145.967 184.817 151.31 190.148 151.81C195.48 152.31 199.982 152.141 202.148 146.805C204.314 141.469 205.144 127.961 205.144 123.125C205.144 118.289 203.807 114.283 203.807 111.953C203.807 109.624 204.306 107.948 203.308 101.282C202.309 94.6083 197.477 86.774 191.139 83.0986C184.817 79.4232 168.984 81.0917 162.147 87.7653Z" fill="white" stroke="#002E47" stroke-miterlimit="10" stroke-linecap="round" stroke-linejoin="round"/>
<path d="M202.148 146.805C203.678 143.041 204.54 135.231 204.918 129.242L200.32 128.291C200.32 128.291 200.32 128.291 198.153 129.121C195.987 129.951 193.651 128.452 193.651 128.452C193.651 128.452 189.818 128.452 185.155 130.951C180.492 133.449 177.827 135.618 177.827 135.618L169.991 132.111C169.991 132.111 165.988 116.435 165.328 113.267C164.659 110.1 170.659 107.931 171.658 105.763C172.656 103.595 169.161 102.426 167.494 98.9285C165.827 95.4224 170.329 90.0866 170.329 90.0866C171.996 89.2565 173.663 88.5875 177.327 88.5875C180.992 88.5875 185.163 90.7556 189.327 91.7551C193.49 92.7545 196.655 88.4182 196.655 88.4182L197.13 88.2248C195.383 86.1534 193.362 84.364 191.155 83.0825C184.825 79.4152 168.992 81.0836 162.155 87.7492C162.155 87.7492 155.487 91.7551 155.825 101.758C156.155 111.768 159.159 122.27 159.328 122.77C159.497 123.27 162.324 129.105 162.324 129.105C162.324 129.105 163.153 139.946 167.994 142.952C172.826 145.951 184.825 151.294 190.156 151.794C195.48 152.31 199.981 152.141 202.148 146.805Z" fill="#002E47" stroke="#002E47" stroke-miterlimit="10" stroke-linecap="round" stroke-linejoin="round"/>
<path d="M196.65 116.612L200.315 128.291C200.315 128.291 199.485 129.959 196.151 129.79C192.817 129.621 192.148 127.292 192.148 127.292" fill="white"/>
<path d="M196.65 116.612L200.315 128.291C200.315 128.291 199.485 129.959 196.151 129.79C192.817 129.621 192.148 127.292 192.148 127.292" stroke="#002E47" stroke-miterlimit="10" stroke-linecap="round" stroke-linejoin="round"/>
<path d="M195.77 109.705C195.77 109.705 195.939 108.036 198.435 107.206C200.932 106.376 202.269 107.537 202.269 107.537" stroke="#002E47" stroke-width="2" stroke-miterlimit="10" stroke-linecap="round" stroke-linejoin="round"/>
<path d="M188.605 109.205C188.605 109.205 185.61 106.868 181.937 107.706C178.273 108.536 175.938 110.374 175.938 110.374" stroke="#002E47" stroke-width="2" stroke-miterlimit="10" stroke-linecap="round" stroke-linejoin="round"/>
<path d="M184.77 119.207C185.509 119.207 186.107 118.161 186.107 116.87C186.107 115.579 185.509 114.533 184.77 114.533C184.032 114.533 183.434 115.579 183.434 116.87C183.434 118.161 184.032 119.207 184.77 119.207Z" fill="#002E47"/>
<path d="M202.099 115.54C202.099 116.83 201.504 117.878 200.763 117.878C200.03 117.878 199.426 116.83 199.426 115.54C199.426 114.251 200.022 113.203 200.763 113.203C201.504 113.203 202.099 114.251 202.099 115.54Z" fill="#002E47"/>
<path d="M160.651 120.787C160.651 120.787 157.655 115.782 153.983 117.12C150.318 118.458 152.485 125.293 154.482 128.291C156.479 131.289 163.317 132.128 163.317 132.128L160.651 120.787Z" fill="white" stroke="#002E47" stroke-miterlimit="10" stroke-linecap="round" stroke-linejoin="round"/>
<path d="M195.649 136.133C195.649 136.133 190.817 136.303 186.484 132.627C186.484 132.627 186.984 139.301 189.988 139.631C192.983 139.962 195.649 136.133 195.649 136.133Z" fill="white" stroke="#002E47" stroke-miterlimit="10" stroke-linecap="round" stroke-linejoin="round"/>
<path d="M121.92 171.001L100.707 226.091C100.707 226.091 97.4942 236.65 101.167 241.244C104.839 245.838 115.389 241.244 119.52 236.65C123.651 232.056 136.497 202.209 136.497 202.209L121.92 171.001Z" fill="#39B4EF" stroke="#002E47" stroke-miterlimit="10" stroke-linecap="round" stroke-linejoin="round"/>
<path d="M166.771 152.479C166.771 152.479 180.268 219.369 181.355 224.382C182.443 229.396 180.703 284.3 179.181 297.809C177.659 311.318 170.041 322.868 159.805 323.738C149.569 324.609 141.081 320.466 133.027 315.243C124.974 310.012 121.27 307.4 121.27 307.4C121.27 307.4 136.289 248.135 135.854 245.959C135.419 243.783 132.367 217.854 132.367 217.854C132.367 217.854 120.609 173.838 121.914 171.009C123.226 168.172 166.771 152.479 166.771 152.479Z" fill="#39B4EF" stroke="#002E47" stroke-miterlimit="10" stroke-linecap="round" stroke-linejoin="round"/>
<path d="M166.769 204.555C170.57 210.173 178.116 221.175 181.547 226.164C181.499 225.35 181.434 224.737 181.362 224.382C180.275 219.369 166.777 152.479 166.777 152.479C166.777 152.479 163.121 153.801 157.895 155.735L158.507 178.408L167.647 181.672L158.289 185.162C158.281 185.162 161.76 197.148 166.769 204.555Z" fill="#39B4EF" stroke="#002E47" stroke-miterlimit="10" stroke-linecap="round" stroke-linejoin="round"/>
<path d="M202.259 153.793C202.259 153.793 203.346 185.17 201.606 201.073C199.867 216.975 199.215 223.077 198.997 224.826C198.78 226.567 205.746 310.673 206.398 314.816C207.051 318.958 211.19 322.005 219.026 322.876C226.862 323.746 234.915 315.033 234.915 313.292C234.915 311.551 222.94 247.708 222.722 247.055C222.505 246.402 228.384 173.629 228.384 173.629C228.384 173.629 203.781 154.663 202.259 153.793Z" fill="#39B4EF" stroke="#002E47" stroke-miterlimit="10" stroke-linecap="round" stroke-linejoin="round"/>
<path d="M201.597 201.073C200.132 214.485 199.431 220.925 199.125 223.657C201.509 220.489 205.544 214.759 209.224 207.827C214.885 197.148 215.755 191.046 215.755 191.046L209.224 184.074H214.885L207.75 157.831C204.835 155.631 202.677 154.027 202.258 153.785C202.258 153.793 203.345 185.162 201.597 201.073Z" fill="#39B4EF" stroke="#002E47" stroke-miterlimit="10" stroke-linecap="round" stroke-linejoin="round"/>
<path d="M116.427 155.268C116.427 155.268 115.501 148.264 114.269 145.894C113.037 143.524 113.963 143.113 115.3 143.113C116.637 143.113 118.698 145.894 119.109 147.442C119.52 148.989 119.52 148.989 119.52 148.989L116.427 155.268Z" fill="white" stroke="#002E47" stroke-miterlimit="10" stroke-linecap="round" stroke-linejoin="round"/>
<path d="M121.162 168.349C121.162 168.349 115.396 160.313 115.299 159.185C115.194 158.049 119.213 144.556 119.309 144.25C119.414 143.944 124.56 137.963 124.971 137.657C125.382 137.35 126.719 137.036 126.928 137.447C127.137 137.858 127.137 138.785 126.719 139.301C126.308 139.817 122.805 144.145 122.805 144.145L122.088 147.957C122.088 147.957 123.835 145.483 123.835 145.177C123.835 144.87 126.412 142.09 127.846 140.744C129.288 139.406 131.349 137.552 131.857 138.374C132.372 139.196 132.372 139.712 132.066 140.123C131.76 140.534 127.226 145.169 127.025 145.483C126.815 145.789 123.626 153.93 123.626 153.93C123.626 153.93 127.331 148.675 127.846 147.748C128.361 146.821 132.477 143.831 132.887 143.315C133.298 142.799 135.255 142.388 134.844 144.137C134.434 145.886 130.834 148.36 130.834 148.36L128.877 153.301C128.877 153.301 133.886 149.827 134.659 149.44C135.432 149.054 137.164 149.827 136.584 150.601C136.004 151.375 130.608 155.614 130.608 155.614L128.49 159.475C128.49 159.475 136.777 168.543 136.97 173.556C137.164 178.569 136.97 186.476 136.97 186.476L123.674 178.569L124.641 175.289L121.162 168.349Z" fill="white" stroke="#002E47" stroke-miterlimit="10" stroke-linecap="round" stroke-linejoin="round"/>
<path d="M128.876 153.309L125.276 157.944C125.276 157.944 124.866 159.282 124.97 159.902" stroke="#002E47" stroke-miterlimit="10" stroke-linecap="round" stroke-linejoin="round"/>
<path d="M123.834 153.003L122.392 156.3C122.392 156.3 121.571 157.847 121.877 158.564" stroke="#002E47" stroke-miterlimit="10" stroke-linecap="round" stroke-linejoin="round"/>
<path d="M122.088 147.957C122.088 147.957 118.077 155.784 117.972 156.404C117.868 157.025 118.898 158.468 118.898 158.468" stroke="#002E47" stroke-miterlimit="10" stroke-linecap="round" stroke-linejoin="round"/>
<path d="M123.548 176.53L139.961 186.097L136.635 194.004L120.633 184.018L123.548 176.53Z" fill="white" stroke="#002E47" stroke-miterlimit="10" stroke-linecap="round" stroke-linejoin="round"/>
<path d="M120.011 182.358L141.828 196.704C141.828 196.704 129.152 229.557 128.741 230.597C128.322 231.636 122.089 244.943 117.732 247.853C113.367 250.763 104.855 249.513 101.319 245.355C97.7841 241.196 97.3733 235.787 98.6216 232.668C99.8618 229.557 120.011 182.358 120.011 182.358Z" fill="#39B4EF" stroke="#002E47" stroke-miterlimit="10" stroke-linecap="round" stroke-linejoin="round"/>
<path d="M270.707 313.534H249.559V317.846H270.707V313.534Z" fill="white" stroke="#002E47" stroke-miterlimit="10" stroke-linecap="round" stroke-linejoin="round"/>
<path d="M268.065 348.651H252.208L249.559 319.813H270.715L268.065 348.651Z" fill="#B3C7EB" stroke="#002E47" stroke-miterlimit="10" stroke-linecap="round" stroke-linejoin="round"/>
<path d="M272.8 316.379H247.473V321.505H272.8V316.379Z" fill="white" stroke="#002E47" stroke-miterlimit="10" stroke-linecap="round" stroke-linejoin="round"/>
<path d="M536.312 313.534H515.164V317.846H536.312V313.534Z" fill="white" stroke="#002E47" stroke-miterlimit="10" stroke-linecap="round" stroke-linejoin="round"/>
<path d="M533.671 348.651H517.806L515.164 319.813H536.312L533.671 348.651Z" fill="#B3C7EB" stroke="#002E47" stroke-miterlimit="10" stroke-linecap="round" stroke-linejoin="round"/>
<path d="M538.398 316.379H513.07V321.505H538.398V316.379Z" fill="white" stroke="#002E47" stroke-miterlimit="10" stroke-linecap="round" stroke-linejoin="round"/>
<path d="M415.413 345.83H364.902V348.474H415.413V345.83Z" fill="#E2EDFF" stroke="#002E47" stroke-miterlimit="10" stroke-linecap="round" stroke-linejoin="round"/>
<path d="M359.725 281.141H258.285L264.575 348.474H366.015L359.725 281.141Z" fill="#E2EDFF" stroke="#002E47" stroke-miterlimit="10" stroke-linecap="round" stroke-linejoin="round"/>
<path d="M36.9961 348.651H575.74" stroke="#002E47" stroke-miterlimit="10" stroke-linecap="round" stroke-linejoin="round"/>
</svg>
