<svg width="621" height="382" viewBox="0 0 621 382" fill="none" xmlns="http://www.w3.org/2000/svg">
<path d="M515.178 36.1721C500.115 27.5052 484.206 20.4792 468.156 15.2337C434.206 4.14045 398.213 -0.197346 362.578 0.221597C262.065 1.38242 228.945 50.7478 163.875 49.587C98.8043 48.4262 17.3529 91.0624 12.2272 163.993C7.10157 236.924 26.1721 276.078 84.2744 306.862C142.377 337.645 245.221 293.508 328.882 308.022C412.551 322.546 488.668 344.61 546.185 310.929C600.794 278.949 621.087 207.825 606.924 148.606C595.197 99.5809 557.947 60.785 515.178 36.1721Z" fill="#39B4EF"/>
<path opacity="0.7" d="M515.178 36.1721C500.115 27.5052 484.206 20.4792 468.156 15.2337C434.206 4.14045 398.213 -0.197346 362.578 0.221597C262.065 1.38242 228.945 50.7478 163.875 49.587C98.8043 48.4262 17.3529 91.0624 12.2272 163.993C7.10157 236.924 26.1721 276.078 84.2744 306.862C142.377 337.645 245.221 293.508 328.882 308.022C412.551 322.546 488.668 344.61 546.185 310.929C600.794 278.949 621.087 207.825 606.924 148.606C595.197 99.5809 557.947 60.785 515.178 36.1721Z" fill="white"/>
<path d="M511.149 247.878H501.309V268.336H511.149V247.878Z" fill="#002E47" stroke="#002E47" stroke-miterlimit="10" stroke-linecap="round" stroke-linejoin="round"/>
<path d="M523.88 207.982H514.039V268.328H523.88V207.982Z" fill="#39B4EF" stroke="#002E47" stroke-miterlimit="10" stroke-linecap="round" stroke-linejoin="round"/>
<path d="M536.61 245.321H526.77V268.336H536.61V245.321Z" fill="#002E47" stroke="#002E47" stroke-miterlimit="10" stroke-linecap="round" stroke-linejoin="round"/>
<path d="M549.345 234.576H539.504V268.327H549.345V234.576Z" fill="#39B4EF" stroke="#002E47" stroke-miterlimit="10" stroke-linecap="round" stroke-linejoin="round"/>
<path d="M562.075 242.763H552.234V268.336H562.075V242.763Z" fill="#002E47" stroke="#002E47" stroke-miterlimit="10" stroke-linecap="round" stroke-linejoin="round"/>
<path d="M574.806 234.576H564.965V268.327H574.806V234.576Z" fill="#39B4EF" stroke="#002E47" stroke-miterlimit="10" stroke-linecap="round" stroke-linejoin="round"/>
<path d="M587.536 221.284H577.695V268.336H587.536V221.284Z" fill="#002E47" stroke="#002E47" stroke-miterlimit="10" stroke-linecap="round" stroke-linejoin="round"/>
<path d="M600.267 234.576H590.426V268.327H600.267V234.576Z" fill="#39B4EF" stroke="#002E47" stroke-miterlimit="10" stroke-linecap="round" stroke-linejoin="round"/>
<path d="M612.997 254.014H603.156V268.336H612.997V254.014Z" fill="#002E47" stroke="#002E47" stroke-miterlimit="10" stroke-linecap="round" stroke-linejoin="round"/>
<path d="M501.309 187.533H533.547" stroke="#002E47" stroke-width="3" stroke-miterlimit="10" stroke-linecap="round" stroke-linejoin="round"/>
<path d="M501.309 194.175H554.521" stroke="#002E47" stroke-miterlimit="10" stroke-linecap="round" stroke-linejoin="round"/>
<path d="M497.305 52.2839H556.656V123.373" stroke="#002E47" stroke-miterlimit="10" stroke-linecap="round" stroke-linejoin="round"/>
<path d="M557.168 107.008H608.844V123.111" stroke="#002E47" stroke-miterlimit="10" stroke-linecap="round" stroke-linejoin="round"/>
<path d="M583.777 107.515V123.111" stroke="#002E47" stroke-miterlimit="10" stroke-linecap="round" stroke-linejoin="round"/>
<path d="M474.793 66.6066V119.28H497.819" stroke="#002E47" stroke-miterlimit="10" stroke-linecap="round" stroke-linejoin="round"/>
<path d="M495.374 69.4868H460.298C457.565 69.4868 455.355 67.2786 455.355 64.5467V44.4375C455.355 41.7056 457.565 39.4974 460.298 39.4974H495.374C498.107 39.4974 500.316 41.7056 500.316 44.4375V64.5467C500.316 67.2786 498.098 69.4868 495.374 69.4868Z" fill="#39B4EF" stroke="#002E47" stroke-miterlimit="10" stroke-linecap="round" stroke-linejoin="round"/>
<path d="M524.538 132.389H489.462C486.729 132.389 484.52 130.181 484.52 127.449V107.34C484.52 104.608 486.729 102.4 489.462 102.4H524.538C527.271 102.4 529.48 104.608 529.48 107.34V127.449C529.48 130.181 527.262 132.389 524.538 132.389Z" fill="#002E47" stroke="#002E47" stroke-miterlimit="10" stroke-linecap="round" stroke-linejoin="round"/>
<path d="M579.28 98.1232H544.204C541.471 98.1232 539.262 95.9151 539.262 93.1832V73.0739C539.262 70.3421 541.471 68.1339 544.204 68.1339H579.28C582.013 68.1339 584.222 70.3421 584.222 73.0739V93.1832C584.222 95.9151 582.013 98.1232 579.28 98.1232Z" fill="white" stroke="#002E47" stroke-miterlimit="10" stroke-linecap="round" stroke-linejoin="round"/>
<path d="M563.238 130.609H548.489C546.35 130.609 544.621 128.881 544.621 126.742V119.481C544.621 117.342 546.35 115.614 548.489 115.614H563.238C565.377 115.614 567.106 117.342 567.106 119.481V126.742C567.106 128.881 565.368 130.609 563.238 130.609Z" fill="#39B4EF" stroke="#002E47" stroke-miterlimit="10" stroke-linecap="round" stroke-linejoin="round"/>
<path d="M589.609 130.609H574.86C572.721 130.609 570.992 128.881 570.992 126.742V119.481C570.992 117.342 572.721 115.614 574.86 115.614H589.609C591.748 115.614 593.477 117.342 593.477 119.481V126.742C593.477 128.881 591.748 130.609 589.609 130.609Z" fill="#39B4EF" stroke="#002E47" stroke-miterlimit="10" stroke-linecap="round" stroke-linejoin="round"/>
<path d="M615.988 130.609H601.239C599.1 130.609 597.371 128.881 597.371 126.742V119.481C597.371 117.342 599.1 115.614 601.239 115.614H615.988C618.127 115.614 619.856 117.342 619.856 119.481V126.742C619.856 128.881 618.118 130.609 615.988 130.609Z" fill="#39B4EF" stroke="#002E47" stroke-miterlimit="10" stroke-linecap="round" stroke-linejoin="round"/>
<path d="M468.113 54.0033H486.869" stroke="#002E47" stroke-miterlimit="10" stroke-linecap="round" stroke-linejoin="round"/>
<path d="M497.504 117.133H516.26" stroke="white" stroke-miterlimit="10" stroke-linecap="round" stroke-linejoin="round"/>
<path d="M497.504 120.886H516.26" stroke="white" stroke-miterlimit="10" stroke-linecap="round" stroke-linejoin="round"/>
<path d="M550.656 84.6298H576.922" stroke="#002E47" stroke-miterlimit="10" stroke-linecap="round" stroke-linejoin="round"/>
<path d="M550.656 81.1299H576.922" stroke="#002E47" stroke-miterlimit="10" stroke-linecap="round" stroke-linejoin="round"/>
<path d="M193.254 91.8479V98.3939" stroke="#002E47" stroke-miterlimit="10" stroke-linecap="round" stroke-linejoin="round"/>
<path d="M209.445 91.8479V98.3939" stroke="#002E47" stroke-miterlimit="10" stroke-linecap="round" stroke-linejoin="round"/>
<path d="M225.625 91.8479V98.3939" stroke="#002E47" stroke-miterlimit="10" stroke-linecap="round" stroke-linejoin="round"/>
<path d="M241.812 91.8479V98.3939" stroke="#002E47" stroke-miterlimit="10" stroke-linecap="round" stroke-linejoin="round"/>
<path d="M258.004 91.8479V98.3939" stroke="#002E47" stroke-miterlimit="10" stroke-linecap="round" stroke-linejoin="round"/>
<path d="M274.191 91.8479V98.3939" stroke="#002E47" stroke-miterlimit="10" stroke-linecap="round" stroke-linejoin="round"/>
<path d="M290.379 91.8479V98.3939" stroke="#002E47" stroke-miterlimit="10" stroke-linecap="round" stroke-linejoin="round"/>
<path d="M306.57 91.8479V98.3939" stroke="#002E47" stroke-miterlimit="10" stroke-linecap="round" stroke-linejoin="round"/>
<path d="M322.758 91.8479V98.3939" stroke="#002E47" stroke-miterlimit="10" stroke-linecap="round" stroke-linejoin="round"/>
<path d="M338.895 91.8479V98.3939" stroke="#002E47" stroke-miterlimit="10" stroke-linecap="round" stroke-linejoin="round"/>
<path d="M355.074 91.8479V98.3939" stroke="#002E47" stroke-miterlimit="10" stroke-linecap="round" stroke-linejoin="round"/>
<path d="M371.266 91.8479V98.3939" stroke="#002E47" stroke-miterlimit="10" stroke-linecap="round" stroke-linejoin="round"/>
<path d="M387.402 91.8479V98.3939" stroke="#002E47" stroke-miterlimit="10" stroke-linecap="round" stroke-linejoin="round"/>
<path d="M403.59 91.8479V98.3939" stroke="#002E47" stroke-miterlimit="10" stroke-linecap="round" stroke-linejoin="round"/>
<path d="M419.777 91.8479V98.3939" stroke="#002E47" stroke-miterlimit="10" stroke-linecap="round" stroke-linejoin="round"/>
<path d="M188.086 91.8479H423.053" stroke="#002E47" stroke-miterlimit="10" stroke-linecap="round" stroke-linejoin="round"/>
<path d="M200.484 86.6896L216.324 75.3258L232.173 41.7667L249.051 76.0153L263.171 58.1142L280.05 70.508L296.929 24.241L314.148 56.0457L328.617 39.5149L342.396 60.6453L362.077 49.2815L377.874 56.4908L393.399 49.2815L414.181 24.625" stroke="#002E47" stroke-width="3" stroke-miterlimit="10" stroke-linecap="round" stroke-linejoin="round"/>
<path d="M387.969 2.28137H414.575V15.5828H407.668L413.038 23.7609L403.101 15.5828H387.969V2.28137Z" fill="#002E47"/>
<path d="M387.969 85.4065H414.575V72.1138H407.668L413.038 63.927L403.101 72.1138H387.969V85.4065Z" fill="#39B4EF"/>
<path d="M199.387 72.0615L218.763 57.5294L233.747 69.4169L248.722 56.6479L263.697 70.2985L283.528 45.2055L298.939 54.0121L313.923 70.7436L328.899 52.6854L346.083 41.243L362.377 61.9371L378.679 66.7811L391.891 65.4544L413.04 55.7664" stroke="#39B4EF" stroke-width="3" stroke-miterlimit="10" stroke-linecap="round" stroke-linejoin="round"/>
<path d="M12.6523 136.361C18.136 142.872 26.3527 147.009 35.5387 147.009C47.6674 147.009 58.102 139.799 62.7998 129.431" stroke="#B3C7EB" stroke-width="9" stroke-miterlimit="10"/>
<path d="M9.34296 102.688C6.98534 106.965 5.64062 111.879 5.64062 117.115C5.64062 124.447 8.27767 131.159 12.6611 136.361" stroke="#39B4EF" stroke-width="9" stroke-miterlimit="10"/>
<path d="M62.8015 129.431C64.5043 125.678 65.4473 121.506 65.4473 117.115C65.4473 100.602 52.0525 87.222 35.5405 87.222C24.2588 87.222 14.4267 93.4713 9.33594 102.697" stroke="#002E47" stroke-width="9" stroke-miterlimit="10"/>
<path d="M84.9789 102.522C84.9789 100.393 83.2587 98.6731 81.1281 98.6731C78.9975 98.6731 77.2773 100.393 77.2773 102.522C77.2773 104.652 78.9975 106.371 81.1281 106.371C83.2587 106.371 84.9789 104.643 84.9789 102.522Z" fill="#002E47"/>
<path d="M84.9789 119.07C84.9789 116.941 83.2587 115.221 81.1281 115.221C78.9975 115.221 77.2773 116.941 77.2773 119.07C77.2773 121.2 78.9975 122.919 81.1281 122.919C83.2587 122.919 84.9789 121.191 84.9789 119.07Z" fill="#B3C7EB"/>
<path d="M84.9789 137.635C84.9789 135.505 83.2587 133.786 81.1281 133.786C78.9975 133.786 77.2773 135.505 77.2773 137.635C77.2773 139.764 78.9975 141.484 81.1281 141.484C83.2587 141.484 84.9789 139.764 84.9789 137.635Z" fill="#39B4EF"/>
<path d="M90.7578 103.002H131.178" stroke="#002E47" stroke-miterlimit="10" stroke-linecap="round" stroke-linejoin="round"/>
<path d="M90.7578 118.878H131.178" stroke="#002E47" stroke-miterlimit="10" stroke-linecap="round" stroke-linejoin="round"/>
<path d="M90.7578 137.635H131.178" stroke="#002E47" stroke-miterlimit="10" stroke-linecap="round" stroke-linejoin="round"/>
<path d="M118.642 192.534H4.25391V201.384H118.642V192.534Z" stroke="#002E47" stroke-miterlimit="10" stroke-linecap="round" stroke-linejoin="round"/>
<path d="M118.642 206.551H4.25391V215.401H118.642V206.551Z" stroke="#002E47" stroke-miterlimit="10" stroke-linecap="round" stroke-linejoin="round"/>
<path d="M118.642 220.568H4.25391V229.418H118.642V220.568Z" stroke="#002E47" stroke-miterlimit="10" stroke-linecap="round" stroke-linejoin="round"/>
<path d="M118.642 234.585H4.25391V243.435H118.642V234.585Z" stroke="#002E47" stroke-miterlimit="10" stroke-linecap="round" stroke-linejoin="round"/>
<path d="M118.642 248.594H4.25391V257.444H118.642V248.594Z" stroke="#002E47" stroke-miterlimit="10" stroke-linecap="round" stroke-linejoin="round"/>
<path d="M6.14062 186.058H38.3702" stroke="#002E47" stroke-width="3" stroke-miterlimit="10" stroke-linecap="round" stroke-linejoin="round"/>
<path d="M6.14062 192.7H59.353" stroke="#002E47" stroke-miterlimit="10" stroke-linecap="round" stroke-linejoin="round"/>
<path d="M118.642 205.067H4.25391V213.917H118.642V205.067Z" stroke="#002E47" stroke-miterlimit="10" stroke-linecap="round" stroke-linejoin="round"/>
<path d="M118.642 219.076H4.25391V227.926H118.642V219.076Z" stroke="#002E47" stroke-miterlimit="10" stroke-linecap="round" stroke-linejoin="round"/>
<path d="M118.642 233.093H4.25391V241.943H118.642V233.093Z" stroke="#002E47" stroke-miterlimit="10" stroke-linecap="round" stroke-linejoin="round"/>
<path d="M118.642 247.11H4.25391V255.96H118.642V247.11Z" stroke="#002E47" stroke-miterlimit="10" stroke-linecap="round" stroke-linejoin="round"/>
<path d="M118.642 261.127H4.25391V269.977H118.642V261.127Z" stroke="#002E47" stroke-miterlimit="10" stroke-linecap="round" stroke-linejoin="round"/>
<path d="M46.7784 205.067H4.25391V213.917H46.7784V205.067Z" fill="#002E47" stroke="#002E47" stroke-miterlimit="10" stroke-linecap="round" stroke-linejoin="round"/>
<path d="M61.9108 219.076H4.25391V227.926H61.9108V219.076Z" fill="#39B4EF" stroke="#002E47" stroke-miterlimit="10" stroke-linecap="round" stroke-linejoin="round"/>
<path d="M26.1449 233.093H4.25391V241.943H26.1449V233.093Z" fill="#002E47" stroke="#002E47" stroke-miterlimit="10" stroke-linecap="round" stroke-linejoin="round"/>
<path d="M98.3492 247.11H4.25391V255.96H98.3492V247.11Z" fill="#39B4EF" stroke="#002E47" stroke-miterlimit="10" stroke-linecap="round" stroke-linejoin="round"/>
<path d="M74.284 261.127H4.25391V269.977H74.284V261.127Z" fill="#002E47" stroke="#002E47" stroke-miterlimit="10" stroke-linecap="round" stroke-linejoin="round"/>
<path d="M442.804 295.541H180.593C175.965 295.541 172.219 291.797 172.219 287.171V131.56C172.219 126.934 175.965 123.19 180.593 123.19H442.804C447.432 123.19 451.178 126.934 451.178 131.56V287.171C451.178 291.788 447.432 295.541 442.804 295.541Z" fill="#002E47" stroke="#002E47" stroke-miterlimit="10" stroke-linecap="round" stroke-linejoin="round"/>
<path d="M441.434 140.768V277.963C441.434 282.432 437.793 286.071 433.322 286.071H190.077C185.597 286.071 181.965 282.432 181.965 277.963V140.768C181.965 136.299 185.597 132.66 190.077 132.66H433.322C437.802 132.66 441.434 136.291 441.434 140.768Z" fill="white" stroke="#002E47" stroke-miterlimit="10" stroke-linecap="round" stroke-linejoin="round"/>
<path d="M441.434 265.561V277.954C441.434 282.423 437.793 286.063 433.322 286.063H190.077C185.597 286.063 181.965 282.423 181.965 277.954V265.561H441.434Z" fill="white" stroke="#002E47" stroke-miterlimit="10" stroke-linecap="round" stroke-linejoin="round"/>
<path d="M229.125 183.596H200.493C196.957 183.596 194.102 180.733 194.102 177.207V148.588C194.102 145.054 196.966 142.199 200.493 142.199H229.125C232.662 142.199 235.517 145.062 235.517 148.588V177.207C235.526 180.733 232.662 183.596 229.125 183.596Z" fill="white" stroke="#002E47" stroke-miterlimit="10" stroke-linecap="round" stroke-linejoin="round"/>
<path d="M355 201C355 225.301 335.301 245 311 245C286.699 245 267 225.301 267 201C267 176.699 286.699 157 311 157C335.301 157 355 176.699 355 201Z" fill="#39B4EF"/>
<path d="M310.962 188.921C314.51 188.921 317.386 186.057 317.386 182.526C317.386 178.994 314.51 176.131 310.962 176.131C307.414 176.131 304.537 178.994 304.537 182.526C304.537 186.057 307.414 188.921 310.962 188.921Z" fill="white"/>
<path d="M310.962 207.395C314.51 207.395 317.386 204.532 317.386 201C317.386 197.468 314.51 194.605 310.962 194.605C307.414 194.605 304.537 197.468 304.537 201C304.537 204.532 307.414 207.395 310.962 207.395Z" fill="white"/>
<path d="M310.962 225.87C314.51 225.87 317.386 223.007 317.386 219.475C317.386 215.943 314.51 213.08 310.962 213.08C307.414 213.08 304.537 215.943 304.537 219.475C304.537 223.007 307.414 225.87 310.962 225.87Z" fill="white"/>
<path d="M293.83 207.395C297.378 207.395 300.255 204.532 300.255 201C300.255 197.468 297.378 194.605 293.83 194.605C290.282 194.605 287.406 197.468 287.406 201C287.406 204.532 290.282 207.395 293.83 207.395Z" fill="white"/>
<path d="M329.521 207.395C333.07 207.395 335.946 204.532 335.946 201C335.946 197.468 333.07 194.605 329.521 194.605C325.973 194.605 323.097 197.468 323.097 201C323.097 204.532 325.973 207.395 329.521 207.395Z" fill="white"/>
<path d="M296.247 273.285H214.402V278.024H296.247V273.285Z" fill="#39B4EF" stroke="#002E47" stroke-miterlimit="10" stroke-linecap="round" stroke-linejoin="round"/>
<path d="M311.317 273.285H300.551V278.024H311.317V273.285Z" fill="#39B4EF" stroke="#002E47" stroke-miterlimit="10" stroke-linecap="round" stroke-linejoin="round"/>
<path d="M201.593 295.541H180.34C175.86 295.541 172.228 291.91 172.228 287.433V192.734C166.5 196.976 154.615 205.992 150.564 210.723C145.15 217.042 141.081 226.966 139.282 237.343C137.475 247.721 130.707 256.745 132.515 261.703C134.322 266.669 141.09 296.894 143.351 309.078C145.604 321.263 146.058 331.186 146.058 333.892C146.058 336.598 139.291 370.89 139.291 370.89L188.495 372.697C188.495 372.697 187.596 355.555 189.395 350.135C191.202 344.723 198.878 332.085 197.969 324.413C197.061 316.881 202.257 303.702 201.593 295.541Z" fill="white" stroke="#002E47" stroke-miterlimit="10" stroke-linecap="round" stroke-linejoin="round"/>
<path d="M172.217 209.728L167.258 215.488C167.258 215.488 165.45 225.15 164.551 229.663C163.651 234.175 161.844 237.78 161.844 237.78C161.844 237.78 165.005 244.998 166.812 247.703C168.62 250.409 169.519 253.115 169.519 253.115L172.226 254.834V209.728H172.217Z" fill="#002E47" stroke="#002E47" stroke-miterlimit="10" stroke-linecap="round" stroke-linejoin="round"/>
<path d="M149.551 238.923C149.551 238.923 153.201 238.399 156.842 238.399" stroke="#002E47" stroke-miterlimit="10" stroke-linecap="round" stroke-linejoin="round"/>
<path d="M162.047 211.849C162.047 211.849 167.26 213.411 167.26 215.497" stroke="#002E47" stroke-miterlimit="10" stroke-linecap="round" stroke-linejoin="round"/>
<path d="M130.727 376.729C130.727 376.729 132.979 355.31 132.979 353.059C132.979 350.807 132.979 348.546 132.979 346.294C132.979 344.043 135.232 342.349 135.232 342.349C135.232 342.349 157.228 337.837 179.215 345.169C201.211 352.5 196.129 364.335 196.129 364.335L195.002 381.241" fill="white"/>
<path d="M130.727 376.729C130.727 376.729 132.979 355.31 132.979 353.059C132.979 350.807 132.979 348.546 132.979 346.294C132.979 344.043 135.232 342.349 135.232 342.349C135.232 342.349 157.228 337.837 179.215 345.169C201.211 352.5 196.129 364.335 196.129 364.335L195.002 381.241" stroke="#002E47" stroke-miterlimit="10" stroke-linecap="round" stroke-linejoin="round"/>
<path d="M160.047 270.771C160.047 270.771 168.159 253.132 169.058 246.359C169.958 239.595 168.159 223.797 170.412 217.487C172.665 211.168 171.311 203.051 176.734 199.892C182.147 196.732 189.369 197.64 190.722 210.269C192.076 222.898 190.722 242.755 191.176 249.519C191.63 256.283 203.366 266.215 203.811 280.651C204.265 295.088 199.297 309.977 197.943 316.297C196.59 322.616 191.176 337.505 191.176 337.505" fill="white"/>
<path d="M160.047 270.771C160.047 270.771 168.159 253.132 169.058 246.359C169.958 239.595 168.159 223.797 170.412 217.487C172.665 211.168 171.311 203.051 176.734 199.892C182.147 196.732 189.369 197.64 190.722 210.269C192.076 222.898 190.722 242.755 191.176 249.519C191.63 256.283 203.366 266.215 203.811 280.651C204.265 295.088 199.297 309.977 197.943 316.297C196.59 322.616 191.176 337.505 191.176 337.505" stroke="#002E47" stroke-miterlimit="10" stroke-linecap="round" stroke-linejoin="round"/>
<path d="M172.648 214.485C172.648 214.485 176.281 213.42 180.795 214.328C185.309 215.227 188.016 216.134 188.016 216.134C188.016 216.134 188.47 211.622 188.016 207.109C188.016 207.109 188.619 201.96 185.493 199.874C182.367 197.788 176.115 198.312 174.028 202.999C171.949 207.686 172.648 214.485 172.648 214.485Z" stroke="#002E47" stroke-miterlimit="10" stroke-linecap="round" stroke-linejoin="round"/>
<path d="M183.93 222.785C183.93 222.785 173.513 219.66 170.902 223.824" stroke="#002E47" stroke-miterlimit="10" stroke-linecap="round" stroke-linejoin="round"/>
<path d="M173.512 225.386C173.512 225.386 176.638 226.424 183.414 225.91" stroke="#002E47" stroke-miterlimit="10" stroke-linecap="round" stroke-linejoin="round"/>
<path d="M492.624 261.703C494.431 256.737 487.655 247.721 485.857 237.343C484.049 226.966 479.989 217.042 474.575 210.723C470.052 205.442 455.766 194.82 451.182 191.469V287.442C451.182 291.919 447.55 295.55 443.07 295.55H423.537C422.864 303.711 428.06 316.89 427.178 324.422C426.279 332.094 433.945 344.723 435.753 350.143C437.56 355.555 436.652 372.705 436.652 372.705L485.857 370.899C485.857 370.899 479.089 336.606 479.089 333.901C479.089 331.195 479.543 321.271 481.796 309.087C484.049 296.894 490.825 266.66 492.624 261.703Z" fill="white" stroke="#002E47" stroke-miterlimit="10" stroke-linecap="round" stroke-linejoin="round"/>
<path d="M460.579 229.662C459.68 225.15 457.872 215.488 457.872 215.488L451.184 207.72V255.942L455.619 253.123C455.619 253.123 456.519 250.418 458.326 247.712C460.134 245.006 463.295 237.788 463.295 237.788C463.295 237.788 461.479 234.175 460.579 229.662Z" fill="#002E47" stroke="#002E47" stroke-miterlimit="10" stroke-linecap="round" stroke-linejoin="round"/>
<path d="M475.58 238.923C475.58 238.923 471.93 238.399 468.289 238.399" stroke="#002E47" stroke-miterlimit="10" stroke-linecap="round" stroke-linejoin="round"/>
<path d="M463.076 211.849C463.076 211.849 457.863 213.411 457.863 215.497" stroke="#002E47" stroke-miterlimit="10" stroke-linecap="round" stroke-linejoin="round"/>
<path d="M494.398 376.729C494.398 376.729 492.145 355.31 492.145 353.059C492.145 350.807 492.145 348.546 492.145 346.294C492.145 344.043 489.892 342.349 489.892 342.349C489.892 342.349 467.897 337.837 445.91 345.168C423.914 352.5 428.996 364.335 428.996 364.335L430.122 381.241" fill="white"/>
<path d="M494.398 376.729C494.398 376.729 492.145 355.31 492.145 353.059C492.145 350.807 492.145 348.546 492.145 346.294C492.145 344.043 489.892 342.349 489.892 342.349C489.892 342.349 467.897 337.837 445.91 345.168C423.914 352.5 428.996 364.335 428.996 364.335L430.122 381.241" stroke="#002E47" stroke-miterlimit="10" stroke-linecap="round" stroke-linejoin="round"/>
<path d="M460.9 274.847C460.9 274.847 448.291 250.4 445.846 244.029C443.401 237.657 441.472 221.877 437.813 216.256C434.146 210.636 433.578 202.422 427.57 200.616C421.572 198.8 414.752 201.358 416.376 213.961C418 226.564 423.938 245.556 425.073 252.242C426.208 258.927 417.101 271.312 420.026 285.46C422.942 299.608 431.238 312.936 434.023 318.766" fill="white"/>
<path d="M460.9 274.847C460.9 274.847 448.291 250.4 445.846 244.029C443.401 237.657 441.472 221.877 437.813 216.256C434.146 210.636 433.578 202.422 427.57 200.616C421.572 198.8 414.752 201.358 416.376 213.961C418 226.564 423.938 245.556 425.073 252.242C426.208 258.927 417.101 271.312 420.026 285.46C422.942 299.608 431.238 312.936 434.023 318.766" stroke="#002E47" stroke-miterlimit="10" stroke-linecap="round" stroke-linejoin="round"/>
<path d="M434.94 213.865C434.94 213.865 431.159 213.682 426.976 215.602C422.794 217.531 420.375 219.032 420.375 219.032C420.375 219.032 418.89 214.746 418.279 210.252C418.279 210.252 416.498 205.381 419.056 202.623C421.615 199.865 427.814 198.923 430.932 202.999C434.04 207.083 434.94 213.865 434.94 213.865Z" stroke="#002E47" stroke-miterlimit="10" stroke-linecap="round" stroke-linejoin="round"/>
<path d="M425.902 224.557C425.902 224.557 435.307 219.093 438.808 222.541" stroke="#002E47" stroke-miterlimit="10" stroke-linecap="round" stroke-linejoin="round"/>
<path d="M436.642 224.67C436.642 224.67 433.848 226.407 427.133 227.481" stroke="#002E47" stroke-miterlimit="10" stroke-linecap="round" stroke-linejoin="round"/>
</svg>
