<svg width="478" height="468" viewBox="0 0 478 468" fill="none" xmlns="http://www.w3.org/2000/svg">
<g clip-path="url(#clip0_66_7445)">
<path d="M371.484 22.3468C371.409 22.3468 371.318 22.3318 371.243 22.3016C370.94 22.1657 370.789 21.8185 370.925 21.5166L373.448 15.5687C373.584 15.2668 373.931 15.1158 374.234 15.2517C374.536 15.3875 374.687 15.7347 374.551 16.0367L372.028 21.9845C371.937 22.211 371.726 22.3468 371.484 22.3468Z" fill="white"/>
<path d="M256.599 26.0756C256.599 26.9059 255.935 27.5701 255.104 27.5701C254.273 27.5701 253.608 26.9059 253.608 26.0756C253.608 25.2453 254.273 24.5811 255.104 24.5811C255.935 24.5811 256.599 25.2453 256.599 26.0756Z" fill="white"/>
<path d="M222.459 179.769L218.727 167.813C217.73 164.628 214.785 162.454 211.446 162.454H124.448C120.037 162.454 116.472 166.017 116.472 170.425V181.385V185.914V335.139C116.472 337.283 118.209 339.019 120.354 339.019H347.284C349.232 339.019 350.819 337.433 350.819 335.486L355.351 187.74C355.351 184.238 352.511 181.4 349.006 181.4H224.679C223.652 181.4 222.761 180.736 222.459 179.769Z" fill="#002E47"/>
<path d="M217.927 179.769L214.195 167.813C213.198 164.628 210.252 162.454 206.914 162.454H119.916C115.505 162.454 111.939 166.017 111.939 170.425V181.385V185.914V335.139C111.939 337.283 113.677 339.019 115.822 339.019H347.283C349.232 339.019 350.818 337.433 350.818 335.486V187.74C350.818 184.238 347.978 181.4 344.474 181.4H220.147C219.12 181.4 218.229 180.736 217.927 179.769Z" fill="#39B4EF"/>
<path d="M338.264 328.647H287.205C286.51 328.647 285.936 328.074 285.936 327.379V314.2C285.936 313.506 286.51 312.932 287.205 312.932H338.249C338.944 312.932 339.518 313.506 339.518 314.2V327.379C339.533 328.074 338.959 328.647 338.264 328.647Z" fill="#002E47"/>
<path d="M121.336 205.659H339.534" stroke="#39B4EF" stroke-miterlimit="10" stroke-linecap="round"/>
<path d="M49.9878 423.693C26.5879 423.693 7.55371 404.672 7.55371 381.288C7.55371 365.482 16.255 351.095 30.2588 343.744C32.6758 342.476 35.682 343.396 36.966 345.827C38.2501 348.257 37.3135 351.246 34.8813 352.53C24.1557 358.176 17.4787 369.196 17.4787 381.303C17.4787 399.222 32.0564 413.79 49.9878 413.79C56.9066 413.79 63.5233 411.646 69.0975 407.585C71.3182 405.97 74.415 406.468 76.0314 408.672C77.6478 410.891 77.1493 413.986 74.9437 415.601C67.6624 420.9 59.0366 423.693 49.9878 423.693Z" fill="#39B4EF"/>
<path d="M83.131 404.023C82.2548 404.023 81.3787 403.796 80.578 403.313C78.2365 401.894 77.4812 398.86 78.8861 396.505C81.9225 391.463 83.5238 385.681 83.5238 379.763C83.5238 377.031 85.7444 374.812 88.4787 374.812C91.213 374.812 93.4336 377.031 93.4336 379.763C93.4336 387.477 91.3338 395.04 87.3759 401.622C86.4544 403.177 84.8078 404.023 83.131 404.023Z" fill="#002E47"/>
<path d="M84.9295 368.788C83.0714 368.788 81.2889 367.731 80.4429 365.935C75.0952 354.598 63.5388 347.276 51.0155 347.276C48.2812 347.276 46.0605 345.057 46.0605 342.325C46.0605 339.592 48.2812 337.373 51.0155 337.373C67.3758 337.373 82.4521 346.929 89.4162 361.723C90.5794 364.199 89.5219 367.158 87.0444 368.32C86.3646 368.637 85.6395 368.788 84.9295 368.788Z" fill="#353738"/>
<path d="M369.944 142.391C343.523 158.122 309.216 149.441 293.475 123.038C277.734 96.635 286.42 62.3516 312.841 46.6214C339.262 30.8913 373.569 39.5715 389.31 65.9747C405.036 92.3778 396.35 126.661 369.944 142.391Z" fill="#E2EDFF"/>
<path d="M369.944 142.391C343.523 158.122 309.216 149.441 293.475 123.038C277.734 96.635 286.42 62.3516 312.841 46.6214C339.262 30.8913 373.569 39.5715 389.31 65.9747C405.036 92.3778 396.35 126.661 369.944 142.391ZM318.718 56.4943C297.75 68.9788 290.846 96.1972 303.354 117.151C315.847 138.104 343.084 145.003 364.052 132.503C385.02 120.019 391.924 92.8005 379.415 71.8471C366.922 50.8937 339.685 44.0098 318.718 56.4943Z" fill="#B3C7EB"/>
<path d="M370.103 135.581L363.822 139.321L370.148 149.929L376.428 146.189L370.103 135.581Z" fill="#B3C7EB"/>
<path d="M411.607 212.558C407.347 215.094 401.833 213.705 399.296 209.448L366.379 154.242C365.88 153.412 366.152 152.34 366.983 151.841L379.385 144.444C380.216 143.946 381.289 144.218 381.787 145.048L414.704 200.255C417.257 204.512 415.867 210.022 411.607 212.558Z" fill="#39B4EF"/>
<path d="M414.281 208.165C410.021 210.701 404.507 209.313 401.969 205.056L369.385 150.407L366.983 151.842C366.152 152.34 365.88 153.412 366.379 154.242L399.296 209.448C401.833 213.706 407.347 215.094 411.607 212.558C413.707 211.305 415.112 209.328 415.686 207.124C415.263 207.516 414.795 207.863 414.281 208.165Z" fill="#002E47"/>
<path d="M343.719 55.2262L358.417 129.318C359.686 128.744 360.925 128.095 362.149 127.371C362.753 127.008 363.342 126.646 363.916 126.254L347.269 55.5281C346.075 55.3621 344.897 55.2715 343.719 55.2262Z" fill="#E2EDFF"/>
<path d="M342.782 132.82C346.347 132.775 349.928 132.247 353.432 131.205L337.797 55.4526C332.978 55.9961 328.204 57.4604 323.718 59.8909L342.782 132.82Z" fill="#E2EDFF"/>
<path d="M168.211 125.438C165.477 125.816 162.954 123.899 162.577 121.166L156.625 78.0063C156.247 75.2739 158.165 72.7528 160.9 72.3754C163.634 71.998 166.157 73.9152 166.534 76.6476L172.486 119.807C172.864 122.54 170.946 125.061 168.211 125.438Z" fill="#39B4EF"/>
<path d="M186.822 122.872C184.088 123.249 181.565 121.332 181.188 118.6L173.695 64.2236C173.317 61.4912 175.236 58.9701 177.97 58.5927C180.704 58.2153 183.227 60.1325 183.605 62.8649L191.098 117.241C191.46 119.974 189.557 122.495 186.822 122.872Z" fill="#B3C7EB"/>
<path d="M205.418 120.321C202.684 120.698 200.161 118.781 199.784 116.049L193.832 72.8887C193.454 70.1563 195.372 67.6353 198.107 67.2579C200.841 66.8805 203.364 68.7977 203.741 71.5301L209.693 114.69C210.071 117.407 208.153 119.943 205.418 120.321Z" fill="#39B4EF"/>
<path d="M224.483 117.694C221.749 118.071 219.226 116.154 218.849 113.422L209.045 42.319C208.667 39.5866 210.585 37.0656 213.32 36.6882C216.054 36.3108 218.577 38.228 218.954 40.9604L228.759 112.063C229.136 114.796 227.218 117.317 224.483 117.694Z" fill="#353738"/>
<path d="M145.93 54.4563L156.172 130.616C156.474 132.835 158.513 134.405 160.734 134.104L242.566 123.114" stroke="#B3C7EB" stroke-miterlimit="10" stroke-linecap="round" stroke-linejoin="round"/>
<path opacity="0.21" d="M311.103 403.947C377.602 451.621 360.35 404.943 331.86 339.004H297.417L291.918 391.146C297.93 394.844 304.305 399.071 311.103 403.947Z" fill="#B3C7EB"/>
<path d="M308.082 433.022L404.053 466.868C405.896 467.517 407.935 466.551 408.585 464.709L455.657 331.44C456.306 329.599 455.34 327.561 453.497 326.911L357.525 293.066C355.682 292.417 353.643 293.383 352.993 295.225L334.986 346.234C361.135 407.344 374.762 448.632 313.913 405.925L305.936 428.493C305.257 430.35 306.223 432.373 308.082 433.022Z" fill="#DCF8FF"/>
<path d="M290.15 436.404L391.364 447.062C393.313 447.273 395.065 445.854 395.261 443.907L410.081 303.362C410.292 301.414 408.872 299.663 406.924 299.467L310.408 289.307C347.253 377.136 393.554 463.079 311.103 403.962C304.094 398.935 297.553 394.603 291.374 390.844L286.978 432.509C286.782 434.456 288.202 436.192 290.15 436.404Z" fill="#DCF8FF"/>
<path d="M402.286 462.037L306.315 428.191C304.472 427.542 303.49 425.519 304.155 423.663L351.226 290.394C351.876 288.552 353.9 287.571 355.758 288.235L451.73 322.081C453.573 322.73 454.555 324.753 453.89 326.61L406.818 459.878C406.153 461.72 404.129 462.701 402.286 462.037Z" fill="white"/>
<path d="M402.286 462.037L306.315 428.191C304.472 427.542 303.49 425.519 304.155 423.663L351.226 290.394C351.876 288.552 353.9 287.571 355.758 288.235L451.73 322.081C453.573 322.73 454.555 324.753 453.89 326.61L406.818 459.878C406.153 461.72 404.129 462.701 402.286 462.037Z" fill="white"/>
<path opacity="0.21" d="M392.104 447.062C393.736 447.228 395.201 446.05 395.382 444.42L409.839 307.317L379.007 296.448L350.153 293.413L303.958 424.221C303.414 425.776 304.23 427.467 305.77 428.01L346.059 442.216" fill="#B3C7EB"/>
<path d="M397.119 443.257L295.906 432.6C293.957 432.388 292.537 430.652 292.748 428.705L307.568 288.16C307.779 286.212 309.517 284.793 311.465 285.005L412.679 295.662C414.628 295.874 416.048 297.61 415.836 299.557L401.017 440.102C400.805 442.05 399.068 443.469 397.119 443.257Z" fill="white"/>
<path opacity="0.21" d="M425.717 312.917L430.097 294.938L335.531 276.415C333.612 276.037 331.739 277.29 331.361 279.208L329.851 286.922L323.37 286.242L297.689 417.111C297.372 418.726 298.429 420.281 300.031 420.598L306.209 421.806C306.436 421.911 306.692 421.987 306.949 422.047L406.818 441.612C408.737 441.989 410.61 440.736 410.988 438.819L435.037 316.208L425.717 312.917Z" fill="#B3C7EB"/>
<path d="M403.962 438.23L304.093 418.666C302.175 418.288 300.921 416.432 301.299 414.499L328.505 275.811C328.883 273.894 330.741 272.641 332.675 273.018L432.544 292.583C434.462 292.96 435.716 294.832 435.338 296.749L408.132 435.438C407.754 437.355 405.881 438.608 403.962 438.23Z" fill="white"/>
<path d="M415.278 314.91C415.203 314.91 415.112 314.91 415.036 314.88C412.257 314.336 411.411 311.649 410.716 309.491C410.036 307.362 409.553 306.064 408.329 305.822C407.105 305.581 406.154 306.607 404.734 308.313C403.283 310.049 401.471 312.208 398.706 311.664C395.927 311.121 395.081 308.434 394.401 306.275C393.721 304.147 393.238 302.848 392.014 302.607C390.79 302.365 389.854 303.392 388.419 305.098C386.968 306.834 385.171 309.007 382.391 308.464C379.612 307.921 378.766 305.233 378.086 303.075C377.406 300.946 376.923 299.648 375.699 299.406C374.475 299.165 373.539 300.191 372.104 301.897C370.653 303.633 368.856 305.792 366.076 305.264C363.297 304.72 362.451 302.033 361.771 299.874C361.091 297.761 360.608 296.447 359.384 296.206C358.16 295.964 357.224 296.991 355.789 298.697C354.338 300.433 352.541 302.592 349.761 302.048C346.982 301.505 346.136 298.818 345.456 296.659C344.776 294.545 344.293 293.232 343.069 292.99C342.389 292.855 341.936 292.19 342.072 291.511C342.208 290.832 342.858 290.379 343.552 290.515C346.332 291.058 347.178 293.745 347.858 295.889C348.538 298.018 349.021 299.316 350.245 299.557C351.468 299.799 352.405 298.772 353.84 297.066C355.29 295.33 357.103 293.172 359.867 293.715C362.647 294.259 363.493 296.946 364.173 299.104C364.853 301.218 365.336 302.531 366.56 302.773C367.783 303.014 368.72 301.988 370.155 300.282C371.605 298.546 373.403 296.387 376.182 296.915C378.962 297.459 379.808 300.146 380.488 302.305C381.168 304.433 381.651 305.732 382.875 305.973C384.083 306.215 385.035 305.188 386.47 303.482C387.92 301.746 389.718 299.587 392.497 300.116C395.277 300.659 396.123 303.346 396.803 305.49C397.483 307.619 397.966 308.917 399.19 309.158C400.413 309.4 401.365 308.373 402.785 306.668C404.235 304.932 406.048 302.773 408.812 303.316C411.592 303.86 412.438 306.547 413.133 308.69C413.813 310.819 414.296 312.117 415.52 312.359C416.2 312.495 416.653 313.159 416.517 313.838C416.411 314.487 415.882 314.91 415.278 314.91Z" fill="#353738"/>
<path d="M412.861 328.436C412.816 328.436 412.785 328.436 412.74 328.421L339.005 313.974C338.658 313.914 338.431 313.582 338.507 313.234C338.567 312.887 338.899 312.661 339.247 312.736L412.982 327.183C413.329 327.244 413.556 327.576 413.48 327.923C413.42 328.24 413.163 328.436 412.861 328.436Z" fill="#B3C7EB"/>
<path d="M411.35 336.135C411.304 336.135 411.274 336.135 411.229 336.12L337.494 321.673C337.147 321.613 336.935 321.281 336.996 320.933C337.056 320.586 337.388 320.36 337.736 320.435L411.471 334.882C411.818 334.943 412.03 335.275 411.969 335.622C411.909 335.924 411.652 336.135 411.35 336.135Z" fill="#B3C7EB"/>
<path d="M404.733 361.3C404.552 361.3 404.385 361.285 404.204 361.255L334.503 347.593C333.793 347.457 333.189 347.05 332.796 346.461C332.388 345.872 332.252 345.148 332.388 344.453L335.032 331.003C335.319 329.553 336.739 328.602 338.189 328.889L407.89 342.551C408.6 342.687 409.204 343.095 409.597 343.683C410.005 344.272 410.141 344.997 410.005 345.691L407.361 359.142C407.225 359.851 406.818 360.455 406.228 360.848C405.775 361.134 405.262 361.3 404.733 361.3ZM337.66 330.082C337.388 330.082 337.116 330.157 336.875 330.323C336.557 330.535 336.346 330.852 336.27 331.229L333.627 344.68C333.551 345.057 333.627 345.434 333.838 345.751C334.05 346.068 334.367 346.28 334.745 346.355L404.446 360.017C404.824 360.093 405.201 360.017 405.503 359.806C405.821 359.595 406.032 359.278 406.108 358.9L408.751 345.45C408.827 345.072 408.751 344.695 408.54 344.378C408.328 344.061 408.011 343.849 407.633 343.774L337.932 330.112C337.841 330.097 337.751 330.082 337.66 330.082Z" fill="#39B4EF"/>
<path d="M341.769 360.757C335.485 359.519 329.382 363.625 328.143 369.905C326.905 376.185 331.013 382.284 337.298 383.522C343.582 384.76 349.685 380.654 350.924 374.374L339.534 372.139L341.769 360.757Z" fill="#39B4EF"/>
<path d="M344.292 357.209L341.634 370.736L355.169 373.393C356.635 365.92 351.77 358.674 344.292 357.209Z" fill="#B3C7EB"/>
<path d="M404.008 373.589C403.963 373.589 403.933 373.589 403.888 373.574L366.242 366.192C365.895 366.131 365.683 365.799 365.744 365.452C365.804 365.105 366.136 364.878 366.484 364.954L404.129 372.336C404.477 372.396 404.688 372.728 404.628 373.075C404.567 373.377 404.295 373.589 404.008 373.589Z" fill="#B3C7EB"/>
<path d="M380.381 377.982C380.336 377.982 380.306 377.982 380.26 377.967L364.535 374.887C364.187 374.827 363.96 374.495 364.036 374.147C364.096 373.8 364.444 373.574 364.776 373.649L380.502 376.729C380.85 376.789 381.076 377.121 381.001 377.468C380.94 377.77 380.668 377.982 380.381 377.982Z" fill="#B3C7EB"/>
<path d="M395.383 422.485C395.337 422.485 395.307 422.485 395.262 422.47L320.605 407.842C320.258 407.782 320.047 407.449 320.107 407.102L323.778 388.398C323.838 388.051 324.186 387.824 324.518 387.9C324.865 387.96 325.092 388.292 325.017 388.64L321.467 406.725L395.503 421.232C395.851 421.293 396.062 421.625 396.002 421.972C395.941 422.274 395.67 422.485 395.383 422.485Z" fill="#B3C7EB"/>
<path d="M327.75 404.928C327.705 404.928 327.675 404.928 327.629 404.913C327.282 404.853 327.055 404.521 327.131 404.174L328.369 397.878C328.43 397.531 328.777 397.305 329.11 397.38C329.457 397.441 329.684 397.773 329.608 398.12L328.369 404.415C328.309 404.717 328.037 404.928 327.75 404.928Z" fill="#39B4EF"/>
<path d="M338.944 407.132C338.899 407.132 338.869 407.132 338.824 407.117C338.476 407.057 338.25 406.725 338.325 406.378L340.41 395.78C340.47 395.433 340.818 395.206 341.15 395.282C341.497 395.342 341.724 395.674 341.648 396.022L339.564 406.619C339.503 406.921 339.231 407.132 338.944 407.132Z" fill="#39B4EF"/>
<path d="M350.139 409.321C350.093 409.321 350.063 409.321 350.018 409.306C349.67 409.246 349.444 408.914 349.519 408.567L352.375 393.999C352.435 393.652 352.782 393.425 353.115 393.501C353.462 393.561 353.689 393.893 353.613 394.24L350.758 408.808C350.698 409.11 350.426 409.321 350.139 409.321Z" fill="#39B4EF"/>
<path d="M361.317 411.51C361.272 411.51 361.242 411.51 361.196 411.495C360.849 411.435 360.637 411.103 360.698 410.755L361.937 404.46C361.997 404.113 362.329 403.887 362.677 403.962C363.024 404.023 363.236 404.355 363.175 404.702L361.937 410.997C361.891 411.299 361.619 411.51 361.317 411.51Z" fill="#39B4EF"/>
<path d="M372.511 413.699C372.466 413.699 372.435 413.699 372.39 413.684C372.043 413.624 371.816 413.292 371.891 412.944L372.511 409.804C372.571 409.457 372.919 409.231 373.251 409.306C373.599 409.367 373.825 409.699 373.75 410.046L373.13 413.186C373.085 413.488 372.813 413.699 372.511 413.699Z" fill="#39B4EF"/>
<path d="M383.705 415.903C383.66 415.903 383.63 415.903 383.584 415.888C383.237 415.828 383.01 415.496 383.086 415.148L385.17 404.551C385.231 404.204 385.578 403.977 385.911 404.053C386.258 404.113 386.485 404.445 386.409 404.792L384.325 415.39C384.279 415.692 384.007 415.903 383.705 415.903Z" fill="#39B4EF"/>
<path d="M394.899 418.092C394.854 418.092 394.824 418.092 394.778 418.077C394.431 418.017 394.219 417.685 394.28 417.337L398.812 394.27C398.872 393.923 399.205 393.697 399.552 393.772C399.899 393.833 400.111 394.165 400.05 394.512L395.519 417.579C395.473 417.881 395.201 418.092 394.899 418.092Z" fill="#39B4EF"/>
<path d="M31.4975 236.136L60.6562 241.849L95.0981 66.3048L65.9393 60.5917L31.4975 236.136Z" fill="#39B4EF"/>
<path d="M40.8348 237.96L50.9893 239.949L85.4311 64.4051L75.2767 62.4155L40.8348 237.96Z" fill="#353738"/>
<path d="M60.6531 241.845C60.6531 241.845 59.0065 232.244 50.985 239.943C50.985 239.943 47.6917 226.296 40.8334 237.95C40.8334 237.95 37.8423 229.436 31.5127 236.123L39.0206 266.089C39.4134 267.659 41.4528 268.052 42.4045 266.753L60.6531 241.845Z" fill="#39B4EF"/>
<path d="M48.6287 258.239C46.8008 255.25 42.858 251.114 35.5918 252.533L38.9908 266.104C39.3835 267.674 41.4229 268.067 42.3746 266.769L48.6287 258.239Z" fill="#353738"/>
<path d="M203.893 365.376C203.893 370.766 199.527 375.144 194.119 375.144C188.726 375.144 184.345 370.781 184.345 365.376C184.345 359.987 188.711 355.609 194.119 355.609C199.527 355.624 203.893 359.987 203.893 365.376Z" fill="#39B4EF"/>
<path d="M153.679 436.072C153.679 440.434 150.144 443.967 145.779 443.967C141.413 443.967 137.878 440.434 137.878 436.072C137.878 431.709 141.413 428.176 145.779 428.176C150.129 428.161 153.679 431.709 153.679 436.072Z" fill="#39B4EF"/>
<path d="M170.614 417.035C170.614 418.877 169.118 420.372 167.275 420.372C165.432 420.372 163.937 418.877 163.937 417.035C163.937 415.194 165.432 413.699 167.275 413.699C169.133 413.699 170.614 415.194 170.614 417.035Z" fill="#39B4EF"/>
<path d="M26.3701 307.719C27.4347 300.974 22.8261 294.643 16.0764 293.579C9.32681 292.515 2.99217 297.121 1.92759 303.866C0.863009 310.611 5.47163 316.941 12.2213 318.005C18.9709 319.069 25.3055 314.464 26.3701 307.719Z" fill="#39B4EF"/>
<path d="M271.464 149.939C278.222 149.939 283.7 144.465 283.7 137.712C283.7 130.958 278.222 125.484 271.464 125.484C264.706 125.484 259.228 130.958 259.228 137.712C259.228 144.465 264.706 149.939 271.464 149.939Z" fill="#39B4EF"/>
<path d="M421.267 32.5466C426.739 25.5092 425.467 15.3709 418.424 9.9021C411.382 4.4333 401.237 5.70493 395.764 12.7424C390.292 19.7798 391.564 29.9181 398.607 35.3869C405.649 40.8557 415.794 39.5841 421.267 32.5466Z" fill="#39B4EF"/>
<path d="M426.245 60.8269C426.245 64.3443 423.39 67.1974 419.87 67.1974C416.35 67.1974 413.495 64.3443 413.495 60.8269C413.495 57.3095 416.35 54.4563 419.87 54.4563C423.39 54.4563 426.245 57.3095 426.245 60.8269Z" fill="#39B4EF"/>
<path d="M477.29 9.21324C477.29 10.6927 476.081 11.9003 474.601 11.9003C473.121 11.9003 471.912 10.6927 471.912 9.21324C471.912 7.73381 473.121 6.52612 474.601 6.52612C476.081 6.52612 477.29 7.71872 477.29 9.21324Z" fill="#39B4EF"/>
<path d="M131.487 389.425L139.992 395.252L157.425 368.788" stroke="#B3C7EB" stroke-miterlimit="10" stroke-linecap="round" stroke-linejoin="round"/>
<path d="M234.393 395.871L245.481 407.736" stroke="#B3C7EB" stroke-miterlimit="10" stroke-linecap="round" stroke-linejoin="round"/>
<path d="M233.985 407.132L245.481 395.252" stroke="#B3C7EB" stroke-miterlimit="10" stroke-linecap="round" stroke-linejoin="round"/>
<path d="M118.149 138.738C121.586 138.738 124.373 135.953 124.373 132.518C124.373 129.083 121.586 126.299 118.149 126.299C114.711 126.299 111.925 129.083 111.925 132.518C111.925 135.953 114.711 138.738 118.149 138.738Z" stroke="#B3C7EB" stroke-miterlimit="10" stroke-linecap="round" stroke-linejoin="round"/>
<path d="M372.512 254.465C372.512 254.465 431.774 261.696 446.654 211.954" stroke="#B3C7EB" stroke-miterlimit="10" stroke-linecap="round" stroke-linejoin="round"/>
<path d="M436.729 219.216L446.654 210.988L451.337 222.19" stroke="#B3C7EB" stroke-miterlimit="10" stroke-linecap="round" stroke-linejoin="round"/>
<path d="M293.293 47.0441C293.293 47.0441 310.665 25.9548 342.087 27.5701" stroke="#B3C7EB" stroke-miterlimit="10" stroke-linecap="round" stroke-linejoin="round"/>
</g>
<defs>
<clipPath id="clip0_66_7445">
<rect width="478" height="468" fill="white"/>
</clipPath>
</defs>
</svg>
