<svg width="446" height="413" viewBox="0 0 446 413" fill="none" xmlns="http://www.w3.org/2000/svg">
<path d="M26.1957 176.334C26.1957 176.334 19.4798 249.298 74.0441 307.787C128.618 366.277 212.167 383.774 279.577 399.726C346.996 415.679 404.016 385.932 419.15 329.088C434.284 272.254 384.464 246.498 364.539 175.599C344.615 104.692 349.843 83.3534 295.278 32.6772C240.723 -17.999 144.301 -8.58557 86.676 52.9924C29.0513 114.57 26.1957 176.334 26.1957 176.334Z" fill="#39B4EF"/>
<path opacity="0.7" d="M26.1957 176.334C26.1957 176.334 19.4798 249.298 74.0441 307.787C128.618 366.277 212.167 383.774 279.577 399.726C346.996 415.679 404.016 385.932 419.15 329.088C434.284 272.254 384.464 246.498 364.539 175.599C344.615 104.692 349.843 83.3534 295.278 32.6772C240.723 -17.999 144.301 -8.58557 86.676 52.9924C29.0513 114.57 26.1957 176.334 26.1957 176.334Z" fill="white"/>
<path d="M8.45486 328.968C11.2175 328.763 16.659 325.749 16.659 325.74C16.7149 325.712 13.5802 322.763 13.3569 322.596C10.8175 320.708 4.80855 318.55 1.92499 320.605C-0.14931 322.084 -0.214422 324.977 1.39479 326.819C3.05051 328.707 6.1015 329.135 8.45486 328.968Z" fill="#002E47"/>
<path d="M18.7511 343.897C21.2626 343.004 25.4205 338.995 25.7554 338.679C27.9785 341.023 30.4435 343.237 33.0759 345.348C34.5735 346.557 36.1176 347.729 37.6896 348.883C36.899 348.464 36.1827 348.092 36.0804 348.055C33.1317 346.901 26.7693 346.408 24.5276 349.152C22.9183 351.134 23.616 353.934 25.6624 355.292C27.746 356.668 30.8063 356.287 33.0294 355.496C35.2897 354.696 38.9081 351.348 39.8476 350.455C40.4522 350.892 41.0569 351.329 41.6615 351.766C44.5729 353.85 47.4937 355.915 50.2842 358.026C51.2702 358.771 52.2097 359.543 53.1585 360.305C52.4516 359.933 51.8563 359.626 51.7632 359.589C48.8146 358.436 42.4521 357.943 40.2104 360.687C38.6012 362.668 39.2988 365.477 41.3452 366.826C43.4288 368.203 46.4891 367.821 48.7122 367.031C50.8703 366.268 54.2375 363.207 55.363 362.147C56.3118 362.956 57.2606 363.775 58.135 364.603C58.721 365.179 59.3256 365.7 59.8837 366.324C60.4511 366.919 61.0092 367.514 61.5673 368.1C62.5905 369.272 63.6602 370.472 64.6369 371.635C65.3159 372.444 65.9578 373.226 66.5996 374.007C65.6229 373.253 63.6881 371.821 63.5114 371.719C60.7767 370.137 54.5538 368.677 51.9214 371.049C50.0238 372.76 50.2935 375.644 52.1074 377.281C53.9585 378.955 57.0374 379.039 59.3628 378.602C61.9208 378.118 66.4694 374.937 67.0368 374.537C68.0972 375.839 69.1111 377.114 70.0506 378.332C72.59 381.606 74.6922 384.527 76.3293 386.871L78.4129 385.774C76.6735 383.392 74.4224 380.407 71.6877 377.03C70.618 375.7 69.446 374.305 68.2367 372.881C68.5251 372.546 70.1622 370.612 71.4644 368.612C73.9852 369.505 79.1663 369.375 79.8361 369.347C80.0035 371.021 80.143 372.639 80.2546 374.184C80.5523 378.193 80.7011 381.709 80.7755 384.527L83.0452 383.337C82.9057 380.695 82.6917 377.551 82.3475 374.007C82.1894 372.314 81.9848 370.5 81.7522 368.64C82.4034 368.454 87.7426 366.891 89.7239 365.198C91.5191 363.663 93.3795 361.208 93.2307 358.715C93.0818 356.268 91.0075 354.259 88.4867 354.668C84.9893 355.236 82.2359 360.994 81.7615 364.128C81.7336 364.314 81.6499 366.352 81.622 367.635C81.529 366.882 81.436 366.138 81.3337 365.366C81.129 363.821 80.8779 362.287 80.6081 360.64C80.45 359.85 80.2919 359.05 80.1337 358.24C79.9942 357.44 79.743 356.603 79.5477 355.775C79.0547 353.868 78.4687 351.952 77.8362 350.045C79.1849 349.859 83.9661 349.134 85.9846 347.887C87.9937 346.641 90.2076 344.502 90.4308 342.009C90.6541 339.572 88.9053 337.265 86.3566 337.283C82.8126 337.311 79.2128 342.595 78.2734 345.608C78.2176 345.794 77.7804 348.036 77.5664 349.273C77.1758 348.129 76.7944 346.985 76.3572 345.832C75.1107 342.52 73.7341 339.209 72.3853 335.897C71.9667 334.883 71.5668 333.87 71.1668 332.856C71.6505 332.8 77.3525 332.056 79.6128 330.66C81.622 329.414 83.8358 327.275 84.0684 324.782C84.2916 322.345 82.5429 320.038 79.9942 320.066C76.4502 320.094 72.8504 325.377 71.9109 328.391C71.8365 328.614 71.2226 331.842 71.1017 332.67C70.2087 330.437 69.3436 328.195 68.5809 325.963C67.5205 322.875 66.6461 319.787 66.0322 316.736C66.2554 316.708 72.2179 315.964 74.5247 314.531C76.5339 313.285 78.7478 311.145 78.971 308.652C79.1942 306.215 77.4455 303.908 74.8968 303.936C71.3528 303.964 67.753 309.248 66.8135 312.262C66.7391 312.494 66.0787 315.973 65.995 316.605C65.9578 316.419 65.902 316.243 65.8648 316.057C65.2415 312.792 65.0462 309.545 65.0183 306.494C64.9997 304.727 65.0741 303.034 65.1857 301.388C66.3112 301.36 71.4458 301.192 73.669 300.132C75.7991 299.118 78.2362 297.23 78.7385 294.774C79.2315 292.374 77.7432 289.891 75.2038 289.63C71.6784 289.267 67.5205 294.123 66.2554 297.016C66.1903 297.174 65.6601 298.848 65.2973 300.085C65.3625 299.341 65.409 298.579 65.4834 297.872C65.7531 295.211 66.1717 292.784 66.5531 290.644C66.7763 289.426 67.0089 288.328 67.2321 287.305C68.3204 286.709 72.683 284.235 74.1434 282.3C75.5665 280.412 76.8595 277.622 76.1712 275.212C75.5014 272.859 73.0364 271.343 70.6645 272.282C67.3717 273.585 65.9206 279.808 66.1252 282.961C66.1438 283.231 66.9159 287.463 66.9717 287.435C66.9717 287.435 67.0275 287.407 67.0368 287.398C66.7949 288.374 66.5531 289.435 66.3112 290.588C65.8834 292.728 65.4183 295.146 65.0834 297.816C64.7485 300.485 64.4602 303.388 64.423 306.476C64.3858 309.573 64.5067 312.829 65.0741 316.178C65.0834 316.215 65.0927 316.252 65.102 316.289C64.6369 315.359 63.2417 312.82 63.1114 312.634C61.2883 310.048 56.2467 306.122 52.8701 307.173C50.4331 307.936 49.4657 310.662 50.4331 312.913C51.4098 315.21 54.1724 316.578 56.4699 317.145C59.0558 317.787 64.7392 316.736 65.1857 316.652C65.7438 319.833 66.581 323.042 67.6042 326.251C68.1902 328.084 68.832 329.916 69.5018 331.74C69.0739 330.949 68.6832 330.251 68.6181 330.158C66.7949 327.572 61.7534 323.647 58.3768 324.698C55.9397 325.461 54.9724 328.186 55.9397 330.437C56.9164 332.735 59.6791 334.102 61.9766 334.67C64.3021 335.246 69.1669 334.456 70.4505 334.223C70.711 334.921 70.9714 335.618 71.2412 336.316C72.5248 339.655 73.8178 342.985 74.9805 346.297C75.3898 347.46 75.7526 348.622 76.1246 349.785C75.7433 349.087 75.4177 348.501 75.3526 348.418C73.5294 345.832 68.4879 341.906 65.1113 342.957C62.6742 343.72 61.7069 346.446 62.6742 348.697C63.6509 350.994 66.4136 352.362 68.7111 352.929C70.9342 353.487 75.427 352.789 76.9525 352.52C77.2967 353.72 77.6315 354.92 77.9106 356.101C78.078 356.91 78.3013 357.682 78.4222 358.501C78.5617 359.31 78.7012 360.119 78.8408 360.91C79.0547 362.454 79.278 364.045 79.4454 365.552C79.5663 366.603 79.6686 367.598 79.771 368.612C79.371 367.449 78.5524 365.189 78.4594 365.003C77.5199 363.124 75.2689 360.445 72.8411 359.012C72.7016 358.733 72.5434 358.464 72.3574 358.222C70.8877 356.268 68.0414 355.738 66.1624 357.468C63.5579 359.868 64.4416 366.193 65.7624 369.068C65.8368 369.235 66.8973 370.984 67.5763 372.072C67.074 371.495 66.5996 370.928 66.0787 370.333C65.0555 369.161 64.0044 368.017 62.8696 366.789C62.3022 366.212 61.7255 365.635 61.1487 365.049C60.5906 364.454 59.9209 363.896 59.2977 363.319C57.8373 361.998 56.2932 360.724 54.7026 359.487C55.7258 358.584 59.3163 355.347 60.3116 353.189C61.2976 351.041 61.958 348.036 60.7767 345.832C59.6232 343.674 56.8885 342.716 54.7677 344.148C51.8283 346.129 51.7446 352.51 52.619 355.552C52.6748 355.738 53.5492 357.85 54.0515 359.003C53.0934 358.259 52.1353 357.515 51.1493 356.799C48.2844 354.724 45.3078 352.724 42.3591 350.706C41.4568 350.092 40.5639 349.459 39.6616 348.836C40.0337 348.52 44.3869 344.762 45.4938 342.344C46.4798 340.195 47.1402 337.19 45.9682 334.986C44.8148 332.828 42.0801 331.87 39.9592 333.302C37.0199 335.283 36.9362 341.674 37.8105 344.706C37.8756 344.939 39.1407 347.971 39.5035 348.725C37.5315 347.348 35.5688 345.962 33.6991 344.52C31.1132 342.53 28.6855 340.437 26.4809 338.232C26.6484 338.083 31.2155 334.177 32.3504 331.712C33.3364 329.563 33.9968 326.558 32.8248 324.354C31.6713 322.196 28.9366 321.238 26.8158 322.67C23.8764 324.652 23.7927 331.033 24.6671 334.074C24.7322 334.316 26.0996 337.572 26.3879 338.148C26.2577 338.018 26.1089 337.897 25.9786 337.767C23.6532 335.386 21.7091 332.781 19.9976 330.26C19.0023 328.8 18.1372 327.34 17.3187 325.907C18.2395 325.265 22.4346 322.298 23.6997 320.177C24.9182 318.15 25.9042 315.238 24.974 312.913C24.0625 310.643 21.4487 309.387 19.1883 310.578C16.0536 312.224 15.263 318.559 15.8025 321.675C15.8304 321.842 16.3234 323.535 16.6954 324.763C16.342 324.112 15.9606 323.442 15.6257 322.81C14.3793 320.438 13.3933 318.187 12.5282 316.187C12.0445 315.043 11.6353 314.001 11.2539 313.024C11.8306 311.927 14.1095 307.452 14.2584 305.043C14.4072 302.69 13.9421 299.639 12.0445 298.011C10.1842 296.411 7.29132 296.514 5.83093 298.606C3.80314 301.509 6.02627 307.499 7.94244 310.02C8.10987 310.234 11.0865 313.341 11.1144 313.285C11.1144 313.285 11.1423 313.229 11.1516 313.22C11.4957 314.168 11.8771 315.182 12.3143 316.28C13.1328 318.298 14.0816 320.577 15.2816 322.986C16.4722 325.396 17.8303 327.982 19.5139 330.577C21.1975 333.181 23.0951 335.832 25.4019 338.307C25.4298 338.334 25.4577 338.362 25.4856 338.39C24.5834 337.879 22.0161 336.521 21.8114 336.437C18.8628 335.283 12.5003 334.79 10.2586 337.535C8.64938 339.516 9.34701 342.325 11.3934 343.674C13.4677 345.078 16.5187 344.688 18.7511 343.897Z" fill="#002E47"/>
<path d="M64.7381 300.876C64.8032 300.885 63.8172 296.69 63.7242 296.439C62.6545 293.463 58.8222 288.347 55.2875 288.468C52.7388 288.551 51.0831 290.933 51.4179 293.36C51.7528 295.835 54.0596 297.881 56.1153 299.044C58.5338 300.392 64.7288 300.876 64.7381 300.876Z" fill="#002E47"/>
<path d="M436.467 328.968C433.704 328.763 428.262 325.749 428.262 325.74C428.207 325.712 431.341 322.763 431.565 322.596C434.104 320.708 440.113 318.55 442.997 320.605C445.071 322.084 445.136 324.977 443.527 326.819C441.871 328.707 438.82 329.135 436.467 328.968Z" fill="#002E47"/>
<path d="M426.179 343.897C423.668 343.004 419.51 338.995 419.175 338.679C416.952 341.023 414.487 343.237 411.855 345.348C410.357 346.557 408.813 347.729 407.241 348.883C408.031 348.464 408.748 348.092 408.85 348.055C411.799 346.901 418.161 346.408 420.403 349.152C422.012 351.134 421.314 353.934 419.268 355.292C417.184 356.668 414.124 356.287 411.901 355.496C409.641 354.696 406.022 351.348 405.083 350.455C404.478 350.892 403.874 351.329 403.269 351.766C400.358 353.85 397.437 355.915 394.646 358.026C393.66 358.771 392.721 359.543 391.772 360.305C392.479 359.933 393.074 359.626 393.167 359.589C396.116 358.436 402.478 357.943 404.72 360.687C406.329 362.668 405.632 365.477 403.585 366.826C401.502 368.203 398.441 367.821 396.218 367.031C394.06 366.268 390.693 363.207 389.567 362.147C388.619 362.956 387.67 363.775 386.795 364.603C386.209 365.179 385.605 365.7 385.047 366.324C384.479 366.919 383.921 367.514 383.363 368.1C382.34 369.272 381.27 370.472 380.294 371.635C379.614 372.444 378.973 373.226 378.331 374.007C379.308 373.253 381.242 371.821 381.419 371.719C384.154 370.137 390.377 368.677 393.009 371.049C394.907 372.76 394.637 375.644 392.823 377.281C390.972 378.955 387.893 379.039 385.568 378.602C383.01 378.118 378.461 374.937 377.894 374.537C376.833 375.839 375.819 377.114 374.88 378.332C372.34 381.606 370.238 384.527 368.601 386.871L366.518 385.774C368.257 383.392 370.508 380.407 373.243 377.03C374.312 375.7 375.484 374.305 376.694 372.881C376.405 372.546 374.768 370.612 373.466 368.612C370.945 369.505 365.764 369.375 365.094 369.347C364.927 371.021 364.787 372.639 364.676 374.184C364.378 378.193 364.229 381.709 364.155 384.527L361.885 383.337C362.025 380.695 362.239 377.551 362.583 374.007C362.741 372.314 362.946 370.5 363.178 368.64C362.527 368.454 357.188 366.891 355.207 365.198C353.411 363.663 351.551 361.208 351.7 358.715C351.849 356.268 353.923 354.259 356.444 354.668C359.941 355.236 362.695 360.994 363.178 364.128C363.206 364.314 363.29 366.352 363.318 367.635C363.411 366.882 363.504 366.138 363.606 365.366C363.811 363.821 364.062 362.287 364.332 360.64C364.49 359.85 364.648 359.05 364.806 358.24C364.946 357.44 365.197 356.603 365.392 355.775C365.885 353.868 366.471 351.952 367.104 350.045C365.755 349.859 360.974 349.134 358.955 347.887C356.946 346.641 354.732 344.502 354.509 342.009C354.286 339.572 356.034 337.265 358.583 337.283C362.127 337.311 365.727 342.595 366.666 345.608C366.722 345.794 367.159 348.036 367.373 349.273C367.764 348.129 368.145 346.985 368.583 345.832C369.829 342.52 371.206 339.209 372.554 335.897C372.973 334.883 373.373 333.87 373.773 332.856C373.289 332.8 367.587 332.056 365.327 330.66C363.318 329.414 361.104 327.275 360.871 324.782C360.648 322.345 362.397 320.038 364.946 320.066C368.49 320.094 372.089 325.377 373.029 328.391C373.103 328.614 373.717 331.842 373.838 332.67C374.731 330.437 375.596 328.195 376.359 325.963C377.419 322.875 378.294 319.787 378.908 316.736C378.684 316.708 372.722 315.964 370.415 314.531C368.406 313.285 366.192 311.145 365.969 308.652C365.745 306.215 367.494 303.908 370.043 303.936C373.587 303.964 377.187 309.248 378.126 312.262C378.201 312.494 378.861 315.973 378.945 316.605C378.982 316.419 379.038 316.243 379.075 316.057C379.698 312.792 379.894 309.545 379.921 306.494C379.94 304.727 379.866 303.034 379.754 301.388C378.628 301.36 373.494 301.192 371.271 300.132C369.141 299.118 366.704 297.23 366.201 294.774C365.708 292.374 367.197 289.891 369.736 289.63C373.261 289.267 377.419 294.123 378.684 297.016C378.749 297.174 379.28 298.848 379.642 300.085C379.577 299.341 379.531 298.579 379.456 297.872C379.187 295.211 378.768 292.784 378.387 290.644C378.163 289.426 377.931 288.328 377.708 287.305C376.619 286.709 372.257 284.235 370.796 282.3C369.373 280.412 368.08 277.622 368.769 275.212C369.438 272.859 371.903 271.343 374.275 272.282C377.568 273.585 379.019 279.808 378.815 282.961C378.796 283.231 378.024 287.463 377.968 287.435C377.968 287.435 377.912 287.407 377.903 287.398C378.145 288.374 378.387 289.435 378.628 290.588C379.056 292.728 379.521 295.146 379.856 297.816C380.191 300.485 380.48 303.388 380.517 306.476C380.554 309.573 380.433 312.829 379.866 316.178C379.856 316.215 379.847 316.252 379.838 316.289C380.303 315.359 381.698 312.82 381.828 312.634C383.651 310.048 388.693 306.122 392.07 307.173C394.507 307.936 395.474 310.662 394.507 312.913C393.53 315.21 390.767 316.578 388.47 317.145C385.884 317.787 380.201 316.736 379.754 316.652C379.196 319.833 378.359 323.042 377.336 326.251C376.75 328.084 376.108 329.916 375.438 331.74C375.866 330.949 376.257 330.251 376.322 330.158C378.145 327.572 383.186 323.647 386.563 324.698C389 325.461 389.967 328.186 389 330.437C388.023 332.735 385.261 334.102 382.963 334.67C380.638 335.246 375.773 334.456 374.489 334.223C374.229 334.921 373.968 335.618 373.699 336.316C372.415 339.655 371.122 342.985 369.959 346.297C369.55 347.46 369.187 348.622 368.815 349.785C369.196 349.087 369.522 348.501 369.587 348.418C371.41 345.832 376.452 341.906 379.828 342.957C382.265 343.72 383.233 346.446 382.265 348.697C381.289 350.994 378.526 352.362 376.229 352.929C374.005 353.487 369.513 352.789 367.987 352.52C367.643 353.72 367.308 354.92 367.029 356.101C366.862 356.91 366.638 357.682 366.518 358.501C366.378 359.31 366.238 360.119 366.099 360.91C365.885 362.454 365.662 364.045 365.494 365.552C365.373 366.603 365.271 367.598 365.169 368.612C365.569 367.449 366.387 365.189 366.48 365.003C367.42 363.124 369.671 360.445 372.099 359.012C372.238 358.733 372.396 358.464 372.582 358.222C374.052 356.268 376.898 355.738 378.777 357.468C381.382 359.868 380.498 366.193 379.177 369.068C379.103 369.235 378.042 370.984 377.363 372.072C377.866 371.495 378.34 370.928 378.861 370.333C379.884 369.161 380.935 368.017 382.07 366.789C382.638 366.212 383.214 365.635 383.791 365.049C384.349 364.454 385.019 363.896 385.642 363.319C387.102 361.998 388.647 360.724 390.237 359.487C389.214 358.584 385.623 355.347 384.628 353.189C383.642 351.041 382.982 348.036 384.163 345.832C385.316 343.674 388.051 342.716 390.172 344.148C393.111 346.129 393.195 352.51 392.321 355.552C392.265 355.738 391.391 357.85 390.888 359.003C391.846 358.259 392.804 357.515 393.79 356.799C396.655 354.724 399.632 352.724 402.581 350.706C403.483 350.092 404.376 349.459 405.278 348.836C404.906 348.52 400.553 344.762 399.446 342.344C398.46 340.195 397.8 337.19 398.972 334.986C400.125 332.828 402.86 331.87 404.98 333.302C407.92 335.283 408.004 341.674 407.129 344.706C407.064 344.939 405.799 347.971 405.436 348.725C407.408 347.348 409.371 345.962 411.241 344.52C413.826 342.53 416.254 340.437 418.459 338.232C418.291 338.083 413.724 334.177 412.589 331.712C411.603 329.563 410.943 326.558 412.115 324.354C413.268 322.196 416.003 321.238 418.124 322.67C421.063 324.652 421.156 331.033 420.273 334.074C420.208 334.316 418.84 337.572 418.552 338.148C418.682 338.018 418.831 337.897 418.961 337.767C421.287 335.386 423.231 332.781 424.942 330.26C425.937 328.8 426.803 327.34 427.621 325.907C426.7 325.265 422.505 322.298 421.24 320.177C420.021 318.15 419.035 315.238 419.966 312.913C420.877 310.643 423.491 309.387 425.751 310.578C428.886 312.224 429.677 318.559 429.137 321.675C429.109 321.842 428.616 323.535 428.244 324.763C428.598 324.112 428.979 323.442 429.314 322.81C430.56 320.438 431.546 318.187 432.411 316.187C432.895 315.043 433.304 314.001 433.686 313.024C433.109 311.927 430.83 307.452 430.681 305.043C430.533 302.69 430.998 299.639 432.895 298.011C434.756 296.411 437.648 296.514 439.109 298.606C441.137 301.509 438.913 307.499 436.997 310.02C436.83 310.234 433.853 313.341 433.825 313.285C433.825 313.285 433.797 313.229 433.788 313.22C433.444 314.168 433.063 315.182 432.635 316.28C431.816 318.298 430.867 320.577 429.667 322.986C428.477 325.396 427.119 327.982 425.435 330.577C423.752 333.181 421.854 335.832 419.547 338.307C419.519 338.334 419.491 338.362 419.463 338.39C420.366 337.879 422.933 336.521 423.138 336.437C426.086 335.283 432.449 334.79 434.69 337.535C436.3 339.516 435.602 342.325 433.556 343.674C431.463 345.078 428.402 344.688 426.179 343.897Z" fill="#002E47"/>
<path d="M380.191 300.876C380.125 300.885 381.111 296.69 381.204 296.439C382.274 293.463 386.107 288.347 389.641 288.468C392.19 288.551 393.846 290.933 393.511 293.36C393.176 295.835 390.869 297.881 388.813 299.044C386.395 300.392 380.191 300.876 380.191 300.876Z" fill="#002E47"/>
<path d="M76.4883 167.06L77.2603 167.572" stroke="#002E47" stroke-miterlimit="10"/>
<path d="M78.8242 168.586L221.356 261.26" stroke="#002E47" stroke-miterlimit="10" stroke-dasharray="2 2"/>
<path d="M222.137 261.771L222.909 262.274L222.406 261.502" stroke="#002E47" stroke-miterlimit="10"/>
<path d="M221.4 259.948L99.1367 71.9587" stroke="#002E47" stroke-miterlimit="10" stroke-dasharray="1.98 1.98"/>
<path d="M98.6273 71.1867L98.125 70.4053" stroke="#002E47" stroke-miterlimit="10"/>
<path d="M369.338 167.06L368.566 167.572" stroke="#002E47" stroke-miterlimit="10"/>
<path d="M367.004 168.586L224.473 261.26" stroke="#002E47" stroke-miterlimit="10" stroke-dasharray="2 2"/>
<path d="M223.692 261.771L222.91 262.274L223.422 261.502" stroke="#002E47" stroke-miterlimit="10"/>
<path d="M224.426 259.948L346.689 71.9587" stroke="#002E47" stroke-miterlimit="10" stroke-dasharray="1.98 1.98"/>
<path d="M347.191 71.1867L347.703 70.4053" stroke="#002E47" stroke-miterlimit="10"/>
<path d="M222.91 41.5511V42.4813" stroke="#002E47" stroke-miterlimit="10"/>
<path d="M222.91 44.351V260.413" stroke="#002E47" stroke-miterlimit="10" stroke-dasharray="2.01 2.01"/>
<path d="M222.91 261.343V262.274" stroke="#002E47" stroke-miterlimit="10"/>
<path d="M224.65 65.9498C240.447 65.9498 253.253 53.1438 253.253 37.3468C253.253 21.5497 240.447 8.74371 224.65 8.74371C208.853 8.74371 196.047 21.5497 196.047 37.3468C196.047 53.1438 208.853 65.9498 224.65 65.9498Z" fill="#002E47" stroke="#002E47" stroke-width="2" stroke-miterlimit="10"/>
<path d="M224.648 37.3467L248.722 21.9057C245.196 16.427 239.866 12.2319 233.56 10.1669L224.648 37.3467Z" fill="#39B4EF" stroke="#002E47" stroke-miterlimit="10"/>
<path d="M224.648 37.3468L238.164 62.5639C247.15 57.7363 253.251 48.2578 253.251 37.3468C253.251 31.6541 251.586 26.352 248.722 21.9058L224.648 37.3468Z" fill="white" stroke="#002E47" stroke-miterlimit="10"/>
<path d="M363.148 90.4466C374.315 79.2802 374.315 61.1758 363.148 50.0094C351.982 38.8429 333.877 38.8429 322.711 50.0094C311.544 61.1758 311.544 79.2802 322.711 90.4467C333.877 101.613 351.982 101.613 363.148 90.4466Z" stroke="#002E47" stroke-miterlimit="10"/>
<path d="M342.93 95.0179C356.621 95.0179 367.719 83.9194 367.719 70.2286C367.719 56.5379 356.621 45.4393 342.93 45.4393C329.239 45.4393 318.141 56.5379 318.141 70.2286C318.141 83.9194 329.239 95.0179 342.93 95.0179Z" fill="#002E47"/>
<path d="M357.192 70.2286L333.184 56.3596V84.0883L357.192 70.2286Z" fill="white"/>
<path d="M412.911 170.45C416.749 154.422 406.868 138.318 390.841 134.48C374.814 130.642 358.71 140.523 354.872 156.55C351.033 172.577 360.914 188.681 376.941 192.519C392.969 196.358 409.073 186.477 412.911 170.45Z" fill="#002E47"/>
<path d="M404.624 168.455C407.354 157.007 400.287 145.513 388.839 142.783C377.391 140.052 365.897 147.119 363.167 158.567C360.436 170.015 367.503 181.51 378.951 184.24C390.399 186.971 401.893 179.904 404.624 168.455Z" fill="white"/>
<path d="M396.343 166.477C397.975 159.604 393.727 152.71 386.855 151.078C379.983 149.445 373.088 153.693 371.456 160.565C369.823 167.437 374.071 174.332 380.943 175.964C387.816 177.597 394.71 173.349 396.343 166.477Z" fill="#002E47"/>
<path d="M390.616 165.093C391.492 161.394 389.203 157.684 385.504 156.808C381.805 155.932 378.096 158.22 377.219 161.92C376.343 165.619 378.632 169.328 382.331 170.204C386.03 171.081 389.74 168.792 390.616 165.093Z" fill="white"/>
<path d="M421.929 149.201L418.134 147.713L419.79 146.903C420.181 146.708 420.348 146.243 420.153 145.843C419.967 145.452 419.492 145.285 419.092 145.48L417.892 146.066L419.799 141.936L412.721 145.127L411.688 149.089L383.55 162.791C383.159 162.986 382.992 163.451 383.187 163.851C383.327 164.13 383.606 164.298 383.904 164.298C384.015 164.298 384.136 164.27 384.248 164.214L412.479 150.466L415.558 152.205L421.929 149.201Z" fill="#002E47"/>
<path d="M100.62 98.8131C117.095 98.8131 130.451 85.4573 130.451 68.9822C130.451 52.507 117.095 39.1513 100.62 39.1513C84.1448 39.1513 70.7891 52.507 70.7891 68.9822C70.7891 85.4573 84.1448 98.8131 100.62 98.8131Z" fill="white" stroke="#002E47" stroke-width="2" stroke-miterlimit="10"/>
<path d="M100.62 98.8131C112.57 98.8131 122.256 85.4573 122.256 68.9822C122.256 52.507 112.57 39.1513 100.62 39.1513C88.6711 39.1513 78.9844 52.507 78.9844 68.9822C78.9844 85.4573 88.6711 98.8131 100.62 98.8131Z" fill="white" stroke="#002E47" stroke-miterlimit="10"/>
<path d="M100.619 98.8131C105.705 98.8131 109.828 85.4573 109.828 68.9822C109.828 52.507 105.705 39.1513 100.619 39.1513C95.5331 39.1513 91.4102 52.507 91.4102 68.9822C91.4102 85.4573 95.5331 98.8131 100.619 98.8131Z" fill="white" stroke="#002E47" stroke-miterlimit="10"/>
<path d="M84.8164 43.7836H116.954" stroke="#002E47" stroke-miterlimit="10"/>
<path d="M74.0078 55.476H127.186" stroke="#002E47" stroke-miterlimit="10"/>
<path d="M70.9375 67.1591H130.395" stroke="#002E47" stroke-miterlimit="10"/>
<path d="M72.25 78.8514H128.647" stroke="#002E47" stroke-miterlimit="10"/>
<path d="M80.2852 90.5345H121.483" stroke="#002E47" stroke-miterlimit="10"/>
<path d="M61.5692 193.347C78.0443 193.347 91.4 179.992 91.4 163.516C91.4 147.041 78.0443 133.686 61.5692 133.686C45.094 133.686 31.7383 147.041 31.7383 163.516C31.7383 179.992 45.094 193.347 61.5692 193.347Z" fill="#002E47" stroke="#002E47" stroke-width="2" stroke-miterlimit="10"/>
<path d="M80.4707 149.415H40.9102V181.069H80.4707V149.415Z" fill="white" stroke="#002E47" stroke-width="2" stroke-miterlimit="10"/>
<path d="M82.9466 149.415H38.4375V162.27H82.9466V149.415Z" fill="white" stroke="#002E47" stroke-width="2" stroke-miterlimit="10"/>
<path d="M60.649 149.099C60.649 149.099 51.31 138.206 49.7566 138.727C48.2032 139.248 44.0546 146.513 46.38 147.285C48.7241 148.057 60.649 149.099 60.649 149.099Z" fill="#39B4EF"/>
<path d="M60.7344 149.099C60.7344 149.099 70.0734 138.206 71.6268 138.727C73.1802 139.248 77.3288 146.513 74.994 147.285C72.6686 148.057 60.7344 149.099 60.7344 149.099Z" fill="#39B4EF"/>
<path d="M63.5028 171.665L60.7029 166.8L57.8008 171.665V149.88H63.5028V171.665Z" fill="#39B4EF"/>
<path d="M74.7773 245.698L222.806 162.382L374.472 245.698V366.482H76.6005L74.7773 245.698Z" fill="#002E47" stroke="#002E47" stroke-miterlimit="10" stroke-linecap="round" stroke-linejoin="round"/>
<path d="M335.423 184.855H113.836V381.923H335.423V184.855Z" fill="white" stroke="#002E47" stroke-miterlimit="10"/>
<path d="M139.258 219.364H307.267" stroke="#002E47" stroke-miterlimit="10"/>
<path d="M139.258 236.619H307.267" stroke="#002E47" stroke-miterlimit="10"/>
<path d="M139.258 253.874H307.267" stroke="#002E47" stroke-miterlimit="10"/>
<path d="M139.258 271.129H307.267" stroke="#002E47" stroke-miterlimit="10"/>
<path d="M139.258 288.384H307.267" stroke="#002E47" stroke-miterlimit="10"/>
<path d="M139.258 305.639H307.267" stroke="#002E47" stroke-miterlimit="10"/>
<path d="M374.472 411.893H74.7773V245.698L224.62 347.413L374.472 245.698V411.893Z" fill="#39B4EF" stroke="#002E47" stroke-miterlimit="10"/>
<path d="M74.7773 411.893L183.739 319.61" stroke="#002E47" stroke-miterlimit="10"/>
<path d="M373.988 411.893L265.836 319.461" stroke="#002E47" stroke-miterlimit="10"/>
<path d="M257.036 129.918C257.036 129.918 255.911 135.183 257.409 136.876C258.906 138.569 264.552 144.587 264.552 145.527C264.552 146.466 262.673 173.553 262.673 173.553L254.023 167.349L248.758 183.525C248.758 183.525 261.92 189.171 268.133 190.296C274.338 191.422 275.473 189.729 275.473 184.845C275.473 179.953 270.58 142.522 270.58 142.522C270.58 142.522 272.087 133.872 272.087 132.365C272.087 130.858 272.654 130.104 271.333 129.351C270.012 128.597 259.297 127.472 259.297 127.472C259.297 127.472 257.036 128.411 257.036 129.918Z" fill="white" stroke="#002E47" stroke-miterlimit="10" stroke-linecap="round" stroke-linejoin="round"/>
<path d="M254.244 169.628L251.389 184.129L248.766 183.525L254.244 169.628Z" fill="#002E47" stroke="#002E47" stroke-miterlimit="10" stroke-linecap="round" stroke-linejoin="round"/>
<path d="M275.369 134.141L254.059 131.276V125.965C254.059 125.463 254.468 125.053 254.97 125.053C255.472 125.053 255.882 125.463 255.882 125.965V129.686L273.695 132.086L274.002 127.779C274.039 127.277 274.457 126.904 274.969 126.942C275.471 126.979 275.843 127.416 275.806 127.909L275.369 134.141Z" fill="#002E47"/>
<path d="M258.926 132.365L270.581 133.49L271.334 129.351L259.298 127.472L258.926 132.365Z" fill="white" stroke="#002E47" stroke-miterlimit="10" stroke-linecap="round" stroke-linejoin="round"/>
<path d="M256.852 132.932C256.852 132.932 256.852 128.225 257.419 127.853C257.986 127.481 266.07 128.039 266.07 129.174C266.07 130.3 266.07 130.867 265.13 130.867C264.191 130.867 262.312 131.053 262.312 131.053C262.312 131.053 266.637 135.006 265.325 138.578" fill="white"/>
<path d="M256.852 132.932C256.852 132.932 256.852 128.225 257.419 127.853C257.986 127.481 266.07 128.039 266.07 129.174C266.07 130.3 266.07 130.867 265.13 130.867C264.191 130.867 262.312 131.053 262.312 131.053C262.312 131.053 266.637 135.006 265.325 138.578" stroke="#002E47" stroke-miterlimit="10" stroke-linecap="round" stroke-linejoin="round"/>
<path d="M262.683 173.553L261.93 181.832" stroke="#002E47" stroke-miterlimit="10" stroke-linecap="round" stroke-linejoin="round"/>
<path d="M167.163 169.944C167.163 169.944 140.579 190.696 141.267 192.929C141.955 195.161 161.675 214.025 168.196 218.657C174.716 223.29 178.316 225.345 178.316 225.345L182.437 227.922C182.437 227.922 180.725 230.666 181.748 231.178C182.772 231.689 186.548 233.577 187.069 232.554C187.581 231.522 190.325 223.811 189.981 221.922C189.636 220.034 179.693 218.49 179.004 217.802C178.316 217.113 162.019 191.729 162.019 191.729L174.716 181.776L167.163 169.944Z" fill="white" stroke="#002E47" stroke-miterlimit="10" stroke-linecap="round" stroke-linejoin="round"/>
<path d="M166.707 170.632L171.535 183.72L174.716 181.776L166.707 170.632Z" fill="#002E47" stroke="#002E47" stroke-miterlimit="10" stroke-linecap="round" stroke-linejoin="round"/>
<path d="M182.426 227.913C182.426 227.913 183.626 230.489 185.681 230.657" stroke="#002E47" stroke-miterlimit="10" stroke-linecap="round" stroke-linejoin="round"/>
<path d="M162.018 191.719L158.586 185.72" stroke="#002E47" stroke-miterlimit="10" stroke-linecap="round" stroke-linejoin="round"/>
<path d="M184.838 379.532L184.559 394.778L197.051 395.047L198.149 378.434L184.838 379.532Z" fill="white" stroke="#002E47" stroke-miterlimit="10" stroke-linecap="round" stroke-linejoin="round"/>
<path d="M184.883 378.704V382.471L197.84 383.076L198.138 379.16L184.883 378.704Z" fill="#002E47" stroke="#002E47" stroke-miterlimit="10" stroke-linecap="round" stroke-linejoin="round"/>
<path d="M190.737 390.797C190.737 390.797 189.091 384.341 186.616 384.202C184.142 384.062 182.905 385.988 181.947 387.774C180.989 389.559 174.943 395.596 172.887 397.113C170.831 398.629 166.292 400.545 165.613 404.935C164.924 409.326 167.538 411.112 169.324 411.53C171.11 411.949 179.212 412.079 184.021 411.53C188.83 410.982 201.946 412.284 202.699 411.53C203.453 410.777 204.485 408.368 203.797 406.721C203.108 405.075 201.871 403.289 201.871 403.289C201.871 403.289 203.248 399.308 202.42 397.113C201.592 394.917 199.946 392.173 200.225 390.936C200.504 389.699 203.518 387.094 201.462 386.955C199.406 386.815 196.104 389.29 194.048 389.978C191.974 390.657 190.737 390.797 190.737 390.797Z" fill="#002E47" stroke="#002E47" stroke-miterlimit="10" stroke-linecap="round" stroke-linejoin="round"/>
<path d="M199.526 403.838C197.6 404.117 190.187 407.679 185.517 408.777C180.848 409.875 176.727 410.014 174.532 408.916C172.337 407.819 170.411 404.526 168.765 402.461C167.118 400.405 165.742 405.624 165.742 405.624L165.518 405.726C165.239 409.549 167.639 411.14 169.314 411.53C171.099 411.94 179.201 412.079 184.01 411.53C188.819 410.981 201.935 412.284 202.688 411.53C203.442 410.777 204.474 408.368 203.786 406.721C203.098 405.075 201.861 403.289 201.861 403.289C201.042 403.149 201.451 403.568 199.526 403.838Z" fill="white" stroke="#002E47" stroke-miterlimit="10" stroke-linecap="round" stroke-linejoin="round"/>
<path d="M179.479 391.615C179.479 391.615 183.19 390.787 187.86 395.327L185.385 397.382C185.385 397.382 180.576 393.671 177.562 393.671L179.479 391.615Z" fill="white" stroke="#002E47" stroke-miterlimit="10" stroke-linecap="round" stroke-linejoin="round"/>
<path d="M176.049 394.368C176.049 394.368 179.76 393.541 184.43 398.08L181.956 400.136C181.956 400.136 177.147 396.424 174.133 396.424L176.049 394.368Z" fill="white" stroke="#002E47" stroke-miterlimit="10" stroke-linecap="round" stroke-linejoin="round"/>
<path d="M186.895 393.95L190.736 390.797" stroke="#002E47" stroke-miterlimit="10" stroke-linecap="round" stroke-linejoin="round"/>
<path d="M181.954 400.136C181.954 400.136 182.912 402.191 181.266 403.428C179.619 404.666 168.773 402.601 168.904 401.094C169.043 399.587 174.122 396.424 174.122 396.424C174.122 396.424 178.243 397.252 181.954 400.136Z" fill="white" stroke="#002E47" stroke-miterlimit="10" stroke-linecap="round" stroke-linejoin="round"/>
<path d="M263.633 379.532L263.902 394.778L251.41 395.047L250.312 378.434L263.633 379.532Z" fill="white" stroke="#002E47" stroke-miterlimit="10" stroke-linecap="round" stroke-linejoin="round"/>
<path d="M250.555 381.262V383.523L263.811 383.374L263.662 380.062L250.258 379.913L250.555 381.262Z" fill="#002E47" stroke="#002E47" stroke-miterlimit="10" stroke-linecap="round" stroke-linejoin="round"/>
<path d="M257.727 390.797C257.727 390.797 259.374 384.341 261.848 384.202C264.322 384.062 265.559 385.988 266.518 387.774C267.476 389.559 273.522 395.596 275.577 397.113C277.633 398.619 282.172 400.545 282.851 404.935C283.54 409.326 280.926 411.112 279.14 411.53C277.354 411.94 269.252 412.079 264.443 411.53C259.634 410.982 246.519 412.284 245.765 411.53C245.012 410.777 243.979 408.368 244.668 406.721C245.356 405.075 246.593 403.289 246.593 403.289C246.593 403.289 245.216 399.308 246.044 397.113C246.872 394.917 248.519 392.173 248.239 390.936C247.96 389.699 244.947 387.094 247.002 386.955C249.058 386.815 252.36 389.29 254.416 389.978C256.49 390.657 257.727 390.797 257.727 390.797Z" fill="#002E47" stroke="#002E47" stroke-miterlimit="10" stroke-linecap="round" stroke-linejoin="round"/>
<path d="M248.936 403.838C250.861 404.117 258.275 407.679 262.944 408.777C267.614 409.875 271.734 410.014 273.93 408.916C276.125 407.819 278.05 404.526 279.697 402.461C281.343 400.405 282.72 405.624 282.72 405.624L282.943 405.726C283.222 409.549 280.822 411.14 279.148 411.53C277.362 411.94 269.26 412.079 264.451 411.53C259.642 410.981 246.526 412.284 245.773 411.53C245.02 410.777 243.987 408.368 244.675 406.721C245.364 405.075 246.601 403.289 246.601 403.289C247.429 403.149 247.01 403.568 248.936 403.838Z" fill="white" stroke="#002E47" stroke-miterlimit="10" stroke-linecap="round" stroke-linejoin="round"/>
<path d="M268.982 391.615C268.982 391.615 265.271 390.787 260.602 395.327L263.076 397.382C263.076 397.382 267.885 393.671 270.899 393.671L268.982 391.615Z" fill="white" stroke="#002E47" stroke-miterlimit="10" stroke-linecap="round" stroke-linejoin="round"/>
<path d="M272.416 394.368C272.416 394.368 268.705 393.541 264.035 398.08L266.509 400.136C266.509 400.136 271.318 396.424 274.332 396.424L272.416 394.368Z" fill="white" stroke="#002E47" stroke-miterlimit="10" stroke-linecap="round" stroke-linejoin="round"/>
<path d="M261.568 393.95L257.727 390.797" stroke="#002E47" stroke-miterlimit="10" stroke-linecap="round" stroke-linejoin="round"/>
<path d="M266.519 400.136C266.519 400.136 265.561 402.191 267.208 403.428C268.854 404.666 279.7 402.601 279.57 401.094C279.43 399.587 274.351 396.424 274.351 396.424C274.351 396.424 270.221 397.252 266.519 400.136Z" fill="white" stroke="#002E47" stroke-miterlimit="10" stroke-linecap="round" stroke-linejoin="round"/>
<path d="M190.574 218.62C190.574 218.62 183.31 248.284 180.584 273.408C177.859 298.532 173.617 380.872 173.617 380.872H206.918C206.918 380.872 216.908 297.323 218.424 282.486C219.94 267.65 219.94 258.274 219.94 258.274L238.711 380.872H278.365C278.365 380.872 263.231 303.071 257.175 267.352C251.12 231.633 242.646 217.709 242.646 217.709L190.574 218.62Z" fill="#B3C7EB" stroke="#002E47" stroke-miterlimit="10" stroke-linecap="round" stroke-linejoin="round"/>
<path d="M219.028 220.741C218.74 221.606 210.852 233.457 213.28 234.359C215.698 235.27 220.247 235.27 220.247 232.843C220.247 230.424 220.247 223.16 220.247 223.16C220.247 223.16 220.851 236.777 223.577 236.173C226.302 235.568 229.93 236.173 229.028 233.15C228.116 230.127 221.158 220.434 221.158 220.434C221.158 220.434 219.931 218.016 219.028 220.741Z" fill="#B3C7EB" stroke="#002E47" stroke-miterlimit="10" stroke-linecap="round" stroke-linejoin="round"/>
<path d="M220.273 221.736C220.273 221.736 227.138 231.485 226.478 232.368C225.817 233.252 224.924 234.145 224.264 232.815C223.594 231.485 220.273 221.736 220.273 221.736Z" stroke="#002E47" stroke-miterlimit="10"/>
<path d="M220.051 220.629C220.051 220.629 214.953 231.485 215.623 231.931C216.284 232.378 217.837 232.378 218.283 230.824C218.721 229.271 220.051 220.629 220.051 220.629Z" stroke="#002E47" stroke-miterlimit="10"/>
<path d="M240.738 251.567C241.017 253.111 241.25 254.553 241.427 255.855" stroke="#002E47" stroke-miterlimit="10" stroke-linecap="round" stroke-linejoin="round"/>
<path d="M233.559 221.653C233.559 221.653 237.335 235.14 239.763 246.591" stroke="#002E47" stroke-miterlimit="10" stroke-linecap="round" stroke-linejoin="round"/>
<path d="M230.832 221.653C230.832 221.653 233.251 238.6 234.469 243.149" stroke="#002E47" stroke-miterlimit="10" stroke-linecap="round" stroke-linejoin="round"/>
<path d="M197.885 245.121C197.754 246.293 197.643 247.363 197.531 248.284" stroke="#002E47" stroke-miterlimit="10" stroke-linecap="round" stroke-linejoin="round"/>
<path d="M200.259 221.653C200.259 221.653 199.255 232.015 198.371 240.563" stroke="#002E47" stroke-miterlimit="10" stroke-linecap="round" stroke-linejoin="round"/>
<path d="M197.84 222.257L196.621 236.787" stroke="#002E47" stroke-miterlimit="10" stroke-linecap="round" stroke-linejoin="round"/>
<path d="M219.049 98.134C219.049 98.134 230.332 99.2595 227.7 105.092C225.068 110.924 222.435 112.049 221.868 112.049C221.3 112.049 216.789 105.092 216.789 105.092L219.049 98.134Z" fill="#002E47" stroke="#002E47" stroke-miterlimit="10" stroke-linecap="round" stroke-linejoin="round"/>
<path d="M217.727 103.585C217.727 103.585 222.053 106.031 223.373 110.543C224.694 115.054 228.08 116.375 229.02 116.189C229.959 116.003 231.28 118.821 230.145 120.7C229.02 122.579 229.02 122.579 229.02 122.579C229.02 122.579 229.959 135.369 228.834 137.062C227.708 138.755 220.75 137.815 220.75 137.815C220.75 137.815 219.243 143.834 220.564 147.592C221.885 151.35 225.829 153.238 227.336 153.238C228.843 153.238 232.043 151.359 236.368 153.61C240.693 155.87 255.176 166.772 255.176 166.772L247.465 187.841L239.187 183.515L245.019 219.439L188.594 220.76C188.594 220.76 189.161 195.18 187.655 190.473C186.148 185.766 183.701 181.441 183.701 181.441L176.557 187.087L166.586 169.786C166.586 169.786 181.255 155.117 187.087 153.796C192.919 152.475 199.877 154.168 202.137 151.35C204.398 148.531 202.51 135.174 202.51 135.174C202.51 135.174 197.059 133.295 193.859 123.705C190.659 114.114 201.57 104.143 201.57 104.143C201.57 104.143 206.444 99.0735 217.727 103.585Z" fill="white" stroke="#002E47" stroke-miterlimit="10" stroke-linecap="round" stroke-linejoin="round"/>
<path d="M220.74 137.815L215.652 136.96L219.736 141.657L220.74 137.815Z" fill="#002E47" stroke="#002E47" stroke-miterlimit="10" stroke-linecap="round" stroke-linejoin="round"/>
<path d="M218.352 113.77C218.352 113.77 218.352 110.198 221.551 110.198" stroke="#002E47" stroke-width="2" stroke-miterlimit="10" stroke-linecap="round" stroke-linejoin="round"/>
<path d="M226.76 126.718L220.174 123.519C220.174 123.519 219.607 130.29 222.053 130.104C224.5 129.918 226.76 126.718 226.76 126.718Z" fill="#002E47" stroke="#002E47" stroke-miterlimit="10" stroke-linecap="round" stroke-linejoin="round"/>
<path d="M220.312 117.258C220.312 117.258 222.433 114.961 224.201 116.905" stroke="#002E47" stroke-miterlimit="10" stroke-linecap="round" stroke-linejoin="round"/>
<path d="M220.127 125.667L226.043 127.593C226.49 127.09 226.76 126.718 226.76 126.718L220.174 123.519C220.174 123.519 220.099 124.486 220.127 125.667Z" fill="white" stroke="#002E47" stroke-miterlimit="10" stroke-linecap="round" stroke-linejoin="round"/>
<path d="M183.31 111.677C183.31 111.677 179.171 103.213 173.339 104.152C167.506 105.092 162.995 111.491 164.874 120.514C164.874 120.514 165.813 122.961 166.567 125.026C166.567 125.026 159.228 122.765 155.284 127.658C151.33 132.551 154.344 137.629 158.856 140.076C163.367 142.522 165.999 142.336 165.999 142.336C165.999 142.336 156.028 145.35 159.6 149.108C163.172 152.866 174.083 150.429 171.822 147.229C169.562 144.029 167.869 144.41 167.869 144.41C167.869 144.41 176.901 141.025 175.962 138.578C175.022 136.132 170.511 134.253 170.511 134.253C170.511 134.253 179.161 137.267 183.868 134.439C188.575 131.62 184.436 119.584 184.436 119.584L183.31 111.677Z" fill="#002E47" stroke="#002E47" stroke-miterlimit="10" stroke-linecap="round" stroke-linejoin="round"/>
<path d="M221.112 93.9947C221.112 93.9947 222.618 99.2595 219.986 103.771C217.354 108.282 211.707 115.993 210.954 124.653C210.201 133.304 212.647 144.029 214.154 147.601C215.661 151.173 212.275 151.926 209.829 151.74C207.382 151.554 206.443 150.047 206.443 146.661C206.443 143.276 205.689 137.257 205.689 137.257C205.689 137.257 196.099 136.318 191.578 133.685C187.067 131.053 180.481 122.021 183.3 111.677C186.118 101.334 193.643 98.32 198.155 96.4411C202.666 94.5621 208.88 94.7481 213.205 93.8086C217.54 92.8599 220.926 91.7343 221.112 93.9947Z" fill="#002E47" stroke="#002E47" stroke-miterlimit="10" stroke-linecap="round" stroke-linejoin="round"/>
<path d="M207.383 120.328L205.69 127.1C205.69 127.1 202.118 125.407 201.551 122.393C200.983 119.379 205.309 117.882 208.322 120.514" fill="white"/>
<path d="M207.383 120.328L205.69 127.1C205.69 127.1 202.118 125.407 201.551 122.393C200.983 119.379 205.309 117.882 208.322 120.514" stroke="#002E47" stroke-miterlimit="10" stroke-linecap="round" stroke-linejoin="round"/>
<path d="M262.31 131.044L259.863 131.239" stroke="#002E47" stroke-miterlimit="10" stroke-linecap="round" stroke-linejoin="round"/>
<path d="M244.716 125.612L307.41 134.383L298.89 88.0043L242.781 115.017L244.716 125.612Z" fill="#39B4EF" stroke="#002E47" stroke-miterlimit="10" stroke-linecap="round" stroke-linejoin="round"/>
<path d="M242.776 115.037L233.461 116.74L235.388 127.281L244.702 125.578L242.776 115.037Z" fill="#39B4EF" stroke="#002E47" stroke-miterlimit="10" stroke-linecap="round" stroke-linejoin="round"/>
<path d="M255.157 166.781C255.157 166.781 240.674 155.87 236.349 153.619C232.079 151.396 228.916 153.191 227.382 153.238C225.01 156.642 219.475 162.4 209.262 162.27C196.89 162.112 193.439 155.228 192.695 153.219C190.826 153.275 188.891 153.387 187.068 153.805C181.235 155.126 166.566 169.795 166.566 169.795L176.538 187.096L183.682 181.45C183.682 181.45 186.128 185.776 187.635 190.482C189.142 195.189 188.574 220.769 188.574 220.769L244.999 219.448L239.167 183.525L247.446 187.85L255.157 166.781Z" fill="#002E47" stroke="#002E47" stroke-miterlimit="10" stroke-linecap="round" stroke-linejoin="round"/>
<path d="M219.456 202.595C228.781 200.374 234.541 191.015 232.321 181.69C230.101 172.364 220.742 166.604 211.416 168.824C202.091 171.045 196.331 180.404 198.551 189.729C200.771 199.055 210.131 204.815 219.456 202.595Z" stroke="white" stroke-miterlimit="10"/>
<path d="M226.044 177.85H205.469L215.608 187.627L226.044 177.85Z" fill="#39B4EF"/>
<path d="M219.727 185.468L226.889 191.794V178.753L219.727 185.468Z" fill="#39B4EF"/>
<path d="M211.56 185.45L204.305 178.455V191.496L211.56 185.45Z" fill="#39B4EF"/>
<path d="M218.816 186.315L215.598 189.338L212.463 186.315L204.91 192.612H225.942L218.816 186.315Z" fill="#39B4EF"/>
<path d="M18.8906 411.893H428.468" stroke="#002E47" stroke-miterlimit="10"/>
</svg>
