<svg width="50" height="50" viewBox="0 0 50 50" fill="none" xmlns="http://www.w3.org/2000/svg">
<g clip-path="url(#clip0_246_23086)">
<path d="M37.9181 0H4.58465C2.28464 0.00270835 0.420677 1.86667 0.417969 4.16668V30.8335C0.41776 32.734 1.7036 34.3937 3.54382 34.8685L3.96048 33.2551C2.856 32.9703 2.08423 31.9741 2.08464 30.8335V4.16668C2.08464 2.78595 3.20392 1.66667 4.58465 1.66667H37.9181C39.2989 1.66667 40.4181 2.78595 40.4181 4.16668V5.00002H42.0848V4.16668C42.0821 1.86667 40.2181 0.00270835 37.9181 0Z" fill="#39B4EF"/>
<path d="M5.41667 3.33325H3.75V4.99993H5.41667V3.33325Z" fill="#39B4EF"/>
<path d="M8.74871 3.33325H7.08203V4.99993H8.74871V3.33325Z" fill="#39B4EF"/>
<path d="M12.0846 3.33325H10.418V4.99993H12.0846V3.33325Z" fill="#39B4EF"/>
<path d="M49.3393 46.0778L41.4351 38.1736C41.8503 37.4324 42.1824 36.6477 42.4251 35.8336H43.7501V34.1669H42.7835C43.0973 32.1497 42.8554 30.0851 42.0835 28.1952V20.0002H40.4168V25.3069C39.9219 24.6747 39.3635 24.095 38.7501 23.5769V16.6668H37.0835V22.4119C36.55 22.1027 35.9926 21.8366 35.4168 21.616V13.3335H33.7501V21.1102C33.2009 20.9917 32.644 20.9134 32.0834 20.876V15.0002H30.4168V20.876C29.8562 20.9134 29.2993 20.9917 28.7501 21.1102V18.3335H27.0834V21.616C26.5076 21.8366 25.9503 22.1027 25.4167 22.4119V17.5002H23.7501V23.5769C23.1367 24.095 22.5783 24.6747 22.0834 25.3069V19.1669H20.4167V28.1952C19.6448 30.0851 19.4029 32.1497 19.7167 34.1669H8.75V35.8336H20.075C21.9028 41.9984 28.382 45.5143 34.5467 43.6865C35.7615 43.3263 36.9094 42.7703 37.9451 42.0403L45.661 49.7561C45.9864 50.0815 46.5139 50.0815 46.8393 49.7561L49.3393 47.2561C49.6646 46.9307 49.6646 46.4032 49.3393 46.0778ZM31.2501 42.5003C25.7297 42.4943 21.256 38.0207 21.2501 32.5002C21.2501 26.9774 25.7273 22.5002 31.2501 22.5002C36.7729 22.5002 41.2501 26.9774 41.2501 32.5002C41.2501 38.0231 36.7729 42.5003 31.2501 42.5003ZM46.2502 47.9886L39.2401 40.9786C39.6943 40.5494 40.1137 40.085 40.4943 39.5894L47.5718 46.667L46.2502 47.9886Z" fill="#39B4EF"/>
<path d="M31.2513 24.1667C26.6489 24.1667 22.918 27.8977 22.918 32.5001C22.918 37.1025 26.6489 40.8335 31.2513 40.8335C35.8538 40.8335 39.5847 37.1025 39.5847 32.5001C39.5797 27.8998 35.8517 24.1717 31.2513 24.1667ZM31.2513 39.1668C28.8726 39.1638 26.6757 37.8935 25.4863 35.8335H37.0164C35.827 37.8935 33.6301 39.1638 31.2513 39.1668ZM24.8038 34.1668C24.1333 31.6293 25.0286 28.9355 27.0847 27.3043V32.5001H28.7513V26.3243C29.2857 26.108 29.846 25.9624 30.418 25.8909V32.5001H32.0847V25.8909C32.6567 25.9624 33.217 26.108 33.7513 26.3243V32.5001H35.418V27.3043C37.4741 28.9355 38.3694 31.6293 37.6989 34.1668H24.8038Z" fill="#39B4EF"/>
<path d="M42.9181 6.66675H9.58465C7.28464 6.66946 5.42068 8.53342 5.41797 10.8334V37.5002C5.42068 39.8002 7.28464 41.6642 9.58465 41.6669H20.418V40.0002H9.58465C8.20392 40.0002 7.08464 38.8809 7.08464 37.5002V10.8334C7.08464 9.4527 8.20392 8.33342 9.58465 8.33342H42.9181C44.2989 8.33342 45.4181 9.4527 45.4181 10.8334V37.5002C45.418 38.1091 45.1959 38.6969 44.7931 39.1535L46.0431 40.2561C46.7148 39.4952 47.0852 38.5151 47.0848 37.5002V10.8334C47.0821 8.53342 45.2181 6.66946 42.9181 6.66675Z" fill="#39B4EF"/>
<path d="M10.4167 10H8.75V11.6667H10.4167V10Z" fill="#39B4EF"/>
<path d="M13.7487 10H12.082V11.6667H13.7487V10Z" fill="#39B4EF"/>
<path d="M17.0846 10H15.418V11.6667H17.0846V10Z" fill="#39B4EF"/>
<path d="M12.0846 27.5H10.418V32.5H12.0846V27.5Z" fill="#39B4EF"/>
<path d="M15.4167 22.5H13.75V32.5H15.4167V22.5Z" fill="#39B4EF"/>
<path d="M18.7487 25H17.082V32.5H18.7487V25Z" fill="#39B4EF"/>
</g>
<defs>
<clipPath id="clip0_246_23086">
<rect width="50" height="50" fill="white"/>
</clipPath>
</defs>
</svg>
