<svg width="449" height="410" viewBox="0 0 449 410" fill="none" xmlns="http://www.w3.org/2000/svg">
<path d="M424.146 86.2951C422.675 83.7878 421.121 81.3365 419.501 78.9318C397.926 46.9153 360.798 25.021 324.276 15.1225C308.285 10.7884 291.764 8.51413 275.216 7.95489C166.68 4.27322 123.447 89.9302 87.5757 112.039C51.7044 134.147 -3.49857 171.905 0.187211 251.122C3.873 330.338 60.891 404.95 171.269 409.554C281.647 414.159 289.009 364.424 350.635 345.997C391.42 333.805 420.395 292.627 434.589 254.57C453.93 202.71 453.018 135.35 424.146 86.2951Z" fill="#39B4EF"/>
<path opacity="0.7" d="M424.146 86.2951C422.675 83.7878 421.121 81.3365 419.501 78.9318C397.926 46.9153 360.798 25.021 324.276 15.1225C308.285 10.7884 291.764 8.51413 275.216 7.95489C166.68 4.27322 123.447 89.9302 87.5757 112.039C51.7044 134.147 -3.49857 171.905 0.187211 251.122C3.873 330.338 60.891 404.95 171.269 409.554C281.647 414.159 289.009 364.424 350.635 345.997C391.42 333.805 420.395 292.627 434.589 254.57C453.93 202.71 453.018 135.35 424.146 86.2951Z" fill="white"/>
<path d="M373.105 398.78H445.648" stroke="#002E47" stroke-miterlimit="10" stroke-linecap="round" stroke-linejoin="round"/>
<path d="M31.8164 398.78H365.976" stroke="#002E47" stroke-miterlimit="10" stroke-linecap="round" stroke-linejoin="round"/>
<path d="M12.1953 398.78H26.4638" stroke="#002E47" stroke-miterlimit="10" stroke-linecap="round" stroke-linejoin="round"/>
<path d="M409.442 303.811C409.46 303.765 409.442 303.728 409.405 303.709C409.367 303.69 409.321 303.709 409.302 303.746C406.985 309.115 405.347 314.745 403.988 320.43C402.675 326.125 401.717 331.913 401.056 337.729L400.637 342.101C400.572 342.828 400.497 343.555 400.441 344.291L400.32 346.481C400.255 347.945 400.172 349.408 400.125 350.872L400.162 355.262L400.209 357.461C400.237 358.188 400.293 358.925 400.339 359.652C400.451 361.115 400.535 362.569 400.674 364.032C400.953 366.94 401.391 369.839 401.838 372.729C401.847 372.766 401.875 372.794 401.912 372.794C401.959 372.794 401.987 372.756 401.987 372.719C401.977 371.256 401.921 369.802 401.884 368.338C401.847 366.884 401.717 365.43 401.735 363.976C401.745 362.522 401.707 361.068 401.689 359.614L401.651 357.433L401.689 355.252L401.707 350.9L401.828 346.547L401.875 344.366C401.903 343.639 401.959 342.921 401.996 342.194L402.266 337.841C402.778 332.053 403.569 326.293 404.723 320.589C405.886 314.903 407.32 309.236 409.442 303.811Z" fill="#002E47"/>
<path d="M410.055 326.582C410.064 326.545 410.046 326.498 410.008 326.489C409.971 326.47 409.925 326.498 409.915 326.535C408.668 330.152 407.663 333.852 406.825 337.59C406.016 341.336 405.383 345.13 405.001 348.951C404.619 352.764 404.191 356.576 404.135 360.407C404.08 364.237 404.135 368.068 404.545 371.89C404.545 371.927 404.573 371.955 404.61 371.955C404.657 371.955 404.694 371.927 404.694 371.89C405.131 368.077 405.401 364.275 405.671 360.472C405.941 356.669 405.978 352.857 406.22 349.054C406.453 345.26 406.928 341.486 407.579 337.739C408.212 333.982 409.003 330.245 410.055 326.582Z" fill="#002E47"/>
<path d="M422.665 334.588C422.647 334.551 422.591 334.542 422.563 334.56C419.408 336.564 416.597 339.081 414.14 341.914C412.93 343.359 411.803 344.86 410.845 346.5L410.165 347.777L409.635 349.11C409.439 349.548 409.309 350.005 409.169 350.461C409.03 350.918 408.881 351.365 408.76 351.822C407.811 355.476 407.187 359.204 407.019 362.951C406.87 366.698 406.936 370.445 407.438 374.164C407.448 374.201 407.475 374.229 407.513 374.229C407.559 374.229 407.596 374.201 407.596 374.155L408.555 363.054C408.937 359.381 409.169 355.69 409.961 352.111C410.063 351.664 410.193 351.226 410.305 350.788C410.417 350.35 410.528 349.902 410.696 349.483L411.143 348.196L411.72 346.985C412.576 345.382 413.618 343.844 414.735 342.39C416.988 339.482 419.631 336.825 422.647 334.682C422.675 334.663 422.684 334.626 422.665 334.588Z" fill="#002E47"/>
<path d="M416.56 348.849C414.838 349.958 413.693 351.701 412.725 353.463C411.804 355.262 411.078 357.163 410.575 359.111C410.426 359.596 410.305 360.08 410.203 360.574L409.859 362.047C409.682 363.035 409.542 364.042 409.486 365.048C409.477 366.055 409.44 367.062 409.514 368.068C409.598 369.075 409.71 370.072 409.905 371.069C409.914 371.097 409.933 371.125 409.97 371.135C410.017 371.144 410.054 371.116 410.063 371.069C410.305 370.081 410.464 369.093 410.594 368.115C410.752 367.136 410.901 366.167 411.022 365.197C411.162 364.228 411.292 363.268 411.366 362.289C411.506 361.329 411.571 360.341 411.785 359.391C412.12 357.471 412.679 355.588 413.433 353.789C414.177 352.009 415.155 350.228 416.653 348.979L416.662 348.97C416.69 348.942 416.7 348.905 416.681 348.868C416.644 348.83 416.597 348.821 416.56 348.849Z" fill="#002E47"/>
<path d="M398.884 359.968C398.465 355.038 397.655 350.163 396.892 345.288C396.12 340.414 395.273 335.548 394.379 330.702C393.458 325.855 392.49 321.017 391.447 316.199C391.438 316.161 391.401 316.133 391.354 316.143C391.317 316.152 391.289 316.189 391.289 316.236C392.127 321.092 392.89 325.967 393.616 330.841C394.351 335.716 395.049 340.591 395.664 345.475C396.269 350.359 396.734 355.262 397.348 360.146L399.145 374.816C399.145 374.854 399.182 374.882 399.219 374.882C399.266 374.882 399.294 374.854 399.303 374.807C399.359 373.567 399.359 372.337 399.387 371.097C399.396 369.858 399.34 368.627 399.312 367.388C399.284 364.89 399.07 362.429 398.884 359.968Z" fill="#002E47"/>
<path d="M395.935 359.894C395.675 357.946 395.312 355.998 394.939 354.069L394.251 351.188C394.027 350.228 393.813 349.268 393.534 348.318C392.557 344.496 391.3 340.749 389.774 337.114L389.187 335.763L388.536 334.439C388.117 333.544 387.614 332.696 387.14 331.839C386.107 330.161 385.046 328.483 383.584 327.122C383.556 327.095 383.51 327.095 383.482 327.122C383.454 327.15 383.454 327.197 383.482 327.234L383.491 327.244C384.831 328.642 385.818 330.366 386.74 332.062C387.168 332.939 387.624 333.796 387.987 334.7L388.564 336.042L389.076 337.412C390.435 341.057 391.533 344.813 392.352 348.625C392.799 350.517 393.097 352.456 393.469 354.367L393.925 357.256C394.092 358.216 394.297 359.167 394.428 360.136C394.735 362.066 395.088 363.986 395.423 365.915C395.721 367.844 396.075 369.774 396.485 371.713C396.494 371.75 396.522 371.778 396.559 371.778C396.605 371.778 396.633 371.741 396.633 371.703C396.643 369.737 396.596 367.761 396.494 365.794C396.373 363.809 396.14 361.851 395.935 359.894Z" fill="#002E47"/>
<path d="M391.868 360.146C390.955 357.564 389.904 355.029 388.749 352.549C387.567 350.079 386.292 347.665 384.831 345.354C384.812 345.326 384.766 345.307 384.729 345.326C384.691 345.344 384.682 345.391 384.701 345.428C385.985 347.824 387.065 350.322 388.042 352.848C389.038 355.364 389.941 357.927 390.695 360.518C391.467 363.11 392.016 365.757 392.705 368.366C393.431 370.967 394.018 373.605 394.818 376.242C394.827 376.27 394.855 376.298 394.892 376.298C394.939 376.298 394.967 376.261 394.967 376.224C395.004 373.474 394.734 370.725 394.204 368.031C393.72 365.328 392.77 362.727 391.868 360.146Z" fill="#002E47"/>
<path d="M391.7 368.758C391.235 367.136 390.435 365.626 389.532 364.209C388.647 362.783 387.614 361.432 386.376 360.285C385.744 359.735 385.092 359.204 384.375 358.766C383.668 358.319 382.914 357.946 382.104 357.741C382.067 357.732 382.03 357.75 382.011 357.787C381.993 357.825 382.011 357.871 382.048 357.89H382.058C383.528 358.542 384.776 359.633 385.827 360.826C386.898 362.019 387.745 363.389 388.452 364.815C389.197 366.232 389.588 367.798 390.23 369.252C390.518 369.998 390.798 370.752 391.133 371.498C391.412 372.262 391.728 373.017 392.119 373.772C392.128 373.8 392.156 373.81 392.184 373.819C392.231 373.819 392.268 373.791 392.268 373.744C392.305 372.906 392.249 372.067 392.175 371.228C392.063 370.398 391.896 369.578 391.7 368.758Z" fill="#002E47"/>
<path d="M391.997 323.245C391.997 323.245 383.937 321.381 382.075 312.685C380.214 303.989 386.208 307.717 380.838 294.053C375.458 280.389 376.705 277.285 378.566 273.352C380.428 269.418 381.461 270.658 383.118 275.84C384.775 281.013 390.769 289.094 393.04 304.203C395.311 319.312 391.997 323.245 391.997 323.245Z" fill="#39B4EF"/>
<path d="M407.924 308.546C407.924 308.546 402.553 306.682 402.339 296.541C402.135 286.4 406.267 288.47 406.891 275.84C407.514 263.211 408.333 254.309 410.614 254.104C412.885 253.899 418.879 260.312 420.954 274.395C423.021 288.47 418.265 297.79 414.132 301.929C409.99 306.058 407.924 308.546 407.924 308.546Z" fill="#39B4EF"/>
<path d="M389.103 335.455C389.103 335.455 387.865 327.999 385.38 324.485C382.895 320.962 377.524 317.858 374.006 311.026C370.488 304.194 366.56 300.885 366.774 310.616C366.979 320.346 371.325 325.314 376.696 328.623C382.066 331.932 389.103 335.455 389.103 335.455Z" fill="#39B4EF"/>
<path d="M386.833 348.29C386.833 348.29 381.872 338.764 374.64 331.727C367.408 324.69 361.619 321.167 363.685 324.69C365.752 328.213 368.237 327.999 371.746 334.216C375.264 340.423 374.231 344.981 379.192 348.504C384.143 352.018 386.833 348.29 386.833 348.29Z" fill="#39B4EF"/>
<path d="M386.208 360.509C386.003 359.885 385.798 355.336 378.762 351.608C371.735 347.88 365.117 349.334 365.945 351.198C366.774 353.062 371.111 356.166 375.458 358.03C379.804 359.885 386.208 360.509 386.208 360.509Z" fill="#39B4EF"/>
<path d="M407.504 335.875C407.504 335.875 404.405 331.941 406.061 323.665C407.718 315.388 411.432 317.457 415.574 313.104C419.706 308.761 418.878 308.136 423.02 303.578C427.152 299.021 430.875 296.541 432.532 298.405C434.189 300.27 431.704 306.067 429.228 309.376C426.743 312.685 422.815 314.344 420.963 318.482C419.101 322.621 419.93 329.248 415.174 332.351C410.399 335.455 407.504 335.875 407.504 335.875Z" fill="#39B4EF"/>
<path d="M417.848 338.149C417.848 338.149 425.294 329.658 430.664 323.45C436.035 317.243 438.11 312.48 438.315 316.618C438.52 320.756 440.176 324.075 435.83 329.453C431.492 334.84 417.848 338.149 417.848 338.149Z" fill="#39B4EF"/>
<path d="M413.918 351.813C413.918 351.813 413.713 348.504 425.497 340.843C437.28 333.181 442.241 331.736 441.003 334.84C439.765 337.944 434.59 341.048 429.015 346.64C423.421 352.223 413.918 351.813 413.918 351.813Z" fill="#39B4EF"/>
<path d="M392.493 322.36C392.493 322.36 389.729 307.512 386.834 296.952C383.94 286.391 382.078 279.979 382.078 279.979" stroke="#002E47" stroke-miterlimit="10" stroke-linecap="round" stroke-linejoin="round"/>
<path d="M407.441 308.696C407.441 308.696 412.467 292.599 414.124 282.868C415.781 273.137 413.919 265.895 413.091 261.542" stroke="#002E47" stroke-miterlimit="10" stroke-linecap="round" stroke-linejoin="round"/>
<path d="M388.451 335.148C388.451 335.148 385.38 329.658 380.838 324.28C376.286 318.902 372.777 316.003 370.711 310.821" stroke="#002E47" stroke-miterlimit="10" stroke-linecap="round" stroke-linejoin="round"/>
<path d="M407.504 335.875C407.504 335.875 409.161 325.939 413.088 320.766C417.016 315.593 424.872 307.512 427.971 302.339" stroke="#002E47" stroke-miterlimit="10" stroke-linecap="round" stroke-linejoin="round"/>
<path d="M385.724 360.285C385.724 360.285 378.771 355.746 373.801 353.267" stroke="#002E47" stroke-miterlimit="10" stroke-linecap="round" stroke-linejoin="round"/>
<path d="M408.595 404.186H394.224L387.039 368.171H415.781L408.595 404.186Z" fill="#002E47" stroke="#002E47" stroke-miterlimit="10" stroke-linecap="round" stroke-linejoin="round"/>
<g opacity="0.3">
<path d="M350.786 36.3643C360.311 36.3643 368.033 28.6317 368.033 19.0931C368.033 9.55448 360.311 1.8219 350.786 1.8219C341.261 1.8219 333.539 9.55448 333.539 19.0931C333.539 28.6317 341.261 36.3643 350.786 36.3643Z" stroke="#002E47" stroke-miterlimit="10" stroke-linecap="round" stroke-linejoin="round"/>
<path d="M359.45 25.4125L350.785 19.0931V12.811" stroke="#002E47" stroke-miterlimit="10" stroke-linecap="round" stroke-linejoin="round"/>
</g>
<g opacity="0.3">
<path d="M238.523 53.4941C247.578 52.0139 253.721 43.4626 252.243 34.3944C250.764 25.3262 242.225 19.175 233.17 20.6553C224.114 22.1355 217.972 30.6868 219.45 39.755C220.928 48.8232 229.467 54.9744 238.523 53.4941Z" stroke="#002E47" stroke-miterlimit="10" stroke-linecap="round" stroke-linejoin="round"/>
<path d="M246.577 30.0356H225.133V44.1284H246.577V30.0356Z" stroke="#002E47" stroke-miterlimit="10" stroke-linecap="round" stroke-linejoin="round"/>
<path d="M225.133 30.0356L235.855 37.082L246.577 30.0356" stroke="#002E47" stroke-miterlimit="10" stroke-linecap="round" stroke-linejoin="round"/>
</g>
<g opacity="0.3">
<path d="M67.9655 82.2592C77.1412 82.2592 84.5795 74.8104 84.5795 65.6219C84.5795 56.4333 77.1412 48.9845 67.9655 48.9845C58.7899 48.9845 51.3516 56.4333 51.3516 65.6219C51.3516 74.8104 58.7899 82.2592 67.9655 82.2592Z" stroke="#002E47" stroke-miterlimit="10" stroke-linecap="round" stroke-linejoin="round"/>
<path d="M76.2781 66.2184L63.5547 58.8644V73.5724L76.2781 66.2184Z" stroke="#002E47" stroke-miterlimit="10" stroke-linecap="round" stroke-linejoin="round"/>
</g>
<g opacity="0.3">
<path d="M159.061 304.156C163.91 292.634 158.514 279.356 147.008 274.5C135.503 269.643 122.244 275.047 117.394 286.569C112.545 298.091 117.941 311.369 129.447 316.225C140.952 321.082 154.211 315.678 159.061 304.156Z" stroke="#002E47" stroke-miterlimit="10" stroke-linecap="round" stroke-linejoin="round"/>
<path d="M138.389 303.271C142.748 303.271 146.282 299.732 146.282 295.367C146.282 291.002 142.748 287.463 138.389 287.463C134.03 287.463 130.496 291.002 130.496 295.367C130.496 299.732 134.03 303.271 138.389 303.271Z" stroke="#002E47" stroke-miterlimit="10" stroke-linecap="round" stroke-linejoin="round"/>
<path d="M157.587 299.002V292.068H152.989C152.626 290.446 151.993 288.936 151.155 287.566L154.487 284.229L149.591 279.326L146.278 282.644C144.928 281.805 143.448 281.181 141.857 280.799V275.98H134.932V280.799C133.378 281.172 131.926 281.777 130.595 282.588L127.104 279.093L122.209 283.996L125.68 287.472C124.871 288.777 124.266 290.203 123.884 291.732H118.867V298.667H123.8C124.145 300.204 124.731 301.649 125.503 302.963L121.967 306.505L126.862 311.408L130.297 307.969C131.6 308.807 133.052 309.451 134.588 309.851V314.754H141.512V310.019C143.113 309.674 144.603 309.078 145.971 308.267L149.34 311.641L154.236 306.738L150.96 303.457C151.834 302.106 152.486 300.596 152.886 298.993H157.587V299.002Z" stroke="#002E47" stroke-miterlimit="10" stroke-linecap="round" stroke-linejoin="round"/>
</g>
<g opacity="0.3">
<path d="M432.068 162.832C440.897 153.991 440.897 139.656 432.068 130.815C423.239 121.973 408.924 121.973 400.096 130.815C391.267 139.656 391.267 153.991 400.095 162.832C408.924 171.673 423.239 171.673 432.068 162.832Z" stroke="#002E47" stroke-miterlimit="10" stroke-linecap="round" stroke-linejoin="round"/>
<path d="M425.115 135.657H405.393C403.047 135.657 401.148 137.559 401.148 139.908V150.766C401.148 153.115 403.047 155.016 405.393 155.016H419.047L417.976 162.874L424.575 155.016H425.115C427.461 155.016 429.36 153.115 429.36 150.766V139.908C429.35 137.559 427.452 135.657 425.115 135.657Z" stroke="#002E47" stroke-miterlimit="10" stroke-linecap="round" stroke-linejoin="round"/>
<path d="M407.031 142.34H424.269" stroke="#002E47" stroke-miterlimit="10" stroke-linecap="round" stroke-linejoin="round"/>
<path d="M407.031 147.709H424.269" stroke="#002E47" stroke-miterlimit="10" stroke-linecap="round" stroke-linejoin="round"/>
</g>
<path d="M341.589 156.89V127.53H338.937V89.9488C338.937 77.1515 328.577 66.7776 315.798 66.7776H191.533C178.754 66.7776 168.395 77.1515 168.395 89.9488V385.815C168.395 398.612 178.754 408.986 191.533 408.986H315.807C328.587 408.986 338.946 398.612 338.946 385.815V181.916H341.598V164.57H338.946V156.899H341.589V156.89Z" fill="#B3C7EB" stroke="#002E47" stroke-miterlimit="10" stroke-linejoin="round"/>
<path d="M311.751 405.798H195.593C182.06 405.798 171.086 394.809 171.086 381.257V94.5159C171.086 80.9637 178.02 69.9746 195.593 69.9746H311.76C327.871 69.7509 336.267 80.9637 336.267 94.5159V381.248C336.267 394.809 325.293 405.798 311.751 405.798Z" fill="#002E47" stroke="#002E47" stroke-miterlimit="10" stroke-linejoin="round"/>
<path d="M262.66 73.7495L262.614 73.9173C261.255 78.9877 258.127 82.2779 254.665 82.2779H252.673C249.211 82.2779 246.083 78.9877 244.725 73.9173L244.678 73.7495L196.204 73.5817C184.914 73.5444 175.737 82.6973 175.737 94.0033L175.672 378.228C175.672 391.472 186.031 402.21 198.81 402.21H308.537C321.316 402.21 331.676 391.472 331.676 378.228L331.648 91.9621C331.648 82.2686 323.848 74.3833 314.168 74.2808L262.66 73.7495Z" fill="#39B4EF" stroke="#002E47" stroke-miterlimit="10" stroke-linecap="round" stroke-linejoin="round"/>
<path d="M255.365 73.1902C255.365 71.9879 254.397 71.0185 253.196 71.0185C251.995 71.0185 251.027 71.9879 251.027 73.1902C251.027 74.3926 251.995 75.362 253.196 75.362C254.397 75.362 255.365 74.3833 255.365 73.1902Z" fill="#B3C7EB"/>
<path d="M200.768 154.01C206.309 154.01 210.801 149.511 210.801 143.962C210.801 138.413 206.309 133.914 200.768 133.914C195.227 133.914 190.734 138.413 190.734 143.962C190.734 149.511 195.227 154.01 200.768 154.01Z" fill="white" stroke="#002E47" stroke-width="2" stroke-miterlimit="10" stroke-linecap="round" stroke-linejoin="round"/>
<path d="M237.077 154.01C242.618 154.01 247.11 149.511 247.11 143.962C247.11 138.413 242.618 133.914 237.077 133.914C231.535 133.914 227.043 138.413 227.043 143.962C227.043 149.511 231.535 154.01 237.077 154.01Z" fill="white"/>
<path d="M273.393 154.01C278.934 154.01 283.426 149.511 283.426 143.962C283.426 138.413 278.934 133.914 273.393 133.914C267.852 133.914 263.359 138.413 263.359 143.962C263.359 149.511 267.852 154.01 273.393 154.01Z" fill="white"/>
<path d="M216.887 115.534H293.581" stroke="#002E47" stroke-miterlimit="10" stroke-linecap="round" stroke-linejoin="round"/>
<path d="M309.701 154.01C315.243 154.01 319.735 149.511 319.735 143.962C319.735 138.413 315.243 133.914 309.701 133.914C304.16 133.914 299.668 138.413 299.668 143.962C299.668 149.511 304.16 154.01 309.701 154.01Z" fill="white"/>
<path d="M202.337 199.345C207.811 198.483 211.552 193.34 210.691 187.858C209.83 182.376 204.695 178.631 199.221 179.493C193.746 180.354 190.006 185.497 190.867 190.979C191.727 196.461 196.863 200.207 202.337 199.345Z" fill="white"/>
<path d="M239.39 199.201C244.782 197.921 248.116 192.505 246.837 187.106C245.558 181.707 240.15 178.368 234.759 179.648C229.367 180.929 226.033 186.345 227.312 191.744C228.591 197.143 233.998 200.482 239.39 199.201Z" fill="white"/>
<path d="M275.003 199.342C280.472 198.45 284.184 193.287 283.294 187.81C282.403 182.333 277.247 178.616 271.778 179.508C266.309 180.399 262.597 185.562 263.487 191.039C264.378 196.516 269.534 200.234 275.003 199.342Z" fill="white"/>
<path d="M311.271 199.35C316.744 198.482 320.479 193.335 319.612 187.854C318.745 182.373 313.606 178.633 308.133 179.501C302.66 180.369 298.925 185.516 299.792 190.997C300.659 196.478 305.798 200.217 311.271 199.35Z" fill="white" stroke="#002E47" stroke-width="2" stroke-miterlimit="10" stroke-linecap="round" stroke-linejoin="round"/>
<path d="M200.768 244.914C206.309 244.914 210.801 240.416 210.801 234.867C210.801 229.317 206.309 224.819 200.768 224.819C195.227 224.819 190.734 229.317 190.734 234.867C190.734 240.416 195.227 244.914 200.768 244.914Z" fill="white"/>
<path d="M237.077 244.914C242.618 244.914 247.11 240.416 247.11 234.867C247.11 229.317 242.618 224.819 237.077 224.819C231.535 224.819 227.043 229.317 227.043 234.867C227.043 240.416 231.535 244.914 237.077 244.914Z" fill="white"/>
<path d="M273.393 244.914C278.934 244.914 283.426 240.416 283.426 234.867C283.426 229.317 278.934 224.819 273.393 224.819C267.852 224.819 263.359 229.317 263.359 234.867C263.359 240.416 267.852 244.914 273.393 244.914Z" fill="white"/>
<path d="M309.701 244.914C315.243 244.914 319.735 240.416 319.735 234.867C319.735 229.317 315.243 224.819 309.701 224.819C304.16 224.819 299.668 229.317 299.668 234.867C299.668 240.416 304.16 244.914 309.701 244.914Z" fill="white"/>
<path d="M200.768 290.371C206.309 290.371 210.801 285.873 210.801 280.323C210.801 274.774 206.309 270.276 200.768 270.276C195.227 270.276 190.734 274.774 190.734 280.323C190.734 285.873 195.227 290.371 200.768 290.371Z" fill="white"/>
<path d="M237.077 290.371C242.618 290.371 247.11 285.873 247.11 280.323C247.11 274.774 242.618 270.276 237.077 270.276C231.535 270.276 227.043 274.774 227.043 280.323C227.043 285.873 231.535 290.371 237.077 290.371Z" fill="white"/>
<path d="M273.393 290.371C278.934 290.371 283.426 285.873 283.426 280.323C283.426 274.774 278.934 270.276 273.393 270.276C267.852 270.276 263.359 274.774 263.359 280.323C263.359 285.873 267.852 290.371 273.393 290.371Z" fill="white"/>
<path d="M309.701 290.371C315.243 290.371 319.735 285.873 319.735 280.323C319.735 274.774 315.243 270.276 309.701 270.276C304.16 270.276 299.668 274.774 299.668 280.323C299.668 285.873 304.16 290.371 309.701 290.371Z" fill="white" stroke="#002E47" stroke-width="2" stroke-miterlimit="10" stroke-linecap="round" stroke-linejoin="round"/>
<path d="M200.768 339.398C206.309 339.398 210.801 334.899 210.801 329.35C210.801 323.801 206.309 319.302 200.768 319.302C195.227 319.302 190.734 323.801 190.734 329.35C190.734 334.899 195.227 339.398 200.768 339.398Z" fill="white"/>
<path d="M237.077 339.398C242.618 339.398 247.11 334.899 247.11 329.35C247.11 323.801 242.618 319.302 237.077 319.302C231.535 319.302 227.043 323.801 227.043 329.35C227.043 334.899 231.535 339.398 237.077 339.398Z" fill="white"/>
<path d="M273.393 339.398C278.934 339.398 283.426 334.899 283.426 329.35C283.426 323.801 278.934 319.302 273.393 319.302C267.852 319.302 263.359 323.801 263.359 329.35C263.359 334.899 267.852 339.398 273.393 339.398Z" fill="white"/>
<path d="M309.701 339.398C315.243 339.398 319.735 334.899 319.735 329.35C319.735 323.801 315.243 319.302 309.701 319.302C304.16 319.302 299.668 323.801 299.668 329.35C299.668 334.899 304.16 339.398 309.701 339.398Z" fill="white"/>
<path d="M309.945 381.704H199.092C195.006 381.704 191.684 378.386 191.684 374.285C191.684 370.193 194.997 366.866 199.092 366.866H309.945C314.031 366.866 317.354 370.184 317.354 374.285C317.345 378.377 314.031 381.704 309.945 381.704Z" fill="white"/>
<path d="M191.047 78.7267C191.047 80.9264 188.581 81.7187 188.571 83.3964V83.5082H190.964V84.2446H187.771V83.6201C187.771 81.262 190.238 80.8052 190.238 78.7547C190.238 77.9997 189.986 77.6083 189.381 77.6083C188.786 77.6083 188.525 78.037 188.525 78.6801V79.3233H187.762V78.7267C187.762 77.6082 188.274 76.8719 189.4 76.8719C190.535 76.8812 191.047 77.6082 191.047 78.7267Z" fill="#002E47"/>
<path d="M195.041 78.7174V78.9038C195.041 79.6588 194.743 80.1901 194.157 80.4045C194.771 80.6375 195.041 81.1874 195.041 81.9144V82.4736C195.041 83.5921 194.52 84.3191 193.394 84.3191C192.277 84.3191 191.755 83.5921 191.755 82.4736V81.9703H192.519V82.5202C192.519 83.182 192.789 83.5735 193.375 83.5735C193.971 83.5735 194.231 83.1913 194.231 82.4457V81.8864C194.231 81.1687 193.933 80.8239 193.31 80.8052H192.872V80.0782H193.347C193.887 80.0596 194.222 79.7147 194.222 79.0809V78.7454C194.222 77.9904 193.961 77.6083 193.366 77.6083C192.779 77.6083 192.509 78.0184 192.509 78.6708V79.0436H191.746V78.7081C191.746 77.5896 192.267 76.8719 193.384 76.8719C194.52 76.8812 195.041 77.5989 195.041 78.7174Z" fill="#002E47"/>
<path d="M196.614 79.2673V80.2833H195.832V79.2673H196.614ZM196.614 83.2379V84.2539H195.832V83.2379H196.614Z" fill="#002E47"/>
<path d="M198.251 79.9291C198.484 79.5283 198.847 79.3233 199.331 79.3233C200.271 79.3233 200.68 80.013 200.68 81.0569V82.483C200.68 83.6014 200.15 84.3285 199.033 84.3285C197.916 84.3285 197.395 83.6014 197.395 82.483V81.989H198.158V82.5296C198.158 83.1913 198.428 83.5828 199.014 83.5828C199.6 83.5828 199.87 83.182 199.87 82.5296V81.1128C199.87 80.4604 199.6 80.0596 199.014 80.0596C198.567 80.0596 198.26 80.3112 198.195 80.8425V81.0103H197.432L197.627 76.9558H200.503V77.6828H198.353L198.251 79.9291Z" fill="#002E47"/>
<path d="M204.746 78.7081V78.8479H203.983V78.6615C203.983 77.9997 203.713 77.6176 203.117 77.6176C202.503 77.6176 202.233 78.0183 202.233 78.792V80.4324C202.429 79.9291 202.829 79.6495 203.406 79.6495C204.346 79.6495 204.755 80.3299 204.755 81.3831V82.4923C204.755 83.6107 204.206 84.3378 203.089 84.3378C201.963 84.3378 201.414 83.6107 201.414 82.4923V78.7733C201.414 77.6176 201.935 76.8999 203.089 76.8999C204.225 76.8812 204.746 77.5896 204.746 78.7081ZM202.233 81.439V82.5295C202.233 83.1913 202.503 83.5828 203.099 83.5828C203.685 83.5828 203.964 83.182 203.964 82.5295V81.439C203.964 80.7773 203.685 80.3858 203.099 80.3858C202.503 80.3858 202.233 80.7773 202.233 81.439Z" fill="#002E47"/>
<path d="M284.326 79.025H282.27V84.1793H284.326V79.025Z" fill="#002E47"/>
<path d="M287.073 77.9904H285.016V84.1793H287.073V77.9904Z" fill="#002E47"/>
<path d="M289.819 77.2634H287.762V84.1793H289.819V77.2634Z" fill="#002E47"/>
<path d="M292.553 75.9865H290.496V84.1793H292.553V75.9865Z" fill="#002E47"/>
<path d="M318.031 84.0395H305.68V76.4804H318.031V84.0395ZM306.368 83.3498H317.342V77.1702H306.368V83.3498Z" fill="#002E47"/>
<path d="M313.918 77.9158H307.402V82.6041H313.918V77.9158Z" fill="#002E47"/>
<path d="M319.156 79.3698H317.602V81.1501H319.156V79.3698Z" fill="#002E47"/>
<path d="M301.156 82.3898C301.073 82.3898 300.998 82.3711 300.924 82.3245C298.411 80.8332 296.745 82.2127 296.68 82.2779C296.484 82.4457 296.196 82.427 296.028 82.2313C295.86 82.0356 295.879 81.7466 296.075 81.5789C296.168 81.5043 298.29 79.6774 301.398 81.5323C301.622 81.6627 301.687 81.9424 301.557 82.1661C301.464 82.3152 301.315 82.3898 301.156 82.3898Z" fill="#002E47"/>
<path d="M302.085 80.8425C302.001 80.8425 301.927 80.8239 301.853 80.7773C298.223 78.6149 295.775 80.7027 295.747 80.7307C295.551 80.8984 295.263 80.8798 295.095 80.6934C294.928 80.4977 294.946 80.2087 295.133 80.0409C295.16 80.013 298.111 77.4871 302.318 79.9943C302.541 80.1248 302.606 80.4045 302.476 80.6281C302.392 80.7586 302.243 80.8425 302.085 80.8425Z" fill="#002E47"/>
<path d="M302.921 79.0436C302.838 79.0436 302.763 79.025 302.689 78.9784C298.091 76.2381 295.029 78.8199 294.898 78.9318C294.703 79.0995 294.414 79.0809 294.247 78.8852C294.079 78.6894 294.098 78.4005 294.293 78.2327C294.331 78.2048 297.96 75.0823 303.163 78.1861C303.387 78.3166 303.452 78.5962 303.322 78.8199C303.238 78.9597 303.08 79.0436 302.921 79.0436Z" fill="#002E47"/>
<path d="M299.769 83.1634C299.769 83.8065 299.248 84.3191 298.615 84.3191C297.973 84.3191 297.461 83.7972 297.461 83.1634C297.461 82.5202 297.982 82.0076 298.615 82.0076C299.248 82.0076 299.769 82.5296 299.769 83.1634Z" fill="#002E47"/>
<path d="M52.7122 394.716C52.7122 394.716 50.8693 397.699 49.7338 398.836C48.5983 399.973 45.201 402.387 43.9259 403.524C42.6508 404.661 42.7904 405.509 43.3581 406.367C43.9259 407.215 66.3198 406.367 66.3198 406.367C66.3198 406.367 67.1668 406.935 67.1668 403.524C67.1668 400.122 65.8917 397.988 65.8917 397.988C65.8917 397.988 54.2666 394.576 52.7122 394.716Z" fill="white" stroke="#002E47" stroke-miterlimit="10" stroke-linecap="round" stroke-linejoin="round"/>
<path d="M42.9671 404.941C42.874 405.444 43.0415 405.901 43.3487 406.357C43.9164 407.206 66.3104 406.357 66.3104 406.357C66.3104 406.357 66.8968 406.74 67.0922 404.941H42.9671Z" fill="white" stroke="#002E47" stroke-miterlimit="10" stroke-linecap="round" stroke-linejoin="round"/>
<path d="M96.627 394.716C96.627 394.716 98.5258 397.699 99.6985 398.836C100.871 399.973 104.38 402.387 105.702 403.524C107.014 404.661 106.875 405.509 106.288 406.367C105.702 407.215 82.5819 406.367 82.5819 406.367C82.5819 406.367 81.707 406.935 81.707 403.524C81.707 400.122 83.0194 397.988 83.0194 397.988C83.0194 397.988 95.0168 394.576 96.627 394.716Z" fill="white" stroke="#002E47" stroke-miterlimit="10" stroke-linecap="round" stroke-linejoin="round"/>
<path d="M106.68 404.941C106.783 405.444 106.597 405.901 106.289 406.357C105.703 407.206 82.5832 406.357 82.5832 406.357C82.5832 406.357 81.9782 406.74 81.7734 404.941H106.68Z" fill="white" stroke="#002E47" stroke-miterlimit="10" stroke-linecap="round" stroke-linejoin="round"/>
<path d="M49.9648 283.045C49.9648 283.045 51.8543 359.521 52.1428 363.492C52.422 367.462 53.8461 378.964 53.8461 378.964C53.8461 378.964 53.4179 383.503 53.1387 384.929C52.8595 386.346 54.1346 390.466 54.1346 390.466C54.1346 390.466 53.1387 392.171 52.9991 392.88C52.8595 393.588 52.7199 394.725 52.7199 394.725C52.7199 394.725 56.9734 395.573 60.3707 396.85C63.7679 398.127 65.8993 397.987 65.8993 397.987C65.8993 397.987 66.4671 394.297 67.1745 391.743C67.8819 389.189 68.7381 385.927 68.5892 383.224C68.4496 380.53 66.8859 375.702 67.0256 374.285C67.1652 372.868 69.0081 369.457 69.0081 367.043C69.0081 364.629 68.7288 359.381 68.7288 359.381L76.0539 300.223L81.0613 379.961C81.0613 379.961 78.6507 388.62 80.0654 390.037C81.4802 391.454 82.4761 392.731 82.4761 392.731C82.4761 392.731 81.7687 395.145 81.7687 395.853C81.7687 396.561 81.9083 396.99 81.9083 397.559C81.9083 398.127 82.0479 398.975 82.0479 398.975C82.0479 398.975 85.5941 397.559 88.7121 396.561C91.8302 395.564 96.6515 395.285 96.6515 395.285C96.6515 395.285 96.7911 391.165 96.7911 389.608C96.7911 388.052 98.0662 385.488 97.787 383.932C97.5077 382.366 96.3722 379.533 96.0837 378.395C95.8045 377.258 95.8045 374.844 95.8045 374.276C95.8045 373.707 98.4478 291.135 98.4478 291.135C98.4478 291.135 97.0331 280.062 97.0331 279.634C97.0331 279.205 95.4694 274.526 95.4694 274.526L50.1138 280.491L49.9648 283.045Z" fill="#002E47" stroke="#002E47" stroke-miterlimit="10" stroke-linecap="round" stroke-linejoin="round"/>
<path d="M66.5982 386.486C66.5982 386.486 51.4362 388.76 55.5408 389.888C59.6547 391.025 64.4667 391.165 64.1875 390.167C63.9083 389.17 61.9165 389.17 61.9165 389.17" stroke="#E2EDFF" stroke-miterlimit="10" stroke-linecap="round" stroke-linejoin="round"/>
<path d="M94.949 386.346C94.949 386.346 83.8916 392.88 85.7345 392.591C87.5774 392.311 92.3987 391.314 93.2457 390.177" stroke="#E2EDFF" stroke-miterlimit="10" stroke-linecap="round" stroke-linejoin="round"/>
<path d="M64.7099 204.257L56.9102 209.654L63.8536 280.631L89.9426 276.94L81.0074 202.981L64.7099 204.257Z" fill="white" stroke="#002E47" stroke-miterlimit="10" stroke-linecap="round" stroke-linejoin="round"/>
<path d="M60.168 194.042L62.1505 211.639C62.1505 211.639 64.8404 215.041 71.5046 214.053C78.1687 213.056 79.0157 208.377 79.0157 208.377L77.601 192.057C77.601 192.057 76.0373 193.762 70.9368 195.039C65.8456 196.316 60.168 194.042 60.168 194.042Z" fill="white" stroke="#002E47" stroke-miterlimit="10" stroke-linecap="round" stroke-linejoin="round"/>
<path d="M57.1958 163.806C57.1958 163.806 53.2308 166.499 51.9556 169.911C50.6805 173.313 51.3879 174.599 51.816 176.445C52.2442 178.29 54.7944 182.978 54.7944 182.978C54.7944 182.978 57.3447 190.789 58.1917 192.635C59.0387 194.48 65.1351 198.6 67.2665 200.017C67.2665 200.017 70.2449 200.585 71.5201 200.156C72.7952 199.728 75.7736 198.031 76.6206 195.617C77.4676 193.203 78.7427 190.929 78.8916 188.524C79.0312 186.11 78.752 178.728 78.752 178.728C78.752 178.728 81.87 172.194 80.5949 169.361C79.3198 166.518 77.0487 161.839 70.1053 160.702C63.1433 159.546 58.4709 161.681 57.1958 163.806Z" fill="white" stroke="#002E47" stroke-miterlimit="10" stroke-linecap="round" stroke-linejoin="round"/>
<path d="M80.5778 169.342C79.3027 166.499 77.0316 161.82 70.0882 160.683C63.1448 159.546 58.4631 161.681 57.1879 163.806C57.1879 163.806 53.2229 166.499 51.9478 169.911C50.6727 173.313 51.38 174.599 51.8082 176.445C52.2363 178.29 54.7866 182.978 54.7866 182.978C54.7866 182.978 55.0007 183.64 55.3357 184.628L55.5033 184.544C55.5033 184.544 54.5074 177.591 54.7959 176.165C55.0751 174.748 57.6347 172.903 58.1932 171.477C58.7609 170.06 58.9005 169.491 58.9005 169.491C58.9005 169.491 62.1582 174.459 67.9754 174.459C73.7833 174.459 76.4825 174.18 76.4825 174.18L77.8972 177.022L78.7442 178.728C78.7349 178.71 81.8622 172.185 80.5778 169.342Z" fill="#002E47" stroke="#002E47" stroke-miterlimit="10" stroke-linecap="round" stroke-linejoin="round"/>
<path d="M69.1017 179.707L70.805 188.226L67.3984 188.934" stroke="#002E47" stroke-miterlimit="10" stroke-linecap="round" stroke-linejoin="round"/>
<path d="M65.4141 191.059C65.4141 191.059 69.8072 193.184 72.7856 189.643" stroke="#002E47" stroke-miterlimit="10" stroke-linecap="round" stroke-linejoin="round"/>
<path d="M62.8267 181.301C63.0594 182.13 62.8546 182.913 62.3613 183.053C61.868 183.193 61.2817 182.634 61.049 181.804C60.8163 180.974 61.021 180.192 61.5143 180.052C62.0076 179.912 62.594 180.471 62.8267 181.301Z" fill="#002E47"/>
<path d="M73.6315 181.643C74.1214 181.505 74.3292 180.719 74.0956 179.886C73.862 179.054 73.2754 178.49 72.7855 178.628C72.2956 178.766 72.0878 179.553 72.3214 180.385C72.555 181.218 73.1415 181.781 73.6315 181.643Z" fill="#002E47"/>
<path d="M58.3242 179.278C58.3242 179.278 60.5953 177.293 63.9925 177.861" stroke="#002E47" stroke-miterlimit="10" stroke-linecap="round" stroke-linejoin="round"/>
<path d="M70.375 177.433C70.375 177.433 74.2004 175.867 75.9037 177.004" stroke="#002E47" stroke-miterlimit="10" stroke-linecap="round" stroke-linejoin="round"/>
<path d="M55.3253 184.619C55.3253 184.619 53.0822 182.969 52.7937 185.383C52.5145 187.797 53.5011 188.934 54.7762 189.354C56.0513 189.782 57.3265 190.351 57.3265 190.351L55.3253 184.619Z" stroke="#002E47" stroke-miterlimit="10" stroke-linecap="round" stroke-linejoin="round"/>
<path d="M79.0234 181.263C79.0234 181.263 81.0059 178.849 81.2945 181.692C81.5737 184.535 79.1724 187.368 79.1724 187.368L79.0234 181.263Z" stroke="#002E47" stroke-miterlimit="10" stroke-linecap="round" stroke-linejoin="round"/>
<path d="M32.6732 237.048C32.6732 237.048 31.3981 229.805 30.5511 227.252C29.7041 224.698 26.4372 223.421 25.162 222.284C23.8869 221.146 23.4587 218.164 22.044 218.593C20.6293 219.021 21.0481 220.867 21.6159 222.144C22.1836 223.421 23.4587 225.126 23.4587 225.126C23.4587 225.126 20.3407 223.421 18.3582 222.573C16.3757 221.724 15.1006 220.727 14.3932 220.158C13.6858 219.59 14.114 223.141 14.6724 225.266C15.2402 227.391 16.6549 231.082 19.6333 232.648C22.6118 234.214 24.8735 235.342 24.8735 235.342L26.856 239.462L32.6732 237.048Z" fill="white" stroke="#002E47" stroke-miterlimit="10" stroke-linecap="round" stroke-linejoin="round"/>
<path d="M27.1453 232.508C27.1453 232.508 26.0098 228.957 24.1669 228.109C22.324 227.261 21.7562 228.109 20.6207 226.543C19.4852 224.977 18.4986 221.435 17.3631 219.87C16.2276 218.304 15.6598 220.298 16.0879 222.144C16.5161 223.989 18.0704 229.097 18.359 230.234C18.6382 231.371 20.9092 232.359 21.9052 233.077" fill="white"/>
<path d="M27.1453 232.508C27.1453 232.508 26.0098 228.957 24.1669 228.109C22.324 227.261 21.7562 228.109 20.6207 226.543C19.4852 224.977 18.4986 221.435 17.3631 219.87C16.2276 218.304 15.6598 220.298 16.0879 222.144C16.5161 223.989 18.0704 229.097 18.359 230.234C18.6382 231.371 20.9092 232.359 21.9052 233.077" stroke="#002E47" stroke-miterlimit="10" stroke-linecap="round" stroke-linejoin="round"/>
<path d="M60.0278 200.855C60.0278 200.855 61.4426 202.841 62.5781 205.823C63.7136 208.806 63.8532 210.083 63.9929 211.22C64.1325 212.357 64.2721 211.928 64.1325 213.774C63.9928 215.619 63.7043 216.756 63.8532 218.173C63.9929 219.59 68.1068 286.018 68.1068 287.444C68.1068 288.861 68.5349 292.272 67.9672 292.552C67.3994 292.832 69.5308 293.689 60.1675 291.984C50.8134 290.278 44.9962 287.444 44.9962 287.444V265.587C44.9962 265.587 42.5855 267.433 38.0527 266.016C31.3234 263.91 30.1134 257.786 27.5631 250.404C25.0129 243.022 23.4492 239.471 23.4492 239.471L32.6637 234.783L36.2099 240.888C36.2099 240.888 40.0352 225.555 40.0352 223.43C40.0352 221.305 39.4675 218.183 39.756 217.465C40.0352 216.756 57.4776 206.252 57.4776 206.252C57.4776 206.252 58.7527 200.576 60.0278 200.855Z" fill="#39B4EF" stroke="#002E47" stroke-miterlimit="10" stroke-linecap="round" stroke-linejoin="round"/>
<path d="M46.2135 233.394C45.925 230.309 45.7109 228.249 45.7109 228.249" stroke="#002E47" stroke-miterlimit="10" stroke-linecap="round" stroke-linejoin="round"/>
<path d="M45.0039 265.578C45.0039 265.578 47.8427 266.007 47.9823 258.905C48.0754 254.431 47.1446 243.423 46.4559 235.892" stroke="#002E47" stroke-miterlimit="10" stroke-linecap="round" stroke-linejoin="round"/>
<path d="M43.75 248.67L45.1461 250.106" stroke="#002E47" stroke-miterlimit="10" stroke-linecap="round" stroke-linejoin="round"/>
<path d="M36.2188 240.888L42.6316 247.515" stroke="#002E47" stroke-miterlimit="10" stroke-linecap="round" stroke-linejoin="round"/>
<path d="M40.1836 245.138L45.1445 247.412" stroke="#002E47" stroke-miterlimit="10" stroke-linecap="round" stroke-linejoin="round"/>
<path d="M48.832 275.803L49.2602 279.205L61.3041 272.96L60.8853 268.85L48.832 275.803Z" fill="#39B4EF" stroke="#002E47" stroke-miterlimit="10" stroke-linecap="round" stroke-linejoin="round"/>
<path d="M129.062 227.82L132.469 224.698C132.469 224.698 134.88 220.298 135.727 218.593C136.574 216.887 138.705 218.313 140.259 217.456C141.823 216.607 144.224 214.473 144.653 215.47C145.081 216.468 144.513 217.316 143.945 217.744C143.377 218.173 141.535 219.021 141.535 219.021C141.535 219.021 145.36 218.024 146.216 217.605C147.063 217.176 151.456 214.342 151.456 216.188C151.456 218.033 148.618 221.724 146.775 223.57C144.932 225.415 142.093 227.969 138.975 228.967C135.857 229.964 135.15 230.243 135.15 230.243L132.171 233.506L129.062 227.82Z" fill="white" stroke="#002E47" stroke-miterlimit="10" stroke-linecap="round" stroke-linejoin="round"/>
<path d="M134.441 228.249C134.441 228.249 136.005 223.849 137.559 223.281C139.123 222.712 143.516 222.573 143.516 222.573C143.516 222.573 146.206 218.173 147.909 216.756C149.613 215.34 149.613 217.325 148.905 218.882C148.198 220.447 146.355 223.141 145.359 224.278C144.363 225.415 143.377 226.264 143.377 226.264" fill="white"/>
<path d="M134.441 228.249C134.441 228.249 136.005 223.849 137.559 223.281C139.123 222.712 143.516 222.573 143.516 222.573C143.516 222.573 146.206 218.173 147.909 216.756C149.613 215.34 149.613 217.325 148.905 218.882C148.198 220.447 146.355 223.141 145.359 224.278C144.363 225.415 143.377 226.264 143.377 226.264" stroke="#002E47" stroke-miterlimit="10" stroke-linecap="round" stroke-linejoin="round"/>
<path d="M141.536 219.021C141.536 219.021 139.125 219.161 138.418 219.87" stroke="#002E47" stroke-miterlimit="10" stroke-linecap="round" stroke-linejoin="round"/>
<path d="M78.176 201.135C78.176 201.135 82.0014 231.791 82.0014 237.476C82.0014 243.153 84.4121 291.695 84.4121 291.695C84.4121 291.695 89.8011 292.692 96.456 289.989C103.12 287.295 104.107 285.161 104.256 284.024C104.395 282.887 101.417 254.645 101.417 254.645C101.417 254.645 103.828 256.062 108.789 254.365C113.749 252.66 134.44 237.048 134.44 237.048L129.051 227.82L111.05 235.482C111.05 235.482 105.95 221.995 103.679 217.595C101.408 213.196 101.975 211.49 100.561 210.074C99.1459 208.657 83.6954 205.385 83.6954 205.385C83.6954 205.385 81.0055 199.989 80.1492 198.851C79.3022 197.733 78.0271 198.013 78.176 201.135Z" fill="#39B4EF" stroke="#002E47" stroke-miterlimit="10" stroke-linecap="round" stroke-linejoin="round"/>
<path d="M98.8127 231.502L98.3008 226.972" stroke="#002E47" stroke-miterlimit="10" stroke-linecap="round" stroke-linejoin="round"/>
<path d="M101.416 254.654L99.1914 234.932" stroke="#002E47" stroke-miterlimit="10" stroke-linecap="round" stroke-linejoin="round"/>
<path d="M108.017 239.629C107.533 240.478 107.17 241.316 107.086 242.015" stroke="#002E47" stroke-miterlimit="10" stroke-linecap="round" stroke-linejoin="round"/>
<path d="M111.058 235.491C111.058 235.491 109.895 236.787 108.824 238.352" stroke="#002E47" stroke-miterlimit="10" stroke-linecap="round" stroke-linejoin="round"/>
<path d="M89.6503 266.436L89.3711 269.269L99.8607 273.668L100.14 270.835L89.6503 266.436Z" fill="#39B4EF" stroke="#002E47" stroke-miterlimit="10" stroke-linecap="round" stroke-linejoin="round"/>
<path d="M169.335 63.1519H127.637C121.792 63.1519 117.055 58.4077 117.055 52.5543C117.055 46.7009 121.792 41.9567 127.637 41.9567H169.335C175.18 41.9567 179.918 46.7009 179.918 52.5543C179.918 58.4077 175.18 63.1519 169.335 63.1519Z" fill="white" stroke="#002E47" stroke-miterlimit="10" stroke-linecap="round" stroke-linejoin="round"/>
<path d="M190.733 143.962L148.551 125.088V63.6273" stroke="#002E47" stroke-miterlimit="10" stroke-linecap="round" stroke-linejoin="round"/>
<path d="M127.191 52.545H169.271" stroke="#002E47" stroke-miterlimit="10" stroke-linecap="round" stroke-linejoin="round"/>
<path d="M364.169 212.311H405.866C411.711 212.311 416.449 207.566 416.449 201.713C416.449 195.86 411.711 191.115 405.866 191.115H364.169C358.323 191.115 353.586 195.86 353.586 201.713C353.586 207.566 358.323 212.311 364.169 212.311Z" fill="white" stroke="#002E47" stroke-miterlimit="10" stroke-linecap="round" stroke-linejoin="round"/>
<path d="M319.734 280.323L384.943 260.107V212.786" stroke="#002E47" stroke-miterlimit="10" stroke-linecap="round" stroke-linejoin="round"/>
<path d="M363.32 201.499H406.973" stroke="#002E47" stroke-miterlimit="10" stroke-linecap="round" stroke-linejoin="round"/>
<path d="M364.169 104.219H405.866C411.711 104.219 416.449 99.4745 416.449 93.6212C416.449 87.7678 411.711 83.0236 405.866 83.0236H364.169C358.323 83.0236 353.586 87.7678 353.586 93.6212C353.586 99.4745 358.323 104.219 364.169 104.219Z" fill="white" stroke="#002E47" stroke-miterlimit="10" stroke-linecap="round" stroke-linejoin="round"/>
<path d="M319.734 186.362L384.943 166.145V104.685" stroke="#002E47" stroke-miterlimit="10" stroke-linecap="round" stroke-linejoin="round"/>
<path d="M363.32 93.4068H406.973" stroke="#002E47" stroke-miterlimit="10" stroke-linecap="round" stroke-linejoin="round"/>
<path d="M122.947 104.936H38.1551C32.1145 104.936 27.2188 109.839 27.2188 115.888V132.013C27.2188 138.062 32.1145 142.965 38.1551 142.965H83.6503L79.704 159.742L92.902 142.965H122.937C128.978 142.965 133.874 138.062 133.874 132.013V115.888C133.883 109.839 128.987 104.936 122.947 104.936Z" fill="#002E47"/>
<path d="M39.0117 129.609V117.973H46.7163V120.001H41.4719V122.774H46.2049V124.802H41.4719V129.609H39.0117Z" fill="white"/>
<path d="M48.3711 129.609V117.973H56.212V120.001H50.8313V122.774H55.8086V124.802H50.8313V127.58H56.2347V129.609H48.3711Z" fill="white"/>
<path d="M60.1737 129.609H57.5373L61.5543 117.973H64.7248L68.7362 129.609H66.0998L63.185 120.632H63.0941L60.1737 129.609ZM60.0089 125.035H66.2362V126.955H60.0089V125.035Z" fill="white"/>
<path d="M68.2717 120.001V117.973H77.8285V120.001H74.266V129.609H71.8342V120.001H68.2717Z" fill="white"/>
<path d="M86.5898 117.973H89.0501V125.529C89.0501 126.378 88.8474 127.12 88.4421 127.757C88.0406 128.393 87.4781 128.889 86.7546 129.245C86.0311 129.598 85.1883 129.774 84.2262 129.774C83.2603 129.774 82.4156 129.598 81.6921 129.245C80.9686 128.889 80.4061 128.393 80.0046 127.757C79.6031 127.12 79.4023 126.378 79.4023 125.529V117.973H81.8626V125.319C81.8626 125.762 81.9592 126.156 82.1523 126.501C82.3493 126.846 82.6258 127.116 82.9819 127.313C83.3379 127.51 83.7527 127.609 84.2262 127.609C84.7035 127.609 85.1183 127.51 85.4705 127.313C85.8266 127.116 86.1012 126.846 86.2944 126.501C86.4914 126.156 86.5898 125.762 86.5898 125.319V117.973Z" fill="white"/>
<path d="M91.0742 129.609V117.973H95.6651C96.5439 117.973 97.2939 118.13 97.9151 118.444C98.5401 118.755 99.0155 119.196 99.3413 119.768C99.6708 120.336 99.8356 121.005 99.8356 121.774C99.8356 122.546 99.6689 123.211 99.3356 123.768C99.0023 124.321 98.5193 124.745 97.8867 125.041C97.2579 125.336 96.4966 125.484 95.6026 125.484H92.5288V123.507H95.2049C95.6746 123.507 96.0648 123.442 96.3754 123.313C96.686 123.185 96.917 122.991 97.0685 122.734C97.2238 122.476 97.3015 122.156 97.3015 121.774C97.3015 121.387 97.2238 121.062 97.0685 120.796C96.917 120.531 96.6841 120.33 96.3697 120.194C96.0591 120.054 95.667 119.984 95.1935 119.984H93.5344V129.609H91.0742ZM97.3583 124.313L100.25 129.609H97.5344L94.7049 124.313H97.3583Z" fill="white"/>
<path d="M101.574 129.609V117.973H109.415V120.001H104.034V122.774H109.012V124.802H104.034V127.58H109.438V129.609H101.574Z" fill="white"/>
<path d="M115.496 129.609H111.371V117.973H115.53C116.701 117.973 117.708 118.205 118.553 118.671C119.398 119.134 120.047 119.798 120.502 120.666C120.96 121.533 121.189 122.571 121.189 123.779C121.189 124.991 120.96 126.033 120.502 126.904C120.047 127.776 119.394 128.444 118.542 128.91C117.693 129.376 116.678 129.609 115.496 129.609ZM113.831 127.501H115.394C116.121 127.501 116.733 127.372 117.229 127.115C117.729 126.853 118.104 126.45 118.354 125.904C118.608 125.355 118.735 124.647 118.735 123.779C118.735 122.92 118.608 122.217 118.354 121.671C118.104 121.126 117.731 120.724 117.235 120.467C116.739 120.209 116.127 120.08 115.4 120.08H113.831V127.501Z" fill="white"/>
</svg>
