<svg width="436" height="413" viewBox="0 0 436 413" fill="none" xmlns="http://www.w3.org/2000/svg">
<path d="M428.807 200.838C424.185 239.941 406.304 285.408 370.605 306.291C316.664 337.854 321.177 386.399 215.885 407.508C199.473 410.802 183.894 412.187 169.203 411.916C161.309 411.771 153.66 411.137 146.292 410.051C79.3724 400.275 34.3393 353.822 17.8178 297.737C-3.92384 223.983 39.487 175.701 68.2704 146.609C97.0448 117.516 118.125 26.8719 221.468 5.31062C237.228 2.03389 253.342 0.359309 269.447 0.757586C306.214 1.66276 346.317 13.7197 374.077 38.8836C376.161 40.7754 378.182 42.7397 380.158 44.7582C418.72 84.2963 435.115 147.523 428.807 200.838Z" fill="#39B4EF"/>
<path opacity="0.7" d="M428.807 200.838C424.185 239.941 406.304 285.408 370.605 306.291C316.664 337.854 321.177 386.399 215.885 407.508C199.473 410.802 183.894 412.187 169.203 411.916C161.309 411.771 153.66 411.137 146.292 410.051C79.3724 400.275 34.3393 353.822 17.8178 297.737C-3.92384 223.983 39.487 175.701 68.2704 146.609C97.0448 117.516 118.125 26.8719 221.468 5.31062C237.228 2.03389 253.342 0.359309 269.447 0.757586C306.214 1.66276 346.317 13.7197 374.077 38.8836C376.161 40.7754 378.182 42.7397 380.158 44.7582C418.72 84.2963 435.115 147.523 428.807 200.838Z" fill="white"/>
<path d="M308.645 406.503H434.79" stroke="#002E47" stroke-miterlimit="10" stroke-linecap="round" stroke-linejoin="round"/>
<path d="M18.1992 406.503H300.379" stroke="#002E47" stroke-miterlimit="10" stroke-linecap="round" stroke-linejoin="round"/>
<path d="M25.6036 219.693C25.6036 219.693 22.495 228.237 15.8883 229.396C9.28147 230.564 -2.38235 217.746 5.00383 211.148C12.39 204.558 22.495 215.04 25.6036 219.693Z" fill="#39B4EF" stroke="#002E47" stroke-miterlimit="10" stroke-linecap="round" stroke-linejoin="round"/>
<path d="M35.7105 177.765C35.7105 177.765 25.9952 201.444 29.8832 213.094C33.7711 224.743 57.8691 233.279 64.8656 218.145C71.8621 203.001 56.3103 181.648 50.4829 176.995C44.6555 172.334 37.659 173.882 35.7105 177.765Z" fill="#39B4EF" stroke="#002E47" stroke-miterlimit="10" stroke-linecap="round" stroke-linejoin="round"/>
<path d="M92.4613 187.858C92.4613 187.858 75.7495 203.001 73.801 218.136C71.8616 233.279 83.1267 238.71 94.7905 236.773C106.454 234.836 112.282 205.327 108.783 191.741C105.285 178.154 92.4613 187.858 92.4613 187.858Z" fill="#39B4EF" stroke="#002E47" stroke-miterlimit="10" stroke-linecap="round" stroke-linejoin="round"/>
<path d="M95.568 271.713C95.568 271.713 76.9077 272.491 76.1373 281.417C75.3579 290.342 84.3029 292.288 93.2388 284.521C102.175 276.764 103.344 272.102 95.568 271.713Z" fill="#39B4EF" stroke="#002E47" stroke-miterlimit="10" stroke-linecap="round" stroke-linejoin="round"/>
<path d="M76.4453 283.553C76.4453 283.553 91.1452 276.836 97.7701 275.669" stroke="#002E47" stroke-miterlimit="10"/>
<path d="M99.7304 330.142C99.7304 330.142 86.0275 317.47 79.1397 323.218C72.252 328.965 77.1731 336.659 88.991 337.519C100.809 338.379 104.932 335.926 99.7304 330.142Z" fill="#39B4EF" stroke="#002E47" stroke-miterlimit="10" stroke-linecap="round" stroke-linejoin="round"/>
<path d="M77.8438 324.937C77.8438 324.937 92.9786 330.613 98.4797 334.487" stroke="#002E47" stroke-miterlimit="10"/>
<path d="M27.4442 326.413C27.4442 326.413 46.3401 308.952 55.8289 316.872C65.3267 324.793 58.5387 335.41 42.2528 336.587C25.9579 337.773 20.2664 334.378 27.4442 326.413Z" fill="#39B4EF" stroke="#002E47" stroke-miterlimit="10" stroke-linecap="round" stroke-linejoin="round"/>
<path d="M57.6161 319.235C57.6161 319.235 36.7535 327.065 29.168 332.396" stroke="#002E47" stroke-miterlimit="10"/>
<path d="M49.3145 290.351C49.3145 290.351 47.3751 299.665 40.3786 303.159C33.3821 306.653 20.9479 299.276 27.5547 288.015C34.1615 276.764 45.8163 285.689 49.3145 290.351Z" fill="#39B4EF" stroke="#002E47" stroke-miterlimit="10" stroke-linecap="round" stroke-linejoin="round"/>
<path d="M32.9908 261.231C32.9908 261.231 29.4925 253.465 15.8893 258.516C2.28601 263.566 -3.16073 271.324 5.39455 274.048C13.9498 276.764 32.9908 261.231 32.9908 261.231Z" fill="#39B4EF" stroke="#002E47" stroke-miterlimit="10" stroke-linecap="round" stroke-linejoin="round"/>
<path d="M30.3914 260.878C30.3914 260.878 15.9815 262.435 8.1875 269.052" stroke="#002E47" stroke-miterlimit="10"/>
<path d="M71.8594 168.061C71.8594 168.061 74.1885 173.492 78.8559 172.334C83.5232 171.166 84.6832 164.178 92.0694 166.124C99.4556 168.061 105.673 176.606 105.673 172.723C105.673 168.84 96.3471 158.747 85.8523 158.747C75.3576 158.747 72.2491 163.01 71.8594 168.061Z" fill="#39B4EF" stroke="#002E47" stroke-miterlimit="10" stroke-linecap="round" stroke-linejoin="round"/>
<path d="M32.9922 261.231C32.9922 261.231 49.7312 258.018 56.7005 276.583C57.3802 278.402 57.9602 280.312 58.4496 282.267" stroke="#002E47" stroke-miterlimit="10"/>
<path d="M102.848 243.254C102.848 243.254 106.346 235.488 119.949 240.539C133.552 245.59 138.999 253.347 130.444 256.072C121.889 258.778 102.848 243.254 102.848 243.254Z" fill="#39B4EF" stroke="#002E47" stroke-miterlimit="10" stroke-linecap="round" stroke-linejoin="round"/>
<path d="M105.957 243.761C105.957 243.761 119.977 242.983 126.602 251.157" stroke="#002E47" stroke-miterlimit="10"/>
<path d="M102.848 243.254C102.848 243.254 97.3015 242.186 91.2656 244.829" stroke="#002E47" stroke-miterlimit="10"/>
<path d="M41.9159 229.324C33.7141 220.96 25.612 219.693 25.612 219.693C25.612 219.693 13.64 216.533 8.97266 220.806" stroke="#002E47" stroke-miterlimit="10"/>
<path d="M43.5766 186.319L42.8516 183.078" stroke="#002E47" stroke-miterlimit="10"/>
<path d="M62.5083 357.949C62.5083 357.949 64.2483 291.093 62.5083 270.79C60.7682 250.487 52.6389 226.699 52.6389 226.699L44.3555 189.758" stroke="#002E47" stroke-miterlimit="10"/>
<path d="M97.0547 200.675L98.5501 197.47" stroke="#002E47" stroke-miterlimit="10"/>
<path d="M66.5664 357.877C66.5664 357.877 67.1464 296.895 69.4665 279.488C71.7866 262.082 81.085 234.818 81.085 234.818L95.3499 204.305" stroke="#002E47" stroke-miterlimit="10"/>
<path d="M76.4479 283.553C76.4479 283.553 72.3787 318.511 70.0586 357.958" stroke="#002E47" stroke-miterlimit="10"/>
<path d="M56.6984 357.877C56.6984 357.877 57.8584 302.118 55.5384 294.578C53.2183 287.038 49.3213 290.36 49.3213 290.36C49.3213 290.36 38.5728 291.627 34.6758 297.845" stroke="#002E47" stroke-miterlimit="10"/>
<path d="M59.3633 286.612C62.3993 303.62 59.5989 357.931 59.5989 357.931" stroke="#002E47" stroke-miterlimit="10"/>
<path d="M87.9641 246.649C84.6018 248.948 81.3664 252.659 79.1369 258.606C72.1676 277.171 72.9652 357.958 72.9652 357.958" stroke="#002E47" stroke-miterlimit="10"/>
<path d="M43.9375 231.541C47.5717 235.796 51.088 241.553 53.7978 249.328C63.0872 276.013 66.5764 345.114 64.8363 357.877" stroke="#002E47" stroke-miterlimit="10"/>
<path d="M67.5361 256.506C66.9742 290.188 66.5664 357.868 66.5664 357.868" stroke="#002E47" stroke-miterlimit="10"/>
<path d="M67.6094 252.324C67.99 230.057 68.4432 208.26 68.8963 196.538C70.0563 166.369 71.8598 168.061 71.8598 168.061C71.8598 168.061 74.0077 161.291 86.0884 162.069" stroke="#002E47" stroke-miterlimit="10"/>
<path d="M52.7379 277.751C52.7379 277.751 43.0226 269.097 46.9105 264.843C50.7985 260.588 74.8964 257.466 81.8929 262.996C88.8894 268.527 73.3376 276.329 67.5103 278.04C61.6738 279.733 54.6773 279.172 52.7379 277.751Z" fill="#39B4EF" stroke="#002E47" stroke-miterlimit="10" stroke-linecap="round" stroke-linejoin="round"/>
<path d="M61.7097 270.663C61.5738 271.541 61.4922 272.41 61.4922 273.243" stroke="#002E47" stroke-miterlimit="10"/>
<path d="M65.0548 260.561C65.0548 260.561 63.6047 263.449 62.5625 266.988" stroke="#002E47" stroke-miterlimit="10"/>
<path d="M52.7379 334.342C52.7379 334.342 43.0226 325.689 46.9105 321.434C50.7985 317.18 74.8964 314.057 81.8929 319.588C88.8894 325.118 73.3376 332.921 67.5103 334.632C61.6738 336.324 54.6773 335.754 52.7379 334.342Z" fill="#39B4EF" stroke="#002E47" stroke-miterlimit="10" stroke-linecap="round" stroke-linejoin="round"/>
<path d="M65.0526 317.153C65.0526 317.153 61.5 324.259 61.5 329.843" stroke="#002E47" stroke-miterlimit="10"/>
<path d="M59.9695 310.409C59.9695 310.409 53.3718 304.535 56.0091 301.647C58.6463 298.76 75.0138 296.642 79.7627 300.398C84.5116 304.155 73.9534 309.45 70.002 310.608C66.0416 311.758 61.2927 311.369 59.9695 310.409Z" fill="#39B4EF" stroke="#002E47" stroke-miterlimit="10" stroke-linecap="round" stroke-linejoin="round"/>
<path d="M68.3326 298.733C68.3326 298.733 65.9219 303.557 65.9219 307.35" stroke="#002E47" stroke-miterlimit="10"/>
<path d="M77.144 348.246H50.8438V406.503H77.144V348.246Z" fill="white" stroke="#002E47" stroke-miterlimit="10" stroke-linecap="round" stroke-linejoin="round"/>
<path d="M326.34 321.163H243.796C241.612 321.163 239.836 319.389 239.836 317.207V245.689C239.836 243.508 241.612 241.734 243.796 241.734H326.34C328.525 241.734 330.301 243.508 330.301 245.689V317.207C330.301 319.398 328.525 321.163 326.34 321.163Z" fill="#002E47" stroke="#002E47" stroke-miterlimit="10" stroke-linecap="round" stroke-linejoin="round"/>
<path d="M323.469 316.863H240.925C238.741 316.863 236.965 315.089 236.965 312.908V241.39C236.965 239.208 238.741 237.434 240.925 237.434H323.469C325.653 237.434 327.43 239.208 327.43 241.39V312.908C327.43 315.098 325.653 316.863 323.469 316.863Z" fill="white" stroke="#002E47" stroke-miterlimit="10" stroke-linecap="round" stroke-linejoin="round"/>
<path d="M327.43 247.472V241.39C327.43 239.208 325.653 237.434 323.469 237.434H240.925C238.741 237.434 236.965 239.208 236.965 241.39V247.472H327.43Z" fill="#39B4EF" stroke="#002E47" stroke-miterlimit="10" stroke-linecap="round" stroke-linejoin="round"/>
<path d="M303.568 245.128C304.905 245.128 305.988 244.046 305.988 242.711C305.988 241.376 304.905 240.294 303.568 240.294C302.232 240.294 301.148 241.376 301.148 242.711C301.148 244.046 302.232 245.128 303.568 245.128Z" fill="white" stroke="#002E47" stroke-miterlimit="10" stroke-linecap="round" stroke-linejoin="round"/>
<path d="M313.664 242.711C313.664 241.372 312.576 240.294 311.244 240.294C309.903 240.294 308.824 241.381 308.824 242.711C308.824 244.042 309.912 245.128 311.244 245.128C312.576 245.128 313.664 244.051 313.664 242.711Z" fill="white" stroke="#002E47" stroke-miterlimit="10" stroke-linecap="round" stroke-linejoin="round"/>
<path d="M318.912 245.128C320.248 245.128 321.332 244.046 321.332 242.711C321.332 241.376 320.248 240.294 318.912 240.294C317.576 240.294 316.492 241.376 316.492 242.711C316.492 244.046 317.576 245.128 318.912 245.128Z" fill="white" stroke="#002E47" stroke-miterlimit="10" stroke-linecap="round" stroke-linejoin="round"/>
<path d="M316.22 252.922H249.255C248.113 252.922 247.18 253.845 247.18 254.994V272.817V280.376L252.01 272.817H316.211C317.353 272.817 318.286 271.894 318.286 270.744V254.994C318.295 253.854 317.371 252.922 316.22 252.922Z" stroke="#002E47" stroke-miterlimit="10"/>
<path d="M249.262 284.657H316.227C317.369 284.657 318.302 285.58 318.302 286.73V304.553V312.111L313.472 304.553H249.271C248.129 304.553 247.195 303.63 247.195 302.48V286.73C247.186 285.589 248.111 284.657 249.262 284.657Z" stroke="#002E47" stroke-miterlimit="10"/>
<path d="M259.413 268.789C262.757 268.789 265.467 266.082 265.467 262.743C265.467 259.403 262.757 256.696 259.413 256.696C256.07 256.696 253.359 259.403 253.359 262.743C253.359 266.082 256.07 268.789 259.413 268.789Z" fill="#39B4EF" stroke="#002E47" stroke-miterlimit="10" stroke-linecap="round" stroke-linejoin="round"/>
<path d="M259.414 263.503C260.805 263.503 261.933 262.376 261.933 260.987C261.933 259.597 260.805 258.47 259.414 258.47C258.023 258.47 256.895 259.597 256.895 260.987C256.895 262.376 258.023 263.503 259.414 263.503Z" fill="white" stroke="#002E47" stroke-miterlimit="10" stroke-linecap="round" stroke-linejoin="round"/>
<path d="M259.413 268.789C260.737 268.789 261.951 268.364 262.948 267.64C262.921 265.712 261.353 264.146 259.413 264.146C257.474 264.146 255.897 265.703 255.879 267.64C256.876 268.364 258.09 268.789 259.413 268.789Z" fill="white" stroke="#002E47" stroke-miterlimit="10" stroke-linecap="round" stroke-linejoin="round"/>
<path d="M269.754 257.71H290.326" stroke="#002E47" stroke-miterlimit="10"/>
<path d="M270.188 263.566H312.601" stroke="#002E47" stroke-miterlimit="10"/>
<path d="M270.188 267.269H312.601" stroke="#002E47" stroke-miterlimit="10"/>
<path d="M259.413 301.177C262.757 301.177 265.467 298.469 265.467 295.13C265.467 291.79 262.757 289.083 259.413 289.083C256.07 289.083 253.359 291.79 253.359 295.13C253.359 298.469 256.07 301.177 259.413 301.177Z" fill="#002E47" stroke="#002E47" stroke-miterlimit="10" stroke-linecap="round" stroke-linejoin="round"/>
<path d="M259.414 295.881C260.805 295.881 261.933 294.755 261.933 293.365C261.933 291.975 260.805 290.848 259.414 290.848C258.023 290.848 256.895 291.975 256.895 293.365C256.895 294.755 258.023 295.881 259.414 295.881Z" fill="white" stroke="#002E47" stroke-miterlimit="10" stroke-linecap="round" stroke-linejoin="round"/>
<path d="M259.413 301.177C260.737 301.177 261.951 300.751 262.948 300.027C262.921 298.099 261.353 296.533 259.413 296.533C257.474 296.533 255.897 298.09 255.879 300.027C256.876 300.742 258.09 301.177 259.413 301.177Z" fill="white" stroke="#002E47" stroke-miterlimit="10" stroke-linecap="round" stroke-linejoin="round"/>
<path d="M269.754 290.097H290.326" stroke="#002E47" stroke-miterlimit="10"/>
<path d="M270.188 295.945H312.601" stroke="#002E47" stroke-miterlimit="10"/>
<path d="M270.188 299.656H312.601" stroke="#002E47" stroke-miterlimit="10"/>
<path d="M221.404 262.616H108.572C106.841 262.616 105.445 261.213 105.445 259.493V197.498C105.445 196.466 106.279 195.633 107.312 195.633H222.664C223.697 195.633 224.531 196.466 224.531 197.498V259.493C224.531 261.222 223.126 262.616 221.404 262.616Z" fill="#002E47" stroke="#002E47" stroke-miterlimit="10" stroke-linecap="round" stroke-linejoin="round"/>
<path d="M224.531 206.558H105.445V197.498C105.445 196.466 106.279 195.633 107.312 195.633H222.664C223.697 195.633 224.531 196.466 224.531 197.498V206.558Z" fill="#002E47" stroke="#002E47" stroke-miterlimit="10" stroke-linecap="round" stroke-linejoin="round"/>
<path d="M200.15 203.68C201.487 203.68 202.57 202.598 202.57 201.263C202.57 199.928 201.487 198.846 200.15 198.846C198.814 198.846 197.73 199.928 197.73 201.263C197.73 202.598 198.814 203.68 200.15 203.68Z" fill="#002E47" stroke="#002E47" stroke-miterlimit="10" stroke-linecap="round" stroke-linejoin="round"/>
<path d="M207.818 203.68C209.155 203.68 210.238 202.598 210.238 201.263C210.238 199.928 209.155 198.846 207.818 198.846C206.482 198.846 205.398 199.928 205.398 201.263C205.398 202.598 206.482 203.68 207.818 203.68Z" fill="#002E47" stroke="#002E47" stroke-miterlimit="10" stroke-linecap="round" stroke-linejoin="round"/>
<path d="M215.494 203.68C216.83 203.68 217.914 202.598 217.914 201.263C217.914 199.928 216.83 198.846 215.494 198.846C214.158 198.846 213.074 199.928 213.074 201.263C213.074 202.598 214.158 203.68 215.494 203.68Z" fill="#002E47" stroke="#002E47" stroke-miterlimit="10" stroke-linecap="round" stroke-linejoin="round"/>
<path d="M142.666 217.004H118.215V240.34H142.666V217.004Z" fill="#002E47" stroke="#002E47" stroke-miterlimit="10"/>
<path d="M150.824 219.72H214.953" stroke="#002E47" stroke-miterlimit="10"/>
<path d="M150.824 227.314H214.953" stroke="#002E47" stroke-miterlimit="10"/>
<path d="M150.824 234.918H214.953" stroke="#002E47" stroke-miterlimit="10"/>
<path d="M150.824 242.512H214.953" stroke="#002E47" stroke-miterlimit="10"/>
<path d="M218.533 258.316H105.701C103.97 258.316 102.574 256.913 102.574 255.194V193.198C102.574 192.166 103.408 191.333 104.441 191.333H219.792C220.826 191.333 221.659 192.166 221.659 193.198V255.194C221.659 256.922 220.264 258.316 218.533 258.316Z" fill="white" stroke="#002E47" stroke-miterlimit="10" stroke-linecap="round" stroke-linejoin="round"/>
<path d="M221.659 202.259H102.574V193.198C102.574 192.166 103.408 191.333 104.441 191.333H219.792C220.826 191.333 221.659 192.166 221.659 193.198V202.259Z" fill="#39B4EF" stroke="#002E47" stroke-miterlimit="10" stroke-linecap="round" stroke-linejoin="round"/>
<path d="M197.279 199.38C198.616 199.38 199.699 198.298 199.699 196.964C199.699 195.629 198.616 194.547 197.279 194.547C195.943 194.547 194.859 195.629 194.859 196.964C194.859 198.298 195.943 199.38 197.279 199.38Z" fill="white" stroke="#002E47" stroke-miterlimit="10" stroke-linecap="round" stroke-linejoin="round"/>
<path d="M204.955 199.38C206.291 199.38 207.375 198.298 207.375 196.964C207.375 195.629 206.291 194.547 204.955 194.547C203.619 194.547 202.535 195.629 202.535 196.964C202.535 198.298 203.619 199.38 204.955 199.38Z" fill="white" stroke="#002E47" stroke-miterlimit="10" stroke-linecap="round" stroke-linejoin="round"/>
<path d="M212.623 199.38C213.959 199.38 215.043 198.298 215.043 196.964C215.043 195.629 213.959 194.547 212.623 194.547C211.286 194.547 210.203 195.629 210.203 196.964C210.203 198.298 211.286 199.38 212.623 199.38Z" fill="white" stroke="#002E47" stroke-miterlimit="10" stroke-linecap="round" stroke-linejoin="round"/>
<path d="M139.803 212.705H115.352V236.04H139.803V212.705Z" stroke="#002E47" stroke-miterlimit="10"/>
<path d="M147.961 215.411H212.08" stroke="#002E47" stroke-miterlimit="10"/>
<path d="M147.961 223.015H212.08" stroke="#002E47" stroke-miterlimit="10"/>
<path d="M147.961 230.609H212.08" stroke="#002E47" stroke-miterlimit="10"/>
<path d="M147.961 238.212H212.08" stroke="#002E47" stroke-miterlimit="10"/>
<path d="M326.34 225.902H243.796C241.612 225.902 239.836 224.128 239.836 221.946V150.428C239.836 148.247 241.612 146.473 243.796 146.473H326.34C328.525 146.473 330.301 148.247 330.301 150.428V221.946C330.301 224.128 328.525 225.902 326.34 225.902Z" fill="#002E47" stroke="#002E47" stroke-miterlimit="10" stroke-linecap="round" stroke-linejoin="round"/>
<path d="M323.469 221.602H240.925C238.741 221.602 236.965 219.828 236.965 217.647V146.129C236.965 143.947 238.741 142.173 240.925 142.173H323.469C325.653 142.173 327.43 143.947 327.43 146.129V217.647C327.43 219.828 325.653 221.602 323.469 221.602Z" fill="white" stroke="#002E47" stroke-miterlimit="10" stroke-linecap="round" stroke-linejoin="round"/>
<path d="M256.831 173.972H248.484V212.505H256.831V173.972Z" fill="#002E47" stroke="#002E47" stroke-miterlimit="10" stroke-linecap="round" stroke-linejoin="round"/>
<path d="M268.648 180.218H260.301V212.505H268.648V180.218Z" fill="#39B4EF" stroke="#002E47" stroke-miterlimit="10" stroke-linecap="round" stroke-linejoin="round"/>
<path d="M280.468 185.432H272.121V212.515H280.468V185.432Z" fill="white" stroke="#002E47" stroke-miterlimit="10" stroke-linecap="round" stroke-linejoin="round"/>
<path d="M292.284 169.455H283.938V212.505H292.284V169.455Z" fill="#002E47" stroke="#002E47" stroke-miterlimit="10" stroke-linecap="round" stroke-linejoin="round"/>
<path d="M304.105 174.669H295.758V212.515H304.105V174.669Z" fill="#39B4EF" stroke="#002E47" stroke-miterlimit="10" stroke-linecap="round" stroke-linejoin="round"/>
<path d="M315.921 156.611H307.574V212.505H315.921V156.611Z" fill="white" stroke="#002E47" stroke-miterlimit="10" stroke-linecap="round" stroke-linejoin="round"/>
<path d="M249.047 152.601H257.394" stroke="#002E47" stroke-miterlimit="10"/>
<path d="M249.047 156.068H257.394" stroke="#002E47" stroke-miterlimit="10"/>
<path d="M249.047 159.544H257.394" stroke="#002E47" stroke-miterlimit="10"/>
<path d="M260.168 152.601H293.891" stroke="#002E47" stroke-miterlimit="10"/>
<path d="M260.168 156.068H293.891" stroke="#002E47" stroke-miterlimit="10"/>
<path d="M260.168 159.544H293.891" stroke="#002E47" stroke-miterlimit="10"/>
<path d="M326.34 131.791H243.796C241.612 131.791 239.836 130.017 239.836 127.835V56.3173C239.836 54.1358 241.612 52.3617 243.796 52.3617H326.34C328.525 52.3617 330.301 54.1358 330.301 56.3173V127.835C330.301 130.017 328.525 131.791 326.34 131.791Z" fill="#002E47" stroke="#002E47" stroke-miterlimit="10" stroke-linecap="round" stroke-linejoin="round"/>
<path d="M323.469 127.491H240.925C238.741 127.491 236.965 125.717 236.965 123.536V52.0177C236.965 49.8362 238.741 48.0621 240.925 48.0621H323.469C325.653 48.0621 327.43 49.8362 327.43 52.0177V123.536C327.43 125.717 325.653 127.491 323.469 127.491Z" fill="white" stroke="#002E47" stroke-miterlimit="10" stroke-linecap="round" stroke-linejoin="round"/>
<path d="M279.989 111.479C294.004 111.479 305.365 100.131 305.365 86.1338C305.365 72.1362 294.004 60.7889 279.989 60.7889C265.974 60.7889 254.613 72.1362 254.613 86.1338C254.613 100.131 265.974 111.479 279.989 111.479Z" fill="white" stroke="#002E47" stroke-miterlimit="10" stroke-linecap="round" stroke-linejoin="round"/>
<path d="M304.612 80.0239C303.543 75.6971 301.313 71.5967 297.924 68.2113C288.018 58.3177 271.95 58.3177 262.035 68.2113L279.98 86.1338L304.612 80.0239Z" fill="#002E47" stroke="#002E47" stroke-miterlimit="10" stroke-linecap="round" stroke-linejoin="round"/>
<path d="M304.613 80.0239L279.98 86.1338L272.648 110.402C281.303 112.999 291.082 110.89 297.916 104.056C304.45 97.539 306.679 88.3605 304.613 80.0239Z" fill="#39B4EF" stroke="#002E47" stroke-miterlimit="10" stroke-linecap="round" stroke-linejoin="round"/>
<path d="M290.066 70.1665L298.404 59.404H303.624" stroke="#002E47" stroke-miterlimit="10"/>
<path d="M308.488 59.7479H316.826" stroke="#002E47" stroke-miterlimit="10"/>
<path d="M308.488 63.2238H316.826" stroke="#002E47" stroke-miterlimit="10"/>
<path d="M308.488 66.6906H316.826" stroke="#002E47" stroke-miterlimit="10"/>
<path d="M308.488 104.88H316.826" stroke="#002E47" stroke-miterlimit="10"/>
<path d="M308.488 108.356H316.826" stroke="#002E47" stroke-miterlimit="10"/>
<path d="M308.488 111.832H316.826" stroke="#002E47" stroke-miterlimit="10"/>
<path d="M243.836 104.192H252.174" stroke="#002E47" stroke-miterlimit="10"/>
<path d="M243.836 107.659H252.174" stroke="#002E47" stroke-miterlimit="10"/>
<path d="M243.836 111.135H252.174" stroke="#002E47" stroke-miterlimit="10"/>
<path d="M265.731 103.151L262.605 111.135H254.258" stroke="#002E47" stroke-miterlimit="10"/>
<path d="M299.445 93.4295H313.357V97.9373" stroke="#002E47" stroke-miterlimit="10"/>
<path d="M217.805 132.09H135.261C133.077 132.09 131.301 130.315 131.301 128.134V56.607C131.301 54.4255 133.077 52.6513 135.261 52.6513H217.805C219.989 52.6513 221.766 54.4255 221.766 56.607V128.125C221.766 130.315 219.989 132.09 217.805 132.09Z" fill="#002E47" stroke="#002E47" stroke-miterlimit="10" stroke-linecap="round" stroke-linejoin="round"/>
<path d="M213.973 127.491H131.429C129.245 127.491 127.469 125.717 127.469 123.536V52.0177C127.469 49.8362 129.245 48.0621 131.429 48.0621H213.973C216.157 48.0621 217.934 49.8362 217.934 52.0177V123.536C217.934 125.717 216.157 127.491 213.973 127.491Z" fill="white" stroke="#002E47" stroke-miterlimit="10" stroke-linecap="round" stroke-linejoin="round"/>
<path d="M136.859 112.456V115.516" stroke="#002E47" stroke-miterlimit="10"/>
<path d="M144.227 112.456V115.516" stroke="#002E47" stroke-miterlimit="10"/>
<path d="M151.594 112.456V115.516" stroke="#002E47" stroke-miterlimit="10"/>
<path d="M158.965 112.456V115.516" stroke="#002E47" stroke-miterlimit="10"/>
<path d="M166.332 112.456V115.516" stroke="#002E47" stroke-miterlimit="10"/>
<path d="M173.699 112.456V115.516" stroke="#002E47" stroke-miterlimit="10"/>
<path d="M181.066 112.456V115.516" stroke="#002E47" stroke-miterlimit="10"/>
<path d="M188.438 112.456V115.516" stroke="#002E47" stroke-miterlimit="10"/>
<path d="M195.805 112.456V115.516" stroke="#002E47" stroke-miterlimit="10"/>
<path d="M203.172 112.456V115.516" stroke="#002E47" stroke-miterlimit="10"/>
<path d="M210.539 112.456V115.516" stroke="#002E47" stroke-miterlimit="10"/>
<path d="M207.469 69.5238L199.485 73.8144L193.041 60.9427L184.749 71.6691L177.381 65.2333L170.321 57.2587L162.953 65.8488L155.585 86.695L147.6 79.0282L139.625 84.8575V104.174H207.469V69.5238Z" fill="#39B4EF" stroke="#002E47" stroke-miterlimit="10" stroke-linecap="round" stroke-linejoin="round"/>
<path d="M139.805 57.0867H148.152" stroke="#002E47" stroke-miterlimit="10"/>
<path d="M139.805 60.5626H148.152" stroke="#002E47" stroke-miterlimit="10"/>
<path d="M139.805 64.0294H148.152" stroke="#002E47" stroke-miterlimit="10"/>
<path d="M207.469 86.5049L199.485 89.4558L193.041 75.1359L184.749 85.1653L177.381 82.7122L170.321 98.0369L162.953 77.4984L155.585 98.0369L147.6 90.3791L139.625 100.49V107.849H207.469V86.5049Z" fill="#002E47" stroke="#002E47" stroke-miterlimit="10" stroke-linecap="round" stroke-linejoin="round"/>
<path d="M370.006 91.9903C370.006 91.9903 366.998 84.0428 358.397 84.9028C349.796 85.7627 345.926 92.633 347.431 97.1408C348.935 101.649 349.796 103.151 349.796 103.151C349.796 103.151 347.005 101.866 347.866 106.374C348.727 110.881 355.18 110.021 356.249 109.596C357.328 109.171 362.058 97.1407 370.006 91.9903Z" fill="#002E47" stroke="#002E47" stroke-miterlimit="10" stroke-linecap="round" stroke-linejoin="round"/>
<path d="M315.25 169.048L299.988 176.67C298.774 177.276 298.728 178.996 299.916 179.657L340.635 202.53C341.342 202.929 342.23 202.775 342.756 202.159L352.317 191.044C353.015 190.229 352.788 188.98 351.855 188.455L316.836 169.066C316.347 168.804 315.748 168.794 315.25 169.048Z" fill="#002E47" stroke="#002E47" stroke-miterlimit="10" stroke-linecap="round" stroke-linejoin="round"/>
<path d="M352.47 182.779L346.044 178.616C346.044 178.616 341.241 173.23 339.428 172.316C337.616 171.401 325.508 173.583 325.508 173.583L352.134 188.627L352.47 182.779Z" fill="white" stroke="#002E47" stroke-miterlimit="10" stroke-linecap="round" stroke-linejoin="round"/>
<path d="M339.345 176.208C339.345 176.208 334.615 176.425 331.696 175.176C328.778 173.936 327.101 174.515 328.624 176.968C330.147 179.421 334.868 179.204 334.868 179.204C334.868 179.204 338.992 184.219 343.995 182.254" fill="white"/>
<path d="M339.345 176.208C339.345 176.208 334.615 176.425 331.696 175.176C328.778 173.936 327.101 174.515 328.624 176.968C330.147 179.421 334.868 179.204 334.868 179.204C334.868 179.204 338.992 184.219 343.995 182.254" stroke="#002E47" stroke-miterlimit="10" stroke-linecap="round" stroke-linejoin="round"/>
<path d="M404.448 392.409C404.448 392.409 407.149 402.737 406.922 404.53C406.695 406.322 401.076 407.897 397.932 407.897C394.787 407.897 388.488 409.019 388.488 409.019L388.715 392.409H404.448Z" fill="white" stroke="#002E47" stroke-miterlimit="10" stroke-linecap="round" stroke-linejoin="round"/>
<path d="M406.922 404.53C406.976 404.077 406.849 403.081 406.623 401.85C404.765 402.837 402.218 404.041 399.726 404.756C395.902 405.851 390.464 405.905 388.534 405.887L388.488 409.019C388.488 409.019 394.778 407.897 397.932 407.897C401.076 407.897 406.695 406.331 406.922 404.53Z" fill="white" stroke="#002E47" stroke-miterlimit="10" stroke-linecap="round" stroke-linejoin="round"/>
<path d="M385.342 293.175C385.342 293.175 388.26 317.642 389.384 322.358C390.508 327.074 396.127 335.157 398.374 347.73C400.622 360.303 404.891 389.486 404.891 390.164C404.891 390.834 405.344 392.862 405.561 394.201C405.561 394.201 400.613 396.22 397.024 395.776C393.426 395.324 390.281 394.428 390.281 394.428C390.281 394.428 391.858 384.779 388.487 367.49C385.116 350.201 381.744 332.242 379.723 319.669C377.702 307.096 385.342 293.175 385.342 293.175Z" fill="#B3C7EB" stroke="#002E47" stroke-miterlimit="10" stroke-linecap="round" stroke-linejoin="round"/>
<path d="M373.875 389.712C373.875 389.712 372.525 391.957 368.71 395.324C364.885 398.691 357.698 402.285 355.668 403.181C353.647 404.077 352.07 404.077 352.524 406.095C352.977 408.114 356.348 409.689 366.462 409.689C376.576 409.689 387.37 409.236 388.494 409.019C389.618 408.793 392.989 408.793 392.989 406.322C392.989 403.851 391.865 393.975 391.865 393.975L373.875 389.712Z" fill="white" stroke="#002E47" stroke-miterlimit="10" stroke-linecap="round" stroke-linejoin="round"/>
<path d="M388.485 409.019C389.609 408.793 392.98 408.793 392.98 406.322C392.98 405.96 392.953 405.435 392.917 404.801C389.074 405.299 380.347 406.385 370.505 407.218C361.84 407.951 355.696 406.485 352.451 405.371C352.442 405.58 352.461 405.815 352.515 406.095C352.968 408.114 356.339 409.689 366.453 409.689C376.577 409.698 387.361 409.245 388.485 409.019Z" fill="white" stroke="#002E47" stroke-miterlimit="10" stroke-linecap="round" stroke-linejoin="round"/>
<path d="M350.052 241.544C350.052 241.544 349.826 259.276 352.3 279.262C354.774 299.239 361.961 323.489 361.961 323.489C361.961 323.489 365.559 343.023 366.683 349.757C367.806 356.492 373.652 382.986 373.652 382.986L371.178 386.354L371.631 392.192C371.631 392.192 373.652 392.645 380.621 394.211C387.59 395.786 391.859 395.559 391.859 395.559C391.859 395.559 392.312 383.882 392.086 382.316C391.859 380.741 390.509 373.337 390.291 370.866C390.065 368.395 390.744 341.004 389.167 334.722C387.59 328.44 384.899 319.235 384.899 311.152C384.899 303.068 390.971 263.557 390.971 263.557C390.971 263.557 397.487 254.352 397.487 248.966C397.487 243.58 396.816 240.883 396.816 240.883L350.052 241.544Z" fill="#B3C7EB" stroke="#002E47" stroke-miterlimit="10" stroke-linecap="round" stroke-linejoin="round"/>
<path d="M381.914 375.374C382.413 380.334 382.639 383.638 382.639 383.638C382.639 383.638 381.198 384.362 381.914 386.888C382.639 389.413 383.002 391.214 383.002 391.214" stroke="#002E47" stroke-width="0.75" stroke-miterlimit="10" stroke-linecap="round" stroke-linejoin="round"/>
<path d="M367.398 267.079C366.836 276.04 366.727 288.251 368.558 301.014C372.174 326.268 378.309 348.997 380.113 360.9C380.657 364.485 381.101 367.969 381.463 371.092" stroke="#002E47" stroke-width="0.75" stroke-miterlimit="10" stroke-linecap="round" stroke-linejoin="round"/>
<path d="M368.911 252.677C368.911 252.677 368.231 256.651 367.688 263.096" stroke="#002E47" stroke-width="0.75" stroke-miterlimit="10" stroke-linecap="round" stroke-linejoin="round"/>
<path d="M393.445 99.2951C393.445 99.2951 396.237 88.1342 413.012 89.4196C429.778 90.7049 429.57 105.948 429.57 105.948L425.917 104.228C425.917 104.228 428.926 113.036 425.491 119.471C422.048 125.916 413.238 129.564 407.429 128.487C401.62 127.41 395.394 122.042 394.533 119.037C393.663 116.041 396.88 105.523 393.445 99.2951Z" fill="#002E47" stroke="#002E47" stroke-miterlimit="10" stroke-linecap="round" stroke-linejoin="round"/>
<path d="M360.122 98.0007C360.122 98.0007 358.835 100.146 356.252 104.654C353.669 109.161 354.748 113.244 353.026 115.389C351.304 117.534 346.573 117.317 347.225 119.471C347.869 121.617 350.669 123.119 350.669 123.119C350.669 123.119 350.669 135.14 351.956 136.643C353.243 138.145 363.131 135.565 363.131 135.565C363.131 135.565 365.061 138.571 363.774 145.224C362.487 151.877 350.878 170.342 349.373 179.575C347.869 188.808 353.026 211.781 353.026 211.781L348.077 245.273C348.077 245.273 360.548 249.998 375.384 248.712C390.219 247.427 399.246 244.422 399.246 244.422L389.358 205.563C389.358 205.563 390.219 178.082 388.28 162.838C386.35 147.595 381.401 143.947 381.401 138.362C381.401 132.778 388.497 129.772 393.011 124.405C395.068 121.961 400.533 112.592 395.159 100.997C391.633 93.4024 380.323 90.4786 372.583 90.2614C364.853 90.0623 360.122 98.0007 360.122 98.0007Z" fill="white" stroke="#002E47" stroke-miterlimit="10" stroke-linecap="round" stroke-linejoin="round"/>
<path d="M363.129 135.575L367.842 134.515L364.905 140.381C364.905 140.39 364.298 137.367 363.129 135.575Z" fill="#002E47" stroke="#002E47" stroke-miterlimit="10" stroke-linecap="round" stroke-linejoin="round"/>
<path d="M399.247 244.44L389.359 205.581C389.359 205.581 390.22 178.1 388.281 162.857C387.764 158.801 387.039 155.57 386.251 152.909C383.088 150.447 378.203 147.351 373.236 146.971C367.463 146.527 361.69 153.207 358.654 157.407C354.875 165.083 350.28 174.026 349.374 179.602C347.87 188.835 353.026 211.808 353.026 211.808L348.078 245.3C348.078 245.3 360.549 250.025 375.384 248.74C390.22 247.445 399.247 244.44 399.247 244.44Z" fill="#39B4EF" stroke="#002E47" stroke-miterlimit="10" stroke-linecap="round" stroke-linejoin="round"/>
<path d="M372.592 90.2705C364.852 90.0532 360.121 98.0007 360.121 98.0007C360.121 98.0007 359.451 99.1231 358.109 101.44C359.451 99.8472 364.326 94.6244 366.357 100.155C367.544 103.377 364.635 107.885 366.139 109.388C367.643 110.89 370.652 114.33 370.226 114.973C369.8 115.615 369.583 117.118 369.583 117.118C369.583 117.118 373.453 111.533 376.462 114.973C379.47 118.412 375.383 124.848 375.383 124.848L372.8 125.708C372.8 125.708 381.183 135.158 382.688 135.158C383.105 135.158 384.192 131.936 386.132 131.293C388.361 129.184 390.228 127.736 393.01 124.423C395.067 121.979 400.532 112.61 395.158 101.015C391.642 93.4114 380.331 90.4877 372.592 90.2705Z" fill="#002E47" stroke="#002E47" stroke-miterlimit="10" stroke-linecap="round" stroke-linejoin="round"/>
<path d="M357.955 114.819C357.719 115.923 357.148 116.729 356.686 116.638C356.224 116.539 356.034 115.57 356.269 114.466C356.505 113.362 357.076 112.556 357.538 112.646C358 112.746 358.191 113.724 357.955 114.819Z" fill="#002E47"/>
<path d="M356.254 109.596C356.254 109.596 358.619 107.016 360.124 110.239" stroke="#002E47" stroke-miterlimit="10" stroke-linecap="round" stroke-linejoin="round"/>
<path d="M352.383 125.699C352.383 125.699 352.809 126.559 355.174 125.699" stroke="#002E47" stroke-miterlimit="10" stroke-linecap="round" stroke-linejoin="round"/>
<path d="M366.572 158.557C366.572 158.557 363.346 163.065 362.059 171.438C360.772 179.81 361.841 207.083 361.841 207.083C361.841 207.083 343.571 201.933 337.553 198.928C331.535 195.923 329.596 194.637 329.596 194.637C329.596 194.637 327.665 190.129 326.152 188.41C324.647 186.69 320.56 186.264 319.056 185.187C317.551 184.11 316.473 180.679 314.542 181.965C312.612 183.25 313.464 184.97 314.325 185.613C315.186 186.255 318.412 189.478 318.412 189.478L310.247 185.83C310.247 185.83 309.603 189.052 310.673 190.12C311.751 191.198 313.899 193.126 313.899 193.126C313.899 193.126 317.125 197.633 319.056 198.711C320.986 199.788 324.43 200.639 325.073 200.856C327.004 201.499 328.934 203.137 330.656 204.178C334.308 206.396 337.961 208.622 341.622 210.831C347.159 214.171 353.322 217.077 359.539 219.258C363.454 220.634 373.034 224.834 376.432 220.625C377.9 218.805 377.447 213.411 377.828 211.121C380.23 196.719 383.329 182.227 383.329 167.572" fill="#39B4EF"/>
<path d="M366.572 158.557C366.572 158.557 363.346 163.065 362.059 171.438C360.772 179.81 361.841 207.083 361.841 207.083C361.841 207.083 343.571 201.933 337.553 198.928C331.535 195.923 329.596 194.637 329.596 194.637C329.596 194.637 327.665 190.129 326.152 188.41C324.647 186.69 320.56 186.264 319.056 185.187C317.551 184.11 316.473 180.679 314.542 181.965C312.612 183.25 313.464 184.97 314.325 185.613C315.186 186.255 318.412 189.478 318.412 189.478L310.247 185.83C310.247 185.83 309.603 189.052 310.673 190.12C311.751 191.198 313.899 193.126 313.899 193.126C313.899 193.126 317.125 197.633 319.056 198.711C320.986 199.788 324.43 200.639 325.073 200.856C327.004 201.498 328.934 203.137 330.656 204.178C334.308 206.396 337.961 208.622 341.622 210.831C347.159 214.171 353.322 217.077 359.539 219.258C363.454 220.634 373.034 224.834 376.432 220.625C377.9 218.805 377.447 213.411 377.828 211.121C380.23 196.719 383.329 182.227 383.329 167.572" stroke="#002E47" stroke-miterlimit="10" stroke-linecap="round" stroke-linejoin="round"/>
<path d="M355.325 205.164C349.461 203.39 341.223 200.756 337.553 198.919C331.535 195.914 329.596 194.628 329.596 194.628C329.596 194.628 327.665 190.12 326.152 188.401C324.647 186.681 320.56 186.255 319.056 185.178C317.551 184.101 316.473 180.67 314.542 181.956C312.612 183.241 313.464 184.961 314.325 185.604C315.186 186.246 318.412 189.469 318.412 189.469L310.247 185.821C310.247 185.821 309.603 189.043 310.673 190.111C311.751 191.189 313.899 193.117 313.899 193.117C313.899 193.117 317.125 197.624 319.056 198.701C320.986 199.779 324.43 200.63 325.073 200.847C327.004 201.489 328.934 203.128 330.656 204.169C334.308 206.386 337.961 208.613 341.622 210.822C345.075 212.904 348.773 214.823 352.579 216.497L355.325 205.164Z" fill="white" stroke="#002E47" stroke-miterlimit="10" stroke-linecap="round" stroke-linejoin="round"/>
<path d="M368.075 213.302L361.84 207.074L363.562 212.877" stroke="#002E47" stroke-miterlimit="10" stroke-linecap="round" stroke-linejoin="round"/>
<path d="M93.6741 300.597C93.6741 300.597 89.7861 323.878 84.711 345.367C79.6267 366.856 81.1221 396.7 81.1221 396.7C81.1221 396.7 78.4305 402.366 80.823 405.055C83.2156 407.743 87.0945 406.847 87.9917 406.847C88.8889 406.847 95.1604 406.548 95.1604 406.548C95.1604 406.548 99.9456 378.198 101.731 352.527C103.525 326.856 102.03 287.762 100.236 289.255C98.4411 290.749 94.5622 298.506 94.5622 298.506L93.6741 300.597Z" fill="#002E47" stroke="#002E47" stroke-miterlimit="10" stroke-linecap="round" stroke-linejoin="round"/>
<path d="M81.4216 225.087C81.4216 225.087 77.8327 245.979 78.7299 251.953C79.6272 257.918 82.0197 265.386 82.0197 265.386C82.0197 265.386 90.0856 301.204 90.9828 303.892C91.8801 306.58 90.9828 338.515 89.1884 352.545C87.394 366.576 90.3847 375.826 90.9828 380.298C91.581 384.779 91.2819 399.397 91.2819 399.397L90.6838 407.752C90.6838 407.752 94.8708 409.245 102.339 409.245C109.806 409.245 125.648 410.142 125.648 410.142C125.648 410.142 135.209 409.843 134.312 405.661C133.415 401.479 122.657 399.397 119.667 396.709C116.676 394.02 114.582 391.631 114.582 391.631C114.582 391.631 114.881 388.644 114.283 387.15C113.685 385.657 111.293 385.657 111.592 383.566C111.891 381.475 116.975 334.016 120.854 321.787C124.742 309.549 127.723 259.412 127.424 250.749C127.125 242.096 125.331 228.962 125.331 228.962L81.4216 225.087Z" fill="#002E47" stroke="#002E47" stroke-miterlimit="10" stroke-linecap="round" stroke-linejoin="round"/>
<path d="M84.5288 143.622C84.5288 143.622 75.7107 162.35 74.4238 175.194C73.1369 188.048 80.1243 219.982 80.1243 219.982C80.1243 219.982 77.3692 228.056 79.3902 229.342C81.4112 230.627 126.444 233.017 126.444 233.017C126.444 233.017 129.199 232.646 129.199 230.265C129.199 227.884 128.465 226.228 128.094 224.209C127.722 222.191 128.647 180.888 124.605 171.709C120.563 162.531 112.288 151.334 112.288 151.334L84.5288 143.622Z" fill="#E2EDFF" stroke="#002E47" stroke-miterlimit="10" stroke-linecap="round" stroke-linejoin="round"/>
<path d="M92.4844 219.475C97.478 212.904 104.991 202.793 110.311 194.592" stroke="#002E47" stroke-miterlimit="10" stroke-linecap="round" stroke-linejoin="round"/>
<path d="M87.1914 226.346C87.1914 226.346 88.1883 225.078 89.8106 222.969" stroke="#002E47" stroke-miterlimit="10" stroke-linecap="round" stroke-linejoin="round"/>
<path d="M109.589 190.627C109.589 190.627 92.2519 202.53 90.0859 203.255" stroke="#002E47" stroke-miterlimit="10" stroke-linecap="round" stroke-linejoin="round"/>
<path d="M122.203 93.3209C122.203 93.3209 125.139 83.5903 125.692 80.6575C126.245 77.7247 127.713 74.9639 127.713 74.9639V82.1239C127.713 82.1239 129.916 79.5532 132.308 76.4303C134.701 73.3075 136.903 73.4975 135.988 76.8014C135.072 80.1053 132.68 83.7803 132.498 84.3235C132.317 84.8666 131.393 88.9127 130.296 91.3024C129.2 93.692 126.435 96.8058 126.435 96.8058L122.203 93.3209Z" fill="white" stroke="#002E47" stroke-miterlimit="10" stroke-linecap="round" stroke-linejoin="round"/>
<path d="M110.258 100.662L122.203 93.3209C122.203 93.3209 125.511 92.9498 126.426 96.8058C127.341 100.662 126.797 98.4623 126.797 98.4623L117.426 111.678L110.258 100.662Z" fill="white" stroke="#002E47" stroke-miterlimit="10" stroke-linecap="round" stroke-linejoin="round"/>
<path d="M108.609 95.8916C108.609 95.8916 99.6002 86.5321 97.3979 87.2653C95.1957 87.9985 96.2923 91.8545 96.2923 91.8545C96.2923 91.8545 90.9633 89.836 90.7821 91.3024C90.6008 92.7687 90.6008 92.7687 90.6008 92.7687C90.6008 92.7687 81.0396 98.4623 78.4748 104.518C75.901 110.574 75.5385 116.448 78.4748 119.752C81.4111 123.056 88.5798 134.805 88.5798 134.805L88.7611 140.499L106.959 145.088L108.618 137.376C108.618 137.376 117.255 137.376 117.989 136.09C118.723 134.805 119.094 120.666 119.094 120.666L122.955 115.896C122.955 115.896 115.968 107.822 114.871 105.432C113.747 103.052 110.811 98.6433 108.609 95.8916Z" fill="white" stroke="#002E47" stroke-miterlimit="10" stroke-linecap="round" stroke-linejoin="round"/>
<path d="M117.969 124.251C117.969 124.251 117.108 125.391 114.824 123.11" stroke="#002E47" stroke-miterlimit="10" stroke-linecap="round" stroke-linejoin="round"/>
<path d="M108.609 95.8916C108.609 95.8916 99.6002 86.5321 97.3979 87.2653C95.1957 87.9985 96.2923 91.8545 96.2923 91.8545C96.2923 91.8545 90.9633 89.836 90.7821 91.3024C90.6008 92.7687 90.6008 92.7687 90.6008 92.7687C90.6008 92.7687 81.0396 98.4623 78.4748 104.518C75.901 110.574 75.5385 116.448 78.4748 119.752C80.7496 122.305 85.5438 129.899 87.6101 133.221C88.8698 133.357 90.1477 133.366 91.344 133.149C96.4916 132.234 99.9808 126.36 99.9808 126.36C99.9808 126.36 96.4916 125.256 96.3013 120.666C96.1201 116.077 99.0564 115.163 99.0564 115.163C99.0564 115.163 101.63 118.096 103.833 116.819C106.035 115.534 101.077 113.144 100.343 111.316C99.6092 109.478 101.449 106.908 101.812 105.622C102.174 104.337 98.3223 104.708 96.8451 103.966C95.3769 103.233 103.28 99.5576 104.929 98.4623C106.588 97.358 103.089 98.0912 101.068 96.9959C99.0474 95.8916 108.609 95.8916 108.609 95.8916Z" fill="#002E47" stroke="#002E47" stroke-miterlimit="10" stroke-linecap="round" stroke-linejoin="round"/>
<path d="M113.701 109.84C114.054 110.845 114 111.777 113.565 111.931C113.13 112.085 112.496 111.397 112.142 110.393C111.789 109.388 111.843 108.455 112.278 108.302C112.713 108.148 113.348 108.836 113.701 109.84Z" fill="#002E47"/>
<path d="M109.523 106.908C109.523 106.908 110.258 101.766 113.565 103.975" stroke="#002E47" stroke-miterlimit="10" stroke-linecap="round" stroke-linejoin="round"/>
<path d="M99.9609 126.36L103.459 125.446L104.375 128.197" stroke="#002E47" stroke-miterlimit="10" stroke-linecap="round" stroke-linejoin="round"/>
<path d="M83.9763 137.005C84.5291 137.005 113.204 146.002 113.204 146.002L113.757 154.447L83.2422 145.269L83.9763 137.005Z" fill="#E2EDFF" stroke="#002E47" stroke-miterlimit="10" stroke-linecap="round" stroke-linejoin="round"/>
<path d="M89.3072 177.575C89.3072 177.575 123.492 192.447 132.863 193.361C142.234 194.275 184.693 150.22 184.693 150.22L179.727 143.794C179.727 143.794 144.989 161.598 140.766 163.065C136.543 164.531 101.433 153.334 98.8594 152.782C96.2856 152.23 90.5851 153.153 88.3828 156.086" fill="#E2EDFF"/>
<path d="M89.3072 177.575C89.3072 177.575 123.492 192.447 132.863 193.361C142.234 194.275 184.693 150.22 184.693 150.22L179.727 143.794C179.727 143.794 144.989 161.598 140.766 163.065C136.543 164.531 101.433 153.334 98.8594 152.782C96.2856 152.23 90.5851 153.153 88.3828 156.086" stroke="#002E47" stroke-miterlimit="10" stroke-linecap="round" stroke-linejoin="round"/>
<path d="M100.335 182.354L86.9219 183.449" stroke="#002E47" stroke-miterlimit="10" stroke-linecap="round" stroke-linejoin="round"/>
<path d="M175.512 146.925L181.022 153.714" stroke="#002E47" stroke-miterlimit="10" stroke-linecap="round" stroke-linejoin="round"/>
<path d="M179.734 143.803L184.882 136.643C184.882 136.643 186.722 131.139 187.084 130.035C187.456 128.931 190.945 126.55 192.051 125.074C193.156 123.608 194.253 120.304 195.359 121.218C196.464 122.133 196.274 124.151 195.911 125.074C195.54 125.989 193.709 128.007 193.519 128.931C193.338 129.845 204.548 126.912 204.548 126.912C204.548 126.912 206.388 127.464 205.835 128.931C205.282 130.397 203.443 132.787 203.443 132.787C203.443 132.787 201.24 139.765 199.582 141.413C197.923 143.069 190.211 145.269 190.211 145.269L184.701 150.229L179.734 143.803Z" fill="white" stroke="#002E47" stroke-miterlimit="10" stroke-linecap="round" stroke-linejoin="round"/>
</svg>
