<svg width="55" height="55" viewBox="0 0 55 55" fill="none" xmlns="http://www.w3.org/2000/svg">
<path d="M21.9141 27.5C14.0808 27.5 7.73438 33.8464 7.73438 41.6797V46.8359C7.73438 48.9561 9.48144 50.7031 11.6016 50.7031H27.0703C27.2411 50.7055 27.4107 50.674 27.5692 50.6103C27.7278 50.5466 27.872 50.452 27.9937 50.3321C28.1153 50.2121 28.2119 50.0692 28.2778 49.9116C28.3438 49.754 28.3777 49.5849 28.3777 49.4141C28.3777 49.2432 28.3438 49.0741 28.2778 48.9165C28.2119 48.7589 28.1153 48.616 27.9937 48.496C27.872 48.3761 27.7278 48.2815 27.5692 48.2178C27.4107 48.1541 27.2411 48.1226 27.0703 48.125H11.6016C10.8651 48.125 10.3125 47.5724 10.3125 46.8359V41.6797C10.3125 35.2301 15.4645 30.0781 21.9141 30.0781H33.0859C34.2419 30.0781 35.3527 30.2452 36.4009 30.5548C36.5643 30.6064 36.7363 30.6249 36.9069 30.6092C37.0775 30.5935 37.2432 30.544 37.3945 30.4635C37.5457 30.3831 37.6794 30.2733 37.7877 30.1405C37.896 30.0078 37.9768 29.8548 38.0253 29.6905C38.0739 29.5262 38.0892 29.3539 38.0703 29.1836C38.0515 29.0134 37.9989 28.8485 37.9156 28.6988C37.8324 28.5491 37.7201 28.4175 37.5854 28.3116C37.4507 28.2058 37.2962 28.1279 37.131 28.0824C35.8484 27.7035 34.4899 27.5 33.0859 27.5H21.9141Z" fill="#39B4EF"/>
<path d="M27.5 4.29688C21.8198 4.29688 17.1875 8.92921 17.1875 14.6094C17.1875 20.2895 21.8198 24.9219 27.5 24.9219C33.1802 24.9219 37.8125 20.2895 37.8125 14.6094C37.8125 8.92921 33.1802 4.29688 27.5 4.29688ZM27.5 6.875C31.7868 6.875 35.2344 10.3225 35.2344 14.6094C35.2344 18.8962 31.7868 22.3438 27.5 22.3438C23.2132 22.3438 19.7656 18.8962 19.7656 14.6094C19.7656 10.3225 23.2132 6.875 27.5 6.875Z" fill="#39B4EF"/>
<path d="M38.6719 31.7969C32.9917 31.7969 28.3594 36.4292 28.3594 42.1094C28.3594 47.7895 32.9917 52.4219 38.6719 52.4219C40.5561 52.4219 42.4046 51.9062 44.0161 50.9297C44.161 50.842 44.2871 50.7266 44.3874 50.5901C44.4876 50.4537 44.56 50.2988 44.6004 50.1344C44.6407 49.9699 44.6483 49.7991 44.6227 49.6317C44.5971 49.4644 44.5387 49.3037 44.451 49.1588C44.3633 49.014 44.2479 48.8879 44.1114 48.7876C43.9749 48.6874 43.82 48.6151 43.6556 48.5747C43.4911 48.5343 43.3203 48.5268 43.1529 48.5524C42.9856 48.5781 42.8249 48.6365 42.6801 48.7242C41.4713 49.4566 40.0852 49.8438 38.6719 49.8438C34.385 49.8438 30.9375 46.3962 30.9375 42.1094C30.9375 37.8225 34.385 34.375 38.6719 34.375C42.9587 34.375 46.4062 37.8225 46.4062 42.1094C46.4062 43.5225 46.019 44.9089 45.2867 46.1176C45.199 46.2624 45.1406 46.4231 45.1149 46.5904C45.0893 46.7578 45.0968 46.9286 45.1372 47.0931C45.1776 47.2575 45.2499 47.4124 45.3501 47.5489C45.4504 47.6854 45.5765 47.8008 45.7213 47.8885C45.8662 47.9762 46.0269 48.0346 46.1942 48.0602C46.3616 48.0858 46.5324 48.0782 46.6969 48.0379C46.8613 47.9975 47.0162 47.9251 47.1526 47.8249C47.2891 47.7246 47.4045 47.5985 47.4922 47.4536C48.4685 45.8423 48.9844 43.9934 48.9844 42.1094C48.9844 36.4292 44.352 31.7969 38.6719 31.7969Z" fill="#39B4EF"/>
<path d="M38.6719 37.8123C37.9577 37.8123 37.3828 38.3872 37.3828 39.1013V40.8201H35.6641C34.9499 40.8201 34.375 41.395 34.375 42.1091C34.375 42.8233 34.9499 43.3982 35.6641 43.3982H37.3828V45.1169C37.3828 45.8311 37.9577 46.406 38.6719 46.406C39.386 46.406 39.9609 45.8311 39.9609 45.1169V43.3982H41.6797C42.3938 43.3982 42.9688 42.8233 42.9688 42.1091C42.9688 41.395 42.3938 40.8201 41.6797 40.8201H39.9609V39.1013C39.9609 38.3872 39.386 37.8123 38.6719 37.8123Z" fill="#39B4EF"/>
</svg>
