<svg width="448" height="449" viewBox="0 0 448 449" fill="none" xmlns="http://www.w3.org/2000/svg">
<path d="M408.28 219.854C401.291 177.527 383.048 137.852 355.03 105.363C338.705 86.4398 317.479 65.8587 291.952 49.5873C227.583 8.56846 147.839 20.2165 114.687 61.4325C81.5354 102.648 21.5034 286.328 25.9834 334.712C30.4634 383.096 161.279 427 246.399 416.248C331.519 405.496 404.095 350.84 411.263 290.808C414.077 267.279 411.926 241.95 408.28 219.854Z" fill="#39B4EF"/>
<path opacity="0.7" d="M408.28 219.854C401.291 177.527 383.048 137.852 355.03 105.363C338.705 86.4398 317.479 65.8587 291.952 49.5873C227.583 8.56846 147.839 20.2165 114.687 61.4325C81.5354 102.648 21.5034 286.328 25.9834 334.712C30.4634 383.096 161.279 427 246.399 416.248C331.519 405.496 404.095 350.84 411.263 290.808C414.077 267.279 411.926 241.95 408.28 219.854Z" fill="white"/>
<path d="M354.816 410.873H422.912" stroke="#002E47" stroke-miterlimit="10"/>
<path d="M105.727 410.873H346.751" stroke="#002E47" stroke-miterlimit="10"/>
<path d="M28.6719 410.873H95.8719" stroke="#002E47" stroke-miterlimit="10"/>
<g opacity="0.3">
<path d="M413.361 107.639L419.284 108.992L420.682 102.873L415.162 101.609C415.171 101.376 415.198 101.134 415.198 100.901C415.198 99.0288 414.813 97.2547 414.123 95.6419L418.558 92.1027L414.643 87.1926L410.378 90.5974C408.819 89.2892 406.946 88.3395 404.903 87.8467V82.1392H398.622V87.8467C396.669 88.3126 394.886 89.1996 393.372 90.4182L388.596 86.6102L384.68 91.5203L389.528 95.382C388.793 97.0038 388.372 98.7958 388.345 100.677L381.93 102.147L383.327 108.267L389.716 106.806C390.486 108.383 391.562 109.781 392.861 110.937L389.913 117.047L395.576 119.771L398.407 113.893C399.491 114.171 400.611 114.341 401.776 114.341C402.43 114.341 403.075 114.279 403.702 114.189L406.552 120.103L412.214 117.379L409.553 111.859C411.086 110.731 412.394 109.297 413.361 107.639ZM392.216 100.892C392.216 95.624 396.49 91.35 401.749 91.35C407.018 91.35 411.292 95.624 411.292 100.892C411.292 106.161 407.018 110.435 401.749 110.435C396.481 110.426 392.216 106.161 392.216 100.892Z" stroke="#002E47" stroke-miterlimit="10"/>
<path d="M413.361 148.219L419.284 149.572L420.682 143.452L415.162 142.189C415.171 141.956 415.198 141.714 415.198 141.481C415.198 139.608 414.813 137.834 414.123 136.221L418.558 132.682L414.643 127.772L410.378 131.177C408.819 129.869 406.946 128.919 404.903 128.426V122.719H398.622V128.426C396.669 128.892 394.886 129.779 393.372 130.998L388.596 127.19L384.68 132.1L389.528 135.962C388.793 137.583 388.372 139.375 388.345 141.257L381.93 142.726L383.327 148.846L389.716 147.386C390.486 148.963 391.562 150.36 392.861 151.516L389.913 157.627L395.576 160.351L398.407 154.473C399.491 154.751 400.611 154.921 401.776 154.921C402.43 154.921 403.075 154.858 403.702 154.769L406.552 160.682L412.214 157.958L409.553 152.439C411.086 151.319 412.394 149.885 413.361 148.219ZM392.216 141.472C392.216 136.204 396.49 131.939 401.749 131.939C407.018 131.939 411.292 136.213 411.292 141.472C411.292 146.741 407.018 151.014 401.749 151.014C396.481 151.014 392.216 146.741 392.216 141.472Z" stroke="#002E47" stroke-miterlimit="10"/>
<path d="M261.265 364.522L265.906 365.58L267 360.777L262.663 359.792C262.672 359.603 262.69 359.424 262.69 359.236C262.69 357.767 262.385 356.378 261.848 355.106L265.324 352.328L262.251 348.475L258.9 351.145C257.672 350.115 256.212 349.371 254.599 348.986V344.506H249.671V348.986C248.139 349.353 246.741 350.043 245.549 351.002L241.804 348.009L238.731 351.862L242.53 354.89C241.956 356.163 241.625 357.57 241.598 359.048L236.562 360.195L237.656 364.997L242.673 363.85C243.283 365.087 244.116 366.189 245.137 367.094L242.826 371.888L247.27 374.029L249.492 369.415C250.343 369.63 251.221 369.764 252.135 369.764C252.646 369.764 253.147 369.719 253.649 369.648L255.88 374.289L260.324 372.147L258.237 367.811C259.482 366.951 260.513 365.831 261.265 364.522ZM244.671 359.227C244.671 355.097 248.022 351.746 252.153 351.746C256.283 351.746 259.634 355.097 259.634 359.227C259.634 363.358 256.283 366.709 252.153 366.709C248.022 366.718 244.671 363.367 244.671 359.227Z" stroke="#002E47" stroke-miterlimit="10"/>
<path d="M192.945 47.1234L198.867 48.4763L200.265 42.3567L194.746 41.0933C194.754 40.8603 194.781 40.6184 194.781 40.3855C194.781 38.5128 194.396 36.7387 193.706 35.1259L198.141 31.5867L194.226 26.6767L189.952 30.0725C188.393 28.7643 186.52 27.8146 184.477 27.3218V21.6143H178.196V27.3218C176.243 27.7877 174.46 28.6747 172.946 29.8933L168.17 26.0853L164.255 30.9954L169.102 34.8571C168.367 36.4789 167.946 38.2709 167.919 40.1525L161.504 41.6219L162.902 47.7416L169.29 46.2811C170.061 47.8581 171.136 49.2559 172.435 50.4117L169.487 56.5224L175.15 59.2463L177.981 53.3685C179.066 53.6463 180.185 53.8165 181.35 53.8165C182.004 53.8165 182.65 53.7538 183.277 53.6642L186.126 59.5778L191.789 56.8539L189.128 51.3346C190.669 50.2235 191.977 48.7899 192.945 47.1234ZM171.799 40.3765C171.799 35.108 176.073 30.8341 181.332 30.8341C186.601 30.8341 190.875 35.108 190.875 40.3765C190.875 45.645 186.601 49.9189 181.332 49.9189C176.064 49.9189 171.799 45.645 171.799 40.3765Z" stroke="#002E47" stroke-miterlimit="10"/>
<path d="M86.5103 152.762L91.519 153.908L92.7017 148.721L88.0246 147.654C88.0335 147.457 88.0514 147.251 88.0514 147.054C88.0514 145.468 87.7289 143.963 87.1465 142.601L90.9007 139.608L87.5855 135.451L83.9746 138.336C82.6486 137.225 81.0716 136.427 79.3334 136.006V131.168H74.0111V136.006C72.3625 136.401 70.8482 137.153 69.567 138.184L65.517 134.958L62.2018 139.115L66.3055 142.386C65.6873 143.757 65.3289 145.271 65.302 146.875L59.8633 148.111L61.046 153.299L66.4578 152.063C67.1119 153.398 68.0169 154.58 69.119 155.557L66.6281 160.736L71.4217 163.048L73.814 158.075C74.7279 158.308 75.6866 158.451 76.6722 158.451C77.2278 158.451 77.7654 158.397 78.303 158.317L80.7132 163.325L85.5068 161.014L83.2578 156.337C84.575 155.378 85.686 154.168 86.5103 152.762ZM68.5993 147.045C68.5993 142.583 72.2191 138.972 76.6722 138.972C81.1343 138.972 84.7452 142.592 84.7452 147.045C84.7452 151.507 81.1254 155.118 76.6722 155.118C72.2102 155.127 68.5993 151.507 68.5993 147.045Z" stroke="#002E47" stroke-miterlimit="10"/>
<path d="M62.2096 130.863L69.1356 132.44L70.7753 125.272L64.3062 123.794C64.3241 123.516 64.351 123.238 64.351 122.961C64.351 120.774 63.903 118.696 63.0966 116.796L68.2844 112.657L63.6969 106.904L58.6972 110.892C56.8694 109.359 54.6832 108.248 52.2819 107.675V100.991H44.9257V107.675C42.6409 108.221 40.5532 109.261 38.7792 110.676L33.1971 106.232L28.6096 111.985L34.2812 116.509C33.4211 118.409 32.9283 120.506 32.8924 122.71L25.375 124.421L27.0147 131.589L34.4963 129.878C35.4012 131.724 36.6556 133.363 38.1699 134.716L34.7203 141.875L41.3417 145.065L44.6569 138.184C45.9203 138.515 47.2374 138.703 48.6083 138.703C49.3788 138.703 50.1225 138.632 50.8662 138.524L54.1993 145.441L60.8208 142.252L57.7116 135.791C59.5484 134.492 61.0806 132.817 62.2096 130.863ZM37.4531 122.97C37.4531 116.805 42.4528 111.805 48.6172 111.805C54.7817 111.805 59.7814 116.805 59.7814 122.97C59.7814 129.134 54.7817 134.134 48.6172 134.134C42.4528 134.134 37.4531 129.134 37.4531 122.97Z" stroke="#002E47" stroke-miterlimit="10"/>
<path d="M161.794 300.978L163.711 306.874H169.911L164.894 310.52L166.811 316.416L161.794 312.769L156.776 316.416L158.693 310.52L153.676 306.874H159.876L161.794 300.978Z" stroke="#002E47" stroke-miterlimit="10"/>
<path d="M181.844 300.978L183.753 306.874H189.953L184.944 310.52L186.853 316.416L181.844 312.769L176.827 316.416L178.735 310.52L173.727 306.874H179.927L181.844 300.978Z" stroke="#002E47" stroke-miterlimit="10"/>
<path d="M201.891 300.978L203.809 306.874H210.009L204.991 310.52L206.909 316.416L201.891 312.769L196.874 316.416L198.791 310.52L193.773 306.874H199.974L201.891 300.978Z" stroke="#002E47" stroke-miterlimit="10"/>
<path d="M221.934 300.978L223.852 306.874H230.052L225.034 310.52L226.952 316.416L221.934 312.769L216.917 316.416L218.834 310.52L213.816 306.874H220.017L221.934 300.978Z" stroke="#002E47" stroke-miterlimit="10"/>
<path d="M241.977 300.978L243.895 306.874H250.095L245.077 310.52L246.995 316.416L241.977 312.769L236.96 316.416L238.877 310.52L233.859 306.874H240.06L241.977 300.978Z" stroke="#002E47" stroke-miterlimit="10"/>
<path d="M248.641 323.961H153.665C149.956 323.961 146.945 320.95 146.945 317.241V302.009C146.945 298.299 149.956 295.289 153.665 295.289H248.641C252.351 295.289 255.361 298.299 255.361 302.009V317.241C255.361 320.95 252.351 323.961 248.641 323.961Z" stroke="#002E47" stroke-miterlimit="10"/>
<path d="M35.1228 205.518L36.3324 209.236H40.239L37.0761 211.53L38.2857 215.249L35.1228 212.946L31.9689 215.249L33.1695 211.53L30.0156 209.236H33.9222L35.1228 205.518Z" stroke="#002E47" stroke-miterlimit="10"/>
<path d="M47.7568 205.518L48.9664 209.236H52.8729L49.7101 211.53L50.9197 215.249L47.7568 212.946L44.5939 215.249L45.8035 211.53L42.6406 209.236H46.5472L47.7568 205.518Z" stroke="#002E47" stroke-miterlimit="10"/>
<path d="M60.3896 205.518L61.5902 209.236H65.4968L62.3429 211.53L63.5435 215.249L60.3896 212.946L57.2267 215.249L58.4274 211.53L55.2734 209.236H59.18L60.3896 205.518Z" stroke="#002E47" stroke-miterlimit="10"/>
<path d="M73.0146 205.518L74.2242 209.236H78.1308L74.9679 211.53L76.1775 215.249L73.0146 212.946L69.8517 215.249L71.0613 211.53L67.8984 209.236H71.805L73.0146 205.518Z" stroke="#002E47" stroke-miterlimit="10"/>
<path d="M85.6474 205.518L86.8481 209.236H90.7636L87.6007 211.53L88.8103 215.249L85.6474 212.946L82.4845 215.249L83.6941 211.53L80.5312 209.236H84.4378L85.6474 205.518Z" stroke="#002E47" stroke-miterlimit="10"/>
<path d="M87.3606 219.997H32.4895C28.7801 219.997 25.7695 216.987 25.7695 213.277V208.654C25.7695 204.945 28.7801 201.934 32.4895 201.934H87.3606C91.07 201.934 94.0806 204.945 94.0806 208.654V213.277C94.0806 216.987 91.07 219.997 87.3606 219.997Z" stroke="#002E47" stroke-miterlimit="10"/>
</g>
<path d="M93.6586 311.631C93.7034 311.658 94.5187 308.504 94.5456 308.298C94.8771 305.924 94.1155 301.148 91.7053 299.983C89.967 299.141 88.0227 300.154 87.3866 301.892C86.7414 303.675 87.5568 305.852 88.5334 307.357C89.6714 309.123 93.6586 311.631 93.6586 311.631Z" fill="#002E47"/>
<path d="M46.0528 310.592C47.9792 311.434 52.6832 311.327 52.6832 311.327C52.728 311.327 51.6707 308.244 51.5811 308.056C50.5507 305.897 47.2803 302.331 44.6282 302.689C42.7107 302.949 41.6535 304.866 42.0835 306.667C42.5226 308.513 44.4131 309.875 46.0528 310.592Z" fill="#002E47"/>
<path d="M47.6753 324.229C49.6734 324.516 53.8756 323.306 54.2072 323.208C54.8702 325.555 55.7393 327.921 56.7518 330.259C57.3252 331.594 57.9525 332.929 58.5976 334.255C58.2123 333.691 57.8718 333.198 57.8091 333.126C56.2411 331.316 52.1464 328.736 49.6824 329.784C47.9083 330.537 47.3797 332.669 48.2757 334.291C49.1896 335.949 51.3669 336.773 53.1409 337.033C54.9329 337.293 58.5348 336.325 59.4846 336.056C59.7355 336.558 59.9774 337.069 60.2373 337.57C61.4558 339.99 62.6744 342.4 63.8033 344.81C64.1976 345.652 64.5649 346.504 64.9233 347.355C64.5828 346.853 64.2872 346.441 64.2424 346.378C62.6744 344.568 58.5797 341.988 56.1157 343.036C54.3416 343.789 53.8129 345.921 54.7089 347.543C55.6229 349.201 57.8001 350.025 59.5742 350.276C61.2856 350.527 64.6187 349.666 65.7476 349.353C66.0971 350.231 66.4465 351.109 66.7422 351.978C66.9304 352.578 67.1544 353.134 67.3067 353.743C67.4769 354.344 67.6382 354.935 67.8084 355.526C68.0862 356.673 68.3729 357.856 68.6149 358.976C68.7851 359.755 68.9374 360.508 69.0897 361.252C68.7045 360.4 67.916 358.761 67.8264 358.635C66.554 356.61 62.8984 353.439 60.3 354.102C58.4273 354.577 57.594 356.601 58.2302 358.349C58.8843 360.123 60.9182 361.27 62.6206 361.789C64.5022 362.363 68.6776 361.843 69.1973 361.771C69.4481 363.017 69.6811 364.235 69.8782 365.382C70.5771 369.361 71.0161 372.712 71.2849 375.05C71.3297 375.462 71.3745 375.839 71.4104 376.188H63.3464L65.1294 410.872H81.2216L82.9956 376.188H75.4782C75.532 376.072 75.5857 375.964 75.6485 375.839C76.6789 373.688 78.1125 370.597 79.6536 366.825C80.1464 365.633 80.6481 364.343 81.1499 363.026C81.6516 363.133 85.7822 363.967 87.7086 363.537C89.4558 363.142 91.5704 362.157 92.3499 360.427C93.1115 358.743 92.4305 356.655 90.6027 356.046C88.0581 355.195 84.1784 358.08 82.7627 360.006C82.6821 360.123 81.9025 361.458 81.4366 362.309C81.6427 361.762 81.8398 361.243 82.0459 360.678C82.4491 359.576 82.8254 358.456 83.2286 357.256C83.4078 356.673 83.5781 356.082 83.7573 355.481C83.9454 354.89 84.0709 354.245 84.2321 353.627C84.5816 352.175 84.8593 350.688 85.1013 349.183C86.0689 349.532 89.5275 350.742 91.3195 350.616C93.1025 350.491 95.3425 349.837 96.3729 348.251C97.3854 346.701 97.027 344.532 95.3067 343.654C92.9233 342.427 88.6494 344.694 86.956 346.378C86.8485 346.486 85.7643 347.83 85.1909 348.582C85.3342 347.677 85.4776 346.772 85.594 345.849C85.9256 343.188 86.1765 340.491 86.4363 337.794C86.5169 336.97 86.6065 336.146 86.6961 335.321C87.0366 335.447 91.1224 336.97 93.1294 336.827C94.9125 336.701 97.1525 336.047 98.1828 334.461C99.1953 332.911 98.8369 330.743 97.1166 329.865C94.7332 328.637 90.4593 330.904 88.7659 332.589C88.6404 332.714 87.0814 334.658 86.7141 335.169C86.9022 333.359 87.1172 331.558 87.386 329.784C87.7624 327.338 88.2731 324.964 88.9361 322.706C89.0974 322.769 93.3445 324.372 95.4053 324.229C97.1883 324.104 99.4283 323.449 100.459 321.864C101.471 320.313 101.113 318.145 99.3924 317.267C97.0091 316.04 92.7352 318.306 91.0417 319.991C90.9342 320.098 89.7425 321.577 89.196 322.294C89.1243 322.258 89.1333 322.258 89.0616 322.222C89.7963 319.803 90.8177 317.554 91.875 315.502C92.4843 314.31 93.1384 313.199 93.7924 312.142C94.5541 312.518 98.0484 314.221 99.9211 314.292C101.704 314.364 104.007 313.961 105.207 312.491C106.381 311.058 106.265 308.872 104.652 307.805C102.421 306.318 97.923 308.101 96.0504 309.597C95.9518 309.678 95.002 310.619 94.33 311.309C94.6347 310.834 94.9393 310.341 95.235 309.893C96.355 308.2 97.484 306.73 98.4964 305.422C99.0788 304.687 99.6165 304.033 100.127 303.424C101.068 303.406 104.867 303.289 106.525 302.51C108.146 301.748 109.992 300.333 110.386 298.478C110.772 296.668 109.652 294.777 107.734 294.571C105.064 294.285 101.901 297.94 100.925 300.127C100.844 300.315 99.8673 303.424 99.9121 303.424C99.9121 303.424 99.9569 303.424 99.9659 303.424C99.4641 303.997 98.9265 304.616 98.3531 305.305C97.3137 306.587 96.14 308.047 94.9841 309.714C93.8193 311.38 92.6008 313.226 91.4897 315.287C90.3787 317.348 89.3035 319.579 88.5061 322.007C88.4971 322.034 88.4881 322.061 88.4792 322.088C88.4971 321.299 88.4612 319.104 88.4344 318.934C88.1297 316.559 86.1317 312.151 83.4974 311.667C81.5979 311.318 79.9851 312.805 79.8328 314.651C79.6805 316.541 81.0424 318.423 82.3774 319.615C83.8827 320.959 88.0581 322.258 88.3896 322.365C87.6459 324.695 87.0724 327.141 86.6245 329.65C86.3646 331.083 86.1585 332.535 85.9614 333.995C85.9525 333.314 85.9345 332.705 85.9256 332.625C85.6209 330.25 83.6228 325.842 80.9886 325.358C79.0891 325.008 77.4763 326.496 77.3329 328.342C77.1806 330.232 78.5425 332.114 79.8776 333.305C81.2305 334.515 84.7697 335.698 85.7105 335.993C85.6389 336.558 85.5672 337.113 85.4955 337.678C85.1729 340.366 84.8683 343.054 84.483 345.679C84.3486 346.602 84.1784 347.507 84.0171 348.421C84.0081 347.821 83.9902 347.31 83.9813 347.229C83.6766 344.855 81.6875 340.447 79.0443 339.963C77.1448 339.613 75.532 341.101 75.3886 342.946C75.2363 344.837 76.5982 346.719 77.9333 347.91C79.2235 349.066 82.476 350.186 83.596 350.545C83.3989 351.467 83.2017 352.399 82.9777 353.286C82.8075 353.887 82.6821 354.478 82.476 355.078C82.2878 355.67 82.0907 356.261 81.9115 356.843C81.5083 357.954 81.0961 359.092 80.684 360.168C80.3973 360.911 80.1105 361.619 79.8238 362.336C79.9672 361.413 80.218 359.612 80.218 359.46C80.2539 357.865 79.6894 355.284 78.5694 353.465C78.5784 353.232 78.5605 353 78.5246 352.767C78.2289 350.939 76.5086 349.577 74.6449 350.079C72.0555 350.769 70.4068 355.32 70.2904 357.713C70.2814 357.856 70.38 359.397 70.4516 360.365C70.3172 359.8 70.2008 359.254 70.0574 358.671C69.7886 357.524 69.484 356.386 69.1614 355.168C68.9822 354.585 68.803 353.994 68.6238 353.394C68.4536 352.793 68.2027 352.193 67.9966 351.584C67.4859 350.186 66.8945 348.788 66.2763 347.391C67.2798 347.149 70.828 346.244 72.2526 345.151C73.6683 344.066 75.1736 342.283 75.1646 340.384C75.1557 338.529 73.6593 336.925 71.7329 337.131C69.0628 337.418 66.7512 341.665 66.2673 344.013C66.2404 344.156 66.0792 345.876 66.0075 346.826C65.6222 345.993 65.2459 345.16 64.8337 344.326C63.642 341.925 62.3608 339.533 61.0974 337.14C60.7121 336.406 60.3269 335.671 59.9505 334.936C60.3089 334.856 64.547 333.87 66.1509 332.642C67.5665 331.549 69.0718 329.775 69.0629 327.876C69.0539 326.021 67.5576 324.417 65.6312 324.623C62.9611 324.91 60.6494 329.157 60.1656 331.505C60.1297 331.684 59.9057 334.157 59.8789 334.793C59.0366 333.18 58.2212 331.558 57.4686 329.928C56.4382 327.679 55.5512 325.421 54.8523 323.172C55.0225 323.136 59.4488 322.123 61.0884 320.869C62.5041 319.785 64.0094 318.002 64.0005 316.102C63.9915 314.248 62.4952 312.644 60.5688 312.85C57.8987 313.137 55.587 317.384 55.1032 319.731C55.0673 319.883 54.8971 321.774 54.8344 322.67C54.7537 322.679 54.7627 322.679 54.682 322.688C53.9652 320.269 53.571 317.823 53.3201 315.529C53.1678 314.194 53.1051 312.913 53.0603 311.667C53.9025 311.569 57.7643 311.049 59.3592 310.081C60.8913 309.158 62.5848 307.545 62.7729 305.664C62.9611 303.818 61.6529 302.062 59.7265 302.062C57.0475 302.053 54.2788 306.022 53.5441 308.298C53.5083 308.424 53.2395 309.723 53.0513 310.681C53.0424 310.117 53.0245 309.535 53.0245 308.997C53.0245 306.972 53.1589 305.108 53.2843 303.469C53.3649 302.537 53.4545 301.695 53.5441 300.906C54.3236 300.368 57.4238 298.182 58.3736 296.614C59.3054 295.091 60.067 292.887 59.3681 291.122C58.6872 289.401 56.716 288.443 54.9957 289.33C52.6123 290.557 51.9851 295.36 52.3793 297.716C52.4152 297.922 53.3112 301.049 53.356 301.023C53.356 301.023 53.3918 300.996 53.4008 300.987C53.2932 301.739 53.1947 302.555 53.0961 303.442C52.9348 305.081 52.7646 306.945 52.7198 308.979C52.666 311.013 52.666 313.226 52.8811 315.556C53.0872 317.894 53.4277 320.34 54.0997 322.813C54.1086 322.84 54.1176 322.867 54.1265 322.894C53.7054 322.231 52.46 320.421 52.3525 320.287C50.7845 318.477 46.6897 315.896 44.2257 316.945C42.4517 317.697 41.923 319.83 42.819 321.451C43.724 323.154 45.9102 323.969 47.6753 324.229ZM74.2686 359.37C75.6395 360.857 79.1608 362.596 79.6177 362.82C79.1429 363.993 78.659 365.14 78.1931 366.207C76.5803 369.916 75.1019 372.945 74.0356 375.041C73.8206 375.462 73.6235 375.839 73.4443 376.188H73.2651C73.2113 375.776 73.1576 375.328 73.0859 374.826C72.7633 372.461 72.2526 369.101 71.4552 365.096C71.2043 363.832 70.9176 362.479 70.604 361.099C70.9086 360.974 72.6917 360.257 74.2686 359.37Z" fill="#002E47"/>
<path opacity="0.3" d="M46.0528 310.592C47.9792 311.434 52.6832 311.327 52.6832 311.327C52.728 311.327 51.6707 308.244 51.5811 308.056C50.5507 305.897 47.2803 302.331 44.6282 302.689C42.7107 302.949 41.6535 304.866 42.0835 306.667C42.5226 308.513 44.4131 309.875 46.0528 310.592Z" fill="#002E47"/>
<path opacity="0.3" d="M93.6586 311.631C93.7034 311.658 94.5187 308.504 94.5456 308.298C94.8771 305.924 94.1155 301.148 91.7053 299.983C89.967 299.141 88.0227 300.154 87.3866 301.892C86.7414 303.675 87.5568 305.852 88.5334 307.357C89.6714 309.123 93.6586 311.631 93.6586 311.631Z" fill="#002E47"/>
<path opacity="0.3" d="M47.6753 324.229C49.6734 324.516 53.8756 323.306 54.2072 323.208C54.8702 325.555 55.7393 327.921 56.7518 330.259C57.3252 331.594 57.9525 332.929 58.5976 334.255C58.2123 333.691 57.8718 333.198 57.8091 333.126C56.2411 331.316 52.1464 328.736 49.6824 329.784C47.9083 330.537 47.3797 332.669 48.2757 334.291C49.1896 335.949 51.3669 336.773 53.1409 337.033C54.9329 337.293 58.5348 336.325 59.4846 336.056C59.7355 336.558 59.9774 337.069 60.2373 337.57C61.4558 339.99 62.6744 342.4 63.8033 344.81C64.1976 345.652 64.5649 346.504 64.9233 347.355C64.5828 346.853 64.2872 346.441 64.2424 346.378C62.6744 344.568 58.5797 341.988 56.1157 343.036C54.3416 343.789 53.8129 345.921 54.7089 347.543C55.6229 349.201 57.8001 350.025 59.5742 350.276C61.2856 350.527 64.6187 349.666 65.7476 349.353C66.0971 350.231 66.4465 351.109 66.7422 351.978C66.9304 352.578 67.1544 353.134 67.3067 353.743C67.4769 354.344 67.6382 354.935 67.8084 355.526C68.0862 356.673 68.3729 357.856 68.6149 358.976C68.7851 359.755 68.9374 360.508 69.0897 361.252C68.7045 360.4 67.916 358.761 67.8264 358.635C66.554 356.61 62.8984 353.439 60.3 354.102C58.4273 354.577 57.594 356.601 58.2302 358.349C58.8843 360.123 60.9182 361.27 62.6206 361.789C64.5022 362.363 68.6776 361.843 69.1973 361.771C69.4481 363.017 69.6811 364.235 69.8782 365.382C70.5771 369.361 71.0161 372.712 71.2849 375.05C71.3297 375.462 71.3745 375.839 71.4104 376.188H63.3464L65.1294 410.872H81.2216L82.9956 376.188H75.4782C75.532 376.072 75.5857 375.964 75.6485 375.839C76.6789 373.688 78.1125 370.597 79.6536 366.825C80.1464 365.633 80.6481 364.343 81.1499 363.026C81.6516 363.133 85.7822 363.967 87.7086 363.537C89.4558 363.142 91.5704 362.157 92.3499 360.427C93.1115 358.743 92.4305 356.655 90.6027 356.046C88.0581 355.195 84.1784 358.08 82.7627 360.006C82.6821 360.123 81.9025 361.458 81.4366 362.309C81.6427 361.762 81.8398 361.243 82.0459 360.678C82.4491 359.576 82.8254 358.456 83.2286 357.256C83.4078 356.673 83.5781 356.082 83.7573 355.481C83.9454 354.89 84.0709 354.245 84.2321 353.627C84.5816 352.175 84.8593 350.688 85.1013 349.183C86.0689 349.532 89.5275 350.742 91.3195 350.616C93.1025 350.491 95.3425 349.837 96.3729 348.251C97.3854 346.701 97.027 344.532 95.3067 343.654C92.9233 342.427 88.6494 344.694 86.956 346.378C86.8485 346.486 85.7643 347.83 85.1909 348.582C85.3342 347.677 85.4776 346.772 85.594 345.849C85.9256 343.188 86.1765 340.491 86.4363 337.794C86.5169 336.97 86.6065 336.146 86.6961 335.321C87.0366 335.447 91.1224 336.97 93.1294 336.827C94.9125 336.701 97.1525 336.047 98.1828 334.461C99.1953 332.911 98.8369 330.743 97.1166 329.865C94.7332 328.637 90.4593 330.904 88.7659 332.589C88.6404 332.714 87.0814 334.658 86.7141 335.169C86.9022 333.359 87.1172 331.558 87.386 329.784C87.7624 327.338 88.2731 324.964 88.9361 322.706C89.0974 322.769 93.3445 324.372 95.4053 324.229C97.1883 324.104 99.4283 323.449 100.459 321.864C101.471 320.313 101.113 318.145 99.3924 317.267C97.0091 316.04 92.7352 318.306 91.0417 319.991C90.9342 320.098 89.7425 321.577 89.196 322.294C89.1243 322.258 89.1333 322.258 89.0616 322.222C89.7963 319.803 90.8177 317.554 91.875 315.502C92.4843 314.31 93.1384 313.199 93.7924 312.142C94.5541 312.518 98.0484 314.221 99.9211 314.292C101.704 314.364 104.007 313.961 105.207 312.491C106.381 311.058 106.265 308.872 104.652 307.805C102.421 306.318 97.923 308.101 96.0504 309.597C95.9518 309.678 95.002 310.619 94.33 311.309C94.6347 310.834 94.9393 310.341 95.235 309.893C96.355 308.2 97.484 306.73 98.4964 305.422C99.0788 304.687 99.6165 304.033 100.127 303.424C101.068 303.406 104.867 303.289 106.525 302.51C108.146 301.748 109.992 300.333 110.386 298.478C110.772 296.668 109.652 294.777 107.734 294.571C105.064 294.285 101.901 297.94 100.925 300.127C100.844 300.315 99.8673 303.424 99.9121 303.424C99.9121 303.424 99.9569 303.424 99.9659 303.424C99.4641 303.997 98.9265 304.616 98.3531 305.305C97.3137 306.587 96.14 308.047 94.9841 309.714C93.8193 311.38 92.6008 313.226 91.4897 315.287C90.3787 317.348 89.3035 319.579 88.5061 322.007C88.4971 322.034 88.4881 322.061 88.4792 322.088C88.4971 321.299 88.4612 319.104 88.4344 318.934C88.1297 316.559 86.1317 312.151 83.4974 311.667C81.5979 311.318 79.9851 312.805 79.8328 314.651C79.6805 316.541 81.0424 318.423 82.3774 319.615C83.8827 320.959 88.0581 322.258 88.3896 322.365C87.6459 324.695 87.0724 327.141 86.6245 329.65C86.3646 331.083 86.1585 332.535 85.9614 333.995C85.9525 333.314 85.9345 332.705 85.9256 332.625C85.6209 330.25 83.6228 325.842 80.9886 325.358C79.0891 325.008 77.4763 326.496 77.3329 328.342C77.1806 330.232 78.5425 332.114 79.8776 333.305C81.2305 334.515 84.7697 335.698 85.7105 335.993C85.6389 336.558 85.5672 337.113 85.4955 337.678C85.1729 340.366 84.8683 343.054 84.483 345.679C84.3486 346.602 84.1784 347.507 84.0171 348.421C84.0081 347.821 83.9902 347.31 83.9813 347.229C83.6766 344.855 81.6875 340.447 79.0443 339.963C77.1448 339.613 75.532 341.101 75.3886 342.946C75.2363 344.837 76.5982 346.719 77.9333 347.91C79.2235 349.066 82.476 350.186 83.596 350.545C83.3989 351.467 83.2017 352.399 82.9777 353.286C82.8075 353.887 82.6821 354.478 82.476 355.078C82.2878 355.67 82.0907 356.261 81.9115 356.843C81.5083 357.954 81.0961 359.092 80.684 360.168C80.3973 360.911 80.1105 361.619 79.8238 362.336C79.9672 361.413 80.218 359.612 80.218 359.46C80.2539 357.865 79.6894 355.284 78.5694 353.465C78.5784 353.232 78.5605 353 78.5246 352.767C78.2289 350.939 76.5086 349.577 74.6449 350.079C72.0555 350.769 70.4068 355.32 70.2904 357.713C70.2814 357.856 70.38 359.397 70.4516 360.365C70.3172 359.8 70.2008 359.254 70.0574 358.671C69.7886 357.524 69.484 356.386 69.1614 355.168C68.9822 354.585 68.803 353.994 68.6238 353.394C68.4536 352.793 68.2027 352.193 67.9966 351.584C67.4859 350.186 66.8945 348.788 66.2763 347.391C67.2798 347.149 70.828 346.244 72.2526 345.151C73.6683 344.066 75.1736 342.283 75.1646 340.384C75.1557 338.529 73.6593 336.925 71.7329 337.131C69.0628 337.418 66.7512 341.665 66.2673 344.013C66.2404 344.156 66.0792 345.876 66.0075 346.826C65.6222 345.993 65.2459 345.16 64.8337 344.326C63.642 341.925 62.3608 339.533 61.0974 337.14C60.7121 336.406 60.3269 335.671 59.9505 334.936C60.3089 334.856 64.547 333.87 66.1509 332.642C67.5665 331.549 69.0718 329.775 69.0629 327.876C69.0539 326.021 67.5576 324.417 65.6312 324.623C62.9611 324.91 60.6494 329.157 60.1656 331.505C60.1297 331.684 59.9057 334.157 59.8789 334.793C59.0366 333.18 58.2212 331.558 57.4686 329.928C56.4382 327.679 55.5512 325.421 54.8523 323.172C55.0225 323.136 59.4488 322.123 61.0884 320.869C62.5041 319.785 64.0094 318.002 64.0005 316.102C63.9915 314.248 62.4952 312.644 60.5688 312.85C57.8987 313.137 55.587 317.384 55.1032 319.731C55.0673 319.883 54.8971 321.774 54.8344 322.67C54.7537 322.679 54.7627 322.679 54.682 322.688C53.9652 320.269 53.571 317.823 53.3201 315.529C53.1678 314.194 53.1051 312.913 53.0603 311.667C53.9025 311.569 57.7643 311.049 59.3592 310.081C60.8913 309.158 62.5848 307.545 62.7729 305.664C62.9611 303.818 61.6529 302.062 59.7265 302.062C57.0475 302.053 54.2788 306.022 53.5441 308.298C53.5083 308.424 53.2395 309.723 53.0513 310.681C53.0424 310.117 53.0245 309.535 53.0245 308.997C53.0245 306.972 53.1589 305.108 53.2843 303.469C53.3649 302.537 53.4545 301.695 53.5441 300.906C54.3236 300.368 57.4238 298.182 58.3736 296.614C59.3054 295.091 60.067 292.887 59.3681 291.122C58.6872 289.401 56.716 288.443 54.9957 289.33C52.6123 290.557 51.9851 295.36 52.3793 297.716C52.4152 297.922 53.3112 301.049 53.356 301.023C53.356 301.023 53.3918 300.996 53.4008 300.987C53.2932 301.739 53.1947 302.555 53.0961 303.442C52.9348 305.081 52.7646 306.945 52.7198 308.979C52.666 311.013 52.666 313.226 52.8811 315.556C53.0872 317.894 53.4277 320.34 54.0997 322.813C54.1086 322.84 54.1176 322.867 54.1265 322.894C53.7054 322.231 52.46 320.421 52.3525 320.287C50.7845 318.477 46.6897 315.896 44.2257 316.945C42.4517 317.697 41.923 319.83 42.819 321.451C43.724 323.154 45.9102 323.969 47.6753 324.229ZM74.2686 359.37C75.6395 360.857 79.1608 362.596 79.6177 362.82C79.1429 363.993 78.659 365.14 78.1931 366.207C76.5803 369.916 75.1019 372.945 74.0356 375.041C73.8206 375.462 73.6235 375.839 73.4443 376.188H73.2651C73.2113 375.776 73.1576 375.328 73.0859 374.826C72.7633 372.461 72.2526 369.101 71.4552 365.096C71.2043 363.832 70.9176 362.479 70.604 361.099C70.9086 360.974 72.6917 360.257 74.2686 359.37Z" fill="#002E47"/>
<path opacity="0.3" d="M377.216 50.6802H64.5117V281.848H377.216V50.6802Z" fill="#002E47"/>
<path d="M388.326 41.7202H72.2617V273.937H388.326V41.7202Z" fill="white" stroke="#002E47" stroke-miterlimit="10"/>
<path d="M124.337 41.7202H72.2617V273.937H124.337V41.7202Z" fill="#39B4EF" stroke="#002E47" stroke-miterlimit="10"/>
<path d="M388.326 41.7202H72.2617V60.7871H388.326V41.7202Z" fill="#002E47" stroke="#002E47" stroke-miterlimit="10" stroke-linecap="round" stroke-linejoin="round"/>
<path d="M86.8566 86.8609C86.8566 83.9579 84.5091 81.6104 81.606 81.6104C78.703 81.6104 76.3555 83.9579 76.3555 86.8609C76.3555 89.764 78.703 92.1115 81.606 92.1115C84.5091 92.1115 86.8566 89.755 86.8566 86.8609Z" fill="white" stroke="#002E47" stroke-miterlimit="10" stroke-linecap="round" stroke-linejoin="round"/>
<path d="M91.2305 87.2998H117.035" stroke="#002E47" stroke-miterlimit="10" stroke-linecap="round" stroke-linejoin="round"/>
<path d="M86.8566 110.919C86.8566 108.015 84.5091 105.668 81.606 105.668C78.703 105.668 76.3555 108.015 76.3555 110.919C76.3555 113.822 78.703 116.169 81.606 116.169C84.5091 116.169 86.8566 113.813 86.8566 110.919Z" fill="white" stroke="#002E47" stroke-miterlimit="10" stroke-linecap="round" stroke-linejoin="round"/>
<path d="M91.2305 111.348H117.035" stroke="#002E47" stroke-miterlimit="10" stroke-linecap="round" stroke-linejoin="round"/>
<path d="M86.8566 134.967C86.8566 132.064 84.5091 129.716 81.606 129.716C78.703 129.716 76.3555 132.064 76.3555 134.967C76.3555 137.87 78.703 140.217 81.606 140.217C84.5091 140.217 86.8566 137.87 86.8566 134.967Z" fill="white" stroke="#002E47" stroke-miterlimit="10" stroke-linecap="round" stroke-linejoin="round"/>
<path d="M91.2305 135.406H117.035" stroke="#002E47" stroke-miterlimit="10" stroke-linecap="round" stroke-linejoin="round"/>
<path d="M86.8566 159.024C86.8566 156.121 84.5091 153.774 81.606 153.774C78.703 153.774 76.3555 156.121 76.3555 159.024C76.3555 161.928 78.703 164.275 81.606 164.275C84.5091 164.275 86.8566 161.928 86.8566 159.024Z" fill="white" stroke="#002E47" stroke-miterlimit="10" stroke-linecap="round" stroke-linejoin="round"/>
<path d="M91.2305 159.463H117.035" stroke="#002E47" stroke-miterlimit="10" stroke-linecap="round" stroke-linejoin="round"/>
<path d="M86.8566 183.082C86.8566 180.179 84.5091 177.832 81.606 177.832C78.703 177.832 76.3555 180.179 76.3555 183.082C76.3555 185.985 78.703 188.333 81.606 188.333C84.5091 188.333 86.8566 185.976 86.8566 183.082Z" fill="white" stroke="#002E47" stroke-miterlimit="10" stroke-linecap="round" stroke-linejoin="round"/>
<path d="M91.2305 183.521H117.035" stroke="#002E47" stroke-miterlimit="10" stroke-linecap="round" stroke-linejoin="round"/>
<g opacity="0.05">
<path d="M337.774 200.241H130.879V207.66H337.774V200.241Z" fill="#002E47"/>
<path d="M337.774 213.331H130.879V220.75H337.774V213.331Z" fill="#002E47"/>
<path d="M337.774 226.431H130.879V233.85H337.774V226.431Z" fill="#002E47"/>
<path d="M337.774 239.521H130.879V246.94H337.774V239.521Z" fill="#002E47"/>
</g>
<path d="M228.855 219.281H216.992V253.929H228.855V219.281Z" fill="#39B4EF"/>
<path d="M215.676 204.98H203.812V253.929H215.676V204.98Z" fill="#002E47"/>
<path d="M202.492 222.578H190.629V253.929H202.492V222.578Z" fill="#39B4EF"/>
<path d="M189.312 241.277H177.449V253.929H189.312V241.277Z" fill="#002E47"/>
<path d="M176.133 216.53H164.27V253.929H176.133V216.53Z" fill="#39B4EF"/>
<path d="M162.953 224.227H151.09V253.929H162.953V224.227Z" fill="#002E47"/>
<path d="M149.773 242.926H137.91V253.929H149.773V242.926Z" fill="#39B4EF"/>
<path d="M256.508 219.281H244.645V253.929H256.508V219.281Z" fill="#002E47"/>
<path d="M269.687 204.98H257.824V253.929H269.687V204.98Z" fill="#39B4EF"/>
<path d="M282.879 222.578H271.016V253.929H282.879V222.578Z" fill="#002E47"/>
<path d="M296.058 241.277H284.195V253.929H296.058V241.277Z" fill="#39B4EF"/>
<path d="M309.238 216.53H297.375V253.929H309.238V216.53Z" fill="#002E47"/>
<path d="M322.418 224.227H310.555V253.929H322.418V224.227Z" fill="#39B4EF"/>
<path d="M335.597 242.926H323.734V253.929H335.597V242.926Z" fill="#002E47"/>
<path d="M79.2148 217.166H117.698" stroke="#002E47" stroke-miterlimit="10" stroke-linecap="round" stroke-linejoin="round"/>
<path d="M79.2148 224.074H117.698" stroke="#002E47" stroke-miterlimit="10" stroke-linecap="round" stroke-linejoin="round"/>
<path d="M79.2148 230.982H117.698" stroke="#002E47" stroke-miterlimit="10" stroke-linecap="round" stroke-linejoin="round"/>
<path d="M79.2148 237.891H117.698" stroke="#002E47" stroke-miterlimit="10" stroke-linecap="round" stroke-linejoin="round"/>
<path d="M79.2148 244.79H117.698" stroke="#002E47" stroke-miterlimit="10" stroke-linecap="round" stroke-linejoin="round"/>
<path d="M79.2148 251.698H117.698" stroke="#002E47" stroke-miterlimit="10" stroke-linecap="round" stroke-linejoin="round"/>
<path d="M86.2031 47.8042H103.093" stroke="white" stroke-miterlimit="10" stroke-linecap="round" stroke-linejoin="round"/>
<path d="M86.2031 52.3916H103.093" stroke="white" stroke-miterlimit="10" stroke-linecap="round" stroke-linejoin="round"/>
<path d="M86.2031 56.979H103.093" stroke="white" stroke-miterlimit="10" stroke-linecap="round" stroke-linejoin="round"/>
<path opacity="0.05" d="M338.247 150.064H239.57V190.017H338.247V150.064Z" fill="#002E47"/>
<path d="M338.238 183.118V190.026H239.57V167.823L255.349 163.388H277.552L286.44 174.732H302.219L314.557 183.118H338.238Z" fill="#39B4EF"/>
<path d="M308.633 157.465H332.323" stroke="#002E47" stroke-miterlimit="10" stroke-linecap="round" stroke-linejoin="round"/>
<path d="M314.762 173.038V175.063H313.669V173.038H310.426V172.016L313.535 165.019H314.753V172.016H315.56V173.038H314.762ZM311.465 172.016H313.678V167.106L311.465 172.016Z" fill="#002E47"/>
<path d="M317.55 169.104C317.864 168.558 318.366 168.271 319.047 168.271C320.337 168.271 320.91 169.221 320.91 170.654V172.617C320.91 174.149 320.176 175.152 318.644 175.152C317.111 175.152 316.395 174.149 316.395 172.617V171.945H317.443V172.688C317.443 173.593 317.819 174.14 318.617 174.14C319.414 174.14 319.79 173.593 319.79 172.688V170.744C319.79 169.839 319.414 169.292 318.617 169.292C317.998 169.292 317.586 169.633 317.488 170.368V170.601H316.439L316.708 165.019H320.668V166.022H317.712L317.55 169.104Z" fill="#002E47"/>
<path d="M324.789 166.587V169.758C324.789 170.735 324.332 171.38 323.355 171.38C322.379 171.38 321.922 170.735 321.922 169.758V166.587C321.922 165.628 322.379 164.965 323.355 164.965C324.332 164.965 324.789 165.619 324.789 166.587ZM322.639 166.542V169.812C322.639 170.359 322.836 170.717 323.355 170.717C323.857 170.717 324.072 170.359 324.072 169.812V166.542C324.072 165.995 323.857 165.628 323.355 165.628C322.845 165.619 322.639 165.995 322.639 166.542ZM328.104 165.019L324.144 175.063H323.472L327.432 165.019H328.104ZM329.726 170.323V173.477C329.726 174.453 329.278 175.099 328.292 175.099C327.316 175.099 326.859 174.453 326.859 173.477V170.323C326.859 169.364 327.316 168.719 328.292 168.719C329.287 168.719 329.726 169.364 329.726 170.323ZM327.576 170.287V173.54C327.576 174.086 327.791 174.453 328.292 174.453C328.794 174.453 329.009 174.077 329.009 173.54V170.287C329.009 169.741 328.794 169.382 328.292 169.382C327.791 169.382 327.576 169.741 327.576 170.287Z" fill="#002E47"/>
<g opacity="0.3">
<path d="M130.055 133.085V129.546" stroke="#002E47" stroke-width="0.5" stroke-miterlimit="10" stroke-linecap="round" stroke-linejoin="round"/>
<path opacity="0.3" d="M129.176 121.15H379.446" stroke="#002E47" stroke-width="0.5" stroke-miterlimit="10" stroke-linecap="round" stroke-linejoin="round"/>
<path opacity="0.3" d="M129.176 129.322H379.446" stroke="#002E47" stroke-width="0.5" stroke-miterlimit="10" stroke-linecap="round" stroke-linejoin="round"/>
<path opacity="0.3" d="M129.176 113.418H379.446" stroke="#002E47" stroke-width="0.5" stroke-miterlimit="10" stroke-linecap="round" stroke-linejoin="round"/>
<path opacity="0.3" d="M129.176 105.694H379.446" stroke="#002E47" stroke-width="0.5" stroke-miterlimit="10" stroke-linecap="round" stroke-linejoin="round"/>
<path opacity="0.3" d="M129.176 97.9619H379.446" stroke="#002E47" stroke-width="0.5" stroke-miterlimit="10" stroke-linecap="round" stroke-linejoin="round"/>
<path opacity="0.3" d="M129.176 90.2295H379.446" stroke="#002E47" stroke-width="0.5" stroke-miterlimit="10" stroke-linecap="round" stroke-linejoin="round"/>
<path opacity="0.3" d="M129.176 82.4971H379.446" stroke="#002E47" stroke-width="0.5" stroke-miterlimit="10" stroke-linecap="round" stroke-linejoin="round"/>
<path opacity="0.3" d="M150.672 133.085V129.546" stroke="#002E47" stroke-width="0.5" stroke-miterlimit="10" stroke-linecap="round" stroke-linejoin="round"/>
<path d="M171.289 133.085V129.546" stroke="#002E47" stroke-width="0.5" stroke-miterlimit="10" stroke-linecap="round" stroke-linejoin="round"/>
<path d="M191.906 133.085V129.546" stroke="#002E47" stroke-width="0.5" stroke-miterlimit="10" stroke-linecap="round" stroke-linejoin="round"/>
<path d="M212.523 133.085V129.546" stroke="#002E47" stroke-width="0.5" stroke-miterlimit="10" stroke-linecap="round" stroke-linejoin="round"/>
<path d="M233.141 133.085V129.546" stroke="#002E47" stroke-width="0.5" stroke-miterlimit="10" stroke-linecap="round" stroke-linejoin="round"/>
<path d="M253.754 133.085V129.546" stroke="#002E47" stroke-width="0.5" stroke-miterlimit="10" stroke-linecap="round" stroke-linejoin="round"/>
<path d="M274.371 133.085V129.546" stroke="#002E47" stroke-width="0.5" stroke-miterlimit="10" stroke-linecap="round" stroke-linejoin="round"/>
<path d="M294.988 133.085V129.546" stroke="#002E47" stroke-width="0.5" stroke-miterlimit="10" stroke-linecap="round" stroke-linejoin="round"/>
<path d="M315.605 133.085V129.546" stroke="#002E47" stroke-width="0.5" stroke-miterlimit="10" stroke-linecap="round" stroke-linejoin="round"/>
<path d="M336.223 133.085V129.546" stroke="#002E47" stroke-width="0.5" stroke-miterlimit="10" stroke-linecap="round" stroke-linejoin="round"/>
<path d="M356.84 133.085V129.546" stroke="#002E47" stroke-width="0.5" stroke-miterlimit="10" stroke-linecap="round" stroke-linejoin="round"/>
<path d="M377.457 133.085V129.546" stroke="#002E47" stroke-width="0.5" stroke-miterlimit="10" stroke-linecap="round" stroke-linejoin="round"/>
</g>
<path d="M376.193 128.041V83.9846L376.3 80.0332L363.102 82.7212L346.535 88.0166L326.429 90.2297L305.445 96.4121L285.562 93.9839L263.037 87.5775L241.39 97.4873L224.375 91.1078L201.625 93.9839L182.63 86.0274L160.759 116.733L140.213 92.2188L130.008 102.317V128.041H376.193Z" fill="#39B4EF"/>
<path opacity="0.5" d="M376.193 128.041V83.9846L376.3 80.0332L363.102 82.7212L346.535 88.0166L326.429 90.2297L305.445 96.4121L285.562 93.9839L263.037 87.5775L241.39 97.4873L224.375 91.1078L201.625 93.9839L182.63 86.0274L160.759 116.733L140.213 92.2188L130.008 102.317V128.041H376.193Z" fill="white"/>
<path opacity="0.15" d="M376.365 128.041V113.23L376.419 111.411L363.104 106.026L346.537 102.272L326.431 104.485L305.446 108.239L285.564 105.363L263.039 103.159L241.391 103.598L224.376 108.463L201.627 112.433L182.632 108.463L160.76 110.452L140.215 112.657L130.278 113.983H129.812V128.041H376.365Z" fill="#002E47"/>
<path d="M140.213 113.983C140.945 113.983 141.539 113.389 141.539 112.657C141.539 111.924 140.945 111.331 140.213 111.331C139.48 111.331 138.887 111.924 138.887 112.657C138.887 113.389 139.48 113.983 140.213 113.983Z" fill="#002E47"/>
<path d="M162.086 110.453C162.086 109.718 161.494 109.126 160.76 109.126C160.025 109.126 159.434 109.718 159.434 110.453C159.434 111.187 160.025 111.779 160.76 111.779C161.494 111.77 162.086 111.178 162.086 110.453Z" fill="#002E47"/>
<path d="M182.631 109.789C183.363 109.789 183.957 109.196 183.957 108.463C183.957 107.731 183.363 107.137 182.631 107.137C181.898 107.137 181.305 107.731 181.305 108.463C181.305 109.196 181.898 109.789 182.631 109.789Z" fill="#002E47"/>
<path d="M201.623 113.759C202.355 113.759 202.949 113.165 202.949 112.433C202.949 111.7 202.355 111.106 201.623 111.106C200.891 111.106 200.297 111.7 200.297 112.433C200.297 113.165 200.891 113.759 201.623 113.759Z" fill="#002E47"/>
<path d="M224.373 109.789C225.105 109.789 225.699 109.196 225.699 108.463C225.699 107.731 225.105 107.137 224.373 107.137C223.641 107.137 223.047 107.731 223.047 108.463C223.047 109.196 223.641 109.789 224.373 109.789Z" fill="#002E47"/>
<path d="M241.389 104.924C242.121 104.924 242.715 104.33 242.715 103.598C242.715 102.866 242.121 102.272 241.389 102.272C240.656 102.272 240.062 102.866 240.062 103.598C240.062 104.33 240.656 104.924 241.389 104.924Z" fill="#002E47"/>
<path d="M263.037 104.485C263.769 104.485 264.363 103.891 264.363 103.159C264.363 102.427 263.769 101.833 263.037 101.833C262.305 101.833 261.711 102.427 261.711 103.159C261.711 103.891 262.305 104.485 263.037 104.485Z" fill="#002E47"/>
<path d="M286.887 105.363C286.887 104.628 286.295 104.037 285.56 104.037C284.826 104.037 284.234 104.628 284.234 105.363C284.234 106.098 284.826 106.689 285.56 106.689C286.295 106.689 286.887 106.098 286.887 105.363Z" fill="#002E47"/>
<path d="M305.443 109.565C306.176 109.565 306.769 108.972 306.769 108.239C306.769 107.507 306.176 106.913 305.443 106.913C304.711 106.913 304.117 107.507 304.117 108.239C304.117 108.972 304.711 109.565 305.443 109.565Z" fill="#002E47"/>
<path d="M326.428 105.811C327.16 105.811 327.754 105.217 327.754 104.485C327.754 103.752 327.16 103.159 326.428 103.159C325.695 103.159 325.102 103.752 325.102 104.485C325.102 105.217 325.695 105.811 326.428 105.811Z" fill="#002E47"/>
<path d="M346.533 103.598C347.265 103.598 347.859 103.004 347.859 102.272C347.859 101.54 347.265 100.946 346.533 100.946C345.801 100.946 345.207 101.54 345.207 102.272C345.207 103.004 345.801 103.598 346.533 103.598Z" fill="#002E47"/>
<path d="M364.43 106.026C364.43 105.292 363.838 104.7 363.103 104.7C362.369 104.7 361.777 105.292 361.777 106.026C361.777 106.761 362.369 107.352 363.103 107.352C363.838 107.352 364.43 106.761 364.43 106.026Z" fill="#002E47"/>
<g opacity="0.3">
<path d="M140.213 93.5447C140.945 93.5447 141.539 92.951 141.539 92.2187C141.539 91.4863 140.945 90.8926 140.213 90.8926C139.48 90.8926 138.887 91.4863 138.887 92.2187C138.887 92.951 139.48 93.5447 140.213 93.5447Z" fill="#002E47"/>
<path d="M160.76 118.059C161.492 118.059 162.086 117.466 162.086 116.733C162.086 116.001 161.492 115.407 160.76 115.407C160.027 115.407 159.434 116.001 159.434 116.733C159.434 117.466 160.027 118.059 160.76 118.059Z" fill="#002E47"/>
<path d="M183.957 86.0272C183.957 85.2925 183.365 84.7012 182.631 84.7012C181.896 84.7012 181.305 85.2925 181.305 86.0272C181.305 86.762 181.896 87.3533 182.631 87.3533C183.365 87.3533 183.957 86.762 183.957 86.0272Z" fill="#002E47"/>
<path d="M201.623 95.3099C202.355 95.3099 202.949 94.7162 202.949 93.9838C202.949 93.2514 202.355 92.6577 201.623 92.6577C200.891 92.6577 200.297 93.2514 200.297 93.9838C200.297 94.7162 200.891 95.3099 201.623 95.3099Z" fill="#002E47"/>
<path d="M225.699 91.1078C225.699 90.3731 225.108 89.7817 224.373 89.7817C223.638 89.7817 223.047 90.3731 223.047 91.1078C223.047 91.8425 223.638 92.4339 224.373 92.4339C225.108 92.4339 225.699 91.8425 225.699 91.1078Z" fill="#002E47"/>
<path d="M241.389 98.2938C242.121 98.2938 242.715 97.7001 242.715 96.9677C242.715 96.2353 242.121 95.6416 241.389 95.6416C240.656 95.6416 240.062 96.2353 240.062 96.9677C240.062 97.7001 240.656 98.2938 241.389 98.2938Z" fill="#002E47"/>
<path d="M263.037 88.9036C263.769 88.9036 264.363 88.3099 264.363 87.5775C264.363 86.8452 263.769 86.2515 263.037 86.2515C262.305 86.2515 261.711 86.8452 261.711 87.5775C261.711 88.3099 262.305 88.9036 263.037 88.9036Z" fill="#002E47"/>
<path d="M285.56 95.3099C286.293 95.3099 286.887 94.7162 286.887 93.9838C286.887 93.2514 286.293 92.6577 285.56 92.6577C284.828 92.6577 284.234 93.2514 284.234 93.9838C284.234 94.7162 284.828 95.3099 285.56 95.3099Z" fill="#002E47"/>
<path d="M305.443 97.7381C306.176 97.7381 306.769 97.1444 306.769 96.412C306.769 95.6796 306.176 95.0859 305.443 95.0859C304.711 95.0859 304.117 95.6796 304.117 96.412C304.117 97.1444 304.711 97.7381 305.443 97.7381Z" fill="#002E47"/>
<path d="M326.428 91.5555C327.16 91.5555 327.754 90.9618 327.754 90.2294C327.754 89.497 327.16 88.9033 326.428 88.9033C325.695 88.9033 325.102 89.497 325.102 90.2294C325.102 90.9618 325.695 91.5555 326.428 91.5555Z" fill="#002E47"/>
<path d="M346.533 89.3426C347.265 89.3426 347.859 88.7489 347.859 88.0165C347.859 87.2841 347.265 86.6904 346.533 86.6904C345.801 86.6904 345.207 87.2841 345.207 88.0165C345.207 88.7489 345.801 89.3426 346.533 89.3426Z" fill="#002E47"/>
<path d="M363.103 84.0472C363.836 84.0472 364.43 83.4535 364.43 82.7211C364.43 81.9887 363.836 81.395 363.103 81.395C362.371 81.395 361.777 81.9887 361.777 82.7211C361.777 83.4535 362.371 84.0472 363.103 84.0472Z" fill="#002E47"/>
</g>
<path d="M360.157 76.8254V78.8503H359.064V76.8254H355.82V75.8039L358.929 68.8062H360.148V75.8039H360.954V76.8254H360.157ZM356.86 75.8129H359.073V70.9028L356.86 75.8129Z" fill="#002E47"/>
<path d="M362.945 72.9009C363.259 72.3543 363.76 72.0676 364.441 72.0676C365.731 72.0676 366.305 73.0173 366.305 74.4509V76.4132C366.305 77.9453 365.57 78.9489 364.038 78.9489C362.506 78.9489 361.789 77.9453 361.789 76.4132V75.7412H362.837V76.4849C362.837 77.3898 363.214 77.9364 364.011 77.9364C364.809 77.9364 365.185 77.3898 365.185 76.4849V74.5316C365.185 73.6266 364.809 73.0801 364.011 73.0801C363.393 73.0801 362.981 73.4205 362.882 74.1553V74.3882H361.834L362.103 68.8062H366.063V69.8097H363.106L362.945 72.9009Z" fill="#002E47"/>
<path d="M370.184 70.3742V73.546C370.184 74.5227 369.727 75.1678 368.75 75.1678C367.773 75.1678 367.316 74.5227 367.316 73.546V70.3742C367.316 69.4155 367.773 68.7524 368.75 68.7524C369.727 68.7524 370.184 69.4155 370.184 70.3742ZM368.033 70.3294V73.5998C368.033 74.1464 368.23 74.5048 368.75 74.5048C369.252 74.5048 369.467 74.1464 369.467 73.5998V70.3294C369.467 69.7828 369.252 69.4155 368.75 69.4155C368.239 69.4155 368.033 69.7828 368.033 70.3294ZM373.499 68.8062L369.538 78.8504H368.866L372.827 68.8062H373.499ZM375.121 74.1195V77.2734C375.121 78.25 374.673 78.8952 373.687 78.8952C372.71 78.8952 372.253 78.25 372.253 77.2734V74.1195C372.253 73.1608 372.71 72.5156 373.687 72.5156C374.682 72.5067 375.121 73.1518 375.121 74.1195ZM372.97 74.0747V77.3272C372.97 77.8737 373.185 78.2411 373.687 78.2411C374.189 78.2411 374.404 77.8648 374.404 77.3272V74.0747C374.404 73.5281 374.189 73.1697 373.687 73.1697C373.185 73.1697 372.97 73.5281 372.97 74.0747Z" fill="#002E47"/>
<path d="M360.603 114.932C360.603 117.961 357.207 119.054 357.189 121.357V121.518H360.486V122.539H356.078V121.679C356.078 118.436 359.474 117.808 359.474 114.977C359.474 113.947 359.133 113.4 358.3 113.4C357.485 113.4 357.126 113.991 357.126 114.878V115.766H356.078V114.95C356.078 113.418 356.786 112.397 358.327 112.397C359.904 112.388 360.603 113.4 360.603 114.932Z" fill="#002E47"/>
<path d="M361.551 114.914C361.551 113.382 362.312 112.388 363.845 112.388C365.395 112.388 366.156 113.373 366.156 114.914V120.093C366.156 121.625 365.395 122.629 363.845 122.629C362.312 122.629 361.551 121.625 361.551 120.093V114.914ZM362.653 120.165C362.653 121.07 363.038 121.616 363.845 121.616C364.66 121.616 365.036 121.07 365.036 120.165V114.861C365.036 113.947 364.66 113.4 363.845 113.4C363.038 113.4 362.653 113.947 362.653 114.861V120.165Z" fill="#002E47"/>
<path d="M370.027 114.054V117.226C370.027 118.203 369.57 118.848 368.594 118.848C367.617 118.848 367.16 118.203 367.16 117.226V114.054C367.16 113.096 367.617 112.433 368.594 112.433C369.57 112.433 370.027 113.096 370.027 114.054ZM367.877 114.01V117.28C367.877 117.827 368.074 118.185 368.594 118.185C369.096 118.185 369.311 117.827 369.311 117.28V114.01C369.311 113.463 369.096 113.096 368.594 113.096C368.074 113.096 367.877 113.472 367.877 114.01ZM373.343 112.495L369.382 122.539H368.71L372.671 112.495H373.343ZM374.964 117.8V120.954C374.964 121.93 374.516 122.575 373.531 122.575C372.554 122.575 372.097 121.93 372.097 120.954V117.8C372.097 116.841 372.554 116.196 373.531 116.196C374.516 116.196 374.964 116.841 374.964 117.8ZM372.805 117.755V121.007C372.805 121.554 373.02 121.921 373.522 121.921C374.024 121.921 374.239 121.545 374.239 121.007V117.755C374.239 117.208 374.024 116.85 373.522 116.85C373.029 116.85 372.805 117.217 372.805 117.755Z" fill="#002E47"/>
<path d="M199.996 155.826H193.5V162.322H199.996V155.826Z" fill="#002E47"/>
<path d="M204.047 159.078H230.425" stroke="#002E47" stroke-miterlimit="10" stroke-linejoin="round"/>
<path d="M199.996 167.599H193.5V174.095H199.996V167.599Z" fill="#39B4EF"/>
<path d="M204.047 170.843H230.425" stroke="#002E47" stroke-miterlimit="10" stroke-linejoin="round"/>
<path d="M199.996 179.364H193.5V185.86H199.996V179.364Z" fill="#B3C7EB"/>
<path d="M204.047 182.607H230.425" stroke="#002E47" stroke-miterlimit="10" stroke-linejoin="round"/>
<path d="M166.262 190.133C174.568 186.621 180.392 178.405 180.392 168.818C180.392 163.298 178.465 158.236 175.24 154.267" stroke="#39B4EF" stroke-width="7" stroke-miterlimit="10" stroke-linejoin="round"/>
<path d="M137.895 181.469C142.025 187.777 149.157 191.952 157.266 191.952C160.456 191.952 163.502 191.307 166.271 190.134" stroke="#B3C7EB" stroke-width="7" stroke-miterlimit="10" stroke-linejoin="round"/>
<path d="M175.24 154.267C171.002 149.034 164.524 145.692 157.266 145.692C144.489 145.692 134.141 156.05 134.141 168.818C134.141 173.486 135.52 177.831 137.904 181.469" stroke="#002E47" stroke-width="7" stroke-miterlimit="10" stroke-linejoin="round"/>
<path d="M147.48 166.3H167.73" stroke="#002E47" stroke-miterlimit="10" stroke-linejoin="round"/>
<path d="M147.48 172.276H167.73" stroke="#002E47" stroke-miterlimit="10" stroke-linejoin="round"/>
<path d="M350.004 164.302H376.624" stroke="#002E47" stroke-miterlimit="10" stroke-linecap="round" stroke-linejoin="round"/>
<path d="M350.004 167.357H376.624" stroke="#002E47" stroke-miterlimit="10" stroke-linecap="round" stroke-linejoin="round"/>
<path d="M374.474 150.047C372.61 147.484 370.325 145.818 367.315 144.841C364.304 143.864 361.473 143.864 358.462 144.841C355.452 145.818 353.158 147.484 351.303 150.047C349.439 152.609 348.57 155.297 348.57 158.469H362.888H377.215C377.206 155.306 376.337 152.609 374.474 150.047Z" fill="#39B4EF"/>
<path d="M362.887 158.469L374.472 150.046C376.336 152.609 377.205 155.297 377.205 158.469H362.887Z" stroke="white" stroke-width="0.5" stroke-miterlimit="10" stroke-linecap="round" stroke-linejoin="round"/>
<path d="M362.887 158.469L367.313 144.85C370.324 145.826 372.617 147.493 374.472 150.055L362.887 158.469Z" stroke="white" stroke-width="0.5" stroke-miterlimit="10" stroke-linecap="round" stroke-linejoin="round"/>
<path d="M362.887 158.469L358.461 144.85C361.471 143.873 364.303 143.873 367.313 144.85L362.887 158.469Z" stroke="white" stroke-width="0.5" stroke-miterlimit="10" stroke-linecap="round" stroke-linejoin="round"/>
<path d="M362.89 158.469L351.305 150.047C353.168 147.484 355.453 145.817 358.464 144.841L362.89 158.469Z" stroke="white" stroke-width="0.5" stroke-miterlimit="10" stroke-linecap="round" stroke-linejoin="round"/>
<path d="M362.888 158.469H348.57C348.57 155.306 349.448 152.609 351.303 150.046L362.888 158.469Z" stroke="white" stroke-width="0.5" stroke-miterlimit="10" stroke-linecap="round" stroke-linejoin="round"/>
<path d="M364.619 158.469C364.619 157.51 363.839 156.74 362.889 156.74C361.931 156.74 361.16 157.519 361.16 158.469C361.16 159.428 361.94 160.198 362.889 160.198C363.848 160.198 364.619 159.428 364.619 158.469Z" fill="#002E47"/>
<path d="M362.891 158.469L368.777 149.895" stroke="#002E47" stroke-miterlimit="10" stroke-linecap="round" stroke-linejoin="round"/>
<path d="M350.004 192.974H376.624" stroke="#002E47" stroke-miterlimit="10" stroke-linecap="round" stroke-linejoin="round"/>
<path d="M350.004 196.029H376.624" stroke="#002E47" stroke-miterlimit="10" stroke-linecap="round" stroke-linejoin="round"/>
<path d="M374.474 178.728C372.61 176.165 370.325 174.499 367.315 173.522C364.304 172.545 361.473 172.545 358.462 173.522C355.452 174.499 353.158 176.165 351.303 178.728C349.439 181.29 348.57 183.978 348.57 187.15H362.888H377.215C377.206 183.978 376.337 181.281 374.474 178.728Z" fill="#39B4EF"/>
<path d="M362.887 187.141L374.472 178.719C376.336 181.281 377.205 183.969 377.205 187.141H362.887Z" stroke="white" stroke-width="0.5" stroke-miterlimit="10" stroke-linecap="round" stroke-linejoin="round"/>
<path d="M362.887 187.141L367.313 173.522C370.324 174.499 372.617 176.165 374.472 178.728L362.887 187.141Z" stroke="white" stroke-width="0.5" stroke-miterlimit="10" stroke-linecap="round" stroke-linejoin="round"/>
<path d="M362.887 187.141L358.461 173.522C361.471 172.545 364.303 172.545 367.313 173.522L362.887 187.141Z" stroke="white" stroke-width="0.5" stroke-miterlimit="10" stroke-linecap="round" stroke-linejoin="round"/>
<path d="M362.89 187.141L351.305 178.719C353.168 176.156 355.453 174.49 358.464 173.513L362.89 187.141Z" stroke="white" stroke-width="0.5" stroke-miterlimit="10" stroke-linecap="round" stroke-linejoin="round"/>
<path d="M362.888 187.141H348.57C348.57 183.978 349.448 181.281 351.303 178.719L362.888 187.141Z" stroke="white" stroke-width="0.5" stroke-miterlimit="10" stroke-linecap="round" stroke-linejoin="round"/>
<path d="M364.619 187.141C364.619 186.183 363.839 185.412 362.889 185.412C361.931 185.412 361.16 186.192 361.16 187.141C361.16 188.1 361.94 188.871 362.889 188.871C363.848 188.88 364.619 188.1 364.619 187.141Z" fill="#002E47"/>
<path d="M362.89 187.141L357.129 178.997" stroke="#002E47" stroke-miterlimit="10" stroke-linecap="round" stroke-linejoin="round"/>
<path d="M375.774 221.646H349.145" stroke="#002E47" stroke-miterlimit="10" stroke-linecap="round" stroke-linejoin="round"/>
<path d="M375.774 224.701H349.145" stroke="#002E47" stroke-miterlimit="10" stroke-linecap="round" stroke-linejoin="round"/>
<path d="M351.304 207.4C353.168 204.837 355.453 203.171 358.463 202.194C361.474 201.217 364.305 201.217 367.316 202.194C370.326 203.171 372.62 204.837 374.475 207.4C376.339 209.962 377.208 212.65 377.208 215.822H362.881H348.562C348.562 212.65 349.441 209.962 351.304 207.4Z" fill="#39B4EF"/>
<path d="M362.888 215.813L351.303 207.391C349.439 209.953 348.57 212.641 348.57 215.813H362.888Z" stroke="white" stroke-width="0.5" stroke-miterlimit="10" stroke-linecap="round" stroke-linejoin="round"/>
<path d="M362.89 215.813L358.464 202.194C355.453 203.17 353.159 204.837 351.305 207.4L362.89 215.813Z" stroke="white" stroke-width="0.5" stroke-miterlimit="10" stroke-linecap="round" stroke-linejoin="round"/>
<path d="M362.887 215.813L367.313 202.194C364.303 201.217 361.471 201.217 358.461 202.194L362.887 215.813Z" stroke="white" stroke-width="0.5" stroke-miterlimit="10" stroke-linecap="round" stroke-linejoin="round"/>
<path d="M362.887 215.813L374.472 207.391C372.608 204.828 370.324 203.162 367.313 202.185L362.887 215.813Z" stroke="white" stroke-width="0.5" stroke-miterlimit="10" stroke-linecap="round" stroke-linejoin="round"/>
<path d="M362.887 215.813H377.205C377.205 212.65 376.327 209.953 374.472 207.391L362.887 215.813Z" stroke="white" stroke-width="0.5" stroke-miterlimit="10" stroke-linecap="round" stroke-linejoin="round"/>
<path d="M361.148 215.813C361.148 214.855 361.928 214.084 362.878 214.084C363.836 214.084 364.607 214.864 364.607 215.813C364.607 216.772 363.827 217.543 362.878 217.543C361.928 217.552 361.148 216.772 361.148 215.813Z" fill="#002E47"/>
<path d="M362.889 215.813L352.352 211.584" stroke="#002E47" stroke-miterlimit="10" stroke-linecap="round" stroke-linejoin="round"/>
<path d="M350.004 250.318H376.624" stroke="#002E47" stroke-miterlimit="10" stroke-linecap="round" stroke-linejoin="round"/>
<path d="M350.004 253.373H376.624" stroke="#002E47" stroke-miterlimit="10" stroke-linecap="round" stroke-linejoin="round"/>
<path d="M374.474 236.072C372.61 233.509 370.325 231.842 367.315 230.866C364.304 229.889 361.473 229.889 358.462 230.866C355.452 231.842 353.158 233.509 351.303 236.072C349.439 238.634 348.57 241.322 348.57 244.494H362.888H377.215C377.206 241.331 376.337 238.634 374.474 236.072Z" fill="#39B4EF"/>
<path d="M362.887 244.494L374.472 236.071C376.336 238.634 377.205 241.322 377.205 244.494H362.887Z" stroke="white" stroke-width="0.5" stroke-miterlimit="10" stroke-linecap="round" stroke-linejoin="round"/>
<path d="M362.887 244.494L367.313 230.875C370.324 231.851 372.617 233.518 374.472 236.08L362.887 244.494Z" stroke="white" stroke-width="0.5" stroke-miterlimit="10" stroke-linecap="round" stroke-linejoin="round"/>
<path d="M362.887 244.494L358.461 230.875C361.471 229.898 364.303 229.898 367.313 230.875L362.887 244.494Z" stroke="white" stroke-width="0.5" stroke-miterlimit="10" stroke-linecap="round" stroke-linejoin="round"/>
<path d="M362.89 244.494L351.305 236.071C353.168 233.509 355.453 231.842 358.464 230.866L362.89 244.494Z" stroke="white" stroke-width="0.5" stroke-miterlimit="10" stroke-linecap="round" stroke-linejoin="round"/>
<path d="M362.888 244.494H348.57C348.57 241.331 349.448 238.634 351.303 236.071L362.888 244.494Z" stroke="white" stroke-width="0.5" stroke-miterlimit="10" stroke-linecap="round" stroke-linejoin="round"/>
<path d="M364.619 244.494C364.619 243.535 363.839 242.765 362.889 242.765C361.931 242.765 361.16 243.544 361.16 244.494C361.16 245.453 361.94 246.223 362.889 246.223C363.848 246.223 364.619 245.453 364.619 244.494Z" fill="#002E47"/>
<path d="M362.888 244.494L349.852 244.467" stroke="#002E47" stroke-miterlimit="10" stroke-linecap="round" stroke-linejoin="round"/>
<path d="M376.112 207.05C376.112 207.05 373.971 209.577 373.388 211.136C372.806 212.695 372.412 214.837 371.632 216.001C370.853 217.166 368.129 216.781 368.129 218.528C368.129 220.275 369.294 222.229 369.294 222.229C369.294 222.229 369.876 227.873 370.656 229.235C371.435 230.597 379.607 229.235 379.607 229.235C379.607 229.235 382.725 224.567 382.725 219.693C382.734 214.837 379.221 207.436 376.112 207.05Z" fill="white" stroke="#002E47" stroke-miterlimit="10"/>
<path d="M374.552 215.966C374.471 216.665 374.193 217.202 373.925 217.166C373.656 217.139 373.503 216.548 373.584 215.858C373.665 215.159 373.942 214.622 374.211 214.657C374.471 214.684 374.623 215.267 374.552 215.966Z" fill="#002E47"/>
<path d="M374.168 212.498C374.168 212.498 376.309 211.916 376.309 214.639" stroke="#002E47" stroke-miterlimit="10"/>
<path d="M394.41 340.984L393.631 357.139C393.631 357.139 398.89 366.682 399.079 375.633C399.276 384.584 403.361 405.613 403.361 405.613L404.141 417.682L402.197 417.879L400.638 414.761C400.638 414.761 399.858 418.067 399.276 418.067C398.693 418.067 394.016 417.682 393.828 416.311C393.631 414.949 393.246 414.17 394.41 413.973C395.575 413.775 398.89 405.989 398.89 405.989C398.89 405.989 390.71 387.102 389.16 383.41C387.601 379.71 386.042 373.679 386.042 373.679C386.042 373.679 384.877 367.255 383.515 360.634C382.153 354.012 380.988 341.943 380.988 341.943L394.41 340.984Z" fill="white" stroke="#002E47" stroke-miterlimit="10"/>
<path d="M398.889 406.007C397.912 408.928 396.362 413.408 396.362 413.408L394.418 413.991C393.253 414.188 393.638 414.967 393.836 416.329C394.033 417.691 398.701 418.085 399.283 418.085C399.866 418.085 400.645 414.779 400.645 414.779L402.204 417.897L404.149 417.7L403.369 405.631C403.369 405.613 399.866 403.086 398.889 406.007Z" fill="#002E47" stroke="#002E47" stroke-miterlimit="10"/>
<path d="M368.713 339.622C368.713 339.622 368.911 344.882 370.273 347.409C371.634 349.935 372.996 358.698 372.996 358.698C372.996 358.698 372.799 372.523 374.941 379.333C377.082 386.143 380.003 408.337 380.003 408.337C380.003 408.337 374.161 415.343 373.382 416.123C372.602 416.902 368.122 418.847 369.099 419.626C370.075 420.406 375.523 420.988 377.279 420.791C379.035 420.594 384.68 416.508 385.263 416.123C385.845 415.738 386.042 421.185 386.042 421.185H388.381L388.963 413.005C388.963 413.005 389.348 410.084 388.766 408.722C388.184 407.36 386.822 405.416 386.822 405.416L387.798 381.08C387.798 381.08 389.357 372.9 388.184 367.452C387.019 362.004 385.46 353.242 385.46 353.242L386.239 341.558L386.822 333.969C386.822 333.969 384.483 332.212 378.641 332.212C372.799 332.212 367.352 333.189 367.352 333.189L368.713 339.622Z" fill="white" stroke="#002E47" stroke-miterlimit="10"/>
<path d="M388.964 413.014C388.964 413.014 389.35 410.093 388.767 408.731C388.4 407.88 387.737 406.813 387.289 406.124C386.429 406.67 384.654 407.889 383.508 409.322C381.949 411.267 378.642 415.361 376.886 416.329C375.605 417.037 373.302 417.028 372.137 416.965C370.596 417.87 368.383 419.071 369.1 419.644C370.077 420.424 375.524 421.006 377.28 420.809C379.037 420.612 384.681 416.526 385.264 416.141C385.846 415.756 386.043 421.203 386.043 421.203H388.382L388.964 413.014Z" fill="#002E47" stroke="#002E47" stroke-miterlimit="10"/>
<path d="M364.239 297.77C364.239 297.77 363.263 312.957 363.46 320.744C363.657 328.53 364.625 341.181 364.625 341.181C364.625 341.181 368.128 342.346 370.269 342.937C372.411 343.52 373.388 343.52 373.388 343.52L375.914 339.04L377.67 343.905C377.67 343.905 381.756 344.29 387.016 344.29C392.275 344.29 397.141 341.952 397.526 341.369C397.911 340.787 398.888 339.81 398.888 339.81L397.132 321.317C397.132 321.317 400.635 312.169 400.832 307.492C401.029 302.824 398.691 297.17 398.691 297.17C398.691 297.17 389.542 300.091 382.141 298.729C374.741 297.367 364.428 295.028 364.428 295.028L364.239 297.77Z" fill="#39B4EF" stroke="#002E47" stroke-miterlimit="10"/>
<path d="M396.946 265.066C396.946 265.066 400.646 281.221 400.449 283.56C400.252 285.898 395.969 293.102 395.969 293.102C395.969 293.102 391.301 284.536 390.521 279.671C389.742 274.806 390.521 271.105 391.498 269.349C392.475 267.593 395.198 263.122 395.198 263.122L396.946 265.066Z" fill="#39B4EF" stroke="#002E47" stroke-miterlimit="10"/>
<path d="M372.412 247.738C372.412 247.738 365.208 260.201 365.208 263.507C365.208 266.814 365.405 279.859 364.232 283.757C363.067 287.654 361.508 298.747 361.508 298.747C361.508 298.747 364.232 302.447 374.159 303.809C384.087 305.171 396.156 300.888 397.33 300.503C398.495 300.118 400.636 298.944 400.636 298.944L401.801 298.559C401.801 298.559 398.1 291.937 396.541 288.828C394.982 285.71 391.873 280.648 392.644 276.365C393.423 272.082 397.903 265.272 399.848 259.036C401.792 252.8 401.012 244.826 398.091 240.928C395.171 237.03 383.684 237.03 378.621 239.951C373.577 242.872 372.412 247.738 372.412 247.738Z" fill="#39B4EF" stroke="#002E47" stroke-miterlimit="10"/>
<path d="M379.08 197.938C375.98 199.282 373.543 201.71 374.367 205.106C375.729 210.751 379.815 214.451 379.815 219.316C379.815 224.182 377.476 233.724 374.17 237.425C370.864 241.125 368.131 252.997 371.052 253.391C373.973 253.777 372.996 248.911 377.091 245.211C381.177 241.51 386.633 244.431 387.995 249.879C389.357 255.327 387.019 260.201 389.94 263.704C392.861 267.208 399.67 265.846 402.206 261.563C404.733 257.28 402.591 253.579 404.15 251.832C405.709 250.076 409.213 247.164 408.048 242.684C406.883 238.204 399.482 237.425 400.262 231.395C401.041 225.355 405.521 217.381 403.568 212.507C401.624 207.642 397.923 201.997 394.805 199.855C392.287 198.126 388.927 197.167 385.935 196.809C383.972 196.558 381.347 196.952 379.08 197.938Z" fill="#002E47" stroke="#002E47" stroke-miterlimit="10"/>
<path d="M366.185 304.777C366.185 304.777 362.485 312.366 362.288 313.54C362.09 314.705 361.902 323.271 361.902 323.271C361.902 323.271 362.879 326.192 363.461 326.577C364.044 326.962 364.823 326.38 364.823 325.018C364.823 323.656 364.823 323.074 364.823 323.074C364.823 323.074 365.988 320.547 366.965 318.594C367.941 316.649 367.547 311.784 367.547 311.784L370.665 306.525L366.185 304.777Z" fill="white" stroke="#002E47" stroke-miterlimit="10"/>
<path d="M364.625 307.304L369.49 310.619L371.435 306.525L366.184 304.777L364.625 307.304Z" fill="white" stroke="#002E47" stroke-miterlimit="10"/>
<path d="M387.404 252.406C387.404 252.406 384.483 243.643 379.035 244.037C373.587 244.423 372.225 256.689 372.225 261.751C372.225 266.814 373.005 285.89 373.005 285.89L365.219 304.777L370.864 308.281C370.864 308.281 383.909 288.81 384.295 287.843C384.68 286.866 385.854 261.366 385.854 261.366" fill="#39B4EF"/>
<path d="M387.404 252.406C387.404 252.406 384.483 243.643 379.035 244.037C373.587 244.423 372.225 256.689 372.225 261.751C372.225 266.814 373.005 285.89 373.005 285.89L365.219 304.777L370.864 308.281C370.864 308.281 383.909 288.81 384.295 287.843C384.68 286.866 385.854 261.366 385.854 261.366" stroke="#002E47" stroke-miterlimit="10"/>
<path d="M316.135 215.473C316.135 215.473 318.661 215.275 317.882 217.417C317.102 219.549 315.749 220.911 314.773 221.108C313.805 221.306 313.223 221.305 313.223 221.305L316.135 215.473Z" stroke="#002E47" stroke-miterlimit="10"/>
<path d="M295.167 214.505C295.167 214.505 292.837 214.89 293.223 216.637C293.608 218.385 294.97 221.297 295.749 221.494C296.529 221.691 297.694 220.526 297.694 220.526L295.167 214.505Z" fill="white" stroke="#002E47" stroke-miterlimit="10"/>
<path d="M262.313 267.512C262.313 267.512 265.037 260.703 266.399 259.332C267.761 257.97 269.902 253.104 269.902 253.104L271.847 259.332L262.896 269.259C262.896 269.268 262.116 269.456 262.313 267.512Z" fill="white" stroke="#002E47" stroke-miterlimit="10"/>
<path d="M264.589 240.301L269.427 259.995C269.714 261.151 270.906 261.823 272.043 261.464L283.826 257.773C284.865 257.45 285.466 256.375 285.206 255.318L280.475 236.108C280.197 234.988 279.059 234.316 277.939 234.611L266.049 237.819C264.974 238.115 264.329 239.217 264.589 240.301Z" fill="#002E47" stroke="#002E47" stroke-miterlimit="10"/>
<path d="M298.279 222.076L298.082 231.977L311.871 233.339L311.477 223.626L298.279 222.076Z" fill="white" stroke="#002E47" stroke-miterlimit="10"/>
<path d="M299.83 196.253C299.83 196.253 294.391 200.133 293.226 204.21C292.061 208.287 294.006 213.725 294.776 215.275C295.556 216.825 298.074 223.626 299.05 224.791C300.018 225.956 304.489 227.9 306.039 227.506C307.589 227.121 312.445 226.538 313.028 224.594C313.61 222.649 316.719 215.275 317.105 214.111C317.49 212.946 318.655 204.595 317.49 202.848C316.325 201.101 312.634 197.409 312.634 197.409C312.634 197.409 310.886 194.694 307.195 193.915C303.521 193.144 299.83 196.253 299.83 196.253Z" fill="#002E47" stroke="#002E47" stroke-miterlimit="10"/>
<path d="M292.454 233.921C292.454 233.921 294.784 229.844 300.223 229.844C305.661 229.844 310.903 230.041 312.256 230.427C313.618 230.812 316.135 235.668 316.135 235.668C316.135 235.668 302.158 234.701 298.278 234.701C294.399 234.701 290.707 235.283 290.707 235.283L292.454 233.921Z" fill="white" stroke="#002E47" stroke-miterlimit="10"/>
<path d="M321.574 223.438C321.574 223.438 318.86 220.329 318.277 219.164C317.695 217.999 318.08 216.449 318.662 216.055C319.245 215.669 320.213 215.472 320.213 215.472C320.213 215.472 320.795 210.034 320.598 209.263C320.401 208.484 321.18 208.295 322.148 208.484C323.116 208.681 323.51 213.143 323.51 213.143C323.51 213.143 324.872 213.528 326.037 214.693C327.201 215.858 327.398 218.384 327.398 219.155C327.398 219.925 327.398 222.264 327.398 222.264L327.784 224.979L322.345 226.341L321.574 223.438Z" fill="white" stroke="#002E47" stroke-miterlimit="10"/>
<path d="M323.126 239.933C323.126 239.933 321.961 226.153 321.961 225.373C321.961 224.594 323.511 223.241 325.07 223.241C326.629 223.241 328.179 224.791 328.179 224.791C328.179 224.791 333.806 241.295 334.971 242.845C336.136 244.395 338.465 250.802 338.465 252.746C338.465 254.69 331.476 252.549 329.532 250.802C327.588 249.054 323.708 241.869 323.708 241.869L323.126 239.933Z" fill="white" stroke="#002E47" stroke-miterlimit="10"/>
<path d="M283.528 293.209L281.772 312.482C281.772 312.482 280.016 357.453 280.016 360.571C280.016 363.689 280.598 386.071 281.378 391.913C282.157 397.755 281.96 408.265 281.96 408.265C281.96 408.265 279.622 409.43 279.622 410.603C279.622 411.768 279.622 412.745 279.622 412.745C279.622 412.745 276.701 414.501 275.724 415.469C274.748 416.445 273.583 418.587 274.945 419.751C276.307 420.916 286.037 424.814 287.408 424.814C288.77 424.814 292.273 424.231 293.053 422.87C293.832 421.508 293.25 415.28 293.25 415.28C293.25 415.28 295.006 412.557 295.006 411.58C295.006 410.603 294.809 409.241 294.809 407.682C294.809 406.123 295.588 388.024 295.588 388.024C295.588 388.024 298.312 350.061 298.707 349.478C299.092 348.896 300.848 322.419 300.848 322.419L304.154 322.804L308.634 355.311C308.634 355.311 314.673 385.677 314.861 386.653C315.059 387.63 317.98 403.785 317.98 403.785C317.98 403.785 317.98 407.288 317.98 408.847C317.98 410.406 319.924 413.515 319.924 413.515C319.924 413.515 319.539 418.381 320.506 420.137C321.483 421.893 325.372 422.081 328.292 421.113C331.213 420.137 330.631 416.248 330.631 414.304C330.631 412.359 330.434 410.406 330.434 410.406C330.434 410.406 330.237 407.485 330.434 405.541C330.631 403.597 328.875 397.952 328.875 396.975C328.875 395.998 329.457 372.443 329.072 367.389C328.687 362.327 325.372 346.36 325.372 346.36C325.372 346.36 323.427 316.38 323.427 315.6C323.427 314.821 323.499 294.105 323.499 294.105C323.499 294.105 315.641 296.13 302.398 294.768C289.164 293.407 283.322 292.242 283.322 292.242L283.528 293.209Z" fill="#002E47" stroke="#002E47" stroke-miterlimit="10"/>
<path d="M290.707 235.274C290.707 235.274 276.729 240.901 277.311 241.681C277.894 242.46 270.708 256.044 270.126 256.823C269.543 257.603 262.554 266.527 261.775 268.274C260.995 270.021 259.445 272.351 261.972 275.066C264.499 277.78 265.663 278.757 269.158 278.175C272.652 277.592 281.585 267.494 281.585 267.494C281.585 267.494 281.971 280.11 282.168 283.416C282.365 286.714 282.365 287.69 282.365 289.437C282.365 291.185 281.397 292.152 283.727 294.294C286.056 296.426 295.957 299.15 302.946 298.756C309.935 298.371 315.562 298.371 318.286 297.591C321.009 296.812 323.142 296.426 323.527 294.097C323.912 291.767 324.11 285.361 324.11 283.416C324.11 281.472 325.274 261.285 325.274 261.285C325.274 261.285 331.484 261.868 334.396 261.285C337.308 260.703 339.252 255.264 338.472 252.746C337.693 250.22 334.593 248.284 333.034 246.725C331.484 245.175 330.507 243.034 328.375 240.704C326.242 238.374 325.265 238.374 323.518 237.989C321.771 237.604 316.144 235.66 316.144 235.66C316.144 235.66 302.158 233.921 290.707 235.274Z" fill="white" stroke="#002E47" stroke-miterlimit="10"/>
<path d="M303.547 292.484C306.522 290.064 310.294 286.848 312.166 284.662" stroke="#002E47" stroke-miterlimit="10"/>
<path d="M299.352 295.808C299.352 295.808 299.952 295.351 300.902 294.599" stroke="#002E47" stroke-miterlimit="10"/>
<path d="M308.824 293.022L313.277 289.124" stroke="#002E47" stroke-miterlimit="10"/>
<path d="M281.575 267.503L278.277 248.087" stroke="#002E47" stroke-miterlimit="10"/>
<path d="M275.172 250.999L280.028 257.8" stroke="#002E47" stroke-miterlimit="10"/>
<path d="M292.652 237.604C292.652 237.604 299.838 245.175 303.333 255.273" stroke="#002E47" stroke-miterlimit="10"/>
<path d="M300.023 243.822C300.023 243.822 304.297 251.393 305.462 254.108" stroke="#002E47" stroke-miterlimit="10"/>
<path d="M326.816 240.328C326.816 240.328 328.178 246.537 328.366 247.316" stroke="#002E47" stroke-miterlimit="10"/>
<path d="M328.76 252.746C328.375 254.69 325.266 261.285 325.266 261.285C325.266 261.285 330.122 255.658 330.507 255.076" stroke="#002E47" stroke-miterlimit="10"/>
</svg>
