<svg width="636" height="405" viewBox="0 0 636 405" fill="none" xmlns="http://www.w3.org/2000/svg">
<g clip-path="url(#clip0_275_23995)">
<path d="M540.105 44.871C530.248 47.6515 520.233 49.904 510.086 51.4175C464.041 58.2895 357.906 73.0016 306.462 70.8898C239.684 68.1533 28.055 -5.04611 12.0715 37.0398C-3.92072 79.1257 0.783907 387.48 31.8204 393.886C62.8569 400.291 172.907 349.97 237.806 348.139C302.705 346.309 457.897 395.716 521.857 398.461C585.817 401.206 591.461 391.14 606.505 337.158C621.558 283.176 637.542 105.664 634.724 64.4929C632.328 29.4902 564.014 38.1221 540.105 44.871Z" fill="#39B4EF"/>
<path opacity="0.7" d="M540.105 44.871C530.248 47.6515 520.233 49.904 510.086 51.4175C464.041 58.2895 357.906 73.0016 306.462 70.8898C239.684 68.1533 28.055 -5.04611 12.0715 37.0398C-3.92072 79.1257 0.783907 387.48 31.8204 393.886C62.8569 400.291 172.907 349.97 237.806 348.139C302.705 346.309 457.897 395.716 521.857 398.461C585.817 401.206 591.461 391.14 606.505 337.158C621.558 283.176 637.542 105.664 634.724 64.4929C632.328 29.4902 564.014 38.1221 540.105 44.871Z" fill="white"/>
<path opacity="0.15" d="M11.4403 186.263C22.2627 188.85 35.9378 186.897 40.1333 186.193C40.107 192.026 40.2562 198.159 40.8267 204.539C41.6167 213.426 42.8894 222.726 45.4436 232.141C45.4699 232.247 45.5138 232.353 45.5489 232.458C43.9514 229.942 39.238 223.043 38.8167 222.55C32.8745 215.661 17.3475 205.859 7.98208 209.845C1.23234 212.713 -0.742548 220.817 2.64549 226.994C6.10374 233.303 14.3895 236.427 21.1041 237.403C28.6789 238.512 44.6185 233.875 45.8824 233.505C48.4015 242.454 51.7018 251.42 55.5462 260.316C57.7406 265.402 60.1017 270.461 62.5418 275.503C61.0847 273.365 59.7681 271.473 59.5575 271.227C53.6152 264.337 38.0882 254.535 28.7228 258.521C21.9731 261.389 19.9982 269.493 23.3862 275.67C26.8445 281.979 35.1303 285.103 41.8449 286.08C48.6561 287.074 62.3311 283.396 65.9298 282.375C66.8865 284.302 67.8169 286.229 68.7736 288.147C73.3905 297.36 78.0337 306.537 82.317 315.671C83.8267 318.891 85.196 322.121 86.5828 325.341C85.2925 323.449 84.1866 321.857 83.9935 321.637C78.0512 314.747 62.5242 304.945 53.1588 308.931C46.4091 311.799 44.4342 319.903 47.8222 326.08C51.2805 332.389 59.5662 335.513 66.2809 336.489C72.7849 337.44 85.4329 334.158 89.7163 332.97C91.0329 336.313 92.3582 339.657 93.4817 342.957C94.2015 345.227 95.0441 347.365 95.6409 349.679C96.2729 351.967 96.9049 354.228 97.528 356.463C98.5725 360.819 99.6697 365.315 100.583 369.591C101.241 372.557 101.811 375.408 102.391 378.267C100.925 375.047 97.923 368.8 97.6158 368.307C92.7795 360.599 78.9202 348.544 69.0545 351.061C61.9537 352.873 58.7763 360.581 61.19 367.198C63.6565 373.965 71.3717 378.303 77.8581 380.291C85.0028 382.482 100.82 380.476 102.794 380.212C103.742 384.955 104.62 389.565 105.375 393.938C106.007 397.529 106.577 400.978 107.104 404.277H113.468C112.818 400.643 112.107 396.825 111.308 392.83C110.369 388.017 109.263 382.887 108.078 377.634C109.263 377.159 116.013 374.422 121.99 371.079C127.195 376.736 140.546 383.353 142.275 384.189C140.458 388.668 138.65 393.006 136.877 397.071C135.797 399.57 134.735 401.954 133.691 404.286H140.423C141.09 402.702 141.757 401.083 142.433 399.42C144.293 394.88 146.198 389.996 148.103 384.955C150.016 385.359 165.675 388.545 172.978 386.89C179.596 385.395 187.609 381.637 190.576 375.073C193.481 368.65 190.883 360.731 183.932 358.39C174.286 355.143 159.566 366.125 154.168 373.454C153.852 373.885 150.92 378.962 149.121 382.201C149.893 380.142 150.657 378.144 151.421 376.015C152.957 371.809 154.37 367.568 155.906 363.01C156.573 360.784 157.24 358.531 157.916 356.261C158.636 354.026 159.118 351.562 159.733 349.195C161.041 343.678 162.103 338.012 163.051 332.292C166.728 333.639 179.859 338.214 186.653 337.73C193.42 337.255 201.916 334.756 205.831 328.729C209.667 322.824 208.298 314.597 201.785 311.227C192.744 306.555 176.532 315.169 170.09 321.593C169.686 321.997 165.587 327.127 163.384 329.987C163.928 326.538 164.481 323.106 164.911 319.604C166.167 309.494 167.114 299.217 168.115 288.966C168.422 285.824 168.756 282.701 169.089 279.577C170.388 280.07 185.88 285.851 193.499 285.314C200.266 284.839 208.763 282.34 212.677 276.313C216.513 270.408 215.144 262.181 208.631 258.811C199.59 254.139 183.379 262.753 176.936 269.177C176.453 269.661 170.555 277.052 169.151 279.005C169.879 272.116 170.66 265.252 171.714 258.521C173.153 249.229 175.075 240.201 177.577 231.587C178.183 231.816 194.315 237.922 202.118 237.377C208.886 236.902 217.382 234.403 221.297 228.375C225.132 222.471 223.763 214.244 217.25 210.874C208.21 206.202 191.998 214.816 185.556 221.239C185.134 221.662 180.64 227.284 178.56 230.012C178.279 229.862 178.332 229.889 178.042 229.748C180.842 220.553 184.704 212 188.715 204.169C191.033 199.629 193.499 195.423 195.983 191.384C198.871 192.827 212.151 199.294 219.225 199.576C226.01 199.849 234.717 198.3 239.273 192.739C243.731 187.293 243.275 178.96 237.166 174.903C228.687 169.263 211.633 176.047 204.532 181.723C204.269 181.934 202.478 183.703 200.556 185.647C200.574 185.225 200.582 184.732 200.591 184.169C200.872 183.729 201.162 183.271 201.442 182.849C205.699 176.426 209.992 170.803 213.836 165.858C216.048 163.06 218.093 160.579 220.042 158.273C223.614 158.212 238.009 157.772 244.311 154.806C250.455 151.912 257.477 146.518 258.96 139.478C260.417 132.58 256.178 125.4 248.893 124.617C238.772 123.526 226.756 137.419 223.061 145.743C222.745 146.465 219.032 158.282 219.225 158.282C219.225 158.282 219.401 158.282 219.445 158.282C217.531 160.464 215.504 162.822 213.336 165.444C209.403 170.293 204.997 175.801 200.617 182.119C200.538 172.308 198.8 151.938 185.889 150.706C168.844 149.078 163.972 168.612 174.522 179.189C181.922 186.606 191.708 187.618 196.896 187.565C193.631 192.458 190.339 197.711 187.276 203.412C183.045 211.252 178.99 219.726 175.944 228.991C175.909 229.097 175.883 229.211 175.857 229.317C175.909 226.325 175.778 217.966 175.69 217.333C174.522 208.296 166.965 191.534 156.968 189.677C149.762 188.34 143.653 194.006 143.082 201.028C142.494 208.208 147.69 215.388 152.746 219.919C158.451 225.032 174.294 229.977 175.558 230.373C172.732 239.225 170.555 248.534 168.861 258.081C167.887 263.536 167.079 269.062 166.342 274.614C166.307 272.027 166.254 269.722 166.21 269.397C165.043 260.36 157.486 243.598 147.488 241.741C140.282 240.404 134.173 246.07 133.603 253.092C133.015 260.272 138.211 267.452 143.267 271.984C148.401 276.585 161.822 281.073 165.394 282.217C165.131 284.346 164.85 286.476 164.595 288.614C163.375 298.847 162.199 309.072 160.742 319.058C160.233 322.578 159.601 326.027 158.978 329.477C158.943 327.18 158.89 325.244 158.855 324.954C157.688 315.917 150.139 299.155 140.124 297.298C132.918 295.961 126.809 301.628 126.239 308.649C125.651 315.82 130.847 323.009 135.902 327.541C140.8 331.931 153.159 336.19 157.389 337.563C156.643 341.083 155.906 344.602 155.028 347.972C154.379 350.26 153.905 352.513 153.123 354.774C152.395 357.035 151.675 359.261 150.964 361.479C149.437 365.693 147.883 370.049 146.286 374.114C145.198 376.956 144.109 379.64 143.021 382.35C143.574 378.848 144.504 371.976 144.522 371.395C144.662 365.342 142.52 355.504 138.255 348.597C138.281 347.708 138.228 346.811 138.088 345.931C136.973 338.971 130.452 333.797 123.368 335.689C113.538 338.311 107.297 355.619 106.832 364.708C106.806 365.245 107.157 371.096 107.438 374.792C106.946 372.645 106.49 370.559 105.954 368.36C104.927 364.004 103.769 359.684 102.54 355.029C101.873 352.803 101.188 350.559 100.504 348.289C99.8716 346.019 98.9149 343.713 98.1249 341.391C96.1763 336.058 93.9469 330.752 91.5858 325.455C95.3952 324.54 108.86 321.1 114.266 316.938C119.647 312.794 125.361 306.018 125.308 298.821C125.256 291.773 119.594 285.666 112.3 286.458C102.189 287.558 93.4027 303.713 91.5683 312.635C91.4542 313.19 90.8573 319.745 90.594 323.344C89.1457 320.167 87.7238 316.999 86.1527 313.832C81.6324 304.707 76.7697 295.609 71.9598 286.511C70.4852 283.721 69.0545 280.932 67.5975 278.143C68.9579 277.835 85.0555 274.086 91.1118 269.432C96.4923 265.287 102.206 258.512 102.154 251.315C102.101 244.266 96.4397 238.16 89.1457 238.952C79.0255 240.052 70.2482 256.207 68.4138 265.129C68.2733 265.798 67.4307 275.23 67.3254 277.633C64.1392 271.482 61.0233 265.331 58.197 259.137C54.2823 250.593 50.9118 241.996 48.2611 233.426C48.8931 233.285 65.7104 229.449 71.9159 224.68C77.2964 220.535 83.0104 213.76 82.9577 206.562C82.9051 199.514 77.2437 193.408 69.9498 194.209C59.8296 195.309 51.0523 211.464 49.2178 220.386C49.0949 220.975 48.4454 228.155 48.2084 231.578C47.8924 231.613 47.9451 231.605 47.6291 231.64C44.8994 222.418 43.416 213.153 42.4505 204.398C41.88 199.33 41.6255 194.455 41.4762 189.712C44.68 189.325 59.3117 187.372 65.368 183.694C71.1698 180.174 77.5948 174.068 78.3321 166.905C79.0518 159.892 74.0927 153.205 66.7636 153.187C56.5907 153.17 46.0931 168.26 43.2931 176.927C43.1439 177.402 42.117 182.356 41.4236 185.981C41.3885 183.835 41.3183 181.626 41.327 179.576C41.3446 171.859 41.8273 164.802 42.3101 158.546C42.6085 154.991 42.9596 151.788 43.3107 148.788C46.2599 146.755 58.0214 138.431 61.6465 132.474C65.1749 126.667 68.0714 118.282 65.4295 111.585C62.849 105.03 55.3619 101.387 48.8579 104.757C39.8173 109.438 37.4387 127.679 38.9396 136.663C39.0713 137.437 42.4856 149.351 42.6348 149.245C42.6348 149.245 42.7753 149.149 42.8104 149.122C42.4154 152 42.0204 155.088 41.6606 158.467C41.0374 164.723 40.3966 171.789 40.2211 179.532C40.186 180.948 40.1684 182.418 40.1421 183.879C36.2625 177.886 24.027 161.08 10.8084 164.653C-5.18386 168.973 -1.48862 183.175 11.4403 186.263Z" fill="black"/>
<path opacity="0.15" d="M602.504 224.213C593.569 226.343 582.273 224.741 578.806 224.152C578.832 228.965 578.709 234.033 578.235 239.304C577.586 246.642 576.532 254.324 574.417 262.102C574.391 262.19 574.355 262.278 574.329 262.366C575.655 260.281 579.543 254.588 579.885 254.183C584.792 248.499 597.615 240.395 605.357 243.686C610.93 246.062 612.563 252.749 609.763 257.852C606.902 263.061 600.064 265.639 594.517 266.449C588.259 267.364 575.102 263.536 574.048 263.228C571.968 270.62 569.238 278.028 566.061 285.376C564.253 289.582 562.295 293.752 560.285 297.914C561.488 296.155 562.576 294.58 562.752 294.377C567.658 288.684 580.482 280.589 588.224 283.88C593.797 286.256 595.43 292.943 592.63 298.046C589.768 303.255 582.931 305.834 577.384 306.643C571.757 307.461 560.47 304.426 557.494 303.581C556.704 305.174 555.932 306.766 555.142 308.35C551.333 315.961 547.488 323.537 543.96 331.078C542.713 333.735 541.581 336.401 540.44 339.068C541.511 337.501 542.424 336.19 542.582 336.006C547.488 330.313 560.312 322.217 568.053 325.508C573.627 327.884 575.26 334.571 572.46 339.675C569.598 344.884 562.761 347.462 557.213 348.271C551.842 349.055 541.397 346.344 537.859 345.359C536.771 348.122 535.683 350.885 534.752 353.612C534.164 355.487 533.462 357.255 532.971 359.165C532.444 361.048 531.926 362.922 531.408 364.77C530.548 368.368 529.635 372.082 528.88 375.61C528.336 378.065 527.871 380.414 527.388 382.773C528.599 380.115 531.075 374.95 531.338 374.545C535.332 368.175 546.777 358.223 554.923 360.3C560.786 361.796 563.41 368.157 561.418 373.63C559.381 379.218 553.009 382.799 547.646 384.444C541.748 386.257 528.678 384.603 527.046 384.383C526.265 388.298 525.536 392.108 524.913 395.725C524.395 398.69 523.921 401.541 523.491 404.26H518.242C518.778 401.259 519.366 398.109 520.024 394.801C520.805 390.824 521.718 386.591 522.692 382.253C521.709 381.866 516.136 379.605 511.203 376.833C506.902 381.505 495.878 386.97 494.456 387.665C495.957 391.36 497.449 394.942 498.915 398.303C499.81 400.362 500.688 402.333 501.548 404.26H495.992C495.448 402.949 494.895 401.611 494.333 400.247C492.797 396.499 491.226 392.46 489.655 388.307C488.075 388.641 475.137 391.272 469.116 389.909C463.647 388.668 457.029 385.571 454.58 380.15C452.184 374.845 454.326 368.307 460.066 366.371C468.036 363.687 480.193 372.759 484.643 378.813C484.906 379.174 487.329 383.362 488.812 386.037C488.18 384.33 487.539 382.685 486.916 380.925C485.643 377.449 484.476 373.947 483.212 370.181C482.659 368.342 482.106 366.485 481.553 364.602C480.956 362.755 480.561 360.722 480.052 358.769C478.973 354.211 478.095 349.538 477.314 344.805C474.277 345.913 463.437 349.697 457.819 349.301C452.228 348.905 445.215 346.846 441.976 341.866C438.808 336.982 439.94 330.198 445.32 327.409C452.79 323.546 466.175 330.664 471.494 335.97C471.828 336.305 475.216 340.537 477.033 342.904C476.585 340.062 476.129 337.22 475.769 334.325C474.733 325.975 473.943 317.483 473.127 309.019C472.872 306.423 472.591 303.845 472.328 301.258C471.249 301.663 458.46 306.441 452.167 305.992C446.576 305.596 439.563 303.537 436.324 298.557C433.155 293.673 434.287 286.889 439.668 284.1C447.137 280.237 460.523 287.355 465.842 292.661C466.246 293.057 471.108 299.164 472.275 300.783C471.679 295.09 471.029 289.423 470.16 283.871C468.975 276.198 467.387 268.737 465.315 261.627C464.815 261.821 451.491 266.863 445.048 266.405C439.457 266.009 432.444 263.95 429.205 258.97C426.037 254.086 427.169 247.302 432.549 244.513C440.019 240.65 453.404 247.769 458.723 253.074C459.074 253.426 462.787 258.072 464.499 260.325C464.736 260.202 464.692 260.228 464.929 260.105C462.62 252.511 459.426 245.446 456.117 238.978C454.203 235.23 452.167 231.754 450.113 228.419C447.725 229.616 436.763 234.948 430.917 235.186C425.317 235.406 418.12 234.139 414.354 229.537C410.668 225.032 411.045 218.16 416.092 214.807C423.096 210.144 437.184 215.749 443.047 220.439C443.267 220.615 444.741 222.075 446.33 223.677C446.321 223.325 446.304 222.92 446.304 222.454C446.067 222.093 445.838 221.715 445.601 221.363C442.082 216.057 438.544 211.411 435.367 207.328C433.541 205.023 431.847 202.964 430.241 201.063C427.292 201.01 415.399 200.65 410.202 198.203C405.129 195.819 399.327 191.358 398.099 185.542C396.896 179.84 400.398 173.918 406.411 173.267C414.767 172.369 424.694 183.843 427.748 190.715C428.012 191.314 431.075 201.072 430.917 201.072C430.917 201.072 430.776 201.072 430.741 201.072C432.321 202.876 433.998 204.82 435.788 206.985C439.036 210.988 442.67 215.538 446.295 220.755C446.365 212.651 447.796 195.828 458.46 194.807C472.539 193.461 476.559 209.598 467.843 218.336C461.725 224.469 453.65 225.296 449.367 225.252C452.07 229.29 454.782 233.637 457.31 238.345C460.804 244.821 464.157 251.816 466.667 259.471C466.693 259.559 466.711 259.647 466.746 259.735C466.702 257.272 466.816 250.364 466.877 249.836C467.843 242.375 474.084 228.525 482.343 226.994C488.294 225.894 493.341 230.566 493.815 236.374C494.298 242.304 490.014 248.235 485.836 251.974C481.123 256.198 468.036 260.281 466.992 260.606C469.326 267.918 471.126 275.609 472.521 283.493C473.32 287.998 473.996 292.565 474.602 297.149C474.637 295.011 474.68 293.11 474.707 292.837C475.672 285.376 481.913 271.535 490.172 270.004C496.123 268.904 501.17 273.576 501.644 279.384C502.127 285.314 497.844 291.245 493.666 294.984C489.426 298.785 478.341 302.49 475.391 303.431C475.611 305.191 475.848 306.951 476.05 308.711C477.059 317.167 478.025 325.605 479.227 333.859C479.648 336.762 480.175 339.613 480.684 342.464C480.71 340.563 480.754 338.971 480.789 338.724C481.755 331.263 487.996 317.422 496.255 315.891C502.206 314.791 507.253 319.463 507.727 325.271C508.21 331.192 503.926 337.132 499.74 340.871C495.693 344.497 485.494 348.016 481.992 349.151C482.606 352.055 483.212 354.967 483.941 357.748C484.476 359.64 484.862 361.496 485.512 363.371C486.109 365.236 486.705 367.084 487.293 368.905C488.557 372.381 489.839 375.98 491.155 379.341C492.051 381.69 492.955 383.908 493.85 386.143C493.394 383.256 492.621 377.581 492.613 377.097C492.498 372.099 494.271 363.978 497.791 358.267C497.774 357.528 497.809 356.789 497.932 356.059C498.853 350.313 504.242 346.036 510.088 347.603C518.207 349.767 523.359 364.057 523.746 371.571C523.772 372.011 523.482 376.851 523.245 379.895C523.658 378.127 524.026 376.402 524.474 374.581C525.326 370.982 526.282 367.409 527.292 363.564C527.845 361.725 528.406 359.869 528.977 357.994C529.495 356.12 530.285 354.211 530.934 352.301C532.54 347.902 534.384 343.52 536.332 339.138C533.19 338.381 522.069 335.539 517.601 332.107C513.151 328.685 508.438 323.088 508.482 317.14C508.526 311.315 513.204 306.282 519.225 306.933C527.581 307.84 534.831 321.188 536.35 328.553C536.446 329.01 536.938 334.422 537.157 337.396C538.351 334.774 539.527 332.152 540.826 329.547C544.557 322.006 548.577 314.492 552.544 306.977C553.764 304.672 554.949 302.367 556.143 300.061C555.019 299.806 541.73 296.709 536.727 292.864C532.277 289.441 527.564 283.845 527.608 277.897C527.652 272.072 532.33 267.03 538.351 267.69C546.707 268.596 553.957 281.944 555.476 289.309C555.59 289.863 556.292 297.65 556.371 299.639C559.004 294.562 561.576 289.476 563.91 284.364C567.141 277.307 569.923 270.206 572.117 263.132C571.599 263.017 557.705 259.85 552.579 255.908C548.129 252.485 543.416 246.889 543.459 240.94C543.503 235.115 548.182 230.082 554.203 230.734C562.559 231.64 569.809 244.988 571.327 252.353C571.424 252.837 571.968 258.767 572.161 261.592C572.424 261.618 572.372 261.618 572.635 261.645C574.891 254.033 576.111 246.369 576.91 239.145C577.375 234.966 577.594 230.936 577.717 227.012C575.066 226.686 562.989 225.076 557.986 222.04C553.193 219.128 547.892 214.086 547.278 208.173C546.681 202.383 550.78 196.857 556.836 196.848C565.236 196.831 573.908 209.299 576.225 216.453C576.348 216.84 577.191 220.94 577.77 223.932C577.796 222.163 577.858 220.333 577.849 218.635C577.84 212.264 577.436 206.431 577.041 201.266C576.796 198.335 576.506 195.687 576.216 193.206C573.785 191.525 564.069 184.653 561.075 179.734C558.161 174.939 555.774 168.014 557.951 162.479C560.084 157.059 566.263 154.059 571.643 156.839C579.104 160.711 581.07 175.775 579.841 183.192C579.736 183.835 576.918 193.672 576.787 193.584C576.787 193.584 576.664 193.505 576.638 193.487C576.962 195.863 577.287 198.415 577.586 201.204C578.095 206.369 578.63 212.212 578.779 218.608C578.806 219.779 578.823 220.993 578.841 222.198C582.044 217.253 592.147 203.368 603.066 206.316C616.241 209.941 613.195 221.671 602.504 224.213Z" fill="black"/>
<g opacity="0.3">
<path d="M582.797 39.8467V116.196H490.504V39.8467H521.435V42.9351C521.435 44.8005 522.954 46.314 524.806 46.314C526.658 46.314 528.176 44.7917 528.176 42.9351V39.8467H545.116V42.9351C545.116 44.8005 546.635 46.314 548.487 46.314C550.348 46.314 551.848 44.7917 551.848 42.9351V39.8467H582.797Z" stroke="black" stroke-miterlimit="10" stroke-linecap="round" stroke-linejoin="round"/>
<path d="M507.673 61.334H496.078V72.9575H507.673V61.334Z" stroke="black" stroke-miterlimit="10" stroke-linecap="round" stroke-linejoin="round"/>
<path d="M525.06 61.334H513.465V72.9575H525.06V61.334Z" stroke="black" stroke-miterlimit="10" stroke-linecap="round" stroke-linejoin="round"/>
<path d="M542.45 61.334H530.855V72.9575H542.45V61.334Z" stroke="black" stroke-miterlimit="10" stroke-linecap="round" stroke-linejoin="round"/>
<path d="M559.837 61.334H548.242V72.9575H559.837V61.334Z" stroke="black" stroke-miterlimit="10" stroke-linecap="round" stroke-linejoin="round"/>
<path d="M577.224 61.334H565.629V72.9575H577.224V61.334Z" stroke="black" stroke-miterlimit="10" stroke-linecap="round" stroke-linejoin="round"/>
<path d="M507.673 79.2489H496.078V90.8725H507.673V79.2489Z" stroke="black" stroke-miterlimit="10" stroke-linecap="round" stroke-linejoin="round"/>
<path d="M525.06 79.2489H513.465V90.8725H525.06V79.2489Z" stroke="black" stroke-miterlimit="10" stroke-linecap="round" stroke-linejoin="round"/>
<path d="M542.45 79.2489H530.855V90.8725H542.45V79.2489Z" stroke="black" stroke-miterlimit="10" stroke-linecap="round" stroke-linejoin="round"/>
<path d="M559.837 79.2489H548.242V90.8725H559.837V79.2489Z" stroke="black" stroke-miterlimit="10" stroke-linecap="round" stroke-linejoin="round"/>
<path d="M577.224 79.2489H565.629V90.8725H577.224V79.2489Z" stroke="black" stroke-miterlimit="10" stroke-linecap="round" stroke-linejoin="round"/>
<path d="M507.673 97.1637H496.078V108.787H507.673V97.1637Z" stroke="black" stroke-miterlimit="10" stroke-linecap="round" stroke-linejoin="round"/>
<path d="M525.06 97.1637H513.465V108.787H525.06V97.1637Z" stroke="black" stroke-miterlimit="10" stroke-linecap="round" stroke-linejoin="round"/>
<path d="M542.45 97.1637H530.855V108.787H542.45V97.1637Z" stroke="black" stroke-miterlimit="10" stroke-linecap="round" stroke-linejoin="round"/>
<path d="M559.837 97.1637H548.242V108.787H559.837V97.1637Z" stroke="black" stroke-miterlimit="10" stroke-linecap="round" stroke-linejoin="round"/>
<path d="M577.224 97.1637H565.629V108.787H577.224V97.1637Z" stroke="black" stroke-miterlimit="10" stroke-linecap="round" stroke-linejoin="round"/>
<path d="M528.186 31.3116V42.9351C528.186 44.8005 526.668 46.314 524.816 46.314C522.964 46.314 521.445 44.7917 521.445 42.9351V31.3116C521.445 29.4462 522.964 27.9415 524.816 27.9415C526.668 27.9415 528.186 29.4462 528.186 31.3116Z" fill="black" stroke="black" stroke-miterlimit="10" stroke-linecap="round" stroke-linejoin="round"/>
<path d="M551.849 31.3116V42.9351C551.849 44.8005 550.348 46.314 548.488 46.314C546.627 46.314 545.117 44.7917 545.117 42.9351V31.3116C545.117 29.4462 546.636 27.9415 548.488 27.9415C550.348 27.9415 551.849 29.4462 551.849 31.3116Z" fill="black" stroke="black" stroke-miterlimit="10" stroke-linecap="round" stroke-linejoin="round"/>
</g>
<g opacity="0.3">
<path d="M339.472 367.612H326.684V397.3H339.472V367.612Z" stroke="black" stroke-miterlimit="10" stroke-linecap="round" stroke-linejoin="round"/>
<path d="M356.589 352.433H343.801V397.3H356.589V352.433Z" stroke="black" stroke-miterlimit="10" stroke-linecap="round" stroke-linejoin="round"/>
<path d="M373.695 333.304H360.906V397.3H373.695V333.304Z" stroke="black" stroke-miterlimit="10" stroke-linecap="round" stroke-linejoin="round"/>
<path d="M390.812 320.105H378.023V397.3H390.812V320.105Z" stroke="black" stroke-miterlimit="10" stroke-linecap="round" stroke-linejoin="round"/>
</g>
<g opacity="0.3">
<path d="M189.262 81.2339C199.921 57.7398 189.563 30.032 166.127 19.347C142.691 8.66197 115.051 19.0458 104.393 42.54C93.7343 66.0342 104.092 93.7419 127.528 104.427C150.965 115.112 178.604 104.728 189.262 81.2339Z" stroke="black" stroke-miterlimit="10"/>
<path d="M173.223 88.3529C187.801 73.7386 187.801 50.0443 173.223 35.4301C158.645 20.8159 135.009 20.8159 120.431 35.4301C105.853 50.0443 105.853 73.7386 120.431 88.3529C135.009 102.967 158.645 102.967 173.223 88.3529Z" stroke="black" stroke-miterlimit="10"/>
<path d="M163.724 78.8335C173.057 69.4767 173.057 54.3063 163.724 44.9495C154.39 35.5927 139.257 35.5927 129.924 44.9495C120.59 54.3063 120.59 69.4767 129.924 78.8335C139.257 88.1903 154.39 88.1903 163.724 78.8335Z" stroke="black" stroke-miterlimit="10"/>
<path d="M156.378 71.4668C161.653 66.1785 161.653 57.6044 156.378 52.3161C151.102 47.0278 142.55 47.0278 137.274 52.3161C131.999 57.6044 131.999 66.1785 137.274 71.4668C142.55 76.7552 151.102 76.7552 156.378 71.4668Z" stroke="black" stroke-miterlimit="10"/>
<path d="M152.532 61.8883C152.532 58.7295 149.977 56.1689 146.826 56.1689C143.675 56.1689 141.121 58.7295 141.121 61.8883C141.121 65.0472 143.675 67.6077 146.826 67.6077C149.977 67.6077 152.532 65.0472 152.532 61.8883Z" stroke="black" stroke-miterlimit="10"/>
</g>
<path d="M145.708 63.0233H83.0117V60.7532H145.708C146.331 60.7532 146.84 61.2635 146.84 61.8882C146.831 62.513 146.331 63.0233 145.708 63.0233Z" fill="#B2B2B2"/>
<path d="M77.4365 53.8284L77.7876 54.2331L84.3442 60.7532H64.7357L57.7227 53.8284H77.4365Z" fill="#B2B2B2"/>
<path d="M57.7227 69.6842L64.7357 63.0057H84.3442C81.79 64.9239 79.4728 67.1941 77.3838 69.6842H57.7227Z" fill="#B2B2B2"/>
<path d="M606.023 404.286H630.784" stroke="#263238" stroke-miterlimit="10" stroke-linecap="round" stroke-linejoin="round"/>
<path d="M196.695 404.286H595.966" stroke="#263238" stroke-miterlimit="10" stroke-linecap="round" stroke-linejoin="round"/>
<path d="M5.57812 404.286H190.507" stroke="#263238" stroke-miterlimit="10" stroke-linecap="round" stroke-linejoin="round"/>
<path d="M421.629 347.611L423.718 363.45C423.718 363.45 426.272 383.019 426.852 387.559C427.431 392.099 427.203 404.093 427.203 404.093H418.259L418.145 387.207L418.373 358.329L421.629 347.611Z" fill="#808080" stroke="#263238" stroke-miterlimit="10" stroke-linecap="round" stroke-linejoin="round"/>
<path d="M427.248 399.218C427.239 401.99 427.204 404.093 427.204 404.093H418.26L418.207 397L427.248 399.218Z" fill="white" stroke="#263238" stroke-miterlimit="10" stroke-linecap="round" stroke-linejoin="round"/>
<path d="M427.229 402.236C427.22 403.01 427.212 403.582 427.203 403.881C427.203 403.89 427.203 403.899 427.203 403.899C427.203 403.934 427.203 403.978 427.203 404.005C427.203 404.005 427.203 404.005 427.203 404.013C427.203 404.075 427.203 404.101 427.203 404.101H418.259L418.25 402.236H427.229Z" fill="white" stroke="#263238" stroke-miterlimit="10" stroke-linecap="round" stroke-linejoin="round"/>
<path d="M408.384 395.478C408.384 395.478 405.013 398.857 403.389 399.552C401.766 400.247 399.211 400.485 398.86 401.303C398.509 402.122 398.746 404.445 398.746 404.445H420.935C420.935 404.445 421.514 402.465 421.286 401.066C421.058 399.667 420.707 398.972 420.707 398.972C420.707 398.972 409.779 395.364 408.384 395.478Z" fill="white" stroke="#263238" stroke-miterlimit="10" stroke-linecap="round" stroke-linejoin="round"/>
<path d="M420.936 404.445H398.747C398.747 404.445 398.65 403.486 398.676 402.579H421.296C421.19 403.574 420.936 404.445 420.936 404.445Z" fill="white" stroke="#263238" stroke-miterlimit="10" stroke-linecap="round" stroke-linejoin="round"/>
<path d="M427.325 325.139C427.325 325.139 427.211 332.24 426.167 334.219C425.122 336.199 423.033 339.578 423.033 339.578C423.033 339.578 420.365 361.584 420.83 363.687C421.295 365.782 422.805 371.255 422.691 375.1C422.577 378.945 420.602 395.126 420.602 395.126C420.602 395.126 421.181 396.173 421.067 396.525C420.953 396.877 420.716 398.972 420.716 398.972C420.716 398.972 417.117 398.391 414.563 397.687C412.009 396.992 408.41 395.478 408.41 395.478C408.41 395.478 407.945 394.079 408.296 393.27C408.647 392.451 409.578 390.129 409.578 390.129C409.578 390.129 409.226 376.384 409.226 374.061C409.226 371.73 407.366 361.602 407.366 359.508C407.366 357.414 405.163 337.959 405.505 335.75C405.856 333.542 406.084 330.163 406.084 330.163L405.505 324.919L427.325 325.139Z" fill="#A1A1A1" stroke="#263238" stroke-miterlimit="10" stroke-linecap="round" stroke-linejoin="round"/>
<path d="M415.188 342.517C415.275 348.923 415.407 360.564 415.24 362.403" stroke="#263238" stroke-miterlimit="10" stroke-linecap="round" stroke-linejoin="round"/>
<path d="M415.125 338.293C415.125 338.293 415.134 339.076 415.16 340.37" stroke="#263238" stroke-miterlimit="10" stroke-linecap="round" stroke-linejoin="round"/>
<path d="M415.477 364.963C415.477 364.963 416.171 369.618 416.408 375.329C416.645 381.039 415.591 393.147 415.591 393.147C415.591 393.147 416.057 394.308 416.057 394.774C416.057 395.241 415.363 396.754 415.363 396.754" stroke="#263238" stroke-miterlimit="10" stroke-linecap="round" stroke-linejoin="round"/>
<path d="M424.21 286.106C424.21 286.106 429.362 294.21 430.161 297.413C430.96 300.616 428.028 316.735 428.028 316.735C428.028 316.735 429.187 324.127 428.827 324.839C428.476 325.552 427.765 326.089 427.765 326.089H405.383C405.383 326.089 404.408 324.399 404.321 323.511C404.233 322.622 404.057 321.637 404.496 320.123C404.944 318.61 406.006 301.24 407.068 298.037C408.13 294.835 412.756 288.957 412.756 288.957L424.21 286.106Z" fill="#39B4EF" stroke="#263238" stroke-miterlimit="10" stroke-linecap="round" stroke-linejoin="round"/>
<path d="M408.736 274.289C408.885 273.207 410.614 272.283 411.193 271.447C411.799 270.576 411.43 269.819 411.896 268.877C413.282 266.088 414.318 263.475 417.574 262.744C421.612 261.838 427.932 263.906 429.81 267.452C431.188 270.039 431.223 273.471 430.258 276.198C429.775 277.571 429.011 278.873 427.914 279.85C427.589 280.14 423.999 281.821 424.026 281.574L423.675 284.425L413.633 287.004L413.186 282.551C413.186 282.551 411.413 282.551 410.254 282.287C409.096 282.023 408.744 281.574 409.008 280.598C409.271 279.621 410.07 276.145 410.07 276.145C409.684 275.829 409.078 275.415 408.85 274.975C408.736 274.729 408.701 274.5 408.736 274.289Z" fill="white" stroke="#263238" stroke-miterlimit="10" stroke-linecap="round" stroke-linejoin="round"/>
<path d="M412.703 271.139C412.528 271.684 412.615 272.203 412.914 272.3C413.212 272.397 413.59 272.036 413.774 271.491C413.949 270.945 413.862 270.426 413.563 270.329C413.265 270.233 412.887 270.593 412.703 271.139Z" fill="#263238"/>
<path d="M415.099 269.757C415.099 269.757 414.756 268.2 413.027 268.367" stroke="#263238" stroke-miterlimit="10" stroke-linecap="round" stroke-linejoin="round"/>
<path d="M410.516 277.808C410.516 277.808 411.639 278.072 412.675 277.025" stroke="#263238" stroke-miterlimit="10" stroke-linecap="round" stroke-linejoin="round"/>
<path d="M423.83 278.213C424.707 276.902 424.268 274.421 422.811 273.831C421.354 273.251 419.608 275.433 419.169 275.292C418.73 275.142 420.187 272.661 420.187 272.661C420.187 272.661 418.44 271.64 418.001 270.329C417.562 269.018 420.626 267.698 421.495 267.558C422.372 267.408 417.562 262.744 417.562 262.744C421.6 261.838 427.92 263.906 429.798 267.452C431.176 270.039 431.211 273.471 430.246 276.198C429.763 277.571 428.999 278.873 427.902 279.85C427.621 280.096 424.918 281.39 424.198 281.574C424.084 281.574 424.023 281.574 424.023 281.574L421.495 279.832C421.504 279.815 422.961 279.524 423.83 278.213Z" fill="#263238" stroke="#263238" stroke-miterlimit="10" stroke-linecap="round" stroke-linejoin="round"/>
<path d="M412.017 290.233L408.568 295.028L407.418 320.387L405.478 324.901L403.012 316.736L408.129 294.122L411.64 288.174L412.017 290.233Z" fill="#263238" stroke="#263238" stroke-miterlimit="10" stroke-linecap="round" stroke-linejoin="round"/>
<path d="M424.033 283.343L411.684 287.444L412.131 292.424L425.008 286.458L424.033 283.343Z" fill="#39B4EF" stroke="#263238" stroke-miterlimit="10" stroke-linecap="round" stroke-linejoin="round"/>
<path d="M413.191 282.542L415.588 282.366L413.639 285.305L413.191 282.542Z" fill="#263238" stroke="#263238" stroke-miterlimit="10" stroke-linecap="round" stroke-linejoin="round"/>
<path d="M379.883 292.872L391.873 284.056L397.648 307.303L395.875 309.256L379.883 292.872Z" fill="#DEDEDE" stroke="#263238" stroke-miterlimit="10" stroke-linecap="round" stroke-linejoin="round"/>
<path d="M385.123 280.765L396.49 307.84L407.418 320.396L400.756 325.913L390.802 310.594C390.802 310.594 378.101 294.562 377.742 293.497C377.399 292.424 385.123 280.765 385.123 280.765Z" fill="white" stroke="#263238" stroke-miterlimit="10" stroke-linecap="round" stroke-linejoin="round"/>
<path d="M406.074 309.01L399.517 306.529C399.517 306.529 397.621 303.757 397.332 303.167C397.042 302.587 393.838 301.416 393.399 300.976C392.96 300.536 391.503 298.935 391.363 299.665C391.223 300.396 390.924 301.126 391.653 301.566C392.381 302.006 393.838 303.898 393.838 303.898C393.838 303.898 390.345 303.607 390.055 304.478C389.766 305.358 390.635 307.109 390.635 307.109C390.635 307.109 391.802 307.259 392.232 307.69C392.671 308.13 393.54 310.022 394.558 310.462C395.576 310.902 399.219 311.042 399.219 311.042L403.3 314.254L406.074 309.01Z" fill="white" stroke="#263238" stroke-miterlimit="10" stroke-linecap="round" stroke-linejoin="round"/>
<path d="M401.815 307.215L399.902 306.493C399.902 306.493 397.988 311.174 398.164 311.236C398.339 311.298 400.139 311.834 400.139 311.834L401.815 307.215Z" fill="#39B4EF" stroke="#263238" stroke-miterlimit="10" stroke-linecap="round" stroke-linejoin="round"/>
<path d="M427.093 297.114C427.33 297.941 427.427 298.697 427.409 299.199C427.322 300.888 422.608 320.836 422.257 322.085C421.906 323.335 418.974 324.048 418.079 323.775C417.193 323.511 399.989 312.961 399.805 312.521C399.629 312.072 400.955 307.092 401.841 306.828C402.728 306.564 413.813 311.218 413.813 311.218C413.813 311.218 414.314 298.697 415.077 296.515" fill="#39B4EF"/>
<path d="M427.093 297.114C427.33 297.941 427.427 298.697 427.409 299.199C427.322 300.888 422.608 320.836 422.257 322.085C421.906 323.335 418.974 324.048 418.079 323.775C417.193 323.511 399.989 312.961 399.805 312.521C399.629 312.072 400.955 307.092 401.841 306.828C402.728 306.564 413.813 311.218 413.813 311.218C413.813 311.218 414.314 298.697 415.077 296.515" stroke="#263238" stroke-miterlimit="10" stroke-linecap="round" stroke-linejoin="round"/>
<path d="M414.352 311.395L418.345 313.533" stroke="#263238" stroke-miterlimit="10" stroke-linecap="round" stroke-linejoin="round"/>
<path d="M418.433 312.195L415.773 311.57" stroke="#263238" stroke-miterlimit="10" stroke-linecap="round" stroke-linejoin="round"/>
<path d="M240.29 119.83L243.994 136.425L255.519 133.416L256.537 136.777L239.729 147.054L236.086 138.774L240.29 119.83Z" fill="white" stroke="#263238" stroke-miterlimit="10" stroke-linecap="round" stroke-linejoin="round"/>
<path d="M223.491 114.26L212.062 119.663L214.941 146.086L233.865 146.412L239.158 134.243L240.29 119.83L231.75 115.589L223.491 114.26Z" fill="white" stroke="#263238" stroke-miterlimit="10" stroke-linecap="round" stroke-linejoin="round"/>
<path d="M220.324 116.064L222.677 126.069L234.807 126.852L234.026 117.243L231.761 115.589C231.752 115.589 222.08 113.125 220.324 116.064Z" fill="white" stroke="#263238" stroke-miterlimit="10" stroke-linecap="round" stroke-linejoin="round"/>
<path d="M233.533 94.7704C236.07 95.1135 238.422 96.3718 239.397 98.5012C240.985 101.959 239.66 105.408 240.195 106.209C240.722 107.01 241.521 109.13 241.521 109.13L239.397 110.459C239.397 110.459 237.158 114.63 236.368 115.167C235.57 115.695 232.506 114.181 232.506 114.181L230.382 118.167L223.492 112.324L226.406 106.746C226.406 106.746 223.756 101.695 225.081 98.51C226.327 95.5183 230.101 94.3128 233.533 94.7704Z" fill="white" stroke="#263238" stroke-miterlimit="10" stroke-linecap="round" stroke-linejoin="round"/>
<path d="M238.995 106.104C238.995 106.693 238.767 107.177 238.486 107.177C238.205 107.177 237.977 106.693 237.977 106.104C237.977 105.514 238.205 105.03 238.486 105.03C238.767 105.03 238.995 105.514 238.995 106.104Z" fill="#263238"/>
<path d="M237.754 111.462C237.754 111.462 236.964 111.348 236.402 110.556L237.754 111.462Z" fill="white"/>
<path d="M237.754 111.462C237.754 111.462 236.964 111.348 236.402 110.556" stroke="#263238" stroke-miterlimit="10" stroke-linecap="round" stroke-linejoin="round"/>
<path d="M237.641 103.675C237.641 103.675 238.878 102.998 239.44 103.904L237.641 103.675Z" fill="white"/>
<path d="M237.641 103.675C237.641 103.675 238.878 102.998 239.44 103.904" stroke="#263238" stroke-miterlimit="10" stroke-linecap="round" stroke-linejoin="round"/>
<path d="M214.94 146.087C214.94 146.087 209.595 151.683 208.621 162.391C207.646 173.108 206.189 193.32 206.189 193.32L201.09 225.472L207.409 225.718L217.617 194.297L224.42 169.694L232.434 194.534L237.735 226.008L243.809 225.278L243.37 186.747L242.396 180.491C241.106 172.193 238.841 164.072 235.655 156.302L235.356 155.572L233.873 146.412L214.94 146.087Z" fill="#263238" stroke="#263238" stroke-miterlimit="10" stroke-linecap="round" stroke-linejoin="round"/>
<path d="M240.053 98.6596C240.053 98.6596 240.703 101.273 236.815 103.948C232.926 106.623 232.926 106.623 232.926 106.623C232.926 106.623 232.444 124.89 231.952 125.866C231.469 126.843 219.804 116.372 220.533 114.172C221.261 111.981 222.2 106.227 222.2 104.52C222.2 102.813 222.481 98.0964 225.395 95.1751C228.309 92.2539 240.94 92.9842 241.677 95.4215C242.397 97.8589 240.053 98.6596 240.053 98.6596Z" fill="#263238" stroke="#263238" stroke-miterlimit="10" stroke-linecap="round" stroke-linejoin="round"/>
<path d="M212.063 119.663L198.906 141.696L195.605 161.67L199.134 161.942L205.708 142.919L213.388 133.513C213.388 133.504 213.801 123.209 212.063 119.663Z" fill="white" stroke="#263238" stroke-miterlimit="10" stroke-linecap="round" stroke-linejoin="round"/>
<path d="M202.478 166.36C202.478 166.36 201.039 164.433 200.872 164.195C200.714 163.957 199.143 161.942 199.143 161.942C199.143 161.942 196.071 160.737 195.614 161.67C195.158 162.602 194.465 169.334 194.386 169.888C194.307 170.451 194.947 170.856 194.947 170.856L195.509 168.128C195.509 168.128 195.746 170.935 195.746 171.745C195.746 172.545 196.545 172.387 196.545 172.387L196.782 168.207C196.782 168.207 197.581 171.577 197.747 172.387C197.914 173.196 198.713 172.792 198.713 172.545C198.713 172.308 198.871 167.803 198.871 167.803C198.871 167.803 199.591 170.53 199.749 171.173C199.907 171.815 200.635 170.917 200.635 170.917L200.503 166.562C200.503 166.562 200.881 166.755 201.917 167.16C202.952 167.556 202.478 166.36 202.478 166.36Z" fill="white" stroke="#263238" stroke-miterlimit="10" stroke-linecap="round" stroke-linejoin="round"/>
<path d="M200.493 166.562L199.668 164.186" stroke="#263238" stroke-miterlimit="10" stroke-linecap="round" stroke-linejoin="round"/>
<path d="M255.52 133.416L256.889 129.43L259.25 127.415C259.25 127.415 259.364 125.514 260.075 125.4C260.786 125.285 261.023 125.637 260.9 126.702C260.777 127.767 260.075 128.84 260.075 128.84C260.075 128.84 261.611 127.776 261.971 128.365C262.322 128.955 262.208 134.296 261.857 135.008C261.506 135.721 256.538 136.786 256.538 136.786L255.52 133.416Z" fill="white" stroke="#263238" stroke-miterlimit="10" stroke-linecap="round" stroke-linejoin="round"/>
<path d="M260.084 128.84L258.785 130.143C258.785 130.143 258.311 135 258.785 135C259.259 135 261.857 135 261.857 135" fill="white"/>
<path d="M260.084 128.84L258.785 130.143C258.785 130.143 258.311 135 258.785 135C259.259 135 261.857 135 261.857 135" stroke="#263238" stroke-miterlimit="10" stroke-linecap="round" stroke-linejoin="round"/>
<path d="M201.101 225.48L199.389 230.426C199.389 230.426 198.213 232.388 198.02 233.954C197.827 235.52 203.892 234.737 204.866 234.737C205.841 234.737 206.824 234.544 207.412 233.954C208 233.364 207.421 225.718 207.421 225.718L201.101 225.48Z" fill="white" stroke="#263238" stroke-miterlimit="10" stroke-linecap="round" stroke-linejoin="round"/>
<path d="M243.812 225.41L245.954 229.748C245.954 229.748 250.843 231.71 251.045 232.889C251.238 234.068 251.045 234.658 249.868 234.851C248.692 235.045 236.176 234.851 236.176 234.851C236.176 234.851 236.176 231.913 236.176 230.927C236.176 229.95 237.747 226.14 237.747 226.14L243.812 225.41Z" fill="white" stroke="#263238" stroke-miterlimit="10" stroke-linecap="round" stroke-linejoin="round"/>
<path d="M268.667 347.083L266.025 349.732L160.645 266.845L163.278 264.205L268.667 347.083Z" fill="white" stroke="#263238" stroke-miterlimit="10" stroke-linecap="round" stroke-linejoin="round"/>
<path d="M160.645 347.083L163.278 349.732L268.667 266.845L266.025 264.205L160.645 347.083Z" fill="white" stroke="#263238" stroke-miterlimit="10" stroke-linecap="round" stroke-linejoin="round"/>
<path d="M270.894 239.779H267.164V404.427H270.894V239.779Z" fill="white" stroke="#263238" stroke-miterlimit="10" stroke-linecap="round" stroke-linejoin="round"/>
<path d="M164.777 239.779H161.047V404.427H164.777V239.779Z" fill="white" stroke="#263238" stroke-miterlimit="10" stroke-linecap="round" stroke-linejoin="round"/>
<path d="M162.758 263.036V266.776H267.111V263.036H162.758Z" fill="white" stroke="#263238" stroke-miterlimit="10" stroke-linecap="round" stroke-linejoin="round"/>
<path d="M162.754 347.502V351.242H267.107V347.502H162.754Z" fill="white" stroke="#263238" stroke-miterlimit="10" stroke-linecap="round" stroke-linejoin="round"/>
<path d="M252.292 347.083L249.65 349.732L144.27 266.845L146.912 264.205L252.292 347.083Z" fill="white" stroke="#263238" stroke-miterlimit="10" stroke-linecap="round" stroke-linejoin="round"/>
<path d="M144.27 347.083L146.912 349.732L252.292 266.845L249.65 264.205L144.27 347.083Z" fill="white" stroke="#263238" stroke-miterlimit="10" stroke-linecap="round" stroke-linejoin="round"/>
<path d="M146.387 263.031V266.771H250.74V263.031H146.387Z" fill="white" stroke="#263238" stroke-miterlimit="10" stroke-linecap="round" stroke-linejoin="round"/>
<path d="M146.383 347.497V351.236H250.736V347.497H146.383Z" fill="white" stroke="#263238" stroke-miterlimit="10" stroke-linecap="round" stroke-linejoin="round"/>
<path d="M146.648 239.779H142.918V404.427H146.648V239.779Z" fill="white" stroke="#263238" stroke-miterlimit="10" stroke-linecap="round" stroke-linejoin="round"/>
<path d="M254.371 239.779H250.641V404.427H254.371V239.779Z" fill="white" stroke="#263238" stroke-miterlimit="10" stroke-linecap="round" stroke-linejoin="round"/>
<path d="M277.218 235.107H136.5V242.251H277.218V235.107Z" fill="#263238" stroke="#263238" stroke-miterlimit="10" stroke-linecap="round" stroke-linejoin="round"/>
<path d="M258.48 187.917V1.55322" stroke="#263238" stroke-miterlimit="10" stroke-linecap="round" stroke-linejoin="round"/>
<path d="M368.035 113.046V1.55322" stroke="#263238" stroke-miterlimit="10" stroke-linecap="round" stroke-linejoin="round"/>
<path d="M333.716 277.465C333.707 276.594 333.769 275.741 333.725 274.87C333.268 265.243 330.881 256.163 326.949 247.988L349.577 228.059L328.827 204.371H323.403L322.929 209.554L322.937 209.563L307.191 223.43C299.09 217.051 289.566 212.475 279.209 210.196L277.813 180.843H272.389L247.742 210.54C237.271 213.109 227.809 218.063 219.848 224.741L196.246 207.645H190.822L191.585 211.2L193.086 212.035L177.831 233.197L200.872 249.88C196.738 259.163 194.57 269.476 194.903 280.29L166.289 288.288L173.829 315.407L169.308 318.654H174.733L202.961 310.761C207.753 319.806 214.406 327.673 222.473 333.779L210.509 362.042L233.637 371.879L234.041 374.36H239.465L251.245 346.538C256.537 347.55 262.005 348.034 267.623 347.77C272.134 347.559 276.506 346.881 280.736 345.852L292.682 367.964L290.189 373.384H295.614L323.262 358.373L308.797 331.606C316.407 325.227 322.665 317.307 326.984 308.288L351.745 312.723L352.069 313.753H357.494L363.023 282.718L333.716 277.465ZM265.78 309.071C248.761 309.881 234.304 296.709 233.497 279.647C232.689 262.586 245.829 248.094 262.848 247.284C279.867 246.475 294.323 259.647 295.131 276.709C295.939 293.77 282.799 308.262 265.78 309.071Z" fill="#263238" stroke="#263238" stroke-miterlimit="10" stroke-linecap="round" stroke-linejoin="round"/>
<path d="M321.57 308.28L352.08 313.744L357.609 282.71L328.302 277.456C328.293 276.585 328.355 275.732 328.311 274.861C327.854 265.235 325.467 256.154 321.535 247.98L344.162 228.059L323.413 204.371L301.777 223.421C293.676 217.042 284.152 212.467 273.795 210.188L272.399 180.834L240.985 182.33L242.328 210.531C231.857 213.1 222.395 218.054 214.434 224.732L190.832 207.636L172.417 233.188L195.458 249.871C191.323 259.154 189.155 269.467 189.489 280.281L160.875 288.279L169.319 318.645L197.547 310.752C202.339 319.798 208.992 327.664 217.058 333.77L205.095 362.033L234.043 374.343L245.822 346.52C251.114 347.532 256.583 348.016 262.2 347.752C266.712 347.541 271.083 346.863 275.313 345.834L290.191 373.366L317.839 358.355L303.374 331.588C310.993 325.218 317.243 317.307 321.57 308.28ZM228.074 279.647C227.266 262.586 240.406 248.094 257.425 247.284C274.444 246.475 288.901 259.647 289.708 276.709C290.516 293.77 277.376 308.262 260.357 309.071C243.338 309.881 228.882 296.709 228.074 279.647Z" fill="#39B4EF" stroke="#263238" stroke-miterlimit="10" stroke-linecap="round" stroke-linejoin="round"/>
<path d="M423.774 175.484C427.32 168.216 429.224 160.579 429.637 152.976L454.301 147.494L448.596 121.669H443.172L443.417 122.822L425.011 126.913C421.632 118.941 416.471 111.717 409.774 105.848L420.588 83.7012L396.889 72.0776H391.465L395.844 74.2246L386.505 93.3538C377.772 90.9956 368.819 90.8108 360.27 92.4915L349.807 70.3618H344.383L345.445 72.4296L325.968 81.6774L336.176 103.279C329.4 108.435 323.642 115.131 319.526 123.218L295.265 117.507H289.841L289.815 119.478L294.625 120.217L289.227 143.253L313.162 148.893C313.039 157.481 314.76 165.964 318.227 173.724L298.039 189.651L311.073 206.246L308.932 210.434H314.356L334.237 194.754C337.721 197.64 341.548 200.218 345.787 202.295C349.193 203.967 352.678 205.243 356.206 206.202L356.039 232.467L382.424 232.634L382.582 207.099C390.754 205.498 398.539 202.207 405.359 197.323L422.282 211.032L420.166 213.707H425.591L442.171 193.135L422.738 177.394C423.063 176.751 423.449 176.144 423.774 175.484ZM394.651 161.203C388.366 174.076 372.865 179.4 360.024 173.1C347.183 166.8 341.873 151.26 348.157 138.387C354.442 125.514 369.943 120.191 382.784 126.491C395.625 132.791 400.935 148.33 394.651 161.203Z" fill="#263238" stroke="#263238" stroke-miterlimit="10" stroke-linecap="round" stroke-linejoin="round"/>
<path d="M399.917 197.323L420.139 213.707L436.72 193.135L417.287 177.394C417.629 176.751 418.015 176.144 418.34 175.484C421.886 168.216 423.791 160.579 424.203 152.976L448.868 147.494L443.162 121.669L419.578 126.905C416.198 118.933 411.037 111.709 404.34 105.84L415.154 83.6924L391.455 72.0688L381.072 93.345C372.338 90.9868 363.385 90.802 354.836 92.4827L344.374 70.353L320.535 81.6774L330.743 103.279C323.967 108.435 318.209 115.131 314.092 123.218L289.832 117.507L283.793 143.253L307.729 148.893C307.606 157.481 309.326 165.964 312.793 173.724L292.605 189.651L308.922 210.434L328.803 194.754C332.288 197.64 336.114 200.218 340.354 202.295C343.759 203.967 347.244 205.243 350.773 206.202L350.606 232.467L376.99 232.634L377.148 207.099C385.311 205.489 393.105 202.207 399.917 197.323ZM342.733 138.387C349.017 125.514 364.518 120.191 377.359 126.491C390.2 132.791 395.51 148.33 389.226 161.203C382.941 174.076 367.441 179.4 354.599 173.1C341.758 166.8 336.448 151.26 342.733 138.387Z" fill="#39B4EF" stroke="#263238" stroke-miterlimit="10" stroke-linecap="round" stroke-linejoin="round"/>
<path d="M478.227 225.788C478.227 225.788 471.205 230.866 470.757 230.98C470.301 231.094 467.123 231.693 466.781 232.379C466.448 233.065 466.114 234.095 466.456 234.781C466.807 235.467 488.882 234.605 488.882 234.605C488.882 234.605 489.33 233.461 489.093 231.983C488.856 230.505 488.83 227.645 488.83 227.645L478.227 225.788Z" fill="white" stroke="#263238" stroke-miterlimit="10" stroke-linecap="round" stroke-linejoin="round"/>
<path d="M489.137 233.347L466.377 233.523C466.281 233.972 466.281 234.42 466.456 234.781C466.807 235.467 488.882 234.605 488.882 234.605C488.882 234.605 489.075 234.104 489.137 233.347Z" fill="white" stroke="#263238" stroke-miterlimit="10" stroke-linecap="round" stroke-linejoin="round"/>
<path d="M533.541 224.442L532.207 228.331L527.116 232.819C527.116 232.819 526.783 234.077 527.353 234.297C527.924 234.517 537.711 234.218 537.711 234.218C537.711 234.218 539.299 233.408 539.861 232.828C540.423 232.256 545.268 225.137 545.145 224.345C545.022 223.545 542.047 221.063 542.047 221.063L533.541 224.442Z" fill="white" stroke="#263238" stroke-miterlimit="10" stroke-linecap="round" stroke-linejoin="round"/>
<path d="M539.87 232.836C540.432 232.264 545.277 225.146 545.154 224.354C545.11 224.073 544.706 223.58 544.206 223.061C542.477 226.008 539.132 231.631 538.378 232.053C537.553 232.52 529.987 232.819 527.09 232.916C527.029 233.206 526.871 234.121 527.353 234.306C527.924 234.526 537.711 234.227 537.711 234.227C537.711 234.227 539.299 233.417 539.87 232.836Z" fill="white" stroke="#263238" stroke-miterlimit="10" stroke-linecap="round" stroke-linejoin="round"/>
<path d="M496.56 168.357C496.56 168.357 495.674 171.217 495.674 171.674C495.674 172.132 495.805 173.61 495.805 173.61C495.805 173.61 481.147 191.296 480.243 193.012C479.348 194.728 479.006 224.178 479.006 224.178C479.006 224.178 477.645 224.53 477.645 224.988C477.645 225.445 477.426 226.36 477.426 226.36C477.426 226.36 480.287 228.05 481.999 228.604C483.71 229.158 488.266 229.924 488.266 229.924C488.266 229.924 488.828 228.78 488.819 227.636C488.81 226.492 488.45 224.442 488.45 224.099C488.45 223.756 492.918 198.502 492.918 198.502L507.251 182.418C507.251 182.418 513.536 200.174 514.8 201.186C516.063 202.207 531.81 222.735 531.81 222.735C531.81 222.735 530.678 223.43 531.248 223.765C531.819 224.099 532.977 226.035 532.977 226.035C532.977 226.035 537.524 225.313 539.341 224.161C541.158 223.008 542.053 221.054 542.053 221.054C542.053 221.054 540.666 218.67 540.096 217.992C539.525 217.315 538.718 216.18 538.718 216.18L525.446 193.232C525.446 193.232 522.172 167.468 521.242 165.075C520.312 162.681 517.099 158.942 517.099 158.942L496.56 168.357Z" fill="#A1A1A1" stroke="#263238" stroke-miterlimit="10" stroke-linecap="round" stroke-linejoin="round"/>
<path d="M495.902 170.645L518.583 160.543L517.091 158.96L496.447 167.451L495.902 170.645Z" fill="#263238" stroke="#263238" stroke-miterlimit="10" stroke-linecap="round" stroke-linejoin="round"/>
<path d="M500.898 169.466L501.477 171.287C501.477 171.287 500.345 171.982 500.573 172.545C500.802 173.117 502.294 174.472 502.294 174.472" stroke="#263238" stroke-miterlimit="10" stroke-linecap="round" stroke-linejoin="round"/>
<path d="M502.715 168.656L503.645 170.706C503.645 170.706 502.513 171.63 503.092 172.422C503.672 173.214 504.47 174.006 504.47 174.006" stroke="#263238" stroke-miterlimit="10" stroke-linecap="round" stroke-linejoin="round"/>
<path d="M503.232 177.411L502.434 176.417" stroke="#263238" stroke-miterlimit="10" stroke-linecap="round" stroke-linejoin="round"/>
<path d="M507.261 182.427L504.742 179.294" stroke="#263238" stroke-miterlimit="10" stroke-linecap="round" stroke-linejoin="round"/>
<path d="M532.793 210.522L534.706 213.822" stroke="#263238" stroke-miterlimit="10" stroke-linecap="round" stroke-linejoin="round"/>
<path d="M518.461 173.091L522.937 192.801L522.604 194.402C522.604 194.402 523.973 194.622 523.973 194.965C523.973 195.308 523.973 195.308 523.973 195.308L531.513 208.322" stroke="#263238" stroke-miterlimit="10" stroke-linecap="round" stroke-linejoin="round"/>
<path d="M486.072 217.878L485.379 223.333" stroke="#263238" stroke-miterlimit="10" stroke-linecap="round" stroke-linejoin="round"/>
<path d="M503.38 181.661L489.275 198.089C489.275 198.089 486.993 197.878 487.344 198.45C487.687 199.022 488.38 199.814 488.38 199.814L486.309 216.039" stroke="#263238" stroke-miterlimit="10" stroke-linecap="round" stroke-linejoin="round"/>
<path d="M480.957 140.13C480.957 140.13 482.177 151.366 483.151 152.571C484.126 153.777 493.473 162.682 493.473 162.682C493.473 162.682 495.369 168.251 495.457 168.656C495.545 169.061 494.974 169.756 496.344 169.501C497.713 169.246 516.619 160.482 517.26 159.831C517.901 159.18 518.217 158.044 518.208 157.481C518.208 156.918 517.629 156.109 517.304 155.713C516.979 155.308 515.434 154.27 515.434 154.27C515.434 154.27 506.525 139.373 504.577 137.534C502.628 135.686 495.475 129.518 492.245 128.893C489.015 128.268 484.74 128.462 484.74 128.462L480.957 140.13Z" fill="white" stroke="#263238" stroke-miterlimit="10" stroke-linecap="round" stroke-linejoin="round"/>
<path d="M454.85 127.327C454.85 127.327 453.103 124.74 452.638 124.37C452.172 124.001 446.924 121.044 446.924 121.044C446.924 121.044 445.177 121.414 446.467 122.338C447.758 123.262 449.969 126.121 449.969 126.121C449.969 126.121 448.126 125.567 447.485 125.567C446.845 125.567 446.564 127.045 447.301 127.23C448.038 127.415 448.96 127.785 448.96 127.785C448.96 127.785 450.435 130.187 451.172 130.556C451.909 130.926 453.287 131.014 453.287 131.014L482.946 143.297L484.508 134.797L454.85 127.327Z" fill="white" stroke="#263238" stroke-miterlimit="10" stroke-linecap="round" stroke-linejoin="round"/>
<path d="M476.805 124.388C476.805 124.388 475.172 122.162 472.6 120.147C470.029 118.123 461.462 121 460.233 128.356C460.233 128.356 459.136 131.841 460.891 133.759C462.647 135.677 465.377 137.34 465.377 137.34C465.377 137.34 468.308 140.719 468.633 140.552C468.958 140.385 470.073 138.678 470.073 138.678C470.073 138.678 474.768 141.229 475.251 140.825C475.734 140.42 477.323 137.49 477.323 137.49L479.921 139.17L483.309 128.788L479.183 127.934L476.805 124.388Z" fill="white" stroke="#263238" stroke-miterlimit="10" stroke-linecap="round" stroke-linejoin="round"/>
<path d="M482.641 127.987L478.945 140.306L482.351 142.787L485.704 128.04L482.641 127.987Z" fill="white" stroke="#263238" stroke-miterlimit="10" stroke-linecap="round" stroke-linejoin="round"/>
<path d="M482.034 149.017L481.367 171.551L483.096 174.921L485.405 170.882L482.903 147.661L482.034 149.017Z" fill="#39B4EF" stroke="#263238" stroke-miterlimit="10" stroke-linecap="round" stroke-linejoin="round"/>
<path d="M490.654 132.835C489.539 132.518 488.46 132.386 487.512 132.474C483.887 132.826 478.778 140.957 478.462 141.115C478.138 141.282 471.335 147.802 471.335 147.802L452.543 145.119L447.303 138.686C447.303 138.686 445.442 137.895 444.872 137.411C444.301 136.927 444.134 135.8 443.415 136.372C442.695 136.944 442.291 137.675 442.546 138.238C442.791 138.801 443.766 139.681 443.766 139.681L444.257 140.402C444.257 140.402 438.517 140.077 438.078 140.455C437.639 140.833 437.516 141.52 437.832 141.705C438.052 141.837 441.396 142.303 442.581 142.567C442.616 142.628 436.56 142.743 436.463 143.077C436.34 143.517 436.279 144.019 436.524 144.142C436.77 144.265 441.958 145.145 441.958 145.145C441.958 145.145 438.087 145.708 437.832 145.954C437.586 146.201 437.709 146.641 437.955 146.834C438.201 147.019 442.765 146.834 442.765 146.834C442.765 146.834 439.518 147.521 439.772 147.899C440.018 148.277 440.149 148.401 440.395 148.462C440.641 148.524 449.822 149.835 449.822 149.835L449.831 149.756L450.998 150.046C450.998 150.046 473.117 157.49 474.012 157.64C474.899 157.798 476.672 157.376 477.234 157.129C477.795 156.883 487.336 148.638 487.336 148.638L487.433 148.189" fill="white"/>
<path d="M490.654 132.835C489.539 132.518 488.46 132.386 487.512 132.474C483.887 132.826 478.778 140.957 478.462 141.115C478.138 141.282 471.335 147.802 471.335 147.802L452.543 145.119L447.303 138.686C447.303 138.686 445.442 137.895 444.872 137.411C444.301 136.927 444.134 135.8 443.415 136.372C442.695 136.944 442.291 137.675 442.546 138.238C442.791 138.801 443.766 139.681 443.766 139.681L444.257 140.402C444.257 140.402 438.517 140.077 438.078 140.455C437.639 140.833 437.516 141.52 437.832 141.705C438.052 141.837 441.396 142.303 442.581 142.567C442.616 142.628 436.56 142.743 436.463 143.077C436.34 143.517 436.279 144.019 436.524 144.142C436.77 144.265 441.958 145.145 441.958 145.145C441.958 145.145 438.087 145.708 437.832 145.954C437.586 146.201 437.709 146.641 437.955 146.834C438.201 147.019 442.765 146.834 442.765 146.834C442.765 146.834 439.518 147.521 439.772 147.899C440.018 148.277 440.149 148.401 440.395 148.462C440.641 148.524 449.822 149.835 449.822 149.835L449.831 149.756L450.998 150.046C450.998 150.046 473.117 157.49 474.012 157.64C474.899 157.798 476.672 157.376 477.234 157.129C477.795 156.883 487.336 148.638 487.336 148.638L487.433 148.189" stroke="#263238" stroke-miterlimit="10" stroke-linecap="round" stroke-linejoin="round"/>
<path d="M488.066 147.494L493.57 143.728" stroke="#263238" stroke-miterlimit="10" stroke-linecap="round" stroke-linejoin="round"/>
<path d="M488.758 147.758L494.147 145.611" stroke="#263238" stroke-miterlimit="10" stroke-linecap="round" stroke-linejoin="round"/>
<path d="M465.541 129.632C465.541 129.632 466.059 132.21 466.769 132.219C467.48 132.237 469.754 130.943 469.754 130.943L471.562 131.638C471.562 131.638 472.51 131.119 471.483 130.125C470.447 129.131 469.85 129.21 469.956 128.383C470.061 127.556 472.097 124.714 473.431 126.359C474.766 128.004 475.169 130.495 475.169 130.495L479.172 127.934C479.172 127.934 476.012 121.564 474.555 120.42C473.098 119.276 469.297 118.827 466.603 119.971C463.908 121.115 461.38 122.03 460.116 125.734C458.844 129.439 458.747 132.8 459.572 132.906C460.397 133.011 461.74 128.277 462.091 127.828C462.433 127.371 465.541 129.632 465.541 129.632Z" fill="#263238" stroke="#263238" stroke-miterlimit="10" stroke-linecap="round" stroke-linejoin="round"/>
<path d="M467.419 135.088C467.849 135.431 468.068 135.88 467.893 136.1C467.726 136.32 467.234 136.214 466.804 135.88C466.374 135.536 466.155 135.088 466.33 134.868C466.497 134.648 466.989 134.753 467.419 135.088Z" fill="#263238"/>
<path d="M464.602 135.228C464.602 135.228 464.207 133.653 465.691 133.372" stroke="#263238" stroke-miterlimit="10" stroke-linecap="round" stroke-linejoin="round"/>
<path d="M471.969 138.291C471.969 138.291 473.294 137.516 472.416 136.108" stroke="#263238" stroke-miterlimit="10" stroke-linecap="round" stroke-linejoin="round"/>
<path d="M470.477 146.896L476.41 158.256L480.474 155.827L473.952 145.462L470.477 146.896Z" fill="white" stroke="#263238" stroke-miterlimit="10" stroke-linecap="round" stroke-linejoin="round"/>
<path d="M490.883 155.854C490.883 155.854 498.765 159.611 507.7 159.514" stroke="#263238" stroke-miterlimit="10" stroke-linecap="round" stroke-linejoin="round"/>
<path d="M496.641 160.473C496.641 160.473 503.847 162.69 507.498 161.344" stroke="#263238" stroke-miterlimit="10" stroke-linecap="round" stroke-linejoin="round"/>
<path d="M577.741 347.083L575.108 349.732L469.719 266.845L472.361 264.205L577.741 347.083Z" fill="white" stroke="#263238" stroke-miterlimit="10" stroke-linecap="round" stroke-linejoin="round"/>
<path d="M469.719 347.083L472.361 349.732L577.741 266.845L575.108 264.205L469.719 347.083Z" fill="white" stroke="#263238" stroke-miterlimit="10" stroke-linecap="round" stroke-linejoin="round"/>
<path d="M579.98 239.779H576.25V404.427H579.98V239.779Z" fill="white" stroke="#263238" stroke-miterlimit="10" stroke-linecap="round" stroke-linejoin="round"/>
<path d="M473.863 239.779H470.133V404.427H473.863V239.779Z" fill="white" stroke="#263238" stroke-miterlimit="10" stroke-linecap="round" stroke-linejoin="round"/>
<path d="M471.84 263.034V266.774H576.193V263.034H471.84Z" fill="white" stroke="#263238" stroke-miterlimit="10" stroke-linecap="round" stroke-linejoin="round"/>
<path d="M471.836 347.5V351.24H576.189V347.5H471.836Z" fill="white" stroke="#263238" stroke-miterlimit="10" stroke-linecap="round" stroke-linejoin="round"/>
<path d="M561.374 347.083L558.732 349.732L453.352 266.845L455.994 264.205L561.374 347.083Z" fill="white" stroke="#263238" stroke-miterlimit="10" stroke-linecap="round" stroke-linejoin="round"/>
<path d="M453.352 347.083L455.994 349.732L561.374 266.845L558.732 264.205L453.352 347.083Z" fill="white" stroke="#263238" stroke-miterlimit="10" stroke-linecap="round" stroke-linejoin="round"/>
<path d="M455.465 263.038V266.777H559.818V263.038H455.465Z" fill="white" stroke="#263238" stroke-miterlimit="10" stroke-linecap="round" stroke-linejoin="round"/>
<path d="M455.461 347.503V351.243H559.814V347.503H455.461Z" fill="white" stroke="#263238" stroke-miterlimit="10" stroke-linecap="round" stroke-linejoin="round"/>
<path d="M455.73 239.779H452V404.427H455.73V239.779Z" fill="white" stroke="#263238" stroke-miterlimit="10" stroke-linecap="round" stroke-linejoin="round"/>
<path d="M563.445 239.779H559.715V404.427H563.445V239.779Z" fill="white" stroke="#263238" stroke-miterlimit="10" stroke-linecap="round" stroke-linejoin="round"/>
<path d="M586.3 235.107H445.582V242.251H586.3V235.107Z" fill="#263238" stroke="#263238" stroke-miterlimit="10" stroke-linecap="round" stroke-linejoin="round"/>
<path d="M133.315 299.032L151.273 306.59L170.171 303.167L170.53 306.405L151.808 313.612L131.34 304.61L133.315 299.032Z" fill="white" stroke="#263238" stroke-miterlimit="10" stroke-linecap="round" stroke-linejoin="round"/>
<path d="M148.943 279.779C148.943 279.779 152.656 281.39 152.349 283.396C152.05 285.402 150.348 285.912 149.54 287.012C148.741 288.121 148.838 287.514 148.838 287.514L148.136 281.284C148.136 281.284 148.039 278.873 148.943 279.779Z" fill="#263238" stroke="#263238" stroke-miterlimit="10" stroke-linecap="round" stroke-linejoin="round"/>
<path d="M133.804 275.151C133.804 275.151 131.996 272.837 128.292 273.039C124.579 273.242 122.973 275.45 122.973 278.064C122.973 280.677 123.377 279.876 117.856 281.478C112.344 283.088 112.344 285.2 112.238 286.3C112.142 287.408 110.834 287.408 109.131 289.318C107.428 291.227 107.323 297.114 113.537 299.322C119.752 301.531 124.904 297.958 126.01 293.339C127.116 288.71 125.984 287.505 127.379 286.203C128.784 284.892 127.379 282.886 127.985 280.475C128.59 278.064 131.9 277.061 132.997 276.858C134.103 276.665 134.006 276.057 133.804 275.151Z" fill="#263238" stroke="#263238" stroke-miterlimit="10" stroke-linecap="round" stroke-linejoin="round"/>
<path d="M130.373 291.227C130.373 291.227 119.463 297.298 116.786 300.871C114.109 304.443 112.836 318.522 112.836 318.522L126.011 326.969C126.011 326.969 134.92 317.844 135.657 315.161C136.403 312.477 134.7 297.457 134.7 297.457L130.373 291.227Z" fill="white" stroke="#263238" stroke-miterlimit="10" stroke-linecap="round" stroke-linejoin="round"/>
<path d="M146.532 278.037C140.502 272.925 131.602 276.489 130.9 279.894C130.197 283.299 130.399 286.22 130.399 286.22L130.908 290.717L130.373 291.227L128.117 292.292L133.91 303.379L137.307 295.257C137.307 295.257 141.45 297.668 142.117 297.668C142.784 297.668 146.532 292.943 146.532 292.943C146.532 292.943 147.699 293.77 148.077 293.682C148.445 293.594 148.516 288.851 148.516 288.851C148.516 288.851 149.586 285.622 149.692 282.868C149.797 280.105 146.532 278.037 146.532 278.037Z" fill="white" stroke="#263238" stroke-miterlimit="10" stroke-linecap="round" stroke-linejoin="round"/>
<path d="M145.31 288.438C145.196 289.01 145.328 289.52 145.618 289.582C145.907 289.643 146.232 289.221 146.346 288.649C146.46 288.077 146.329 287.567 146.039 287.505C145.749 287.443 145.425 287.866 145.31 288.438Z" fill="#263238"/>
<path d="M147.69 286.616C147.69 286.616 146.926 285.068 145.539 285.86" stroke="#263238" stroke-miterlimit="10" stroke-linecap="round" stroke-linejoin="round"/>
<path d="M143.829 294.157C143.829 294.157 142.231 294.448 141.977 292.697" stroke="#263238" stroke-miterlimit="10" stroke-linecap="round" stroke-linejoin="round"/>
<path d="M149.947 281.891C149.947 281.891 152.15 279.982 147.34 276.964C142.53 273.946 136.508 273.444 133.103 275.758C129.697 278.072 129.188 281.891 129.89 284.601C130.593 287.311 129.794 289.124 131.198 290.03C132.603 290.937 136.517 289.027 137.018 287.215C137.518 285.402 137.623 284.505 139.124 284.698C140.625 284.9 141.143 287.215 141.143 287.215C141.143 287.215 144.636 284.293 146.743 283.897C148.841 283.501 149.947 281.891 149.947 281.891Z" fill="#263238" stroke="#263238" stroke-miterlimit="10" stroke-linecap="round" stroke-linejoin="round"/>
<path d="M112.836 318.522C112.836 318.522 99.705 328.755 98.4761 334.923C97.2473 341.083 92.1828 369.891 92.1828 369.891C92.1828 369.891 82.1328 394.977 82.1328 395.681C82.1328 396.385 86.3459 397.265 86.3459 397.265C86.3459 397.265 101.46 375.223 101.987 374.51C102.514 373.806 111.844 350.19 111.844 350.19L120.92 370.331L127.985 398.109L132.55 397.229L133.015 365.57L124.036 332.371L126.011 326.978L112.836 318.522Z" fill="#263238" stroke="#263238" stroke-miterlimit="10" stroke-linecap="round" stroke-linejoin="round"/>
<path d="M88.0236 395.54C88.0236 395.54 89.8141 400.467 90.2354 400.89C90.6567 401.312 93.1846 403.283 93.0442 403.987C92.9037 404.691 86.3032 404.409 84.7584 404.269C83.2136 404.128 79.8431 400.327 79.4218 399.2C79.0005 398.074 81.5284 394.414 82.7923 393.569C84.065 392.724 88.0236 395.54 88.0236 395.54Z" fill="white" stroke="#263238" stroke-miterlimit="10" stroke-linecap="round" stroke-linejoin="round"/>
<path d="M132.736 395.681L136.361 398.972C136.361 398.972 142.584 401.391 142.584 401.919C142.584 402.447 141.356 403.362 137.66 403.89C133.974 404.418 128.506 403.732 127.101 403.204C125.697 402.676 127.979 398.1 127.979 398.1L132.736 395.681Z" fill="white" stroke="#263238" stroke-miterlimit="10" stroke-linecap="round" stroke-linejoin="round"/>
<path d="M122.352 306.124C122.799 308.077 123.229 307.69 124.906 308.781C128.267 310.954 148.956 317.73 148.956 317.73L170.24 308.869L174.471 307.998C174.471 307.998 175.445 308.218 175.884 308.324C176.314 308.429 176.973 308.218 177.403 307.892C177.833 307.567 175.56 306.59 175.56 306.59C175.56 306.59 178.272 306.696 179.141 306.485C180.01 306.273 180.115 305.393 179.685 305.393C179.255 305.393 175.674 304.962 175.674 304.962C175.674 304.962 180.229 303.66 180.448 303.335C180.668 303.009 180.018 302.243 179.36 302.243C178.702 302.243 174.585 302.895 174.585 302.895L175.884 301.918C175.884 301.918 178.491 301.161 179.246 300.501C180.001 299.85 179.141 299.41 179.141 299.41L176.534 299.736L172.523 301.258L172.953 300.167C172.953 300.167 174.041 299.296 174.146 298.213C174.252 297.122 173.058 298.213 173.058 298.213L169.477 301.583L168.503 305.059L149.465 310.286L130.146 298.653L129.496 298.433" fill="white"/>
<path d="M122.352 306.124C122.799 308.077 123.229 307.69 124.906 308.781C128.267 310.954 148.956 317.73 148.956 317.73L170.24 308.869L174.471 307.998C174.471 307.998 175.445 308.218 175.884 308.324C176.314 308.429 176.973 308.218 177.403 307.892C177.833 307.567 175.56 306.59 175.56 306.59C175.56 306.59 178.272 306.696 179.141 306.485C180.01 306.273 180.115 305.393 179.685 305.393C179.255 305.393 175.674 304.962 175.674 304.962C175.674 304.962 180.229 303.66 180.448 303.335C180.668 303.009 180.018 302.243 179.36 302.243C178.702 302.243 174.585 302.895 174.585 302.895L175.884 301.918C175.884 301.918 178.491 301.161 179.246 300.501C180.001 299.85 179.141 299.41 179.141 299.41L176.534 299.736L172.523 301.258L172.953 300.167C172.953 300.167 174.041 299.296 174.146 298.213C174.252 297.122 173.058 298.213 173.058 298.213L169.477 301.583L168.503 305.059L149.465 310.286L130.146 298.653L129.496 298.433" stroke="#263238" stroke-miterlimit="10" stroke-linecap="round" stroke-linejoin="round"/>
<path d="M120.93 308.649L127.758 312.89L135.737 301.733C135.737 301.733 128.733 297.017 127.969 296.911C127.214 296.806 124.607 296.26 123.089 298.653" fill="white"/>
<path d="M120.93 308.649L127.758 312.89L135.737 301.733C135.737 301.733 128.733 297.017 127.969 296.911C127.214 296.806 124.607 296.26 123.089 298.653" stroke="#263238" stroke-miterlimit="10" stroke-linecap="round" stroke-linejoin="round"/>
</g>
<defs>
<clipPath id="clip0_275_23995">
<rect width="636" height="405" fill="white"/>
</clipPath>
</defs>
</svg>
