<svg width="54" height="53" viewBox="0 0 54 53" fill="none" xmlns="http://www.w3.org/2000/svg">
<g clip-path="url(#clip0_225_41855)">
<path d="M27 14.9063C28.4741 14.9063 29.9151 14.4691 31.1407 13.6502C32.3664 12.8312 33.3217 11.6672 33.8858 10.3053C34.4499 8.94343 34.5975 7.44486 34.3099 5.9991C34.0223 4.55333 33.3125 3.22531 32.2702 2.18297C31.2278 1.14063 29.8998 0.430794 28.454 0.143213C27.0083 -0.144367 25.5097 0.00322933 24.1478 0.567339C22.7859 1.13145 21.6219 2.08673 20.803 3.31239C19.984 4.53805 19.5469 5.97904 19.5469 7.45313C19.5491 9.42915 20.335 11.3236 21.7323 12.7209C23.1295 14.1181 25.024 14.9041 27 14.9063ZM27 1.65625C28.1465 1.65625 29.2673 1.99623 30.2206 2.6332C31.1739 3.27017 31.9169 4.17552 32.3556 5.23476C32.7944 6.294 32.9092 7.45956 32.6855 8.58404C32.4618 9.70853 31.9097 10.7414 31.099 11.5521C30.2883 12.3628 29.2554 12.9149 28.1309 13.1386C27.0064 13.3623 25.8409 13.2475 24.7816 12.8087C23.7224 12.37 22.817 11.627 22.1801 10.6737C21.5431 9.72041 21.2031 8.59964 21.2031 7.45313C21.2049 5.91624 21.8162 4.4428 22.9029 3.35606C23.9897 2.26931 25.4631 1.65801 27 1.65625Z" fill="#39B4EF"/>
<path d="M25.4496 9.97068C25.6049 10.1259 25.8155 10.2131 26.0351 10.2131C26.2547 10.2131 26.4653 10.1259 26.6206 9.97068L30.4855 6.10665C30.5646 6.03026 30.6276 5.93888 30.6711 5.83784C30.7145 5.73681 30.7373 5.62814 30.7382 5.51818C30.7392 5.40822 30.7183 5.29918 30.6766 5.1974C30.635 5.09563 30.5735 5.00317 30.4957 4.92541C30.418 4.84766 30.3255 4.78617 30.2237 4.74453C30.122 4.70289 30.0129 4.68194 29.903 4.68289C29.793 4.68385 29.6843 4.70669 29.5833 4.75009C29.4823 4.7935 29.3909 4.85658 29.3145 4.93568L26.0351 8.21423L24.6886 6.86769C24.5324 6.71684 24.3232 6.63337 24.1061 6.63526C23.889 6.63715 23.6813 6.72424 23.5277 6.87778C23.3742 7.03132 23.2871 7.23903 23.2852 7.45616C23.2833 7.67329 23.3668 7.88248 23.5176 8.03866L25.4496 9.97068Z" fill="#39B4EF"/>
<path d="M50.3237 17.5224C50.3049 17.4152 50.2651 17.3127 50.2067 17.2209C50.1483 17.1291 50.0723 17.0496 49.9832 16.9872C49.894 16.9247 49.7934 16.8805 49.6872 16.8569C49.5809 16.8334 49.4711 16.831 49.3639 16.8499L45.2878 17.5679C45.1806 17.5867 45.078 17.6265 44.9861 17.685C44.8942 17.7435 44.8148 17.8195 44.7523 17.9087C44.6899 17.998 44.6456 18.0986 44.6221 18.205C44.5986 18.3114 44.5963 18.4213 44.6154 18.5285L44.7926 19.5314L42.4739 19.9364L33.1285 18.507C31.7599 18.3009 30.361 18.4783 29.0872 19.0196L27.0004 19.909L24.9193 19.0221C23.6435 18.4784 22.2414 18.3015 20.8706 18.5112L11.521 19.9397L9.20892 19.5322L9.38531 18.5285C9.40437 18.4213 9.40209 18.3114 9.3786 18.205C9.3551 18.0986 9.31086 17.998 9.24839 17.9087C9.18593 17.8195 9.10648 17.7435 9.01458 17.685C8.92269 17.6265 8.82016 17.5867 8.71287 17.5679L4.64098 16.8499C4.53374 16.8309 4.42379 16.8332 4.31743 16.8567C4.21107 16.8801 4.11039 16.9244 4.02116 16.9869C3.93193 17.0493 3.85589 17.1288 3.79741 17.2207C3.73893 17.3126 3.69915 17.4151 3.68036 17.5224L0.51278 35.462C0.493718 35.5693 0.496 35.6792 0.519494 35.7856C0.542989 35.892 0.587235 35.9926 0.649699 36.0819C0.712162 36.1711 0.791615 36.2471 0.883508 36.3056C0.975401 36.3641 1.07793 36.4039 1.18522 36.4227L5.26208 37.1407C5.36926 37.1596 5.47912 37.1572 5.58539 37.1337C5.69165 37.1101 5.79223 37.0659 5.88137 37.0034C5.97051 36.941 6.04647 36.8615 6.1049 36.7697C6.16332 36.6779 6.20307 36.5754 6.22187 36.4682L6.29723 36.0235L6.98126 36.1444C7.61173 37.5331 8.52896 38.7726 9.67267 39.7815C9.62884 40.5293 9.84172 41.2696 10.2761 41.8798C10.7104 42.4901 11.3401 42.9336 12.061 43.1371C11.6736 43.7806 11.5177 44.5371 11.6193 45.2813C11.7208 46.0255 12.0737 46.7126 12.6194 47.2287C13.1651 47.7448 13.8708 48.0589 14.6195 48.1189C15.3682 48.1788 16.1149 47.9811 16.7357 47.5585C16.8181 48.1084 17.039 48.6283 17.3778 49.0692C17.7165 49.5101 18.1619 49.8576 18.6721 50.0788C19.1822 50.3001 19.7402 50.3879 20.2936 50.3339C20.847 50.2799 21.3776 50.086 21.8353 49.7704C21.9128 50.2776 22.1084 50.7595 22.4062 51.1773C22.704 51.5951 23.0958 51.9371 23.55 52.1757C24.0042 52.4144 24.5081 52.543 25.0211 52.5513C25.5341 52.5595 26.0418 52.4472 26.5035 52.2233V52.2283L26.8347 52.4486C27.1975 52.6887 27.604 52.8551 28.0311 52.9381C28.4582 53.0212 28.8975 53.0193 29.3238 52.9325C29.7501 52.8458 30.1552 52.6759 30.5159 52.4326C30.8766 52.1893 31.1858 51.8773 31.4259 51.5144C31.7884 50.9625 31.9739 50.313 31.9575 49.6528C32.2262 49.726 32.5031 49.7644 32.7815 49.7671C33.2191 49.7684 33.6526 49.6829 34.0569 49.5154C34.4612 49.348 34.8282 49.1019 35.1367 48.7916C35.4452 48.4812 35.6891 48.1127 35.8541 47.7075C36.0191 47.3022 36.1021 46.8681 36.0981 46.4306C36.3618 46.4999 36.633 46.5361 36.9056 46.5382C37.3426 46.5382 37.7753 46.4518 38.1788 46.2838C38.5822 46.1158 38.9485 45.8697 39.2564 45.5595C39.5643 45.2494 39.8078 44.8814 39.9728 44.4767C40.1379 44.0721 40.2212 43.6387 40.2181 43.2017C40.7229 43.3333 41.2518 43.3427 41.761 43.2291C42.2702 43.1156 42.745 42.8824 43.1462 42.5489C43.5473 42.2153 43.8632 41.791 44.0677 41.3111C44.2723 40.8311 44.3595 40.3094 44.3223 39.789C45.467 38.7785 46.3844 37.5365 47.0137 36.1453L47.7035 36.0277L47.7813 36.4682C47.8001 36.5755 47.8399 36.678 47.8984 36.7699C47.9569 36.8618 48.0329 36.9413 48.1221 37.0037C48.2114 37.0662 48.312 37.1105 48.4184 37.1339C48.5248 37.1574 48.6347 37.1597 48.742 37.1407L52.818 36.4227C52.9253 36.4039 53.0278 36.3641 53.1197 36.3056C53.2116 36.2471 53.291 36.1711 53.3535 36.0819C53.416 35.9926 53.4602 35.892 53.4837 35.7856C53.5072 35.6792 53.5095 35.5693 53.4904 35.462L50.3237 17.5224ZM4.73456 35.3668L2.28828 34.9345L5.16353 18.6205L7.61064 19.0519L4.73456 35.3668ZM11.7049 41.0171C11.4227 40.6807 11.2856 40.246 11.3238 39.8085C11.362 39.3711 11.5723 38.9667 11.9086 38.6843L15.0812 36.0235C15.4176 35.7411 15.8525 35.6039 16.2902 35.6421C16.7278 35.6803 17.1324 35.8908 17.4148 36.2272C17.6973 36.5637 17.8345 36.9986 17.7963 37.4363C17.7581 37.8739 17.5476 38.2784 17.2111 38.5609L14.0385 41.2233C13.8718 41.363 13.6791 41.4686 13.4716 41.5338C13.2641 41.5991 13.0457 41.6228 12.829 41.6037C12.6123 41.5845 12.4015 41.5229 12.2086 41.4222C12.0157 41.3216 11.8446 41.1839 11.7049 41.0171ZM15.9631 46.0927C15.7964 46.2325 15.6039 46.3382 15.3964 46.4036C15.1889 46.4691 14.9705 46.493 14.7538 46.474C14.5371 46.4551 14.3262 46.3936 14.1332 46.2932C13.9402 46.1927 13.7689 46.0552 13.629 45.8886C13.4892 45.7219 13.3835 45.5293 13.3181 45.3218C13.2527 45.1143 13.2287 44.896 13.2477 44.6792C13.2667 44.4625 13.3281 44.2516 13.4286 44.0586C13.529 43.8657 13.6665 43.6943 13.8332 43.5545L17.6425 40.3604C17.9808 40.0956 18.4087 39.9727 18.836 40.0174C19.2632 40.0622 19.6563 40.2712 19.9324 40.6003C20.2084 40.9294 20.3458 41.353 20.3155 41.7815C20.2852 42.21 20.0896 42.6099 19.77 42.897L15.9631 46.0927ZM21.0602 48.3021C20.8936 48.4419 20.701 48.5475 20.4935 48.6129C20.286 48.6783 20.0677 48.7022 19.851 48.6832C19.6343 48.6642 19.4235 48.6027 19.2306 48.5022C19.0376 48.4017 18.8664 48.2642 18.7266 48.0976C18.5868 47.9309 18.4812 47.7384 18.4158 47.5309C18.3504 47.3234 18.3265 47.1051 18.3455 46.8884C18.3645 46.6717 18.426 46.4609 18.5265 46.2679C18.627 46.075 18.7644 45.9037 18.9311 45.7639L21.4693 43.6348C21.8064 43.3581 22.2391 43.2255 22.6734 43.2658C23.1077 43.3062 23.5086 43.5162 23.7889 43.8504C24.0693 44.1845 24.2065 44.6157 24.1709 45.0504C24.1352 45.4851 23.9295 45.8882 23.5984 46.1722L21.0602 48.3021ZM26.1565 50.5157C25.8195 50.7941 25.386 50.9279 24.9507 50.8881C24.5154 50.8482 24.1135 50.6379 23.8326 50.3029C23.5517 49.9679 23.4147 49.5355 23.4513 49.0999C23.488 48.6643 23.6953 48.2608 24.0282 47.9775L26.5656 45.8484C26.7322 45.7085 26.9247 45.6028 27.1322 45.5374C27.3396 45.4719 27.5579 45.448 27.7746 45.4669C27.9913 45.4858 28.2022 45.5472 28.3951 45.6476C28.5881 45.748 28.7594 45.8855 28.8992 46.0521C29.0391 46.2188 29.1447 46.4113 29.2101 46.6188C29.2755 46.8263 29.2994 47.0446 29.2804 47.2613C29.2614 47.478 29.1999 47.6889 29.0994 47.8818C28.9989 48.0747 28.8614 48.246 28.6947 48.3858L26.1565 50.5157ZM30.0429 50.6035C29.8234 50.9381 29.4892 51.1809 29.1031 51.2861C28.717 51.3914 28.3058 51.3518 27.9469 51.1749L29.7597 49.6545C29.9311 49.5111 30.0876 49.3507 30.2267 49.1758C30.3051 49.4115 30.3293 49.6618 30.2975 49.9082C30.2656 50.1545 30.1786 50.3905 30.0429 50.5985V50.6035ZM42.4142 40.9095C42.2942 41.0909 42.1396 41.2469 41.9593 41.3685C41.7789 41.4902 41.5764 41.5751 41.3632 41.6185C41.15 41.6619 40.9304 41.6628 40.7169 41.6213C40.5033 41.5798 40.3001 41.4966 40.1187 41.3765L33.2113 36.8078C33.1208 36.7421 33.0178 36.6955 32.9088 36.6708C32.7998 36.646 32.6868 36.6436 32.5768 36.6636C32.4668 36.6837 32.362 36.7258 32.2687 36.7875C32.1754 36.8491 32.0956 36.929 32.034 37.0224C31.9725 37.1157 31.9304 37.2206 31.9105 37.3306C31.8906 37.4407 31.8931 37.5536 31.918 37.6626C31.9429 37.7716 31.9896 37.8745 32.0553 37.965C32.121 38.0554 32.2044 38.1317 32.3004 38.1891L37.8273 41.8469C38.1934 42.0897 38.4481 42.468 38.5353 42.8986C38.6225 43.3292 38.5351 43.7767 38.2923 44.1429C38.0495 44.509 37.6712 44.7637 37.2406 44.8509C36.81 44.9381 36.3624 44.8507 35.9963 44.6079L30.4702 40.9509C30.3781 40.8892 30.2744 40.8469 30.1655 40.8266C29.9774 40.7912 29.7829 40.822 29.6149 40.9138C29.447 41.0055 29.3161 41.1526 29.2443 41.33C29.1726 41.5075 29.1645 41.7043 29.2215 41.8869C29.2785 42.0696 29.3969 42.227 29.5568 42.3322L33.6974 45.0758C34.0613 45.3194 34.3139 45.6973 34.3999 46.1267C34.4859 46.5561 34.3984 47.0021 34.1564 47.3671C33.9145 47.7321 33.5378 47.9864 33.1088 48.0745C32.6798 48.1625 32.2334 48.077 31.8672 47.8367L30.9232 47.2123C30.946 46.6047 30.7997 46.0027 30.5005 45.4733C30.2013 44.944 29.761 44.5081 29.2286 44.2143C28.6963 43.9205 28.0928 43.7803 27.4855 43.8093C26.8781 43.8382 26.2908 44.0353 25.7888 44.3785C25.7246 43.9479 25.5749 43.5346 25.3485 43.1628C25.122 42.791 24.8235 42.4682 24.4705 42.2135C24.1174 41.9589 23.717 41.7774 23.2927 41.6799C22.8684 41.5824 22.429 41.5707 22.0001 41.6457C22.0146 40.8618 21.745 40.0992 21.241 39.4987C20.737 38.8982 20.0327 38.5004 19.2582 38.3787C19.5006 37.695 19.5111 36.9504 19.2881 36.2601C19.0651 35.5698 18.621 34.9721 18.0244 34.5594C17.4278 34.1467 16.7119 33.9419 15.9873 33.9766C15.2627 34.0113 14.5697 34.2836 14.0154 34.7515L10.8428 37.4139C10.621 37.6049 10.426 37.825 10.2631 38.0682C9.43433 37.2137 8.78105 36.2051 8.34022 35.0993C8.28801 34.9678 8.20297 34.8519 8.09323 34.7626C7.98349 34.6733 7.85269 34.6136 7.71333 34.5892L6.58625 34.3905L8.91908 21.1612L11.3654 21.5926C11.4544 21.6079 11.5454 21.6079 11.6345 21.5926L21.1207 20.1484C22.1862 19.9849 23.2762 20.1226 24.2675 20.5459L24.8837 20.8084L21.577 22.2162C20.834 22.5339 20.2006 23.0625 19.7551 23.7366L16.6389 28.4346C16.2783 28.9864 16.1504 29.6582 16.2828 30.3039C16.4153 30.9496 16.7974 31.5168 17.3461 31.8821C18.2623 32.4858 19.3806 32.7016 20.4557 32.4823C21.5308 32.263 22.4751 31.6263 23.0817 30.7119L24.5036 28.5704L27.527 27.9518C27.8529 28.9565 28.4065 29.8723 29.1445 30.6279C29.8826 31.3835 30.7852 31.9584 31.782 32.3077C32.1352 32.4337 32.4976 32.5325 32.866 32.6034L41.9464 38.6156C42.3124 38.8578 42.5673 39.2355 42.6551 39.6657C42.7428 40.0958 42.6562 40.5432 42.4142 40.9095ZM46.2857 34.5909C46.1458 34.6152 46.0145 34.6752 45.9044 34.765C45.7943 34.8547 45.7092 34.9713 45.6572 35.1035C45.2161 36.2143 44.5605 37.2274 43.7277 38.0847C43.4945 37.7492 43.2004 37.4604 42.8606 37.2334L35.8215 32.5769C36.7362 32.3941 37.6076 32.0382 38.3887 31.5285L39.6897 30.6755C39.8733 30.5547 40.0014 30.3659 40.0459 30.1506C40.0903 29.9354 40.0474 29.7113 39.9266 29.5277C39.8058 29.3441 39.617 29.216 39.4017 29.1716C39.1865 29.1272 38.9624 29.1701 38.7788 29.2909L37.4819 30.1438C36.7319 30.6365 35.8774 30.9476 34.9862 31.0527C34.095 31.1578 33.1916 31.0539 32.3476 30.7492C31.5708 30.4786 30.869 30.0281 30.2996 29.4346C29.7301 28.841 29.309 28.1213 29.0707 27.334C29.0193 27.1684 28.9763 26.992 28.9398 26.8173C28.895 26.6029 28.7671 26.4151 28.5841 26.2948C28.4012 26.1745 28.178 26.1316 27.9635 26.1755L23.8386 27.0201C23.6239 27.064 23.4355 27.1912 23.3144 27.3738L21.7086 29.7993C21.3445 30.3476 20.7781 30.7293 20.1333 30.8611C19.4885 30.9928 18.8178 30.8639 18.2678 30.5024C18.0843 30.3802 17.9563 30.1905 17.9117 29.9746C17.867 29.7587 17.9093 29.5338 18.0293 29.3488L21.1439 24.6517C21.411 24.2483 21.79 23.9317 22.2345 23.7408L29.7381 20.5442C30.7301 20.1231 31.8194 19.9852 32.885 20.1459L42.367 21.5951C42.4557 21.6088 42.5459 21.6088 42.6345 21.5951L45.0858 21.1661L47.4136 34.3954L46.2857 34.5909ZM49.267 35.3652L46.3909 19.0511L48.838 18.6196L51.7133 34.9337L49.267 35.3652Z" fill="#39B4EF"/>
</g>
<defs>
<clipPath id="clip0_225_41855">
<rect width="53" height="53" fill="white" transform="translate(0.5)"/>
</clipPath>
</defs>
</svg>
