<svg width="233" height="233" viewBox="0 0 233 233" fill="none" xmlns="http://www.w3.org/2000/svg">
<path opacity="0.7" d="M24.408 72.8346C24.408 72.8346 9.90786 110.297 30.285 148.03C50.6569 185.768 92.6333 205.688 126.226 222.731C159.818 239.773 194.701 231.473 211.276 203.56C227.851 175.647 205.113 155.721 205.087 115.917C205.061 76.113 211.042 65.5753 189.505 31.9481C167.968 -1.67898 115.101 -9.12565 75.1375 15.8163C35.1738 40.7582 24.408 72.8346 24.408 72.8346Z" fill="white"/>
<path d="M55.1391 216.98C67.4132 229.943 97.5472 225.197 110.601 216.98C152.968 190.311 227.226 145.912 230.591 81.5924C232.021 54.2515 207.926 39.8994 197.862 35.6895C173.688 25.5733 147.164 22.5394 120.988 21.3686C93.6465 20.1457 64.3187 21.098 39.6924 34.4458C30.3672 39.5039 21.5673 45.9827 15.5395 54.8344C9.41802 63.8266 5.90222 74.5308 4.96606 85.3392C3.4578 102.772 8.149 120.252 15.2378 136.248C22.3266 152.245 31.7767 167.055 40.457 182.25C46.1103 192.163 44.7997 206.052 55.1391 216.98Z" fill="#39B4EF"/>
<path opacity="0.7" d="M55.1391 216.98C67.4132 229.943 97.5472 225.197 110.601 216.98C152.968 190.311 227.226 145.912 230.591 81.5924C232.021 54.2515 207.926 39.8994 197.862 35.6895C173.688 25.5733 147.164 22.5394 120.988 21.3686C93.6465 20.1457 64.3187 21.098 39.6924 34.4458C30.3672 39.5039 21.5673 45.9827 15.5395 54.8344C9.41802 63.8266 5.90222 74.5308 4.96606 85.3392C3.4578 102.772 8.149 120.252 15.2378 136.248C22.3266 152.245 31.7767 167.055 40.457 182.25C46.1103 192.163 44.7997 206.052 55.1391 216.98Z" fill="white"/>
<path d="M162.121 185.898C162.267 140.958 162.267 91.0012 162.121 46.3628" stroke="#002E47" stroke-miterlimit="10" stroke-linecap="round" stroke-linejoin="round"/>
<path d="M170.469 32.4688C170.588 82.1549 170.588 125.867 170.469 175.537" stroke="#002E47" stroke-miterlimit="10" stroke-linecap="round" stroke-linejoin="round"/>
<path d="M162.121 35.7051V17.4917C162.121 17.4917 163.614 16.7476 166.297 16.7476C169.236 16.7476 170.474 17.4917 170.474 17.4917V22.5602" stroke="#002E47" stroke-miterlimit="10" stroke-linecap="round" stroke-linejoin="round"/>
<path d="M214.498 16.7427L216.215 17.44L205.204 26.8069L170.468 32.4686L168.824 31.9743" stroke="#002E47" stroke-miterlimit="10" stroke-linecap="round" stroke-linejoin="round"/>
<path d="M168.824 22.9195L202.427 15.5093L214.498 16.7426L204.128 26.0314L168.824 31.9742V22.9195Z" stroke="#002E47" stroke-miterlimit="10" stroke-linecap="round" stroke-linejoin="round"/>
<path d="M135.015 29.7676L133.605 30.6158L142.145 40.8049L162.122 46.3626L164.249 45.8266" stroke="#002E47" stroke-miterlimit="10" stroke-linecap="round" stroke-linejoin="round"/>
<path d="M164.25 36.5224L143.519 28.5293L135.016 29.7678L143.795 40.2483L164.25 45.8268V36.5224Z" stroke="#002E47" stroke-miterlimit="10" stroke-linecap="round" stroke-linejoin="round"/>
<path d="M97.3906 42.3403V219.765" stroke="#002E47" stroke-miterlimit="10" stroke-linecap="round" stroke-linejoin="round"/>
<path d="M48.6953 28.8521C65.0105 32.7185 81.1333 38.4427 97.3913 42.3404" stroke="#002E47" stroke-miterlimit="10" stroke-linecap="round" stroke-linejoin="round"/>
<path d="M29.7539 38.8384C52.0085 44.1671 74.8924 49.8913 97.3915 55.5947" stroke="#002E47" stroke-miterlimit="10" stroke-linecap="round" stroke-linejoin="round"/>
<path d="M15.1953 50.8955C42.1255 57.1765 69.6903 62.9007 97.3902 68.8487" stroke="#002E47" stroke-miterlimit="10" stroke-linecap="round" stroke-linejoin="round"/>
<path d="M6.875 64.9824C36.9258 70.7066 67.0909 76.4308 97.3913 82.0978" stroke="#002E47" stroke-miterlimit="10" stroke-linecap="round" stroke-linejoin="round"/>
<path d="M0.519531 79.8701L97.3914 95.3515" stroke="#002E47" stroke-miterlimit="10" stroke-linecap="round" stroke-linejoin="round"/>
<path d="M0.519531 95.9658L97.3914 108.606" stroke="#002E47" stroke-miterlimit="10" stroke-linecap="round" stroke-linejoin="round"/>
<path d="M2.77734 112.285C34.326 114.939 65.5313 119.102 97.392 121.86" stroke="#002E47" stroke-miterlimit="10" stroke-linecap="round" stroke-linejoin="round"/>
<path d="M7.25 128.63C31.7254 130.551 56.1696 131.591 81.1339 134.193C86.3348 134.193 92.0558 134.193 97.3919 135.109" stroke="#002E47" stroke-miterlimit="10" stroke-linecap="round" stroke-linejoin="round"/>
<path d="M13.3086 144.783C41.6067 146.162 69.1714 147.723 97.3914 148.363" stroke="#002E47" stroke-miterlimit="10" stroke-linecap="round" stroke-linejoin="round"/>
<path d="M20.8828 160.597C46.2892 160.732 71.7735 161.253 97.3931 161.617" stroke="#002E47" stroke-miterlimit="10" stroke-linecap="round" stroke-linejoin="round"/>
<path d="M29.7109 175.954C52.0072 175.824 74.8911 175.303 97.3902 174.872" stroke="#002E47" stroke-miterlimit="10" stroke-linecap="round" stroke-linejoin="round"/>
<path d="M37.4297 190.837C57.2087 189.874 77.4922 188.833 97.3908 188.12" stroke="#002E47" stroke-miterlimit="10" stroke-linecap="round" stroke-linejoin="round"/>
<path d="M91.2695 48.9595V203.315" stroke="#002E47" stroke-miterlimit="10" stroke-linecap="round" stroke-linejoin="round"/>
<path d="M62.1562 35.5962V131.497" stroke="#002E47" stroke-miterlimit="10" stroke-linecap="round" stroke-linejoin="round"/>
<path d="M29.0273 48.5381V154.519" stroke="#002E47" stroke-miterlimit="10" stroke-linecap="round" stroke-linejoin="round"/>
<path d="M228.642 52.3682L177.762 58.2485V177.588" stroke="#002E47" stroke-miterlimit="10" stroke-linecap="round" stroke-linejoin="round"/>
<path d="M232.257 67.6934L184.523 71.6535V167.003" stroke="#002E47" stroke-miterlimit="10" stroke-linecap="round" stroke-linejoin="round"/>
<path d="M232.254 90.9492L185.898 94.2589" stroke="#002E47" stroke-miterlimit="10" stroke-linecap="round" stroke-linejoin="round"/>
<path d="M225.397 111.166L187.27 113.648" stroke="#002E47" stroke-miterlimit="10" stroke-linecap="round" stroke-linejoin="round"/>
<path d="M203.203 73.6777V146.875" stroke="#002E47" stroke-miterlimit="10" stroke-linecap="round" stroke-linejoin="round"/>
<path d="M49.2734 208.327C50.6933 211.324 52.55 214.243 55.14 216.975C67.4142 229.938 98.0734 225.192 111.122 216.975C115.413 214.275 119.506 211.392 124.343 208.327" stroke="#002E47" stroke-miterlimit="10" stroke-linecap="round" stroke-linejoin="round"/>
<path d="M171.578 120.226L166.803 138.861L175.13 187.345L175.062 187.36L174.865 187.402C171.323 188.177 133.169 196.483 131.302 196.326C129.341 196.165 98.6874 191.445 98.6874 191.445L71.5595 194.62L49.8042 185.019L29.6975 188.567L23.9766 117.551C23.9766 117.551 28.2309 82.8154 26.2702 73.4693C26.2702 73.4693 59.7535 78.2777 62.8428 78.6107C65.9322 78.9437 101.922 67.563 101.922 67.563L132.301 77.6324L157.749 74.4164L195.408 92.0574C195.403 92.0522 170.969 116.427 171.578 120.226Z" fill="white" stroke="#002E47" stroke-miterlimit="10" stroke-linecap="round" stroke-linejoin="round"/>
<path d="M30.185 76.5133L62.8415 81.1135L101.432 71.6113L132.299 80.2549L156.52 77.6321L190.06 92.052C190.06 92.052 170.963 115.729 170.229 117.244C169.496 118.753 163.375 138.866 163.375 138.866L171.452 185.023L132.294 193.646L99.3569 188.37L73.2536 190.67L51.0614 181.141L32.6295 185.018L26.6484 118.612C26.6536 118.612 32.1458 91.594 30.185 76.5133Z" fill="#39B4EF" stroke="#002E47" stroke-miterlimit="10" stroke-linecap="round" stroke-linejoin="round"/>
<path d="M143.977 101.31L149.246 100.03L174.938 111.015C176.202 109.407 177.622 107.612 179.073 105.78L151.248 94.0036L145.381 95.648L149.058 78.4389L144.196 78.9697L139.733 97.2247L125.316 101.263L97.5748 103.683L86.4917 109.188L87.0326 92.9472L100.586 86.5569L116.376 89.6011L119.065 76.5395L114.27 75.1969L112.751 84.6835L100.586 82.0816L87.1938 88.1284L87.6307 75.0044L81.1608 76.5968V111.832L64.7208 120.002V80.6453L62.8484 81.1033L58.7449 80.5205L59.4523 93.988H48.3171L30.5093 80.0313C30.6237 82.04 30.6393 84.1787 30.5873 86.3852L46.4084 99.6289H59.7435L60.274 109.672L59.7799 113.804L26.9883 122.198L27.1599 124.092L59.5303 115.927L58.7657 122.422L27.7008 130.092L28.2781 136.472L44.7181 132.116L46.2524 151.745L31.1022 167.799L31.6951 174.371L37.0416 168.71L38.2274 183.822L39.7565 183.499L38.7163 166.935L49.789 155.211L55.1563 153.842L76.3604 146.999L75.8975 150.08L64.107 186.704L68.637 188.651L74.8313 168.668L83.9589 166.972L102.313 174.913L110.827 175.459L109.381 189.941L111.648 190.306L112.637 175.574L133.991 176.937L149.422 174.715L151.388 189.41L155.357 188.536L153.464 174.132L169.175 171.868L168.385 167.372L134.948 171.811L121.442 170.625L123.361 152.432L135.11 146.011H138.771L165.114 148.68L164.188 143.346L139.52 141.005H133.768L136.66 123.613L143.977 101.31ZM56.6126 147.676L47.667 150.33L46.4812 131.664L60.2636 128.016L80.8175 117.4L77.4213 139.901L56.6126 147.676ZM85.6231 161.898L76.35 163.74L80.1882 151.344L86.008 114.715L97.7256 108.663L102.276 127.126L100.576 142.519L95.4632 165.853L85.6231 161.898ZM128.109 144.985L120.037 148.81L117.068 170.281L103.571 169.095L98.9166 167.227L104.128 144.054L106.089 128.011H115.403L130.949 125.393L128.109 144.985ZM131.724 121.667L116.121 124.878H103.566L99.7904 108.356L124.276 106.097L138.1 102.741L131.724 121.667Z" fill="white" stroke="#002E47" stroke-miterlimit="10" stroke-linecap="round" stroke-linejoin="round"/>
<path opacity="0.5" d="M138.094 136.534L139.503 125.393L157.498 129.348L156.032 138.861L138.094 136.534Z" fill="white"/>
<path opacity="0.5" d="M149.242 124.878L152.909 114.652L166.462 119.762L163.352 130.342L149.242 124.878Z" fill="white"/>
<path opacity="0.5" d="M146.302 102.741H147.8L153.464 105.306L147.8 122.494L142.49 120.902L140.789 120.527L146.302 102.741Z" fill="white"/>
<path opacity="0.5" d="M157.498 107.299L170.719 112.618L168.519 116.427L156.031 112.618L157.498 107.299Z" fill="white"/>
<path opacity="0.5" d="M149.242 92.0519L151.806 80.2548L156.029 79.5835L162.27 82.0917L157.85 94.2583L151.889 92.0519H149.242Z" fill="white"/>
<path opacity="0.5" d="M160.625 95.5285L163.376 88.7427L181.923 97.1937L178.251 102.741L160.625 95.5285Z" fill="white"/>
<path opacity="0.5" d="M121.102 79.5835L130.947 82.4404L127.957 98.1143H126.527H117.836L121.102 79.5835Z" fill="white"/>
<path opacity="0.5" d="M133.442 82.8676L140.785 81.6187L138.091 95.5285L130.945 97.381L133.442 82.8676Z" fill="white"/>
<path opacity="0.5" d="M115.819 92.0523L114.929 98.8485L98.9159 99.5823L89.2891 104.547V95.5285L100.944 89.5024L115.819 92.0523Z" fill="white"/>
<path opacity="0.5" d="M89.9847 76.5135L101.551 73.4692L100.657 80.255L89.3086 84.6939L89.9847 76.5135Z" fill="white"/>
<path opacity="0.5" d="M103.023 80.255L111.407 82.092L112.739 75.8838L104.064 74.4111L103.023 80.255Z" fill="white"/>
<path opacity="0.5" d="M66.7891 82.0917V92.0519L78.9071 88.7422V79.5835L66.7891 82.0917Z" fill="white"/>
<path opacity="0.5" d="M67.6211 95.7418V115.428L74.3146 112.618L73.2589 100.503L78.907 98.8484V92.0522L67.6211 95.7418Z" fill="white"/>
<path opacity="0.5" d="M47.3203 101.971L48.2409 114.652L57.0512 112.618L58.4658 108.663V101.971H47.3203Z" fill="white"/>
<path opacity="0.5" d="M33.0031 92.0522L44.6271 101.055V107.299L31.5312 108.309C31.5312 108.309 33.1851 97.381 33.0031 92.0522Z" fill="white"/>
<path opacity="0.5" d="M31.5321 110.791L43.5098 109.688V115.735L29.4258 119.58L31.5321 110.791Z" fill="white"/>
<path opacity="0.5" d="M47.3203 81.6187V90.2154L57.0512 90.9491L56.6507 82.0922L47.3203 81.6187Z" fill="white"/>
<path opacity="0.5" d="M88.0445 116.427L96.4023 112.529L98.9144 126.783L86.375 128.989L88.0445 116.427Z" fill="white"/>
<path opacity="0.5" d="M89.9847 131.154L89.3086 140.921L98.0045 140.005V128.989L89.9847 131.154Z" fill="white"/>
<path opacity="0.5" d="M114.927 109.688L113.793 122.494H118.521L129.037 120.756L135.096 105.306L123.55 108.663L114.927 109.688Z" fill="white"/>
<path opacity="0.5" d="M103.023 110.422V113.898L111.777 113.648V109.688L103.023 110.422Z" fill="white"/>
<path opacity="0.5" d="M115.819 132.668L114.93 142.945L126.47 140.921L127.958 128.989L115.819 132.668Z" fill="white"/>
<path opacity="0.5" d="M105.717 146.042L113.794 146.62L111.776 167.242L104.027 167.003L101.125 165.957L105.717 146.042Z" fill="white"/>
<path opacity="0.5" d="M108.354 131.154L113.794 131.945L112.738 138.861H107.402L108.354 131.154Z" fill="white"/>
<path opacity="0.5" d="M151.809 150.33L162.273 151.344L164.66 163.958L151.809 164.224V150.33Z" fill="white"/>
<path opacity="0.5" d="M127.956 154.519L138.092 153.702L139.502 168.481H126.281L127.956 154.519Z" fill="white"/>
<path opacity="0.5" d="M156.031 176.963L157.498 183.718L164.66 182.552L163.375 175.527L156.031 176.963Z" fill="white"/>
<path opacity="0.5" d="M132.893 179.622L147.128 177.889L147.799 185.752L132.3 189.598L123.531 188.567L126.589 178.893L132.893 179.622Z" fill="white"/>
<path opacity="0.5" d="M59.2593 156.642L70.8313 154.519L70.0511 162.512L66.7902 170.307L58.4688 172.524L59.2593 156.642Z" fill="white"/>
<path opacity="0.5" d="M49.1562 133.86V140.187L58.0706 138.86L62.8398 137.023L62.5954 128.989L59.35 131.154L49.1562 133.86Z" fill="white"/>
<path opacity="0.5" d="M30.6172 138.861L42.366 135.967L43.5102 148.123L32.2659 150.33L30.6172 138.861Z" fill="white"/>
<path opacity="0.5" d="M31.4336 160.461L38.1427 154.519L39.8902 156.132L32.9471 162.798L31.4336 160.461Z" fill="white"/>
<path opacity="0.5" d="M33.1875 176.963L36.4693 176.188L37.0622 182.812L33.8116 183.286L33.1875 176.963Z" fill="white"/>
<path opacity="0.5" d="M41.8129 180.98L41.1836 169.402L49.1566 168.48V179.918L41.8129 180.98Z" fill="white"/>
<path opacity="0.5" d="M92.0743 154.519C94.5532 154.519 96.5627 152.508 96.5627 150.028C96.5627 147.548 94.5532 145.537 92.0743 145.537C89.5954 145.537 87.5859 147.548 87.5859 150.028C87.5859 152.508 89.5954 154.519 92.0743 154.519Z" fill="white"/>
<path opacity="0.1" d="M171.58 120.226L166.806 138.861L175.133 187.345L175.065 187.36L174.867 187.402L131.305 196.326L142.627 119.976L157.751 74.4111L195.411 92.0521C195.406 92.0521 170.972 116.427 171.58 120.226Z" fill="#002E47"/>
<path opacity="0.1" d="M132.304 77.6322L120.779 118.508L110.741 136.264L98.6956 191.445L71.5625 194.619L91.5443 148.123L96.2979 113.356L102.321 67.6929L132.304 77.6322Z" fill="#002E47"/>
<path opacity="0.1" d="M62.6003 78.5846L61.7734 116.552L50.3834 185.279L49.8061 185.024L29.6995 188.573L24.4258 123.119L55.8964 110.937L61.1077 78.3921C61.763 78.4754 62.2675 78.543 62.6003 78.5846Z" fill="#002E47"/>
<path d="M141.287 99.1605C141.11 98.9836 140.856 98.9108 140.616 98.9732L124.826 103.053L97.9534 105.077C97.8598 105.082 97.7713 105.109 97.6881 105.15L62.3949 123.259L62.9046 111.795V96.3453C62.9046 95.9602 62.5925 95.6479 62.2076 95.6479H55.1344C54.7496 95.6479 54.4375 95.9602 54.4375 96.3453C54.4375 96.7304 54.7496 97.0426 55.1344 97.0426H61.5107V111.764L60.949 124.399C60.9386 124.649 61.0582 124.883 61.2663 125.018C61.4743 125.154 61.7396 125.164 61.958 125.05L98.1926 106.456L124.988 104.437C125.029 104.432 125.071 104.427 125.107 104.416L139.784 100.628L133.46 122.999C133.455 123.025 133.449 123.051 133.444 123.077L132.425 129.254L131.832 129.233C131.697 129.228 131.582 129.374 131.624 129.494L132.498 131.934C132.571 132.137 132.815 132.194 132.929 132.028L134.573 129.65C134.672 129.504 134.547 129.327 134.349 129.317L133.824 129.301L134.807 123.343L141.448 99.8422C141.526 99.5925 141.464 99.3375 141.287 99.1605Z" fill="#39B4EF"/>
<path opacity="0.6" d="M141.287 99.1605C141.11 98.9836 140.856 98.9108 140.616 98.9732L124.826 103.053L97.9534 105.077C97.8598 105.082 97.7713 105.109 97.6881 105.15L62.3949 123.259L62.9046 111.795V96.3453C62.9046 95.9602 62.5925 95.6479 62.2076 95.6479H55.1344C54.7496 95.6479 54.4375 95.9602 54.4375 96.3453C54.4375 96.7304 54.7496 97.0426 55.1344 97.0426H61.5107V111.764L60.949 124.399C60.9386 124.649 61.0582 124.883 61.2663 125.018C61.4743 125.154 61.7396 125.164 61.958 125.05L98.1926 106.456L124.988 104.437C125.029 104.432 125.071 104.427 125.107 104.416L139.784 100.628L133.46 122.999C133.455 123.025 133.449 123.051 133.444 123.077L132.425 129.254L131.832 129.233C131.697 129.228 131.582 129.374 131.624 129.494L132.498 131.934C132.571 132.137 132.815 132.194 132.929 132.028L134.573 129.65C134.672 129.504 134.547 129.327 134.349 129.317L133.824 129.301L134.807 123.343L141.448 99.8422C141.526 99.5925 141.464 99.3375 141.287 99.1605Z" fill="#002E47"/>
<path d="M58.2705 71.2993C55.3008 68.328 50.49 68.328 47.5203 71.2993C44.5505 74.2707 44.5505 79.0843 47.5203 82.0556L52.8928 87.4312L58.2653 82.0556C61.2402 79.0843 61.2402 74.2707 58.2705 71.2993ZM55.1084 78.8917C53.8861 80.1146 51.9046 80.1146 50.6824 78.8917C49.4602 77.6688 49.4602 75.6862 50.6824 74.4633C51.9046 73.2404 53.8861 73.2404 55.1084 74.4633C56.3306 75.6862 56.3306 77.6688 55.1084 78.8917Z" fill="#002E47"/>
<path d="M47.5039 80.0107C48.1072 81.2232 48.955 82.3212 50.0055 83.1695" stroke="white" stroke-miterlimit="10" stroke-linecap="round" stroke-linejoin="round"/>
<path d="M49.3527 71.2163C46.7627 72.7827 46.0761 75.7905 46.9291 78.5641" stroke="white" stroke-miterlimit="10" stroke-linecap="round" stroke-linejoin="round"/>
<path d="M52.897 70.2168C52.2416 70.2168 51.5863 70.3209 50.957 70.5082" stroke="white" stroke-miterlimit="10" stroke-linecap="round" stroke-linejoin="round"/>
<path d="M126.817 119.622C123.848 116.651 119.037 116.651 116.067 119.622C113.097 122.593 113.097 127.407 116.067 130.378L121.44 135.754L126.812 130.378C129.787 127.407 129.787 122.593 126.817 119.622ZM123.655 127.214C122.433 128.437 120.451 128.437 119.229 127.214C118.007 125.992 118.007 124.009 119.229 122.786C120.451 121.563 122.433 121.563 123.655 122.786C124.877 124.009 124.877 125.992 123.655 127.214Z" fill="#002E47"/>
<path d="M116.051 128.333C116.654 129.546 117.502 130.644 118.552 131.492" stroke="white" stroke-miterlimit="10" stroke-linecap="round" stroke-linejoin="round"/>
<path d="M117.9 119.544C115.31 121.11 114.623 124.118 115.476 126.892" stroke="white" stroke-miterlimit="10" stroke-linecap="round" stroke-linejoin="round"/>
<path d="M121.44 118.54C120.785 118.54 120.129 118.644 119.5 118.831" stroke="white" stroke-miterlimit="10" stroke-linecap="round" stroke-linejoin="round"/>
<path d="M171.575 120.221C170.961 120.465 165.822 121.079 165.822 121.079C165.947 119.856 168.516 117.65 168.516 116.427C168.516 115.204 167.414 115.449 167.414 115.449C167.169 117.041 163.128 119.981 162.27 120.345C161.412 120.715 159.087 128.552 157.829 129.78C147.952 139.636 138.585 145.334 135.096 152.162C131.606 158.989 125.547 162.522 125.547 162.522C125.547 162.522 123.529 188.51 131.242 176.963C138.955 165.421 141.706 166.092 145.565 160.946C149.419 155.799 156.95 144.049 162.827 134.203C165.828 131.653 168.152 132.835 169.988 130.998C170.373 130.613 170.113 129.036 170.722 128.011C171.335 126.98 172.313 125.123 172.188 124.019C172.063 122.916 173.046 122.302 173.166 121.693C173.291 121.079 172.188 119.976 171.575 120.221Z" fill="#F3F8FF" stroke="#002E47" stroke-miterlimit="10"/>
<path d="M53.0586 156.351C51.0563 148.951 43.0729 141.437 35.4432 129.749C34.4654 128.287 33.8101 120.132 33.0456 119.596C32.2811 119.06 28.9369 115.345 29.0305 113.737C29.0305 113.737 28.0007 113.268 27.7511 114.465C27.4962 115.662 29.5558 118.353 29.4258 119.575C29.4258 119.575 24.5213 117.91 23.9752 117.546C23.4291 117.182 22.1237 118.03 22.1133 118.654C22.1081 119.279 22.9402 120.08 22.5918 121.137C22.2433 122.188 22.8154 124.212 23.2055 125.346C23.5904 126.481 23.0079 127.964 23.3043 128.422C24.719 130.597 27.2414 129.926 29.6494 133.043C33.3628 143.893 38.2985 156.949 41.0081 162.778C43.7178 168.611 46.5523 168.517 51.7116 181.412C56.8709 194.302 60.2671 168.46 60.2671 168.46C60.2671 168.46 55.061 163.751 53.0586 156.351Z" fill="#F3F8FF" stroke="#002E47" stroke-miterlimit="10"/>
<path d="M56.2935 159.874C56.2935 159.874 57.625 156.715 55.1337 155.711C52.6425 154.706 49.522 156.512 49.522 156.512C49.522 156.512 44.9296 157.667 44.7476 162.523C44.7476 162.523 43.7178 178.831 47.5352 178.894C51.3631 178.956 56.2935 159.874 56.2935 159.874Z" fill="#B3C7EB" stroke="#002E47" stroke-miterlimit="10" stroke-linecap="round" stroke-linejoin="round"/>
<path d="M127.956 160.441C127.956 160.441 127.753 157.881 130.874 158.224C133.994 158.562 136.568 163.012 136.381 169.241C136.381 169.241 137.812 177.187 133.973 176.968C130.14 176.75 127.956 160.441 127.956 160.441Z" fill="#B3C7EB" stroke="#002E47" stroke-miterlimit="10" stroke-linecap="round" stroke-linejoin="round"/>
<path d="M67.7094 174.517C67.7094 174.517 57.0788 162.117 55.1388 157.829C55.1388 157.829 47.816 157.589 46.833 164.016C45.8552 170.443 46.833 176.963 46.833 176.963C46.833 176.963 54.0466 196.67 57.0528 204.132L67.7094 174.517Z" fill="#E2EDFF"/>
<mask id="mask0_246_22500" style="mask-type:luminance" maskUnits="userSpaceOnUse" x="46" y="157" width="22" height="48">
<path d="M67.7094 174.517C67.7094 174.517 57.0788 162.117 55.1388 157.829C55.1388 157.829 47.816 157.589 46.833 164.016C45.8552 170.443 46.833 176.963 46.833 176.963C46.833 176.963 54.0466 196.67 57.0528 204.132L67.7094 174.517Z" fill="white"/>
</mask>
<g mask="url(#mask0_246_22500)">
<g opacity="0.3">
<path d="M63.9538 170.027C62.4248 170.219 60.7761 170.724 59.0494 171.687C58.6437 171.905 58.2432 172.15 57.8324 172.426C57.4631 172.676 57.1094 172.967 56.7818 173.305C55.2475 174.851 54.2125 177.224 53.5312 179.997C53.2036 181.366 52.9539 182.833 52.7771 184.348C52.4858 186.872 52.3922 189.526 52.4234 192.065C51.5393 189.713 50.6707 187.366 49.875 185.243V185.238C50.0258 183.619 50.2495 182.022 50.5771 180.476V180.471C50.8424 179.175 51.1804 177.931 51.6017 176.761C52.439 174.434 53.5988 172.415 55.1903 170.964C55.5284 170.651 55.8924 170.365 56.2773 170.11C56.683 169.839 57.0834 169.59 57.4839 169.361C59.0286 168.476 60.5316 167.909 61.9723 167.565C62.664 168.429 63.3297 169.251 63.9538 170.027Z" fill="#39B4EF"/>
</g>
<g opacity="0.3">
<path d="M59.8806 164.885C58.622 165.244 57.2177 165.739 55.6731 166.42C55.1998 166.629 54.7109 166.858 54.2116 167.102C53.8527 167.279 53.5147 167.482 53.1922 167.716C51.4603 168.965 50.2589 170.974 49.4216 173.269C49.0055 174.434 48.6779 175.678 48.4282 176.937C48.2254 177.968 48.0694 179.008 47.9549 180.028C47.2632 178.145 46.8315 176.969 46.8315 176.969C46.8315 176.969 46.6547 175.782 46.5247 173.93C46.5091 173.742 46.4987 173.55 46.4883 173.347C46.8055 172.348 47.1748 171.38 47.6117 170.464C48.6206 168.356 49.9833 166.525 51.8192 165.276C52.1885 165.026 52.5733 164.797 52.9842 164.599C53.4367 164.375 53.8736 164.172 54.3 163.98C55.6575 163.361 56.9265 162.882 58.1019 162.502C58.6584 163.277 59.2565 164.074 59.8806 164.885Z" fill="#39B4EF"/>
</g>
<g opacity="0.3">
<path d="M56.1049 159.577C54.8931 159.89 53.7541 160.353 52.6879 160.925C51.8506 161.368 51.0652 161.878 50.3163 162.44C48.9225 163.475 47.6794 164.672 46.5977 165.9C46.6601 165.276 46.7329 164.646 46.8317 164.022C47.1177 162.148 47.9395 160.842 48.9641 159.931C48.9745 159.926 48.9797 159.921 48.9849 159.911C49.0057 159.895 49.0265 159.885 49.0525 159.869C49.6038 159.473 50.1811 159.104 50.7792 158.76C50.9976 158.63 51.2213 158.511 51.4501 158.391C51.4657 158.417 51.4761 158.448 51.4865 158.474C51.913 158.318 52.3394 158.193 52.7347 158.105C54.0921 157.798 55.1427 157.829 55.1427 157.829C55.3612 158.318 55.6888 158.911 56.1049 159.577Z" fill="#39B4EF"/>
</g>
<g opacity="0.3">
<path d="M62.4925 176.032L60.4173 177.895C59.1483 176.485 57.9365 174.929 56.7819 173.295C56.2358 172.535 55.7105 171.749 55.1956 170.958C54.5039 169.886 53.8382 168.799 53.1933 167.706C52.72 166.894 52.2623 166.082 51.8202 165.27C51.295 164.313 50.7957 163.361 50.3224 162.434C49.8699 161.555 49.4486 160.696 49.0482 159.864C49.0482 159.864 49.043 159.864 49.043 159.858C49.5839 159.39 50.182 159.031 50.7749 158.755C50.9933 158.625 51.2169 158.505 51.4458 158.386C51.4614 158.412 51.4718 158.443 51.4822 158.469C51.8671 159.265 52.2727 160.087 52.694 160.925C53.1985 161.924 53.7394 162.949 54.3063 163.98C54.7483 164.786 55.206 165.598 55.6793 166.415C56.2618 167.404 56.8651 168.387 57.4892 169.361C57.9937 170.152 58.5138 170.927 59.0495 171.682C60.1469 173.232 61.2963 174.705 62.4925 176.032Z" fill="#39B4EF"/>
</g>
<g opacity="0.3">
<path d="M59.8044 193.251L57.1311 194.037C56.3354 191.331 54.7387 187.928 52.7832 184.342C52.0914 183.067 51.3477 181.772 50.5832 180.476V180.471C49.8811 179.284 49.1633 178.108 48.4352 176.937C47.8059 175.923 47.1662 174.913 46.5317 173.935C46.5161 173.747 46.5057 173.555 46.4953 173.352C46.4173 172.02 46.3757 170.407 46.4329 168.668C46.8177 169.251 47.2182 169.855 47.6187 170.464C48.2116 171.369 48.8201 172.306 49.4286 173.263C50.1567 174.408 50.89 175.574 51.6078 176.755C52.2631 177.827 52.908 178.91 53.5321 179.987C56.3198 184.8 58.7278 189.577 59.8044 193.251Z" fill="#39B4EF"/>
</g>
</g>
<mask id="mask1_246_22500" style="mask-type:luminance" maskUnits="userSpaceOnUse" x="46" y="157" width="22" height="48">
<path d="M67.7094 174.517C67.7094 174.517 57.0788 162.117 55.1388 157.829C55.1388 157.829 47.816 157.589 46.833 164.016C45.8552 170.443 46.833 176.963 46.833 176.963C46.833 176.963 54.0466 196.67 57.0528 204.132L67.7094 174.517Z" fill="white"/>
</mask>
<g mask="url(#mask1_246_22500)">
<path opacity="0.2" d="M59.5895 197.086L57.0567 204.138C54.0558 196.675 46.8369 176.968 46.8369 176.968C46.8369 176.968 45.8591 170.443 46.8369 164.021C47.4454 160.025 50.5035 158.604 52.7295 158.104C52.8595 158.125 52.9948 158.162 53.13 158.193C53.13 158.193 47.331 161.908 47.9707 176.188L53.6137 191.815C53.6137 191.815 54.2014 186.377 56.4638 187.163C57.4311 187.496 58.8146 192.007 59.5895 197.086Z" fill="#002E47"/>
</g>
<path d="M67.7094 174.517C67.7094 174.517 57.0788 162.117 55.1388 157.829C55.1388 157.829 47.816 157.589 46.833 164.016C45.8552 170.443 46.833 176.963 46.833 176.963C46.833 176.963 54.0466 196.67 57.0528 204.132L67.7094 174.517Z" stroke="#002E47" stroke-miterlimit="10" stroke-linecap="round" stroke-linejoin="round"/>
<path d="M90.6098 163.444C90.563 163.662 90.3446 163.834 89.9857 163.964C89.3512 164.193 88.2694 164.271 86.8912 164.193C80.2653 163.829 66.8105 159.889 63.5964 152.052C60.169 143.69 68.9637 132.772 78.3721 132.538C83.7863 132.408 88.3474 138.809 89.4396 146.297C89.9753 149.919 93.049 152.911 90.6098 163.444Z" fill="#F3F8FF" stroke="#002E47" stroke-miterlimit="10"/>
<path d="M86.0134 151.345C86.0134 151.345 85.5089 152.12 85.6441 153.582" stroke="#002E47" stroke-miterlimit="10" stroke-linecap="round" stroke-linejoin="round"/>
<path d="M86.0664 155.706C86.0664 155.706 87.0234 157.007 87.7203 156.408" stroke="#002E47" stroke-miterlimit="10" stroke-linecap="round" stroke-linejoin="round"/>
<path d="M89.9852 163.964C89.3506 164.193 88.2689 164.271 86.8906 164.193C87.0258 163.209 87.2859 162.07 87.3691 161.497C87.6396 159.692 86.7346 159.124 87.1195 159C87.4835 158.88 87.4679 160.477 88.2324 161.294C89.1946 162.325 89.6679 163.407 89.9852 163.964Z" fill="#002E47"/>
<path d="M87.3805 162.59C87.3805 162.59 86.2051 167.112 86.3299 169.407C86.4547 171.702 87.2817 174.616 87.2817 174.616L73 175.444C73 175.444 75.1376 165.151 73.9934 161.555C72.8544 157.954 83.1209 159.265 83.1209 159.265" fill="#F3F8FF"/>
<path d="M87.3805 162.59C87.3805 162.59 86.2051 167.112 86.3299 169.407C86.4547 171.702 87.2817 174.616 87.2817 174.616L73 175.444C73 175.444 75.1376 165.151 73.9934 161.555C72.8544 157.954 83.1209 159.265 83.1209 159.265" stroke="#002E47" stroke-miterlimit="10"/>
<path d="M85.742 141.353C86.3401 139.407 87.4063 139.6 87.4063 139.6C87.4063 139.6 86.7146 130.259 82.7359 129.265C80.0419 128.588 79.3033 132.653 76.5104 129.728C74.9398 128.084 72.1001 127.626 70.1914 129.031C69.0628 129.863 69.0992 131.024 68.3502 132.033C67.5753 133.074 66.0411 133.001 64.8917 133.235C63.1234 133.594 61.329 134.911 60.9598 136.779C60.6581 138.299 62.5148 139.496 62.156 140.744C61.7243 142.238 60.3409 143.143 59.4775 144.366C58.4321 145.855 58.3437 147.785 58.7442 149.518C59.3371 152.084 60.6685 153.088 62.7281 154.399C63.7579 155.055 64.382 156.252 65.0165 157.256C67.1592 160.628 69.7649 163.095 73.8528 163.792C82.0754 165.197 85.7576 157.605 85.7576 157.605C85.7576 157.605 84.8319 150.08 85.5028 149.222C86.1737 148.363 87.5884 151.298 87.5884 151.298C89.2786 146.744 85.742 141.353 85.742 141.353Z" fill="#002E47"/>
<path d="M87.6521 152.484C87.4077 151.569 87.5793 147.791 86.4403 148.144C85.4417 148.451 85.9202 152.339 86.9448 154.935C87.9642 157.532 89.254 157.527 89.2904 156.788C89.3268 156.049 88.4634 155.56 88.2294 154.472" fill="#F3F8FF"/>
<path d="M87.6521 152.484C87.4077 151.569 87.5793 147.791 86.4403 148.144C85.4417 148.451 85.9202 152.339 86.9448 154.935C87.9642 157.532 89.254 157.527 89.2904 156.788C89.3268 156.049 88.4634 155.56 88.2294 154.472" stroke="#002E47" stroke-miterlimit="10"/>
<path opacity="0.3" d="M85.1555 136.68C85.1555 136.68 85.608 132.387 82.7111 132.538C79.8142 132.689 79.965 136.68 79.965 136.68C79.965 136.68 77.531 135.858 76.6989 137.258C75.8667 138.658 76.7301 141.504 76.7301 141.504C76.7301 141.504 74.1244 142.332 74.7641 144.075C75.4091 145.818 73.7344 146.078 73.7344 146.078" stroke="white" stroke-miterlimit="10" stroke-linecap="round" stroke-linejoin="round"/>
<path opacity="0.3" d="M84.4923 140.188C84.4923 140.188 84.0346 143.986 81.3249 144.075C81.3249 144.075 78.532 152.651 69.0664 152.463" stroke="white" stroke-miterlimit="10" stroke-linecap="round" stroke-linejoin="round"/>
<path opacity="0.3" d="M77.2391 131.945C77.2391 131.945 75.0495 129.9 72.4283 131.154C69.8018 132.408 71.5493 135.962 71.5493 135.962C71.5493 135.962 69.0009 135.806 68.1635 137.737C67.3262 139.667 69.807 140.922 69.807 140.922C69.807 140.922 66.9829 142.42 68.1635 143.617C69.3493 144.809 68.1635 147.197 68.1635 147.197" stroke="white" stroke-miterlimit="10" stroke-linecap="round" stroke-linejoin="round"/>
<path opacity="0.3" d="M66.3149 135.967C66.3149 135.967 62.3518 137.221 63.184 140.188C64.0161 143.159 64.6922 143.149 64.6922 143.149C64.6922 143.149 61.7225 144.174 61.5405 146.328C61.3585 148.488 63.9277 148.378 63.9277 148.378C63.9277 148.378 63.1008 150.533 65.2123 151.345" stroke="white" stroke-miterlimit="10" stroke-linecap="round" stroke-linejoin="round"/>
<path d="M67.7096 173.206C67.7096 173.206 77.274 166.462 94.6814 173.555L107.741 170.505C107.741 170.505 116.187 193.454 111.121 216.981C111.121 216.981 99.7835 225.12 80.8158 225.073C60.2359 225.026 55.139 216.981 55.139 216.981L58.0827 209.472C56.3092 200.901 54.0104 187.147 55.7631 180.034C58.4208 169.22 67.7096 173.206 67.7096 173.206Z" fill="#E2EDFF"/>
<mask id="mask2_246_22500" style="mask-type:luminance" maskUnits="userSpaceOnUse" x="55" y="170" width="58" height="56">
<path d="M67.7096 173.206C67.7096 173.206 77.274 166.462 94.6814 173.555L107.741 170.505C107.741 170.505 116.187 193.454 111.121 216.981C111.121 216.981 99.7835 225.12 80.8158 225.073C60.2359 225.026 55.139 216.981 55.139 216.981L58.0827 209.472C56.3092 200.901 54.0104 187.147 55.7631 180.034C58.4208 169.22 67.7096 173.206 67.7096 173.206Z" fill="white"/>
</mask>
<g mask="url(#mask2_246_22500)">
<g opacity="0.3">
<path d="M106.794 219.426C105.998 219.811 105.099 220.223 104.095 220.634C104.012 219.64 103.934 218.656 103.856 217.683C103.778 216.684 103.705 215.706 103.637 214.733C103.419 211.782 103.237 208.967 103.081 206.287C103.023 205.267 102.971 204.268 102.919 203.284C102.711 199.262 102.56 195.572 102.467 192.2C102.436 191.107 102.404 190.051 102.384 189.026C102.311 185.451 102.29 182.287 102.306 179.539C102.311 178.457 102.326 177.437 102.337 176.479C102.363 174.668 102.404 173.086 102.456 171.733L105.265 171.078C105.218 172.254 105.171 173.633 105.145 175.215H105.14C105.119 176.188 105.104 177.223 105.093 178.347C105.073 180.965 105.078 184.004 105.14 187.464C105.156 188.516 105.177 189.603 105.208 190.727C105.296 194.146 105.437 197.924 105.645 202.066C105.697 203.055 105.749 204.075 105.801 205.105C105.951 207.791 106.134 210.611 106.342 213.577C106.409 214.55 106.487 215.539 106.565 216.538C106.643 217.491 106.716 218.448 106.794 219.426Z" fill="#39B4EF"/>
</g>
<g opacity="0.3">
<path d="M98.5291 172.655C98.3262 174.19 98.1026 176.032 97.8842 178.14C97.7801 179.102 97.6813 180.117 97.5825 181.189C97.3069 184.249 97.052 187.746 96.87 191.602C96.8232 192.611 96.7764 193.647 96.7452 194.703C96.6203 198.138 96.5579 201.827 96.5943 205.715C96.6047 206.688 96.6151 207.682 96.6411 208.676C96.6984 211.465 96.8024 214.353 96.9688 217.314C97.026 218.277 97.0832 219.239 97.156 220.223C97.2184 221.113 97.2808 222.013 97.3589 222.924C96.4799 223.163 95.5698 223.392 94.618 223.6C94.5504 222.773 94.4828 221.951 94.4256 221.134C94.3579 220.16 94.2903 219.203 94.2331 218.251C94.0511 215.253 93.9367 212.334 93.8691 209.503C93.8431 208.52 93.8223 207.546 93.8119 206.589C93.765 202.743 93.8066 199.09 93.9211 195.661C93.9471 194.631 93.9835 193.621 94.0303 192.637C94.1967 188.719 94.4412 185.144 94.7116 181.985C94.8052 180.944 94.8936 179.951 94.9873 179.003C95.2057 176.859 95.4241 174.955 95.627 173.326L98.5291 172.655Z" fill="#39B4EF"/>
</g>
<g opacity="0.3">
<path d="M89.208 171.682C88.9272 173.898 88.5943 176.87 88.2615 180.434C88.1783 181.355 88.095 182.313 88.0118 183.307C87.7362 186.611 87.4761 190.327 87.2837 194.344C87.2369 195.286 87.1901 196.249 87.1537 197.222C87.0133 200.688 86.9248 204.351 86.9144 208.155C86.904 209.092 86.904 210.039 86.9144 210.996C86.9352 214.015 86.9977 217.116 87.1277 220.264C87.1641 221.206 87.2057 222.148 87.2577 223.101C87.2837 223.647 87.3201 224.199 87.3513 224.75C86.4464 224.839 85.5206 224.911 84.574 224.964C84.548 224.532 84.522 224.1 84.5012 223.673C84.4492 222.731 84.4024 221.794 84.366 220.858C84.2256 217.616 84.1528 214.426 84.132 211.314C84.1216 210.372 84.1164 209.435 84.1268 208.509C84.1372 204.705 84.2204 201.042 84.3556 197.56C84.392 196.597 84.4284 195.656 84.4752 194.729C84.6677 190.702 84.9173 186.97 85.1877 183.635C85.2658 182.656 85.349 181.709 85.4322 180.804C85.8015 176.755 86.1811 173.425 86.4828 171.026C87.3617 171.208 88.2667 171.421 89.208 171.682Z" fill="#39B4EF"/>
</g>
<g opacity="0.3">
<path d="M79.3474 225.052C78.3749 225.031 77.4335 224.989 76.5285 224.932C76.5077 224.776 76.4921 224.61 76.4765 224.448C76.3777 223.543 76.2997 222.611 76.2373 221.649C76.0189 218.401 75.9512 214.868 75.8836 211.095C75.8784 210.944 75.8784 210.793 75.8732 210.642C75.8576 209.867 75.8472 209.071 75.8316 208.27C75.764 204.882 75.6756 201.27 75.4624 197.456C75.4104 196.53 75.3531 195.577 75.2855 194.625C75.1919 193.277 75.0827 191.914 74.9527 190.524C74.7186 188.058 74.599 185.82 74.5782 183.791C74.5678 182.807 74.5782 181.871 74.6042 180.991C74.755 176.245 75.426 172.847 76.1489 170.5C77.0746 170.391 78.0784 170.323 79.1498 170.308C78.4009 172.348 77.5479 175.798 77.3867 181.142C77.3607 182.021 77.3503 182.948 77.3659 183.931C77.3867 185.836 77.5011 187.938 77.7247 190.259C77.8756 191.836 78.0004 193.376 78.0992 194.89C78.1668 195.838 78.2188 196.769 78.2656 197.69C78.4685 201.546 78.5569 205.189 78.6193 208.597C78.6349 209.269 78.6401 209.935 78.6557 210.59C78.6609 210.861 78.6661 211.132 78.6713 211.392C78.7389 215.05 78.8065 218.479 79.025 221.602C79.0874 222.559 79.1654 223.48 79.2642 224.381C79.2902 224.615 79.3214 224.833 79.3474 225.052Z" fill="#39B4EF"/>
</g>
<g opacity="0.3">
<path d="M70.0466 183.177C69.9426 185.019 69.927 186.861 70.0154 188.61C70.1038 190.343 70.1402 191.987 70.1402 193.574C70.1402 194.552 70.1246 195.51 70.1038 196.452C70.0206 199.678 69.8126 202.738 69.5941 205.892C69.5733 206.173 69.5577 206.459 69.5317 206.745C69.4693 207.692 69.4069 208.65 69.3445 209.618C69.1781 212.225 69.0481 214.936 69.0221 217.85C69.0117 218.631 69.0169 219.385 69.0377 220.119C69.0585 221.18 69.1001 222.195 69.1573 223.153C69.1729 223.439 69.1885 223.725 69.2145 224.001C68.2003 223.803 67.2537 223.579 66.3748 223.33C66.354 222.913 66.328 222.487 66.3072 222.044C66.2604 221.035 66.2396 219.978 66.2344 218.87C66.2344 218.526 66.2344 218.173 66.2396 217.819C66.2708 214.556 66.432 211.574 66.6088 208.707C66.6765 207.723 66.7389 206.75 66.8013 205.793C66.8065 205.761 66.8065 205.725 66.8117 205.689C67.0509 202.322 67.2694 199.069 67.3318 195.609C67.3526 194.641 67.3578 193.657 67.3474 192.653C67.337 191.389 67.3006 190.088 67.2329 188.74C67.1289 186.726 67.1653 184.618 67.2902 182.532C67.3474 181.579 67.4202 180.632 67.5034 179.696C67.7374 177.26 68.0599 174.903 68.4083 172.78C68.9492 172.488 69.8178 172.067 70.9984 171.656C71.0088 171.656 71.0192 171.65 71.0244 171.65C71.0296 171.645 71.04 171.64 71.0452 171.64H71.0504C71.1856 171.588 71.326 171.541 71.4665 171.5C71.0036 174.086 70.5355 177.177 70.2495 180.356C70.1611 181.298 70.0934 182.24 70.0466 183.177Z" fill="#39B4EF"/>
</g>
<g opacity="0.3">
<path d="M66.5498 172.832C66.9451 172.936 67.2623 173.04 67.4548 173.113C65.9413 174.096 64.355 175.71 63.6009 178.337C63.3564 179.175 63.2004 180.117 63.1588 181.174C63.1328 181.798 63.1432 182.464 63.2056 183.172C63.4397 185.888 63.5905 188.506 63.6581 191.04C63.6893 192.102 63.7101 193.142 63.7101 194.173C63.7153 197.701 63.5593 201.068 63.2264 204.299C63.1276 205.288 63.0184 206.266 62.8832 207.229C62.8104 207.786 62.7323 208.338 62.6439 208.894C62.3163 210.997 61.9938 213.495 61.7286 216.06C61.6194 217.148 61.5153 218.24 61.4269 219.323C61.3645 220.062 61.3177 220.79 61.2709 221.503C60.2151 221.014 59.3258 220.514 58.582 220.031C58.6496 219.13 58.7329 218.235 58.8161 217.366C58.9305 216.159 59.0553 215.004 59.1801 213.942C59.5442 210.794 59.8875 208.52 59.8927 208.457C60.0175 207.64 60.1319 206.813 60.2359 205.975C60.3607 204.986 60.47 203.987 60.5532 202.972C60.8496 199.715 60.964 196.312 60.912 192.726C60.8964 191.633 60.8652 190.53 60.8184 189.401C60.7404 187.46 60.6104 185.462 60.4335 183.406C60.3243 182.147 60.3399 181.002 60.4544 179.951C60.5636 178.915 60.7664 177.973 61.0421 177.12C61.6766 175.153 62.7063 173.644 63.8557 172.488C64.9115 172.483 65.8581 172.655 66.5498 172.832Z" fill="#39B4EF"/>
<path d="M71.039 171.65C71.039 171.656 71.039 171.656 71.039 171.65C71.0273 171.656 71.0215 171.662 71.0156 171.662C71.0215 171.656 71.0332 171.65 71.039 171.65Z" fill="#39B4EF"/>
</g>
<g opacity="0.3">
<path d="M109.443 176.141C108.252 176.818 106.801 177.583 105.105 178.353C104.242 178.748 103.311 179.149 102.317 179.539C100.871 180.112 99.2904 180.668 97.5897 181.189C96.6692 181.47 95.7122 181.735 94.724 181.985C92.6385 182.516 90.4021 182.969 88.0149 183.307C87.0943 183.437 86.153 183.546 85.1908 183.64C83.1521 183.838 81.0249 183.952 78.8041 183.952C78.3984 183.952 78.0032 183.952 77.5975 183.942C77.5247 183.942 77.4467 183.936 77.3791 183.936C76.4221 183.916 75.4911 183.869 74.5862 183.791C72.9947 183.655 71.4812 183.447 70.0458 183.172C69.0888 182.984 68.1683 182.771 67.2841 182.537C65.8227 182.141 64.4496 181.683 63.165 181.168C62.2133 180.788 61.3083 180.377 60.4554 179.945C59.0251 179.227 57.7249 178.452 56.5547 177.645C56.9656 176.682 57.4388 175.891 57.9641 175.241C58.9003 175.886 59.9249 176.516 61.0431 177.114C61.844 177.541 62.7021 177.952 63.6071 178.332C64.8137 178.842 66.1087 179.305 67.4974 179.701C68.3763 179.95 69.2917 180.174 70.2434 180.367C71.6165 180.648 73.0727 180.866 74.6122 180.991C75.5119 181.074 76.4377 181.126 77.3947 181.142C77.4727 181.147 77.5559 181.152 77.6391 181.152C78.0188 181.163 78.3932 181.163 78.7729 181.163C81.0925 181.163 83.3185 181.033 85.4352 180.804C86.4026 180.7 87.344 180.575 88.2645 180.434C90.6673 180.065 92.9193 179.57 94.9945 178.998C96.0035 178.727 96.9604 178.436 97.8862 178.134C99.5037 177.603 100.991 177.041 102.349 176.474C103.363 176.053 104.294 175.626 105.152 175.21H105.157C106.535 174.538 107.711 173.903 108.668 173.347C108.896 174.138 109.162 175.074 109.443 176.141Z" fill="#39B4EF"/>
</g>
<g opacity="0.3">
<path d="M111.595 186.554C109.92 187.808 107.767 189.281 105.213 190.732C104.345 191.227 103.434 191.721 102.472 192.2C100.704 193.09 98.7849 193.948 96.7409 194.703C95.8256 195.046 94.8894 195.369 93.9221 195.66C91.7793 196.321 89.5169 196.857 87.1505 197.227C86.2351 197.373 85.299 197.487 84.3524 197.57C83.0678 197.69 81.7572 197.752 80.4205 197.752C79.708 197.752 78.9955 197.732 78.2778 197.695C77.3468 197.648 76.4158 197.57 75.4693 197.456C75.2873 197.435 75.1052 197.414 74.9284 197.388C73.2329 197.164 71.6258 196.847 70.102 196.451C69.145 196.207 68.2244 195.926 67.3299 195.619C66.0609 195.182 64.8543 194.693 63.7153 194.167C62.7375 193.714 61.8013 193.23 60.9172 192.72C58.7536 191.492 56.8449 190.124 55.191 188.734C55.139 187.407 55.1286 186.127 55.1702 184.925C56.7877 186.486 58.6704 188.016 60.8236 189.395C61.7181 189.973 62.6647 190.519 63.6633 191.029C64.8231 191.627 66.0505 192.174 67.3455 192.658C68.2401 192.991 69.1762 193.298 70.1384 193.569C71.7559 194.026 73.4721 194.386 75.2873 194.625C75.2925 194.625 75.2925 194.625 75.2977 194.625C76.2442 194.75 77.1804 194.838 78.1165 194.89C80.2957 195.01 82.4177 194.948 84.4824 194.734C85.4342 194.63 86.3704 194.5 87.2909 194.344C89.6521 193.933 91.9145 193.345 94.0469 192.637C95.0194 192.314 95.966 191.966 96.8762 191.601C98.8577 190.81 100.704 189.936 102.4 189.031C103.372 188.516 104.293 187.99 105.156 187.47C107.611 185.992 109.618 184.55 111.075 183.411C111.251 184.41 111.428 185.461 111.595 186.554Z" fill="#39B4EF"/>
</g>
<g opacity="0.3">
<path d="M112.738 201.026C112.738 201.234 112.738 201.442 112.733 201.655C110.736 202.743 108.396 203.935 105.806 205.105C104.927 205.506 104.017 205.902 103.086 206.287C101.036 207.14 98.8729 207.957 96.6365 208.68C95.7264 208.972 94.8006 209.253 93.8696 209.508C91.5865 210.143 89.2513 210.658 86.9057 211.001C85.9799 211.137 85.0541 211.241 84.1232 211.324C83.0206 211.418 81.9076 211.47 80.8154 211.47C80.1029 211.47 79.3852 211.449 78.6778 211.407C77.8301 211.355 76.9823 211.267 76.145 211.147C76.0618 211.131 75.9734 211.126 75.8902 211.105C73.6278 210.772 71.4434 210.262 69.3422 209.633C68.4165 209.352 67.5011 209.05 66.6014 208.727C65.3271 208.269 64.0841 207.765 62.8827 207.234C61.9778 206.833 61.0936 206.417 60.2355 205.985C59.1381 205.438 58.0875 204.871 57.0733 204.288C56.8601 203.102 56.6521 201.879 56.4492 200.63C57.7338 201.426 59.1017 202.217 60.5475 202.982C61.4109 203.435 62.3002 203.877 63.2208 204.304C64.3702 204.84 65.5664 205.345 66.7886 205.813C67.6779 206.151 68.5881 206.474 69.5191 206.76C71.5474 207.406 73.6538 207.931 75.8329 208.28C76.067 208.321 76.301 208.358 76.5403 208.389C77.2268 208.488 77.9237 208.561 78.6258 208.613C80.4253 208.732 82.2717 208.691 84.1232 208.524C85.0489 208.436 85.9799 208.321 86.9057 208.165C89.2253 207.801 91.5448 207.26 93.8124 206.594C94.7486 206.323 95.6744 206.032 96.5897 205.719C98.7897 204.981 100.917 204.153 102.919 203.289C103.855 202.889 104.766 202.483 105.644 202.072C108.344 200.817 110.741 199.553 112.702 198.465C112.728 199.308 112.738 200.162 112.738 201.026Z" fill="#39B4EF"/>
</g>
<g opacity="0.3">
<path d="M112.145 210.892C112.077 211.418 112.01 211.943 111.932 212.469C111.848 213.057 111.75 213.65 111.651 214.238C110.247 214.909 108.525 215.695 106.575 216.543C105.717 216.918 104.806 217.298 103.865 217.688C101.785 218.537 99.5276 219.406 97.156 220.228C96.2614 220.54 95.3513 220.847 94.4255 221.138C92.0747 221.888 89.6615 222.564 87.2535 223.111C86.3329 223.324 85.4123 223.517 84.497 223.683C82.7651 224.006 81.0488 224.24 79.3793 224.38C79.3481 224.386 79.3117 224.386 79.2753 224.391C78.5888 224.448 77.9075 224.469 77.2365 224.469C76.9817 224.469 76.7321 224.464 76.4824 224.453C73.8508 224.38 71.4011 223.902 69.1544 223.168C68.1662 222.845 67.2144 222.476 66.3043 222.065C64.5204 221.263 62.8925 220.321 61.431 219.322C60.4897 218.687 59.6159 218.021 58.8202 217.366C57.7488 216.481 56.8022 215.607 55.9961 214.795L57.1299 211.917C57.7124 212.536 58.3989 213.223 59.1842 213.942C59.9384 214.628 60.7965 215.347 61.7327 216.054C63.0589 217.053 64.562 218.032 66.2315 218.885C67.1156 219.343 68.057 219.77 69.0347 220.134C71.2347 220.967 73.6479 221.534 76.2484 221.654C77.1533 221.695 78.0843 221.685 79.0361 221.612C79.0725 221.607 79.1141 221.607 79.1505 221.602C80.8408 221.461 82.5883 221.206 84.3618 220.868C85.2771 220.691 86.1977 220.493 87.1234 220.275C89.5055 219.713 91.9031 219.015 94.2331 218.255C95.1588 217.954 96.069 217.641 96.9687 217.324C99.3299 216.481 101.587 215.596 103.641 214.743C104.593 214.353 105.493 213.962 106.346 213.588C108.764 212.526 110.756 211.574 112.145 210.892Z" fill="#39B4EF"/>
</g>
</g>
<mask id="mask3_246_22500" style="mask-type:luminance" maskUnits="userSpaceOnUse" x="55" y="170" width="58" height="56">
<path d="M67.7096 173.206C67.7096 173.206 77.274 166.462 94.6814 173.555L107.741 170.505C107.741 170.505 116.187 193.454 111.121 216.981C111.121 216.981 99.7835 225.12 80.8158 225.073C60.2359 225.026 55.139 216.981 55.139 216.981L58.0827 209.472C56.3092 200.901 54.0104 187.147 55.7631 180.034C58.4208 169.22 67.7096 173.206 67.7096 173.206Z" fill="white"/>
</mask>
<g mask="url(#mask3_246_22500)">
<path opacity="0.2" d="M94.7812 173.524C90.9482 175.704 81.727 180.445 74.8722 179.919C69.3697 179.498 67.0501 175.839 66.5508 172.826C67.2633 173.014 67.7054 173.201 67.7054 173.201C67.7054 173.201 77.2698 166.457 94.6772 173.544L94.7812 173.524Z" fill="#002E47"/>
<path opacity="0.2" d="M82.4141 225.052C81.8888 225.067 81.3583 225.073 80.8174 225.073C60.2427 225.02 55.1406 216.975 55.1406 216.975L58.0895 209.466C57.065 204.523 55.8688 197.862 55.3747 191.737C56.9869 195.062 66.9883 214.347 81.7952 214.259C92.2854 214.202 87.2613 220.561 82.4141 225.052Z" fill="#002E47"/>
<path opacity="0.2" d="M112.742 201.026C112.742 204.715 112.508 208.561 111.936 212.469C106.501 205.923 108.212 194.037 108.212 194.037C108.93 198.669 111.333 200.396 112.742 201.026Z" fill="#002E47"/>
</g>
<path d="M67.7096 173.206C67.7096 173.206 77.274 166.462 94.6814 173.555L107.741 170.505C107.741 170.505 116.187 193.454 111.121 216.981C111.121 216.981 99.7835 225.12 80.8158 225.073C60.2359 225.026 55.139 216.981 55.139 216.981L58.0827 209.472C56.3092 200.901 54.0104 187.147 55.7631 180.034C58.4208 169.22 67.7096 173.206 67.7096 173.206Z" stroke="#002E47" stroke-miterlimit="10" stroke-linecap="round" stroke-linejoin="round"/>
<path d="M74.1953 176.911C80.2075 177.145 87.5044 177.104 92.7521 173.752" stroke="#002E47" stroke-miterlimit="10" stroke-linecap="round" stroke-linejoin="round"/>
<path d="M70.8281 176.688C71.369 176.745 71.9099 176.786 72.4508 176.818" stroke="#002E47" stroke-miterlimit="10" stroke-linecap="round" stroke-linejoin="round"/>
<path d="M75.4688 214.108C75.5208 215.071 75.6196 216.049 75.8796 216.975" stroke="#002E47" stroke-miterlimit="10" stroke-linecap="round" stroke-linejoin="round"/>
<path d="M73.8863 178.28C72.9293 180.653 72.4612 182.974 72.9293 185.763C75.2489 194.589 76.6428 202.946 75.4518 211.907" stroke="#002E47" stroke-miterlimit="10" stroke-linecap="round" stroke-linejoin="round"/>
<path d="M77.1641 208.082C80.1806 208.852 83.3375 208.826 86.3748 208.165" stroke="#002E47" stroke-miterlimit="10" stroke-linecap="round" stroke-linejoin="round"/>
<path d="M58.2891 189.39C61.5552 197.102 67.453 203.675 74.9995 207.385" stroke="#002E47" stroke-miterlimit="10" stroke-linecap="round" stroke-linejoin="round"/>
<path d="M56.75 185.019C56.9268 185.643 57.1245 186.267 57.3325 186.887" stroke="#002E47" stroke-miterlimit="10" stroke-linecap="round" stroke-linejoin="round"/>
<path d="M107.739 170.5C107.739 170.5 106.106 180.361 108.051 192.856C109.996 205.35 113.044 205.225 113.044 205.225C113.044 205.225 130.441 183.707 135.091 175.012C135.091 175.012 133.988 162.517 129.094 159.869L107.739 170.5Z" fill="#E2EDFF"/>
<mask id="mask4_246_22500" style="mask-type:luminance" maskUnits="userSpaceOnUse" x="107" y="159" width="29" height="47">
<path d="M107.739 170.5C107.739 170.5 106.106 180.361 108.051 192.856C109.996 205.35 113.044 205.225 113.044 205.225C113.044 205.225 130.441 183.707 135.091 175.012C135.091 175.012 133.988 162.517 129.094 159.869L107.739 170.5Z" fill="white"/>
</mask>
<g mask="url(#mask4_246_22500)">
<g opacity="0.3">
<path d="M131.973 180.08C131.271 181.126 130.517 182.23 129.716 183.364C129.305 180.892 128.827 178.608 128.307 176.495C128.057 175.465 127.792 174.476 127.516 173.529C126.929 171.458 126.299 169.579 125.665 167.893C125.301 166.941 124.942 166.046 124.583 165.208C124.193 164.302 123.808 163.459 123.434 162.694L125.961 161.435C126.284 162.08 126.606 162.772 126.934 163.511C127.303 164.349 127.678 165.239 128.042 166.197C128.666 167.799 129.279 169.574 129.872 171.52C130.153 172.462 130.434 173.445 130.699 174.476C131.157 176.214 131.583 178.082 131.973 180.08Z" fill="#39B4EF"/>
</g>
<g opacity="0.3">
<path d="M125.598 189.041C124.782 190.139 123.96 191.227 123.149 192.299C122.785 188.563 122.249 185.092 121.599 181.897V181.891C121.396 180.856 121.178 179.851 120.944 178.884C120.377 176.443 119.758 174.19 119.123 172.15C118.827 171.187 118.525 170.271 118.223 169.407C117.792 168.143 117.36 166.982 116.949 165.931L119.477 164.672C119.862 165.645 120.267 166.712 120.668 167.862C120.975 168.726 121.287 169.642 121.594 170.604C122.202 172.53 122.811 174.648 123.372 176.948C123.612 177.921 123.846 178.92 124.069 179.956C124.667 182.76 125.193 185.789 125.598 189.041Z" fill="#39B4EF"/>
</g>
<g opacity="0.3">
<path d="M119.01 197.685C118.157 198.788 117.35 199.803 116.633 200.719C115.998 196.082 115.197 191.503 114.344 187.21C114.147 186.2 113.944 185.206 113.741 184.233C113.143 181.366 112.529 178.66 111.942 176.188C111.713 175.215 111.489 174.283 111.265 173.394C110.896 171.9 110.548 170.521 110.215 169.272L112.763 168.002C113.086 169.21 113.429 170.547 113.788 172.004C114.017 172.899 114.246 173.841 114.485 174.819V174.825C115.041 177.166 115.629 179.727 116.211 182.453C116.42 183.427 116.628 184.426 116.836 185.44V185.446C117.621 189.333 118.375 193.465 119.01 197.685Z" fill="#39B4EF"/>
</g>
<g opacity="0.3">
<path d="M131.994 163.168C130.798 164.12 129.477 165.135 128.042 166.191C127.288 166.748 126.492 167.316 125.665 167.888C124.391 168.778 123.033 169.683 121.593 170.599C120.792 171.109 119.97 171.624 119.117 172.145C117.645 173.035 116.1 173.935 114.478 174.819V174.825C113.646 175.277 112.803 175.735 111.935 176.183C110.385 176.989 108.778 177.791 107.113 178.571C107.134 177.421 107.181 176.365 107.243 175.428V175.423C108.627 174.752 109.963 174.075 111.258 173.388C112.117 172.93 112.964 172.467 113.781 172.004C115.325 171.14 116.803 170.266 118.212 169.397C119.055 168.882 119.871 168.367 120.656 167.852C122.04 166.956 123.345 166.067 124.573 165.198C125.389 164.62 126.175 164.053 126.923 163.501C128.166 162.575 129.316 161.69 130.361 160.847C130.689 161.18 131.001 161.571 131.287 161.992C131.552 162.367 131.781 162.757 131.994 163.168Z" fill="#39B4EF"/>
</g>
<g opacity="0.3">
<path d="M134.528 171.13C133.321 172.202 132.047 173.321 130.7 174.471C129.925 175.142 129.124 175.814 128.307 176.495C126.945 177.64 125.525 178.795 124.069 179.956C123.257 180.601 122.43 181.252 121.593 181.892V181.897C120.038 183.094 118.447 184.291 116.829 185.446V185.451C116.002 186.044 115.175 186.638 114.343 187.21C112.195 188.698 110.016 190.119 107.847 191.42C107.702 190.384 107.587 189.37 107.488 188.376C109.579 187.08 111.675 185.68 113.74 184.228C114.567 183.645 115.394 183.057 116.21 182.454C117.817 181.283 119.398 180.081 120.938 178.879C121.76 178.233 122.571 177.588 123.372 176.943C124.802 175.798 126.185 174.648 127.517 173.524C128.318 172.842 129.108 172.171 129.868 171.515C131.267 170.303 132.583 169.132 133.815 168.023C134.112 169.106 134.346 170.173 134.528 171.13Z" fill="#39B4EF"/>
</g>
</g>
<mask id="mask5_246_22500" style="mask-type:luminance" maskUnits="userSpaceOnUse" x="107" y="159" width="29" height="47">
<path d="M107.739 170.5C107.739 170.5 106.106 180.361 108.051 192.856C109.996 205.35 113.044 205.225 113.044 205.225C113.044 205.225 130.441 183.707 135.091 175.012C135.091 175.012 133.988 162.517 129.094 159.869L107.739 170.5Z" fill="white"/>
</mask>
<g mask="url(#mask5_246_22500)">
<path opacity="0.2" d="M135.097 175.017C130.448 183.713 113.051 205.231 113.051 205.231C113.051 205.231 110.461 205.34 108.531 195.536C109.951 200.823 113.8 201.359 113.8 201.359L131.524 177.89C129.636 173.872 131.259 162.309 131.306 162.002C134.343 166.452 135.097 175.017 135.097 175.017Z" fill="#002E47"/>
</g>
<path d="M107.739 170.5C107.739 170.5 106.106 180.361 108.051 192.856C109.996 205.35 113.044 205.225 113.044 205.225C113.044 205.225 130.441 183.707 135.091 175.012C135.091 175.012 133.988 162.517 129.094 159.869L107.739 170.5Z" stroke="#002E47" stroke-miterlimit="10" stroke-linecap="round" stroke-linejoin="round"/>
<path d="M94.6821 173.549C94.6821 173.549 87.4789 168.262 77.9301 167.149C68.3812 166.035 68.6257 171.666 68.6257 171.666C68.6257 171.666 67.2786 172.17 67.7103 173.752C68.1368 175.34 81.061 176.875 94.6821 173.549Z" fill="#E2EDFF"/>
<mask id="mask6_246_22500" style="mask-type:luminance" maskUnits="userSpaceOnUse" x="67" y="167" width="28" height="9">
<path d="M94.6821 173.549C94.6821 173.549 87.4789 168.262 77.9301 167.149C68.3812 166.035 68.6257 171.666 68.6257 171.666C68.6257 171.666 67.2786 172.17 67.7103 173.752C68.1368 175.34 81.061 176.875 94.6821 173.549Z" fill="white"/>
</mask>
<g mask="url(#mask6_246_22500)">
<g opacity="0.3">
<path d="M77.3553 167.086C77.1421 167.596 76.908 168.231 76.6844 169.006C76.4503 169.787 76.2215 170.713 76.0083 171.796C75.8054 172.857 75.613 174.07 75.4674 175.454C74.4532 175.407 73.5222 175.334 72.6797 175.241C72.8149 173.95 72.9813 172.79 73.1686 171.749C73.361 170.692 73.569 169.756 73.7927 168.934C73.9851 168.221 74.1775 167.596 74.3752 167.045C75.2229 166.982 76.2163 166.982 77.3553 167.086Z" fill="#39B4EF"/>
</g>
<g opacity="0.3">
<path d="M84.9964 168.762C84.9964 169.116 84.986 169.495 84.9756 169.906C84.9444 170.729 84.882 171.665 84.778 172.717C84.7 173.497 84.596 174.335 84.4608 175.24C83.483 175.329 82.5312 175.391 81.6055 175.438C81.7927 174.293 81.9227 173.253 82.0163 172.305C82.1204 171.244 82.1724 170.302 82.2036 169.501C82.2192 168.907 82.2244 168.382 82.214 167.939C83.1761 168.179 84.1123 168.46 84.9964 168.762Z" fill="#39B4EF"/>
</g>
<g opacity="0.3">
<path d="M94.6807 173.549C93.6665 173.794 92.6628 174.018 91.659 174.215C89.2406 173.565 86.9314 173.076 84.773 172.722C83.8213 172.56 82.9007 172.425 82.0113 172.311C79.8114 172.03 77.7986 171.879 76.0043 171.811C74.9797 171.77 74.0332 171.754 73.1646 171.764C70.8866 171.775 69.1547 171.915 68.0938 172.035C68.3538 171.78 68.6294 171.676 68.6294 171.676C68.6294 171.676 68.567 170.333 69.6228 169.09C70.7514 169.006 72.1505 168.944 73.7887 168.949C74.6833 168.954 75.6506 168.97 76.6856 169.017C78.3551 169.1 80.2014 169.251 82.1986 169.506C83.0931 169.615 84.0189 169.75 84.9759 169.917C86.6817 170.198 88.4761 170.552 90.3484 171.005L90.3536 171.01C93.0632 172.363 94.6807 173.549 94.6807 173.549Z" fill="#39B4EF"/>
</g>
</g>
<path d="M94.6821 173.549C94.6821 173.549 87.4789 168.262 77.9301 167.149C68.3812 166.035 68.6257 171.666 68.6257 171.666C68.6257 171.666 67.2786 172.17 67.7103 173.752C68.1368 175.34 81.061 176.875 94.6821 173.549Z" stroke="#002E47" stroke-miterlimit="10" stroke-linecap="round" stroke-linejoin="round"/>
<path d="M79.0625 171.057C79.9883 171.192 80.8984 171.39 81.793 171.665" stroke="#002E47" stroke-miterlimit="10" stroke-linecap="round" stroke-linejoin="round"/>
<path d="M68.625 171.666C71.3867 170.963 74.32 170.698 77.1597 170.865" stroke="#002E47" stroke-miterlimit="10" stroke-linecap="round" stroke-linejoin="round"/>
<path d="M52.1133 171.015C52.1289 171.931 52.1913 172.847 52.2901 173.758" stroke="#002E47" stroke-miterlimit="10" stroke-linecap="round" stroke-linejoin="round"/>
<path d="M56.2949 159.874C53.398 161.768 52.3734 165.874 52.1602 169.08" stroke="#002E47" stroke-miterlimit="10" stroke-linecap="round" stroke-linejoin="round"/>
<path d="M124.916 184.072C124.172 184.837 123.319 185.518 122.336 185.95" stroke="#002E47" stroke-miterlimit="10" stroke-linecap="round" stroke-linejoin="round"/>
<path d="M133.159 165.848C131.417 171.364 129.56 177.4 126.242 182.5" stroke="#002E47" stroke-miterlimit="10" stroke-linecap="round" stroke-linejoin="round"/>
<path d="M113.052 205.225C113.052 205.225 110.374 206.531 106.816 199.163" stroke="#002E47" stroke-miterlimit="10" stroke-linecap="round" stroke-linejoin="round"/>
<path d="M108.593 212.282C106.019 216.804 102.311 221.009 97.3594 222.924" stroke="#002E47" stroke-miterlimit="10" stroke-linecap="round" stroke-linejoin="round"/>
<path d="M110.595 208.082C110.325 208.816 110.002 209.529 109.664 210.231" stroke="#002E47" stroke-miterlimit="10" stroke-linecap="round" stroke-linejoin="round"/>
</svg>
