<svg width="236" height="233" viewBox="0 0 236 233" fill="none" xmlns="http://www.w3.org/2000/svg">
<path d="M233.148 112.449C230.585 134.158 220.687 159.397 200.911 170.994C171.03 188.517 173.536 215.471 115.215 227.187C106.121 229.015 97.4937 229.784 89.3541 229.633C84.9808 229.55 80.7476 229.197 76.6648 228.599C39.5984 223.172 14.6557 197.382 5.50451 166.248C-6.53626 125.298 17.509 98.4945 33.4457 82.343C49.3825 66.1916 61.0601 15.8676 118.302 3.89683C127.028 2.07394 135.956 1.14433 144.879 1.36764C165.246 1.86621 187.46 8.5605 202.831 22.5359C203.983 23.585 205.108 24.6756 206.203 25.7974C227.566 47.7499 236.645 82.852 233.148 112.449Z" fill="#39B4EF"/>
<path opacity="0.7" d="M233.148 112.449C230.585 134.158 220.687 159.397 200.911 170.994C171.03 188.517 173.536 215.471 115.215 227.187C106.121 229.015 97.4937 229.784 89.3541 229.633C84.9808 229.55 80.7476 229.197 76.6648 228.599C39.5984 223.172 14.6557 197.382 5.50451 166.248C-6.53626 125.298 17.509 98.4945 33.4457 82.343C49.3825 66.1916 61.0601 15.8676 118.302 3.89683C127.028 2.07394 135.956 1.14433 144.879 1.36764C165.246 1.86621 187.46 8.5605 202.831 22.5359C203.983 23.585 205.108 24.6756 206.203 25.7974C227.566 47.7499 236.645 82.852 233.148 112.449Z" fill="white"/>
<path d="M225.412 224.819L142.392 219.35C140.229 219.21 138.595 217.34 138.735 215.175L143.933 136.121C144.073 133.955 145.941 132.319 148.104 132.46L231.124 137.928C233.287 138.068 234.921 139.938 234.781 142.104L229.583 221.158C229.438 223.323 227.57 224.964 225.412 224.819Z" fill="#002E47" stroke="#002E47" stroke-miterlimit="10" stroke-linecap="round" stroke-linejoin="round"/>
<path d="M223.209 221.147L140.189 215.678C138.026 215.538 136.392 213.669 136.532 211.503L141.73 132.449C141.87 130.283 143.738 128.647 145.901 128.788L228.92 134.256C231.084 134.397 232.718 136.266 232.578 138.432L227.38 217.486C227.24 219.651 225.372 221.292 223.209 221.147Z" fill="white" stroke="#002E47" stroke-miterlimit="10" stroke-linecap="round" stroke-linejoin="round"/>
<path d="M232.363 141.683L232.576 138.437C232.716 136.272 231.082 134.407 228.919 134.262L145.899 128.793C143.736 128.653 141.874 130.289 141.728 132.454L141.516 135.7L232.363 141.683Z" fill="white" stroke="#002E47" stroke-miterlimit="10" stroke-linecap="round" stroke-linejoin="round"/>
<path d="M217.541 137.591C217.583 136.931 217.085 136.36 216.426 136.318C215.767 136.277 215.196 136.775 215.155 137.435C215.113 138.094 215.611 138.666 216.27 138.707C216.929 138.749 217.5 138.25 217.541 137.591Z" fill="white" stroke="#002E47" stroke-miterlimit="10" stroke-linecap="round" stroke-linejoin="round"/>
<path d="M222.076 137.887C222.118 137.227 221.62 136.656 220.961 136.614C220.302 136.573 219.731 137.071 219.69 137.731C219.648 138.39 220.146 138.962 220.805 139.003C221.464 139.045 222.03 138.546 222.076 137.887Z" fill="white" stroke="#002E47" stroke-miterlimit="10" stroke-linecap="round" stroke-linejoin="round"/>
<path d="M226.604 138.188C226.645 137.528 226.147 136.957 225.488 136.916C224.829 136.874 224.259 137.373 224.217 138.032C224.176 138.692 224.674 139.263 225.333 139.304C225.991 139.346 226.562 138.842 226.604 138.188Z" fill="white" stroke="#002E47" stroke-miterlimit="10" stroke-linecap="round" stroke-linejoin="round"/>
<path d="M99.7875 218.825L17.4994 231.123C15.3569 231.445 13.3648 229.965 13.0432 227.82L1.36035 149.468C1.03871 147.323 2.51722 145.328 4.65976 145.007L86.9478 132.709C89.0904 132.387 91.0825 133.867 91.4041 136.012L103.087 214.364C103.409 216.509 101.93 218.509 99.7875 218.825Z" fill="#002E47" stroke="#002E47" stroke-miterlimit="10" stroke-linecap="round" stroke-linejoin="round"/>
<path d="M101.992 215.891L19.7038 228.189C17.5613 228.511 15.5692 227.031 15.2476 224.886L3.55957 146.528C3.23793 144.383 4.71644 142.389 6.85898 142.067L89.147 129.769C91.2896 129.447 93.2817 130.927 93.6033 133.072L105.291 211.43C105.608 213.575 104.129 215.569 101.992 215.891Z" fill="white" stroke="#002E47" stroke-miterlimit="10" stroke-linecap="round" stroke-linejoin="round"/>
<path d="M94.0858 136.287L93.6085 133.072C93.2869 130.927 91.2948 129.447 89.1522 129.769L6.85898 142.067C4.71644 142.389 3.23793 144.383 3.55957 146.528L4.03685 149.743L94.0858 136.287Z" fill="white" stroke="#002E47" stroke-miterlimit="10" stroke-linecap="round" stroke-linejoin="round"/>
<path d="M78.7346 135.44C78.636 134.786 78.0291 134.334 77.3754 134.433C76.7217 134.532 76.2704 135.139 76.369 135.794C76.4675 136.448 77.0745 136.9 77.7282 136.801C78.3818 136.702 78.8332 136.09 78.7346 135.44Z" fill="white" stroke="#002E47" stroke-miterlimit="10" stroke-linecap="round" stroke-linejoin="round"/>
<path d="M83.2268 134.765C83.1282 134.111 82.5212 133.659 81.8676 133.758C81.2139 133.856 80.7626 134.464 80.8612 135.118C80.9597 135.773 81.5667 136.225 82.2204 136.126C82.874 136.027 83.3253 135.42 83.2268 134.765Z" fill="white" stroke="#002E47" stroke-miterlimit="10" stroke-linecap="round" stroke-linejoin="round"/>
<path d="M87.7151 134.095C87.6165 133.441 87.0095 132.989 86.3559 133.088C85.7022 133.186 85.2509 133.794 85.3494 134.448C85.448 135.103 86.055 135.555 86.7086 135.456C87.3623 135.357 87.8136 134.75 87.7151 134.095Z" fill="white" stroke="#002E47" stroke-miterlimit="10" stroke-linecap="round" stroke-linejoin="round"/>
<path d="M183.34 114.386C183.34 114.386 182.987 114.475 182.39 114.651C179.252 115.57 169.343 118.889 168.098 124.373C166.614 130.901 173.021 136.437 173.021 136.437C173.021 136.437 175.714 145.796 174.411 149.623C173.109 153.451 167.19 154.266 167.963 160.789C168.736 167.312 175.122 173.155 192.537 173.549C209.953 173.944 214.938 173.518 216.878 161.444C218.44 151.711 210.233 144.607 208.438 137.564C206.643 130.522 209.636 126.201 203.053 118.842C196.465 111.488 183.34 114.386 183.34 114.386Z" fill="#002E47" stroke="#002E47" stroke-miterlimit="10" stroke-linecap="round" stroke-linejoin="round"/>
<path d="M182.167 123.713C182.167 123.713 173.825 127.432 173.592 128.839C173.358 130.247 169.867 140.114 170.645 145.572C171.423 151.031 179.48 151.701 179.48 151.701C179.48 151.701 179.236 155.383 175.091 157.953C170.946 160.524 162.609 164.102 162.609 164.102C162.609 164.102 170.038 170.506 185.83 170.122C201.626 169.737 200.952 166.486 200.952 166.486C200.952 166.486 196.319 163.479 192.74 159.543C189.16 155.611 187.967 149.982 188.569 147.323C189.171 144.658 188.999 142.939 186.701 136.816C184.408 130.688 182.167 123.713 182.167 123.713Z" fill="white" stroke="#002E47" stroke-miterlimit="10" stroke-linecap="round" stroke-linejoin="round"/>
<path d="M178.484 132.147C178.484 132.147 178.645 134.007 177.094 136.037C175.537 138.068 173.379 138.494 174.194 139.117C175.003 139.74 177.4 140.041 177.4 140.041" stroke="#002E47" stroke-miterlimit="10" stroke-linecap="round" stroke-linejoin="round"/>
<path d="M175.293 141.755C175.293 141.755 178.141 143.791 181.741 140.898" stroke="#002E47" stroke-miterlimit="10" stroke-linecap="round" stroke-linejoin="round"/>
<path d="M173.98 131.633C173.98 131.633 175.609 129.218 177.908 130.948" stroke="#002E47" stroke-miterlimit="10" stroke-linecap="round" stroke-linejoin="round"/>
<path d="M180.934 131.249C180.934 131.249 183.481 130.787 184.918 132.875" stroke="#002E47" stroke-miterlimit="10" stroke-linecap="round" stroke-linejoin="round"/>
<path d="M176.161 133.56C176.12 134.194 175.803 134.692 175.461 134.671C175.113 134.651 174.869 134.116 174.911 133.482C174.952 132.849 175.269 132.35 175.611 132.371C175.959 132.392 176.203 132.926 176.161 133.56Z" fill="#002E47"/>
<path d="M183.223 134.775C183.265 134.14 183.018 133.606 182.672 133.583C182.326 133.56 182.012 134.057 181.97 134.692C181.928 135.328 182.175 135.861 182.521 135.884C182.867 135.907 183.181 135.41 183.223 134.775Z" fill="#002E47"/>
<path d="M179.474 151.7L184.526 151.55C184.526 151.55 184.366 152.381 182.078 153.7C179.79 155.019 178.062 155.746 178.062 155.746C178.062 155.746 179.344 153.539 179.474 151.7Z" fill="#002E47" stroke="#002E47" stroke-miterlimit="10"/>
<path d="M148.074 216.089L158.901 171.888L170.605 176.126L161.905 217.075L148.074 216.089Z" fill="white" stroke="#002E47" stroke-miterlimit="10" stroke-linecap="round" stroke-linejoin="round"/>
<path d="M158.901 171.888L152.723 196.51C154.782 197.803 158.818 199.615 165.443 199.776C165.547 199.776 165.645 199.776 165.749 199.781L170.605 176.131L158.901 171.888Z" fill="#39B4EF" stroke="#002E47" stroke-miterlimit="10" stroke-linecap="round" stroke-linejoin="round"/>
<path d="M159.191 216.821L163.196 196.593C163.196 196.593 160.981 192.978 159.798 189C158.616 185.022 162.065 174.266 162.065 174.266C162.065 174.266 170.278 176.686 181.001 178.26C191.724 179.833 202.156 177.05 202.156 177.05L195.267 200.586L197.493 219.464L159.191 216.821Z" fill="#39B4EF" stroke="#002E47" stroke-miterlimit="10" stroke-linecap="round" stroke-linejoin="round"/>
<path d="M205.176 219.916L200.367 202.077L212.859 198.706L216.636 220.648L205.176 219.916Z" fill="white" stroke="#002E47" stroke-miterlimit="10" stroke-linecap="round" stroke-linejoin="round"/>
<path d="M195.352 183.967L200.368 202.071C200.368 202.071 200.851 203.546 205.551 202.269C210.256 200.991 212.86 198.706 212.86 198.706L205.665 174.24C205.665 174.24 203.18 172.485 199.953 173.285C196.726 174.084 195.787 175.18 195.787 175.18" fill="#39B4EF"/>
<path d="M195.352 183.967L200.368 202.071C200.368 202.071 200.851 203.546 205.551 202.269C210.256 200.991 212.86 198.706 212.86 198.706L205.665 174.24C205.665 174.24 203.18 172.485 199.953 173.285C196.726 174.084 195.787 175.18 195.787 175.18" stroke="#002E47" stroke-miterlimit="10" stroke-linecap="round" stroke-linejoin="round"/>
<path d="M161.263 162.357C161.263 162.357 169.065 166.626 181.516 168.314C193.966 170.002 202.651 165.224 203.377 165.131C204.103 165.032 209.929 175.247 209.929 175.247C209.929 175.247 195.263 180.929 182.32 180.223C168.593 179.47 154.633 173.196 154.633 173.196L161.263 162.357Z" fill="#39B4EF" stroke="#002E47" stroke-miterlimit="10" stroke-linecap="round" stroke-linejoin="round"/>
<path d="M73.1425 195.305L80.1148 166.928C80.1148 166.928 77.329 159.616 77.5209 158.364C77.7129 157.113 78.8282 154.495 78.7971 153.649C78.766 152.807 76.7895 150.273 77.7959 149.463C78.8023 148.653 79.7828 149.541 80.5454 150.844C81.3028 152.142 81.0071 153.321 80.976 154.36C80.9448 155.404 80.9863 156.339 80.9863 156.339C80.9863 156.339 85.1262 150.631 86.6825 149.078C88.2388 147.526 89.8314 144.934 90.5785 144.913C91.3307 144.898 91.5538 145.147 91.3255 146.123C91.0921 147.1 88.5345 150.122 88.5345 150.122L86.8537 153.389C86.8537 153.389 88.3374 155.144 89.4994 157.237C90.6563 159.325 91.2685 160.27 90.3865 161.911C89.4994 163.552 85.5308 168.481 85.5308 168.481C85.5308 168.481 86.1741 193.643 85.8317 195.113C85.4841 196.577 83.8655 202.757 80.7218 205.681C79.6531 206.673 76.224 206.45 74.6677 206.112C73.1113 205.78 71.0933 204.855 71.0933 204.855L69.3398 198.14L73.1425 195.305Z" fill="white" stroke="#002E47" stroke-miterlimit="10" stroke-linecap="round" stroke-linejoin="round"/>
<path d="M86.8543 153.384C86.8543 153.384 82.2787 156.801 82.7715 157.575C83.2643 158.349 84.2656 158.764 84.2656 158.764C84.2656 158.764 83.7987 160.156 84.4938 160.883C84.9867 161.397 85.8894 161.444 85.8894 161.444C85.8894 161.444 84.525 162.4 86.294 162.893C88.063 163.381 90.9889 162.192 91.6322 161.434C92.2703 160.681 91.4714 159.102 91.4714 159.102C91.4714 159.102 91.5025 158.058 91.1809 157.165C90.8592 156.271 90.2886 155.601 90.2886 155.601C90.2886 155.601 90.1174 153.836 89.2718 153.207C88.4262 152.584 86.8543 153.384 86.8543 153.384Z" fill="white" stroke="#002E47" stroke-miterlimit="10" stroke-linecap="round" stroke-linejoin="round"/>
<path d="M84.2656 158.769L90.2886 155.606" stroke="#002E47" stroke-miterlimit="10" stroke-linecap="round" stroke-linejoin="round"/>
<path d="M85.8906 161.449L91.4726 159.107" stroke="#002E47" stroke-miterlimit="10" stroke-linecap="round" stroke-linejoin="round"/>
<path d="M59.3906 169.369C59.3906 169.369 61.9793 170.304 63.9091 173.783C65.839 177.263 74.8397 194.676 74.8397 194.676L68.1475 198.41L59.126 171.389L56.4336 168.491C56.4336 168.491 58.7525 168.896 59.3906 169.369Z" fill="#39B4EF" stroke="#002E47" stroke-miterlimit="10" stroke-linecap="round" stroke-linejoin="round"/>
<path d="M27.0022 172.288C27.0022 172.288 18.3646 181.709 18.2971 184.233C18.2297 186.757 30.644 226.439 30.644 226.439L78.1638 219.34C78.1638 219.34 63.1556 174.131 60.4061 170.553C57.6566 166.975 53.7295 166.378 48.5677 166.409C43.4058 166.44 38.5138 167.318 38.5138 167.318C38.5138 167.318 30.4728 168.813 27.0022 172.288Z" fill="#39B4EF" stroke="#002E47" stroke-miterlimit="10" stroke-linecap="round" stroke-linejoin="round"/>
<path d="M30.3217 164.845C30.3217 164.845 27.2298 165.9 26.5554 167.328C25.881 168.761 26.0003 174.505 26.0003 174.505C26.0003 174.505 32.2204 181.558 35.2864 183.318C38.3524 185.079 40.7595 186.346 40.7595 186.346C40.7595 186.346 42.8916 176.863 43.26 176.364C43.6283 175.866 53.8326 178.925 53.8326 178.925C53.8326 178.925 53.1945 175.622 48.9872 170.189C44.78 164.752 34.088 162.358 30.3217 164.845Z" fill="#39B4EF" stroke="#002E47" stroke-miterlimit="10" stroke-linecap="round" stroke-linejoin="round"/>
<path d="M45.0293 137.482C45.0293 137.482 47.2964 145.178 48.9617 148.185C50.6321 151.192 51.0575 156.116 48.889 159.283C46.7205 162.457 42.477 163.293 42.477 163.293C42.477 163.293 42.9906 166.066 43.556 167.811C44.1215 169.556 45.0812 170.532 45.4444 174.344C45.8075 178.156 45.4807 180.036 45.4807 180.036C45.4807 180.036 41.2838 177.102 37.5175 175.019C33.7512 172.937 30.7112 168.912 30.7112 168.912C30.7112 168.912 26.1823 158.297 24.4703 155.7C22.7635 153.109 22.0113 151.488 21.8712 151.203C21.726 150.917 16.7769 148.403 20.097 139.969C23.412 131.535 34.4567 131.312 38.5032 132.538C42.5496 133.763 45.0293 137.482 45.0293 137.482Z" fill="white" stroke="#002E47" stroke-miterlimit="10" stroke-linecap="round" stroke-linejoin="round"/>
<path d="M26.1667 130.938C26.1667 130.938 24.2368 128.886 20.9582 130.086C17.6795 131.286 14.6966 137.84 17.4616 144.139C20.2267 150.439 23.5469 152.901 23.5469 152.901C23.5469 152.901 27.7074 154.215 29.2897 152.553C30.872 150.891 25.6479 147.91 27.0901 146.674C28.5323 145.443 33.9379 143.516 31.9354 141.678C29.933 139.839 26.6803 140.53 29.6373 137.85C32.5943 135.17 35.6758 135.42 37.5745 136.562C39.4732 137.705 42.9179 141.054 48.059 137.336C53.1948 133.618 49.164 129.743 46.7828 128.777C44.4016 127.811 42.4147 128.107 42.4147 128.107C42.4147 128.107 37.8702 122.171 32.7966 122.218C27.7178 122.26 25.9851 129.032 26.1667 130.938Z" fill="#002E47" stroke="#002E47" stroke-miterlimit="10" stroke-linecap="round" stroke-linejoin="round"/>
<path d="M42.0117 141.085C42.0117 141.085 42.8936 145.635 44.5382 147.12C46.1827 148.605 48.8751 149.629 47.8998 150.584C46.9245 151.545 44.4863 152.215 44.4863 152.215" stroke="#002E47" stroke-miterlimit="10" stroke-linecap="round" stroke-linejoin="round"/>
<path d="M45.3884 155.539C45.3884 155.539 42.53 157.492 39.2617 155.336" stroke="#002E47" stroke-miterlimit="10" stroke-linecap="round" stroke-linejoin="round"/>
<path d="M40.3711 155.98C40.3711 155.98 41.1285 159.019 42.4358 158.925C43.7431 158.832 44.07 156.24 44.07 156.24C44.07 156.24 41.4865 156.63 40.3711 155.98Z" fill="#002E47" stroke="#002E47" stroke-miterlimit="10" stroke-linecap="round" stroke-linejoin="round"/>
<path d="M35.6406 144.685C35.6406 144.685 35.8689 142.82 38.2293 142.265" stroke="#002E47" stroke-miterlimit="10" stroke-linecap="round" stroke-linejoin="round"/>
<path d="M43.1875 140.805C43.1875 140.805 44.6608 139.772 45.9007 140.603" stroke="#002E47" stroke-miterlimit="10" stroke-linecap="round" stroke-linejoin="round"/>
<path d="M39.6238 146.326C39.8832 147.032 39.7742 147.717 39.3851 147.863C38.9961 148.008 38.4669 147.551 38.2075 146.85C37.9481 146.144 38.0571 145.458 38.4462 145.313C38.8404 145.162 39.3696 145.619 39.6238 146.326Z" fill="#002E47"/>
<path d="M46.0144 143.667C46.2738 144.373 46.1648 145.059 45.7758 145.204C45.3867 145.35 44.8575 144.893 44.5981 144.191C44.3388 143.485 44.4477 142.8 44.8368 142.654C45.2311 142.509 45.755 142.961 46.0144 143.667Z" fill="#002E47"/>
<path d="M28.7072 154.775C28.7072 154.775 24.1576 150.164 22.3678 152.469C20.578 154.775 24.2406 158.904 26.4609 159.486C28.6813 160.067 29.3505 157.73 29.3505 157.73" fill="white"/>
<path d="M28.7072 154.775C28.7072 154.775 24.1576 150.164 22.3678 152.469C20.578 154.775 24.2406 158.904 26.4609 159.486C28.6813 160.067 29.3505 157.73 29.3505 157.73" stroke="#002E47" stroke-miterlimit="10" stroke-linecap="round" stroke-linejoin="round"/>
<path d="M42.4751 163.298C42.4751 163.298 40.8617 164.046 38.6673 163.661C36.478 163.277 35.207 162.955 35.207 162.955C35.207 162.955 37.749 165.017 39.7204 165.941C41.6865 166.866 43.5541 167.811 43.5541 167.811L42.4751 163.298Z" fill="#002E47" stroke="#002E47" stroke-miterlimit="10" stroke-linecap="round" stroke-linejoin="round"/>
<path d="M88.0474 219.096L68.0331 220.16C67.4624 220.191 66.9748 219.755 66.9488 219.184L65.4703 191.269C65.4392 190.698 65.875 190.21 66.4456 190.184L86.4599 189.119C87.0306 189.088 87.5182 189.524 87.5442 190.096L89.0227 218.01C89.0538 218.581 88.618 219.07 88.0474 219.096Z" fill="#002E47" stroke="#002E47" stroke-miterlimit="10" stroke-linecap="round" stroke-linejoin="round"/>
<path d="M25.1797 217.45C25.1797 217.45 28.448 228.324 29.2469 228.465C30.0458 228.605 64.7622 216.219 64.7622 216.219C64.7622 216.219 66.6142 215.855 67.906 215.227C69.1977 214.598 74.9717 209.748 74.9717 209.748C74.9717 209.748 77.4151 209.296 77.908 208.527C78.4008 207.759 78.8469 207.26 78.323 207.25C77.8042 207.239 67.6725 209.015 67.9267 208.979C68.1809 208.943 75.672 205.738 76.6681 205.416C77.6589 205.094 78.38 204.118 78.1933 203.453C78.0065 202.789 76.0041 203.869 75.0962 204.175C74.1883 204.482 67.1641 206.746 67.1641 206.746C67.1641 206.746 71.0342 203.651 72.2533 203.121C73.4724 202.591 75.8536 201.111 76.113 200.55C76.3776 199.989 75.838 199.288 75.257 199.465C74.676 199.636 66.5468 203.801 65.9346 204.326C65.3225 204.85 61.0166 212.604 61.0166 212.604L38.3358 215.04L37.7496 214.001L25.1797 217.45Z" fill="white" stroke="#002E47" stroke-miterlimit="10" stroke-linecap="round" stroke-linejoin="round"/>
<path d="M74.3794 209.836L67.6094 212.064" stroke="#002E47" stroke-miterlimit="10" stroke-linecap="round" stroke-linejoin="round"/>
<path d="M24.0088 175.985C24.0088 175.985 16.9483 180.145 16.5073 185.089C16.0612 190.033 23.6042 218.883 23.6042 218.883L38.5034 213.845L31.531 189.789" fill="#39B4EF"/>
<path d="M24.0088 175.985C24.0088 175.985 16.9483 180.145 16.5073 185.089C16.0612 190.033 23.6042 218.883 23.6042 218.883L38.5034 213.845L31.531 189.789" stroke="#002E47" stroke-miterlimit="10" stroke-linecap="round" stroke-linejoin="round"/>
<path d="M127.104 127.484V123.48L123.11 123.033C122.892 122.187 122.56 121.387 122.129 120.65L124.65 117.492L121.823 114.662L118.685 117.175C117.948 116.744 117.154 116.407 116.309 116.178L115.862 112.164H111.863L111.417 116.162C110.571 116.381 109.772 116.713 109.035 117.144L105.881 114.62L103.054 117.45L105.565 120.592C105.134 121.33 104.797 122.125 104.569 122.971L100.559 123.418V127.422L104.553 127.868C104.771 128.715 105.103 129.515 105.534 130.252L103.012 133.41L105.84 136.24L108.978 133.727C109.715 134.158 110.509 134.495 111.354 134.724L111.8 138.738H115.8L116.246 134.739C117.092 134.521 117.891 134.189 118.628 133.758L121.782 136.282L124.609 133.451L122.098 130.309C122.529 129.572 122.866 128.777 123.094 127.931L127.104 127.484ZM113.834 130.231C111.199 130.231 109.061 128.092 109.061 125.453C109.061 122.815 111.199 120.676 113.834 120.676C116.469 120.676 118.607 122.815 118.607 125.453C118.607 128.092 116.469 130.231 113.834 130.231Z" fill="#39B4EF" stroke="#002E47" stroke-miterlimit="10" stroke-linecap="round" stroke-linejoin="round"/>
<path d="M142.824 119.45L142.383 116.801L139.691 116.952C139.452 116.417 139.141 115.923 138.778 115.482L140.101 113.114L137.917 111.551L136.117 113.566C135.582 113.363 135.017 113.228 134.436 113.171L133.694 110.559L131.048 111L131.199 113.695C130.664 113.934 130.171 114.246 129.73 114.609L127.365 113.285L125.803 115.472L127.816 117.274C127.614 117.809 127.479 118.375 127.422 118.956L124.812 119.699L125.253 122.348L127.946 122.197C128.185 122.732 128.496 123.225 128.859 123.667L127.536 126.035L129.72 127.598L131.52 125.583C132.055 125.786 132.62 125.921 133.201 125.978L133.943 128.59L136.589 128.149L136.438 125.453C136.973 125.214 137.465 124.903 137.906 124.539L140.272 125.864L141.833 123.677L139.821 121.875C140.023 121.34 140.158 120.774 140.215 120.192L142.824 119.45ZM134.342 122.737C132.599 123.028 130.944 121.849 130.654 120.104C130.363 118.359 131.541 116.702 133.284 116.412C135.027 116.121 136.682 117.3 136.973 119.045C137.263 120.79 136.085 122.446 134.342 122.737Z" fill="#002E47" stroke="#002E47" stroke-miterlimit="10"/>
<path d="M184.184 80.333C180.112 80.333 176.812 83.636 176.812 87.7128C176.812 91.7896 184.184 100.655 184.184 100.655C184.184 100.655 191.556 91.7896 191.556 87.7128C191.556 83.636 188.251 80.333 184.184 80.333ZM184.184 91.8312C182.031 91.8312 180.283 90.081 180.283 87.9257C180.283 85.7705 182.031 84.0203 184.184 84.0203C186.337 84.0203 188.085 85.7705 188.085 87.9257C188.08 90.0862 186.337 91.8312 184.184 91.8312Z" fill="#002E47"/>
<path d="M178.883 45.3145H185.57V20.3914H178.883V45.3145Z" fill="#39B4EF" stroke="#002E47" stroke-miterlimit="10" stroke-linecap="round" stroke-linejoin="round"/>
<path d="M169.969 45.3169H176.656V25.9715H169.969V45.3169Z" fill="#002E47" stroke="#002E47" stroke-miterlimit="10"/>
<path d="M161.051 45.3145H167.738V30.4354H161.051V45.3145Z" fill="#39B4EF" stroke="#002E47" stroke-miterlimit="10" stroke-linecap="round" stroke-linejoin="round"/>
<path d="M152.137 45.3159H158.824V34.1553H152.137V45.3159Z" fill="#002E47" stroke="#002E47" stroke-miterlimit="10"/>
<path d="M155.263 32.5073L154.609 31.6504L161.447 26.4414L164.834 27.5736L170.432 21.5389L173.726 22.5412L179.697 15.6911L182.229 17.327L184.854 15.4678L185.476 16.3507L182.255 18.6306L179.894 17.1037L174.084 23.7772L170.764 22.7645L165.151 28.8148L161.644 27.6463L155.263 32.5073Z" fill="#002E47"/>
<path d="M186.022 18.4018L188.134 13.8057L183.102 14.2731L186.022 18.4018Z" fill="#002E47"/>
<path d="M96.7495 15.9973C96.817 15.6441 96.8533 15.2754 96.8533 14.9015C96.8533 11.6193 94.192 8.95506 90.9133 8.95506C89.689 8.95506 88.5581 9.32379 87.6139 9.95738C86.4155 7.04389 83.5519 4.9873 80.2058 4.9873C75.7807 4.9873 72.1959 8.57594 72.1959 13.0059C72.1959 13.1046 72.2011 13.2033 72.2011 13.3019C70.0171 13.9251 68.4141 15.935 68.4141 18.3239C68.4141 20.9674 70.375 23.1434 72.9118 23.4966V23.5537H96.4953C98.5808 23.5537 100.277 21.8606 100.277 19.7677C100.277 17.7631 98.7209 16.1271 96.7495 15.9973Z" fill="white" stroke="#002E47" stroke-miterlimit="10" stroke-linecap="round" stroke-linejoin="round"/>
<path d="M90.0211 21.1337L83.4897 12.897L76.9531 21.1337H79.5107V28.5395H87.4687V21.1337H90.0211Z" fill="#002E47" stroke="#002E47" stroke-miterlimit="10" stroke-linecap="round" stroke-linejoin="round"/>
<path d="M90.0211 19.5391L83.4897 11.3076L76.9531 19.5391H79.5107V26.9501H87.4687V19.5391H90.0211Z" fill="#39B4EF" stroke="#002E47" stroke-miterlimit="10" stroke-linecap="round" stroke-linejoin="round"/>
<path d="M58.8285 85.3916L42.1395 79.8295C41.5014 79.6165 41.159 78.931 41.3717 78.2922L52.9248 43.5432C53.1375 42.9044 53.8223 42.5616 54.4604 42.7746L71.1494 48.3367C71.7874 48.5496 72.1298 49.2352 71.9171 49.874L60.364 84.623C60.1513 85.2565 59.4665 85.5993 58.8285 85.3916Z" fill="#39B4EF" stroke="#002E47" stroke-miterlimit="10" stroke-linecap="round" stroke-linejoin="round"/>
<path d="M70.9103 52.9067L71.9219 49.8686C72.1346 49.2298 71.7922 48.5443 71.1541 48.3313L54.4652 42.7692C53.8271 42.5563 53.1423 42.899 52.9296 43.5378L51.918 46.576L70.9103 52.9067Z" fill="#002E47" stroke="#002E47" stroke-miterlimit="10" stroke-linecap="round" stroke-linejoin="round"/>
<path d="M42.2783 75.5757L41.3756 78.2918C41.1629 78.9306 41.5053 79.6161 42.1434 79.8291L58.8324 85.3912C59.4704 85.6041 60.1552 85.2614 60.3679 84.6226L61.2706 81.9064L42.2783 75.5757Z" fill="#002E47" stroke="#002E47" stroke-miterlimit="10" stroke-linecap="round" stroke-linejoin="round"/>
<path d="M49.9249 92.0547H20.1732C18.1759 92.0547 16.5625 93.675 16.5625 95.6693V112.444C16.5625 114.443 18.1811 116.059 20.1732 116.059H40.8463L44.54 122.395L47.1183 116.059H49.9197C51.917 116.059 53.5304 114.438 53.5304 112.444V95.6693C53.5356 93.6698 51.917 92.0547 49.9249 92.0547Z" fill="#002E47" stroke="#002E47" stroke-miterlimit="10" stroke-linecap="round" stroke-linejoin="round"/>
<path d="M29.8852 104.727C29.8852 103.62 28.9929 102.727 27.8879 102.727C26.7829 102.727 25.8906 103.62 25.8906 104.727C25.8906 105.833 26.7829 106.726 27.8879 106.726C28.9929 106.726 29.8852 105.828 29.8852 104.727Z" fill="#39B4EF"/>
<path d="M37.8774 104.727C37.8774 103.62 36.9851 102.727 35.8801 102.727C34.7751 102.727 33.8828 103.62 33.8828 104.727C33.8828 105.833 34.7751 106.726 35.8801 106.726C36.9851 106.726 37.8774 105.828 37.8774 104.727Z" fill="#39B4EF"/>
<path d="M45.8735 104.727C45.8735 103.62 44.9812 102.727 43.8762 102.727C42.7712 102.727 41.8789 103.62 41.8789 104.727C41.8789 105.833 42.7712 106.726 43.8762 106.726C44.9812 106.726 45.8735 105.828 45.8735 104.727Z" fill="#39B4EF"/>
<path d="M141.54 19.2275L88.5729 48.2171L79.3906 85.3343L130.241 53.8727L141.54 19.2275Z" fill="#002E47" stroke="#002E47" stroke-miterlimit="10" stroke-linecap="round" stroke-linejoin="round"/>
<path d="M138.805 22.1411L90.5019 48.5755L82.1289 82.4208L128.497 53.7325L138.805 22.1411Z" fill="white" stroke="#002E47" stroke-miterlimit="10" stroke-linecap="round" stroke-linejoin="round"/>
<path d="M130.241 53.8726L160.377 70.3564L106.927 107.577L79.3906 85.3341L130.241 53.8726Z" fill="#E2EDFF" stroke="#002E47" stroke-miterlimit="10" stroke-linecap="round" stroke-linejoin="round"/>
<path d="M145.378 78.396L137.773 73.3169L112.773 90.2578L119.943 96.0224L145.378 78.396Z" fill="#E2EDFF" stroke="#002E47" stroke-miterlimit="10" stroke-linecap="round" stroke-linejoin="round"/>
<path d="M130.461 64.244L132.095 65.1944L135.016 63.3196L133.361 62.3848L130.461 64.244Z" fill="#002E47"/>
<path d="M103.993 88.6424L102.551 87.5674L99.5625 89.4837L100.979 90.5744L103.993 88.6424Z" fill="#002E47"/>
<path d="M115.777 68.2275L117.344 69.2246L120.218 67.381L118.631 66.3994L115.777 68.2275Z" fill="#002E47"/>
<path d="M128.238 62.9508L129.872 63.9012L132.767 62.0471L131.107 61.1123L128.238 62.9508Z" fill="#002E47"/>
<path d="M102.037 87.1829L100.6 86.1079L97.6328 88.0035L99.0543 89.0941L102.037 87.1829Z" fill="#002E47"/>
<path d="M119.191 66.041L120.784 67.0173L123.653 65.1789L122.039 64.2129L119.191 66.041Z" fill="#002E47"/>
<path d="M119.649 75.8874L118.103 74.8799L115.156 76.7703L116.676 77.7934L119.649 75.8874Z" fill="#002E47"/>
<path d="M126.693 71.3692L125.106 70.3877L122.164 72.2781L123.731 73.27L126.693 71.3692Z" fill="#002E47"/>
<path d="M123.17 73.6287L121.603 72.6367L118.656 74.5219L120.202 75.5294L123.17 73.6287Z" fill="#002E47"/>
<path d="M136.458 65.1111L134.803 64.1763L132.676 65.5317L134.31 66.4821L136.458 65.1111Z" fill="#002E47"/>
<path d="M130.218 69.11L128.609 68.144L125.668 70.0292L127.261 71.0108L130.218 69.11Z" fill="#002E47"/>
<path d="M133.742 66.8513L132.108 65.9009L129.172 67.7809L130.78 68.7469L133.742 66.8513Z" fill="#002E47"/>
<path d="M122.609 63.8492L124.218 64.8152L127.086 62.9768L125.452 62.0264L122.609 63.8492Z" fill="#002E47"/>
<path d="M94.6638 86.4819L93.2424 85.3965L90.332 87.2609L91.7327 88.3619L94.6638 86.4819Z" fill="#002E47"/>
<path d="M112.363 70.4187L113.909 71.4262L116.788 69.5826L115.217 68.5854L112.363 70.4187Z" fill="#002E47"/>
<path d="M96.5882 87.9622L95.1667 86.8716L92.2305 88.7568L93.6312 89.8578L96.5882 87.9622Z" fill="#002E47"/>
<path d="M98.5126 89.4422L97.0963 88.3516L94.1289 90.2523L95.5296 91.3533L98.5126 89.4422Z" fill="#002E47"/>
<path d="M91.8594 83.5688L93.2756 84.6594L96.1756 82.8001L94.7334 81.7251L91.8594 83.5688Z" fill="#002E47"/>
<path d="M88.4336 85.7654L89.8343 86.8664L92.7342 85.0071L91.318 83.9165L88.4336 85.7654Z" fill="#002E47"/>
<path d="M108.945 72.6106L110.471 73.6337L113.355 71.7849L111.809 70.7773L108.945 72.6106Z" fill="#002E47"/>
<path d="M105.531 74.8023L107.031 75.8358L109.92 73.987L108.395 72.9639L105.531 74.8023Z" fill="#002E47"/>
<path d="M98.6953 79.1855L100.153 80.2501L103.048 78.3909L101.564 77.3418L98.6953 79.1855Z" fill="#002E47"/>
<path d="M102.113 76.9937L103.592 78.0428L106.481 76.1888L104.982 75.1553L102.113 76.9937Z" fill="#002E47"/>
<path d="M95.2773 81.3769L96.7144 82.4519L99.6143 80.5979L98.1514 79.5332L95.2773 81.3769Z" fill="#002E47"/>
<path d="M124.793 65.163L126.406 66.1238L129.301 64.2697L127.667 63.3193L124.793 65.163Z" fill="#002E47"/>
<path d="M114.055 76.7599L112.53 75.7368L109.609 77.6116L111.114 78.6451L114.055 76.7599Z" fill="#002E47"/>
<path d="M117.553 74.5217L116.007 73.5142L113.086 75.3838L114.611 76.4069L117.553 74.5217Z" fill="#002E47"/>
<path d="M121.045 72.2781L119.478 71.2861L116.562 73.1558L118.108 74.1633L121.045 72.2781Z" fill="#002E47"/>
<path d="M116.125 78.1466L114.6 77.1235L111.648 79.0191L113.153 80.0526L116.125 78.1466Z" fill="#002E47"/>
<path d="M124.537 70.0397L122.949 69.0581L120.039 70.9277L121.606 71.9197L124.537 70.0397Z" fill="#002E47"/>
<path d="M123.508 68.6999L125.1 69.6762L128.032 67.8014L126.418 66.8354L123.508 68.6999Z" fill="#002E47"/>
<path d="M102.66 82.0677L104.123 83.1323L107.07 81.2419L105.591 80.1929L102.66 82.0677Z" fill="#002E47"/>
<path d="M117.906 69.5774L119.473 70.5745L122.378 68.7101L120.791 67.7285L117.906 69.5774Z" fill="#002E47"/>
<path d="M84.7453 83.6255L82.5664 84.9706L85.2173 87.1154L87.4014 85.7132L84.7453 83.6255Z" fill="#002E47"/>
<path d="M110.563 78.9983L109.059 77.9648L106.133 79.8397L107.617 80.8887L110.563 78.9983Z" fill="#002E47"/>
<path d="M131.524 65.5578L129.89 64.6074L126.984 66.4718L128.598 67.4378L131.524 65.5578Z" fill="#002E47"/>
<path d="M121.352 67.3703L122.944 68.3467L125.844 66.4875L124.231 65.5215L121.352 67.3703Z" fill="#002E47"/>
<path d="M105.557 84.924L104.099 83.8594L101.137 85.7602L102.574 86.8352L105.557 84.924Z" fill="#002E47"/>
<path d="M103.578 83.4804L102.115 82.4209L99.1836 84.3009L100.626 85.3759L103.578 83.4804Z" fill="#002E47"/>
<path d="M109.081 82.6648L107.598 81.6157L104.641 83.5113L106.104 84.576L109.081 82.6648Z" fill="#002E47"/>
<path d="M112.605 80.406L111.1 79.3726L108.148 81.263L109.627 82.312L112.605 80.406Z" fill="#002E47"/>
<path d="M100.08 85.7238L98.6433 84.6436L95.707 86.5288L97.1285 87.6142L100.08 85.7238Z" fill="#002E47"/>
<path d="M111.016 73.9971L112.541 75.0202L115.451 73.1506L113.905 72.1431L111.016 73.9971Z" fill="#002E47"/>
<path d="M107.57 76.2093L109.07 77.2428L111.985 75.3732L110.465 74.3501L107.57 76.2093Z" fill="#002E47"/>
<path d="M114.461 71.7901L116.007 72.7976L118.917 70.928L117.351 69.936L114.461 71.7901Z" fill="#002E47"/>
<path d="M104.121 78.4169L105.605 79.4659L108.525 77.5963L107.021 76.5576L104.121 78.4169Z" fill="#002E47"/>
<path d="M100.676 80.6293L102.134 81.6887L105.059 79.8191L103.576 78.77L100.676 80.6293Z" fill="#002E47"/>
<path d="M97.2266 82.8363L98.6688 83.9165L101.595 82.0365L100.132 80.9771L97.2266 82.8363Z" fill="#002E47"/>
<path d="M93.7812 85.0485L95.1975 86.1391L98.1286 84.2591L96.6864 83.1841L93.7812 85.0485Z" fill="#002E47"/>
<path d="M100.437 90.9174L99.0207 89.832L96.0273 91.7484L97.4228 92.8494L100.437 90.9174Z" fill="#002E47"/>
<path d="M96.8916 93.197L95.4961 92.0908L93.2031 93.5606L94.5831 94.6771L96.8916 93.197Z" fill="#002E47"/>
<path d="M103.409 93.197L100.945 91.3066L97.9258 93.2438L100.395 95.1913L103.409 93.197Z" fill="#002E47"/>
<path d="M104.504 89.0269L101.484 90.964L103.938 92.844L106.947 90.8549L104.504 89.0269Z" fill="#002E47"/>
<path d="M111.623 84.4619L108.609 86.399L111.022 88.1544L114.025 86.1653L111.623 84.4619Z" fill="#002E47"/>
<path d="M94.7631 80.9925L97.6267 79.1541L95.0276 77.2637L92.1484 79.045L94.7631 80.9925Z" fill="#002E47"/>
<path d="M94.9907 91.6962L93.5952 90.5952L91.3281 92.0494L92.7081 93.1659L94.9907 91.6962Z" fill="#002E47"/>
<path d="M87.9348 85.3705L90.8088 83.5269L88.1734 81.5015L85.2891 83.288L87.9348 85.3705Z" fill="#002E47"/>
<path d="M91.3489 83.1792L94.2178 81.3407L91.598 79.3828L88.7188 81.1641L91.3489 83.1792Z" fill="#002E47"/>
<path d="M89.3009 87.2089L87.9002 86.1079L85.7109 87.5101L87.0909 88.6267L89.3009 87.2089Z" fill="#002E47"/>
<path d="M91.1927 88.705L89.7972 87.604L87.582 89.027L88.962 90.1384L91.1927 88.705Z" fill="#002E47"/>
<path d="M93.0936 90.2006L91.6981 89.0996L89.457 90.5382L90.837 91.6496L93.0936 90.2006Z" fill="#002E47"/>
<path d="M108.062 86.7471L105.043 88.679L107.481 90.5019L110.485 88.5076L108.062 86.7471Z" fill="#002E47"/>
<path d="M143.792 63.8335L140.68 65.8278L142.864 67.0638L145.956 65.0124L143.792 63.8335Z" fill="#002E47"/>
<path d="M140.111 66.1968L137.117 68.1183L139.327 69.4063L142.3 67.4328L140.111 66.1968Z" fill="#002E47"/>
<path d="M136.545 68.4819L133.547 70.4035L135.793 71.7486L138.771 69.7751L136.545 68.4819Z" fill="#002E47"/>
<path d="M97.3931 93.5864L95.0742 95.0769L97.5488 97.0764L99.8677 95.5443L97.3931 93.5864Z" fill="#002E47"/>
<path d="M128.841 59.1389L131.772 57.2588L129.432 55.9761L126.48 57.8042L128.841 59.1389Z" fill="#002E47"/>
<path d="M132.983 70.7671L129.984 72.6886L132.257 74.0909L135.24 72.1122L132.983 70.7671Z" fill="#002E47"/>
<path d="M131.705 74.4543L129.422 73.0469L112.168 84.114L114.565 85.807L131.705 74.4543Z" fill="#002E47"/>
<path d="M135.96 68.1389L134.325 67.1885L131.363 69.0893L132.971 70.0552L135.96 68.1389Z" fill="#002E47"/>
<path d="M128.853 72.6988L127.266 71.7173L124.293 73.6233L125.86 74.6204L128.853 72.6988Z" fill="#002E47"/>
<path d="M107.54 86.3627L106.082 85.3032L103.094 87.2196L104.531 88.2946L107.54 86.3627Z" fill="#002E47"/>
<path d="M132.405 70.4191L130.797 69.4531L127.824 71.3591L129.417 72.3407L132.405 70.4191Z" fill="#002E47"/>
<path d="M135.371 63.8646L137.026 64.7994L140.906 62.2547L139.226 61.3354L135.371 63.8646Z" fill="#002E47"/>
<path d="M143.192 63.5065L141.511 62.582L135.141 66.7575L136.796 67.6923L143.192 63.5065Z" fill="#002E47"/>
<path d="M133.93 62.0159L135.59 62.9507L138.625 61.0032L136.944 60.084L133.93 62.0159Z" fill="#002E47"/>
<path d="M111.093 84.0881L109.609 83.0391L106.621 84.9554L108.084 86.0149L111.093 84.0881Z" fill="#002E47"/>
<path d="M114.644 81.8131L113.139 80.7744L110.156 82.6908L111.64 83.7398L114.644 81.8131Z" fill="#002E47"/>
<path d="M125.297 74.9786L123.73 73.9814L120.758 75.8926L122.304 76.9001L125.297 74.9786Z" fill="#002E47"/>
<path d="M121.75 77.2536L120.204 76.2461L117.227 78.1573L118.747 79.1804L121.75 77.2536Z" fill="#002E47"/>
<path d="M118.196 79.5334L116.67 78.5103L113.688 80.4214L115.192 81.4601L118.196 79.5334Z" fill="#002E47"/>
<path d="M118.626 65.6877L121.463 63.87L119.03 62.4106L116.172 64.1764L118.626 65.6877Z" fill="#002E47"/>
<path d="M111.809 70.0607L114.657 68.2326L112.172 66.6538L109.309 68.43L111.809 70.0607Z" fill="#002E47"/>
<path d="M108.401 72.247L111.255 70.4137L108.744 68.7778L105.875 70.5488L108.401 72.247Z" fill="#002E47"/>
<path d="M115.218 67.874L118.061 66.0511L115.602 64.5347L112.738 66.3056L115.218 67.874Z" fill="#002E47"/>
<path d="M101.585 76.62L104.443 74.7867L101.886 73.021L99.0117 74.7971L101.585 76.62Z" fill="#002E47"/>
<path d="M104.994 74.4332L107.852 72.5999L105.315 70.8965L102.441 72.6726L104.994 74.4332Z" fill="#002E47"/>
<path d="M131.684 60.7434L133.338 61.6782L136.342 59.7566L134.656 58.8374L131.684 60.7434Z" fill="#002E47"/>
<path d="M129.434 59.4711L131.094 60.4111L134.056 58.5052L132.375 57.5859L129.434 59.4711Z" fill="#002E47"/>
<path d="M126.02 61.6627L127.654 62.6131L130.517 60.7747L128.862 59.8398L126.02 61.6627Z" fill="#002E47"/>
<path d="M122.028 63.5065L124.866 61.6888L122.464 60.2866L119.605 62.0524L122.028 63.5065Z" fill="#002E47"/>
<path d="M123.043 59.9283L125.44 61.3202L128.272 59.5077L125.896 58.1626L123.043 59.9283Z" fill="#002E47"/>
<path d="M98.1707 78.8062L101.034 76.9677L98.456 75.1396L95.582 76.921L98.1707 78.8062Z" fill="#002E47"/>
<path d="M90.6499 96.5884L77.2344 105.132V110.263" stroke="#002E47" stroke-miterlimit="10" stroke-linecap="round" stroke-linejoin="round"/>
<path d="M72.3516 112.215H82.5974" stroke="#002E47" stroke-miterlimit="10" stroke-linecap="round" stroke-linejoin="round"/>
<path d="M72.3516 113.924H82.5974" stroke="#002E47" stroke-miterlimit="10" stroke-linecap="round" stroke-linejoin="round"/>
<path d="M72.3516 115.633H82.5974" stroke="#002E47" stroke-miterlimit="10" stroke-linecap="round" stroke-linejoin="round"/>
<path d="M72.3516 117.346H82.5974" stroke="#002E47" stroke-miterlimit="10" stroke-linecap="round" stroke-linejoin="round"/>
<path d="M121.629 4.76416H131.875" stroke="#002E47" stroke-miterlimit="10" stroke-linecap="round" stroke-linejoin="round"/>
<path d="M121.629 6.47266H131.875" stroke="#002E47" stroke-miterlimit="10" stroke-linecap="round" stroke-linejoin="round"/>
<path d="M121.629 8.18164H131.875" stroke="#002E47" stroke-miterlimit="10" stroke-linecap="round" stroke-linejoin="round"/>
<path d="M121.629 9.89014H131.875" stroke="#002E47" stroke-miterlimit="10" stroke-linecap="round" stroke-linejoin="round"/>
<path d="M126.992 32.6009V12.5752" stroke="#002E47" stroke-miterlimit="10" stroke-linecap="round" stroke-linejoin="round"/>
<path d="M171.395 56.0488H181.64" stroke="#002E47" stroke-miterlimit="10" stroke-linecap="round" stroke-linejoin="round"/>
<path d="M171.395 57.7573H181.64" stroke="#002E47" stroke-miterlimit="10" stroke-linecap="round" stroke-linejoin="round"/>
<path d="M171.395 59.4663H181.64" stroke="#002E47" stroke-miterlimit="10" stroke-linecap="round" stroke-linejoin="round"/>
<path d="M171.395 61.1748H181.64" stroke="#002E47" stroke-miterlimit="10" stroke-linecap="round" stroke-linejoin="round"/>
<path d="M154.316 66.7939L162.855 60.4424H168.712" stroke="#002E47" stroke-miterlimit="10" stroke-linecap="round" stroke-linejoin="round"/>
</svg>
