<svg width="66" height="67" viewBox="0 0 66 67" fill="none" xmlns="http://www.w3.org/2000/svg">
<rect y="0.5" width="66" height="66" rx="33" fill="#39B4EF"/>
<g clip-path="url(#clip0_475_133)">
<path d="M11.2847 36.8245L14.2865 37.3165C14.7608 39.615 15.6684 41.8023 16.9608 43.7614L15.1832 46.2424C14.8143 46.7445 14.8207 47.4297 15.1988 47.9249C15.647 48.4728 16.1233 48.9972 16.6256 49.496C17.1324 50.0036 17.6548 50.4713 18.1928 50.9236C18.6884 51.3024 19.3745 51.3088 19.877 50.9392L22.3564 49.1607C24.3136 50.4539 26.4993 51.3621 28.7966 51.8366L29.2878 54.8407C29.3814 55.4553 29.8717 55.9329 30.4885 56.0103C30.9158 56.0586 31.3462 56.0882 31.786 56.1101C31.9995 56.1205 32.2081 56.0434 32.3634 55.8966C32.5188 55.7497 32.6076 55.5458 32.6093 55.332V49.0836C32.607 48.6624 32.2724 48.3181 31.8515 48.3039C23.9723 47.8954 17.7933 41.3878 17.7933 33.4981C17.7933 25.6084 23.9723 19.1007 31.8515 18.6923C32.2724 18.678 32.607 18.3338 32.6093 17.9126V11.6696C32.6082 11.4559 32.52 11.2519 32.365 11.1046C32.21 10.9574 32.0017 10.8799 31.7882 10.8899C31.35 10.9081 30.9168 10.9388 30.4884 10.9819C29.8715 11.0659 29.3831 11.5455 29.2878 12.1608L28.7965 15.1649C26.4993 15.6401 24.3136 16.5484 22.3563 17.8416L19.8769 16.0623C19.3744 15.6927 18.6883 15.699 18.1928 16.0779C17.6464 16.5268 17.1233 17.0033 16.6256 17.5055C16.1195 18.0007 15.643 18.5253 15.1987 19.0766C14.819 19.5724 14.8127 20.2595 15.1831 20.7622L16.9608 23.2432C15.6686 25.2016 14.761 27.388 14.2864 29.6858L11.2846 30.177C10.67 30.2709 10.1924 30.7615 10.1151 31.3785C9.96163 32.7778 9.96163 34.1896 10.1151 35.5888C10.1845 36.216 10.6622 36.7208 11.2847 36.8245Z" fill="white"/>
<path d="M31.8641 21.8289C25.7044 22.2191 20.9082 27.3287 20.9082 33.5007C20.9082 39.6728 25.7045 44.7824 31.8641 45.1726C32.0601 45.1808 32.2509 45.1081 32.3917 44.9716C32.5326 44.8351 32.6113 44.6467 32.6095 44.4506V22.5508C32.6114 22.3547 32.5327 22.1664 32.3917 22.0299C32.2509 21.8934 32.0601 21.8207 31.8641 21.8289Z" fill="white"/>
<path d="M38.0664 22.5852H34.168V24.1445H38.0664C39.3566 24.1407 40.4016 23.0957 40.4054 21.8054V16.9839C41.4795 16.6042 42.1238 15.5059 41.9311 14.3831C41.7385 13.2603 40.765 12.4396 39.6257 12.4396C38.4865 12.4396 37.513 13.2603 37.3203 14.3831C37.1277 15.5059 37.7719 16.6042 38.846 16.9839V21.8054C38.846 22.2361 38.4969 22.5852 38.0664 22.5852Z" fill="white"/>
<path d="M34.168 27.2633H41.9648C42.3955 27.2633 42.7445 26.9142 42.7445 26.4836C42.7445 26.0529 42.3955 25.7039 41.9648 25.7039H34.168V27.2633Z" fill="white"/>
<path d="M34.168 44.4163H38.0664C38.497 44.4163 38.8461 44.7653 38.8461 45.196V50.0175C37.772 50.3972 37.1277 51.4955 37.3204 52.6184C37.513 53.7412 38.4865 54.5619 39.6258 54.5619C40.765 54.5619 41.7385 53.7412 41.9312 52.6184C42.1238 51.4955 41.4796 50.3972 40.4055 50.0175V45.196C40.4016 43.9057 39.3567 42.8608 38.0664 42.8569H34.168V44.4163H34.168Z" fill="white"/>
<path d="M45.8632 36.6195H34.168V38.1789H45.8632C46.2939 38.1789 46.6429 38.5279 46.6429 38.9586V43.0005C45.5689 43.3802 44.9246 44.4785 45.1173 45.6013C45.3099 46.7241 46.2834 47.5448 47.4227 47.5448C48.5618 47.5448 49.5354 46.7241 49.7281 45.6013C49.9207 44.4785 49.2764 43.3802 48.2024 43.0005V38.9586C48.1984 37.6683 47.1535 36.6234 45.8632 36.6195Z" fill="white"/>
<path d="M53.6601 31.1616C52.6724 31.1657 51.7937 31.7897 51.4645 32.721H34.168V34.2803H51.4645C51.8629 35.3988 53.0373 36.0403 54.1937 35.7711C55.3502 35.5018 56.1205 34.4077 55.9839 33.2282C55.8474 32.0488 54.8474 31.1595 53.6601 31.1616Z" fill="white"/>
<path d="M42.7445 40.5179C42.7445 40.0872 42.3955 39.7382 41.9648 39.7382H34.168V41.2975H41.9648C42.3955 41.2976 42.7445 40.9485 42.7445 40.5179Z" fill="white"/>
<path d="M48.2024 28.043V24.0011C49.2764 23.6214 49.9207 22.5231 49.7281 21.4003C49.5354 20.2775 48.5619 19.4568 47.4227 19.4568C46.2835 19.4568 45.3099 20.2775 45.1173 21.4003C44.9246 22.5231 45.5689 23.6214 46.6429 24.0011V28.043C46.6429 28.4737 46.2939 28.8227 45.8632 28.8227H34.168V30.3821H45.8632C47.1536 30.3782 48.1985 29.3332 48.2024 28.043Z" fill="white"/>
</g>
<defs>
<clipPath id="clip0_475_133">
<rect width="46" height="46" fill="white" transform="translate(10 10.5)"/>
</clipPath>
</defs>
</svg>
