<svg width="67" height="67" viewBox="0 0 67 67" fill="none" xmlns="http://www.w3.org/2000/svg">
<rect x="0.5" y="0.5" width="66" height="66" rx="33" fill="#39B4EF"/>
<g clip-path="url(#clip0_136_10479)">
<path d="M20.9012 15.5C17.9411 15.5 15.5098 17.9488 15.5098 20.9089V26.3004C15.5098 29.2606 17.941 31.7058 20.9013 31.7058H26.2927C29.2528 31.7058 31.7016 29.2605 31.7016 26.3004V20.9089C31.7015 17.9488 29.2528 15.5 26.2926 15.5L20.9012 15.5ZM40.6919 15.5C37.7317 15.5 35.3005 17.9488 35.3005 20.9089V26.3004C35.3005 29.2606 37.7317 31.7058 40.6919 31.7058H46.1008C49.061 31.7058 51.4922 29.2605 51.4922 26.3004V20.9089C51.4922 17.9488 49.0611 15.5 46.1008 15.5L40.6919 15.5ZM20.9012 35.3082C17.941 35.3082 15.5098 37.7395 15.5098 40.6996V46.0946C15.5098 49.0547 17.941 51.5 20.9012 51.5H26.2926C29.2528 51.5 31.7015 49.0547 31.7015 46.0946V40.6996C31.7015 37.7395 29.2528 35.3082 26.2926 35.3082H20.9012ZM40.6919 35.3082C37.7317 35.3082 35.3005 37.7395 35.3005 40.6996V46.0946C35.3005 49.0547 37.7317 51.5 40.6919 51.5H46.1008C49.061 51.5 51.4922 49.0547 51.4922 46.0946V40.6996C51.4922 37.7395 49.0611 35.3082 46.1008 35.3082H40.6919Z" fill="white"/>
</g>
<defs>
<clipPath id="clip0_136_10479">
<rect width="36" height="36" fill="white" transform="translate(15.5 15.5)"/>
</clipPath>
</defs>
</svg>
