<svg width="67" height="67" viewBox="0 0 67 67" fill="none" xmlns="http://www.w3.org/2000/svg">
<rect x="0.5" y="0.5" width="66" height="66" rx="33" fill="#39B4EF"/>
<g clip-path="url(#clip0_475_2901)">
<path d="M52.6042 20.7027L51.916 20.9209L48.2511 21.2474L47.2159 22.9005L46.4647 22.6618L43.548 20.0321L43.1248 18.6645L42.5582 17.2062L40.725 15.5618L38.5623 15.1387L38.5125 16.1285L40.6312 18.196L41.6679 19.4171L40.5024 20.0262L39.5536 19.7466L38.1318 19.1536L38.1801 18.0071L36.3147 17.2398L35.6954 19.9355L33.8153 20.3616L34.0012 21.8653L36.4509 22.3368L36.874 19.934L38.8961 20.2327L39.8362 20.7832H41.3443L42.3766 22.8507L45.1132 25.6269L44.9126 26.706L42.706 26.4249L38.8932 28.3503L36.1478 31.6434L35.7905 33.1017H34.8051L32.969 32.2554L31.1855 33.1017L31.6292 34.9833L32.4052 34.0886L33.7699 34.0462L33.6747 35.7359L34.8051 36.0668L35.934 37.3348L37.7775 36.8165L39.883 37.1489L42.3283 37.8063L43.5494 37.9498L45.6198 40.2999L49.6157 42.6499L47.0314 47.5873L44.3035 48.8553L43.2683 51.6769L39.3208 54.3125L38.9005 55.8323C48.992 53.4017 56.499 44.3367 56.499 33.4986C56.4961 28.7647 55.0611 24.3589 52.6042 20.7027Z" fill="white"/>
<path d="M36.1459 45.5198L34.4708 42.4142L36.0082 39.2105L34.4708 38.7507L32.7445 37.0171L28.9199 36.1591L27.6504 33.503V35.0799H27.0911L23.7951 30.6111V26.9403L21.3792 23.0118L17.5429 23.6956H14.9586L13.6583 22.8434L15.3173 21.5286L13.6627 21.9107C11.6685 25.3165 10.5059 29.2684 10.5059 33.5015C10.5059 46.2007 20.8008 56.5 33.5015 56.5C34.4796 56.5 35.4386 56.4137 36.3874 56.2994L36.1473 53.513C36.1473 53.513 37.203 49.3751 37.203 49.2346C37.2016 49.0925 36.1459 45.5198 36.1459 45.5198Z" fill="white"/>
<path d="M19.0513 17.9163L23.1365 17.3467L25.0195 16.3144L27.1382 16.925L30.5235 16.7376L31.6832 14.9146L33.3744 15.1928L37.4815 14.8077L38.6133 13.5602L40.2093 12.4943L42.4672 12.834L43.2901 12.7095C40.3162 11.3097 37.0071 10.5 33.5003 10.5C26.3622 10.5 19.9797 13.7535 15.7656 18.8622H15.7773L19.0513 17.9163ZM34.4725 12.7871L36.8211 11.4942L38.3293 12.3654L36.1461 14.0273L34.0611 14.2367L33.1225 13.6276L34.4725 12.7871ZM27.516 12.976L28.5527 13.4079L29.91 12.976L30.6494 14.2572L27.516 15.0801L26.0093 14.1986C26.0093 14.1986 27.4823 13.2498 27.516 12.976Z" fill="white"/>
</g>
<defs>
<clipPath id="clip0_475_2901">
<rect width="46" height="46" fill="white" transform="translate(10.5 10.5)"/>
</clipPath>
</defs>
</svg>
