<svg width="563" height="385" viewBox="0 0 563 385" fill="none" xmlns="http://www.w3.org/2000/svg">
<g clip-path="url(#clip0_138_13058)">
<path d="M518.072 162.18C488.176 136.207 452.41 118.574 416.94 101.549C377.178 82.4588 335.678 63.4009 293.088 51.6428C278.897 47.7288 264.466 44.6392 249.874 42.6942C185.694 34.1297 124.284 77.5443 79.8451 118.934C62.1222 135.446 45.5765 153.296 30.5846 172.33C19.6369 186.225 6.57498 201.088 1.95406 218.89C-3.46772 239.805 7.86436 257.326 19.1644 273.966C28.222 287.309 37.6241 299.884 48.9802 311.418C75.1761 338.024 107.635 358.426 142.96 370.505C208.734 392.996 281.748 384.464 349.308 376.316C353.12 375.859 356.924 375.379 360.728 374.883C402.445 369.448 443.889 365.766 483.611 350.574C541.257 328.523 580.114 263.785 551.251 204.13C543.355 187.786 531.751 174.066 518.072 162.18Z" fill="#39B4EF"/>
<path opacity="0.7" d="M518.072 162.18C488.176 136.207 452.41 118.574 416.94 101.549C377.178 82.4588 335.678 63.4009 293.088 51.6428C278.897 47.7288 264.466 44.6392 249.874 42.6942C185.694 34.1297 124.284 77.5443 79.8451 118.934C62.1222 135.446 45.5765 153.296 30.5846 172.33C19.6369 186.225 6.57498 201.088 1.95406 218.89C-3.46772 239.805 7.86436 257.326 19.1644 273.966C28.222 287.309 37.6241 299.884 48.9802 311.418C75.1761 338.024 107.635 358.426 142.96 370.505C208.734 392.996 281.748 384.464 349.308 376.316C353.12 375.859 356.924 375.379 360.728 374.883C402.445 369.448 443.889 365.766 483.611 350.574C541.257 328.523 580.114 263.785 551.251 204.13C543.355 187.786 531.751 174.066 518.072 162.18Z" fill="white"/>
<path d="M12.4375 364.285H562.36" stroke="#002E47" stroke-miterlimit="10" stroke-linecap="round" stroke-linejoin="round"/>
<path d="M65.9253 126.378C80.8971 126.378 93.0342 114.247 93.0342 99.2836C93.0342 84.32 80.8971 72.1896 65.9253 72.1896C50.9535 72.1896 38.8164 84.32 38.8164 99.2836C38.8164 114.247 50.9535 126.378 65.9253 126.378Z" stroke="#002E47" stroke-miterlimit="10" stroke-linecap="round" stroke-linejoin="round"/>
<path d="M71.4371 122.596C84.3246 119.554 92.3051 106.647 89.262 93.7666C86.2189 80.8861 73.3045 72.91 60.417 75.9515C47.5294 78.9929 39.549 91.9002 42.5921 104.781C45.6352 117.661 58.5495 125.637 71.4371 122.596Z" stroke="#002E47" stroke-miterlimit="10" stroke-linecap="round" stroke-linejoin="round"/>
<path d="M65.9252 101.573C67.1902 101.573 68.2156 100.548 68.2156 99.2836C68.2156 98.0193 67.1902 96.9944 65.9252 96.9944C64.6602 96.9944 63.6348 98.0193 63.6348 99.2836C63.6348 100.548 64.6602 101.573 65.9252 101.573Z" fill="#002E47" stroke="#002E47" stroke-miterlimit="10" stroke-linecap="round" stroke-linejoin="round"/>
<path d="M74.2715 103.358L65.9266 99.2836L52.0078 114.483" stroke="#002E47" stroke-miterlimit="10" stroke-linecap="round" stroke-linejoin="round"/>
<path d="M549.257 71.277H481.537V155.593H549.257V71.277Z" stroke="#002E47" stroke-miterlimit="10" stroke-linecap="round" stroke-linejoin="round"/>
<path d="M547.055 74.0385H483.756V152.847H547.055V74.0385Z" stroke="#002E47" stroke-miterlimit="10" stroke-linecap="round" stroke-linejoin="round"/>
<path d="M528.418 97.2345H502.391V129.635H528.418V97.2345Z" stroke="#002E47" stroke-miterlimit="10" stroke-linecap="round" stroke-linejoin="round"/>
<path d="M291.982 25.7094V0.400269" stroke="#002E47" stroke-miterlimit="10" stroke-linecap="round" stroke-linejoin="round"/>
<path d="M312.893 39.2445H271.08L283.621 23.3562H300.343L312.893 39.2445Z" fill="#002E47"/>
<path d="M519.818 25.7094V0.400269" stroke="#002E47" stroke-miterlimit="10" stroke-linecap="round" stroke-linejoin="round"/>
<path d="M540.721 39.2445H498.908L511.45 23.3562H528.179L540.721 39.2445Z" fill="#002E47"/>
<path d="M64.1562 25.7094V0.400269" stroke="#002E47" stroke-miterlimit="10" stroke-linecap="round" stroke-linejoin="round"/>
<path d="M85.0665 39.2445H43.2539L55.7953 23.3562H72.5171L85.0665 39.2445Z" fill="#002E47"/>
<path d="M57.9663 251.547C57.9823 251.507 57.9663 251.459 57.9262 251.443C57.8862 251.427 57.8381 251.443 57.8221 251.483C55.4596 256.934 53.8018 262.648 52.4164 268.419C51.0789 274.206 50.1099 280.074 49.4372 285.973L49.0127 290.407C48.9487 291.143 48.8686 291.888 48.8125 292.624L48.6924 294.849C48.6283 296.33 48.5402 297.819 48.4922 299.308L48.5322 303.766L48.5803 305.991C48.6123 306.735 48.6684 307.472 48.7164 308.216C48.8285 309.697 48.9166 311.178 49.0528 312.658C49.3411 315.612 49.7816 318.558 50.238 321.479C50.2461 321.519 50.2781 321.543 50.3181 321.543C50.3582 321.543 50.3982 321.511 50.3982 321.463V321.455C50.3902 319.966 50.3261 318.493 50.2941 317.013C50.2541 315.532 50.1259 314.067 50.1419 312.586C50.15 311.106 50.1099 309.633 50.0939 308.16L50.0538 305.951L50.0939 303.742L50.1099 299.324L50.23 294.905L50.2781 292.696C50.3101 291.96 50.3582 291.223 50.3982 290.487L50.6705 286.077C51.1911 280.202 51.9919 274.351 53.1692 268.564C54.3544 262.809 55.812 257.054 57.9663 251.547Z" fill="#002E47"/>
<path d="M58.5994 274.655C58.6074 274.615 58.5914 274.567 58.5514 274.559C58.5113 274.543 58.4633 274.567 58.4553 274.607C57.1819 278.281 56.1648 282.035 55.3079 285.829C54.491 289.631 53.8423 293.481 53.4499 297.363C53.0575 301.229 52.625 305.103 52.569 308.985C52.5129 312.867 52.569 316.765 52.9854 320.647C52.9934 320.679 53.0175 320.711 53.0575 320.719C53.0975 320.727 53.1376 320.695 53.1456 320.647C53.5941 316.773 53.8664 312.915 54.1387 309.057C54.4109 305.199 54.451 301.333 54.6993 297.467C54.9315 293.617 55.412 289.783 56.0767 285.981C56.7254 282.171 57.5343 278.377 58.5994 274.655Z" fill="#002E47"/>
<path d="M71.421 282.779C71.397 282.739 71.349 282.731 71.3169 282.755C68.1055 284.788 65.2465 287.341 62.7478 290.223C61.5225 291.688 60.3773 293.216 59.4002 294.881L58.7115 296.178L58.1749 297.531C57.9827 297.979 57.8466 298.435 57.7024 298.899C57.5663 299.364 57.4061 299.82 57.286 300.284C56.325 303.998 55.6843 307.776 55.5161 311.586C55.3639 315.388 55.436 319.19 55.9405 322.968C55.9486 323 55.9726 323.032 56.0126 323.032C56.0527 323.032 56.0927 323 56.0927 322.96L57.0698 311.698C57.4622 307.976 57.6944 304.23 58.4953 300.588C58.5994 300.132 58.7275 299.692 58.8396 299.244C58.9598 298.795 59.0719 298.347 59.2321 297.915L59.6885 296.61L60.2812 295.378C61.1461 293.753 62.2112 292.192 63.3484 290.719C65.6389 287.766 68.3298 285.076 71.397 282.891H71.405C71.4291 282.859 71.4371 282.819 71.421 282.779Z" fill="#002E47"/>
<path d="M65.2138 297.25C63.4679 298.379 62.2987 300.148 61.3136 301.933C60.3766 303.758 59.6398 305.687 59.1273 307.672C58.9751 308.16 58.855 308.656 58.7429 309.161L58.3905 310.657C58.2143 311.666 58.0702 312.682 58.0141 313.699C57.9981 314.724 57.9741 315.74 58.0381 316.757C58.1262 317.773 58.2384 318.79 58.4386 319.798C58.4466 319.83 58.4706 319.854 58.5026 319.862C58.5427 319.87 58.5907 319.846 58.5987 319.798C58.847 318.79 59.0072 317.797 59.1353 316.805C59.2955 315.812 59.4476 314.828 59.5678 313.843C59.7119 312.859 59.8401 311.882 59.9201 310.89C60.0563 309.913 60.1284 308.912 60.3446 307.952C60.689 305.999 61.2496 304.094 62.0184 302.269C62.7792 300.46 63.7722 298.659 65.2939 297.387L65.3019 297.379C65.3339 297.354 65.3419 297.314 65.3179 297.274C65.3019 297.242 65.2538 297.234 65.2138 297.25Z" fill="#002E47"/>
<path d="M47.2427 308.536C46.8183 303.534 45.9934 298.587 45.2166 293.633C44.4318 288.686 43.5748 283.747 42.6619 278.825C41.7249 273.902 40.7398 268.996 39.6827 264.105C39.6747 264.065 39.6346 264.041 39.5946 264.041C39.5546 264.049 39.5225 264.089 39.5305 264.129C40.3874 269.06 41.1643 274.006 41.893 278.953C42.6458 283.9 43.3506 288.846 43.9753 293.809C44.5839 298.771 45.0644 303.742 45.6891 308.696L47.523 323.584C47.5311 323.624 47.5551 323.648 47.5951 323.656C47.6352 323.656 47.6752 323.624 47.6752 323.584C47.7313 322.328 47.7313 321.079 47.7633 319.814C47.7713 318.558 47.7153 317.309 47.6912 316.052C47.6432 313.539 47.4269 311.042 47.2427 308.536Z" fill="#002E47"/>
<path d="M44.2388 308.464C43.9746 306.487 43.6062 304.518 43.2298 302.549L42.525 299.628C42.2928 298.651 42.0765 297.683 41.7882 296.714C40.7872 292.84 39.5138 289.03 37.9602 285.34L37.3595 283.964L36.6948 282.619C36.2703 281.714 35.7578 280.85 35.2693 279.978C34.2202 278.273 33.139 276.576 31.6574 275.191C31.6254 275.167 31.5773 275.167 31.5533 275.191C31.5213 275.223 31.5213 275.271 31.5533 275.303L31.5613 275.311C32.9308 276.728 33.9238 278.481 34.8689 280.202C35.3013 281.09 35.7658 281.963 36.1342 282.883L36.7188 284.244L37.2394 285.637C38.6249 289.342 39.738 293.144 40.5709 297.01C41.0274 298.931 41.3317 300.892 41.7001 302.837L42.1646 305.767C42.3328 306.744 42.541 307.712 42.6772 308.689C42.9895 310.642 43.3499 312.595 43.6943 314.548C43.9986 316.509 44.359 318.47 44.7674 320.431C44.7754 320.463 44.8074 320.495 44.8475 320.495C44.8875 320.495 44.9276 320.463 44.9276 320.415C44.9356 318.414 44.8875 316.421 44.7914 314.419C44.6793 312.442 44.4471 310.457 44.2388 308.464Z" fill="#002E47"/>
<path d="M40.0982 308.72C39.1692 306.095 38.096 303.526 36.9268 301.012C35.7255 298.507 34.4361 296.05 32.9385 293.713C32.9145 293.681 32.8664 293.665 32.8344 293.689C32.7944 293.713 32.7864 293.761 32.8104 293.793C34.1158 296.226 35.2129 298.755 36.214 301.325C37.2311 303.886 38.1441 306.479 38.9129 309.113C39.6977 311.746 40.2583 314.435 40.9551 317.077C41.6919 319.718 42.2925 322.391 43.1014 325.073C43.1094 325.105 43.1414 325.129 43.1734 325.129C43.2135 325.129 43.2535 325.097 43.2535 325.049C43.2936 322.255 43.0213 319.462 42.4767 316.733C41.9882 313.979 41.0191 311.346 40.0982 308.72Z" fill="#002E47"/>
<path d="M39.9309 317.461C39.4584 315.82 38.6495 314.291 37.7285 312.843C36.8235 311.394 35.7744 310.025 34.5251 308.864C33.8764 308.304 33.2197 307.768 32.4829 307.328C31.7621 306.879 31.0013 306.495 30.1685 306.279C30.1284 306.271 30.0964 306.287 30.0804 306.319C30.0643 306.359 30.0804 306.407 30.1204 306.423L30.1284 306.431C31.626 307.096 32.8914 308.2 33.9645 309.409C35.0537 310.617 35.9186 312.01 36.6393 313.451C37.4002 314.884 37.7926 316.476 38.4493 317.957C38.7376 318.718 39.0339 319.478 39.3703 320.238C39.6586 321.015 39.9709 321.783 40.3793 322.552V322.56C40.3953 322.584 40.4194 322.6 40.4434 322.6C40.4915 322.6 40.5235 322.568 40.5235 322.52C40.5555 321.663 40.5075 320.815 40.4274 319.966C40.3073 319.126 40.1311 318.293 39.9309 317.461Z" fill="#002E47"/>
<path d="M40.2349 271.269C40.2349 271.269 32.0341 269.38 30.1441 260.551C28.2541 251.723 34.3486 255.509 28.8788 241.638C23.4089 227.766 24.6743 224.621 26.5643 220.627C28.4543 216.633 29.5114 217.897 31.1932 223.148C32.875 228.399 38.9695 236.595 41.284 251.931C43.5984 267.275 40.2349 271.269 40.2349 271.269Z" fill="#39B4EF"/>
<path d="M56.4277 256.349C56.4277 256.349 50.9579 254.46 50.7497 244.159C50.5414 233.866 54.7459 235.963 55.3786 223.148C56.0113 210.333 56.8522 201.297 59.1666 201.089C61.4811 200.88 67.5756 207.396 69.6818 221.683C71.7801 235.971 66.9509 245.424 62.7464 249.626C58.5259 253.828 56.4277 256.349 56.4277 256.349Z" fill="#39B4EF"/>
<path d="M37.2962 283.667C37.2962 283.667 36.0308 276.104 33.5081 272.534C30.9855 268.964 25.5156 265.81 21.9438 258.879C18.372 251.947 14.3758 248.585 14.584 258.454C14.7922 268.331 19.2129 273.374 24.6747 276.736C30.1446 280.09 37.2962 283.667 37.2962 283.667Z" fill="#39B4EF"/>
<path d="M34.9816 296.69C34.9816 296.69 29.9362 287.021 22.5763 279.882C15.2165 272.734 9.33021 269.164 11.4365 272.734C13.5427 276.304 16.0654 276.096 19.6372 282.403C23.209 288.71 22.1599 293.329 27.2053 296.898C32.2506 300.476 34.9816 296.69 34.9816 296.69Z" fill="#39B4EF"/>
<path d="M34.3492 309.089C34.141 308.456 33.9247 303.838 26.7811 300.052C19.6295 296.274 12.9023 297.739 13.7432 299.636C14.5841 301.525 18.9968 304.678 23.4175 306.567C27.8302 308.456 34.3492 309.089 34.3492 309.089Z" fill="#39B4EF"/>
<path d="M56.0043 284.084C56.0043 284.084 52.8489 280.09 54.5307 271.685C56.2125 263.281 60.0005 265.378 64.205 260.968C68.4095 256.557 67.5686 255.925 71.7731 251.299C75.9776 246.672 79.7656 244.151 81.4474 246.048C83.1292 247.937 80.6065 253.82 78.0838 257.182C75.5611 260.544 71.5649 262.224 69.6748 266.427C67.7848 270.629 68.6257 277.352 63.7886 280.506C58.9514 283.668 56.0043 284.084 56.0043 284.084Z" fill="#39B4EF"/>
<path d="M66.5195 286.397C66.5195 286.397 74.0876 277.784 79.5574 271.477C85.0273 265.17 87.1255 260.343 87.3337 264.545C87.5419 268.748 89.2237 272.109 84.811 277.576C80.3903 283.035 66.5195 286.397 66.5195 286.397Z" fill="#39B4EF"/>
<path d="M62.5237 300.26C62.5237 300.26 62.3154 296.898 74.2962 289.126C86.277 281.354 91.3224 279.882 90.065 283.035C88.8077 286.189 83.5461 289.342 77.868 295.009C72.19 300.684 62.5237 300.26 62.5237 300.26Z" fill="#39B4EF"/>
<path d="M40.7398 270.372C40.7398 270.372 37.9288 255.301 34.9817 244.583C32.0345 233.865 30.1445 227.35 30.1445 227.35" stroke="#002E47" stroke-width="0.5" stroke-miterlimit="10" stroke-linecap="round" stroke-linejoin="round"/>
<path d="M55.9395 256.509C55.9395 256.509 61.0489 240.173 62.7307 230.296C64.4125 220.419 62.5225 213.063 61.6816 208.653" stroke="#002E47" stroke-width="0.5" stroke-miterlimit="10" stroke-linecap="round" stroke-linejoin="round"/>
<path d="M36.6311 283.347C36.6311 283.347 33.5078 277.777 28.8869 272.318C24.2579 266.851 20.6861 263.913 18.5879 258.663" stroke="#002E47" stroke-width="0.5" stroke-miterlimit="10" stroke-linecap="round" stroke-linejoin="round"/>
<path d="M56.0039 284.084C56.0039 284.084 57.6857 273.999 61.682 268.748C65.6782 263.497 73.6627 255.301 76.8181 250.05" stroke="#002E47" stroke-width="0.5" stroke-miterlimit="10" stroke-linecap="round" stroke-linejoin="round"/>
<path d="M33.8532 308.857C33.8532 308.857 26.7817 304.254 21.7363 301.733" stroke="#002E47" stroke-width="0.5" stroke-miterlimit="10" stroke-linecap="round" stroke-linejoin="round"/>
<path d="M59.1432 364.285H39.3461L35.1016 317.309H63.3877L59.1432 364.285Z" fill="#002E47" stroke="#002E47" stroke-miterlimit="10" stroke-linecap="round" stroke-linejoin="round"/>
<path d="M381.751 78.953H183.652V214.784H381.751V78.953Z" fill="#002E47" stroke="#002E47" stroke-miterlimit="10" stroke-linecap="round" stroke-linejoin="round"/>
<path d="M378.611 82.2267H186.799V211.502H378.611V82.2267Z" fill="white" stroke="#002E47" stroke-miterlimit="10" stroke-linecap="round" stroke-linejoin="round"/>
<path d="M283.678 114.972H255.488V137.559H283.678V114.972Z" fill="#39B4EF"/>
<path d="M312.838 137.928H284.648V160.515H312.838V137.928Z" fill="#39B4EF"/>
<path d="M283.678 183.103H255.488V205.691H283.678V183.103Z" fill="#39B4EF"/>
<path d="M342.374 92.7441H314.184V115.332H342.374V92.7441Z" fill="#39B4EF"/>
<path d="M196.914 96.0259V205.699" stroke="#002E47" stroke-miterlimit="10" stroke-linecap="round" stroke-linejoin="round"/>
<path d="M225.953 96.0259V205.699" stroke="#002E47" stroke-miterlimit="10" stroke-linecap="round" stroke-linejoin="round"/>
<path d="M255 96.0259V205.699" stroke="#002E47" stroke-miterlimit="10" stroke-linecap="round" stroke-linejoin="round"/>
<path d="M284.039 96.0259V205.699" stroke="#002E47" stroke-miterlimit="10" stroke-linecap="round" stroke-linejoin="round"/>
<path d="M313.086 96.0259V205.699" stroke="#002E47" stroke-miterlimit="10" stroke-linecap="round" stroke-linejoin="round"/>
<path d="M342.125 96.0259V205.699" stroke="#002E47" stroke-miterlimit="10" stroke-linecap="round" stroke-linejoin="round"/>
<path d="M371.172 96.0259V205.699" stroke="#002E47" stroke-miterlimit="10" stroke-linecap="round" stroke-linejoin="round"/>
<path d="M197.643 114.972H371.54" stroke="#002E47" stroke-miterlimit="10" stroke-linecap="round" stroke-linejoin="round"/>
<path d="M197.643 137.56H371.54" stroke="#002E47" stroke-miterlimit="10" stroke-linecap="round" stroke-linejoin="round"/>
<path d="M197.643 160.155H371.54" stroke="#002E47" stroke-miterlimit="10" stroke-linecap="round" stroke-linejoin="round"/>
<path d="M197.643 182.743H371.54" stroke="#002E47" stroke-miterlimit="10" stroke-linecap="round" stroke-linejoin="round"/>
<path d="M259.613 118.982H277.112" stroke="#002E47" stroke-miterlimit="10" stroke-linecap="round" stroke-linejoin="round"/>
<path d="M259.613 121.895H277.112" stroke="#002E47" stroke-miterlimit="10" stroke-linecap="round" stroke-linejoin="round"/>
<path d="M259.613 124.809H277.112" stroke="#002E47" stroke-miterlimit="10" stroke-linecap="round" stroke-linejoin="round"/>
<path d="M259.613 127.722H277.112" stroke="#002E47" stroke-miterlimit="10" stroke-linecap="round" stroke-linejoin="round"/>
<path d="M259.613 130.636H277.112" stroke="#002E47" stroke-miterlimit="10" stroke-linecap="round" stroke-linejoin="round"/>
<path d="M290.238 143.395H307.737" stroke="#002E47" stroke-miterlimit="10" stroke-linecap="round" stroke-linejoin="round"/>
<path d="M290.238 146.308H307.737" stroke="#002E47" stroke-miterlimit="10" stroke-linecap="round" stroke-linejoin="round"/>
<path d="M290.238 149.221H307.737" stroke="#002E47" stroke-miterlimit="10" stroke-linecap="round" stroke-linejoin="round"/>
<path d="M290.238 152.135H307.737" stroke="#002E47" stroke-miterlimit="10" stroke-linecap="round" stroke-linejoin="round"/>
<path d="M290.238 155.049H307.737" stroke="#002E47" stroke-miterlimit="10" stroke-linecap="round" stroke-linejoin="round"/>
<path d="M260.342 188.21H277.84" stroke="#002E47" stroke-miterlimit="10" stroke-linecap="round" stroke-linejoin="round"/>
<path d="M260.342 191.123H277.84" stroke="#002E47" stroke-miterlimit="10" stroke-linecap="round" stroke-linejoin="round"/>
<path d="M260.342 194.037H277.84" stroke="#002E47" stroke-miterlimit="10" stroke-linecap="round" stroke-linejoin="round"/>
<path d="M260.342 196.95H277.84" stroke="#002E47" stroke-miterlimit="10" stroke-linecap="round" stroke-linejoin="round"/>
<path d="M260.342 199.864H277.84" stroke="#002E47" stroke-miterlimit="10" stroke-linecap="round" stroke-linejoin="round"/>
<path d="M318.307 98.9393H335.805" stroke="#002E47" stroke-miterlimit="10" stroke-linecap="round" stroke-linejoin="round"/>
<path d="M318.307 101.853H335.805" stroke="#002E47" stroke-miterlimit="10" stroke-linecap="round" stroke-linejoin="round"/>
<path d="M318.307 104.766H335.805" stroke="#002E47" stroke-miterlimit="10" stroke-linecap="round" stroke-linejoin="round"/>
<path d="M318.307 107.68H335.805" stroke="#002E47" stroke-miterlimit="10" stroke-linecap="round" stroke-linejoin="round"/>
<path d="M318.307 110.601H335.805" stroke="#002E47" stroke-miterlimit="10" stroke-linecap="round" stroke-linejoin="round"/>
<path d="M518.806 282.097H527.352V266.93H518.806V282.097Z" fill="#002E47" stroke="#002E47" stroke-miterlimit="10" stroke-linecap="round" stroke-linejoin="round"/>
<path d="M514.967 271.549H532.505C539.417 271.549 545.023 265.946 545.023 259.039V218.962C545.023 212.054 539.417 206.451 532.505 206.451H514.967C508.055 206.451 502.449 212.054 502.449 218.962V259.039C502.449 265.946 508.047 271.549 514.967 271.549Z" fill="#D2E1FB" stroke="#002E47" stroke-miterlimit="10" stroke-linecap="round" stroke-linejoin="round"/>
<path d="M536.5 361.572C536.5 359.579 538.118 357.962 540.112 357.962C542.106 357.962 543.724 359.579 543.724 361.572C543.724 363.565 542.106 365.182 540.112 365.182C538.118 365.182 536.5 363.565 536.5 361.572Z" fill="#002E47" stroke="#002E47" stroke-miterlimit="10" stroke-linecap="round" stroke-linejoin="round"/>
<path d="M465.857 361.572C465.857 359.579 467.475 357.962 469.469 357.962C471.463 357.962 473.081 359.579 473.081 361.572C473.081 363.565 471.463 365.182 469.469 365.182C467.475 365.182 465.857 363.565 465.857 361.572Z" fill="#002E47" stroke="#002E47" stroke-miterlimit="10" stroke-linecap="round" stroke-linejoin="round"/>
<path d="M503.033 361.572C503.033 359.579 503.786 357.962 504.715 357.962C505.644 357.962 506.397 359.579 506.397 361.572C506.397 363.565 505.644 365.182 504.715 365.182C503.786 365.182 503.033 363.565 503.033 361.572Z" fill="#002E47" stroke="#002E47" stroke-miterlimit="10" stroke-linecap="round" stroke-linejoin="round"/>
<path d="M501.423 341.954V290.151H508.519V342.17L543.548 356.017V359.491H538.455V356.545L504.707 349.59L470.951 356.545V359.491H465.865V356.017L501.423 341.954Z" fill="#002E47" stroke="#002E47" stroke-miterlimit="10" stroke-linecap="round" stroke-linejoin="round"/>
<path d="M506.492 359.483H502.937L502.176 342.666H507.253L506.492 359.483Z" fill="#002E47" stroke="#002E47" stroke-miterlimit="10" stroke-linecap="round" stroke-linejoin="round"/>
<path d="M495.961 298.888H514.004V288.178H495.961V298.888Z" fill="#002E47" stroke="#002E47" stroke-miterlimit="10" stroke-linecap="round" stroke-linejoin="round"/>
<path d="M478.135 292.12H533.522C536.141 292.12 538.255 289.999 538.255 287.389V283.043C538.255 280.426 536.133 278.312 533.522 278.312H478.135C475.517 278.312 473.402 280.434 473.402 283.043V287.389C473.402 290.007 475.525 292.12 478.135 292.12Z" fill="#D2E1FB" stroke="#002E47" stroke-miterlimit="10" stroke-linecap="round" stroke-linejoin="round"/>
<path d="M450.656 347.092C450.656 347.092 447.524 351.615 443.007 354.216C438.483 356.825 431.531 357.866 431.531 359.259C431.531 360.651 432.052 363.085 437.273 363.781C442.487 364.477 465.103 364.821 468.058 364.125C471.013 363.429 468.234 348.829 468.234 348.829C468.234 348.829 454.476 349.526 450.656 347.092Z" fill="white" stroke="#002E47" stroke-miterlimit="10" stroke-linecap="round" stroke-linejoin="round"/>
<path d="M437.258 363.781C442.471 364.477 465.087 364.821 468.043 364.125C468.795 363.949 469.18 362.86 469.324 361.348C463.021 361.54 450.728 361.732 443.344 361.34C433.43 360.819 431.516 359.25 431.516 359.25C431.524 360.651 432.044 363.084 437.258 363.781Z" fill="white" stroke="#002E47" stroke-miterlimit="10" stroke-linecap="round" stroke-linejoin="round"/>
<path d="M434.998 211.166C434.998 211.166 436.392 231.672 437.609 240.365C438.826 249.057 443.351 284.516 446.306 293.729C449.261 302.941 452.393 342.57 452.393 342.57C452.393 342.57 449.085 343.787 449.261 345.179C449.437 346.572 449.606 348.653 449.606 348.653C449.606 348.653 456.389 352.303 460.385 352.303C464.381 352.303 469.427 350.566 469.427 350.566C469.427 350.566 468.386 335.094 467.865 322.928C467.345 310.762 462.299 258.967 462.299 258.967L461.258 207.34L434.998 211.166Z" fill="#002E47" stroke="#002E47" stroke-miterlimit="10" stroke-linecap="round" stroke-linejoin="round"/>
<path d="M464.39 350.918C464.39 350.918 464.734 354.224 456.045 357.177C447.348 360.131 446.307 363.261 447.348 365.87C448.389 368.479 466.48 368.479 473.263 367.431C480.047 366.39 483.522 366.038 484.043 364.653C484.563 363.261 482.649 352.663 482.649 352.663L464.39 350.918Z" fill="white" stroke="#002E47" stroke-miterlimit="10" stroke-linecap="round" stroke-linejoin="round"/>
<path d="M484.042 364.653C484.146 364.365 484.154 363.685 484.09 362.788C481.712 363.229 478.524 363.829 474.304 364.653C465.014 366.462 452.761 365.398 447.051 364.725C447.099 365.118 447.195 365.502 447.347 365.87C448.388 368.479 466.48 368.479 473.263 367.431C480.046 366.39 483.522 366.038 484.042 364.653Z" fill="white" stroke="#002E47" stroke-miterlimit="10" stroke-linecap="round" stroke-linejoin="round"/>
<path d="M441.262 216.208L446.307 222.291C446.307 222.291 450.135 264.353 451.521 275.303C452.906 286.253 459.521 325.361 459.521 325.361L463.694 346.22C463.694 346.22 462.997 347.957 462.653 348.829C462.308 349.702 462.476 351.607 462.653 352.303C462.829 352.999 462.476 353.52 469.083 354.56C475.69 355.601 482.297 354.56 482.297 354.56C482.297 354.56 483.17 352.471 483.17 349.694C483.17 346.916 483.17 345.7 482.65 342.914C482.129 340.137 482.65 325.361 478.822 309.545C474.994 293.729 472.215 275.479 472.215 269.396C472.215 263.313 472.391 227.678 472.559 226.982C472.735 226.285 476.035 224.028 476.211 217.593C476.387 211.166 475.514 208.724 475.514 208.724H441.598" fill="#002E47"/>
<path d="M441.262 216.208L446.307 222.291C446.307 222.291 450.135 264.353 451.521 275.303C452.906 286.253 459.521 325.361 459.521 325.361L463.694 346.22C463.694 346.22 462.997 347.957 462.653 348.829C462.308 349.702 462.476 351.607 462.653 352.303C462.829 352.999 462.476 353.52 469.083 354.56C475.69 355.601 482.297 354.56 482.297 354.56C482.297 354.56 483.17 352.471 483.17 349.694C483.17 346.916 483.17 345.7 482.65 342.914C482.129 340.137 482.65 325.361 478.822 309.545C474.994 293.729 472.215 275.479 472.215 269.396C472.215 263.313 472.391 227.678 472.559 226.982C472.735 226.285 476.035 224.028 476.211 217.593C476.387 211.166 475.514 208.724 475.514 208.724H441.598" stroke="#002E47" stroke-miterlimit="10" stroke-linecap="round" stroke-linejoin="round"/>
<path d="M441.086 130.172C441.086 130.172 433.262 149.638 432.741 162.5C432.221 175.363 432.741 193.613 432.918 194.309C433.094 195.005 431.003 209.605 432.221 211.862C433.438 214.119 435.528 213.423 435.528 213.423C435.528 213.423 473.617 213.943 475.355 213.599C477.093 213.255 477.445 210.99 477.789 209.253C478.134 207.516 476.748 186.833 476.748 183.703C476.748 180.574 477.789 145.636 473.441 135.903C469.092 126.17 458.313 118.173 456.919 117.829C455.526 117.477 444.218 121.303 441.086 130.172Z" fill="#39B4EF" stroke="#002E47" stroke-miterlimit="10" stroke-linecap="round" stroke-linejoin="round"/>
<path d="M422.065 91.8877C422.065 91.8877 420.736 98.2671 421.136 98.8033C421.536 99.3316 422.866 101.861 422.866 101.861L419.406 111.306L423.531 112.506L429.385 122.616L438.435 120.086L441.093 132.189C441.093 132.189 440.693 136.575 442.687 135.382C444.681 134.182 446.411 132.853 450.271 126.21C454.131 119.558 457.991 118.494 457.991 118.494C457.991 118.494 453.202 112.114 452.273 110.113C451.344 108.12 451.873 104.79 450.279 96.6822C448.685 88.574 443.224 86.8451 435.776 86.8451C428.32 86.8371 422.73 88.2939 422.065 91.8877Z" fill="white" stroke="#002E47" stroke-miterlimit="10" stroke-linecap="round" stroke-linejoin="round"/>
<path d="M425.789 84.3078C425.789 84.3078 419.799 85.6365 418.734 86.8371C417.669 88.0377 419.262 91.7597 420.728 92.5521C422.193 93.3525 431.635 91.2234 431.507 91.8877C431.371 92.5521 429.914 94.281 431.507 94.9453C433.101 95.6097 439.492 97.3386 439.492 97.3386L437.898 109.569C437.898 109.569 430.05 109.169 428.184 109.569C426.318 109.969 423.531 112.498 423.531 112.498C423.531 112.498 426.99 123 427.655 124.064C428.32 125.129 430.186 124.865 432.308 124.064C434.438 123.264 443.088 117.013 444.017 116.22C444.946 115.42 442.951 107.576 442.951 107.576C442.951 107.576 443.216 101.061 443.216 99.7318C443.216 98.4031 444.946 98.4031 446.147 99.3316C447.348 100.26 447.741 103.854 447.476 105.183C447.212 106.511 445.746 107.84 445.746 107.84C445.746 107.84 450.8 111.698 451.865 111.698C452.93 111.698 453.194 111.034 453.331 110.633C453.467 110.233 453.194 98.7953 453.194 98.7953C453.194 98.7953 453.459 87.8937 451.993 84.4359C450.528 80.9781 443.608 80.0496 439.22 80.7139C434.839 81.3863 425.789 84.3078 425.789 84.3078Z" fill="#002E47" stroke="#002E47" stroke-miterlimit="10" stroke-linecap="round" stroke-linejoin="round"/>
<path d="M426.838 102.397C426.966 103.118 426.75 103.766 426.349 103.83C425.949 103.902 425.524 103.374 425.396 102.645C425.268 101.925 425.484 101.277 425.885 101.213C426.285 101.148 426.718 101.677 426.838 102.397Z" stroke="#002E47" stroke-miterlimit="10" stroke-linecap="round" stroke-linejoin="round"/>
<path d="M423.924 99.7318C423.924 99.7318 425.654 97.8668 427.648 99.4676" stroke="#002E47" stroke-miterlimit="10" stroke-linecap="round" stroke-linejoin="round"/>
<path d="M427.783 114.363C427.783 114.363 430.842 113.435 431.771 111.306" stroke="white" stroke-miterlimit="10" stroke-linecap="round" stroke-linejoin="round"/>
<path d="M463.526 174.491C463.526 174.491 456.046 207.692 455.349 209.429C454.652 211.166 451.697 218.121 451.697 218.121L459.874 225.245C459.874 225.245 461.091 223.332 462.132 218.818C463.173 214.295 463.35 209.949 463.35 209.949C463.35 209.949 475.178 184.744 477.092 181.27C479.006 177.796 477.613 175.187 477.613 174.315C477.613 173.442 463.526 174.491 463.526 174.491Z" fill="white" stroke="#002E47" stroke-miterlimit="10" stroke-linecap="round" stroke-linejoin="round"/>
<path d="M458.128 136.599C458.128 136.599 456.214 142.682 456.39 145.636C456.567 148.589 460.563 166.318 460.563 166.318C460.563 166.318 458.473 168.231 459.169 168.928C459.866 169.624 460.907 171.361 460.907 171.361C460.907 171.361 459.346 172.578 460.907 174.315C462.469 176.051 461.78 176.924 469.084 176.748C476.388 176.572 478.646 176.228 479.519 174.835C480.392 173.442 481.433 172.402 480.56 171.009C479.687 169.616 479.687 169.616 479.687 169.616C479.687 169.616 480.56 168.055 480.384 166.142C480.208 164.229 478.99 161.972 478.99 161.1C478.99 160.227 478.814 148.413 476.556 139.2C474.297 129.988 464.727 124.945 462.989 124.777" fill="#39B4EF"/>
<path d="M458.128 136.599C458.128 136.599 456.214 142.682 456.39 145.636C456.567 148.589 460.563 166.318 460.563 166.318C460.563 166.318 458.473 168.231 459.169 168.928C459.866 169.624 460.907 171.361 460.907 171.361C460.907 171.361 459.346 172.578 460.907 174.315C462.469 176.051 461.78 176.924 469.084 176.748C476.388 176.572 478.646 176.228 479.519 174.835C480.392 173.442 481.433 172.402 480.56 171.009C479.687 169.616 479.687 169.616 479.687 169.616C479.687 169.616 480.56 168.055 480.384 166.142C480.208 164.229 478.99 161.972 478.99 161.1C478.99 160.227 478.814 148.413 476.556 139.2C474.297 129.988 464.727 124.945 462.989 124.777" stroke="#002E47" stroke-miterlimit="10" stroke-linecap="round" stroke-linejoin="round"/>
<path d="M355.652 224.221C355.652 224.221 355.924 235.122 355.924 235.538C355.924 235.955 354.563 243.719 355.243 247.401C355.924 251.083 361.378 256.125 361.378 256.125L361.922 223.276L355.652 224.221Z" fill="white" stroke="#002E47" stroke-miterlimit="10" stroke-linecap="round" stroke-linejoin="round"/>
<path d="M372.11 149.037C372.11 149.037 356.109 168.528 355.605 170.697C355.108 172.866 350.936 225.677 350.936 226.182C350.936 226.678 357.438 229.183 360.105 229.183C362.772 229.183 363.941 229.183 363.941 229.183C363.941 229.183 359.441 192.86 361.443 179.365C363.445 165.87 368.274 162.036 371.942 156.874C375.618 151.703 375.618 147.709 372.11 149.037Z" fill="#39B4EF" stroke="#002E47" stroke-miterlimit="10" stroke-linecap="round" stroke-linejoin="round"/>
<path d="M372.95 347.973C372.95 347.973 368.785 353.968 366.447 355.305C364.116 356.641 356.444 359.803 356.108 360.635C355.771 361.468 355.771 363.469 356.444 363.637C357.109 363.805 368.617 363.469 375.616 363.469C382.616 363.469 387.285 363.805 388.118 362.973C388.951 362.14 388.286 351.311 387.453 349.142C386.62 346.972 386.62 346.972 386.62 346.972L374.119 346.636L372.95 347.973Z" fill="#002E47" stroke="#002E47" stroke-miterlimit="10" stroke-linecap="round" stroke-linejoin="round"/>
<path d="M388.398 361.964H355.9C355.884 362.749 356.044 363.525 356.452 363.629C357.117 363.797 368.625 363.461 375.625 363.461C382.624 363.461 387.293 363.797 388.126 362.965C388.238 362.845 388.334 362.484 388.398 361.964Z" fill="white" stroke="#002E47" stroke-miterlimit="10" stroke-linecap="round" stroke-linejoin="round"/>
<path d="M356.94 222.348L359.111 232.513C359.111 232.513 358.774 259.007 361.441 270.501C364.108 281.995 364.108 293.16 364.108 293.16C364.108 293.16 367.776 311.322 369.105 316.485C370.443 321.647 371.94 343.475 371.94 343.475C371.94 343.475 370.603 344.475 370.771 345.139C370.939 345.804 371.436 349.974 371.436 349.974C371.436 349.974 372.101 349.974 377.434 350.47C382.768 350.966 385.603 350.638 385.603 350.638L387.437 349.141C387.437 349.141 387.605 346.812 387.437 343.811C387.269 340.809 386.268 338.48 386.268 336.479C386.268 334.478 385.098 290.495 385.098 290.495L385.595 221.515L356.42 219.85L356.94 222.348Z" fill="white" stroke="#002E47" stroke-miterlimit="10" stroke-linecap="round" stroke-linejoin="round"/>
<path d="M389.28 347.637C389.28 347.637 387.783 351.303 386.277 353.304C384.779 355.305 378.605 358.803 376.106 360.131C373.607 361.468 373.607 364.293 373.607 364.293C373.607 364.293 379.277 364.461 397.945 363.797L405.946 363.461C405.946 363.461 406.114 361.292 405.778 358.795C405.441 356.297 405.113 349.966 405.113 349.966L389.28 347.637Z" fill="#002E47" stroke="#002E47" stroke-miterlimit="10" stroke-linecap="round" stroke-linejoin="round"/>
<path d="M397.953 363.797L405.954 363.461C405.954 363.461 406.042 362.332 405.962 360.763L374.056 362.388C373.615 363.405 373.615 364.293 373.615 364.293C373.615 364.293 379.285 364.469 397.953 363.797Z" fill="white" stroke="#002E47" stroke-miterlimit="10" stroke-linecap="round" stroke-linejoin="round"/>
<path d="M367.609 234.178L373.943 240.341C373.943 240.341 376.442 264.329 378.941 278.497C381.439 292.656 387.942 329.147 387.942 332.149C387.942 335.15 389.28 342.81 389.28 342.81C389.28 342.81 388.783 342.978 388.615 344.147C388.447 345.315 388.447 349.814 388.447 349.814C388.447 349.814 392.611 351.815 396.279 352.143C399.947 352.479 405.617 351.975 405.617 351.975C405.617 351.975 406.282 348.141 406.282 346.812C406.282 345.483 405.785 339.648 406.114 337.319C406.45 334.99 408.781 323.16 408.116 310.161C407.451 297.162 403.447 277.008 403.447 277.008L404.784 247.681C404.784 247.681 407.283 240.349 406.45 231.352C405.617 222.355 403.615 218.858 403.615 218.858L364.605 219.026" fill="white"/>
<path d="M367.609 234.178L373.943 240.341C373.943 240.341 376.442 264.329 378.941 278.497C381.439 292.656 387.942 329.147 387.942 332.149C387.942 335.15 389.28 342.81 389.28 342.81C389.28 342.81 388.783 342.978 388.615 344.147C388.447 345.315 388.447 349.814 388.447 349.814C388.447 349.814 392.611 351.815 396.279 352.143C399.947 352.479 405.617 351.975 405.617 351.975C405.617 351.975 406.282 348.141 406.282 346.812C406.282 345.483 405.785 339.648 406.114 337.319C406.45 334.99 408.781 323.16 408.116 310.161C407.451 297.162 403.447 277.008 403.447 277.008L404.784 247.681C404.784 247.681 407.283 240.349 406.45 231.352C405.617 222.355 403.615 218.858 403.615 218.858L364.605 219.026" stroke="#002E47" stroke-miterlimit="10" stroke-linecap="round" stroke-linejoin="round"/>
<path d="M372.11 149.037C372.11 149.037 358.776 165.534 357.439 172.866C356.101 180.198 354.275 221.683 354.275 223.348C354.275 225.013 356.942 225.677 360.114 226.182C363.277 226.678 368.282 227.182 373.784 227.014C379.286 226.846 384.956 225.013 385.789 224.012C386.622 223.012 384.956 193.525 387.791 177.364C390.626 161.204 393.461 152.543 391.795 149.374C390.122 146.204 377.78 145.708 372.11 149.037Z" fill="#002E47" stroke="#002E47" stroke-miterlimit="10" stroke-linecap="round" stroke-linejoin="round"/>
<path d="M385.612 148.205C385.612 148.205 375.61 165.702 373.776 178.028C371.942 190.355 373.279 231.512 373.279 231.512C373.279 231.512 373.279 233.177 380.951 233.009C388.624 232.841 398.955 230.84 401.79 229.343C404.625 227.846 407.788 226.678 407.956 225.845C408.124 225.013 406.459 222.011 406.459 219.514C406.459 217.017 405.289 206.683 405.289 206.683C405.289 206.683 404.953 161.196 402.454 154.704C399.956 148.205 390.121 146.372 385.612 148.205Z" fill="#39B4EF" stroke="#002E47" stroke-miterlimit="10" stroke-linecap="round" stroke-linejoin="round"/>
<path d="M361.274 117.053C361.274 117.053 359.937 122.384 360.441 124.049C360.938 125.713 361.106 127.546 360.938 128.211C360.77 128.875 356.934 133.205 357.775 134.046C358.616 134.886 360.61 136.215 360.61 136.215C360.61 136.215 361.443 145.043 362.94 145.548C364.438 146.052 369.94 145.051 369.94 145.051C369.94 145.051 371.774 151.879 371.774 153.048C371.774 154.216 366.104 166.711 369.275 165.71C372.446 164.71 385.108 146.38 385.108 146.38C385.108 146.38 384.94 122.888 381.272 116.893C377.612 110.89 366.616 111.89 361.274 117.053Z" fill="white" stroke="#002E47" stroke-miterlimit="10" stroke-linecap="round" stroke-linejoin="round"/>
<path d="M365.111 128.131C365.111 129.003 364.775 129.715 364.358 129.715C363.942 129.715 363.605 129.003 363.605 128.131C363.605 127.258 363.942 126.546 364.358 126.546C364.775 126.546 365.111 127.258 365.111 128.131Z" fill="#002E47"/>
<path d="M362.611 124.713C362.611 124.713 364.613 123.048 366.111 125.209" stroke="#002E47" stroke-miterlimit="10" stroke-linecap="round" stroke-linejoin="round"/>
<path d="M362.947 137.544C362.947 137.544 365.782 137.375 367.784 135.879" stroke="#002E47" stroke-miterlimit="10" stroke-linecap="round" stroke-linejoin="round"/>
<path d="M367.28 104.887C367.28 104.887 359.112 108.048 358.279 111.05C357.446 114.051 356.781 117.549 356.781 117.549L364.117 119.046L370.452 119.542C370.452 119.542 370.284 121.039 372.118 124.537C373.952 128.035 374.784 130.204 374.784 130.204C374.784 130.204 374.288 140.033 373.783 142.866C373.287 145.7 372.118 149.029 372.118 149.029C372.118 149.029 376.282 149.862 383.954 150.694C391.626 151.527 401.125 149.694 401.125 149.694C401.125 149.694 403.127 146.364 402.958 139.697C402.79 133.029 399.627 123.536 399.291 119.702C398.954 115.868 399.955 113.203 393.957 108.536C387.95 103.886 377.283 102.221 367.28 104.887Z" fill="#002E47" stroke="#002E47" stroke-miterlimit="10" stroke-linecap="round" stroke-linejoin="round"/>
<path d="M352.513 203.794C351.873 203.794 351.392 203.722 351.256 203.706L351.632 201.336C352.425 201.457 354.243 201.457 354.796 200.664C355.549 199.592 354.964 193.636 354.195 192.628C353.907 192.292 352.537 192.292 351.552 192.524L351.008 190.187C351.6 190.051 354.628 189.434 356.029 191.075C357.335 192.604 358.272 199.888 356.766 202.041C355.725 203.522 353.803 203.794 352.513 203.794Z" fill="white" stroke="#002E47" stroke-miterlimit="10" stroke-linecap="round" stroke-linejoin="round"/>
<path d="M352.609 188.026H338.273V206.683H352.609V188.026Z" fill="white" stroke="#002E47" stroke-miterlimit="10" stroke-linecap="round" stroke-linejoin="round"/>
<path d="M390.12 158.706C390.12 158.706 387.285 165.038 387.117 168.199C386.949 171.369 390.617 192.86 390.617 192.86C390.617 192.86 378.612 195.862 375.28 195.862C371.949 195.862 369.779 195.526 369.779 195.526C369.779 195.526 365.278 192.524 363.94 191.692C362.603 190.859 361.61 191.355 359.271 189.522C356.941 187.689 355.107 187.521 354.939 188.522C354.771 189.522 354.771 190.187 356.436 191.019C358.102 191.852 359.44 193.02 359.44 193.02C359.44 193.02 355.435 193.853 354.274 194.021C353.105 194.189 352.776 195.854 353.441 196.686C354.106 197.519 355.275 198.687 355.275 198.687C355.275 198.687 355.107 202.689 357.277 203.522C359.448 204.354 365.446 204.186 365.446 204.186C365.446 204.186 371.781 204.682 372.782 204.682C373.783 204.682 386.452 207.844 395.454 207.844C404.456 207.844 407.122 208.34 407.627 206.347C408.123 204.346 407.291 174.859 405.625 165.862C403.959 156.865 400.123 151.871 397.456 151.535" fill="#39B4EF"/>
<path d="M390.12 158.706C390.12 158.706 387.285 165.038 387.117 168.199C386.949 171.369 390.617 192.86 390.617 192.86C390.617 192.86 378.612 195.862 375.28 195.862C371.949 195.862 369.779 195.526 369.779 195.526C369.779 195.526 365.278 192.524 363.94 191.692C362.603 190.859 361.61 191.355 359.271 189.522C356.941 187.689 355.107 187.521 354.939 188.522C354.771 189.522 354.771 190.187 356.436 191.019C358.102 191.852 359.44 193.02 359.44 193.02C359.44 193.02 355.435 193.853 354.274 194.021C353.105 194.189 352.776 195.854 353.441 196.686C354.106 197.519 355.275 198.687 355.275 198.687C355.275 198.687 355.107 202.689 357.277 203.522C359.448 204.354 365.446 204.186 365.446 204.186C365.446 204.186 371.781 204.682 372.782 204.682C373.783 204.682 386.452 207.844 395.454 207.844C404.456 207.844 407.122 208.34 407.627 206.347C408.123 204.346 407.291 174.859 405.625 165.862C403.959 156.865 400.123 151.871 397.456 151.535" stroke="#002E47" stroke-miterlimit="10" stroke-linecap="round" stroke-linejoin="round"/>
<path d="M380.822 195.061C378.516 195.517 376.402 195.854 375.28 195.854C371.949 195.854 369.779 195.517 369.779 195.517C369.779 195.517 365.278 192.516 363.94 191.683C362.603 190.851 361.61 191.347 359.271 189.514C356.941 187.681 355.107 187.513 354.939 188.514C354.771 189.514 354.771 190.179 356.436 191.011C358.102 191.844 359.44 193.012 359.44 193.012C359.44 193.012 355.435 193.845 354.274 194.013C353.105 194.181 352.776 195.846 353.441 196.678C354.106 197.51 355.275 198.679 355.275 198.679C355.275 198.679 355.107 202.681 357.277 203.514C359.448 204.346 365.446 204.178 365.446 204.178C365.446 204.178 371.781 204.674 372.782 204.674C373.31 204.674 377.074 205.555 381.839 206.387C380.118 202.361 380.342 197.983 380.822 195.061Z" fill="white" stroke="#002E47" stroke-miterlimit="10" stroke-linecap="round" stroke-linejoin="round"/>
<path d="M190.275 351.679C190.275 351.679 189.474 356.785 187.079 361.892C184.685 366.999 184.525 368.912 189.954 369.712C195.384 370.512 198.099 369.232 199.212 366.358C200.334 363.485 200.806 356.625 201.126 355.032C201.455 353.432 197.146 348.485 190.275 351.679Z" fill="white" stroke="#002E47" stroke-miterlimit="10" stroke-linecap="round" stroke-linejoin="round"/>
<path d="M199.22 363.965C198.099 366.038 196.666 368.591 190.924 368.111C187.656 367.839 186.303 366.438 185.742 365.27C185.005 367.911 185.958 369.112 189.971 369.704C195.4 370.504 198.115 369.224 199.228 366.35C199.621 365.334 199.941 363.813 200.197 362.204C199.893 362.724 199.565 363.317 199.22 363.965Z" fill="white" stroke="#002E47" stroke-miterlimit="10" stroke-linecap="round" stroke-linejoin="round"/>
<path d="M235.451 350.246C235.451 350.246 238.807 353.44 243.908 355.673C249.018 357.906 252.686 359.179 252.686 360.299C252.686 361.42 251.564 363.493 251.564 363.493C251.564 363.493 246.135 365.086 240.713 365.086C235.291 365.086 230.814 364.605 226.826 364.445C222.838 364.285 218.209 364.765 217.889 361.892C217.568 359.019 218.209 353.6 218.209 353.6C218.209 353.6 232.256 349.285 235.451 350.246Z" fill="white" stroke="#002E47" stroke-miterlimit="10" stroke-linecap="round" stroke-linejoin="round"/>
<path d="M251.573 363.485C251.573 363.485 251.853 362.965 252.133 362.308C249.979 362.684 247.104 363.085 244.229 363.165C238.479 363.325 236.405 362.524 229.862 361.732C224.936 361.132 220.011 361.524 217.881 361.756C217.889 361.796 217.889 361.852 217.889 361.892C218.209 364.766 222.838 364.285 226.826 364.445C230.815 364.605 235.283 365.086 240.713 365.086C246.143 365.086 251.573 363.485 251.573 363.485Z" fill="white" stroke="#002E47" stroke-miterlimit="10" stroke-linecap="round" stroke-linejoin="round"/>
<path d="M236.419 225.141C236.419 225.141 237.244 249.273 235.763 270.612C234.281 291.952 232.311 323.304 233.136 327.738C233.961 332.172 234.618 346.452 234.618 346.452L236.099 348.261L236.924 351.214C236.924 351.214 236.099 352.039 231.014 353.512C225.92 354.992 218.528 355.32 218.528 355.32C218.528 355.32 218.2 350.398 218.2 349.085C218.2 347.773 218.528 344.819 218.528 344.819C218.528 344.819 215.733 310.185 216.23 303.125C216.727 296.066 215.733 267.835 215.733 267.835L214.909 257.654C214.909 257.654 208.342 284.083 208.013 287.365C207.685 290.647 203.088 324.136 203.088 326.105C203.088 328.074 201.118 346.788 201.118 346.788C201.118 346.788 202.271 348.597 202.431 350.398C202.599 352.207 201.278 356.801 201.278 356.801C201.278 356.801 198.811 355.16 196.513 354.992C194.215 354.824 189.778 354.496 189.778 354.496C189.778 354.496 188.464 344.971 188.464 343.002C188.464 341.033 188.464 332.821 188.464 332.821C188.464 332.821 187.808 309.345 188.961 300.316C190.114 291.287 189.457 263.385 188.793 251.563C188.136 239.74 186.494 229.239 187.64 226.614C188.793 223.988 189.449 220.707 189.449 220.707C189.449 220.707 201.278 223.332 214.909 224.156C228.539 224.981 235.442 222.515 235.442 222.515L236.419 225.141Z" fill="#002E47" stroke="#002E47" stroke-miterlimit="10" stroke-linecap="round" stroke-linejoin="round"/>
<path d="M214.9 257.646L218.528 247.024" stroke="white" stroke-miterlimit="10" stroke-linecap="round" stroke-linejoin="round"/>
<path d="M214.603 229.519C214.603 229.519 217.543 229.831 223.877 228.903C230.212 227.974 232.847 226.582 232.847 226.582C232.847 226.582 228.674 146.076 228.674 145.307C228.674 144.531 228.674 140.905 224.342 140.129C220.009 139.352 214.291 141.209 213.058 146.004C211.824 150.79 214.603 229.519 214.603 229.519Z" fill="white" stroke="#002E47" stroke-miterlimit="10" stroke-linecap="round" stroke-linejoin="round"/>
<path d="M232.695 233.689C232.695 233.689 232.23 238.476 232.695 238.788C233.159 239.1 237.644 237.395 240.583 236.163C243.522 234.93 242.545 235.418 243.498 232.625C244.451 229.831 244.139 229.831 241.2 230.608C238.261 231.376 232.695 233.689 232.695 233.689Z" fill="white" stroke="#002E47" stroke-miterlimit="10" stroke-linecap="round" stroke-linejoin="round"/>
<path d="M226.561 154.928L230.02 201.521L231.806 235.122C231.806 235.122 232.399 236.195 233.36 235.954C234.313 235.714 242.538 233.809 243.491 232.617C244.444 231.424 244.804 228.327 244.804 227.846C244.804 227.366 242.297 198.055 242.297 198.055L248.736 189.474C248.736 189.474 243.851 162.66 242.658 157.298C241.464 151.935 241.464 149.077 239.558 146.692C237.652 144.307 226.681 138.944 226.681 138.944L226.561 154.928Z" fill="#39B4EF" stroke="#002E47" stroke-miterlimit="10" stroke-linecap="round" stroke-linejoin="round"/>
<path d="M225.255 136.103C225.255 136.103 229.668 140.753 229.548 143.13C229.428 145.516 226.569 154.929 226.569 154.929L224.783 141.105C224.775 141.105 223.822 137.648 225.255 136.103Z" fill="white" stroke="#002E47" stroke-miterlimit="10" stroke-linecap="round" stroke-linejoin="round"/>
<path d="M210.72 126.177L210.344 135.919C210.344 135.919 213.563 143.899 215.589 146.284C217.616 148.669 221.315 152.719 221.315 152.719L225.368 144.259L225.488 139.608L227.274 135.198C227.274 135.198 223.342 134.486 219.522 131.5C215.709 128.523 211.769 124.945 211.417 124.825C211.065 124.721 210.72 126.177 210.72 126.177Z" fill="white" stroke="#002E47" stroke-miterlimit="10" stroke-linecap="round" stroke-linejoin="round"/>
<path d="M213.123 129.627C213.123 129.627 214.156 133.413 220.699 137.888C222.565 139.16 224.151 139.913 225.472 140.353L225.488 139.616L227.274 135.206C227.274 135.206 223.342 134.494 219.522 131.508C218.553 130.756 217.584 129.955 216.655 129.195L215.405 128.819L213.123 129.627Z" fill="#002E47" stroke="#002E47" stroke-miterlimit="10" stroke-linecap="round" stroke-linejoin="round"/>
<path d="M237.149 105.335C237.149 105.335 236.716 115.332 236.436 118.758C236.148 122.183 236.003 125.185 234.434 128.323C232.864 131.46 231.15 136.319 228.435 136.743C225.72 137.175 221.724 136.887 218.433 134.886C215.149 132.885 210.865 127.322 210.721 126.178C210.576 125.033 210.288 124.321 210.288 124.321C210.288 124.321 208.574 114.043 208.574 109.473C208.574 104.903 209.007 101.052 216.286 98.4832C223.582 95.9138 237.149 105.335 237.149 105.335Z" fill="white" stroke="#002E47" stroke-miterlimit="10" stroke-linecap="round" stroke-linejoin="round"/>
<path d="M213.29 105.335C213.29 105.335 217.719 106.479 215.437 108.472C213.154 110.473 211.008 112.755 211.008 112.755C211.008 112.755 211.721 115.612 211.44 116.749C211.152 117.893 209.727 118.75 208.726 117.605C207.725 116.46 206.868 115.604 206.868 115.604C206.868 115.604 204.153 107.04 203.584 104.614C203.015 102.189 202.439 99.6197 206.011 97.1945C209.582 94.7692 210.295 94.4811 210.295 94.4811C210.295 94.4811 216.294 90.487 224.582 91.1994C232.871 91.9117 236.579 96.6262 236.579 96.6262C236.579 96.6262 243.146 94.9133 242.722 99.6277C242.289 104.342 237.58 107.48 235.01 107.192C232.439 106.904 218.864 100.052 216.157 101.197C213.435 102.333 211.44 104.902 213.29 105.335Z" fill="#002E47" stroke="#002E47" stroke-miterlimit="10" stroke-linecap="round" stroke-linejoin="round"/>
<path d="M229.725 115.9C229.725 115.9 231.727 122.327 231.15 122.896C230.581 123.464 228.291 123.896 228.291 123.896" stroke="#002E47" stroke-miterlimit="10" stroke-linecap="round" stroke-linejoin="round"/>
<path d="M231.004 126.61C231.004 126.61 226.432 127.898 223.004 125.753" stroke="#002E47" stroke-miterlimit="10" stroke-linecap="round" stroke-linejoin="round"/>
<path d="M227.89 111.898C227.89 111.898 221.867 111.33 218.72 111.33C215.581 111.33 214.435 111.042 214.291 111.898C214.147 112.755 213.859 117.325 216.293 118.894C218.72 120.463 223.149 119.75 225.007 119.326C226.865 118.894 227.433 115.756 227.577 114.756C227.722 113.755 227.89 111.898 227.89 111.898Z" stroke="#002E47" stroke-miterlimit="10" stroke-linecap="round" stroke-linejoin="round"/>
<path d="M229.66 111.914C229.66 111.914 234.441 111.61 236.94 111.738C239.439 111.866 240.344 111.642 240.456 112.466C240.568 113.291 240.792 117.709 238.87 119.118C236.94 120.535 233.424 119.662 231.951 119.174C230.477 118.686 230.021 115.636 229.908 114.668C229.788 113.707 229.66 111.914 229.66 111.914Z" stroke="#002E47" stroke-miterlimit="10" stroke-linecap="round" stroke-linejoin="round"/>
<path d="M214.291 111.898L206.867 115.612" stroke="#002E47" stroke-miterlimit="10" stroke-linecap="round" stroke-linejoin="round"/>
<path d="M227.889 111.898H229.811" stroke="#002E47" stroke-miterlimit="10" stroke-linecap="round" stroke-linejoin="round"/>
<path d="M211.008 119.182C211.008 119.182 207.725 115.044 205.434 115.612C203.152 116.18 205.146 122.175 207.004 123.176C208.862 124.177 210.864 122.888 210.864 122.888" fill="white"/>
<path d="M211.008 119.182C211.008 119.182 207.725 115.044 205.434 115.612C203.152 116.18 205.146 122.175 207.004 123.176C208.862 124.177 210.864 122.888 210.864 122.888" stroke="#002E47" stroke-miterlimit="10" stroke-linecap="round" stroke-linejoin="round"/>
<path d="M222.509 115.724C222.509 116.549 222.164 117.213 221.732 117.213C221.307 117.213 220.955 116.549 220.955 115.724C220.955 114.9 221.299 114.235 221.732 114.235C222.164 114.235 222.509 114.9 222.509 115.724Z" fill="#002E47"/>
<path d="M233.183 117.213C233.612 117.213 233.96 116.546 233.96 115.724C233.96 114.902 233.612 114.235 233.183 114.235C232.754 114.235 232.406 114.902 232.406 115.724C232.406 116.546 232.754 117.213 233.183 117.213Z" fill="#002E47"/>
<path d="M218.336 110.425C218.336 110.425 221.563 109.409 225.608 110.665" stroke="#002E47" stroke-miterlimit="10" stroke-linecap="round" stroke-linejoin="round"/>
<path d="M231.453 110.778C231.453 110.778 233.119 109.825 235.866 110.297" stroke="#002E47" stroke-miterlimit="10" stroke-linecap="round" stroke-linejoin="round"/>
<path d="M218.456 237.091L218.624 240.029C218.624 240.029 211.825 241.422 202.391 239.252C192.957 237.091 184.46 231.216 183.531 229.984C182.602 228.751 184.308 223.492 184.308 223.492C184.308 223.492 183.074 223.18 185.237 223.956C187.399 224.733 195.904 232.145 207.5 234.154C219.089 236.163 218.592 235.394 218.456 237.091Z" fill="white" stroke="#002E47" stroke-miterlimit="10" stroke-linecap="round" stroke-linejoin="round"/>
<path d="M209.63 132.941C209.63 132.941 215.468 141.041 218.215 144.739C220.954 148.437 220.241 152.96 219.881 154.152C219.521 155.345 219.048 157.37 219.048 157.37V232.681C219.048 232.681 220.121 236.731 218.456 237.091C216.79 237.451 204.625 236.851 195.687 232.209C186.742 227.558 183.642 224.341 183.642 224.341L185.909 205.987L186.862 195.742L172.078 195.814C172.078 195.814 180.775 154.032 181.736 151.767C182.689 149.502 206.178 137.584 206.178 137.584C206.178 137.584 206.531 133.718 209.63 132.941Z" fill="#39B4EF" stroke="#002E47" stroke-miterlimit="10" stroke-linecap="round" stroke-linejoin="round"/>
<path d="M239.214 166.743L239.021 164.75" stroke="#002E47" stroke-miterlimit="10" stroke-linecap="round" stroke-linejoin="round"/>
<path d="M242.305 198.063L239.51 169.696" stroke="#002E47" stroke-miterlimit="10" stroke-linecap="round" stroke-linejoin="round"/>
<path d="M186.863 195.742L189.642 169.128" stroke="#002E47" stroke-miterlimit="10" stroke-linecap="round" stroke-linejoin="round"/>
<path d="M182.858 190.227C182.858 190.227 180.199 189.586 176.588 190.227C172.976 190.867 171.278 197.559 171.062 199.896C170.845 202.233 172.335 206.267 175.098 207.436C177.861 208.604 179.246 208.5 182.113 206.795C184.981 205.098 184.66 197.238 184.556 194.581C184.452 191.924 182.858 190.227 182.858 190.227Z" fill="white" stroke="#002E47" stroke-miterlimit="10" stroke-linecap="round" stroke-linejoin="round"/>
<path d="M189.914 182.543C189.914 182.543 190.979 175.427 191.083 173.09C191.187 170.753 190.867 167.887 191.299 166.927C191.724 165.974 193.213 166.823 193.742 167.455C194.271 168.095 194.695 171.385 194.591 172.658C194.487 173.93 194.591 174.995 194.591 174.995C194.591 174.995 202.776 168.944 203.729 167.663C204.682 166.39 206.596 165.43 207.236 166.278C207.877 167.127 207.132 167.871 206.387 168.616C205.643 169.36 201.815 173.714 201.182 174.242C200.541 174.771 200.333 175.619 200.333 175.619C200.333 175.619 200.974 175.723 201.927 175.403C202.88 175.083 209.471 171.793 210.111 171.793C210.752 171.793 211.281 172.642 211.064 173.282C210.848 173.922 202.776 178.805 202.455 178.909C202.135 179.013 201.815 179.757 202.351 179.861C202.88 179.965 209.471 178.909 210.32 179.333C211.169 179.757 210.96 180.718 210.536 181.03C210.111 181.35 202.247 182.727 202.247 182.727C202.247 182.727 204.794 183.255 205.859 183.471C206.924 183.687 208.726 183.687 208.726 184.32C208.726 184.96 208.302 185.272 207.557 185.272C206.812 185.272 203.2 185.272 202.031 185.272C200.862 185.272 198.523 186.225 196.609 187.081C194.695 187.93 193.846 188.25 193.846 188.25C193.846 188.25 188.641 197.703 186.727 201.104C184.812 204.506 181.945 205.779 179.182 205.987C176.42 206.203 173.552 201.208 174.081 198.767C174.61 196.326 179.078 190.907 183.011 188.89C186.935 186.897 188.104 184.872 189.914 182.543Z" fill="white" stroke="#002E47" stroke-miterlimit="10" stroke-linecap="round" stroke-linejoin="round"/>
<path d="M253.262 191.46C253.262 191.46 250.227 187.513 248.096 187.361C245.966 187.209 242.17 194.045 242.17 196.926C242.17 199.808 242.322 205.283 243.539 206.035C244.757 206.795 247.031 205.427 248.401 203.602C249.77 201.785 253.262 191.46 253.262 191.46Z" fill="white" stroke="#002E47" stroke-miterlimit="10" stroke-linecap="round" stroke-linejoin="round"/>
<path d="M288.098 172.73C288.098 172.73 288.274 169.48 287.658 169.656C287.041 169.832 286.6 170.273 286.777 171.761C286.953 173.25 286.248 176.5 286.248 176.5L288.098 172.73Z" fill="white" stroke="#002E47" stroke-miterlimit="10" stroke-linecap="round" stroke-linejoin="round"/>
<path d="M250.154 190.371C250.154 190.371 245.325 199.152 245.501 201.521C245.677 203.89 247.695 204.682 251.387 203.626C255.079 202.569 280.81 188.53 282.044 187.385C283.277 186.241 287.49 177.468 288.891 175.883C290.293 174.307 290.124 170.353 290.124 169.648C290.124 168.944 288.891 169.208 288.891 170.088C288.891 170.969 285.904 176.676 285.463 176.844C285.023 177.02 281.075 178.949 281.075 178.949C281.075 178.949 283.093 174.995 283.798 173.682C284.502 172.362 285.111 170.873 283.621 171.401C282.132 171.929 279.753 175.963 278.88 178.157C277.999 180.35 276.51 183.247 276.774 184.656C277.038 186.057 277.038 186.057 277.038 186.057C277.038 186.057 268.165 188.074 262.895 188.338C257.618 188.618 250.418 189.491 250.154 190.371Z" fill="white" stroke="#002E47" stroke-miterlimit="10" stroke-linecap="round" stroke-linejoin="round"/>
<path d="M285.729 181.062C285.729 181.062 290.381 175.707 290.998 174.739C291.615 173.77 292.4 172.282 292.231 171.137C292.055 169.992 291.262 171.401 290.654 172.37C290.037 173.338 288.812 174.211 288.107 175.795C287.402 177.372 285.737 177.812 285.737 177.812V181.062H285.729Z" fill="white" stroke="#002E47" stroke-miterlimit="10" stroke-linecap="round" stroke-linejoin="round"/>
<path d="M284.062 184.312C284.062 184.312 286.696 178.869 287.401 177.38C288.106 175.891 288.282 173.346 288.37 171.761C288.458 170.184 287.137 171.233 286.969 172.554C286.793 173.874 285.735 177.82 285.735 177.82C285.735 177.82 280.025 181.855 280.025 182.911C280.025 183.968 280.202 185.368 280.202 185.368" fill="white"/>
<path d="M284.062 184.312C284.062 184.312 286.696 178.869 287.401 177.38C288.106 175.891 288.282 173.346 288.37 171.761C288.458 170.184 287.137 171.233 286.969 172.554C286.793 173.874 285.735 177.82 285.735 177.82C285.735 177.82 280.025 181.855 280.025 182.911C280.025 183.968 280.202 185.368 280.202 185.368" stroke="#002E47" stroke-miterlimit="10" stroke-linecap="round" stroke-linejoin="round"/>
<path d="M105.031 266.938H96.4863V282.106H105.031V266.938Z" fill="#002E47" stroke="#002E47" stroke-miterlimit="10" stroke-linecap="round" stroke-linejoin="round"/>
<path d="M108.876 271.549H91.3377C84.4263 271.549 78.8203 265.946 78.8203 259.039V218.962C78.8203 212.054 84.4263 206.451 91.3377 206.451H108.876C115.788 206.451 121.394 212.054 121.394 218.962V259.039C121.394 265.946 115.788 271.549 108.876 271.549Z" fill="#949494" stroke="#002E47" stroke-miterlimit="10" stroke-linecap="round" stroke-linejoin="round"/>
<path d="M87.3409 361.572C87.3409 359.579 85.7232 357.962 83.729 357.962C81.7349 357.962 80.1172 359.579 80.1172 361.572C80.1172 363.565 81.7349 365.182 83.729 365.182C85.7232 365.182 87.3409 363.565 87.3409 361.572Z" fill="#002E47" stroke="#002E47" stroke-miterlimit="10" stroke-linecap="round" stroke-linejoin="round"/>
<path d="M157.983 361.572C157.983 359.579 156.366 357.962 154.372 357.962C152.377 357.962 150.76 359.579 150.76 361.572C150.76 363.565 152.377 365.182 154.372 365.182C156.366 365.182 157.983 363.565 157.983 361.572Z" fill="#002E47" stroke="#002E47" stroke-miterlimit="10" stroke-linecap="round" stroke-linejoin="round"/>
<path d="M120.801 361.572C120.801 359.579 120.048 357.962 119.119 357.962C118.19 357.962 117.438 359.579 117.438 361.572C117.438 363.565 118.19 365.182 119.119 365.182C120.048 365.182 120.801 363.565 120.801 361.572Z" fill="#002E47" stroke="#002E47" stroke-miterlimit="10" stroke-linecap="round" stroke-linejoin="round"/>
<path d="M122.41 341.954V290.151H115.314V342.17L80.293 356.017V359.491H85.3784V356.545L119.134 349.59L152.882 356.545V359.491H157.976V356.017L122.41 341.954Z" fill="#002E47" stroke="#002E47" stroke-miterlimit="10" stroke-linecap="round" stroke-linejoin="round"/>
<path d="M117.349 359.483H120.896L121.657 342.666H116.588L117.349 359.483Z" fill="#002E47" stroke="#002E47" stroke-miterlimit="10" stroke-linecap="round" stroke-linejoin="round"/>
<path d="M127.873 288.174H109.83V298.883H127.873V288.174Z" fill="#002E47" stroke="#002E47" stroke-miterlimit="10" stroke-linecap="round" stroke-linejoin="round"/>
<path d="M145.7 292.12H90.3131C87.6943 292.12 85.5801 289.999 85.5801 287.389V283.043C85.5801 280.426 87.7023 278.312 90.3131 278.312H145.7C148.319 278.312 150.433 280.434 150.433 283.043V287.389C150.441 290.007 148.319 292.12 145.7 292.12Z" fill="#949494" stroke="#002E47" stroke-miterlimit="10" stroke-linecap="round" stroke-linejoin="round"/>
<path d="M197.732 316.564L203.249 324.737L209.792 324.328C209.792 324.328 222.262 322.079 223.903 321.671C225.537 321.263 226.154 322.696 225.337 324.328C224.52 325.961 216.952 333.317 213.276 335.566C209.592 337.815 199.165 341.489 198.148 341.698C197.123 341.906 195.898 339.857 193.647 333.525C191.397 327.194 187.312 320.855 187.312 320.855L197.732 316.564Z" fill="white" stroke="#002E47" stroke-miterlimit="10" stroke-linecap="round" stroke-linejoin="round"/>
<path d="M225.329 324.337C226.145 322.704 225.537 321.271 223.895 321.679C222.261 322.087 209.784 324.337 209.784 324.337L203.241 324.745C203.449 328.427 204.266 330.26 204.266 330.26C204.266 330.26 195.064 332.509 193.631 333.525C195.881 339.857 197.107 341.906 198.132 341.698C199.157 341.489 209.584 337.816 213.26 335.566C216.944 333.325 224.512 325.969 225.329 324.337Z" fill="white" stroke="#002E47" stroke-miterlimit="10" stroke-linecap="round" stroke-linejoin="round"/>
<path d="M225.328 324.337C225.673 323.64 225.753 323 225.617 322.504C221.885 325.649 214.052 332.101 210.921 333.669C207.942 335.158 200.181 337.888 195.961 339.336C196.866 341.169 197.539 341.834 198.139 341.714C199.164 341.506 209.591 337.832 213.267 335.582C216.943 333.325 224.511 325.969 225.328 324.337Z" fill="white" stroke="#002E47" stroke-miterlimit="10" stroke-linecap="round" stroke-linejoin="round"/>
<path d="M177.357 249.065C177.357 249.065 186.359 275.471 191.588 293.272C195.721 307.328 200.99 318.205 200.99 318.205C200.99 318.205 196.698 320.655 193.83 322.087C190.971 323.52 186.062 325.353 186.062 325.353C186.062 325.353 182.178 319.222 178.086 311.25C173.993 303.278 167.042 283.867 163.774 277.944C160.507 272.021 156.006 263.025 156.006 263.025C156.006 263.025 153.964 252.803 161.732 250.154C169.509 247.497 175.115 246.208 177.357 249.065Z" fill="#39B4EF" stroke="#002E47" stroke-miterlimit="10" stroke-linecap="round" stroke-linejoin="round"/>
<path d="M146.332 244.647C146.332 244.647 149.847 246.992 149.951 247.384C150.048 247.777 149.855 248.065 149.071 248.361C148.286 248.657 144.674 249.337 144.674 249.337L146.332 244.647Z" fill="white" stroke="#002E47" stroke-miterlimit="10" stroke-linecap="round" stroke-linejoin="round"/>
<path d="M159.41 333.349C159.41 333.349 158.001 342.106 157.048 345.307C156.095 348.501 153.46 354.32 154.285 355.769C155.117 357.218 159.474 358.698 161.7 358.882C163.927 359.066 166.778 362.7 170.918 364.205C175.059 365.71 180.529 365.302 180.4 364.213C180.272 363.125 168.139 349.758 167.547 346.524C166.954 343.29 169.084 333.125 169.084 333.125L159.41 333.349Z" fill="white" stroke="#002E47" stroke-miterlimit="10" stroke-linecap="round" stroke-linejoin="round"/>
<path d="M166.033 348.677C165.696 349.598 165.696 349.598 165.696 349.598C165.696 349.598 160.082 348.973 156.23 347.693C155.101 350.83 153.627 354.632 154.276 355.769C155.109 357.218 159.466 358.698 161.692 358.882C163.918 359.066 166.769 362.7 170.91 364.205C175.05 365.71 180.52 365.302 180.392 364.213C180.264 363.125 168.131 349.758 167.538 346.524C167.554 346.516 166.369 347.757 166.033 348.677Z" fill="white" stroke="#002E47" stroke-miterlimit="10" stroke-linecap="round" stroke-linejoin="round"/>
<path d="M170.67 362.028C167.394 360.419 164.431 357.682 160.074 356.201C157.231 355.241 155.261 354.456 154.228 354.024C154.092 354.8 154.092 355.409 154.292 355.761C155.125 357.21 159.482 358.69 161.708 358.874C163.934 359.059 166.785 362.692 170.926 364.197C174.874 365.63 180.016 365.326 180.376 364.349C177.645 363.949 172.92 363.133 170.67 362.028Z" fill="white" stroke="#002E47" stroke-miterlimit="10" stroke-linecap="round" stroke-linejoin="round"/>
<path d="M157.24 267.523C157.24 267.523 173.393 269.364 174.619 277.536C175.844 285.708 172.985 336.591 172.985 336.591C172.985 336.591 169.101 336.799 165.825 336.183C162.55 335.566 157.032 334.342 157.032 334.342C157.032 334.342 156.215 316.973 155.19 310.025C154.165 303.077 153.348 282.843 153.348 282.843C153.348 282.843 126.359 280.594 123.909 278.961C121.466 277.336 157.24 267.523 157.24 267.523Z" fill="#39B4EF" stroke="#002E47" stroke-miterlimit="10" stroke-linecap="round" stroke-linejoin="round"/>
<path d="M174.827 263.441C174.827 263.441 138.637 277.544 129.435 280.61C120.233 283.675 110.215 282.859 103.88 280.818C97.545 278.777 94.4297 270.645 94.4297 270.645C94.4297 270.645 92.836 268.764 93.6529 266.923C94.4698 265.082 107.556 253.436 115.532 251.395C123.509 249.354 137.932 250.242 137.932 250.242C137.932 250.242 169.101 243.014 173.402 243.631C177.694 244.247 181.106 259.519 181.723 261.56" fill="#39B4EF"/>
<path d="M174.827 263.441C174.827 263.441 138.637 277.544 129.435 280.61C120.233 283.675 110.215 282.859 103.88 280.818C97.545 278.777 94.4297 270.645 94.4297 270.645C94.4297 270.645 92.836 268.764 93.6529 266.923C94.4698 265.082 107.556 253.436 115.532 251.395C123.509 249.354 137.932 250.242 137.932 250.242C137.932 250.242 169.101 243.014 173.402 243.631C177.694 244.247 181.106 259.519 181.723 261.56" stroke="#002E47" stroke-miterlimit="10" stroke-linecap="round" stroke-linejoin="round"/>
<path d="M103.672 272.221C103.672 272.221 106.531 260.984 114.099 256.285" stroke="#002E47" stroke-miterlimit="10" stroke-linecap="round" stroke-linejoin="round"/>
<path d="M102.037 264.666C102.037 264.666 105.104 259.967 109.197 258.943" stroke="#002E47" stroke-miterlimit="10" stroke-linecap="round" stroke-linejoin="round"/>
<path d="M124.549 180.502C124.549 180.502 127.729 181.006 129.739 184.344C131.749 187.689 135.088 200.232 135.088 200.232C135.088 200.232 140.446 215.784 139.437 219.458C138.436 223.14 134.416 228.487 134.416 228.487C134.416 228.487 134.752 240.525 135.753 242.87C136.754 245.207 137.931 250.226 137.931 250.226C137.931 250.226 135.088 252.235 125.718 253.572C116.348 254.908 108.652 255.581 105.473 258.086C102.293 260.591 95.27 270.124 94.4291 270.628C93.5962 271.133 92.2508 272.133 91.5861 270.797C90.9133 269.46 89.7441 266.618 91.2497 260.599C92.7553 254.58 95.4302 230.832 96.4392 219.634C97.4403 208.428 95.27 197.062 96.6074 189.202C97.9448 181.342 109.821 176.66 112.504 176.163C115.179 175.651 124.549 180.502 124.549 180.502Z" fill="#002E47" stroke="#002E47" stroke-miterlimit="10" stroke-linecap="round" stroke-linejoin="round"/>
<path d="M96.3105 260.575C96.3105 260.575 101.42 254.652 103.879 253.628C106.337 252.603 123.508 252.603 123.508 252.603" stroke="white" stroke-miterlimit="10" stroke-linecap="round" stroke-linejoin="round"/>
<path d="M99.9941 253.011C99.9941 253.011 102.853 251.378 105.104 250.97C107.354 250.562 113.28 250.97 113.28 250.97" stroke="white" stroke-miterlimit="10" stroke-linecap="round" stroke-linejoin="round"/>
<path d="M108.988 232.577C108.988 232.577 116.757 229.919 123.916 222.972" stroke="white" stroke-miterlimit="10" stroke-linecap="round" stroke-linejoin="round"/>
<path d="M127.392 133.013C127.392 133.013 129.899 138.36 130.74 140.033C131.573 141.706 131.244 144.547 131.909 146.892C132.582 149.23 136.426 150.734 136.426 152.079C136.426 153.416 134.92 156.089 134.92 156.089C134.92 156.089 134.087 166.455 132.742 167.623C131.404 168.792 125.879 169.128 125.879 169.128L123.036 179.998L125.879 181.67C125.879 181.67 126.383 191.54 125.879 195.045C125.374 198.559 125.71 201.905 120.689 200.56C115.668 199.224 107.971 185.849 107.307 184.176C106.634 182.503 109.485 175.315 106.138 164.614C102.79 153.912 110.15 144.211 115.003 139.697C119.864 135.19 122.203 132.181 127.392 133.013Z" fill="white" stroke="#002E47" stroke-miterlimit="10" stroke-linecap="round" stroke-linejoin="round"/>
<path d="M127.392 133.013C127.224 130.003 126.888 128.835 120.697 128.163C114.507 127.49 101.292 126.994 96.1029 136.191C90.9134 145.387 90.9134 165.454 90.9134 165.454C90.9134 165.454 79.8696 175.323 79.0368 181.342C78.2039 187.361 82.2161 193.044 88.5749 195.053C88.6951 195.093 88.8232 195.117 88.9513 195.149C89.5119 192.748 90.537 189.707 92.427 187.441C96.0469 183.103 99.1782 183.583 103.759 182.383C108.412 181.158 111.263 180.862 111.936 175.635C112.617 170.376 113.618 164.766 113.169 159.435C113.001 157.426 115.179 154.416 115.179 154.416C115.179 154.416 120.369 155.753 123.708 146.724C127.056 137.695 127.56 136.023 127.392 133.013Z" fill="#002E47" stroke="#002E47" stroke-miterlimit="10" stroke-linecap="round" stroke-linejoin="round"/>
<path d="M117.349 156.922C117.349 156.922 115.675 149.23 111.327 152.239C106.978 155.249 113.505 163.773 114.506 163.941C115.507 164.109 117.181 163.109 117.181 163.109" fill="white"/>
<path d="M117.349 156.922C117.349 156.922 115.675 149.23 111.327 152.239C106.978 155.249 113.505 163.773 114.506 163.941C115.507 164.109 117.181 163.109 117.181 163.109" stroke="#002E47" stroke-miterlimit="10" stroke-linecap="round" stroke-linejoin="round"/>
<path d="M125.887 169.128L120.697 168.463L124.381 173.314L125.887 169.128Z" fill="#002E47" stroke="#002E47" stroke-miterlimit="10" stroke-linecap="round" stroke-linejoin="round"/>
<path d="M131.388 148.805C131.604 149.942 131.38 150.934 130.884 151.03C130.387 151.126 129.802 150.286 129.586 149.149C129.37 148.013 129.594 147.02 130.091 146.924C130.587 146.836 131.172 147.677 131.388 148.805Z" fill="#002E47"/>
<path d="M141.952 239.949C142.6 239.949 143.097 239.877 143.233 239.861L142.848 237.451C142.04 237.571 140.19 237.571 139.629 236.771C138.86 235.674 139.461 229.631 140.238 228.607C140.526 228.27 141.927 228.271 142.929 228.503L143.489 226.125C142.889 225.981 139.813 225.365 138.38 227.03C137.05 228.583 136.097 235.995 137.627 238.18C138.684 239.668 140.646 239.949 141.952 239.949Z" fill="white" stroke="#002E47" stroke-miterlimit="10" stroke-linecap="round" stroke-linejoin="round"/>
<path d="M141.852 242.889H156.428V223.911H141.852V242.889Z" fill="white" stroke="#002E47" stroke-miterlimit="10" stroke-linecap="round" stroke-linejoin="round"/>
<path d="M99.6587 183.824C99.6587 183.824 91.9385 181.414 88.4067 196.334C87.2295 201.297 82.4724 251.547 83.4655 251.899C87.0613 253.172 125.038 241.365 125.038 241.365C125.038 241.365 136.794 240.565 137.819 240.317C138.844 240.077 140.454 238.228 140.382 237.187C140.31 236.155 140.342 234.066 140.342 234.066C140.342 234.066 142.112 232.033 141.503 230.688C140.887 229.343 139.645 228.903 139.645 228.903L137.211 228.895L135.777 228.295C135.777 228.295 137.563 226.438 137.267 224.725C136.97 223.012 135.521 222.067 134.912 223.324C134.304 224.581 134.192 225.453 133.054 226.574C131.917 227.694 130.283 229.191 129.499 230.464C128.714 231.728 126.511 235.01 126.511 235.01L99.1462 236.499L103.303 204.987" fill="#002E47"/>
<path d="M99.6587 183.824C99.6587 183.824 91.9385 181.414 88.4067 196.334C87.2295 201.297 82.4724 251.547 83.4655 251.899C87.0613 253.172 125.038 241.365 125.038 241.365C125.038 241.365 136.794 240.565 137.819 240.317C138.844 240.077 140.454 238.228 140.382 237.187C140.31 236.155 140.342 234.066 140.342 234.066C140.342 234.066 142.112 232.033 141.503 230.688C140.887 229.343 139.645 228.903 139.645 228.903L137.211 228.895L135.777 228.295C135.777 228.295 137.563 226.438 137.267 224.725C136.97 223.012 135.521 222.067 134.912 223.324C134.304 224.581 134.192 225.453 133.054 226.574C131.917 227.694 130.283 229.191 129.499 230.464C128.714 231.728 126.511 235.01 126.511 235.01L99.1462 236.499L103.303 204.987" stroke="#002E47" stroke-miterlimit="10" stroke-linecap="round" stroke-linejoin="round"/>
<path d="M141.496 230.696C140.879 229.351 139.638 228.911 139.638 228.911L137.203 228.903L135.769 228.303C135.769 228.303 137.555 226.446 137.259 224.733C136.971 223.02 135.513 222.075 134.904 223.332C134.296 224.589 134.184 225.461 133.047 226.582C131.909 227.702 130.276 229.199 129.491 230.472C128.706 231.736 126.504 235.018 126.504 235.018L99.1384 236.507L100.948 222.772L85.5879 222.427C84.1864 236.803 82.9131 251.707 83.4497 251.899C87.0455 253.171 125.022 241.365 125.022 241.365C125.022 241.365 136.778 240.565 137.804 240.317C138.829 240.077 140.438 238.228 140.366 237.187C140.294 236.155 140.326 234.066 140.326 234.066C140.326 234.066 142.112 232.04 141.496 230.696Z" fill="white" stroke="#002E47" stroke-miterlimit="10" stroke-linecap="round" stroke-linejoin="round"/>
<path d="M140.27 244.431C140.27 244.431 137.202 245.047 136.385 246.064C135.569 247.088 133.526 252.603 134.543 252.811C135.569 253.019 137.611 248.521 137.611 248.521C137.611 248.521 143.337 245.656 140.27 244.431Z" fill="white" stroke="#002E47" stroke-miterlimit="10" stroke-linecap="round" stroke-linejoin="round"/>
<path d="M141.639 244.447C141.639 244.447 140.47 244.351 139.589 244.839C138.708 245.327 136.85 249.53 136.562 250.698C136.266 251.867 136.562 253.043 137.347 252.747C138.132 252.451 140.863 248.257 141.647 247.761C142.424 247.28 143.009 244.463 141.639 244.447Z" fill="white" stroke="#002E47" stroke-miterlimit="10" stroke-linecap="round" stroke-linejoin="round"/>
<path d="M143.794 244.447C143.794 244.447 142.817 242.782 141.639 244.447C140.47 246.112 138.508 251.186 138.997 251.579C139.485 251.971 140.662 250.698 141.439 249.818C142.232 248.945 144.378 246.696 143.794 244.447Z" fill="white" stroke="#002E47" stroke-miterlimit="10" stroke-linecap="round" stroke-linejoin="round"/>
<path d="M146.332 244.647C146.332 244.647 144.57 243.575 143.793 244.455C143.008 245.335 142.423 250.026 142.624 250.514C142.816 251.002 144.385 249.834 144.674 249.345C144.962 248.849 146.332 244.647 146.332 244.647Z" fill="white" stroke="#002E47" stroke-miterlimit="10" stroke-linecap="round" stroke-linejoin="round"/>
<path d="M98.0716 98.4498C98.0716 116.419 83.5048 130.986 65.5358 130.986C47.5668 130.986 33 116.419 33 98.4498C33 80.4808 47.5668 65.9141 65.5358 65.9141C83.5048 65.9141 98.0716 80.4808 98.0716 98.4498Z" fill="white"/>
<path d="M65.5076 89.5177C68.1313 89.5177 70.2582 87.4006 70.2582 84.7889C70.2582 82.1773 68.1313 80.0601 65.5076 80.0601C62.884 80.0601 60.7571 82.1773 60.7571 84.7889C60.7571 87.4006 62.884 89.5177 65.5076 89.5177Z" fill="#39B4EF"/>
<path d="M65.5076 103.179C68.1313 103.179 70.2582 101.062 70.2582 98.4499C70.2582 95.8383 68.1313 93.7211 65.5076 93.7211C62.884 93.7211 60.7571 95.8383 60.7571 98.4499C60.7571 101.062 62.884 103.179 65.5076 103.179Z" fill="#39B4EF"/>
<path d="M65.5076 116.84C68.1313 116.84 70.2582 114.723 70.2582 112.111C70.2582 109.499 68.1313 107.382 65.5076 107.382C62.884 107.382 60.7571 109.499 60.7571 112.111C60.7571 114.723 62.884 116.84 65.5076 116.84Z" fill="#39B4EF"/>
<path d="M52.8395 103.179C55.4632 103.179 57.5901 101.062 57.5901 98.4499C57.5901 95.8383 55.4632 93.7211 52.8395 93.7211C50.2159 93.7211 48.089 95.8383 48.089 98.4499C48.089 101.062 50.2159 103.179 52.8395 103.179Z" fill="#39B4EF"/>
<path d="M79.2315 103.179C81.8551 103.179 83.982 101.062 83.982 98.4499C83.982 95.8383 81.8551 93.7211 79.2315 93.7211C76.6078 93.7211 74.4809 95.8383 74.4809 98.4499C74.4809 101.062 76.6078 103.179 79.2315 103.179Z" fill="#39B4EF"/>
<path d="M65.5358 131.986C84.0571 131.986 99.0716 116.971 99.0716 98.4498C99.0716 79.9285 84.0571 64.9141 65.5358 64.9141C47.0145 64.9141 32 79.9285 32 98.4498C32 116.971 47.0145 131.986 65.5358 131.986Z" stroke="#002E47" stroke-width="2"/>
</g>
<defs>
<clipPath id="clip0_138_13058">
<rect width="563" height="385" fill="white"/>
</clipPath>
</defs>
</svg>
