<svg width="100" height="100" viewBox="0 0 100 100" fill="none" xmlns="http://www.w3.org/2000/svg">
<path d="M40.4941 29.8223C41.3574 29.8223 42.0566 30.5215 42.0566 31.3848V38.4023C42.0566 39.2656 41.3574 39.9648 40.4941 39.9648C39.6309 39.9648 38.9316 39.2656 38.9316 38.4023V31.3848C38.9316 30.5234 39.6309 29.8223 40.4941 29.8223ZM57.9434 31.3848V38.4023C57.9434 39.2656 58.6426 39.9648 59.5059 39.9648C60.3691 39.9648 61.0684 39.2656 61.0684 38.4023V31.3848C61.0684 30.5215 60.3691 29.8223 59.5059 29.8223C58.6426 29.8223 57.9434 30.5234 57.9434 31.3848ZM42.4473 17.0039C41.1113 15.3437 40.3105 13.2402 40.3105 10.9492C40.3105 5.60938 44.6582 1.26367 50 1.26367C55.3457 1.26367 59.6953 5.60742 59.6953 10.9492C59.6953 13.2402 58.8926 15.3457 57.5547 17.0059C63.0664 18.0332 67.2578 22.8789 67.2578 28.6543V38.4023C67.2578 39.2656 66.5586 39.9648 65.6953 39.9648C64.832 39.9648 64.1328 39.2656 64.1328 38.4023V28.6543C64.1328 23.8789 60.2402 19.9648 55.457 19.9258H53.6191C52.5 20.377 51.2793 20.6289 50 20.6289C48.7207 20.6289 47.502 20.3789 46.3828 19.9258H44.5293C39.7617 19.9629 35.8711 23.8789 35.8711 28.6543V38.4023C35.8711 39.2656 35.1719 39.9648 34.3086 39.9648C33.4453 39.9648 32.7461 39.2656 32.7461 38.4023V28.6543C32.748 22.875 36.9414 18.0273 42.4473 17.0039ZM43.4355 10.9492C43.4355 14.5625 46.3809 17.5039 50 17.5039C53.623 17.5039 56.5703 14.5645 56.5703 10.9492C56.5703 7.33203 53.623 4.38867 50 4.38867C46.3809 4.38867 43.4355 7.33203 43.4355 10.9492ZM7.75195 75.877C6.88867 75.877 6.18945 76.5762 6.18945 77.4395V84.4609C6.18945 85.3242 6.88867 86.0234 7.75195 86.0234C8.61523 86.0234 9.31445 85.3242 9.31445 84.4609V77.4395C9.31445 76.5762 8.61523 75.877 7.75195 75.877ZM28.3262 77.4395C28.3262 76.5762 27.627 75.877 26.7637 75.877C25.9004 75.877 25.2012 76.5762 25.2012 77.4395V84.4609C25.2012 85.3242 25.9004 86.0234 26.7637 86.0234C27.627 86.0234 28.3262 85.3242 28.3262 84.4609V77.4395ZM22.7148 65.9805H20.875C19.7559 66.4316 18.5371 66.6836 17.2578 66.6836C15.9785 66.6836 14.7578 66.4336 13.6387 65.9805H11.7871C7.01758 66.0176 3.125 69.9336 3.125 74.707V84.4609C3.125 85.3242 2.42578 86.0234 1.5625 86.0234C0.699219 86.0234 0 85.3242 0 84.4609V74.707C0 68.9297 4.19531 64.082 9.70117 63.0566C8.36523 61.3965 7.5625 59.291 7.5625 57.002C7.5625 51.6621 11.9121 47.3164 17.2578 47.3164C22.6016 47.3164 26.9473 51.6621 26.9473 57.002C26.9473 59.293 26.1445 61.3984 24.8086 63.0586C30.3203 64.0859 34.5098 68.9316 34.5098 74.707V84.4609C34.5098 85.3242 33.8105 86.0234 32.9473 86.0234C32.084 86.0234 31.3848 85.3242 31.3848 84.4609V74.707C31.3848 69.9336 27.4961 66.0176 22.7148 65.9805ZM17.2578 63.5566C20.877 63.5566 23.8223 60.6172 23.8223 57.002C23.8223 53.3848 20.877 50.4414 17.2578 50.4414C13.6348 50.4414 10.6875 53.3848 10.6875 57.002C10.6875 60.6172 13.6348 63.5566 17.2578 63.5566ZM73.2422 75.877C72.3789 75.877 71.6797 76.5762 71.6797 77.4395V84.4609C71.6797 85.3242 72.3789 86.0234 73.2422 86.0234C74.1055 86.0234 74.8047 85.3242 74.8047 84.4609V77.4395C74.8047 76.5762 74.1055 75.877 73.2422 75.877ZM92.2539 75.877C91.3906 75.877 90.6914 76.5762 90.6914 77.4395V84.4609C90.6914 85.3242 91.3906 86.0234 92.2539 86.0234C93.1172 86.0234 93.8164 85.3242 93.8164 84.4609V77.4395C93.8164 76.5762 93.1172 75.877 92.2539 75.877ZM100 74.707V84.4609C100 85.3242 99.3008 86.0234 98.4375 86.0234C97.5742 86.0234 96.875 85.3242 96.875 84.4609V74.707C96.875 69.9316 92.9863 66.0176 88.2051 65.9785H86.3672C85.248 66.4297 84.0273 66.6816 82.748 66.6816C81.4688 66.6816 80.248 66.4316 79.1289 65.9785H77.2773C72.5098 66.0156 68.6191 69.9316 68.6191 74.707V84.4609C68.6191 85.3242 67.9199 86.0234 67.0566 86.0234C66.1934 86.0234 65.4941 85.3242 65.4941 84.4609V74.707C65.4941 68.9297 69.6875 64.082 75.1914 63.0566C73.8555 61.3965 73.0527 59.291 73.0527 57.002C73.0527 51.6621 77.4023 47.3164 82.748 47.3164C88.0938 47.3164 92.4434 51.6621 92.4434 57.002C92.4434 59.293 91.6406 61.3984 90.3027 63.0586C95.8105 64.0879 100 68.9336 100 74.707ZM82.748 63.5566C86.3711 63.5566 89.3184 60.6172 89.3184 57.002C89.3184 53.3848 86.3711 50.4414 82.748 50.4414C79.125 50.4414 76.1777 53.3848 76.1777 57.002C76.1777 60.6172 79.125 63.5566 82.748 63.5566ZM67.873 18.209C78.4766 23.3789 86.3184 32.8457 89.3887 44.1797C89.5781 44.875 90.207 45.334 90.8965 45.334C91.0312 45.334 91.1699 45.3164 91.3066 45.2793C92.1387 45.0527 92.6309 44.1953 92.4062 43.3633C89.0996 31.1582 80.6562 20.9668 69.2441 15.4004C68.4688 15.0215 67.5332 15.3437 67.1543 16.1191C66.7754 16.8945 67.0977 17.8301 67.873 18.209ZM8.69531 45.2793C8.83203 45.3164 8.96875 45.334 9.10547 45.334C9.79297 45.334 10.4238 44.875 10.6133 44.1797C13.6855 32.8437 21.5293 23.3789 32.1348 18.209C32.9102 17.8301 33.2324 16.8965 32.8555 16.1191C32.4766 15.3437 31.541 15.0215 30.7656 15.3984C19.3457 20.9648 10.9023 31.1562 7.5957 43.3633C7.36914 44.1953 7.86133 45.0527 8.69531 45.2793ZM69.7871 90.5039C63.7715 93.8438 56.9277 95.6094 50 95.6094C43.0762 95.6094 36.2344 93.8438 30.2188 90.5039C29.4648 90.084 28.5137 90.3574 28.0938 91.1113C27.6738 91.8652 27.9473 92.8164 28.7012 93.2363C35.1797 96.834 42.5449 98.7363 50 98.7363C57.457 98.7363 64.8242 96.834 71.3047 93.2363C72.0586 92.8184 72.332 91.8672 71.9121 91.1113C71.4922 90.3574 70.541 90.0859 69.7871 90.5039Z" fill="#39B4EF"/>
</svg>
