<svg width="101" height="100" viewBox="0 0 101 100" fill="none" xmlns="http://www.w3.org/2000/svg">
<path d="M45.8293 66.865L55.874 58.4945C57.1877 57.4038 58.7636 56.6754 60.4456 56.3815C62.1275 56.0877 63.8571 56.2385 65.4628 56.8191L76.0127 60.6553C76.526 60.8423 77.0682 60.9378 77.6145 60.9375H97.3765V57.8125H88.0015V7.8125C88.0001 6.56973 87.5058 5.37826 86.627 4.49949C85.7483 3.62072 84.5568 3.12641 83.314 3.125H17.689C16.4463 3.12641 15.2548 3.62072 14.376 4.49949C13.4973 5.37826 13.0029 6.56973 13.0015 7.8125V57.8006L3.62768 57.7934L3.62539 60.9184L28.1169 60.9371H28.1209C28.6246 60.9373 29.125 60.8561 29.6027 60.6965L42.7024 56.3301C42.8616 56.277 43.0284 56.25 43.1962 56.25H53.6859L43.8289 64.4643C43.2249 64.9649 42.7256 65.5798 42.3596 66.2736C41.9936 66.9675 41.7681 67.7268 41.696 68.508C41.6239 69.2892 41.7067 70.0769 41.9395 70.826C42.1724 71.5752 42.5507 72.271 43.0529 72.8737C43.5551 73.4764 44.1713 73.974 44.8662 74.3382C45.561 74.7023 46.3209 74.9258 47.1023 74.9958C47.8837 75.0658 48.6712 74.981 49.4197 74.7461C50.1682 74.5113 50.863 74.1311 51.4644 73.6273L56.6556 69.3014L70.4903 83.1361C70.6532 83.2987 70.7825 83.4919 70.8707 83.7045C70.9589 83.9171 71.0043 84.145 71.0044 84.3752C71.0045 84.6054 70.9592 84.8333 70.8712 85.046C70.7831 85.2587 70.6541 85.4519 70.4913 85.6147C70.3285 85.7775 70.1353 85.9066 69.9226 85.9946C69.71 86.0827 69.482 86.128 69.2518 86.1279C69.0217 86.1278 68.7938 86.0824 68.5811 85.9942C68.3685 85.906 68.1754 85.7768 68.0127 85.6139L66.4502 84.0514L56.294 73.8952L54.0841 76.1048L64.2403 86.2611C64.4032 86.4237 64.5325 86.6169 64.6207 86.8295C64.7089 87.0421 64.7543 87.27 64.7544 87.5002C64.7545 87.7304 64.7092 87.9583 64.6212 88.171C64.5331 88.3837 64.4041 88.5769 64.2413 88.7397C64.0785 88.9025 63.8853 89.0316 63.6726 89.1196C63.46 89.2077 63.232 89.253 63.0019 89.2529C62.7717 89.2528 62.5438 89.2074 62.3311 89.1192C62.1185 89.031 61.9254 88.9018 61.7627 88.7389L60.2002 87.1764L53.169 80.1452L50.9591 82.3548L57.9903 89.3861C58.1532 89.5487 58.2825 89.7419 58.3707 89.9545C58.4589 90.1671 58.5043 90.395 58.5044 90.6252C58.5045 90.8554 58.4592 91.0833 58.3712 91.296C58.2831 91.5087 58.1541 91.7019 57.9913 91.8647C57.8285 92.0275 57.6353 92.1566 57.4226 92.2446C57.21 92.3327 56.982 92.378 56.7519 92.3779C56.5217 92.3778 56.2938 92.3324 56.0811 92.2442C55.8685 92.156 55.6754 92.0268 55.5127 91.8639L52.3877 88.7389L50.6645 87.0157C50.5488 85.8434 50.0122 84.7528 49.1539 83.9459C48.2957 83.139 47.1741 82.6706 45.9969 82.6274C45.9518 81.3985 45.4435 80.2322 44.574 79.3627C43.7045 78.4932 42.5382 77.9849 41.3094 77.9399C41.2802 77.178 41.0729 76.4335 40.704 75.7663C40.3351 75.099 39.815 74.5275 39.1853 74.0976C38.5557 73.6676 37.834 73.3912 37.0782 73.2906C36.3225 73.19 35.5536 73.2678 34.8334 73.518C34.5794 72.7209 34.1246 72.0026 33.5127 71.4322C32.9008 70.8617 32.1524 70.4583 31.3394 70.2608C30.5265 70.0632 29.6765 70.0782 28.871 70.3042C28.0655 70.5303 27.3318 70.9598 26.7403 71.5514L23.6153 74.6764C23.1624 75.1288 22.8033 75.6662 22.5586 76.2577C22.3139 76.8492 22.1884 77.4832 22.1893 78.1234L3.62805 78.1059L3.625 81.2309L13.0015 81.2397V92.1875C13.0029 93.4303 13.4973 94.6217 14.376 95.5005C15.2548 96.3793 16.4463 96.8736 17.689 96.875H33.314V93.75H17.689C17.2748 93.7495 16.8776 93.5848 16.5847 93.2918C16.2918 92.9989 16.127 92.6018 16.1265 92.1875V81.2427L23.3204 81.2494C23.4133 81.3606 23.511 81.4692 23.6154 81.5736C24.4834 82.4461 25.6511 82.9553 26.8812 82.9976C26.9262 84.2265 27.4345 85.3928 28.304 86.2623C29.1735 87.1318 30.3398 87.6401 31.5687 87.6851C31.5979 88.447 31.8052 89.1915 32.1741 89.8587C32.5429 90.526 33.0631 91.0975 33.6927 91.5274C34.3224 91.9574 35.044 92.2338 35.7998 92.3344C36.5556 92.435 37.3244 92.3572 38.0446 92.107C38.2581 92.7759 38.6134 93.3909 39.0864 93.9099C39.5593 94.4289 40.1388 94.8396 40.7851 95.1141C41.4314 95.3885 42.1293 95.5202 42.8312 95.5001C43.5331 95.48 44.2223 95.3086 44.8519 94.9976L45.4903 95.6361C46.0501 96.1965 46.7379 96.612 47.4944 96.8468C48.2509 97.0815 49.0531 97.1284 49.8318 96.9833C50.6104 96.8382 51.342 96.5056 51.9632 96.0142C52.5844 95.5228 53.0764 94.8874 53.3968 94.1631C53.9954 94.7318 54.7287 95.139 55.5279 95.3465C56.3271 95.5541 57.1659 95.5551 57.9656 95.3496C58.7653 95.144 59.4996 94.7386 60.0996 94.1714C60.6997 93.6042 61.1457 92.8939 61.3959 92.107C62.011 92.3215 62.6629 92.4105 63.3129 92.3688C63.963 92.3271 64.5982 92.1556 65.1808 91.8643C65.7635 91.5729 66.2818 91.1678 66.7052 90.6727C67.1286 90.1777 67.4485 89.6028 67.6459 88.982C68.5083 89.2824 69.4378 89.3346 70.3284 89.1327C71.219 88.9308 72.0351 88.4829 72.6837 87.84C73.3323 87.1971 73.7874 86.385 73.9971 85.4962C74.2068 84.6074 74.1628 83.6775 73.87 82.8125H76.7245C78.2746 82.8141 79.7899 82.353 81.0763 81.4882L83.3943 79.9334C83.6517 79.7604 83.9549 79.6681 84.265 79.6684H84.8765V92.1875C84.8761 92.6018 84.7113 92.9989 84.4184 93.2918C84.1254 93.5848 83.7283 93.7495 83.314 93.75H67.689V96.875H83.314C84.5568 96.8736 85.7483 96.3793 86.627 95.5005C87.5058 94.6217 88.0001 93.4303 88.0015 92.1875V79.6684H97.3765V76.5434H84.265C83.335 76.5425 82.4258 76.8192 81.6539 77.3379L79.3355 78.893C78.5637 79.4118 77.6545 79.6885 76.7245 79.6875H71.4613L63.4142 71.6404C66.121 71.7183 68.7672 70.8305 70.8795 69.136L71.79 68.4076L69.8381 65.9674L68.9275 66.6958C67.3308 67.9756 65.3178 68.6208 63.2747 68.5077C61.2315 68.3945 59.3021 67.531 57.8565 66.0827L56.8475 65.0737L49.4638 71.2266C48.8853 71.7084 48.1393 71.9407 47.3896 71.8724C46.6399 71.8041 45.9481 71.4409 45.4662 70.8626C44.9843 70.2843 44.7518 69.5383 44.8199 68.7886C44.888 68.0389 45.2511 67.347 45.8293 66.865ZM43.1962 53.125C42.6924 53.1248 42.1919 53.2061 41.714 53.3656L28.6141 57.732C28.4551 57.7852 28.2884 57.8122 28.1207 57.8121H28.1194L16.1265 57.803V7.8125C16.127 7.39824 16.2918 7.00109 16.5847 6.70817C16.8776 6.41525 17.2748 6.25047 17.689 6.25H83.314C83.7283 6.25047 84.1254 6.41525 84.4184 6.70817C84.7113 7.00109 84.8761 7.39824 84.8765 7.8125V57.8125H77.6145C77.4324 57.8126 77.2517 57.7807 77.0806 57.7184L66.5309 53.8821C64.9016 53.2912 63.1696 53.0359 61.439 53.1315V53.125H43.1962ZM27.064 79.8771C26.7175 79.8771 26.3788 79.7743 26.0907 79.5818C25.8025 79.3892 25.578 79.1156 25.4454 78.7954C25.3128 78.4753 25.2781 78.123 25.3457 77.7832C25.4133 77.4433 25.5802 77.1311 25.8252 76.8861L28.9502 73.7611C29.2789 73.4329 29.7244 73.2486 30.1888 73.2488C30.6533 73.249 31.0987 73.4336 31.4271 73.762C31.7555 74.0905 31.9401 74.5359 31.9402 75.0003C31.9403 75.4648 31.7561 75.9103 31.4279 76.2389L28.3029 79.3639C28.1406 79.5271 27.9475 79.6565 27.7349 79.7446C27.5222 79.8327 27.2942 79.8777 27.064 79.8771ZM31.7515 84.5646C31.405 84.5646 31.0663 84.4618 30.7782 84.2693C30.49 84.0767 30.2655 83.8031 30.1329 83.4829C30.0003 83.1628 29.9656 82.8105 30.0332 82.4707C30.1008 82.1308 30.2677 81.8186 30.5127 81.5736L33.6377 78.4486L35.2002 76.8861C35.5289 76.5579 35.9744 76.3736 36.4388 76.3738C36.9033 76.374 37.3487 76.5586 37.6771 76.887C38.0055 77.2155 38.1901 77.6609 38.1902 78.1253C38.1903 78.5898 38.0061 79.0353 37.6779 79.3639L32.9904 84.0514C32.8281 84.2146 32.635 84.344 32.4224 84.4321C32.2097 84.5202 31.9817 84.5652 31.7515 84.5646ZM37.6779 88.7389C37.3492 89.0671 36.9037 89.2513 36.4392 89.2512C35.9748 89.251 35.5294 89.0664 35.201 88.738C34.8726 88.4095 34.688 87.9641 34.6879 87.4997C34.6877 87.0352 34.872 86.5897 35.2002 86.2611L39.8877 81.5736C40.2164 81.2454 40.6619 81.0612 41.1263 81.0613C41.5908 81.0615 42.0362 81.2461 42.3646 81.5745C42.693 81.903 42.8776 82.3484 42.8777 82.8128C42.8778 83.2773 42.6936 83.7228 42.3654 84.0514L39.2404 87.1764L37.6779 88.7389ZM43.9279 91.8639C43.5992 92.1921 43.1537 92.3763 42.6892 92.3762C42.2248 92.376 41.7794 92.1914 41.451 91.863C41.1226 91.5345 40.938 91.0891 40.9379 90.6247C40.9377 90.1602 41.122 89.7147 41.4502 89.3861L44.5752 86.2611C44.9039 85.9329 45.3494 85.7487 45.8138 85.7488C46.2783 85.749 46.7237 85.9336 47.0521 86.262C47.3805 86.5905 47.5651 87.0359 47.5652 87.5003C47.5653 87.9648 47.3811 88.4103 47.0529 88.7389L43.9279 91.8639ZM50.1779 93.4264C50.0152 93.5891 49.822 93.7182 49.6095 93.8062C49.3969 93.8943 49.1691 93.9396 48.939 93.9396C48.709 93.9396 48.4811 93.8943 48.2686 93.8062C48.056 93.7182 47.8629 93.5891 47.7002 93.4264L47.2425 92.9688L49.2627 90.9486C49.4155 90.7952 49.5579 90.6319 49.689 90.4597L50.1779 90.9486C50.506 91.2774 50.6903 91.723 50.6903 92.1875C50.6903 92.652 50.506 93.0976 50.1779 93.4264Z" fill="#39B4EF"/>
<path d="M20.8125 40.625H39.5625V43.75H20.8125V40.625Z" fill="#39B4EF"/>
<path d="M25.5 46.875H33.3125V50H25.5V46.875Z" fill="#39B4EF"/>
<path d="M61.4375 40.625H80.1875V43.75H61.4375V40.625Z" fill="#39B4EF"/>
<path d="M66.125 46.875H73.9375V50H66.125V46.875Z" fill="#39B4EF"/>
<path d="M39.5625 10.9375H61.4375V14.0625H39.5625V10.9375Z" fill="#39B4EF"/>
<path d="M20.8125 18.75H80.1875V21.875H20.8125V18.75Z" fill="#39B4EF"/>
<path d="M20.8125 25H80.1875V28.125H20.8125V25Z" fill="#39B4EF"/>
<path d="M20.8125 31.25H53.625V34.375H20.8125V31.25Z" fill="#39B4EF"/>
</svg>
