<svg width="135" height="100" viewBox="0 0 135 100" fill="none" xmlns="http://www.w3.org/2000/svg">
<g clip-path="url(#clip0_161_19483)">
<path d="M58.0582 52.6344H49.5225C48.3634 52.6344 47.415 53.5828 47.415 54.742C47.415 55.1635 47.5203 55.585 47.8365 56.0065C48.1526 56.5334 48.7849 56.8496 49.5225 56.8496H58.0582C59.2174 56.8496 60.1658 55.9011 60.1658 54.742C60.1658 53.5828 59.2174 52.6344 58.0582 52.6344ZM71.652 52.6344H66.4885C65.3293 52.6344 64.3809 53.5828 64.3809 54.742C64.3809 55.9011 65.3293 56.8496 66.4885 56.8496H70.0713C70.4929 55.7958 71.0198 54.6366 71.652 52.6344ZM55.9506 74.0263H49.5225C48.4687 74.0263 47.6257 74.7639 47.415 75.7123V76.1338C47.415 76.8715 47.8365 77.5037 48.3634 77.9253C50.8924 76.8715 51.9462 76.45 55.9506 74.7639V74.0263ZM59.4281 41.8858V31.1372H69.4391C69.0176 30.0834 68.4907 28.8189 67.6476 26.9221H63.6432V26.1844L62.1679 26.2898C61.1142 25.236 60.2711 24.393 59.4281 23.5499V23.7607V26.9221H57.4259C56.2668 26.9221 55.3183 27.8705 55.3183 29.0296V43.9934C55.3183 45.0472 56.056 45.8902 57.1098 46.1009H57.4259H67.9638V41.8858H59.4281ZM37.2986 14.0659C36.6664 14.0659 35.9287 14.0659 35.1911 14.0659C34.5588 14.0659 33.8211 14.0659 32.9781 13.9605L29.5006 10.1669C24.2317 12.3798 24.1263 12.3798 18.8574 14.5928L19.0681 19.7563C16.5391 22.2854 15.1691 23.6553 12.64 26.1844L7.4765 25.9736C5.26355 31.2426 5.26355 31.348 3.0506 36.6169L6.84423 40.0944V49.1569L2.83984 52.7398C5.05279 58.0087 5.05279 58.1141 7.26574 63.383L12.4293 63.1723C14.9584 65.7014 16.3283 67.0713 18.8574 69.6004L18.6466 74.7639C23.9155 76.9769 24.0209 76.9769 29.2899 79.1898L32.7673 75.3962H39.4062V14.0659C38.6685 14.0659 37.9309 14.0659 37.2986 14.0659ZM32.7673 72.8671C32.1351 72.8671 31.6082 73.1832 31.1867 73.6047L28.763 76.3446L20.8596 73.0779L21.0703 69.495C21.0703 68.9681 20.8596 68.3358 20.4381 67.9143L14.01 61.4862C13.5885 61.0647 13.0616 60.8539 12.4293 60.8539L8.74104 61.0647L5.47431 53.1613L8.21415 50.7376C8.74104 50.3161 8.9518 49.7892 8.9518 49.1569V40.0944C8.9518 39.4621 8.63566 38.9352 8.21415 38.5137L5.47431 36.09L8.74104 28.1866L12.4293 28.3974C12.9562 28.3974 13.5885 28.1866 14.01 27.7651L20.4381 21.337C20.8596 20.9155 21.0703 20.3886 21.0703 19.7563L20.8596 16.0681L28.763 12.8013L31.1867 15.5412C31.6082 16.0681 32.1351 16.2788 32.7673 16.2788H35.1911V24.9199C25.2855 25.9736 17.4875 34.4039 17.4875 44.6256C17.4875 54.8474 25.2855 63.2776 35.1911 64.3314V72.8671H32.7673ZM35.1911 60.0109C27.6038 58.9571 21.7026 52.4237 21.7026 44.5203C21.7026 36.7223 27.4984 30.0834 35.1911 29.0296V60.0109ZM49.5225 63.383C48.3634 63.383 47.415 64.3314 47.415 65.4906C47.415 66.6498 48.3634 67.5982 49.5225 67.5982H57.7421C59.112 66.2282 60.2711 65.0691 61.9572 63.383H49.5225Z" fill="#39B4EF"/>
<path d="M68.5952 52.6344L69.1221 53.0559L67.5414 56.8496H71.862L73.3372 53.3721C73.4426 53.1613 73.4426 52.8452 73.4426 52.6344H68.5952ZM65.6446 41.8858V46.1009H69.649V41.8858H65.6446ZM57.8466 74.0263H51.4185L47.4141 75.7123V76.1338C47.4141 76.8715 47.8357 77.5037 48.3625 77.9253C48.6787 78.136 49.1002 78.2414 49.5217 78.2414H52.0508L56.5821 76.3446C57.3197 76.0285 57.8466 75.1854 57.8466 74.3424V74.0263ZM69.649 26.9221H63.6424V24.7091C63.6424 24.4984 63.6424 24.2876 63.6424 24.1822H62.694L59.9542 21.4424C59.7434 21.9693 59.638 22.4962 59.5327 23.023C59.5327 23.2338 59.4273 23.3392 59.4273 23.5499V23.7607V26.6059L59.7434 26.9221L60.5864 27.7651C61.008 28.1866 61.5349 28.3974 62.1671 28.3974L65.8554 28.1866L67.1199 31.1372H71.4404L69.649 26.9221ZM33.6096 12.1691L30.7643 9.00771C30.2374 8.37544 29.289 8.16468 28.446 8.48081L17.8028 12.9067C17.0651 13.2228 16.5382 14.0659 16.5382 14.9089L16.749 19.124L11.6908 24.1822L7.47568 23.9715C6.63265 23.8661 5.78962 24.393 5.47348 25.236L1.04759 35.8792C0.731451 36.6169 0.942208 37.5653 1.57448 38.1976L4.73583 41.0428V48.2085L1.57448 51.0537C0.942208 51.5806 0.731451 52.529 1.04759 53.3721L5.57886 64.1207C5.895 64.8583 6.63265 65.3852 7.58105 65.3852L11.7962 65.1745L16.8544 70.2326L16.6436 74.4478C16.5382 75.2908 17.0651 76.1338 17.9081 76.45L28.5514 80.7705C29.289 81.0866 30.2374 80.8759 30.8697 80.2436L33.7149 77.0822H39.4054V72.8671H32.7665C32.1342 72.8671 31.6074 73.1832 31.1858 73.6047L28.7621 76.3446L20.8587 73.0779L21.0695 69.495C21.0695 68.9681 20.8587 68.3358 20.4372 67.9143L14.0091 61.4862C13.5876 61.0647 13.0607 60.8539 12.4285 60.8539L8.74022 61.0647L5.47348 53.1613L8.21333 50.7376C8.74022 50.3161 8.95098 49.7892 8.95098 49.1569V40.0944C8.95098 39.4621 8.63484 38.9352 8.21333 38.5137L5.47348 36.09L8.74022 28.1866L12.4285 28.3974C12.9554 28.3974 13.5876 28.1866 14.0091 27.7651L20.4372 21.337C20.8587 20.9155 21.0695 20.3886 21.0695 19.7563L20.8587 16.0681L28.7621 12.8013L31.1858 15.5412C31.6074 16.0681 32.1342 16.2788 32.7665 16.2788H39.4054V12.1691H33.6096ZM58.5843 63.383L54.3691 67.5982H60.1649L62.694 65.0691L66.9092 65.2798C67.7522 65.3852 68.5952 64.8583 68.9114 64.0153L69.1221 63.383H58.5843Z" fill="#39B4EF"/>
<path d="M37.3012 26.922C36.5636 26.922 35.9313 26.922 35.1937 27.0274C26.4473 28.0812 19.5977 35.563 19.5977 44.6256C19.5977 53.6881 26.4473 61.17 35.1937 62.2238C35.9313 62.3292 36.5636 62.3292 37.3012 62.3292C38.0389 62.3292 38.6712 62.3292 39.4088 62.2238V27.0274C38.6712 26.922 38.0389 26.922 37.3012 26.922ZM21.7052 44.5202C21.7052 36.7222 27.501 30.0834 35.1937 29.0296V59.9055C27.6064 58.9571 21.7052 52.3182 21.7052 44.5202Z" fill="#39B4EF"/>
<path d="M53.1085 52.6344C52.3709 54.2151 51.3171 55.585 50.1579 56.8495H49.631C48.8934 56.8495 48.2611 56.5334 47.945 56.0065C47.7342 55.6904 47.5234 55.2689 47.5234 54.742C47.5234 53.5828 48.4718 52.6344 49.631 52.6344H53.1085Z" fill="#39B4EF"/>
<path d="M55.3192 36.4061V43.9933C55.3192 45.0471 56.0568 45.8902 57.1106 46.1009C57.1106 45.574 57.1106 45.1525 57.1106 44.6256C57.1106 41.675 56.4783 38.8298 55.3192 36.4061ZM37.2994 24.8145C36.5618 24.8145 35.9295 24.8145 35.1919 24.9198C25.2863 25.9736 17.4883 34.4039 17.4883 44.6256C17.4883 54.8473 25.2863 63.2776 35.1919 64.3314C35.9295 64.4368 36.5618 64.4368 37.2994 64.4368C38.0371 64.4368 38.6694 64.4368 39.407 64.3314V60.0109C38.6694 60.1163 38.0371 60.1163 37.2994 60.1163C36.5618 60.1163 35.9295 60.1163 35.1919 60.0109C27.6046 58.9571 21.7034 52.4236 21.7034 44.5202C21.7034 36.7222 27.4992 30.0834 35.1919 29.0296C35.9295 28.9242 36.5618 28.9242 37.2994 28.9242C38.0371 28.9242 38.7747 29.0296 39.407 29.0296V24.9198C38.6694 24.8145 38.0371 24.8145 37.2994 24.8145ZM50.5771 52.6344C49.8395 53.8989 48.8911 54.9527 47.8373 56.0065C48.1534 56.5334 48.7857 56.8495 49.5233 56.8495H52.8955C53.9492 55.585 54.7923 54.1097 55.4245 52.6344H50.5771Z" fill="#39B4EF"/>
<path d="M58.0603 52.6344H49.5247C48.3655 52.6344 47.4171 53.5828 47.4171 54.742C47.4171 55.1635 47.5225 55.585 47.8386 56.0065C48.1548 56.5334 48.787 56.8496 49.5247 56.8496H58.0603C59.2195 56.8496 60.1679 55.9012 60.1679 54.742C60.1679 53.5828 59.2195 52.6344 58.0603 52.6344ZM88.4094 74.0263H70.495C69.3358 74.0263 68.3874 74.9747 68.3874 76.1339C68.3874 77.293 69.3358 78.2414 70.495 78.2414H88.4094C89.5685 78.2414 90.5169 77.293 90.5169 76.1339C90.5169 74.9747 89.5685 74.0263 88.4094 74.0263ZM88.4094 63.383H82.9297C81.7705 63.383 80.8221 64.3315 80.8221 65.4906C80.8221 66.6498 81.7705 67.5982 82.9297 67.5982H88.4094C89.5685 67.5982 90.5169 66.6498 90.5169 65.4906C90.5169 64.3315 89.5685 63.383 88.4094 63.383ZM88.4094 63.383H82.9297C81.7705 63.383 80.8221 64.3315 80.8221 65.4906C80.8221 66.6498 81.7705 67.5982 82.9297 67.5982H88.4094C89.5685 67.5982 90.5169 66.6498 90.5169 65.4906C90.5169 64.3315 89.5685 63.383 88.4094 63.383ZM88.4094 74.0263H70.495C69.3358 74.0263 68.3874 74.9747 68.3874 76.1339C68.3874 77.293 69.3358 78.2414 70.495 78.2414H88.4094C89.5685 78.2414 90.5169 77.293 90.5169 76.1339C90.5169 74.9747 89.5685 74.0263 88.4094 74.0263ZM88.4094 52.6344H66.4906C65.3315 52.6344 64.3831 53.5828 64.3831 54.742C64.3831 55.9012 65.3315 56.8496 66.4906 56.8496H88.4094C89.5685 56.8496 90.5169 55.9012 90.5169 54.742C90.5169 53.5828 89.5685 52.6344 88.4094 52.6344ZM61.9594 74.0263H57.8496V74.3424C57.8496 75.1854 57.3227 76.0285 56.585 76.3446L52.0538 78.2414H62.0647C63.2239 78.2414 64.0669 77.293 64.0669 76.1339C64.0669 74.9747 63.1185 74.0263 61.9594 74.0263ZM74.4994 63.383H49.5247C48.3655 63.383 47.4171 64.3315 47.4171 65.4906C47.4171 66.6498 48.3655 67.5982 49.5247 67.5982H74.4994C75.6586 67.5982 76.607 66.6498 76.607 65.4906C76.607 64.3315 75.6586 63.383 74.4994 63.383ZM80.6113 26.9221H78.6092V24.7091C78.6092 19.4402 74.2886 15.1197 69.0197 15.1197C64.8046 15.1197 61.3271 17.7541 59.9572 21.4424L62.697 24.1822H63.6454C63.9615 21.5478 66.2799 19.4402 69.0197 19.4402C71.9703 19.4402 74.394 21.8639 74.394 24.8145V26.9221H67.6498C68.4928 28.8189 68.9143 30.0834 69.4412 31.1372H78.3984V41.8858H59.4303V31.1372H67.1229L65.8584 28.1866L62.1701 28.3974C61.5378 28.3974 61.0109 28.1866 60.5894 27.7651L59.7464 26.9221L59.4303 26.6059V26.9221H57.4281C56.2689 26.9221 55.3205 27.8705 55.3205 29.0297V43.9934C55.3205 45.0472 56.0582 45.8902 57.1119 46.101H57.4281H80.6113C81.7705 46.101 82.7189 45.1526 82.7189 43.9934V29.0297C82.7189 27.8705 81.7705 26.9221 80.6113 26.9221ZM58.0603 52.6344H49.5247C48.3655 52.6344 47.4171 53.5828 47.4171 54.742C47.4171 55.1635 47.5225 55.585 47.8386 56.0065C48.1548 56.5334 48.787 56.8496 49.5247 56.8496H58.0603C59.2195 56.8496 60.1679 55.9012 60.1679 54.742C60.1679 53.5828 59.2195 52.6344 58.0603 52.6344ZM49.5247 74.0263C48.4709 74.0263 47.6279 74.7639 47.4171 75.7123L51.4215 74.0263H49.5247ZM37.3008 28.9243V60.1163C38.0384 60.1163 38.6707 60.1163 39.4084 60.0109V29.0297C38.6707 29.0297 38.0384 28.9243 37.3008 28.9243ZM58.0603 52.6344H49.5247C48.3655 52.6344 47.4171 53.5828 47.4171 54.742C47.4171 55.1635 47.5225 55.585 47.8386 56.0065C48.1548 56.5334 48.787 56.8496 49.5247 56.8496H58.0603C59.2195 56.8496 60.1679 55.9012 60.1679 54.742C60.1679 53.5828 59.2195 52.6344 58.0603 52.6344ZM88.4094 52.6344H66.4906C65.3315 52.6344 64.3831 53.5828 64.3831 54.742C64.3831 55.9012 65.3315 56.8496 66.4906 56.8496H88.4094C89.5685 56.8496 90.5169 55.9012 90.5169 54.742C90.5169 53.5828 89.5685 52.6344 88.4094 52.6344ZM88.4094 74.0263H70.495C69.3358 74.0263 68.3874 74.9747 68.3874 76.1339C68.3874 77.293 69.3358 78.2414 70.495 78.2414H88.4094C89.5685 78.2414 90.5169 77.293 90.5169 76.1339C90.5169 74.9747 89.5685 74.0263 88.4094 74.0263ZM88.4094 63.383H82.9297C81.7705 63.383 80.8221 64.3315 80.8221 65.4906C80.8221 66.6498 81.7705 67.5982 82.9297 67.5982H88.4094C89.5685 67.5982 90.5169 66.6498 90.5169 65.4906C90.5169 64.3315 89.5685 63.383 88.4094 63.383ZM88.4094 63.383H82.9297C81.7705 63.383 80.8221 64.3315 80.8221 65.4906C80.8221 66.6498 81.7705 67.5982 82.9297 67.5982H88.4094C89.5685 67.5982 90.5169 66.6498 90.5169 65.4906C90.5169 64.3315 89.5685 63.383 88.4094 63.383ZM88.4094 74.0263H70.495C69.3358 74.0263 68.3874 74.9747 68.3874 76.1339C68.3874 77.293 69.3358 78.2414 70.495 78.2414H88.4094C89.5685 78.2414 90.5169 77.293 90.5169 76.1339C90.5169 74.9747 89.5685 74.0263 88.4094 74.0263ZM88.4094 52.6344H66.4906C65.3315 52.6344 64.3831 53.5828 64.3831 54.742C64.3831 55.9012 65.3315 56.8496 66.4906 56.8496H88.4094C89.5685 56.8496 90.5169 55.9012 90.5169 54.742C90.5169 53.5828 89.5685 52.6344 88.4094 52.6344ZM61.9594 74.0263H57.8496V74.3424C57.8496 75.1854 57.3227 76.0285 56.585 76.3446L52.0538 78.2414H62.0647C63.2239 78.2414 64.0669 77.293 64.0669 76.1339C64.0669 74.9747 63.1185 74.0263 61.9594 74.0263ZM74.4994 63.383H49.5247C48.3655 63.383 47.4171 64.3315 47.4171 65.4906C47.4171 66.6498 48.3655 67.5982 49.5247 67.5982H74.4994C75.6586 67.5982 76.607 66.6498 76.607 65.4906C76.607 64.3315 75.6586 63.383 74.4994 63.383ZM80.6113 26.9221H78.6092V24.7091C78.6092 19.4402 74.2886 15.1197 69.0197 15.1197C64.8046 15.1197 61.3271 17.7541 59.9572 21.4424L62.697 24.1822H63.6454C63.9615 21.5478 66.2799 19.4402 69.0197 19.4402C71.9703 19.4402 74.394 21.8639 74.394 24.8145V26.9221H67.6498C68.4928 28.8189 68.9143 30.0834 69.4412 31.1372H78.3984V41.8858H59.4303V31.1372H67.1229L65.8584 28.1866L62.1701 28.3974C61.5378 28.3974 61.0109 28.1866 60.5894 27.7651L59.7464 26.9221L59.4303 26.6059V26.9221H57.4281C56.2689 26.9221 55.3205 27.8705 55.3205 29.0297V43.9934C55.3205 45.0472 56.0582 45.8902 57.1119 46.101H57.4281H80.6113C81.7705 46.101 82.7189 45.1526 82.7189 43.9934V29.0297C82.7189 27.8705 81.7705 26.9221 80.6113 26.9221ZM58.0603 52.6344H49.5247C48.3655 52.6344 47.4171 53.5828 47.4171 54.742C47.4171 55.1635 47.5225 55.585 47.8386 56.0065C48.1548 56.5334 48.787 56.8496 49.5247 56.8496H58.0603C59.2195 56.8496 60.1679 55.9012 60.1679 54.742C60.1679 53.5828 59.2195 52.6344 58.0603 52.6344ZM49.5247 74.0263C48.4709 74.0263 47.6279 74.7639 47.4171 75.7123L51.4215 74.0263H49.5247ZM37.3008 28.9243V60.1163C38.0384 60.1163 38.6707 60.1163 39.4084 60.0109V29.0297C38.6707 29.0297 38.0384 28.9243 37.3008 28.9243ZM58.0603 52.6344H49.5247C48.3655 52.6344 47.4171 53.5828 47.4171 54.742C47.4171 55.1635 47.5225 55.585 47.8386 56.0065C48.1548 56.5334 48.787 56.8496 49.5247 56.8496H58.0603C59.2195 56.8496 60.1679 55.9012 60.1679 54.742C60.1679 53.5828 59.2195 52.6344 58.0603 52.6344ZM88.4094 52.6344H66.4906C65.3315 52.6344 64.3831 53.5828 64.3831 54.742C64.3831 55.9012 65.3315 56.8496 66.4906 56.8496H88.4094C89.5685 56.8496 90.5169 55.9012 90.5169 54.742C90.5169 53.5828 89.5685 52.6344 88.4094 52.6344ZM88.4094 74.0263H70.495C69.3358 74.0263 68.3874 74.9747 68.3874 76.1339C68.3874 77.293 69.3358 78.2414 70.495 78.2414H88.4094C89.5685 78.2414 90.5169 77.293 90.5169 76.1339C90.5169 74.9747 89.5685 74.0263 88.4094 74.0263ZM88.4094 63.383H82.9297C81.7705 63.383 80.8221 64.3315 80.8221 65.4906C80.8221 66.6498 81.7705 67.5982 82.9297 67.5982H88.4094C89.5685 67.5982 90.5169 66.6498 90.5169 65.4906C90.5169 64.3315 89.5685 63.383 88.4094 63.383ZM88.4094 63.383H82.9297C81.7705 63.383 80.8221 64.3315 80.8221 65.4906C80.8221 66.6498 81.7705 67.5982 82.9297 67.5982H88.4094C89.5685 67.5982 90.5169 66.6498 90.5169 65.4906C90.5169 64.3315 89.5685 63.383 88.4094 63.383ZM88.4094 74.0263H70.495C69.3358 74.0263 68.3874 74.9747 68.3874 76.1339C68.3874 77.293 69.3358 78.2414 70.495 78.2414H88.4094C89.5685 78.2414 90.5169 77.293 90.5169 76.1339C90.5169 74.9747 89.5685 74.0263 88.4094 74.0263ZM88.4094 52.6344H66.4906C65.3315 52.6344 64.3831 53.5828 64.3831 54.742C64.3831 55.9012 65.3315 56.8496 66.4906 56.8496H88.4094C89.5685 56.8496 90.5169 55.9012 90.5169 54.742C90.5169 53.5828 89.5685 52.6344 88.4094 52.6344ZM61.9594 74.0263H57.8496V74.3424C57.8496 75.1854 57.3227 76.0285 56.585 76.3446L52.0538 78.2414H62.0647C63.2239 78.2414 64.0669 77.293 64.0669 76.1339C64.0669 74.9747 63.1185 74.0263 61.9594 74.0263ZM74.4994 63.383H49.5247C48.3655 63.383 47.4171 64.3315 47.4171 65.4906C47.4171 66.6498 48.3655 67.5982 49.5247 67.5982H74.4994C75.6586 67.5982 76.607 66.6498 76.607 65.4906C76.607 64.3315 75.6586 63.383 74.4994 63.383ZM80.6113 26.9221H78.6092V24.7091C78.6092 19.4402 74.2886 15.1197 69.0197 15.1197C64.8046 15.1197 61.3271 17.7541 59.9572 21.4424L62.697 24.1822H63.6454C63.9615 21.5478 66.2799 19.4402 69.0197 19.4402C71.9703 19.4402 74.394 21.8639 74.394 24.8145V26.9221H67.6498C68.4928 28.8189 68.9143 30.0834 69.4412 31.1372H78.3984V41.8858H59.4303V31.1372H67.1229L65.8584 28.1866L62.1701 28.3974C61.5378 28.3974 61.0109 28.1866 60.5894 27.7651L59.7464 26.9221L59.4303 26.6059V26.9221H57.4281C56.2689 26.9221 55.3205 27.8705 55.3205 29.0297V43.9934C55.3205 45.0472 56.0582 45.8902 57.1119 46.101H57.4281H80.6113C81.7705 46.101 82.7189 45.1526 82.7189 43.9934V29.0297C82.7189 27.8705 81.7705 26.9221 80.6113 26.9221ZM58.0603 52.6344H49.5247C48.3655 52.6344 47.4171 53.5828 47.4171 54.742C47.4171 55.1635 47.5225 55.585 47.8386 56.0065C48.1548 56.5334 48.787 56.8496 49.5247 56.8496H58.0603C59.2195 56.8496 60.1679 55.9012 60.1679 54.742C60.1679 53.5828 59.2195 52.6344 58.0603 52.6344ZM49.5247 74.0263C48.4709 74.0263 47.6279 74.7639 47.4171 75.7123L51.4215 74.0263H49.5247ZM37.3008 28.9243V60.1163C38.0384 60.1163 38.6707 60.1163 39.4084 60.0109V29.0297C38.6707 29.0297 38.0384 28.9243 37.3008 28.9243ZM58.0603 52.6344H49.5247C48.3655 52.6344 47.4171 53.5828 47.4171 54.742C47.4171 55.1635 47.5225 55.585 47.8386 56.0065C48.1548 56.5334 48.787 56.8496 49.5247 56.8496H58.0603C59.2195 56.8496 60.1679 55.9012 60.1679 54.742C60.1679 53.5828 59.2195 52.6344 58.0603 52.6344ZM74.4994 63.383H49.5247C48.3655 63.383 47.4171 64.3315 47.4171 65.4906C47.4171 66.6498 48.3655 67.5982 49.5247 67.5982H74.4994C75.6586 67.5982 76.607 66.6498 76.607 65.4906C76.607 64.3315 75.6586 63.383 74.4994 63.383ZM61.9594 74.0263H49.5247C48.4709 74.0263 47.6279 74.7639 47.4171 75.7123V76.1339C47.4171 76.8715 47.8386 77.5038 48.3655 77.9253C48.6817 78.136 49.1032 78.2414 49.5247 78.2414H62.0647C63.2239 78.2414 64.0669 77.293 64.0669 76.1339C64.0669 74.9747 63.1185 74.0263 61.9594 74.0263ZM88.4094 52.6344H66.4906C65.3315 52.6344 64.3831 53.5828 64.3831 54.742C64.3831 55.9012 65.3315 56.8496 66.4906 56.8496H88.4094C89.5685 56.8496 90.5169 55.9012 90.5169 54.742C90.5169 53.5828 89.5685 52.6344 88.4094 52.6344ZM88.4094 74.0263H70.495C69.3358 74.0263 68.3874 74.9747 68.3874 76.1339C68.3874 77.293 69.3358 78.2414 70.495 78.2414H88.4094C89.5685 78.2414 90.5169 77.293 90.5169 76.1339C90.5169 74.9747 89.5685 74.0263 88.4094 74.0263ZM88.4094 63.383H82.9297C81.7705 63.383 80.8221 64.3315 80.8221 65.4906C80.8221 66.6498 81.7705 67.5982 82.9297 67.5982H88.4094C89.5685 67.5982 90.5169 66.6498 90.5169 65.4906C90.5169 64.3315 89.5685 63.383 88.4094 63.383ZM88.4094 63.383H82.9297C81.7705 63.383 80.8221 64.3315 80.8221 65.4906C80.8221 66.6498 81.7705 67.5982 82.9297 67.5982H88.4094C89.5685 67.5982 90.5169 66.6498 90.5169 65.4906C90.5169 64.3315 89.5685 63.383 88.4094 63.383ZM88.4094 74.0263H70.495C69.3358 74.0263 68.3874 74.9747 68.3874 76.1339C68.3874 77.293 69.3358 78.2414 70.495 78.2414H88.4094C89.5685 78.2414 90.5169 77.293 90.5169 76.1339C90.5169 74.9747 89.5685 74.0263 88.4094 74.0263ZM88.4094 52.6344H66.4906C65.3315 52.6344 64.3831 53.5828 64.3831 54.742C64.3831 55.9012 65.3315 56.8496 66.4906 56.8496H88.4094C89.5685 56.8496 90.5169 55.9012 90.5169 54.742C90.5169 53.5828 89.5685 52.6344 88.4094 52.6344ZM61.9594 74.0263H49.5247C48.4709 74.0263 47.6279 74.7639 47.4171 75.7123V76.1339C47.4171 76.8715 47.8386 77.5038 48.3655 77.9253C48.6817 78.136 49.1032 78.2414 49.5247 78.2414H62.0647C63.2239 78.2414 64.0669 77.293 64.0669 76.1339C64.0669 74.9747 63.1185 74.0263 61.9594 74.0263ZM74.4994 63.383H49.5247C48.3655 63.383 47.4171 64.3315 47.4171 65.4906C47.4171 66.6498 48.3655 67.5982 49.5247 67.5982H74.4994C75.6586 67.5982 76.607 66.6498 76.607 65.4906C76.607 64.3315 75.6586 63.383 74.4994 63.383ZM80.6113 26.9221H78.6092V24.7091C78.6092 19.4402 74.2886 15.1197 69.0197 15.1197C64.8046 15.1197 61.3271 17.7541 59.9572 21.4424L62.697 24.1822H63.6454C63.9615 21.5478 66.2799 19.4402 69.0197 19.4402C71.9703 19.4402 74.394 21.8639 74.394 24.8145V26.9221H67.6498C68.4928 28.8189 68.9143 30.0834 69.4412 31.1372H78.3984V41.8858H59.4303V31.1372H67.1229L65.8584 28.1866L62.1701 28.3974C61.5378 28.3974 61.0109 28.1866 60.5894 27.7651L59.7464 26.9221L59.4303 26.6059V26.9221H57.4281C56.2689 26.9221 55.3205 27.8705 55.3205 29.0297V43.9934C55.3205 45.0472 56.0582 45.8902 57.1119 46.101H57.4281H80.6113C81.7705 46.101 82.7189 45.1526 82.7189 43.9934V29.0297C82.7189 27.8705 81.7705 26.9221 80.6113 26.9221ZM58.0603 52.6344H49.5247C48.3655 52.6344 47.4171 53.5828 47.4171 54.742C47.4171 55.1635 47.5225 55.585 47.8386 56.0065C48.1548 56.5334 48.787 56.8496 49.5247 56.8496H58.0603C59.2195 56.8496 60.1679 55.9012 60.1679 54.742C60.1679 53.5828 59.2195 52.6344 58.0603 52.6344ZM37.3008 28.9243V60.1163C38.0384 60.1163 38.6707 60.1163 39.4084 60.0109V29.0297C38.6707 29.0297 38.0384 28.9243 37.3008 28.9243ZM58.0603 52.6344H49.5247C48.3655 52.6344 47.4171 53.5828 47.4171 54.742C47.4171 55.1635 47.5225 55.585 47.8386 56.0065C48.1548 56.5334 48.787 56.8496 49.5247 56.8496H58.0603C59.2195 56.8496 60.1679 55.9012 60.1679 54.742C60.1679 53.5828 59.2195 52.6344 58.0603 52.6344ZM74.4994 63.383H49.5247C48.3655 63.383 47.4171 64.3315 47.4171 65.4906C47.4171 66.6498 48.3655 67.5982 49.5247 67.5982H74.4994C75.6586 67.5982 76.607 66.6498 76.607 65.4906C76.607 64.3315 75.6586 63.383 74.4994 63.383ZM61.9594 74.0263H49.5247C48.4709 74.0263 47.6279 74.7639 47.4171 75.7123V76.1339C47.4171 76.8715 47.8386 77.5038 48.3655 77.9253C48.6817 78.136 49.1032 78.2414 49.5247 78.2414H62.0647C63.2239 78.2414 64.0669 77.293 64.0669 76.1339C64.0669 74.9747 63.1185 74.0263 61.9594 74.0263ZM88.4094 52.6344H66.4906C65.3315 52.6344 64.3831 53.5828 64.3831 54.742C64.3831 55.9012 65.3315 56.8496 66.4906 56.8496H88.4094C89.5685 56.8496 90.5169 55.9012 90.5169 54.742C90.5169 53.5828 89.5685 52.6344 88.4094 52.6344ZM88.4094 74.0263H70.495C69.3358 74.0263 68.3874 74.9747 68.3874 76.1339C68.3874 77.293 69.3358 78.2414 70.495 78.2414H88.4094C89.5685 78.2414 90.5169 77.293 90.5169 76.1339C90.5169 74.9747 89.5685 74.0263 88.4094 74.0263ZM88.4094 63.383H82.9297C81.7705 63.383 80.8221 64.3315 80.8221 65.4906C80.8221 66.6498 81.7705 67.5982 82.9297 67.5982H88.4094C89.5685 67.5982 90.5169 66.6498 90.5169 65.4906C90.5169 64.3315 89.5685 63.383 88.4094 63.383ZM88.4094 63.383H82.9297C81.7705 63.383 80.8221 64.3315 80.8221 65.4906C80.8221 66.6498 81.7705 67.5982 82.9297 67.5982H88.4094C89.5685 67.5982 90.5169 66.6498 90.5169 65.4906C90.5169 64.3315 89.5685 63.383 88.4094 63.383ZM88.4094 74.0263H70.495C69.3358 74.0263 68.3874 74.9747 68.3874 76.1339C68.3874 77.293 69.3358 78.2414 70.495 78.2414H88.4094C89.5685 78.2414 90.5169 77.293 90.5169 76.1339C90.5169 74.9747 89.5685 74.0263 88.4094 74.0263ZM88.4094 52.6344H66.4906C65.3315 52.6344 64.3831 53.5828 64.3831 54.742C64.3831 55.9012 65.3315 56.8496 66.4906 56.8496H88.4094C89.5685 56.8496 90.5169 55.9012 90.5169 54.742C90.5169 53.5828 89.5685 52.6344 88.4094 52.6344ZM61.9594 74.0263H49.5247C48.4709 74.0263 47.6279 74.7639 47.4171 75.7123V76.1339C47.4171 76.8715 47.8386 77.5038 48.3655 77.9253C48.6817 78.136 49.1032 78.2414 49.5247 78.2414H62.0647C63.2239 78.2414 64.0669 77.293 64.0669 76.1339C64.0669 74.9747 63.1185 74.0263 61.9594 74.0263ZM74.4994 63.383H49.5247C48.3655 63.383 47.4171 64.3315 47.4171 65.4906C47.4171 66.6498 48.3655 67.5982 49.5247 67.5982H74.4994C75.6586 67.5982 76.607 66.6498 76.607 65.4906C76.607 64.3315 75.6586 63.383 74.4994 63.383ZM80.6113 26.9221H78.6092V24.7091C78.6092 19.4402 74.2886 15.1197 69.0197 15.1197C64.8046 15.1197 61.3271 17.7541 59.9572 21.4424L62.697 24.1822H63.6454C63.9615 21.5478 66.2799 19.4402 69.0197 19.4402C71.9703 19.4402 74.394 21.8639 74.394 24.8145V26.9221H67.6498C68.4928 28.8189 68.9143 30.0834 69.4412 31.1372H78.3984V41.8858H59.4303V31.1372H67.1229L65.8584 28.1866L62.1701 28.3974C61.5378 28.3974 61.0109 28.1866 60.5894 27.7651L59.7464 26.9221L59.4303 26.6059V26.9221H57.4281C56.2689 26.9221 55.3205 27.8705 55.3205 29.0297V43.9934C55.3205 45.0472 56.0582 45.8902 57.1119 46.101H57.4281H80.6113C81.7705 46.101 82.7189 45.1526 82.7189 43.9934V29.0297C82.7189 27.8705 81.7705 26.9221 80.6113 26.9221ZM58.0603 52.6344H49.5247C48.3655 52.6344 47.4171 53.5828 47.4171 54.742C47.4171 55.1635 47.5225 55.585 47.8386 56.0065C48.1548 56.5334 48.787 56.8496 49.5247 56.8496H58.0603C59.2195 56.8496 60.1679 55.9012 60.1679 54.742C60.1679 53.5828 59.2195 52.6344 58.0603 52.6344ZM37.3008 28.9243V60.1163C38.0384 60.1163 38.6707 60.1163 39.4084 60.0109V29.0297C38.6707 29.0297 38.0384 28.9243 37.3008 28.9243ZM58.0603 52.6344H49.5247C48.3655 52.6344 47.4171 53.5828 47.4171 54.742C47.4171 55.1635 47.5225 55.585 47.8386 56.0065C48.1548 56.5334 48.787 56.8496 49.5247 56.8496H58.0603C59.2195 56.8496 60.1679 55.9012 60.1679 54.742C60.1679 53.5828 59.2195 52.6344 58.0603 52.6344ZM74.4994 63.383H49.5247C48.3655 63.383 47.4171 64.3315 47.4171 65.4906C47.4171 66.6498 48.3655 67.5982 49.5247 67.5982H74.4994C75.6586 67.5982 76.607 66.6498 76.607 65.4906C76.607 64.3315 75.6586 63.383 74.4994 63.383ZM61.9594 74.0263H49.5247C48.4709 74.0263 47.6279 74.7639 47.4171 75.7123V76.1339C47.4171 76.8715 47.8386 77.5038 48.3655 77.9253C48.6817 78.136 49.1032 78.2414 49.5247 78.2414H62.0647C63.2239 78.2414 64.0669 77.293 64.0669 76.1339C64.0669 74.9747 63.1185 74.0263 61.9594 74.0263ZM88.4094 52.6344H66.4906C65.3315 52.6344 64.3831 53.5828 64.3831 54.742C64.3831 55.9012 65.3315 56.8496 66.4906 56.8496H88.4094C89.5685 56.8496 90.5169 55.9012 90.5169 54.742C90.5169 53.5828 89.5685 52.6344 88.4094 52.6344ZM88.4094 74.0263H70.495C69.3358 74.0263 68.3874 74.9747 68.3874 76.1339C68.3874 77.293 69.3358 78.2414 70.495 78.2414H88.4094C89.5685 78.2414 90.5169 77.293 90.5169 76.1339C90.5169 74.9747 89.5685 74.0263 88.4094 74.0263ZM88.4094 63.383H82.9297C81.7705 63.383 80.8221 64.3315 80.8221 65.4906C80.8221 66.6498 81.7705 67.5982 82.9297 67.5982H88.4094C89.5685 67.5982 90.5169 66.6498 90.5169 65.4906C90.5169 64.3315 89.5685 63.383 88.4094 63.383ZM88.4094 63.383H82.9297C81.7705 63.383 80.8221 64.3315 80.8221 65.4906C80.8221 66.6498 81.7705 67.5982 82.9297 67.5982H88.4094C89.5685 67.5982 90.5169 66.6498 90.5169 65.4906C90.5169 64.3315 89.5685 63.383 88.4094 63.383ZM88.4094 74.0263H70.495C69.3358 74.0263 68.3874 74.9747 68.3874 76.1339C68.3874 77.293 69.3358 78.2414 70.495 78.2414H88.4094C89.5685 78.2414 90.5169 77.293 90.5169 76.1339C90.5169 74.9747 89.5685 74.0263 88.4094 74.0263ZM88.4094 52.6344H66.4906C65.3315 52.6344 64.3831 53.5828 64.3831 54.742C64.3831 55.9012 65.3315 56.8496 66.4906 56.8496H88.4094C89.5685 56.8496 90.5169 55.9012 90.5169 54.742C90.5169 53.5828 89.5685 52.6344 88.4094 52.6344ZM61.9594 74.0263H49.5247C48.4709 74.0263 47.6279 74.7639 47.4171 75.7123V76.1339C47.4171 76.8715 47.8386 77.5038 48.3655 77.9253C48.6817 78.136 49.1032 78.2414 49.5247 78.2414H62.0647C63.2239 78.2414 64.0669 77.293 64.0669 76.1339C64.0669 74.9747 63.1185 74.0263 61.9594 74.0263ZM74.4994 63.383H49.5247C48.3655 63.383 47.4171 64.3315 47.4171 65.4906C47.4171 66.6498 48.3655 67.5982 49.5247 67.5982H74.4994C75.6586 67.5982 76.607 66.6498 76.607 65.4906C76.607 64.3315 75.6586 63.383 74.4994 63.383ZM80.6113 26.9221H78.6092V24.7091C78.6092 19.4402 74.2886 15.1197 69.0197 15.1197C64.8046 15.1197 61.3271 17.7541 59.9572 21.4424L62.697 24.1822H63.6454C63.9615 21.5478 66.2799 19.4402 69.0197 19.4402C71.9703 19.4402 74.394 21.8639 74.394 24.8145V26.9221H67.6498C68.4928 28.8189 68.9143 30.0834 69.4412 31.1372H78.3984V41.8858H59.4303V31.1372H67.1229L65.8584 28.1866L62.1701 28.3974C61.5378 28.3974 61.0109 28.1866 60.5894 27.7651L59.7464 26.9221L59.4303 26.6059V26.9221H57.4281C56.2689 26.9221 55.3205 27.8705 55.3205 29.0297V43.9934C55.3205 45.0472 56.0582 45.8902 57.1119 46.101H57.4281H80.6113C81.7705 46.101 82.7189 45.1526 82.7189 43.9934V29.0297C82.7189 27.8705 81.7705 26.9221 80.6113 26.9221ZM58.0603 52.6344H49.5247C48.3655 52.6344 47.4171 53.5828 47.4171 54.742C47.4171 55.1635 47.5225 55.585 47.8386 56.0065C48.1548 56.5334 48.787 56.8496 49.5247 56.8496H58.0603C59.2195 56.8496 60.1679 55.9012 60.1679 54.742C60.1679 53.5828 59.2195 52.6344 58.0603 52.6344ZM37.3008 28.9243V60.1163C38.0384 60.1163 38.6707 60.1163 39.4084 60.0109V29.0297C38.6707 29.0297 38.0384 28.9243 37.3008 28.9243ZM58.0603 52.6344H49.5247C48.3655 52.6344 47.4171 53.5828 47.4171 54.742C47.4171 55.1635 47.5225 55.585 47.8386 56.0065C48.1548 56.5334 48.787 56.8496 49.5247 56.8496H58.0603C59.2195 56.8496 60.1679 55.9012 60.1679 54.742C60.1679 53.5828 59.2195 52.6344 58.0603 52.6344ZM74.4994 63.383H49.5247C48.3655 63.383 47.4171 64.3315 47.4171 65.4906C47.4171 66.6498 48.3655 67.5982 49.5247 67.5982H74.4994C75.6586 67.5982 76.607 66.6498 76.607 65.4906C76.607 64.3315 75.6586 63.383 74.4994 63.383ZM61.9594 74.0263H49.5247C48.4709 74.0263 47.6279 74.7639 47.4171 75.7123V76.1339C47.4171 76.8715 47.8386 77.5038 48.3655 77.9253C48.6817 78.136 49.1032 78.2414 49.5247 78.2414H62.0647C63.2239 78.2414 64.0669 77.293 64.0669 76.1339C64.0669 74.9747 63.1185 74.0263 61.9594 74.0263ZM88.4094 52.6344H66.4906C65.3315 52.6344 64.3831 53.5828 64.3831 54.742C64.3831 55.9012 65.3315 56.8496 66.4906 56.8496H88.4094C89.5685 56.8496 90.5169 55.9012 90.5169 54.742C90.5169 53.5828 89.5685 52.6344 88.4094 52.6344ZM88.4094 74.0263H70.495C69.3358 74.0263 68.3874 74.9747 68.3874 76.1339C68.3874 77.293 69.3358 78.2414 70.495 78.2414H88.4094C89.5685 78.2414 90.5169 77.293 90.5169 76.1339C90.5169 74.9747 89.5685 74.0263 88.4094 74.0263ZM88.4094 63.383H82.9297C81.7705 63.383 80.8221 64.3315 80.8221 65.4906C80.8221 66.6498 81.7705 67.5982 82.9297 67.5982H88.4094C89.5685 67.5982 90.5169 66.6498 90.5169 65.4906C90.5169 64.3315 89.5685 63.383 88.4094 63.383ZM88.4094 63.383H82.9297C81.7705 63.383 80.8221 64.3315 80.8221 65.4906C80.8221 66.6498 81.7705 67.5982 82.9297 67.5982H88.4094C89.5685 67.5982 90.5169 66.6498 90.5169 65.4906C90.5169 64.3315 89.5685 63.383 88.4094 63.383ZM88.4094 74.0263H70.495C69.3358 74.0263 68.3874 74.9747 68.3874 76.1339C68.3874 77.293 69.3358 78.2414 70.495 78.2414H88.4094C89.5685 78.2414 90.5169 77.293 90.5169 76.1339C90.5169 74.9747 89.5685 74.0263 88.4094 74.0263ZM88.4094 52.6344H66.4906C65.3315 52.6344 64.3831 53.5828 64.3831 54.742C64.3831 55.9012 65.3315 56.8496 66.4906 56.8496H88.4094C89.5685 56.8496 90.5169 55.9012 90.5169 54.742C90.5169 53.5828 89.5685 52.6344 88.4094 52.6344ZM61.9594 74.0263H49.5247C48.4709 74.0263 47.6279 74.7639 47.4171 75.7123V76.1339C47.4171 76.8715 47.8386 77.5038 48.3655 77.9253C48.6817 78.136 49.1032 78.2414 49.5247 78.2414H62.0647C63.2239 78.2414 64.0669 77.293 64.0669 76.1339C64.0669 74.9747 63.1185 74.0263 61.9594 74.0263ZM74.4994 63.383H49.5247C48.3655 63.383 47.4171 64.3315 47.4171 65.4906C47.4171 66.6498 48.3655 67.5982 49.5247 67.5982H74.4994C75.6586 67.5982 76.607 66.6498 76.607 65.4906C76.607 64.3315 75.6586 63.383 74.4994 63.383ZM80.6113 26.9221H78.6092V24.7091C78.6092 19.4402 74.2886 15.1197 69.0197 15.1197C64.8046 15.1197 61.3271 17.7541 59.9572 21.4424L62.697 24.1822H63.6454C63.9615 21.5478 66.2799 19.4402 69.0197 19.4402C71.9703 19.4402 74.394 21.8639 74.394 24.8145V26.9221H67.6498C68.4928 28.8189 68.9143 30.0834 69.4412 31.1372H78.3984V41.8858H59.4303V31.1372H67.1229L65.8584 28.1866L62.1701 28.3974C61.5378 28.3974 61.0109 28.1866 60.5894 27.7651L59.7464 26.9221L59.4303 26.6059V26.9221H57.4281C56.2689 26.9221 55.3205 27.8705 55.3205 29.0297V43.9934C55.3205 45.0472 56.0582 45.8902 57.1119 46.101H57.4281H80.6113C81.7705 46.101 82.7189 45.1526 82.7189 43.9934V29.0297C82.7189 27.8705 81.7705 26.9221 80.6113 26.9221ZM58.0603 52.6344H49.5247C48.3655 52.6344 47.4171 53.5828 47.4171 54.742C47.4171 55.1635 47.5225 55.585 47.8386 56.0065C48.1548 56.5334 48.787 56.8496 49.5247 56.8496H58.0603C59.2195 56.8496 60.1679 55.9012 60.1679 54.742C60.1679 53.5828 59.2195 52.6344 58.0603 52.6344ZM37.3008 28.9243V60.1163C38.0384 60.1163 38.6707 60.1163 39.4084 60.0109V29.0297C38.6707 29.0297 38.0384 28.9243 37.3008 28.9243ZM58.0603 52.6344H49.5247C48.3655 52.6344 47.4171 53.5828 47.4171 54.742C47.4171 55.1635 47.5225 55.585 47.8386 56.0065C48.1548 56.5334 48.787 56.8496 49.5247 56.8496H58.0603C59.2195 56.8496 60.1679 55.9012 60.1679 54.742C60.1679 53.5828 59.2195 52.6344 58.0603 52.6344ZM74.4994 63.383H49.5247C48.3655 63.383 47.4171 64.3315 47.4171 65.4906C47.4171 66.6498 48.3655 67.5982 49.5247 67.5982H74.4994C75.6586 67.5982 76.607 66.6498 76.607 65.4906C76.607 64.3315 75.6586 63.383 74.4994 63.383ZM61.9594 74.0263H49.5247C48.4709 74.0263 47.6279 74.7639 47.4171 75.7123V76.1339C47.4171 76.8715 47.8386 77.5038 48.3655 77.9253C48.6817 78.136 49.1032 78.2414 49.5247 78.2414H62.0647C63.2239 78.2414 64.0669 77.293 64.0669 76.1339C64.0669 74.9747 63.1185 74.0263 61.9594 74.0263ZM88.4094 52.6344H66.4906C65.3315 52.6344 64.3831 53.5828 64.3831 54.742C64.3831 55.9012 65.3315 56.8496 66.4906 56.8496H88.4094C89.5685 56.8496 90.5169 55.9012 90.5169 54.742C90.5169 53.5828 89.5685 52.6344 88.4094 52.6344ZM88.4094 74.0263H70.495C69.3358 74.0263 68.3874 74.9747 68.3874 76.1339C68.3874 77.293 69.3358 78.2414 70.495 78.2414H88.4094C89.5685 78.2414 90.5169 77.293 90.5169 76.1339C90.5169 74.9747 89.5685 74.0263 88.4094 74.0263ZM88.4094 63.383H82.9297C81.7705 63.383 80.8221 64.3315 80.8221 65.4906C80.8221 66.6498 81.7705 67.5982 82.9297 67.5982H88.4094C89.5685 67.5982 90.5169 66.6498 90.5169 65.4906C90.5169 64.3315 89.5685 63.383 88.4094 63.383ZM88.4094 63.383H82.9297C81.7705 63.383 80.8221 64.3315 80.8221 65.4906C80.8221 66.6498 81.7705 67.5982 82.9297 67.5982H88.4094C89.5685 67.5982 90.5169 66.6498 90.5169 65.4906C90.5169 64.3315 89.5685 63.383 88.4094 63.383ZM88.4094 74.0263H70.495C69.3358 74.0263 68.3874 74.9747 68.3874 76.1339C68.3874 77.293 69.3358 78.2414 70.495 78.2414H88.4094C89.5685 78.2414 90.5169 77.293 90.5169 76.1339C90.5169 74.9747 89.5685 74.0263 88.4094 74.0263ZM88.4094 52.6344H66.4906C65.3315 52.6344 64.3831 53.5828 64.3831 54.742C64.3831 55.9012 65.3315 56.8496 66.4906 56.8496H88.4094C89.5685 56.8496 90.5169 55.9012 90.5169 54.742C90.5169 53.5828 89.5685 52.6344 88.4094 52.6344ZM61.9594 74.0263H49.5247C48.4709 74.0263 47.6279 74.7639 47.4171 75.7123V76.1339C47.4171 76.8715 47.8386 77.5038 48.3655 77.9253C48.6817 78.136 49.1032 78.2414 49.5247 78.2414H62.0647C63.2239 78.2414 64.0669 77.293 64.0669 76.1339C64.0669 74.9747 63.1185 74.0263 61.9594 74.0263ZM74.4994 63.383H49.5247C48.3655 63.383 47.4171 64.3315 47.4171 65.4906C47.4171 66.6498 48.3655 67.5982 49.5247 67.5982H74.4994C75.6586 67.5982 76.607 66.6498 76.607 65.4906C76.607 64.3315 75.6586 63.383 74.4994 63.383ZM80.6113 26.9221H78.6092V24.7091C78.6092 19.4402 74.2886 15.1197 69.0197 15.1197C64.8046 15.1197 61.3271 17.7541 59.9572 21.4424L62.697 24.1822H63.6454C63.9615 21.5478 66.2799 19.4402 69.0197 19.4402C71.9703 19.4402 74.394 21.8639 74.394 24.8145V26.9221H67.6498C68.4928 28.8189 68.9143 30.0834 69.4412 31.1372H78.3984V41.8858H59.4303V31.1372H67.1229L65.8584 28.1866L62.1701 28.3974C61.5378 28.3974 61.0109 28.1866 60.5894 27.7651L59.7464 26.9221L59.4303 26.6059V26.9221H57.4281C56.2689 26.9221 55.3205 27.8705 55.3205 29.0297V43.9934C55.3205 45.0472 56.0582 45.8902 57.1119 46.101H57.4281H80.6113C81.7705 46.101 82.7189 45.1526 82.7189 43.9934V29.0297C82.7189 27.8705 81.7705 26.9221 80.6113 26.9221ZM58.0603 52.6344H49.5247C48.3655 52.6344 47.4171 53.5828 47.4171 54.742C47.4171 55.1635 47.5225 55.585 47.8386 56.0065C48.1548 56.5334 48.787 56.8496 49.5247 56.8496H58.0603C59.2195 56.8496 60.1679 55.9012 60.1679 54.742C60.1679 53.5828 59.2195 52.6344 58.0603 52.6344ZM37.3008 28.9243V60.1163C38.0384 60.1163 38.6707 60.1163 39.4084 60.0109V29.0297C38.6707 29.0297 38.0384 28.9243 37.3008 28.9243ZM58.0603 52.6344H49.5247C48.3655 52.6344 47.4171 53.5828 47.4171 54.742C47.4171 55.1635 47.5225 55.585 47.8386 56.0065C48.1548 56.5334 48.787 56.8496 49.5247 56.8496H58.0603C59.2195 56.8496 60.1679 55.9012 60.1679 54.742C60.1679 53.5828 59.2195 52.6344 58.0603 52.6344ZM74.4994 63.383H49.5247C48.3655 63.383 47.4171 64.3315 47.4171 65.4906C47.4171 66.6498 48.3655 67.5982 49.5247 67.5982H74.4994C75.6586 67.5982 76.607 66.6498 76.607 65.4906C76.607 64.3315 75.6586 63.383 74.4994 63.383ZM61.9594 74.0263H49.5247C48.4709 74.0263 47.6279 74.7639 47.4171 75.7123V76.1339C47.4171 76.8715 47.8386 77.5038 48.3655 77.9253C48.6817 78.136 49.1032 78.2414 49.5247 78.2414H62.0647C63.2239 78.2414 64.0669 77.293 64.0669 76.1339C64.0669 74.9747 63.1185 74.0263 61.9594 74.0263ZM88.4094 52.6344H66.4906C65.3315 52.6344 64.3831 53.5828 64.3831 54.742C64.3831 55.9012 65.3315 56.8496 66.4906 56.8496H88.4094C89.5685 56.8496 90.5169 55.9012 90.5169 54.742C90.5169 53.5828 89.5685 52.6344 88.4094 52.6344ZM88.4094 74.0263H70.495C69.3358 74.0263 68.3874 74.9747 68.3874 76.1339C68.3874 77.293 69.3358 78.2414 70.495 78.2414H88.4094C89.5685 78.2414 90.5169 77.293 90.5169 76.1339C90.5169 74.9747 89.5685 74.0263 88.4094 74.0263ZM88.4094 63.383H82.9297C81.7705 63.383 80.8221 64.3315 80.8221 65.4906C80.8221 66.6498 81.7705 67.5982 82.9297 67.5982H88.4094C89.5685 67.5982 90.5169 66.6498 90.5169 65.4906C90.5169 64.3315 89.5685 63.383 88.4094 63.383ZM88.4094 63.383H82.9297C81.7705 63.383 80.8221 64.3315 80.8221 65.4906C80.8221 66.6498 81.7705 67.5982 82.9297 67.5982H88.4094C89.5685 67.5982 90.5169 66.6498 90.5169 65.4906C90.5169 64.3315 89.5685 63.383 88.4094 63.383ZM88.4094 74.0263H70.495C69.3358 74.0263 68.3874 74.9747 68.3874 76.1339C68.3874 77.293 69.3358 78.2414 70.495 78.2414H88.4094C89.5685 78.2414 90.5169 77.293 90.5169 76.1339C90.5169 74.9747 89.5685 74.0263 88.4094 74.0263ZM66.4906 52.6344C65.3315 52.6344 64.3831 53.5828 64.3831 54.742C64.3831 55.9012 65.3315 56.8496 66.4906 56.8496H88.4094C89.5685 56.8496 90.5169 55.9012 90.5169 54.742C90.5169 53.5828 89.5685 52.6344 88.4094 52.6344H66.4906ZM61.9594 74.0263H49.5247C48.4709 74.0263 47.6279 74.7639 47.4171 75.7123V76.1339C47.4171 76.8715 47.8386 77.5038 48.3655 77.9253C48.6817 78.136 49.1032 78.2414 49.5247 78.2414H62.0647C63.2239 78.2414 64.0669 77.293 64.0669 76.1339C64.0669 74.9747 63.1185 74.0263 61.9594 74.0263ZM49.5247 67.5982H74.4994C75.6586 67.5982 76.607 66.6498 76.607 65.4906C76.607 64.3315 75.6586 63.383 74.4994 63.383H49.5247C48.3655 63.383 47.4171 64.3315 47.4171 65.4906C47.4171 66.6498 48.3655 67.5982 49.5247 67.5982ZM57.0066 46.101H57.3227H80.506C81.6651 46.101 82.6135 45.1526 82.6135 43.9934V29.0297C82.6135 27.8705 81.6651 26.9221 80.506 26.9221H78.5038V24.7091C78.5038 19.4402 74.1833 15.1197 68.9143 15.1197C64.6992 15.1197 61.2217 17.7541 59.8518 21.4424L62.5916 24.1822H63.54C63.8562 21.5478 66.1745 19.4402 68.9143 19.4402C71.8649 19.4402 74.2886 21.8639 74.2886 24.8145V26.9221H67.5444C68.3874 28.8189 68.809 30.0834 69.3358 31.1372H78.293V41.8858H59.3249V31.1372H67.0175L65.8584 28.1866L62.1701 28.3974C61.5378 28.3974 61.0109 28.1866 60.5894 27.7651L59.7464 26.9221L59.4303 26.6059V26.9221H57.4281C56.2689 26.9221 55.3205 27.8705 55.3205 29.0297V43.9934C55.3205 45.0472 56.0582 45.8902 57.0066 46.101ZM49.5247 56.8496H58.0603C59.2195 56.8496 60.1679 55.9012 60.1679 54.742C60.1679 53.5828 59.2195 52.6344 58.0603 52.6344H49.5247C48.3655 52.6344 47.4171 53.5828 47.4171 54.742C47.4171 55.1635 47.5225 55.585 47.8386 56.0065C48.1548 56.5334 48.787 56.8496 49.5247 56.8496ZM37.3008 60.1163C38.0384 60.1163 38.6707 60.1163 39.4084 60.0109V29.0297C38.7761 28.9243 38.0384 28.9243 37.3008 28.9243V60.1163ZM82.9297 3.21191H37.3008V88.147H100.633V20.9155L82.9297 3.21191ZM95.5751 18.8079H85.0372V8.27008L95.5751 18.8079ZM98.5257 86.0394H39.4084V5.31948H80.8221V20.9155C80.8221 22.0747 81.7705 23.0231 82.9297 23.0231H98.5257V86.0394ZM88.4094 63.383H82.9297C81.7705 63.383 80.8221 64.3315 80.8221 65.4906C80.8221 66.6498 81.7705 67.5982 82.9297 67.5982H88.4094C89.5685 67.5982 90.5169 66.6498 90.5169 65.4906C90.5169 64.3315 89.5685 63.383 88.4094 63.383ZM88.4094 74.0263H70.495C69.3358 74.0263 68.3874 74.9747 68.3874 76.1339C68.3874 77.293 69.3358 78.2414 70.495 78.2414H88.4094C89.5685 78.2414 90.5169 77.293 90.5169 76.1339C90.5169 74.9747 89.5685 74.0263 88.4094 74.0263ZM66.4906 52.6344C65.3315 52.6344 64.3831 53.5828 64.3831 54.742C64.3831 55.9012 65.3315 56.8496 66.4906 56.8496H88.4094C89.5685 56.8496 90.5169 55.9012 90.5169 54.742C90.5169 53.5828 89.5685 52.6344 88.4094 52.6344H66.4906ZM61.9594 74.0263H49.5247C48.4709 74.0263 47.6279 74.7639 47.4171 75.7123V76.1339C47.4171 76.8715 47.8386 77.5038 48.3655 77.9253C48.6817 78.136 49.1032 78.2414 49.5247 78.2414H62.0647C63.2239 78.2414 64.0669 77.293 64.0669 76.1339C64.0669 74.9747 63.1185 74.0263 61.9594 74.0263ZM49.5247 67.5982H74.4994C75.6586 67.5982 76.607 66.6498 76.607 65.4906C76.607 64.3315 75.6586 63.383 74.4994 63.383H49.5247C48.3655 63.383 47.4171 64.3315 47.4171 65.4906C47.4171 66.6498 48.3655 67.5982 49.5247 67.5982ZM57.0066 46.101H57.3227H80.506C81.6651 46.101 82.6135 45.1526 82.6135 43.9934V29.0297C82.6135 27.8705 81.6651 26.9221 80.506 26.9221H78.5038V24.7091C78.5038 19.4402 74.1833 15.1197 68.9143 15.1197C64.6992 15.1197 61.2217 17.7541 59.8518 21.4424C59.641 21.9693 59.5356 22.4962 59.4303 23.0231C59.4303 23.2338 59.3249 23.3392 59.3249 23.55V23.7607V26.9221H57.4281C56.2689 26.9221 55.3205 27.8705 55.3205 29.0297V43.9934C55.3205 45.0472 56.0582 45.8902 57.0066 46.101ZM69.0197 19.3348C71.9703 19.3348 74.394 21.7585 74.394 24.7091V26.9221H63.6454V24.7091C63.6454 24.4984 63.6454 24.2876 63.6454 24.1822C63.9615 21.4424 66.2799 19.3348 69.0197 19.3348ZM59.4303 31.1372H78.3984V41.8858H59.4303V31.1372ZM49.5247 56.8496H58.0603C59.2195 56.8496 60.1679 55.9012 60.1679 54.742C60.1679 53.5828 59.2195 52.6344 58.0603 52.6344H49.5247C48.3655 52.6344 47.4171 53.5828 47.4171 54.742C47.4171 55.1635 47.5225 55.585 47.8386 56.0065C48.1548 56.5334 48.787 56.8496 49.5247 56.8496ZM37.3008 28.9243V60.1163C38.0384 60.1163 38.6707 60.1163 39.4084 60.0109V29.0297C38.6707 29.0297 38.0384 28.9243 37.3008 28.9243ZM58.0603 52.6344H49.5247C48.3655 52.6344 47.4171 53.5828 47.4171 54.742C47.4171 55.1635 47.5225 55.585 47.8386 56.0065C48.1548 56.5334 48.787 56.8496 49.5247 56.8496H58.0603C59.2195 56.8496 60.1679 55.9012 60.1679 54.742C60.1679 53.5828 59.2195 52.6344 58.0603 52.6344ZM80.6113 26.9221H78.6092V24.7091C78.6092 19.4402 74.2886 15.1197 69.0197 15.1197C64.8046 15.1197 61.3271 17.7541 59.9572 21.4424L62.697 24.1822H63.6454C63.9615 21.5478 66.2799 19.4402 69.0197 19.4402C71.9703 19.4402 74.394 21.8639 74.394 24.8145V26.9221H67.6498C68.4928 28.8189 68.9143 30.0834 69.4412 31.1372H78.3984V41.8858H59.4303V31.1372H67.1229L65.8584 28.1866L62.1701 28.3974C61.5378 28.3974 61.0109 28.1866 60.5894 27.7651L59.7464 26.9221L59.4303 26.6059V26.9221H57.4281C56.2689 26.9221 55.3205 27.8705 55.3205 29.0297V43.9934C55.3205 45.0472 56.0582 45.8902 57.1119 46.101H57.4281H80.6113C81.7705 46.101 82.7189 45.1526 82.7189 43.9934V29.0297C82.7189 27.8705 81.7705 26.9221 80.6113 26.9221ZM74.4994 63.383H49.5247C48.3655 63.383 47.4171 64.3315 47.4171 65.4906C47.4171 66.6498 48.3655 67.5982 49.5247 67.5982H74.4994C75.6586 67.5982 76.607 66.6498 76.607 65.4906C76.607 64.3315 75.6586 63.383 74.4994 63.383ZM61.9594 74.0263H49.5247C48.4709 74.0263 47.6279 74.7639 47.4171 75.7123V76.1339C47.4171 76.8715 47.8386 77.5038 48.3655 77.9253C48.6817 78.136 49.1032 78.2414 49.5247 78.2414H62.0647C63.2239 78.2414 64.0669 77.293 64.0669 76.1339C64.0669 74.9747 63.1185 74.0263 61.9594 74.0263ZM88.4094 52.6344H66.4906C65.3315 52.6344 64.3831 53.5828 64.3831 54.742C64.3831 55.9012 65.3315 56.8496 66.4906 56.8496H88.4094C89.5685 56.8496 90.5169 55.9012 90.5169 54.742C90.5169 53.5828 89.5685 52.6344 88.4094 52.6344ZM88.4094 74.0263H70.495C69.3358 74.0263 68.3874 74.9747 68.3874 76.1339C68.3874 77.293 69.3358 78.2414 70.495 78.2414H88.4094C89.5685 78.2414 90.5169 77.293 90.5169 76.1339C90.5169 74.9747 89.5685 74.0263 88.4094 74.0263ZM88.4094 63.383H82.9297C81.7705 63.383 80.8221 64.3315 80.8221 65.4906C80.8221 66.6498 81.7705 67.5982 82.9297 67.5982H88.4094C89.5685 67.5982 90.5169 66.6498 90.5169 65.4906C90.5169 64.3315 89.5685 63.383 88.4094 63.383ZM88.4094 63.383H82.9297C81.7705 63.383 80.8221 64.3315 80.8221 65.4906C80.8221 66.6498 81.7705 67.5982 82.9297 67.5982H88.4094C89.5685 67.5982 90.5169 66.6498 90.5169 65.4906C90.5169 64.3315 89.5685 63.383 88.4094 63.383ZM88.4094 74.0263H70.495C69.3358 74.0263 68.3874 74.9747 68.3874 76.1339C68.3874 77.293 69.3358 78.2414 70.495 78.2414H88.4094C89.5685 78.2414 90.5169 77.293 90.5169 76.1339C90.5169 74.9747 89.5685 74.0263 88.4094 74.0263ZM88.4094 52.6344H66.4906C65.3315 52.6344 64.3831 53.5828 64.3831 54.742C64.3831 55.9012 65.3315 56.8496 66.4906 56.8496H88.4094C89.5685 56.8496 90.5169 55.9012 90.5169 54.742C90.5169 53.5828 89.5685 52.6344 88.4094 52.6344ZM61.9594 74.0263H49.5247C48.4709 74.0263 47.6279 74.7639 47.4171 75.7123V76.1339C47.4171 76.8715 47.8386 77.5038 48.3655 77.9253C48.6817 78.136 49.1032 78.2414 49.5247 78.2414H62.0647C63.2239 78.2414 64.0669 77.293 64.0669 76.1339C64.0669 74.9747 63.1185 74.0263 61.9594 74.0263ZM74.4994 63.383H49.5247C48.3655 63.383 47.4171 64.3315 47.4171 65.4906C47.4171 66.6498 48.3655 67.5982 49.5247 67.5982H74.4994C75.6586 67.5982 76.607 66.6498 76.607 65.4906C76.607 64.3315 75.6586 63.383 74.4994 63.383ZM58.0603 52.6344H49.5247C48.3655 52.6344 47.4171 53.5828 47.4171 54.742C47.4171 55.1635 47.5225 55.585 47.8386 56.0065C48.1548 56.5334 48.787 56.8496 49.5247 56.8496H58.0603C59.2195 56.8496 60.1679 55.9012 60.1679 54.742C60.1679 53.5828 59.2195 52.6344 58.0603 52.6344ZM37.3008 28.9243V60.1163C38.0384 60.1163 38.6707 60.1163 39.4084 60.0109V29.0297C38.6707 29.0297 38.0384 28.9243 37.3008 28.9243ZM58.0603 52.6344H49.5247C48.3655 52.6344 47.4171 53.5828 47.4171 54.742C47.4171 55.1635 47.5225 55.585 47.8386 56.0065C48.1548 56.5334 48.787 56.8496 49.5247 56.8496H58.0603C59.2195 56.8496 60.1679 55.9012 60.1679 54.742C60.1679 53.5828 59.2195 52.6344 58.0603 52.6344ZM80.6113 26.9221H78.6092V24.7091C78.6092 19.4402 74.2886 15.1197 69.0197 15.1197C64.8046 15.1197 61.3271 17.7541 59.9572 21.4424L62.697 24.1822H63.6454C63.9615 21.5478 66.2799 19.4402 69.0197 19.4402C71.9703 19.4402 74.394 21.8639 74.394 24.8145V26.9221H67.6498C68.4928 28.8189 68.9143 30.0834 69.4412 31.1372H78.3984V41.8858H59.4303V31.1372H67.1229L65.8584 28.1866L62.1701 28.3974C61.5378 28.3974 61.0109 28.1866 60.5894 27.7651L59.7464 26.9221L59.4303 26.6059V26.9221H57.4281C56.2689 26.9221 55.3205 27.8705 55.3205 29.0297V43.9934C55.3205 45.0472 56.0582 45.8902 57.1119 46.101H57.4281H80.6113C81.7705 46.101 82.7189 45.1526 82.7189 43.9934V29.0297C82.7189 27.8705 81.7705 26.9221 80.6113 26.9221ZM74.4994 63.383H49.5247C48.3655 63.383 47.4171 64.3315 47.4171 65.4906C47.4171 66.6498 48.3655 67.5982 49.5247 67.5982H74.4994C75.6586 67.5982 76.607 66.6498 76.607 65.4906C76.607 64.3315 75.6586 63.383 74.4994 63.383ZM61.9594 74.0263H49.5247C48.4709 74.0263 47.6279 74.7639 47.4171 75.7123V76.1339C47.4171 76.8715 47.8386 77.5038 48.3655 77.9253C48.6817 78.136 49.1032 78.2414 49.5247 78.2414H62.0647C63.2239 78.2414 64.0669 77.293 64.0669 76.1339C64.0669 74.9747 63.1185 74.0263 61.9594 74.0263ZM88.4094 52.6344H66.4906C65.3315 52.6344 64.3831 53.5828 64.3831 54.742C64.3831 55.9012 65.3315 56.8496 66.4906 56.8496H88.4094C89.5685 56.8496 90.5169 55.9012 90.5169 54.742C90.5169 53.5828 89.5685 52.6344 88.4094 52.6344ZM88.4094 74.0263H70.495C69.3358 74.0263 68.3874 74.9747 68.3874 76.1339C68.3874 77.293 69.3358 78.2414 70.495 78.2414H88.4094C89.5685 78.2414 90.5169 77.293 90.5169 76.1339C90.5169 74.9747 89.5685 74.0263 88.4094 74.0263ZM88.4094 63.383H82.9297C81.7705 63.383 80.8221 64.3315 80.8221 65.4906C80.8221 66.6498 81.7705 67.5982 82.9297 67.5982H88.4094C89.5685 67.5982 90.5169 66.6498 90.5169 65.4906C90.5169 64.3315 89.5685 63.383 88.4094 63.383ZM88.4094 63.383H82.9297C81.7705 63.383 80.8221 64.3315 80.8221 65.4906C80.8221 66.6498 81.7705 67.5982 82.9297 67.5982H88.4094C89.5685 67.5982 90.5169 66.6498 90.5169 65.4906C90.5169 64.3315 89.5685 63.383 88.4094 63.383ZM88.4094 74.0263H70.495C69.3358 74.0263 68.3874 74.9747 68.3874 76.1339C68.3874 77.293 69.3358 78.2414 70.495 78.2414H88.4094C89.5685 78.2414 90.5169 77.293 90.5169 76.1339C90.5169 74.9747 89.5685 74.0263 88.4094 74.0263ZM88.4094 52.6344H66.4906C65.3315 52.6344 64.3831 53.5828 64.3831 54.742C64.3831 55.9012 65.3315 56.8496 66.4906 56.8496H88.4094C89.5685 56.8496 90.5169 55.9012 90.5169 54.742C90.5169 53.5828 89.5685 52.6344 88.4094 52.6344ZM61.9594 74.0263H49.5247C48.4709 74.0263 47.6279 74.7639 47.4171 75.7123V76.1339C47.4171 76.8715 47.8386 77.5038 48.3655 77.9253C48.6817 78.136 49.1032 78.2414 49.5247 78.2414H62.0647C63.2239 78.2414 64.0669 77.293 64.0669 76.1339C64.0669 74.9747 63.1185 74.0263 61.9594 74.0263ZM74.4994 63.383H49.5247C48.3655 63.383 47.4171 64.3315 47.4171 65.4906C47.4171 66.6498 48.3655 67.5982 49.5247 67.5982H74.4994C75.6586 67.5982 76.607 66.6498 76.607 65.4906C76.607 64.3315 75.6586 63.383 74.4994 63.383ZM58.0603 52.6344H49.5247C48.3655 52.6344 47.4171 53.5828 47.4171 54.742C47.4171 55.1635 47.5225 55.585 47.8386 56.0065C48.1548 56.5334 48.787 56.8496 49.5247 56.8496H58.0603C59.2195 56.8496 60.1679 55.9012 60.1679 54.742C60.1679 53.5828 59.2195 52.6344 58.0603 52.6344ZM37.3008 28.9243V60.1163C38.0384 60.1163 38.6707 60.1163 39.4084 60.0109V29.0297C38.6707 29.0297 38.0384 28.9243 37.3008 28.9243ZM58.0603 52.6344H49.5247C48.3655 52.6344 47.4171 53.5828 47.4171 54.742C47.4171 55.1635 47.5225 55.585 47.8386 56.0065C48.1548 56.5334 48.787 56.8496 49.5247 56.8496H58.0603C59.2195 56.8496 60.1679 55.9012 60.1679 54.742C60.1679 53.5828 59.2195 52.6344 58.0603 52.6344ZM80.6113 26.9221H78.6092V24.7091C78.6092 19.4402 74.2886 15.1197 69.0197 15.1197C64.8046 15.1197 61.3271 17.7541 59.9572 21.4424L62.697 24.1822H63.6454C63.9615 21.5478 66.2799 19.4402 69.0197 19.4402C71.9703 19.4402 74.394 21.8639 74.394 24.8145V26.9221H67.6498C68.4928 28.8189 68.9143 30.0834 69.4412 31.1372H78.3984V41.8858H59.4303V31.1372H67.1229L65.8584 28.1866L62.1701 28.3974C61.5378 28.3974 61.0109 28.1866 60.5894 27.7651L59.7464 26.9221L59.4303 26.6059V26.9221H57.4281C56.2689 26.9221 55.3205 27.8705 55.3205 29.0297V43.9934C55.3205 45.0472 56.0582 45.8902 57.1119 46.101H57.4281H80.6113C81.7705 46.101 82.7189 45.1526 82.7189 43.9934V29.0297C82.7189 27.8705 81.7705 26.9221 80.6113 26.9221ZM74.4994 63.383H49.5247C48.3655 63.383 47.4171 64.3315 47.4171 65.4906C47.4171 66.6498 48.3655 67.5982 49.5247 67.5982H74.4994C75.6586 67.5982 76.607 66.6498 76.607 65.4906C76.607 64.3315 75.6586 63.383 74.4994 63.383ZM61.9594 74.0263H49.5247C48.4709 74.0263 47.6279 74.7639 47.4171 75.7123V76.1339C47.4171 76.8715 47.8386 77.5038 48.3655 77.9253C48.6817 78.136 49.1032 78.2414 49.5247 78.2414H62.0647C63.2239 78.2414 64.0669 77.293 64.0669 76.1339C64.0669 74.9747 63.1185 74.0263 61.9594 74.0263ZM88.4094 52.6344H66.4906C65.3315 52.6344 64.3831 53.5828 64.3831 54.742C64.3831 55.9012 65.3315 56.8496 66.4906 56.8496H88.4094C89.5685 56.8496 90.5169 55.9012 90.5169 54.742C90.5169 53.5828 89.5685 52.6344 88.4094 52.6344ZM88.4094 74.0263H70.495C69.3358 74.0263 68.3874 74.9747 68.3874 76.1339C68.3874 77.293 69.3358 78.2414 70.495 78.2414H88.4094C89.5685 78.2414 90.5169 77.293 90.5169 76.1339C90.5169 74.9747 89.5685 74.0263 88.4094 74.0263ZM88.4094 63.383H82.9297C81.7705 63.383 80.8221 64.3315 80.8221 65.4906C80.8221 66.6498 81.7705 67.5982 82.9297 67.5982H88.4094C89.5685 67.5982 90.5169 66.6498 90.5169 65.4906C90.5169 64.3315 89.5685 63.383 88.4094 63.383ZM88.4094 63.383H82.9297C81.7705 63.383 80.8221 64.3315 80.8221 65.4906C80.8221 66.6498 81.7705 67.5982 82.9297 67.5982H88.4094C89.5685 67.5982 90.5169 66.6498 90.5169 65.4906C90.5169 64.3315 89.5685 63.383 88.4094 63.383ZM88.4094 74.0263H70.495C69.3358 74.0263 68.3874 74.9747 68.3874 76.1339C68.3874 77.293 69.3358 78.2414 70.495 78.2414H88.4094C89.5685 78.2414 90.5169 77.293 90.5169 76.1339C90.5169 74.9747 89.5685 74.0263 88.4094 74.0263ZM88.4094 52.6344H66.4906C65.3315 52.6344 64.3831 53.5828 64.3831 54.742C64.3831 55.9012 65.3315 56.8496 66.4906 56.8496H88.4094C89.5685 56.8496 90.5169 55.9012 90.5169 54.742C90.5169 53.5828 89.5685 52.6344 88.4094 52.6344ZM61.9594 74.0263H49.5247C48.4709 74.0263 47.6279 74.7639 47.4171 75.7123V76.1339C47.4171 76.8715 47.8386 77.5038 48.3655 77.9253C48.6817 78.136 49.1032 78.2414 49.5247 78.2414H62.0647C63.2239 78.2414 64.0669 77.293 64.0669 76.1339C64.0669 74.9747 63.1185 74.0263 61.9594 74.0263ZM74.4994 63.383H49.5247C48.3655 63.383 47.4171 64.3315 47.4171 65.4906C47.4171 66.6498 48.3655 67.5982 49.5247 67.5982H74.4994C75.6586 67.5982 76.607 66.6498 76.607 65.4906C76.607 64.3315 75.6586 63.383 74.4994 63.383ZM58.0603 52.6344H49.5247C48.3655 52.6344 47.4171 53.5828 47.4171 54.742C47.4171 55.1635 47.5225 55.585 47.8386 56.0065C48.1548 56.5334 48.787 56.8496 49.5247 56.8496H58.0603C59.2195 56.8496 60.1679 55.9012 60.1679 54.742C60.1679 53.5828 59.2195 52.6344 58.0603 52.6344ZM37.3008 28.9243V60.1163C38.0384 60.1163 38.6707 60.1163 39.4084 60.0109V29.0297C38.6707 29.0297 38.0384 28.9243 37.3008 28.9243ZM58.0603 52.6344H49.5247C48.3655 52.6344 47.4171 53.5828 47.4171 54.742C47.4171 55.1635 47.5225 55.585 47.8386 56.0065C48.1548 56.5334 48.787 56.8496 49.5247 56.8496H58.0603C59.2195 56.8496 60.1679 55.9012 60.1679 54.742C60.1679 53.5828 59.2195 52.6344 58.0603 52.6344ZM80.6113 26.9221H78.6092V24.7091C78.6092 19.4402 74.2886 15.1197 69.0197 15.1197C64.8046 15.1197 61.3271 17.7541 59.9572 21.4424L62.697 24.1822H63.6454C63.9615 21.5478 66.2799 19.4402 69.0197 19.4402C71.9703 19.4402 74.394 21.8639 74.394 24.8145V26.9221H67.6498C68.4928 28.8189 68.9143 30.0834 69.4412 31.1372H78.3984V41.8858H59.4303V31.1372H67.1229L65.8584 28.1866L62.1701 28.3974C61.5378 28.3974 61.0109 28.1866 60.5894 27.7651L59.7464 26.9221L59.4303 26.6059V26.9221H57.4281C56.2689 26.9221 55.3205 27.8705 55.3205 29.0297V43.9934C55.3205 45.0472 56.0582 45.8902 57.1119 46.101H57.4281H80.6113C81.7705 46.101 82.7189 45.1526 82.7189 43.9934V29.0297C82.7189 27.8705 81.7705 26.9221 80.6113 26.9221ZM74.4994 63.383H49.5247C48.3655 63.383 47.4171 64.3315 47.4171 65.4906C47.4171 66.6498 48.3655 67.5982 49.5247 67.5982H74.4994C75.6586 67.5982 76.607 66.6498 76.607 65.4906C76.607 64.3315 75.6586 63.383 74.4994 63.383ZM61.9594 74.0263H49.5247C48.4709 74.0263 47.6279 74.7639 47.4171 75.7123V76.1339C47.4171 76.8715 47.8386 77.5038 48.3655 77.9253C48.6817 78.136 49.1032 78.2414 49.5247 78.2414H62.0647C63.2239 78.2414 64.0669 77.293 64.0669 76.1339C64.0669 74.9747 63.1185 74.0263 61.9594 74.0263ZM88.4094 52.6344H66.4906C65.3315 52.6344 64.3831 53.5828 64.3831 54.742C64.3831 55.9012 65.3315 56.8496 66.4906 56.8496H88.4094C89.5685 56.8496 90.5169 55.9012 90.5169 54.742C90.5169 53.5828 89.5685 52.6344 88.4094 52.6344ZM88.4094 74.0263H70.495C69.3358 74.0263 68.3874 74.9747 68.3874 76.1339C68.3874 77.293 69.3358 78.2414 70.495 78.2414H88.4094C89.5685 78.2414 90.5169 77.293 90.5169 76.1339C90.5169 74.9747 89.5685 74.0263 88.4094 74.0263ZM88.4094 63.383H82.9297C81.7705 63.383 80.8221 64.3315 80.8221 65.4906C80.8221 66.6498 81.7705 67.5982 82.9297 67.5982H88.4094C89.5685 67.5982 90.5169 66.6498 90.5169 65.4906C90.5169 64.3315 89.5685 63.383 88.4094 63.383ZM88.4094 63.383H82.9297C81.7705 63.383 80.8221 64.3315 80.8221 65.4906C80.8221 66.6498 81.7705 67.5982 82.9297 67.5982H88.4094C89.5685 67.5982 90.5169 66.6498 90.5169 65.4906C90.5169 64.3315 89.5685 63.383 88.4094 63.383ZM88.4094 74.0263H70.495C69.3358 74.0263 68.3874 74.9747 68.3874 76.1339C68.3874 77.293 69.3358 78.2414 70.495 78.2414H88.4094C89.5685 78.2414 90.5169 77.293 90.5169 76.1339C90.5169 74.9747 89.5685 74.0263 88.4094 74.0263ZM88.4094 52.6344H66.4906C65.3315 52.6344 64.3831 53.5828 64.3831 54.742C64.3831 55.9012 65.3315 56.8496 66.4906 56.8496H88.4094C89.5685 56.8496 90.5169 55.9012 90.5169 54.742C90.5169 53.5828 89.5685 52.6344 88.4094 52.6344ZM61.9594 74.0263H49.5247C48.4709 74.0263 47.6279 74.7639 47.4171 75.7123V76.1339C47.4171 76.8715 47.8386 77.5038 48.3655 77.9253C48.6817 78.136 49.1032 78.2414 49.5247 78.2414H62.0647C63.2239 78.2414 64.0669 77.293 64.0669 76.1339C64.0669 74.9747 63.1185 74.0263 61.9594 74.0263ZM74.4994 63.383H49.5247C48.3655 63.383 47.4171 64.3315 47.4171 65.4906C47.4171 66.6498 48.3655 67.5982 49.5247 67.5982H74.4994C75.6586 67.5982 76.607 66.6498 76.607 65.4906C76.607 64.3315 75.6586 63.383 74.4994 63.383ZM58.0603 52.6344H49.5247C48.3655 52.6344 47.4171 53.5828 47.4171 54.742C47.4171 55.1635 47.5225 55.585 47.8386 56.0065C48.1548 56.5334 48.787 56.8496 49.5247 56.8496H58.0603C59.2195 56.8496 60.1679 55.9012 60.1679 54.742C60.1679 53.5828 59.2195 52.6344 58.0603 52.6344ZM37.3008 28.9243V60.1163C38.0384 60.1163 38.6707 60.1163 39.4084 60.0109V29.0297C38.6707 29.0297 38.0384 28.9243 37.3008 28.9243ZM58.0603 52.6344H49.5247C48.3655 52.6344 47.4171 53.5828 47.4171 54.742C47.4171 55.1635 47.5225 55.585 47.8386 56.0065C48.1548 56.5334 48.787 56.8496 49.5247 56.8496H58.0603C59.2195 56.8496 60.1679 55.9012 60.1679 54.742C60.1679 53.5828 59.2195 52.6344 58.0603 52.6344ZM80.6113 26.9221H78.6092V24.7091C78.6092 19.4402 74.2886 15.1197 69.0197 15.1197C64.8046 15.1197 61.3271 17.7541 59.9572 21.4424L62.697 24.1822H63.6454C63.9615 21.5478 66.2799 19.4402 69.0197 19.4402C71.9703 19.4402 74.394 21.8639 74.394 24.8145V26.9221H67.6498C68.4928 28.8189 68.9143 30.0834 69.4412 31.1372H78.3984V41.8858H59.4303V31.1372H67.1229L65.8584 28.1866L62.1701 28.3974C61.5378 28.3974 61.0109 28.1866 60.5894 27.7651L59.7464 26.9221L59.4303 26.6059V26.9221H57.4281C56.2689 26.9221 55.3205 27.8705 55.3205 29.0297V43.9934C55.3205 45.0472 56.0582 45.8902 57.1119 46.101H57.4281H80.6113C81.7705 46.101 82.7189 45.1526 82.7189 43.9934V29.0297C82.7189 27.8705 81.7705 26.9221 80.6113 26.9221ZM74.4994 63.383H49.5247C48.3655 63.383 47.4171 64.3315 47.4171 65.4906C47.4171 66.6498 48.3655 67.5982 49.5247 67.5982H74.4994C75.6586 67.5982 76.607 66.6498 76.607 65.4906C76.607 64.3315 75.6586 63.383 74.4994 63.383ZM61.9594 74.0263H49.5247C48.4709 74.0263 47.6279 74.7639 47.4171 75.7123V76.1339C47.4171 76.8715 47.8386 77.5038 48.3655 77.9253C48.6817 78.136 49.1032 78.2414 49.5247 78.2414H62.0647C63.2239 78.2414 64.0669 77.293 64.0669 76.1339C64.0669 74.9747 63.1185 74.0263 61.9594 74.0263ZM88.4094 52.6344H66.4906C65.3315 52.6344 64.3831 53.5828 64.3831 54.742C64.3831 55.9012 65.3315 56.8496 66.4906 56.8496H88.4094C89.5685 56.8496 90.5169 55.9012 90.5169 54.742C90.5169 53.5828 89.5685 52.6344 88.4094 52.6344ZM88.4094 74.0263H70.495C69.3358 74.0263 68.3874 74.9747 68.3874 76.1339C68.3874 77.293 69.3358 78.2414 70.495 78.2414H88.4094C89.5685 78.2414 90.5169 77.293 90.5169 76.1339C90.5169 74.9747 89.5685 74.0263 88.4094 74.0263ZM88.4094 63.383H82.9297C81.7705 63.383 80.8221 64.3315 80.8221 65.4906C80.8221 66.6498 81.7705 67.5982 82.9297 67.5982H88.4094C89.5685 67.5982 90.5169 66.6498 90.5169 65.4906C90.5169 64.3315 89.5685 63.383 88.4094 63.383ZM88.4094 63.383H82.9297C81.7705 63.383 80.8221 64.3315 80.8221 65.4906C80.8221 66.6498 81.7705 67.5982 82.9297 67.5982H88.4094C89.5685 67.5982 90.5169 66.6498 90.5169 65.4906C90.5169 64.3315 89.5685 63.383 88.4094 63.383ZM88.4094 74.0263H70.495C69.3358 74.0263 68.3874 74.9747 68.3874 76.1339C68.3874 77.293 69.3358 78.2414 70.495 78.2414H88.4094C89.5685 78.2414 90.5169 77.293 90.5169 76.1339C90.5169 74.9747 89.5685 74.0263 88.4094 74.0263ZM88.4094 52.6344H66.4906C65.3315 52.6344 64.3831 53.5828 64.3831 54.742C64.3831 55.9012 65.3315 56.8496 66.4906 56.8496H88.4094C89.5685 56.8496 90.5169 55.9012 90.5169 54.742C90.5169 53.5828 89.5685 52.6344 88.4094 52.6344ZM61.9594 74.0263H49.5247C48.4709 74.0263 47.6279 74.7639 47.4171 75.7123V76.1339C47.4171 76.8715 47.8386 77.5038 48.3655 77.9253C48.6817 78.136 49.1032 78.2414 49.5247 78.2414H62.0647C63.2239 78.2414 64.0669 77.293 64.0669 76.1339C64.0669 74.9747 63.1185 74.0263 61.9594 74.0263ZM74.4994 63.383H49.5247C48.3655 63.383 47.4171 64.3315 47.4171 65.4906C47.4171 66.6498 48.3655 67.5982 49.5247 67.5982H74.4994C75.6586 67.5982 76.607 66.6498 76.607 65.4906C76.607 64.3315 75.6586 63.383 74.4994 63.383ZM58.0603 52.6344H49.5247C48.3655 52.6344 47.4171 53.5828 47.4171 54.742C47.4171 55.1635 47.5225 55.585 47.8386 56.0065C48.1548 56.5334 48.787 56.8496 49.5247 56.8496H58.0603C59.2195 56.8496 60.1679 55.9012 60.1679 54.742C60.1679 53.5828 59.2195 52.6344 58.0603 52.6344ZM37.3008 28.9243V60.1163C38.0384 60.1163 38.6707 60.1163 39.4084 60.0109V29.0297C38.6707 29.0297 38.0384 28.9243 37.3008 28.9243ZM49.5247 74.0263C48.4709 74.0263 47.6279 74.7639 47.4171 75.7123L51.4215 74.0263H49.5247ZM58.0603 52.6344H49.5247C48.3655 52.6344 47.4171 53.5828 47.4171 54.742C47.4171 55.1635 47.5225 55.585 47.8386 56.0065C48.1548 56.5334 48.787 56.8496 49.5247 56.8496H58.0603C59.2195 56.8496 60.1679 55.9012 60.1679 54.742C60.1679 53.5828 59.2195 52.6344 58.0603 52.6344ZM80.6113 26.9221H78.6092V24.7091C78.6092 19.4402 74.2886 15.1197 69.0197 15.1197C64.8046 15.1197 61.3271 17.7541 59.9572 21.4424L62.697 24.1822H63.6454C63.9615 21.5478 66.2799 19.4402 69.0197 19.4402C71.9703 19.4402 74.394 21.8639 74.394 24.8145V26.9221H67.6498C68.4928 28.8189 68.9143 30.0834 69.4412 31.1372H78.3984V41.8858H59.4303V31.1372H67.1229L65.8584 28.1866L62.1701 28.3974C61.5378 28.3974 61.0109 28.1866 60.5894 27.7651L59.7464 26.9221L59.4303 26.6059V26.9221H57.4281C56.2689 26.9221 55.3205 27.8705 55.3205 29.0297V43.9934C55.3205 45.0472 56.0582 45.8902 57.1119 46.101H57.4281H80.6113C81.7705 46.101 82.7189 45.1526 82.7189 43.9934V29.0297C82.7189 27.8705 81.7705 26.9221 80.6113 26.9221ZM74.4994 63.383H49.5247C48.3655 63.383 47.4171 64.3315 47.4171 65.4906C47.4171 66.6498 48.3655 67.5982 49.5247 67.5982H74.4994C75.6586 67.5982 76.607 66.6498 76.607 65.4906C76.607 64.3315 75.6586 63.383 74.4994 63.383ZM61.9594 74.0263H57.8496V74.3424C57.8496 75.1854 57.3227 76.0285 56.585 76.3446L52.0538 78.2414H62.0647C63.2239 78.2414 64.0669 77.293 64.0669 76.1339C64.0669 74.9747 63.1185 74.0263 61.9594 74.0263ZM88.4094 52.6344H66.4906C65.3315 52.6344 64.3831 53.5828 64.3831 54.742C64.3831 55.9012 65.3315 56.8496 66.4906 56.8496H88.4094C89.5685 56.8496 90.5169 55.9012 90.5169 54.742C90.5169 53.5828 89.5685 52.6344 88.4094 52.6344ZM88.4094 74.0263H70.495C69.3358 74.0263 68.3874 74.9747 68.3874 76.1339C68.3874 77.293 69.3358 78.2414 70.495 78.2414H88.4094C89.5685 78.2414 90.5169 77.293 90.5169 76.1339C90.5169 74.9747 89.5685 74.0263 88.4094 74.0263ZM88.4094 63.383H82.9297C81.7705 63.383 80.8221 64.3315 80.8221 65.4906C80.8221 66.6498 81.7705 67.5982 82.9297 67.5982H88.4094C89.5685 67.5982 90.5169 66.6498 90.5169 65.4906C90.5169 64.3315 89.5685 63.383 88.4094 63.383ZM88.4094 63.383H82.9297C81.7705 63.383 80.8221 64.3315 80.8221 65.4906C80.8221 66.6498 81.7705 67.5982 82.9297 67.5982H88.4094C89.5685 67.5982 90.5169 66.6498 90.5169 65.4906C90.5169 64.3315 89.5685 63.383 88.4094 63.383ZM88.4094 74.0263H70.495C69.3358 74.0263 68.3874 74.9747 68.3874 76.1339C68.3874 77.293 69.3358 78.2414 70.495 78.2414H88.4094C89.5685 78.2414 90.5169 77.293 90.5169 76.1339C90.5169 74.9747 89.5685 74.0263 88.4094 74.0263ZM74.4994 63.383H49.5247C48.3655 63.383 47.4171 64.3315 47.4171 65.4906C47.4171 66.6498 48.3655 67.5982 49.5247 67.5982H74.4994C75.6586 67.5982 76.607 66.6498 76.607 65.4906C76.607 64.3315 75.6586 63.383 74.4994 63.383ZM88.4094 52.6344H66.4906C65.3315 52.6344 64.3831 53.5828 64.3831 54.742C64.3831 55.9012 65.3315 56.8496 66.4906 56.8496H88.4094C89.5685 56.8496 90.5169 55.9012 90.5169 54.742C90.5169 53.5828 89.5685 52.6344 88.4094 52.6344ZM58.0603 52.6344H49.5247C48.3655 52.6344 47.4171 53.5828 47.4171 54.742C47.4171 55.1635 47.5225 55.585 47.8386 56.0065C48.1548 56.5334 48.787 56.8496 49.5247 56.8496H58.0603C59.2195 56.8496 60.1679 55.9012 60.1679 54.742C60.1679 53.5828 59.2195 52.6344 58.0603 52.6344ZM37.3008 28.9243V60.1163C38.0384 60.1163 38.6707 60.1163 39.4084 60.0109V29.0297C38.6707 29.0297 38.0384 28.9243 37.3008 28.9243ZM49.5247 74.0263C48.4709 74.0263 47.6279 74.7639 47.4171 75.7123L51.4215 74.0263H49.5247ZM58.0603 52.6344H49.5247C48.3655 52.6344 47.4171 53.5828 47.4171 54.742C47.4171 55.1635 47.5225 55.585 47.8386 56.0065C48.1548 56.5334 48.787 56.8496 49.5247 56.8496H58.0603C59.2195 56.8496 60.1679 55.9012 60.1679 54.742C60.1679 53.5828 59.2195 52.6344 58.0603 52.6344ZM80.6113 26.9221H78.6092V24.7091C78.6092 19.4402 74.2886 15.1197 69.0197 15.1197C64.8046 15.1197 61.3271 17.7541 59.9572 21.4424L62.697 24.1822H63.6454C63.9615 21.5478 66.2799 19.4402 69.0197 19.4402C71.9703 19.4402 74.394 21.8639 74.394 24.8145V26.9221H67.6498C68.4928 28.8189 68.9143 30.0834 69.4412 31.1372H78.3984V41.8858H59.4303V31.1372H67.1229L65.8584 28.1866L62.1701 28.3974C61.5378 28.3974 61.0109 28.1866 60.5894 27.7651L59.7464 26.9221L59.4303 26.6059V26.9221H57.4281C56.2689 26.9221 55.3205 27.8705 55.3205 29.0297V43.9934C55.3205 45.0472 56.0582 45.8902 57.1119 46.101H57.4281H80.6113C81.7705 46.101 82.7189 45.1526 82.7189 43.9934V29.0297C82.7189 27.8705 81.7705 26.9221 80.6113 26.9221ZM74.4994 63.383H49.5247C48.3655 63.383 47.4171 64.3315 47.4171 65.4906C47.4171 66.6498 48.3655 67.5982 49.5247 67.5982H74.4994C75.6586 67.5982 76.607 66.6498 76.607 65.4906C76.607 64.3315 75.6586 63.383 74.4994 63.383ZM61.9594 74.0263H57.8496V74.3424C57.8496 75.1854 57.3227 76.0285 56.585 76.3446L52.0538 78.2414H62.0647C63.2239 78.2414 64.0669 77.293 64.0669 76.1339C64.0669 74.9747 63.1185 74.0263 61.9594 74.0263ZM88.4094 52.6344H66.4906C65.3315 52.6344 64.3831 53.5828 64.3831 54.742C64.3831 55.9012 65.3315 56.8496 66.4906 56.8496H88.4094C89.5685 56.8496 90.5169 55.9012 90.5169 54.742C90.5169 53.5828 89.5685 52.6344 88.4094 52.6344ZM88.4094 74.0263H70.495C69.3358 74.0263 68.3874 74.9747 68.3874 76.1339C68.3874 77.293 69.3358 78.2414 70.495 78.2414H88.4094C89.5685 78.2414 90.5169 77.293 90.5169 76.1339C90.5169 74.9747 89.5685 74.0263 88.4094 74.0263ZM88.4094 63.383H82.9297C81.7705 63.383 80.8221 64.3315 80.8221 65.4906C80.8221 66.6498 81.7705 67.5982 82.9297 67.5982H88.4094C89.5685 67.5982 90.5169 66.6498 90.5169 65.4906C90.5169 64.3315 89.5685 63.383 88.4094 63.383ZM88.4094 63.383H82.9297C81.7705 63.383 80.8221 64.3315 80.8221 65.4906C80.8221 66.6498 81.7705 67.5982 82.9297 67.5982H88.4094C89.5685 67.5982 90.5169 66.6498 90.5169 65.4906C90.5169 64.3315 89.5685 63.383 88.4094 63.383ZM88.4094 74.0263H70.495C69.3358 74.0263 68.3874 74.9747 68.3874 76.1339C68.3874 77.293 69.3358 78.2414 70.495 78.2414H88.4094C89.5685 78.2414 90.5169 77.293 90.5169 76.1339C90.5169 74.9747 89.5685 74.0263 88.4094 74.0263ZM88.4094 52.6344H66.4906C65.3315 52.6344 64.3831 53.5828 64.3831 54.742C64.3831 55.9012 65.3315 56.8496 66.4906 56.8496H88.4094C89.5685 56.8496 90.5169 55.9012 90.5169 54.742C90.5169 53.5828 89.5685 52.6344 88.4094 52.6344ZM58.0603 52.6344H49.5247C48.3655 52.6344 47.4171 53.5828 47.4171 54.742C47.4171 55.1635 47.5225 55.585 47.8386 56.0065C48.1548 56.5334 48.787 56.8496 49.5247 56.8496H58.0603C59.2195 56.8496 60.1679 55.9012 60.1679 54.742C60.1679 53.5828 59.2195 52.6344 58.0603 52.6344ZM37.3008 28.9243V60.1163C38.0384 60.1163 38.6707 60.1163 39.4084 60.0109V29.0297C38.6707 29.0297 38.0384 28.9243 37.3008 28.9243ZM49.5247 74.0263C48.4709 74.0263 47.6279 74.7639 47.4171 75.7123L51.4215 74.0263H49.5247ZM58.0603 52.6344H49.5247C48.3655 52.6344 47.4171 53.5828 47.4171 54.742C47.4171 55.1635 47.5225 55.585 47.8386 56.0065C48.1548 56.5334 48.787 56.8496 49.5247 56.8496H58.0603C59.2195 56.8496 60.1679 55.9012 60.1679 54.742C60.1679 53.5828 59.2195 52.6344 58.0603 52.6344ZM80.6113 26.9221H78.6092V24.7091C78.6092 19.4402 74.2886 15.1197 69.0197 15.1197C64.8046 15.1197 61.3271 17.7541 59.9572 21.4424L62.697 24.1822H63.6454C63.9615 21.5478 66.2799 19.4402 69.0197 19.4402C71.9703 19.4402 74.394 21.8639 74.394 24.8145V26.9221H67.6498C68.4928 28.8189 68.9143 30.0834 69.4412 31.1372H78.3984V41.8858H59.4303V31.1372H67.1229L65.8584 28.1866L62.1701 28.3974C61.5378 28.3974 61.0109 28.1866 60.5894 27.7651L59.7464 26.9221L59.4303 26.6059V26.9221H57.4281C56.2689 26.9221 55.3205 27.8705 55.3205 29.0297V43.9934C55.3205 45.0472 56.0582 45.8902 57.1119 46.101H57.4281H80.6113C81.7705 46.101 82.7189 45.1526 82.7189 43.9934V29.0297C82.7189 27.8705 81.7705 26.9221 80.6113 26.9221ZM74.4994 63.383H49.5247C48.3655 63.383 47.4171 64.3315 47.4171 65.4906C47.4171 66.6498 48.3655 67.5982 49.5247 67.5982H74.4994C75.6586 67.5982 76.607 66.6498 76.607 65.4906C76.607 64.3315 75.6586 63.383 74.4994 63.383ZM61.9594 74.0263H57.8496V74.3424C57.8496 75.1854 57.3227 76.0285 56.585 76.3446L52.0538 78.2414H62.0647C63.2239 78.2414 64.0669 77.293 64.0669 76.1339C64.0669 74.9747 63.1185 74.0263 61.9594 74.0263ZM88.4094 52.6344H66.4906C65.3315 52.6344 64.3831 53.5828 64.3831 54.742C64.3831 55.9012 65.3315 56.8496 66.4906 56.8496H88.4094C89.5685 56.8496 90.5169 55.9012 90.5169 54.742C90.5169 53.5828 89.5685 52.6344 88.4094 52.6344ZM88.4094 74.0263H70.495C69.3358 74.0263 68.3874 74.9747 68.3874 76.1339C68.3874 77.293 69.3358 78.2414 70.495 78.2414H88.4094C89.5685 78.2414 90.5169 77.293 90.5169 76.1339C90.5169 74.9747 89.5685 74.0263 88.4094 74.0263ZM88.4094 63.383H82.9297C81.7705 63.383 80.8221 64.3315 80.8221 65.4906C80.8221 66.6498 81.7705 67.5982 82.9297 67.5982H88.4094C89.5685 67.5982 90.5169 66.6498 90.5169 65.4906C90.5169 64.3315 89.5685 63.383 88.4094 63.383ZM88.4094 63.383H82.9297C81.7705 63.383 80.8221 64.3315 80.8221 65.4906C80.8221 66.6498 81.7705 67.5982 82.9297 67.5982H88.4094C89.5685 67.5982 90.5169 66.6498 90.5169 65.4906C90.5169 64.3315 89.5685 63.383 88.4094 63.383ZM88.4094 74.0263H70.495C69.3358 74.0263 68.3874 74.9747 68.3874 76.1339C68.3874 77.293 69.3358 78.2414 70.495 78.2414H88.4094C89.5685 78.2414 90.5169 77.293 90.5169 76.1339C90.5169 74.9747 89.5685 74.0263 88.4094 74.0263ZM88.4094 52.6344H66.4906C65.3315 52.6344 64.3831 53.5828 64.3831 54.742C64.3831 55.9012 65.3315 56.8496 66.4906 56.8496H88.4094C89.5685 56.8496 90.5169 55.9012 90.5169 54.742C90.5169 53.5828 89.5685 52.6344 88.4094 52.6344ZM58.0603 52.6344H49.5247C48.3655 52.6344 47.4171 53.5828 47.4171 54.742C47.4171 55.1635 47.5225 55.585 47.8386 56.0065C48.1548 56.5334 48.787 56.8496 49.5247 56.8496H58.0603C59.2195 56.8496 60.1679 55.9012 60.1679 54.742C60.1679 53.5828 59.2195 52.6344 58.0603 52.6344Z" fill="#39B4EF"/>
<path d="M37.299 28.9243V60.1163C38.0366 60.1163 38.6689 60.1163 39.4065 60.011V29.0297C38.6689 29.0297 38.0366 28.9243 37.299 28.9243ZM37.299 28.9243V60.1163C38.0366 60.1163 38.6689 60.1163 39.4065 60.011V29.0297C38.6689 29.0297 38.0366 28.9243 37.299 28.9243ZM37.299 28.9243V60.1163C38.0366 60.1163 38.6689 60.1163 39.4065 60.011V29.0297C38.6689 29.0297 38.0366 28.9243 37.299 28.9243ZM37.299 28.9243V60.1163C38.0366 60.1163 38.6689 60.1163 39.4065 60.011V29.0297C38.6689 29.0297 38.0366 28.9243 37.299 28.9243ZM37.299 28.9243V60.1163C38.0366 60.1163 38.6689 60.1163 39.4065 60.011V29.0297C38.6689 29.0297 38.0366 28.9243 37.299 28.9243ZM37.299 28.9243V60.1163C38.0366 60.1163 38.6689 60.1163 39.4065 60.011V29.0297C38.6689 29.0297 38.0366 28.9243 37.299 28.9243ZM37.299 28.9243V60.1163C38.0366 60.1163 38.6689 60.1163 39.4065 60.011V29.0297C38.6689 29.0297 38.0366 28.9243 37.299 28.9243ZM37.299 28.9243V60.1163C38.0366 60.1163 38.6689 60.1163 39.4065 60.011V29.0297C38.6689 29.0297 38.0366 28.9243 37.299 28.9243ZM37.299 28.9243V60.1163C38.0366 60.1163 38.6689 60.1163 39.4065 60.011V29.0297C38.6689 29.0297 38.0366 28.9243 37.299 28.9243ZM102.528 20.0725C102.528 19.9671 102.423 19.8617 102.318 19.8617C102.212 19.7564 102.107 19.651 102.001 19.5456L84.4032 1.73664C83.9817 1.31513 83.4548 1.10437 82.9279 1.10437H37.299C36.1398 1.10437 35.1914 2.05278 35.1914 3.21194V88.147C35.1914 89.3062 36.1398 90.2546 37.299 90.2546H100.631C101.791 90.2546 102.739 89.3062 102.739 88.147V20.9155C102.739 20.5994 102.634 20.2833 102.528 20.0725ZM98.5239 86.0395H39.4065V5.31951H82.0848L82.9279 6.16254L98.5239 21.7586V86.0395ZM37.299 28.9243V60.1163C38.0366 60.1163 38.6689 60.1163 39.4065 60.011V29.0297C38.6689 29.0297 38.0366 28.9243 37.299 28.9243ZM37.299 28.9243V60.1163C38.0366 60.1163 38.6689 60.1163 39.4065 60.011V29.0297C38.6689 29.0297 38.0366 28.9243 37.299 28.9243ZM37.299 28.9243V60.1163C38.0366 60.1163 38.6689 60.1163 39.4065 60.011V29.0297C38.6689 29.0297 38.0366 28.9243 37.299 28.9243ZM37.299 28.9243V60.1163C38.0366 60.1163 38.6689 60.1163 39.4065 60.011V29.0297C38.6689 29.0297 38.0366 28.9243 37.299 28.9243ZM37.299 28.9243V60.1163C38.0366 60.1163 38.6689 60.1163 39.4065 60.011V29.0297C38.6689 29.0297 38.0366 28.9243 37.299 28.9243ZM37.299 28.9243V60.1163C38.0366 60.1163 38.6689 60.1163 39.4065 60.011V29.0297C38.6689 29.0297 38.0366 28.9243 37.299 28.9243ZM37.299 28.9243V60.1163C38.0366 60.1163 38.6689 60.1163 39.4065 60.011V29.0297C38.6689 29.0297 38.0366 28.9243 37.299 28.9243ZM37.299 28.9243V60.1163C38.0366 60.1163 38.6689 60.1163 39.4065 60.011V29.0297C38.6689 29.0297 38.0366 28.9243 37.299 28.9243Z" fill="#39B4EF"/>
<path d="M82.9297 3.21204V20.9156H100.633L82.9297 3.21204ZM85.0373 18.8081V8.27021L95.5751 18.8081H85.0373Z" fill="#39B4EF"/>
<path d="M102.528 20.0725C102.528 19.9672 102.423 19.8618 102.318 19.8618C102.212 19.7564 102.107 19.651 102.001 19.5456L84.4032 1.73667C83.7709 1.20978 82.8225 0.999026 82.0849 1.31516C81.3472 1.6313 80.8203 2.36895 80.8203 3.21197V20.9156C80.8203 22.0747 81.7687 23.0231 82.9279 23.0231H100.631C101.475 23.0231 102.212 22.4962 102.528 21.7586C102.739 21.1263 102.739 20.5994 102.528 20.0725ZM85.0355 18.808V8.27014L95.5733 18.808H85.0355Z" fill="#39B4EF"/>
<path d="M124.132 90.36C123.921 90.5708 123.711 90.8869 123.605 91.2031L121.603 90.36L120.865 90.0439L119.601 89.517C119.706 89.3062 119.706 89.2009 119.812 88.9901L114.648 83.8266H105.691L102.635 82.562L100.527 81.719H115.491L122.551 88.7794L124.132 90.36Z" fill="#39B4EF"/>
<path d="M126.343 89.6224C126.133 89.6224 126.027 89.6224 125.922 89.6224C125.29 89.6224 124.657 89.8331 124.13 90.36C123.92 90.5708 123.709 90.8869 123.604 91.2031C123.393 91.6246 123.393 92.1515 123.498 92.6784L121.601 90.6762L121.074 90.1493L120.021 89.0955L114.857 83.9319H100.631C99.4718 83.9319 98.5234 82.9835 98.5234 81.8244C98.5234 80.6652 99.4718 79.7168 100.631 79.7168H115.595C116.122 79.7168 116.649 79.9276 117.07 80.3491L122.866 86.1449L126.343 89.6224Z" fill="#39B4EF"/>
<path d="M124.132 18.808L122.552 20.3887L115.491 27.449H100.633L102.74 26.606L105.796 25.3415H114.754L119.917 20.1779C119.812 19.9672 119.706 19.8618 119.706 19.651L120.971 19.1241L121.709 18.808L123.711 17.965C123.711 18.2811 123.921 18.5972 124.132 18.808Z" fill="#39B4EF"/>
<path d="M126.554 19.4403L124.447 21.5479L122.866 23.1285L117.07 28.9243C116.754 29.2405 116.122 29.5566 115.595 29.5566H100.631C99.4718 29.5566 98.5234 28.6082 98.5234 27.449C98.5234 26.2899 99.4718 25.3415 100.631 25.3415H114.752L119.915 20.1779L120.864 19.2295L121.391 18.5973L123.287 16.7004C123.182 17.2273 123.287 17.6488 123.498 18.0704C123.604 18.3865 123.814 18.5973 124.025 18.808C124.763 19.4403 125.711 19.651 126.554 19.4403Z" fill="#39B4EF"/>
<path d="M109.167 43.1504H100.631C99.4718 43.1504 98.5234 42.202 98.5234 41.0429C98.5234 39.8837 99.4718 38.9353 100.631 38.9353H109.167C110.326 38.9353 111.274 39.8837 111.274 41.0429C111.274 42.202 110.326 43.1504 109.167 43.1504Z" fill="#39B4EF"/>
<path d="M109.167 70.4435H100.631C99.4718 70.4435 98.5234 69.4951 98.5234 68.336C98.5234 67.1768 99.4718 66.2284 100.631 66.2284H109.167C110.326 66.2284 111.274 67.1768 111.274 68.336C111.274 69.4951 110.326 70.4435 109.167 70.4435Z" fill="#39B4EF"/>
<path d="M124.552 56.8497H100.631C99.4718 56.8497 98.5234 55.9013 98.5234 54.7421C98.5234 53.5829 99.4718 52.6345 100.631 52.6345H124.552C124.447 52.7399 124.341 52.8453 124.13 52.9507C123.604 53.3722 123.393 54.1098 123.393 54.7421C123.393 55.3744 123.604 56.0066 124.13 56.5335C124.236 56.6389 124.341 56.7443 124.552 56.8497Z" fill="#39B4EF"/>
<path d="M128.344 55.3743C128.449 54.9528 128.449 54.4259 128.344 54.0044C128.449 54.2152 128.449 54.4259 128.449 54.6367C128.449 54.9528 128.344 55.1636 128.344 55.3743Z" fill="#39B4EF"/>
<path d="M125.922 12.4852C123.393 12.4852 121.285 14.5928 121.285 17.1219C121.285 17.6488 121.391 18.0703 121.496 18.5972C121.496 18.7026 121.601 18.8079 121.601 18.9133C121.812 19.4402 122.128 19.9671 122.655 20.494C123.182 21.0209 123.814 21.337 124.447 21.6532C124.868 21.7585 125.395 21.8639 125.922 21.8639C128.451 21.8639 130.558 19.7563 130.558 17.2273C130.558 14.5928 128.451 12.4852 125.922 12.4852ZM127.713 18.8079C127.397 19.1241 126.976 19.3348 126.554 19.4402C125.711 19.651 124.868 19.4402 124.236 18.8079C124.025 18.5972 123.814 18.281 123.709 18.0703C123.498 17.6488 123.498 17.1219 123.498 16.7004C123.603 16.1735 123.814 15.6466 124.13 15.3305C124.552 14.9089 125.29 14.5928 125.922 14.5928C126.659 14.5928 127.292 14.9089 127.713 15.3305C128.662 16.1735 128.662 17.8595 127.713 18.8079Z" fill="#39B4EF"/>
<path d="M130.662 12.2745C129.398 11.01 127.712 10.2723 125.92 10.2723C124.129 10.2723 122.443 11.01 121.178 12.2745C119.176 14.2767 118.649 17.2273 119.703 19.651C119.808 19.8618 119.808 19.9672 119.913 20.1779C120.23 20.8102 120.651 21.3371 121.178 21.864C121.705 22.3909 122.232 22.8124 122.864 23.1285C123.812 23.6554 124.866 23.8662 125.92 23.8662C127.712 23.8662 129.503 23.1285 130.662 21.864C131.927 20.5994 132.664 18.808 132.664 17.0166C132.664 15.3305 131.927 13.5391 130.662 12.2745ZM127.712 18.808C127.395 19.1241 126.974 19.3349 126.552 19.4403C125.709 19.651 124.866 19.4403 124.234 18.808C124.023 18.5972 123.813 18.2811 123.707 18.0703C123.496 17.6488 123.496 17.1219 123.496 16.7004C123.602 16.1735 123.813 15.6466 124.129 15.3305C124.55 14.909 125.288 14.5929 125.92 14.5929C126.658 14.5929 127.29 14.909 127.712 15.3305C128.66 16.1735 128.66 17.8596 127.712 18.808Z" fill="#39B4EF"/>
<path d="M125.922 50.1055C124.13 50.1055 122.55 51.1593 121.812 52.6346C121.496 53.2668 121.285 54.0045 121.285 54.7421C121.285 55.4798 121.496 56.2174 121.812 56.8497C122.55 58.325 124.13 59.3788 125.922 59.3788C128.451 59.3788 130.558 57.2712 130.558 54.7421C130.558 52.213 128.451 50.1055 125.922 50.1055ZM128.346 55.4798C128.24 55.9013 128.029 56.2174 127.713 56.5336C126.87 57.3766 125.5 57.482 124.552 56.8497C124.447 56.7443 124.236 56.6389 124.13 56.5336C123.603 56.0067 123.393 55.3744 123.393 54.7421C123.393 54.1099 123.603 53.4776 124.13 52.9507C124.236 52.8453 124.341 52.7399 124.552 52.6346C124.973 52.3184 125.5 52.213 125.922 52.213C126.554 52.213 127.292 52.4238 127.713 52.9507C127.924 53.2668 128.135 53.583 128.24 53.8991V54.0045C128.451 54.5314 128.451 54.9529 128.346 55.4798Z" fill="#39B4EF"/>
<path d="M130.767 49.8947C128.133 47.2602 123.812 47.2602 121.178 49.8947C120.335 50.7377 119.808 51.6861 119.492 52.6345C119.281 53.3722 119.176 54.0044 119.176 54.7421C119.176 55.4797 119.281 56.2174 119.492 56.8497C119.808 57.7981 120.335 58.7465 121.073 59.4841C122.337 60.854 124.129 61.4863 125.815 61.4863C127.606 61.4863 129.292 60.854 130.662 59.4841C131.927 58.2196 132.664 56.4281 132.664 54.7421C132.77 52.9506 132.032 51.1592 130.767 49.8947ZM124.55 56.8497C124.445 56.7443 124.234 56.6389 124.129 56.5335C123.602 56.0066 123.391 55.3744 123.391 54.7421C123.391 54.1098 123.602 53.4775 124.129 52.9506C124.234 52.8453 124.339 52.7399 124.55 52.6345C124.972 52.3184 125.498 52.213 125.92 52.213C126.552 52.213 127.29 52.4237 127.711 52.9506C127.922 53.2668 128.133 53.5829 128.238 53.899V54.0044C128.344 54.4259 128.344 54.9528 128.238 55.3744C128.133 55.7959 127.922 56.112 127.606 56.4281C126.868 57.3765 125.498 57.4819 124.55 56.8497Z" fill="#39B4EF"/>
<path d="M125.922 87.5148C125.395 87.5148 124.973 87.6201 124.447 87.7255C123.709 87.9363 123.077 88.3578 122.655 88.8847C122.234 89.3062 121.812 89.8331 121.601 90.4654C121.601 90.5708 121.496 90.6761 121.496 90.7815C121.391 91.203 121.285 91.7299 121.285 92.2568C121.285 94.7859 123.393 96.8935 125.922 96.8935C128.451 96.8935 130.558 94.7859 130.558 92.2568C130.558 89.7277 128.451 87.5148 125.922 87.5148ZM127.713 93.9429C126.765 94.8913 125.079 94.8913 124.13 93.9429C123.814 93.6267 123.603 93.0998 123.498 92.6783C123.393 92.1514 123.498 91.7299 123.603 91.203C123.709 90.8869 123.92 90.5707 124.13 90.36C124.657 89.8331 125.29 89.6223 125.922 89.6223H126.343C126.87 89.7277 127.397 89.9385 127.713 90.36C128.662 91.3084 128.662 92.9945 127.713 93.9429Z" fill="#39B4EF"/>
<path d="M130.768 87.304C128.66 85.1964 125.394 84.7749 122.864 86.1448C122.232 86.461 121.705 86.8825 121.284 87.304C120.757 87.8309 120.335 88.3578 120.019 88.9901C119.914 89.2008 119.914 89.3062 119.808 89.5169C118.86 91.9407 119.387 94.8913 121.284 96.7881C122.548 98.158 124.34 98.7903 126.026 98.7903C127.817 98.7903 129.503 98.158 130.873 96.7881C132.138 95.5235 132.875 93.7321 132.875 92.046C132.77 90.36 132.032 88.5685 130.768 87.304ZM127.712 93.9428C126.763 94.8912 125.077 94.8912 124.129 93.9428C123.813 93.6267 123.602 93.0998 123.497 92.6783C123.391 92.1514 123.497 91.7299 123.602 91.203C123.707 90.8869 123.918 90.5707 124.129 90.36C124.656 89.8331 125.288 89.6223 125.92 89.6223H126.342C126.869 89.7277 127.396 89.9385 127.712 90.36C128.66 91.3084 128.66 92.9944 127.712 93.9428Z" fill="#39B4EF"/>
<path d="M90.5128 54.7421C90.5128 55.9013 89.5644 56.8497 88.4052 56.8497H66.4865C65.3273 56.8497 64.3789 55.9013 64.3789 54.7421C64.3789 53.5829 65.3273 52.6345 66.4865 52.6345H88.4052C89.5644 52.6345 90.5128 53.5829 90.5128 54.7421Z" fill="#39B4EF"/>
<path d="M60.1649 54.7421C60.1649 55.9013 59.2165 56.8497 58.0573 56.8497H49.5216C48.784 56.8497 48.1517 56.5335 47.8356 56.0066C47.6248 55.6905 47.4141 55.269 47.4141 54.7421C47.4141 53.5829 48.3625 52.6345 49.5216 52.6345H58.0573C59.2165 52.6345 60.1649 53.5829 60.1649 54.7421Z" fill="#39B4EF"/>
<path d="M90.5151 65.4906C90.5151 66.6498 89.5667 67.5982 88.4076 67.5982H82.9279C81.7687 67.5982 80.8203 66.6498 80.8203 65.4906C80.8203 64.3315 81.7687 63.3831 82.9279 63.3831H88.4076C89.5667 63.3831 90.5151 64.3315 90.5151 65.4906Z" fill="#39B4EF"/>
<path d="M76.6039 65.4906C76.6039 66.6498 75.6555 67.5982 74.4963 67.5982H49.5216C48.3625 67.5982 47.4141 66.6498 47.4141 65.4906C47.4141 64.3315 48.3625 63.3831 49.5216 63.3831H74.4963C75.6555 63.3831 76.6039 64.3315 76.6039 65.4906Z" fill="#39B4EF"/>
<path d="M90.5123 76.1339C90.5123 77.2931 89.5639 78.2415 88.4047 78.2415H70.4904C69.3312 78.2415 68.3828 77.2931 68.3828 76.1339C68.3828 74.9748 69.3312 74.0264 70.4904 74.0264H88.4047C89.5639 74.0264 90.5123 74.9748 90.5123 76.1339Z" fill="#39B4EF"/>
<path d="M64.0639 76.1339C64.0639 77.2931 63.2208 78.2415 62.0617 78.2415H49.5216C49.1001 78.2415 48.6786 78.1361 48.3625 77.9254C47.8356 77.5039 47.4141 76.8716 47.4141 76.1339C47.4141 75.9232 47.4141 75.8178 47.4141 75.7124C47.6248 74.764 48.4678 74.0264 49.5216 74.0264H61.9563C63.1155 74.0264 64.0639 74.9748 64.0639 76.1339Z" fill="#39B4EF"/>
<path d="M80.6072 26.9221H57.424C56.2648 26.9221 55.3164 27.8705 55.3164 29.0297V43.9934C55.3164 45.0472 56.0541 45.8903 57.1078 46.101H57.424H80.6072C81.7664 46.101 82.7148 45.1526 82.7148 43.9934V29.0297C82.7148 27.8705 81.7664 26.9221 80.6072 26.9221ZM78.3943 41.8859H59.4262V31.1373H78.3943V41.8859Z" fill="#39B4EF"/>
<path d="M69.0152 15.1198C64.8001 15.1198 61.3226 17.7542 59.9527 21.4425C59.7419 21.9694 59.6365 22.4962 59.5312 23.0231C59.5312 23.2339 59.4258 23.3393 59.4258 23.55V23.7608V29.0297C59.4258 30.1889 60.3742 31.1373 61.5334 31.1373H76.4971C77.6563 31.1373 78.6047 30.1889 78.6047 29.0297V24.7092C78.6047 19.4403 74.2841 15.1198 69.0152 15.1198ZM63.6409 26.9221V24.7092C63.6409 24.4984 63.6409 24.2877 63.6409 24.1823C63.9571 21.5478 66.2754 19.4403 69.0152 19.4403C71.9658 19.4403 74.3895 21.864 74.3895 24.8146V26.9221H63.6409Z" fill="#39B4EF"/>
</g>
<defs>
<clipPath id="clip0_161_19483">
<rect width="133.333" height="100" fill="white" transform="translate(0.832031)"/>
</clipPath>
</defs>
</svg>
