<svg width="628" height="420" viewBox="0 0 628 420" fill="none" xmlns="http://www.w3.org/2000/svg">
<path d="M239.627 94.4916C321.25 54.1716 405.193 1.4616 500.013 23.0328C529.412 29.7192 556.164 46.4436 574.251 70.7532C622.607 135.761 618.68 235.326 592.404 308.498C588.979 318.049 584.692 327.306 579.183 335.84C552.514 377.126 507.582 379.075 464.234 367.139C427.558 357.034 395.061 346.643 357.172 356.916C336.189 362.603 315.85 370.423 294.941 376.379C266.472 384.485 237.124 389.987 207.482 390.541C129.049 392.011 39.4543 351.876 32.5044 264.012C32.0523 258.317 31.9769 252.596 32.2281 246.884C33.7939 211.806 45.3491 176.677 77.3855 158.466C109.589 140.154 147.797 132.913 182.245 119.927C201.83 112.543 220.837 103.774 239.627 94.4916Z" fill="#39B4EF"/>
<path opacity="0.7" d="M239.627 94.4916C321.25 54.1716 405.193 1.4616 500.013 23.0328C529.412 29.7192 556.164 46.4436 574.251 70.7532C622.607 135.761 618.68 235.326 592.404 308.498C588.979 318.049 584.692 327.306 579.183 335.84C552.514 377.126 507.582 379.075 464.234 367.139C427.558 357.034 395.061 346.643 357.172 356.916C336.189 362.603 315.85 370.423 294.941 376.379C266.472 384.485 237.124 389.987 207.482 390.541C129.049 392.011 39.4543 351.876 32.5044 264.012C32.0523 258.317 31.9769 252.596 32.2281 246.884C33.7939 211.806 45.3491 176.677 77.3855 158.466C109.589 140.154 147.797 132.913 182.245 119.927C201.83 112.543 220.837 103.774 239.627 94.4916Z" fill="white"/>
<path d="M15.7168 370.583H613.799" stroke="#002E47" stroke-miterlimit="10"/>
<path d="M553.076 193.326L567.009 327.298" stroke="#002E47" stroke-width="2" stroke-miterlimit="10"/>
<path d="M564.765 301.661L558.451 294.966" stroke="#002E47" stroke-width="2" stroke-miterlimit="10"/>
<path d="M560.369 296.965C560.369 296.965 560.553 294 557.857 291.589C556.232 290.136 547.7 286.532 546.888 289.548C546.009 292.832 554.742 299.275 560.369 296.965Z" fill="#39B4EF" stroke="#002E47" stroke-miterlimit="10"/>
<path d="M560.369 296.965L552.238 291.892" stroke="#002E47" stroke-width="0.5" stroke-miterlimit="10"/>
<path d="M566.347 316.89L560.033 310.195" stroke="#002E47" stroke-width="2" stroke-miterlimit="10"/>
<path d="M561.951 312.203C561.951 312.203 562.135 309.238 559.439 306.827C557.814 305.374 549.282 301.77 548.47 304.786C547.591 308.07 556.324 314.513 561.951 312.203Z" fill="#39B4EF" stroke="#002E47" stroke-miterlimit="10"/>
<path d="M561.95 312.203L553.828 307.129" stroke="#002E47" stroke-width="0.5" stroke-miterlimit="10"/>
<path d="M560.896 264.474L554.582 257.779" stroke="#002E47" stroke-width="2" stroke-miterlimit="10"/>
<path d="M556.5 259.787C556.5 259.787 556.684 256.822 553.988 254.411C552.363 252.958 543.831 249.354 543.019 252.37C542.139 255.654 550.873 262.097 556.5 259.787Z" fill="#39B4EF" stroke="#002E47" stroke-miterlimit="10"/>
<path d="M556.499 259.787L548.377 254.713" stroke="#002E47" stroke-width="0.5" stroke-miterlimit="10"/>
<path d="M562.488 279.712L556.166 273.017" stroke="#002E47" stroke-width="2" stroke-miterlimit="10"/>
<path d="M558.084 275.024C558.084 275.024 558.268 272.059 555.572 269.648C553.947 268.195 545.415 264.592 544.603 267.607C543.723 270.892 552.457 277.334 558.084 275.024Z" fill="#39B4EF" stroke="#002E47" stroke-miterlimit="10"/>
<path d="M558.083 275.024L549.961 269.942" stroke="#002E47" stroke-width="0.5" stroke-miterlimit="10"/>
<path d="M558.326 239.728L552.004 233.033" stroke="#002E47" stroke-width="2" stroke-miterlimit="10"/>
<path d="M553.922 235.04C553.922 235.04 554.106 232.075 551.41 229.664C549.785 228.211 541.253 224.608 540.44 227.623C539.561 230.899 548.295 237.342 553.922 235.04Z" fill="#39B4EF" stroke="#002E47" stroke-miterlimit="10"/>
<path d="M553.921 235.04L545.799 229.958" stroke="#002E47" stroke-width="0.5" stroke-miterlimit="10"/>
<path d="M555.738 214.872L549.416 208.177" stroke="#002E47" stroke-width="2" stroke-miterlimit="10"/>
<path d="M551.343 210.176C551.343 210.176 551.527 207.211 548.831 204.8C547.206 203.347 538.674 199.744 537.861 202.759C536.974 206.044 545.716 212.486 551.343 210.176Z" fill="#39B4EF" stroke="#002E47" stroke-miterlimit="10"/>
<path d="M551.343 210.176L543.213 205.103" stroke="#002E47" stroke-width="0.5" stroke-miterlimit="10"/>
<path d="M563.701 292.639L568.507 284.785" stroke="#002E47" stroke-width="2" stroke-miterlimit="10"/>
<path d="M567.042 287.146C567.042 287.146 566.254 284.29 568.398 281.366C569.687 279.611 577.299 274.319 578.706 277.099C580.246 280.123 573.02 288.238 567.042 287.146Z" fill="#39B4EF" stroke="#002E47" stroke-miterlimit="10"/>
<path d="M567.043 287.146L574.361 280.132" stroke="#002E47" stroke-width="0.5" stroke-miterlimit="10"/>
<path d="M559.531 252.546L564.338 244.692" stroke="#002E47" stroke-width="2" stroke-miterlimit="10"/>
<path d="M562.872 247.052C562.872 247.052 562.085 244.196 564.228 241.273C565.518 239.518 573.129 234.226 574.536 237.006C576.076 240.03 568.85 248.136 562.872 247.052Z" fill="#39B4EF" stroke="#002E47" stroke-miterlimit="10"/>
<path d="M562.873 247.052L570.191 240.03" stroke="#002E47" stroke-width="0.5" stroke-miterlimit="10"/>
<path d="M557.697 234.931L562.504 227.069" stroke="#002E47" stroke-width="2" stroke-miterlimit="10"/>
<path d="M561.038 229.429C561.038 229.429 560.251 226.573 562.394 223.65C563.684 221.894 571.295 216.602 572.702 219.383C574.242 222.407 567.016 230.521 561.038 229.429Z" fill="#39B4EF" stroke="#002E47" stroke-miterlimit="10"/>
<path d="M561.039 229.429L568.357 222.415" stroke="#002E47" stroke-width="0.5" stroke-miterlimit="10"/>
<path d="M555.01 209.093L559.816 201.239" stroke="#002E47" stroke-width="2" stroke-miterlimit="10"/>
<path d="M558.352 203.599C558.352 203.599 557.565 200.735 559.709 197.82C560.998 196.064 568.609 190.772 570.016 193.553C571.557 196.577 564.331 204.691 558.352 203.599Z" fill="#39B4EF" stroke="#002E47" stroke-miterlimit="10"/>
<path d="M558.352 203.599L565.67 196.585" stroke="#002E47" stroke-width="0.5" stroke-miterlimit="10"/>
<path d="M552.959 192.578C552.959 192.578 552.172 189.722 554.316 186.799C555.605 185.044 563.217 179.752 564.624 182.532C566.164 185.556 558.938 193.67 552.959 192.578Z" fill="#39B4EF" stroke="#002E47" stroke-miterlimit="10"/>
<path d="M552.959 192.578L560.277 185.564" stroke="#002E47" stroke-width="0.5" stroke-miterlimit="10"/>
<path d="M553.386 192.881C553.386 192.881 550.472 193.368 547.793 190.924C546.185 189.454 541.739 181.306 544.644 180.188C547.809 178.979 555.094 187.034 553.386 192.881Z" fill="#39B4EF" stroke="#002E47" stroke-miterlimit="10"/>
<path d="M553.385 192.881L547.197 184.85" stroke="#002E47" stroke-width="0.5" stroke-miterlimit="10"/>
<path d="M589.834 211.772L575.977 345.752" stroke="#002E47" stroke-width="2" stroke-miterlimit="10"/>
<path d="M579.043 320.2L574.236 312.346" stroke="#002E47" stroke-width="2" stroke-miterlimit="10"/>
<path d="M575.701 314.706C575.701 314.706 576.488 311.842 574.345 308.927C573.055 307.171 565.444 301.879 564.029 304.668C562.496 307.692 569.722 315.798 575.701 314.706Z" fill="#39B4EF" stroke="#002E47" stroke-miterlimit="10"/>
<path d="M575.701 314.706L568.793 308.053" stroke="#002E47" stroke-width="0.5" stroke-miterlimit="10"/>
<path d="M582.886 283.021L578.08 275.167" stroke="#002E47" stroke-width="2" stroke-miterlimit="10"/>
<path d="M579.545 277.519C579.545 277.519 580.332 274.655 578.188 271.74C576.899 269.984 569.287 264.692 567.872 267.481C566.34 270.505 573.566 278.62 579.545 277.519Z" fill="#39B4EF" stroke="#002E47" stroke-miterlimit="10"/>
<path d="M579.545 277.519L572.637 270.875" stroke="#002E47" stroke-width="0.5" stroke-miterlimit="10"/>
<path d="M581.312 298.259L576.506 290.396" stroke="#002E47" stroke-width="2" stroke-miterlimit="10"/>
<path d="M577.971 292.757C577.971 292.757 578.758 289.892 576.614 286.978C575.325 285.222 567.713 279.93 566.298 282.719C564.766 285.743 571.992 293.857 577.971 292.757Z" fill="#39B4EF" stroke="#002E47" stroke-miterlimit="10"/>
<path d="M577.97 292.757L571.062 286.112" stroke="#002E47" stroke-width="0.5" stroke-miterlimit="10"/>
<path d="M585.449 258.266L580.643 250.412" stroke="#002E47" stroke-width="2" stroke-miterlimit="10"/>
<path d="M582.107 252.773C582.107 252.773 582.894 249.908 580.751 246.994C579.461 245.238 571.85 239.946 570.435 242.735C568.903 245.759 576.129 253.865 582.107 252.773Z" fill="#39B4EF" stroke="#002E47" stroke-miterlimit="10"/>
<path d="M582.107 252.773L575.199 246.12" stroke="#002E47" stroke-width="0.5" stroke-miterlimit="10"/>
<path d="M588.019 233.411L583.213 225.548" stroke="#002E47" stroke-width="2" stroke-miterlimit="10"/>
<path d="M584.678 227.909C584.678 227.909 585.465 225.044 583.321 222.13C582.032 220.374 574.42 215.082 573.005 217.871C571.473 220.895 578.699 229.001 584.678 227.909Z" fill="#39B4EF" stroke="#002E47" stroke-miterlimit="10"/>
<path d="M584.678 227.909L577.77 221.264" stroke="#002E47" stroke-width="0.5" stroke-miterlimit="10"/>
<path d="M579.854 311.161L586.167 304.458" stroke="#002E47" stroke-width="2" stroke-miterlimit="10"/>
<path d="M584.249 306.466C584.249 306.466 584.065 303.5 586.761 301.09C588.385 299.636 596.918 296.033 597.73 299.04C598.609 302.324 589.876 308.767 584.249 306.466Z" fill="#39B4EF" stroke="#002E47" stroke-miterlimit="10"/>
<path d="M584.25 306.466L592.849 301.115" stroke="#002E47" stroke-width="0.5" stroke-miterlimit="10"/>
<path d="M584 271.06L590.313 264.365" stroke="#002E47" stroke-width="2" stroke-miterlimit="10"/>
<path d="M588.395 266.372C588.395 266.372 588.211 263.407 590.907 260.996C592.532 259.543 601.064 255.931 601.876 258.947C602.755 262.223 594.022 268.674 588.395 266.372Z" fill="#39B4EF" stroke="#002E47" stroke-miterlimit="10"/>
<path d="M588.396 266.372L596.996 261.013" stroke="#002E47" stroke-width="0.5" stroke-miterlimit="10"/>
<path d="M585.824 253.445L592.138 246.742" stroke="#002E47" stroke-width="2" stroke-miterlimit="10"/>
<path d="M590.219 248.749C590.219 248.749 590.035 245.784 592.731 243.373C594.356 241.92 602.888 238.308 603.701 241.324C604.58 244.608 595.846 251.051 590.219 248.749Z" fill="#39B4EF" stroke="#002E47" stroke-miterlimit="10"/>
<path d="M590.221 248.749L598.82 243.398" stroke="#002E47" stroke-width="0.5" stroke-miterlimit="10"/>
<path d="M588.496 227.606L594.81 220.912" stroke="#002E47" stroke-width="2" stroke-miterlimit="10"/>
<path d="M592.891 222.919C592.891 222.919 592.707 219.954 595.403 217.543C597.028 216.09 605.56 212.478 606.372 215.494C607.252 218.77 598.518 225.221 592.891 222.919Z" fill="#39B4EF" stroke="#002E47" stroke-miterlimit="10"/>
<path d="M592.893 222.919L601.492 217.56" stroke="#002E47" stroke-width="0.5" stroke-miterlimit="10"/>
<path d="M589.878 211.025C589.878 211.025 589.693 208.06 592.39 205.649C594.014 204.196 602.547 200.592 603.359 203.599C604.238 206.875 595.505 213.326 589.878 211.025Z" fill="#39B4EF" stroke="#002E47" stroke-miterlimit="10"/>
<path d="M589.877 211.025L598.476 205.666" stroke="#002E47" stroke-width="0.5" stroke-miterlimit="10"/>
<path d="M590.229 211.403C590.229 211.403 587.274 211.277 585.163 208.337C583.891 206.564 581.211 197.677 584.284 197.182C587.625 196.644 593.101 206.035 590.229 211.403Z" fill="#39B4EF" stroke="#002E47" stroke-miterlimit="10"/>
<path d="M590.229 211.403L585.824 202.264" stroke="#002E47" stroke-width="0.5" stroke-miterlimit="10"/>
<path d="M573.951 157.214V326.642" stroke="#002E47" stroke-width="2" stroke-miterlimit="10"/>
<path d="M574.085 301.165L568.5 293.857" stroke="#002E47" stroke-width="2" stroke-miterlimit="10"/>
<path d="M570.2 296.05C570.2 296.05 570.685 293.126 568.257 290.438C566.792 288.826 558.678 284.357 557.564 287.272C556.342 290.438 564.363 297.755 570.2 296.05Z" fill="#39B4EF" stroke="#002E47" stroke-miterlimit="10"/>
<path d="M570.199 296.05L562.646 290.153" stroke="#002E47" stroke-width="0.5" stroke-miterlimit="10"/>
<path d="M574.085 269.329L568.5 262.013" stroke="#002E47" stroke-width="2" stroke-miterlimit="10"/>
<path d="M570.2 264.205C570.2 264.205 570.685 261.282 568.257 258.594C566.792 256.981 558.678 252.512 557.564 255.427C556.342 258.602 564.363 265.919 570.2 264.205Z" fill="#39B4EF" stroke="#002E47" stroke-miterlimit="10"/>
<path d="M570.199 264.205L562.646 258.308" stroke="#002E47" stroke-width="0.5" stroke-miterlimit="10"/>
<path d="M574.085 231.949L568.5 224.633" stroke="#002E47" stroke-width="2" stroke-miterlimit="10"/>
<path d="M570.2 226.825C570.2 226.825 570.685 223.902 568.257 221.214C566.792 219.601 558.678 215.132 557.564 218.047C556.342 221.214 564.363 228.53 570.2 226.825Z" fill="#39B4EF" stroke="#002E47" stroke-miterlimit="10"/>
<path d="M570.199 226.825L562.646 220.928" stroke="#002E47" stroke-width="0.5" stroke-miterlimit="10"/>
<path d="M574.085 207.06L568.5 199.744" stroke="#002E47" stroke-width="2" stroke-miterlimit="10"/>
<path d="M570.2 201.944C570.2 201.944 570.685 199.021 568.257 196.333C566.792 194.72 558.678 190.252 557.564 193.166C556.342 196.333 564.363 203.65 570.2 201.944Z" fill="#39B4EF" stroke="#002E47" stroke-miterlimit="10"/>
<path d="M570.199 201.944L562.646 196.039" stroke="#002E47" stroke-width="0.5" stroke-miterlimit="10"/>
<path d="M574.085 182.07L568.5 174.754" stroke="#002E47" stroke-width="2" stroke-miterlimit="10"/>
<path d="M570.2 176.946C570.2 176.946 570.685 174.023 568.257 171.335C566.792 169.722 558.678 165.253 557.564 168.168C556.342 171.335 564.363 178.651 570.2 176.946Z" fill="#39B4EF" stroke="#002E47" stroke-miterlimit="10"/>
<path d="M570.199 176.946L562.646 171.049" stroke="#002E47" stroke-width="0.5" stroke-miterlimit="10"/>
<path d="M573.967 310.892L579.552 303.576" stroke="#002E47" stroke-width="2" stroke-miterlimit="10"/>
<path d="M577.852 305.768C577.852 305.768 577.366 302.845 579.795 300.157C581.26 298.544 589.374 294.076 590.488 296.99C591.71 300.157 583.688 307.474 577.852 305.768Z" fill="#39B4EF" stroke="#002E47" stroke-miterlimit="10"/>
<path d="M577.852 305.768L585.856 299.552" stroke="#002E47" stroke-width="0.5" stroke-miterlimit="10"/>
<path d="M573.967 260.249L579.552 252.932" stroke="#002E47" stroke-width="2" stroke-miterlimit="10"/>
<path d="M577.852 255.133C577.852 255.133 577.366 252.21 579.795 249.522C581.26 247.909 589.374 243.44 590.488 246.355C591.71 249.522 583.688 256.838 577.852 255.133Z" fill="#39B4EF" stroke="#002E47" stroke-miterlimit="10"/>
<path d="M577.852 255.133L585.856 248.917" stroke="#002E47" stroke-width="0.5" stroke-miterlimit="10"/>
<path d="M573.967 235.259L579.552 227.942" stroke="#002E47" stroke-width="2" stroke-miterlimit="10"/>
<path d="M577.852 230.135C577.852 230.135 577.366 227.212 579.795 224.524C581.26 222.911 589.374 218.442 590.488 221.357C591.71 224.532 583.688 231.848 577.852 230.135Z" fill="#39B4EF" stroke="#002E47" stroke-miterlimit="10"/>
<path d="M577.852 230.135L585.856 223.919" stroke="#002E47" stroke-width="0.5" stroke-miterlimit="10"/>
<path d="M573.967 202.222L579.552 194.905" stroke="#002E47" stroke-width="2" stroke-miterlimit="10"/>
<path d="M577.852 197.106C577.852 197.106 577.366 194.183 579.795 191.495C581.26 189.882 589.374 185.413 590.488 188.328C591.71 191.495 583.688 198.811 577.852 197.106Z" fill="#39B4EF" stroke="#002E47" stroke-miterlimit="10"/>
<path d="M577.852 197.106L585.856 190.89" stroke="#002E47" stroke-width="0.5" stroke-miterlimit="10"/>
<path d="M573.967 176.249L579.552 168.932" stroke="#002E47" stroke-width="2" stroke-miterlimit="10"/>
<path d="M577.852 171.133C577.852 171.133 577.366 168.21 579.795 165.522C581.26 163.909 589.374 159.44 590.488 162.355C591.71 165.522 583.688 172.838 577.852 171.133Z" fill="#39B4EF" stroke="#002E47" stroke-miterlimit="10"/>
<path d="M577.854 171.133L585.858 164.917" stroke="#002E47" stroke-width="0.5" stroke-miterlimit="10"/>
<path d="M573.633 159.608C573.633 159.608 573.148 156.685 575.576 153.997C577.041 152.384 585.155 147.916 586.269 150.83C587.491 154.006 579.47 161.322 573.633 159.608Z" fill="#39B4EF" stroke="#002E47" stroke-miterlimit="10"/>
<path d="M573.633 159.608L581.629 153.401" stroke="#002E47" stroke-width="0.5" stroke-miterlimit="10"/>
<path d="M574.018 159.961C574.018 159.961 571.062 160.138 568.659 157.433C567.21 155.803 563.626 147.235 566.641 146.429C569.915 145.547 576.329 154.316 574.018 159.961Z" fill="#39B4EF" stroke="#002E47" stroke-miterlimit="10"/>
<path d="M574.018 159.961L568.701 151.318" stroke="#002E47" stroke-width="0.5" stroke-miterlimit="10"/>
<path d="M580.9 370.583H563.015L560.779 325.273H583.136L580.9 370.583Z" fill="#002E47" stroke="#002E47" stroke-miterlimit="10"/>
<path d="M105.85 88.8943C118.959 75.7433 118.959 54.4213 105.85 41.2703C92.7406 28.1192 71.4863 28.1192 58.377 41.2703C45.2678 54.4213 45.2678 75.7433 58.377 88.8943C71.4863 102.045 92.7406 102.045 105.85 88.8943Z" stroke="#002E47" stroke-miterlimit="10"/>
<path d="M112.754 70.0716C115.5 53.096 104.008 37.1011 87.0867 34.3461C70.1649 31.5911 54.2208 43.1191 51.4746 60.0948C48.7283 77.0704 60.2197 93.0653 77.1415 95.8203C94.0632 98.5754 110.007 87.0473 112.754 70.0716Z" stroke="#002E47" stroke-miterlimit="10"/>
<path d="M84.7805 65.0832C84.7805 66.5616 83.5915 67.7544 82.1178 67.7544C80.6441 67.7544 79.4551 66.5616 79.4551 65.0832C79.4551 63.6048 80.6441 62.412 82.1178 62.412C83.5831 62.412 84.7805 63.6132 84.7805 65.0832Z" stroke="#002E47" stroke-miterlimit="10"/>
<path d="M79.4472 65.0832H70.3789" stroke="#002E47" stroke-miterlimit="10"/>
<path d="M82.1172 67.7628V88.1664" stroke="#002E47" stroke-miterlimit="10"/>
<path d="M93.2864 236.888H68.5684V239.064H93.2864V236.888Z" fill="#002E47" stroke="#002E47" stroke-miterlimit="10"/>
<path d="M81.2205 221.147H68.5684V239.072H81.2205V221.147Z" fill="#002E47" stroke="#002E47" stroke-miterlimit="10"/>
<path d="M113.131 159.474H32.7891V222.348H113.131V159.474Z" fill="#002E47" stroke="#002E47" stroke-miterlimit="10"/>
<path d="M115.551 159.474H35.209V222.348H115.551V159.474Z" fill="white" stroke="#002E47" stroke-miterlimit="10"/>
<path d="M112.746 161.666H38.0137V220.156H112.746V161.666Z" fill="#EDEDED" stroke="#002E47" stroke-miterlimit="10"/>
<path d="M160.876 236.334H98.8887V239.064H160.876V236.334Z" fill="white" stroke="#002E47" stroke-miterlimit="10"/>
<path d="M38.8854 243.827L38.7933 248.489L36.3818 368.021C36.3566 369.44 35.1927 370.583 33.7777 370.583C32.3626 370.583 31.1987 369.44 31.1735 368.021L28.762 248.489L28.6699 243.827H38.8854Z" fill="white" stroke="#002E47" stroke-miterlimit="10"/>
<path d="M38.8854 243.827L38.7933 248.497H28.762L28.6699 243.827H38.8854Z" fill="#002E47" stroke="#002E47" stroke-miterlimit="10"/>
<path d="M215.168 370.583C213.753 370.583 212.589 369.44 212.564 368.021L210.061 243.835H220.276L217.772 368.021C217.747 369.449 216.583 370.583 215.168 370.583Z" fill="white" stroke="#002E47" stroke-miterlimit="10"/>
<path d="M210.153 248.497H220.184L220.276 243.835H210.061L210.153 248.497Z" fill="#002E47" stroke="#002E47" stroke-miterlimit="10"/>
<path d="M225.385 239.173H22.6328V245.23H225.385V239.173Z" fill="white" stroke="#002E47" stroke-miterlimit="10"/>
<g opacity="0.3">
<path d="M334.841 111.476H235.969V370.591H334.841V111.476Z" stroke="#002E47" stroke-miterlimit="10"/>
<path d="M329.55 118.406H241.27V182.994H329.55V118.406Z" stroke="#002E47" stroke-miterlimit="10"/>
<path d="M298.434 132.241H272.393V148.739H298.434V132.241Z" stroke="#002E47" stroke-miterlimit="10"/>
<path d="M299.565 154.694H271.246V158.819H299.565V154.694Z" fill="#002E47" stroke="#002E47" stroke-miterlimit="10"/>
<path d="M329.55 193.099H241.27V257.687H329.55V193.099Z" stroke="#002E47" stroke-miterlimit="10"/>
<path d="M298.434 206.934H272.393V223.432H298.434V206.934Z" stroke="#002E47" stroke-miterlimit="10"/>
<path d="M299.565 229.387H271.246V233.512H299.565V229.387Z" fill="#002E47" stroke="#002E47" stroke-miterlimit="10"/>
<path d="M329.55 267.8H241.27V332.388H329.55V267.8Z" stroke="#002E47" stroke-miterlimit="10"/>
<path d="M298.434 281.627H272.393V298.124H298.434V281.627Z" stroke="#002E47" stroke-miterlimit="10"/>
<path d="M299.565 304.08H271.246V308.204H299.565V304.08Z" fill="#002E47" stroke="#002E47" stroke-miterlimit="10"/>
</g>
<g opacity="0.3">
<path d="M526.44 31.7856H356.713V370.591H526.44V31.7856Z" stroke="#002E47" stroke-miterlimit="10"/>
<path d="M521.056 39.1944H362.088V363.182H521.056V39.1944Z" stroke="#002E47" stroke-miterlimit="10"/>
<path d="M506.963 186.942H362.088V215.435H506.963V186.942Z" stroke="#002E47" stroke-miterlimit="10"/>
<path d="M520.722 160.39H506.965V235.066H520.722V160.39Z" stroke="#002E47" stroke-miterlimit="10"/>
<path d="M427.995 81.7656L422.033 87.738" stroke="#002E47" stroke-miterlimit="10"/>
<path d="M463.75 45.8892L432.902 76.8348" stroke="#002E47" stroke-miterlimit="10"/>
<path d="M426.588 74.0292L406.609 94.0716" stroke="#002E47" stroke-miterlimit="10"/>
<path d="M450.076 268.514L403.805 314.933" stroke="#002E47" stroke-miterlimit="10"/>
<path d="M457.436 261.122L453.584 264.995" stroke="#002E47" stroke-miterlimit="10"/>
<path d="M432.901 266.053L427.291 271.673" stroke="#002E47" stroke-miterlimit="10"/>
<path d="M456.741 242.138L436.402 262.534" stroke="#002E47" stroke-miterlimit="10"/>
</g>
<path d="M540.608 238.846C540.608 238.846 541.839 252.286 541.529 253.369C541.22 254.453 537.988 261.248 537.067 261.71C536.145 262.172 530.292 260.627 529.363 260.316C528.442 260.005 526.742 259.081 526.742 259.081L529.673 238.375C529.673 238.384 537.996 239.618 540.608 238.846Z" fill="white" stroke="#002E47" stroke-miterlimit="10" stroke-linecap="round" stroke-linejoin="round"/>
<path d="M532.913 247.187C532.913 247.187 533.993 250.589 535.073 251.513C536.153 252.437 537.233 253.058 537.233 253.058L536.923 257.074L528.299 254.755" stroke="#002E47" stroke-miterlimit="10" stroke-linecap="round" stroke-linejoin="round"/>
<path d="M539.887 135.778C539.887 135.778 546.569 184.808 546.569 192.637C546.569 200.466 541.846 239.207 541.846 239.207C541.846 239.207 538.765 241.886 534.654 241.063C532.845 240.702 530.542 240.24 530.542 240.24L529.312 216.544L526.439 199.441L537.124 140.918C537.115 140.91 539.167 134.761 539.887 135.778Z" fill="#39B4EF" stroke="#002E47" stroke-miterlimit="10" stroke-linecap="round" stroke-linejoin="round"/>
<path d="M531.572 235.494C531.572 235.494 536.295 238.174 541.428 233.848" stroke="#002E47" stroke-miterlimit="10" stroke-linecap="round" stroke-linejoin="round"/>
<path d="M531.371 189.958C531.371 189.958 535.683 196.963 536.914 198.61" stroke="#002E47" stroke-miterlimit="10" stroke-linecap="round" stroke-linejoin="round"/>
<path d="M530.133 191.394C530.133 191.394 534.244 203.347 536.915 206.64" stroke="#002E47" stroke-miterlimit="10" stroke-linecap="round" stroke-linejoin="round"/>
<path d="M522.781 378.655C522.781 378.655 524.607 390.928 524.423 393.859C524.238 396.791 517.849 398.437 515.84 398.622C513.83 398.807 512.373 399.168 511.092 398.252C509.811 397.337 507.986 396.606 507.986 396.606L507.441 383.779C507.441 383.779 518.218 382.318 522.781 378.655Z" fill="white" stroke="#002E47" stroke-miterlimit="10" stroke-linecap="round" stroke-linejoin="round"/>
<path d="M524.422 393.859C524.455 393.322 524.422 392.456 524.338 391.423C522.864 392.624 519.9 394.741 516.567 395.514C512.875 396.371 509.308 395.119 507.893 394.523L507.985 396.614C507.985 396.614 509.81 397.345 511.091 398.261C512.372 399.176 513.829 398.807 515.839 398.63C517.848 398.437 524.237 396.791 524.422 393.859Z" fill="white" stroke="#002E47" stroke-miterlimit="10" stroke-linecap="round" stroke-linejoin="round"/>
<path d="M486.441 378.832C486.441 378.832 481.509 382.494 477.858 384.14C474.207 385.787 469.82 387.442 470.556 389.819C471.285 392.204 487.906 397.144 493.751 398.059C499.595 398.975 508.722 401.906 510.916 396.598C513.11 391.289 510.732 385.426 510.732 385.426L486.441 378.832Z" fill="white" stroke="#002E47" stroke-miterlimit="10" stroke-linecap="round" stroke-linejoin="round"/>
<path d="M510.908 396.606C511.126 396.077 511.285 395.539 511.427 395.01C507.726 396.068 500.626 397.312 492.102 394.96C482.389 392.28 474.417 389.054 471.269 387.71C470.624 388.357 470.314 389.054 470.549 389.827C471.277 392.213 487.898 397.152 493.743 398.068C499.587 398.983 508.723 401.915 510.908 396.606Z" fill="white" stroke="#002E47" stroke-miterlimit="10" stroke-linecap="round" stroke-linejoin="round"/>
<path d="M469.225 217.762C469.225 217.762 466.68 236.771 466.68 258.098C466.68 279.426 472.457 313.27 473.839 318.83C475.229 324.391 484.699 358.697 485.16 360.091C485.62 361.486 486.776 375.388 486.776 375.388C486.776 375.388 484.699 376.782 484.699 377.941C484.699 379.1 484.934 380.957 484.934 380.957C484.934 380.957 491.632 386.056 496.715 388.374C501.797 390.692 510.807 388.609 510.807 388.609C510.807 388.609 513.579 388.609 516.811 387.215C520.043 385.82 522.588 384.199 523.509 381.654C524.431 379.1 524.431 374.934 524.431 372.842C524.431 370.759 522.354 342.241 521.659 329.96C520.964 317.671 519.582 307.474 519.582 307.474C519.582 307.474 528.969 256.494 529.748 248.363C530.526 240.24 531.598 218.232 531.598 218.232L532.059 215.452L469.225 217.762Z" fill="#002E47" stroke="#002E47" stroke-miterlimit="10" stroke-linecap="round" stroke-linejoin="round"/>
<path d="M510.154 371.045C510.707 381.268 510.816 388.601 510.816 388.601" stroke="white" stroke-miterlimit="10" stroke-linecap="round" stroke-linejoin="round"/>
<path d="M511.51 250.908L500.884 255.545C500.884 255.545 500.649 286.373 500.423 297.041C500.189 307.7 507.817 339.923 509.207 356.849C509.466 359.99 509.684 363.056 509.868 365.963" stroke="white" stroke-miterlimit="10" stroke-linecap="round" stroke-linejoin="round"/>
<path d="M480.296 131.359C480.296 131.359 464.889 138.457 464.889 140.07C464.889 141.683 467.836 220.685 467.836 220.685C467.836 220.685 465.157 222.298 470.516 223.642C475.874 224.986 492.747 228.211 508.02 224.448C523.284 220.685 532.394 220.685 533.734 217.19C535.074 213.696 531.591 199.189 531.591 199.189C531.591 199.189 540.701 138.188 539.897 135.769C539.093 133.35 517.096 126.462 517.096 126.462C517.096 126.462 500.534 121.573 480.296 131.359Z" fill="#39B4EF" stroke="#002E47" stroke-miterlimit="10" stroke-linecap="round" stroke-linejoin="round"/>
<path d="M479.566 74.4576C479.566 74.4576 473.194 87.4692 473.646 89.0736C474.098 90.6696 474.098 90.6696 474.098 90.6696L469.543 102.312L473.411 105.739L481.148 113.963L481.374 119.213L484.791 119.666L485.017 125.143L509.14 121.036L509.367 107.335C509.367 107.335 497.761 108.478 495.936 105.05C494.119 101.623 499.126 86.3268 499.352 81.7656C499.578 77.196 495.484 74.4576 492.293 73.3152C489.128 72.1728 479.566 74.4576 479.566 74.4576Z" fill="white" stroke="#002E47" stroke-miterlimit="10" stroke-linecap="round" stroke-linejoin="round"/>
<path d="M485.034 68.0652C485.034 68.0652 479.114 68.292 478.436 72.6348C477.749 76.9692 481.626 78.5736 482.757 78.3468C483.895 78.12 493.449 78.5736 491.406 79.0356C489.355 79.4892 483.669 79.9512 483.443 80.8584C483.217 81.774 479.575 86.3352 480.714 87.7044C481.852 89.0736 484.356 89.9892 484.356 89.9892C484.356 89.9892 482.991 99.8088 481.626 104.605C480.261 109.402 474.115 105.974 473.437 105.748C472.751 105.521 472.525 110.317 472.525 112.14C472.525 113.963 470.708 117.163 472.977 119.448C475.254 121.733 480.488 120.59 481.4 119.221C482.313 117.852 485.495 113.744 485.269 110.09C485.043 106.436 485.955 95.0208 485.955 95.0208C485.955 95.0208 489.824 91.14 491.189 96.39C492.554 101.64 490.502 107.352 490.502 107.352C490.502 107.352 494.823 112.602 500.743 113.291C506.663 113.98 509.392 112.602 511.209 108.268C513.026 103.933 521.676 100.044 521.676 90.006C521.676 79.968 514.165 71.0556 509.844 69.9132C505.524 68.7708 497.1 68.544 497.1 68.544C497.1 68.544 499.378 64.4364 495.735 64.4364C492.085 64.4112 485.034 68.0652 485.034 68.0652Z" fill="#002E47" stroke="#002E47" stroke-miterlimit="10" stroke-linecap="round" stroke-linejoin="round"/>
<path d="M474.834 89.6616C474.834 89.6616 477.019 88.0236 479.063 90.2076" stroke="#002E47" stroke-miterlimit="10" stroke-linecap="round" stroke-linejoin="round"/>
<path d="M477.698 93.1476C477.698 94.0884 477.329 94.8612 476.877 94.8612C476.425 94.8612 476.057 94.0968 476.057 93.1476C476.057 92.2068 476.425 91.434 476.877 91.434C477.329 91.434 477.698 92.2068 477.698 93.1476Z" fill="#002E47"/>
<path d="M481.718 124.631L480.295 131.359C480.295 131.359 494.932 127.89 501.84 126.672C508.748 125.446 517.087 126.47 517.087 126.47C517.087 126.47 515.053 120.355 511.804 119.129C508.547 117.902 488.836 119.742 481.718 124.631Z" fill="white" stroke="#002E47" stroke-miterlimit="10" stroke-linecap="round" stroke-linejoin="round"/>
<path d="M513.905 161.843C513.905 161.843 511.493 174.476 506.402 182.263" stroke="#002E47" stroke-miterlimit="10" stroke-linecap="round" stroke-linejoin="round"/>
<path d="M505.105 189.361C503.615 191.1 502.192 192.612 501.053 193.553" stroke="#002E47" stroke-miterlimit="10" stroke-linecap="round" stroke-linejoin="round"/>
<path d="M514.709 176.887C514.709 176.887 510.715 182.549 506.688 187.463" stroke="#002E47" stroke-miterlimit="10" stroke-linecap="round" stroke-linejoin="round"/>
<path d="M428.723 179.407L422.996 171.184C422.996 171.184 437.775 172.368 439.55 171.973C441.325 171.578 451.172 169.403 451.172 169.403L467.726 193.124L444.08 200.836L428.723 179.407Z" fill="white" stroke="#002E47" stroke-miterlimit="10" stroke-linecap="round" stroke-linejoin="round"/>
<path d="M446.827 199.584C446.827 199.584 444.122 196.77 443.628 195.569C443.126 194.368 442.129 188.244 441.627 187.538C441.125 186.833 438.529 184.128 437.524 182.918C436.528 181.717 435.523 178.004 434.426 179.105C433.329 180.205 432.827 181.919 433.329 183.221C433.832 184.523 434.326 186.127 434.527 186.53C434.727 186.934 428.724 179.407 428.724 179.407C428.724 179.407 427.819 185.632 428.322 187.236C428.824 188.84 431.219 196.367 431.721 197.375C432.224 198.383 441.326 204.8 441.828 205.103C442.33 205.405 446.827 199.584 446.827 199.584Z" fill="white" stroke="#002E47" stroke-miterlimit="10" stroke-linecap="round" stroke-linejoin="round"/>
<path d="M434.527 186.539C434.527 186.539 435.725 191.554 435.825 192.158C435.926 192.763 438.228 195.166 438.228 195.166" fill="white"/>
<path d="M434.527 186.539C434.527 186.539 435.725 191.554 435.825 192.158C435.926 192.763 438.228 195.166 438.228 195.166" stroke="#002E47" stroke-miterlimit="10" stroke-linecap="round" stroke-linejoin="round"/>
<path d="M487.12 166.681C487.12 166.681 487.12 166.681 485.78 178.777C484.441 190.873 474.527 217.476 472.651 220.164C470.775 222.852 465.952 222.046 461.933 220.164C457.914 218.282 444.257 212.1 444.257 212.1C444.257 212.1 439.166 208.874 441.846 202.692C444.525 196.51 447.205 198.122 449.616 199.198C452.028 200.273 459.53 200.81 459.53 200.81C459.53 200.81 462.21 157.013 462.21 149.218C462.21 141.422 464.889 140.078 464.889 140.078C464.889 140.078 467.033 137.928 470.516 136.853" fill="#39B4EF"/>
<path d="M487.12 166.681C487.12 166.681 487.12 166.681 485.78 178.777C484.441 190.873 474.527 217.476 472.651 220.164C470.775 222.852 465.952 222.046 461.933 220.164C457.914 218.282 444.257 212.1 444.257 212.1C444.257 212.1 439.166 208.874 441.846 202.692C444.525 196.51 447.205 198.122 449.616 199.198C452.028 200.273 459.53 200.81 459.53 200.81C459.53 200.81 462.21 157.013 462.21 149.218C462.21 141.422 464.889 140.078 464.889 140.078C464.889 140.078 467.033 137.928 470.516 136.853" stroke="#002E47" stroke-miterlimit="10" stroke-linecap="round" stroke-linejoin="round"/>
<path d="M459.529 200.802C459.529 200.802 457.921 207.791 459.529 210.21" stroke="#002E47" stroke-miterlimit="10" stroke-linecap="round" stroke-linejoin="round"/>
<path d="M449.616 201.071C449.616 201.071 443.185 203.49 448.009 212.898" stroke="#002E47" stroke-miterlimit="10" stroke-linecap="round" stroke-linejoin="round"/>
<path d="M483.176 163.565C483.435 165.01 483.603 166.496 483.645 168.017" stroke="#002E47" stroke-miterlimit="10" stroke-linecap="round" stroke-linejoin="round"/>
<path d="M475.865 147.059C475.865 147.059 480.588 153.149 482.673 161.297" stroke="#002E47" stroke-miterlimit="10" stroke-linecap="round" stroke-linejoin="round"/>
<path d="M387.225 282.996C387.225 282.996 390.164 305.197 390.164 306.785C390.164 308.372 390.9 322.064 393.379 329.54C395.866 337.016 400.094 373.464 400.094 374.598C400.094 375.732 404.834 389.323 409.355 388.87C413.869 388.416 412.964 380.26 411.616 376.866C410.26 373.464 408.811 368.029 408.811 368.029C408.811 368.029 412.068 326.038 411.616 318.788C411.164 311.539 409.129 300.443 409.129 300.443L410.938 283.676L387.225 282.996Z" fill="white" stroke="#002E47" stroke-miterlimit="10" stroke-linecap="round" stroke-linejoin="round"/>
<path d="M409.355 388.87C413.164 388.483 413.114 382.62 412.193 378.756L402.807 380.486L401.35 378.538C403.058 382.889 406.256 389.18 409.355 388.87Z" fill="#002E47" stroke="#002E47" stroke-miterlimit="10" stroke-linecap="round" stroke-linejoin="round"/>
<path d="M358.545 284.13L362.38 307.692C362.38 307.692 362.154 312.22 363.058 328.306C363.963 344.392 364.867 369.079 364.867 369.079C364.867 369.079 355.832 378.596 354.25 379.949C352.667 381.31 349.963 385.61 355.154 385.61C360.346 385.61 365.545 384.25 367.798 382.662C370.059 381.074 374.12 377.454 374.798 377C375.476 376.547 376.154 375.186 376.154 372.7C376.154 370.205 375.25 366.358 375.25 364.09C375.25 361.822 381.12 330.792 381.12 323.77C381.12 316.747 380.442 301.568 380.442 301.568L381.798 285.256L358.545 284.13Z" fill="white" stroke="#002E47" stroke-miterlimit="10" stroke-linecap="round" stroke-linejoin="round"/>
<path d="M367.807 382.67C370.068 381.083 374.129 377.462 374.807 377.009C375.485 376.555 376.164 375.194 376.164 372.708C376.164 371.876 376.063 370.894 375.929 369.869C375.083 370.818 374.146 371.935 373.233 373.153C370.52 376.774 364.424 379.268 364.424 379.268L357.257 377C355.883 378.403 354.736 379.546 354.267 379.949C352.685 381.31 349.98 385.61 355.172 385.61C360.355 385.619 365.546 384.258 367.807 382.67Z" fill="#002E47" stroke="#002E47" stroke-miterlimit="10" stroke-linecap="round" stroke-linejoin="round"/>
<path d="M365.605 77.6916C365.605 77.6916 361.142 78.1116 357.927 87.3516C354.72 96.5916 353.321 111.569 354.016 113.669C354.711 115.769 361.133 119.549 367.271 120.943C373.409 122.346 381.221 122.203 390.708 120.38C400.195 118.558 405.495 112.686 405.495 111.56C405.495 110.443 402.565 92.6604 396.008 81.7488C389.469 70.8372 371.19 71.82 365.605 77.6916Z" fill="#002E47" stroke="#002E47" stroke-miterlimit="10" stroke-linecap="round" stroke-linejoin="round"/>
<path d="M358.436 189.059C358.436 189.059 351.311 201.281 347.652 222.634C343.992 243.986 346.362 287.776 346.362 287.776H416.246C416.246 287.776 416.891 241.181 413.022 219.618C409.154 198.047 401.308 189.059 401.308 189.059H358.436Z" fill="#002E47" stroke="#002E47" stroke-miterlimit="10" stroke-linecap="round" stroke-linejoin="round"/>
<path d="M372.177 129.15C372.177 129.15 352.274 137.172 351.947 138.155C351.621 139.138 355.489 156.391 355.489 156.391C355.489 156.391 354.342 164.766 355.489 171.494C356.636 178.223 358.922 182.162 358.922 182.162C358.922 182.162 357.449 187.253 358.428 189.059C359.408 190.865 371.357 193.158 381.823 192.998C392.298 192.83 401.291 189.714 401.291 189.059C401.291 188.404 401.785 182.658 401.785 182.658C401.785 182.658 412.587 138.18 412.42 136.861C412.252 135.551 389.184 128.159 389.184 128.159L372.177 129.15Z" fill="white" stroke="#002E47" stroke-miterlimit="10" stroke-linecap="round" stroke-linejoin="round"/>
<path d="M373.835 125.983C373.835 125.983 370.628 126.966 369.649 128.923C368.669 130.88 368.393 137.323 367.974 139.843C367.555 142.363 367.137 145.58 367.137 145.58L375.644 139.978L386.663 147.118C386.663 147.118 389.87 132.838 390.155 130.603C390.431 128.36 390.013 127.806 389.318 126.823C388.623 125.84 385.968 124.723 385.55 124.723C385.139 124.723 373.835 125.983 373.835 125.983Z" fill="white" stroke="#002E47" stroke-miterlimit="10" stroke-linecap="round" stroke-linejoin="round"/>
<path d="M372.863 123.043L373.14 131.443C373.14 131.443 375.375 139.423 375.652 139.978C375.928 140.54 385.7 128.36 385.7 128.36L387.374 111.846C387.374 111.846 381.237 116.609 379.562 118.003C377.879 119.406 372.863 123.043 372.863 123.043Z" fill="white" stroke="#002E47" stroke-miterlimit="10" stroke-linecap="round" stroke-linejoin="round"/>
<path d="M383.43 117.289L373.466 129.931L372.863 123.043L383.43 117.289Z" fill="#002E47" stroke="#002E47" stroke-miterlimit="10" stroke-linecap="round" stroke-linejoin="round"/>
<path d="M377.746 84.5544C377.746 84.5544 368.116 92.2488 364.491 95.1888C360.865 98.1288 359.467 99.1116 359.467 99.1116C359.467 99.1116 361.56 109.326 361.979 112.266C362.397 115.206 366.726 122.346 368.677 123.463C370.628 124.58 372.303 125 373.425 124.723C374.539 124.446 383.331 118.566 385.005 117.306C386.68 116.046 387.375 111.846 387.375 111.846C387.375 111.846 390.582 110.443 392.675 107.369C394.769 104.286 393.931 100.086 391.98 99.6744C390.029 99.2544 387.651 101.497 387.651 101.497C387.651 101.497 380.4 93.24 378.164 89.7372C375.929 86.2344 377.746 84.5544 377.746 84.5544Z" fill="white" stroke="#002E47" stroke-miterlimit="10" stroke-linecap="round" stroke-linejoin="round"/>
<path d="M368.536 99.1116L369.792 102.749L366.861 110.309L370.906 111.006" stroke="#002E47" stroke-miterlimit="10" stroke-linecap="round" stroke-linejoin="round"/>
<path d="M369.373 114.232C369.373 114.232 374.816 115.214 378.299 111.149" stroke="#002E47" stroke-miterlimit="10" stroke-linecap="round" stroke-linejoin="round"/>
<path d="M372.303 97.7088C372.303 97.7088 376.347 96.1716 379.278 98.1288" stroke="#002E47" stroke-miterlimit="10" stroke-linecap="round" stroke-linejoin="round"/>
<path d="M367.002 97.7088C367.002 97.7088 363.653 96.306 361.836 98.406" stroke="#002E47" stroke-miterlimit="10" stroke-linecap="round" stroke-linejoin="round"/>
<path d="M366.861 102.472C366.861 103.48 366.451 104.294 365.957 104.294C365.455 104.294 365.053 103.48 365.053 102.472C365.053 101.464 365.455 100.649 365.957 100.649C366.459 100.649 366.861 101.464 366.861 102.472Z" fill="#002E47"/>
<path d="M376.557 102.472C376.557 103.48 376.155 104.294 375.652 104.294C375.15 104.294 374.748 103.48 374.748 102.472C374.748 101.464 375.15 100.649 375.652 100.649C376.155 100.649 376.557 101.464 376.557 102.472Z" fill="#002E47"/>
<path d="M356.629 239.812L356.763 230.362H382.628L383.164 239.543L379.848 239.408V232.621H359.417V239.812H356.629Z" fill="white" stroke="#002E47" stroke-miterlimit="10" stroke-linecap="round" stroke-linejoin="round"/>
<path d="M356.629 239.812L356.763 230.362H382.628L383.164 239.543L379.848 239.408V232.621H359.417V239.812H356.629Z" fill="#969696" stroke="#002E47" stroke-miterlimit="10" stroke-linecap="round" stroke-linejoin="round"/>
<path d="M363.016 217.619C363.016 217.619 369.238 225.33 369.397 226.321C369.564 227.304 370.544 233.05 370.544 233.05C370.544 233.05 368.744 234.2 368.09 234.032C367.437 233.864 366.29 232.882 366.29 232.882C366.29 232.882 360.73 233.705 360.069 233.705C359.416 233.705 357.774 232.394 357.774 231.076C357.774 229.757 356.301 220.24 356.301 220.24L363.016 217.619Z" fill="white" stroke="#002E47" stroke-miterlimit="10" stroke-linecap="round" stroke-linejoin="round"/>
<path d="M351.947 138.163C351.947 138.163 346.002 179.214 346.002 181.188C346.002 183.154 356.31 220.256 356.31 220.256L363.017 217.627L358.436 189.067L358.93 182.171C358.93 182.171 355.171 173.468 355.003 168.386C354.836 163.296 355.497 156.408 355.497 156.408L351.947 138.163Z" fill="white" stroke="#002E47" stroke-miterlimit="10" stroke-linecap="round" stroke-linejoin="round"/>
<path d="M400.162 153.283L391.16 189.067L376.926 219.265L383.633 221.894L406.701 185.623C406.701 185.623 416.841 141.632 417.009 139.667C417.176 137.701 404.248 133.921 404.248 133.921" fill="white"/>
<path d="M400.162 153.283L391.16 189.067L376.926 219.265L383.633 221.894L406.701 185.623C406.701 185.623 416.841 141.632 417.009 139.667C417.176 137.701 404.248 133.921 404.248 133.921" stroke="#002E47" stroke-miterlimit="10" stroke-linecap="round" stroke-linejoin="round"/>
<path d="M376.926 219.265C376.926 219.265 370.705 226.976 370.546 227.968C370.378 228.95 369.398 234.696 369.398 234.696C369.398 234.696 371.199 235.847 371.852 235.679C372.505 235.511 373.652 234.528 373.652 234.528C373.652 234.528 379.212 235.351 379.873 235.351C380.535 235.351 382.168 234.041 382.168 232.722C382.168 231.403 383.641 221.886 383.641 221.886L376.926 219.265Z" fill="white" stroke="#002E47" stroke-miterlimit="10" stroke-linecap="round" stroke-linejoin="round"/>
<path d="M395.824 239.148L344.646 237.947C344.646 237.947 340.56 278.477 341.422 281.593C342.285 284.71 346.798 285.188 346.798 285.188H393.672C393.672 285.188 397.205 285.902 398.286 282.072C399.357 278.233 398.83 275.596 398.83 275.596L395.824 239.148Z" fill="#969696" stroke="#002E47" stroke-miterlimit="10" stroke-linecap="round" stroke-linejoin="round"/>
<path d="M344.906 261.215L389.938 262.08" stroke="#002E47" stroke-miterlimit="10" stroke-linecap="round" stroke-linejoin="round"/>
<path d="M398.286 282.064C399.358 278.225 398.83 275.596 398.83 275.596L395.816 239.148C395.816 239.148 391.303 281.837 393.664 285.188C393.673 285.188 397.206 285.902 398.286 282.064Z" fill="#6B6B6B" stroke="#002E47" stroke-miterlimit="10" stroke-linecap="round" stroke-linejoin="round"/>
<path d="M330.119 231.042C330.119 231.042 329.952 240.316 329.885 242.92C329.818 245.524 323.27 252 323.27 252L321.922 231.848L330.119 231.042Z" fill="white" stroke="#002E47" stroke-miterlimit="10" stroke-linecap="round" stroke-linejoin="round"/>
<path d="M327.005 233.848C327.005 233.848 326.854 239.576 326.821 240.618C326.795 241.66 324.56 247.338 324.149 247.976C323.739 248.615 323.128 247.296 323.17 245.86C323.212 244.423 323.555 241.307 323.555 241.307L322.064 233.965" fill="white"/>
<path d="M327.005 233.848C327.005 233.848 326.854 239.576 326.821 240.618C326.795 241.66 324.56 247.338 324.149 247.976C323.739 248.615 323.128 247.296 323.17 245.86C323.212 244.423 323.555 241.307 323.555 241.307L322.064 233.965" stroke="#002E47" stroke-miterlimit="10" stroke-linecap="round" stroke-linejoin="round"/>
<path d="M327.448 133.728C327.448 133.728 331.116 144.287 331.493 153.115C331.869 161.944 331.828 194.384 332.029 202.18C332.23 209.983 330.128 231.042 330.128 231.042L321.93 231.848L320.113 196.938L325.656 150.091L327.448 133.728Z" fill="#39B4EF" stroke="#002E47" stroke-miterlimit="10" stroke-linecap="round" stroke-linejoin="round"/>
<path d="M265.444 366.526L260.394 371.725C260.394 371.725 250.974 379.882 250.522 381.511C250.07 383.141 253.428 387.542 262.304 384.493C271.179 381.452 272.059 379.218 274.529 378.462C276.999 377.706 279.871 377.378 280.474 370.213C281.077 363.056 265.444 366.526 265.444 366.526Z" fill="white" stroke="#002E47" stroke-miterlimit="10" stroke-linecap="round" stroke-linejoin="round"/>
<path d="M321.437 367.634L327.834 373.548C327.834 373.548 336.802 382.2 337.17 383.855C337.538 385.51 333.946 389.718 325.246 386.198C316.546 382.679 315.793 380.402 313.365 379.52C310.936 378.63 308.089 378.143 307.872 370.961C307.654 363.77 321.437 367.634 321.437 367.634Z" fill="white" stroke="#002E47" stroke-miterlimit="10" stroke-linecap="round" stroke-linejoin="round"/>
<path d="M264.958 207.354L264.238 221.264C264.238 221.264 262.982 298.15 263.828 304.945C264.665 311.741 265.804 360.587 265.804 360.587L264.288 363.829L264.38 368.138C264.38 368.138 266.189 369.214 270.468 369.944C274.738 370.675 280.482 370.213 280.482 370.213L282.35 361.645L293.93 250.379L305.401 348.323L307.838 371.776C307.838 371.776 311.506 372.288 313.591 370.902C315.676 369.524 321.822 368.869 321.822 368.869C321.822 368.869 322.399 362.527 322.257 360.268C322.115 358.008 321.336 356.546 321.361 355.522C321.386 354.497 325.146 253.067 325.146 253.067L323.664 206.842L264.958 207.354Z" fill="#002E47" stroke="#002E47" stroke-miterlimit="10" stroke-linecap="round" stroke-linejoin="round"/>
<path d="M264.773 210.983C270.568 212.226 282.491 214.351 295.721 214.124C307.653 213.923 317.936 212.243 323.789 211.067L323.655 206.85L264.966 207.362L264.773 210.983Z" fill="#969696" stroke="#002E47" stroke-miterlimit="10" stroke-linecap="round" stroke-linejoin="round"/>
<path d="M303.033 209.394L294.732 209.715L294.916 214.475L303.216 214.153L303.033 209.394Z" fill="white" stroke="#002E47" stroke-miterlimit="10" stroke-linecap="round" stroke-linejoin="round"/>
<path d="M270.359 215.981L270.158 206.304L274.755 206.724L275.592 214.696" fill="#002E47"/>
<path d="M270.359 215.981L270.158 206.304L274.755 206.724L275.592 214.696" stroke="#002E47" stroke-miterlimit="10" stroke-linecap="round" stroke-linejoin="round"/>
<path d="M315.683 215.746L315.482 206.069L320.079 206.489L320.917 214.46" fill="#002E47"/>
<path d="M315.683 215.746L315.482 206.069L320.079 206.489L320.917 214.46" stroke="#002E47" stroke-miterlimit="10" stroke-linecap="round" stroke-linejoin="round"/>
<path d="M277.802 128.058C277.802 128.058 257.581 135.45 257.497 138.482C257.413 141.515 264.957 207.354 264.957 207.354C264.957 207.354 298.786 213.646 323.646 206.842L326.585 157.063C326.585 157.063 329.047 134.702 327.448 133.728C325.84 132.754 304.438 124.807 304.438 124.807L277.802 128.058Z" fill="#39B4EF" stroke="#002E47" stroke-miterlimit="10" stroke-linecap="round" stroke-linejoin="round"/>
<path d="M284.318 121.162C284.318 121.162 280.324 122.086 279.863 122.665C279.403 123.245 276.162 129.058 276.162 129.058L284 149.344L296.367 138.172L309.622 148.562C309.622 148.562 309.748 132.922 309.145 128.184C308.533 123.446 307.788 124.018 305.787 121.75C303.786 119.482 302.597 119.893 302.597 119.893L284.318 121.162Z" fill="white" stroke="#002E47" stroke-miterlimit="10" stroke-linecap="round" stroke-linejoin="round"/>
<path d="M282.525 116.542L282.718 125.84C282.718 125.84 287.072 133.484 288.345 135.442C289.618 137.39 294.826 145.95 295.136 145.362C295.445 144.782 304.723 127.915 305.066 126.302C305.401 124.69 303.81 112.837 303.81 112.837C303.81 112.837 295.219 120.422 292.121 120.784C289.023 121.145 282.525 116.542 282.525 116.542Z" fill="white" stroke="#002E47" stroke-miterlimit="10" stroke-linecap="round" stroke-linejoin="round"/>
<path d="M293.62 121.54L286.084 131.393L282.718 125.84L282.525 116.542L293.62 121.54Z" fill="#002E47" stroke="#002E47" stroke-miterlimit="10" stroke-linecap="round" stroke-linejoin="round"/>
<path d="M276.781 94.836C276.781 94.836 274.445 94.038 273.766 97.5576C273.08 101.077 276.99 103.547 276.99 103.547L276.781 94.836Z" fill="white" stroke="#002E47" stroke-miterlimit="10" stroke-linecap="round" stroke-linejoin="round"/>
<path d="M276.738 85.5372C276.738 85.5372 276.948 99.708 276.989 103.547C277.031 107.386 279.426 111.434 280.799 115.164C282.173 118.894 287.883 125.244 291.576 124.606C295.268 123.967 301.306 118.373 303.759 114.752C306.212 111.132 306.949 105.689 306.949 105.689C306.949 105.689 312.174 102.732 311.973 99.33C311.772 95.928 309.461 94.3908 309.461 94.3908L309.101 85.68C309.101 85.68 306.748 80.1528 296.926 79.002C287.104 77.8512 277.86 82.1772 277.86 82.1772L276.738 85.5372Z" fill="white" stroke="#002E47" stroke-miterlimit="10" stroke-linecap="round" stroke-linejoin="round"/>
<path d="M278.891 93.1224C278.891 93.1224 281.151 91.1148 285.346 93.5928" stroke="#002E47" stroke-miterlimit="10" stroke-linecap="round" stroke-linejoin="round"/>
<path d="M290.932 93.744C290.932 93.744 293.938 91.3164 297.689 94.2228" stroke="#002E47" stroke-miterlimit="10" stroke-linecap="round" stroke-linejoin="round"/>
<path d="M286.503 94.5084L287.323 96.7428L285.004 106.571L289.86 106.403" stroke="#002E47" stroke-miterlimit="10" stroke-linecap="round" stroke-linejoin="round"/>
<path d="M287.121 109.872C287.121 109.872 293.384 112.258 296.759 107.033" stroke="#002E47" stroke-miterlimit="10" stroke-linecap="round" stroke-linejoin="round"/>
<path d="M295.369 98.4396C295.344 99.414 294.859 100.195 294.289 100.178C293.72 100.162 293.285 99.3552 293.31 98.3808C293.335 97.4064 293.82 96.6252 294.39 96.642C294.959 96.6588 295.395 97.4652 295.369 98.4396Z" fill="#002E47"/>
<path d="M283.028 97.9608C283.003 98.9352 282.517 99.7164 281.948 99.6996C281.378 99.6828 280.943 98.8764 280.968 97.902C280.993 96.9276 281.479 96.1464 282.048 96.1632C282.609 96.1716 283.053 96.978 283.028 97.9608Z" fill="#002E47"/>
<path d="M285.673 71.8536C281.93 72.9372 278.422 74.76 275.433 77.2632C273.297 79.0524 271.246 81.102 270.936 82.5804C270.258 85.806 282.098 88.788 285.648 88.1412C289.198 87.5028 297.379 84.0336 297.379 84.0336C297.379 84.0336 296.542 87.8472 297.563 88.0236C298.585 88.2 301.842 87.5532 301.842 87.5532C301.842 87.5532 301.315 90.7872 301.733 91.686C302.152 92.5848 303.575 94.3908 303.575 94.3908C303.575 94.3908 304.17 99.7164 304.748 99.8844C305.334 100.044 305.334 100.044 305.334 100.044C305.334 100.044 306.481 95.7936 306.933 95.214C307.394 94.6344 309.454 94.3992 309.454 94.3992C309.454 94.3992 312.225 84.4368 311.564 81.4716C310.91 78.5064 305.694 75.558 305.694 75.558L302.914 74.8944C302.914 74.8944 297.455 68.4432 288.755 70.9716C287.407 71.3496 286.427 71.6352 285.673 71.8536Z" fill="#002E47" stroke="#002E47" stroke-miterlimit="10" stroke-linecap="round" stroke-linejoin="round"/>
<path d="M317.852 174.955C317.852 174.955 320.74 173.729 321.142 173.225C321.544 172.712 325.597 166.832 326.652 166.211C327.707 165.589 335.235 165.53 335.235 165.53C335.235 165.53 339.597 162.523 339.806 164.354C340.016 166.186 335.687 168.017 334.891 168.386C334.104 168.756 330.83 169.84 330.83 169.84C330.83 169.84 337.738 168.857 338.793 168.361C339.848 167.866 348.858 165.9 348.565 167.194C348.272 168.487 344.847 170.352 344.847 170.352C344.847 170.352 336.867 177.559 335.017 178.55C333.175 179.542 319.242 181.121 319.242 181.121L317.852 174.955Z" fill="white" stroke="#002E47" stroke-miterlimit="10" stroke-linecap="round" stroke-linejoin="round"/>
<path d="M312.928 174.821L319.3 174.342L319.962 183.347L312.92 184.59L312.928 174.821Z" fill="#39B4EF" stroke="#002E47" stroke-miterlimit="10" stroke-linecap="round" stroke-linejoin="round"/>
<path d="M267.679 132.216C267.679 132.216 253.118 136.727 252.122 139.272C251.125 141.817 262.672 197.249 262.873 198.19C263.082 199.13 265.134 200.819 266.298 200.617C267.47 200.416 313.431 188.345 314.628 186.976C315.826 185.606 313.799 174.577 313.799 174.577L276.965 176.148L273.783 147.328" fill="#39B4EF"/>
<path d="M267.679 132.216C267.679 132.216 253.118 136.727 252.122 139.272C251.125 141.817 262.672 197.249 262.873 198.19C263.082 199.13 265.134 200.819 266.298 200.617C267.47 200.416 313.431 188.345 314.628 186.976C315.826 185.606 313.799 174.577 313.799 174.577L276.965 176.148L273.783 147.328" stroke="#002E47" stroke-miterlimit="10" stroke-linecap="round" stroke-linejoin="round"/>
<path d="M293.922 250.379L294.542 242.6L303.267 237.3" stroke="white" stroke-miterlimit="10" stroke-linecap="round" stroke-linejoin="round"/>
<path d="M207.775 159.802L217.941 143.287L219.23 132.922C219.23 132.922 219.716 128.066 219.875 127.579C220.034 127.092 219.548 117.86 220.679 117.541C221.809 117.214 222.454 120.943 222.613 122.077C222.772 123.211 222.939 130.334 222.939 130.334C222.939 130.334 225.2 120.456 225.2 119.65C225.2 118.843 226.004 117.222 227.135 118.196C228.265 119.171 226.975 122.732 226.975 124.513C226.975 126.294 226.49 129.368 226.49 129.368C226.49 129.368 230.367 119.977 231.33 119.003C232.301 118.028 233.264 119.003 232.46 122.245C231.656 125.488 230.199 129.696 230.04 130.662C229.881 131.636 229.881 131.636 229.881 131.636C229.881 131.636 232.787 128.394 234.235 125.479C235.684 122.564 236.982 124.505 235.684 126.773C234.394 129.041 230.517 136.324 230.358 136.811C230.199 137.298 228.91 140.213 227.294 142.96C225.678 145.715 222.772 148.302 222.772 148.302L215.512 165.463L207.775 159.802Z" fill="white" stroke="#002E47" stroke-miterlimit="10" stroke-linecap="round" stroke-linejoin="round"/>
<path d="M219.564 139.07C219.564 139.07 222.143 132.107 223.441 129.032C224.731 125.958 226.506 121.75 226.992 124.496C227.477 127.252 226.02 130.486 225.376 132.266C224.731 134.047 225.702 137.29 224.731 139.877C223.76 142.464 221.825 143.926 221.825 143.926" fill="white"/>
<path d="M219.564 139.07C219.564 139.07 222.143 132.107 223.441 129.032C224.731 125.958 226.506 121.75 226.992 124.496C227.477 127.252 226.02 130.486 225.376 132.266C224.731 134.047 225.702 137.29 224.731 139.877C223.76 142.464 221.825 143.926 221.825 143.926" stroke="#002E47" stroke-miterlimit="10" stroke-linecap="round" stroke-linejoin="round"/>
<path d="M226.34 130.494L230.702 134.056" stroke="#002E47" stroke-miterlimit="10" stroke-linecap="round" stroke-linejoin="round"/>
<path d="M187.117 139.07L199.058 170.159L208.419 158.34L217.621 164.816C217.621 164.816 203.094 190.075 202.29 191.537C201.486 192.99 197.123 193.645 195.675 192.99C194.226 192.343 189.06 183.112 189.06 183.112L187.117 139.07Z" fill="#39B4EF" stroke="#002E47" stroke-miterlimit="10" stroke-linecap="round" stroke-linejoin="round"/>
<path d="M133.504 232.058C133.504 232.058 131.177 247.489 137.205 265.18C143.226 282.87 144.314 290.212 143.033 297.923C141.752 305.634 137.348 309.674 137.356 325.45C137.365 341.225 140.814 369.39 140.731 371.272C140.647 373.153 139.6 386.291 140.345 390.558C141.099 394.825 147.203 400.042 149.104 399.42C151.005 398.798 155.057 392.154 155.2 388.861C155.342 385.568 151.608 374.573 151.733 371.759C151.859 368.936 161.974 320.662 163.364 315.781C164.754 310.901 166.512 302.971 166.512 302.971C166.512 302.971 163.171 314.832 166.437 331.22C169.702 347.609 169.434 364.308 168.899 371.112C168.363 377.916 167.693 387.769 167.693 387.769C167.693 387.769 169.711 389.978 172.734 390.583C175.756 391.188 176.292 389.802 180.889 391.885C185.486 393.977 188.718 395.296 192.696 395.472C196.673 395.648 199.754 395.077 198.909 392.927C198.063 390.768 190.033 386.644 187.789 384.426C185.536 382.208 180.688 375.161 180.755 373.758C180.814 372.347 189.003 325.164 189.07 318.335C189.137 311.514 194.194 282.072 195.057 267.75C195.928 253.428 192.235 225.49 192.235 225.49L135.79 222.978L133.504 232.058Z" fill="white" stroke="#002E47" stroke-miterlimit="10" stroke-linecap="round" stroke-linejoin="round"/>
<path d="M168.773 372.649C171.98 373.792 176.301 374.808 180.914 374.455C180.805 374.161 180.738 373.918 180.747 373.758C180.805 372.347 188.995 325.164 189.062 318.335C189.129 311.514 194.186 282.072 195.048 267.75C195.919 253.428 192.227 225.49 192.227 225.49L135.782 222.978L133.504 232.058C133.504 232.058 131.177 247.489 137.205 265.18C143.226 282.87 144.314 290.212 143.033 297.923C141.752 305.634 137.348 309.674 137.356 325.45C137.365 341.225 140.814 369.39 140.731 371.272C140.731 371.272 145.696 372.532 151.75 372.044C151.75 371.952 151.733 371.843 151.742 371.759C151.867 368.936 161.982 320.662 163.372 315.781C164.343 312.379 165.491 307.499 166.093 304.853C165.315 308.809 163.95 318.688 166.445 331.22C169.711 347.609 169.443 364.308 168.907 371.112C168.857 371.608 168.815 372.12 168.773 372.649Z" fill="#002E47" stroke="#002E47" stroke-miterlimit="10" stroke-linecap="round" stroke-linejoin="round"/>
<path d="M168.086 299.2C168.086 299.2 170.196 290.027 170.196 282.971C170.196 275.915 169.258 246.75 169.258 246.75" stroke="white" stroke-miterlimit="10" stroke-linecap="round" stroke-linejoin="round"/>
<path d="M155.199 388.861C155.25 387.71 154.823 385.602 154.253 383.233C152.587 382.049 149.991 380.722 147.22 381.276C142.531 382.217 140.186 383.628 140.186 383.628L140.102 383.485C140.035 386.358 140.077 389.029 140.345 390.558C141.099 394.825 147.203 400.042 149.104 399.42C151.013 398.798 155.057 392.146 155.199 388.861Z" fill="white" stroke="#002E47" stroke-miterlimit="10" stroke-linecap="round" stroke-linejoin="round"/>
<path d="M198.907 392.927C198.061 390.768 190.031 386.644 187.787 384.426C187.729 384.367 187.662 384.3 187.603 384.233C186.431 384.107 185.326 384.082 184.731 384.334C183.09 385.039 179.573 386.215 179.573 386.215L168.16 381.058C167.892 384.829 167.691 387.761 167.691 387.761C167.691 387.761 169.709 389.97 172.732 390.575C175.755 391.18 176.291 389.794 180.888 391.877C185.485 393.968 188.717 395.287 192.694 395.464C196.672 395.648 199.745 395.077 198.907 392.927Z" stroke="#002E47" stroke-miterlimit="10" stroke-linecap="round" stroke-linejoin="round"/>
<path d="M187.996 202.096C188.323 200.962 188.323 197.24 188.482 196.426C188.641 195.619 190.994 185.707 190.994 185.707C190.994 185.707 187.603 139.885 187.117 139.07C186.632 138.264 171.141 132.594 171.141 132.594L150.961 132.922C150.961 132.922 129.174 140.692 129.174 141.338C129.174 141.985 142.73 201.575 142.73 201.575C142.73 201.575 135.73 216.653 133.62 224.179C131.51 231.706 131.51 238.762 131.51 238.762L144.17 229.824C144.17 229.824 151.673 235.939 156.362 238.526C161.051 241.114 165.74 242.995 165.74 242.995L172.774 236.174L176.994 242.995C176.994 242.995 180.042 242.525 186.372 237.821C192.702 233.117 194.343 230.059 194.343 230.059L187.996 202.096Z" fill="#39B4EF" stroke="#002E47" stroke-miterlimit="10" stroke-linecap="round" stroke-linejoin="round"/>
<path d="M157.745 126.118C157.745 126.118 152.093 126.924 150.963 128.386C149.832 129.839 147.73 133.409 147.73 133.409C147.73 133.409 148.534 147.983 149.179 150.898C149.824 153.812 151.113 156.4 151.758 155.753C152.403 155.106 162.735 146.521 163.221 146.362C163.707 146.202 176.459 152.032 177.749 152.678C179.038 153.325 180.01 153.325 179.851 151.385C179.691 149.444 178.402 139.238 175.815 134.056C173.236 128.873 169.518 125.798 169.518 125.798L157.745 126.118Z" fill="white" stroke="#002E47" stroke-miterlimit="10" stroke-linecap="round" stroke-linejoin="round"/>
<path d="M185.343 84.9912C185.343 84.9912 187.922 90.4932 187.922 94.71C187.922 98.9268 187.278 101.674 187.596 103.614C187.922 105.554 191.305 106.688 191.146 107.982C190.987 109.276 187.914 111.384 187.914 111.384C187.914 111.384 184.523 119.801 183.719 122.716C182.915 125.63 179.524 124.984 177.908 124.656C176.292 124.328 172.256 123.035 172.256 123.035C172.256 123.035 171.126 130.318 171.126 131.292C171.126 132.266 172.901 134.047 172.742 139.709C172.582 145.379 171.452 158.004 169.836 159.953C168.22 161.893 165.641 158.332 165.314 157.038C164.988 155.744 157.728 142.792 155.467 137.609C153.617 133.358 153.048 131.939 153.851 130.486C154.655 129.032 155.467 127.898 155.467 127.898C155.467 127.898 156.757 123.043 156.757 119.154C156.757 115.265 154.823 112.997 154.823 112.997C154.823 112.997 160.952 109.276 161.278 103.118C161.605 96.9612 166.445 94.5336 171.285 91.6188C176.141 88.7208 185.343 84.9912 185.343 84.9912Z" fill="white" stroke="#002E47" stroke-miterlimit="10" stroke-linecap="round" stroke-linejoin="round"/>
<path d="M172.272 123.043C172.272 123.043 169.852 122.396 168.562 121.262C167.273 120.128 166.143 118.835 166.143 118.835C166.143 118.835 167.759 127.092 171.468 128.226L172.272 123.043Z" fill="#002E47" stroke="#002E47" stroke-miterlimit="10" stroke-linecap="round" stroke-linejoin="round"/>
<path d="M183.166 104.42C183.744 104.42 184.212 103.405 184.212 102.152C184.212 100.9 183.744 99.8844 183.166 99.8844C182.588 99.8844 182.119 100.9 182.119 102.152C182.119 103.405 182.588 104.42 183.166 104.42Z" fill="#002E47"/>
<path d="M180.336 111.065C180.336 111.065 181.952 113.82 185.502 112.686" stroke="#002E47" stroke-miterlimit="10" stroke-linecap="round" stroke-linejoin="round"/>
<path d="M180.822 98.112C180.822 98.112 182.112 95.3568 185.503 96.0036" stroke="#002E47" stroke-miterlimit="10" stroke-linecap="round" stroke-linejoin="round"/>
<path d="M172.105 96.6504C172.105 96.6504 168.555 97.6248 168.555 102.32C168.555 107.016 163.548 113.005 159.679 114.954C155.802 116.894 149.028 114.626 144.992 104.588C140.956 94.5504 144.54 81.3204 151.289 77.0616C161.295 70.7448 170.657 72.6936 176.627 73.3404C182.597 73.9872 187.763 76.902 188.894 79.9764C190.024 83.0508 186.633 85.6464 181.952 89.5272C177.272 93.4164 172.105 96.6504 172.105 96.6504Z" fill="#002E47" stroke="#002E47" stroke-miterlimit="10" stroke-linecap="round" stroke-linejoin="round"/>
<path d="M143.703 101.993C143.703 101.993 136.443 95.676 133.052 99.2376C129.661 102.799 128.212 115.433 131.604 119.482C134.995 123.53 148.066 123.371 149.841 119.154C151.616 114.946 150.326 112.031 150.326 112.031C150.326 112.031 143.703 104.261 143.703 101.993Z" fill="#002E47" stroke="#002E47" stroke-miterlimit="10" stroke-linecap="round" stroke-linejoin="round"/>
<path d="M129.175 141.338C129.175 141.338 114.002 196.392 114.161 199.147C114.32 201.902 119.972 202.549 123.037 202.549C126.102 202.549 136.92 175.669 136.92 175.669L129.175 141.338Z" fill="#39B4EF" stroke="#002E47" stroke-miterlimit="10" stroke-linecap="round" stroke-linejoin="round"/>
<path d="M154.487 164.682L151.439 203.255C151.439 203.255 158.942 206.312 164.803 205.607C170.665 204.901 183.325 204.196 183.325 204.196L188.952 162.574C188.952 162.565 165.272 168.21 154.487 164.682Z" fill="white" stroke="#002E47" stroke-miterlimit="10" stroke-linecap="round" stroke-linejoin="round"/>
<path d="M122.233 188.95C122.233 188.95 140.956 198.828 143.702 198.5C143.702 198.5 144.992 197.854 145.151 197.047C145.31 196.241 149.991 180.373 150.803 180.205C151.607 180.046 160.164 179.878 161.621 180.852C163.07 181.826 164.041 182.146 163.396 183.28C162.752 184.414 161.462 184.254 160.491 184.254C159.52 184.254 156.941 183.12 155.484 183.926C154.035 184.733 152.419 188.782 152.251 189.269C152.092 189.756 158.063 187.488 159.679 187.816C161.295 188.143 165.808 192.671 165.649 193.964C165.49 195.258 163.547 194.611 163.547 194.611C163.547 194.611 160.642 192.671 160.156 192.671C159.67 192.671 157.577 192.998 157.577 192.998C157.577 192.998 162.584 194.939 162.584 196.56C162.584 198.181 160.809 199.315 160.809 199.315C160.809 199.315 161.78 201.096 160.323 202.23C158.875 203.364 155.969 202.558 155.157 202.717C154.353 202.877 152.737 205.792 150.635 206.926C148.534 208.06 144.665 207.732 144.665 207.732C144.665 207.732 125.139 205.304 119.972 204.17C114.806 203.036 112.545 200.449 115.132 192.839" fill="#39B4EF"/>
<path d="M122.233 188.95C122.233 188.95 140.956 198.828 143.702 198.5C143.702 198.5 144.992 197.854 145.151 197.047C145.31 196.241 149.991 180.373 150.803 180.205C151.607 180.046 160.164 179.878 161.621 180.852C163.07 181.826 164.041 182.146 163.396 183.28C162.752 184.414 161.462 184.254 160.491 184.254C159.52 184.254 156.941 183.12 155.484 183.926C154.035 184.733 152.419 188.782 152.251 189.269C152.092 189.756 158.063 187.488 159.679 187.816C161.295 188.143 165.808 192.671 165.649 193.964C165.49 195.258 163.547 194.611 163.547 194.611C163.547 194.611 160.642 192.671 160.156 192.671C159.67 192.671 157.577 192.998 157.577 192.998C157.577 192.998 162.584 194.939 162.584 196.56C162.584 198.181 160.809 199.315 160.809 199.315C160.809 199.315 161.78 201.096 160.323 202.23C158.875 203.364 155.969 202.558 155.157 202.717C154.353 202.877 152.737 205.792 150.635 206.926C148.534 208.06 144.665 207.732 144.665 207.732C144.665 207.732 125.139 205.304 119.972 204.17C114.806 203.036 112.545 200.449 115.132 192.839" stroke="#002E47" stroke-miterlimit="10" stroke-linecap="round" stroke-linejoin="round"/>
<path d="M163.555 194.611C163.555 194.611 165.489 195.258 165.657 193.964C165.816 192.671 161.303 188.135 159.687 187.816C158.071 187.488 152.1 189.756 152.259 189.269C152.419 188.782 154.035 184.733 155.492 183.926C156.94 183.12 159.527 184.254 160.499 184.254C161.47 184.254 162.76 184.414 163.404 183.28C164.049 182.146 163.078 181.826 161.629 180.852C160.181 179.878 151.623 180.046 150.811 180.205C149.999 180.365 145.326 196.232 145.159 197.047C145 197.854 143.71 198.5 143.71 198.5C142.128 198.685 135.253 195.493 129.702 192.746C128.688 193.502 126.955 195.166 125.431 198.551C124.292 201.062 124.1 203.288 124.192 204.918C131.795 206.128 144.682 207.732 144.682 207.732C144.682 207.732 148.558 208.06 150.652 206.926C152.753 205.792 154.361 202.877 155.173 202.717C155.977 202.558 158.883 203.364 160.34 202.23C161.788 201.096 160.825 199.315 160.825 199.315C160.825 199.315 162.6 198.181 162.6 196.56C162.6 194.939 157.593 192.998 157.593 192.998C157.593 192.998 159.695 192.671 160.172 192.671C160.649 192.671 163.555 194.611 163.555 194.611Z" fill="white" stroke="#002E47" stroke-miterlimit="10" stroke-linecap="round" stroke-linejoin="round"/>
<path d="M160.809 199.307L152.578 196.552" stroke="#002E47" stroke-miterlimit="10" stroke-linecap="round" stroke-linejoin="round"/>
<path d="M157.586 192.99L153.383 192.024" stroke="#002E47" stroke-miterlimit="10" stroke-linecap="round" stroke-linejoin="round"/>
<path d="M127.098 191.184C127.098 191.184 124.896 191.671 122.577 195.972C120.249 200.264 120.986 204.926 120.986 204.926L125.39 205.666C125.39 205.666 125.022 201.617 126.855 198.181C128.689 194.746 131.377 193.393 131.377 193.393L127.098 191.184Z" fill="white" stroke="#002E47" stroke-miterlimit="10" stroke-linecap="round" stroke-linejoin="round"/>
<path d="M201.646 166.597L211.334 175.342L217.623 164.816L208.429 158.34L201.646 166.597Z" fill="white" stroke="#002E47" stroke-miterlimit="10" stroke-linecap="round" stroke-linejoin="round"/>
<path d="M120.99 61.6514C120.99 83.4641 103.363 101.147 81.62 101.147C59.8766 101.147 42.25 83.4641 42.25 61.6514C42.25 39.8387 59.8766 22.156 81.62 22.156C103.363 22.156 120.99 39.8387 120.99 61.6514Z" fill="white"/>
<path d="M81.5859 50.8086C84.7607 50.8086 87.3344 48.2386 87.3344 45.0683C87.3344 41.898 84.7607 39.328 81.5859 39.328C78.4112 39.328 75.8375 41.898 75.8375 45.0683C75.8375 48.2386 78.4112 50.8086 81.5859 50.8086Z" fill="#39B4EF"/>
<path d="M81.5859 67.3918C84.7607 67.3918 87.3344 64.8218 87.3344 61.6515C87.3344 58.4812 84.7607 55.9112 81.5859 55.9112C78.4112 55.9112 75.8375 58.4812 75.8375 61.6515C75.8375 64.8218 78.4112 67.3918 81.5859 67.3918Z" fill="#39B4EF"/>
<path d="M81.5859 83.975C84.7607 83.975 87.3344 81.4049 87.3344 78.2346C87.3344 75.0643 84.7607 72.4943 81.5859 72.4943C78.4112 72.4943 75.8375 75.0643 75.8375 78.2346C75.8375 81.4049 78.4112 83.975 81.5859 83.975Z" fill="#39B4EF"/>
<path d="M66.2569 67.3918C69.4316 67.3918 72.0053 64.8218 72.0053 61.6515C72.0053 58.4812 69.4316 55.9112 66.2569 55.9112C63.0821 55.9112 60.5085 58.4812 60.5085 61.6515C60.5085 64.8218 63.0821 67.3918 66.2569 67.3918Z" fill="#39B4EF"/>
<path d="M98.1925 67.3918C101.367 67.3918 103.941 64.8218 103.941 61.6515C103.941 58.4812 101.367 55.9112 98.1925 55.9112C95.0177 55.9112 92.4441 58.4812 92.4441 61.6515C92.4441 64.8218 95.0177 67.3918 98.1925 67.3918Z" fill="#39B4EF"/>
<path d="M81.62 102.147C103.919 102.147 121.99 84.0134 121.99 61.6514C121.99 39.2894 103.919 21.156 81.62 21.156C59.3213 21.156 41.25 39.2894 41.25 61.6514C41.25 84.0134 59.3213 102.147 81.62 102.147Z" stroke="#002E47" stroke-width="2"/>
<path d="M395.533 158.984C394.982 162.127 391.994 164.227 388.86 163.674C385.727 163.121 383.633 160.124 384.185 156.98C384.736 153.836 387.724 151.736 390.858 152.289C393.992 152.843 396.085 155.84 395.533 158.984Z" fill="#39B4EF"/>
<path d="M390.128 156.418C390.586 156.499 391.022 156.194 391.102 155.737C391.182 155.28 390.876 154.844 390.419 154.763C389.961 154.683 389.525 154.987 389.445 155.444C389.365 155.901 389.671 156.337 390.128 156.418Z" fill="white"/>
<path d="M389.709 158.808C390.167 158.889 390.603 158.584 390.683 158.127C390.763 157.67 390.457 157.234 389.999 157.153C389.542 157.073 389.106 157.378 389.026 157.834C388.946 158.291 389.251 158.727 389.709 158.808Z" fill="white"/>
<path d="M389.29 161.198C389.747 161.279 390.183 160.974 390.263 160.517C390.344 160.06 390.038 159.624 389.58 159.544C389.122 159.463 388.687 159.768 388.606 160.225C388.526 160.681 388.832 161.117 389.29 161.198Z" fill="white"/>
<path d="M387.5 158.418C387.957 158.499 388.393 158.194 388.473 157.737C388.554 157.28 388.248 156.844 387.79 156.763C387.332 156.683 386.897 156.987 386.816 157.444C386.736 157.901 387.042 158.337 387.5 158.418Z" fill="white"/>
<path d="M392.102 159.231C392.56 159.312 392.996 159.007 393.076 158.55C393.156 158.093 392.85 157.657 392.393 157.576C391.935 157.495 391.499 157.8 391.419 158.257C391.339 158.714 391.645 159.15 392.102 159.231Z" fill="white"/>
</svg>
