<svg width="12" height="12" viewBox="0 0 12 12" fill="none" xmlns="http://www.w3.org/2000/svg">
<g clip-path="url(#clip0_130_13655)">
<path d="M7.00777 6.009L11.291 1.72569C11.5697 1.44708 11.5697 0.996604 11.291 0.717992C11.0123 0.43938 10.5619 0.43938 10.2833 0.717992L5.99994 5.0013L1.71676 0.717992C1.43801 0.43938 0.987668 0.43938 0.709057 0.717992C0.430314 0.996604 0.430314 1.44708 0.709057 1.72569L4.99224 6.009L0.709057 10.2923C0.430314 10.5709 0.430314 11.0214 0.709057 11.3C0.847906 11.439 1.03047 11.5088 1.21291 11.5088C1.39534 11.5088 1.57778 11.439 1.71676 11.3L5.99994 7.0167L10.2833 11.3C10.4222 11.439 10.6047 11.5088 10.7871 11.5088C10.9695 11.5088 11.152 11.439 11.291 11.3C11.5697 11.0214 11.5697 10.5709 11.291 10.2923L7.00777 6.009Z" fill="#707E95"/>
</g>
<defs>
<clipPath id="clip0_130_13655">
<rect width="11" height="11" fill="white" transform="translate(0.5 0.5)"/>
</clipPath>
</defs>
</svg>
