<svg width="505" height="338" viewBox="0 0 505 338" fill="none" xmlns="http://www.w3.org/2000/svg">
<path d="M424.921 39.6389C417.36 41.7688 409.677 43.4942 401.893 44.6535C366.57 49.9174 285.151 61.1867 245.687 59.5691C194.46 57.473 32.1122 1.40291 19.8508 33.6403C7.58265 65.8778 11.1917 302.074 35.0008 306.981C58.8098 311.888 143.232 273.342 193.019 271.94C242.805 270.538 361.857 308.383 410.923 310.486C459.989 312.589 464.318 304.878 475.859 263.528C487.407 222.178 499.668 86.2056 497.507 54.6691C495.668 27.8574 443.263 34.4694 424.921 39.6389Z" fill="#39B4EF"/>
<path opacity="0.7" d="M424.921 39.6389C417.36 41.7688 409.677 43.4942 401.893 44.6535C366.57 49.9174 285.151 61.1867 245.687 59.5691C194.46 57.473 32.1122 1.40291 19.8508 33.6403C7.58265 65.8778 11.1917 302.074 35.0008 306.981C58.8098 311.888 143.232 273.342 193.019 271.94C242.805 270.538 361.857 308.383 410.923 310.486C459.989 312.589 464.318 304.878 475.859 263.528C487.407 222.178 499.668 86.2056 497.507 54.6691C495.668 27.8574 443.263 34.4694 424.921 39.6389Z" fill="white"/>
<path opacity="0.15" d="M19.3643 147.944C27.6665 149.926 38.157 148.429 41.3756 147.89C41.3554 152.359 41.4698 157.057 41.9075 161.943C42.5135 168.751 43.4898 175.875 45.4492 183.087C45.4694 183.167 45.5031 183.248 45.53 183.329C44.3046 181.402 40.6888 176.117 40.3656 175.74C35.8071 170.463 23.8958 162.954 16.7114 166.007C11.5334 168.205 10.0184 174.412 12.6175 179.144C15.2704 183.976 21.6267 186.369 26.7777 187.117C32.5886 187.966 44.8163 184.414 45.7859 184.131C47.7184 190.986 50.2501 197.854 53.1993 204.668C54.8826 208.564 56.6939 212.439 58.5658 216.301C57.448 214.663 56.438 213.214 56.2764 213.026C51.718 207.748 39.8067 200.24 32.6222 203.293C27.4443 205.49 25.9293 211.698 28.5284 216.429C31.1813 221.262 37.5376 223.655 42.6886 224.403C47.9136 225.164 58.4042 222.347 61.1648 221.565C61.8988 223.041 62.6125 224.517 63.3464 225.987C66.8882 233.043 70.4501 240.073 73.736 247.069C74.8941 249.536 75.9445 252.01 77.0084 254.477C76.0186 253.027 75.1702 251.808 75.022 251.639C70.4636 246.362 58.5523 238.853 51.3678 241.906C46.1899 244.104 44.6749 250.311 47.274 255.043C49.9269 259.875 56.2832 262.268 61.4342 263.016C66.4236 263.744 76.1263 261.23 79.4122 260.32C80.4222 262.881 81.4389 265.443 82.3008 267.97C82.8529 269.709 83.4993 271.347 83.9572 273.119C84.442 274.872 84.9268 276.604 85.4048 278.316C86.2061 281.652 87.0478 285.096 87.748 288.372C88.253 290.643 88.6907 292.827 89.1351 295.018C88.0106 292.551 85.7078 287.765 85.4722 287.388C81.7621 281.484 71.1302 272.25 63.5619 274.178C58.1146 275.566 55.6772 281.47 57.5288 286.539C59.4209 291.722 65.3395 295.045 70.3154 296.568C75.7964 298.246 87.9298 296.709 89.4448 296.507C90.172 300.14 90.8454 303.672 91.4244 307.022C91.9092 309.772 92.3469 312.414 92.7509 314.941H97.6326C97.1343 312.158 96.5889 309.232 95.9762 306.172C95.2557 302.486 94.4073 298.556 93.4983 294.532C94.4073 294.168 99.5852 292.072 104.171 289.511C108.164 293.845 118.405 298.913 119.731 299.554C118.338 302.984 116.951 306.307 115.59 309.421C114.762 311.335 113.947 313.162 113.146 314.948H118.311C118.822 313.735 119.334 312.495 119.853 311.221C121.28 307.743 122.741 304.002 124.202 300.14C125.67 300.45 137.682 302.89 143.285 301.623C148.362 300.477 154.509 297.599 156.785 292.571C159.014 287.651 157.021 281.585 151.688 279.792C144.288 277.305 132.996 285.717 128.855 291.331C128.613 291.661 126.364 295.55 124.983 298.031C125.576 296.453 126.162 294.923 126.748 293.292C127.926 290.071 129.01 286.822 130.188 283.331C130.7 281.625 131.212 279.9 131.73 278.161C132.282 276.449 132.653 274.562 133.124 272.749C134.127 268.523 134.942 264.182 135.669 259.801C138.49 260.832 148.564 264.337 153.775 263.967C158.967 263.603 165.484 261.688 168.487 257.072C171.43 252.549 170.38 246.247 165.383 243.666C158.448 240.087 146.012 246.685 141.069 251.605C140.76 251.915 137.615 255.845 135.925 258.035C136.342 255.393 136.767 252.765 137.097 250.082C138.06 242.338 138.787 234.466 139.554 226.613C139.79 224.207 140.046 221.815 140.302 219.422C141.298 219.799 153.183 224.227 159.027 223.816C164.219 223.452 170.736 221.538 173.739 216.921C176.682 212.399 175.632 206.097 170.635 203.515C163.7 199.937 151.264 206.535 146.321 211.455C145.951 211.826 141.426 217.487 140.349 218.984C140.908 213.706 141.507 208.449 142.315 203.293C143.419 196.176 144.894 189.26 146.813 182.662C147.277 182.837 159.653 187.515 165.639 187.097C170.831 186.733 177.349 184.819 180.352 180.202C183.294 175.679 182.244 169.377 177.247 166.796C170.312 163.217 157.876 169.815 152.933 174.736C152.61 175.059 149.163 179.366 147.567 181.455C147.352 181.341 147.392 181.361 147.17 181.253C149.318 174.21 152.28 167.659 155.357 161.66C157.135 158.182 159.027 154.961 160.933 151.867C163.148 152.972 173.335 157.926 178.762 158.142C183.967 158.351 190.647 157.164 194.141 152.905C197.562 148.733 197.212 142.35 192.525 139.243C186.021 134.922 172.938 140.119 167.491 144.466C167.289 144.628 165.915 145.983 164.441 147.472C164.454 147.149 164.461 146.771 164.468 146.34C164.683 146.003 164.905 145.653 165.121 145.329C168.386 140.409 171.679 136.102 174.628 132.314C176.325 130.171 177.894 128.27 179.389 126.504C182.129 126.457 193.172 126.12 198.006 123.849C202.72 121.631 208.106 117.5 209.244 112.108C210.362 106.823 207.11 101.324 201.521 100.724C193.758 99.888 184.54 110.53 181.705 116.906C181.463 117.459 178.614 126.511 178.762 126.511C178.762 126.511 178.897 126.511 178.931 126.511C177.463 128.182 175.908 129.989 174.244 131.997C171.228 135.711 167.848 139.93 164.488 144.77C164.427 137.255 163.094 121.651 153.189 120.708C140.113 119.461 136.376 134.424 144.47 142.525C150.146 148.207 157.654 148.982 161.633 148.942C159.128 152.689 156.603 156.713 154.253 161.08C151.008 167.086 147.897 173.576 145.56 180.674C145.533 180.754 145.513 180.842 145.493 180.923C145.534 178.631 145.432 172.228 145.365 171.743C144.47 164.821 138.672 151.981 131.003 150.559C125.475 149.535 120.789 153.875 120.351 159.254C119.9 164.754 123.886 170.254 127.764 173.725C132.141 177.641 144.295 181.428 145.264 181.732C143.096 188.512 141.426 195.643 140.127 202.956C139.379 207.135 138.76 211.368 138.194 215.62C138.167 213.639 138.127 211.873 138.093 211.624C137.198 204.702 131.4 191.862 123.731 190.44C118.203 189.415 113.517 193.756 113.079 199.134C112.628 204.634 116.614 210.134 120.492 213.605C124.431 217.13 134.727 220.568 137.467 221.444C137.265 223.075 137.049 224.706 136.854 226.344C135.918 234.182 135.016 242.014 133.898 249.664C133.508 252.36 133.023 255.002 132.545 257.644C132.518 255.885 132.478 254.402 132.451 254.18C131.555 247.258 125.764 234.418 118.082 232.996C112.554 231.972 107.867 236.312 107.43 241.691C106.978 247.184 110.965 252.69 114.843 256.162C118.6 259.525 128.081 262.787 131.326 263.838C130.754 266.534 130.188 269.23 129.515 271.812C129.017 273.564 128.653 275.29 128.054 277.022C127.495 278.754 126.943 280.459 126.397 282.158C125.226 285.386 124.034 288.723 122.809 291.836C121.974 294.013 121.139 296.069 120.304 298.145C120.728 295.463 121.442 290.199 121.455 289.754C121.563 285.117 119.92 277.581 116.648 272.29C116.668 271.61 116.627 270.922 116.52 270.248C115.664 264.917 110.662 260.954 105.228 262.403C97.6864 264.411 92.899 277.669 92.5422 284.631C92.522 285.043 92.7913 289.525 93.0068 292.355C92.6297 290.711 92.2796 289.113 91.8688 287.428C91.081 284.092 90.1922 280.783 89.2496 277.217C88.7378 275.512 88.2126 273.793 87.6874 272.055C87.2026 270.316 86.4687 268.55 85.8627 266.77C84.3679 262.686 82.6576 258.622 80.8464 254.564C83.7686 253.863 94.0976 251.228 98.2453 248.04C102.373 244.865 106.756 239.676 106.716 234.162C106.675 228.764 102.332 224.086 96.737 224.693C88.9802 225.535 82.2402 237.91 80.8329 244.744C80.7454 245.169 80.2875 250.19 80.0855 252.947C78.9745 250.513 77.8837 248.087 76.6784 245.661C73.2108 238.671 69.4805 231.702 65.7906 224.733C64.6594 222.596 63.5619 220.46 62.4442 218.323C63.4878 218.087 75.8368 215.216 80.4828 211.651C84.6103 208.476 88.9937 203.286 88.9533 197.773C88.9129 192.374 84.5699 187.697 78.9745 188.303C71.211 189.146 64.4776 201.52 63.0704 208.355C62.9626 208.867 62.3162 216.092 62.2354 217.932C59.7912 213.221 57.4009 208.51 55.2328 203.765C52.2297 197.22 49.6441 190.635 47.6106 184.071C48.0954 183.963 60.9965 181.024 65.757 177.371C69.8845 174.196 74.2679 169.007 74.2275 163.493C74.1871 158.095 69.8441 153.417 64.2487 154.03C56.4852 154.873 49.7518 167.248 48.3446 174.082C48.2503 174.533 47.752 180.033 47.5702 182.655C47.3278 182.682 47.3682 182.675 47.1258 182.702C45.0318 175.639 43.8938 168.542 43.1532 161.835C42.7155 157.953 42.5202 154.219 42.4058 150.586C44.8634 150.29 56.0879 148.793 60.7339 145.976C65.1846 143.28 70.1134 138.603 70.679 133.116C71.2312 127.744 67.4268 122.622 61.8045 122.609C54.0006 122.595 45.9475 134.154 43.7996 140.793C43.6851 141.157 42.8973 144.952 42.3654 147.728C42.3384 146.084 42.2846 144.392 42.2913 142.822C42.3048 136.911 42.6751 131.505 43.0454 126.713C43.2744 123.99 43.5437 121.537 43.813 119.239C46.0754 117.682 55.0981 111.306 57.879 106.743C60.5858 102.294 62.8078 95.8709 60.781 90.7418C58.8014 85.7205 53.0579 82.9301 48.0685 85.5115C41.1332 89.0972 39.3084 103.069 40.4598 109.951C40.5608 110.544 43.1801 119.67 43.2946 119.589C43.2946 119.589 43.4023 119.515 43.4292 119.495C43.1262 121.699 42.8232 124.064 42.5472 126.653C42.0691 131.445 41.5776 136.857 41.4429 142.788C41.416 143.873 41.4025 144.999 41.3823 146.118C38.4062 141.528 29.0199 128.654 18.8795 131.391C6.61135 134.7 9.44609 145.578 19.3643 147.944Z" fill="black"/>
<path opacity="0.15" d="M472.787 177.013C465.933 178.644 457.267 177.418 454.607 176.966C454.627 180.653 454.533 184.535 454.169 188.572C453.671 194.194 452.863 200.078 451.24 206.036C451.22 206.103 451.193 206.171 451.173 206.238C452.19 204.641 455.173 200.28 455.435 199.97C459.199 195.616 469.037 189.408 474.975 191.929C479.251 193.749 480.504 198.871 478.356 202.78C476.161 206.77 470.915 208.745 466.66 209.365C461.859 210.066 451.766 207.134 450.958 206.899C449.362 212.56 447.268 218.235 444.83 223.863C443.443 227.085 441.942 230.28 440.4 233.468C441.322 232.12 442.157 230.913 442.292 230.758C446.056 226.397 455.893 220.197 461.832 222.717C466.108 224.537 467.36 229.659 465.212 233.569C463.017 237.559 457.772 239.534 453.516 240.154C449.2 240.78 440.541 238.455 438.259 237.808C437.653 239.028 437.06 240.248 436.454 241.461C433.532 247.291 430.583 253.094 427.876 258.871C426.92 260.906 426.051 262.948 425.176 264.991C425.997 263.791 426.698 262.787 426.819 262.645C430.583 258.284 440.42 252.083 446.359 254.604C450.634 256.424 451.887 261.546 449.739 265.456C447.544 269.446 442.299 271.421 438.043 272.041C433.922 272.64 425.91 270.565 423.196 269.81C422.361 271.926 421.526 274.042 420.813 276.132C420.361 277.567 419.823 278.922 419.446 280.385C419.042 281.827 418.644 283.263 418.247 284.678C417.587 287.435 416.887 290.279 416.308 292.982C415.891 294.862 415.534 296.662 415.163 298.468C416.093 296.433 417.991 292.476 418.193 292.166C421.257 287.286 430.037 279.664 436.286 281.254C440.784 282.4 442.797 287.273 441.268 291.465C439.706 295.745 434.818 298.488 430.704 299.749C426.179 301.137 416.153 299.87 414.901 299.702C414.301 302.701 413.743 305.619 413.265 308.389C412.867 310.661 412.504 312.845 412.174 314.927H408.147C408.558 312.629 409.009 310.216 409.514 307.682C410.113 304.635 410.814 301.393 411.561 298.07C410.807 297.774 406.531 296.042 402.747 293.919C399.448 297.498 390.991 301.683 389.9 302.216C391.051 305.046 392.196 307.79 393.32 310.364C394.007 311.941 394.68 313.451 395.34 314.927H391.078C390.661 313.923 390.236 312.898 389.806 311.854C388.627 308.983 387.422 305.889 386.217 302.708C385.005 302.964 375.08 304.979 370.461 303.934C366.266 302.984 361.189 300.611 359.31 296.46C357.472 292.395 359.115 287.388 363.519 285.905C369.632 283.849 378.958 290.798 382.372 295.435C382.574 295.712 384.432 298.92 385.57 300.969C385.085 299.661 384.594 298.401 384.116 297.053C383.14 294.39 382.244 291.708 381.274 288.823C380.85 287.415 380.426 285.992 380.002 284.55C379.544 283.135 379.241 281.578 378.85 280.081C378.022 276.59 377.349 273.011 376.75 269.385C374.42 270.234 366.104 273.132 361.795 272.829C357.506 272.526 352.126 270.949 349.641 267.134C347.211 263.393 348.079 258.197 352.207 256.06C357.937 253.101 368.205 258.554 372.285 262.618C372.541 262.874 375.14 266.116 376.534 267.929C376.191 265.752 375.841 263.575 375.565 261.358C374.77 254.961 374.164 248.457 373.538 241.973C373.343 239.985 373.127 238.01 372.925 236.029C372.097 236.339 362.286 239.999 357.459 239.655C353.169 239.352 347.79 237.774 345.305 233.96C342.874 230.219 343.743 225.022 347.87 222.886C353.6 219.927 363.869 225.38 367.949 229.444C368.259 229.747 371.989 234.425 372.885 235.665C372.427 231.304 371.929 226.964 371.262 222.711C370.353 216.833 369.134 211.118 367.545 205.672C367.161 205.82 356.94 209.682 351.998 209.332C347.709 209.028 342.329 207.451 339.844 203.636C337.413 199.896 338.282 194.699 342.41 192.563C348.14 189.604 358.408 195.056 362.488 199.121C362.758 199.39 365.606 202.949 366.919 204.674C367.101 204.58 367.067 204.6 367.249 204.506C365.478 198.689 363.027 193.277 360.489 188.323C359.021 185.452 357.459 182.79 355.883 180.235C354.052 181.152 345.642 185.236 341.157 185.418C336.861 185.587 331.34 184.616 328.451 181.091C325.623 177.64 325.913 172.376 329.785 169.808C335.158 166.236 345.965 170.529 350.463 174.122C350.631 174.257 351.762 175.376 352.981 176.602C352.974 176.333 352.961 176.023 352.961 175.665C352.779 175.389 352.604 175.099 352.422 174.83C349.722 170.765 347.008 167.207 344.571 164.079C343.17 162.313 341.871 160.736 340.639 159.28C338.376 159.24 329.253 158.964 325.267 157.09C321.375 155.263 316.924 151.846 315.981 147.391C315.059 143.024 317.745 138.488 322.358 137.989C328.768 137.301 336.383 146.09 338.726 151.354C338.928 151.812 341.278 159.287 341.157 159.287C341.157 159.287 341.049 159.287 341.023 159.287C342.235 160.669 343.521 162.158 344.894 163.816C347.386 166.883 350.173 170.368 352.954 174.365C353.008 168.157 354.105 155.27 362.286 154.488C373.087 153.457 376.171 165.818 369.484 172.511C364.791 177.209 358.597 177.842 355.311 177.809C357.385 180.902 359.465 184.232 361.404 187.838C364.084 192.798 366.656 198.157 368.582 204.021C368.602 204.088 368.616 204.155 368.643 204.223C368.609 202.336 368.697 197.045 368.744 196.64C369.484 190.925 374.272 180.316 380.608 179.143C385.173 178.301 389.045 181.88 389.408 186.328C389.779 190.871 386.493 195.414 383.288 198.278C379.672 201.513 369.633 204.641 368.831 204.89C370.622 210.491 372.003 216.382 373.073 222.421C373.686 225.872 374.204 229.37 374.669 232.881C374.696 231.243 374.73 229.788 374.75 229.579C375.49 223.863 380.278 213.261 386.614 212.088C391.179 211.246 395.051 214.825 395.414 219.273C395.785 223.816 392.499 228.359 389.294 231.223C386.042 234.135 377.537 236.972 375.275 237.694C375.443 239.042 375.625 240.39 375.78 241.738C376.554 248.215 377.295 254.678 378.218 261.001C378.541 263.225 378.945 265.408 379.335 267.592C379.355 266.136 379.389 264.916 379.416 264.728C380.157 259.012 384.944 248.41 391.28 247.237C395.845 246.395 399.717 249.974 400.081 254.422C400.451 258.958 397.165 263.508 393.953 266.372C390.849 269.149 383.025 271.845 380.338 272.715C380.81 274.939 381.274 277.17 381.833 279.3C382.244 280.749 382.54 282.171 383.039 283.606C383.496 285.035 383.954 286.451 384.405 287.846C385.375 290.508 386.358 293.265 387.368 295.84C388.055 297.639 388.748 299.338 389.435 301.05C389.085 298.839 388.493 294.492 388.486 294.121C388.398 290.293 389.758 284.072 392.458 279.697C392.445 279.131 392.472 278.565 392.566 278.006C393.273 273.604 397.407 270.329 401.892 271.528C408.12 273.186 412.073 284.132 412.369 289.888C412.389 290.225 412.167 293.932 411.985 296.264C412.302 294.909 412.584 293.588 412.928 292.193C413.581 289.437 414.315 286.7 415.089 283.755C415.513 282.346 415.944 280.924 416.382 279.488C416.779 278.053 417.385 276.59 417.884 275.128C419.116 271.758 420.53 268.401 422.025 265.044C419.614 264.465 411.083 262.288 407.656 259.659C404.242 257.037 400.626 252.751 400.66 248.194C400.693 243.733 404.282 239.877 408.901 240.376C415.311 241.07 420.873 251.295 422.038 256.936C422.112 257.287 422.489 261.432 422.658 263.71C423.573 261.701 424.476 259.693 425.472 257.698C428.334 251.922 431.418 246.166 434.461 240.41C435.397 238.644 436.306 236.878 437.222 235.112C436.36 234.917 426.166 232.544 422.328 229.599C418.914 226.977 415.298 222.69 415.332 218.134C415.365 213.672 418.954 209.81 423.573 210.316C429.983 211.01 435.545 221.234 436.71 226.876C436.798 227.3 437.336 233.265 437.397 234.789C439.417 230.9 441.39 227.004 443.181 223.088C445.659 217.683 447.793 212.243 449.476 206.824C449.079 206.737 438.42 204.31 434.488 201.291C431.074 198.669 427.458 194.382 427.492 189.826C427.526 185.364 431.115 181.509 435.734 182.008C442.144 182.702 447.706 192.926 448.87 198.568C448.944 198.939 449.362 203.481 449.51 205.645C449.712 205.665 449.672 205.665 449.874 205.685C451.604 199.855 452.54 193.985 453.153 188.451C453.51 185.25 453.678 182.163 453.772 179.157C451.739 178.907 442.474 177.674 438.636 175.349C434.959 173.118 430.892 169.256 430.421 164.726C429.963 160.291 433.108 156.059 437.754 156.052C444.197 156.038 450.85 165.589 452.628 171.069C452.722 171.365 453.368 174.506 453.813 176.798C453.833 175.443 453.88 174.041 453.873 172.74C453.867 167.86 453.557 163.392 453.254 159.435C453.065 157.191 452.843 155.162 452.621 153.262C450.756 151.974 443.302 146.71 441.006 142.943C438.77 139.269 436.939 133.965 438.609 129.726C440.245 125.574 444.985 123.275 449.113 125.405C454.836 128.371 456.344 139.91 455.402 145.591C455.321 146.083 453.159 153.619 453.058 153.551C453.058 153.551 452.964 153.491 452.944 153.477C453.193 155.297 453.442 157.252 453.671 159.388C454.062 163.345 454.472 167.82 454.587 172.72C454.607 173.616 454.621 174.547 454.634 175.47C457.092 171.682 464.842 161.046 473.218 163.304C483.325 166.081 480.988 175.065 472.787 177.013Z" fill="black"/>
<g opacity="0.3">
<path d="M457.67 35.79V94.273H386.869V35.79H410.597V38.1558C410.597 39.5847 411.762 40.7439 413.183 40.7439C414.604 40.7439 415.769 39.5779 415.769 38.1558V35.79H428.764V38.1558C428.764 39.5847 429.929 40.7439 431.35 40.7439C432.777 40.7439 433.928 39.5779 433.928 38.1558V35.79H457.67Z" stroke="black" stroke-miterlimit="10" stroke-linecap="round" stroke-linejoin="round"/>
<path d="M400.039 52.249H391.145V61.1526H400.039V52.249Z" stroke="black" stroke-miterlimit="10" stroke-linecap="round" stroke-linejoin="round"/>
<path d="M413.377 52.249H404.482V61.1526H413.377V52.249Z" stroke="black" stroke-miterlimit="10" stroke-linecap="round" stroke-linejoin="round"/>
<path d="M426.717 52.249H417.822V61.1526H426.717V52.249Z" stroke="black" stroke-miterlimit="10" stroke-linecap="round" stroke-linejoin="round"/>
<path d="M440.055 52.249H431.16V61.1526H440.055V52.249Z" stroke="black" stroke-miterlimit="10" stroke-linecap="round" stroke-linejoin="round"/>
<path d="M453.395 52.249H444.5V61.1526H453.395V52.249Z" stroke="black" stroke-miterlimit="10" stroke-linecap="round" stroke-linejoin="round"/>
<path d="M400.039 65.9717H391.145V74.8752H400.039V65.9717Z" stroke="black" stroke-miterlimit="10" stroke-linecap="round" stroke-linejoin="round"/>
<path d="M413.377 65.9717H404.482V74.8752H413.377V65.9717Z" stroke="black" stroke-miterlimit="10" stroke-linecap="round" stroke-linejoin="round"/>
<path d="M426.717 65.9717H417.822V74.8752H426.717V65.9717Z" stroke="black" stroke-miterlimit="10" stroke-linecap="round" stroke-linejoin="round"/>
<path d="M440.055 65.9717H431.16V74.8752H440.055V65.9717Z" stroke="black" stroke-miterlimit="10" stroke-linecap="round" stroke-linejoin="round"/>
<path d="M453.395 65.9717H444.5V74.8752H453.395V65.9717Z" stroke="black" stroke-miterlimit="10" stroke-linecap="round" stroke-linejoin="round"/>
<path d="M400.039 79.6943H391.145V88.5979H400.039V79.6943Z" stroke="black" stroke-miterlimit="10" stroke-linecap="round" stroke-linejoin="round"/>
<path d="M413.377 79.6943H404.482V88.5979H413.377V79.6943Z" stroke="black" stroke-miterlimit="10" stroke-linecap="round" stroke-linejoin="round"/>
<path d="M426.717 79.6943H417.822V88.5979H426.717V79.6943Z" stroke="black" stroke-miterlimit="10" stroke-linecap="round" stroke-linejoin="round"/>
<path d="M440.055 79.6943H431.16V88.5979H440.055V79.6943Z" stroke="black" stroke-miterlimit="10" stroke-linecap="round" stroke-linejoin="round"/>
<path d="M453.395 79.6943H444.5V88.5979H453.395V79.6943Z" stroke="black" stroke-miterlimit="10" stroke-linecap="round" stroke-linejoin="round"/>
<path d="M415.775 29.2523V38.1559C415.775 39.5847 414.61 40.744 413.189 40.744C411.768 40.744 410.604 39.578 410.604 38.1559V29.2523C410.604 27.8234 411.768 26.6709 413.189 26.6709C414.61 26.6709 415.775 27.8234 415.775 29.2523Z" fill="black" stroke="black" stroke-miterlimit="10" stroke-linecap="round" stroke-linejoin="round"/>
<path d="M433.928 29.2523V38.1559C433.928 39.5847 432.777 40.744 431.349 40.744C429.922 40.744 428.764 39.578 428.764 38.1559V29.2523C428.764 27.8234 429.929 26.6709 431.349 26.6709C432.777 26.6709 433.928 27.8234 433.928 29.2523Z" fill="black" stroke="black" stroke-miterlimit="10" stroke-linecap="round" stroke-linejoin="round"/>
</g>
<g opacity="0.3">
<path d="M271.01 286.855H261.199V309.596H271.01V286.855Z" stroke="black" stroke-miterlimit="10" stroke-linecap="round" stroke-linejoin="round"/>
<path d="M284.141 275.229H274.33V309.596H284.141V275.229Z" stroke="black" stroke-miterlimit="10" stroke-linecap="round" stroke-linejoin="round"/>
<path d="M297.264 260.576H287.453V309.596H297.264V260.576Z" stroke="black" stroke-miterlimit="10" stroke-linecap="round" stroke-linejoin="round"/>
<path d="M310.393 250.466H300.582V309.596H310.393V250.466Z" stroke="black" stroke-miterlimit="10" stroke-linecap="round" stroke-linejoin="round"/>
</g>
<g opacity="0.3">
<path d="M155.778 67.4925C163.955 49.4961 156.009 28.2723 138.03 20.0876C120.052 11.903 98.8487 19.8569 90.6721 37.8533C82.4956 55.8496 90.4417 77.0734 108.42 85.2581C126.399 93.4427 147.602 85.4888 155.778 67.4925Z" stroke="black" stroke-miterlimit="10"/>
<path d="M143.472 72.945C154.655 61.7506 154.655 43.601 143.472 32.4066C132.289 21.2123 114.157 21.2123 102.974 32.4066C91.7905 43.601 91.7905 61.7506 102.974 72.945C114.157 84.1393 132.289 84.1393 143.472 72.945Z" stroke="black" stroke-miterlimit="10"/>
<path d="M136.189 65.6532C143.349 58.486 143.349 46.8656 136.189 39.6984C129.029 32.5311 117.42 32.5311 110.26 39.6984C103.099 46.8656 103.099 58.486 110.26 65.6532C117.42 72.8204 129.029 72.8204 136.189 65.6532Z" stroke="black" stroke-miterlimit="10"/>
<path d="M130.551 60.0104C134.597 55.9596 134.597 49.3919 130.551 45.3411C126.504 41.2903 119.943 41.2903 115.896 45.3411C111.849 49.3919 111.849 55.9596 115.896 60.0104C119.943 64.0612 126.504 64.0612 130.551 60.0104Z" stroke="black" stroke-miterlimit="10"/>
<path d="M127.603 52.674C127.603 50.2543 125.644 48.293 123.226 48.293C120.809 48.293 118.85 50.2543 118.85 52.674C118.85 55.0936 120.809 57.055 123.226 57.055C125.644 57.055 127.603 55.0936 127.603 52.674Z" stroke="black" stroke-miterlimit="10"/>
</g>
<path d="M122.364 53.5436H74.2676V51.8047H122.364C122.842 51.8047 123.232 52.1956 123.232 52.6741C123.226 53.1527 122.842 53.5436 122.364 53.5436Z" fill="#B2B2B2"/>
<path d="M69.9922 46.5L70.2615 46.81L75.2913 51.8044H60.2491L54.8691 46.5H69.9922Z" fill="#B2B2B2"/>
<path d="M54.8691 58.6459L60.2491 53.5303H75.2913C73.3319 54.9996 71.5543 56.7385 69.9518 58.6459H54.8691Z" fill="#B2B2B2"/>
<path d="M475.488 314.947H494.483" stroke="#263238" stroke-miterlimit="10" stroke-linecap="round" stroke-linejoin="round"/>
<path d="M161.479 314.947H467.771" stroke="#263238" stroke-miterlimit="10" stroke-linecap="round" stroke-linejoin="round"/>
<path d="M14.8672 314.947H156.732" stroke="#263238" stroke-miterlimit="10" stroke-linecap="round" stroke-linejoin="round"/>
<path d="M334.034 271.535L335.637 283.667C335.637 283.667 337.596 298.657 338.041 302.135C338.485 305.613 338.31 314.799 338.31 314.799H331.449L331.361 301.865L331.536 279.744L334.034 271.535Z" fill="#808080" stroke="#263238" stroke-miterlimit="10" stroke-linecap="round" stroke-linejoin="round"/>
<path d="M338.344 311.066C338.337 313.189 338.31 314.8 338.31 314.8H331.449L331.408 309.367L338.344 311.066Z" fill="white" stroke="#263238" stroke-miterlimit="10" stroke-linecap="round" stroke-linejoin="round"/>
<path d="M338.33 313.377C338.323 313.97 338.316 314.408 338.309 314.637C338.309 314.644 338.309 314.651 338.309 314.651C338.309 314.678 338.309 314.711 338.309 314.732C338.309 314.732 338.309 314.732 338.309 314.738C338.309 314.786 338.309 314.806 338.309 314.806H331.448L331.441 313.377H338.33Z" fill="white" stroke="#263238" stroke-miterlimit="10" stroke-linecap="round" stroke-linejoin="round"/>
<path d="M323.873 308.201C323.873 308.201 321.288 310.789 320.042 311.322C318.796 311.854 316.837 312.036 316.567 312.663C316.298 313.29 316.48 315.069 316.48 315.069H333.502C333.502 315.069 333.946 313.553 333.771 312.481C333.596 311.41 333.327 310.877 333.327 310.877C333.327 310.877 324.944 308.114 323.873 308.201Z" fill="white" stroke="#263238" stroke-miterlimit="10" stroke-linecap="round" stroke-linejoin="round"/>
<path d="M333.501 315.07H316.479C316.479 315.07 316.405 314.335 316.425 313.641H333.777C333.696 314.402 333.501 315.07 333.501 315.07Z" fill="white" stroke="#263238" stroke-miterlimit="10" stroke-linecap="round" stroke-linejoin="round"/>
<path d="M338.403 254.322C338.403 254.322 338.316 259.761 337.515 261.278C336.713 262.794 335.111 265.382 335.111 265.382C335.111 265.382 333.064 282.239 333.421 283.85C333.778 285.454 334.936 289.646 334.848 292.592C334.761 295.537 333.246 307.932 333.246 307.932C333.246 307.932 333.69 308.734 333.603 309.003C333.515 309.273 333.333 310.877 333.333 310.877C333.333 310.877 330.573 310.432 328.613 309.893C326.654 309.361 323.893 308.201 323.893 308.201C323.893 308.201 323.536 307.13 323.806 306.51C324.075 305.883 324.789 304.103 324.789 304.103C324.789 304.103 324.519 293.576 324.519 291.796C324.519 290.01 323.092 282.252 323.092 280.648C323.092 279.044 321.402 264.142 321.664 262.45C321.934 260.759 322.109 258.17 322.109 258.17L321.664 254.153L338.403 254.322Z" fill="#A1A1A1" stroke="#263238" stroke-miterlimit="10" stroke-linecap="round" stroke-linejoin="round"/>
<path d="M329.092 267.634C329.159 272.541 329.26 281.458 329.132 282.866" stroke="#263238" stroke-miterlimit="10" stroke-linecap="round" stroke-linejoin="round"/>
<path d="M329.045 264.398C329.045 264.398 329.052 264.998 329.072 265.989" stroke="#263238" stroke-miterlimit="10" stroke-linecap="round" stroke-linejoin="round"/>
<path d="M329.314 284.827C329.314 284.827 329.846 288.393 330.028 292.767C330.21 297.141 329.402 306.415 329.402 306.415C329.402 306.415 329.758 307.305 329.758 307.662C329.758 308.019 329.227 309.179 329.227 309.179" stroke="#263238" stroke-miterlimit="10" stroke-linecap="round" stroke-linejoin="round"/>
<path d="M336.014 224.423C336.014 224.423 339.966 230.63 340.579 233.084C341.192 235.537 338.943 247.885 338.943 247.885C338.943 247.885 339.832 253.546 339.556 254.092C339.286 254.638 338.741 255.049 338.741 255.049H321.571C321.571 255.049 320.823 253.755 320.756 253.075C320.689 252.394 320.554 251.639 320.891 250.48C321.234 249.32 322.049 236.016 322.864 233.562C323.678 231.109 327.227 226.607 327.227 226.607L336.014 224.423Z" fill="#39B4EF" stroke="#263238" stroke-miterlimit="10" stroke-linecap="round" stroke-linejoin="round"/>
<path d="M324.143 215.371C324.257 214.542 325.584 213.834 326.028 213.194C326.493 212.527 326.21 211.947 326.567 211.226C327.631 209.089 328.425 207.088 330.923 206.528C334.021 205.834 338.869 207.418 340.31 210.134C341.367 212.116 341.394 214.744 340.653 216.834C340.283 217.885 339.697 218.883 338.855 219.631C338.606 219.853 335.852 221.141 335.872 220.952L335.603 223.136L327.9 225.11L327.557 221.7C327.557 221.7 326.196 221.7 325.308 221.498C324.419 221.296 324.15 220.952 324.352 220.204C324.554 219.456 325.166 216.793 325.166 216.793C324.87 216.551 324.405 216.234 324.23 215.897C324.143 215.708 324.116 215.533 324.143 215.371Z" fill="white" stroke="#263238" stroke-miterlimit="10" stroke-linecap="round" stroke-linejoin="round"/>
<path d="M327.186 212.958C327.051 213.376 327.119 213.774 327.348 213.848C327.577 213.922 327.866 213.646 328.008 213.228C328.142 212.81 328.075 212.412 327.846 212.338C327.617 212.264 327.327 212.54 327.186 212.958Z" fill="#263238"/>
<path d="M329.025 211.9C329.025 211.9 328.762 210.707 327.436 210.835" stroke="#263238" stroke-miterlimit="10" stroke-linecap="round" stroke-linejoin="round"/>
<path d="M325.51 218.067C325.51 218.067 326.372 218.269 327.166 217.467" stroke="#263238" stroke-miterlimit="10" stroke-linecap="round" stroke-linejoin="round"/>
<path d="M335.724 218.377C336.397 217.373 336.06 215.472 334.943 215.021C333.825 214.576 332.485 216.247 332.148 216.139C331.812 216.025 332.929 214.124 332.929 214.124C332.929 214.124 331.589 213.342 331.253 212.338C330.916 211.334 333.266 210.323 333.933 210.215C334.606 210.1 330.916 206.528 330.916 206.528C334.013 205.834 338.861 207.418 340.302 210.134C341.359 212.116 341.386 214.744 340.646 216.834C340.275 217.885 339.69 218.883 338.848 219.631C338.632 219.819 336.559 220.81 336.006 220.952C335.919 220.952 335.872 220.952 335.872 220.952L333.933 219.617C333.939 219.604 335.057 219.381 335.724 218.377Z" fill="#263238" stroke="#263238" stroke-miterlimit="10" stroke-linecap="round" stroke-linejoin="round"/>
<path d="M326.662 227.584L324.016 231.257L323.134 250.682L321.646 254.14L319.754 247.885L323.679 230.563L326.373 226.007L326.662 227.584Z" fill="#263238" stroke="#263238" stroke-miterlimit="10" stroke-linecap="round" stroke-linejoin="round"/>
<path d="M335.88 222.307L326.406 225.447L326.75 229.262L336.627 224.693L335.88 222.307Z" fill="#39B4EF" stroke="#263238" stroke-miterlimit="10" stroke-linecap="round" stroke-linejoin="round"/>
<path d="M327.564 221.693L329.403 221.559L327.908 223.81L327.564 221.693Z" fill="#263238" stroke="#263238" stroke-miterlimit="10" stroke-linecap="round" stroke-linejoin="round"/>
<path d="M302.012 229.606L311.209 222.853L315.64 240.66L314.28 242.156L302.012 229.606Z" fill="#DEDEDE" stroke="#263238" stroke-miterlimit="10" stroke-linecap="round" stroke-linejoin="round"/>
<path d="M306.031 220.332L314.75 241.071L323.133 250.689L318.023 254.915L310.387 243.181C310.387 243.181 300.644 230.9 300.368 230.085C300.105 229.263 306.031 220.332 306.031 220.332Z" fill="white" stroke="#263238" stroke-miterlimit="10" stroke-linecap="round" stroke-linejoin="round"/>
<path d="M322.103 241.967L317.073 240.066C317.073 240.066 315.619 237.943 315.397 237.492C315.175 237.047 312.717 236.15 312.38 235.813C312.044 235.476 310.926 234.25 310.818 234.809C310.71 235.369 310.481 235.928 311.04 236.265C311.599 236.602 312.717 238.051 312.717 238.051C312.717 238.051 310.037 237.829 309.815 238.496C309.593 239.17 310.259 240.511 310.259 240.511C310.259 240.511 311.155 240.626 311.485 240.956C311.821 241.293 312.488 242.742 313.269 243.079C314.05 243.416 316.844 243.524 316.844 243.524L319.975 245.984L322.103 241.967Z" fill="white" stroke="#263238" stroke-miterlimit="10" stroke-linecap="round" stroke-linejoin="round"/>
<path d="M318.837 240.593L317.369 240.04C317.369 240.04 315.901 243.626 316.036 243.673C316.171 243.72 317.551 244.131 317.551 244.131L318.837 240.593Z" fill="#39B4EF" stroke="#263238" stroke-miterlimit="10" stroke-linecap="round" stroke-linejoin="round"/>
<path d="M338.229 232.855C338.411 233.488 338.485 234.068 338.472 234.452C338.404 235.746 334.789 251.026 334.519 251.983C334.25 252.94 332.001 253.486 331.314 253.277C330.634 253.075 317.437 244.994 317.295 244.657C317.161 244.313 318.177 240.498 318.857 240.296C319.538 240.094 328.042 243.659 328.042 243.659C328.042 243.659 328.426 234.068 329.011 232.396" fill="#39B4EF"/>
<path d="M338.229 232.855C338.411 233.488 338.485 234.068 338.472 234.452C338.404 235.746 334.789 251.026 334.519 251.983C334.25 252.94 332.001 253.486 331.314 253.277C330.634 253.075 317.437 244.994 317.295 244.657C317.161 244.313 318.177 240.498 318.857 240.296C319.538 240.094 328.042 243.659 328.042 243.659C328.042 243.659 328.426 234.068 329.011 232.396" stroke="#263238" stroke-miterlimit="10" stroke-linecap="round" stroke-linejoin="round"/>
<path d="M328.453 243.794L331.517 245.432" stroke="#263238" stroke-miterlimit="10" stroke-linecap="round" stroke-linejoin="round"/>
<path d="M331.583 244.407L329.543 243.929" stroke="#263238" stroke-miterlimit="10" stroke-linecap="round" stroke-linejoin="round"/>
<path d="M194.923 97.0566L197.764 109.768L206.605 107.463L207.386 110.038L194.492 117.91L191.697 111.568L194.923 97.0566Z" fill="white" stroke="#263238" stroke-miterlimit="10" stroke-linecap="round" stroke-linejoin="round"/>
<path d="M182.034 92.79L173.268 96.9284L175.476 117.169L189.993 117.418L194.053 108.097L194.922 97.0565L188.37 93.8078L182.034 92.79Z" fill="white" stroke="#263238" stroke-miterlimit="10" stroke-linecap="round" stroke-linejoin="round"/>
<path d="M179.604 94.1718L181.408 101.835L190.714 102.435L190.114 95.075L188.377 93.8079C188.37 93.8079 180.95 91.9207 179.604 94.1718Z" fill="white" stroke="#263238" stroke-miterlimit="10" stroke-linecap="round" stroke-linejoin="round"/>
<path d="M189.736 77.8611C191.682 78.124 193.487 79.0878 194.234 80.7189C195.453 83.3677 194.436 86.0098 194.847 86.6231C195.251 87.2365 195.863 88.8608 195.863 88.8608L194.234 89.8786C194.234 89.8786 192.517 93.0733 191.911 93.4845C191.298 93.8889 188.948 92.7296 188.948 92.7296L187.319 95.7828L182.033 91.3074L184.269 87.0343C184.269 87.0343 182.235 83.1655 183.252 80.7256C184.208 78.434 187.103 77.5107 189.736 77.8611Z" fill="white" stroke="#263238" stroke-miterlimit="10" stroke-linecap="round" stroke-linejoin="round"/>
<path d="M193.924 86.542C193.924 86.9936 193.749 87.3643 193.533 87.3643C193.318 87.3643 193.143 86.9936 193.143 86.542C193.143 86.0904 193.318 85.7197 193.533 85.7197C193.749 85.7197 193.924 86.0904 193.924 86.542Z" fill="#263238"/>
<path d="M192.974 90.6473C192.974 90.6473 192.368 90.5597 191.938 89.9531L192.974 90.6473Z" fill="white"/>
<path d="M192.974 90.6473C192.974 90.6473 192.368 90.5597 191.938 89.9531" stroke="#263238" stroke-miterlimit="10" stroke-linecap="round" stroke-linejoin="round"/>
<path d="M192.887 84.6824C192.887 84.6824 193.836 84.1635 194.267 84.8577L192.887 84.6824Z" fill="white"/>
<path d="M192.887 84.6824C192.887 84.6824 193.836 84.1635 194.267 84.8577" stroke="#263238" stroke-miterlimit="10" stroke-linecap="round" stroke-linejoin="round"/>
<path d="M175.477 117.169C175.477 117.169 171.376 121.456 170.629 129.658C169.881 137.867 168.764 153.349 168.764 153.349L164.852 177.977L169.7 178.166L177.53 154.097L182.749 135.252L188.896 154.279L192.963 178.388L197.623 177.829L197.286 148.314L196.539 143.522C195.549 137.167 193.812 130.946 191.367 124.994L191.138 124.435L190.001 117.418L175.477 117.169Z" fill="#263238" stroke="#263238" stroke-miterlimit="10" stroke-linecap="round" stroke-linejoin="round"/>
<path d="M194.74 80.8404C194.74 80.8404 195.239 82.8422 192.256 84.8912C189.273 86.9401 189.273 86.9401 189.273 86.9401C189.273 86.9401 188.902 100.932 188.525 101.681C188.155 102.429 179.206 94.4081 179.765 92.7231C180.324 91.0448 181.045 86.6368 181.045 85.3293C181.045 84.0217 181.26 80.4091 183.496 78.1714C185.731 75.9337 195.42 76.4931 195.986 78.3601C196.538 80.2271 194.74 80.8404 194.74 80.8404Z" fill="#263238" stroke="#263238" stroke-miterlimit="10" stroke-linecap="round" stroke-linejoin="round"/>
<path d="M173.268 96.9287L163.174 113.806L160.643 129.105L163.349 129.314L168.393 114.743L174.284 107.537C174.284 107.531 174.601 99.6449 173.268 96.9287Z" fill="white" stroke="#263238" stroke-miterlimit="10" stroke-linecap="round" stroke-linejoin="round"/>
<path d="M165.914 132.698C165.914 132.698 164.81 131.221 164.682 131.04C164.561 130.858 163.356 129.314 163.356 129.314C163.356 129.314 160.999 128.391 160.649 129.105C160.299 129.82 159.767 134.976 159.706 135.4C159.646 135.832 160.137 136.142 160.137 136.142L160.568 134.052C160.568 134.052 160.75 136.202 160.75 136.822C160.75 137.436 161.363 137.314 161.363 137.314L161.545 134.113C161.545 134.113 162.157 136.694 162.285 137.314C162.413 137.935 163.026 137.624 163.026 137.436C163.026 137.254 163.147 133.803 163.147 133.803C163.147 133.803 163.699 135.892 163.82 136.384C163.942 136.876 164.5 136.189 164.5 136.189L164.399 132.853C164.399 132.853 164.689 133.001 165.484 133.311C166.278 133.614 165.914 132.698 165.914 132.698Z" fill="white" stroke="#263238" stroke-miterlimit="10" stroke-linecap="round" stroke-linejoin="round"/>
<path d="M164.393 132.853L163.76 131.033" stroke="#263238" stroke-miterlimit="10" stroke-linecap="round" stroke-linejoin="round"/>
<path d="M206.604 107.464L207.654 104.41L209.465 102.867C209.465 102.867 209.553 101.411 210.098 101.323C210.644 101.236 210.825 101.505 210.731 102.321C210.637 103.136 210.098 103.959 210.098 103.959C210.098 103.959 211.276 103.143 211.553 103.595C211.822 104.046 211.734 108.138 211.465 108.683C211.196 109.229 207.385 110.045 207.385 110.045L206.604 107.464Z" fill="white" stroke="#263238" stroke-miterlimit="10" stroke-linecap="round" stroke-linejoin="round"/>
<path d="M210.105 103.959L209.109 104.957C209.109 104.957 208.745 108.677 209.109 108.677C209.472 108.677 211.466 108.677 211.466 108.677" fill="white"/>
<path d="M210.105 103.959L209.109 104.957C209.109 104.957 208.745 108.677 209.109 108.677C209.472 108.677 211.466 108.677 211.466 108.677" stroke="#263238" stroke-miterlimit="10" stroke-linecap="round" stroke-linejoin="round"/>
<path d="M164.857 177.984L163.544 181.772C163.544 181.772 162.642 183.275 162.494 184.475C162.346 185.675 166.998 185.075 167.746 185.075C168.493 185.075 169.247 184.927 169.698 184.475C170.149 184.023 169.705 178.166 169.705 178.166L164.857 177.984Z" fill="white" stroke="#263238" stroke-miterlimit="10" stroke-linecap="round" stroke-linejoin="round"/>
<path d="M197.622 177.93L199.265 181.253C199.265 181.253 203.015 182.756 203.17 183.659C203.318 184.562 203.17 185.013 202.268 185.162C201.365 185.31 191.764 185.162 191.764 185.162C191.764 185.162 191.764 182.911 191.764 182.156C191.764 181.408 192.969 178.489 192.969 178.489L197.622 177.93Z" fill="white" stroke="#263238" stroke-miterlimit="10" stroke-linecap="round" stroke-linejoin="round"/>
<path d="M216.691 271.131L214.665 273.159L133.824 209.668L135.844 207.646L216.691 271.131Z" fill="white" stroke="#263238" stroke-miterlimit="10" stroke-linecap="round" stroke-linejoin="round"/>
<path d="M133.824 271.131L135.844 273.159L216.691 209.668L214.665 207.646L133.824 271.131Z" fill="white" stroke="#263238" stroke-miterlimit="10" stroke-linecap="round" stroke-linejoin="round"/>
<path d="M218.401 188.937H215.539V315.055H218.401V188.937Z" fill="white" stroke="#263238" stroke-miterlimit="10" stroke-linecap="round" stroke-linejoin="round"/>
<path d="M136.996 188.937H134.135V315.055H136.996V188.937Z" fill="white" stroke="#263238" stroke-miterlimit="10" stroke-linecap="round" stroke-linejoin="round"/>
<path d="M135.445 206.752V209.616H215.498V206.752H135.445Z" fill="white" stroke="#263238" stroke-miterlimit="10" stroke-linecap="round" stroke-linejoin="round"/>
<path d="M135.441 271.452V274.316H215.494V271.452H135.441Z" fill="white" stroke="#263238" stroke-miterlimit="10" stroke-linecap="round" stroke-linejoin="round"/>
<path d="M204.127 271.131L202.1 273.159L121.26 209.668L123.287 207.646L204.127 271.131Z" fill="white" stroke="#263238" stroke-miterlimit="10" stroke-linecap="round" stroke-linejoin="round"/>
<path d="M121.26 271.131L123.287 273.159L204.127 209.668L202.1 207.646L121.26 271.131Z" fill="white" stroke="#263238" stroke-miterlimit="10" stroke-linecap="round" stroke-linejoin="round"/>
<path d="M122.883 206.747V209.611H202.935V206.747H122.883Z" fill="white" stroke="#263238" stroke-miterlimit="10" stroke-linecap="round" stroke-linejoin="round"/>
<path d="M122.881 271.447V274.312H202.933V271.447H122.881Z" fill="white" stroke="#263238" stroke-miterlimit="10" stroke-linecap="round" stroke-linejoin="round"/>
<path d="M123.084 188.937H120.223V315.055H123.084V188.937Z" fill="white" stroke="#263238" stroke-miterlimit="10" stroke-linecap="round" stroke-linejoin="round"/>
<path d="M205.723 188.937H202.861V315.055H205.723V188.937Z" fill="white" stroke="#263238" stroke-miterlimit="10" stroke-linecap="round" stroke-linejoin="round"/>
<path d="M223.25 185.357H115.301V190.83H223.25V185.357Z" fill="#263238" stroke="#263238" stroke-miterlimit="10" stroke-linecap="round" stroke-linejoin="round"/>
<path d="M208.875 149.211V6.45801" stroke="#263238" stroke-miterlimit="10" stroke-linecap="round" stroke-linejoin="round"/>
<path d="M292.92 91.8606V6.45801" stroke="#263238" stroke-miterlimit="10" stroke-linecap="round" stroke-linejoin="round"/>
<path d="M266.593 217.805C266.586 217.138 266.633 216.484 266.599 215.817C266.249 208.443 264.418 201.487 261.401 195.226L278.76 179.96L262.842 161.816H258.681L258.317 165.786L258.324 165.792L246.244 176.415C240.03 171.528 232.724 168.023 224.779 166.278L223.708 143.793H219.547L200.64 166.54C192.607 168.509 185.348 172.303 179.241 177.419L161.135 164.323H156.974L157.56 167.046L158.711 167.686L147.009 183.896L164.684 196.675C161.512 203.786 159.849 211.685 160.105 219.968L138.154 226.095L143.938 246.868L140.471 249.355H144.632L166.286 243.309C169.963 250.238 175.066 256.263 181.254 260.941L172.077 282.59L189.819 290.125L190.129 292.026H194.29L203.326 270.714C207.386 271.489 211.581 271.86 215.891 271.658C219.352 271.496 222.705 270.977 225.95 270.188L235.114 287.126L233.202 291.278H237.363L258.573 279.779L247.477 259.276C253.315 254.39 258.115 248.324 261.428 241.415L280.423 244.812L280.672 245.601H284.833L289.075 221.829L266.593 217.805ZM214.477 242.015C201.421 242.635 190.331 232.545 189.711 219.476C189.092 206.408 199.172 195.307 212.228 194.687C225.284 194.067 236.373 204.156 236.993 217.225C237.612 230.294 227.533 241.395 214.477 242.015Z" fill="#263238" stroke="#263238" stroke-miterlimit="10" stroke-linecap="round" stroke-linejoin="round"/>
<path d="M257.274 241.408L280.679 245.594L284.921 221.822L262.438 217.798C262.432 217.131 262.479 216.477 262.445 215.81C262.095 208.436 260.263 201.481 257.247 195.219L274.605 179.96L258.688 161.816L242.09 176.408C235.875 171.521 228.57 168.016 220.624 166.271L219.554 143.786L195.455 144.932L196.485 166.534C188.452 168.502 181.194 172.296 175.087 177.412L156.981 164.316L142.854 183.889L160.529 196.668C157.358 203.779 155.695 211.678 155.951 219.962L134 226.088L140.477 249.348L162.132 243.302C165.808 250.231 170.912 256.257 177.1 260.934L167.923 282.583L190.129 292.012L199.165 270.7C203.225 271.475 207.42 271.846 211.73 271.644C215.191 271.482 218.544 270.963 221.789 270.175L233.202 291.264L254.412 279.766L243.316 259.263C249.16 254.383 253.954 248.324 257.274 241.408ZM185.55 219.476C184.931 206.407 195.011 195.307 208.067 194.687C221.123 194.067 232.212 204.156 232.832 217.225C233.451 230.294 223.372 241.395 210.316 242.015C197.26 242.635 186.17 232.545 185.55 219.476Z" fill="#39B4EF" stroke="#263238" stroke-miterlimit="10" stroke-linecap="round" stroke-linejoin="round"/>
<path d="M335.676 139.688C338.396 134.121 339.858 128.27 340.174 122.447L359.095 118.248L354.718 98.466H350.557L350.745 99.3489L336.626 102.483C334.033 96.3766 330.074 90.843 324.937 86.3475L333.232 69.3829L315.052 60.4793H310.891L314.251 62.1239L307.086 76.7767C300.387 74.9703 293.519 74.8288 286.961 76.1161L278.934 59.165H274.773L275.588 60.7489L260.647 67.8327L268.478 84.3794C263.279 88.329 258.862 93.4582 255.704 99.6522L237.093 95.278H232.932L232.912 96.7877L236.602 97.3539L232.461 114.999L250.823 119.32C250.728 125.898 252.048 132.395 254.708 138.34L239.221 150.539L249.22 163.251L247.577 166.459H251.738L266.989 154.448C269.663 156.659 272.598 158.634 275.851 160.225C278.463 161.505 281.136 162.483 283.843 163.217L283.715 183.336L303.955 183.464L304.077 163.905C310.345 162.678 316.318 160.157 321.55 156.416L334.532 166.917L332.909 168.966H337.07L349.789 153.208L334.882 141.15C335.131 140.658 335.427 140.193 335.676 139.688ZM313.335 128.749C308.514 138.609 296.623 142.687 286.772 137.861C276.921 133.035 272.847 121.133 277.669 111.272C282.49 101.411 294.381 97.3337 304.232 102.159C314.082 106.985 318.156 118.888 313.335 128.749Z" fill="#263238" stroke="#263238" stroke-miterlimit="10" stroke-linecap="round" stroke-linejoin="round"/>
<path d="M317.375 156.416L332.889 168.966L345.608 153.208L330.7 141.15C330.963 140.658 331.259 140.193 331.508 139.688C334.229 134.12 335.69 128.27 336.006 122.447L354.927 118.248L350.55 98.4659L332.458 102.476C329.865 96.3697 325.906 90.8362 320.769 86.3406L329.064 69.376L310.884 60.4725L302.919 76.7698C296.219 74.9635 289.351 74.822 282.793 76.1093L274.766 59.1582L256.479 67.8326L264.31 84.3793C259.111 88.3289 254.694 93.4581 251.536 99.6521L232.926 95.2779L228.293 114.999L246.655 119.319C246.561 125.898 247.88 132.395 250.54 138.34L235.053 150.539L247.571 166.459L262.821 154.448C265.495 156.659 268.43 158.634 271.683 160.225C274.295 161.505 276.968 162.482 279.675 163.217L279.547 183.336L299.788 183.464L299.909 163.905C306.171 162.671 312.15 160.157 317.375 156.416ZM273.507 111.272C278.328 101.411 290.219 97.3336 300.07 102.159C309.921 106.985 313.995 118.888 309.174 128.749C304.353 138.609 292.462 142.687 282.611 137.861C272.76 133.035 268.686 121.133 273.507 111.272Z" fill="#39B4EF" stroke="#263238" stroke-miterlimit="10" stroke-linecap="round" stroke-linejoin="round"/>
<path d="M377.45 178.22C377.45 178.22 372.064 182.109 371.72 182.196C371.37 182.284 368.933 182.742 368.67 183.268C368.414 183.794 368.158 184.582 368.421 185.108C368.69 185.634 385.625 184.973 385.625 184.973C385.625 184.973 385.968 184.097 385.786 182.965C385.604 181.832 385.584 179.642 385.584 179.642L377.45 178.22Z" fill="white" stroke="#263238" stroke-miterlimit="10" stroke-linecap="round" stroke-linejoin="round"/>
<path d="M385.82 184.01L368.36 184.145C368.286 184.488 368.286 184.832 368.421 185.108C368.69 185.634 385.624 184.974 385.624 184.974C385.624 184.974 385.773 184.589 385.82 184.01Z" fill="white" stroke="#263238" stroke-miterlimit="10" stroke-linecap="round" stroke-linejoin="round"/>
<path d="M419.884 177.189L418.861 180.168L414.955 183.605C414.955 183.605 414.699 184.569 415.137 184.738C415.575 184.906 423.082 184.677 423.082 184.677C423.082 184.677 424.301 184.057 424.732 183.612C425.163 183.174 428.88 177.721 428.785 177.115C428.691 176.501 426.409 174.601 426.409 174.601L419.884 177.189Z" fill="white" stroke="#263238" stroke-miterlimit="10" stroke-linecap="round" stroke-linejoin="round"/>
<path d="M424.738 183.619C425.169 183.181 428.886 177.728 428.791 177.122C428.758 176.906 428.448 176.529 428.064 176.131C426.738 178.389 424.172 182.696 423.593 183.019C422.96 183.376 417.156 183.606 414.934 183.68C414.887 183.902 414.766 184.603 415.136 184.745C415.574 184.913 423.081 184.684 423.081 184.684C423.081 184.684 424.3 184.064 424.738 183.619Z" fill="white" stroke="#263238" stroke-miterlimit="10" stroke-linecap="round" stroke-linejoin="round"/>
<path d="M391.517 134.227C391.517 134.227 390.837 136.418 390.837 136.768C390.837 137.119 390.937 138.251 390.937 138.251C390.937 138.251 379.693 151.799 378.999 153.113C378.313 154.427 378.05 176.986 378.05 176.986C378.05 176.986 377.006 177.256 377.006 177.606C377.006 177.957 376.838 178.657 376.838 178.657C376.838 178.657 379.033 179.952 380.346 180.376C381.659 180.801 385.154 181.387 385.154 181.387C385.154 181.387 385.585 180.511 385.578 179.635C385.571 178.759 385.295 177.188 385.295 176.925C385.295 176.662 388.722 157.319 388.722 157.319L399.718 144.998C399.718 144.998 404.539 158.599 405.508 159.374C406.478 160.156 418.558 175.881 418.558 175.881C418.558 175.881 417.689 176.413 418.127 176.669C418.564 176.925 419.453 178.408 419.453 178.408C419.453 178.408 422.941 177.855 424.335 176.972C425.729 176.09 426.415 174.593 426.415 174.593C426.415 174.593 425.352 172.767 424.914 172.248C424.476 171.729 423.857 170.859 423.857 170.859L413.676 153.281C413.676 153.281 411.164 133.547 410.451 131.713C409.737 129.88 407.273 127.016 407.273 127.016L391.517 134.227Z" fill="#A1A1A1" stroke="#263238" stroke-miterlimit="10" stroke-linecap="round" stroke-linejoin="round"/>
<path d="M391.01 135.98L408.409 128.242L407.264 127.029L391.427 133.533L391.01 135.98Z" fill="#263238" stroke="#263238" stroke-miterlimit="10" stroke-linecap="round" stroke-linejoin="round"/>
<path d="M394.843 135.077L395.287 136.472C395.287 136.472 394.419 137.005 394.594 137.436C394.769 137.874 395.913 138.912 395.913 138.912" stroke="#263238" stroke-miterlimit="10" stroke-linecap="round" stroke-linejoin="round"/>
<path d="M396.236 134.457L396.95 136.027C396.95 136.027 396.081 136.735 396.526 137.342C396.97 137.948 397.583 138.555 397.583 138.555" stroke="#263238" stroke-miterlimit="10" stroke-linecap="round" stroke-linejoin="round"/>
<path d="M396.632 141.163L396.02 140.401" stroke="#263238" stroke-miterlimit="10" stroke-linecap="round" stroke-linejoin="round"/>
<path d="M399.723 145.005L397.791 142.605" stroke="#263238" stroke-miterlimit="10" stroke-linecap="round" stroke-linejoin="round"/>
<path d="M419.311 166.525L420.778 169.053" stroke="#263238" stroke-miterlimit="10" stroke-linecap="round" stroke-linejoin="round"/>
<path d="M408.314 137.854L411.748 152.951L411.493 154.178C411.493 154.178 412.543 154.346 412.543 154.609C412.543 154.872 412.543 154.872 412.543 154.872L418.327 164.84" stroke="#263238" stroke-miterlimit="10" stroke-linecap="round" stroke-linejoin="round"/>
<path d="M383.469 172.16L382.938 176.339" stroke="#263238" stroke-miterlimit="10" stroke-linecap="round" stroke-linejoin="round"/>
<path d="M396.747 144.418L385.926 157.002C385.926 157.002 384.176 156.84 384.445 157.278C384.708 157.716 385.239 158.323 385.239 158.323L383.65 170.751" stroke="#263238" stroke-miterlimit="10" stroke-linecap="round" stroke-linejoin="round"/>
<path d="M379.543 112.605C379.543 112.605 380.479 121.212 381.226 122.136C381.974 123.059 389.145 129.88 389.145 129.88C389.145 129.88 390.599 134.146 390.666 134.457C390.734 134.767 390.296 135.299 391.347 135.104C392.397 134.908 406.9 128.195 407.392 127.696C407.884 127.198 408.126 126.328 408.119 125.897C408.119 125.465 407.675 124.845 407.426 124.542C407.177 124.232 405.992 123.437 405.992 123.437C405.992 123.437 399.157 112.026 397.662 110.617C396.168 109.202 390.68 104.477 388.202 103.998C385.724 103.52 382.445 103.668 382.445 103.668L379.543 112.605Z" fill="white" stroke="#263238" stroke-miterlimit="10" stroke-linecap="round" stroke-linejoin="round"/>
<path d="M359.519 102.799C359.519 102.799 358.179 100.817 357.823 100.534C357.466 100.251 353.439 97.9863 353.439 97.9863C353.439 97.9863 352.099 98.2694 353.089 98.9771C354.079 99.6848 355.776 101.875 355.776 101.875C355.776 101.875 354.362 101.451 353.87 101.451C353.379 101.451 353.163 102.583 353.729 102.725C354.294 102.866 355.001 103.149 355.001 103.149C355.001 103.149 356.133 104.989 356.698 105.272C357.264 105.555 358.321 105.623 358.321 105.623L381.073 115.032L382.271 108.521L359.519 102.799Z" fill="white" stroke="#263238" stroke-miterlimit="10" stroke-linecap="round" stroke-linejoin="round"/>
<path d="M376.359 100.548C376.359 100.548 375.107 98.8428 373.134 97.2994C371.161 95.7492 364.589 97.9532 363.646 103.588C363.646 103.588 362.805 106.257 364.151 107.726C365.498 109.195 367.592 110.469 367.592 110.469C367.592 110.469 369.841 113.058 370.09 112.929C370.339 112.801 371.195 111.494 371.195 111.494C371.195 111.494 374.797 113.448 375.167 113.138C375.538 112.828 376.756 110.584 376.756 110.584L378.749 111.871L381.348 103.918L378.184 103.264L376.359 100.548Z" fill="white" stroke="#263238" stroke-miterlimit="10" stroke-linecap="round" stroke-linejoin="round"/>
<path d="M380.837 103.305L378.002 112.741L380.614 114.641L383.187 103.345L380.837 103.305Z" fill="white" stroke="#263238" stroke-miterlimit="10" stroke-linecap="round" stroke-linejoin="round"/>
<path d="M380.371 119.413L379.859 136.674L381.186 139.256L382.957 136.162L381.038 118.375L380.371 119.413Z" fill="#39B4EF" stroke="#263238" stroke-miterlimit="10" stroke-linecap="round" stroke-linejoin="round"/>
<path d="M386.984 107.018C386.129 106.776 385.301 106.675 384.574 106.742C381.793 107.012 377.874 113.239 377.632 113.361C377.382 113.489 372.164 118.483 372.164 118.483L357.748 116.427L353.728 111.501C353.728 111.501 352.301 110.894 351.863 110.523C351.425 110.153 351.297 109.29 350.745 109.728C350.193 110.166 349.883 110.725 350.079 111.157C350.267 111.588 351.015 112.262 351.015 112.262L351.392 112.815C351.392 112.815 346.988 112.565 346.652 112.855C346.315 113.145 346.221 113.671 346.463 113.812C346.631 113.913 349.197 114.271 350.106 114.473C350.133 114.52 345.487 114.608 345.413 114.864C345.318 115.201 345.271 115.585 345.46 115.679C345.648 115.774 349.628 116.448 349.628 116.448C349.628 116.448 346.658 116.879 346.463 117.068C346.274 117.257 346.369 117.594 346.557 117.742C346.746 117.883 350.247 117.742 350.247 117.742C350.247 117.742 347.756 118.268 347.951 118.557C348.14 118.847 348.241 118.942 348.429 118.989C348.618 119.036 355.661 120.04 355.661 120.04L355.667 119.979L356.563 120.202C356.563 120.202 373.531 125.904 374.218 126.019C374.898 126.14 376.258 125.816 376.689 125.628C377.12 125.439 384.439 119.123 384.439 119.123L384.513 118.78" fill="white"/>
<path d="M386.984 107.018C386.129 106.776 385.301 106.675 384.574 106.742C381.793 107.012 377.874 113.239 377.632 113.361C377.382 113.489 372.164 118.483 372.164 118.483L357.748 116.427L353.728 111.501C353.728 111.501 352.301 110.894 351.863 110.523C351.425 110.153 351.297 109.29 350.745 109.728C350.193 110.166 349.883 110.725 350.079 111.157C350.267 111.588 351.015 112.262 351.015 112.262L351.392 112.815C351.392 112.815 346.988 112.565 346.652 112.855C346.315 113.145 346.221 113.671 346.463 113.812C346.631 113.913 349.197 114.271 350.106 114.473C350.133 114.52 345.487 114.608 345.413 114.864C345.318 115.201 345.271 115.585 345.46 115.679C345.648 115.774 349.628 116.448 349.628 116.448C349.628 116.448 346.658 116.879 346.463 117.068C346.274 117.257 346.369 117.594 346.557 117.742C346.746 117.883 350.247 117.742 350.247 117.742C350.247 117.742 347.756 118.268 347.951 118.557C348.14 118.847 348.241 118.942 348.429 118.989C348.618 119.036 355.661 120.04 355.661 120.04L355.667 119.979L356.563 120.202C356.563 120.202 373.531 125.904 374.218 126.019C374.898 126.14 376.258 125.816 376.689 125.628C377.12 125.439 384.439 119.123 384.439 119.123L384.513 118.78" stroke="#263238" stroke-miterlimit="10" stroke-linecap="round" stroke-linejoin="round"/>
<path d="M384.998 118.247L389.22 115.362" stroke="#263238" stroke-miterlimit="10" stroke-linecap="round" stroke-linejoin="round"/>
<path d="M385.529 118.449L389.664 116.805" stroke="#263238" stroke-miterlimit="10" stroke-linecap="round" stroke-linejoin="round"/>
<path d="M367.72 104.565C367.72 104.565 368.117 106.54 368.663 106.546C369.208 106.56 370.952 105.569 370.952 105.569L372.339 106.101C372.339 106.101 373.066 105.704 372.278 104.942C371.484 104.181 371.026 104.241 371.107 103.608C371.188 102.974 372.75 100.797 373.773 102.057C374.797 103.318 375.106 105.225 375.106 105.225L378.177 103.264C378.177 103.264 375.753 98.3842 374.635 97.508C373.517 96.6318 370.602 96.288 368.535 97.1642C366.468 98.0404 364.528 98.7414 363.559 101.579C362.582 104.416 362.508 106.991 363.141 107.072C363.774 107.153 364.804 103.527 365.074 103.183C365.336 102.833 367.72 104.565 367.72 104.565Z" fill="#263238" stroke="#263238" stroke-miterlimit="10" stroke-linecap="round" stroke-linejoin="round"/>
<path d="M369.161 108.743C369.491 109.006 369.659 109.35 369.524 109.518C369.396 109.687 369.019 109.606 368.689 109.35C368.36 109.087 368.191 108.743 368.326 108.575C368.454 108.406 368.831 108.487 369.161 108.743Z" fill="#263238"/>
<path d="M366.999 108.852C366.999 108.852 366.696 107.645 367.834 107.43" stroke="#263238" stroke-miterlimit="10" stroke-linecap="round" stroke-linejoin="round"/>
<path d="M372.648 111.197C372.648 111.197 373.665 110.604 372.992 109.525" stroke="#263238" stroke-miterlimit="10" stroke-linecap="round" stroke-linejoin="round"/>
<path d="M371.504 117.789L376.056 126.49L379.173 124.63L374.17 116.69L371.504 117.789Z" fill="white" stroke="#263238" stroke-miterlimit="10" stroke-linecap="round" stroke-linejoin="round"/>
<path d="M387.16 124.65C387.16 124.65 393.207 127.528 400.061 127.454" stroke="#263238" stroke-miterlimit="10" stroke-linecap="round" stroke-linejoin="round"/>
<path d="M391.576 128.188C391.576 128.188 397.104 129.887 399.905 128.856" stroke="#263238" stroke-miterlimit="10" stroke-linecap="round" stroke-linejoin="round"/>
<path d="M453.793 271.131L451.773 273.159L370.926 209.668L372.953 207.646L453.793 271.131Z" fill="white" stroke="#263238" stroke-miterlimit="10" stroke-linecap="round" stroke-linejoin="round"/>
<path d="M370.926 271.131L372.953 273.159L453.793 209.668L451.773 207.646L370.926 271.131Z" fill="white" stroke="#263238" stroke-miterlimit="10" stroke-linecap="round" stroke-linejoin="round"/>
<path d="M455.51 188.937H452.648V315.055H455.51V188.937Z" fill="white" stroke="#263238" stroke-miterlimit="10" stroke-linecap="round" stroke-linejoin="round"/>
<path d="M374.104 188.937H371.242V315.055H374.104V188.937Z" fill="white" stroke="#263238" stroke-miterlimit="10" stroke-linecap="round" stroke-linejoin="round"/>
<path d="M372.551 206.75V209.614H452.603V206.75H372.551Z" fill="white" stroke="#263238" stroke-miterlimit="10" stroke-linecap="round" stroke-linejoin="round"/>
<path d="M372.549 271.45V274.314H452.601V271.45H372.549Z" fill="white" stroke="#263238" stroke-miterlimit="10" stroke-linecap="round" stroke-linejoin="round"/>
<path d="M441.234 271.131L439.208 273.159L358.367 209.668L360.394 207.646L441.234 271.131Z" fill="white" stroke="#263238" stroke-miterlimit="10" stroke-linecap="round" stroke-linejoin="round"/>
<path d="M358.367 271.131L360.394 273.159L441.234 209.668L439.208 207.646L358.367 271.131Z" fill="white" stroke="#263238" stroke-miterlimit="10" stroke-linecap="round" stroke-linejoin="round"/>
<path d="M359.988 206.753V209.617H440.041V206.753H359.988Z" fill="white" stroke="#263238" stroke-miterlimit="10" stroke-linecap="round" stroke-linejoin="round"/>
<path d="M359.986 271.453V274.317H440.039V271.453H359.986Z" fill="white" stroke="#263238" stroke-miterlimit="10" stroke-linecap="round" stroke-linejoin="round"/>
<path d="M360.192 188.937H357.33V315.055H360.192V188.937Z" fill="white" stroke="#263238" stroke-miterlimit="10" stroke-linecap="round" stroke-linejoin="round"/>
<path d="M442.823 188.937H439.961V315.055H442.823V188.937Z" fill="white" stroke="#263238" stroke-miterlimit="10" stroke-linecap="round" stroke-linejoin="round"/>
<path d="M460.357 185.357H352.408V190.83H460.357V185.357Z" fill="#263238" stroke="#263238" stroke-miterlimit="10" stroke-linecap="round" stroke-linejoin="round"/>
<path d="M112.857 234.324L126.633 240.114L141.13 237.492L141.406 239.972L127.044 245.492L111.342 238.597L112.857 234.324Z" fill="white" stroke="#263238" stroke-miterlimit="10" stroke-linecap="round" stroke-linejoin="round"/>
<path d="M124.85 219.577C124.85 219.577 127.698 220.81 127.463 222.347C127.234 223.884 125.928 224.275 125.308 225.117C124.695 225.966 124.769 225.501 124.769 225.501L124.231 220.73C124.231 220.73 124.157 218.883 124.85 219.577Z" fill="#263238" stroke="#263238" stroke-miterlimit="10" stroke-linecap="round" stroke-linejoin="round"/>
<path d="M113.234 216.031C113.234 216.031 111.847 214.259 109.006 214.414C106.158 214.569 104.925 216.261 104.925 218.262C104.925 220.264 105.235 219.651 101 220.878C96.7713 222.111 96.7713 223.729 96.6905 224.571C96.6165 225.42 95.6132 225.42 94.3069 226.883C93.0007 228.345 92.9199 232.855 97.6871 234.546C102.454 236.238 106.407 233.502 107.255 229.963C108.104 226.418 107.235 225.494 108.306 224.497C109.383 223.493 108.306 221.956 108.77 220.109C109.235 218.262 111.773 217.494 112.615 217.339C113.463 217.191 113.389 216.726 113.234 216.031Z" fill="#263238" stroke="#263238" stroke-miterlimit="10" stroke-linecap="round" stroke-linejoin="round"/>
<path d="M110.602 228.346C110.602 228.346 102.232 232.996 100.178 235.733C98.1248 238.469 97.1484 249.253 97.1484 249.253L107.255 255.724C107.255 255.724 114.09 248.734 114.655 246.679C115.227 244.623 113.921 233.118 113.921 233.118L110.602 228.346Z" fill="white" stroke="#263238" stroke-miterlimit="10" stroke-linecap="round" stroke-linejoin="round"/>
<path d="M122.998 218.242C118.372 214.326 111.544 217.056 111.006 219.665C110.467 222.273 110.622 224.511 110.622 224.511L111.012 227.955L110.602 228.346L108.871 229.161L113.315 237.654L115.921 231.433C115.921 231.433 119.099 233.279 119.611 233.279C120.122 233.279 122.998 229.66 122.998 229.66C122.998 229.66 123.893 230.293 124.183 230.226C124.465 230.159 124.519 226.526 124.519 226.526C124.519 226.526 125.341 224.052 125.422 221.943C125.502 219.826 122.998 218.242 122.998 218.242Z" fill="white" stroke="#263238" stroke-miterlimit="10" stroke-linecap="round" stroke-linejoin="round"/>
<path d="M122.063 226.209C121.975 226.647 122.076 227.038 122.298 227.085C122.521 227.133 122.77 226.809 122.857 226.371C122.945 225.933 122.844 225.542 122.621 225.495C122.399 225.448 122.15 225.771 122.063 226.209Z" fill="#263238"/>
<path d="M123.886 224.814C123.886 224.814 123.3 223.628 122.236 224.234" stroke="#263238" stroke-miterlimit="10" stroke-linecap="round" stroke-linejoin="round"/>
<path d="M120.925 230.59C120.925 230.59 119.699 230.812 119.504 229.471" stroke="#263238" stroke-miterlimit="10" stroke-linecap="round" stroke-linejoin="round"/>
<path d="M125.617 221.195C125.617 221.195 127.307 219.732 123.617 217.42C119.927 215.108 115.308 214.724 112.695 216.497C110.083 218.269 109.692 221.195 110.231 223.27C110.77 225.346 110.157 226.735 111.234 227.429C112.312 228.123 115.315 226.661 115.699 225.272C116.082 223.884 116.163 223.196 117.315 223.345C118.466 223.5 118.863 225.272 118.863 225.272C118.863 225.272 121.543 223.035 123.159 222.731C124.768 222.428 125.617 221.195 125.617 221.195Z" fill="#263238" stroke="#263238" stroke-miterlimit="10" stroke-linecap="round" stroke-linejoin="round"/>
<path d="M97.1489 249.253C97.1489 249.253 87.0758 257.092 86.1332 261.816C85.1905 266.534 81.3054 288.601 81.3054 288.601C81.3054 288.601 73.5957 307.817 73.5957 308.356C73.5957 308.895 76.8277 309.569 76.8277 309.569C76.8277 309.569 88.4225 292.685 88.8265 292.14C89.2305 291.6 96.388 273.51 96.388 273.51L103.35 288.938L108.771 310.216L112.272 309.542L112.629 285.292L105.741 259.862L107.256 255.73L97.1489 249.253Z" fill="#263238" stroke="#263238" stroke-miterlimit="10" stroke-linecap="round" stroke-linejoin="round"/>
<path d="M78.1131 308.248C78.1131 308.248 79.4867 312.022 79.8099 312.346C80.1331 312.669 82.0723 314.179 81.9646 314.718C81.8568 315.258 76.7934 315.042 75.6083 314.934C74.4232 314.826 71.8376 311.915 71.5144 311.052C71.1912 310.189 73.1304 307.385 74.1 306.738C75.0764 306.091 78.1131 308.248 78.1131 308.248Z" fill="white" stroke="#263238" stroke-miterlimit="10" stroke-linecap="round" stroke-linejoin="round"/>
<path d="M112.413 308.356L115.194 310.877C115.194 310.877 119.968 312.731 119.968 313.135C119.968 313.54 119.026 314.24 116.191 314.645C113.363 315.049 109.168 314.524 108.091 314.119C107.013 313.715 108.764 310.21 108.764 310.21L112.413 308.356Z" fill="white" stroke="#263238" stroke-miterlimit="10" stroke-linecap="round" stroke-linejoin="round"/>
<path d="M104.447 239.756C104.791 241.252 105.121 240.956 106.407 241.791C108.986 243.456 124.856 248.646 124.856 248.646L141.184 241.859L144.43 241.192C144.43 241.192 145.177 241.36 145.514 241.441C145.844 241.522 146.349 241.36 146.679 241.111C147.009 240.861 145.265 240.113 145.265 240.113C145.265 240.113 147.345 240.194 148.012 240.032C148.679 239.87 148.759 239.196 148.429 239.196C148.099 239.196 145.352 238.866 145.352 238.866C145.352 238.866 148.847 237.869 149.015 237.619C149.184 237.37 148.685 236.784 148.18 236.784C147.675 236.784 144.517 237.282 144.517 237.282L145.514 236.534C145.514 236.534 147.514 235.955 148.093 235.449C148.672 234.95 148.012 234.613 148.012 234.613L146.012 234.863L142.935 236.029L143.265 235.193C143.265 235.193 144.1 234.526 144.181 233.697C144.261 232.861 143.346 233.697 143.346 233.697L140.599 236.278L139.851 238.94L125.247 242.944L110.426 234.034L109.928 233.865" fill="white"/>
<path d="M104.447 239.756C104.791 241.252 105.121 240.956 106.407 241.791C108.986 243.456 124.856 248.646 124.856 248.646L141.184 241.859L144.43 241.192C144.43 241.192 145.177 241.36 145.514 241.441C145.844 241.522 146.349 241.36 146.679 241.111C147.009 240.861 145.265 240.113 145.265 240.113C145.265 240.113 147.345 240.194 148.012 240.032C148.679 239.87 148.759 239.196 148.429 239.196C148.099 239.196 145.352 238.866 145.352 238.866C145.352 238.866 148.847 237.869 149.015 237.619C149.184 237.37 148.685 236.784 148.18 236.784C147.675 236.784 144.517 237.282 144.517 237.282L145.514 236.534C145.514 236.534 147.514 235.955 148.093 235.449C148.672 234.95 148.012 234.613 148.012 234.613L146.012 234.863L142.935 236.029L143.265 235.193C143.265 235.193 144.1 234.526 144.181 233.697C144.261 232.861 143.346 233.697 143.346 233.697L140.599 236.278L139.851 238.94L125.247 242.944L110.426 234.034L109.928 233.865" stroke="#263238" stroke-miterlimit="10" stroke-linecap="round" stroke-linejoin="round"/>
<path d="M103.355 241.691L108.594 244.939L114.715 236.393C114.715 236.393 109.341 232.78 108.756 232.699C108.177 232.618 106.177 232.201 105.012 234.034" fill="white"/>
<path d="M103.355 241.691L108.594 244.939L114.715 236.393C114.715 236.393 109.341 232.78 108.756 232.699C108.177 232.618 106.177 232.201 105.012 234.034" stroke="#263238" stroke-miterlimit="10" stroke-linecap="round" stroke-linejoin="round"/>
</svg>
