<svg width="641" height="407" viewBox="0 0 641 407" fill="none" xmlns="http://www.w3.org/2000/svg">
<g clip-path="url(#clip0_115_11831)">
<path d="M607.311 147.503C607.311 147.503 523.544 22.7629 415.193 4.55257C306.842 -13.6577 257.675 34.5995 201.223 77.3937C144.771 120.188 38.2415 152.056 25.4943 220.345C12.7472 288.633 23.6733 341.443 81.946 374.221C140.219 407 182.102 393.342 296.827 381.506C411.551 369.669 426.119 417.016 526.276 404.268C626.432 391.521 638.268 284.991 633.716 232.181C629.163 179.371 607.311 147.503 607.311 147.503Z" fill="#39B4EF"/>
<path opacity="0.7" d="M607.311 147.503C607.311 147.503 523.544 22.7629 415.193 4.55257C306.842 -13.6577 257.675 34.5995 201.223 77.3937C144.771 120.188 38.2415 152.056 25.4943 220.345C12.7472 288.633 23.6733 341.443 81.946 374.221C140.219 407 182.102 393.342 296.827 381.506C411.551 369.669 426.119 417.016 526.276 404.268C626.432 391.521 638.268 284.991 633.716 232.181C629.163 179.371 607.311 147.503 607.311 147.503Z" fill="white"/>
<path opacity="0.2" d="M358.951 229.659H325.453V243.217H358.951V229.659Z" fill="#002E47"/>
<path opacity="0.2" d="M346.195 181.411H312.697V194.969H346.195V181.411Z" fill="#002E47"/>
<path opacity="0.2" d="M224.961 229.268H191.463V242.825H224.961V229.268Z" fill="#002E47"/>
<path opacity="0.2" d="M273.619 134.92H240.121V148.478H273.619V134.92Z" fill="#002E47"/>
<path opacity="0.2" d="M310.302 134.92H276.805V148.478H310.302V134.92Z" fill="#002E47"/>
<path opacity="0.2" d="M167.535 329.533H134.037V343.091H167.535V329.533Z" fill="#002E47"/>
<path opacity="0.2" d="M149.988 346.278H116.49V359.835H149.988V346.278Z" fill="#002E47"/>
<path opacity="0.1" d="M327.847 200.149H294.35V213.707H327.847V200.149Z" fill="#002E47"/>
<path opacity="0.1" d="M378.099 276.323H344.602V289.881H378.099V276.323Z" fill="#002E47"/>
<path opacity="0.1" d="M181.892 297.055H148.395V310.613H181.892V297.055Z" fill="#002E47"/>
<path opacity="0.1" d="M220.179 297.055H186.682V310.613H220.179V297.055Z" fill="#002E47"/>
<path opacity="0.1" d="M223.367 277.916H189.869V291.474H223.367V277.916Z" fill="#002E47"/>
<path opacity="0.1" d="M366.134 200.149H332.637V213.707H366.134V200.149Z" fill="#002E47"/>
<path opacity="0.2" d="M266.433 344.912H232.936V358.47H266.433V344.912Z" fill="#002E47"/>
<path opacity="0.1" d="M248.088 363.66H214.59V377.217H248.088V363.66Z" fill="#002E47"/>
<path opacity="0.1" d="M286.375 363.66H252.877V377.217H286.375V363.66Z" fill="#002E47"/>
<path opacity="0.2" d="M104.045 176.157H70.5469V189.715H104.045V176.157Z" fill="#002E47"/>
<path opacity="0.1" d="M85.6969 194.896H52.1992V208.453H85.6969V194.896Z" fill="#002E47"/>
<path opacity="0.1" d="M123.984 194.896H90.4863V208.453H123.984V194.896Z" fill="#002E47"/>
<path opacity="0.2" d="M90.9704 277.124H57.4727V290.682H90.9704V277.124Z" fill="#002E47"/>
<path opacity="0.1" d="M239.32 212.286H205.822V225.844H239.32V212.286Z" fill="#002E47"/>
<path opacity="0.1" d="M189.068 345.486H155.57V359.043H189.068V345.486Z" fill="#002E47"/>
<path opacity="0.1" d="M292.757 118.167H259.26V131.724H292.757V118.167Z" fill="#002E47"/>
<path opacity="0.2" d="M71.8297 232.227H38.332V245.784H71.8297V232.227Z" fill="#002E47"/>
<path opacity="0.1" d="M90.9704 215.473H57.4727V229.031H90.9704V215.473Z" fill="#002E47"/>
<path opacity="0.1" d="M176.312 133.955H142.814V147.513H176.312V133.955Z" fill="#002E47"/>
<path opacity="0.2" d="M292.757 229.659H259.26V243.217H292.757V229.659Z" fill="#002E47"/>
<path opacity="0.2" d="M99.2555 46.9462H65.7578V60.5037H99.2555V46.9462Z" fill="#002E47"/>
<path opacity="0.1" d="M33.8532 128.301H0.355469V141.858H33.8532V128.301Z" fill="#002E47"/>
<path opacity="0.1" d="M72.1403 128.301H38.6426V141.858H72.1403V128.301Z" fill="#002E47"/>
<path opacity="0.1" d="M75.3278 109.162H41.8301V122.719H75.3278V109.162Z" fill="#002E47"/>
<path opacity="0.1" d="M50.2887 163.629H16.791V177.186H50.2887V163.629Z" fill="#002E47"/>
<path opacity="0.2" d="M144.716 60.9043H111.219V74.4619H144.716V60.9043Z" fill="#002E47"/>
<path opacity="0.2" d="M278.899 194.968H312.396V181.41H278.899V194.968Z" fill="#002E47"/>
<path opacity="0.2" d="M400.129 242.821H433.627V229.263H400.129V242.821Z" fill="#002E47"/>
<path opacity="0.2" d="M351.473 148.477H384.971V134.919H351.473V148.477Z" fill="#002E47"/>
<path opacity="0.2" d="M314.789 148.477H348.287V134.919H314.789V148.477Z" fill="#002E47"/>
<path opacity="0.2" d="M457.555 343.084H491.053V329.527H457.555V343.084Z" fill="#002E47"/>
<path opacity="0.2" d="M475.104 359.839H508.602V346.281H475.104V359.839Z" fill="#002E47"/>
<path opacity="0.1" d="M297.241 213.716H330.738V200.158H297.241V213.716Z" fill="#002E47"/>
<path opacity="0.1" d="M246.989 289.88H280.486V276.323H246.989V289.88Z" fill="#002E47"/>
<path opacity="0.1" d="M443.202 310.622H476.699V297.065H443.202V310.622Z" fill="#002E47"/>
<path opacity="0.1" d="M404.91 310.622H438.408V297.065H404.91V310.622Z" fill="#002E47"/>
<path opacity="0.1" d="M401.727 291.478H435.225V277.92H401.727V291.478Z" fill="#002E47"/>
<path opacity="0.1" d="M258.951 213.716H292.449V200.158H258.951V213.716Z" fill="#002E47"/>
<path opacity="0.2" d="M358.655 358.476H392.152V344.918H358.655V358.476Z" fill="#002E47"/>
<path opacity="0.1" d="M376.996 377.215H410.494V363.657H376.996V377.215Z" fill="#002E47"/>
<path opacity="0.1" d="M338.717 377.215H372.215V363.657H338.717V377.215Z" fill="#002E47"/>
<path opacity="0.2" d="M521.043 189.71H554.541V176.153H521.043V189.71Z" fill="#002E47"/>
<path opacity="0.1" d="M539.395 208.458H572.893V194.901H539.395V208.458Z" fill="#002E47"/>
<path opacity="0.1" d="M501.104 208.458H534.602V194.901H501.104V208.458Z" fill="#002E47"/>
<path opacity="0.2" d="M534.118 290.674H567.615V277.117H534.118V290.674Z" fill="#002E47"/>
<path opacity="0.1" d="M385.766 225.842H419.264V212.284H385.766V225.842Z" fill="#002E47"/>
<path opacity="0.1" d="M436.02 359.036H469.518V345.478H436.02V359.036Z" fill="#002E47"/>
<path opacity="0.1" d="M332.338 131.732H365.836V118.174H332.338V131.732Z" fill="#002E47"/>
<path opacity="0.2" d="M553.262 245.781H586.76V232.223H553.262V245.781Z" fill="#002E47"/>
<path opacity="0.1" d="M534.118 229.036H567.615V215.478H534.118V229.036Z" fill="#002E47"/>
<path opacity="0.1" d="M448.778 147.511H482.275V133.953H448.778V147.511Z" fill="#002E47"/>
<path opacity="0.2" d="M525.834 60.504L559.332 60.504V46.9465H525.834V60.504Z" fill="#002E47"/>
<path opacity="0.1" d="M591.237 141.857H624.734V128.299H591.237V141.857Z" fill="#002E47"/>
<path opacity="0.1" d="M552.946 141.857H586.443V128.299H552.946V141.857Z" fill="#002E47"/>
<path opacity="0.1" d="M549.762 122.712H583.26V109.154H549.762V122.712Z" fill="#002E47"/>
<path opacity="0.1" d="M574.797 177.194H608.295V163.637H574.797V177.194Z" fill="#002E47"/>
<path opacity="0.2" d="M480.371 74.4613H513.869V60.9037H480.371V74.4613Z" fill="#002E47"/>
<path d="M582.863 310.704V210.238" stroke="#5E5E5E" stroke-width="4" stroke-miterlimit="10"/>
<path d="M570.363 312.734V173.981" stroke="#5E5E5E" stroke-width="4" stroke-miterlimit="10"/>
<path d="M598.707 313.408V264.677" stroke="#5E5E5E" stroke-width="4" stroke-miterlimit="10"/>
<path d="M565.51 187.657C565.51 187.657 563.006 183.059 554.638 173.025C546.28 162.991 511.58 135.821 511.58 135.821C511.58 135.821 531.229 146.274 537.502 151.71C543.776 157.146 552.134 163.829 552.134 163.829C552.134 163.829 528.725 138.325 526.212 136.659C523.708 134.984 550.04 156.727 550.04 156.727C550.04 156.727 540.006 136.659 534.989 129.976C529.972 123.284 520.357 107.404 520.357 107.404C520.357 107.404 547.527 143.77 548.784 145.864C550.04 147.959 555.476 157.155 555.476 157.155L545.861 132.07L557.57 152.557C557.57 152.557 540.853 117.857 540.015 116.191C539.178 114.515 551.725 132.498 551.725 132.498L540.844 99.8743L565.929 151.291L564.253 131.223L568.851 152.129L570.108 100.712L573.03 151.71C573.03 151.71 577.629 119.104 578.466 112.412C579.304 105.72 579.723 98.6178 579.723 98.6178C579.723 98.6178 578.885 142.933 578.885 144.18C578.885 145.436 578.047 155.47 578.047 155.47C578.047 155.47 584.321 136.659 585.987 131.642C587.662 126.625 589.329 109.489 590.166 106.976C591.004 104.472 585.987 145.436 585.568 147.112C585.149 148.787 583.893 152.548 582.645 155.051C581.389 157.555 591.842 140.001 595.602 132.48C599.363 124.959 606.474 110.746 606.474 110.746C606.474 110.746 600.2 131.651 598.534 135.412C596.859 139.172 585.996 159.24 585.996 159.24C585.996 159.24 602.303 140.01 609.405 134.993C616.517 129.976 629.473 120.361 629.473 120.361C629.473 120.361 608.568 142.933 604.388 147.112C600.209 151.291 588.081 165.923 588.081 165.923C588.081 165.923 608.987 152.548 610.234 151.291C611.491 150.035 626.541 140.42 626.541 140.42C626.541 140.42 596.194 164.393 594.773 165.923C582.655 178.88 578.466 185.153 575.962 187.657C573.449 190.17 569.27 191.427 565.51 187.657Z" fill="#39B4EF"/>
<path d="M579.932 224.305C579.932 224.305 578.157 221.055 572.248 213.953C566.329 206.86 541.791 187.639 541.791 187.639C541.791 187.639 555.685 195.032 560.12 198.875C564.554 202.717 570.472 207.452 570.472 207.452C570.472 207.452 553.91 189.414 552.144 188.231C550.368 187.047 568.997 202.426 568.997 202.426C568.997 202.426 561.904 188.231 558.353 183.505C554.802 178.77 548.001 167.535 548.001 167.535C548.001 167.535 567.222 193.257 568.105 194.741C568.988 196.216 572.839 202.726 572.839 202.726L566.038 184.98L574.315 199.466C574.315 199.466 562.487 174.928 561.895 173.744C561.303 172.561 570.172 185.281 570.172 185.281L562.487 162.217L580.233 198.583L579.049 184.388L582.3 199.175L583.183 162.809L585.25 198.884C585.25 198.884 588.5 175.82 589.092 171.086C589.684 166.351 589.975 161.325 589.975 161.325C589.975 161.325 589.383 192.665 589.383 193.557C589.383 194.44 588.792 201.542 588.792 201.542C588.792 201.542 593.226 188.24 594.41 184.689C595.593 181.138 596.777 169.019 597.369 167.243C597.96 165.468 594.409 194.449 594.118 195.633C593.827 196.817 592.934 199.476 592.051 201.251C591.168 203.027 598.552 190.607 601.22 185.281C603.879 179.954 608.905 169.902 608.905 169.902C608.905 169.902 604.471 184.689 603.287 187.347C602.103 190.006 594.419 204.201 594.419 204.201C594.419 204.201 605.955 190.598 610.981 187.047C616.007 183.496 625.176 176.694 625.176 176.694C625.176 176.694 610.389 192.665 607.43 195.615C604.471 198.574 595.894 208.918 595.894 208.918C595.894 208.918 610.68 199.457 611.563 198.565C612.447 197.682 623.1 190.88 623.1 190.88C623.1 190.88 601.639 207.834 600.628 208.918C592.051 218.086 589.092 222.521 587.326 224.296C585.55 226.081 582.591 226.973 579.932 224.305Z" fill="#39B4EF"/>
<path d="M594.983 266.526C594.983 266.526 593.208 263.275 587.298 256.173C581.38 249.08 556.842 229.859 556.842 229.859C556.842 229.859 570.736 237.253 575.17 241.095C579.605 244.938 585.523 249.672 585.523 249.672C585.523 249.672 568.961 231.635 567.194 230.451C565.419 229.268 584.048 244.646 584.048 244.646C584.048 244.646 576.955 230.451 573.404 225.726C569.853 220.991 563.051 209.755 563.051 209.755C563.051 209.755 582.272 235.477 583.156 236.961C584.039 238.436 587.89 244.947 587.89 244.947L581.089 227.201L589.365 241.687C589.365 241.687 577.538 217.149 576.946 215.965C576.354 214.781 585.222 227.501 585.222 227.501L577.538 204.438L595.284 240.804L594.1 226.609L597.35 241.396L598.234 205.03L600.3 241.104C600.3 241.104 603.551 218.041 604.143 213.306C604.735 208.572 605.026 203.546 605.026 203.546C605.026 203.546 604.434 234.885 604.434 235.778C604.434 236.67 603.842 243.763 603.842 243.763C603.842 243.763 608.277 230.46 609.46 226.909C610.644 223.358 611.828 211.239 612.419 209.464C613.011 207.688 609.46 236.67 609.169 237.854C608.877 239.037 607.985 241.696 607.102 243.472C606.219 245.247 613.603 232.828 616.271 227.501C618.93 222.175 623.956 212.123 623.956 212.123C623.956 212.123 619.521 226.909 618.338 229.568C617.154 232.227 609.469 246.422 609.469 246.422C609.469 246.422 621.006 232.819 626.032 229.268C631.058 225.717 640.226 218.915 640.226 218.915C640.226 218.915 625.44 234.885 622.481 237.835C619.521 240.795 610.944 251.138 610.944 251.138C610.944 251.138 625.731 241.678 626.614 240.786C627.497 239.902 638.15 233.101 638.15 233.101C638.15 233.101 616.69 250.055 615.679 251.138C607.102 260.307 604.143 264.741 602.376 266.517C600.601 268.301 597.642 269.194 594.983 266.526Z" fill="#39B4EF"/>
<path d="M613.695 345.923C613.695 365.663 608.505 383.09 600.574 393.615H565.392C557.461 383.09 552.271 365.663 552.271 345.923C552.271 344.202 552.308 342.49 552.39 340.806C552.59 336.399 553.055 332.128 553.747 328.058C554.011 326.51 554.302 324.99 554.63 323.506C554.903 322.267 555.194 321.056 555.513 319.864C557.006 314.228 558.964 309.111 561.304 304.704H604.662C607.002 309.111 608.96 314.228 610.453 319.864C610.772 321.056 611.063 322.267 611.336 323.506C611.664 324.99 611.956 326.51 612.22 328.058C612.912 332.128 613.376 336.399 613.576 340.806C613.658 342.49 613.695 344.202 613.695 345.923Z" fill="white" stroke="#002E47" stroke-miterlimit="10"/>
<path d="M610.454 319.864H555.514C555.195 321.056 554.904 322.267 554.631 323.506H611.337C611.064 322.267 610.773 321.056 610.454 319.864ZM612.22 328.058H553.747C553.055 332.128 552.591 336.399 552.391 340.805H613.577C613.377 336.399 612.912 332.128 612.22 328.058Z" fill="#002E47" stroke="#002E47" stroke-miterlimit="10"/>
<path d="M520.548 70.665H180.025V330.517H520.548V70.665Z" fill="#002E47" stroke="#002E47" stroke-miterlimit="10"/>
<path d="M516.542 65.3203H176.02V325.172H516.542V65.3203Z" fill="white" stroke="#002E47" stroke-miterlimit="10" stroke-linecap="round" stroke-linejoin="round"/>
<path d="M516.542 65.3203H176.02V114.552H516.542V65.3203Z" fill="#39B4EF" stroke="#002E47" stroke-miterlimit="10" stroke-linecap="round" stroke-linejoin="round"/>
<path d="M516.542 65.3203H176.02V78.5046H516.542V65.3203Z" fill="#E2EDFF" stroke="#002E47" stroke-miterlimit="10" stroke-linecap="round" stroke-linejoin="round"/>
<path d="M309.19 68.9077H189.012V75.2813H309.19V68.9077Z" fill="white" stroke="#002E47" stroke-miterlimit="10" stroke-linecap="round" stroke-linejoin="round"/>
<path d="M489.045 71.6393C489.045 70.3828 488.025 69.363 486.768 69.363C485.512 69.363 484.492 70.3828 484.492 71.6393C484.492 72.8958 485.512 73.9156 486.768 73.9156C488.025 73.9156 489.045 72.8958 489.045 71.6393Z" fill="white" stroke="#002E47" stroke-miterlimit="10" stroke-linecap="round" stroke-linejoin="round"/>
<path d="M499.06 71.6393C499.06 70.3828 498.041 69.363 496.784 69.363C495.528 69.363 494.508 70.3828 494.508 71.6393C494.508 72.8958 495.528 73.9156 496.784 73.9156C498.041 73.9156 499.06 72.8958 499.06 71.6393Z" fill="white" stroke="#002E47" stroke-miterlimit="10" stroke-linecap="round" stroke-linejoin="round"/>
<path d="M506.8 73.9156C508.057 73.9156 509.076 72.8965 509.076 71.6393C509.076 70.3822 508.057 69.363 506.8 69.363C505.543 69.363 504.523 70.3822 504.523 71.6393C504.523 72.8965 505.543 73.9156 506.8 73.9156Z" fill="white" stroke="#002E47" stroke-miterlimit="10" stroke-linecap="round" stroke-linejoin="round"/>
<path d="M295.033 133.727H205.693V299.204H295.033V133.727Z" fill="#39B4EF" stroke="#002E47" stroke-miterlimit="10" stroke-linecap="round" stroke-linejoin="round"/>
<path d="M295.033 133.727H205.693V166.506H295.033V133.727Z" fill="white" stroke="#002E47" stroke-miterlimit="10" stroke-linecap="round" stroke-linejoin="round"/>
<path d="M273.728 282.26H227.009C222.229 282.26 218.359 278.39 218.359 273.61V270.869C218.359 266.089 222.229 262.219 227.009 262.219H273.728C278.508 262.219 282.377 266.089 282.377 270.869V273.61C282.377 278.381 278.499 282.26 273.728 282.26Z" fill="#002E47" stroke="#002E47" stroke-miterlimit="10" stroke-linecap="round" stroke-linejoin="round"/>
<path d="M225.26 204.583H274.418" stroke="#002E47" stroke-miterlimit="10" stroke-linecap="round" stroke-linejoin="round"/>
<path d="M225.26 214.098H274.418" stroke="#002E47" stroke-miterlimit="10" stroke-linecap="round" stroke-linejoin="round"/>
<path d="M225.26 223.613H274.418" stroke="#002E47" stroke-miterlimit="10" stroke-linecap="round" stroke-linejoin="round"/>
<path d="M250.364 153.067L251.447 156.39H254.934L252.112 158.439L253.195 161.762L250.364 159.713L247.541 161.762L248.625 158.439L245.793 156.39H249.289L250.364 153.067Z" fill="#39B4EF"/>
<path d="M489.298 133.727H399.959V299.204H489.298V133.727Z" fill="#39B4EF" stroke="#002E47" stroke-miterlimit="10" stroke-linecap="round" stroke-linejoin="round"/>
<path d="M489.298 133.727H399.959V166.506H489.298V133.727Z" fill="white" stroke="#002E47" stroke-miterlimit="10" stroke-linecap="round" stroke-linejoin="round"/>
<path d="M467.993 282.26H421.275C416.495 282.26 412.625 278.39 412.625 273.61V270.869C412.625 266.089 416.495 262.219 421.275 262.219H467.993C472.773 262.219 476.643 266.089 476.643 270.869V273.61C476.643 278.381 472.773 282.26 467.993 282.26Z" fill="#002E47" stroke="#002E47" stroke-miterlimit="10" stroke-linecap="round" stroke-linejoin="round"/>
<path d="M420.055 204.583H469.213" stroke="#002E47" stroke-miterlimit="10" stroke-linecap="round" stroke-linejoin="round"/>
<path d="M420.055 214.098H469.213" stroke="#002E47" stroke-miterlimit="10" stroke-linecap="round" stroke-linejoin="round"/>
<path d="M420.055 223.613H469.213" stroke="#002E47" stroke-miterlimit="10" stroke-linecap="round" stroke-linejoin="round"/>
<path d="M420.055 233.128H469.213" stroke="#002E47" stroke-miterlimit="10" stroke-linecap="round" stroke-linejoin="round"/>
<path d="M420.055 242.643H469.213" stroke="#002E47" stroke-miterlimit="10" stroke-linecap="round" stroke-linejoin="round"/>
<path d="M421.657 153.067L422.731 156.39H426.227L423.396 158.439L424.479 161.762L421.657 159.713L418.834 161.762L419.909 158.439L417.086 156.39H420.573L421.657 153.067Z" fill="#39B4EF"/>
<path d="M433.147 153.067L434.221 156.39H437.718L434.886 158.439L435.97 161.762L433.147 159.713L430.315 161.762L431.399 158.439L428.576 156.39H432.063L433.147 153.067Z" fill="#39B4EF"/>
<path d="M444.628 153.067L445.712 156.39H449.199L446.376 158.439L447.46 161.762L444.628 159.713L441.805 161.762L442.889 158.439L440.066 156.39H443.554L444.628 153.067Z" fill="#39B4EF"/>
<path d="M456.12 153.067L457.203 156.39H460.69L457.868 158.439L458.951 161.762L456.12 159.713L453.297 161.762L454.381 158.439L451.549 156.39H455.045L456.12 153.067Z" fill="#39B4EF"/>
<path d="M467.61 153.067L468.693 156.39H472.181L469.358 158.439L470.432 161.762L467.61 159.713L464.787 161.762L465.862 158.439L463.039 156.39H466.535L467.61 153.067Z" fill="#39B4EF"/>
<path d="M391.802 133.727H302.463V299.204H391.802V133.727Z" fill="#39B4EF" stroke="#002E47" stroke-miterlimit="10" stroke-linecap="round" stroke-linejoin="round"/>
<path d="M391.802 133.727H302.463V166.506H391.802V133.727Z" fill="white" stroke="#002E47" stroke-miterlimit="10" stroke-linecap="round" stroke-linejoin="round"/>
<path d="M370.497 282.26H323.779C318.999 282.26 315.129 278.39 315.129 273.61V270.869C315.129 266.089 318.999 262.219 323.779 262.219H370.497C375.277 262.219 379.147 266.089 379.147 270.869V273.61C379.138 278.381 375.268 282.26 370.497 282.26Z" fill="#002E47" stroke="#002E47" stroke-miterlimit="10" stroke-linecap="round" stroke-linejoin="round"/>
<path d="M322.549 204.583H371.716" stroke="#002E47" stroke-miterlimit="10" stroke-linecap="round" stroke-linejoin="round"/>
<path d="M322.549 214.098H371.716" stroke="#002E47" stroke-miterlimit="10" stroke-linecap="round" stroke-linejoin="round"/>
<path d="M322.549 223.613H371.716" stroke="#002E47" stroke-miterlimit="10" stroke-linecap="round" stroke-linejoin="round"/>
<path d="M322.549 233.128H371.716" stroke="#002E47" stroke-miterlimit="10" stroke-linecap="round" stroke-linejoin="round"/>
<path d="M335.815 153.067L336.889 156.39H340.386L337.554 158.439L338.638 161.762L335.815 159.713L332.983 161.762L334.067 158.439L331.244 156.39H334.731L335.815 153.067Z" fill="#39B4EF"/>
<path d="M347.133 153.067L348.217 156.39H351.704L348.881 158.439L349.956 161.762L347.133 159.713L344.311 161.762L345.385 158.439L342.562 156.39H346.059L347.133 153.067Z" fill="#39B4EF"/>
<path d="M358.459 153.067L359.534 156.39H363.03L360.199 158.439L361.282 161.762L358.459 159.713L355.628 161.762L356.711 158.439L353.889 156.39H357.376L358.459 153.067Z" fill="#39B4EF"/>
<path d="M236.459 99H250.918" stroke="#002E47" stroke-miterlimit="10"/>
<path d="M268.363 99H282.822" stroke="#002E47" stroke-miterlimit="10"/>
<path d="M300.268 99H314.727" stroke="#002E47" stroke-miterlimit="10"/>
<path d="M332.172 99H346.631" stroke="#002E47" stroke-miterlimit="10"/>
<path d="M477.225 93H484.882" stroke="#002E47" stroke-miterlimit="10"/>
<path d="M477.225 96.4053H484.882" stroke="#002E47" stroke-miterlimit="10"/>
<path d="M477.225 99.8107H484.882" stroke="#002E47" stroke-miterlimit="10"/>
<path d="M30.9766 393.615H638.761" stroke="#002E47" stroke-miterlimit="10" stroke-linecap="round" stroke-linejoin="round"/>
<path d="M132.379 122.255C132.379 122.255 134.738 126.134 135.921 130.003C137.105 133.882 136.431 137.078 136.932 137.925C137.442 138.772 142.158 140.456 142.158 141.631C142.158 142.814 138.616 146.347 138.616 146.347C138.616 146.347 137.096 157.3 135.584 158.311C134.064 159.322 126.315 158.311 125.815 158.475C125.305 158.648 122.446 166.56 122.446 166.56L107.286 162.518L108.296 156.955C108.296 156.955 107.787 152.739 105.428 143.98C103.07 135.221 105.601 127.126 116.546 123.256C127.49 119.396 132.379 122.255 132.379 122.255Z" fill="white" stroke="#002E47" stroke-miterlimit="10" stroke-linecap="round" stroke-linejoin="round"/>
<path d="M135.248 148.378C135.248 148.378 131.542 148.204 130.021 145.682" stroke="#002E47" stroke-miterlimit="10" stroke-linecap="round" stroke-linejoin="round"/>
<path d="M133.9 136.495C133.9 137.661 133.482 138.599 132.972 138.599C132.462 138.599 132.043 137.652 132.043 136.495C132.043 135.339 132.462 134.392 132.972 134.392C133.482 134.392 133.9 135.33 133.9 136.495Z" fill="#002E47"/>
<path d="M129.684 132.707C129.684 132.707 130.53 129.502 134.4 131.524" stroke="#002E47" stroke-miterlimit="10" stroke-linecap="round" stroke-linejoin="round"/>
<path d="M133.781 253.241C133.781 253.241 137.213 280.329 134.791 301.963C132.369 323.597 130.139 328.04 123.674 339.158C117.2 350.275 114.778 375.951 114.578 381.005C114.378 386.058 116.199 387.879 117.61 389.09C119.021 390.301 123.455 392.896 124.794 393.397C127.516 394.417 133.589 396.138 131.768 398.159C129.947 400.18 122.263 398.186 120.651 398.997C119.03 399.807 111.555 398.387 111.555 398.387L105.691 387.469C105.691 387.469 110.344 337.737 111.956 330.462C113.576 323.187 111.145 277.498 111.145 277.498L109.734 249.199L133.781 253.241Z" fill="#002E47" stroke="#002E47" stroke-miterlimit="10" stroke-linecap="round" stroke-linejoin="round"/>
<path d="M89.0754 245.766C89.0754 245.766 84.8507 249.608 84.6504 264.168C84.45 278.727 100.011 300.561 100.821 306.425C101.631 312.288 103.243 323.005 100.42 330.08C97.5887 337.154 96.7784 352.524 98.5994 360.2C100.42 367.884 101.021 387.488 101.431 388.708C101.832 389.919 100.42 395.782 101.832 397.203C103.243 398.614 116.591 399.834 119.013 399.834C121.435 399.834 126.497 399.634 128.719 398.623C130.941 397.613 132.361 397.003 130.74 395.992C129.12 394.981 116.391 391.949 113.96 388.917C111.538 385.885 111.538 379.821 111.938 378C112.339 376.179 114.36 354.955 117.602 347.27C120.834 339.585 125.487 317.751 125.086 305.623C124.686 293.495 125.487 265.187 124.686 260.944C123.875 256.701 123.475 254.88 123.475 254.88L90.5232 244.164L89.0754 245.766Z" fill="white" stroke="#002E47" stroke-miterlimit="10" stroke-linecap="round" stroke-linejoin="round"/>
<path d="M112.703 372.255C113.631 364.934 115.316 352.697 117.61 347.252C120.843 339.567 125.495 317.733 125.095 305.605C124.694 293.477 125.495 265.169 124.694 260.926C123.884 256.683 123.483 254.862 123.483 254.862L90.5316 244.145L89.093 245.757C89.093 245.757 84.8682 249.599 84.6679 264.158C84.4676 278.718 100.028 300.552 100.839 306.415C101.649 312.279 103.261 322.996 100.438 330.071C97.6063 337.145 96.7959 352.515 98.617 360.19C99.2998 363.086 99.8188 367.675 100.21 372.337C103.333 373.202 107.513 373.548 112.703 372.255Z" fill="#002E47" stroke="#002E47" stroke-miterlimit="10" stroke-linecap="round" stroke-linejoin="round"/>
<path d="M114.524 357.395C114.023 360.081 113.723 362.093 113.723 362.439" stroke="#074060" stroke-miterlimit="10" stroke-linecap="round" stroke-linejoin="round"/>
<path d="M125.249 278.435C125.778 288.214 126.369 301.635 126.105 308.701C125.659 320.638 117.92 342.973 116.381 348.946C116.017 350.357 115.671 351.823 115.361 353.243" stroke="#074060" stroke-miterlimit="10" stroke-linecap="round" stroke-linejoin="round"/>
<path d="M127.873 263.157L124.559 266.699C124.559 266.699 124.814 270.523 125.114 275.995" stroke="#074060" stroke-miterlimit="10" stroke-linecap="round" stroke-linejoin="round"/>
<path d="M101.467 390.31C101.313 392.532 100.766 396.119 101.832 397.185C103.243 398.596 116.591 399.816 119.013 399.816C121.435 399.816 126.497 399.616 128.719 398.605C130.941 397.594 132.361 396.984 130.74 395.974C129.12 394.963 116.391 391.931 113.96 388.899L112.858 393.033L101.467 390.31Z" fill="white" stroke="#002E47" stroke-miterlimit="10" stroke-linecap="round" stroke-linejoin="round"/>
<path d="M151.555 210.365C151.555 210.365 154.978 201.014 155.543 199.084C156.116 197.145 158.274 198.51 159.421 198.856C160.56 199.202 163.41 198.401 163.3 199.312C163.182 200.222 162.39 201.251 161.816 201.479C161.243 201.706 157.937 201.597 157.937 201.597C157.937 201.597 157.482 203.536 157.819 203.992C158.165 204.447 168.308 201.023 167.853 202.28C167.398 203.536 161.698 210.028 159.986 211.512C158.274 212.997 155.88 213.789 155.88 213.789C155.88 213.789 144.371 227.583 142.659 229.978C140.947 232.372 139.008 233.738 139.008 233.738L139.809 217.212C139.809 217.203 150.644 212.305 151.555 210.365Z" fill="white" stroke="#002E47" stroke-miterlimit="10" stroke-linecap="round" stroke-linejoin="round"/>
<path d="M147.74 213.206C144.298 215.173 139.809 217.203 139.809 217.203L139.008 233.729C139.008 233.729 140.947 232.363 142.659 229.969C143.451 228.858 146.347 225.307 149.233 221.81C146.711 219.133 147.157 215.4 147.74 213.206Z" fill="#39B4EF" stroke="#002E47" stroke-miterlimit="10" stroke-linecap="round" stroke-linejoin="round"/>
<path d="M144.088 218.423L147.093 216.857" stroke="#002E47" stroke-miterlimit="10" stroke-linecap="round" stroke-linejoin="round"/>
<path d="M144.926 222.266L147.694 220.463" stroke="#002E47" stroke-miterlimit="10" stroke-linecap="round" stroke-linejoin="round"/>
<path d="M145.053 214.581C145.053 214.581 142.203 220.281 146.419 224.615" stroke="#002E47" stroke-miterlimit="10" stroke-linecap="round" stroke-linejoin="round"/>
<path d="M167.97 194.295L155.66 211.959L156.571 212.642L169.108 194.978L167.97 194.295Z" fill="#002E47"/>
<path d="M167.744 197.372C167.744 197.372 168.09 199.767 167.972 201.023C167.854 202.28 167.517 203.527 166.834 203.755C166.151 203.983 165.805 200.677 166.033 199.876C166.26 199.084 167.744 197.372 167.744 197.372Z" fill="white" stroke="#002E47" stroke-miterlimit="10" stroke-linecap="round" stroke-linejoin="round"/>
<path d="M166.032 199.876C166.032 199.876 163.865 201.925 163.756 202.608C163.637 203.291 164.211 206.714 164.894 206.596C165.577 206.477 167.289 204.319 166.833 203.746C166.369 203.181 166.032 199.876 166.032 199.876Z" fill="white" stroke="#002E47" stroke-miterlimit="10" stroke-linecap="round" stroke-linejoin="round"/>
<path d="M163.755 202.617C163.755 202.617 162.043 204.556 162.043 205.585C162.043 206.614 162.043 208.317 162.498 208.89C162.953 209.464 163.409 209.346 163.982 208.435C164.556 207.524 164.893 206.614 164.893 206.614L163.755 202.617Z" fill="white" stroke="#002E47" stroke-miterlimit="10" stroke-linecap="round" stroke-linejoin="round"/>
<path d="M162.499 208.881C162.499 208.881 161.242 205.804 160.905 206.15C160.559 206.496 160.104 207.406 160.222 208.089C160.341 208.772 160.678 210.484 161.251 210.939C161.816 211.394 162.271 209.682 162.499 208.881Z" fill="white" stroke="#002E47" stroke-miterlimit="10" stroke-linecap="round" stroke-linejoin="round"/>
<path d="M89.9222 242.388C89.9222 242.388 88.2377 244.072 89.0754 245.757C89.9222 247.441 100.193 253.505 112.494 256.037C124.795 258.568 133.554 257.721 135.074 256.373C136.595 255.026 136.932 250.136 136.932 250.136C136.932 250.136 122.946 250.81 109.298 245.921C95.6493 241.031 93.1272 240.194 92.2804 240.021C91.4336 239.866 89.9222 242.388 89.9222 242.388Z" fill="#39B4EF" stroke="#002E47" stroke-miterlimit="10" stroke-linecap="round" stroke-linejoin="round"/>
<path d="M92.773 244.136L91.6895 246.185" stroke="#002E47" stroke-miterlimit="10" stroke-linecap="round" stroke-linejoin="round"/>
<path d="M94.2109 249.062L95.2944 246.786" stroke="#002E47" stroke-miterlimit="10" stroke-linecap="round" stroke-linejoin="round"/>
<path d="M99.8644 247.86L99.0176 250.391" stroke="#002E47" stroke-miterlimit="10" stroke-linecap="round" stroke-linejoin="round"/>
<path d="M104.673 249.663L103.826 252.431" stroke="#002E47" stroke-miterlimit="10" stroke-linecap="round" stroke-linejoin="round"/>
<path d="M125.697 254.598L125.342 256.155" stroke="#002E47" stroke-miterlimit="10" stroke-linecap="round" stroke-linejoin="round"/>
<path d="M130.029 254.716L129.547 256.637" stroke="#002E47" stroke-miterlimit="10" stroke-linecap="round" stroke-linejoin="round"/>
<path d="M103.908 169.774C103.908 169.774 95.1485 180.728 94.8116 188.476C94.4747 196.225 97.1699 227.738 97.1699 227.738C97.1699 227.738 89.0845 239.866 89.9222 242.397C90.769 244.928 113.341 252.677 120.925 253.687C128.51 254.698 136.085 255.035 137.606 252.34C139.126 249.645 140.137 238.527 141.484 225.716C142.832 212.915 140.474 195.223 137.269 189.487C134.064 183.76 125.642 178.37 125.642 178.37C125.642 178.37 106.093 169.265 103.908 169.774Z" fill="#39B4EF" stroke="#002E47" stroke-miterlimit="10" stroke-linecap="round" stroke-linejoin="round"/>
<path d="M103.234 171.623C103.234 171.623 104.582 160.169 105.593 159.996C106.603 159.823 126.99 165.559 127.327 167.07C127.663 168.591 126.48 178.188 125.642 178.361C124.795 178.534 103.234 171.623 103.234 171.623Z" fill="#39B4EF" stroke="#002E47" stroke-miterlimit="10" stroke-linecap="round" stroke-linejoin="round"/>
<path d="M107.277 162.527L106.275 170.02" stroke="#002E47" stroke-miterlimit="10" stroke-linecap="round" stroke-linejoin="round"/>
<path d="M110.201 164.849L109.172 172.087" stroke="#002E47" stroke-miterlimit="10" stroke-linecap="round" stroke-linejoin="round"/>
<path d="M115.58 162.991L114.342 170.849" stroke="#002E47" stroke-miterlimit="10" stroke-linecap="round" stroke-linejoin="round"/>
<path d="M118.057 176.021L118.885 170.23" stroke="#002E47" stroke-miterlimit="10" stroke-linecap="round" stroke-linejoin="round"/>
<path d="M136.641 116.983C136.641 116.983 137.488 120.689 136.304 122.883C135.12 125.077 125.014 133.117 121.982 136.322C118.95 139.527 114.06 144.617 119.623 151.018C125.187 157.419 126.197 152.702 126.197 152.702C126.197 152.702 123.329 159.95 118.112 161.462C112.886 162.982 103.116 163.656 97.5527 158.593C91.9894 153.54 86.9361 144.945 89.8042 134.501C92.6723 124.058 98.0625 112.43 106.485 110.746C114.907 109.061 121.308 109.562 126.033 110.746C130.75 111.93 136.477 114.625 136.641 116.983Z" fill="#002E47" stroke="#002E47" stroke-miterlimit="10" stroke-linecap="round" stroke-linejoin="round"/>
<path d="M102.388 173.817C102.388 173.817 96.3241 175.502 94.3027 181.402C92.2814 187.302 95.1495 231.444 97.3347 233.802C99.5291 236.16 135.585 208.189 135.585 208.189C135.585 208.189 137.607 208.016 139.965 206.332C142.323 204.647 144.681 202.116 144.681 202.116C144.681 202.116 143.498 205.658 145.528 204.474C147.549 203.291 149.571 200.768 148.897 198.574C148.223 196.38 144.854 193.348 144.854 193.348C144.854 193.348 144.008 191.827 146.876 192.164C149.744 192.501 150.245 195.533 151.765 194.859C153.286 194.185 153.113 193.002 150.245 190.98C147.376 188.959 142.496 188.285 140.812 190.643C139.127 193.002 131.042 204.292 131.042 204.292L110.146 212.55L109.135 184.752" fill="#39B4EF"/>
<path d="M102.388 173.817C102.388 173.817 96.3241 175.502 94.3027 181.402C92.2814 187.302 95.1495 231.444 97.3347 233.802C99.5291 236.16 135.585 208.189 135.585 208.189C135.585 208.189 137.607 208.016 139.965 206.332C142.323 204.647 144.681 202.116 144.681 202.116C144.681 202.116 143.498 205.658 145.528 204.474C147.549 203.291 149.571 200.768 148.897 198.574C148.223 196.38 144.854 193.348 144.854 193.348C144.854 193.348 144.008 191.827 146.876 192.164C149.744 192.501 150.245 195.533 151.765 194.859C153.286 194.185 153.113 193.002 150.245 190.98C147.376 188.959 142.496 188.285 140.812 190.643C139.127 193.002 131.042 204.292 131.042 204.292L110.146 212.55L109.135 184.752" stroke="#002E47" stroke-miterlimit="10" stroke-linecap="round" stroke-linejoin="round"/>
<path d="M124.496 209.045L126.9 207.961" stroke="#002E47" stroke-miterlimit="10" stroke-linecap="round" stroke-linejoin="round"/>
<path d="M124.979 212.296L128.229 211.094" stroke="#002E47" stroke-miterlimit="10" stroke-linecap="round" stroke-linejoin="round"/>
<path d="M129.147 213.097C132.98 210.201 135.575 208.189 135.575 208.189C135.575 208.189 137.597 208.025 139.955 206.332C142.313 204.647 144.671 202.116 144.671 202.116C144.671 202.116 143.488 205.658 145.518 204.474C147.54 203.29 149.561 200.768 148.887 198.574C148.213 196.38 144.844 193.348 144.844 193.348C144.844 193.348 143.998 191.827 146.866 192.164C149.734 192.501 150.235 195.533 151.755 194.859C153.276 194.185 153.103 193.002 150.235 190.98C147.367 188.959 142.486 188.285 140.802 190.643C139.117 193.002 131.032 204.292 131.032 204.292L126.734 205.986L129.147 213.097Z" fill="white" stroke="#002E47" stroke-miterlimit="10" stroke-linecap="round" stroke-linejoin="round"/>
<path d="M123.111 207.342L126.143 214.763" stroke="#002E47" stroke-miterlimit="10" stroke-linecap="round" stroke-linejoin="round"/>
<path d="M224 96.5C224 103.404 218.404 109 211.5 109C204.596 109 199 103.404 199 96.5C199 89.5964 204.596 84 211.5 84C218.404 84 224 89.5964 224 96.5Z" fill="white"/>
<path d="M211.489 93.0683C212.497 93.0683 213.314 92.255 213.314 91.2516C213.314 90.2482 212.497 89.4348 211.489 89.4348C210.481 89.4348 209.664 90.2482 209.664 91.2516C209.664 92.255 210.481 93.0683 211.489 93.0683Z" fill="#39B4EF"/>
<path d="M211.489 98.3168C212.497 98.3168 213.314 97.5034 213.314 96.5C213.314 95.4967 212.497 94.6833 211.489 94.6833C210.481 94.6833 209.664 95.4967 209.664 96.5C209.664 97.5034 210.481 98.3168 211.489 98.3168Z" fill="#39B4EF"/>
<path d="M211.489 103.565C212.497 103.565 213.314 102.752 213.314 101.748C213.314 100.745 212.497 99.9317 211.489 99.9317C210.481 99.9317 209.664 100.745 209.664 101.748C209.664 102.752 210.481 103.565 211.489 103.565Z" fill="#39B4EF"/>
<path d="M206.622 98.3168C207.63 98.3168 208.447 97.5034 208.447 96.5C208.447 95.4967 207.63 94.6833 206.622 94.6833C205.614 94.6833 204.797 95.4967 204.797 96.5C204.797 97.5034 205.614 98.3168 206.622 98.3168Z" fill="#39B4EF"/>
<path d="M216.762 98.3168C217.77 98.3168 218.587 97.5034 218.587 96.5C218.587 95.4967 217.77 94.6833 216.762 94.6833C215.754 94.6833 214.937 95.4967 214.937 96.5C214.937 97.5034 215.754 98.3168 216.762 98.3168Z" fill="#39B4EF"/>
<path d="M249.047 194.93V193.359C248.354 193.344 247.734 193.279 247.188 193.164C246.646 193.044 246.151 192.885 245.703 192.688V190.625C246.146 190.839 246.674 191.034 247.289 191.211C247.904 191.383 248.49 191.487 249.047 191.523V189.102C248.224 188.779 247.565 188.466 247.07 188.164C246.581 187.857 246.227 187.518 246.008 187.148C245.794 186.773 245.688 186.326 245.688 185.805C245.688 185.273 245.828 184.815 246.109 184.43C246.396 184.039 246.792 183.727 247.297 183.492C247.802 183.258 248.385 183.112 249.047 183.055V181.859H250.117V183.023C250.721 183.044 251.284 183.115 251.805 183.234C252.331 183.349 252.846 183.518 253.352 183.742L252.617 185.57C252.19 185.393 251.76 185.255 251.328 185.156C250.901 185.057 250.497 184.992 250.117 184.961V187.266C250.695 187.479 251.245 187.711 251.766 187.961C252.286 188.211 252.711 188.529 253.039 188.914C253.367 189.299 253.531 189.805 253.531 190.43C253.531 191.206 253.247 191.857 252.68 192.383C252.117 192.909 251.263 193.224 250.117 193.328V194.93H249.047ZM250.117 191.469C250.482 191.406 250.75 191.299 250.922 191.148C251.094 190.992 251.18 190.792 251.18 190.547C251.18 190.401 251.141 190.271 251.062 190.156C250.984 190.042 250.865 189.935 250.703 189.836C250.547 189.732 250.352 189.628 250.117 189.523V191.469ZM249.047 186.828V184.992C248.833 185.023 248.651 185.076 248.5 185.148C248.349 185.216 248.234 185.305 248.156 185.414C248.078 185.523 248.039 185.654 248.039 185.805C248.039 185.956 248.073 186.089 248.141 186.203C248.214 186.318 248.323 186.424 248.469 186.523C248.62 186.622 248.812 186.724 249.047 186.828Z" fill="white"/>
<path d="M345.047 194.93V193.359C344.354 193.344 343.734 193.279 343.188 193.164C342.646 193.044 342.151 192.885 341.703 192.688V190.625C342.146 190.839 342.674 191.034 343.289 191.211C343.904 191.383 344.49 191.487 345.047 191.523V189.102C344.224 188.779 343.565 188.466 343.07 188.164C342.581 187.857 342.227 187.518 342.008 187.148C341.794 186.773 341.688 186.326 341.688 185.805C341.688 185.273 341.828 184.815 342.109 184.43C342.396 184.039 342.792 183.727 343.297 183.492C343.802 183.258 344.385 183.112 345.047 183.055V181.859H346.117V183.023C346.721 183.044 347.284 183.115 347.805 183.234C348.331 183.349 348.846 183.518 349.352 183.742L348.617 185.57C348.19 185.393 347.76 185.255 347.328 185.156C346.901 185.057 346.497 184.992 346.117 184.961V187.266C346.695 187.479 347.245 187.711 347.766 187.961C348.286 188.211 348.711 188.529 349.039 188.914C349.367 189.299 349.531 189.805 349.531 190.43C349.531 191.206 349.247 191.857 348.68 192.383C348.117 192.909 347.263 193.224 346.117 193.328V194.93H345.047ZM346.117 191.469C346.482 191.406 346.75 191.299 346.922 191.148C347.094 190.992 347.18 190.792 347.18 190.547C347.18 190.401 347.141 190.271 347.062 190.156C346.984 190.042 346.865 189.935 346.703 189.836C346.547 189.732 346.352 189.628 346.117 189.523V191.469ZM345.047 186.828V184.992C344.833 185.023 344.651 185.076 344.5 185.148C344.349 185.216 344.234 185.305 344.156 185.414C344.078 185.523 344.039 185.654 344.039 185.805C344.039 185.956 344.073 186.089 344.141 186.203C344.214 186.318 344.323 186.424 344.469 186.523C344.62 186.622 344.812 186.724 345.047 186.828Z" fill="white"/>
<path d="M441.047 195.93V194.359C440.354 194.344 439.734 194.279 439.188 194.164C438.646 194.044 438.151 193.885 437.703 193.688V191.625C438.146 191.839 438.674 192.034 439.289 192.211C439.904 192.383 440.49 192.487 441.047 192.523V190.102C440.224 189.779 439.565 189.466 439.07 189.164C438.581 188.857 438.227 188.518 438.008 188.148C437.794 187.773 437.688 187.326 437.688 186.805C437.688 186.273 437.828 185.815 438.109 185.43C438.396 185.039 438.792 184.727 439.297 184.492C439.802 184.258 440.385 184.112 441.047 184.055V182.859H442.117V184.023C442.721 184.044 443.284 184.115 443.805 184.234C444.331 184.349 444.846 184.518 445.352 184.742L444.617 186.57C444.19 186.393 443.76 186.255 443.328 186.156C442.901 186.057 442.497 185.992 442.117 185.961V188.266C442.695 188.479 443.245 188.711 443.766 188.961C444.286 189.211 444.711 189.529 445.039 189.914C445.367 190.299 445.531 190.805 445.531 191.43C445.531 192.206 445.247 192.857 444.68 193.383C444.117 193.909 443.263 194.224 442.117 194.328V195.93H441.047ZM442.117 192.469C442.482 192.406 442.75 192.299 442.922 192.148C443.094 191.992 443.18 191.792 443.18 191.547C443.18 191.401 443.141 191.271 443.062 191.156C442.984 191.042 442.865 190.935 442.703 190.836C442.547 190.732 442.352 190.628 442.117 190.523V192.469ZM441.047 187.828V185.992C440.833 186.023 440.651 186.076 440.5 186.148C440.349 186.216 440.234 186.305 440.156 186.414C440.078 186.523 440.039 186.654 440.039 186.805C440.039 186.956 440.073 187.089 440.141 187.203C440.214 187.318 440.323 187.424 440.469 187.523C440.62 187.622 440.812 187.724 441.047 187.828Z" fill="white"/>
</g>
<defs>
<clipPath id="clip0_115_11831">
<rect width="641" height="407" fill="white"/>
</clipPath>
</defs>
</svg>
