<svg width="16" height="16" viewBox="0 0 16 16" fill="none" xmlns="http://www.w3.org/2000/svg">
<path d="M9.65531 3.57862C10.3951 4.04247 10.9139 4.82739 11.0083 5.73851C11.31 5.87948 11.6449 5.96055 11.9999 5.96055C13.296 5.96055 14.3465 4.91006 14.3465 3.61416C14.3465 2.31807 13.296 1.26758 11.9999 1.26758C10.7162 1.26798 9.67488 2.2997 9.65531 3.57862ZM8.11801 8.38321C9.4141 8.38321 10.4646 7.33252 10.4646 6.03663C10.4646 4.74073 9.4139 3.69024 8.11801 3.69024C6.82211 3.69024 5.77102 4.74093 5.77102 6.03683C5.77102 7.33272 6.82211 8.38321 8.11801 8.38321ZM9.11339 8.54315H7.12223C5.46552 8.54315 4.11771 9.89116 4.11771 11.5479V13.9829L4.1239 14.0211L4.29163 14.0736C5.87266 14.5676 7.24622 14.7323 8.37679 14.7323C10.585 14.7323 11.8649 14.1027 11.9438 14.0626L12.1005 13.9833H12.1173V11.5479C12.1179 9.89116 10.7701 8.54315 9.11339 8.54315ZM12.9957 6.12069H11.0199C10.9985 6.91121 10.6611 7.62305 10.1273 8.13502C11.6 8.57291 12.6774 9.93849 12.6774 11.5515V12.3018C14.6282 12.2304 15.7524 11.6775 15.8265 11.6403L15.9832 11.5609H16V9.12501C16 7.4685 14.6522 6.12069 12.9957 6.12069ZM4.0005 5.96095C4.45955 5.96095 4.88666 5.82697 5.24847 5.59874C5.36348 4.84856 5.76563 4.19302 6.3401 3.74655C6.34249 3.70262 6.34669 3.65909 6.34669 3.61476C6.34669 2.31867 5.29599 1.26818 4.0005 1.26818C2.70421 1.26818 1.65391 2.31867 1.65391 3.61476C1.65391 4.91026 2.70421 5.96095 4.0005 5.96095ZM6.10787 8.13502C5.57674 7.62565 5.24048 6.9176 5.21592 6.13187C5.14264 6.12648 5.07016 6.12069 4.99548 6.12069H3.00452C1.34781 6.12069 0 7.4685 0 9.12501V11.5605L0.00618994 11.598L0.173917 11.6509C1.44226 12.0469 2.57422 12.2294 3.55742 12.2869V11.5515C3.55782 9.93849 4.63487 8.57331 6.10787 8.13502Z" fill="#39B4EF"/>
</svg>
