<svg width="473" height="436" viewBox="0 0 473 436" fill="none" xmlns="http://www.w3.org/2000/svg">
<path d="M458.506 257.307C443.852 296.675 413.905 339.288 371.752 351.908C308.075 370.978 300.469 422.447 186.416 417.674C168.636 416.935 152.199 414.419 137.096 410.426C128.982 408.279 121.246 405.683 113.909 402.688C47.2853 375.62 12.5299 316.054 9.64271 253.722C5.82967 171.751 62.866 132.673 99.9311 109.799C136.996 86.9247 181.668 -1.72574 293.829 2.07827C310.933 2.66735 327.987 5.01365 344.523 9.50658C382.265 19.7505 420.625 42.4048 442.916 75.5227C444.588 78.0088 446.181 80.5548 447.714 83.1507C477.552 133.921 478.497 203.631 458.506 257.307Z" fill="#39B4EF"/>
<path opacity="0.7" d="M458.506 257.307C443.852 296.675 413.905 339.288 371.752 351.908C308.075 370.978 300.469 422.447 186.416 417.674C168.636 416.935 152.199 414.419 137.096 410.426C128.982 408.279 121.246 405.683 113.909 402.688C47.2853 375.62 12.5299 316.054 9.64271 253.722C5.82967 171.751 62.866 132.673 99.9311 109.799C136.996 86.9247 181.668 -1.72574 293.829 2.07827C310.933 2.66735 327.987 5.01365 344.523 9.50658C382.265 19.7505 420.625 42.4048 442.916 75.5227C444.588 78.0088 446.181 80.5548 447.714 83.1507C477.552 133.921 478.497 203.631 458.506 257.307Z" fill="white"/>
<path d="M239.064 292.911C227.496 266.552 229.198 223.38 234.564 219.796C240.468 215.842 249.826 236.08 259.175 230.159C268.523 224.239 274.925 211.399 267.05 191.161C259.175 170.923 248.841 184.252 241.454 189.184C234.066 194.116 228.163 189.673 229.636 171.911C230.721 158.812 235.829 134.71 238.427 122.958C239.602 123.467 240.777 123.977 241.941 124.526C218.804 113.663 193.218 110.208 182.386 113.663C171.564 117.117 173.526 118.106 178.942 130.936C190.231 157.703 147.462 166.899 135.116 146.261C127.729 133.921 138.581 126.992 135.634 118.106C132.677 109.22 78.0503 119.583 71.1609 123.537C71.1609 123.537 84.4518 163.514 82.4806 177.832C80.5094 192.149 73.62 198.559 63.286 188.195C52.9519 177.832 39.661 187.207 39.1732 204.48C38.6854 221.753 41.6323 235.581 53.4497 231.627C65.2672 227.673 74.6156 213.366 78.5481 231.627C82.4905 249.888 75.5912 273.581 71.6587 290.365C71.6587 290.365 102.671 303.694 116.937 302.705C131.214 301.717 140.074 301.228 135.644 292.342C131.214 283.456 123.827 277.535 129.243 267.66C134.659 257.786 156.312 258.774 167.632 261.24C178.952 263.707 183.87 272.103 180.425 281.479C176.98 290.854 171.077 300.239 181.898 302.206C192.103 304.063 218.058 299.79 243.674 291.433C242.131 291.952 240.597 292.431 239.064 292.911Z" stroke="#263238" stroke-miterlimit="10"/>
<path d="M248.343 289.885C246.83 290.414 245.306 290.924 243.783 291.413C245.306 290.914 246.83 290.404 248.343 289.885Z" stroke="#263238" stroke-miterlimit="10"/>
<path d="M427.995 183.752C418.646 183.752 418.149 191.161 408.312 189.673C398.466 188.195 397.48 165.491 407.824 125.504C407.824 125.504 396.505 133.891 370.909 134.39C345.312 134.879 334.978 131.924 341.38 122.539C347.781 113.163 352.7 105.755 347.284 98.3567C341.868 90.9484 315.784 91.9369 307.421 98.3567C299.058 104.777 304.962 112.175 310.866 120.572C316.769 128.959 309.88 133.901 300.034 134.39C290.188 134.879 265.089 135.378 241.952 124.516C240.787 123.966 239.613 123.457 238.438 122.948C235.829 134.71 230.732 158.802 229.647 171.901C228.173 189.673 234.077 194.116 241.464 189.174C248.851 184.242 259.186 170.913 267.06 191.151C274.935 211.389 268.534 224.219 259.186 230.149C249.837 236.07 240.479 215.832 234.575 219.786C229.209 223.38 227.496 266.542 239.075 292.901C242.171 291.952 245.277 290.944 248.354 289.875C275.423 280.5 302.493 276.057 307.421 282.467C312.339 288.887 310.378 287.898 303.976 297.773C297.575 307.647 298.073 316.034 308.894 320.976C319.726 325.909 346.298 324.93 348.757 313.568C351.216 302.216 337.437 295.796 343.839 284.943C350.241 274.08 406.839 289.875 406.839 289.875C406.839 289.875 394.046 246.434 398.964 232.126C403.882 217.809 407.824 221.263 415.699 226.695C423.574 232.126 433.908 231.627 437.851 215.832C441.773 200.047 437.343 183.752 427.995 183.752Z" stroke="#263238" stroke-miterlimit="10"/>
<path d="M398.712 79.1001C411.242 73.1695 416.606 58.175 410.692 45.6091C404.778 33.0432 389.827 27.6644 377.297 33.595C364.767 39.5257 359.403 54.5202 365.317 67.086C371.231 79.6519 386.182 85.0308 398.712 79.1001Z" fill="#39B4EF" stroke="#263238" stroke-miterlimit="10"/>
<path d="M390.136 76.9264C401.469 75.7599 409.714 65.6003 408.55 54.2344C407.387 42.8684 397.257 34.6002 385.923 35.7667C374.59 36.9332 366.345 47.0928 367.508 58.4588C368.672 69.8247 378.802 78.093 390.136 76.9264Z" fill="white" stroke="#263238" stroke-miterlimit="10"/>
<path d="M394.466 69.9389C401.958 66.3643 405.142 57.3753 401.578 49.8616C398.014 42.3478 389.05 39.1545 381.558 42.7292C374.066 46.3038 370.882 55.2928 374.446 62.8065C378.011 70.3203 386.974 73.5136 394.466 69.9389Z" fill="#39B4EF" stroke="#263238" stroke-miterlimit="10"/>
<path d="M397.497 56.3329C397.497 51.0812 393.256 46.8179 388.009 46.8179C382.773 46.8179 378.521 51.0712 378.521 56.3329C378.521 61.5846 382.763 65.8479 388.009 65.8479C393.256 65.8479 397.497 61.5946 397.497 56.3329Z" fill="white" stroke="#263238" stroke-miterlimit="10"/>
<path d="M392.41 56.3328C392.41 53.8966 390.449 51.9297 388.019 51.9297C385.59 51.9297 383.629 53.8966 383.629 56.3328C383.629 58.7689 385.59 60.7358 388.019 60.7358C390.439 60.7358 392.41 58.7689 392.41 56.3328Z" fill="#39B4EF" stroke="#263238" stroke-miterlimit="10"/>
<path d="M389.832 49.4336L388.01 56.3327L394.511 57.7605L389.832 49.4336Z" fill="#263238" stroke="#263238" stroke-miterlimit="10"/>
<path d="M392.6 53.2776L421.143 37.6821" stroke="#263238" stroke-width="2" stroke-miterlimit="10"/>
<path d="M411.982 42.8141L412.401 35.3359L425.821 27.6479V36.1845L411.982 42.8141Z" fill="#263238" stroke="#263238" stroke-miterlimit="10"/>
<path d="M431.576 40.2479L425.703 35.9048L411.924 43.1634L418.564 47.0173L431.576 40.2479Z" fill="#263238" stroke="#263238" stroke-miterlimit="10"/>
<path d="M256.495 57.8604H246.52V81.6829H256.495V57.8604Z" fill="#39B4EF" stroke="#263238" stroke-miterlimit="10"/>
<path d="M271.2 50.6416H261.225V81.6828H271.2V50.6416Z" fill="#39B4EF" stroke="#263238" stroke-miterlimit="10"/>
<path d="M285.905 57.8604H275.93V81.6829H285.905V57.8604Z" fill="#39B4EF" stroke="#263238" stroke-miterlimit="10"/>
<path d="M300.618 49.0742H290.643V81.6829H300.618V49.0742Z" fill="#39B4EF" stroke="#263238" stroke-miterlimit="10"/>
<path d="M315.323 37.1431H305.348V81.683H315.323V37.1431Z" fill="#39B4EF" stroke="#263238" stroke-miterlimit="10"/>
<path d="M302.082 18.2725L305.975 19.9399L279.503 45.4198L266.859 38.5007L246.828 50.7115V54.3957L266.939 42.135L280.021 49.2937L308.145 22.2163L309.649 26.1801L315.214 13.2305L302.082 18.2725Z" fill="#263238" stroke="#263238" stroke-miterlimit="10" stroke-linecap="round" stroke-linejoin="round"/>
<path d="M185.928 80.6781C199.417 77.5029 207.785 63.9628 204.619 50.4353C201.453 36.9078 187.951 28.5156 174.463 31.6908C160.974 34.866 152.606 48.4061 155.772 61.9336C158.938 75.4611 172.439 83.8533 185.928 80.6781Z" fill="white" stroke="#263238" stroke-miterlimit="10"/>
<path d="M185.165 77.9922C197.173 75.2427 204.684 63.2521 201.942 51.2104C199.201 39.1687 187.244 31.6359 175.237 34.3854C163.23 37.1349 155.719 49.1255 158.46 61.1672C161.202 73.2089 173.158 80.7417 185.165 77.9922Z" fill="#39B4EF" stroke="#263238" stroke-miterlimit="10"/>
<path d="M183.263 76.27C194.244 74.5638 201.767 64.2532 200.065 53.2406C198.364 42.2279 188.083 34.6835 177.102 36.3897C166.121 38.0959 158.598 48.4065 160.299 59.4191C162 70.4318 172.282 77.9762 183.263 76.27Z" fill="white" stroke="#263238" stroke-miterlimit="10"/>
<path d="M179.895 73.5954V70.3905C177.535 70.3006 175.773 69.5418 174.608 68.1141C173.444 66.6863 172.806 64.5696 172.717 61.7441L177.565 60.9154C177.615 62.0636 177.734 63.0221 177.924 63.7909C178.123 64.5597 178.411 65.1387 178.8 65.5181C179.188 65.8975 179.696 66.0872 180.313 66.0872C181.02 66.0872 181.508 65.8576 181.777 65.3983C182.035 64.9391 182.175 64.4099 182.175 63.8108C182.175 62.6427 181.906 61.6542 181.368 60.8655C180.831 60.0767 180.094 59.278 179.148 58.4692L176.231 55.9532C175.564 55.3342 174.967 54.7052 174.449 54.0562C173.921 53.4172 173.503 52.6783 173.195 51.8497C172.886 51.021 172.727 50.0425 172.727 48.9243C172.727 46.7677 173.344 45.0803 174.569 43.8722C175.793 42.6641 177.436 41.9852 179.497 41.8254V38.7603H181.149V41.8254C182.384 41.8953 183.399 42.1749 184.186 42.6741C184.972 43.1633 185.58 43.7923 185.988 44.5312C186.396 45.28 186.695 46.0887 186.884 46.9773C187.063 47.8659 187.182 48.7146 187.232 49.5433L182.314 50.2622C182.294 49.4135 182.225 48.6647 182.105 48.0057C181.986 47.3467 181.786 46.8375 181.488 46.4681C181.189 46.0987 180.731 45.929 180.114 45.9489C179.477 45.9689 178.989 46.2285 178.65 46.7077C178.322 47.187 178.153 47.7261 178.153 48.3252C178.153 49.3835 178.402 50.2322 178.909 50.8712C179.417 51.5102 179.984 52.1392 180.632 52.7283L183.479 55.2044C184.236 55.8933 184.932 56.6421 185.58 57.4409C186.217 58.2496 186.734 59.1382 187.123 60.1067C187.511 61.0851 187.71 62.2034 187.71 63.4614C187.71 64.6795 187.461 65.7877 186.973 66.7861C186.476 67.7846 185.769 68.5933 184.843 69.2123C183.917 69.8314 182.822 70.2008 181.557 70.3106V73.5455H179.895V73.5954Z" fill="#263238"/>
<path d="M98.8973 36.7134H52.3145V80.6342H98.8973V36.7134Z" fill="white" stroke="#263238" stroke-miterlimit="10"/>
<path d="M98.8973 36.7134H52.3145V48.0056H98.8973V36.7134Z" fill="#39B4EF" stroke="#263238" stroke-miterlimit="10" stroke-linecap="round" stroke-linejoin="round"/>
<path d="M61.6729 54.2759H56.0977V59.8671H61.6729V54.2759Z" fill="#39B4EF" stroke="#263238" stroke-miterlimit="10" stroke-linecap="round" stroke-linejoin="round"/>
<path d="M70.0361 54.2759H64.4609V59.8671H70.0361V54.2759Z" fill="#39B4EF" stroke="#263238" stroke-miterlimit="10" stroke-linecap="round" stroke-linejoin="round"/>
<path d="M78.3877 54.2759H72.8125V59.8671H78.3877V54.2759Z" fill="#39B4EF" stroke="#263238" stroke-miterlimit="10" stroke-linecap="round" stroke-linejoin="round"/>
<path d="M86.751 54.2759H81.1758V59.8671H86.751V54.2759Z" fill="#39B4EF" stroke="#263238" stroke-miterlimit="10" stroke-linecap="round" stroke-linejoin="round"/>
<path d="M95.1143 54.2759H89.5391V59.8671H95.1143V54.2759Z" fill="#39B4EF" stroke="#263238" stroke-miterlimit="10" stroke-linecap="round" stroke-linejoin="round"/>
<path d="M61.6729 63.062H56.0977V68.6532H61.6729V63.062Z" fill="#39B4EF" stroke="#263238" stroke-miterlimit="10" stroke-linecap="round" stroke-linejoin="round"/>
<path d="M70.0361 63.062H64.4609V68.6532H70.0361V63.062Z" fill="#39B4EF" stroke="#263238" stroke-miterlimit="10" stroke-linecap="round" stroke-linejoin="round"/>
<path d="M78.3877 63.062H72.8125V68.6532H78.3877V63.062Z" fill="#39B4EF" stroke="#263238" stroke-miterlimit="10" stroke-linecap="round" stroke-linejoin="round"/>
<path d="M86.751 63.062H81.1758V68.6532H86.751V63.062Z" fill="#39B4EF" stroke="#263238" stroke-miterlimit="10" stroke-linecap="round" stroke-linejoin="round"/>
<path d="M95.1143 63.062H89.5391V68.6532H95.1143V63.062Z" fill="#39B4EF" stroke="#263238" stroke-miterlimit="10" stroke-linecap="round" stroke-linejoin="round"/>
<path d="M61.6729 71.8481H56.0977V77.4394H61.6729V71.8481Z" fill="#39B4EF" stroke="#263238" stroke-miterlimit="10" stroke-linecap="round" stroke-linejoin="round"/>
<path d="M70.0361 71.8481H64.4609V77.4394H70.0361V71.8481Z" fill="#39B4EF" stroke="#263238" stroke-miterlimit="10" stroke-linecap="round" stroke-linejoin="round"/>
<path d="M78.3877 71.8481H72.8125V77.4394H78.3877V71.8481Z" fill="#39B4EF" stroke="#263238" stroke-miterlimit="10" stroke-linecap="round" stroke-linejoin="round"/>
<path d="M86.751 71.8481H81.1758V77.4394H86.751V71.8481Z" fill="#39B4EF" stroke="#263238" stroke-miterlimit="10" stroke-linecap="round" stroke-linejoin="round"/>
<path d="M95.1143 71.8481H89.5391V77.4394H95.1143V71.8481Z" fill="#39B4EF" stroke="#263238" stroke-miterlimit="10" stroke-linecap="round" stroke-linejoin="round"/>
<path d="M62.6678 29.5249H58.6855V40.3079H62.6678V29.5249Z" fill="#263238"/>
<path d="M72.6229 29.5249H68.6406V40.3079H72.6229V29.5249Z" fill="#263238"/>
<path d="M82.5702 29.5249H78.5879V40.3079H82.5702V29.5249Z" fill="#263238"/>
<path d="M92.5253 29.5249H88.543V40.3079H92.5253V29.5249Z" fill="#263238"/>
<path d="M11.8047 364.797C13.9651 365.745 19.2516 365.626 19.2615 365.626C19.3113 365.626 18.1266 362.151 18.027 361.941C16.8722 359.505 13.1985 355.492 10.2118 355.891C8.06136 356.181 6.86667 358.337 7.3545 360.374C7.84233 362.451 9.9629 363.998 11.8047 364.797Z" fill="#39B4EF"/>
<path d="M13.6267 380.163C15.8667 380.492 20.5857 379.115 20.964 379.005C21.7107 381.651 22.6864 384.306 23.8213 386.942C24.4684 388.45 25.1753 389.947 25.8921 391.435C25.464 390.806 25.0757 390.237 25.006 390.167C23.2439 388.13 18.6543 385.225 15.8766 386.403C13.8756 387.252 13.2981 389.648 14.2937 391.485C15.3191 393.352 17.7682 394.281 19.7594 394.57C21.7804 394.87 25.8224 393.771 26.8877 393.472C27.1664 394.041 27.4452 394.61 27.7339 395.179C29.0978 397.905 30.4717 400.621 31.7461 403.326C32.1941 404.275 32.6023 405.233 33.0104 406.192C32.6321 405.633 32.3036 405.163 32.2439 405.094C30.4817 403.057 25.8921 400.151 23.1145 401.33C21.1134 402.178 20.5359 404.574 21.5315 406.412C22.5569 408.279 25.006 409.207 26.9972 409.497C28.9186 409.776 32.662 408.808 33.9363 408.458C34.3246 409.447 34.7228 410.435 35.0514 411.414C35.2604 412.083 35.5193 412.722 35.6885 413.401C35.8777 414.079 36.0669 414.748 36.2461 415.407C36.5547 416.695 36.8832 418.023 37.152 419.291C37.3511 420.17 37.5104 421.009 37.6896 421.857C37.2516 420.899 36.3655 419.052 36.2759 418.902C34.8423 416.615 30.7405 413.051 27.8235 413.8C25.7229 414.339 24.7771 416.615 25.4939 418.582C26.2206 420.589 28.5105 421.867 30.4319 422.456C32.5425 423.105 37.2317 422.516 37.8191 422.436C38.0978 423.844 38.3567 425.202 38.5857 426.5C39.0834 429.355 39.4618 431.921 39.7505 434.088H41.7217C41.3733 431.841 40.9252 429.176 40.3279 426.18C40.0491 424.753 39.7206 423.235 39.3722 421.677C39.7206 421.538 41.7217 420.729 43.4938 419.731C45.037 421.408 48.9894 423.365 49.4971 423.614C48.9595 424.942 48.4219 426.22 47.8942 427.428C46.7991 429.944 45.7637 432.181 44.8478 434.088H46.9783C47.7648 432.331 48.631 430.334 49.5369 428.127C50.0845 426.779 50.652 425.332 51.2195 423.844C51.7869 423.964 56.4263 424.902 58.5867 424.413C60.548 423.974 62.9174 422.856 63.7935 420.919C64.6497 419.022 63.8831 416.675 61.8223 415.976C58.965 415.018 54.6144 418.263 53.0115 420.439C52.9119 420.569 52.0458 422.067 51.5181 423.025C51.7471 422.416 51.9761 421.827 52.1951 421.198C52.6531 419.95 53.0712 418.692 53.5192 417.344C53.7183 416.685 53.9175 416.016 54.1166 415.347C54.3256 414.689 54.475 413.96 54.6542 413.251C55.0425 411.613 55.361 409.936 55.6398 408.249C56.725 408.648 60.6177 410.006 62.6287 409.856C64.6298 409.716 67.1486 408.977 68.3035 407.19C69.4384 405.443 69.0302 403.007 67.1088 402.008C64.4307 400.621 59.632 403.177 57.7305 405.084C57.611 405.203 56.3964 406.721 55.7493 407.57C55.9086 406.551 56.0779 405.533 56.1973 404.495C56.5657 401.499 56.8544 398.454 57.1431 395.419C57.2327 394.49 57.3323 393.562 57.4318 392.633C57.8201 392.783 62.3997 394.49 64.6597 394.331C66.6608 394.191 69.1796 393.452 70.3344 391.665C71.4694 389.917 71.0612 387.481 69.1398 386.483C66.4617 385.095 61.663 387.651 59.7615 389.548C59.6221 389.688 57.8699 391.884 57.4517 392.463C57.6708 390.427 57.8997 388.39 58.2084 386.403C58.6365 383.657 59.204 380.982 59.9407 378.426C60.1199 378.495 64.8986 380.303 67.2083 380.143C69.2094 380.003 71.7283 379.264 72.8831 377.477C74.0181 375.73 73.6099 373.294 71.6884 372.295C69.0103 370.907 64.2117 373.463 62.3101 375.37C62.1608 375.52 60.2891 377.876 59.9705 378.326C60.0104 378.176 60.0402 378.016 60.09 377.866C60.9163 375.151 62.0612 372.625 63.236 370.318C63.923 368.97 64.6497 367.732 65.3865 366.534C66.2426 366.964 70.1752 368.881 72.2659 368.96C74.2769 369.04 76.8554 368.581 78.1995 366.934C79.5236 365.316 79.3842 362.85 77.5723 361.652C75.0634 359.985 70.0159 361.991 67.9152 363.669C67.8057 363.759 66.7404 364.817 65.9838 365.596C66.3223 365.057 66.6707 364.498 66.9993 363.998C68.2637 362.091 69.528 360.434 70.663 358.966C71.3201 358.138 71.9274 357.399 72.4948 356.72C73.5501 356.7 77.8112 356.57 79.6729 355.691C81.4948 354.833 83.5656 353.235 84.0136 351.148C84.4417 349.102 83.1873 346.985 81.0368 346.745C78.0402 346.426 74.486 350.539 73.3909 353.006C73.3013 353.215 72.1962 356.72 72.2559 356.72C72.2559 356.72 72.3057 356.72 72.3156 356.72C71.7482 357.369 71.1508 358.068 70.5037 358.836C69.3289 360.284 68.0247 361.922 66.7205 363.809C65.4064 365.686 64.0424 367.762 62.788 370.079C61.5336 372.405 60.3389 374.911 59.4329 377.657C59.423 377.687 59.413 377.717 59.4031 377.757C59.423 376.868 59.3832 374.392 59.3533 374.202C59.0048 371.526 56.7748 366.564 53.8079 366.015C51.6774 365.616 49.8655 367.293 49.6962 369.38C49.527 371.506 51.0602 373.633 52.5535 374.971C54.246 376.489 58.9352 377.946 59.3035 378.066C58.4672 380.682 57.8201 383.448 57.3223 386.273C57.0336 387.891 56.7947 389.528 56.5756 391.166C56.5657 390.397 56.5458 389.718 56.5358 389.618C56.1874 386.942 53.9573 381.98 50.9905 381.431C48.86 381.031 47.048 382.709 46.8788 384.796C46.7095 386.922 48.2427 389.049 49.7361 390.387C51.2593 391.745 55.2316 393.083 56.2869 393.412C56.2073 394.041 56.1276 394.67 56.048 395.309C55.6896 398.344 55.3411 401.369 54.913 404.325C54.7637 405.363 54.5745 406.392 54.3854 407.41C54.3754 406.731 54.3555 406.162 54.3456 406.072C53.9971 403.396 51.767 398.434 48.8002 397.885C46.6697 397.486 44.8578 399.163 44.6885 401.25C44.5193 403.376 46.0524 405.503 47.5458 406.841C48.9993 408.139 52.6531 409.397 53.9075 409.806C53.6885 410.845 53.4695 411.893 53.2106 412.891C53.0214 413.57 52.8821 414.239 52.6431 414.908C52.4241 415.577 52.215 416.236 52.006 416.895C51.558 418.143 51.09 419.431 50.6221 420.639C50.3035 421.478 49.975 422.277 49.6564 423.075C49.8157 422.037 50.0945 420 50.1044 419.83C50.1442 418.043 49.5071 415.128 48.2527 413.081C48.2626 412.821 48.2427 412.552 48.2029 412.292C47.8743 410.236 45.9429 408.698 43.8423 409.257C40.9352 410.036 39.0834 415.158 38.9441 417.854C38.9341 418.013 39.0436 419.751 39.1233 420.839C38.9739 420.2 38.8445 419.581 38.6852 418.932C38.3766 417.644 38.0381 416.366 37.6697 414.988C37.4706 414.329 37.2715 413.66 37.0624 412.991C36.8733 412.322 36.5945 411.633 36.3556 410.954C35.7781 409.377 35.1211 407.799 34.4242 406.232C35.5492 405.962 39.5414 404.944 41.1343 403.706C42.7272 402.478 44.4197 400.471 44.3998 398.344C44.3799 396.258 42.7073 394.45 40.5469 394.68C37.5503 395.009 34.9518 399.792 34.4142 402.428C34.3843 402.598 34.2051 404.534 34.1255 405.603C33.6974 404.664 33.2793 403.726 32.8113 402.787C31.4773 400.081 30.0337 397.386 28.61 394.7C28.172 393.871 27.7439 393.053 27.3158 392.224C27.714 392.134 32.4828 391.026 34.2748 389.648C35.8677 388.42 37.5602 386.413 37.5403 384.286C37.5204 382.2 35.8478 380.392 33.6874 380.632C30.6908 380.962 28.0923 385.744 27.5547 388.38C27.5149 388.58 27.266 391.365 27.2361 392.084C26.2903 390.267 25.3744 388.44 24.5282 386.603C23.3733 384.077 22.3678 381.531 21.5912 378.985C21.7804 378.945 26.7583 377.807 28.5901 376.399C30.183 375.171 31.8755 373.164 31.8556 371.037C31.8456 368.95 30.1631 367.143 28.0027 367.373C25.006 367.702 22.4076 372.485 21.87 375.121C21.8302 375.33 21.5614 378.336 21.5514 378.875C21.5016 378.725 21.4419 378.575 21.3921 378.426C20.5857 375.7 20.1477 372.964 19.8689 370.388C19.6996 368.891 19.62 367.443 19.5802 366.035C20.526 365.915 24.8567 365.336 26.6487 364.248C28.3711 363.2 30.2627 361.392 30.4817 359.276C30.6908 357.199 29.2273 355.222 27.0569 355.212C24.0403 355.202 20.9342 359.675 20.1078 362.241C20.0581 362.381 19.7594 363.849 19.5603 364.927C19.5503 364.288 19.5304 363.639 19.5304 363.03C19.5304 360.743 19.6797 358.657 19.8191 356.8C19.9087 355.751 20.0083 354.803 20.1178 353.914C20.9939 353.315 24.4684 350.849 25.5437 349.082C26.589 347.364 27.4452 344.878 26.6587 342.891C25.8921 340.945 23.6819 339.866 21.7505 340.865C19.0724 342.253 18.3755 347.654 18.8136 350.31C18.8534 350.539 19.8589 354.064 19.9087 354.034C19.9087 354.034 19.9485 354.004 19.9585 353.994C19.839 354.843 19.7295 355.761 19.62 356.76C19.4408 358.607 19.2417 360.703 19.1919 363C19.1322 365.286 19.1322 367.782 19.3711 370.408C19.6001 373.034 19.9784 375.79 20.735 378.585C20.745 378.615 20.755 378.645 20.7649 378.675C20.287 377.926 18.8932 375.89 18.7738 375.74C17.0116 373.703 12.422 370.798 9.64437 371.976C7.64327 372.824 7.06584 375.221 8.06141 377.058C9.18641 378.945 11.6355 379.863 13.6267 380.163Z" fill="#39B4EF"/>
<path d="M65.276 365.965C65.3257 365.995 66.2417 362.441 66.2715 362.211C66.6399 359.535 65.7937 354.164 63.0757 352.846C61.1244 351.897 58.9342 353.035 58.2273 355.002C57.5005 357.009 58.4264 359.465 59.5116 361.153C60.7959 363.14 65.266 365.965 65.276 365.965Z" fill="#39B4EF"/>
<path d="M379.281 364.797C381.442 365.745 386.728 365.626 386.738 365.626C386.788 365.626 385.603 362.151 385.504 361.941C384.349 359.505 380.675 355.492 377.688 355.891C375.538 356.181 374.343 358.337 374.831 360.374C375.319 362.451 377.439 363.998 379.281 364.797Z" fill="#39B4EF"/>
<path d="M381.103 380.163C383.343 380.492 388.062 379.115 388.44 379.005C389.187 381.651 390.163 384.306 391.298 386.942C391.945 388.45 392.652 389.947 393.368 391.435C392.94 390.806 392.552 390.237 392.482 390.167C390.72 388.13 386.131 385.225 383.353 386.403C381.352 387.252 380.774 389.648 381.77 391.485C382.796 393.352 385.245 394.281 387.236 394.57C389.257 394.87 393.299 393.771 394.364 393.472C394.643 394.041 394.922 394.61 395.21 395.179C396.574 397.905 397.948 400.621 399.222 403.326C399.67 404.275 400.079 405.233 400.487 406.192C400.109 405.633 399.78 405.163 399.72 405.094C397.958 403.057 393.368 400.151 390.591 401.33C388.59 402.178 388.012 404.574 389.008 406.412C390.033 408.279 392.482 409.207 394.474 409.497C396.395 409.776 400.138 408.808 401.413 408.458C401.801 409.447 402.189 410.435 402.528 411.414C402.737 412.083 402.996 412.722 403.165 413.401C403.354 414.079 403.543 414.748 403.722 415.407C404.031 416.695 404.36 418.023 404.628 419.291C404.828 420.17 404.987 421.009 405.166 421.857C404.728 420.899 403.842 419.052 403.752 418.902C402.319 416.615 398.217 413.051 395.3 413.8C393.199 414.339 392.253 416.615 392.97 418.582C393.697 420.589 395.987 421.867 397.908 422.456C400.019 423.105 404.708 422.516 405.295 422.436C405.574 423.844 405.833 425.202 406.062 426.5C406.56 429.355 406.948 431.921 407.227 434.088H409.198C408.85 431.841 408.402 429.176 407.804 426.18C407.526 424.753 407.197 423.235 406.849 421.677C407.197 421.538 409.198 420.729 410.97 419.731C412.513 421.408 416.466 423.365 416.974 423.614C416.436 424.942 415.898 426.22 415.371 427.428C414.275 429.944 413.24 432.181 412.324 434.088H414.455C415.241 432.331 416.107 430.334 417.013 428.127C417.561 426.779 418.128 425.332 418.696 423.844C419.263 423.964 423.903 424.902 426.063 424.413C428.024 423.974 430.394 422.856 431.27 420.919C432.126 419.022 431.36 416.675 429.299 415.976C426.441 415.018 422.091 418.263 420.488 420.439C420.388 420.569 419.522 422.067 418.995 423.025C419.223 422.416 419.452 421.827 419.672 421.198C420.129 419.95 420.548 418.692 420.996 417.344C421.195 416.685 421.394 416.016 421.593 415.347C421.802 414.689 421.951 413.96 422.131 413.251C422.519 411.613 422.837 409.936 423.116 408.249C424.201 408.648 428.094 410.006 430.105 409.856C432.106 409.716 434.625 408.977 435.78 407.19C436.915 405.443 436.507 403.007 434.585 402.008C431.907 400.621 427.108 403.177 425.207 405.084C425.087 405.203 423.873 406.721 423.226 407.57C423.385 406.551 423.554 405.533 423.674 404.495C424.042 401.499 424.331 398.454 424.619 395.419C424.709 394.49 424.809 393.562 424.908 392.633C425.296 392.783 429.876 394.49 432.136 394.331C434.137 394.191 436.656 393.452 437.811 391.665C438.946 389.917 438.538 387.481 436.616 386.483C433.938 385.095 429.139 387.651 427.238 389.548C427.098 389.688 425.346 391.884 424.928 392.463C425.147 390.427 425.376 388.39 425.685 386.403C426.113 383.657 426.68 380.982 427.417 378.426C427.596 378.495 432.375 380.303 434.685 380.143C436.686 380.003 439.205 379.264 440.359 377.477C441.494 375.73 441.086 373.294 439.165 372.295C436.487 370.907 431.688 373.463 429.787 375.37C429.637 375.52 427.765 377.876 427.447 378.326C427.487 378.176 427.517 378.016 427.566 377.866C428.393 375.151 429.538 372.625 430.712 370.318C431.399 368.97 432.126 367.732 432.863 366.534C433.719 366.964 437.652 368.881 439.742 368.96C441.753 369.04 444.332 368.581 445.676 366.934C447 365.316 446.861 362.85 445.049 361.652C442.54 359.985 437.492 361.991 435.392 363.669C435.282 363.759 434.217 364.817 433.46 365.596C433.799 365.057 434.147 364.498 434.476 363.998C435.74 362.091 437.004 360.434 438.139 358.966C438.796 358.138 439.404 357.399 439.971 356.72C441.027 356.7 445.288 356.57 447.149 355.691C448.971 354.833 451.042 353.235 451.49 351.148C451.918 349.102 450.664 346.985 448.513 346.745C445.517 346.426 441.962 350.539 440.867 353.006C440.778 353.215 439.673 356.72 439.732 356.72C439.732 356.72 439.782 356.72 439.792 356.72C439.225 357.369 438.627 358.068 437.98 358.836C436.805 360.284 435.501 361.922 434.197 363.809C432.883 365.686 431.519 367.762 430.264 370.079C429.01 372.405 427.815 374.911 426.909 377.657C426.899 377.687 426.889 377.717 426.879 377.757C426.899 376.868 426.86 374.392 426.83 374.202C426.481 371.526 424.251 366.564 421.284 366.015C419.154 365.616 417.342 367.293 417.173 369.38C417.003 371.506 418.537 373.633 420.03 374.971C421.722 376.489 426.412 377.946 426.78 378.066C425.944 380.682 425.296 383.448 424.799 386.273C424.51 387.891 424.271 389.528 424.052 391.166C424.042 390.397 424.022 389.718 424.012 389.618C423.664 386.942 421.434 381.98 418.467 381.431C416.336 381.031 414.524 382.709 414.355 384.796C414.186 386.922 415.719 389.049 417.212 390.387C418.736 391.745 422.708 393.083 423.763 393.412C423.684 394.041 423.604 394.67 423.524 395.309C423.166 398.344 422.818 401.369 422.389 404.325C422.24 405.363 422.051 406.392 421.862 407.41C421.852 406.731 421.832 406.162 421.822 406.072C421.473 403.396 419.243 398.434 416.277 397.885C414.146 397.486 412.334 399.163 412.165 401.25C411.996 403.376 413.529 405.503 415.022 406.841C416.476 408.139 420.129 409.397 421.384 409.806C421.165 410.845 420.946 411.893 420.687 412.891C420.498 413.57 420.358 414.239 420.119 414.908C419.9 415.577 419.691 416.236 419.482 416.895C419.034 418.143 418.566 419.431 418.098 420.639C417.78 421.478 417.451 422.277 417.133 423.075C417.292 422.037 417.571 420 417.581 419.83C417.621 418.043 416.983 415.128 415.729 413.081C415.739 412.821 415.719 412.552 415.679 412.292C415.351 410.236 413.419 408.698 411.319 409.257C408.412 410.036 406.56 415.158 406.42 417.854C406.41 418.013 406.52 419.751 406.6 420.839C406.45 420.2 406.321 419.581 406.162 418.932C405.853 417.644 405.514 416.366 405.146 414.988C404.947 414.329 404.748 413.66 404.539 412.991C404.35 412.322 404.071 411.633 403.832 410.954C403.255 409.377 402.597 407.799 401.901 406.232C403.026 405.962 407.018 404.944 408.611 403.706C410.204 402.478 411.896 400.471 411.876 398.344C411.856 396.258 410.184 394.45 408.023 394.68C405.027 395.009 402.428 399.792 401.891 402.428C401.861 402.598 401.682 404.534 401.602 405.603C401.174 404.664 400.756 403.726 400.288 402.787C398.954 400.081 397.51 397.386 396.086 394.7C395.648 393.871 395.22 393.053 394.792 392.224C395.19 392.134 399.959 391.026 401.751 389.648C403.344 388.42 405.037 386.413 405.017 384.286C405.007 382.2 403.324 380.392 401.164 380.632C398.167 380.962 395.569 385.744 395.031 388.38C394.991 388.58 394.742 391.365 394.713 392.084C393.767 390.267 392.851 388.44 392.005 386.603C390.85 384.077 389.844 381.531 389.068 378.985C389.257 378.945 394.235 377.807 396.066 376.399C397.659 375.171 399.352 373.164 399.332 371.037C399.322 368.95 397.639 367.143 395.479 367.373C392.482 367.702 389.884 372.485 389.346 375.121C389.307 375.33 389.038 378.336 389.028 378.875C388.978 378.725 388.918 378.575 388.868 378.426C388.062 375.7 387.624 372.964 387.345 370.388C387.176 368.891 387.096 367.443 387.057 366.035C388.002 365.915 392.333 365.336 394.125 364.248C395.847 363.2 397.739 361.392 397.958 359.276C398.167 357.199 396.704 355.222 394.533 355.212C391.517 355.202 388.411 359.675 387.584 362.241C387.534 362.381 387.236 363.849 387.037 364.927C387.027 364.288 387.007 363.639 387.007 363.03C387.007 360.743 387.156 358.657 387.296 356.8C387.385 355.751 387.485 354.803 387.594 353.914C388.47 353.315 391.945 350.849 393.02 349.082C394.065 347.364 394.922 344.878 394.145 342.891C393.378 340.945 391.168 339.866 389.237 340.865C386.559 342.253 385.862 347.654 386.3 350.31C386.34 350.539 387.345 354.064 387.395 354.034C387.395 354.034 387.435 354.004 387.445 353.994C387.325 354.843 387.216 355.761 387.106 356.76C386.927 358.607 386.728 360.703 386.678 363C386.618 365.286 386.619 367.782 386.857 370.408C387.086 373.034 387.465 375.79 388.221 378.585C388.231 378.615 388.241 378.645 388.251 378.675C387.773 377.926 386.38 375.89 386.26 375.74C384.498 373.703 379.908 370.798 377.131 371.976C375.13 372.824 374.552 375.221 375.548 377.058C376.663 378.945 379.112 379.863 381.103 380.163Z" fill="#39B4EF"/>
<path d="M432.753 365.965C432.802 365.995 433.718 362.441 433.748 362.211C434.116 359.535 433.27 354.164 430.552 352.846C428.601 351.897 426.411 353.035 425.704 355.002C424.977 357.009 425.903 359.465 426.988 361.153C428.272 363.14 432.743 365.965 432.753 365.965Z" fill="#39B4EF"/>
<path d="M337.457 156.975C337.457 156.975 337.765 145.702 344.247 142.507C350.728 139.302 351.096 149.866 351.096 149.866C351.096 149.866 365.93 140.421 369.146 147.579C372.362 154.738 367.872 158.203 367.872 158.203C367.872 158.203 381.043 157.743 381.949 164.982C382.855 172.221 376.065 175.765 376.065 175.765C376.065 175.765 384.209 182.424 381.352 185.5C378.494 188.575 372.242 188.794 372.242 188.794C372.242 188.794 375.786 195.943 369.614 198.469C363.441 200.995 356.353 196.293 356.353 196.293C356.353 196.293 357.458 199.557 352.809 198.729C348.169 197.9 343.48 195.753 340.603 188.914C337.706 182.065 333.992 162.735 337.457 156.975Z" fill="#263238" stroke="#263238" stroke-miterlimit="10" stroke-linecap="round" stroke-linejoin="round"/>
<path d="M269.03 374.682C269.03 374.682 265.337 388.819 265.387 390.387C265.436 391.964 264.172 395.509 265.247 396.517C266.332 397.526 271.161 400.86 271.689 401.02C272.216 401.18 273.769 400.601 274.277 400.231C274.785 399.862 275.103 398.973 275.083 398.454C275.063 397.925 273.59 395.709 273.401 395.189C273.212 394.67 276.119 387.921 277.224 384.556C278.329 381.191 278.996 375.391 278.996 375.391L269.03 374.682Z" fill="#BDBDBD" stroke="#263238" stroke-miterlimit="10"/>
<path d="M273.032 384.526C273.032 384.526 270.932 389.499 270.792 390.377C270.653 391.256 267.766 393.632 268.184 395.549C268.602 397.456 272.774 396.967 274.844 391.286" fill="#BDBDBD"/>
<path d="M273.032 384.526C273.032 384.526 270.932 389.499 270.792 390.377C270.653 391.256 267.766 393.632 268.184 395.549C268.602 397.456 272.774 396.967 274.844 391.286" stroke="#263238" stroke-miterlimit="10"/>
<path d="M282.44 297.883C282.44 297.883 280.678 326.717 280.011 329.263C279.344 331.809 271.339 355.063 269.577 362.192C267.815 369.32 267.277 375.65 267.277 375.65L278.03 377.917L284.053 351.339C284.053 351.339 291.938 327.157 290.365 315.785C288.792 304.403 282.44 297.883 282.44 297.883Z" fill="#39B4EF" stroke="#263238" stroke-miterlimit="10"/>
<path d="M338.403 434.098C338.522 427.828 338.791 419.372 339.348 414.529C340.314 406.162 343.908 400.991 347.572 390.517C351.235 380.044 351.514 366.395 351.514 366.395L285.906 368.691C285.906 368.691 278.33 396.977 273.77 417.834C272.237 424.823 271.679 430.125 271.6 434.098" fill="#39B4EF"/>
<path d="M338.403 434.098C338.522 427.828 338.791 419.372 339.348 414.529C340.314 406.162 343.908 400.991 347.572 390.517C351.235 380.044 351.514 366.395 351.514 366.395L285.906 368.691C285.906 368.691 278.33 396.977 273.77 417.834C272.237 424.823 271.679 430.125 271.6 434.098" stroke="#263238" stroke-miterlimit="10"/>
<path d="M294.588 379.345L349.175 380.892L350.33 376.649L294.588 379.345Z" fill="#263238" stroke="#263238" stroke-miterlimit="10" stroke-linecap="round" stroke-linejoin="round"/>
<path d="M291.83 433.1C291.83 433.1 290.754 398.864 290.725 380.293L291.83 433.1Z" fill="white"/>
<path d="M291.83 433.1C291.83 433.1 290.754 398.864 290.725 380.293" stroke="#263238" stroke-miterlimit="10"/>
<path d="M333.674 225.457L341.638 230.828C341.638 230.828 351.046 239.285 353.396 246.244C355.746 253.193 354.033 294.748 351.694 308.187C349.354 321.625 355.198 338.299 357.279 347.724C359.36 357.15 360.315 374.692 360.315 374.692C360.315 374.692 361.789 376.749 336.222 377.647C310.656 378.546 292.825 379.864 290.735 380.293C288.644 380.722 286.892 380.782 286.892 380.782L285.876 371.677L283.328 379.145L278.031 377.927C278.031 377.927 281.317 361.642 282.153 355.282C282.979 348.922 288.196 327.297 288.266 319.209C288.335 311.122 281.566 297.993 280.241 289.955C278.917 281.918 281.585 268.11 288.236 257.676C294.886 247.243 299.307 243.229 312.259 232.576C325.191 221.912 333.674 225.457 333.674 225.457Z" fill="#39B4EF" stroke="#263238" stroke-miterlimit="10"/>
<path d="M312.926 347.125L339.637 350.15L338.134 343.141L321.468 341.704" stroke="#263238" stroke-miterlimit="10"/>
<path d="M303.588 341.314L302.234 345.907L308.935 346.666" stroke="#263238" stroke-miterlimit="10"/>
<path d="M313.613 295.417C312.219 294.079 310.984 292.751 310.168 291.613" stroke="#263238" stroke-miterlimit="10"/>
<path d="M322.902 303.284C322.902 303.284 320.084 301.148 316.998 298.492" stroke="#263238" stroke-miterlimit="10"/>
<path d="M333.672 225.457C333.672 225.457 325.2 221.913 312.248 232.566C299.295 243.219 294.875 247.233 288.224 257.666C284.113 264.126 281.514 271.874 280.459 278.743C280.618 279.522 280.788 280.311 280.977 281.119C284.68 296.815 288.802 304.403 288.802 304.403C288.802 304.403 295.97 268.639 308.445 254.142C320.909 239.645 341.647 230.828 341.647 230.828L333.672 225.457Z" fill="#39B4EF" stroke="#263238" stroke-miterlimit="10"/>
<path d="M302.541 155.696C302.541 155.696 293.193 164.453 292.496 171.352C291.799 178.251 291.072 184.202 289.907 186.428C288.742 188.655 282.869 190.112 284.86 193.477C286.841 196.842 288.713 196.782 288.713 196.782C288.713 196.782 291.719 211.668 293.969 213.775C296.219 215.882 304.273 214.664 304.273 214.664L306.752 232.715C306.752 232.715 290.047 247.582 286.791 268.299C283.536 289.007 287.259 300.838 287.259 300.838C287.259 300.838 289.439 268.209 296.966 255.979C304.492 243.758 321.975 232.186 324.553 230.099C327.132 228.013 333.663 225.467 333.663 225.467C333.663 225.467 330.556 218.438 330.138 215.323C329.72 212.217 329.869 207.525 330.447 206.257C331.024 204.989 341.478 201.185 345.42 189.184C349.363 177.183 343.578 163.015 337.456 156.984C331.333 150.944 310.366 147.929 302.541 155.696Z" fill="#BDBDBD" stroke="#263238" stroke-miterlimit="10"/>
<path d="M345.431 189.174C349.373 177.173 343.589 163.005 337.466 156.975C331.344 150.944 310.377 147.929 302.552 155.697C302.552 155.697 302.054 156.166 301.277 156.965C302.89 156.535 306.096 155.966 310.367 156.665C316.629 157.694 316.49 162.696 314.787 167.438C313.085 172.181 314.359 173.069 317.555 175.456C320.751 177.842 317.485 182.325 319.725 184.122C321.965 185.919 323.807 176.174 328.725 183.183C333.643 190.192 330.328 193.437 327.282 195.414C324.235 197.391 321.766 198.11 321.766 198.11C321.766 198.11 326.386 203.531 330.925 205.768C333.086 204.12 341.887 199.957 345.431 189.174Z" fill="#263238" stroke="#263238" stroke-miterlimit="10" stroke-linecap="round" stroke-linejoin="round"/>
<path d="M293.779 199.408C293.779 199.408 300.3 198.869 303.307 195.953" stroke="#263238" stroke-miterlimit="10"/>
<path d="M297.922 183.962C297.971 185.509 297.394 186.787 296.617 186.817C295.841 186.847 295.174 185.609 295.124 184.062C295.074 182.514 295.652 181.236 296.428 181.206C297.195 181.176 297.862 182.414 297.922 183.962Z" fill="#263238"/>
<path d="M295.113 177.642C295.113 177.642 297.214 174.806 300.221 178.151" stroke="#263238" stroke-miterlimit="10"/>
<path d="M304.273 214.654L312.049 211.718L306.633 221.473L304.273 214.654Z" fill="#263238" stroke="#263238" stroke-miterlimit="10"/>
<path d="M281.884 357.958L271.689 401.02L280.839 403.157L285.876 371.666L281.884 357.958Z" fill="white" stroke="#263238" stroke-miterlimit="10"/>
<path d="M290.894 254.86C289.052 258.944 287.558 263.457 286.792 268.289C283.536 288.997 287.26 300.828 287.26 300.828C287.26 300.828 289.41 268.639 296.817 256.228C294.488 255.949 292.516 255.449 290.894 254.86Z" fill="white" stroke="#263238" stroke-miterlimit="10"/>
<path d="M322.393 268.299L321.696 304.842L257.93 315.385L259.333 332.608C259.333 332.608 294.726 333.307 311.193 331.909C327.66 330.511 342.026 329.453 344.126 327.696C346.227 325.938 352.2 291.972 354.65 268.079C357.099 244.187 352.2 236.1 342.384 237.508" fill="#39B4EF"/>
<path d="M322.393 268.299L321.696 304.842L257.93 315.385L259.333 332.608C259.333 332.608 294.726 333.307 311.193 331.909C327.66 330.511 342.026 329.453 344.126 327.696C346.227 325.938 352.2 291.972 354.65 268.079C357.099 244.187 352.2 236.1 342.384 237.508" stroke="#263238" stroke-miterlimit="10"/>
<path d="M219.779 313.838L214.682 329.373L219.699 332.089C219.699 332.089 226.021 337.001 229.486 339.657C232.95 342.313 235.599 342.313 237.44 341.494C239.272 340.675 247.635 328.814 248.651 326.568C249.666 324.321 244.778 317.572 239.88 314.706C234.981 311.841 230.909 311.841 228.052 312.66C225.205 313.488 219.779 313.838 219.779 313.838Z" fill="white" stroke="#263238" stroke-miterlimit="10"/>
<path d="M257.93 315.385L249.876 314.686C249.876 314.686 244.271 313.278 242.17 313.278C240.069 313.278 237.262 315.385 235.858 316.443C234.454 317.502 219.043 334.365 219.043 334.365C219.043 334.365 220.447 337.181 222.547 336.472C224.648 335.773 228.501 334.016 228.501 334.016C228.501 334.016 224.3 338.229 226.4 340.336C228.501 342.442 232.005 342.442 232.005 342.442L234.454 341.035C234.454 341.035 236.207 342.442 237.959 342.792C239.711 343.141 242.519 342.442 244.968 341.035C247.417 339.627 253.629 332.298 253.629 332.298L259.015 330.212L257.93 315.385Z" fill="#BDBDBD" stroke="#263238" stroke-miterlimit="10"/>
<path d="M222.557 314.506C222.557 314.506 232.751 308.576 237.241 310.213C241.731 311.851 247.635 321.865 246.012 323.303C244.38 324.73 241.731 324.121 240.308 322.693C238.884 321.266 236.435 319.828 236.435 319.828C236.435 319.828 232.353 322.284 227.664 322.284" fill="white"/>
<path d="M222.557 314.506C222.557 314.506 232.751 308.576 237.241 310.213C241.731 311.851 247.635 321.865 246.012 323.303C244.38 324.73 241.731 324.121 240.308 322.693C238.884 321.266 236.435 319.828 236.435 319.828C236.435 319.828 232.353 322.284 227.664 322.284" stroke="#263238" stroke-miterlimit="10"/>
<path d="M252.962 337.72L249.727 335.982C248.632 335.393 248.223 334.035 248.801 332.937C249.388 331.839 250.742 331.43 251.837 332.009L255.073 333.746C256.168 334.335 256.576 335.693 255.999 336.791C255.411 337.889 254.047 338.299 252.962 337.72Z" fill="white" stroke="#263238" stroke-miterlimit="10"/>
<path d="M250.105 341.194L246.869 339.457C245.774 338.868 245.366 337.51 245.943 336.412C246.531 335.314 247.885 334.904 248.98 335.483L252.216 337.221C253.311 337.81 253.719 339.167 253.141 340.266C252.554 341.364 251.2 341.783 250.105 341.194Z" fill="white" stroke="#263238" stroke-miterlimit="10"/>
<path d="M246.839 344.259L243.604 342.522C242.509 341.933 242.1 340.575 242.678 339.477C243.265 338.378 244.619 337.969 245.714 338.548L248.95 340.285C250.045 340.875 250.453 342.232 249.876 343.331C249.298 344.429 247.934 344.848 246.839 344.259Z" fill="white" stroke="#263238" stroke-miterlimit="10"/>
<path d="M239.969 344.409L239.123 343.95C238.028 343.361 237.62 342.003 238.197 340.904C238.785 339.806 240.139 339.397 241.234 339.976L242.08 340.435C243.175 341.024 243.583 342.382 243.006 343.48C242.419 344.589 241.065 344.998 239.969 344.409Z" fill="white" stroke="#263238" stroke-miterlimit="10"/>
<path d="M219.78 313.838L176.99 295.696L178.573 324.112L213.906 332.239L219.78 313.838Z" fill="#263238" stroke="#263238" stroke-miterlimit="10" stroke-linecap="round" stroke-linejoin="round"/>
<path d="M213.906 332.238L219.78 313.837L213.796 311.182L213.687 311.791L208.201 330.851L213.906 332.238Z" fill="white" stroke="#263238" stroke-miterlimit="10"/>
<path d="M152.986 200.136L163.958 205.248C163.958 205.248 168.557 218.318 167.024 218.697C165.491 219.076 153.992 209.861 153.992 209.861L152.986 200.136Z" fill="white" stroke="#263238" stroke-miterlimit="10" stroke-linecap="round" stroke-linejoin="round"/>
<path d="M159.308 197.521L160.074 193.118C160.074 193.118 170.229 193.816 174.291 193.796C178.353 193.776 181.897 193.237 181.867 188.914C181.837 184.591 179.468 169.844 179.468 169.844C179.468 169.844 184.028 168.796 185.79 166.749C187.552 164.702 185.003 162.176 182.694 159.131C180.394 156.096 178.343 152.801 178.064 149.237C177.785 145.672 171.623 134.011 171.623 134.011C171.623 134.011 172.628 132.223 169.303 128.429C165.978 124.635 148.984 123.976 138.102 129.388C127.23 134.799 124.741 142.707 124.791 151.353C124.841 160 129.739 172.19 129.739 172.19C129.739 172.19 126.523 185.44 126.275 186.208C126.026 186.977 123.148 192.608 123.148 192.608C123.148 192.608 136.748 202.133 141.726 206.397C146.704 210.67 157.904 217.978 157.974 214.035C158.043 210.081 158.491 201.145 158.491 201.145L159.308 197.521Z" fill="white" stroke="#263238" stroke-miterlimit="10" stroke-linecap="round" stroke-linejoin="round"/>
<path d="M174.31 156.226C174.38 157.703 174.032 158.911 173.544 158.931C173.056 158.951 172.608 157.773 172.538 156.306C172.468 154.828 172.817 153.62 173.305 153.6C173.793 153.58 174.241 154.748 174.31 156.226Z" fill="#263238"/>
<path d="M167.172 151.343C167.172 151.343 169.432 147.509 175.286 149.766" stroke="#263238" stroke-width="2" stroke-miterlimit="10" stroke-linecap="round" stroke-linejoin="round"/>
<path d="M181.868 188.914C181.838 184.591 179.468 169.844 179.468 169.844C179.468 169.844 176.671 168.336 171.344 169.644C166.028 170.952 164.554 179.609 163.549 180.637C162.543 181.665 155.903 175.595 153.344 171.541C150.786 167.488 148.964 160.369 148.685 156.305C148.406 152.232 158.033 150.145 159.537 146.311C161.04 142.487 153.902 138.453 156.431 135.897C158.949 133.341 164.037 134.32 166.576 134.819C169.114 135.308 171.643 134.02 171.643 134.02C171.643 134.02 172.648 132.233 169.323 128.439C165.998 124.645 149.004 123.986 138.122 129.398C127.25 134.809 124.761 142.717 124.811 151.363C124.851 158.372 128.077 167.697 129.301 170.992C130.277 171.342 131.87 171.851 132.547 171.671C133.562 171.411 134.299 168.356 134.787 165.301C135.275 162.246 142.612 158.642 142.612 158.642C142.612 158.642 143.936 167.797 143.946 169.574C143.956 171.352 143 180.267 147.849 184.561C152.697 188.854 160.084 193.137 160.084 193.137C160.084 193.137 170.239 193.836 174.301 193.816C178.363 193.796 181.897 193.237 181.868 188.914Z" fill="#263238" stroke="#263238" stroke-miterlimit="10" stroke-linecap="round" stroke-linejoin="round"/>
<path d="M144.176 164.972C144.176 164.972 142.075 152.771 138.521 153.3C134.977 153.829 132.975 158.422 134.787 164.263C136.599 170.103 140.144 169.574 142.175 169.055" fill="white"/>
<path d="M144.176 164.972C144.176 164.972 142.075 152.771 138.521 153.3C134.977 153.829 132.975 158.422 134.787 164.263C136.599 170.103 140.144 169.574 142.175 169.055" stroke="#263238" stroke-miterlimit="10" stroke-linecap="round" stroke-linejoin="round"/>
<path d="M169.094 174.227C169.094 174.227 171.135 176.763 176.471 176.723" stroke="white" stroke-miterlimit="10" stroke-linecap="round" stroke-linejoin="round"/>
<path d="M112.089 434.098H165.84C166.029 431.263 168.11 420.36 168.11 413.211C168.11 404.944 173.774 351.688 173.774 351.688L103.855 350.77L106.145 383.368L112.089 434.098Z" fill="#263238" stroke="#263238" stroke-miterlimit="10" stroke-linecap="round" stroke-linejoin="round"/>
<path d="M119.127 194.476C119.127 194.476 106.862 210.231 103.417 219.067C99.9722 227.903 97.2841 229.441 98.0507 240.583C98.8173 251.725 104.183 296.305 104.183 296.305L93.4512 354.334C93.4512 354.334 110.694 361.253 132.926 361.253C155.157 361.253 164.734 359.336 166.267 358.567C167.8 357.799 181.211 354.344 181.211 354.344C181.211 354.344 181.211 288.627 177 265.953C172.788 243.279 167.422 225.986 165.501 221.763C163.589 217.539 157.456 203.701 157.456 203.701L119.127 194.476Z" fill="#263238" stroke="#263238" stroke-miterlimit="10" stroke-linecap="round" stroke-linejoin="round"/>
<path d="M165.5 221.763C163.589 217.539 157.456 203.701 157.456 203.701L119.137 194.476C119.137 194.476 116.548 197.81 113.412 202.263C121.765 207.136 142.443 219.147 143.668 219.456C145.201 219.836 152.867 219.067 152.867 219.067L149.422 223.29C149.422 223.29 158.621 230.589 161.687 233.664C163.3 235.281 167.979 239.555 172.061 243.239C169.264 232.216 166.695 224.418 165.5 221.763Z" fill="#263238" stroke="#263238" stroke-miterlimit="10" stroke-linecap="round" stroke-linejoin="round"/>
<path d="M147.869 212.158L160.901 222.531L171.633 241.751L164.734 213.695L150.557 205.628L147.869 212.158Z" fill="white" stroke="#263238" stroke-miterlimit="10" stroke-linecap="round" stroke-linejoin="round"/>
<path d="M121.815 187.177L161.937 205.308V219.526L116.061 196.013L121.815 187.177Z" fill="white" stroke="#263238" stroke-miterlimit="10" stroke-linecap="round" stroke-linejoin="round"/>
<path d="M174.869 332.618H105.537V388.879H174.869V332.618Z" fill="#39B4EF" stroke="#263238" stroke-miterlimit="10"/>
<path d="M144.455 359.436C144.455 359.436 149.612 366.175 151.623 366.854C153.644 367.533 154.759 369.1 155.655 370.448C156.551 371.796 157.676 381.91 158.343 382.589C159.02 383.268 159.02 384.836 156.551 383.717C154.082 382.589 152.519 378.775 152.519 378.775L153.415 387.771C153.415 387.771 155.436 388.22 153.863 389.348C152.29 390.477 150.946 392.044 149.602 391.375C148.258 390.696 146.237 388.899 146.237 388.899C146.237 388.899 143.768 389.798 141.309 389.348C138.84 388.899 139.288 389.798 137.047 388.22C134.807 386.643 134.807 388.45 133.682 385.524C132.557 382.599 129.869 372.485 129.421 369.57C128.973 366.644 128.525 362.601 128.525 362.601L144.455 359.436Z" fill="white" stroke="#263238" stroke-miterlimit="10" stroke-linecap="round" stroke-linejoin="round"/>
<path d="M145.359 355.163L146.922 362.132L127.648 364.827L126.752 357.858L145.359 355.163Z" fill="white" stroke="#263238" stroke-miterlimit="10" stroke-linecap="round" stroke-linejoin="round"/>
<path d="M120.66 208.313C120.66 208.313 107.249 212.537 106.861 218.687C106.483 224.837 102.033 299.42 103.954 304.422C105.865 309.414 124.732 360.005 124.732 360.005L146.574 357.319C146.574 357.319 135.374 298.661 134.996 297.503C134.618 296.355 142.503 230.988 142.503 230.988" fill="#263238"/>
<path d="M120.66 208.313C120.66 208.313 107.249 212.537 106.861 218.687C106.483 224.837 102.033 299.42 103.954 304.422C105.865 309.414 124.732 360.005 124.732 360.005L146.574 357.319C146.574 357.319 135.374 298.661 134.996 297.503C134.618 296.355 142.503 230.988 142.503 230.988" stroke="#263238" stroke-miterlimit="10" stroke-linecap="round" stroke-linejoin="round"/>
<path d="M139.932 249.758L134.994 297.503L139.703 327.166" stroke="#878787" stroke-miterlimit="10" stroke-linecap="round" stroke-linejoin="round"/>
<path d="M140.69 242.45L140.432 244.986" stroke="#878787" stroke-miterlimit="10" stroke-linecap="round" stroke-linejoin="round"/>
<path d="M105.327 235.062L103.854 279.891" stroke="#878787" stroke-miterlimit="10" stroke-linecap="round" stroke-linejoin="round"/>
<path d="M155.425 319.339L170.16 318.8L171.484 324.111L147.072 325.689" stroke="#878787" stroke-miterlimit="10" stroke-linecap="round" stroke-linejoin="round"/>
<path d="M143.148 319.778L150.994 319.499" stroke="#878787" stroke-miterlimit="10" stroke-linecap="round" stroke-linejoin="round"/>
<path d="M116.627 203.541L143.657 219.456L152.856 219.077L149.401 223.3L167.212 237.528" stroke="#878787" stroke-miterlimit="10" stroke-linecap="round" stroke-linejoin="round"/>
<path d="M1.10156 434.098H455.57" stroke="#263238" stroke-miterlimit="10"/>
<path d="M129.541 22.6357V90.1195" stroke="#263238" stroke-miterlimit="10"/>
<path d="M232.9 22.6357V90.1195" stroke="#263238" stroke-miterlimit="10"/>
<path d="M336.262 22.6357V90.1195" stroke="#263238" stroke-miterlimit="10"/>
</svg>
