<svg width="583" height="405" viewBox="0 0 583 405" fill="none" xmlns="http://www.w3.org/2000/svg">
<g clip-path="url(#clip0_130_17734)">
<path d="M412.283 71.146C320.075 109.543 235.6 15.9818 143.126 33.5636C96.94 42.3459 57.2274 74.7526 31.704 113.696C4.38018 155.388 -9.37176 209.78 8.57264 258.026C13.571 271.455 20.9871 283.87 30.1694 294.794C82.4507 357.006 193.598 391.069 269.714 359.434C270.065 359.286 270.417 359.139 270.768 358.992C355.166 322.9 416.793 367.401 489.745 346.464C572.051 322.848 591.701 206.963 562.217 136.679C554.012 117.129 539.823 99.8075 523.199 86.9853C491.425 62.4592 449.492 55.6449 412.283 71.146Z" fill="#39B4EF"/>
<path opacity="0.7" d="M412.283 71.146C320.075 109.543 235.6 15.9818 143.126 33.5636C96.94 42.3459 57.2274 74.7526 31.704 113.696C4.38018 155.388 -9.37176 209.78 8.57264 258.026C13.571 271.455 20.9871 283.87 30.1694 294.794C82.4507 357.006 193.598 391.069 269.714 359.434C270.065 359.286 270.417 359.139 270.768 358.992C355.166 322.9 416.793 367.401 489.745 346.464C572.051 322.848 591.701 206.963 562.217 136.679C554.012 117.129 539.823 99.8075 523.199 86.9853C491.425 62.4592 449.492 55.6449 412.283 71.146Z" fill="white"/>
<path d="M283.458 403.813C411.28 403.813 514.901 400.18 514.901 395.699C514.901 391.217 411.28 387.584 283.458 387.584C155.636 387.584 52.0156 391.217 52.0156 395.699C52.0156 400.18 155.636 403.813 283.458 403.813Z" fill="#39B4EF"/>
<path d="M519.41 230.249C505.976 235.286 493.184 226.027 488.426 221.198C488.237 221.025 488.066 220.843 487.894 220.669C497.968 278.14 514.061 347.14 514.061 347.14C514.061 347.14 447.376 334.916 417.643 326.958C417.78 327.981 418.088 329.117 418.62 330.408C423.533 342.06 432.449 358.099 413.33 374.215C394.211 390.332 363.055 378.836 356.145 357.457C351.695 343.69 361.349 331.128 366.296 326.507C370.102 322.961 374.278 317.872 371.766 313.893C341.312 306.42 327.115 306.688 289.528 309.723C292.272 302.501 297.099 290.112 303.117 276.05C312.643 253.752 313.843 231.463 306.092 215.19C298.342 198.926 291.192 232.061 266.757 225.429C242.331 218.805 238.756 182.047 248.29 166.381C257.815 150.715 273.316 152.527 287.616 160.356C301.917 168.193 304.301 162.766 304.301 162.766C304.301 162.766 304.301 150.715 299.525 116.973C296.404 94.8399 290.72 75.819 287.171 65.3462C290.626 65.8143 306.847 66.9674 310.088 67.2275C395.274 74.0244 490.192 70.4785 490.192 70.4785C490.192 70.4785 475.703 114.459 480.298 166.52C481.936 169.042 484.885 170.742 490.2 168.193C501.517 162.774 517.01 153.125 533.702 171.808C550.395 190.473 540.261 222.412 519.41 230.249Z" stroke="#263238" stroke-miterlimit="10"/>
<path d="M303.118 276.042C297.099 290.104 292.272 302.493 289.529 309.714C270.95 311.214 251.908 314.795 232.798 321.227C157.719 346.534 72.507 325.449 72.507 325.449C72.507 325.449 89.7655 281.582 93.3921 215.849C90.5286 213.786 87.3392 217.652 83.8241 221.207C79.0486 226.036 66.2655 235.295 52.8394 230.258C31.9885 222.412 21.8632 190.474 38.5473 171.791C55.2228 153.108 70.7237 162.757 82.0494 168.175C89.4397 171.713 92.2605 167.04 93.3236 163.364C90.22 95.3948 79.6574 76.5906 79.6574 76.5906C79.6574 76.5906 116.343 70.6346 162.066 66.4906C165.658 65.2509 170.297 62.1905 166.379 54.8127C160.463 43.6551 150.175 28.4834 167.793 10.6935C185.412 -7.07903 217.451 1.56449 226.23 22.2413C231.88 35.5577 223.367 48.9348 218.84 53.9805C215.839 57.3442 212.556 60.4479 213.542 63.0748C239.802 62.0778 265.806 62.4246 287.18 65.3289C290.729 75.8017 296.413 94.8139 299.534 116.956C304.31 150.698 304.31 162.748 304.31 162.748C304.31 162.748 301.926 168.167 287.625 160.338C273.325 152.51 257.832 150.706 248.299 166.364C238.765 182.038 242.34 218.788 266.766 225.412C291.201 232.044 298.351 198.909 306.101 215.173C313.843 231.454 312.652 253.744 303.118 276.042Z" stroke="#263238" stroke-miterlimit="10"/>
<path d="M49.0652 390.982C49.2281 391.026 49.3996 390.922 49.451 390.757C53.7549 376.799 50.4884 361.315 40.9204 350.357C40.8003 350.218 40.5946 350.21 40.4574 350.331C40.3202 350.452 40.3116 350.661 40.4317 350.799C49.8454 361.584 53.0605 376.825 48.8252 390.566C48.7737 390.74 48.868 390.93 49.0395 390.982C49.0481 390.974 49.0566 390.982 49.0652 390.982Z" fill="#263238"/>
<path d="M45.1647 377.241C49.1857 376.938 50.7289 383.345 50.5831 383.423C50.5231 384.116 50.4374 384.819 50.3431 385.521C50.1545 384.602 48.5169 382.989 45.7134 381.793C42.9784 380.501 41.3237 377.38 45.1647 377.241Z" fill="#263238"/>
<path d="M56.8153 376.912C60.7763 376.764 58.993 381.975 55.9065 382.79C52.9144 383.691 50.8996 384.732 50.4023 385.521C50.5481 384.827 50.6767 384.133 50.7881 383.44C50.9253 383.518 53.0773 377.198 56.8153 376.912Z" fill="#263238"/>
<path d="M44.4956 371.224C48.4137 370.253 50.9944 376.227 50.8658 376.331C50.9172 377.016 50.9601 377.709 50.9772 378.403C50.6343 377.544 48.7481 376.253 45.7902 375.568C42.8838 374.788 40.7318 372.022 44.4956 371.224Z" fill="#263238"/>
<path d="M55.924 368.927C59.7993 368.112 58.9076 373.505 56.0012 374.814C53.1976 376.201 51.3972 377.553 51.0371 378.394C51.0628 377.701 51.0714 377.007 51.0628 376.314C51.2086 376.374 52.2803 369.846 55.924 368.927Z" fill="#263238"/>
<path d="M42.8498 365.433C46.5536 363.821 50.0773 369.248 49.9659 369.361C50.1373 370.028 50.2831 370.696 50.4203 371.372C49.9401 370.592 47.8739 369.647 44.8389 369.482C41.8382 369.213 39.2661 366.855 42.8498 365.433Z" fill="#263238"/>
<path d="M53.7373 361.237C57.4239 359.781 57.4325 365.234 54.7832 367.011C52.2455 368.84 50.6937 370.479 50.4793 371.363C50.3936 370.678 50.2821 370.002 50.1621 369.317C50.3079 369.36 50.2993 362.763 53.7373 361.237Z" fill="#263238"/>
<path d="M40.2596 359.997C43.6462 357.778 48.0187 362.555 47.9244 362.676C48.1987 363.301 48.4559 363.933 48.7046 364.575C48.1044 363.89 45.9096 363.309 42.8917 363.656C39.8996 363.907 36.9674 362.009 40.2596 359.997Z" fill="#263238"/>
<path d="M50.2991 354.015C53.6942 351.952 54.6116 357.353 52.2881 359.547C50.0933 361.783 48.8244 363.656 48.7558 364.566C48.5587 363.907 48.3443 363.257 48.1043 362.607C48.2757 362.616 47.1697 356.105 50.2991 354.015Z" fill="#263238"/>
<path d="M36.7797 355.038C39.7461 352.281 44.8903 356.278 44.8131 356.417C45.1903 356.989 45.5504 357.578 45.9019 358.168C45.1903 357.596 42.9355 357.388 40.0119 358.237C37.0969 358.974 33.8733 357.579 36.7797 355.038Z" fill="#263238"/>
<path d="M45.6706 347.418C48.6713 344.808 50.5061 350.01 48.5856 352.576C46.7937 355.16 45.8592 357.223 45.945 358.133C45.6363 357.518 45.3191 356.911 44.9762 356.304C45.1476 356.295 42.9442 350.027 45.6706 347.418Z" fill="#263238"/>
<path d="M42.6787 353.027C42.7815 353.036 40.7068 347.461 38.409 345.164C36.2142 342.841 33.9765 343.959 33.6507 345.32C33.2992 346.681 34.8939 348.233 36.4714 349.23C38.1004 350.088 42.713 352.932 42.6787 353.027Z" fill="#263238"/>
<path d="M42.6268 353.244C42.6354 353.244 42.644 353.244 42.6525 353.253C42.7469 353.261 42.8326 353.209 42.8755 353.122C42.8755 353.114 42.884 353.114 42.884 353.105C42.9012 353.044 42.9183 353.001 42.8755 352.932C42.6697 351.848 40.5349 346.984 38.563 345.017C37.4827 343.872 36.2138 343.395 35.0735 343.699C34.2505 343.924 33.616 344.54 33.436 345.277C32.9645 347.123 35.5451 348.918 36.351 349.429C37.9457 350.262 42.1467 352.854 42.4982 353.166C42.5325 353.192 42.5754 353.227 42.6268 353.244ZM36.3424 344.106C36.8911 344.236 37.5427 344.566 38.2458 345.311C40.0548 347.123 41.718 350.955 42.2667 352.446C41.8809 352.186 41.2636 351.813 40.312 351.224C39.0774 350.47 37.4398 349.49 36.5653 349.03C35.0564 348.077 33.5389 346.612 33.8561 345.372C33.9933 344.791 34.5163 344.297 35.185 344.115C35.4508 344.046 35.8537 343.993 36.3424 344.106Z" fill="#263238"/>
<path d="M54.2524 392.708C54.4153 392.829 54.6554 392.812 54.7925 392.647C66.2468 379.365 70.0791 360.691 64.8064 343.907C64.7378 343.699 64.5149 343.578 64.3092 343.647C64.1034 343.716 63.9834 343.942 64.0519 344.15C69.2475 360.665 65.4752 379.045 54.201 392.118C54.0552 392.283 54.0724 392.543 54.2353 392.682C54.2438 392.699 54.2438 392.699 54.2524 392.708Z" fill="#263238"/>
<path d="M56.559 375.638C61.1372 377.285 59.7655 385.096 59.5597 385.113C59.1567 385.85 58.7281 386.579 58.2822 387.307C58.5137 386.197 57.4935 383.614 54.9729 380.926C52.5808 378.169 52.255 373.912 56.559 375.638Z" fill="#263238"/>
<path d="M69.556 381.013C73.9885 382.79 69.5217 387.671 65.7236 387.047C61.9855 386.561 59.2677 386.726 58.3418 387.35C58.8305 386.657 59.3106 385.954 59.765 385.244C59.885 385.391 65.2949 379.478 69.556 381.013Z" fill="#263238"/>
<path d="M58.7101 368.684C63.4942 369.534 63.4684 377.397 63.2798 377.441C63.0055 378.23 62.7225 379.01 62.4053 379.781C62.4396 378.663 60.9821 376.322 58.05 374.112C55.2121 371.814 54.1747 367.705 58.7101 368.684Z" fill="#263238"/>
<path d="M72.4199 371.762C77.0839 372.768 73.5087 378.273 69.6764 378.29C65.9212 378.437 63.2805 379.044 62.4746 379.799C62.8347 379.044 63.1776 378.281 63.5034 377.518C63.6406 377.657 67.9531 370.99 72.4199 371.762Z" fill="#263238"/>
<path d="M59.6799 361.489C64.5325 361.523 65.81 369.248 65.6385 369.317C65.5013 370.132 65.347 370.947 65.1755 371.753C65.0212 370.652 63.1951 368.598 59.9371 366.933C56.7478 365.156 55.0416 361.298 59.6799 361.489Z" fill="#263238"/>
<path d="M73.6984 362.209C78.4653 362.408 75.8418 368.433 72.078 369.092C68.4 369.864 65.9051 370.904 65.2363 371.771C65.4678 370.973 65.6736 370.176 65.8708 369.361C66.0165 369.474 69.1716 362.2 73.6984 362.209Z" fill="#263238"/>
<path d="M59.4401 354.224C64.2327 353.443 66.7705 360.856 66.6076 360.942C66.6076 361.766 66.5905 362.598 66.5476 363.422C66.2132 362.373 64.0784 360.656 60.5804 359.555C57.1596 358.35 54.8447 354.813 59.4401 354.224Z" fill="#263238"/>
<path d="M73.3797 352.55C78.1123 351.943 76.5262 358.341 72.9168 359.625C69.4188 361.012 67.1296 362.451 66.6152 363.422C66.7095 362.598 66.7867 361.775 66.8381 360.942C67.0096 361.046 68.9215 353.322 73.3797 352.55Z" fill="#263238"/>
<path d="M57.9825 347.036C62.5865 345.45 66.3331 352.394 66.1788 352.498C66.316 353.313 66.436 354.137 66.5389 354.96C66.033 353.981 63.641 352.637 60.0144 352.143C56.4393 351.536 53.55 348.415 57.9825 347.036Z" fill="#263238"/>
<path d="M71.4428 343.014C76.0125 341.609 75.5324 348.25 72.1801 350.131C68.9651 352.099 66.9417 353.92 66.5988 354.96C66.5559 354.128 66.4959 353.296 66.4102 352.472C66.5988 352.542 67.1818 344.54 71.4428 343.014Z" fill="#263238"/>
<path d="M65.4497 347.722C65.5611 347.782 65.9469 340.613 64.5151 336.954C63.212 333.321 60.2112 333.443 59.191 334.787C58.1536 336.122 59.1567 338.61 60.417 340.483C61.8145 342.225 65.5354 347.635 65.4497 347.722Z" fill="#263238"/>
<path d="M65.2957 347.93C65.3043 347.938 65.3129 347.947 65.3214 347.947C65.4157 347.999 65.5443 347.99 65.6301 347.912C65.6386 347.904 65.6386 347.904 65.6472 347.895C65.6987 347.843 65.733 347.8 65.7158 347.696C66.0073 346.404 65.9902 339.988 64.7641 336.85C64.1211 335.064 62.9551 333.902 61.5491 333.686C60.5374 333.53 59.5343 333.894 58.9856 334.622C57.5795 336.425 59.56 339.676 60.203 340.63C61.5576 342.338 64.9442 347.253 65.1928 347.774C65.2014 347.834 65.2443 347.895 65.2957 347.93ZM62.7494 334.778C63.2895 335.185 63.8554 335.879 64.2669 337.041C65.3986 339.928 65.3814 344.973 65.2786 346.881C64.9785 346.412 64.4812 345.684 63.7096 344.566C62.7065 343.118 61.3776 341.245 60.6317 340.309C59.4314 338.514 58.4626 336.156 59.4057 334.943C59.8429 334.37 60.6488 334.084 61.4719 334.214C61.8063 334.266 62.2693 334.414 62.7494 334.778Z" fill="#263238"/>
<path d="M530.401 393.687C530.281 393.713 530.161 393.653 530.118 393.531C526.886 383.57 529.064 372.438 535.803 364.48C535.888 364.376 536.034 364.367 536.137 364.454C536.24 364.54 536.248 364.688 536.163 364.792C529.527 372.629 527.392 383.587 530.573 393.384C530.616 393.505 530.547 393.644 530.418 393.687C530.41 393.687 530.41 393.687 530.401 393.687Z" fill="#263238"/>
<path d="M533.05 383.795C530.161 383.622 529.123 388.225 529.235 388.286C529.286 388.789 529.355 389.283 529.432 389.786C529.56 389.127 530.709 387.948 532.707 387.064C534.653 386.11 535.802 383.856 533.05 383.795Z" fill="#263238"/>
<path d="M524.691 383.691C521.854 383.63 523.182 387.35 525.403 387.896C527.564 388.511 529.012 389.231 529.381 389.795C529.27 389.3 529.167 388.806 529.081 388.303C528.995 388.355 527.383 383.856 524.691 383.691Z" fill="#263238"/>
<path d="M533.462 379.478C530.642 378.828 528.858 383.136 528.953 383.206C528.918 383.7 528.901 384.194 528.893 384.697C529.133 384.081 530.462 383.128 532.579 382.608C534.663 382.009 536.171 380.007 533.462 379.478Z" fill="#263238"/>
<path d="M525.249 377.952C522.462 377.406 523.165 381.264 525.257 382.174C527.281 383.136 528.592 384.081 528.858 384.688C528.832 384.194 528.815 383.691 528.815 383.197C528.712 383.241 527.872 378.576 525.249 377.952Z" fill="#263238"/>
<path d="M534.585 375.308C531.919 374.189 529.449 378.125 529.527 378.203C529.415 378.68 529.312 379.166 529.227 379.651C529.561 379.088 531.036 378.385 533.205 378.238C535.348 378.004 537.166 376.287 534.585 375.308Z" fill="#263238"/>
<path d="M526.732 372.421C524.074 371.415 524.126 375.325 526.046 376.574C527.881 377.857 529.013 379.01 529.184 379.643C529.244 379.148 529.313 378.663 529.39 378.177C529.278 378.203 529.218 373.479 526.732 372.421Z" fill="#263238"/>
<path d="M536.377 371.381C533.925 369.829 530.839 373.297 530.907 373.383C530.719 373.834 530.539 374.294 530.367 374.753C530.796 374.259 532.356 373.817 534.525 374.033C536.677 374.181 538.761 372.785 536.377 371.381Z" fill="#263238"/>
<path d="M529.116 367.202C526.664 365.763 526.064 369.638 527.744 371.19C529.339 372.768 530.273 374.094 530.325 374.744C530.462 374.268 530.608 373.799 530.771 373.331C530.668 373.349 531.388 368.667 529.116 367.202Z" fill="#263238"/>
<path d="M538.822 367.783C536.661 365.841 533.017 368.763 533.078 368.858C532.812 369.274 532.563 369.699 532.314 370.124C532.82 369.699 534.432 369.534 536.533 370.106C538.642 370.618 540.939 369.577 538.822 367.783Z" fill="#263238"/>
<path d="M532.365 362.425C530.188 360.587 528.927 364.332 530.333 366.153C531.645 367.982 532.34 369.456 532.288 370.106C532.503 369.664 532.725 369.222 532.966 368.789C532.837 368.78 534.354 364.263 532.365 362.425Z" fill="#263238"/>
<path d="M534.569 366.413C534.492 366.422 535.924 362.399 537.544 360.734C539.088 359.044 540.708 359.824 540.957 360.795C541.222 361.766 540.099 362.902 538.976 363.63C537.827 364.254 534.552 366.343 534.569 366.413Z" fill="#263238"/>
<path d="M534.612 366.56C534.603 366.56 534.595 366.56 534.595 366.56C534.526 366.569 534.466 366.534 534.432 366.474C534.432 366.474 534.432 366.465 534.423 366.456C534.406 366.413 534.397 366.378 534.432 366.335C534.569 365.555 536.044 362.044 537.441 360.613C538.204 359.781 539.113 359.425 539.927 359.633C540.519 359.781 540.982 360.223 541.119 360.743C541.479 362.061 539.645 363.379 539.079 363.751C537.947 364.367 534.963 366.274 534.706 366.5C534.68 366.534 534.646 366.552 534.612 366.56ZM539.019 359.945C538.624 360.041 538.161 360.292 537.664 360.83C536.387 362.148 535.238 364.913 534.86 365.988C535.135 365.797 535.572 365.52 536.249 365.087C537.124 364.532 538.29 363.812 538.907 363.474C539.979 362.772 541.051 361.705 540.81 360.821C540.708 360.405 540.33 360.058 539.85 359.937C539.653 359.893 539.37 359.859 539.019 359.945Z" fill="#263238"/>
<path d="M526.698 394.979C526.578 395.074 526.415 395.057 526.312 394.944C517.961 385.555 515.012 372.213 518.613 360.119C518.656 359.963 518.819 359.876 518.964 359.928C519.119 359.972 519.205 360.136 519.153 360.284C515.604 372.178 518.51 385.313 526.732 394.554C526.835 394.676 526.826 394.858 526.715 394.962C526.715 394.97 526.706 394.979 526.698 394.979Z" fill="#263238"/>
<path d="M524.862 382.773C521.596 384.004 522.667 389.587 522.813 389.596C523.113 390.124 523.422 390.636 523.747 391.156C523.567 390.367 524.279 388.503 526.054 386.544C527.743 384.541 527.931 381.481 524.862 382.773Z" fill="#263238"/>
<path d="M515.603 386.761C512.439 388.087 515.697 391.529 518.415 391.044C521.09 390.653 523.036 390.749 523.713 391.182C523.353 390.697 523.002 390.194 522.667 389.691C522.582 389.804 518.646 385.625 515.603 386.761Z" fill="#263238"/>
<path d="M523.251 377.805C519.83 378.472 519.933 384.099 520.07 384.134C520.276 384.697 520.49 385.252 520.722 385.807C520.687 385.009 521.699 383.31 523.782 381.697C525.789 380.016 526.492 377.059 523.251 377.805Z" fill="#263238"/>
<path d="M513.459 380.171C510.124 380.943 512.748 384.853 515.5 384.827C518.192 384.888 520.095 385.295 520.678 385.833C520.412 385.295 520.155 384.758 519.915 384.211C519.812 384.298 516.649 379.565 513.459 380.171Z" fill="#263238"/>
<path d="M522.478 372.664C518.997 372.742 518.165 378.291 518.294 378.343C518.397 378.923 518.517 379.504 518.654 380.085C518.757 379.296 520.043 377.805 522.358 376.565C524.612 375.265 525.795 372.473 522.478 372.664Z" fill="#263238"/>
<path d="M512.439 373.331C509.027 373.531 510.964 377.814 513.673 378.247C516.314 378.759 518.123 379.478 518.603 380.094C518.432 379.522 518.269 378.949 518.123 378.377C518.02 378.464 515.68 373.279 512.439 373.331Z" fill="#263238"/>
<path d="M522.573 367.453C519.126 366.95 517.386 372.291 517.506 372.352C517.514 372.941 517.54 373.539 517.574 374.129C517.806 373.375 519.315 372.118 521.81 371.294C524.253 370.384 525.874 367.826 522.573 367.453Z" fill="#263238"/>
<path d="M512.559 366.413C509.164 366.032 510.364 370.601 512.971 371.476C515.491 372.43 517.154 373.436 517.532 374.129C517.455 373.54 517.395 372.95 517.343 372.36C517.214 372.43 515.766 366.916 512.559 366.413Z" fill="#263238"/>
<path d="M523.542 362.287C520.224 361.203 517.618 366.214 517.73 366.292C517.635 366.882 517.567 367.471 517.498 368.061C517.85 367.35 519.547 366.361 522.145 365.971C524.691 365.494 526.732 363.223 523.542 362.287Z" fill="#263238"/>
<path d="M513.845 359.556C510.553 358.602 510.973 363.353 513.391 364.662C515.714 366.041 517.189 367.315 517.446 368.061C517.463 367.462 517.506 366.873 517.557 366.275C517.42 366.327 516.914 360.605 513.845 359.556Z" fill="#263238"/>
<path d="M518.193 362.859C518.116 362.902 517.756 357.77 518.751 355.125C519.642 352.507 521.803 352.568 522.54 353.513C523.303 354.458 522.6 356.252 521.726 357.614C520.74 358.879 518.133 362.798 518.193 362.859Z" fill="#263238"/>
<path d="M518.304 363.006C518.296 363.015 518.287 363.015 518.287 363.023C518.218 363.067 518.124 363.058 518.064 363.006C518.064 363.006 518.056 362.997 518.056 362.989C518.021 362.954 517.987 362.919 518.004 362.85C517.781 361.922 517.721 357.328 518.57 355.065C519.007 353.773 519.839 352.932 520.842 352.759C521.562 352.637 522.291 352.889 522.685 353.4C523.714 354.675 522.325 357.033 521.879 357.718C520.928 358.957 518.553 362.521 518.381 362.893C518.373 362.937 518.347 362.98 518.304 363.006ZM519.985 353.548C519.599 353.851 519.204 354.345 518.921 355.186C518.141 357.267 518.21 360.882 518.304 362.252C518.518 361.914 518.861 361.385 519.402 360.579C520.105 359.53 521.039 358.177 521.562 357.492C522.402 356.192 523.071 354.493 522.385 353.634C522.068 353.227 521.485 353.027 520.902 353.131C520.662 353.175 520.328 353.288 519.985 353.548Z" fill="#263238"/>
<path d="M289.512 188.046L285.456 187.769L285.045 199.386L289.512 199.109V188.046Z" fill="white" stroke="#263238" stroke-miterlimit="10" stroke-linecap="round" stroke-linejoin="round"/>
<path d="M316.801 186.269L289.512 188.046L289.555 201.727L318.182 207.284L316.801 186.269Z" fill="#263238" stroke="#263238" stroke-miterlimit="10" stroke-linecap="round" stroke-linejoin="round"/>
<path d="M285.456 187.769C285.456 187.769 274.242 182.983 272.758 182.983C271.275 182.983 266.817 188.991 265.6 191.046C264.382 193.092 265.197 194.323 266.277 195.554C267.357 196.785 271.275 198.424 273.976 198.146C276.677 197.869 285.19 196.915 285.19 196.915L285.456 187.769Z" fill="white" stroke="#263238" stroke-miterlimit="10" stroke-linecap="round" stroke-linejoin="round"/>
<path d="M184.298 379.418C184.298 379.418 181.58 379.244 181.409 380.103C181.238 380.961 182.086 389.561 182.935 390.246C183.784 390.931 185.481 391.451 189.562 391.624C193.643 391.798 199.422 390.939 199.422 390.939L198.745 381.143L184.298 379.418Z" fill="#828282" stroke="#263238" stroke-miterlimit="10"/>
<path d="M181.126 293.208C181.126 293.208 181.126 307.348 179.24 315.367C177.353 323.395 180.483 340.405 182.755 349.958C185.018 359.512 184.641 367.54 184.641 367.54C184.641 367.54 180.483 373.271 181.237 375.95C181.992 378.629 182.635 379.686 185.653 380.449C188.679 381.212 189.056 379.764 193.326 382.825C198.633 386.631 205.415 388.174 207.309 385.885C209.195 383.596 206.555 382.443 205.046 381.299C203.537 380.154 200.133 374.805 197.484 370.982C194.835 367.159 196.352 353.79 196.352 342.321C196.352 330.851 201.908 297.412 201.908 297.412L181.126 293.208Z" fill="white" stroke="#263238" stroke-miterlimit="10"/>
<path d="M195.864 295.887C195.864 295.887 191.328 315.376 192.837 324.167C194.346 332.957 195.212 357.223 194.835 367.159C194.646 372.126 192.563 375.221 191.929 377.259C191.123 379.842 191.646 382.712 193.515 384.645C194.509 385.668 195.744 386.457 197.21 386.457C201.368 386.457 202.02 386.258 207.687 388.928C213.354 391.598 219.398 391.607 222.425 390.072C225.451 388.547 224.311 387.393 220.916 385.868C217.512 384.342 214.854 379.686 209.667 375.872C206.795 373.765 206.795 365.052 206.795 365.052C206.795 365.052 213.628 316.121 215.137 306.949C216.646 297.777 216.269 290.902 216.269 290.902L195.864 295.887Z" fill="white" stroke="#263238" stroke-miterlimit="10"/>
<path d="M191.611 381.481L191.954 392.144C191.954 392.144 192.297 392.665 198.753 393.003C205.218 393.35 204.532 392.656 213.38 394.208C222.219 395.751 224.602 392.318 224.774 391.798C224.945 391.278 224.602 388.529 224.602 388.529C224.602 388.529 221.199 390.419 213.38 389.388C205.56 388.356 202.834 386.466 199.439 384.229C196.027 381.992 191.611 381.481 191.611 381.481Z" fill="#828282" stroke="#263238" stroke-miterlimit="10"/>
<path d="M209.666 375.88L206.914 387.498C206.914 387.498 210.481 389.388 213.379 389.388L216.268 382.166C216.259 382.166 213.61 377.51 209.666 375.88Z" fill="#39B4EF" stroke="#263238" stroke-miterlimit="10"/>
<path d="M230.26 178.362C230.26 178.362 230.115 176.732 231.143 174.799C232.172 172.874 231.289 171.089 229.677 172.424C228.065 173.759 227.328 176.576 227.328 176.576L230.26 178.362Z" fill="white" stroke="#263238" stroke-miterlimit="10"/>
<path d="M230.756 155.505L200.189 151.561L193.093 207.788L223.66 211.733L230.756 155.505Z" fill="white" stroke="#263238" stroke-miterlimit="10"/>
<path d="M181.57 194.8C181.57 194.8 173.999 208.099 169.018 223.817C164.037 239.535 165.435 297.17 165.632 297.776C165.829 298.383 169.421 300.395 176.992 300.395C184.562 300.395 189.946 299.996 189.946 299.996C189.946 299.996 194.927 302.614 200.312 302.415C205.696 302.215 211.672 299.796 211.672 299.796C211.672 299.796 212.469 300.603 216.258 299.796C220.048 298.99 223.434 297.178 223.434 297.178L227.018 295.167C227.018 295.167 224.232 268.768 221.84 259.292C219.448 249.817 217.656 208.307 217.253 206.495C216.859 204.683 217.647 210.119 216.859 204.683C216.061 199.239 214.355 194.973 214.355 194.973L181.57 194.8Z" fill="#39B4EF" stroke="#263238" stroke-miterlimit="10"/>
<path d="M177.635 249.132C178.123 250.224 178.638 251.273 179.187 252.235" stroke="#263238" stroke-miterlimit="10"/>
<path d="M172.01 229.46C172.01 229.46 173.587 238.893 176.742 246.973" stroke="#263238" stroke-miterlimit="10"/>
<path d="M174.805 249.01C174.805 249.01 177 253.042 180.189 258.278" stroke="#263238" stroke-miterlimit="10"/>
<path d="M190.35 290.641V272.791" stroke="#263238" stroke-miterlimit="10"/>
<path d="M190.35 298.383V294.881" stroke="#263238" stroke-miterlimit="10"/>
<path d="M196.523 209.503C196.342 211.029 196.196 212.485 196.127 213.751" stroke="#263238" stroke-miterlimit="10"/>
<path d="M198.914 194.6C198.914 194.6 197.713 200.756 196.873 206.781" stroke="#263238" stroke-miterlimit="10"/>
<path d="M190.152 195.207L187.555 205.481" stroke="#263238" stroke-miterlimit="10"/>
<path d="M221.438 266.748C221.438 266.748 222.835 285.084 222.235 290.928" stroke="#263238" stroke-miterlimit="10"/>
<path d="M201.839 131.218C201.839 131.218 210.652 136.567 210.652 142.661C210.652 148.756 208.012 150.837 208.449 151.721C208.886 152.614 212.71 149.64 212.856 151.868C213.002 154.096 211.681 159.003 208.158 159.74C204.634 160.486 200.073 158.405 196.841 149.493C193.608 140.581 199.927 131.218 201.839 131.218Z" fill="#263238" stroke="#263238" stroke-miterlimit="10"/>
<path d="M186.551 135.5C186.551 135.5 177.712 136.471 173.536 148.175C169.361 159.87 179.967 185.22 180.764 187.006C181.57 188.792 181.57 194.809 181.57 194.809L214.347 194.973C214.347 194.973 213.386 175.146 211.937 166.867C210.488 158.587 207.599 148.184 202.781 142.332C197.962 136.48 195.236 133.55 186.551 135.5Z" fill="#39B4EF" stroke="#263238" stroke-miterlimit="10"/>
<path d="M181.253 189.121C181.57 191.557 181.57 194.809 181.57 194.809L214.347 194.973C214.347 194.973 214.201 192.052 213.944 187.986H181.244V189.121H181.253Z" fill="#263238" stroke="#263238" stroke-miterlimit="10"/>
<path d="M229.085 182.819C229.085 182.819 230.697 178.813 230.259 178.371C229.822 177.929 226.881 175.553 226.153 175.553C225.415 175.553 219.988 175.996 219.988 176.741C219.988 177.487 221.454 177.782 221.454 177.782C221.454 177.782 220.134 178.674 220.28 179.411C220.426 180.157 222.998 180.807 222.998 180.807L229.085 182.819Z" fill="white" stroke="#263238" stroke-miterlimit="10"/>
<path d="M222.482 177.469C222.482 177.469 224.977 177.322 225.415 177.469C225.852 177.617 229.084 180.14 229.084 180.14" stroke="#263238" stroke-miterlimit="10"/>
<path d="M183.003 156.203L206.786 193.231C206.786 193.231 210.438 195.008 212.865 196.1C215.299 197.193 222.458 196.646 229.077 196.1C235.696 195.554 261.665 191.453 261.665 191.453C261.665 191.453 263.286 193.916 264.906 195.415C266.526 196.915 269.501 198.831 270.444 198.97C271.387 199.109 273.96 198.146 273.96 198.146C273.96 198.146 275.443 199.239 276.66 199.1C277.878 198.961 278.418 198.692 278.555 198.146C278.692 197.6 278.152 193.361 277.74 192.138C277.338 190.907 274.088 187.63 274.088 187.63C274.088 187.63 269.356 183.529 268.55 183.391C267.735 183.252 257.473 183.798 257.473 183.798L222.998 180.799C222.998 180.799 224.079 180.252 221.918 179.16C219.758 178.068 217.597 177.929 217.597 177.929C217.597 177.929 198.684 138.985 195.572 136.255C192.468 133.524 186.115 134.616 182.06 138.439C178.005 142.263 178.408 146.909 178.408 146.909" fill="#39B4EF"/>
<path d="M183.003 156.203L206.786 193.231C206.786 193.231 210.438 195.008 212.865 196.1C215.299 197.193 222.458 196.646 229.077 196.1C235.696 195.554 261.665 191.453 261.665 191.453C261.665 191.453 263.286 193.916 264.906 195.415C266.526 196.915 269.501 198.831 270.444 198.97C271.387 199.109 273.96 198.146 273.96 198.146C273.96 198.146 275.443 199.239 276.66 199.1C277.878 198.961 278.418 198.692 278.555 198.146C278.692 197.6 278.152 193.361 277.74 192.138C277.338 190.907 274.088 187.63 274.088 187.63C274.088 187.63 269.356 183.529 268.55 183.391C267.735 183.252 257.473 183.798 257.473 183.798L222.998 180.799C222.998 180.799 224.079 180.252 221.918 179.16C219.758 178.068 217.597 177.929 217.597 177.929C217.597 177.929 198.684 138.985 195.572 136.255C192.468 133.524 186.115 134.616 182.06 138.439C178.005 142.263 178.408 146.909 178.408 146.909" stroke="#263238" stroke-miterlimit="10" stroke-linecap="round" stroke-linejoin="round"/>
<path d="M278.562 198.155C278.699 197.609 278.159 193.369 277.748 192.147C277.345 190.916 274.095 187.639 274.095 187.639C274.095 187.639 269.363 183.538 268.557 183.399C267.742 183.261 257.48 183.807 257.48 183.807L230.259 181.327L227.738 196.213C228.184 196.178 228.63 196.144 229.067 196.1C235.686 195.554 261.655 191.453 261.655 191.453C261.655 191.453 263.276 193.916 264.896 195.415C266.516 196.915 269.491 198.831 270.434 198.97C271.378 199.109 273.95 198.146 273.95 198.146C273.95 198.146 275.433 199.239 276.65 199.1C277.885 198.97 278.425 198.701 278.562 198.155Z" fill="white" stroke="#263238" stroke-miterlimit="10" stroke-linecap="round" stroke-linejoin="round"/>
<path d="M220.159 181.345C220.159 181.345 213.403 185.584 212.049 188.861" stroke="#263238" stroke-miterlimit="10" stroke-linecap="round" stroke-linejoin="round"/>
<path d="M217.999 180.53C217.999 180.53 210.3 183.261 208.68 185.177" stroke="#263238" stroke-miterlimit="10" stroke-linecap="round" stroke-linejoin="round"/>
<path d="M204.188 128.097L200.073 137.165L194.191 126.467L195.958 124.386L204.188 128.097Z" fill="white" stroke="#263238" stroke-miterlimit="10"/>
<path d="M208.449 95.4124C208.449 95.4124 211.09 100.016 211.536 103.137C211.973 106.258 211.681 109.968 211.681 109.968C211.681 109.968 215.505 115.17 215.505 116.505C215.505 117.84 212.419 119.176 212.419 119.176C212.419 119.176 211.536 125.86 211.39 127.351C211.244 128.833 209.924 130.472 208.449 130.472C206.983 130.472 197.724 127.498 196.403 127.056C195.083 126.614 190.968 115.465 194.054 107.593C197.141 99.7211 208.449 95.4124 208.449 95.4124Z" fill="white" stroke="#263238" stroke-miterlimit="10"/>
<path d="M208.594 109.674C208.594 110.575 208.2 111.312 207.711 111.312C207.223 111.312 206.828 110.584 206.828 109.674C206.828 108.772 207.223 108.035 207.711 108.035C208.2 108.044 208.594 108.772 208.594 109.674Z" fill="#263238"/>
<path d="M206.1 106.405C206.1 106.405 208.303 105.218 209.769 106.553" stroke="#263238" stroke-miterlimit="10"/>
<path d="M210.207 121.265C210.207 121.265 208.441 121.56 206.975 119.332" stroke="#263238" stroke-miterlimit="10"/>
<path d="M212.418 90.6615C212.418 90.6615 209.04 95.265 203.605 104.333C198.169 113.393 197.723 128.4 197.723 128.4C197.723 128.4 202.276 134.347 203.45 139.688C204.625 145.028 201.984 147.412 201.984 147.412C201.984 147.412 199.592 139.211 195.571 136.255C191.55 133.298 187.435 133.081 186.561 135.492C185.677 137.902 190.23 143.251 188.172 147.707C186.115 152.163 178.184 156.324 178.767 161.231C179.359 166.138 183.028 169.996 181.854 175.944C180.679 181.882 174.506 184.266 171.42 182.186C168.333 180.105 169.508 178.319 169.799 177.877C170.091 177.435 171.42 175.649 169.362 173.568C167.304 171.487 161.277 167.031 162.752 163.017C164.218 159.003 169.808 157.963 168.042 152.917C166.276 147.863 159.228 140.737 162.16 135.084C165.101 129.44 171.274 128.842 169.799 121.56C168.333 114.277 167.004 113.54 168.625 106.553C170.245 99.5737 177.884 90.6528 181.262 88.13C184.64 85.6071 194.637 83.3791 196.986 83.5265C199.335 83.6738 205.071 86.0493 206.974 86.6475C208.877 87.2457 213.439 87.9826 212.418 90.6615Z" fill="#263238" stroke="#263238" stroke-miterlimit="10"/>
<path d="M262.265 189.243C262.265 189.243 259.17 192.849 259.65 193.69C260.122 194.531 261.794 195.129 261.794 195.129C261.794 195.129 263.577 192.242 263.817 190.56C264.048 188.887 263.337 188.766 262.265 189.243Z" fill="white" stroke="#263238" stroke-miterlimit="10" stroke-linecap="round" stroke-linejoin="round"/>
<path d="M265.591 191.046C265.591 191.046 261.793 194.175 261.793 195.138C261.793 196.1 262.385 196.941 263.105 196.577C263.816 196.213 266.2 194.054 266.431 192.485C266.671 190.924 266.414 191.046 265.591 191.046Z" fill="white" stroke="#263238" stroke-miterlimit="10" stroke-linecap="round" stroke-linejoin="round"/>
<path d="M266.45 193.491C266.45 193.491 263.68 196.083 263.817 196.768C263.955 197.453 264.898 197.929 265.438 197.929C265.978 197.929 267.796 196.091 268.267 194.722C268.747 193.352 268.001 192.398 266.45 193.491Z" fill="white" stroke="#263238" stroke-miterlimit="10" stroke-linecap="round" stroke-linejoin="round"/>
<path d="M268.139 195.259C268.139 195.259 266.184 198.398 266.381 198.736C266.587 199.074 267.599 200.027 268.07 199.351C268.542 198.666 270.093 196.828 269.956 195.597C269.828 194.375 268.885 194.444 268.139 195.259Z" fill="white" stroke="#263238" stroke-miterlimit="10" stroke-linecap="round" stroke-linejoin="round"/>
<path d="M334.163 135.734C334.163 135.734 327.089 141.846 326.395 143.762C325.701 145.678 325.701 147.949 325.701 147.949C325.701 147.949 316.381 158.769 315.687 163.832C314.992 168.895 317.581 177.799 317.581 177.799L338.467 136.61L334.163 135.734Z" fill="#263238" stroke="#263238" stroke-miterlimit="10" stroke-linecap="round" stroke-linejoin="round"/>
<path d="M384.284 387.939L384.216 392.3C384.216 392.3 376.928 393.592 371.098 393.037L370.918 389.907L384.284 387.939Z" fill="#263238" stroke="#263238" stroke-miterlimit="10" stroke-linecap="round" stroke-linejoin="round"/>
<path d="M356.283 369.786C356.283 369.786 355.657 374.077 354.706 375.534C353.745 376.981 352.459 378.984 348.387 380.675C344.314 382.365 333.983 385.92 334.463 387.853C334.944 389.786 335.895 390.757 336.855 391C337.816 391.243 345.386 392.474 351.611 392.474C357.835 392.474 365.62 392.769 368.012 391.806C370.404 390.835 372.796 389.873 375.428 389.873C378.06 389.873 383.324 389.387 384.284 387.94C385.244 386.492 383.804 379.712 383.084 377.779C382.364 375.846 381.395 372.863 381.395 372.863L356.283 369.786Z" fill="#263238" stroke="#263238" stroke-miterlimit="10" stroke-linecap="round" stroke-linejoin="round"/>
<path d="M365.687 248.577C365.687 248.577 366.527 301.851 366.802 306.645C367.085 311.44 372.932 336.807 377.39 349.204C381.848 361.61 382.191 375.039 382.191 375.039C382.191 375.039 373.489 376.825 371.534 377.111C369.579 377.397 361.778 375.421 361.778 375.421C361.778 375.421 355.922 327.782 355.922 299.311C355.922 270.84 357.877 249.981 357.877 249.981L365.687 248.577Z" fill="#263238" stroke="#263238" stroke-miterlimit="10" stroke-linecap="round" stroke-linejoin="round"/>
<path d="M370.798 391.069L370.729 395.43C370.729 395.43 363.442 396.721 357.612 396.167L357.432 393.037L370.798 391.069Z" fill="#263238" stroke="#263238" stroke-miterlimit="10" stroke-linecap="round" stroke-linejoin="round"/>
<path d="M342.805 372.915C342.805 372.915 342.179 377.206 341.227 378.663C340.267 380.111 338.981 382.113 334.908 383.804C330.836 385.495 320.505 389.049 320.985 390.982C321.465 392.916 322.417 393.887 323.377 394.129C324.337 394.372 331.908 395.603 338.132 395.603C344.356 395.603 352.141 395.898 354.533 394.936C356.925 393.965 359.317 393.002 361.949 393.002C364.581 393.002 369.845 392.517 370.806 391.069C371.766 389.621 370.326 382.842 369.605 380.908C368.885 378.975 367.916 375.993 367.916 375.993L342.805 372.915Z" fill="#263238" stroke="#263238" stroke-miterlimit="10" stroke-linecap="round" stroke-linejoin="round"/>
<path d="M326.104 247.45C326.104 247.45 330.004 284.937 331.959 293.676C333.914 302.415 339.761 330.322 339.761 330.322C339.761 330.322 343.388 358.792 343.388 359.919C343.388 361.046 343.388 364.428 343.388 364.428C343.388 364.428 340.421 367.566 340.421 368.97C340.421 370.384 341.776 376.816 341.776 376.816C341.776 376.816 347.023 378.377 353.993 379.218C360.912 380.059 369.065 379.461 369.065 379.461C369.065 379.461 369.306 361.974 367.359 345.623C365.405 329.273 360.398 303.542 360.398 295.366C360.398 287.191 361.795 270.277 362.069 269.15C362.352 268.022 363.184 250.267 363.184 250.267L326.104 247.45Z" fill="#263238" stroke="#263238" stroke-miterlimit="10" stroke-linecap="round" stroke-linejoin="round"/>
<path d="M326.807 84.5147C326.807 84.5147 321.92 93.5657 321.92 95.5683C321.92 97.5623 322.769 98.7067 322.486 99.2789C322.203 99.8511 317.83 105.98 317.547 107.55C317.265 109.119 320.368 111.113 320.788 111.538C321.208 111.962 321.637 119.522 322.194 121.664C322.76 123.805 324.595 125.513 326.138 125.513C327.69 125.513 329.662 124.941 329.662 124.941L337.412 130.212L358.7 117.52L358.417 112.959C358.417 112.959 364.985 101.871 365.414 99.7297C365.834 97.5883 366.134 88.0172 364.016 84.454C361.898 80.8908 352.167 76.4087 346.955 74.8395C341.742 73.2703 332.011 77.3883 329.902 78.8188C327.784 80.2406 325.109 81.9572 325.529 82.9542C325.958 83.9425 326.807 84.5147 326.807 84.5147Z" fill="white" stroke="#263238" stroke-miterlimit="10" stroke-linecap="round" stroke-linejoin="round"/>
<path d="M364.025 84.454C361.907 80.8908 352.176 76.4087 346.963 74.8395C341.751 73.2703 332.02 77.3883 329.911 78.8188C327.793 80.2406 325.118 81.9572 325.538 82.9542C325.958 83.9512 326.807 84.5233 326.807 84.5233C326.807 84.5233 328.076 84.8094 329.062 83.9512C330.048 83.0929 329.765 82.0959 335.826 80.9602C341.888 79.8158 343.345 83.7431 341.228 85.8758C339.11 88.0172 335.166 90.7221 335.869 93.0022C336.572 95.2822 342.917 98.1345 342.917 98.1345C342.917 98.1345 342.351 100.701 342.917 101.273C343.483 101.845 344.468 101.984 344.468 101.984C344.468 101.984 348.695 97.1375 350.676 98.1345C352.648 99.1315 355.185 103.839 354.902 106.119C354.62 108.399 351.233 112.535 351.233 112.535L348.832 113.107C348.832 113.107 353.205 115.959 358.418 112.968C358.418 112.968 364.985 101.88 365.414 99.7384C365.851 97.5883 366.142 88.0172 364.025 84.454Z" fill="#263238" stroke="#263238" stroke-miterlimit="10" stroke-linecap="round" stroke-linejoin="round"/>
<path d="M326.996 100.692C326.996 101.637 326.653 102.4 326.225 102.4C325.796 102.4 325.453 101.637 325.453 100.692C325.453 99.7471 325.796 98.9841 326.225 98.9841C326.645 98.9841 326.996 99.7471 326.996 100.692Z" fill="#263238"/>
<path d="M323.893 96.9902C323.893 96.9902 326.85 94.9962 328.831 96.9902" stroke="#263238" stroke-miterlimit="10" stroke-linecap="round" stroke-linejoin="round"/>
<path d="M323.893 112.673C323.893 112.673 326.713 112.959 328.831 111.251" stroke="#263238" stroke-miterlimit="10" stroke-linecap="round" stroke-linejoin="round"/>
<path d="M324.877 103.258C324.877 103.258 326.146 105.824 327.981 105.824" stroke="#263238" stroke-miterlimit="10" stroke-linecap="round" stroke-linejoin="round"/>
<path d="M329.67 124.932L334.463 122.513L334.18 127.646L329.67 124.932Z" fill="#263238" stroke="#263238" stroke-miterlimit="10" stroke-linecap="round" stroke-linejoin="round"/>
<path d="M358.717 115.812L334.608 131.348L333.193 141.326L361.958 119.514L358.717 115.812Z" fill="white" stroke="#263238" stroke-miterlimit="10" stroke-linecap="round" stroke-linejoin="round"/>
<path d="M361.959 119.514C361.959 119.514 334.747 136.341 330.091 145.175C325.436 154.018 316.271 165.705 315.988 172.979C315.705 180.252 315.988 237.705 315.851 241.979C315.713 246.253 329.671 254.958 344.615 256.379C359.558 257.801 374.219 251.108 375.634 250.25C377.04 249.392 379.861 246.826 379.861 246.826C379.861 246.826 375.634 220.739 375.634 217.314C375.634 213.89 374.502 206.191 374.502 206.191L377.606 180.668C377.606 180.668 376.337 148.166 374.648 140.606C372.959 133.047 365.346 119.93 365.346 119.93C365.346 119.93 363.931 118.378 361.959 119.514Z" fill="#263238" stroke="#263238" stroke-miterlimit="10" stroke-linecap="round" stroke-linejoin="round"/>
<path d="M316.845 168.973C316.657 169.537 316.494 170.083 316.365 170.62L318.389 167.569C318.389 167.569 330.512 155.596 333.761 151.313C337.002 147.039 343.629 141.621 343.629 141.621L344.615 137.486L346.021 139.766C346.021 139.766 351.945 132.639 356.172 129.926C360.399 127.221 365.757 124.221 365.757 124.221" stroke="#A1A1A1" stroke-miterlimit="10" stroke-linecap="round" stroke-linejoin="round"/>
<path d="M374.154 203.03L322.578 184.174L308.959 222.264L360.535 241.12L374.154 203.03Z" fill="#39B4EF" stroke="#263238" stroke-miterlimit="10" stroke-linecap="round" stroke-linejoin="round"/>
<path d="M345.471 214.835C345.471 214.835 341.296 217.028 340.627 217.202C339.958 217.366 330.939 216.187 330.107 216.526C329.275 216.864 326.763 218.381 325.435 218.719C324.106 219.057 324.603 221.25 326.266 221.762C327.938 222.265 332.113 221.086 332.113 221.086L333.279 222.438C333.279 222.438 329.773 232.399 330.604 233.249C331.436 234.09 332.105 234.94 332.945 234.601C333.777 234.263 335.286 233.761 335.286 233.761C335.286 233.761 339.126 235.278 339.958 235.616C340.79 235.954 343.636 236.119 344.305 235.781C344.974 235.442 345.642 234.601 346.311 233.587C346.98 232.573 349.818 224.302 349.818 224.302L350.984 221.259L345.471 214.835Z" fill="white" stroke="#263238" stroke-miterlimit="10" stroke-linecap="round" stroke-linejoin="round"/>
<path d="M352.647 138.829C352.647 138.829 348.969 140.182 347.803 149.129C346.637 158.076 349.475 165.176 351.147 167.707C352.819 170.239 366.597 189.433 366.597 189.433C366.597 189.433 364.925 190.95 365.096 191.8C365.259 192.641 365.259 192.641 365.259 192.641L343.131 214.315L351.653 223.097C351.653 223.097 378.865 209.893 385.313 204.466C390.474 200.123 393.166 191.124 392.995 189.26C392.832 187.405 375.042 148.617 372.367 143.719C369.692 138.821 366.691 135.778 364.35 135.101" fill="#263238"/>
<path d="M352.647 138.829C352.647 138.829 348.969 140.182 347.803 149.129C346.637 158.076 349.475 165.176 351.147 167.707C352.819 170.239 366.597 189.433 366.597 189.433C366.597 189.433 364.925 190.95 365.096 191.8C365.259 192.641 365.259 192.641 365.259 192.641L343.131 214.315L351.653 223.097C351.653 223.097 378.865 209.893 385.313 204.466C390.474 200.123 393.166 191.124 392.995 189.26C392.832 187.405 375.042 148.617 372.367 143.719C369.692 138.821 366.691 135.778 364.35 135.101" stroke="#263238" stroke-miterlimit="10" stroke-linecap="round" stroke-linejoin="round"/>
<path d="M366.768 191.973C366.768 191.973 379.962 188.592 380.46 190.283" stroke="#263238" stroke-miterlimit="10" stroke-linecap="round" stroke-linejoin="round"/>
<path d="M382.801 188.939C382.801 188.939 378.788 187.084 375.453 187.76" stroke="#A1A1A1" stroke-miterlimit="10" stroke-linecap="round" stroke-linejoin="round"/>
<path d="M347.803 149.137C347.803 149.137 348.557 157.564 350.049 161.457C351.541 165.349 366.707 187.595 366.707 187.595C366.707 187.595 364.144 187.162 364.573 188.679C365.001 190.188 365.087 191.818 365.087 191.818L362.223 194.297" stroke="#A1A1A1" stroke-miterlimit="10" stroke-linecap="round" stroke-linejoin="round"/>
<path d="M281.941 186.945C281.941 186.945 275.588 183.391 273.565 181.891C271.542 180.391 269.244 181.206 268.832 181.483C268.429 181.761 265.729 186.13 265.317 186.945C264.914 187.769 266.132 188.315 267.212 188.176C268.292 188.037 271.945 185.584 271.945 185.584L276.54 189.277" fill="white"/>
<path d="M281.941 186.945C281.941 186.945 275.588 183.391 273.565 181.891C271.542 180.391 269.244 181.206 268.832 181.483C268.429 181.761 265.729 186.13 265.317 186.945C264.914 187.769 266.132 188.315 267.212 188.176C268.292 188.037 271.945 185.584 271.945 185.584L276.54 189.277" stroke="#263238" stroke-miterlimit="10" stroke-linecap="round" stroke-linejoin="round"/>
<path d="M581.722 283.957V274.646L570.019 272.773C569.436 270.563 568.571 268.473 567.456 266.54L574.426 256.83L567.919 250.25L558.325 257.298C556.413 256.171 554.347 255.295 552.161 254.706L550.309 242.872H541.101L539.249 254.706C537.063 255.295 534.997 256.171 533.085 257.298L523.491 250.25L516.984 256.83L523.954 266.531C522.839 268.465 521.973 270.554 521.39 272.765L509.688 274.637V283.948L521.39 285.821C521.973 288.032 522.839 290.121 523.954 292.054L516.984 301.755L523.491 308.336L533.085 301.287C534.997 302.414 537.063 303.29 539.249 303.88L541.101 315.713H550.309L552.161 303.88C554.347 303.29 556.413 302.414 558.325 301.287L567.919 308.336L574.426 301.755L567.456 292.054C568.571 290.121 569.436 288.032 570.019 285.821L581.722 283.957ZM545.688 293.684C537.834 293.684 531.464 287.243 531.464 279.301C531.464 271.36 537.834 264.919 545.688 264.919C553.541 264.919 559.911 271.36 559.911 279.301C559.911 287.243 553.55 293.684 545.688 293.684Z" stroke="#263238" stroke-miterlimit="10"/>
<path d="M458.975 126.05V118.109L448.987 116.505C448.49 114.615 447.753 112.829 446.801 111.182L452.742 102.903L447.187 97.2847L438.999 103.293C437.37 102.33 435.604 101.585 433.735 101.082L432.149 90.9819H424.295L422.709 101.082C420.84 101.585 419.074 102.33 417.445 103.293L409.257 97.2847L403.702 102.903L409.643 111.182C408.691 112.829 407.954 114.615 407.457 116.505L397.469 118.109V126.05L407.457 127.654C407.954 129.544 408.691 131.33 409.643 132.977L403.702 141.257L409.257 146.874L417.445 140.866C419.074 141.829 420.84 142.574 422.709 143.077L424.295 153.177H432.149L433.735 143.077C435.604 142.574 437.37 141.829 438.999 140.866L447.187 146.874L452.742 141.257L446.801 132.977C447.753 131.33 448.49 129.544 448.987 127.654L458.975 126.05ZM428.231 134.347C421.526 134.347 416.09 128.85 416.09 122.071C416.09 115.291 421.526 109.795 428.231 109.795C434.935 109.795 440.371 115.291 440.371 122.071C440.371 128.859 434.935 134.347 428.231 134.347Z" stroke="#263238" stroke-miterlimit="10"/>
<path d="M137.478 303.619V297.75L130.096 296.571C129.728 295.175 129.179 293.857 128.484 292.635L132.874 286.523L128.767 282.37L122.723 286.809C121.514 286.098 120.211 285.543 118.831 285.179L117.665 277.715H111.86L110.694 285.179C109.314 285.552 108.011 286.107 106.802 286.809L100.758 282.37L96.6509 286.523L101.041 292.635C100.337 293.857 99.7888 295.175 99.4287 296.571L92.0469 297.75V303.619L99.4287 304.798C99.7973 306.194 100.346 307.512 101.041 308.734L96.6509 314.846L100.758 318.999L106.802 314.56C108.011 315.271 109.314 315.826 110.694 316.19L111.86 323.655H117.665L118.831 316.19C120.211 315.817 121.514 315.263 122.723 314.56L128.767 318.999L132.874 314.846L128.484 308.734C129.187 307.512 129.736 306.194 130.096 304.798L137.478 303.619ZM114.758 309.749C109.803 309.749 105.79 305.691 105.79 300.68C105.79 295.669 109.803 291.612 114.758 291.612C119.714 291.612 123.726 295.669 123.726 300.68C123.726 305.691 119.714 309.749 114.758 309.749Z" stroke="#263238" stroke-miterlimit="10"/>
<path d="M76.8453 69.7849V61.1588L65.9998 59.4162C65.4597 57.3702 64.6537 55.4282 63.6249 53.6423L70.0808 44.6606L64.045 38.5573L55.1628 45.0855C53.3881 44.0451 51.4762 43.2302 49.4529 42.684L47.7296 31.717H39.1989L37.4756 42.684C35.4523 43.2302 33.5318 44.0451 31.7657 45.0855L22.8835 38.5573L16.8477 44.6606L23.3036 53.6423C22.2748 55.4369 21.4689 57.3702 20.9287 59.4162L10.0918 61.1588V69.7849L20.9373 71.5275C21.4774 73.5735 22.2834 75.5155 23.3122 77.3014L16.8563 86.2831L22.8921 92.3864L31.7743 85.8582C33.549 86.8986 35.4609 87.7135 37.4842 88.2597L39.2075 99.2267H47.7382L49.4614 88.2597C51.4848 87.7135 53.4053 86.8986 55.1714 85.8582L64.0536 92.3864L70.0894 86.2831L63.6335 77.3014C64.6623 75.5068 65.4682 73.5735 66.0084 71.5275L76.8453 69.7849ZM43.4685 78.7926C36.1896 78.7926 30.291 72.8279 30.291 65.4675C30.291 58.1071 36.1896 52.1424 43.4685 52.1424C50.7475 52.1424 56.6461 58.1071 56.6461 65.4675C56.6461 72.8279 50.7475 78.7926 43.4685 78.7926Z" stroke="#263238" stroke-miterlimit="10"/>
</g>
<defs>
<clipPath id="clip0_130_17734">
<rect width="583" height="404" fill="white" transform="translate(0 0.472168)"/>
</clipPath>
</defs>
</svg>
