<svg width="16" height="16" viewBox="0 0 16 16" fill="none" xmlns="http://www.w3.org/2000/svg">
<g clip-path="url(#clip0_130_13596)">
<path d="M8 4C12.4183 4 16 3.10457 16 2C16 0.895431 12.4183 0 8 0C3.58172 0 0 0.895431 0 2C0 3.10457 3.58172 4 8 4Z" fill="#39B4EF"/>
<path d="M8 5.33325C3.582 5.33325 0 4.43792 0 3.33325V5.99992C0 7.10459 3.582 7.99992 8 7.99992C12.418 7.99992 16 7.10459 16 5.99992V3.33325C16 4.43792 12.418 5.33325 8 5.33325Z" fill="#39B4EF"/>
<path d="M8 9.33325C3.582 9.33325 0 8.43792 0 7.33325V9.99992C0 11.1046 3.582 11.9999 8 11.9999C12.418 11.9999 16 11.1046 16 9.99992V7.33325C16 8.43792 12.418 9.33325 8 9.33325Z" fill="#39B4EF"/>
<path d="M8 13.3333C3.582 13.3333 0 12.4379 0 11.3333V13.9999C0 15.1046 3.582 15.9999 8 15.9999C12.418 15.9999 16 15.1046 16 13.9999V11.3333C16 12.4379 12.418 13.3333 8 13.3333Z" fill="#39B4EF"/>
</g>
<defs>
<clipPath id="clip0_130_13596">
<rect width="16" height="16" fill="white"/>
</clipPath>
</defs>
</svg>
