<svg width="541" height="402" viewBox="0 0 541 402" fill="none" xmlns="http://www.w3.org/2000/svg">
<g clip-path="url(#clip0_222_24392)">
<path d="M434.062 385.358C463.709 328.305 526.541 197.682 499.699 155.087C473.582 113.63 434.439 139.671 385.619 114.32C336.799 88.9783 364.179 3.95041 278.339 2.73214C194.04 1.53179 182.939 141.292 149.799 155.096C116.658 168.9 38.2541 113.164 21.3657 193.463C8.22223 255.935 74.7637 347.699 104.966 385.367H434.062V385.358Z" fill="#39B4EF"/>
<path opacity="0.7" d="M434.062 385.358C463.709 328.305 526.541 197.682 499.699 155.087C473.582 113.63 434.439 139.671 385.619 114.32C336.799 88.9783 364.179 3.95041 278.339 2.73214C194.04 1.53179 182.939 141.292 149.799 155.096C116.658 168.9 38.2541 113.164 21.3657 193.463C8.22223 255.935 74.7637 347.699 104.966 385.367H434.062V385.358Z" fill="white"/>
<path d="M491.593 385.358H33.8488C27.9983 387.982 23.1781 391.261 27.4428 393.885C35.9273 399.117 92.3267 390.401 79.5327 411.326C66.7387 432.252 207.419 406.677 222.534 407.26C237.648 407.842 248.695 419.577 271.945 419.577C295.194 419.577 297.094 404.554 312.137 404.554C327.17 404.554 433.984 422.766 479.408 404.554C499.451 396.51 498.698 390.06 491.593 385.358Z" fill="#E2EDFF"/>
<path opacity="0.6" d="M491.593 385.358H33.8488C27.9983 387.982 23.1781 391.261 27.4428 393.885C35.9273 399.117 92.3267 390.401 79.5327 411.326C66.7387 432.252 207.419 406.677 222.534 407.26C237.648 407.842 248.695 419.577 271.945 419.577C295.194 419.577 297.094 404.554 312.137 404.554C327.17 404.554 433.984 422.766 479.408 404.554C499.451 396.51 498.698 390.06 491.593 385.358Z" fill="white"/>
<path d="M21.3945 385.358H494.907" stroke="#002E47" stroke-width="0.75" stroke-miterlimit="10" stroke-linecap="round" stroke-linejoin="round"/>
<path d="M339.332 61.5493C347.673 61.5493 359.338 61.5493 367.527 61.5493" stroke="#002E47" stroke-width="0.75" stroke-miterlimit="10" stroke-linecap="round" stroke-linejoin="round"/>
<path d="M334.195 61.5493C334.966 61.5493 335.817 61.5493 336.713 61.5493" stroke="#002E47" stroke-width="0.75" stroke-miterlimit="10" stroke-linecap="round" stroke-linejoin="round"/>
<path d="M330.192 18.9368C318.428 18.9368 308.887 28.4769 308.887 40.2386C308.887 52.0002 318.428 61.5403 330.192 61.5403" stroke="#002E47" stroke-width="0.75" stroke-miterlimit="10" stroke-linecap="round" stroke-linejoin="round"/>
<path d="M356.161 0.824074C345.285 0.824074 336.325 8.98467 335.035 19.5101" stroke="#002E47" stroke-width="0.75" stroke-miterlimit="10" stroke-linecap="round" stroke-linejoin="round"/>
<path d="M376.225 61.5493C386.635 61.5493 395.066 53.111 395.066 42.711C395.066 32.6961 387.245 24.5355 377.389 23.9264C377.443 23.3352 377.479 22.735 377.479 22.1348C377.479 12.1647 370.634 3.79809 361.379 1.46906" stroke="#002E47" stroke-width="0.75" stroke-miterlimit="10" stroke-linecap="round" stroke-linejoin="round"/>
<path d="M413.299 88.2616C413.774 87.5808 414.195 86.8642 414.544 86.1117L417.33 86.1565C417.743 85.0816 418.056 83.9529 418.235 82.7794L415.798 81.4268C415.834 81.0147 415.852 80.6026 415.852 80.1816C415.852 79.7606 415.834 79.3485 415.798 78.9365L418.235 77.5838C418.056 76.4104 417.743 75.2817 417.33 74.2067L414.544 74.2515C414.195 73.4901 413.774 72.7735 413.299 72.1016L414.732 69.7099C413.998 68.8052 413.164 67.9721 412.259 67.2375L409.867 68.6708C409.186 68.196 408.47 67.775 407.717 67.4256L407.762 64.6398C406.687 64.2277 405.558 63.9142 404.384 63.735L403.031 66.1715" stroke="#002E47" stroke-width="0.75" stroke-miterlimit="10" stroke-linecap="round" stroke-linejoin="round"/>
<path d="M389.54 87.106C389.764 87.5002 390.006 87.8854 390.266 88.2616L388.832 90.6533C389.567 91.5581 390.4 92.3912 391.305 93.1257L393.697 91.6925C394.378 92.1672 395.095 92.5882 395.847 92.9376L395.802 95.7235C396.878 96.1356 398.006 96.4491 399.18 96.6282L400.533 94.1917C400.945 94.2275 401.357 94.2454 401.778 94.2454C402.199 94.2454 402.612 94.2275 403.024 94.1917L404.377 96.6282C405.55 96.4491 406.679 96.1356 407.754 95.7235L407.709 92.9376C408.471 92.5882 409.188 92.1672 409.86 91.6925L412.252 93.1257C413.157 92.3912 413.99 91.5581 414.725 90.6533" stroke="#002E47" stroke-width="0.75" stroke-miterlimit="10" stroke-linecap="round" stroke-linejoin="round"/>
<path d="M387.334 74.2157L386.241 74.1978C385.829 75.2727 385.515 76.4014 385.336 77.5749L387.773 78.9275C387.737 79.3396 387.719 79.7517 387.719 80.1727C387.719 80.5937 387.737 81.0057 387.773 81.4178L385.336 82.7704C385.515 83.9439 385.829 85.0726 386.241 86.1476L389.027 86.1028" stroke="#002E47" stroke-width="0.75" stroke-miterlimit="10" stroke-linecap="round" stroke-linejoin="round"/>
<path d="M400.537 66.1626L399.184 63.7261C398.01 63.9142 396.881 64.2187 395.806 64.6308L395.851 67.4167C395.09 67.7661 394.373 68.1871 393.701 68.6618L391.309 67.2286C390.404 67.9631 389.571 68.7962 388.836 69.7009L390.269 72.0927C389.795 72.7735 389.374 73.4901 389.024 74.2426" stroke="#002E47" stroke-width="0.75" stroke-miterlimit="10" stroke-linecap="round" stroke-linejoin="round"/>
<path d="M399.954 89.0588C395.824 88.2168 392.715 84.562 392.715 80.1727C392.715 75.1652 396.773 71.1073 401.782 71.1073" stroke="#002E47" stroke-width="0.75" stroke-miterlimit="10" stroke-linecap="round" stroke-linejoin="round"/>
<path d="M410.601 82.3046C409.643 86.2909 406.059 89.247 401.785 89.247" stroke="#002E47" stroke-width="0.75" stroke-miterlimit="10" stroke-linecap="round" stroke-linejoin="round"/>
<path d="M410.815 80.9699C410.797 81.1849 410.77 81.3999 410.734 81.6059" stroke="#002E47" stroke-width="0.75" stroke-miterlimit="10" stroke-linecap="round" stroke-linejoin="round"/>
<path d="M405.094 71.7344C408.462 73.0602 410.855 76.3387 410.855 80.1816" stroke="#002E47" stroke-width="0.75" stroke-miterlimit="10" stroke-linecap="round" stroke-linejoin="round"/>
<path d="M426.185 60.752C426.445 60.3758 426.678 59.9816 426.875 59.5606L428.416 59.5875C428.649 58.9873 428.819 58.3692 428.918 57.7153L427.565 56.9629C427.583 56.7389 427.601 56.506 427.601 56.2731C427.601 56.0402 427.592 55.8163 427.565 55.5833L428.918 54.8309C428.819 54.1859 428.649 53.5589 428.416 52.9587L426.875 52.9856C426.678 52.5646 426.445 52.1704 426.185 51.7942L426.974 50.4774C426.571 49.9757 426.105 49.5189 425.603 49.1068L424.286 49.8951C423.91 49.6353 423.515 49.4024 423.094 49.2054L423.121 47.6646C422.521 47.4317 421.903 47.2615 421.249 47.163L420.496 48.5066" stroke="#002E47" stroke-width="0.75" stroke-miterlimit="10" stroke-linecap="round" stroke-linejoin="round"/>
<path d="M413.045 60.116C413.171 60.331 413.305 60.546 413.449 60.752L412.66 62.0689C413.063 62.5705 413.529 63.0273 414.031 63.4394L415.348 62.6511C415.724 62.9109 416.118 63.1438 416.54 63.3409L416.513 64.8816C417.113 65.1145 417.731 65.2847 418.385 65.3833L419.138 64.0396C419.362 64.0575 419.595 64.0754 419.828 64.0754C420.061 64.0754 420.285 64.0665 420.518 64.0396L421.27 65.3833C421.915 65.2847 422.542 65.1145 423.143 64.8816L423.116 63.3409C423.537 63.1438 423.931 62.9109 424.307 62.6511L425.624 63.4394C426.126 63.0363 426.583 62.5705 426.995 62.0689" stroke="#002E47" stroke-width="0.75" stroke-miterlimit="10" stroke-linecap="round" stroke-linejoin="round"/>
<path d="M411.826 52.9856L411.217 52.9766C410.984 53.5768 410.813 54.1949 410.715 54.8488L412.068 55.6013C412.05 55.8252 412.032 56.0581 412.032 56.291C412.032 56.5239 412.041 56.7479 412.068 56.9808L410.715 57.7332C410.813 58.3782 410.984 59.0052 411.217 59.6054L412.758 59.5786" stroke="#002E47" stroke-width="0.75" stroke-miterlimit="10" stroke-linecap="round" stroke-linejoin="round"/>
<path d="M419.126 48.5245L418.373 47.1809C417.728 47.2794 417.101 47.4496 416.501 47.6825L416.528 49.2233C416.107 49.4203 415.713 49.6532 415.336 49.913L414.019 49.1247C413.517 49.5278 413.061 49.9936 412.648 50.4953L413.437 51.8121C413.177 52.1883 412.944 52.5825 412.747 53.0035" stroke="#002E47" stroke-width="0.75" stroke-miterlimit="10" stroke-linecap="round" stroke-linejoin="round"/>
<path d="M177.125 60.7341C183.244 60.7341 191.792 60.7341 197.785 60.7341" stroke="#002E47" stroke-width="0.75" stroke-miterlimit="10" stroke-linecap="round" stroke-linejoin="round"/>
<path d="M173.367 60.7341C173.932 60.7341 174.55 60.7341 175.213 60.7341" stroke="#002E47" stroke-width="0.75" stroke-miterlimit="10" stroke-linecap="round" stroke-linejoin="round"/>
<path d="M170.425 29.5071C161.797 29.5071 154.809 36.4942 154.809 45.1206C154.809 53.747 161.797 60.7341 170.425 60.7341" stroke="#002E47" stroke-width="0.75" stroke-miterlimit="10" stroke-linecap="round" stroke-linejoin="round"/>
<path d="M189.471 16.2316C181.497 16.2316 174.93 22.2065 173.98 29.9281" stroke="#002E47" stroke-width="0.75" stroke-miterlimit="10" stroke-linecap="round" stroke-linejoin="round"/>
<path d="M204.163 60.7341C211.787 60.7341 217.969 54.5532 217.969 46.9301C217.969 39.5936 212.235 33.6098 205.014 33.1619C205.05 32.7319 205.077 32.293 205.077 31.8451C205.077 24.5355 200.06 18.4083 193.277 16.6973" stroke="#002E47" stroke-width="0.75" stroke-miterlimit="10" stroke-linecap="round" stroke-linejoin="round"/>
<path d="M151.694 88.7812C152.205 88.0645 152.644 87.2942 153.02 86.488L155.986 86.5327C156.425 85.3861 156.757 84.1858 156.954 82.9317L154.355 81.4895C154.391 81.0505 154.418 80.6116 154.418 80.1637C154.418 79.7158 154.391 79.2769 154.355 78.838L156.954 77.3957C156.757 76.1506 156.434 74.9413 155.986 73.7947L153.02 73.8395C152.644 73.0333 152.196 72.2719 151.694 71.5463L153.218 69.0022C152.438 68.0348 151.551 67.148 150.584 66.3686L148.039 67.8915C147.322 67.3809 146.552 66.9419 145.745 66.5657L145.79 63.6007C144.643 63.1617 143.443 62.8303 142.189 62.6332L140.746 65.231" stroke="#002E47" stroke-width="0.75" stroke-miterlimit="10" stroke-linecap="round" stroke-linejoin="round"/>
<path d="M126.404 87.5539C126.646 87.975 126.906 88.387 127.183 88.7812L125.66 91.3252C126.44 92.2926 127.327 93.1795 128.294 93.9588L130.839 92.436C131.555 92.9466 132.326 93.3855 133.132 93.7617L133.088 96.7268C134.234 97.1657 135.435 97.4971 136.689 97.6942L138.132 95.0964C138.571 95.1323 139.01 95.1591 139.458 95.1591C139.906 95.1591 140.345 95.1323 140.784 95.0964L142.226 97.6942C143.471 97.4971 144.681 97.1747 145.828 96.7268L145.783 93.7617C146.589 93.3855 147.351 92.9376 148.077 92.436L150.621 93.9588C151.589 93.1795 152.476 92.2926 153.255 91.3252" stroke="#002E47" stroke-width="0.75" stroke-miterlimit="10" stroke-linecap="round" stroke-linejoin="round"/>
<path d="M124.066 73.8395L122.901 73.8216C122.462 74.9682 122.131 76.1685 121.934 77.4226L124.532 78.8648C124.496 79.3038 124.469 79.7427 124.469 80.1906C124.469 80.6385 124.496 81.0774 124.532 81.5164L121.934 82.9586C122.131 84.2037 122.453 85.413 122.901 86.5596L125.867 86.5148" stroke="#002E47" stroke-width="0.75" stroke-miterlimit="10" stroke-linecap="round" stroke-linejoin="round"/>
<path d="M138.112 65.2668L136.67 62.6691C135.424 62.8661 134.224 63.1886 133.068 63.6365L133.113 66.6016C132.306 66.9778 131.545 67.4257 130.819 67.9273L128.275 66.4045C127.307 67.1838 126.42 68.0706 125.641 69.0381L127.164 71.5821C126.653 72.2987 126.214 73.0691 125.838 73.8753" stroke="#002E47" stroke-width="0.75" stroke-miterlimit="10" stroke-linecap="round" stroke-linejoin="round"/>
<path d="M137.494 89.6322C133.095 88.7364 129.789 84.8397 129.789 80.1727C129.789 74.8428 134.107 70.5251 139.438 70.5251" stroke="#002E47" stroke-width="0.75" stroke-miterlimit="10" stroke-linecap="round" stroke-linejoin="round"/>
<path d="M148.827 82.439C147.806 86.6761 143.989 89.8292 139.438 89.8292" stroke="#002E47" stroke-width="0.75" stroke-miterlimit="10" stroke-linecap="round" stroke-linejoin="round"/>
<path d="M149.061 81.0237C149.043 81.2566 149.016 81.4805 148.98 81.7045" stroke="#002E47" stroke-width="0.75" stroke-miterlimit="10" stroke-linecap="round" stroke-linejoin="round"/>
<path d="M142.965 71.188C146.558 72.5944 149.093 76.0879 149.093 80.1727" stroke="#002E47" stroke-width="0.75" stroke-miterlimit="10" stroke-linecap="round" stroke-linejoin="round"/>
<path d="M114.778 79.3485C115.155 78.8111 115.495 78.2288 115.773 77.6286L117.995 77.6645C118.326 76.8045 118.577 75.8998 118.72 74.9592L116.767 73.8753C116.794 73.5439 116.812 73.2124 116.812 72.881C116.812 72.5495 116.794 72.2181 116.767 71.8867L118.72 70.8028C118.577 69.8622 118.326 68.9574 117.995 68.0975L115.773 68.1333C115.495 67.5242 115.155 66.9509 114.778 66.4134L115.925 64.5054C115.334 63.7798 114.671 63.1169 113.945 62.5257L112.037 63.6723C111.499 63.2961 110.917 62.9557 110.316 62.678L110.352 60.4564C109.492 60.125 108.587 59.8742 107.647 59.7309L106.562 61.6837" stroke="#002E47" stroke-width="0.75" stroke-miterlimit="10" stroke-linecap="round" stroke-linejoin="round"/>
<path d="M95.7793 78.4259C95.9585 78.7394 96.1556 79.0529 96.3616 79.3485L95.2148 81.2566C95.8062 81.9821 96.4692 82.645 97.1949 83.2362L99.1032 82.0896C99.6408 82.4659 100.223 82.8063 100.823 83.084L100.788 85.3055C101.648 85.6369 102.553 85.8878 103.493 86.0311L104.577 84.0783C104.909 84.1052 105.24 84.1231 105.572 84.1231C105.903 84.1231 106.235 84.1052 106.566 84.0783L107.65 86.0311C108.591 85.8878 109.496 85.6369 110.356 85.3055L110.32 83.084C110.93 82.8063 111.503 82.4659 112.041 82.0896L113.949 83.2362C114.675 82.645 115.338 81.9821 115.929 81.2566" stroke="#002E47" stroke-width="0.75" stroke-miterlimit="10" stroke-linecap="round" stroke-linejoin="round"/>
<path d="M94.01 68.1154L93.132 68.0975C92.8005 68.9574 92.5496 69.8622 92.4062 70.8028L94.3594 71.8867C94.3325 72.2181 94.3146 72.5495 94.3146 72.881C94.3146 73.2124 94.3325 73.5439 94.3594 73.8753L92.4062 74.9592C92.5496 75.8998 92.8005 76.8045 93.132 77.6645L95.3539 77.6286" stroke="#002E47" stroke-width="0.75" stroke-miterlimit="10" stroke-linecap="round" stroke-linejoin="round"/>
<path d="M104.577 61.6747L103.493 59.7219C102.553 59.8652 101.657 60.1161 100.788 60.4475L100.823 62.669C100.214 62.9467 99.6408 63.2871 99.1032 63.6634L97.1949 62.5168C96.4692 63.108 95.8062 63.7709 95.2148 64.4964L96.3616 66.4045C95.9854 66.9419 95.6449 67.5242 95.3672 68.1244" stroke="#002E47" stroke-width="0.75" stroke-miterlimit="10" stroke-linecap="round" stroke-linejoin="round"/>
<path d="M104.572 77.7361C102.314 77.2703 100.621 75.2817 100.621 72.8899C100.621 70.1578 102.834 67.9452 105.567 67.9452" stroke="#002E47" stroke-width="0.75" stroke-miterlimit="10" stroke-linecap="round" stroke-linejoin="round"/>
<path d="M110.378 74.0455C109.858 76.2223 107.896 77.8347 105.566 77.8347" stroke="#002E47" stroke-width="0.75" stroke-miterlimit="10" stroke-linecap="round" stroke-linejoin="round"/>
<path d="M107.379 68.2767C109.216 69.0023 110.524 70.7938 110.524 72.89" stroke="#002E47" stroke-width="0.75" stroke-miterlimit="10" stroke-linecap="round" stroke-linejoin="round"/>
<path d="M270.445 351.757C270.445 351.757 241.085 334.79 245.001 330.061C248.916 325.34 262.373 338.544 262.373 338.544C262.373 338.544 236.435 306.009 241.085 302.704C245.735 299.398 258.941 320.924 258.941 320.924C258.941 320.924 243.039 285.048 249.158 284.026C255.277 283.005 265.061 315.056 265.061 315.056C265.061 315.056 260.904 292.303 265.061 291.82C269.218 291.327 272.157 327.857 272.157 327.857C272.157 327.857 271.951 310.667 275.597 310.783C279.252 310.9 280.722 349.311 270.445 351.757Z" fill="#39B4EF"/>
<path opacity="0.4" d="M270.445 351.757C270.445 351.757 241.085 334.79 245.001 330.061C248.916 325.34 262.373 338.544 262.373 338.544C262.373 338.544 236.435 306.009 241.085 302.704C245.735 299.398 258.941 320.924 258.941 320.924C258.941 320.924 243.039 285.048 249.158 284.026C255.277 283.005 265.061 315.056 265.061 315.056C265.061 315.056 260.904 292.303 265.061 291.82C269.218 291.327 272.157 327.857 272.157 327.857C272.157 327.857 271.951 310.667 275.597 310.783C279.252 310.9 280.722 349.311 270.445 351.757Z" fill="white"/>
<path d="M275.041 350.323C275.041 350.323 298.291 336.887 295.191 333.142C292.091 329.398 281.429 339.861 281.429 339.861C281.429 339.861 301.973 314.098 298.291 311.482C294.608 308.867 284.144 325.913 284.144 325.913C284.144 325.913 296.741 297.499 291.894 296.693C287.047 295.887 279.297 321.264 279.297 321.264C279.297 321.264 282.594 303.25 279.297 302.856C276 302.471 273.679 331.404 273.679 331.404C273.679 331.404 273.84 317.789 270.946 317.878C268.071 317.977 266.906 348.389 275.041 350.323Z" fill="#39B4EF"/>
<path opacity="0.2" d="M275.041 350.323C275.041 350.323 298.291 336.887 295.191 333.142C292.091 329.398 281.429 339.861 281.429 339.861C281.429 339.861 301.973 314.098 298.291 311.482C294.608 308.867 284.144 325.913 284.144 325.913C284.144 325.913 296.741 297.499 291.894 296.693C287.047 295.887 279.297 321.264 279.297 321.264C279.297 321.264 282.594 303.25 279.297 302.856C276 302.471 273.679 331.404 273.679 331.404C273.679 331.404 273.84 317.789 270.946 317.878C268.071 317.977 266.906 348.389 275.041 350.323Z" fill="#002E47"/>
<path d="M249.977 345.755V347.555C249.977 349.141 251.034 350.458 252.467 350.897L255.119 379.105C255.469 382.822 258.587 385.662 262.323 385.662H281.98C285.716 385.662 288.833 382.822 289.183 379.105L291.835 350.897C293.277 350.458 294.326 349.141 294.326 347.555V345.755H249.977Z" fill="#002E47"/>
<path d="M252.91 355.635C253.797 355.761 254.72 355.492 255.401 354.82L257.712 352.491C258.85 351.363 260.678 351.363 261.816 352.491L264.127 354.82C265.265 355.949 267.102 355.949 268.231 354.82L270.56 352.491C271.689 351.363 273.526 351.363 274.655 352.491L276.984 354.82C278.113 355.949 279.95 355.949 281.079 354.82L283.408 352.491C284.537 351.363 286.373 351.363 287.511 352.491L289.823 354.82C290.28 355.277 290.826 355.537 291.4 355.626" stroke="#E2EDFF" stroke-width="0.75" stroke-linecap="round" stroke-linejoin="round"/>
<path d="M349.091 275.212H178.478C173.648 275.212 169.742 271.297 169.742 266.478V95.8937C169.742 91.0654 173.657 87.1598 178.478 87.1598H349.091C353.921 87.1598 357.827 91.0744 357.827 95.8937V266.478C357.836 271.297 353.921 275.212 349.091 275.212Z" fill="#002E47"/>
<mask id="mask0_222_24392" style="mask-type:luminance" maskUnits="userSpaceOnUse" x="169" y="87" width="189" height="189">
<path d="M349.091 275.212H178.478C173.648 275.212 169.742 271.297 169.742 266.478V95.8937C169.742 91.0654 173.657 87.1598 178.478 87.1598H349.091C353.921 87.1598 357.827 91.0744 357.827 95.8937V266.478C357.836 271.297 353.921 275.212 349.091 275.212Z" fill="white"/>
</mask>
<g mask="url(#mask0_222_24392)">
<path opacity="0.8" d="M349.091 275.212H178.478C173.648 275.212 169.742 271.297 169.742 266.478V95.8937C169.742 91.0654 173.657 87.1598 178.478 87.1598H349.091C353.921 87.1598 357.827 91.0744 357.827 95.8937V266.478C357.836 271.297 353.921 275.212 349.091 275.212Z" fill="white"/>
</g>
<path d="M349.091 275.212H178.478C173.648 275.212 169.742 271.297 169.742 266.478V95.8937C169.742 91.0654 173.657 87.1598 178.478 87.1598H349.091C353.921 87.1598 357.827 91.0744 357.827 95.8937V266.478C357.836 271.297 353.921 275.212 349.091 275.212Z" stroke="#002E47" stroke-width="0.75" stroke-miterlimit="10" stroke-linecap="round" stroke-linejoin="round"/>
<path d="M344.387 270.509H183.181C178.352 270.509 174.445 266.594 174.445 261.775V118.485C174.445 113.657 178.361 109.752 183.181 109.752H344.387C349.216 109.752 353.123 113.666 353.123 118.485V261.775C353.132 266.594 349.216 270.509 344.387 270.509Z" fill="#002E47"/>
<path d="M344.387 270.509H183.181C178.352 270.509 174.445 266.594 174.445 261.775V118.485C174.445 113.657 178.361 109.752 183.181 109.752H344.387C349.216 109.752 353.123 113.666 353.123 118.485V261.775C353.132 266.594 349.216 270.509 344.387 270.509Z" stroke="#002E47" stroke-width="0.75" stroke-miterlimit="10" stroke-linecap="round" stroke-linejoin="round"/>
<path d="M344.642 104.69H351.263C352.293 104.69 353.136 103.857 353.136 102.818V96.1983C353.136 95.1681 352.302 94.3261 351.263 94.3261H344.642C343.612 94.3261 342.77 95.1592 342.77 96.1983V102.818C342.77 103.848 343.612 104.69 344.642 104.69Z" fill="#39B4EF"/>
<mask id="mask1_222_24392" style="mask-type:luminance" maskUnits="userSpaceOnUse" x="342" y="94" width="12" height="11">
<path d="M344.642 104.69H351.263C352.293 104.69 353.136 103.857 353.136 102.818V96.1983C353.136 95.1681 352.302 94.3261 351.263 94.3261H344.642C343.612 94.3261 342.77 95.1592 342.77 96.1983V102.818C342.77 103.848 343.612 104.69 344.642 104.69Z" fill="white"/>
</mask>
<g mask="url(#mask1_222_24392)">
<path opacity="0.3" d="M344.642 104.69H351.263C352.293 104.69 353.136 103.857 353.136 102.818V96.1983C353.136 95.1681 352.302 94.3261 351.263 94.3261H344.642C343.612 94.3261 342.77 95.1592 342.77 96.1983V102.818C342.77 103.848 343.612 104.69 344.642 104.69Z" fill="#002E47"/>
</g>
<path d="M344.642 104.69H351.263C352.293 104.69 353.136 103.857 353.136 102.818V96.1983C353.136 95.1681 352.302 94.3261 351.263 94.3261H344.642C343.612 94.3261 342.77 95.1592 342.77 96.1983V102.818C342.77 103.848 343.612 104.69 344.642 104.69Z" stroke="#002E47" stroke-width="0.75" stroke-miterlimit="10" stroke-linecap="round" stroke-linejoin="round"/>
<path d="M331.873 104.69H338.494C339.524 104.69 340.366 103.857 340.366 102.818V96.1983C340.366 95.1681 339.533 94.3261 338.494 94.3261H331.873C330.842 94.3261 330 95.1592 330 96.1983V102.818C330.009 103.848 330.842 104.69 331.873 104.69Z" fill="#39B4EF" stroke="#002E47" stroke-width="0.75" stroke-miterlimit="10" stroke-linecap="round" stroke-linejoin="round"/>
<path d="M319.103 104.69H325.724C326.754 104.69 327.596 103.857 327.596 102.818V96.1983C327.596 95.1681 326.763 94.3261 325.724 94.3261H319.103C318.073 94.3261 317.23 95.1592 317.23 96.1983V102.818C317.239 103.848 318.073 104.69 319.103 104.69Z" fill="#39B4EF"/>
<mask id="mask2_222_24392" style="mask-type:luminance" maskUnits="userSpaceOnUse" x="317" y="94" width="11" height="11">
<path d="M319.103 104.69H325.724C326.754 104.69 327.596 103.857 327.596 102.818V96.1983C327.596 95.1681 326.763 94.3261 325.724 94.3261H319.103C318.073 94.3261 317.23 95.1592 317.23 96.1983V102.818C317.239 103.848 318.073 104.69 319.103 104.69Z" fill="white"/>
</mask>
<g mask="url(#mask2_222_24392)">
<path opacity="0.7" d="M319.103 104.69H325.724C326.754 104.69 327.596 103.857 327.596 102.818V96.1983C327.596 95.1681 326.763 94.3261 325.724 94.3261H319.103C318.073 94.3261 317.23 95.1592 317.23 96.1983V102.818C317.239 103.848 318.073 104.69 319.103 104.69Z" fill="white"/>
</g>
<path d="M319.103 104.69H325.724C326.754 104.69 327.596 103.857 327.596 102.818V96.1983C327.596 95.1681 326.763 94.3261 325.724 94.3261H319.103C318.073 94.3261 317.23 95.1592 317.23 96.1983V102.818C317.239 103.848 318.073 104.69 319.103 104.69Z" stroke="#002E47" stroke-width="0.75" stroke-miterlimit="10" stroke-linecap="round" stroke-linejoin="round"/>
<path d="M407.81 328.986C407.81 328.986 409.306 338.831 408.947 342.1C407.756 353.091 402.129 363.993 399.746 385.349H491.293C491.293 385.349 492.126 346.4 488.525 328.977H407.81V328.986Z" fill="#E2EDFF" stroke="#002E47" stroke-miterlimit="10" stroke-linecap="round" stroke-linejoin="round"/>
<path d="M407.286 334.585C407.286 334.585 405.037 296.281 400.611 259.41C397.959 237.293 393.515 215.373 392.494 198.999C391.168 177.58 417.32 183.528 440.095 182.579C462.87 181.629 484.991 178.673 486.576 198.587C488.153 218.5 490.33 333.321 490.33 333.321C490.33 333.321 447.173 344.895 407.286 334.585Z" fill="#39B4EF"/>
<mask id="mask3_222_24392" style="mask-type:luminance" maskUnits="userSpaceOnUse" x="392" y="181" width="99" height="158">
<path d="M407.286 334.585C407.286 334.585 405.037 296.281 400.611 259.41C397.959 237.293 393.515 215.373 392.494 198.999C391.168 177.58 417.32 183.528 440.095 182.579C462.87 181.629 484.991 178.673 486.576 198.587C488.153 218.5 490.33 333.321 490.33 333.321C490.33 333.321 447.173 344.895 407.286 334.585Z" fill="white"/>
</mask>
<g mask="url(#mask3_222_24392)">
<g opacity="0.2">
<path d="M400.305 211.575C394.965 224.125 386.104 235.143 374.994 243.062L377.127 247.953C374.654 250.031 370.12 248.123 369.888 244.908L367.316 258.102L359.109 257.843C363.123 261.918 370.174 261.3 374.905 258.085C379.635 254.869 382.628 249.736 385.575 244.836C388.523 239.936 391.802 234.902 396.811 232.143C402.831 260.423 408.861 288.694 414.882 316.973C415.858 321.533 416.889 326.254 419.63 330.025C425.319 337.863 436.312 339.278 445.989 339.198C460.333 339.063 474.659 337.111 488.51 333.393L487.444 229.312L515.039 263.629C510.55 269.837 506.052 276.045 501.564 282.244C507.235 273.698 517.09 268.081 527.34 267.562C525.682 265.869 523.093 265.152 520.809 265.752L529.338 263.02L522.672 262.438C523.909 260.431 525.154 258.425 526.39 256.409C525.521 258.129 523.156 258.613 521.328 257.986C519.501 257.359 518.094 255.917 516.768 254.519C510.684 248.15 504.538 241.692 500.193 234.033C495.848 226.374 493.42 217.264 495.364 208.673L492.264 216.413L487.524 203.191C488.474 207.374 487.005 212.014 483.806 214.872C482.543 216.01 480.984 216.932 480.321 218.518C480.025 219.216 480.007 220.014 480.151 220.766C492.049 284.394 453.362 284.734 439.798 281.241C427.649 278.105 416.512 262.787 416.046 250.408C415.993 248.849 417.695 247.837 419.057 248.589C441.912 261.211 461.515 264.436 454.715 259.213C442.62 256.624 410.384 243.412 405.008 214.621C404.605 212.453 402.464 211.056 400.305 211.575Z" fill="#002E47"/>
</g>
</g>
<path d="M407.286 334.585C407.286 334.585 405.037 296.281 400.611 259.41C397.959 237.293 393.515 215.373 392.494 198.999C391.168 177.58 417.32 183.528 440.095 182.579C462.87 181.629 484.991 178.673 486.576 198.587C488.153 218.5 490.33 333.321 490.33 333.321C490.33 333.321 447.173 344.895 407.286 334.585Z" stroke="#002E47" stroke-width="0.75" stroke-miterlimit="10" stroke-linecap="round" stroke-linejoin="round"/>
<path d="M444.513 385.358C444.513 385.358 442.631 380.771 441.547 379.32C435.947 371.885 436.646 365.543 434.595 358.6C433.967 356.477 429.676 351.228 429.676 351.228" stroke="#002E47" stroke-width="0.75" stroke-miterlimit="10" stroke-linecap="round" stroke-linejoin="round"/>
<path d="M500.262 290.27L493.605 298.171L495.657 312.02L505.799 301.351L500.262 290.27Z" fill="white" stroke="#002E47" stroke-width="0.75" stroke-miterlimit="10" stroke-linecap="round" stroke-linejoin="round"/>
<path d="M494.821 298.744C494.543 297.4 494.391 293.97 493.092 293.522C490.708 292.698 486.121 297.033 484.67 299.094C483.989 300.061 482.519 302.139 482.537 303.331C482.546 303.94 483.075 305.382 483.675 305.472C484.715 305.633 485.906 303.223 486.713 302.542C487.725 301.691 491.506 299.801 491.506 299.801C491.506 299.801 488.684 303.895 487.537 304.844C485.826 306.251 478.685 310.219 483.218 312.584C483.218 312.584 481.471 315.146 484.204 315.827C486.945 316.508 491.3 312.718 491.3 312.718C491.3 312.718 490.52 313.946 488.522 315.719C486.793 317.269 484.222 316.929 484.831 318.021C485.772 319.714 488.101 319.876 490.583 319.034C493.065 318.201 494.74 317.233 496.514 314.295C498.745 310.586 495.618 302.578 494.821 298.744Z" fill="white" stroke="#002E47" stroke-width="0.75" stroke-miterlimit="10" stroke-linecap="round" stroke-linejoin="round"/>
<path d="M485.082 312.02C485.082 312.02 488.8 310.147 490.717 308.714C492.635 307.281 493.611 305.31 493.611 305.31" stroke="#002E47" stroke-width="0.75" stroke-miterlimit="10" stroke-linecap="round" stroke-linejoin="round"/>
<path d="M465.074 181.925C465.074 181.925 487.258 183.242 487.132 190.059C487.132 190.059 498.242 194.788 498.833 200.127C499.425 205.466 546.282 255.657 538.156 270.231C531.069 282.952 502.444 306.618 502.444 306.618C502.444 306.618 499.711 300.473 496.62 293.298C496.62 293.298 509.181 265.914 514.915 263.101L484.776 224.824" fill="#39B4EF"/>
<mask id="mask4_222_24392" style="mask-type:luminance" maskUnits="userSpaceOnUse" x="465" y="181" width="75" height="126">
<path d="M465.074 181.925C465.074 181.925 487.258 183.242 487.132 190.059C487.132 190.059 498.242 194.788 498.833 200.127C499.425 205.466 546.282 255.657 538.156 270.231C531.069 282.952 502.444 306.618 502.444 306.618C502.444 306.618 499.711 300.473 496.62 293.298C496.62 293.298 509.181 265.914 514.915 263.101L484.776 224.824" fill="white"/>
</mask>
<g mask="url(#mask4_222_24392)">
<g opacity="0.2">
<path d="M400.754 211.423C395.414 223.973 386.553 234.991 375.444 242.91C376.151 244.54 376.868 246.171 377.576 247.801C375.103 249.879 370.57 247.971 370.337 244.755C369.477 249.154 368.626 253.552 367.765 257.95C365.033 257.861 362.291 257.78 359.559 257.69C363.572 261.766 370.623 261.148 375.354 257.932C380.085 254.716 383.077 249.584 386.025 244.684C388.972 239.784 392.251 234.749 397.26 231.99C403.28 260.27 409.31 288.541 415.331 316.821C416.307 321.381 417.338 326.101 420.079 329.873C425.769 337.711 436.762 339.126 446.438 339.046C460.782 338.911 475.108 336.958 488.959 333.241C488.601 298.547 488.242 263.853 487.893 229.16C497.094 240.599 506.287 252.038 515.488 263.477C510.999 269.685 506.502 275.893 502.013 282.092C507.684 273.546 517.54 267.929 527.789 267.41C526.132 265.717 523.542 265 521.258 265.6C524.098 264.686 526.938 263.782 529.787 262.868C527.565 262.671 525.343 262.483 523.121 262.286C524.358 260.279 525.603 258.273 526.839 256.257C525.97 257.977 523.605 258.461 521.777 257.834C519.95 257.207 518.543 255.764 517.217 254.367C511.134 247.998 504.988 241.539 500.642 233.88C496.297 226.221 493.869 217.111 495.813 208.521C494.783 211.101 493.743 213.68 492.713 216.26C491.136 211.853 489.55 207.446 487.974 203.039C488.923 207.222 487.454 211.862 484.255 214.72C483.037 215.812 481.559 216.708 480.851 218.177C479.901 220.157 480.663 222.486 481.29 224.591C485.223 237.723 483.36 252.79 475.126 263.746C466.892 274.701 452.064 280.748 438.796 277.326C425.518 273.904 415.188 260.423 416.612 246.789C430.777 251.966 445.712 255.048 460.773 255.89C448.122 253.185 435.391 249.53 424.729 242.202C414.068 234.884 405.655 223.319 404.893 210.411L400.754 211.423Z" fill="#002E47"/>
</g>
</g>
<path d="M465.074 181.925C465.074 181.925 487.258 183.242 487.132 190.059C487.132 190.059 498.242 194.788 498.833 200.127C499.425 205.466 546.282 255.657 538.156 270.231C531.069 282.952 502.444 306.618 502.444 306.618C502.444 306.618 499.711 300.473 496.62 293.298C496.62 293.298 509.181 265.914 514.915 263.101L484.776 224.824" stroke="#002E47" stroke-width="0.75" stroke-miterlimit="10" stroke-linecap="round" stroke-linejoin="round"/>
<path d="M530.119 262.044C525.182 258.568 518.176 262.223 518.176 259.939C518.176 257.655 526.607 257.448 525.899 255.093" stroke="#002E47" stroke-width="0.75" stroke-miterlimit="10" stroke-linecap="round" stroke-linejoin="round"/>
<path d="M491.43 214.729C492.666 211.369 493.741 206.864 493.768 201.301" stroke="#002E47" stroke-width="0.75" stroke-miterlimit="10" stroke-linecap="round" stroke-linejoin="round"/>
<path d="M487.828 198.363C488.088 203.567 488.357 210.966 488.115 216.619C488.061 217.944 489.862 218.383 490.417 217.174" stroke="#002E47" stroke-width="0.75" stroke-miterlimit="10" stroke-linecap="round" stroke-linejoin="round"/>
<path d="M487.441 191.994C487.441 191.994 487.522 193.104 487.63 194.923" stroke="#002E47" stroke-width="0.75" stroke-miterlimit="10" stroke-linecap="round" stroke-linejoin="round"/>
<path d="M386.21 206.917C386.21 206.917 384.893 216.135 386.21 222.719" stroke="#002E47" stroke-width="0.75" stroke-miterlimit="10" stroke-linecap="round" stroke-linejoin="round"/>
<path d="M347.452 197.7L342.372 183.08C342.372 183.08 340.795 173.075 339.478 171.095C338.161 169.124 334.738 166.356 334.738 166.356C334.738 166.356 332.275 162.934 330.545 161.483C328.816 160.032 318.674 154.765 317.886 155.159C317.097 155.553 315.843 157.927 322.428 161.609C322.428 161.609 318.809 161.349 315.906 162.531C313.012 163.714 311.032 164.045 312.286 165.299C313.54 166.553 314.589 167.144 319.266 165.89C319.266 165.89 322.554 166.285 325.188 166.087L326.639 167.798C326.639 167.798 324.399 166.813 323.082 168.918C321.765 171.023 320.251 173.657 320.905 175.171C320.905 175.171 315.834 172.537 314.454 174.714C313.075 176.891 317.348 178.861 319.059 180.178C320.771 181.495 324.919 185.051 324.919 185.051C324.919 185.051 327.884 191.698 334.075 194.134C334.075 194.134 336.477 196.902 335.787 199.464L347.452 197.7Z" fill="white" stroke="#002E47" stroke-width="0.75" stroke-miterlimit="10" stroke-linecap="round" stroke-linejoin="round"/>
<path d="M325.641 163.4L327.809 165.174L330.246 169.393L331.894 174.92" stroke="#002E47" stroke-width="0.75" stroke-miterlimit="10" stroke-linecap="round" stroke-linejoin="round"/>
<path d="M333.29 174.92C333.29 174.92 329.841 179.067 327.386 179.659C327.386 179.659 324.796 178.539 324.277 178.082C323.838 177.697 323.175 176.953 321.84 175.887" stroke="#002E47" stroke-width="0.75" stroke-miterlimit="10" stroke-linecap="round" stroke-linejoin="round"/>
<path d="M329.461 174.588L329.147 173.469C329.147 173.469 327.427 173.863 326.038 173.469L325.25 174.588C325.25 174.588 327.024 174.266 329.461 174.588Z" stroke="#002E47" stroke-width="0.75" stroke-miterlimit="10" stroke-linecap="round" stroke-linejoin="round"/>
<path d="M325.977 169.912C325.977 169.912 326.568 171.014 326.433 172.743" stroke="#002E47" stroke-width="0.75" stroke-miterlimit="10" stroke-linecap="round" stroke-linejoin="round"/>
<path d="M323.934 173.469C323.934 173.469 326.586 175.511 326.218 179.13" stroke="#002E47" stroke-width="0.75" stroke-miterlimit="10" stroke-linecap="round" stroke-linejoin="round"/>
<path d="M328.02 168.864L329.462 170.441V172.224" stroke="#002E47" stroke-width="0.75" stroke-miterlimit="10" stroke-linecap="round" stroke-linejoin="round"/>
<path d="M402.093 184.263C402.093 184.263 393.698 183.905 388.34 199.007C388.34 199.007 382.015 202.698 369.14 230.79C369.14 230.79 366.927 227.825 362.17 219.7C358.013 212.605 351.679 203.442 346.437 190.032C346.437 190.032 342.226 195.218 333.195 194.923C333.195 194.923 352.763 260.987 366.453 260.987C381.558 260.987 398.187 225.872 398.187 225.872" fill="#39B4EF"/>
<mask id="mask5_222_24392" style="mask-type:luminance" maskUnits="userSpaceOnUse" x="333" y="184" width="70" height="77">
<path d="M402.093 184.263C402.093 184.263 393.698 183.905 388.34 199.007C388.34 199.007 382.015 202.698 369.14 230.79C369.14 230.79 366.927 227.825 362.17 219.7C358.013 212.605 351.679 203.442 346.437 190.032C346.437 190.032 342.226 195.218 333.195 194.923C333.195 194.923 352.763 260.987 366.453 260.987C381.558 260.987 398.187 225.872 398.187 225.872" fill="white"/>
</mask>
<g mask="url(#mask5_222_24392)">
<g opacity="0.2">
<path d="M400.754 211.423C395.414 223.973 386.553 234.991 375.444 242.91C376.151 244.54 376.868 246.171 377.576 247.801C375.103 249.879 370.57 247.971 370.337 244.755C369.477 249.154 368.626 253.552 367.765 257.95C365.033 257.861 362.291 257.78 359.559 257.69C363.572 261.766 370.623 261.148 375.354 257.932C380.085 254.716 383.077 249.583 386.025 244.684C388.972 239.784 392.251 234.749 397.26 231.99C403.28 260.27 409.31 288.541 415.331 316.821C416.307 321.381 417.338 326.101 420.079 329.873C425.769 337.711 436.762 339.126 446.438 339.045C460.782 338.911 475.108 336.958 488.959 333.241C488.601 298.547 488.242 263.853 487.893 229.16C497.094 240.599 506.287 252.038 515.488 263.477C510.999 269.685 506.502 275.893 502.013 282.092C507.684 273.546 517.54 267.929 527.789 267.41C526.132 265.717 523.542 265 521.258 265.6C524.098 264.686 526.938 263.782 529.787 262.868C527.565 262.671 525.343 262.483 523.121 262.286C524.358 260.279 525.603 258.273 526.839 256.257C525.97 257.977 523.605 258.461 521.777 257.834C519.95 257.207 518.543 255.764 517.217 254.367C511.134 247.998 504.988 241.539 500.642 233.88C496.297 226.221 493.869 217.111 495.813 208.521C494.783 211.101 493.743 213.68 492.713 216.26C491.136 211.853 489.55 207.446 487.974 203.039C488.923 207.222 487.454 211.862 484.255 214.72C483.037 215.812 481.559 216.708 480.851 218.177C479.901 220.157 480.663 222.486 481.29 224.591C485.223 237.723 483.36 252.79 475.126 263.746C466.892 274.701 452.064 280.748 438.796 277.326C425.518 273.904 415.188 260.422 416.612 246.789C430.777 251.966 445.712 255.048 460.773 255.89C448.122 253.185 435.391 249.53 424.729 242.202C414.068 234.884 405.655 223.319 404.893 210.411L400.754 211.423Z" fill="#002E47"/>
</g>
</g>
<path d="M402.093 184.263C402.093 184.263 393.698 183.905 388.34 199.007C388.34 199.007 382.015 202.698 369.14 230.79C369.14 230.79 366.927 227.825 362.17 219.7C358.013 212.606 351.679 203.442 346.437 190.032C346.437 190.032 342.226 195.218 333.195 194.923C333.195 194.923 352.763 260.987 366.453 260.987C381.558 260.987 398.187 225.872 398.187 225.872" stroke="#002E47" stroke-width="0.75" stroke-miterlimit="10" stroke-linecap="round" stroke-linejoin="round"/>
<path d="M392.707 202.331C392.618 201.265 392.546 200.154 392.492 199.007" stroke="#002E47" stroke-width="0.75" stroke-miterlimit="10" stroke-linecap="round" stroke-linejoin="round"/>
<path d="M394.169 222.343C396.615 222.074 394.483 217.049 393.184 206.917" stroke="#002E47" stroke-width="0.75" stroke-miterlimit="10" stroke-linecap="round" stroke-linejoin="round"/>
<path d="M387.879 203.576C387.879 203.576 389.922 215.508 392.269 220.345" stroke="#002E47" stroke-width="0.75" stroke-miterlimit="10" stroke-linecap="round" stroke-linejoin="round"/>
<path d="M444.231 158.402C444.231 158.402 446.525 181.217 451.623 183.967C451.623 183.967 450.808 192.683 435.935 192.683C421.063 192.683 421.062 180.393 421.062 180.393L444.231 158.402Z" fill="white"/>
<mask id="mask6_222_24392" style="mask-type:luminance" maskUnits="userSpaceOnUse" x="421" y="158" width="31" height="35">
<path d="M444.231 158.402C444.231 158.402 446.525 181.217 451.623 183.967C451.623 183.967 450.808 192.683 435.935 192.683C421.063 192.683 421.062 180.393 421.062 180.393L444.231 158.402Z" fill="white"/>
</mask>
<g mask="url(#mask6_222_24392)">
<path d="M412.106 133.723C412.106 133.723 409.696 148.091 410.09 151.074C410.485 154.057 409.75 157.183 410.359 162.056C410.968 166.921 414.678 180.483 423.53 182.561C428.144 183.645 438.151 179.148 442.291 169.921C442.568 169.294 444.235 162.209 444.235 162.209C444.235 162.209 448.338 164.986 449.655 160.498C450.972 156.01 453.194 151.907 450.345 149.229C447.37 146.434 443.643 152.355 443.115 154.505C442.577 156.655 440.481 154.218 440.481 154.218C440.481 154.218 439.164 144.338 436.082 141.713C433 139.088 438.752 134.009 435.831 130.57C432.901 127.121 419.901 127.891 412.106 133.723Z" fill="#002E47" stroke="#002E47" stroke-width="0.75" stroke-miterlimit="10" stroke-linecap="round" stroke-linejoin="round"/>
</g>
<path d="M444.231 158.402C444.231 158.402 446.525 181.217 451.623 183.967C451.623 183.967 450.808 192.683 435.935 192.683C421.063 192.683 421.062 180.393 421.062 180.393L444.231 158.402Z" stroke="#002E47" stroke-width="0.75" stroke-miterlimit="10" stroke-linecap="round" stroke-linejoin="round"/>
<path d="M408.66 133.956C408.66 133.956 395.131 132.648 398.097 121.728C401.062 110.809 412.369 109.626 412.369 109.626C412.369 109.626 410.084 117.455 423.506 115.915C436.918 114.374 451.405 113.066 451.997 126.592C451.997 126.592 457.22 139.536 448.431 152.113C439.65 164.69 431.578 154.505 431.578 154.505L424.572 139.527L411.661 136.795L408.66 133.956Z" fill="#002E47"/>
<mask id="mask7_222_24392" style="mask-type:luminance" maskUnits="userSpaceOnUse" x="397" y="109" width="57" height="50">
<path d="M408.66 133.956C408.66 133.956 395.131 132.648 398.097 121.728C401.062 110.809 412.369 109.626 412.369 109.626C412.369 109.626 410.084 117.455 423.506 115.915C436.918 114.374 451.405 113.066 451.997 126.592C451.997 126.592 457.22 139.536 448.431 152.113C439.65 164.69 431.578 154.505 431.578 154.505L424.572 139.527L411.661 136.795L408.66 133.956Z" fill="white"/>
</mask>
<g mask="url(#mask7_222_24392)">
<path d="M428.139 126.637C428.139 126.637 444.158 128.491 451.989 126.592C459.819 124.693 461.96 145.941 461.96 145.941L460.061 158.876L438.693 162.558L428.838 153.779L424.797 141.552L428.139 126.637Z" fill="#E2EDFF" stroke="#002E47" stroke-width="0.75" stroke-miterlimit="10"/>
</g>
<path d="M408.66 133.956C408.66 133.956 395.131 132.648 398.097 121.728C401.062 110.809 412.369 109.626 412.369 109.626C412.369 109.626 410.084 117.455 423.506 115.915C436.918 114.374 451.405 113.066 451.997 126.592C451.997 126.592 457.22 139.536 448.431 152.113C439.65 164.69 431.578 154.505 431.578 154.505L424.572 139.527L411.661 136.795L408.66 133.956Z" stroke="#002E47" stroke-width="0.75" stroke-miterlimit="10"/>
<path d="M406.721 132.191C406.721 132.191 403.594 146.658 403.997 149.641C404.391 152.624 403.468 155.777 404.069 160.65C404.669 165.523 406.774 183.761 417.293 182.355C427.65 180.975 441.895 172.501 443.167 164.09C443.266 163.409 443.884 161.411 443.884 161.411C443.884 161.411 448.212 162.755 449.851 158.222C451.482 153.699 454.152 149.533 450.899 146.909C447.504 144.168 443.033 150.187 442.361 152.355C441.689 154.523 439.297 152.122 439.297 152.122C439.297 152.122 437.98 142.242 434.45 139.68C430.911 137.118 437.729 131.904 434.396 128.509C431.063 125.114 415.913 126.18 406.721 132.191Z" fill="white" stroke="#002E47" stroke-width="0.75" stroke-miterlimit="10" stroke-linecap="round" stroke-linejoin="round"/>
<path d="M412.123 149.417C412.123 152.077 407.106 156.727 407.697 159.1C408.019 160.408 411.406 161.035 412.096 162.182C412.365 162.621 412.365 163.275 412.365 163.275" fill="white"/>
<path d="M412.123 149.417C412.123 152.077 407.106 156.727 407.697 159.1C408.019 160.408 411.406 161.035 412.096 162.182C412.365 162.621 412.365 163.275 412.365 163.275" stroke="#002E47" stroke-width="0.75" stroke-miterlimit="10" stroke-linecap="round" stroke-linejoin="round"/>
<path d="M407.326 150.993C407.254 152.033 406.779 152.839 406.26 152.803C405.749 152.767 405.391 151.898 405.462 150.859C405.534 149.82 406.009 149.014 406.528 149.05C407.039 149.085 407.397 149.954 407.326 150.993Z" fill="#002E47"/>
<path d="M419.022 149.291C418.941 150.375 418.448 151.217 417.911 151.182C417.373 151.146 416.997 150.232 417.077 149.148C417.158 148.064 417.651 147.222 418.188 147.258C418.717 147.294 419.093 148.208 419.022 149.291Z" fill="#002E47"/>
<path d="M413.727 144.499C413.727 144.499 418.197 140.889 424.137 144.732" stroke="#002E47" stroke-width="0.75" stroke-miterlimit="10" stroke-linecap="round" stroke-linejoin="round"/>
<path d="M426.456 165.523C426.456 165.523 416.583 174.266 412.363 166.661L426.456 165.523Z" fill="white"/>
<path d="M426.456 165.523C426.456 165.523 416.583 174.266 412.363 166.661" stroke="#002E47" stroke-width="0.75" stroke-miterlimit="10" stroke-linecap="round" stroke-linejoin="round"/>
<path d="M401.766 147.034C401.766 147.034 404.74 142.967 409.766 145.968" stroke="#002E47" stroke-width="0.75" stroke-miterlimit="10" stroke-linecap="round" stroke-linejoin="round"/>
<path d="M410.01 130.211C410.01 130.211 395.406 131.161 402.717 140.28C402.726 140.28 402.565 133.714 410.01 130.211Z" fill="#002E47"/>
<path d="M410.006 150.931C410.006 153.421 408.232 155.446 406.046 155.446C403.86 155.446 402.086 153.43 402.086 150.931C402.086 148.44 403.86 147.375 406.046 147.375C408.232 147.366 410.006 148.432 410.006 150.931Z" stroke="#002E47" stroke-width="0.75" stroke-miterlimit="10" stroke-linecap="round" stroke-linejoin="round"/>
<path d="M423.907 149.22C423.907 151.71 421.694 153.735 418.961 153.735C416.229 153.735 414.016 151.719 414.016 149.22C414.016 146.721 416.229 145.655 418.961 145.655C421.685 145.664 423.907 146.73 423.907 149.22Z" stroke="#002E47" stroke-width="0.75" stroke-miterlimit="10" stroke-linecap="round" stroke-linejoin="round"/>
<path d="M409.711 149.22C409.711 148.136 414.002 147.581 414.002 148.655" stroke="#002E47" stroke-width="0.75" stroke-miterlimit="10" stroke-linecap="round" stroke-linejoin="round"/>
<path d="M423.59 147.464L444.232 149.22" stroke="#002E47" stroke-width="0.75" stroke-miterlimit="10" stroke-linecap="round" stroke-linejoin="round"/>
<path d="M411.77 268.332C420.397 283.623 442.276 315.737 474.602 317.574" stroke="#002E47" stroke-width="0.75" stroke-miterlimit="10" stroke-linecap="round" stroke-linejoin="round"/>
<path d="M407.641 260.36C407.641 260.36 408.268 261.766 409.504 264.149" stroke="#002E47" stroke-width="0.75" stroke-miterlimit="10" stroke-linecap="round" stroke-linejoin="round"/>
<path d="M455.172 181.925C453.748 181.961 452.296 182.015 450.827 182.086C450.03 188.733 442.262 190.668 435.076 190.668C428.07 190.668 424.092 188.831 423.537 182.561C422.067 182.534 420.616 182.516 419.191 182.516C419.765 191.393 425.615 194.896 435.076 194.896C444.735 194.878 454.581 191.232 455.172 181.925Z" fill="#39B4EF" stroke="#002E47" stroke-miterlimit="10"/>
<path d="M368.436 247.738C368.436 247.738 368.033 236.675 369.619 236.147C371.196 235.618 371.196 242.202 375.416 241.942" stroke="#002E47" stroke-width="0.75" stroke-miterlimit="10" stroke-linecap="round" stroke-linejoin="round"/>
<path d="M316.783 173.711L211.546 170.11C209.36 170.038 207.649 168.201 207.729 166.016L208.016 157.685C208.088 155.499 209.924 153.788 212.11 153.869L317.348 157.47C319.534 157.542 321.245 159.378 321.164 161.564L320.878 169.895C320.797 172.08 318.96 173.791 316.783 173.711Z" fill="white" stroke="#002E47" stroke-width="0.75" stroke-miterlimit="10" stroke-linecap="round" stroke-linejoin="round"/>
<path d="M202.355 159.432H199.793" stroke="#002E47" stroke-width="0.75" stroke-miterlimit="10" stroke-linecap="round" stroke-linejoin="round"/>
<path d="M337.702 244.227L334.701 231.247L328.797 209.13L322.579 202.465L314.345 196.24C314.345 196.24 305.242 192.397 304.938 194.376C304.633 196.356 306.309 196.965 306.309 196.965C306.309 196.965 303.719 196.051 303.11 197.655C302.501 199.258 306.694 200.396 309.05 202.456C311.415 204.517 312.867 206.281 312.867 206.281C312.867 206.281 309.561 210.393 309.991 212.632L310.269 213.654C310.269 213.654 303.675 210.07 303.047 212.964C302.42 215.857 306.936 216.448 309.516 219.243C312.096 222.038 314.506 223.812 314.506 223.812C314.506 223.812 317.06 230.261 322.579 232.546L322.919 246.717C322.919 246.726 331.377 248.437 337.702 244.227Z" fill="white" stroke="#002E47" stroke-width="0.75" stroke-miterlimit="10" stroke-linecap="round" stroke-linejoin="round"/>
<path d="M306.988 197.727C306.988 197.727 311.136 200.548 313.179 201.381C313.179 201.381 317.032 205.43 318.42 206.873C319.8 208.315 321.7 212.068 321.7 212.068" fill="white"/>
<path d="M306.988 197.727C306.988 197.727 311.136 200.548 313.179 201.381C313.179 201.381 317.032 205.43 318.42 206.873C319.8 208.315 321.7 212.068 321.7 212.068" stroke="#002E47" stroke-width="0.75" stroke-miterlimit="10" stroke-linecap="round" stroke-linejoin="round"/>
<path d="M313.773 207.177C313.773 207.177 315.601 210.25 316.82 211.683C318.038 213.116 317.904 213.958 317.062 214.944" stroke="#002E47" stroke-width="0.75" stroke-miterlimit="10" stroke-linecap="round" stroke-linejoin="round"/>
<path d="M311.801 214.549C311.801 214.549 312.939 215.347 313.781 216.323C314.623 217.308 316.773 217.998 318.019 217.12C319.264 216.242 322.624 213.86 322.167 212.964" stroke="#002E47" stroke-width="0.75" stroke-miterlimit="10" stroke-linecap="round" stroke-linejoin="round"/>
<path d="M314.346 210.259C314.346 210.259 314.337 211.602 313.477 212.068C312.617 212.543 314.758 211.549 315.627 212.373" stroke="#002E47" stroke-width="0.75" stroke-miterlimit="10" stroke-linecap="round" stroke-linejoin="round"/>
<path d="M394.989 282.513C394.989 282.513 387.517 277.774 376.873 281.626C376.873 281.626 365.701 282.002 349.314 284.734C349.314 284.734 350.524 281.536 346.197 282.262C346.197 282.262 344.584 248.93 339.092 237.687C339.092 237.687 338.438 240.903 319.282 241.701C319.282 241.701 317.921 301.297 324.927 310.04C331.933 318.774 390.68 311.993 390.68 311.993C390.68 311.993 401.144 292.716 394.989 282.513Z" fill="#002E47"/>
<mask id="mask8_222_24392" style="mask-type:luminance" maskUnits="userSpaceOnUse" x="319" y="237" width="78" height="78">
<path d="M394.989 282.513C394.989 282.513 387.517 277.774 376.873 281.626C376.873 281.626 365.701 282.002 349.314 284.734C349.314 284.734 350.524 281.536 346.197 282.262C346.197 282.262 344.584 248.93 339.092 237.687C339.092 237.687 338.438 240.903 319.282 241.701C319.282 241.701 317.921 301.297 324.927 310.04C331.933 318.774 390.68 311.993 390.68 311.993C390.68 311.993 401.144 292.716 394.989 282.513Z" fill="white"/>
</mask>
<g mask="url(#mask8_222_24392)">
<path opacity="0.2" d="M319.17 298.144C319.17 298.144 327.825 311.563 342.769 310.031C357.713 308.499 391.723 294.471 392.951 307.111C394.169 319.759 377.935 317.376 377.935 317.376L338.227 323.495C338.227 323.495 334.061 330.688 321.374 319.759C308.688 308.831 308.688 308.831 308.688 308.831L319.17 298.144Z" fill="#002E47"/>
</g>
<path d="M394.989 282.513C394.989 282.513 387.517 277.774 376.873 281.626C376.873 281.626 365.701 282.002 349.314 284.734C349.314 284.734 350.524 281.536 346.197 282.262C346.197 282.262 344.584 248.93 339.092 237.687C339.092 237.687 338.438 240.903 319.282 241.701C319.282 241.701 317.921 301.297 324.927 310.04C331.933 318.774 390.68 311.993 390.68 311.993C390.68 311.993 401.144 292.716 394.989 282.513Z" stroke="#002E47" stroke-width="0.75" stroke-miterlimit="10" stroke-linecap="round" stroke-linejoin="round"/>
<path d="M332.922 294.418C332.922 294.418 344.605 281.993 346.594 284.725C348.583 287.457 343.431 287.708 340.412 299.631" stroke="#E2EDFF" stroke-width="0.75" stroke-linecap="round" stroke-linejoin="round"/>
<path d="M390.332 385.367C390.332 385.367 392.07 351.578 390.332 325.734C388.594 299.891 375.173 290.7 390.332 282.996C405.491 275.293 455.44 277.281 471.101 284.985C486.753 292.689 476.817 328.215 477.561 343.874C478.304 359.532 481.037 385.367 481.037 385.367H390.332Z" fill="#002E47"/>
<mask id="mask9_222_24392" style="mask-type:luminance" maskUnits="userSpaceOnUse" x="383" y="278" width="99" height="108">
<path d="M390.332 385.367C390.332 385.367 392.07 351.578 390.332 325.734C388.594 299.891 375.173 290.7 390.332 282.996C405.491 275.293 455.44 277.281 471.101 284.985C486.753 292.689 476.817 328.215 477.561 343.874C478.304 359.532 481.037 385.367 481.037 385.367H390.332Z" fill="white"/>
</mask>
<g mask="url(#mask9_222_24392)">
<path opacity="0.2" d="M428.513 333.599C428.513 333.599 418.129 326.397 412.44 335.337C406.751 344.277 437.571 388.887 442.875 389.111C448.179 389.335 473.579 389.111 473.579 389.111L487.26 358.959C487.26 358.959 481.311 295.582 470.049 294.418C458.787 293.253 451.162 317.538 449.505 331.736C447.847 345.934 449.388 351.658 449.388 351.658L428.513 333.599Z" fill="#002E47"/>
</g>
<path d="M390.332 385.367C390.332 385.367 392.07 351.578 390.332 325.734C388.594 299.891 375.173 290.7 390.332 282.996C405.491 275.293 455.44 277.281 471.101 284.985C486.753 292.689 476.817 328.215 477.561 343.874C478.304 359.532 481.037 385.367 481.037 385.367H390.332V385.367Z" stroke="#002E47" stroke-width="0.75" stroke-miterlimit="10" stroke-linecap="round" stroke-linejoin="round"/>
<path d="M421.14 353.396C421.14 354.354 420.361 355.134 419.402 355.134C418.444 355.134 417.664 354.354 417.664 353.396C417.664 352.437 418.444 351.658 419.402 351.658C420.361 351.658 421.14 352.437 421.14 353.396Z" fill="#E2EDFF"/>
<path d="M421.14 373.202C421.14 374.16 420.361 374.94 419.402 374.94C418.444 374.94 417.664 374.16 417.664 373.202C417.664 372.243 418.444 371.464 419.402 371.464C420.361 371.464 421.14 372.243 421.14 373.202Z" fill="#E2EDFF"/>
<path d="M422.218 310.031C425.22 310.031 427.352 316.158 430.201 316.113C433.05 316.069 440.271 296.263 443.425 290.7C446.57 285.137 445.145 278.284 440.415 277.021C435.684 275.758 407.955 277.021 407.955 277.021C407.955 277.021 404.488 281.993 407.14 287.95C409.792 293.916 410.786 313.462 414.594 314.125C418.41 314.797 418.411 310.031 422.218 310.031Z" fill="#E2EDFF" stroke="#002E47" stroke-miterlimit="10" stroke-linecap="round" stroke-linejoin="round"/>
<path d="M326.002 251.312C325.671 252.217 324.676 252.683 323.771 252.351C322.866 252.02 322.4 251.026 322.732 250.121C323.063 249.216 324.058 248.75 324.963 249.082C325.859 249.413 326.325 250.417 326.002 251.312Z" fill="#E2EDFF"/>
<path d="M326.002 259.079C325.671 259.984 324.676 260.449 323.771 260.118C322.866 259.786 322.4 258.792 322.732 257.887C323.063 256.983 324.058 256.517 324.963 256.848C325.859 257.18 326.325 258.174 326.002 259.079Z" fill="#E2EDFF"/>
<path d="M407.148 283.158C407.148 283.158 418.581 308.938 423.222 308.168C427.863 307.406 431.178 296.818 435.81 291.56C440.451 286.302 440.907 281.644 440.594 278.759L439.286 265.6L428.848 264.445L413.94 275.373L407.148 283.158Z" fill="white"/>
<mask id="mask10_222_24392" style="mask-type:luminance" maskUnits="userSpaceOnUse" x="407" y="264" width="34" height="45">
<path d="M407.148 283.158C407.148 283.158 418.581 308.938 423.222 308.168C427.863 307.406 431.178 296.818 435.81 291.56C440.451 286.302 440.907 281.644 440.594 278.759L439.286 265.6L428.848 264.445L413.94 275.373L407.148 283.158Z" fill="white"/>
</mask>
<g mask="url(#mask10_222_24392)">
<path d="M395.449 241.074C395.449 241.074 394.302 256.212 395.126 259.186C395.95 262.16 395.449 265.502 396.748 270.366C398.047 275.23 402.751 293.468 413.233 290.575C423.563 287.717 438.678 275.964 437.8 267.284L437.325 265.564C437.325 265.564 441.912 266.317 442.934 261.488C443.955 256.66 446.087 252.056 442.414 249.843C438.57 247.532 434.879 254.286 434.503 256.58C434.126 258.873 431.358 256.777 431.358 256.777C431.358 256.777 428.634 246.914 424.683 244.809C420.732 242.704 426.923 236.442 423.062 233.468C419.2 230.467 403.951 233.674 395.449 241.074Z" fill="#002E47" stroke="#002E47" stroke-width="0.75" stroke-miterlimit="10" stroke-linecap="round" stroke-linejoin="round"/>
</g>
<path d="M407.148 283.158C407.148 283.158 418.581 308.938 423.222 308.168C427.863 307.406 431.178 296.818 435.81 291.56C440.451 286.302 440.907 281.644 440.594 278.759L439.286 265.6L428.848 264.445L413.94 275.373L407.148 283.158Z" stroke="#002E47" stroke-width="0.75" stroke-miterlimit="10" stroke-linecap="round" stroke-linejoin="round"/>
<path d="M401.948 232.304C401.948 232.304 396.707 246.878 396.707 250.031C396.707 253.185 395.309 256.329 395.264 261.462C395.22 266.594 394.888 285.809 405.989 285.809C416.928 285.809 434.981 278.356 436.478 269.577V267.759C436.478 267.759 440.787 269.748 443.108 265.278C445.428 260.808 448.77 256.857 445.76 253.686C442.615 250.372 437.141 256.006 436.146 258.156C435.152 260.306 433.001 257.493 433.001 257.493C433.001 257.493 433.001 247.057 429.686 243.913C426.371 240.769 434.157 236.29 431.174 232.322C428.181 228.327 412.323 227.332 401.948 232.304Z" fill="white" stroke="#002E47" stroke-width="0.75" stroke-miterlimit="10" stroke-linecap="round" stroke-linejoin="round"/>
<path d="M443.26 257.377C443.26 257.377 449.558 248.544 445.249 238.108C445.249 238.108 441.772 220.551 420.395 218.724C420.395 218.724 425.861 214.585 422.384 212.928C417.116 210.42 407.852 218.894 407.852 218.894C407.852 218.894 412.197 212.328 410.083 212.211C407.969 212.095 393.105 228.837 401.948 234.794C410.791 240.751 423.907 235.618 423.907 235.618L430.34 257.377L431.335 260.136L440.67 260.799L443.26 257.377Z" fill="#002E47" stroke="#002E47" stroke-width="0.75" stroke-miterlimit="10" stroke-linecap="round" stroke-linejoin="round"/>
<path d="M431.207 225.845C437.183 229.312 441.018 235.627 439.459 249.53" stroke="#E2EDFF" stroke-width="0.75" stroke-linecap="round" stroke-linejoin="round"/>
<path d="M413.617 224.582C417.506 224.197 423.258 222.298 428.517 224.519" stroke="#E2EDFF" stroke-width="0.75" stroke-linecap="round" stroke-linejoin="round"/>
<path d="M419.069 215.409C419.069 215.409 407.162 221.205 409.885 223.857" stroke="#E2EDFF" stroke-width="0.75" stroke-linecap="round" stroke-linejoin="round"/>
<path d="M402.918 226.177C405.651 228.327 408.966 226.015 414.762 226.177" stroke="#E2EDFF" stroke-width="0.75" stroke-linecap="round" stroke-linejoin="round"/>
<path d="M406.315 217.228C406.315 217.228 403.385 220.479 402.48 223.194" stroke="#E2EDFF" stroke-width="0.75" stroke-linecap="round" stroke-linejoin="round"/>
<path d="M401.948 232.304C401.948 232.304 396.707 246.878 396.707 250.031C396.707 253.185 395.309 256.329 395.264 261.462C395.22 266.594 394.888 285.809 405.989 285.809C416.928 285.809 434.981 278.356 436.478 269.577V267.759C436.478 267.759 440.787 269.748 443.108 265.278C445.428 260.808 448.77 256.857 445.76 253.686C442.615 250.372 437.141 256.006 436.146 258.156C435.152 260.306 433.001 257.493 433.001 257.493C433.001 257.493 433.001 247.057 429.686 243.913C426.371 240.769 434.157 236.29 431.174 232.322C428.181 228.327 412.323 227.332 401.948 232.304Z" fill="white" stroke="#002E47" stroke-width="0.75" stroke-miterlimit="10" stroke-linecap="round" stroke-linejoin="round"/>
<path d="M407.15 251.187C407.15 251.187 401.067 257.09 401.354 259.634C401.515 261.032 404.928 262.16 405.493 263.441C405.708 263.934 405.493 265.591 405.493 265.591" fill="white"/>
<path d="M407.15 251.187C407.15 251.187 401.067 257.09 401.354 259.634C401.515 261.032 404.928 262.16 405.493 263.441C405.708 263.934 405.493 265.591 405.493 265.591" stroke="#002E47" stroke-width="0.75" stroke-miterlimit="10" stroke-linecap="round" stroke-linejoin="round"/>
<path d="M402.647 251.653C402.262 252.826 401.312 253.57 400.532 253.31C399.753 253.05 399.439 251.895 399.825 250.721C400.21 249.548 401.16 248.804 401.939 249.064C402.719 249.324 403.032 250.479 402.647 251.653Z" fill="#002E47"/>
<path d="M417.666 251.653C417.281 252.826 416.331 253.57 415.552 253.31C414.773 253.05 414.459 251.895 414.844 250.721C415.229 249.548 416.179 248.804 416.959 249.064C417.738 249.324 418.061 250.479 417.666 251.653Z" fill="#002E47"/>
<path d="M412.441 246.699C412.441 246.699 417.575 243.573 423.211 248.374L412.441 246.699Z" fill="white"/>
<path d="M412.441 246.699C412.441 246.699 417.575 243.573 423.211 248.374" stroke="#002E47" stroke-width="0.75" stroke-miterlimit="10" stroke-linecap="round" stroke-linejoin="round"/>
<path d="M401.953 266.926C401.953 266.926 409.972 269.739 417.838 267.75C417.829 267.75 405.528 276.036 401.953 266.926Z" fill="white" stroke="#002E47" stroke-width="0.75" stroke-miterlimit="10" stroke-linecap="round" stroke-linejoin="round"/>
<path d="M398.695 247.541C398.695 247.541 402.342 243.734 407.144 247.541H398.695Z" fill="white"/>
<path d="M398.695 247.541C398.695 247.541 402.342 243.734 407.144 247.541" stroke="#002E47" stroke-width="0.75" stroke-miterlimit="10" stroke-linecap="round" stroke-linejoin="round"/>
<path d="M430.237 287.233C428.696 291.802 426.366 297.956 423.902 301.763L430.237 287.233Z" fill="white"/>
<path d="M430.237 287.233C428.696 291.802 426.366 297.956 423.902 301.763" stroke="#002E47" stroke-width="0.75" stroke-miterlimit="10" stroke-linecap="round" stroke-linejoin="round"/>
<path d="M432.107 281.249C432.107 281.249 431.758 282.495 431.148 284.421L432.107 281.249Z" fill="white"/>
<path d="M432.107 281.249C432.107 281.249 431.758 282.495 431.148 284.421" stroke="#002E47" stroke-width="0.75" stroke-miterlimit="10" stroke-linecap="round" stroke-linejoin="round"/>
<path d="M427.507 320.359L422.329 314.107C422.329 314.107 416.075 304.961 413.638 297.804C411.201 290.637 410.896 286.83 407.08 286.83C403.263 286.83 389.86 285.916 390.317 290.485C390.317 290.485 389.224 293.226 390.308 295.663C390.308 295.663 390.621 298.861 392.449 301.449C394.277 304.038 395.343 303.546 395.343 303.546C395.343 303.546 396.561 305.561 397.78 305.561C397.78 305.561 398.846 311.043 407.08 315.773L412.867 322.026L418.969 333.303L430.356 324.238L427.507 320.359Z" fill="white" stroke="#002E47" stroke-width="0.75" stroke-miterlimit="10" stroke-linecap="round" stroke-linejoin="round"/>
<path d="M408.602 293.038C408.602 293.038 406.317 294.068 404.373 294.525C402.429 294.982 395.799 296.012 395.342 297.956C394.885 299.9 397.51 304.818 398.89 305.042C400.26 305.274 405.179 305.042 405.403 304.011C405.403 304.011 405.636 305.382 405.403 306.752C405.17 308.123 404.149 310.3 405.86 313.838" fill="white"/>
<path d="M408.602 293.038C408.602 293.038 406.317 294.068 404.373 294.525C402.429 294.982 395.799 296.012 395.342 297.956C394.885 299.9 397.51 304.818 398.89 305.042C400.26 305.274 405.179 305.042 405.403 304.011C405.403 304.011 405.636 305.382 405.403 306.752C405.17 308.123 404.149 310.3 405.86 313.838" stroke="#002E47" stroke-width="0.75" stroke-miterlimit="10" stroke-linecap="round" stroke-linejoin="round"/>
<path d="M390.297 295.672C390.297 295.672 391.22 294.185 392.94 293.844C394.651 293.504 401.514 291.784 402.598 290.987" fill="white"/>
<path d="M390.297 295.672C390.297 295.672 391.22 294.185 392.94 293.844C394.651 293.504 401.514 291.784 402.598 290.987" stroke="#002E47" stroke-width="0.75" stroke-miterlimit="10" stroke-linecap="round" stroke-linejoin="round"/>
<path d="M390.316 290.485C390.316 290.485 391.571 289.84 392.942 289.607C394.312 289.374 401.345 287.377 403.72 287.636" fill="white"/>
<path d="M390.316 290.485C390.316 290.485 391.571 289.84 392.942 289.607C394.312 289.374 401.345 287.377 403.72 287.636" stroke="#002E47" stroke-width="0.75" stroke-miterlimit="10" stroke-linecap="round" stroke-linejoin="round"/>
<path d="M404.488 302.39C404.488 302.39 402.831 301.073 401.944 301.458C401.057 301.844 400.752 302.829 399.605 303.438" fill="white"/>
<path d="M404.488 302.39C404.488 302.39 402.831 301.073 401.944 301.458C401.057 301.844 400.752 302.829 399.605 303.438" stroke="#002E47" stroke-width="0.75" stroke-miterlimit="10" stroke-linecap="round" stroke-linejoin="round"/>
<path d="M401.949 301.458C401.949 301.458 404.646 300.697 405.864 299.479L401.949 301.458Z" fill="white"/>
<path d="M401.949 301.458C401.949 301.458 404.646 300.697 405.864 299.479" stroke="#002E47" stroke-width="0.75" stroke-miterlimit="10" stroke-linecap="round" stroke-linejoin="round"/>
<path d="M474.328 286.472C465.807 281.805 454.196 298.896 453.945 319.517C453.694 340.138 453.452 343.865 453.452 343.865L427.855 316.284C427.855 316.284 426.117 323.486 413.941 329.201C413.941 329.201 419.407 345.352 429.844 361.001C440.282 376.651 450.469 390.571 456.929 390.571C463.388 390.571 475.403 375.405 479.793 355.537C489.245 312.808 492.023 296.164 474.328 286.472Z" fill="#002E47" stroke="#002E47" stroke-width="0.75" stroke-miterlimit="10" stroke-linecap="round" stroke-linejoin="round"/>
<path d="M458.207 347.511C457.741 347.125 458.145 346.373 458.727 346.57C462.499 347.851 469.272 351.309 473.59 360.276" stroke="#E2EDFF" stroke-width="0.75" stroke-linecap="round" stroke-linejoin="round"/>
<path d="M467.863 363.742C467.863 363.742 466.349 355.832 460.418 349.571" stroke="#E2EDFF" stroke-width="0.75" stroke-linecap="round" stroke-linejoin="round"/>
<path d="M475.996 348.218C476.641 348.845 477.286 349.526 477.931 350.288" stroke="#E2EDFF" stroke-width="0.75" stroke-linecap="round" stroke-linejoin="round"/>
<path d="M458.004 343.121C458.004 343.121 465.628 339.87 474.068 346.534" stroke="#E2EDFF" stroke-width="0.75" stroke-linecap="round" stroke-linejoin="round"/>
<path d="M455.765 321.515C455.523 322.787 455.326 324.113 455.191 325.474" stroke="#E2EDFF" stroke-width="0.75" stroke-linecap="round" stroke-linejoin="round"/>
<path d="M467.969 298.144C467.969 298.144 460.506 304.871 456.887 316.938" stroke="#E2EDFF" stroke-width="0.75" stroke-linecap="round" stroke-linejoin="round"/>
<path d="M422.882 335.337C422.882 336.295 422.103 337.075 421.144 337.075C420.186 337.075 419.406 336.295 419.406 335.337C419.406 334.378 420.186 333.599 421.144 333.599C422.103 333.599 422.882 334.378 422.882 335.337Z" fill="#E2EDFF"/>
<path d="M426.371 342.333C426.371 343.291 425.591 344.071 424.633 344.071C423.674 344.071 422.895 343.291 422.895 342.333C422.895 341.375 423.674 340.595 424.633 340.595C425.591 340.586 426.371 341.366 426.371 342.333Z" fill="#E2EDFF"/>
<path d="M449.394 339.493L427.855 316.284" stroke="#E2EDFF" stroke-width="0.75" stroke-linecap="round" stroke-linejoin="round"/>
<path d="M462.914 290.888C457.996 296.944 454.089 307.639 453.946 319.517C453.695 340.138 453.453 343.865 453.453 343.865" stroke="#E2EDFF" stroke-width="0.75" stroke-linecap="round" stroke-linejoin="round"/>
<path d="M468.515 286.311C467.359 286.803 466.203 287.574 465.074 288.595" stroke="#E2EDFF" stroke-width="0.75" stroke-linecap="round" stroke-linejoin="round"/>
<path d="M466.676 383.763C470.949 378.612 475.277 370.882 478.126 361.78" stroke="#E2EDFF" stroke-width="0.75" stroke-linecap="round" stroke-linejoin="round"/>
<path d="M413.941 329.21C413.941 329.21 419.407 345.361 429.844 361.01C435.883 370.067 441.841 378.541 447.037 384.077" stroke="#E2EDFF" stroke-width="0.75" stroke-linecap="round" stroke-linejoin="round"/>
<path d="M427.329 386.191H387.164V389.836H426.998C427.831 389.836 428.503 389.165 428.503 388.332V387.373C428.512 386.719 427.983 386.191 427.329 386.191Z" fill="#CBF2D6" stroke="#002E47" stroke-miterlimit="10" stroke-linecap="round" stroke-linejoin="round"/>
<path d="M367.824 325.886H372.868C374.454 325.886 375.852 326.934 376.3 328.457L392.812 385.259C393.475 387.543 391.764 389.828 389.381 389.828H385.008L367.824 325.886Z" fill="#002E47" stroke="#002E47" stroke-width="0.75" stroke-miterlimit="10" stroke-linecap="round" stroke-linejoin="round"/>
<path d="M314.415 389.828H387.64C390.014 389.828 391.735 387.543 391.072 385.259L374.56 328.457C374.121 326.935 372.723 325.886 371.128 325.886H297.903C295.529 325.886 293.809 328.171 294.472 330.455L310.984 387.257C311.432 388.779 312.829 389.828 314.415 389.828Z" fill="#39B4EF" stroke="#002E47" stroke-width="0.75" stroke-miterlimit="10" stroke-linecap="round" stroke-linejoin="round"/>
<path d="M304.779 212.668H199.48C197.294 212.668 195.52 210.895 195.52 208.709V200.369C195.52 198.183 197.294 196.41 199.48 196.41H304.779C306.965 196.41 308.739 198.183 308.739 200.369V208.718C308.739 210.904 306.965 212.668 304.779 212.668Z" fill="#39B4EF"/>
<mask id="mask11_222_24392" style="mask-type:luminance" maskUnits="userSpaceOnUse" x="195" y="196" width="114" height="17">
<path d="M304.779 212.668H199.48C197.294 212.668 195.52 210.895 195.52 208.709V200.369C195.52 198.183 197.294 196.41 199.48 196.41H304.779C306.965 196.41 308.739 198.183 308.739 200.369V208.718C308.739 210.904 306.965 212.668 304.779 212.668Z" fill="white"/>
</mask>
<g mask="url(#mask11_222_24392)">
<path opacity="0.5" d="M304.779 212.668H199.48C197.294 212.668 195.52 210.895 195.52 208.709V200.369C195.52 198.183 197.294 196.41 199.48 196.41H304.779C306.965 196.41 308.739 198.183 308.739 200.369V208.718C308.739 210.904 306.965 212.668 304.779 212.668Z" fill="white"/>
</g>
<path d="M304.779 212.668H199.48C197.294 212.668 195.52 210.895 195.52 208.709V200.369C195.52 198.183 197.294 196.41 199.48 196.41H304.779C306.965 196.41 308.739 198.183 308.739 200.369V208.718C308.739 210.904 306.965 212.668 304.779 212.668Z" stroke="#002E47" stroke-width="0.75" stroke-miterlimit="10" stroke-linecap="round" stroke-linejoin="round"/>
<path d="M300 136.688L195.901 152.525C193.742 152.857 191.726 151.37 191.394 149.211L190.14 140.97C189.808 138.811 191.296 136.795 193.455 136.464L297.554 120.626C299.713 120.295 301.729 121.782 302.061 123.941L303.315 132.182C303.647 134.341 302.159 136.356 300 136.688Z" fill="#39B4EF" stroke="#002E47" stroke-width="0.75" stroke-miterlimit="10" stroke-linecap="round" stroke-linejoin="round"/>
<path d="M39.8526 195.362C39.8526 195.362 30.6603 199.903 28.5728 209.04C28.5728 209.04 25.9656 206.434 24.9173 217.649C24.9173 217.649 1.69457 260.7 1.43474 279.216C1.17492 297.741 45.0132 327.741 45.0132 327.741C45.0132 327.741 49.708 321.479 48.6687 315.737C48.6687 315.737 31.7085 283.65 23.0986 279.736C23.0986 279.736 32.7568 256.257 39.2792 251.823C45.7927 247.389 39.8526 195.362 39.8526 195.362Z" fill="#002E47"/>
<mask id="mask12_222_24392" style="mask-type:luminance" maskUnits="userSpaceOnUse" x="1" y="195" width="48" height="133">
<path d="M39.8526 195.362C39.8526 195.362 30.6603 199.903 28.5728 209.04C28.5728 209.04 25.9656 206.434 24.9173 217.649C24.9173 217.649 1.69457 260.7 1.43474 279.216C1.17492 297.741 45.0132 327.741 45.0132 327.741C45.0132 327.741 49.708 321.479 48.6687 315.737C48.6687 315.737 31.7085 283.65 23.0986 279.736C23.0986 279.736 32.7568 256.257 39.2792 251.823C45.7927 247.389 39.8526 195.362 39.8526 195.362Z" fill="white"/>
</mask>
<g mask="url(#mask12_222_24392)">
<path opacity="0.2" d="M38.9263 259.867C38.9263 259.867 28.7126 230.512 25.1198 237.007C21.5271 243.501 12.2452 276.806 17.5491 281.688C22.8531 286.57 14.2342 286.839 18.2121 293.334C22.1901 299.819 48.038 324.113 50.681 323.396C53.333 322.68 41.0855 281.688 41.0855 281.688L38.9263 259.867Z" fill="#002E47"/>
</g>
<path d="M39.8526 195.362C39.8526 195.362 30.6603 199.903 28.5728 209.04C28.5728 209.04 25.9656 206.434 24.9173 217.649C24.9173 217.649 1.69457 260.7 1.43474 279.216C1.17492 297.741 45.0132 327.741 45.0132 327.741C45.0132 327.741 49.708 321.479 48.6687 315.737C48.6687 315.737 31.7085 283.65 23.0986 279.736C23.0986 279.736 32.7568 256.257 39.2792 251.823C45.7927 247.389 39.8526 195.362 39.8526 195.362Z" stroke="#002E47" stroke-width="0.75" stroke-miterlimit="10" stroke-linecap="round" stroke-linejoin="round"/>
<path d="M27.7734 219.369C27.7734 219.369 28.6425 232.823 31.7604 240.473" stroke="#E2EDFF" stroke-width="0.75" stroke-linecap="round" stroke-linejoin="round"/>
<path d="M21.3694 282.387C21.3694 282.387 16.4776 287.636 9.69531 286.92" stroke="#E2EDFF" stroke-width="0.75" stroke-linecap="round" stroke-linejoin="round"/>
<path d="M40.5898 306.099L41.0916 321.999" stroke="#E2EDFF" stroke-width="0.75" stroke-linecap="round" stroke-linejoin="round"/>
<path d="M118.853 334.002C118.853 334.002 129.811 368.365 131.898 385.358H42.6535C42.6535 385.358 41.8651 345.038 45.2607 332.175L118.853 334.002Z" fill="#39B4EF" stroke="#002E47" stroke-width="0.75" stroke-miterlimit="10" stroke-linecap="round" stroke-linejoin="round"/>
<path d="M81.3203 376.265C83.3272 378.093 87.2335 385.358 87.2335 385.358" stroke="#002E47" stroke-width="0.75" stroke-miterlimit="10" stroke-linecap="round" stroke-linejoin="round"/>
<path d="M62.4883 353.047C62.4883 353.047 69.5304 364.065 77.6565 372.646" stroke="#002E47" stroke-width="0.75" stroke-miterlimit="10" stroke-linecap="round" stroke-linejoin="round"/>
<path d="M86.7554 127.372C86.7554 127.372 93.5377 121.28 91.9698 117.455C89.927 112.466 84.6679 119.892 84.6679 119.892C84.6679 119.892 86.7554 112.242 82.2936 110.325C77.5183 108.273 73.5313 117.285 73.5313 117.285C73.5313 117.285 72.2949 109.554 65.5306 111.194C59.7876 112.582 64.4823 119.023 59.7876 121.11C55.0929 123.197 39.6111 128.59 42.5677 139.026C42.5677 139.026 38.3926 130.847 36.8247 134.153C35.2568 137.458 40.6503 141.982 42.7379 142.501C42.7379 142.501 39.4319 149.462 42.0391 151.37C44.6462 153.287 44.1266 146.326 44.1266 146.326C44.1266 146.326 45.8289 165.496 64.3032 175.547C82.7774 185.598 82.2847 152.239 82.2847 152.239L86.9167 137.279L86.7554 127.372Z" fill="#002E47" stroke="#002E47" stroke-width="0.75" stroke-miterlimit="10" stroke-linecap="round" stroke-linejoin="round"/>
<path d="M63.2187 125.983C55.4419 128.42 43.7409 131.376 48.812 146.855" stroke="#E2EDFF" stroke-width="0.75" stroke-linecap="round" stroke-linejoin="round"/>
<path d="M66.5797 114.329C66.5797 114.329 69.4825 120.376 66.4453 123.968" stroke="#E2EDFF" stroke-width="0.75" stroke-linecap="round" stroke-linejoin="round"/>
<path d="M57.707 156.422C58.1192 157.407 58.5851 158.428 59.1047 159.494" stroke="#E2EDFF" stroke-width="0.75" stroke-linecap="round" stroke-linejoin="round"/>
<path d="M78.352 120.608C77.0529 122.714 74.9653 124.89 71.6235 126.503C63.578 130.373 50.8646 134.825 56.2044 152.31" stroke="#E2EDFF" stroke-width="0.75" stroke-linecap="round" stroke-linejoin="round"/>
<path d="M80.4964 113.63C80.4964 113.63 80.5233 115.099 79.9141 117.133" stroke="#E2EDFF" stroke-width="0.75" stroke-linecap="round" stroke-linejoin="round"/>
<path d="M66.5002 134.851C62.3699 138.014 68.3369 142.224 70.7559 147.545" stroke="#E2EDFF" stroke-width="0.75" stroke-linecap="round" stroke-linejoin="round"/>
<path d="M89.5418 119.202C89.5418 119.202 81.8904 129.638 70.7539 132.943" stroke="#E2EDFF" stroke-width="0.75" stroke-linecap="round" stroke-linejoin="round"/>
<path d="M43.4465 334.522C43.4465 334.522 42.9269 315.737 40.3197 286.517C37.7125 257.296 23.0997 198.855 43.4465 193.642C63.8023 188.419 104.406 185.141 118.078 198.336C133.211 212.946 121.734 294.346 121.214 308.437C120.694 322.527 123.302 338.696 123.302 338.696C123.302 338.696 69.2765 350.44 43.4465 334.522Z" fill="#002E47"/>
<mask id="mask13_222_24392" style="mask-type:luminance" maskUnits="userSpaceOnUse" x="32" y="189" width="94" height="154">
<path d="M43.4465 334.522C43.4465 334.522 42.9269 315.737 40.3197 286.517C37.7125 257.296 23.0997 198.855 43.4465 193.642C63.8023 188.419 104.406 185.141 118.078 198.336C133.211 212.946 121.734 294.346 121.214 308.437C120.694 322.527 123.302 338.696 123.302 338.696C123.302 338.696 69.2765 350.44 43.4465 334.522Z" fill="white"/>
</mask>
<g mask="url(#mask13_222_24392)">
<path opacity="0.2" d="M35.869 277.747C35.869 277.747 28.0385 226.831 54.9346 223.91C81.8307 220.981 117.274 222.217 121.001 244.675C124.728 267.141 132.944 320.906 132.944 320.906L138.508 345.208L94.8756 353.486L36.5499 347.233L35.869 277.747Z" fill="#002E47"/>
</g>
<path d="M43.4465 334.522C43.4465 334.522 42.9269 315.737 40.3197 286.517C37.7125 257.296 23.0997 198.855 43.4465 193.642C63.8023 188.419 104.406 185.141 118.078 198.336C133.211 212.946 121.734 294.346 121.214 308.437C120.694 322.527 123.302 338.696 123.302 338.696C123.302 338.696 69.2765 350.44 43.4465 334.522Z" stroke="#002E47" stroke-width="0.75" stroke-miterlimit="10" stroke-linecap="round" stroke-linejoin="round"/>
<path d="M85.886 185.813V179.9C85.886 179.9 95.9922 181.468 97.372 178.852C98.7517 176.246 96.4939 165.46 96.4939 165.46C96.4939 165.46 101.368 165.631 101.368 163.373C101.368 161.116 95.6249 151.549 95.6249 151.549C95.6249 151.549 96.3237 143.899 95.6249 141.462C94.9261 139.026 87.7944 125.284 87.7944 125.284C87.7944 125.284 77.3567 131.017 77.7061 134.153C78.0555 137.288 81.0121 140.244 78.5752 142.851C76.1382 145.458 72.8322 152.498 73.8804 155.849L72.3125 156.941C72.3125 156.941 71.4435 150.68 67.9672 149.641C64.491 148.602 61.7046 155.553 64.1416 160.426C66.5785 165.299 69.3559 164.43 69.3559 164.43C69.3559 164.43 67.9672 172.779 64.3118 175.565L63.2188 184.263L85.886 185.813Z" fill="white" stroke="#002E47" stroke-width="0.75" stroke-miterlimit="10" stroke-linecap="round" stroke-linejoin="round"/>
<path d="M92.5859 151.719C93.2094 151.719 93.7148 150.785 93.7148 149.632C93.7148 148.479 93.2094 147.545 92.5859 147.545C91.9624 147.545 91.457 148.479 91.457 149.632C91.457 150.785 91.9624 151.719 92.5859 151.719Z" fill="#002E47"/>
<path d="M84.8477 163.902C84.8477 163.902 85.663 166.159 92.2123 166.508" stroke="#002E47" stroke-width="0.75" stroke-miterlimit="10" stroke-linecap="round" stroke-linejoin="round"/>
<path d="M92.5851 143.729C92.5851 143.729 89.0193 143.2 87.8008 146.846" stroke="#002E47" stroke-width="0.75" stroke-miterlimit="10" stroke-linecap="round" stroke-linejoin="round"/>
<path d="M56.3127 194.036C56.3127 194.036 49.3513 184.603 56.3127 183.555C63.2742 182.516 91.8009 180.08 96.3254 183.555C100.85 187.031 89.3639 185.992 88.6741 191.904C87.9752 197.816 56.3127 194.036 56.3127 194.036Z" fill="#002E47" stroke="#002E47" stroke-width="0.75" stroke-miterlimit="10" stroke-linecap="round" stroke-linejoin="round"/>
<path d="M99.2511 151.352C99.2511 154.702 98.2745 157.425 97.065 157.425C95.8555 157.425 94.8789 154.702 94.8789 151.352C94.8789 148.002 95.8555 145.278 97.065 145.278C98.2745 145.278 99.2511 148.002 99.2511 151.352Z" stroke="#002E47" stroke-width="0.75" stroke-miterlimit="10" stroke-linecap="round" stroke-linejoin="round"/>
<path d="M98.7679 147.545L74.7209 149.3C72.9918 149.426 71.3611 150.071 70.0352 151.11" stroke="#002E47" stroke-miterlimit="10" stroke-linecap="round" stroke-linejoin="round"/>
<path d="M171.324 170.638L177.004 157.99C177.004 157.99 180.319 144.275 182.945 141.283C185.57 138.291 189.834 132.908 191.187 134.404C192.173 135.478 190.945 139.151 188.786 141.973C186.439 145.036 188.347 147.912 189.207 149.121C190.067 150.331 195.174 152.866 199.179 153.385C203.175 153.905 211.149 148.853 213.881 150.626C216.614 152.4 211.032 154.353 211.032 154.353C211.032 154.353 215.342 153.779 216.247 156.198C216.784 157.631 212.349 157.604 210.199 157.819C208.04 158.043 203.65 158.679 203.65 158.679C203.65 158.679 211.525 159.683 211.418 161.832C211.319 163.982 205.522 161.967 201.105 162.137C201.105 162.137 207.431 163.767 207.072 165.837C206.723 167.906 203.381 165.729 198.077 164.815L185.829 163.266L181.968 177.544L171.324 170.638Z" fill="white" stroke="#002E47" stroke-width="0.75" stroke-miterlimit="10" stroke-linecap="round" stroke-linejoin="round"/>
<path d="M207.835 155.096C207.835 155.096 204.117 157.64 198.634 156.27C198.634 156.27 199.153 157.963 198.634 158.679C198.114 159.396 198.177 160.829 196.869 161.743C195.561 162.657 194.781 163.051 194.781 163.051" stroke="#002E47" stroke-width="0.75" stroke-miterlimit="10" stroke-linecap="round" stroke-linejoin="round"/>
<path d="M99.2539 190.426C99.2539 190.426 118.526 190.507 125.863 196.508C125.863 196.508 125.899 193.382 131.642 196.508C131.642 196.508 149.122 194.421 157.212 196.508C157.212 196.508 167.13 171.982 173.133 165.46C173.133 165.46 181.743 165.98 184.09 169.895C185.21 171.758 182.567 181.988 180.112 192.406C177.398 203.907 174.674 215.642 172.354 216.601C167.919 218.428 121.213 222.602 121.213 222.602L99.2629 211.127V190.426H99.2539Z" fill="#002E47"/>
<mask id="mask14_222_24392" style="mask-type:luminance" maskUnits="userSpaceOnUse" x="99" y="165" width="86" height="58">
<path d="M99.2539 190.426C99.2539 190.426 118.526 190.507 125.863 196.508C125.863 196.508 125.899 193.382 131.642 196.508C131.642 196.508 149.122 194.421 157.212 196.508C157.212 196.508 167.13 171.982 173.133 165.46C173.133 165.46 181.743 165.98 184.09 169.895C185.21 171.758 182.567 181.988 180.112 192.406C177.398 203.907 174.674 215.642 172.354 216.601C167.919 218.428 121.213 222.602 121.213 222.602L99.2629 211.127V190.426H99.2539Z" fill="white"/>
</mask>
<g mask="url(#mask14_222_24392)">
<path opacity="0.2" d="M125.866 224.708C125.866 224.708 121.503 209.112 128.509 210.572C135.515 212.032 163.343 214.881 168.477 210.474C173.619 206.066 176.89 168.685 183.537 170.477C190.185 172.268 185.571 204.973 185.571 204.973C185.571 204.973 189.728 214.021 176.701 220.972C163.674 227.932 163.674 227.932 163.674 227.932L140.649 229.921L125.866 224.708Z" fill="#002E47"/>
</g>
<path d="M99.2539 190.426C99.2539 190.426 118.526 190.507 125.863 196.508C125.863 196.508 125.899 193.382 131.642 196.508C131.642 196.508 149.122 194.421 157.212 196.508C157.212 196.508 167.13 171.982 173.133 165.46C173.133 165.46 181.743 165.98 184.09 169.895C185.21 171.758 182.567 181.988 180.112 192.406C177.398 203.907 174.674 215.642 172.354 216.601C167.919 218.428 121.213 222.602 121.213 222.602L99.2629 211.127V190.426H99.2539Z" stroke="#002E47" stroke-width="0.75" stroke-miterlimit="10" stroke-linecap="round" stroke-linejoin="round"/>
<path d="M159.562 197.556C159.562 197.556 163.478 198.336 168.172 204.597" stroke="#E2EDFF" stroke-width="0.75" stroke-linecap="round" stroke-linejoin="round"/>
<path d="M127.984 201.077C127.984 201.077 130.323 210.097 127.984 219.207" stroke="#E2EDFF" stroke-width="0.75" stroke-linecap="round" stroke-linejoin="round"/>
<path d="M111.555 194.036C111.555 194.036 124.062 200.647 124.958 219.216" stroke="#E2EDFF" stroke-width="0.75" stroke-linecap="round" stroke-linejoin="round"/>
<path d="M112.348 314.42C113.199 313.337 113.898 312.163 114.426 310.873" stroke="#E2EDFF" stroke-width="0.75" stroke-linecap="round" stroke-linejoin="round"/>
<path d="M52.4883 324.435C52.4883 324.435 93.8628 329.882 109.569 317.206" stroke="#E2EDFF" stroke-width="0.75" stroke-linecap="round" stroke-linejoin="round"/>
<path d="M103.001 240.742C103.001 240.742 82.2954 246.717 83.1197 262.116C83.944 277.523 87.9219 276.636 79.1417 281.715C70.3615 286.794 78.649 296.406 76.1583 300.706C73.6765 305.015 57.9349 316.938 64.7261 323.065C71.5173 329.192 105.653 316.938 117.578 323.065C129.503 329.192 138.919 316.194 142.09 312.817C145.262 309.449 135.971 304.674 136.303 297.884C136.634 291.094 142.601 253.57 134.977 248.562C127.361 243.564 109.586 238.001 103.001 240.742Z" fill="#002E47" stroke="#002E47" stroke-width="0.75" stroke-miterlimit="10" stroke-linecap="round" stroke-linejoin="round"/>
<path d="M176.695 265.6L180.494 251.814C180.494 251.814 181.981 242.372 183.227 240.509C184.472 238.646 187.697 236.039 187.697 236.039C187.697 236.039 190.027 232.805 191.658 231.444C193.288 230.073 202.857 225.111 203.6 225.478C204.344 225.854 205.527 228.085 199.318 231.569C199.318 231.569 202.731 231.318 205.473 232.438C208.205 233.558 210.069 233.863 208.886 235.045C207.704 236.227 206.709 236.783 202.301 235.6C202.301 235.6 199.192 235.977 196.711 235.788L195.34 237.401C195.34 237.401 197.454 236.469 198.691 238.458C199.936 240.447 201.361 242.928 200.742 244.361C200.742 244.361 205.527 241.88 206.835 243.922C208.143 245.974 204.102 247.837 202.489 249.082C200.877 250.327 196.961 253.677 196.961 253.677C196.961 253.677 194.166 259.948 188.325 262.25C188.325 262.25 187.052 264.857 187.706 267.284L176.695 265.6Z" fill="white" stroke="#002E47" stroke-width="0.75" stroke-miterlimit="10" stroke-linecap="round" stroke-linejoin="round"/>
<path d="M196.268 233.235L194.216 234.911L191.922 238.888L190.363 244.101" stroke="#002E47" stroke-width="0.75" stroke-miterlimit="10" stroke-linecap="round" stroke-linejoin="round"/>
<path d="M189.066 244.101C189.066 244.101 192.328 248.016 194.639 248.571C194.639 248.571 197.076 247.514 197.578 247.084C197.99 246.726 198.617 246.027 199.871 245.015" stroke="#002E47" stroke-width="0.75" stroke-miterlimit="10" stroke-linecap="round" stroke-linejoin="round"/>
<path d="M192.672 243.797L192.968 242.74C192.968 242.74 194.598 243.116 195.897 242.74L196.641 243.797C196.65 243.797 194.974 243.483 192.672 243.797Z" stroke="#002E47" stroke-width="0.75" stroke-miterlimit="10" stroke-linecap="round" stroke-linejoin="round"/>
<path d="M195.963 239.381C195.963 239.381 195.407 240.42 195.524 242.05" stroke="#002E47" stroke-width="0.75" stroke-miterlimit="10" stroke-linecap="round" stroke-linejoin="round"/>
<path d="M197.891 242.74C197.891 242.74 195.391 244.666 195.741 248.088" stroke="#002E47" stroke-width="0.75" stroke-miterlimit="10" stroke-linecap="round" stroke-linejoin="round"/>
<path d="M194.043 238.386L192.672 239.882V241.557" stroke="#002E47" stroke-width="0.75" stroke-miterlimit="10" stroke-linecap="round" stroke-linejoin="round"/>
<path d="M129.152 308.661C129.152 308.661 160.402 309.458 164.891 312.763C164.891 312.763 162.077 308.239 167.121 309.718C167.121 309.718 167.471 271.369 174.253 270.84L176.511 262.116C176.681 261.462 177.434 261.148 178.007 261.506C179.88 262.662 183.768 264.758 187.37 264.803C187.916 264.812 188.346 265.26 188.346 265.806V273.286C188.346 273.286 191.823 274.155 191.652 279.198C191.482 284.241 188.301 329.488 182.559 334.387C176.816 339.278 136.462 336.851 136.462 336.851C136.462 336.851 126.544 327.266 129.152 308.661Z" fill="#39B4EF"/>
<mask id="mask15_222_24392" style="mask-type:luminance" maskUnits="userSpaceOnUse" x="128" y="261" width="64" height="77">
<path d="M129.152 308.661C129.152 308.661 160.402 309.458 164.891 312.763C164.891 312.763 162.077 308.239 167.121 309.718C167.121 309.718 167.471 271.369 174.253 270.84L176.511 262.116C176.681 261.462 177.434 261.148 178.007 261.506C179.88 262.662 183.768 264.758 187.37 264.803C187.916 264.812 188.346 265.26 188.346 265.806V273.286C188.346 273.286 191.823 274.155 191.652 279.198C191.482 284.241 188.301 329.488 182.559 334.387C176.816 339.278 136.462 336.851 136.462 336.851C136.462 336.851 126.544 327.266 129.152 308.661Z" fill="white"/>
</mask>
<g mask="url(#mask15_222_24392)">
<path opacity="0.2" d="M138.884 318.747C138.884 318.747 148.479 333.922 163.639 332.479C178.798 331.046 174.345 325.331 176.692 323.092C179.04 320.852 186.539 324.175 190.373 295.931C194.208 267.687 202.182 315.782 202.182 315.782L199.879 339.243L185.571 349.678L172.123 352.303L140.64 354.874L131.125 328.054L138.884 318.747Z" fill="#002E47"/>
</g>
<path d="M129.152 308.661C129.152 308.661 160.402 309.458 164.891 312.763C164.891 312.763 162.077 308.239 167.121 309.718C167.121 309.718 167.471 271.369 174.253 270.84L176.511 262.116C176.681 261.462 177.434 261.148 178.007 261.506C179.88 262.662 183.768 264.758 187.37 264.803C187.916 264.812 188.346 265.26 188.346 265.806V273.286C188.346 273.286 191.823 274.155 191.652 279.198C191.482 284.241 188.301 329.488 182.559 334.387C176.816 339.278 136.462 336.851 136.462 336.851C136.462 336.851 126.544 327.266 129.152 308.661Z" stroke="#002E47" stroke-width="0.75" stroke-miterlimit="10" stroke-linecap="round" stroke-linejoin="round"/>
<path d="M168.461 317.009C168.461 317.009 170.719 318.747 172.116 324.14" stroke="#002E47" stroke-width="0.75" stroke-miterlimit="10" stroke-linecap="round" stroke-linejoin="round"/>
<path d="M170.293 312.835C170.293 312.835 174.907 314.922 177.684 318.747" stroke="#002E47" stroke-width="0.75" stroke-miterlimit="10" stroke-linecap="round" stroke-linejoin="round"/>
<path d="M176.695 272.059C176.695 272.059 179.652 274.146 185.565 274.845" stroke="#002E47" stroke-width="0.75" stroke-miterlimit="10" stroke-linecap="round" stroke-linejoin="round"/>
<path d="M72.5206 385.358C72.5206 385.358 48.3303 334.334 66.8852 318.102C85.4401 301.87 124.539 306.179 131.169 308.159C137.799 310.147 144.42 329.362 144.751 339.628C145.083 349.902 151.596 349.759 142.323 385.349H72.5206V385.358Z" fill="#39B4EF"/>
<mask id="mask16_222_24392" style="mask-type:luminance" maskUnits="userSpaceOnUse" x="59" y="306" width="89" height="80">
<path d="M72.5206 385.358C72.5206 385.358 48.3303 334.334 66.8852 318.102C85.4401 301.87 124.539 306.179 131.169 308.159C137.799 310.147 144.42 329.362 144.751 339.628C145.083 349.902 151.596 349.759 142.323 385.349H72.5206V385.358Z" fill="white"/>
</mask>
<g mask="url(#mask16_222_24392)">
<path opacity="0.2" d="M80.3909 347.403C80.3909 347.403 92.9071 333.707 93.7314 338.212C94.5557 342.727 79.1455 368.812 95.0484 375.773C110.951 382.733 122.231 375.029 131.128 375.773C140.025 376.516 143.913 381.891 153.034 382.437C162.145 382.984 160.192 395.901 160.192 395.901L134.81 401.365H82.129L63.0455 396.644L57.7773 387.346V366.474L80.3909 347.403Z" fill="#002E47"/>
</g>
<path d="M72.5206 385.358C72.5206 385.358 48.3303 334.334 66.8852 318.102C85.4401 301.87 124.539 306.179 131.169 308.159C137.799 310.147 144.42 329.362 144.751 339.628C145.083 349.902 151.596 349.759 142.323 385.349H72.5206V385.358Z" stroke="#002E47" stroke-width="0.75" stroke-miterlimit="10" stroke-linecap="round" stroke-linejoin="round"/>
<path d="M96.3828 352.393L111.13 347.564C111.13 347.564 117.258 337.809 120.412 335.328C123.557 332.847 125.546 332.014 128.699 333.51L134.003 332.766C134.003 332.766 136.243 329.926 138.806 330.527C141.368 331.127 150.731 334.002 149.736 335.991C148.742 337.98 140.786 334.334 139.63 335.328C139.63 335.328 142.237 340.004 142.237 342.862C142.237 345.719 142.981 350.064 141.368 350.064C139.755 350.064 138.384 348.263 138.51 345.934C138.51 345.934 138.017 351.058 136.395 350.816C134.783 350.565 133.663 349.204 133.914 347.09C133.914 347.09 130.187 358.645 120.743 358.52L103.586 365.48C103.586 365.48 100.11 364.656 96.3828 352.393Z" fill="white" stroke="#002E47" stroke-width="0.75" stroke-miterlimit="10" stroke-linecap="round" stroke-linejoin="round"/>
<path d="M124.086 347.099C124.086 347.099 126.326 342.629 125.699 340.515L128.933 339.269C128.933 339.269 130.304 341.133 131.298 340.64L130.805 343.184C130.805 343.184 128.324 346.23 129.686 347.968C131.056 349.705 133.036 345.728 134.156 344.617C135.276 343.498 135.527 338.571 134.649 336.994C133.78 335.418 130.573 335.588 129.632 334.549" stroke="#002E47" stroke-width="0.75" stroke-miterlimit="10" stroke-linecap="round" stroke-linejoin="round"/>
<path d="M134.32 333.51C134.32 333.51 137.134 333.178 137.967 334.549C138.791 335.919 139.624 339.144 139.454 340.801C139.293 342.458 138.71 344.94 138.71 344.94" stroke="#002E47" stroke-width="0.75" stroke-miterlimit="10" stroke-linecap="round" stroke-linejoin="round"/>
<path d="M134.32 345.943L134.822 343.184" stroke="#002E47" stroke-width="0.75" stroke-miterlimit="10" stroke-linecap="round" stroke-linejoin="round"/>
<path d="M136.895 333.76C136.895 333.76 138.498 333.062 139.618 335.337" stroke="#002E47" stroke-width="0.75" stroke-miterlimit="10" stroke-linecap="round" stroke-linejoin="round"/>
<path d="M131.044 341.885L129.629 342.458L130.337 343.82L130.794 343.184L131.044 341.885Z" stroke="#002E47" stroke-width="0.75" stroke-miterlimit="10" stroke-linecap="round" stroke-linejoin="round"/>
<path d="M115.602 354.22C115.602 354.22 116.265 355.877 119.248 357.535" stroke="#002E47" stroke-width="0.75" stroke-miterlimit="10" stroke-linecap="round" stroke-linejoin="round"/>
<path d="M103.169 288.622L98.3672 302.704C98.3672 302.704 108.644 313.632 117.585 314.465L121.232 318.747L125.21 313.964L124.215 307.836L122.611 305.248L121.232 304.8L124.045 297.069L115.05 284.815H106.314L103.169 288.622Z" fill="white"/>
<mask id="mask17_222_24392" style="mask-type:luminance" maskUnits="userSpaceOnUse" x="98" y="284" width="28" height="35">
<path d="M103.169 288.622L98.3672 302.704C98.3672 302.704 108.644 313.632 117.585 314.465L121.232 318.747L125.21 313.964L124.215 307.836L122.611 305.248L121.232 304.8L124.045 297.069L115.05 284.815H106.314L103.169 288.622Z" fill="white"/>
</mask>
<g mask="url(#mask17_222_24392)">
<path d="M124.045 297.069L115.05 284.815H106.314L105.293 286.06C105.893 288.855 107.174 293.611 109.298 296.415C111.565 299.398 117.944 302.802 121.348 304.486L124.045 297.069Z" fill="#002E47" stroke="#002E47" stroke-width="0.75" stroke-miterlimit="10" stroke-linecap="round" stroke-linejoin="round"/>
</g>
<path d="M103.169 288.622L98.3672 302.704C98.3672 302.704 108.644 313.632 117.585 314.465L121.232 318.747L125.21 313.964L124.215 307.836L122.611 305.248L121.232 304.8L124.045 297.069L115.05 284.815H106.314L103.169 288.622Z" stroke="#002E47" stroke-width="0.75" stroke-miterlimit="10" stroke-linecap="round" stroke-linejoin="round"/>
<path d="M105.648 281.715C105.648 281.715 107.306 291.927 111.776 295.242C116.247 298.556 132.32 304.656 135.304 301.772C138.287 298.888 141.271 289.607 141.934 284.806C142.597 280.004 140.939 272.095 141.271 267.266C141.602 262.438 141.934 254.322 135.304 251.841C128.674 249.36 104.483 261.345 104.483 261.345L102.996 270.554L105.648 281.715Z" fill="white" stroke="#002E47" stroke-width="0.75" stroke-miterlimit="10" stroke-linecap="round" stroke-linejoin="round"/>
<path d="M136.885 267.275C136.885 267.275 135.891 271.315 136.885 272.802C137.557 273.814 139.313 276.242 140.38 277.711C140.846 278.356 140.693 279.243 140.048 279.7C138.776 280.605 136.876 282.056 136.446 282.987C136.312 283.265 136.446 284.232 136.446 284.232" stroke="#002E47" stroke-width="0.75" stroke-miterlimit="10" stroke-linecap="round" stroke-linejoin="round"/>
<path d="M136.536 286.741C136.536 286.741 132.083 290.315 127.559 285.737" stroke="#002E47" stroke-width="0.75" stroke-miterlimit="10" stroke-linecap="round" stroke-linejoin="round"/>
<path d="M124.047 268.825C124.047 268.825 126.018 264.48 132.944 266.711" stroke="#002E47" stroke-width="0.75" stroke-miterlimit="10" stroke-linecap="round" stroke-linejoin="round"/>
<path d="M137.148 266.075C137.148 266.075 138.734 264.445 140.598 266.075" stroke="#002E47" stroke-width="0.75" stroke-miterlimit="10" stroke-linecap="round" stroke-linejoin="round"/>
<path d="M131.095 270.455C131.373 271.485 131.185 272.426 130.674 272.569C130.163 272.704 129.527 271.987 129.249 270.957C128.972 269.927 129.16 268.986 129.67 268.843C130.181 268.709 130.817 269.425 131.095 270.455Z" fill="#002E47"/>
<path d="M140.519 269.407C140.716 270.348 140.501 271.181 140.035 271.279C139.569 271.378 139.032 270.697 138.835 269.766C138.638 268.825 138.853 267.992 139.319 267.893C139.776 267.786 140.313 268.467 140.519 269.407Z" fill="#002E47"/>
<path d="M128.715 239.972C128.715 239.972 137.154 235.135 149.841 246.359C161.3 256.499 147.287 250.685 147.287 250.685C147.287 250.685 153.111 261.569 146.902 263.8C140.604 266.066 144.089 259.464 130.166 256.311C130.166 256.311 136.375 261.345 132.119 264.283C126.654 268.055 123.043 261.614 118.734 263.101C118.734 263.101 116.413 275.857 111.772 278.007C111.772 278.007 107.257 295.107 101.317 294.014C95.3767 292.922 102.661 290.602 99.3458 280.166C96.0308 269.73 88.9081 259.876 94.3733 248.571C99.8564 237.275 119.478 236.048 128.715 239.972Z" fill="#002E47" stroke="#002E47" stroke-width="0.75" stroke-miterlimit="10" stroke-linecap="round" stroke-linejoin="round"/>
<path d="M75.8263 315.28C71.1495 315.352 66.9117 317.081 64.8959 320.1C57.5133 331.118 48.33 351.569 42.363 365.158C36.396 378.738 39.3795 387.024 42.363 388.018C45.3465 389.012 55.9454 392.327 76.4893 382.384C97.0332 372.44 95.0442 370.461 95.0442 370.461L106.826 365.023C107.292 364.808 107.345 364.172 106.933 363.877C105.061 362.533 101.28 358.735 101.02 349.902C101.002 349.437 100.536 349.114 100.106 349.293L89.0773 353.736C89.0773 353.736 87.4198 351.909 77.8153 355.555C77.8153 355.555 87.4288 348.595 91.7293 343.3C93.7541 340.801 94.3902 336.107 93.6914 331.342" fill="#39B4EF"/>
<path d="M75.8263 315.28C71.1495 315.352 66.9117 317.081 64.8959 320.1C57.5133 331.118 48.33 351.569 42.363 365.158C36.396 378.738 39.3795 387.024 42.363 388.018C45.3465 389.012 55.9454 392.327 76.4893 382.384C97.0332 372.44 95.0442 370.461 95.0442 370.461L106.826 365.023C107.292 364.808 107.345 364.172 106.933 363.877C105.061 362.533 101.28 358.735 101.02 349.902C101.002 349.437 100.536 349.114 100.106 349.293L89.0773 353.736C89.0773 353.736 87.4198 351.909 77.8153 355.555C77.8153 355.555 87.4288 348.595 91.7293 343.3C93.7541 340.801 94.3902 336.107 93.6914 331.342" stroke="#002E47" stroke-width="0.75" stroke-miterlimit="10" stroke-linecap="round" stroke-linejoin="round"/>
<path d="M57.7695 362.336C60.9501 359.702 74.3355 358.359 74.5057 356.37C74.667 354.381 63.2437 359.183 63.405 356.37" stroke="#002E47" stroke-width="0.75" stroke-miterlimit="10" stroke-linecap="round" stroke-linejoin="round"/>
<path d="M84.6133 336C84.6133 336 87.9372 341.285 87.9283 344.286C87.9193 347.278 91.9062 339.484 91.9062 336" stroke="#002E47" stroke-width="0.75" stroke-miterlimit="10" stroke-linecap="round" stroke-linejoin="round"/>
<path d="M89.7461 355.877C89.7461 355.877 89.4146 359.855 93.0611 366.483" stroke="#002E47" stroke-width="0.75" stroke-miterlimit="10" stroke-linecap="round" stroke-linejoin="round"/>
<path d="M87.75 307.989C87.75 307.989 91.1546 297.911 95.1325 299.398C99.1105 300.876 118.49 309.279 121.222 318.747C121.222 318.747 117.244 313.507 113.768 318.747C110.292 323.987 106.959 319.329 87.75 307.989Z" fill="#39B4EF" stroke="#002E47" stroke-width="0.75" stroke-miterlimit="10" stroke-linecap="round" stroke-linejoin="round"/>
<path d="M122.606 305.248C123.063 307.138 124.094 312.996 121.227 318.747C121.227 318.747 124.21 314.922 127.686 317.529C131.163 320.136 127.686 309.243 126.074 307.182C125.491 306.439 122.983 305.006 122.983 305.006C122.794 304.871 122.553 305.033 122.606 305.248Z" fill="#39B4EF" stroke="#002E47" stroke-width="0.75" stroke-miterlimit="10" stroke-linecap="round" stroke-linejoin="round"/>
<path d="M121.228 304.8C121.228 304.8 120.188 308.096 121.228 310.067" stroke="#002E47" stroke-width="0.75" stroke-miterlimit="10" stroke-linecap="round" stroke-linejoin="round"/>
<path d="M108.404 386.191H148.569V389.836H108.736C107.903 389.836 107.231 389.165 107.231 388.332V387.373C107.222 386.719 107.75 386.191 108.404 386.191Z" fill="#E2EDFF" stroke="#002E47" stroke-miterlimit="10" stroke-linecap="round" stroke-linejoin="round"/>
<path d="M167.917 325.886H162.873C161.287 325.886 159.889 326.934 159.441 328.457L142.929 385.259C142.266 387.543 143.977 389.828 146.36 389.828H150.733L167.917 325.886Z" fill="#002E47" stroke="#002E47" stroke-width="0.75" stroke-miterlimit="10" stroke-linecap="round" stroke-linejoin="round"/>
<path d="M232.262 389.828H148.106C145.732 389.828 144.012 387.543 144.675 385.259L161.187 328.457C161.626 326.934 163.023 325.886 164.618 325.886H248.774C251.148 325.886 252.868 328.171 252.205 330.455L235.693 387.257C235.245 388.779 233.848 389.828 232.262 389.828Z" fill="#E2EDFF" stroke="#002E47" stroke-miterlimit="10" stroke-linecap="round" stroke-linejoin="round"/>
<path d="M105.291 286.051C105.291 286.051 98.5271 296.612 102.505 306.125C106.483 315.639 102.998 320.565 98.3658 317C93.7159 313.426 91.5746 309.52 70.6992 312.826L84.6132 299.246L94.0564 286.588L102.899 282.423L105.291 286.051Z" fill="#002E47" stroke="#002E47" stroke-width="0.75" stroke-miterlimit="10" stroke-linecap="round" stroke-linejoin="round"/>
<path d="M146.449 256.32C147.085 257.52 147.354 258.622 147.282 259.482" stroke="#E2EDFF" stroke-width="0.75" stroke-linecap="round" stroke-linejoin="round"/>
<path d="M119.234 245.409C131.778 245.203 139.671 248.983 143.783 252.916" stroke="#E2EDFF" stroke-width="0.75" stroke-linecap="round" stroke-linejoin="round"/>
<path d="M84.0195 299.488C84.575 297.517 84.8617 295.134 84.6019 292.286C83.6074 281.106 92.5578 284.895 94.5468 270.706C96.3477 257.861 98.489 247.819 113.926 245.785" stroke="#E2EDFF" stroke-width="0.75" stroke-linecap="round" stroke-linejoin="round"/>
<path d="M78.3945 307.433C78.3945 307.433 80.1775 306.448 81.8529 304.092" stroke="#E2EDFF" stroke-width="0.75" stroke-linecap="round" stroke-linejoin="round"/>
<path d="M96.1367 306.95C96.513 307.98 96.9699 309.019 97.5344 310.067" stroke="#E2EDFF" stroke-width="0.75" stroke-linecap="round" stroke-linejoin="round"/>
<path d="M107.203 254.609C101.101 259.975 106.477 270.509 103.583 277.021C100.904 283.041 93.7277 291.847 95.0269 302.354" stroke="#E2EDFF" stroke-width="0.75" stroke-linecap="round" stroke-linejoin="round"/>
<path d="M130.176 260.611C130.176 260.611 121.772 248.437 110.582 252.656" stroke="#E2EDFF" stroke-width="0.75" stroke-linecap="round" stroke-linejoin="round"/>
<path d="M310.264 243.412H204.964C202.778 243.412 201.004 241.638 201.004 239.452V231.112C201.004 228.927 202.778 227.153 204.964 227.153H310.264C312.45 227.153 314.224 228.927 314.224 231.112V239.452C314.224 241.638 312.45 243.412 310.264 243.412Z" fill="white"/>
<mask id="mask18_222_24392" style="mask-type:luminance" maskUnits="userSpaceOnUse" x="201" y="227" width="114" height="17">
<path d="M310.264 243.412H204.964C202.778 243.412 201.004 241.638 201.004 239.452V231.112C201.004 228.927 202.778 227.153 204.964 227.153H310.264C312.45 227.153 314.224 228.927 314.224 231.112V239.452C314.224 241.638 312.45 243.412 310.264 243.412Z" fill="white"/>
</mask>
<g mask="url(#mask18_222_24392)">
<path opacity="0.3" d="M310.264 243.412H204.964C202.778 243.412 201.004 241.638 201.004 239.452V231.112C201.004 228.927 202.778 227.153 204.964 227.153H310.264C312.45 227.153 314.224 228.927 314.224 231.112V239.452C314.224 241.638 312.45 243.412 310.264 243.412Z" fill="#002E47"/>
</g>
<path d="M310.264 243.412H204.964C202.778 243.412 201.004 241.638 201.004 239.452V231.112C201.004 228.927 202.778 227.153 204.964 227.153H310.264C312.45 227.153 314.224 228.927 314.224 231.112V239.452C314.224 241.638 312.45 243.412 310.264 243.412Z" stroke="#002E47" stroke-width="0.75" stroke-miterlimit="10" stroke-linecap="round" stroke-linejoin="round"/>
</g>
<defs>
<clipPath id="clip0_222_24392">
<rect width="541" height="402" fill="white"/>
</clipPath>
</defs>
</svg>
