<svg width="478" height="473" viewBox="0 0 478 473" fill="none" xmlns="http://www.w3.org/2000/svg">
<path d="M385.059 23.8286C337.354 27.897 211.311 39.5645 140.672 34.5221C52.3528 28.2216 46.6217 19.5471 33.5468 47.1331C20.4617 74.7191 44.1771 148.823 45.8102 189.02C47.4433 229.217 59.7169 317.504 50.7197 370.322C41.7224 423.13 36.0015 438.116 40.0893 453.882C44.1771 469.648 55.6291 472.012 69.5257 472.012C83.4324 472.012 190.558 460.192 248.619 459.401C306.68 458.61 399.909 475.959 424.446 469.648C448.983 463.338 449.794 453.882 441.619 409.738C433.443 365.595 421.991 207.941 421.991 164.589C421.991 136.881 430.167 90.4956 430.167 54.2351C430.167 35.9323 426.079 20.3385 385.059 23.8286Z" fill="#39B4EF"/>
<path opacity="0.7" d="M385.059 23.8286C337.354 27.897 211.311 39.5645 140.672 34.5221C52.3528 28.2216 46.6217 19.5471 33.5468 47.1331C20.4617 74.7191 44.1771 148.823 45.8102 189.02C47.4433 229.217 59.7169 317.504 50.7197 370.322C41.7224 423.13 36.0015 438.116 40.0893 453.882C44.1771 469.648 55.6291 472.012 69.5257 472.012C83.4324 472.012 190.558 460.192 248.619 459.401C306.68 458.61 399.909 475.959 424.446 469.648C448.983 463.338 449.794 453.882 441.619 409.738C433.443 365.595 421.991 207.941 421.991 164.589C421.991 136.881 430.167 90.4956 430.167 54.2351C430.167 35.9323 426.079 20.3385 385.059 23.8286Z" fill="white"/>
<g opacity="0.3">
<path d="M59.7359 80.8571V78.1787C57.0682 78.1279 55.0902 77.2656 53.802 75.5814C52.5036 73.8972 51.7936 71.726 51.6719 69.0679L55.5467 68.0229C55.6278 69.1389 55.8003 70.2042 56.0741 71.239C56.348 72.2739 56.7943 73.116 57.4131 73.7755C58.0318 74.4349 58.9042 74.7596 60.0098 74.7596C61.1459 74.7596 62.0081 74.4451 62.5863 73.8059C63.1644 73.1769 63.4586 72.2638 63.4586 71.0666C63.4586 69.6462 63.134 68.4997 62.4848 67.6374C61.8356 66.775 61.0242 65.9024 60.0402 65.0198L54.7656 60.3629C54.0962 59.744 53.5281 59.0947 53.0818 58.4251C52.6254 57.7555 52.2906 57.0047 52.0776 56.1931C51.8545 55.3814 51.753 54.4582 51.753 53.4233C51.753 51.171 52.3819 49.4259 53.6498 48.1679C54.9178 46.9098 56.632 46.2503 58.8129 46.1692V43.5719H60.1721V46.1692C61.2575 46.2503 62.2109 46.4736 63.0224 46.8489C63.8339 47.2243 64.5237 47.7519 65.0815 48.4215C65.6394 49.0911 66.0756 49.9129 66.4002 50.8869C66.7248 51.8609 66.9378 52.987 67.0392 54.2857L63.3166 55.2901C63.2354 54.2553 63.0833 53.2914 62.85 52.3986C62.6167 51.5058 62.2109 50.7854 61.6328 50.2477C61.0546 49.6999 60.2127 49.4767 59.1273 49.5477C58.042 49.6288 57.1899 49.9332 56.5915 50.4811C55.9829 51.0289 55.6785 51.8609 55.6785 53.0073C55.6785 53.961 55.8408 54.7422 56.1654 55.351C56.49 55.9597 57.0073 56.5989 57.7377 57.2685L63.0529 61.9254C63.8238 62.6254 64.5541 63.4066 65.2438 64.269C65.9336 65.1314 66.4813 66.0952 66.9074 67.1605C67.3334 68.2258 67.5464 69.4128 67.5464 70.7318C67.5464 72.1522 67.2725 73.4001 66.7349 74.4755C66.1872 75.5509 65.4366 76.393 64.4628 77.0119C63.489 77.6308 62.3631 78.0062 61.0647 78.1381V80.8571H59.7359Z" stroke="#002E47"/>
<path d="M59.5947 89.4099C74.6083 89.4099 86.7792 77.2364 86.7792 62.2196C86.7792 47.2028 74.6083 35.0293 59.5947 35.0293C44.5811 35.0293 32.4102 47.2028 32.4102 62.2196C32.4102 77.2364 44.5811 89.4099 59.5947 89.4099Z" stroke="#002E47"/>
<path d="M59.596 86.5082C73.0074 86.5082 83.8795 75.6338 83.8795 62.2196C83.8795 48.8053 73.0074 37.9309 59.596 37.9309C46.1846 37.9309 35.3125 48.8053 35.3125 62.2196C35.3125 75.6338 46.1846 86.5082 59.596 86.5082Z" stroke="#002E47"/>
</g>
<g opacity="0.3">
<path d="M421.727 220.563V218.594C419.769 218.554 418.319 217.915 417.365 216.687C416.412 215.449 415.894 213.856 415.793 211.898L418.643 211.127C418.704 211.949 418.826 212.73 419.029 213.491C419.232 214.252 419.556 214.871 420.013 215.358C420.469 215.845 421.108 216.088 421.92 216.088C422.751 216.088 423.39 215.855 423.816 215.388C424.242 214.922 424.456 214.252 424.456 213.379C424.456 212.334 424.222 211.492 423.745 210.853C423.269 210.214 422.67 209.575 421.95 208.926L418.075 205.506C417.578 205.05 417.162 204.573 416.838 204.076C416.503 203.579 416.26 203.031 416.097 202.432C415.935 201.834 415.854 201.154 415.854 200.393C415.854 198.739 416.32 197.451 417.254 196.528C418.187 195.604 419.455 195.117 421.047 195.056V193.149H422.041V195.056C422.843 195.117 423.543 195.28 424.141 195.554C424.74 195.827 425.247 196.213 425.652 196.71C426.058 197.207 426.383 197.806 426.626 198.526C426.859 199.236 427.022 200.068 427.093 201.022L424.354 201.763C424.293 201.002 424.182 200.292 424.009 199.642C423.837 198.983 423.543 198.455 423.106 198.06C422.68 197.664 422.062 197.491 421.27 197.542C420.469 197.603 419.85 197.826 419.404 198.222C418.958 198.618 418.735 199.236 418.735 200.079C418.735 200.779 418.856 201.357 419.09 201.803C419.323 202.25 419.708 202.716 420.246 203.214L424.151 206.633C424.719 207.15 425.257 207.718 425.764 208.357C426.271 208.997 426.677 209.707 426.991 210.478C427.306 211.259 427.458 212.132 427.458 213.106C427.458 214.151 427.255 215.074 426.86 215.855C426.464 216.646 425.906 217.265 425.196 217.722C424.486 218.178 423.654 218.452 422.701 218.554V220.552H421.727V220.563Z" stroke="#002E47"/>
<path d="M421.626 226.853C432.667 226.853 441.618 217.9 441.618 206.856C441.618 195.812 432.667 186.859 421.626 186.859C410.584 186.859 401.633 195.812 401.633 206.856C401.633 217.9 410.584 226.853 421.626 226.853Z" stroke="#002E47"/>
<path d="M421.626 224.712C431.486 224.712 439.478 216.718 439.478 206.856C439.478 196.994 431.486 189 421.626 189C411.766 189 403.773 196.994 403.773 206.856C403.773 216.718 411.766 224.712 421.626 224.712Z" stroke="#002E47"/>
</g>
<g opacity="0.3">
<path d="M182.555 49.4766V47.5084C180.597 47.4678 179.147 46.8286 178.193 45.601C177.24 44.3632 176.723 42.7704 176.621 40.8122L179.471 40.0412C179.532 40.863 179.654 41.6442 179.857 42.4051C180.06 43.166 180.384 43.7849 180.841 44.2719C181.297 44.7589 181.936 45.0024 182.748 45.0024C183.58 45.0024 184.219 44.769 184.645 44.3023C185.071 43.8356 185.284 43.166 185.284 42.2935C185.284 41.2485 185.05 40.4064 184.574 39.7672C184.097 39.1281 183.498 38.4889 182.778 37.8396L178.903 34.4205C178.406 33.9639 177.99 33.4871 177.666 32.99C177.331 32.4928 177.088 31.945 176.925 31.3464C176.763 30.7478 176.682 30.068 176.682 29.3071C176.682 27.6534 177.149 26.3649 178.082 25.4416C179.015 24.5184 180.283 24.0314 181.875 23.9705V22.0631H182.869V23.9705C183.671 24.0314 184.371 24.1937 184.969 24.4676C185.568 24.7416 186.075 25.1271 186.481 25.6242C186.886 26.1214 187.211 26.72 187.454 27.4403C187.688 28.1505 187.85 28.9824 187.921 29.9361L185.182 30.6768C185.121 29.9158 185.01 29.2056 184.837 28.5563C184.665 27.8968 184.371 27.3693 183.935 26.9736C183.509 26.5779 182.89 26.4054 182.099 26.4562C181.297 26.517 180.678 26.7402 180.232 27.1461C179.786 27.5418 179.563 28.1606 179.563 29.0027C179.563 29.7028 179.684 30.2811 179.918 30.7275C180.151 31.1739 180.536 31.6406 181.074 32.1377L184.979 35.5568C185.547 36.0742 186.085 36.6424 186.592 37.2816C187.099 37.9207 187.505 38.6309 187.819 39.402C188.134 40.1832 188.286 41.0557 188.286 42.0297C188.286 43.0747 188.083 43.998 187.688 44.7792C187.292 45.5706 186.734 46.1894 186.024 46.646C185.314 47.1025 184.482 47.3765 183.529 47.4779V49.4766H182.555Z" stroke="#002E47"/>
<path d="M182.465 55.7669C193.507 55.7669 202.458 46.8139 202.458 35.7699C202.458 24.7258 193.507 15.7728 182.465 15.7728C171.424 15.7728 162.473 24.7258 162.473 35.7699C162.473 46.8139 171.424 55.7669 182.465 55.7669Z" stroke="#002E47"/>
<path d="M186.713 53.1094C196.29 50.7632 202.152 41.0962 199.806 31.5175C197.461 21.9387 187.796 16.0755 178.219 18.4217C168.642 20.7678 162.78 30.4348 165.126 40.0135C167.472 49.5923 177.137 55.4555 186.713 53.1094Z" stroke="#002E47"/>
</g>
<g opacity="0.3">
<path d="M57.6683 191.12V189.152C55.7106 189.111 54.2601 188.472 53.3066 187.244C52.3531 186.007 51.8358 184.414 51.7344 182.456L54.5847 181.684C54.6456 182.506 54.7673 183.288 54.9701 184.048C55.173 184.809 55.4976 185.428 55.9541 185.915C56.4105 186.402 57.0496 186.646 57.861 186.646C58.6928 186.646 59.3318 186.412 59.7579 185.946C60.1839 185.479 60.3969 184.809 60.3969 183.937C60.3969 182.892 60.1636 182.05 59.6869 181.411C59.2101 180.771 58.6117 180.132 57.8915 179.483L54.0167 176.064C53.5196 175.607 53.1037 175.13 52.7792 174.633C52.4444 174.136 52.201 173.588 52.0387 172.99C51.8764 172.391 51.7952 171.711 51.7952 170.95C51.7952 169.297 52.2618 168.008 53.195 167.085C54.1282 166.162 55.386 165.675 56.9887 165.614V163.706H57.9828V165.614C58.7841 165.675 59.484 165.837 60.0825 166.111C60.6809 166.385 61.1881 166.77 61.5938 167.268C61.9996 167.765 62.3242 168.363 62.5676 169.084C62.8009 169.794 62.9632 170.626 63.0342 171.579L60.2955 172.32C60.2346 171.559 60.123 170.849 59.9506 170.2C59.7781 169.54 59.484 169.013 59.0478 168.617C58.6218 168.221 58.003 168.049 57.2119 168.099C56.4105 168.16 55.7918 168.384 55.3455 168.789C54.8991 169.185 54.676 169.804 54.676 170.646C54.676 171.346 54.7977 171.924 55.031 172.371C55.2643 172.817 55.6498 173.284 56.1874 173.781L60.0926 177.2C60.6606 177.718 61.1982 178.286 61.7054 178.925C62.2126 179.564 62.6183 180.274 62.9328 181.045C63.2472 181.827 63.3994 182.699 63.3994 183.673C63.3994 184.718 63.1965 185.641 62.8009 186.423C62.4053 187.214 61.8474 187.833 61.1374 188.289C60.4273 188.746 59.5956 189.02 58.6421 189.121V191.12H57.6683Z" stroke="#002E47"/>
<path d="M57.567 197.41C68.6087 197.41 77.5598 188.457 77.5598 177.413C77.5598 166.369 68.6087 157.416 57.567 157.416C46.5253 157.416 37.5742 166.369 37.5742 177.413C37.5742 188.457 46.5253 197.41 57.567 197.41Z" stroke="#002E47"/>
<path d="M57.5674 195.27C67.427 195.27 75.4199 187.275 75.4199 177.413C75.4199 167.551 67.427 159.557 57.5674 159.557C47.7077 159.557 39.7148 167.551 39.7148 177.413C39.7148 187.275 47.7077 195.27 57.5674 195.27Z" stroke="#002E47"/>
</g>
<g opacity="0.3">
<path d="M327.351 452.989V450.077C324.45 450.016 322.289 449.073 320.889 447.247C319.479 445.41 318.708 443.046 318.566 440.145L322.796 438.998C322.877 440.205 323.07 441.382 323.364 442.509C323.658 443.635 324.145 444.558 324.825 445.278C325.505 445.999 326.448 446.354 327.655 446.354C328.892 446.354 329.836 446.009 330.465 445.319C331.094 444.629 331.418 443.635 331.418 442.336C331.418 440.784 331.063 439.536 330.363 438.592C329.663 437.649 328.771 436.695 327.706 435.741L321.954 430.669C321.224 429.989 320.605 429.289 320.118 428.558C319.621 427.828 319.256 427.016 319.023 426.123C318.779 425.241 318.668 424.226 318.668 423.1C318.668 420.645 319.358 418.737 320.737 417.368C322.117 415.998 323.993 415.278 326.357 415.186V412.356H327.838V415.186C329.024 415.267 330.059 415.521 330.941 415.927C331.824 416.333 332.575 416.911 333.183 417.642C333.792 418.372 334.269 419.265 334.624 420.33C334.979 421.385 335.212 422.623 335.323 424.033L331.266 425.129C331.185 424.003 331.012 422.948 330.759 421.984C330.505 421.01 330.059 420.229 329.43 419.64C328.791 419.052 327.888 418.798 326.701 418.879C325.515 418.961 324.592 419.305 323.932 419.894C323.273 420.482 322.938 421.406 322.938 422.643C322.938 423.688 323.111 424.541 323.466 425.2C323.821 425.86 324.389 426.56 325.18 427.29L330.972 432.363C331.814 433.124 332.615 433.976 333.356 434.92C334.106 435.863 334.705 436.918 335.171 438.065C335.638 439.221 335.871 440.52 335.871 441.951C335.871 443.503 335.577 444.862 334.989 446.029C334.4 447.196 333.569 448.119 332.514 448.799C331.459 449.479 330.221 449.884 328.811 450.026V452.989H327.351Z" stroke="#002E47"/>
<path d="M334.126 461.505C350.041 457.697 359.857 441.705 356.049 425.786C352.241 409.867 336.252 400.05 320.337 403.859C304.421 407.667 294.606 423.659 298.414 439.578C302.222 455.497 318.211 465.314 334.126 461.505Z" stroke="#002E47"/>
<path d="M327.2 459.137C341.81 459.137 353.654 447.291 353.654 432.677C353.654 418.064 341.81 406.218 327.2 406.218C312.59 406.218 300.746 418.064 300.746 432.677C300.746 447.291 312.59 459.137 327.2 459.137Z" stroke="#002E47"/>
</g>
<g opacity="0.3">
<path d="M123.137 432.911V430.943C121.179 430.902 119.729 430.263 118.775 429.035C117.822 427.797 117.305 426.205 117.203 424.246L120.053 423.475C120.114 424.297 120.236 425.078 120.439 425.839C120.642 426.6 120.966 427.219 121.423 427.706C121.879 428.193 122.518 428.437 123.33 428.437C124.162 428.437 124.801 428.203 125.227 427.737C125.653 427.27 125.866 426.6 125.866 425.728C125.866 424.683 125.632 423.841 125.156 423.201C124.679 422.562 124.08 421.923 123.36 421.274L119.485 417.855C118.988 417.398 118.572 416.921 118.248 416.424C117.913 415.927 117.67 415.379 117.507 414.781C117.345 414.182 117.264 413.502 117.264 412.741C117.264 411.088 117.731 409.799 118.664 408.876C119.597 407.953 120.855 407.466 122.457 407.405V405.497H123.452V407.405C124.253 407.466 124.953 407.628 125.551 407.902C126.15 408.176 126.657 408.561 127.063 409.058C127.468 409.556 127.793 410.154 128.036 410.874C128.27 411.585 128.432 412.417 128.503 413.37L125.764 414.111C125.703 413.35 125.592 412.64 125.419 411.991C125.247 411.331 124.953 410.803 124.517 410.408C124.091 410.012 123.472 409.84 122.681 409.89C121.879 409.951 121.261 410.174 120.814 410.57C120.368 410.966 120.145 411.585 120.145 412.427C120.145 413.127 120.266 413.705 120.5 414.152C120.733 414.598 121.119 415.065 121.656 415.562L125.561 418.981C126.129 419.498 126.667 420.066 127.174 420.706C127.681 421.345 128.087 422.055 128.402 422.826C128.716 423.607 128.868 424.48 128.868 425.454C128.868 426.499 128.665 427.422 128.27 428.203C127.874 428.995 127.316 429.613 126.606 430.07C125.896 430.527 125.064 430.801 124.111 430.902V432.901H123.137V432.911Z" stroke="#002E47"/>
<path d="M141.562 426.753C145.737 416.528 140.835 404.854 130.612 400.678C120.39 396.503 108.719 401.406 104.544 411.631C100.369 421.855 105.271 433.529 115.494 437.705C125.716 441.881 137.387 436.977 141.562 426.753Z" stroke="#002E47"/>
<path d="M127.316 436.545C136.886 434.171 142.72 424.488 140.347 414.916C137.974 405.344 128.292 399.509 118.722 401.882C109.152 404.256 103.318 413.94 105.692 423.512C108.065 433.084 117.747 438.919 127.316 436.545Z" stroke="#002E47"/>
</g>
<g opacity="0.3">
<path d="M415.313 67.6069V65.6386C413.355 65.598 411.905 64.9589 410.951 63.7312C409.998 62.4935 409.48 60.9006 409.379 58.9425L412.229 58.1714C412.29 58.9932 412.412 59.7744 412.615 60.5354C412.818 61.2963 413.142 61.9152 413.599 62.4022C414.055 62.8892 414.694 63.1326 415.506 63.1326C416.337 63.1326 416.976 62.8993 417.402 62.4326C417.828 61.9659 418.041 61.2963 418.041 60.4238C418.041 59.3788 417.808 58.5367 417.331 57.8975C416.855 57.2583 416.256 56.6192 415.536 55.9698L411.661 52.5507C411.164 52.0942 410.748 51.6173 410.424 51.1202C410.089 50.6231 409.846 50.0752 409.683 49.4766C409.521 48.878 409.44 48.1983 409.44 47.4373C409.44 45.7836 409.906 44.4951 410.84 43.5719C411.773 42.6486 413.041 42.1616 414.633 42.1007V40.1934H415.627V42.1007C416.429 42.1616 417.129 42.3239 417.727 42.5979C418.325 42.8718 418.833 43.2573 419.238 43.7545C419.644 44.2516 419.969 44.8502 420.212 45.5705C420.445 46.2807 420.608 47.1127 420.679 48.0664L417.94 48.807C417.879 48.0461 417.768 47.3359 417.595 46.6866C417.423 46.0271 417.129 45.4995 416.692 45.1038C416.266 44.7082 415.648 44.5357 414.856 44.5864C414.055 44.6473 413.436 44.8705 412.99 45.2662C412.544 45.6619 412.321 46.2807 412.321 47.1228C412.321 47.8229 412.442 48.4012 412.676 48.8476C412.909 49.294 413.294 49.7607 413.832 50.2578L417.737 53.6769C418.305 54.1943 418.843 54.7625 419.35 55.4017C419.857 56.0408 420.263 56.751 420.577 57.5221C420.892 58.3033 421.044 59.1758 421.044 60.1498C421.044 61.1948 420.841 62.1181 420.445 62.8993C420.05 63.6907 419.492 64.3095 418.782 64.7661C418.072 65.2226 417.24 65.4966 416.287 65.598V67.5967H415.313V67.6069Z" stroke="#002E47"/>
<path d="M415.223 73.8972C426.265 73.8972 435.216 64.9442 435.216 53.9001C435.216 42.8561 426.265 33.9031 415.223 33.9031C404.182 33.9031 395.23 42.8561 395.23 53.9001C395.23 64.9442 404.182 73.8972 415.223 73.8972Z" stroke="#002E47"/>
<path d="M431.749 60.6352C435.482 51.5071 431.11 41.0807 421.984 37.347C412.858 33.6133 402.433 37.9863 398.7 47.1144C394.967 56.2425 399.34 66.6689 408.466 70.4026C417.592 74.1363 428.016 69.7633 431.749 60.6352Z" stroke="#002E47"/>
</g>
<path d="M249.058 11.8972C248.388 11.8262 247.709 11.7552 247.039 11.6943" stroke="#263238" stroke-width="2" stroke-linejoin="round"/>
<path d="M242.981 11.3595C239.187 11.0958 235.353 10.9639 231.488 10.9639C141.779 10.9639 69.0508 83.7081 69.0508 173.436C69.0508 263.164 141.779 335.908 231.488 335.908C321.197 335.908 393.926 263.164 393.926 173.436C393.926 130.033 376.905 90.597 349.183 61.4587" stroke="#263238" stroke-width="2" stroke-linejoin="round" stroke-dasharray="4.01 4.01"/>
<path d="M347.772 59.9876C347.295 59.5006 346.828 59.0237 346.352 58.5469" stroke="#263238" stroke-width="2" stroke-linejoin="round"/>
<path d="M214.83 119.045L227.347 121.633L231.608 126.066L237.166 126.918L238.931 132.194L237.643 135.765L233.849 137.5L224.558 135.978L224.304 134.842L228.697 131.778L225.664 126.188L217.356 125.052L212.934 121.257L214.83 119.045Z" fill="#39B4EF"/>
<path d="M315.658 234.523L305.738 232.849L293.769 231.327L284.954 233.285L276.332 233.407L267.68 237.415L262.628 238.835L259.504 239.525L254.29 244.263L249.107 247.804L240.353 244.679L240.576 236.278L235.302 235.365L229.611 236.623L228.191 234.249L227.623 229.004L225.006 226.599L221.152 228.05L220.644 231.145L215.877 232.504L210.471 228.334L207.245 221.892L209.74 212.984L218.109 211.726L220.827 213.207L224.235 212.446L227.927 208.936L231.873 209.25L238.953 216.931L240.881 216.2L238.862 209.788L236.397 206.754L235.768 201.225L245.283 194.336L244.37 183.501L248.103 178.793L250.345 171.427L253.063 170.23L258.652 164.508L258.429 162.164L253.945 163.463L252.586 161.373L249.462 162.063L244.877 164.275L246.328 160.074L255.65 155.022L257.354 151.958L262.72 157.335L265.844 159.324L269.577 157.305L267.051 153.987L260.133 151.045L251.602 144.886L243.417 141.63L236.336 142.005L232.167 139.347L227.37 139.215L227.055 140.483L228.313 148.853L230.078 151.44L229.54 161.109L222.846 157.822L222.815 153.652L216.212 152.13L212.956 149.574L212.804 142.147L219.721 134.345L218.778 127.395L215.715 128.379L213.159 126.259L211.363 122.18L209.314 122.343L209.182 127.142L206.18 128.41L202.548 118.771L199.962 117.858L195.6 117.037L191.553 120.324L198.44 124.463L200.652 129.049L188.713 123.641L179.898 117.544L177.626 109.995L169.724 109.366L164.855 114.328C164.855 114.328 162.39 116.661 161.092 117.554C159.794 118.437 154.519 120.212 154.519 120.212L154.458 125.295L147.977 127.03L149.244 130.033L160.149 129.404L166.874 134.173L169.085 144.125L167.919 153.632L170.576 162.895L165.707 178.6L168.608 199.744L173.822 211.117L179.543 219.396L183.935 219.021L181.501 214.79L178.468 211.878L175.658 205.933L178.093 204.796L184.351 214.151L189.22 222.622L190.863 230.018L197.72 235.355L208.969 240.316L224.641 241.016L230.139 244.273L234.561 248.067L240.373 250.056L247.007 250.371L253.195 248.697C253.195 248.697 253.54 251.608 253.854 253.029C254.169 254.449 251.257 260.171 251.257 260.171L249.391 266.553L253.053 272.305L259.879 273.472L270.713 280.615L275.074 281.436L276.018 285.698L276.951 287.575C298.769 278.9 317.058 264.361 330.356 246.251L330.042 244.161L334.627 228.517L330.366 226.782L315.658 234.523Z" fill="#39B4EF"/>
<path d="M320.293 115.616L315.961 110.909L310.596 105.531L307.563 97.2525L312.868 96.9685L312.523 94.0567L308.76 94.5944L311.569 92.4739L314.541 89.7245L313.912 86.8837L309.49 83.0892L307.4 77.1337C279.465 55.1583 242.259 45.4185 204.85 53.7277C187.849 57.5019 172.462 64.6445 159.224 74.293L166.812 77.4787L163.972 83.4849L158.819 85.8184L159.955 93.6204L157.865 94.9799L155.715 98.7439L157.135 103.796L162.095 103.289L161.182 108.565L166.021 107.489L171.934 95.1321L171.782 90.3941L179.613 88.0606L180.85 84.2052L188.904 81.5167L188.681 76.4946L194.585 74.8814C194.585 74.8814 198.348 71.6551 199.2 71.4725C200.052 71.2797 204.353 71.8174 204.353 71.8174L209.374 74.2828L215.348 72.9537L219.771 68.6926L226.435 67.8099C226.435 67.8099 228.393 68.5708 229.813 68.2563C231.233 67.9418 235.057 64.9995 235.057 64.9995L244.44 68.2867L248.416 70.0927L249.359 74.3538L253.752 73.9784L254.604 71.1072L258.681 71.9899L258.904 74.3234L250.881 78.4932L257.099 83.6777L268.602 87.0968L274.13 91.8348L280.51 91.013L281.301 87.8577L283.452 86.7822L274.799 82.7341L270.123 83.1805L273.562 81.2224L269.078 77.1439L273.846 75.7844L280.855 77.8033L283.796 84.3168L287.742 87.32L292.134 95.0002L299.397 98.1656L301.477 107.55L308.962 110.361L309.368 113.557L309.338 117.442L312.178 122.18L313.314 124.615L318.335 124.392L319.532 119.056L320.293 115.616Z" fill="#39B4EF"/>
<path d="M317.625 86.1431L317.99 87.7765L317.574 92.6464L319.309 96.4409L322.687 96.8873L323.883 102.295L320.151 101.635L322.707 117.179L320.688 124.189L324.736 131.646L329.188 134.233L332.597 149.594L338.947 160.714L344.951 168.931L351.869 169.185L352.884 162.996L353.644 162.063C353.168 157.051 352.376 152.009 351.261 146.956C345.935 122.962 333.925 102.183 317.625 86.1431Z" fill="#39B4EF"/>
<path d="M251.553 98.957L230.952 94.8683L222.766 96.9887L221.975 102.833L217.745 99.9005L211.801 102.711L213.322 112.217L219.256 114.784L221.752 108.555L226.965 111.872L237.484 117.595L241.024 125.468L250.498 133.209L262.001 128.562L260.773 124.362L257.142 120.09L254.048 108.839L255.813 103.38L251.553 98.957Z" fill="#39B4EF"/>
<path d="M268.29 101.798L263.776 101.605L260.773 105.562L264.598 113.364L268.29 112.542V101.798Z" fill="#39B4EF"/>
<path d="M295.938 101.331L285.125 98.3584L282.386 95.3857L280.297 96.7453L283.553 101.991L286.9 109.001L291.546 109.762L292.144 108.433L288.635 104.74L296.658 105.947L295.938 101.331Z" fill="#39B4EF"/>
<path d="M235.709 222.44L234.816 223.83L243.915 224.499L248.216 227.715L253.744 227.086L255.043 223.515L248.246 223.83L235.709 222.44Z" fill="#39B4EF"/>
<path d="M262.212 222.226L256.613 225.26L257.973 227.34L265.367 225.696L266.28 223.109L263.785 223.961L262.212 222.226Z" fill="#39B4EF"/>
<path d="M318.188 260.157C366.071 212.264 366.071 134.613 318.188 86.719C270.304 38.8254 192.67 38.8254 144.787 86.719C96.9031 134.613 96.9031 212.264 144.787 260.157C192.67 308.051 270.304 308.051 318.188 260.157Z" stroke="#263238" stroke-width="2" stroke-miterlimit="10" stroke-linecap="round" stroke-linejoin="round"/>
<path d="M231.49 296.077C273.937 296.077 308.347 241.169 308.347 173.436C308.347 105.704 273.937 50.7957 231.49 50.7957C189.043 50.7957 154.633 105.704 154.633 173.436C154.633 241.169 189.043 296.077 231.49 296.077Z" stroke="#263238" stroke-miterlimit="10" stroke-linecap="round" stroke-linejoin="round"/>
<path d="M231.49 296.077C246.946 296.077 259.476 241.169 259.476 173.436C259.476 105.704 246.946 50.7957 231.49 50.7957C216.034 50.7957 203.504 105.704 203.504 173.436C203.504 241.169 216.034 296.077 231.49 296.077Z" stroke="#263238" stroke-miterlimit="10" stroke-linecap="round" stroke-linejoin="round"/>
<path d="M164.219 71.6653H299.401" stroke="#263238" stroke-miterlimit="10" stroke-linecap="round" stroke-linejoin="round"/>
<path d="M118.867 125.153H343.778" stroke="#263238" stroke-miterlimit="10" stroke-linecap="round" stroke-linejoin="round"/>
<path d="M164.219 275.085H299.401" stroke="#263238" stroke-miterlimit="10" stroke-linecap="round" stroke-linejoin="round"/>
<path d="M119.02 221.597H344.651" stroke="#263238" stroke-miterlimit="10" stroke-linecap="round" stroke-linejoin="round"/>
<path d="M354.101 173.436H108.883" stroke="#263238" stroke-miterlimit="10" stroke-linecap="round" stroke-linejoin="round"/>
<path d="M292.743 319.249C292.743 319.249 272.081 312.117 258.894 303.919C245.708 295.722 236.802 292.515 232.166 293.226C227.531 293.936 217.205 293.936 209.719 295.366C202.233 296.797 197.608 298.217 196.177 301.778C194.747 305.34 200.813 315.323 208.289 317.464C215.775 319.604 230.736 329.577 230.736 329.577C230.736 329.577 165.524 391.953 168.019 398.365C170.514 404.777 199.017 430.801 202.943 431.156C206.858 431.511 265.66 413.34 269.22 412.62C272.781 411.899 283.117 409.058 291.668 403.357C300.219 397.655 304.499 393.018 304.499 393.018L334.078 380.184L300.584 315.678L292.743 319.249Z" fill="white" stroke="#263238" stroke-miterlimit="10" stroke-linecap="round" stroke-linejoin="round"/>
<path d="M262.738 379.21C262.738 379.21 277.781 392.633 279.404 398.324C281.027 404.016 278.998 409.708 278.998 409.708L269.23 412.63L262.738 379.21Z" fill="#263238" stroke="#263238" stroke-miterlimit="10" stroke-linecap="round" stroke-linejoin="round"/>
<path d="M309.492 337.734L323.308 384.09L334.08 380.194L309.492 337.734Z" fill="#263238" stroke="#263238" stroke-miterlimit="10" stroke-linecap="round" stroke-linejoin="round"/>
<path d="M208.288 317.474C208.288 317.474 234.661 322.11 239.641 324.241C244.632 326.382 271.715 355.246 281.331 364.154C290.947 373.062 295.938 386.961 296.293 395.869C296.648 404.777 293.087 416.536 288.452 418.321C283.816 420.107 280.611 417.611 279.191 414.04C277.761 410.479 277.05 403.701 277.05 403.701L271.35 391.943C271.35 391.943 272.06 399.075 270.64 405.842C269.21 412.609 266.724 426.874 261.024 430.435C255.323 433.996 248.547 431.866 247.837 430.08C247.127 428.295 246.407 425.089 246.407 425.089C246.407 425.089 244.622 431.501 239.276 433.286C233.931 435.072 226.445 432.931 226.445 432.931C226.445 432.931 220.389 440.063 215.398 438.633C210.408 437.202 205.417 431.866 205.417 431.866C205.417 431.866 188.67 421.527 173.344 410.834C158.017 400.14 130.589 366.639 130.589 366.639L117.402 358.442L157.672 302.134L174.774 312.827L208.288 317.474Z" fill="white" stroke="#263238" stroke-miterlimit="10" stroke-linecap="round" stroke-linejoin="round"/>
<path d="M162.724 317.808L135.042 371.083L130.609 366.65L162.724 317.808Z" fill="#263238" stroke="#263238" stroke-miterlimit="10" stroke-linecap="round" stroke-linejoin="round"/>
<path d="M216.128 295.011C216.128 295.011 201.147 294.616 197.596 296.077C191.541 298.572 191.186 306.77 191.186 308.19C191.186 309.621 186.905 321.025 186.195 325.296C185.485 329.577 190.476 331.708 201.877 327.792C213.278 323.876 216.483 318.884 216.483 308.19" fill="white"/>
<path d="M216.128 295.011C216.128 295.011 201.147 294.616 197.596 296.077C191.541 298.572 191.186 306.77 191.186 308.19C191.186 309.621 186.905 321.025 186.195 325.296C185.485 329.577 190.476 331.708 201.877 327.792C213.278 323.876 216.483 318.884 216.483 308.19" stroke="#263238" stroke-miterlimit="10" stroke-linecap="round" stroke-linejoin="round"/>
<path d="M187.273 322.82C187.273 322.82 189.059 320.68 191.909 321.035C194.759 321.39 200.46 320.68 200.815 316.398C201.17 312.117 199.75 309.986 196.9 309.986C194.049 309.986 191.554 311.772 191.554 311.772L187.273 322.82Z" stroke="#263238" stroke-miterlimit="10" stroke-linecap="round" stroke-linejoin="round"/>
<path d="M252.484 363.515C254.148 366.396 255.801 370.88 258.895 374.492C270.215 387.702 271.372 391.953 271.372 391.953" stroke="#263238" stroke-miterlimit="10" stroke-linecap="round" stroke-linejoin="round"/>
<path d="M249.27 352.04L249.98 359.172C249.98 359.172 250.456 360.014 251.268 361.425" stroke="#263238" stroke-miterlimit="10" stroke-linecap="round" stroke-linejoin="round"/>
<path d="M230.027 371.286L230.382 379.839C230.382 379.839 244.989 408.348 247.129 411.554C249.27 414.76 247.839 423.313 246.419 425.099" stroke="#263238" stroke-miterlimit="10" stroke-linecap="round" stroke-linejoin="round"/>
<path d="M214.141 405.609C216.058 408.805 218.137 412.011 220.054 414.415C225.755 421.548 226.465 432.951 226.465 432.951" stroke="#263238" stroke-miterlimit="10" stroke-linecap="round" stroke-linejoin="round"/>
<path d="M207.223 388.392V393.028C207.223 393.028 209.363 397.3 212.234 402.342" stroke="#263238" stroke-miterlimit="10" stroke-linecap="round" stroke-linejoin="round"/>
<path d="M149.648 392.582C149.648 392.582 141.056 390.177 138.652 387.083C136.248 383.988 135.214 374.188 135.041 371.093C134.869 367.999 132.982 364.905 136.755 363.525C140.539 362.145 145.519 366.274 147.416 370.403C149.303 374.533 149.475 380.204 149.475 381.067C149.475 381.929 152.397 386.565 152.397 386.565C152.397 386.565 155.146 391.892 149.648 392.582Z" fill="white" stroke="#263238" stroke-miterlimit="10" stroke-linecap="round" stroke-linejoin="round"/>
<path d="M136.034 377.637C136.034 377.637 139.098 380.701 141.309 380.529C143.52 380.356 141.989 372.879 141.989 372.879C141.989 372.879 139.605 372.372 137.739 370.667C135.872 368.963 134.848 367.776 134.848 367.776L136.034 377.637Z" fill="white" stroke="#263238" stroke-miterlimit="10" stroke-linecap="round" stroke-linejoin="round"/>
<path d="M165.635 409.424C165.635 409.424 156.527 411.311 154.295 408.216C152.063 405.122 147.59 392.744 147.763 388.442C147.935 384.141 159.276 373.66 164.946 369.358C170.616 365.057 174.227 363.687 177.666 365.747C181.104 367.806 183.853 370.393 182.819 373.995C181.784 377.607 173.537 393.079 172.158 395.828C170.778 398.578 169.409 408.206 169.409 408.206L165.635 409.424Z" fill="white" stroke="#263238" stroke-miterlimit="10" stroke-linecap="round" stroke-linejoin="round"/>
<path d="M162.196 372.291C162.196 372.291 158.413 375.902 160.31 378.652C162.196 381.401 167.014 383.978 169.073 383.299C171.133 382.609 177.837 375.557 179.045 373.325C180.252 371.093 172.857 365.757 172.857 365.757C172.857 365.757 167.014 367.309 162.196 372.291Z" fill="white" stroke="#263238" stroke-miterlimit="10" stroke-linecap="round" stroke-linejoin="round"/>
<path d="M180.528 422.654C180.528 422.654 170.577 424.723 168.133 421.335C165.688 417.956 160.809 404.432 161.002 399.735C161.194 395.037 173.58 383.583 179.777 378.885C185.975 374.188 189.921 372.686 193.674 374.939C197.427 377.191 200.429 380.011 199.303 383.958C198.177 387.905 189.16 404.807 187.659 407.81C186.157 410.814 184.656 421.335 184.656 421.335L180.528 422.654Z" fill="white" stroke="#263238" stroke-miterlimit="10" stroke-linecap="round" stroke-linejoin="round"/>
<path d="M176.774 382.091C176.774 382.091 172.645 386.038 174.704 389.041C176.774 392.044 182.028 394.865 184.28 394.114C186.532 393.363 193.855 385.663 195.174 383.217C196.493 380.772 188.418 374.959 188.418 374.959C188.418 374.959 182.028 376.643 176.774 382.091Z" fill="white" stroke="#263238" stroke-miterlimit="10" stroke-linecap="round" stroke-linejoin="round"/>
<path d="M199.879 428.64C199.879 428.64 197.252 420.767 197.252 420.056C197.252 419.336 202.019 407.892 201.542 402.88C201.066 397.868 197.008 392.146 194.391 393.576C191.764 395.007 186.997 399.065 182.706 405.497C178.415 411.94 176.985 416.942 178.415 419.336C179.845 421.72 188.427 430.78 192.007 432.221C195.588 433.651 202.942 431.166 202.942 431.166L199.879 428.64Z" fill="white" stroke="#263238" stroke-miterlimit="10" stroke-linecap="round" stroke-linejoin="round"/>
<path d="M183.184 407.648C183.184 407.648 186.287 409.556 188.428 409.556C190.578 409.556 196.056 404.544 195.822 399.542C195.579 394.53 192.485 395.727 192.485 395.727C192.485 395.727 184.137 401.926 183.184 407.648Z" fill="white" stroke="#263238" stroke-miterlimit="10" stroke-linecap="round" stroke-linejoin="round"/>
<path d="M297.754 313.385L334.534 393.028L356.606 383.502L318.092 304.295L297.754 313.385Z" fill="white" stroke="#263238" stroke-miterlimit="10" stroke-linecap="round" stroke-linejoin="round"/>
<path d="M475.976 208.692L310.738 305.593L365.371 417.256L475.976 362.064V208.692Z" fill="#263238" stroke="#263238" stroke-miterlimit="10" stroke-linecap="round" stroke-linejoin="round"/>
<path d="M169.247 307.328L119.047 385.236L100.008 375.71L152.794 297.375L169.247 307.328Z" fill="white" stroke="#263238" stroke-miterlimit="10" stroke-linecap="round" stroke-linejoin="round"/>
<path d="M2.91406 197.917V363.687L84.5792 414.314L160.584 297.811L2.91406 197.917Z" fill="#39B4EF" stroke="#263238" stroke-miterlimit="10" stroke-linecap="round" stroke-linejoin="round"/>
</svg>
