<svg width="406" height="370" viewBox="0 0 406 370" fill="none" xmlns="http://www.w3.org/2000/svg">
<path d="M58.4841 18.2575C62.8018 15.2699 67.3529 12.6034 72.118 10.3261C106.455 -6.11084 148.611 -0.699975 181.616 18.2867C214.622 37.2734 239.322 68.308 257.293 101.883C265.5 117.23 272.852 133.715 286.039 145.053C303.047 159.68 326.026 162.979 346.292 170.949C419.994 199.911 420.84 306.114 356.24 345.771C330.772 361.4 299.322 366.12 270.061 368.3C229.529 371.326 188.249 369.779 149.107 358.821C109.956 347.873 72.9251 327.027 46.7272 295.925C12.4287 255.178 -0.796729 199.784 0.934242 146.542C1.80945 119.595 6.3411 92.4234 17.7285 67.9869C26.8794 48.3384 40.766 30.5293 58.4841 18.2575Z" fill="#39B4EF"/>
<path opacity="0.7" d="M58.4841 18.2575C62.8018 15.2699 67.3529 12.6034 72.118 10.3261C106.455 -6.11084 148.611 -0.699975 181.616 18.2867C214.622 37.2734 239.322 68.308 257.293 101.883C265.5 117.23 272.852 133.715 286.039 145.053C303.047 159.68 326.026 162.979 346.292 170.949C419.994 199.911 420.84 306.114 356.24 345.771C330.772 361.4 299.322 366.12 270.061 368.3C229.529 371.326 188.249 369.779 149.107 358.821C109.956 347.873 72.9251 327.027 46.7272 295.925C12.4287 255.178 -0.796729 199.784 0.934242 146.542C1.80945 119.595 6.3411 92.4234 17.7285 67.9869C26.8794 48.3384 40.766 30.5293 58.4841 18.2575Z" fill="white"/>
<path opacity="0.2" d="M379.364 76.0351L9.2966 79.013C9.2966 79.013 6.02915 159.689 9.89952 192.758C13.7699 225.827 9.2966 336.876 9.2966 336.876C9.2966 336.876 68.947 342.773 135.512 340.321L111.054 356.408C111.054 356.408 109.518 364.407 116.442 369.643L129.414 365.643L133.683 369.643L144.585 365.915C144.585 365.915 149.048 352.398 140.004 340.136C207.123 337.372 271.208 331.027 271.208 331.027C271.208 331.027 315.357 327.683 312.644 331.027C326.044 344.398 320.785 348.593 320.785 348.593L361.393 340.204L386.551 336.866C386.551 336.866 381.504 273.629 386.551 235.48C391.608 197.351 379.364 76.0351 379.364 76.0351Z" fill="#002E47"/>
<path d="M376.601 322.638C376.601 322.638 239.582 319.806 181.458 322.638C139.847 324.662 14.8085 322.638 14.8085 322.638C14.8085 322.638 17.3758 231.13 14.8085 184.788C13.1651 155.213 14.8085 66.3033 14.8085 66.3033C14.8085 66.3033 147.908 66.566 190.697 64.9019C261.52 62.1575 376.601 66.3033 376.601 66.3033C376.601 66.3033 379.362 129.91 376.601 167.777C373.781 206.392 376.601 322.638 376.601 322.638Z" fill="white"/>
<mask id="mask0_222_24811" style="mask-type:luminance" maskUnits="userSpaceOnUse" x="14" y="63" width="364" height="261">
<path d="M376.601 322.638C376.601 322.638 239.582 319.806 181.458 322.638C139.847 324.662 14.8085 322.638 14.8085 322.638C14.8085 322.638 17.3758 231.13 14.8085 184.788C13.1651 155.213 14.8085 66.3033 14.8085 66.3033C14.8085 66.3033 147.908 66.566 190.697 64.9019C261.52 62.1575 376.601 66.3033 376.601 66.3033C376.601 66.3033 379.362 129.91 376.601 167.777C373.781 206.392 376.601 322.638 376.601 322.638Z" fill="white"/>
</mask>
<g mask="url(#mask0_222_24811)">
<path opacity="0.5" d="M376.601 66.3033V124.373C352.046 123.76 284.043 122.514 194.898 124.655C100.287 126.923 33.7617 125.385 14.8086 124.83V66.3033C14.8086 66.3033 147.909 66.566 190.697 64.9019C261.511 62.1575 376.601 66.3033 376.601 66.3033Z" fill="#39B4EF"/>
</g>
<mask id="mask1_222_24811" style="mask-type:luminance" maskUnits="userSpaceOnUse" x="14" y="63" width="364" height="261">
<path d="M376.601 322.638C376.601 322.638 239.582 319.806 181.458 322.638C139.847 324.662 14.8085 322.638 14.8085 322.638C14.8085 322.638 17.3758 231.13 14.8085 184.788C13.1651 155.213 14.8085 66.3033 14.8085 66.3033C14.8085 66.3033 147.908 66.566 190.697 64.9019C261.52 62.1575 376.601 66.3033 376.601 66.3033C376.601 66.3033 379.362 129.91 376.601 167.777C373.781 206.392 376.601 322.638 376.601 322.638Z" fill="white"/>
</mask>
<g mask="url(#mask1_222_24811)">
<path opacity="0.2" d="M239.408 318.823L236.092 121.58H195.706C193.907 152.614 195.093 277.512 195.55 318.823C195.55 318.823 211.693 318.823 217.071 318.823C222.662 318.823 239.408 318.823 239.408 318.823Z" fill="#39B4EF"/>
</g>
<mask id="mask2_222_24811" style="mask-type:luminance" maskUnits="userSpaceOnUse" x="14" y="63" width="364" height="261">
<path d="M376.601 322.638C376.601 322.638 239.582 319.806 181.458 322.638C139.847 324.662 14.8085 322.638 14.8085 322.638C14.8085 322.638 17.3758 231.13 14.8085 184.788C13.1651 155.213 14.8085 66.3033 14.8085 66.3033C14.8085 66.3033 147.908 66.566 190.697 64.9019C261.52 62.1575 376.601 66.3033 376.601 66.3033C376.601 66.3033 379.362 129.91 376.601 167.777C373.781 206.392 376.601 322.638 376.601 322.638Z" fill="white"/>
</mask>
<g mask="url(#mask2_222_24811)">
<path opacity="0.2" d="M19.3789 124.957L63.7423 124.655C63.7423 124.655 67.1362 277.239 59.4149 318.823H21.9365C21.9365 318.823 22.4519 263.235 21.9365 217.37C21.4211 171.494 19.3789 124.957 19.3789 124.957Z" fill="#39B4EF"/>
</g>
<mask id="mask3_222_24811" style="mask-type:luminance" maskUnits="userSpaceOnUse" x="14" y="63" width="364" height="261">
<path d="M376.601 322.638C376.601 322.638 239.582 319.806 181.458 322.638C139.847 324.662 14.8085 322.638 14.8085 322.638C14.8085 322.638 17.3758 231.13 14.8085 184.788C13.1651 155.213 14.8085 66.3033 14.8085 66.3033C14.8085 66.3033 147.908 66.566 190.697 64.9019C261.52 62.1575 376.601 66.3033 376.601 66.3033C376.601 66.3033 379.362 129.91 376.601 167.777C373.781 206.392 376.601 322.638 376.601 322.638Z" fill="white"/>
</mask>
<g mask="url(#mask3_222_24811)">
<path d="M19.3789 94.2432C19.3789 94.2432 129.257 92.6958 162.485 94.2432C195.704 95.7906 287.067 93.0949 300.438 92.2579C313.809 91.421 374.335 94.2432 374.335 94.2432C376.61 76.035 372.283 67.7047 372.283 67.7047C372.283 67.7047 210.194 69.8164 131.717 70.8675C53.2398 71.9185 19.3886 70.8675 19.3886 70.8675C19.3886 70.8675 20.9251 85.2608 19.3789 94.2432Z" fill="#39B4EF"/>
</g>
<path d="M376.601 322.638C376.601 322.638 239.582 319.806 181.458 322.638C139.847 324.662 14.8085 322.638 14.8085 322.638C14.8085 322.638 17.3758 231.13 14.8085 184.788C13.1651 155.213 14.8085 66.3033 14.8085 66.3033C14.8085 66.3033 147.908 66.566 190.696 64.9019C261.52 62.1575 376.601 66.3033 376.601 66.3033C376.601 66.3033 379.362 129.91 376.601 167.777C373.781 206.392 376.601 322.638 376.601 322.638Z" stroke="#002E47" stroke-miterlimit="10" stroke-linecap="round" stroke-linejoin="round"/>
<path d="M24.8867 96.5497C24.8867 96.5497 66.819 95.012 114.907 96.5497C162.995 98.0873 236.123 97.1044 275.158 95.8684C314.192 94.6325 361.405 94.2432 361.405 94.2432" stroke="#002E47" stroke-miterlimit="10" stroke-linecap="round" stroke-linejoin="round"/>
<path d="M24.8867 124.655C24.8867 124.655 329.372 121.58 361.405 121.58" stroke="#002E47" stroke-miterlimit="10" stroke-linecap="round" stroke-linejoin="round"/>
<path d="M63.7461 94.2432C63.7461 94.2432 67.9763 264.793 63.7461 298.289" stroke="#002E47" stroke-miterlimit="10" stroke-linecap="round" stroke-linejoin="round"/>
<path d="M105.679 94.2432C105.679 94.2432 104.142 281.989 105.679 295.146" stroke="#002E47" stroke-miterlimit="10" stroke-linecap="round" stroke-linejoin="round"/>
<path d="M149.535 94.2432C149.535 94.2432 151.072 131.205 151.461 163.923C151.85 196.641 149.535 293.589 151.461 304.411" stroke="#002E47" stroke-miterlimit="10" stroke-linecap="round" stroke-linejoin="round"/>
<path d="M195.709 95.7906C195.709 95.7906 193.365 208.202 194.338 246.701C195.31 285.2 195.709 305.987 195.709 305.987" stroke="#002E47" stroke-miterlimit="10" stroke-linecap="round" stroke-linejoin="round"/>
<path d="M236.094 94.2432C236.094 94.2432 239.945 227.88 239.556 256.54C239.167 285.2 239.585 301.199 239.585 301.199" stroke="#002E47" stroke-miterlimit="10" stroke-linecap="round" stroke-linejoin="round"/>
<path d="M279.952 92.2579C279.952 92.2579 279.709 171.037 282.188 192.992C284.668 214.946 281.06 305.987 281.06 305.987" stroke="#002E47" stroke-miterlimit="10" stroke-linecap="round" stroke-linejoin="round"/>
<path d="M323.051 92.2579C323.051 92.2579 324.704 132.567 324.957 155.096C325.21 177.625 324.189 292.557 326.882 301.199" stroke="#002E47" stroke-miterlimit="10" stroke-linecap="round" stroke-linejoin="round"/>
<path d="M24.8867 148.527C24.8867 148.527 88.1741 147.369 128.278 148.527C128.278 148.527 128.181 159.31 128.278 163.543C128.278 163.543 34.9614 162.774 24.8867 163.543C24.8867 163.543 25.655 151.223 24.8867 148.527Z" fill="white" stroke="#002E47" stroke-width="2" stroke-miterlimit="10" stroke-linecap="round" stroke-linejoin="round"/>
<path d="M237.543 148.011V163.543C237.543 163.543 316.506 162.774 324.967 161.237L324.811 146.221C324.811 146.211 265.55 145.578 237.543 148.011Z" fill="white" stroke="#002E47" stroke-width="2" stroke-miterlimit="10" stroke-linecap="round" stroke-linejoin="round"/>
<path d="M104.984 167.776H194.898L194.334 182.121C194.334 182.121 156.447 182.987 136.064 183.464C115.672 183.941 105.675 184.612 105.675 184.612L104.984 167.776Z" fill="#39B4EF" stroke="#002E47" stroke-width="2" stroke-miterlimit="10" stroke-linecap="round" stroke-linejoin="round"/>
<path d="M326.883 163.543L327.252 174.326C327.252 174.326 355.23 172.399 359.324 172.788V162.006C359.324 161.996 334.585 161.616 326.883 163.543Z" fill="#39B4EF" stroke="#002E47" stroke-width="2" stroke-miterlimit="10" stroke-linecap="round" stroke-linejoin="round"/>
<path d="M194.898 202.062C194.898 202.062 271.731 200.271 282.185 196.729V218.177C282.185 218.177 207.112 218.479 194.09 220.844C194.1 220.844 193.342 206.314 194.898 202.062Z" fill="white" stroke="#002E47" stroke-width="2" stroke-miterlimit="10" stroke-linecap="round" stroke-linejoin="round"/>
<path d="M200.19 201.925C200.19 201.925 192.848 213.263 194.336 214.713C195.824 216.163 203.292 202.422 205.568 202.062C207.853 201.701 197.613 220.961 198.644 221.642C199.665 222.323 212.511 201.273 215.574 201.312C218.637 201.351 208.796 219.627 210.751 219.54C212.715 219.452 221.759 201.633 225.056 201.312C228.362 200.981 217.393 219.267 219.931 219.189C222.469 219.112 232.65 199.648 234.751 200.719C236.851 201.789 224.297 217.662 227.623 218.966C230.949 220.27 239.448 201.945 243.523 201.02C247.597 200.096 234.099 217.71 238.048 218.177C241.986 218.644 247.889 199.814 250.962 201.312C254.035 202.811 245.322 213.263 246.605 213.944C247.889 214.625 251.993 201.351 256.096 201.312C260.2 201.273 251.224 213.263 252.245 214.713C253.267 216.163 257.39 211.17 257.39 211.17" stroke="#39B4EF" stroke-width="2" stroke-miterlimit="10" stroke-linecap="round" stroke-linejoin="round"/>
<path d="M28.7256 148.459C28.7256 148.459 25.4581 156.225 26.2263 156.604C26.9946 156.994 30.0773 148.907 33.1502 149.286C36.2232 149.675 27.6461 163.397 29.6299 163.358C31.604 163.319 38.3431 147.622 40.4631 148.459C42.583 149.296 35.4549 161.509 36.8067 162.385C38.1584 163.251 44.8878 147.564 46.998 148.43C49.1179 149.296 41.0368 161.811 43.1471 161.811C45.267 161.811 52.1909 148.167 54.3011 148.157C56.4113 148.138 47.7565 160.04 49.8765 161.626C51.9964 163.212 57.1893 146.629 60.2623 148.157C63.3352 149.685 55.6431 160.809 57.9575 162.006C60.2623 163.203 66.2234 147.204 68.1489 148.06C70.0743 148.916 62.4017 163.212 63.7242 163.212C65.0467 163.212 73.5266 146.756 75.452 148.031C77.3775 149.306 68.3337 163.222 70.0646 163.222C71.7956 163.222 80.8394 146.347 83.1441 147.184C85.4489 148.021 77.183 160.273 79.2932 161.042C81.4034 161.811 86.4116 152.381 87.3743 152.381C88.3371 152.381 84.0096 161.042 85.2057 161.042C86.4116 161.042 91.0307 146.581 93.3355 148.031C95.6402 149.49 90.6418 157.578 91.7893 157.957C92.9368 158.337 100.25 147.564 102.37 149.101C104.49 150.639 94.094 163.31 97.3712 163.329C100.639 163.349 106.221 149.296 108.914 149.481C111.608 149.675 103.527 161.996 105.647 162.19C107.767 162.385 111.997 148.332 114.302 149.101C116.606 149.87 111.034 159.689 112.571 160.264C114.107 160.838 117.375 150.444 120.068 150.639C122.762 150.833 115.07 160.653 118.337 161.032C121.605 161.422 122.762 150.065 126.029 150.444C129.297 150.833 121.896 160.857 123.666 162.19C125.446 163.514 128.198 157.188 128.198 157.188" stroke="#39B4EF" stroke-width="2" stroke-miterlimit="10" stroke-linecap="round" stroke-linejoin="round"/>
<path d="M26.0703 172.195C27.5679 171.562 29.0655 170.92 30.5631 170.287C30.5144 171.757 30.213 173.226 29.6684 174.589C30.9618 174.316 32.0315 173.178 32.2162 171.864C32.0509 172.389 31.8856 172.915 31.7203 173.44C33.1206 173.431 34.5112 173.421 35.9116 173.401C35.7657 172.944 35.9796 172.409 36.3881 172.166C35.9407 172.565 36.213 173.382 36.7479 173.654C37.2827 173.927 37.9343 173.82 38.5177 173.674C39.9959 173.304 41.4254 172.74 42.7576 172C42.4465 172.925 43.1175 173.946 43.9927 174.365C44.8679 174.793 45.8792 174.764 46.8517 174.735C51.043 174.598 55.2342 174.472 59.4255 174.336" stroke="#002E47" stroke-width="2" stroke-miterlimit="10" stroke-linecap="round" stroke-linejoin="round"/>
<path d="M24.9805 180.963C24.9805 180.963 26.7114 178.725 28.2479 178.978C29.7844 179.231 28.8217 181.732 29.4051 182.121C29.9886 182.51 30.9416 176.993 31.9043 178.978C32.8671 180.963 34.4036 182.141 34.4036 182.141C34.4036 182.141 36.5235 179.912 37.0973 180.34C37.671 180.768 38.8282 180.34 38.8282 180.34H41.9012H43.6322H56.7117" stroke="#002E47" stroke-width="2" stroke-miterlimit="10" stroke-linecap="round" stroke-linejoin="round"/>
<path d="M81.4325 170.297C81.4325 170.297 66.9721 217.516 187.994 212.406" stroke="#002E47" stroke-width="2" stroke-miterlimit="10" stroke-linecap="round" stroke-linejoin="round"/>
<path d="M188.004 209.01L191.077 212.786L188.004 214.713" stroke="#002E47" stroke-width="2" stroke-miterlimit="10" stroke-linecap="round" stroke-linejoin="round"/>
<path d="M115.672 213.934C105.665 209.312 87.5385 212.445 74.07 220.912C60.6015 229.379 57.8495 257.095 107.124 249.017C156.398 240.94 125.241 218.177 107.979 218.177" fill="white"/>
<path d="M115.672 213.934C105.665 209.312 87.5385 212.445 74.07 220.912C60.6015 229.379 57.8495 257.095 107.124 249.017C156.398 240.94 125.241 218.177 107.979 218.177" stroke="#39B4EF" stroke-width="2" stroke-miterlimit="10" stroke-linecap="round" stroke-linejoin="round"/>
<path d="M76.5781 228.95C76.5781 228.95 79.5927 226.216 80.8958 226.06C82.1989 225.904 78.4355 228.581 80.8958 228.98C83.3561 229.379 82.8796 227.977 85.233 227.52C87.5863 227.062 88.3546 229.7 88.3546 229.7C88.3546 229.7 92.2055 228.376 94.5102 227.724C96.8149 227.072 95.2784 230.799 98.3611 229.7C101.434 228.61 100.073 226.839 104.984 227.724C109.894 228.61 119.415 228.055 123.703 227.753" stroke="#39B4EF" stroke-width="2" stroke-miterlimit="10" stroke-linecap="round" stroke-linejoin="round"/>
<path d="M80.8984 237.115C81.8223 234.76 80.665 234.313 83.3587 235.5C86.0524 236.687 87.5889 238.312 88.7461 237.115C89.9034 235.918 91.4399 235.714 92.5971 236.201C93.7543 236.687 91.0606 237.456 93.7543 236.687C96.448 235.918 97.9845 234.429 97.9845 234.429C97.9845 234.429 97.3135 236.064 100.143 237.534C102.983 238.994 104.986 235.987 104.986 235.987C104.986 235.987 112.98 235.685 117.978 236.191" stroke="#39B4EF" stroke-width="2" stroke-miterlimit="10" stroke-linecap="round" stroke-linejoin="round"/>
<path d="M107.535 353.751L117.824 342.472V339.533L125.701 332.37C125.701 332.37 135.289 335.689 139.869 347.376L131.545 354.403L128.365 354.811L116.083 363.551C116.083 363.56 107.535 360.621 107.535 353.751Z" fill="#002E47"/>
<path opacity="0.3" d="M125.992 334.55C125.992 334.55 129.503 345.012 138.566 347.133" stroke="white" stroke-miterlimit="10" stroke-linecap="round" stroke-linejoin="round"/>
<path opacity="0.3" d="M119.457 342.637C119.457 342.637 122.637 351.055 129.415 353.751" stroke="white" stroke-miterlimit="10" stroke-linecap="round" stroke-linejoin="round"/>
<path opacity="0.2" d="M239.586 48.6206L243.68 43.9397H253.191C253.191 43.9397 256.925 43.239 260.358 40.8255C260.358 40.8255 256.74 37.1371 252.384 37.0106H244.176L222.247 33.0303L100.146 43.9299C100.146 43.9299 97.073 51.511 102.334 58.8195L239.586 48.6206Z" fill="#002E47"/>
<path opacity="0.2" d="M294.509 58.8195L297.777 56.0071L308.415 55.8903C309.572 50.6546 308.649 45.4481 308.649 45.4481L279.592 35.3465C272.133 40.008 275.157 58.8293 275.157 58.8293H294.509V58.8195Z" fill="#002E47"/>
<path d="M251.848 26.1597C251.848 26.1597 256.972 25.5174 259.929 27.8919C259.929 27.8919 259.54 30.9088 251.848 31.6776V26.1597Z" fill="#39B4EF" stroke="#002E47" stroke-miterlimit="10" stroke-linecap="round" stroke-linejoin="round"/>
<path d="M242.416 24.8167L235.735 20.2817L100.009 31.2007C94.048 40.8547 101.487 50.4015 101.487 50.4015L238.069 39.064L242.863 34.3636L252.335 32.7286C252.335 32.7286 253.19 31.2202 253.19 28.9138C253.19 26.2181 251.916 24.8945 251.916 24.8945L242.416 24.8167Z" fill="#002E47"/>
<path d="M144.828 28.8846L205.354 23.9214C205.859 25.1476 205.033 26.5198 203.701 26.6366L146.958 31.5024C145.81 31.5998 144.828 30.6947 144.828 29.5464V28.8846Z" fill="#39B4EF"/>
<path opacity="0.3" d="M235.617 22.374C235.617 22.374 239.974 27.2496 236.901 37.0009" stroke="white" stroke-miterlimit="10" stroke-linecap="round" stroke-linejoin="round"/>
<path opacity="0.3" d="M242.902 26.0818C242.902 26.0818 244.157 28.8846 243.476 32.2518" stroke="white" stroke-miterlimit="10" stroke-linecap="round" stroke-linejoin="round"/>
<path opacity="0.3" d="M101.039 33.0303C101.039 33.0303 105.658 37.069 102.576 48.6206" stroke="white" stroke-miterlimit="10" stroke-linecap="round" stroke-linejoin="round"/>
<path opacity="0.3" d="M103.637 32.2615C103.637 32.2615 105.105 32.4561 105.679 39.7647L235.628 27.707C235.628 27.707 235.463 24.7096 232.964 21.3035L103.637 32.2615Z" fill="white"/>
<path opacity="0.3" d="M244.164 25.6342C244.164 25.6342 245.127 26.9869 245.195 29.1765L252.372 28.4758C252.372 28.4758 252.051 26.3738 251.477 25.6342H244.164Z" fill="white"/>
<path d="M305.907 51.1508L291.116 47.4041L288.53 48.7958L278.504 45.2242C278.504 45.2242 276.899 35.1907 285.029 25.6439L295.152 29.6728L297.019 32.2907L310.517 38.9959C310.507 38.9861 311.946 47.9004 305.907 51.1508Z" fill="#39B4EF"/>
<mask id="mask4_222_24811" style="mask-type:luminance" maskUnits="userSpaceOnUse" x="278" y="25" width="33" height="27">
<path d="M305.907 51.1508L291.116 47.4041L288.53 48.7958L278.504 45.2242C278.504 45.2242 276.899 35.1907 285.029 25.6439L295.152 29.6728L297.019 32.2907L310.517 38.9959C310.507 38.9861 311.946 47.9004 305.907 51.1508Z" fill="white"/>
</mask>
<g mask="url(#mask4_222_24811)">
<path opacity="0.3" d="M305.905 51.1408L291.114 47.3941L288.518 48.7857L278.492 45.2142C278.492 45.2142 276.887 35.1807 285.017 25.6339C286.515 26.2275 289.636 33.4095 283.062 42.9078L289.053 45.2142C289.053 45.2142 291.532 44.1534 293.224 41.7789C293.798 40.9711 294.284 40.0077 294.547 38.8788C294.557 38.8788 294.557 38.8691 294.557 38.8691C294.586 39.0637 294.907 41.3507 294.051 43.9296L306.11 47.7834C306.11 47.7834 309.007 48.1434 310.505 38.9858C310.505 38.9858 311.944 47.9002 305.905 51.1408Z" fill="#002E47"/>
</g>
<path d="M305.907 51.1508L291.116 47.4041L288.53 48.7958L278.504 45.2242C278.504 45.2242 276.899 35.1907 285.029 25.6439L295.152 29.6728L297.019 32.2907L310.517 38.9959C310.507 38.9861 311.946 47.9004 305.907 51.1508Z" stroke="#002E47" stroke-miterlimit="10" stroke-linecap="round" stroke-linejoin="round"/>
<path d="M280.273 43.9298C280.273 43.9298 287.829 35.8914 285.418 26.8992" stroke="#002E47" stroke-miterlimit="10" stroke-linecap="round" stroke-linejoin="round"/>
<path d="M290.484 45.8762C290.484 45.8762 296.397 39.0932 295.57 31.843" stroke="#002E47" stroke-miterlimit="10" stroke-linecap="round" stroke-linejoin="round"/>
<path opacity="0.3" d="M355.858 194.086L352.678 258.822C335.689 258.559 311.407 258.228 285.656 258.082C285.656 258.082 285.656 258.082 285.647 258.082C279.559 252.749 273.53 224.634 271.215 215.905C268.901 207.175 273.666 180.491 273.666 180.491C273.666 180.491 269.941 176.89 269.173 174.418C268.405 171.946 271.215 168.258 271.215 168.258L269.689 159.791L266.606 157.456L263.786 153.981C257.387 151.325 256.094 147.753 256.094 147.753L283.157 141.573L355.858 194.086Z" fill="#002E47"/>
<path d="M317.447 350.68C317.447 350.68 307.022 263.474 301.635 248.73C296.248 233.977 289.178 185.211 289.178 185.211C289.178 185.211 305.554 183.897 310.514 183.848C315.473 183.8 321.882 179.05 321.882 179.05C321.337 180.033 320.102 179.43 319.188 173.464C318.575 169.484 312.517 168.268 312.517 168.268C312.517 168.268 297.979 169.358 285.716 167.713C285.716 167.713 281.048 169.338 276.585 167.713C272.121 166.088 271.217 164.346 273.658 161.981C273.658 161.981 270.196 157.436 282.06 150.984C282.06 150.984 274.173 143.89 278.024 139.267C281.875 134.644 290.977 130.158 290.977 130.158C290.977 130.158 291.366 126.693 293.029 125.798C294.692 124.903 303.804 121.176 308.802 117.711C313.8 114.247 315.979 114.5 325.217 114.247C334.446 113.994 345.736 111.677 349.966 113.604C353.253 115.103 354.789 120.971 354.789 120.971C357.853 121.983 358.164 126.966 358.368 128.202C359.263 133.72 365.613 156.589 368.433 160.57C371.253 164.55 372.926 171.479 372.41 175.07C371.895 178.661 370.611 182.895 369.337 190.213C368.054 197.531 363.697 222.941 361.519 230.249C359.341 237.568 358.183 250.268 359.341 256.428L391.753 333.62" fill="white"/>
<mask id="mask5_222_24811" style="mask-type:luminance" maskUnits="userSpaceOnUse" x="272" y="112" width="120" height="239">
<path d="M317.447 350.68C317.447 350.68 307.022 263.474 301.635 248.73C296.248 233.977 289.178 185.211 289.178 185.211C289.178 185.211 305.554 183.897 310.514 183.848C315.473 183.8 321.882 179.05 321.882 179.05C321.337 180.033 320.102 179.43 319.188 173.464C318.575 169.484 312.517 168.268 312.517 168.268C312.517 168.268 297.979 169.358 285.716 167.713C285.716 167.713 281.048 169.338 276.585 167.713C272.121 166.088 271.217 164.346 273.658 161.981C273.658 161.981 270.196 157.436 282.06 150.984C282.06 150.984 274.173 143.89 278.024 139.267C281.875 134.644 290.977 130.158 290.977 130.158C290.977 130.158 291.366 126.693 293.029 125.798C294.692 124.903 303.804 121.176 308.802 117.711C313.8 114.247 315.979 114.5 325.217 114.247C334.446 113.994 345.736 111.677 349.966 113.604C353.253 115.103 354.789 120.971 354.789 120.971C357.853 121.983 358.164 126.966 358.368 128.202C359.263 133.72 365.613 156.589 368.433 160.57C371.253 164.55 372.926 171.479 372.41 175.07C371.895 178.661 370.611 182.895 369.337 190.213C368.054 197.531 363.697 222.941 361.519 230.249C359.341 237.568 358.183 250.268 359.341 256.428L391.753 333.62" fill="white"/>
</mask>
<g mask="url(#mask5_222_24811)">
<path opacity="0.4" d="M352 144.872C352 144.872 345.863 148.58 345.863 150.935C345.863 150.935 334.204 159.82 332.852 170.282C332.852 170.282 326.385 176.841 324.965 179.819C323.545 182.797 317.38 186.291 317.38 186.291C317.38 186.291 315.348 186.057 312.139 186.096C311.215 186.106 307.792 185.318 303.367 184.179C306.294 183.994 308.968 183.848 310.515 183.838C314.628 183.8 319.733 180.53 321.357 179.411C320.735 179.372 319.87 177.912 319.189 173.455C318.576 169.474 312.518 168.258 312.518 168.258C312.518 168.258 297.98 169.348 285.717 167.703C285.717 167.703 282.877 168.696 279.503 168.346C279.581 166.915 279.202 165.445 278.025 164.093C278.025 164.093 283.655 160.346 282.187 157.456C281.487 156.074 278.968 155.217 276.508 154.702C277.811 153.553 279.61 152.308 282.061 150.974C282.061 150.974 274.174 143.88 278.025 139.257C281.876 134.635 290.978 130.139 290.978 130.139C290.978 130.139 291.357 126.684 293.03 125.779C293.03 125.779 292.009 131.121 299.438 130.654C306.878 130.177 317.448 125.779 317.448 125.779C317.448 125.779 337.481 126.333 341.546 123.248C341.546 123.248 346.369 127.404 349.967 128.153C353.555 128.903 352 144.872 352 144.872Z" fill="#39B4EF"/>
</g>
<mask id="mask6_222_24811" style="mask-type:luminance" maskUnits="userSpaceOnUse" x="272" y="112" width="120" height="239">
<path d="M317.447 350.68C317.447 350.68 307.022 263.474 301.635 248.73C296.248 233.977 289.178 185.211 289.178 185.211C289.178 185.211 305.554 183.897 310.514 183.848C315.473 183.8 321.882 179.05 321.882 179.05C321.337 180.033 320.102 179.43 319.188 173.464C318.575 169.484 312.517 168.268 312.517 168.268C312.517 168.268 297.979 169.358 285.716 167.713C285.716 167.713 281.048 169.338 276.585 167.713C272.121 166.088 271.217 164.346 273.658 161.981C273.658 161.981 270.196 157.436 282.06 150.984C282.06 150.984 274.173 143.89 278.024 139.267C281.875 134.644 290.977 130.158 290.977 130.158C290.977 130.158 291.366 126.693 293.029 125.798C294.692 124.903 303.804 121.176 308.802 117.711C313.8 114.247 315.979 114.5 325.217 114.247C334.446 113.994 345.736 111.677 349.966 113.604C353.253 115.103 354.789 120.971 354.789 120.971C357.853 121.983 358.164 126.966 358.368 128.202C359.263 133.72 365.613 156.589 368.433 160.57C371.253 164.55 372.926 171.479 372.41 175.07C371.895 178.661 370.611 182.895 369.337 190.213C368.054 197.531 363.697 222.941 361.519 230.249C359.341 237.568 358.183 250.268 359.341 256.428L391.753 333.62" fill="white"/>
</mask>
<g mask="url(#mask6_222_24811)">
<path opacity="0.4" d="M372.408 175.06C371.893 178.651 370.609 182.885 369.325 190.203C368.042 197.521 363.685 222.931 361.507 230.24C359.319 237.558 358.171 250.258 359.319 256.418L362.042 262.919C356.139 252.447 356.606 238.706 357.082 235.096C357.656 230.668 360.923 214.299 363.899 205.832C366.875 197.366 367.079 179.654 367.079 179.041C367.079 178.428 365.542 182.924 363.977 187.926C362.411 192.938 356.693 206.99 356.693 206.99C356.499 204.1 358.901 186.992 359.338 185.045C359.776 183.099 363.296 169.971 363.899 166.312C364.492 162.652 361.604 158.565 360.875 155.558C360.145 152.561 357.267 139.617 356.499 130.654C355.798 122.353 353.289 117.283 352.93 116.582C354.184 118.665 354.777 120.961 354.777 120.961C357.85 121.964 358.162 126.956 358.356 128.192C359.26 133.71 365.611 156.58 368.431 160.56C371.251 164.54 372.914 171.469 372.408 175.06Z" fill="#39B4EF"/>
</g>
<mask id="mask7_222_24811" style="mask-type:luminance" maskUnits="userSpaceOnUse" x="272" y="112" width="120" height="239">
<path d="M317.447 350.68C317.447 350.68 307.022 263.474 301.635 248.73C296.248 233.977 289.178 185.211 289.178 185.211C289.178 185.211 305.554 183.897 310.514 183.848C315.473 183.8 321.882 179.05 321.882 179.05C321.337 180.033 320.102 179.43 319.188 173.464C318.575 169.484 312.517 168.268 312.517 168.268C312.517 168.268 297.979 169.358 285.716 167.713C285.716 167.713 281.048 169.338 276.585 167.713C272.121 166.088 271.217 164.346 273.658 161.981C273.658 161.981 270.196 157.436 282.06 150.984C282.06 150.984 274.173 143.89 278.024 139.267C281.875 134.644 290.977 130.158 290.977 130.158C290.977 130.158 291.366 126.693 293.029 125.798C294.692 124.903 303.804 121.176 308.802 117.711C313.8 114.247 315.979 114.5 325.217 114.247C334.446 113.994 345.736 111.677 349.966 113.604C353.253 115.103 354.789 120.971 354.789 120.971C357.853 121.983 358.164 126.966 358.368 128.202C359.263 133.72 365.613 156.589 368.433 160.57C371.253 164.55 372.926 171.479 372.41 175.07C371.895 178.661 370.611 182.895 369.337 190.213C368.054 197.531 363.697 222.941 361.519 230.249C359.341 237.568 358.183 250.268 359.341 256.428L391.753 333.62" fill="white"/>
</mask>
<g mask="url(#mask7_222_24811)">
<path opacity="0.4" d="M315.531 335.187C312.371 310.313 306.05 262.968 302.062 249.985C304.815 253.333 307.946 258.763 310.144 269.167C314.568 290.148 315.92 299.384 316.105 309.009C316.231 315.159 316.144 326.497 315.531 335.187Z" fill="#39B4EF"/>
</g>
<path d="M317.447 350.68C317.447 350.68 307.022 263.474 301.635 248.73C296.248 233.977 289.178 185.211 289.178 185.211C289.178 185.211 305.554 183.897 310.514 183.848C315.473 183.8 321.882 179.05 321.882 179.05C321.337 180.033 320.102 179.43 319.188 173.464C318.575 169.484 312.517 168.268 312.517 168.268C312.517 168.268 297.979 169.358 285.716 167.713C285.716 167.713 281.048 169.338 276.585 167.713C272.121 166.088 271.217 164.346 273.658 161.981C273.658 161.981 270.196 157.436 282.06 150.984C282.06 150.984 274.173 143.89 278.024 139.267C281.875 134.644 290.977 130.158 290.977 130.158C290.977 130.158 291.366 126.693 293.029 125.798C294.692 124.903 303.804 121.176 308.802 117.711C313.8 114.247 315.979 114.5 325.217 114.247C334.446 113.994 345.736 111.677 349.966 113.604C353.253 115.103 354.789 120.971 354.789 120.971C357.853 121.983 358.164 126.966 358.368 128.202C359.263 133.72 365.613 156.589 368.433 160.57C371.253 164.55 372.926 171.479 372.41 175.07C371.895 178.661 370.611 182.895 369.337 190.213C368.054 197.531 363.697 222.941 361.519 230.249C359.341 237.568 358.183 250.268 359.341 256.428L391.753 333.62" stroke="#002E47" stroke-miterlimit="10" stroke-linecap="round" stroke-linejoin="round"/>
<path d="M273.668 161.971C273.668 161.971 276.235 165.436 285.085 164.025C293.934 162.613 304.514 153.758 304.514 153.758L310.864 151.062C310.864 151.062 318.945 151.957 321.892 150.546" stroke="#002E47" stroke-miterlimit="10" stroke-linecap="round" stroke-linejoin="round"/>
<path d="M317.379 151.325C317.379 151.325 322.65 156.969 326.88 158.254" stroke="#002E47" stroke-miterlimit="10" stroke-linecap="round" stroke-linejoin="round"/>
<path d="M321.883 179.041C325.471 176.734 330.217 170.311 334.573 169.805" stroke="#002E47" stroke-miterlimit="10" stroke-linecap="round" stroke-linejoin="round"/>
<path d="M321.113 171.207C323.039 164.774 328.932 158.244 328.932 158.244C328.932 158.244 329.826 155.937 332.52 152.21C335.214 148.483 338.676 147.977 338.676 147.977C338.676 147.977 333.58 133.545 335.087 130.645" stroke="#002E47" stroke-miterlimit="10" stroke-linecap="round" stroke-linejoin="round"/>
<path d="M312.516 168.258C312.516 168.258 316.474 167.012 317.378 164.365" stroke="#002E47" stroke-miterlimit="10" stroke-linecap="round" stroke-linejoin="round"/>
<path d="M311.619 162.867C311.619 162.867 311.376 166.973 305.211 168.258" stroke="#002E47" stroke-miterlimit="10" stroke-linecap="round" stroke-linejoin="round"/>
<path d="M310.852 151.062C310.852 151.062 313.915 149.028 314.946 146.965" stroke="#002E47" stroke-miterlimit="10" stroke-linecap="round" stroke-linejoin="round"/>
<path d="M290.978 130.139C290.978 130.139 289.88 133.224 294.47 134.498C299.06 135.783 311.371 134.372 316.496 130.139C316.496 130.139 317.76 126.548 317.381 124.241" stroke="#002E47" stroke-miterlimit="10" stroke-linecap="round" stroke-linejoin="round"/>
<path d="M315.824 130.654C315.824 130.654 330.858 130.148 332.016 130.148C333.173 130.148 337.782 127.715 338.687 125.146" stroke="#002E47" stroke-miterlimit="10" stroke-linecap="round" stroke-linejoin="round"/>
<path d="M338.676 147.987C338.676 147.987 342.06 149.145 344.404 148.648" stroke="#002E47" stroke-miterlimit="10" stroke-linecap="round" stroke-linejoin="round"/>
<path d="M331.146 171.207C331.146 171.207 330.602 165.514 334.579 157.456" stroke="#002E47" stroke-miterlimit="10" stroke-linecap="round" stroke-linejoin="round"/>
<path d="M354.781 120.961C356.823 128.903 359.964 155.003 362.084 159.966C364.204 164.93 364.457 166.594 362.921 171.216C361.384 175.839 358.904 187.001 358.904 187.001" stroke="#002E47" stroke-miterlimit="10" stroke-linecap="round" stroke-linejoin="round"/>
<path d="M359.323 256.418C357.66 251.153 356.629 244.224 357.271 241.022" stroke="#002E47" stroke-miterlimit="10" stroke-linecap="round" stroke-linejoin="round"/>
<path d="M261.792 144.649C261.792 144.649 257.543 145.447 256.094 147.753C256.094 147.753 257.348 149.729 262.492 149.174C267.637 148.619 261.792 144.649 261.792 144.649Z" fill="#002E47"/>
<path d="M276.999 136.61L397.282 118.752L398.818 140.23L278.02 152.22L272.38 149.67L263.141 149.904C263.141 149.904 260.175 147.461 262.227 143.617L271.738 141.573L276.999 136.61Z" fill="#39B4EF"/>
<mask id="mask8_222_24811" style="mask-type:luminance" maskUnits="userSpaceOnUse" x="261" y="118" width="138" height="35">
<path d="M276.999 136.61L397.282 118.752L398.818 140.23L278.02 152.22L272.38 149.67L263.141 149.904C263.141 149.904 260.175 147.461 262.227 143.617L271.738 141.573L276.999 136.61Z" fill="white"/>
</mask>
<g mask="url(#mask8_222_24811)">
<path d="M297.682 137.729L347.258 130.693C349.359 130.392 351.294 131.91 351.508 134.022L351.605 135.014C351.809 137.048 350.36 138.868 348.328 139.111L298.655 145.155C296.564 145.408 294.678 143.89 294.473 141.797C294.289 139.802 295.699 138.012 297.682 137.729Z" fill="#002E47"/>
</g>
<mask id="mask9_222_24811" style="mask-type:luminance" maskUnits="userSpaceOnUse" x="261" y="118" width="138" height="35">
<path d="M276.999 136.61L397.282 118.752L398.818 140.23L278.02 152.22L272.38 149.67L263.141 149.904C263.141 149.904 260.175 147.461 262.227 143.617L271.738 141.573L276.999 136.61Z" fill="white"/>
</mask>
<g mask="url(#mask9_222_24811)">
<path opacity="0.3" d="M398.817 140.221L278.018 152.22L272.378 149.67L263.14 149.904C263.14 149.904 262.449 149.339 261.973 148.318L271.668 147.987L275.947 148.376L292.761 146.965L297.681 137.729C297.681 137.729 301.999 137.184 305.461 141.573C308.923 145.962 310.848 145.398 310.848 145.398L393.594 136.737L394.586 135.734C394.586 135.734 391.251 128.163 394.586 121.983C395.423 120.436 396.385 119.813 397.358 119.823L398.817 140.221Z" fill="#002E47"/>
</g>
<path d="M276.999 136.61L397.282 118.752L398.818 140.23L278.02 152.22L272.38 149.67L263.141 149.904C263.141 149.904 260.175 147.461 262.227 143.617L271.738 141.573L276.999 136.61Z" stroke="#002E47" stroke-miterlimit="10" stroke-linecap="round" stroke-linejoin="round"/>
<path d="M397.286 118.743C405.619 118.081 407.418 139.364 398.822 140.221C390.605 141.038 388.825 119.424 397.286 118.743Z" fill="#39B4EF"/>
<mask id="mask10_222_24811" style="mask-type:luminance" maskUnits="userSpaceOnUse" x="391" y="118" width="14" height="23">
<path d="M397.286 118.743C405.619 118.081 407.418 139.364 398.822 140.221C390.605 141.038 388.825 119.424 397.286 118.743Z" fill="white"/>
</mask>
<g mask="url(#mask10_222_24811)">
<path opacity="0.3" d="M398.822 140.221C396.576 140.444 394.806 138.985 393.6 136.737L394.592 135.734C394.592 135.734 391.256 128.163 394.592 121.983C395.428 120.436 396.391 119.813 397.363 119.823C400.271 119.852 403.256 125.467 403.13 128.513L404.394 128.825C404.832 134.197 403.14 139.792 398.822 140.221Z" fill="#002E47"/>
</g>
<path d="M397.286 118.743C405.619 118.081 407.418 139.364 398.822 140.221C390.605 141.038 388.825 119.424 397.286 118.743Z" stroke="#002E47" stroke-miterlimit="10" stroke-linecap="round" stroke-linejoin="round"/>
<path d="M277.004 136.61C277.004 136.61 274.621 139.608 275.273 145.291C275.788 149.787 278.035 152.22 278.035 152.22" stroke="#002E47" stroke-miterlimit="10" stroke-linecap="round" stroke-linejoin="round"/>
<path d="M271.751 141.573C271.751 141.573 270.205 145.641 272.383 149.67" stroke="#002E47" stroke-miterlimit="10" stroke-linecap="round" stroke-linejoin="round"/>
<path d="M393.547 140.746C385.33 141.564 383.745 120.884 392.108 119.511" stroke="#002E47" stroke-miterlimit="10" stroke-linecap="round" stroke-linejoin="round"/>
<path d="M397.452 120.086C404.045 119.511 405.465 137.914 398.668 138.644C392.172 139.355 390.762 120.67 397.452 120.086Z" stroke="#002E47" stroke-miterlimit="10" stroke-linecap="round" stroke-linejoin="round"/>
<path d="M397.473 121.399C397.473 121.399 400.915 122.674 401.528 128.932C402.14 135.189 398.601 137.126 398.601 137.126" stroke="#002E47" stroke-miterlimit="10" stroke-linecap="round" stroke-linejoin="round"/>
<path d="M321.877 186.096C321.877 186.096 313.154 186.612 312.133 186.096C311.112 185.58 305.724 175.313 305.462 172.112C305.209 168.91 304.693 158.633 304.441 152.22C304.188 145.807 304.188 135.793 292.129 137.924C286.742 138.878 285.847 143.977 284.048 155.431C282.249 166.876 283.922 169.932 282.638 184.559C281.354 199.186 282.891 205.005 285.974 212.362C289.047 219.72 290.194 238.453 298.402 245.382C306.609 252.311 309.838 265.663 309.838 265.663" fill="white"/>
<mask id="mask11_222_24811" style="mask-type:luminance" maskUnits="userSpaceOnUse" x="282" y="137" width="40" height="129">
<path d="M321.877 186.096C321.877 186.096 313.154 186.612 312.133 186.096C311.112 185.58 305.724 175.313 305.462 172.112C305.209 168.91 304.693 158.633 304.441 152.22C304.188 145.807 304.188 135.793 292.129 137.924C286.742 138.878 285.847 143.977 284.048 155.431C282.249 166.876 283.922 169.932 282.638 184.559C281.354 199.186 282.891 205.005 285.974 212.362C289.047 219.72 290.194 238.453 298.402 245.382C306.609 252.311 309.838 265.663 309.838 265.663" fill="white"/>
</mask>
<g mask="url(#mask11_222_24811)">
<path opacity="0.4" d="M300.424 149.281C298.217 149.816 289.747 150.205 289.173 153.086C288.599 155.976 293.656 157.251 295.747 159.791C295.669 159.791 286.985 159.801 285.069 164.025C283.144 168.268 286.674 177.347 286.674 182.349C286.674 187.352 282.317 197.366 285.653 202.562C288.551 207.097 291.274 217.54 289.863 227.456C288.395 221.52 287.384 215.739 285.974 212.362C282.891 205.005 281.354 199.185 282.638 184.559C283.922 169.922 282.249 166.876 284.048 155.422C285.332 147.198 286.158 142.245 288.531 139.754C288.531 139.754 288.531 139.744 288.541 139.744C291.312 139.14 294.444 138.907 296.34 140.25C300.327 143.082 302.642 148.736 300.424 149.281Z" fill="#39B4EF"/>
</g>
<path d="M321.877 186.096C321.877 186.096 313.154 186.612 312.133 186.096C311.112 185.58 305.724 175.313 305.462 172.112C305.209 168.91 304.693 158.633 304.441 152.22C304.188 145.807 304.188 135.793 292.129 137.924C286.742 138.878 285.847 143.977 284.048 155.431C282.249 166.876 283.922 169.932 282.638 184.559C281.354 199.186 282.891 205.005 285.974 212.362C289.047 219.72 290.194 238.453 298.402 245.382C306.609 252.311 309.838 265.663 309.838 265.663" stroke="#002E47" stroke-miterlimit="10" stroke-linecap="round" stroke-linejoin="round"/>
<path d="M305.463 172.112C305.463 172.112 304.636 171.849 304.15 166.847C303.664 161.845 299.434 159.791 299.434 159.791" stroke="#002E47" stroke-miterlimit="10" stroke-linecap="round" stroke-linejoin="round"/>
<path d="M288.155 159.791C288.155 159.791 284.576 160.56 283.156 165.562" stroke="#002E47" stroke-miterlimit="10" stroke-linecap="round" stroke-linejoin="round"/>
</svg>
