<svg width="541" height="419" viewBox="0 0 541 419" fill="none" xmlns="http://www.w3.org/2000/svg">
<path d="M130.701 416.899H485.154C488.854 412.707 493.21 405.764 494.287 404.324C505.212 389.688 514.053 373.693 520.962 357.125C549.393 289.001 544.428 209.813 514.533 142.837C492.414 93.2848 453.713 50.5117 399.31 29.1895C349.11 9.5066 279.882 4.40146 237.236 40.9103C194.46 77.5361 201.603 141.854 158.781 178.339C157.586 179.358 156.357 180.342 155.092 181.29C131.766 198.783 99.6817 198.409 71.9648 205.598C43.1823 213.068 16.777 231.744 6.80028 258.324C-6.38485 293.427 5.53563 333.671 25.9339 364.349C50.8171 401.771 88.7682 412.45 130.701 416.899Z" fill="#39B4EF"/>
<path opacity="0.7" d="M130.701 416.899H485.154C488.854 412.707 493.21 405.764 494.287 404.324C505.212 389.688 514.053 373.693 520.962 357.125C549.393 289.001 544.428 209.813 514.533 142.837C492.414 93.2848 453.713 50.5117 399.31 29.1895C349.11 9.5066 279.882 4.40146 237.236 40.9103C194.46 77.5361 201.603 141.854 158.781 178.339C157.586 179.358 156.357 180.342 155.092 181.29C131.766 198.783 99.6817 198.409 71.9648 205.598C43.1823 213.068 16.777 231.744 6.80028 258.324C-6.38485 293.427 5.53563 333.671 25.9339 364.349C50.8171 401.771 88.7682 412.45 130.701 416.899Z" fill="white"/>
<path d="M372.609 16.45H236.893L235.102 35.1025H372.609V16.45Z" stroke="#E2EDFF" stroke-miterlimit="10"/>
<path d="M372.609 35.1025H236.893L235.102 53.7668H372.609V35.1025Z" stroke="#E2EDFF" stroke-miterlimit="10"/>
<path d="M372.609 53.7668H236.893L235.102 72.4193H372.609V53.7668Z" stroke="#E2EDFF" stroke-miterlimit="10"/>
<path d="M372.609 72.4193H236.893L235.102 91.0717H372.609V72.4193Z" stroke="#E2EDFF" stroke-miterlimit="10"/>
<path d="M372.609 91.0717H236.893L235.102 109.736H372.609V91.0717Z" stroke="#E2EDFF" stroke-miterlimit="10"/>
<path d="M372.609 109.736H236.893L235.102 128.388H372.609V109.736Z" stroke="#E2EDFF" stroke-miterlimit="10"/>
<path d="M372.609 128.388H236.893L235.102 147.041H372.609V128.388Z" stroke="#E2EDFF" stroke-miterlimit="10"/>
<path d="M372.609 147.041H236.893L235.102 165.705H372.609V147.041Z" stroke="#E2EDFF" stroke-miterlimit="10"/>
<path d="M372.609 165.705H236.893L235.102 184.358H372.609V165.705Z" stroke="#E2EDFF" stroke-miterlimit="10"/>
<path d="M372.609 184.358H236.893L235.102 203.01H372.609V184.358Z" stroke="#E2EDFF" stroke-miterlimit="10"/>
<path d="M372.609 203.01H236.893L235.102 221.674H372.609V203.01Z" stroke="#E2EDFF" stroke-miterlimit="10"/>
<path d="M372.609 221.674H236.893L235.102 240.327H372.609V221.674Z" stroke="#E2EDFF" stroke-miterlimit="10"/>
<path d="M372.609 240.327H236.893L235.102 258.979H372.609V240.327Z" stroke="#E2EDFF" stroke-miterlimit="10"/>
<path d="M372.609 258.979H236.893L235.102 277.644H372.609V258.979Z" stroke="#E2EDFF" stroke-miterlimit="10"/>
<path d="M372.609 277.644H236.893L235.102 296.296H372.609V277.644Z" stroke="#E2EDFF" stroke-miterlimit="10"/>
<path d="M512.109 16.45H376.405L374.613 35.1025H512.109V16.45Z" stroke="#E2EDFF" stroke-miterlimit="10"/>
<path d="M512.109 35.1025H376.405L374.613 53.7668H512.109V35.1025Z" stroke="#E2EDFF" stroke-miterlimit="10"/>
<path d="M512.109 53.7668H376.405L374.613 72.4193H512.109V53.7668Z" stroke="#E2EDFF" stroke-miterlimit="10"/>
<path d="M512.109 72.4193H376.405L374.613 91.0717H512.109V72.4193Z" stroke="#E2EDFF" stroke-miterlimit="10"/>
<path d="M512.109 91.0717H376.405L374.613 109.736H512.109V91.0717Z" stroke="#E2EDFF" stroke-miterlimit="10"/>
<path d="M512.109 109.736H376.405L374.613 128.388H512.109V109.736Z" stroke="#E2EDFF" stroke-miterlimit="10"/>
<path d="M512.109 128.388H376.405L374.613 147.041H512.109V128.388Z" stroke="#E2EDFF" stroke-miterlimit="10"/>
<path d="M512.109 147.041H376.405L374.613 165.705H512.109V147.041Z" stroke="#E2EDFF" stroke-miterlimit="10"/>
<path d="M512.109 165.705H376.405L374.613 184.358H512.109V165.705Z" stroke="#E2EDFF" stroke-miterlimit="10"/>
<path d="M512.109 184.358H376.405L374.613 203.01H512.109V184.358Z" stroke="#E2EDFF" stroke-miterlimit="10"/>
<path d="M512.109 203.01H376.405L374.613 221.674H512.109V203.01Z" stroke="#E2EDFF" stroke-miterlimit="10"/>
<path d="M512.109 221.674H376.405L374.613 240.327H512.109V221.674Z" stroke="#E2EDFF" stroke-miterlimit="10"/>
<path d="M512.109 240.327H376.405L374.613 258.979H512.109V240.327Z" stroke="#E2EDFF" stroke-miterlimit="10"/>
<path d="M512.109 258.979H376.405L374.613 277.644H512.109V258.979Z" stroke="#E2EDFF" stroke-miterlimit="10"/>
<path d="M512.109 277.644H376.405L374.613 296.296H512.109V277.644Z" stroke="#E2EDFF" stroke-miterlimit="10"/>
<path d="M518.911 2.0011H231.93V16.0754H518.911V2.0011Z" stroke="#E2EDFF" stroke-miterlimit="10"/>
<path d="M518.91 16.0754V263.944" stroke="#E2EDFF" stroke-miterlimit="10"/>
<path d="M515.785 16.4735V186.536" stroke="#E2EDFF" stroke-miterlimit="10"/>
<path d="M520.938 263.394H517.086V269.705H520.938V263.394Z" fill="#002E47" stroke="#E2EDFF" stroke-miterlimit="10"/>
<path d="M517.47 185.177H513.605V191.489H517.47V185.177Z" fill="#002E47" stroke="#E2EDFF" stroke-miterlimit="10"/>
<path d="M182.222 28.1591H34.6797V211.991H182.222V28.1591Z" stroke="#E2EDFF" stroke-miterlimit="10"/>
<path d="M178.462 32.8427H38.4375V207.307H178.462V32.8427Z" stroke="#E2EDFF" stroke-miterlimit="10"/>
<path d="M134.214 87.9806H82.6914V152.181H134.214V87.9806Z" fill="#E2EDFF"/>
<path d="M156.463 388.821C156.463 388.821 156.99 369.969 156.322 353.776C155.655 337.57 157.002 302.818 157.002 302.818" stroke="#002E47" stroke-miterlimit="10"/>
<path d="M156.686 323.25L149.32 317.466" stroke="#002E47" stroke-miterlimit="10"/>
<path d="M156.613 327.243L159.225 323.004" stroke="#002E47" stroke-miterlimit="10"/>
<path d="M156.004 343.999L162.55 338.601" stroke="#002E47" stroke-miterlimit="10"/>
<path d="M157.001 309.937L153.547 306.799" stroke="#002E47" stroke-miterlimit="10"/>
<path d="M155.946 346.949L151.625 342.313" stroke="#002E47" stroke-miterlimit="10"/>
<path d="M156.333 365.134L147.34 356.937" stroke="#002E47" stroke-miterlimit="10"/>
<path d="M156.555 375.239C156.555 375.239 158.182 374.723 163.218 372.124" stroke="#002E47" stroke-miterlimit="10"/>
<path d="M151.6 326.166C147.994 323.367 135.874 323.871 133.532 329.667C131.19 335.463 138.567 344.912 145.722 344.245C148.509 343.987 149.715 343.788 150.804 342.231L140.851 332.5L151.624 341.153C151.917 340.638 152.162 340.053 152.362 339.385C152.49 338.964 152.596 338.495 152.701 338.004C153.392 334.538 154.973 328.777 151.6 326.166Z" fill="#39B4EF"/>
<path d="M175.021 319.445C175.009 319.515 174.997 319.574 174.974 319.644C174.002 323.965 169.049 326.412 164.904 326.049C164.318 326.002 163.744 325.885 163.194 325.733C162.058 327.583 160.36 331.458 162.128 336.212C162.316 336.704 162.55 337.161 162.831 337.582C164.049 336.575 177.152 325.405 177.152 325.405L163.545 338.507C167.632 342.898 177.269 342.289 180.606 334.163C183.908 326.142 179.74 320.604 175.021 319.445Z" fill="#39B4EF"/>
<path d="M168.359 304.329C161.309 302.783 154.998 305.979 155.115 313.333C155.173 316.646 156.637 319.843 159.038 321.962L166.227 311.986L160.115 322.794C160.689 323.18 161.286 323.508 161.93 323.766C162.796 324.117 163.733 324.351 164.729 324.433C168.874 324.796 173.827 322.349 174.799 318.028C175.9 313.204 175.408 305.874 168.359 304.329Z" fill="#39B4EF"/>
<path d="M160.125 278.733C160.125 278.733 159.399 278.943 154.891 281.156C150.383 283.369 146.811 290.5 150.371 296.601C152.397 300.066 154.751 301.39 156.402 301.881L158.205 284.353L157.479 302.116C158.123 302.197 158.509 302.151 158.509 302.151C161.437 301.846 166.074 298.345 166.519 291.156C166.964 283.966 160.125 278.733 160.125 278.733Z" fill="#39B4EF"/>
<path d="M139.529 294.68L153.136 305.558C153.382 304.738 153.265 304.024 153.265 304.024C152.644 297.795 146.426 294.188 142.328 292.889C138.23 291.589 135.384 293.907 138.019 299.867C140.654 305.827 147.574 308.673 150.665 307.806C151.567 307.56 152.152 307.127 152.551 306.659L139.529 294.68Z" fill="#39B4EF"/>
<path d="M148.897 308.626C145.958 308.719 141.204 306.623 138.428 302.584C135.571 302.525 133.206 303.884 132.433 307.455C131.04 313.953 135.735 320.745 142.503 319.913C145.466 319.55 147.164 318.532 148.147 317.513L136.04 306.471L148.991 316.342C149.436 315.499 149.459 314.855 149.459 314.855C149.459 314.855 150.244 311.658 148.897 308.626Z" fill="#39B4EF"/>
<path d="M148.827 344.713C147.902 345.146 146.766 345.416 145.349 345.544C140.923 345.954 136.415 342.488 134.178 338.414C131.462 338.847 129.295 340.31 128.768 343.284C127.422 350.884 134.459 360.895 141.567 359.314C143.815 358.811 145.396 357.862 146.509 356.808L130.993 341.879L147.41 355.801C148.991 353.752 149.155 351.645 149.155 351.645C149.155 351.645 150.49 348.167 148.827 344.713Z" fill="#39B4EF"/>
<path d="M180.032 360.298C174.821 354.256 168.604 359.665 168.604 359.665C168.604 359.665 164.798 360.93 163.358 366.316C162.901 368.037 162.995 369.782 163.545 371.281L179.236 362.136L163.92 372.136C165.348 374.84 168.463 376.503 172.725 375.309C179.658 373.377 185.255 366.34 180.032 360.298Z" fill="#39B4EF"/>
<path d="M167.034 383.13H145.312V415.295H167.034V383.13Z" fill="#002E47"/>
<path d="M336.312 289.482L335.469 282.971C334.555 276.765 332.19 260.513 332.19 258.944C332.19 257.001 323.22 251.427 323.22 251.427L312.424 266.789L305.012 281.262C305.012 281.262 309.778 285.571 314.016 288.756C318.255 291.929 323.232 292.877 323.232 292.877L344.836 366.972L359.38 337.606L336.312 289.482Z" fill="white" stroke="#002E47" stroke-miterlimit="10" stroke-linecap="round" stroke-linejoin="round"/>
<path d="M319.274 282.327L303.746 283.088C300.538 283.241 297.81 280.77 297.657 277.573L295.597 235.62C295.444 232.412 297.915 229.683 301.112 229.531L316.639 228.77C319.847 228.618 322.576 231.089 322.728 234.285L324.789 276.239C324.953 279.435 322.482 282.163 319.274 282.327Z" fill="white" stroke="#002E47" stroke-miterlimit="10" stroke-linecap="round" stroke-linejoin="round"/>
<path d="M320.973 282.198L305.446 282.96C302.237 283.112 299.509 280.641 299.357 277.445L297.296 235.491C297.144 232.283 299.614 229.555 302.811 229.402L318.338 228.641C321.547 228.489 324.275 230.96 324.427 234.156L326.488 276.11C326.652 279.318 324.181 282.046 320.973 282.198Z" fill="#002E47" stroke="#002E47" stroke-miterlimit="10" stroke-linecap="round" stroke-linejoin="round"/>
<path d="M323.617 235.971C323.477 233.208 321.439 231.007 318.828 230.55L316.966 233.032L306.31 233.7L302.985 231.487L317.61 230.468C317.575 230.468 317.551 230.456 317.516 230.468L303.781 231.147C300.572 231.299 298.102 234.027 298.266 237.236L300.162 275.665C300.315 278.873 303.043 281.344 306.252 281.18L319.987 280.501C323.195 280.348 325.666 277.62 325.502 274.412L323.617 235.971Z" fill="#39B4EF" stroke="#002E47" stroke-miterlimit="10" stroke-linecap="round" stroke-linejoin="round"/>
<path d="M331.124 290.793C331.124 290.793 324.063 290.09 323.01 282.679C321.956 275.267 325.48 266.801 325.48 266.801C325.48 266.801 321.956 264.682 318.068 263.277C314.192 261.86 317.014 254.46 318.419 256.567C319.836 258.687 329.708 260.092 332.53 261.86C335.352 263.628 336.054 273.862 336.054 273.862L336.3 289.481" fill="white"/>
<path d="M331.124 290.793C331.124 290.793 324.063 290.09 323.01 282.679C321.956 275.267 325.48 266.801 325.48 266.801C325.48 266.801 321.956 264.682 318.068 263.277C314.192 261.86 317.014 254.46 318.419 256.567C319.836 258.687 329.708 260.092 332.53 261.86C335.352 263.628 336.054 273.862 336.054 273.862L336.3 289.481" stroke="#002E47" stroke-miterlimit="10" stroke-linecap="round" stroke-linejoin="round"/>
<path d="M433.701 416.899L469.123 324.117C472.062 316.436 468.385 307.794 460.82 304.574C453.092 301.284 444.158 304.844 440.797 312.537L395.27 416.899H433.701Z" fill="#002E47" stroke="#002E47" stroke-miterlimit="10" stroke-linecap="round" stroke-linejoin="round"/>
<path d="M344.605 374.747C343.223 375.789 315.214 409.265 308.832 416.899H390.624C395.542 410.049 415.332 381.995 423.845 362.253C433.599 339.62 434.384 312.689 432.428 304.492C430.472 296.296 428.529 290.442 428.529 290.442C428.529 290.442 390.659 297.081 370.753 307.619C370.753 307.619 346.549 326.353 341.865 338.449C337.181 350.544 346.163 373.576 344.605 374.747Z" fill="#39B4EF" stroke="#002E47" stroke-miterlimit="10" stroke-linecap="round" stroke-linejoin="round"/>
<path d="M411.641 361.153C412.543 358.822 413.386 356.481 414.159 354.115C417.777 343.05 422.356 329.737 419.932 318.016C417.59 306.694 403.152 307.865 394.955 314.117C386.758 320.358 380.903 335.194 377.391 348.074C373.878 360.953 358.971 390.355 358.971 390.355C358.971 390.355 305.493 379.032 299.252 376.69C293.01 374.349 284.415 370.45 278.561 364.981C272.706 359.513 257.097 351.317 251.628 345.076C246.16 338.835 245.387 340.779 245.773 343.121C246.16 345.462 248.9 348.191 250.844 350.532C252.799 352.874 256.699 356.387 256.699 356.387C256.699 356.387 247.717 354.432 243.431 352.874C239.134 351.317 237.19 348.975 236.019 350.919C234.848 352.874 236.019 355.216 239.919 357.16C243.818 359.115 259.04 363.401 259.04 363.401C259.04 363.401 246.546 363.401 243.431 363.401C240.305 363.401 236.019 365.356 237.963 367.3C239.919 369.255 249.673 368.084 252.401 368.084C255.129 368.084 260.598 368.084 260.598 368.084C260.598 368.084 249.673 371.983 246.546 372.382C243.42 372.768 243.818 375.894 246.16 376.281C248.502 376.667 265.282 373.154 265.282 373.154C265.282 373.154 272.308 378.622 275.434 379.395C278.561 380.18 284.017 380.18 284.017 380.18C284.017 380.18 312.121 398.914 333.198 406.326C347.683 411.419 374.709 425.541 386.22 409.265C394.381 397.743 406.583 374.267 411.641 361.153Z" fill="white" stroke="#002E47" stroke-miterlimit="10" stroke-linecap="round" stroke-linejoin="round"/>
<path d="M401.606 193.514C401.606 193.514 393.245 204.38 392.414 210.235C391.582 216.089 392.835 219.426 389.908 221.101C386.981 222.775 378.21 222.775 376.957 226.955C375.704 231.135 381.559 238.653 381.559 238.653C381.559 238.653 382.39 257.457 384.065 261.637C385.739 265.818 400.786 266.649 400.786 266.649L398.28 284.622L422.941 277.105L429.627 252.867C429.627 252.867 439.241 248.687 442.578 235.315C445.927 221.944 440.072 208.15 425.447 199.38C410.798 190.587 401.606 193.514 401.606 193.514Z" fill="white" stroke="#002E47" stroke-miterlimit="10" stroke-linecap="round" stroke-linejoin="round"/>
<path d="M400.761 266.649L413.302 267.949L399.918 275.009L400.761 266.649Z" fill="#002E47" stroke="#002E47" stroke-miterlimit="10" stroke-linecap="round" stroke-linejoin="round"/>
<path d="M387.812 241.158C387.812 241.158 395.752 242.411 399.932 236.978" stroke="#002E47" stroke-miterlimit="10" stroke-linecap="round" stroke-linejoin="round"/>
<path d="M398.735 219.941C398.115 221.499 396.885 222.459 395.984 222.096C395.082 221.733 394.86 220.187 395.48 218.63C396.101 217.073 397.33 216.113 398.232 216.476C399.134 216.839 399.356 218.384 398.735 219.941Z" fill="#002E47"/>
<path d="M397.754 208.455C397.754 208.455 402.379 205.586 405.4 211.324" stroke="#002E47" stroke-miterlimit="10" stroke-linecap="round" stroke-linejoin="round"/>
<path d="M390.577 241.439C390.577 241.439 390.413 247.973 392.813 247.809C395.202 247.645 398.071 239.051 398.071 239.051C398.071 239.051 396.314 241.111 390.577 241.439Z" fill="#002E47" stroke="#002E47" stroke-miterlimit="10" stroke-linecap="round" stroke-linejoin="round"/>
<path d="M427.345 274.049C427.345 274.049 396.115 285.758 386.747 288.884C377.379 292.011 368.012 311.132 368.012 311.132C368.012 311.132 414.464 295.523 423.047 293.182L429.687 292.397C429.687 292.397 431.642 276.391 427.345 274.049Z" fill="white" stroke="#002E47" stroke-miterlimit="10" stroke-linecap="round" stroke-linejoin="round"/>
<path d="M446.091 174.686C446.091 174.686 444.991 175.236 448.855 166.958C452.719 158.68 433.96 150.952 412.438 157.579C390.915 164.195 393.679 181.852 396.43 190.13C399.194 198.409 415.189 196.746 414.639 202.273C414.089 207.787 410.775 213.302 416.84 218.279C422.906 223.243 417.941 222.143 419.604 224.894C421.255 227.658 426.782 225.995 428.433 227.107C430.084 228.208 434.499 232.072 429.534 239.8C424.569 247.528 419.053 246.416 420.154 255.244C421.255 264.073 423.468 272.351 435.049 275.665C446.642 278.978 456.571 279.529 458.222 270.15C459.874 260.771 453.808 258.558 460.424 254.706C467.04 250.842 485.26 249.191 487.462 230.983C489.663 212.776 485.26 196.219 472.567 185.739C459.885 175.236 446.091 174.686 446.091 174.686Z" fill="#002E47" stroke="#002E47" stroke-miterlimit="10" stroke-linecap="round" stroke-linejoin="round"/>
<path d="M435.914 265.759C438.748 270.782 444.45 272.96 447.565 271.789C452.296 270.021 452.881 261.146 446.98 259.963C441.066 258.78 439.298 262.328 442.249 265.279" stroke="#DCF8FF" stroke-miterlimit="10" stroke-linecap="round" stroke-linejoin="round"/>
<path d="M413.434 188.034C416.396 192.695 423.586 195.797 436.338 199.661C455.846 205.575 460.577 220.948 455.846 228.63C451.115 236.311 436.923 244.004 434.558 255.818C434.16 257.832 434.125 259.67 434.382 261.321" stroke="#DCF8FF" stroke-miterlimit="10" stroke-linecap="round" stroke-linejoin="round"/>
<path d="M427.461 176.021C427.461 176.021 434.557 175.435 431.009 169.522C427.461 163.609 413.866 168.34 412.086 178.983C411.782 180.833 411.723 182.473 411.934 183.971" stroke="#DCF8FF" stroke-miterlimit="10" stroke-linecap="round" stroke-linejoin="round"/>
<path d="M456.783 197.39C462.872 200.61 470.343 206.909 471.209 218.583C472.392 234.543 465.296 239.87 453.469 246.954C441.642 254.05 446.97 259.963 446.97 259.963" stroke="#DCF8FF" stroke-miterlimit="10" stroke-linecap="round" stroke-linejoin="round"/>
<path d="M448.75 194.346C448.75 194.346 450.706 194.732 453.457 195.844" stroke="#DCF8FF" stroke-miterlimit="10" stroke-linecap="round" stroke-linejoin="round"/>
<path d="M293.99 57.8064C276.063 63.1691 261.859 77.1614 256.203 94.9709" stroke="#002E47" stroke-miterlimit="10"/>
<path d="M322.129 56.6823C318.3 55.8627 314.331 55.4412 310.256 55.4412C307.551 55.4412 304.893 55.6285 302.281 55.9915" stroke="#002E47" stroke-miterlimit="10"/>
<path d="M364.391 128.951C366.042 123.635 366.932 117.979 366.932 112.113C366.932 87.3483 351.042 66.2837 328.91 58.5792" stroke="#002E47" stroke-miterlimit="10"/>
<path d="M359.156 140.788C360.714 138.142 362.049 135.367 363.173 132.475" stroke="#002E47" stroke-miterlimit="10"/>
<path d="M286.531 163.609C293.744 166.935 301.777 168.796 310.255 168.796C325.349 168.796 339.061 162.907 349.213 153.294" stroke="#002E47" stroke-miterlimit="10"/>
<path d="M277.551 158.41C279.214 159.593 280.958 160.682 282.75 161.677" stroke="#002E47" stroke-miterlimit="10"/>
<path d="M254.296 103.062C253.828 106.013 253.582 109.033 253.582 112.113C253.582 129.419 261.334 144.91 273.559 155.308" stroke="#002E47" stroke-miterlimit="10"/>
<path d="M310.257 163.399C338.583 163.399 361.546 140.437 361.546 112.113C361.546 83.7887 338.583 60.8273 310.257 60.8273C281.931 60.8273 258.969 83.7887 258.969 112.113C258.969 140.437 281.931 163.399 310.257 163.399Z" fill="white" stroke="#002E47" stroke-miterlimit="10"/>
<path d="M310.258 163.398V223.688" stroke="#002E47" stroke-miterlimit="10"/>
<path d="M310.255 226.955C312.06 226.955 313.522 225.493 313.522 223.688C313.522 221.884 312.06 220.422 310.255 220.422C308.451 220.422 306.988 221.884 306.988 223.688C306.988 225.493 308.451 226.955 310.255 226.955Z" fill="#002E47" stroke="#002E47" stroke-miterlimit="10" stroke-linecap="round" stroke-linejoin="round"/>
<path d="M346.946 105.123C355.03 105.123 361.583 98.5697 361.583 90.4863C361.583 82.4029 355.03 75.85 346.946 75.85C338.862 75.85 332.309 82.4029 332.309 90.4863C332.309 98.5697 338.862 105.123 346.946 105.123Z" fill="#39B4EF"/>
<path d="M346.944 106.879C337.904 106.879 330.551 99.5257 330.551 90.4863C330.551 81.4469 337.904 74.0937 346.944 74.0937C355.984 74.0937 363.338 81.4469 363.338 90.4863C363.338 99.5257 355.984 106.879 346.944 106.879ZM346.944 77.6064C339.837 77.6064 334.064 83.3789 334.064 90.4863C334.064 97.5937 339.837 103.366 346.944 103.366C354.052 103.366 359.825 97.5937 359.825 90.4863C359.825 83.3789 354.04 77.6064 346.944 77.6064Z" fill="#002E47"/>
<path d="M347.905 95.8256C347.87 95.8256 347.823 95.8256 347.788 95.8256C347.214 95.7905 346.699 95.4627 346.406 94.9709L340.762 85.5334C340.259 84.7021 340.54 83.6248 341.371 83.1213C342.203 82.6296 343.28 82.8989 343.784 83.7302L348.128 91.0015L360.212 75.9203C360.821 75.1592 361.922 75.0421 362.683 75.651C363.444 76.2598 363.561 77.3605 362.952 78.1216L349.275 95.1699C348.936 95.5797 348.432 95.8256 347.905 95.8256Z" fill="white"/>
<path d="M171.684 242.973C171.684 242.973 180.653 240.409 182.117 239.683C183.581 238.945 190.724 231.264 190.724 230.163C190.724 229.063 188.159 229.613 186.145 230.714C184.131 231.814 177.913 238.582 177.913 238.582L171.684 242.973Z" fill="white" stroke="#002E47" stroke-miterlimit="10" stroke-linecap="round" stroke-linejoin="round"/>
<path d="M166.005 245.163C166.005 245.163 177.902 239.859 179.179 238.945C180.455 238.032 185.771 232.54 186.134 230.714C186.497 228.887 182.469 229.438 181.38 229.976C180.279 230.526 173.698 237.119 172.961 237.845C172.223 238.582 164.729 244.8 164.729 244.8C164.729 244.8 162.352 246.076 166.005 245.163Z" fill="white" stroke="#002E47" stroke-miterlimit="10" stroke-linecap="round" stroke-linejoin="round"/>
<path d="M123.006 247.973C123.006 247.973 134.751 235.796 136.929 234.484C139.107 233.184 165.207 233.184 165.207 233.184C165.207 233.184 177.831 229.707 179.997 229.274C182.175 228.84 181.742 233.184 178.697 234.929C175.653 236.674 166.519 244.94 163.029 247.106C159.552 249.284 137.362 252.329 137.362 252.329L126.483 265.384L115.172 258.417L123.006 247.973Z" fill="white" stroke="#002E47" stroke-miterlimit="10" stroke-linecap="round" stroke-linejoin="round"/>
<path d="M165.206 233.184C165.206 233.184 170.768 232.54 170.217 234.191C169.667 235.842 167.653 239.32 163.812 239.496C159.971 239.683 148.074 240.233 148.074 240.233" fill="white"/>
<path d="M165.206 233.184C165.206 233.184 170.768 232.54 170.217 234.191C169.667 235.842 167.653 239.32 163.812 239.496C159.971 239.683 148.074 240.233 148.074 240.233" stroke="#002E47" stroke-miterlimit="10" stroke-linecap="round" stroke-linejoin="round"/>
<path d="M115.174 258.417C115.174 258.417 105.326 257.656 103.382 258.827C101.426 259.998 76.8359 287.713 76.8359 287.713L85.7119 330.334C85.3138 332.056 125.712 289.856 131.485 277.175C133.979 271.695 127.972 265.08 127.972 265.08L115.174 258.417Z" fill="#39B4EF" stroke="#002E47" stroke-miterlimit="10" stroke-linecap="round" stroke-linejoin="round"/>
<path d="M118.111 247.247L137.667 260.853L129.376 270.759L110.617 258.008L118.111 247.247Z" fill="#39B4EF" stroke="#002E47" stroke-miterlimit="10" stroke-linecap="round" stroke-linejoin="round"/>
<path d="M213.699 178.457L110.777 183.537L113.289 234.41L216.21 229.33L213.699 178.457Z" fill="white" stroke="#002E47" stroke-miterlimit="10" stroke-linecap="round" stroke-linejoin="round"/>
<path d="M133.972 185.287L113.914 186.277L114.42 196.522L134.478 195.532L133.972 185.287Z" fill="#39B4EF" stroke="#002E47" stroke-miterlimit="10" stroke-linecap="round" stroke-linejoin="round"/>
<path d="M213.701 178.452L192.648 179.491L195.16 230.364L216.212 229.325L213.701 178.452Z" fill="#DBDBDB" stroke="#002E47" stroke-miterlimit="10" stroke-linecap="round" stroke-linejoin="round"/>
<path d="M213.688 178.456C213.688 178.456 221.896 184.135 225.14 189.966" stroke="#002E47" stroke-miterlimit="10" stroke-linecap="round" stroke-linejoin="round"/>
<path d="M222.226 186.079L221.91 198.701L231.617 210.352L245.212 198.373L235.505 186.407L222.226 186.079Z" fill="#39B4EF" stroke="#002E47" stroke-miterlimit="10" stroke-linecap="round" stroke-linejoin="round"/>
<path d="M163.488 156.959V168.082" stroke="#002E47" stroke-miterlimit="10" stroke-linecap="round" stroke-linejoin="round"/>
<path d="M163.488 254.729V265.853" stroke="#002E47" stroke-miterlimit="10" stroke-linecap="round" stroke-linejoin="round"/>
<path d="M97.3281 173.937L104.939 179.791" stroke="#002E47" stroke-miterlimit="10" stroke-linecap="round" stroke-linejoin="round"/>
<path d="M105.526 213.162L93.2305 213.747" stroke="#002E47" stroke-miterlimit="10" stroke-linecap="round" stroke-linejoin="round"/>
<path d="M113.139 242.435L105.527 250.045" stroke="#002E47" stroke-miterlimit="10" stroke-linecap="round" stroke-linejoin="round"/>
<path d="M220.281 234.238L229.649 243.02" stroke="#002E47" stroke-miterlimit="10" stroke-linecap="round" stroke-linejoin="round"/>
<path d="M217.938 173.351L225.549 164.569" stroke="#002E47" stroke-miterlimit="10" stroke-linecap="round" stroke-linejoin="round"/>
<path d="M248.066 407.497H131.508V416.899H248.066V407.497Z" fill="white" stroke="#002E47" stroke-miterlimit="10" stroke-linecap="round"/>
<path d="M141.486 404.335H133.418V407.356H141.486V404.335Z" fill="white" stroke="#002E47" stroke-miterlimit="10" stroke-linecap="round"/>
<path d="M151.896 404.335H143.828V407.356H151.896V404.335Z" fill="white" stroke="#002E47" stroke-miterlimit="10" stroke-linecap="round"/>
<path d="M162.318 404.335H154.25V407.356H162.318V404.335Z" fill="white" stroke="#002E47" stroke-miterlimit="10" stroke-linecap="round"/>
<path d="M172.724 404.335H164.656V407.356H172.724V404.335Z" fill="white" stroke="#002E47" stroke-miterlimit="10" stroke-linecap="round"/>
<path d="M183.146 404.335H175.078V407.356H183.146V404.335Z" fill="white" stroke="#002E47" stroke-miterlimit="10" stroke-linecap="round"/>
<path d="M193.556 404.335H185.488V407.356H193.556V404.335Z" fill="white" stroke="#002E47" stroke-miterlimit="10" stroke-linecap="round"/>
<path d="M203.978 404.335H195.91V407.356H203.978V404.335Z" fill="white" stroke="#002E47" stroke-miterlimit="10" stroke-linecap="round"/>
<path d="M214.388 404.335H206.32V407.356H214.388V404.335Z" fill="white" stroke="#002E47" stroke-miterlimit="10" stroke-linecap="round"/>
<path d="M224.81 404.335H216.742V407.356H224.81V404.335Z" fill="white" stroke="#002E47" stroke-miterlimit="10" stroke-linecap="round"/>
<path d="M235.22 404.335H227.152V407.356H235.22V404.335Z" fill="white" stroke="#002E47" stroke-miterlimit="10" stroke-linecap="round"/>
<path d="M245.642 404.335H237.574V407.356H245.642V404.335Z" fill="white" stroke="#002E47" stroke-miterlimit="10" stroke-linecap="round"/>
<path d="M106.134 416.899H55.2552C52.117 416.899 49.1661 415.518 47.1638 413.094C45.1614 410.682 44.3417 407.52 44.9272 404.441L67.6441 284.47L73.1827 285.524L50.4659 405.495C50.1966 406.923 50.5713 408.387 51.4964 409.499C52.4214 410.623 53.7915 411.267 55.2435 411.267H106.122V416.899H106.134Z" fill="#002E47"/>
<path d="M69.7867 278.1L61.6367 280.606L67.9014 313.813L77.9249 311.939L69.7867 278.1Z" fill="#002E47"/>
<path d="M88.545 382.287L50.6758 191.02L53.5915 192.823C60.0787 196.851 64.5986 203.385 66.074 210.867L95.2781 358.319C96.976 366.925 94.4818 375.824 88.545 382.287Z" fill="white" stroke="#002E47" stroke-miterlimit="10" stroke-linecap="round"/>
<path d="M506.184 416.899H521.804" stroke="#002E47" stroke-miterlimit="10" stroke-linecap="round"/>
<path d="M4.44531 416.899H494.157" stroke="#002E47" stroke-miterlimit="10" stroke-linecap="round"/>
</svg>
